MFile 1 17 48
MTrk
0 KeySig 4 major
0 SMPTE 96 0 0 0 0
0 Tempo 500000
0 TimeSig 4/4 24 8
125 Tempo 361445
13152 Tempo 352941
13344 Tempo 361445
19392 Tempo 348837
19824 Tempo 361445
26112 Tempo 444444
32448 Tempo 363636
35328 Tempo 361445
35520 Tempo 357142
43104 Tempo 348837
43512 Tempo 582524
43560 Tempo 387096
64248 Tempo 428571
64260 Tempo 397350
64260 Meta TrkEnd
TrkEnd
MTrk
0 Meta 0x21 00
0 Meta TrkName "STARSHIP TROOPER/YES        "
95 Par ch=1 c=10 v=62
107 Par ch=1 c=7 v=112
119 Par ch=1 c=11 v=116
131 Par ch=1 c=93 v=24
137 Par ch=1 c=91 v=40
143 Par ch=1 c=1 v=0
149 PrCh ch=1 p=35
152 Par ch=1 c=98 v=32
152 Par ch=1 c=99 v=1
152 Par ch=1 c=6 v=64
155 Par ch=1 c=98 v=33
155 Par ch=1 c=99 v=1
155 Par ch=1 c=6 v=58
161 Par ch=1 c=100 v=0
161 Par ch=1 c=101 v=0
161 Par ch=1 c=6 v=12
192 On ch=1 n=30 v=102
216 Pb ch=1 v=9558
238 On ch=1 n=30 v=0
239 Pb ch=1 v=8192
240 On ch=1 n=35 v=98
264 Pb ch=1 v=9557
286 On ch=1 n=35 v=0
287 Pb ch=1 v=8192
287 On ch=1 n=40 v=82
309 On ch=1 n=40 v=0
311 On ch=1 n=37 v=94
961 On ch=1 n=37 v=0
1056 On ch=1 n=30 v=110
1080 Pb ch=1 v=9557
1103 On ch=1 n=30 v=0
1103 Pb ch=1 v=8192
1104 On ch=1 n=35 v=98
1128 Pb ch=1 v=9557
1151 On ch=1 n=35 v=0
1151 Pb ch=1 v=8192
1151 On ch=1 n=40 v=100
1173 On ch=1 n=40 v=0
1175 On ch=1 n=37 v=96
1825 On ch=1 n=37 v=0
1920 On ch=1 n=30 v=110
1944 Pb ch=1 v=9557
1967 On ch=1 n=30 v=0
1967 Pb ch=1 v=8192
1968 On ch=1 n=35 v=98
1992 Pb ch=1 v=9557
2015 On ch=1 n=35 v=0
2015 Pb ch=1 v=8192
2015 On ch=1 n=40 v=100
2037 On ch=1 n=40 v=0
2039 On ch=1 n=37 v=96
2344 On ch=1 n=37 v=0
2351 Pb ch=1 v=6827
2351 On ch=1 n=37 v=90
2354 Pb ch=1 v=7509
2355 Pb ch=1 v=8192
2448 On ch=1 n=37 v=0
2448 On ch=1 n=35 v=90
2544 On ch=1 n=35 v=0
2544 On ch=1 n=32 v=90
2592 On ch=1 n=32 v=0
2592 On ch=1 n=28 v=85
2640 On ch=1 n=28 v=0
2640 On ch=1 n=28 v=83
2663 On ch=1 n=28 v=0
2664 On ch=1 n=28 v=78
2684 On ch=1 n=28 v=0
2688 Pb ch=1 v=6827
2688 On ch=1 n=32 v=86
2707 Pb ch=1 v=6992
2708 Pb ch=1 v=7040
2709 Pb ch=1 v=7509
2717 Pb ch=1 v=7592
2718 Pb ch=1 v=8064
2719 Pb ch=1 v=8192
2736 On ch=1 n=32 v=0
2736 On ch=1 n=35 v=87
2783 On ch=1 n=35 v=0
2784 On ch=1 n=35 v=77
2806 On ch=1 n=35 v=0
2808 On ch=1 n=35 v=78
2826 On ch=1 n=35 v=0
2832 On ch=1 n=35 v=78
2833 On ch=1 n=35 v=0
2856 On ch=1 n=35 v=79
2878 On ch=1 n=35 v=0
2880 Pb ch=1 v=6827
2880 On ch=1 n=37 v=87
2901 Pb ch=1 v=6892
2902 Pb ch=1 v=6992
2903 Pb ch=1 v=7509
2911 Pb ch=1 v=7592
2913 Pb ch=1 v=8072
2914 Pb ch=1 v=8192
2927 On ch=1 n=37 v=0
2928 On ch=1 n=40 v=80
2970 On ch=1 n=40 v=0
2976 Pb ch=1 v=8192
2976 On ch=1 n=30 v=110
3000 Pb ch=1 v=9557
3023 On ch=1 n=30 v=0
3023 Pb ch=1 v=8192
3024 On ch=1 n=35 v=98
3048 Pb ch=1 v=9557
3071 On ch=1 n=35 v=0
3071 Pb ch=1 v=8192
3072 On ch=1 n=40 v=90
3094 On ch=1 n=40 v=0
3096 On ch=1 n=37 v=90
3400 On ch=1 n=37 v=0
3407 Pb ch=1 v=6827
3407 On ch=1 n=37 v=90
3410 Pb ch=1 v=7509
3411 Pb ch=1 v=8192
3504 On ch=1 n=37 v=0
3504 On ch=1 n=35 v=90
3600 On ch=1 n=35 v=0
3600 On ch=1 n=32 v=90
3648 On ch=1 n=32 v=0
3648 On ch=1 n=28 v=85
3696 On ch=1 n=28 v=0
3696 On ch=1 n=28 v=83
3719 On ch=1 n=28 v=0
3720 On ch=1 n=28 v=78
3740 On ch=1 n=28 v=0
3744 Pb ch=1 v=6827
3744 On ch=1 n=32 v=86
3763 Pb ch=1 v=6912
3764 Pb ch=1 v=7040
3765 Pb ch=1 v=7509
3773 Pb ch=1 v=7592
3774 Pb ch=1 v=8064
3775 Pb ch=1 v=8192
3792 On ch=1 n=32 v=0
3792 On ch=1 n=35 v=87
3839 On ch=1 n=35 v=0
3864 On ch=1 n=35 v=78
3882 On ch=1 n=35 v=0
3888 On ch=1 n=35 v=78
3889 On ch=1 n=35 v=0
3912 On ch=1 n=35 v=79
3934 On ch=1 n=35 v=0
3936 Pb ch=1 v=6827
3936 On ch=1 n=37 v=87
3957 Pb ch=1 v=6892
3958 Pb ch=1 v=7040
3959 Pb ch=1 v=7509
3967 Pb ch=1 v=7680
3969 Pb ch=1 v=8128
3970 Pb ch=1 v=8192
3983 On ch=1 n=37 v=0
3984 On ch=1 n=40 v=88
4026 On ch=1 n=40 v=0
4032 On ch=1 n=28 v=90
4056 Pb ch=1 v=10923
4079 On ch=1 n=28 v=0
4079 Pb ch=1 v=8192
4080 On ch=1 n=35 v=92
4104 Pb ch=1 v=9557
4127 On ch=1 n=35 v=0
4127 Pb ch=1 v=8192
4128 On ch=1 n=40 v=92
4152 On ch=1 n=40 v=0
4152 On ch=1 n=37 v=90
4456 On ch=1 n=37 v=0
4466 On ch=1 n=42 v=88
4562 On ch=1 n=40 v=87
4563 On ch=1 n=42 v=0
4655 On ch=1 n=40 v=0
4656 Pb ch=1 v=7492
4656 On ch=1 n=37 v=90
4661 Pb ch=1 v=7509
4679 Pb ch=1 v=7592
4681 Pb ch=1 v=8072
4682 Pb ch=1 v=8192
4704 On ch=1 n=40 v=90
4705 On ch=1 n=37 v=0
4894 On ch=1 n=40 v=0
4896 On ch=1 n=38 v=96
4944 On ch=1 n=38 v=0
5184 Par ch=1 c=98 v=33
5184 Par ch=1 c=99 v=1
5184 Par ch=1 c=6 v=16
5280 On ch=1 n=50 v=90
5306 On ch=1 n=50 v=0
5328 On ch=1 n=48 v=89
5354 On ch=1 n=48 v=0
5376 On ch=1 n=47 v=88
5424 On ch=1 n=47 v=0
5424 On ch=1 n=43 v=90
5544 Pb ch=1 v=7510
5562 Pb ch=1 v=6827
5578 Pb ch=1 v=6144
5592 Pb ch=1 v=5462
5605 Pb ch=1 v=4779
5617 Pb ch=1 v=4096
5627 Pb ch=1 v=3413
5637 Pb ch=1 v=2731
5646 Pb ch=1 v=2048
5655 Pb ch=1 v=1365
5662 On ch=1 n=43 v=0
5663 Pb ch=1 v=8192
5664 On ch=1 n=40 v=104
5688 On ch=1 n=40 v=0
5688 On ch=1 n=44 v=102
5712 On ch=1 n=44 v=0
5712 On ch=1 n=47 v=112
5734 Par ch=1 c=65 v=127
5734 On ch=1 n=49 v=96
5736 On ch=1 n=47 v=0
5758 On ch=1 n=49 v=0
5760 Par ch=1 c=65 v=0
5760 On ch=1 n=52 v=114
5782 On ch=1 n=52 v=0
5784 On ch=1 n=49 v=110
6144 On ch=1 n=49 v=0
6144 On ch=1 n=42 v=100
6236 On ch=1 n=42 v=0
6240 On ch=1 n=44 v=100
6332 On ch=1 n=44 v=0
6336 On ch=1 n=45 v=100
6358 On ch=1 n=45 v=0
6360 On ch=1 n=44 v=96
6384 On ch=1 n=44 v=0
6408 On ch=1 n=45 v=100
6432 On ch=1 n=45 v=0
6456 On ch=1 n=44 v=96
6478 On ch=1 n=44 v=0
6480 On ch=1 n=40 v=92
6528 On ch=1 n=40 v=0
6528 On ch=1 n=40 v=90
6552 On ch=1 n=40 v=0
6552 On ch=1 n=40 v=89
6574 On ch=1 n=40 v=0
6576 On ch=1 n=47 v=92
6600 On ch=1 n=47 v=0
6600 On ch=1 n=47 v=85
6624 On ch=1 n=47 v=0
6624 On ch=1 n=47 v=84
6648 On ch=1 n=47 v=0
6648 On ch=1 n=47 v=86
6672 On ch=1 n=47 v=0
6672 On ch=1 n=40 v=80
6696 On ch=1 n=40 v=0
6696 On ch=1 n=40 v=90
6718 On ch=1 n=40 v=0
6744 On ch=1 n=40 v=86
6766 On ch=1 n=40 v=0
6768 On ch=1 n=47 v=90
6792 On ch=1 n=47 v=0
6792 On ch=1 n=47 v=86
6816 On ch=1 n=47 v=0
6816 On ch=1 n=47 v=85
6840 On ch=1 n=47 v=0
6840 On ch=1 n=47 v=90
6864 On ch=1 n=47 v=0
6864 On ch=1 n=40 v=90
6888 On ch=1 n=40 v=0
6888 On ch=1 n=40 v=85
6912 On ch=1 n=40 v=0
6912 On ch=1 n=40 v=82
6936 On ch=1 n=40 v=0
6936 On ch=1 n=40 v=83
6958 On ch=1 n=40 v=0
6960 On ch=1 n=47 v=91
6984 On ch=1 n=47 v=0
6984 On ch=1 n=47 v=85
7008 On ch=1 n=47 v=0
7008 On ch=1 n=47 v=83
7032 On ch=1 n=47 v=0
7032 On ch=1 n=47 v=85
7054 On ch=1 n=47 v=0
7056 On ch=1 n=40 v=88
7078 On ch=1 n=40 v=0
7080 On ch=1 n=40 v=82
7102 On ch=1 n=40 v=0
7128 On ch=1 n=40 v=83
7150 On ch=1 n=40 v=0
7152 On ch=1 n=47 v=90
7176 On ch=1 n=47 v=0
7176 On ch=1 n=47 v=85
7200 On ch=1 n=47 v=0
7200 On ch=1 n=47 v=83
7224 On ch=1 n=47 v=0
7224 On ch=1 n=47 v=86
7248 On ch=1 n=47 v=0
7248 On ch=1 n=40 v=96
7269 Pb ch=1 v=8875
7270 Pb ch=1 v=9557
7271 Pb ch=1 v=10240
7272 Pb ch=1 v=10792
7273 Pb ch=1 v=10923
7295 Pb ch=1 v=8192
7296 On ch=1 n=40 v=0
7296 On ch=1 n=47 v=92
7320 Pb ch=1 v=9557
7343 Pb ch=1 v=8192
7344 On ch=1 n=47 v=0
7344 On ch=1 n=52 v=100
7367 On ch=1 n=52 v=0
7368 On ch=1 n=49 v=98
7680 On ch=1 n=49 v=0
7680 Pb ch=1 v=6827
7680 On ch=1 n=49 v=94
7684 Pb ch=1 v=7509
7686 Pb ch=1 v=8072
7687 Pb ch=1 v=8192
7776 On ch=1 n=49 v=0
7776 On ch=1 n=47 v=92
7872 On ch=1 n=47 v=0
7872 On ch=1 n=44 v=89
7884 Pb ch=1 v=8792
7885 Pb ch=1 v=8875
7886 Pb ch=1 v=8892
7887 Pb ch=1 v=8875
7888 Pb ch=1 v=8312
7890 Pb ch=1 v=8192
7895 Pb ch=1 v=8128
7896 Pb ch=1 v=8112
7898 Pb ch=1 v=8064
7906 Pb ch=1 v=7936
7916 Pb ch=1 v=7509
7917 Pb ch=1 v=6827
7918 On ch=1 n=44 v=0
7918 Pb ch=1 v=6792
7919 Pb ch=1 v=5482
7920 Pb ch=1 v=8192
7920 On ch=1 n=40 v=90
7988 On ch=1 n=40 v=0
7992 On ch=1 n=40 v=88
8014 On ch=1 n=40 v=0
8016 On ch=1 n=43 v=88
8038 On ch=1 n=43 v=0
8040 On ch=1 n=44 v=86
8064 On ch=1 n=44 v=0
8064 On ch=1 n=47 v=87
8109 On ch=1 n=47 v=0
8112 On ch=1 n=47 v=87
8134 On ch=1 n=47 v=0
8136 On ch=1 n=49 v=86
8158 On ch=1 n=49 v=0
8160 On ch=1 n=52 v=88
8208 On ch=1 n=52 v=0
8208 On ch=1 n=47 v=84
8230 On ch=1 n=47 v=0
8232 On ch=1 n=49 v=83
8254 On ch=1 n=49 v=0
8256 On ch=1 n=52 v=88
8304 On ch=1 n=52 v=0
8304 On ch=1 n=40 v=96
8325 Pb ch=1 v=8875
8326 Pb ch=1 v=9557
8327 Pb ch=1 v=10240
8328 Pb ch=1 v=10792
8329 Pb ch=1 v=10923
8351 On ch=1 n=40 v=0
8351 Pb ch=1 v=8192
8352 On ch=1 n=47 v=92
8376 Pb ch=1 v=9557
8399 On ch=1 n=47 v=0
8399 Pb ch=1 v=8192
8400 On ch=1 n=52 v=88
8423 On ch=1 n=52 v=0
8424 On ch=1 n=49 v=88
8736 On ch=1 n=49 v=0
8736 Pb ch=1 v=6827
8736 On ch=1 n=49 v=89
8740 Pb ch=1 v=7509
8742 Pb ch=1 v=8072
8743 Pb ch=1 v=8192
8832 On ch=1 n=49 v=0
8832 On ch=1 n=47 v=89
8928 On ch=1 n=47 v=0
8928 On ch=1 n=44 v=86
8974 On ch=1 n=44 v=0
8976 On ch=1 n=40 v=90
9024 On ch=1 n=40 v=0
9024 On ch=1 n=40 v=85
9048 On ch=1 n=40 v=0
9048 On ch=1 n=40 v=86
9070 On ch=1 n=40 v=0
9072 Pb ch=1 v=7507
9072 On ch=1 n=44 v=86
9096 Pb ch=1 v=8192
9120 On ch=1 n=44 v=0
9120 On ch=1 n=47 v=87
9165 On ch=1 n=47 v=0
9168 On ch=1 n=47 v=87
9190 On ch=1 n=47 v=0
9192 On ch=1 n=49 v=86
9214 On ch=1 n=49 v=0
9216 On ch=1 n=52 v=88
9264 On ch=1 n=52 v=0
9264 On ch=1 n=47 v=84
9286 On ch=1 n=47 v=0
9288 On ch=1 n=49 v=80
9310 On ch=1 n=49 v=0
9312 On ch=1 n=52 v=88
9360 On ch=1 n=52 v=0
9360 On ch=1 n=40 v=92
9384 Pb ch=1 v=8874
9386 Pb ch=1 v=9557
9387 Pb ch=1 v=10240
9388 Pb ch=1 v=10923
9408 On ch=1 n=40 v=0
9408 Pb ch=1 v=8192
9408 On ch=1 n=47 v=92
9432 Pb ch=1 v=8874
9434 Pb ch=1 v=9557
9456 On ch=1 n=47 v=0
9456 Pb ch=1 v=8192
9456 On ch=1 n=52 v=101
9480 On ch=1 n=52 v=0
9480 On ch=1 n=54 v=104
9696 On ch=1 n=54 v=0
9696 Pb ch=1 v=9557
9696 On ch=1 n=54 v=108
9697 Pb ch=1 v=8874
9698 Pb ch=1 v=8192
9888 On ch=1 n=54 v=0
9888 Pb ch=1 v=9557
9888 On ch=1 n=54 v=108
9890 Pb ch=1 v=8874
9891 Pb ch=1 v=8192
10020 Pb ch=1 v=7509
10023 Pb ch=1 v=6827
10026 Pb ch=1 v=6144
10028 Pb ch=1 v=6461
10029 Pb ch=1 v=4779
10030 Pb ch=1 v=3413
10031 Pb ch=1 v=2048
10032 On ch=1 n=54 v=0
10032 Pb ch=1 v=8192
10032 On ch=1 n=40 v=108
10077 On ch=1 n=40 v=0
10080 On ch=1 n=40 v=108
10125 On ch=1 n=40 v=0
10128 On ch=1 n=47 v=108
10220 On ch=1 n=47 v=0
10224 On ch=1 n=38 v=114
10269 On ch=1 n=38 v=0
10608 On ch=1 n=50 v=110
10634 On ch=1 n=50 v=0
10656 On ch=1 n=48 v=110
10682 On ch=1 n=48 v=0
10704 On ch=1 n=47 v=110
10752 On ch=1 n=47 v=0
10752 On ch=1 n=43 v=100
10872 Pb ch=1 v=7510
10890 Pb ch=1 v=6827
10906 Pb ch=1 v=6144
10920 Pb ch=1 v=5462
10933 Pb ch=1 v=4779
10945 Pb ch=1 v=4096
10955 Pb ch=1 v=3413
10965 Pb ch=1 v=2731
10974 Pb ch=1 v=2048
10983 Pb ch=1 v=1365
10990 On ch=1 n=43 v=0
10991 Pb ch=1 v=8192
10992 On ch=1 n=40 v=100
11016 Pb ch=1 v=8875
11017 Pb ch=1 v=9557
11018 Pb ch=1 v=10923
11040 On ch=1 n=40 v=0
11040 Pb ch=1 v=8192
11040 On ch=1 n=47 v=100
11064 Pb ch=1 v=8875
11066 Pb ch=1 v=9557
11088 On ch=1 n=47 v=0
11088 Pb ch=1 v=8192
11088 On ch=1 n=52 v=94
11110 On ch=1 n=52 v=0
11112 On ch=1 n=49 v=98
11468 On ch=1 n=49 v=0
11472 On ch=1 n=54 v=115
11564 On ch=1 n=54 v=0
11568 On ch=1 n=56 v=110
11660 On ch=1 n=56 v=0
11664 On ch=1 n=57 v=112
11686 On ch=1 n=57 v=0
11688 On ch=1 n=56 v=107
11710 On ch=1 n=56 v=0
11736 On ch=1 n=57 v=108
11784 On ch=1 n=57 v=0
11784 On ch=1 n=56 v=102
11806 On ch=1 n=56 v=0
11808 On ch=1 n=40 v=95
11856 On ch=1 n=40 v=0
11856 On ch=1 n=40 v=90
11878 On ch=1 n=40 v=0
11880 On ch=1 n=40 v=92
11904 On ch=1 n=47 v=97
11908 On ch=1 n=40 v=0
11928 On ch=1 n=47 v=0
11928 On ch=1 n=47 v=94
11952 On ch=1 n=47 v=0
11952 On ch=1 n=47 v=97
11976 On ch=1 n=47 v=0
11976 On ch=1 n=47 v=94
12000 On ch=1 n=47 v=0
12000 On ch=1 n=40 v=92
12024 On ch=1 n=40 v=0
12024 On ch=1 n=40 v=98
12046 On ch=1 n=40 v=0
12072 On ch=1 n=40 v=93
12096 On ch=1 n=47 v=93
12099 On ch=1 n=40 v=0
12120 On ch=1 n=47 v=0
12120 On ch=1 n=47 v=90
12144 On ch=1 n=47 v=0
12144 On ch=1 n=47 v=93
12168 On ch=1 n=47 v=0
12168 On ch=1 n=47 v=90
12192 On ch=1 n=47 v=0
12192 Par ch=1 c=98 v=33
12192 Par ch=1 c=99 v=1
12192 Par ch=1 c=6 v=58
12192 On ch=1 n=36 v=92
12334 On ch=1 n=36 v=0
12336 On ch=1 n=40 v=96
12431 On ch=1 n=40 v=0
12432 On ch=1 n=43 v=90
12456 On ch=1 n=43 v=0
12480 On ch=1 n=48 v=98
12573 On ch=1 n=48 v=0
12574 On ch=1 n=47 v=99
12598 On ch=1 n=47 v=0
12623 On ch=1 n=42 v=94
12645 On ch=1 n=42 v=0
12671 On ch=1 n=38 v=92
12715 On ch=1 n=38 v=0
12719 On ch=1 n=35 v=90
12768 On ch=1 n=35 v=0
12768 On ch=1 n=35 v=90
12815 On ch=1 n=35 v=0
12816 On ch=1 n=38 v=94
12912 On ch=1 n=38 v=0
12912 On ch=1 n=40 v=94
12960 On ch=1 n=40 v=0
12960 On ch=1 n=33 v=90
13008 On ch=1 n=33 v=0
13008 On ch=1 n=40 v=95
13032 On ch=1 n=40 v=0
13056 On ch=1 n=45 v=93
13080 On ch=1 n=45 v=0
13104 On ch=1 n=47 v=97
13175 On ch=1 n=47 v=0
13176 On ch=1 n=45 v=90
13198 On ch=1 n=45 v=0
13200 On ch=1 n=47 v=92
13222 On ch=1 n=47 v=0
13224 On ch=1 n=45 v=90
13246 On ch=1 n=45 v=0
13248 On ch=1 n=47 v=94
13272 On ch=1 n=47 v=0
13272 On ch=1 n=47 v=88
13296 On ch=1 n=47 v=0
13296 On ch=1 n=47 v=80
13320 On ch=1 n=47 v=0
13320 On ch=1 n=47 v=75
13344 On ch=1 n=47 v=0
13344 Par ch=1 c=98 v=33
13344 Par ch=1 c=99 v=1
13344 Par ch=1 c=6 v=16
13344 On ch=1 n=42 v=88
13368 Pb ch=1 v=8320
13369 Pb ch=1 v=8877
13371 Pb ch=1 v=8912
13372 Pb ch=1 v=9557
13392 On ch=1 n=42 v=0
13392 Pb ch=1 v=8192
13392 On ch=1 n=47 v=88
13412 Pb ch=1 v=8320
13413 Pb ch=1 v=8875
13415 Pb ch=1 v=8912
13416 Pb ch=1 v=9557
13440 On ch=1 n=47 v=0
13440 Pb ch=1 v=8192
13440 On ch=1 n=52 v=92
13464 On ch=1 n=52 v=0
13464 On ch=1 n=49 v=88
13509 On ch=1 n=49 v=0
13512 On ch=1 n=52 v=88
13560 On ch=1 n=54 v=90
13561 On ch=1 n=52 v=0
13605 On ch=1 n=54 v=0
13608 On ch=1 n=57 v=92
13653 On ch=1 n=57 v=0
13656 On ch=1 n=59 v=94
13701 On ch=1 n=59 v=0
13704 On ch=1 n=61 v=96
13752 On ch=1 n=61 v=0
13752 On ch=1 n=62 v=94
13797 On ch=1 n=62 v=0
13800 On ch=1 n=61 v=90
13845 On ch=1 n=61 v=0
13848 On ch=1 n=59 v=88
13870 On ch=1 n=59 v=0
13872 On ch=1 n=61 v=90
13894 On ch=1 n=61 v=0
13896 On ch=1 n=59 v=87
13915 Pb ch=1 v=8064
13917 Pb ch=1 v=7509
13919 On ch=1 n=59 v=0
13919 Pb ch=1 v=7472
13920 Pb ch=1 v=8192
13920 On ch=1 n=57 v=88
13965 On ch=1 n=57 v=0
13968 On ch=1 n=59 v=92
13992 On ch=1 n=54 v=88
13993 On ch=1 n=59 v=0
14037 On ch=1 n=54 v=0
14040 On ch=1 n=50 v=82
14080 Pb ch=1 v=8064
14081 Pb ch=1 v=7509
14084 Pb ch=1 v=7472
14085 Pb ch=1 v=6827
14086 Pb ch=1 v=6144
14087 On ch=1 n=50 v=0
14087 Pb ch=1 v=8192
14088 On ch=1 n=47 v=82
14136 On ch=1 n=47 v=0
14136 On ch=1 n=44 v=82
14158 On ch=1 n=44 v=0
14160 On ch=1 n=40 v=80
14205 On ch=1 n=40 v=0
14208 On ch=1 n=28 v=96
14256 On ch=1 n=40 v=82
14258 On ch=1 n=28 v=0
14280 On ch=1 n=40 v=0
14280 On ch=1 n=40 v=82
14304 On ch=1 n=40 v=0
14304 On ch=1 n=40 v=82
14328 On ch=1 n=40 v=0
14328 On ch=1 n=40 v=82
14376 On ch=1 n=40 v=0
14376 On ch=1 n=35 v=76
14383 On ch=1 n=35 v=0
14400 On ch=1 n=40 v=88
14448 On ch=1 n=40 v=0
14448 On ch=1 n=40 v=84
14470 On ch=1 n=40 v=0
14472 On ch=1 n=40 v=82
14494 On ch=1 n=40 v=0
14496 On ch=1 n=28 v=90
14544 On ch=1 n=28 v=0
14544 On ch=1 n=28 v=82
14568 On ch=1 n=28 v=0
14568 On ch=1 n=28 v=82
14592 On ch=1 n=28 v=0
14592 On ch=1 n=28 v=90
14640 On ch=1 n=28 v=0
14640 On ch=1 n=28 v=82
14664 On ch=1 n=28 v=0
14664 On ch=1 n=28 v=82
14688 On ch=1 n=28 v=0
14688 On ch=1 n=28 v=82
14708 On ch=1 n=28 v=0
14712 On ch=1 n=28 v=82
14757 On ch=1 n=28 v=0
14760 On ch=1 n=28 v=82
14784 On ch=1 n=28 v=0
14784 On ch=1 n=28 v=82
14832 On ch=1 n=28 v=0
14832 On ch=1 n=28 v=84
14880 On ch=1 n=28 v=0
14880 On ch=1 n=45 v=104
14904 On ch=1 n=45 v=0
14904 On ch=1 n=45 v=84
14928 On ch=1 n=45 v=0
14928 On ch=1 n=45 v=84
14952 On ch=1 n=45 v=0
14952 On ch=1 n=42 v=100
14976 On ch=1 n=42 v=0
14976 On ch=1 n=42 v=84
15000 On ch=1 n=42 v=0
15000 On ch=1 n=42 v=84
15024 On ch=1 n=42 v=0
15024 On ch=1 n=40 v=100
15048 On ch=1 n=40 v=0
15048 On ch=1 n=40 v=84
15072 On ch=1 n=40 v=0
15072 On ch=1 n=40 v=84
15096 On ch=1 n=40 v=0
15096 On ch=1 n=39 v=99
15120 On ch=1 n=39 v=0
15120 On ch=1 n=39 v=84
15144 On ch=1 n=39 v=0
15144 On ch=1 n=39 v=84
15168 On ch=1 n=39 v=0
15168 On ch=1 n=37 v=100
15192 On ch=1 n=37 v=0
15192 On ch=1 n=37 v=83
15216 On ch=1 n=37 v=0
15216 On ch=1 n=37 v=84
15240 On ch=1 n=37 v=0
15240 On ch=1 n=37 v=83
15264 On ch=1 n=37 v=0
15264 On ch=1 n=36 v=100
15288 On ch=1 n=36 v=0
15288 On ch=1 n=36 v=84
15312 On ch=1 n=36 v=0
15312 On ch=1 n=36 v=84
15336 On ch=1 n=36 v=0
15336 On ch=1 n=45 v=102
15360 On ch=1 n=45 v=0
15360 On ch=1 n=45 v=84
15384 On ch=1 n=45 v=0
15384 On ch=1 n=45 v=84
15408 On ch=1 n=45 v=0
15408 On ch=1 n=43 v=100
15432 On ch=1 n=43 v=0
15432 On ch=1 n=43 v=84
15456 On ch=1 n=43 v=0
15456 On ch=1 n=43 v=84
15468 Pb ch=1 v=8320
15469 Pb ch=1 v=8875
15473 Pb ch=1 v=9557
15475 Pb ch=1 v=9652
15476 Pb ch=1 v=10240
15477 On ch=1 n=43 v=0
15477 Pb ch=1 v=10392
15478 Pb ch=1 v=10923
15479 Pb ch=1 v=8192
15480 Pb ch=1 v=7509
15480 On ch=1 n=52 v=70
15481 Pb ch=1 v=7612
15482 Pb ch=1 v=8064
15483 Pb ch=1 v=8192
15502 On ch=1 n=52 v=0
15504 On ch=1 n=57 v=100
15527 On ch=1 n=57 v=0
15528 On ch=1 n=55 v=98
15552 On ch=1 n=55 v=0
15552 On ch=1 n=52 v=98
15574 On ch=1 n=52 v=0
15576 On ch=1 n=50 v=96
15600 On ch=1 n=50 v=0
15600 On ch=1 n=48 v=96
15622 On ch=1 n=48 v=0
15624 On ch=1 n=45 v=80
15646 On ch=1 n=45 v=0
15648 On ch=1 n=41 v=104
15672 On ch=1 n=41 v=0
15672 On ch=1 n=41 v=84
15696 On ch=1 n=41 v=0
15696 On ch=1 n=41 v=84
15720 On ch=1 n=41 v=0
15720 On ch=1 n=33 v=100
15744 On ch=1 n=33 v=0
15744 On ch=1 n=33 v=84
15768 On ch=1 n=33 v=0
15768 On ch=1 n=33 v=84
15792 On ch=1 n=33 v=0
15792 On ch=1 n=38 v=102
15816 On ch=1 n=38 v=0
15816 On ch=1 n=38 v=84
15840 On ch=1 n=38 v=0
15840 On ch=1 n=38 v=84
15864 On ch=1 n=38 v=0
15864 On ch=1 n=36 v=100
15888 On ch=1 n=36 v=0
15888 On ch=1 n=36 v=84
15912 On ch=1 n=36 v=0
15912 On ch=1 n=36 v=84
15936 On ch=1 n=36 v=0
15936 On ch=1 n=33 v=98
15960 On ch=1 n=33 v=0
15960 On ch=1 n=33 v=84
15984 On ch=1 n=33 v=0
15984 On ch=1 n=36 v=100
16008 On ch=1 n=36 v=0
16008 On ch=1 n=36 v=84
16032 On ch=1 n=36 v=0
16032 On ch=1 n=34 v=98
16056 On ch=1 n=34 v=0
16056 On ch=1 n=34 v=84
16080 On ch=1 n=34 v=0
16080 On ch=1 n=34 v=84
16104 On ch=1 n=34 v=0
16104 On ch=1 n=33 v=98
16128 On ch=1 n=33 v=0
16128 On ch=1 n=33 v=84
16152 On ch=1 n=33 v=0
16152 On ch=1 n=33 v=84
16176 On ch=1 n=33 v=0
16176 On ch=1 n=34 v=98
16200 On ch=1 n=34 v=0
16200 On ch=1 n=34 v=84
16224 On ch=1 n=34 v=0
16248 On ch=1 n=36 v=100
16272 On ch=1 n=36 v=0
16296 On ch=1 n=36 v=84
16318 On ch=1 n=36 v=0
16320 On ch=1 n=36 v=94
16344 Pb ch=1 v=8320
16345 Pb ch=1 v=8875
16346 Pb ch=1 v=9557
16368 On ch=1 n=36 v=0
16368 Pb ch=1 v=8192
16368 On ch=1 n=41 v=90
16413 On ch=1 n=41 v=0
16416 On ch=1 n=32 v=100
16440 On ch=1 n=32 v=0
16440 On ch=1 n=32 v=84
16464 On ch=1 n=32 v=0
16464 On ch=1 n=32 v=84
16488 On ch=1 n=32 v=0
16488 On ch=1 n=31 v=100
16512 On ch=1 n=31 v=0
16512 On ch=1 n=31 v=84
16536 On ch=1 n=31 v=0
16536 On ch=1 n=31 v=84
16560 On ch=1 n=31 v=0
16560 On ch=1 n=32 v=100
16584 On ch=1 n=32 v=0
16584 On ch=1 n=32 v=84
16608 On ch=1 n=32 v=0
16608 On ch=1 n=32 v=84
16632 On ch=1 n=32 v=0
16632 On ch=1 n=34 v=98
16680 On ch=1 n=34 v=0
16680 On ch=1 n=34 v=94
16704 On ch=1 n=34 v=0
16704 On ch=1 n=34 v=98
16728 Pb ch=1 v=8320
16729 Pb ch=1 v=8875
16730 Pb ch=1 v=9557
16752 Pb ch=1 v=8192
16752 On ch=1 n=39 v=100
16753 On ch=1 n=34 v=0
16800 On ch=1 n=39 v=0
16800 On ch=1 n=41 v=100
16845 On ch=1 n=41 v=0
16848 On ch=1 n=41 v=88
16870 On ch=1 n=41 v=0
16872 On ch=1 n=41 v=87
16894 On ch=1 n=41 v=0
16896 On ch=1 n=33 v=98
16920 On ch=1 n=33 v=0
16920 On ch=1 n=33 v=88
16944 On ch=1 n=33 v=0
16944 On ch=1 n=33 v=90
16968 On ch=1 n=33 v=0
16968 On ch=1 n=33 v=88
16992 On ch=1 n=33 v=0
16992 On ch=1 n=36 v=100
17016 On ch=1 n=36 v=0
17016 On ch=1 n=36 v=88
17040 On ch=1 n=36 v=0
17040 On ch=1 n=36 v=92
17064 On ch=1 n=36 v=0
17064 On ch=1 n=36 v=88
17088 On ch=1 n=36 v=0
17088 On ch=1 n=33 v=94
17133 On ch=1 n=33 v=0
17136 On ch=1 n=45 v=104
17160 On ch=1 n=45 v=0
17160 On ch=1 n=45 v=84
17184 On ch=1 n=45 v=0
17184 On ch=1 n=45 v=84
17208 On ch=1 n=45 v=0
17208 On ch=1 n=42 v=100
17232 On ch=1 n=42 v=0
17232 On ch=1 n=42 v=84
17256 On ch=1 n=42 v=0
17256 On ch=1 n=42 v=84
17280 On ch=1 n=42 v=0
17280 On ch=1 n=40 v=100
17304 On ch=1 n=40 v=0
17304 On ch=1 n=40 v=84
17328 On ch=1 n=40 v=0
17328 On ch=1 n=40 v=84
17352 On ch=1 n=40 v=0
17352 On ch=1 n=39 v=99
17376 On ch=1 n=39 v=0
17376 On ch=1 n=39 v=84
17400 On ch=1 n=39 v=0
17400 On ch=1 n=39 v=84
17424 On ch=1 n=39 v=0
17424 On ch=1 n=37 v=100
17448 On ch=1 n=37 v=0
17448 On ch=1 n=37 v=83
17472 On ch=1 n=37 v=0
17472 On ch=1 n=37 v=84
17496 On ch=1 n=37 v=0
17496 On ch=1 n=37 v=83
17520 On ch=1 n=37 v=0
17520 On ch=1 n=36 v=100
17544 On ch=1 n=36 v=0
17544 On ch=1 n=36 v=84
17568 On ch=1 n=36 v=0
17568 On ch=1 n=36 v=84
17592 On ch=1 n=36 v=0
17592 On ch=1 n=45 v=102
17616 On ch=1 n=45 v=0
17616 On ch=1 n=45 v=84
17640 On ch=1 n=45 v=0
17640 On ch=1 n=45 v=84
17664 On ch=1 n=45 v=0
17664 On ch=1 n=43 v=100
17688 On ch=1 n=43 v=0
17688 On ch=1 n=43 v=84
17712 On ch=1 n=43 v=0
17712 On ch=1 n=43 v=84
17724 Pb ch=1 v=8320
17725 Pb ch=1 v=8875
17729 Pb ch=1 v=9557
17731 Pb ch=1 v=9652
17732 Pb ch=1 v=10240
17733 On ch=1 n=43 v=0
17733 Pb ch=1 v=10392
17734 Pb ch=1 v=10923
17735 Pb ch=1 v=8192
17736 Pb ch=1 v=7509
17736 On ch=1 n=52 v=50
17737 Pb ch=1 v=7612
17738 Pb ch=1 v=8064
17739 Pb ch=1 v=8192
17758 On ch=1 n=52 v=0
17760 On ch=1 n=57 v=100
17783 On ch=1 n=57 v=0
17784 On ch=1 n=55 v=98
17808 On ch=1 n=55 v=0
17808 On ch=1 n=52 v=98
17830 On ch=1 n=52 v=0
17832 On ch=1 n=50 v=96
17856 On ch=1 n=50 v=0
17856 On ch=1 n=48 v=96
17878 On ch=1 n=48 v=0
17880 On ch=1 n=45 v=80
17902 On ch=1 n=45 v=0
17904 On ch=1 n=41 v=104
17928 On ch=1 n=41 v=0
17928 On ch=1 n=41 v=84
17952 On ch=1 n=41 v=0
17952 On ch=1 n=41 v=84
17976 On ch=1 n=41 v=0
17976 On ch=1 n=33 v=100
18000 On ch=1 n=33 v=0
18000 On ch=1 n=33 v=84
18024 On ch=1 n=33 v=0
18024 On ch=1 n=33 v=84
18048 On ch=1 n=33 v=0
18048 On ch=1 n=38 v=102
18072 On ch=1 n=38 v=0
18072 On ch=1 n=38 v=84
18096 On ch=1 n=38 v=0
18096 On ch=1 n=38 v=84
18120 On ch=1 n=38 v=0
18120 On ch=1 n=36 v=100
18144 On ch=1 n=36 v=0
18144 On ch=1 n=36 v=84
18168 On ch=1 n=36 v=0
18168 On ch=1 n=36 v=84
18192 On ch=1 n=36 v=0
18192 On ch=1 n=33 v=98
18216 On ch=1 n=33 v=0
18216 On ch=1 n=33 v=84
18240 On ch=1 n=33 v=0
18240 On ch=1 n=36 v=100
18264 On ch=1 n=36 v=0
18264 On ch=1 n=36 v=84
18288 On ch=1 n=36 v=0
18288 On ch=1 n=34 v=98
18312 On ch=1 n=34 v=0
18312 On ch=1 n=34 v=84
18336 On ch=1 n=34 v=0
18336 On ch=1 n=34 v=84
18360 On ch=1 n=34 v=0
18360 On ch=1 n=33 v=98
18384 On ch=1 n=33 v=0
18384 On ch=1 n=33 v=84
18408 On ch=1 n=33 v=0
18408 On ch=1 n=33 v=84
18432 On ch=1 n=33 v=0
18432 On ch=1 n=34 v=98
18456 On ch=1 n=34 v=0
18456 On ch=1 n=34 v=84
18496 On ch=1 n=34 v=0
18504 On ch=1 n=36 v=100
18528 On ch=1 n=36 v=0
18552 On ch=1 n=36 v=84
18574 On ch=1 n=36 v=0
18576 On ch=1 n=36 v=94
18600 Pb ch=1 v=8320
18601 Pb ch=1 v=8875
18602 Pb ch=1 v=9557
18624 On ch=1 n=36 v=0
18624 Pb ch=1 v=8192
18624 On ch=1 n=41 v=96
18648 On ch=1 n=41 v=0
18648 On ch=1 n=41 v=85
18672 On ch=1 n=41 v=0
18672 On ch=1 n=32 v=100
18696 On ch=1 n=32 v=0
18696 On ch=1 n=32 v=84
18720 On ch=1 n=32 v=0
18720 On ch=1 n=32 v=84
18744 On ch=1 n=32 v=0
18744 On ch=1 n=31 v=100
18768 On ch=1 n=31 v=0
18768 On ch=1 n=31 v=84
18792 On ch=1 n=31 v=0
18792 On ch=1 n=31 v=84
18816 On ch=1 n=31 v=0
18816 On ch=1 n=32 v=100
18840 On ch=1 n=32 v=0
18840 On ch=1 n=32 v=84
18864 On ch=1 n=32 v=0
18864 On ch=1 n=32 v=84
18888 On ch=1 n=32 v=0
18888 On ch=1 n=34 v=98
18936 On ch=1 n=34 v=0
18936 On ch=1 n=34 v=94
18960 On ch=1 n=34 v=0
18960 On ch=1 n=34 v=98
18984 Pb ch=1 v=8320
18985 Pb ch=1 v=8875
18986 Pb ch=1 v=9557
19008 Pb ch=1 v=8192
19008 On ch=1 n=39 v=100
19009 On ch=1 n=34 v=0
19056 On ch=1 n=39 v=0
19056 On ch=1 n=41 v=100
19078 On ch=1 n=41 v=0
19080 On ch=1 n=41 v=102
19102 On ch=1 n=41 v=0
19128 On ch=1 n=41 v=94
19148 On ch=1 n=41 v=0
19152 On ch=1 n=41 v=100
19174 On ch=1 n=41 v=0
19176 On ch=1 n=41 v=100
19198 On ch=1 n=41 v=0
19224 On ch=1 n=41 v=94
19244 On ch=1 n=41 v=0
19248 On ch=1 n=41 v=100
19270 On ch=1 n=41 v=0
19272 On ch=1 n=38 v=90
19294 On ch=1 n=38 v=0
19296 On ch=1 n=36 v=88
19341 On ch=1 n=36 v=0
19344 On ch=1 n=33 v=102
19376 On ch=1 n=33 v=0
19392 Par ch=1 c=10 v=63
19392 On ch=1 n=31 v=120
19460 On ch=1 n=31 v=0
19464 On ch=1 n=33 v=106
19486 On ch=1 n=33 v=0
19488 On ch=1 n=35 v=109
19510 On ch=1 n=35 v=0
19512 On ch=1 n=36 v=106
19534 On ch=1 n=36 v=0
19536 On ch=1 n=38 v=109
19558 On ch=1 n=38 v=0
19560 On ch=1 n=40 v=106
19582 On ch=1 n=40 v=0
19584 On ch=1 n=42 v=110
19606 On ch=1 n=42 v=0
19608 On ch=1 n=43 v=110
19654 On ch=1 n=43 v=0
19656 On ch=1 n=45 v=102
19678 On ch=1 n=45 v=0
19680 On ch=1 n=47 v=105
19702 On ch=1 n=47 v=0
19704 On ch=1 n=48 v=102
19725 On ch=1 n=48 v=0
19728 Pb ch=1 v=7509
19728 On ch=1 n=50 v=102
19730 Pb ch=1 v=7532
19731 Pb ch=1 v=8192
19750 On ch=1 n=50 v=0
19753 On ch=1 n=48 v=100
19775 On ch=1 n=48 v=0
19776 On ch=1 n=47 v=102
19798 On ch=1 n=47 v=0
19800 On ch=1 n=33 v=102
19804 Pb ch=1 v=7509
19808 Pb ch=1 v=6827
19815 Pb ch=1 v=6144
19818 Pb ch=1 v=5461
19820 Pb ch=1 v=4779
19822 On ch=1 n=33 v=0
19823 Pb ch=1 v=8192
19823 Par ch=1 c=10 v=62
19824 Par ch=1 c=98 v=33
19824 Par ch=1 c=99 v=1
19824 Par ch=1 c=6 v=16
19824 On ch=1 n=40 v=104
19847 Pb ch=1 v=8875
19849 Pb ch=1 v=9557
19850 Pb ch=1 v=10240
19851 Pb ch=1 v=10923
19872 On ch=1 n=40 v=0
19872 Pb ch=1 v=8192
19872 On ch=1 n=47 v=112
19894 Par ch=1 c=65 v=127
19894 On ch=1 n=49 v=96
19896 On ch=1 n=47 v=0
19918 On ch=1 n=49 v=0
19920 Par ch=1 c=65 v=0
19920 On ch=1 n=52 v=114
19942 On ch=1 n=52 v=0
19944 On ch=1 n=49 v=110
20593 On ch=1 n=49 v=0
20688 Pb ch=1 v=8064
20688 On ch=1 n=40 v=104
20711 Pb ch=1 v=8875
20713 Pb ch=1 v=9557
20714 Pb ch=1 v=10240
20715 Pb ch=1 v=10923
20736 On ch=1 n=40 v=0
20736 Pb ch=1 v=8192
20736 On ch=1 n=47 v=112
20758 Par ch=1 c=65 v=127
20758 On ch=1 n=49 v=96
20760 On ch=1 n=47 v=0
20782 On ch=1 n=49 v=0
20784 Par ch=1 c=65 v=0
20784 On ch=1 n=52 v=114
20806 On ch=1 n=52 v=0
20808 On ch=1 n=49 v=110
21457 On ch=1 n=49 v=0
21504 Par ch=1 c=98 v=33
21504 Par ch=1 c=99 v=1
21504 Par ch=1 c=6 v=58
21552 Pb ch=1 v=8064
21552 On ch=1 n=30 v=120
21576 Pb ch=1 v=9557
21599 Pb ch=1 v=8192
21600 On ch=1 n=30 v=0
21600 On ch=1 n=35 v=109
21624 Pb ch=1 v=9557
21647 Pb ch=1 v=8192
21648 On ch=1 n=35 v=0
21648 On ch=1 n=40 v=102
21670 On ch=1 n=40 v=0
21672 On ch=1 n=37 v=100
22032 On ch=1 n=37 v=0
22080 Pb ch=1 v=7509
22080 On ch=1 n=49 v=90
22083 Pb ch=1 v=8192
22128 On ch=1 n=49 v=0
22128 On ch=1 n=47 v=88
22176 On ch=1 n=47 v=0
22176 On ch=1 n=44 v=84
22224 On ch=1 n=44 v=0
22224 On ch=1 n=40 v=85
22272 On ch=1 n=40 v=0
22272 On ch=1 n=28 v=80
22274 On ch=1 n=28 v=0
22296 On ch=1 n=28 v=78
22316 On ch=1 n=28 v=0
22320 Pb ch=1 v=6827
22320 On ch=1 n=32 v=86
22339 Pb ch=1 v=6992
22340 Pb ch=1 v=7040
22341 Pb ch=1 v=7509
22349 Pb ch=1 v=7592
22350 Pb ch=1 v=8064
22351 Pb ch=1 v=8192
22368 On ch=1 n=32 v=0
22368 On ch=1 n=35 v=87
22415 On ch=1 n=35 v=0
22416 On ch=1 n=35 v=84
22440 Pb ch=1 v=9557
22463 On ch=1 n=35 v=0
22463 Pb ch=1 v=8192
22464 On ch=1 n=40 v=85
22502 Pb ch=1 v=7509
22505 Pb ch=1 v=6827
22507 Pb ch=1 v=6144
22508 Pb ch=1 v=5461
22510 Pb ch=1 v=4779
22512 On ch=1 n=40 v=0
22512 Pb ch=1 v=8192
22512 On ch=1 n=35 v=82
22536 Pb ch=1 v=9557
22559 Pb ch=1 v=8192
22560 On ch=1 n=35 v=0
22560 On ch=1 n=40 v=80
22606 On ch=1 n=40 v=0
22608 Pb ch=1 v=8064
22608 On ch=1 n=30 v=110
22632 Pb ch=1 v=9557
22655 Pb ch=1 v=8192
22656 On ch=1 n=30 v=0
22656 On ch=1 n=35 v=98
22680 Pb ch=1 v=9557
22703 Pb ch=1 v=8192
22704 On ch=1 n=35 v=0
22704 On ch=1 n=40 v=100
22726 On ch=1 n=40 v=0
22728 On ch=1 n=37 v=96
22992 Pb ch=1 v=7509
22993 On ch=1 n=37 v=0
23040 On ch=1 n=37 v=90
23043 Pb ch=1 v=8192
23136 On ch=1 n=37 v=0
23136 On ch=1 n=35 v=90
23232 On ch=1 n=35 v=0
23232 On ch=1 n=32 v=90
23280 On ch=1 n=32 v=0
23280 On ch=1 n=28 v=85
23328 On ch=1 n=28 v=0
23328 On ch=1 n=28 v=80
23348 On ch=1 n=28 v=0
23352 On ch=1 n=28 v=78
23376 On ch=1 n=28 v=0
23376 Pb ch=1 v=6827
23376 On ch=1 n=32 v=86
23395 Pb ch=1 v=6992
23396 Pb ch=1 v=7040
23397 Pb ch=1 v=7509
23405 Pb ch=1 v=7592
23406 Pb ch=1 v=8064
23407 Pb ch=1 v=8192
23424 On ch=1 n=32 v=0
23424 On ch=1 n=35 v=87
23471 On ch=1 n=35 v=0
23472 On ch=1 n=35 v=84
23496 Pb ch=1 v=9557
23519 On ch=1 n=35 v=0
23519 Pb ch=1 v=8192
23520 On ch=1 n=40 v=85
23558 Pb ch=1 v=7509
23561 Pb ch=1 v=6827
23563 Pb ch=1 v=6144
23564 Pb ch=1 v=5461
23566 Pb ch=1 v=4779
23568 On ch=1 n=40 v=0
23568 Pb ch=1 v=8192
23568 On ch=1 n=35 v=82
23592 Pb ch=1 v=9557
23615 Pb ch=1 v=8192
23616 On ch=1 n=35 v=0
23616 On ch=1 n=40 v=80
23662 On ch=1 n=40 v=0
23664 Pb ch=1 v=7509
23664 On ch=1 n=40 v=80
23667 Pb ch=1 v=8192
23687 Pb ch=1 v=8875
23688 Pb ch=1 v=9557
23689 Pb ch=1 v=10240
23691 Pb ch=1 v=10923
23710 On ch=1 n=40 v=0
23712 Pb ch=1 v=8192
23712 On ch=1 n=47 v=80
23736 Pb ch=1 v=9557
23760 On ch=1 n=47 v=0
23760 Pb ch=1 v=8192
23760 On ch=1 n=52 v=80
23782 On ch=1 n=52 v=0
23784 On ch=1 n=54 v=80
24000 On ch=1 n=54 v=0
24000 Pb ch=1 v=9557
24000 On ch=1 n=54 v=108
24001 Pb ch=1 v=8874
24002 Pb ch=1 v=8192
24192 On ch=1 n=54 v=0
24192 Pb ch=1 v=9557
24192 On ch=1 n=54 v=108
24194 Pb ch=1 v=8874
24195 Pb ch=1 v=8192
24324 Pb ch=1 v=7509
24327 Pb ch=1 v=6827
24330 Pb ch=1 v=6144
24332 Pb ch=1 v=6461
24333 Pb ch=1 v=4779
24334 Pb ch=1 v=3413
24335 Pb ch=1 v=2048
24336 On ch=1 n=54 v=0
24336 Pb ch=1 v=8192
24336 On ch=1 n=40 v=108
24381 On ch=1 n=40 v=0
24384 On ch=1 n=40 v=108
24429 On ch=1 n=40 v=0
24432 On ch=1 n=47 v=108
24512 Pb ch=1 v=7509
24516 Pb ch=1 v=6827
24519 Pb ch=1 v=6144
24521 Pb ch=1 v=5461
24523 On ch=1 n=47 v=0
24523 Pb ch=1 v=4779
24524 Pb ch=1 v=4096
24525 Pb ch=1 v=3413
24526 Pb ch=1 v=8192
24528 On ch=1 n=38 v=114
24576 On ch=1 n=38 v=0
24912 On ch=1 n=50 v=110
24938 On ch=1 n=50 v=0
24960 On ch=1 n=48 v=110
24984 On ch=1 n=48 v=0
25008 On ch=1 n=47 v=110
25056 On ch=1 n=47 v=0
25056 On ch=1 n=43 v=100
25176 Pb ch=1 v=7510
25194 Pb ch=1 v=6827
25210 Pb ch=1 v=6144
25224 Pb ch=1 v=5462
25237 Pb ch=1 v=4779
25249 Pb ch=1 v=4096
25259 Pb ch=1 v=3413
25269 Pb ch=1 v=2731
25278 Pb ch=1 v=2048
25287 Pb ch=1 v=1365
25294 On ch=1 n=43 v=0
25295 Pb ch=1 v=8192
25296 On ch=1 n=40 v=120
25299 Pb ch=1 v=8192
25319 Pb ch=1 v=8875
25320 Pb ch=1 v=9557
25321 Pb ch=1 v=10240
25323 Pb ch=1 v=10923
25342 On ch=1 n=40 v=0
25344 Pb ch=1 v=8192
25344 On ch=1 n=47 v=110
25368 Pb ch=1 v=9557
25392 On ch=1 n=47 v=0
25392 Pb ch=1 v=8192
25392 On ch=1 n=52 v=115
25414 On ch=1 n=52 v=0
25416 On ch=1 n=49 v=110
25776 Pb ch=1 v=6827
25776 On ch=1 n=54 v=115
25777 On ch=1 n=49 v=0
25777 Pb ch=1 v=7509
25778 Pb ch=1 v=8192
25872 On ch=1 n=56 v=115
25873 On ch=1 n=54 v=0
25968 On ch=1 n=57 v=118
25969 On ch=1 n=56 v=0
25990 On ch=1 n=57 v=0
25992 On ch=1 n=56 v=105
26016 On ch=1 n=56 v=0
26040 On ch=1 n=57 v=115
26064 On ch=1 n=57 v=0
26088 On ch=1 n=56 v=105
26110 On ch=1 n=56 v=0
26112 On ch=1 n=52 v=90
26157 On ch=1 n=52 v=0
33984 On ch=1 n=33 v=115
34366 On ch=1 n=33 v=0
34368 On ch=1 n=31 v=108
34750 On ch=1 n=31 v=0
34752 On ch=1 n=29 v=104
35134 On ch=1 n=29 v=0
35136 On ch=1 n=29 v=96
35329 On ch=1 n=29 v=0
35520 On ch=1 n=45 v=104
35544 On ch=1 n=45 v=0
35544 On ch=1 n=45 v=75
35568 On ch=1 n=45 v=0
35568 On ch=1 n=45 v=75
35592 On ch=1 n=45 v=0
35592 On ch=1 n=42 v=100
35616 On ch=1 n=42 v=0
35616 On ch=1 n=42 v=75
35640 On ch=1 n=42 v=0
35640 On ch=1 n=42 v=75
35664 On ch=1 n=42 v=0
35664 On ch=1 n=40 v=100
35688 On ch=1 n=40 v=0
35688 On ch=1 n=40 v=75
35712 On ch=1 n=40 v=0
35712 On ch=1 n=40 v=75
35736 On ch=1 n=40 v=0
35736 On ch=1 n=39 v=99
35760 On ch=1 n=39 v=0
35760 On ch=1 n=39 v=75
35784 On ch=1 n=39 v=0
35784 On ch=1 n=39 v=75
35808 On ch=1 n=39 v=0
35808 On ch=1 n=37 v=100
35832 On ch=1 n=37 v=0
35832 On ch=1 n=37 v=75
35856 On ch=1 n=37 v=0
35856 On ch=1 n=37 v=75
35880 On ch=1 n=37 v=0
35880 On ch=1 n=37 v=74
35904 On ch=1 n=37 v=0
35904 On ch=1 n=36 v=100
35928 On ch=1 n=36 v=0
35928 On ch=1 n=36 v=75
35952 On ch=1 n=36 v=0
35952 On ch=1 n=36 v=75
35976 On ch=1 n=36 v=0
35976 On ch=1 n=45 v=102
36000 On ch=1 n=45 v=0
36000 On ch=1 n=45 v=75
36024 On ch=1 n=45 v=0
36024 On ch=1 n=45 v=75
36048 On ch=1 n=45 v=0
36048 On ch=1 n=43 v=100
36072 On ch=1 n=43 v=0
36072 On ch=1 n=43 v=75
36088 Pb ch=1 v=8875
36092 Pb ch=1 v=9557
36094 Pb ch=1 v=10240
36095 Pb ch=1 v=10923
36096 Pb ch=1 v=11605
36097 Pb ch=1 v=12288
36098 Pb ch=1 v=12971
36099 Pb ch=1 v=13653
36100 Pb ch=1 v=14336
36119 On ch=1 n=43 v=0
36120 Pb ch=1 v=8192
36120 On ch=1 n=57 v=100
36165 On ch=1 n=57 v=0
36168 On ch=1 n=55 v=98
36192 On ch=1 n=55 v=0
36192 On ch=1 n=52 v=98
36214 On ch=1 n=52 v=0
36216 On ch=1 n=50 v=96
36240 On ch=1 n=50 v=0
36240 On ch=1 n=48 v=84
36264 Pb ch=1 v=7509
36267 Pb ch=1 v=6827
36268 Pb ch=1 v=6144
36284 On ch=1 n=48 v=0
36288 Pb ch=1 v=8192
36288 On ch=1 n=41 v=104
36312 On ch=1 n=41 v=0
36312 On ch=1 n=41 v=74
36336 On ch=1 n=41 v=0
36336 On ch=1 n=41 v=74
36360 On ch=1 n=41 v=0
36360 On ch=1 n=33 v=100
36384 On ch=1 n=33 v=0
36384 On ch=1 n=33 v=74
36408 On ch=1 n=33 v=0
36408 On ch=1 n=33 v=74
36432 On ch=1 n=33 v=0
36432 On ch=1 n=38 v=102
36456 On ch=1 n=38 v=0
36456 On ch=1 n=38 v=74
36480 On ch=1 n=38 v=0
36480 On ch=1 n=38 v=74
36504 On ch=1 n=38 v=0
36504 On ch=1 n=36 v=100
36528 On ch=1 n=36 v=0
36528 On ch=1 n=36 v=74
36552 On ch=1 n=36 v=0
36552 On ch=1 n=36 v=74
36576 On ch=1 n=36 v=0
36576 On ch=1 n=33 v=98
36600 On ch=1 n=33 v=0
36600 On ch=1 n=33 v=74
36624 On ch=1 n=33 v=0
36624 On ch=1 n=36 v=100
36648 On ch=1 n=36 v=0
36648 On ch=1 n=36 v=74
36672 On ch=1 n=36 v=0
36672 On ch=1 n=34 v=98
36696 On ch=1 n=34 v=0
36696 On ch=1 n=34 v=74
36720 On ch=1 n=34 v=0
36720 On ch=1 n=34 v=74
36744 On ch=1 n=34 v=0
36744 On ch=1 n=33 v=98
36768 On ch=1 n=33 v=0
36768 On ch=1 n=33 v=74
36792 On ch=1 n=33 v=0
36792 On ch=1 n=33 v=74
36816 On ch=1 n=33 v=0
36816 On ch=1 n=34 v=98
36840 On ch=1 n=34 v=0
36840 On ch=1 n=34 v=74
36864 On ch=1 n=34 v=0
36864 On ch=1 n=34 v=74
36886 On ch=1 n=34 v=0
36888 On ch=1 n=36 v=100
36912 On ch=1 n=36 v=0
36936 On ch=1 n=36 v=84
36958 On ch=1 n=36 v=0
36960 On ch=1 n=36 v=94
36983 Pb ch=1 v=8320
36985 Pb ch=1 v=8875
36987 Pb ch=1 v=9557
37008 On ch=1 n=36 v=0
37008 Pb ch=1 v=8192
37008 On ch=1 n=41 v=90
37053 On ch=1 n=41 v=0
37056 On ch=1 n=45 v=104
37080 On ch=1 n=45 v=0
37080 On ch=1 n=45 v=75
37104 On ch=1 n=45 v=0
37104 On ch=1 n=45 v=75
37128 On ch=1 n=45 v=0
37128 On ch=1 n=42 v=100
37152 On ch=1 n=42 v=0
37152 On ch=1 n=42 v=75
37176 On ch=1 n=42 v=0
37176 On ch=1 n=42 v=75
37200 On ch=1 n=42 v=0
37200 On ch=1 n=40 v=100
37224 On ch=1 n=40 v=0
37224 On ch=1 n=40 v=75
37248 On ch=1 n=40 v=0
37248 On ch=1 n=40 v=75
37272 On ch=1 n=40 v=0
37272 On ch=1 n=39 v=99
37296 On ch=1 n=39 v=0
37296 On ch=1 n=39 v=75
37320 On ch=1 n=39 v=0
37320 On ch=1 n=39 v=75
37344 On ch=1 n=39 v=0
37344 On ch=1 n=37 v=100
37368 On ch=1 n=37 v=0
37368 On ch=1 n=37 v=75
37392 On ch=1 n=37 v=0
37392 On ch=1 n=37 v=75
37416 On ch=1 n=37 v=0
37416 On ch=1 n=37 v=74
37440 On ch=1 n=37 v=0
37440 On ch=1 n=36 v=100
37464 On ch=1 n=36 v=0
37464 On ch=1 n=36 v=75
37488 On ch=1 n=36 v=0
37488 On ch=1 n=36 v=75
37512 On ch=1 n=36 v=0
37512 On ch=1 n=45 v=102
37536 On ch=1 n=45 v=0
37536 On ch=1 n=45 v=75
37560 On ch=1 n=45 v=0
37560 On ch=1 n=45 v=75
37584 On ch=1 n=45 v=0
37584 On ch=1 n=43 v=100
37608 On ch=1 n=43 v=0
37608 On ch=1 n=43 v=75
37624 Pb ch=1 v=8875
37628 Pb ch=1 v=9557
37630 Pb ch=1 v=10240
37631 Pb ch=1 v=10923
37632 Pb ch=1 v=11605
37633 Pb ch=1 v=12288
37634 Pb ch=1 v=12971
37635 Pb ch=1 v=13653
37636 Pb ch=1 v=14336
37655 On ch=1 n=43 v=0
37656 Pb ch=1 v=8192
37656 On ch=1 n=57 v=100
37701 On ch=1 n=57 v=0
37704 On ch=1 n=55 v=98
37728 On ch=1 n=55 v=0
37728 On ch=1 n=52 v=98
37750 On ch=1 n=52 v=0
37752 On ch=1 n=50 v=96
37776 On ch=1 n=50 v=0
37776 On ch=1 n=48 v=84
37800 Pb ch=1 v=7509
37803 Pb ch=1 v=6827
37804 Pb ch=1 v=6144
37808 On ch=1 n=48 v=0
37824 Pb ch=1 v=8192
37824 On ch=1 n=41 v=104
37848 On ch=1 n=41 v=0
37848 On ch=1 n=41 v=74
37872 On ch=1 n=41 v=0
37872 On ch=1 n=41 v=74
37896 On ch=1 n=41 v=0
37896 On ch=1 n=33 v=100
37920 On ch=1 n=33 v=0
37920 On ch=1 n=33 v=74
37944 On ch=1 n=33 v=0
37944 On ch=1 n=33 v=74
37968 On ch=1 n=33 v=0
37968 On ch=1 n=38 v=102
37992 On ch=1 n=38 v=0
37992 On ch=1 n=38 v=74
38016 On ch=1 n=38 v=0
38016 On ch=1 n=38 v=74
38040 On ch=1 n=38 v=0
38040 On ch=1 n=36 v=100
38064 On ch=1 n=36 v=0
38064 On ch=1 n=36 v=74
38088 On ch=1 n=36 v=0
38088 On ch=1 n=36 v=74
38112 On ch=1 n=36 v=0
38112 On ch=1 n=33 v=98
38136 On ch=1 n=33 v=0
38136 On ch=1 n=33 v=74
38160 On ch=1 n=33 v=0
38160 On ch=1 n=36 v=100
38184 On ch=1 n=36 v=0
38184 On ch=1 n=36 v=74
38208 On ch=1 n=36 v=0
38208 On ch=1 n=34 v=98
38232 On ch=1 n=34 v=0
38232 On ch=1 n=34 v=74
38256 On ch=1 n=34 v=0
38256 On ch=1 n=34 v=74
38280 On ch=1 n=34 v=0
38280 On ch=1 n=33 v=98
38304 On ch=1 n=33 v=0
38304 On ch=1 n=33 v=74
38328 On ch=1 n=33 v=0
38328 On ch=1 n=33 v=74
38352 On ch=1 n=33 v=0
38352 On ch=1 n=34 v=98
38376 On ch=1 n=34 v=0
38376 On ch=1 n=34 v=74
38400 On ch=1 n=34 v=0
38400 On ch=1 n=34 v=74
38422 On ch=1 n=34 v=0
38424 On ch=1 n=36 v=100
38448 On ch=1 n=36 v=0
38472 On ch=1 n=36 v=84
38494 On ch=1 n=36 v=0
38496 On ch=1 n=36 v=94
38519 Pb ch=1 v=8320
38521 Pb ch=1 v=8875
38523 Pb ch=1 v=9557
38544 On ch=1 n=36 v=0
38544 Pb ch=1 v=8192
38544 On ch=1 n=41 v=90
38589 On ch=1 n=41 v=0
38592 On ch=1 n=45 v=104
38616 On ch=1 n=45 v=0
38616 On ch=1 n=45 v=75
38640 On ch=1 n=45 v=0
38640 On ch=1 n=45 v=75
38664 On ch=1 n=45 v=0
38664 On ch=1 n=42 v=100
38688 On ch=1 n=42 v=0
38688 On ch=1 n=42 v=75
38712 On ch=1 n=42 v=0
38712 On ch=1 n=42 v=75
38736 On ch=1 n=42 v=0
38736 On ch=1 n=40 v=100
38760 On ch=1 n=40 v=0
38760 On ch=1 n=40 v=75
38784 On ch=1 n=40 v=0
38784 On ch=1 n=40 v=75
38808 On ch=1 n=40 v=0
38808 On ch=1 n=39 v=99
38832 On ch=1 n=39 v=0
38832 On ch=1 n=39 v=75
38856 On ch=1 n=39 v=0
38856 On ch=1 n=39 v=75
38880 On ch=1 n=39 v=0
38880 On ch=1 n=37 v=100
38904 On ch=1 n=37 v=0
38904 On ch=1 n=37 v=75
38928 On ch=1 n=37 v=0
38928 On ch=1 n=37 v=75
38952 On ch=1 n=37 v=0
38952 On ch=1 n=37 v=74
38976 On ch=1 n=37 v=0
38976 On ch=1 n=36 v=100
39000 On ch=1 n=36 v=0
39000 On ch=1 n=36 v=75
39024 On ch=1 n=36 v=0
39024 On ch=1 n=36 v=75
39048 On ch=1 n=36 v=0
39048 On ch=1 n=45 v=102
39072 On ch=1 n=45 v=0
39072 On ch=1 n=45 v=75
39096 On ch=1 n=45 v=0
39096 On ch=1 n=45 v=75
39120 On ch=1 n=45 v=0
39120 On ch=1 n=43 v=100
39144 On ch=1 n=43 v=0
39144 On ch=1 n=43 v=75
39160 Pb ch=1 v=8875
39164 Pb ch=1 v=9557
39166 Pb ch=1 v=10240
39167 Pb ch=1 v=10923
39168 Pb ch=1 v=11605
39169 Pb ch=1 v=12288
39170 Pb ch=1 v=12971
39171 Pb ch=1 v=13653
39172 Pb ch=1 v=14336
39191 On ch=1 n=43 v=0
39192 Pb ch=1 v=8192
39193 On ch=1 n=57 v=97
39238 On ch=1 n=57 v=0
39240 On ch=1 n=55 v=98
39264 On ch=1 n=55 v=0
39264 On ch=1 n=52 v=98
39286 On ch=1 n=52 v=0
39288 On ch=1 n=50 v=96
39312 On ch=1 n=50 v=0
39312 On ch=1 n=48 v=84
39336 Pb ch=1 v=7509
39339 Pb ch=1 v=6827
39340 Pb ch=1 v=6144
39356 On ch=1 n=48 v=0
39360 Pb ch=1 v=8192
39360 On ch=1 n=41 v=104
39384 On ch=1 n=41 v=0
39384 On ch=1 n=41 v=74
39408 On ch=1 n=41 v=0
39408 On ch=1 n=41 v=74
39432 On ch=1 n=41 v=0
39432 On ch=1 n=33 v=100
39456 On ch=1 n=33 v=0
39456 On ch=1 n=33 v=74
39480 On ch=1 n=33 v=0
39480 On ch=1 n=33 v=74
39504 On ch=1 n=33 v=0
39504 On ch=1 n=38 v=102
39528 On ch=1 n=38 v=0
39528 On ch=1 n=38 v=74
39552 On ch=1 n=38 v=0
39552 On ch=1 n=38 v=74
39576 On ch=1 n=38 v=0
39576 On ch=1 n=36 v=100
39600 On ch=1 n=36 v=0
39600 On ch=1 n=36 v=74
39624 On ch=1 n=36 v=0
39624 On ch=1 n=36 v=74
39648 On ch=1 n=36 v=0
39648 On ch=1 n=33 v=98
39672 On ch=1 n=33 v=0
39672 On ch=1 n=33 v=74
39696 On ch=1 n=33 v=0
39696 On ch=1 n=36 v=100
39720 On ch=1 n=36 v=0
39720 On ch=1 n=36 v=74
39744 On ch=1 n=36 v=0
39744 On ch=1 n=34 v=98
39768 On ch=1 n=34 v=0
39768 On ch=1 n=34 v=74
39792 On ch=1 n=34 v=0
39792 On ch=1 n=34 v=74
39816 On ch=1 n=34 v=0
39816 On ch=1 n=33 v=98
39840 On ch=1 n=33 v=0
39840 On ch=1 n=33 v=74
39864 On ch=1 n=33 v=0
39864 On ch=1 n=33 v=74
39888 On ch=1 n=33 v=0
39888 On ch=1 n=34 v=98
39912 On ch=1 n=34 v=0
39912 On ch=1 n=34 v=74
39936 On ch=1 n=34 v=0
39936 On ch=1 n=34 v=74
39958 On ch=1 n=34 v=0
39960 On ch=1 n=36 v=100
39984 On ch=1 n=36 v=0
40008 On ch=1 n=36 v=84
40030 On ch=1 n=36 v=0
40032 On ch=1 n=36 v=94
40055 Pb ch=1 v=8320
40057 Pb ch=1 v=8875
40059 Pb ch=1 v=9557
40080 On ch=1 n=36 v=0
40080 Pb ch=1 v=8192
40080 On ch=1 n=41 v=90
40125 On ch=1 n=41 v=0
40128 On ch=1 n=32 v=100
40152 On ch=1 n=32 v=0
40152 On ch=1 n=32 v=84
40176 On ch=1 n=32 v=0
40176 On ch=1 n=32 v=84
40200 On ch=1 n=32 v=0
40200 On ch=1 n=31 v=100
40224 On ch=1 n=31 v=0
40224 On ch=1 n=31 v=84
40248 On ch=1 n=31 v=0
40248 On ch=1 n=31 v=84
40272 On ch=1 n=31 v=0
40272 On ch=1 n=32 v=100
40296 On ch=1 n=32 v=0
40296 On ch=1 n=32 v=84
40320 On ch=1 n=32 v=0
40320 On ch=1 n=32 v=84
40344 On ch=1 n=32 v=0
40344 On ch=1 n=34 v=98
40392 On ch=1 n=34 v=0
40392 On ch=1 n=34 v=94
40416 On ch=1 n=34 v=0
40416 On ch=1 n=34 v=98
40440 Pb ch=1 v=8320
40441 Pb ch=1 v=8875
40442 Pb ch=1 v=9557
40464 Pb ch=1 v=8192
40464 On ch=1 n=39 v=100
40465 On ch=1 n=34 v=0
40512 On ch=1 n=39 v=0
40512 On ch=1 n=41 v=100
40557 On ch=1 n=41 v=0
40560 On ch=1 n=41 v=88
40582 On ch=1 n=41 v=0
40584 On ch=1 n=41 v=87
40606 On ch=1 n=41 v=0
40608 On ch=1 n=33 v=98
40632 On ch=1 n=33 v=0
40632 On ch=1 n=33 v=88
40656 On ch=1 n=33 v=0
40656 On ch=1 n=33 v=90
40680 On ch=1 n=33 v=0
40680 On ch=1 n=33 v=88
40704 On ch=1 n=33 v=0
40704 On ch=1 n=36 v=100
40728 On ch=1 n=36 v=0
40728 On ch=1 n=36 v=88
40752 On ch=1 n=36 v=0
40752 On ch=1 n=36 v=92
40776 On ch=1 n=36 v=0
40776 On ch=1 n=36 v=88
40800 On ch=1 n=36 v=0
40800 On ch=1 n=33 v=94
40845 On ch=1 n=33 v=0
40848 On ch=1 n=45 v=104
40872 On ch=1 n=45 v=0
40872 On ch=1 n=45 v=84
40896 On ch=1 n=45 v=0
40896 On ch=1 n=45 v=84
40920 On ch=1 n=45 v=0
40920 On ch=1 n=42 v=100
40944 On ch=1 n=42 v=0
40944 On ch=1 n=42 v=84
40968 On ch=1 n=42 v=0
40968 On ch=1 n=42 v=84
40992 On ch=1 n=42 v=0
40992 On ch=1 n=40 v=100
41016 On ch=1 n=40 v=0
41016 On ch=1 n=40 v=84
41040 On ch=1 n=40 v=0
41040 On ch=1 n=40 v=84
41064 On ch=1 n=40 v=0
41064 On ch=1 n=39 v=99
41088 On ch=1 n=39 v=0
41088 On ch=1 n=39 v=84
41112 On ch=1 n=39 v=0
41112 On ch=1 n=39 v=84
41136 On ch=1 n=39 v=0
41136 On ch=1 n=37 v=100
41160 On ch=1 n=37 v=0
41160 On ch=1 n=37 v=83
41184 On ch=1 n=37 v=0
41184 On ch=1 n=37 v=84
41208 On ch=1 n=37 v=0
41208 On ch=1 n=37 v=83
41232 On ch=1 n=37 v=0
41232 On ch=1 n=36 v=100
41256 On ch=1 n=36 v=0
41256 On ch=1 n=36 v=84
41280 On ch=1 n=36 v=0
41280 On ch=1 n=36 v=84
41304 On ch=1 n=36 v=0
41304 On ch=1 n=45 v=102
41328 On ch=1 n=45 v=0
41328 On ch=1 n=45 v=84
41352 On ch=1 n=45 v=0
41352 On ch=1 n=45 v=84
41376 On ch=1 n=45 v=0
41376 On ch=1 n=43 v=100
41400 On ch=1 n=43 v=0
41400 On ch=1 n=43 v=75
41416 Pb ch=1 v=8875
41420 Pb ch=1 v=9557
41422 Pb ch=1 v=10240
41423 Pb ch=1 v=10923
41424 Pb ch=1 v=11605
41425 Pb ch=1 v=12288
41426 Pb ch=1 v=12971
41427 Pb ch=1 v=13653
41428 Pb ch=1 v=14336
41447 On ch=1 n=43 v=0
41448 Pb ch=1 v=8192
41448 On ch=1 n=57 v=100
41493 On ch=1 n=57 v=0
41496 On ch=1 n=55 v=98
41520 On ch=1 n=55 v=0
41544 On ch=1 n=52 v=98
41566 On ch=1 n=52 v=0
41568 On ch=1 n=50 v=96
41592 On ch=1 n=50 v=0
41592 On ch=1 n=48 v=84
41614 On ch=1 n=48 v=0
41616 On ch=1 n=41 v=104
41640 On ch=1 n=41 v=0
41640 On ch=1 n=41 v=84
41664 On ch=1 n=41 v=0
41664 On ch=1 n=41 v=84
41688 On ch=1 n=41 v=0
41688 On ch=1 n=33 v=100
41712 On ch=1 n=33 v=0
41712 On ch=1 n=33 v=84
41736 On ch=1 n=33 v=0
41736 On ch=1 n=33 v=84
41760 On ch=1 n=33 v=0
41760 On ch=1 n=38 v=102
41784 On ch=1 n=38 v=0
41784 On ch=1 n=38 v=84
41808 On ch=1 n=38 v=0
41808 On ch=1 n=38 v=84
41832 On ch=1 n=38 v=0
41832 On ch=1 n=36 v=100
41856 On ch=1 n=36 v=0
41856 On ch=1 n=36 v=84
41880 On ch=1 n=36 v=0
41880 On ch=1 n=36 v=84
41904 On ch=1 n=36 v=0
41904 On ch=1 n=33 v=98
41928 On ch=1 n=33 v=0
41928 On ch=1 n=33 v=84
41952 On ch=1 n=33 v=0
41952 On ch=1 n=36 v=100
41976 On ch=1 n=36 v=0
41976 On ch=1 n=36 v=84
42000 On ch=1 n=36 v=0
42000 On ch=1 n=34 v=98
42024 On ch=1 n=34 v=0
42024 On ch=1 n=34 v=84
42048 On ch=1 n=34 v=0
42048 On ch=1 n=34 v=84
42072 On ch=1 n=34 v=0
42072 On ch=1 n=33 v=98
42096 On ch=1 n=33 v=0
42096 On ch=1 n=33 v=84
42120 On ch=1 n=33 v=0
42120 On ch=1 n=33 v=84
42144 On ch=1 n=33 v=0
42144 On ch=1 n=34 v=98
42168 On ch=1 n=34 v=0
42168 On ch=1 n=34 v=84
42208 On ch=1 n=34 v=0
42216 On ch=1 n=36 v=100
42240 On ch=1 n=36 v=0
42264 On ch=1 n=36 v=84
42286 On ch=1 n=36 v=0
42288 On ch=1 n=36 v=94
42312 Pb ch=1 v=8320
42313 Pb ch=1 v=8875
42314 Pb ch=1 v=9557
42336 On ch=1 n=36 v=0
42336 Pb ch=1 v=8192
42336 On ch=1 n=41 v=96
42360 On ch=1 n=41 v=0
42360 On ch=1 n=41 v=85
42384 On ch=1 n=41 v=0
42384 On ch=1 n=32 v=100
42408 On ch=1 n=32 v=0
42408 On ch=1 n=32 v=84
42432 On ch=1 n=32 v=0
42432 On ch=1 n=32 v=84
42456 On ch=1 n=32 v=0
42456 On ch=1 n=31 v=100
42480 On ch=1 n=31 v=0
42480 On ch=1 n=31 v=84
42504 On ch=1 n=31 v=0
42504 On ch=1 n=31 v=84
42528 On ch=1 n=31 v=0
42528 On ch=1 n=32 v=100
42552 On ch=1 n=32 v=0
42552 On ch=1 n=32 v=84
42576 On ch=1 n=32 v=0
42576 On ch=1 n=32 v=84
42600 On ch=1 n=32 v=0
42600 On ch=1 n=34 v=98
42648 On ch=1 n=34 v=0
42648 On ch=1 n=34 v=94
42672 On ch=1 n=34 v=0
42672 On ch=1 n=34 v=98
42696 Pb ch=1 v=8320
42697 Pb ch=1 v=8875
42698 Pb ch=1 v=9557
42720 Pb ch=1 v=8192
42720 On ch=1 n=39 v=100
42721 On ch=1 n=34 v=0
42768 On ch=1 n=39 v=0
42768 Par ch=1 c=11 v=96
42768 On ch=1 n=41 v=100
42813 On ch=1 n=41 v=0
42816 On ch=1 n=41 v=94
42838 On ch=1 n=41 v=0
42840 On ch=1 n=41 v=94
42864 On ch=1 n=41 v=0
42864 On ch=1 n=41 v=100
42909 On ch=1 n=41 v=0
42912 On ch=1 n=41 v=94
42934 On ch=1 n=41 v=0
42936 On ch=1 n=41 v=94
42958 On ch=1 n=41 v=0
42960 On ch=1 n=41 v=100
42982 On ch=1 n=41 v=0
42984 On ch=1 n=38 v=90
43006 On ch=1 n=38 v=0
43008 On ch=1 n=36 v=88
43017 On ch=1 n=36 v=0
43056 On ch=1 n=33 v=102
43088 On ch=1 n=33 v=0
43104 Par ch=1 c=11 v=64
43104 On ch=1 n=31 v=120
43172 On ch=1 n=31 v=0
43176 On ch=1 n=33 v=106
43196 On ch=1 n=33 v=0
43200 On ch=1 n=35 v=109
43220 On ch=1 n=35 v=0
43224 On ch=1 n=36 v=106
43244 On ch=1 n=36 v=0
43248 On ch=1 n=38 v=109
43268 On ch=1 n=38 v=0
43272 On ch=1 n=40 v=106
43292 On ch=1 n=40 v=0
43296 On ch=1 n=42 v=110
43316 On ch=1 n=42 v=0
43320 On ch=1 n=43 v=110
43364 On ch=1 n=43 v=0
43368 On ch=1 n=45 v=102
43388 On ch=1 n=45 v=0
43392 On ch=1 n=47 v=105
43412 On ch=1 n=47 v=0
43416 On ch=1 n=48 v=102
43436 On ch=1 n=48 v=0
43440 Pb ch=1 v=7509
43440 On ch=1 n=50 v=102
43442 Pb ch=1 v=7532
43443 Pb ch=1 v=8192
43460 On ch=1 n=50 v=0
43465 On ch=1 n=52 v=100
43485 On ch=1 n=52 v=0
43488 On ch=1 n=54 v=102
43508 On ch=1 n=54 v=0
43561 Par ch=1 c=10 v=62
43704 PrCh ch=1 p=39
43704 Par ch=1 c=11 v=60
43896 Par ch=1 c=98 v=33
43896 Par ch=1 c=99 v=1
43896 Par ch=1 c=6 v=64
44232 On ch=1 n=43 v=99
44265 Pb ch=1 v=8875
44270 Pb ch=1 v=9557
44272 Pb ch=1 v=10240
44274 Pb ch=1 v=10923
44275 Pb ch=1 v=11605
44276 Pb ch=1 v=12288
44277 Pb ch=1 v=12971
44325 On ch=1 n=43 v=0
44328 Pb ch=1 v=8192
44328 On ch=1 n=50 v=100
44373 On ch=1 n=50 v=0
44376 On ch=1 n=50 v=100
44421 On ch=1 n=50 v=0
44448 On ch=1 n=50 v=70
44470 Pb ch=1 v=7509
44472 Pb ch=1 v=6827
44473 Pb ch=1 v=6144
44474 Pb ch=1 v=5461
44493 On ch=1 n=50 v=0
44496 Pb ch=1 v=8192
44496 On ch=1 n=46 v=70
44518 On ch=1 n=46 v=0
44520 On ch=1 n=46 v=80
44568 On ch=1 n=46 v=0
44568 On ch=1 n=46 v=77
44616 On ch=1 n=46 v=0
44616 On ch=1 n=46 v=77
44640 On ch=1 n=46 v=0
44640 On ch=1 n=46 v=75
44662 On ch=1 n=46 v=0
44664 On ch=1 n=46 v=84
44696 Pb ch=1 v=8875
44702 Pb ch=1 v=9557
44707 Pb ch=1 v=10240
44711 Pb ch=1 v=10923
44713 Pb ch=1 v=11605
44714 Pb ch=1 v=12288
44715 Pb ch=1 v=12971
44716 Pb ch=1 v=13653
44718 Pb ch=1 v=14336
44760 On ch=1 n=46 v=0
44760 Pb ch=1 v=8192
44760 On ch=1 n=55 v=94
45046 On ch=1 n=55 v=0
45048 On ch=1 n=50 v=94
45093 On ch=1 n=50 v=0
45096 On ch=1 n=50 v=94
45141 On ch=1 n=50 v=0
45144 On ch=1 n=50 v=97
45166 On ch=1 n=50 v=0
45168 On ch=1 n=50 v=60
45190 On ch=1 n=50 v=0
45192 On ch=1 n=50 v=60
45214 On ch=1 n=50 v=0
45216 On ch=1 n=50 v=66
45240 Pb ch=1 v=7509
45242 Pb ch=1 v=6827
45243 Pb ch=1 v=6144
45244 On ch=1 n=50 v=0
45244 Pb ch=1 v=5461
45244 On ch=1 n=50 v=50
45264 On ch=1 n=50 v=0
45264 Pb ch=1 v=8192
45264 On ch=1 n=46 v=66
45284 On ch=1 n=46 v=0
45288 On ch=1 n=46 v=96
45333 On ch=1 n=46 v=0
45336 On ch=1 n=46 v=94
45381 On ch=1 n=46 v=0
45384 On ch=1 n=46 v=75
45408 On ch=1 n=46 v=0
45408 On ch=1 n=46 v=74
45430 On ch=1 n=46 v=0
45432 On ch=1 n=46 v=85
45454 Pb ch=1 v=7509
45457 Pb ch=1 v=6827
45458 Pb ch=1 v=6144
45480 On ch=1 n=46 v=0
45480 Pb ch=1 v=8192
45480 On ch=1 n=43 v=84
45525 On ch=1 n=43 v=0
45528 On ch=1 n=43 v=80
45596 On ch=1 n=43 v=0
45600 On ch=1 n=43 v=70
45622 On ch=1 n=43 v=0
45624 On ch=1 n=43 v=70
45646 On ch=1 n=43 v=0
45648 On ch=1 n=43 v=70
45670 On ch=1 n=43 v=0
45672 On ch=1 n=43 v=84
45717 On ch=1 n=43 v=0
45720 On ch=1 n=43 v=80
45743 On ch=1 n=43 v=0
45768 On ch=1 n=43 v=70
45790 On ch=1 n=43 v=0
45792 On ch=1 n=43 v=70
45814 On ch=1 n=43 v=0
45816 On ch=1 n=43 v=70
45834 Pb ch=1 v=8877
45838 Pb ch=1 v=9557
45840 Pb ch=1 v=10240
45842 Pb ch=1 v=10923
45843 Pb ch=1 v=11605
45844 Pb ch=1 v=12288
45845 Pb ch=1 v=12971
45864 On ch=1 n=43 v=0
45864 Pb ch=1 v=8192
45864 On ch=1 n=50 v=70
45909 On ch=1 n=50 v=0
45912 On ch=1 n=50 v=70
45936 On ch=1 n=50 v=0
45984 On ch=1 n=50 v=70
46005 Pb ch=1 v=7509
46008 Pb ch=1 v=7509
46009 Pb ch=1 v=6827
46011 Pb ch=1 v=6144
46012 Pb ch=1 v=5461
46032 On ch=1 n=50 v=0
46032 Pb ch=1 v=8192
46032 On ch=1 n=46 v=68
46054 On ch=1 n=46 v=0
46056 On ch=1 n=46 v=88
46101 On ch=1 n=46 v=0
46104 On ch=1 n=46 v=80
46149 On ch=1 n=46 v=0
46152 On ch=1 n=46 v=68
46197 On ch=1 n=46 v=0
46200 On ch=1 n=46 v=84
46221 Pb ch=1 v=7509
46224 Pb ch=1 v=6827
46226 Pb ch=1 v=6144
46248 On ch=1 n=46 v=0
46248 Pb ch=1 v=8192
46248 On ch=1 n=43 v=80
46293 On ch=1 n=43 v=0
46296 On ch=1 n=43 v=84
46364 On ch=1 n=43 v=0
46368 On ch=1 n=43 v=70
46390 On ch=1 n=43 v=0
46392 On ch=1 n=43 v=70
46414 On ch=1 n=43 v=0
46416 On ch=1 n=43 v=70
46438 On ch=1 n=43 v=0
46440 On ch=1 n=43 v=84
46485 On ch=1 n=43 v=0
46488 On ch=1 n=43 v=70
46510 On ch=1 n=43 v=0
46512 On ch=1 n=43 v=68
46534 On ch=1 n=43 v=0
46536 On ch=1 n=43 v=66
46581 On ch=1 n=43 v=0
46584 On ch=1 n=43 v=75
46601 Pb ch=1 v=8877
46605 Pb ch=1 v=9557
46608 Pb ch=1 v=10240
46610 Pb ch=1 v=10923
46611 Pb ch=1 v=11605
46612 Pb ch=1 v=12288
46613 Pb ch=1 v=12971
46632 On ch=1 n=43 v=0
46632 Pb ch=1 v=8192
46632 On ch=1 n=50 v=75
46677 On ch=1 n=50 v=0
46680 On ch=1 n=50 v=73
46748 On ch=1 n=50 v=0
46752 On ch=1 n=50 v=76
46773 Pb ch=1 v=7509
46776 Pb ch=1 v=7509
46777 Pb ch=1 v=6827
46779 Pb ch=1 v=6144
46780 Pb ch=1 v=5461
46800 On ch=1 n=50 v=0
46800 Pb ch=1 v=8192
46800 On ch=1 n=46 v=68
46822 On ch=1 n=46 v=0
46824 On ch=1 n=46 v=88
46869 On ch=1 n=46 v=0
46872 On ch=1 n=46 v=77
46917 On ch=1 n=46 v=0
46920 On ch=1 n=46 v=68
46965 On ch=1 n=46 v=0
46968 On ch=1 n=46 v=86
46989 Pb ch=1 v=7509
46992 Pb ch=1 v=6827
46994 Pb ch=1 v=6144
47016 On ch=1 n=46 v=0
47016 Pb ch=1 v=8192
47016 On ch=1 n=43 v=82
47061 On ch=1 n=43 v=0
47064 On ch=1 n=43 v=83
47132 On ch=1 n=43 v=0
47136 On ch=1 n=43 v=72
47158 On ch=1 n=43 v=0
47160 On ch=1 n=43 v=70
47182 On ch=1 n=43 v=0
47184 On ch=1 n=43 v=70
47206 On ch=1 n=43 v=0
47208 On ch=1 n=43 v=84
47253 On ch=1 n=43 v=0
47256 On ch=1 n=43 v=70
47278 On ch=1 n=43 v=0
47280 On ch=1 n=43 v=77
47325 On ch=1 n=43 v=0
47328 On ch=1 n=43 v=66
47350 On ch=1 n=43 v=0
47352 On ch=1 n=43 v=74
47370 Pb ch=1 v=8877
47374 Pb ch=1 v=9557
47376 Pb ch=1 v=10240
47378 Pb ch=1 v=10923
47379 Pb ch=1 v=11605
47380 Pb ch=1 v=12288
47381 Pb ch=1 v=12971
47400 On ch=1 n=43 v=0
47400 Pb ch=1 v=8192
47400 On ch=1 n=50 v=74
47445 On ch=1 n=50 v=0
47448 On ch=1 n=50 v=55
47472 On ch=1 n=50 v=0
47520 On ch=1 n=50 v=75
47541 Pb ch=1 v=7509
47544 Pb ch=1 v=7509
47545 Pb ch=1 v=6827
47547 Pb ch=1 v=6144
47548 Pb ch=1 v=5461
47568 On ch=1 n=50 v=0
47568 Pb ch=1 v=8192
47568 On ch=1 n=46 v=68
47590 On ch=1 n=46 v=0
47592 On ch=1 n=46 v=88
47637 On ch=1 n=46 v=0
47640 On ch=1 n=46 v=80
47685 On ch=1 n=46 v=0
47688 On ch=1 n=46 v=68
47710 On ch=1 n=46 v=0
47712 On ch=1 n=46 v=54
47734 On ch=1 n=46 v=0
47736 On ch=1 n=46 v=84
47757 Pb ch=1 v=7509
47760 Pb ch=1 v=6827
47762 Pb ch=1 v=6144
47784 On ch=1 n=46 v=0
47784 Pb ch=1 v=8192
47784 On ch=1 n=43 v=80
47829 On ch=1 n=43 v=0
47832 On ch=1 n=43 v=84
47900 On ch=1 n=43 v=0
47904 On ch=1 n=43 v=70
47926 On ch=1 n=43 v=0
47928 On ch=1 n=43 v=70
47950 On ch=1 n=43 v=0
47952 On ch=1 n=43 v=70
47974 On ch=1 n=43 v=0
47976 On ch=1 n=43 v=84
48021 On ch=1 n=43 v=0
48024 On ch=1 n=43 v=70
48046 On ch=1 n=43 v=0
48048 On ch=1 n=43 v=68
48070 On ch=1 n=43 v=0
48072 On ch=1 n=43 v=66
48117 On ch=1 n=43 v=0
48120 Par ch=1 c=11 v=65
48120 On ch=1 n=43 v=74
48140 Pb ch=1 v=8877
48143 Pb ch=1 v=9557
48145 Pb ch=1 v=10240
48147 Pb ch=1 v=10923
48148 Pb ch=1 v=11605
48149 Pb ch=1 v=12288
48150 Pb ch=1 v=12971
48168 On ch=1 n=43 v=0
48168 Pb ch=1 v=8192
48168 On ch=1 n=50 v=70
48213 On ch=1 n=50 v=0
48216 On ch=1 n=50 v=96
48236 On ch=1 n=50 v=0
48288 On ch=1 n=50 v=70
48308 On ch=1 n=50 v=0
48336 On ch=1 n=46 v=68
48358 On ch=1 n=46 v=0
48360 On ch=1 n=46 v=88
48405 On ch=1 n=46 v=0
48408 On ch=1 n=46 v=80
48453 On ch=1 n=46 v=0
48456 On ch=1 n=46 v=50
48501 On ch=1 n=46 v=0
48504 On ch=1 n=46 v=84
48525 Pb ch=1 v=7509
48528 Pb ch=1 v=6827
48530 Pb ch=1 v=6144
48552 On ch=1 n=46 v=0
48552 Pb ch=1 v=8192
48552 On ch=1 n=43 v=80
48597 On ch=1 n=43 v=0
48600 On ch=1 n=43 v=94
48626 On ch=1 n=43 v=0
48672 On ch=1 n=43 v=66
48694 On ch=1 n=43 v=0
48696 On ch=1 n=43 v=70
48718 On ch=1 n=43 v=0
48720 On ch=1 n=43 v=70
48742 On ch=1 n=43 v=0
48744 On ch=1 n=43 v=84
48789 On ch=1 n=43 v=0
48792 On ch=1 n=43 v=70
48837 On ch=1 n=43 v=0
48840 On ch=1 n=43 v=68
48885 On ch=1 n=43 v=0
48888 On ch=1 n=43 v=74
48905 Pb ch=1 v=8877
48909 Pb ch=1 v=9557
48911 Pb ch=1 v=10240
48913 Pb ch=1 v=10923
48914 Pb ch=1 v=11605
48915 Pb ch=1 v=12288
48916 Pb ch=1 v=12971
48936 On ch=1 n=43 v=0
48936 Pb ch=1 v=8192
48936 On ch=1 n=50 v=70
48981 On ch=1 n=50 v=0
48984 On ch=1 n=50 v=90
49032 On ch=1 n=50 v=0
49032 On ch=1 n=50 v=60
49034 On ch=1 n=50 v=0
49056 On ch=1 n=50 v=70
49076 On ch=1 n=50 v=0
49104 On ch=1 n=46 v=68
49126 On ch=1 n=46 v=0
49128 On ch=1 n=46 v=88
49173 On ch=1 n=46 v=0
49176 On ch=1 n=46 v=80
49221 On ch=1 n=46 v=0
49272 On ch=1 n=46 v=84
49293 Pb ch=1 v=7509
49296 Pb ch=1 v=6827
49298 Pb ch=1 v=6144
49320 On ch=1 n=46 v=0
49320 Pb ch=1 v=8192
49320 On ch=1 n=43 v=80
49365 On ch=1 n=43 v=0
49368 On ch=1 n=43 v=94
49436 On ch=1 n=43 v=0
49440 On ch=1 n=43 v=66
49486 On ch=1 n=43 v=0
49488 On ch=1 n=43 v=70
49510 On ch=1 n=43 v=0
49512 On ch=1 n=43 v=84
49557 On ch=1 n=43 v=0
49560 On ch=1 n=43 v=70
49605 On ch=1 n=43 v=0
49608 On ch=1 n=43 v=68
49653 On ch=1 n=43 v=0
49656 Par ch=1 c=11 v=70
49656 On ch=1 n=43 v=74
49671 Pb ch=1 v=8877
49675 Pb ch=1 v=9557
49677 Pb ch=1 v=10240
49679 Pb ch=1 v=10923
49680 Pb ch=1 v=11605
49681 Pb ch=1 v=12288
49682 Pb ch=1 v=12971
49704 On ch=1 n=43 v=0
49704 Pb ch=1 v=8192
49704 On ch=1 n=50 v=70
49749 On ch=1 n=50 v=0
49752 On ch=1 n=50 v=92
49800 On ch=1 n=50 v=0
49824 On ch=1 n=50 v=70
49844 On ch=1 n=50 v=0
49872 On ch=1 n=46 v=68
49894 On ch=1 n=46 v=0
49896 On ch=1 n=46 v=88
49941 On ch=1 n=46 v=0
49944 On ch=1 n=46 v=80
49989 On ch=1 n=46 v=0
49992 On ch=1 n=46 v=50
50037 On ch=1 n=46 v=0
50040 On ch=1 n=46 v=84
50061 Pb ch=1 v=7509
50064 Pb ch=1 v=6827
50066 Pb ch=1 v=6144
50088 On ch=1 n=46 v=0
50088 Pb ch=1 v=8192
50088 On ch=1 n=43 v=80
50133 On ch=1 n=43 v=0
50136 On ch=1 n=43 v=94
50162 On ch=1 n=43 v=0
50208 On ch=1 n=43 v=66
50230 On ch=1 n=43 v=0
50232 On ch=1 n=43 v=70
50254 On ch=1 n=43 v=0
50256 On ch=1 n=43 v=70
50278 On ch=1 n=43 v=0
50280 On ch=1 n=43 v=84
50325 On ch=1 n=43 v=0
50328 On ch=1 n=43 v=70
50373 On ch=1 n=43 v=0
50376 On ch=1 n=43 v=68
50421 On ch=1 n=43 v=0
50424 On ch=1 n=43 v=74
50441 Pb ch=1 v=8877
50445 Pb ch=1 v=9557
50447 Pb ch=1 v=10240
50449 Pb ch=1 v=10923
50450 Pb ch=1 v=11605
50451 Pb ch=1 v=12288
50452 Pb ch=1 v=12971
50472 On ch=1 n=43 v=0
50472 Pb ch=1 v=8192
50472 On ch=1 n=50 v=70
50517 On ch=1 n=50 v=0
50520 On ch=1 n=50 v=91
50540 On ch=1 n=50 v=0
50592 On ch=1 n=50 v=75
50612 On ch=1 n=50 v=0
50640 On ch=1 n=46 v=68
50662 On ch=1 n=46 v=0
50664 On ch=1 n=46 v=88
50709 On ch=1 n=46 v=0
50712 On ch=1 n=46 v=85
50760 On ch=1 n=46 v=0
50808 On ch=1 n=46 v=84
50829 Pb ch=1 v=7509
50832 Pb ch=1 v=6827
50834 Pb ch=1 v=6144
50856 On ch=1 n=46 v=0
50856 Pb ch=1 v=8192
50856 On ch=1 n=43 v=80
50901 On ch=1 n=43 v=0
50904 On ch=1 n=43 v=94
50976 On ch=1 n=43 v=0
51024 On ch=1 n=43 v=65
51046 On ch=1 n=43 v=0
51048 On ch=1 n=43 v=80
51093 On ch=1 n=43 v=0
51096 On ch=1 n=43 v=70
51141 On ch=1 n=43 v=0
51144 On ch=1 n=43 v=50
51189 On ch=1 n=43 v=0
51192 On ch=1 n=43 v=74
51210 Pb ch=1 v=8877
51214 Pb ch=1 v=9557
51216 Pb ch=1 v=10240
51218 Pb ch=1 v=10923
51219 Pb ch=1 v=11605
51220 Pb ch=1 v=12288
51221 Pb ch=1 v=12971
51240 On ch=1 n=43 v=0
51240 Pb ch=1 v=8192
51240 On ch=1 n=50 v=70
51285 On ch=1 n=50 v=0
51288 On ch=1 n=50 v=82
51356 On ch=1 n=50 v=0
51360 On ch=1 n=50 v=80
51380 On ch=1 n=50 v=0
51408 On ch=1 n=46 v=68
51430 On ch=1 n=46 v=0
51432 On ch=1 n=46 v=88
51477 On ch=1 n=46 v=0
51480 On ch=1 n=46 v=77
51502 On ch=1 n=46 v=0
51504 On ch=1 n=46 v=80
51552 On ch=1 n=46 v=0
51552 On ch=1 n=46 v=60
51574 On ch=1 n=46 v=0
51576 On ch=1 n=46 v=84
51597 Pb ch=1 v=7509
51600 Pb ch=1 v=6827
51602 Pb ch=1 v=6144
51624 On ch=1 n=46 v=0
51624 Pb ch=1 v=8192
51624 On ch=1 n=43 v=80
51669 On ch=1 n=43 v=0
51672 On ch=1 n=43 v=85
51740 On ch=1 n=43 v=0
51744 On ch=1 n=43 v=66
51766 On ch=1 n=43 v=0
51792 On ch=1 n=43 v=70
51814 On ch=1 n=43 v=0
51816 On ch=1 n=43 v=84
51861 On ch=1 n=43 v=0
51864 On ch=1 n=43 v=70
51909 On ch=1 n=43 v=0
51912 On ch=1 n=43 v=60
51957 On ch=1 n=43 v=0
51960 On ch=1 n=43 v=74
51976 Pb ch=1 v=8877
51980 Pb ch=1 v=9557
51982 Pb ch=1 v=10240
51984 Pb ch=1 v=10923
51985 Pb ch=1 v=11605
51986 Pb ch=1 v=12288
51987 Pb ch=1 v=12971
52008 On ch=1 n=43 v=0
52008 Pb ch=1 v=8192
52008 On ch=1 n=50 v=70
52053 On ch=1 n=50 v=0
52056 On ch=1 n=50 v=70
52080 On ch=1 n=50 v=0
52080 On ch=1 n=50 v=82
52125 On ch=1 n=50 v=0
52128 On ch=1 n=50 v=80
52148 On ch=1 n=50 v=0
52176 On ch=1 n=46 v=68
52198 On ch=1 n=46 v=0
52200 On ch=1 n=46 v=88
52245 On ch=1 n=46 v=0
52248 On ch=1 n=46 v=77
52270 On ch=1 n=46 v=0
52272 On ch=1 n=46 v=80
52342 On ch=1 n=46 v=0
52344 On ch=1 n=46 v=84
52365 Pb ch=1 v=7509
52368 Pb ch=1 v=6827
52370 Pb ch=1 v=6144
52392 On ch=1 n=46 v=0
52392 Pb ch=1 v=8192
52392 On ch=1 n=43 v=80
52437 On ch=1 n=43 v=0
52440 On ch=1 n=43 v=76
52485 On ch=1 n=43 v=0
52488 On ch=1 n=43 v=75
52510 On ch=1 n=43 v=0
52512 On ch=1 n=43 v=86
52558 On ch=1 n=43 v=0
52560 On ch=1 n=43 v=70
52582 On ch=1 n=43 v=0
52584 On ch=1 n=43 v=84
52629 On ch=1 n=43 v=0
52632 On ch=1 n=43 v=70
52654 On ch=1 n=43 v=0
52656 On ch=1 n=43 v=75
52701 On ch=1 n=43 v=0
52704 On ch=1 n=43 v=60
52726 On ch=1 n=43 v=0
52728 On ch=1 n=43 v=60
52773 On ch=1 n=43 v=0
52776 On ch=1 n=43 v=50
52821 On ch=1 n=43 v=0
52824 On ch=1 n=43 v=66
52892 On ch=1 n=43 v=0
52896 On ch=1 n=43 v=60
52916 On ch=1 n=43 v=0
52944 On ch=1 n=46 v=68
52966 On ch=1 n=46 v=0
52968 On ch=1 n=46 v=88
53013 On ch=1 n=46 v=0
53016 On ch=1 n=46 v=85
53064 On ch=1 n=46 v=0
53112 On ch=1 n=46 v=84
53133 Pb ch=1 v=7509
53136 Pb ch=1 v=6827
53138 Pb ch=1 v=6144
53160 On ch=1 n=46 v=0
53160 Pb ch=1 v=8192
53160 On ch=1 n=43 v=80
53205 On ch=1 n=43 v=0
53208 On ch=1 n=43 v=94
53280 On ch=1 n=43 v=0
53328 On ch=1 n=43 v=65
53350 On ch=1 n=43 v=0
53352 On ch=1 n=43 v=80
53397 On ch=1 n=43 v=0
53400 On ch=1 n=43 v=70
53445 On ch=1 n=43 v=0
53448 On ch=1 n=43 v=50
53493 On ch=1 n=43 v=0
53496 On ch=1 n=43 v=74
53506 Pb ch=1 v=8877
53510 Pb ch=1 v=9557
53512 Pb ch=1 v=10240
53514 Pb ch=1 v=10923
53515 Pb ch=1 v=11605
53516 Pb ch=1 v=12288
53517 Pb ch=1 v=12971
53544 On ch=1 n=43 v=0
53544 Pb ch=1 v=8192
53544 On ch=1 n=50 v=70
53589 On ch=1 n=50 v=0
53592 On ch=1 n=50 v=82
53660 On ch=1 n=50 v=0
53664 On ch=1 n=50 v=80
53684 On ch=1 n=50 v=0
53712 On ch=1 n=46 v=68
53734 On ch=1 n=46 v=0
53736 On ch=1 n=46 v=88
53781 On ch=1 n=46 v=0
53784 On ch=1 n=46 v=77
53806 On ch=1 n=46 v=0
53808 On ch=1 n=46 v=80
53856 On ch=1 n=46 v=0
53856 On ch=1 n=46 v=60
53878 On ch=1 n=46 v=0
53880 On ch=1 n=46 v=84
53901 Pb ch=1 v=7509
53904 Pb ch=1 v=6827
53906 Pb ch=1 v=6144
53928 On ch=1 n=46 v=0
53928 Pb ch=1 v=8192
53928 On ch=1 n=43 v=80
53973 On ch=1 n=43 v=0
53976 On ch=1 n=43 v=85
54044 On ch=1 n=43 v=0
54048 On ch=1 n=43 v=66
54070 On ch=1 n=43 v=0
54096 On ch=1 n=43 v=70
54118 On ch=1 n=43 v=0
54120 On ch=1 n=43 v=84
54165 On ch=1 n=43 v=0
54168 On ch=1 n=43 v=70
54213 On ch=1 n=43 v=0
54216 On ch=1 n=43 v=60
54261 On ch=1 n=43 v=0
54264 On ch=1 n=43 v=74
54281 Pb ch=1 v=8877
54285 Pb ch=1 v=9557
54287 Pb ch=1 v=10240
54289 Pb ch=1 v=10923
54290 Pb ch=1 v=11605
54291 Pb ch=1 v=12288
54292 Pb ch=1 v=12971
54312 On ch=1 n=43 v=0
54312 Pb ch=1 v=8192
54312 On ch=1 n=50 v=70
54357 On ch=1 n=50 v=0
54360 On ch=1 n=50 v=91
54380 On ch=1 n=50 v=0
54432 On ch=1 n=50 v=75
54452 On ch=1 n=50 v=0
54480 On ch=1 n=46 v=68
54502 On ch=1 n=46 v=0
54504 On ch=1 n=46 v=88
54549 On ch=1 n=46 v=0
54552 On ch=1 n=46 v=85
54600 On ch=1 n=46 v=0
54648 On ch=1 n=46 v=84
54669 Pb ch=1 v=7509
54672 Pb ch=1 v=6827
54674 Pb ch=1 v=6144
54696 On ch=1 n=46 v=0
54696 Pb ch=1 v=8192
54696 On ch=1 n=43 v=80
54741 On ch=1 n=43 v=0
54744 On ch=1 n=43 v=94
54816 On ch=1 n=43 v=0
54864 On ch=1 n=43 v=65
54886 On ch=1 n=43 v=0
54888 On ch=1 n=43 v=80
54933 On ch=1 n=43 v=0
54936 On ch=1 n=43 v=70
54981 On ch=1 n=43 v=0
54984 On ch=1 n=43 v=50
55029 On ch=1 n=43 v=0
55032 On ch=1 n=43 v=74
55047 Pb ch=1 v=8877
55051 Pb ch=1 v=9557
55053 Pb ch=1 v=10240
55055 Pb ch=1 v=10923
55056 Pb ch=1 v=11605
55057 Pb ch=1 v=12288
55058 Pb ch=1 v=12971
55080 On ch=1 n=43 v=0
55080 Pb ch=1 v=8192
55080 On ch=1 n=50 v=70
55125 On ch=1 n=50 v=0
55128 On ch=1 n=50 v=82
55196 On ch=1 n=50 v=0
55200 On ch=1 n=50 v=80
55220 On ch=1 n=50 v=0
55248 On ch=1 n=46 v=68
55270 On ch=1 n=46 v=0
55272 On ch=1 n=46 v=88
55317 On ch=1 n=46 v=0
55320 On ch=1 n=46 v=77
55342 On ch=1 n=46 v=0
55344 On ch=1 n=46 v=80
55392 On ch=1 n=46 v=0
55392 On ch=1 n=46 v=60
55414 On ch=1 n=46 v=0
55416 On ch=1 n=46 v=84
55437 Pb ch=1 v=7509
55440 Pb ch=1 v=6827
55442 Pb ch=1 v=6144
55464 On ch=1 n=46 v=0
55464 Pb ch=1 v=8192
55464 On ch=1 n=43 v=80
55509 On ch=1 n=43 v=0
55512 On ch=1 n=43 v=85
55580 On ch=1 n=43 v=0
55584 On ch=1 n=43 v=66
55606 On ch=1 n=43 v=0
55632 On ch=1 n=43 v=70
55654 On ch=1 n=43 v=0
55656 On ch=1 n=43 v=84
55701 On ch=1 n=43 v=0
55704 On ch=1 n=43 v=70
55749 On ch=1 n=43 v=0
55752 On ch=1 n=43 v=60
55797 On ch=1 n=43 v=0
55800 On ch=1 n=43 v=74
55810 Pb ch=1 v=8877
55814 Pb ch=1 v=9557
55816 Pb ch=1 v=10240
55818 Pb ch=1 v=10923
55819 Pb ch=1 v=11605
55820 Pb ch=1 v=12288
55821 Pb ch=1 v=12971
55848 On ch=1 n=43 v=0
55848 Pb ch=1 v=8192
55848 On ch=1 n=50 v=70
55893 On ch=1 n=50 v=0
55896 On ch=1 n=50 v=91
55916 On ch=1 n=50 v=0
55968 On ch=1 n=50 v=75
55988 On ch=1 n=50 v=0
56016 On ch=1 n=46 v=68
56038 On ch=1 n=46 v=0
56040 On ch=1 n=46 v=88
56085 On ch=1 n=46 v=0
56088 On ch=1 n=46 v=85
56136 On ch=1 n=46 v=0
56184 On ch=1 n=46 v=84
56205 Pb ch=1 v=7509
56208 Pb ch=1 v=6827
56210 Pb ch=1 v=6144
56232 On ch=1 n=46 v=0
56232 Pb ch=1 v=8192
56232 On ch=1 n=43 v=80
56277 On ch=1 n=43 v=0
56280 On ch=1 n=43 v=94
56352 On ch=1 n=43 v=0
56400 On ch=1 n=43 v=65
56422 On ch=1 n=43 v=0
56424 On ch=1 n=43 v=80
56469 On ch=1 n=43 v=0
56472 On ch=1 n=43 v=70
56517 On ch=1 n=43 v=0
56520 On ch=1 n=43 v=50
56565 On ch=1 n=43 v=0
56568 On ch=1 n=50 v=80
56660 On ch=1 n=50 v=0
56664 On ch=1 n=50 v=82
56732 On ch=1 n=50 v=0
56736 On ch=1 n=50 v=80
56756 On ch=1 n=50 v=0
56784 On ch=1 n=46 v=68
56806 On ch=1 n=46 v=0
56808 On ch=1 n=46 v=88
56853 On ch=1 n=46 v=0
56856 On ch=1 n=46 v=77
56878 On ch=1 n=46 v=0
56880 On ch=1 n=46 v=80
56928 On ch=1 n=46 v=0
56928 On ch=1 n=46 v=60
56950 On ch=1 n=46 v=0
56952 On ch=1 n=46 v=84
56973 Pb ch=1 v=7509
56976 Pb ch=1 v=6827
56978 Pb ch=1 v=6144
57000 On ch=1 n=46 v=0
57000 Pb ch=1 v=8192
57000 On ch=1 n=43 v=80
57045 On ch=1 n=43 v=0
57048 On ch=1 n=43 v=85
57116 On ch=1 n=43 v=0
57120 On ch=1 n=43 v=66
57142 On ch=1 n=43 v=0
57168 On ch=1 n=43 v=70
57190 On ch=1 n=43 v=0
57192 On ch=1 n=43 v=84
57237 On ch=1 n=43 v=0
57240 On ch=1 n=43 v=70
57285 On ch=1 n=43 v=0
57288 On ch=1 n=43 v=60
57333 On ch=1 n=43 v=0
57432 On ch=1 n=50 v=91
57452 On ch=1 n=50 v=0
57504 On ch=1 n=50 v=75
57524 On ch=1 n=50 v=0
57552 On ch=1 n=46 v=68
57574 On ch=1 n=46 v=0
57576 On ch=1 n=46 v=88
57621 On ch=1 n=46 v=0
57624 On ch=1 n=46 v=85
57672 On ch=1 n=46 v=0
57720 On ch=1 n=46 v=84
57741 Pb ch=1 v=7509
57744 Pb ch=1 v=6827
57746 Pb ch=1 v=6144
57768 On ch=1 n=46 v=0
57768 Pb ch=1 v=8192
57768 On ch=1 n=43 v=80
57813 On ch=1 n=43 v=0
57816 On ch=1 n=43 v=94
57888 On ch=1 n=43 v=0
57936 On ch=1 n=43 v=65
57958 On ch=1 n=43 v=0
57960 On ch=1 n=43 v=80
58005 On ch=1 n=43 v=0
58008 On ch=1 n=43 v=70
58053 On ch=1 n=43 v=0
58056 On ch=1 n=43 v=50
58101 On ch=1 n=43 v=0
58104 On ch=1 n=43 v=74
58122 Pb ch=1 v=8877
58126 Pb ch=1 v=9557
58128 Pb ch=1 v=10240
58130 Pb ch=1 v=10923
58131 Pb ch=1 v=11605
58132 Pb ch=1 v=12288
58133 Pb ch=1 v=12971
58152 On ch=1 n=43 v=0
58152 Pb ch=1 v=8192
58152 On ch=1 n=50 v=70
58197 On ch=1 n=50 v=0
58200 On ch=1 n=50 v=82
58268 On ch=1 n=50 v=0
58272 On ch=1 n=50 v=80
58292 On ch=1 n=50 v=0
58320 On ch=1 n=46 v=68
58342 On ch=1 n=46 v=0
58344 On ch=1 n=46 v=88
58389 On ch=1 n=46 v=0
58392 On ch=1 n=46 v=77
58414 On ch=1 n=46 v=0
58416 On ch=1 n=46 v=80
58464 On ch=1 n=46 v=0
58464 On ch=1 n=46 v=60
58486 On ch=1 n=46 v=0
58488 On ch=1 n=46 v=84
58509 Pb ch=1 v=7509
58512 Pb ch=1 v=6827
58514 Pb ch=1 v=6144
58536 On ch=1 n=46 v=0
58536 Pb ch=1 v=8192
58536 On ch=1 n=43 v=80
58581 On ch=1 n=43 v=0
58584 On ch=1 n=43 v=85
58652 On ch=1 n=43 v=0
58656 On ch=1 n=43 v=66
58678 On ch=1 n=43 v=0
58704 On ch=1 n=43 v=70
58726 On ch=1 n=43 v=0
58728 On ch=1 n=43 v=84
58773 On ch=1 n=43 v=0
58776 On ch=1 n=43 v=70
58821 On ch=1 n=43 v=0
58824 On ch=1 n=43 v=60
58869 On ch=1 n=43 v=0
58872 On ch=1 n=43 v=74
58889 Pb ch=1 v=8877
58893 Pb ch=1 v=9557
58895 Pb ch=1 v=10240
58897 Pb ch=1 v=10923
58898 Pb ch=1 v=11605
58899 Pb ch=1 v=12288
58900 Pb ch=1 v=12971
58920 On ch=1 n=43 v=0
58920 Pb ch=1 v=8192
58920 On ch=1 n=50 v=70
58965 On ch=1 n=50 v=0
58968 On ch=1 n=50 v=91
58988 On ch=1 n=50 v=0
59040 On ch=1 n=50 v=75
59060 On ch=1 n=50 v=0
59088 On ch=1 n=46 v=68
59110 On ch=1 n=46 v=0
59112 On ch=1 n=46 v=88
59157 On ch=1 n=46 v=0
59160 On ch=1 n=46 v=85
59208 On ch=1 n=46 v=0
59256 On ch=1 n=46 v=84
59277 Pb ch=1 v=7509
59280 Pb ch=1 v=6827
59282 Pb ch=1 v=6144
59304 On ch=1 n=46 v=0
59304 Pb ch=1 v=8192
59304 On ch=1 n=43 v=80
59349 On ch=1 n=43 v=0
59352 On ch=1 n=43 v=94
59424 On ch=1 n=43 v=0
59472 PrCh ch=1 p=34
59496 Par ch=1 c=11 v=68
59640 On ch=1 n=43 v=74
59658 Pb ch=1 v=8877
59662 Pb ch=1 v=9557
59664 Pb ch=1 v=10240
59666 Pb ch=1 v=10923
59667 Pb ch=1 v=11605
59668 Pb ch=1 v=12288
59669 Pb ch=1 v=12971
59688 On ch=1 n=43 v=0
59688 Pb ch=1 v=8192
59688 On ch=1 n=50 v=70
59733 On ch=1 n=50 v=0
59736 On ch=1 n=50 v=82
59804 On ch=1 n=50 v=0
59808 On ch=1 n=50 v=80
59828 On ch=1 n=50 v=0
59856 On ch=1 n=46 v=68
59878 On ch=1 n=46 v=0
59880 On ch=1 n=46 v=88
59925 On ch=1 n=46 v=0
59928 On ch=1 n=46 v=77
59950 On ch=1 n=46 v=0
59952 On ch=1 n=46 v=80
60000 On ch=1 n=46 v=0
60000 On ch=1 n=46 v=60
60022 On ch=1 n=46 v=0
60024 On ch=1 n=46 v=84
60045 Pb ch=1 v=7509
60048 Pb ch=1 v=6827
60050 Pb ch=1 v=6144
60072 On ch=1 n=46 v=0
60072 Pb ch=1 v=8192
60072 On ch=1 n=43 v=80
60117 On ch=1 n=43 v=0
60120 On ch=1 n=43 v=85
60188 On ch=1 n=43 v=0
60192 On ch=1 n=43 v=66
60214 On ch=1 n=43 v=0
60240 On ch=1 n=43 v=70
60262 On ch=1 n=43 v=0
60264 On ch=1 n=43 v=84
60309 On ch=1 n=43 v=0
60312 On ch=1 n=43 v=70
60357 On ch=1 n=43 v=0
60360 On ch=1 n=43 v=60
60405 On ch=1 n=43 v=0
60408 On ch=1 n=43 v=74
60426 Pb ch=1 v=8877
60430 Pb ch=1 v=9557
60432 Pb ch=1 v=10240
60434 Pb ch=1 v=10923
60435 Pb ch=1 v=11605
60436 Pb ch=1 v=12288
60437 Pb ch=1 v=12971
60456 On ch=1 n=43 v=0
60456 Pb ch=1 v=8192
60456 On ch=1 n=50 v=70
60501 On ch=1 n=50 v=0
60504 On ch=1 n=50 v=82
60572 On ch=1 n=50 v=0
60576 On ch=1 n=50 v=80
60596 On ch=1 n=50 v=0
60624 On ch=1 n=46 v=68
60646 On ch=1 n=46 v=0
60648 On ch=1 n=46 v=88
60693 On ch=1 n=46 v=0
60696 On ch=1 n=46 v=77
60718 On ch=1 n=46 v=0
60720 On ch=1 n=46 v=80
60768 On ch=1 n=46 v=0
60768 On ch=1 n=46 v=60
60790 On ch=1 n=46 v=0
60792 Par ch=1 c=11 v=70
60792 On ch=1 n=46 v=84
60813 Pb ch=1 v=7509
60816 Pb ch=1 v=6827
60818 Pb ch=1 v=6144
60840 On ch=1 n=46 v=0
60840 Pb ch=1 v=8192
60840 On ch=1 n=43 v=80
60885 On ch=1 n=43 v=0
60888 On ch=1 n=43 v=85
60956 On ch=1 n=43 v=0
60960 On ch=1 n=43 v=66
60982 On ch=1 n=43 v=0
61008 On ch=1 n=43 v=70
61030 On ch=1 n=43 v=0
61032 On ch=1 n=43 v=84
61077 On ch=1 n=43 v=0
61080 On ch=1 n=43 v=70
61125 On ch=1 n=43 v=0
61128 On ch=1 n=43 v=60
61173 On ch=1 n=43 v=0
61176 Par ch=1 c=11 v=75
61176 On ch=1 n=50 v=110
61198 On ch=1 n=50 v=0
61200 On ch=1 n=50 v=98
61222 On ch=1 n=50 v=0
61224 On ch=1 n=50 v=100
61246 On ch=1 n=50 v=0
61248 On ch=1 n=50 v=96
61270 On ch=1 n=50 v=0
61272 On ch=1 n=50 v=110
61294 On ch=1 n=50 v=0
61296 On ch=1 n=50 v=100
61318 On ch=1 n=50 v=0
61320 On ch=1 n=50 v=102
61342 On ch=1 n=50 v=0
61344 On ch=1 n=50 v=100
61366 On ch=1 n=50 v=0
61392 On ch=1 n=46 v=120
61437 On ch=1 n=46 v=0
61440 On ch=1 n=46 v=106
61462 On ch=1 n=46 v=0
61464 On ch=1 n=46 v=110
61486 On ch=1 n=46 v=0
61488 On ch=1 n=46 v=105
61510 On ch=1 n=46 v=0
61512 On ch=1 n=46 v=107
61534 On ch=1 n=46 v=0
61536 On ch=1 n=46 v=110
61558 On ch=1 n=46 v=0
61584 On ch=1 n=43 v=125
61652 On ch=1 n=43 v=0
61656 On ch=1 n=43 v=125
61724 On ch=1 n=43 v=0
61728 On ch=1 n=43 v=125
61774 On ch=1 n=43 v=0
61776 On ch=1 n=43 v=110
61798 On ch=1 n=43 v=0
61800 On ch=1 n=43 v=120
61868 On ch=1 n=43 v=0
61872 On ch=1 n=43 v=120
61917 On ch=1 n=43 v=0
61920 On ch=1 n=43 v=120
61942 On ch=1 n=43 v=0
61944 On ch=1 n=43 v=98
61962 Pb ch=1 v=8877
61966 Pb ch=1 v=9557
61968 Pb ch=1 v=10240
61970 Pb ch=1 v=10923
61971 Pb ch=1 v=11605
61972 Pb ch=1 v=12288
61973 Pb ch=1 v=12971
61992 On ch=1 n=43 v=0
61992 Pb ch=1 v=8192
61992 On ch=1 n=50 v=94
62037 On ch=1 n=50 v=0
62040 On ch=1 n=50 v=106
62108 On ch=1 n=50 v=0
62112 On ch=1 n=50 v=104
62132 On ch=1 n=50 v=0
62160 On ch=1 n=46 v=92
62182 On ch=1 n=46 v=0
62184 On ch=1 n=46 v=112
62229 On ch=1 n=46 v=0
62232 On ch=1 n=46 v=101
62254 On ch=1 n=46 v=0
62256 On ch=1 n=46 v=104
62304 On ch=1 n=46 v=0
62304 On ch=1 n=46 v=84
62326 On ch=1 n=46 v=0
62328 On ch=1 n=46 v=108
62349 Pb ch=1 v=7509
62352 Pb ch=1 v=6827
62354 Pb ch=1 v=6144
62376 On ch=1 n=46 v=0
62376 Pb ch=1 v=8192
62376 On ch=1 n=43 v=104
62421 On ch=1 n=43 v=0
62424 On ch=1 n=43 v=109
62492 On ch=1 n=43 v=0
62496 On ch=1 n=43 v=90
62518 On ch=1 n=43 v=0
62544 On ch=1 n=43 v=94
62566 On ch=1 n=43 v=0
62568 On ch=1 n=43 v=108
62613 On ch=1 n=43 v=0
62616 On ch=1 n=43 v=94
62661 On ch=1 n=43 v=0
62664 On ch=1 n=43 v=84
62709 On ch=1 n=43 v=0
62712 Pb ch=1 v=7509
62712 On ch=1 n=50 v=110
62716 Pb ch=1 v=8192
62736 On ch=1 n=50 v=0
62736 On ch=1 n=50 v=95
62760 On ch=1 n=50 v=0
62760 On ch=1 n=50 v=100
62784 On ch=1 n=50 v=0
62784 On ch=1 n=50 v=96
62808 On ch=1 n=50 v=0
62808 On ch=1 n=50 v=110
62832 On ch=1 n=50 v=0
62832 On ch=1 n=50 v=98
62856 On ch=1 n=50 v=0
62856 On ch=1 n=50 v=105
62880 On ch=1 n=50 v=0
62880 On ch=1 n=50 v=84
62904 On ch=1 n=50 v=0
62904 On ch=1 n=46 v=114
62928 On ch=1 n=46 v=0
62928 On ch=1 n=46 v=99
62952 On ch=1 n=46 v=0
62952 On ch=1 n=46 v=100
62976 On ch=1 n=46 v=0
62976 On ch=1 n=46 v=94
63000 On ch=1 n=46 v=0
63000 On ch=1 n=46 v=108
63024 On ch=1 n=46 v=0
63024 On ch=1 n=46 v=97
63048 On ch=1 n=46 v=0
63048 On ch=1 n=46 v=100
63072 On ch=1 n=46 v=0
63072 On ch=1 n=46 v=94
63096 On ch=1 n=46 v=0
63096 On ch=1 n=46 v=108
63120 Pb ch=1 v=7509
63124 Pb ch=1 v=6827
63127 Pb ch=1 v=6144
63144 On ch=1 n=46 v=0
63144 Pb ch=1 v=8192
63144 On ch=1 n=43 v=108
63192 On ch=1 n=43 v=0
63192 On ch=1 n=43 v=120
63240 On ch=1 n=43 v=0
63240 On ch=1 n=43 v=108
63264 On ch=1 n=43 v=0
63264 On ch=1 n=43 v=124
63310 On ch=1 n=43 v=0
63312 On ch=1 n=43 v=108
63334 On ch=1 n=43 v=0
63336 On ch=1 n=43 v=114
63381 On ch=1 n=43 v=0
63384 On ch=1 n=43 v=108
63406 On ch=1 n=43 v=0
63408 On ch=1 n=43 v=92
63430 On ch=1 n=43 v=0
63432 On ch=1 n=43 v=85
63454 On ch=1 n=43 v=0
63456 On ch=1 n=43 v=85
63478 On ch=1 n=43 v=0
63480 Pb ch=1 v=7509
63480 On ch=1 n=50 v=109
63485 Pb ch=1 v=8192
63528 On ch=1 n=50 v=0
63528 On ch=1 n=50 v=111
63573 On ch=1 n=50 v=0
63576 On ch=1 n=50 v=108
63621 On ch=1 n=50 v=0
63624 On ch=1 n=50 v=98
63648 On ch=1 n=50 v=0
63648 On ch=1 n=50 v=118
63670 On ch=1 n=50 v=0
63696 On ch=1 n=46 v=110
63720 On ch=1 n=46 v=0
63720 On ch=1 n=46 v=118
63765 On ch=1 n=46 v=0
63768 On ch=1 n=46 v=105
63790 On ch=1 n=46 v=0
63792 On ch=1 n=46 v=114
63814 On ch=1 n=46 v=0
63816 On ch=1 n=46 v=100
63838 On ch=1 n=46 v=0
63840 On ch=1 n=46 v=108
63862 On ch=1 n=46 v=0
63864 On ch=1 n=46 v=110
63888 Pb ch=1 v=7509
63892 Pb ch=1 v=6827
63894 Pb ch=1 v=6144
63912 On ch=1 n=46 v=0
63912 Pb ch=1 v=8192
63912 On ch=1 n=43 v=96
63936 On ch=1 n=43 v=0
63960 On ch=1 n=43 v=98
64008 On ch=1 n=43 v=0
64008 On ch=1 n=43 v=95
64030 On ch=1 n=43 v=0
64056 On ch=1 n=43 v=100
64124 On ch=1 n=43 v=0
64152 On ch=1 n=43 v=110
64200 On ch=1 n=43 v=0
64200 On ch=1 n=43 v=115
64236 Pb ch=1 v=7509
64240 Pb ch=1 v=6827
64243 Pb ch=1 v=6144
64245 Pb ch=1 v=5821
64246 Pb ch=1 v=4779
64247 Pb ch=1 v=4096
64248 On ch=1 n=43 v=0
64248 Par ch=1 c=11 v=127
64248 PrCh ch=1 p=34
64248 Pb ch=1 v=8192
64248 Par ch=1 c=10 v=64
64248 On ch=1 n=43 v=116
64438 On ch=1 n=43 v=0
64440 On ch=1 n=39 v=116
64630 On ch=1 n=39 v=0
64632 On ch=1 n=36 v=116
65014 On ch=1 n=36 v=0
65016 On ch=1 n=43 v=116
65206 On ch=1 n=43 v=0
65208 On ch=1 n=39 v=116
65398 On ch=1 n=39 v=0
65400 On ch=1 n=36 v=116
65782 On ch=1 n=36 v=0
65784 On ch=1 n=43 v=116
65974 On ch=1 n=43 v=0
65976 On ch=1 n=39 v=116
66166 On ch=1 n=39 v=0
66168 On ch=1 n=36 v=116
66550 On ch=1 n=36 v=0
66552 On ch=1 n=43 v=116
66742 On ch=1 n=43 v=0
66744 On ch=1 n=39 v=116
66934 On ch=1 n=39 v=0
66936 On ch=1 n=36 v=116
67318 On ch=1 n=36 v=0
67320 On ch=1 n=43 v=116
67510 On ch=1 n=43 v=0
67512 On ch=1 n=39 v=116
67702 On ch=1 n=39 v=0
67704 On ch=1 n=36 v=116
68086 On ch=1 n=36 v=0
68088 On ch=1 n=43 v=116
68278 On ch=1 n=43 v=0
68280 On ch=1 n=39 v=116
68470 On ch=1 n=39 v=0
68472 On ch=1 n=36 v=116
68854 On ch=1 n=36 v=0
68856 On ch=1 n=43 v=116
69046 On ch=1 n=43 v=0
69048 On ch=1 n=39 v=116
69238 On ch=1 n=39 v=0
69240 On ch=1 n=36 v=116
69432 Par ch=1 c=7 v=116
69456 Par ch=1 c=7 v=115
69472 Par ch=1 c=7 v=114
69488 Par ch=1 c=7 v=113
69504 Par ch=1 c=7 v=112
69528 Par ch=1 c=7 v=111
69544 Par ch=1 c=7 v=110
69560 Par ch=1 c=7 v=109
69576 Par ch=1 c=7 v=108
69600 Par ch=1 c=7 v=107
69616 Par ch=1 c=7 v=106
69622 On ch=1 n=36 v=0
69624 On ch=1 n=43 v=116
69632 Par ch=1 c=7 v=105
69648 Par ch=1 c=7 v=104
69672 Par ch=1 c=7 v=103
69688 Par ch=1 c=7 v=102
69704 Par ch=1 c=7 v=101
69720 Par ch=1 c=7 v=100
69744 Par ch=1 c=7 v=99
69760 Par ch=1 c=7 v=98
69776 Par ch=1 c=7 v=97
69792 Par ch=1 c=7 v=96
69814 On ch=1 n=43 v=0
69816 On ch=1 n=39 v=116
69816 Par ch=1 c=7 v=95
69832 Par ch=1 c=7 v=94
69848 Par ch=1 c=7 v=93
69864 Par ch=1 c=7 v=92
69888 Par ch=1 c=7 v=91
69904 Par ch=1 c=7 v=90
69920 Par ch=1 c=7 v=89
69936 Par ch=1 c=7 v=88
69960 Par ch=1 c=7 v=87
69976 Par ch=1 c=7 v=86
69992 Par ch=1 c=7 v=85
70006 On ch=1 n=39 v=0
70008 On ch=1 n=36 v=116
70008 Par ch=1 c=7 v=84
70032 Par ch=1 c=7 v=83
70048 Par ch=1 c=7 v=82
70064 Par ch=1 c=7 v=81
70080 Par ch=1 c=7 v=80
70104 Par ch=1 c=7 v=79
70120 Par ch=1 c=7 v=78
70136 Par ch=1 c=7 v=77
70152 Par ch=1 c=7 v=76
70176 Par ch=1 c=7 v=75
70192 Par ch=1 c=7 v=74
70208 Par ch=1 c=7 v=73
70224 Par ch=1 c=7 v=72
70248 Par ch=1 c=7 v=71
70264 Par ch=1 c=7 v=70
70280 Par ch=1 c=7 v=69
70296 Par ch=1 c=7 v=68
70320 Par ch=1 c=7 v=67
70336 Par ch=1 c=7 v=66
70352 Par ch=1 c=7 v=65
70368 Par ch=1 c=7 v=64
70390 On ch=1 n=36 v=0
70392 On ch=1 n=43 v=116
70392 Par ch=1 c=7 v=63
70408 Par ch=1 c=7 v=62
70424 Par ch=1 c=7 v=61
70440 Par ch=1 c=7 v=60
70464 Par ch=1 c=7 v=59
70480 Par ch=1 c=7 v=58
70496 Par ch=1 c=7 v=57
70512 Par ch=1 c=7 v=56
70536 Par ch=1 c=7 v=55
70552 Par ch=1 c=7 v=54
70568 Par ch=1 c=7 v=53
70582 On ch=1 n=43 v=0
70584 On ch=1 n=39 v=116
70584 Par ch=1 c=7 v=52
70608 Par ch=1 c=7 v=51
70624 Par ch=1 c=7 v=50
70640 Par ch=1 c=7 v=49
70656 Par ch=1 c=7 v=48
70680 Par ch=1 c=7 v=47
70696 Par ch=1 c=7 v=46
70712 Par ch=1 c=7 v=45
70728 Par ch=1 c=7 v=44
70752 Par ch=1 c=7 v=43
70768 Par ch=1 c=7 v=42
70774 On ch=1 n=39 v=0
70776 On ch=1 n=36 v=116
70784 Par ch=1 c=7 v=41
70800 Par ch=1 c=7 v=40
70824 Par ch=1 c=7 v=39
70840 Par ch=1 c=7 v=38
70856 Par ch=1 c=7 v=37
70872 Par ch=1 c=7 v=36
70896 Par ch=1 c=7 v=35
70912 Par ch=1 c=7 v=34
70928 Par ch=1 c=7 v=33
70944 Par ch=1 c=7 v=32
70968 Par ch=1 c=7 v=31
70984 Par ch=1 c=7 v=30
71000 Par ch=1 c=7 v=29
71016 Par ch=1 c=7 v=28
71040 Par ch=1 c=7 v=27
71056 Par ch=1 c=7 v=26
71072 Par ch=1 c=7 v=25
71088 Par ch=1 c=7 v=24
71112 Par ch=1 c=7 v=23
71128 Par ch=1 c=7 v=22
71144 Par ch=1 c=7 v=21
71158 On ch=1 n=36 v=0
71160 Par ch=1 c=7 v=20
71160 On ch=1 n=43 v=116
71350 On ch=1 n=43 v=0
71352 Par ch=1 c=7 v=15
71352 On ch=1 n=39 v=116
71542 On ch=1 n=39 v=0
71542 Meta TrkEnd
TrkEnd
MTrk
0 Meta 0x21 00
89 Par ch=2 c=10 v=125
101 Par ch=2 c=1 v=0
113 Par ch=2 c=91 v=108
125 Par ch=2 c=93 v=48
137 PrCh ch=2 p=30
149 Par ch=2 c=100 v=0
149 Par ch=2 c=101 v=0
149 Par ch=2 c=6 v=7
158 Par ch=2 c=98 v=32
158 Par ch=2 c=99 v=1
158 Par ch=2 c=6 v=64
170 Par ch=2 c=98 v=33
170 Par ch=2 c=99 v=1
170 Par ch=2 c=6 v=72
182 Par ch=2 c=7 v=90
182 Par ch=2 c=11 v=96
192 On ch=2 n=56 v=108
194 On ch=2 n=59 v=104
195 On ch=2 n=64 v=120
288 On ch=2 n=56 v=0
288 On ch=2 n=59 v=0
288 On ch=2 n=64 v=0
288 On ch=2 n=57 v=108
289 On ch=2 n=61 v=104
290 On ch=2 n=64 v=120
384 Par ch=2 c=11 v=127
384 On ch=2 n=68 v=120
400 On ch=2 n=57 v=0
400 On ch=2 n=61 v=0
402 On ch=2 n=64 v=0
408 On ch=2 n=64 v=94
432 On ch=2 n=68 v=0
432 On ch=2 n=69 v=118
456 On ch=2 n=69 v=0
456 On ch=2 n=66 v=108
480 On ch=2 n=64 v=0
480 On ch=2 n=64 v=96
504 On ch=2 n=66 v=0
504 On ch=2 n=69 v=80
522 On ch=2 n=69 v=0
528 On ch=2 n=64 v=0
528 On ch=2 n=64 v=108
576 On ch=2 n=69 v=120
600 On ch=2 n=64 v=0
600 On ch=2 n=63 v=114
601 On ch=2 n=69 v=0
648 On ch=2 n=63 v=0
648 On ch=2 n=69 v=104
672 On ch=2 n=68 v=120
696 On ch=2 n=69 v=0
696 On ch=2 n=64 v=108
720 On ch=2 n=68 v=0
720 On ch=2 n=69 v=118
744 On ch=2 n=64 v=0
744 On ch=2 n=69 v=0
744 On ch=2 n=66 v=108
768 On ch=2 n=64 v=104
792 On ch=2 n=66 v=0
792 On ch=2 n=64 v=0
792 On ch=2 n=64 v=96
792 On ch=2 n=69 v=118
816 On ch=2 n=64 v=0
816 On ch=2 n=69 v=0
816 On ch=2 n=64 v=108
864 On ch=2 n=69 v=120
888 On ch=2 n=64 v=0
888 On ch=2 n=63 v=114
889 On ch=2 n=69 v=0
912 On ch=2 n=64 v=88
934 On ch=2 n=64 v=0
936 On ch=2 n=63 v=0
936 On ch=2 n=69 v=114
960 Pb ch=2 v=8192
960 On ch=2 n=59 v=108
982 On ch=2 n=69 v=0
983 Pb ch=2 v=10532
1007 Pb ch=2 v=9362
1008 On ch=2 n=59 v=0
1008 Pb ch=2 v=8192
1008 On ch=2 n=59 v=106
1032 Pb ch=2 v=8192
1041 Pb ch=2 v=7022
1042 Pb ch=2 v=5852
1043 Pb ch=2 v=4672
1044 Pb ch=2 v=3492
1045 Pb ch=2 v=2317
1046 Pb ch=2 v=256
1048 On ch=2 n=59 v=0
1056 Pb ch=2 v=8192
1056 Par ch=2 c=11 v=96
1056 On ch=2 n=56 v=108
1057 On ch=2 n=59 v=104
1058 On ch=2 n=64 v=120
1146 On ch=2 n=56 v=0
1147 On ch=2 n=59 v=0
1148 On ch=2 n=64 v=0
1152 On ch=2 n=57 v=108
1153 On ch=2 n=59 v=104
1154 On ch=2 n=64 v=120
1248 Par ch=2 c=11 v=127
1248 On ch=2 n=68 v=120
1249 On ch=2 n=57 v=0
1250 On ch=2 n=59 v=0
1251 On ch=2 n=64 v=0
1272 On ch=2 n=64 v=108
1296 On ch=2 n=68 v=0
1296 On ch=2 n=69 v=118
1320 On ch=2 n=64 v=0
1320 On ch=2 n=69 v=0
1320 On ch=2 n=66 v=108
1344 On ch=2 n=64 v=104
1368 On ch=2 n=66 v=0
1368 On ch=2 n=64 v=0
1368 On ch=2 n=64 v=96
1368 On ch=2 n=69 v=118
1392 On ch=2 n=64 v=0
1392 On ch=2 n=69 v=0
1392 On ch=2 n=64 v=108
1440 On ch=2 n=69 v=120
1464 On ch=2 n=64 v=0
1464 On ch=2 n=63 v=114
1465 On ch=2 n=69 v=0
1488 On ch=2 n=64 v=94
1510 On ch=2 n=64 v=0
1512 On ch=2 n=63 v=0
1512 On ch=2 n=69 v=104
1537 On ch=2 n=68 v=120
1560 On ch=2 n=69 v=0
1560 On ch=2 n=64 v=108
1584 On ch=2 n=64 v=0
1584 On ch=2 n=64 v=96
1584 On ch=2 n=69 v=118
1585 On ch=2 n=68 v=0
1608 On ch=2 n=64 v=0
1608 On ch=2 n=69 v=0
1608 On ch=2 n=66 v=108
1632 On ch=2 n=64 v=104
1656 On ch=2 n=66 v=0
1656 On ch=2 n=64 v=0
1656 On ch=2 n=64 v=96
1656 On ch=2 n=69 v=118
1680 On ch=2 n=64 v=0
1680 On ch=2 n=69 v=0
1680 On ch=2 n=64 v=108
1728 On ch=2 n=69 v=120
1752 On ch=2 n=64 v=0
1752 On ch=2 n=63 v=114
1753 On ch=2 n=69 v=0
1776 On ch=2 n=64 v=94
1798 On ch=2 n=64 v=0
1800 On ch=2 n=63 v=0
1800 On ch=2 n=69 v=108
1824 Pb ch=2 v=8192
1824 On ch=2 n=59 v=107
1848 On ch=2 n=69 v=0
1848 Pb ch=2 v=9362
1851 Pb ch=2 v=10533
1872 Pb ch=2 v=9362
1873 On ch=2 n=59 v=0
1873 Pb ch=2 v=8192
1873 On ch=2 n=59 v=106
1896 Pb ch=2 v=8192
1905 Pb ch=2 v=7022
1907 Pb ch=2 v=5852
1908 Pb ch=2 v=4672
1909 Pb ch=2 v=3492
1910 Pb ch=2 v=2317
1911 Pb ch=2 v=256
1914 On ch=2 n=59 v=0
1920 Pb ch=2 v=8192
1920 Par ch=2 c=11 v=98
1920 On ch=2 n=56 v=108
1920 On ch=2 n=59 v=104
1920 On ch=2 n=64 v=120
2010 On ch=2 n=56 v=0
2010 On ch=2 n=59 v=0
2010 On ch=2 n=64 v=0
2016 On ch=2 n=57 v=108
2016 On ch=2 n=59 v=104
2016 On ch=2 n=64 v=120
2112 Par ch=2 c=11 v=64
2112 On ch=2 n=61 v=111
2114 On ch=2 n=57 v=0
2114 On ch=2 n=59 v=0
2114 On ch=2 n=64 v=0
2136 On ch=2 n=59 v=108
2160 On ch=2 n=52 v=111
2161 On ch=2 n=59 v=0
2184 On ch=2 n=61 v=0
2184 On ch=2 n=59 v=111
2208 On ch=2 n=57 v=106
2227 On ch=2 n=59 v=0
2230 On ch=2 n=52 v=0
2232 On ch=2 n=59 v=100
2248 On ch=2 n=57 v=0
2256 On ch=2 n=57 v=111
2272 On ch=2 n=59 v=0
2280 On ch=2 n=52 v=100
2304 On ch=2 n=49 v=98
2320 On ch=2 n=52 v=0
2328 On ch=2 n=57 v=0
2328 On ch=2 n=52 v=96
2344 On ch=2 n=49 v=0
2352 On ch=2 n=61 v=111
2368 On ch=2 n=52 v=0
2376 On ch=2 n=59 v=108
2400 On ch=2 n=52 v=100
2401 On ch=2 n=59 v=0
2424 On ch=2 n=61 v=0
2424 On ch=2 n=59 v=107
2448 On ch=2 n=57 v=102
2470 On ch=2 n=52 v=0
2472 On ch=2 n=52 v=96
2491 On ch=2 n=57 v=0
2496 On ch=2 n=59 v=0
2496 On ch=2 n=59 v=106
2512 On ch=2 n=52 v=0
2520 On ch=2 n=52 v=96
2544 On ch=2 n=59 v=0
2544 On ch=2 n=59 v=111
2568 On ch=2 n=52 v=0
2568 On ch=2 n=52 v=96
2588 On ch=2 n=59 v=0
2592 On ch=2 n=52 v=0
2592 Par ch=2 c=11 v=100
2592 On ch=2 n=40 v=116
2640 On ch=2 n=40 v=0
2640 On ch=2 n=40 v=108
2688 On ch=2 n=47 v=108
2689 On ch=2 n=52 v=104
2690 On ch=2 n=56 v=105
2692 On ch=2 n=59 v=109
2782 On ch=2 n=47 v=0
2783 On ch=2 n=52 v=0
2784 On ch=2 n=40 v=0
2785 On ch=2 n=56 v=0
2789 On ch=2 n=59 v=0
2810 On ch=2 n=52 v=106
2810 On ch=2 n=56 v=102
2810 On ch=2 n=59 v=109
2830 On ch=2 n=52 v=0
2830 On ch=2 n=56 v=0
2830 On ch=2 n=59 v=0
2835 On ch=2 n=40 v=110
2855 On ch=2 n=40 v=0
2858 On ch=2 n=40 v=105
2881 On ch=2 n=47 v=110
2882 On ch=2 n=52 v=108
2883 On ch=2 n=56 v=110
2885 On ch=2 n=59 v=110
2898 On ch=2 n=40 v=0
2929 On ch=2 n=40 v=114
2959 On ch=2 n=52 v=0
2960 On ch=2 n=56 v=0
2961 On ch=2 n=47 v=0
2965 On ch=2 n=59 v=0
2975 Par ch=2 c=11 v=90
2976 On ch=2 n=40 v=0
2976 On ch=2 n=56 v=108
2976 On ch=2 n=59 v=104
2976 On ch=2 n=64 v=120
3066 On ch=2 n=56 v=0
3066 On ch=2 n=59 v=0
3066 On ch=2 n=64 v=0
3072 On ch=2 n=57 v=108
3072 On ch=2 n=61 v=104
3072 On ch=2 n=64 v=120
3168 Par ch=2 c=11 v=108
3168 On ch=2 n=73 v=120
3183 On ch=2 n=61 v=0
3184 On ch=2 n=57 v=0
3184 On ch=2 n=64 v=0
3191 On ch=2 n=73 v=0
3192 On ch=2 n=59 v=93
3239 On ch=2 n=59 v=0
3240 On ch=2 n=71 v=114
3264 On ch=2 n=59 v=98
3288 On ch=2 n=56 v=71
3297 On ch=2 n=56 v=0
3306 On ch=2 n=59 v=0
3308 On ch=2 n=71 v=0
3312 On ch=2 n=68 v=102
3336 On ch=2 n=61 v=88
3360 On ch=2 n=68 v=0
3360 On ch=2 n=61 v=0
3360 On ch=2 n=57 v=92
3384 On ch=2 n=66 v=94
3408 On ch=2 n=57 v=0
3432 Par ch=2 c=1 v=24
3500 On ch=2 n=66 v=0
3504 Par ch=2 c=1 v=0
3504 On ch=2 n=57 v=84
3526 On ch=2 n=57 v=0
3528 On ch=2 n=66 v=104
3552 Par ch=2 c=1 v=24
3575 On ch=2 n=66 v=0
3576 Par ch=2 c=1 v=0
3576 On ch=2 n=61 v=100
3599 On ch=2 n=61 v=0
3600 On ch=2 n=57 v=100
3646 Pb ch=2 v=4642
3647 Pb ch=2 v=2342
3648 On ch=2 n=57 v=0
3648 Pb ch=2 v=8192
3648 Par ch=2 c=11 v=96
3648 On ch=2 n=40 v=124
3696 On ch=2 n=40 v=0
3696 On ch=2 n=40 v=114
3744 On ch=2 n=40 v=0
3744 On ch=2 n=56 v=104
3744 On ch=2 n=59 v=115
3744 On ch=2 n=64 v=118
3766 On ch=2 n=56 v=0
3766 On ch=2 n=59 v=0
3766 On ch=2 n=64 v=0
3768 On ch=2 n=56 v=104
3768 On ch=2 n=59 v=107
3768 On ch=2 n=64 v=118
3784 On ch=2 n=56 v=0
3784 On ch=2 n=59 v=0
3784 On ch=2 n=64 v=0
3816 On ch=2 n=56 v=91
3816 On ch=2 n=59 v=115
3816 On ch=2 n=64 v=118
3864 On ch=2 n=56 v=0
3864 On ch=2 n=59 v=0
3864 On ch=2 n=64 v=0
3864 On ch=2 n=56 v=91
3864 On ch=2 n=59 v=116
3864 On ch=2 n=64 v=118
3880 On ch=2 n=56 v=0
3880 On ch=2 n=59 v=0
3880 On ch=2 n=64 v=0
3888 On ch=2 n=40 v=114
3912 On ch=2 n=40 v=0
3912 On ch=2 n=40 v=109
3935 On ch=2 n=59 v=118
3936 On ch=2 n=64 v=114
3943 On ch=2 n=59 v=0
3944 On ch=2 n=64 v=0
3959 On ch=2 n=59 v=112
3960 On ch=2 n=40 v=0
3960 On ch=2 n=64 v=117
3983 On ch=2 n=40 v=116
4028 Par ch=2 c=11 v=90
4030 On ch=2 n=59 v=0
4030 On ch=2 n=64 v=0
4030 On ch=2 n=40 v=0
4032 On ch=2 n=56 v=116
4033 On ch=2 n=59 v=112
4034 On ch=2 n=64 v=127
4122 On ch=2 n=56 v=0
4123 On ch=2 n=59 v=0
4124 On ch=2 n=64 v=0
4128 On ch=2 n=57 v=116
4129 On ch=2 n=59 v=112
4130 On ch=2 n=64 v=127
4224 On ch=2 n=61 v=100
4225 On ch=2 n=57 v=0
4226 On ch=2 n=59 v=0
4227 On ch=2 n=64 v=0
4227 On ch=2 n=61 v=0
4248 On ch=2 n=59 v=106
4296 On ch=2 n=64 v=111
4368 On ch=2 n=61 v=108
4376 On ch=2 n=59 v=0
4393 On ch=2 n=64 v=0
4416 On ch=2 n=57 v=96
4578 On ch=2 n=57 v=0
4581 On ch=2 n=61 v=0
4584 On ch=2 n=59 v=108
4585 On ch=2 n=64 v=110
4632 On ch=2 n=57 v=96
4654 On ch=2 n=59 v=0
4655 On ch=2 n=64 v=0
4656 On ch=2 n=57 v=0
4656 On ch=2 n=57 v=106
4657 On ch=2 n=61 v=106
4701 On ch=2 n=57 v=0
4702 On ch=2 n=61 v=0
4704 Par ch=2 c=11 v=100
4704 On ch=2 n=40 v=116
4749 On ch=2 n=40 v=0
4752 On ch=2 n=40 v=116
4800 On ch=2 n=59 v=112
4801 On ch=2 n=64 v=106
4802 On ch=2 n=68 v=113
4872 On ch=2 n=59 v=0
4872 On ch=2 n=64 v=0
4872 On ch=2 n=68 v=0
4872 On ch=2 n=59 v=100
4872 On ch=2 n=64 v=107
4872 On ch=2 n=68 v=116
4888 On ch=2 n=59 v=0
4888 On ch=2 n=64 v=0
4888 On ch=2 n=68 v=0
4896 On ch=2 n=40 v=0
4896 Par ch=2 c=11 v=112
4896 Pb ch=2 v=7022
4896 On ch=2 n=57 v=106
4896 On ch=2 n=60 v=97
4916 Pb ch=2 v=7192
4917 Pb ch=2 v=7936
4918 Pb ch=2 v=8192
4944 On ch=2 n=60 v=0
4944 On ch=2 n=60 v=90
4992 On ch=2 n=60 v=0
4992 On ch=2 n=60 v=97
4992 On ch=2 n=66 v=98
5016 On ch=2 n=60 v=0
5016 On ch=2 n=66 v=0
5016 On ch=2 n=60 v=94
5016 On ch=2 n=66 v=95
5064 On ch=2 n=57 v=0
5064 On ch=2 n=60 v=0
5064 On ch=2 n=66 v=0
5064 On ch=2 n=57 v=98
5064 On ch=2 n=60 v=96
5064 On ch=2 n=66 v=94
5087 On ch=2 n=66 v=0
5088 On ch=2 n=57 v=0
5088 On ch=2 n=60 v=0
5088 On ch=2 n=57 v=105
5088 On ch=2 n=60 v=92
5088 On ch=2 n=66 v=77
5109 Pb ch=2 v=8417
5111 Pb ch=2 v=8192
5111 Pb ch=2 v=7192
5112 Pb ch=2 v=7022
5116 Pb ch=2 v=5842
5183 On ch=2 n=57 v=0
5183 On ch=2 n=60 v=0
5183 On ch=2 n=66 v=0
5184 Pb ch=2 v=8192
5184 On ch=2 n=58 v=100
5184 On ch=2 n=60 v=80
5184 On ch=2 n=64 v=80
5232 On ch=2 n=58 v=0
5232 On ch=2 n=60 v=0
5232 On ch=2 n=64 v=0
5232 On ch=2 n=60 v=100
5232 On ch=2 n=64 v=90
5232 On ch=2 n=55 v=96
5254 On ch=2 n=60 v=0
5254 On ch=2 n=64 v=0
5256 On ch=2 n=60 v=80
5256 On ch=2 n=64 v=80
5276 On ch=2 n=60 v=0
5277 On ch=2 n=64 v=0
5280 On ch=2 n=55 v=0
5280 Pb ch=2 v=7022
5280 On ch=2 n=62 v=100
5280 On ch=2 n=66 v=100
5292 Pb ch=2 v=7936
5293 Pb ch=2 v=8192
5304 On ch=2 n=62 v=0
5304 On ch=2 n=66 v=0
5328 On ch=2 n=60 v=100
5328 On ch=2 n=64 v=100
5352 On ch=2 n=60 v=0
5352 On ch=2 n=64 v=0
5376 Pb ch=2 v=7022
5376 On ch=2 n=59 v=100
5376 On ch=2 n=62 v=100
5400 Pb ch=2 v=7192
5402 Pb ch=2 v=7936
5403 Pb ch=2 v=8192
5423 On ch=2 n=59 v=0
5423 On ch=2 n=62 v=0
5424 On ch=2 n=55 v=100
5424 On ch=2 n=59 v=100
5472 Pb ch=2 v=8064
5474 Pb ch=2 v=7022
5478 Pb ch=2 v=5992
5479 Pb ch=2 v=5842
5481 Pb ch=2 v=4752
5482 Pb ch=2 v=4672
5483 Pb ch=2 v=3692
5484 On ch=2 n=55 v=0
5484 On ch=2 n=59 v=0
5484 Pb ch=2 v=3502
5664 Pb ch=2 v=8192
5664 Par ch=2 c=11 v=106
5664 On ch=2 n=56 v=108
5665 On ch=2 n=59 v=104
5666 On ch=2 n=64 v=120
5754 On ch=2 n=56 v=0
5755 On ch=2 n=59 v=0
5756 On ch=2 n=64 v=0
5760 On ch=2 n=57 v=108
5761 On ch=2 n=61 v=104
5762 On ch=2 n=64 v=120
5856 Par ch=2 c=11 v=80
5858 On ch=2 n=64 v=0
5858 On ch=2 n=64 v=96
5902 On ch=2 n=57 v=0
5903 On ch=2 n=61 v=0
5904 On ch=2 n=64 v=0
5904 On ch=2 n=57 v=103
5905 On ch=2 n=59 v=102
5906 On ch=2 n=64 v=105
5976 On ch=2 n=64 v=0
5976 On ch=2 n=64 v=100
5996 On ch=2 n=64 v=0
6000 On ch=2 n=57 v=0
6000 On ch=2 n=59 v=0
6000 On ch=2 n=57 v=101
6000 On ch=2 n=61 v=105
6048 On ch=2 n=61 v=0
6048 On ch=2 n=61 v=98
6072 On ch=2 n=61 v=0
6072 On ch=2 n=61 v=96
6096 On ch=2 n=61 v=0
6096 On ch=2 n=61 v=97
6120 On ch=2 n=61 v=0
6120 On ch=2 n=61 v=96
6144 On ch=2 n=57 v=0
6144 On ch=2 n=61 v=0
6144 On ch=2 n=57 v=100
6144 On ch=2 n=61 v=103
6238 On ch=2 n=57 v=0
6238 On ch=2 n=61 v=0
6240 Par ch=2 c=11 v=108
6240 On ch=2 n=59 v=108
6242 On ch=2 n=61 v=112
6336 On ch=2 n=59 v=0
6336 On ch=2 n=61 v=0
6336 On ch=2 n=57 v=112
6338 On ch=2 n=61 v=112
6358 On ch=2 n=57 v=0
6359 On ch=2 n=61 v=0
6360 On ch=2 n=56 v=114
6360 On ch=2 n=59 v=114
6383 On ch=2 n=56 v=0
6383 On ch=2 n=59 v=0
6408 On ch=2 n=57 v=116
6408 On ch=2 n=61 v=116
6430 On ch=2 n=57 v=0
6430 On ch=2 n=61 v=0
6456 On ch=2 n=56 v=112
6456 On ch=2 n=59 v=112
6476 On ch=2 n=56 v=0
6476 On ch=2 n=59 v=0
6480 On ch=2 n=40 v=116
6525 On ch=2 n=40 v=0
6528 On ch=2 n=40 v=114
6552 On ch=2 n=68 v=96
6554 On ch=2 n=71 v=96
6572 On ch=2 n=68 v=0
6573 On ch=2 n=40 v=0
6574 On ch=2 n=71 v=0
6576 On ch=2 n=68 v=112
6576 On ch=2 n=71 v=112
6582 On ch=2 n=68 v=0
6582 On ch=2 n=71 v=0
6600 On ch=2 n=40 v=108
6622 On ch=2 n=40 v=0
6624 On ch=2 n=40 v=124
6669 On ch=2 n=40 v=0
6672 On ch=2 n=40 v=124
6717 On ch=2 n=40 v=0
6720 On ch=2 n=40 v=124
6768 On ch=2 n=64 v=118
6768 On ch=2 n=68 v=117
6768 On ch=2 n=71 v=113
6792 On ch=2 n=40 v=0
6796 On ch=2 n=64 v=0
6796 On ch=2 n=68 v=0
6796 On ch=2 n=71 v=0
6816 On ch=2 n=64 v=114
6818 On ch=2 n=64 v=0
6840 On ch=2 n=64 v=118
6840 On ch=2 n=68 v=117
6840 On ch=2 n=71 v=113
6846 On ch=2 n=68 v=0
6846 On ch=2 n=71 v=0
6847 On ch=2 n=64 v=0
6864 On ch=2 n=40 v=96
6866 On ch=2 n=40 v=0
6888 On ch=2 n=68 v=112
6888 On ch=2 n=71 v=111
6890 On ch=2 n=68 v=0
6890 On ch=2 n=71 v=0
6912 On ch=2 n=52 v=106
6914 On ch=2 n=52 v=0
6936 On ch=2 n=52 v=92
6938 On ch=2 n=52 v=0
6960 On ch=2 n=59 v=112
6960 On ch=2 n=64 v=116
6974 On ch=2 n=59 v=0
6976 On ch=2 n=64 v=0
6984 On ch=2 n=59 v=110
6984 On ch=2 n=64 v=116
6999 On ch=2 n=59 v=0
7000 On ch=2 n=64 v=0
7008 On ch=2 n=59 v=96
7008 On ch=2 n=64 v=96
7009 On ch=2 n=59 v=0
7010 On ch=2 n=64 v=0
7032 On ch=2 n=59 v=96
7032 On ch=2 n=64 v=96
7033 On ch=2 n=59 v=0
7034 On ch=2 n=64 v=0
7056 On ch=2 n=59 v=96
7056 On ch=2 n=64 v=96
7057 On ch=2 n=64 v=0
7059 On ch=2 n=59 v=0
7080 On ch=2 n=59 v=88
7080 On ch=2 n=66 v=89
7103 On ch=2 n=59 v=0
7103 On ch=2 n=66 v=0
7104 On ch=2 n=59 v=92
7104 On ch=2 n=66 v=94
7150 On ch=2 n=59 v=0
7150 On ch=2 n=66 v=0
7152 On ch=2 n=59 v=96
7152 On ch=2 n=66 v=98
7176 On ch=2 n=59 v=0
7176 On ch=2 n=66 v=0
7176 On ch=2 n=59 v=100
7176 On ch=2 n=66 v=113
7222 Pb ch=2 v=7022
7223 Pb ch=2 v=5852
7224 Pb ch=2 v=3492
7225 Pb ch=2 v=256
7226 On ch=2 n=59 v=0
7226 On ch=2 n=66 v=0
7226 Pb ch=2 v=8192
7248 Par ch=2 c=11 v=100
7248 On ch=2 n=56 v=116
7250 On ch=2 n=59 v=112
7251 On ch=2 n=64 v=127
7340 On ch=2 n=56 v=0
7340 On ch=2 n=59 v=0
7341 On ch=2 n=64 v=0
7344 On ch=2 n=57 v=116
7346 On ch=2 n=59 v=112
7347 On ch=2 n=64 v=127
7440 Par ch=2 c=11 v=86
7442 On ch=2 n=57 v=0
7442 On ch=2 n=59 v=0
7464 On ch=2 n=59 v=80
7474 On ch=2 n=64 v=0
7487 On ch=2 n=59 v=0
7488 On ch=2 n=61 v=80
7512 On ch=2 n=64 v=82
7521 On ch=2 n=61 v=0
7560 On ch=2 n=64 v=0
7560 On ch=2 n=64 v=81
7584 On ch=2 n=57 v=81
7596 On ch=2 n=64 v=0
7629 On ch=2 n=57 v=0
7632 On ch=2 n=64 v=72
7653 On ch=2 n=64 v=0
7656 On ch=2 n=73 v=45
7656 On ch=2 n=64 v=66
7724 On ch=2 n=73 v=0
7724 On ch=2 n=64 v=0
7728 Par ch=2 c=11 v=100
7728 On ch=2 n=52 v=104
7728 On ch=2 n=57 v=103
7728 On ch=2 n=61 v=103
7728 On ch=2 n=64 v=104
7776 On ch=2 n=52 v=0
7776 On ch=2 n=57 v=0
7776 On ch=2 n=61 v=0
7776 On ch=2 n=64 v=0
7776 On ch=2 n=52 v=98
7776 On ch=2 n=57 v=96
7776 On ch=2 n=61 v=96
7776 On ch=2 n=64 v=96
7798 On ch=2 n=52 v=0
7798 On ch=2 n=57 v=0
7798 On ch=2 n=61 v=0
7798 On ch=2 n=64 v=0
7800 On ch=2 n=52 v=102
7800 On ch=2 n=57 v=101
7800 On ch=2 n=59 v=101
7800 On ch=2 n=64 v=101
7848 On ch=2 n=52 v=0
7848 On ch=2 n=57 v=0
7848 On ch=2 n=59 v=0
7848 On ch=2 n=64 v=0
7848 On ch=2 n=52 v=99
7848 On ch=2 n=57 v=96
7848 On ch=2 n=59 v=96
7848 On ch=2 n=64 v=96
7870 On ch=2 n=52 v=0
7870 On ch=2 n=57 v=0
7870 On ch=2 n=59 v=0
7870 On ch=2 n=64 v=0
7872 Pb ch=2 v=8320
7872 On ch=2 n=47 v=116
7872 On ch=2 n=52 v=106
7872 On ch=2 n=56 v=106
7874 On ch=2 n=52 v=0
7874 On ch=2 n=56 v=0
7891 Pb ch=2 v=8448
7892 Pb ch=2 v=8192
7894 Pb ch=2 v=7022
7896 Pb ch=2 v=5852
7898 Pb ch=2 v=4682
7900 Pb ch=2 v=3492
7902 Pb ch=2 v=2322
7904 Pb ch=2 v=1172
7907 Pb ch=2 v=0
7910 On ch=2 n=47 v=0
7920 Pb ch=2 v=8192
7920 On ch=2 n=40 v=106
7968 On ch=2 n=40 v=0
7968 On ch=2 n=40 v=76
8013 On ch=2 n=40 v=0
8016 On ch=2 n=56 v=106
8018 On ch=2 n=59 v=115
8020 On ch=2 n=64 v=120
8070 On ch=2 n=56 v=0
8070 On ch=2 n=59 v=0
8070 On ch=2 n=64 v=0
8088 On ch=2 n=56 v=106
8089 On ch=2 n=59 v=106
8089 On ch=2 n=64 v=106
8094 On ch=2 n=56 v=0
8094 On ch=2 n=59 v=0
8094 On ch=2 n=64 v=0
8113 On ch=2 n=59 v=102
8113 On ch=2 n=64 v=103
8116 On ch=2 n=59 v=0
8116 On ch=2 n=64 v=0
8137 On ch=2 n=59 v=102
8137 On ch=2 n=64 v=103
8140 On ch=2 n=59 v=0
8140 On ch=2 n=64 v=0
8161 On ch=2 n=40 v=103
8209 On ch=2 n=40 v=0
8209 On ch=2 n=56 v=105
8211 On ch=2 n=59 v=110
8212 On ch=2 n=64 v=118
8279 On ch=2 n=56 v=0
8279 On ch=2 n=59 v=0
8279 On ch=2 n=64 v=0
8281 On ch=2 n=59 v=101
8281 On ch=2 n=64 v=101
8282 On ch=2 n=59 v=0
8282 On ch=2 n=64 v=0
8304 On ch=2 n=56 v=101
8307 On ch=2 n=59 v=101
8308 On ch=2 n=64 v=106
8400 On ch=2 n=59 v=0
8400 On ch=2 n=64 v=0
8400 On ch=2 n=57 v=104
8401 On ch=2 n=56 v=0
8402 On ch=2 n=59 v=105
8403 On ch=2 n=64 v=108
8491 On ch=2 n=57 v=0
8495 On ch=2 n=59 v=0
8497 On ch=2 n=64 v=0
8497 Par ch=2 c=11 v=106
8497 On ch=2 n=73 v=108
8516 On ch=2 n=73 v=0
8521 On ch=2 n=59 v=93
8568 On ch=2 n=59 v=0
8569 On ch=2 n=71 v=114
8593 On ch=2 n=59 v=98
8617 On ch=2 n=56 v=71
8626 On ch=2 n=56 v=0
8635 On ch=2 n=59 v=0
8637 On ch=2 n=71 v=0
8643 On ch=2 n=68 v=98
8666 On ch=2 n=61 v=96
8673 On ch=2 n=68 v=0
8689 On ch=2 n=57 v=92
8696 On ch=2 n=61 v=0
8711 On ch=2 n=57 v=0
8713 On ch=2 n=66 v=109
8761 Par ch=2 c=1 v=24
8809 Par ch=2 c=1 v=0
8809 On ch=2 n=57 v=59
8829 On ch=2 n=66 v=0
8857 Par ch=2 c=11 v=96
8857 On ch=2 n=66 v=104
8859 On ch=2 n=57 v=0
8881 Par ch=2 c=1 v=24
8904 On ch=2 n=66 v=0
8905 Par ch=2 c=1 v=0
8905 On ch=2 n=66 v=80
8925 On ch=2 n=66 v=0
8929 On ch=2 n=66 v=88
8976 On ch=2 n=66 v=0
8977 Par ch=2 c=11 v=96
8977 On ch=2 n=40 v=124
9025 On ch=2 n=40 v=0
9025 On ch=2 n=40 v=114
9073 On ch=2 n=40 v=0
9073 On ch=2 n=59 v=104
9076 On ch=2 n=64 v=115
9078 On ch=2 n=68 v=118
9133 On ch=2 n=59 v=0
9133 On ch=2 n=64 v=0
9133 On ch=2 n=68 v=0
9145 On ch=2 n=59 v=91
9145 On ch=2 n=64 v=98
9145 On ch=2 n=68 v=106
9165 On ch=2 n=59 v=0
9165 On ch=2 n=64 v=0
9165 On ch=2 n=68 v=0
9169 On ch=2 n=40 v=91
9176 On ch=2 n=40 v=0
9193 On ch=2 n=59 v=115
9194 On ch=2 n=64 v=118
9195 On ch=2 n=68 v=91
9197 On ch=2 n=59 v=0
9197 On ch=2 n=64 v=0
9199 On ch=2 n=68 v=0
9217 On ch=2 n=40 v=118
9262 On ch=2 n=40 v=0
9265 On ch=2 n=40 v=106
9289 On ch=2 n=40 v=0
9289 On ch=2 n=40 v=96
9309 On ch=2 n=40 v=0
9313 On ch=2 n=40 v=100
9331 On ch=2 n=40 v=0
9337 On ch=2 n=40 v=97
9355 On ch=2 n=40 v=0
9361 On ch=2 n=52 v=83
9363 On ch=2 n=59 v=105
9364 On ch=2 n=68 v=102
9365 On ch=2 n=71 v=102
9454 On ch=2 n=52 v=0
9454 On ch=2 n=59 v=0
9455 On ch=2 n=68 v=0
9456 On ch=2 n=71 v=0
9457 On ch=2 n=52 v=85
9459 On ch=2 n=61 v=104
9460 On ch=2 n=69 v=102
9461 On ch=2 n=73 v=102
9552 On ch=2 n=52 v=0
9553 On ch=2 n=61 v=0
9553 Par ch=2 c=11 v=86
9553 On ch=2 n=49 v=96
9554 On ch=2 n=69 v=0
9555 On ch=2 n=73 v=0
9555 On ch=2 n=52 v=95
9556 On ch=2 n=69 v=88
9557 On ch=2 n=73 v=100
9649 On ch=2 n=61 v=70
9697 On ch=2 n=61 v=0
9697 On ch=2 n=61 v=66
9720 On ch=2 n=61 v=0
9721 On ch=2 n=59 v=70
9745 On ch=2 n=49 v=0
9745 On ch=2 n=52 v=0
9746 On ch=2 n=69 v=0
9747 On ch=2 n=73 v=0
9769 On ch=2 n=59 v=0
9769 On ch=2 n=59 v=68
9793 On ch=2 n=57 v=70
9797 On ch=2 n=59 v=0
9841 On ch=2 n=57 v=0
9841 Par ch=2 c=11 v=96
9841 On ch=2 n=61 v=88
9841 On ch=2 n=64 v=55
9889 On ch=2 n=61 v=0
9889 On ch=2 n=64 v=0
9889 On ch=2 n=61 v=82
9889 On ch=2 n=64 v=55
9911 On ch=2 n=61 v=0
9911 On ch=2 n=64 v=0
9913 On ch=2 n=59 v=78
9913 On ch=2 n=61 v=78
9913 On ch=2 n=64 v=57
9958 On ch=2 n=59 v=0
9961 On ch=2 n=59 v=76
9983 On ch=2 n=61 v=0
9983 On ch=2 n=64 v=0
9983 On ch=2 n=59 v=0
9985 On ch=2 n=57 v=78
9985 On ch=2 n=61 v=78
9985 On ch=2 n=64 v=58
10030 On ch=2 n=57 v=0
10030 On ch=2 n=61 v=0
10030 On ch=2 n=64 v=0
10033 Par ch=2 c=11 v=108
10033 On ch=2 n=40 v=120
10125 On ch=2 n=40 v=0
10129 On ch=2 n=68 v=110
10130 On ch=2 n=71 v=112
10201 On ch=2 n=68 v=0
10201 On ch=2 n=68 v=96
10202 On ch=2 n=71 v=0
10202 On ch=2 n=71 v=95
10221 On ch=2 n=68 v=0
10222 On ch=2 n=71 v=0
10225 Par ch=2 c=11 v=120
10225 Pb ch=2 v=5852
10225 On ch=2 n=57 v=105
10225 On ch=2 n=60 v=66
10249 Pb ch=2 v=6092
10250 Pb ch=2 v=7022
10253 Pb ch=2 v=7092
10254 Pb ch=2 v=7936
10255 Pb ch=2 v=8192
10273 On ch=2 n=57 v=0
10273 On ch=2 n=60 v=0
10273 On ch=2 n=57 v=92
10273 On ch=2 n=60 v=72
10321 On ch=2 n=57 v=0
10321 On ch=2 n=60 v=0
10321 On ch=2 n=60 v=90
10321 On ch=2 n=66 v=64
10366 On ch=2 n=60 v=0
10369 On ch=2 n=66 v=0
10369 On ch=2 n=57 v=100
10369 On ch=2 n=60 v=78
10369 On ch=2 n=66 v=40
10417 On ch=2 n=57 v=0
10417 On ch=2 n=60 v=0
10417 On ch=2 n=66 v=0
10417 On ch=2 n=57 v=100
10417 On ch=2 n=60 v=60
10438 Pb ch=2 v=8417
10439 Pb ch=2 v=8192
10439 Pb ch=2 v=7168
10440 Pb ch=2 v=7022
10444 Pb ch=2 v=5842
10497 On ch=2 n=60 v=0
10512 On ch=2 n=57 v=0
10513 Pb ch=2 v=8192
10513 On ch=2 n=58 v=100
10513 On ch=2 n=60 v=84
10513 On ch=2 n=64 v=84
10561 On ch=2 n=58 v=0
10561 On ch=2 n=60 v=0
10561 On ch=2 n=64 v=0
10561 On ch=2 n=60 v=77
10561 On ch=2 n=64 v=77
10561 On ch=2 n=55 v=100
10583 On ch=2 n=64 v=0
10585 On ch=2 n=64 v=72
10605 On ch=2 n=60 v=0
10606 On ch=2 n=64 v=0
10609 On ch=2 n=55 v=0
10609 Pb ch=2 v=7022
10609 On ch=2 n=62 v=100
10609 On ch=2 n=66 v=100
10621 Pb ch=2 v=7936
10622 Pb ch=2 v=8192
10633 On ch=2 n=62 v=0
10633 On ch=2 n=66 v=0
10657 On ch=2 n=60 v=100
10657 On ch=2 n=64 v=100
10681 On ch=2 n=60 v=0
10681 On ch=2 n=64 v=0
10705 Pb ch=2 v=7022
10705 On ch=2 n=59 v=100
10705 On ch=2 n=62 v=100
10729 Pb ch=2 v=7192
10731 Pb ch=2 v=7936
10732 Pb ch=2 v=8192
10752 On ch=2 n=59 v=0
10752 On ch=2 n=62 v=0
10753 On ch=2 n=55 v=100
10753 On ch=2 n=59 v=100
10801 Pb ch=2 v=8064
10803 Pb ch=2 v=7022
10807 Pb ch=2 v=5992
10808 Pb ch=2 v=5842
10810 Pb ch=2 v=4752
10811 Pb ch=2 v=4672
10812 Pb ch=2 v=3692
10813 On ch=2 n=55 v=0
10813 On ch=2 n=59 v=0
10813 Pb ch=2 v=3502
10993 Pb ch=2 v=8192
10993 Par ch=2 c=11 v=80
10993 On ch=2 n=52 v=88
10993 On ch=2 n=57 v=90
10993 On ch=2 n=64 v=110
10993 On ch=2 n=68 v=110
10993 On ch=2 n=71 v=90
10993 On ch=2 n=76 v=90
11065 On ch=2 n=52 v=0
11065 On ch=2 n=57 v=0
11065 On ch=2 n=64 v=0
11065 On ch=2 n=68 v=0
11065 On ch=2 n=71 v=0
11065 On ch=2 n=76 v=0
11065 On ch=2 n=64 v=88
11065 On ch=2 n=68 v=88
11065 On ch=2 n=71 v=88
11065 On ch=2 n=76 v=90
11087 On ch=2 n=64 v=0
11087 On ch=2 n=68 v=0
11087 On ch=2 n=71 v=0
11087 On ch=2 n=76 v=0
11089 On ch=2 n=64 v=110
11089 On ch=2 n=69 v=108
11089 On ch=2 n=73 v=97
11089 On ch=2 n=76 v=93
11185 On ch=2 n=52 v=86
11185 On ch=2 n=57 v=84
11185 On ch=2 n=61 v=84
11199 On ch=2 n=64 v=0
11199 On ch=2 n=69 v=0
11199 On ch=2 n=73 v=0
11199 On ch=2 n=76 v=0
11281 On ch=2 n=52 v=0
11281 On ch=2 n=57 v=0
11281 On ch=2 n=61 v=0
11281 On ch=2 n=52 v=82
11281 On ch=2 n=57 v=80
11281 On ch=2 n=61 v=80
11473 On ch=2 n=52 v=0
11473 On ch=2 n=57 v=0
11473 On ch=2 n=61 v=0
11473 On ch=2 n=54 v=76
11473 On ch=2 n=57 v=74
11569 On ch=2 n=54 v=0
11569 On ch=2 n=57 v=0
11569 Par ch=2 c=11 v=90
11569 On ch=2 n=52 v=52
11569 On ch=2 n=59 v=86
11569 On ch=2 n=61 v=86
11593 On ch=2 n=59 v=0
11593 On ch=2 n=59 v=79
11617 On ch=2 n=61 v=0
11617 On ch=2 n=59 v=0
11617 On ch=2 n=59 v=76
11617 On ch=2 n=61 v=76
11662 On ch=2 n=52 v=0
11662 On ch=2 n=59 v=0
11662 On ch=2 n=61 v=0
11665 Par ch=2 c=11 v=100
11665 On ch=2 n=57 v=107
11667 On ch=2 n=61 v=112
11687 On ch=2 n=57 v=0
11688 On ch=2 n=61 v=0
11689 On ch=2 n=56 v=105
11689 On ch=2 n=59 v=114
11712 On ch=2 n=56 v=0
11712 On ch=2 n=59 v=0
11737 On ch=2 n=57 v=107
11737 On ch=2 n=61 v=116
11759 On ch=2 n=57 v=0
11759 On ch=2 n=61 v=0
11785 On ch=2 n=56 v=103
11787 On ch=2 n=59 v=112
11805 On ch=2 n=56 v=0
11806 On ch=2 n=59 v=0
11809 On ch=2 n=40 v=112
11877 On ch=2 n=40 v=0
11881 On ch=2 n=56 v=98
11881 On ch=2 n=59 v=102
11901 On ch=2 n=56 v=0
11901 On ch=2 n=59 v=0
11905 On ch=2 n=56 v=102
11905 On ch=2 n=59 v=107
11997 On ch=2 n=56 v=0
11997 On ch=2 n=59 v=0
12001 On ch=2 n=40 v=112
12025 On ch=2 n=40 v=0
12025 On ch=2 n=40 v=89
12093 On ch=2 n=40 v=0
12097 On ch=2 n=57 v=89
12097 On ch=2 n=59 v=96
12120 On ch=2 n=57 v=0
12121 On ch=2 n=59 v=0
12121 On ch=2 n=56 v=97
12121 On ch=2 n=59 v=98
12169 Pb ch=2 v=8180
12170 Pb ch=2 v=8180
12171 Pb ch=2 v=8096
12189 On ch=2 n=56 v=0
12189 On ch=2 n=59 v=0
12193 Pb ch=2 v=8192
12193 On ch=2 n=43 v=106
12196 On ch=2 n=48 v=102
12198 On ch=2 n=52 v=102
12199 On ch=2 n=55 v=102
12200 On ch=2 n=60 v=104
12265 On ch=2 n=48 v=0
12265 On ch=2 n=48 v=104
12273 On ch=2 n=43 v=0
12287 On ch=2 n=52 v=0
12287 On ch=2 n=55 v=0
12287 On ch=2 n=60 v=0
12287 On ch=2 n=48 v=0
12289 On ch=2 n=48 v=88
12289 On ch=2 n=52 v=86
12289 On ch=2 n=55 v=86
12289 On ch=2 n=60 v=86
12337 On ch=2 n=48 v=0
12337 On ch=2 n=52 v=0
12337 On ch=2 n=55 v=0
12337 On ch=2 n=60 v=0
12337 On ch=2 n=52 v=100
12339 On ch=2 n=55 v=100
12340 On ch=2 n=60 v=102
12409 On ch=2 n=52 v=0
12409 On ch=2 n=55 v=0
12409 On ch=2 n=60 v=0
12409 On ch=2 n=55 v=88
12409 On ch=2 n=60 v=94
12457 On ch=2 n=55 v=0
12457 On ch=2 n=60 v=0
12457 On ch=2 n=52 v=96
12459 On ch=2 n=55 v=92
12460 On ch=2 n=60 v=100
12479 On ch=2 n=52 v=0
12481 On ch=2 n=55 v=0
12481 On ch=2 n=43 v=80
12481 On ch=2 n=52 v=97
12481 On ch=2 n=55 v=96
12573 On ch=2 n=60 v=0
12573 On ch=2 n=43 v=0
12573 On ch=2 n=52 v=0
12573 On ch=2 n=55 v=0
12577 On ch=2 n=59 v=108
12579 On ch=2 n=62 v=102
12580 On ch=2 n=66 v=90
12647 On ch=2 n=59 v=0
12649 On ch=2 n=59 v=102
12694 On ch=2 n=62 v=0
12694 On ch=2 n=66 v=0
12694 On ch=2 n=59 v=0
12697 On ch=2 n=59 v=80
12697 On ch=2 n=62 v=80
12721 On ch=2 n=47 v=80
12777 On ch=2 n=59 v=0
12777 On ch=2 n=62 v=0
12793 On ch=2 n=59 v=99
12795 On ch=2 n=62 v=96
12796 On ch=2 n=66 v=80
12816 On ch=2 n=47 v=0
12841 On ch=2 n=62 v=0
12841 On ch=2 n=66 v=0
12841 On ch=2 n=62 v=78
12841 On ch=2 n=66 v=60
12863 On ch=2 n=59 v=0
12863 On ch=2 n=62 v=0
12863 On ch=2 n=66 v=0
12865 On ch=2 n=59 v=80
12865 On ch=2 n=62 v=78
12865 On ch=2 n=66 v=60
12889 On ch=2 n=62 v=0
12889 On ch=2 n=66 v=0
12889 On ch=2 n=62 v=72
12889 On ch=2 n=66 v=60
12913 On ch=2 n=59 v=0
12913 On ch=2 n=62 v=0
12913 On ch=2 n=66 v=0
12913 On ch=2 n=59 v=75
12913 On ch=2 n=62 v=70
12913 On ch=2 n=66 v=60
12937 On ch=2 n=62 v=0
12937 On ch=2 n=62 v=70
12961 On ch=2 n=59 v=0
12961 On ch=2 n=66 v=0
12961 On ch=2 n=62 v=0
12961 On ch=2 n=59 v=104
12963 On ch=2 n=57 v=100
12965 On ch=2 n=64 v=100
13031 On ch=2 n=59 v=0
13033 On ch=2 n=57 v=0
13033 On ch=2 n=59 v=80
13033 On ch=2 n=57 v=77
13055 On ch=2 n=64 v=0
13055 On ch=2 n=59 v=0
13055 On ch=2 n=57 v=0
13057 On ch=2 n=59 v=96
13058 On ch=2 n=57 v=90
13059 On ch=2 n=64 v=80
13077 On ch=2 n=59 v=0
13079 On ch=2 n=57 v=0
13081 On ch=2 n=64 v=0
13081 On ch=2 n=59 v=60
13081 On ch=2 n=57 v=60
13081 On ch=2 n=64 v=60
13103 On ch=2 n=59 v=0
13103 On ch=2 n=57 v=0
13103 On ch=2 n=64 v=0
13105 On ch=2 n=59 v=100
13106 On ch=2 n=57 v=90
13107 On ch=2 n=64 v=90
13175 On ch=2 n=57 v=0
13177 On ch=2 n=64 v=0
13177 On ch=2 n=57 v=64
13177 On ch=2 n=64 v=60
13201 On ch=2 n=59 v=0
13201 On ch=2 n=57 v=0
13201 On ch=2 n=64 v=0
13201 On ch=2 n=59 v=80
13201 On ch=2 n=57 v=70
13201 On ch=2 n=64 v=60
13225 On ch=2 n=59 v=0
13225 On ch=2 n=57 v=0
13225 On ch=2 n=64 v=0
13225 On ch=2 n=59 v=60
13225 On ch=2 n=57 v=60
13225 On ch=2 n=64 v=90
13247 On ch=2 n=57 v=0
13249 On ch=2 n=59 v=0
13249 On ch=2 n=59 v=70
13249 On ch=2 n=57 v=64
13273 On ch=2 n=64 v=0
13273 On ch=2 n=59 v=0
13273 On ch=2 n=57 v=0
13273 On ch=2 n=59 v=80
13273 On ch=2 n=57 v=60
13273 On ch=2 n=64 v=60
13295 On ch=2 n=64 v=0
13297 On ch=2 n=59 v=0
13297 On ch=2 n=57 v=0
13297 On ch=2 n=59 v=60
13297 On ch=2 n=57 v=60
13297 On ch=2 n=64 v=60
13342 On ch=2 n=59 v=0
13342 On ch=2 n=57 v=0
13342 On ch=2 n=64 v=0
13345 Par ch=2 c=11 v=86
13345 On ch=2 n=71 v=108
13361 On ch=2 n=66 v=100
13369 On ch=2 n=62 v=100
13377 On ch=2 n=59 v=100
13385 On ch=2 n=45 v=100
13393 On ch=2 n=47 v=100
13409 On ch=2 n=47 v=0
13537 On ch=2 n=47 v=84
13538 On ch=2 n=71 v=0
13554 On ch=2 n=66 v=0
13562 On ch=2 n=62 v=0
13570 On ch=2 n=59 v=0
13578 On ch=2 n=45 v=0
13585 On ch=2 n=47 v=0
13585 On ch=2 n=47 v=80
13633 On ch=2 n=47 v=0
13633 On ch=2 n=47 v=80
13633 On ch=2 n=54 v=80
13655 On ch=2 n=47 v=0
13655 On ch=2 n=54 v=0
13657 On ch=2 n=54 v=88
13657 On ch=2 n=57 v=86
13705 On ch=2 n=54 v=0
13709 On ch=2 n=57 v=0
13729 On ch=2 n=71 v=100
13745 On ch=2 n=66 v=94
13753 On ch=2 n=62 v=92
13761 On ch=2 n=59 v=91
13769 On ch=2 n=45 v=91
13777 On ch=2 n=47 v=92
13793 On ch=2 n=47 v=0
13921 On ch=2 n=54 v=90
13922 On ch=2 n=71 v=0
13925 On ch=2 n=62 v=0
13926 On ch=2 n=62 v=100
13938 On ch=2 n=66 v=0
13962 On ch=2 n=45 v=0
13988 On ch=2 n=54 v=0
13991 On ch=2 n=59 v=0
13991 On ch=2 n=62 v=0
13993 On ch=2 n=54 v=88
13993 On ch=2 n=59 v=60
13993 On ch=2 n=62 v=90
14038 On ch=2 n=54 v=0
14038 On ch=2 n=59 v=0
14038 On ch=2 n=62 v=0
14041 On ch=2 n=57 v=99
14041 On ch=2 n=62 v=60
14041 On ch=2 n=66 v=100
14065 Pb ch=2 v=7936
14070 Pb ch=2 v=7022
14073 Pb ch=2 v=6892
14075 Pb ch=2 v=5852
14076 Pb ch=2 v=4682
14077 Pb ch=2 v=4096
14078 Pb ch=2 v=3512
14079 On ch=2 n=57 v=0
14079 On ch=2 n=62 v=0
14079 On ch=2 n=66 v=0
14113 Pb ch=2 v=8192
14113 On ch=2 n=71 v=96
14115 On ch=2 n=66 v=90
14117 On ch=2 n=62 v=89
14117 On ch=2 n=59 v=89
14117 On ch=2 n=45 v=89
14117 On ch=2 n=47 v=91
14123 On ch=2 n=47 v=0
14185 On ch=2 n=71 v=0
14185 On ch=2 n=66 v=0
14185 On ch=2 n=62 v=0
14185 On ch=2 n=45 v=0
14185 On ch=2 n=54 v=88
14185 On ch=2 n=62 v=88
14209 On ch=2 n=59 v=0
14209 On ch=2 n=54 v=0
14209 On ch=2 n=62 v=0
14209 On ch=2 n=54 v=94
14211 On ch=2 n=59 v=60
14213 On ch=2 n=62 v=100
14278 On ch=2 n=54 v=0
14278 On ch=2 n=59 v=0
14281 On ch=2 n=62 v=0
14281 On ch=2 n=54 v=70
14281 On ch=2 n=59 v=60
14281 On ch=2 n=62 v=70
14329 On ch=2 n=54 v=0
14329 On ch=2 n=59 v=0
14329 On ch=2 n=62 v=0
14329 On ch=2 n=54 v=83
14329 On ch=2 n=59 v=70
14329 On ch=2 n=62 v=83
14377 On ch=2 n=54 v=0
14377 On ch=2 n=59 v=0
14377 On ch=2 n=62 v=0
14377 On ch=2 n=54 v=90
14377 On ch=2 n=59 v=70
14377 On ch=2 n=62 v=90
14401 On ch=2 n=54 v=0
14401 On ch=2 n=59 v=0
14401 On ch=2 n=62 v=0
14401 On ch=2 n=54 v=90
14401 On ch=2 n=59 v=70
14401 On ch=2 n=62 v=90
14407 On ch=2 n=54 v=0
14407 On ch=2 n=59 v=0
14407 On ch=2 n=62 v=0
14425 On ch=2 n=59 v=127
14427 On ch=2 n=59 v=0
14449 On ch=2 n=57 v=64
14494 On ch=2 n=57 v=0
14545 On ch=2 n=59 v=84
14545 On ch=2 n=62 v=80
14545 On ch=2 n=66 v=80
14593 On ch=2 n=59 v=0
14593 On ch=2 n=62 v=0
14593 On ch=2 n=66 v=0
14593 On ch=2 n=59 v=87
14595 On ch=2 n=62 v=83
14596 On ch=2 n=66 v=84
14636 On ch=2 n=59 v=0
14639 On ch=2 n=62 v=0
14641 On ch=2 n=66 v=0
14641 On ch=2 n=59 v=80
14641 On ch=2 n=62 v=70
14641 On ch=2 n=66 v=80
14663 On ch=2 n=59 v=0
14663 On ch=2 n=62 v=0
14663 On ch=2 n=66 v=0
14665 On ch=2 n=59 v=90
14665 On ch=2 n=62 v=82
14665 On ch=2 n=66 v=87
14713 On ch=2 n=59 v=0
14713 On ch=2 n=62 v=0
14713 On ch=2 n=66 v=0
14713 On ch=2 n=59 v=96
14713 On ch=2 n=62 v=86
14713 On ch=2 n=66 v=90
14735 On ch=2 n=59 v=0
14735 On ch=2 n=62 v=0
14735 On ch=2 n=66 v=0
14737 On ch=2 n=59 v=100
14737 On ch=2 n=62 v=86
14737 On ch=2 n=66 v=100
14743 On ch=2 n=59 v=0
14743 On ch=2 n=62 v=0
14743 On ch=2 n=66 v=0
14761 On ch=2 n=59 v=100
14761 On ch=2 n=62 v=86
14761 On ch=2 n=66 v=100
14765 On ch=2 n=59 v=0
14765 On ch=2 n=62 v=0
14765 On ch=2 n=66 v=0
14785 On ch=2 n=59 v=120
14785 On ch=2 n=62 v=110
14785 On ch=2 n=66 v=120
14787 On ch=2 n=59 v=0
14787 On ch=2 n=62 v=0
14787 On ch=2 n=66 v=0
14809 On ch=2 n=59 v=100
14809 On ch=2 n=62 v=80
14809 On ch=2 n=66 v=90
14831 On ch=2 n=62 v=0
14831 On ch=2 n=66 v=0
14833 On ch=2 n=59 v=0
14833 On ch=2 n=57 v=96
14833 On ch=2 n=62 v=120
14833 On ch=2 n=66 v=102
14840 On ch=2 n=62 v=0
14851 On ch=2 n=66 v=0
14855 On ch=2 n=57 v=0
14857 On ch=2 n=59 v=104
14857 On ch=2 n=62 v=120
14857 On ch=2 n=66 v=82
14864 On ch=2 n=62 v=0
14881 On ch=2 n=59 v=0
14881 On ch=2 n=66 v=0
14881 Par ch=2 c=11 v=116
14881 On ch=2 n=57 v=90
14893 On ch=2 n=57 v=0
14905 On ch=2 n=64 v=94
14929 On ch=2 n=69 v=108
14952 On ch=2 n=64 v=0
14953 On ch=2 n=69 v=0
14953 On ch=2 n=66 v=106
14977 On ch=2 n=64 v=72
15022 On ch=2 n=64 v=0
15025 On ch=2 n=64 v=108
15029 On ch=2 n=66 v=0
15049 On ch=2 n=57 v=94
15071 On ch=2 n=57 v=0
15073 On ch=2 n=69 v=80
15095 On ch=2 n=69 v=0
15097 On ch=2 n=63 v=104
15101 On ch=2 n=64 v=0
15121 On ch=2 n=57 v=94
15145 On ch=2 n=57 v=0
15145 On ch=2 n=69 v=84
15167 On ch=2 n=69 v=0
15169 On ch=2 n=61 v=104
15173 On ch=2 n=63 v=0
15193 On ch=2 n=64 v=78
15217 On ch=2 n=69 v=94
15239 On ch=2 n=69 v=0
15240 On ch=2 n=64 v=0
15241 On ch=2 n=64 v=85
15261 On ch=2 n=61 v=0
15263 On ch=2 n=64 v=0
15265 On ch=2 n=62 v=108
15286 Pb ch=2 v=8448
15287 Pb ch=2 v=9362
15289 Pb ch=2 v=10532
15310 On ch=2 n=62 v=0
15313 Pb ch=2 v=8192
15313 On ch=2 n=67 v=104
15335 On ch=2 n=67 v=0
15337 On ch=2 n=62 v=104
15385 On ch=2 n=67 v=98
15407 On ch=2 n=67 v=0
15409 On ch=2 n=62 v=0
15409 On ch=2 n=60 v=102
15433 On ch=2 n=64 v=90
15457 On ch=2 n=67 v=98
15480 On ch=2 n=64 v=0
15481 On ch=2 n=60 v=0
15481 On ch=2 n=67 v=0
15481 On ch=2 n=59 v=100
15505 On ch=2 n=64 v=92
15529 On ch=2 n=67 v=98
15551 On ch=2 n=67 v=0
15553 On ch=2 n=59 v=0
15553 On ch=2 n=64 v=0
15553 On ch=2 n=57 v=99
15577 On ch=2 n=67 v=92
15599 On ch=2 n=67 v=0
15600 On ch=2 n=57 v=0
15601 On ch=2 n=55 v=94
15623 On ch=2 n=55 v=0
15649 On ch=2 n=65 v=87
15673 On ch=2 n=65 v=0
15673 On ch=2 n=69 v=109
15697 On ch=2 n=65 v=103
15713 On ch=2 n=69 v=0
15721 On ch=2 n=52 v=100
15725 On ch=2 n=65 v=0
15745 On ch=2 n=65 v=96
15769 On ch=2 n=60 v=89
15791 On ch=2 n=52 v=0
15791 On ch=2 n=65 v=0
15791 On ch=2 n=60 v=0
15793 On ch=2 n=50 v=99
15817 On ch=2 n=65 v=80
15841 On ch=2 n=60 v=80
15863 On ch=2 n=50 v=0
15863 On ch=2 n=65 v=0
15865 On ch=2 n=60 v=0
15865 On ch=2 n=48 v=98
15889 On ch=2 n=65 v=96
15913 On ch=2 n=60 v=92
15915 On ch=2 n=65 v=0
15935 On ch=2 n=48 v=0
15935 On ch=2 n=60 v=0
15937 On ch=2 n=50 v=100
15961 On ch=2 n=50 v=0
15961 On ch=2 n=65 v=103
15985 On ch=2 n=53 v=104
16009 On ch=2 n=65 v=0
16009 On ch=2 n=53 v=0
16009 On ch=2 n=65 v=103
16015 On ch=2 n=65 v=0
16033 On ch=2 n=46 v=106
16057 On ch=2 n=62 v=87
16081 On ch=2 n=58 v=67
16103 On ch=2 n=62 v=0
16103 On ch=2 n=58 v=0
16104 On ch=2 n=46 v=0
16105 On ch=2 n=45 v=104
16129 On ch=2 n=62 v=100
16153 On ch=2 n=58 v=67
16161 On ch=2 n=58 v=0
16175 On ch=2 n=62 v=0
16176 On ch=2 n=45 v=0
16177 On ch=2 n=46 v=106
16201 On ch=2 n=62 v=80
16225 On ch=2 n=58 v=81
16233 On ch=2 n=58 v=0
16247 On ch=2 n=62 v=0
16248 On ch=2 n=46 v=0
16249 On ch=2 n=48 v=106
16271 On ch=2 n=48 v=0
16273 On ch=2 n=62 v=85
16297 On ch=2 n=62 v=0
16297 On ch=2 n=48 v=98
16319 On ch=2 n=48 v=0
16321 Pb ch=2 v=8192
16321 On ch=2 n=48 v=100
16345 Pb ch=2 v=8448
16346 Pb ch=2 v=9362
16347 Pb ch=2 v=9472
16348 Pb ch=2 v=10532
16368 On ch=2 n=48 v=0
16369 Pb ch=2 v=8192
16369 On ch=2 n=65 v=103
16381 On ch=2 n=65 v=0
16417 On ch=2 n=44 v=110
16441 On ch=2 n=60 v=86
16465 On ch=2 n=56 v=81
16487 On ch=2 n=44 v=0
16487 On ch=2 n=56 v=0
16489 On ch=2 n=60 v=0
16489 On ch=2 n=43 v=107
16513 On ch=2 n=60 v=87
16537 On ch=2 n=56 v=80
16559 On ch=2 n=43 v=0
16561 On ch=2 n=60 v=0
16561 On ch=2 n=56 v=0
16561 On ch=2 n=44 v=108
16585 On ch=2 n=60 v=78
16609 On ch=2 n=56 v=70
16631 On ch=2 n=44 v=0
16633 On ch=2 n=60 v=0
16633 On ch=2 n=56 v=0
16633 On ch=2 n=46 v=107
16657 On ch=2 n=60 v=80
16681 On ch=2 n=46 v=0
16681 On ch=2 n=60 v=0
16681 On ch=2 n=46 v=104
16681 On ch=2 n=56 v=96
16705 On ch=2 n=46 v=0
16705 On ch=2 n=56 v=0
16705 On ch=2 n=46 v=108
16729 Pb ch=2 v=8448
16730 Pb ch=2 v=9362
16731 Pb ch=2 v=9472
16732 Pb ch=2 v=10532
16752 On ch=2 n=46 v=0
16753 Pb ch=2 v=8192
16753 On ch=2 n=63 v=103
16767 On ch=2 n=63 v=0
16801 On ch=2 n=41 v=96
16801 On ch=2 n=57 v=82
16801 On ch=2 n=60 v=76
16801 On ch=2 n=65 v=84
16841 On ch=2 n=57 v=0
16849 On ch=2 n=41 v=0
16849 On ch=2 n=41 v=84
16871 On ch=2 n=60 v=0
16871 On ch=2 n=65 v=0
16873 On ch=2 n=60 v=74
16873 On ch=2 n=65 v=78
16874 On ch=2 n=60 v=0
16875 On ch=2 n=65 v=0
16897 On ch=2 n=41 v=0
16897 On ch=2 n=45 v=90
16897 On ch=2 n=57 v=88
16897 On ch=2 n=60 v=88
16897 On ch=2 n=65 v=88
16921 On ch=2 n=45 v=0
16921 On ch=2 n=57 v=0
16921 On ch=2 n=60 v=0
16921 On ch=2 n=65 v=0
16921 On ch=2 n=45 v=96
16921 On ch=2 n=57 v=94
16921 On ch=2 n=60 v=94
16921 On ch=2 n=65 v=96
16945 On ch=2 n=60 v=0
16945 On ch=2 n=65 v=0
16945 On ch=2 n=60 v=96
16945 On ch=2 n=65 v=96
16947 On ch=2 n=60 v=0
16947 On ch=2 n=65 v=0
16969 On ch=2 n=45 v=0
16969 On ch=2 n=57 v=0
16969 On ch=2 n=48 v=80
16969 On ch=2 n=57 v=99
16969 On ch=2 n=60 v=96
16969 On ch=2 n=65 v=106
17017 On ch=2 n=57 v=0
17017 On ch=2 n=60 v=0
17017 On ch=2 n=65 v=0
17017 On ch=2 n=57 v=97
17017 On ch=2 n=60 v=94
17017 On ch=2 n=65 v=102
17039 On ch=2 n=57 v=0
17039 On ch=2 n=60 v=0
17039 On ch=2 n=65 v=0
17041 On ch=2 n=48 v=0
17041 On ch=2 n=57 v=88
17041 On ch=2 n=60 v=77
17041 On ch=2 n=65 v=77
17065 On ch=2 n=57 v=0
17065 On ch=2 n=60 v=0
17065 On ch=2 n=65 v=0
17065 On ch=2 n=57 v=82
17065 On ch=2 n=60 v=74
17065 On ch=2 n=65 v=68
17081 On ch=2 n=57 v=0
17081 On ch=2 n=60 v=0
17081 On ch=2 n=65 v=0
17089 On ch=2 n=57 v=92
17089 On ch=2 n=60 v=90
17089 On ch=2 n=65 v=114
17097 On ch=2 n=57 v=0
17097 On ch=2 n=60 v=0
17099 On ch=2 n=65 v=0
17137 On ch=2 n=68 v=108
17161 On ch=2 n=64 v=94
17185 On ch=2 n=68 v=0
17185 On ch=2 n=69 v=108
17208 On ch=2 n=64 v=0
17209 On ch=2 n=69 v=0
17209 On ch=2 n=66 v=106
17233 On ch=2 n=64 v=72
17257 On ch=2 n=64 v=0
17257 On ch=2 n=64 v=70
17279 On ch=2 n=64 v=0
17281 On ch=2 n=66 v=0
17281 On ch=2 n=64 v=105
17329 On ch=2 n=69 v=80
17351 On ch=2 n=69 v=0
17353 On ch=2 n=63 v=104
17358 On ch=2 n=64 v=0
17377 On ch=2 n=57 v=94
17401 On ch=2 n=57 v=0
17401 On ch=2 n=69 v=95
17423 On ch=2 n=69 v=0
17425 On ch=2 n=61 v=104
17429 On ch=2 n=63 v=0
17449 On ch=2 n=64 v=84
17473 On ch=2 n=69 v=99
17495 On ch=2 n=69 v=0
17496 On ch=2 n=64 v=0
17497 On ch=2 n=64 v=92
17517 On ch=2 n=61 v=0
17519 On ch=2 n=64 v=0
17521 On ch=2 n=62 v=108
17542 Pb ch=2 v=8448
17543 Pb ch=2 v=9362
17545 Pb ch=2 v=10532
17566 On ch=2 n=62 v=0
17569 Pb ch=2 v=8192
17569 On ch=2 n=67 v=107
17591 On ch=2 n=67 v=0
17593 On ch=2 n=62 v=102
17615 On ch=2 n=62 v=0
17617 On ch=2 n=64 v=92
17641 On ch=2 n=67 v=80
17665 On ch=2 n=64 v=0
17665 On ch=2 n=67 v=0
17665 On ch=2 n=60 v=102
17689 On ch=2 n=64 v=90
17713 On ch=2 n=67 v=98
17736 On ch=2 n=64 v=0
17737 On ch=2 n=60 v=0
17737 On ch=2 n=67 v=0
17737 On ch=2 n=59 v=100
17761 On ch=2 n=64 v=92
17785 On ch=2 n=67 v=98
17807 On ch=2 n=67 v=0
17809 On ch=2 n=59 v=0
17809 On ch=2 n=64 v=0
17809 On ch=2 n=57 v=99
17833 On ch=2 n=67 v=92
17855 On ch=2 n=67 v=0
17856 On ch=2 n=57 v=0
17857 On ch=2 n=55 v=94
17879 On ch=2 n=55 v=0
17905 On ch=2 n=65 v=60
17929 On ch=2 n=65 v=0
17929 On ch=2 n=69 v=112
17953 On ch=2 n=65 v=107
17969 On ch=2 n=69 v=0
17977 On ch=2 n=52 v=100
17981 On ch=2 n=65 v=0
18001 On ch=2 n=65 v=102
18025 On ch=2 n=60 v=89
18047 On ch=2 n=52 v=0
18047 On ch=2 n=65 v=0
18047 On ch=2 n=60 v=0
18049 On ch=2 n=50 v=99
18073 On ch=2 n=65 v=80
18097 On ch=2 n=60 v=80
18119 On ch=2 n=50 v=0
18119 On ch=2 n=65 v=0
18121 On ch=2 n=60 v=0
18121 On ch=2 n=48 v=98
18145 On ch=2 n=65 v=96
18169 On ch=2 n=60 v=92
18171 On ch=2 n=65 v=0
18191 On ch=2 n=48 v=0
18191 On ch=2 n=60 v=0
18193 On ch=2 n=50 v=100
18217 On ch=2 n=50 v=0
18217 On ch=2 n=65 v=103
18241 On ch=2 n=53 v=104
18265 On ch=2 n=65 v=0
18265 On ch=2 n=53 v=0
18265 On ch=2 n=65 v=103
18271 On ch=2 n=65 v=0
18289 On ch=2 n=46 v=106
18313 On ch=2 n=62 v=87
18337 On ch=2 n=58 v=67
18359 On ch=2 n=62 v=0
18359 On ch=2 n=58 v=0
18360 On ch=2 n=46 v=0
18361 On ch=2 n=45 v=104
18385 On ch=2 n=62 v=100
18409 On ch=2 n=58 v=67
18417 On ch=2 n=58 v=0
18431 On ch=2 n=62 v=0
18432 On ch=2 n=45 v=0
18433 On ch=2 n=46 v=106
18457 On ch=2 n=62 v=80
18481 On ch=2 n=58 v=81
18489 On ch=2 n=58 v=0
18503 On ch=2 n=62 v=0
18504 On ch=2 n=46 v=0
18505 On ch=2 n=48 v=106
18527 On ch=2 n=48 v=0
18529 On ch=2 n=62 v=85
18553 On ch=2 n=62 v=0
18553 On ch=2 n=48 v=98
18575 On ch=2 n=48 v=0
18577 Pb ch=2 v=8192
18577 On ch=2 n=48 v=100
18601 Pb ch=2 v=8448
18602 Pb ch=2 v=9362
18603 Pb ch=2 v=9472
18604 Pb ch=2 v=10532
18624 On ch=2 n=48 v=0
18625 Pb ch=2 v=8192
18625 On ch=2 n=65 v=103
18637 On ch=2 n=65 v=0
18673 On ch=2 n=44 v=110
18697 On ch=2 n=60 v=92
18721 On ch=2 n=60 v=0
18721 On ch=2 n=56 v=84
18743 On ch=2 n=44 v=0
18743 On ch=2 n=56 v=0
18745 On ch=2 n=43 v=107
18769 On ch=2 n=60 v=87
18793 On ch=2 n=56 v=80
18815 On ch=2 n=43 v=0
18817 On ch=2 n=60 v=0
18817 On ch=2 n=56 v=0
18817 On ch=2 n=44 v=108
18841 On ch=2 n=60 v=78
18865 On ch=2 n=56 v=70
18887 On ch=2 n=44 v=0
18889 On ch=2 n=60 v=0
18889 On ch=2 n=56 v=0
18889 On ch=2 n=46 v=107
18913 On ch=2 n=60 v=80
18937 On ch=2 n=46 v=0
18937 On ch=2 n=60 v=0
18937 On ch=2 n=46 v=104
18937 On ch=2 n=56 v=96
18961 On ch=2 n=46 v=0
18961 On ch=2 n=56 v=0
18961 On ch=2 n=46 v=108
18985 Pb ch=2 v=8448
18986 Pb ch=2 v=9362
18987 Pb ch=2 v=9472
18988 Pb ch=2 v=10532
19008 On ch=2 n=46 v=0
19009 Pb ch=2 v=8192
19009 On ch=2 n=63 v=103
19023 On ch=2 n=63 v=0
19057 On ch=2 n=41 v=96
19057 On ch=2 n=57 v=82
19057 On ch=2 n=60 v=76
19057 On ch=2 n=65 v=84
19097 On ch=2 n=57 v=0
19105 On ch=2 n=41 v=0
19105 On ch=2 n=41 v=84
19127 On ch=2 n=60 v=0
19127 On ch=2 n=65 v=0
19129 On ch=2 n=60 v=74
19129 On ch=2 n=65 v=78
19130 On ch=2 n=60 v=0
19131 On ch=2 n=65 v=0
19153 On ch=2 n=41 v=0
19153 On ch=2 n=45 v=90
19153 On ch=2 n=57 v=88
19153 On ch=2 n=60 v=88
19153 On ch=2 n=65 v=88
19177 On ch=2 n=45 v=0
19177 On ch=2 n=57 v=0
19177 On ch=2 n=60 v=0
19177 On ch=2 n=65 v=0
19177 On ch=2 n=45 v=96
19177 On ch=2 n=57 v=94
19177 On ch=2 n=60 v=106
19177 On ch=2 n=65 v=110
19225 On ch=2 n=45 v=0
19225 On ch=2 n=57 v=0
19225 On ch=2 n=60 v=0
19225 On ch=2 n=65 v=0
19225 On ch=2 n=48 v=80
19225 On ch=2 n=57 v=99
19225 On ch=2 n=60 v=110
19225 On ch=2 n=65 v=114
19273 On ch=2 n=57 v=0
19273 On ch=2 n=60 v=0
19273 On ch=2 n=65 v=0
19273 On ch=2 n=57 v=97
19273 On ch=2 n=60 v=94
19297 On ch=2 n=48 v=0
19297 On ch=2 n=57 v=0
19297 On ch=2 n=60 v=0
19297 On ch=2 n=57 v=88
19297 On ch=2 n=60 v=77
19321 On ch=2 n=57 v=0
19321 On ch=2 n=60 v=0
19321 On ch=2 n=57 v=82
19321 On ch=2 n=60 v=74
19337 On ch=2 n=57 v=0
19337 On ch=2 n=60 v=0
19345 On ch=2 n=57 v=98
19345 On ch=2 n=60 v=95
19345 On ch=2 n=65 v=124
19353 On ch=2 n=57 v=0
19353 On ch=2 n=60 v=0
19355 On ch=2 n=65 v=0
19393 Par ch=2 c=11 v=80
19393 On ch=2 n=55 v=90
19393 On ch=2 n=71 v=90
19485 On ch=2 n=55 v=0
19485 On ch=2 n=71 v=0
19825 Par ch=2 c=10 v=125
19825 PrCh ch=2 p=30
19825 Par ch=2 c=11 v=102
19825 On ch=2 n=56 v=108
19827 On ch=2 n=59 v=104
19828 On ch=2 n=64 v=120
19921 On ch=2 n=56 v=0
19921 On ch=2 n=59 v=0
19921 On ch=2 n=64 v=0
19921 On ch=2 n=57 v=108
19922 On ch=2 n=61 v=104
19923 On ch=2 n=64 v=120
20017 Par ch=2 c=11 v=127
20017 On ch=2 n=68 v=120
20033 On ch=2 n=57 v=0
20033 On ch=2 n=61 v=0
20035 On ch=2 n=64 v=0
20041 On ch=2 n=64 v=94
20065 On ch=2 n=68 v=0
20065 On ch=2 n=69 v=118
20089 On ch=2 n=69 v=0
20089 On ch=2 n=66 v=108
20113 On ch=2 n=64 v=0
20113 On ch=2 n=64 v=96
20137 On ch=2 n=66 v=0
20137 On ch=2 n=69 v=118
20161 On ch=2 n=64 v=0
20161 On ch=2 n=69 v=0
20161 On ch=2 n=64 v=108
20209 On ch=2 n=69 v=120
20233 On ch=2 n=64 v=0
20233 On ch=2 n=63 v=114
20234 On ch=2 n=69 v=0
20281 On ch=2 n=63 v=0
20281 On ch=2 n=69 v=104
20305 On ch=2 n=68 v=120
20329 On ch=2 n=69 v=0
20329 On ch=2 n=64 v=108
20353 On ch=2 n=68 v=0
20353 On ch=2 n=69 v=118
20377 On ch=2 n=64 v=0
20377 On ch=2 n=69 v=0
20377 On ch=2 n=66 v=108
20401 On ch=2 n=64 v=104
20425 On ch=2 n=66 v=0
20425 On ch=2 n=64 v=0
20425 On ch=2 n=64 v=96
20425 On ch=2 n=69 v=118
20449 On ch=2 n=64 v=0
20449 On ch=2 n=69 v=0
20449 On ch=2 n=64 v=108
20497 On ch=2 n=69 v=120
20521 On ch=2 n=64 v=0
20521 On ch=2 n=63 v=114
20522 On ch=2 n=69 v=0
20545 On ch=2 n=64 v=88
20567 On ch=2 n=64 v=0
20569 On ch=2 n=63 v=0
20569 On ch=2 n=69 v=114
20593 Pb ch=2 v=8192
20593 On ch=2 n=59 v=108
20615 On ch=2 n=69 v=0
20616 Pb ch=2 v=10532
20640 Pb ch=2 v=9362
20641 On ch=2 n=59 v=0
20641 Pb ch=2 v=8192
20641 On ch=2 n=59 v=106
20665 Pb ch=2 v=8192
20674 Pb ch=2 v=7022
20675 Pb ch=2 v=5852
20676 Pb ch=2 v=4672
20677 Pb ch=2 v=3492
20678 Pb ch=2 v=2317
20679 Pb ch=2 v=256
20681 On ch=2 n=59 v=0
20689 Pb ch=2 v=8192
20689 Par ch=2 c=11 v=110
20689 On ch=2 n=56 v=108
20690 On ch=2 n=59 v=104
20691 On ch=2 n=64 v=120
20779 On ch=2 n=56 v=0
20780 On ch=2 n=59 v=0
20781 On ch=2 n=64 v=0
20785 On ch=2 n=57 v=108
20786 On ch=2 n=59 v=104
20787 On ch=2 n=64 v=120
20881 Par ch=2 c=11 v=127
20881 On ch=2 n=68 v=120
20882 On ch=2 n=57 v=0
20883 On ch=2 n=59 v=0
20884 On ch=2 n=64 v=0
20905 On ch=2 n=64 v=108
20929 On ch=2 n=68 v=0
20929 On ch=2 n=69 v=118
20953 On ch=2 n=64 v=0
20953 On ch=2 n=69 v=0
20953 On ch=2 n=66 v=108
20977 On ch=2 n=64 v=104
21001 On ch=2 n=66 v=0
21001 On ch=2 n=64 v=0
21001 On ch=2 n=64 v=96
21001 On ch=2 n=69 v=118
21025 On ch=2 n=64 v=0
21025 On ch=2 n=69 v=0
21025 On ch=2 n=64 v=108
21073 On ch=2 n=69 v=120
21097 On ch=2 n=64 v=0
21097 On ch=2 n=63 v=114
21098 On ch=2 n=69 v=0
21121 On ch=2 n=64 v=94
21143 On ch=2 n=64 v=0
21145 On ch=2 n=63 v=0
21145 On ch=2 n=69 v=104
21170 On ch=2 n=68 v=120
21193 On ch=2 n=69 v=0
21193 On ch=2 n=64 v=108
21217 On ch=2 n=64 v=0
21217 On ch=2 n=64 v=96
21217 On ch=2 n=69 v=118
21218 On ch=2 n=68 v=0
21241 On ch=2 n=64 v=0
21241 On ch=2 n=69 v=0
21241 On ch=2 n=66 v=108
21265 On ch=2 n=64 v=104
21289 On ch=2 n=66 v=0
21289 On ch=2 n=64 v=0
21289 On ch=2 n=64 v=96
21289 On ch=2 n=69 v=118
21313 On ch=2 n=64 v=0
21313 On ch=2 n=69 v=0
21313 On ch=2 n=64 v=108
21361 On ch=2 n=69 v=120
21385 On ch=2 n=64 v=0
21385 On ch=2 n=63 v=114
21386 On ch=2 n=69 v=0
21409 On ch=2 n=64 v=94
21431 On ch=2 n=64 v=0
21433 On ch=2 n=63 v=0
21433 On ch=2 n=69 v=108
21457 Pb ch=2 v=8192
21457 On ch=2 n=59 v=107
21480 Pb ch=2 v=9362
21481 On ch=2 n=69 v=0
21481 Pb ch=2 v=10533
21505 On ch=2 n=59 v=0
21505 Pb ch=2 v=9362
21506 Pb ch=2 v=8192
21506 On ch=2 n=59 v=106
21530 Pb ch=2 v=8192
21539 Pb ch=2 v=7022
21541 Pb ch=2 v=5852
21542 Pb ch=2 v=4672
21543 Pb ch=2 v=3492
21544 Pb ch=2 v=2317
21545 Pb ch=2 v=256
21548 On ch=2 n=59 v=0
21553 Pb ch=2 v=8192
21553 Par ch=2 c=11 v=110
21553 On ch=2 n=56 v=108
21554 On ch=2 n=59 v=104
21555 On ch=2 n=64 v=120
21643 On ch=2 n=56 v=0
21644 On ch=2 n=59 v=0
21645 On ch=2 n=64 v=0
21649 On ch=2 n=57 v=108
21650 On ch=2 n=59 v=104
21651 On ch=2 n=64 v=120
21745 Par ch=2 c=11 v=64
21745 On ch=2 n=61 v=111
21746 On ch=2 n=57 v=0
21747 On ch=2 n=59 v=0
21748 On ch=2 n=64 v=0
21769 On ch=2 n=59 v=108
21793 On ch=2 n=52 v=111
21794 On ch=2 n=59 v=0
21817 On ch=2 n=61 v=0
21817 On ch=2 n=59 v=111
21841 On ch=2 n=57 v=106
21860 On ch=2 n=59 v=0
21863 On ch=2 n=52 v=0
21865 On ch=2 n=59 v=100
21881 On ch=2 n=57 v=0
21889 On ch=2 n=57 v=111
21905 On ch=2 n=59 v=0
21913 On ch=2 n=52 v=100
21937 On ch=2 n=49 v=98
21953 On ch=2 n=52 v=0
21961 On ch=2 n=57 v=0
21961 On ch=2 n=52 v=96
21977 On ch=2 n=49 v=0
21985 On ch=2 n=61 v=111
22001 On ch=2 n=52 v=0
22009 On ch=2 n=59 v=108
22033 On ch=2 n=52 v=100
22034 On ch=2 n=59 v=0
22057 On ch=2 n=61 v=0
22057 On ch=2 n=59 v=107
22081 On ch=2 n=57 v=102
22103 On ch=2 n=52 v=0
22105 On ch=2 n=52 v=96
22124 On ch=2 n=57 v=0
22129 On ch=2 n=59 v=0
22129 On ch=2 n=59 v=106
22145 On ch=2 n=52 v=0
22153 On ch=2 n=52 v=96
22177 On ch=2 n=59 v=0
22177 Par ch=2 c=11 v=100
22177 Pb ch=2 v=7022
22177 On ch=2 n=47 v=111
22181 Pb ch=2 v=8192
22201 On ch=2 n=52 v=0
22204 Pb ch=2 v=7022
22210 Pb ch=2 v=5852
22213 Pb ch=2 v=4682
22216 Pb ch=2 v=4096
22218 Pb ch=2 v=2922
22219 Pb ch=2 v=1752
22221 On ch=2 n=47 v=0
22224 Pb ch=2 v=8192
22225 Par ch=2 c=11 v=110
22225 On ch=2 n=40 v=100
22270 On ch=2 n=40 v=0
22273 On ch=2 n=40 v=98
22318 On ch=2 n=40 v=0
22321 On ch=2 n=52 v=100
22321 On ch=2 n=56 v=100
22321 On ch=2 n=59 v=105
22323 On ch=2 n=56 v=0
22324 On ch=2 n=52 v=0
22325 On ch=2 n=59 v=0
22345 On ch=2 n=52 v=105
22346 On ch=2 n=56 v=96
22347 On ch=2 n=59 v=109
22347 On ch=2 n=64 v=116
22387 On ch=2 n=52 v=0
22387 On ch=2 n=56 v=0
22387 On ch=2 n=59 v=0
22389 On ch=2 n=64 v=0
22393 On ch=2 n=56 v=103
22393 On ch=2 n=59 v=100
22393 On ch=2 n=64 v=105
22395 On ch=2 n=59 v=0
22396 On ch=2 n=56 v=0
22397 On ch=2 n=64 v=0
22417 On ch=2 n=56 v=100
22417 On ch=2 n=59 v=102
22417 On ch=2 n=64 v=105
22439 On ch=2 n=56 v=0
22439 On ch=2 n=59 v=0
22439 On ch=2 n=64 v=0
22441 On ch=2 n=56 v=105
22441 On ch=2 n=59 v=105
22441 On ch=2 n=64 v=105
22442 On ch=2 n=59 v=0
22443 On ch=2 n=56 v=0
22443 On ch=2 n=64 v=0
22465 On ch=2 n=56 v=96
22465 On ch=2 n=59 v=94
22465 On ch=2 n=64 v=98
22466 On ch=2 n=56 v=0
22467 On ch=2 n=59 v=0
22467 On ch=2 n=64 v=0
22513 On ch=2 n=56 v=104
22513 On ch=2 n=59 v=103
22513 On ch=2 n=64 v=110
22585 On ch=2 n=56 v=0
22585 On ch=2 n=59 v=0
22585 On ch=2 n=64 v=0
22609 Par ch=2 c=11 v=110
22609 On ch=2 n=56 v=108
22610 On ch=2 n=59 v=104
22611 On ch=2 n=64 v=120
22699 On ch=2 n=56 v=0
22700 On ch=2 n=59 v=0
22701 On ch=2 n=64 v=0
22705 On ch=2 n=57 v=108
22706 On ch=2 n=59 v=104
22707 On ch=2 n=64 v=120
22801 Par ch=2 c=11 v=108
22801 On ch=2 n=73 v=120
22802 On ch=2 n=57 v=0
22803 On ch=2 n=59 v=0
22804 On ch=2 n=64 v=0
22824 On ch=2 n=73 v=0
22825 On ch=2 n=59 v=93
22872 On ch=2 n=59 v=0
22873 On ch=2 n=71 v=114
22897 On ch=2 n=59 v=98
22921 On ch=2 n=56 v=71
22930 On ch=2 n=56 v=0
22939 On ch=2 n=59 v=0
22941 On ch=2 n=71 v=0
22945 On ch=2 n=68 v=98
22969 On ch=2 n=61 v=80
22993 On ch=2 n=68 v=0
22993 On ch=2 n=61 v=0
22993 On ch=2 n=57 v=80
23017 On ch=2 n=66 v=90
23041 On ch=2 n=57 v=0
23065 Par ch=2 c=1 v=24
23133 On ch=2 n=66 v=0
23137 Par ch=2 c=1 v=0
23137 On ch=2 n=57 v=84
23159 On ch=2 n=57 v=0
23161 On ch=2 n=61 v=80
23185 Par ch=2 c=1 v=24
23208 On ch=2 n=61 v=0
23209 Par ch=2 c=1 v=0
23209 On ch=2 n=66 v=99
23252 Pb ch=2 v=4642
23253 Pb ch=2 v=2342
23254 On ch=2 n=66 v=0
23254 Pb ch=2 v=8192
23257 On ch=2 n=56 v=98
23257 On ch=2 n=59 v=97
23257 On ch=2 n=64 v=104
23279 On ch=2 n=56 v=0
23279 On ch=2 n=59 v=0
23279 On ch=2 n=64 v=0
23281 On ch=2 n=56 v=110
23281 On ch=2 n=59 v=105
23281 On ch=2 n=64 v=115
23284 On ch=2 n=59 v=0
23285 On ch=2 n=56 v=0
23285 On ch=2 n=64 v=0
23305 On ch=2 n=56 v=102
23305 On ch=2 n=59 v=100
23305 On ch=2 n=64 v=106
23327 On ch=2 n=56 v=0
23327 On ch=2 n=59 v=0
23327 On ch=2 n=64 v=0
23329 On ch=2 n=40 v=80
23329 On ch=2 n=56 v=99
23329 On ch=2 n=59 v=99
23329 On ch=2 n=64 v=99
23332 On ch=2 n=56 v=0
23332 On ch=2 n=59 v=0
23332 On ch=2 n=64 v=0
23353 On ch=2 n=40 v=0
23353 On ch=2 n=40 v=80
23377 On ch=2 n=56 v=99
23377 On ch=2 n=59 v=98
23377 On ch=2 n=64 v=103
23401 On ch=2 n=40 v=0
23445 On ch=2 n=56 v=0
23445 On ch=2 n=59 v=0
23445 On ch=2 n=64 v=0
23449 On ch=2 n=56 v=103
23449 On ch=2 n=59 v=103
23449 On ch=2 n=64 v=110
23521 On ch=2 n=40 v=80
23543 On ch=2 n=56 v=0
23543 On ch=2 n=59 v=0
23543 On ch=2 n=64 v=0
23545 On ch=2 n=40 v=0
23545 On ch=2 n=40 v=80
23569 On ch=2 n=40 v=0
23569 On ch=2 n=57 v=103
23569 On ch=2 n=59 v=90
23569 On ch=2 n=64 v=106
23593 On ch=2 n=57 v=0
23593 On ch=2 n=59 v=0
23593 On ch=2 n=64 v=0
23593 On ch=2 n=40 v=80
23593 On ch=2 n=56 v=102
23593 On ch=2 n=59 v=99
23593 On ch=2 n=64 v=104
23661 On ch=2 n=40 v=0
23661 On ch=2 n=56 v=0
23661 On ch=2 n=59 v=0
23661 On ch=2 n=64 v=0
23665 Par ch=2 c=11 v=106
23665 On ch=2 n=56 v=108
23666 On ch=2 n=59 v=104
23667 On ch=2 n=64 v=120
23755 On ch=2 n=56 v=0
23756 On ch=2 n=59 v=0
23757 On ch=2 n=64 v=0
23761 On ch=2 n=57 v=108
23762 On ch=2 n=61 v=104
23763 On ch=2 n=64 v=120
23857 Par ch=2 c=11 v=80
23859 On ch=2 n=64 v=0
23859 On ch=2 n=64 v=96
23903 On ch=2 n=57 v=0
23904 On ch=2 n=61 v=0
23905 On ch=2 n=64 v=0
23905 On ch=2 n=57 v=103
23906 On ch=2 n=59 v=102
23907 On ch=2 n=64 v=105
23977 On ch=2 n=64 v=0
23977 On ch=2 n=64 v=100
23997 On ch=2 n=64 v=0
24001 On ch=2 n=57 v=0
24001 On ch=2 n=59 v=0
24001 On ch=2 n=57 v=101
24001 On ch=2 n=61 v=105
24049 On ch=2 n=61 v=0
24049 Par ch=2 c=11 v=80
24049 On ch=2 n=61 v=98
24333 On ch=2 n=57 v=0
24333 On ch=2 n=61 v=0
24337 Par ch=2 c=11 v=100
24337 On ch=2 n=40 v=98
24429 On ch=2 n=40 v=0
24433 On ch=2 n=64 v=104
24435 On ch=2 n=68 v=102
24436 On ch=2 n=71 v=110
24504 On ch=2 n=64 v=0
24504 On ch=2 n=68 v=0
24504 On ch=2 n=71 v=0
24505 On ch=2 n=64 v=99
24505 On ch=2 n=68 v=98
24505 On ch=2 n=71 v=103
24523 On ch=2 n=64 v=0
24523 On ch=2 n=68 v=0
24523 On ch=2 n=71 v=0
24529 Par ch=2 c=11 v=120
24529 Pb ch=2 v=5852
24529 On ch=2 n=57 v=105
24529 On ch=2 n=60 v=66
24553 Pb ch=2 v=6092
24554 Pb ch=2 v=7022
24557 Pb ch=2 v=7092
24558 Pb ch=2 v=7936
24559 Pb ch=2 v=8192
24577 On ch=2 n=57 v=0
24577 On ch=2 n=60 v=0
24577 On ch=2 n=57 v=92
24577 On ch=2 n=60 v=72
24625 On ch=2 n=57 v=0
24625 On ch=2 n=60 v=0
24625 On ch=2 n=60 v=90
24625 On ch=2 n=66 v=64
24670 On ch=2 n=60 v=0
24673 On ch=2 n=57 v=100
24721 On ch=2 n=66 v=0
24721 On ch=2 n=57 v=0
24721 On ch=2 n=57 v=100
24721 On ch=2 n=60 v=60
24742 Pb ch=2 v=8417
24743 Pb ch=2 v=8192
24743 Pb ch=2 v=7168
24744 Pb ch=2 v=7022
24748 Pb ch=2 v=5842
24801 On ch=2 n=60 v=0
24816 On ch=2 n=57 v=0
24817 Pb ch=2 v=8192
24817 On ch=2 n=58 v=100
24817 On ch=2 n=60 v=84
24817 On ch=2 n=64 v=84
24865 On ch=2 n=58 v=0
24865 On ch=2 n=60 v=0
24865 On ch=2 n=64 v=0
24865 On ch=2 n=60 v=77
24865 On ch=2 n=64 v=77
24865 On ch=2 n=55 v=100
24887 On ch=2 n=64 v=0
24889 On ch=2 n=64 v=72
24909 On ch=2 n=60 v=0
24910 On ch=2 n=64 v=0
24913 On ch=2 n=55 v=0
24913 Pb ch=2 v=7022
24913 On ch=2 n=62 v=100
24913 On ch=2 n=66 v=100
24925 Pb ch=2 v=7936
24926 Pb ch=2 v=8192
24937 On ch=2 n=62 v=0
24937 On ch=2 n=66 v=0
24961 On ch=2 n=60 v=100
24961 On ch=2 n=64 v=100
24985 On ch=2 n=60 v=0
24985 On ch=2 n=64 v=0
25009 Pb ch=2 v=7022
25009 On ch=2 n=59 v=100
25009 On ch=2 n=62 v=100
25033 Pb ch=2 v=7192
25035 Pb ch=2 v=7936
25036 Pb ch=2 v=8192
25056 On ch=2 n=59 v=0
25056 On ch=2 n=62 v=0
25057 On ch=2 n=55 v=100
25057 On ch=2 n=59 v=100
25105 Pb ch=2 v=8064
25107 Pb ch=2 v=7022
25111 Pb ch=2 v=5992
25112 Pb ch=2 v=5842
25114 Pb ch=2 v=4752
25115 Pb ch=2 v=4672
25116 Pb ch=2 v=3692
25117 On ch=2 n=55 v=0
25117 On ch=2 n=59 v=0
25117 Pb ch=2 v=3502
25297 Pb ch=2 v=8192
25297 Par ch=2 c=11 v=80
25297 On ch=2 n=52 v=88
25297 On ch=2 n=57 v=90
25297 On ch=2 n=64 v=110
25369 On ch=2 n=52 v=0
25369 On ch=2 n=57 v=0
25369 On ch=2 n=64 v=0
25369 On ch=2 n=52 v=110
25369 On ch=2 n=57 v=88
25369 On ch=2 n=64 v=88
25391 On ch=2 n=57 v=0
25391 On ch=2 n=64 v=0
25393 On ch=2 n=57 v=92
25393 On ch=2 n=64 v=102
25393 On ch=2 n=69 v=104
25441 On ch=2 n=52 v=0
25489 On ch=2 n=52 v=86
25489 On ch=2 n=61 v=84
25503 On ch=2 n=64 v=0
25503 On ch=2 n=69 v=0
25585 On ch=2 n=57 v=0
25585 On ch=2 n=52 v=0
25585 On ch=2 n=61 v=0
25585 On ch=2 n=52 v=82
25585 On ch=2 n=57 v=80
25585 On ch=2 n=61 v=80
25777 On ch=2 n=52 v=0
25777 On ch=2 n=57 v=0
25777 On ch=2 n=61 v=0
25777 On ch=2 n=54 v=76
25777 On ch=2 n=57 v=74
25873 On ch=2 n=54 v=0
25873 On ch=2 n=57 v=0
25873 Par ch=2 c=11 v=90
25873 On ch=2 n=52 v=52
25873 On ch=2 n=59 v=86
25873 On ch=2 n=61 v=86
25897 On ch=2 n=59 v=0
25897 On ch=2 n=59 v=79
25921 On ch=2 n=61 v=0
25921 On ch=2 n=59 v=0
25921 On ch=2 n=59 v=76
25921 On ch=2 n=61 v=76
25966 On ch=2 n=52 v=0
25966 On ch=2 n=59 v=0
25966 On ch=2 n=61 v=0
25969 Par ch=2 c=11 v=100
25969 On ch=2 n=57 v=107
25971 On ch=2 n=61 v=112
25991 On ch=2 n=57 v=0
25992 On ch=2 n=61 v=0
25993 On ch=2 n=56 v=105
25993 On ch=2 n=59 v=114
26016 On ch=2 n=56 v=0
26016 On ch=2 n=59 v=0
26041 On ch=2 n=57 v=107
26041 On ch=2 n=61 v=116
26063 On ch=2 n=57 v=0
26063 On ch=2 n=61 v=0
26089 On ch=2 n=56 v=103
26091 On ch=2 n=59 v=112
26109 On ch=2 n=56 v=0
26110 On ch=2 n=59 v=0
26125 On ch=2 n=52 v=80
26125 On ch=2 n=56 v=80
26170 On ch=2 n=52 v=0
26170 On ch=2 n=56 v=0
32257 Par ch=2 c=11 v=127
32449 On ch=2 n=68 v=108
32473 On ch=2 n=64 v=94
32497 On ch=2 n=68 v=0
32497 On ch=2 n=69 v=108
32521 On ch=2 n=69 v=0
32521 On ch=2 n=66 v=106
32543 On ch=2 n=64 v=0
32545 On ch=2 n=64 v=99
32569 On ch=2 n=69 v=100
32591 On ch=2 n=69 v=0
32592 On ch=2 n=64 v=0
32593 On ch=2 n=66 v=0
32593 On ch=2 n=64 v=105
32641 On ch=2 n=69 v=99
32663 On ch=2 n=69 v=0
32665 On ch=2 n=63 v=104
32670 On ch=2 n=64 v=0
32713 On ch=2 n=69 v=95
32735 On ch=2 n=69 v=0
32737 On ch=2 n=61 v=104
32741 On ch=2 n=63 v=0
32785 On ch=2 n=64 v=90
32807 On ch=2 n=61 v=0
32813 Pb ch=2 v=7022
32815 Pb ch=2 v=5852
32816 On ch=2 n=64 v=0
32816 Pb ch=2 v=8192
32833 On ch=2 n=62 v=100
32854 Pb ch=2 v=8448
32855 Pb ch=2 v=9362
32857 Pb ch=2 v=10532
32878 On ch=2 n=62 v=0
32881 Pb ch=2 v=8192
32881 On ch=2 n=67 v=104
32903 On ch=2 n=67 v=0
32905 On ch=2 n=62 v=100
32950 On ch=2 n=62 v=0
32953 On ch=2 n=67 v=92
32977 On ch=2 n=67 v=0
32977 On ch=2 n=60 v=102
33001 On ch=2 n=64 v=90
33025 On ch=2 n=67 v=98
33048 On ch=2 n=64 v=0
33049 On ch=2 n=60 v=0
33049 On ch=2 n=67 v=0
33049 On ch=2 n=59 v=100
33073 On ch=2 n=64 v=92
33097 On ch=2 n=67 v=98
33119 On ch=2 n=67 v=0
33121 On ch=2 n=59 v=0
33121 On ch=2 n=64 v=0
33121 On ch=2 n=57 v=99
33145 On ch=2 n=67 v=92
33167 On ch=2 n=67 v=0
33168 On ch=2 n=57 v=0
33169 On ch=2 n=55 v=94
33191 On ch=2 n=55 v=0
33217 On ch=2 n=65 v=80
33239 On ch=2 n=65 v=0
33241 On ch=2 n=69 v=112
33265 On ch=2 n=65 v=107
33281 On ch=2 n=69 v=0
33289 On ch=2 n=52 v=100
33293 On ch=2 n=65 v=0
33313 On ch=2 n=65 v=102
33337 On ch=2 n=60 v=89
33359 On ch=2 n=52 v=0
33359 On ch=2 n=65 v=0
33359 On ch=2 n=60 v=0
33361 On ch=2 n=50 v=99
33385 On ch=2 n=65 v=80
33409 On ch=2 n=60 v=80
33431 On ch=2 n=50 v=0
33431 On ch=2 n=65 v=0
33433 On ch=2 n=60 v=0
33433 On ch=2 n=48 v=98
33457 On ch=2 n=65 v=96
33481 On ch=2 n=60 v=92
33483 On ch=2 n=65 v=0
33503 On ch=2 n=48 v=0
33503 On ch=2 n=60 v=0
33505 On ch=2 n=50 v=100
33529 On ch=2 n=50 v=0
33529 On ch=2 n=65 v=99
33553 On ch=2 n=53 v=96
33577 On ch=2 n=65 v=0
33577 On ch=2 n=53 v=0
33577 On ch=2 n=65 v=89
33583 On ch=2 n=65 v=0
33601 On ch=2 n=46 v=106
33625 On ch=2 n=62 v=87
33649 On ch=2 n=58 v=67
33671 On ch=2 n=62 v=0
33671 On ch=2 n=58 v=0
33672 On ch=2 n=46 v=0
33673 On ch=2 n=45 v=104
33697 On ch=2 n=62 v=100
33721 On ch=2 n=58 v=67
33729 On ch=2 n=58 v=0
33743 On ch=2 n=62 v=0
33744 On ch=2 n=45 v=0
33745 On ch=2 n=46 v=106
33769 On ch=2 n=62 v=80
33793 On ch=2 n=58 v=81
33801 On ch=2 n=58 v=0
33815 On ch=2 n=62 v=0
33816 On ch=2 n=46 v=0
33817 On ch=2 n=48 v=94
33841 On ch=2 n=62 v=85
33865 On ch=2 n=62 v=0
33865 On ch=2 n=58 v=80
33887 On ch=2 n=58 v=0
33889 On ch=2 n=48 v=0
33889 Pb ch=2 v=8192
33889 On ch=2 n=48 v=100
33913 Pb ch=2 v=8448
33914 Pb ch=2 v=9362
33915 Pb ch=2 v=9472
33916 Pb ch=2 v=10532
33936 On ch=2 n=48 v=0
33937 Pb ch=2 v=8192
33937 On ch=2 n=65 v=90
33959 On ch=2 n=65 v=0
33985 On ch=2 n=68 v=108
34033 On ch=2 n=68 v=0
34033 On ch=2 n=69 v=108
34057 On ch=2 n=69 v=0
34057 On ch=2 n=66 v=106
34081 On ch=2 n=64 v=99
34105 On ch=2 n=69 v=100
34127 On ch=2 n=69 v=0
34128 On ch=2 n=64 v=0
34129 On ch=2 n=66 v=0
34129 On ch=2 n=64 v=105
34177 On ch=2 n=69 v=99
34199 On ch=2 n=69 v=0
34201 On ch=2 n=63 v=104
34206 On ch=2 n=64 v=0
34249 On ch=2 n=69 v=95
34271 On ch=2 n=69 v=0
34273 On ch=2 n=61 v=104
34277 On ch=2 n=63 v=0
34297 On ch=2 n=64 v=80
34321 On ch=2 n=64 v=0
34321 On ch=2 n=64 v=90
34343 On ch=2 n=61 v=0
34345 On ch=2 n=64 v=0
34345 On ch=2 n=64 v=66
34369 On ch=2 n=64 v=0
34369 On ch=2 n=62 v=100
34390 Pb ch=2 v=8448
34391 Pb ch=2 v=9362
34393 Pb ch=2 v=10532
34414 On ch=2 n=62 v=0
34417 Pb ch=2 v=8192
34417 On ch=2 n=67 v=104
34439 On ch=2 n=67 v=0
34441 On ch=2 n=62 v=100
34465 On ch=2 n=64 v=88
34487 On ch=2 n=64 v=0
34489 On ch=2 n=62 v=0
34489 On ch=2 n=67 v=92
34513 On ch=2 n=67 v=0
34513 On ch=2 n=60 v=102
34537 On ch=2 n=64 v=90
34561 On ch=2 n=67 v=98
34584 On ch=2 n=64 v=0
34585 On ch=2 n=60 v=0
34585 On ch=2 n=67 v=0
34585 On ch=2 n=59 v=100
34609 On ch=2 n=64 v=92
34633 On ch=2 n=67 v=98
34655 On ch=2 n=67 v=0
34657 On ch=2 n=59 v=0
34657 On ch=2 n=64 v=0
34657 On ch=2 n=57 v=99
34681 On ch=2 n=67 v=92
34703 On ch=2 n=67 v=0
34704 On ch=2 n=57 v=0
34705 On ch=2 n=55 v=94
34727 On ch=2 n=55 v=0
34753 On ch=2 n=53 v=80
34777 On ch=2 n=69 v=112
34797 On ch=2 n=53 v=0
34801 On ch=2 n=65 v=107
34817 On ch=2 n=69 v=0
34825 On ch=2 n=52 v=100
34829 On ch=2 n=65 v=0
34849 On ch=2 n=65 v=102
34873 On ch=2 n=60 v=89
34895 On ch=2 n=52 v=0
34895 On ch=2 n=65 v=0
34895 On ch=2 n=60 v=0
34897 On ch=2 n=50 v=99
34921 On ch=2 n=65 v=80
34945 On ch=2 n=60 v=80
34967 On ch=2 n=50 v=0
34967 On ch=2 n=65 v=0
34969 On ch=2 n=60 v=0
34969 On ch=2 n=48 v=98
34993 On ch=2 n=65 v=96
35017 On ch=2 n=60 v=92
35019 On ch=2 n=65 v=0
35039 On ch=2 n=48 v=0
35039 On ch=2 n=60 v=0
35041 On ch=2 n=50 v=100
35065 On ch=2 n=50 v=0
35065 On ch=2 n=65 v=99
35089 On ch=2 n=53 v=96
35113 On ch=2 n=65 v=0
35113 On ch=2 n=53 v=0
35113 On ch=2 n=65 v=89
35119 On ch=2 n=65 v=0
35137 On ch=2 n=46 v=106
35161 On ch=2 n=62 v=87
35185 On ch=2 n=58 v=67
35207 On ch=2 n=62 v=0
35207 On ch=2 n=58 v=0
35208 On ch=2 n=46 v=0
35209 On ch=2 n=45 v=104
35233 On ch=2 n=62 v=100
35257 On ch=2 n=58 v=67
35265 On ch=2 n=58 v=0
35279 On ch=2 n=62 v=0
35280 On ch=2 n=45 v=0
35281 On ch=2 n=46 v=106
35305 On ch=2 n=62 v=80
35329 On ch=2 n=58 v=81
35337 On ch=2 n=58 v=0
35351 On ch=2 n=62 v=0
35352 On ch=2 n=46 v=0
35353 On ch=2 n=48 v=94
35377 On ch=2 n=62 v=85
35401 On ch=2 n=62 v=0
35401 On ch=2 n=58 v=80
35423 On ch=2 n=58 v=0
35425 On ch=2 n=48 v=0
35425 Pb ch=2 v=8192
35425 On ch=2 n=48 v=100
35449 Pb ch=2 v=8448
35450 Pb ch=2 v=9362
35451 Pb ch=2 v=9472
35452 Pb ch=2 v=10532
35472 On ch=2 n=48 v=0
35473 Pb ch=2 v=8192
35473 On ch=2 n=65 v=90
35495 On ch=2 n=65 v=0
35521 Par ch=2 c=11 v=120
35521 On ch=2 n=68 v=108
35545 On ch=2 n=64 v=94
35569 On ch=2 n=68 v=0
35569 On ch=2 n=69 v=108
35593 On ch=2 n=69 v=0
35593 On ch=2 n=66 v=106
35615 On ch=2 n=64 v=0
35617 On ch=2 n=64 v=99
35641 On ch=2 n=69 v=100
35663 On ch=2 n=69 v=0
35664 On ch=2 n=64 v=0
35665 On ch=2 n=66 v=0
35665 On ch=2 n=64 v=105
35713 On ch=2 n=69 v=99
35735 On ch=2 n=69 v=0
35737 On ch=2 n=63 v=104
35742 On ch=2 n=64 v=0
35785 On ch=2 n=69 v=95
35807 On ch=2 n=69 v=0
35809 On ch=2 n=61 v=104
35813 On ch=2 n=63 v=0
35857 On ch=2 n=64 v=90
35879 On ch=2 n=61 v=0
35885 Pb ch=2 v=7022
35887 Pb ch=2 v=5852
35888 On ch=2 n=64 v=0
35888 Pb ch=2 v=8192
35905 On ch=2 n=62 v=100
35926 Pb ch=2 v=8448
35927 Pb ch=2 v=9362
35929 Pb ch=2 v=10532
35950 On ch=2 n=62 v=0
35953 Pb ch=2 v=8192
35953 On ch=2 n=67 v=104
35975 On ch=2 n=67 v=0
35977 On ch=2 n=62 v=100
36022 On ch=2 n=62 v=0
36025 On ch=2 n=67 v=92
36049 On ch=2 n=67 v=0
36049 On ch=2 n=60 v=102
36073 On ch=2 n=64 v=90
36097 On ch=2 n=67 v=98
36120 On ch=2 n=64 v=0
36121 On ch=2 n=60 v=0
36121 On ch=2 n=67 v=0
36121 On ch=2 n=59 v=100
36145 On ch=2 n=64 v=92
36169 On ch=2 n=67 v=98
36191 On ch=2 n=67 v=0
36193 On ch=2 n=59 v=0
36193 On ch=2 n=64 v=0
36193 On ch=2 n=57 v=99
36217 On ch=2 n=67 v=92
36239 On ch=2 n=67 v=0
36240 On ch=2 n=57 v=0
36241 On ch=2 n=55 v=94
36263 On ch=2 n=55 v=0
36289 On ch=2 n=65 v=80
36311 On ch=2 n=65 v=0
36313 On ch=2 n=69 v=112
36337 On ch=2 n=65 v=107
36353 On ch=2 n=69 v=0
36361 On ch=2 n=52 v=100
36365 On ch=2 n=65 v=0
36385 On ch=2 n=65 v=102
36409 On ch=2 n=60 v=89
36431 On ch=2 n=52 v=0
36431 On ch=2 n=65 v=0
36431 On ch=2 n=60 v=0
36433 On ch=2 n=50 v=99
36457 On ch=2 n=65 v=80
36481 On ch=2 n=60 v=80
36503 On ch=2 n=50 v=0
36503 On ch=2 n=65 v=0
36505 On ch=2 n=60 v=0
36505 On ch=2 n=48 v=98
36529 On ch=2 n=65 v=96
36553 On ch=2 n=60 v=92
36555 On ch=2 n=65 v=0
36575 On ch=2 n=48 v=0
36575 On ch=2 n=60 v=0
36577 On ch=2 n=50 v=100
36601 On ch=2 n=50 v=0
36601 On ch=2 n=65 v=99
36625 On ch=2 n=53 v=96
36649 On ch=2 n=65 v=0
36649 On ch=2 n=53 v=0
36649 On ch=2 n=65 v=89
36655 On ch=2 n=65 v=0
36673 On ch=2 n=46 v=106
36697 On ch=2 n=62 v=87
36721 On ch=2 n=58 v=67
36743 On ch=2 n=62 v=0
36743 On ch=2 n=58 v=0
36744 On ch=2 n=46 v=0
36745 On ch=2 n=45 v=104
36769 On ch=2 n=62 v=100
36793 On ch=2 n=58 v=67
36801 On ch=2 n=58 v=0
36815 On ch=2 n=62 v=0
36816 On ch=2 n=45 v=0
36817 On ch=2 n=46 v=106
36841 On ch=2 n=62 v=80
36865 On ch=2 n=58 v=81
36873 On ch=2 n=58 v=0
36887 On ch=2 n=62 v=0
36888 On ch=2 n=46 v=0
36889 On ch=2 n=48 v=94
36913 On ch=2 n=62 v=85
36937 On ch=2 n=62 v=0
36937 On ch=2 n=58 v=80
36959 On ch=2 n=58 v=0
36961 On ch=2 n=48 v=0
36961 Pb ch=2 v=8192
36961 On ch=2 n=48 v=100
36985 Pb ch=2 v=8448
36986 Pb ch=2 v=9362
36987 Pb ch=2 v=9472
36988 Pb ch=2 v=10532
37008 On ch=2 n=48 v=0
37009 Pb ch=2 v=8192
37009 On ch=2 n=65 v=90
37031 On ch=2 n=65 v=0
37057 On ch=2 n=68 v=108
37105 On ch=2 n=68 v=0
37105 On ch=2 n=69 v=108
37129 On ch=2 n=69 v=0
37129 On ch=2 n=66 v=106
37153 On ch=2 n=64 v=99
37177 On ch=2 n=69 v=100
37199 On ch=2 n=69 v=0
37200 On ch=2 n=64 v=0
37201 On ch=2 n=66 v=0
37201 On ch=2 n=64 v=105
37249 On ch=2 n=69 v=99
37271 On ch=2 n=69 v=0
37273 On ch=2 n=63 v=104
37278 On ch=2 n=64 v=0
37321 On ch=2 n=69 v=95
37343 On ch=2 n=69 v=0
37345 On ch=2 n=61 v=104
37349 On ch=2 n=63 v=0
37369 On ch=2 n=64 v=80
37393 On ch=2 n=64 v=0
37393 On ch=2 n=64 v=90
37415 On ch=2 n=61 v=0
37417 On ch=2 n=64 v=0
37417 On ch=2 n=64 v=66
37441 On ch=2 n=64 v=0
37441 On ch=2 n=62 v=100
37462 Pb ch=2 v=8448
37463 Pb ch=2 v=9362
37465 Pb ch=2 v=10532
37486 On ch=2 n=62 v=0
37489 Pb ch=2 v=8192
37489 On ch=2 n=67 v=104
37511 On ch=2 n=67 v=0
37513 On ch=2 n=62 v=100
37537 On ch=2 n=64 v=88
37559 On ch=2 n=64 v=0
37561 On ch=2 n=62 v=0
37561 On ch=2 n=67 v=92
37585 On ch=2 n=67 v=0
37585 On ch=2 n=60 v=102
37609 On ch=2 n=64 v=90
37633 On ch=2 n=67 v=98
37656 On ch=2 n=64 v=0
37657 On ch=2 n=60 v=0
37657 On ch=2 n=67 v=0
37657 On ch=2 n=59 v=100
37681 On ch=2 n=64 v=92
37705 On ch=2 n=67 v=98
37727 On ch=2 n=67 v=0
37729 On ch=2 n=59 v=0
37729 On ch=2 n=64 v=0
37729 On ch=2 n=57 v=99
37753 On ch=2 n=67 v=92
37775 On ch=2 n=67 v=0
37776 On ch=2 n=57 v=0
37777 On ch=2 n=55 v=94
37799 On ch=2 n=55 v=0
37825 On ch=2 n=53 v=80
37849 On ch=2 n=69 v=112
37869 On ch=2 n=53 v=0
37873 On ch=2 n=65 v=107
37889 On ch=2 n=69 v=0
37897 On ch=2 n=52 v=100
37901 On ch=2 n=65 v=0
37921 On ch=2 n=65 v=102
37945 On ch=2 n=60 v=89
37967 On ch=2 n=52 v=0
37967 On ch=2 n=65 v=0
37967 On ch=2 n=60 v=0
37969 On ch=2 n=50 v=99
37993 On ch=2 n=65 v=80
38017 On ch=2 n=60 v=80
38039 On ch=2 n=50 v=0
38039 On ch=2 n=65 v=0
38041 On ch=2 n=60 v=0
38041 On ch=2 n=48 v=98
38065 On ch=2 n=65 v=96
38089 On ch=2 n=60 v=92
38091 On ch=2 n=65 v=0
38111 On ch=2 n=48 v=0
38111 On ch=2 n=60 v=0
38113 On ch=2 n=50 v=100
38137 On ch=2 n=50 v=0
38137 On ch=2 n=65 v=99
38161 On ch=2 n=53 v=96
38185 On ch=2 n=65 v=0
38185 On ch=2 n=53 v=0
38185 On ch=2 n=65 v=89
38191 On ch=2 n=65 v=0
38209 On ch=2 n=46 v=106
38233 On ch=2 n=62 v=87
38257 On ch=2 n=58 v=67
38279 On ch=2 n=62 v=0
38279 On ch=2 n=58 v=0
38280 On ch=2 n=46 v=0
38281 On ch=2 n=45 v=104
38305 On ch=2 n=62 v=100
38329 On ch=2 n=58 v=67
38337 On ch=2 n=58 v=0
38351 On ch=2 n=62 v=0
38352 On ch=2 n=45 v=0
38353 On ch=2 n=46 v=106
38377 On ch=2 n=62 v=80
38401 On ch=2 n=58 v=81
38409 On ch=2 n=58 v=0
38423 On ch=2 n=62 v=0
38424 On ch=2 n=46 v=0
38425 On ch=2 n=48 v=94
38449 On ch=2 n=62 v=85
38473 On ch=2 n=62 v=0
38473 On ch=2 n=58 v=80
38495 On ch=2 n=58 v=0
38497 On ch=2 n=48 v=0
38497 Pb ch=2 v=8192
38497 On ch=2 n=48 v=100
38521 Pb ch=2 v=8448
38522 Pb ch=2 v=9362
38523 Pb ch=2 v=9472
38524 Pb ch=2 v=10532
38544 On ch=2 n=48 v=0
38545 Pb ch=2 v=8192
38545 On ch=2 n=65 v=90
38567 On ch=2 n=65 v=0
38593 Par ch=2 c=11 v=116
38593 On ch=2 n=68 v=90
38638 On ch=2 n=68 v=0
38641 On ch=2 n=69 v=108
38665 On ch=2 n=69 v=0
38665 On ch=2 n=66 v=106
38689 On ch=2 n=64 v=72
38734 On ch=2 n=64 v=0
38737 On ch=2 n=64 v=108
38741 On ch=2 n=66 v=0
38761 On ch=2 n=57 v=94
38783 On ch=2 n=57 v=0
38785 On ch=2 n=69 v=80
38807 On ch=2 n=69 v=0
38809 On ch=2 n=63 v=104
38813 On ch=2 n=64 v=0
38833 On ch=2 n=57 v=94
38857 On ch=2 n=57 v=0
38857 On ch=2 n=69 v=84
38879 On ch=2 n=69 v=0
38881 On ch=2 n=61 v=104
38885 On ch=2 n=63 v=0
38905 On ch=2 n=64 v=94
38929 On ch=2 n=64 v=0
38929 On ch=2 n=64 v=78
38953 On ch=2 n=64 v=0
38953 On ch=2 n=64 v=75
38973 On ch=2 n=61 v=0
38975 On ch=2 n=64 v=0
38977 On ch=2 n=62 v=88
38998 Pb ch=2 v=8448
38999 Pb ch=2 v=9362
39001 Pb ch=2 v=10532
39022 On ch=2 n=62 v=0
39025 Pb ch=2 v=8192
39025 On ch=2 n=67 v=96
39047 On ch=2 n=67 v=0
39049 On ch=2 n=62 v=92
39097 On ch=2 n=67 v=98
39119 On ch=2 n=67 v=0
39121 On ch=2 n=62 v=0
39121 On ch=2 n=60 v=102
39145 On ch=2 n=64 v=60
39169 On ch=2 n=60 v=0
39169 On ch=2 n=67 v=98
39170 On ch=2 n=64 v=0
39193 On ch=2 n=67 v=0
39193 On ch=2 n=59 v=94
39241 On ch=2 n=59 v=0
39241 On ch=2 n=67 v=98
39265 On ch=2 n=57 v=96
39289 On ch=2 n=67 v=0
39312 On ch=2 n=57 v=0
39313 On ch=2 n=55 v=92
39357 On ch=2 n=55 v=0
39361 On ch=2 n=53 v=87
39409 On ch=2 n=53 v=0
39409 On ch=2 n=65 v=103
39433 On ch=2 n=52 v=100
39437 On ch=2 n=65 v=0
39457 On ch=2 n=65 v=96
39481 On ch=2 n=60 v=89
39503 On ch=2 n=52 v=0
39503 On ch=2 n=65 v=0
39503 On ch=2 n=60 v=0
39505 On ch=2 n=50 v=99
39529 On ch=2 n=65 v=80
39553 On ch=2 n=60 v=80
39575 On ch=2 n=50 v=0
39575 On ch=2 n=65 v=0
39577 On ch=2 n=60 v=0
39577 On ch=2 n=48 v=98
39601 On ch=2 n=65 v=96
39625 On ch=2 n=60 v=92
39627 On ch=2 n=65 v=0
39647 On ch=2 n=48 v=0
39647 On ch=2 n=60 v=0
39649 On ch=2 n=50 v=100
39673 On ch=2 n=50 v=0
39673 On ch=2 n=65 v=95
39697 On ch=2 n=53 v=88
39721 On ch=2 n=65 v=0
39721 On ch=2 n=53 v=0
39745 On ch=2 n=46 v=94
39769 On ch=2 n=62 v=87
39793 On ch=2 n=58 v=67
39815 On ch=2 n=62 v=0
39815 On ch=2 n=58 v=0
39816 On ch=2 n=46 v=0
39817 On ch=2 n=45 v=94
39841 On ch=2 n=62 v=94
39865 On ch=2 n=58 v=67
39873 On ch=2 n=58 v=0
39887 On ch=2 n=62 v=0
39888 On ch=2 n=45 v=0
39889 On ch=2 n=46 v=94
39913 On ch=2 n=62 v=80
39937 On ch=2 n=58 v=81
39945 On ch=2 n=58 v=0
39959 On ch=2 n=62 v=0
39960 On ch=2 n=46 v=0
39961 On ch=2 n=48 v=94
39985 On ch=2 n=62 v=85
40007 On ch=2 n=48 v=0
40009 On ch=2 n=62 v=0
40009 On ch=2 n=48 v=70
40029 On ch=2 n=48 v=0
40033 Pb ch=2 v=8192
40033 On ch=2 n=48 v=90
40057 Pb ch=2 v=8448
40058 Pb ch=2 v=9362
40059 Pb ch=2 v=9472
40060 Pb ch=2 v=10532
40080 On ch=2 n=48 v=0
40081 Pb ch=2 v=8192
40081 On ch=2 n=65 v=94
40103 On ch=2 n=65 v=0
40129 On ch=2 n=44 v=88
40153 On ch=2 n=60 v=86
40177 On ch=2 n=56 v=81
40199 On ch=2 n=44 v=0
40199 On ch=2 n=56 v=0
40201 On ch=2 n=60 v=0
40201 On ch=2 n=43 v=88
40225 On ch=2 n=60 v=87
40249 On ch=2 n=56 v=80
40271 On ch=2 n=43 v=0
40273 On ch=2 n=60 v=0
40273 On ch=2 n=56 v=0
40273 On ch=2 n=44 v=89
40297 On ch=2 n=60 v=78
40321 On ch=2 n=56 v=70
40343 On ch=2 n=44 v=0
40345 On ch=2 n=60 v=0
40345 On ch=2 n=56 v=0
40345 On ch=2 n=46 v=84
40369 On ch=2 n=60 v=80
40393 On ch=2 n=46 v=0
40393 On ch=2 n=60 v=0
40393 On ch=2 n=46 v=84
40393 On ch=2 n=56 v=96
40417 On ch=2 n=46 v=0
40417 On ch=2 n=56 v=0
40417 On ch=2 n=46 v=84
40441 Pb ch=2 v=8448
40442 Pb ch=2 v=9362
40443 Pb ch=2 v=9472
40444 Pb ch=2 v=10532
40464 On ch=2 n=46 v=0
40465 Pb ch=2 v=8192
40465 On ch=2 n=63 v=88
40487 On ch=2 n=63 v=0
40513 On ch=2 n=41 v=120
40561 On ch=2 n=41 v=0
40561 On ch=2 n=41 v=112
40585 On ch=2 n=60 v=98
40585 On ch=2 n=65 v=88
40586 On ch=2 n=60 v=0
40587 On ch=2 n=65 v=0
40609 On ch=2 n=41 v=0
40609 On ch=2 n=41 v=113
40609 On ch=2 n=53 v=70
40657 On ch=2 n=53 v=0
40657 On ch=2 n=57 v=104
40657 On ch=2 n=60 v=104
40658 On ch=2 n=57 v=0
40658 On ch=2 n=60 v=0
40681 On ch=2 n=41 v=0
40681 On ch=2 n=57 v=104
40681 On ch=2 n=60 v=90
40681 On ch=2 n=65 v=70
40729 On ch=2 n=57 v=0
40729 On ch=2 n=60 v=0
40729 On ch=2 n=65 v=0
40729 On ch=2 n=57 v=70
40753 On ch=2 n=57 v=0
40753 On ch=2 n=57 v=82
40798 On ch=2 n=57 v=0
40801 On ch=2 n=60 v=100
40801 On ch=2 n=65 v=110
40801 On ch=2 n=69 v=100
40809 On ch=2 n=60 v=0
40811 On ch=2 n=65 v=0
40811 On ch=2 n=69 v=0
40849 On ch=2 n=68 v=90
40873 On ch=2 n=64 v=77
40895 On ch=2 n=68 v=0
40895 On ch=2 n=64 v=0
40897 On ch=2 n=69 v=108
40921 On ch=2 n=69 v=0
40921 On ch=2 n=66 v=106
40945 On ch=2 n=64 v=72
40990 On ch=2 n=64 v=0
40993 On ch=2 n=64 v=108
40997 On ch=2 n=66 v=0
41017 On ch=2 n=57 v=94
41039 On ch=2 n=57 v=0
41041 On ch=2 n=69 v=80
41063 On ch=2 n=69 v=0
41065 On ch=2 n=63 v=104
41069 On ch=2 n=64 v=0
41089 On ch=2 n=57 v=94
41113 On ch=2 n=57 v=0
41113 On ch=2 n=69 v=84
41135 On ch=2 n=69 v=0
41137 On ch=2 n=61 v=104
41141 On ch=2 n=63 v=0
41161 On ch=2 n=64 v=94
41185 On ch=2 n=64 v=0
41185 On ch=2 n=64 v=78
41209 On ch=2 n=64 v=0
41209 On ch=2 n=64 v=75
41229 On ch=2 n=61 v=0
41231 On ch=2 n=64 v=0
41233 On ch=2 n=62 v=88
41254 Pb ch=2 v=8448
41255 Pb ch=2 v=9362
41257 Pb ch=2 v=10532
41278 On ch=2 n=62 v=0
41281 Pb ch=2 v=8192
41281 On ch=2 n=67 v=96
41303 On ch=2 n=67 v=0
41305 On ch=2 n=62 v=92
41329 On ch=2 n=64 v=84
41353 On ch=2 n=62 v=0
41353 On ch=2 n=67 v=98
41375 On ch=2 n=67 v=0
41377 On ch=2 n=64 v=0
41377 On ch=2 n=60 v=102
41401 On ch=2 n=64 v=60
41425 On ch=2 n=60 v=0
41425 On ch=2 n=67 v=98
41426 On ch=2 n=64 v=0
41449 On ch=2 n=67 v=0
41449 On ch=2 n=59 v=94
41497 On ch=2 n=59 v=0
41497 On ch=2 n=67 v=98
41521 On ch=2 n=57 v=96
41545 On ch=2 n=67 v=0
41545 On ch=2 n=64 v=80
41568 On ch=2 n=57 v=0
41569 On ch=2 n=55 v=92
41589 On ch=2 n=64 v=0
41613 On ch=2 n=55 v=0
41617 On ch=2 n=53 v=87
41665 On ch=2 n=53 v=0
41665 On ch=2 n=65 v=103
41689 On ch=2 n=52 v=100
41693 On ch=2 n=65 v=0
41713 On ch=2 n=65 v=96
41737 On ch=2 n=60 v=89
41759 On ch=2 n=52 v=0
41759 On ch=2 n=65 v=0
41759 On ch=2 n=60 v=0
41761 On ch=2 n=50 v=99
41785 On ch=2 n=65 v=80
41809 On ch=2 n=60 v=80
41831 On ch=2 n=50 v=0
41831 On ch=2 n=65 v=0
41833 On ch=2 n=60 v=0
41833 On ch=2 n=48 v=98
41857 On ch=2 n=65 v=96
41881 On ch=2 n=60 v=92
41883 On ch=2 n=65 v=0
41903 On ch=2 n=48 v=0
41903 On ch=2 n=60 v=0
41905 On ch=2 n=50 v=100
41929 On ch=2 n=50 v=0
41929 On ch=2 n=65 v=95
41953 On ch=2 n=53 v=88
41977 On ch=2 n=65 v=0
41977 On ch=2 n=53 v=0
42001 On ch=2 n=46 v=94
42025 On ch=2 n=62 v=87
42049 On ch=2 n=58 v=67
42071 On ch=2 n=62 v=0
42071 On ch=2 n=58 v=0
42072 On ch=2 n=46 v=0
42073 On ch=2 n=45 v=94
42097 On ch=2 n=62 v=94
42121 On ch=2 n=58 v=67
42129 On ch=2 n=58 v=0
42143 On ch=2 n=62 v=0
42144 On ch=2 n=45 v=0
42145 On ch=2 n=46 v=94
42169 On ch=2 n=62 v=80
42193 On ch=2 n=58 v=81
42201 On ch=2 n=58 v=0
42215 On ch=2 n=62 v=0
42216 On ch=2 n=46 v=0
42217 On ch=2 n=48 v=94
42241 On ch=2 n=62 v=85
42263 On ch=2 n=48 v=0
42265 On ch=2 n=62 v=0
42265 On ch=2 n=48 v=70
42285 On ch=2 n=48 v=0
42289 Pb ch=2 v=8192
42289 On ch=2 n=48 v=90
42313 Pb ch=2 v=8448
42314 Pb ch=2 v=9362
42315 Pb ch=2 v=9472
42316 Pb ch=2 v=10532
42336 On ch=2 n=48 v=0
42337 Pb ch=2 v=8192
42337 On ch=2 n=65 v=94
42359 On ch=2 n=65 v=0
42385 On ch=2 n=44 v=88
42409 On ch=2 n=60 v=86
42433 On ch=2 n=56 v=81
42455 On ch=2 n=44 v=0
42455 On ch=2 n=56 v=0
42457 On ch=2 n=60 v=0
42457 On ch=2 n=43 v=88
42481 On ch=2 n=60 v=87
42505 On ch=2 n=56 v=80
42527 On ch=2 n=43 v=0
42529 On ch=2 n=60 v=0
42529 On ch=2 n=56 v=0
42529 On ch=2 n=44 v=89
42553 On ch=2 n=60 v=78
42577 On ch=2 n=56 v=70
42599 On ch=2 n=44 v=0
42601 On ch=2 n=60 v=0
42601 On ch=2 n=56 v=0
42601 On ch=2 n=46 v=84
42625 On ch=2 n=60 v=80
42649 On ch=2 n=46 v=0
42649 On ch=2 n=60 v=0
42649 On ch=2 n=46 v=84
42649 On ch=2 n=56 v=96
42673 On ch=2 n=46 v=0
42673 On ch=2 n=56 v=0
42673 On ch=2 n=46 v=84
42697 Pb ch=2 v=8448
42698 Pb ch=2 v=9362
42699 Pb ch=2 v=9472
42700 Pb ch=2 v=10532
42720 On ch=2 n=46 v=0
42721 Pb ch=2 v=8192
42721 On ch=2 n=63 v=88
42743 On ch=2 n=63 v=0
42769 On ch=2 n=41 v=96
42769 On ch=2 n=57 v=82
42769 On ch=2 n=60 v=76
42769 On ch=2 n=65 v=84
42809 On ch=2 n=57 v=0
42817 On ch=2 n=41 v=0
42817 On ch=2 n=41 v=84
42839 On ch=2 n=60 v=0
42839 On ch=2 n=65 v=0
42841 On ch=2 n=60 v=74
42841 On ch=2 n=65 v=78
42842 On ch=2 n=60 v=0
42843 On ch=2 n=65 v=0
42865 On ch=2 n=41 v=0
42865 On ch=2 n=45 v=90
42865 On ch=2 n=57 v=88
42865 On ch=2 n=60 v=88
42865 On ch=2 n=65 v=88
42910 On ch=2 n=45 v=0
42910 On ch=2 n=57 v=0
42910 On ch=2 n=60 v=0
42910 On ch=2 n=65 v=0
42913 On ch=2 n=45 v=60
42913 On ch=2 n=57 v=60
42913 On ch=2 n=60 v=60
42913 On ch=2 n=65 v=60
42935 On ch=2 n=45 v=0
42935 On ch=2 n=57 v=0
42935 On ch=2 n=60 v=0
42935 On ch=2 n=65 v=0
42937 On ch=2 n=48 v=80
42937 On ch=2 n=57 v=99
42937 On ch=2 n=60 v=110
42937 On ch=2 n=65 v=114
42985 On ch=2 n=57 v=0
42985 On ch=2 n=60 v=0
42985 On ch=2 n=65 v=0
42985 On ch=2 n=57 v=97
42985 On ch=2 n=60 v=94
43009 On ch=2 n=48 v=0
43009 On ch=2 n=57 v=0
43009 On ch=2 n=60 v=0
43009 On ch=2 n=57 v=88
43009 On ch=2 n=60 v=77
43054 On ch=2 n=57 v=0
43054 On ch=2 n=60 v=0
43057 On ch=2 n=57 v=98
43057 On ch=2 n=60 v=95
43057 On ch=2 n=65 v=124
43065 On ch=2 n=57 v=0
43065 On ch=2 n=60 v=0
43067 On ch=2 n=65 v=0
43105 Par ch=2 c=11 v=110
43105 On ch=2 n=55 v=60
43105 On ch=2 n=59 v=102
43105 On ch=2 n=62 v=84
43105 On ch=2 n=67 v=105
43105 On ch=2 n=71 v=105
43247 On ch=2 n=55 v=0
43247 On ch=2 n=59 v=0
43247 On ch=2 n=62 v=0
43247 On ch=2 n=67 v=0
43247 On ch=2 n=71 v=0
43321 Par ch=2 c=11 v=75
43321 On ch=2 n=67 v=127
43321 On ch=2 n=74 v=127
43321 On ch=2 n=77 v=120
43322 Par ch=2 c=11 v=86
43323 On ch=2 n=67 v=0
43323 Par ch=2 c=11 v=95
43324 Par ch=2 c=11 v=98
43325 Par ch=2 c=11 v=105
43326 Par ch=2 c=11 v=107
43327 Par ch=2 c=11 v=112
43328 Par ch=2 c=11 v=113
43329 Par ch=2 c=11 v=116
43330 Par ch=2 c=11 v=118
43331 Par ch=2 c=11 v=120
43332 Par ch=2 c=11 v=116
43334 Par ch=2 c=11 v=112
43336 Par ch=2 c=11 v=109
43338 Par ch=2 c=11 v=104
43343 Par ch=2 c=11 v=100
43356 On ch=2 n=77 v=0
43357 On ch=2 n=74 v=0
43513 Par ch=2 c=11 v=90
43513 On ch=2 n=47 v=88
43513 On ch=2 n=50 v=96
43561 On ch=2 n=55 v=88
43561 On ch=2 n=62 v=95
43603 On ch=2 n=47 v=0
43605 On ch=2 n=50 v=0
43609 On ch=2 n=67 v=110
43609 On ch=2 n=74 v=115
43653 On ch=2 n=55 v=0
43653 On ch=2 n=62 v=0
43680 On ch=2 n=67 v=0
43681 On ch=2 n=67 v=100
43703 Pb ch=2 v=7022
43705 Pb ch=2 v=5852
43706 Pb ch=2 v=4682
43707 Pb ch=2 v=3507
43727 On ch=2 n=74 v=0
43727 On ch=2 n=67 v=0
43729 Pb ch=2 v=8192
43729 On ch=2 n=55 v=50
43729 On ch=2 n=63 v=83
43729 On ch=2 n=70 v=90
43753 On ch=2 n=55 v=0
43753 On ch=2 n=63 v=0
43753 On ch=2 n=70 v=0
43753 On ch=2 n=55 v=80
43753 On ch=2 n=63 v=85
43753 On ch=2 n=70 v=90
43801 On ch=2 n=55 v=0
43801 On ch=2 n=63 v=0
43801 On ch=2 n=70 v=0
43801 On ch=2 n=55 v=90
43801 On ch=2 n=63 v=108
43801 On ch=2 n=70 v=117
43824 On ch=2 n=55 v=0
43824 On ch=2 n=63 v=0
43824 On ch=2 n=70 v=0
43824 On ch=2 n=70 v=85
43825 On ch=2 n=63 v=77
43826 On ch=2 n=55 v=72
43846 On ch=2 n=63 v=0
43848 On ch=2 n=63 v=70
43870 On ch=2 n=70 v=0
43870 On ch=2 n=55 v=0
43870 On ch=2 n=63 v=0
43870 On ch=2 n=55 v=72
43870 On ch=2 n=63 v=70
43870 On ch=2 n=70 v=77
43892 On ch=2 n=63 v=0
43892 On ch=2 n=70 v=0
43894 On ch=2 n=55 v=0
43897 On ch=2 n=51 v=60
43897 On ch=2 n=55 v=60
43897 On ch=2 n=63 v=104
43897 On ch=2 n=70 v=110
43917 Pb ch=2 v=7022
43919 Pb ch=2 v=5852
43920 Pb ch=2 v=4682
43943 On ch=2 n=51 v=0
43943 On ch=2 n=63 v=0
43943 On ch=2 n=70 v=0
43944 On ch=2 n=55 v=0
43944 Pb ch=2 v=8192
43944 On ch=2 n=67 v=110
43946 On ch=2 n=60 v=105
43947 On ch=2 n=52 v=72
43948 On ch=2 n=48 v=75
43990 On ch=2 n=67 v=0
43992 On ch=2 n=60 v=0
43992 On ch=2 n=52 v=0
43992 On ch=2 n=48 v=0
43992 On ch=2 n=48 v=88
43992 On ch=2 n=52 v=90
43992 On ch=2 n=60 v=107
43992 On ch=2 n=67 v=115
44040 On ch=2 n=48 v=0
44040 On ch=2 n=52 v=0
44040 On ch=2 n=48 v=87
44040 On ch=2 n=52 v=80
44064 On ch=2 n=60 v=0
44064 On ch=2 n=67 v=0
44064 On ch=2 n=48 v=0
44064 On ch=2 n=52 v=0
44065 On ch=2 n=48 v=72
44067 On ch=2 n=52 v=70
44068 On ch=2 n=60 v=100
44068 On ch=2 n=67 v=105
44088 On ch=2 n=48 v=0
44088 On ch=2 n=48 v=72
44111 On ch=2 n=60 v=0
44112 On ch=2 n=67 v=0
44112 On ch=2 n=60 v=95
44112 On ch=2 n=67 v=100
44136 On ch=2 n=52 v=0
44136 On ch=2 n=48 v=0
44136 On ch=2 n=60 v=0
44136 On ch=2 n=67 v=0
44136 On ch=2 n=48 v=94
44138 On ch=2 n=52 v=94
44139 On ch=2 n=60 v=100
44139 On ch=2 n=67 v=105
44182 On ch=2 n=60 v=0
44182 On ch=2 n=67 v=0
44184 On ch=2 n=60 v=94
44184 On ch=2 n=67 v=100
44208 On ch=2 n=60 v=0
44208 On ch=2 n=67 v=0
44208 On ch=2 n=60 v=88
44208 On ch=2 n=67 v=93
44232 On ch=2 n=48 v=0
44232 On ch=2 n=52 v=0
44232 On ch=2 n=47 v=88
44254 On ch=2 n=47 v=0
44276 On ch=2 n=60 v=0
44276 On ch=2 n=67 v=0
44280 On ch=2 n=47 v=70
44280 On ch=2 n=50 v=88
44280 On ch=2 n=55 v=96
44280 On ch=2 n=62 v=95
44282 On ch=2 n=50 v=0
44282 On ch=2 n=55 v=0
44282 On ch=2 n=62 v=0
44326 On ch=2 n=47 v=0
44326 On ch=2 n=47 v=75
44326 On ch=2 n=50 v=88
44326 On ch=2 n=55 v=96
44326 On ch=2 n=62 v=95
44328 On ch=2 n=50 v=0
44328 On ch=2 n=55 v=0
44328 On ch=2 n=62 v=0
44370 On ch=2 n=47 v=0
44376 On ch=2 n=55 v=95
44377 On ch=2 n=62 v=95
44378 On ch=2 n=67 v=105
44378 On ch=2 n=74 v=110
44448 On ch=2 n=67 v=0
44448 On ch=2 n=67 v=100
44468 On ch=2 n=55 v=0
44468 On ch=2 n=62 v=0
44472 On ch=2 n=64 v=60
44473 On ch=2 n=74 v=0
44473 On ch=2 n=67 v=0
44473 On ch=2 n=64 v=0
44474 On ch=2 n=64 v=62
44475 On ch=2 n=64 v=0
44476 On ch=2 n=64 v=62
44477 On ch=2 n=64 v=0
44478 On ch=2 n=64 v=64
44479 On ch=2 n=64 v=0
44480 On ch=2 n=64 v=64
44481 On ch=2 n=64 v=0
44482 On ch=2 n=64 v=64
44483 On ch=2 n=64 v=0
44484 On ch=2 n=76 v=66
44485 On ch=2 n=76 v=0
44486 On ch=2 n=76 v=66
44487 On ch=2 n=76 v=0
44488 On ch=2 n=76 v=66
44489 On ch=2 n=76 v=0
44490 On ch=2 n=76 v=66
44491 On ch=2 n=76 v=0
44492 On ch=2 n=76 v=66
44493 On ch=2 n=76 v=0
44496 On ch=2 n=70 v=83
44497 On ch=2 n=63 v=89
44498 On ch=2 n=55 v=96
44520 On ch=2 n=70 v=0
44520 On ch=2 n=63 v=0
44520 On ch=2 n=55 v=0
44520 On ch=2 n=55 v=86
44521 On ch=2 n=63 v=100
44521 On ch=2 n=70 v=110
44568 On ch=2 n=55 v=0
44568 On ch=2 n=63 v=0
44568 On ch=2 n=70 v=0
44568 On ch=2 n=55 v=72
44568 On ch=2 n=63 v=78
44568 On ch=2 n=70 v=80
44591 On ch=2 n=63 v=0
44591 On ch=2 n=70 v=0
44592 On ch=2 n=63 v=88
44592 On ch=2 n=70 v=96
44614 On ch=2 n=55 v=0
44614 On ch=2 n=63 v=0
44614 On ch=2 n=70 v=0
44614 On ch=2 n=55 v=80
44614 On ch=2 n=63 v=80
44614 On ch=2 n=70 v=85
44637 On ch=2 n=63 v=0
44637 On ch=2 n=70 v=0
44637 On ch=2 n=63 v=80
44637 On ch=2 n=70 v=80
44659 On ch=2 n=63 v=0
44659 On ch=2 n=70 v=0
44661 On ch=2 n=55 v=0
44712 On ch=2 n=64 v=70
44760 On ch=2 n=64 v=0
44760 On ch=2 n=60 v=75
44760 On ch=2 n=64 v=88
44762 On ch=2 n=60 v=0
44762 On ch=2 n=67 v=99
44763 On ch=2 n=72 v=106
44831 On ch=2 n=64 v=0
44831 On ch=2 n=67 v=0
44831 On ch=2 n=72 v=0
44832 On ch=2 n=64 v=75
44833 On ch=2 n=67 v=88
44834 On ch=2 n=72 v=95
44880 On ch=2 n=64 v=0
44880 On ch=2 n=67 v=0
44880 On ch=2 n=72 v=0
44880 On ch=2 n=64 v=75
44881 On ch=2 n=67 v=85
44881 On ch=2 n=72 v=90
44904 On ch=2 n=64 v=0
44904 On ch=2 n=67 v=0
44904 On ch=2 n=72 v=0
44904 On ch=2 n=64 v=84
44904 On ch=2 n=67 v=97
44904 On ch=2 n=72 v=99
44949 On ch=2 n=64 v=0
44949 On ch=2 n=67 v=0
44952 On ch=2 n=64 v=75
44952 On ch=2 n=67 v=84
44976 On ch=2 n=72 v=0
44976 On ch=2 n=64 v=0
44976 On ch=2 n=67 v=0
44976 On ch=2 n=64 v=80
44976 On ch=2 n=67 v=84
44976 On ch=2 n=72 v=99
44999 On ch=2 n=64 v=0
44999 On ch=2 n=67 v=0
44999 On ch=2 n=72 v=0
45000 On ch=2 n=64 v=80
45000 On ch=2 n=67 v=84
45000 On ch=2 n=72 v=99
45016 On ch=2 n=64 v=0
45016 On ch=2 n=67 v=0
45016 On ch=2 n=72 v=0
45024 On ch=2 n=67 v=55
45046 On ch=2 n=67 v=0
45048 On ch=2 n=47 v=60
45140 On ch=2 n=47 v=0
45144 On ch=2 n=47 v=60
45145 On ch=2 n=67 v=94
45145 On ch=2 n=74 v=102
45167 On ch=2 n=47 v=0
45168 On ch=2 n=67 v=0
45168 On ch=2 n=47 v=65
45168 On ch=2 n=67 v=70
45191 On ch=2 n=74 v=0
45192 On ch=2 n=67 v=0
45192 On ch=2 n=67 v=77
45192 On ch=2 n=74 v=94
45215 On ch=2 n=67 v=0
45215 On ch=2 n=74 v=0
45216 On ch=2 n=47 v=0
45216 On ch=2 n=47 v=60
45216 On ch=2 n=67 v=70
45216 On ch=2 n=74 v=88
45261 Pb ch=2 v=7022
45262 Pb ch=2 v=5852
45263 Pb ch=2 v=4681
45264 On ch=2 n=47 v=0
45264 On ch=2 n=67 v=0
45264 On ch=2 n=74 v=0
45264 Pb ch=2 v=8192
45264 On ch=2 n=51 v=60
45264 On ch=2 n=63 v=68
45264 On ch=2 n=70 v=81
45332 On ch=2 n=51 v=0
45332 On ch=2 n=63 v=0
45332 On ch=2 n=70 v=0
45336 On ch=2 n=51 v=62
45336 On ch=2 n=63 v=102
45336 On ch=2 n=70 v=108
45358 On ch=2 n=51 v=0
45358 On ch=2 n=63 v=0
45358 On ch=2 n=70 v=0
45360 On ch=2 n=51 v=63
45360 On ch=2 n=63 v=75
45360 On ch=2 n=70 v=89
45405 On ch=2 n=51 v=0
45405 On ch=2 n=63 v=0
45405 On ch=2 n=70 v=0
45408 On ch=2 n=51 v=60
45408 On ch=2 n=63 v=70
45408 On ch=2 n=70 v=85
45430 On ch=2 n=51 v=0
45430 On ch=2 n=63 v=0
45430 On ch=2 n=70 v=0
45432 On ch=2 n=51 v=70
45432 On ch=2 n=63 v=68
45432 On ch=2 n=70 v=94
45450 On ch=2 n=70 v=0
45452 On ch=2 n=51 v=0
45452 On ch=2 n=63 v=0
45456 On ch=2 n=76 v=60
45457 On ch=2 n=76 v=0
45460 On ch=2 n=76 v=62
45461 On ch=2 n=76 v=0
45463 On ch=2 n=76 v=55
45464 On ch=2 n=76 v=0
45465 On ch=2 n=76 v=64
45466 On ch=2 n=76 v=0
45467 On ch=2 n=64 v=60
45468 On ch=2 n=64 v=0
45469 On ch=2 n=64 v=64
45470 On ch=2 n=64 v=0
45470 On ch=2 n=64 v=64
45471 On ch=2 n=64 v=0
45471 On ch=2 n=64 v=50
45472 On ch=2 n=64 v=0
45480 On ch=2 n=52 v=50
45525 On ch=2 n=52 v=0
45528 On ch=2 n=72 v=102
45529 On ch=2 n=67 v=91
45530 On ch=2 n=52 v=75
45531 On ch=2 n=60 v=60
45575 On ch=2 n=52 v=0
45575 On ch=2 n=60 v=0
45575 On ch=2 n=52 v=60
45597 On ch=2 n=52 v=0
45599 On ch=2 n=60 v=68
45600 On ch=2 n=72 v=0
45600 On ch=2 n=52 v=78
45601 On ch=2 n=67 v=0
45601 On ch=2 n=67 v=95
45602 On ch=2 n=72 v=99
45648 On ch=2 n=60 v=0
45648 On ch=2 n=52 v=0
45648 On ch=2 n=67 v=0
45648 On ch=2 n=72 v=0
45648 On ch=2 n=52 v=66
45648 On ch=2 n=72 v=88
45672 On ch=2 n=52 v=0
45672 On ch=2 n=72 v=0
45672 On ch=2 n=52 v=77
45672 On ch=2 n=64 v=80
45672 On ch=2 n=67 v=94
45720 On ch=2 n=52 v=0
45720 On ch=2 n=64 v=0
45720 On ch=2 n=67 v=0
45720 On ch=2 n=52 v=61
45720 On ch=2 n=64 v=75
45720 On ch=2 n=67 v=85
45744 On ch=2 n=52 v=0
45744 On ch=2 n=64 v=0
45744 On ch=2 n=67 v=0
45744 On ch=2 n=52 v=66
45744 On ch=2 n=64 v=67
45744 On ch=2 n=67 v=94
45792 On ch=2 n=52 v=0
45792 On ch=2 n=64 v=0
45792 On ch=2 n=67 v=0
45792 On ch=2 n=52 v=62
45792 On ch=2 n=64 v=74
45792 On ch=2 n=67 v=86
45816 On ch=2 n=52 v=0
45816 On ch=2 n=64 v=0
45816 On ch=2 n=67 v=0
45816 On ch=2 n=50 v=48
45821 On ch=2 n=50 v=0
45828 On ch=2 n=51 v=46
45832 On ch=2 n=51 v=0
45836 On ch=2 n=52 v=46
45839 On ch=2 n=52 v=0
45842 On ch=2 n=53 v=45
45844 On ch=2 n=53 v=0
45846 On ch=2 n=54 v=48
45848 On ch=2 n=54 v=0
45850 On ch=2 n=55 v=51
45852 On ch=2 n=55 v=0
45854 On ch=2 n=56 v=54
45856 On ch=2 n=56 v=0
45857 On ch=2 n=57 v=60
45859 On ch=2 n=57 v=0
45860 On ch=2 n=58 v=70
45863 On ch=2 n=58 v=0
45864 On ch=2 n=59 v=77
45909 On ch=2 n=59 v=0
45912 On ch=2 n=59 v=90
45912 On ch=2 n=67 v=103
45912 On ch=2 n=74 v=110
45936 On ch=2 n=59 v=0
45936 On ch=2 n=67 v=0
45936 On ch=2 n=74 v=0
45936 On ch=2 n=59 v=85
45936 On ch=2 n=67 v=92
45936 On ch=2 n=74 v=98
45984 On ch=2 n=59 v=0
45984 On ch=2 n=67 v=0
45984 On ch=2 n=74 v=0
45984 On ch=2 n=59 v=87
45984 On ch=2 n=67 v=98
45984 On ch=2 n=74 v=108
46026 Pb ch=2 v=7022
46029 Pb ch=2 v=5852
46031 Pb ch=2 v=4677
46032 On ch=2 n=59 v=0
46032 On ch=2 n=67 v=0
46032 On ch=2 n=74 v=0
46032 Pb ch=2 v=8192
46032 On ch=2 n=55 v=88
46032 On ch=2 n=63 v=90
46032 On ch=2 n=70 v=90
46056 On ch=2 n=55 v=0
46056 On ch=2 n=63 v=0
46056 On ch=2 n=70 v=0
46056 On ch=2 n=55 v=74
46056 On ch=2 n=63 v=82
46056 On ch=2 n=70 v=92
46101 On ch=2 n=55 v=0
46101 On ch=2 n=63 v=0
46101 On ch=2 n=70 v=0
46104 On ch=2 n=55 v=80
46104 On ch=2 n=63 v=94
46104 On ch=2 n=70 v=102
46128 On ch=2 n=55 v=0
46128 On ch=2 n=63 v=0
46128 On ch=2 n=70 v=0
46128 On ch=2 n=55 v=78
46128 On ch=2 n=63 v=82
46128 On ch=2 n=70 v=97
46152 On ch=2 n=55 v=0
46152 On ch=2 n=63 v=0
46152 On ch=2 n=55 v=70
46152 On ch=2 n=63 v=72
46176 On ch=2 n=70 v=0
46176 On ch=2 n=55 v=0
46176 On ch=2 n=63 v=0
46176 On ch=2 n=55 v=85
46176 On ch=2 n=63 v=82
46176 On ch=2 n=70 v=96
46198 On ch=2 n=55 v=0
46198 On ch=2 n=63 v=0
46198 On ch=2 n=70 v=0
46200 On ch=2 n=55 v=70
46200 On ch=2 n=63 v=76
46200 On ch=2 n=70 v=90
46219 Pb ch=2 v=7022
46223 Pb ch=2 v=5852
46226 Pb ch=2 v=4677
46248 On ch=2 n=55 v=0
46248 On ch=2 n=63 v=0
46248 On ch=2 n=70 v=0
46248 Pb ch=2 v=8192
46248 On ch=2 n=52 v=60
46248 On ch=2 n=60 v=60
46248 On ch=2 n=67 v=77
46296 On ch=2 n=52 v=0
46296 On ch=2 n=60 v=0
46296 On ch=2 n=67 v=0
46296 On ch=2 n=52 v=92
46296 On ch=2 n=60 v=103
46296 On ch=2 n=67 v=105
46368 On ch=2 n=52 v=0
46368 On ch=2 n=60 v=0
46368 On ch=2 n=67 v=0
46368 On ch=2 n=52 v=80
46368 On ch=2 n=60 v=90
46368 On ch=2 n=67 v=96
46416 On ch=2 n=52 v=0
46416 On ch=2 n=60 v=0
46416 On ch=2 n=67 v=0
46416 On ch=2 n=52 v=75
46416 On ch=2 n=60 v=83
46416 On ch=2 n=67 v=90
46440 On ch=2 n=52 v=0
46440 On ch=2 n=60 v=0
46440 On ch=2 n=67 v=0
46440 On ch=2 n=52 v=77
46440 On ch=2 n=60 v=86
46440 On ch=2 n=67 v=92
46488 On ch=2 n=52 v=0
46488 On ch=2 n=60 v=0
46488 On ch=2 n=67 v=0
46488 On ch=2 n=52 v=77
46488 On ch=2 n=60 v=85
46488 On ch=2 n=67 v=80
46512 On ch=2 n=52 v=0
46512 On ch=2 n=60 v=0
46512 On ch=2 n=67 v=0
46512 On ch=2 n=52 v=84
46512 On ch=2 n=60 v=100
46512 On ch=2 n=67 v=100
46560 On ch=2 n=52 v=0
46560 On ch=2 n=60 v=0
46560 On ch=2 n=67 v=0
46560 On ch=2 n=52 v=79
46560 On ch=2 n=60 v=85
46560 On ch=2 n=67 v=97
46584 On ch=2 n=52 v=0
46584 On ch=2 n=60 v=0
46584 On ch=2 n=67 v=0
46584 On ch=2 n=50 v=60
46584 On ch=2 n=59 v=77
46632 On ch=2 n=59 v=0
46632 On ch=2 n=59 v=77
46680 On ch=2 n=50 v=0
46680 On ch=2 n=59 v=0
46680 On ch=2 n=59 v=77
46680 On ch=2 n=67 v=90
46680 On ch=2 n=74 v=102
46704 On ch=2 n=67 v=0
46704 On ch=2 n=74 v=0
46704 On ch=2 n=67 v=94
46704 On ch=2 n=74 v=106
46727 On ch=2 n=67 v=0
46728 On ch=2 n=74 v=0
46728 On ch=2 n=67 v=70
46728 On ch=2 n=74 v=72
46751 On ch=2 n=74 v=0
46752 On ch=2 n=59 v=0
46752 On ch=2 n=67 v=0
46752 On ch=2 n=59 v=84
46752 On ch=2 n=67 v=100
46752 On ch=2 n=74 v=110
46774 Pb ch=2 v=7022
46777 Pb ch=2 v=5852
46779 Pb ch=2 v=4682
46780 Pb ch=2 v=3502
46800 On ch=2 n=59 v=0
46800 On ch=2 n=67 v=0
46800 On ch=2 n=74 v=0
46800 Pb ch=2 v=8192
46800 On ch=2 n=70 v=104
46801 On ch=2 n=63 v=94
46802 On ch=2 n=55 v=72
46822 On ch=2 n=70 v=0
46824 On ch=2 n=63 v=0
46824 On ch=2 n=63 v=82
46824 On ch=2 n=70 v=94
46869 On ch=2 n=55 v=0
46869 On ch=2 n=63 v=0
46869 On ch=2 n=70 v=0
46872 On ch=2 n=55 v=76
46872 On ch=2 n=63 v=86
46872 On ch=2 n=70 v=95
46896 On ch=2 n=55 v=0
46896 On ch=2 n=63 v=0
46896 On ch=2 n=70 v=0
46896 On ch=2 n=55 v=77
46896 On ch=2 n=63 v=78
46896 On ch=2 n=70 v=85
46920 On ch=2 n=55 v=0
46920 On ch=2 n=63 v=0
46920 On ch=2 n=55 v=72
46920 On ch=2 n=63 v=72
46943 On ch=2 n=70 v=0
46943 On ch=2 n=55 v=0
46943 On ch=2 n=63 v=0
46943 On ch=2 n=55 v=75
46943 On ch=2 n=63 v=86
46943 On ch=2 n=70 v=90
46967 On ch=2 n=55 v=0
46967 On ch=2 n=63 v=0
46967 On ch=2 n=70 v=0
46968 On ch=2 n=55 v=72
46968 On ch=2 n=63 v=85
46968 On ch=2 n=70 v=96
46987 Pb ch=2 v=7022
46991 Pb ch=2 v=5852
46994 Pb ch=2 v=4677
47016 On ch=2 n=55 v=0
47016 On ch=2 n=63 v=0
47016 On ch=2 n=70 v=0
47016 Pb ch=2 v=8192
47016 On ch=2 n=52 v=60
47016 On ch=2 n=60 v=60
47016 On ch=2 n=67 v=77
47064 On ch=2 n=52 v=0
47064 On ch=2 n=60 v=0
47064 On ch=2 n=67 v=0
47064 On ch=2 n=52 v=92
47064 On ch=2 n=60 v=99
47064 On ch=2 n=67 v=99
47136 On ch=2 n=52 v=0
47136 On ch=2 n=60 v=0
47136 On ch=2 n=67 v=0
47136 On ch=2 n=52 v=80
47136 On ch=2 n=60 v=90
47136 On ch=2 n=67 v=105
47184 On ch=2 n=52 v=0
47184 On ch=2 n=60 v=0
47184 On ch=2 n=67 v=0
47184 On ch=2 n=52 v=75
47184 On ch=2 n=60 v=83
47184 On ch=2 n=67 v=90
47208 On ch=2 n=52 v=0
47208 On ch=2 n=60 v=0
47208 On ch=2 n=67 v=0
47208 On ch=2 n=52 v=77
47208 On ch=2 n=60 v=86
47208 On ch=2 n=67 v=92
47256 On ch=2 n=52 v=0
47256 On ch=2 n=60 v=0
47256 On ch=2 n=67 v=0
47256 On ch=2 n=52 v=77
47256 On ch=2 n=60 v=85
47256 On ch=2 n=67 v=80
47280 On ch=2 n=52 v=0
47280 On ch=2 n=60 v=0
47280 On ch=2 n=67 v=0
47280 On ch=2 n=52 v=84
47280 On ch=2 n=60 v=95
47280 On ch=2 n=67 v=100
47328 On ch=2 n=52 v=0
47328 On ch=2 n=60 v=0
47328 On ch=2 n=67 v=0
47328 On ch=2 n=52 v=79
47328 On ch=2 n=60 v=85
47328 On ch=2 n=67 v=97
47352 On ch=2 n=52 v=0
47352 On ch=2 n=60 v=0
47352 On ch=2 n=67 v=0
47352 On ch=2 n=50 v=48
47357 On ch=2 n=50 v=0
47364 On ch=2 n=51 v=46
47368 On ch=2 n=51 v=0
47372 On ch=2 n=52 v=46
47375 On ch=2 n=52 v=0
47378 On ch=2 n=53 v=45
47380 On ch=2 n=53 v=0
47382 On ch=2 n=54 v=48
47384 On ch=2 n=54 v=0
47386 On ch=2 n=55 v=51
47388 On ch=2 n=55 v=0
47390 On ch=2 n=56 v=54
47392 On ch=2 n=56 v=0
47393 On ch=2 n=57 v=60
47395 On ch=2 n=57 v=0
47396 On ch=2 n=58 v=70
47399 On ch=2 n=58 v=0
47400 On ch=2 n=59 v=77
47445 On ch=2 n=59 v=0
47448 On ch=2 n=59 v=85
47449 On ch=2 n=67 v=107
47450 On ch=2 n=74 v=112
47520 On ch=2 n=59 v=0
47520 On ch=2 n=67 v=0
47520 On ch=2 n=74 v=0
47520 On ch=2 n=59 v=87
47520 On ch=2 n=67 v=95
47520 On ch=2 n=74 v=102
47540 On ch=2 n=59 v=0
47540 On ch=2 n=67 v=0
47540 On ch=2 n=74 v=0
47568 On ch=2 n=55 v=90
47568 On ch=2 n=63 v=95
47568 On ch=2 n=70 v=99
47592 On ch=2 n=55 v=0
47592 On ch=2 n=63 v=0
47592 On ch=2 n=70 v=0
47592 On ch=2 n=55 v=74
47592 On ch=2 n=63 v=98
47592 On ch=2 n=70 v=105
47637 On ch=2 n=55 v=0
47637 On ch=2 n=63 v=0
47637 On ch=2 n=70 v=0
47640 On ch=2 n=55 v=80
47640 On ch=2 n=63 v=94
47640 On ch=2 n=70 v=102
47664 On ch=2 n=55 v=0
47664 On ch=2 n=63 v=0
47664 On ch=2 n=70 v=0
47664 On ch=2 n=55 v=78
47664 On ch=2 n=63 v=82
47664 On ch=2 n=70 v=97
47688 On ch=2 n=55 v=0
47688 On ch=2 n=63 v=0
47688 On ch=2 n=55 v=70
47688 On ch=2 n=63 v=72
47712 On ch=2 n=70 v=0
47712 On ch=2 n=55 v=0
47712 On ch=2 n=63 v=0
47712 On ch=2 n=55 v=85
47712 On ch=2 n=63 v=82
47712 On ch=2 n=70 v=96
47734 On ch=2 n=55 v=0
47734 On ch=2 n=63 v=0
47734 On ch=2 n=70 v=0
47736 On ch=2 n=55 v=70
47736 On ch=2 n=63 v=76
47736 On ch=2 n=70 v=90
47755 Pb ch=2 v=7022
47759 Pb ch=2 v=5852
47762 Pb ch=2 v=4677
47784 On ch=2 n=55 v=0
47784 On ch=2 n=63 v=0
47784 On ch=2 n=70 v=0
47784 Pb ch=2 v=8192
47784 On ch=2 n=52 v=60
47784 On ch=2 n=60 v=60
47784 On ch=2 n=67 v=77
47832 On ch=2 n=52 v=0
47832 On ch=2 n=60 v=0
47832 On ch=2 n=67 v=0
47832 On ch=2 n=52 v=92
47832 On ch=2 n=60 v=96
47832 On ch=2 n=67 v=110
47904 On ch=2 n=52 v=0
47904 On ch=2 n=60 v=0
47904 On ch=2 n=67 v=0
47904 On ch=2 n=52 v=80
47904 On ch=2 n=60 v=90
47904 On ch=2 n=67 v=96
47952 On ch=2 n=52 v=0
47952 On ch=2 n=60 v=0
47952 On ch=2 n=67 v=0
47952 On ch=2 n=52 v=75
47952 On ch=2 n=60 v=83
47952 On ch=2 n=67 v=90
47976 On ch=2 n=52 v=0
47976 On ch=2 n=60 v=0
47976 On ch=2 n=67 v=0
47976 On ch=2 n=52 v=77
47976 On ch=2 n=60 v=86
47976 On ch=2 n=67 v=92
48024 On ch=2 n=52 v=0
48024 On ch=2 n=60 v=0
48024 On ch=2 n=67 v=0
48024 On ch=2 n=52 v=77
48024 On ch=2 n=60 v=85
48024 On ch=2 n=67 v=80
48048 On ch=2 n=52 v=0
48048 On ch=2 n=60 v=0
48048 On ch=2 n=67 v=0
48048 On ch=2 n=52 v=84
48048 On ch=2 n=60 v=95
48048 On ch=2 n=67 v=100
48096 On ch=2 n=52 v=0
48096 On ch=2 n=60 v=0
48096 On ch=2 n=67 v=0
48096 On ch=2 n=52 v=79
48096 On ch=2 n=60 v=85
48096 On ch=2 n=67 v=97
48120 On ch=2 n=52 v=0
48120 On ch=2 n=60 v=0
48120 On ch=2 n=67 v=0
48120 On ch=2 n=55 v=76
48120 On ch=2 n=59 v=88
48120 On ch=2 n=67 v=84
48120 On ch=2 n=74 v=106
48168 On ch=2 n=55 v=0
48168 On ch=2 n=59 v=0
48168 On ch=2 n=67 v=0
48168 On ch=2 n=55 v=60
48168 On ch=2 n=59 v=80
48216 On ch=2 n=74 v=0
48216 On ch=2 n=55 v=0
48216 On ch=2 n=59 v=0
48216 On ch=2 n=55 v=85
48216 On ch=2 n=59 v=88
48216 On ch=2 n=67 v=86
48216 On ch=2 n=74 v=100
48264 On ch=2 n=55 v=0
48281 On ch=2 n=67 v=0
48284 On ch=2 n=59 v=0
48284 On ch=2 n=74 v=0
48288 On ch=2 n=59 v=80
48288 On ch=2 n=67 v=82
48288 On ch=2 n=74 v=96
48310 On ch=2 n=59 v=0
48310 On ch=2 n=67 v=0
48310 On ch=2 n=74 v=0
48336 On ch=2 n=55 v=88
48336 On ch=2 n=63 v=90
48336 On ch=2 n=70 v=90
48360 On ch=2 n=55 v=0
48360 On ch=2 n=63 v=0
48360 On ch=2 n=70 v=0
48360 On ch=2 n=55 v=78
48360 On ch=2 n=63 v=95
48360 On ch=2 n=70 v=106
48405 On ch=2 n=55 v=0
48405 On ch=2 n=63 v=0
48405 On ch=2 n=70 v=0
48408 On ch=2 n=55 v=80
48408 On ch=2 n=63 v=94
48408 On ch=2 n=70 v=102
48432 On ch=2 n=63 v=0
48432 On ch=2 n=63 v=70
48456 On ch=2 n=55 v=0
48456 On ch=2 n=63 v=0
48456 On ch=2 n=55 v=70
48456 On ch=2 n=63 v=72
48457 On ch=2 n=70 v=0
48480 On ch=2 n=55 v=0
48480 On ch=2 n=63 v=0
48480 On ch=2 n=55 v=85
48480 On ch=2 n=63 v=82
48480 On ch=2 n=70 v=96
48502 On ch=2 n=55 v=0
48502 On ch=2 n=63 v=0
48502 On ch=2 n=70 v=0
48504 On ch=2 n=55 v=70
48504 On ch=2 n=63 v=76
48504 On ch=2 n=70 v=90
48552 On ch=2 n=55 v=0
48552 On ch=2 n=63 v=0
48552 On ch=2 n=70 v=0
48552 On ch=2 n=52 v=60
48552 On ch=2 n=60 v=60
48596 On ch=2 n=52 v=0
48596 On ch=2 n=60 v=0
48600 On ch=2 n=52 v=92
48600 On ch=2 n=60 v=96
48600 On ch=2 n=67 v=103
48600 On ch=2 n=72 v=108
48672 On ch=2 n=52 v=0
48672 On ch=2 n=60 v=0
48672 On ch=2 n=67 v=0
48672 On ch=2 n=72 v=0
48672 On ch=2 n=52 v=80
48672 On ch=2 n=60 v=90
48672 On ch=2 n=67 v=96
48720 On ch=2 n=52 v=0
48720 On ch=2 n=60 v=0
48720 On ch=2 n=67 v=0
48720 On ch=2 n=52 v=75
48720 On ch=2 n=60 v=83
48720 On ch=2 n=67 v=90
48744 On ch=2 n=52 v=0
48744 On ch=2 n=60 v=0
48744 On ch=2 n=67 v=0
48744 On ch=2 n=52 v=77
48744 On ch=2 n=60 v=86
48744 On ch=2 n=67 v=92
48792 On ch=2 n=52 v=0
48792 On ch=2 n=60 v=0
48792 On ch=2 n=67 v=0
48792 On ch=2 n=52 v=77
48792 On ch=2 n=60 v=85
48792 On ch=2 n=67 v=80
48816 On ch=2 n=52 v=0
48816 On ch=2 n=60 v=0
48816 On ch=2 n=67 v=0
48816 On ch=2 n=52 v=84
48816 On ch=2 n=60 v=95
48816 On ch=2 n=67 v=100
48864 On ch=2 n=52 v=0
48864 On ch=2 n=60 v=0
48864 On ch=2 n=67 v=0
48864 On ch=2 n=52 v=79
48864 On ch=2 n=60 v=85
48864 On ch=2 n=67 v=97
48888 On ch=2 n=52 v=0
48888 On ch=2 n=60 v=0
48888 On ch=2 n=67 v=0
48888 On ch=2 n=50 v=60
48888 On ch=2 n=59 v=77
48936 On ch=2 n=59 v=0
48936 On ch=2 n=59 v=77
48984 On ch=2 n=50 v=0
48984 On ch=2 n=59 v=0
48984 On ch=2 n=59 v=77
48984 On ch=2 n=67 v=100
48984 On ch=2 n=74 v=109
49008 On ch=2 n=67 v=0
49008 On ch=2 n=74 v=0
49008 On ch=2 n=67 v=88
49008 On ch=2 n=74 v=96
49031 On ch=2 n=67 v=0
49032 On ch=2 n=74 v=0
49032 On ch=2 n=67 v=60
49032 On ch=2 n=74 v=60
49055 On ch=2 n=74 v=0
49056 On ch=2 n=59 v=0
49056 On ch=2 n=67 v=0
49056 On ch=2 n=59 v=70
49056 On ch=2 n=67 v=102
49056 On ch=2 n=74 v=103
49078 Pb ch=2 v=7022
49081 Pb ch=2 v=5852
49083 Pb ch=2 v=4682
49084 Pb ch=2 v=3502
49104 On ch=2 n=59 v=0
49104 On ch=2 n=67 v=0
49104 On ch=2 n=74 v=0
49104 Pb ch=2 v=8192
49104 On ch=2 n=70 v=104
49105 On ch=2 n=63 v=94
49106 On ch=2 n=55 v=72
49126 On ch=2 n=70 v=0
49128 On ch=2 n=63 v=0
49128 On ch=2 n=63 v=82
49128 On ch=2 n=70 v=94
49173 On ch=2 n=55 v=0
49173 On ch=2 n=63 v=0
49173 On ch=2 n=70 v=0
49176 On ch=2 n=55 v=76
49176 On ch=2 n=63 v=86
49176 On ch=2 n=70 v=95
49200 On ch=2 n=55 v=0
49200 On ch=2 n=63 v=0
49200 On ch=2 n=70 v=0
49200 On ch=2 n=55 v=77
49200 On ch=2 n=63 v=78
49200 On ch=2 n=70 v=85
49224 On ch=2 n=55 v=0
49224 On ch=2 n=63 v=0
49224 On ch=2 n=55 v=72
49224 On ch=2 n=63 v=72
49247 On ch=2 n=70 v=0
49247 On ch=2 n=55 v=0
49247 On ch=2 n=63 v=0
49247 On ch=2 n=55 v=75
49247 On ch=2 n=63 v=86
49247 On ch=2 n=70 v=90
49271 On ch=2 n=55 v=0
49271 On ch=2 n=63 v=0
49271 On ch=2 n=70 v=0
49272 On ch=2 n=55 v=72
49272 On ch=2 n=63 v=85
49272 On ch=2 n=70 v=96
49291 Pb ch=2 v=7022
49295 Pb ch=2 v=5852
49298 Pb ch=2 v=4677
49320 On ch=2 n=55 v=0
49320 On ch=2 n=63 v=0
49320 On ch=2 n=70 v=0
49320 Pb ch=2 v=8192
49320 On ch=2 n=52 v=60
49320 On ch=2 n=60 v=77
49320 On ch=2 n=67 v=85
49368 On ch=2 n=52 v=0
49368 On ch=2 n=60 v=0
49368 On ch=2 n=67 v=0
49368 On ch=2 n=52 v=92
49368 On ch=2 n=60 v=90
49368 On ch=2 n=67 v=103
49440 On ch=2 n=52 v=0
49440 On ch=2 n=60 v=0
49440 On ch=2 n=67 v=0
49440 On ch=2 n=52 v=80
49440 On ch=2 n=60 v=90
49440 On ch=2 n=67 v=96
49488 On ch=2 n=52 v=0
49488 On ch=2 n=60 v=0
49488 On ch=2 n=67 v=0
49488 On ch=2 n=52 v=75
49488 On ch=2 n=60 v=83
49488 On ch=2 n=67 v=90
49512 On ch=2 n=52 v=0
49512 On ch=2 n=60 v=0
49512 On ch=2 n=67 v=0
49512 On ch=2 n=52 v=77
49512 On ch=2 n=60 v=86
49512 On ch=2 n=67 v=92
49560 On ch=2 n=52 v=0
49560 On ch=2 n=60 v=0
49560 On ch=2 n=67 v=0
49560 On ch=2 n=52 v=77
49560 On ch=2 n=60 v=85
49560 On ch=2 n=67 v=80
49584 On ch=2 n=52 v=0
49584 On ch=2 n=60 v=0
49584 On ch=2 n=67 v=0
49584 On ch=2 n=52 v=84
49584 On ch=2 n=60 v=95
49584 On ch=2 n=67 v=100
49632 On ch=2 n=52 v=0
49632 On ch=2 n=60 v=0
49632 On ch=2 n=67 v=0
49632 On ch=2 n=52 v=79
49632 On ch=2 n=60 v=85
49632 On ch=2 n=67 v=97
49656 On ch=2 n=52 v=0
49656 On ch=2 n=60 v=0
49656 On ch=2 n=67 v=0
49656 On ch=2 n=50 v=60
49656 On ch=2 n=59 v=77
49704 On ch=2 n=59 v=0
49704 On ch=2 n=59 v=77
49752 On ch=2 n=50 v=0
49752 On ch=2 n=59 v=0
49752 On ch=2 n=59 v=77
49752 On ch=2 n=67 v=90
49752 On ch=2 n=74 v=102
49800 On ch=2 n=59 v=0
49800 On ch=2 n=67 v=0
49800 On ch=2 n=59 v=62
49800 On ch=2 n=67 v=63
49822 On ch=2 n=59 v=0
49822 On ch=2 n=67 v=0
49824 On ch=2 n=74 v=0
49824 On ch=2 n=59 v=70
49824 On ch=2 n=67 v=95
49824 On ch=2 n=74 v=103
49846 Pb ch=2 v=7022
49849 Pb ch=2 v=5852
49851 Pb ch=2 v=4682
49852 Pb ch=2 v=3502
49872 On ch=2 n=59 v=0
49872 On ch=2 n=67 v=0
49872 On ch=2 n=74 v=0
49872 Pb ch=2 v=8192
49872 On ch=2 n=70 v=95
49873 On ch=2 n=63 v=80
49874 On ch=2 n=55 v=72
49894 On ch=2 n=70 v=0
49896 On ch=2 n=63 v=0
49896 On ch=2 n=63 v=82
49896 On ch=2 n=70 v=94
49941 On ch=2 n=55 v=0
49941 On ch=2 n=63 v=0
49941 On ch=2 n=70 v=0
49944 On ch=2 n=55 v=76
49944 On ch=2 n=63 v=86
49944 On ch=2 n=70 v=95
49968 On ch=2 n=55 v=0
49968 On ch=2 n=63 v=0
49968 On ch=2 n=70 v=0
49968 On ch=2 n=55 v=77
49968 On ch=2 n=63 v=78
49968 On ch=2 n=70 v=85
49992 On ch=2 n=55 v=0
49992 On ch=2 n=63 v=0
49992 On ch=2 n=55 v=72
49992 On ch=2 n=63 v=72
50015 On ch=2 n=70 v=0
50015 On ch=2 n=55 v=0
50015 On ch=2 n=63 v=0
50015 On ch=2 n=55 v=75
50015 On ch=2 n=63 v=86
50015 On ch=2 n=70 v=90
50039 On ch=2 n=55 v=0
50039 On ch=2 n=63 v=0
50039 On ch=2 n=70 v=0
50040 On ch=2 n=55 v=72
50040 On ch=2 n=63 v=90
50040 On ch=2 n=70 v=104
50059 Pb ch=2 v=7022
50063 Pb ch=2 v=5852
50066 Pb ch=2 v=4677
50088 On ch=2 n=55 v=0
50088 On ch=2 n=63 v=0
50088 On ch=2 n=70 v=0
50088 Pb ch=2 v=8192
50088 On ch=2 n=52 v=60
50088 On ch=2 n=60 v=60
50088 On ch=2 n=67 v=77
50136 On ch=2 n=52 v=0
50136 On ch=2 n=60 v=0
50136 On ch=2 n=67 v=0
50136 On ch=2 n=52 v=92
50136 On ch=2 n=60 v=90
50136 On ch=2 n=67 v=99
50208 On ch=2 n=52 v=0
50208 On ch=2 n=60 v=0
50208 On ch=2 n=67 v=0
50208 On ch=2 n=52 v=80
50208 On ch=2 n=60 v=90
50208 On ch=2 n=67 v=96
50256 On ch=2 n=52 v=0
50256 On ch=2 n=60 v=0
50256 On ch=2 n=67 v=0
50256 On ch=2 n=52 v=75
50256 On ch=2 n=60 v=83
50256 On ch=2 n=67 v=90
50280 On ch=2 n=52 v=0
50280 On ch=2 n=60 v=0
50280 On ch=2 n=67 v=0
50280 On ch=2 n=52 v=77
50280 On ch=2 n=60 v=86
50280 On ch=2 n=67 v=92
50328 On ch=2 n=52 v=0
50328 On ch=2 n=60 v=0
50328 On ch=2 n=67 v=0
50328 On ch=2 n=52 v=77
50328 On ch=2 n=60 v=85
50328 On ch=2 n=67 v=80
50352 On ch=2 n=52 v=0
50352 On ch=2 n=60 v=0
50352 On ch=2 n=67 v=0
50352 On ch=2 n=52 v=84
50352 On ch=2 n=60 v=98
50352 On ch=2 n=67 v=104
50400 On ch=2 n=52 v=0
50400 On ch=2 n=60 v=0
50400 On ch=2 n=67 v=0
50400 On ch=2 n=52 v=79
50400 On ch=2 n=60 v=85
50400 On ch=2 n=67 v=97
50424 On ch=2 n=52 v=0
50424 On ch=2 n=60 v=0
50424 On ch=2 n=67 v=0
50424 On ch=2 n=50 v=60
50424 On ch=2 n=59 v=77
50472 On ch=2 n=59 v=0
50472 On ch=2 n=59 v=77
50520 On ch=2 n=50 v=0
50520 On ch=2 n=59 v=0
50520 On ch=2 n=59 v=77
50520 On ch=2 n=67 v=86
50520 On ch=2 n=74 v=99
50544 On ch=2 n=67 v=0
50544 On ch=2 n=74 v=0
50544 On ch=2 n=67 v=102
50589 On ch=2 n=59 v=0
50589 On ch=2 n=67 v=0
50592 On ch=2 n=59 v=70
50592 On ch=2 n=67 v=95
50592 On ch=2 n=74 v=103
50614 Pb ch=2 v=7022
50617 On ch=2 n=59 v=0
50617 On ch=2 n=67 v=0
50617 On ch=2 n=74 v=0
50640 Pb ch=2 v=8192
50640 On ch=2 n=70 v=95
50641 On ch=2 n=63 v=80
50642 On ch=2 n=55 v=72
50662 On ch=2 n=70 v=0
50664 On ch=2 n=63 v=0
50664 On ch=2 n=63 v=82
50664 On ch=2 n=70 v=94
50709 On ch=2 n=55 v=0
50709 On ch=2 n=63 v=0
50709 On ch=2 n=70 v=0
50712 On ch=2 n=55 v=76
50712 On ch=2 n=63 v=86
50712 On ch=2 n=70 v=95
50736 On ch=2 n=55 v=0
50736 On ch=2 n=63 v=0
50736 On ch=2 n=70 v=0
50736 On ch=2 n=55 v=77
50736 On ch=2 n=63 v=78
50736 On ch=2 n=70 v=85
50760 On ch=2 n=55 v=0
50760 On ch=2 n=63 v=0
50760 On ch=2 n=55 v=72
50760 On ch=2 n=63 v=60
50783 On ch=2 n=70 v=0
50783 On ch=2 n=55 v=0
50783 On ch=2 n=63 v=0
50783 On ch=2 n=55 v=75
50783 On ch=2 n=63 v=86
50783 On ch=2 n=70 v=90
50807 On ch=2 n=55 v=0
50807 On ch=2 n=63 v=0
50807 On ch=2 n=70 v=0
50808 On ch=2 n=55 v=72
50808 On ch=2 n=63 v=90
50808 On ch=2 n=70 v=104
50827 Pb ch=2 v=7022
50831 Pb ch=2 v=5852
50834 Pb ch=2 v=4677
50856 On ch=2 n=55 v=0
50856 On ch=2 n=63 v=0
50856 On ch=2 n=70 v=0
50856 Pb ch=2 v=8192
50856 On ch=2 n=52 v=60
50856 On ch=2 n=60 v=60
50856 On ch=2 n=67 v=77
50904 On ch=2 n=52 v=0
50904 On ch=2 n=60 v=0
50904 On ch=2 n=67 v=0
50904 On ch=2 n=52 v=92
50904 On ch=2 n=60 v=90
50904 On ch=2 n=67 v=99
50976 On ch=2 n=52 v=0
50976 On ch=2 n=60 v=0
50976 On ch=2 n=67 v=0
50976 On ch=2 n=52 v=80
50976 On ch=2 n=60 v=90
50976 On ch=2 n=67 v=96
51024 On ch=2 n=52 v=0
51024 On ch=2 n=60 v=0
51024 On ch=2 n=67 v=0
51024 On ch=2 n=52 v=75
51024 On ch=2 n=60 v=83
51024 On ch=2 n=67 v=90
51048 On ch=2 n=52 v=0
51048 On ch=2 n=60 v=0
51048 On ch=2 n=67 v=0
51048 On ch=2 n=52 v=77
51048 On ch=2 n=60 v=86
51048 On ch=2 n=67 v=92
51096 On ch=2 n=52 v=0
51096 On ch=2 n=60 v=0
51096 On ch=2 n=67 v=0
51096 On ch=2 n=52 v=77
51096 On ch=2 n=60 v=85
51096 On ch=2 n=67 v=80
51120 On ch=2 n=52 v=0
51120 On ch=2 n=60 v=0
51120 On ch=2 n=67 v=0
51120 On ch=2 n=52 v=84
51120 On ch=2 n=60 v=95
51120 On ch=2 n=67 v=100
51168 On ch=2 n=52 v=0
51168 On ch=2 n=60 v=0
51168 On ch=2 n=67 v=0
51168 On ch=2 n=52 v=79
51168 On ch=2 n=60 v=85
51168 On ch=2 n=67 v=97
51192 On ch=2 n=52 v=0
51192 On ch=2 n=60 v=0
51192 On ch=2 n=67 v=0
51192 On ch=2 n=50 v=60
51192 On ch=2 n=59 v=77
51240 On ch=2 n=59 v=0
51240 On ch=2 n=59 v=77
51288 On ch=2 n=50 v=0
51288 On ch=2 n=59 v=0
51288 On ch=2 n=59 v=77
51288 On ch=2 n=67 v=90
51288 On ch=2 n=74 v=102
51336 On ch=2 n=59 v=0
51336 On ch=2 n=67 v=0
51336 On ch=2 n=59 v=62
51336 On ch=2 n=67 v=63
51358 On ch=2 n=59 v=0
51358 On ch=2 n=67 v=0
51360 On ch=2 n=74 v=0
51360 On ch=2 n=59 v=70
51360 On ch=2 n=67 v=95
51360 On ch=2 n=74 v=103
51382 Pb ch=2 v=7022
51385 On ch=2 n=59 v=0
51385 On ch=2 n=67 v=0
51385 On ch=2 n=74 v=0
51408 Pb ch=2 v=8192
51408 On ch=2 n=70 v=95
51409 On ch=2 n=63 v=80
51410 On ch=2 n=55 v=72
51430 On ch=2 n=70 v=0
51432 On ch=2 n=63 v=0
51432 On ch=2 n=63 v=82
51432 On ch=2 n=70 v=94
51477 On ch=2 n=55 v=0
51477 On ch=2 n=63 v=0
51477 On ch=2 n=70 v=0
51480 On ch=2 n=55 v=76
51480 On ch=2 n=63 v=86
51480 On ch=2 n=70 v=95
51504 On ch=2 n=55 v=0
51504 On ch=2 n=63 v=0
51504 On ch=2 n=70 v=0
51504 On ch=2 n=55 v=77
51504 On ch=2 n=63 v=78
51504 On ch=2 n=70 v=85
51528 On ch=2 n=55 v=0
51528 On ch=2 n=63 v=0
51528 On ch=2 n=55 v=72
51528 On ch=2 n=63 v=72
51551 On ch=2 n=70 v=0
51551 On ch=2 n=55 v=0
51551 On ch=2 n=63 v=0
51551 On ch=2 n=55 v=75
51551 On ch=2 n=63 v=86
51551 On ch=2 n=70 v=90
51575 On ch=2 n=55 v=0
51575 On ch=2 n=63 v=0
51575 On ch=2 n=70 v=0
51576 On ch=2 n=55 v=72
51576 On ch=2 n=63 v=90
51576 On ch=2 n=70 v=104
51595 Pb ch=2 v=7022
51599 Pb ch=2 v=5852
51602 Pb ch=2 v=4677
51624 On ch=2 n=55 v=0
51624 On ch=2 n=63 v=0
51624 On ch=2 n=70 v=0
51624 Pb ch=2 v=8192
51624 On ch=2 n=52 v=60
51624 On ch=2 n=60 v=60
51624 On ch=2 n=67 v=77
51672 On ch=2 n=52 v=0
51672 On ch=2 n=60 v=0
51672 On ch=2 n=67 v=0
51672 On ch=2 n=52 v=92
51672 On ch=2 n=60 v=90
51672 On ch=2 n=67 v=104
51744 On ch=2 n=52 v=0
51744 On ch=2 n=60 v=0
51744 On ch=2 n=67 v=0
51744 On ch=2 n=52 v=80
51744 On ch=2 n=60 v=90
51744 On ch=2 n=67 v=96
51792 On ch=2 n=52 v=0
51792 On ch=2 n=60 v=0
51792 On ch=2 n=67 v=0
51792 On ch=2 n=52 v=75
51792 On ch=2 n=60 v=83
51792 On ch=2 n=67 v=90
51816 On ch=2 n=52 v=0
51816 On ch=2 n=60 v=0
51816 On ch=2 n=67 v=0
51816 On ch=2 n=52 v=77
51816 On ch=2 n=60 v=86
51816 On ch=2 n=67 v=92
51864 On ch=2 n=52 v=0
51864 On ch=2 n=60 v=0
51864 On ch=2 n=67 v=0
51864 On ch=2 n=52 v=77
51864 On ch=2 n=60 v=85
51864 On ch=2 n=67 v=80
51888 On ch=2 n=52 v=0
51888 On ch=2 n=60 v=0
51888 On ch=2 n=67 v=0
51888 On ch=2 n=52 v=84
51888 On ch=2 n=60 v=95
51888 On ch=2 n=67 v=100
51936 On ch=2 n=52 v=0
51936 On ch=2 n=60 v=0
51936 On ch=2 n=67 v=0
51936 On ch=2 n=52 v=79
51936 On ch=2 n=60 v=85
51936 On ch=2 n=67 v=97
51960 On ch=2 n=52 v=0
51960 On ch=2 n=60 v=0
51960 On ch=2 n=67 v=0
51960 On ch=2 n=50 v=80
51960 On ch=2 n=59 v=100
52008 On ch=2 n=50 v=0
52008 On ch=2 n=50 v=60
52056 On ch=2 n=59 v=0
52056 On ch=2 n=50 v=0
52056 On ch=2 n=50 v=80
52056 On ch=2 n=59 v=77
52056 On ch=2 n=67 v=80
52104 On ch=2 n=50 v=0
52104 On ch=2 n=59 v=0
52104 On ch=2 n=50 v=80
52104 On ch=2 n=59 v=80
52128 On ch=2 n=67 v=0
52128 On ch=2 n=50 v=0
52128 On ch=2 n=59 v=0
52128 On ch=2 n=50 v=80
52128 On ch=2 n=59 v=90
52128 On ch=2 n=67 v=80
52150 On ch=2 n=50 v=0
52150 On ch=2 n=59 v=0
52150 On ch=2 n=67 v=0
52176 Pb ch=2 v=8192
52176 On ch=2 n=70 v=95
52177 On ch=2 n=63 v=80
52178 On ch=2 n=55 v=72
52198 On ch=2 n=70 v=0
52200 On ch=2 n=63 v=0
52200 On ch=2 n=63 v=82
52200 On ch=2 n=70 v=94
52245 On ch=2 n=55 v=0
52245 On ch=2 n=63 v=0
52245 On ch=2 n=70 v=0
52248 On ch=2 n=55 v=76
52248 On ch=2 n=63 v=86
52248 On ch=2 n=70 v=95
52272 On ch=2 n=55 v=0
52272 On ch=2 n=63 v=0
52272 On ch=2 n=70 v=0
52272 On ch=2 n=55 v=77
52272 On ch=2 n=63 v=78
52272 On ch=2 n=70 v=85
52296 On ch=2 n=55 v=0
52296 On ch=2 n=63 v=0
52296 On ch=2 n=55 v=72
52296 On ch=2 n=63 v=72
52319 On ch=2 n=70 v=0
52319 On ch=2 n=55 v=0
52319 On ch=2 n=63 v=0
52319 On ch=2 n=55 v=75
52319 On ch=2 n=63 v=86
52319 On ch=2 n=70 v=90
52343 On ch=2 n=55 v=0
52343 On ch=2 n=63 v=0
52343 On ch=2 n=70 v=0
52344 On ch=2 n=55 v=72
52344 On ch=2 n=63 v=90
52344 On ch=2 n=70 v=104
52363 Pb ch=2 v=7022
52367 Pb ch=2 v=5852
52370 Pb ch=2 v=4677
52392 On ch=2 n=55 v=0
52392 On ch=2 n=63 v=0
52392 On ch=2 n=70 v=0
52392 Pb ch=2 v=8192
52392 On ch=2 n=52 v=60
52392 On ch=2 n=60 v=60
52392 On ch=2 n=67 v=77
52440 On ch=2 n=52 v=0
52440 On ch=2 n=60 v=0
52440 On ch=2 n=67 v=0
52440 On ch=2 n=52 v=92
52440 On ch=2 n=60 v=90
52440 On ch=2 n=67 v=104
52512 On ch=2 n=52 v=0
52512 On ch=2 n=60 v=0
52512 On ch=2 n=67 v=0
52512 On ch=2 n=52 v=80
52512 On ch=2 n=60 v=90
52512 On ch=2 n=67 v=96
52560 On ch=2 n=52 v=0
52560 On ch=2 n=60 v=0
52560 On ch=2 n=67 v=0
52560 On ch=2 n=52 v=75
52560 On ch=2 n=60 v=83
52560 On ch=2 n=67 v=90
52584 On ch=2 n=52 v=0
52584 On ch=2 n=60 v=0
52584 On ch=2 n=67 v=0
52584 On ch=2 n=52 v=77
52584 On ch=2 n=60 v=86
52584 On ch=2 n=67 v=92
52632 On ch=2 n=52 v=0
52632 On ch=2 n=60 v=0
52632 On ch=2 n=67 v=0
52632 On ch=2 n=52 v=77
52632 On ch=2 n=60 v=85
52632 On ch=2 n=67 v=80
52656 On ch=2 n=52 v=0
52656 On ch=2 n=60 v=0
52656 On ch=2 n=67 v=0
52656 On ch=2 n=52 v=84
52656 On ch=2 n=60 v=95
52656 On ch=2 n=67 v=100
52704 On ch=2 n=52 v=0
52704 On ch=2 n=60 v=0
52704 On ch=2 n=67 v=0
52704 On ch=2 n=52 v=79
52704 On ch=2 n=60 v=85
52704 On ch=2 n=67 v=97
52728 On ch=2 n=52 v=0
52728 On ch=2 n=60 v=0
52728 On ch=2 n=67 v=0
52728 On ch=2 n=50 v=60
52728 On ch=2 n=59 v=77
52776 On ch=2 n=59 v=0
52776 On ch=2 n=59 v=77
52824 On ch=2 n=50 v=0
52824 On ch=2 n=59 v=0
52824 On ch=2 n=59 v=77
52824 On ch=2 n=67 v=90
52824 On ch=2 n=74 v=102
52872 On ch=2 n=59 v=0
52872 On ch=2 n=67 v=0
52872 On ch=2 n=59 v=62
52872 On ch=2 n=67 v=63
52894 On ch=2 n=59 v=0
52894 On ch=2 n=67 v=0
52896 On ch=2 n=74 v=0
52896 On ch=2 n=59 v=70
52896 On ch=2 n=67 v=95
52896 On ch=2 n=74 v=103
52918 Pb ch=2 v=7022
52921 Pb ch=2 v=5852
52923 Pb ch=2 v=4682
52924 Pb ch=2 v=3502
52944 On ch=2 n=59 v=0
52944 On ch=2 n=67 v=0
52944 On ch=2 n=74 v=0
52944 Pb ch=2 v=8192
52944 On ch=2 n=70 v=95
52945 On ch=2 n=63 v=80
52946 On ch=2 n=55 v=72
52966 On ch=2 n=70 v=0
52968 On ch=2 n=63 v=0
52968 On ch=2 n=63 v=82
52968 On ch=2 n=70 v=94
53013 On ch=2 n=55 v=0
53013 On ch=2 n=63 v=0
53013 On ch=2 n=70 v=0
53016 On ch=2 n=55 v=76
53016 On ch=2 n=63 v=86
53016 On ch=2 n=70 v=95
53040 On ch=2 n=55 v=0
53040 On ch=2 n=63 v=0
53040 On ch=2 n=70 v=0
53040 On ch=2 n=55 v=77
53040 On ch=2 n=63 v=78
53040 On ch=2 n=70 v=85
53064 On ch=2 n=55 v=0
53064 On ch=2 n=63 v=0
53064 On ch=2 n=55 v=72
53064 On ch=2 n=63 v=72
53087 On ch=2 n=70 v=0
53087 On ch=2 n=55 v=0
53087 On ch=2 n=63 v=0
53087 On ch=2 n=55 v=75
53087 On ch=2 n=63 v=86
53087 On ch=2 n=70 v=90
53111 On ch=2 n=55 v=0
53111 On ch=2 n=63 v=0
53111 On ch=2 n=70 v=0
53112 On ch=2 n=55 v=72
53112 On ch=2 n=63 v=90
53112 On ch=2 n=70 v=104
53131 Pb ch=2 v=7022
53135 Pb ch=2 v=5852
53138 Pb ch=2 v=4677
53160 On ch=2 n=55 v=0
53160 On ch=2 n=63 v=0
53160 On ch=2 n=70 v=0
53160 Pb ch=2 v=8192
53160 On ch=2 n=52 v=60
53160 On ch=2 n=60 v=60
53160 On ch=2 n=67 v=77
53208 On ch=2 n=52 v=0
53208 On ch=2 n=60 v=0
53208 On ch=2 n=67 v=0
53208 On ch=2 n=52 v=92
53208 On ch=2 n=60 v=90
53208 On ch=2 n=67 v=99
53280 On ch=2 n=52 v=0
53280 On ch=2 n=60 v=0
53280 On ch=2 n=67 v=0
53280 On ch=2 n=52 v=80
53280 On ch=2 n=60 v=90
53280 On ch=2 n=67 v=96
53328 On ch=2 n=52 v=0
53328 On ch=2 n=60 v=0
53328 On ch=2 n=67 v=0
53328 On ch=2 n=52 v=75
53328 On ch=2 n=60 v=83
53328 On ch=2 n=67 v=90
53352 On ch=2 n=52 v=0
53352 On ch=2 n=60 v=0
53352 On ch=2 n=67 v=0
53352 On ch=2 n=52 v=77
53352 On ch=2 n=60 v=86
53352 On ch=2 n=67 v=92
53400 On ch=2 n=52 v=0
53400 On ch=2 n=60 v=0
53400 On ch=2 n=67 v=0
53400 On ch=2 n=52 v=77
53400 On ch=2 n=60 v=85
53400 On ch=2 n=67 v=80
53424 On ch=2 n=52 v=0
53424 On ch=2 n=60 v=0
53424 On ch=2 n=67 v=0
53424 On ch=2 n=52 v=84
53424 On ch=2 n=60 v=98
53424 On ch=2 n=67 v=104
53472 On ch=2 n=52 v=0
53472 On ch=2 n=60 v=0
53472 On ch=2 n=67 v=0
53472 On ch=2 n=52 v=79
53472 On ch=2 n=60 v=85
53472 On ch=2 n=67 v=97
53496 On ch=2 n=52 v=0
53496 On ch=2 n=60 v=0
53496 On ch=2 n=67 v=0
53496 On ch=2 n=50 v=60
53496 On ch=2 n=59 v=77
53544 On ch=2 n=59 v=0
53544 On ch=2 n=59 v=77
53592 On ch=2 n=50 v=0
53592 On ch=2 n=59 v=0
53592 On ch=2 n=59 v=77
53592 On ch=2 n=67 v=90
53592 On ch=2 n=74 v=102
53640 On ch=2 n=59 v=0
53640 On ch=2 n=67 v=0
53640 On ch=2 n=59 v=62
53640 On ch=2 n=67 v=63
53662 On ch=2 n=59 v=0
53662 On ch=2 n=67 v=0
53664 On ch=2 n=74 v=0
53664 On ch=2 n=59 v=70
53664 On ch=2 n=67 v=95
53664 On ch=2 n=74 v=103
53686 Pb ch=2 v=7022
53689 Pb ch=2 v=5852
53691 Pb ch=2 v=4682
53692 Pb ch=2 v=3502
53712 On ch=2 n=59 v=0
53712 On ch=2 n=67 v=0
53712 On ch=2 n=74 v=0
53712 Pb ch=2 v=8192
53712 On ch=2 n=70 v=95
53713 On ch=2 n=63 v=80
53714 On ch=2 n=55 v=72
53734 On ch=2 n=70 v=0
53736 On ch=2 n=63 v=0
53736 On ch=2 n=63 v=82
53736 On ch=2 n=70 v=94
53781 On ch=2 n=55 v=0
53781 On ch=2 n=63 v=0
53781 On ch=2 n=70 v=0
53784 On ch=2 n=55 v=76
53784 On ch=2 n=63 v=86
53784 On ch=2 n=70 v=95
53808 On ch=2 n=55 v=0
53808 On ch=2 n=63 v=0
53808 On ch=2 n=70 v=0
53808 On ch=2 n=55 v=77
53808 On ch=2 n=63 v=78
53808 On ch=2 n=70 v=85
53832 On ch=2 n=55 v=0
53832 On ch=2 n=63 v=0
53832 On ch=2 n=55 v=72
53832 On ch=2 n=63 v=72
53855 On ch=2 n=70 v=0
53855 On ch=2 n=55 v=0
53855 On ch=2 n=63 v=0
53855 On ch=2 n=55 v=75
53855 On ch=2 n=63 v=86
53855 On ch=2 n=70 v=90
53879 On ch=2 n=55 v=0
53879 On ch=2 n=63 v=0
53879 On ch=2 n=70 v=0
53880 On ch=2 n=55 v=72
53880 On ch=2 n=63 v=90
53880 On ch=2 n=70 v=104
53899 Pb ch=2 v=7022
53903 Pb ch=2 v=5852
53906 Pb ch=2 v=4677
53928 On ch=2 n=55 v=0
53928 On ch=2 n=63 v=0
53928 On ch=2 n=70 v=0
53928 Pb ch=2 v=8192
53928 On ch=2 n=52 v=60
53928 On ch=2 n=60 v=60
53928 On ch=2 n=67 v=77
53976 On ch=2 n=52 v=0
53976 On ch=2 n=60 v=0
53976 On ch=2 n=67 v=0
53976 On ch=2 n=52 v=92
53976 On ch=2 n=60 v=90
53976 On ch=2 n=67 v=99
54048 On ch=2 n=52 v=0
54048 On ch=2 n=60 v=0
54048 On ch=2 n=67 v=0
54048 On ch=2 n=52 v=80
54048 On ch=2 n=60 v=90
54048 On ch=2 n=67 v=96
54096 On ch=2 n=52 v=0
54096 On ch=2 n=60 v=0
54096 On ch=2 n=67 v=0
54096 On ch=2 n=52 v=75
54096 On ch=2 n=60 v=83
54096 On ch=2 n=67 v=90
54120 On ch=2 n=52 v=0
54120 On ch=2 n=60 v=0
54120 On ch=2 n=67 v=0
54120 On ch=2 n=52 v=77
54120 On ch=2 n=60 v=86
54120 On ch=2 n=67 v=92
54168 On ch=2 n=52 v=0
54168 On ch=2 n=60 v=0
54168 On ch=2 n=67 v=0
54168 On ch=2 n=52 v=77
54168 On ch=2 n=60 v=85
54168 On ch=2 n=67 v=80
54192 On ch=2 n=52 v=0
54192 On ch=2 n=60 v=0
54192 On ch=2 n=67 v=0
54192 On ch=2 n=52 v=84
54192 On ch=2 n=60 v=98
54192 On ch=2 n=67 v=104
54240 On ch=2 n=52 v=0
54240 On ch=2 n=60 v=0
54240 On ch=2 n=67 v=0
54240 On ch=2 n=52 v=79
54240 On ch=2 n=60 v=85
54240 On ch=2 n=67 v=97
54264 On ch=2 n=52 v=0
54264 On ch=2 n=60 v=0
54264 On ch=2 n=67 v=0
54264 On ch=2 n=50 v=60
54264 On ch=2 n=59 v=77
54312 On ch=2 n=59 v=0
54312 On ch=2 n=59 v=77
54360 On ch=2 n=50 v=0
54360 On ch=2 n=59 v=0
54360 On ch=2 n=59 v=77
54360 On ch=2 n=67 v=90
54360 On ch=2 n=74 v=102
54384 On ch=2 n=67 v=0
54384 On ch=2 n=74 v=0
54384 On ch=2 n=67 v=94
54384 On ch=2 n=74 v=106
54407 On ch=2 n=67 v=0
54408 On ch=2 n=74 v=0
54408 On ch=2 n=67 v=70
54408 On ch=2 n=74 v=72
54431 On ch=2 n=74 v=0
54432 On ch=2 n=59 v=0
54432 On ch=2 n=67 v=0
54432 On ch=2 n=59 v=84
54432 On ch=2 n=67 v=100
54432 On ch=2 n=74 v=110
54454 Pb ch=2 v=7022
54457 Pb ch=2 v=5852
54459 Pb ch=2 v=4682
54460 Pb ch=2 v=3502
54480 On ch=2 n=59 v=0
54480 On ch=2 n=67 v=0
54480 On ch=2 n=74 v=0
54480 Pb ch=2 v=8192
54480 On ch=2 n=70 v=104
54481 On ch=2 n=63 v=94
54482 On ch=2 n=55 v=72
54502 On ch=2 n=70 v=0
54504 On ch=2 n=63 v=0
54504 On ch=2 n=63 v=82
54504 On ch=2 n=70 v=94
54549 On ch=2 n=55 v=0
54549 On ch=2 n=63 v=0
54549 On ch=2 n=70 v=0
54552 On ch=2 n=55 v=76
54552 On ch=2 n=63 v=86
54552 On ch=2 n=70 v=95
54576 On ch=2 n=55 v=0
54576 On ch=2 n=63 v=0
54576 On ch=2 n=70 v=0
54576 On ch=2 n=55 v=77
54576 On ch=2 n=63 v=78
54576 On ch=2 n=70 v=85
54600 On ch=2 n=55 v=0
54600 On ch=2 n=63 v=0
54600 On ch=2 n=55 v=72
54600 On ch=2 n=63 v=72
54623 On ch=2 n=70 v=0
54623 On ch=2 n=55 v=0
54623 On ch=2 n=63 v=0
54623 On ch=2 n=55 v=75
54623 On ch=2 n=63 v=86
54623 On ch=2 n=70 v=90
54647 On ch=2 n=55 v=0
54647 On ch=2 n=63 v=0
54647 On ch=2 n=70 v=0
54648 On ch=2 n=55 v=72
54648 On ch=2 n=63 v=85
54648 On ch=2 n=70 v=96
54667 Pb ch=2 v=7022
54671 Pb ch=2 v=5852
54674 Pb ch=2 v=4677
54696 On ch=2 n=55 v=0
54696 On ch=2 n=63 v=0
54696 On ch=2 n=70 v=0
54696 Pb ch=2 v=8192
54696 On ch=2 n=52 v=60
54696 On ch=2 n=60 v=60
54696 On ch=2 n=67 v=77
54744 On ch=2 n=52 v=0
54744 On ch=2 n=60 v=0
54744 On ch=2 n=67 v=0
54744 On ch=2 n=52 v=92
54744 On ch=2 n=60 v=99
54744 On ch=2 n=67 v=99
54816 On ch=2 n=52 v=0
54816 On ch=2 n=60 v=0
54816 On ch=2 n=67 v=0
54816 On ch=2 n=52 v=80
54816 On ch=2 n=60 v=90
54816 On ch=2 n=67 v=105
54864 On ch=2 n=52 v=0
54864 On ch=2 n=60 v=0
54864 On ch=2 n=67 v=0
54864 On ch=2 n=52 v=75
54864 On ch=2 n=60 v=83
54864 On ch=2 n=67 v=90
54888 On ch=2 n=52 v=0
54888 On ch=2 n=60 v=0
54888 On ch=2 n=67 v=0
54888 On ch=2 n=52 v=77
54888 On ch=2 n=60 v=86
54888 On ch=2 n=67 v=92
54936 On ch=2 n=52 v=0
54936 On ch=2 n=60 v=0
54936 On ch=2 n=67 v=0
54936 On ch=2 n=52 v=77
54936 On ch=2 n=60 v=85
54936 On ch=2 n=67 v=80
54960 On ch=2 n=52 v=0
54960 On ch=2 n=60 v=0
54960 On ch=2 n=67 v=0
54960 On ch=2 n=52 v=84
54960 On ch=2 n=60 v=95
54960 On ch=2 n=67 v=100
55008 On ch=2 n=52 v=0
55008 On ch=2 n=60 v=0
55008 On ch=2 n=67 v=0
55008 On ch=2 n=52 v=79
55008 On ch=2 n=60 v=85
55008 On ch=2 n=67 v=97
55032 On ch=2 n=52 v=0
55032 On ch=2 n=60 v=0
55032 On ch=2 n=67 v=0
55032 On ch=2 n=50 v=60
55032 On ch=2 n=59 v=77
55080 On ch=2 n=59 v=0
55080 On ch=2 n=59 v=77
55128 On ch=2 n=50 v=0
55128 On ch=2 n=59 v=0
55128 On ch=2 n=59 v=77
55128 On ch=2 n=67 v=100
55128 On ch=2 n=74 v=109
55152 On ch=2 n=67 v=0
55152 On ch=2 n=74 v=0
55152 On ch=2 n=67 v=88
55152 On ch=2 n=74 v=96
55175 On ch=2 n=67 v=0
55176 On ch=2 n=74 v=0
55176 On ch=2 n=67 v=60
55176 On ch=2 n=74 v=60
55199 On ch=2 n=74 v=0
55200 On ch=2 n=59 v=0
55200 On ch=2 n=67 v=0
55200 On ch=2 n=59 v=70
55200 On ch=2 n=67 v=102
55200 On ch=2 n=74 v=103
55222 Pb ch=2 v=7022
55225 Pb ch=2 v=5852
55227 Pb ch=2 v=4682
55228 Pb ch=2 v=3502
55248 On ch=2 n=59 v=0
55248 On ch=2 n=67 v=0
55248 On ch=2 n=74 v=0
55248 Pb ch=2 v=8192
55248 On ch=2 n=70 v=104
55249 On ch=2 n=63 v=94
55250 On ch=2 n=55 v=72
55270 On ch=2 n=70 v=0
55272 On ch=2 n=63 v=0
55272 On ch=2 n=63 v=82
55272 On ch=2 n=70 v=94
55317 On ch=2 n=55 v=0
55317 On ch=2 n=63 v=0
55317 On ch=2 n=70 v=0
55320 On ch=2 n=55 v=76
55320 On ch=2 n=63 v=86
55320 On ch=2 n=70 v=95
55344 On ch=2 n=55 v=0
55344 On ch=2 n=63 v=0
55344 On ch=2 n=70 v=0
55344 On ch=2 n=55 v=77
55344 On ch=2 n=63 v=78
55344 On ch=2 n=70 v=85
55368 On ch=2 n=55 v=0
55368 On ch=2 n=63 v=0
55368 On ch=2 n=55 v=72
55368 On ch=2 n=63 v=72
55391 On ch=2 n=70 v=0
55391 On ch=2 n=55 v=0
55391 On ch=2 n=63 v=0
55391 On ch=2 n=55 v=75
55391 On ch=2 n=63 v=86
55391 On ch=2 n=70 v=90
55415 On ch=2 n=55 v=0
55415 On ch=2 n=63 v=0
55415 On ch=2 n=70 v=0
55416 On ch=2 n=55 v=72
55416 On ch=2 n=63 v=85
55416 On ch=2 n=70 v=96
55435 Pb ch=2 v=7022
55439 Pb ch=2 v=5852
55442 Pb ch=2 v=4677
55464 On ch=2 n=55 v=0
55464 On ch=2 n=63 v=0
55464 On ch=2 n=70 v=0
55464 Pb ch=2 v=8192
55464 On ch=2 n=52 v=60
55464 On ch=2 n=60 v=77
55464 On ch=2 n=67 v=85
55512 On ch=2 n=52 v=0
55512 On ch=2 n=60 v=0
55512 On ch=2 n=67 v=0
55512 On ch=2 n=52 v=92
55512 On ch=2 n=60 v=90
55512 On ch=2 n=67 v=103
55584 On ch=2 n=52 v=0
55584 On ch=2 n=60 v=0
55584 On ch=2 n=67 v=0
55584 On ch=2 n=52 v=80
55584 On ch=2 n=60 v=90
55584 On ch=2 n=67 v=96
55632 On ch=2 n=52 v=0
55632 On ch=2 n=60 v=0
55632 On ch=2 n=67 v=0
55632 On ch=2 n=52 v=75
55632 On ch=2 n=60 v=83
55632 On ch=2 n=67 v=90
55656 On ch=2 n=52 v=0
55656 On ch=2 n=60 v=0
55656 On ch=2 n=67 v=0
55656 On ch=2 n=52 v=77
55656 On ch=2 n=60 v=86
55656 On ch=2 n=67 v=92
55704 On ch=2 n=52 v=0
55704 On ch=2 n=60 v=0
55704 On ch=2 n=67 v=0
55704 On ch=2 n=52 v=77
55704 On ch=2 n=60 v=85
55704 On ch=2 n=67 v=80
55728 On ch=2 n=52 v=0
55728 On ch=2 n=60 v=0
55728 On ch=2 n=67 v=0
55728 On ch=2 n=52 v=84
55728 On ch=2 n=60 v=95
55728 On ch=2 n=67 v=100
55776 On ch=2 n=52 v=0
55776 On ch=2 n=60 v=0
55776 On ch=2 n=67 v=0
55776 On ch=2 n=52 v=79
55776 On ch=2 n=60 v=85
55776 On ch=2 n=67 v=97
55800 On ch=2 n=52 v=0
55800 On ch=2 n=60 v=0
55800 On ch=2 n=67 v=0
55800 On ch=2 n=50 v=60
55800 On ch=2 n=59 v=77
55848 On ch=2 n=59 v=0
55848 On ch=2 n=59 v=77
55896 On ch=2 n=50 v=0
55896 On ch=2 n=59 v=0
55896 On ch=2 n=59 v=77
55896 On ch=2 n=67 v=95
55896 On ch=2 n=74 v=95
55920 On ch=2 n=67 v=0
55920 On ch=2 n=67 v=80
55943 On ch=2 n=67 v=0
55944 On ch=2 n=67 v=60
55966 On ch=2 n=74 v=0
55968 On ch=2 n=59 v=0
55968 On ch=2 n=67 v=0
55968 On ch=2 n=59 v=70
55968 On ch=2 n=67 v=88
55968 On ch=2 n=74 v=99
55990 Pb ch=2 v=7022
55993 Pb ch=2 v=5852
55995 Pb ch=2 v=4682
55996 Pb ch=2 v=3502
56016 On ch=2 n=59 v=0
56016 On ch=2 n=67 v=0
56016 On ch=2 n=74 v=0
56016 Pb ch=2 v=8192
56016 On ch=2 n=70 v=96
56017 On ch=2 n=63 v=94
56018 On ch=2 n=55 v=72
56038 On ch=2 n=70 v=0
56040 On ch=2 n=63 v=0
56040 On ch=2 n=63 v=82
56040 On ch=2 n=70 v=94
56085 On ch=2 n=55 v=0
56085 On ch=2 n=63 v=0
56085 On ch=2 n=70 v=0
56088 On ch=2 n=55 v=76
56088 On ch=2 n=63 v=86
56088 On ch=2 n=70 v=95
56112 On ch=2 n=55 v=0
56112 On ch=2 n=63 v=0
56112 On ch=2 n=70 v=0
56112 On ch=2 n=55 v=77
56112 On ch=2 n=63 v=78
56112 On ch=2 n=70 v=85
56136 On ch=2 n=55 v=0
56136 On ch=2 n=63 v=0
56136 On ch=2 n=55 v=72
56136 On ch=2 n=63 v=72
56159 On ch=2 n=70 v=0
56159 On ch=2 n=55 v=0
56159 On ch=2 n=63 v=0
56159 On ch=2 n=55 v=75
56159 On ch=2 n=63 v=82
56159 On ch=2 n=70 v=80
56183 On ch=2 n=55 v=0
56183 On ch=2 n=63 v=0
56183 On ch=2 n=70 v=0
56184 On ch=2 n=55 v=72
56184 On ch=2 n=63 v=85
56184 On ch=2 n=70 v=96
56203 Pb ch=2 v=7022
56207 Pb ch=2 v=5852
56210 Pb ch=2 v=4677
56232 On ch=2 n=55 v=0
56232 On ch=2 n=63 v=0
56232 On ch=2 n=70 v=0
56232 Pb ch=2 v=8192
56232 On ch=2 n=52 v=60
56232 On ch=2 n=60 v=77
56232 On ch=2 n=67 v=85
56280 On ch=2 n=52 v=0
56280 On ch=2 n=60 v=0
56280 On ch=2 n=67 v=0
56280 On ch=2 n=52 v=92
56280 On ch=2 n=60 v=90
56280 On ch=2 n=67 v=103
56352 On ch=2 n=52 v=0
56352 On ch=2 n=60 v=0
56352 On ch=2 n=67 v=0
56352 On ch=2 n=52 v=80
56352 On ch=2 n=60 v=90
56352 On ch=2 n=67 v=96
56400 On ch=2 n=52 v=0
56400 On ch=2 n=60 v=0
56400 On ch=2 n=67 v=0
56400 On ch=2 n=52 v=75
56400 On ch=2 n=60 v=83
56400 On ch=2 n=67 v=90
56424 On ch=2 n=52 v=0
56424 On ch=2 n=60 v=0
56424 On ch=2 n=67 v=0
56424 On ch=2 n=52 v=77
56424 On ch=2 n=60 v=86
56424 On ch=2 n=67 v=92
56472 On ch=2 n=52 v=0
56472 On ch=2 n=60 v=0
56472 On ch=2 n=67 v=0
56472 On ch=2 n=52 v=77
56472 On ch=2 n=60 v=85
56472 On ch=2 n=67 v=80
56496 On ch=2 n=52 v=0
56496 On ch=2 n=60 v=0
56496 On ch=2 n=67 v=0
56496 On ch=2 n=52 v=84
56496 On ch=2 n=60 v=95
56496 On ch=2 n=67 v=100
56544 On ch=2 n=52 v=0
56544 On ch=2 n=60 v=0
56544 On ch=2 n=67 v=0
56544 On ch=2 n=52 v=79
56544 On ch=2 n=60 v=85
56544 On ch=2 n=67 v=97
56568 On ch=2 n=52 v=0
56568 On ch=2 n=60 v=0
56568 On ch=2 n=67 v=0
56568 On ch=2 n=50 v=60
56568 On ch=2 n=59 v=77
56616 On ch=2 n=59 v=0
56616 On ch=2 n=59 v=77
56664 On ch=2 n=50 v=0
56664 On ch=2 n=59 v=0
56664 On ch=2 n=59 v=77
56664 On ch=2 n=67 v=95
56664 On ch=2 n=74 v=95
56688 On ch=2 n=67 v=0
56688 On ch=2 n=67 v=80
56711 On ch=2 n=67 v=0
56712 On ch=2 n=67 v=60
56734 On ch=2 n=74 v=0
56736 On ch=2 n=59 v=0
56736 On ch=2 n=67 v=0
56736 On ch=2 n=59 v=70
56736 On ch=2 n=67 v=88
56736 On ch=2 n=74 v=99
56758 Pb ch=2 v=7022
56761 Pb ch=2 v=5852
56763 Pb ch=2 v=4682
56764 Pb ch=2 v=3502
56784 On ch=2 n=59 v=0
56784 On ch=2 n=67 v=0
56784 On ch=2 n=74 v=0
56784 Pb ch=2 v=8192
56784 On ch=2 n=70 v=96
56785 On ch=2 n=63 v=94
56786 On ch=2 n=55 v=72
56806 On ch=2 n=70 v=0
56808 On ch=2 n=63 v=0
56808 On ch=2 n=63 v=82
56808 On ch=2 n=70 v=94
56853 On ch=2 n=55 v=0
56853 On ch=2 n=63 v=0
56853 On ch=2 n=70 v=0
56856 On ch=2 n=55 v=76
56856 On ch=2 n=63 v=86
56856 On ch=2 n=70 v=95
56880 On ch=2 n=55 v=0
56880 On ch=2 n=63 v=0
56880 On ch=2 n=70 v=0
56880 On ch=2 n=55 v=77
56880 On ch=2 n=63 v=78
56880 On ch=2 n=70 v=85
56904 On ch=2 n=55 v=0
56904 On ch=2 n=63 v=0
56904 On ch=2 n=55 v=72
56904 On ch=2 n=63 v=72
56927 On ch=2 n=70 v=0
56927 On ch=2 n=55 v=0
56927 On ch=2 n=63 v=0
56927 On ch=2 n=55 v=75
56927 On ch=2 n=63 v=82
56927 On ch=2 n=70 v=80
56951 On ch=2 n=55 v=0
56951 On ch=2 n=63 v=0
56951 On ch=2 n=70 v=0
56952 On ch=2 n=55 v=72
56952 On ch=2 n=63 v=85
56952 On ch=2 n=70 v=96
56971 Pb ch=2 v=7022
56975 Pb ch=2 v=5852
56978 Pb ch=2 v=4677
57000 On ch=2 n=55 v=0
57000 On ch=2 n=63 v=0
57000 On ch=2 n=70 v=0
57000 Pb ch=2 v=8192
57000 On ch=2 n=52 v=60
57000 On ch=2 n=60 v=77
57000 On ch=2 n=67 v=85
57048 On ch=2 n=52 v=0
57048 On ch=2 n=60 v=0
57048 On ch=2 n=67 v=0
57048 On ch=2 n=52 v=92
57048 On ch=2 n=60 v=90
57048 On ch=2 n=67 v=103
57120 On ch=2 n=52 v=0
57120 On ch=2 n=60 v=0
57120 On ch=2 n=67 v=0
57120 On ch=2 n=52 v=80
57120 On ch=2 n=60 v=90
57120 On ch=2 n=67 v=96
57168 On ch=2 n=52 v=0
57168 On ch=2 n=60 v=0
57168 On ch=2 n=67 v=0
57168 On ch=2 n=52 v=75
57168 On ch=2 n=60 v=83
57168 On ch=2 n=67 v=90
57192 On ch=2 n=52 v=0
57192 On ch=2 n=60 v=0
57192 On ch=2 n=67 v=0
57192 On ch=2 n=52 v=77
57192 On ch=2 n=60 v=86
57192 On ch=2 n=67 v=92
57240 On ch=2 n=52 v=0
57240 On ch=2 n=60 v=0
57240 On ch=2 n=67 v=0
57240 On ch=2 n=52 v=77
57240 On ch=2 n=60 v=85
57240 On ch=2 n=67 v=80
57264 On ch=2 n=52 v=0
57264 On ch=2 n=60 v=0
57264 On ch=2 n=67 v=0
57264 On ch=2 n=52 v=84
57264 On ch=2 n=60 v=95
57264 On ch=2 n=67 v=100
57312 On ch=2 n=52 v=0
57312 On ch=2 n=60 v=0
57312 On ch=2 n=67 v=0
57312 On ch=2 n=52 v=79
57312 On ch=2 n=60 v=85
57312 On ch=2 n=67 v=97
57336 On ch=2 n=52 v=0
57336 On ch=2 n=60 v=0
57336 On ch=2 n=67 v=0
57336 On ch=2 n=50 v=85
57336 On ch=2 n=59 v=77
57384 On ch=2 n=59 v=0
57384 On ch=2 n=43 v=77
57384 On ch=2 n=59 v=85
57432 On ch=2 n=50 v=0
57432 On ch=2 n=59 v=0
57432 On ch=2 n=59 v=77
57432 On ch=2 n=67 v=95
57432 On ch=2 n=74 v=95
57456 On ch=2 n=67 v=0
57480 On ch=2 n=43 v=0
57480 On ch=2 n=67 v=60
57502 On ch=2 n=74 v=0
57504 On ch=2 n=59 v=0
57504 On ch=2 n=67 v=0
57504 On ch=2 n=59 v=70
57504 On ch=2 n=67 v=88
57504 On ch=2 n=74 v=99
57526 Pb ch=2 v=7022
57529 Pb ch=2 v=5852
57531 Pb ch=2 v=4682
57532 Pb ch=2 v=3502
57552 On ch=2 n=59 v=0
57552 On ch=2 n=67 v=0
57552 On ch=2 n=74 v=0
57552 Pb ch=2 v=8192
57552 On ch=2 n=70 v=96
57553 On ch=2 n=63 v=94
57554 On ch=2 n=55 v=72
57574 On ch=2 n=70 v=0
57576 On ch=2 n=63 v=0
57576 On ch=2 n=63 v=82
57576 On ch=2 n=70 v=94
57621 On ch=2 n=55 v=0
57621 On ch=2 n=63 v=0
57621 On ch=2 n=70 v=0
57624 On ch=2 n=55 v=76
57624 On ch=2 n=63 v=86
57624 On ch=2 n=70 v=95
57648 On ch=2 n=55 v=0
57648 On ch=2 n=63 v=0
57648 On ch=2 n=70 v=0
57648 On ch=2 n=55 v=77
57648 On ch=2 n=63 v=78
57648 On ch=2 n=70 v=85
57672 On ch=2 n=55 v=0
57672 On ch=2 n=63 v=0
57672 On ch=2 n=70 v=0
57672 On ch=2 n=55 v=75
57672 On ch=2 n=63 v=72
57672 On ch=2 n=70 v=80
57695 On ch=2 n=55 v=0
57695 On ch=2 n=63 v=0
57695 On ch=2 n=70 v=0
57695 On ch=2 n=55 v=75
57695 On ch=2 n=63 v=82
57695 On ch=2 n=70 v=80
57719 On ch=2 n=55 v=0
57719 On ch=2 n=63 v=0
57719 On ch=2 n=70 v=0
57720 On ch=2 n=55 v=72
57720 On ch=2 n=63 v=85
57720 On ch=2 n=70 v=96
57739 Pb ch=2 v=7022
57743 Pb ch=2 v=5852
57746 Pb ch=2 v=4677
57768 On ch=2 n=55 v=0
57768 On ch=2 n=63 v=0
57768 On ch=2 n=70 v=0
57768 Pb ch=2 v=8192
57768 On ch=2 n=52 v=60
57768 On ch=2 n=60 v=77
57768 On ch=2 n=67 v=85
57816 On ch=2 n=52 v=0
57816 On ch=2 n=60 v=0
57816 On ch=2 n=67 v=0
57816 On ch=2 n=52 v=92
57816 On ch=2 n=60 v=90
57816 On ch=2 n=67 v=103
57888 On ch=2 n=52 v=0
57888 On ch=2 n=60 v=0
57888 On ch=2 n=67 v=0
57888 On ch=2 n=52 v=80
57888 On ch=2 n=60 v=90
57888 On ch=2 n=67 v=96
57936 On ch=2 n=52 v=0
57936 On ch=2 n=60 v=0
57936 On ch=2 n=67 v=0
57936 On ch=2 n=52 v=75
57936 On ch=2 n=60 v=83
57936 On ch=2 n=67 v=90
57960 On ch=2 n=52 v=0
57960 On ch=2 n=60 v=0
57960 On ch=2 n=67 v=0
57960 On ch=2 n=52 v=77
57960 On ch=2 n=60 v=86
57960 On ch=2 n=67 v=92
58008 On ch=2 n=52 v=0
58008 On ch=2 n=60 v=0
58008 On ch=2 n=67 v=0
58008 On ch=2 n=52 v=77
58008 On ch=2 n=60 v=85
58008 On ch=2 n=67 v=80
58032 On ch=2 n=52 v=0
58032 On ch=2 n=60 v=0
58032 On ch=2 n=67 v=0
58032 On ch=2 n=52 v=84
58032 On ch=2 n=60 v=95
58032 On ch=2 n=67 v=90
58056 On ch=2 n=52 v=0
58056 On ch=2 n=60 v=0
58056 On ch=2 n=67 v=0
58056 On ch=2 n=52 v=70
58056 On ch=2 n=60 v=75
58056 On ch=2 n=67 v=85
58080 On ch=2 n=52 v=0
58080 On ch=2 n=60 v=0
58080 On ch=2 n=67 v=0
58080 On ch=2 n=52 v=66
58080 On ch=2 n=60 v=70
58080 On ch=2 n=67 v=70
58104 On ch=2 n=52 v=0
58104 On ch=2 n=60 v=0
58104 On ch=2 n=67 v=0
58104 On ch=2 n=55 v=76
58104 On ch=2 n=59 v=88
58104 On ch=2 n=67 v=84
58104 On ch=2 n=74 v=106
58152 On ch=2 n=55 v=0
58152 On ch=2 n=59 v=0
58152 On ch=2 n=67 v=0
58152 On ch=2 n=55 v=60
58152 On ch=2 n=59 v=80
58200 On ch=2 n=74 v=0
58200 On ch=2 n=55 v=0
58200 On ch=2 n=59 v=0
58200 On ch=2 n=55 v=85
58200 On ch=2 n=59 v=88
58200 On ch=2 n=67 v=86
58200 On ch=2 n=74 v=100
58248 On ch=2 n=55 v=0
58265 On ch=2 n=67 v=0
58268 On ch=2 n=59 v=0
58268 On ch=2 n=74 v=0
58272 On ch=2 n=59 v=80
58272 On ch=2 n=67 v=82
58272 On ch=2 n=74 v=96
58294 On ch=2 n=59 v=0
58294 On ch=2 n=67 v=0
58294 On ch=2 n=74 v=0
58320 On ch=2 n=55 v=88
58320 On ch=2 n=63 v=90
58320 On ch=2 n=70 v=90
58344 On ch=2 n=55 v=0
58344 On ch=2 n=63 v=0
58344 On ch=2 n=70 v=0
58344 On ch=2 n=55 v=78
58344 On ch=2 n=63 v=95
58344 On ch=2 n=70 v=106
58389 On ch=2 n=55 v=0
58389 On ch=2 n=63 v=0
58389 On ch=2 n=70 v=0
58392 On ch=2 n=55 v=80
58392 On ch=2 n=63 v=94
58392 On ch=2 n=70 v=102
58416 On ch=2 n=63 v=0
58416 On ch=2 n=63 v=70
58440 On ch=2 n=55 v=0
58440 On ch=2 n=63 v=0
58440 On ch=2 n=55 v=70
58440 On ch=2 n=63 v=72
58441 On ch=2 n=70 v=0
58464 On ch=2 n=55 v=0
58464 On ch=2 n=63 v=0
58464 On ch=2 n=55 v=85
58464 On ch=2 n=63 v=82
58464 On ch=2 n=70 v=96
58486 On ch=2 n=55 v=0
58486 On ch=2 n=63 v=0
58486 On ch=2 n=70 v=0
58488 On ch=2 n=55 v=70
58488 On ch=2 n=63 v=76
58488 On ch=2 n=70 v=90
58536 On ch=2 n=55 v=0
58536 On ch=2 n=63 v=0
58536 On ch=2 n=70 v=0
58536 On ch=2 n=52 v=60
58536 On ch=2 n=60 v=60
58580 On ch=2 n=52 v=0
58580 On ch=2 n=60 v=0
58584 On ch=2 n=52 v=92
58584 On ch=2 n=60 v=96
58584 On ch=2 n=67 v=80
58584 On ch=2 n=72 v=80
58656 On ch=2 n=52 v=0
58656 On ch=2 n=60 v=0
58656 On ch=2 n=67 v=0
58656 On ch=2 n=72 v=0
58656 On ch=2 n=52 v=80
58656 On ch=2 n=60 v=90
58656 On ch=2 n=67 v=88
58704 On ch=2 n=52 v=0
58704 On ch=2 n=60 v=0
58704 On ch=2 n=67 v=0
58704 On ch=2 n=52 v=75
58704 On ch=2 n=60 v=83
58704 On ch=2 n=67 v=90
58728 On ch=2 n=52 v=0
58728 On ch=2 n=60 v=0
58728 On ch=2 n=67 v=0
58728 On ch=2 n=52 v=77
58728 On ch=2 n=60 v=86
58728 On ch=2 n=67 v=92
58776 On ch=2 n=52 v=0
58776 On ch=2 n=60 v=0
58776 On ch=2 n=67 v=0
58776 On ch=2 n=52 v=77
58776 On ch=2 n=60 v=85
58776 On ch=2 n=67 v=80
58800 On ch=2 n=52 v=0
58800 On ch=2 n=60 v=0
58800 On ch=2 n=67 v=0
58800 On ch=2 n=52 v=84
58800 On ch=2 n=60 v=95
58800 On ch=2 n=67 v=100
58848 On ch=2 n=52 v=0
58848 On ch=2 n=60 v=0
58848 On ch=2 n=67 v=0
58848 On ch=2 n=52 v=79
58848 On ch=2 n=60 v=85
58848 On ch=2 n=67 v=97
58872 On ch=2 n=52 v=0
58872 On ch=2 n=60 v=0
58872 On ch=2 n=67 v=0
58872 On ch=2 n=43 v=110
58872 On ch=2 n=50 v=90
58872 On ch=2 n=59 v=77
58874 On ch=2 n=43 v=0
58920 On ch=2 n=59 v=0
58920 On ch=2 n=43 v=120
58920 On ch=2 n=59 v=77
58922 On ch=2 n=43 v=0
58968 On ch=2 n=50 v=0
58968 On ch=2 n=59 v=0
58968 On ch=2 n=59 v=77
58968 On ch=2 n=67 v=100
58968 On ch=2 n=74 v=105
58992 On ch=2 n=67 v=0
58992 On ch=2 n=74 v=0
58992 On ch=2 n=67 v=88
58992 On ch=2 n=74 v=96
59015 On ch=2 n=67 v=0
59016 On ch=2 n=74 v=0
59016 On ch=2 n=67 v=60
59016 On ch=2 n=74 v=60
59039 On ch=2 n=74 v=0
59040 On ch=2 n=59 v=0
59040 On ch=2 n=67 v=0
59040 On ch=2 n=59 v=70
59040 On ch=2 n=67 v=102
59040 On ch=2 n=74 v=100
59062 Pb ch=2 v=7022
59065 Pb ch=2 v=5852
59067 Pb ch=2 v=4682
59068 Pb ch=2 v=3502
59088 On ch=2 n=59 v=0
59088 On ch=2 n=67 v=0
59088 On ch=2 n=74 v=0
59088 Pb ch=2 v=8192
59088 On ch=2 n=70 v=104
59089 On ch=2 n=63 v=94
59090 On ch=2 n=55 v=72
59110 On ch=2 n=70 v=0
59112 On ch=2 n=63 v=0
59112 On ch=2 n=63 v=82
59112 On ch=2 n=70 v=94
59157 On ch=2 n=55 v=0
59157 On ch=2 n=63 v=0
59157 On ch=2 n=70 v=0
59160 On ch=2 n=55 v=76
59160 On ch=2 n=63 v=86
59160 On ch=2 n=70 v=95
59184 On ch=2 n=55 v=0
59184 On ch=2 n=63 v=0
59184 On ch=2 n=70 v=0
59184 On ch=2 n=55 v=77
59184 On ch=2 n=63 v=78
59184 On ch=2 n=70 v=85
59208 On ch=2 n=55 v=0
59208 On ch=2 n=63 v=0
59208 On ch=2 n=55 v=72
59208 On ch=2 n=63 v=72
59231 On ch=2 n=70 v=0
59231 On ch=2 n=55 v=0
59231 On ch=2 n=63 v=0
59231 On ch=2 n=55 v=75
59231 On ch=2 n=63 v=86
59231 On ch=2 n=70 v=90
59255 On ch=2 n=55 v=0
59255 On ch=2 n=63 v=0
59255 On ch=2 n=70 v=0
59256 On ch=2 n=55 v=72
59256 On ch=2 n=63 v=85
59256 On ch=2 n=70 v=96
59275 Pb ch=2 v=7022
59279 Pb ch=2 v=5852
59282 Pb ch=2 v=4677
59304 On ch=2 n=55 v=0
59304 On ch=2 n=63 v=0
59304 On ch=2 n=70 v=0
59304 Pb ch=2 v=8192
59304 On ch=2 n=52 v=60
59304 On ch=2 n=60 v=77
59304 On ch=2 n=67 v=85
59352 On ch=2 n=52 v=0
59352 On ch=2 n=60 v=0
59352 On ch=2 n=67 v=0
59352 On ch=2 n=52 v=92
59352 On ch=2 n=60 v=90
59352 On ch=2 n=67 v=103
59424 On ch=2 n=52 v=0
59424 On ch=2 n=60 v=0
59424 On ch=2 n=67 v=0
59424 On ch=2 n=52 v=80
59424 On ch=2 n=60 v=90
59424 On ch=2 n=67 v=96
59472 On ch=2 n=52 v=0
59472 On ch=2 n=60 v=0
59472 On ch=2 n=67 v=0
59472 On ch=2 n=52 v=75
59472 On ch=2 n=60 v=83
59472 On ch=2 n=67 v=90
59496 On ch=2 n=52 v=0
59496 On ch=2 n=60 v=0
59496 On ch=2 n=67 v=0
59496 On ch=2 n=52 v=77
59496 On ch=2 n=60 v=86
59496 On ch=2 n=67 v=92
59544 On ch=2 n=52 v=0
59544 On ch=2 n=60 v=0
59544 On ch=2 n=67 v=0
59544 On ch=2 n=52 v=77
59544 On ch=2 n=60 v=85
59544 On ch=2 n=67 v=80
59568 On ch=2 n=52 v=0
59568 On ch=2 n=60 v=0
59568 On ch=2 n=67 v=0
59568 On ch=2 n=52 v=84
59568 On ch=2 n=60 v=95
59568 On ch=2 n=67 v=100
59616 On ch=2 n=52 v=0
59616 On ch=2 n=60 v=0
59616 On ch=2 n=67 v=0
59616 On ch=2 n=52 v=79
59616 On ch=2 n=60 v=85
59616 On ch=2 n=67 v=97
59640 On ch=2 n=52 v=0
59640 On ch=2 n=60 v=0
59640 On ch=2 n=67 v=0
59640 On ch=2 n=55 v=76
59640 On ch=2 n=59 v=88
59688 On ch=2 n=55 v=0
59688 On ch=2 n=59 v=0
59688 On ch=2 n=55 v=60
59688 On ch=2 n=59 v=80
59736 On ch=2 n=55 v=0
59736 On ch=2 n=59 v=0
59736 On ch=2 n=55 v=85
59736 On ch=2 n=59 v=88
59736 On ch=2 n=67 v=86
59736 On ch=2 n=74 v=100
59784 On ch=2 n=55 v=0
59801 On ch=2 n=67 v=0
59804 On ch=2 n=59 v=0
59804 On ch=2 n=74 v=0
59808 On ch=2 n=59 v=80
59808 On ch=2 n=67 v=82
59808 On ch=2 n=74 v=96
59830 On ch=2 n=59 v=0
59830 On ch=2 n=67 v=0
59830 On ch=2 n=74 v=0
59856 On ch=2 n=55 v=88
59856 On ch=2 n=63 v=90
59856 On ch=2 n=70 v=90
59880 On ch=2 n=55 v=0
59880 On ch=2 n=63 v=0
59880 On ch=2 n=70 v=0
59880 On ch=2 n=55 v=78
59880 On ch=2 n=63 v=95
59880 On ch=2 n=70 v=106
59925 On ch=2 n=55 v=0
59925 On ch=2 n=63 v=0
59925 On ch=2 n=70 v=0
59928 On ch=2 n=55 v=80
59928 On ch=2 n=63 v=94
59928 On ch=2 n=70 v=102
59952 On ch=2 n=63 v=0
59952 On ch=2 n=63 v=70
59976 On ch=2 n=55 v=0
59976 On ch=2 n=63 v=0
59976 On ch=2 n=55 v=70
59976 On ch=2 n=63 v=72
59977 On ch=2 n=70 v=0
60000 On ch=2 n=55 v=0
60000 On ch=2 n=63 v=0
60000 On ch=2 n=55 v=85
60000 On ch=2 n=63 v=82
60000 On ch=2 n=70 v=96
60022 On ch=2 n=55 v=0
60022 On ch=2 n=63 v=0
60022 On ch=2 n=70 v=0
60024 On ch=2 n=55 v=70
60024 On ch=2 n=63 v=76
60024 On ch=2 n=70 v=90
60072 On ch=2 n=55 v=0
60072 On ch=2 n=63 v=0
60072 On ch=2 n=70 v=0
60072 On ch=2 n=52 v=60
60072 On ch=2 n=60 v=60
60116 On ch=2 n=52 v=0
60116 On ch=2 n=60 v=0
60120 On ch=2 n=52 v=92
60120 On ch=2 n=60 v=96
60120 On ch=2 n=67 v=103
60120 On ch=2 n=72 v=108
60192 On ch=2 n=52 v=0
60192 On ch=2 n=60 v=0
60192 On ch=2 n=67 v=0
60192 On ch=2 n=72 v=0
60192 On ch=2 n=52 v=80
60192 On ch=2 n=60 v=90
60192 On ch=2 n=67 v=96
60240 On ch=2 n=52 v=0
60240 On ch=2 n=60 v=0
60240 On ch=2 n=67 v=0
60240 On ch=2 n=52 v=75
60240 On ch=2 n=60 v=83
60240 On ch=2 n=67 v=90
60264 On ch=2 n=52 v=0
60264 On ch=2 n=60 v=0
60264 On ch=2 n=67 v=0
60264 On ch=2 n=52 v=77
60264 On ch=2 n=60 v=86
60264 On ch=2 n=67 v=92
60312 On ch=2 n=52 v=0
60312 On ch=2 n=60 v=0
60312 On ch=2 n=67 v=0
60312 On ch=2 n=52 v=77
60312 On ch=2 n=60 v=85
60312 On ch=2 n=67 v=80
60336 On ch=2 n=52 v=0
60336 On ch=2 n=60 v=0
60336 On ch=2 n=67 v=0
60336 On ch=2 n=52 v=84
60336 On ch=2 n=60 v=95
60336 On ch=2 n=67 v=100
60384 On ch=2 n=52 v=0
60384 On ch=2 n=60 v=0
60384 On ch=2 n=67 v=0
60384 On ch=2 n=52 v=79
60384 On ch=2 n=60 v=85
60384 On ch=2 n=67 v=97
60408 On ch=2 n=52 v=0
60408 On ch=2 n=60 v=0
60408 On ch=2 n=67 v=0
60408 On ch=2 n=50 v=60
60408 On ch=2 n=59 v=77
60456 On ch=2 n=59 v=0
60456 On ch=2 n=59 v=77
60504 On ch=2 n=50 v=0
60504 On ch=2 n=59 v=0
60504 On ch=2 n=59 v=77
60504 On ch=2 n=67 v=100
60504 On ch=2 n=74 v=109
60528 On ch=2 n=67 v=0
60528 On ch=2 n=67 v=77
60551 On ch=2 n=67 v=0
60552 On ch=2 n=74 v=0
60552 On ch=2 n=67 v=60
60552 On ch=2 n=74 v=60
60575 On ch=2 n=74 v=0
60576 On ch=2 n=59 v=0
60576 On ch=2 n=67 v=0
60576 On ch=2 n=59 v=70
60576 On ch=2 n=67 v=102
60576 On ch=2 n=74 v=94
60598 Pb ch=2 v=7022
60601 Pb ch=2 v=5852
60603 Pb ch=2 v=4682
60604 Pb ch=2 v=3502
60624 On ch=2 n=59 v=0
60624 On ch=2 n=67 v=0
60624 On ch=2 n=74 v=0
60624 Pb ch=2 v=8192
60624 On ch=2 n=70 v=104
60625 On ch=2 n=63 v=94
60626 On ch=2 n=55 v=72
60646 On ch=2 n=70 v=0
60648 On ch=2 n=63 v=0
60648 On ch=2 n=63 v=82
60648 On ch=2 n=70 v=94
60693 On ch=2 n=55 v=0
60693 On ch=2 n=63 v=0
60693 On ch=2 n=70 v=0
60696 On ch=2 n=55 v=76
60696 On ch=2 n=63 v=86
60696 On ch=2 n=70 v=95
60720 On ch=2 n=55 v=0
60720 On ch=2 n=63 v=0
60720 On ch=2 n=70 v=0
60720 On ch=2 n=55 v=77
60720 On ch=2 n=63 v=78
60720 On ch=2 n=70 v=85
60744 On ch=2 n=55 v=0
60744 On ch=2 n=63 v=0
60744 On ch=2 n=55 v=72
60744 On ch=2 n=63 v=72
60767 On ch=2 n=70 v=0
60767 On ch=2 n=55 v=0
60767 On ch=2 n=63 v=0
60767 On ch=2 n=55 v=75
60767 On ch=2 n=63 v=86
60767 On ch=2 n=70 v=90
60791 On ch=2 n=55 v=0
60791 On ch=2 n=63 v=0
60791 On ch=2 n=70 v=0
60792 On ch=2 n=55 v=72
60792 On ch=2 n=63 v=85
60792 On ch=2 n=70 v=96
60811 Pb ch=2 v=7022
60815 Pb ch=2 v=5852
60818 Pb ch=2 v=4677
60840 On ch=2 n=55 v=0
60840 On ch=2 n=63 v=0
60840 On ch=2 n=70 v=0
60840 Pb ch=2 v=8192
60840 On ch=2 n=52 v=60
60840 On ch=2 n=60 v=77
60840 On ch=2 n=67 v=85
60888 On ch=2 n=52 v=0
60888 On ch=2 n=60 v=0
60888 On ch=2 n=67 v=0
60888 On ch=2 n=52 v=92
60888 On ch=2 n=60 v=90
60888 On ch=2 n=67 v=103
60960 On ch=2 n=52 v=0
60960 On ch=2 n=60 v=0
60960 On ch=2 n=67 v=0
60960 On ch=2 n=52 v=80
60960 On ch=2 n=60 v=90
60960 On ch=2 n=67 v=96
61008 On ch=2 n=52 v=0
61008 On ch=2 n=60 v=0
61008 On ch=2 n=67 v=0
61008 On ch=2 n=52 v=75
61008 On ch=2 n=60 v=83
61008 On ch=2 n=67 v=90
61032 On ch=2 n=52 v=0
61032 On ch=2 n=60 v=0
61032 On ch=2 n=67 v=0
61032 On ch=2 n=52 v=77
61032 On ch=2 n=60 v=86
61032 On ch=2 n=67 v=92
61080 On ch=2 n=52 v=0
61080 On ch=2 n=60 v=0
61080 On ch=2 n=67 v=0
61080 On ch=2 n=52 v=77
61080 On ch=2 n=60 v=85
61080 On ch=2 n=67 v=80
61104 On ch=2 n=52 v=0
61104 On ch=2 n=60 v=0
61104 On ch=2 n=67 v=0
61104 On ch=2 n=52 v=84
61104 On ch=2 n=60 v=95
61104 On ch=2 n=67 v=100
61152 On ch=2 n=52 v=0
61152 On ch=2 n=60 v=0
61152 On ch=2 n=67 v=0
61152 On ch=2 n=52 v=79
61152 On ch=2 n=60 v=85
61152 On ch=2 n=67 v=97
61176 On ch=2 n=52 v=0
61176 On ch=2 n=60 v=0
61176 On ch=2 n=67 v=0
61176 On ch=2 n=50 v=60
61176 On ch=2 n=59 v=77
61224 On ch=2 n=59 v=0
61224 On ch=2 n=59 v=77
61272 On ch=2 n=50 v=0
61272 On ch=2 n=59 v=0
61272 On ch=2 n=59 v=77
61272 On ch=2 n=67 v=100
61272 On ch=2 n=74 v=109
61296 On ch=2 n=67 v=0
61296 On ch=2 n=67 v=77
61319 On ch=2 n=67 v=0
61320 On ch=2 n=74 v=0
61320 On ch=2 n=67 v=60
61320 On ch=2 n=74 v=60
61343 On ch=2 n=74 v=0
61344 On ch=2 n=59 v=0
61344 On ch=2 n=67 v=0
61344 On ch=2 n=59 v=70
61344 On ch=2 n=67 v=102
61344 On ch=2 n=74 v=94
61366 Pb ch=2 v=7022
61369 Pb ch=2 v=5852
61371 Pb ch=2 v=4682
61372 Pb ch=2 v=3502
61392 On ch=2 n=59 v=0
61392 On ch=2 n=67 v=0
61392 On ch=2 n=74 v=0
61392 Pb ch=2 v=8192
61392 On ch=2 n=70 v=104
61393 On ch=2 n=63 v=94
61394 On ch=2 n=55 v=72
61414 On ch=2 n=70 v=0
61416 On ch=2 n=63 v=0
61416 On ch=2 n=63 v=82
61416 On ch=2 n=70 v=94
61461 On ch=2 n=55 v=0
61461 On ch=2 n=63 v=0
61461 On ch=2 n=70 v=0
61464 On ch=2 n=55 v=76
61464 On ch=2 n=63 v=86
61464 On ch=2 n=70 v=95
61488 On ch=2 n=55 v=0
61488 On ch=2 n=63 v=0
61488 On ch=2 n=70 v=0
61488 On ch=2 n=55 v=77
61488 On ch=2 n=63 v=78
61488 On ch=2 n=70 v=85
61512 On ch=2 n=55 v=0
61512 On ch=2 n=63 v=0
61512 On ch=2 n=55 v=72
61512 On ch=2 n=63 v=72
61535 On ch=2 n=70 v=0
61535 On ch=2 n=55 v=0
61535 On ch=2 n=63 v=0
61535 On ch=2 n=55 v=75
61535 On ch=2 n=63 v=86
61535 On ch=2 n=70 v=90
61559 On ch=2 n=55 v=0
61559 On ch=2 n=63 v=0
61559 On ch=2 n=70 v=0
61560 On ch=2 n=55 v=82
61560 On ch=2 n=63 v=95
61560 On ch=2 n=70 v=106
61579 Pb ch=2 v=7022
61583 Pb ch=2 v=5852
61586 Pb ch=2 v=4677
61608 On ch=2 n=55 v=0
61608 On ch=2 n=63 v=0
61608 On ch=2 n=70 v=0
61608 Pb ch=2 v=8192
61608 On ch=2 n=52 v=70
61608 On ch=2 n=60 v=87
61608 On ch=2 n=67 v=95
61656 On ch=2 n=52 v=0
61656 On ch=2 n=60 v=0
61656 On ch=2 n=67 v=0
61656 On ch=2 n=52 v=102
61656 On ch=2 n=60 v=100
61656 On ch=2 n=67 v=113
61728 On ch=2 n=52 v=0
61728 On ch=2 n=60 v=0
61728 On ch=2 n=67 v=0
61728 On ch=2 n=52 v=90
61728 On ch=2 n=60 v=100
61728 On ch=2 n=67 v=106
61776 On ch=2 n=52 v=0
61776 On ch=2 n=60 v=0
61776 On ch=2 n=67 v=0
61776 On ch=2 n=52 v=85
61776 On ch=2 n=60 v=93
61776 On ch=2 n=67 v=100
61800 On ch=2 n=52 v=0
61800 On ch=2 n=60 v=0
61800 On ch=2 n=67 v=0
61800 On ch=2 n=52 v=87
61800 On ch=2 n=60 v=96
61800 On ch=2 n=67 v=102
61848 On ch=2 n=52 v=0
61848 On ch=2 n=60 v=0
61848 On ch=2 n=67 v=0
61848 On ch=2 n=52 v=87
61848 On ch=2 n=60 v=95
61848 On ch=2 n=67 v=90
61872 On ch=2 n=52 v=0
61872 On ch=2 n=60 v=0
61872 On ch=2 n=67 v=0
61872 On ch=2 n=52 v=94
61872 On ch=2 n=60 v=105
61872 On ch=2 n=67 v=110
61920 On ch=2 n=52 v=0
61920 On ch=2 n=60 v=0
61920 On ch=2 n=67 v=0
61920 On ch=2 n=52 v=89
61920 On ch=2 n=60 v=95
61920 On ch=2 n=67 v=107
61944 On ch=2 n=52 v=0
61944 On ch=2 n=60 v=0
61944 On ch=2 n=67 v=0
61944 On ch=2 n=50 v=70
61944 On ch=2 n=59 v=87
61992 On ch=2 n=59 v=0
61992 On ch=2 n=67 v=94
61992 On ch=2 n=74 v=110
62040 On ch=2 n=50 v=0
62040 On ch=2 n=67 v=0
62040 On ch=2 n=74 v=0
62040 On ch=2 n=59 v=87
62040 On ch=2 n=67 v=110
62040 On ch=2 n=74 v=119
62064 On ch=2 n=67 v=0
62064 On ch=2 n=67 v=87
62087 On ch=2 n=67 v=0
62088 On ch=2 n=74 v=0
62088 On ch=2 n=67 v=70
62088 On ch=2 n=74 v=70
62111 On ch=2 n=74 v=0
62112 On ch=2 n=59 v=0
62112 On ch=2 n=67 v=0
62112 On ch=2 n=59 v=80
62112 On ch=2 n=67 v=112
62112 On ch=2 n=74 v=104
62134 Pb ch=2 v=7022
62137 Pb ch=2 v=5852
62139 Pb ch=2 v=4682
62140 Pb ch=2 v=3502
62160 On ch=2 n=59 v=0
62160 On ch=2 n=67 v=0
62160 On ch=2 n=74 v=0
62160 Pb ch=2 v=8192
62160 On ch=2 n=70 v=114
62161 On ch=2 n=63 v=104
62162 On ch=2 n=55 v=82
62182 On ch=2 n=70 v=0
62184 On ch=2 n=63 v=0
62184 On ch=2 n=63 v=92
62184 On ch=2 n=70 v=104
62229 On ch=2 n=55 v=0
62229 On ch=2 n=63 v=0
62229 On ch=2 n=70 v=0
62232 On ch=2 n=55 v=86
62232 On ch=2 n=63 v=96
62232 On ch=2 n=70 v=105
62256 On ch=2 n=55 v=0
62256 On ch=2 n=63 v=0
62256 On ch=2 n=70 v=0
62256 On ch=2 n=55 v=87
62256 On ch=2 n=63 v=88
62256 On ch=2 n=70 v=95
62280 On ch=2 n=55 v=0
62280 On ch=2 n=63 v=0
62280 On ch=2 n=55 v=82
62280 On ch=2 n=63 v=94
62303 On ch=2 n=70 v=0
62303 On ch=2 n=55 v=0
62303 On ch=2 n=63 v=0
62303 On ch=2 n=55 v=85
62303 On ch=2 n=63 v=100
62303 On ch=2 n=70 v=112
62327 On ch=2 n=55 v=0
62327 On ch=2 n=63 v=0
62327 On ch=2 n=70 v=0
62328 On ch=2 n=55 v=82
62328 On ch=2 n=63 v=95
62328 On ch=2 n=70 v=106
62347 Pb ch=2 v=7022
62351 Pb ch=2 v=5852
62354 Pb ch=2 v=4677
62376 On ch=2 n=55 v=0
62376 On ch=2 n=63 v=0
62376 On ch=2 n=70 v=0
62376 Pb ch=2 v=8192
62376 On ch=2 n=52 v=70
62376 On ch=2 n=60 v=87
62376 On ch=2 n=67 v=95
62424 On ch=2 n=52 v=0
62424 On ch=2 n=60 v=0
62424 On ch=2 n=67 v=0
62424 On ch=2 n=52 v=102
62424 On ch=2 n=60 v=100
62424 On ch=2 n=67 v=113
62496 On ch=2 n=52 v=0
62496 On ch=2 n=60 v=0
62496 On ch=2 n=67 v=0
62496 On ch=2 n=52 v=90
62496 On ch=2 n=60 v=100
62496 On ch=2 n=67 v=106
62544 On ch=2 n=52 v=0
62544 On ch=2 n=60 v=0
62544 On ch=2 n=67 v=0
62544 On ch=2 n=52 v=85
62544 On ch=2 n=60 v=93
62544 On ch=2 n=67 v=100
62568 On ch=2 n=52 v=0
62568 On ch=2 n=60 v=0
62568 On ch=2 n=67 v=0
62568 On ch=2 n=52 v=87
62568 On ch=2 n=60 v=96
62568 On ch=2 n=67 v=102
62616 On ch=2 n=52 v=0
62616 On ch=2 n=60 v=0
62616 On ch=2 n=67 v=0
62616 On ch=2 n=52 v=87
62616 On ch=2 n=60 v=95
62616 On ch=2 n=67 v=90
62640 On ch=2 n=52 v=0
62640 On ch=2 n=60 v=0
62640 On ch=2 n=67 v=0
62640 On ch=2 n=52 v=94
62640 On ch=2 n=60 v=105
62640 On ch=2 n=67 v=110
62688 On ch=2 n=52 v=0
62688 On ch=2 n=60 v=0
62688 On ch=2 n=67 v=0
62688 On ch=2 n=52 v=89
62688 On ch=2 n=60 v=95
62688 On ch=2 n=67 v=107
62712 On ch=2 n=52 v=0
62712 On ch=2 n=60 v=0
62712 On ch=2 n=67 v=0
62712 On ch=2 n=50 v=70
62712 On ch=2 n=59 v=87
62734 On ch=2 n=50 v=0
62734 On ch=2 n=59 v=0
62736 On ch=2 n=50 v=70
62736 On ch=2 n=67 v=94
62736 On ch=2 n=74 v=110
62758 On ch=2 n=50 v=0
62758 On ch=2 n=67 v=0
62758 On ch=2 n=74 v=0
62760 On ch=2 n=50 v=80
62760 On ch=2 n=67 v=96
62760 On ch=2 n=74 v=105
62782 On ch=2 n=50 v=0
62782 On ch=2 n=67 v=0
62782 On ch=2 n=74 v=0
62784 On ch=2 n=50 v=80
62784 On ch=2 n=59 v=85
62806 On ch=2 n=50 v=0
62806 On ch=2 n=59 v=0
62808 On ch=2 n=59 v=87
62808 On ch=2 n=67 v=116
62808 On ch=2 n=74 v=125
62832 On ch=2 n=67 v=0
62832 On ch=2 n=74 v=0
62832 On ch=2 n=67 v=110
62832 On ch=2 n=74 v=112
62855 On ch=2 n=67 v=0
62856 On ch=2 n=74 v=0
62856 On ch=2 n=67 v=70
62856 On ch=2 n=74 v=70
62879 On ch=2 n=74 v=0
62880 On ch=2 n=59 v=0
62880 On ch=2 n=67 v=0
62880 On ch=2 n=59 v=80
62880 On ch=2 n=67 v=112
62880 On ch=2 n=74 v=104
62902 Pb ch=2 v=7022
62905 Pb ch=2 v=5852
62907 Pb ch=2 v=4682
62908 Pb ch=2 v=3502
62928 On ch=2 n=59 v=0
62928 On ch=2 n=67 v=0
62928 On ch=2 n=74 v=0
62928 Pb ch=2 v=8192
62928 On ch=2 n=70 v=114
62929 On ch=2 n=63 v=104
62930 On ch=2 n=55 v=82
62950 On ch=2 n=70 v=0
62952 On ch=2 n=63 v=0
62952 On ch=2 n=63 v=92
62952 On ch=2 n=70 v=104
62974 On ch=2 n=55 v=0
62974 On ch=2 n=63 v=0
62974 On ch=2 n=70 v=0
62976 On ch=2 n=55 v=80
62976 On ch=2 n=63 v=80
62976 On ch=2 n=70 v=95
62998 On ch=2 n=55 v=0
62998 On ch=2 n=63 v=0
62998 On ch=2 n=70 v=0
63000 On ch=2 n=55 v=99
63000 On ch=2 n=63 v=115
63000 On ch=2 n=70 v=127
63024 On ch=2 n=55 v=0
63024 On ch=2 n=63 v=0
63024 On ch=2 n=70 v=0
63024 On ch=2 n=55 v=87
63024 On ch=2 n=63 v=88
63024 On ch=2 n=70 v=95
63048 On ch=2 n=55 v=0
63048 On ch=2 n=63 v=0
63048 On ch=2 n=55 v=82
63048 On ch=2 n=63 v=94
63071 On ch=2 n=70 v=0
63071 On ch=2 n=55 v=0
63071 On ch=2 n=63 v=0
63071 On ch=2 n=55 v=85
63071 On ch=2 n=63 v=100
63071 On ch=2 n=70 v=112
63095 On ch=2 n=55 v=0
63095 On ch=2 n=63 v=0
63095 On ch=2 n=70 v=0
63096 On ch=2 n=55 v=82
63096 On ch=2 n=63 v=95
63096 On ch=2 n=70 v=106
63115 Pb ch=2 v=7022
63119 Pb ch=2 v=5852
63122 Pb ch=2 v=4677
63144 On ch=2 n=55 v=0
63144 On ch=2 n=63 v=0
63144 On ch=2 n=70 v=0
63144 Pb ch=2 v=8192
63144 On ch=2 n=52 v=105
63144 On ch=2 n=60 v=114
63144 On ch=2 n=67 v=115
63192 On ch=2 n=52 v=0
63192 On ch=2 n=60 v=0
63192 On ch=2 n=67 v=0
63192 On ch=2 n=52 v=109
63192 On ch=2 n=60 v=127
63192 On ch=2 n=67 v=127
63237 On ch=2 n=52 v=0
63237 On ch=2 n=60 v=0
63237 On ch=2 n=67 v=0
63240 On ch=2 n=52 v=90
63240 On ch=2 n=60 v=94
63240 On ch=2 n=67 v=100
63262 On ch=2 n=52 v=0
63262 On ch=2 n=60 v=0
63262 On ch=2 n=67 v=0
63264 On ch=2 n=52 v=116
63264 On ch=2 n=60 v=120
63264 On ch=2 n=67 v=127
63312 On ch=2 n=52 v=0
63312 On ch=2 n=60 v=0
63312 On ch=2 n=67 v=0
63312 On ch=2 n=52 v=99
63312 On ch=2 n=60 v=95
63312 On ch=2 n=67 v=102
63336 On ch=2 n=52 v=0
63336 On ch=2 n=60 v=0
63336 On ch=2 n=67 v=0
63336 On ch=2 n=52 v=109
63336 On ch=2 n=60 v=127
63336 On ch=2 n=67 v=127
63384 On ch=2 n=52 v=0
63384 On ch=2 n=60 v=0
63384 On ch=2 n=67 v=0
63384 On ch=2 n=52 v=87
63384 On ch=2 n=60 v=95
63384 On ch=2 n=67 v=90
63408 On ch=2 n=52 v=0
63408 On ch=2 n=60 v=0
63408 On ch=2 n=67 v=0
63408 On ch=2 n=52 v=94
63408 On ch=2 n=60 v=105
63408 On ch=2 n=67 v=110
63456 On ch=2 n=52 v=0
63456 On ch=2 n=60 v=0
63456 On ch=2 n=67 v=0
63456 On ch=2 n=52 v=89
63456 On ch=2 n=60 v=95
63456 On ch=2 n=67 v=107
63480 On ch=2 n=52 v=0
63480 On ch=2 n=60 v=0
63480 On ch=2 n=67 v=0
63480 On ch=2 n=50 v=87
63504 On ch=2 n=67 v=127
63504 On ch=2 n=74 v=127
63526 On ch=2 n=50 v=0
63526 On ch=2 n=67 v=0
63526 On ch=2 n=74 v=0
63528 On ch=2 n=50 v=80
63528 On ch=2 n=67 v=127
63528 On ch=2 n=74 v=127
63550 On ch=2 n=50 v=0
63550 On ch=2 n=67 v=0
63550 On ch=2 n=74 v=0
63552 On ch=2 n=59 v=120
63552 On ch=2 n=74 v=120
63574 On ch=2 n=59 v=0
63574 On ch=2 n=74 v=0
63576 On ch=2 n=59 v=87
63576 On ch=2 n=67 v=116
63576 On ch=2 n=74 v=125
63600 On ch=2 n=67 v=0
63600 On ch=2 n=74 v=0
63600 On ch=2 n=67 v=110
63600 On ch=2 n=74 v=112
63623 On ch=2 n=67 v=0
63624 On ch=2 n=74 v=0
63624 On ch=2 n=67 v=70
63624 On ch=2 n=74 v=70
63647 On ch=2 n=74 v=0
63648 On ch=2 n=59 v=0
63648 On ch=2 n=67 v=0
63648 On ch=2 n=59 v=110
63648 On ch=2 n=67 v=127
63648 On ch=2 n=74 v=127
63670 Pb ch=2 v=7022
63672 Pb ch=2 v=8192
63673 On ch=2 n=59 v=0
63673 On ch=2 n=67 v=0
63673 On ch=2 n=74 v=0
63696 On ch=2 n=70 v=114
63697 On ch=2 n=63 v=104
63698 On ch=2 n=55 v=82
63718 On ch=2 n=70 v=0
63720 On ch=2 n=63 v=0
63720 On ch=2 n=63 v=100
63720 On ch=2 n=70 v=104
63765 On ch=2 n=55 v=0
63765 On ch=2 n=63 v=0
63765 On ch=2 n=70 v=0
63768 On ch=2 n=55 v=110
63768 On ch=2 n=63 v=125
63768 On ch=2 n=70 v=127
63813 On ch=2 n=55 v=0
63813 On ch=2 n=63 v=0
63813 On ch=2 n=70 v=0
63816 On ch=2 n=55 v=94
63816 On ch=2 n=63 v=102
63816 On ch=2 n=70 v=106
63839 On ch=2 n=55 v=0
63839 On ch=2 n=63 v=0
63839 On ch=2 n=70 v=0
63839 On ch=2 n=55 v=99
63839 On ch=2 n=63 v=100
63839 On ch=2 n=67 v=120
63864 On ch=2 n=64 v=100
63865 On ch=2 n=55 v=0
63865 On ch=2 n=63 v=0
63888 On ch=2 n=67 v=0
63888 On ch=2 n=64 v=0
63888 On ch=2 n=64 v=100
63888 On ch=2 n=70 v=127
63912 On ch=2 n=64 v=0
63912 On ch=2 n=70 v=0
63912 On ch=2 n=64 v=110
63912 On ch=2 n=67 v=122
63957 On ch=2 n=64 v=0
63957 On ch=2 n=67 v=0
63960 On ch=2 n=64 v=106
63960 On ch=2 n=70 v=127
63982 On ch=2 n=64 v=0
63982 On ch=2 n=70 v=0
63984 On ch=2 n=64 v=106
63984 On ch=2 n=67 v=120
64029 On ch=2 n=64 v=0
64029 On ch=2 n=67 v=0
64032 On ch=2 n=64 v=118
64032 On ch=2 n=70 v=126
64054 On ch=2 n=64 v=0
64054 On ch=2 n=70 v=0
64056 On ch=2 n=64 v=100
64056 On ch=2 n=67 v=120
64101 On ch=2 n=64 v=0
64101 On ch=2 n=67 v=0
64104 On ch=2 n=64 v=100
64104 On ch=2 n=70 v=127
64128 On ch=2 n=64 v=0
64128 On ch=2 n=70 v=0
64128 On ch=2 n=64 v=110
64128 On ch=2 n=67 v=122
64173 On ch=2 n=64 v=0
64173 On ch=2 n=67 v=0
64176 On ch=2 n=64 v=106
64176 On ch=2 n=70 v=127
64198 On ch=2 n=64 v=0
64198 On ch=2 n=70 v=0
64200 On ch=2 n=64 v=106
64200 On ch=2 n=67 v=120
64224 On ch=2 n=64 v=0
64224 On ch=2 n=67 v=0
64248 On ch=2 n=67 v=104
64248 On ch=2 n=74 v=126
64296 On ch=2 n=67 v=0
64296 On ch=2 n=55 v=80
64296 On ch=2 n=59 v=100
64344 On ch=2 n=74 v=0
64344 On ch=2 n=55 v=0
64344 On ch=2 n=59 v=0
64344 On ch=2 n=67 v=106
64344 On ch=2 n=74 v=120
64409 On ch=2 n=67 v=0
64412 On ch=2 n=74 v=0
64416 On ch=2 n=67 v=102
64416 On ch=2 n=74 v=116
64438 On ch=2 n=67 v=0
64438 On ch=2 n=74 v=0
64464 On ch=2 n=63 v=110
64464 On ch=2 n=70 v=110
64488 On ch=2 n=63 v=0
64488 On ch=2 n=70 v=0
64488 On ch=2 n=55 v=98
64488 On ch=2 n=63 v=115
64488 On ch=2 n=70 v=126
64533 On ch=2 n=55 v=0
64533 On ch=2 n=63 v=0
64533 On ch=2 n=70 v=0
64536 On ch=2 n=63 v=114
64536 On ch=2 n=70 v=122
64560 On ch=2 n=63 v=0
64560 On ch=2 n=63 v=90
64584 On ch=2 n=63 v=0
64584 On ch=2 n=55 v=90
64584 On ch=2 n=63 v=92
64585 On ch=2 n=70 v=0
64608 On ch=2 n=55 v=0
64608 On ch=2 n=63 v=0
64608 On ch=2 n=63 v=102
64608 On ch=2 n=70 v=116
64630 On ch=2 n=63 v=0
64630 On ch=2 n=70 v=0
64632 On ch=2 n=55 v=90
64632 On ch=2 n=63 v=96
64632 On ch=2 n=70 v=110
64680 On ch=2 n=55 v=0
64680 On ch=2 n=63 v=0
64680 On ch=2 n=70 v=0
64680 On ch=2 n=52 v=80
64680 On ch=2 n=60 v=80
64724 On ch=2 n=52 v=0
64724 On ch=2 n=60 v=0
64728 On ch=2 n=52 v=112
64728 On ch=2 n=60 v=116
64728 On ch=2 n=72 v=100
64800 On ch=2 n=52 v=0
64800 On ch=2 n=60 v=0
64800 On ch=2 n=72 v=0
64800 On ch=2 n=60 v=110
64800 On ch=2 n=67 v=108
64848 On ch=2 n=60 v=0
64848 On ch=2 n=67 v=0
64848 On ch=2 n=52 v=95
64848 On ch=2 n=60 v=103
64872 On ch=2 n=52 v=0
64872 On ch=2 n=60 v=0
64872 On ch=2 n=52 v=97
64872 On ch=2 n=60 v=106
64872 On ch=2 n=67 v=112
64920 On ch=2 n=52 v=0
64920 On ch=2 n=60 v=0
64920 On ch=2 n=67 v=0
64920 On ch=2 n=52 v=97
64920 On ch=2 n=60 v=105
64920 On ch=2 n=67 v=100
64944 On ch=2 n=52 v=0
64944 On ch=2 n=60 v=0
64944 On ch=2 n=67 v=0
64944 On ch=2 n=60 v=115
64944 On ch=2 n=67 v=120
64992 On ch=2 n=60 v=0
64992 On ch=2 n=67 v=0
64992 On ch=2 n=52 v=99
64992 On ch=2 n=60 v=105
64992 On ch=2 n=67 v=117
65016 On ch=2 n=52 v=0
65016 On ch=2 n=60 v=0
65016 On ch=2 n=67 v=0
65016 On ch=2 n=67 v=104
65016 On ch=2 n=74 v=126
65064 On ch=2 n=67 v=0
65064 On ch=2 n=55 v=80
65064 On ch=2 n=59 v=100
65112 On ch=2 n=74 v=0
65112 On ch=2 n=55 v=0
65112 On ch=2 n=59 v=0
65112 On ch=2 n=67 v=106
65112 On ch=2 n=74 v=120
65177 On ch=2 n=67 v=0
65180 On ch=2 n=74 v=0
65184 On ch=2 n=67 v=102
65184 On ch=2 n=74 v=116
65206 On ch=2 n=67 v=0
65206 On ch=2 n=74 v=0
65232 On ch=2 n=63 v=110
65232 On ch=2 n=70 v=110
65256 On ch=2 n=63 v=0
65256 On ch=2 n=70 v=0
65256 On ch=2 n=55 v=98
65256 On ch=2 n=63 v=115
65256 On ch=2 n=70 v=126
65301 On ch=2 n=55 v=0
65301 On ch=2 n=63 v=0
65301 On ch=2 n=70 v=0
65304 On ch=2 n=63 v=114
65304 On ch=2 n=70 v=122
65328 On ch=2 n=63 v=0
65328 On ch=2 n=63 v=90
65352 On ch=2 n=63 v=0
65352 On ch=2 n=55 v=90
65352 On ch=2 n=63 v=92
65353 On ch=2 n=70 v=0
65376 On ch=2 n=55 v=0
65376 On ch=2 n=63 v=0
65376 On ch=2 n=63 v=102
65376 On ch=2 n=70 v=116
65398 On ch=2 n=63 v=0
65398 On ch=2 n=70 v=0
65400 On ch=2 n=55 v=90
65400 On ch=2 n=63 v=96
65400 On ch=2 n=70 v=110
65448 On ch=2 n=55 v=0
65448 On ch=2 n=63 v=0
65448 On ch=2 n=70 v=0
65448 On ch=2 n=52 v=80
65448 On ch=2 n=60 v=80
65492 On ch=2 n=52 v=0
65492 On ch=2 n=60 v=0
65496 On ch=2 n=52 v=112
65496 On ch=2 n=60 v=116
65496 On ch=2 n=72 v=100
65568 On ch=2 n=52 v=0
65568 On ch=2 n=60 v=0
65568 On ch=2 n=72 v=0
65568 On ch=2 n=60 v=110
65568 On ch=2 n=67 v=108
65616 On ch=2 n=60 v=0
65616 On ch=2 n=67 v=0
65616 On ch=2 n=52 v=95
65616 On ch=2 n=60 v=103
65640 On ch=2 n=52 v=0
65640 On ch=2 n=60 v=0
65640 On ch=2 n=52 v=97
65640 On ch=2 n=60 v=106
65640 On ch=2 n=67 v=112
65688 On ch=2 n=52 v=0
65688 On ch=2 n=60 v=0
65688 On ch=2 n=67 v=0
65688 On ch=2 n=52 v=97
65688 On ch=2 n=60 v=105
65688 On ch=2 n=67 v=100
65712 On ch=2 n=52 v=0
65712 On ch=2 n=60 v=0
65712 On ch=2 n=67 v=0
65712 On ch=2 n=60 v=115
65712 On ch=2 n=67 v=120
65760 On ch=2 n=60 v=0
65760 On ch=2 n=67 v=0
65760 On ch=2 n=60 v=105
65760 On ch=2 n=67 v=117
65782 On ch=2 n=60 v=0
65782 On ch=2 n=67 v=0
65784 On ch=2 n=67 v=104
65784 On ch=2 n=74 v=126
65832 On ch=2 n=67 v=0
65832 On ch=2 n=55 v=80
65832 On ch=2 n=59 v=100
65880 On ch=2 n=74 v=0
65880 On ch=2 n=55 v=0
65880 On ch=2 n=59 v=0
65880 On ch=2 n=67 v=106
65880 On ch=2 n=74 v=120
65945 On ch=2 n=67 v=0
65948 On ch=2 n=74 v=0
65952 On ch=2 n=67 v=102
65952 On ch=2 n=74 v=116
65974 On ch=2 n=67 v=0
65974 On ch=2 n=74 v=0
66000 On ch=2 n=63 v=110
66000 On ch=2 n=70 v=110
66024 On ch=2 n=63 v=0
66024 On ch=2 n=70 v=0
66024 On ch=2 n=55 v=98
66024 On ch=2 n=63 v=115
66024 On ch=2 n=70 v=126
66069 On ch=2 n=55 v=0
66069 On ch=2 n=63 v=0
66069 On ch=2 n=70 v=0
66072 On ch=2 n=63 v=114
66072 On ch=2 n=70 v=122
66096 On ch=2 n=63 v=0
66096 On ch=2 n=63 v=90
66120 On ch=2 n=63 v=0
66120 On ch=2 n=55 v=90
66120 On ch=2 n=63 v=92
66121 On ch=2 n=70 v=0
66144 On ch=2 n=55 v=0
66144 On ch=2 n=63 v=0
66144 On ch=2 n=63 v=102
66144 On ch=2 n=70 v=116
66166 On ch=2 n=63 v=0
66166 On ch=2 n=70 v=0
66168 On ch=2 n=55 v=90
66168 On ch=2 n=63 v=96
66168 On ch=2 n=70 v=110
66216 On ch=2 n=55 v=0
66216 On ch=2 n=63 v=0
66216 On ch=2 n=70 v=0
66216 On ch=2 n=52 v=80
66216 On ch=2 n=60 v=80
66260 On ch=2 n=52 v=0
66260 On ch=2 n=60 v=0
66264 On ch=2 n=52 v=112
66264 On ch=2 n=60 v=116
66264 On ch=2 n=72 v=100
66336 On ch=2 n=52 v=0
66336 On ch=2 n=60 v=0
66336 On ch=2 n=72 v=0
66336 On ch=2 n=60 v=110
66336 On ch=2 n=67 v=108
66384 On ch=2 n=60 v=0
66384 On ch=2 n=67 v=0
66384 On ch=2 n=52 v=95
66384 On ch=2 n=60 v=103
66408 On ch=2 n=52 v=0
66408 On ch=2 n=60 v=0
66408 On ch=2 n=52 v=97
66408 On ch=2 n=60 v=106
66408 On ch=2 n=67 v=112
66456 On ch=2 n=52 v=0
66456 On ch=2 n=60 v=0
66456 On ch=2 n=67 v=0
66456 On ch=2 n=52 v=97
66456 On ch=2 n=60 v=105
66456 On ch=2 n=67 v=100
66480 On ch=2 n=52 v=0
66480 On ch=2 n=60 v=0
66480 On ch=2 n=67 v=0
66480 On ch=2 n=60 v=115
66480 On ch=2 n=67 v=120
66528 On ch=2 n=60 v=0
66528 On ch=2 n=67 v=0
66528 On ch=2 n=52 v=99
66528 On ch=2 n=60 v=105
66528 On ch=2 n=67 v=117
66552 On ch=2 n=52 v=0
66552 On ch=2 n=60 v=0
66552 On ch=2 n=67 v=0
66552 On ch=2 n=67 v=104
66552 On ch=2 n=74 v=126
66600 On ch=2 n=67 v=0
66600 On ch=2 n=55 v=80
66600 On ch=2 n=59 v=100
66648 On ch=2 n=74 v=0
66648 On ch=2 n=55 v=0
66648 On ch=2 n=59 v=0
66648 On ch=2 n=67 v=106
66648 On ch=2 n=74 v=120
66713 On ch=2 n=67 v=0
66716 On ch=2 n=74 v=0
66720 On ch=2 n=67 v=102
66720 On ch=2 n=74 v=116
66742 On ch=2 n=67 v=0
66742 On ch=2 n=74 v=0
66768 On ch=2 n=63 v=110
66768 On ch=2 n=70 v=110
66792 On ch=2 n=63 v=0
66792 On ch=2 n=70 v=0
66792 On ch=2 n=55 v=98
66792 On ch=2 n=63 v=115
66792 On ch=2 n=70 v=126
66837 On ch=2 n=55 v=0
66837 On ch=2 n=63 v=0
66837 On ch=2 n=70 v=0
66840 On ch=2 n=63 v=114
66840 On ch=2 n=70 v=122
66864 On ch=2 n=63 v=0
66864 On ch=2 n=63 v=90
66888 On ch=2 n=63 v=0
66888 On ch=2 n=55 v=90
66888 On ch=2 n=63 v=92
66889 On ch=2 n=70 v=0
66912 On ch=2 n=55 v=0
66912 On ch=2 n=63 v=0
66912 On ch=2 n=63 v=102
66912 On ch=2 n=70 v=116
66934 On ch=2 n=63 v=0
66934 On ch=2 n=70 v=0
66936 On ch=2 n=55 v=90
66936 On ch=2 n=63 v=96
66936 On ch=2 n=70 v=110
66984 On ch=2 n=55 v=0
66984 On ch=2 n=63 v=0
66984 On ch=2 n=70 v=0
66984 On ch=2 n=52 v=80
66984 On ch=2 n=60 v=80
67028 On ch=2 n=52 v=0
67028 On ch=2 n=60 v=0
67032 On ch=2 n=52 v=112
67032 On ch=2 n=60 v=116
67032 On ch=2 n=72 v=100
67104 On ch=2 n=52 v=0
67104 On ch=2 n=60 v=0
67104 On ch=2 n=72 v=0
67104 On ch=2 n=60 v=110
67104 On ch=2 n=67 v=108
67152 On ch=2 n=60 v=0
67152 On ch=2 n=67 v=0
67152 On ch=2 n=52 v=95
67152 On ch=2 n=60 v=103
67176 On ch=2 n=52 v=0
67176 On ch=2 n=60 v=0
67176 On ch=2 n=52 v=97
67176 On ch=2 n=60 v=106
67176 On ch=2 n=67 v=112
67224 On ch=2 n=52 v=0
67224 On ch=2 n=60 v=0
67224 On ch=2 n=67 v=0
67224 On ch=2 n=52 v=97
67224 On ch=2 n=60 v=105
67224 On ch=2 n=67 v=100
67248 On ch=2 n=52 v=0
67248 On ch=2 n=60 v=0
67248 On ch=2 n=67 v=0
67248 On ch=2 n=60 v=115
67248 On ch=2 n=67 v=120
67296 On ch=2 n=60 v=0
67296 On ch=2 n=67 v=0
67296 On ch=2 n=52 v=99
67296 On ch=2 n=60 v=105
67296 On ch=2 n=67 v=117
67320 On ch=2 n=52 v=0
67320 On ch=2 n=60 v=0
67320 On ch=2 n=67 v=0
67320 On ch=2 n=67 v=104
67320 On ch=2 n=74 v=126
67368 On ch=2 n=67 v=0
67368 On ch=2 n=55 v=80
67368 On ch=2 n=59 v=100
67416 On ch=2 n=74 v=0
67416 On ch=2 n=55 v=0
67416 On ch=2 n=59 v=0
67416 On ch=2 n=67 v=106
67416 On ch=2 n=74 v=120
67481 On ch=2 n=67 v=0
67484 On ch=2 n=74 v=0
67488 On ch=2 n=67 v=102
67488 On ch=2 n=74 v=116
67510 On ch=2 n=67 v=0
67510 On ch=2 n=74 v=0
67536 On ch=2 n=63 v=110
67536 On ch=2 n=70 v=110
67560 On ch=2 n=63 v=0
67560 On ch=2 n=70 v=0
67560 On ch=2 n=55 v=98
67560 On ch=2 n=63 v=115
67560 On ch=2 n=70 v=126
67605 On ch=2 n=55 v=0
67605 On ch=2 n=63 v=0
67605 On ch=2 n=70 v=0
67608 On ch=2 n=63 v=114
67608 On ch=2 n=70 v=122
67632 On ch=2 n=63 v=0
67632 On ch=2 n=63 v=90
67656 On ch=2 n=63 v=0
67656 On ch=2 n=55 v=90
67656 On ch=2 n=63 v=92
67657 On ch=2 n=70 v=0
67680 On ch=2 n=55 v=0
67680 On ch=2 n=63 v=0
67680 On ch=2 n=63 v=102
67680 On ch=2 n=70 v=116
67702 On ch=2 n=63 v=0
67702 On ch=2 n=70 v=0
67704 On ch=2 n=55 v=90
67704 On ch=2 n=63 v=96
67704 On ch=2 n=70 v=110
67752 On ch=2 n=55 v=0
67752 On ch=2 n=63 v=0
67752 On ch=2 n=70 v=0
67752 On ch=2 n=52 v=80
67752 On ch=2 n=60 v=80
67796 On ch=2 n=52 v=0
67796 On ch=2 n=60 v=0
67800 On ch=2 n=52 v=112
67800 On ch=2 n=60 v=116
67800 On ch=2 n=72 v=100
67872 On ch=2 n=52 v=0
67872 On ch=2 n=60 v=0
67872 On ch=2 n=72 v=0
67872 On ch=2 n=60 v=110
67872 On ch=2 n=67 v=108
67920 On ch=2 n=60 v=0
67920 On ch=2 n=67 v=0
67920 On ch=2 n=52 v=95
67920 On ch=2 n=60 v=103
67944 On ch=2 n=52 v=0
67944 On ch=2 n=60 v=0
67944 On ch=2 n=52 v=97
67944 On ch=2 n=60 v=106
67944 On ch=2 n=67 v=112
67992 On ch=2 n=52 v=0
67992 On ch=2 n=60 v=0
67992 On ch=2 n=67 v=0
67992 On ch=2 n=52 v=97
67992 On ch=2 n=60 v=105
67992 On ch=2 n=67 v=100
68016 On ch=2 n=52 v=0
68016 On ch=2 n=60 v=0
68016 On ch=2 n=67 v=0
68016 On ch=2 n=60 v=115
68016 On ch=2 n=67 v=120
68064 On ch=2 n=60 v=0
68064 On ch=2 n=67 v=0
68064 On ch=2 n=52 v=99
68064 On ch=2 n=60 v=105
68064 On ch=2 n=67 v=117
68088 On ch=2 n=52 v=0
68088 On ch=2 n=60 v=0
68088 On ch=2 n=67 v=0
68088 On ch=2 n=67 v=104
68088 On ch=2 n=74 v=126
68136 On ch=2 n=67 v=0
68136 On ch=2 n=55 v=80
68136 On ch=2 n=59 v=100
68184 On ch=2 n=74 v=0
68184 On ch=2 n=55 v=0
68184 On ch=2 n=59 v=0
68184 On ch=2 n=67 v=106
68184 On ch=2 n=74 v=120
68249 On ch=2 n=67 v=0
68252 On ch=2 n=74 v=0
68256 On ch=2 n=67 v=102
68256 On ch=2 n=74 v=116
68278 On ch=2 n=67 v=0
68278 On ch=2 n=74 v=0
68304 On ch=2 n=63 v=110
68304 On ch=2 n=70 v=110
68328 On ch=2 n=63 v=0
68328 On ch=2 n=70 v=0
68328 On ch=2 n=55 v=98
68328 On ch=2 n=63 v=115
68328 On ch=2 n=70 v=126
68373 On ch=2 n=55 v=0
68373 On ch=2 n=63 v=0
68373 On ch=2 n=70 v=0
68376 On ch=2 n=63 v=114
68376 On ch=2 n=70 v=122
68400 On ch=2 n=63 v=0
68400 On ch=2 n=63 v=90
68424 On ch=2 n=63 v=0
68424 On ch=2 n=55 v=90
68424 On ch=2 n=63 v=92
68425 On ch=2 n=70 v=0
68448 On ch=2 n=55 v=0
68448 On ch=2 n=63 v=0
68448 On ch=2 n=63 v=102
68448 On ch=2 n=70 v=116
68470 On ch=2 n=63 v=0
68470 On ch=2 n=70 v=0
68472 On ch=2 n=55 v=90
68472 On ch=2 n=63 v=96
68472 On ch=2 n=70 v=110
68520 On ch=2 n=55 v=0
68520 On ch=2 n=63 v=0
68520 On ch=2 n=70 v=0
68520 On ch=2 n=52 v=80
68520 On ch=2 n=60 v=80
68564 On ch=2 n=52 v=0
68564 On ch=2 n=60 v=0
68568 On ch=2 n=52 v=112
68568 On ch=2 n=60 v=116
68568 On ch=2 n=72 v=100
68640 On ch=2 n=52 v=0
68640 On ch=2 n=60 v=0
68640 On ch=2 n=72 v=0
68640 On ch=2 n=60 v=110
68640 On ch=2 n=67 v=108
68688 On ch=2 n=60 v=0
68688 On ch=2 n=67 v=0
68688 On ch=2 n=52 v=95
68688 On ch=2 n=60 v=103
68712 On ch=2 n=52 v=0
68712 On ch=2 n=60 v=0
68712 On ch=2 n=52 v=97
68712 On ch=2 n=60 v=106
68712 On ch=2 n=67 v=112
68760 On ch=2 n=52 v=0
68760 On ch=2 n=60 v=0
68760 On ch=2 n=67 v=0
68760 On ch=2 n=52 v=97
68760 On ch=2 n=60 v=105
68760 On ch=2 n=67 v=100
68784 On ch=2 n=52 v=0
68784 On ch=2 n=60 v=0
68784 On ch=2 n=67 v=0
68784 On ch=2 n=60 v=115
68784 On ch=2 n=67 v=120
68832 On ch=2 n=60 v=0
68832 On ch=2 n=67 v=0
68832 On ch=2 n=52 v=99
68832 On ch=2 n=60 v=105
68832 On ch=2 n=67 v=117
68856 On ch=2 n=52 v=0
68856 On ch=2 n=60 v=0
68856 On ch=2 n=67 v=0
68856 On ch=2 n=67 v=104
68856 On ch=2 n=74 v=126
68904 On ch=2 n=67 v=0
68904 On ch=2 n=55 v=80
68904 On ch=2 n=59 v=100
68952 On ch=2 n=74 v=0
68952 On ch=2 n=55 v=0
68952 On ch=2 n=59 v=0
68952 On ch=2 n=67 v=106
68952 On ch=2 n=74 v=120
69017 On ch=2 n=67 v=0
69020 On ch=2 n=74 v=0
69024 On ch=2 n=67 v=102
69024 On ch=2 n=74 v=116
69046 On ch=2 n=67 v=0
69046 On ch=2 n=74 v=0
69072 On ch=2 n=63 v=110
69072 On ch=2 n=70 v=110
69096 On ch=2 n=63 v=0
69096 On ch=2 n=70 v=0
69096 On ch=2 n=55 v=98
69096 On ch=2 n=63 v=115
69096 On ch=2 n=70 v=126
69141 On ch=2 n=55 v=0
69141 On ch=2 n=63 v=0
69141 On ch=2 n=70 v=0
69144 On ch=2 n=63 v=114
69144 On ch=2 n=70 v=122
69168 On ch=2 n=63 v=0
69168 On ch=2 n=63 v=90
69192 On ch=2 n=63 v=0
69192 On ch=2 n=55 v=90
69192 On ch=2 n=63 v=92
69193 On ch=2 n=70 v=0
69216 On ch=2 n=55 v=0
69216 On ch=2 n=63 v=0
69216 On ch=2 n=63 v=102
69216 On ch=2 n=70 v=116
69238 On ch=2 n=63 v=0
69238 On ch=2 n=70 v=0
69240 On ch=2 n=55 v=90
69240 On ch=2 n=63 v=96
69240 On ch=2 n=70 v=110
69288 On ch=2 n=55 v=0
69288 On ch=2 n=63 v=0
69288 On ch=2 n=70 v=0
69288 On ch=2 n=52 v=80
69288 On ch=2 n=60 v=80
69332 On ch=2 n=52 v=0
69332 On ch=2 n=60 v=0
69336 On ch=2 n=52 v=112
69336 On ch=2 n=60 v=116
69336 On ch=2 n=72 v=100
69408 On ch=2 n=52 v=0
69408 On ch=2 n=60 v=0
69408 On ch=2 n=72 v=0
69408 On ch=2 n=60 v=110
69408 On ch=2 n=67 v=108
69432 Par ch=2 c=7 v=90
69456 On ch=2 n=60 v=0
69456 On ch=2 n=67 v=0
69456 On ch=2 n=52 v=95
69456 On ch=2 n=60 v=103
69456 Par ch=2 c=7 v=89
69480 On ch=2 n=52 v=0
69480 On ch=2 n=60 v=0
69480 On ch=2 n=52 v=97
69480 On ch=2 n=60 v=106
69480 On ch=2 n=67 v=112
69480 Par ch=2 c=7 v=88
69504 Par ch=2 c=7 v=87
69528 On ch=2 n=52 v=0
69528 On ch=2 n=60 v=0
69528 On ch=2 n=67 v=0
69528 On ch=2 n=52 v=97
69528 On ch=2 n=60 v=105
69528 On ch=2 n=67 v=100
69528 Par ch=2 c=7 v=86
69548 Par ch=2 c=7 v=85
69552 On ch=2 n=52 v=0
69552 On ch=2 n=60 v=0
69552 On ch=2 n=67 v=0
69552 On ch=2 n=60 v=115
69552 On ch=2 n=67 v=120
69572 Par ch=2 c=7 v=84
69596 Par ch=2 c=7 v=83
69600 On ch=2 n=60 v=0
69600 On ch=2 n=67 v=0
69600 On ch=2 n=52 v=99
69600 On ch=2 n=60 v=105
69600 On ch=2 n=67 v=117
69620 Par ch=2 c=7 v=82
69624 On ch=2 n=52 v=0
69624 On ch=2 n=60 v=0
69624 On ch=2 n=67 v=0
69624 On ch=2 n=67 v=104
69624 On ch=2 n=74 v=126
69640 Par ch=2 c=7 v=81
69664 Par ch=2 c=7 v=80
69672 On ch=2 n=67 v=0
69672 On ch=2 n=55 v=80
69672 On ch=2 n=59 v=100
69688 Par ch=2 c=7 v=79
69712 Par ch=2 c=7 v=78
69720 On ch=2 n=74 v=0
69720 On ch=2 n=55 v=0
69720 On ch=2 n=59 v=0
69720 On ch=2 n=67 v=106
69720 On ch=2 n=74 v=120
69732 Par ch=2 c=7 v=77
69756 Par ch=2 c=7 v=76
69780 Par ch=2 c=7 v=75
69785 On ch=2 n=67 v=0
69788 On ch=2 n=74 v=0
69792 On ch=2 n=67 v=102
69792 On ch=2 n=74 v=116
69804 Par ch=2 c=7 v=74
69814 On ch=2 n=67 v=0
69814 On ch=2 n=74 v=0
69824 Par ch=2 c=7 v=73
69840 On ch=2 n=63 v=110
69840 On ch=2 n=70 v=110
69848 Par ch=2 c=7 v=72
69864 On ch=2 n=63 v=0
69864 On ch=2 n=70 v=0
69864 On ch=2 n=55 v=98
69864 On ch=2 n=63 v=115
69864 On ch=2 n=70 v=126
69872 Par ch=2 c=7 v=71
69896 Par ch=2 c=7 v=70
69909 On ch=2 n=55 v=0
69909 On ch=2 n=63 v=0
69909 On ch=2 n=70 v=0
69912 On ch=2 n=63 v=114
69912 On ch=2 n=70 v=122
69916 Par ch=2 c=7 v=69
69936 On ch=2 n=63 v=0
69936 On ch=2 n=63 v=90
69940 Par ch=2 c=7 v=68
69960 On ch=2 n=63 v=0
69960 On ch=2 n=55 v=90
69960 On ch=2 n=63 v=92
69961 On ch=2 n=70 v=0
69964 Par ch=2 c=7 v=67
69984 On ch=2 n=55 v=0
69984 On ch=2 n=63 v=0
69984 On ch=2 n=63 v=102
69984 On ch=2 n=70 v=116
69988 Par ch=2 c=7 v=66
70006 On ch=2 n=63 v=0
70006 On ch=2 n=70 v=0
70008 On ch=2 n=55 v=90
70008 On ch=2 n=63 v=96
70008 On ch=2 n=70 v=110
70008 Par ch=2 c=7 v=65
70032 Par ch=2 c=7 v=64
70056 On ch=2 n=55 v=0
70056 On ch=2 n=63 v=0
70056 On ch=2 n=70 v=0
70056 On ch=2 n=52 v=80
70056 On ch=2 n=60 v=80
70056 Par ch=2 c=7 v=63
70080 Par ch=2 c=7 v=62
70100 On ch=2 n=52 v=0
70100 On ch=2 n=60 v=0
70100 Par ch=2 c=7 v=61
70104 On ch=2 n=52 v=112
70104 On ch=2 n=60 v=116
70104 On ch=2 n=72 v=100
70124 Par ch=2 c=7 v=60
70148 Par ch=2 c=7 v=59
70172 Par ch=2 c=7 v=58
70176 On ch=2 n=52 v=0
70176 On ch=2 n=60 v=0
70176 On ch=2 n=72 v=0
70176 On ch=2 n=60 v=110
70176 On ch=2 n=67 v=108
70192 Par ch=2 c=7 v=57
70216 Par ch=2 c=7 v=56
70224 On ch=2 n=60 v=0
70224 On ch=2 n=67 v=0
70224 On ch=2 n=52 v=95
70224 On ch=2 n=60 v=103
70240 Par ch=2 c=7 v=55
70248 On ch=2 n=52 v=0
70248 On ch=2 n=60 v=0
70248 On ch=2 n=52 v=97
70248 On ch=2 n=60 v=106
70248 On ch=2 n=67 v=112
70264 Par ch=2 c=7 v=54
70284 Par ch=2 c=7 v=53
70296 On ch=2 n=52 v=0
70296 On ch=2 n=60 v=0
70296 On ch=2 n=67 v=0
70296 On ch=2 n=52 v=97
70296 On ch=2 n=60 v=105
70296 On ch=2 n=67 v=100
70308 Par ch=2 c=7 v=52
70320 On ch=2 n=52 v=0
70320 On ch=2 n=60 v=0
70320 On ch=2 n=67 v=0
70320 On ch=2 n=60 v=115
70320 On ch=2 n=67 v=120
70332 Par ch=2 c=7 v=51
70356 Par ch=2 c=7 v=50
70368 On ch=2 n=60 v=0
70368 On ch=2 n=67 v=0
70368 On ch=2 n=52 v=99
70368 On ch=2 n=60 v=105
70368 On ch=2 n=67 v=117
70380 Par ch=2 c=7 v=49
70392 On ch=2 n=52 v=0
70392 On ch=2 n=60 v=0
70392 On ch=2 n=67 v=0
70392 On ch=2 n=67 v=104
70392 On ch=2 n=74 v=126
70400 Par ch=2 c=7 v=48
70424 Par ch=2 c=7 v=47
70440 On ch=2 n=67 v=0
70440 On ch=2 n=55 v=80
70440 On ch=2 n=59 v=100
70448 Par ch=2 c=7 v=46
70472 Par ch=2 c=7 v=45
70488 On ch=2 n=74 v=0
70488 On ch=2 n=55 v=0
70488 On ch=2 n=59 v=0
70488 On ch=2 n=67 v=106
70488 On ch=2 n=74 v=120
70492 Par ch=2 c=7 v=44
70516 Par ch=2 c=7 v=43
70540 Par ch=2 c=7 v=42
70553 On ch=2 n=67 v=0
70556 On ch=2 n=74 v=0
70560 On ch=2 n=67 v=102
70560 On ch=2 n=74 v=116
70564 Par ch=2 c=7 v=41
70582 On ch=2 n=67 v=0
70582 On ch=2 n=74 v=0
70584 Par ch=2 c=7 v=40
70608 On ch=2 n=63 v=110
70608 On ch=2 n=70 v=110
70608 Par ch=2 c=7 v=39
70632 On ch=2 n=63 v=0
70632 On ch=2 n=70 v=0
70632 On ch=2 n=55 v=98
70632 On ch=2 n=63 v=115
70632 On ch=2 n=70 v=126
70632 Par ch=2 c=7 v=38
70656 Par ch=2 c=7 v=37
70676 Par ch=2 c=7 v=36
70677 On ch=2 n=55 v=0
70677 On ch=2 n=63 v=0
70677 On ch=2 n=70 v=0
70680 On ch=2 n=63 v=114
70680 On ch=2 n=70 v=122
70700 Par ch=2 c=7 v=35
70704 On ch=2 n=63 v=0
70704 On ch=2 n=63 v=90
70724 Par ch=2 c=7 v=34
70728 On ch=2 n=63 v=0
70728 On ch=2 n=55 v=90
70728 On ch=2 n=63 v=92
70729 On ch=2 n=70 v=0
70748 Par ch=2 c=7 v=33
70752 On ch=2 n=55 v=0
70752 On ch=2 n=63 v=0
70752 On ch=2 n=63 v=102
70752 On ch=2 n=70 v=116
70768 Par ch=2 c=7 v=32
70774 On ch=2 n=63 v=0
70774 On ch=2 n=70 v=0
70776 On ch=2 n=55 v=90
70776 On ch=2 n=63 v=96
70776 On ch=2 n=70 v=110
70792 Par ch=2 c=7 v=31
70816 Par ch=2 c=7 v=30
70824 On ch=2 n=55 v=0
70824 On ch=2 n=63 v=0
70824 On ch=2 n=70 v=0
70824 On ch=2 n=52 v=80
70824 On ch=2 n=60 v=80
70840 Par ch=2 c=7 v=29
70860 Par ch=2 c=7 v=28
70868 On ch=2 n=52 v=0
70868 On ch=2 n=60 v=0
70872 On ch=2 n=52 v=112
70872 On ch=2 n=60 v=116
70872 On ch=2 n=72 v=100
70884 Par ch=2 c=7 v=27
70908 Par ch=2 c=7 v=26
70932 Par ch=2 c=7 v=25
70944 On ch=2 n=52 v=0
70944 On ch=2 n=60 v=0
70944 On ch=2 n=72 v=0
70944 On ch=2 n=60 v=110
70944 On ch=2 n=67 v=108
70952 Par ch=2 c=7 v=24
70976 Par ch=2 c=7 v=23
70992 On ch=2 n=60 v=0
70992 On ch=2 n=67 v=0
70992 On ch=2 n=52 v=95
70992 On ch=2 n=60 v=103
71000 Par ch=2 c=7 v=22
71016 On ch=2 n=52 v=0
71016 On ch=2 n=60 v=0
71016 On ch=2 n=52 v=97
71016 On ch=2 n=60 v=106
71016 On ch=2 n=67 v=112
71024 Par ch=2 c=7 v=21
71044 Par ch=2 c=7 v=20
71064 On ch=2 n=52 v=0
71064 On ch=2 n=60 v=0
71064 On ch=2 n=67 v=0
71064 On ch=2 n=52 v=97
71064 On ch=2 n=60 v=105
71064 On ch=2 n=67 v=100
71068 Par ch=2 c=7 v=19
71088 On ch=2 n=52 v=0
71088 On ch=2 n=60 v=0
71088 On ch=2 n=67 v=0
71088 On ch=2 n=60 v=115
71088 On ch=2 n=67 v=120
71092 Par ch=2 c=7 v=18
71116 Par ch=2 c=7 v=17
71136 On ch=2 n=60 v=0
71136 On ch=2 n=67 v=0
71136 On ch=2 n=52 v=99
71136 On ch=2 n=60 v=105
71136 On ch=2 n=67 v=117
71136 Par ch=2 c=7 v=16
71160 On ch=2 n=52 v=0
71160 On ch=2 n=60 v=0
71160 On ch=2 n=67 v=0
71160 Par ch=2 c=7 v=15
71160 On ch=2 n=67 v=104
71160 On ch=2 n=74 v=126
71208 On ch=2 n=67 v=0
71208 On ch=2 n=55 v=80
71208 On ch=2 n=59 v=100
71256 On ch=2 n=74 v=0
71256 On ch=2 n=55 v=0
71256 On ch=2 n=59 v=0
71256 On ch=2 n=67 v=106
71256 On ch=2 n=74 v=120
71321 On ch=2 n=67 v=0
71324 On ch=2 n=74 v=0
71328 On ch=2 n=67 v=102
71328 On ch=2 n=74 v=116
71350 On ch=2 n=67 v=0
71350 On ch=2 n=74 v=0
71376 On ch=2 n=63 v=110
71376 On ch=2 n=70 v=110
71400 On ch=2 n=63 v=0
71400 On ch=2 n=70 v=0
71400 On ch=2 n=55 v=98
71400 On ch=2 n=63 v=115
71400 On ch=2 n=70 v=126
71445 On ch=2 n=55 v=0
71445 On ch=2 n=63 v=0
71445 On ch=2 n=70 v=0
71448 On ch=2 n=63 v=114
71448 On ch=2 n=70 v=122
71472 On ch=2 n=63 v=0
71472 On ch=2 n=63 v=90
71496 On ch=2 n=63 v=0
71496 On ch=2 n=55 v=90
71496 On ch=2 n=63 v=92
71497 On ch=2 n=70 v=0
71520 On ch=2 n=55 v=0
71520 On ch=2 n=63 v=0
71520 On ch=2 n=63 v=102
71520 On ch=2 n=70 v=116
71542 On ch=2 n=63 v=0
71542 On ch=2 n=70 v=0
71542 Meta TrkEnd
TrkEnd
MTrk
0 Meta 0x21 00
96 PrCh ch=3 p=16
101 Par ch=3 c=7 v=96
105 Par ch=3 c=10 v=40
109 Par ch=3 c=91 v=108
113 Par ch=3 c=93 v=64
117 Par ch=3 c=11 v=90
121 Par ch=3 c=1 v=0
129 Par ch=3 c=98 v=32
129 Par ch=3 c=99 v=1
129 Par ch=3 c=6 v=64
147 Par ch=3 c=98 v=33
147 Par ch=3 c=99 v=1
147 Par ch=3 c=6 v=70
192 On ch=3 n=71 v=75
192 On ch=3 n=76 v=96
192 On ch=3 n=80 v=96
286 On ch=3 n=71 v=0
286 On ch=3 n=74 v=75
287 On ch=3 n=76 v=0
287 On ch=3 n=80 v=0
287 On ch=3 n=76 v=75
288 On ch=3 n=74 v=0
288 On ch=3 n=76 v=0
288 On ch=3 n=76 v=96
288 On ch=3 n=81 v=96
288 On ch=3 n=85 v=96
576 On ch=3 n=88 v=96
1040 On ch=3 n=76 v=0
1040 On ch=3 n=81 v=0
1040 On ch=3 n=85 v=0
1040 On ch=3 n=88 v=0
1056 On ch=3 n=71 v=75
1056 On ch=3 n=76 v=96
1056 On ch=3 n=80 v=96
1150 On ch=3 n=71 v=0
1150 On ch=3 n=74 v=75
1151 On ch=3 n=76 v=0
1151 On ch=3 n=80 v=0
1151 On ch=3 n=76 v=75
1152 On ch=3 n=74 v=0
1152 On ch=3 n=76 v=0
1152 On ch=3 n=76 v=96
1152 On ch=3 n=81 v=96
1152 On ch=3 n=85 v=96
1440 On ch=3 n=88 v=96
1904 On ch=3 n=76 v=0
1904 On ch=3 n=81 v=0
1904 On ch=3 n=85 v=0
1904 On ch=3 n=88 v=0
1920 On ch=3 n=71 v=75
1920 On ch=3 n=76 v=96
1920 On ch=3 n=80 v=96
2014 On ch=3 n=71 v=0
2014 On ch=3 n=74 v=75
2015 On ch=3 n=76 v=0
2015 On ch=3 n=80 v=0
2015 On ch=3 n=76 v=75
2016 On ch=3 n=74 v=0
2016 On ch=3 n=76 v=0
2016 On ch=3 n=76 v=96
2016 On ch=3 n=81 v=96
2016 On ch=3 n=85 v=96
2368 On ch=3 n=88 v=96
2369 On ch=3 n=85 v=0
2590 On ch=3 n=76 v=0
2590 On ch=3 n=81 v=0
2590 On ch=3 n=88 v=0
2592 On ch=3 n=83 v=96
2592 On ch=3 n=88 v=96
2592 On ch=3 n=92 v=96
2658 On ch=3 n=83 v=0
2658 On ch=3 n=88 v=0
2658 On ch=3 n=92 v=0
2664 On ch=3 n=83 v=96
2664 On ch=3 n=88 v=96
2664 On ch=3 n=92 v=96
2674 On ch=3 n=83 v=0
2674 On ch=3 n=88 v=0
2674 On ch=3 n=92 v=0
2688 On ch=3 n=83 v=96
2688 On ch=3 n=88 v=96
2688 On ch=3 n=92 v=96
2714 On ch=3 n=83 v=0
2714 On ch=3 n=88 v=0
2714 On ch=3 n=92 v=0
2760 On ch=3 n=83 v=96
2760 On ch=3 n=88 v=96
2760 On ch=3 n=92 v=96
2796 On ch=3 n=83 v=0
2796 On ch=3 n=88 v=0
2796 On ch=3 n=92 v=0
2808 On ch=3 n=83 v=96
2808 On ch=3 n=88 v=96
2808 On ch=3 n=92 v=96
2832 On ch=3 n=83 v=0
2832 On ch=3 n=88 v=0
2832 On ch=3 n=92 v=0
2856 On ch=3 n=83 v=96
2856 On ch=3 n=88 v=96
2856 On ch=3 n=92 v=96
2956 On ch=3 n=92 v=0
2966 On ch=3 n=83 v=0
2966 On ch=3 n=88 v=0
2976 On ch=3 n=71 v=75
2976 On ch=3 n=76 v=96
2976 On ch=3 n=80 v=96
3070 On ch=3 n=71 v=0
3070 On ch=3 n=74 v=75
3071 On ch=3 n=76 v=0
3071 On ch=3 n=80 v=0
3071 On ch=3 n=76 v=75
3072 On ch=3 n=74 v=0
3072 On ch=3 n=76 v=0
3072 On ch=3 n=76 v=96
3072 On ch=3 n=81 v=96
3072 On ch=3 n=85 v=96
3424 On ch=3 n=88 v=96
3425 On ch=3 n=85 v=0
3646 On ch=3 n=76 v=0
3646 On ch=3 n=81 v=0
3646 On ch=3 n=88 v=0
3648 On ch=3 n=83 v=96
3648 On ch=3 n=88 v=96
3648 On ch=3 n=92 v=96
3714 On ch=3 n=83 v=0
3714 On ch=3 n=88 v=0
3714 On ch=3 n=92 v=0
3720 On ch=3 n=83 v=96
3720 On ch=3 n=88 v=96
3720 On ch=3 n=92 v=96
3730 On ch=3 n=83 v=0
3730 On ch=3 n=88 v=0
3730 On ch=3 n=92 v=0
3744 On ch=3 n=83 v=96
3744 On ch=3 n=88 v=96
3744 On ch=3 n=92 v=96
3770 On ch=3 n=83 v=0
3770 On ch=3 n=88 v=0
3770 On ch=3 n=92 v=0
3816 On ch=3 n=83 v=96
3816 On ch=3 n=88 v=96
3816 On ch=3 n=92 v=96
3852 On ch=3 n=83 v=0
3852 On ch=3 n=88 v=0
3852 On ch=3 n=92 v=0
3864 On ch=3 n=83 v=96
3864 On ch=3 n=88 v=96
3864 On ch=3 n=92 v=96
3888 On ch=3 n=83 v=0
3888 On ch=3 n=88 v=0
3888 On ch=3 n=92 v=0
3912 On ch=3 n=83 v=96
3912 On ch=3 n=88 v=96
3912 On ch=3 n=92 v=96
4012 On ch=3 n=92 v=0
4022 On ch=3 n=83 v=0
4022 On ch=3 n=88 v=0
4032 On ch=3 n=71 v=75
4032 On ch=3 n=76 v=96
4032 On ch=3 n=80 v=96
4126 On ch=3 n=71 v=0
4126 On ch=3 n=74 v=75
4127 On ch=3 n=76 v=0
4127 On ch=3 n=80 v=0
4127 On ch=3 n=76 v=75
4128 On ch=3 n=74 v=0
4128 On ch=3 n=76 v=0
4128 On ch=3 n=76 v=96
4128 On ch=3 n=81 v=96
4128 On ch=3 n=85 v=96
4416 On ch=3 n=88 v=96
4688 On ch=3 n=76 v=0
4688 On ch=3 n=81 v=0
4688 On ch=3 n=85 v=0
4688 On ch=3 n=88 v=0
4704 On ch=3 n=76 v=82
4704 On ch=3 n=80 v=96
4704 On ch=3 n=83 v=96
4720 On ch=3 n=76 v=0
4720 On ch=3 n=80 v=0
4720 On ch=3 n=83 v=0
4752 On ch=3 n=76 v=96
4752 On ch=3 n=80 v=96
4752 On ch=3 n=83 v=96
4770 On ch=3 n=76 v=0
4770 On ch=3 n=80 v=0
4770 On ch=3 n=83 v=0
4800 On ch=3 n=76 v=96
4800 On ch=3 n=80 v=96
4800 On ch=3 n=83 v=96
4890 On ch=3 n=76 v=0
4890 On ch=3 n=80 v=0
4890 On ch=3 n=83 v=0
5664 Par ch=3 c=11 v=100
5664 On ch=3 n=76 v=96
5664 On ch=3 n=80 v=96
5664 On ch=3 n=83 v=96
5754 On ch=3 n=76 v=0
5754 On ch=3 n=80 v=0
5754 On ch=3 n=83 v=0
5760 On ch=3 n=76 v=96
5760 On ch=3 n=81 v=96
5760 On ch=3 n=85 v=96
5760 On ch=3 n=88 v=96
6144 On ch=3 n=76 v=0
6144 On ch=3 n=81 v=0
6144 On ch=3 n=85 v=0
6144 On ch=3 n=88 v=0
6144 On ch=3 n=76 v=96
6144 On ch=3 n=81 v=96
6144 On ch=3 n=85 v=96
6144 On ch=3 n=88 v=96
6337 On ch=3 n=76 v=0
6337 On ch=3 n=81 v=0
6337 On ch=3 n=85 v=0
6337 On ch=3 n=88 v=0
6480 On ch=3 n=76 v=96
6480 On ch=3 n=80 v=96
6480 On ch=3 n=83 v=96
7248 On ch=3 n=71 v=75
7249 On ch=3 n=83 v=0
7342 On ch=3 n=71 v=0
7342 On ch=3 n=74 v=75
7343 On ch=3 n=76 v=0
7343 On ch=3 n=80 v=0
7343 On ch=3 n=76 v=75
7344 On ch=3 n=74 v=0
7344 On ch=3 n=76 v=0
7344 On ch=3 n=76 v=96
7344 On ch=3 n=81 v=96
7344 On ch=3 n=85 v=96
7632 On ch=3 n=88 v=96
7904 On ch=3 n=76 v=0
7904 On ch=3 n=81 v=0
7904 On ch=3 n=85 v=0
7904 On ch=3 n=88 v=0
7920 On ch=3 n=71 v=96
7920 On ch=3 n=83 v=96
7920 On ch=3 n=88 v=96
7920 On ch=3 n=92 v=96
8012 On ch=3 n=71 v=0
8012 On ch=3 n=83 v=0
8012 On ch=3 n=88 v=0
8012 On ch=3 n=92 v=0
8016 On ch=3 n=71 v=96
8016 On ch=3 n=83 v=96
8016 On ch=3 n=88 v=96
8016 On ch=3 n=92 v=96
8028 On ch=3 n=71 v=0
8032 On ch=3 n=83 v=0
8032 On ch=3 n=88 v=0
8032 On ch=3 n=92 v=0
8040 On ch=3 n=71 v=96
8040 On ch=3 n=83 v=96
8040 On ch=3 n=88 v=96
8040 On ch=3 n=92 v=96
8048 On ch=3 n=71 v=0
8048 On ch=3 n=83 v=0
8048 On ch=3 n=88 v=0
8048 On ch=3 n=92 v=0
8088 On ch=3 n=71 v=96
8088 On ch=3 n=83 v=96
8088 On ch=3 n=88 v=96
8088 On ch=3 n=92 v=96
8134 On ch=3 n=71 v=0
8134 On ch=3 n=83 v=0
8134 On ch=3 n=88 v=0
8134 On ch=3 n=92 v=0
8136 On ch=3 n=71 v=96
8136 On ch=3 n=83 v=96
8136 On ch=3 n=88 v=96
8136 On ch=3 n=92 v=96
8148 On ch=3 n=71 v=0
8148 On ch=3 n=83 v=0
8148 On ch=3 n=88 v=0
8148 On ch=3 n=92 v=0
8184 On ch=3 n=71 v=96
8184 On ch=3 n=83 v=96
8184 On ch=3 n=88 v=96
8184 On ch=3 n=92 v=96
8192 On ch=3 n=71 v=0
8192 On ch=3 n=83 v=0
8192 On ch=3 n=88 v=0
8192 On ch=3 n=92 v=0
8208 On ch=3 n=71 v=96
8208 On ch=3 n=83 v=96
8208 On ch=3 n=88 v=96
8208 On ch=3 n=92 v=96
8300 On ch=3 n=71 v=0
8300 On ch=3 n=83 v=0
8300 On ch=3 n=88 v=0
8300 On ch=3 n=92 v=0
8304 On ch=3 n=71 v=75
8304 On ch=3 n=76 v=96
8304 On ch=3 n=80 v=96
8398 On ch=3 n=71 v=0
8398 On ch=3 n=74 v=75
8399 On ch=3 n=76 v=0
8399 On ch=3 n=80 v=0
8399 On ch=3 n=76 v=75
8400 On ch=3 n=74 v=0
8400 On ch=3 n=76 v=0
8400 On ch=3 n=76 v=96
8400 On ch=3 n=81 v=96
8400 On ch=3 n=85 v=96
8688 On ch=3 n=88 v=96
8960 On ch=3 n=76 v=0
8960 On ch=3 n=81 v=0
8960 On ch=3 n=85 v=0
8960 On ch=3 n=88 v=0
8976 On ch=3 n=71 v=96
8976 On ch=3 n=76 v=96
8976 On ch=3 n=80 v=96
9068 On ch=3 n=71 v=0
9068 On ch=3 n=76 v=0
9068 On ch=3 n=80 v=0
9072 On ch=3 n=71 v=96
9072 On ch=3 n=76 v=96
9072 On ch=3 n=80 v=96
9140 On ch=3 n=71 v=0
9140 On ch=3 n=76 v=0
9140 On ch=3 n=80 v=0
9144 On ch=3 n=71 v=96
9144 On ch=3 n=76 v=96
9144 On ch=3 n=80 v=96
9166 On ch=3 n=71 v=0
9166 On ch=3 n=76 v=0
9166 On ch=3 n=80 v=0
9264 On ch=3 n=71 v=96
9264 On ch=3 n=76 v=96
9264 On ch=3 n=81 v=96
9286 On ch=3 n=81 v=0
9288 On ch=3 n=80 v=96
9356 On ch=3 n=80 v=0
9360 On ch=3 n=71 v=0
9360 On ch=3 n=76 v=0
9360 On ch=3 n=71 v=75
9360 On ch=3 n=76 v=96
9360 On ch=3 n=80 v=96
9454 On ch=3 n=71 v=0
9454 On ch=3 n=74 v=75
9455 On ch=3 n=76 v=0
9455 On ch=3 n=80 v=0
9455 On ch=3 n=76 v=75
9456 On ch=3 n=74 v=0
9456 On ch=3 n=76 v=0
9456 On ch=3 n=76 v=96
9456 On ch=3 n=81 v=96
9456 On ch=3 n=85 v=96
9744 On ch=3 n=88 v=96
10016 On ch=3 n=76 v=0
10016 On ch=3 n=81 v=0
10016 On ch=3 n=85 v=0
10016 On ch=3 n=88 v=0
10032 On ch=3 n=76 v=96
10032 On ch=3 n=83 v=96
10032 On ch=3 n=88 v=96
10032 On ch=3 n=92 v=96
10222 On ch=3 n=76 v=0
10222 On ch=3 n=83 v=0
10222 On ch=3 n=88 v=0
10222 On ch=3 n=92 v=0
10992 On ch=3 n=71 v=75
10992 On ch=3 n=76 v=96
10992 On ch=3 n=80 v=96
11086 On ch=3 n=71 v=0
11086 On ch=3 n=74 v=75
11087 On ch=3 n=76 v=0
11087 On ch=3 n=80 v=0
11087 On ch=3 n=76 v=75
11088 On ch=3 n=74 v=0
11088 On ch=3 n=76 v=0
11088 On ch=3 n=76 v=96
11088 On ch=3 n=81 v=96
11088 On ch=3 n=85 v=96
11376 On ch=3 n=88 v=96
11662 On ch=3 n=76 v=0
11662 On ch=3 n=81 v=0
11662 On ch=3 n=85 v=0
11662 On ch=3 n=88 v=0
11662 On ch=3 n=87 v=96
11664 On ch=3 n=80 v=96
11664 On ch=3 n=83 v=96
11664 On ch=3 n=88 v=96
11671 On ch=3 n=87 v=0
11686 On ch=3 n=88 v=0
11688 On ch=3 n=87 v=96
11706 On ch=3 n=87 v=0
11710 On ch=3 n=80 v=0
11710 On ch=3 n=83 v=0
11735 On ch=3 n=87 v=96
11736 On ch=3 n=80 v=96
11736 On ch=3 n=83 v=96
11736 On ch=3 n=88 v=96
11743 On ch=3 n=87 v=0
11753 On ch=3 n=88 v=0
11754 On ch=3 n=80 v=0
11754 On ch=3 n=83 v=0
11784 On ch=3 n=80 v=96
11784 On ch=3 n=83 v=96
11784 On ch=3 n=88 v=96
11804 On ch=3 n=80 v=0
11804 On ch=3 n=83 v=0
11804 On ch=3 n=88 v=0
11808 On ch=3 n=71 v=96
11808 On ch=3 n=76 v=96
11808 On ch=3 n=80 v=96
11808 On ch=3 n=83 v=96
12190 On ch=3 n=71 v=0
12190 On ch=3 n=76 v=0
12190 On ch=3 n=80 v=0
12190 On ch=3 n=83 v=0
12192 Par ch=3 c=11 v=90
12192 On ch=3 n=60 v=96
12192 On ch=3 n=67 v=96
12192 On ch=3 n=72 v=96
12192 On ch=3 n=76 v=96
12192 On ch=3 n=79 v=96
12576 On ch=3 n=60 v=0
12576 On ch=3 n=67 v=0
12576 On ch=3 n=72 v=0
12576 On ch=3 n=76 v=0
12576 On ch=3 n=79 v=0
12576 On ch=3 n=59 v=96
12576 On ch=3 n=66 v=96
12576 On ch=3 n=74 v=96
12576 On ch=3 n=78 v=96
12576 On ch=3 n=83 v=96
12960 On ch=3 n=59 v=0
12960 On ch=3 n=66 v=0
12960 On ch=3 n=74 v=0
12960 On ch=3 n=78 v=0
12960 On ch=3 n=83 v=0
12960 On ch=3 n=57 v=96
12960 On ch=3 n=64 v=96
12960 On ch=3 n=69 v=96
12960 On ch=3 n=72 v=96
12960 On ch=3 n=76 v=96
13152 On ch=3 n=57 v=0
13152 On ch=3 n=64 v=0
13152 On ch=3 n=69 v=0
13152 On ch=3 n=72 v=0
13152 On ch=3 n=76 v=0
13152 On ch=3 n=57 v=96
13152 On ch=3 n=64 v=96
13152 On ch=3 n=69 v=96
13152 On ch=3 n=72 v=96
13152 On ch=3 n=76 v=96
13344 On ch=3 n=57 v=0
13344 On ch=3 n=64 v=0
13344 On ch=3 n=69 v=0
13344 On ch=3 n=72 v=0
13344 On ch=3 n=76 v=0
13344 Par ch=3 c=10 v=0
13344 Par ch=3 c=11 v=57
13344 On ch=3 n=83 v=105
13344 On ch=3 n=86 v=100
13389 On ch=3 n=83 v=0
13389 On ch=3 n=86 v=0
13392 On ch=3 n=83 v=105
13392 On ch=3 n=86 v=100
13398 On ch=3 n=83 v=0
13398 On ch=3 n=86 v=0
13416 On ch=3 n=81 v=105
13416 On ch=3 n=86 v=100
13421 On ch=3 n=86 v=0
13423 On ch=3 n=81 v=0
13440 On ch=3 n=83 v=105
13440 On ch=3 n=86 v=100
13464 On ch=3 n=83 v=0
13464 On ch=3 n=86 v=0
13488 On ch=3 n=81 v=105
13488 On ch=3 n=86 v=100
13494 On ch=3 n=86 v=0
13495 On ch=3 n=81 v=0
13512 On ch=3 n=83 v=105
13512 On ch=3 n=86 v=100
13558 On ch=3 n=83 v=0
13558 On ch=3 n=86 v=0
13560 On ch=3 n=81 v=105
13560 On ch=3 n=86 v=100
13582 On ch=3 n=81 v=0
13582 On ch=3 n=86 v=0
13584 On ch=3 n=83 v=105
13584 On ch=3 n=86 v=100
13629 On ch=3 n=83 v=0
13629 On ch=3 n=86 v=0
13632 On ch=3 n=83 v=105
13632 On ch=3 n=86 v=100
13654 On ch=3 n=83 v=0
13654 On ch=3 n=86 v=0
13656 On ch=3 n=81 v=105
13656 On ch=3 n=86 v=100
13664 On ch=3 n=86 v=0
13665 On ch=3 n=81 v=0
13680 On ch=3 n=81 v=105
13680 On ch=3 n=86 v=100
13702 On ch=3 n=81 v=0
13702 On ch=3 n=86 v=0
13704 On ch=3 n=83 v=105
13704 On ch=3 n=86 v=100
13770 On ch=3 n=83 v=0
13770 On ch=3 n=86 v=0
13776 On ch=3 n=83 v=105
13776 On ch=3 n=86 v=100
13818 On ch=3 n=83 v=0
13818 On ch=3 n=86 v=0
13824 On ch=3 n=83 v=105
13824 On ch=3 n=86 v=100
13866 On ch=3 n=83 v=0
13866 On ch=3 n=86 v=0
13872 On ch=3 n=81 v=105
13872 On ch=3 n=86 v=100
13881 On ch=3 n=81 v=0
13881 On ch=3 n=86 v=0
13896 On ch=3 n=83 v=105
13896 On ch=3 n=86 v=100
13940 On ch=3 n=83 v=0
13940 On ch=3 n=86 v=0
13944 On ch=3 n=81 v=105
13944 On ch=3 n=86 v=100
13952 On ch=3 n=81 v=0
13952 On ch=3 n=86 v=0
13968 On ch=3 n=83 v=105
13968 On ch=3 n=86 v=100
14038 On ch=3 n=83 v=0
14038 On ch=3 n=86 v=0
14040 On ch=3 n=83 v=105
14040 On ch=3 n=86 v=100
14056 On ch=3 n=83 v=0
14056 On ch=3 n=86 v=0
14088 On ch=3 n=83 v=105
14088 On ch=3 n=86 v=100
14157 On ch=3 n=83 v=0
14157 On ch=3 n=86 v=0
14160 On ch=3 n=83 v=105
14160 On ch=3 n=86 v=100
14205 On ch=3 n=83 v=0
14205 On ch=3 n=86 v=0
14208 On ch=3 n=83 v=105
14208 On ch=3 n=86 v=100
14276 On ch=3 n=83 v=0
14276 On ch=3 n=86 v=0
14280 On ch=3 n=83 v=105
14280 On ch=3 n=86 v=100
14326 On ch=3 n=83 v=0
14326 On ch=3 n=86 v=0
14328 On ch=3 n=83 v=105
14328 On ch=3 n=86 v=100
14373 On ch=3 n=83 v=0
14373 On ch=3 n=86 v=0
14376 On ch=3 n=83 v=105
14376 On ch=3 n=86 v=100
14421 On ch=3 n=83 v=0
14421 On ch=3 n=86 v=0
14424 On ch=3 n=83 v=105
14424 On ch=3 n=86 v=100
14432 On ch=3 n=83 v=0
14432 On ch=3 n=86 v=0
14448 On ch=3 n=83 v=105
14448 On ch=3 n=86 v=100
14455 On ch=3 n=83 v=0
14455 On ch=3 n=86 v=0
14472 Par ch=3 c=11 v=70
14472 On ch=3 n=83 v=105
14472 On ch=3 n=86 v=100
14516 On ch=3 n=83 v=0
14516 On ch=3 n=86 v=0
14520 On ch=3 n=83 v=100
14520 On ch=3 n=86 v=105
14529 On ch=3 n=83 v=0
14529 On ch=3 n=86 v=0
14544 On ch=3 n=83 v=105
14544 On ch=3 n=86 v=100
14589 On ch=3 n=83 v=0
14589 On ch=3 n=86 v=0
14592 Par ch=3 c=11 v=73
14592 On ch=3 n=83 v=105
14592 On ch=3 n=86 v=105
14599 On ch=3 n=83 v=0
14599 On ch=3 n=86 v=0
14616 Par ch=3 c=11 v=77
14616 On ch=3 n=83 v=105
14616 On ch=3 n=86 v=100
14684 On ch=3 n=83 v=0
14684 On ch=3 n=86 v=0
14688 Par ch=3 c=11 v=79
14688 On ch=3 n=83 v=105
14688 On ch=3 n=86 v=100
14728 On ch=3 n=83 v=0
14728 On ch=3 n=86 v=0
14736 On ch=3 n=83 v=105
14736 On ch=3 n=86 v=100
14878 On ch=3 n=83 v=0
14878 On ch=3 n=86 v=0
14880 Par ch=3 c=11 v=75
14880 On ch=3 n=76 v=96
14880 On ch=3 n=81 v=96
14880 On ch=3 n=85 v=96
15262 On ch=3 n=76 v=0
15262 On ch=3 n=81 v=0
15262 On ch=3 n=85 v=0
15264 On ch=3 n=76 v=96
15264 On ch=3 n=79 v=96
15264 On ch=3 n=84 v=96
15646 On ch=3 n=76 v=0
15646 On ch=3 n=79 v=0
15646 On ch=3 n=84 v=0
15648 On ch=3 n=77 v=96
15648 On ch=3 n=81 v=96
15648 On ch=3 n=84 v=96
16030 On ch=3 n=77 v=0
16030 On ch=3 n=81 v=0
16030 On ch=3 n=84 v=0
16032 Par ch=3 c=11 v=77
16032 On ch=3 n=74 v=96
16032 On ch=3 n=77 v=96
16032 On ch=3 n=82 v=96
16080 Par ch=3 c=11 v=78
16124 Par ch=3 c=11 v=79
16168 Par ch=3 c=11 v=80
16212 Par ch=3 c=11 v=81
16256 Par ch=3 c=11 v=82
16300 Par ch=3 c=11 v=83
16344 Par ch=3 c=11 v=84
16388 Par ch=3 c=11 v=85
16414 On ch=3 n=74 v=0
16414 On ch=3 n=77 v=0
16414 On ch=3 n=82 v=0
16416 On ch=3 n=72 v=96
16416 On ch=3 n=75 v=96
16416 On ch=3 n=80 v=96
16416 On ch=3 n=84 v=96
16432 Par ch=3 c=11 v=86
16476 Par ch=3 c=11 v=87
16520 Par ch=3 c=11 v=88
16564 Par ch=3 c=11 v=89
16608 Par ch=3 c=11 v=90
16798 On ch=3 n=72 v=0
16798 On ch=3 n=75 v=0
16798 On ch=3 n=80 v=0
16798 On ch=3 n=84 v=0
16800 On ch=3 n=72 v=96
16800 On ch=3 n=77 v=96
16800 On ch=3 n=81 v=96
17134 On ch=3 n=72 v=0
17134 On ch=3 n=77 v=0
17134 On ch=3 n=81 v=0
17136 Par ch=3 c=11 v=76
17136 On ch=3 n=76 v=96
17136 On ch=3 n=81 v=96
17136 On ch=3 n=85 v=96
17518 On ch=3 n=76 v=0
17518 On ch=3 n=81 v=0
17518 On ch=3 n=85 v=0
17520 On ch=3 n=76 v=96
17520 On ch=3 n=79 v=96
17520 On ch=3 n=84 v=96
17902 On ch=3 n=76 v=0
17902 On ch=3 n=79 v=0
17902 On ch=3 n=84 v=0
17904 On ch=3 n=77 v=96
17904 On ch=3 n=81 v=96
17904 On ch=3 n=84 v=96
18286 On ch=3 n=77 v=0
18286 On ch=3 n=81 v=0
18286 On ch=3 n=84 v=0
18288 Par ch=3 c=11 v=77
18288 On ch=3 n=74 v=96
18288 On ch=3 n=77 v=96
18288 On ch=3 n=82 v=96
18336 Par ch=3 c=11 v=78
18380 Par ch=3 c=11 v=79
18424 Par ch=3 c=11 v=80
18468 Par ch=3 c=11 v=81
18512 Par ch=3 c=11 v=82
18556 Par ch=3 c=11 v=83
18600 Par ch=3 c=11 v=84
18644 Par ch=3 c=11 v=85
18670 On ch=3 n=74 v=0
18670 On ch=3 n=77 v=0
18670 On ch=3 n=82 v=0
18672 On ch=3 n=72 v=96
18672 On ch=3 n=75 v=96
18672 On ch=3 n=80 v=96
18672 On ch=3 n=84 v=96
18688 Par ch=3 c=11 v=86
18732 Par ch=3 c=11 v=87
18776 Par ch=3 c=11 v=88
18820 Par ch=3 c=11 v=89
18864 Par ch=3 c=11 v=90
19054 On ch=3 n=72 v=0
19054 On ch=3 n=75 v=0
19054 On ch=3 n=80 v=0
19054 On ch=3 n=84 v=0
19152 On ch=3 n=77 v=96
19152 On ch=3 n=81 v=96
19152 On ch=3 n=84 v=96
19390 On ch=3 n=77 v=0
19390 On ch=3 n=81 v=0
19390 On ch=3 n=84 v=0
19392 Par ch=3 c=10 v=48
19392 Par ch=3 c=11 v=96
19392 Par ch=3 c=93 v=96
19392 On ch=3 n=43 v=96
19392 On ch=3 n=55 v=96
19460 On ch=3 n=43 v=0
19460 On ch=3 n=55 v=0
19464 On ch=3 n=45 v=96
19464 On ch=3 n=57 v=96
19484 On ch=3 n=45 v=0
19484 On ch=3 n=57 v=0
19488 On ch=3 n=47 v=96
19488 On ch=3 n=59 v=96
19510 On ch=3 n=47 v=0
19510 On ch=3 n=59 v=0
19512 On ch=3 n=48 v=96
19512 On ch=3 n=60 v=96
19534 On ch=3 n=48 v=0
19536 On ch=3 n=60 v=0
19536 On ch=3 n=50 v=96
19536 On ch=3 n=62 v=96
19556 On ch=3 n=50 v=0
19557 On ch=3 n=62 v=0
19560 On ch=3 n=52 v=96
19560 On ch=3 n=64 v=96
19582 On ch=3 n=52 v=0
19582 On ch=3 n=64 v=0
19584 On ch=3 n=54 v=96
19584 On ch=3 n=66 v=96
19604 On ch=3 n=54 v=0
19604 On ch=3 n=66 v=0
19608 On ch=3 n=55 v=96
19608 On ch=3 n=67 v=96
19653 On ch=3 n=55 v=0
19653 On ch=3 n=67 v=0
19656 On ch=3 n=57 v=96
19656 On ch=3 n=69 v=96
19678 On ch=3 n=57 v=0
19678 On ch=3 n=69 v=0
19680 On ch=3 n=59 v=96
19680 On ch=3 n=71 v=96
19702 On ch=3 n=59 v=0
19702 On ch=3 n=71 v=0
19704 On ch=3 n=60 v=96
19704 On ch=3 n=72 v=96
19726 On ch=3 n=60 v=0
19726 On ch=3 n=72 v=0
19728 On ch=3 n=61 v=96
19728 On ch=3 n=73 v=96
19732 On ch=3 n=62 v=96
19732 On ch=3 n=74 v=96
19734 On ch=3 n=61 v=0
19734 On ch=3 n=73 v=0
19750 On ch=3 n=62 v=0
19750 On ch=3 n=74 v=0
19752 On ch=3 n=60 v=96
19752 On ch=3 n=72 v=96
19774 On ch=3 n=60 v=0
19774 On ch=3 n=72 v=0
19776 On ch=3 n=59 v=96
19776 On ch=3 n=71 v=96
19798 On ch=3 n=59 v=0
19798 On ch=3 n=71 v=0
19800 On ch=3 n=57 v=96
19800 On ch=3 n=69 v=96
19822 On ch=3 n=57 v=0
19822 On ch=3 n=69 v=0
19824 Par ch=3 c=10 v=40
19824 Par ch=3 c=93 v=64
19824 Par ch=3 c=11 v=90
19824 On ch=3 n=71 v=96
19824 On ch=3 n=80 v=96
19824 On ch=3 n=83 v=96
19916 On ch=3 n=71 v=0
19916 On ch=3 n=80 v=0
19916 On ch=3 n=83 v=0
19919 On ch=3 n=75 v=96
19920 On ch=3 n=75 v=0
19920 On ch=3 n=76 v=96
19920 On ch=3 n=81 v=96
19920 On ch=3 n=85 v=96
20208 On ch=3 n=88 v=96
20684 On ch=3 n=76 v=0
20684 On ch=3 n=81 v=0
20684 On ch=3 n=85 v=0
20684 On ch=3 n=88 v=0
20688 On ch=3 n=64 v=96
20688 On ch=3 n=71 v=96
20688 On ch=3 n=80 v=96
20688 On ch=3 n=83 v=96
20780 On ch=3 n=64 v=0
20780 On ch=3 n=71 v=0
20780 On ch=3 n=80 v=0
20780 On ch=3 n=83 v=0
20781 On ch=3 n=72 v=96
20783 On ch=3 n=72 v=0
20783 On ch=3 n=74 v=96
20784 On ch=3 n=76 v=96
20784 On ch=3 n=81 v=96
20784 On ch=3 n=85 v=96
20785 On ch=3 n=74 v=0
21072 On ch=3 n=88 v=96
21548 On ch=3 n=76 v=0
21548 On ch=3 n=81 v=0
21548 On ch=3 n=85 v=0
21548 On ch=3 n=88 v=0
21552 On ch=3 n=64 v=96
21552 On ch=3 n=71 v=96
21552 On ch=3 n=80 v=96
21552 On ch=3 n=83 v=96
21644 On ch=3 n=64 v=0
21644 On ch=3 n=71 v=0
21644 On ch=3 n=80 v=0
21644 On ch=3 n=83 v=0
21646 On ch=3 n=72 v=96
21648 On ch=3 n=72 v=0
21648 On ch=3 n=76 v=96
21648 On ch=3 n=81 v=96
21648 On ch=3 n=85 v=96
21936 On ch=3 n=88 v=96
22220 On ch=3 n=76 v=0
22220 On ch=3 n=81 v=0
22220 On ch=3 n=85 v=0
22220 On ch=3 n=88 v=0
22272 On ch=3 n=83 v=96
22272 On ch=3 n=88 v=96
22272 On ch=3 n=92 v=96
22274 On ch=3 n=83 v=0
22274 On ch=3 n=88 v=0
22274 On ch=3 n=92 v=0
22296 On ch=3 n=83 v=96
22296 On ch=3 n=88 v=96
22296 On ch=3 n=92 v=96
22298 On ch=3 n=83 v=0
22298 On ch=3 n=88 v=0
22298 On ch=3 n=92 v=0
22320 On ch=3 n=83 v=96
22320 On ch=3 n=88 v=96
22320 On ch=3 n=92 v=96
22365 On ch=3 n=83 v=0
22365 On ch=3 n=88 v=0
22365 On ch=3 n=92 v=0
22392 On ch=3 n=83 v=96
22392 On ch=3 n=88 v=96
22392 On ch=3 n=92 v=96
22438 On ch=3 n=83 v=0
22438 On ch=3 n=88 v=0
22438 On ch=3 n=92 v=0
22440 On ch=3 n=83 v=96
22440 On ch=3 n=88 v=96
22440 On ch=3 n=92 v=96
22442 On ch=3 n=83 v=0
22442 On ch=3 n=88 v=0
22442 On ch=3 n=92 v=0
22464 On ch=3 n=83 v=96
22464 On ch=3 n=88 v=96
22464 On ch=3 n=92 v=96
22466 On ch=3 n=83 v=0
22466 On ch=3 n=88 v=0
22466 On ch=3 n=92 v=0
22488 On ch=3 n=83 v=96
22488 On ch=3 n=88 v=96
22488 On ch=3 n=92 v=96
22490 On ch=3 n=83 v=0
22490 On ch=3 n=88 v=0
22490 On ch=3 n=92 v=0
22512 On ch=3 n=83 v=96
22512 On ch=3 n=88 v=96
22512 On ch=3 n=93 v=96
22534 On ch=3 n=83 v=0
22534 On ch=3 n=88 v=0
22534 On ch=3 n=93 v=0
22536 On ch=3 n=83 v=96
22536 On ch=3 n=88 v=96
22536 On ch=3 n=92 v=96
22604 On ch=3 n=83 v=0
22604 On ch=3 n=88 v=0
22604 On ch=3 n=92 v=0
22608 On ch=3 n=76 v=96
22608 On ch=3 n=80 v=96
22608 On ch=3 n=83 v=96
22700 On ch=3 n=76 v=0
22700 On ch=3 n=80 v=0
22700 On ch=3 n=83 v=0
22704 On ch=3 n=76 v=96
22704 On ch=3 n=81 v=96
22704 On ch=3 n=85 v=96
22992 On ch=3 n=88 v=96
23276 On ch=3 n=76 v=0
23276 On ch=3 n=81 v=0
23276 On ch=3 n=85 v=0
23276 On ch=3 n=88 v=0
23328 On ch=3 n=83 v=96
23328 On ch=3 n=88 v=96
23328 On ch=3 n=92 v=96
23330 On ch=3 n=83 v=0
23330 On ch=3 n=88 v=0
23330 On ch=3 n=92 v=0
23352 On ch=3 n=83 v=96
23352 On ch=3 n=88 v=96
23352 On ch=3 n=92 v=96
23354 On ch=3 n=83 v=0
23354 On ch=3 n=88 v=0
23354 On ch=3 n=92 v=0
23376 On ch=3 n=83 v=96
23376 On ch=3 n=88 v=96
23376 On ch=3 n=92 v=96
23421 On ch=3 n=83 v=0
23421 On ch=3 n=88 v=0
23421 On ch=3 n=92 v=0
23448 On ch=3 n=83 v=96
23448 On ch=3 n=88 v=96
23448 On ch=3 n=92 v=96
23494 On ch=3 n=83 v=0
23494 On ch=3 n=88 v=0
23494 On ch=3 n=92 v=0
23496 On ch=3 n=83 v=96
23496 On ch=3 n=88 v=96
23496 On ch=3 n=92 v=96
23498 On ch=3 n=83 v=0
23498 On ch=3 n=88 v=0
23498 On ch=3 n=92 v=0
23520 On ch=3 n=83 v=96
23520 On ch=3 n=88 v=96
23520 On ch=3 n=92 v=96
23522 On ch=3 n=83 v=0
23522 On ch=3 n=88 v=0
23522 On ch=3 n=92 v=0
23544 On ch=3 n=83 v=96
23544 On ch=3 n=88 v=96
23544 On ch=3 n=92 v=96
23546 On ch=3 n=83 v=0
23546 On ch=3 n=88 v=0
23546 On ch=3 n=92 v=0
23568 On ch=3 n=83 v=96
23568 On ch=3 n=88 v=96
23568 On ch=3 n=93 v=96
23590 On ch=3 n=83 v=0
23590 On ch=3 n=88 v=0
23590 On ch=3 n=93 v=0
23592 On ch=3 n=83 v=96
23592 On ch=3 n=88 v=96
23592 On ch=3 n=92 v=96
23614 On ch=3 n=83 v=0
23614 On ch=3 n=88 v=0
23614 On ch=3 n=92 v=0
23664 On ch=3 n=76 v=96
23664 On ch=3 n=80 v=96
23664 On ch=3 n=83 v=96
23756 On ch=3 n=76 v=0
23756 On ch=3 n=80 v=0
23756 On ch=3 n=83 v=0
23760 On ch=3 n=76 v=96
23760 On ch=3 n=81 v=96
23760 On ch=3 n=85 v=96
24048 On ch=3 n=88 v=96
24332 On ch=3 n=76 v=0
24332 On ch=3 n=81 v=0
24332 On ch=3 n=85 v=0
24332 On ch=3 n=88 v=0
24336 On ch=3 n=83 v=96
24336 On ch=3 n=88 v=96
24336 On ch=3 n=80 v=96
24404 On ch=3 n=83 v=0
24404 On ch=3 n=88 v=0
24404 On ch=3 n=80 v=0
24408 On ch=3 n=83 v=96
24408 On ch=3 n=88 v=96
24408 On ch=3 n=80 v=96
24420 On ch=3 n=83 v=0
24420 On ch=3 n=88 v=0
24420 On ch=3 n=80 v=0
24432 On ch=3 n=83 v=96
24432 On ch=3 n=88 v=96
24432 On ch=3 n=80 v=96
24524 On ch=3 n=83 v=0
24524 On ch=3 n=88 v=0
24524 On ch=3 n=80 v=0
25296 On ch=3 n=76 v=96
25296 On ch=3 n=80 v=96
25296 On ch=3 n=83 v=96
25388 On ch=3 n=76 v=0
25388 On ch=3 n=80 v=0
25388 On ch=3 n=83 v=0
25392 On ch=3 n=76 v=96
25392 On ch=3 n=81 v=96
25392 On ch=3 n=85 v=96
25680 On ch=3 n=88 v=96
25968 On ch=3 n=76 v=0
25968 On ch=3 n=81 v=0
25968 On ch=3 n=85 v=0
25968 On ch=3 n=88 v=0
33984 Par ch=3 c=11 v=82
33984 On ch=3 n=76 v=96
33984 On ch=3 n=78 v=96
33984 On ch=3 n=81 v=96
34366 On ch=3 n=76 v=0
34366 On ch=3 n=78 v=0
34366 On ch=3 n=81 v=0
34368 On ch=3 n=76 v=96
34368 On ch=3 n=79 v=96
34368 On ch=3 n=84 v=96
34750 On ch=3 n=76 v=0
34750 On ch=3 n=79 v=0
34750 On ch=3 n=84 v=0
34752 On ch=3 n=76 v=96
34752 On ch=3 n=77 v=96
34752 On ch=3 n=84 v=96
35134 On ch=3 n=76 v=0
35134 On ch=3 n=77 v=0
35134 On ch=3 n=84 v=0
35136 On ch=3 n=74 v=96
35136 On ch=3 n=77 v=96
35136 On ch=3 n=82 v=96
35518 On ch=3 n=74 v=0
35518 On ch=3 n=77 v=0
35518 On ch=3 n=82 v=0
35520 On ch=3 n=76 v=96
35520 On ch=3 n=81 v=96
35520 On ch=3 n=85 v=96
35902 On ch=3 n=76 v=0
35902 On ch=3 n=81 v=0
35902 On ch=3 n=85 v=0
35904 On ch=3 n=76 v=96
35904 On ch=3 n=79 v=96
35904 On ch=3 n=84 v=96
36286 On ch=3 n=76 v=0
36286 On ch=3 n=79 v=0
36286 On ch=3 n=84 v=0
36288 On ch=3 n=77 v=96
36288 On ch=3 n=81 v=96
36288 On ch=3 n=84 v=96
36670 On ch=3 n=77 v=0
36670 On ch=3 n=81 v=0
36670 On ch=3 n=84 v=0
36672 On ch=3 n=74 v=96
36672 On ch=3 n=77 v=96
36672 On ch=3 n=82 v=96
37054 On ch=3 n=74 v=0
37054 On ch=3 n=77 v=0
37054 On ch=3 n=82 v=0
37056 On ch=3 n=76 v=96
37056 On ch=3 n=81 v=96
37056 On ch=3 n=85 v=96
37438 On ch=3 n=76 v=0
37438 On ch=3 n=81 v=0
37438 On ch=3 n=85 v=0
37440 On ch=3 n=76 v=96
37440 On ch=3 n=79 v=96
37440 On ch=3 n=84 v=96
37822 On ch=3 n=76 v=0
37822 On ch=3 n=79 v=0
37822 On ch=3 n=84 v=0
37824 On ch=3 n=77 v=96
37824 On ch=3 n=81 v=96
37824 On ch=3 n=84 v=96
38206 On ch=3 n=77 v=0
38206 On ch=3 n=81 v=0
38206 On ch=3 n=84 v=0
38208 On ch=3 n=74 v=96
38208 On ch=3 n=77 v=96
38208 On ch=3 n=82 v=96
38590 On ch=3 n=74 v=0
38590 On ch=3 n=77 v=0
38590 On ch=3 n=82 v=0
38592 Par ch=3 c=11 v=75
38592 On ch=3 n=76 v=96
38592 On ch=3 n=81 v=96
38592 On ch=3 n=85 v=96
38974 On ch=3 n=76 v=0
38974 On ch=3 n=81 v=0
38974 On ch=3 n=85 v=0
38976 On ch=3 n=76 v=96
38976 On ch=3 n=79 v=96
38976 On ch=3 n=84 v=96
39358 On ch=3 n=76 v=0
39358 On ch=3 n=79 v=0
39358 On ch=3 n=84 v=0
39360 On ch=3 n=77 v=96
39360 On ch=3 n=81 v=96
39360 On ch=3 n=84 v=96
39742 On ch=3 n=77 v=0
39742 On ch=3 n=81 v=0
39742 On ch=3 n=84 v=0
39744 Par ch=3 c=11 v=77
39744 On ch=3 n=74 v=96
39744 On ch=3 n=77 v=96
39744 On ch=3 n=82 v=96
39792 Par ch=3 c=11 v=78
39836 Par ch=3 c=11 v=79
39880 Par ch=3 c=11 v=80
39924 Par ch=3 c=11 v=81
39968 Par ch=3 c=11 v=82
40012 Par ch=3 c=11 v=83
40056 Par ch=3 c=11 v=84
40100 Par ch=3 c=11 v=85
40126 On ch=3 n=74 v=0
40126 On ch=3 n=77 v=0
40126 On ch=3 n=82 v=0
40128 On ch=3 n=72 v=96
40128 On ch=3 n=75 v=96
40128 On ch=3 n=80 v=96
40128 On ch=3 n=84 v=96
40144 Par ch=3 c=11 v=86
40188 Par ch=3 c=11 v=87
40232 Par ch=3 c=11 v=88
40276 Par ch=3 c=11 v=89
40320 Par ch=3 c=11 v=90
40510 On ch=3 n=72 v=0
40510 On ch=3 n=75 v=0
40510 On ch=3 n=80 v=0
40510 On ch=3 n=84 v=0
40512 On ch=3 n=72 v=96
40512 On ch=3 n=77 v=96
40512 On ch=3 n=81 v=96
40846 On ch=3 n=72 v=0
40846 On ch=3 n=77 v=0
40846 On ch=3 n=81 v=0
40848 Par ch=3 c=11 v=76
40848 On ch=3 n=76 v=96
40848 On ch=3 n=81 v=96
40848 On ch=3 n=85 v=96
41230 On ch=3 n=76 v=0
41230 On ch=3 n=81 v=0
41230 On ch=3 n=85 v=0
41232 On ch=3 n=76 v=96
41232 On ch=3 n=79 v=96
41232 On ch=3 n=84 v=96
41614 On ch=3 n=76 v=0
41614 On ch=3 n=79 v=0
41614 On ch=3 n=84 v=0
41616 On ch=3 n=77 v=96
41616 On ch=3 n=81 v=96
41616 On ch=3 n=84 v=96
41998 On ch=3 n=77 v=0
41998 On ch=3 n=81 v=0
41998 On ch=3 n=84 v=0
42000 Par ch=3 c=11 v=77
42000 On ch=3 n=74 v=96
42000 On ch=3 n=77 v=96
42000 On ch=3 n=82 v=96
42048 Par ch=3 c=11 v=78
42092 Par ch=3 c=11 v=79
42136 Par ch=3 c=11 v=80
42180 Par ch=3 c=11 v=81
42224 Par ch=3 c=11 v=82
42268 Par ch=3 c=11 v=83
42312 Par ch=3 c=11 v=84
42356 Par ch=3 c=11 v=85
42382 On ch=3 n=74 v=0
42382 On ch=3 n=77 v=0
42382 On ch=3 n=82 v=0
42384 On ch=3 n=72 v=96
42384 On ch=3 n=75 v=96
42384 On ch=3 n=80 v=96
42384 On ch=3 n=84 v=96
42400 Par ch=3 c=11 v=86
42444 Par ch=3 c=11 v=87
42488 Par ch=3 c=11 v=88
42532 Par ch=3 c=11 v=89
42576 Par ch=3 c=11 v=90
42766 On ch=3 n=72 v=0
42766 On ch=3 n=75 v=0
42766 On ch=3 n=80 v=0
42766 On ch=3 n=84 v=0
42768 Par ch=3 c=11 v=100
42768 On ch=3 n=77 v=96
42768 On ch=3 n=81 v=96
42768 On ch=3 n=84 v=96
43102 On ch=3 n=77 v=0
43102 On ch=3 n=81 v=0
43102 On ch=3 n=84 v=0
43104 Par ch=3 c=10 v=48
43104 Par ch=3 c=11 v=100
43104 Par ch=3 c=93 v=96
43104 On ch=3 n=43 v=96
43104 On ch=3 n=55 v=96
43172 On ch=3 n=43 v=0
43172 On ch=3 n=55 v=0
43176 On ch=3 n=45 v=96
43176 On ch=3 n=57 v=96
43196 On ch=3 n=45 v=0
43196 On ch=3 n=57 v=0
43200 On ch=3 n=47 v=96
43200 On ch=3 n=59 v=96
43222 On ch=3 n=47 v=0
43222 On ch=3 n=59 v=0
43224 On ch=3 n=48 v=96
43224 On ch=3 n=60 v=96
43246 On ch=3 n=48 v=0
43246 On ch=3 n=60 v=0
43248 On ch=3 n=50 v=96
43248 On ch=3 n=62 v=96
43268 On ch=3 n=50 v=0
43268 On ch=3 n=62 v=0
43272 On ch=3 n=52 v=96
43272 On ch=3 n=64 v=96
43294 On ch=3 n=52 v=0
43294 On ch=3 n=64 v=0
43296 On ch=3 n=54 v=96
43296 On ch=3 n=66 v=96
43318 On ch=3 n=54 v=0
43318 On ch=3 n=66 v=0
43320 On ch=3 n=55 v=96
43320 On ch=3 n=67 v=96
43365 On ch=3 n=55 v=0
43365 On ch=3 n=67 v=0
43368 On ch=3 n=57 v=96
43368 On ch=3 n=69 v=96
43388 On ch=3 n=57 v=0
43388 On ch=3 n=69 v=0
43392 On ch=3 n=59 v=96
43392 On ch=3 n=71 v=96
43414 On ch=3 n=59 v=0
43414 On ch=3 n=71 v=0
43416 On ch=3 n=60 v=96
43416 On ch=3 n=72 v=96
43438 On ch=3 n=60 v=0
43438 On ch=3 n=72 v=0
43440 On ch=3 n=62 v=96
43440 On ch=3 n=74 v=96
43460 On ch=3 n=62 v=0
43460 On ch=3 n=74 v=0
43464 On ch=3 n=64 v=96
43464 On ch=3 n=76 v=96
43486 On ch=3 n=64 v=0
43486 On ch=3 n=76 v=0
43488 On ch=3 n=66 v=96
43488 On ch=3 n=78 v=96
43508 On ch=3 n=66 v=0
43508 On ch=3 n=78 v=0
43512 Par ch=3 c=11 v=70
43512 On ch=3 n=50 v=96
43512 On ch=3 n=62 v=96
43512 On ch=3 n=69 v=96
43647 Par ch=3 c=11 v=69
43691 Par ch=3 c=11 v=68
43704 Par ch=3 c=11 v=64
43704 Par ch=3 c=11 v=62
43720 Par ch=3 c=11 v=57
43738 Par ch=3 c=11 v=56
43752 Par ch=3 c=11 v=55
43767 Par ch=3 c=11 v=54
43776 Par ch=3 c=11 v=53
43786 Par ch=3 c=11 v=52
43794 Par ch=3 c=11 v=51
43800 Par ch=3 c=11 v=50
43807 Par ch=3 c=11 v=49
43813 Par ch=3 c=11 v=48
43819 Par ch=3 c=11 v=47
43824 Par ch=3 c=11 v=46
43828 Par ch=3 c=11 v=45
43833 Par ch=3 c=11 v=44
43837 Par ch=3 c=11 v=43
43842 Par ch=3 c=11 v=42
43845 Par ch=3 c=11 v=41
43848 Par ch=3 c=11 v=40
43852 Par ch=3 c=11 v=39
43855 Par ch=3 c=11 v=38
43858 Par ch=3 c=11 v=37
43861 Par ch=3 c=11 v=36
43864 Par ch=3 c=11 v=35
43867 Par ch=3 c=11 v=34
43869 Par ch=3 c=11 v=33
43872 Par ch=3 c=11 v=32
43875 Par ch=3 c=11 v=31
43876 Par ch=3 c=11 v=30
43879 Par ch=3 c=11 v=29
43881 Par ch=3 c=11 v=28
43884 Par ch=3 c=11 v=27
43885 Par ch=3 c=11 v=26
43887 Par ch=3 c=11 v=25
43890 Par ch=3 c=11 v=24
43891 Par ch=3 c=11 v=23
43893 Par ch=3 c=11 v=22
43894 Par ch=3 c=11 v=21
43895 Par ch=3 c=11 v=20
43904 On ch=3 n=50 v=0
43904 On ch=3 n=62 v=0
43904 On ch=3 n=69 v=0
46200 Par ch=3 c=93 v=96
46392 Par ch=3 c=91 v=127
46584 Par ch=3 c=11 v=60
46584 On ch=3 n=43 v=80
46584 On ch=3 n=55 v=80
46776 Par ch=3 c=11 v=65
46968 Par ch=3 c=11 v=70
47160 Par ch=3 c=11 v=75
47352 Par ch=3 c=11 v=85
48406 On ch=3 n=55 v=0
48408 On ch=3 n=43 v=0
48408 On ch=3 n=51 v=80
48408 On ch=3 n=63 v=80
48502 On ch=3 n=51 v=0
48502 On ch=3 n=63 v=0
48504 On ch=3 n=52 v=80
48504 On ch=3 n=64 v=80
48790 On ch=3 n=52 v=0
48790 On ch=3 n=64 v=0
48792 On ch=3 n=48 v=80
48792 On ch=3 n=60 v=80
48816 On ch=3 n=48 v=0
48816 On ch=3 n=47 v=80
48816 On ch=3 n=59 v=80
48817 On ch=3 n=60 v=0
48838 On ch=3 n=47 v=0
48838 On ch=3 n=59 v=0
48840 On ch=3 n=48 v=80
48840 On ch=3 n=60 v=80
48888 On ch=3 n=43 v=80
48888 On ch=3 n=55 v=80
48890 On ch=3 n=48 v=0
48890 On ch=3 n=60 v=0
49174 On ch=3 n=55 v=0
49176 On ch=3 n=43 v=0
49176 On ch=3 n=51 v=80
49176 On ch=3 n=63 v=80
49270 On ch=3 n=51 v=0
49270 On ch=3 n=63 v=0
49272 On ch=3 n=52 v=80
49272 On ch=3 n=64 v=80
49558 On ch=3 n=52 v=0
49558 On ch=3 n=64 v=0
49560 On ch=3 n=48 v=80
49560 On ch=3 n=60 v=80
49584 On ch=3 n=48 v=0
49584 On ch=3 n=47 v=80
49584 On ch=3 n=59 v=80
49585 On ch=3 n=60 v=0
49606 On ch=3 n=47 v=0
49606 On ch=3 n=59 v=0
49608 On ch=3 n=48 v=80
49608 On ch=3 n=60 v=80
49656 On ch=3 n=43 v=80
49656 On ch=3 n=55 v=80
49658 On ch=3 n=48 v=0
49658 On ch=3 n=60 v=0
49848 On ch=3 n=51 v=80
49849 On ch=3 n=43 v=0
49942 On ch=3 n=55 v=0
49944 On ch=3 n=51 v=0
49944 On ch=3 n=51 v=80
49944 On ch=3 n=63 v=80
50038 On ch=3 n=51 v=0
50038 On ch=3 n=63 v=0
50040 On ch=3 n=52 v=80
50040 On ch=3 n=64 v=80
50326 On ch=3 n=52 v=0
50326 On ch=3 n=64 v=0
50328 On ch=3 n=48 v=80
50328 On ch=3 n=60 v=80
50352 On ch=3 n=48 v=0
50352 On ch=3 n=47 v=80
50352 On ch=3 n=59 v=80
50353 On ch=3 n=60 v=0
50374 On ch=3 n=47 v=0
50374 On ch=3 n=59 v=0
50376 On ch=3 n=48 v=80
50376 On ch=3 n=60 v=80
50424 On ch=3 n=43 v=80
50424 On ch=3 n=55 v=80
50426 On ch=3 n=48 v=0
50426 On ch=3 n=60 v=0
50710 On ch=3 n=55 v=0
50712 On ch=3 n=43 v=0
50712 On ch=3 n=51 v=80
50712 On ch=3 n=63 v=80
50806 On ch=3 n=51 v=0
50806 On ch=3 n=63 v=0
50808 On ch=3 n=52 v=80
50808 On ch=3 n=64 v=80
51094 On ch=3 n=52 v=0
51094 On ch=3 n=64 v=0
51096 On ch=3 n=60 v=80
51120 On ch=3 n=59 v=80
51121 On ch=3 n=60 v=0
51142 On ch=3 n=59 v=0
51144 On ch=3 n=60 v=80
51192 On ch=3 n=43 v=80
51192 On ch=3 n=55 v=80
51194 On ch=3 n=60 v=0
51478 On ch=3 n=55 v=0
51480 On ch=3 n=43 v=0
51480 On ch=3 n=51 v=80
51480 On ch=3 n=63 v=80
51574 On ch=3 n=51 v=0
51574 On ch=3 n=63 v=0
51576 On ch=3 n=52 v=80
51576 On ch=3 n=64 v=80
51769 On ch=3 n=52 v=0
51769 On ch=3 n=64 v=0
51960 On ch=3 n=43 v=80
51960 On ch=3 n=55 v=80
52246 On ch=3 n=55 v=0
52248 On ch=3 n=43 v=0
52248 On ch=3 n=51 v=80
52248 On ch=3 n=63 v=80
52342 On ch=3 n=51 v=0
52342 On ch=3 n=63 v=0
52344 On ch=3 n=52 v=80
52344 On ch=3 n=64 v=80
52630 On ch=3 n=52 v=0
52630 On ch=3 n=64 v=0
52632 On ch=3 n=55 v=80
52656 On ch=3 n=54 v=80
52657 On ch=3 n=55 v=0
52678 On ch=3 n=54 v=0
52680 On ch=3 n=55 v=80
52728 On ch=3 n=43 v=80
53014 On ch=3 n=55 v=0
53016 On ch=3 n=43 v=0
53016 On ch=3 n=51 v=80
53016 On ch=3 n=63 v=80
53110 On ch=3 n=51 v=0
53110 On ch=3 n=63 v=0
53112 On ch=3 n=52 v=80
53112 On ch=3 n=64 v=80
53398 On ch=3 n=52 v=0
53398 On ch=3 n=64 v=0
53400 On ch=3 n=60 v=80
53424 On ch=3 n=59 v=80
53425 On ch=3 n=60 v=0
53446 On ch=3 n=59 v=0
53448 On ch=3 n=60 v=80
53496 On ch=3 n=43 v=80
53496 On ch=3 n=55 v=80
53498 On ch=3 n=60 v=0
53782 On ch=3 n=55 v=0
53784 On ch=3 n=43 v=0
53784 On ch=3 n=51 v=80
53784 On ch=3 n=63 v=80
53878 On ch=3 n=51 v=0
53878 On ch=3 n=63 v=0
53880 On ch=3 n=52 v=80
53880 On ch=3 n=64 v=80
54166 On ch=3 n=52 v=0
54166 On ch=3 n=64 v=0
54168 On ch=3 n=60 v=80
54192 On ch=3 n=59 v=80
54193 On ch=3 n=60 v=0
54214 On ch=3 n=59 v=0
54216 On ch=3 n=60 v=80
54264 On ch=3 n=43 v=80
54264 On ch=3 n=55 v=80
54266 On ch=3 n=60 v=0
54550 On ch=3 n=55 v=0
54552 On ch=3 n=43 v=0
54552 On ch=3 n=51 v=80
54552 On ch=3 n=63 v=80
54646 On ch=3 n=51 v=0
54646 On ch=3 n=63 v=0
54648 On ch=3 n=52 v=80
54648 On ch=3 n=64 v=80
54934 On ch=3 n=52 v=0
54934 On ch=3 n=64 v=0
55032 On ch=3 n=43 v=80
55032 On ch=3 n=55 v=80
55318 On ch=3 n=55 v=0
55320 On ch=3 n=43 v=0
55320 On ch=3 n=51 v=80
55320 On ch=3 n=63 v=80
55414 On ch=3 n=51 v=0
55414 On ch=3 n=63 v=0
55416 On ch=3 n=52 v=80
55416 On ch=3 n=64 v=80
55798 On ch=3 n=52 v=0
55798 On ch=3 n=64 v=0
55800 On ch=3 n=43 v=80
55800 On ch=3 n=55 v=80
56086 On ch=3 n=55 v=0
56088 On ch=3 n=43 v=0
56088 On ch=3 n=51 v=80
56088 On ch=3 n=63 v=80
56182 On ch=3 n=51 v=0
56182 On ch=3 n=63 v=0
56184 On ch=3 n=52 v=80
56184 On ch=3 n=64 v=80
56566 On ch=3 n=52 v=0
56566 On ch=3 n=64 v=0
56568 On ch=3 n=43 v=80
56568 On ch=3 n=55 v=80
56854 On ch=3 n=55 v=0
56856 On ch=3 n=43 v=0
56856 On ch=3 n=51 v=80
56856 On ch=3 n=63 v=80
56950 On ch=3 n=51 v=0
56950 On ch=3 n=63 v=0
56952 On ch=3 n=52 v=80
56952 On ch=3 n=64 v=80
57334 On ch=3 n=52 v=0
57334 On ch=3 n=64 v=0
57336 On ch=3 n=43 v=80
57336 On ch=3 n=55 v=80
57622 On ch=3 n=55 v=0
57624 On ch=3 n=43 v=0
57624 On ch=3 n=51 v=80
57624 On ch=3 n=63 v=80
57718 On ch=3 n=51 v=0
57718 On ch=3 n=63 v=0
57720 On ch=3 n=52 v=80
57720 On ch=3 n=64 v=80
58102 On ch=3 n=52 v=0
58102 On ch=3 n=64 v=0
58104 On ch=3 n=43 v=80
58104 On ch=3 n=55 v=80
58390 On ch=3 n=55 v=0
58392 On ch=3 n=43 v=0
58392 On ch=3 n=51 v=80
58392 On ch=3 n=63 v=80
58486 On ch=3 n=51 v=0
58486 On ch=3 n=63 v=0
58488 On ch=3 n=52 v=80
58488 On ch=3 n=64 v=80
58870 On ch=3 n=52 v=0
58870 On ch=3 n=64 v=0
58872 On ch=3 n=43 v=80
58872 On ch=3 n=55 v=80
59158 On ch=3 n=55 v=0
59160 On ch=3 n=43 v=0
59160 On ch=3 n=51 v=80
59160 On ch=3 n=63 v=80
59254 On ch=3 n=51 v=0
59254 On ch=3 n=63 v=0
59256 On ch=3 n=52 v=80
59256 On ch=3 n=64 v=80
59638 On ch=3 n=52 v=0
59638 On ch=3 n=64 v=0
59640 On ch=3 n=43 v=80
59640 On ch=3 n=55 v=80
59926 On ch=3 n=55 v=0
59928 On ch=3 n=43 v=0
59928 On ch=3 n=51 v=80
59928 On ch=3 n=63 v=80
60022 On ch=3 n=51 v=0
60022 On ch=3 n=63 v=0
60024 On ch=3 n=52 v=80
60024 On ch=3 n=64 v=80
60406 On ch=3 n=52 v=0
60406 On ch=3 n=64 v=0
60408 On ch=3 n=43 v=80
60408 On ch=3 n=55 v=80
60694 On ch=3 n=55 v=0
60696 On ch=3 n=43 v=0
60696 On ch=3 n=51 v=80
60696 On ch=3 n=63 v=80
60790 On ch=3 n=51 v=0
60790 On ch=3 n=63 v=0
60792 On ch=3 n=52 v=80
60792 On ch=3 n=64 v=80
61174 On ch=3 n=52 v=0
61174 On ch=3 n=64 v=0
61176 On ch=3 n=43 v=80
61176 On ch=3 n=55 v=80
61462 On ch=3 n=55 v=0
61464 On ch=3 n=43 v=0
61464 On ch=3 n=51 v=80
61464 On ch=3 n=63 v=80
61558 On ch=3 n=51 v=0
61558 On ch=3 n=63 v=0
61560 On ch=3 n=52 v=80
61560 On ch=3 n=64 v=80
61942 On ch=3 n=52 v=0
61942 On ch=3 n=64 v=0
61944 On ch=3 n=43 v=80
61944 On ch=3 n=55 v=80
62230 On ch=3 n=55 v=0
62232 On ch=3 n=43 v=0
62232 On ch=3 n=51 v=80
62232 On ch=3 n=63 v=80
62326 On ch=3 n=51 v=0
62326 On ch=3 n=63 v=0
62328 On ch=3 n=52 v=80
62328 On ch=3 n=64 v=80
62710 On ch=3 n=52 v=0
62710 On ch=3 n=64 v=0
62712 On ch=3 n=43 v=80
62712 On ch=3 n=55 v=80
62998 On ch=3 n=55 v=0
63000 On ch=3 n=43 v=0
63000 On ch=3 n=51 v=80
63000 On ch=3 n=63 v=80
63094 On ch=3 n=51 v=0
63094 On ch=3 n=63 v=0
63096 On ch=3 n=52 v=80
63096 On ch=3 n=64 v=80
63478 On ch=3 n=52 v=0
63478 On ch=3 n=64 v=0
63480 On ch=3 n=43 v=80
63480 On ch=3 n=55 v=80
63672 Par ch=3 c=10 v=0
63673 On ch=3 n=43 v=0
63673 On ch=3 n=55 v=0
63708 PrCh ch=3 p=18
63780 Par ch=3 c=11 v=100
64008 On ch=3 n=91 v=90
64008 On ch=3 n=93 v=110
64246 On ch=3 n=91 v=0
64246 On ch=3 n=93 v=0
64248 Par ch=3 c=10 v=64
64248 On ch=3 n=67 v=110
64248 On ch=3 n=71 v=110
64248 On ch=3 n=74 v=110
64248 On ch=3 n=79 v=110
64440 On ch=3 n=70 v=110
64440 On ch=3 n=75 v=110
64441 On ch=3 n=71 v=0
64441 On ch=3 n=74 v=0
64632 On ch=3 n=72 v=110
64632 On ch=3 n=76 v=110
64633 On ch=3 n=70 v=0
64633 On ch=3 n=75 v=0
65016 On ch=3 n=71 v=110
65016 On ch=3 n=74 v=110
65017 On ch=3 n=72 v=0
65017 On ch=3 n=76 v=0
65208 On ch=3 n=70 v=110
65208 On ch=3 n=75 v=110
65209 On ch=3 n=71 v=0
65209 On ch=3 n=74 v=0
65400 On ch=3 n=72 v=110
65400 On ch=3 n=76 v=110
65401 On ch=3 n=70 v=0
65401 On ch=3 n=75 v=0
65783 On ch=3 n=72 v=0
65783 On ch=3 n=76 v=0
65784 On ch=3 n=71 v=110
65784 On ch=3 n=74 v=110
65785 On ch=3 n=67 v=0
65975 On ch=3 n=71 v=0
65975 On ch=3 n=74 v=0
65976 On ch=3 n=67 v=110
65976 On ch=3 n=70 v=110
65976 On ch=3 n=75 v=110
66167 On ch=3 n=70 v=0
66167 On ch=3 n=75 v=0
66168 On ch=3 n=72 v=110
66168 On ch=3 n=76 v=110
66552 On ch=3 n=71 v=110
66552 On ch=3 n=74 v=110
66553 On ch=3 n=72 v=0
66553 On ch=3 n=76 v=0
66744 On ch=3 n=70 v=110
66744 On ch=3 n=75 v=110
66745 On ch=3 n=71 v=0
66745 On ch=3 n=74 v=0
66936 On ch=3 n=72 v=110
66936 On ch=3 n=76 v=110
66937 On ch=3 n=70 v=0
66937 On ch=3 n=75 v=0
67320 On ch=3 n=71 v=110
67320 On ch=3 n=74 v=110
67321 On ch=3 n=72 v=0
67321 On ch=3 n=76 v=0
67512 On ch=3 n=70 v=110
67512 On ch=3 n=75 v=110
67513 On ch=3 n=71 v=0
67513 On ch=3 n=74 v=0
67704 On ch=3 n=72 v=110
67704 On ch=3 n=76 v=110
67705 On ch=3 n=70 v=0
67705 On ch=3 n=75 v=0
68088 On ch=3 n=71 v=110
68088 On ch=3 n=74 v=110
68089 On ch=3 n=72 v=0
68089 On ch=3 n=76 v=0
68280 On ch=3 n=70 v=110
68280 On ch=3 n=75 v=110
68281 On ch=3 n=71 v=0
68281 On ch=3 n=74 v=0
68472 On ch=3 n=72 v=110
68472 On ch=3 n=76 v=110
68473 On ch=3 n=70 v=0
68473 On ch=3 n=75 v=0
68856 On ch=3 n=71 v=110
68856 On ch=3 n=74 v=110
68857 On ch=3 n=72 v=0
68857 On ch=3 n=76 v=0
69048 On ch=3 n=70 v=110
69048 On ch=3 n=75 v=110
69049 On ch=3 n=71 v=0
69049 On ch=3 n=74 v=0
69240 On ch=3 n=72 v=110
69240 On ch=3 n=76 v=110
69241 On ch=3 n=70 v=0
69241 On ch=3 n=75 v=0
69432 Par ch=3 c=7 v=96
69456 Par ch=3 c=7 v=95
69476 Par ch=3 c=7 v=94
69500 Par ch=3 c=7 v=93
69520 Par ch=3 c=7 v=92
69540 Par ch=3 c=7 v=91
69564 Par ch=3 c=7 v=90
69584 Par ch=3 c=7 v=89
69608 Par ch=3 c=7 v=88
69624 On ch=3 n=71 v=110
69624 On ch=3 n=74 v=110
69625 On ch=3 n=72 v=0
69625 On ch=3 n=76 v=0
69628 Par ch=3 c=7 v=87
69648 Par ch=3 c=7 v=86
69672 Par ch=3 c=7 v=85
69692 Par ch=3 c=7 v=84
69716 Par ch=3 c=7 v=83
69736 Par ch=3 c=7 v=82
69756 Par ch=3 c=7 v=81
69780 Par ch=3 c=7 v=80
69800 Par ch=3 c=7 v=79
69816 On ch=3 n=70 v=110
69816 On ch=3 n=75 v=110
69817 On ch=3 n=71 v=0
69817 On ch=3 n=74 v=0
69824 Par ch=3 c=7 v=78
69844 Par ch=3 c=7 v=77
69864 Par ch=3 c=7 v=76
69888 Par ch=3 c=7 v=75
69908 Par ch=3 c=7 v=74
69932 Par ch=3 c=7 v=73
69952 Par ch=3 c=7 v=72
69972 Par ch=3 c=7 v=71
69996 Par ch=3 c=7 v=70
70008 On ch=3 n=72 v=110
70008 On ch=3 n=76 v=110
70009 On ch=3 n=70 v=0
70009 On ch=3 n=75 v=0
70016 Par ch=3 c=7 v=69
70040 Par ch=3 c=7 v=68
70060 Par ch=3 c=7 v=67
70080 Par ch=3 c=7 v=66
70104 Par ch=3 c=7 v=65
70124 Par ch=3 c=7 v=64
70148 Par ch=3 c=7 v=63
70168 Par ch=3 c=7 v=62
70188 Par ch=3 c=7 v=61
70212 Par ch=3 c=7 v=60
70232 Par ch=3 c=7 v=59
70256 Par ch=3 c=7 v=58
70276 Par ch=3 c=7 v=57
70296 Par ch=3 c=7 v=56
70320 Par ch=3 c=7 v=55
70340 Par ch=3 c=7 v=54
70364 Par ch=3 c=7 v=53
70384 Par ch=3 c=7 v=52
70392 On ch=3 n=71 v=110
70392 On ch=3 n=74 v=110
70393 On ch=3 n=72 v=0
70393 On ch=3 n=76 v=0
70404 Par ch=3 c=7 v=51
70428 Par ch=3 c=7 v=50
70448 Par ch=3 c=7 v=49
70472 Par ch=3 c=7 v=48
70492 Par ch=3 c=7 v=47
70512 Par ch=3 c=7 v=46
70536 Par ch=3 c=7 v=45
70556 Par ch=3 c=7 v=44
70580 Par ch=3 c=7 v=43
70584 On ch=3 n=70 v=110
70584 On ch=3 n=75 v=110
70585 On ch=3 n=71 v=0
70585 On ch=3 n=74 v=0
70600 Par ch=3 c=7 v=42
70620 Par ch=3 c=7 v=41
70644 Par ch=3 c=7 v=40
70664 Par ch=3 c=7 v=39
70688 Par ch=3 c=7 v=38
70708 Par ch=3 c=7 v=37
70728 Par ch=3 c=7 v=36
70752 Par ch=3 c=7 v=35
70772 Par ch=3 c=7 v=34
70776 On ch=3 n=72 v=110
70776 On ch=3 n=76 v=110
70777 On ch=3 n=70 v=0
70777 On ch=3 n=75 v=0
70796 Par ch=3 c=7 v=33
70816 Par ch=3 c=7 v=32
70836 Par ch=3 c=7 v=31
70860 Par ch=3 c=7 v=30
70880 Par ch=3 c=7 v=29
70900 Par ch=3 c=7 v=28
70924 Par ch=3 c=7 v=27
70944 Par ch=3 c=7 v=26
70968 Par ch=3 c=7 v=25
70988 Par ch=3 c=7 v=24
71008 Par ch=3 c=7 v=23
71032 Par ch=3 c=7 v=22
71052 Par ch=3 c=7 v=21
71076 Par ch=3 c=7 v=20
71096 Par ch=3 c=7 v=19
71116 Par ch=3 c=7 v=18
71140 Par ch=3 c=7 v=17
71160 Par ch=3 c=7 v=16
71160 On ch=3 n=71 v=110
71160 On ch=3 n=74 v=110
71161 On ch=3 n=72 v=0
71161 On ch=3 n=76 v=0
71352 Par ch=3 c=7 v=12
71352 On ch=3 n=70 v=110
71352 On ch=3 n=75 v=110
71353 On ch=3 n=71 v=0
71353 On ch=3 n=74 v=0
71545 On ch=3 n=79 v=0
71545 On ch=3 n=67 v=0
71545 On ch=3 n=70 v=0
71545 On ch=3 n=75 v=0
71545 Meta TrkEnd
TrkEnd
MTrk
0 Meta 0x21 00
90 PrCh ch=4 p=17
108 Par ch=4 c=7 v=96
126 Par ch=4 c=11 v=96
135 Par ch=4 c=10 v=40
143 Par ch=4 c=91 v=108
155 Par ch=4 c=93 v=64
167 Par ch=4 c=1 v=0
179 Par ch=4 c=98 v=32
179 Par ch=4 c=99 v=1
179 Par ch=4 c=6 v=64
186 Par ch=4 c=98 v=33
186 Par ch=4 c=99 v=1
186 Par ch=4 c=6 v=72
192 On ch=4 n=64 v=45
192 On ch=4 n=68 v=55
284 On ch=4 n=64 v=0
284 On ch=4 n=68 v=0
288 On ch=4 n=64 v=45
288 On ch=4 n=69 v=55
1045 On ch=4 n=64 v=0
1045 On ch=4 n=69 v=0
1056 On ch=4 n=64 v=45
1056 On ch=4 n=68 v=55
1148 On ch=4 n=64 v=0
1148 On ch=4 n=68 v=0
1152 On ch=4 n=64 v=45
1152 On ch=4 n=69 v=55
1909 On ch=4 n=64 v=0
1909 On ch=4 n=69 v=0
1920 On ch=4 n=64 v=45
1920 On ch=4 n=68 v=55
2012 On ch=4 n=64 v=0
2012 On ch=4 n=68 v=0
2016 On ch=4 n=64 v=45
2016 On ch=4 n=69 v=55
2581 On ch=4 n=64 v=0
2581 On ch=4 n=69 v=0
2592 On ch=4 n=64 v=45
2592 On ch=4 n=68 v=55
2752 On ch=4 n=64 v=0
2752 On ch=4 n=68 v=0
2760 On ch=4 n=76 v=96
2783 On ch=4 n=76 v=0
2784 On ch=4 n=78 v=107
2804 On ch=4 n=78 v=0
2806 On ch=4 n=78 v=102
2810 On ch=4 n=80 v=96
2810 On ch=4 n=83 v=54
2814 On ch=4 n=78 v=0
2818 On ch=4 n=80 v=0
2818 On ch=4 n=83 v=0
2856 On ch=4 n=73 v=116
2876 On ch=4 n=73 v=0
2880 On ch=4 n=78 v=102
2880 On ch=4 n=81 v=64
2904 On ch=4 n=78 v=0
2904 On ch=4 n=81 v=0
2904 On ch=4 n=80 v=88
2904 On ch=4 n=76 v=107
2944 On ch=4 n=80 v=0
2952 On ch=4 n=76 v=0
2976 On ch=4 n=64 v=45
2976 On ch=4 n=68 v=55
3068 On ch=4 n=64 v=0
3068 On ch=4 n=68 v=0
3072 On ch=4 n=64 v=45
3072 On ch=4 n=69 v=55
3637 On ch=4 n=64 v=0
3637 On ch=4 n=69 v=0
3816 On ch=4 n=71 v=60
3816 On ch=4 n=76 v=107
3863 On ch=4 n=71 v=0
3864 On ch=4 n=78 v=107
3865 On ch=4 n=76 v=0
3872 On ch=4 n=78 v=0
3888 On ch=4 n=76 v=107
3896 On ch=4 n=76 v=0
3912 On ch=4 n=73 v=102
3920 On ch=4 n=73 v=0
3936 On ch=4 n=71 v=60
3936 On ch=4 n=78 v=100
3936 On ch=4 n=81 v=62
3956 On ch=4 n=78 v=0
3956 On ch=4 n=81 v=0
3960 On ch=4 n=80 v=77
3960 On ch=4 n=76 v=107
4026 On ch=4 n=71 v=0
4030 On ch=4 n=80 v=0
4030 On ch=4 n=76 v=0
4032 On ch=4 n=64 v=45
4032 On ch=4 n=68 v=55
4124 On ch=4 n=64 v=0
4124 On ch=4 n=68 v=0
4128 On ch=4 n=64 v=45
4128 On ch=4 n=69 v=55
4693 On ch=4 n=64 v=0
4693 On ch=4 n=69 v=0
5664 On ch=4 n=64 v=45
5664 On ch=4 n=68 v=55
5756 On ch=4 n=64 v=0
5756 On ch=4 n=68 v=0
5760 On ch=4 n=64 v=45
5760 On ch=4 n=69 v=55
6337 On ch=4 n=64 v=0
6337 On ch=4 n=69 v=0
6696 On ch=4 n=71 v=84
6696 On ch=4 n=75 v=92
6696 On ch=4 n=76 v=102
6742 On ch=4 n=75 v=0
6742 On ch=4 n=76 v=0
6744 On ch=4 n=71 v=0
6744 On ch=4 n=71 v=85
6744 On ch=4 n=75 v=90
6744 On ch=4 n=76 v=100
6764 On ch=4 n=71 v=0
6764 On ch=4 n=75 v=0
6764 On ch=4 n=76 v=0
6768 On ch=4 n=71 v=84
6768 On ch=4 n=78 v=100
6787 On ch=4 n=71 v=0
6788 On ch=4 n=78 v=0
6792 On ch=4 n=71 v=80
6792 On ch=4 n=80 v=92
6812 On ch=4 n=71 v=0
6815 On ch=4 n=80 v=0
6816 On ch=4 n=71 v=86
6816 On ch=4 n=76 v=96
6816 On ch=4 n=81 v=102
6839 On ch=4 n=71 v=0
6839 On ch=4 n=76 v=0
6840 On ch=4 n=71 v=86
6840 On ch=4 n=76 v=95
6840 On ch=4 n=78 v=95
6888 On ch=4 n=80 v=100
6889 On ch=4 n=81 v=0
6889 On ch=4 n=78 v=0
6958 On ch=4 n=83 v=84
6978 On ch=4 n=71 v=0
6978 On ch=4 n=76 v=0
6978 On ch=4 n=80 v=0
7078 On ch=4 n=83 v=0
7080 On ch=4 n=83 v=86
7099 On ch=4 n=83 v=0
7104 On ch=4 n=83 v=84
7122 On ch=4 n=83 v=0
7128 On ch=4 n=83 v=90
7146 On ch=4 n=83 v=0
7152 On ch=4 n=83 v=84
7171 On ch=4 n=83 v=0
7176 On ch=4 n=83 v=84
7194 On ch=4 n=83 v=0
7200 On ch=4 n=83 v=90
7245 On ch=4 n=83 v=0
7248 On ch=4 n=64 v=45
7248 On ch=4 n=68 v=55
7340 On ch=4 n=64 v=0
7340 On ch=4 n=68 v=0
7344 On ch=4 n=64 v=45
7344 On ch=4 n=69 v=55
7909 On ch=4 n=64 v=0
7909 On ch=4 n=69 v=0
8088 On ch=4 n=71 v=86
8088 On ch=4 n=76 v=92
8134 On ch=4 n=76 v=0
8136 On ch=4 n=73 v=72
8136 On ch=4 n=76 v=94
8136 On ch=4 n=78 v=80
8137 On ch=4 n=71 v=0
8150 On ch=4 n=78 v=0
8152 On ch=4 n=73 v=0
8152 On ch=4 n=76 v=0
8160 On ch=4 n=73 v=80
8160 On ch=4 n=76 v=77
8160 On ch=4 n=78 v=80
8171 On ch=4 n=73 v=0
8171 On ch=4 n=78 v=0
8172 On ch=4 n=76 v=0
8184 On ch=4 n=73 v=78
8184 On ch=4 n=76 v=88
8199 On ch=4 n=73 v=0
8200 On ch=4 n=76 v=0
8208 On ch=4 n=76 v=92
8208 On ch=4 n=80 v=84
8210 On ch=4 n=81 v=94
8212 On ch=4 n=80 v=0
8232 On ch=4 n=71 v=80
8232 On ch=4 n=80 v=82
8235 On ch=4 n=81 v=0
8300 On ch=4 n=76 v=0
8300 On ch=4 n=71 v=0
8300 On ch=4 n=80 v=0
8304 On ch=4 n=64 v=45
8304 On ch=4 n=68 v=55
8396 On ch=4 n=64 v=0
8396 On ch=4 n=68 v=0
8400 On ch=4 n=64 v=45
8400 On ch=4 n=69 v=55
8965 On ch=4 n=64 v=0
8965 On ch=4 n=69 v=0
9072 PrCh ch=4 p=16
9072 Par ch=4 c=11 v=80
9144 On ch=4 n=64 v=50
9144 On ch=4 n=76 v=60
9166 On ch=4 n=64 v=0
9166 On ch=4 n=76 v=0
9168 On ch=4 n=66 v=60
9168 On ch=4 n=78 v=88
9188 On ch=4 n=66 v=0
9188 On ch=4 n=78 v=0
9192 On ch=4 n=64 v=60
9192 On ch=4 n=76 v=96
9216 On ch=4 n=66 v=60
9216 On ch=4 n=78 v=110
9217 On ch=4 n=64 v=0
9217 On ch=4 n=76 v=0
9224 On ch=4 n=66 v=0
9224 On ch=4 n=78 v=0
9240 On ch=4 n=61 v=60
9240 On ch=4 n=73 v=88
9260 On ch=4 n=61 v=0
9260 On ch=4 n=73 v=0
9354 PrCh ch=4 p=17
9360 On ch=4 n=64 v=45
9360 On ch=4 n=68 v=55
9452 On ch=4 n=64 v=0
9452 On ch=4 n=68 v=0
9456 On ch=4 n=64 v=45
9456 On ch=4 n=69 v=55
10021 On ch=4 n=64 v=0
10021 On ch=4 n=69 v=0
10992 On ch=4 n=64 v=45
10992 On ch=4 n=68 v=55
11084 On ch=4 n=64 v=0
11084 On ch=4 n=68 v=0
11088 On ch=4 n=64 v=45
11088 On ch=4 n=69 v=55
11665 On ch=4 n=64 v=0
11665 On ch=4 n=69 v=0
12792 On ch=4 n=85 v=95
12794 On ch=4 n=86 v=109
12802 On ch=4 n=85 v=0
12889 On ch=4 n=86 v=0
12960 On ch=4 n=88 v=108
13005 On ch=4 n=88 v=0
13008 On ch=4 n=88 v=102
13030 On ch=4 n=88 v=0
13032 On ch=4 n=88 v=99
13054 On ch=4 n=88 v=0
13056 On ch=4 n=88 v=102
13078 On ch=4 n=88 v=0
13080 On ch=4 n=88 v=99
13102 On ch=4 n=88 v=0
13104 On ch=4 n=88 v=101
13126 On ch=4 n=88 v=0
13128 On ch=4 n=88 v=99
13150 On ch=4 n=88 v=0
13152 On ch=4 n=88 v=101
13174 On ch=4 n=88 v=0
13176 On ch=4 n=88 v=99
13198 On ch=4 n=88 v=0
13200 On ch=4 n=88 v=105
13342 On ch=4 n=88 v=0
13344 Par ch=4 c=10 v=72
13344 Par ch=4 c=11 v=50
13344 Par ch=4 c=93 v=0
13344 On ch=4 n=71 v=105
13344 On ch=4 n=74 v=100
13344 On ch=4 n=78 v=105
13389 On ch=4 n=71 v=0
13389 On ch=4 n=74 v=0
13389 On ch=4 n=78 v=0
13392 On ch=4 n=71 v=105
13392 On ch=4 n=74 v=100
13392 On ch=4 n=78 v=105
13398 On ch=4 n=71 v=0
13398 On ch=4 n=74 v=0
13398 On ch=4 n=78 v=0
13416 On ch=4 n=69 v=105
13416 On ch=4 n=74 v=100
13416 On ch=4 n=78 v=105
13421 On ch=4 n=74 v=0
13421 On ch=4 n=78 v=0
13423 On ch=4 n=69 v=0
13440 On ch=4 n=71 v=105
13440 On ch=4 n=74 v=100
13440 On ch=4 n=78 v=105
13464 On ch=4 n=71 v=0
13464 On ch=4 n=74 v=0
13464 On ch=4 n=78 v=0
13488 On ch=4 n=69 v=105
13488 On ch=4 n=74 v=100
13488 On ch=4 n=78 v=105
13494 On ch=4 n=74 v=0
13494 On ch=4 n=78 v=0
13495 On ch=4 n=69 v=0
13512 On ch=4 n=71 v=105
13512 On ch=4 n=74 v=100
13512 On ch=4 n=78 v=105
13558 On ch=4 n=71 v=0
13558 On ch=4 n=74 v=0
13558 On ch=4 n=78 v=0
13560 On ch=4 n=69 v=105
13560 On ch=4 n=74 v=100
13560 On ch=4 n=78 v=105
13582 On ch=4 n=69 v=0
13582 On ch=4 n=74 v=0
13582 On ch=4 n=78 v=0
13584 On ch=4 n=71 v=105
13584 On ch=4 n=74 v=100
13584 On ch=4 n=78 v=105
13629 On ch=4 n=71 v=0
13629 On ch=4 n=74 v=0
13629 On ch=4 n=78 v=0
13632 On ch=4 n=71 v=105
13632 On ch=4 n=74 v=100
13632 On ch=4 n=78 v=105
13654 On ch=4 n=71 v=0
13654 On ch=4 n=74 v=0
13654 On ch=4 n=78 v=0
13656 On ch=4 n=69 v=105
13656 On ch=4 n=74 v=100
13656 On ch=4 n=78 v=105
13664 On ch=4 n=74 v=0
13664 On ch=4 n=78 v=0
13665 On ch=4 n=69 v=0
13680 On ch=4 n=69 v=105
13680 On ch=4 n=74 v=100
13680 On ch=4 n=78 v=105
13702 On ch=4 n=69 v=0
13702 On ch=4 n=74 v=0
13702 On ch=4 n=78 v=0
13704 On ch=4 n=71 v=105
13704 On ch=4 n=74 v=100
13704 On ch=4 n=78 v=105
13770 On ch=4 n=71 v=0
13770 On ch=4 n=74 v=0
13770 On ch=4 n=78 v=0
13776 On ch=4 n=71 v=105
13776 On ch=4 n=74 v=100
13776 On ch=4 n=78 v=105
13818 On ch=4 n=71 v=0
13818 On ch=4 n=74 v=0
13818 On ch=4 n=78 v=0
13824 On ch=4 n=71 v=105
13824 On ch=4 n=74 v=100
13824 On ch=4 n=78 v=105
13866 On ch=4 n=71 v=0
13866 On ch=4 n=74 v=0
13866 On ch=4 n=78 v=0
13872 On ch=4 n=69 v=105
13872 On ch=4 n=74 v=100
13872 On ch=4 n=78 v=105
13881 On ch=4 n=69 v=0
13881 On ch=4 n=74 v=0
13881 On ch=4 n=78 v=0
13896 On ch=4 n=71 v=105
13896 On ch=4 n=74 v=100
13896 On ch=4 n=78 v=105
13940 On ch=4 n=71 v=0
13940 On ch=4 n=74 v=0
13940 On ch=4 n=78 v=0
13944 On ch=4 n=69 v=105
13944 On ch=4 n=74 v=100
13944 On ch=4 n=78 v=105
13952 On ch=4 n=69 v=0
13952 On ch=4 n=74 v=0
13952 On ch=4 n=78 v=0
13968 On ch=4 n=71 v=105
13968 On ch=4 n=74 v=100
13968 On ch=4 n=78 v=105
14038 On ch=4 n=71 v=0
14038 On ch=4 n=74 v=0
14038 On ch=4 n=78 v=0
14040 On ch=4 n=71 v=105
14040 On ch=4 n=74 v=100
14040 On ch=4 n=78 v=105
14056 On ch=4 n=71 v=0
14056 On ch=4 n=74 v=0
14056 On ch=4 n=78 v=0
14088 On ch=4 n=71 v=105
14088 On ch=4 n=74 v=100
14088 On ch=4 n=78 v=105
14157 On ch=4 n=71 v=0
14157 On ch=4 n=74 v=0
14157 On ch=4 n=78 v=0
14160 On ch=4 n=71 v=105
14160 On ch=4 n=74 v=100
14160 On ch=4 n=78 v=105
14205 On ch=4 n=71 v=0
14205 On ch=4 n=74 v=0
14205 On ch=4 n=78 v=0
14208 On ch=4 n=71 v=105
14208 On ch=4 n=74 v=100
14208 On ch=4 n=78 v=105
14276 On ch=4 n=71 v=0
14276 On ch=4 n=74 v=0
14276 On ch=4 n=78 v=0
14280 On ch=4 n=71 v=105
14280 On ch=4 n=74 v=100
14280 On ch=4 n=78 v=105
14326 On ch=4 n=71 v=0
14326 On ch=4 n=74 v=0
14326 On ch=4 n=78 v=0
14328 On ch=4 n=71 v=105
14328 On ch=4 n=74 v=100
14328 On ch=4 n=78 v=105
14373 On ch=4 n=71 v=0
14373 On ch=4 n=74 v=0
14373 On ch=4 n=78 v=0
14376 On ch=4 n=71 v=105
14376 On ch=4 n=74 v=100
14376 On ch=4 n=78 v=105
14421 On ch=4 n=71 v=0
14421 On ch=4 n=74 v=0
14421 On ch=4 n=78 v=0
14424 On ch=4 n=71 v=105
14424 On ch=4 n=74 v=100
14424 On ch=4 n=78 v=105
14432 On ch=4 n=71 v=0
14432 On ch=4 n=74 v=0
14432 On ch=4 n=78 v=0
14448 On ch=4 n=71 v=105
14448 On ch=4 n=74 v=100
14448 On ch=4 n=78 v=105
14455 On ch=4 n=71 v=0
14455 On ch=4 n=74 v=0
14455 On ch=4 n=78 v=0
14472 Par ch=4 c=11 v=60
14472 On ch=4 n=71 v=105
14472 On ch=4 n=74 v=100
14472 On ch=4 n=78 v=105
14516 On ch=4 n=71 v=0
14516 On ch=4 n=74 v=0
14516 On ch=4 n=78 v=0
14520 On ch=4 n=71 v=100
14520 On ch=4 n=74 v=105
14529 On ch=4 n=71 v=0
14529 On ch=4 n=74 v=0
14544 On ch=4 n=71 v=105
14544 On ch=4 n=74 v=100
14544 On ch=4 n=78 v=105
14589 On ch=4 n=71 v=0
14589 On ch=4 n=74 v=0
14589 On ch=4 n=78 v=0
14592 Par ch=4 c=11 v=63
14592 On ch=4 n=71 v=105
14592 On ch=4 n=74 v=105
14599 On ch=4 n=71 v=0
14599 On ch=4 n=74 v=0
14616 Par ch=4 c=11 v=66
14616 On ch=4 n=71 v=105
14616 On ch=4 n=74 v=100
14616 On ch=4 n=78 v=105
14684 On ch=4 n=71 v=0
14684 On ch=4 n=74 v=0
14684 On ch=4 n=78 v=0
14688 Par ch=4 c=11 v=68
14688 On ch=4 n=71 v=105
14688 On ch=4 n=74 v=100
14688 On ch=4 n=78 v=105
14728 On ch=4 n=71 v=0
14728 On ch=4 n=74 v=0
14728 On ch=4 n=78 v=0
14736 On ch=4 n=71 v=105
14736 On ch=4 n=74 v=100
14736 On ch=4 n=78 v=105
14878 On ch=4 n=71 v=0
14878 On ch=4 n=74 v=0
14878 On ch=4 n=78 v=0
14880 Par ch=4 c=11 v=52
14880 On ch=4 n=64 v=96
14880 On ch=4 n=69 v=96
14880 On ch=4 n=73 v=96
15262 On ch=4 n=64 v=0
15262 On ch=4 n=69 v=0
15262 On ch=4 n=73 v=0
15264 On ch=4 n=64 v=96
15264 On ch=4 n=67 v=96
15264 On ch=4 n=72 v=96
15646 On ch=4 n=64 v=0
15646 On ch=4 n=67 v=0
15646 On ch=4 n=72 v=0
15648 On ch=4 n=65 v=96
15648 On ch=4 n=69 v=96
15648 On ch=4 n=72 v=96
16030 On ch=4 n=65 v=0
16030 On ch=4 n=69 v=0
16030 On ch=4 n=72 v=0
16032 On ch=4 n=62 v=96
16032 On ch=4 n=65 v=96
16032 On ch=4 n=70 v=96
16080 Par ch=4 c=11 v=52
16124 Par ch=4 c=11 v=53
16168 Par ch=4 c=11 v=54
16212 Par ch=4 c=11 v=55
16256 Par ch=4 c=11 v=56
16300 Par ch=4 c=11 v=57
16344 Par ch=4 c=11 v=58
16388 Par ch=4 c=11 v=59
16414 On ch=4 n=62 v=0
16414 On ch=4 n=65 v=0
16414 On ch=4 n=70 v=0
16416 On ch=4 n=60 v=96
16416 On ch=4 n=63 v=96
16416 On ch=4 n=68 v=96
16416 On ch=4 n=72 v=96
16432 Par ch=4 c=11 v=60
16476 Par ch=4 c=11 v=61
16520 Par ch=4 c=11 v=62
16564 Par ch=4 c=11 v=63
16608 Par ch=4 c=11 v=64
16798 On ch=4 n=60 v=0
16798 On ch=4 n=63 v=0
16798 On ch=4 n=68 v=0
16798 On ch=4 n=72 v=0
16800 On ch=4 n=65 v=96
16800 On ch=4 n=69 v=96
16800 On ch=4 n=72 v=96
17134 On ch=4 n=65 v=0
17134 On ch=4 n=69 v=0
17134 On ch=4 n=72 v=0
17136 Par ch=4 c=11 v=46
17136 On ch=4 n=64 v=96
17136 On ch=4 n=69 v=96
17136 On ch=4 n=73 v=96
17518 On ch=4 n=64 v=0
17518 On ch=4 n=69 v=0
17518 On ch=4 n=73 v=0
17520 On ch=4 n=64 v=96
17520 On ch=4 n=67 v=96
17520 On ch=4 n=72 v=96
17902 On ch=4 n=64 v=0
17902 On ch=4 n=67 v=0
17902 On ch=4 n=72 v=0
17904 On ch=4 n=65 v=96
17904 On ch=4 n=69 v=96
17904 On ch=4 n=72 v=96
18286 On ch=4 n=65 v=0
18286 On ch=4 n=69 v=0
18286 On ch=4 n=72 v=0
18288 Par ch=4 c=11 v=51
18288 On ch=4 n=62 v=96
18288 On ch=4 n=65 v=96
18288 On ch=4 n=70 v=96
18336 Par ch=4 c=11 v=52
18380 Par ch=4 c=11 v=53
18424 Par ch=4 c=11 v=54
18468 Par ch=4 c=11 v=55
18512 Par ch=4 c=11 v=56
18556 Par ch=4 c=11 v=57
18600 Par ch=4 c=11 v=58
18644 Par ch=4 c=11 v=59
18670 On ch=4 n=62 v=0
18670 On ch=4 n=65 v=0
18670 On ch=4 n=70 v=0
18672 On ch=4 n=60 v=96
18672 On ch=4 n=63 v=96
18672 On ch=4 n=68 v=96
18672 On ch=4 n=72 v=96
18688 Par ch=4 c=11 v=60
18732 Par ch=4 c=11 v=61
18776 Par ch=4 c=11 v=62
18820 Par ch=4 c=11 v=63
18864 Par ch=4 c=11 v=64
19054 On ch=4 n=60 v=0
19054 On ch=4 n=63 v=0
19054 On ch=4 n=68 v=0
19054 On ch=4 n=72 v=0
19152 On ch=4 n=65 v=96
19152 On ch=4 n=69 v=96
19152 On ch=4 n=72 v=96
19248 On ch=4 n=77 v=96
19248 On ch=4 n=81 v=96
19248 On ch=4 n=84 v=96
19249 On ch=4 n=65 v=0
19249 On ch=4 n=69 v=0
19249 On ch=4 n=72 v=0
19390 On ch=4 n=77 v=0
19390 On ch=4 n=81 v=0
19390 On ch=4 n=84 v=0
19392 PrCh ch=4 p=18
19392 Par ch=4 c=11 v=100
19392 Par ch=4 c=10 v=127
19392 On ch=4 n=67 v=100
19392 On ch=4 n=71 v=127
19484 On ch=4 n=67 v=0
19484 On ch=4 n=71 v=0
19608 On ch=4 n=86 v=110
19608 Pb ch=4 v=8192
19608 On ch=4 n=89 v=127
19632 Pb ch=4 v=8064
19644 Pb ch=4 v=7936
19651 Pb ch=4 v=7808
19656 On ch=4 n=86 v=0
19656 Pb ch=4 v=7680
19660 Pb ch=4 v=7552
19663 Pb ch=4 v=7424
19666 Pb ch=4 v=7296
19668 Pb ch=4 v=7168
19670 Pb ch=4 v=7040
19672 Pb ch=4 v=6912
19673 Pb ch=4 v=6784
19675 Pb ch=4 v=6656
19676 Pb ch=4 v=6528
19678 Pb ch=4 v=6400
19679 Pb ch=4 v=6272
19680 Pb ch=4 v=6144
19681 Pb ch=4 v=6016
19682 Pb ch=4 v=5888
19683 Pb ch=4 v=5760
19684 Pb ch=4 v=5632
19685 Pb ch=4 v=5376
19686 Pb ch=4 v=5248
19687 Pb ch=4 v=5120
19688 Pb ch=4 v=4864
19689 Pb ch=4 v=4608
19690 Pb ch=4 v=4480
19691 Pb ch=4 v=4224
19692 Pb ch=4 v=3968
19693 Pb ch=4 v=3712
19694 Pb ch=4 v=3456
19695 Pb ch=4 v=3200
19696 Pb ch=4 v=2816
19697 Pb ch=4 v=2560
19698 Pb ch=4 v=2176
19699 Pb ch=4 v=1792
19700 On ch=4 n=89 v=0
19700 Pb ch=4 v=1536
19701 Pb ch=4 v=1024
19702 Pb ch=4 v=640
19703 Pb ch=4 v=0
19740 Par ch=4 c=10 v=40
19752 Pb ch=4 v=8192
19776 PrCh ch=4 p=17
19800 Par ch=4 c=11 v=80
19824 On ch=4 n=64 v=45
19824 On ch=4 n=68 v=55
19916 On ch=4 n=64 v=0
19916 On ch=4 n=68 v=0
19920 On ch=4 n=64 v=45
19920 On ch=4 n=69 v=55
20677 On ch=4 n=64 v=0
20677 On ch=4 n=69 v=0
20688 On ch=4 n=64 v=45
20688 On ch=4 n=68 v=55
20780 On ch=4 n=64 v=0
20780 On ch=4 n=68 v=0
20784 On ch=4 n=64 v=45
20784 On ch=4 n=69 v=55
21541 On ch=4 n=64 v=0
21541 On ch=4 n=69 v=0
21552 On ch=4 n=64 v=45
21552 On ch=4 n=68 v=55
21644 On ch=4 n=64 v=0
21644 On ch=4 n=68 v=0
21648 On ch=4 n=64 v=45
21648 On ch=4 n=69 v=55
22213 On ch=4 n=64 v=0
22213 On ch=4 n=69 v=0
22440 On ch=4 n=73 v=108
22452 On ch=4 n=73 v=0
22464 On ch=4 n=73 v=106
22476 On ch=4 n=73 v=0
22488 On ch=4 n=73 v=106
22500 On ch=4 n=73 v=0
22512 On ch=4 n=78 v=121
22512 On ch=4 n=81 v=111
22534 On ch=4 n=78 v=0
22534 On ch=4 n=81 v=0
22536 On ch=4 n=76 v=119
22536 On ch=4 n=80 v=108
22604 On ch=4 n=76 v=0
22604 On ch=4 n=80 v=0
22608 On ch=4 n=64 v=45
22608 On ch=4 n=68 v=55
22700 On ch=4 n=64 v=0
22700 On ch=4 n=68 v=0
22704 On ch=4 n=64 v=45
22704 On ch=4 n=69 v=55
23269 On ch=4 n=64 v=0
23269 On ch=4 n=69 v=0
23448 On ch=4 n=76 v=102
23470 On ch=4 n=76 v=0
23472 On ch=4 n=78 v=112
23494 On ch=4 n=78 v=0
23496 On ch=4 n=73 v=108
23516 On ch=4 n=73 v=0
23544 On ch=4 n=73 v=106
23566 On ch=4 n=73 v=0
23568 On ch=4 n=78 v=120
23568 On ch=4 n=81 v=111
23590 On ch=4 n=78 v=0
23590 On ch=4 n=81 v=0
23592 On ch=4 n=76 v=122
23592 On ch=4 n=80 v=110
23616 On ch=4 n=76 v=0
23616 On ch=4 n=80 v=0
23664 On ch=4 n=64 v=45
23664 On ch=4 n=68 v=55
23756 On ch=4 n=64 v=0
23756 On ch=4 n=68 v=0
23760 On ch=4 n=64 v=45
23760 On ch=4 n=69 v=55
24325 On ch=4 n=64 v=0
24325 On ch=4 n=69 v=0
24528 On ch=4 n=78 v=108
24528 On ch=4 n=80 v=108
24532 On ch=4 n=81 v=108
24535 On ch=4 n=80 v=0
24552 On ch=4 n=78 v=0
24552 On ch=4 n=81 v=0
25296 On ch=4 n=64 v=45
25296 On ch=4 n=68 v=55
25388 On ch=4 n=64 v=0
25388 On ch=4 n=68 v=0
25392 On ch=4 n=64 v=45
25392 On ch=4 n=69 v=55
25966 On ch=4 n=64 v=0
25966 On ch=4 n=69 v=0
38400 Par ch=4 c=11 v=80
38592 On ch=4 n=69 v=95
38592 On ch=4 n=76 v=95
38592 On ch=4 n=81 v=95
38782 On ch=4 n=76 v=0
38784 On ch=4 n=73 v=95
38876 On ch=4 n=73 v=0
38880 On ch=4 n=76 v=95
38972 On ch=4 n=76 v=0
38974 On ch=4 n=69 v=0
38974 On ch=4 n=81 v=0
38976 On ch=4 n=69 v=95
38976 On ch=4 n=76 v=95
38976 On ch=4 n=79 v=95
39169 On ch=4 n=69 v=0
39169 On ch=4 n=76 v=0
39169 On ch=4 n=79 v=0
39312 On ch=4 n=69 v=95
39312 On ch=4 n=76 v=95
39312 On ch=4 n=79 v=95
39357 On ch=4 n=69 v=0
39357 On ch=4 n=76 v=0
39357 On ch=4 n=79 v=0
39360 On ch=4 n=72 v=95
39360 On ch=4 n=77 v=95
39360 On ch=4 n=81 v=95
39502 On ch=4 n=72 v=0
39502 On ch=4 n=77 v=0
39502 On ch=4 n=81 v=0
39504 On ch=4 n=72 v=95
39504 On ch=4 n=77 v=95
39504 On ch=4 n=84 v=95
39644 On ch=4 n=84 v=0
39660 On ch=4 n=81 v=95
39682 On ch=4 n=81 v=0
39684 On ch=4 n=84 v=95
39696 On ch=4 n=81 v=95
39698 On ch=4 n=84 v=0
39718 On ch=4 n=81 v=0
39720 On ch=4 n=84 v=95
39740 On ch=4 n=72 v=0
39740 On ch=4 n=77 v=0
39742 On ch=4 n=84 v=0
39744 On ch=4 n=70 v=95
39744 On ch=4 n=74 v=95
39744 On ch=4 n=77 v=95
39744 On ch=4 n=86 v=80
39888 On ch=4 n=86 v=0
40126 On ch=4 n=70 v=0
40126 On ch=4 n=74 v=0
40126 On ch=4 n=77 v=0
40128 On ch=4 n=72 v=95
40128 On ch=4 n=75 v=95
40128 On ch=4 n=80 v=95
40510 On ch=4 n=72 v=0
40510 On ch=4 n=75 v=0
40510 On ch=4 n=80 v=0
40512 On ch=4 n=69 v=95
40512 On ch=4 n=72 v=95
40512 On ch=4 n=77 v=95
40728 Par ch=4 c=11 v=100
40846 On ch=4 n=69 v=0
40846 On ch=4 n=72 v=0
40846 On ch=4 n=77 v=0
40848 Par ch=4 c=11 v=80
40848 On ch=4 n=76 v=96
40848 On ch=4 n=81 v=96
40848 On ch=4 n=85 v=96
41230 On ch=4 n=76 v=0
41230 On ch=4 n=81 v=0
41230 On ch=4 n=85 v=0
41232 On ch=4 n=76 v=96
41232 On ch=4 n=79 v=96
41232 On ch=4 n=84 v=96
41614 On ch=4 n=76 v=0
41614 On ch=4 n=79 v=0
41614 On ch=4 n=84 v=0
41616 On ch=4 n=72 v=95
41616 On ch=4 n=77 v=95
41616 On ch=4 n=81 v=95
41758 On ch=4 n=81 v=0
41760 On ch=4 n=84 v=95
41898 On ch=4 n=84 v=0
41900 On ch=4 n=81 v=95
41922 On ch=4 n=81 v=0
41924 On ch=4 n=84 v=95
41996 On ch=4 n=72 v=0
41996 On ch=4 n=77 v=0
41996 On ch=4 n=84 v=0
41998 On ch=4 n=70 v=95
41998 On ch=4 n=74 v=95
41998 On ch=4 n=77 v=95
41998 On ch=4 n=86 v=80
42142 On ch=4 n=86 v=0
42380 On ch=4 n=70 v=0
42380 On ch=4 n=74 v=0
42380 On ch=4 n=77 v=0
42382 On ch=4 n=72 v=95
42382 On ch=4 n=75 v=95
42382 On ch=4 n=80 v=95
42764 On ch=4 n=72 v=0
42764 On ch=4 n=75 v=0
42764 On ch=4 n=80 v=0
42766 On ch=4 n=60 v=95
42766 On ch=4 n=65 v=95
42766 On ch=4 n=69 v=95
43100 On ch=4 n=60 v=0
43100 On ch=4 n=65 v=0
43100 On ch=4 n=69 v=0
49654 Par ch=4 c=10 v=10
49942 On ch=4 n=63 v=70
50034 On ch=4 n=63 v=0
50038 On ch=4 n=64 v=70
50422 On ch=4 n=62 v=70
50423 On ch=4 n=64 v=0
50706 On ch=4 n=62 v=0
50710 On ch=4 n=63 v=70
50803 On ch=4 n=63 v=0
50806 On ch=4 n=64 v=70
51190 On ch=4 n=62 v=70
51191 On ch=4 n=64 v=0
51474 On ch=4 n=62 v=0
51478 On ch=4 n=63 v=70
51571 On ch=4 n=63 v=0
51574 On ch=4 n=64 v=70
51958 On ch=4 n=62 v=70
51959 On ch=4 n=64 v=0
52242 On ch=4 n=62 v=0
52246 On ch=4 n=63 v=70
52339 On ch=4 n=63 v=0
52342 On ch=4 n=64 v=70
52726 On ch=4 n=62 v=70
52727 On ch=4 n=64 v=0
53010 On ch=4 n=62 v=0
53014 On ch=4 n=63 v=70
53107 On ch=4 n=63 v=0
53110 On ch=4 n=64 v=70
53494 On ch=4 n=62 v=70
53495 On ch=4 n=64 v=0
53778 On ch=4 n=62 v=0
53782 On ch=4 n=63 v=70
53875 On ch=4 n=63 v=0
53878 On ch=4 n=64 v=70
54262 On ch=4 n=62 v=70
54263 On ch=4 n=64 v=0
54546 On ch=4 n=62 v=0
54550 On ch=4 n=63 v=70
54643 On ch=4 n=63 v=0
54646 On ch=4 n=64 v=70
55030 On ch=4 n=62 v=70
55031 On ch=4 n=64 v=0
55314 On ch=4 n=62 v=0
55318 On ch=4 n=63 v=70
55411 On ch=4 n=63 v=0
55414 On ch=4 n=64 v=70
55798 On ch=4 n=62 v=70
55799 On ch=4 n=64 v=0
56082 On ch=4 n=62 v=0
56086 On ch=4 n=63 v=70
56179 On ch=4 n=63 v=0
56182 On ch=4 n=64 v=70
56566 On ch=4 n=62 v=70
56567 On ch=4 n=64 v=0
56850 On ch=4 n=62 v=0
56854 On ch=4 n=63 v=70
56947 On ch=4 n=63 v=0
56950 On ch=4 n=64 v=70
57334 On ch=4 n=62 v=70
57335 On ch=4 n=64 v=0
57618 On ch=4 n=62 v=0
57622 On ch=4 n=63 v=70
57715 On ch=4 n=63 v=0
57718 On ch=4 n=64 v=70
58102 On ch=4 n=62 v=70
58103 On ch=4 n=64 v=0
58386 On ch=4 n=62 v=0
58390 On ch=4 n=63 v=70
58483 On ch=4 n=63 v=0
58486 On ch=4 n=64 v=70
58870 On ch=4 n=62 v=70
58871 On ch=4 n=64 v=0
59154 On ch=4 n=62 v=0
59158 On ch=4 n=63 v=70
59251 On ch=4 n=63 v=0
59254 On ch=4 n=64 v=70
59638 On ch=4 n=62 v=70
59639 On ch=4 n=64 v=0
59922 On ch=4 n=62 v=0
59926 On ch=4 n=63 v=70
60019 On ch=4 n=63 v=0
60022 On ch=4 n=64 v=70
60406 On ch=4 n=62 v=70
60407 On ch=4 n=64 v=0
60690 On ch=4 n=62 v=0
60694 On ch=4 n=63 v=70
60787 On ch=4 n=63 v=0
60790 On ch=4 n=64 v=70
61174 Par ch=4 c=7 v=100
61174 Par ch=4 c=11 v=70
61174 PrCh ch=4 p=16
61174 On ch=4 n=86 v=110
61174 On ch=4 n=91 v=110
61174 On ch=4 n=95 v=110
61175 On ch=4 n=64 v=0
61366 On ch=4 n=87 v=110
61366 On ch=4 n=94 v=110
61367 On ch=4 n=86 v=0
61367 On ch=4 n=91 v=0
61367 On ch=4 n=95 v=0
61558 On ch=4 n=88 v=110
61558 On ch=4 n=91 v=110
61558 On ch=4 n=96 v=110
61559 On ch=4 n=87 v=0
61559 On ch=4 n=94 v=0
61940 On ch=4 n=88 v=0
61940 On ch=4 n=91 v=0
61940 On ch=4 n=96 v=0
61942 On ch=4 n=86 v=110
61942 On ch=4 n=91 v=110
61942 On ch=4 n=95 v=110
62134 On ch=4 n=87 v=110
62134 On ch=4 n=94 v=110
62135 On ch=4 n=86 v=0
62135 On ch=4 n=91 v=0
62135 On ch=4 n=95 v=0
62326 Par ch=4 c=11 v=70
62326 On ch=4 n=88 v=110
62326 On ch=4 n=91 v=110
62326 On ch=4 n=96 v=110
62327 On ch=4 n=87 v=0
62327 On ch=4 n=94 v=0
62336 Par ch=4 c=11 v=71
62346 Par ch=4 c=11 v=72
62355 Par ch=4 c=11 v=73
62365 Par ch=4 c=11 v=74
62374 Par ch=4 c=11 v=75
62384 Par ch=4 c=11 v=76
62394 Par ch=4 c=11 v=77
62403 Par ch=4 c=11 v=78
62413 Par ch=4 c=11 v=79
62422 Par ch=4 c=11 v=80
62432 Par ch=4 c=11 v=81
62441 Par ch=4 c=11 v=82
62451 Par ch=4 c=11 v=83
62461 Par ch=4 c=11 v=84
62470 Par ch=4 c=11 v=85
62480 Par ch=4 c=11 v=86
62489 Par ch=4 c=11 v=87
62499 Par ch=4 c=11 v=88
62508 Par ch=4 c=11 v=89
62518 Par ch=4 c=11 v=90
62528 Par ch=4 c=11 v=91
62537 Par ch=4 c=11 v=92
62547 Par ch=4 c=11 v=93
62556 Par ch=4 c=11 v=94
62566 Par ch=4 c=11 v=95
62575 Par ch=4 c=11 v=96
62585 Par ch=4 c=11 v=97
62595 Par ch=4 c=11 v=98
62604 Par ch=4 c=11 v=99
62614 Par ch=4 c=11 v=100
62623 Par ch=4 c=11 v=101
62633 Par ch=4 c=11 v=102
62642 Par ch=4 c=11 v=103
62652 Par ch=4 c=11 v=104
62662 Par ch=4 c=11 v=105
62671 Par ch=4 c=11 v=106
62681 Par ch=4 c=11 v=107
62690 Par ch=4 c=11 v=108
62700 Par ch=4 c=11 v=109
62708 On ch=4 n=88 v=0
62708 On ch=4 n=91 v=0
62708 On ch=4 n=96 v=0
62709 Par ch=4 c=11 v=110
62710 On ch=4 n=86 v=110
62710 On ch=4 n=91 v=110
62710 On ch=4 n=95 v=110
62902 On ch=4 n=87 v=110
62902 On ch=4 n=94 v=110
62903 On ch=4 n=86 v=0
62903 On ch=4 n=91 v=0
62903 On ch=4 n=95 v=0
63094 On ch=4 n=88 v=110
63094 On ch=4 n=91 v=110
63094 On ch=4 n=96 v=110
63095 On ch=4 n=87 v=0
63095 On ch=4 n=94 v=0
63476 On ch=4 n=88 v=0
63476 On ch=4 n=91 v=0
63476 On ch=4 n=96 v=0
63478 On ch=4 n=86 v=110
63478 On ch=4 n=91 v=110
63478 On ch=4 n=95 v=110
63670 On ch=4 n=87 v=110
63670 On ch=4 n=94 v=110
63671 On ch=4 n=86 v=0
63671 On ch=4 n=91 v=0
63671 On ch=4 n=95 v=0
63862 Par ch=4 c=11 v=127
63862 On ch=4 n=88 v=110
63862 On ch=4 n=91 v=110
63862 On ch=4 n=96 v=110
63863 On ch=4 n=87 v=0
63863 On ch=4 n=94 v=0
64244 On ch=4 n=88 v=0
64244 On ch=4 n=91 v=0
64244 On ch=4 n=96 v=0
64246 Par ch=4 c=11 v=70
64246 Par ch=4 c=10 v=72
64246 Meta TrkEnd
TrkEnd
MTrk
0 Meta 0x21 00
88 PrCh ch=5 p=5
94 Par ch=5 c=7 v=116
100 Par ch=5 c=11 v=96
106 Par ch=5 c=10 v=40
112 Par ch=5 c=91 v=80
118 Par ch=5 c=93 v=64
124 Par ch=5 c=1 v=0
130 Par ch=5 c=100 v=0
130 Par ch=5 c=101 v=0
130 Par ch=5 c=6 v=12
12576 On ch=5 n=62 v=96
12576 On ch=5 n=66 v=96
12576 On ch=5 n=71 v=96
12714 On ch=5 n=62 v=0
12714 On ch=5 n=66 v=0
12714 On ch=5 n=71 v=0
12720 On ch=5 n=62 v=96
12720 On ch=5 n=66 v=96
12720 On ch=5 n=71 v=96
12860 On ch=5 n=62 v=0
12860 On ch=5 n=66 v=0
12860 On ch=5 n=71 v=0
12864 On ch=5 n=62 v=96
12864 On ch=5 n=66 v=96
12864 On ch=5 n=71 v=96
12956 On ch=5 n=62 v=0
12956 On ch=5 n=66 v=0
12956 On ch=5 n=71 v=0
12960 On ch=5 n=64 v=96
12960 On ch=5 n=69 v=96
12960 On ch=5 n=72 v=96
13102 On ch=5 n=64 v=0
13102 On ch=5 n=69 v=0
13102 On ch=5 n=72 v=0
13104 On ch=5 n=64 v=96
13104 On ch=5 n=69 v=96
13104 On ch=5 n=72 v=96
13342 On ch=5 n=64 v=0
13342 On ch=5 n=69 v=0
13342 On ch=5 n=72 v=0
13344 Par ch=5 c=10 v=35
13345 PrCh ch=5 p=89
13346 Par ch=5 c=11 v=0
13347 Par ch=5 c=93 v=64
13440 On ch=5 n=66 v=110
13537 Par ch=5 c=11 v=0
13541 Par ch=5 c=11 v=1
13545 Par ch=5 c=11 v=2
13549 Par ch=5 c=11 v=3
13553 Par ch=5 c=11 v=4
13557 Par ch=5 c=11 v=5
13560 Par ch=5 c=11 v=6
13564 Par ch=5 c=11 v=7
13568 Par ch=5 c=11 v=8
13572 Par ch=5 c=11 v=9
13576 Par ch=5 c=11 v=10
13580 Par ch=5 c=11 v=11
13583 Par ch=5 c=11 v=12
13587 Par ch=5 c=11 v=13
13591 Par ch=5 c=11 v=14
13595 Par ch=5 c=11 v=15
13599 Par ch=5 c=11 v=16
13602 Par ch=5 c=11 v=17
13606 Par ch=5 c=11 v=18
13610 Par ch=5 c=11 v=19
13614 Par ch=5 c=11 v=20
13618 Par ch=5 c=11 v=21
13622 Par ch=5 c=11 v=22
13625 Par ch=5 c=11 v=23
13629 Par ch=5 c=11 v=24
13633 Par ch=5 c=11 v=25
13637 Par ch=5 c=11 v=26
13641 Par ch=5 c=11 v=27
13644 Par ch=5 c=11 v=28
13648 Par ch=5 c=11 v=29
13652 Par ch=5 c=11 v=30
13656 Par ch=5 c=11 v=31
13660 Par ch=5 c=11 v=32
13664 Par ch=5 c=11 v=33
13667 Par ch=5 c=11 v=34
13671 Par ch=5 c=11 v=35
13675 Par ch=5 c=11 v=36
13679 Par ch=5 c=11 v=37
13683 Par ch=5 c=11 v=38
13686 Par ch=5 c=11 v=39
13690 Par ch=5 c=11 v=40
13694 Par ch=5 c=11 v=41
13698 Par ch=5 c=11 v=42
13702 Par ch=5 c=11 v=43
13706 Par ch=5 c=11 v=44
13709 Par ch=5 c=11 v=45
13713 Par ch=5 c=11 v=46
13717 Par ch=5 c=11 v=47
13721 Par ch=5 c=11 v=48
13725 Par ch=5 c=11 v=49
13728 Par ch=5 c=11 v=50
13920 Par ch=5 c=11 v=50
13927 Par ch=5 c=11 v=51
13933 Par ch=5 c=11 v=52
13940 Par ch=5 c=11 v=53
13946 Par ch=5 c=11 v=54
13952 Par ch=5 c=11 v=55
13959 Par ch=5 c=11 v=56
13965 Par ch=5 c=11 v=57
13971 Par ch=5 c=11 v=58
13978 Par ch=5 c=11 v=59
13984 Par ch=5 c=11 v=60
13991 Par ch=5 c=11 v=61
13997 Par ch=5 c=11 v=62
14003 Par ch=5 c=11 v=63
14010 Par ch=5 c=11 v=64
14016 Par ch=5 c=11 v=65
14022 Par ch=5 c=11 v=66
14029 Par ch=5 c=11 v=67
14035 Par ch=5 c=11 v=68
14041 Par ch=5 c=11 v=69
14048 Par ch=5 c=11 v=70
14054 Par ch=5 c=11 v=71
14061 Par ch=5 c=11 v=72
14067 Par ch=5 c=11 v=73
14073 Par ch=5 c=11 v=74
14080 Par ch=5 c=11 v=75
14086 Par ch=5 c=11 v=76
14092 Par ch=5 c=11 v=77
14099 Par ch=5 c=11 v=78
14105 Par ch=5 c=11 v=79
14111 Par ch=5 c=11 v=80
14112 Par ch=5 c=11 v=80
14122 Par ch=5 c=11 v=81
14132 Par ch=5 c=11 v=82
14141 Par ch=5 c=11 v=83
14151 Par ch=5 c=11 v=84
14160 Par ch=5 c=11 v=85
14170 Par ch=5 c=11 v=86
14179 Par ch=5 c=11 v=87
14189 Par ch=5 c=11 v=88
14198 Par ch=5 c=11 v=89
14208 Par ch=5 c=11 v=90
14218 Par ch=5 c=11 v=91
14227 Par ch=5 c=11 v=92
14237 Par ch=5 c=11 v=93
14246 Par ch=5 c=11 v=94
14256 Par ch=5 c=11 v=95
14265 Par ch=5 c=11 v=96
14275 Par ch=5 c=11 v=97
14284 Par ch=5 c=11 v=98
14294 Par ch=5 c=11 v=99
14303 Par ch=5 c=11 v=100
14497 On ch=5 n=66 v=0
14544 Par ch=5 c=11 v=50
14544 Pb ch=5 v=7424
14544 On ch=5 n=74 v=110
14545 Par ch=5 c=11 v=52
14546 Par ch=5 c=11 v=54
14547 Par ch=5 c=11 v=56
14547 Pb ch=5 v=7552
14548 Par ch=5 c=11 v=58
14549 Par ch=5 c=11 v=60
14550 Par ch=5 c=11 v=62
14550 Pb ch=5 v=7680
14551 Par ch=5 c=11 v=64
14552 Par ch=5 c=11 v=66
14552 Pb ch=5 v=7808
14553 Par ch=5 c=11 v=68
14554 Par ch=5 c=11 v=70
14555 Par ch=5 c=11 v=72
14555 Pb ch=5 v=7936
14556 Par ch=5 c=11 v=75
14557 Par ch=5 c=11 v=77
14558 Par ch=5 c=11 v=79
14558 Pb ch=5 v=8064
14559 Par ch=5 c=11 v=81
14560 Par ch=5 c=11 v=83
14560 Pb ch=5 v=8192
14561 Par ch=5 c=11 v=85
14562 Par ch=5 c=11 v=87
14563 Par ch=5 c=11 v=89
14564 Par ch=5 c=11 v=91
14565 Par ch=5 c=11 v=93
14566 Par ch=5 c=11 v=95
14567 Par ch=5 c=11 v=97
14568 Par ch=5 c=11 v=100
14612 On ch=5 n=74 v=0
14616 Par ch=5 c=11 v=50
14616 On ch=5 n=73 v=110
14617 Par ch=5 c=11 v=52
14618 Par ch=5 c=11 v=54
14619 Par ch=5 c=11 v=56
14620 Par ch=5 c=11 v=58
14621 Par ch=5 c=11 v=60
14622 Par ch=5 c=11 v=62
14623 Par ch=5 c=11 v=64
14624 Par ch=5 c=11 v=66
14625 Par ch=5 c=11 v=68
14626 Par ch=5 c=11 v=70
14627 Par ch=5 c=11 v=72
14628 Par ch=5 c=11 v=75
14629 Par ch=5 c=11 v=77
14630 Par ch=5 c=11 v=79
14631 Par ch=5 c=11 v=81
14632 Par ch=5 c=11 v=83
14633 Par ch=5 c=11 v=85
14634 Par ch=5 c=11 v=87
14635 Par ch=5 c=11 v=89
14636 Par ch=5 c=11 v=91
14637 Par ch=5 c=11 v=93
14638 Par ch=5 c=11 v=95
14639 Par ch=5 c=11 v=97
14640 Par ch=5 c=11 v=100
14684 On ch=5 n=73 v=0
14688 Par ch=5 c=11 v=50
14688 On ch=5 n=71 v=110
14689 Par ch=5 c=11 v=52
14690 Par ch=5 c=11 v=54
14691 Par ch=5 c=11 v=56
14692 Par ch=5 c=11 v=58
14693 Par ch=5 c=11 v=60
14694 Par ch=5 c=11 v=62
14695 Par ch=5 c=11 v=64
14696 Par ch=5 c=11 v=66
14697 Par ch=5 c=11 v=68
14698 Par ch=5 c=11 v=70
14699 Par ch=5 c=11 v=72
14700 Par ch=5 c=11 v=75
14701 Par ch=5 c=11 v=77
14702 Par ch=5 c=11 v=79
14703 Par ch=5 c=11 v=81
14704 Par ch=5 c=11 v=83
14705 Par ch=5 c=11 v=85
14706 Par ch=5 c=11 v=87
14707 Par ch=5 c=11 v=89
14708 Par ch=5 c=11 v=91
14709 Par ch=5 c=11 v=93
14710 Par ch=5 c=11 v=95
14711 Par ch=5 c=11 v=97
14712 Par ch=5 c=11 v=100
14756 On ch=5 n=71 v=0
14760 Par ch=5 c=11 v=50
14760 On ch=5 n=69 v=110
14761 Par ch=5 c=11 v=52
14762 Par ch=5 c=11 v=54
14763 Par ch=5 c=11 v=56
14764 Par ch=5 c=11 v=58
14765 Par ch=5 c=11 v=60
14766 Par ch=5 c=11 v=62
14767 Par ch=5 c=11 v=64
14768 Par ch=5 c=11 v=66
14769 Par ch=5 c=11 v=68
14770 Par ch=5 c=11 v=70
14771 Par ch=5 c=11 v=72
14772 Par ch=5 c=11 v=75
14773 Par ch=5 c=11 v=77
14774 Par ch=5 c=11 v=79
14775 Par ch=5 c=11 v=81
14776 Par ch=5 c=11 v=83
14777 Par ch=5 c=11 v=85
14778 Par ch=5 c=11 v=87
14779 Par ch=5 c=11 v=89
14780 Par ch=5 c=11 v=91
14781 Par ch=5 c=11 v=93
14782 Par ch=5 c=11 v=95
14783 Par ch=5 c=11 v=97
14784 Par ch=5 c=11 v=100
14828 On ch=5 n=69 v=0
14832 Par ch=5 c=11 v=50
14832 On ch=5 n=71 v=110
14833 Par ch=5 c=11 v=52
14834 Par ch=5 c=11 v=54
14835 Par ch=5 c=11 v=56
14836 Par ch=5 c=11 v=58
14837 Par ch=5 c=11 v=60
14838 Par ch=5 c=11 v=62
14839 Par ch=5 c=11 v=64
14840 Par ch=5 c=11 v=66
14841 Par ch=5 c=11 v=68
14842 Par ch=5 c=11 v=70
14843 Par ch=5 c=11 v=72
14844 Par ch=5 c=11 v=75
14845 Par ch=5 c=11 v=77
14846 Par ch=5 c=11 v=79
14847 Par ch=5 c=11 v=81
14848 Par ch=5 c=11 v=83
14849 Par ch=5 c=11 v=85
14850 Par ch=5 c=11 v=87
14851 Par ch=5 c=11 v=89
14852 Par ch=5 c=11 v=91
14853 Par ch=5 c=11 v=93
14854 Par ch=5 c=11 v=95
14855 Par ch=5 c=11 v=97
14856 Par ch=5 c=11 v=100
14877 On ch=5 n=71 v=0
14880 Par ch=5 c=11 v=50
14880 On ch=5 n=73 v=110
14881 Par ch=5 c=11 v=52
14882 Par ch=5 c=11 v=54
14883 Par ch=5 c=11 v=56
14884 Par ch=5 c=11 v=58
14885 Par ch=5 c=11 v=60
14886 Par ch=5 c=11 v=62
14887 Par ch=5 c=11 v=64
14888 Par ch=5 c=11 v=66
14889 Par ch=5 c=11 v=68
14890 Par ch=5 c=11 v=70
14891 Par ch=5 c=11 v=72
14892 Par ch=5 c=11 v=75
14893 Par ch=5 c=11 v=77
14894 Par ch=5 c=11 v=79
14895 Par ch=5 c=11 v=81
14896 Par ch=5 c=11 v=83
14897 Par ch=5 c=11 v=85
14898 Par ch=5 c=11 v=87
14899 Par ch=5 c=11 v=89
14900 Par ch=5 c=11 v=91
14901 Par ch=5 c=11 v=93
14902 Par ch=5 c=11 v=95
14903 Par ch=5 c=11 v=97
14904 Par ch=5 c=11 v=100
15264 On ch=5 n=73 v=0
15264 Par ch=5 c=11 v=50
15264 On ch=5 n=72 v=110
15265 Par ch=5 c=11 v=52
15266 Par ch=5 c=11 v=54
15267 Par ch=5 c=11 v=56
15268 Par ch=5 c=11 v=58
15269 Par ch=5 c=11 v=60
15270 Par ch=5 c=11 v=62
15271 Par ch=5 c=11 v=64
15272 Par ch=5 c=11 v=66
15273 Par ch=5 c=11 v=68
15274 Par ch=5 c=11 v=70
15275 Par ch=5 c=11 v=72
15276 Par ch=5 c=11 v=75
15277 Par ch=5 c=11 v=77
15278 Par ch=5 c=11 v=79
15279 Par ch=5 c=11 v=81
15280 Par ch=5 c=11 v=83
15281 Par ch=5 c=11 v=85
15282 Par ch=5 c=11 v=87
15283 Par ch=5 c=11 v=89
15284 Par ch=5 c=11 v=91
15285 Par ch=5 c=11 v=93
15286 Par ch=5 c=11 v=95
15287 Par ch=5 c=11 v=97
15288 Par ch=5 c=11 v=100
15415 Par ch=5 c=11 v=99
15417 Par ch=5 c=11 v=98
15419 Par ch=5 c=11 v=97
15421 Par ch=5 c=11 v=96
15423 Par ch=5 c=11 v=95
15425 Par ch=5 c=11 v=94
15427 Par ch=5 c=11 v=93
15429 Par ch=5 c=11 v=92
15431 Par ch=5 c=11 v=91
15433 Par ch=5 c=11 v=90
15435 Par ch=5 c=11 v=89
15438 Par ch=5 c=11 v=88
15440 Par ch=5 c=11 v=87
15442 Par ch=5 c=11 v=86
15444 Par ch=5 c=11 v=85
15446 Par ch=5 c=11 v=84
15448 Par ch=5 c=11 v=83
15450 Par ch=5 c=11 v=82
15452 Par ch=5 c=11 v=81
15454 Par ch=5 c=11 v=80
15457 On ch=5 n=72 v=0
19344 PrCh ch=5 p=17
19344 Par ch=5 c=10 v=64
19344 Par ch=5 c=11 v=52
19392 On ch=5 n=55 v=96
19464 On ch=5 n=57 v=96
19466 On ch=5 n=55 v=0
19486 On ch=5 n=57 v=0
19488 On ch=5 n=59 v=96
19510 On ch=5 n=59 v=0
19512 On ch=5 n=60 v=96
19534 On ch=5 n=60 v=0
19536 On ch=5 n=62 v=96
19557 On ch=5 n=62 v=0
19560 On ch=5 n=64 v=96
19582 On ch=5 n=64 v=0
19584 On ch=5 n=66 v=96
19606 On ch=5 n=66 v=0
19608 On ch=5 n=67 v=96
19656 On ch=5 n=69 v=96
19657 On ch=5 n=67 v=0
19678 On ch=5 n=69 v=0
19680 On ch=5 n=71 v=96
19702 On ch=5 n=71 v=0
19704 On ch=5 n=72 v=96
19726 On ch=5 n=72 v=0
19728 On ch=5 n=73 v=96
19732 On ch=5 n=74 v=96
19734 On ch=5 n=73 v=0
19752 On ch=5 n=72 v=96
19754 On ch=5 n=74 v=0
19774 On ch=5 n=72 v=0
19776 On ch=5 n=71 v=96
19798 On ch=5 n=71 v=0
19800 On ch=5 n=69 v=96
19822 On ch=5 n=69 v=0
21552 Par ch=5 c=11 v=100
21552 Par ch=5 c=1 v=0
21648 Par ch=5 c=10 v=100
21648 PrCh ch=5 p=80
21648 Par ch=5 c=11 v=60
21648 On ch=5 n=76 v=80
21659 Par ch=5 c=11 v=61
21670 Par ch=5 c=11 v=62
21681 Par ch=5 c=11 v=63
21692 Par ch=5 c=11 v=64
21702 Par ch=5 c=11 v=65
21713 Par ch=5 c=11 v=66
21724 Par ch=5 c=11 v=67
21735 Par ch=5 c=11 v=68
21745 Par ch=5 c=11 v=69
21756 Par ch=5 c=11 v=70
21767 Par ch=5 c=11 v=71
21778 Par ch=5 c=11 v=72
21789 Par ch=5 c=11 v=73
21799 Par ch=5 c=11 v=74
21810 Par ch=5 c=11 v=75
21821 Par ch=5 c=11 v=76
21832 Par ch=5 c=11 v=77
21842 Par ch=5 c=11 v=78
21853 Par ch=5 c=11 v=79
21864 Par ch=5 c=11 v=80
21875 Par ch=5 c=11 v=81
21886 Par ch=5 c=11 v=82
21896 Par ch=5 c=11 v=83
21907 Par ch=5 c=11 v=84
21918 Par ch=5 c=11 v=85
21929 Par ch=5 c=11 v=86
21939 Par ch=5 c=11 v=87
21950 Par ch=5 c=11 v=88
21961 Par ch=5 c=11 v=89
21972 Par ch=5 c=11 v=90
21983 Par ch=5 c=11 v=91
21993 Par ch=5 c=11 v=92
22004 Par ch=5 c=11 v=93
22015 Par ch=5 c=11 v=94
22026 Par ch=5 c=11 v=95
22036 Par ch=5 c=11 v=96
22047 Par ch=5 c=11 v=97
22058 Par ch=5 c=11 v=98
22069 Par ch=5 c=11 v=99
22078 On ch=5 n=76 v=0
22079 Par ch=5 c=11 v=100
22080 Par ch=5 c=11 v=60
22080 On ch=5 n=71 v=80
22081 Par ch=5 c=11 v=65
22082 Par ch=5 c=11 v=69
22083 Par ch=5 c=11 v=73
22084 Par ch=5 c=11 v=76
22085 Par ch=5 c=11 v=79
22086 Par ch=5 c=11 v=81
22087 Par ch=5 c=11 v=83
22088 Par ch=5 c=11 v=85
22089 Par ch=5 c=11 v=87
22090 Par ch=5 c=11 v=88
22091 Par ch=5 c=11 v=90
22092 Par ch=5 c=11 v=91
22093 Par ch=5 c=11 v=92
22094 Par ch=5 c=11 v=93
22095 Par ch=5 c=11 v=94
22096 Par ch=5 c=11 v=95
22098 Par ch=5 c=11 v=96
22100 Par ch=5 c=11 v=97
22102 Par ch=5 c=11 v=98
22106 Par ch=5 c=11 v=99
22111 Par ch=5 c=11 v=100
22125 On ch=5 n=71 v=0
22128 Par ch=5 c=11 v=60
22128 On ch=5 n=73 v=80
22129 Par ch=5 c=11 v=65
22130 Par ch=5 c=11 v=69
22131 Par ch=5 c=11 v=73
22132 Par ch=5 c=11 v=76
22133 Par ch=5 c=11 v=79
22134 Par ch=5 c=11 v=81
22135 Par ch=5 c=11 v=83
22136 Par ch=5 c=11 v=85
22137 Par ch=5 c=11 v=87
22138 Par ch=5 c=11 v=88
22139 Par ch=5 c=11 v=90
22140 Par ch=5 c=11 v=91
22141 Par ch=5 c=11 v=92
22142 Par ch=5 c=11 v=93
22143 Par ch=5 c=11 v=94
22144 Par ch=5 c=11 v=95
22146 Par ch=5 c=11 v=96
22148 Par ch=5 c=11 v=97
22150 Par ch=5 c=11 v=98
22154 Par ch=5 c=11 v=99
22159 Par ch=5 c=11 v=100
22173 On ch=5 n=73 v=0
22176 Par ch=5 c=11 v=60
22176 On ch=5 n=76 v=80
22177 Par ch=5 c=11 v=65
22178 Par ch=5 c=11 v=69
22179 Par ch=5 c=11 v=73
22180 Par ch=5 c=11 v=76
22181 Par ch=5 c=11 v=79
22182 Par ch=5 c=11 v=81
22183 Par ch=5 c=11 v=83
22184 Par ch=5 c=11 v=85
22185 Par ch=5 c=11 v=87
22186 Par ch=5 c=11 v=88
22187 Par ch=5 c=11 v=90
22188 Par ch=5 c=11 v=91
22189 Par ch=5 c=11 v=92
22190 Par ch=5 c=11 v=93
22191 Par ch=5 c=11 v=94
22192 Par ch=5 c=11 v=95
22194 Par ch=5 c=11 v=96
22196 Par ch=5 c=11 v=97
22198 Par ch=5 c=11 v=98
22202 Par ch=5 c=11 v=99
22207 Par ch=5 c=11 v=100
22606 On ch=5 n=76 v=0
22704 Par ch=5 c=11 v=60
22704 On ch=5 n=76 v=80
22715 Par ch=5 c=11 v=61
22726 Par ch=5 c=11 v=62
22737 Par ch=5 c=11 v=63
22748 Par ch=5 c=11 v=64
22758 Par ch=5 c=11 v=65
22769 Par ch=5 c=11 v=66
22780 Par ch=5 c=11 v=67
22791 Par ch=5 c=11 v=68
22801 Par ch=5 c=11 v=69
22812 Par ch=5 c=11 v=70
22823 Par ch=5 c=11 v=71
22834 Par ch=5 c=11 v=72
22845 Par ch=5 c=11 v=73
22855 Par ch=5 c=11 v=74
22866 Par ch=5 c=11 v=75
22877 Par ch=5 c=11 v=76
22888 Par ch=5 c=11 v=77
22898 Par ch=5 c=11 v=78
22909 Par ch=5 c=11 v=79
22920 Par ch=5 c=11 v=80
22931 Par ch=5 c=11 v=81
22942 Par ch=5 c=11 v=82
22952 Par ch=5 c=11 v=83
22963 Par ch=5 c=11 v=84
22974 Par ch=5 c=11 v=85
22985 Par ch=5 c=11 v=86
22995 Par ch=5 c=11 v=87
23006 Par ch=5 c=11 v=88
23017 Par ch=5 c=11 v=89
23028 Par ch=5 c=11 v=90
23039 Par ch=5 c=11 v=91
23049 Par ch=5 c=11 v=92
23060 Par ch=5 c=11 v=93
23071 Par ch=5 c=11 v=94
23082 Par ch=5 c=11 v=95
23092 Par ch=5 c=11 v=96
23103 Par ch=5 c=11 v=97
23114 Par ch=5 c=11 v=98
23125 Par ch=5 c=11 v=99
23134 On ch=5 n=76 v=0
23135 Par ch=5 c=11 v=100
23136 Par ch=5 c=11 v=60
23136 On ch=5 n=71 v=80
23137 Par ch=5 c=11 v=65
23138 Par ch=5 c=11 v=69
23139 Par ch=5 c=11 v=73
23140 Par ch=5 c=11 v=76
23141 Par ch=5 c=11 v=79
23142 Par ch=5 c=11 v=81
23143 Par ch=5 c=11 v=83
23144 Par ch=5 c=11 v=85
23145 Par ch=5 c=11 v=87
23146 Par ch=5 c=11 v=88
23147 Par ch=5 c=11 v=90
23148 Par ch=5 c=11 v=91
23149 Par ch=5 c=11 v=92
23150 Par ch=5 c=11 v=93
23151 Par ch=5 c=11 v=94
23152 Par ch=5 c=11 v=95
23154 Par ch=5 c=11 v=96
23156 Par ch=5 c=11 v=97
23158 Par ch=5 c=11 v=98
23162 Par ch=5 c=11 v=99
23167 Par ch=5 c=11 v=100
23181 On ch=5 n=71 v=0
23184 Par ch=5 c=11 v=60
23184 On ch=5 n=73 v=80
23185 Par ch=5 c=11 v=65
23186 Par ch=5 c=11 v=69
23187 Par ch=5 c=11 v=73
23188 Par ch=5 c=11 v=76
23189 Par ch=5 c=11 v=79
23190 Par ch=5 c=11 v=81
23191 Par ch=5 c=11 v=83
23192 Par ch=5 c=11 v=85
23193 Par ch=5 c=11 v=87
23194 Par ch=5 c=11 v=88
23195 Par ch=5 c=11 v=90
23196 Par ch=5 c=11 v=91
23197 Par ch=5 c=11 v=92
23198 Par ch=5 c=11 v=93
23199 Par ch=5 c=11 v=94
23200 Par ch=5 c=11 v=95
23202 Par ch=5 c=11 v=96
23204 Par ch=5 c=11 v=97
23206 Par ch=5 c=11 v=98
23210 Par ch=5 c=11 v=99
23215 Par ch=5 c=11 v=100
23229 On ch=5 n=73 v=0
23232 Par ch=5 c=11 v=60
23232 On ch=5 n=76 v=80
23233 Par ch=5 c=11 v=65
23234 Par ch=5 c=11 v=69
23235 Par ch=5 c=11 v=73
23236 Par ch=5 c=11 v=76
23237 Par ch=5 c=11 v=79
23238 Par ch=5 c=11 v=81
23239 Par ch=5 c=11 v=83
23240 Par ch=5 c=11 v=85
23241 Par ch=5 c=11 v=87
23242 Par ch=5 c=11 v=88
23243 Par ch=5 c=11 v=90
23244 Par ch=5 c=11 v=91
23245 Par ch=5 c=11 v=92
23246 Par ch=5 c=11 v=93
23247 Par ch=5 c=11 v=94
23248 Par ch=5 c=11 v=95
23250 Par ch=5 c=11 v=96
23252 Par ch=5 c=11 v=97
23254 Par ch=5 c=11 v=98
23258 Par ch=5 c=11 v=99
23263 Par ch=5 c=11 v=100
23662 On ch=5 n=76 v=0
23664 On ch=5 n=76 v=5
23756 On ch=5 n=76 v=0
23760 Par ch=5 c=11 v=60
23760 On ch=5 n=76 v=80
23771 Par ch=5 c=11 v=61
23782 Par ch=5 c=11 v=62
23793 Par ch=5 c=11 v=63
23804 Par ch=5 c=11 v=64
23814 Par ch=5 c=11 v=65
23825 Par ch=5 c=11 v=66
23836 Par ch=5 c=11 v=67
23847 Par ch=5 c=11 v=68
23857 Par ch=5 c=11 v=69
23868 Par ch=5 c=11 v=70
23879 Par ch=5 c=11 v=71
23890 Par ch=5 c=11 v=72
23901 Par ch=5 c=11 v=73
23911 Par ch=5 c=11 v=74
23922 Par ch=5 c=11 v=75
23933 Par ch=5 c=11 v=76
23944 Par ch=5 c=11 v=77
23954 Par ch=5 c=11 v=78
23965 Par ch=5 c=11 v=79
23976 Par ch=5 c=11 v=80
23987 Par ch=5 c=11 v=81
23998 Par ch=5 c=11 v=82
24008 Par ch=5 c=11 v=83
24019 Par ch=5 c=11 v=84
24030 Par ch=5 c=11 v=85
24041 Par ch=5 c=11 v=86
24051 Par ch=5 c=11 v=87
24062 Par ch=5 c=11 v=88
24073 Par ch=5 c=11 v=89
24084 Par ch=5 c=11 v=90
24095 Par ch=5 c=11 v=91
24105 Par ch=5 c=11 v=92
24116 Par ch=5 c=11 v=93
24127 Par ch=5 c=11 v=94
24138 Par ch=5 c=11 v=95
24148 Par ch=5 c=11 v=96
24159 Par ch=5 c=11 v=97
24170 Par ch=5 c=11 v=98
24181 Par ch=5 c=11 v=99
24190 On ch=5 n=76 v=0
24191 Par ch=5 c=11 v=100
24192 Par ch=5 c=11 v=60
24192 On ch=5 n=71 v=80
24193 Par ch=5 c=11 v=65
24194 Par ch=5 c=11 v=69
24195 Par ch=5 c=11 v=73
24196 Par ch=5 c=11 v=76
24197 Par ch=5 c=11 v=79
24198 Par ch=5 c=11 v=81
24199 Par ch=5 c=11 v=83
24200 Par ch=5 c=11 v=85
24201 Par ch=5 c=11 v=87
24202 Par ch=5 c=11 v=88
24203 Par ch=5 c=11 v=90
24204 Par ch=5 c=11 v=91
24205 Par ch=5 c=11 v=92
24206 Par ch=5 c=11 v=93
24207 Par ch=5 c=11 v=94
24208 Par ch=5 c=11 v=95
24210 Par ch=5 c=11 v=96
24212 Par ch=5 c=11 v=97
24214 Par ch=5 c=11 v=98
24218 Par ch=5 c=11 v=99
24223 Par ch=5 c=11 v=100
24237 On ch=5 n=71 v=0
24240 Par ch=5 c=11 v=60
24240 On ch=5 n=73 v=80
24241 Par ch=5 c=11 v=65
24242 Par ch=5 c=11 v=69
24243 Par ch=5 c=11 v=73
24244 Par ch=5 c=11 v=76
24245 Par ch=5 c=11 v=79
24246 Par ch=5 c=11 v=81
24247 Par ch=5 c=11 v=83
24248 Par ch=5 c=11 v=85
24249 Par ch=5 c=11 v=87
24250 Par ch=5 c=11 v=88
24251 Par ch=5 c=11 v=90
24252 Par ch=5 c=11 v=91
24253 Par ch=5 c=11 v=92
24254 Par ch=5 c=11 v=93
24255 Par ch=5 c=11 v=94
24256 Par ch=5 c=11 v=95
24258 Par ch=5 c=11 v=96
24260 Par ch=5 c=11 v=97
24262 Par ch=5 c=11 v=98
24266 Par ch=5 c=11 v=99
24271 Par ch=5 c=11 v=100
24285 On ch=5 n=73 v=0
24288 Par ch=5 c=11 v=60
24288 On ch=5 n=76 v=80
24288 On ch=5 n=83 v=66
24289 Par ch=5 c=11 v=65
24290 Par ch=5 c=11 v=69
24291 Par ch=5 c=11 v=73
24292 Par ch=5 c=11 v=76
24293 Par ch=5 c=11 v=79
24294 Par ch=5 c=11 v=81
24295 Par ch=5 c=11 v=83
24296 Par ch=5 c=11 v=85
24297 Par ch=5 c=11 v=87
24298 Par ch=5 c=11 v=88
24299 Par ch=5 c=11 v=90
24300 Par ch=5 c=11 v=91
24301 Par ch=5 c=11 v=92
24302 Par ch=5 c=11 v=93
24303 Par ch=5 c=11 v=94
24304 Par ch=5 c=11 v=95
24306 Par ch=5 c=11 v=96
24308 Par ch=5 c=11 v=97
24310 Par ch=5 c=11 v=98
24314 Par ch=5 c=11 v=99
24319 Par ch=5 c=11 v=100
24336 Par ch=5 c=11 v=99
24398 Par ch=5 c=11 v=98
24419 Par ch=5 c=11 v=97
24432 Par ch=5 c=11 v=96
24442 Par ch=5 c=11 v=95
24451 Par ch=5 c=11 v=94
24456 Par ch=5 c=11 v=93
24461 Par ch=5 c=11 v=92
24466 Par ch=5 c=11 v=91
24470 Par ch=5 c=11 v=90
24474 Par ch=5 c=11 v=89
24477 Par ch=5 c=11 v=88
24480 Par ch=5 c=11 v=87
24482 Par ch=5 c=11 v=86
24485 Par ch=5 c=11 v=85
24487 Par ch=5 c=11 v=84
24489 Par ch=5 c=11 v=83
24492 Par ch=5 c=11 v=82
24494 Par ch=5 c=11 v=81
24495 Par ch=5 c=11 v=80
24497 Par ch=5 c=11 v=79
24499 Par ch=5 c=11 v=78
24501 Par ch=5 c=11 v=77
24502 Par ch=5 c=11 v=76
24504 Par ch=5 c=11 v=75
24505 Par ch=5 c=11 v=74
24506 Par ch=5 c=11 v=73
24507 Par ch=5 c=11 v=72
24509 Par ch=5 c=11 v=71
24510 Par ch=5 c=11 v=70
24511 Par ch=5 c=11 v=69
24512 Par ch=5 c=11 v=68
24513 Par ch=5 c=11 v=67
24514 Par ch=5 c=11 v=66
24516 Par ch=5 c=11 v=64
24517 Par ch=5 c=11 v=63
24519 Par ch=5 c=11 v=61
24520 Par ch=5 c=11 v=60
24521 Par ch=5 c=11 v=59
24522 Par ch=5 c=11 v=58
24523 Par ch=5 c=11 v=57
24524 Par ch=5 c=11 v=56
24525 Par ch=5 c=11 v=54
24526 Par ch=5 c=11 v=53
24527 Par ch=5 c=11 v=50
24529 On ch=5 n=76 v=0
24529 On ch=5 n=83 v=0
25392 Par ch=5 c=11 v=60
25392 On ch=5 n=76 v=80
25393 Par ch=5 c=11 v=61
25394 Par ch=5 c=11 v=62
25396 Par ch=5 c=11 v=63
25398 Par ch=5 c=11 v=64
25400 Par ch=5 c=11 v=65
25404 Par ch=5 c=11 v=66
25406 Par ch=5 c=11 v=67
25407 Par ch=5 c=11 v=68
25411 Par ch=5 c=11 v=69
25413 Par ch=5 c=11 v=70
25417 Par ch=5 c=11 v=71
25419 Par ch=5 c=11 v=72
25422 Par ch=5 c=11 v=73
25426 Par ch=5 c=11 v=74
25428 Par ch=5 c=11 v=75
25432 Par ch=5 c=11 v=76
25436 Par ch=5 c=11 v=77
25439 Par ch=5 c=11 v=78
25443 Par ch=5 c=11 v=79
25447 Par ch=5 c=11 v=80
25452 Par ch=5 c=11 v=81
25456 Par ch=5 c=11 v=82
25460 Par ch=5 c=11 v=83
25465 Par ch=5 c=11 v=84
25471 Par ch=5 c=11 v=85
25477 Par ch=5 c=11 v=86
25482 Par ch=5 c=11 v=87
25488 Par ch=5 c=11 v=88
25495 Par ch=5 c=11 v=89
25503 Par ch=5 c=11 v=90
25512 Par ch=5 c=11 v=91
25520 Par ch=5 c=11 v=92
25529 Par ch=5 c=11 v=93
25542 Par ch=5 c=11 v=94
25553 Par ch=5 c=11 v=95
25572 Par ch=5 c=11 v=96
25589 Par ch=5 c=11 v=97
25611 Par ch=5 c=11 v=98
25649 Par ch=5 c=11 v=99
25703 Par ch=5 c=11 v=100
25822 On ch=5 n=76 v=0
25824 On ch=5 n=71 v=80
25869 On ch=5 n=71 v=0
25872 On ch=5 n=73 v=80
25917 On ch=5 n=73 v=0
25920 On ch=5 n=76 v=80
26016 On ch=5 n=71 v=80
26038 On ch=5 n=76 v=0
26061 On ch=5 n=71 v=0
26064 On ch=5 n=73 v=80
26109 On ch=5 n=73 v=0
26112 Par ch=5 c=11 v=100
26112 On ch=5 n=76 v=80
26119 Par ch=5 c=11 v=99
26125 Par ch=5 c=11 v=98
26132 Par ch=5 c=11 v=97
26138 Par ch=5 c=11 v=96
26144 Par ch=5 c=11 v=95
26151 Par ch=5 c=11 v=94
26157 Par ch=5 c=11 v=93
26164 Par ch=5 c=11 v=92
26170 Par ch=5 c=11 v=91
26176 Par ch=5 c=11 v=90
26183 Par ch=5 c=11 v=89
26189 Par ch=5 c=11 v=88
26195 Par ch=5 c=11 v=87
26202 Par ch=5 c=11 v=86
26208 Par ch=5 c=11 v=85
26215 Par ch=5 c=11 v=84
26221 Par ch=5 c=11 v=83
26227 Par ch=5 c=11 v=82
26234 Par ch=5 c=11 v=81
26240 Par ch=5 c=11 v=80
26247 Par ch=5 c=11 v=79
26253 Par ch=5 c=11 v=78
26259 Par ch=5 c=11 v=77
26266 Par ch=5 c=11 v=76
26272 Par ch=5 c=11 v=75
26278 Par ch=5 c=11 v=74
26285 Par ch=5 c=11 v=73
26291 Par ch=5 c=11 v=72
26298 Par ch=5 c=11 v=71
26304 Par ch=5 c=11 v=70
26310 Par ch=5 c=11 v=69
26317 Par ch=5 c=11 v=68
26323 Par ch=5 c=11 v=67
26330 Par ch=5 c=11 v=66
26336 Par ch=5 c=11 v=65
26342 Par ch=5 c=11 v=64
26349 Par ch=5 c=11 v=63
26355 Par ch=5 c=11 v=62
26361 Par ch=5 c=11 v=61
26368 Par ch=5 c=11 v=60
26374 Par ch=5 c=11 v=59
26381 Par ch=5 c=11 v=58
26387 Par ch=5 c=11 v=57
26393 Par ch=5 c=11 v=56
26400 Par ch=5 c=11 v=55
26406 Par ch=5 c=11 v=54
26413 Par ch=5 c=11 v=53
26419 Par ch=5 c=11 v=52
26425 Par ch=5 c=11 v=51
26432 Par ch=5 c=11 v=50
26438 Par ch=5 c=11 v=49
26444 Par ch=5 c=11 v=48
26451 Par ch=5 c=11 v=47
26457 Par ch=5 c=11 v=46
26464 Par ch=5 c=11 v=45
26470 Par ch=5 c=11 v=44
26476 Par ch=5 c=11 v=43
26483 Par ch=5 c=11 v=42
26489 Par ch=5 c=11 v=41
26494 On ch=5 n=76 v=0
26495 Par ch=5 c=11 v=40
38976 Par ch=5 c=11 v=100
38976 Par ch=5 c=10 v=40
39168 PrCh ch=5 p=16
39192 On ch=5 n=93 v=80
39237 On ch=5 n=93 v=0
39240 On ch=5 n=91 v=80
39288 On ch=5 n=88 v=80
39289 On ch=5 n=91 v=0
39310 On ch=5 n=88 v=0
39312 On ch=5 n=86 v=80
39334 On ch=5 n=86 v=0
39336 On ch=5 n=84 v=80
39358 On ch=5 n=84 v=0
41448 On ch=5 n=93 v=70
41493 On ch=5 n=93 v=0
41496 On ch=5 n=91 v=80
41544 On ch=5 n=89 v=80
41545 On ch=5 n=91 v=0
41566 On ch=5 n=89 v=0
41568 On ch=5 n=88 v=80
41590 On ch=5 n=88 v=0
41592 On ch=5 n=84 v=80
41614 On ch=5 n=84 v=0
41712 PrCh ch=5 p=5
41712 Par ch=5 c=10 v=60
41952 On ch=5 n=53 v=85
41952 On ch=5 n=65 v=94
42048 On ch=5 n=53 v=0
42048 On ch=5 n=65 v=0
47928 Par ch=5 c=10 v=58
48120 PrCh ch=5 p=16
48312 Par ch=5 c=11 v=90
48792 On ch=5 n=67 v=80
48816 On ch=5 n=66 v=80
48817 On ch=5 n=67 v=0
48838 On ch=5 n=66 v=0
48840 On ch=5 n=67 v=80
48890 On ch=5 n=67 v=0
49560 On ch=5 n=67 v=80
49584 On ch=5 n=66 v=80
49585 On ch=5 n=67 v=0
49606 On ch=5 n=66 v=0
49608 On ch=5 n=67 v=80
49658 On ch=5 n=67 v=0
50328 On ch=5 n=67 v=80
50352 On ch=5 n=66 v=80
50353 On ch=5 n=67 v=0
50374 On ch=5 n=66 v=0
50376 On ch=5 n=67 v=80
50426 On ch=5 n=67 v=0
51000 Par ch=5 c=11 v=80
51096 On ch=5 n=67 v=80
51120 On ch=5 n=66 v=80
51121 On ch=5 n=67 v=0
51142 On ch=5 n=66 v=0
51144 On ch=5 n=67 v=80
51194 On ch=5 n=67 v=0
51768 Par ch=5 c=11 v=100
51864 On ch=5 n=67 v=80
51888 On ch=5 n=66 v=80
51889 On ch=5 n=67 v=0
51910 On ch=5 n=66 v=0
51912 On ch=5 n=67 v=80
51962 On ch=5 n=67 v=0
52632 On ch=5 n=67 v=80
52656 On ch=5 n=66 v=80
52657 On ch=5 n=67 v=0
52678 On ch=5 n=66 v=0
52680 On ch=5 n=67 v=80
52730 On ch=5 n=67 v=0
53400 On ch=5 n=67 v=60
53424 On ch=5 n=66 v=60
53425 On ch=5 n=67 v=0
53446 On ch=5 n=66 v=0
53448 On ch=5 n=67 v=60
53498 On ch=5 n=67 v=0
54168 On ch=5 n=67 v=80
54192 On ch=5 n=66 v=80
54193 On ch=5 n=67 v=0
54214 On ch=5 n=66 v=0
54216 On ch=5 n=67 v=80
54840 Par ch=5 c=11 v=105
54841 On ch=5 n=67 v=0
54936 On ch=5 n=67 v=80
54960 On ch=5 n=66 v=80
54961 On ch=5 n=67 v=0
54982 On ch=5 n=66 v=0
54984 On ch=5 n=67 v=80
55506 On ch=5 n=67 v=0
55512 On ch=5 n=67 v=80
55534 On ch=5 n=67 v=0
55536 On ch=5 n=66 v=80
55581 On ch=5 n=66 v=0
55584 On ch=5 n=67 v=80
55630 On ch=5 n=67 v=0
55632 On ch=5 n=66 v=80
55677 On ch=5 n=66 v=0
55680 On ch=5 n=67 v=80
55725 On ch=5 n=67 v=0
55728 On ch=5 n=66 v=80
55750 On ch=5 n=66 v=0
55752 On ch=5 n=67 v=80
56182 On ch=5 n=67 v=0
56184 On ch=5 n=67 v=80
56228 On ch=5 n=67 v=0
56232 On ch=5 n=67 v=80
56254 On ch=5 n=67 v=0
56256 On ch=5 n=66 v=80
56301 On ch=5 n=66 v=0
56304 On ch=5 n=67 v=80
56326 On ch=5 n=67 v=0
56328 On ch=5 n=66 v=80
56373 On ch=5 n=66 v=0
56376 On ch=5 n=67 v=80
56398 On ch=5 n=67 v=0
56400 On ch=5 n=66 v=80
56445 On ch=5 n=66 v=0
56448 On ch=5 n=67 v=80
56493 On ch=5 n=67 v=0
56496 On ch=5 n=66 v=80
56518 On ch=5 n=66 v=0
56520 On ch=5 n=67 v=80
56565 On ch=5 n=67 v=0
56568 On ch=5 n=67 v=80
56950 On ch=5 n=67 v=0
57072 On ch=5 n=67 v=80
57094 On ch=5 n=67 v=0
57096 On ch=5 n=66 v=80
57141 On ch=5 n=66 v=0
57144 On ch=5 n=67 v=80
57214 On ch=5 n=67 v=0
57240 On ch=5 n=66 v=80
57240 On ch=5 n=67 v=80
57245 On ch=5 n=66 v=0
57262 On ch=5 n=67 v=0
57264 On ch=5 n=66 v=80
57286 On ch=5 n=66 v=0
57288 On ch=5 n=67 v=80
57332 On ch=5 n=67 v=0
57336 On ch=5 n=67 v=80
57912 On ch=5 n=67 v=0
57912 On ch=5 n=67 v=80
57936 On ch=5 n=66 v=80
57938 On ch=5 n=67 v=0
57960 On ch=5 n=66 v=0
57960 On ch=5 n=67 v=80
57984 On ch=5 n=66 v=80
57985 On ch=5 n=67 v=0
58006 On ch=5 n=66 v=0
58008 On ch=5 n=67 v=80
58032 On ch=5 n=66 v=80
58034 On ch=5 n=67 v=0
58056 On ch=5 n=67 v=80
58057 On ch=5 n=66 v=0
58080 On ch=5 n=66 v=80
58081 On ch=5 n=67 v=0
58104 On ch=5 n=67 v=80
58105 On ch=5 n=66 v=0
58296 On ch=5 n=67 v=0
58296 On ch=5 n=67 v=80
58486 On ch=5 n=67 v=0
58632 On ch=5 n=67 v=80
58656 On ch=5 n=66 v=80
58658 On ch=5 n=67 v=0
58679 On ch=5 n=66 v=0
58680 On ch=5 n=67 v=80
58704 On ch=5 n=66 v=80
58705 On ch=5 n=67 v=0
58727 On ch=5 n=66 v=0
58728 On ch=5 n=67 v=80
58752 On ch=5 n=66 v=80
58754 On ch=5 n=67 v=0
58776 On ch=5 n=67 v=80
58777 On ch=5 n=66 v=0
58800 On ch=5 n=66 v=80
58802 On ch=5 n=67 v=0
58823 On ch=5 n=66 v=0
58824 On ch=5 n=67 v=80
58848 On ch=5 n=67 v=0
58848 On ch=5 n=66 v=80
58872 On ch=5 n=67 v=80
58873 On ch=5 n=66 v=0
58896 On ch=5 n=67 v=0
58896 On ch=5 n=66 v=80
58920 On ch=5 n=67 v=80
58922 On ch=5 n=66 v=0
59254 On ch=5 n=67 v=0
59256 On ch=5 n=67 v=80
59304 On ch=5 n=67 v=0
59352 On ch=5 n=67 v=80
59374 On ch=5 n=67 v=0
59376 On ch=5 n=66 v=80
59421 On ch=5 n=66 v=0
59424 On ch=5 n=67 v=80
59470 On ch=5 n=67 v=0
59472 On ch=5 n=66 v=80
59517 On ch=5 n=66 v=0
59520 On ch=5 n=67 v=80
59565 On ch=5 n=67 v=0
59568 On ch=5 n=66 v=80
59613 On ch=5 n=66 v=0
59616 On ch=5 n=67 v=80
59662 On ch=5 n=67 v=0
59664 On ch=5 n=66 v=80
59686 On ch=5 n=66 v=0
59688 On ch=5 n=67 v=80
60025 On ch=5 n=67 v=0
60168 On ch=5 n=67 v=80
60192 On ch=5 n=66 v=80
60193 On ch=5 n=67 v=0
60214 On ch=5 n=66 v=0
60216 On ch=5 n=67 v=80
60240 On ch=5 n=66 v=80
60241 On ch=5 n=67 v=0
60263 On ch=5 n=66 v=0
60264 On ch=5 n=67 v=80
60288 On ch=5 n=66 v=80
60290 On ch=5 n=67 v=0
60312 On ch=5 n=67 v=80
60313 On ch=5 n=66 v=0
60336 On ch=5 n=67 v=0
60336 On ch=5 n=66 v=80
60360 On ch=5 n=66 v=0
60360 On ch=5 n=67 v=80
60384 On ch=5 n=66 v=80
60386 On ch=5 n=67 v=0
60408 On ch=5 n=66 v=0
60408 On ch=5 n=67 v=88
60432 On ch=5 n=66 v=80
60434 On ch=5 n=67 v=0
60454 On ch=5 n=66 v=0
60456 On ch=5 n=67 v=85
60479 On ch=5 n=67 v=0
60480 On ch=5 n=66 v=80
60502 On ch=5 n=66 v=0
60504 On ch=5 n=67 v=80
60790 On ch=5 n=67 v=0
60936 On ch=5 n=67 v=90
60958 On ch=5 n=67 v=0
60960 On ch=5 n=66 v=90
61007 On ch=5 n=66 v=0
61008 On ch=5 n=67 v=90
61053 On ch=5 n=67 v=0
61056 On ch=5 n=66 v=90
61079 On ch=5 n=66 v=0
61080 On ch=5 n=67 v=90
61103 On ch=5 n=67 v=0
61104 On ch=5 n=66 v=90
61127 On ch=5 n=66 v=0
61128 On ch=5 n=67 v=90
61151 On ch=5 n=67 v=0
61152 On ch=5 n=66 v=60
61175 On ch=5 n=66 v=0
61176 On ch=5 n=67 v=90
63865 On ch=5 n=67 v=0
64248 Par ch=5 c=91 v=127
64248 Par ch=5 c=93 v=127
64248 On ch=5 n=55 v=100
64438 On ch=5 n=55 v=0
64440 On ch=5 n=51 v=100
64630 On ch=5 n=51 v=0
64632 On ch=5 n=48 v=100
65014 On ch=5 n=48 v=0
65016 On ch=5 n=47 v=100
65206 On ch=5 n=47 v=0
65208 On ch=5 n=46 v=100
65398 On ch=5 n=46 v=0
65400 On ch=5 n=48 v=100
65592 On ch=5 n=48 v=0
65592 On ch=5 n=48 v=100
65782 On ch=5 n=48 v=0
65784 On ch=5 n=55 v=100
65974 On ch=5 n=55 v=0
65976 On ch=5 n=51 v=100
66166 On ch=5 n=51 v=0
66168 On ch=5 n=48 v=100
66550 On ch=5 n=48 v=0
66552 On ch=5 n=47 v=100
66742 On ch=5 n=47 v=0
66744 On ch=5 n=46 v=100
66934 On ch=5 n=46 v=0
66936 On ch=5 n=48 v=100
67318 On ch=5 n=48 v=0
67320 On ch=5 n=55 v=100
67510 On ch=5 n=55 v=0
67512 On ch=5 n=51 v=100
67702 On ch=5 n=51 v=0
67704 On ch=5 n=48 v=100
68086 On ch=5 n=48 v=0
68088 On ch=5 n=47 v=100
68278 On ch=5 n=47 v=0
68280 On ch=5 n=46 v=100
68470 On ch=5 n=46 v=0
68472 On ch=5 n=48 v=100
68854 On ch=5 n=48 v=0
68856 On ch=5 n=55 v=100
69046 On ch=5 n=55 v=0
69048 On ch=5 n=51 v=100
69238 On ch=5 n=51 v=0
69240 On ch=5 n=48 v=100
69432 Par ch=5 c=7 v=116
69452 Par ch=5 c=7 v=115
69468 Par ch=5 c=7 v=114
69488 Par ch=5 c=7 v=113
69504 Par ch=5 c=7 v=112
69524 Par ch=5 c=7 v=111
69540 Par ch=5 c=7 v=110
69560 Par ch=5 c=7 v=109
69576 Par ch=5 c=7 v=108
69596 Par ch=5 c=7 v=107
69612 Par ch=5 c=7 v=106
69622 On ch=5 n=48 v=0
69624 On ch=5 n=47 v=100
69632 Par ch=5 c=7 v=105
69648 Par ch=5 c=7 v=104
69668 Par ch=5 c=7 v=103
69684 Par ch=5 c=7 v=102
69704 Par ch=5 c=7 v=101
69720 Par ch=5 c=7 v=100
69740 Par ch=5 c=7 v=99
69756 Par ch=5 c=7 v=98
69776 Par ch=5 c=7 v=97
69792 Par ch=5 c=7 v=96
69812 Par ch=5 c=7 v=95
69814 On ch=5 n=47 v=0
69816 On ch=5 n=46 v=100
69828 Par ch=5 c=7 v=94
69848 Par ch=5 c=7 v=93
69864 Par ch=5 c=7 v=92
69884 Par ch=5 c=7 v=91
69900 Par ch=5 c=7 v=90
69920 Par ch=5 c=7 v=89
69936 Par ch=5 c=7 v=88
69956 Par ch=5 c=7 v=87
69972 Par ch=5 c=7 v=86
69992 Par ch=5 c=7 v=85
70006 On ch=5 n=46 v=0
70008 On ch=5 n=48 v=100
70008 Par ch=5 c=7 v=84
70028 Par ch=5 c=7 v=83
70044 Par ch=5 c=7 v=82
70064 Par ch=5 c=7 v=81
70080 Par ch=5 c=7 v=80
70100 Par ch=5 c=7 v=79
70116 Par ch=5 c=7 v=78
70136 Par ch=5 c=7 v=77
70152 Par ch=5 c=7 v=76
70172 Par ch=5 c=7 v=75
70188 Par ch=5 c=7 v=74
70208 Par ch=5 c=7 v=73
70224 Par ch=5 c=7 v=72
70244 Par ch=5 c=7 v=71
70260 Par ch=5 c=7 v=70
70280 Par ch=5 c=7 v=69
70296 Par ch=5 c=7 v=68
70316 Par ch=5 c=7 v=67
70332 Par ch=5 c=7 v=66
70352 Par ch=5 c=7 v=65
70368 Par ch=5 c=7 v=64
70388 Par ch=5 c=7 v=63
70390 On ch=5 n=48 v=0
70392 On ch=5 n=55 v=100
70404 Par ch=5 c=7 v=62
70424 Par ch=5 c=7 v=61
70440 Par ch=5 c=7 v=60
70460 Par ch=5 c=7 v=59
70476 Par ch=5 c=7 v=58
70496 Par ch=5 c=7 v=57
70512 Par ch=5 c=7 v=56
70532 Par ch=5 c=7 v=55
70548 Par ch=5 c=7 v=54
70568 Par ch=5 c=7 v=53
70582 On ch=5 n=55 v=0
70584 On ch=5 n=51 v=100
70584 Par ch=5 c=7 v=52
70604 Par ch=5 c=7 v=51
70620 Par ch=5 c=7 v=50
70640 Par ch=5 c=7 v=49
70656 Par ch=5 c=7 v=48
70676 Par ch=5 c=7 v=47
70692 Par ch=5 c=7 v=46
70712 Par ch=5 c=7 v=45
70728 Par ch=5 c=7 v=44
70748 Par ch=5 c=7 v=43
70764 Par ch=5 c=7 v=42
70774 On ch=5 n=51 v=0
70776 On ch=5 n=48 v=100
70784 Par ch=5 c=7 v=41
70800 Par ch=5 c=7 v=40
70820 Par ch=5 c=7 v=39
70836 Par ch=5 c=7 v=38
70856 Par ch=5 c=7 v=37
70872 Par ch=5 c=7 v=36
70892 Par ch=5 c=7 v=35
70908 Par ch=5 c=7 v=34
70928 Par ch=5 c=7 v=33
70944 Par ch=5 c=7 v=32
70964 Par ch=5 c=7 v=31
70980 Par ch=5 c=7 v=30
71000 Par ch=5 c=7 v=29
71016 Par ch=5 c=7 v=28
71036 Par ch=5 c=7 v=27
71052 Par ch=5 c=7 v=26
71072 Par ch=5 c=7 v=25
71088 Par ch=5 c=7 v=24
71108 Par ch=5 c=7 v=23
71124 Par ch=5 c=7 v=22
71144 Par ch=5 c=7 v=21
71158 On ch=5 n=48 v=0
71160 Par ch=5 c=7 v=20
71160 On ch=5 n=47 v=100
71350 On ch=5 n=47 v=0
71352 Par ch=5 c=7 v=12
71352 On ch=5 n=46 v=100
71448 Par ch=5 c=7 v=5
71542 On ch=5 n=46 v=0
71542 Meta TrkEnd
TrkEnd
MTrk
0 Meta 0x21 00
104 Par ch=6 c=10 v=64
110 Par ch=6 c=1 v=0
116 Par ch=6 c=91 v=127
122 Par ch=6 c=93 v=96
128 PrCh ch=6 p=75
134 Par ch=6 c=100 v=0
134 Par ch=6 c=101 v=0
134 Par ch=6 c=6 v=12
140 Par ch=6 c=98 v=32
140 Par ch=6 c=99 v=1
140 Par ch=6 c=6 v=64
146 Par ch=6 c=98 v=33
146 Par ch=6 c=99 v=1
146 Par ch=6 c=6 v=64
164 Par ch=6 c=7 v=127
164 Par ch=6 c=11 v=127
2112 Pb ch=6 v=8792
2112 On ch=6 n=61 v=96
2114 Pb ch=6 v=8192
2157 On ch=6 n=61 v=0
2160 On ch=6 n=57 v=88
2182 On ch=6 n=57 v=0
2184 Pb ch=6 v=9292
2184 On ch=6 n=66 v=96
2188 Pb ch=6 v=8992
2189 Pb ch=6 v=8592
2190 Pb ch=6 v=8320
2191 Pb ch=6 v=8192
2229 On ch=6 n=66 v=0
2232 On ch=6 n=66 v=85
2344 On ch=6 n=66 v=0
2352 On ch=6 n=66 v=64
2354 On ch=6 n=66 v=0
2400 Pb ch=6 v=7509
2400 On ch=6 n=69 v=99
2403 Pb ch=6 v=7748
2404 Pb ch=6 v=8064
2405 Pb ch=6 v=8192
2445 On ch=6 n=69 v=0
2448 On ch=6 n=69 v=92
2493 On ch=6 n=69 v=0
2496 On ch=6 n=69 v=90
2541 On ch=6 n=69 v=0
2544 On ch=6 n=68 v=84
2566 On ch=6 n=68 v=0
2568 Pb ch=6 v=7509
2568 On ch=6 n=69 v=99
2577 Pb ch=6 v=7637
2581 Pb ch=6 v=7692
2583 Pb ch=6 v=7748
2585 Pb ch=6 v=7892
2586 Pb ch=6 v=7992
2587 Pb ch=6 v=8192
2588 Pb ch=6 v=8192
2612 Pb ch=6 v=8064
2616 Pb ch=6 v=7637
2618 Pb ch=6 v=7509
2634 On ch=6 n=69 v=0
2636 Pb ch=6 v=8192
2636 On ch=6 n=64 v=80
2804 On ch=6 n=64 v=0
3164 Pb ch=6 v=8192
3164 On ch=6 n=61 v=97
3166 Pb ch=6 v=8192
3209 On ch=6 n=61 v=0
3212 On ch=6 n=57 v=85
3234 On ch=6 n=57 v=0
3236 On ch=6 n=66 v=98
3380 On ch=6 n=66 v=0
3380 On ch=6 n=66 v=80
3381 On ch=6 n=66 v=0
3452 Pb ch=6 v=7532
3452 On ch=6 n=69 v=96
3456 Pb ch=6 v=7752
3457 Pb ch=6 v=8064
3458 Pb ch=6 v=8312
3497 On ch=6 n=69 v=0
3500 On ch=6 n=69 v=100
3530 On ch=6 n=69 v=0
3548 Pb ch=6 v=8192
3548 On ch=6 n=69 v=102
3593 On ch=6 n=69 v=0
3596 On ch=6 n=68 v=94
3616 On ch=6 n=68 v=0
3620 On ch=6 n=69 v=110
3666 On ch=6 n=69 v=0
3668 On ch=6 n=71 v=100
4026 On ch=6 n=71 v=0
4220 On ch=6 n=61 v=99
4265 On ch=6 n=61 v=0
4268 Pb ch=6 v=8492
4268 On ch=6 n=57 v=80
4290 On ch=6 n=57 v=0
4292 Pb ch=6 v=8392
4292 On ch=6 n=66 v=110
4300 Pb ch=6 v=8292
4337 On ch=6 n=66 v=0
4340 Pb ch=6 v=8192
4340 On ch=6 n=66 v=80
4352 On ch=6 n=66 v=0
4364 On ch=6 n=66 v=96
4434 On ch=6 n=66 v=0
4460 On ch=6 n=66 v=94
4505 On ch=6 n=66 v=0
4508 Pb ch=6 v=8320
4508 On ch=6 n=69 v=106
4576 On ch=6 n=69 v=0
4580 Pb ch=6 v=8192
4580 On ch=6 n=69 v=94
4626 On ch=6 n=69 v=0
4628 On ch=6 n=68 v=90
4673 On ch=6 n=68 v=0
4676 Pb ch=6 v=7509
4676 On ch=6 n=69 v=96
4682 Pb ch=6 v=7752
4683 Pb ch=6 v=7992
4684 Pb ch=6 v=8192
4722 On ch=6 n=69 v=0
4724 On ch=6 n=68 v=92
4746 On ch=6 n=68 v=0
4748 On ch=6 n=64 v=88
4797 On ch=6 n=64 v=0
4895 Pb ch=6 v=7692
4895 On ch=6 n=66 v=95
4897 Pb ch=6 v=7992
4899 Pb ch=6 v=8192
4990 On ch=6 n=64 v=93
4992 On ch=6 n=66 v=0
5084 Pb ch=6 v=7509
5084 On ch=6 n=67 v=97
5087 On ch=6 n=64 v=0
5087 Pb ch=6 v=7592
5089 Pb ch=6 v=7748
5090 Pb ch=6 v=7936
5091 Pb ch=6 v=8192
5180 On ch=6 n=66 v=94
5181 On ch=6 n=67 v=0
5228 On ch=6 n=66 v=0
5276 On ch=6 n=66 v=99
5321 On ch=6 n=66 v=0
5324 On ch=6 n=64 v=97
5350 On ch=6 n=64 v=0
5372 On ch=6 n=62 v=90
5394 Pb ch=6 v=8064
5395 Pb ch=6 v=7936
5396 Pb ch=6 v=6312
5397 Pb ch=6 v=6144
5420 On ch=6 n=62 v=0
5420 Pb ch=6 v=8192
5420 On ch=6 n=62 v=85
5464 Pb ch=6 v=7692
5466 Pb ch=6 v=7392
5467 Pb ch=6 v=6692
5468 On ch=6 n=62 v=0
5468 Pb ch=6 v=8192
5468 On ch=6 n=59 v=85
5472 On ch=6 n=59 v=0
5852 Pb ch=6 v=8792
5852 On ch=6 n=61 v=96
5854 Pb ch=6 v=8192
5876 On ch=6 n=61 v=0
5900 On ch=6 n=57 v=84
5920 On ch=6 n=57 v=0
5924 Pb ch=6 v=9292
5924 On ch=6 n=66 v=96
5928 Pb ch=6 v=8992
5929 Pb ch=6 v=8592
5930 Pb ch=6 v=8320
5931 Pb ch=6 v=8252
5969 On ch=6 n=66 v=0
5972 On ch=6 n=66 v=85
6045 On ch=6 n=66 v=0
6140 Pb ch=6 v=8192
6332 On ch=6 n=69 v=110
6354 On ch=6 n=69 v=0
6356 On ch=6 n=68 v=105
6380 On ch=6 n=68 v=0
6404 On ch=6 n=69 v=107
6449 On ch=6 n=69 v=0
6452 On ch=6 n=68 v=105
6474 On ch=6 n=68 v=0
6476 Pb ch=6 v=7509
6476 On ch=6 n=69 v=106
6495 Pb ch=6 v=7742
6499 Pb ch=6 v=8067
6501 Pb ch=6 v=8192
6525 Pb ch=6 v=8063
6527 Pb ch=6 v=7509
6544 On ch=6 n=69 v=0
6548 Pb ch=6 v=8192
6548 On ch=6 n=64 v=99
6740 On ch=6 n=64 v=0
6740 On ch=6 n=64 v=80
6748 On ch=6 n=64 v=0
7436 Pb ch=6 v=8392
7436 On ch=6 n=61 v=92
7438 Pb ch=6 v=8192
7481 On ch=6 n=61 v=0
7484 On ch=6 n=57 v=88
7506 On ch=6 n=57 v=0
7508 Pb ch=6 v=9292
7508 On ch=6 n=66 v=96
7512 Pb ch=6 v=8992
7513 Pb ch=6 v=8592
7514 Pb ch=6 v=8320
7515 Pb ch=6 v=8192
7553 On ch=6 n=66 v=0
7556 On ch=6 n=66 v=85
7629 On ch=6 n=66 v=0
7676 On ch=6 n=66 v=88
7722 On ch=6 n=66 v=0
7724 Pb ch=6 v=7509
7724 On ch=6 n=69 v=99
7727 Pb ch=6 v=7748
7728 Pb ch=6 v=8064
7729 Pb ch=6 v=8192
7769 On ch=6 n=69 v=0
7772 On ch=6 n=69 v=92
7817 On ch=6 n=69 v=0
7820 On ch=6 n=68 v=96
7865 On ch=6 n=68 v=0
7868 On ch=6 n=69 v=86
7916 Pb ch=6 v=7992
7917 Pb ch=6 v=7748
7918 Pb ch=6 v=7509
7963 Pb ch=6 v=5692
7964 Pb ch=6 v=4779
8012 On ch=6 n=69 v=0
8012 Pb ch=6 v=8192
8012 On ch=6 n=64 v=84
8112 On ch=6 n=64 v=0
8492 Pb ch=6 v=8492
8492 On ch=6 n=61 v=97
8516 On ch=6 n=61 v=0
8540 Pb ch=6 v=8192
8540 On ch=6 n=57 v=85
8584 On ch=6 n=57 v=0
8588 On ch=6 n=66 v=98
8680 On ch=6 n=66 v=0
8684 On ch=6 n=66 v=98
8688 On ch=6 n=66 v=0
8780 Pb ch=6 v=7532
8780 On ch=6 n=69 v=96
8784 Pb ch=6 v=7752
8785 Pb ch=6 v=8064
8786 Pb ch=6 v=8312
8802 On ch=6 n=69 v=0
8828 On ch=6 n=69 v=100
8850 On ch=6 n=69 v=0
8852 Pb ch=6 v=8192
8852 On ch=6 n=69 v=105
8921 On ch=6 n=69 v=0
8924 On ch=6 n=68 v=94
8944 On ch=6 n=68 v=0
8948 On ch=6 n=69 v=110
8996 Pb ch=6 v=8320
8997 Pb ch=6 v=8448
8998 Pb ch=6 v=9557
9092 On ch=6 n=69 v=0
9092 Pb ch=6 v=8192
9092 On ch=6 n=66 v=80
9096 On ch=6 n=66 v=0
9548 On ch=6 n=61 v=99
9593 On ch=6 n=61 v=0
9596 Pb ch=6 v=8492
9596 On ch=6 n=57 v=80
9618 On ch=6 n=57 v=0
9620 Pb ch=6 v=8392
9620 On ch=6 n=66 v=110
9628 Pb ch=6 v=8292
9665 On ch=6 n=66 v=0
9668 Pb ch=6 v=8192
9668 On ch=6 n=66 v=96
9736 On ch=6 n=66 v=0
9740 On ch=6 n=66 v=80
9747 On ch=6 n=66 v=0
9836 Pb ch=6 v=8320
9836 On ch=6 n=69 v=96
9884 On ch=6 n=69 v=0
9884 Pb ch=6 v=8192
9884 On ch=6 n=69 v=98
9929 On ch=6 n=69 v=0
9932 On ch=6 n=69 v=94
9977 On ch=6 n=69 v=0
9980 On ch=6 n=68 v=90
10002 On ch=6 n=68 v=0
10004 Pb ch=6 v=7509
10004 On ch=6 n=69 v=96
10010 Pb ch=6 v=7752
10011 Pb ch=6 v=7992
10012 Pb ch=6 v=8192
10028 Pb ch=6 v=7992
10029 Pb ch=6 v=7509
10052 On ch=6 n=69 v=0
10052 Pb ch=6 v=8192
10052 On ch=6 n=64 v=88
10100 On ch=6 n=64 v=0
10223 Pb ch=6 v=7692
10223 On ch=6 n=66 v=95
10225 Pb ch=6 v=7992
10227 Pb ch=6 v=8192
10318 On ch=6 n=64 v=93
10320 On ch=6 n=66 v=0
10412 Pb ch=6 v=7509
10412 On ch=6 n=67 v=97
10415 On ch=6 n=64 v=0
10415 Pb ch=6 v=7592
10417 Pb ch=6 v=7748
10418 Pb ch=6 v=7936
10419 Pb ch=6 v=8192
10508 On ch=6 n=66 v=94
10509 On ch=6 n=67 v=0
10556 On ch=6 n=66 v=0
10604 On ch=6 n=66 v=99
10649 On ch=6 n=66 v=0
10652 On ch=6 n=64 v=97
10678 On ch=6 n=64 v=0
10700 On ch=6 n=62 v=90
10726 Pb ch=6 v=8064
10727 Pb ch=6 v=7936
10728 Pb ch=6 v=6312
10729 Pb ch=6 v=6292
10747 Pb ch=6 v=8192
10792 Pb ch=6 v=7692
10794 Pb ch=6 v=7392
10795 On ch=6 n=62 v=0
10795 Pb ch=6 v=6692
10796 Pb ch=6 v=8192
10796 On ch=6 n=59 v=85
10800 On ch=6 n=59 v=0
11180 Pb ch=6 v=8792
11180 On ch=6 n=61 v=96
11182 Pb ch=6 v=8192
11204 On ch=6 n=61 v=0
11228 On ch=6 n=57 v=84
11248 On ch=6 n=57 v=0
11252 Pb ch=6 v=9292
11252 On ch=6 n=66 v=96
11256 Pb ch=6 v=8992
11257 Pb ch=6 v=8592
11258 Pb ch=6 v=8320
11259 Pb ch=6 v=8252
11297 On ch=6 n=66 v=0
11300 On ch=6 n=66 v=85
11373 On ch=6 n=66 v=0
11468 Pb ch=6 v=8192
11660 On ch=6 n=69 v=110
11682 On ch=6 n=69 v=0
11684 On ch=6 n=68 v=105
11708 On ch=6 n=68 v=0
11732 On ch=6 n=69 v=107
11777 On ch=6 n=69 v=0
11780 On ch=6 n=68 v=105
11802 On ch=6 n=68 v=0
11804 On ch=6 n=69 v=118
11852 Pb ch=6 v=8320
11856 Pb ch=6 v=8448
11859 Pb ch=6 v=8592
11861 Pb ch=6 v=9292
11863 Pb ch=6 v=9652
11865 Pb ch=6 v=9592
11866 Pb ch=6 v=9557
12138 On ch=6 n=69 v=0
12188 Pb ch=6 v=8192
14924 Pb ch=6 v=8320
14924 On ch=6 n=57 v=87
14969 On ch=6 n=57 v=0
14972 On ch=6 n=59 v=86
15017 On ch=6 n=59 v=0
15020 On ch=6 n=61 v=84
15042 On ch=6 n=61 v=0
15044 Pb ch=6 v=8192
15044 On ch=6 n=64 v=93
15090 On ch=6 n=64 v=0
15092 On ch=6 n=66 v=95
15137 On ch=6 n=66 v=0
15140 On ch=6 n=64 v=88
15208 On ch=6 n=64 v=0
15296 On ch=6 n=69 v=106
15341 On ch=6 n=69 v=0
15356 On ch=6 n=67 v=102
15401 On ch=6 n=67 v=0
15404 On ch=6 n=66 v=102
15449 On ch=6 n=66 v=0
15452 On ch=6 n=64 v=100
15520 On ch=6 n=64 v=0
15524 On ch=6 n=66 v=104
15569 On ch=6 n=66 v=0
15596 On ch=6 n=64 v=94
15641 On ch=6 n=64 v=0
15644 On ch=6 n=69 v=107
15712 On ch=6 n=69 v=0
15716 On ch=6 n=67 v=99
15761 On ch=6 n=67 v=0
15764 On ch=6 n=65 v=103
15809 On ch=6 n=65 v=0
15812 On ch=6 n=65 v=102
15881 On ch=6 n=65 v=0
15884 On ch=6 n=60 v=102
15929 On ch=6 n=60 v=0
16028 On ch=6 n=60 v=96
16050 On ch=6 n=60 v=0
16052 On ch=6 n=62 v=102
16097 On ch=6 n=62 v=0
16100 On ch=6 n=60 v=99
16145 On ch=6 n=60 v=0
16148 On ch=6 n=65 v=106
16193 On ch=6 n=65 v=0
16196 On ch=6 n=60 v=100
16218 On ch=6 n=60 v=0
16220 On ch=6 n=62 v=102
16242 On ch=6 n=62 v=0
16244 On ch=6 n=60 v=97
16312 On ch=6 n=60 v=0
16316 On ch=6 n=57 v=80
16319 On ch=6 n=57 v=0
16412 On ch=6 n=60 v=94
16434 On ch=6 n=60 v=0
16436 On ch=6 n=62 v=100
16481 On ch=6 n=62 v=0
16484 On ch=6 n=60 v=93
16529 On ch=6 n=60 v=0
16532 On ch=6 n=65 v=100
16577 On ch=6 n=65 v=0
16580 On ch=6 n=67 v=105
16672 On ch=6 n=67 v=0
16676 On ch=6 n=65 v=100
16698 On ch=6 n=65 v=0
16700 On ch=6 n=60 v=92
16745 On ch=6 n=60 v=0
16748 On ch=6 n=62 v=88
16766 Pb ch=6 v=8064
16768 Pb ch=6 v=7936
16769 Pb ch=6 v=7092
16770 Pb ch=6 v=6992
16771 Pb ch=6 v=6792
16772 Pb ch=6 v=6827
16796 On ch=6 n=62 v=0
16796 Pb ch=6 v=8192
16796 On ch=6 n=62 v=88
16828 Pb ch=6 v=8064
16832 Pb ch=6 v=7936
16835 Pb ch=6 v=7680
16837 Pb ch=6 v=7092
16839 Pb ch=6 v=6992
16840 Pb ch=6 v=6792
16842 Pb ch=6 v=6827
16988 On ch=6 n=62 v=0
16988 Pb ch=6 v=8192
16988 On ch=6 n=60 v=88
16992 On ch=6 n=60 v=0
17132 Pb ch=6 v=8064
17132 On ch=6 n=57 v=87
17200 On ch=6 n=57 v=0
17204 Pb ch=6 v=8192
17204 On ch=6 n=59 v=86
17272 On ch=6 n=59 v=0
17276 On ch=6 n=61 v=93
17298 On ch=6 n=61 v=0
17300 On ch=6 n=64 v=95
17346 On ch=6 n=64 v=0
17348 On ch=6 n=66 v=92
17393 On ch=6 n=66 v=0
17468 On ch=6 n=64 v=88
17492 On ch=6 n=64 v=0
17516 On ch=6 n=69 v=106
17564 On ch=6 n=69 v=0
17588 On ch=6 n=67 v=102
17635 Pb ch=6 v=8064
17637 Pb ch=6 v=7502
17638 Pb ch=6 v=7509
17684 On ch=6 n=67 v=0
17684 Pb ch=6 v=8192
17684 On ch=6 n=66 v=88
17706 On ch=6 n=66 v=0
17708 On ch=6 n=66 v=100
17776 On ch=6 n=66 v=0
17780 On ch=6 n=64 v=104
17825 On ch=6 n=64 v=0
17852 On ch=6 n=64 v=80
17872 On ch=6 n=64 v=0
17900 On ch=6 n=69 v=107
17968 On ch=6 n=69 v=0
17972 On ch=6 n=67 v=99
18017 On ch=6 n=67 v=0
18020 On ch=6 n=65 v=103
18060 On ch=6 n=65 v=0
18062 On ch=6 n=65 v=102
18114 On ch=6 n=65 v=0
18116 On ch=6 n=60 v=102
18184 On ch=6 n=60 v=0
18236 On ch=6 n=60 v=80
18260 On ch=6 n=60 v=0
18284 On ch=6 n=60 v=96
18329 On ch=6 n=60 v=0
18332 On ch=6 n=62 v=102
18354 On ch=6 n=62 v=0
18356 On ch=6 n=60 v=99
18401 On ch=6 n=60 v=0
18404 On ch=6 n=65 v=106
18428 On ch=6 n=65 v=0
18452 On ch=6 n=60 v=100
18474 On ch=6 n=60 v=0
18476 On ch=6 n=62 v=102
18498 On ch=6 n=62 v=0
18500 On ch=6 n=60 v=97
18568 On ch=6 n=60 v=0
18572 On ch=6 n=57 v=80
18575 On ch=6 n=57 v=0
18668 On ch=6 n=60 v=94
18713 On ch=6 n=60 v=0
18716 On ch=6 n=62 v=100
18738 On ch=6 n=62 v=0
18740 On ch=6 n=60 v=93
18785 On ch=6 n=60 v=0
18788 On ch=6 n=65 v=100
18833 On ch=6 n=65 v=0
18836 On ch=6 n=67 v=105
18928 On ch=6 n=67 v=0
18932 On ch=6 n=65 v=100
18954 On ch=6 n=65 v=0
18956 On ch=6 n=60 v=92
19001 On ch=6 n=60 v=0
19004 On ch=6 n=62 v=88
19022 Pb ch=6 v=8064
19024 Pb ch=6 v=7936
19025 Pb ch=6 v=7092
19026 Pb ch=6 v=6992
19027 Pb ch=6 v=6792
19028 Pb ch=6 v=6827
19052 On ch=6 n=62 v=0
19052 Pb ch=6 v=8192
19052 On ch=6 n=60 v=88
19242 On ch=6 n=60 v=0
21740 On ch=6 n=61 v=96
21762 On ch=6 n=61 v=0
21764 On ch=6 n=57 v=88
21809 On ch=6 n=57 v=0
21812 Pb ch=6 v=9292
21812 On ch=6 n=66 v=96
21816 Pb ch=6 v=8992
21817 Pb ch=6 v=8592
21818 Pb ch=6 v=8320
21819 Pb ch=6 v=8192
21884 On ch=6 n=66 v=0
21884 On ch=6 n=66 v=80
21888 On ch=6 n=66 v=0
21980 On ch=6 n=66 v=84
22024 On ch=6 n=66 v=0
22028 Pb ch=6 v=7509
22028 On ch=6 n=69 v=99
22031 Pb ch=6 v=7748
22032 Pb ch=6 v=8064
22033 Pb ch=6 v=8192
22073 On ch=6 n=69 v=0
22076 On ch=6 n=69 v=92
22121 On ch=6 n=69 v=0
22124 On ch=6 n=69 v=90
22169 On ch=6 n=69 v=0
22172 On ch=6 n=68 v=84
22194 On ch=6 n=68 v=0
22196 Pb ch=6 v=7509
22196 On ch=6 n=69 v=99
22205 Pb ch=6 v=7637
22209 Pb ch=6 v=7692
22211 Pb ch=6 v=7748
22213 Pb ch=6 v=7892
22214 Pb ch=6 v=7992
22215 Pb ch=6 v=8192
22216 Pb ch=6 v=8192
22240 Pb ch=6 v=8064
22244 Pb ch=6 v=7637
22246 Pb ch=6 v=7509
22262 On ch=6 n=69 v=0
22264 Pb ch=6 v=8192
22264 On ch=6 n=64 v=80
22432 On ch=6 n=64 v=0
22792 Pb ch=6 v=8192
22792 On ch=6 n=61 v=97
22794 Pb ch=6 v=8192
22837 On ch=6 n=61 v=0
22840 On ch=6 n=57 v=85
22885 On ch=6 n=57 v=0
22888 On ch=6 n=66 v=98
22936 On ch=6 n=66 v=0
22936 On ch=6 n=66 v=98
22984 On ch=6 n=66 v=0
22984 On ch=6 n=66 v=98
22988 On ch=6 n=66 v=0
23080 Pb ch=6 v=7532
23080 On ch=6 n=69 v=96
23084 Pb ch=6 v=7752
23085 Pb ch=6 v=8064
23086 Pb ch=6 v=8312
23125 On ch=6 n=69 v=0
23128 On ch=6 n=69 v=100
23158 On ch=6 n=69 v=0
23176 Pb ch=6 v=8192
23176 On ch=6 n=69 v=102
23221 On ch=6 n=69 v=0
23224 On ch=6 n=68 v=94
23244 On ch=6 n=68 v=0
23248 On ch=6 n=69 v=110
23294 On ch=6 n=69 v=0
23296 On ch=6 n=71 v=100
23654 On ch=6 n=71 v=0
23848 On ch=6 n=61 v=99
23893 On ch=6 n=61 v=0
23896 Pb ch=6 v=8492
23896 On ch=6 n=57 v=80
23918 On ch=6 n=57 v=0
23920 Pb ch=6 v=8392
23920 On ch=6 n=66 v=110
23928 Pb ch=6 v=8292
23965 On ch=6 n=66 v=0
23968 Pb ch=6 v=8192
23968 On ch=6 n=66 v=80
23972 On ch=6 n=66 v=0
24088 On ch=6 n=66 v=94
24110 On ch=6 n=66 v=0
24112 Pb ch=6 v=8320
24112 On ch=6 n=69 v=106
24160 On ch=6 n=69 v=0
24160 On ch=6 n=69 v=104
24205 On ch=6 n=69 v=0
24208 Pb ch=6 v=8192
24208 On ch=6 n=69 v=94
24254 On ch=6 n=69 v=0
24256 On ch=6 n=68 v=90
24301 On ch=6 n=68 v=0
24304 Pb ch=6 v=7509
24304 On ch=6 n=69 v=96
24327 Pb ch=6 v=7752
24328 Pb ch=6 v=7992
24329 Pb ch=6 v=8192
24352 Pb ch=6 v=8064
24353 Pb ch=6 v=7936
24354 Pb ch=6 v=7509
24376 Pb ch=6 v=7392
24377 Pb ch=6 v=4592
24379 Pb ch=6 v=4692
24380 Pb ch=6 v=4779
24448 On ch=6 n=69 v=0
24448 Pb ch=6 v=8192
24523 Pb ch=6 v=7692
24523 On ch=6 n=66 v=95
24525 Pb ch=6 v=7992
24527 Pb ch=6 v=8192
24618 On ch=6 n=64 v=93
24620 On ch=6 n=66 v=0
24712 Pb ch=6 v=7509
24712 On ch=6 n=67 v=97
24715 On ch=6 n=64 v=0
24715 Pb ch=6 v=7592
24717 Pb ch=6 v=7748
24718 Pb ch=6 v=7936
24719 Pb ch=6 v=8192
24808 On ch=6 n=66 v=94
24809 On ch=6 n=67 v=0
24856 On ch=6 n=66 v=0
24904 On ch=6 n=66 v=99
24949 On ch=6 n=66 v=0
24952 On ch=6 n=64 v=97
24978 On ch=6 n=64 v=0
25000 On ch=6 n=62 v=90
25022 Pb ch=6 v=8064
25023 Pb ch=6 v=7936
25024 Pb ch=6 v=6312
25025 Pb ch=6 v=6292
25048 On ch=6 n=62 v=0
25048 Pb ch=6 v=8448
25048 On ch=6 n=62 v=85
25051 Pb ch=6 v=8292
25052 Pb ch=6 v=8192
25092 Pb ch=6 v=7692
25094 Pb ch=6 v=7392
25095 Pb ch=6 v=6692
25096 On ch=6 n=62 v=0
25096 Pb ch=6 v=8192
25096 On ch=6 n=59 v=85
25100 On ch=6 n=59 v=0
25480 On ch=6 n=61 v=104
25502 On ch=6 n=61 v=0
25504 On ch=6 n=57 v=99
25549 On ch=6 n=57 v=0
25552 Pb ch=6 v=9292
25552 On ch=6 n=66 v=110
25556 Pb ch=6 v=8992
25557 Pb ch=6 v=8592
25558 Pb ch=6 v=8320
25559 Pb ch=6 v=8252
25597 On ch=6 n=66 v=0
25624 On ch=6 n=66 v=109
25672 Pb ch=6 v=8192
25704 Pb ch=6 v=7936
25712 Pb ch=6 v=7680
25716 Pb ch=6 v=7424
25717 On ch=6 n=66 v=0
25718 Pb ch=6 v=6792
25719 Pb ch=6 v=6392
25720 Pb ch=6 v=8192
25960 On ch=6 n=69 v=117
25982 On ch=6 n=69 v=0
25984 On ch=6 n=68 v=110
26008 On ch=6 n=68 v=0
26032 On ch=6 n=69 v=114
26077 On ch=6 n=69 v=0
26080 On ch=6 n=68 v=110
26102 On ch=6 n=68 v=0
26104 Pb ch=6 v=7826
26104 On ch=6 n=71 v=110
26105 Pb ch=6 v=7936
26106 Pb ch=6 v=8148
26107 Pb ch=6 v=8218
26108 Pb ch=6 v=8222
26109 Pb ch=6 v=8204
26110 Pb ch=6 v=8192
26296 Par ch=6 c=11 v=127
26299 Par ch=6 c=11 v=126
26301 Par ch=6 c=11 v=125
26303 Par ch=6 c=11 v=124
26305 Par ch=6 c=11 v=123
26307 Par ch=6 c=11 v=122
26310 Par ch=6 c=11 v=121
26312 Par ch=6 c=11 v=120
26314 Par ch=6 c=11 v=119
26316 Par ch=6 c=11 v=118
26318 Par ch=6 c=11 v=117
26321 Par ch=6 c=11 v=116
26323 Par ch=6 c=11 v=115
26325 Par ch=6 c=11 v=114
26327 Par ch=6 c=11 v=113
26329 Par ch=6 c=11 v=112
26332 Par ch=6 c=11 v=111
26334 Par ch=6 c=11 v=110
26336 Par ch=6 c=11 v=109
26338 Par ch=6 c=11 v=108
26340 Par ch=6 c=11 v=107
26343 Par ch=6 c=11 v=106
26345 Par ch=6 c=11 v=105
26347 Par ch=6 c=11 v=104
26349 Par ch=6 c=11 v=103
26351 Par ch=6 c=11 v=102
26354 Par ch=6 c=11 v=101
26356 Par ch=6 c=11 v=100
26358 Par ch=6 c=11 v=99
26360 Par ch=6 c=11 v=98
26362 Par ch=6 c=11 v=97
26365 Par ch=6 c=11 v=96
26367 Par ch=6 c=11 v=95
26369 Par ch=6 c=11 v=94
26371 Par ch=6 c=11 v=93
26373 Par ch=6 c=11 v=92
26376 Par ch=6 c=11 v=91
26378 Par ch=6 c=11 v=90
26380 Par ch=6 c=11 v=89
26382 Par ch=6 c=11 v=88
26384 Par ch=6 c=11 v=87
26387 Par ch=6 c=11 v=86
26389 Par ch=6 c=11 v=85
26391 Par ch=6 c=11 v=84
26393 Par ch=6 c=11 v=83
26395 Par ch=6 c=11 v=82
26397 Par ch=6 c=11 v=81
26400 Par ch=6 c=11 v=80
26402 Par ch=6 c=11 v=79
26404 Par ch=6 c=11 v=78
26406 Par ch=6 c=11 v=77
26408 Par ch=6 c=11 v=76
26411 Par ch=6 c=11 v=75
26413 Par ch=6 c=11 v=74
26415 Par ch=6 c=11 v=73
26417 Par ch=6 c=11 v=72
26419 Par ch=6 c=11 v=71
26422 Par ch=6 c=11 v=70
26424 Par ch=6 c=11 v=69
26426 Par ch=6 c=11 v=68
26428 Par ch=6 c=11 v=67
26430 Par ch=6 c=11 v=66
26433 Par ch=6 c=11 v=65
26435 Par ch=6 c=11 v=64
26437 Par ch=6 c=11 v=63
26439 Par ch=6 c=11 v=62
26441 Par ch=6 c=11 v=61
26444 Par ch=6 c=11 v=60
26446 Par ch=6 c=11 v=59
26448 Par ch=6 c=11 v=58
26450 Par ch=6 c=11 v=57
26452 Par ch=6 c=11 v=56
26455 Par ch=6 c=11 v=55
26457 Par ch=6 c=11 v=54
26459 Par ch=6 c=11 v=53
26461 Par ch=6 c=11 v=52
26463 Par ch=6 c=11 v=51
26466 Par ch=6 c=11 v=50
26468 Par ch=6 c=11 v=49
26470 Par ch=6 c=11 v=48
26472 Par ch=6 c=11 v=47
26474 Par ch=6 c=11 v=46
26477 Par ch=6 c=11 v=45
26479 Par ch=6 c=11 v=44
26481 Par ch=6 c=11 v=43
26483 Par ch=6 c=11 v=42
26485 Par ch=6 c=11 v=41
26486 On ch=6 n=71 v=0
26487 Par ch=6 c=11 v=40
27448 Par ch=6 c=11 v=80
27448 Par ch=6 c=10 v=0
27640 PrCh ch=6 p=72
27640 On ch=6 n=71 v=111
27662 On ch=6 n=71 v=0
27664 On ch=6 n=69 v=105
27709 On ch=6 n=69 v=0
27712 On ch=6 n=68 v=100
27736 On ch=6 n=68 v=0
27760 On ch=6 n=66 v=90
27782 On ch=6 n=66 v=0
27784 On ch=6 n=66 v=104
27806 On ch=6 n=66 v=0
27808 On ch=6 n=64 v=100
27854 On ch=6 n=64 v=0
27856 On ch=6 n=68 v=105
27878 On ch=6 n=68 v=0
27904 On ch=6 n=68 v=105
27949 On ch=6 n=68 v=0
27952 On ch=6 n=69 v=104
27997 On ch=6 n=69 v=0
28000 On ch=6 n=71 v=106
28024 On ch=6 n=71 v=0
28048 On ch=6 n=67 v=102
28093 On ch=6 n=67 v=0
28096 On ch=6 n=67 v=100
28118 On ch=6 n=67 v=0
28144 On ch=6 n=64 v=97
28189 On ch=6 n=64 v=0
28192 On ch=6 n=67 v=102
28216 On ch=6 n=67 v=0
28240 On ch=6 n=66 v=100
28262 On ch=6 n=66 v=0
28264 On ch=6 n=64 v=96
28312 On ch=6 n=64 v=0
28360 On ch=6 n=62 v=90
28382 On ch=6 n=62 v=0
28384 On ch=6 n=64 v=99
28430 On ch=6 n=64 v=0
28432 On ch=6 n=68 v=107
28600 On ch=6 n=68 v=0
28600 On ch=6 n=66 v=104
28768 On ch=6 n=66 v=0
28792 On ch=6 n=71 v=111
28814 On ch=6 n=71 v=0
28816 On ch=6 n=69 v=105
28861 On ch=6 n=69 v=0
28864 On ch=6 n=68 v=100
28888 On ch=6 n=68 v=0
28912 On ch=6 n=66 v=90
28932 On ch=6 n=66 v=0
28936 On ch=6 n=66 v=104
28960 On ch=6 n=66 v=0
28960 On ch=6 n=64 v=100
29006 On ch=6 n=64 v=0
29008 On ch=6 n=68 v=105
29030 On ch=6 n=68 v=0
29056 On ch=6 n=68 v=105
29101 On ch=6 n=68 v=0
29104 On ch=6 n=69 v=104
29149 On ch=6 n=69 v=0
29152 On ch=6 n=71 v=106
29172 On ch=6 n=71 v=0
29200 On ch=6 n=67 v=102
29222 On ch=6 n=67 v=0
29248 On ch=6 n=67 v=100
29270 On ch=6 n=67 v=0
29296 On ch=6 n=64 v=97
29341 On ch=6 n=64 v=0
29344 On ch=6 n=67 v=102
29368 On ch=6 n=67 v=0
29392 On ch=6 n=66 v=100
29437 On ch=6 n=66 v=0
29440 On ch=6 n=64 v=96
29485 On ch=6 n=64 v=0
29512 On ch=6 n=62 v=90
29534 On ch=6 n=62 v=0
29536 On ch=6 n=64 v=99
29582 On ch=6 n=64 v=0
29584 On ch=6 n=68 v=107
29751 On ch=6 n=68 v=0
29752 On ch=6 n=66 v=104
29942 On ch=6 n=66 v=0
29944 On ch=6 n=67 v=100
30304 On ch=6 n=67 v=0
30328 On ch=6 n=71 v=104
30350 On ch=6 n=71 v=0
30352 On ch=6 n=69 v=103
30397 On ch=6 n=69 v=0
30400 On ch=6 n=68 v=100
30424 On ch=6 n=68 v=0
30448 On ch=6 n=66 v=90
30470 On ch=6 n=66 v=0
30472 On ch=6 n=66 v=104
30494 On ch=6 n=66 v=0
30496 On ch=6 n=64 v=100
30518 On ch=6 n=64 v=0
30544 On ch=6 n=68 v=105
30566 On ch=6 n=68 v=0
30592 On ch=6 n=68 v=105
30637 On ch=6 n=68 v=0
30640 On ch=6 n=68 v=105
30662 On ch=6 n=68 v=0
30664 On ch=6 n=69 v=104
30686 On ch=6 n=69 v=0
30688 On ch=6 n=71 v=106
30734 On ch=6 n=71 v=0
30736 On ch=6 n=71 v=102
30758 On ch=6 n=71 v=0
30760 On ch=6 n=67 v=102
30782 On ch=6 n=67 v=0
30784 On ch=6 n=67 v=100
30829 On ch=6 n=67 v=0
30832 On ch=6 n=64 v=97
30854 On ch=6 n=64 v=0
30880 On ch=6 n=67 v=102
30904 On ch=6 n=67 v=0
30928 On ch=6 n=66 v=100
30950 On ch=6 n=66 v=0
30952 On ch=6 n=64 v=96
31000 On ch=6 n=64 v=0
31048 On ch=6 n=62 v=90
31070 On ch=6 n=62 v=0
31072 On ch=6 n=64 v=99
31118 On ch=6 n=64 v=0
31120 On ch=6 n=68 v=107
31288 On ch=6 n=68 v=0
31288 On ch=6 n=66 v=104
31456 On ch=6 n=66 v=0
31480 On ch=6 n=71 v=106
31502 On ch=6 n=71 v=0
31504 On ch=6 n=69 v=105
31549 On ch=6 n=69 v=0
31552 On ch=6 n=68 v=100
31576 On ch=6 n=68 v=0
31600 On ch=6 n=66 v=90
31620 On ch=6 n=66 v=0
31624 On ch=6 n=66 v=104
31648 On ch=6 n=66 v=0
31648 On ch=6 n=64 v=100
31694 On ch=6 n=64 v=0
31696 On ch=6 n=68 v=105
31718 On ch=6 n=68 v=0
31744 On ch=6 n=68 v=105
31789 On ch=6 n=68 v=0
31792 On ch=6 n=68 v=100
31814 On ch=6 n=68 v=0
31816 On ch=6 n=69 v=104
31838 On ch=6 n=69 v=0
31840 On ch=6 n=71 v=106
31886 On ch=6 n=71 v=0
31888 On ch=6 n=67 v=102
31934 On ch=6 n=67 v=0
31936 On ch=6 n=67 v=100
31982 On ch=6 n=67 v=0
31984 On ch=6 n=64 v=97
32029 On ch=6 n=64 v=0
32032 On ch=6 n=67 v=102
32078 On ch=6 n=67 v=0
32080 On ch=6 n=66 v=100
32125 On ch=6 n=66 v=0
32128 On ch=6 n=64 v=96
32173 On ch=6 n=64 v=0
32176 On ch=6 n=69 v=104
32392 On ch=6 n=69 v=0
32416 Par ch=6 c=10 v=64
32417 Par ch=6 c=11 v=100
32418 PrCh ch=6 p=75
32440 On ch=6 n=59 v=96
32508 On ch=6 n=59 v=0
32512 On ch=6 n=64 v=96
33584 Pb ch=6 v=8320
33588 Pb ch=6 v=8192
33590 Pb ch=6 v=7936
33592 Pb ch=6 v=7592
33594 Pb ch=6 v=7092
33596 Pb ch=6 v=6752
33598 Pb ch=6 v=6792
33599 Pb ch=6 v=6827
33952 On ch=6 n=64 v=0
33976 Pb ch=6 v=8192
33976 Par ch=6 c=11 v=100
33976 PrCh ch=6 p=54
33976 On ch=6 n=64 v=96
34360 On ch=6 n=64 v=0
34360 On ch=6 n=62 v=88
34720 On ch=6 n=62 v=0
34744 On ch=6 n=64 v=96
35128 On ch=6 n=64 v=0
35128 On ch=6 n=62 v=88
35508 On ch=6 n=62 v=0
35512 On ch=6 n=64 v=88
35894 On ch=6 n=64 v=0
35896 On ch=6 n=62 v=88
36278 On ch=6 n=62 v=0
36280 On ch=6 n=64 v=88
36662 On ch=6 n=64 v=0
36664 On ch=6 n=62 v=88
37046 On ch=6 n=62 v=0
37048 On ch=6 n=64 v=88
37430 On ch=6 n=64 v=0
37432 On ch=6 n=62 v=88
37814 On ch=6 n=62 v=0
37816 On ch=6 n=64 v=88
38198 On ch=6 n=64 v=0
38200 On ch=6 n=62 v=88
38582 On ch=6 n=62 v=0
38584 Par ch=6 c=10 v=64
38584 PrCh ch=6 p=75
38608 Par ch=6 c=11 v=106
38632 Pb ch=6 v=8320
38632 On ch=6 n=57 v=87
38677 On ch=6 n=57 v=0
38680 On ch=6 n=59 v=86
38702 On ch=6 n=59 v=0
38704 On ch=6 n=61 v=84
38749 On ch=6 n=61 v=0
38752 Pb ch=6 v=8192
38752 On ch=6 n=64 v=93
38774 On ch=6 n=64 v=0
38776 On ch=6 n=64 v=93
38778 On ch=6 n=64 v=0
38800 On ch=6 n=66 v=95
38822 On ch=6 n=66 v=0
38824 On ch=6 n=64 v=88
38916 On ch=6 n=64 v=0
38992 On ch=6 n=69 v=106
39060 On ch=6 n=69 v=0
39064 On ch=6 n=67 v=102
39109 On ch=6 n=67 v=0
39112 On ch=6 n=66 v=102
39157 On ch=6 n=66 v=0
39160 On ch=6 n=64 v=100
39228 On ch=6 n=64 v=0
39232 On ch=6 n=64 v=96
39262 On ch=6 n=64 v=0
39304 On ch=6 n=64 v=94
39349 On ch=6 n=64 v=0
39352 On ch=6 n=69 v=110
39472 On ch=6 n=69 v=0
39472 On ch=6 n=67 v=99
39517 On ch=6 n=67 v=0
39520 On ch=6 n=65 v=103
39542 On ch=6 n=65 v=0
39544 On ch=6 n=65 v=102
39612 On ch=6 n=65 v=0
39616 On ch=6 n=60 v=102
39661 On ch=6 n=60 v=0
39736 On ch=6 n=60 v=96
39758 On ch=6 n=60 v=0
39760 On ch=6 n=62 v=102
39805 On ch=6 n=62 v=0
39808 On ch=6 n=60 v=99
39853 On ch=6 n=60 v=0
39856 On ch=6 n=65 v=108
39901 On ch=6 n=65 v=0
39904 On ch=6 n=60 v=100
39926 On ch=6 n=60 v=0
39928 On ch=6 n=62 v=102
39950 On ch=6 n=62 v=0
39952 On ch=6 n=60 v=97
40020 On ch=6 n=60 v=0
40024 On ch=6 n=57 v=80
40027 On ch=6 n=57 v=0
40096 On ch=6 n=60 v=80
40100 On ch=6 n=60 v=0
40120 On ch=6 n=60 v=94
40142 On ch=6 n=60 v=0
40144 On ch=6 n=62 v=100
40166 On ch=6 n=62 v=0
40168 On ch=6 n=60 v=93
40213 On ch=6 n=60 v=0
40264 On ch=6 n=65 v=105
40309 On ch=6 n=65 v=0
40312 On ch=6 n=67 v=105
40380 On ch=6 n=67 v=0
40384 On ch=6 n=65 v=100
40406 On ch=6 n=65 v=0
40408 On ch=6 n=60 v=92
40453 On ch=6 n=60 v=0
40456 On ch=6 n=62 v=88
40457 Pb ch=6 v=8320
40459 Pb ch=6 v=8692
40469 Pb ch=6 v=8064
40470 Pb ch=6 v=7936
40471 Pb ch=6 v=7092
40472 Pb ch=6 v=6827
40504 Pb ch=6 v=8192
40504 On ch=6 n=60 v=88
40505 On ch=6 n=62 v=0
40692 On ch=6 n=60 v=0
40696 Pb ch=6 v=8192
40696 On ch=6 n=60 v=88
40700 On ch=6 n=60 v=0
40840 Pb ch=6 v=8064
40840 On ch=6 n=57 v=87
40908 On ch=6 n=57 v=0
40912 Pb ch=6 v=8192
40912 On ch=6 n=59 v=86
40980 On ch=6 n=59 v=0
40984 On ch=6 n=61 v=93
41006 On ch=6 n=61 v=0
41008 On ch=6 n=64 v=95
41077 On ch=6 n=64 v=0
41080 On ch=6 n=66 v=92
41125 On ch=6 n=66 v=0
41176 On ch=6 n=64 v=88
41200 On ch=6 n=64 v=0
41224 On ch=6 n=69 v=106
41272 On ch=6 n=69 v=0
41296 On ch=6 n=67 v=102
41364 On ch=6 n=67 v=0
41368 On ch=6 n=69 v=88
41390 On ch=6 n=69 v=0
41392 On ch=6 n=69 v=88
41461 On ch=6 n=69 v=0
41464 On ch=6 n=67 v=104
41509 On ch=6 n=67 v=0
41584 On ch=6 n=64 v=80
41603 On ch=6 n=64 v=0
41608 On ch=6 n=69 v=110
41676 On ch=6 n=69 v=0
41680 On ch=6 n=67 v=99
41748 On ch=6 n=67 v=0
41752 On ch=6 n=65 v=103
41797 On ch=6 n=65 v=0
41800 On ch=6 n=65 v=102
41868 On ch=6 n=65 v=0
41872 On ch=6 n=60 v=90
41940 On ch=6 n=60 v=0
41944 On ch=6 n=60 v=88
41988 On ch=6 n=60 v=0
41992 On ch=6 n=60 v=96
42037 On ch=6 n=60 v=0
42040 On ch=6 n=62 v=102
42062 On ch=6 n=62 v=0
42064 On ch=6 n=62 v=99
42109 On ch=6 n=62 v=0
42112 On ch=6 n=60 v=106
42134 On ch=6 n=60 v=0
42136 On ch=6 n=60 v=100
42181 On ch=6 n=60 v=0
42184 On ch=6 n=65 v=102
42206 On ch=6 n=65 v=0
42208 On ch=6 n=65 v=102
42276 On ch=6 n=65 v=0
42280 On ch=6 n=67 v=102
42325 On ch=6 n=67 v=0
42376 On ch=6 n=60 v=94
42428 On ch=6 n=60 v=0
42448 On ch=6 n=62 v=100
42470 On ch=6 n=62 v=0
42472 On ch=6 n=60 v=93
42504 On ch=6 n=60 v=0
42532 On ch=6 n=65 v=103
42578 On ch=6 n=65 v=0
42578 On ch=6 n=67 v=116
42640 On ch=6 n=67 v=0
42640 On ch=6 n=65 v=100
42662 On ch=6 n=65 v=0
42664 On ch=6 n=67 v=113
42709 On ch=6 n=67 v=0
42712 On ch=6 n=65 v=106
42757 On ch=6 n=65 v=0
42760 On ch=6 n=69 v=120
42902 On ch=6 n=69 v=0
42904 On ch=6 n=70 v=120
43044 On ch=6 n=70 v=0
43048 On ch=6 n=72 v=127
43103 On ch=6 n=72 v=0
43103 Meta TrkEnd
TrkEnd
MTrk
0 Meta 0x21 00
89 Par ch=7 c=10 v=127
95 Par ch=7 c=1 v=0
101 Par ch=7 c=91 v=127
107 Par ch=7 c=93 v=64
113 PrCh ch=7 p=73
119 Par ch=7 c=100 v=0
119 Par ch=7 c=101 v=0
119 Par ch=7 c=6 v=12
125 Par ch=7 c=98 v=32
125 Par ch=7 c=99 v=1
125 Par ch=7 c=6 v=64
131 Par ch=7 c=98 v=33
131 Par ch=7 c=99 v=1
131 Par ch=7 c=6 v=64
155 Par ch=7 c=7 v=64
161 Par ch=7 c=11 v=64
27648 On ch=7 n=83 v=111
27670 On ch=7 n=83 v=0
27672 On ch=7 n=81 v=105
27717 On ch=7 n=81 v=0
27720 On ch=7 n=80 v=100
27744 On ch=7 n=80 v=0
27768 On ch=7 n=78 v=90
27790 On ch=7 n=78 v=0
27792 On ch=7 n=78 v=104
27814 On ch=7 n=78 v=0
27816 On ch=7 n=76 v=100
27862 On ch=7 n=76 v=0
27864 On ch=7 n=80 v=105
27886 On ch=7 n=80 v=0
27912 On ch=7 n=80 v=105
27957 On ch=7 n=80 v=0
27960 On ch=7 n=81 v=104
28005 On ch=7 n=81 v=0
28008 On ch=7 n=83 v=106
28032 On ch=7 n=83 v=0
28056 On ch=7 n=79 v=102
28101 On ch=7 n=79 v=0
28104 On ch=7 n=79 v=100
28126 On ch=7 n=79 v=0
28152 On ch=7 n=76 v=97
28197 On ch=7 n=76 v=0
28200 On ch=7 n=79 v=102
28224 On ch=7 n=79 v=0
28248 On ch=7 n=78 v=100
28270 On ch=7 n=78 v=0
28272 On ch=7 n=76 v=96
28320 On ch=7 n=76 v=0
28368 On ch=7 n=74 v=90
28390 On ch=7 n=74 v=0
28392 On ch=7 n=76 v=99
28438 On ch=7 n=76 v=0
28440 On ch=7 n=80 v=107
28608 On ch=7 n=80 v=0
28608 On ch=7 n=78 v=104
28776 On ch=7 n=78 v=0
28800 On ch=7 n=83 v=111
28822 On ch=7 n=83 v=0
28824 On ch=7 n=81 v=105
28869 On ch=7 n=81 v=0
28872 On ch=7 n=80 v=100
28896 On ch=7 n=80 v=0
28920 On ch=7 n=78 v=90
28940 On ch=7 n=78 v=0
28944 On ch=7 n=78 v=104
28968 On ch=7 n=78 v=0
28968 On ch=7 n=76 v=100
29014 On ch=7 n=76 v=0
29016 On ch=7 n=80 v=105
29038 On ch=7 n=80 v=0
29064 On ch=7 n=80 v=105
29109 On ch=7 n=80 v=0
29112 On ch=7 n=81 v=104
29157 On ch=7 n=81 v=0
29160 On ch=7 n=83 v=106
29180 On ch=7 n=83 v=0
29208 On ch=7 n=79 v=102
29230 On ch=7 n=79 v=0
29256 On ch=7 n=79 v=100
29278 On ch=7 n=79 v=0
29304 On ch=7 n=76 v=97
29349 On ch=7 n=76 v=0
29352 On ch=7 n=79 v=102
29376 On ch=7 n=79 v=0
29400 On ch=7 n=78 v=100
29445 On ch=7 n=78 v=0
29448 On ch=7 n=76 v=96
29493 On ch=7 n=76 v=0
29520 On ch=7 n=74 v=90
29542 On ch=7 n=74 v=0
29544 On ch=7 n=76 v=99
29590 On ch=7 n=76 v=0
29592 On ch=7 n=80 v=107
29759 On ch=7 n=80 v=0
29760 On ch=7 n=78 v=104
29950 On ch=7 n=78 v=0
29952 On ch=7 n=79 v=100
30312 On ch=7 n=79 v=0
30336 On ch=7 n=83 v=104
30358 On ch=7 n=83 v=0
30360 On ch=7 n=81 v=103
30405 On ch=7 n=81 v=0
30408 On ch=7 n=80 v=100
30432 On ch=7 n=80 v=0
30456 On ch=7 n=78 v=90
30478 On ch=7 n=78 v=0
30480 On ch=7 n=78 v=104
30502 On ch=7 n=78 v=0
30504 On ch=7 n=76 v=100
30526 On ch=7 n=76 v=0
30552 On ch=7 n=80 v=105
30574 On ch=7 n=80 v=0
30600 On ch=7 n=80 v=105
30645 On ch=7 n=80 v=0
30648 On ch=7 n=80 v=105
30670 On ch=7 n=80 v=0
30672 On ch=7 n=81 v=104
30694 On ch=7 n=81 v=0
30696 On ch=7 n=83 v=106
30742 On ch=7 n=83 v=0
30744 On ch=7 n=83 v=102
30766 On ch=7 n=83 v=0
30768 On ch=7 n=79 v=102
30790 On ch=7 n=79 v=0
30792 On ch=7 n=79 v=100
30837 On ch=7 n=79 v=0
30840 On ch=7 n=76 v=97
30862 On ch=7 n=76 v=0
30888 On ch=7 n=79 v=102
30912 On ch=7 n=79 v=0
30936 On ch=7 n=78 v=100
30958 On ch=7 n=78 v=0
30960 On ch=7 n=76 v=96
31008 On ch=7 n=76 v=0
31056 On ch=7 n=74 v=90
31078 On ch=7 n=74 v=0
31080 On ch=7 n=76 v=99
31126 On ch=7 n=76 v=0
31128 On ch=7 n=80 v=107
31296 On ch=7 n=80 v=0
31296 On ch=7 n=78 v=104
31464 On ch=7 n=78 v=0
31488 On ch=7 n=83 v=106
31510 On ch=7 n=83 v=0
31512 On ch=7 n=81 v=105
31557 On ch=7 n=81 v=0
31560 On ch=7 n=80 v=100
31584 On ch=7 n=80 v=0
31608 On ch=7 n=78 v=90
31628 On ch=7 n=78 v=0
31632 On ch=7 n=78 v=104
31656 On ch=7 n=78 v=0
31656 On ch=7 n=76 v=100
31702 On ch=7 n=76 v=0
31704 On ch=7 n=80 v=105
31726 On ch=7 n=80 v=0
31752 On ch=7 n=80 v=105
31797 On ch=7 n=80 v=0
31800 On ch=7 n=80 v=100
31822 On ch=7 n=80 v=0
31824 On ch=7 n=81 v=104
31846 On ch=7 n=81 v=0
31848 On ch=7 n=83 v=106
31894 On ch=7 n=83 v=0
31896 On ch=7 n=79 v=102
31942 On ch=7 n=79 v=0
31944 On ch=7 n=79 v=100
31990 On ch=7 n=79 v=0
31992 On ch=7 n=76 v=97
32037 On ch=7 n=76 v=0
32040 On ch=7 n=79 v=102
32086 On ch=7 n=79 v=0
32088 On ch=7 n=78 v=100
32133 On ch=7 n=78 v=0
32136 On ch=7 n=76 v=96
32181 On ch=7 n=76 v=0
32184 On ch=7 n=81 v=104
32400 On ch=7 n=81 v=0
32448 Par ch=7 c=10 v=0
32640 PrCh ch=7 p=52
33408 Par ch=7 c=11 v=80
33696 On ch=7 n=64 v=80
33982 On ch=7 n=64 v=0
33984 Par ch=7 c=11 v=127
34080 On ch=7 n=66 v=80
34366 On ch=7 n=66 v=0
34464 On ch=7 n=67 v=80
34750 On ch=7 n=67 v=0
34776 On ch=7 n=67 v=120
35134 On ch=7 n=67 v=0
35184 On ch=7 n=65 v=120
35518 On ch=7 n=65 v=0
35568 On ch=7 n=66 v=120
35902 On ch=7 n=66 v=0
35952 On ch=7 n=67 v=120
36286 On ch=7 n=67 v=0
36336 On ch=7 n=67 v=120
36670 On ch=7 n=67 v=0
36720 On ch=7 n=65 v=120
37054 On ch=7 n=65 v=0
37104 On ch=7 n=66 v=120
37438 On ch=7 n=66 v=0
37488 On ch=7 n=67 v=120
37822 On ch=7 n=67 v=0
37872 On ch=7 n=67 v=120
38206 On ch=7 n=67 v=0
38256 On ch=7 n=70 v=120
38590 On ch=7 n=70 v=0
38590 Meta TrkEnd
TrkEnd
MTrk
0 Meta 0x21 00
96 Par ch=8 c=10 v=127
96 Par ch=8 c=1 v=0
104 Par ch=8 c=91 v=64
112 Par ch=8 c=93 v=24
120 PrCh ch=8 p=68
128 Par ch=8 c=100 v=0
128 Par ch=8 c=101 v=0
128 Par ch=8 c=6 v=12
136 Par ch=8 c=98 v=32
136 Par ch=8 c=99 v=1
136 Par ch=8 c=6 v=64
144 Par ch=8 c=98 v=33
144 Par ch=8 c=99 v=1
144 Par ch=8 c=6 v=64
156 Par ch=8 c=7 v=100
164 Par ch=8 c=11 v=64
27648 PrCh ch=8 p=73
27648 On ch=8 n=59 v=111
27670 On ch=8 n=59 v=0
27672 On ch=8 n=57 v=105
27717 On ch=8 n=57 v=0
27720 On ch=8 n=56 v=100
27744 On ch=8 n=56 v=0
27768 On ch=8 n=56 v=90
27790 On ch=8 n=56 v=0
27792 On ch=8 n=57 v=104
27814 On ch=8 n=57 v=0
27816 On ch=8 n=59 v=100
27862 On ch=8 n=59 v=0
27864 On ch=8 n=64 v=105
27886 On ch=8 n=64 v=0
27912 On ch=8 n=64 v=105
27957 On ch=8 n=64 v=0
27960 On ch=8 n=66 v=104
28005 On ch=8 n=66 v=0
28008 On ch=8 n=67 v=106
28032 On ch=8 n=67 v=0
28056 On ch=8 n=64 v=102
28101 On ch=8 n=64 v=0
28104 On ch=8 n=64 v=100
28126 On ch=8 n=64 v=0
28152 On ch=8 n=59 v=97
28197 On ch=8 n=59 v=0
28200 On ch=8 n=62 v=102
28224 On ch=8 n=62 v=0
28248 On ch=8 n=61 v=100
28270 On ch=8 n=61 v=0
28272 On ch=8 n=59 v=96
28320 On ch=8 n=59 v=0
28368 On ch=8 n=57 v=90
28390 On ch=8 n=57 v=0
28392 On ch=8 n=59 v=99
28438 On ch=8 n=59 v=0
28440 On ch=8 n=64 v=107
28608 On ch=8 n=64 v=0
28608 On ch=8 n=64 v=104
28776 On ch=8 n=64 v=0
28800 On ch=8 n=59 v=111
28822 On ch=8 n=59 v=0
28824 On ch=8 n=57 v=105
28869 On ch=8 n=57 v=0
28872 On ch=8 n=56 v=100
28896 On ch=8 n=56 v=0
28920 On ch=8 n=56 v=90
28940 On ch=8 n=56 v=0
28944 On ch=8 n=57 v=104
28968 On ch=8 n=57 v=0
28968 On ch=8 n=59 v=100
29014 On ch=8 n=59 v=0
29016 On ch=8 n=64 v=105
29038 On ch=8 n=64 v=0
29064 On ch=8 n=64 v=105
29109 On ch=8 n=64 v=0
29112 On ch=8 n=66 v=104
29157 On ch=8 n=66 v=0
29160 On ch=8 n=67 v=106
29180 On ch=8 n=67 v=0
29208 On ch=8 n=64 v=102
29230 On ch=8 n=64 v=0
29256 On ch=8 n=64 v=100
29278 On ch=8 n=64 v=0
29304 On ch=8 n=59 v=97
29349 On ch=8 n=59 v=0
29352 On ch=8 n=62 v=102
29376 On ch=8 n=62 v=0
29400 On ch=8 n=61 v=100
29445 On ch=8 n=61 v=0
29448 On ch=8 n=59 v=96
29493 On ch=8 n=59 v=0
29520 On ch=8 n=57 v=90
29542 On ch=8 n=57 v=0
29544 On ch=8 n=59 v=99
29590 On ch=8 n=59 v=0
29592 On ch=8 n=64 v=107
29759 On ch=8 n=64 v=0
29760 On ch=8 n=64 v=104
29930 On ch=8 n=64 v=0
29952 On ch=8 n=64 v=100
30312 On ch=8 n=64 v=0
30336 On ch=8 n=59 v=111
30358 On ch=8 n=59 v=0
30360 On ch=8 n=57 v=105
30405 On ch=8 n=57 v=0
30408 On ch=8 n=56 v=100
30432 On ch=8 n=56 v=0
30456 On ch=8 n=56 v=90
30478 On ch=8 n=56 v=0
30480 On ch=8 n=57 v=104
30502 On ch=8 n=57 v=0
30504 On ch=8 n=59 v=100
30526 On ch=8 n=59 v=0
30552 On ch=8 n=64 v=105
30574 On ch=8 n=64 v=0
30600 On ch=8 n=64 v=105
30645 On ch=8 n=64 v=0
30648 On ch=8 n=64 v=105
30670 On ch=8 n=64 v=0
30672 On ch=8 n=66 v=104
30694 On ch=8 n=66 v=0
30696 On ch=8 n=67 v=106
30742 On ch=8 n=67 v=0
30744 On ch=8 n=67 v=102
30766 On ch=8 n=67 v=0
30768 On ch=8 n=62 v=102
30790 On ch=8 n=62 v=0
30792 On ch=8 n=64 v=100
30837 On ch=8 n=64 v=0
30840 On ch=8 n=59 v=97
30862 On ch=8 n=59 v=0
30888 On ch=8 n=62 v=102
30912 On ch=8 n=62 v=0
30936 On ch=8 n=61 v=100
30958 On ch=8 n=61 v=0
30960 On ch=8 n=59 v=96
31008 On ch=8 n=59 v=0
31056 On ch=8 n=57 v=90
31078 On ch=8 n=57 v=0
31080 On ch=8 n=59 v=99
31126 On ch=8 n=59 v=0
31128 On ch=8 n=64 v=107
31296 On ch=8 n=64 v=0
31296 On ch=8 n=64 v=104
31464 On ch=8 n=64 v=0
31488 On ch=8 n=59 v=106
31510 On ch=8 n=59 v=0
31512 On ch=8 n=57 v=105
31557 On ch=8 n=57 v=0
31560 On ch=8 n=56 v=100
31584 On ch=8 n=56 v=0
31608 On ch=8 n=56 v=90
31628 On ch=8 n=56 v=0
31632 On ch=8 n=57 v=104
31656 On ch=8 n=57 v=0
31656 On ch=8 n=59 v=100
31702 On ch=8 n=59 v=0
31704 On ch=8 n=64 v=105
31726 On ch=8 n=64 v=0
31752 On ch=8 n=64 v=105
31797 On ch=8 n=64 v=0
31800 On ch=8 n=64 v=100
31822 On ch=8 n=64 v=0
31824 On ch=8 n=66 v=104
31846 On ch=8 n=66 v=0
31848 On ch=8 n=67 v=106
31894 On ch=8 n=67 v=0
31896 On ch=8 n=64 v=102
31942 On ch=8 n=64 v=0
31944 On ch=8 n=64 v=100
31990 On ch=8 n=64 v=0
31992 On ch=8 n=59 v=97
32037 On ch=8 n=59 v=0
32040 On ch=8 n=62 v=102
32086 On ch=8 n=62 v=0
32088 On ch=8 n=61 v=100
32133 On ch=8 n=61 v=0
32136 On ch=8 n=59 v=96
32181 On ch=8 n=59 v=0
32184 On ch=8 n=57 v=104
32400 On ch=8 n=57 v=0
35328 PrCh ch=8 p=52
35520 Par ch=8 c=10 v=127
35712 Par ch=8 c=11 v=110
36048 On ch=8 n=72 v=80
36286 On ch=8 n=72 v=0
36432 On ch=8 n=72 v=80
36670 On ch=8 n=72 v=0
36816 On ch=8 n=70 v=80
37054 On ch=8 n=70 v=0
37200 On ch=8 n=71 v=80
37438 On ch=8 n=71 v=0
37584 On ch=8 n=72 v=80
37822 On ch=8 n=72 v=0
37968 On ch=8 n=72 v=80
38206 On ch=8 n=72 v=0
38256 On ch=8 n=74 v=84
38590 On ch=8 n=74 v=0
43740 Par ch=8 c=10 v=116
43776 Par ch=8 c=11 v=55
43812 PrCh ch=8 p=34
44232 On ch=8 n=43 v=99
44265 Pb ch=8 v=8875
44270 Pb ch=8 v=9557
44272 Pb ch=8 v=10240
44274 Pb ch=8 v=10923
44275 Pb ch=8 v=11605
44276 Pb ch=8 v=12288
44277 Pb ch=8 v=12971
44325 On ch=8 n=43 v=0
44328 Pb ch=8 v=8192
44328 On ch=8 n=50 v=100
44373 On ch=8 n=50 v=0
44376 On ch=8 n=50 v=100
44421 On ch=8 n=50 v=0
44448 On ch=8 n=50 v=70
44470 Pb ch=8 v=7509
44472 Pb ch=8 v=6827
44473 Pb ch=8 v=6144
44474 Pb ch=8 v=5461
44493 On ch=8 n=50 v=0
44496 Pb ch=8 v=8192
44496 On ch=8 n=46 v=70
44518 On ch=8 n=46 v=0
44520 On ch=8 n=46 v=80
44568 On ch=8 n=46 v=0
44568 On ch=8 n=46 v=77
44616 On ch=8 n=46 v=0
44616 On ch=8 n=46 v=77
44640 On ch=8 n=46 v=0
44640 On ch=8 n=46 v=75
44662 On ch=8 n=46 v=0
44664 On ch=8 n=46 v=84
44696 Pb ch=8 v=8875
44702 Pb ch=8 v=9557
44707 Pb ch=8 v=10240
44711 Pb ch=8 v=10923
44713 Pb ch=8 v=11605
44714 Pb ch=8 v=12288
44715 Pb ch=8 v=12971
44716 Pb ch=8 v=13653
44718 Pb ch=8 v=14336
44760 On ch=8 n=46 v=0
44760 Pb ch=8 v=8192
44760 On ch=8 n=55 v=94
45046 On ch=8 n=55 v=0
45048 On ch=8 n=50 v=94
45093 On ch=8 n=50 v=0
45096 On ch=8 n=50 v=94
45141 On ch=8 n=50 v=0
45144 On ch=8 n=50 v=97
45166 On ch=8 n=50 v=0
45168 On ch=8 n=50 v=60
45190 On ch=8 n=50 v=0
45192 On ch=8 n=50 v=60
45214 On ch=8 n=50 v=0
45216 On ch=8 n=50 v=66
45240 Pb ch=8 v=7509
45242 Pb ch=8 v=6827
45243 Pb ch=8 v=6144
45244 On ch=8 n=50 v=0
45244 Pb ch=8 v=5461
45244 On ch=8 n=50 v=50
45264 On ch=8 n=50 v=0
45264 Pb ch=8 v=8192
45264 On ch=8 n=46 v=66
45284 On ch=8 n=46 v=0
45288 On ch=8 n=46 v=96
45333 On ch=8 n=46 v=0
45336 On ch=8 n=46 v=94
45381 On ch=8 n=46 v=0
45384 On ch=8 n=46 v=75
45408 On ch=8 n=46 v=0
45408 On ch=8 n=46 v=74
45430 On ch=8 n=46 v=0
45432 On ch=8 n=46 v=85
45454 Pb ch=8 v=7509
45457 Pb ch=8 v=6827
45458 Pb ch=8 v=6144
45480 On ch=8 n=46 v=0
45480 Pb ch=8 v=8192
45480 On ch=8 n=43 v=84
45525 On ch=8 n=43 v=0
45528 On ch=8 n=43 v=80
45596 On ch=8 n=43 v=0
45600 On ch=8 n=43 v=70
45622 On ch=8 n=43 v=0
45624 On ch=8 n=43 v=70
45646 On ch=8 n=43 v=0
45648 On ch=8 n=43 v=70
45670 On ch=8 n=43 v=0
45672 On ch=8 n=43 v=70
45717 On ch=8 n=43 v=0
45720 On ch=8 n=43 v=80
45743 On ch=8 n=43 v=0
45768 On ch=8 n=43 v=70
45790 On ch=8 n=43 v=0
45792 On ch=8 n=43 v=70
45814 On ch=8 n=43 v=0
45816 On ch=8 n=43 v=70
45834 Pb ch=8 v=8877
45838 Pb ch=8 v=9557
45840 Pb ch=8 v=10240
45842 Pb ch=8 v=10923
45843 Pb ch=8 v=11605
45844 Pb ch=8 v=12288
45845 Pb ch=8 v=12971
45864 On ch=8 n=43 v=0
45864 Pb ch=8 v=8192
45864 On ch=8 n=50 v=70
45909 On ch=8 n=50 v=0
45912 On ch=8 n=50 v=70
45936 On ch=8 n=50 v=0
45984 On ch=8 n=50 v=70
46005 Pb ch=8 v=7509
46008 Pb ch=8 v=7509
46009 Pb ch=8 v=6827
46011 Pb ch=8 v=6144
46012 Pb ch=8 v=5461
46032 On ch=8 n=50 v=0
46032 Pb ch=8 v=8192
46032 On ch=8 n=46 v=68
46054 On ch=8 n=46 v=0
46056 On ch=8 n=46 v=88
46101 On ch=8 n=46 v=0
46104 On ch=8 n=46 v=80
46149 On ch=8 n=46 v=0
46152 On ch=8 n=46 v=68
46197 On ch=8 n=46 v=0
46200 On ch=8 n=46 v=84
46221 Pb ch=8 v=7509
46224 Pb ch=8 v=6827
46226 Pb ch=8 v=6144
46248 On ch=8 n=46 v=0
46248 Pb ch=8 v=8192
46248 On ch=8 n=43 v=80
46293 On ch=8 n=43 v=0
46296 On ch=8 n=43 v=84
46364 On ch=8 n=43 v=0
46368 On ch=8 n=43 v=70
46390 On ch=8 n=43 v=0
46392 On ch=8 n=43 v=70
46414 On ch=8 n=43 v=0
46416 On ch=8 n=43 v=70
46438 On ch=8 n=43 v=0
46440 On ch=8 n=43 v=84
46485 On ch=8 n=43 v=0
46488 On ch=8 n=43 v=70
46510 On ch=8 n=43 v=0
46512 On ch=8 n=43 v=68
46534 On ch=8 n=43 v=0
46536 On ch=8 n=43 v=66
46581 On ch=8 n=43 v=0
46584 On ch=8 n=43 v=75
46601 Pb ch=8 v=8877
46605 Pb ch=8 v=9557
46608 Pb ch=8 v=10240
46610 Pb ch=8 v=10923
46611 Pb ch=8 v=11605
46612 Pb ch=8 v=12288
46613 Pb ch=8 v=12971
46632 On ch=8 n=43 v=0
46632 Pb ch=8 v=8192
46632 On ch=8 n=50 v=75
46677 On ch=8 n=50 v=0
46680 On ch=8 n=50 v=73
46748 On ch=8 n=50 v=0
46752 On ch=8 n=50 v=76
46773 Pb ch=8 v=7509
46776 Pb ch=8 v=7509
46777 Pb ch=8 v=6827
46779 Pb ch=8 v=6144
46780 Pb ch=8 v=5461
46800 On ch=8 n=50 v=0
46800 Pb ch=8 v=8192
46800 On ch=8 n=46 v=68
46822 On ch=8 n=46 v=0
46824 On ch=8 n=46 v=88
46869 On ch=8 n=46 v=0
46872 On ch=8 n=46 v=77
46917 On ch=8 n=46 v=0
46920 On ch=8 n=46 v=68
46965 On ch=8 n=46 v=0
46968 On ch=8 n=46 v=86
46989 Pb ch=8 v=7509
46992 Pb ch=8 v=6827
46994 Pb ch=8 v=6144
47016 On ch=8 n=46 v=0
47016 Pb ch=8 v=8192
47016 On ch=8 n=43 v=82
47061 On ch=8 n=43 v=0
47064 On ch=8 n=43 v=83
47132 On ch=8 n=43 v=0
47136 On ch=8 n=43 v=72
47158 On ch=8 n=43 v=0
47160 On ch=8 n=43 v=70
47182 On ch=8 n=43 v=0
47184 On ch=8 n=43 v=70
47206 On ch=8 n=43 v=0
47208 On ch=8 n=43 v=84
47253 On ch=8 n=43 v=0
47256 On ch=8 n=43 v=70
47278 On ch=8 n=43 v=0
47280 On ch=8 n=43 v=77
47325 On ch=8 n=43 v=0
47328 On ch=8 n=43 v=66
47350 On ch=8 n=43 v=0
47352 On ch=8 n=43 v=74
47370 Pb ch=8 v=8877
47374 Pb ch=8 v=9557
47376 Pb ch=8 v=10240
47378 Pb ch=8 v=10923
47379 Pb ch=8 v=11605
47380 Pb ch=8 v=12288
47381 Pb ch=8 v=12971
47400 On ch=8 n=43 v=0
47400 Pb ch=8 v=8192
47400 On ch=8 n=50 v=74
47445 On ch=8 n=50 v=0
47448 On ch=8 n=50 v=55
47472 On ch=8 n=50 v=0
47520 On ch=8 n=50 v=75
47541 Pb ch=8 v=7509
47544 Pb ch=8 v=7509
47545 Pb ch=8 v=6827
47547 Pb ch=8 v=6144
47548 Pb ch=8 v=5461
47568 On ch=8 n=50 v=0
47568 Pb ch=8 v=8192
47568 On ch=8 n=46 v=68
47590 On ch=8 n=46 v=0
47592 On ch=8 n=46 v=88
47637 On ch=8 n=46 v=0
47640 On ch=8 n=46 v=80
47685 On ch=8 n=46 v=0
47688 On ch=8 n=46 v=68
47710 On ch=8 n=46 v=0
47712 On ch=8 n=46 v=54
47734 On ch=8 n=46 v=0
47736 On ch=8 n=46 v=84
47757 Pb ch=8 v=7509
47760 Pb ch=8 v=6827
47762 Pb ch=8 v=6144
47784 On ch=8 n=46 v=0
47784 Pb ch=8 v=8192
47784 On ch=8 n=43 v=80
47829 On ch=8 n=43 v=0
47832 On ch=8 n=43 v=84
47900 On ch=8 n=43 v=0
47904 On ch=8 n=43 v=70
47926 On ch=8 n=43 v=0
47928 On ch=8 n=43 v=70
47950 On ch=8 n=43 v=0
47952 On ch=8 n=43 v=70
47974 On ch=8 n=43 v=0
47976 On ch=8 n=43 v=84
48021 On ch=8 n=43 v=0
48024 On ch=8 n=43 v=70
48046 On ch=8 n=43 v=0
48048 On ch=8 n=43 v=68
48070 On ch=8 n=43 v=0
48072 On ch=8 n=43 v=66
48117 On ch=8 n=43 v=0
48120 On ch=8 n=43 v=74
48140 Pb ch=8 v=8877
48143 Pb ch=8 v=9557
48145 Pb ch=8 v=10240
48147 Pb ch=8 v=10923
48148 Pb ch=8 v=11605
48149 Pb ch=8 v=12288
48150 Pb ch=8 v=12971
48168 On ch=8 n=43 v=0
48168 Pb ch=8 v=8192
48168 On ch=8 n=50 v=70
48213 On ch=8 n=50 v=0
48216 On ch=8 n=50 v=96
48236 On ch=8 n=50 v=0
48288 On ch=8 n=50 v=70
48308 On ch=8 n=50 v=0
48336 On ch=8 n=46 v=68
48358 On ch=8 n=46 v=0
48360 On ch=8 n=46 v=88
48405 On ch=8 n=46 v=0
48408 On ch=8 n=46 v=80
48453 On ch=8 n=46 v=0
48456 On ch=8 n=46 v=50
48501 On ch=8 n=46 v=0
48504 On ch=8 n=46 v=84
48525 Pb ch=8 v=7509
48528 Pb ch=8 v=6827
48530 Pb ch=8 v=6144
48552 On ch=8 n=46 v=0
48552 Pb ch=8 v=8192
48552 On ch=8 n=43 v=80
48597 On ch=8 n=43 v=0
48600 On ch=8 n=43 v=94
48626 On ch=8 n=43 v=0
48672 On ch=8 n=43 v=66
48694 On ch=8 n=43 v=0
48696 On ch=8 n=43 v=70
48718 On ch=8 n=43 v=0
48720 On ch=8 n=43 v=70
48742 On ch=8 n=43 v=0
48744 On ch=8 n=43 v=84
48789 On ch=8 n=43 v=0
48792 On ch=8 n=43 v=70
48837 On ch=8 n=43 v=0
48840 On ch=8 n=43 v=68
48885 On ch=8 n=43 v=0
48888 On ch=8 n=43 v=74
48905 Pb ch=8 v=8877
48909 Pb ch=8 v=9557
48911 Pb ch=8 v=10240
48913 Pb ch=8 v=10923
48914 Pb ch=8 v=11605
48915 Pb ch=8 v=12288
48916 Pb ch=8 v=12971
48936 On ch=8 n=43 v=0
48936 Pb ch=8 v=8192
48936 On ch=8 n=50 v=70
48981 On ch=8 n=50 v=0
48984 On ch=8 n=50 v=90
49032 On ch=8 n=50 v=0
49032 On ch=8 n=50 v=60
49034 On ch=8 n=50 v=0
49056 On ch=8 n=50 v=70
49076 On ch=8 n=50 v=0
49104 On ch=8 n=46 v=68
49126 On ch=8 n=46 v=0
49128 On ch=8 n=46 v=88
49173 On ch=8 n=46 v=0
49176 On ch=8 n=46 v=80
49221 On ch=8 n=46 v=0
49272 On ch=8 n=46 v=84
49293 Pb ch=8 v=7509
49296 Pb ch=8 v=6827
49298 Pb ch=8 v=6144
49320 On ch=8 n=46 v=0
49320 Pb ch=8 v=8192
49320 On ch=8 n=43 v=80
49365 On ch=8 n=43 v=0
49368 On ch=8 n=43 v=94
49436 On ch=8 n=43 v=0
49440 On ch=8 n=43 v=66
49486 On ch=8 n=43 v=0
49488 On ch=8 n=43 v=70
49510 On ch=8 n=43 v=0
49512 On ch=8 n=43 v=84
49557 On ch=8 n=43 v=0
49560 On ch=8 n=43 v=70
49605 On ch=8 n=43 v=0
49608 On ch=8 n=43 v=68
49653 On ch=8 n=43 v=0
49656 On ch=8 n=43 v=74
49671 Pb ch=8 v=8877
49675 Pb ch=8 v=9557
49677 Pb ch=8 v=10240
49679 Pb ch=8 v=10923
49680 Pb ch=8 v=11605
49681 Pb ch=8 v=12288
49682 Pb ch=8 v=12971
49704 On ch=8 n=43 v=0
49704 Pb ch=8 v=8192
49704 On ch=8 n=50 v=70
49749 On ch=8 n=50 v=0
49752 On ch=8 n=50 v=92
49800 On ch=8 n=50 v=0
49824 On ch=8 n=50 v=70
49844 On ch=8 n=50 v=0
49872 On ch=8 n=46 v=68
49894 On ch=8 n=46 v=0
49896 On ch=8 n=46 v=88
49941 On ch=8 n=46 v=0
49944 On ch=8 n=46 v=80
49989 On ch=8 n=46 v=0
49992 On ch=8 n=46 v=50
50037 On ch=8 n=46 v=0
50040 On ch=8 n=46 v=84
50061 Pb ch=8 v=7509
50064 Pb ch=8 v=6827
50066 Pb ch=8 v=6144
50088 On ch=8 n=46 v=0
50088 Pb ch=8 v=8192
50088 On ch=8 n=43 v=80
50133 On ch=8 n=43 v=0
50136 On ch=8 n=43 v=94
50162 On ch=8 n=43 v=0
50208 On ch=8 n=43 v=66
50230 On ch=8 n=43 v=0
50232 On ch=8 n=43 v=70
50254 On ch=8 n=43 v=0
50256 On ch=8 n=43 v=70
50278 On ch=8 n=43 v=0
50280 On ch=8 n=43 v=84
50325 On ch=8 n=43 v=0
50328 On ch=8 n=43 v=70
50373 On ch=8 n=43 v=0
50376 On ch=8 n=43 v=68
50421 On ch=8 n=43 v=0
50424 On ch=8 n=43 v=74
50441 Pb ch=8 v=8877
50445 Pb ch=8 v=9557
50447 Pb ch=8 v=10240
50449 Pb ch=8 v=10923
50450 Pb ch=8 v=11605
50451 Pb ch=8 v=12288
50452 Pb ch=8 v=12971
50472 On ch=8 n=43 v=0
50472 Pb ch=8 v=8192
50472 On ch=8 n=50 v=70
50517 On ch=8 n=50 v=0
50520 On ch=8 n=50 v=91
50540 On ch=8 n=50 v=0
50592 On ch=8 n=50 v=75
50612 On ch=8 n=50 v=0
50640 On ch=8 n=46 v=68
50662 On ch=8 n=46 v=0
50664 On ch=8 n=46 v=88
50709 On ch=8 n=46 v=0
50712 On ch=8 n=46 v=85
50760 On ch=8 n=46 v=0
50808 On ch=8 n=46 v=84
50829 Pb ch=8 v=7509
50832 Pb ch=8 v=6827
50834 Pb ch=8 v=6144
50856 On ch=8 n=46 v=0
50856 Pb ch=8 v=8192
50856 On ch=8 n=43 v=80
50901 On ch=8 n=43 v=0
50904 On ch=8 n=43 v=94
50976 On ch=8 n=43 v=0
51024 On ch=8 n=43 v=65
51046 On ch=8 n=43 v=0
51048 On ch=8 n=43 v=80
51093 On ch=8 n=43 v=0
51096 On ch=8 n=43 v=70
51141 On ch=8 n=43 v=0
51144 On ch=8 n=43 v=50
51189 On ch=8 n=43 v=0
51192 On ch=8 n=43 v=74
51210 Pb ch=8 v=8877
51214 Pb ch=8 v=9557
51216 Pb ch=8 v=10240
51218 Pb ch=8 v=10923
51219 Pb ch=8 v=11605
51220 Pb ch=8 v=12288
51221 Pb ch=8 v=12971
51240 On ch=8 n=43 v=0
51240 Pb ch=8 v=8192
51240 On ch=8 n=50 v=70
51285 On ch=8 n=50 v=0
51288 On ch=8 n=50 v=82
51356 On ch=8 n=50 v=0
51360 On ch=8 n=50 v=80
51380 On ch=8 n=50 v=0
51408 On ch=8 n=46 v=68
51430 On ch=8 n=46 v=0
51432 On ch=8 n=46 v=88
51477 On ch=8 n=46 v=0
51480 On ch=8 n=46 v=77
51502 On ch=8 n=46 v=0
51504 On ch=8 n=46 v=80
51552 On ch=8 n=46 v=0
51552 On ch=8 n=46 v=60
51574 On ch=8 n=46 v=0
51576 On ch=8 n=46 v=84
51597 Pb ch=8 v=7509
51600 Pb ch=8 v=6827
51602 Pb ch=8 v=6144
51624 On ch=8 n=46 v=0
51624 Pb ch=8 v=8192
51624 On ch=8 n=43 v=80
51669 On ch=8 n=43 v=0
51672 On ch=8 n=43 v=85
51740 On ch=8 n=43 v=0
51744 On ch=8 n=43 v=66
51766 On ch=8 n=43 v=0
51792 On ch=8 n=43 v=70
51814 On ch=8 n=43 v=0
51816 On ch=8 n=43 v=84
51861 On ch=8 n=43 v=0
51864 On ch=8 n=43 v=70
51909 On ch=8 n=43 v=0
51912 On ch=8 n=43 v=60
51957 On ch=8 n=43 v=0
51960 On ch=8 n=43 v=74
51976 Pb ch=8 v=8877
51980 Pb ch=8 v=9557
51982 Pb ch=8 v=10240
51984 Pb ch=8 v=10923
51985 Pb ch=8 v=11605
51986 Pb ch=8 v=12288
51987 Pb ch=8 v=12971
52008 On ch=8 n=43 v=0
52008 Pb ch=8 v=8192
52008 On ch=8 n=50 v=70
52053 On ch=8 n=50 v=0
52056 On ch=8 n=50 v=70
52080 On ch=8 n=50 v=0
52080 On ch=8 n=50 v=82
52125 On ch=8 n=50 v=0
52128 On ch=8 n=50 v=80
52148 On ch=8 n=50 v=0
52176 On ch=8 n=46 v=68
52198 On ch=8 n=46 v=0
52200 On ch=8 n=46 v=88
52245 On ch=8 n=46 v=0
52248 On ch=8 n=46 v=77
52270 On ch=8 n=46 v=0
52272 On ch=8 n=46 v=80
52342 On ch=8 n=46 v=0
52344 On ch=8 n=46 v=84
52365 Pb ch=8 v=7509
52368 Pb ch=8 v=6827
52370 Pb ch=8 v=6144
52392 On ch=8 n=46 v=0
52392 Pb ch=8 v=8192
52392 On ch=8 n=43 v=80
52437 On ch=8 n=43 v=0
52440 On ch=8 n=43 v=76
52485 On ch=8 n=43 v=0
52488 On ch=8 n=43 v=75
52510 On ch=8 n=43 v=0
52512 On ch=8 n=43 v=86
52558 On ch=8 n=43 v=0
52560 On ch=8 n=43 v=70
52582 On ch=8 n=43 v=0
52584 On ch=8 n=43 v=84
52629 On ch=8 n=43 v=0
52632 On ch=8 n=43 v=70
52654 On ch=8 n=43 v=0
52656 On ch=8 n=43 v=75
52701 On ch=8 n=43 v=0
52704 On ch=8 n=43 v=60
52726 On ch=8 n=43 v=0
62232 PrCh ch=8 p=39
62328 Par ch=8 c=10 v=100
62616 Par ch=8 c=11 v=110
62712 Pb ch=8 v=7509
62712 On ch=8 n=50 v=110
62716 Pb ch=8 v=8192
62734 On ch=8 n=50 v=0
62736 On ch=8 n=50 v=100
62758 On ch=8 n=50 v=0
62760 On ch=8 n=50 v=96
62782 On ch=8 n=50 v=0
62784 On ch=8 n=50 v=104
62829 On ch=8 n=50 v=0
62832 On ch=8 n=50 v=100
62854 On ch=8 n=50 v=0
62856 On ch=8 n=50 v=100
62901 On ch=8 n=50 v=0
62904 On ch=8 n=51 v=100
62926 On ch=8 n=51 v=0
62928 On ch=8 n=51 v=90
62950 On ch=8 n=51 v=0
62952 On ch=8 n=51 v=88
62974 On ch=8 n=51 v=0
62976 On ch=8 n=51 v=80
63021 On ch=8 n=51 v=0
63024 On ch=8 n=51 v=80
63046 On ch=8 n=51 v=0
63048 On ch=8 n=51 v=80
63093 On ch=8 n=51 v=0
63096 On ch=8 n=55 v=110
63118 On ch=8 n=55 v=0
63120 On ch=8 n=55 v=95
63142 On ch=8 n=55 v=0
63144 On ch=8 n=55 v=108
63189 On ch=8 n=55 v=0
63192 On ch=8 n=55 v=105
63237 On ch=8 n=55 v=0
63240 On ch=8 n=55 v=100
63262 On ch=8 n=55 v=0
63264 On ch=8 n=55 v=109
63310 On ch=8 n=55 v=0
63312 On ch=8 n=55 v=99
63334 On ch=8 n=55 v=0
63336 On ch=8 n=55 v=107
63381 On ch=8 n=55 v=0
63384 On ch=8 n=55 v=100
63406 On ch=8 n=55 v=0
63408 On ch=8 n=55 v=98
63430 On ch=8 n=55 v=0
63432 On ch=8 n=55 v=114
63477 On ch=8 n=55 v=0
63480 On ch=8 n=55 v=114
63502 On ch=8 n=55 v=0
63504 On ch=8 n=55 v=105
63526 On ch=8 n=55 v=0
63528 On ch=8 n=55 v=104
63550 On ch=8 n=55 v=0
63552 On ch=8 n=55 v=104
63574 On ch=8 n=55 v=0
63576 On ch=8 n=55 v=114
63621 On ch=8 n=55 v=0
63624 On ch=8 n=55 v=110
63646 On ch=8 n=55 v=0
63648 On ch=8 n=55 v=111
63670 On ch=8 n=55 v=0
63696 On ch=8 n=58 v=110
63718 On ch=8 n=58 v=0
63720 On ch=8 n=58 v=120
63765 On ch=8 n=58 v=0
63768 On ch=8 n=58 v=105
63790 On ch=8 n=58 v=0
63792 On ch=8 n=58 v=101
63814 On ch=8 n=58 v=0
63816 On ch=8 n=58 v=110
63861 On ch=8 n=58 v=0
64226 Par ch=8 c=10 v=127
64228 Par ch=8 c=7 v=127
64231 Par ch=8 c=11 v=110
64235 Par ch=8 c=91 v=127
64245 PrCh ch=8 p=29
64248 On ch=8 n=70 v=84
64257 Pb ch=8 v=8320
64258 Pb ch=8 v=8448
64261 Pb ch=8 v=8576
64264 Pb ch=8 v=8704
64270 Pb ch=8 v=8832
64294 On ch=8 n=70 v=0
64296 Pb ch=8 v=8192
64296 On ch=8 n=74 v=84
64340 On ch=8 n=74 v=0
64344 Pb ch=8 v=8192
64344 On ch=8 n=69 v=84
64344 Pb ch=8 v=8192
64347 Pb ch=8 v=8320
64350 Pb ch=8 v=8576
64351 Pb ch=8 v=8704
64352 Pb ch=8 v=8960
64353 Pb ch=8 v=9344
64354 Pb ch=8 v=9472
64355 Pb ch=8 v=9562
64361 Pb ch=8 v=9600
64367 Pb ch=8 v=9344
64368 Pb ch=8 v=9216
64369 Pb ch=8 v=9088
64370 Pb ch=8 v=8960
64371 Pb ch=8 v=8704
64372 Pb ch=8 v=8576
64373 Pb ch=8 v=8448
64381 Pb ch=8 v=8320
64389 On ch=8 n=69 v=0
64390 Pb ch=8 v=8192
64393 On ch=8 n=67 v=80
64415 On ch=8 n=67 v=0
64417 On ch=8 n=69 v=82
64438 On ch=8 n=69 v=0
64443 On ch=8 n=65 v=80
64459 Pb ch=8 v=9557
64475 Pb ch=8 v=8192
64491 On ch=8 n=65 v=0
64491 On ch=8 n=63 v=80
64633 On ch=8 n=63 v=0
64633 Par ch=8 c=93 v=16
65017 On ch=8 n=50 v=106
65113 On ch=8 n=50 v=0
65135 On ch=8 n=55 v=103
65158 On ch=8 n=55 v=0
65161 On ch=8 n=57 v=112
65179 On ch=8 n=57 v=0
65185 On ch=8 n=55 v=106
65205 On ch=8 n=55 v=0
65209 Pb ch=8 v=8704
65209 On ch=8 n=57 v=106
65211 Pb ch=8 v=8832
65212 Pb ch=8 v=8912
65229 Pb ch=8 v=8704
65230 Pb ch=8 v=8448
65232 Pb ch=8 v=8320
65237 Pb ch=8 v=8192
65255 On ch=8 n=57 v=0
65257 On ch=8 n=58 v=100
65279 On ch=8 n=58 v=0
65281 Pb ch=8 v=8704
65281 On ch=8 n=62 v=106
65283 Pb ch=8 v=8832
65284 Pb ch=8 v=8912
65301 Pb ch=8 v=8704
65302 Pb ch=8 v=8448
65304 Pb ch=8 v=8320
65309 Pb ch=8 v=8192
65327 On ch=8 n=62 v=0
65329 On ch=8 n=63 v=106
65339 Pb ch=8 v=10923
65349 On ch=8 n=63 v=0
65367 Pb ch=8 v=8192
65367 On ch=8 n=70 v=106
65389 Pb ch=8 v=8875
65393 Pb ch=8 v=9557
65401 Pb ch=8 v=9557
65415 On ch=8 n=70 v=0
65415 Pb ch=8 v=8192
65415 On ch=8 n=67 v=82
65436 On ch=8 n=67 v=0
65438 Pb ch=8 v=8192
65438 On ch=8 n=72 v=100
65450 Pb ch=8 v=8576
65451 Pb ch=8 v=8704
65453 Pb ch=8 v=8832
65454 Pb ch=8 v=8960
65455 Pb ch=8 v=9216
65456 Pb ch=8 v=9600
65460 Pb ch=8 v=9672
65485 Pb ch=8 v=9600
65487 Pb ch=8 v=9216
65489 On ch=8 n=72 v=0
65489 Pb ch=8 v=8192
65489 On ch=8 n=72 v=96
65505 On ch=8 n=72 v=0
65509 On ch=8 n=74 v=96
65521 Pb ch=8 v=8576
65522 Pb ch=8 v=8704
65524 Pb ch=8 v=8832
65525 Pb ch=8 v=8960
65526 Pb ch=8 v=9216
65527 Pb ch=8 v=9600
65531 Pb ch=8 v=9672
65556 On ch=8 n=74 v=0
65556 Pb ch=8 v=8192
65556 On ch=8 n=74 v=96
65572 On ch=8 n=74 v=0
65578 Pb ch=8 v=8192
65578 On ch=8 n=76 v=96
65592 Pb ch=8 v=8576
65593 Pb ch=8 v=8704
65594 Pb ch=8 v=8960
65595 Pb ch=8 v=9600
65596 Pb ch=8 v=9728
65597 Pb ch=8 v=9856
65600 Pb ch=8 v=9984
65601 Pb ch=8 v=10112
65605 Pb ch=8 v=10240
65638 On ch=8 n=76 v=0
65641 Pb ch=8 v=8192
65641 On ch=8 n=76 v=97
65652 Pb ch=8 v=10240
65663 Pb ch=8 v=8192
65675 On ch=8 n=76 v=0
65677 On ch=8 n=74 v=80
65687 On ch=8 n=74 v=0
65689 On ch=8 n=76 v=95
65712 On ch=8 n=76 v=0
65714 On ch=8 n=74 v=95
65736 Pb ch=8 v=7509
65740 Pb ch=8 v=6827
65759 On ch=8 n=74 v=0
65761 Pb ch=8 v=8192
65761 On ch=8 n=74 v=95
65783 On ch=8 n=74 v=0
66553 On ch=8 n=58 v=101
66563 Pb ch=8 v=8192
66573 Pb ch=8 v=8448
66583 Pb ch=8 v=8576
66585 Pb ch=8 v=8704
66588 Pb ch=8 v=8832
66590 Pb ch=8 v=8960
66594 Pb ch=8 v=9088
66597 Pb ch=8 v=8960
66599 Pb ch=8 v=8832
66600 On ch=8 n=58 v=0
66603 Pb ch=8 v=8192
66603 On ch=8 n=55 v=98
66625 On ch=8 n=55 v=0
66626 On ch=8 n=58 v=100
66654 Pb ch=8 v=8320
66661 Pb ch=8 v=8448
66663 Pb ch=8 v=8576
66667 Pb ch=8 v=8704
66671 On ch=8 n=58 v=0
66672 Pb ch=8 v=8832
66673 Pb ch=8 v=8192
66673 On ch=8 n=55 v=99
66693 On ch=8 n=55 v=0
66695 On ch=8 n=58 v=102
66728 Pb ch=8 v=8320
66733 Pb ch=8 v=8448
66737 Pb ch=8 v=8576
66740 Pb ch=8 v=8704
66741 Pb ch=8 v=8832
66742 On ch=8 n=58 v=0
66745 Pb ch=8 v=8192
66745 On ch=8 n=55 v=99
66766 On ch=8 n=55 v=0
66768 On ch=8 n=58 v=102
66798 Pb ch=8 v=8320
66805 Pb ch=8 v=8448
66809 Pb ch=8 v=8576
66812 Pb ch=8 v=8704
66814 On ch=8 n=58 v=0
66815 Pb ch=8 v=8832
66817 Pb ch=8 v=8192
66817 On ch=8 n=55 v=95
66837 On ch=8 n=55 v=0
66840 On ch=8 n=58 v=105
66857 On ch=8 n=58 v=0
66866 On ch=8 n=58 v=102
66881 On ch=8 n=58 v=0
66890 On ch=8 n=58 v=105
66902 Pb ch=8 v=8448
66905 Pb ch=8 v=8576
66906 Pb ch=8 v=8704
66911 Pb ch=8 v=8832
66915 On ch=8 n=58 v=0
66916 Pb ch=8 v=8192
66917 On ch=8 n=55 v=95
66936 On ch=8 n=55 v=0
66937 On ch=8 n=58 v=102
66955 On ch=8 n=58 v=0
66961 On ch=8 n=58 v=100
66979 On ch=8 n=58 v=0
66985 On ch=8 n=58 v=104
66994 Pb ch=8 v=8320
66998 Pb ch=8 v=8448
67002 Pb ch=8 v=8576
67007 On ch=8 n=58 v=0
67007 Pb ch=8 v=8704
67009 Pb ch=8 v=8192
67010 On ch=8 n=55 v=98
67030 On ch=8 n=55 v=0
67032 Pb ch=8 v=8192
67032 On ch=8 n=58 v=104
67052 Pb ch=8 v=8320
67056 Pb ch=8 v=8448
67058 Pb ch=8 v=8576
67059 Pb ch=8 v=8704
67061 Pb ch=8 v=8792
67063 Pb ch=8 v=8875
67067 Pb ch=8 v=8982
67070 Pb ch=8 v=8892
67073 Pb ch=8 v=8704
67076 Pb ch=8 v=8448
67078 Pb ch=8 v=8320
67079 On ch=8 n=58 v=0
67080 Pb ch=8 v=8192
67081 On ch=8 n=55 v=100
67103 On ch=8 n=55 v=0
67105 On ch=8 n=63 v=108
67129 Pb ch=8 v=8875
67151 On ch=8 n=63 v=0
67152 Pb ch=8 v=8192
67153 On ch=8 n=60 v=88
67175 On ch=8 n=60 v=0
67177 On ch=8 n=63 v=88
67201 Pb ch=8 v=8875
67222 On ch=8 n=63 v=0
67224 Pb ch=8 v=8192
67227 On ch=8 n=67 v=88
67247 Pb ch=8 v=8875
67251 Pb ch=8 v=9557
67272 On ch=8 n=67 v=0
67273 Pb ch=8 v=8192
67274 On ch=8 n=72 v=88
67296 On ch=8 n=72 v=0
67298 On ch=8 n=69 v=88
67318 On ch=8 n=69 v=0
68089 On ch=8 n=82 v=100
68102 Pb ch=8 v=8320
68106 Pb ch=8 v=8448
68115 Pb ch=8 v=8576
68131 On ch=8 n=82 v=0
68133 Pb ch=8 v=8192
68134 On ch=8 n=82 v=110
68140 Pb ch=8 v=8448
68146 Pb ch=8 v=8576
68147 Pb ch=8 v=8704
68151 Pb ch=8 v=8832
68165 Pb ch=8 v=8960
68176 Pb ch=8 v=8832
68177 Pb ch=8 v=8704
68178 Pb ch=8 v=8576
68179 Pb ch=8 v=8576
68180 On ch=8 n=82 v=0
68180 Pb ch=8 v=8448
68182 Pb ch=8 v=8192
68184 On ch=8 n=81 v=106
68199 Pb ch=8 v=6827
68215 Pb ch=8 v=5461
68230 On ch=8 n=81 v=0
68230 Pb ch=8 v=8192
68232 On ch=8 n=79 v=106
68254 On ch=8 n=79 v=0
68256 On ch=8 n=77 v=102
68265 Pb ch=8 v=8320
68274 Pb ch=8 v=8448
68278 Pb ch=8 v=8576
68279 Pb ch=8 v=8704
68281 Pb ch=8 v=8832
68295 Pb ch=8 v=8960
68298 Pb ch=8 v=8832
68302 On ch=8 n=77 v=0
68303 Pb ch=8 v=8192
68304 On ch=8 n=79 v=102
68322 On ch=8 n=79 v=0
68328 On ch=8 n=74 v=60
68328 On ch=8 n=79 v=68
68329 On ch=8 n=79 v=0
68339 On ch=8 n=79 v=64
68340 On ch=8 n=79 v=0
68346 On ch=8 n=74 v=0
68352 On ch=8 n=79 v=66
68353 On ch=8 n=79 v=0
68364 On ch=8 n=79 v=63
68365 On ch=8 n=79 v=0
68376 On ch=8 n=74 v=50
68376 On ch=8 n=77 v=102
68378 Pb ch=8 v=8875
68390 Pb ch=8 v=9557
68402 On ch=8 n=74 v=0
68402 On ch=8 n=77 v=0
68423 Pb ch=8 v=8192
68425 On ch=8 n=74 v=50
68425 On ch=8 n=77 v=103
68427 Pb ch=8 v=8875
68440 Pb ch=8 v=9557
68449 On ch=8 n=74 v=0
68449 On ch=8 n=77 v=0
68456 Pb ch=8 v=8192
68472 On ch=8 n=70 v=50
68472 On ch=8 n=75 v=103
68477 Pb ch=8 v=8448
68481 Pb ch=8 v=8576
68484 Pb ch=8 v=8704
68486 Pb ch=8 v=8832
68487 Pb ch=8 v=8960
68494 On ch=8 n=70 v=0
68494 On ch=8 n=75 v=0
68494 Pb ch=8 v=8832
68495 Pb ch=8 v=8192
68496 On ch=8 n=70 v=50
68496 On ch=8 n=75 v=100
68497 Pb ch=8 v=8320
68500 Pb ch=8 v=8448
68502 Pb ch=8 v=8576
68503 Pb ch=8 v=8704
68504 Pb ch=8 v=8832
68512 Pb ch=8 v=8960
68518 On ch=8 n=70 v=0
68518 On ch=8 n=75 v=0
68519 Pb ch=8 v=8448
68520 On ch=8 n=70 v=50
68520 On ch=8 n=75 v=101
68521 Pb ch=8 v=8576
68522 Pb ch=8 v=8704
68531 Pb ch=8 v=8832
68533 Pb ch=8 v=8960
68542 On ch=8 n=70 v=0
68542 On ch=8 n=75 v=0
68543 Pb ch=8 v=8192
68544 On ch=8 n=70 v=50
68544 On ch=8 n=75 v=102
68546 Pb ch=8 v=8448
68548 Pb ch=8 v=8576
68550 Pb ch=8 v=8704
68554 Pb ch=8 v=8832
68566 On ch=8 n=70 v=0
68566 On ch=8 n=75 v=0
68567 Pb ch=8 v=8448
68568 On ch=8 n=70 v=50
68568 On ch=8 n=75 v=103
68573 Pb ch=8 v=8576
68579 Pb ch=8 v=8704
68587 Pb ch=8 v=8832
68592 Pb ch=8 v=8875
68613 On ch=8 n=70 v=0
68613 On ch=8 n=75 v=0
68615 Pb ch=8 v=8192
68616 On ch=8 n=73 v=103
68619 On ch=8 n=73 v=0
68640 On ch=8 n=65 v=103
68660 Pb ch=8 v=8875
68668 Pb ch=8 v=9557
68686 On ch=8 n=65 v=0
68687 Pb ch=8 v=8192
68688 On ch=8 n=76 v=90
68710 On ch=8 n=76 v=0
68712 On ch=8 n=65 v=95
68734 On ch=8 n=65 v=0
68736 On ch=8 n=74 v=88
68758 On ch=8 n=74 v=0
68760 On ch=8 n=64 v=90
68760 On ch=8 n=72 v=80
68782 On ch=8 n=72 v=0
68784 On ch=8 n=72 v=60
68800 On ch=8 n=64 v=0
68806 On ch=8 n=72 v=0
68808 On ch=8 n=72 v=40
68830 On ch=8 n=72 v=0
69432 Par ch=8 c=7 v=127
69452 Par ch=8 c=7 v=126
69468 Par ch=8 c=7 v=125
69484 Par ch=8 c=7 v=124
69500 Par ch=8 c=7 v=123
69520 Par ch=8 c=7 v=122
69536 Par ch=8 c=7 v=121
69552 Par ch=8 c=7 v=120
69568 Par ch=8 c=7 v=119
69588 Par ch=8 c=7 v=118
69604 Par ch=8 c=7 v=117
69620 Par ch=8 c=7 v=116
69624 On ch=8 n=46 v=105
69636 Par ch=8 c=7 v=115
69640 Pb ch=8 v=8320
69641 Pb ch=8 v=8448
69645 Pb ch=8 v=8704
69648 Pb ch=8 v=8832
69656 Par ch=8 c=7 v=114
69669 On ch=8 n=46 v=0
69671 Pb ch=8 v=8192
69672 On ch=8 n=50 v=102
69672 Par ch=8 c=7 v=113
69688 Par ch=8 c=7 v=112
69696 On ch=8 n=50 v=0
69696 On ch=8 n=47 v=100
69704 Par ch=8 c=7 v=111
69718 On ch=8 n=47 v=0
69720 On ch=8 n=45 v=99
69720 Par ch=8 c=7 v=110
69740 Par ch=8 c=7 v=109
69742 On ch=8 n=45 v=0
69744 On ch=8 n=43 v=102
69756 Par ch=8 c=7 v=108
69766 On ch=8 n=43 v=0
69768 On ch=8 n=45 v=99
69772 Par ch=8 c=7 v=107
69788 Par ch=8 c=7 v=106
69790 On ch=8 n=45 v=0
69792 On ch=8 n=46 v=95
69808 Par ch=8 c=7 v=105
69814 On ch=8 n=46 v=0
69824 Par ch=8 c=7 v=104
69840 Par ch=8 c=7 v=103
69856 Par ch=8 c=7 v=102
69876 Par ch=8 c=7 v=101
69892 Par ch=8 c=7 v=100
69908 Par ch=8 c=7 v=99
69912 On ch=8 n=50 v=100
69924 Par ch=8 c=7 v=98
69931 Pb ch=8 v=8320
69933 Pb ch=8 v=8448
69935 Pb ch=8 v=8576
69936 Pb ch=8 v=8704
69937 Pb ch=8 v=8832
69940 Par ch=8 c=7 v=97
69957 On ch=8 n=50 v=0
69959 Pb ch=8 v=8192
69960 On ch=8 n=55 v=99
69960 Par ch=8 c=7 v=96
69976 Par ch=8 c=7 v=95
69982 On ch=8 n=55 v=0
69992 Par ch=8 c=7 v=94
70008 Par ch=8 c=7 v=93
70028 Par ch=8 c=7 v=92
70044 Par ch=8 c=7 v=91
70056 On ch=8 n=55 v=107
70060 Par ch=8 c=7 v=90
70074 Pb ch=8 v=8875
70076 Par ch=8 c=7 v=89
70078 Pb ch=8 v=9557
70096 Par ch=8 c=7 v=88
70102 On ch=8 n=55 v=0
70102 Pb ch=8 v=8192
70104 On ch=8 n=55 v=104
70112 Par ch=8 c=7 v=87
70116 On ch=8 n=55 v=0
70128 Par ch=8 c=7 v=86
70144 Par ch=8 c=7 v=85
70164 Par ch=8 c=7 v=84
70180 Par ch=8 c=7 v=83
70196 Par ch=8 c=7 v=82
70212 Par ch=8 c=7 v=81
70228 Par ch=8 c=7 v=80
70248 Par ch=8 c=7 v=79
70264 Par ch=8 c=7 v=78
70280 Par ch=8 c=7 v=77
70296 Par ch=8 c=7 v=76
70316 Par ch=8 c=7 v=75
70332 Par ch=8 c=7 v=74
70348 Par ch=8 c=7 v=73
70364 Par ch=8 c=7 v=72
70368 On ch=8 n=57 v=84
70384 Par ch=8 c=7 v=71
70390 On ch=8 n=57 v=0
70392 Pb ch=8 v=8576
70395 On ch=8 n=62 v=102
70400 Par ch=8 c=7 v=70
70403 Pb ch=8 v=8960
70406 Pb ch=8 v=9088
70408 Pb ch=8 v=9216
70412 Pb ch=8 v=9344
70416 Par ch=8 c=7 v=69
70432 Par ch=8 c=7 v=68
70442 Pb ch=8 v=9216
70445 Pb ch=8 v=9088
70446 Pb ch=8 v=8960
70447 Pb ch=8 v=8832
70448 Pb ch=8 v=8704
70448 Par ch=8 c=7 v=67
70449 Pb ch=8 v=8576
70450 Pb ch=8 v=8448
70452 Pb ch=8 v=8320
70453 Pb ch=8 v=8192
70468 Par ch=8 c=7 v=66
70484 Par ch=8 c=7 v=65
70485 On ch=8 n=62 v=0
70488 On ch=8 n=55 v=94
70500 Par ch=8 c=7 v=64
70516 Par ch=8 c=7 v=63
70533 On ch=8 n=55 v=0
70536 Par ch=8 c=7 v=62
70552 Par ch=8 c=7 v=61
70568 Par ch=8 c=7 v=60
70584 Par ch=8 c=7 v=59
70604 Par ch=8 c=7 v=58
70620 Par ch=8 c=7 v=57
70632 On ch=8 n=58 v=70
70636 Par ch=8 c=7 v=56
70652 Par ch=8 c=7 v=55
70654 On ch=8 n=58 v=0
70656 On ch=8 n=51 v=89
70668 Par ch=8 c=7 v=54
70688 Par ch=8 c=7 v=53
70704 Par ch=8 c=7 v=52
70706 On ch=8 n=51 v=0
70708 On ch=8 n=58 v=93
70720 Par ch=8 c=7 v=51
70736 Par ch=8 c=7 v=50
70753 On ch=8 n=58 v=0
70756 On ch=8 n=51 v=86
70756 Par ch=8 c=7 v=49
70772 Par ch=8 c=7 v=48
70774 On ch=8 n=51 v=0
70776 On ch=8 n=58 v=91
70788 Par ch=8 c=7 v=47
70795 On ch=8 n=58 v=0
70804 Pb ch=8 v=8352
70804 Par ch=8 c=7 v=46
70805 On ch=8 n=56 v=82
70822 On ch=8 n=56 v=0
70824 Par ch=8 c=7 v=45
70825 Pb ch=8 v=8192
70826 On ch=8 n=58 v=90
70840 Par ch=8 c=7 v=44
70844 Pb ch=8 v=6827
70855 Pb ch=8 v=8192
70856 Par ch=8 c=7 v=43
70863 Pb ch=8 v=6827
70872 Par ch=8 c=7 v=42
70873 Pb ch=8 v=8192
70874 On ch=8 n=58 v=0
70874 On ch=8 n=55 v=82
70892 Par ch=8 c=7 v=41
70908 Par ch=8 c=7 v=40
70924 Par ch=8 c=7 v=39
70940 Par ch=8 c=7 v=38
70943 On ch=8 n=55 v=0
70945 Pb ch=8 v=8032
70946 On ch=8 n=53 v=72
70956 Par ch=8 c=7 v=37
70976 Par ch=8 c=7 v=36
70990 On ch=8 n=53 v=0
70991 Pb ch=8 v=8192
70992 On ch=8 n=55 v=95
70992 Par ch=8 c=7 v=35
71008 Par ch=8 c=7 v=34
71014 On ch=8 n=55 v=0
71016 On ch=8 n=53 v=85
71024 Par ch=8 c=7 v=33
71038 On ch=8 n=53 v=0
71040 On ch=8 n=52 v=86
71044 Par ch=8 c=7 v=32
71060 Par ch=8 c=7 v=31
71062 On ch=8 n=52 v=0
71064 On ch=8 n=53 v=76
71076 Par ch=8 c=7 v=30
71086 On ch=8 n=53 v=0
71088 On ch=8 n=52 v=85
71092 Par ch=8 c=7 v=29
71110 On ch=8 n=52 v=0
71112 On ch=8 n=50 v=85
71112 Par ch=8 c=7 v=28
71128 Par ch=8 c=7 v=27
71134 On ch=8 n=50 v=0
71136 On ch=8 n=48 v=74
71144 Par ch=8 c=7 v=26
71158 On ch=8 n=48 v=0
71160 Par ch=8 c=7 v=25
71160 On ch=8 n=67 v=50
71182 On ch=8 n=67 v=0
71184 On ch=8 n=71 v=55
71206 On ch=8 n=71 v=0
71208 On ch=8 n=71 v=55
71230 On ch=8 n=71 v=0
71232 On ch=8 n=62 v=40
71254 On ch=8 n=62 v=0
71254 Meta TrkEnd
TrkEnd
MTrk
0 Meta 0x21 00
112 Par ch=9 c=10 v=127
112 Par ch=9 c=1 v=0
118 Par ch=9 c=91 v=127
124 Par ch=9 c=93 v=127
130 PrCh ch=9 p=52
136 Par ch=9 c=100 v=0
136 Par ch=9 c=101 v=0
136 Par ch=9 c=6 v=12
154 Par ch=9 c=98 v=32
154 Par ch=9 c=99 v=1
154 Par ch=9 c=6 v=64
160 Par ch=9 c=98 v=33
160 Par ch=9 c=99 v=1
160 Par ch=9 c=6 v=64
178 Par ch=9 c=7 v=100
178 Par ch=9 c=11 v=96
178 Meta TrkEnd
TrkEnd
MTrk
0 Meta 0x21 00
100 Par ch=10 c=7 v=127
100 Par ch=10 c=93 v=32
106 Par ch=10 c=91 v=72
112 PrCh ch=10 p=0
130 Par ch=10 c=1 v=0
136 Par ch=10 c=11 v=120
192 On ch=10 n=36 v=50
192 On ch=10 n=51 v=78
192 On ch=10 n=44 v=92
192 On ch=10 n=54 v=92
192 On ch=10 n=49 v=92
193 On ch=10 n=36 v=0
193 On ch=10 n=51 v=0
193 On ch=10 n=44 v=0
193 On ch=10 n=54 v=0
193 On ch=10 n=49 v=0
288 On ch=10 n=36 v=50
288 On ch=10 n=51 v=78
288 On ch=10 n=44 v=92
288 On ch=10 n=54 v=92
288 On ch=10 n=49 v=92
289 On ch=10 n=36 v=0
289 On ch=10 n=51 v=0
289 On ch=10 n=44 v=0
289 On ch=10 n=54 v=0
289 On ch=10 n=49 v=0
384 On ch=10 n=51 v=50
384 On ch=10 n=54 v=64
384 On ch=10 n=44 v=78
385 On ch=10 n=51 v=0
385 On ch=10 n=54 v=0
385 On ch=10 n=44 v=0
480 On ch=10 n=51 v=50
480 On ch=10 n=54 v=64
480 On ch=10 n=44 v=78
481 On ch=10 n=51 v=0
481 On ch=10 n=54 v=0
481 On ch=10 n=44 v=0
576 On ch=10 n=51 v=50
576 On ch=10 n=54 v=64
576 On ch=10 n=44 v=78
577 On ch=10 n=51 v=0
577 On ch=10 n=54 v=0
577 On ch=10 n=44 v=0
672 On ch=10 n=51 v=50
672 On ch=10 n=54 v=64
672 On ch=10 n=44 v=78
673 On ch=10 n=51 v=0
673 On ch=10 n=54 v=0
673 On ch=10 n=44 v=0
768 On ch=10 n=51 v=64
768 On ch=10 n=54 v=64
768 On ch=10 n=44 v=78
769 On ch=10 n=51 v=0
769 On ch=10 n=54 v=0
769 On ch=10 n=44 v=0
872 On ch=10 n=51 v=64
872 On ch=10 n=54 v=50
873 On ch=10 n=51 v=0
873 On ch=10 n=54 v=0
883 On ch=10 n=51 v=48
883 On ch=10 n=54 v=40
884 On ch=10 n=51 v=0
884 On ch=10 n=54 v=0
894 On ch=10 n=51 v=46
894 On ch=10 n=54 v=26
895 On ch=10 n=51 v=0
895 On ch=10 n=54 v=0
905 On ch=10 n=51 v=50
905 On ch=10 n=54 v=36
906 On ch=10 n=51 v=0
906 On ch=10 n=54 v=0
916 On ch=10 n=51 v=55
916 On ch=10 n=54 v=50
917 On ch=10 n=51 v=0
917 On ch=10 n=54 v=0
927 On ch=10 n=51 v=44
927 On ch=10 n=54 v=36
928 On ch=10 n=51 v=0
928 On ch=10 n=54 v=0
938 On ch=10 n=51 v=44
938 On ch=10 n=54 v=24
939 On ch=10 n=51 v=0
939 On ch=10 n=54 v=0
949 On ch=10 n=51 v=46
949 On ch=10 n=54 v=36
950 On ch=10 n=51 v=0
950 On ch=10 n=54 v=0
960 On ch=10 n=51 v=64
960 On ch=10 n=54 v=64
960 On ch=10 n=44 v=78
961 On ch=10 n=51 v=0
961 On ch=10 n=54 v=0
961 On ch=10 n=44 v=0
1008 On ch=10 n=51 v=64
1008 On ch=10 n=54 v=78
1008 On ch=10 n=44 v=78
1009 On ch=10 n=51 v=0
1009 On ch=10 n=54 v=0
1009 On ch=10 n=44 v=0
1056 On ch=10 n=36 v=50
1056 On ch=10 n=54 v=64
1056 On ch=10 n=44 v=92
1056 On ch=10 n=49 v=92
1056 On ch=10 n=51 v=78
1057 On ch=10 n=36 v=0
1057 On ch=10 n=54 v=0
1057 On ch=10 n=44 v=0
1057 On ch=10 n=49 v=0
1057 On ch=10 n=51 v=0
1152 On ch=10 n=36 v=50
1152 On ch=10 n=54 v=64
1152 On ch=10 n=44 v=92
1152 On ch=10 n=49 v=92
1152 On ch=10 n=51 v=78
1153 On ch=10 n=36 v=0
1153 On ch=10 n=54 v=0
1153 On ch=10 n=44 v=0
1153 On ch=10 n=49 v=0
1153 On ch=10 n=51 v=0
1248 On ch=10 n=54 v=64
1248 On ch=10 n=51 v=50
1249 On ch=10 n=54 v=0
1249 On ch=10 n=51 v=0
1344 On ch=10 n=54 v=64
1344 On ch=10 n=51 v=50
1345 On ch=10 n=54 v=0
1345 On ch=10 n=51 v=0
1440 On ch=10 n=54 v=64
1440 On ch=10 n=51 v=64
1440 On ch=10 n=44 v=92
1441 On ch=10 n=54 v=0
1441 On ch=10 n=51 v=0
1441 On ch=10 n=44 v=0
1540 On ch=10 n=44 v=78
1540 On ch=10 n=54 v=50
1540 On ch=10 n=51 v=64
1541 On ch=10 n=44 v=0
1541 On ch=10 n=54 v=0
1541 On ch=10 n=51 v=0
1551 On ch=10 n=54 v=36
1551 On ch=10 n=51 v=50
1552 On ch=10 n=54 v=0
1552 On ch=10 n=51 v=0
1562 On ch=10 n=54 v=22
1562 On ch=10 n=51 v=50
1563 On ch=10 n=54 v=0
1563 On ch=10 n=51 v=0
1573 On ch=10 n=54 v=36
1573 On ch=10 n=51 v=50
1574 On ch=10 n=54 v=0
1574 On ch=10 n=51 v=0
1584 On ch=10 n=44 v=78
1584 On ch=10 n=54 v=50
1584 On ch=10 n=51 v=64
1585 On ch=10 n=44 v=0
1585 On ch=10 n=54 v=0
1585 On ch=10 n=51 v=0
1632 On ch=10 n=42 v=50
1633 On ch=10 n=42 v=0
1684 On ch=10 n=44 v=78
1684 On ch=10 n=51 v=64
1684 On ch=10 n=54 v=50
1685 On ch=10 n=44 v=0
1685 On ch=10 n=51 v=0
1685 On ch=10 n=54 v=0
1695 On ch=10 n=51 v=50
1695 On ch=10 n=54 v=36
1696 On ch=10 n=51 v=0
1696 On ch=10 n=54 v=0
1706 On ch=10 n=51 v=50
1706 On ch=10 n=54 v=22
1707 On ch=10 n=51 v=0
1707 On ch=10 n=54 v=0
1717 On ch=10 n=51 v=50
1717 On ch=10 n=54 v=36
1718 On ch=10 n=51 v=0
1718 On ch=10 n=54 v=0
1728 On ch=10 n=44 v=78
1728 On ch=10 n=51 v=64
1728 On ch=10 n=54 v=50
1729 On ch=10 n=44 v=0
1729 On ch=10 n=51 v=0
1729 On ch=10 n=54 v=0
1828 On ch=10 n=54 v=50
1828 On ch=10 n=44 v=78
1828 On ch=10 n=51 v=64
1829 On ch=10 n=54 v=0
1829 On ch=10 n=44 v=0
1829 On ch=10 n=51 v=0
1839 On ch=10 n=54 v=36
1839 On ch=10 n=51 v=50
1840 On ch=10 n=54 v=0
1840 On ch=10 n=51 v=0
1850 On ch=10 n=54 v=36
1850 On ch=10 n=51 v=50
1851 On ch=10 n=54 v=0
1851 On ch=10 n=51 v=0
1861 On ch=10 n=54 v=36
1861 On ch=10 n=51 v=50
1862 On ch=10 n=54 v=0
1862 On ch=10 n=51 v=0
1872 On ch=10 n=54 v=50
1872 On ch=10 n=44 v=78
1872 On ch=10 n=51 v=64
1873 On ch=10 n=54 v=0
1873 On ch=10 n=44 v=0
1873 On ch=10 n=51 v=0
1920 On ch=10 n=36 v=50
1920 On ch=10 n=54 v=78
1920 On ch=10 n=51 v=78
1920 On ch=10 n=44 v=92
1920 On ch=10 n=49 v=92
1921 On ch=10 n=36 v=0
1921 On ch=10 n=54 v=0
1921 On ch=10 n=51 v=0
1921 On ch=10 n=44 v=0
1921 On ch=10 n=49 v=0
2016 On ch=10 n=36 v=50
2016 On ch=10 n=54 v=78
2016 On ch=10 n=51 v=78
2016 On ch=10 n=44 v=92
2016 On ch=10 n=49 v=92
2017 On ch=10 n=36 v=0
2017 On ch=10 n=54 v=0
2017 On ch=10 n=51 v=0
2017 On ch=10 n=44 v=0
2017 On ch=10 n=49 v=0
2112 On ch=10 n=46 v=50
2113 On ch=10 n=46 v=0
2213 On ch=10 n=40 v=78
2214 On ch=10 n=40 v=0
2227 On ch=10 n=40 v=78
2228 On ch=10 n=40 v=0
2242 On ch=10 n=40 v=50
2243 On ch=10 n=40 v=0
2256 On ch=10 n=40 v=78
2257 On ch=10 n=40 v=0
2357 On ch=10 n=40 v=78
2358 On ch=10 n=40 v=0
2371 On ch=10 n=40 v=64
2372 On ch=10 n=40 v=0
2386 On ch=10 n=40 v=36
2387 On ch=10 n=40 v=0
2400 On ch=10 n=40 v=78
2401 On ch=10 n=40 v=0
2500 On ch=10 n=40 v=78
2501 On ch=10 n=40 v=0
2514 On ch=10 n=40 v=64
2515 On ch=10 n=40 v=0
2529 On ch=10 n=40 v=22
2530 On ch=10 n=40 v=0
2544 On ch=10 n=40 v=78
2545 On ch=10 n=40 v=0
2592 On ch=10 n=42 v=64
2592 On ch=10 n=36 v=50
2593 On ch=10 n=42 v=0
2593 On ch=10 n=36 v=0
2640 On ch=10 n=42 v=64
2640 On ch=10 n=36 v=50
2641 On ch=10 n=42 v=0
2641 On ch=10 n=36 v=0
2688 On ch=10 n=42 v=64
2688 On ch=10 n=40 v=78
2689 On ch=10 n=42 v=0
2689 On ch=10 n=40 v=0
2736 On ch=10 n=42 v=64
2737 On ch=10 n=42 v=0
2760 On ch=10 n=40 v=78
2761 On ch=10 n=40 v=0
2768 On ch=10 n=40 v=50
2769 On ch=10 n=40 v=0
2784 On ch=10 n=42 v=64
2785 On ch=10 n=42 v=0
2808 On ch=10 n=36 v=64
2809 On ch=10 n=36 v=0
2832 On ch=10 n=42 v=64
2833 On ch=10 n=42 v=0
2856 On ch=10 n=36 v=50
2857 On ch=10 n=36 v=0
2880 On ch=10 n=46 v=78
2880 On ch=10 n=40 v=78
2881 On ch=10 n=46 v=0
2881 On ch=10 n=40 v=0
2928 On ch=10 n=42 v=78
2929 On ch=10 n=42 v=0
2956 On ch=10 n=40 v=64
2957 On ch=10 n=40 v=0
2964 On ch=10 n=40 v=50
2965 On ch=10 n=40 v=0
2975 On ch=10 n=36 v=50
2975 On ch=10 n=54 v=78
2975 On ch=10 n=51 v=78
2975 On ch=10 n=44 v=92
2975 On ch=10 n=49 v=92
2976 On ch=10 n=36 v=0
2976 On ch=10 n=54 v=0
2976 On ch=10 n=51 v=0
2976 On ch=10 n=44 v=0
2976 On ch=10 n=49 v=0
3072 On ch=10 n=36 v=50
3072 On ch=10 n=54 v=78
3072 On ch=10 n=51 v=78
3072 On ch=10 n=44 v=92
3072 On ch=10 n=49 v=92
3073 On ch=10 n=36 v=0
3073 On ch=10 n=54 v=0
3073 On ch=10 n=51 v=0
3073 On ch=10 n=44 v=0
3073 On ch=10 n=49 v=0
3168 On ch=10 n=46 v=50
3168 On ch=10 n=40 v=64
3169 On ch=10 n=46 v=0
3169 On ch=10 n=40 v=0
3264 On ch=10 n=51 v=64
3265 On ch=10 n=51 v=0
3280 On ch=10 n=40 v=78
3281 On ch=10 n=40 v=0
3296 On ch=10 n=51 v=64
3297 On ch=10 n=51 v=0
3312 On ch=10 n=40 v=78
3313 On ch=10 n=40 v=0
3408 On ch=10 n=51 v=64
3409 On ch=10 n=51 v=0
3424 On ch=10 n=40 v=78
3425 On ch=10 n=40 v=0
3440 On ch=10 n=51 v=64
3441 On ch=10 n=51 v=0
3456 On ch=10 n=40 v=78
3457 On ch=10 n=40 v=0
3568 On ch=10 n=40 v=78
3569 On ch=10 n=40 v=0
3600 On ch=10 n=40 v=92
3601 On ch=10 n=40 v=0
3648 On ch=10 n=42 v=64
3648 On ch=10 n=36 v=50
3649 On ch=10 n=42 v=0
3649 On ch=10 n=36 v=0
3696 On ch=10 n=42 v=64
3696 On ch=10 n=36 v=50
3697 On ch=10 n=42 v=0
3697 On ch=10 n=36 v=0
3744 On ch=10 n=42 v=64
3744 On ch=10 n=40 v=78
3745 On ch=10 n=42 v=0
3745 On ch=10 n=40 v=0
3792 On ch=10 n=42 v=64
3793 On ch=10 n=42 v=0
3820 On ch=10 n=40 v=64
3821 On ch=10 n=40 v=0
3828 On ch=10 n=40 v=50
3829 On ch=10 n=40 v=0
3840 On ch=10 n=42 v=64
3841 On ch=10 n=42 v=0
3864 On ch=10 n=36 v=64
3865 On ch=10 n=36 v=0
3888 On ch=10 n=42 v=64
3889 On ch=10 n=42 v=0
3912 On ch=10 n=36 v=50
3913 On ch=10 n=36 v=0
3936 On ch=10 n=46 v=78
3936 On ch=10 n=40 v=92
3937 On ch=10 n=46 v=0
3937 On ch=10 n=40 v=0
3984 On ch=10 n=42 v=78
3985 On ch=10 n=42 v=0
4012 On ch=10 n=40 v=78
4013 On ch=10 n=40 v=0
4020 On ch=10 n=40 v=50
4021 On ch=10 n=40 v=0
4032 On ch=10 n=36 v=50
4032 On ch=10 n=54 v=78
4032 On ch=10 n=51 v=78
4032 On ch=10 n=44 v=92
4032 On ch=10 n=49 v=92
4033 On ch=10 n=36 v=0
4033 On ch=10 n=54 v=0
4033 On ch=10 n=51 v=0
4033 On ch=10 n=44 v=0
4033 On ch=10 n=49 v=0
4128 On ch=10 n=36 v=50
4128 On ch=10 n=54 v=78
4128 On ch=10 n=51 v=78
4128 On ch=10 n=44 v=92
4128 On ch=10 n=49 v=92
4129 On ch=10 n=36 v=0
4129 On ch=10 n=54 v=0
4129 On ch=10 n=51 v=0
4129 On ch=10 n=44 v=0
4129 On ch=10 n=49 v=0
4224 On ch=10 n=46 v=64
4225 On ch=10 n=46 v=0
4322 On ch=10 n=40 v=64
4323 On ch=10 n=40 v=0
4337 On ch=10 n=40 v=64
4338 On ch=10 n=40 v=0
4352 On ch=10 n=40 v=40
4353 On ch=10 n=40 v=0
4368 On ch=10 n=40 v=75
4369 On ch=10 n=40 v=0
4467 On ch=10 n=40 v=64
4468 On ch=10 n=40 v=0
4482 On ch=10 n=40 v=62
4483 On ch=10 n=40 v=0
4497 On ch=10 n=40 v=22
4498 On ch=10 n=40 v=0
4512 On ch=10 n=40 v=64
4513 On ch=10 n=40 v=0
4611 On ch=10 n=40 v=64
4612 On ch=10 n=40 v=0
4626 On ch=10 n=40 v=60
4627 On ch=10 n=40 v=0
4641 On ch=10 n=40 v=10
4642 On ch=10 n=40 v=0
4658 On ch=10 n=40 v=73
4659 On ch=10 n=40 v=0
4703 On ch=10 n=42 v=64
4703 On ch=10 n=36 v=66
4704 On ch=10 n=42 v=0
4704 On ch=10 n=36 v=0
4752 On ch=10 n=42 v=64
4752 On ch=10 n=36 v=64
4753 On ch=10 n=42 v=0
4797 On ch=10 n=36 v=0
4800 On ch=10 n=42 v=64
4800 On ch=10 n=40 v=92
4801 On ch=10 n=42 v=0
4801 On ch=10 n=40 v=0
4848 On ch=10 n=42 v=64
4849 On ch=10 n=42 v=0
4876 On ch=10 n=40 v=64
4877 On ch=10 n=40 v=0
4884 On ch=10 n=40 v=50
4885 On ch=10 n=40 v=0
5280 On ch=10 n=51 v=64
5280 On ch=10 n=44 v=64
5280 On ch=10 n=36 v=64
5281 On ch=10 n=51 v=0
5281 On ch=10 n=44 v=0
5281 On ch=10 n=36 v=0
5328 On ch=10 n=51 v=64
5328 On ch=10 n=44 v=64
5328 On ch=10 n=36 v=50
5329 On ch=10 n=51 v=0
5329 On ch=10 n=44 v=0
5329 On ch=10 n=36 v=0
5376 On ch=10 n=51 v=64
5376 On ch=10 n=44 v=64
5376 On ch=10 n=36 v=54
5377 On ch=10 n=51 v=0
5377 On ch=10 n=44 v=0
5377 On ch=10 n=36 v=0
5424 On ch=10 n=51 v=64
5424 On ch=10 n=44 v=64
5424 On ch=10 n=36 v=55
5425 On ch=10 n=51 v=0
5425 On ch=10 n=44 v=0
5425 On ch=10 n=36 v=0
5499 On ch=10 n=40 v=92
5500 On ch=10 n=40 v=0
5509 On ch=10 n=40 v=64
5510 On ch=10 n=40 v=0
5604 On ch=10 n=44 v=78
5605 On ch=10 n=44 v=0
5617 On ch=10 n=45 v=92
5618 On ch=10 n=45 v=0
5627 On ch=10 n=45 v=78
5628 On ch=10 n=45 v=0
5664 On ch=10 n=36 v=64
5664 On ch=10 n=54 v=78
5664 On ch=10 n=51 v=92
5664 On ch=10 n=44 v=92
5664 On ch=10 n=49 v=106
5665 On ch=10 n=36 v=0
5665 On ch=10 n=54 v=0
5665 On ch=10 n=51 v=0
5665 On ch=10 n=44 v=0
5665 On ch=10 n=49 v=0
5760 On ch=10 n=36 v=64
5760 On ch=10 n=54 v=78
5760 On ch=10 n=51 v=92
5760 On ch=10 n=44 v=92
5760 On ch=10 n=49 v=106
5761 On ch=10 n=36 v=0
5761 On ch=10 n=54 v=0
5761 On ch=10 n=51 v=0
5761 On ch=10 n=44 v=0
5761 On ch=10 n=49 v=0
5856 On ch=10 n=44 v=64
5856 On ch=10 n=51 v=64
5857 On ch=10 n=44 v=0
5857 On ch=10 n=51 v=0
5952 On ch=10 n=44 v=64
5952 On ch=10 n=51 v=64
5953 On ch=10 n=44 v=0
5953 On ch=10 n=51 v=0
6048 On ch=10 n=44 v=62
6048 On ch=10 n=51 v=61
6049 On ch=10 n=44 v=0
6049 On ch=10 n=51 v=0
6144 On ch=10 n=44 v=61
6144 On ch=10 n=51 v=61
6145 On ch=10 n=44 v=0
6145 On ch=10 n=51 v=0
6240 On ch=10 n=44 v=67
6240 On ch=10 n=51 v=66
6241 On ch=10 n=44 v=0
6241 On ch=10 n=51 v=0
6332 On ch=10 n=40 v=78
6333 On ch=10 n=40 v=0
6336 On ch=10 n=40 v=106
6337 On ch=10 n=40 v=0
6360 On ch=10 n=36 v=68
6361 On ch=10 n=36 v=0
6408 On ch=10 n=36 v=64
6409 On ch=10 n=36 v=0
6456 On ch=10 n=36 v=64
6457 On ch=10 n=36 v=0
6480 On ch=10 n=44 v=64
6480 On ch=10 n=40 v=92
6480 On ch=10 n=49 v=106
6481 On ch=10 n=44 v=0
6481 On ch=10 n=40 v=0
6481 On ch=10 n=49 v=0
6528 On ch=10 n=42 v=64
6529 On ch=10 n=42 v=0
6552 On ch=10 n=36 v=50
6553 On ch=10 n=36 v=0
6576 On ch=10 n=42 v=64
6576 On ch=10 n=40 v=92
6577 On ch=10 n=42 v=0
6577 On ch=10 n=40 v=0
6624 On ch=10 n=42 v=64
6625 On ch=10 n=42 v=0
6652 On ch=10 n=40 v=78
6653 On ch=10 n=40 v=0
6660 On ch=10 n=40 v=64
6661 On ch=10 n=40 v=0
6672 On ch=10 n=42 v=64
6673 On ch=10 n=42 v=0
6696 On ch=10 n=36 v=64
6697 On ch=10 n=36 v=0
6720 On ch=10 n=42 v=64
6721 On ch=10 n=42 v=0
6744 On ch=10 n=36 v=64
6745 On ch=10 n=36 v=0
6768 On ch=10 n=42 v=64
6768 On ch=10 n=40 v=78
6769 On ch=10 n=42 v=0
6769 On ch=10 n=40 v=0
6816 On ch=10 n=42 v=64
6817 On ch=10 n=42 v=0
6840 On ch=10 n=36 v=64
6841 On ch=10 n=36 v=0
6864 On ch=10 n=40 v=78
6864 On ch=10 n=42 v=64
6865 On ch=10 n=40 v=0
6865 On ch=10 n=42 v=0
6912 On ch=10 n=42 v=64
6913 On ch=10 n=42 v=0
6936 On ch=10 n=36 v=64
6937 On ch=10 n=36 v=0
6960 On ch=10 n=40 v=78
6960 On ch=10 n=42 v=64
6961 On ch=10 n=40 v=0
6961 On ch=10 n=42 v=0
7008 On ch=10 n=41 v=22
7008 On ch=10 n=44 v=64
7008 On ch=10 n=40 v=50
7009 On ch=10 n=41 v=0
7009 On ch=10 n=44 v=0
7009 On ch=10 n=40 v=0
7032 On ch=10 n=41 v=22
7032 On ch=10 n=44 v=64
7032 On ch=10 n=40 v=50
7033 On ch=10 n=41 v=0
7033 On ch=10 n=44 v=0
7033 On ch=10 n=40 v=0
7056 On ch=10 n=41 v=34
7056 On ch=10 n=44 v=75
7056 On ch=10 n=40 v=62
7057 On ch=10 n=41 v=0
7057 On ch=10 n=44 v=0
7057 On ch=10 n=40 v=0
7080 On ch=10 n=41 v=36
7080 On ch=10 n=44 v=78
7080 On ch=10 n=40 v=64
7081 On ch=10 n=41 v=0
7081 On ch=10 n=44 v=0
7081 On ch=10 n=40 v=0
7104 On ch=10 n=41 v=36
7104 On ch=10 n=44 v=78
7104 On ch=10 n=40 v=78
7105 On ch=10 n=41 v=0
7105 On ch=10 n=44 v=0
7105 On ch=10 n=40 v=0
7128 On ch=10 n=41 v=36
7128 On ch=10 n=44 v=78
7128 On ch=10 n=40 v=78
7129 On ch=10 n=41 v=0
7129 On ch=10 n=44 v=0
7129 On ch=10 n=40 v=0
7152 On ch=10 n=41 v=50
7152 On ch=10 n=44 v=92
7152 On ch=10 n=40 v=92
7153 On ch=10 n=41 v=0
7153 On ch=10 n=44 v=0
7153 On ch=10 n=40 v=0
7176 On ch=10 n=41 v=50
7176 On ch=10 n=44 v=92
7176 On ch=10 n=40 v=92
7177 On ch=10 n=41 v=0
7177 On ch=10 n=44 v=0
7177 On ch=10 n=40 v=0
7200 On ch=10 n=41 v=64
7200 On ch=10 n=44 v=106
7200 On ch=10 n=40 v=106
7201 On ch=10 n=41 v=0
7201 On ch=10 n=44 v=0
7201 On ch=10 n=40 v=0
7248 On ch=10 n=49 v=92
7248 On ch=10 n=36 v=64
7248 On ch=10 n=44 v=92
7248 On ch=10 n=51 v=92
7249 On ch=10 n=49 v=0
7249 On ch=10 n=36 v=0
7249 On ch=10 n=44 v=0
7249 On ch=10 n=51 v=0
7344 On ch=10 n=49 v=92
7344 On ch=10 n=36 v=64
7344 On ch=10 n=44 v=92
7344 On ch=10 n=51 v=92
7345 On ch=10 n=49 v=0
7345 On ch=10 n=36 v=0
7345 On ch=10 n=44 v=0
7345 On ch=10 n=51 v=0
7440 On ch=10 n=44 v=78
7440 On ch=10 n=51 v=50
7441 On ch=10 n=44 v=0
7441 On ch=10 n=51 v=0
7536 On ch=10 n=44 v=78
7536 On ch=10 n=51 v=50
7537 On ch=10 n=44 v=0
7537 On ch=10 n=51 v=0
7632 On ch=10 n=44 v=78
7632 On ch=10 n=51 v=50
7633 On ch=10 n=44 v=0
7633 On ch=10 n=51 v=0
7728 On ch=10 n=44 v=78
7728 On ch=10 n=51 v=50
7729 On ch=10 n=44 v=0
7729 On ch=10 n=51 v=0
7824 On ch=10 n=44 v=78
7824 On ch=10 n=51 v=50
7825 On ch=10 n=44 v=0
7825 On ch=10 n=51 v=0
7872 On ch=10 n=44 v=64
7872 On ch=10 n=51 v=50
7873 On ch=10 n=44 v=0
7873 On ch=10 n=51 v=0
7900 On ch=10 n=40 v=64
7901 On ch=10 n=40 v=0
7908 On ch=10 n=40 v=55
7909 On ch=10 n=40 v=0
7920 On ch=10 n=42 v=64
7920 On ch=10 n=36 v=64
7921 On ch=10 n=42 v=0
7921 On ch=10 n=36 v=0
7968 On ch=10 n=42 v=64
7968 On ch=10 n=36 v=64
7969 On ch=10 n=42 v=0
7969 On ch=10 n=36 v=0
8016 On ch=10 n=40 v=78
8016 On ch=10 n=42 v=64
8017 On ch=10 n=40 v=0
8017 On ch=10 n=42 v=0
8064 On ch=10 n=42 v=64
8065 On ch=10 n=42 v=0
8092 On ch=10 n=40 v=64
8093 On ch=10 n=40 v=0
8100 On ch=10 n=40 v=50
8101 On ch=10 n=40 v=0
8112 On ch=10 n=42 v=64
8113 On ch=10 n=42 v=0
8136 On ch=10 n=36 v=64
8137 On ch=10 n=36 v=0
8160 On ch=10 n=42 v=64
8161 On ch=10 n=42 v=0
8184 On ch=10 n=36 v=64
8185 On ch=10 n=36 v=0
8208 On ch=10 n=40 v=92
8208 On ch=10 n=46 v=64
8209 On ch=10 n=40 v=0
8209 On ch=10 n=46 v=0
8256 On ch=10 n=42 v=64
8257 On ch=10 n=42 v=0
8284 On ch=10 n=40 v=78
8285 On ch=10 n=40 v=0
8292 On ch=10 n=40 v=50
8293 On ch=10 n=40 v=0
8304 On ch=10 n=36 v=64
8304 On ch=10 n=44 v=92
8304 On ch=10 n=51 v=92
8304 On ch=10 n=49 v=92
8305 On ch=10 n=36 v=0
8305 On ch=10 n=44 v=0
8305 On ch=10 n=51 v=0
8305 On ch=10 n=49 v=0
8400 On ch=10 n=36 v=64
8400 On ch=10 n=44 v=92
8400 On ch=10 n=51 v=92
8400 On ch=10 n=49 v=92
8401 On ch=10 n=36 v=0
8401 On ch=10 n=44 v=0
8401 On ch=10 n=51 v=0
8401 On ch=10 n=49 v=0
8496 On ch=10 n=46 v=50
8496 On ch=10 n=40 v=64
8497 On ch=10 n=46 v=0
8497 On ch=10 n=40 v=0
8568 On ch=10 n=40 v=64
8569 On ch=10 n=40 v=0
8576 On ch=10 n=40 v=50
8577 On ch=10 n=40 v=0
8592 On ch=10 n=51 v=64
8593 On ch=10 n=51 v=0
8608 On ch=10 n=40 v=64
8609 On ch=10 n=40 v=0
8624 On ch=10 n=51 v=64
8625 On ch=10 n=51 v=0
8640 On ch=10 n=40 v=64
8641 On ch=10 n=40 v=0
8712 On ch=10 n=40 v=64
8713 On ch=10 n=40 v=0
8720 On ch=10 n=40 v=50
8721 On ch=10 n=40 v=0
8736 On ch=10 n=51 v=64
8737 On ch=10 n=51 v=0
8752 On ch=10 n=40 v=64
8753 On ch=10 n=40 v=0
8768 On ch=10 n=51 v=64
8769 On ch=10 n=51 v=0
8784 On ch=10 n=40 v=64
8785 On ch=10 n=40 v=0
8856 On ch=10 n=40 v=64
8857 On ch=10 n=40 v=0
8864 On ch=10 n=40 v=50
8865 On ch=10 n=40 v=0
8880 On ch=10 n=51 v=64
8881 On ch=10 n=51 v=0
8896 On ch=10 n=40 v=64
8897 On ch=10 n=40 v=0
8912 On ch=10 n=51 v=64
8913 On ch=10 n=51 v=0
8928 On ch=10 n=40 v=78
8929 On ch=10 n=40 v=0
8976 On ch=10 n=42 v=64
8976 On ch=10 n=36 v=50
8977 On ch=10 n=42 v=0
8977 On ch=10 n=36 v=0
9024 On ch=10 n=42 v=64
9024 On ch=10 n=36 v=50
9025 On ch=10 n=42 v=0
9025 On ch=10 n=36 v=0
9072 On ch=10 n=42 v=64
9072 On ch=10 n=40 v=78
9073 On ch=10 n=42 v=0
9073 On ch=10 n=40 v=0
9120 On ch=10 n=42 v=64
9121 On ch=10 n=42 v=0
9148 On ch=10 n=40 v=78
9149 On ch=10 n=40 v=0
9156 On ch=10 n=40 v=50
9157 On ch=10 n=40 v=0
9168 On ch=10 n=42 v=64
9169 On ch=10 n=42 v=0
9192 On ch=10 n=36 v=64
9193 On ch=10 n=36 v=0
9216 On ch=10 n=42 v=64
9217 On ch=10 n=42 v=0
9240 On ch=10 n=36 v=50
9241 On ch=10 n=36 v=0
9264 On ch=10 n=46 v=78
9264 On ch=10 n=40 v=92
9265 On ch=10 n=46 v=0
9265 On ch=10 n=40 v=0
9312 On ch=10 n=42 v=78
9313 On ch=10 n=42 v=0
9340 On ch=10 n=40 v=78
9341 On ch=10 n=40 v=0
9348 On ch=10 n=40 v=50
9349 On ch=10 n=40 v=0
9360 On ch=10 n=44 v=92
9360 On ch=10 n=51 v=92
9360 On ch=10 n=49 v=92
9360 On ch=10 n=36 v=64
9361 On ch=10 n=44 v=0
9361 On ch=10 n=51 v=0
9361 On ch=10 n=49 v=0
9361 On ch=10 n=36 v=0
9456 On ch=10 n=44 v=92
9456 On ch=10 n=51 v=92
9456 On ch=10 n=49 v=92
9456 On ch=10 n=36 v=64
9457 On ch=10 n=44 v=0
9457 On ch=10 n=51 v=0
9457 On ch=10 n=49 v=0
9457 On ch=10 n=36 v=0
9552 On ch=10 n=44 v=78
9552 On ch=10 n=51 v=50
9553 On ch=10 n=44 v=0
9553 On ch=10 n=51 v=0
9648 On ch=10 n=44 v=78
9648 On ch=10 n=51 v=50
9649 On ch=10 n=44 v=0
9649 On ch=10 n=51 v=0
9744 On ch=10 n=44 v=78
9744 On ch=10 n=51 v=50
9745 On ch=10 n=44 v=0
9745 On ch=10 n=51 v=0
9840 On ch=10 n=44 v=106
9840 On ch=10 n=51 v=50
9841 On ch=10 n=44 v=0
9841 On ch=10 n=51 v=0
9936 On ch=10 n=44 v=78
9936 On ch=10 n=51 v=50
9937 On ch=10 n=44 v=0
9937 On ch=10 n=51 v=0
9984 On ch=10 n=44 v=64
9984 On ch=10 n=51 v=50
9985 On ch=10 n=44 v=0
9985 On ch=10 n=51 v=0
10012 On ch=10 n=40 v=64
10013 On ch=10 n=40 v=0
10020 On ch=10 n=40 v=50
10021 On ch=10 n=40 v=0
10031 On ch=10 n=42 v=64
10031 On ch=10 n=36 v=64
10032 On ch=10 n=42 v=0
10032 On ch=10 n=36 v=0
10080 On ch=10 n=42 v=64
10080 On ch=10 n=36 v=64
10081 On ch=10 n=42 v=0
10081 On ch=10 n=36 v=0
10128 On ch=10 n=40 v=78
10128 On ch=10 n=42 v=64
10129 On ch=10 n=40 v=0
10129 On ch=10 n=42 v=0
10176 On ch=10 n=42 v=64
10177 On ch=10 n=42 v=0
10204 On ch=10 n=40 v=92
10205 On ch=10 n=40 v=0
10212 On ch=10 n=40 v=50
10213 On ch=10 n=40 v=0
10608 On ch=10 n=51 v=64
10608 On ch=10 n=44 v=64
10608 On ch=10 n=36 v=64
10609 On ch=10 n=51 v=0
10609 On ch=10 n=44 v=0
10609 On ch=10 n=36 v=0
10656 On ch=10 n=51 v=64
10656 On ch=10 n=44 v=64
10656 On ch=10 n=36 v=50
10657 On ch=10 n=51 v=0
10657 On ch=10 n=44 v=0
10657 On ch=10 n=36 v=0
10704 On ch=10 n=51 v=64
10704 On ch=10 n=44 v=64
10704 On ch=10 n=36 v=54
10705 On ch=10 n=51 v=0
10705 On ch=10 n=44 v=0
10705 On ch=10 n=36 v=0
10752 On ch=10 n=51 v=64
10752 On ch=10 n=44 v=64
10752 On ch=10 n=36 v=55
10753 On ch=10 n=51 v=0
10753 On ch=10 n=44 v=0
10753 On ch=10 n=36 v=0
10824 On ch=10 n=40 v=92
10825 On ch=10 n=40 v=0
10836 On ch=10 n=40 v=78
10837 On ch=10 n=40 v=0
10860 On ch=10 n=40 v=92
10861 On ch=10 n=40 v=0
10872 On ch=10 n=40 v=78
10873 On ch=10 n=40 v=0
10884 On ch=10 n=40 v=92
10885 On ch=10 n=40 v=0
10896 On ch=10 n=45 v=78
10897 On ch=10 n=45 v=0
10908 On ch=10 n=45 v=78
10909 On ch=10 n=45 v=0
10920 On ch=10 n=45 v=78
10921 On ch=10 n=45 v=0
10932 On ch=10 n=45 v=78
10933 On ch=10 n=45 v=0
10944 On ch=10 n=45 v=78
10945 On ch=10 n=45 v=0
10992 On ch=10 n=44 v=92
10992 On ch=10 n=51 v=92
10992 On ch=10 n=49 v=92
10992 On ch=10 n=36 v=64
10993 On ch=10 n=44 v=0
10993 On ch=10 n=51 v=0
10993 On ch=10 n=49 v=0
10993 On ch=10 n=36 v=0
11088 On ch=10 n=44 v=92
11088 On ch=10 n=51 v=92
11088 On ch=10 n=49 v=92
11088 On ch=10 n=36 v=64
11089 On ch=10 n=44 v=0
11089 On ch=10 n=51 v=0
11089 On ch=10 n=49 v=0
11089 On ch=10 n=36 v=0
11184 On ch=10 n=44 v=78
11184 On ch=10 n=51 v=50
11185 On ch=10 n=44 v=0
11185 On ch=10 n=51 v=0
11280 On ch=10 n=44 v=78
11280 On ch=10 n=51 v=50
11281 On ch=10 n=44 v=0
11281 On ch=10 n=51 v=0
11376 On ch=10 n=44 v=78
11376 On ch=10 n=51 v=50
11377 On ch=10 n=44 v=0
11377 On ch=10 n=51 v=0
11472 On ch=10 n=36 v=64
11472 On ch=10 n=51 v=50
11472 On ch=10 n=44 v=78
11473 On ch=10 n=36 v=0
11473 On ch=10 n=51 v=0
11473 On ch=10 n=44 v=0
11568 On ch=10 n=36 v=64
11568 On ch=10 n=44 v=78
11568 On ch=10 n=51 v=50
11569 On ch=10 n=36 v=0
11569 On ch=10 n=44 v=0
11569 On ch=10 n=51 v=0
11660 On ch=10 n=40 v=78
11661 On ch=10 n=40 v=0
11664 On ch=10 n=40 v=106
11665 On ch=10 n=40 v=0
11688 On ch=10 n=36 v=68
11689 On ch=10 n=36 v=0
11736 On ch=10 n=36 v=64
11737 On ch=10 n=36 v=0
11784 On ch=10 n=36 v=64
11785 On ch=10 n=36 v=0
11808 On ch=10 n=44 v=64
11808 On ch=10 n=40 v=92
11808 On ch=10 n=49 v=106
11809 On ch=10 n=44 v=0
11809 On ch=10 n=40 v=0
11809 On ch=10 n=49 v=0
11856 On ch=10 n=42 v=64
11857 On ch=10 n=42 v=0
11880 On ch=10 n=36 v=50
11881 On ch=10 n=36 v=0
11904 On ch=10 n=42 v=64
11904 On ch=10 n=40 v=92
11905 On ch=10 n=42 v=0
11905 On ch=10 n=40 v=0
11952 On ch=10 n=42 v=64
11953 On ch=10 n=42 v=0
11976 On ch=10 n=36 v=64
11977 On ch=10 n=36 v=0
12000 On ch=10 n=42 v=64
12000 On ch=10 n=40 v=92
12001 On ch=10 n=42 v=0
12001 On ch=10 n=40 v=0
12024 On ch=10 n=36 v=64
12025 On ch=10 n=36 v=0
12048 On ch=10 n=42 v=64
12049 On ch=10 n=42 v=0
12072 On ch=10 n=36 v=64
12073 On ch=10 n=36 v=0
12096 On ch=10 n=42 v=64
12096 On ch=10 n=40 v=106
12097 On ch=10 n=42 v=0
12097 On ch=10 n=40 v=0
12144 On ch=10 n=42 v=64
12145 On ch=10 n=42 v=0
12168 On ch=10 n=36 v=64
12169 On ch=10 n=36 v=0
12192 On ch=10 n=42 v=64
12192 On ch=10 n=40 v=78
12193 On ch=10 n=42 v=0
12193 On ch=10 n=40 v=0
12240 On ch=10 n=42 v=64
12241 On ch=10 n=42 v=0
12264 On ch=10 n=36 v=64
12265 On ch=10 n=36 v=0
12288 On ch=10 n=42 v=64
12288 On ch=10 n=40 v=78
12289 On ch=10 n=42 v=0
12289 On ch=10 n=40 v=0
12336 On ch=10 n=42 v=64
12337 On ch=10 n=42 v=0
12360 On ch=10 n=36 v=64
12361 On ch=10 n=36 v=0
12384 On ch=10 n=40 v=78
12384 On ch=10 n=42 v=64
12385 On ch=10 n=40 v=0
12385 On ch=10 n=42 v=0
12408 On ch=10 n=36 v=64
12409 On ch=10 n=36 v=0
12432 On ch=10 n=42 v=64
12433 On ch=10 n=42 v=0
12456 On ch=10 n=36 v=64
12457 On ch=10 n=36 v=0
12480 On ch=10 n=40 v=78
12480 On ch=10 n=42 v=64
12481 On ch=10 n=40 v=0
12481 On ch=10 n=42 v=0
12528 On ch=10 n=40 v=78
12528 On ch=10 n=42 v=64
12529 On ch=10 n=40 v=0
12529 On ch=10 n=42 v=0
12552 On ch=10 n=40 v=64
12553 On ch=10 n=40 v=0
12560 On ch=10 n=40 v=50
12561 On ch=10 n=40 v=0
12576 On ch=10 n=36 v=64
12576 On ch=10 n=40 v=50
12576 On ch=10 n=42 v=64
12577 On ch=10 n=36 v=0
12577 On ch=10 n=40 v=0
12577 On ch=10 n=42 v=0
12624 On ch=10 n=36 v=50
12624 On ch=10 n=42 v=64
12625 On ch=10 n=36 v=0
12625 On ch=10 n=42 v=0
12672 On ch=10 n=40 v=92
12672 On ch=10 n=36 v=64
12672 On ch=10 n=42 v=64
12673 On ch=10 n=40 v=0
12673 On ch=10 n=36 v=0
12673 On ch=10 n=42 v=0
12720 On ch=10 n=36 v=78
12720 On ch=10 n=49 v=78
12721 On ch=10 n=36 v=0
12721 On ch=10 n=49 v=0
12768 On ch=10 n=42 v=64
12769 On ch=10 n=42 v=0
12816 On ch=10 n=42 v=64
12817 On ch=10 n=42 v=0
12840 On ch=10 n=36 v=64
12841 On ch=10 n=36 v=0
12864 On ch=10 n=40 v=78
12864 On ch=10 n=42 v=64
12865 On ch=10 n=40 v=0
12865 On ch=10 n=42 v=0
12912 On ch=10 n=42 v=64
12913 On ch=10 n=42 v=0
12940 On ch=10 n=40 v=78
12941 On ch=10 n=40 v=0
12948 On ch=10 n=40 v=50
12949 On ch=10 n=40 v=0
12960 On ch=10 n=40 v=36
12960 On ch=10 n=42 v=64
12961 On ch=10 n=40 v=0
12961 On ch=10 n=42 v=0
13008 On ch=10 n=42 v=64
13009 On ch=10 n=42 v=0
13032 On ch=10 n=36 v=50
13033 On ch=10 n=36 v=0
13056 On ch=10 n=40 v=78
13056 On ch=10 n=42 v=64
13057 On ch=10 n=40 v=0
13057 On ch=10 n=42 v=0
13104 On ch=10 n=42 v=64
13105 On ch=10 n=42 v=0
13128 On ch=10 n=40 v=64
13129 On ch=10 n=40 v=0
13136 On ch=10 n=40 v=50
13137 On ch=10 n=40 v=0
13144 On ch=10 n=40 v=50
13145 On ch=10 n=40 v=0
13152 On ch=10 n=40 v=78
13153 On ch=10 n=40 v=0
13176 On ch=10 n=40 v=92
13177 On ch=10 n=40 v=0
13200 On ch=10 n=40 v=92
13201 On ch=10 n=40 v=0
13224 On ch=10 n=40 v=92
13225 On ch=10 n=40 v=0
13248 On ch=10 n=42 v=64
13248 On ch=10 n=45 v=92
13249 On ch=10 n=42 v=0
13249 On ch=10 n=45 v=0
13272 On ch=10 n=45 v=92
13273 On ch=10 n=45 v=0
13296 On ch=10 n=41 v=78
13296 On ch=10 n=42 v=64
13297 On ch=10 n=41 v=0
13297 On ch=10 n=42 v=0
13320 On ch=10 n=41 v=78
13321 On ch=10 n=41 v=0
13344 On ch=10 n=36 v=64
13344 On ch=10 n=44 v=92
13344 On ch=10 n=51 v=92
13345 On ch=10 n=36 v=0
13345 On ch=10 n=44 v=0
13345 On ch=10 n=51 v=0
13392 On ch=10 n=36 v=50
13392 On ch=10 n=44 v=92
13392 On ch=10 n=51 v=92
13393 On ch=10 n=36 v=0
13393 On ch=10 n=44 v=0
13393 On ch=10 n=51 v=0
13440 On ch=10 n=40 v=78
13440 On ch=10 n=44 v=92
13440 On ch=10 n=51 v=92
13441 On ch=10 n=40 v=0
13441 On ch=10 n=44 v=0
13441 On ch=10 n=51 v=0
13488 On ch=10 n=44 v=92
13488 On ch=10 n=51 v=92
13489 On ch=10 n=44 v=0
13489 On ch=10 n=51 v=0
13516 On ch=10 n=40 v=64
13517 On ch=10 n=40 v=0
13524 On ch=10 n=40 v=64
13525 On ch=10 n=40 v=0
13536 On ch=10 n=36 v=64
13536 On ch=10 n=44 v=92
13536 On ch=10 n=51 v=92
13537 On ch=10 n=36 v=0
13537 On ch=10 n=44 v=0
13537 On ch=10 n=51 v=0
13584 On ch=10 n=36 v=50
13584 On ch=10 n=44 v=92
13584 On ch=10 n=51 v=92
13585 On ch=10 n=36 v=0
13585 On ch=10 n=44 v=0
13585 On ch=10 n=51 v=0
13608 On ch=10 n=36 v=50
13609 On ch=10 n=36 v=0
13632 On ch=10 n=40 v=78
13632 On ch=10 n=44 v=92
13632 On ch=10 n=51 v=92
13633 On ch=10 n=40 v=0
13633 On ch=10 n=44 v=0
13633 On ch=10 n=51 v=0
13680 On ch=10 n=44 v=92
13680 On ch=10 n=51 v=92
13681 On ch=10 n=44 v=0
13681 On ch=10 n=51 v=0
13708 On ch=10 n=40 v=78
13709 On ch=10 n=40 v=0
13716 On ch=10 n=40 v=50
13717 On ch=10 n=40 v=0
13728 On ch=10 n=36 v=64
13728 On ch=10 n=44 v=92
13728 On ch=10 n=51 v=92
13729 On ch=10 n=36 v=0
13729 On ch=10 n=44 v=0
13729 On ch=10 n=51 v=0
13776 On ch=10 n=36 v=50
13776 On ch=10 n=44 v=92
13776 On ch=10 n=51 v=92
13777 On ch=10 n=36 v=0
13777 On ch=10 n=44 v=0
13777 On ch=10 n=51 v=0
13800 On ch=10 n=36 v=50
13801 On ch=10 n=36 v=0
13824 On ch=10 n=40 v=78
13824 On ch=10 n=44 v=92
13824 On ch=10 n=51 v=92
13825 On ch=10 n=40 v=0
13825 On ch=10 n=44 v=0
13825 On ch=10 n=51 v=0
13872 On ch=10 n=44 v=92
13872 On ch=10 n=51 v=92
13873 On ch=10 n=44 v=0
13873 On ch=10 n=51 v=0
13900 On ch=10 n=40 v=64
13901 On ch=10 n=40 v=0
13908 On ch=10 n=40 v=50
13909 On ch=10 n=40 v=0
13920 On ch=10 n=44 v=92
13920 On ch=10 n=51 v=92
13921 On ch=10 n=44 v=0
13921 On ch=10 n=51 v=0
13944 On ch=10 n=36 v=64
13945 On ch=10 n=36 v=0
13968 On ch=10 n=44 v=92
13968 On ch=10 n=51 v=92
13969 On ch=10 n=44 v=0
13969 On ch=10 n=51 v=0
13992 On ch=10 n=36 v=50
13993 On ch=10 n=36 v=0
14016 On ch=10 n=40 v=78
14016 On ch=10 n=44 v=92
14016 On ch=10 n=51 v=92
14017 On ch=10 n=40 v=0
14017 On ch=10 n=44 v=0
14017 On ch=10 n=51 v=0
14064 On ch=10 n=44 v=92
14064 On ch=10 n=51 v=92
14065 On ch=10 n=44 v=0
14065 On ch=10 n=51 v=0
14092 On ch=10 n=40 v=64
14093 On ch=10 n=40 v=0
14100 On ch=10 n=40 v=64
14101 On ch=10 n=40 v=0
14112 On ch=10 n=36 v=64
14112 On ch=10 n=44 v=92
14112 On ch=10 n=51 v=92
14113 On ch=10 n=36 v=0
14113 On ch=10 n=44 v=0
14113 On ch=10 n=51 v=0
14160 On ch=10 n=36 v=50
14160 On ch=10 n=44 v=92
14160 On ch=10 n=51 v=92
14161 On ch=10 n=36 v=0
14161 On ch=10 n=44 v=0
14161 On ch=10 n=51 v=0
14184 On ch=10 n=36 v=50
14185 On ch=10 n=36 v=0
14208 On ch=10 n=40 v=78
14208 On ch=10 n=44 v=92
14208 On ch=10 n=51 v=92
14209 On ch=10 n=40 v=0
14209 On ch=10 n=44 v=0
14209 On ch=10 n=51 v=0
14256 On ch=10 n=44 v=92
14256 On ch=10 n=51 v=92
14257 On ch=10 n=44 v=0
14257 On ch=10 n=51 v=0
14284 On ch=10 n=40 v=78
14285 On ch=10 n=40 v=0
14292 On ch=10 n=40 v=64
14293 On ch=10 n=40 v=0
14304 On ch=10 n=44 v=92
14304 On ch=10 n=51 v=92
14305 On ch=10 n=44 v=0
14305 On ch=10 n=51 v=0
14328 On ch=10 n=36 v=64
14329 On ch=10 n=36 v=0
14352 On ch=10 n=44 v=92
14352 On ch=10 n=51 v=92
14353 On ch=10 n=44 v=0
14353 On ch=10 n=51 v=0
14376 On ch=10 n=36 v=50
14377 On ch=10 n=36 v=0
14400 On ch=10 n=40 v=78
14400 On ch=10 n=44 v=92
14400 On ch=10 n=51 v=92
14401 On ch=10 n=40 v=0
14401 On ch=10 n=44 v=0
14401 On ch=10 n=51 v=0
14448 On ch=10 n=44 v=92
14448 On ch=10 n=51 v=92
14449 On ch=10 n=44 v=0
14449 On ch=10 n=51 v=0
14476 On ch=10 n=40 v=78
14477 On ch=10 n=40 v=0
14484 On ch=10 n=40 v=50
14485 On ch=10 n=40 v=0
14496 On ch=10 n=36 v=64
14496 On ch=10 n=44 v=92
14496 On ch=10 n=51 v=92
14497 On ch=10 n=36 v=0
14497 On ch=10 n=44 v=0
14497 On ch=10 n=51 v=0
14544 On ch=10 n=44 v=92
14544 On ch=10 n=51 v=92
14545 On ch=10 n=44 v=0
14545 On ch=10 n=51 v=0
14568 On ch=10 n=36 v=50
14569 On ch=10 n=36 v=0
14592 On ch=10 n=40 v=78
14592 On ch=10 n=44 v=92
14592 On ch=10 n=51 v=92
14593 On ch=10 n=40 v=0
14593 On ch=10 n=44 v=0
14593 On ch=10 n=51 v=0
14640 On ch=10 n=44 v=92
14640 On ch=10 n=51 v=92
14641 On ch=10 n=44 v=0
14641 On ch=10 n=51 v=0
14664 On ch=10 n=36 v=50
14665 On ch=10 n=36 v=0
14688 On ch=10 n=40 v=78
14688 On ch=10 n=44 v=92
14688 On ch=10 n=51 v=92
14689 On ch=10 n=40 v=0
14689 On ch=10 n=44 v=0
14689 On ch=10 n=51 v=0
14736 On ch=10 n=40 v=64
14736 On ch=10 n=44 v=92
14736 On ch=10 n=51 v=92
14737 On ch=10 n=40 v=0
14737 On ch=10 n=44 v=0
14737 On ch=10 n=51 v=0
14760 On ch=10 n=44 v=92
14760 On ch=10 n=40 v=36
14761 On ch=10 n=44 v=0
14761 On ch=10 n=40 v=0
14784 On ch=10 n=40 v=64
14784 On ch=10 n=44 v=92
14784 On ch=10 n=51 v=92
14785 On ch=10 n=40 v=0
14785 On ch=10 n=44 v=0
14785 On ch=10 n=51 v=0
14808 On ch=10 n=44 v=92
14808 On ch=10 n=40 v=50
14809 On ch=10 n=44 v=0
14809 On ch=10 n=40 v=0
14832 On ch=10 n=40 v=78
14832 On ch=10 n=44 v=92
14832 On ch=10 n=51 v=92
14833 On ch=10 n=40 v=0
14833 On ch=10 n=44 v=0
14833 On ch=10 n=51 v=0
14880 On ch=10 n=45 v=78
14880 On ch=10 n=44 v=92
14881 On ch=10 n=45 v=0
14881 On ch=10 n=44 v=0
14928 On ch=10 n=51 v=64
14928 On ch=10 n=45 v=78
14928 On ch=10 n=44 v=92
14929 On ch=10 n=51 v=0
14929 On ch=10 n=45 v=0
14929 On ch=10 n=44 v=0
14952 On ch=10 n=36 v=64
14953 On ch=10 n=36 v=0
14976 On ch=10 n=44 v=92
14977 On ch=10 n=44 v=0
15000 On ch=10 n=36 v=50
15001 On ch=10 n=36 v=0
15024 On ch=10 n=51 v=64
15024 On ch=10 n=45 v=78
15024 On ch=10 n=44 v=92
15025 On ch=10 n=51 v=0
15025 On ch=10 n=45 v=0
15025 On ch=10 n=44 v=0
15072 On ch=10 n=45 v=78
15072 On ch=10 n=51 v=64
15072 On ch=10 n=44 v=92
15073 On ch=10 n=45 v=0
15073 On ch=10 n=51 v=0
15073 On ch=10 n=44 v=0
15096 On ch=10 n=36 v=64
15097 On ch=10 n=36 v=0
15120 On ch=10 n=44 v=92
15121 On ch=10 n=44 v=0
15144 On ch=10 n=36 v=50
15145 On ch=10 n=36 v=0
15168 On ch=10 n=51 v=64
15168 On ch=10 n=45 v=78
15168 On ch=10 n=44 v=92
15169 On ch=10 n=51 v=0
15169 On ch=10 n=45 v=0
15169 On ch=10 n=44 v=0
15216 On ch=10 n=51 v=64
15216 On ch=10 n=45 v=78
15216 On ch=10 n=44 v=92
15217 On ch=10 n=51 v=0
15217 On ch=10 n=45 v=0
15217 On ch=10 n=44 v=0
15264 On ch=10 n=44 v=92
15265 On ch=10 n=44 v=0
15312 On ch=10 n=51 v=64
15312 On ch=10 n=45 v=78
15312 On ch=10 n=44 v=92
15313 On ch=10 n=51 v=0
15313 On ch=10 n=45 v=0
15313 On ch=10 n=44 v=0
15336 On ch=10 n=36 v=64
15337 On ch=10 n=36 v=0
15360 On ch=10 n=44 v=92
15361 On ch=10 n=44 v=0
15384 On ch=10 n=36 v=50
15385 On ch=10 n=36 v=0
15408 On ch=10 n=51 v=64
15408 On ch=10 n=45 v=78
15408 On ch=10 n=44 v=92
15409 On ch=10 n=51 v=0
15409 On ch=10 n=45 v=0
15409 On ch=10 n=44 v=0
15456 On ch=10 n=45 v=78
15456 On ch=10 n=51 v=64
15456 On ch=10 n=44 v=92
15457 On ch=10 n=45 v=0
15457 On ch=10 n=51 v=0
15457 On ch=10 n=44 v=0
15480 On ch=10 n=36 v=64
15481 On ch=10 n=36 v=0
15504 On ch=10 n=44 v=92
15505 On ch=10 n=44 v=0
15528 On ch=10 n=36 v=50
15529 On ch=10 n=36 v=0
15552 On ch=10 n=51 v=64
15552 On ch=10 n=45 v=78
15552 On ch=10 n=44 v=92
15553 On ch=10 n=51 v=0
15553 On ch=10 n=45 v=0
15553 On ch=10 n=44 v=0
15600 On ch=10 n=51 v=64
15600 On ch=10 n=45 v=78
15600 On ch=10 n=44 v=92
15601 On ch=10 n=51 v=0
15601 On ch=10 n=45 v=0
15601 On ch=10 n=44 v=0
15648 On ch=10 n=44 v=92
15649 On ch=10 n=44 v=0
15696 On ch=10 n=40 v=92
15696 On ch=10 n=51 v=64
15696 On ch=10 n=44 v=92
15697 On ch=10 n=40 v=0
15697 On ch=10 n=51 v=0
15697 On ch=10 n=44 v=0
15720 On ch=10 n=36 v=64
15721 On ch=10 n=36 v=0
15744 On ch=10 n=44 v=92
15745 On ch=10 n=44 v=0
15768 On ch=10 n=36 v=50
15769 On ch=10 n=36 v=0
15792 On ch=10 n=51 v=64
15792 On ch=10 n=45 v=78
15792 On ch=10 n=44 v=92
15793 On ch=10 n=51 v=0
15793 On ch=10 n=45 v=0
15793 On ch=10 n=44 v=0
15840 On ch=10 n=45 v=78
15840 On ch=10 n=51 v=64
15840 On ch=10 n=44 v=92
15841 On ch=10 n=45 v=0
15841 On ch=10 n=51 v=0
15841 On ch=10 n=44 v=0
15864 On ch=10 n=36 v=64
15865 On ch=10 n=36 v=0
15888 On ch=10 n=44 v=92
15889 On ch=10 n=44 v=0
15912 On ch=10 n=36 v=50
15913 On ch=10 n=36 v=0
15936 On ch=10 n=40 v=92
15936 On ch=10 n=51 v=64
15936 On ch=10 n=44 v=92
15937 On ch=10 n=40 v=0
15937 On ch=10 n=51 v=0
15937 On ch=10 n=44 v=0
15984 On ch=10 n=40 v=92
15984 On ch=10 n=51 v=64
15984 On ch=10 n=44 v=92
15985 On ch=10 n=40 v=0
15985 On ch=10 n=51 v=0
15985 On ch=10 n=44 v=0
16032 On ch=10 n=44 v=92
16033 On ch=10 n=44 v=0
16080 On ch=10 n=51 v=64
16080 On ch=10 n=45 v=78
16080 On ch=10 n=44 v=92
16081 On ch=10 n=51 v=0
16081 On ch=10 n=45 v=0
16081 On ch=10 n=44 v=0
16104 On ch=10 n=36 v=64
16105 On ch=10 n=36 v=0
16128 On ch=10 n=44 v=92
16129 On ch=10 n=44 v=0
16176 On ch=10 n=51 v=64
16176 On ch=10 n=45 v=78
16176 On ch=10 n=44 v=92
16177 On ch=10 n=51 v=0
16177 On ch=10 n=45 v=0
16177 On ch=10 n=44 v=0
16224 On ch=10 n=51 v=64
16224 On ch=10 n=42 v=78
16225 On ch=10 n=51 v=0
16225 On ch=10 n=42 v=0
16248 On ch=10 n=40 v=78
16249 On ch=10 n=40 v=0
16272 On ch=10 n=51 v=64
16272 On ch=10 n=42 v=78
16273 On ch=10 n=51 v=0
16273 On ch=10 n=42 v=0
16296 On ch=10 n=36 v=64
16297 On ch=10 n=36 v=0
16320 On ch=10 n=51 v=64
16320 On ch=10 n=42 v=78
16321 On ch=10 n=51 v=0
16321 On ch=10 n=42 v=0
16344 On ch=10 n=45 v=78
16345 On ch=10 n=45 v=0
16368 On ch=10 n=51 v=64
16368 On ch=10 n=42 v=78
16369 On ch=10 n=51 v=0
16369 On ch=10 n=42 v=0
16392 On ch=10 n=36 v=78
16393 On ch=10 n=36 v=0
16416 On ch=10 n=40 v=78
16416 On ch=10 n=51 v=64
16417 On ch=10 n=40 v=0
16417 On ch=10 n=51 v=0
16464 On ch=10 n=40 v=78
16464 On ch=10 n=51 v=64
16465 On ch=10 n=40 v=0
16465 On ch=10 n=51 v=0
16488 On ch=10 n=36 v=22
16489 On ch=10 n=36 v=0
16512 On ch=10 n=51 v=64
16513 On ch=10 n=51 v=0
16536 On ch=10 n=36 v=64
16537 On ch=10 n=36 v=0
16560 On ch=10 n=44 v=64
16560 On ch=10 n=40 v=92
16560 On ch=10 n=51 v=64
16561 On ch=10 n=44 v=0
16561 On ch=10 n=40 v=0
16561 On ch=10 n=51 v=0
16608 On ch=10 n=44 v=92
16608 On ch=10 n=51 v=64
16609 On ch=10 n=44 v=0
16609 On ch=10 n=51 v=0
16632 On ch=10 n=40 v=78
16633 On ch=10 n=40 v=0
16656 On ch=10 n=44 v=92
16656 On ch=10 n=51 v=64
16657 On ch=10 n=44 v=0
16657 On ch=10 n=51 v=0
16680 On ch=10 n=36 v=64
16681 On ch=10 n=36 v=0
16704 On ch=10 n=44 v=92
16704 On ch=10 n=45 v=64
16704 On ch=10 n=51 v=78
16705 On ch=10 n=44 v=0
16705 On ch=10 n=45 v=0
16705 On ch=10 n=51 v=0
16752 On ch=10 n=44 v=92
16752 On ch=10 n=45 v=64
16752 On ch=10 n=51 v=92
16753 On ch=10 n=44 v=0
16753 On ch=10 n=45 v=0
16753 On ch=10 n=51 v=0
16800 On ch=10 n=44 v=106
16800 On ch=10 n=36 v=78
16800 On ch=10 n=49 v=106
16800 On ch=10 n=51 v=92
16801 On ch=10 n=44 v=0
16801 On ch=10 n=36 v=0
16801 On ch=10 n=49 v=0
16801 On ch=10 n=51 v=0
16848 On ch=10 n=51 v=92
16849 On ch=10 n=51 v=0
16896 On ch=10 n=40 v=92
16896 On ch=10 n=51 v=92
16897 On ch=10 n=40 v=0
16897 On ch=10 n=51 v=0
16944 On ch=10 n=51 v=92
16945 On ch=10 n=51 v=0
16968 On ch=10 n=40 v=78
16969 On ch=10 n=40 v=0
16976 On ch=10 n=40 v=64
16977 On ch=10 n=40 v=0
16992 On ch=10 n=44 v=78
16992 On ch=10 n=51 v=92
16993 On ch=10 n=44 v=0
16993 On ch=10 n=51 v=0
17016 On ch=10 n=40 v=92
17017 On ch=10 n=40 v=0
17040 On ch=10 n=44 v=78
17040 On ch=10 n=51 v=92
17041 On ch=10 n=44 v=0
17041 On ch=10 n=51 v=0
17064 On ch=10 n=36 v=64
17065 On ch=10 n=36 v=0
17088 On ch=10 n=44 v=78
17088 On ch=10 n=40 v=92
17088 On ch=10 n=51 v=92
17089 On ch=10 n=44 v=0
17089 On ch=10 n=40 v=0
17089 On ch=10 n=51 v=0
17136 On ch=10 n=36 v=64
17137 On ch=10 n=36 v=0
17184 On ch=10 n=51 v=92
17184 On ch=10 n=36 v=64
17185 On ch=10 n=51 v=0
17185 On ch=10 n=36 v=0
17232 On ch=10 n=45 v=78
17232 On ch=10 n=44 v=92
17232 On ch=10 n=51 v=64
17233 On ch=10 n=45 v=0
17233 On ch=10 n=44 v=0
17233 On ch=10 n=51 v=0
17280 On ch=10 n=45 v=78
17280 On ch=10 n=44 v=92
17280 On ch=10 n=51 v=64
17281 On ch=10 n=45 v=0
17281 On ch=10 n=44 v=0
17281 On ch=10 n=51 v=0
17328 On ch=10 n=44 v=92
17328 On ch=10 n=51 v=64
17329 On ch=10 n=44 v=0
17329 On ch=10 n=51 v=0
17352 On ch=10 n=40 v=92
17353 On ch=10 n=40 v=0
17376 On ch=10 n=44 v=92
17376 On ch=10 n=51 v=64
17377 On ch=10 n=44 v=0
17377 On ch=10 n=51 v=0
17400 On ch=10 n=36 v=64
17401 On ch=10 n=36 v=0
17424 On ch=10 n=44 v=92
17424 On ch=10 n=51 v=64
17425 On ch=10 n=44 v=0
17425 On ch=10 n=51 v=0
17448 On ch=10 n=45 v=78
17449 On ch=10 n=45 v=0
17472 On ch=10 n=44 v=92
17472 On ch=10 n=51 v=64
17473 On ch=10 n=44 v=0
17473 On ch=10 n=51 v=0
17496 On ch=10 n=36 v=50
17497 On ch=10 n=36 v=0
17520 On ch=10 n=40 v=106
17520 On ch=10 n=49 v=64
17521 On ch=10 n=40 v=0
17521 On ch=10 n=49 v=0
17568 On ch=10 n=40 v=92
17569 On ch=10 n=40 v=0
17592 On ch=10 n=36 v=64
17593 On ch=10 n=36 v=0
17616 On ch=10 n=44 v=92
17616 On ch=10 n=51 v=64
17617 On ch=10 n=44 v=0
17617 On ch=10 n=51 v=0
17640 On ch=10 n=40 v=78
17641 On ch=10 n=40 v=0
17664 On ch=10 n=44 v=92
17664 On ch=10 n=51 v=64
17665 On ch=10 n=44 v=0
17665 On ch=10 n=51 v=0
17688 On ch=10 n=36 v=50
17689 On ch=10 n=36 v=0
17712 On ch=10 n=44 v=92
17712 On ch=10 n=51 v=64
17713 On ch=10 n=44 v=0
17713 On ch=10 n=51 v=0
17736 On ch=10 n=45 v=78
17737 On ch=10 n=45 v=0
17760 On ch=10 n=44 v=92
17760 On ch=10 n=51 v=64
17761 On ch=10 n=44 v=0
17761 On ch=10 n=51 v=0
17784 On ch=10 n=36 v=64
17785 On ch=10 n=36 v=0
17808 On ch=10 n=45 v=78
17808 On ch=10 n=44 v=92
17808 On ch=10 n=51 v=64
17809 On ch=10 n=45 v=0
17809 On ch=10 n=44 v=0
17809 On ch=10 n=51 v=0
17856 On ch=10 n=45 v=78
17856 On ch=10 n=44 v=92
17856 On ch=10 n=51 v=64
17857 On ch=10 n=45 v=0
17857 On ch=10 n=44 v=0
17857 On ch=10 n=51 v=0
17904 On ch=10 n=36 v=64
17904 On ch=10 n=44 v=78
17904 On ch=10 n=51 v=64
17905 On ch=10 n=36 v=0
17905 On ch=10 n=44 v=0
17905 On ch=10 n=51 v=0
17952 On ch=10 n=45 v=78
17952 On ch=10 n=44 v=78
17952 On ch=10 n=51 v=64
17953 On ch=10 n=45 v=0
17953 On ch=10 n=44 v=0
17953 On ch=10 n=51 v=0
17976 On ch=10 n=36 v=64
17977 On ch=10 n=36 v=0
18000 On ch=10 n=44 v=78
18000 On ch=10 n=51 v=64
18001 On ch=10 n=44 v=0
18001 On ch=10 n=51 v=0
18024 On ch=10 n=36 v=64
18025 On ch=10 n=36 v=0
18048 On ch=10 n=45 v=78
18048 On ch=10 n=44 v=78
18048 On ch=10 n=51 v=64
18049 On ch=10 n=45 v=0
18049 On ch=10 n=44 v=0
18049 On ch=10 n=51 v=0
18096 On ch=10 n=45 v=64
18096 On ch=10 n=44 v=78
18096 On ch=10 n=51 v=64
18097 On ch=10 n=45 v=0
18097 On ch=10 n=44 v=0
18097 On ch=10 n=51 v=0
18120 On ch=10 n=36 v=64
18121 On ch=10 n=36 v=0
18144 On ch=10 n=44 v=78
18144 On ch=10 n=51 v=64
18145 On ch=10 n=44 v=0
18145 On ch=10 n=51 v=0
18168 On ch=10 n=36 v=64
18169 On ch=10 n=36 v=0
18192 On ch=10 n=36 v=50
18192 On ch=10 n=45 v=64
18192 On ch=10 n=44 v=78
18192 On ch=10 n=51 v=64
18193 On ch=10 n=36 v=0
18193 On ch=10 n=45 v=0
18193 On ch=10 n=44 v=0
18193 On ch=10 n=51 v=0
18240 On ch=10 n=45 v=64
18240 On ch=10 n=44 v=78
18240 On ch=10 n=51 v=64
18241 On ch=10 n=45 v=0
18241 On ch=10 n=44 v=0
18241 On ch=10 n=51 v=0
18288 On ch=10 n=36 v=64
18288 On ch=10 n=44 v=78
18288 On ch=10 n=51 v=64
18289 On ch=10 n=36 v=0
18289 On ch=10 n=44 v=0
18289 On ch=10 n=51 v=0
18336 On ch=10 n=45 v=64
18336 On ch=10 n=44 v=78
18336 On ch=10 n=51 v=64
18337 On ch=10 n=45 v=0
18337 On ch=10 n=44 v=0
18337 On ch=10 n=51 v=0
18360 On ch=10 n=36 v=64
18361 On ch=10 n=36 v=0
18384 On ch=10 n=44 v=78
18384 On ch=10 n=51 v=64
18385 On ch=10 n=44 v=0
18385 On ch=10 n=51 v=0
18408 On ch=10 n=36 v=50
18409 On ch=10 n=36 v=0
18432 On ch=10 n=45 v=64
18432 On ch=10 n=44 v=78
18432 On ch=10 n=51 v=64
18433 On ch=10 n=45 v=0
18433 On ch=10 n=44 v=0
18433 On ch=10 n=51 v=0
18480 On ch=10 n=45 v=64
18480 On ch=10 n=44 v=78
18480 On ch=10 n=51 v=64
18481 On ch=10 n=45 v=0
18481 On ch=10 n=44 v=0
18481 On ch=10 n=51 v=0
18504 On ch=10 n=36 v=64
18505 On ch=10 n=36 v=0
18528 On ch=10 n=44 v=78
18528 On ch=10 n=51 v=64
18529 On ch=10 n=44 v=0
18529 On ch=10 n=51 v=0
18552 On ch=10 n=36 v=50
18553 On ch=10 n=36 v=0
18576 On ch=10 n=45 v=64
18576 On ch=10 n=44 v=78
18576 On ch=10 n=51 v=64
18577 On ch=10 n=45 v=0
18577 On ch=10 n=44 v=0
18577 On ch=10 n=51 v=0
18624 On ch=10 n=36 v=64
18624 On ch=10 n=45 v=64
18624 On ch=10 n=44 v=78
18624 On ch=10 n=51 v=64
18625 On ch=10 n=36 v=0
18625 On ch=10 n=45 v=0
18625 On ch=10 n=44 v=0
18625 On ch=10 n=51 v=0
18648 On ch=10 n=36 v=50
18649 On ch=10 n=36 v=0
18672 On ch=10 n=51 v=64
18672 On ch=10 n=44 v=78
18672 On ch=10 n=36 v=64
18673 On ch=10 n=51 v=0
18673 On ch=10 n=44 v=0
18673 On ch=10 n=36 v=0
18696 On ch=10 n=36 v=50
18697 On ch=10 n=36 v=0
18720 On ch=10 n=44 v=78
18720 On ch=10 n=40 v=78
18721 On ch=10 n=44 v=0
18721 On ch=10 n=40 v=0
18768 On ch=10 n=44 v=78
18768 On ch=10 n=40 v=78
18769 On ch=10 n=44 v=0
18769 On ch=10 n=40 v=0
18792 On ch=10 n=36 v=64
18793 On ch=10 n=36 v=0
18816 On ch=10 n=51 v=64
18816 On ch=10 n=44 v=78
18817 On ch=10 n=51 v=0
18817 On ch=10 n=44 v=0
18840 On ch=10 n=36 v=50
18841 On ch=10 n=36 v=0
18864 On ch=10 n=44 v=78
18864 On ch=10 n=40 v=78
18865 On ch=10 n=44 v=0
18865 On ch=10 n=40 v=0
18912 On ch=10 n=44 v=78
18912 On ch=10 n=40 v=78
18913 On ch=10 n=44 v=0
18913 On ch=10 n=40 v=0
18936 On ch=10 n=36 v=64
18937 On ch=10 n=36 v=0
18960 On ch=10 n=51 v=64
18960 On ch=10 n=44 v=78
18961 On ch=10 n=51 v=0
18961 On ch=10 n=44 v=0
18984 On ch=10 n=36 v=50
18985 On ch=10 n=36 v=0
19008 On ch=10 n=44 v=78
19008 On ch=10 n=40 v=92
19009 On ch=10 n=44 v=0
19009 On ch=10 n=40 v=0
19032 On ch=10 n=40 v=64
19033 On ch=10 n=40 v=0
19040 On ch=10 n=40 v=50
19041 On ch=10 n=40 v=0
19056 On ch=10 n=44 v=92
19056 On ch=10 n=36 v=64
19056 On ch=10 n=49 v=92
19057 On ch=10 n=44 v=0
19057 On ch=10 n=36 v=0
19057 On ch=10 n=49 v=0
19104 On ch=10 n=44 v=78
19104 On ch=10 n=51 v=78
19105 On ch=10 n=44 v=0
19105 On ch=10 n=51 v=0
19152 On ch=10 n=44 v=92
19152 On ch=10 n=51 v=92
19152 On ch=10 n=40 v=92
19153 On ch=10 n=44 v=0
19153 On ch=10 n=51 v=0
19153 On ch=10 n=40 v=0
19200 On ch=10 n=44 v=92
19200 On ch=10 n=51 v=92
19201 On ch=10 n=44 v=0
19201 On ch=10 n=51 v=0
19224 On ch=10 n=40 v=64
19225 On ch=10 n=40 v=0
19232 On ch=10 n=40 v=64
19233 On ch=10 n=40 v=0
19248 On ch=10 n=40 v=106
19249 On ch=10 n=40 v=0
19264 On ch=10 n=40 v=106
19265 On ch=10 n=40 v=0
19280 On ch=10 n=45 v=78
19281 On ch=10 n=45 v=0
19296 On ch=10 n=45 v=78
19297 On ch=10 n=45 v=0
19312 On ch=10 n=45 v=64
19313 On ch=10 n=45 v=0
19328 On ch=10 n=45 v=64
19329 On ch=10 n=45 v=0
19344 On ch=10 n=41 v=64
19345 On ch=10 n=41 v=0
19392 On ch=10 n=36 v=78
19392 On ch=10 n=49 v=106
19393 On ch=10 n=36 v=0
19393 On ch=10 n=49 v=0
19608 On ch=10 n=49 v=120
19608 On ch=10 n=36 v=120
19609 On ch=10 n=49 v=0
19609 On ch=10 n=36 v=0
19632 Par ch=10 c=11 v=0
19823 Par ch=10 c=11 v=116
19824 On ch=10 n=36 v=64
19824 On ch=10 n=51 v=78
19824 On ch=10 n=44 v=92
19824 On ch=10 n=54 v=92
19824 On ch=10 n=49 v=92
19825 On ch=10 n=36 v=0
19825 On ch=10 n=51 v=0
19825 On ch=10 n=44 v=0
19825 On ch=10 n=54 v=0
19825 On ch=10 n=49 v=0
19920 On ch=10 n=36 v=64
19920 On ch=10 n=51 v=78
19920 On ch=10 n=44 v=92
19920 On ch=10 n=54 v=92
19920 On ch=10 n=49 v=92
19921 On ch=10 n=36 v=0
19921 On ch=10 n=51 v=0
19921 On ch=10 n=44 v=0
19921 On ch=10 n=54 v=0
19921 On ch=10 n=49 v=0
20016 On ch=10 n=51 v=64
20016 On ch=10 n=54 v=64
20016 On ch=10 n=44 v=78
20017 On ch=10 n=51 v=0
20017 On ch=10 n=54 v=0
20017 On ch=10 n=44 v=0
20112 On ch=10 n=51 v=64
20112 On ch=10 n=54 v=64
20112 On ch=10 n=44 v=78
20113 On ch=10 n=51 v=0
20113 On ch=10 n=54 v=0
20113 On ch=10 n=44 v=0
20200 On ch=10 n=51 v=64
20201 On ch=10 n=51 v=0
20208 On ch=10 n=40 v=92
20208 On ch=10 n=54 v=64
20208 On ch=10 n=44 v=78
20209 On ch=10 n=40 v=0
20209 On ch=10 n=54 v=0
20209 On ch=10 n=44 v=0
20296 On ch=10 n=51 v=64
20297 On ch=10 n=51 v=0
20304 On ch=10 n=40 v=92
20304 On ch=10 n=54 v=64
20304 On ch=10 n=44 v=78
20305 On ch=10 n=40 v=0
20305 On ch=10 n=54 v=0
20305 On ch=10 n=44 v=0
20392 On ch=10 n=51 v=64
20393 On ch=10 n=51 v=0
20400 On ch=10 n=40 v=92
20400 On ch=10 n=44 v=78
20401 On ch=10 n=40 v=0
20401 On ch=10 n=44 v=0
20488 On ch=10 n=51 v=64
20489 On ch=10 n=51 v=0
20496 On ch=10 n=40 v=92
20496 On ch=10 n=44 v=78
20497 On ch=10 n=40 v=0
20497 On ch=10 n=44 v=0
20584 On ch=10 n=51 v=64
20585 On ch=10 n=51 v=0
20592 On ch=10 n=40 v=92
20592 On ch=10 n=54 v=64
20592 On ch=10 n=44 v=78
20593 On ch=10 n=40 v=0
20593 On ch=10 n=54 v=0
20593 On ch=10 n=44 v=0
20640 On ch=10 n=40 v=92
20640 On ch=10 n=51 v=64
20640 On ch=10 n=54 v=78
20640 On ch=10 n=44 v=78
20641 On ch=10 n=40 v=0
20641 On ch=10 n=51 v=0
20641 On ch=10 n=54 v=0
20641 On ch=10 n=44 v=0
20688 On ch=10 n=36 v=64
20688 On ch=10 n=51 v=78
20688 On ch=10 n=44 v=92
20688 On ch=10 n=54 v=92
20688 On ch=10 n=49 v=92
20689 On ch=10 n=36 v=0
20689 On ch=10 n=51 v=0
20689 On ch=10 n=44 v=0
20689 On ch=10 n=54 v=0
20689 On ch=10 n=49 v=0
20784 On ch=10 n=36 v=64
20784 On ch=10 n=51 v=78
20784 On ch=10 n=44 v=92
20784 On ch=10 n=54 v=92
20784 On ch=10 n=49 v=92
20785 On ch=10 n=36 v=0
20785 On ch=10 n=51 v=0
20785 On ch=10 n=44 v=0
20785 On ch=10 n=54 v=0
20785 On ch=10 n=49 v=0
20880 On ch=10 n=40 v=92
20880 On ch=10 n=51 v=78
20881 On ch=10 n=40 v=0
20881 On ch=10 n=51 v=0
20928 On ch=10 n=51 v=78
20929 On ch=10 n=51 v=0
20952 On ch=10 n=40 v=50
20953 On ch=10 n=40 v=0
20960 On ch=10 n=40 v=78
20961 On ch=10 n=40 v=0
20976 On ch=10 n=36 v=64
20976 On ch=10 n=51 v=78
20977 On ch=10 n=36 v=0
20977 On ch=10 n=51 v=0
21024 On ch=10 n=36 v=50
21024 On ch=10 n=51 v=78
21025 On ch=10 n=36 v=0
21025 On ch=10 n=51 v=0
21072 On ch=10 n=40 v=92
21072 On ch=10 n=51 v=78
21073 On ch=10 n=40 v=0
21073 On ch=10 n=51 v=0
21120 On ch=10 n=51 v=78
21121 On ch=10 n=51 v=0
21144 On ch=10 n=40 v=78
21145 On ch=10 n=40 v=0
21152 On ch=10 n=40 v=50
21153 On ch=10 n=40 v=0
21160 On ch=10 n=40 v=36
21161 On ch=10 n=40 v=0
21168 On ch=10 n=51 v=78
21169 On ch=10 n=51 v=0
21192 On ch=10 n=36 v=64
21193 On ch=10 n=36 v=0
21216 On ch=10 n=51 v=78
21217 On ch=10 n=51 v=0
21240 On ch=10 n=40 v=92
21241 On ch=10 n=40 v=0
21264 On ch=10 n=51 v=78
21265 On ch=10 n=51 v=0
21288 On ch=10 n=36 v=50
21289 On ch=10 n=36 v=0
21312 On ch=10 n=40 v=92
21312 On ch=10 n=51 v=78
21313 On ch=10 n=40 v=0
21313 On ch=10 n=51 v=0
21360 On ch=10 n=40 v=78
21360 On ch=10 n=51 v=78
21361 On ch=10 n=40 v=0
21361 On ch=10 n=51 v=0
21384 On ch=10 n=36 v=64
21385 On ch=10 n=36 v=0
21408 On ch=10 n=51 v=78
21409 On ch=10 n=51 v=0
21432 On ch=10 n=40 v=92
21433 On ch=10 n=40 v=0
21456 On ch=10 n=51 v=78
21457 On ch=10 n=51 v=0
21480 On ch=10 n=36 v=50
21481 On ch=10 n=36 v=0
21504 On ch=10 n=40 v=92
21504 On ch=10 n=51 v=78
21505 On ch=10 n=40 v=0
21505 On ch=10 n=51 v=0
21552 On ch=10 n=44 v=92
21552 On ch=10 n=49 v=92
21552 On ch=10 n=51 v=78
21552 On ch=10 n=36 v=64
21553 On ch=10 n=44 v=0
21553 On ch=10 n=49 v=0
21553 On ch=10 n=51 v=0
21553 On ch=10 n=36 v=0
21600 On ch=10 n=44 v=92
21601 On ch=10 n=44 v=0
21648 On ch=10 n=49 v=92
21648 On ch=10 n=51 v=78
21648 On ch=10 n=36 v=64
21649 On ch=10 n=49 v=0
21649 On ch=10 n=51 v=0
21649 On ch=10 n=36 v=0
21744 On ch=10 n=51 v=78
21745 On ch=10 n=51 v=0
21842 On ch=10 n=51 v=64
21842 On ch=10 n=40 v=64
21843 On ch=10 n=51 v=0
21843 On ch=10 n=40 v=0
21857 On ch=10 n=51 v=50
21857 On ch=10 n=40 v=64
21858 On ch=10 n=51 v=0
21858 On ch=10 n=40 v=0
21872 On ch=10 n=51 v=64
21872 On ch=10 n=40 v=40
21873 On ch=10 n=51 v=0
21873 On ch=10 n=40 v=0
21888 On ch=10 n=51 v=64
21888 On ch=10 n=40 v=75
21889 On ch=10 n=51 v=0
21889 On ch=10 n=40 v=0
21936 On ch=10 n=44 v=78
21937 On ch=10 n=44 v=0
21987 On ch=10 n=40 v=64
21988 On ch=10 n=40 v=0
22002 On ch=10 n=40 v=62
22003 On ch=10 n=40 v=0
22017 On ch=10 n=51 v=64
22017 On ch=10 n=40 v=22
22018 On ch=10 n=51 v=0
22018 On ch=10 n=40 v=0
22032 On ch=10 n=40 v=64
22033 On ch=10 n=40 v=0
22131 On ch=10 n=40 v=64
22132 On ch=10 n=40 v=0
22146 On ch=10 n=40 v=60
22147 On ch=10 n=40 v=0
22161 On ch=10 n=51 v=64
22161 On ch=10 n=40 v=10
22162 On ch=10 n=51 v=0
22162 On ch=10 n=40 v=0
22178 On ch=10 n=40 v=73
22179 On ch=10 n=40 v=0
22224 On ch=10 n=42 v=64
22224 On ch=10 n=36 v=64
22225 On ch=10 n=42 v=0
22225 On ch=10 n=36 v=0
22272 On ch=10 n=42 v=64
22272 On ch=10 n=36 v=50
22273 On ch=10 n=42 v=0
22273 On ch=10 n=36 v=0
22320 On ch=10 n=42 v=64
22320 On ch=10 n=40 v=78
22321 On ch=10 n=42 v=0
22321 On ch=10 n=40 v=0
22368 On ch=10 n=42 v=64
22369 On ch=10 n=42 v=0
22396 On ch=10 n=40 v=64
22397 On ch=10 n=40 v=0
22404 On ch=10 n=40 v=50
22405 On ch=10 n=40 v=0
22416 On ch=10 n=42 v=64
22417 On ch=10 n=42 v=0
22440 On ch=10 n=36 v=64
22441 On ch=10 n=36 v=0
22464 On ch=10 n=42 v=64
22465 On ch=10 n=42 v=0
22488 On ch=10 n=36 v=50
22489 On ch=10 n=36 v=0
22512 On ch=10 n=51 v=78
22512 On ch=10 n=46 v=78
22512 On ch=10 n=40 v=92
22513 On ch=10 n=51 v=0
22513 On ch=10 n=46 v=0
22513 On ch=10 n=40 v=0
22584 On ch=10 n=42 v=64
22585 On ch=10 n=42 v=0
22608 On ch=10 n=44 v=92
22608 On ch=10 n=49 v=92
22608 On ch=10 n=51 v=78
22608 On ch=10 n=36 v=64
22609 On ch=10 n=44 v=0
22609 On ch=10 n=49 v=0
22609 On ch=10 n=51 v=0
22609 On ch=10 n=36 v=0
22704 On ch=10 n=49 v=92
22704 On ch=10 n=51 v=78
22704 On ch=10 n=36 v=64
22705 On ch=10 n=49 v=0
22705 On ch=10 n=51 v=0
22705 On ch=10 n=36 v=0
22800 On ch=10 n=51 v=78
22801 On ch=10 n=51 v=0
22898 On ch=10 n=40 v=64
22899 On ch=10 n=40 v=0
22913 On ch=10 n=40 v=64
22914 On ch=10 n=40 v=0
22928 On ch=10 n=40 v=40
22929 On ch=10 n=40 v=0
22944 On ch=10 n=51 v=78
22944 On ch=10 n=40 v=75
22945 On ch=10 n=51 v=0
22945 On ch=10 n=40 v=0
23043 On ch=10 n=51 v=64
23043 On ch=10 n=40 v=64
23044 On ch=10 n=51 v=0
23044 On ch=10 n=40 v=0
23058 On ch=10 n=40 v=62
23059 On ch=10 n=40 v=0
23073 On ch=10 n=40 v=36
23074 On ch=10 n=40 v=0
23088 On ch=10 n=51 v=50
23088 On ch=10 n=40 v=64
23089 On ch=10 n=51 v=0
23089 On ch=10 n=40 v=0
23187 On ch=10 n=40 v=64
23188 On ch=10 n=40 v=0
23202 On ch=10 n=40 v=60
23203 On ch=10 n=40 v=0
23217 On ch=10 n=40 v=50
23218 On ch=10 n=40 v=0
23234 On ch=10 n=40 v=92
23235 On ch=10 n=40 v=0
23280 On ch=10 n=42 v=64
23280 On ch=10 n=36 v=64
23281 On ch=10 n=42 v=0
23281 On ch=10 n=36 v=0
23328 On ch=10 n=42 v=64
23328 On ch=10 n=36 v=50
23329 On ch=10 n=42 v=0
23329 On ch=10 n=36 v=0
23376 On ch=10 n=42 v=64
23376 On ch=10 n=40 v=78
23377 On ch=10 n=42 v=0
23377 On ch=10 n=40 v=0
23424 On ch=10 n=42 v=64
23425 On ch=10 n=42 v=0
23452 On ch=10 n=40 v=64
23453 On ch=10 n=40 v=0
23460 On ch=10 n=40 v=50
23461 On ch=10 n=40 v=0
23472 On ch=10 n=42 v=64
23473 On ch=10 n=42 v=0
23496 On ch=10 n=36 v=64
23497 On ch=10 n=36 v=0
23520 On ch=10 n=42 v=64
23521 On ch=10 n=42 v=0
23544 On ch=10 n=36 v=50
23545 On ch=10 n=36 v=0
23568 On ch=10 n=51 v=78
23568 On ch=10 n=46 v=78
23568 On ch=10 n=40 v=92
23569 On ch=10 n=51 v=0
23569 On ch=10 n=46 v=0
23569 On ch=10 n=40 v=0
23640 On ch=10 n=42 v=64
23641 On ch=10 n=42 v=0
23664 On ch=10 n=44 v=92
23664 On ch=10 n=49 v=92
23664 On ch=10 n=51 v=78
23664 On ch=10 n=36 v=64
23665 On ch=10 n=44 v=0
23665 On ch=10 n=49 v=0
23665 On ch=10 n=51 v=0
23665 On ch=10 n=36 v=0
23760 On ch=10 n=49 v=92
23760 On ch=10 n=51 v=78
23760 On ch=10 n=36 v=64
23761 On ch=10 n=49 v=0
23761 On ch=10 n=51 v=0
23761 On ch=10 n=36 v=0
23856 On ch=10 n=51 v=78
23857 On ch=10 n=51 v=0
23952 On ch=10 n=51 v=78
23953 On ch=10 n=51 v=0
24048 On ch=10 n=51 v=78
24049 On ch=10 n=51 v=0
24144 On ch=10 n=51 v=78
24145 On ch=10 n=51 v=0
24240 On ch=10 n=40 v=64
24241 On ch=10 n=40 v=0
24248 On ch=10 n=40 v=50
24249 On ch=10 n=40 v=0
24256 On ch=10 n=40 v=50
24257 On ch=10 n=40 v=0
24264 On ch=10 n=40 v=64
24265 On ch=10 n=40 v=0
24272 On ch=10 n=40 v=50
24273 On ch=10 n=40 v=0
24280 On ch=10 n=40 v=50
24281 On ch=10 n=40 v=0
24288 On ch=10 n=40 v=64
24289 On ch=10 n=40 v=0
24296 On ch=10 n=40 v=50
24297 On ch=10 n=40 v=0
24304 On ch=10 n=40 v=50
24305 On ch=10 n=40 v=0
24312 On ch=10 n=40 v=64
24313 On ch=10 n=40 v=0
24320 On ch=10 n=40 v=50
24321 On ch=10 n=40 v=0
24336 On ch=10 n=42 v=64
24336 On ch=10 n=36 v=64
24337 On ch=10 n=42 v=0
24337 On ch=10 n=36 v=0
24384 On ch=10 n=42 v=64
24384 On ch=10 n=36 v=50
24385 On ch=10 n=42 v=0
24385 On ch=10 n=36 v=0
24432 On ch=10 n=42 v=78
24432 On ch=10 n=40 v=78
24433 On ch=10 n=42 v=0
24433 On ch=10 n=40 v=0
24480 On ch=10 n=44 v=78
24481 On ch=10 n=44 v=0
24528 On ch=10 n=36 v=64
24528 On ch=10 n=49 v=64
24529 On ch=10 n=36 v=0
24529 On ch=10 n=49 v=0
24912 On ch=10 n=51 v=64
24912 On ch=10 n=44 v=64
24912 On ch=10 n=36 v=64
24913 On ch=10 n=51 v=0
24913 On ch=10 n=44 v=0
24913 On ch=10 n=36 v=0
24960 On ch=10 n=51 v=64
24960 On ch=10 n=44 v=64
24960 On ch=10 n=36 v=50
24961 On ch=10 n=51 v=0
24961 On ch=10 n=44 v=0
24961 On ch=10 n=36 v=0
25008 On ch=10 n=51 v=64
25008 On ch=10 n=44 v=64
25008 On ch=10 n=36 v=54
25009 On ch=10 n=51 v=0
25009 On ch=10 n=44 v=0
25009 On ch=10 n=36 v=0
25056 On ch=10 n=51 v=64
25056 On ch=10 n=44 v=64
25056 On ch=10 n=36 v=55
25057 On ch=10 n=51 v=0
25057 On ch=10 n=44 v=0
25057 On ch=10 n=36 v=0
25128 On ch=10 n=40 v=92
25129 On ch=10 n=40 v=0
25140 On ch=10 n=40 v=64
25141 On ch=10 n=40 v=0
25152 On ch=10 n=40 v=64
25153 On ch=10 n=40 v=0
25164 On ch=10 n=40 v=92
25165 On ch=10 n=40 v=0
25176 On ch=10 n=40 v=78
25177 On ch=10 n=40 v=0
25188 On ch=10 n=40 v=92
25189 On ch=10 n=40 v=0
25200 On ch=10 n=45 v=78
25201 On ch=10 n=45 v=0
25212 On ch=10 n=45 v=78
25213 On ch=10 n=45 v=0
25224 On ch=10 n=45 v=78
25225 On ch=10 n=45 v=0
25236 On ch=10 n=45 v=78
25237 On ch=10 n=45 v=0
25248 On ch=10 n=45 v=78
25249 On ch=10 n=45 v=0
25296 On ch=10 n=44 v=92
25296 On ch=10 n=51 v=92
25296 On ch=10 n=49 v=92
25296 On ch=10 n=36 v=64
25297 On ch=10 n=44 v=0
25297 On ch=10 n=51 v=0
25297 On ch=10 n=49 v=0
25297 On ch=10 n=36 v=0
25392 On ch=10 n=44 v=92
25392 On ch=10 n=51 v=92
25392 On ch=10 n=49 v=92
25392 On ch=10 n=36 v=64
25393 On ch=10 n=44 v=0
25393 On ch=10 n=51 v=0
25393 On ch=10 n=49 v=0
25393 On ch=10 n=36 v=0
25488 On ch=10 n=44 v=78
25488 On ch=10 n=51 v=50
25489 On ch=10 n=44 v=0
25489 On ch=10 n=51 v=0
25584 On ch=10 n=44 v=78
25584 On ch=10 n=51 v=50
25585 On ch=10 n=44 v=0
25585 On ch=10 n=51 v=0
25680 On ch=10 n=44 v=78
25680 On ch=10 n=51 v=50
25681 On ch=10 n=44 v=0
25681 On ch=10 n=51 v=0
25776 On ch=10 n=36 v=64
25776 On ch=10 n=51 v=50
25776 On ch=10 n=44 v=78
25777 On ch=10 n=36 v=0
25777 On ch=10 n=51 v=0
25777 On ch=10 n=44 v=0
25872 On ch=10 n=36 v=64
25872 On ch=10 n=44 v=78
25872 On ch=10 n=51 v=50
25873 On ch=10 n=36 v=0
25873 On ch=10 n=44 v=0
25873 On ch=10 n=51 v=0
25964 On ch=10 n=40 v=78
25965 On ch=10 n=40 v=0
25968 On ch=10 n=40 v=106
25969 On ch=10 n=40 v=0
25992 On ch=10 n=36 v=68
25993 On ch=10 n=36 v=0
26040 On ch=10 n=36 v=64
26041 On ch=10 n=36 v=0
26088 On ch=10 n=36 v=64
26089 On ch=10 n=36 v=0
26108 On ch=10 n=40 v=78
26109 On ch=10 n=40 v=0
26112 On ch=10 n=40 v=106
26113 On ch=10 n=40 v=0
32544 On ch=10 n=44 v=64
32545 On ch=10 n=44 v=0
32640 On ch=10 n=44 v=64
32641 On ch=10 n=44 v=0
32736 On ch=10 n=44 v=64
32737 On ch=10 n=44 v=0
32832 On ch=10 n=44 v=64
32833 On ch=10 n=44 v=0
32928 On ch=10 n=44 v=64
32929 On ch=10 n=44 v=0
33024 On ch=10 n=44 v=64
33025 On ch=10 n=44 v=0
33120 On ch=10 n=44 v=64
33121 On ch=10 n=44 v=0
33216 On ch=10 n=44 v=64
33217 On ch=10 n=44 v=0
33312 On ch=10 n=44 v=64
33313 On ch=10 n=44 v=0
33408 On ch=10 n=44 v=64
33409 On ch=10 n=44 v=0
33504 On ch=10 n=44 v=64
33505 On ch=10 n=44 v=0
33600 On ch=10 n=44 v=64
33601 On ch=10 n=44 v=0
33696 On ch=10 n=44 v=64
33697 On ch=10 n=44 v=0
33792 On ch=10 n=44 v=64
33793 On ch=10 n=44 v=0
33888 On ch=10 n=44 v=64
33889 On ch=10 n=44 v=0
33984 On ch=10 n=51 v=120
33984 On ch=10 n=36 v=106
33984 On ch=10 n=49 v=120
33984 On ch=10 n=44 v=106
33985 On ch=10 n=51 v=0
33985 On ch=10 n=36 v=0
33985 On ch=10 n=49 v=0
33985 On ch=10 n=44 v=0
34080 On ch=10 n=44 v=64
34081 On ch=10 n=44 v=0
34176 On ch=10 n=44 v=64
34177 On ch=10 n=44 v=0
34272 On ch=10 n=44 v=64
34273 On ch=10 n=44 v=0
34368 On ch=10 n=36 v=106
34368 On ch=10 n=51 v=120
34368 On ch=10 n=49 v=120
34368 On ch=10 n=44 v=106
34369 On ch=10 n=36 v=0
34369 On ch=10 n=51 v=0
34369 On ch=10 n=49 v=0
34369 On ch=10 n=44 v=0
34464 On ch=10 n=44 v=64
34465 On ch=10 n=44 v=0
34560 On ch=10 n=44 v=64
34561 On ch=10 n=44 v=0
34656 On ch=10 n=44 v=64
34657 On ch=10 n=44 v=0
34752 On ch=10 n=49 v=120
34752 On ch=10 n=51 v=120
34752 On ch=10 n=36 v=106
34752 On ch=10 n=44 v=106
34753 On ch=10 n=49 v=0
34753 On ch=10 n=51 v=0
34753 On ch=10 n=36 v=0
34753 On ch=10 n=44 v=0
34848 On ch=10 n=44 v=64
34849 On ch=10 n=44 v=0
34944 On ch=10 n=44 v=64
34945 On ch=10 n=44 v=0
35040 On ch=10 n=44 v=64
35041 On ch=10 n=44 v=0
35136 On ch=10 n=36 v=106
35136 On ch=10 n=51 v=120
35136 On ch=10 n=49 v=120
35136 On ch=10 n=44 v=106
35137 On ch=10 n=36 v=0
35137 On ch=10 n=51 v=0
35137 On ch=10 n=49 v=0
35137 On ch=10 n=44 v=0
35232 On ch=10 n=40 v=36
35233 On ch=10 n=40 v=0
35233 On ch=10 n=40 v=38
35234 On ch=10 n=40 v=0
35256 On ch=10 n=40 v=36
35257 On ch=10 n=40 v=0
35257 On ch=10 n=40 v=38
35258 On ch=10 n=40 v=0
35280 On ch=10 n=40 v=50
35281 On ch=10 n=40 v=0
35281 On ch=10 n=40 v=55
35282 On ch=10 n=40 v=0
35304 On ch=10 n=40 v=50
35305 On ch=10 n=40 v=0
35305 On ch=10 n=40 v=55
35306 On ch=10 n=40 v=0
35328 On ch=10 n=40 v=64
35329 On ch=10 n=40 v=0
35352 On ch=10 n=40 v=64
35353 On ch=10 n=40 v=0
35376 On ch=10 n=40 v=78
35377 On ch=10 n=40 v=0
35400 On ch=10 n=40 v=78
35401 On ch=10 n=40 v=0
35424 On ch=10 n=40 v=92
35425 On ch=10 n=40 v=0
35448 On ch=10 n=40 v=92
35449 On ch=10 n=40 v=0
35472 On ch=10 n=40 v=106
35473 On ch=10 n=40 v=0
35496 On ch=10 n=40 v=78
35497 On ch=10 n=40 v=0
35504 On ch=10 n=40 v=50
35505 On ch=10 n=40 v=0
35520 On ch=10 n=46 v=64
35520 On ch=10 n=36 v=64
35521 On ch=10 n=46 v=0
35521 On ch=10 n=36 v=0
35568 On ch=10 n=46 v=64
35568 On ch=10 n=40 v=78
35569 On ch=10 n=46 v=0
35569 On ch=10 n=40 v=0
35592 On ch=10 n=36 v=64
35593 On ch=10 n=36 v=0
35616 On ch=10 n=42 v=78
35617 On ch=10 n=42 v=0
35640 On ch=10 n=36 v=50
35641 On ch=10 n=36 v=0
35664 On ch=10 n=42 v=78
35664 On ch=10 n=40 v=78
35665 On ch=10 n=42 v=0
35665 On ch=10 n=40 v=0
35712 On ch=10 n=40 v=78
35712 On ch=10 n=42 v=78
35713 On ch=10 n=40 v=0
35713 On ch=10 n=42 v=0
35736 On ch=10 n=36 v=64
35737 On ch=10 n=36 v=0
35760 On ch=10 n=42 v=78
35761 On ch=10 n=42 v=0
35784 On ch=10 n=36 v=50
35785 On ch=10 n=36 v=0
35808 On ch=10 n=40 v=78
35808 On ch=10 n=42 v=78
35809 On ch=10 n=40 v=0
35809 On ch=10 n=42 v=0
35856 On ch=10 n=40 v=78
35856 On ch=10 n=42 v=78
35857 On ch=10 n=40 v=0
35857 On ch=10 n=42 v=0
35880 On ch=10 n=40 v=64
35881 On ch=10 n=40 v=0
35888 On ch=10 n=40 v=50
35889 On ch=10 n=40 v=0
35904 On ch=10 n=36 v=64
35904 On ch=10 n=42 v=78
35905 On ch=10 n=36 v=0
35905 On ch=10 n=42 v=0
35952 On ch=10 n=40 v=78
35952 On ch=10 n=42 v=78
35953 On ch=10 n=40 v=0
35953 On ch=10 n=42 v=0
35976 On ch=10 n=36 v=64
35977 On ch=10 n=36 v=0
36000 On ch=10 n=42 v=78
36001 On ch=10 n=42 v=0
36024 On ch=10 n=36 v=50
36025 On ch=10 n=36 v=0
36048 On ch=10 n=40 v=78
36048 On ch=10 n=42 v=78
36049 On ch=10 n=40 v=0
36049 On ch=10 n=42 v=0
36096 On ch=10 n=42 v=78
36096 On ch=10 n=40 v=78
36097 On ch=10 n=42 v=0
36097 On ch=10 n=40 v=0
36120 On ch=10 n=36 v=64
36121 On ch=10 n=36 v=0
36144 On ch=10 n=42 v=78
36145 On ch=10 n=42 v=0
36168 On ch=10 n=36 v=50
36169 On ch=10 n=36 v=0
36192 On ch=10 n=42 v=78
36192 On ch=10 n=40 v=78
36193 On ch=10 n=42 v=0
36193 On ch=10 n=40 v=0
36240 On ch=10 n=42 v=78
36240 On ch=10 n=40 v=78
36241 On ch=10 n=42 v=0
36241 On ch=10 n=40 v=0
36264 On ch=10 n=40 v=50
36265 On ch=10 n=40 v=0
36272 On ch=10 n=40 v=36
36273 On ch=10 n=40 v=0
36288 On ch=10 n=36 v=64
36288 On ch=10 n=42 v=78
36289 On ch=10 n=36 v=0
36289 On ch=10 n=42 v=0
36336 On ch=10 n=40 v=92
36336 On ch=10 n=42 v=78
36337 On ch=10 n=40 v=0
36337 On ch=10 n=42 v=0
36360 On ch=10 n=36 v=64
36361 On ch=10 n=36 v=0
36384 On ch=10 n=42 v=78
36385 On ch=10 n=42 v=0
36408 On ch=10 n=36 v=50
36409 On ch=10 n=36 v=0
36432 On ch=10 n=40 v=78
36432 On ch=10 n=42 v=78
36433 On ch=10 n=40 v=0
36433 On ch=10 n=42 v=0
36480 On ch=10 n=42 v=78
36480 On ch=10 n=40 v=78
36481 On ch=10 n=42 v=0
36481 On ch=10 n=40 v=0
36504 On ch=10 n=36 v=64
36505 On ch=10 n=36 v=0
36528 On ch=10 n=42 v=78
36529 On ch=10 n=42 v=0
36576 On ch=10 n=42 v=78
36576 On ch=10 n=40 v=92
36577 On ch=10 n=42 v=0
36577 On ch=10 n=40 v=0
36624 On ch=10 n=42 v=78
36624 On ch=10 n=40 v=92
36625 On ch=10 n=42 v=0
36625 On ch=10 n=40 v=0
36648 On ch=10 n=40 v=50
36649 On ch=10 n=40 v=0
36656 On ch=10 n=40 v=36
36657 On ch=10 n=40 v=0
36672 On ch=10 n=36 v=64
36672 On ch=10 n=42 v=78
36673 On ch=10 n=36 v=0
36673 On ch=10 n=42 v=0
36720 On ch=10 n=40 v=78
36720 On ch=10 n=42 v=78
36721 On ch=10 n=40 v=0
36721 On ch=10 n=42 v=0
36744 On ch=10 n=36 v=50
36745 On ch=10 n=36 v=0
36768 On ch=10 n=42 v=78
36769 On ch=10 n=42 v=0
36792 On ch=10 n=36 v=50
36793 On ch=10 n=36 v=0
36816 On ch=10 n=40 v=78
36816 On ch=10 n=42 v=78
36817 On ch=10 n=40 v=0
36817 On ch=10 n=42 v=0
36864 On ch=10 n=40 v=78
36864 On ch=10 n=42 v=78
36865 On ch=10 n=40 v=0
36865 On ch=10 n=42 v=0
36888 On ch=10 n=36 v=64
36889 On ch=10 n=36 v=0
36912 On ch=10 n=42 v=78
36913 On ch=10 n=42 v=0
36936 On ch=10 n=36 v=50
36937 On ch=10 n=36 v=0
36960 On ch=10 n=40 v=92
36960 On ch=10 n=42 v=78
36961 On ch=10 n=40 v=0
36961 On ch=10 n=42 v=0
37008 On ch=10 n=40 v=92
37008 On ch=10 n=42 v=78
37009 On ch=10 n=40 v=0
37009 On ch=10 n=42 v=0
37056 On ch=10 n=49 v=78
37056 On ch=10 n=36 v=64
37057 On ch=10 n=49 v=0
37057 On ch=10 n=36 v=0
37104 On ch=10 n=40 v=78
37104 On ch=10 n=42 v=78
37105 On ch=10 n=40 v=0
37105 On ch=10 n=42 v=0
37128 On ch=10 n=36 v=64
37129 On ch=10 n=36 v=0
37152 On ch=10 n=42 v=78
37153 On ch=10 n=42 v=0
37176 On ch=10 n=36 v=50
37177 On ch=10 n=36 v=0
37200 On ch=10 n=42 v=78
37200 On ch=10 n=40 v=78
37201 On ch=10 n=42 v=0
37201 On ch=10 n=40 v=0
37248 On ch=10 n=40 v=78
37248 On ch=10 n=42 v=78
37249 On ch=10 n=40 v=0
37249 On ch=10 n=42 v=0
37272 On ch=10 n=36 v=64
37273 On ch=10 n=36 v=0
37296 On ch=10 n=42 v=78
37297 On ch=10 n=42 v=0
37320 On ch=10 n=36 v=50
37321 On ch=10 n=36 v=0
37344 On ch=10 n=40 v=78
37344 On ch=10 n=42 v=78
37345 On ch=10 n=40 v=0
37345 On ch=10 n=42 v=0
37392 On ch=10 n=40 v=78
37392 On ch=10 n=42 v=78
37393 On ch=10 n=40 v=0
37393 On ch=10 n=42 v=0
37416 On ch=10 n=40 v=50
37417 On ch=10 n=40 v=0
37424 On ch=10 n=40 v=36
37425 On ch=10 n=40 v=0
37440 On ch=10 n=36 v=64
37440 On ch=10 n=42 v=78
37441 On ch=10 n=36 v=0
37441 On ch=10 n=42 v=0
37488 On ch=10 n=40 v=78
37488 On ch=10 n=42 v=78
37489 On ch=10 n=40 v=0
37489 On ch=10 n=42 v=0
37512 On ch=10 n=36 v=64
37513 On ch=10 n=36 v=0
37536 On ch=10 n=42 v=78
37537 On ch=10 n=42 v=0
37560 On ch=10 n=36 v=50
37561 On ch=10 n=36 v=0
37584 On ch=10 n=40 v=78
37584 On ch=10 n=42 v=78
37585 On ch=10 n=40 v=0
37585 On ch=10 n=42 v=0
37632 On ch=10 n=42 v=78
37633 On ch=10 n=42 v=0
37656 On ch=10 n=36 v=64
37657 On ch=10 n=36 v=0
37680 On ch=10 n=40 v=64
37680 On ch=10 n=42 v=78
37681 On ch=10 n=40 v=0
37681 On ch=10 n=42 v=0
37728 On ch=10 n=42 v=78
37729 On ch=10 n=42 v=0
37752 On ch=10 n=36 v=50
37753 On ch=10 n=36 v=0
37776 On ch=10 n=42 v=78
37776 On ch=10 n=40 v=64
37777 On ch=10 n=42 v=0
37777 On ch=10 n=40 v=0
37800 On ch=10 n=40 v=50
37801 On ch=10 n=40 v=0
37808 On ch=10 n=40 v=36
37809 On ch=10 n=40 v=0
37824 On ch=10 n=36 v=64
37824 On ch=10 n=42 v=78
37825 On ch=10 n=36 v=0
37825 On ch=10 n=42 v=0
37872 On ch=10 n=40 v=92
37872 On ch=10 n=42 v=78
37873 On ch=10 n=40 v=0
37873 On ch=10 n=42 v=0
37896 On ch=10 n=36 v=64
37897 On ch=10 n=36 v=0
37920 On ch=10 n=42 v=78
37921 On ch=10 n=42 v=0
37944 On ch=10 n=36 v=50
37945 On ch=10 n=36 v=0
37968 On ch=10 n=40 v=78
37968 On ch=10 n=42 v=78
37969 On ch=10 n=40 v=0
37969 On ch=10 n=42 v=0
38016 On ch=10 n=42 v=78
38016 On ch=10 n=40 v=78
38017 On ch=10 n=42 v=0
38017 On ch=10 n=40 v=0
38040 On ch=10 n=36 v=64
38041 On ch=10 n=36 v=0
38064 On ch=10 n=42 v=78
38065 On ch=10 n=42 v=0
38088 On ch=10 n=36 v=50
38089 On ch=10 n=36 v=0
38112 On ch=10 n=42 v=78
38112 On ch=10 n=40 v=78
38113 On ch=10 n=42 v=0
38113 On ch=10 n=40 v=0
38160 On ch=10 n=42 v=78
38160 On ch=10 n=40 v=78
38161 On ch=10 n=42 v=0
38161 On ch=10 n=40 v=0
38184 On ch=10 n=36 v=64
38185 On ch=10 n=36 v=0
38208 On ch=10 n=42 v=78
38209 On ch=10 n=42 v=0
38232 On ch=10 n=36 v=64
38233 On ch=10 n=36 v=0
38256 On ch=10 n=40 v=78
38256 On ch=10 n=42 v=78
38257 On ch=10 n=40 v=0
38257 On ch=10 n=42 v=0
38304 On ch=10 n=42 v=78
38305 On ch=10 n=42 v=0
38328 On ch=10 n=40 v=64
38329 On ch=10 n=40 v=0
38352 On ch=10 n=42 v=78
38353 On ch=10 n=42 v=0
38376 On ch=10 n=36 v=50
38377 On ch=10 n=36 v=0
38400 On ch=10 n=42 v=78
38401 On ch=10 n=42 v=0
38424 On ch=10 n=40 v=78
38425 On ch=10 n=40 v=0
38448 On ch=10 n=42 v=78
38449 On ch=10 n=42 v=0
38472 On ch=10 n=36 v=50
38473 On ch=10 n=36 v=0
38496 On ch=10 n=40 v=92
38496 On ch=10 n=42 v=78
38497 On ch=10 n=40 v=0
38497 On ch=10 n=42 v=0
38544 On ch=10 n=40 v=92
38544 On ch=10 n=42 v=78
38545 On ch=10 n=40 v=0
38545 On ch=10 n=42 v=0
38592 On ch=10 n=45 v=78
38592 On ch=10 n=44 v=92
38592 On ch=10 n=51 v=64
38593 On ch=10 n=45 v=0
38593 On ch=10 n=44 v=0
38593 On ch=10 n=51 v=0
38640 On ch=10 n=45 v=78
38640 On ch=10 n=44 v=92
38640 On ch=10 n=51 v=64
38641 On ch=10 n=45 v=0
38641 On ch=10 n=44 v=0
38641 On ch=10 n=51 v=0
38664 On ch=10 n=36 v=64
38665 On ch=10 n=36 v=0
38688 On ch=10 n=44 v=92
38689 On ch=10 n=44 v=0
38712 On ch=10 n=36 v=50
38713 On ch=10 n=36 v=0
38736 On ch=10 n=51 v=64
38736 On ch=10 n=45 v=78
38736 On ch=10 n=44 v=92
38737 On ch=10 n=51 v=0
38737 On ch=10 n=45 v=0
38737 On ch=10 n=44 v=0
38784 On ch=10 n=45 v=78
38784 On ch=10 n=44 v=92
38784 On ch=10 n=51 v=64
38785 On ch=10 n=45 v=0
38785 On ch=10 n=44 v=0
38785 On ch=10 n=51 v=0
38808 On ch=10 n=36 v=64
38809 On ch=10 n=36 v=0
38832 On ch=10 n=51 v=64
38832 On ch=10 n=44 v=92
38833 On ch=10 n=51 v=0
38833 On ch=10 n=44 v=0
38856 On ch=10 n=36 v=50
38857 On ch=10 n=36 v=0
38880 On ch=10 n=45 v=78
38880 On ch=10 n=44 v=92
38880 On ch=10 n=51 v=64
38881 On ch=10 n=45 v=0
38881 On ch=10 n=44 v=0
38881 On ch=10 n=51 v=0
38928 On ch=10 n=45 v=78
38928 On ch=10 n=44 v=92
38928 On ch=10 n=51 v=64
38929 On ch=10 n=45 v=0
38929 On ch=10 n=44 v=0
38929 On ch=10 n=51 v=0
38976 On ch=10 n=36 v=64
38976 On ch=10 n=44 v=92
38976 On ch=10 n=51 v=64
38977 On ch=10 n=36 v=0
38977 On ch=10 n=44 v=0
38977 On ch=10 n=51 v=0
39024 On ch=10 n=45 v=78
39024 On ch=10 n=44 v=92
39024 On ch=10 n=51 v=64
39025 On ch=10 n=45 v=0
39025 On ch=10 n=44 v=0
39025 On ch=10 n=51 v=0
39048 On ch=10 n=36 v=64
39049 On ch=10 n=36 v=0
39072 On ch=10 n=44 v=92
39072 On ch=10 n=51 v=64
39073 On ch=10 n=44 v=0
39073 On ch=10 n=51 v=0
39096 On ch=10 n=36 v=50
39097 On ch=10 n=36 v=0
39120 On ch=10 n=45 v=78
39120 On ch=10 n=44 v=92
39120 On ch=10 n=51 v=64
39121 On ch=10 n=45 v=0
39121 On ch=10 n=44 v=0
39121 On ch=10 n=51 v=0
39168 On ch=10 n=45 v=78
39168 On ch=10 n=44 v=92
39168 On ch=10 n=51 v=64
39169 On ch=10 n=45 v=0
39169 On ch=10 n=44 v=0
39169 On ch=10 n=51 v=0
39192 On ch=10 n=36 v=64
39193 On ch=10 n=36 v=0
39216 On ch=10 n=44 v=92
39216 On ch=10 n=51 v=64
39217 On ch=10 n=44 v=0
39217 On ch=10 n=51 v=0
39240 On ch=10 n=36 v=50
39241 On ch=10 n=36 v=0
39264 On ch=10 n=45 v=78
39264 On ch=10 n=44 v=92
39264 On ch=10 n=51 v=64
39265 On ch=10 n=45 v=0
39265 On ch=10 n=44 v=0
39265 On ch=10 n=51 v=0
39312 On ch=10 n=45 v=78
39312 On ch=10 n=44 v=92
39312 On ch=10 n=51 v=64
39313 On ch=10 n=45 v=0
39313 On ch=10 n=44 v=0
39313 On ch=10 n=51 v=0
39360 On ch=10 n=36 v=64
39360 On ch=10 n=44 v=92
39360 On ch=10 n=51 v=64
39361 On ch=10 n=36 v=0
39361 On ch=10 n=44 v=0
39361 On ch=10 n=51 v=0
39408 On ch=10 n=45 v=78
39408 On ch=10 n=44 v=92
39408 On ch=10 n=51 v=64
39409 On ch=10 n=45 v=0
39409 On ch=10 n=44 v=0
39409 On ch=10 n=51 v=0
39432 On ch=10 n=36 v=64
39433 On ch=10 n=36 v=0
39456 On ch=10 n=44 v=92
39456 On ch=10 n=51 v=64
39457 On ch=10 n=44 v=0
39457 On ch=10 n=51 v=0
39480 On ch=10 n=36 v=64
39481 On ch=10 n=36 v=0
39504 On ch=10 n=45 v=78
39504 On ch=10 n=44 v=92
39504 On ch=10 n=51 v=64
39505 On ch=10 n=45 v=0
39505 On ch=10 n=44 v=0
39505 On ch=10 n=51 v=0
39552 On ch=10 n=45 v=78
39552 On ch=10 n=44 v=92
39552 On ch=10 n=51 v=64
39553 On ch=10 n=45 v=0
39553 On ch=10 n=44 v=0
39553 On ch=10 n=51 v=0
39576 On ch=10 n=36 v=64
39577 On ch=10 n=36 v=0
39600 On ch=10 n=44 v=92
39600 On ch=10 n=51 v=64
39601 On ch=10 n=44 v=0
39601 On ch=10 n=51 v=0
39624 On ch=10 n=36 v=50
39625 On ch=10 n=36 v=0
39648 On ch=10 n=45 v=78
39648 On ch=10 n=44 v=92
39648 On ch=10 n=51 v=64
39649 On ch=10 n=45 v=0
39649 On ch=10 n=44 v=0
39649 On ch=10 n=51 v=0
39696 On ch=10 n=45 v=78
39696 On ch=10 n=44 v=92
39696 On ch=10 n=51 v=64
39697 On ch=10 n=45 v=0
39697 On ch=10 n=44 v=0
39697 On ch=10 n=51 v=0
39720 On ch=10 n=36 v=64
39721 On ch=10 n=36 v=0
39744 On ch=10 n=44 v=92
39744 On ch=10 n=51 v=64
39745 On ch=10 n=44 v=0
39745 On ch=10 n=51 v=0
39768 On ch=10 n=36 v=50
39769 On ch=10 n=36 v=0
39792 On ch=10 n=45 v=78
39792 On ch=10 n=44 v=92
39792 On ch=10 n=51 v=64
39793 On ch=10 n=45 v=0
39793 On ch=10 n=44 v=0
39793 On ch=10 n=51 v=0
39840 On ch=10 n=45 v=78
39840 On ch=10 n=44 v=92
39840 On ch=10 n=51 v=64
39841 On ch=10 n=45 v=0
39841 On ch=10 n=44 v=0
39841 On ch=10 n=51 v=0
39864 On ch=10 n=36 v=64
39865 On ch=10 n=36 v=0
39888 On ch=10 n=44 v=92
39888 On ch=10 n=51 v=64
39889 On ch=10 n=44 v=0
39889 On ch=10 n=51 v=0
39912 On ch=10 n=36 v=50
39913 On ch=10 n=36 v=0
39936 On ch=10 n=45 v=78
39936 On ch=10 n=44 v=92
39936 On ch=10 n=51 v=64
39937 On ch=10 n=45 v=0
39937 On ch=10 n=44 v=0
39937 On ch=10 n=51 v=0
39984 On ch=10 n=44 v=92
39984 On ch=10 n=51 v=64
39985 On ch=10 n=44 v=0
39985 On ch=10 n=51 v=0
40008 On ch=10 n=45 v=64
40008 On ch=10 n=40 v=78
40009 On ch=10 n=45 v=0
40009 On ch=10 n=40 v=0
40032 On ch=10 n=44 v=92
40032 On ch=10 n=51 v=64
40033 On ch=10 n=44 v=0
40033 On ch=10 n=51 v=0
40056 On ch=10 n=36 v=64
40057 On ch=10 n=36 v=0
40080 On ch=10 n=40 v=92
40080 On ch=10 n=44 v=92
40080 On ch=10 n=51 v=64
40081 On ch=10 n=40 v=0
40081 On ch=10 n=44 v=0
40081 On ch=10 n=51 v=0
40128 On ch=10 n=51 v=64
40128 On ch=10 n=44 v=92
40128 On ch=10 n=36 v=64
40129 On ch=10 n=51 v=0
40129 On ch=10 n=44 v=0
40129 On ch=10 n=36 v=0
40176 On ch=10 n=51 v=64
40176 On ch=10 n=44 v=92
40177 On ch=10 n=51 v=0
40177 On ch=10 n=44 v=0
40200 On ch=10 n=40 v=78
40201 On ch=10 n=40 v=0
40224 On ch=10 n=51 v=92
40224 On ch=10 n=44 v=92
40225 On ch=10 n=51 v=0
40225 On ch=10 n=44 v=0
40248 On ch=10 n=36 v=64
40249 On ch=10 n=36 v=0
40272 On ch=10 n=51 v=92
40272 On ch=10 n=44 v=92
40273 On ch=10 n=51 v=0
40273 On ch=10 n=44 v=0
40320 On ch=10 n=51 v=92
40320 On ch=10 n=44 v=92
40321 On ch=10 n=51 v=0
40321 On ch=10 n=44 v=0
40344 On ch=10 n=40 v=78
40345 On ch=10 n=40 v=0
40368 On ch=10 n=51 v=92
40368 On ch=10 n=44 v=92
40369 On ch=10 n=51 v=0
40369 On ch=10 n=44 v=0
40416 On ch=10 n=51 v=92
40416 On ch=10 n=44 v=92
40416 On ch=10 n=40 v=78
40417 On ch=10 n=51 v=0
40417 On ch=10 n=44 v=0
40417 On ch=10 n=40 v=0
40440 On ch=10 n=40 v=64
40441 On ch=10 n=40 v=0
40464 On ch=10 n=51 v=92
40464 On ch=10 n=44 v=92
40464 On ch=10 n=40 v=92
40465 On ch=10 n=51 v=0
40465 On ch=10 n=44 v=0
40465 On ch=10 n=40 v=0
40512 On ch=10 n=44 v=92
40512 On ch=10 n=36 v=64
40512 On ch=10 n=49 v=92
40513 On ch=10 n=44 v=0
40513 On ch=10 n=36 v=0
40513 On ch=10 n=49 v=0
40560 On ch=10 n=44 v=78
40560 On ch=10 n=51 v=78
40561 On ch=10 n=44 v=0
40561 On ch=10 n=51 v=0
40608 On ch=10 n=44 v=92
40608 On ch=10 n=51 v=92
40608 On ch=10 n=40 v=92
40609 On ch=10 n=44 v=0
40609 On ch=10 n=51 v=0
40609 On ch=10 n=40 v=0
40656 On ch=10 n=44 v=92
40656 On ch=10 n=51 v=92
40657 On ch=10 n=44 v=0
40657 On ch=10 n=51 v=0
40680 On ch=10 n=40 v=50
40681 On ch=10 n=40 v=0
40704 On ch=10 n=44 v=92
40704 On ch=10 n=51 v=92
40705 On ch=10 n=44 v=0
40705 On ch=10 n=51 v=0
40728 On ch=10 n=40 v=92
40729 On ch=10 n=40 v=0
40752 On ch=10 n=44 v=92
40752 On ch=10 n=51 v=92
40753 On ch=10 n=44 v=0
40753 On ch=10 n=51 v=0
40776 On ch=10 n=36 v=64
40777 On ch=10 n=36 v=0
40800 On ch=10 n=40 v=78
40800 On ch=10 n=44 v=92
40800 On ch=10 n=51 v=92
40801 On ch=10 n=40 v=0
40801 On ch=10 n=44 v=0
40801 On ch=10 n=51 v=0
40848 On ch=10 n=44 v=92
40848 On ch=10 n=36 v=64
40848 On ch=10 n=40 v=78
40848 On ch=10 n=49 v=92
40849 On ch=10 n=44 v=0
40849 On ch=10 n=36 v=0
40849 On ch=10 n=40 v=0
40849 On ch=10 n=49 v=0
40944 On ch=10 n=45 v=78
40944 On ch=10 n=44 v=92
40944 On ch=10 n=51 v=92
40945 On ch=10 n=45 v=0
40945 On ch=10 n=44 v=0
40945 On ch=10 n=51 v=0
40992 On ch=10 n=45 v=78
40992 On ch=10 n=44 v=92
40992 On ch=10 n=51 v=92
40993 On ch=10 n=45 v=0
40993 On ch=10 n=44 v=0
40993 On ch=10 n=51 v=0
41040 On ch=10 n=44 v=92
41040 On ch=10 n=51 v=78
41041 On ch=10 n=44 v=0
41041 On ch=10 n=51 v=0
41064 On ch=10 n=45 v=78
41065 On ch=10 n=45 v=0
41088 On ch=10 n=44 v=92
41088 On ch=10 n=51 v=78
41089 On ch=10 n=44 v=0
41089 On ch=10 n=51 v=0
41112 On ch=10 n=36 v=64
41113 On ch=10 n=36 v=0
41136 On ch=10 n=44 v=92
41136 On ch=10 n=51 v=78
41137 On ch=10 n=44 v=0
41137 On ch=10 n=51 v=0
41160 On ch=10 n=45 v=78
41161 On ch=10 n=45 v=0
41184 On ch=10 n=44 v=92
41184 On ch=10 n=51 v=78
41185 On ch=10 n=44 v=0
41185 On ch=10 n=51 v=0
41208 On ch=10 n=36 v=64
41209 On ch=10 n=36 v=0
41232 On ch=10 n=45 v=78
41232 On ch=10 n=44 v=92
41232 On ch=10 n=51 v=78
41233 On ch=10 n=45 v=0
41233 On ch=10 n=44 v=0
41233 On ch=10 n=51 v=0
41280 On ch=10 n=45 v=78
41280 On ch=10 n=44 v=92
41280 On ch=10 n=51 v=78
41281 On ch=10 n=45 v=0
41281 On ch=10 n=44 v=0
41281 On ch=10 n=51 v=0
41304 On ch=10 n=36 v=64
41305 On ch=10 n=36 v=0
41328 On ch=10 n=44 v=92
41328 On ch=10 n=51 v=78
41329 On ch=10 n=44 v=0
41329 On ch=10 n=51 v=0
41352 On ch=10 n=36 v=50
41353 On ch=10 n=36 v=0
41376 On ch=10 n=45 v=78
41376 On ch=10 n=44 v=92
41376 On ch=10 n=51 v=78
41377 On ch=10 n=45 v=0
41377 On ch=10 n=44 v=0
41377 On ch=10 n=51 v=0
41424 On ch=10 n=45 v=78
41424 On ch=10 n=44 v=92
41424 On ch=10 n=51 v=78
41425 On ch=10 n=45 v=0
41425 On ch=10 n=44 v=0
41425 On ch=10 n=51 v=0
41448 On ch=10 n=36 v=64
41449 On ch=10 n=36 v=0
41472 On ch=10 n=44 v=92
41472 On ch=10 n=51 v=78
41473 On ch=10 n=44 v=0
41473 On ch=10 n=51 v=0
41496 On ch=10 n=36 v=50
41497 On ch=10 n=36 v=0
41520 On ch=10 n=45 v=78
41520 On ch=10 n=44 v=92
41520 On ch=10 n=51 v=78
41521 On ch=10 n=45 v=0
41521 On ch=10 n=44 v=0
41521 On ch=10 n=51 v=0
41568 On ch=10 n=45 v=78
41568 On ch=10 n=44 v=92
41568 On ch=10 n=51 v=92
41569 On ch=10 n=45 v=0
41569 On ch=10 n=44 v=0
41569 On ch=10 n=51 v=0
41616 On ch=10 n=44 v=92
41616 On ch=10 n=40 v=78
41616 On ch=10 n=51 v=64
41617 On ch=10 n=44 v=0
41617 On ch=10 n=40 v=0
41617 On ch=10 n=51 v=0
41664 On ch=10 n=44 v=92
41664 On ch=10 n=40 v=78
41664 On ch=10 n=51 v=64
41665 On ch=10 n=44 v=0
41665 On ch=10 n=40 v=0
41665 On ch=10 n=51 v=0
41688 On ch=10 n=36 v=64
41689 On ch=10 n=36 v=0
41712 On ch=10 n=44 v=92
41712 On ch=10 n=51 v=78
41713 On ch=10 n=44 v=0
41713 On ch=10 n=51 v=0
41736 On ch=10 n=36 v=50
41737 On ch=10 n=36 v=0
41760 On ch=10 n=44 v=92
41760 On ch=10 n=40 v=78
41760 On ch=10 n=51 v=78
41761 On ch=10 n=44 v=0
41761 On ch=10 n=40 v=0
41761 On ch=10 n=51 v=0
41808 On ch=10 n=44 v=92
41808 On ch=10 n=51 v=78
41809 On ch=10 n=44 v=0
41809 On ch=10 n=51 v=0
41832 On ch=10 n=40 v=78
41833 On ch=10 n=40 v=0
41856 On ch=10 n=44 v=92
41856 On ch=10 n=51 v=78
41857 On ch=10 n=44 v=0
41857 On ch=10 n=51 v=0
41880 On ch=10 n=36 v=50
41881 On ch=10 n=36 v=0
41904 On ch=10 n=44 v=92
41904 On ch=10 n=51 v=64
41905 On ch=10 n=44 v=0
41905 On ch=10 n=51 v=0
41916 On ch=10 n=51 v=50
41917 On ch=10 n=51 v=0
41928 On ch=10 n=40 v=64
41929 On ch=10 n=40 v=0
41940 On ch=10 n=40 v=50
41941 On ch=10 n=40 v=0
41952 On ch=10 n=51 v=64
41952 On ch=10 n=44 v=92
41953 On ch=10 n=51 v=0
41953 On ch=10 n=44 v=0
41964 On ch=10 n=51 v=50
41965 On ch=10 n=51 v=0
41976 On ch=10 n=40 v=64
41977 On ch=10 n=40 v=0
41988 On ch=10 n=40 v=50
41989 On ch=10 n=40 v=0
42000 On ch=10 n=44 v=92
42000 On ch=10 n=36 v=64
42000 On ch=10 n=49 v=78
42000 On ch=10 n=51 v=92
42001 On ch=10 n=44 v=0
42001 On ch=10 n=36 v=0
42001 On ch=10 n=49 v=0
42001 On ch=10 n=51 v=0
42048 On ch=10 n=44 v=92
42048 On ch=10 n=51 v=64
42049 On ch=10 n=44 v=0
42049 On ch=10 n=51 v=0
42072 On ch=10 n=40 v=78
42073 On ch=10 n=40 v=0
42096 On ch=10 n=44 v=92
42096 On ch=10 n=51 v=78
42097 On ch=10 n=44 v=0
42097 On ch=10 n=51 v=0
42120 On ch=10 n=36 v=50
42121 On ch=10 n=36 v=0
42144 On ch=10 n=40 v=78
42144 On ch=10 n=44 v=92
42144 On ch=10 n=51 v=78
42145 On ch=10 n=40 v=0
42145 On ch=10 n=44 v=0
42145 On ch=10 n=51 v=0
42192 On ch=10 n=44 v=92
42192 On ch=10 n=51 v=92
42193 On ch=10 n=44 v=0
42193 On ch=10 n=51 v=0
42216 On ch=10 n=40 v=78
42217 On ch=10 n=40 v=0
42240 On ch=10 n=44 v=92
42240 On ch=10 n=51 v=92
42241 On ch=10 n=44 v=0
42241 On ch=10 n=51 v=0
42264 On ch=10 n=36 v=64
42265 On ch=10 n=36 v=0
42288 On ch=10 n=44 v=92
42288 On ch=10 n=40 v=78
42288 On ch=10 n=51 v=92
42289 On ch=10 n=44 v=0
42289 On ch=10 n=40 v=0
42289 On ch=10 n=51 v=0
42312 On ch=10 n=36 v=50
42313 On ch=10 n=36 v=0
42336 On ch=10 n=44 v=92
42336 On ch=10 n=40 v=78
42336 On ch=10 n=51 v=92
42337 On ch=10 n=44 v=0
42337 On ch=10 n=40 v=0
42337 On ch=10 n=51 v=0
42384 On ch=10 n=36 v=64
42384 On ch=10 n=49 v=92
42384 On ch=10 n=51 v=92
42385 On ch=10 n=36 v=0
42385 On ch=10 n=49 v=0
42385 On ch=10 n=51 v=0
42432 On ch=10 n=51 v=92
42433 On ch=10 n=51 v=0
42456 On ch=10 n=40 v=92
42457 On ch=10 n=40 v=0
42480 On ch=10 n=51 v=92
42481 On ch=10 n=51 v=0
42504 On ch=10 n=36 v=64
42505 On ch=10 n=36 v=0
42528 On ch=10 n=40 v=92
42528 On ch=10 n=49 v=92
42528 On ch=10 n=51 v=92
42529 On ch=10 n=40 v=0
42529 On ch=10 n=49 v=0
42529 On ch=10 n=51 v=0
42600 On ch=10 n=40 v=92
42600 On ch=10 n=49 v=92
42601 On ch=10 n=40 v=0
42601 On ch=10 n=49 v=0
42672 On ch=10 n=45 v=78
42672 On ch=10 n=40 v=78
42673 On ch=10 n=45 v=0
42673 On ch=10 n=40 v=0
42696 On ch=10 n=45 v=64
42696 On ch=10 n=40 v=64
42697 On ch=10 n=45 v=0
42697 On ch=10 n=40 v=0
42720 On ch=10 n=45 v=64
42720 On ch=10 n=40 v=64
42721 On ch=10 n=45 v=0
42721 On ch=10 n=40 v=0
42768 On ch=10 n=36 v=78
42768 On ch=10 n=42 v=64
42768 On ch=10 n=49 v=92
42769 On ch=10 n=36 v=0
42769 On ch=10 n=42 v=0
42769 On ch=10 n=49 v=0
42816 On ch=10 n=42 v=64
42817 On ch=10 n=42 v=0
42864 On ch=10 n=40 v=78
42864 On ch=10 n=49 v=78
42864 On ch=10 n=42 v=64
42865 On ch=10 n=40 v=0
42865 On ch=10 n=49 v=0
42865 On ch=10 n=42 v=0
42912 On ch=10 n=42 v=64
42913 On ch=10 n=42 v=0
42936 On ch=10 n=40 v=50
42937 On ch=10 n=40 v=0
42960 On ch=10 n=40 v=92
42961 On ch=10 n=40 v=0
42976 On ch=10 n=40 v=92
42977 On ch=10 n=40 v=0
42992 On ch=10 n=45 v=78
42993 On ch=10 n=45 v=0
43008 On ch=10 n=45 v=78
43009 On ch=10 n=45 v=0
43024 On ch=10 n=45 v=64
43025 On ch=10 n=45 v=0
43040 On ch=10 n=45 v=64
43041 On ch=10 n=45 v=0
43056 On ch=10 n=41 v=64
43057 On ch=10 n=41 v=0
43104 On ch=10 n=36 v=78
43104 On ch=10 n=49 v=106
43105 On ch=10 n=36 v=0
43105 On ch=10 n=49 v=0
43320 On ch=10 n=49 v=120
43320 On ch=10 n=36 v=120
43321 On ch=10 n=49 v=0
43321 On ch=10 n=36 v=0
43344 Par ch=10 c=11 v=0
43511 Par ch=10 c=11 v=116
43512 On ch=10 n=36 v=120
43512 On ch=10 n=49 v=120
43513 On ch=10 n=36 v=0
43513 On ch=10 n=49 v=0
47736 Par ch=10 c=11 v=25
47736 On ch=10 n=46 v=64
47736 On ch=10 n=36 v=64
47737 On ch=10 n=46 v=0
47737 On ch=10 n=36 v=0
47784 On ch=10 n=46 v=64
47785 On ch=10 n=46 v=0
47832 On ch=10 n=46 v=64
47832 On ch=10 n=40 v=64
47833 On ch=10 n=46 v=0
47833 On ch=10 n=40 v=0
47880 On ch=10 n=46 v=64
47880 Par ch=10 c=11 v=32
47881 On ch=10 n=46 v=0
47928 On ch=10 n=46 v=64
47928 On ch=10 n=36 v=64
47929 On ch=10 n=46 v=0
47929 On ch=10 n=36 v=0
47976 On ch=10 n=46 v=64
47977 On ch=10 n=46 v=0
48024 On ch=10 n=46 v=64
48024 On ch=10 n=40 v=64
48024 Par ch=10 c=11 v=39
48025 On ch=10 n=46 v=0
48025 On ch=10 n=40 v=0
48072 On ch=10 n=46 v=64
48073 On ch=10 n=46 v=0
48120 On ch=10 n=46 v=64
48120 On ch=10 n=36 v=64
48121 On ch=10 n=46 v=0
48121 On ch=10 n=36 v=0
48168 On ch=10 n=46 v=64
48168 Par ch=10 c=11 v=46
48169 On ch=10 n=46 v=0
48216 On ch=10 n=46 v=64
48216 On ch=10 n=40 v=64
48217 On ch=10 n=46 v=0
48217 On ch=10 n=40 v=0
48264 On ch=10 n=46 v=64
48265 On ch=10 n=46 v=0
48312 On ch=10 n=46 v=64
48312 On ch=10 n=36 v=64
48312 Par ch=10 c=11 v=53
48313 On ch=10 n=46 v=0
48313 On ch=10 n=36 v=0
48360 On ch=10 n=46 v=64
48361 On ch=10 n=46 v=0
48408 On ch=10 n=46 v=64
48408 On ch=10 n=40 v=64
48409 On ch=10 n=46 v=0
48409 On ch=10 n=40 v=0
48456 On ch=10 n=46 v=64
48456 Par ch=10 c=11 v=60
48457 On ch=10 n=46 v=0
48504 On ch=10 n=46 v=64
48504 On ch=10 n=36 v=64
48505 On ch=10 n=46 v=0
48505 On ch=10 n=36 v=0
48552 On ch=10 n=46 v=64
48553 On ch=10 n=46 v=0
48600 On ch=10 n=46 v=64
48600 On ch=10 n=40 v=64
48600 Par ch=10 c=11 v=67
48601 On ch=10 n=46 v=0
48601 On ch=10 n=40 v=0
48648 On ch=10 n=46 v=64
48649 On ch=10 n=46 v=0
48696 On ch=10 n=46 v=64
48696 On ch=10 n=36 v=64
48697 On ch=10 n=46 v=0
48697 On ch=10 n=36 v=0
48744 On ch=10 n=46 v=64
48744 Par ch=10 c=11 v=74
48745 On ch=10 n=46 v=0
48792 On ch=10 n=46 v=64
48792 On ch=10 n=40 v=64
48793 On ch=10 n=46 v=0
48793 On ch=10 n=40 v=0
48840 On ch=10 n=46 v=64
48841 On ch=10 n=46 v=0
48888 On ch=10 n=46 v=64
48888 On ch=10 n=36 v=64
48888 Par ch=10 c=11 v=82
48889 On ch=10 n=46 v=0
48889 On ch=10 n=36 v=0
48936 On ch=10 n=46 v=64
48937 On ch=10 n=46 v=0
48984 On ch=10 n=46 v=64
48984 On ch=10 n=40 v=64
48985 On ch=10 n=46 v=0
48985 On ch=10 n=40 v=0
49032 On ch=10 n=46 v=64
49032 Par ch=10 c=11 v=89
49033 On ch=10 n=46 v=0
49080 On ch=10 n=46 v=64
49080 On ch=10 n=36 v=64
49081 On ch=10 n=46 v=0
49081 On ch=10 n=36 v=0
49128 On ch=10 n=46 v=64
49129 On ch=10 n=46 v=0
49176 On ch=10 n=46 v=64
49176 On ch=10 n=40 v=64
49176 Par ch=10 c=11 v=96
49177 On ch=10 n=46 v=0
49177 On ch=10 n=40 v=0
49224 On ch=10 n=46 v=64
49225 On ch=10 n=46 v=0
49272 On ch=10 n=46 v=64
49272 On ch=10 n=36 v=64
49273 On ch=10 n=46 v=0
49273 On ch=10 n=36 v=0
49320 On ch=10 n=46 v=64
49320 Par ch=10 c=11 v=103
49321 On ch=10 n=46 v=0
49368 On ch=10 n=46 v=78
49368 On ch=10 n=40 v=64
49369 On ch=10 n=46 v=0
49369 On ch=10 n=40 v=0
49416 On ch=10 n=46 v=64
49417 On ch=10 n=46 v=0
49440 On ch=10 n=40 v=36
49441 On ch=10 n=40 v=0
49464 On ch=10 n=46 v=64
49464 On ch=10 n=36 v=64
49464 Par ch=10 c=11 v=110
49465 On ch=10 n=46 v=0
49465 On ch=10 n=36 v=0
49512 On ch=10 n=46 v=64
49513 On ch=10 n=46 v=0
49560 On ch=10 n=46 v=78
49560 On ch=10 n=40 v=64
49561 On ch=10 n=46 v=0
49561 On ch=10 n=40 v=0
49608 On ch=10 n=46 v=64
49608 Par ch=10 c=11 v=117
49609 On ch=10 n=46 v=0
49656 Par ch=10 c=11 v=120
49656 On ch=10 n=46 v=64
49656 On ch=10 n=36 v=64
49657 On ch=10 n=46 v=0
49657 On ch=10 n=36 v=0
49704 On ch=10 n=46 v=64
49705 On ch=10 n=46 v=0
49752 On ch=10 n=36 v=64
49752 On ch=10 n=46 v=78
49752 On ch=10 n=40 v=64
49753 On ch=10 n=36 v=0
49753 On ch=10 n=46 v=0
49753 On ch=10 n=40 v=0
49800 On ch=10 n=46 v=64
49801 On ch=10 n=46 v=0
49848 On ch=10 n=46 v=64
49848 On ch=10 n=36 v=64
49849 On ch=10 n=46 v=0
49849 On ch=10 n=36 v=0
49896 On ch=10 n=46 v=64
49897 On ch=10 n=46 v=0
49944 On ch=10 n=46 v=78
49944 On ch=10 n=40 v=64
49945 On ch=10 n=46 v=0
49945 On ch=10 n=40 v=0
49992 On ch=10 n=46 v=64
49993 On ch=10 n=46 v=0
50040 On ch=10 n=46 v=64
50040 On ch=10 n=36 v=64
50041 On ch=10 n=46 v=0
50041 On ch=10 n=36 v=0
50088 On ch=10 n=36 v=50
50088 On ch=10 n=46 v=64
50089 On ch=10 n=36 v=0
50089 On ch=10 n=46 v=0
50136 On ch=10 n=46 v=78
50136 On ch=10 n=40 v=64
50137 On ch=10 n=46 v=0
50137 On ch=10 n=40 v=0
50184 On ch=10 n=46 v=64
50185 On ch=10 n=46 v=0
50232 On ch=10 n=46 v=78
50232 On ch=10 n=36 v=64
50233 On ch=10 n=46 v=0
50233 On ch=10 n=36 v=0
50280 On ch=10 n=36 v=50
50280 On ch=10 n=46 v=64
50281 On ch=10 n=36 v=0
50281 On ch=10 n=46 v=0
50328 On ch=10 n=46 v=78
50328 On ch=10 n=40 v=78
50329 On ch=10 n=46 v=0
50329 On ch=10 n=40 v=0
50376 On ch=10 n=46 v=64
50377 On ch=10 n=46 v=0
50424 On ch=10 n=46 v=64
50424 On ch=10 n=36 v=64
50425 On ch=10 n=46 v=0
50425 On ch=10 n=36 v=0
50472 On ch=10 n=36 v=50
50472 On ch=10 n=46 v=64
50473 On ch=10 n=36 v=0
50473 On ch=10 n=46 v=0
50520 On ch=10 n=46 v=78
50520 On ch=10 n=40 v=64
50521 On ch=10 n=46 v=0
50521 On ch=10 n=40 v=0
50568 On ch=10 n=46 v=64
50569 On ch=10 n=46 v=0
50592 On ch=10 n=46 v=50
50593 On ch=10 n=46 v=0
50616 On ch=10 n=46 v=64
50616 On ch=10 n=36 v=64
50617 On ch=10 n=46 v=0
50617 On ch=10 n=36 v=0
50664 On ch=10 n=36 v=64
50664 On ch=10 n=46 v=64
50665 On ch=10 n=36 v=0
50665 On ch=10 n=46 v=0
50712 On ch=10 n=46 v=78
50712 On ch=10 n=40 v=64
50713 On ch=10 n=46 v=0
50713 On ch=10 n=40 v=0
50760 On ch=10 n=46 v=64
50761 On ch=10 n=46 v=0
50808 On ch=10 n=46 v=78
50808 On ch=10 n=36 v=64
50809 On ch=10 n=46 v=0
50809 On ch=10 n=36 v=0
50856 On ch=10 n=36 v=50
50856 On ch=10 n=46 v=64
50857 On ch=10 n=36 v=0
50857 On ch=10 n=46 v=0
50904 On ch=10 n=46 v=78
50904 On ch=10 n=40 v=78
50905 On ch=10 n=46 v=0
50905 On ch=10 n=40 v=0
50952 On ch=10 n=46 v=64
50953 On ch=10 n=46 v=0
50976 On ch=10 n=40 v=36
50977 On ch=10 n=40 v=0
51000 On ch=10 n=46 v=64
51000 On ch=10 n=36 v=64
51001 On ch=10 n=46 v=0
51001 On ch=10 n=36 v=0
51048 On ch=10 n=36 v=64
51048 On ch=10 n=46 v=64
51049 On ch=10 n=36 v=0
51049 On ch=10 n=46 v=0
51096 On ch=10 n=46 v=78
51096 On ch=10 n=40 v=78
51097 On ch=10 n=46 v=0
51097 On ch=10 n=40 v=0
51144 On ch=10 n=46 v=64
51145 On ch=10 n=46 v=0
51192 On ch=10 n=46 v=64
51192 On ch=10 n=36 v=64
51193 On ch=10 n=46 v=0
51193 On ch=10 n=36 v=0
51240 On ch=10 n=36 v=64
51240 On ch=10 n=46 v=64
51241 On ch=10 n=36 v=0
51241 On ch=10 n=46 v=0
51288 On ch=10 n=46 v=78
51288 On ch=10 n=40 v=78
51289 On ch=10 n=46 v=0
51289 On ch=10 n=40 v=0
51336 On ch=10 n=46 v=64
51337 On ch=10 n=46 v=0
51384 On ch=10 n=46 v=64
51384 On ch=10 n=36 v=64
51385 On ch=10 n=46 v=0
51385 On ch=10 n=36 v=0
51432 On ch=10 n=36 v=50
51432 On ch=10 n=46 v=64
51433 On ch=10 n=36 v=0
51433 On ch=10 n=46 v=0
51480 On ch=10 n=46 v=78
51480 On ch=10 n=40 v=78
51481 On ch=10 n=46 v=0
51481 On ch=10 n=40 v=0
51528 On ch=10 n=46 v=64
51529 On ch=10 n=46 v=0
51576 On ch=10 n=46 v=78
51576 On ch=10 n=36 v=64
51577 On ch=10 n=46 v=0
51577 On ch=10 n=36 v=0
51624 On ch=10 n=36 v=64
51624 On ch=10 n=46 v=78
51625 On ch=10 n=36 v=0
51625 On ch=10 n=46 v=0
51672 On ch=10 n=46 v=78
51672 On ch=10 n=40 v=78
51673 On ch=10 n=46 v=0
51673 On ch=10 n=40 v=0
51720 On ch=10 n=46 v=78
51721 On ch=10 n=46 v=0
51768 On ch=10 n=46 v=78
51768 On ch=10 n=36 v=64
51769 On ch=10 n=46 v=0
51769 On ch=10 n=36 v=0
51816 On ch=10 n=36 v=64
51816 On ch=10 n=46 v=78
51817 On ch=10 n=36 v=0
51817 On ch=10 n=46 v=0
51864 On ch=10 n=46 v=78
51864 On ch=10 n=40 v=78
51865 On ch=10 n=46 v=0
51865 On ch=10 n=40 v=0
51912 On ch=10 n=46 v=78
51913 On ch=10 n=46 v=0
51960 On ch=10 n=46 v=78
51960 On ch=10 n=36 v=64
51961 On ch=10 n=46 v=0
51961 On ch=10 n=36 v=0
52008 On ch=10 n=36 v=64
52008 On ch=10 n=46 v=78
52009 On ch=10 n=36 v=0
52009 On ch=10 n=46 v=0
52056 On ch=10 n=46 v=78
52056 On ch=10 n=40 v=78
52057 On ch=10 n=46 v=0
52057 On ch=10 n=40 v=0
52104 On ch=10 n=46 v=78
52105 On ch=10 n=46 v=0
52152 On ch=10 n=46 v=92
52152 On ch=10 n=36 v=64
52153 On ch=10 n=46 v=0
52153 On ch=10 n=36 v=0
52200 On ch=10 n=36 v=64
52200 On ch=10 n=46 v=78
52201 On ch=10 n=36 v=0
52201 On ch=10 n=46 v=0
52248 On ch=10 n=46 v=92
52248 On ch=10 n=40 v=78
52249 On ch=10 n=46 v=0
52249 On ch=10 n=40 v=0
52296 On ch=10 n=46 v=78
52297 On ch=10 n=46 v=0
52344 On ch=10 n=46 v=78
52344 On ch=10 n=36 v=64
52345 On ch=10 n=46 v=0
52345 On ch=10 n=36 v=0
52392 On ch=10 n=36 v=64
52392 On ch=10 n=46 v=78
52393 On ch=10 n=36 v=0
52393 On ch=10 n=46 v=0
52440 On ch=10 n=46 v=78
52440 On ch=10 n=40 v=78
52441 On ch=10 n=46 v=0
52441 On ch=10 n=40 v=0
52488 On ch=10 n=46 v=78
52488 On ch=10 n=51 v=78
52489 On ch=10 n=46 v=0
52489 On ch=10 n=51 v=0
52536 On ch=10 n=46 v=78
52536 On ch=10 n=36 v=64
52537 On ch=10 n=46 v=0
52537 On ch=10 n=36 v=0
52584 On ch=10 n=36 v=50
52584 On ch=10 n=46 v=78
52585 On ch=10 n=36 v=0
52585 On ch=10 n=46 v=0
52608 On ch=10 n=36 v=50
52609 On ch=10 n=36 v=0
52632 On ch=10 n=46 v=92
52632 On ch=10 n=40 v=78
52633 On ch=10 n=46 v=0
52633 On ch=10 n=40 v=0
52680 On ch=10 n=46 v=78
52681 On ch=10 n=46 v=0
52728 On ch=10 n=36 v=64
52728 On ch=10 n=46 v=78
52729 On ch=10 n=36 v=0
52729 On ch=10 n=46 v=0
52776 On ch=10 n=46 v=78
52777 On ch=10 n=46 v=0
52824 On ch=10 n=40 v=78
52824 On ch=10 n=46 v=92
52825 On ch=10 n=40 v=0
52825 On ch=10 n=46 v=0
52872 On ch=10 n=46 v=78
52873 On ch=10 n=46 v=0
52920 On ch=10 n=36 v=64
52920 On ch=10 n=46 v=78
52921 On ch=10 n=36 v=0
52921 On ch=10 n=46 v=0
52968 On ch=10 n=36 v=64
52968 On ch=10 n=46 v=78
52969 On ch=10 n=36 v=0
52969 On ch=10 n=46 v=0
53016 On ch=10 n=40 v=78
53016 On ch=10 n=46 v=92
53017 On ch=10 n=40 v=0
53017 On ch=10 n=46 v=0
53064 On ch=10 n=46 v=78
53065 On ch=10 n=46 v=0
53112 On ch=10 n=36 v=64
53112 On ch=10 n=46 v=78
53113 On ch=10 n=36 v=0
53113 On ch=10 n=46 v=0
53160 On ch=10 n=36 v=50
53160 On ch=10 n=46 v=78
53161 On ch=10 n=36 v=0
53161 On ch=10 n=46 v=0
53208 On ch=10 n=40 v=78
53208 On ch=10 n=46 v=92
53209 On ch=10 n=40 v=0
53209 On ch=10 n=46 v=0
53256 On ch=10 n=46 v=78
53257 On ch=10 n=46 v=0
53304 On ch=10 n=36 v=64
53304 On ch=10 n=46 v=78
53305 On ch=10 n=36 v=0
53305 On ch=10 n=46 v=0
53352 On ch=10 n=36 v=50
53352 On ch=10 n=46 v=78
53353 On ch=10 n=36 v=0
53353 On ch=10 n=46 v=0
53400 On ch=10 n=49 v=78
53400 On ch=10 n=40 v=78
53401 On ch=10 n=49 v=0
53401 On ch=10 n=40 v=0
53448 On ch=10 n=46 v=78
53449 On ch=10 n=46 v=0
53496 On ch=10 n=36 v=64
53496 On ch=10 n=46 v=78
53497 On ch=10 n=36 v=0
53497 On ch=10 n=46 v=0
53544 On ch=10 n=36 v=50
53544 On ch=10 n=46 v=78
53545 On ch=10 n=36 v=0
53545 On ch=10 n=46 v=0
53592 On ch=10 n=49 v=64
53592 On ch=10 n=40 v=78
53593 On ch=10 n=49 v=0
53593 On ch=10 n=40 v=0
53640 On ch=10 n=46 v=78
53641 On ch=10 n=46 v=0
53688 On ch=10 n=36 v=64
53688 On ch=10 n=46 v=78
53689 On ch=10 n=36 v=0
53689 On ch=10 n=46 v=0
53736 On ch=10 n=36 v=50
53736 On ch=10 n=46 v=78
53737 On ch=10 n=36 v=0
53737 On ch=10 n=46 v=0
53784 On ch=10 n=49 v=64
53784 On ch=10 n=40 v=78
53785 On ch=10 n=49 v=0
53785 On ch=10 n=40 v=0
53832 On ch=10 n=46 v=78
53833 On ch=10 n=46 v=0
53880 On ch=10 n=36 v=64
53880 On ch=10 n=46 v=78
53881 On ch=10 n=36 v=0
53881 On ch=10 n=46 v=0
53928 On ch=10 n=36 v=50
53928 On ch=10 n=46 v=78
53929 On ch=10 n=36 v=0
53929 On ch=10 n=46 v=0
53976 On ch=10 n=49 v=64
53976 On ch=10 n=40 v=78
53977 On ch=10 n=49 v=0
53977 On ch=10 n=40 v=0
54024 On ch=10 n=46 v=78
54025 On ch=10 n=46 v=0
54072 On ch=10 n=36 v=64
54072 On ch=10 n=46 v=78
54073 On ch=10 n=36 v=0
54073 On ch=10 n=46 v=0
54120 On ch=10 n=36 v=50
54120 On ch=10 n=46 v=78
54121 On ch=10 n=36 v=0
54121 On ch=10 n=46 v=0
54144 On ch=10 n=36 v=50
54145 On ch=10 n=36 v=0
54168 On ch=10 n=49 v=64
54168 On ch=10 n=40 v=78
54169 On ch=10 n=49 v=0
54169 On ch=10 n=40 v=0
54216 On ch=10 n=46 v=78
54217 On ch=10 n=46 v=0
54264 On ch=10 n=36 v=64
54264 On ch=10 n=46 v=78
54265 On ch=10 n=36 v=0
54265 On ch=10 n=46 v=0
54312 On ch=10 n=36 v=50
54312 On ch=10 n=46 v=78
54313 On ch=10 n=36 v=0
54313 On ch=10 n=46 v=0
54360 On ch=10 n=49 v=64
54360 On ch=10 n=40 v=78
54361 On ch=10 n=49 v=0
54361 On ch=10 n=40 v=0
54408 On ch=10 n=46 v=78
54409 On ch=10 n=46 v=0
54456 On ch=10 n=36 v=64
54456 On ch=10 n=46 v=78
54457 On ch=10 n=36 v=0
54457 On ch=10 n=46 v=0
54504 On ch=10 n=46 v=78
54505 On ch=10 n=46 v=0
54552 On ch=10 n=49 v=78
54552 On ch=10 n=40 v=78
54553 On ch=10 n=49 v=0
54553 On ch=10 n=40 v=0
54600 On ch=10 n=46 v=78
54601 On ch=10 n=46 v=0
54648 On ch=10 n=36 v=64
54648 On ch=10 n=46 v=78
54649 On ch=10 n=36 v=0
54649 On ch=10 n=46 v=0
54696 On ch=10 n=36 v=50
54696 On ch=10 n=46 v=78
54697 On ch=10 n=36 v=0
54697 On ch=10 n=46 v=0
54744 On ch=10 n=49 v=78
54744 On ch=10 n=40 v=78
54745 On ch=10 n=49 v=0
54745 On ch=10 n=40 v=0
54792 On ch=10 n=46 v=78
54793 On ch=10 n=46 v=0
54840 On ch=10 n=36 v=64
54840 On ch=10 n=46 v=78
54841 On ch=10 n=36 v=0
54841 On ch=10 n=46 v=0
54888 On ch=10 n=36 v=50
54888 On ch=10 n=46 v=78
54889 On ch=10 n=36 v=0
54889 On ch=10 n=46 v=0
54936 On ch=10 n=49 v=64
54936 On ch=10 n=40 v=78
54937 On ch=10 n=49 v=0
54937 On ch=10 n=40 v=0
54984 On ch=10 n=46 v=78
54985 On ch=10 n=46 v=0
55032 On ch=10 n=36 v=64
55032 On ch=10 n=46 v=78
55033 On ch=10 n=36 v=0
55033 On ch=10 n=46 v=0
55080 On ch=10 n=36 v=50
55080 On ch=10 n=46 v=78
55081 On ch=10 n=36 v=0
55081 On ch=10 n=46 v=0
55128 On ch=10 n=49 v=78
55128 On ch=10 n=40 v=78
55129 On ch=10 n=49 v=0
55129 On ch=10 n=40 v=0
55176 On ch=10 n=46 v=78
55177 On ch=10 n=46 v=0
55224 On ch=10 n=36 v=64
55224 On ch=10 n=46 v=78
55225 On ch=10 n=36 v=0
55225 On ch=10 n=46 v=0
55272 On ch=10 n=36 v=50
55272 On ch=10 n=46 v=78
55273 On ch=10 n=36 v=0
55273 On ch=10 n=46 v=0
55320 On ch=10 n=49 v=78
55320 On ch=10 n=40 v=78
55321 On ch=10 n=49 v=0
55321 On ch=10 n=40 v=0
55368 On ch=10 n=46 v=78
55369 On ch=10 n=46 v=0
55416 On ch=10 n=36 v=64
55416 On ch=10 n=46 v=78
55417 On ch=10 n=36 v=0
55417 On ch=10 n=46 v=0
55464 On ch=10 n=36 v=50
55464 On ch=10 n=46 v=78
55465 On ch=10 n=36 v=0
55465 On ch=10 n=46 v=0
55512 On ch=10 n=49 v=78
55512 On ch=10 n=40 v=78
55513 On ch=10 n=49 v=0
55513 On ch=10 n=40 v=0
55560 On ch=10 n=46 v=78
55561 On ch=10 n=46 v=0
55608 On ch=10 n=36 v=64
55608 On ch=10 n=46 v=78
55609 On ch=10 n=36 v=0
55609 On ch=10 n=46 v=0
55656 On ch=10 n=36 v=50
55656 On ch=10 n=46 v=78
55657 On ch=10 n=36 v=0
55657 On ch=10 n=46 v=0
55704 On ch=10 n=49 v=78
55704 On ch=10 n=40 v=78
55705 On ch=10 n=49 v=0
55705 On ch=10 n=40 v=0
55752 On ch=10 n=46 v=78
55753 On ch=10 n=46 v=0
55800 On ch=10 n=36 v=64
55800 On ch=10 n=46 v=78
55801 On ch=10 n=36 v=0
55801 On ch=10 n=46 v=0
55848 On ch=10 n=36 v=50
55848 On ch=10 n=46 v=78
55849 On ch=10 n=36 v=0
55849 On ch=10 n=46 v=0
55896 On ch=10 n=49 v=78
55896 On ch=10 n=40 v=78
55897 On ch=10 n=49 v=0
55897 On ch=10 n=40 v=0
55944 On ch=10 n=46 v=78
55945 On ch=10 n=46 v=0
55992 On ch=10 n=36 v=64
55992 On ch=10 n=46 v=78
55993 On ch=10 n=36 v=0
55993 On ch=10 n=46 v=0
56040 On ch=10 n=36 v=50
56040 On ch=10 n=46 v=78
56041 On ch=10 n=36 v=0
56041 On ch=10 n=46 v=0
56088 On ch=10 n=49 v=92
56088 On ch=10 n=40 v=78
56089 On ch=10 n=49 v=0
56089 On ch=10 n=40 v=0
56136 On ch=10 n=46 v=78
56137 On ch=10 n=46 v=0
56184 On ch=10 n=36 v=64
56184 On ch=10 n=46 v=78
56185 On ch=10 n=36 v=0
56185 On ch=10 n=46 v=0
56232 On ch=10 n=36 v=50
56232 On ch=10 n=46 v=78
56233 On ch=10 n=36 v=0
56233 On ch=10 n=46 v=0
56280 On ch=10 n=49 v=92
56280 On ch=10 n=40 v=78
56281 On ch=10 n=49 v=0
56281 On ch=10 n=40 v=0
56328 On ch=10 n=46 v=78
56329 On ch=10 n=46 v=0
56376 On ch=10 n=36 v=64
56376 On ch=10 n=46 v=78
56377 On ch=10 n=36 v=0
56377 On ch=10 n=46 v=0
56424 On ch=10 n=36 v=50
56424 On ch=10 n=46 v=78
56425 On ch=10 n=36 v=0
56425 On ch=10 n=46 v=0
56472 On ch=10 n=49 v=92
56472 On ch=10 n=40 v=78
56473 On ch=10 n=49 v=0
56473 On ch=10 n=40 v=0
56520 On ch=10 n=46 v=78
56521 On ch=10 n=46 v=0
56568 On ch=10 n=36 v=64
56568 On ch=10 n=46 v=78
56569 On ch=10 n=36 v=0
56569 On ch=10 n=46 v=0
56616 On ch=10 n=36 v=50
56616 On ch=10 n=46 v=78
56617 On ch=10 n=36 v=0
56617 On ch=10 n=46 v=0
56664 On ch=10 n=49 v=92
56664 On ch=10 n=40 v=78
56665 On ch=10 n=49 v=0
56665 On ch=10 n=40 v=0
56712 On ch=10 n=46 v=78
56713 On ch=10 n=46 v=0
56760 On ch=10 n=36 v=64
56760 On ch=10 n=46 v=78
56761 On ch=10 n=36 v=0
56761 On ch=10 n=46 v=0
56808 On ch=10 n=36 v=50
56808 On ch=10 n=46 v=78
56809 On ch=10 n=36 v=0
56809 On ch=10 n=46 v=0
56832 On ch=10 n=36 v=50
56833 On ch=10 n=36 v=0
56856 On ch=10 n=49 v=92
56856 On ch=10 n=40 v=78
56857 On ch=10 n=49 v=0
56857 On ch=10 n=40 v=0
56904 On ch=10 n=46 v=78
56905 On ch=10 n=46 v=0
56952 On ch=10 n=36 v=64
56952 On ch=10 n=46 v=78
56953 On ch=10 n=36 v=0
56953 On ch=10 n=46 v=0
57000 On ch=10 n=36 v=50
57000 On ch=10 n=46 v=78
57001 On ch=10 n=36 v=0
57001 On ch=10 n=46 v=0
57024 On ch=10 n=36 v=50
57025 On ch=10 n=36 v=0
57048 On ch=10 n=49 v=78
57048 On ch=10 n=40 v=78
57049 On ch=10 n=49 v=0
57049 On ch=10 n=40 v=0
57096 On ch=10 n=46 v=78
57097 On ch=10 n=46 v=0
57144 On ch=10 n=36 v=64
57144 On ch=10 n=46 v=78
57145 On ch=10 n=36 v=0
57145 On ch=10 n=46 v=0
57192 On ch=10 n=36 v=64
57192 On ch=10 n=46 v=78
57193 On ch=10 n=36 v=0
57193 On ch=10 n=46 v=0
57238 On ch=10 n=40 v=50
57239 On ch=10 n=40 v=0
57240 On ch=10 n=46 v=78
57240 On ch=10 n=40 v=78
57241 On ch=10 n=46 v=0
57241 On ch=10 n=40 v=0
57288 On ch=10 n=36 v=50
57288 On ch=10 n=46 v=78
57289 On ch=10 n=36 v=0
57289 On ch=10 n=46 v=0
57336 On ch=10 n=36 v=64
57336 On ch=10 n=46 v=92
57337 On ch=10 n=36 v=0
57337 On ch=10 n=46 v=0
57384 On ch=10 n=36 v=50
57384 On ch=10 n=46 v=92
57385 On ch=10 n=36 v=0
57385 On ch=10 n=46 v=0
57432 On ch=10 n=46 v=106
57432 On ch=10 n=40 v=78
57433 On ch=10 n=46 v=0
57433 On ch=10 n=40 v=0
57480 On ch=10 n=36 v=50
57480 On ch=10 n=46 v=92
57481 On ch=10 n=36 v=0
57481 On ch=10 n=46 v=0
57528 On ch=10 n=36 v=64
57528 On ch=10 n=46 v=92
57529 On ch=10 n=36 v=0
57529 On ch=10 n=46 v=0
57576 On ch=10 n=36 v=50
57576 On ch=10 n=46 v=92
57577 On ch=10 n=36 v=0
57577 On ch=10 n=46 v=0
57624 On ch=10 n=46 v=106
57624 On ch=10 n=40 v=78
57625 On ch=10 n=46 v=0
57625 On ch=10 n=40 v=0
57672 On ch=10 n=36 v=50
57672 On ch=10 n=46 v=92
57673 On ch=10 n=36 v=0
57673 On ch=10 n=46 v=0
57720 On ch=10 n=36 v=64
57720 On ch=10 n=46 v=92
57721 On ch=10 n=36 v=0
57721 On ch=10 n=46 v=0
57768 On ch=10 n=36 v=50
57768 On ch=10 n=46 v=92
57769 On ch=10 n=36 v=0
57769 On ch=10 n=46 v=0
57816 On ch=10 n=46 v=106
57816 On ch=10 n=40 v=78
57817 On ch=10 n=46 v=0
57817 On ch=10 n=40 v=0
57864 On ch=10 n=36 v=50
57864 On ch=10 n=46 v=92
57865 On ch=10 n=36 v=0
57865 On ch=10 n=46 v=0
57912 On ch=10 n=36 v=64
57912 On ch=10 n=46 v=92
57913 On ch=10 n=36 v=0
57913 On ch=10 n=46 v=0
57960 On ch=10 n=36 v=50
57960 On ch=10 n=46 v=92
57961 On ch=10 n=36 v=0
57961 On ch=10 n=46 v=0
58008 On ch=10 n=46 v=106
58008 On ch=10 n=40 v=78
58009 On ch=10 n=46 v=0
58009 On ch=10 n=40 v=0
58056 On ch=10 n=36 v=50
58056 On ch=10 n=46 v=92
58057 On ch=10 n=36 v=0
58057 On ch=10 n=46 v=0
58104 On ch=10 n=36 v=64
58104 On ch=10 n=46 v=92
58105 On ch=10 n=36 v=0
58105 On ch=10 n=46 v=0
58152 On ch=10 n=36 v=50
58152 On ch=10 n=46 v=92
58153 On ch=10 n=36 v=0
58153 On ch=10 n=46 v=0
58200 On ch=10 n=46 v=106
58200 On ch=10 n=40 v=78
58201 On ch=10 n=46 v=0
58201 On ch=10 n=40 v=0
58248 On ch=10 n=36 v=50
58248 On ch=10 n=46 v=92
58249 On ch=10 n=36 v=0
58249 On ch=10 n=46 v=0
58296 On ch=10 n=36 v=64
58296 On ch=10 n=46 v=92
58297 On ch=10 n=36 v=0
58297 On ch=10 n=46 v=0
58344 On ch=10 n=36 v=50
58344 On ch=10 n=46 v=92
58345 On ch=10 n=36 v=0
58345 On ch=10 n=46 v=0
58392 On ch=10 n=49 v=92
58392 On ch=10 n=40 v=78
58393 On ch=10 n=49 v=0
58393 On ch=10 n=40 v=0
58440 On ch=10 n=36 v=50
58440 On ch=10 n=46 v=92
58441 On ch=10 n=36 v=0
58441 On ch=10 n=46 v=0
58488 On ch=10 n=36 v=64
58488 On ch=10 n=46 v=92
58489 On ch=10 n=36 v=0
58489 On ch=10 n=46 v=0
58536 On ch=10 n=36 v=50
58536 On ch=10 n=46 v=92
58537 On ch=10 n=36 v=0
58537 On ch=10 n=46 v=0
58584 On ch=10 n=49 v=106
58584 On ch=10 n=40 v=78
58585 On ch=10 n=49 v=0
58585 On ch=10 n=40 v=0
58632 On ch=10 n=36 v=50
58632 On ch=10 n=46 v=92
58633 On ch=10 n=36 v=0
58633 On ch=10 n=46 v=0
58680 On ch=10 n=36 v=64
58680 On ch=10 n=46 v=92
58681 On ch=10 n=36 v=0
58681 On ch=10 n=46 v=0
58728 On ch=10 n=36 v=50
58728 On ch=10 n=46 v=92
58729 On ch=10 n=36 v=0
58729 On ch=10 n=46 v=0
58776 On ch=10 n=36 v=64
58776 On ch=10 n=49 v=106
58776 On ch=10 n=40 v=78
58777 On ch=10 n=36 v=0
58777 On ch=10 n=49 v=0
58777 On ch=10 n=40 v=0
58824 On ch=10 n=36 v=50
58824 On ch=10 n=46 v=92
58825 On ch=10 n=36 v=0
58825 On ch=10 n=46 v=0
58872 On ch=10 n=36 v=64
58872 On ch=10 n=46 v=92
58873 On ch=10 n=36 v=0
58873 On ch=10 n=46 v=0
58920 On ch=10 n=36 v=64
58920 On ch=10 n=46 v=92
58921 On ch=10 n=36 v=0
58921 On ch=10 n=46 v=0
58968 On ch=10 n=49 v=106
58968 On ch=10 n=36 v=64
58968 On ch=10 n=40 v=78
58969 On ch=10 n=49 v=0
58969 On ch=10 n=36 v=0
58969 On ch=10 n=40 v=0
59016 On ch=10 n=36 v=50
59016 On ch=10 n=46 v=92
59017 On ch=10 n=36 v=0
59017 On ch=10 n=46 v=0
59064 On ch=10 n=36 v=64
59064 On ch=10 n=46 v=92
59065 On ch=10 n=36 v=0
59065 On ch=10 n=46 v=0
59112 On ch=10 n=36 v=50
59112 On ch=10 n=46 v=92
59113 On ch=10 n=36 v=0
59113 On ch=10 n=46 v=0
59160 On ch=10 n=49 v=106
59160 On ch=10 n=36 v=64
59160 On ch=10 n=40 v=78
59161 On ch=10 n=49 v=0
59161 On ch=10 n=36 v=0
59161 On ch=10 n=40 v=0
59208 On ch=10 n=36 v=50
59208 On ch=10 n=46 v=92
59209 On ch=10 n=36 v=0
59209 On ch=10 n=46 v=0
59256 On ch=10 n=36 v=64
59256 On ch=10 n=46 v=92
59257 On ch=10 n=36 v=0
59257 On ch=10 n=46 v=0
59304 On ch=10 n=36 v=50
59304 On ch=10 n=46 v=92
59305 On ch=10 n=36 v=0
59305 On ch=10 n=46 v=0
59352 On ch=10 n=49 v=106
59352 On ch=10 n=40 v=92
59353 On ch=10 n=49 v=0
59353 On ch=10 n=40 v=0
59400 On ch=10 n=40 v=78
59400 On ch=10 n=46 v=92
59401 On ch=10 n=40 v=0
59401 On ch=10 n=46 v=0
59424 On ch=10 n=36 v=64
59425 On ch=10 n=36 v=0
59448 On ch=10 n=46 v=92
59449 On ch=10 n=46 v=0
59472 On ch=10 n=40 v=92
59473 On ch=10 n=40 v=0
59496 On ch=10 n=46 v=92
59497 On ch=10 n=46 v=0
59520 On ch=10 n=36 v=64
59521 On ch=10 n=36 v=0
59544 On ch=10 n=40 v=92
59544 On ch=10 n=46 v=106
59545 On ch=10 n=40 v=0
59545 On ch=10 n=46 v=0
59592 On ch=10 n=49 v=106
59592 On ch=10 n=36 v=64
59593 On ch=10 n=49 v=0
59593 On ch=10 n=36 v=0
59640 On ch=10 n=46 v=92
59640 On ch=10 n=36 v=64
59641 On ch=10 n=46 v=0
59641 On ch=10 n=36 v=0
59688 On ch=10 n=46 v=92
59688 On ch=10 n=36 v=64
59689 On ch=10 n=46 v=0
59689 On ch=10 n=36 v=0
59736 On ch=10 n=49 v=106
59736 On ch=10 n=40 v=92
59737 On ch=10 n=49 v=0
59737 On ch=10 n=40 v=0
59784 On ch=10 n=46 v=92
59785 On ch=10 n=46 v=0
59832 On ch=10 n=46 v=92
59832 On ch=10 n=36 v=64
59833 On ch=10 n=46 v=0
59833 On ch=10 n=36 v=0
59880 On ch=10 n=46 v=92
59880 On ch=10 n=36 v=64
59881 On ch=10 n=46 v=0
59881 On ch=10 n=36 v=0
59928 On ch=10 n=49 v=106
59928 On ch=10 n=40 v=92
59929 On ch=10 n=49 v=0
59929 On ch=10 n=40 v=0
59976 On ch=10 n=46 v=92
59976 On ch=10 n=36 v=78
59977 On ch=10 n=46 v=0
59977 On ch=10 n=36 v=0
60024 On ch=10 n=46 v=92
60024 On ch=10 n=36 v=64
60025 On ch=10 n=46 v=0
60025 On ch=10 n=36 v=0
60072 On ch=10 n=46 v=92
60072 On ch=10 n=36 v=50
60073 On ch=10 n=46 v=0
60073 On ch=10 n=36 v=0
60120 On ch=10 n=49 v=106
60120 On ch=10 n=40 v=92
60121 On ch=10 n=49 v=0
60121 On ch=10 n=40 v=0
60168 On ch=10 n=46 v=92
60168 On ch=10 n=36 v=50
60169 On ch=10 n=46 v=0
60169 On ch=10 n=36 v=0
60216 On ch=10 n=46 v=92
60216 On ch=10 n=36 v=64
60217 On ch=10 n=46 v=0
60217 On ch=10 n=36 v=0
60264 On ch=10 n=46 v=92
60264 On ch=10 n=36 v=50
60265 On ch=10 n=46 v=0
60265 On ch=10 n=36 v=0
60312 On ch=10 n=49 v=106
60312 On ch=10 n=40 v=92
60313 On ch=10 n=49 v=0
60313 On ch=10 n=40 v=0
60360 On ch=10 n=46 v=92
60360 On ch=10 n=36 v=50
60361 On ch=10 n=46 v=0
60361 On ch=10 n=36 v=0
60408 On ch=10 n=46 v=92
60408 On ch=10 n=36 v=64
60409 On ch=10 n=46 v=0
60409 On ch=10 n=36 v=0
60456 On ch=10 n=46 v=92
60456 On ch=10 n=36 v=64
60457 On ch=10 n=46 v=0
60457 On ch=10 n=36 v=0
60504 On ch=10 n=49 v=106
60504 On ch=10 n=40 v=92
60505 On ch=10 n=49 v=0
60505 On ch=10 n=40 v=0
60552 On ch=10 n=46 v=92
60552 On ch=10 n=36 v=64
60553 On ch=10 n=46 v=0
60553 On ch=10 n=36 v=0
60600 On ch=10 n=46 v=92
60600 On ch=10 n=36 v=64
60601 On ch=10 n=46 v=0
60601 On ch=10 n=36 v=0
60648 On ch=10 n=46 v=92
60648 On ch=10 n=36 v=64
60649 On ch=10 n=46 v=0
60649 On ch=10 n=36 v=0
60696 On ch=10 n=49 v=106
60696 On ch=10 n=40 v=92
60697 On ch=10 n=49 v=0
60697 On ch=10 n=40 v=0
60744 On ch=10 n=46 v=92
60744 On ch=10 n=36 v=64
60745 On ch=10 n=46 v=0
60745 On ch=10 n=36 v=0
60792 On ch=10 n=46 v=106
60792 On ch=10 n=36 v=64
60793 On ch=10 n=46 v=0
60793 On ch=10 n=36 v=0
60840 On ch=10 n=46 v=106
60840 On ch=10 n=36 v=64
60841 On ch=10 n=46 v=0
60841 On ch=10 n=36 v=0
60888 On ch=10 n=49 v=106
60888 On ch=10 n=40 v=92
60889 On ch=10 n=49 v=0
60889 On ch=10 n=40 v=0
60936 On ch=10 n=46 v=92
60936 On ch=10 n=36 v=64
60937 On ch=10 n=46 v=0
60937 On ch=10 n=36 v=0
60984 On ch=10 n=46 v=92
60984 On ch=10 n=36 v=64
60985 On ch=10 n=46 v=0
60985 On ch=10 n=36 v=0
61032 On ch=10 n=46 v=92
61032 On ch=10 n=36 v=64
61033 On ch=10 n=46 v=0
61033 On ch=10 n=36 v=0
61080 On ch=10 n=49 v=120
61080 On ch=10 n=40 v=92
61081 On ch=10 n=49 v=0
61081 On ch=10 n=40 v=0
61128 On ch=10 n=46 v=92
61128 On ch=10 n=36 v=64
61129 On ch=10 n=46 v=0
61129 On ch=10 n=36 v=0
61176 On ch=10 n=46 v=92
61176 On ch=10 n=36 v=64
61177 On ch=10 n=46 v=0
61177 On ch=10 n=36 v=0
61224 On ch=10 n=46 v=92
61224 On ch=10 n=36 v=64
61225 On ch=10 n=46 v=0
61225 On ch=10 n=36 v=0
61272 On ch=10 n=49 v=106
61272 On ch=10 n=40 v=92
61273 On ch=10 n=49 v=0
61273 On ch=10 n=40 v=0
61320 On ch=10 n=46 v=92
61320 On ch=10 n=36 v=64
61321 On ch=10 n=46 v=0
61321 On ch=10 n=36 v=0
61368 On ch=10 n=46 v=92
61368 On ch=10 n=36 v=64
61369 On ch=10 n=46 v=0
61369 On ch=10 n=36 v=0
61416 On ch=10 n=46 v=92
61416 On ch=10 n=36 v=64
61417 On ch=10 n=46 v=0
61417 On ch=10 n=36 v=0
61464 On ch=10 n=49 v=106
61464 On ch=10 n=40 v=92
61465 On ch=10 n=49 v=0
61465 On ch=10 n=40 v=0
61512 On ch=10 n=46 v=92
61512 On ch=10 n=36 v=64
61513 On ch=10 n=46 v=0
61513 On ch=10 n=36 v=0
61560 Par ch=10 c=11 v=127
61560 On ch=10 n=46 v=92
61560 On ch=10 n=36 v=64
61561 On ch=10 n=46 v=0
61561 On ch=10 n=36 v=0
61608 On ch=10 n=46 v=92
61608 On ch=10 n=36 v=64
61609 On ch=10 n=46 v=0
61609 On ch=10 n=36 v=0
61632 On ch=10 n=36 v=50
61633 On ch=10 n=36 v=0
61656 On ch=10 n=46 v=106
61656 On ch=10 n=40 v=92
61657 On ch=10 n=46 v=0
61657 On ch=10 n=40 v=0
61704 On ch=10 n=40 v=92
61704 On ch=10 n=46 v=92
61705 On ch=10 n=40 v=0
61705 On ch=10 n=46 v=0
61728 On ch=10 n=36 v=64
61729 On ch=10 n=36 v=0
61752 On ch=10 n=46 v=92
61753 On ch=10 n=46 v=0
61776 On ch=10 n=40 v=106
61777 On ch=10 n=40 v=0
61800 On ch=10 n=46 v=92
61801 On ch=10 n=46 v=0
61824 On ch=10 n=36 v=64
61825 On ch=10 n=36 v=0
61848 On ch=10 n=40 v=106
61848 On ch=10 n=46 v=106
61849 On ch=10 n=40 v=0
61849 On ch=10 n=46 v=0
61896 On ch=10 n=49 v=106
61896 On ch=10 n=36 v=64
61897 On ch=10 n=49 v=0
61897 On ch=10 n=36 v=0
61944 On ch=10 n=49 v=106
61944 On ch=10 n=36 v=64
61945 On ch=10 n=49 v=0
61989 On ch=10 n=36 v=0
61992 On ch=10 n=46 v=92
61993 On ch=10 n=46 v=0
62040 On ch=10 n=49 v=106
62040 On ch=10 n=36 v=64
62041 On ch=10 n=49 v=0
62085 On ch=10 n=36 v=0
62088 On ch=10 n=46 v=92
62089 On ch=10 n=46 v=0
62136 On ch=10 n=46 v=92
62136 On ch=10 n=40 v=106
62137 On ch=10 n=46 v=0
62137 On ch=10 n=40 v=0
62184 On ch=10 n=46 v=92
62185 On ch=10 n=46 v=0
62204 On ch=10 n=36 v=50
62205 On ch=10 n=36 v=0
62212 On ch=10 n=36 v=64
62213 On ch=10 n=36 v=0
62232 On ch=10 n=40 v=106
62232 On ch=10 n=46 v=106
62233 On ch=10 n=40 v=0
62233 On ch=10 n=46 v=0
62280 On ch=10 n=46 v=92
62281 On ch=10 n=46 v=0
62304 On ch=10 n=36 v=78
62305 On ch=10 n=36 v=0
62328 On ch=10 n=40 v=106
62328 On ch=10 n=46 v=92
62329 On ch=10 n=40 v=0
62329 On ch=10 n=46 v=0
62376 On ch=10 n=46 v=92
62377 On ch=10 n=46 v=0
62400 On ch=10 n=36 v=78
62401 On ch=10 n=36 v=0
62424 On ch=10 n=40 v=106
62424 On ch=10 n=46 v=106
62425 On ch=10 n=40 v=0
62425 On ch=10 n=46 v=0
62472 On ch=10 n=46 v=92
62473 On ch=10 n=46 v=0
62496 On ch=10 n=36 v=78
62497 On ch=10 n=36 v=0
62520 On ch=10 n=40 v=106
62520 On ch=10 n=46 v=92
62521 On ch=10 n=40 v=0
62521 On ch=10 n=46 v=0
62568 On ch=10 n=46 v=92
62569 On ch=10 n=46 v=0
62616 On ch=10 n=40 v=106
62616 On ch=10 n=46 v=106
62617 On ch=10 n=40 v=0
62617 On ch=10 n=46 v=0
62664 On ch=10 n=46 v=92
62665 On ch=10 n=46 v=0
62688 On ch=10 n=36 v=78
62689 On ch=10 n=36 v=0
62712 On ch=10 n=40 v=106
62712 On ch=10 n=46 v=92
62713 On ch=10 n=40 v=0
62713 On ch=10 n=46 v=0
62760 On ch=10 n=46 v=92
62761 On ch=10 n=46 v=0
62784 On ch=10 n=36 v=78
62785 On ch=10 n=36 v=0
62808 On ch=10 n=40 v=106
62808 On ch=10 n=46 v=106
62809 On ch=10 n=40 v=0
62809 On ch=10 n=46 v=0
62856 On ch=10 n=46 v=92
62857 On ch=10 n=46 v=0
62884 On ch=10 n=36 v=64
62885 On ch=10 n=36 v=0
62892 On ch=10 n=36 v=78
62893 On ch=10 n=36 v=0
62904 On ch=10 n=40 v=106
62904 On ch=10 n=46 v=92
62905 On ch=10 n=40 v=0
62905 On ch=10 n=46 v=0
62952 On ch=10 n=46 v=92
62953 On ch=10 n=46 v=0
62976 On ch=10 n=36 v=78
62977 On ch=10 n=36 v=0
63000 On ch=10 n=40 v=106
63000 On ch=10 n=46 v=106
63001 On ch=10 n=40 v=0
63001 On ch=10 n=46 v=0
63048 On ch=10 n=46 v=106
63049 On ch=10 n=46 v=0
63076 On ch=10 n=36 v=64
63077 On ch=10 n=36 v=0
63084 On ch=10 n=36 v=78
63085 On ch=10 n=36 v=0
63096 On ch=10 n=40 v=106
63096 On ch=10 n=46 v=92
63097 On ch=10 n=40 v=0
63097 On ch=10 n=46 v=0
63144 On ch=10 n=46 v=92
63145 On ch=10 n=46 v=0
63172 On ch=10 n=36 v=64
63173 On ch=10 n=36 v=0
63180 On ch=10 n=36 v=78
63181 On ch=10 n=36 v=0
63192 On ch=10 n=49 v=106
63192 On ch=10 n=40 v=106
63193 On ch=10 n=49 v=0
63193 On ch=10 n=40 v=0
63240 On ch=10 n=46 v=92
63241 On ch=10 n=46 v=0
63268 On ch=10 n=36 v=64
63269 On ch=10 n=36 v=0
63276 On ch=10 n=36 v=78
63277 On ch=10 n=36 v=0
63288 On ch=10 n=49 v=120
63288 On ch=10 n=40 v=106
63289 On ch=10 n=49 v=0
63289 On ch=10 n=40 v=0
63336 On ch=10 n=46 v=106
63337 On ch=10 n=46 v=0
63364 On ch=10 n=36 v=64
63365 On ch=10 n=36 v=0
63372 On ch=10 n=36 v=78
63373 On ch=10 n=36 v=0
63384 On ch=10 n=49 v=106
63384 On ch=10 n=40 v=106
63385 On ch=10 n=49 v=0
63385 On ch=10 n=40 v=0
63432 On ch=10 n=46 v=106
63433 On ch=10 n=46 v=0
63460 On ch=10 n=36 v=64
63461 On ch=10 n=36 v=0
63468 On ch=10 n=36 v=78
63469 On ch=10 n=36 v=0
63480 On ch=10 n=49 v=120
63480 On ch=10 n=40 v=106
63481 On ch=10 n=49 v=0
63481 On ch=10 n=40 v=0
63528 On ch=10 n=46 v=106
63529 On ch=10 n=46 v=0
63556 On ch=10 n=36 v=64
63557 On ch=10 n=36 v=0
63564 On ch=10 n=36 v=78
63565 On ch=10 n=36 v=0
63576 On ch=10 n=49 v=106
63576 On ch=10 n=40 v=106
63577 On ch=10 n=49 v=0
63577 On ch=10 n=40 v=0
63624 On ch=10 n=46 v=106
63625 On ch=10 n=46 v=0
63652 On ch=10 n=36 v=64
63653 On ch=10 n=36 v=0
63660 On ch=10 n=36 v=78
63661 On ch=10 n=36 v=0
63672 On ch=10 n=49 v=120
63672 On ch=10 n=40 v=106
63673 On ch=10 n=49 v=0
63673 On ch=10 n=40 v=0
63720 On ch=10 n=46 v=106
63721 On ch=10 n=46 v=0
63748 On ch=10 n=36 v=64
63749 On ch=10 n=36 v=0
63756 On ch=10 n=36 v=78
63757 On ch=10 n=36 v=0
63768 On ch=10 n=49 v=106
63768 On ch=10 n=40 v=106
63769 On ch=10 n=49 v=0
63769 On ch=10 n=40 v=0
63816 On ch=10 n=46 v=106
63817 On ch=10 n=46 v=0
63844 On ch=10 n=36 v=64
63845 On ch=10 n=36 v=0
63852 On ch=10 n=36 v=78
63853 On ch=10 n=36 v=0
63864 On ch=10 n=49 v=120
63864 On ch=10 n=40 v=106
63865 On ch=10 n=49 v=0
63865 On ch=10 n=40 v=0
63912 On ch=10 n=46 v=106
63913 On ch=10 n=46 v=0
63940 On ch=10 n=36 v=64
63941 On ch=10 n=36 v=0
63948 On ch=10 n=36 v=78
63949 On ch=10 n=36 v=0
63960 On ch=10 n=49 v=106
63960 On ch=10 n=40 v=106
63961 On ch=10 n=49 v=0
63961 On ch=10 n=40 v=0
64008 On ch=10 n=46 v=106
64009 On ch=10 n=46 v=0
64036 On ch=10 n=36 v=64
64037 On ch=10 n=36 v=0
64044 On ch=10 n=36 v=78
64045 On ch=10 n=36 v=0
64056 On ch=10 n=49 v=120
64056 On ch=10 n=40 v=106
64057 On ch=10 n=49 v=0
64057 On ch=10 n=40 v=0
64104 On ch=10 n=46 v=106
64105 On ch=10 n=46 v=0
64132 On ch=10 n=36 v=64
64133 On ch=10 n=36 v=0
64140 On ch=10 n=36 v=78
64141 On ch=10 n=36 v=0
64152 On ch=10 n=49 v=106
64152 On ch=10 n=40 v=106
64153 On ch=10 n=49 v=0
64153 On ch=10 n=40 v=0
64200 On ch=10 n=46 v=106
64201 On ch=10 n=46 v=0
64228 On ch=10 n=36 v=64
64229 On ch=10 n=36 v=0
64236 On ch=10 n=36 v=78
64237 On ch=10 n=36 v=0
64248 Par ch=10 c=91 v=108
64248 On ch=10 n=49 v=120
64248 On ch=10 n=40 v=106
64249 On ch=10 n=49 v=0
64249 On ch=10 n=40 v=0
64296 On ch=10 n=46 v=106
64297 On ch=10 n=46 v=0
64324 On ch=10 n=36 v=64
64325 On ch=10 n=36 v=0
64332 On ch=10 n=36 v=78
64333 On ch=10 n=36 v=0
64344 On ch=10 n=49 v=120
64344 On ch=10 n=40 v=120
64345 On ch=10 n=49 v=0
64345 On ch=10 n=40 v=0
64392 On ch=10 n=46 v=106
64393 On ch=10 n=46 v=0
64420 On ch=10 n=40 v=78
64421 On ch=10 n=40 v=0
64428 On ch=10 n=40 v=50
64429 On ch=10 n=40 v=0
64440 On ch=10 n=46 v=106
64440 On ch=10 n=36 v=78
64440 On ch=10 n=49 v=106
64441 On ch=10 n=46 v=0
64441 On ch=10 n=36 v=0
64441 On ch=10 n=49 v=0
64488 On ch=10 n=46 v=106
64489 On ch=10 n=46 v=0
64516 On ch=10 n=36 v=64
64517 On ch=10 n=36 v=0
64524 On ch=10 n=36 v=78
64525 On ch=10 n=36 v=0
64536 On ch=10 n=49 v=120
64536 On ch=10 n=40 v=106
64537 On ch=10 n=49 v=0
64537 On ch=10 n=40 v=0
64584 On ch=10 n=46 v=106
64585 On ch=10 n=46 v=0
64632 On ch=10 n=46 v=106
64632 On ch=10 n=36 v=78
64632 On ch=10 n=49 v=120
64633 On ch=10 n=46 v=0
64633 On ch=10 n=36 v=0
64633 On ch=10 n=49 v=0
64680 On ch=10 n=46 v=106
64681 On ch=10 n=46 v=0
64708 On ch=10 n=36 v=64
64709 On ch=10 n=36 v=0
64716 On ch=10 n=36 v=78
64717 On ch=10 n=36 v=0
64728 On ch=10 n=49 v=120
64728 On ch=10 n=40 v=106
64729 On ch=10 n=49 v=0
64729 On ch=10 n=40 v=0
64776 On ch=10 n=46 v=106
64777 On ch=10 n=46 v=0
64824 On ch=10 n=46 v=106
64824 On ch=10 n=36 v=78
64824 On ch=10 n=49 v=120
64825 On ch=10 n=46 v=0
64825 On ch=10 n=36 v=0
64825 On ch=10 n=49 v=0
64872 On ch=10 n=46 v=106
64873 On ch=10 n=46 v=0
64900 On ch=10 n=36 v=64
64901 On ch=10 n=36 v=0
64908 On ch=10 n=36 v=78
64909 On ch=10 n=36 v=0
64920 On ch=10 n=49 v=120
64920 On ch=10 n=40 v=106
64921 On ch=10 n=49 v=0
64921 On ch=10 n=40 v=0
64968 On ch=10 n=40 v=106
64968 On ch=10 n=46 v=106
64969 On ch=10 n=40 v=0
64969 On ch=10 n=46 v=0
65016 On ch=10 n=36 v=78
65016 On ch=10 n=49 v=120
65016 On ch=10 n=40 v=106
65017 On ch=10 n=36 v=0
65017 On ch=10 n=49 v=0
65017 On ch=10 n=40 v=0
65064 On ch=10 n=46 v=92
65065 On ch=10 n=46 v=0
65092 On ch=10 n=36 v=64
65093 On ch=10 n=36 v=0
65100 On ch=10 n=36 v=78
65101 On ch=10 n=36 v=0
65112 On ch=10 n=49 v=120
65112 On ch=10 n=40 v=120
65113 On ch=10 n=49 v=0
65113 On ch=10 n=40 v=0
65160 On ch=10 n=46 v=120
65161 On ch=10 n=46 v=0
65188 On ch=10 n=40 v=78
65189 On ch=10 n=40 v=0
65196 On ch=10 n=40 v=50
65197 On ch=10 n=40 v=0
65208 On ch=10 n=46 v=92
65208 On ch=10 n=36 v=64
65208 On ch=10 n=49 v=120
65209 On ch=10 n=46 v=0
65209 On ch=10 n=36 v=0
65209 On ch=10 n=49 v=0
65256 On ch=10 n=46 v=106
65257 On ch=10 n=46 v=0
65284 On ch=10 n=36 v=64
65285 On ch=10 n=36 v=0
65292 On ch=10 n=36 v=78
65293 On ch=10 n=36 v=0
65304 On ch=10 n=49 v=120
65304 On ch=10 n=40 v=120
65305 On ch=10 n=49 v=0
65305 On ch=10 n=40 v=0
65352 On ch=10 n=40 v=120
65352 On ch=10 n=46 v=106
65353 On ch=10 n=40 v=0
65353 On ch=10 n=46 v=0
65380 On ch=10 n=40 v=64
65381 On ch=10 n=40 v=0
65388 On ch=10 n=40 v=50
65389 On ch=10 n=40 v=0
65400 On ch=10 n=46 v=106
65400 On ch=10 n=36 v=78
65400 On ch=10 n=49 v=120
65401 On ch=10 n=46 v=0
65401 On ch=10 n=36 v=0
65401 On ch=10 n=49 v=0
65448 On ch=10 n=46 v=106
65449 On ch=10 n=46 v=0
65476 On ch=10 n=36 v=64
65477 On ch=10 n=36 v=0
65484 On ch=10 n=36 v=78
65485 On ch=10 n=36 v=0
65496 On ch=10 n=49 v=120
65496 On ch=10 n=40 v=120
65497 On ch=10 n=49 v=0
65497 On ch=10 n=40 v=0
65544 On ch=10 n=46 v=106
65545 On ch=10 n=46 v=0
65592 On ch=10 n=46 v=106
65592 On ch=10 n=36 v=78
65592 On ch=10 n=49 v=120
65593 On ch=10 n=46 v=0
65593 On ch=10 n=36 v=0
65593 On ch=10 n=49 v=0
65640 On ch=10 n=46 v=106
65641 On ch=10 n=46 v=0
65664 On ch=10 n=36 v=64
65665 On ch=10 n=36 v=0
65688 On ch=10 n=49 v=120
65688 On ch=10 n=40 v=106
65689 On ch=10 n=49 v=0
65689 On ch=10 n=40 v=0
65736 On ch=10 n=40 v=106
65736 On ch=10 n=46 v=106
65737 On ch=10 n=40 v=0
65737 On ch=10 n=46 v=0
65784 On ch=10 n=36 v=92
65784 On ch=10 n=49 v=120
65785 On ch=10 n=36 v=0
65785 On ch=10 n=49 v=0
65832 On ch=10 n=36 v=50
65832 On ch=10 n=46 v=106
65833 On ch=10 n=36 v=0
65833 On ch=10 n=46 v=0
65880 On ch=10 n=49 v=120
65880 On ch=10 n=40 v=106
65881 On ch=10 n=49 v=0
65881 On ch=10 n=40 v=0
65928 On ch=10 n=46 v=106
65929 On ch=10 n=46 v=0
65956 On ch=10 n=40 v=64
65957 On ch=10 n=40 v=0
65964 On ch=10 n=40 v=50
65965 On ch=10 n=40 v=0
65976 On ch=10 n=46 v=120
65976 On ch=10 n=36 v=92
65976 On ch=10 n=49 v=120
65977 On ch=10 n=46 v=0
65977 On ch=10 n=36 v=0
65977 On ch=10 n=49 v=0
66024 On ch=10 n=46 v=106
66025 On ch=10 n=46 v=0
66072 On ch=10 n=49 v=120
66072 On ch=10 n=40 v=106
66073 On ch=10 n=49 v=0
66073 On ch=10 n=40 v=0
66120 On ch=10 n=46 v=106
66121 On ch=10 n=46 v=0
66148 On ch=10 n=36 v=50
66149 On ch=10 n=36 v=0
66156 On ch=10 n=36 v=64
66157 On ch=10 n=36 v=0
66168 On ch=10 n=40 v=106
66168 On ch=10 n=49 v=120
66169 On ch=10 n=40 v=0
66169 On ch=10 n=49 v=0
66216 On ch=10 n=46 v=106
66217 On ch=10 n=46 v=0
66244 On ch=10 n=36 v=50
66245 On ch=10 n=36 v=0
66252 On ch=10 n=36 v=78
66253 On ch=10 n=36 v=0
66264 On ch=10 n=46 v=106
66264 On ch=10 n=40 v=106
66265 On ch=10 n=46 v=0
66265 On ch=10 n=40 v=0
66312 On ch=10 n=40 v=106
66312 On ch=10 n=46 v=120
66313 On ch=10 n=40 v=0
66313 On ch=10 n=46 v=0
66336 On ch=10 n=36 v=78
66337 On ch=10 n=36 v=0
66360 On ch=10 n=46 v=106
66361 On ch=10 n=46 v=0
66384 On ch=10 n=36 v=64
66385 On ch=10 n=36 v=0
66408 On ch=10 n=46 v=106
66409 On ch=10 n=46 v=0
66432 On ch=10 n=36 v=64
66433 On ch=10 n=36 v=0
66456 On ch=10 n=49 v=106
66456 On ch=10 n=40 v=106
66457 On ch=10 n=49 v=0
66457 On ch=10 n=40 v=0
66504 On ch=10 n=49 v=120
66504 On ch=10 n=40 v=106
66505 On ch=10 n=49 v=0
66505 On ch=10 n=40 v=0
66552 On ch=10 n=36 v=92
66552 On ch=10 n=49 v=106
66553 On ch=10 n=36 v=0
66553 On ch=10 n=49 v=0
66600 On ch=10 n=46 v=106
66601 On ch=10 n=46 v=0
66628 On ch=10 n=36 v=50
66629 On ch=10 n=36 v=0
66636 On ch=10 n=36 v=78
66637 On ch=10 n=36 v=0
66648 On ch=10 n=49 v=120
66648 On ch=10 n=40 v=106
66649 On ch=10 n=49 v=0
66649 On ch=10 n=40 v=0
66696 On ch=10 n=46 v=106
66697 On ch=10 n=46 v=0
66720 On ch=10 n=36 v=64
66721 On ch=10 n=36 v=0
66744 On ch=10 n=46 v=120
66745 On ch=10 n=46 v=0
66768 On ch=10 n=36 v=78
66769 On ch=10 n=36 v=0
66792 On ch=10 n=46 v=106
66793 On ch=10 n=46 v=0
66816 On ch=10 n=36 v=64
66817 On ch=10 n=36 v=0
66840 On ch=10 n=49 v=120
66840 On ch=10 n=40 v=106
66841 On ch=10 n=49 v=0
66841 On ch=10 n=40 v=0
66888 On ch=10 n=46 v=106
66889 On ch=10 n=46 v=0
66936 On ch=10 n=40 v=106
66936 On ch=10 n=49 v=120
66937 On ch=10 n=40 v=0
66937 On ch=10 n=49 v=0
66984 On ch=10 n=46 v=106
66985 On ch=10 n=46 v=0
67012 On ch=10 n=36 v=50
67013 On ch=10 n=36 v=0
67020 On ch=10 n=36 v=78
67021 On ch=10 n=36 v=0
67032 On ch=10 n=46 v=120
67032 On ch=10 n=40 v=106
67033 On ch=10 n=46 v=0
67033 On ch=10 n=40 v=0
67080 On ch=10 n=46 v=106
67081 On ch=10 n=46 v=0
67104 On ch=10 n=36 v=64
67105 On ch=10 n=36 v=0
67128 On ch=10 n=40 v=120
67128 On ch=10 n=46 v=120
67129 On ch=10 n=40 v=0
67129 On ch=10 n=46 v=0
67176 On ch=10 n=40 v=120
67176 On ch=10 n=46 v=120
67177 On ch=10 n=40 v=0
67177 On ch=10 n=46 v=0
67200 On ch=10 n=36 v=64
67201 On ch=10 n=36 v=0
67224 On ch=10 n=46 v=64
67224 On ch=10 n=36 v=78
67225 On ch=10 n=46 v=0
67225 On ch=10 n=36 v=0
67248 On ch=10 n=36 v=50
67249 On ch=10 n=36 v=0
67272 On ch=10 n=40 v=120
67272 On ch=10 n=49 v=120
67273 On ch=10 n=40 v=0
67273 On ch=10 n=49 v=0
67320 On ch=10 n=36 v=92
67320 On ch=10 n=49 v=120
67321 On ch=10 n=36 v=0
67321 On ch=10 n=49 v=0
67368 On ch=10 n=46 v=106
67369 On ch=10 n=46 v=0
67396 On ch=10 n=36 v=50
67397 On ch=10 n=36 v=0
67404 On ch=10 n=36 v=78
67405 On ch=10 n=36 v=0
67416 On ch=10 n=49 v=106
67416 On ch=10 n=40 v=106
67417 On ch=10 n=49 v=0
67417 On ch=10 n=40 v=0
67464 On ch=10 n=46 v=106
67465 On ch=10 n=46 v=0
67512 On ch=10 n=36 v=78
67512 On ch=10 n=46 v=120
67513 On ch=10 n=36 v=0
67513 On ch=10 n=46 v=0
67560 On ch=10 n=36 v=50
67560 On ch=10 n=46 v=106
67561 On ch=10 n=36 v=0
67561 On ch=10 n=46 v=0
67576 On ch=10 n=36 v=50
67577 On ch=10 n=36 v=0
67608 On ch=10 n=46 v=78
67608 On ch=10 n=40 v=106
67609 On ch=10 n=46 v=0
67609 On ch=10 n=40 v=0
67656 On ch=10 n=49 v=120
67656 On ch=10 n=40 v=106
67657 On ch=10 n=49 v=0
67657 On ch=10 n=40 v=0
67704 On ch=10 n=46 v=106
67704 On ch=10 n=38 v=106
67704 On ch=10 n=36 v=92
67705 On ch=10 n=46 v=0
67705 On ch=10 n=38 v=0
67705 On ch=10 n=36 v=0
67716 On ch=10 n=38 v=92
67717 On ch=10 n=38 v=0
67728 On ch=10 n=38 v=92
67729 On ch=10 n=38 v=0
67740 On ch=10 n=40 v=106
67741 On ch=10 n=40 v=0
67752 On ch=10 n=40 v=106
67753 On ch=10 n=40 v=0
67764 On ch=10 n=38 v=92
67765 On ch=10 n=38 v=0
67776 On ch=10 n=49 v=120
67776 On ch=10 n=36 v=92
67777 On ch=10 n=49 v=0
67777 On ch=10 n=36 v=0
67788 On ch=10 n=38 v=92
67789 On ch=10 n=38 v=0
67800 On ch=10 n=38 v=92
67801 On ch=10 n=38 v=0
67812 On ch=10 n=40 v=106
67813 On ch=10 n=40 v=0
67824 On ch=10 n=40 v=106
67825 On ch=10 n=40 v=0
67836 On ch=10 n=38 v=92
67837 On ch=10 n=38 v=0
67848 On ch=10 n=46 v=120
67848 On ch=10 n=38 v=106
67848 On ch=10 n=36 v=92
67849 On ch=10 n=46 v=0
67849 On ch=10 n=38 v=0
67849 On ch=10 n=36 v=0
67860 On ch=10 n=38 v=92
67861 On ch=10 n=38 v=0
67872 On ch=10 n=38 v=92
67873 On ch=10 n=38 v=0
67884 On ch=10 n=40 v=106
67885 On ch=10 n=40 v=0
67896 On ch=10 n=40 v=106
67897 On ch=10 n=40 v=0
67908 On ch=10 n=38 v=92
67909 On ch=10 n=38 v=0
67920 On ch=10 n=49 v=120
67920 On ch=10 n=38 v=106
67920 On ch=10 n=36 v=92
67921 On ch=10 n=49 v=0
67921 On ch=10 n=38 v=0
67921 On ch=10 n=36 v=0
67932 On ch=10 n=38 v=92
67933 On ch=10 n=38 v=0
67944 On ch=10 n=38 v=92
67945 On ch=10 n=38 v=0
67956 On ch=10 n=40 v=92
67957 On ch=10 n=40 v=0
67968 On ch=10 n=40 v=92
67969 On ch=10 n=40 v=0
67980 On ch=10 n=38 v=92
67981 On ch=10 n=38 v=0
67992 On ch=10 n=46 v=92
67992 On ch=10 n=36 v=92
67993 On ch=10 n=46 v=0
67993 On ch=10 n=36 v=0
68016 On ch=10 n=36 v=106
68017 On ch=10 n=36 v=0
68040 On ch=10 n=46 v=92
68040 On ch=10 n=36 v=92
68041 On ch=10 n=46 v=0
68041 On ch=10 n=36 v=0
68088 On ch=10 n=36 v=106
68088 On ch=10 n=49 v=120
68089 On ch=10 n=36 v=0
68089 On ch=10 n=49 v=0
68136 On ch=10 n=46 v=106
68137 On ch=10 n=46 v=0
68184 On ch=10 n=49 v=120
68184 On ch=10 n=40 v=106
68185 On ch=10 n=49 v=0
68185 On ch=10 n=40 v=0
68232 On ch=10 n=46 v=106
68233 On ch=10 n=46 v=0
68280 On ch=10 n=36 v=106
68280 On ch=10 n=46 v=120
68281 On ch=10 n=36 v=0
68281 On ch=10 n=46 v=0
68328 On ch=10 n=46 v=120
68329 On ch=10 n=46 v=0
68356 On ch=10 n=36 v=64
68357 On ch=10 n=36 v=0
68364 On ch=10 n=36 v=78
68365 On ch=10 n=36 v=0
68376 On ch=10 n=46 v=120
68376 On ch=10 n=40 v=120
68377 On ch=10 n=46 v=0
68377 On ch=10 n=40 v=0
68424 On ch=10 n=46 v=106
68425 On ch=10 n=46 v=0
68460 On ch=10 n=36 v=92
68461 On ch=10 n=36 v=0
68472 On ch=10 n=40 v=64
68472 On ch=10 n=49 v=120
68473 On ch=10 n=40 v=0
68473 On ch=10 n=49 v=0
68520 On ch=10 n=46 v=106
68521 On ch=10 n=46 v=0
68568 On ch=10 n=49 v=106
68568 On ch=10 n=40 v=106
68569 On ch=10 n=49 v=0
68569 On ch=10 n=40 v=0
68616 On ch=10 n=46 v=106
68617 On ch=10 n=46 v=0
68664 On ch=10 n=40 v=120
68664 On ch=10 n=49 v=120
68665 On ch=10 n=40 v=0
68665 On ch=10 n=49 v=0
68712 On ch=10 n=46 v=92
68712 On ch=10 n=38 v=92
68713 On ch=10 n=46 v=0
68713 On ch=10 n=38 v=0
68736 On ch=10 n=46 v=106
68736 On ch=10 n=38 v=92
68737 On ch=10 n=46 v=0
68737 On ch=10 n=38 v=0
68760 On ch=10 n=46 v=106
68760 On ch=10 n=38 v=106
68761 On ch=10 n=46 v=0
68761 On ch=10 n=38 v=0
68784 On ch=10 n=46 v=106
68784 On ch=10 n=38 v=106
68785 On ch=10 n=46 v=0
68785 On ch=10 n=38 v=0
68808 On ch=10 n=46 v=120
68808 On ch=10 n=38 v=120
68809 On ch=10 n=46 v=0
68809 On ch=10 n=38 v=0
68832 On ch=10 n=46 v=106
68833 On ch=10 n=46 v=0
68856 On ch=10 n=46 v=106
68856 On ch=10 n=49 v=106
68856 On ch=10 n=36 v=92
68857 On ch=10 n=46 v=0
68857 On ch=10 n=49 v=0
68857 On ch=10 n=36 v=0
68904 On ch=10 n=49 v=106
68904 On ch=10 n=46 v=106
68904 On ch=10 n=36 v=78
68905 On ch=10 n=49 v=0
68905 On ch=10 n=46 v=0
68905 On ch=10 n=36 v=0
68952 On ch=10 n=46 v=120
68952 On ch=10 n=40 v=120
68953 On ch=10 n=46 v=0
68953 On ch=10 n=40 v=0
69000 On ch=10 n=49 v=106
69000 On ch=10 n=46 v=106
69000 On ch=10 n=38 v=120
69001 On ch=10 n=49 v=0
69001 On ch=10 n=46 v=0
69001 On ch=10 n=38 v=0
69048 On ch=10 n=46 v=106
69048 On ch=10 n=49 v=106
69048 On ch=10 n=36 v=78
69049 On ch=10 n=46 v=0
69049 On ch=10 n=49 v=0
69049 On ch=10 n=36 v=0
69096 On ch=10 n=46 v=106
69096 On ch=10 n=49 v=92
69096 On ch=10 n=36 v=78
69097 On ch=10 n=46 v=0
69097 On ch=10 n=49 v=0
69097 On ch=10 n=36 v=0
69144 On ch=10 n=46 v=106
69144 On ch=10 n=40 v=120
69145 On ch=10 n=46 v=0
69145 On ch=10 n=40 v=0
69192 On ch=10 n=46 v=106
69192 On ch=10 n=49 v=92
69192 On ch=10 n=40 v=120
69193 On ch=10 n=46 v=0
69193 On ch=10 n=49 v=0
69193 On ch=10 n=40 v=0
69240 On ch=10 n=49 v=106
69240 On ch=10 n=36 v=92
69241 On ch=10 n=49 v=0
69241 On ch=10 n=36 v=0
69288 On ch=10 n=42 v=120
69289 On ch=10 n=42 v=0
69312 On ch=10 n=36 v=64
69313 On ch=10 n=36 v=0
69336 On ch=10 n=40 v=120
69336 On ch=10 n=49 v=106
69337 On ch=10 n=40 v=0
69337 On ch=10 n=49 v=0
69384 On ch=10 n=42 v=120
69385 On ch=10 n=42 v=0
69412 On ch=10 n=40 v=78
69413 On ch=10 n=40 v=0
69420 On ch=10 n=40 v=64
69421 On ch=10 n=40 v=0
69432 Par ch=10 c=7 v=127
69432 On ch=10 n=36 v=92
69432 On ch=10 n=49 v=120
69433 On ch=10 n=36 v=0
69433 On ch=10 n=49 v=0
69448 Par ch=10 c=7 v=126
69464 Par ch=10 c=7 v=125
69480 On ch=10 n=42 v=120
69480 On ch=10 n=36 v=64
69480 Par ch=10 c=7 v=124
69481 On ch=10 n=42 v=0
69481 On ch=10 n=36 v=0
69492 Par ch=10 c=7 v=123
69504 On ch=10 n=36 v=78
69505 On ch=10 n=36 v=0
69508 Par ch=10 c=7 v=122
69524 Par ch=10 c=7 v=121
69528 On ch=10 n=40 v=106
69528 On ch=10 n=49 v=120
69529 On ch=10 n=40 v=0
69529 On ch=10 n=49 v=0
69536 Par ch=10 c=7 v=120
69552 Par ch=10 c=7 v=119
69568 Par ch=10 c=7 v=118
69576 On ch=10 n=42 v=120
69576 On ch=10 n=36 v=78
69577 On ch=10 n=42 v=0
69577 On ch=10 n=36 v=0
69580 Par ch=10 c=7 v=117
69596 Par ch=10 c=7 v=116
69612 Par ch=10 c=7 v=115
69624 On ch=10 n=36 v=92
69624 On ch=10 n=49 v=120
69624 Par ch=10 c=7 v=114
69625 On ch=10 n=36 v=0
69625 On ch=10 n=49 v=0
69640 Par ch=10 c=7 v=113
69656 Par ch=10 c=7 v=112
69672 On ch=10 n=51 v=106
69672 On ch=10 n=36 v=64
69672 Par ch=10 c=7 v=111
69673 On ch=10 n=51 v=0
69673 On ch=10 n=36 v=0
69684 Par ch=10 c=7 v=110
69696 On ch=10 n=36 v=50
69697 On ch=10 n=36 v=0
69700 Par ch=10 c=7 v=109
69716 Par ch=10 c=7 v=108
69720 On ch=10 n=40 v=120
69720 On ch=10 n=49 v=120
69721 On ch=10 n=40 v=0
69721 On ch=10 n=49 v=0
69728 Par ch=10 c=7 v=107
69744 Par ch=10 c=7 v=106
69760 Par ch=10 c=7 v=105
69768 On ch=10 n=44 v=106
69768 On ch=10 n=51 v=92
69769 On ch=10 n=44 v=0
69769 On ch=10 n=51 v=0
69772 Par ch=10 c=7 v=104
69788 Par ch=10 c=7 v=103
69792 On ch=10 n=44 v=92
69792 On ch=10 n=51 v=92
69793 On ch=10 n=44 v=0
69793 On ch=10 n=51 v=0
69804 Par ch=10 c=7 v=102
69816 On ch=10 n=36 v=106
69816 On ch=10 n=49 v=120
69816 Par ch=10 c=7 v=101
69817 On ch=10 n=36 v=0
69817 On ch=10 n=49 v=0
69832 Par ch=10 c=7 v=100
69848 Par ch=10 c=7 v=99
69864 On ch=10 n=51 v=106
69864 Par ch=10 c=7 v=98
69865 On ch=10 n=51 v=0
69876 Par ch=10 c=7 v=97
69890 On ch=10 n=36 v=64
69891 On ch=10 n=36 v=0
69892 Par ch=10 c=7 v=96
69900 On ch=10 n=36 v=50
69901 On ch=10 n=36 v=0
69908 Par ch=10 c=7 v=95
69912 On ch=10 n=40 v=120
69912 On ch=10 n=51 v=92
69913 On ch=10 n=40 v=0
69913 On ch=10 n=51 v=0
69920 Par ch=10 c=7 v=94
69936 Par ch=10 c=7 v=93
69952 Par ch=10 c=7 v=92
69960 On ch=10 n=51 v=120
69961 On ch=10 n=51 v=0
69964 Par ch=10 c=7 v=91
69980 Par ch=10 c=7 v=90
69984 On ch=10 n=36 v=78
69984 On ch=10 n=51 v=78
69985 On ch=10 n=36 v=0
69985 On ch=10 n=51 v=0
69996 Par ch=10 c=7 v=89
70008 On ch=10 n=49 v=120
70008 On ch=10 n=36 v=106
70008 Par ch=10 c=7 v=88
70009 On ch=10 n=49 v=0
70009 On ch=10 n=36 v=0
70024 Par ch=10 c=7 v=87
70040 Par ch=10 c=7 v=86
70052 Par ch=10 c=7 v=85
70056 On ch=10 n=42 v=106
70057 On ch=10 n=42 v=0
70068 Par ch=10 c=7 v=84
70080 On ch=10 n=36 v=64
70081 On ch=10 n=36 v=0
70084 Par ch=10 c=7 v=83
70100 Par ch=10 c=7 v=82
70104 On ch=10 n=40 v=120
70104 On ch=10 n=49 v=120
70105 On ch=10 n=40 v=0
70105 On ch=10 n=49 v=0
70112 Par ch=10 c=7 v=81
70128 Par ch=10 c=7 v=80
70144 Par ch=10 c=7 v=79
70152 On ch=10 n=46 v=106
70153 On ch=10 n=46 v=0
70156 Par ch=10 c=7 v=78
70172 Par ch=10 c=7 v=77
70176 On ch=10 n=40 v=92
70177 On ch=10 n=40 v=0
70188 Par ch=10 c=7 v=76
70200 On ch=10 n=46 v=106
70200 Par ch=10 c=7 v=75
70201 On ch=10 n=46 v=0
70216 Par ch=10 c=7 v=74
70224 On ch=10 n=40 v=92
70225 On ch=10 n=40 v=0
70232 Par ch=10 c=7 v=73
70244 Par ch=10 c=7 v=72
70248 On ch=10 n=46 v=92
70249 On ch=10 n=46 v=0
70260 Par ch=10 c=7 v=71
70276 On ch=10 n=36 v=78
70276 Par ch=10 c=7 v=70
70277 On ch=10 n=36 v=0
70284 On ch=10 n=36 v=50
70285 On ch=10 n=36 v=0
70292 Par ch=10 c=7 v=69
70296 On ch=10 n=40 v=106
70296 On ch=10 n=49 v=120
70297 On ch=10 n=40 v=0
70297 On ch=10 n=49 v=0
70304 Par ch=10 c=7 v=68
70320 Par ch=10 c=7 v=67
70336 Par ch=10 c=7 v=66
70344 On ch=10 n=46 v=106
70345 On ch=10 n=46 v=0
70348 Par ch=10 c=7 v=65
70364 Par ch=10 c=7 v=64
70368 On ch=10 n=40 v=78
70369 On ch=10 n=40 v=0
70380 Par ch=10 c=7 v=63
70392 On ch=10 n=36 v=92
70392 On ch=10 n=49 v=106
70392 Par ch=10 c=7 v=62
70393 On ch=10 n=36 v=0
70393 On ch=10 n=49 v=0
70408 Par ch=10 c=7 v=61
70424 Par ch=10 c=7 v=60
70436 Par ch=10 c=7 v=59
70440 On ch=10 n=51 v=106
70441 On ch=10 n=51 v=0
70452 Par ch=10 c=7 v=58
70464 On ch=10 n=36 v=78
70465 On ch=10 n=36 v=0
70468 Par ch=10 c=7 v=57
70484 Par ch=10 c=7 v=56
70488 On ch=10 n=40 v=106
70488 On ch=10 n=49 v=120
70489 On ch=10 n=40 v=0
70489 On ch=10 n=49 v=0
70496 Par ch=10 c=7 v=55
70512 Par ch=10 c=7 v=54
70528 Par ch=10 c=7 v=53
70536 On ch=10 n=44 v=92
70536 On ch=10 n=51 v=106
70537 On ch=10 n=44 v=0
70537 On ch=10 n=51 v=0
70540 Par ch=10 c=7 v=52
70556 Par ch=10 c=7 v=51
70560 On ch=10 n=40 v=78
70560 On ch=10 n=44 v=92
70561 On ch=10 n=40 v=0
70561 On ch=10 n=44 v=0
70572 Par ch=10 c=7 v=50
70584 On ch=10 n=36 v=92
70584 On ch=10 n=49 v=106
70584 Par ch=10 c=7 v=49
70585 On ch=10 n=36 v=0
70585 On ch=10 n=49 v=0
70600 Par ch=10 c=7 v=48
70616 Par ch=10 c=7 v=47
70628 Par ch=10 c=7 v=46
70632 On ch=10 n=51 v=106
70633 On ch=10 n=51 v=0
70644 Par ch=10 c=7 v=45
70656 On ch=10 n=36 v=78
70657 On ch=10 n=36 v=0
70660 Par ch=10 c=7 v=44
70672 Par ch=10 c=7 v=43
70680 On ch=10 n=40 v=106
70680 On ch=10 n=49 v=106
70681 On ch=10 n=40 v=0
70681 On ch=10 n=49 v=0
70688 Par ch=10 c=7 v=42
70704 Par ch=10 c=7 v=41
70720 Par ch=10 c=7 v=40
70728 On ch=10 n=51 v=106
70729 On ch=10 n=51 v=0
70732 Par ch=10 c=7 v=39
70748 Par ch=10 c=7 v=38
70752 On ch=10 n=40 v=92
70753 On ch=10 n=40 v=0
70764 Par ch=10 c=7 v=37
70776 On ch=10 n=36 v=92
70776 On ch=10 n=49 v=120
70776 Par ch=10 c=7 v=36
70777 On ch=10 n=36 v=0
70777 On ch=10 n=49 v=0
70792 Par ch=10 c=7 v=35
70808 Par ch=10 c=7 v=34
70820 Par ch=10 c=7 v=33
70824 On ch=10 n=46 v=92
70825 On ch=10 n=46 v=0
70836 Par ch=10 c=7 v=32
70848 On ch=10 n=36 v=78
70849 On ch=10 n=36 v=0
70852 Par ch=10 c=7 v=31
70864 Par ch=10 c=7 v=30
70872 On ch=10 n=40 v=106
70872 On ch=10 n=46 v=106
70873 On ch=10 n=40 v=0
70873 On ch=10 n=46 v=0
70880 Par ch=10 c=7 v=29
70896 Par ch=10 c=7 v=28
70912 Par ch=10 c=7 v=27
70920 On ch=10 n=40 v=106
70920 On ch=10 n=46 v=106
70921 On ch=10 n=40 v=0
70921 On ch=10 n=46 v=0
70924 Par ch=10 c=7 v=26
70940 Par ch=10 c=7 v=25
70944 On ch=10 n=36 v=78
70944 On ch=10 n=46 v=92
70945 On ch=10 n=36 v=0
70945 On ch=10 n=46 v=0
70956 Par ch=10 c=7 v=24
70968 On ch=10 n=46 v=106
70968 Par ch=10 c=7 v=23
70969 On ch=10 n=46 v=0
70984 Par ch=10 c=7 v=22
70992 On ch=10 n=36 v=78
70993 On ch=10 n=36 v=0
71000 Par ch=10 c=7 v=21
71012 Par ch=10 c=7 v=20
71016 On ch=10 n=46 v=106
71017 On ch=10 n=46 v=0
71028 Par ch=10 c=7 v=19
71040 On ch=10 n=36 v=64
71041 On ch=10 n=36 v=0
71044 Par ch=10 c=7 v=18
71056 Par ch=10 c=7 v=17
71064 On ch=10 n=40 v=120
71064 On ch=10 n=49 v=120
71065 On ch=10 n=40 v=0
71065 On ch=10 n=49 v=0
71072 Par ch=10 c=7 v=16
71088 Par ch=10 c=7 v=15
71100 Par ch=10 c=7 v=14
71112 On ch=10 n=46 v=92
71113 On ch=10 n=46 v=0
71116 Par ch=10 c=7 v=13
71132 Par ch=10 c=7 v=12
71148 Par ch=10 c=7 v=11
71160 Par ch=10 c=7 v=10
71160 On ch=10 n=36 v=106
71160 On ch=10 n=49 v=120
71161 On ch=10 n=36 v=0
71161 On ch=10 n=49 v=0
71208 On ch=10 n=46 v=106
71209 On ch=10 n=46 v=0
71256 On ch=10 n=40 v=120
71256 On ch=10 n=49 v=120
71257 On ch=10 n=40 v=0
71257 On ch=10 n=49 v=0
71304 On ch=10 n=46 v=106
71305 On ch=10 n=46 v=0
71352 On ch=10 n=36 v=106
71352 On ch=10 n=49 v=120
71353 On ch=10 n=36 v=0
71353 On ch=10 n=49 v=0
71400 On ch=10 n=46 v=106
71401 On ch=10 n=46 v=0
71448 On ch=10 n=40 v=120
71448 On ch=10 n=49 v=120
71449 On ch=10 n=40 v=0
71449 On ch=10 n=49 v=0
71496 On ch=10 n=46 v=106
71497 On ch=10 n=46 v=0
71497 Meta TrkEnd
TrkEnd
MTrk
0 Meta 0x21 00
96 Par ch=11 c=10 v=62
108 Par ch=11 c=1 v=0
120 Par ch=11 c=91 v=127
120 Par ch=11 c=93 v=96
132 PrCh ch=11 p=25
144 Par ch=11 c=100 v=0
144 Par ch=11 c=101 v=0
144 Par ch=11 c=6 v=12
156 Par ch=11 c=98 v=32
156 Par ch=11 c=99 v=1
156 Par ch=11 c=6 v=64
168 Par ch=11 c=98 v=33
168 Par ch=11 c=99 v=1
168 Par ch=11 c=6 v=44
180 Par ch=11 c=7 v=106
180 Par ch=11 c=11 v=110
25680 PrCh ch=11 p=25
26112 On ch=11 n=52 v=94
26134 On ch=11 n=52 v=0
26136 On ch=11 n=56 v=104
26157 On ch=11 n=56 v=0
26160 On ch=11 n=47 v=94
26182 On ch=11 n=47 v=0
26184 On ch=11 n=56 v=102
26206 On ch=11 n=56 v=0
26208 On ch=11 n=52 v=94
26230 On ch=11 n=52 v=0
26232 On ch=11 n=56 v=94
26278 On ch=11 n=56 v=0
26280 On ch=11 n=52 v=120
26280 On ch=11 n=59 v=80
26280 On ch=11 n=64 v=100
26281 On ch=11 n=59 v=0
26281 On ch=11 n=64 v=0
26292 On ch=11 n=52 v=0
26304 On ch=11 n=50 v=94
26326 On ch=11 n=50 v=0
26328 On ch=11 n=54 v=104
26350 On ch=11 n=54 v=0
26352 On ch=11 n=45 v=94
26374 On ch=11 n=45 v=0
26376 On ch=11 n=54 v=101
26398 On ch=11 n=54 v=0
26400 On ch=11 n=50 v=94
26422 On ch=11 n=50 v=0
26424 On ch=11 n=54 v=94
26472 On ch=11 n=50 v=110
26472 On ch=11 n=57 v=80
26472 On ch=11 n=62 v=110
26473 On ch=11 n=57 v=0
26473 On ch=11 n=62 v=0
26480 Pb ch=11 v=7509
26481 Pb ch=11 v=6827
26482 Pb ch=11 v=6144
26483 Pb ch=11 v=5461
26484 On ch=11 n=50 v=0
26484 Pb ch=11 v=8192
26496 On ch=11 n=43 v=94
26516 On ch=11 n=43 v=0
26520 On ch=11 n=47 v=101
26544 On ch=11 n=47 v=0
26544 On ch=11 n=43 v=94
26566 On ch=11 n=43 v=0
26568 On ch=11 n=47 v=99
26591 On ch=11 n=47 v=0
26592 On ch=11 n=43 v=94
26614 On ch=11 n=43 v=0
26616 On ch=11 n=47 v=102
26640 On ch=11 n=47 v=0
26640 On ch=11 n=43 v=60
26652 On ch=11 n=43 v=0
26664 On ch=11 n=47 v=99
26670 On ch=11 n=54 v=0
26688 On ch=11 n=47 v=0
26688 On ch=11 n=45 v=99
26708 On ch=11 n=45 v=0
26712 On ch=11 n=52 v=105
26736 On ch=11 n=52 v=0
26736 On ch=11 n=45 v=98
26758 On ch=11 n=45 v=0
26760 On ch=11 n=52 v=103
26784 On ch=11 n=52 v=0
26784 On ch=11 n=45 v=99
26806 On ch=11 n=45 v=0
26808 On ch=11 n=52 v=105
26832 On ch=11 n=52 v=0
26832 On ch=11 n=45 v=97
26854 On ch=11 n=45 v=0
26856 On ch=11 n=45 v=80
26880 On ch=11 n=45 v=0
26880 On ch=11 n=52 v=94
26902 On ch=11 n=52 v=0
26904 On ch=11 n=56 v=104
26925 On ch=11 n=56 v=0
26928 On ch=11 n=47 v=94
26950 On ch=11 n=47 v=0
26952 On ch=11 n=56 v=102
26974 On ch=11 n=56 v=0
26976 On ch=11 n=52 v=94
26998 On ch=11 n=52 v=0
27000 On ch=11 n=56 v=94
27046 On ch=11 n=56 v=0
27048 On ch=11 n=52 v=120
27048 On ch=11 n=59 v=80
27048 On ch=11 n=64 v=100
27049 On ch=11 n=59 v=0
27049 On ch=11 n=64 v=0
27060 On ch=11 n=52 v=0
27072 On ch=11 n=50 v=94
27094 On ch=11 n=50 v=0
27096 On ch=11 n=54 v=104
27118 On ch=11 n=54 v=0
27120 On ch=11 n=45 v=94
27142 On ch=11 n=45 v=0
27144 On ch=11 n=54 v=101
27166 On ch=11 n=54 v=0
27168 On ch=11 n=50 v=94
27190 On ch=11 n=50 v=0
27192 On ch=11 n=54 v=94
27240 On ch=11 n=54 v=0
27240 On ch=11 n=50 v=110
27240 On ch=11 n=57 v=80
27240 On ch=11 n=62 v=110
27241 On ch=11 n=57 v=0
27241 On ch=11 n=62 v=0
27252 On ch=11 n=50 v=0
27264 On ch=11 n=43 v=94
27284 On ch=11 n=43 v=0
27288 On ch=11 n=47 v=101
27312 On ch=11 n=47 v=0
27312 On ch=11 n=43 v=94
27334 On ch=11 n=43 v=0
27336 On ch=11 n=47 v=99
27359 On ch=11 n=47 v=0
27360 On ch=11 n=43 v=94
27382 On ch=11 n=43 v=0
27384 On ch=11 n=47 v=102
27408 On ch=11 n=47 v=0
27408 On ch=11 n=43 v=60
27420 On ch=11 n=43 v=0
27432 On ch=11 n=47 v=99
27456 On ch=11 n=47 v=0
27456 On ch=11 n=45 v=107
27492 On ch=11 n=45 v=0
27492 On ch=11 n=45 v=105
27526 On ch=11 n=45 v=0
27528 On ch=11 n=45 v=102
27550 On ch=11 n=45 v=0
27552 On ch=11 n=45 v=100
27574 On ch=11 n=45 v=0
27576 On ch=11 n=45 v=103
27610 On ch=11 n=45 v=0
27612 On ch=11 n=45 v=122
27622 On ch=11 n=45 v=0
27624 On ch=11 n=57 v=127
27624 On ch=11 n=44 v=127
27626 On ch=11 n=57 v=0
27646 On ch=11 n=44 v=0
27648 On ch=11 n=40 v=94
27693 On ch=11 n=40 v=0
27696 On ch=11 n=47 v=94
27718 On ch=11 n=47 v=0
27720 On ch=11 n=56 v=102
27742 On ch=11 n=56 v=0
27744 On ch=11 n=52 v=94
27766 On ch=11 n=52 v=0
27768 On ch=11 n=56 v=94
27814 On ch=11 n=56 v=0
27816 On ch=11 n=52 v=120
27816 On ch=11 n=59 v=80
27816 On ch=11 n=64 v=100
27817 On ch=11 n=59 v=0
27817 On ch=11 n=64 v=0
27828 On ch=11 n=52 v=0
27840 On ch=11 n=50 v=94
27862 On ch=11 n=50 v=0
27864 On ch=11 n=54 v=104
27886 On ch=11 n=54 v=0
27888 On ch=11 n=45 v=94
27910 On ch=11 n=45 v=0
27912 On ch=11 n=54 v=101
27934 On ch=11 n=54 v=0
27936 On ch=11 n=50 v=94
27958 On ch=11 n=50 v=0
27960 On ch=11 n=54 v=94
28008 On ch=11 n=54 v=0
28008 On ch=11 n=50 v=110
28008 On ch=11 n=57 v=80
28008 On ch=11 n=62 v=110
28009 On ch=11 n=57 v=0
28009 On ch=11 n=62 v=0
28020 On ch=11 n=50 v=0
28032 On ch=11 n=43 v=94
28051 On ch=11 n=43 v=0
28056 On ch=11 n=47 v=101
28080 On ch=11 n=47 v=0
28080 On ch=11 n=43 v=94
28102 On ch=11 n=43 v=0
28104 On ch=11 n=47 v=99
28127 On ch=11 n=47 v=0
28128 On ch=11 n=43 v=94
28150 On ch=11 n=43 v=0
28152 On ch=11 n=47 v=102
28176 On ch=11 n=47 v=0
28176 On ch=11 n=47 v=64
28200 On ch=11 n=47 v=0
28200 On ch=11 n=47 v=55
28224 On ch=11 n=47 v=0
28224 On ch=11 n=45 v=99
28244 On ch=11 n=45 v=0
28248 On ch=11 n=52 v=105
28272 On ch=11 n=52 v=0
28272 On ch=11 n=45 v=98
28294 On ch=11 n=45 v=0
28296 On ch=11 n=52 v=103
28318 On ch=11 n=52 v=0
28320 On ch=11 n=45 v=99
28342 On ch=11 n=45 v=0
28344 On ch=11 n=52 v=105
28378 On ch=11 n=52 v=0
28380 On ch=11 n=52 v=97
28390 On ch=11 n=52 v=0
28392 On ch=11 n=52 v=110
28402 On ch=11 n=52 v=0
28404 On ch=11 n=52 v=94
28414 On ch=11 n=52 v=0
28416 Pb ch=11 v=7509
28416 On ch=11 n=52 v=94
28419 Pb ch=11 v=8192
28438 On ch=11 n=52 v=0
28440 On ch=11 n=56 v=104
28461 On ch=11 n=56 v=0
28464 On ch=11 n=47 v=94
28486 On ch=11 n=47 v=0
28488 On ch=11 n=56 v=102
28510 On ch=11 n=56 v=0
28512 On ch=11 n=52 v=94
28534 On ch=11 n=52 v=0
28536 On ch=11 n=55 v=60
28544 On ch=11 n=55 v=0
28584 On ch=11 n=52 v=120
28584 On ch=11 n=59 v=80
28584 On ch=11 n=64 v=100
28585 On ch=11 n=59 v=0
28585 On ch=11 n=64 v=0
28596 On ch=11 n=52 v=0
28608 On ch=11 n=50 v=94
28630 On ch=11 n=50 v=0
28632 On ch=11 n=54 v=104
28654 On ch=11 n=54 v=0
28656 On ch=11 n=45 v=94
28678 On ch=11 n=45 v=0
28680 On ch=11 n=54 v=101
28702 On ch=11 n=54 v=0
28704 On ch=11 n=50 v=94
28726 On ch=11 n=50 v=0
28728 On ch=11 n=54 v=94
28776 On ch=11 n=54 v=0
28776 On ch=11 n=50 v=110
28776 On ch=11 n=57 v=80
28776 On ch=11 n=62 v=110
28777 On ch=11 n=57 v=0
28777 On ch=11 n=62 v=0
28788 On ch=11 n=50 v=0
28800 On ch=11 n=52 v=94
28822 On ch=11 n=52 v=0
28824 On ch=11 n=56 v=104
28869 On ch=11 n=56 v=0
28872 On ch=11 n=56 v=102
28894 On ch=11 n=56 v=0
28896 On ch=11 n=52 v=94
28918 On ch=11 n=52 v=0
28920 On ch=11 n=56 v=94
28966 On ch=11 n=56 v=0
28968 On ch=11 n=52 v=120
28968 On ch=11 n=59 v=80
28968 On ch=11 n=64 v=100
28969 On ch=11 n=59 v=0
28969 On ch=11 n=64 v=0
28980 On ch=11 n=52 v=0
28992 On ch=11 n=50 v=94
29014 On ch=11 n=50 v=0
29016 On ch=11 n=54 v=104
29038 On ch=11 n=54 v=0
29040 On ch=11 n=45 v=94
29062 On ch=11 n=45 v=0
29064 On ch=11 n=54 v=101
29086 On ch=11 n=54 v=0
29088 On ch=11 n=50 v=94
29110 On ch=11 n=50 v=0
29112 On ch=11 n=54 v=94
29160 On ch=11 n=54 v=0
29160 On ch=11 n=50 v=110
29160 On ch=11 n=57 v=80
29160 On ch=11 n=62 v=110
29161 On ch=11 n=57 v=0
29161 On ch=11 n=62 v=0
29172 On ch=11 n=50 v=0
29184 On ch=11 n=43 v=94
29203 On ch=11 n=43 v=0
29208 On ch=11 n=47 v=101
29232 On ch=11 n=47 v=0
29232 On ch=11 n=43 v=94
29254 On ch=11 n=43 v=0
29256 On ch=11 n=47 v=99
29279 On ch=11 n=47 v=0
29280 On ch=11 n=43 v=94
29302 On ch=11 n=43 v=0
29304 On ch=11 n=47 v=102
29349 On ch=11 n=47 v=0
29352 On ch=11 n=47 v=94
29374 On ch=11 n=47 v=0
29376 On ch=11 n=45 v=99
29396 On ch=11 n=45 v=0
29400 On ch=11 n=52 v=77
29424 On ch=11 n=52 v=0
29424 On ch=11 n=45 v=98
29446 On ch=11 n=45 v=0
29448 On ch=11 n=52 v=98
29470 On ch=11 n=52 v=0
29472 On ch=11 n=45 v=99
29494 On ch=11 n=45 v=0
29496 On ch=11 n=52 v=102
29530 On ch=11 n=52 v=0
29532 On ch=11 n=52 v=97
29542 On ch=11 n=52 v=0
29544 On ch=11 n=52 v=100
29554 On ch=11 n=52 v=0
29556 On ch=11 n=52 v=94
29566 On ch=11 n=52 v=0
29568 On ch=11 n=52 v=94
29590 On ch=11 n=52 v=0
29592 On ch=11 n=56 v=104
29613 On ch=11 n=56 v=0
29616 On ch=11 n=47 v=94
29638 On ch=11 n=47 v=0
29640 On ch=11 n=56 v=102
29662 On ch=11 n=56 v=0
29664 On ch=11 n=52 v=94
29686 On ch=11 n=52 v=0
29688 On ch=11 n=56 v=94
29734 On ch=11 n=56 v=0
29736 On ch=11 n=59 v=64
29736 On ch=11 n=52 v=100
29737 On ch=11 n=59 v=0
29754 On ch=11 n=52 v=0
29760 On ch=11 n=50 v=94
29782 On ch=11 n=50 v=0
29784 On ch=11 n=54 v=104
29806 On ch=11 n=54 v=0
29808 On ch=11 n=45 v=94
29830 On ch=11 n=45 v=0
29832 On ch=11 n=54 v=101
29854 On ch=11 n=54 v=0
29856 On ch=11 n=50 v=94
29878 On ch=11 n=50 v=0
29880 On ch=11 n=54 v=94
29904 On ch=11 n=50 v=88
29926 On ch=11 n=50 v=0
29928 On ch=11 n=54 v=0
29928 On ch=11 n=50 v=102
29928 On ch=11 n=57 v=80
29928 On ch=11 n=62 v=80
29929 On ch=11 n=57 v=0
29929 On ch=11 n=62 v=0
29940 On ch=11 n=50 v=0
29952 On ch=11 n=43 v=94
29972 On ch=11 n=43 v=0
29976 On ch=11 n=47 v=101
30000 On ch=11 n=47 v=0
30000 On ch=11 n=43 v=94
30022 On ch=11 n=43 v=0
30024 On ch=11 n=47 v=99
30047 On ch=11 n=47 v=0
30048 On ch=11 n=43 v=94
30070 On ch=11 n=43 v=0
30072 On ch=11 n=47 v=80
30072 On ch=11 n=43 v=80
30096 On ch=11 n=47 v=0
30120 On ch=11 n=43 v=0
30120 On ch=11 n=47 v=99
30144 On ch=11 n=47 v=0
30144 On ch=11 n=45 v=99
30168 On ch=11 n=45 v=0
30168 On ch=11 n=52 v=75
30188 On ch=11 n=52 v=0
30192 On ch=11 n=45 v=88
30216 On ch=11 n=45 v=0
30216 On ch=11 n=52 v=99
30240 On ch=11 n=52 v=0
30240 On ch=11 n=45 v=96
30264 On ch=11 n=45 v=0
30264 On ch=11 n=52 v=99
30309 On ch=11 n=52 v=0
30312 On ch=11 n=45 v=94
30332 On ch=11 n=45 v=0
30336 Pb ch=11 v=6827
30336 On ch=11 n=52 v=94
30338 Pb ch=11 v=7509
30339 Pb ch=11 v=8192
30358 On ch=11 n=52 v=0
30360 On ch=11 n=56 v=92
30382 On ch=11 n=56 v=0
30384 On ch=11 n=47 v=94
30406 On ch=11 n=47 v=0
30408 On ch=11 n=56 v=102
30430 On ch=11 n=56 v=0
30432 On ch=11 n=52 v=94
30454 On ch=11 n=52 v=0
30456 On ch=11 n=56 v=94
30502 On ch=11 n=56 v=0
30504 On ch=11 n=52 v=120
30504 On ch=11 n=59 v=80
30504 On ch=11 n=64 v=100
30505 On ch=11 n=59 v=0
30505 On ch=11 n=64 v=0
30516 On ch=11 n=52 v=0
30528 On ch=11 n=50 v=88
30550 On ch=11 n=50 v=0
30552 On ch=11 n=54 v=104
30574 On ch=11 n=54 v=0
30576 On ch=11 n=45 v=94
30598 On ch=11 n=45 v=0
30600 On ch=11 n=54 v=101
30622 On ch=11 n=54 v=0
30624 On ch=11 n=50 v=94
30646 On ch=11 n=50 v=0
30648 On ch=11 n=54 v=94
30696 On ch=11 n=54 v=0
30696 On ch=11 n=50 v=99
30696 On ch=11 n=57 v=80
30696 On ch=11 n=62 v=99
30697 On ch=11 n=57 v=0
30697 On ch=11 n=62 v=0
30708 On ch=11 n=50 v=0
30720 On ch=11 n=43 v=94
30739 On ch=11 n=43 v=0
30744 On ch=11 n=47 v=96
30768 On ch=11 n=47 v=0
30768 On ch=11 n=43 v=94
30790 On ch=11 n=43 v=0
30792 On ch=11 n=47 v=99
30815 On ch=11 n=47 v=0
30816 On ch=11 n=43 v=94
30838 On ch=11 n=43 v=0
30840 On ch=11 n=47 v=88
30908 On ch=11 n=47 v=0
30912 On ch=11 n=45 v=99
30936 On ch=11 n=52 v=50
30960 On ch=11 n=45 v=0
30960 On ch=11 n=52 v=0
30960 On ch=11 n=45 v=98
30982 On ch=11 n=45 v=0
30984 On ch=11 n=52 v=103
31006 On ch=11 n=52 v=0
31008 On ch=11 n=45 v=99
31030 On ch=11 n=45 v=0
31032 On ch=11 n=52 v=105
31054 On ch=11 n=52 v=0
31056 On ch=11 n=45 v=94
31080 On ch=11 n=45 v=0
31080 On ch=11 n=45 v=94
31104 On ch=11 n=45 v=0
31104 Pb ch=11 v=7509
31104 On ch=11 n=52 v=94
31105 Pb ch=11 v=8192
31126 On ch=11 n=52 v=0
31128 On ch=11 n=56 v=104
31149 On ch=11 n=56 v=0
31152 On ch=11 n=47 v=94
31174 On ch=11 n=47 v=0
31176 On ch=11 n=56 v=102
31198 On ch=11 n=56 v=0
31200 On ch=11 n=52 v=94
31222 On ch=11 n=52 v=0
31224 On ch=11 n=56 v=80
31230 On ch=11 n=56 v=0
31272 On ch=11 n=52 v=88
31272 On ch=11 n=59 v=80
31272 On ch=11 n=64 v=60
31273 On ch=11 n=59 v=0
31273 On ch=11 n=64 v=0
31284 On ch=11 n=52 v=0
31296 On ch=11 n=50 v=94
31318 On ch=11 n=50 v=0
31320 On ch=11 n=54 v=104
31342 On ch=11 n=54 v=0
31344 On ch=11 n=45 v=94
31366 On ch=11 n=45 v=0
31368 On ch=11 n=54 v=101
31390 On ch=11 n=54 v=0
31392 On ch=11 n=50 v=94
31414 On ch=11 n=50 v=0
31416 On ch=11 n=54 v=94
31440 On ch=11 n=54 v=0
31440 On ch=11 n=54 v=88
31462 On ch=11 n=54 v=0
31464 On ch=11 n=50 v=100
31476 On ch=11 n=50 v=0
31488 On ch=11 n=52 v=94
31510 On ch=11 n=52 v=0
31512 On ch=11 n=56 v=104
31534 On ch=11 n=56 v=0
31536 On ch=11 n=47 v=88
31558 On ch=11 n=47 v=0
31560 On ch=11 n=56 v=102
31582 On ch=11 n=56 v=0
31584 On ch=11 n=52 v=94
31606 On ch=11 n=52 v=0
31608 On ch=11 n=56 v=80
31654 On ch=11 n=56 v=0
31656 On ch=11 n=52 v=100
31656 On ch=11 n=59 v=80
31656 On ch=11 n=64 v=80
31657 On ch=11 n=59 v=0
31657 On ch=11 n=64 v=0
31668 On ch=11 n=52 v=0
31680 On ch=11 n=50 v=94
31702 On ch=11 n=50 v=0
31704 On ch=11 n=54 v=104
31726 On ch=11 n=54 v=0
31728 On ch=11 n=45 v=94
31750 On ch=11 n=45 v=0
31752 On ch=11 n=54 v=101
31774 On ch=11 n=54 v=0
31776 On ch=11 n=50 v=94
31798 On ch=11 n=50 v=0
31800 On ch=11 n=54 v=94
31848 On ch=11 n=54 v=0
31848 On ch=11 n=50 v=100
31848 On ch=11 n=57 v=80
31848 On ch=11 n=62 v=86
31849 On ch=11 n=57 v=0
31849 On ch=11 n=62 v=0
31860 On ch=11 n=50 v=0
31872 On ch=11 n=43 v=80
31886 On ch=11 n=43 v=0
31896 On ch=11 n=47 v=81
31910 On ch=11 n=47 v=0
31920 On ch=11 n=43 v=80
31936 On ch=11 n=43 v=0
31944 On ch=11 n=47 v=84
31958 On ch=11 n=47 v=0
31968 On ch=11 n=43 v=80
31980 On ch=11 n=43 v=0
31992 On ch=11 n=47 v=80
32008 On ch=11 n=47 v=0
32040 On ch=11 n=47 v=79
32052 On ch=11 n=47 v=0
32064 On ch=11 n=45 v=99
32084 On ch=11 n=45 v=0
32088 On ch=11 n=52 v=77
32112 On ch=11 n=52 v=0
32112 On ch=11 n=45 v=98
32134 On ch=11 n=45 v=0
32136 On ch=11 n=52 v=98
32158 On ch=11 n=52 v=0
32160 On ch=11 n=45 v=99
32182 On ch=11 n=45 v=0
32184 On ch=11 n=45 v=102
32184 On ch=11 n=52 v=97
32400 On ch=11 n=45 v=0
32400 On ch=11 n=52 v=0
50232 Par ch=11 c=93 v=16
50424 Par ch=11 c=91 v=127
50616 Par ch=11 c=10 v=2
50808 Par ch=11 c=11 v=110
51000 PrCh ch=11 p=30
51192 On ch=11 n=38 v=127
51928 On ch=11 n=38 v=0
51960 On ch=11 n=38 v=127
52584 On ch=11 n=38 v=0
52632 On ch=11 n=38 v=127
52672 Pb ch=11 v=7509
52684 Pb ch=11 v=6827
52692 Pb ch=11 v=6144
52700 Pb ch=11 v=5461
52706 Pb ch=11 v=4779
52711 Pb ch=11 v=4096
52715 Pb ch=11 v=3413
52724 On ch=11 n=38 v=0
52728 Pb ch=11 v=8192
52728 On ch=11 n=31 v=127
53304 On ch=11 n=31 v=0
53400 On ch=11 n=38 v=127
53440 Pb ch=11 v=7509
53452 Pb ch=11 v=6827
53460 Pb ch=11 v=6144
53468 Pb ch=11 v=5461
53474 Pb ch=11 v=4779
53479 Pb ch=11 v=4096
53483 Pb ch=11 v=3413
53492 On ch=11 n=38 v=0
53496 Pb ch=11 v=8192
53496 On ch=11 n=31 v=127
54164 On ch=11 n=31 v=0
54264 On ch=11 n=31 v=127
54456 On ch=11 n=34 v=127
54457 On ch=11 n=31 v=0
54646 On ch=11 n=34 v=0
54648 On ch=11 n=36 v=127
54980 On ch=11 n=36 v=0
54984 On ch=11 n=36 v=120
55008 Pb ch=11 v=8875
55016 Pb ch=11 v=9557
55022 Pb ch=11 v=10240
55026 Pb ch=11 v=10923
55028 Pb ch=11 v=11605
55030 Pb ch=11 v=12288
55032 Pb ch=11 v=8192
55032 On ch=11 n=43 v=120
55076 On ch=11 n=36 v=0
55222 On ch=11 n=43 v=0
55224 On ch=11 n=39 v=120
55414 On ch=11 n=39 v=0
55416 On ch=11 n=36 v=120
55798 On ch=11 n=36 v=0
55800 On ch=11 n=31 v=127
55992 On ch=11 n=34 v=127
55993 On ch=11 n=31 v=0
56182 On ch=11 n=34 v=0
56184 On ch=11 n=36 v=127
56468 On ch=11 n=36 v=0
56520 On ch=11 n=36 v=118
56544 Pb ch=11 v=8875
56551 Pb ch=11 v=9557
56555 Pb ch=11 v=10240
56559 Pb ch=11 v=10923
56562 Pb ch=11 v=11605
56564 Pb ch=11 v=12288
56568 Pb ch=11 v=8192
56568 On ch=11 n=43 v=127
56612 On ch=11 n=36 v=0
56758 On ch=11 n=43 v=0
56760 On ch=11 n=39 v=127
56950 On ch=11 n=39 v=0
56952 On ch=11 n=36 v=127
57044 On ch=11 n=36 v=0
57048 On ch=11 n=43 v=127
57093 On ch=11 n=43 v=0
57096 On ch=11 n=48 v=127
57189 On ch=11 n=48 v=0
57192 On ch=11 n=43 v=127
57237 On ch=11 n=43 v=0
57240 On ch=11 n=48 v=127
57332 On ch=11 n=48 v=0
57336 On ch=11 n=43 v=127
57384 On ch=11 n=43 v=0
57384 On ch=11 n=43 v=120
57526 On ch=11 n=43 v=0
57528 On ch=11 n=34 v=127
57576 On ch=11 n=34 v=0
57576 On ch=11 n=34 v=120
57718 On ch=11 n=34 v=0
57720 On ch=11 n=48 v=127
57812 On ch=11 n=48 v=0
57816 On ch=11 n=43 v=127
57861 On ch=11 n=43 v=0
57864 On ch=11 n=36 v=127
57957 On ch=11 n=36 v=0
57960 On ch=11 n=43 v=127
58005 On ch=11 n=43 v=0
58008 On ch=11 n=48 v=127
58096 Pb ch=11 v=7509
58100 Pb ch=11 v=6827
58103 On ch=11 n=48 v=0
58103 Pb ch=11 v=6144
58104 Pb ch=11 v=8192
58104 On ch=11 n=43 v=127
58200 On ch=11 n=43 v=0
58200 On ch=11 n=43 v=120
58292 On ch=11 n=43 v=0
58296 On ch=11 n=34 v=127
58341 On ch=11 n=34 v=0
58344 On ch=11 n=41 v=127
58389 On ch=11 n=41 v=0
58392 On ch=11 n=46 v=127
58484 On ch=11 n=46 v=0
58488 On ch=11 n=48 v=127
58580 On ch=11 n=48 v=0
58584 On ch=11 n=43 v=127
58629 On ch=11 n=43 v=0
58632 On ch=11 n=36 v=127
58728 On ch=11 n=43 v=127
58729 On ch=11 n=36 v=0
58776 On ch=11 n=48 v=127
58777 On ch=11 n=43 v=0
58860 Pb ch=11 v=7509
58864 Pb ch=11 v=6827
58867 Pb ch=11 v=6144
58869 Pb ch=11 v=5461
58871 Pb ch=11 v=4779
58872 On ch=11 n=48 v=0
58872 Pb ch=11 v=8192
58872 On ch=11 n=43 v=127
59062 On ch=11 n=43 v=0
59064 On ch=11 n=34 v=127
59109 On ch=11 n=34 v=0
59112 On ch=11 n=41 v=127
59157 On ch=11 n=41 v=0
59160 On ch=11 n=46 v=127
59252 On ch=11 n=46 v=0
59256 On ch=11 n=48 v=127
59348 On ch=11 n=48 v=0
59352 On ch=11 n=43 v=127
59397 On ch=11 n=43 v=0
59400 On ch=11 n=36 v=100
59424 On ch=11 n=36 v=0
59424 On ch=11 n=36 v=90
59448 On ch=11 n=36 v=0
59448 On ch=11 n=36 v=90
59472 On ch=11 n=36 v=0
59472 On ch=11 n=36 v=80
59496 On ch=11 n=36 v=0
59496 On ch=11 n=36 v=80
59520 On ch=11 n=36 v=0
59520 On ch=11 n=36 v=80
59544 On ch=11 n=36 v=0
59544 On ch=11 n=36 v=85
59568 On ch=11 n=36 v=0
59568 On ch=11 n=36 v=80
59592 On ch=11 n=36 v=0
59592 On ch=11 n=34 v=90
59616 Pb ch=11 v=7509
59624 Pb ch=11 v=6827
59630 Pb ch=11 v=6144
59640 On ch=11 n=34 v=0
59640 Pb ch=11 v=8192
59640 On ch=11 n=31 v=127
59688 On ch=11 n=31 v=0
59688 On ch=11 n=31 v=127
59736 On ch=11 n=31 v=0
59736 On ch=11 n=31 v=127
59784 On ch=11 n=31 v=0
59784 On ch=11 n=31 v=127
59832 On ch=11 n=31 v=0
59832 On ch=11 n=34 v=127
59880 On ch=11 n=34 v=0
59880 On ch=11 n=34 v=127
59928 On ch=11 n=34 v=0
59928 On ch=11 n=34 v=127
59976 On ch=11 n=34 v=0
59976 On ch=11 n=34 v=127
60024 On ch=11 n=34 v=0
60024 On ch=11 n=36 v=120
60048 On ch=11 n=36 v=0
60048 On ch=11 n=36 v=100
60072 On ch=11 n=36 v=0
60072 On ch=11 n=36 v=96
60096 On ch=11 n=36 v=0
60096 On ch=11 n=36 v=100
60120 On ch=11 n=36 v=0
60120 On ch=11 n=36 v=120
60144 On ch=11 n=36 v=0
60144 On ch=11 n=36 v=100
60168 On ch=11 n=36 v=0
60168 On ch=11 n=36 v=94
60192 On ch=11 n=36 v=0
60192 On ch=11 n=36 v=99
60216 On ch=11 n=36 v=0
60216 On ch=11 n=36 v=120
60264 On ch=11 n=36 v=0
60264 On ch=11 n=36 v=120
60309 On ch=11 n=36 v=0
60312 On ch=11 n=36 v=100
60336 On ch=11 n=36 v=0
60336 On ch=11 n=36 v=95
60360 On ch=11 n=36 v=0
60360 On ch=11 n=36 v=94
60384 On ch=11 n=36 v=0
60384 On ch=11 n=36 v=127
60394 Pb ch=11 v=8875
60398 Pb ch=11 v=9557
60401 Pb ch=11 v=10240
60403 Pb ch=11 v=10923
60405 Pb ch=11 v=11605
60406 Pb ch=11 v=12288
60407 Pb ch=11 v=12971
60408 On ch=11 n=36 v=0
60408 Par ch=11 c=11 v=127
60408 Pb ch=11 v=8192
60408 On ch=11 n=43 v=120
60432 On ch=11 n=43 v=0
60432 On ch=11 n=43 v=100
60456 On ch=11 n=43 v=0
60456 On ch=11 n=43 v=95
60480 On ch=11 n=43 v=0
60480 On ch=11 n=43 v=100
60504 On ch=11 n=43 v=0
60504 On ch=11 n=43 v=115
60528 On ch=11 n=43 v=0
60528 On ch=11 n=43 v=100
60552 On ch=11 n=43 v=0
60552 On ch=11 n=43 v=96
60576 On ch=11 n=43 v=0
60576 On ch=11 n=43 v=100
60600 On ch=11 n=43 v=0
60600 On ch=11 n=39 v=120
60645 On ch=11 n=39 v=0
60648 On ch=11 n=39 v=100
60672 On ch=11 n=39 v=0
60672 On ch=11 n=39 v=100
60696 On ch=11 n=39 v=0
60696 On ch=11 n=39 v=110
60720 On ch=11 n=39 v=0
60720 On ch=11 n=39 v=100
60744 On ch=11 n=39 v=0
60744 On ch=11 n=39 v=96
60768 On ch=11 n=39 v=0
60768 On ch=11 n=39 v=100
60792 On ch=11 n=39 v=0
60792 On ch=11 n=36 v=120
60816 On ch=11 n=36 v=0
60816 On ch=11 n=36 v=110
60840 On ch=11 n=36 v=0
60840 On ch=11 n=36 v=110
60864 On ch=11 n=36 v=0
60864 On ch=11 n=36 v=110
60888 On ch=11 n=36 v=0
60888 On ch=11 n=36 v=120
60912 On ch=11 n=36 v=0
60912 On ch=11 n=36 v=110
60936 On ch=11 n=36 v=0
60936 On ch=11 n=36 v=110
60960 On ch=11 n=36 v=0
60960 On ch=11 n=36 v=100
60984 On ch=11 n=36 v=0
60984 On ch=11 n=36 v=124
61008 On ch=11 n=36 v=0
61008 On ch=11 n=36 v=100
61032 On ch=11 n=36 v=0
61032 On ch=11 n=36 v=120
61056 On ch=11 n=36 v=0
61056 On ch=11 n=36 v=110
61080 On ch=11 n=36 v=0
61080 On ch=11 n=36 v=120
61104 On ch=11 n=36 v=0
61104 On ch=11 n=36 v=100
61128 On ch=11 n=36 v=0
61128 On ch=11 n=36 v=102
61152 On ch=11 n=36 v=0
61152 On ch=11 n=36 v=100
61176 On ch=11 n=36 v=0
61176 On ch=11 n=38 v=120
61200 On ch=11 n=38 v=0
61200 On ch=11 n=38 v=112
61224 On ch=11 n=38 v=0
61224 On ch=11 n=38 v=110
61248 On ch=11 n=38 v=0
61248 On ch=11 n=38 v=110
61272 On ch=11 n=38 v=0
61272 On ch=11 n=38 v=122
61296 On ch=11 n=38 v=0
61296 On ch=11 n=38 v=120
61320 On ch=11 n=38 v=0
61320 On ch=11 n=38 v=115
61344 On ch=11 n=38 v=0
61344 On ch=11 n=38 v=115
61368 On ch=11 n=38 v=0
61368 On ch=11 n=39 v=127
61392 On ch=11 n=39 v=0
61392 On ch=11 n=39 v=120
61416 On ch=11 n=39 v=0
61416 On ch=11 n=39 v=120
61440 On ch=11 n=39 v=0
61440 On ch=11 n=39 v=120
61464 On ch=11 n=39 v=0
61464 On ch=11 n=39 v=127
61488 On ch=11 n=39 v=0
61488 On ch=11 n=39 v=120
61512 On ch=11 n=39 v=0
61512 On ch=11 n=39 v=120
61536 Pb ch=11 v=8875
61544 Pb ch=11 v=9557
61548 Pb ch=11 v=10240
61552 Pb ch=11 v=10923
61560 On ch=11 n=39 v=0
61560 Pb ch=11 v=8192
61560 On ch=11 n=43 v=127
61584 On ch=11 n=43 v=0
61584 On ch=11 n=43 v=127
61608 On ch=11 n=43 v=0
61608 On ch=11 n=43 v=127
61632 On ch=11 n=43 v=0
61632 On ch=11 n=43 v=127
61656 On ch=11 n=43 v=0
61656 On ch=11 n=43 v=127
61680 On ch=11 n=43 v=0
61680 On ch=11 n=43 v=127
61704 On ch=11 n=43 v=0
61704 On ch=11 n=43 v=127
61728 On ch=11 n=43 v=0
61728 On ch=11 n=43 v=127
61752 On ch=11 n=43 v=0
61752 On ch=11 n=43 v=127
61776 On ch=11 n=43 v=0
61776 On ch=11 n=43 v=127
61800 On ch=11 n=43 v=0
61800 On ch=11 n=43 v=127
61824 On ch=11 n=43 v=0
61824 On ch=11 n=43 v=127
61848 On ch=11 n=43 v=0
61848 On ch=11 n=43 v=127
61872 On ch=11 n=43 v=0
61872 On ch=11 n=43 v=127
61896 On ch=11 n=43 v=0
61896 On ch=11 n=43 v=127
61920 On ch=11 n=43 v=0
61920 On ch=11 n=43 v=127
61944 On ch=11 n=43 v=0
61944 On ch=11 n=43 v=127
61968 On ch=11 n=43 v=0
61968 On ch=11 n=43 v=127
61992 On ch=11 n=43 v=0
61992 On ch=11 n=43 v=127
62016 On ch=11 n=43 v=0
62016 On ch=11 n=43 v=127
62040 On ch=11 n=43 v=0
62040 On ch=11 n=43 v=127
62064 On ch=11 n=43 v=0
62064 On ch=11 n=43 v=127
62088 On ch=11 n=43 v=0
62088 On ch=11 n=43 v=127
62112 On ch=11 n=43 v=0
62112 On ch=11 n=43 v=127
62136 On ch=11 n=43 v=0
62136 On ch=11 n=34 v=127
62160 On ch=11 n=34 v=0
62160 On ch=11 n=34 v=127
62184 On ch=11 n=34 v=0
62184 On ch=11 n=34 v=127
62208 On ch=11 n=34 v=0
62208 On ch=11 n=34 v=127
62232 On ch=11 n=34 v=0
62232 On ch=11 n=34 v=127
62256 On ch=11 n=34 v=0
62256 On ch=11 n=34 v=127
62280 On ch=11 n=34 v=0
62280 On ch=11 n=34 v=127
62304 On ch=11 n=34 v=0
62304 On ch=11 n=34 v=127
62328 On ch=11 n=34 v=0
62328 On ch=11 n=36 v=127
62352 On ch=11 n=36 v=0
62352 On ch=11 n=36 v=127
62376 On ch=11 n=36 v=0
62376 On ch=11 n=36 v=127
62400 On ch=11 n=36 v=0
62400 On ch=11 n=36 v=127
62424 On ch=11 n=36 v=0
62424 On ch=11 n=36 v=127
62448 On ch=11 n=36 v=0
62448 On ch=11 n=36 v=127
62472 On ch=11 n=36 v=0
62472 On ch=11 n=36 v=127
62496 On ch=11 n=36 v=0
62496 On ch=11 n=36 v=127
62520 On ch=11 n=36 v=0
62520 On ch=11 n=36 v=127
62544 On ch=11 n=36 v=0
62544 On ch=11 n=36 v=127
62568 On ch=11 n=36 v=0
62568 On ch=11 n=36 v=127
62592 On ch=11 n=36 v=0
62592 On ch=11 n=36 v=127
62616 On ch=11 n=36 v=0
62616 On ch=11 n=36 v=127
62640 On ch=11 n=36 v=0
62640 On ch=11 n=36 v=127
62664 On ch=11 n=36 v=0
62664 On ch=11 n=36 v=127
62688 On ch=11 n=36 v=0
62688 On ch=11 n=36 v=127
62712 On ch=11 n=36 v=0
62712 On ch=11 n=38 v=127
62736 On ch=11 n=38 v=0
62736 On ch=11 n=38 v=127
62760 On ch=11 n=38 v=0
62760 On ch=11 n=38 v=127
62784 On ch=11 n=38 v=0
62784 On ch=11 n=38 v=127
62808 On ch=11 n=38 v=0
62808 On ch=11 n=38 v=127
62832 On ch=11 n=38 v=0
62832 On ch=11 n=38 v=127
62856 On ch=11 n=38 v=0
62856 On ch=11 n=38 v=127
62880 On ch=11 n=38 v=0
62880 On ch=11 n=38 v=127
62904 On ch=11 n=38 v=0
62904 On ch=11 n=39 v=127
62928 On ch=11 n=39 v=0
62928 On ch=11 n=39 v=127
62952 On ch=11 n=39 v=0
62952 On ch=11 n=39 v=127
62976 On ch=11 n=39 v=0
62976 On ch=11 n=39 v=127
63000 On ch=11 n=39 v=0
63000 On ch=11 n=39 v=127
63024 On ch=11 n=39 v=0
63024 On ch=11 n=39 v=127
63048 On ch=11 n=39 v=0
63048 On ch=11 n=39 v=127
63072 On ch=11 n=39 v=0
63072 On ch=11 n=39 v=127
63096 On ch=11 n=39 v=0
63096 On ch=11 n=43 v=127
63120 On ch=11 n=43 v=0
63120 On ch=11 n=43 v=127
63144 On ch=11 n=43 v=0
63144 On ch=11 n=43 v=127
63168 On ch=11 n=43 v=0
63168 On ch=11 n=43 v=127
63192 On ch=11 n=43 v=0
63192 On ch=11 n=43 v=127
63216 On ch=11 n=43 v=0
63216 On ch=11 n=43 v=127
63240 On ch=11 n=43 v=0
63240 On ch=11 n=43 v=127
63264 On ch=11 n=43 v=0
63264 On ch=11 n=43 v=127
63288 On ch=11 n=43 v=0
63288 On ch=11 n=43 v=127
63312 On ch=11 n=43 v=0
63312 On ch=11 n=43 v=127
63336 On ch=11 n=43 v=0
63336 On ch=11 n=43 v=127
63360 On ch=11 n=43 v=0
63360 On ch=11 n=43 v=127
63384 On ch=11 n=43 v=0
63384 On ch=11 n=43 v=127
63408 On ch=11 n=43 v=0
63408 On ch=11 n=43 v=127
63432 On ch=11 n=43 v=0
63432 On ch=11 n=43 v=127
63456 On ch=11 n=43 v=0
63456 On ch=11 n=43 v=127
63480 On ch=11 n=43 v=0
63480 On ch=11 n=43 v=127
63504 On ch=11 n=43 v=0
63504 On ch=11 n=43 v=127
63528 On ch=11 n=43 v=0
63528 On ch=11 n=43 v=127
63552 On ch=11 n=43 v=0
63552 On ch=11 n=43 v=127
63576 On ch=11 n=43 v=0
63576 On ch=11 n=43 v=127
63600 On ch=11 n=43 v=0
63600 On ch=11 n=43 v=127
63624 On ch=11 n=43 v=0
63624 On ch=11 n=43 v=127
63648 On ch=11 n=43 v=0
63648 On ch=11 n=43 v=127
63672 On ch=11 n=43 v=0
63672 On ch=11 n=43 v=127
63696 On ch=11 n=43 v=0
63696 On ch=11 n=43 v=127
63720 On ch=11 n=43 v=0
63720 On ch=11 n=43 v=127
63744 On ch=11 n=43 v=0
63744 On ch=11 n=43 v=127
63768 On ch=11 n=43 v=0
63768 On ch=11 n=43 v=127
63792 On ch=11 n=43 v=0
63792 On ch=11 n=43 v=127
63816 On ch=11 n=43 v=0
63816 On ch=11 n=43 v=127
63840 On ch=11 n=43 v=0
63840 On ch=11 n=43 v=127
63864 On ch=11 n=43 v=0
63864 On ch=11 n=43 v=127
63888 On ch=11 n=43 v=0
63888 On ch=11 n=43 v=127
63912 On ch=11 n=43 v=0
63912 On ch=11 n=43 v=127
63936 On ch=11 n=43 v=0
63936 On ch=11 n=43 v=127
63960 On ch=11 n=43 v=0
63960 On ch=11 n=43 v=127
63984 On ch=11 n=43 v=0
63984 On ch=11 n=43 v=127
64008 On ch=11 n=43 v=0
64008 On ch=11 n=43 v=127
64032 On ch=11 n=43 v=0
64032 On ch=11 n=43 v=127
64056 On ch=11 n=43 v=0
64056 On ch=11 n=43 v=127
64080 On ch=11 n=43 v=0
64080 On ch=11 n=43 v=127
64104 On ch=11 n=43 v=0
64104 On ch=11 n=43 v=127
64128 On ch=11 n=43 v=0
64128 On ch=11 n=43 v=127
64152 On ch=11 n=43 v=0
64152 On ch=11 n=43 v=127
64176 On ch=11 n=43 v=0
64176 On ch=11 n=43 v=127
64200 On ch=11 n=43 v=0
64200 On ch=11 n=43 v=127
64224 On ch=11 n=43 v=0
64224 On ch=11 n=43 v=127
64244 Par ch=11 c=93 v=16
64245 Par ch=11 c=11 v=127
64245 Par ch=11 c=7 v=127
64247 PrCh ch=11 p=30
64248 On ch=11 n=43 v=0
64248 Par ch=11 c=10 v=0
64248 Pb ch=11 v=8192
64248 On ch=11 n=69 v=102
64255 Pb ch=11 v=8448
64256 Pb ch=11 v=8576
64257 Pb ch=11 v=8704
64259 Pb ch=11 v=8832
64260 Pb ch=11 v=8960
64262 Pb ch=11 v=9088
64265 Pb ch=11 v=9216
64268 Pb ch=11 v=9344
64274 Pb ch=11 v=9472
64293 On ch=11 n=69 v=0
64295 Pb ch=11 v=8192
64295 On ch=11 n=74 v=109
64340 On ch=11 n=74 v=0
64343 Pb ch=11 v=8192
64343 On ch=11 n=69 v=100
64345 Pb ch=11 v=8320
64349 Pb ch=11 v=8576
64351 Pb ch=11 v=8704
64352 Pb ch=11 v=8960
64353 Pb ch=11 v=9088
64354 Pb ch=11 v=9216
64355 Pb ch=11 v=9600
64364 Pb ch=11 v=9636
64365 Pb ch=11 v=9600
64366 Pb ch=11 v=9344
64367 Pb ch=11 v=8960
64369 Pb ch=11 v=8704
64372 Pb ch=11 v=8576
64373 Pb ch=11 v=8448
64384 Pb ch=11 v=8192
64388 On ch=11 n=69 v=0
64391 On ch=11 n=67 v=90
64413 On ch=11 n=67 v=0
64415 On ch=11 n=69 v=92
64437 On ch=11 n=69 v=0
64442 On ch=11 n=66 v=112
64453 Pb ch=11 v=8875
64464 Pb ch=11 v=8192
64476 Pb ch=11 v=7509
64487 On ch=11 n=66 v=0
64487 Pb ch=11 v=8192
64487 On ch=11 n=67 v=92
64494 On ch=11 n=63 v=102
64497 On ch=11 n=67 v=0
64582 On ch=11 n=63 v=0
64586 On ch=11 n=65 v=117
64608 On ch=11 n=65 v=0
64610 On ch=11 n=63 v=110
64630 On ch=11 n=63 v=0
64631 Pb ch=11 v=7509
64631 On ch=11 n=67 v=110
64655 Pb ch=11 v=8192
64676 On ch=11 n=67 v=0
64679 On ch=11 n=64 v=106
64701 On ch=11 n=64 v=0
64727 On ch=11 n=64 v=104
64749 Pb ch=11 v=7509
64753 Pb ch=11 v=6827
64774 On ch=11 n=64 v=0
64775 Pb ch=11 v=8192
64775 On ch=11 n=60 v=102
64797 Pb ch=11 v=6144
64821 On ch=11 n=60 v=0
64823 Pb ch=11 v=9557
64823 On ch=11 n=60 v=107
64833 Pb ch=11 v=8192
64845 On ch=11 n=60 v=0
64845 On ch=11 n=57 v=102
64869 On ch=11 n=57 v=0
64871 Pb ch=11 v=9692
64871 On ch=11 n=60 v=99
64882 Pb ch=11 v=8192
64894 On ch=11 n=60 v=0
64894 On ch=11 n=57 v=97
64917 On ch=11 n=57 v=0
64919 Pb ch=11 v=8312
64919 On ch=11 n=60 v=102
64941 On ch=11 n=60 v=0
64943 Pb ch=11 v=8192
64943 On ch=11 n=57 v=100
64962 On ch=11 n=57 v=0
64967 Pb ch=11 v=8192
64967 On ch=11 n=55 v=96
64976 Pb ch=11 v=8320
64977 Pb ch=11 v=8704
64978 Pb ch=11 v=9632
64984 Pb ch=11 v=9600
64985 Pb ch=11 v=9088
64986 Pb ch=11 v=8704
64987 Pb ch=11 v=8320
64999 On ch=11 n=55 v=0
64999 Pb ch=11 v=8192
64999 On ch=11 n=52 v=92
65060 On ch=11 n=52 v=0
65591 Par ch=11 c=11 v=60
65715 On ch=11 n=64 v=96
65734 On ch=11 n=64 v=0
65734 Pb ch=11 v=8192
65736 Par ch=11 c=11 v=70
65737 On ch=11 n=67 v=102
65739 Pb ch=11 v=8192
65748 Pb ch=11 v=8448
65755 Pb ch=11 v=8576
65756 Pb ch=11 v=8704
65758 Pb ch=11 v=8832
65759 Pb ch=11 v=8960
65761 Pb ch=11 v=9088
65762 Pb ch=11 v=9216
65764 Pb ch=11 v=9472
65765 Pb ch=11 v=9600
65767 Pb ch=11 v=9728
65769 Pb ch=11 v=9856
65770 Pb ch=11 v=9984
65772 Pb ch=11 v=10112
65776 Pb ch=11 v=10240
65777 Par ch=11 c=11 v=110
65778 Pb ch=11 v=10368
65783 Pb ch=11 v=10368
65785 Pb ch=11 v=10368
65787 Par ch=11 c=11 v=127
65788 Pb ch=11 v=10496
65794 Pb ch=11 v=10624
65802 Pb ch=11 v=10842
65827 Pb ch=11 v=10752
65830 On ch=11 n=67 v=0
65831 Pb ch=11 v=10880
65832 Pb ch=11 v=8192
65832 On ch=11 n=74 v=90
65867 On ch=11 n=74 v=0
65879 On ch=11 n=69 v=110
65882 Pb ch=11 v=9557
65904 Pb ch=11 v=8192
65927 On ch=11 n=69 v=0
65927 On ch=11 n=67 v=100
65949 On ch=11 n=67 v=0
65951 On ch=11 n=69 v=103
65973 On ch=11 n=69 v=0
65975 Pb ch=11 v=8192
65978 On ch=11 n=70 v=103
66002 Pb ch=11 v=7509
66023 On ch=11 n=70 v=0
66024 Pb ch=11 v=8192
66024 On ch=11 n=70 v=90
66041 On ch=11 n=70 v=0
66048 On ch=11 n=75 v=108
66063 Pb ch=11 v=8875
66068 Pb ch=11 v=9557
66114 On ch=11 n=75 v=0
66118 Pb ch=11 v=8192
66120 On ch=11 n=75 v=98
66140 On ch=11 n=75 v=0
66142 On ch=11 n=77 v=104
66165 On ch=11 n=77 v=0
66167 On ch=11 n=77 v=105
66185 Pb ch=11 v=8875
66188 Pb ch=11 v=9557
66212 On ch=11 n=77 v=0
66215 Pb ch=11 v=8192
66215 On ch=11 n=76 v=98
66228 Pb ch=11 v=10240
66241 Pb ch=11 v=8192
66262 On ch=11 n=76 v=0
66263 Pb ch=11 v=7509
66265 On ch=11 n=76 v=103
66270 Pb ch=11 v=8192
66310 On ch=11 n=79 v=94
66312 On ch=11 n=76 v=0
66330 On ch=11 n=79 v=0
66333 Pb ch=11 v=8192
66333 On ch=11 n=74 v=101
66338 Pb ch=11 v=8192
66341 Pb ch=11 v=8448
66344 Pb ch=11 v=8576
66346 Pb ch=11 v=8704
66348 Pb ch=11 v=8832
66353 Pb ch=11 v=8704
66354 Pb ch=11 v=8448
66355 Pb ch=11 v=8320
66356 Pb ch=11 v=8192
66360 Pb ch=11 v=8320
66362 Pb ch=11 v=8448
66363 Pb ch=11 v=8576
66365 Pb ch=11 v=8704
66369 Pb ch=11 v=8832
66376 Pb ch=11 v=8960
66380 Pb ch=11 v=8832
66385 Pb ch=11 v=8960
66387 Pb ch=11 v=8832
66401 On ch=11 n=74 v=0
66403 Pb ch=11 v=8192
66403 On ch=11 n=72 v=80
66406 On ch=11 n=72 v=0
66407 On ch=11 n=69 v=96
66429 On ch=11 n=69 v=0
66431 On ch=11 n=67 v=90
66476 On ch=11 n=67 v=0
66479 On ch=11 n=67 v=94
66501 On ch=11 n=67 v=0
66503 On ch=11 n=69 v=96
66520 On ch=11 n=69 v=0
66525 On ch=11 n=67 v=93
66549 On ch=11 n=67 v=0
66885 Par ch=11 c=11 v=75
66935 On ch=11 n=74 v=95
66958 Pb ch=11 v=8875
66980 On ch=11 n=74 v=0
66982 Pb ch=11 v=8192
66983 On ch=11 n=79 v=90
67003 On ch=11 n=79 v=0
67007 On ch=11 n=74 v=95
67030 Pb ch=11 v=8875
67052 On ch=11 n=74 v=0
67054 Pb ch=11 v=8192
67055 On ch=11 n=81 v=90
67075 On ch=11 n=81 v=0
67079 On ch=11 n=74 v=95
67102 Pb ch=11 v=8875
67124 On ch=11 n=74 v=0
67126 Pb ch=11 v=8192
67127 On ch=11 n=79 v=90
67147 On ch=11 n=79 v=0
67151 On ch=11 n=74 v=95
67174 Pb ch=11 v=8875
67196 On ch=11 n=74 v=0
67198 Pb ch=11 v=8192
67199 On ch=11 n=81 v=90
67219 On ch=11 n=81 v=0
67259 Par ch=11 c=11 v=80
67261 Pb ch=11 v=9557
67264 On ch=11 n=79 v=82
67279 Par ch=11 c=11 v=127
67280 Pb ch=11 v=8192
67290 On ch=11 n=79 v=0
67292 On ch=11 n=76 v=95
67312 On ch=11 n=76 v=0
67319 On ch=11 n=82 v=95
67319 Pb ch=11 v=8320
67324 Pb ch=11 v=8448
67328 Pb ch=11 v=8576
67329 Pb ch=11 v=8704
67340 Pb ch=11 v=8832
67352 Pb ch=11 v=8960
67360 Pb ch=11 v=9088
67367 Pb ch=11 v=8960
67374 Pb ch=11 v=8832
67379 Pb ch=11 v=8704
67381 Pb ch=11 v=8448
67382 Pb ch=11 v=8192
67383 On ch=11 n=82 v=0
67413 Pb ch=11 v=8992
67415 On ch=11 n=81 v=108
67417 Pb ch=11 v=9216
67419 Pb ch=11 v=9472
67423 Pb ch=11 v=9612
67429 Pb ch=11 v=9552
67434 Pb ch=11 v=9216
67438 Pb ch=11 v=8992
67440 Pb ch=11 v=8875
67442 Pb ch=11 v=8704
67444 Pb ch=11 v=8448
67445 Pb ch=11 v=8192
67460 On ch=11 n=81 v=0
67465 On ch=11 n=79 v=102
67487 On ch=11 n=79 v=0
67489 On ch=11 n=77 v=100
67509 On ch=11 n=77 v=0
67511 On ch=11 n=79 v=104
67532 On ch=11 n=79 v=0
67532 Pb ch=11 v=10240
67533 On ch=11 n=79 v=88
67546 Pb ch=11 v=8192
67558 On ch=11 n=79 v=0
67558 On ch=11 n=77 v=86
67581 On ch=11 n=77 v=0
67583 On ch=11 n=79 v=102
67630 On ch=11 n=79 v=0
67633 On ch=11 n=77 v=98
67653 On ch=11 n=77 v=0
67655 On ch=11 n=75 v=95
67679 On ch=11 n=75 v=0
67681 On ch=11 n=77 v=97
67701 On ch=11 n=77 v=0
67703 Pb ch=11 v=8192
67705 On ch=11 n=74 v=95
67724 Pb ch=11 v=8875
67725 On ch=11 n=74 v=0
67725 On ch=11 n=74 v=97
67740 Pb ch=11 v=8192
67754 On ch=11 n=74 v=0
67754 On ch=11 n=72 v=96
67774 On ch=11 n=72 v=0
67775 On ch=11 n=74 v=102
67823 On ch=11 n=74 v=0
67825 On ch=11 n=72 v=99
67845 On ch=11 n=72 v=0
67847 On ch=11 n=70 v=97
67855 Pb ch=11 v=9557
67863 Pb ch=11 v=8192
67872 On ch=11 n=70 v=0
67873 On ch=11 n=67 v=90
67895 On ch=11 n=67 v=0
67895 Pb ch=11 v=8192
67897 On ch=11 n=70 v=104
67907 Pb ch=11 v=8320
67908 Pb ch=11 v=8448
67916 Pb ch=11 v=8576
67919 On ch=11 n=70 v=0
67919 Pb ch=11 v=8448
67920 Pb ch=11 v=8192
67921 On ch=11 n=67 v=97
67961 On ch=11 n=67 v=0
67967 On ch=11 n=69 v=102
67971 Pb ch=11 v=8320
67974 Pb ch=11 v=8448
67978 Pb ch=11 v=8576
67980 Pb ch=11 v=8704
67984 Pb ch=11 v=8832
67990 Pb ch=11 v=8912
67992 Pb ch=11 v=8960
67996 Pb ch=11 v=9088
68000 Pb ch=11 v=9172
68003 Pb ch=11 v=9272
68005 Pb ch=11 v=9312
68008 Pb ch=11 v=9472
68013 Pb ch=11 v=9216
68015 On ch=11 n=69 v=0
68015 Pb ch=11 v=9072
68016 Pb ch=11 v=8704
68017 Pb ch=11 v=8192
68017 On ch=11 n=67 v=94
68037 On ch=11 n=67 v=0
68039 On ch=11 n=69 v=101
68039 Pb ch=11 v=8576
68040 Pb ch=11 v=8704
68041 Pb ch=11 v=8832
68046 Pb ch=11 v=8892
68056 Pb ch=11 v=8932
68060 Pb ch=11 v=9052
68062 Pb ch=11 v=9152
68066 Pb ch=11 v=9312
68071 Pb ch=11 v=9372
68082 Pb ch=11 v=9216
68084 Pb ch=11 v=8912
68085 Pb ch=11 v=8832
68086 Pb ch=11 v=8704
68087 On ch=11 n=69 v=0
68087 Pb ch=11 v=8192
68088 Par ch=11 c=11 v=110
68089 On ch=11 n=67 v=95
68110 On ch=11 n=67 v=0
68111 Par ch=11 c=11 v=80
68115 On ch=11 n=69 v=101
68115 Pb ch=11 v=8576
68116 Pb ch=11 v=8704
68117 Pb ch=11 v=8832
68122 Pb ch=11 v=8892
68132 Pb ch=11 v=8932
68136 Pb ch=11 v=9052
68139 Pb ch=11 v=9152
68144 Pb ch=11 v=9312
68150 Pb ch=11 v=9372
68158 Pb ch=11 v=9216
68160 On ch=11 n=69 v=0
68160 Pb ch=11 v=8912
68161 Pb ch=11 v=8832
68162 Pb ch=11 v=8704
68163 Pb ch=11 v=8192
68163 On ch=11 n=67 v=90
68185 On ch=11 n=67 v=0
68375 On ch=11 n=70 v=92
68382 Pb ch=11 v=8320
68384 Pb ch=11 v=8448
68385 Pb ch=11 v=8576
68386 Pb ch=11 v=8704
68398 Pb ch=11 v=8832
68420 On ch=11 n=70 v=0
68422 Pb ch=11 v=8192
68423 On ch=11 n=70 v=94
68426 Pb ch=11 v=8448
68428 Pb ch=11 v=8576
68430 Pb ch=11 v=8832
68431 Pb ch=11 v=8960
68452 Pb ch=11 v=8832
68453 Pb ch=11 v=8704
68455 Pb ch=11 v=8576
68456 Pb ch=11 v=8448
68459 Pb ch=11 v=8320
68461 On ch=11 n=70 v=0
68462 Pb ch=11 v=8192
68463 On ch=11 n=67 v=90
68469 On ch=11 n=67 v=0
68495 On ch=11 n=70 v=80
68515 On ch=11 n=70 v=0
68519 On ch=11 n=70 v=102
68524 Pb ch=11 v=8320
68528 Pb ch=11 v=8448
68530 Pb ch=11 v=8576
68533 Pb ch=11 v=8704
68537 Pb ch=11 v=8832
68541 On ch=11 n=70 v=0
68542 Pb ch=11 v=8192
68543 On ch=11 n=67 v=97
68565 On ch=11 n=67 v=0
68591 On ch=11 n=70 v=106
68610 Pb ch=11 v=8320
68620 Pb ch=11 v=8448
68624 Pb ch=11 v=8704
68627 Pb ch=11 v=8832
68633 Pb ch=11 v=8960
68634 Pb ch=11 v=8832
68635 Pb ch=11 v=8960
68636 On ch=11 n=70 v=0
68638 Pb ch=11 v=8192
68663 On ch=11 n=70 v=100
68685 On ch=11 n=70 v=0
68687 On ch=11 n=70 v=106
68709 Pb ch=11 v=8320
68711 Pb ch=11 v=8448
68721 Pb ch=11 v=8576
68723 Pb ch=11 v=8704
68725 Pb ch=11 v=8832
68733 On ch=11 n=70 v=0
68734 Pb ch=11 v=8192
68735 Par ch=11 c=11 v=90
68735 On ch=11 n=67 v=98
68757 On ch=11 n=67 v=0
68758 Par ch=11 c=11 v=100
68759 On ch=11 n=70 v=100
68777 On ch=11 n=70 v=0
68782 Par ch=11 c=11 v=120
68783 On ch=11 n=70 v=99
68800 On ch=11 n=70 v=0
68807 On ch=11 n=70 v=102
68818 Pb ch=11 v=8320
68821 Pb ch=11 v=8448
68823 Pb ch=11 v=8576
68824 Pb ch=11 v=8704
68825 Pb ch=11 v=8832
68826 Pb ch=11 v=8960
68829 Pb ch=11 v=8832
68831 On ch=11 n=70 v=0
68832 Pb ch=11 v=8192
68833 On ch=11 n=67 v=100
68850 On ch=11 n=67 v=0
68853 Par ch=11 c=11 v=127
68855 On ch=11 n=73 v=105
68864 Pb ch=11 v=8320
68873 Pb ch=11 v=8448
68876 Pb ch=11 v=8576
68877 Pb ch=11 v=8704
68884 Pb ch=11 v=8832
68900 On ch=11 n=73 v=0
68902 Pb ch=11 v=8192
68903 On ch=11 n=81 v=100
68905 On ch=11 n=81 v=0
68949 On ch=11 n=67 v=60
68949 On ch=11 n=74 v=94
68969 On ch=11 n=67 v=0
68996 On ch=11 n=74 v=0
68998 On ch=11 n=79 v=97
69020 On ch=11 n=79 v=0
69022 On ch=11 n=73 v=102
69038 Pb ch=11 v=8320
69041 Pb ch=11 v=8448
69046 Pb ch=11 v=8576
69048 Pb ch=11 v=8704
69053 Pb ch=11 v=8832
69069 On ch=11 n=73 v=0
69070 Pb ch=11 v=8192
69071 On ch=11 n=79 v=88
69093 On ch=11 n=79 v=0
69095 On ch=11 n=73 v=107
69117 Pb ch=11 v=8320
69118 Pb ch=11 v=8448
69120 Pb ch=11 v=8576
69123 Pb ch=11 v=8704
69125 Pb ch=11 v=8832
69140 On ch=11 n=73 v=0
69142 Pb ch=11 v=8192
69143 On ch=11 n=79 v=103
69167 On ch=11 n=79 v=0
69167 On ch=11 n=77 v=102
69187 Pb ch=11 v=8448
69190 Pb ch=11 v=8576
69191 Pb ch=11 v=8704
69196 Pb ch=11 v=8832
69214 On ch=11 n=77 v=0
69214 Pb ch=11 v=8192
69215 On ch=11 n=79 v=106
69238 On ch=11 n=79 v=0
69239 On ch=11 n=75 v=100
69251 Pb ch=11 v=8912
69264 Pb ch=11 v=8320
69276 Pb ch=11 v=7492
69284 On ch=11 n=75 v=0
69286 Pb ch=11 v=8192
69287 On ch=11 n=75 v=92
69300 Pb ch=11 v=7509
69310 Pb ch=11 v=6144
69332 On ch=11 n=75 v=0
69334 Pb ch=11 v=8192
69335 On ch=11 n=74 v=99
69348 Pb ch=11 v=6827
69375 On ch=11 n=74 v=0
69379 Pb ch=11 v=8192
69381 On ch=11 n=74 v=102
69431 Par ch=11 c=7 v=127
69433 On ch=11 n=74 v=0
69451 Par ch=11 c=7 v=126
69455 On ch=11 n=72 v=105
69467 Par ch=11 c=7 v=125
69475 On ch=11 n=72 v=0
69479 On ch=11 n=70 v=80
69483 Par ch=11 c=7 v=124
69496 On ch=11 n=70 v=0
69499 Par ch=11 c=7 v=123
69503 On ch=11 n=62 v=60
69503 On ch=11 n=67 v=101
69519 Par ch=11 c=7 v=122
69526 On ch=11 n=62 v=0
69526 On ch=11 n=67 v=0
69527 On ch=11 n=62 v=59
69527 On ch=11 n=67 v=100
69535 Par ch=11 c=7 v=121
69536 Pb ch=11 v=8448
69537 Pb ch=11 v=8704
69538 Pb ch=11 v=8960
69539 Pb ch=11 v=9088
69540 Pb ch=11 v=9216
69541 Pb ch=11 v=9344
69549 Pb ch=11 v=9472
69550 On ch=11 n=62 v=0
69550 On ch=11 n=67 v=0
69550 Pb ch=11 v=8192
69551 On ch=11 n=67 v=95
69551 Par ch=11 c=7 v=120
69567 Par ch=11 c=7 v=119
69573 On ch=11 n=67 v=0
69575 On ch=11 n=64 v=85
69587 Par ch=11 c=7 v=118
69597 On ch=11 n=64 v=0
69599 On ch=11 n=62 v=82
69603 Par ch=11 c=7 v=117
69619 Par ch=11 c=7 v=116
69621 On ch=11 n=62 v=0
69635 Par ch=11 c=7 v=115
69655 Par ch=11 c=7 v=114
69671 Par ch=11 c=7 v=113
69687 Par ch=11 c=7 v=112
69703 Par ch=11 c=7 v=111
69719 Par ch=11 c=7 v=110
69739 Par ch=11 c=7 v=109
69755 Par ch=11 c=7 v=108
69771 Par ch=11 c=7 v=107
69787 Par ch=11 c=7 v=106
69807 Par ch=11 c=7 v=105
69815 On ch=11 n=79 v=105
69823 Par ch=11 c=7 v=104
69837 On ch=11 n=79 v=0
69839 On ch=11 n=70 v=95
69839 Par ch=11 c=7 v=103
69847 Pb ch=11 v=7509
69855 Pb ch=11 v=6827
69855 Par ch=11 c=7 v=102
69863 Pb ch=11 v=6144
69871 Pb ch=11 v=5461
69875 Par ch=11 c=7 v=101
69878 Pb ch=11 v=6092
69891 Par ch=11 c=7 v=100
69901 On ch=11 n=70 v=0
69907 Par ch=11 c=7 v=99
69910 Pb ch=11 v=8192
69923 Par ch=11 c=7 v=98
69939 Par ch=11 c=7 v=97
69959 Par ch=11 c=7 v=96
69975 Par ch=11 c=7 v=95
69991 Par ch=11 c=7 v=94
70007 Pb ch=11 v=9792
70007 Par ch=11 c=7 v=93
70009 On ch=11 n=64 v=110
70019 Pb ch=11 v=8192
70027 Par ch=11 c=7 v=92
70031 Pb ch=11 v=7509
70043 Par ch=11 c=7 v=91
70053 On ch=11 n=64 v=0
70053 Pb ch=11 v=8192
70054 On ch=11 n=64 v=100
70059 Par ch=11 c=7 v=90
70064 On ch=11 n=64 v=0
70075 Par ch=11 c=7 v=89
70095 Par ch=11 c=7 v=88
70101 Par ch=11 c=11 v=90
70103 On ch=11 n=58 v=85
70111 Par ch=11 c=7 v=87
70126 On ch=11 n=58 v=0
70127 On ch=11 n=55 v=82
70127 Par ch=11 c=7 v=86
70143 Par ch=11 c=7 v=85
70149 On ch=11 n=55 v=0
70150 Par ch=11 c=11 v=127
70151 On ch=11 n=58 v=102
70163 Par ch=11 c=7 v=84
70173 On ch=11 n=58 v=0
70175 On ch=11 n=55 v=99
70179 Par ch=11 c=7 v=83
70195 Par ch=11 c=7 v=82
70211 Par ch=11 c=7 v=81
70227 Par ch=11 c=7 v=80
70244 On ch=11 n=55 v=0
70247 On ch=11 n=54 v=93
70247 Par ch=11 c=7 v=79
70255 Pb ch=11 v=7509
70263 Pb ch=11 v=6827
70263 Par ch=11 c=7 v=78
70272 On ch=11 n=54 v=0
70272 Pb ch=11 v=8192
70273 On ch=11 n=50 v=92
70279 Par ch=11 c=7 v=77
70293 On ch=11 n=50 v=0
70295 On ch=11 n=53 v=94
70295 Par ch=11 c=7 v=76
70315 Par ch=11 c=7 v=75
70317 On ch=11 n=53 v=0
70319 On ch=11 n=52 v=88
70331 Par ch=11 c=7 v=74
70341 On ch=11 n=52 v=0
70343 On ch=11 n=48 v=90
70347 Par ch=11 c=7 v=73
70363 Par ch=11 c=7 v=72
70365 On ch=11 n=48 v=0
70383 Par ch=11 c=7 v=71
70399 Par ch=11 c=7 v=70
70415 Par ch=11 c=7 v=69
70431 Par ch=11 c=7 v=68
70447 Par ch=11 c=7 v=67
70467 Par ch=11 c=7 v=66
70483 Par ch=11 c=7 v=65
70499 Par ch=11 c=7 v=64
70515 Par ch=11 c=7 v=63
70535 On ch=11 n=50 v=78
70535 Par ch=11 c=7 v=62
70551 Par ch=11 c=7 v=61
70555 On ch=11 n=50 v=0
70559 On ch=11 n=52 v=94
70567 Par ch=11 c=7 v=60
70580 On ch=11 n=52 v=0
70582 On ch=11 n=53 v=100
70583 Par ch=11 c=7 v=59
70603 Par ch=11 c=7 v=58
70604 Pb ch=11 v=8875
70609 Pb ch=11 v=9557
70619 Par ch=11 c=7 v=57
70628 On ch=11 n=53 v=0
70630 Pb ch=11 v=8192
70631 On ch=11 n=58 v=98
70635 Par ch=11 c=7 v=56
70651 Par ch=11 c=7 v=55
70653 On ch=11 n=58 v=0
70654 Par ch=11 c=11 v=80
70655 On ch=11 n=55 v=90
70667 Par ch=11 c=7 v=54
70677 On ch=11 n=55 v=0
70679 On ch=11 n=58 v=80
70679 On ch=11 n=62 v=95
70687 Par ch=11 c=7 v=53
70703 On ch=11 n=62 v=0
70703 Par ch=11 c=7 v=52
70705 On ch=11 n=60 v=92
70719 Par ch=11 c=7 v=51
70723 On ch=11 n=58 v=0
70725 On ch=11 n=60 v=0
70727 On ch=11 n=58 v=94
70735 Par ch=11 c=7 v=50
70749 On ch=11 n=58 v=0
70751 On ch=11 n=55 v=90
70755 Par ch=11 c=7 v=49
70771 Par ch=11 c=7 v=48
70773 On ch=11 n=55 v=0
70774 Par ch=11 c=11 v=127
70775 On ch=11 n=58 v=96
70787 On ch=11 n=58 v=0
70787 Par ch=11 c=7 v=47
70799 On ch=11 n=58 v=92
70803 Par ch=11 c=7 v=46
70809 On ch=11 n=58 v=0
70823 On ch=11 n=58 v=96
70823 Par ch=11 c=7 v=45
70839 Par ch=11 c=7 v=44
70847 Pb ch=11 v=6144
70854 On ch=11 n=58 v=0
70855 Pb ch=11 v=8192
70855 Par ch=11 c=7 v=43
70871 Par ch=11 c=7 v=42
70891 Par ch=11 c=7 v=41
70907 Par ch=11 c=7 v=40
70923 On ch=11 n=58 v=85
70923 Par ch=11 c=7 v=39
70938 On ch=11 n=50 v=85
70939 Par ch=11 c=7 v=38
70940 On ch=11 n=58 v=0
70955 Par ch=11 c=7 v=37
70963 On ch=11 n=50 v=0
70965 On ch=11 n=58 v=91
70975 Par ch=11 c=7 v=36
70977 On ch=11 n=50 v=88
70979 On ch=11 n=58 v=0
70991 Par ch=11 c=7 v=35
71001 On ch=11 n=58 v=89
71002 On ch=11 n=50 v=0
71007 Par ch=11 c=7 v=34
71012 On ch=11 n=50 v=85
71014 On ch=11 n=58 v=0
71023 Par ch=11 c=7 v=33
71032 On ch=11 n=50 v=0
71035 On ch=11 n=58 v=87
71043 Par ch=11 c=7 v=32
71047 On ch=11 n=50 v=82
71049 On ch=11 n=58 v=0
71059 Par ch=11 c=7 v=31
71065 On ch=11 n=50 v=0
71070 On ch=11 n=58 v=85
71075 Par ch=11 c=7 v=30
71082 On ch=11 n=50 v=90
71083 On ch=11 n=58 v=0
71091 Par ch=11 c=7 v=29
71105 On ch=11 n=58 v=90
71106 On ch=11 n=50 v=0
71111 Par ch=11 c=7 v=28
71115 On ch=11 n=50 v=82
71117 On ch=11 n=58 v=0
71127 Par ch=11 c=7 v=27
71138 On ch=11 n=58 v=86
71141 On ch=11 n=50 v=0
71143 Par ch=11 c=7 v=26
71159 Par ch=11 c=7 v=25
71177 Pb ch=11 v=8792
71209 On ch=11 n=58 v=0
71209 Pb ch=11 v=8192
71255 On ch=11 n=62 v=87
71266 On ch=11 n=62 v=0
71279 Par ch=11 c=7 v=20
71279 On ch=11 n=59 v=76
71289 On ch=11 n=59 v=0
71303 On ch=11 n=62 v=84
71313 On ch=11 n=62 v=0
71327 On ch=11 n=63 v=74
71351 Par ch=11 c=7 v=17
71375 Pb ch=11 v=9557
71387 Pb ch=11 v=8875
71399 Pb ch=11 v=8192
71411 Pb ch=11 v=7509
71423 Pb ch=11 v=8192
71447 On ch=11 n=63 v=0
71447 Meta TrkEnd
TrkEnd
MTrk
0 Meta 0x21 00
100 Par ch=12 c=10 v=64
100 Par ch=12 c=1 v=0
112 Par ch=12 c=91 v=127
112 Par ch=12 c=93 v=96
124 PrCh ch=12 p=25
136 Par ch=12 c=100 v=0
136 Par ch=12 c=101 v=0
136 Par ch=12 c=6 v=12
148 Par ch=12 c=98 v=32
148 Par ch=12 c=99 v=1
148 Par ch=12 c=6 v=64
160 Par ch=12 c=98 v=33
160 Par ch=12 c=99 v=1
160 Par ch=12 c=6 v=80
172 Par ch=12 c=7 v=90
172 Par ch=12 c=11 v=96
25680 PrCh ch=12 p=25
26136 On ch=12 n=64 v=110
26184 On ch=12 n=64 v=0
26184 On ch=12 n=59 v=106
26206 On ch=12 n=59 v=0
26222 On ch=12 n=61 v=77
26228 On ch=12 n=61 v=0
26233 On ch=12 n=61 v=66
26243 On ch=12 n=61 v=0
26244 On ch=12 n=64 v=110
26268 On ch=12 n=59 v=105
26279 On ch=12 n=64 v=0
26303 On ch=12 n=59 v=0
26328 On ch=12 n=64 v=108
26376 On ch=12 n=64 v=0
26376 On ch=12 n=59 v=105
26398 On ch=12 n=59 v=0
26414 On ch=12 n=59 v=64
26416 On ch=12 n=59 v=0
26425 On ch=12 n=59 v=60
26426 On ch=12 n=59 v=0
26436 On ch=12 n=64 v=109
26460 On ch=12 n=59 v=102
26471 On ch=12 n=64 v=0
26495 On ch=12 n=59 v=0
26520 On ch=12 n=64 v=108
26568 On ch=12 n=64 v=0
26568 On ch=12 n=62 v=105
26590 On ch=12 n=62 v=0
26592 On ch=12 n=64 v=70
26627 On ch=12 n=64 v=0
26628 On ch=12 n=64 v=109
26652 On ch=12 n=59 v=99
26663 On ch=12 n=64 v=0
26672 On ch=12 n=55 v=80
26675 On ch=12 n=59 v=0
26682 On ch=12 n=55 v=0
26712 On ch=12 n=62 v=108
26712 On ch=12 n=76 v=75
26758 On ch=12 n=62 v=0
26758 On ch=12 n=76 v=0
26760 On ch=12 n=61 v=105
26760 On ch=12 n=76 v=74
26806 On ch=12 n=61 v=0
26806 On ch=12 n=76 v=0
26808 On ch=12 n=57 v=109
26880 On ch=12 n=57 v=0
26904 On ch=12 n=64 v=110
26904 On ch=12 n=76 v=78
26952 On ch=12 n=64 v=0
26952 On ch=12 n=59 v=106
26959 On ch=12 n=76 v=0
26974 On ch=12 n=59 v=0
26988 On ch=12 n=59 v=88
27012 On ch=12 n=59 v=0
27012 On ch=12 n=64 v=110
27012 On ch=12 n=76 v=77
27036 On ch=12 n=59 v=105
27047 On ch=12 n=64 v=0
27051 On ch=12 n=76 v=0
27071 On ch=12 n=59 v=0
27096 On ch=12 n=64 v=108
27144 On ch=12 n=64 v=0
27144 On ch=12 n=59 v=105
27166 On ch=12 n=59 v=0
27181 On ch=12 n=59 v=86
27206 On ch=12 n=59 v=0
27206 On ch=12 n=64 v=106
27230 On ch=12 n=59 v=102
27241 On ch=12 n=64 v=0
27265 On ch=12 n=59 v=0
27290 On ch=12 n=64 v=108
27338 On ch=12 n=64 v=0
27338 On ch=12 n=62 v=105
27360 On ch=12 n=62 v=0
27398 On ch=12 n=64 v=86
27422 On ch=12 n=64 v=0
27422 On ch=12 n=59 v=106
27445 On ch=12 n=55 v=90
27446 On ch=12 n=59 v=0
27453 On ch=12 n=55 v=0
27470 On ch=12 n=62 v=100
27484 Pb ch=12 v=7509
27492 On ch=12 n=62 v=0
27494 Pb ch=12 v=8192
27506 On ch=12 n=61 v=115
27528 On ch=12 n=61 v=0
27542 On ch=12 n=59 v=110
27564 On ch=12 n=59 v=0
27566 On ch=12 n=57 v=108
27611 On ch=12 n=57 v=0
27674 On ch=12 n=64 v=110
27722 On ch=12 n=64 v=0
27722 On ch=12 n=59 v=80
27723 On ch=12 n=59 v=0
27760 On ch=12 n=61 v=40
27762 On ch=12 n=61 v=0
27771 On ch=12 n=61 v=66
27773 On ch=12 n=61 v=0
27782 On ch=12 n=64 v=110
27842 On ch=12 n=64 v=0
27866 On ch=12 n=64 v=108
27914 On ch=12 n=64 v=0
27914 On ch=12 n=59 v=105
27936 On ch=12 n=59 v=0
27950 On ch=12 n=59 v=70
27972 On ch=12 n=59 v=0
27974 On ch=12 n=64 v=109
27998 On ch=12 n=59 v=102
28009 On ch=12 n=64 v=0
28033 On ch=12 n=59 v=0
28058 On ch=12 n=64 v=108
28106 On ch=12 n=64 v=0
28106 On ch=12 n=62 v=105
28128 On ch=12 n=62 v=0
28130 On ch=12 n=64 v=75
28132 On ch=12 n=64 v=0
28142 On ch=12 n=62 v=50
28146 On ch=12 n=62 v=0
28154 On ch=12 n=62 v=80
28164 On ch=12 n=62 v=0
28166 On ch=12 n=64 v=109
28190 On ch=12 n=59 v=99
28201 On ch=12 n=64 v=0
28224 On ch=12 n=59 v=0
28250 On ch=12 n=62 v=108
28296 On ch=12 n=62 v=0
28298 On ch=12 n=61 v=105
28344 On ch=12 n=61 v=0
28346 On ch=12 n=57 v=109
28380 On ch=12 n=57 v=0
28382 On ch=12 n=57 v=96
28390 On ch=12 n=57 v=0
28394 On ch=12 n=57 v=84
28401 On ch=12 n=57 v=0
28406 On ch=12 n=57 v=84
28414 On ch=12 n=57 v=0
28442 On ch=12 n=64 v=110
28490 On ch=12 n=64 v=0
28490 On ch=12 n=59 v=106
28512 On ch=12 n=59 v=0
28526 On ch=12 n=59 v=88
28550 On ch=12 n=59 v=0
28550 On ch=12 n=64 v=110
28574 On ch=12 n=59 v=99
28585 On ch=12 n=64 v=0
28598 On ch=12 n=59 v=0
28634 On ch=12 n=64 v=108
28670 On ch=12 n=59 v=105
28682 On ch=12 n=64 v=0
28682 On ch=12 n=59 v=0
28682 On ch=12 n=59 v=90
28692 On ch=12 n=59 v=0
28694 On ch=12 n=59 v=80
28701 On ch=12 n=59 v=0
28706 On ch=12 n=59 v=70
28713 On ch=12 n=59 v=0
28718 On ch=12 n=59 v=80
28730 On ch=12 n=59 v=0
28730 On ch=12 n=59 v=86
28742 On ch=12 n=59 v=0
28742 On ch=12 n=64 v=106
28766 On ch=12 n=59 v=102
28777 On ch=12 n=64 v=0
28801 On ch=12 n=59 v=0
28826 On ch=12 n=64 v=110
28874 On ch=12 n=64 v=0
28874 On ch=12 n=59 v=106
28896 On ch=12 n=59 v=0
28910 On ch=12 n=59 v=88
28934 On ch=12 n=59 v=0
28934 On ch=12 n=64 v=110
28958 On ch=12 n=64 v=0
28958 On ch=12 n=59 v=105
28993 On ch=12 n=59 v=0
29018 On ch=12 n=64 v=108
29066 On ch=12 n=64 v=0
29066 On ch=12 n=59 v=105
29088 On ch=12 n=59 v=0
29090 On ch=12 n=59 v=50
29094 On ch=12 n=59 v=0
29102 On ch=12 n=59 v=60
29103 On ch=12 n=59 v=0
29114 On ch=12 n=59 v=72
29124 On ch=12 n=59 v=0
29126 On ch=12 n=64 v=106
29150 On ch=12 n=59 v=102
29161 On ch=12 n=64 v=0
29185 On ch=12 n=59 v=0
29210 On ch=12 n=64 v=108
29258 On ch=12 n=64 v=0
29258 On ch=12 n=62 v=105
29280 On ch=12 n=62 v=0
29282 On ch=12 n=62 v=55
29284 On ch=12 n=62 v=0
29294 On ch=12 n=62 v=50
29295 On ch=12 n=62 v=0
29306 On ch=12 n=62 v=55
29308 On ch=12 n=62 v=0
29318 On ch=12 n=64 v=86
29342 On ch=12 n=64 v=0
29342 On ch=12 n=59 v=106
29366 On ch=12 n=59 v=0
29366 On ch=12 n=55 v=90
29374 On ch=12 n=55 v=0
29402 On ch=12 n=62 v=108
29448 On ch=12 n=62 v=0
29450 On ch=12 n=61 v=105
29496 On ch=12 n=61 v=0
29498 On ch=12 n=57 v=109
29520 On ch=12 n=57 v=0
29522 On ch=12 n=57 v=90
29532 On ch=12 n=57 v=0
29534 On ch=12 n=57 v=96
29542 On ch=12 n=57 v=0
29546 On ch=12 n=57 v=84
29553 On ch=12 n=57 v=0
29558 On ch=12 n=57 v=84
29566 On ch=12 n=57 v=0
29594 On ch=12 n=64 v=110
29642 On ch=12 n=64 v=0
29642 On ch=12 n=59 v=106
29664 On ch=12 n=59 v=0
29680 On ch=12 n=61 v=77
29686 On ch=12 n=61 v=0
29691 On ch=12 n=61 v=66
29701 On ch=12 n=61 v=0
29702 On ch=12 n=64 v=110
29726 On ch=12 n=59 v=105
29737 On ch=12 n=64 v=0
29761 On ch=12 n=59 v=0
29786 On ch=12 n=64 v=108
29834 On ch=12 n=64 v=0
29834 On ch=12 n=59 v=105
29856 On ch=12 n=59 v=0
29872 On ch=12 n=59 v=64
29874 On ch=12 n=59 v=0
29883 On ch=12 n=59 v=60
29884 On ch=12 n=59 v=0
29894 On ch=12 n=64 v=109
29918 On ch=12 n=59 v=102
29929 On ch=12 n=64 v=0
29953 On ch=12 n=59 v=0
29978 On ch=12 n=64 v=108
30026 On ch=12 n=64 v=0
30026 On ch=12 n=62 v=105
30048 On ch=12 n=62 v=0
30086 On ch=12 n=64 v=109
30110 On ch=12 n=59 v=99
30121 On ch=12 n=64 v=0
30144 On ch=12 n=59 v=0
30170 On ch=12 n=62 v=108
30216 On ch=12 n=62 v=0
30218 On ch=12 n=61 v=105
30264 On ch=12 n=61 v=0
30266 On ch=12 n=57 v=109
30288 On ch=12 n=57 v=0
30290 On ch=12 n=52 v=88
30290 On ch=12 n=57 v=90
30300 On ch=12 n=57 v=0
30302 On ch=12 n=61 v=80
30302 On ch=12 n=57 v=96
30310 On ch=12 n=57 v=0
30314 On ch=12 n=52 v=0
30314 On ch=12 n=52 v=82
30314 On ch=12 n=57 v=84
30321 On ch=12 n=57 v=0
30326 On ch=12 n=61 v=0
30326 On ch=12 n=52 v=0
30326 On ch=12 n=61 v=77
30326 On ch=12 n=52 v=84
30326 On ch=12 n=57 v=84
30333 On ch=12 n=61 v=0
30334 On ch=12 n=57 v=0
30336 On ch=12 n=52 v=0
30362 On ch=12 n=64 v=110
30410 On ch=12 n=64 v=0
30410 On ch=12 n=59 v=80
30411 On ch=12 n=59 v=0
30446 On ch=12 n=59 v=75
30458 On ch=12 n=59 v=0
30458 On ch=12 n=59 v=50
30470 On ch=12 n=59 v=0
30470 On ch=12 n=64 v=110
30492 On ch=12 n=64 v=0
30494 On ch=12 n=59 v=90
30506 On ch=12 n=59 v=0
30506 On ch=12 n=59 v=92
30520 On ch=12 n=59 v=0
30554 On ch=12 n=64 v=108
30602 On ch=12 n=64 v=0
30602 On ch=12 n=59 v=105
30624 On ch=12 n=59 v=0
30626 On ch=12 n=59 v=66
30630 On ch=12 n=59 v=0
30650 On ch=12 n=59 v=70
30660 On ch=12 n=59 v=0
30662 On ch=12 n=64 v=109
30686 On ch=12 n=59 v=102
30697 On ch=12 n=64 v=0
30721 On ch=12 n=59 v=0
30746 On ch=12 n=64 v=108
30794 On ch=12 n=64 v=0
30794 On ch=12 n=62 v=105
30816 On ch=12 n=62 v=0
30818 On ch=12 n=64 v=50
30819 On ch=12 n=64 v=0
30830 On ch=12 n=62 v=44
30831 On ch=12 n=62 v=0
30842 On ch=12 n=62 v=50
30843 On ch=12 n=62 v=0
30854 On ch=12 n=64 v=109
30878 On ch=12 n=59 v=99
30889 On ch=12 n=64 v=0
30912 On ch=12 n=59 v=0
30938 On ch=12 n=62 v=108
30984 On ch=12 n=62 v=0
30986 On ch=12 n=61 v=105
31032 On ch=12 n=61 v=0
31034 On ch=12 n=57 v=109
31056 On ch=12 n=57 v=0
31058 On ch=12 n=57 v=109
31068 On ch=12 n=57 v=0
31070 On ch=12 n=57 v=96
31078 On ch=12 n=57 v=0
31082 On ch=12 n=57 v=84
31089 On ch=12 n=57 v=0
31094 On ch=12 n=57 v=84
31102 On ch=12 n=57 v=0
31130 On ch=12 n=64 v=110
31178 On ch=12 n=64 v=0
31178 On ch=12 n=59 v=106
31200 On ch=12 n=59 v=0
31214 On ch=12 n=59 v=88
31238 On ch=12 n=59 v=0
31238 On ch=12 n=64 v=110
31262 On ch=12 n=59 v=99
31273 On ch=12 n=64 v=0
31286 On ch=12 n=59 v=0
31322 On ch=12 n=64 v=108
31370 On ch=12 n=64 v=0
31370 On ch=12 n=59 v=105
31392 On ch=12 n=59 v=0
31406 On ch=12 n=59 v=80
31428 On ch=12 n=59 v=0
31430 On ch=12 n=64 v=106
31452 On ch=12 n=64 v=0
31454 On ch=12 n=64 v=100
31464 On ch=12 n=64 v=0
31466 On ch=12 n=59 v=102
31488 On ch=12 n=59 v=0
31514 On ch=12 n=64 v=110
31562 On ch=12 n=64 v=0
31562 On ch=12 n=59 v=106
31597 On ch=12 n=59 v=0
31598 On ch=12 n=59 v=88
31608 On ch=12 n=59 v=0
31610 On ch=12 n=59 v=90
31620 On ch=12 n=59 v=0
31622 On ch=12 n=64 v=105
31644 On ch=12 n=64 v=0
31646 On ch=12 n=59 v=105
31656 On ch=12 n=59 v=0
31658 On ch=12 n=59 v=105
31680 On ch=12 n=59 v=0
31706 On ch=12 n=64 v=108
31754 On ch=12 n=64 v=0
31754 On ch=12 n=59 v=105
31788 On ch=12 n=59 v=0
31790 On ch=12 n=59 v=68
31812 On ch=12 n=59 v=0
31814 On ch=12 n=64 v=96
31838 On ch=12 n=59 v=94
31849 On ch=12 n=64 v=0
31873 On ch=12 n=59 v=0
31898 On ch=12 n=64 v=108
31932 On ch=12 n=64 v=0
31934 On ch=12 n=62 v=105
31968 On ch=12 n=62 v=0
32006 On ch=12 n=64 v=86
32030 On ch=12 n=64 v=0
32030 On ch=12 n=59 v=99
32064 On ch=12 n=59 v=0
32066 On ch=12 n=62 v=80
32088 On ch=12 n=62 v=0
32090 On ch=12 n=61 v=108
32136 On ch=12 n=61 v=0
32138 On ch=12 n=59 v=105
32184 On ch=12 n=59 v=0
32186 On ch=12 n=57 v=97
32186 On ch=12 n=61 v=98
32402 On ch=12 n=57 v=0
32402 On ch=12 n=61 v=0
46010 Par ch=12 c=10 v=48
46046 PrCh ch=12 p=25
46154 Par ch=12 c=11 v=50
46250 On ch=12 n=67 v=80
46250 On ch=12 n=72 v=95
46298 On ch=12 n=67 v=0
46298 On ch=12 n=72 v=0
46298 On ch=12 n=67 v=80
46298 On ch=12 n=72 v=84
46322 On ch=12 n=67 v=0
46322 On ch=12 n=72 v=0
46322 On ch=12 n=67 v=84
46322 On ch=12 n=72 v=94
46346 On ch=12 n=67 v=0
46346 On ch=12 n=72 v=0
46346 On ch=12 n=67 v=80
46346 On ch=12 n=72 v=86
46370 On ch=12 n=67 v=0
46370 On ch=12 n=72 v=0
46370 On ch=12 n=67 v=77
46370 On ch=12 n=72 v=89
46370 On ch=12 n=79 v=117
46394 Par ch=12 c=11 v=53
46419 On ch=12 n=79 v=0
46487 On ch=12 n=67 v=0
46487 On ch=12 n=72 v=0
46490 On ch=12 n=67 v=80
46490 On ch=12 n=72 v=80
46512 On ch=12 n=67 v=0
46512 On ch=12 n=72 v=0
46514 On ch=12 n=67 v=77
46514 On ch=12 n=72 v=88
46514 On ch=12 n=79 v=117
46536 On ch=12 n=67 v=0
46536 On ch=12 n=72 v=0
46536 On ch=12 n=79 v=0
46538 On ch=12 n=67 v=80
46538 On ch=12 n=72 v=90
46578 Pb ch=12 v=7509
46581 Pb ch=12 v=6827
46583 Pb ch=12 v=6144
46584 Pb ch=12 v=5461
46585 Pb ch=12 v=4779
46586 On ch=12 n=67 v=0
46586 On ch=12 n=72 v=0
46586 Pb ch=12 v=8192
46586 On ch=12 n=59 v=88
46586 On ch=12 n=67 v=86
46586 On ch=12 n=74 v=100
46634 On ch=12 n=59 v=0
46634 On ch=12 n=67 v=0
46634 On ch=12 n=59 v=88
46634 On ch=12 n=67 v=86
46682 On ch=12 n=74 v=0
46682 On ch=12 n=59 v=0
46682 On ch=12 n=67 v=0
46682 On ch=12 n=59 v=88
46682 On ch=12 n=67 v=84
46682 On ch=12 n=74 v=105
46706 On ch=12 n=55 v=70
46707 On ch=12 n=55 v=0
46730 On ch=12 n=55 v=65
46731 On ch=12 n=55 v=0
46754 On ch=12 n=59 v=0
46754 On ch=12 n=67 v=0
46754 On ch=12 n=74 v=0
46754 On ch=12 n=59 v=88
46754 On ch=12 n=67 v=84
46754 On ch=12 n=74 v=102
46775 On ch=12 n=59 v=0
46775 On ch=12 n=67 v=0
46775 On ch=12 n=74 v=0
46778 On ch=12 n=63 v=84
46778 On ch=12 n=70 v=90
46779 On ch=12 n=63 v=0
46780 On ch=12 n=70 v=0
46802 On ch=12 n=55 v=82
46802 On ch=12 n=63 v=80
46802 On ch=12 n=70 v=90
46826 On ch=12 n=63 v=0
46826 On ch=12 n=70 v=0
46826 On ch=12 n=63 v=82
46826 On ch=12 n=70 v=93
46871 On ch=12 n=55 v=0
46871 On ch=12 n=63 v=0
46871 On ch=12 n=70 v=0
46874 On ch=12 n=55 v=94
46874 On ch=12 n=63 v=96
46874 On ch=12 n=70 v=103
46898 On ch=12 n=63 v=0
46898 On ch=12 n=70 v=0
46898 On ch=12 n=63 v=81
46898 On ch=12 n=70 v=90
46922 On ch=12 n=63 v=0
46922 On ch=12 n=70 v=0
46923 On ch=12 n=63 v=80
46924 On ch=12 n=70 v=93
46946 On ch=12 n=63 v=0
46946 On ch=12 n=70 v=0
46946 On ch=12 n=63 v=77
46946 On ch=12 n=70 v=85
46968 On ch=12 n=55 v=0
46968 On ch=12 n=63 v=0
46968 On ch=12 n=70 v=0
46970 On ch=12 n=55 v=86
46970 On ch=12 n=63 v=95
46970 On ch=12 n=70 v=105
47010 Pb ch=12 v=7507
47012 Pb ch=12 v=6827
47014 On ch=12 n=55 v=0
47014 On ch=12 n=63 v=0
47014 On ch=12 n=70 v=0
47017 Pb ch=12 v=8192
47018 On ch=12 n=52 v=80
47018 On ch=12 n=60 v=90
47018 On ch=12 n=67 v=100
47063 On ch=12 n=67 v=0
47066 On ch=12 n=60 v=0
47066 On ch=12 n=55 v=100
47066 On ch=12 n=60 v=95
47066 On ch=12 n=67 v=110
47066 On ch=12 n=72 v=90
47114 On ch=12 n=52 v=0
47114 On ch=12 n=55 v=0
47114 On ch=12 n=60 v=0
47114 On ch=12 n=67 v=0
47114 On ch=12 n=60 v=80
47115 On ch=12 n=60 v=0
47115 On ch=12 n=67 v=88
47138 On ch=12 n=72 v=0
47138 On ch=12 n=67 v=0
47138 On ch=12 n=52 v=77
47138 On ch=12 n=60 v=90
47138 On ch=12 n=67 v=98
47186 On ch=12 n=60 v=0
47186 On ch=12 n=67 v=0
47186 On ch=12 n=60 v=88
47210 On ch=12 n=52 v=0
47210 On ch=12 n=60 v=0
47210 On ch=12 n=52 v=90
47210 On ch=12 n=60 v=90
47210 On ch=12 n=67 v=93
47255 On ch=12 n=52 v=0
47255 On ch=12 n=60 v=0
47255 On ch=12 n=67 v=0
47258 On ch=12 n=55 v=95
47258 On ch=12 n=52 v=88
47258 On ch=12 n=60 v=110
47258 On ch=12 n=67 v=125
47282 On ch=12 n=55 v=0
47282 On ch=12 n=52 v=0
47282 On ch=12 n=60 v=0
47282 On ch=12 n=67 v=0
47282 On ch=12 n=52 v=88
47282 On ch=12 n=60 v=88
47282 On ch=12 n=67 v=82
47306 On ch=12 n=52 v=0
47306 On ch=12 n=60 v=0
47306 On ch=12 n=67 v=0
47306 On ch=12 n=52 v=80
47306 On ch=12 n=60 v=81
47306 On ch=12 n=67 v=83
47330 On ch=12 n=52 v=0
47330 On ch=12 n=60 v=0
47330 On ch=12 n=67 v=0
47330 On ch=12 n=52 v=77
47330 On ch=12 n=60 v=80
47330 On ch=12 n=67 v=84
47354 On ch=12 n=52 v=0
47354 On ch=12 n=60 v=0
47354 On ch=12 n=67 v=0
47354 On ch=12 n=50 v=100
47354 On ch=12 n=59 v=120
47354 On ch=12 n=74 v=88
47399 On ch=12 n=50 v=0
47399 On ch=12 n=59 v=0
47399 On ch=12 n=74 v=0
47402 On ch=12 n=50 v=95
47402 On ch=12 n=59 v=100
47449 On ch=12 n=59 v=0
47450 On ch=12 n=59 v=127
47450 On ch=12 n=74 v=93
47472 On ch=12 n=50 v=0
47472 On ch=12 n=59 v=0
47472 On ch=12 n=74 v=0
47474 On ch=12 n=50 v=88
47474 On ch=12 n=59 v=84
47474 On ch=12 n=74 v=84
47496 On ch=12 n=59 v=0
47498 On ch=12 n=50 v=0
47498 On ch=12 n=50 v=105
47498 On ch=12 n=59 v=70
47499 On ch=12 n=59 v=0
47521 On ch=12 n=74 v=0
47522 On ch=12 n=50 v=0
47522 On ch=12 n=50 v=65
47522 On ch=12 n=59 v=88
47522 On ch=12 n=74 v=84
47546 On ch=12 n=50 v=0
47546 On ch=12 n=59 v=0
47546 On ch=12 n=74 v=0
47546 On ch=12 n=63 v=84
47546 On ch=12 n=70 v=90
47547 On ch=12 n=63 v=0
47548 On ch=12 n=70 v=0
47570 On ch=12 n=55 v=82
47570 On ch=12 n=63 v=80
47570 On ch=12 n=70 v=90
47594 On ch=12 n=63 v=0
47594 On ch=12 n=70 v=0
47594 On ch=12 n=63 v=82
47594 On ch=12 n=70 v=93
47639 On ch=12 n=55 v=0
47639 On ch=12 n=63 v=0
47639 On ch=12 n=70 v=0
47642 On ch=12 n=55 v=94
47642 On ch=12 n=63 v=96
47642 On ch=12 n=70 v=103
47666 On ch=12 n=63 v=0
47666 On ch=12 n=70 v=0
47666 On ch=12 n=63 v=81
47666 On ch=12 n=70 v=90
47690 On ch=12 n=63 v=0
47690 On ch=12 n=70 v=0
47691 On ch=12 n=63 v=80
47692 On ch=12 n=70 v=93
47714 On ch=12 n=63 v=0
47714 On ch=12 n=70 v=0
47714 On ch=12 n=63 v=77
47714 On ch=12 n=70 v=85
47736 On ch=12 n=55 v=0
47736 On ch=12 n=63 v=0
47736 On ch=12 n=70 v=0
47738 On ch=12 n=55 v=86
47738 On ch=12 n=63 v=95
47738 On ch=12 n=70 v=105
47778 Pb ch=12 v=7507
47780 Pb ch=12 v=6827
47782 On ch=12 n=55 v=0
47782 On ch=12 n=63 v=0
47782 On ch=12 n=70 v=0
47785 Pb ch=12 v=8192
47786 On ch=12 n=52 v=80
47786 On ch=12 n=60 v=90
47786 On ch=12 n=67 v=100
47831 On ch=12 n=67 v=0
47834 On ch=12 n=60 v=0
47834 On ch=12 n=55 v=100
47834 On ch=12 n=60 v=95
47834 On ch=12 n=67 v=110
47834 On ch=12 n=72 v=90
47882 On ch=12 n=52 v=0
47882 On ch=12 n=55 v=0
47882 On ch=12 n=60 v=0
47882 On ch=12 n=67 v=0
47882 On ch=12 n=60 v=80
47883 On ch=12 n=60 v=0
47883 On ch=12 n=67 v=88
47906 On ch=12 n=72 v=0
47906 On ch=12 n=67 v=0
47906 On ch=12 n=52 v=77
47906 On ch=12 n=60 v=90
47906 On ch=12 n=67 v=98
47954 On ch=12 n=60 v=0
47954 On ch=12 n=67 v=0
47954 On ch=12 n=60 v=88
47978 On ch=12 n=52 v=0
47978 On ch=12 n=60 v=0
47978 On ch=12 n=52 v=90
47978 On ch=12 n=60 v=90
47978 On ch=12 n=67 v=93
48023 On ch=12 n=52 v=0
48023 On ch=12 n=60 v=0
48023 On ch=12 n=67 v=0
48026 On ch=12 n=55 v=95
48026 On ch=12 n=52 v=88
48026 On ch=12 n=60 v=110
48026 On ch=12 n=67 v=125
48050 On ch=12 n=55 v=0
48050 On ch=12 n=52 v=0
48050 On ch=12 n=60 v=0
48050 On ch=12 n=67 v=0
48050 On ch=12 n=52 v=88
48050 On ch=12 n=60 v=88
48050 On ch=12 n=67 v=82
48074 On ch=12 n=52 v=0
48074 On ch=12 n=60 v=0
48074 On ch=12 n=67 v=0
48074 On ch=12 n=52 v=80
48074 On ch=12 n=60 v=81
48074 On ch=12 n=67 v=83
48098 On ch=12 n=52 v=0
48098 On ch=12 n=60 v=0
48098 On ch=12 n=67 v=0
48098 On ch=12 n=52 v=77
48098 On ch=12 n=60 v=80
48098 On ch=12 n=67 v=84
48122 On ch=12 n=52 v=0
48122 On ch=12 n=60 v=0
48122 On ch=12 n=67 v=0
48122 On ch=12 n=50 v=100
48122 On ch=12 n=59 v=120
48122 On ch=12 n=74 v=80
48167 On ch=12 n=50 v=0
48167 On ch=12 n=59 v=0
48167 On ch=12 n=74 v=0
48170 On ch=12 n=50 v=95
48170 On ch=12 n=59 v=100
48217 On ch=12 n=59 v=0
48218 On ch=12 n=59 v=127
48218 On ch=12 n=74 v=93
48240 On ch=12 n=50 v=0
48240 On ch=12 n=59 v=0
48240 On ch=12 n=74 v=0
48242 On ch=12 n=50 v=88
48242 On ch=12 n=59 v=84
48242 On ch=12 n=74 v=84
48264 On ch=12 n=59 v=0
48266 On ch=12 n=50 v=0
48266 On ch=12 n=50 v=105
48266 On ch=12 n=59 v=70
48267 On ch=12 n=59 v=0
48289 On ch=12 n=74 v=0
48290 On ch=12 n=50 v=0
48290 On ch=12 n=50 v=92
48290 On ch=12 n=59 v=100
48290 On ch=12 n=74 v=110
48314 On ch=12 n=50 v=0
48314 On ch=12 n=59 v=0
48314 On ch=12 n=74 v=0
48314 On ch=12 n=63 v=84
48314 On ch=12 n=70 v=90
48315 On ch=12 n=63 v=0
48316 On ch=12 n=70 v=0
48338 On ch=12 n=55 v=82
48338 On ch=12 n=63 v=80
48338 On ch=12 n=70 v=90
48362 On ch=12 n=63 v=0
48362 On ch=12 n=70 v=0
48362 On ch=12 n=63 v=82
48362 On ch=12 n=70 v=93
48407 On ch=12 n=55 v=0
48407 On ch=12 n=63 v=0
48407 On ch=12 n=70 v=0
48410 On ch=12 n=55 v=94
48410 On ch=12 n=63 v=96
48410 On ch=12 n=70 v=103
48434 On ch=12 n=63 v=0
48434 On ch=12 n=70 v=0
48434 On ch=12 n=63 v=81
48434 On ch=12 n=70 v=90
48458 On ch=12 n=63 v=0
48458 On ch=12 n=70 v=0
48459 On ch=12 n=63 v=80
48460 On ch=12 n=70 v=93
48482 On ch=12 n=63 v=0
48482 On ch=12 n=70 v=0
48482 On ch=12 n=63 v=77
48482 On ch=12 n=70 v=85
48504 On ch=12 n=55 v=0
48504 On ch=12 n=63 v=0
48504 On ch=12 n=70 v=0
48506 On ch=12 n=55 v=86
48506 On ch=12 n=63 v=95
48506 On ch=12 n=70 v=105
48546 Pb ch=12 v=7507
48548 Pb ch=12 v=6827
48550 On ch=12 n=55 v=0
48550 On ch=12 n=63 v=0
48550 On ch=12 n=70 v=0
48553 Pb ch=12 v=8192
48554 On ch=12 n=52 v=80
48554 On ch=12 n=60 v=90
48554 On ch=12 n=67 v=100
48599 On ch=12 n=67 v=0
48602 On ch=12 n=60 v=0
48602 On ch=12 n=55 v=100
48602 On ch=12 n=60 v=95
48602 On ch=12 n=67 v=110
48602 On ch=12 n=72 v=90
48650 On ch=12 n=52 v=0
48650 On ch=12 n=55 v=0
48650 On ch=12 n=60 v=0
48650 On ch=12 n=67 v=0
48650 On ch=12 n=60 v=80
48651 On ch=12 n=60 v=0
48651 On ch=12 n=67 v=88
48674 On ch=12 n=72 v=0
48674 On ch=12 n=67 v=0
48674 On ch=12 n=52 v=77
48674 On ch=12 n=60 v=90
48674 On ch=12 n=67 v=98
48722 On ch=12 n=60 v=0
48722 On ch=12 n=67 v=0
48722 On ch=12 n=60 v=88
48746 On ch=12 n=52 v=0
48746 On ch=12 n=60 v=0
48746 On ch=12 n=52 v=90
48746 On ch=12 n=60 v=90
48746 On ch=12 n=67 v=93
48791 On ch=12 n=52 v=0
48791 On ch=12 n=60 v=0
48791 On ch=12 n=67 v=0
48794 On ch=12 n=55 v=95
48794 On ch=12 n=52 v=88
48794 On ch=12 n=60 v=110
48794 On ch=12 n=67 v=125
48818 On ch=12 n=55 v=0
48818 On ch=12 n=52 v=0
48818 On ch=12 n=60 v=0
48818 On ch=12 n=67 v=0
48818 On ch=12 n=52 v=88
48818 On ch=12 n=60 v=88
48818 On ch=12 n=67 v=82
48842 On ch=12 n=52 v=0
48842 On ch=12 n=60 v=0
48842 On ch=12 n=67 v=0
48842 On ch=12 n=52 v=80
48842 On ch=12 n=60 v=81
48842 On ch=12 n=67 v=83
48866 On ch=12 n=52 v=0
48866 On ch=12 n=60 v=0
48866 On ch=12 n=67 v=0
48866 On ch=12 n=52 v=77
48866 On ch=12 n=60 v=80
48866 On ch=12 n=67 v=84
48890 On ch=12 n=52 v=0
48890 On ch=12 n=60 v=0
48890 On ch=12 n=67 v=0
48890 Par ch=12 c=11 v=58
48890 On ch=12 n=50 v=100
48890 On ch=12 n=59 v=120
48890 On ch=12 n=74 v=88
48935 On ch=12 n=50 v=0
48935 On ch=12 n=59 v=0
48935 On ch=12 n=74 v=0
48938 On ch=12 n=50 v=95
48938 On ch=12 n=59 v=100
48985 On ch=12 n=59 v=0
48986 On ch=12 n=59 v=127
48986 On ch=12 n=74 v=93
49008 On ch=12 n=50 v=0
49008 On ch=12 n=59 v=0
49008 On ch=12 n=74 v=0
49010 On ch=12 n=50 v=88
49010 On ch=12 n=59 v=84
49010 On ch=12 n=74 v=84
49032 On ch=12 n=59 v=0
49034 On ch=12 n=50 v=0
49034 On ch=12 n=50 v=105
49034 On ch=12 n=59 v=70
49035 On ch=12 n=59 v=0
49057 On ch=12 n=74 v=0
49058 On ch=12 n=50 v=0
49058 On ch=12 n=50 v=65
49058 On ch=12 n=59 v=88
49058 On ch=12 n=74 v=84
49082 On ch=12 n=50 v=0
49082 On ch=12 n=59 v=0
49082 On ch=12 n=74 v=0
49082 On ch=12 n=63 v=84
49082 On ch=12 n=70 v=90
49083 On ch=12 n=63 v=0
49084 On ch=12 n=70 v=0
49106 On ch=12 n=55 v=82
49106 On ch=12 n=63 v=80
49106 On ch=12 n=70 v=90
49130 On ch=12 n=63 v=0
49130 On ch=12 n=70 v=0
49130 On ch=12 n=63 v=82
49130 On ch=12 n=70 v=93
49175 On ch=12 n=55 v=0
49175 On ch=12 n=63 v=0
49175 On ch=12 n=70 v=0
49178 On ch=12 n=55 v=94
49178 On ch=12 n=63 v=96
49178 On ch=12 n=70 v=103
49202 On ch=12 n=63 v=0
49202 On ch=12 n=70 v=0
49202 On ch=12 n=63 v=81
49202 On ch=12 n=70 v=90
49226 On ch=12 n=63 v=0
49226 On ch=12 n=70 v=0
49227 On ch=12 n=63 v=80
49228 On ch=12 n=70 v=93
49250 On ch=12 n=63 v=0
49250 On ch=12 n=70 v=0
49250 On ch=12 n=63 v=77
49250 On ch=12 n=70 v=85
49272 On ch=12 n=55 v=0
49272 On ch=12 n=63 v=0
49272 On ch=12 n=70 v=0
49274 On ch=12 n=55 v=86
49274 On ch=12 n=63 v=95
49274 On ch=12 n=70 v=105
49314 Pb ch=12 v=7507
49316 Pb ch=12 v=6827
49318 On ch=12 n=55 v=0
49318 On ch=12 n=63 v=0
49318 On ch=12 n=70 v=0
49321 Pb ch=12 v=8192
49322 On ch=12 n=52 v=80
49322 On ch=12 n=60 v=90
49322 On ch=12 n=67 v=100
49367 On ch=12 n=67 v=0
49370 On ch=12 n=60 v=0
49370 On ch=12 n=55 v=100
49370 On ch=12 n=60 v=95
49370 On ch=12 n=67 v=110
49370 On ch=12 n=72 v=90
49418 On ch=12 n=52 v=0
49418 On ch=12 n=55 v=0
49418 On ch=12 n=60 v=0
49418 On ch=12 n=67 v=0
49418 On ch=12 n=60 v=80
49419 On ch=12 n=60 v=0
49419 On ch=12 n=67 v=88
49442 On ch=12 n=72 v=0
49442 On ch=12 n=67 v=0
49442 On ch=12 n=52 v=77
49442 On ch=12 n=60 v=90
49442 On ch=12 n=67 v=98
49490 On ch=12 n=60 v=0
49490 On ch=12 n=67 v=0
49490 On ch=12 n=60 v=88
49514 On ch=12 n=52 v=0
49514 On ch=12 n=60 v=0
49514 On ch=12 n=52 v=90
49514 On ch=12 n=60 v=90
49514 On ch=12 n=67 v=93
49559 On ch=12 n=52 v=0
49559 On ch=12 n=60 v=0
49559 On ch=12 n=67 v=0
49562 On ch=12 n=55 v=95
49562 On ch=12 n=52 v=88
49562 On ch=12 n=60 v=110
49562 On ch=12 n=67 v=125
49586 On ch=12 n=55 v=0
49586 On ch=12 n=52 v=0
49586 On ch=12 n=60 v=0
49586 On ch=12 n=67 v=0
49586 On ch=12 n=52 v=88
49586 On ch=12 n=60 v=88
49586 On ch=12 n=67 v=82
49610 On ch=12 n=52 v=0
49610 On ch=12 n=60 v=0
49610 On ch=12 n=67 v=0
49610 On ch=12 n=52 v=80
49610 On ch=12 n=60 v=81
49610 On ch=12 n=67 v=83
49634 On ch=12 n=52 v=0
49634 On ch=12 n=60 v=0
49634 On ch=12 n=67 v=0
49634 Par ch=12 c=11 v=50
49634 On ch=12 n=52 v=77
49634 On ch=12 n=60 v=80
49634 On ch=12 n=67 v=84
49658 On ch=12 n=52 v=0
49658 On ch=12 n=60 v=0
49658 On ch=12 n=67 v=0
49658 On ch=12 n=50 v=100
49658 On ch=12 n=59 v=120
49658 On ch=12 n=74 v=80
49703 On ch=12 n=50 v=0
49703 On ch=12 n=59 v=0
49703 On ch=12 n=74 v=0
49706 On ch=12 n=50 v=95
49706 Par ch=12 c=10 v=40
49706 On ch=12 n=59 v=100
49753 On ch=12 n=59 v=0
49754 On ch=12 n=59 v=127
49754 On ch=12 n=74 v=93
49776 On ch=12 n=50 v=0
49776 On ch=12 n=59 v=0
49776 On ch=12 n=74 v=0
49778 On ch=12 n=50 v=88
49778 On ch=12 n=59 v=84
49778 On ch=12 n=74 v=84
49800 On ch=12 n=59 v=0
49802 On ch=12 n=50 v=0
49802 On ch=12 n=50 v=105
49802 Par ch=12 c=10 v=35
49802 Par ch=12 c=11 v=45
49802 On ch=12 n=59 v=70
49803 On ch=12 n=59 v=0
49825 On ch=12 n=74 v=0
49826 On ch=12 n=50 v=0
49826 On ch=12 n=50 v=92
49826 On ch=12 n=59 v=100
49826 On ch=12 n=74 v=110
49850 On ch=12 n=50 v=0
49850 On ch=12 n=59 v=0
49850 On ch=12 n=74 v=0
49850 On ch=12 n=63 v=84
49850 On ch=12 n=70 v=90
49851 On ch=12 n=63 v=0
49852 On ch=12 n=70 v=0
49874 On ch=12 n=55 v=82
49874 On ch=12 n=63 v=80
49874 On ch=12 n=70 v=90
49898 On ch=12 n=63 v=0
49898 On ch=12 n=70 v=0
49898 On ch=12 n=63 v=82
49898 On ch=12 n=70 v=93
49943 On ch=12 n=55 v=0
49943 On ch=12 n=63 v=0
49943 On ch=12 n=70 v=0
49946 Par ch=12 c=11 v=40
49946 Par ch=12 c=10 v=25
49946 On ch=12 n=55 v=94
49946 On ch=12 n=63 v=96
49946 On ch=12 n=70 v=103
49970 On ch=12 n=63 v=0
49970 On ch=12 n=70 v=0
49970 On ch=12 n=63 v=81
49970 On ch=12 n=70 v=90
49994 On ch=12 n=63 v=0
49994 On ch=12 n=70 v=0
49995 On ch=12 n=63 v=80
49996 On ch=12 n=70 v=93
50018 On ch=12 n=63 v=0
50018 On ch=12 n=70 v=0
50018 On ch=12 n=63 v=77
50018 On ch=12 n=70 v=85
50040 On ch=12 n=55 v=0
50040 On ch=12 n=63 v=0
50040 On ch=12 n=70 v=0
50042 Par ch=12 c=10 v=15
50042 On ch=12 n=55 v=86
50042 On ch=12 n=63 v=95
50042 On ch=12 n=70 v=105
50082 Pb ch=12 v=7507
50084 Pb ch=12 v=6827
50086 On ch=12 n=55 v=0
50086 On ch=12 n=63 v=0
50086 On ch=12 n=70 v=0
50089 Pb ch=12 v=8192
50090 On ch=12 n=52 v=80
50090 On ch=12 n=60 v=90
50090 On ch=12 n=67 v=100
50135 On ch=12 n=67 v=0
50138 On ch=12 n=60 v=0
50138 Par ch=12 c=10 v=10
50138 Par ch=12 c=11 v=50
50138 On ch=12 n=55 v=100
50138 On ch=12 n=60 v=95
50138 On ch=12 n=67 v=110
50138 On ch=12 n=72 v=90
50186 On ch=12 n=52 v=0
50186 On ch=12 n=55 v=0
50186 On ch=12 n=60 v=0
50186 On ch=12 n=67 v=0
50186 On ch=12 n=60 v=80
50187 On ch=12 n=60 v=0
50187 On ch=12 n=67 v=88
50210 On ch=12 n=72 v=0
50210 On ch=12 n=67 v=0
50210 Par ch=12 c=11 v=55
50210 Par ch=12 c=10 v=5
50210 On ch=12 n=52 v=77
50210 On ch=12 n=60 v=90
50210 On ch=12 n=67 v=98
50258 On ch=12 n=60 v=0
50258 On ch=12 n=67 v=0
50258 On ch=12 n=60 v=88
50282 On ch=12 n=52 v=0
50282 On ch=12 n=60 v=0
50282 Par ch=12 c=10 v=0
50282 Par ch=12 c=11 v=58
50282 On ch=12 n=52 v=90
50282 On ch=12 n=60 v=90
50282 On ch=12 n=67 v=93
50327 On ch=12 n=52 v=0
50327 On ch=12 n=60 v=0
50327 On ch=12 n=67 v=0
50330 Par ch=12 c=11 v=59
50330 On ch=12 n=55 v=95
50330 On ch=12 n=52 v=88
50330 On ch=12 n=60 v=110
50330 On ch=12 n=67 v=125
50354 On ch=12 n=55 v=0
50354 On ch=12 n=52 v=0
50354 On ch=12 n=60 v=0
50354 On ch=12 n=67 v=0
50354 On ch=12 n=52 v=88
50354 On ch=12 n=60 v=88
50354 On ch=12 n=67 v=82
50378 On ch=12 n=52 v=0
50378 On ch=12 n=60 v=0
50378 On ch=12 n=67 v=0
50378 On ch=12 n=52 v=80
50378 On ch=12 n=60 v=81
50378 On ch=12 n=67 v=83
50402 On ch=12 n=52 v=0
50402 On ch=12 n=60 v=0
50402 On ch=12 n=67 v=0
50402 On ch=12 n=52 v=77
50402 On ch=12 n=60 v=80
50402 On ch=12 n=67 v=84
50426 On ch=12 n=52 v=0
50426 On ch=12 n=60 v=0
50426 On ch=12 n=67 v=0
50426 Par ch=12 c=11 v=60
50426 On ch=12 n=50 v=100
50426 On ch=12 n=59 v=120
50426 Par ch=12 c=11 v=61
50426 On ch=12 n=74 v=88
50471 On ch=12 n=50 v=0
50471 On ch=12 n=59 v=0
50471 On ch=12 n=74 v=0
50474 On ch=12 n=50 v=95
50474 On ch=12 n=59 v=100
50521 On ch=12 n=59 v=0
50522 On ch=12 n=59 v=127
50522 On ch=12 n=74 v=93
50544 On ch=12 n=50 v=0
50544 On ch=12 n=59 v=0
50544 On ch=12 n=74 v=0
50546 On ch=12 n=50 v=88
50546 On ch=12 n=59 v=84
50546 Par ch=12 c=11 v=63
50546 On ch=12 n=74 v=84
50568 On ch=12 n=59 v=0
50570 On ch=12 n=50 v=0
50570 On ch=12 n=50 v=105
50570 On ch=12 n=59 v=70
50571 On ch=12 n=59 v=0
50593 On ch=12 n=74 v=0
50594 On ch=12 n=50 v=0
50594 On ch=12 n=50 v=65
50594 On ch=12 n=59 v=88
50594 On ch=12 n=74 v=84
50618 On ch=12 n=50 v=0
50618 On ch=12 n=59 v=0
50618 On ch=12 n=74 v=0
50618 Par ch=12 c=11 v=65
50618 On ch=12 n=63 v=84
50618 On ch=12 n=70 v=90
50619 On ch=12 n=63 v=0
50620 On ch=12 n=70 v=0
50642 On ch=12 n=55 v=82
50642 On ch=12 n=63 v=80
50642 On ch=12 n=70 v=90
50666 On ch=12 n=63 v=0
50666 On ch=12 n=70 v=0
50666 Par ch=12 c=11 v=66
50666 On ch=12 n=63 v=82
50666 On ch=12 n=70 v=93
50711 On ch=12 n=55 v=0
50711 On ch=12 n=63 v=0
50711 On ch=12 n=70 v=0
50714 On ch=12 n=55 v=94
50714 On ch=12 n=63 v=96
50714 On ch=12 n=70 v=103
50738 On ch=12 n=63 v=0
50738 On ch=12 n=70 v=0
50738 Par ch=12 c=11 v=68
50738 On ch=12 n=63 v=81
50738 On ch=12 n=70 v=90
50762 On ch=12 n=63 v=0
50762 On ch=12 n=70 v=0
50763 On ch=12 n=63 v=80
50764 On ch=12 n=70 v=93
50786 On ch=12 n=63 v=0
50786 On ch=12 n=70 v=0
50786 Par ch=12 c=11 v=70
50786 On ch=12 n=63 v=77
50786 On ch=12 n=70 v=85
50808 On ch=12 n=55 v=0
50808 On ch=12 n=63 v=0
50808 On ch=12 n=70 v=0
50810 On ch=12 n=55 v=86
50810 On ch=12 n=63 v=95
50810 On ch=12 n=70 v=105
50850 Pb ch=12 v=7507
50852 Pb ch=12 v=6827
50854 On ch=12 n=55 v=0
50854 On ch=12 n=63 v=0
50854 On ch=12 n=70 v=0
50857 Pb ch=12 v=8192
50858 Par ch=12 c=11 v=75
50858 On ch=12 n=52 v=80
50858 On ch=12 n=60 v=90
50858 On ch=12 n=67 v=100
50903 On ch=12 n=67 v=0
50906 On ch=12 n=60 v=0
50906 On ch=12 n=55 v=100
50906 On ch=12 n=60 v=95
50906 On ch=12 n=67 v=110
50906 On ch=12 n=72 v=90
50954 On ch=12 n=52 v=0
50954 On ch=12 n=55 v=0
50954 On ch=12 n=60 v=0
50954 On ch=12 n=67 v=0
50954 On ch=12 n=60 v=80
50955 On ch=12 n=60 v=0
50955 On ch=12 n=67 v=88
50978 On ch=12 n=72 v=0
50978 On ch=12 n=67 v=0
50978 On ch=12 n=52 v=77
50978 On ch=12 n=60 v=90
50978 On ch=12 n=67 v=98
51026 On ch=12 n=60 v=0
51026 On ch=12 n=67 v=0
51026 On ch=12 n=60 v=88
51050 On ch=12 n=52 v=0
51050 On ch=12 n=60 v=0
51050 On ch=12 n=52 v=90
51050 On ch=12 n=60 v=90
51050 On ch=12 n=67 v=93
51095 On ch=12 n=52 v=0
51095 On ch=12 n=60 v=0
51095 On ch=12 n=67 v=0
51098 On ch=12 n=55 v=95
51098 On ch=12 n=52 v=88
51098 On ch=12 n=60 v=110
51098 On ch=12 n=67 v=125
51122 On ch=12 n=55 v=0
51122 On ch=12 n=52 v=0
51122 On ch=12 n=60 v=0
51122 On ch=12 n=67 v=0
51122 On ch=12 n=52 v=88
51122 On ch=12 n=60 v=88
51122 On ch=12 n=67 v=82
51146 On ch=12 n=52 v=0
51146 On ch=12 n=60 v=0
51146 On ch=12 n=67 v=0
51146 On ch=12 n=52 v=80
51146 On ch=12 n=60 v=81
51146 On ch=12 n=67 v=83
51170 On ch=12 n=52 v=0
51170 On ch=12 n=60 v=0
51170 On ch=12 n=67 v=0
51170 On ch=12 n=52 v=77
51170 On ch=12 n=60 v=80
51170 On ch=12 n=67 v=84
51194 On ch=12 n=52 v=0
51194 On ch=12 n=60 v=0
51194 On ch=12 n=67 v=0
51194 On ch=12 n=50 v=100
51194 On ch=12 n=59 v=120
51194 On ch=12 n=74 v=80
51239 On ch=12 n=50 v=0
51239 On ch=12 n=59 v=0
51239 On ch=12 n=74 v=0
51242 On ch=12 n=50 v=95
51242 On ch=12 n=59 v=100
51289 On ch=12 n=59 v=0
51290 On ch=12 n=59 v=127
51290 On ch=12 n=74 v=93
51312 On ch=12 n=50 v=0
51312 On ch=12 n=59 v=0
51312 On ch=12 n=74 v=0
51314 On ch=12 n=50 v=88
51314 On ch=12 n=59 v=84
51314 On ch=12 n=74 v=84
51336 On ch=12 n=59 v=0
51338 On ch=12 n=50 v=0
51338 On ch=12 n=50 v=105
51338 On ch=12 n=59 v=70
51339 On ch=12 n=59 v=0
51361 On ch=12 n=74 v=0
51362 On ch=12 n=50 v=0
51362 On ch=12 n=50 v=92
51362 On ch=12 n=59 v=100
51362 On ch=12 n=74 v=110
51386 On ch=12 n=50 v=0
51386 On ch=12 n=59 v=0
51386 On ch=12 n=74 v=0
51386 On ch=12 n=63 v=84
51386 On ch=12 n=70 v=90
51387 On ch=12 n=63 v=0
51388 On ch=12 n=70 v=0
51410 On ch=12 n=55 v=82
51410 On ch=12 n=63 v=80
51410 On ch=12 n=70 v=90
51434 On ch=12 n=63 v=0
51434 On ch=12 n=70 v=0
51434 On ch=12 n=63 v=82
51434 On ch=12 n=70 v=93
51479 On ch=12 n=55 v=0
51479 On ch=12 n=63 v=0
51479 On ch=12 n=70 v=0
51482 On ch=12 n=55 v=94
51482 On ch=12 n=63 v=96
51482 On ch=12 n=70 v=103
51506 On ch=12 n=63 v=0
51506 On ch=12 n=70 v=0
51506 On ch=12 n=63 v=81
51506 On ch=12 n=70 v=90
51530 On ch=12 n=63 v=0
51530 On ch=12 n=70 v=0
51531 On ch=12 n=63 v=80
51532 On ch=12 n=70 v=93
51554 On ch=12 n=63 v=0
51554 On ch=12 n=70 v=0
51554 On ch=12 n=63 v=77
51554 On ch=12 n=70 v=85
51576 On ch=12 n=55 v=0
51576 On ch=12 n=63 v=0
51576 On ch=12 n=70 v=0
51578 On ch=12 n=55 v=86
51578 On ch=12 n=63 v=95
51578 On ch=12 n=70 v=105
51618 Pb ch=12 v=7507
51620 Pb ch=12 v=6827
51622 On ch=12 n=55 v=0
51622 On ch=12 n=63 v=0
51622 On ch=12 n=70 v=0
51625 Pb ch=12 v=8192
51626 On ch=12 n=52 v=80
51626 On ch=12 n=60 v=90
51626 On ch=12 n=67 v=100
51671 On ch=12 n=67 v=0
51674 On ch=12 n=60 v=0
51674 On ch=12 n=55 v=100
51674 On ch=12 n=60 v=95
51674 On ch=12 n=67 v=110
51674 On ch=12 n=72 v=90
51722 On ch=12 n=52 v=0
51722 On ch=12 n=55 v=0
51722 On ch=12 n=60 v=0
51722 On ch=12 n=67 v=0
51722 On ch=12 n=60 v=80
51723 On ch=12 n=60 v=0
51723 On ch=12 n=67 v=88
51746 On ch=12 n=72 v=0
51746 On ch=12 n=67 v=0
51746 On ch=12 n=52 v=77
51746 On ch=12 n=60 v=90
51746 On ch=12 n=67 v=98
51794 On ch=12 n=60 v=0
51794 On ch=12 n=67 v=0
51794 On ch=12 n=60 v=88
51818 On ch=12 n=52 v=0
51818 On ch=12 n=60 v=0
51818 On ch=12 n=52 v=90
51818 On ch=12 n=60 v=90
51818 On ch=12 n=67 v=93
51863 On ch=12 n=52 v=0
51863 On ch=12 n=60 v=0
51863 On ch=12 n=67 v=0
51866 On ch=12 n=55 v=95
51866 On ch=12 n=52 v=88
51866 On ch=12 n=60 v=110
51866 On ch=12 n=67 v=125
51890 On ch=12 n=55 v=0
51890 On ch=12 n=52 v=0
51890 On ch=12 n=60 v=0
51890 On ch=12 n=67 v=0
51890 On ch=12 n=52 v=88
51890 On ch=12 n=60 v=88
51890 On ch=12 n=67 v=82
51914 On ch=12 n=52 v=0
51914 On ch=12 n=60 v=0
51914 On ch=12 n=67 v=0
51914 On ch=12 n=52 v=80
51914 On ch=12 n=60 v=81
51914 On ch=12 n=67 v=83
51938 On ch=12 n=52 v=0
51938 On ch=12 n=60 v=0
51938 On ch=12 n=67 v=0
51938 On ch=12 n=52 v=77
51938 On ch=12 n=60 v=80
51938 On ch=12 n=67 v=84
51962 On ch=12 n=52 v=0
51962 On ch=12 n=60 v=0
51962 On ch=12 n=67 v=0
51962 On ch=12 n=50 v=100
51962 On ch=12 n=59 v=120
51962 On ch=12 n=74 v=88
52007 On ch=12 n=50 v=0
52007 On ch=12 n=59 v=0
52007 On ch=12 n=74 v=0
52010 On ch=12 n=50 v=95
52010 On ch=12 n=59 v=100
52057 On ch=12 n=59 v=0
52058 On ch=12 n=59 v=127
52058 On ch=12 n=74 v=93
52080 On ch=12 n=50 v=0
52080 On ch=12 n=59 v=0
52080 On ch=12 n=74 v=0
52082 On ch=12 n=50 v=88
52082 On ch=12 n=59 v=84
52082 On ch=12 n=74 v=84
52104 On ch=12 n=59 v=0
52106 On ch=12 n=50 v=0
52106 On ch=12 n=50 v=105
52106 On ch=12 n=59 v=70
52107 On ch=12 n=59 v=0
52129 On ch=12 n=74 v=0
52130 On ch=12 n=50 v=0
52130 On ch=12 n=50 v=65
52130 On ch=12 n=59 v=88
52130 On ch=12 n=74 v=84
52154 On ch=12 n=50 v=0
52154 On ch=12 n=59 v=0
52154 On ch=12 n=74 v=0
52154 On ch=12 n=63 v=84
52154 On ch=12 n=70 v=90
52155 On ch=12 n=63 v=0
52156 On ch=12 n=70 v=0
52178 On ch=12 n=55 v=82
52178 On ch=12 n=63 v=80
52178 On ch=12 n=70 v=90
52202 On ch=12 n=63 v=0
52202 On ch=12 n=70 v=0
52202 On ch=12 n=63 v=82
52202 On ch=12 n=70 v=93
52247 On ch=12 n=55 v=0
52247 On ch=12 n=63 v=0
52247 On ch=12 n=70 v=0
52250 On ch=12 n=55 v=94
52250 On ch=12 n=63 v=96
52250 On ch=12 n=70 v=103
52274 On ch=12 n=63 v=0
52274 On ch=12 n=70 v=0
52274 On ch=12 n=63 v=81
52274 On ch=12 n=70 v=90
52298 On ch=12 n=63 v=0
52298 On ch=12 n=70 v=0
52299 On ch=12 n=63 v=80
52300 On ch=12 n=70 v=93
52322 On ch=12 n=63 v=0
52322 On ch=12 n=70 v=0
52322 On ch=12 n=63 v=77
52322 On ch=12 n=70 v=85
52344 On ch=12 n=55 v=0
52344 On ch=12 n=63 v=0
52344 On ch=12 n=70 v=0
52346 On ch=12 n=55 v=86
52346 On ch=12 n=63 v=95
52346 On ch=12 n=70 v=105
52386 Pb ch=12 v=7507
52388 Pb ch=12 v=6827
52390 On ch=12 n=55 v=0
52390 On ch=12 n=63 v=0
52390 On ch=12 n=70 v=0
52393 Pb ch=12 v=8192
52394 On ch=12 n=52 v=80
52394 On ch=12 n=60 v=90
52394 On ch=12 n=67 v=100
52439 On ch=12 n=67 v=0
52442 On ch=12 n=60 v=0
52442 On ch=12 n=55 v=100
52442 On ch=12 n=60 v=95
52442 On ch=12 n=67 v=110
52442 On ch=12 n=72 v=90
52490 On ch=12 n=52 v=0
52490 On ch=12 n=55 v=0
52490 On ch=12 n=60 v=0
52490 On ch=12 n=67 v=0
52490 On ch=12 n=60 v=80
52491 On ch=12 n=60 v=0
52491 On ch=12 n=67 v=88
52514 On ch=12 n=72 v=0
52514 On ch=12 n=67 v=0
52514 On ch=12 n=52 v=77
52514 On ch=12 n=60 v=90
52514 On ch=12 n=67 v=98
52562 On ch=12 n=60 v=0
52562 On ch=12 n=67 v=0
52562 On ch=12 n=60 v=88
52586 On ch=12 n=52 v=0
52586 On ch=12 n=60 v=0
52586 On ch=12 n=52 v=90
52586 On ch=12 n=60 v=90
52586 On ch=12 n=67 v=93
52631 On ch=12 n=52 v=0
52631 On ch=12 n=60 v=0
52631 On ch=12 n=67 v=0
52634 On ch=12 n=55 v=95
52634 On ch=12 n=52 v=88
52634 On ch=12 n=60 v=110
52634 On ch=12 n=67 v=125
52658 On ch=12 n=55 v=0
52658 On ch=12 n=52 v=0
52658 On ch=12 n=60 v=0
52658 On ch=12 n=67 v=0
52658 On ch=12 n=52 v=88
52658 On ch=12 n=60 v=88
52658 On ch=12 n=67 v=82
52682 On ch=12 n=52 v=0
52682 On ch=12 n=60 v=0
52682 On ch=12 n=67 v=0
52682 On ch=12 n=52 v=80
52682 On ch=12 n=60 v=81
52682 On ch=12 n=67 v=83
52706 On ch=12 n=52 v=0
52706 On ch=12 n=60 v=0
52706 On ch=12 n=67 v=0
52706 On ch=12 n=52 v=77
52706 On ch=12 n=60 v=80
52706 On ch=12 n=67 v=84
52730 On ch=12 n=52 v=0
52730 On ch=12 n=60 v=0
52730 On ch=12 n=67 v=0
52730 On ch=12 n=50 v=100
52730 On ch=12 n=59 v=120
52730 On ch=12 n=74 v=88
52775 On ch=12 n=50 v=0
52775 On ch=12 n=59 v=0
52775 On ch=12 n=74 v=0
52778 On ch=12 n=50 v=95
52778 On ch=12 n=59 v=100
52825 On ch=12 n=59 v=0
52826 On ch=12 n=59 v=127
52826 On ch=12 n=74 v=93
52848 On ch=12 n=50 v=0
52848 On ch=12 n=59 v=0
52848 On ch=12 n=74 v=0
52850 On ch=12 n=50 v=88
52850 On ch=12 n=59 v=84
52850 On ch=12 n=74 v=84
52872 On ch=12 n=59 v=0
52874 On ch=12 n=50 v=0
52874 On ch=12 n=50 v=105
52874 On ch=12 n=59 v=70
52875 On ch=12 n=59 v=0
52897 On ch=12 n=74 v=0
52898 On ch=12 n=50 v=0
52898 On ch=12 n=50 v=65
52898 On ch=12 n=59 v=88
52898 On ch=12 n=74 v=84
52922 On ch=12 n=50 v=0
52922 On ch=12 n=59 v=0
52922 On ch=12 n=74 v=0
52922 On ch=12 n=63 v=84
52922 On ch=12 n=70 v=90
52923 On ch=12 n=63 v=0
52924 On ch=12 n=70 v=0
52946 On ch=12 n=55 v=82
52946 On ch=12 n=63 v=80
52946 On ch=12 n=70 v=90
52970 On ch=12 n=63 v=0
52970 On ch=12 n=70 v=0
52970 On ch=12 n=63 v=82
52970 On ch=12 n=70 v=93
53015 On ch=12 n=55 v=0
53015 On ch=12 n=63 v=0
53015 On ch=12 n=70 v=0
53018 On ch=12 n=55 v=94
53018 On ch=12 n=63 v=96
53018 On ch=12 n=70 v=103
53042 On ch=12 n=63 v=0
53042 On ch=12 n=70 v=0
53042 On ch=12 n=63 v=81
53042 On ch=12 n=70 v=90
53066 On ch=12 n=63 v=0
53066 On ch=12 n=70 v=0
53067 On ch=12 n=63 v=80
53068 On ch=12 n=70 v=93
53090 On ch=12 n=63 v=0
53090 On ch=12 n=70 v=0
53090 On ch=12 n=63 v=77
53090 On ch=12 n=70 v=85
53112 On ch=12 n=55 v=0
53112 On ch=12 n=63 v=0
53112 On ch=12 n=70 v=0
53114 On ch=12 n=55 v=86
53114 On ch=12 n=63 v=95
53114 On ch=12 n=70 v=105
53154 Pb ch=12 v=7507
53156 Pb ch=12 v=6827
53158 On ch=12 n=55 v=0
53158 On ch=12 n=63 v=0
53158 On ch=12 n=70 v=0
53161 Pb ch=12 v=8192
53162 On ch=12 n=52 v=80
53162 On ch=12 n=60 v=90
53162 On ch=12 n=67 v=100
53207 On ch=12 n=67 v=0
53210 On ch=12 n=60 v=0
53210 On ch=12 n=55 v=100
53210 On ch=12 n=60 v=95
53210 On ch=12 n=67 v=110
53210 On ch=12 n=72 v=90
53258 On ch=12 n=52 v=0
53258 On ch=12 n=55 v=0
53258 On ch=12 n=60 v=0
53258 On ch=12 n=67 v=0
53258 On ch=12 n=60 v=80
53259 On ch=12 n=60 v=0
53259 On ch=12 n=67 v=88
53282 On ch=12 n=72 v=0
53282 On ch=12 n=67 v=0
53282 On ch=12 n=52 v=77
53282 On ch=12 n=60 v=90
53282 On ch=12 n=67 v=98
53330 On ch=12 n=60 v=0
53330 On ch=12 n=67 v=0
53330 On ch=12 n=60 v=88
53354 On ch=12 n=52 v=0
53354 On ch=12 n=60 v=0
53354 On ch=12 n=52 v=90
53354 On ch=12 n=60 v=90
53354 On ch=12 n=67 v=93
53399 On ch=12 n=52 v=0
53399 On ch=12 n=60 v=0
53399 On ch=12 n=67 v=0
53402 On ch=12 n=55 v=95
53402 On ch=12 n=52 v=88
53402 On ch=12 n=60 v=110
53402 On ch=12 n=67 v=125
53426 On ch=12 n=55 v=0
53426 On ch=12 n=52 v=0
53426 On ch=12 n=60 v=0
53426 On ch=12 n=67 v=0
53426 On ch=12 n=52 v=88
53426 On ch=12 n=60 v=88
53426 On ch=12 n=67 v=82
53450 On ch=12 n=52 v=0
53450 On ch=12 n=60 v=0
53450 On ch=12 n=67 v=0
53450 On ch=12 n=52 v=80
53450 On ch=12 n=60 v=81
53450 On ch=12 n=67 v=83
53474 On ch=12 n=52 v=0
53474 On ch=12 n=60 v=0
53474 On ch=12 n=67 v=0
53474 On ch=12 n=52 v=77
53474 On ch=12 n=60 v=80
53474 On ch=12 n=67 v=84
53498 On ch=12 n=52 v=0
53498 On ch=12 n=60 v=0
53498 On ch=12 n=67 v=0
53498 On ch=12 n=50 v=100
53498 On ch=12 n=59 v=120
53498 On ch=12 n=74 v=80
53543 On ch=12 n=50 v=0
53543 On ch=12 n=59 v=0
53543 On ch=12 n=74 v=0
53546 On ch=12 n=50 v=95
53546 On ch=12 n=59 v=100
53593 On ch=12 n=59 v=0
53594 On ch=12 n=59 v=127
53594 On ch=12 n=74 v=93
53616 On ch=12 n=50 v=0
53616 On ch=12 n=59 v=0
53616 On ch=12 n=74 v=0
53618 On ch=12 n=50 v=88
53618 On ch=12 n=59 v=84
53618 On ch=12 n=74 v=84
53640 On ch=12 n=59 v=0
53642 On ch=12 n=50 v=0
53642 On ch=12 n=50 v=105
53642 On ch=12 n=59 v=70
53643 On ch=12 n=59 v=0
53665 On ch=12 n=74 v=0
53666 On ch=12 n=50 v=0
53666 On ch=12 n=50 v=92
53666 On ch=12 n=59 v=100
53666 On ch=12 n=74 v=110
53690 On ch=12 n=50 v=0
53690 On ch=12 n=59 v=0
53690 On ch=12 n=74 v=0
53690 On ch=12 n=63 v=84
53690 On ch=12 n=70 v=90
53691 On ch=12 n=63 v=0
53692 On ch=12 n=70 v=0
53714 On ch=12 n=55 v=82
53714 On ch=12 n=63 v=80
53714 On ch=12 n=70 v=90
53738 On ch=12 n=63 v=0
53738 On ch=12 n=70 v=0
53738 On ch=12 n=63 v=82
53738 On ch=12 n=70 v=93
53783 On ch=12 n=55 v=0
53783 On ch=12 n=63 v=0
53783 On ch=12 n=70 v=0
53786 On ch=12 n=55 v=94
53786 On ch=12 n=63 v=96
53786 On ch=12 n=70 v=103
53810 On ch=12 n=63 v=0
53810 On ch=12 n=70 v=0
53810 On ch=12 n=63 v=81
53810 On ch=12 n=70 v=90
53834 On ch=12 n=63 v=0
53834 On ch=12 n=70 v=0
53835 On ch=12 n=63 v=80
53836 On ch=12 n=70 v=93
53858 On ch=12 n=63 v=0
53858 On ch=12 n=70 v=0
53858 On ch=12 n=63 v=77
53858 On ch=12 n=70 v=85
53880 On ch=12 n=55 v=0
53880 On ch=12 n=63 v=0
53880 On ch=12 n=70 v=0
53882 On ch=12 n=55 v=86
53882 On ch=12 n=63 v=95
53882 On ch=12 n=70 v=105
53922 Pb ch=12 v=7507
53924 Pb ch=12 v=6827
53926 On ch=12 n=55 v=0
53926 On ch=12 n=63 v=0
53926 On ch=12 n=70 v=0
53929 Pb ch=12 v=8192
53930 On ch=12 n=52 v=80
53930 On ch=12 n=60 v=90
53930 On ch=12 n=67 v=100
53975 On ch=12 n=67 v=0
53978 On ch=12 n=60 v=0
53978 On ch=12 n=55 v=100
53978 On ch=12 n=60 v=95
53978 On ch=12 n=67 v=110
53978 On ch=12 n=72 v=90
54026 On ch=12 n=52 v=0
54026 On ch=12 n=55 v=0
54026 On ch=12 n=60 v=0
54026 On ch=12 n=67 v=0
54026 On ch=12 n=60 v=80
54027 On ch=12 n=60 v=0
54027 On ch=12 n=67 v=88
54050 On ch=12 n=72 v=0
54050 On ch=12 n=67 v=0
54050 On ch=12 n=52 v=77
54050 On ch=12 n=60 v=90
54050 On ch=12 n=67 v=98
54098 On ch=12 n=60 v=0
54098 On ch=12 n=67 v=0
54098 On ch=12 n=60 v=88
54122 On ch=12 n=52 v=0
54122 On ch=12 n=60 v=0
54122 On ch=12 n=52 v=90
54122 On ch=12 n=60 v=90
54122 On ch=12 n=67 v=93
54167 On ch=12 n=52 v=0
54167 On ch=12 n=60 v=0
54167 On ch=12 n=67 v=0
54170 On ch=12 n=55 v=95
54170 On ch=12 n=52 v=88
54170 On ch=12 n=60 v=110
54170 On ch=12 n=67 v=125
54194 On ch=12 n=55 v=0
54194 On ch=12 n=52 v=0
54194 On ch=12 n=60 v=0
54194 On ch=12 n=67 v=0
54194 On ch=12 n=52 v=88
54194 On ch=12 n=60 v=88
54194 On ch=12 n=67 v=82
54218 On ch=12 n=52 v=0
54218 On ch=12 n=60 v=0
54218 On ch=12 n=67 v=0
54218 On ch=12 n=52 v=80
54218 On ch=12 n=60 v=81
54218 On ch=12 n=67 v=83
54242 On ch=12 n=52 v=0
54242 On ch=12 n=60 v=0
54242 On ch=12 n=67 v=0
54242 On ch=12 n=52 v=77
54242 On ch=12 n=60 v=80
54242 On ch=12 n=67 v=84
54266 On ch=12 n=52 v=0
54266 On ch=12 n=60 v=0
54266 On ch=12 n=67 v=0
54266 On ch=12 n=50 v=100
54266 On ch=12 n=59 v=120
54266 On ch=12 n=74 v=88
54311 On ch=12 n=50 v=0
54311 On ch=12 n=59 v=0
54311 On ch=12 n=74 v=0
54314 On ch=12 n=50 v=95
54314 On ch=12 n=59 v=100
54361 On ch=12 n=59 v=0
54362 On ch=12 n=59 v=127
54362 On ch=12 n=74 v=93
54384 On ch=12 n=50 v=0
54384 On ch=12 n=59 v=0
54384 On ch=12 n=74 v=0
54386 On ch=12 n=50 v=88
54386 On ch=12 n=59 v=84
54386 On ch=12 n=74 v=84
54408 On ch=12 n=59 v=0
54410 On ch=12 n=50 v=0
54410 On ch=12 n=50 v=105
54410 On ch=12 n=59 v=70
54411 On ch=12 n=59 v=0
54433 On ch=12 n=74 v=0
54434 On ch=12 n=50 v=0
54434 On ch=12 n=50 v=65
54434 On ch=12 n=59 v=88
54434 On ch=12 n=74 v=84
54458 On ch=12 n=50 v=0
54458 On ch=12 n=59 v=0
54458 On ch=12 n=74 v=0
54458 On ch=12 n=63 v=84
54458 On ch=12 n=70 v=90
54459 On ch=12 n=63 v=0
54460 On ch=12 n=70 v=0
54482 On ch=12 n=55 v=82
54482 On ch=12 n=63 v=80
54482 On ch=12 n=70 v=90
54506 On ch=12 n=63 v=0
54506 On ch=12 n=70 v=0
54506 On ch=12 n=63 v=82
54506 On ch=12 n=70 v=93
54551 On ch=12 n=55 v=0
54551 On ch=12 n=63 v=0
54551 On ch=12 n=70 v=0
54554 On ch=12 n=55 v=94
54554 On ch=12 n=63 v=96
54554 On ch=12 n=70 v=103
54578 On ch=12 n=63 v=0
54578 On ch=12 n=70 v=0
54578 On ch=12 n=63 v=81
54578 On ch=12 n=70 v=90
54602 On ch=12 n=63 v=0
54602 On ch=12 n=70 v=0
54603 On ch=12 n=63 v=80
54604 On ch=12 n=70 v=93
54626 On ch=12 n=63 v=0
54626 On ch=12 n=70 v=0
54626 On ch=12 n=63 v=77
54626 On ch=12 n=70 v=85
54648 On ch=12 n=55 v=0
54648 On ch=12 n=63 v=0
54648 On ch=12 n=70 v=0
54650 On ch=12 n=55 v=86
54650 On ch=12 n=63 v=95
54650 On ch=12 n=70 v=105
54690 Pb ch=12 v=7507
54692 Pb ch=12 v=6827
54694 On ch=12 n=55 v=0
54694 On ch=12 n=63 v=0
54694 On ch=12 n=70 v=0
54697 Pb ch=12 v=8192
54698 On ch=12 n=52 v=80
54698 On ch=12 n=60 v=90
54698 On ch=12 n=67 v=100
54743 On ch=12 n=67 v=0
54746 On ch=12 n=60 v=0
54746 On ch=12 n=55 v=100
54746 On ch=12 n=60 v=95
54746 On ch=12 n=67 v=110
54746 On ch=12 n=72 v=90
54794 On ch=12 n=52 v=0
54794 On ch=12 n=55 v=0
54794 On ch=12 n=60 v=0
54794 On ch=12 n=67 v=0
54794 On ch=12 n=60 v=80
54795 On ch=12 n=60 v=0
54795 On ch=12 n=67 v=88
54818 On ch=12 n=72 v=0
54818 On ch=12 n=67 v=0
54818 On ch=12 n=52 v=77
54818 On ch=12 n=60 v=90
54818 On ch=12 n=67 v=98
54866 On ch=12 n=60 v=0
54866 On ch=12 n=67 v=0
54866 On ch=12 n=60 v=88
54890 On ch=12 n=52 v=0
54890 On ch=12 n=60 v=0
54890 On ch=12 n=52 v=90
54890 On ch=12 n=60 v=90
54890 On ch=12 n=67 v=93
54935 On ch=12 n=52 v=0
54935 On ch=12 n=60 v=0
54935 On ch=12 n=67 v=0
54938 On ch=12 n=55 v=95
54938 On ch=12 n=52 v=88
54938 On ch=12 n=60 v=110
54938 On ch=12 n=67 v=125
54962 On ch=12 n=55 v=0
54962 On ch=12 n=52 v=0
54962 On ch=12 n=60 v=0
54962 On ch=12 n=67 v=0
54962 On ch=12 n=52 v=88
54962 On ch=12 n=60 v=88
54962 On ch=12 n=67 v=82
54986 On ch=12 n=52 v=0
54986 On ch=12 n=60 v=0
54986 On ch=12 n=67 v=0
54986 On ch=12 n=52 v=80
54986 On ch=12 n=60 v=81
54986 On ch=12 n=67 v=83
55010 On ch=12 n=52 v=0
55010 On ch=12 n=60 v=0
55010 On ch=12 n=67 v=0
55010 On ch=12 n=52 v=77
55010 On ch=12 n=60 v=80
55010 On ch=12 n=67 v=84
55034 On ch=12 n=52 v=0
55034 On ch=12 n=60 v=0
55034 On ch=12 n=67 v=0
55034 On ch=12 n=50 v=100
55034 On ch=12 n=59 v=120
55034 On ch=12 n=74 v=88
55079 On ch=12 n=50 v=0
55079 On ch=12 n=59 v=0
55079 On ch=12 n=74 v=0
55082 On ch=12 n=50 v=95
55082 On ch=12 n=59 v=100
55129 On ch=12 n=59 v=0
55130 On ch=12 n=59 v=127
55130 On ch=12 n=74 v=93
55152 On ch=12 n=50 v=0
55152 On ch=12 n=59 v=0
55152 On ch=12 n=74 v=0
55154 On ch=12 n=50 v=88
55154 On ch=12 n=59 v=84
55154 On ch=12 n=74 v=84
55176 On ch=12 n=59 v=0
55178 On ch=12 n=50 v=0
55178 On ch=12 n=50 v=105
55178 On ch=12 n=59 v=70
55179 On ch=12 n=59 v=0
55201 On ch=12 n=74 v=0
55202 On ch=12 n=50 v=0
55202 On ch=12 n=50 v=65
55202 On ch=12 n=59 v=88
55202 On ch=12 n=74 v=84
55226 On ch=12 n=50 v=0
55226 On ch=12 n=59 v=0
55226 On ch=12 n=74 v=0
55226 On ch=12 n=63 v=84
55226 On ch=12 n=70 v=90
55227 On ch=12 n=63 v=0
55228 On ch=12 n=70 v=0
55250 On ch=12 n=55 v=82
55250 On ch=12 n=63 v=80
55250 On ch=12 n=70 v=90
55274 On ch=12 n=63 v=0
55274 On ch=12 n=70 v=0
55274 On ch=12 n=63 v=82
55274 On ch=12 n=70 v=93
55319 On ch=12 n=55 v=0
55319 On ch=12 n=63 v=0
55319 On ch=12 n=70 v=0
55322 On ch=12 n=55 v=94
55322 On ch=12 n=63 v=96
55322 On ch=12 n=70 v=103
55346 On ch=12 n=63 v=0
55346 On ch=12 n=70 v=0
55346 On ch=12 n=63 v=81
55346 On ch=12 n=70 v=90
55370 On ch=12 n=63 v=0
55370 On ch=12 n=70 v=0
55371 On ch=12 n=63 v=80
55372 On ch=12 n=70 v=93
55394 On ch=12 n=63 v=0
55394 On ch=12 n=70 v=0
55394 On ch=12 n=63 v=77
55394 On ch=12 n=70 v=85
55416 On ch=12 n=55 v=0
55416 On ch=12 n=63 v=0
55416 On ch=12 n=70 v=0
55418 On ch=12 n=55 v=86
55418 On ch=12 n=63 v=95
55418 On ch=12 n=70 v=105
55458 Pb ch=12 v=7507
55460 Pb ch=12 v=6827
55462 On ch=12 n=55 v=0
55462 On ch=12 n=63 v=0
55462 On ch=12 n=70 v=0
55465 Pb ch=12 v=8192
55466 On ch=12 n=52 v=80
55466 On ch=12 n=60 v=90
55466 On ch=12 n=67 v=100
55511 On ch=12 n=67 v=0
55514 On ch=12 n=60 v=0
55514 On ch=12 n=55 v=100
55514 On ch=12 n=60 v=95
55514 On ch=12 n=67 v=110
55514 On ch=12 n=72 v=90
55562 On ch=12 n=52 v=0
55562 On ch=12 n=55 v=0
55562 On ch=12 n=60 v=0
55562 On ch=12 n=67 v=0
55562 On ch=12 n=60 v=80
55563 On ch=12 n=60 v=0
55563 On ch=12 n=67 v=88
55586 On ch=12 n=72 v=0
55586 On ch=12 n=67 v=0
55586 On ch=12 n=52 v=77
55586 On ch=12 n=60 v=90
55586 On ch=12 n=67 v=98
55634 On ch=12 n=60 v=0
55634 On ch=12 n=67 v=0
55634 On ch=12 n=60 v=88
55658 On ch=12 n=52 v=0
55658 On ch=12 n=60 v=0
55658 On ch=12 n=52 v=90
55658 On ch=12 n=60 v=90
55658 On ch=12 n=67 v=93
55703 On ch=12 n=52 v=0
55703 On ch=12 n=60 v=0
55703 On ch=12 n=67 v=0
55706 On ch=12 n=55 v=95
55706 On ch=12 n=52 v=88
55706 On ch=12 n=60 v=110
55706 On ch=12 n=67 v=125
55730 On ch=12 n=55 v=0
55730 On ch=12 n=52 v=0
55730 On ch=12 n=60 v=0
55730 On ch=12 n=67 v=0
55730 On ch=12 n=52 v=88
55730 On ch=12 n=60 v=88
55730 On ch=12 n=67 v=82
55754 On ch=12 n=52 v=0
55754 On ch=12 n=60 v=0
55754 On ch=12 n=67 v=0
55754 On ch=12 n=52 v=80
55754 On ch=12 n=60 v=81
55754 On ch=12 n=67 v=83
55778 On ch=12 n=52 v=0
55778 On ch=12 n=60 v=0
55778 On ch=12 n=67 v=0
55778 On ch=12 n=52 v=77
55778 On ch=12 n=60 v=80
55778 On ch=12 n=67 v=84
55802 On ch=12 n=52 v=0
55802 On ch=12 n=60 v=0
55802 On ch=12 n=67 v=0
55802 On ch=12 n=50 v=100
55802 On ch=12 n=59 v=120
55802 On ch=12 n=74 v=80
55847 On ch=12 n=50 v=0
55847 On ch=12 n=59 v=0
55847 On ch=12 n=74 v=0
55850 On ch=12 n=50 v=95
55850 On ch=12 n=59 v=100
55897 On ch=12 n=59 v=0
55898 On ch=12 n=59 v=127
55898 On ch=12 n=74 v=93
55920 On ch=12 n=50 v=0
55920 On ch=12 n=59 v=0
55920 On ch=12 n=74 v=0
55922 On ch=12 n=50 v=88
55922 On ch=12 n=59 v=84
55922 On ch=12 n=74 v=84
55944 On ch=12 n=59 v=0
55946 On ch=12 n=50 v=0
55946 On ch=12 n=50 v=105
55946 On ch=12 n=59 v=70
55947 On ch=12 n=59 v=0
55969 On ch=12 n=74 v=0
55970 On ch=12 n=50 v=0
55970 On ch=12 n=50 v=92
55970 On ch=12 n=59 v=100
55970 On ch=12 n=74 v=110
55994 On ch=12 n=50 v=0
55994 On ch=12 n=59 v=0
55994 On ch=12 n=74 v=0
55994 On ch=12 n=63 v=84
55994 On ch=12 n=70 v=90
55995 On ch=12 n=63 v=0
55996 On ch=12 n=70 v=0
56018 On ch=12 n=55 v=82
56018 On ch=12 n=63 v=80
56018 On ch=12 n=70 v=90
56042 On ch=12 n=63 v=0
56042 On ch=12 n=70 v=0
56042 On ch=12 n=63 v=82
56042 On ch=12 n=70 v=93
56087 On ch=12 n=55 v=0
56087 On ch=12 n=63 v=0
56087 On ch=12 n=70 v=0
56090 On ch=12 n=55 v=94
56090 On ch=12 n=63 v=96
56090 On ch=12 n=70 v=103
56114 On ch=12 n=63 v=0
56114 On ch=12 n=70 v=0
56114 On ch=12 n=63 v=81
56114 On ch=12 n=70 v=90
56138 On ch=12 n=63 v=0
56138 On ch=12 n=70 v=0
56139 On ch=12 n=63 v=80
56140 On ch=12 n=70 v=93
56162 On ch=12 n=63 v=0
56162 On ch=12 n=70 v=0
56162 On ch=12 n=63 v=77
56162 On ch=12 n=70 v=85
56184 On ch=12 n=55 v=0
56184 On ch=12 n=63 v=0
56184 On ch=12 n=70 v=0
56186 On ch=12 n=55 v=86
56186 On ch=12 n=63 v=95
56186 On ch=12 n=70 v=105
56226 Pb ch=12 v=7507
56228 Pb ch=12 v=6827
56230 On ch=12 n=55 v=0
56230 On ch=12 n=63 v=0
56230 On ch=12 n=70 v=0
56233 Pb ch=12 v=8192
56234 On ch=12 n=52 v=80
56234 On ch=12 n=60 v=90
56234 On ch=12 n=67 v=100
56279 On ch=12 n=67 v=0
56282 On ch=12 n=60 v=0
56282 On ch=12 n=55 v=100
56282 On ch=12 n=60 v=95
56282 On ch=12 n=67 v=110
56282 On ch=12 n=72 v=90
56330 On ch=12 n=52 v=0
56330 On ch=12 n=55 v=0
56330 On ch=12 n=60 v=0
56330 On ch=12 n=67 v=0
56330 On ch=12 n=60 v=80
56331 On ch=12 n=60 v=0
56331 On ch=12 n=67 v=88
56354 On ch=12 n=72 v=0
56354 On ch=12 n=67 v=0
56354 On ch=12 n=52 v=77
56354 On ch=12 n=60 v=90
56354 On ch=12 n=67 v=98
56402 On ch=12 n=60 v=0
56402 On ch=12 n=67 v=0
56402 On ch=12 n=60 v=88
56426 On ch=12 n=52 v=0
56426 On ch=12 n=60 v=0
56426 On ch=12 n=52 v=90
56426 On ch=12 n=60 v=90
56426 On ch=12 n=67 v=93
56471 On ch=12 n=52 v=0
56471 On ch=12 n=60 v=0
56471 On ch=12 n=67 v=0
56474 On ch=12 n=55 v=95
56474 On ch=12 n=52 v=88
56474 On ch=12 n=60 v=110
56474 On ch=12 n=67 v=125
56498 On ch=12 n=55 v=0
56498 On ch=12 n=52 v=0
56498 On ch=12 n=60 v=0
56498 On ch=12 n=67 v=0
56498 On ch=12 n=52 v=88
56498 On ch=12 n=60 v=88
56498 On ch=12 n=67 v=82
56522 On ch=12 n=52 v=0
56522 On ch=12 n=60 v=0
56522 On ch=12 n=67 v=0
56522 On ch=12 n=52 v=80
56522 On ch=12 n=60 v=81
56522 On ch=12 n=67 v=83
56546 On ch=12 n=52 v=0
56546 On ch=12 n=60 v=0
56546 On ch=12 n=67 v=0
56546 On ch=12 n=52 v=77
56546 On ch=12 n=60 v=80
56546 On ch=12 n=67 v=84
56570 On ch=12 n=52 v=0
56570 On ch=12 n=60 v=0
56570 On ch=12 n=67 v=0
56570 On ch=12 n=50 v=100
56570 On ch=12 n=59 v=120
56570 On ch=12 n=74 v=88
56615 On ch=12 n=50 v=0
56615 On ch=12 n=59 v=0
56615 On ch=12 n=74 v=0
56618 On ch=12 n=50 v=95
56618 On ch=12 n=59 v=100
56665 On ch=12 n=59 v=0
56666 On ch=12 n=59 v=127
56666 On ch=12 n=74 v=93
56688 On ch=12 n=50 v=0
56688 On ch=12 n=59 v=0
56688 On ch=12 n=74 v=0
56690 On ch=12 n=50 v=88
56690 On ch=12 n=59 v=84
56690 On ch=12 n=74 v=84
56712 On ch=12 n=59 v=0
56714 On ch=12 n=50 v=0
56714 On ch=12 n=50 v=105
56714 On ch=12 n=59 v=70
56715 On ch=12 n=59 v=0
56737 On ch=12 n=74 v=0
56738 On ch=12 n=50 v=0
56738 On ch=12 n=50 v=65
56738 On ch=12 n=59 v=88
56738 On ch=12 n=74 v=84
56762 On ch=12 n=50 v=0
56762 On ch=12 n=59 v=0
56762 On ch=12 n=74 v=0
56762 On ch=12 n=63 v=84
56762 On ch=12 n=70 v=90
56763 On ch=12 n=63 v=0
56764 On ch=12 n=70 v=0
56786 On ch=12 n=55 v=82
56786 On ch=12 n=63 v=80
56786 On ch=12 n=70 v=90
56810 On ch=12 n=63 v=0
56810 On ch=12 n=70 v=0
56810 On ch=12 n=63 v=82
56810 On ch=12 n=70 v=93
56855 On ch=12 n=55 v=0
56855 On ch=12 n=63 v=0
56855 On ch=12 n=70 v=0
56858 On ch=12 n=55 v=94
56858 On ch=12 n=63 v=96
56858 On ch=12 n=70 v=103
56882 On ch=12 n=63 v=0
56882 On ch=12 n=70 v=0
56882 On ch=12 n=63 v=81
56882 On ch=12 n=70 v=90
56906 On ch=12 n=63 v=0
56906 On ch=12 n=70 v=0
56907 On ch=12 n=63 v=80
56908 On ch=12 n=70 v=93
56930 On ch=12 n=63 v=0
56930 On ch=12 n=70 v=0
56930 On ch=12 n=63 v=77
56930 On ch=12 n=70 v=85
56952 On ch=12 n=55 v=0
56952 On ch=12 n=63 v=0
56952 On ch=12 n=70 v=0
56954 On ch=12 n=55 v=86
56954 On ch=12 n=63 v=95
56954 On ch=12 n=70 v=105
56994 Pb ch=12 v=7507
56996 Pb ch=12 v=6827
56998 On ch=12 n=55 v=0
56998 On ch=12 n=63 v=0
56998 On ch=12 n=70 v=0
57001 Pb ch=12 v=8192
57002 On ch=12 n=52 v=80
57002 On ch=12 n=60 v=90
57002 On ch=12 n=67 v=100
57047 On ch=12 n=67 v=0
57050 On ch=12 n=60 v=0
57050 On ch=12 n=55 v=100
57050 On ch=12 n=60 v=95
57050 On ch=12 n=67 v=110
57050 On ch=12 n=72 v=90
57098 On ch=12 n=52 v=0
57098 On ch=12 n=55 v=0
57098 On ch=12 n=60 v=0
57098 On ch=12 n=67 v=0
57098 On ch=12 n=60 v=80
57099 On ch=12 n=60 v=0
57099 On ch=12 n=67 v=88
57122 On ch=12 n=72 v=0
57122 On ch=12 n=67 v=0
57122 On ch=12 n=52 v=77
57122 On ch=12 n=60 v=90
57122 On ch=12 n=67 v=98
57170 On ch=12 n=60 v=0
57170 On ch=12 n=67 v=0
57170 On ch=12 n=60 v=88
57194 On ch=12 n=52 v=0
57194 On ch=12 n=60 v=0
57194 On ch=12 n=52 v=90
57194 On ch=12 n=60 v=90
57194 On ch=12 n=67 v=93
57239 On ch=12 n=52 v=0
57239 On ch=12 n=60 v=0
57239 On ch=12 n=67 v=0
57242 On ch=12 n=55 v=95
57242 On ch=12 n=52 v=88
57242 On ch=12 n=60 v=110
57242 On ch=12 n=67 v=125
57266 On ch=12 n=55 v=0
57266 On ch=12 n=52 v=0
57266 On ch=12 n=60 v=0
57266 On ch=12 n=67 v=0
57266 On ch=12 n=52 v=88
57266 On ch=12 n=60 v=88
57266 On ch=12 n=67 v=82
57290 On ch=12 n=52 v=0
57290 On ch=12 n=60 v=0
57290 On ch=12 n=67 v=0
57290 On ch=12 n=52 v=80
57290 On ch=12 n=60 v=81
57290 On ch=12 n=67 v=83
57314 On ch=12 n=52 v=0
57314 On ch=12 n=60 v=0
57314 On ch=12 n=67 v=0
57314 On ch=12 n=52 v=77
57314 On ch=12 n=60 v=80
57314 On ch=12 n=67 v=84
57338 On ch=12 n=52 v=0
57338 On ch=12 n=60 v=0
57338 On ch=12 n=67 v=0
57338 On ch=12 n=50 v=100
57338 On ch=12 n=59 v=120
57338 On ch=12 n=74 v=80
57383 On ch=12 n=50 v=0
57383 On ch=12 n=59 v=0
57383 On ch=12 n=74 v=0
57386 On ch=12 n=50 v=95
57386 On ch=12 n=59 v=100
57433 On ch=12 n=59 v=0
57434 On ch=12 n=59 v=127
57434 On ch=12 n=74 v=93
57456 On ch=12 n=50 v=0
57456 On ch=12 n=59 v=0
57456 On ch=12 n=74 v=0
57458 On ch=12 n=50 v=88
57458 On ch=12 n=59 v=84
57458 On ch=12 n=74 v=84
57480 On ch=12 n=59 v=0
57482 On ch=12 n=50 v=0
57482 On ch=12 n=50 v=105
57482 On ch=12 n=59 v=70
57483 On ch=12 n=59 v=0
57505 On ch=12 n=74 v=0
57506 On ch=12 n=50 v=0
57506 On ch=12 n=50 v=92
57506 On ch=12 n=59 v=100
57506 On ch=12 n=74 v=110
57530 On ch=12 n=50 v=0
57530 On ch=12 n=59 v=0
57530 On ch=12 n=74 v=0
57530 On ch=12 n=63 v=84
57530 On ch=12 n=70 v=90
57531 On ch=12 n=63 v=0
57532 On ch=12 n=70 v=0
57554 On ch=12 n=55 v=82
57554 On ch=12 n=63 v=80
57554 On ch=12 n=70 v=90
57578 On ch=12 n=63 v=0
57578 On ch=12 n=70 v=0
57578 On ch=12 n=63 v=82
57578 On ch=12 n=70 v=93
57623 On ch=12 n=55 v=0
57623 On ch=12 n=63 v=0
57623 On ch=12 n=70 v=0
57626 On ch=12 n=55 v=94
57626 On ch=12 n=63 v=96
57626 On ch=12 n=70 v=103
57650 On ch=12 n=63 v=0
57650 On ch=12 n=70 v=0
57650 On ch=12 n=63 v=81
57650 On ch=12 n=70 v=90
57674 On ch=12 n=63 v=0
57674 On ch=12 n=70 v=0
57675 On ch=12 n=63 v=80
57676 On ch=12 n=70 v=93
57698 On ch=12 n=63 v=0
57698 On ch=12 n=70 v=0
57698 On ch=12 n=63 v=77
57698 On ch=12 n=70 v=85
57720 On ch=12 n=55 v=0
57720 On ch=12 n=63 v=0
57720 On ch=12 n=70 v=0
57722 On ch=12 n=55 v=86
57722 On ch=12 n=63 v=95
57722 On ch=12 n=70 v=105
57762 Pb ch=12 v=7507
57764 Pb ch=12 v=6827
57766 On ch=12 n=55 v=0
57766 On ch=12 n=63 v=0
57766 On ch=12 n=70 v=0
57769 Pb ch=12 v=8192
57770 On ch=12 n=52 v=80
57770 On ch=12 n=60 v=90
57770 On ch=12 n=67 v=100
57815 On ch=12 n=67 v=0
57818 On ch=12 n=60 v=0
57818 On ch=12 n=55 v=100
57818 On ch=12 n=60 v=95
57818 On ch=12 n=67 v=110
57818 On ch=12 n=72 v=90
57866 On ch=12 n=52 v=0
57866 On ch=12 n=55 v=0
57866 On ch=12 n=60 v=0
57866 On ch=12 n=67 v=0
57866 On ch=12 n=60 v=80
57867 On ch=12 n=60 v=0
57867 On ch=12 n=67 v=88
57890 On ch=12 n=72 v=0
57890 On ch=12 n=67 v=0
57890 On ch=12 n=52 v=77
57890 On ch=12 n=60 v=90
57890 On ch=12 n=67 v=98
57938 On ch=12 n=60 v=0
57938 On ch=12 n=67 v=0
57938 On ch=12 n=60 v=88
57962 On ch=12 n=52 v=0
57962 On ch=12 n=60 v=0
57962 On ch=12 n=52 v=90
57962 On ch=12 n=60 v=90
57962 On ch=12 n=67 v=93
58007 On ch=12 n=52 v=0
58007 On ch=12 n=60 v=0
58007 On ch=12 n=67 v=0
58010 On ch=12 n=55 v=95
58010 On ch=12 n=52 v=88
58010 On ch=12 n=60 v=110
58010 On ch=12 n=67 v=125
58034 On ch=12 n=55 v=0
58034 On ch=12 n=52 v=0
58034 On ch=12 n=60 v=0
58034 On ch=12 n=67 v=0
58034 On ch=12 n=52 v=88
58034 On ch=12 n=60 v=88
58034 On ch=12 n=67 v=82
58058 On ch=12 n=52 v=0
58058 On ch=12 n=60 v=0
58058 On ch=12 n=67 v=0
58058 On ch=12 n=52 v=80
58058 On ch=12 n=60 v=81
58058 On ch=12 n=67 v=83
58082 On ch=12 n=52 v=0
58082 On ch=12 n=60 v=0
58082 On ch=12 n=67 v=0
58082 On ch=12 n=52 v=77
58082 On ch=12 n=60 v=80
58082 On ch=12 n=67 v=84
58106 On ch=12 n=52 v=0
58106 On ch=12 n=60 v=0
58106 On ch=12 n=67 v=0
58106 On ch=12 n=50 v=100
58106 On ch=12 n=59 v=120
58106 On ch=12 n=74 v=88
58151 On ch=12 n=50 v=0
58151 On ch=12 n=59 v=0
58151 On ch=12 n=74 v=0
58154 On ch=12 n=50 v=95
58154 On ch=12 n=59 v=100
58201 On ch=12 n=59 v=0
58202 On ch=12 n=59 v=127
58202 On ch=12 n=74 v=93
58224 On ch=12 n=50 v=0
58224 On ch=12 n=59 v=0
58224 On ch=12 n=74 v=0
58226 On ch=12 n=50 v=88
58226 On ch=12 n=59 v=84
58226 On ch=12 n=74 v=84
58248 On ch=12 n=59 v=0
58250 On ch=12 n=50 v=0
58250 On ch=12 n=50 v=105
58250 On ch=12 n=59 v=70
58251 On ch=12 n=59 v=0
58273 On ch=12 n=74 v=0
58274 On ch=12 n=50 v=0
58274 On ch=12 n=50 v=65
58274 On ch=12 n=59 v=88
58274 On ch=12 n=74 v=84
58298 On ch=12 n=50 v=0
58298 On ch=12 n=59 v=0
58298 On ch=12 n=74 v=0
58298 On ch=12 n=63 v=84
58298 On ch=12 n=70 v=90
58299 On ch=12 n=63 v=0
58300 On ch=12 n=70 v=0
58322 On ch=12 n=55 v=82
58322 On ch=12 n=63 v=80
58322 On ch=12 n=70 v=90
58346 On ch=12 n=63 v=0
58346 On ch=12 n=70 v=0
58346 On ch=12 n=63 v=82
58346 On ch=12 n=70 v=93
58391 On ch=12 n=55 v=0
58391 On ch=12 n=63 v=0
58391 On ch=12 n=70 v=0
58394 On ch=12 n=55 v=94
58394 On ch=12 n=63 v=96
58394 On ch=12 n=70 v=103
58418 On ch=12 n=63 v=0
58418 On ch=12 n=70 v=0
58418 On ch=12 n=63 v=81
58418 On ch=12 n=70 v=90
58442 On ch=12 n=63 v=0
58442 On ch=12 n=70 v=0
58443 On ch=12 n=63 v=80
58444 On ch=12 n=70 v=93
58466 On ch=12 n=63 v=0
58466 On ch=12 n=70 v=0
58466 On ch=12 n=63 v=77
58466 On ch=12 n=70 v=85
58488 On ch=12 n=55 v=0
58488 On ch=12 n=63 v=0
58488 On ch=12 n=70 v=0
58490 On ch=12 n=55 v=86
58490 On ch=12 n=63 v=95
58490 On ch=12 n=70 v=105
58530 Pb ch=12 v=7507
58532 Pb ch=12 v=6827
58534 On ch=12 n=55 v=0
58534 On ch=12 n=63 v=0
58534 On ch=12 n=70 v=0
58537 Pb ch=12 v=8192
58538 On ch=12 n=52 v=80
58538 On ch=12 n=60 v=90
58538 On ch=12 n=67 v=100
58583 On ch=12 n=67 v=0
58586 On ch=12 n=60 v=0
58586 On ch=12 n=55 v=100
58586 On ch=12 n=60 v=95
58586 On ch=12 n=67 v=110
58586 On ch=12 n=72 v=90
58634 On ch=12 n=52 v=0
58634 On ch=12 n=55 v=0
58634 On ch=12 n=60 v=0
58634 On ch=12 n=67 v=0
58634 On ch=12 n=60 v=80
58635 On ch=12 n=60 v=0
58635 On ch=12 n=67 v=88
58658 On ch=12 n=72 v=0
58658 On ch=12 n=67 v=0
58658 On ch=12 n=52 v=77
58658 On ch=12 n=60 v=90
58658 On ch=12 n=67 v=98
58706 On ch=12 n=60 v=0
58706 On ch=12 n=67 v=0
58706 On ch=12 n=60 v=88
58730 On ch=12 n=52 v=0
58730 On ch=12 n=60 v=0
58730 On ch=12 n=52 v=90
58730 On ch=12 n=60 v=90
58730 On ch=12 n=67 v=93
58775 On ch=12 n=52 v=0
58775 On ch=12 n=60 v=0
58775 On ch=12 n=67 v=0
58778 On ch=12 n=55 v=95
58778 On ch=12 n=52 v=88
58778 On ch=12 n=60 v=110
58778 On ch=12 n=67 v=125
58802 On ch=12 n=55 v=0
58802 On ch=12 n=52 v=0
58802 On ch=12 n=60 v=0
58802 On ch=12 n=67 v=0
58802 On ch=12 n=52 v=88
58802 On ch=12 n=60 v=88
58802 On ch=12 n=67 v=82
58826 On ch=12 n=52 v=0
58826 On ch=12 n=60 v=0
58826 On ch=12 n=67 v=0
58826 On ch=12 n=52 v=80
58826 On ch=12 n=60 v=81
58826 On ch=12 n=67 v=83
58850 On ch=12 n=52 v=0
58850 On ch=12 n=60 v=0
58850 On ch=12 n=67 v=0
58850 On ch=12 n=52 v=77
58850 On ch=12 n=60 v=80
58850 On ch=12 n=67 v=84
58874 On ch=12 n=52 v=0
58874 On ch=12 n=60 v=0
58874 On ch=12 n=67 v=0
58874 On ch=12 n=50 v=100
58874 On ch=12 n=59 v=120
58874 On ch=12 n=74 v=80
58919 On ch=12 n=50 v=0
58919 On ch=12 n=59 v=0
58919 On ch=12 n=74 v=0
58922 On ch=12 n=50 v=95
58922 On ch=12 n=59 v=100
58969 On ch=12 n=59 v=0
58970 On ch=12 n=59 v=127
58970 On ch=12 n=74 v=93
58992 On ch=12 n=50 v=0
58992 On ch=12 n=59 v=0
58992 On ch=12 n=74 v=0
58994 On ch=12 n=50 v=88
58994 On ch=12 n=59 v=84
58994 On ch=12 n=74 v=84
59016 On ch=12 n=59 v=0
59018 On ch=12 n=50 v=0
59018 On ch=12 n=50 v=105
59018 On ch=12 n=59 v=70
59019 On ch=12 n=59 v=0
59041 On ch=12 n=74 v=0
59042 On ch=12 n=50 v=0
59042 On ch=12 n=50 v=92
59042 On ch=12 n=59 v=100
59042 On ch=12 n=74 v=110
59066 On ch=12 n=50 v=0
59066 On ch=12 n=59 v=0
59066 On ch=12 n=74 v=0
59066 On ch=12 n=63 v=84
59066 On ch=12 n=70 v=90
59067 On ch=12 n=63 v=0
59068 On ch=12 n=70 v=0
59090 On ch=12 n=55 v=82
59090 On ch=12 n=63 v=80
59090 On ch=12 n=70 v=90
59114 On ch=12 n=63 v=0
59114 On ch=12 n=70 v=0
59114 On ch=12 n=63 v=82
59114 On ch=12 n=70 v=93
59159 On ch=12 n=55 v=0
59159 On ch=12 n=63 v=0
59159 On ch=12 n=70 v=0
59162 On ch=12 n=55 v=94
59162 On ch=12 n=63 v=96
59162 On ch=12 n=70 v=103
59186 On ch=12 n=63 v=0
59186 On ch=12 n=70 v=0
59186 On ch=12 n=63 v=81
59186 On ch=12 n=70 v=90
59210 On ch=12 n=63 v=0
59210 On ch=12 n=70 v=0
59211 On ch=12 n=63 v=80
59212 On ch=12 n=70 v=93
59234 On ch=12 n=63 v=0
59234 On ch=12 n=70 v=0
59234 On ch=12 n=63 v=77
59234 On ch=12 n=70 v=85
59256 On ch=12 n=55 v=0
59256 On ch=12 n=63 v=0
59256 On ch=12 n=70 v=0
59258 On ch=12 n=55 v=86
59258 On ch=12 n=63 v=95
59258 On ch=12 n=70 v=105
59298 Pb ch=12 v=7507
59300 Pb ch=12 v=6827
59302 On ch=12 n=55 v=0
59302 On ch=12 n=63 v=0
59302 On ch=12 n=70 v=0
59305 Pb ch=12 v=8192
59306 On ch=12 n=52 v=80
59306 On ch=12 n=60 v=90
59306 On ch=12 n=67 v=100
59351 On ch=12 n=67 v=0
59354 On ch=12 n=60 v=0
59354 On ch=12 n=55 v=100
59354 On ch=12 n=60 v=95
59354 On ch=12 n=67 v=110
59354 On ch=12 n=72 v=90
59402 On ch=12 n=52 v=0
59402 On ch=12 n=55 v=0
59402 On ch=12 n=60 v=0
59402 On ch=12 n=67 v=0
59402 On ch=12 n=60 v=80
59403 On ch=12 n=60 v=0
59403 On ch=12 n=67 v=88
59426 On ch=12 n=72 v=0
59426 On ch=12 n=67 v=0
59426 On ch=12 n=52 v=77
59426 On ch=12 n=60 v=90
59426 On ch=12 n=67 v=98
59474 On ch=12 n=60 v=0
59474 On ch=12 n=67 v=0
59474 On ch=12 n=60 v=88
59498 On ch=12 n=52 v=0
59498 On ch=12 n=60 v=0
59498 On ch=12 n=52 v=90
59498 On ch=12 n=60 v=90
59498 On ch=12 n=67 v=93
59543 On ch=12 n=52 v=0
59543 On ch=12 n=60 v=0
59543 On ch=12 n=67 v=0
59546 On ch=12 n=55 v=95
59546 On ch=12 n=52 v=88
59546 On ch=12 n=60 v=110
59546 On ch=12 n=67 v=125
59570 On ch=12 n=55 v=0
59570 On ch=12 n=52 v=0
59570 On ch=12 n=60 v=0
59570 On ch=12 n=67 v=0
59570 On ch=12 n=52 v=88
59570 On ch=12 n=60 v=88
59570 On ch=12 n=67 v=82
59594 On ch=12 n=52 v=0
59594 On ch=12 n=60 v=0
59594 On ch=12 n=67 v=0
59594 On ch=12 n=52 v=80
59594 On ch=12 n=60 v=81
59594 On ch=12 n=67 v=83
59618 On ch=12 n=52 v=0
59618 On ch=12 n=60 v=0
59618 On ch=12 n=67 v=0
59618 On ch=12 n=52 v=77
59618 On ch=12 n=60 v=80
59618 On ch=12 n=67 v=84
59642 On ch=12 n=52 v=0
59642 On ch=12 n=60 v=0
59642 On ch=12 n=67 v=0
59642 On ch=12 n=50 v=100
59642 On ch=12 n=59 v=120
59642 On ch=12 n=74 v=88
59687 On ch=12 n=50 v=0
59687 On ch=12 n=59 v=0
59687 On ch=12 n=74 v=0
59690 On ch=12 n=50 v=95
59690 On ch=12 n=59 v=100
59737 On ch=12 n=59 v=0
59738 On ch=12 n=59 v=127
59738 On ch=12 n=74 v=93
59760 On ch=12 n=50 v=0
59760 On ch=12 n=59 v=0
59760 On ch=12 n=74 v=0
59762 On ch=12 n=50 v=88
59762 On ch=12 n=59 v=84
59762 On ch=12 n=74 v=84
59784 On ch=12 n=59 v=0
59786 On ch=12 n=50 v=0
59786 On ch=12 n=50 v=105
59786 On ch=12 n=59 v=70
59787 On ch=12 n=59 v=0
59809 On ch=12 n=74 v=0
59810 On ch=12 n=50 v=0
59810 On ch=12 n=50 v=65
59810 On ch=12 n=59 v=88
59810 On ch=12 n=74 v=84
59834 On ch=12 n=50 v=0
59834 On ch=12 n=59 v=0
59834 On ch=12 n=74 v=0
59834 On ch=12 n=63 v=84
59834 On ch=12 n=70 v=90
59835 On ch=12 n=63 v=0
59836 On ch=12 n=70 v=0
59858 On ch=12 n=55 v=82
59858 On ch=12 n=63 v=80
59858 On ch=12 n=70 v=90
59882 On ch=12 n=63 v=0
59882 On ch=12 n=70 v=0
59882 On ch=12 n=63 v=82
59882 On ch=12 n=70 v=93
59927 On ch=12 n=55 v=0
59927 On ch=12 n=63 v=0
59927 On ch=12 n=70 v=0
59930 On ch=12 n=55 v=94
59930 On ch=12 n=63 v=96
59930 On ch=12 n=70 v=103
59954 On ch=12 n=63 v=0
59954 On ch=12 n=70 v=0
59954 On ch=12 n=63 v=81
59954 On ch=12 n=70 v=90
59978 On ch=12 n=63 v=0
59978 On ch=12 n=70 v=0
59979 On ch=12 n=63 v=80
59980 On ch=12 n=70 v=93
60002 On ch=12 n=63 v=0
60002 On ch=12 n=70 v=0
60002 On ch=12 n=63 v=77
60002 On ch=12 n=70 v=85
60024 On ch=12 n=55 v=0
60024 On ch=12 n=63 v=0
60024 On ch=12 n=70 v=0
60026 On ch=12 n=55 v=86
60026 On ch=12 n=63 v=95
60026 On ch=12 n=70 v=105
60066 Pb ch=12 v=7507
60068 Pb ch=12 v=6827
60070 On ch=12 n=55 v=0
60070 On ch=12 n=63 v=0
60070 On ch=12 n=70 v=0
60073 Pb ch=12 v=8192
60074 On ch=12 n=52 v=80
60074 On ch=12 n=60 v=90
60074 On ch=12 n=67 v=100
60119 On ch=12 n=67 v=0
60122 On ch=12 n=60 v=0
60122 On ch=12 n=55 v=100
60122 On ch=12 n=60 v=95
60122 On ch=12 n=67 v=110
60122 On ch=12 n=72 v=90
60170 On ch=12 n=52 v=0
60170 On ch=12 n=55 v=0
60170 On ch=12 n=60 v=0
60170 On ch=12 n=67 v=0
60170 On ch=12 n=60 v=80
60171 On ch=12 n=60 v=0
60171 On ch=12 n=67 v=88
60194 On ch=12 n=72 v=0
60194 On ch=12 n=67 v=0
60194 On ch=12 n=52 v=77
60194 On ch=12 n=60 v=90
60194 On ch=12 n=67 v=98
60242 On ch=12 n=60 v=0
60242 On ch=12 n=67 v=0
60242 On ch=12 n=60 v=88
60266 On ch=12 n=52 v=0
60266 On ch=12 n=60 v=0
60266 On ch=12 n=52 v=90
60266 On ch=12 n=60 v=90
60266 On ch=12 n=67 v=93
60311 On ch=12 n=52 v=0
60311 On ch=12 n=60 v=0
60311 On ch=12 n=67 v=0
60314 On ch=12 n=55 v=95
60314 On ch=12 n=52 v=88
60314 On ch=12 n=60 v=110
60314 On ch=12 n=67 v=125
60338 On ch=12 n=55 v=0
60338 On ch=12 n=52 v=0
60338 On ch=12 n=60 v=0
60338 On ch=12 n=67 v=0
60338 On ch=12 n=52 v=88
60338 On ch=12 n=60 v=88
60338 On ch=12 n=67 v=82
60362 On ch=12 n=52 v=0
60362 On ch=12 n=60 v=0
60362 On ch=12 n=67 v=0
60362 On ch=12 n=52 v=80
60362 On ch=12 n=60 v=81
60362 On ch=12 n=67 v=83
60386 On ch=12 n=52 v=0
60386 On ch=12 n=60 v=0
60386 On ch=12 n=67 v=0
60386 On ch=12 n=52 v=77
60386 On ch=12 n=60 v=80
60386 On ch=12 n=67 v=84
60410 On ch=12 n=52 v=0
60410 On ch=12 n=60 v=0
60410 On ch=12 n=67 v=0
60410 On ch=12 n=50 v=100
60410 On ch=12 n=59 v=120
60410 On ch=12 n=74 v=80
60455 On ch=12 n=50 v=0
60455 On ch=12 n=59 v=0
60455 On ch=12 n=74 v=0
60458 On ch=12 n=50 v=95
60458 On ch=12 n=59 v=100
60505 On ch=12 n=59 v=0
60506 On ch=12 n=59 v=127
60506 On ch=12 n=74 v=93
60528 On ch=12 n=50 v=0
60528 On ch=12 n=59 v=0
60528 On ch=12 n=74 v=0
60530 On ch=12 n=50 v=88
60530 On ch=12 n=59 v=84
60530 On ch=12 n=74 v=84
60552 On ch=12 n=59 v=0
60554 On ch=12 n=50 v=0
60554 On ch=12 n=50 v=105
60554 On ch=12 n=59 v=70
60555 On ch=12 n=59 v=0
60577 On ch=12 n=74 v=0
60578 On ch=12 n=50 v=0
60578 On ch=12 n=50 v=92
60578 On ch=12 n=59 v=100
60578 On ch=12 n=74 v=110
60602 On ch=12 n=50 v=0
60602 On ch=12 n=59 v=0
60602 On ch=12 n=74 v=0
60602 On ch=12 n=63 v=84
60602 On ch=12 n=70 v=90
60603 On ch=12 n=63 v=0
60604 On ch=12 n=70 v=0
60626 On ch=12 n=55 v=82
60626 On ch=12 n=63 v=80
60626 On ch=12 n=70 v=90
60650 On ch=12 n=63 v=0
60650 On ch=12 n=70 v=0
60650 On ch=12 n=63 v=82
60650 On ch=12 n=70 v=93
60695 On ch=12 n=55 v=0
60695 On ch=12 n=63 v=0
60695 On ch=12 n=70 v=0
60698 On ch=12 n=55 v=94
60698 On ch=12 n=63 v=96
60698 On ch=12 n=70 v=103
60722 On ch=12 n=63 v=0
60722 On ch=12 n=70 v=0
60722 On ch=12 n=63 v=81
60722 On ch=12 n=70 v=90
60746 On ch=12 n=63 v=0
60746 On ch=12 n=70 v=0
60747 On ch=12 n=63 v=80
60748 On ch=12 n=70 v=93
60770 On ch=12 n=63 v=0
60770 On ch=12 n=70 v=0
60770 On ch=12 n=63 v=77
60770 On ch=12 n=70 v=85
60792 On ch=12 n=55 v=0
60792 On ch=12 n=63 v=0
60792 On ch=12 n=70 v=0
60794 On ch=12 n=55 v=86
60794 On ch=12 n=63 v=95
60794 On ch=12 n=70 v=105
60834 Pb ch=12 v=7507
60836 Pb ch=12 v=6827
60838 On ch=12 n=55 v=0
60838 On ch=12 n=63 v=0
60838 On ch=12 n=70 v=0
60841 Pb ch=12 v=8192
60842 On ch=12 n=52 v=80
60842 On ch=12 n=60 v=90
60842 On ch=12 n=67 v=100
60887 On ch=12 n=67 v=0
60890 On ch=12 n=60 v=0
60890 On ch=12 n=55 v=100
60890 On ch=12 n=60 v=95
60890 On ch=12 n=67 v=110
60890 On ch=12 n=72 v=90
60938 On ch=12 n=52 v=0
60938 On ch=12 n=55 v=0
60938 On ch=12 n=60 v=0
60938 On ch=12 n=67 v=0
60938 On ch=12 n=60 v=80
60939 On ch=12 n=60 v=0
60939 On ch=12 n=67 v=88
60962 On ch=12 n=72 v=0
60962 On ch=12 n=67 v=0
60962 On ch=12 n=52 v=77
60962 On ch=12 n=60 v=90
60962 On ch=12 n=67 v=98
61010 On ch=12 n=60 v=0
61010 On ch=12 n=67 v=0
61010 On ch=12 n=60 v=88
61034 On ch=12 n=52 v=0
61034 On ch=12 n=60 v=0
61034 On ch=12 n=52 v=90
61034 On ch=12 n=60 v=90
61034 On ch=12 n=67 v=93
61079 On ch=12 n=52 v=0
61079 On ch=12 n=60 v=0
61079 On ch=12 n=67 v=0
61082 On ch=12 n=55 v=95
61082 On ch=12 n=52 v=88
61082 On ch=12 n=60 v=110
61082 On ch=12 n=67 v=125
61106 On ch=12 n=55 v=0
61106 On ch=12 n=52 v=0
61106 On ch=12 n=60 v=0
61106 On ch=12 n=67 v=0
61106 On ch=12 n=52 v=88
61106 On ch=12 n=60 v=88
61106 On ch=12 n=67 v=82
61130 On ch=12 n=52 v=0
61130 On ch=12 n=60 v=0
61130 On ch=12 n=67 v=0
61130 On ch=12 n=52 v=80
61130 On ch=12 n=60 v=81
61130 On ch=12 n=67 v=83
61154 On ch=12 n=52 v=0
61154 On ch=12 n=60 v=0
61154 On ch=12 n=67 v=0
61154 On ch=12 n=52 v=77
61154 On ch=12 n=60 v=80
61154 On ch=12 n=67 v=84
61178 On ch=12 n=52 v=0
61178 On ch=12 n=60 v=0
61178 On ch=12 n=67 v=0
61178 On ch=12 n=50 v=100
61178 On ch=12 n=59 v=120
61178 On ch=12 n=74 v=88
61223 On ch=12 n=50 v=0
61223 On ch=12 n=59 v=0
61223 On ch=12 n=74 v=0
61226 On ch=12 n=50 v=95
61226 On ch=12 n=59 v=100
61273 On ch=12 n=59 v=0
61274 On ch=12 n=59 v=127
61274 On ch=12 n=74 v=93
61296 On ch=12 n=50 v=0
61296 On ch=12 n=59 v=0
61296 On ch=12 n=74 v=0
61298 On ch=12 n=50 v=88
61298 On ch=12 n=59 v=84
61298 On ch=12 n=74 v=84
61320 On ch=12 n=59 v=0
61322 On ch=12 n=50 v=0
61322 On ch=12 n=50 v=105
61322 On ch=12 n=59 v=70
61323 On ch=12 n=59 v=0
61345 On ch=12 n=74 v=0
61346 On ch=12 n=50 v=0
61346 On ch=12 n=50 v=65
61346 On ch=12 n=59 v=88
61346 On ch=12 n=74 v=84
61370 On ch=12 n=50 v=0
61370 On ch=12 n=59 v=0
61370 On ch=12 n=74 v=0
61370 On ch=12 n=63 v=84
61370 On ch=12 n=70 v=90
61371 On ch=12 n=63 v=0
61372 On ch=12 n=70 v=0
61394 On ch=12 n=55 v=82
61394 On ch=12 n=63 v=80
61394 On ch=12 n=70 v=90
61418 On ch=12 n=63 v=0
61418 On ch=12 n=70 v=0
61418 On ch=12 n=63 v=82
61418 On ch=12 n=70 v=93
61463 On ch=12 n=55 v=0
61463 On ch=12 n=63 v=0
61463 On ch=12 n=70 v=0
61466 On ch=12 n=55 v=94
61466 On ch=12 n=63 v=96
61466 On ch=12 n=70 v=103
61490 On ch=12 n=63 v=0
61490 On ch=12 n=70 v=0
61490 On ch=12 n=63 v=81
61490 On ch=12 n=70 v=90
61514 On ch=12 n=63 v=0
61514 On ch=12 n=70 v=0
61515 On ch=12 n=63 v=80
61516 On ch=12 n=70 v=93
61538 On ch=12 n=63 v=0
61538 On ch=12 n=70 v=0
61538 On ch=12 n=63 v=77
61538 On ch=12 n=70 v=85
61560 On ch=12 n=55 v=0
61560 On ch=12 n=63 v=0
61560 On ch=12 n=70 v=0
61562 On ch=12 n=55 v=86
61562 On ch=12 n=63 v=95
61562 On ch=12 n=70 v=105
61602 Pb ch=12 v=7507
61604 Pb ch=12 v=6827
61606 On ch=12 n=55 v=0
61606 On ch=12 n=63 v=0
61606 On ch=12 n=70 v=0
61609 Pb ch=12 v=8192
61610 On ch=12 n=52 v=80
61610 On ch=12 n=60 v=90
61610 On ch=12 n=67 v=100
61655 On ch=12 n=67 v=0
61658 On ch=12 n=60 v=0
61658 On ch=12 n=55 v=100
61658 On ch=12 n=60 v=95
61658 On ch=12 n=67 v=110
61658 On ch=12 n=72 v=90
61706 On ch=12 n=52 v=0
61706 On ch=12 n=55 v=0
61706 On ch=12 n=60 v=0
61706 On ch=12 n=67 v=0
61706 On ch=12 n=60 v=80
61707 On ch=12 n=60 v=0
61707 On ch=12 n=67 v=88
61730 On ch=12 n=72 v=0
61730 On ch=12 n=67 v=0
61730 On ch=12 n=52 v=77
61730 On ch=12 n=60 v=90
61730 On ch=12 n=67 v=98
61778 On ch=12 n=60 v=0
61778 On ch=12 n=67 v=0
61778 On ch=12 n=60 v=88
61802 On ch=12 n=52 v=0
61802 On ch=12 n=60 v=0
61802 On ch=12 n=52 v=90
61802 On ch=12 n=60 v=90
61802 On ch=12 n=67 v=93
61847 On ch=12 n=52 v=0
61847 On ch=12 n=60 v=0
61847 On ch=12 n=67 v=0
61850 On ch=12 n=55 v=95
61850 On ch=12 n=52 v=88
61850 On ch=12 n=60 v=110
61850 On ch=12 n=67 v=125
61874 On ch=12 n=55 v=0
61874 On ch=12 n=52 v=0
61874 On ch=12 n=60 v=0
61874 On ch=12 n=67 v=0
61874 On ch=12 n=52 v=88
61874 On ch=12 n=60 v=88
61874 On ch=12 n=67 v=82
61898 On ch=12 n=52 v=0
61898 On ch=12 n=60 v=0
61898 On ch=12 n=67 v=0
61898 On ch=12 n=52 v=80
61898 On ch=12 n=60 v=81
61898 On ch=12 n=67 v=83
61922 On ch=12 n=52 v=0
61922 On ch=12 n=60 v=0
61922 On ch=12 n=67 v=0
61922 On ch=12 n=52 v=77
61922 On ch=12 n=60 v=80
61922 On ch=12 n=67 v=84
61946 On ch=12 n=52 v=0
61946 On ch=12 n=60 v=0
61946 On ch=12 n=67 v=0
61946 On ch=12 n=50 v=100
61946 On ch=12 n=59 v=120
61946 On ch=12 n=74 v=80
61991 On ch=12 n=50 v=0
61991 On ch=12 n=59 v=0
61991 On ch=12 n=74 v=0
61994 On ch=12 n=50 v=95
61994 On ch=12 n=59 v=100
62041 On ch=12 n=59 v=0
62042 On ch=12 n=59 v=127
62042 On ch=12 n=74 v=93
62064 On ch=12 n=50 v=0
62064 On ch=12 n=59 v=0
62064 On ch=12 n=74 v=0
62066 On ch=12 n=50 v=88
62066 On ch=12 n=59 v=84
62066 On ch=12 n=74 v=84
62088 On ch=12 n=59 v=0
62090 On ch=12 n=50 v=0
62090 On ch=12 n=50 v=105
62090 On ch=12 n=59 v=70
62091 On ch=12 n=59 v=0
62113 On ch=12 n=74 v=0
62114 On ch=12 n=50 v=0
62114 On ch=12 n=50 v=92
62114 On ch=12 n=59 v=100
62114 On ch=12 n=74 v=110
62138 On ch=12 n=50 v=0
62138 On ch=12 n=59 v=0
62138 On ch=12 n=74 v=0
62138 On ch=12 n=63 v=84
62138 On ch=12 n=70 v=90
62139 On ch=12 n=63 v=0
62140 On ch=12 n=70 v=0
62162 On ch=12 n=55 v=82
62162 On ch=12 n=63 v=80
62162 On ch=12 n=70 v=90
62186 On ch=12 n=63 v=0
62186 On ch=12 n=70 v=0
62186 On ch=12 n=63 v=82
62186 On ch=12 n=70 v=93
62231 On ch=12 n=55 v=0
62231 On ch=12 n=63 v=0
62231 On ch=12 n=70 v=0
62234 On ch=12 n=55 v=94
62234 On ch=12 n=63 v=96
62234 On ch=12 n=70 v=103
62258 On ch=12 n=63 v=0
62258 On ch=12 n=70 v=0
62258 On ch=12 n=63 v=81
62258 On ch=12 n=70 v=90
62282 On ch=12 n=63 v=0
62282 On ch=12 n=70 v=0
62283 On ch=12 n=63 v=80
62284 On ch=12 n=70 v=93
62306 On ch=12 n=63 v=0
62306 On ch=12 n=70 v=0
62306 On ch=12 n=63 v=77
62306 On ch=12 n=70 v=85
62328 On ch=12 n=55 v=0
62328 On ch=12 n=63 v=0
62328 On ch=12 n=70 v=0
62330 On ch=12 n=55 v=86
62330 On ch=12 n=63 v=95
62330 On ch=12 n=70 v=105
62370 Pb ch=12 v=7507
62372 Pb ch=12 v=6827
62374 On ch=12 n=55 v=0
62374 On ch=12 n=63 v=0
62374 On ch=12 n=70 v=0
62377 Pb ch=12 v=8192
62378 On ch=12 n=52 v=80
62378 On ch=12 n=60 v=90
62378 On ch=12 n=67 v=100
62423 On ch=12 n=67 v=0
62426 On ch=12 n=60 v=0
62426 On ch=12 n=55 v=100
62426 On ch=12 n=60 v=95
62426 On ch=12 n=67 v=110
62426 On ch=12 n=72 v=90
62474 On ch=12 n=52 v=0
62474 On ch=12 n=55 v=0
62474 On ch=12 n=60 v=0
62474 On ch=12 n=67 v=0
62474 On ch=12 n=60 v=80
62475 On ch=12 n=60 v=0
62475 On ch=12 n=67 v=88
62498 On ch=12 n=72 v=0
62498 On ch=12 n=67 v=0
62498 On ch=12 n=52 v=77
62498 On ch=12 n=60 v=90
62498 On ch=12 n=67 v=98
62546 On ch=12 n=60 v=0
62546 On ch=12 n=67 v=0
62546 On ch=12 n=60 v=88
62570 On ch=12 n=52 v=0
62570 On ch=12 n=60 v=0
62570 On ch=12 n=52 v=90
62570 On ch=12 n=60 v=90
62570 On ch=12 n=67 v=93
62615 On ch=12 n=52 v=0
62615 On ch=12 n=60 v=0
62615 On ch=12 n=67 v=0
62618 On ch=12 n=55 v=95
62618 On ch=12 n=52 v=88
62618 On ch=12 n=60 v=110
62618 On ch=12 n=67 v=125
62642 On ch=12 n=55 v=0
62642 On ch=12 n=52 v=0
62642 On ch=12 n=60 v=0
62642 On ch=12 n=67 v=0
62642 On ch=12 n=52 v=88
62642 On ch=12 n=60 v=88
62642 On ch=12 n=67 v=82
62666 On ch=12 n=52 v=0
62666 On ch=12 n=60 v=0
62666 On ch=12 n=67 v=0
62666 On ch=12 n=52 v=80
62666 On ch=12 n=60 v=81
62666 On ch=12 n=67 v=83
62690 On ch=12 n=52 v=0
62690 On ch=12 n=60 v=0
62690 On ch=12 n=67 v=0
62690 On ch=12 n=52 v=77
62690 On ch=12 n=60 v=80
62690 On ch=12 n=67 v=84
62714 On ch=12 n=52 v=0
62714 On ch=12 n=60 v=0
62714 On ch=12 n=67 v=0
62714 On ch=12 n=50 v=100
62714 On ch=12 n=59 v=120
62714 On ch=12 n=74 v=88
62759 On ch=12 n=50 v=0
62759 On ch=12 n=59 v=0
62759 On ch=12 n=74 v=0
62762 On ch=12 n=50 v=95
62762 On ch=12 n=59 v=100
62809 On ch=12 n=59 v=0
62810 On ch=12 n=59 v=127
62810 On ch=12 n=74 v=93
62832 On ch=12 n=50 v=0
62832 On ch=12 n=59 v=0
62832 On ch=12 n=74 v=0
62834 On ch=12 n=50 v=88
62834 On ch=12 n=59 v=84
62834 On ch=12 n=74 v=84
62856 On ch=12 n=59 v=0
62858 On ch=12 n=50 v=0
62858 On ch=12 n=50 v=105
62858 On ch=12 n=59 v=70
62859 On ch=12 n=59 v=0
62881 On ch=12 n=74 v=0
62882 On ch=12 n=50 v=0
62882 On ch=12 n=50 v=65
62882 On ch=12 n=59 v=88
62882 On ch=12 n=74 v=84
62906 On ch=12 n=50 v=0
62906 On ch=12 n=59 v=0
62906 On ch=12 n=74 v=0
62906 On ch=12 n=63 v=84
62906 On ch=12 n=70 v=90
62907 On ch=12 n=63 v=0
62908 On ch=12 n=70 v=0
62930 On ch=12 n=55 v=82
62930 On ch=12 n=63 v=80
62930 On ch=12 n=70 v=90
62954 On ch=12 n=63 v=0
62954 On ch=12 n=70 v=0
62954 On ch=12 n=63 v=82
62954 On ch=12 n=70 v=93
62999 On ch=12 n=55 v=0
62999 On ch=12 n=63 v=0
62999 On ch=12 n=70 v=0
63002 On ch=12 n=55 v=94
63002 On ch=12 n=63 v=96
63002 On ch=12 n=70 v=103
63026 On ch=12 n=63 v=0
63026 On ch=12 n=70 v=0
63026 On ch=12 n=63 v=81
63026 On ch=12 n=70 v=90
63050 On ch=12 n=63 v=0
63050 On ch=12 n=70 v=0
63051 On ch=12 n=63 v=80
63052 On ch=12 n=70 v=93
63074 On ch=12 n=63 v=0
63074 On ch=12 n=70 v=0
63074 On ch=12 n=63 v=77
63074 On ch=12 n=70 v=85
63096 On ch=12 n=55 v=0
63096 On ch=12 n=63 v=0
63096 On ch=12 n=70 v=0
63098 On ch=12 n=55 v=86
63098 On ch=12 n=63 v=95
63098 On ch=12 n=70 v=105
63138 Pb ch=12 v=7507
63140 Pb ch=12 v=6827
63142 On ch=12 n=55 v=0
63142 On ch=12 n=63 v=0
63142 On ch=12 n=70 v=0
63145 Pb ch=12 v=8192
63146 On ch=12 n=52 v=80
63146 On ch=12 n=60 v=90
63146 On ch=12 n=67 v=100
63191 On ch=12 n=67 v=0
63194 On ch=12 n=60 v=0
63194 On ch=12 n=55 v=100
63194 On ch=12 n=60 v=95
63194 On ch=12 n=67 v=110
63194 On ch=12 n=72 v=90
63242 On ch=12 n=52 v=0
63242 On ch=12 n=55 v=0
63242 On ch=12 n=60 v=0
63242 On ch=12 n=67 v=0
63242 On ch=12 n=60 v=80
63243 On ch=12 n=60 v=0
63243 On ch=12 n=67 v=88
63266 On ch=12 n=72 v=0
63266 On ch=12 n=67 v=0
63266 On ch=12 n=52 v=77
63266 On ch=12 n=60 v=90
63266 On ch=12 n=67 v=98
63314 On ch=12 n=60 v=0
63314 On ch=12 n=67 v=0
63314 On ch=12 n=60 v=88
63338 On ch=12 n=52 v=0
63338 On ch=12 n=60 v=0
63338 On ch=12 n=52 v=90
63338 On ch=12 n=60 v=90
63338 On ch=12 n=67 v=93
63383 On ch=12 n=52 v=0
63383 On ch=12 n=60 v=0
63383 On ch=12 n=67 v=0
63386 On ch=12 n=55 v=95
63386 On ch=12 n=52 v=88
63386 On ch=12 n=60 v=110
63386 On ch=12 n=67 v=125
63410 On ch=12 n=55 v=0
63410 On ch=12 n=52 v=0
63410 On ch=12 n=60 v=0
63410 On ch=12 n=67 v=0
63410 On ch=12 n=52 v=88
63410 On ch=12 n=60 v=88
63410 On ch=12 n=67 v=82
63434 On ch=12 n=52 v=0
63434 On ch=12 n=60 v=0
63434 On ch=12 n=67 v=0
63434 On ch=12 n=52 v=80
63434 On ch=12 n=60 v=81
63434 On ch=12 n=67 v=83
63458 On ch=12 n=52 v=0
63458 On ch=12 n=60 v=0
63458 On ch=12 n=67 v=0
63458 On ch=12 n=52 v=77
63458 On ch=12 n=60 v=80
63458 On ch=12 n=67 v=84
63482 On ch=12 n=52 v=0
63482 On ch=12 n=60 v=0
63482 On ch=12 n=67 v=0
63482 On ch=12 n=50 v=100
63482 On ch=12 n=59 v=120
63482 On ch=12 n=74 v=88
63527 On ch=12 n=50 v=0
63527 On ch=12 n=59 v=0
63527 On ch=12 n=74 v=0
63530 On ch=12 n=50 v=95
63530 On ch=12 n=59 v=100
63577 On ch=12 n=59 v=0
63578 On ch=12 n=59 v=127
63578 On ch=12 n=74 v=93
63600 On ch=12 n=50 v=0
63600 On ch=12 n=59 v=0
63600 On ch=12 n=74 v=0
63602 On ch=12 n=50 v=88
63602 On ch=12 n=59 v=84
63602 On ch=12 n=74 v=84
63624 On ch=12 n=59 v=0
63626 On ch=12 n=50 v=0
63626 On ch=12 n=50 v=105
63626 On ch=12 n=59 v=70
63627 On ch=12 n=59 v=0
63649 On ch=12 n=74 v=0
63650 On ch=12 n=50 v=0
63650 On ch=12 n=50 v=65
63650 On ch=12 n=59 v=88
63650 On ch=12 n=74 v=84
63674 On ch=12 n=50 v=0
63674 On ch=12 n=59 v=0
63674 On ch=12 n=74 v=0
63674 On ch=12 n=63 v=84
63674 On ch=12 n=70 v=90
63675 On ch=12 n=63 v=0
63676 On ch=12 n=70 v=0
63698 On ch=12 n=55 v=82
63698 On ch=12 n=63 v=80
63698 On ch=12 n=70 v=90
63722 On ch=12 n=63 v=0
63722 On ch=12 n=70 v=0
63722 On ch=12 n=63 v=82
63722 On ch=12 n=70 v=93
63767 On ch=12 n=55 v=0
63767 On ch=12 n=63 v=0
63767 On ch=12 n=70 v=0
63770 On ch=12 n=55 v=94
63770 On ch=12 n=63 v=96
63770 On ch=12 n=70 v=103
63794 On ch=12 n=63 v=0
63794 On ch=12 n=70 v=0
63794 On ch=12 n=63 v=81
63794 On ch=12 n=70 v=90
63818 On ch=12 n=63 v=0
63818 On ch=12 n=70 v=0
63819 On ch=12 n=63 v=80
63820 On ch=12 n=70 v=93
63842 On ch=12 n=63 v=0
63842 On ch=12 n=70 v=0
63842 On ch=12 n=63 v=77
63842 On ch=12 n=70 v=85
63864 On ch=12 n=55 v=0
63864 On ch=12 n=63 v=0
63864 On ch=12 n=70 v=0
63866 On ch=12 n=55 v=86
63866 On ch=12 n=63 v=95
63866 On ch=12 n=70 v=105
63906 Pb ch=12 v=7507
63908 Pb ch=12 v=6827
63910 On ch=12 n=55 v=0
63910 On ch=12 n=63 v=0
63910 On ch=12 n=70 v=0
63913 Pb ch=12 v=8192
63914 On ch=12 n=52 v=80
63914 On ch=12 n=60 v=90
63914 On ch=12 n=67 v=100
63959 On ch=12 n=67 v=0
63962 On ch=12 n=60 v=0
63962 On ch=12 n=55 v=100
63962 On ch=12 n=60 v=95
63962 On ch=12 n=72 v=90
64010 On ch=12 n=52 v=0
64010 On ch=12 n=55 v=0
64010 On ch=12 n=60 v=0
64010 On ch=12 n=60 v=80
64011 On ch=12 n=60 v=0
64011 On ch=12 n=67 v=88
64034 On ch=12 n=72 v=0
64034 On ch=12 n=67 v=0
64034 On ch=12 n=52 v=77
64034 On ch=12 n=67 v=98
64058 On ch=12 n=60 v=90
64082 On ch=12 n=67 v=0
64082 On ch=12 n=60 v=0
64082 On ch=12 n=60 v=88
64106 On ch=12 n=52 v=0
64106 On ch=12 n=60 v=0
64106 On ch=12 n=52 v=90
64106 On ch=12 n=60 v=90
64106 On ch=12 n=67 v=93
64151 On ch=12 n=52 v=0
64151 On ch=12 n=60 v=0
64151 On ch=12 n=67 v=0
64154 On ch=12 n=52 v=88
64154 On ch=12 n=60 v=110
64154 On ch=12 n=67 v=125
64178 On ch=12 n=52 v=0
64178 On ch=12 n=60 v=0
64178 On ch=12 n=67 v=0
64178 On ch=12 n=52 v=88
64178 On ch=12 n=60 v=88
64178 On ch=12 n=67 v=82
64202 On ch=12 n=52 v=0
64202 On ch=12 n=60 v=0
64202 On ch=12 n=67 v=0
64202 On ch=12 n=52 v=80
64202 On ch=12 n=67 v=83
64226 On ch=12 n=52 v=0
64226 On ch=12 n=67 v=0
64226 On ch=12 n=52 v=77
64226 On ch=12 n=67 v=84
64244 On ch=12 n=52 v=0
64244 On ch=12 n=67 v=0
64244 Par ch=12 c=10 v=127
64248 PrCh ch=12 p=30
64250 Par ch=12 c=7 v=110
64251 Par ch=12 c=11 v=127
64251 Pb ch=12 v=8192
64251 On ch=12 n=70 v=84
64259 Pb ch=12 v=8320
64260 Pb ch=12 v=8448
64263 Pb ch=12 v=8576
64266 Pb ch=12 v=8704
64272 Pb ch=12 v=8832
64296 On ch=12 n=70 v=0
64298 Pb ch=12 v=8192
64298 On ch=12 n=74 v=84
64342 On ch=12 n=74 v=0
64346 Pb ch=12 v=8192
64346 On ch=12 n=69 v=84
64346 Pb ch=12 v=8192
64349 Pb ch=12 v=8320
64352 Pb ch=12 v=8576
64353 Pb ch=12 v=8704
64354 Pb ch=12 v=8960
64355 Pb ch=12 v=9344
64356 Pb ch=12 v=9472
64357 Pb ch=12 v=9562
64363 Pb ch=12 v=9600
64369 Pb ch=12 v=9344
64370 Pb ch=12 v=9216
64371 Pb ch=12 v=9088
64372 Pb ch=12 v=8960
64373 Pb ch=12 v=8704
64374 Pb ch=12 v=8576
64375 Pb ch=12 v=8448
64383 Pb ch=12 v=8320
64391 On ch=12 n=69 v=0
64392 Pb ch=12 v=8192
64394 On ch=12 n=67 v=80
64416 On ch=12 n=67 v=0
64418 On ch=12 n=69 v=82
64439 On ch=12 n=69 v=0
64444 On ch=12 n=65 v=80
64460 Pb ch=12 v=9557
64476 Pb ch=12 v=8192
64492 On ch=12 n=65 v=0
64492 On ch=12 n=63 v=80
64634 On ch=12 n=63 v=0
64634 Par ch=12 c=93 v=16
64991 Par ch=12 c=11 v=127
65018 On ch=12 n=50 v=106
65114 On ch=12 n=50 v=0
65136 On ch=12 n=55 v=103
65159 On ch=12 n=55 v=0
65162 On ch=12 n=57 v=112
65180 On ch=12 n=57 v=0
65186 On ch=12 n=55 v=106
65206 On ch=12 n=55 v=0
65210 Pb ch=12 v=8704
65210 On ch=12 n=57 v=106
65212 Pb ch=12 v=8832
65213 Pb ch=12 v=8912
65230 Pb ch=12 v=8704
65231 Pb ch=12 v=8448
65233 Pb ch=12 v=8320
65238 Pb ch=12 v=8192
65256 On ch=12 n=57 v=0
65258 On ch=12 n=58 v=100
65280 On ch=12 n=58 v=0
65282 Pb ch=12 v=8704
65282 On ch=12 n=62 v=106
65284 Pb ch=12 v=8832
65285 Pb ch=12 v=8912
65302 Pb ch=12 v=8704
65303 Pb ch=12 v=8448
65305 Pb ch=12 v=8320
65310 Pb ch=12 v=8192
65328 On ch=12 n=62 v=0
65330 On ch=12 n=63 v=106
65340 Pb ch=12 v=10923
65350 On ch=12 n=63 v=0
65368 Pb ch=12 v=8192
65368 On ch=12 n=70 v=106
65390 Pb ch=12 v=8875
65394 Pb ch=12 v=9557
65402 Pb ch=12 v=9557
65416 On ch=12 n=70 v=0
65416 Pb ch=12 v=8192
65416 On ch=12 n=67 v=82
65437 On ch=12 n=67 v=0
65439 Pb ch=12 v=8192
65439 On ch=12 n=72 v=100
65451 Pb ch=12 v=8576
65452 Pb ch=12 v=8704
65454 Pb ch=12 v=8832
65455 Pb ch=12 v=8960
65456 Pb ch=12 v=9216
65457 Pb ch=12 v=9600
65461 Pb ch=12 v=9672
65486 Pb ch=12 v=9600
65488 Pb ch=12 v=9216
65490 On ch=12 n=72 v=0
65490 Pb ch=12 v=8192
65490 On ch=12 n=72 v=96
65506 On ch=12 n=72 v=0
65510 On ch=12 n=74 v=96
65522 Pb ch=12 v=8576
65523 Pb ch=12 v=8704
65525 Pb ch=12 v=8832
65526 Pb ch=12 v=8960
65527 Pb ch=12 v=9216
65528 Pb ch=12 v=9600
65532 Pb ch=12 v=9672
65557 On ch=12 n=74 v=0
65557 Pb ch=12 v=8192
65557 On ch=12 n=74 v=96
65573 On ch=12 n=74 v=0
65579 Pb ch=12 v=8192
65579 On ch=12 n=76 v=96
65593 Pb ch=12 v=8576
65594 Pb ch=12 v=8704
65595 Pb ch=12 v=8960
65596 Pb ch=12 v=9600
65597 Pb ch=12 v=9728
65598 Pb ch=12 v=9856
65601 Pb ch=12 v=9984
65602 Pb ch=12 v=10112
65606 Pb ch=12 v=10240
65639 On ch=12 n=76 v=0
65642 Pb ch=12 v=8192
65642 On ch=12 n=76 v=97
65653 Pb ch=12 v=10240
65664 Pb ch=12 v=8192
65676 On ch=12 n=76 v=0
65678 On ch=12 n=74 v=80
65688 On ch=12 n=74 v=0
65690 On ch=12 n=76 v=95
65713 On ch=12 n=76 v=0
65715 On ch=12 n=74 v=95
65737 Pb ch=12 v=7509
65741 Pb ch=12 v=6827
65760 On ch=12 n=74 v=0
65762 Pb ch=12 v=8192
65762 On ch=12 n=74 v=95
65784 On ch=12 n=74 v=0
65786 Par ch=12 c=11 v=80
65786 Pb ch=12 v=8192
65786 On ch=12 n=75 v=95
65795 Pb ch=12 v=8448
65797 Pb ch=12 v=8576
65798 Pb ch=12 v=8704
65801 Pb ch=12 v=8832
65810 On ch=12 n=75 v=0
65811 Pb ch=12 v=8192
65811 On ch=12 n=79 v=95
65856 On ch=12 n=79 v=0
65857 Pb ch=12 v=8192
65857 On ch=12 n=75 v=95
65863 Pb ch=12 v=8448
65864 Pb ch=12 v=8576
65866 Pb ch=12 v=8704
65868 Pb ch=12 v=8832
65879 Pb ch=12 v=8192
65879 On ch=12 n=79 v=95
65882 On ch=12 n=75 v=0
65925 On ch=12 n=79 v=0
65929 On ch=12 n=76 v=95
65951 On ch=12 n=76 v=0
65952 On ch=12 n=74 v=95
65974 On ch=12 n=74 v=0
65978 Pb ch=12 v=8448
65978 On ch=12 n=74 v=95
65979 Pb ch=12 v=8448
65981 Pb ch=12 v=8576
65983 Pb ch=12 v=8704
65985 Pb ch=12 v=8960
65988 Pb ch=12 v=9012
66001 Pb ch=12 v=8832
66004 Pb ch=12 v=8704
66023 On ch=12 n=74 v=0
66026 Pb ch=12 v=8960
66026 Pb ch=12 v=8448
66026 On ch=12 n=74 v=95
66027 Pb ch=12 v=8448
66029 Pb ch=12 v=8704
66031 Pb ch=12 v=8960
66033 Pb ch=12 v=9312
66038 Pb ch=12 v=9692
66041 Pb ch=12 v=9912
66042 Pb ch=12 v=9984
66043 Pb ch=12 v=9856
66046 Pb ch=12 v=9728
66047 Pb ch=12 v=9600
66049 Pb ch=12 v=9216
66051 Pb ch=12 v=9088
66052 Pb ch=12 v=8960
66053 Pb ch=12 v=8832
66055 Pb ch=12 v=8704
66064 Pb ch=12 v=8576
66071 On ch=12 n=74 v=0
66073 Pb ch=12 v=8192
66073 Pb ch=12 v=8448
66073 On ch=12 n=75 v=95
66073 Pb ch=12 v=8704
66075 Pb ch=12 v=8832
66077 Pb ch=12 v=8960
66078 Pb ch=12 v=9088
66098 Pb ch=12 v=8960
66103 Pb ch=12 v=8832
66106 Pb ch=12 v=8576
66118 On ch=12 n=75 v=0
66121 Pb ch=12 v=8320
66123 Pb ch=12 v=8192
66123 On ch=12 n=70 v=95
66170 On ch=12 n=70 v=0
66363 Par ch=12 c=11 v=127
66531 On ch=12 n=55 v=100
66556 On ch=12 n=55 v=0
66559 On ch=12 n=58 v=101
66569 Pb ch=12 v=8192
66579 Pb ch=12 v=8448
66589 Pb ch=12 v=8576
66591 Pb ch=12 v=8704
66594 Pb ch=12 v=8832
66596 Pb ch=12 v=8960
66600 Pb ch=12 v=9088
66603 Pb ch=12 v=8960
66605 Pb ch=12 v=8832
66606 On ch=12 n=58 v=0
66609 Pb ch=12 v=8192
66609 On ch=12 n=55 v=98
66631 On ch=12 n=55 v=0
66632 On ch=12 n=58 v=100
66660 Pb ch=12 v=8320
66667 Pb ch=12 v=8448
66669 Pb ch=12 v=8576
66673 Pb ch=12 v=8704
66677 On ch=12 n=58 v=0
66678 Pb ch=12 v=8832
66679 Pb ch=12 v=8192
66679 On ch=12 n=55 v=99
66699 On ch=12 n=55 v=0
66701 On ch=12 n=58 v=102
66734 Pb ch=12 v=8320
66739 Pb ch=12 v=8448
66743 Pb ch=12 v=8576
66746 Pb ch=12 v=8704
66747 Pb ch=12 v=8832
66748 On ch=12 n=58 v=0
66751 Pb ch=12 v=8192
66751 On ch=12 n=55 v=99
66772 On ch=12 n=55 v=0
66774 On ch=12 n=58 v=102
66804 Pb ch=12 v=8320
66811 Pb ch=12 v=8448
66815 Pb ch=12 v=8576
66818 Pb ch=12 v=8704
66820 On ch=12 n=58 v=0
66821 Pb ch=12 v=8832
66823 Pb ch=12 v=8192
66823 On ch=12 n=55 v=95
66843 On ch=12 n=55 v=0
66846 On ch=12 n=58 v=105
66863 On ch=12 n=58 v=0
66872 On ch=12 n=58 v=102
66887 On ch=12 n=58 v=0
66896 On ch=12 n=58 v=105
66908 Pb ch=12 v=8448
66911 Pb ch=12 v=8576
66912 Pb ch=12 v=8704
66917 Pb ch=12 v=8832
66921 On ch=12 n=58 v=0
66922 Pb ch=12 v=8192
66923 On ch=12 n=55 v=95
66942 On ch=12 n=55 v=0
66943 On ch=12 n=58 v=102
66961 On ch=12 n=58 v=0
66967 On ch=12 n=58 v=100
66985 On ch=12 n=58 v=0
66991 On ch=12 n=58 v=104
67000 Pb ch=12 v=8320
67004 Pb ch=12 v=8448
67008 Pb ch=12 v=8576
67013 On ch=12 n=58 v=0
67013 Pb ch=12 v=8704
67015 Pb ch=12 v=8192
67016 On ch=12 n=55 v=98
67036 On ch=12 n=55 v=0
67038 Pb ch=12 v=8192
67038 On ch=12 n=58 v=104
67058 Pb ch=12 v=8320
67062 Pb ch=12 v=8448
67064 Pb ch=12 v=8576
67065 Pb ch=12 v=8704
67067 Pb ch=12 v=8792
67069 Pb ch=12 v=8875
67073 Pb ch=12 v=8982
67076 Pb ch=12 v=8892
67079 Pb ch=12 v=8704
67082 Pb ch=12 v=8448
67084 Pb ch=12 v=8320
67085 On ch=12 n=58 v=0
67086 Pb ch=12 v=8192
67087 On ch=12 n=55 v=100
67109 On ch=12 n=55 v=0
67111 On ch=12 n=63 v=108
67135 Pb ch=12 v=8875
67157 On ch=12 n=63 v=0
67158 Pb ch=12 v=8192
67159 On ch=12 n=60 v=88
67181 On ch=12 n=60 v=0
67183 On ch=12 n=63 v=88
67207 Pb ch=12 v=8875
67228 On ch=12 n=63 v=0
67230 Pb ch=12 v=8192
67233 On ch=12 n=67 v=88
67253 Pb ch=12 v=8875
67257 Pb ch=12 v=9557
67278 On ch=12 n=67 v=0
67279 Pb ch=12 v=8192
67280 On ch=12 n=72 v=88
67302 On ch=12 n=72 v=0
67304 On ch=12 n=69 v=88
67324 On ch=12 n=69 v=0
67327 Par ch=12 c=11 v=80
67327 Pb ch=12 v=8192
67327 On ch=12 n=70 v=109
67330 Pb ch=12 v=8320
67335 Pb ch=12 v=8448
67337 Pb ch=12 v=8576
67338 Pb ch=12 v=8704
67372 On ch=12 n=70 v=0
67374 Pb ch=12 v=8192
67375 On ch=12 n=70 v=104
67378 Pb ch=12 v=8320
67382 Pb ch=12 v=8448
67399 Pb ch=12 v=8576
67446 Pb ch=12 v=8704
67467 On ch=12 n=70 v=0
67471 Pb ch=12 v=8192
67519 Pb ch=12 v=8192
67519 On ch=12 n=70 v=104
67552 Pb ch=12 v=8320
67556 Pb ch=12 v=8448
67559 On ch=12 n=70 v=0
67560 Pb ch=12 v=8576
67561 Pb ch=12 v=8704
67566 Pb ch=12 v=8192
67567 On ch=12 n=70 v=108
67585 Pb ch=12 v=8448
67592 Pb ch=12 v=8576
67604 Pb ch=12 v=8704
67608 Pb ch=12 v=8832
67610 Pb ch=12 v=8704
67613 On ch=12 n=70 v=0
67613 Pb ch=12 v=8576
67614 Pb ch=12 v=8192
67615 On ch=12 n=70 v=109
67639 On ch=12 n=70 v=0
67639 On ch=12 n=70 v=104
67661 On ch=12 n=70 v=0
67663 On ch=12 n=70 v=107
67685 On ch=12 n=70 v=0
67687 On ch=12 n=70 v=103
67709 On ch=12 n=70 v=0
67711 Pb ch=12 v=10240
67735 On ch=12 n=67 v=107
67736 Pb ch=12 v=10496
67739 Pb ch=12 v=10368
67747 Pb ch=12 v=10240
67752 Pb ch=12 v=10112
67753 Pb ch=12 v=9856
67757 Pb ch=12 v=9728
67758 On ch=12 n=67 v=0
67758 Pb ch=12 v=9984
67759 On ch=12 n=67 v=107
67760 Pb ch=12 v=10112
67762 Pb ch=12 v=10240
67768 Pb ch=12 v=10112
67772 Pb ch=12 v=9984
67774 Pb ch=12 v=9856
67776 Pb ch=12 v=9728
67777 Pb ch=12 v=9600
67778 Pb ch=12 v=9472
67779 Pb ch=12 v=9216
67780 Pb ch=12 v=9088
67782 On ch=12 n=67 v=0
67782 Pb ch=12 v=10240
67783 On ch=12 n=67 v=107
67784 Pb ch=12 v=10368
67791 Pb ch=12 v=10240
67792 Pb ch=12 v=10112
67796 Pb ch=12 v=9984
67797 Pb ch=12 v=9856
67800 Pb ch=12 v=9728
67801 Pb ch=12 v=9600
67802 Pb ch=12 v=9216
67803 Pb ch=12 v=8704
67804 Pb ch=12 v=8448
67805 On ch=12 n=67 v=0
67805 Pb ch=12 v=8448
67806 Pb ch=12 v=10240
67807 On ch=12 n=67 v=107
67809 Pb ch=12 v=10368
67820 Pb ch=12 v=10240
67827 Pb ch=12 v=10112
67828 Pb ch=12 v=9856
67830 Pb ch=12 v=9600
67831 Pb ch=12 v=9216
67832 Pb ch=12 v=8960
67833 Pb ch=12 v=8832
67834 Pb ch=12 v=8704
67836 Pb ch=12 v=8448
67841 Pb ch=12 v=8320
67847 Pb ch=12 v=8192
67852 On ch=12 n=67 v=0
67855 Pb ch=12 v=8192
67921 On ch=12 n=74 v=102
67923 Pb ch=12 v=8320
67926 Pb ch=12 v=8448
67929 Pb ch=12 v=8576
67932 Pb ch=12 v=8704
67935 Pb ch=12 v=8832
67942 On ch=12 n=74 v=0
67944 Pb ch=12 v=8192
67945 On ch=12 n=67 v=102
67963 On ch=12 n=67 v=0
67982 On ch=12 n=74 v=108
67985 Pb ch=12 v=8320
67987 Pb ch=12 v=8448
67993 Pb ch=12 v=8576
68001 Pb ch=12 v=8704
68011 Pb ch=12 v=8832
68023 On ch=12 n=74 v=0
68024 Pb ch=12 v=8192
68025 On ch=12 n=67 v=106
68045 On ch=12 n=67 v=0
68047 On ch=12 n=74 v=112
68051 Pb ch=12 v=8320
68057 Pb ch=12 v=8448
68058 Pb ch=12 v=8576
68059 Pb ch=12 v=8704
68060 Pb ch=12 v=8832
68069 On ch=12 n=74 v=0
68070 Pb ch=12 v=8576
68071 Pb ch=12 v=8192
68072 On ch=12 n=67 v=107
68093 On ch=12 n=67 v=0
68095 Par ch=12 c=11 v=127
68096 On ch=12 n=82 v=100
68109 Pb ch=12 v=8320
68113 Pb ch=12 v=8448
68122 Pb ch=12 v=8576
68138 On ch=12 n=82 v=0
68140 Pb ch=12 v=8192
68141 On ch=12 n=82 v=110
68147 Pb ch=12 v=8448
68153 Pb ch=12 v=8576
68154 Pb ch=12 v=8704
68158 Pb ch=12 v=8832
68172 Pb ch=12 v=8960
68183 Pb ch=12 v=8832
68184 Pb ch=12 v=8704
68185 Pb ch=12 v=8576
68186 Pb ch=12 v=8576
68187 On ch=12 n=82 v=0
68187 Pb ch=12 v=8448
68189 Pb ch=12 v=8192
68191 On ch=12 n=81 v=106
68206 Pb ch=12 v=6827
68222 Pb ch=12 v=5461
68237 On ch=12 n=81 v=0
68237 Pb ch=12 v=8192
68239 On ch=12 n=79 v=106
68261 On ch=12 n=79 v=0
68263 On ch=12 n=77 v=102
68272 Pb ch=12 v=8320
68281 Pb ch=12 v=8448
68285 Pb ch=12 v=8576
68286 Pb ch=12 v=8704
68288 Pb ch=12 v=8832
68302 Pb ch=12 v=8960
68305 Pb ch=12 v=8832
68309 On ch=12 n=77 v=0
68310 Pb ch=12 v=8192
68311 On ch=12 n=79 v=102
68329 On ch=12 n=79 v=0
68335 On ch=12 n=72 v=40
68342 Pb ch=12 v=8448
68343 Pb ch=12 v=8832
68344 Pb ch=12 v=9216
68345 Pb ch=12 v=9472
68357 On ch=12 n=72 v=0
68357 Pb ch=12 v=8192
68383 On ch=12 n=74 v=50
68383 On ch=12 n=77 v=102
68385 Pb ch=12 v=8875
68397 Pb ch=12 v=9557
68409 On ch=12 n=74 v=0
68409 On ch=12 n=77 v=0
68430 Pb ch=12 v=8192
68432 On ch=12 n=74 v=50
68432 On ch=12 n=77 v=103
68434 Pb ch=12 v=8875
68447 Pb ch=12 v=9557
68456 On ch=12 n=74 v=0
68456 On ch=12 n=77 v=0
68463 Pb ch=12 v=8192
68479 On ch=12 n=70 v=60
68479 On ch=12 n=75 v=103
68484 Pb ch=12 v=8448
68488 Pb ch=12 v=8576
68491 Pb ch=12 v=8704
68493 Pb ch=12 v=8832
68494 Pb ch=12 v=8960
68501 On ch=12 n=70 v=0
68501 On ch=12 n=75 v=0
68501 Pb ch=12 v=8832
68502 Pb ch=12 v=8192
68503 On ch=12 n=70 v=60
68503 On ch=12 n=75 v=100
68504 Pb ch=12 v=8320
68507 Pb ch=12 v=8448
68509 Pb ch=12 v=8576
68510 Pb ch=12 v=8704
68511 Pb ch=12 v=8832
68519 Pb ch=12 v=8960
68525 On ch=12 n=70 v=0
68525 On ch=12 n=75 v=0
68526 Pb ch=12 v=8448
68527 On ch=12 n=70 v=60
68527 On ch=12 n=75 v=101
68528 Pb ch=12 v=8576
68529 Pb ch=12 v=8704
68538 Pb ch=12 v=8832
68540 Pb ch=12 v=8960
68549 On ch=12 n=70 v=0
68549 On ch=12 n=75 v=0
68550 Pb ch=12 v=8192
68551 On ch=12 n=70 v=60
68551 On ch=12 n=75 v=102
68553 Pb ch=12 v=8448
68555 Pb ch=12 v=8576
68557 Pb ch=12 v=8704
68561 Pb ch=12 v=8832
68573 On ch=12 n=70 v=0
68573 On ch=12 n=75 v=0
68574 Pb ch=12 v=8448
68575 On ch=12 n=70 v=60
68575 On ch=12 n=75 v=103
68580 Pb ch=12 v=8576
68586 Pb ch=12 v=8704
68594 Pb ch=12 v=8832
68599 Pb ch=12 v=8875
68620 On ch=12 n=70 v=0
68620 On ch=12 n=75 v=0
68622 Pb ch=12 v=8192
68623 On ch=12 n=73 v=103
68626 On ch=12 n=73 v=0
68647 On ch=12 n=65 v=103
68667 Pb ch=12 v=8875
68675 Pb ch=12 v=9557
68693 On ch=12 n=65 v=0
68694 Pb ch=12 v=8192
68695 On ch=12 n=76 v=90
68717 On ch=12 n=76 v=0
68719 On ch=12 n=65 v=95
68741 On ch=12 n=65 v=0
68743 On ch=12 n=74 v=88
68765 On ch=12 n=74 v=0
68767 On ch=12 n=64 v=90
68767 On ch=12 n=72 v=80
68789 On ch=12 n=72 v=0
68791 On ch=12 n=72 v=60
68807 On ch=12 n=64 v=0
68813 On ch=12 n=72 v=0
68815 On ch=12 n=72 v=40
68837 On ch=12 n=72 v=0
69439 Par ch=12 c=7 v=110
69445 Par ch=12 c=11 v=90
69459 Par ch=12 c=7 v=109
69479 Par ch=12 c=7 v=108
69499 Par ch=12 c=7 v=107
69519 Par ch=12 c=7 v=106
69539 Par ch=12 c=7 v=105
69559 Par ch=12 c=7 v=104
69579 Par ch=12 c=7 v=103
69583 Pb ch=12 v=8192
69583 On ch=12 n=46 v=102
69593 Pb ch=12 v=8320
69597 Pb ch=12 v=8448
69599 Pb ch=12 v=8576
69599 Par ch=12 c=7 v=102
69603 Pb ch=12 v=8704
69619 Pb ch=12 v=8832
69619 Par ch=12 c=7 v=101
69628 On ch=12 n=46 v=0
69629 Par ch=12 c=11 v=127
69629 Pb ch=12 v=8192
69630 On ch=12 n=46 v=105
69635 Par ch=12 c=7 v=100
69646 Pb ch=12 v=8320
69647 Pb ch=12 v=8448
69651 Pb ch=12 v=8704
69654 Pb ch=12 v=8832
69655 Par ch=12 c=7 v=99
69675 On ch=12 n=46 v=0
69675 Par ch=12 c=7 v=98
69677 Pb ch=12 v=8192
69678 On ch=12 n=50 v=102
69695 Par ch=12 c=7 v=97
69702 On ch=12 n=50 v=0
69702 On ch=12 n=47 v=100
69715 Par ch=12 c=7 v=96
69724 On ch=12 n=47 v=0
69726 On ch=12 n=45 v=99
69735 Par ch=12 c=7 v=95
69748 On ch=12 n=45 v=0
69750 On ch=12 n=43 v=102
69755 Par ch=12 c=7 v=94
69772 On ch=12 n=43 v=0
69774 On ch=12 n=45 v=99
69775 Par ch=12 c=7 v=93
69795 Par ch=12 c=7 v=92
69796 On ch=12 n=45 v=0
69798 On ch=12 n=46 v=95
69815 Par ch=12 c=7 v=91
69820 On ch=12 n=46 v=0
69828 Par ch=12 c=11 v=90
69831 Par ch=12 c=7 v=90
69851 Par ch=12 c=7 v=89
69870 On ch=12 n=50 v=87
69871 Par ch=12 c=7 v=88
69880 Pb ch=12 v=8320
69882 Pb ch=12 v=8448
69885 Pb ch=12 v=8576
69887 Pb ch=12 v=8704
69890 Pb ch=12 v=8832
69891 Par ch=12 c=7 v=87
69911 Par ch=12 c=7 v=86
69916 On ch=12 n=50 v=0
69916 Pb ch=12 v=8192
69917 Par ch=12 c=11 v=127
69918 On ch=12 n=50 v=100
69931 Par ch=12 c=7 v=85
69937 Pb ch=12 v=8320
69939 Pb ch=12 v=8448
69941 Pb ch=12 v=8576
69942 Pb ch=12 v=8704
69943 Pb ch=12 v=8832
69951 Par ch=12 c=7 v=84
69963 On ch=12 n=50 v=0
69965 Pb ch=12 v=8192
69966 On ch=12 n=55 v=99
69971 Par ch=12 c=7 v=83
69988 On ch=12 n=55 v=0
69991 Par ch=12 c=7 v=82
70011 Par ch=12 c=7 v=81
70012 Par ch=12 c=11 v=90
70012 On ch=12 n=55 v=91
70027 Par ch=12 c=7 v=80
70036 Pb ch=12 v=8875
70038 Pb ch=12 v=9557
70047 Par ch=12 c=7 v=79
70057 On ch=12 n=55 v=0
70058 Pb ch=12 v=8192
70059 Par ch=12 c=11 v=100
70060 On ch=12 n=55 v=107
70067 Par ch=12 c=7 v=78
70068 Par ch=12 c=11 v=127
70078 Pb ch=12 v=8875
70082 Pb ch=12 v=9557
70087 Par ch=12 c=7 v=77
70106 On ch=12 n=55 v=0
70106 Pb ch=12 v=8192
70107 Par ch=12 c=7 v=76
70108 On ch=12 n=55 v=104
70120 On ch=12 n=55 v=0
70127 Par ch=12 c=7 v=75
70130 Par ch=12 c=11 v=90
70132 On ch=12 n=52 v=60
70144 On ch=12 n=52 v=0
70147 Par ch=12 c=7 v=74
70167 Par ch=12 c=7 v=73
70187 Par ch=12 c=7 v=72
70207 Par ch=12 c=7 v=71
70223 Par ch=12 c=7 v=70
70228 On ch=12 n=63 v=110
70237 Pb ch=12 v=8320
70239 Pb ch=12 v=8448
70243 Pb ch=12 v=8576
70243 Par ch=12 c=7 v=69
70248 Pb ch=12 v=8704
70253 Pb ch=12 v=8832
70263 Par ch=12 c=7 v=68
70274 On ch=12 n=63 v=0
70275 Pb ch=12 v=8192
70276 On ch=12 n=57 v=86
70283 Par ch=12 c=7 v=67
70298 On ch=12 n=57 v=0
70299 On ch=12 n=63 v=102
70303 Par ch=12 c=7 v=66
70311 Pb ch=12 v=7509
70323 On ch=12 n=63 v=0
70323 Pb ch=12 v=8192
70323 Par ch=12 c=7 v=65
70324 On ch=12 n=57 v=98
70343 Par ch=12 c=7 v=64
70346 On ch=12 n=57 v=0
70348 On ch=12 n=63 v=107
70360 Pb ch=12 v=7509
70363 Par ch=12 c=7 v=63
70370 On ch=12 n=63 v=0
70370 Par ch=12 c=11 v=127
70371 Pb ch=12 v=8192
70372 On ch=12 n=57 v=84
70383 Par ch=12 c=7 v=62
70394 On ch=12 n=57 v=0
70396 Pb ch=12 v=8576
70399 On ch=12 n=62 v=102
70399 Par ch=12 c=7 v=61
70407 Pb ch=12 v=8960
70410 Pb ch=12 v=9088
70412 Pb ch=12 v=9216
70416 Pb ch=12 v=9344
70419 Par ch=12 c=7 v=60
70439 Par ch=12 c=7 v=59
70446 Pb ch=12 v=9216
70449 Pb ch=12 v=9088
70450 Pb ch=12 v=8960
70451 Pb ch=12 v=8832
70452 Pb ch=12 v=8704
70453 Pb ch=12 v=8576
70454 Pb ch=12 v=8448
70456 Pb ch=12 v=8320
70457 Pb ch=12 v=8192
70459 Par ch=12 c=7 v=58
70479 Par ch=12 c=7 v=57
70489 On ch=12 n=62 v=0
70492 On ch=12 n=55 v=94
70499 Par ch=12 c=7 v=56
70519 Par ch=12 c=7 v=55
70537 On ch=12 n=55 v=0
70539 Pb ch=12 v=7492
70539 Par ch=12 c=7 v=54
70540 On ch=12 n=64 v=65
70548 Pb ch=12 v=8192
70558 Pb ch=12 v=8064
70559 Par ch=12 c=7 v=53
70560 Pb ch=12 v=8048
70561 On ch=12 n=64 v=0
70562 Pb ch=12 v=8192
70579 Par ch=12 c=7 v=52
70595 Par ch=12 c=7 v=51
70615 Par ch=12 c=7 v=50
70634 Par ch=12 c=11 v=90
70635 Par ch=12 c=7 v=49
70636 On ch=12 n=58 v=105
70644 Par ch=12 c=11 v=127
70655 Par ch=12 c=7 v=48
70658 On ch=12 n=58 v=0
70660 On ch=12 n=51 v=89
70675 Par ch=12 c=7 v=47
70695 Par ch=12 c=7 v=46
70710 On ch=12 n=51 v=0
70712 On ch=12 n=58 v=93
70715 Par ch=12 c=7 v=45
70735 Par ch=12 c=7 v=44
70755 Par ch=12 c=7 v=43
70757 On ch=12 n=58 v=0
70760 On ch=12 n=51 v=86
70775 Par ch=12 c=7 v=42
70778 On ch=12 n=51 v=0
70780 On ch=12 n=58 v=91
70791 Par ch=12 c=7 v=41
70799 On ch=12 n=58 v=0
70808 Pb ch=12 v=8352
70809 On ch=12 n=56 v=82
70811 Par ch=12 c=7 v=40
70826 On ch=12 n=56 v=0
70829 Pb ch=12 v=8192
70830 On ch=12 n=58 v=90
70831 Par ch=12 c=7 v=39
70848 Pb ch=12 v=6827
70851 Par ch=12 c=7 v=38
70859 Pb ch=12 v=8192
70867 Pb ch=12 v=6827
70871 Par ch=12 c=7 v=37
70877 Pb ch=12 v=8192
70878 On ch=12 n=58 v=0
70878 On ch=12 n=55 v=82
70891 Par ch=12 c=7 v=36
70911 Par ch=12 c=7 v=35
70931 Par ch=12 c=7 v=34
70947 On ch=12 n=55 v=0
70949 Pb ch=12 v=8032
70950 On ch=12 n=53 v=72
70951 Par ch=12 c=7 v=33
70971 Par ch=12 c=7 v=32
70987 Par ch=12 c=7 v=31
70994 On ch=12 n=53 v=0
70995 Pb ch=12 v=8192
70996 On ch=12 n=55 v=95
71007 Par ch=12 c=7 v=30
71018 On ch=12 n=55 v=0
71020 On ch=12 n=53 v=85
71027 Par ch=12 c=7 v=29
71042 On ch=12 n=53 v=0
71044 On ch=12 n=52 v=86
71047 Par ch=12 c=7 v=28
71066 On ch=12 n=52 v=0
71067 Par ch=12 c=7 v=27
71068 On ch=12 n=53 v=76
71087 Par ch=12 c=7 v=26
71090 On ch=12 n=53 v=0
71092 On ch=12 n=52 v=85
71107 Par ch=12 c=7 v=25
71114 On ch=12 n=52 v=0
71116 On ch=12 n=50 v=85
71127 Par ch=12 c=7 v=24
71138 On ch=12 n=50 v=0
71140 On ch=12 n=48 v=74
71147 Par ch=12 c=7 v=23
71162 On ch=12 n=48 v=0
71163 Par ch=12 c=7 v=22
71164 On ch=12 n=53 v=90
71186 Pb ch=12 v=8875
71189 Pb ch=12 v=9557
71209 On ch=12 n=53 v=0
71211 Pb ch=12 v=8192
71212 On ch=12 n=55 v=95
71234 On ch=12 n=55 v=0
71236 On ch=12 n=55 v=85
71258 On ch=12 n=55 v=0
71258 Par ch=12 c=7 v=18
71260 On ch=12 n=53 v=85
71282 On ch=12 n=53 v=0
71284 On ch=12 n=55 v=87
71305 On ch=12 n=55 v=0
71308 On ch=12 n=55 v=82
71331 On ch=12 n=55 v=0
71332 On ch=12 n=53 v=87
71354 On ch=12 n=53 v=0
71356 On ch=12 n=55 v=82
71377 On ch=12 n=55 v=0
71380 On ch=12 n=55 v=83
71402 On ch=12 n=55 v=0
71402 Meta TrkEnd
TrkEnd
MTrk
0 Meta 0x21 00
120 Par ch=13 c=10 v=65
120 Par ch=13 c=1 v=0
126 Par ch=13 c=91 v=127
126 Par ch=13 c=93 v=64
132 PrCh ch=13 p=120
138 Par ch=13 c=100 v=0
138 Par ch=13 c=101 v=0
138 Par ch=13 c=6 v=12
150 Par ch=13 c=98 v=32
150 Par ch=13 c=99 v=1
150 Par ch=13 c=6 v=96
156 Par ch=13 c=98 v=33
156 Par ch=13 c=99 v=1
156 Par ch=13 c=6 v=64
168 Par ch=13 c=7 v=80
168 Par ch=13 c=11 v=96
25968 Par ch=13 c=11 v=100
26300 On ch=13 n=66 v=110
26312 On ch=13 n=66 v=0
26784 PrCh ch=13 p=24
26784 Par ch=13 c=10 v=0
26784 Par ch=13 c=11 v=66
26880 On ch=13 n=68 v=80
26888 On ch=13 n=71 v=80
26894 On ch=13 n=76 v=90
27072 On ch=13 n=68 v=0
27072 On ch=13 n=71 v=0
27072 On ch=13 n=76 v=0
27072 On ch=13 n=69 v=80
27078 On ch=13 n=74 v=80
27082 On ch=13 n=76 v=90
27264 On ch=13 n=69 v=0
27264 On ch=13 n=74 v=0
27264 On ch=13 n=76 v=0
27264 On ch=13 n=67 v=90
27270 On ch=13 n=71 v=90
27274 On ch=13 n=76 v=90
27456 On ch=13 n=67 v=0
27456 On ch=13 n=71 v=0
27456 On ch=13 n=76 v=0
27456 PrCh ch=13 p=120
27456 Par ch=13 c=10 v=64
27456 Par ch=13 c=11 v=100
27624 On ch=13 n=64 v=127
27628 On ch=13 n=64 v=0
28320 PrCh ch=13 p=24
28320 Par ch=13 c=10 v=0
28320 Par ch=13 c=11 v=66
28416 On ch=13 n=59 v=80
28424 On ch=13 n=64 v=90
28432 On ch=13 n=47 v=77
28608 On ch=13 n=59 v=0
28608 On ch=13 n=64 v=0
28608 On ch=13 n=57 v=75
28610 On ch=13 n=47 v=0
28616 On ch=13 n=64 v=82
28624 On ch=13 n=47 v=70
28800 On ch=13 n=57 v=0
28800 PrCh ch=13 p=120
28800 Par ch=13 c=10 v=64
28800 Par ch=13 c=11 v=120
28802 On ch=13 n=64 v=0
28806 On ch=13 n=47 v=0
28968 On ch=13 n=64 v=127
28972 On ch=13 n=64 v=0
28987 PrCh ch=13 p=24
28988 Par ch=13 c=10 v=0
28990 Par ch=13 c=11 v=62
28992 On ch=13 n=76 v=78
29000 On ch=13 n=71 v=80
29006 On ch=13 n=62 v=72
29176 On ch=13 n=62 v=0
29182 On ch=13 n=76 v=0
29182 On ch=13 n=71 v=0
29184 On ch=13 n=76 v=82
29192 On ch=13 n=71 v=80
29374 On ch=13 n=76 v=0
29374 On ch=13 n=71 v=0
29568 On ch=13 n=56 v=110
29584 On ch=13 n=56 v=0
29616 On ch=13 n=52 v=88
29630 On ch=13 n=52 v=0
29664 On ch=13 n=56 v=110
29681 On ch=13 n=56 v=0
29736 On ch=13 n=56 v=127
29748 On ch=13 n=56 v=0
29760 On ch=13 n=54 v=64
29772 On ch=13 n=54 v=0
29784 On ch=13 n=59 v=100
29796 On ch=13 n=59 v=0
29832 On ch=13 n=59 v=82
29854 On ch=13 n=59 v=0
29880 On ch=13 n=59 v=80
29888 On ch=13 n=59 v=0
29892 On ch=13 n=59 v=110
29914 On ch=13 n=59 v=0
29916 On ch=13 n=59 v=96
29920 On ch=13 n=59 v=0
29928 On ch=13 n=59 v=106
29950 On ch=13 n=59 v=0
29952 On ch=13 n=55 v=82
29967 On ch=13 n=55 v=0
29976 On ch=13 n=59 v=100
29988 On ch=13 n=59 v=0
30000 On ch=13 n=55 v=89
30016 On ch=13 n=55 v=0
30024 On ch=13 n=59 v=102
30035 On ch=13 n=59 v=0
30048 On ch=13 n=55 v=87
30070 On ch=13 n=55 v=0
30072 On ch=13 n=55 v=78
30082 On ch=13 n=55 v=0
30084 On ch=13 n=59 v=105
30106 On ch=13 n=59 v=0
30108 On ch=13 n=55 v=85
30116 On ch=13 n=55 v=0
30120 On ch=13 n=55 v=100
30142 On ch=13 n=55 v=0
31008 PrCh ch=13 p=24
31008 Par ch=13 c=10 v=0
31008 Par ch=13 c=11 v=66
31104 On ch=13 n=59 v=80
31112 On ch=13 n=64 v=90
31120 On ch=13 n=47 v=77
31296 On ch=13 n=59 v=0
31296 On ch=13 n=64 v=0
31296 On ch=13 n=57 v=75
31298 On ch=13 n=47 v=0
31304 On ch=13 n=64 v=82
31312 On ch=13 n=47 v=70
31488 On ch=13 n=57 v=0
31488 On ch=13 n=59 v=80
31490 On ch=13 n=64 v=0
31494 On ch=13 n=47 v=0
31496 On ch=13 n=64 v=90
31504 On ch=13 n=47 v=77
31680 On ch=13 n=59 v=0
31680 On ch=13 n=64 v=0
31682 On ch=13 n=47 v=0
32064 On ch=13 n=45 v=82
32086 On ch=13 n=45 v=0
32088 On ch=13 n=45 v=116
32133 On ch=13 n=45 v=0
32136 On ch=13 n=45 v=119
32181 On ch=13 n=45 v=0
56184 Par ch=13 c=10 v=127
56376 Par ch=13 c=7 v=100
56568 Par ch=13 c=11 v=80
56760 PrCh ch=13 p=29
57192 On ch=13 n=43 v=127
57237 On ch=13 n=43 v=0
57240 On ch=13 n=48 v=127
57432 On ch=13 n=48 v=0
57528 PrCh ch=13 p=34
57528 Par ch=13 c=11 v=90
57720 On ch=13 n=48 v=100
57812 On ch=13 n=48 v=0
57816 On ch=13 n=43 v=95
57861 On ch=13 n=43 v=0
57864 On ch=13 n=36 v=102
57960 On ch=13 n=43 v=98
57961 On ch=13 n=36 v=0
58008 On ch=13 n=48 v=104
58009 On ch=13 n=43 v=0
58100 On ch=13 n=48 v=0
58296 On ch=13 n=34 v=100
58341 On ch=13 n=34 v=0
58344 On ch=13 n=41 v=102
58389 On ch=13 n=41 v=0
58392 On ch=13 n=46 v=110
58484 On ch=13 n=46 v=0
58488 On ch=13 n=46 v=110
58512 Pb ch=13 v=7509
58518 Pb ch=13 v=6827
58522 Pb ch=13 v=6144
58536 On ch=13 n=46 v=0
58540 Pb ch=13 v=8192
58540 On ch=13 n=43 v=105
58585 On ch=13 n=43 v=0
58588 On ch=13 n=31 v=100
58633 On ch=13 n=31 v=0
58636 On ch=13 n=31 v=95
58658 On ch=13 n=31 v=0
58660 On ch=13 n=31 v=96
58706 On ch=13 n=31 v=0
58708 On ch=13 n=31 v=80
58730 On ch=13 n=31 v=0
58732 On ch=13 n=43 v=102
58777 On ch=13 n=43 v=0
58780 On ch=13 n=43 v=90
58802 On ch=13 n=43 v=0
58804 On ch=13 n=43 v=95
58872 On ch=13 n=43 v=0
61756 Par ch=13 c=11 v=100
61948 Par ch=13 c=10 v=127
62140 PrCh ch=13 p=16
62524 On ch=13 n=96 v=100
62524 On ch=13 n=98 v=100
62714 On ch=13 n=96 v=0
62714 On ch=13 n=98 v=0
62908 Par ch=13 c=10 v=64
63100 PrCh ch=13 p=29
63292 Par ch=13 c=11 v=120
63484 Par ch=13 c=7 v=127
63868 On ch=13 n=48 v=100
63913 On ch=13 n=48 v=0
63916 Par ch=13 c=10 v=75
63916 On ch=13 n=55 v=110
63938 On ch=13 n=55 v=0
63940 Par ch=13 c=10 v=82
63940 On ch=13 n=60 v=127
63985 On ch=13 n=60 v=0
63988 Par ch=13 c=10 v=102
63988 On ch=13 n=55 v=120
64010 On ch=13 n=55 v=0
64012 Par ch=13 c=10 v=110
64012 On ch=13 n=48 v=110
64057 On ch=13 n=48 v=0
64060 Par ch=13 c=10 v=127
64060 On ch=13 n=55 v=112
64082 On ch=13 n=55 v=0
64084 On ch=13 n=60 v=127
64129 On ch=13 n=60 v=0
64132 On ch=13 n=55 v=110
64154 On ch=13 n=55 v=0
64156 On ch=13 n=60 v=120
64201 On ch=13 n=60 v=0
64204 On ch=13 n=55 v=110
64232 Pb ch=13 v=7509
64238 Pb ch=13 v=6827
64242 Pb ch=13 v=6144
64245 Pb ch=13 v=5821
64247 Pb ch=13 v=4779
64249 Par ch=13 c=10 v=0
64249 Pb ch=13 v=4096
64252 On ch=13 n=55 v=0
64252 PrCh ch=13 p=29
64252 Par ch=13 c=10 v=0
64252 Par ch=13 c=7 v=127
64252 Par ch=13 c=11 v=100
64252 On ch=13 n=69 v=102
64260 Pb ch=13 v=8448
64261 Pb ch=13 v=8576
64262 Pb ch=13 v=8704
64264 Pb ch=13 v=8832
64265 Pb ch=13 v=8960
64267 Pb ch=13 v=9088
64270 Pb ch=13 v=9216
64273 Pb ch=13 v=9344
64279 Pb ch=13 v=9472
64297 On ch=13 n=69 v=0
64300 Pb ch=13 v=8192
64300 On ch=13 n=74 v=109
64345 On ch=13 n=74 v=0
64348 Pb ch=13 v=8192
64348 On ch=13 n=69 v=100
64350 Pb ch=13 v=8320
64354 Pb ch=13 v=8576
64356 Pb ch=13 v=8704
64357 Pb ch=13 v=8960
64358 Pb ch=13 v=9088
64359 Pb ch=13 v=9216
64360 Pb ch=13 v=9600
64369 Pb ch=13 v=9636
64370 Pb ch=13 v=9600
64371 Pb ch=13 v=9344
64372 Pb ch=13 v=8960
64374 Pb ch=13 v=8704
64377 Pb ch=13 v=8576
64378 Pb ch=13 v=8448
64389 Pb ch=13 v=8192
64393 On ch=13 n=69 v=0
64396 On ch=13 n=67 v=90
64418 On ch=13 n=67 v=0
64420 On ch=13 n=69 v=92
64442 On ch=13 n=69 v=0
64447 On ch=13 n=66 v=112
64458 Pb ch=13 v=8875
64469 Pb ch=13 v=8192
64481 Pb ch=13 v=7509
64492 On ch=13 n=66 v=0
64492 Pb ch=13 v=8192
64492 On ch=13 n=67 v=92
64499 On ch=13 n=63 v=102
64502 On ch=13 n=67 v=0
64587 On ch=13 n=63 v=0
64591 On ch=13 n=65 v=117
64613 On ch=13 n=65 v=0
64615 On ch=13 n=63 v=110
64635 On ch=13 n=63 v=0
64636 Pb ch=13 v=7509
64636 On ch=13 n=67 v=110
64660 Pb ch=13 v=8192
64681 On ch=13 n=67 v=0
64684 On ch=13 n=64 v=106
64706 On ch=13 n=64 v=0
64732 On ch=13 n=64 v=104
64754 Pb ch=13 v=7509
64758 Pb ch=13 v=6827
64779 On ch=13 n=64 v=0
64780 Pb ch=13 v=8192
64780 On ch=13 n=60 v=102
64802 Pb ch=13 v=6144
64826 On ch=13 n=60 v=0
64828 Pb ch=13 v=9557
64828 On ch=13 n=60 v=107
64838 Pb ch=13 v=8192
64850 On ch=13 n=60 v=0
64850 On ch=13 n=57 v=102
64874 On ch=13 n=57 v=0
64876 Pb ch=13 v=9692
64876 On ch=13 n=60 v=99
64887 Pb ch=13 v=8192
64899 On ch=13 n=60 v=0
64899 On ch=13 n=57 v=97
64922 On ch=13 n=57 v=0
64924 Pb ch=13 v=8312
64924 On ch=13 n=60 v=102
64946 On ch=13 n=60 v=0
64948 Pb ch=13 v=8192
64948 On ch=13 n=57 v=100
64967 On ch=13 n=57 v=0
64972 Pb ch=13 v=8192
64972 On ch=13 n=55 v=96
64981 Pb ch=13 v=8320
64982 Pb ch=13 v=8704
64983 Pb ch=13 v=9632
64989 Pb ch=13 v=9600
64990 Pb ch=13 v=9088
64991 Pb ch=13 v=8704
64992 Pb ch=13 v=8320
65004 On ch=13 n=55 v=0
65004 Pb ch=13 v=8192
65004 On ch=13 n=52 v=92
65065 On ch=13 n=52 v=0
65720 On ch=13 n=64 v=96
65739 On ch=13 n=64 v=0
65740 Pb ch=13 v=8192
65741 Par ch=13 c=11 v=80
65742 On ch=13 n=67 v=102
65743 Pb ch=13 v=8192
65753 Pb ch=13 v=8448
65760 Pb ch=13 v=8576
65761 Pb ch=13 v=8704
65763 Pb ch=13 v=8832
65764 Pb ch=13 v=8960
65766 Pb ch=13 v=9088
65767 Pb ch=13 v=9216
65769 Pb ch=13 v=9472
65770 Pb ch=13 v=9600
65772 Pb ch=13 v=9728
65774 Pb ch=13 v=9856
65775 Pb ch=13 v=9984
65777 Pb ch=13 v=10112
65779 Par ch=13 c=11 v=102
65781 Pb ch=13 v=10240
65783 Pb ch=13 v=10368
65788 Pb ch=13 v=10368
65793 Pb ch=13 v=10496
65799 Pb ch=13 v=10624
65807 Pb ch=13 v=10842
65832 Pb ch=13 v=10752
65834 On ch=13 n=67 v=0
65836 Pb ch=13 v=10880
65837 Pb ch=13 v=8192
65837 On ch=13 n=74 v=90
65872 On ch=13 n=74 v=0
65884 On ch=13 n=69 v=110
65887 Pb ch=13 v=9557
65909 Pb ch=13 v=8192
65932 On ch=13 n=69 v=0
65932 On ch=13 n=67 v=100
65954 On ch=13 n=67 v=0
65956 On ch=13 n=69 v=101
65978 On ch=13 n=69 v=0
65980 Pb ch=13 v=8192
65983 On ch=13 n=70 v=101
66007 Pb ch=13 v=7509
66028 On ch=13 n=70 v=0
66029 Pb ch=13 v=8192
66029 On ch=13 n=70 v=90
66046 On ch=13 n=70 v=0
66053 On ch=13 n=75 v=100
66068 Pb ch=13 v=8875
66073 Pb ch=13 v=9557
66119 On ch=13 n=75 v=0
66123 Pb ch=13 v=8192
66125 On ch=13 n=75 v=98
66145 On ch=13 n=75 v=0
66147 On ch=13 n=77 v=100
66170 On ch=13 n=77 v=0
66172 On ch=13 n=77 v=100
66190 Pb ch=13 v=8875
66193 Pb ch=13 v=9557
66217 On ch=13 n=77 v=0
66220 Pb ch=13 v=8192
66220 On ch=13 n=76 v=98
66233 Pb ch=13 v=10240
66246 Pb ch=13 v=8192
66267 On ch=13 n=76 v=0
66268 Pb ch=13 v=7509
66270 On ch=13 n=76 v=98
66275 Pb ch=13 v=8192
66315 On ch=13 n=79 v=90
66317 On ch=13 n=76 v=0
66335 On ch=13 n=79 v=0
66338 Pb ch=13 v=8192
66338 On ch=13 n=74 v=95
66343 Pb ch=13 v=8192
66346 Pb ch=13 v=8448
66349 Pb ch=13 v=8576
66351 Pb ch=13 v=8704
66353 Pb ch=13 v=8832
66358 Pb ch=13 v=8704
66359 Pb ch=13 v=8448
66360 Pb ch=13 v=8320
66361 Pb ch=13 v=8192
66365 Pb ch=13 v=8320
66367 Pb ch=13 v=8448
66368 Pb ch=13 v=8576
66370 Pb ch=13 v=8704
66374 Pb ch=13 v=8832
66381 Pb ch=13 v=8960
66385 Pb ch=13 v=8832
66390 Pb ch=13 v=8960
66392 Pb ch=13 v=8832
66406 On ch=13 n=74 v=0
66408 Pb ch=13 v=8192
66408 On ch=13 n=72 v=80
66411 On ch=13 n=72 v=0
66412 On ch=13 n=69 v=96
66434 On ch=13 n=69 v=0
66436 On ch=13 n=67 v=90
66481 On ch=13 n=67 v=0
66484 On ch=13 n=67 v=94
66506 On ch=13 n=67 v=0
66508 On ch=13 n=69 v=96
66525 On ch=13 n=69 v=0
66530 On ch=13 n=67 v=93
66554 On ch=13 n=67 v=0
67222 Par ch=13 c=11 v=65
67262 Pb ch=13 v=9557
67269 On ch=13 n=79 v=82
67284 Par ch=13 c=11 v=85
67285 Pb ch=13 v=8192
67295 On ch=13 n=79 v=0
67297 On ch=13 n=76 v=95
67317 On ch=13 n=76 v=0
67324 On ch=13 n=82 v=95
67324 Pb ch=13 v=8320
67329 Pb ch=13 v=8448
67333 Pb ch=13 v=8576
67334 Pb ch=13 v=8704
67344 Par ch=13 c=11 v=102
67345 Pb ch=13 v=8832
67357 Pb ch=13 v=8960
67365 Pb ch=13 v=9088
67372 Pb ch=13 v=8960
67379 Pb ch=13 v=8832
67384 Pb ch=13 v=8704
67386 Pb ch=13 v=8448
67387 Pb ch=13 v=8192
67388 On ch=13 n=82 v=0
67418 Pb ch=13 v=8992
67420 On ch=13 n=81 v=108
67422 Pb ch=13 v=9216
67424 Pb ch=13 v=9472
67428 Pb ch=13 v=9612
67434 Pb ch=13 v=9552
67439 Pb ch=13 v=9216
67443 Pb ch=13 v=8992
67445 Pb ch=13 v=8875
67447 Pb ch=13 v=8704
67449 Pb ch=13 v=8448
67450 Pb ch=13 v=8192
67465 On ch=13 n=81 v=0
67470 On ch=13 n=79 v=102
67492 On ch=13 n=79 v=0
67494 On ch=13 n=77 v=100
67514 On ch=13 n=77 v=0
67516 On ch=13 n=79 v=104
67537 On ch=13 n=79 v=0
67537 Pb ch=13 v=10240
67538 On ch=13 n=79 v=88
67551 Pb ch=13 v=8192
67561 On ch=13 n=79 v=0
67563 On ch=13 n=77 v=100
67586 On ch=13 n=77 v=0
67588 On ch=13 n=79 v=102
67635 On ch=13 n=79 v=0
67638 On ch=13 n=77 v=98
67658 On ch=13 n=77 v=0
67660 On ch=13 n=75 v=95
67684 On ch=13 n=75 v=0
67686 On ch=13 n=77 v=97
67706 On ch=13 n=77 v=0
67708 Pb ch=13 v=8192
67710 On ch=13 n=74 v=95
67729 Pb ch=13 v=8875
67730 On ch=13 n=74 v=0
67730 On ch=13 n=74 v=98
67744 Pb ch=13 v=8192
67754 On ch=13 n=74 v=0
67756 On ch=13 n=72 v=97
67778 On ch=13 n=72 v=0
67780 On ch=13 n=74 v=102
67828 On ch=13 n=74 v=0
67830 On ch=13 n=72 v=99
67850 On ch=13 n=72 v=0
67852 On ch=13 n=70 v=97
67860 Pb ch=13 v=9557
67868 Pb ch=13 v=8192
67877 On ch=13 n=70 v=0
67878 On ch=13 n=67 v=90
67900 On ch=13 n=67 v=0
67900 Pb ch=13 v=8192
67902 On ch=13 n=70 v=104
67912 Pb ch=13 v=8320
67913 Pb ch=13 v=8448
67921 Pb ch=13 v=8576
67924 On ch=13 n=70 v=0
67924 Pb ch=13 v=8448
67925 Pb ch=13 v=8192
67926 On ch=13 n=67 v=97
67966 On ch=13 n=67 v=0
67972 On ch=13 n=69 v=102
67976 Pb ch=13 v=8320
67979 Pb ch=13 v=8448
67983 Pb ch=13 v=8576
67985 Pb ch=13 v=8704
67989 Pb ch=13 v=8832
67995 Pb ch=13 v=8912
67997 Pb ch=13 v=8960
68001 Pb ch=13 v=9088
68005 Pb ch=13 v=9172
68008 Pb ch=13 v=9272
68010 Pb ch=13 v=9312
68013 Pb ch=13 v=9472
68018 Pb ch=13 v=9216
68020 On ch=13 n=69 v=0
68020 Pb ch=13 v=9072
68021 Pb ch=13 v=8704
68022 Pb ch=13 v=8192
68022 On ch=13 n=67 v=94
68042 On ch=13 n=67 v=0
68044 On ch=13 n=69 v=101
68044 Pb ch=13 v=8576
68045 Pb ch=13 v=8704
68046 Pb ch=13 v=8832
68051 Pb ch=13 v=8892
68061 Pb ch=13 v=8932
68065 Pb ch=13 v=9052
68067 Pb ch=13 v=9152
68071 Pb ch=13 v=9312
68076 Pb ch=13 v=9372
68087 Pb ch=13 v=9216
68089 Pb ch=13 v=8912
68090 Pb ch=13 v=8832
68091 Pb ch=13 v=8704
68092 On ch=13 n=69 v=0
68092 Pb ch=13 v=8192
68093 Par ch=13 c=11 v=65
68094 On ch=13 n=67 v=95
68115 On ch=13 n=67 v=0
68116 Par ch=13 c=11 v=80
68324 Par ch=13 c=10 v=127
68326 Par ch=13 c=11 v=127
68476 Pb ch=13 v=8192
68477 On ch=13 n=79 v=70
68499 On ch=13 n=79 v=0
68500 On ch=13 n=79 v=60
68522 On ch=13 n=79 v=0
68548 On ch=13 n=79 v=80
68570 On ch=13 n=79 v=0
68573 On ch=13 n=79 v=85
68618 On ch=13 n=79 v=0
68718 Par ch=13 c=11 v=80
68720 Par ch=13 c=10 v=0
68788 On ch=13 n=70 v=99
68805 On ch=13 n=70 v=0
68812 On ch=13 n=70 v=102
68823 Pb ch=13 v=8320
68826 Pb ch=13 v=8448
68828 Pb ch=13 v=8576
68829 Pb ch=13 v=8704
68830 Pb ch=13 v=8832
68831 Pb ch=13 v=8960
68834 Pb ch=13 v=8832
68836 On ch=13 n=70 v=0
68837 Pb ch=13 v=8192
68838 On ch=13 n=67 v=100
68855 On ch=13 n=67 v=0
68860 On ch=13 n=73 v=105
68869 Pb ch=13 v=8320
68878 Pb ch=13 v=8448
68881 Pb ch=13 v=8576
68882 Pb ch=13 v=8704
68889 Pb ch=13 v=8832
68905 On ch=13 n=73 v=0
68907 Pb ch=13 v=8192
68908 On ch=13 n=81 v=100
68910 On ch=13 n=81 v=0
68954 On ch=13 n=67 v=60
68954 On ch=13 n=74 v=94
68974 On ch=13 n=67 v=0
69001 On ch=13 n=74 v=0
69003 On ch=13 n=79 v=97
69025 On ch=13 n=79 v=0
69027 On ch=13 n=73 v=102
69043 Pb ch=13 v=8320
69046 Pb ch=13 v=8448
69051 Pb ch=13 v=8576
69053 Pb ch=13 v=8704
69058 Pb ch=13 v=8832
69074 On ch=13 n=73 v=0
69075 Pb ch=13 v=8192
69076 On ch=13 n=79 v=88
69098 On ch=13 n=79 v=0
69100 On ch=13 n=73 v=107
69122 Pb ch=13 v=8320
69123 Pb ch=13 v=8448
69125 Pb ch=13 v=8576
69128 Pb ch=13 v=8704
69130 Pb ch=13 v=8832
69145 On ch=13 n=73 v=0
69147 Pb ch=13 v=8192
69148 On ch=13 n=79 v=103
69172 On ch=13 n=79 v=0
69172 On ch=13 n=77 v=102
69192 Pb ch=13 v=8448
69195 Pb ch=13 v=8576
69196 Pb ch=13 v=8704
69201 Pb ch=13 v=8832
69219 On ch=13 n=77 v=0
69219 Pb ch=13 v=8192
69220 On ch=13 n=79 v=106
69243 On ch=13 n=79 v=0
69244 On ch=13 n=75 v=100
69256 Pb ch=13 v=8912
69269 Pb ch=13 v=8320
69281 Pb ch=13 v=7492
69289 On ch=13 n=75 v=0
69291 Pb ch=13 v=8192
69292 On ch=13 n=75 v=92
69305 Pb ch=13 v=7509
69315 Pb ch=13 v=6144
69337 On ch=13 n=75 v=0
69339 Pb ch=13 v=8192
69340 On ch=13 n=74 v=99
69353 Pb ch=13 v=6827
69380 On ch=13 n=74 v=0
69384 Pb ch=13 v=8192
69386 On ch=13 n=74 v=102
69436 Par ch=13 c=7 v=127
69438 On ch=13 n=74 v=0
69456 Par ch=13 c=7 v=126
69460 On ch=13 n=72 v=105
69472 Par ch=13 c=7 v=125
69480 On ch=13 n=72 v=0
69484 On ch=13 n=70 v=80
69488 Par ch=13 c=7 v=124
69501 On ch=13 n=70 v=0
69504 Par ch=13 c=7 v=123
69508 On ch=13 n=62 v=60
69508 On ch=13 n=67 v=101
69524 Par ch=13 c=7 v=122
69531 On ch=13 n=62 v=0
69531 On ch=13 n=67 v=0
69532 On ch=13 n=62 v=59
69532 On ch=13 n=67 v=100
69540 Par ch=13 c=7 v=121
69541 Pb ch=13 v=8448
69542 Pb ch=13 v=8704
69543 Pb ch=13 v=8960
69544 Pb ch=13 v=9088
69545 Pb ch=13 v=9216
69546 Pb ch=13 v=9344
69554 Pb ch=13 v=9472
69555 On ch=13 n=62 v=0
69555 On ch=13 n=67 v=0
69555 Pb ch=13 v=8192
69556 On ch=13 n=67 v=95
69556 Par ch=13 c=7 v=120
69572 Par ch=13 c=7 v=119
69578 On ch=13 n=67 v=0
69580 On ch=13 n=64 v=85
69592 Par ch=13 c=7 v=118
69602 On ch=13 n=64 v=0
69604 On ch=13 n=62 v=82
69608 Par ch=13 c=7 v=117
69624 Par ch=13 c=7 v=116
69626 On ch=13 n=62 v=0
69640 Par ch=13 c=7 v=115
69660 Par ch=13 c=7 v=114
69676 Par ch=13 c=7 v=113
69692 Par ch=13 c=7 v=112
69708 Par ch=13 c=7 v=111
69724 Par ch=13 c=7 v=110
69744 Par ch=13 c=7 v=109
69760 Par ch=13 c=7 v=108
69776 Par ch=13 c=7 v=107
69792 Par ch=13 c=7 v=106
69812 Par ch=13 c=7 v=105
69820 On ch=13 n=79 v=105
69828 Par ch=13 c=7 v=104
69842 On ch=13 n=79 v=0
69844 On ch=13 n=70 v=95
69844 Par ch=13 c=7 v=103
69852 Pb ch=13 v=7509
69860 Pb ch=13 v=6827
69860 Par ch=13 c=7 v=102
69868 Pb ch=13 v=6144
69876 Pb ch=13 v=5461
69880 Par ch=13 c=7 v=101
69883 Pb ch=13 v=6092
69896 Par ch=13 c=7 v=100
69906 On ch=13 n=70 v=0
69912 Par ch=13 c=7 v=99
69915 Pb ch=13 v=8192
69928 Par ch=13 c=7 v=98
69944 Par ch=13 c=7 v=97
69964 Par ch=13 c=7 v=96
69980 Par ch=13 c=7 v=95
69996 Par ch=13 c=7 v=94
70012 Pb ch=13 v=9792
70012 Par ch=13 c=7 v=93
70014 On ch=13 n=64 v=110
70024 Pb ch=13 v=8192
70032 Par ch=13 c=7 v=92
70036 Pb ch=13 v=7509
70048 Par ch=13 c=7 v=91
70058 On ch=13 n=64 v=0
70058 Pb ch=13 v=8192
70059 On ch=13 n=64 v=100
70064 Par ch=13 c=7 v=90
70069 On ch=13 n=64 v=0
70080 Par ch=13 c=7 v=89
70100 Par ch=13 c=7 v=88
70116 Par ch=13 c=7 v=87
70132 Par ch=13 c=7 v=86
70148 Par ch=13 c=7 v=85
70156 On ch=13 n=58 v=102
70168 Par ch=13 c=7 v=84
70178 On ch=13 n=58 v=0
70180 On ch=13 n=55 v=99
70184 Par ch=13 c=7 v=83
70200 Par ch=13 c=7 v=82
70216 Par ch=13 c=7 v=81
70232 Par ch=13 c=7 v=80
70249 On ch=13 n=55 v=0
70252 On ch=13 n=54 v=93
70252 Par ch=13 c=7 v=79
70260 Pb ch=13 v=7509
70268 Pb ch=13 v=6827
70268 Par ch=13 c=7 v=78
70277 On ch=13 n=54 v=0
70277 Pb ch=13 v=8192
70278 On ch=13 n=50 v=92
70284 Par ch=13 c=7 v=77
70298 On ch=13 n=50 v=0
70300 On ch=13 n=53 v=94
70300 Par ch=13 c=7 v=76
70320 Par ch=13 c=7 v=75
70322 On ch=13 n=53 v=0
70324 On ch=13 n=52 v=88
70336 Par ch=13 c=7 v=74
70346 On ch=13 n=52 v=0
70348 On ch=13 n=48 v=90
70352 Par ch=13 c=7 v=73
70368 Par ch=13 c=7 v=72
70370 On ch=13 n=48 v=0
70388 Par ch=13 c=7 v=71
70404 Par ch=13 c=7 v=70
70420 Par ch=13 c=7 v=69
70436 Par ch=13 c=7 v=68
70452 Par ch=13 c=7 v=67
70472 Par ch=13 c=7 v=66
70488 Par ch=13 c=7 v=65
70504 Par ch=13 c=7 v=64
70520 Par ch=13 c=7 v=63
70540 On ch=13 n=50 v=78
70540 Par ch=13 c=7 v=62
70556 Par ch=13 c=7 v=61
70560 On ch=13 n=50 v=0
70564 On ch=13 n=52 v=94
70572 Par ch=13 c=7 v=60
70585 On ch=13 n=52 v=0
70587 On ch=13 n=53 v=100
70588 Par ch=13 c=7 v=59
70608 Par ch=13 c=7 v=58
70609 Pb ch=13 v=8875
70614 Pb ch=13 v=9557
70624 Par ch=13 c=7 v=57
70633 On ch=13 n=53 v=0
70635 Pb ch=13 v=8192
70636 On ch=13 n=58 v=98
70640 Par ch=13 c=7 v=56
70656 Par ch=13 c=7 v=55
70658 On ch=13 n=58 v=0
70672 Par ch=13 c=7 v=54
70692 Par ch=13 c=7 v=53
70708 Par ch=13 c=7 v=52
70724 Par ch=13 c=7 v=51
70740 Par ch=13 c=7 v=50
70760 Par ch=13 c=7 v=49
70776 Par ch=13 c=7 v=48
70780 On ch=13 n=58 v=96
70792 On ch=13 n=58 v=0
70792 Par ch=13 c=7 v=47
70804 On ch=13 n=58 v=92
70808 Par ch=13 c=7 v=46
70814 On ch=13 n=58 v=0
70828 On ch=13 n=58 v=96
70828 Par ch=13 c=7 v=45
70844 Par ch=13 c=7 v=44
70852 Pb ch=13 v=6144
70859 On ch=13 n=58 v=0
70860 Pb ch=13 v=8192
70860 Par ch=13 c=7 v=43
70876 Par ch=13 c=7 v=42
70896 Par ch=13 c=7 v=41
70912 Par ch=13 c=7 v=40
70928 On ch=13 n=58 v=85
70928 Par ch=13 c=7 v=39
70943 On ch=13 n=50 v=85
70944 Par ch=13 c=7 v=38
70945 On ch=13 n=58 v=0
70960 Par ch=13 c=7 v=37
70968 On ch=13 n=50 v=0
70970 On ch=13 n=58 v=88
70980 Par ch=13 c=7 v=36
70982 On ch=13 n=50 v=85
70984 On ch=13 n=58 v=0
70996 Par ch=13 c=7 v=35
71006 On ch=13 n=58 v=86
71007 On ch=13 n=50 v=0
71012 Par ch=13 c=7 v=34
71017 On ch=13 n=50 v=82
71019 On ch=13 n=58 v=0
71028 Par ch=13 c=7 v=33
71037 On ch=13 n=50 v=0
71040 On ch=13 n=58 v=84
71048 Par ch=13 c=7 v=32
71052 On ch=13 n=50 v=79
71054 On ch=13 n=58 v=0
71064 Par ch=13 c=7 v=31
71070 On ch=13 n=50 v=0
71075 On ch=13 n=58 v=82
71080 Par ch=13 c=7 v=30
71087 On ch=13 n=50 v=87
71088 On ch=13 n=58 v=0
71096 Par ch=13 c=7 v=29
71110 On ch=13 n=58 v=87
71111 On ch=13 n=50 v=0
71116 Par ch=13 c=7 v=28
71120 On ch=13 n=50 v=82
71122 On ch=13 n=58 v=0
71132 Par ch=13 c=7 v=27
71143 On ch=13 n=58 v=86
71146 On ch=13 n=50 v=0
71148 Par ch=13 c=7 v=26
71164 Par ch=13 c=7 v=25
71182 Pb ch=13 v=8792
71214 On ch=13 n=58 v=0
71214 Pb ch=13 v=8192
71260 On ch=13 n=62 v=87
71271 On ch=13 n=62 v=0
71284 Par ch=13 c=7 v=20
71284 On ch=13 n=59 v=76
71294 On ch=13 n=59 v=0
71308 On ch=13 n=62 v=84
71318 On ch=13 n=62 v=0
71332 On ch=13 n=63 v=74
71380 Pb ch=13 v=9557
71392 Pb ch=13 v=8875
71404 Pb ch=13 v=8192
71416 Pb ch=13 v=7509
71428 Pb ch=13 v=8192
71452 On ch=13 n=63 v=0
71452 Meta TrkEnd
TrkEnd
MTrk
0 Meta 0x21 00
96 Par ch=14 c=10 v=127
96 Par ch=14 c=1 v=0
96 Par ch=14 c=91 v=80
96 Par ch=14 c=93 v=24
96 PrCh ch=14 p=115
96 Par ch=14 c=100 v=0
96 Par ch=14 c=101 v=0
96 Par ch=14 c=6 v=12
128 Par ch=14 c=98 v=32
128 Par ch=14 c=99 v=1
128 Par ch=14 c=6 v=64
128 Par ch=14 c=98 v=33
128 Par ch=14 c=99 v=1
128 Par ch=14 c=6 v=64
160 Par ch=14 c=7 v=120
160 Par ch=14 c=11 v=100
68328 On ch=14 n=49 v=60
68328 On ch=14 n=50 v=80
68373 On ch=14 n=49 v=0
68373 On ch=14 n=50 v=0
68374 Par ch=14 c=11 v=60
68376 On ch=14 n=82 v=100
68421 On ch=14 n=82 v=0
68424 On ch=14 n=82 v=100
68469 On ch=14 n=82 v=0
68754 PrCh ch=14 p=39
68791 Par ch=14 c=10 v=75
68805 Par ch=14 c=7 v=100
68832 Par ch=14 c=11 v=90
68904 On ch=14 n=55 v=119
68928 On ch=14 n=55 v=0
68928 On ch=14 n=55 v=107
68952 On ch=14 n=55 v=0
68952 On ch=14 n=55 v=116
68976 On ch=14 n=55 v=0
68976 On ch=14 n=55 v=110
69000 On ch=14 n=55 v=0
69000 On ch=14 n=55 v=110
69024 On ch=14 n=55 v=0
69024 On ch=14 n=55 v=113
69046 On ch=14 n=55 v=0
69048 On ch=14 n=58 v=122
69072 On ch=14 n=58 v=0
69072 On ch=14 n=58 v=105
69096 On ch=14 n=58 v=0
69096 On ch=14 n=58 v=110
69120 On ch=14 n=58 v=0
69120 On ch=14 n=58 v=107
69144 On ch=14 n=58 v=0
69144 On ch=14 n=58 v=127
69168 On ch=14 n=58 v=0
69168 On ch=14 n=58 v=98
69192 On ch=14 n=58 v=0
69192 On ch=14 n=58 v=100
69216 On ch=14 n=58 v=0
69216 On ch=14 n=58 v=116
69240 On ch=14 n=58 v=0
69240 On ch=14 n=60 v=105
69244 Pb ch=14 v=8320
69245 Pb ch=14 v=8448
69248 Pb ch=14 v=8576
69249 Pb ch=14 v=8704
69263 Pb ch=14 v=8576
69264 Pb ch=14 v=8448
69267 Pb ch=14 v=8320
69285 On ch=14 n=60 v=0
69287 Pb ch=14 v=8192
69288 On ch=14 n=58 v=105
69310 On ch=14 n=58 v=0
69312 On ch=14 n=60 v=102
69330 Pb ch=14 v=8448
69334 Pb ch=14 v=8576
69335 Pb ch=14 v=8704
69336 Pb ch=14 v=8832
69338 Pb ch=14 v=8960
69348 Pb ch=14 v=8832
69349 Pb ch=14 v=8704
69352 Pb ch=14 v=8576
69355 Pb ch=14 v=8448
69380 On ch=14 n=60 v=0
69383 Pb ch=14 v=8192
69384 On ch=14 n=58 v=89
69406 On ch=14 n=58 v=0
69408 On ch=14 n=60 v=105
69428 Pb ch=14 v=8320
69429 Pb ch=14 v=8448
69431 Pb ch=14 v=8576
69436 Pb ch=14 v=8704
69451 Pb ch=14 v=8576
69453 Pb ch=14 v=8448
69464 Pb ch=14 v=8192
69477 On ch=14 n=60 v=0
69480 On ch=14 n=58 v=100
69502 On ch=14 n=58 v=0
69504 On ch=14 n=60 v=104
69513 Pb ch=14 v=8576
69517 Pb ch=14 v=8832
69518 Pb ch=14 v=8960
69524 Pb ch=14 v=8832
69525 Pb ch=14 v=8704
69526 Pb ch=14 v=8576
69528 Pb ch=14 v=8448
69538 Pb ch=14 v=8192
69549 On ch=14 n=60 v=0
69552 On ch=14 n=58 v=87
69574 On ch=14 n=58 v=0
69576 On ch=14 n=60 v=80
69621 On ch=14 n=60 v=0
69621 Meta TrkEnd
TrkEnd
MTrk
0 Meta 0x21 00
96 Par ch=15 c=10 v=127
96 Par ch=15 c=1 v=0
96 Par ch=15 c=91 v=127
96 Par ch=15 c=93 v=127
96 PrCh ch=15 p=17
96 Par ch=15 c=100 v=0
96 Par ch=15 c=101 v=0
96 Par ch=15 c=6 v=12
128 Par ch=15 c=98 v=32
128 Par ch=15 c=99 v=1
128 Par ch=15 c=6 v=64
128 Par ch=15 c=98 v=33
128 Par ch=15 c=99 v=1
128 Par ch=15 c=6 v=64
160 Par ch=15 c=7 v=85
160 Par ch=15 c=11 v=100
64248 On ch=15 n=67 v=82
64248 On ch=15 n=74 v=82
64248 On ch=15 n=79 v=91
64630 On ch=15 n=67 v=0
64630 On ch=15 n=74 v=0
64630 On ch=15 n=79 v=0
64632 On ch=15 n=67 v=87
64632 On ch=15 n=75 v=78
64632 On ch=15 n=79 v=78
64774 On ch=15 n=92 v=88
64776 On ch=15 n=93 v=92
64780 On ch=15 n=92 v=0
64821 On ch=15 n=93 v=0
64824 On ch=15 n=93 v=92
64954 On ch=15 n=91 v=90
64959 On ch=15 n=93 v=0
65014 On ch=15 n=67 v=0
65014 On ch=15 n=75 v=0
65014 On ch=15 n=79 v=0
65016 Par ch=15 c=10 v=35
65016 On ch=15 n=67 v=82
65016 On ch=15 n=74 v=82
65016 On ch=15 n=79 v=91
65398 On ch=15 n=91 v=0
65398 On ch=15 n=67 v=0
65398 On ch=15 n=74 v=0
65398 On ch=15 n=79 v=0
65400 On ch=15 n=67 v=87
65400 On ch=15 n=75 v=78
65400 On ch=15 n=79 v=78
65542 On ch=15 n=96 v=110
65637 On ch=15 n=67 v=0
65637 On ch=15 n=75 v=0
65640 On ch=15 n=24 v=63
65641 On ch=15 n=26 v=64
65642 On ch=15 n=28 v=60
65644 On ch=15 n=29 v=65
65645 On ch=15 n=24 v=0
65645 On ch=15 n=26 v=0
65646 On ch=15 n=28 v=0
65647 On ch=15 n=31 v=66
65649 On ch=15 n=29 v=0
65649 On ch=15 n=33 v=67
65652 On ch=15 n=31 v=0
65652 On ch=15 n=35 v=64
65654 On ch=15 n=33 v=0
65655 On ch=15 n=36 v=62
65657 On ch=15 n=35 v=0
65658 On ch=15 n=38 v=60
65661 On ch=15 n=36 v=0
65663 On ch=15 n=40 v=60
65664 On ch=15 n=38 v=0
65670 On ch=15 n=24 v=55
65672 On ch=15 n=40 v=0
65674 On ch=15 n=26 v=56
65677 On ch=15 n=28 v=60
65678 On ch=15 n=24 v=0
65678 On ch=15 n=26 v=0
65679 On ch=15 n=29 v=66
65682 On ch=15 n=28 v=0
65683 On ch=15 n=31 v=65
65684 On ch=15 n=29 v=0
65686 On ch=15 n=33 v=64
65688 On ch=15 n=79 v=0
65688 On ch=15 n=96 v=0
65688 On ch=15 n=31 v=0
65690 On ch=15 n=35 v=66
65691 On ch=15 n=33 v=0
65693 On ch=15 n=36 v=61
65695 On ch=15 n=35 v=0
65698 On ch=15 n=36 v=0
65698 On ch=15 n=38 v=59
65702 On ch=15 n=38 v=0
65702 On ch=15 n=40 v=55
65705 On ch=15 n=41 v=62
65706 On ch=15 n=40 v=0
65710 On ch=15 n=41 v=0
65710 On ch=15 n=43 v=61
65715 On ch=15 n=43 v=0
65716 On ch=15 n=24 v=60
65718 On ch=15 n=26 v=66
65720 On ch=15 n=28 v=64
65722 On ch=15 n=29 v=62
65723 On ch=15 n=26 v=0
65723 On ch=15 n=28 v=0
65725 On ch=15 n=24 v=0
65726 On ch=15 n=31 v=58
65728 On ch=15 n=29 v=0
65729 On ch=15 n=33 v=64
65731 On ch=15 n=31 v=0
65733 On ch=15 n=35 v=61
65735 On ch=15 n=33 v=0
65736 On ch=15 n=26 v=67
65736 On ch=15 n=28 v=68
65738 On ch=15 n=29 v=64
65740 On ch=15 n=35 v=0
65741 On ch=15 n=26 v=0
65742 On ch=15 n=28 v=0
65742 On ch=15 n=31 v=61
65743 On ch=15 n=29 v=0
65745 On ch=15 n=33 v=62
65747 On ch=15 n=31 v=0
65748 On ch=15 n=35 v=62
65749 On ch=15 n=33 v=0
65751 On ch=15 n=36 v=63
65753 On ch=15 n=35 v=0
65753 On ch=15 n=38 v=64
65755 On ch=15 n=36 v=0
65756 On ch=15 n=40 v=55
65759 On ch=15 n=38 v=0
65761 On ch=15 n=41 v=59
65764 On ch=15 n=40 v=0
65764 On ch=15 n=43 v=60
65767 On ch=15 n=41 v=0
65771 On ch=15 n=43 v=0
65774 Par ch=15 c=10 v=110
65780 PrCh ch=15 p=18
65784 On ch=15 n=91 v=80
66166 On ch=15 n=91 v=0
66216 On ch=15 n=93 v=80
66308 On ch=15 n=93 v=0
66312 On ch=15 n=91 v=80
66405 On ch=15 n=91 v=0
66408 On ch=15 n=88 v=80
66548 On ch=15 n=88 v=0
66548 Par ch=15 c=10 v=30
66589 PrCh ch=15 p=94
66600 On ch=15 n=59 v=100
66600 On ch=15 n=62 v=105
66742 On ch=15 n=59 v=0
66742 On ch=15 n=62 v=0
66744 On ch=15 n=55 v=107
66744 On ch=15 n=63 v=80
66788 Pb ch=15 v=8064
66799 Pb ch=15 v=7936
66803 Pb ch=15 v=7808
66815 Pb ch=15 v=7680
66853 Pb ch=15 v=7808
66859 Pb ch=15 v=7936
66861 Pb ch=15 v=8064
66866 Pb ch=15 v=8192
66934 On ch=15 n=55 v=0
66934 On ch=15 n=63 v=0
66936 On ch=15 n=55 v=101
67028 On ch=15 n=55 v=0
67316 PrCh ch=15 p=17
67320 On ch=15 n=67 v=82
67320 On ch=15 n=74 v=82
67320 On ch=15 n=79 v=91
67702 On ch=15 n=67 v=0
67702 On ch=15 n=74 v=0
67702 On ch=15 n=79 v=0
67704 On ch=15 n=67 v=87
67704 On ch=15 n=75 v=78
67704 On ch=15 n=79 v=78
67888 On ch=15 n=67 v=0
67888 On ch=15 n=75 v=0
67888 On ch=15 n=79 v=0
67892 Par ch=15 c=10 v=55
67894 PrCh ch=15 p=17
67920 On ch=15 n=24 v=70
67924 On ch=15 n=26 v=77
67927 On ch=15 n=24 v=0
67929 On ch=15 n=28 v=76
67932 On ch=15 n=26 v=0
67935 On ch=15 n=29 v=78
67938 On ch=15 n=28 v=0
67941 On ch=15 n=31 v=73
67943 On ch=15 n=29 v=0
67946 On ch=15 n=33 v=76
67948 On ch=15 n=31 v=0
67952 On ch=15 n=35 v=72
67954 On ch=15 n=33 v=0
67959 On ch=15 n=35 v=0
67959 On ch=15 n=36 v=80
67964 On ch=15 n=36 v=0
67966 On ch=15 n=28 v=78
67972 On ch=15 n=29 v=79
67973 On ch=15 n=28 v=0
67979 On ch=15 n=31 v=77
67980 On ch=15 n=29 v=0
67984 On ch=15 n=33 v=76
67986 On ch=15 n=31 v=0
67989 On ch=15 n=35 v=73
67991 On ch=15 n=33 v=0
67993 On ch=15 n=36 v=80
67994 On ch=15 n=35 v=0
67997 On ch=15 n=28 v=76
67999 On ch=15 n=36 v=0
68001 On ch=15 n=29 v=78
68003 On ch=15 n=28 v=0
68005 On ch=15 n=31 v=73
68006 On ch=15 n=29 v=0
68008 On ch=15 n=33 v=76
68011 On ch=15 n=31 v=0
68012 On ch=15 n=35 v=72
68015 On ch=15 n=33 v=0
68017 On ch=15 n=36 v=80
68018 On ch=15 n=35 v=0
68021 On ch=15 n=36 v=0
68022 On ch=15 n=28 v=78
68026 On ch=15 n=29 v=79
68031 On ch=15 n=31 v=77
68032 On ch=15 n=28 v=0
68036 On ch=15 n=33 v=76
68037 On ch=15 n=29 v=0
68041 On ch=15 n=31 v=0
68041 On ch=15 n=35 v=73
68045 On ch=15 n=33 v=0
68045 On ch=15 n=3 v=80
68048 On ch=15 n=35 v=0
68051 On ch=15 n=3 v=0
68084 PrCh ch=15 p=17
68088 On ch=15 n=74 v=82
68088 On ch=15 n=79 v=82
68278 On ch=15 n=74 v=0
68278 On ch=15 n=79 v=0
68280 On ch=15 n=75 v=98
68280 On ch=15 n=82 v=105
68470 On ch=15 n=75 v=0
68470 On ch=15 n=82 v=0
68472 On ch=15 n=76 v=91
68472 On ch=15 n=79 v=91
68472 On ch=15 n=84 v=115
68564 On ch=15 n=76 v=0
68564 On ch=15 n=79 v=0
68564 On ch=15 n=84 v=0
68568 On ch=15 n=35 v=34
68570 On ch=15 n=36 v=23
68573 On ch=15 n=35 v=0
68574 On ch=15 n=33 v=67
68576 On ch=15 n=36 v=0
68577 On ch=15 n=31 v=71
68579 On ch=15 n=33 v=0
68579 On ch=15 n=28 v=60
68581 On ch=15 n=31 v=0
68581 On ch=15 n=29 v=77
68583 On ch=15 n=28 v=0
68583 On ch=15 n=26 v=77
68584 On ch=15 n=29 v=0
68584 On ch=15 n=23 v=57
68585 On ch=15 n=26 v=0
68585 On ch=15 n=24 v=79
68586 On ch=15 n=23 v=0
68586 On ch=15 n=21 v=77
68587 On ch=15 n=24 v=0
68587 On ch=15 n=19 v=65
68588 On ch=15 n=21 v=0
68588 On ch=15 n=17 v=77
68589 On ch=15 n=19 v=0
68590 On ch=15 n=17 v=0
68590 On ch=15 n=16 v=72
68592 On ch=15 n=16 v=0
68592 On ch=15 n=14 v=77
68595 On ch=15 n=14 v=0
68595 On ch=15 n=12 v=77
68598 On ch=15 n=14 v=52
68598 On ch=15 n=16 v=41
68599 On ch=15 n=12 v=0
68600 On ch=15 n=16 v=0
68600 On ch=15 n=17 v=82
68602 On ch=15 n=14 v=0
68602 On ch=15 n=17 v=0
68602 On ch=15 n=19 v=85
68602 On ch=15 n=21 v=72
68604 On ch=15 n=21 v=0
68604 On ch=15 n=23 v=60
68606 On ch=15 n=19 v=0
68606 On ch=15 n=23 v=0
68606 On ch=15 n=24 v=68
68607 On ch=15 n=26 v=68
68608 On ch=15 n=24 v=0
68608 On ch=15 n=28 v=70
68609 On ch=15 n=26 v=0
68609 On ch=15 n=28 v=0
68609 On ch=15 n=12 v=70
68610 On ch=15 n=12 v=0
68610 On ch=15 n=29 v=75
68610 On ch=15 n=31 v=50
68611 On ch=15 n=31 v=0
68611 On ch=15 n=14 v=70
68612 On ch=15 n=29 v=0
68614 On ch=15 n=14 v=0
68614 On ch=15 n=16 v=70
68614 On ch=15 n=33 v=60
68616 On ch=15 n=16 v=0
68617 On ch=15 n=33 v=0
68617 On ch=15 n=17 v=65
68617 On ch=15 n=35 v=63
68619 On ch=15 n=17 v=0
68619 On ch=15 n=35 v=0
68620 On ch=15 n=19 v=77
68622 On ch=15 n=21 v=78
68623 On ch=15 n=19 v=0
68624 On ch=15 n=21 v=0
68624 On ch=15 n=36 v=85
68626 On ch=15 n=36 v=0
68626 On ch=15 n=23 v=76
68628 On ch=15 n=23 v=0
68629 On ch=15 n=38 v=74
68629 On ch=15 n=40 v=83
68630 On ch=15 n=24 v=75
68631 On ch=15 n=40 v=0
68632 On ch=15 n=38 v=0
68632 On ch=15 n=41 v=75
68633 On ch=15 n=24 v=0
68634 On ch=15 n=26 v=79
68636 On ch=15 n=41 v=0
68636 On ch=15 n=26 v=0
68636 On ch=15 n=28 v=88
68637 On ch=15 n=29 v=48
68639 On ch=15 n=28 v=0
68639 On ch=15 n=31 v=95
68640 On ch=15 n=29 v=0
68641 On ch=15 n=31 v=0
68642 On ch=15 n=33 v=81
68645 On ch=15 n=24 v=85
68646 On ch=15 n=33 v=0
68648 On ch=15 n=24 v=0
68648 On ch=15 n=26 v=10
68650 On ch=15 n=26 v=0
68650 On ch=15 n=28 v=82
68652 On ch=15 n=28 v=0
68652 On ch=15 n=29 v=76
68655 On ch=15 n=31 v=48
68656 On ch=15 n=29 v=0
68657 On ch=15 n=33 v=30
68658 On ch=15 n=31 v=0
68659 On ch=15 n=33 v=0
68660 On ch=15 n=35 v=39
68662 On ch=15 n=36 v=46
68664 On ch=15 n=35 v=0
68665 On ch=15 n=24 v=26
68666 On ch=15 n=36 v=0
68667 On ch=15 n=26 v=78
68669 On ch=15 n=24 v=0
68669 On ch=15 n=28 v=47
68671 On ch=15 n=26 v=0
68671 On ch=15 n=28 v=0
68671 On ch=15 n=29 v=62
68674 On ch=15 n=31 v=68
68675 On ch=15 n=29 v=0
68676 On ch=15 n=33 v=59
68677 On ch=15 n=31 v=0
68678 On ch=15 n=33 v=0
68678 On ch=15 n=24 v=61
68680 On ch=15 n=26 v=37
68681 On ch=15 n=24 v=0
68683 On ch=15 n=28 v=52
68684 On ch=15 n=26 v=0
68686 On ch=15 n=29 v=50
68687 On ch=15 n=28 v=0
68688 On ch=15 n=29 v=0
68688 On ch=15 n=31 v=98
68690 On ch=15 n=24 v=38
68691 On ch=15 n=31 v=0
68692 On ch=15 n=26 v=91
68694 On ch=15 n=24 v=0
68695 On ch=15 n=26 v=0
68695 On ch=15 n=28 v=57
68697 On ch=15 n=28 v=0
68697 On ch=15 n=29 v=53
68700 On ch=15 n=29 v=0
68700 On ch=15 n=31 v=51
68703 On ch=15 n=33 v=58
68704 On ch=15 n=31 v=0
68705 On ch=15 n=24 v=93
68706 On ch=15 n=33 v=0
68707 On ch=15 n=24 v=0
68707 On ch=15 n=26 v=85
68710 On ch=15 n=26 v=0
68710 On ch=15 n=28 v=66
68713 On ch=15 n=31 v=45
68714 On ch=15 n=28 v=0
68715 On ch=15 n=24 v=80
68716 On ch=15 n=31 v=0
68717 On ch=15 n=24 v=0
68718 On ch=15 n=24 v=88
68720 On ch=15 n=26 v=57
68721 On ch=15 n=24 v=0
68723 On ch=15 n=26 v=0
68723 On ch=15 n=28 v=95
68725 On ch=15 n=35 v=76
68727 On ch=15 n=28 v=0
68728 On ch=15 n=28 v=82
68729 On ch=15 n=35 v=0
68730 On ch=15 n=28 v=0
68730 On ch=15 n=29 v=76
68733 On ch=15 n=31 v=48
68734 On ch=15 n=29 v=0
68735 On ch=15 n=33 v=30
68736 On ch=15 n=31 v=0
68737 On ch=15 n=33 v=0
68738 On ch=15 n=35 v=39
68740 On ch=15 n=36 v=46
68742 On ch=15 n=35 v=0
68743 On ch=15 n=24 v=26
68744 On ch=15 n=36 v=0
68745 On ch=15 n=26 v=78
68747 On ch=15 n=24 v=0
68747 On ch=15 n=28 v=47
68749 On ch=15 n=26 v=0
68749 On ch=15 n=28 v=0
68749 On ch=15 n=29 v=62
68752 On ch=15 n=31 v=68
68753 On ch=15 n=29 v=0
68754 On ch=15 n=33 v=59
68755 On ch=15 n=31 v=0
68756 On ch=15 n=33 v=0
68756 On ch=15 n=24 v=61
68758 On ch=15 n=26 v=37
68759 On ch=15 n=24 v=0
68761 On ch=15 n=28 v=52
68762 On ch=15 n=26 v=0
68764 On ch=15 n=29 v=50
68765 On ch=15 n=28 v=0
68766 On ch=15 n=29 v=0
68766 On ch=15 n=31 v=98
68768 On ch=15 n=28 v=82
68769 On ch=15 n=31 v=0
68770 On ch=15 n=28 v=0
68770 On ch=15 n=29 v=76
68773 On ch=15 n=31 v=48
68774 On ch=15 n=29 v=0
68775 On ch=15 n=33 v=30
68776 On ch=15 n=31 v=0
68777 On ch=15 n=33 v=0
68778 On ch=15 n=35 v=39
68780 On ch=15 n=36 v=46
68782 On ch=15 n=35 v=0
68783 On ch=15 n=24 v=26
68784 On ch=15 n=36 v=0
68785 On ch=15 n=26 v=78
68787 On ch=15 n=24 v=0
68787 On ch=15 n=28 v=47
68789 On ch=15 n=26 v=0
68789 On ch=15 n=28 v=0
68789 On ch=15 n=29 v=62
68792 On ch=15 n=31 v=68
68793 On ch=15 n=29 v=0
68794 On ch=15 n=33 v=59
68795 On ch=15 n=31 v=0
68796 On ch=15 n=33 v=0
68796 On ch=15 n=24 v=61
68798 On ch=15 n=26 v=37
68799 On ch=15 n=24 v=0
68801 On ch=15 n=28 v=52
68802 On ch=15 n=26 v=0
68804 On ch=15 n=29 v=50
68805 On ch=15 n=28 v=0
68806 On ch=15 n=29 v=0
68806 On ch=15 n=31 v=98
68808 On ch=15 n=24 v=38
68809 On ch=15 n=31 v=0
68810 On ch=15 n=26 v=91
68812 On ch=15 n=24 v=0
68813 On ch=15 n=26 v=0
68813 On ch=15 n=24 v=38
68815 On ch=15 n=26 v=81
68817 On ch=15 n=24 v=0
68818 On ch=15 n=26 v=0
68818 On ch=15 n=55 v=80
68818 On ch=15 n=52 v=61
68825 On ch=15 n=53 v=64
68826 On ch=15 n=52 v=0
68828 On ch=15 n=55 v=0
68828 On ch=15 n=53 v=0
68828 On ch=15 n=50 v=68
68831 On ch=15 n=50 v=0
68831 On ch=15 n=48 v=57
68834 On ch=15 n=48 v=0
68834 On ch=15 n=45 v=67
68837 On ch=15 n=45 v=0
68837 On ch=15 n=47 v=58
68840 On ch=15 n=47 v=0
68840 On ch=15 n=43 v=75
68843 On ch=15 n=43 v=0
68843 On ch=15 n=41 v=56
68845 On ch=15 n=40 v=77
68846 On ch=15 n=41 v=0
68847 On ch=15 n=38 v=82
68848 On ch=15 n=40 v=0
68849 On ch=15 n=38 v=0
68850 On ch=15 n=35 v=50
68852 On ch=15 n=36 v=55
68854 On ch=15 n=33 v=79
68855 On ch=15 n=35 v=0
68857 On ch=15 n=36 v=0
68857 On ch=15 n=31 v=84
68858 On ch=15 n=33 v=0
68859 On ch=15 n=31 v=0
68859 On ch=15 n=29 v=77
68862 On ch=15 n=26 v=64
68863 On ch=15 n=29 v=0
68866 On ch=15 n=28 v=82
68870 On ch=15 n=26 v=0
68871 On ch=15 n=24 v=72
68875 On ch=15 n=28 v=0
68889 On ch=15 n=24 v=0
69403 Par ch=15 c=7 v=75
69407 PrCh ch=15 p=2
69411 Par ch=15 c=10 v=64
69427 On ch=15 n=65 v=71
69427 On ch=15 n=67 v=73
69432 On ch=15 n=64 v=90
69436 On ch=15 n=62 v=98
69437 On ch=15 n=67 v=0
69439 On ch=15 n=60 v=59
69441 On ch=15 n=64 v=0
69441 On ch=15 n=60 v=0
69442 On ch=15 n=62 v=0
69443 On ch=15 n=59 v=54
69444 On ch=15 n=65 v=0
69446 On ch=15 n=57 v=96
69447 On ch=15 n=59 v=0
69448 On ch=15 n=55 v=81
69449 On ch=15 n=57 v=0
69451 On ch=15 n=55 v=0
69451 On ch=15 n=53 v=88
69453 On ch=15 n=53 v=0
69454 On ch=15 n=52 v=95
69456 On ch=15 n=50 v=95
69457 On ch=15 n=52 v=0
69459 On ch=15 n=50 v=0
69460 On ch=15 n=47 v=79
69462 On ch=15 n=48 v=85
69464 On ch=15 n=47 v=0
69464 On ch=15 n=43 v=92
69465 On ch=15 n=48 v=0
69466 On ch=15 n=45 v=95
69468 On ch=15 n=43 v=0
69468 On ch=15 n=45 v=0
69468 On ch=15 n=41 v=97
69470 On ch=15 n=41 v=0
69471 On ch=15 n=40 v=95
69473 On ch=15 n=38 v=92
69475 On ch=15 n=40 v=0
69475 On ch=15 n=38 v=0
69476 On ch=15 n=36 v=103
69478 On ch=15 n=36 v=0
69478 On ch=15 n=33 v=43
69480 On ch=15 n=35 v=62
69481 On ch=15 n=33 v=0
69481 On ch=15 n=31 v=49
69483 On ch=15 n=31 v=0
69484 On ch=15 n=35 v=0
69484 On ch=15 n=29 v=32
69487 On ch=15 n=26 v=75
69491 On ch=15 n=29 v=0
69491 On ch=15 n=28 v=92
69495 On ch=15 n=24 v=88
69496 On ch=15 n=26 v=0
69506 On ch=15 n=28 v=0
69511 On ch=15 n=24 v=0
69589 On ch=15 n=65 v=81
69589 On ch=15 n=67 v=83
69593 On ch=15 n=64 v=100
69597 On ch=15 n=67 v=0
69597 On ch=15 n=62 v=108
69599 On ch=15 n=65 v=0
69600 On ch=15 n=60 v=69
69602 On ch=15 n=64 v=0
69602 On ch=15 n=60 v=0
69603 On ch=15 n=62 v=0
69604 On ch=15 n=59 v=64
69607 On ch=15 n=57 v=106
69608 On ch=15 n=59 v=0
69609 On ch=15 n=55 v=91
69610 On ch=15 n=57 v=0
69612 On ch=15 n=55 v=0
69612 On ch=15 n=53 v=78
69614 On ch=15 n=53 v=0
69615 On ch=15 n=52 v=85
69617 On ch=15 n=50 v=85
69618 On ch=15 n=52 v=0
69620 On ch=15 n=50 v=0
69621 On ch=15 n=47 v=69
69623 On ch=15 n=48 v=75
69625 On ch=15 n=47 v=0
69625 On ch=15 n=43 v=82
69626 On ch=15 n=48 v=0
69627 On ch=15 n=45 v=85
69629 On ch=15 n=43 v=0
69629 On ch=15 n=45 v=0
69629 On ch=15 n=41 v=87
69631 On ch=15 n=41 v=0
69632 On ch=15 n=40 v=85
69634 On ch=15 n=38 v=82
69636 On ch=15 n=40 v=0
69636 On ch=15 n=38 v=0
69637 On ch=15 n=36 v=93
69639 On ch=15 n=36 v=0
70567 Par ch=15 c=7 v=20
70939 On ch=15 n=59 v=79
70939 On ch=15 n=60 v=83
70939 On ch=15 n=62 v=83
70945 On ch=15 n=57 v=84
70947 On ch=15 n=60 v=0
70949 On ch=15 n=62 v=0
70951 On ch=15 n=60 v=57
70951 On ch=15 n=62 v=45
70952 On ch=15 n=57 v=0
70954 On ch=15 n=59 v=0
70956 On ch=15 n=55 v=22
70956 On ch=15 n=52 v=67
70957 On ch=15 n=60 v=0
70958 On ch=15 n=62 v=0
70960 On ch=15 n=55 v=0
70960 On ch=15 n=53 v=54
70960 On ch=15 n=50 v=27
70961 On ch=15 n=52 v=0
70964 On ch=15 n=48 v=58
70964 On ch=15 n=47 v=74
70964 On ch=15 n=40 v=70
70966 On ch=15 n=53 v=0
70966 On ch=15 n=50 v=0
70967 On ch=15 n=48 v=0
70968 On ch=15 n=41 v=76
70968 On ch=15 n=43 v=64
70968 On ch=15 n=45 v=52
70969 On ch=15 n=47 v=0
70971 On ch=15 n=40 v=0
70972 On ch=15 n=41 v=0
70972 On ch=15 n=36 v=57
70972 On ch=15 n=38 v=48
70972 On ch=15 n=40 v=40
70973 On ch=15 n=43 v=0
70974 On ch=15 n=45 v=0
70991 On ch=15 n=36 v=0
70994 On ch=15 n=38 v=0
70994 On ch=15 n=40 v=0
70994 Meta TrkEnd
TrkEnd
MTrk
0 Meta 0x21 00
0 Meta TrkName " "
95 Par ch=16 c=10 v=62
107 Par ch=16 c=7 v=65
119 Par ch=16 c=11 v=116
131 Par ch=16 c=93 v=24
137 Par ch=16 c=91 v=40
143 Par ch=16 c=1 v=0
149 PrCh ch=16 p=36
152 Par ch=16 c=98 v=32
152 Par ch=16 c=99 v=1
152 Par ch=16 c=6 v=64
155 Par ch=16 c=98 v=33
155 Par ch=16 c=99 v=1
155 Par ch=16 c=6 v=58
161 Par ch=16 c=100 v=0
161 Par ch=16 c=101 v=0
161 Par ch=16 c=6 v=12
192 On ch=16 n=30 v=102
216 Pb ch=16 v=9558
238 On ch=16 n=30 v=0
239 Pb ch=16 v=8192
240 On ch=16 n=35 v=98
264 Pb ch=16 v=9557
286 On ch=16 n=35 v=0
287 Pb ch=16 v=8192
287 On ch=16 n=40 v=82
309 On ch=16 n=40 v=0
311 On ch=16 n=37 v=94
961 On ch=16 n=37 v=0
1056 On ch=16 n=30 v=110
1080 Pb ch=16 v=9557
1103 On ch=16 n=30 v=0
1103 Pb ch=16 v=8192
1104 On ch=16 n=35 v=98
1128 Pb ch=16 v=9557
1151 On ch=16 n=35 v=0
1151 Pb ch=16 v=8192
1151 On ch=16 n=40 v=100
1173 On ch=16 n=40 v=0
1175 On ch=16 n=37 v=96
1825 On ch=16 n=37 v=0
1920 On ch=16 n=30 v=110
1944 Pb ch=16 v=9557
1967 On ch=16 n=30 v=0
1967 Pb ch=16 v=8192
1968 On ch=16 n=35 v=98
1992 Pb ch=16 v=9557
2015 On ch=16 n=35 v=0
2015 Pb ch=16 v=8192
2015 On ch=16 n=40 v=100
2037 On ch=16 n=40 v=0
2039 On ch=16 n=37 v=96
2344 On ch=16 n=37 v=0
2351 Pb ch=16 v=6827
2351 On ch=16 n=37 v=90
2354 Pb ch=16 v=7509
2355 Pb ch=16 v=8192
2448 On ch=16 n=37 v=0
2448 On ch=16 n=35 v=90
2544 On ch=16 n=35 v=0
2544 On ch=16 n=32 v=90
2592 On ch=16 n=32 v=0
2592 On ch=16 n=28 v=85
2640 On ch=16 n=28 v=0
2640 On ch=16 n=28 v=83
2663 On ch=16 n=28 v=0
2664 On ch=16 n=28 v=78
2684 On ch=16 n=28 v=0
2688 Pb ch=16 v=6827
2688 On ch=16 n=32 v=86
2707 Pb ch=16 v=6992
2708 Pb ch=16 v=7040
2709 Pb ch=16 v=7509
2717 Pb ch=16 v=7592
2718 Pb ch=16 v=8064
2719 Pb ch=16 v=8192
2736 On ch=16 n=32 v=0
2736 On ch=16 n=35 v=87
2783 On ch=16 n=35 v=0
2784 On ch=16 n=35 v=77
2806 On ch=16 n=35 v=0
2808 On ch=16 n=35 v=78
2826 On ch=16 n=35 v=0
2832 On ch=16 n=35 v=78
2833 On ch=16 n=35 v=0
2856 On ch=16 n=35 v=79
2878 On ch=16 n=35 v=0
2880 Pb ch=16 v=6827
2880 On ch=16 n=37 v=87
2901 Pb ch=16 v=6892
2902 Pb ch=16 v=6992
2903 Pb ch=16 v=7509
2911 Pb ch=16 v=7592
2913 Pb ch=16 v=8072
2914 Pb ch=16 v=8192
2927 On ch=16 n=37 v=0
2928 On ch=16 n=40 v=80
2970 On ch=16 n=40 v=0
2976 Pb ch=16 v=8192
2976 On ch=16 n=30 v=110
3000 Pb ch=16 v=9557
3023 On ch=16 n=30 v=0
3023 Pb ch=16 v=8192
3024 On ch=16 n=35 v=98
3048 Pb ch=16 v=9557
3071 On ch=16 n=35 v=0
3071 Pb ch=16 v=8192
3072 On ch=16 n=40 v=90
3094 On ch=16 n=40 v=0
3096 On ch=16 n=37 v=90
3400 On ch=16 n=37 v=0
3407 Pb ch=16 v=6827
3407 On ch=16 n=37 v=90
3410 Pb ch=16 v=7509
3411 Pb ch=16 v=8192
3504 On ch=16 n=37 v=0
3504 On ch=16 n=35 v=90
3600 On ch=16 n=35 v=0
3600 On ch=16 n=32 v=90
3648 On ch=16 n=32 v=0
3648 On ch=16 n=28 v=85
3696 On ch=16 n=28 v=0
3696 On ch=16 n=28 v=83
3719 On ch=16 n=28 v=0
3720 On ch=16 n=28 v=78
3740 On ch=16 n=28 v=0
3744 Pb ch=16 v=6827
3744 On ch=16 n=32 v=86
3763 Pb ch=16 v=6912
3764 Pb ch=16 v=7040
3765 Pb ch=16 v=7509
3773 Pb ch=16 v=7592
3774 Pb ch=16 v=8064
3775 Pb ch=16 v=8192
3792 On ch=16 n=32 v=0
3792 On ch=16 n=35 v=87
3839 On ch=16 n=35 v=0
3864 On ch=16 n=35 v=78
3882 On ch=16 n=35 v=0
3888 On ch=16 n=35 v=78
3889 On ch=16 n=35 v=0
3912 On ch=16 n=35 v=79
3934 On ch=16 n=35 v=0
3936 Pb ch=16 v=6827
3936 On ch=16 n=37 v=87
3957 Pb ch=16 v=6892
3958 Pb ch=16 v=7040
3959 Pb ch=16 v=7509
3967 Pb ch=16 v=7680
3969 Pb ch=16 v=8128
3970 Pb ch=16 v=8192
3983 On ch=16 n=37 v=0
3984 On ch=16 n=40 v=88
4026 On ch=16 n=40 v=0
4032 On ch=16 n=28 v=90
4056 Pb ch=16 v=10923
4079 On ch=16 n=28 v=0
4079 Pb ch=16 v=8192
4080 On ch=16 n=35 v=92
4104 Pb ch=16 v=9557
4127 On ch=16 n=35 v=0
4127 Pb ch=16 v=8192
4128 On ch=16 n=40 v=92
4152 On ch=16 n=40 v=0
4152 On ch=16 n=37 v=90
4456 On ch=16 n=37 v=0
4466 On ch=16 n=42 v=88
4562 On ch=16 n=40 v=87
4563 On ch=16 n=42 v=0
4655 On ch=16 n=40 v=0
4656 Pb ch=16 v=7492
4656 On ch=16 n=37 v=90
4661 Pb ch=16 v=7509
4679 Pb ch=16 v=7592
4681 Pb ch=16 v=8072
4682 Pb ch=16 v=8192
4704 On ch=16 n=40 v=90
4705 On ch=16 n=37 v=0
4894 On ch=16 n=40 v=0
4896 On ch=16 n=38 v=96
4944 On ch=16 n=38 v=0
5184 Par ch=16 c=98 v=33
5184 Par ch=16 c=99 v=1
5184 Par ch=16 c=6 v=16
5280 On ch=16 n=50 v=90
5306 On ch=16 n=50 v=0
5328 On ch=16 n=48 v=89
5354 On ch=16 n=48 v=0
5376 On ch=16 n=47 v=88
5424 On ch=16 n=47 v=0
5424 On ch=16 n=43 v=90
5544 Pb ch=16 v=7510
5562 Pb ch=16 v=6827
5578 Pb ch=16 v=6144
5592 Pb ch=16 v=5462
5605 Pb ch=16 v=4779
5617 Pb ch=16 v=4096
5627 Pb ch=16 v=3413
5637 Pb ch=16 v=2731
5646 Pb ch=16 v=2048
5655 Pb ch=16 v=1365
5662 On ch=16 n=43 v=0
5663 Pb ch=16 v=8192
5664 On ch=16 n=40 v=104
5688 On ch=16 n=40 v=0
5688 On ch=16 n=44 v=102
5712 On ch=16 n=44 v=0
5712 On ch=16 n=47 v=112
5734 Par ch=16 c=65 v=127
5734 On ch=16 n=49 v=96
5736 On ch=16 n=47 v=0
5758 On ch=16 n=49 v=0
5760 Par ch=16 c=65 v=0
5760 On ch=16 n=52 v=114
5782 On ch=16 n=52 v=0
5784 On ch=16 n=49 v=110
6144 On ch=16 n=49 v=0
6144 On ch=16 n=42 v=100
6236 On ch=16 n=42 v=0
6240 On ch=16 n=44 v=100
6332 On ch=16 n=44 v=0
6336 On ch=16 n=45 v=100
6358 On ch=16 n=45 v=0
6360 On ch=16 n=44 v=96
6384 On ch=16 n=44 v=0
6408 On ch=16 n=45 v=100
6432 On ch=16 n=45 v=0
6456 On ch=16 n=44 v=96
6478 On ch=16 n=44 v=0
6480 On ch=16 n=40 v=92
6528 On ch=16 n=40 v=0
6528 On ch=16 n=40 v=90
6552 On ch=16 n=40 v=0
6552 On ch=16 n=40 v=89
6574 On ch=16 n=40 v=0
6576 On ch=16 n=47 v=92
6600 On ch=16 n=47 v=0
6600 On ch=16 n=47 v=85
6624 On ch=16 n=47 v=0
6624 On ch=16 n=47 v=84
6648 On ch=16 n=47 v=0
6648 On ch=16 n=47 v=86
6672 On ch=16 n=47 v=0
6672 On ch=16 n=40 v=80
6696 On ch=16 n=40 v=0
6696 On ch=16 n=40 v=90
6718 On ch=16 n=40 v=0
6744 On ch=16 n=40 v=86
6766 On ch=16 n=40 v=0
6768 On ch=16 n=47 v=90
6792 On ch=16 n=47 v=0
6792 On ch=16 n=47 v=86
6816 On ch=16 n=47 v=0
6816 On ch=16 n=47 v=85
6840 On ch=16 n=47 v=0
6840 On ch=16 n=47 v=90
6864 On ch=16 n=47 v=0
6864 On ch=16 n=40 v=90
6888 On ch=16 n=40 v=0
6888 On ch=16 n=40 v=85
6912 On ch=16 n=40 v=0
6912 On ch=16 n=40 v=82
6936 On ch=16 n=40 v=0
6936 On ch=16 n=40 v=83
6958 On ch=16 n=40 v=0
6960 On ch=16 n=47 v=91
6984 On ch=16 n=47 v=0
6984 On ch=16 n=47 v=85
7008 On ch=16 n=47 v=0
7008 On ch=16 n=47 v=83
7032 On ch=16 n=47 v=0
7032 On ch=16 n=47 v=85
7054 On ch=16 n=47 v=0
7056 On ch=16 n=40 v=88
7078 On ch=16 n=40 v=0
7080 On ch=16 n=40 v=82
7102 On ch=16 n=40 v=0
7128 On ch=16 n=40 v=83
7150 On ch=16 n=40 v=0
7152 On ch=16 n=47 v=90
7176 On ch=16 n=47 v=0
7176 On ch=16 n=47 v=85
7200 On ch=16 n=47 v=0
7200 On ch=16 n=47 v=83
7224 On ch=16 n=47 v=0
7224 On ch=16 n=47 v=86
7248 On ch=16 n=47 v=0
7248 On ch=16 n=40 v=96
7269 Pb ch=16 v=8875
7270 Pb ch=16 v=9557
7271 Pb ch=16 v=10240
7272 Pb ch=16 v=10792
7273 Pb ch=16 v=10923
7295 Pb ch=16 v=8192
7296 On ch=16 n=40 v=0
7296 On ch=16 n=47 v=92
7320 Pb ch=16 v=9557
7343 Pb ch=16 v=8192
7344 On ch=16 n=47 v=0
7344 On ch=16 n=52 v=100
7367 On ch=16 n=52 v=0
7368 On ch=16 n=49 v=98
7680 On ch=16 n=49 v=0
7680 Pb ch=16 v=6827
7680 On ch=16 n=49 v=94
7684 Pb ch=16 v=7509
7686 Pb ch=16 v=8072
7687 Pb ch=16 v=8192
7776 On ch=16 n=49 v=0
7776 On ch=16 n=47 v=92
7872 On ch=16 n=47 v=0
7872 On ch=16 n=44 v=89
7884 Pb ch=16 v=8792
7885 Pb ch=16 v=8875
7886 Pb ch=16 v=8892
7887 Pb ch=16 v=8875
7888 Pb ch=16 v=8312
7890 Pb ch=16 v=8192
7895 Pb ch=16 v=8128
7896 Pb ch=16 v=8112
7898 Pb ch=16 v=8064
7906 Pb ch=16 v=7936
7916 Pb ch=16 v=7509
7917 Pb ch=16 v=6827
7918 On ch=16 n=44 v=0
7918 Pb ch=16 v=6792
7919 Pb ch=16 v=5482
7920 Pb ch=16 v=8192
7920 On ch=16 n=40 v=90
7988 On ch=16 n=40 v=0
7992 On ch=16 n=40 v=88
8014 On ch=16 n=40 v=0
8016 On ch=16 n=43 v=88
8038 On ch=16 n=43 v=0
8040 On ch=16 n=44 v=86
8064 On ch=16 n=44 v=0
8064 On ch=16 n=47 v=87
8109 On ch=16 n=47 v=0
8112 On ch=16 n=47 v=87
8134 On ch=16 n=47 v=0
8136 On ch=16 n=49 v=86
8158 On ch=16 n=49 v=0
8160 On ch=16 n=52 v=88
8208 On ch=16 n=52 v=0
8208 On ch=16 n=47 v=84
8230 On ch=16 n=47 v=0
8232 On ch=16 n=49 v=83
8254 On ch=16 n=49 v=0
8256 On ch=16 n=52 v=88
8304 On ch=16 n=52 v=0
8304 On ch=16 n=40 v=96
8325 Pb ch=16 v=8875
8326 Pb ch=16 v=9557
8327 Pb ch=16 v=10240
8328 Pb ch=16 v=10792
8329 Pb ch=16 v=10923
8351 On ch=16 n=40 v=0
8351 Pb ch=16 v=8192
8352 On ch=16 n=47 v=92
8376 Pb ch=16 v=9557
8399 On ch=16 n=47 v=0
8399 Pb ch=16 v=8192
8400 On ch=16 n=52 v=88
8423 On ch=16 n=52 v=0
8424 On ch=16 n=49 v=88
8736 On ch=16 n=49 v=0
8736 Pb ch=16 v=6827
8736 On ch=16 n=49 v=89
8740 Pb ch=16 v=7509
8742 Pb ch=16 v=8072
8743 Pb ch=16 v=8192
8832 On ch=16 n=49 v=0
8832 On ch=16 n=47 v=89
8928 On ch=16 n=47 v=0
8928 On ch=16 n=44 v=86
8974 On ch=16 n=44 v=0
8976 On ch=16 n=40 v=90
9024 On ch=16 n=40 v=0
9024 On ch=16 n=40 v=85
9048 On ch=16 n=40 v=0
9048 On ch=16 n=40 v=86
9070 On ch=16 n=40 v=0
9072 Pb ch=16 v=7507
9072 On ch=16 n=44 v=86
9096 Pb ch=16 v=8192
9120 On ch=16 n=44 v=0
9120 On ch=16 n=47 v=87
9165 On ch=16 n=47 v=0
9168 On ch=16 n=47 v=87
9190 On ch=16 n=47 v=0
9192 On ch=16 n=49 v=86
9214 On ch=16 n=49 v=0
9216 On ch=16 n=52 v=88
9264 On ch=16 n=52 v=0
9264 On ch=16 n=47 v=84
9286 On ch=16 n=47 v=0
9288 On ch=16 n=49 v=80
9310 On ch=16 n=49 v=0
9312 On ch=16 n=52 v=88
9360 On ch=16 n=52 v=0
9360 On ch=16 n=40 v=92
9384 Pb ch=16 v=8874
9386 Pb ch=16 v=9557
9387 Pb ch=16 v=10240
9388 Pb ch=16 v=10923
9408 On ch=16 n=40 v=0
9408 Pb ch=16 v=8192
9408 On ch=16 n=47 v=92
9432 Pb ch=16 v=8874
9434 Pb ch=16 v=9557
9456 On ch=16 n=47 v=0
9456 Pb ch=16 v=8192
9456 On ch=16 n=52 v=101
9480 On ch=16 n=52 v=0
9480 On ch=16 n=54 v=104
9696 On ch=16 n=54 v=0
9696 Pb ch=16 v=9557
9696 On ch=16 n=54 v=108
9697 Pb ch=16 v=8874
9698 Pb ch=16 v=8192
9888 On ch=16 n=54 v=0
9888 Pb ch=16 v=9557
9888 On ch=16 n=54 v=108
9890 Pb ch=16 v=8874
9891 Pb ch=16 v=8192
10020 Pb ch=16 v=7509
10023 Pb ch=16 v=6827
10026 Pb ch=16 v=6144
10028 Pb ch=16 v=6461
10029 Pb ch=16 v=4779
10030 Pb ch=16 v=3413
10031 Pb ch=16 v=2048
10032 On ch=16 n=54 v=0
10032 Pb ch=16 v=8192
10032 On ch=16 n=40 v=108
10077 On ch=16 n=40 v=0
10080 On ch=16 n=40 v=108
10125 On ch=16 n=40 v=0
10128 On ch=16 n=47 v=108
10220 On ch=16 n=47 v=0
10224 On ch=16 n=38 v=114
10269 On ch=16 n=38 v=0
10608 On ch=16 n=50 v=110
10634 On ch=16 n=50 v=0
10656 On ch=16 n=48 v=110
10682 On ch=16 n=48 v=0
10704 On ch=16 n=47 v=110
10752 On ch=16 n=47 v=0
10752 On ch=16 n=43 v=100
10872 Pb ch=16 v=7510
10890 Pb ch=16 v=6827
10906 Pb ch=16 v=6144
10920 Pb ch=16 v=5462
10933 Pb ch=16 v=4779
10945 Pb ch=16 v=4096
10955 Pb ch=16 v=3413
10965 Pb ch=16 v=2731
10974 Pb ch=16 v=2048
10983 Pb ch=16 v=1365
10990 On ch=16 n=43 v=0
10991 Pb ch=16 v=8192
10992 On ch=16 n=40 v=100
11016 Pb ch=16 v=8875
11017 Pb ch=16 v=9557
11018 Pb ch=16 v=10923
11040 On ch=16 n=40 v=0
11040 Pb ch=16 v=8192
11040 On ch=16 n=47 v=100
11064 Pb ch=16 v=8875
11066 Pb ch=16 v=9557
11088 On ch=16 n=47 v=0
11088 Pb ch=16 v=8192
11088 On ch=16 n=52 v=94
11110 On ch=16 n=52 v=0
11112 On ch=16 n=49 v=98
11468 On ch=16 n=49 v=0
11472 On ch=16 n=54 v=115
11564 On ch=16 n=54 v=0
11568 On ch=16 n=56 v=110
11660 On ch=16 n=56 v=0
11664 On ch=16 n=57 v=112
11686 On ch=16 n=57 v=0
11688 On ch=16 n=56 v=107
11710 On ch=16 n=56 v=0
11736 On ch=16 n=57 v=108
11784 On ch=16 n=57 v=0
11784 On ch=16 n=56 v=102
11806 On ch=16 n=56 v=0
11808 On ch=16 n=40 v=95
11856 On ch=16 n=40 v=0
11856 On ch=16 n=40 v=90
11878 On ch=16 n=40 v=0
11880 On ch=16 n=40 v=92
11904 On ch=16 n=47 v=97
11908 On ch=16 n=40 v=0
11928 On ch=16 n=47 v=0
11928 On ch=16 n=47 v=94
11952 On ch=16 n=47 v=0
11952 On ch=16 n=47 v=97
11976 On ch=16 n=47 v=0
11976 On ch=16 n=47 v=94
12000 On ch=16 n=47 v=0
12000 On ch=16 n=40 v=92
12024 On ch=16 n=40 v=0
12024 On ch=16 n=40 v=98
12046 On ch=16 n=40 v=0
12072 On ch=16 n=40 v=93
12096 On ch=16 n=47 v=93
12099 On ch=16 n=40 v=0
12120 On ch=16 n=47 v=0
12120 On ch=16 n=47 v=90
12144 On ch=16 n=47 v=0
12144 On ch=16 n=47 v=93
12168 On ch=16 n=47 v=0
12168 On ch=16 n=47 v=90
12192 On ch=16 n=47 v=0
12192 Par ch=16 c=98 v=33
12192 Par ch=16 c=99 v=1
12192 Par ch=16 c=6 v=58
12192 On ch=16 n=36 v=92
12334 On ch=16 n=36 v=0
12336 On ch=16 n=40 v=96
12431 On ch=16 n=40 v=0
12432 On ch=16 n=43 v=90
12456 On ch=16 n=43 v=0
12480 On ch=16 n=48 v=98
12573 On ch=16 n=48 v=0
12574 On ch=16 n=47 v=99
12598 On ch=16 n=47 v=0
12623 On ch=16 n=42 v=94
12645 On ch=16 n=42 v=0
12671 On ch=16 n=38 v=92
12715 On ch=16 n=38 v=0
12719 On ch=16 n=35 v=90
12768 On ch=16 n=35 v=0
12768 On ch=16 n=35 v=90
12815 On ch=16 n=35 v=0
12816 On ch=16 n=38 v=94
12912 On ch=16 n=38 v=0
12912 On ch=16 n=40 v=94
12960 On ch=16 n=40 v=0
12960 On ch=16 n=33 v=90
13008 On ch=16 n=33 v=0
13008 On ch=16 n=40 v=95
13032 On ch=16 n=40 v=0
13056 On ch=16 n=45 v=93
13080 On ch=16 n=45 v=0
13104 On ch=16 n=47 v=97
13175 On ch=16 n=47 v=0
13176 On ch=16 n=45 v=90
13198 On ch=16 n=45 v=0
13200 On ch=16 n=47 v=92
13222 On ch=16 n=47 v=0
13224 On ch=16 n=45 v=90
13246 On ch=16 n=45 v=0
13248 On ch=16 n=47 v=94
13272 On ch=16 n=47 v=0
13272 On ch=16 n=47 v=88
13296 On ch=16 n=47 v=0
13296 On ch=16 n=47 v=80
13320 On ch=16 n=47 v=0
13320 On ch=16 n=47 v=75
13344 On ch=16 n=47 v=0
13344 Par ch=16 c=98 v=33
13344 Par ch=16 c=99 v=1
13344 Par ch=16 c=6 v=16
13344 On ch=16 n=42 v=88
13368 Pb ch=16 v=8320
13369 Pb ch=16 v=8877
13371 Pb ch=16 v=8912
13372 Pb ch=16 v=9557
13392 On ch=16 n=42 v=0
13392 Pb ch=16 v=8192
13392 On ch=16 n=47 v=88
13412 Pb ch=16 v=8320
13413 Pb ch=16 v=8875
13415 Pb ch=16 v=8912
13416 Pb ch=16 v=9557
13440 On ch=16 n=47 v=0
13440 Pb ch=16 v=8192
13440 On ch=16 n=52 v=92
13464 On ch=16 n=52 v=0
13464 On ch=16 n=49 v=88
13509 On ch=16 n=49 v=0
13512 On ch=16 n=52 v=88
13560 On ch=16 n=54 v=90
13561 On ch=16 n=52 v=0
13605 On ch=16 n=54 v=0
13608 On ch=16 n=57 v=92
13653 On ch=16 n=57 v=0
13656 On ch=16 n=59 v=94
13701 On ch=16 n=59 v=0
13704 On ch=16 n=61 v=96
13752 On ch=16 n=61 v=0
13752 On ch=16 n=62 v=94
13797 On ch=16 n=62 v=0
13800 On ch=16 n=61 v=90
13845 On ch=16 n=61 v=0
13848 On ch=16 n=59 v=88
13870 On ch=16 n=59 v=0
13872 On ch=16 n=61 v=90
13894 On ch=16 n=61 v=0
13896 On ch=16 n=59 v=87
13915 Pb ch=16 v=8064
13917 Pb ch=16 v=7509
13919 On ch=16 n=59 v=0
13919 Pb ch=16 v=7472
13920 Pb ch=16 v=8192
13920 On ch=16 n=57 v=88
13965 On ch=16 n=57 v=0
13968 On ch=16 n=59 v=92
13992 On ch=16 n=54 v=88
13993 On ch=16 n=59 v=0
14037 On ch=16 n=54 v=0
14040 On ch=16 n=50 v=82
14080 Pb ch=16 v=8064
14081 Pb ch=16 v=7509
14084 Pb ch=16 v=7472
14085 Pb ch=16 v=6827
14086 Pb ch=16 v=6144
14087 On ch=16 n=50 v=0
14087 Pb ch=16 v=8192
14088 On ch=16 n=47 v=82
14136 On ch=16 n=47 v=0
14136 On ch=16 n=44 v=82
14158 On ch=16 n=44 v=0
14160 On ch=16 n=40 v=80
14205 On ch=16 n=40 v=0
14208 On ch=16 n=28 v=96
14256 On ch=16 n=40 v=82
14258 On ch=16 n=28 v=0
14280 On ch=16 n=40 v=0
14280 On ch=16 n=40 v=82
14304 On ch=16 n=40 v=0
14304 On ch=16 n=40 v=82
14328 On ch=16 n=40 v=0
14328 On ch=16 n=40 v=82
14376 On ch=16 n=40 v=0
14376 On ch=16 n=35 v=76
14383 On ch=16 n=35 v=0
14400 On ch=16 n=40 v=88
14448 On ch=16 n=40 v=0
14448 On ch=16 n=40 v=84
14470 On ch=16 n=40 v=0
14472 On ch=16 n=40 v=82
14494 On ch=16 n=40 v=0
14496 On ch=16 n=28 v=90
14544 On ch=16 n=28 v=0
14544 On ch=16 n=28 v=82
14568 On ch=16 n=28 v=0
14568 On ch=16 n=28 v=82
14592 On ch=16 n=28 v=0
14592 On ch=16 n=28 v=90
14640 On ch=16 n=28 v=0
14640 On ch=16 n=28 v=82
14664 On ch=16 n=28 v=0
14664 On ch=16 n=28 v=82
14688 On ch=16 n=28 v=0
14688 On ch=16 n=28 v=82
14708 On ch=16 n=28 v=0
14712 On ch=16 n=28 v=82
14757 On ch=16 n=28 v=0
14760 On ch=16 n=28 v=82
14784 On ch=16 n=28 v=0
14784 On ch=16 n=28 v=82
14832 On ch=16 n=28 v=0
14832 On ch=16 n=28 v=84
14880 On ch=16 n=28 v=0
14880 On ch=16 n=45 v=104
14904 On ch=16 n=45 v=0
14904 On ch=16 n=45 v=84
14928 On ch=16 n=45 v=0
14928 On ch=16 n=45 v=84
14952 On ch=16 n=45 v=0
14952 On ch=16 n=42 v=100
14976 On ch=16 n=42 v=0
14976 On ch=16 n=42 v=84
15000 On ch=16 n=42 v=0
15000 On ch=16 n=42 v=84
15024 On ch=16 n=42 v=0
15024 On ch=16 n=40 v=100
15048 On ch=16 n=40 v=0
15048 On ch=16 n=40 v=84
15072 On ch=16 n=40 v=0
15072 On ch=16 n=40 v=84
15096 On ch=16 n=40 v=0
15096 On ch=16 n=39 v=99
15120 On ch=16 n=39 v=0
15120 On ch=16 n=39 v=84
15144 On ch=16 n=39 v=0
15144 On ch=16 n=39 v=84
15168 On ch=16 n=39 v=0
15168 On ch=16 n=37 v=100
15192 On ch=16 n=37 v=0
15192 On ch=16 n=37 v=83
15216 On ch=16 n=37 v=0
15216 On ch=16 n=37 v=84
15240 On ch=16 n=37 v=0
15240 On ch=16 n=37 v=83
15264 On ch=16 n=37 v=0
15264 On ch=16 n=36 v=100
15288 On ch=16 n=36 v=0
15288 On ch=16 n=36 v=84
15312 On ch=16 n=36 v=0
15312 On ch=16 n=36 v=84
15336 On ch=16 n=36 v=0
15336 On ch=16 n=45 v=102
15360 On ch=16 n=45 v=0
15360 On ch=16 n=45 v=84
15384 On ch=16 n=45 v=0
15384 On ch=16 n=45 v=84
15408 On ch=16 n=45 v=0
15408 On ch=16 n=43 v=100
15432 On ch=16 n=43 v=0
15432 On ch=16 n=43 v=84
15456 On ch=16 n=43 v=0
15456 On ch=16 n=43 v=84
15468 Pb ch=16 v=8320
15469 Pb ch=16 v=8875
15473 Pb ch=16 v=9557
15475 Pb ch=16 v=9652
15476 Pb ch=16 v=10240
15477 On ch=16 n=43 v=0
15477 Pb ch=16 v=10392
15478 Pb ch=16 v=10923
15479 Pb ch=16 v=8192
15480 Pb ch=16 v=7509
15480 On ch=16 n=52 v=70
15481 Pb ch=16 v=7612
15482 Pb ch=16 v=8064
15483 Pb ch=16 v=8192
15502 On ch=16 n=52 v=0
15504 On ch=16 n=57 v=100
15527 On ch=16 n=57 v=0
15528 On ch=16 n=55 v=98
15552 On ch=16 n=55 v=0
15552 On ch=16 n=52 v=98
15574 On ch=16 n=52 v=0
15576 On ch=16 n=50 v=96
15600 On ch=16 n=50 v=0
15600 On ch=16 n=48 v=96
15622 On ch=16 n=48 v=0
15624 On ch=16 n=45 v=80
15646 On ch=16 n=45 v=0
15648 On ch=16 n=41 v=104
15672 On ch=16 n=41 v=0
15672 On ch=16 n=41 v=84
15696 On ch=16 n=41 v=0
15696 On ch=16 n=41 v=84
15720 On ch=16 n=41 v=0
15720 On ch=16 n=33 v=100
15744 On ch=16 n=33 v=0
15744 On ch=16 n=33 v=84
15768 On ch=16 n=33 v=0
15768 On ch=16 n=33 v=84
15792 On ch=16 n=33 v=0
15792 On ch=16 n=38 v=102
15816 On ch=16 n=38 v=0
15816 On ch=16 n=38 v=84
15840 On ch=16 n=38 v=0
15840 On ch=16 n=38 v=84
15864 On ch=16 n=38 v=0
15864 On ch=16 n=36 v=100
15888 On ch=16 n=36 v=0
15888 On ch=16 n=36 v=84
15912 On ch=16 n=36 v=0
15912 On ch=16 n=36 v=84
15936 On ch=16 n=36 v=0
15936 On ch=16 n=33 v=98
15960 On ch=16 n=33 v=0
15960 On ch=16 n=33 v=84
15984 On ch=16 n=33 v=0
15984 On ch=16 n=36 v=100
16008 On ch=16 n=36 v=0
16008 On ch=16 n=36 v=84
16032 On ch=16 n=36 v=0
16032 On ch=16 n=34 v=98
16056 On ch=16 n=34 v=0
16056 On ch=16 n=34 v=84
16080 On ch=16 n=34 v=0
16080 On ch=16 n=34 v=84
16104 On ch=16 n=34 v=0
16104 On ch=16 n=33 v=98
16128 On ch=16 n=33 v=0
16128 On ch=16 n=33 v=84
16152 On ch=16 n=33 v=0
16152 On ch=16 n=33 v=84
16176 On ch=16 n=33 v=0
16176 On ch=16 n=34 v=98
16200 On ch=16 n=34 v=0
16200 On ch=16 n=34 v=84
16224 On ch=16 n=34 v=0
16248 On ch=16 n=36 v=100
16272 On ch=16 n=36 v=0
16296 On ch=16 n=36 v=84
16318 On ch=16 n=36 v=0
16320 On ch=16 n=36 v=94
16344 Pb ch=16 v=8320
16345 Pb ch=16 v=8875
16346 Pb ch=16 v=9557
16368 On ch=16 n=36 v=0
16368 Pb ch=16 v=8192
16368 On ch=16 n=41 v=90
16413 On ch=16 n=41 v=0
16416 On ch=16 n=32 v=100
16440 On ch=16 n=32 v=0
16440 On ch=16 n=32 v=84
16464 On ch=16 n=32 v=0
16464 On ch=16 n=32 v=84
16488 On ch=16 n=32 v=0
16488 On ch=16 n=31 v=100
16512 On ch=16 n=31 v=0
16512 On ch=16 n=31 v=84
16536 On ch=16 n=31 v=0
16536 On ch=16 n=31 v=84
16560 On ch=16 n=31 v=0
16560 On ch=16 n=32 v=100
16584 On ch=16 n=32 v=0
16584 On ch=16 n=32 v=84
16608 On ch=16 n=32 v=0
16608 On ch=16 n=32 v=84
16632 On ch=16 n=32 v=0
16632 On ch=16 n=34 v=98
16680 On ch=16 n=34 v=0
16680 On ch=16 n=34 v=94
16704 On ch=16 n=34 v=0
16704 On ch=16 n=34 v=98
16728 Pb ch=16 v=8320
16729 Pb ch=16 v=8875
16730 Pb ch=16 v=9557
16752 Pb ch=16 v=8192
16752 On ch=16 n=39 v=100
16753 On ch=16 n=34 v=0
16800 On ch=16 n=39 v=0
16800 On ch=16 n=41 v=100
16845 On ch=16 n=41 v=0
16848 On ch=16 n=41 v=88
16870 On ch=16 n=41 v=0
16872 On ch=16 n=41 v=87
16894 On ch=16 n=41 v=0
16896 On ch=16 n=33 v=98
16920 On ch=16 n=33 v=0
16920 On ch=16 n=33 v=88
16944 On ch=16 n=33 v=0
16944 On ch=16 n=33 v=90
16968 On ch=16 n=33 v=0
16968 On ch=16 n=33 v=88
16992 On ch=16 n=33 v=0
16992 On ch=16 n=36 v=100
17016 On ch=16 n=36 v=0
17016 On ch=16 n=36 v=88
17040 On ch=16 n=36 v=0
17040 On ch=16 n=36 v=92
17064 On ch=16 n=36 v=0
17064 On ch=16 n=36 v=88
17088 On ch=16 n=36 v=0
17088 On ch=16 n=33 v=94
17133 On ch=16 n=33 v=0
17136 On ch=16 n=45 v=104
17160 On ch=16 n=45 v=0
17160 On ch=16 n=45 v=84
17184 On ch=16 n=45 v=0
17184 On ch=16 n=45 v=84
17208 On ch=16 n=45 v=0
17208 On ch=16 n=42 v=100
17232 On ch=16 n=42 v=0
17232 On ch=16 n=42 v=84
17256 On ch=16 n=42 v=0
17256 On ch=16 n=42 v=84
17280 On ch=16 n=42 v=0
17280 On ch=16 n=40 v=100
17304 On ch=16 n=40 v=0
17304 On ch=16 n=40 v=84
17328 On ch=16 n=40 v=0
17328 On ch=16 n=40 v=84
17352 On ch=16 n=40 v=0
17352 On ch=16 n=39 v=99
17376 On ch=16 n=39 v=0
17376 On ch=16 n=39 v=84
17400 On ch=16 n=39 v=0
17400 On ch=16 n=39 v=84
17424 On ch=16 n=39 v=0
17424 On ch=16 n=37 v=100
17448 On ch=16 n=37 v=0
17448 On ch=16 n=37 v=83
17472 On ch=16 n=37 v=0
17472 On ch=16 n=37 v=84
17496 On ch=16 n=37 v=0
17496 On ch=16 n=37 v=83
17520 On ch=16 n=37 v=0
17520 On ch=16 n=36 v=100
17544 On ch=16 n=36 v=0
17544 On ch=16 n=36 v=84
17568 On ch=16 n=36 v=0
17568 On ch=16 n=36 v=84
17592 On ch=16 n=36 v=0
17592 On ch=16 n=45 v=102
17616 On ch=16 n=45 v=0
17616 On ch=16 n=45 v=84
17640 On ch=16 n=45 v=0
17640 On ch=16 n=45 v=84
17664 On ch=16 n=45 v=0
17664 On ch=16 n=43 v=100
17688 On ch=16 n=43 v=0
17688 On ch=16 n=43 v=84
17712 On ch=16 n=43 v=0
17712 On ch=16 n=43 v=84
17724 Pb ch=16 v=8320
17725 Pb ch=16 v=8875
17729 Pb ch=16 v=9557
17731 Pb ch=16 v=9652
17732 Pb ch=16 v=10240
17733 On ch=16 n=43 v=0
17733 Pb ch=16 v=10392
17734 Pb ch=16 v=10923
17735 Pb ch=16 v=8192
17736 Pb ch=16 v=7509
17736 On ch=16 n=52 v=50
17737 Pb ch=16 v=7612
17738 Pb ch=16 v=8064
17739 Pb ch=16 v=8192
17758 On ch=16 n=52 v=0
17760 On ch=16 n=57 v=100
17783 On ch=16 n=57 v=0
17784 On ch=16 n=55 v=98
17808 On ch=16 n=55 v=0
17808 On ch=16 n=52 v=98
17830 On ch=16 n=52 v=0
17832 On ch=16 n=50 v=96
17856 On ch=16 n=50 v=0
17856 On ch=16 n=48 v=96
17878 On ch=16 n=48 v=0
17880 On ch=16 n=45 v=80
17902 On ch=16 n=45 v=0
17904 On ch=16 n=41 v=104
17928 On ch=16 n=41 v=0
17928 On ch=16 n=41 v=84
17952 On ch=16 n=41 v=0
17952 On ch=16 n=41 v=84
17976 On ch=16 n=41 v=0
17976 On ch=16 n=33 v=100
18000 On ch=16 n=33 v=0
18000 On ch=16 n=33 v=84
18024 On ch=16 n=33 v=0
18024 On ch=16 n=33 v=84
18048 On ch=16 n=33 v=0
18048 On ch=16 n=38 v=102
18072 On ch=16 n=38 v=0
18072 On ch=16 n=38 v=84
18096 On ch=16 n=38 v=0
18096 On ch=16 n=38 v=84
18120 On ch=16 n=38 v=0
18120 On ch=16 n=36 v=100
18144 On ch=16 n=36 v=0
18144 On ch=16 n=36 v=84
18168 On ch=16 n=36 v=0
18168 On ch=16 n=36 v=84
18192 On ch=16 n=36 v=0
18192 On ch=16 n=33 v=98
18216 On ch=16 n=33 v=0
18216 On ch=16 n=33 v=84
18240 On ch=16 n=33 v=0
18240 On ch=16 n=36 v=100
18264 On ch=16 n=36 v=0
18264 On ch=16 n=36 v=84
18288 On ch=16 n=36 v=0
18288 On ch=16 n=34 v=98
18312 On ch=16 n=34 v=0
18312 On ch=16 n=34 v=84
18336 On ch=16 n=34 v=0
18336 On ch=16 n=34 v=84
18360 On ch=16 n=34 v=0
18360 On ch=16 n=33 v=98
18384 On ch=16 n=33 v=0
18384 On ch=16 n=33 v=84
18408 On ch=16 n=33 v=0
18408 On ch=16 n=33 v=84
18432 On ch=16 n=33 v=0
18432 On ch=16 n=34 v=98
18456 On ch=16 n=34 v=0
18456 On ch=16 n=34 v=84
18496 On ch=16 n=34 v=0
18504 On ch=16 n=36 v=100
18528 On ch=16 n=36 v=0
18552 On ch=16 n=36 v=84
18574 On ch=16 n=36 v=0
18576 On ch=16 n=36 v=94
18600 Pb ch=16 v=8320
18601 Pb ch=16 v=8875
18602 Pb ch=16 v=9557
18624 On ch=16 n=36 v=0
18624 Pb ch=16 v=8192
18624 On ch=16 n=41 v=96
18648 On ch=16 n=41 v=0
18648 On ch=16 n=41 v=85
18672 On ch=16 n=41 v=0
18672 On ch=16 n=32 v=100
18696 On ch=16 n=32 v=0
18696 On ch=16 n=32 v=84
18720 On ch=16 n=32 v=0
18720 On ch=16 n=32 v=84
18744 On ch=16 n=32 v=0
18744 On ch=16 n=31 v=100
18768 On ch=16 n=31 v=0
18768 On ch=16 n=31 v=84
18792 On ch=16 n=31 v=0
18792 On ch=16 n=31 v=84
18816 On ch=16 n=31 v=0
18816 On ch=16 n=32 v=100
18840 On ch=16 n=32 v=0
18840 On ch=16 n=32 v=84
18864 On ch=16 n=32 v=0
18864 On ch=16 n=32 v=84
18888 On ch=16 n=32 v=0
18888 On ch=16 n=34 v=98
18936 On ch=16 n=34 v=0
18936 On ch=16 n=34 v=94
18960 On ch=16 n=34 v=0
18960 On ch=16 n=34 v=98
18984 Pb ch=16 v=8320
18985 Pb ch=16 v=8875
18986 Pb ch=16 v=9557
19008 Pb ch=16 v=8192
19008 On ch=16 n=39 v=100
19009 On ch=16 n=34 v=0
19056 On ch=16 n=39 v=0
19056 On ch=16 n=41 v=100
19078 On ch=16 n=41 v=0
19080 On ch=16 n=41 v=102
19102 On ch=16 n=41 v=0
19128 On ch=16 n=41 v=94
19148 On ch=16 n=41 v=0
19152 On ch=16 n=41 v=100
19174 On ch=16 n=41 v=0
19176 On ch=16 n=41 v=100
19198 On ch=16 n=41 v=0
19224 On ch=16 n=41 v=94
19244 On ch=16 n=41 v=0
19248 On ch=16 n=41 v=100
19270 On ch=16 n=41 v=0
19272 On ch=16 n=38 v=90
19294 On ch=16 n=38 v=0
19296 On ch=16 n=36 v=88
19341 On ch=16 n=36 v=0
19344 On ch=16 n=33 v=102
19376 On ch=16 n=33 v=0
19392 Par ch=16 c=10 v=110
19392 On ch=16 n=31 v=120
19460 On ch=16 n=31 v=0
19464 On ch=16 n=33 v=106
19486 On ch=16 n=33 v=0
19488 On ch=16 n=35 v=109
19510 On ch=16 n=35 v=0
19512 On ch=16 n=36 v=106
19534 On ch=16 n=36 v=0
19536 On ch=16 n=38 v=109
19558 On ch=16 n=38 v=0
19560 On ch=16 n=40 v=106
19582 On ch=16 n=40 v=0
19584 On ch=16 n=42 v=110
19606 On ch=16 n=42 v=0
19608 On ch=16 n=43 v=110
19654 On ch=16 n=43 v=0
19656 On ch=16 n=45 v=102
19678 On ch=16 n=45 v=0
19680 On ch=16 n=47 v=105
19702 On ch=16 n=47 v=0
19704 On ch=16 n=48 v=102
19725 On ch=16 n=48 v=0
19728 Pb ch=16 v=7509
19728 On ch=16 n=50 v=102
19730 Pb ch=16 v=7532
19731 Pb ch=16 v=8192
19750 On ch=16 n=50 v=0
19753 On ch=16 n=48 v=100
19775 On ch=16 n=48 v=0
19776 On ch=16 n=47 v=102
19798 On ch=16 n=47 v=0
19800 On ch=16 n=33 v=102
19804 Pb ch=16 v=7509
19808 Pb ch=16 v=6827
19815 Pb ch=16 v=6144
19818 Pb ch=16 v=5461
19820 Pb ch=16 v=4779
19822 On ch=16 n=33 v=0
19823 Pb ch=16 v=8192
19823 Par ch=16 c=10 v=24
19824 Par ch=16 c=98 v=33
19824 Par ch=16 c=99 v=1
19824 Par ch=16 c=6 v=16
19824 On ch=16 n=40 v=104
19847 Pb ch=16 v=8875
19849 Pb ch=16 v=9557
19850 Pb ch=16 v=10240
19851 Pb ch=16 v=10923
19872 On ch=16 n=40 v=0
19872 Pb ch=16 v=8192
19872 On ch=16 n=47 v=112
19894 Par ch=16 c=65 v=127
19894 On ch=16 n=49 v=96
19896 On ch=16 n=47 v=0
19918 On ch=16 n=49 v=0
19920 Par ch=16 c=65 v=0
19920 On ch=16 n=52 v=114
19942 On ch=16 n=52 v=0
19944 On ch=16 n=49 v=110
20593 On ch=16 n=49 v=0
20688 Pb ch=16 v=8064
20688 On ch=16 n=40 v=104
20711 Pb ch=16 v=8875
20713 Pb ch=16 v=9557
20714 Pb ch=16 v=10240
20715 Pb ch=16 v=10923
20736 On ch=16 n=40 v=0
20736 Pb ch=16 v=8192
20736 On ch=16 n=47 v=112
20758 Par ch=16 c=65 v=127
20758 On ch=16 n=49 v=96
20760 On ch=16 n=47 v=0
20782 On ch=16 n=49 v=0
20784 Par ch=16 c=65 v=0
20784 On ch=16 n=52 v=114
20806 On ch=16 n=52 v=0
20808 On ch=16 n=49 v=110
21457 On ch=16 n=49 v=0
21504 Par ch=16 c=98 v=33
21504 Par ch=16 c=99 v=1
21504 Par ch=16 c=6 v=58
21552 Pb ch=16 v=8064
21552 On ch=16 n=30 v=120
21576 Pb ch=16 v=9557
21599 Pb ch=16 v=8192
21600 On ch=16 n=30 v=0
21600 On ch=16 n=35 v=109
21624 Pb ch=16 v=9557
21647 Pb ch=16 v=8192
21648 On ch=16 n=35 v=0
21648 On ch=16 n=40 v=102
21670 On ch=16 n=40 v=0
21672 On ch=16 n=37 v=100
22032 On ch=16 n=37 v=0
22080 Pb ch=16 v=7509
22080 On ch=16 n=49 v=90
22083 Pb ch=16 v=8192
22128 On ch=16 n=49 v=0
22128 On ch=16 n=47 v=88
22176 On ch=16 n=47 v=0
22176 On ch=16 n=44 v=84
22224 On ch=16 n=44 v=0
22224 On ch=16 n=40 v=85
22272 On ch=16 n=40 v=0
22272 On ch=16 n=28 v=80
22274 On ch=16 n=28 v=0
22296 On ch=16 n=28 v=78
22316 On ch=16 n=28 v=0
22320 Pb ch=16 v=6827
22320 On ch=16 n=32 v=86
22339 Pb ch=16 v=6992
22340 Pb ch=16 v=7040
22341 Pb ch=16 v=7509
22349 Pb ch=16 v=7592
22350 Pb ch=16 v=8064
22351 Pb ch=16 v=8192
22368 On ch=16 n=32 v=0
22368 On ch=16 n=35 v=87
22415 On ch=16 n=35 v=0
22416 On ch=16 n=35 v=84
22440 Pb ch=16 v=9557
22463 On ch=16 n=35 v=0
22463 Pb ch=16 v=8192
22464 On ch=16 n=40 v=85
22502 Pb ch=16 v=7509
22505 Pb ch=16 v=6827
22507 Pb ch=16 v=6144
22508 Pb ch=16 v=5461
22510 Pb ch=16 v=4779
22512 On ch=16 n=40 v=0
22512 Pb ch=16 v=8192
22512 On ch=16 n=35 v=82
22536 Pb ch=16 v=9557
22559 Pb ch=16 v=8192
22560 On ch=16 n=35 v=0
22560 On ch=16 n=40 v=80
22606 On ch=16 n=40 v=0
22608 Pb ch=16 v=8064
22608 On ch=16 n=30 v=110
22632 Pb ch=16 v=9557
22655 Pb ch=16 v=8192
22656 On ch=16 n=30 v=0
22656 On ch=16 n=35 v=98
22680 Pb ch=16 v=9557
22703 Pb ch=16 v=8192
22704 On ch=16 n=35 v=0
22704 On ch=16 n=40 v=100
22726 On ch=16 n=40 v=0
22728 On ch=16 n=37 v=96
22992 Pb ch=16 v=7509
22993 On ch=16 n=37 v=0
23040 On ch=16 n=37 v=90
23043 Pb ch=16 v=8192
23136 On ch=16 n=37 v=0
23136 On ch=16 n=35 v=90
23232 On ch=16 n=35 v=0
23232 On ch=16 n=32 v=90
23280 On ch=16 n=32 v=0
23280 On ch=16 n=28 v=85
23328 On ch=16 n=28 v=0
23328 On ch=16 n=28 v=80
23348 On ch=16 n=28 v=0
23352 On ch=16 n=28 v=78
23376 On ch=16 n=28 v=0
23376 Pb ch=16 v=6827
23376 On ch=16 n=32 v=86
23395 Pb ch=16 v=6992
23396 Pb ch=16 v=7040
23397 Pb ch=16 v=7509
23405 Pb ch=16 v=7592
23406 Pb ch=16 v=8064
23407 Pb ch=16 v=8192
23424 On ch=16 n=32 v=0
23424 On ch=16 n=35 v=87
23471 On ch=16 n=35 v=0
23472 On ch=16 n=35 v=84
23496 Pb ch=16 v=9557
23519 On ch=16 n=35 v=0
23519 Pb ch=16 v=8192
23520 On ch=16 n=40 v=85
23558 Pb ch=16 v=7509
23561 Pb ch=16 v=6827
23563 Pb ch=16 v=6144
23564 Pb ch=16 v=5461
23566 Pb ch=16 v=4779
23568 On ch=16 n=40 v=0
23568 Pb ch=16 v=8192
23568 On ch=16 n=35 v=82
23592 Pb ch=16 v=9557
23615 Pb ch=16 v=8192
23616 On ch=16 n=35 v=0
23616 On ch=16 n=40 v=80
23662 On ch=16 n=40 v=0
23664 Pb ch=16 v=7509
23664 On ch=16 n=40 v=80
23667 Pb ch=16 v=8192
23687 Pb ch=16 v=8875
23688 Pb ch=16 v=9557
23689 Pb ch=16 v=10240
23691 Pb ch=16 v=10923
23710 On ch=16 n=40 v=0
23712 Pb ch=16 v=8192
23712 On ch=16 n=47 v=80
23736 Pb ch=16 v=9557
23760 On ch=16 n=47 v=0
23760 Pb ch=16 v=8192
23760 On ch=16 n=52 v=80
23782 On ch=16 n=52 v=0
23784 On ch=16 n=54 v=80
24000 On ch=16 n=54 v=0
24000 Pb ch=16 v=9557
24000 On ch=16 n=54 v=108
24001 Pb ch=16 v=8874
24002 Pb ch=16 v=8192
24192 On ch=16 n=54 v=0
24192 Pb ch=16 v=9557
24192 On ch=16 n=54 v=108
24194 Pb ch=16 v=8874
24195 Pb ch=16 v=8192
24324 Pb ch=16 v=7509
24327 Pb ch=16 v=6827
24330 Pb ch=16 v=6144
24332 Pb ch=16 v=6461
24333 Pb ch=16 v=4779
24334 Pb ch=16 v=3413
24335 Pb ch=16 v=2048
24336 On ch=16 n=54 v=0
24336 Pb ch=16 v=8192
24336 On ch=16 n=40 v=108
24381 On ch=16 n=40 v=0
24384 On ch=16 n=40 v=108
24429 On ch=16 n=40 v=0
24432 On ch=16 n=47 v=108
24512 Pb ch=16 v=7509
24516 Pb ch=16 v=6827
24519 Pb ch=16 v=6144
24521 Pb ch=16 v=5461
24523 On ch=16 n=47 v=0
24523 Pb ch=16 v=4779
24524 Pb ch=16 v=4096
24525 Pb ch=16 v=3413
24526 Pb ch=16 v=8192
24528 On ch=16 n=38 v=114
24576 On ch=16 n=38 v=0
24912 On ch=16 n=50 v=110
24938 On ch=16 n=50 v=0
24960 On ch=16 n=48 v=110
24984 On ch=16 n=48 v=0
25008 On ch=16 n=47 v=110
25056 On ch=16 n=47 v=0
25056 On ch=16 n=43 v=100
25176 Pb ch=16 v=7510
25194 Pb ch=16 v=6827
25210 Pb ch=16 v=6144
25224 Pb ch=16 v=5462
25237 Pb ch=16 v=4779
25249 Pb ch=16 v=4096
25259 Pb ch=16 v=3413
25269 Pb ch=16 v=2731
25278 Pb ch=16 v=2048
25287 Pb ch=16 v=1365
25294 On ch=16 n=43 v=0
25295 Pb ch=16 v=8192
25296 On ch=16 n=40 v=120
25299 Pb ch=16 v=8192
25319 Pb ch=16 v=8875
25320 Pb ch=16 v=9557
25321 Pb ch=16 v=10240
25323 Pb ch=16 v=10923
25342 On ch=16 n=40 v=0
25344 Pb ch=16 v=8192
25344 On ch=16 n=47 v=110
25368 Pb ch=16 v=9557
25392 On ch=16 n=47 v=0
25392 Pb ch=16 v=8192
25392 On ch=16 n=52 v=115
25414 On ch=16 n=52 v=0
25416 On ch=16 n=49 v=110
25776 Pb ch=16 v=6827
25776 On ch=16 n=54 v=115
25777 On ch=16 n=49 v=0
25777 Pb ch=16 v=7509
25778 Pb ch=16 v=8192
25872 On ch=16 n=56 v=115
25873 On ch=16 n=54 v=0
25968 On ch=16 n=57 v=118
25969 On ch=16 n=56 v=0
25990 On ch=16 n=57 v=0
25992 On ch=16 n=56 v=105
26016 On ch=16 n=56 v=0
26040 On ch=16 n=57 v=115
26064 On ch=16 n=57 v=0
26088 On ch=16 n=56 v=105
26110 On ch=16 n=56 v=0
26112 On ch=16 n=52 v=90
26157 On ch=16 n=52 v=0
33984 On ch=16 n=33 v=115
34366 On ch=16 n=33 v=0
34368 On ch=16 n=31 v=108
34750 On ch=16 n=31 v=0
34752 On ch=16 n=29 v=104
35134 On ch=16 n=29 v=0
35136 On ch=16 n=29 v=96
35329 On ch=16 n=29 v=0
35520 On ch=16 n=45 v=104
35544 On ch=16 n=45 v=0
35544 On ch=16 n=45 v=75
35568 On ch=16 n=45 v=0
35568 On ch=16 n=45 v=75
35592 On ch=16 n=45 v=0
35592 On ch=16 n=42 v=100
35616 On ch=16 n=42 v=0
35616 On ch=16 n=42 v=75
35640 On ch=16 n=42 v=0
35640 On ch=16 n=42 v=75
35664 On ch=16 n=42 v=0
35664 On ch=16 n=40 v=100
35688 On ch=16 n=40 v=0
35688 On ch=16 n=40 v=75
35712 On ch=16 n=40 v=0
35712 On ch=16 n=40 v=75
35736 On ch=16 n=40 v=0
35736 On ch=16 n=39 v=99
35760 On ch=16 n=39 v=0
35760 On ch=16 n=39 v=75
35784 On ch=16 n=39 v=0
35784 On ch=16 n=39 v=75
35808 On ch=16 n=39 v=0
35808 On ch=16 n=37 v=100
35832 On ch=16 n=37 v=0
35832 On ch=16 n=37 v=75
35856 On ch=16 n=37 v=0
35856 On ch=16 n=37 v=75
35880 On ch=16 n=37 v=0
35880 On ch=16 n=37 v=74
35904 On ch=16 n=37 v=0
35904 On ch=16 n=36 v=100
35928 On ch=16 n=36 v=0
35928 On ch=16 n=36 v=75
35952 On ch=16 n=36 v=0
35952 On ch=16 n=36 v=75
35976 On ch=16 n=36 v=0
35976 On ch=16 n=45 v=102
36000 On ch=16 n=45 v=0
36000 On ch=16 n=45 v=75
36024 On ch=16 n=45 v=0
36024 On ch=16 n=45 v=75
36048 On ch=16 n=45 v=0
36048 On ch=16 n=43 v=100
36072 On ch=16 n=43 v=0
36072 On ch=16 n=43 v=75
36088 Pb ch=16 v=8875
36092 Pb ch=16 v=9557
36094 Pb ch=16 v=10240
36095 Pb ch=16 v=10923
36096 Pb ch=16 v=11605
36097 Pb ch=16 v=12288
36098 Pb ch=16 v=12971
36099 Pb ch=16 v=13653
36100 Pb ch=16 v=14336
36119 On ch=16 n=43 v=0
36120 Pb ch=16 v=8192
36120 On ch=16 n=57 v=100
36165 On ch=16 n=57 v=0
36168 On ch=16 n=55 v=98
36192 On ch=16 n=55 v=0
36192 On ch=16 n=52 v=98
36214 On ch=16 n=52 v=0
36216 On ch=16 n=50 v=96
36240 On ch=16 n=50 v=0
36240 On ch=16 n=48 v=84
36264 Pb ch=16 v=7509
36267 Pb ch=16 v=6827
36268 Pb ch=16 v=6144
36284 On ch=16 n=48 v=0
36288 Pb ch=16 v=8192
36288 On ch=16 n=41 v=104
36312 On ch=16 n=41 v=0
36312 On ch=16 n=41 v=74
36336 On ch=16 n=41 v=0
36336 On ch=16 n=41 v=74
36360 On ch=16 n=41 v=0
36360 On ch=16 n=33 v=100
36384 On ch=16 n=33 v=0
36384 On ch=16 n=33 v=74
36408 On ch=16 n=33 v=0
36408 On ch=16 n=33 v=74
36432 On ch=16 n=33 v=0
36432 On ch=16 n=38 v=102
36456 On ch=16 n=38 v=0
36456 On ch=16 n=38 v=74
36480 On ch=16 n=38 v=0
36480 On ch=16 n=38 v=74
36504 On ch=16 n=38 v=0
36504 On ch=16 n=36 v=100
36528 On ch=16 n=36 v=0
36528 On ch=16 n=36 v=74
36552 On ch=16 n=36 v=0
36552 On ch=16 n=36 v=74
36576 On ch=16 n=36 v=0
36576 On ch=16 n=33 v=98
36600 On ch=16 n=33 v=0
36600 On ch=16 n=33 v=74
36624 On ch=16 n=33 v=0
36624 On ch=16 n=36 v=100
36648 On ch=16 n=36 v=0
36648 On ch=16 n=36 v=74
36672 On ch=16 n=36 v=0
36672 On ch=16 n=34 v=98
36696 On ch=16 n=34 v=0
36696 On ch=16 n=34 v=74
36720 On ch=16 n=34 v=0
36720 On ch=16 n=34 v=74
36744 On ch=16 n=34 v=0
36744 On ch=16 n=33 v=98
36768 On ch=16 n=33 v=0
36768 On ch=16 n=33 v=74
36792 On ch=16 n=33 v=0
36792 On ch=16 n=33 v=74
36816 On ch=16 n=33 v=0
36816 On ch=16 n=34 v=98
36840 On ch=16 n=34 v=0
36840 On ch=16 n=34 v=74
36864 On ch=16 n=34 v=0
36864 On ch=16 n=34 v=74
36886 On ch=16 n=34 v=0
36888 On ch=16 n=36 v=100
36912 On ch=16 n=36 v=0
36936 On ch=16 n=36 v=84
36958 On ch=16 n=36 v=0
36960 On ch=16 n=36 v=94
36983 Pb ch=16 v=8320
36985 Pb ch=16 v=8875
36987 Pb ch=16 v=9557
37008 On ch=16 n=36 v=0
37008 Pb ch=16 v=8192
37008 On ch=16 n=41 v=90
37053 On ch=16 n=41 v=0
37056 On ch=16 n=45 v=104
37080 On ch=16 n=45 v=0
37080 On ch=16 n=45 v=75
37104 On ch=16 n=45 v=0
37104 On ch=16 n=45 v=75
37128 On ch=16 n=45 v=0
37128 On ch=16 n=42 v=100
37152 On ch=16 n=42 v=0
37152 On ch=16 n=42 v=75
37176 On ch=16 n=42 v=0
37176 On ch=16 n=42 v=75
37200 On ch=16 n=42 v=0
37200 On ch=16 n=40 v=100
37224 On ch=16 n=40 v=0
37224 On ch=16 n=40 v=75
37248 On ch=16 n=40 v=0
37248 On ch=16 n=40 v=75
37272 On ch=16 n=40 v=0
37272 On ch=16 n=39 v=99
37296 On ch=16 n=39 v=0
37296 On ch=16 n=39 v=75
37320 On ch=16 n=39 v=0
37320 On ch=16 n=39 v=75
37344 On ch=16 n=39 v=0
37344 On ch=16 n=37 v=100
37368 On ch=16 n=37 v=0
37368 On ch=16 n=37 v=75
37392 On ch=16 n=37 v=0
37392 On ch=16 n=37 v=75
37416 On ch=16 n=37 v=0
37416 On ch=16 n=37 v=74
37440 On ch=16 n=37 v=0
37440 On ch=16 n=36 v=100
37464 On ch=16 n=36 v=0
37464 On ch=16 n=36 v=75
37488 On ch=16 n=36 v=0
37488 On ch=16 n=36 v=75
37512 On ch=16 n=36 v=0
37512 On ch=16 n=45 v=102
37536 On ch=16 n=45 v=0
37536 On ch=16 n=45 v=75
37560 On ch=16 n=45 v=0
37560 On ch=16 n=45 v=75
37584 On ch=16 n=45 v=0
37584 On ch=16 n=43 v=100
37608 On ch=16 n=43 v=0
37608 On ch=16 n=43 v=75
37624 Pb ch=16 v=8875
37628 Pb ch=16 v=9557
37630 Pb ch=16 v=10240
37631 Pb ch=16 v=10923
37632 Pb ch=16 v=11605
37633 Pb ch=16 v=12288
37634 Pb ch=16 v=12971
37635 Pb ch=16 v=13653
37636 Pb ch=16 v=14336
37655 On ch=16 n=43 v=0
37656 Pb ch=16 v=8192
37656 On ch=16 n=57 v=100
37701 On ch=16 n=57 v=0
37704 On ch=16 n=55 v=98
37728 On ch=16 n=55 v=0
37728 On ch=16 n=52 v=98
37750 On ch=16 n=52 v=0
37752 On ch=16 n=50 v=96
37776 On ch=16 n=50 v=0
37776 On ch=16 n=48 v=84
37800 Pb ch=16 v=7509
37803 Pb ch=16 v=6827
37804 Pb ch=16 v=6144
37808 On ch=16 n=48 v=0
37824 Pb ch=16 v=8192
37824 On ch=16 n=41 v=104
37848 On ch=16 n=41 v=0
37848 On ch=16 n=41 v=74
37872 On ch=16 n=41 v=0
37872 On ch=16 n=41 v=74
37896 On ch=16 n=41 v=0
37896 On ch=16 n=33 v=100
37920 On ch=16 n=33 v=0
37920 On ch=16 n=33 v=74
37944 On ch=16 n=33 v=0
37944 On ch=16 n=33 v=74
37968 On ch=16 n=33 v=0
37968 On ch=16 n=38 v=102
37992 On ch=16 n=38 v=0
37992 On ch=16 n=38 v=74
38016 On ch=16 n=38 v=0
38016 On ch=16 n=38 v=74
38040 On ch=16 n=38 v=0
38040 On ch=16 n=36 v=100
38064 On ch=16 n=36 v=0
38064 On ch=16 n=36 v=74
38088 On ch=16 n=36 v=0
38088 On ch=16 n=36 v=74
38112 On ch=16 n=36 v=0
38112 On ch=16 n=33 v=98
38136 On ch=16 n=33 v=0
38136 On ch=16 n=33 v=74
38160 On ch=16 n=33 v=0
38160 On ch=16 n=36 v=100
38184 On ch=16 n=36 v=0
38184 On ch=16 n=36 v=74
38208 On ch=16 n=36 v=0
38208 On ch=16 n=34 v=98
38232 On ch=16 n=34 v=0
38232 On ch=16 n=34 v=74
38256 On ch=16 n=34 v=0
38256 On ch=16 n=34 v=74
38280 On ch=16 n=34 v=0
38280 On ch=16 n=33 v=98
38304 On ch=16 n=33 v=0
38304 On ch=16 n=33 v=74
38328 On ch=16 n=33 v=0
38328 On ch=16 n=33 v=74
38352 On ch=16 n=33 v=0
38352 On ch=16 n=34 v=98
38376 On ch=16 n=34 v=0
38376 On ch=16 n=34 v=74
38400 On ch=16 n=34 v=0
38400 On ch=16 n=34 v=74
38422 On ch=16 n=34 v=0
38424 On ch=16 n=36 v=100
38448 On ch=16 n=36 v=0
38472 On ch=16 n=36 v=84
38494 On ch=16 n=36 v=0
38496 On ch=16 n=36 v=94
38519 Pb ch=16 v=8320
38521 Pb ch=16 v=8875
38523 Pb ch=16 v=9557
38544 On ch=16 n=36 v=0
38544 Pb ch=16 v=8192
38544 On ch=16 n=41 v=90
38589 On ch=16 n=41 v=0
38592 On ch=16 n=45 v=104
38616 On ch=16 n=45 v=0
38616 On ch=16 n=45 v=75
38640 On ch=16 n=45 v=0
38640 On ch=16 n=45 v=75
38664 On ch=16 n=45 v=0
38664 On ch=16 n=42 v=100
38688 On ch=16 n=42 v=0
38688 On ch=16 n=42 v=75
38712 On ch=16 n=42 v=0
38712 On ch=16 n=42 v=75
38736 On ch=16 n=42 v=0
38736 On ch=16 n=40 v=100
38760 On ch=16 n=40 v=0
38760 On ch=16 n=40 v=75
38784 On ch=16 n=40 v=0
38784 On ch=16 n=40 v=75
38808 On ch=16 n=40 v=0
38808 On ch=16 n=39 v=99
38832 On ch=16 n=39 v=0
38832 On ch=16 n=39 v=75
38856 On ch=16 n=39 v=0
38856 On ch=16 n=39 v=75
38880 On ch=16 n=39 v=0
38880 On ch=16 n=37 v=100
38904 On ch=16 n=37 v=0
38904 On ch=16 n=37 v=75
38928 On ch=16 n=37 v=0
38928 On ch=16 n=37 v=75
38952 On ch=16 n=37 v=0
38952 On ch=16 n=37 v=74
38976 On ch=16 n=37 v=0
38976 On ch=16 n=36 v=100
39000 On ch=16 n=36 v=0
39000 On ch=16 n=36 v=75
39024 On ch=16 n=36 v=0
39024 On ch=16 n=36 v=75
39048 On ch=16 n=36 v=0
39048 On ch=16 n=45 v=102
39072 On ch=16 n=45 v=0
39072 On ch=16 n=45 v=75
39096 On ch=16 n=45 v=0
39096 On ch=16 n=45 v=75
39120 On ch=16 n=45 v=0
39120 On ch=16 n=43 v=100
39144 On ch=16 n=43 v=0
39144 On ch=16 n=43 v=75
39160 Pb ch=16 v=8875
39164 Pb ch=16 v=9557
39166 Pb ch=16 v=10240
39167 Pb ch=16 v=10923
39168 Pb ch=16 v=11605
39169 Pb ch=16 v=12288
39170 Pb ch=16 v=12971
39171 Pb ch=16 v=13653
39172 Pb ch=16 v=14336
39191 On ch=16 n=43 v=0
39192 Pb ch=16 v=8192
39193 On ch=16 n=57 v=97
39238 On ch=16 n=57 v=0
39240 On ch=16 n=55 v=98
39264 On ch=16 n=55 v=0
39264 On ch=16 n=52 v=98
39286 On ch=16 n=52 v=0
39288 On ch=16 n=50 v=96
39312 On ch=16 n=50 v=0
39312 On ch=16 n=48 v=84
39336 Pb ch=16 v=7509
39339 Pb ch=16 v=6827
39340 Pb ch=16 v=6144
39356 On ch=16 n=48 v=0
39360 Pb ch=16 v=8192
39360 On ch=16 n=41 v=104
39384 On ch=16 n=41 v=0
39384 On ch=16 n=41 v=74
39408 On ch=16 n=41 v=0
39408 On ch=16 n=41 v=74
39432 On ch=16 n=41 v=0
39432 On ch=16 n=33 v=100
39456 On ch=16 n=33 v=0
39456 On ch=16 n=33 v=74
39480 On ch=16 n=33 v=0
39480 On ch=16 n=33 v=74
39504 On ch=16 n=33 v=0
39504 On ch=16 n=38 v=102
39528 On ch=16 n=38 v=0
39528 On ch=16 n=38 v=74
39552 On ch=16 n=38 v=0
39552 On ch=16 n=38 v=74
39576 On ch=16 n=38 v=0
39576 On ch=16 n=36 v=100
39600 On ch=16 n=36 v=0
39600 On ch=16 n=36 v=74
39624 On ch=16 n=36 v=0
39624 On ch=16 n=36 v=74
39648 On ch=16 n=36 v=0
39648 On ch=16 n=33 v=98
39672 On ch=16 n=33 v=0
39672 On ch=16 n=33 v=74
39696 On ch=16 n=33 v=0
39696 On ch=16 n=36 v=100
39720 On ch=16 n=36 v=0
39720 On ch=16 n=36 v=74
39744 On ch=16 n=36 v=0
39744 On ch=16 n=34 v=98
39768 On ch=16 n=34 v=0
39768 On ch=16 n=34 v=74
39792 On ch=16 n=34 v=0
39792 On ch=16 n=34 v=74
39816 On ch=16 n=34 v=0
39816 On ch=16 n=33 v=98
39840 On ch=16 n=33 v=0
39840 On ch=16 n=33 v=74
39864 On ch=16 n=33 v=0
39864 On ch=16 n=33 v=74
39888 On ch=16 n=33 v=0
39888 On ch=16 n=34 v=98
39912 On ch=16 n=34 v=0
39912 On ch=16 n=34 v=74
39936 On ch=16 n=34 v=0
39936 On ch=16 n=34 v=74
39958 On ch=16 n=34 v=0
39960 On ch=16 n=36 v=100
39984 On ch=16 n=36 v=0
40008 On ch=16 n=36 v=84
40030 On ch=16 n=36 v=0
40032 On ch=16 n=36 v=94
40055 Pb ch=16 v=8320
40057 Pb ch=16 v=8875
40059 Pb ch=16 v=9557
40080 On ch=16 n=36 v=0
40080 Pb ch=16 v=8192
40080 On ch=16 n=41 v=90
40125 On ch=16 n=41 v=0
40128 On ch=16 n=32 v=100
40152 On ch=16 n=32 v=0
40152 On ch=16 n=32 v=84
40176 On ch=16 n=32 v=0
40176 On ch=16 n=32 v=84
40200 On ch=16 n=32 v=0
40200 On ch=16 n=31 v=100
40224 On ch=16 n=31 v=0
40224 On ch=16 n=31 v=84
40248 On ch=16 n=31 v=0
40248 On ch=16 n=31 v=84
40272 On ch=16 n=31 v=0
40272 On ch=16 n=32 v=100
40296 On ch=16 n=32 v=0
40296 On ch=16 n=32 v=84
40320 On ch=16 n=32 v=0
40320 On ch=16 n=32 v=84
40344 On ch=16 n=32 v=0
40344 On ch=16 n=34 v=98
40392 On ch=16 n=34 v=0
40392 On ch=16 n=34 v=94
40416 On ch=16 n=34 v=0
40416 On ch=16 n=34 v=98
40440 Pb ch=16 v=8320
40441 Pb ch=16 v=8875
40442 Pb ch=16 v=9557
40464 Pb ch=16 v=8192
40464 On ch=16 n=39 v=100
40465 On ch=16 n=34 v=0
40512 On ch=16 n=39 v=0
40512 On ch=16 n=41 v=100
40557 On ch=16 n=41 v=0
40560 On ch=16 n=41 v=88
40582 On ch=16 n=41 v=0
40584 On ch=16 n=41 v=87
40606 On ch=16 n=41 v=0
40608 On ch=16 n=33 v=98
40632 On ch=16 n=33 v=0
40632 On ch=16 n=33 v=88
40656 On ch=16 n=33 v=0
40656 On ch=16 n=33 v=90
40680 On ch=16 n=33 v=0
40680 On ch=16 n=33 v=88
40704 On ch=16 n=33 v=0
40704 On ch=16 n=36 v=100
40728 On ch=16 n=36 v=0
40728 On ch=16 n=36 v=88
40752 On ch=16 n=36 v=0
40752 On ch=16 n=36 v=92
40776 On ch=16 n=36 v=0
40776 On ch=16 n=36 v=88
40800 On ch=16 n=36 v=0
40800 On ch=16 n=33 v=94
40845 On ch=16 n=33 v=0
40848 On ch=16 n=45 v=104
40872 On ch=16 n=45 v=0
40872 On ch=16 n=45 v=84
40896 On ch=16 n=45 v=0
40896 On ch=16 n=45 v=84
40920 On ch=16 n=45 v=0
40920 On ch=16 n=42 v=100
40944 On ch=16 n=42 v=0
40944 On ch=16 n=42 v=84
40968 On ch=16 n=42 v=0
40968 On ch=16 n=42 v=84
40992 On ch=16 n=42 v=0
40992 On ch=16 n=40 v=100
41016 On ch=16 n=40 v=0
41016 On ch=16 n=40 v=84
41040 On ch=16 n=40 v=0
41040 On ch=16 n=40 v=84
41064 On ch=16 n=40 v=0
41064 On ch=16 n=39 v=99
41088 On ch=16 n=39 v=0
41088 On ch=16 n=39 v=84
41112 On ch=16 n=39 v=0
41112 On ch=16 n=39 v=84
41136 On ch=16 n=39 v=0
41136 On ch=16 n=37 v=100
41160 On ch=16 n=37 v=0
41160 On ch=16 n=37 v=83
41184 On ch=16 n=37 v=0
41184 On ch=16 n=37 v=84
41208 On ch=16 n=37 v=0
41208 On ch=16 n=37 v=83
41232 On ch=16 n=37 v=0
41232 On ch=16 n=36 v=100
41256 On ch=16 n=36 v=0
41256 On ch=16 n=36 v=84
41280 On ch=16 n=36 v=0
41280 On ch=16 n=36 v=84
41304 On ch=16 n=36 v=0
41304 On ch=16 n=45 v=102
41328 On ch=16 n=45 v=0
41328 On ch=16 n=45 v=84
41352 On ch=16 n=45 v=0
41352 On ch=16 n=45 v=84
41376 On ch=16 n=45 v=0
41376 On ch=16 n=43 v=100
41400 On ch=16 n=43 v=0
41400 On ch=16 n=43 v=75
41416 Pb ch=16 v=8875
41420 Pb ch=16 v=9557
41422 Pb ch=16 v=10240
41423 Pb ch=16 v=10923
41424 Pb ch=16 v=11605
41425 Pb ch=16 v=12288
41426 Pb ch=16 v=12971
41427 Pb ch=16 v=13653
41428 Pb ch=16 v=14336
41447 On ch=16 n=43 v=0
41448 Pb ch=16 v=8192
41448 On ch=16 n=57 v=100
41493 On ch=16 n=57 v=0
41496 On ch=16 n=55 v=98
41520 On ch=16 n=55 v=0
41544 On ch=16 n=52 v=98
41566 On ch=16 n=52 v=0
41568 On ch=16 n=50 v=96
41592 On ch=16 n=50 v=0
41592 On ch=16 n=48 v=84
41614 On ch=16 n=48 v=0
41616 On ch=16 n=41 v=104
41640 On ch=16 n=41 v=0
41640 On ch=16 n=41 v=84
41664 On ch=16 n=41 v=0
41664 On ch=16 n=41 v=84
41688 On ch=16 n=41 v=0
41688 On ch=16 n=33 v=100
41712 On ch=16 n=33 v=0
41712 On ch=16 n=33 v=84
41736 On ch=16 n=33 v=0
41736 On ch=16 n=33 v=84
41760 On ch=16 n=33 v=0
41760 On ch=16 n=38 v=102
41784 On ch=16 n=38 v=0
41784 On ch=16 n=38 v=84
41808 On ch=16 n=38 v=0
41808 On ch=16 n=38 v=84
41832 On ch=16 n=38 v=0
41832 On ch=16 n=36 v=100
41856 On ch=16 n=36 v=0
41856 On ch=16 n=36 v=84
41880 On ch=16 n=36 v=0
41880 On ch=16 n=36 v=84
41904 On ch=16 n=36 v=0
41904 On ch=16 n=33 v=98
41928 On ch=16 n=33 v=0
41928 On ch=16 n=33 v=84
41952 On ch=16 n=33 v=0
41952 On ch=16 n=36 v=100
41976 On ch=16 n=36 v=0
41976 On ch=16 n=36 v=84
42000 On ch=16 n=36 v=0
42000 On ch=16 n=34 v=98
42024 On ch=16 n=34 v=0
42024 On ch=16 n=34 v=84
42048 On ch=16 n=34 v=0
42048 On ch=16 n=34 v=84
42072 On ch=16 n=34 v=0
42072 On ch=16 n=33 v=98
42096 On ch=16 n=33 v=0
42096 On ch=16 n=33 v=84
42120 On ch=16 n=33 v=0
42120 On ch=16 n=33 v=84
42144 On ch=16 n=33 v=0
42144 On ch=16 n=34 v=98
42168 On ch=16 n=34 v=0
42168 On ch=16 n=34 v=84
42208 On ch=16 n=34 v=0
42216 On ch=16 n=36 v=100
42240 On ch=16 n=36 v=0
42264 On ch=16 n=36 v=84
42286 On ch=16 n=36 v=0
42288 On ch=16 n=36 v=94
42312 Pb ch=16 v=8320
42313 Pb ch=16 v=8875
42314 Pb ch=16 v=9557
42336 On ch=16 n=36 v=0
42336 Pb ch=16 v=8192
42336 On ch=16 n=41 v=96
42360 On ch=16 n=41 v=0
42360 On ch=16 n=41 v=85
42384 On ch=16 n=41 v=0
42384 On ch=16 n=32 v=100
42408 On ch=16 n=32 v=0
42408 On ch=16 n=32 v=84
42432 On ch=16 n=32 v=0
42432 On ch=16 n=32 v=84
42456 On ch=16 n=32 v=0
42456 On ch=16 n=31 v=100
42480 On ch=16 n=31 v=0
42480 On ch=16 n=31 v=84
42504 On ch=16 n=31 v=0
42504 On ch=16 n=31 v=84
42528 On ch=16 n=31 v=0
42528 On ch=16 n=32 v=100
42552 On ch=16 n=32 v=0
42552 On ch=16 n=32 v=84
42576 On ch=16 n=32 v=0
42576 On ch=16 n=32 v=84
42600 On ch=16 n=32 v=0
42600 On ch=16 n=34 v=98
42648 On ch=16 n=34 v=0
42648 On ch=16 n=34 v=94
42672 On ch=16 n=34 v=0
42672 On ch=16 n=34 v=98
42696 Pb ch=16 v=8320
42697 Pb ch=16 v=8875
42698 Pb ch=16 v=9557
42720 Pb ch=16 v=8192
42720 On ch=16 n=39 v=100
42721 On ch=16 n=34 v=0
42768 On ch=16 n=39 v=0
42768 Par ch=16 c=11 v=96
42768 On ch=16 n=41 v=100
42813 On ch=16 n=41 v=0
42816 On ch=16 n=41 v=94
42838 On ch=16 n=41 v=0
42840 On ch=16 n=41 v=94
42864 On ch=16 n=41 v=0
42864 On ch=16 n=41 v=100
42909 On ch=16 n=41 v=0
42912 On ch=16 n=41 v=94
42934 On ch=16 n=41 v=0
42936 On ch=16 n=41 v=94
42958 On ch=16 n=41 v=0
42960 On ch=16 n=41 v=100
42982 On ch=16 n=41 v=0
42984 On ch=16 n=38 v=90
43006 On ch=16 n=38 v=0
43008 On ch=16 n=36 v=88
43017 On ch=16 n=36 v=0
43056 On ch=16 n=33 v=102
43088 On ch=16 n=33 v=0
43104 Par ch=16 c=11 v=64
43104 On ch=16 n=31 v=120
43172 On ch=16 n=31 v=0
43176 On ch=16 n=33 v=106
43196 On ch=16 n=33 v=0
43200 On ch=16 n=35 v=109
43220 On ch=16 n=35 v=0
43224 On ch=16 n=36 v=106
43244 On ch=16 n=36 v=0
43248 On ch=16 n=38 v=109
43268 On ch=16 n=38 v=0
43272 On ch=16 n=40 v=106
43292 On ch=16 n=40 v=0
43296 On ch=16 n=42 v=110
43316 On ch=16 n=42 v=0
43320 On ch=16 n=43 v=110
43364 On ch=16 n=43 v=0
43368 On ch=16 n=45 v=102
43388 On ch=16 n=45 v=0
43392 On ch=16 n=47 v=105
43412 On ch=16 n=47 v=0
43416 On ch=16 n=48 v=102
43436 On ch=16 n=48 v=0
43440 Pb ch=16 v=7509
43440 On ch=16 n=50 v=102
43442 Pb ch=16 v=7532
43443 Pb ch=16 v=8192
43460 On ch=16 n=50 v=0
43465 On ch=16 n=52 v=100
43485 On ch=16 n=52 v=0
43488 On ch=16 n=54 v=102
43508 On ch=16 n=54 v=0
43561 Par ch=16 c=10 v=62
43704 PrCh ch=16 p=39
43704 Par ch=16 c=11 v=60
43896 Par ch=16 c=98 v=33
43896 Par ch=16 c=99 v=1
43896 Par ch=16 c=6 v=64
44232 On ch=16 n=43 v=99
44265 Pb ch=16 v=8875
44270 Pb ch=16 v=9557
44272 Pb ch=16 v=10240
44274 Pb ch=16 v=10923
44275 Pb ch=16 v=11605
44276 Pb ch=16 v=12288
44277 Pb ch=16 v=12971
44325 On ch=16 n=43 v=0
44328 Pb ch=16 v=8192
44328 On ch=16 n=50 v=100
44373 On ch=16 n=50 v=0
44376 On ch=16 n=50 v=100
44421 On ch=16 n=50 v=0
44448 On ch=16 n=50 v=70
44470 Pb ch=16 v=7509
44472 Pb ch=16 v=6827
44473 Pb ch=16 v=6144
44474 Pb ch=16 v=5461
44493 On ch=16 n=50 v=0
44496 Pb ch=16 v=8192
44496 On ch=16 n=46 v=70
44518 On ch=16 n=46 v=0
44520 On ch=16 n=46 v=80
44568 On ch=16 n=46 v=0
44568 On ch=16 n=46 v=77
44616 On ch=16 n=46 v=0
44616 On ch=16 n=46 v=77
44640 On ch=16 n=46 v=0
44640 On ch=16 n=46 v=75
44662 On ch=16 n=46 v=0
44664 On ch=16 n=46 v=84
44696 Pb ch=16 v=8875
44702 Pb ch=16 v=9557
44707 Pb ch=16 v=10240
44711 Pb ch=16 v=10923
44713 Pb ch=16 v=11605
44714 Pb ch=16 v=12288
44715 Pb ch=16 v=12971
44716 Pb ch=16 v=13653
44718 Pb ch=16 v=14336
44760 On ch=16 n=46 v=0
44760 Pb ch=16 v=8192
44760 On ch=16 n=55 v=94
45046 On ch=16 n=55 v=0
45048 On ch=16 n=50 v=94
45093 On ch=16 n=50 v=0
45096 On ch=16 n=50 v=94
45141 On ch=16 n=50 v=0
45144 On ch=16 n=50 v=97
45166 On ch=16 n=50 v=0
45168 On ch=16 n=50 v=60
45190 On ch=16 n=50 v=0
45192 On ch=16 n=50 v=60
45214 On ch=16 n=50 v=0
45216 On ch=16 n=50 v=66
45240 Pb ch=16 v=7509
45242 Pb ch=16 v=6827
45243 Pb ch=16 v=6144
45244 On ch=16 n=50 v=0
45244 Pb ch=16 v=5461
45244 On ch=16 n=50 v=50
45264 On ch=16 n=50 v=0
45264 Pb ch=16 v=8192
45264 On ch=16 n=46 v=66
45284 On ch=16 n=46 v=0
45288 On ch=16 n=46 v=96
45333 On ch=16 n=46 v=0
45336 On ch=16 n=46 v=94
45381 On ch=16 n=46 v=0
45384 On ch=16 n=46 v=75
45408 On ch=16 n=46 v=0
45408 On ch=16 n=46 v=74
45430 On ch=16 n=46 v=0
45432 On ch=16 n=46 v=85
45454 Pb ch=16 v=7509
45457 Pb ch=16 v=6827
45458 Pb ch=16 v=6144
45480 On ch=16 n=46 v=0
45480 Pb ch=16 v=8192
45480 On ch=16 n=43 v=84
45525 On ch=16 n=43 v=0
45528 On ch=16 n=43 v=80
45596 On ch=16 n=43 v=0
45600 On ch=16 n=43 v=70
45622 On ch=16 n=43 v=0
45624 On ch=16 n=43 v=70
45646 On ch=16 n=43 v=0
45648 On ch=16 n=43 v=70
45670 On ch=16 n=43 v=0
45672 On ch=16 n=43 v=84
45717 On ch=16 n=43 v=0
45720 On ch=16 n=43 v=80
45743 On ch=16 n=43 v=0
45768 On ch=16 n=43 v=70
45790 On ch=16 n=43 v=0
45792 On ch=16 n=43 v=70
45814 On ch=16 n=43 v=0
45816 On ch=16 n=43 v=70
45834 Pb ch=16 v=8877
45838 Pb ch=16 v=9557
45840 Pb ch=16 v=10240
45842 Pb ch=16 v=10923
45843 Pb ch=16 v=11605
45844 Pb ch=16 v=12288
45845 Pb ch=16 v=12971
45864 On ch=16 n=43 v=0
45864 Pb ch=16 v=8192
45864 On ch=16 n=50 v=70
45909 On ch=16 n=50 v=0
45912 On ch=16 n=50 v=70
45936 On ch=16 n=50 v=0
45984 On ch=16 n=50 v=70
46005 Pb ch=16 v=7509
46008 Pb ch=16 v=7509
46009 Pb ch=16 v=6827
46011 Pb ch=16 v=6144
46012 Pb ch=16 v=5461
46032 On ch=16 n=50 v=0
46032 Pb ch=16 v=8192
46032 On ch=16 n=46 v=68
46054 On ch=16 n=46 v=0
46056 On ch=16 n=46 v=88
46101 On ch=16 n=46 v=0
46104 On ch=16 n=46 v=80
46149 On ch=16 n=46 v=0
46152 On ch=16 n=46 v=68
46197 On ch=16 n=46 v=0
46200 On ch=16 n=46 v=84
46221 Pb ch=16 v=7509
46224 Pb ch=16 v=6827
46226 Pb ch=16 v=6144
46248 On ch=16 n=46 v=0
46248 Pb ch=16 v=8192
46248 On ch=16 n=43 v=80
46293 On ch=16 n=43 v=0
46296 On ch=16 n=43 v=84
46364 On ch=16 n=43 v=0
46368 On ch=16 n=43 v=70
46390 On ch=16 n=43 v=0
46392 On ch=16 n=43 v=70
46414 On ch=16 n=43 v=0
46416 On ch=16 n=43 v=70
46438 On ch=16 n=43 v=0
46440 On ch=16 n=43 v=84
46485 On ch=16 n=43 v=0
46488 On ch=16 n=43 v=70
46510 On ch=16 n=43 v=0
46512 On ch=16 n=43 v=68
46534 On ch=16 n=43 v=0
46536 On ch=16 n=43 v=66
46581 On ch=16 n=43 v=0
46584 On ch=16 n=43 v=75
46601 Pb ch=16 v=8877
46605 Pb ch=16 v=9557
46608 Pb ch=16 v=10240
46610 Pb ch=16 v=10923
46611 Pb ch=16 v=11605
46612 Pb ch=16 v=12288
46613 Pb ch=16 v=12971
46632 On ch=16 n=43 v=0
46632 Pb ch=16 v=8192
46632 On ch=16 n=50 v=75
46677 On ch=16 n=50 v=0
46680 On ch=16 n=50 v=73
46748 On ch=16 n=50 v=0
46752 On ch=16 n=50 v=76
46773 Pb ch=16 v=7509
46776 Pb ch=16 v=7509
46777 Pb ch=16 v=6827
46779 Pb ch=16 v=6144
46780 Pb ch=16 v=5461
46800 On ch=16 n=50 v=0
46800 Pb ch=16 v=8192
46800 On ch=16 n=46 v=68
46822 On ch=16 n=46 v=0
46824 On ch=16 n=46 v=88
46869 On ch=16 n=46 v=0
46872 On ch=16 n=46 v=77
46917 On ch=16 n=46 v=0
46920 On ch=16 n=46 v=68
46965 On ch=16 n=46 v=0
46968 On ch=16 n=46 v=86
46989 Pb ch=16 v=7509
46992 Pb ch=16 v=6827
46994 Pb ch=16 v=6144
47016 On ch=16 n=46 v=0
47016 Pb ch=16 v=8192
47016 On ch=16 n=43 v=82
47061 On ch=16 n=43 v=0
47064 On ch=16 n=43 v=83
47132 On ch=16 n=43 v=0
47136 On ch=16 n=43 v=72
47158 On ch=16 n=43 v=0
47160 On ch=16 n=43 v=70
47182 On ch=16 n=43 v=0
47184 On ch=16 n=43 v=70
47206 On ch=16 n=43 v=0
47208 On ch=16 n=43 v=84
47253 On ch=16 n=43 v=0
47256 On ch=16 n=43 v=70
47278 On ch=16 n=43 v=0
47280 On ch=16 n=43 v=77
47325 On ch=16 n=43 v=0
47328 On ch=16 n=43 v=66
47350 On ch=16 n=43 v=0
47352 On ch=16 n=43 v=74
47370 Pb ch=16 v=8877
47374 Pb ch=16 v=9557
47376 Pb ch=16 v=10240
47378 Pb ch=16 v=10923
47379 Pb ch=16 v=11605
47380 Pb ch=16 v=12288
47381 Pb ch=16 v=12971
47400 On ch=16 n=43 v=0
47400 Pb ch=16 v=8192
47400 On ch=16 n=50 v=74
47445 On ch=16 n=50 v=0
47448 On ch=16 n=50 v=55
47472 On ch=16 n=50 v=0
47520 On ch=16 n=50 v=75
47541 Pb ch=16 v=7509
47544 Pb ch=16 v=7509
47545 Pb ch=16 v=6827
47547 Pb ch=16 v=6144
47548 Pb ch=16 v=5461
47568 On ch=16 n=50 v=0
47568 Pb ch=16 v=8192
47568 On ch=16 n=46 v=68
47590 On ch=16 n=46 v=0
47592 On ch=16 n=46 v=88
47637 On ch=16 n=46 v=0
47640 On ch=16 n=46 v=80
47685 On ch=16 n=46 v=0
47688 On ch=16 n=46 v=68
47710 On ch=16 n=46 v=0
47712 On ch=16 n=46 v=54
47734 On ch=16 n=46 v=0
47736 On ch=16 n=46 v=84
47757 Pb ch=16 v=7509
47760 Pb ch=16 v=6827
47762 Pb ch=16 v=6144
47784 On ch=16 n=46 v=0
47784 Pb ch=16 v=8192
47784 On ch=16 n=43 v=80
47829 On ch=16 n=43 v=0
47832 On ch=16 n=43 v=84
47900 On ch=16 n=43 v=0
47904 On ch=16 n=43 v=70
47926 On ch=16 n=43 v=0
47928 On ch=16 n=43 v=70
47950 On ch=16 n=43 v=0
47952 On ch=16 n=43 v=70
47974 On ch=16 n=43 v=0
47976 On ch=16 n=43 v=84
48021 On ch=16 n=43 v=0
48024 On ch=16 n=43 v=70
48046 On ch=16 n=43 v=0
48048 On ch=16 n=43 v=68
48070 On ch=16 n=43 v=0
48072 On ch=16 n=43 v=66
48117 On ch=16 n=43 v=0
48120 Par ch=16 c=11 v=65
48120 On ch=16 n=43 v=74
48140 Pb ch=16 v=8877
48143 Pb ch=16 v=9557
48145 Pb ch=16 v=10240
48147 Pb ch=16 v=10923
48148 Pb ch=16 v=11605
48149 Pb ch=16 v=12288
48150 Pb ch=16 v=12971
48168 On ch=16 n=43 v=0
48168 Pb ch=16 v=8192
48168 On ch=16 n=50 v=70
48213 On ch=16 n=50 v=0
48216 On ch=16 n=50 v=96
48236 On ch=16 n=50 v=0
48288 On ch=16 n=50 v=70
48308 On ch=16 n=50 v=0
48336 On ch=16 n=46 v=68
48358 On ch=16 n=46 v=0
48360 On ch=16 n=46 v=88
48405 On ch=16 n=46 v=0
48408 On ch=16 n=46 v=80
48453 On ch=16 n=46 v=0
48456 On ch=16 n=46 v=50
48501 On ch=16 n=46 v=0
48504 On ch=16 n=46 v=84
48525 Pb ch=16 v=7509
48528 Pb ch=16 v=6827
48530 Pb ch=16 v=6144
48552 On ch=16 n=46 v=0
48552 Pb ch=16 v=8192
48552 On ch=16 n=43 v=80
48597 On ch=16 n=43 v=0
48600 On ch=16 n=43 v=94
48626 On ch=16 n=43 v=0
48672 On ch=16 n=43 v=66
48694 On ch=16 n=43 v=0
48696 On ch=16 n=43 v=70
48718 On ch=16 n=43 v=0
48720 On ch=16 n=43 v=70
48742 On ch=16 n=43 v=0
48744 On ch=16 n=43 v=84
48789 On ch=16 n=43 v=0
48792 On ch=16 n=43 v=70
48837 On ch=16 n=43 v=0
48840 On ch=16 n=43 v=68
48885 On ch=16 n=43 v=0
48888 On ch=16 n=43 v=74
48905 Pb ch=16 v=8877
48909 Pb ch=16 v=9557
48911 Pb ch=16 v=10240
48913 Pb ch=16 v=10923
48914 Pb ch=16 v=11605
48915 Pb ch=16 v=12288
48916 Pb ch=16 v=12971
48936 On ch=16 n=43 v=0
48936 Pb ch=16 v=8192
48936 On ch=16 n=50 v=70
48981 On ch=16 n=50 v=0
48984 On ch=16 n=50 v=90
49032 On ch=16 n=50 v=0
49032 On ch=16 n=50 v=60
49034 On ch=16 n=50 v=0
49056 On ch=16 n=50 v=70
49076 On ch=16 n=50 v=0
49104 On ch=16 n=46 v=68
49126 On ch=16 n=46 v=0
49128 On ch=16 n=46 v=88
49173 On ch=16 n=46 v=0
49176 On ch=16 n=46 v=80
49221 On ch=16 n=46 v=0
49272 On ch=16 n=46 v=84
49293 Pb ch=16 v=7509
49296 Pb ch=16 v=6827
49298 Pb ch=16 v=6144
49320 On ch=16 n=46 v=0
49320 Pb ch=16 v=8192
49320 On ch=16 n=43 v=80
49365 On ch=16 n=43 v=0
49368 On ch=16 n=43 v=94
49436 On ch=16 n=43 v=0
49440 On ch=16 n=43 v=66
49486 On ch=16 n=43 v=0
49488 On ch=16 n=43 v=70
49510 On ch=16 n=43 v=0
49512 On ch=16 n=43 v=84
49557 On ch=16 n=43 v=0
49560 On ch=16 n=43 v=70
49605 On ch=16 n=43 v=0
49608 On ch=16 n=43 v=68
49653 On ch=16 n=43 v=0
49656 Par ch=16 c=11 v=70
49656 On ch=16 n=43 v=74
49671 Pb ch=16 v=8877
49675 Pb ch=16 v=9557
49677 Pb ch=16 v=10240
49679 Pb ch=16 v=10923
49680 Pb ch=16 v=11605
49681 Pb ch=16 v=12288
49682 Pb ch=16 v=12971
49704 On ch=16 n=43 v=0
49704 Pb ch=16 v=8192
49704 On ch=16 n=50 v=70
49749 On ch=16 n=50 v=0
49752 On ch=16 n=50 v=92
49800 On ch=16 n=50 v=0
49824 On ch=16 n=50 v=70
49844 On ch=16 n=50 v=0
49872 On ch=16 n=46 v=68
49894 On ch=16 n=46 v=0
49896 On ch=16 n=46 v=88
49941 On ch=16 n=46 v=0
49944 On ch=16 n=46 v=80
49989 On ch=16 n=46 v=0
49992 On ch=16 n=46 v=50
50037 On ch=16 n=46 v=0
50040 On ch=16 n=46 v=84
50061 Pb ch=16 v=7509
50064 Pb ch=16 v=6827
50066 Pb ch=16 v=6144
50088 On ch=16 n=46 v=0
50088 Pb ch=16 v=8192
50088 On ch=16 n=43 v=80
50133 On ch=16 n=43 v=0
50136 On ch=16 n=43 v=94
50162 On ch=16 n=43 v=0
50208 On ch=16 n=43 v=66
50230 On ch=16 n=43 v=0
50232 On ch=16 n=43 v=70
50254 On ch=16 n=43 v=0
50256 On ch=16 n=43 v=70
50278 On ch=16 n=43 v=0
50280 On ch=16 n=43 v=84
50325 On ch=16 n=43 v=0
50328 On ch=16 n=43 v=70
50373 On ch=16 n=43 v=0
50376 On ch=16 n=43 v=68
50421 On ch=16 n=43 v=0
50424 On ch=16 n=43 v=74
50441 Pb ch=16 v=8877
50445 Pb ch=16 v=9557
50447 Pb ch=16 v=10240
50449 Pb ch=16 v=10923
50450 Pb ch=16 v=11605
50451 Pb ch=16 v=12288
50452 Pb ch=16 v=12971
50472 On ch=16 n=43 v=0
50472 Pb ch=16 v=8192
50472 On ch=16 n=50 v=70
50517 On ch=16 n=50 v=0
50520 On ch=16 n=50 v=91
50540 On ch=16 n=50 v=0
50592 On ch=16 n=50 v=75
50612 On ch=16 n=50 v=0
50640 On ch=16 n=46 v=68
50662 On ch=16 n=46 v=0
50664 On ch=16 n=46 v=88
50709 On ch=16 n=46 v=0
50712 On ch=16 n=46 v=85
50760 On ch=16 n=46 v=0
50808 On ch=16 n=46 v=84
50829 Pb ch=16 v=7509
50832 Pb ch=16 v=6827
50834 Pb ch=16 v=6144
50856 On ch=16 n=46 v=0
50856 Pb ch=16 v=8192
50856 On ch=16 n=43 v=80
50901 On ch=16 n=43 v=0
50904 On ch=16 n=43 v=94
50976 On ch=16 n=43 v=0
51024 On ch=16 n=43 v=65
51046 On ch=16 n=43 v=0
51048 On ch=16 n=43 v=80
51093 On ch=16 n=43 v=0
51096 On ch=16 n=43 v=70
51141 On ch=16 n=43 v=0
51144 On ch=16 n=43 v=50
51189 On ch=16 n=43 v=0
51192 On ch=16 n=43 v=74
51210 Pb ch=16 v=8877
51214 Pb ch=16 v=9557
51216 Pb ch=16 v=10240
51218 Pb ch=16 v=10923
51219 Pb ch=16 v=11605
51220 Pb ch=16 v=12288
51221 Pb ch=16 v=12971
51240 On ch=16 n=43 v=0
51240 Pb ch=16 v=8192
51240 On ch=16 n=50 v=70
51285 On ch=16 n=50 v=0
51288 On ch=16 n=50 v=82
51356 On ch=16 n=50 v=0
51360 On ch=16 n=50 v=80
51380 On ch=16 n=50 v=0
51408 On ch=16 n=46 v=68
51430 On ch=16 n=46 v=0
51432 On ch=16 n=46 v=88
51477 On ch=16 n=46 v=0
51480 On ch=16 n=46 v=77
51502 On ch=16 n=46 v=0
51504 On ch=16 n=46 v=80
51552 On ch=16 n=46 v=0
51552 On ch=16 n=46 v=60
51574 On ch=16 n=46 v=0
51576 On ch=16 n=46 v=84
51597 Pb ch=16 v=7509
51600 Pb ch=16 v=6827
51602 Pb ch=16 v=6144
51624 On ch=16 n=46 v=0
51624 Pb ch=16 v=8192
51624 On ch=16 n=43 v=80
51669 On ch=16 n=43 v=0
51672 On ch=16 n=43 v=85
51740 On ch=16 n=43 v=0
51744 On ch=16 n=43 v=66
51766 On ch=16 n=43 v=0
51792 On ch=16 n=43 v=70
51814 On ch=16 n=43 v=0
51816 On ch=16 n=43 v=84
51861 On ch=16 n=43 v=0
51864 On ch=16 n=43 v=70
51909 On ch=16 n=43 v=0
51912 On ch=16 n=43 v=60
51957 On ch=16 n=43 v=0
51960 On ch=16 n=43 v=74
51976 Pb ch=16 v=8877
51980 Pb ch=16 v=9557
51982 Pb ch=16 v=10240
51984 Pb ch=16 v=10923
51985 Pb ch=16 v=11605
51986 Pb ch=16 v=12288
51987 Pb ch=16 v=12971
52008 On ch=16 n=43 v=0
52008 Pb ch=16 v=8192
52008 On ch=16 n=50 v=70
52053 On ch=16 n=50 v=0
52056 On ch=16 n=50 v=70
52080 On ch=16 n=50 v=0
52080 On ch=16 n=50 v=82
52125 On ch=16 n=50 v=0
52128 On ch=16 n=50 v=80
52148 On ch=16 n=50 v=0
52176 On ch=16 n=46 v=68
52198 On ch=16 n=46 v=0
52200 On ch=16 n=46 v=88
52245 On ch=16 n=46 v=0
52248 On ch=16 n=46 v=77
52270 On ch=16 n=46 v=0
52272 On ch=16 n=46 v=80
52342 On ch=16 n=46 v=0
52344 On ch=16 n=46 v=84
52365 Pb ch=16 v=7509
52368 Pb ch=16 v=6827
52370 Pb ch=16 v=6144
52392 On ch=16 n=46 v=0
52392 Pb ch=16 v=8192
52392 On ch=16 n=43 v=80
52437 On ch=16 n=43 v=0
52440 On ch=16 n=43 v=76
52485 On ch=16 n=43 v=0
52488 On ch=16 n=43 v=75
52510 On ch=16 n=43 v=0
52512 On ch=16 n=43 v=86
52558 On ch=16 n=43 v=0
52560 On ch=16 n=43 v=70
52582 On ch=16 n=43 v=0
52584 On ch=16 n=43 v=84
52629 On ch=16 n=43 v=0
52632 On ch=16 n=43 v=70
52654 On ch=16 n=43 v=0
52656 On ch=16 n=43 v=75
52701 On ch=16 n=43 v=0
52704 On ch=16 n=43 v=60
52726 On ch=16 n=43 v=0
52728 On ch=16 n=43 v=60
52773 On ch=16 n=43 v=0
52776 On ch=16 n=43 v=50
52821 On ch=16 n=43 v=0
52824 On ch=16 n=43 v=66
52892 On ch=16 n=43 v=0
52896 On ch=16 n=43 v=60
52916 On ch=16 n=43 v=0
52944 On ch=16 n=46 v=68
52966 On ch=16 n=46 v=0
52968 On ch=16 n=46 v=88
53013 On ch=16 n=46 v=0
53016 On ch=16 n=46 v=85
53064 On ch=16 n=46 v=0
53112 On ch=16 n=46 v=84
53133 Pb ch=16 v=7509
53136 Pb ch=16 v=6827
53138 Pb ch=16 v=6144
53160 On ch=16 n=46 v=0
53160 Pb ch=16 v=8192
53160 On ch=16 n=43 v=80
53205 On ch=16 n=43 v=0
53208 On ch=16 n=43 v=94
53280 On ch=16 n=43 v=0
53328 On ch=16 n=43 v=65
53350 On ch=16 n=43 v=0
53352 On ch=16 n=43 v=80
53397 On ch=16 n=43 v=0
53400 On ch=16 n=43 v=70
53445 On ch=16 n=43 v=0
53448 On ch=16 n=43 v=50
53493 On ch=16 n=43 v=0
53496 On ch=16 n=43 v=74
53506 Pb ch=16 v=8877
53510 Pb ch=16 v=9557
53512 Pb ch=16 v=10240
53514 Pb ch=16 v=10923
53515 Pb ch=16 v=11605
53516 Pb ch=16 v=12288
53517 Pb ch=16 v=12971
53544 On ch=16 n=43 v=0
53544 Pb ch=16 v=8192
53544 On ch=16 n=50 v=70
53589 On ch=16 n=50 v=0
53592 On ch=16 n=50 v=82
53660 On ch=16 n=50 v=0
53664 On ch=16 n=50 v=80
53684 On ch=16 n=50 v=0
53712 On ch=16 n=46 v=68
53734 On ch=16 n=46 v=0
53736 On ch=16 n=46 v=88
53781 On ch=16 n=46 v=0
53784 On ch=16 n=46 v=77
53806 On ch=16 n=46 v=0
53808 On ch=16 n=46 v=80
53856 On ch=16 n=46 v=0
53856 On ch=16 n=46 v=60
53878 On ch=16 n=46 v=0
53880 On ch=16 n=46 v=84
53901 Pb ch=16 v=7509
53904 Pb ch=16 v=6827
53906 Pb ch=16 v=6144
53928 On ch=16 n=46 v=0
53928 Pb ch=16 v=8192
53928 On ch=16 n=43 v=80
53973 On ch=16 n=43 v=0
53976 On ch=16 n=43 v=85
54044 On ch=16 n=43 v=0
54048 On ch=16 n=43 v=66
54070 On ch=16 n=43 v=0
54096 On ch=16 n=43 v=70
54118 On ch=16 n=43 v=0
54120 On ch=16 n=43 v=84
54165 On ch=16 n=43 v=0
54168 On ch=16 n=43 v=70
54213 On ch=16 n=43 v=0
54216 On ch=16 n=43 v=60
54261 On ch=16 n=43 v=0
54264 On ch=16 n=43 v=74
54281 Pb ch=16 v=8877
54285 Pb ch=16 v=9557
54287 Pb ch=16 v=10240
54289 Pb ch=16 v=10923
54290 Pb ch=16 v=11605
54291 Pb ch=16 v=12288
54292 Pb ch=16 v=12971
54312 On ch=16 n=43 v=0
54312 Pb ch=16 v=8192
54312 On ch=16 n=50 v=70
54357 On ch=16 n=50 v=0
54360 On ch=16 n=50 v=91
54380 On ch=16 n=50 v=0
54432 On ch=16 n=50 v=75
54452 On ch=16 n=50 v=0
54480 On ch=16 n=46 v=68
54502 On ch=16 n=46 v=0
54504 On ch=16 n=46 v=88
54549 On ch=16 n=46 v=0
54552 On ch=16 n=46 v=85
54600 On ch=16 n=46 v=0
54648 On ch=16 n=46 v=84
54669 Pb ch=16 v=7509
54672 Pb ch=16 v=6827
54674 Pb ch=16 v=6144
54696 On ch=16 n=46 v=0
54696 Pb ch=16 v=8192
54696 On ch=16 n=43 v=80
54741 On ch=16 n=43 v=0
54744 On ch=16 n=43 v=94
54816 On ch=16 n=43 v=0
54864 On ch=16 n=43 v=65
54886 On ch=16 n=43 v=0
54888 On ch=16 n=43 v=80
54933 On ch=16 n=43 v=0
54936 On ch=16 n=43 v=70
54981 On ch=16 n=43 v=0
54984 On ch=16 n=43 v=50
55029 On ch=16 n=43 v=0
55032 On ch=16 n=43 v=74
55047 Pb ch=16 v=8877
55051 Pb ch=16 v=9557
55053 Pb ch=16 v=10240
55055 Pb ch=16 v=10923
55056 Pb ch=16 v=11605
55057 Pb ch=16 v=12288
55058 Pb ch=16 v=12971
55080 On ch=16 n=43 v=0
55080 Pb ch=16 v=8192
55080 On ch=16 n=50 v=70
55125 On ch=16 n=50 v=0
55128 On ch=16 n=50 v=82
55196 On ch=16 n=50 v=0
55200 On ch=16 n=50 v=80
55220 On ch=16 n=50 v=0
55248 On ch=16 n=46 v=68
55270 On ch=16 n=46 v=0
55272 On ch=16 n=46 v=88
55317 On ch=16 n=46 v=0
55320 On ch=16 n=46 v=77
55342 On ch=16 n=46 v=0
55344 On ch=16 n=46 v=80
55392 On ch=16 n=46 v=0
55392 On ch=16 n=46 v=60
55414 On ch=16 n=46 v=0
55416 On ch=16 n=46 v=84
55437 Pb ch=16 v=7509
55440 Pb ch=16 v=6827
55442 Pb ch=16 v=6144
55464 On ch=16 n=46 v=0
55464 Pb ch=16 v=8192
55464 On ch=16 n=43 v=80
55509 On ch=16 n=43 v=0
55512 On ch=16 n=43 v=85
55580 On ch=16 n=43 v=0
55584 On ch=16 n=43 v=66
55606 On ch=16 n=43 v=0
55632 On ch=16 n=43 v=70
55654 On ch=16 n=43 v=0
55656 On ch=16 n=43 v=84
55701 On ch=16 n=43 v=0
55704 On ch=16 n=43 v=70
55749 On ch=16 n=43 v=0
55752 On ch=16 n=43 v=60
55797 On ch=16 n=43 v=0
55800 On ch=16 n=43 v=74
55810 Pb ch=16 v=8877
55814 Pb ch=16 v=9557
55816 Pb ch=16 v=10240
55818 Pb ch=16 v=10923
55819 Pb ch=16 v=11605
55820 Pb ch=16 v=12288
55821 Pb ch=16 v=12971
55848 On ch=16 n=43 v=0
55848 Pb ch=16 v=8192
55848 On ch=16 n=50 v=70
55893 On ch=16 n=50 v=0
55896 On ch=16 n=50 v=91
55916 On ch=16 n=50 v=0
55968 On ch=16 n=50 v=75
55988 On ch=16 n=50 v=0
56016 On ch=16 n=46 v=68
56038 On ch=16 n=46 v=0
56040 On ch=16 n=46 v=88
56085 On ch=16 n=46 v=0
56088 On ch=16 n=46 v=85
56136 On ch=16 n=46 v=0
56184 On ch=16 n=46 v=84
56205 Pb ch=16 v=7509
56208 Pb ch=16 v=6827
56210 Pb ch=16 v=6144
56232 On ch=16 n=46 v=0
56232 Pb ch=16 v=8192
56232 On ch=16 n=43 v=80
56277 On ch=16 n=43 v=0
56280 On ch=16 n=43 v=94
56352 On ch=16 n=43 v=0
56400 On ch=16 n=43 v=65
56422 On ch=16 n=43 v=0
56424 On ch=16 n=43 v=80
56469 On ch=16 n=43 v=0
56472 On ch=16 n=43 v=70
56517 On ch=16 n=43 v=0
56520 On ch=16 n=43 v=50
56565 On ch=16 n=43 v=0
56568 On ch=16 n=50 v=80
56660 On ch=16 n=50 v=0
56664 On ch=16 n=50 v=82
56732 On ch=16 n=50 v=0
56736 On ch=16 n=50 v=80
56756 On ch=16 n=50 v=0
56784 On ch=16 n=46 v=68
56806 On ch=16 n=46 v=0
56808 On ch=16 n=46 v=88
56853 On ch=16 n=46 v=0
56856 On ch=16 n=46 v=77
56878 On ch=16 n=46 v=0
56880 On ch=16 n=46 v=80
56928 On ch=16 n=46 v=0
56928 On ch=16 n=46 v=60
56950 On ch=16 n=46 v=0
56952 On ch=16 n=46 v=84
56973 Pb ch=16 v=7509
56976 Pb ch=16 v=6827
56978 Pb ch=16 v=6144
57000 On ch=16 n=46 v=0
57000 Pb ch=16 v=8192
57000 On ch=16 n=43 v=80
57045 On ch=16 n=43 v=0
57048 On ch=16 n=43 v=85
57116 On ch=16 n=43 v=0
57120 On ch=16 n=43 v=66
57142 On ch=16 n=43 v=0
57168 On ch=16 n=43 v=70
57190 On ch=16 n=43 v=0
57192 On ch=16 n=43 v=84
57237 On ch=16 n=43 v=0
57240 On ch=16 n=43 v=70
57285 On ch=16 n=43 v=0
57288 On ch=16 n=43 v=60
57333 On ch=16 n=43 v=0
57432 On ch=16 n=50 v=91
57452 On ch=16 n=50 v=0
57504 On ch=16 n=50 v=75
57524 On ch=16 n=50 v=0
57552 On ch=16 n=46 v=68
57574 On ch=16 n=46 v=0
57576 On ch=16 n=46 v=88
57621 On ch=16 n=46 v=0
57624 On ch=16 n=46 v=85
57672 On ch=16 n=46 v=0
57720 On ch=16 n=46 v=84
57741 Pb ch=16 v=7509
57744 Pb ch=16 v=6827
57746 Pb ch=16 v=6144
57768 On ch=16 n=46 v=0
57768 Pb ch=16 v=8192
57768 On ch=16 n=43 v=80
57813 On ch=16 n=43 v=0
57816 On ch=16 n=43 v=94
57888 On ch=16 n=43 v=0
57936 On ch=16 n=43 v=65
57958 On ch=16 n=43 v=0
57960 On ch=16 n=43 v=80
58005 On ch=16 n=43 v=0
58008 On ch=16 n=43 v=70
58053 On ch=16 n=43 v=0
58056 On ch=16 n=43 v=50
58101 On ch=16 n=43 v=0
58104 On ch=16 n=43 v=74
58122 Pb ch=16 v=8877
58126 Pb ch=16 v=9557
58128 Pb ch=16 v=10240
58130 Pb ch=16 v=10923
58131 Pb ch=16 v=11605
58132 Pb ch=16 v=12288
58133 Pb ch=16 v=12971
58152 On ch=16 n=43 v=0
58152 Pb ch=16 v=8192
58152 On ch=16 n=50 v=70
58197 On ch=16 n=50 v=0
58200 On ch=16 n=50 v=82
58268 On ch=16 n=50 v=0
58272 On ch=16 n=50 v=80
58292 On ch=16 n=50 v=0
58320 On ch=16 n=46 v=68
58342 On ch=16 n=46 v=0
58344 On ch=16 n=46 v=88
58389 On ch=16 n=46 v=0
58392 On ch=16 n=46 v=77
58414 On ch=16 n=46 v=0
58416 On ch=16 n=46 v=80
58464 On ch=16 n=46 v=0
58464 On ch=16 n=46 v=60
58486 On ch=16 n=46 v=0
58488 On ch=16 n=46 v=84
58509 Pb ch=16 v=7509
58512 Pb ch=16 v=6827
58514 Pb ch=16 v=6144
58536 On ch=16 n=46 v=0
58536 Pb ch=16 v=8192
58536 On ch=16 n=43 v=80
58581 On ch=16 n=43 v=0
58584 On ch=16 n=43 v=85
58652 On ch=16 n=43 v=0
58656 On ch=16 n=43 v=66
58678 On ch=16 n=43 v=0
58704 On ch=16 n=43 v=70
58726 On ch=16 n=43 v=0
58728 On ch=16 n=43 v=84
58773 On ch=16 n=43 v=0
58776 On ch=16 n=43 v=70
58821 On ch=16 n=43 v=0
58824 On ch=16 n=43 v=60
58869 On ch=16 n=43 v=0
58872 On ch=16 n=43 v=74
58889 Pb ch=16 v=8877
58893 Pb ch=16 v=9557
58895 Pb ch=16 v=10240
58897 Pb ch=16 v=10923
58898 Pb ch=16 v=11605
58899 Pb ch=16 v=12288
58900 Pb ch=16 v=12971
58920 On ch=16 n=43 v=0
58920 Pb ch=16 v=8192
58920 On ch=16 n=50 v=70
58965 On ch=16 n=50 v=0
58968 On ch=16 n=50 v=91
58988 On ch=16 n=50 v=0
59040 On ch=16 n=50 v=75
59060 On ch=16 n=50 v=0
59088 On ch=16 n=46 v=68
59110 On ch=16 n=46 v=0
59112 On ch=16 n=46 v=88
59157 On ch=16 n=46 v=0
59160 On ch=16 n=46 v=85
59208 On ch=16 n=46 v=0
59256 On ch=16 n=46 v=84
59277 Pb ch=16 v=7509
59280 Pb ch=16 v=6827
59282 Pb ch=16 v=6144
59304 On ch=16 n=46 v=0
59304 Pb ch=16 v=8192
59304 On ch=16 n=43 v=80
59349 On ch=16 n=43 v=0
59352 On ch=16 n=43 v=94
59424 On ch=16 n=43 v=0
59472 PrCh ch=16 p=34
59496 Par ch=16 c=11 v=68
59640 On ch=16 n=43 v=74
59658 Pb ch=16 v=8877
59662 Pb ch=16 v=9557
59664 Pb ch=16 v=10240
59666 Pb ch=16 v=10923
59667 Pb ch=16 v=11605
59668 Pb ch=16 v=12288
59669 Pb ch=16 v=12971
59688 On ch=16 n=43 v=0
59688 Pb ch=16 v=8192
59688 On ch=16 n=50 v=70
59733 On ch=16 n=50 v=0
59736 On ch=16 n=50 v=82
59804 On ch=16 n=50 v=0
59808 On ch=16 n=50 v=80
59828 On ch=16 n=50 v=0
59856 On ch=16 n=46 v=68
59878 On ch=16 n=46 v=0
59880 On ch=16 n=46 v=88
59925 On ch=16 n=46 v=0
59928 On ch=16 n=46 v=77
59950 On ch=16 n=46 v=0
59952 On ch=16 n=46 v=80
60000 On ch=16 n=46 v=0
60000 On ch=16 n=46 v=60
60022 On ch=16 n=46 v=0
60024 On ch=16 n=46 v=84
60045 Pb ch=16 v=7509
60048 Pb ch=16 v=6827
60050 Pb ch=16 v=6144
60072 On ch=16 n=46 v=0
60072 Pb ch=16 v=8192
60072 On ch=16 n=43 v=80
60117 On ch=16 n=43 v=0
60120 On ch=16 n=43 v=85
60188 On ch=16 n=43 v=0
60192 On ch=16 n=43 v=66
60214 On ch=16 n=43 v=0
60240 On ch=16 n=43 v=70
60262 On ch=16 n=43 v=0
60264 On ch=16 n=43 v=84
60309 On ch=16 n=43 v=0
60312 On ch=16 n=43 v=70
60357 On ch=16 n=43 v=0
60360 On ch=16 n=43 v=60
60405 On ch=16 n=43 v=0
60408 On ch=16 n=43 v=74
60426 Pb ch=16 v=8877
60430 Pb ch=16 v=9557
60432 Pb ch=16 v=10240
60434 Pb ch=16 v=10923
60435 Pb ch=16 v=11605
60436 Pb ch=16 v=12288
60437 Pb ch=16 v=12971
60456 On ch=16 n=43 v=0
60456 Pb ch=16 v=8192
60456 On ch=16 n=50 v=70
60501 On ch=16 n=50 v=0
60504 On ch=16 n=50 v=82
60572 On ch=16 n=50 v=0
60576 On ch=16 n=50 v=80
60596 On ch=16 n=50 v=0
60624 On ch=16 n=46 v=68
60646 On ch=16 n=46 v=0
60648 On ch=16 n=46 v=88
60693 On ch=16 n=46 v=0
60696 On ch=16 n=46 v=77
60718 On ch=16 n=46 v=0
60720 On ch=16 n=46 v=80
60768 On ch=16 n=46 v=0
60768 On ch=16 n=46 v=60
60790 On ch=16 n=46 v=0
60792 Par ch=16 c=11 v=70
60792 On ch=16 n=46 v=84
60813 Pb ch=16 v=7509
60816 Pb ch=16 v=6827
60818 Pb ch=16 v=6144
60840 On ch=16 n=46 v=0
60840 Pb ch=16 v=8192
60840 On ch=16 n=43 v=80
60885 On ch=16 n=43 v=0
60888 On ch=16 n=43 v=85
60956 On ch=16 n=43 v=0
60960 On ch=16 n=43 v=66
60982 On ch=16 n=43 v=0
61008 On ch=16 n=43 v=70
61030 On ch=16 n=43 v=0
61032 On ch=16 n=43 v=84
61077 On ch=16 n=43 v=0
61080 On ch=16 n=43 v=70
61125 On ch=16 n=43 v=0
61128 On ch=16 n=43 v=60
61173 On ch=16 n=43 v=0
61176 Par ch=16 c=11 v=75
61176 On ch=16 n=50 v=110
61198 On ch=16 n=50 v=0
61200 On ch=16 n=50 v=98
61222 On ch=16 n=50 v=0
61224 On ch=16 n=50 v=100
61246 On ch=16 n=50 v=0
61248 On ch=16 n=50 v=96
61270 On ch=16 n=50 v=0
61272 On ch=16 n=50 v=110
61294 On ch=16 n=50 v=0
61296 On ch=16 n=50 v=100
61318 On ch=16 n=50 v=0
61320 On ch=16 n=50 v=102
61342 On ch=16 n=50 v=0
61344 On ch=16 n=50 v=100
61366 On ch=16 n=50 v=0
61392 On ch=16 n=46 v=120
61437 On ch=16 n=46 v=0
61440 On ch=16 n=46 v=106
61462 On ch=16 n=46 v=0
61464 On ch=16 n=46 v=110
61486 On ch=16 n=46 v=0
61488 On ch=16 n=46 v=105
61510 On ch=16 n=46 v=0
61512 On ch=16 n=46 v=107
61534 On ch=16 n=46 v=0
61536 On ch=16 n=46 v=110
61558 On ch=16 n=46 v=0
61584 On ch=16 n=43 v=125
61652 On ch=16 n=43 v=0
61656 On ch=16 n=43 v=125
61724 On ch=16 n=43 v=0
61728 On ch=16 n=43 v=125
61774 On ch=16 n=43 v=0
61776 On ch=16 n=43 v=110
61798 On ch=16 n=43 v=0
61800 On ch=16 n=43 v=120
61868 On ch=16 n=43 v=0
61872 On ch=16 n=43 v=120
61917 On ch=16 n=43 v=0
61920 On ch=16 n=43 v=120
61942 On ch=16 n=43 v=0
61944 On ch=16 n=43 v=98
61962 Pb ch=16 v=8877
61966 Pb ch=16 v=9557
61968 Pb ch=16 v=10240
61970 Pb ch=16 v=10923
61971 Pb ch=16 v=11605
61972 Pb ch=16 v=12288
61973 Pb ch=16 v=12971
61992 On ch=16 n=43 v=0
61992 Pb ch=16 v=8192
61992 On ch=16 n=50 v=94
62037 On ch=16 n=50 v=0
62040 On ch=16 n=50 v=106
62108 On ch=16 n=50 v=0
62112 On ch=16 n=50 v=104
62132 On ch=16 n=50 v=0
62160 On ch=16 n=46 v=92
62182 On ch=16 n=46 v=0
62184 On ch=16 n=46 v=112
62229 On ch=16 n=46 v=0
62232 On ch=16 n=46 v=101
62254 On ch=16 n=46 v=0
62256 On ch=16 n=46 v=104
62304 On ch=16 n=46 v=0
62304 On ch=16 n=46 v=84
62326 On ch=16 n=46 v=0
62328 On ch=16 n=46 v=108
62349 Pb ch=16 v=7509
62352 Pb ch=16 v=6827
62354 Pb ch=16 v=6144
62376 On ch=16 n=46 v=0
62376 Pb ch=16 v=8192
62376 On ch=16 n=43 v=104
62421 On ch=16 n=43 v=0
62424 On ch=16 n=43 v=109
62492 On ch=16 n=43 v=0
62496 On ch=16 n=43 v=90
62518 On ch=16 n=43 v=0
62544 On ch=16 n=43 v=94
62566 On ch=16 n=43 v=0
62568 On ch=16 n=43 v=108
62613 On ch=16 n=43 v=0
62616 On ch=16 n=43 v=94
62661 On ch=16 n=43 v=0
62664 On ch=16 n=43 v=84
62709 On ch=16 n=43 v=0
62712 Pb ch=16 v=7509
62712 On ch=16 n=50 v=110
62716 Pb ch=16 v=8192
62736 On ch=16 n=50 v=0
62736 On ch=16 n=50 v=95
62760 On ch=16 n=50 v=0
62760 On ch=16 n=50 v=100
62784 On ch=16 n=50 v=0
62784 On ch=16 n=50 v=96
62808 On ch=16 n=50 v=0
62808 On ch=16 n=50 v=110
62832 On ch=16 n=50 v=0
62832 On ch=16 n=50 v=98
62856 On ch=16 n=50 v=0
62856 On ch=16 n=50 v=105
62880 On ch=16 n=50 v=0
62880 On ch=16 n=50 v=84
62904 On ch=16 n=50 v=0
62904 On ch=16 n=46 v=114
62928 On ch=16 n=46 v=0
62928 On ch=16 n=46 v=99
62952 On ch=16 n=46 v=0
62952 On ch=16 n=46 v=100
62976 On ch=16 n=46 v=0
62976 On ch=16 n=46 v=94
63000 On ch=16 n=46 v=0
63000 On ch=16 n=46 v=108
63024 On ch=16 n=46 v=0
63024 On ch=16 n=46 v=97
63048 On ch=16 n=46 v=0
63048 On ch=16 n=46 v=100
63072 On ch=16 n=46 v=0
63072 On ch=16 n=46 v=94
63096 On ch=16 n=46 v=0
63096 On ch=16 n=46 v=108
63120 Pb ch=16 v=7509
63124 Pb ch=16 v=6827
63127 Pb ch=16 v=6144
63144 On ch=16 n=46 v=0
63144 Pb ch=16 v=8192
63144 On ch=16 n=43 v=108
63192 On ch=16 n=43 v=0
63192 On ch=16 n=43 v=120
63240 On ch=16 n=43 v=0
63240 On ch=16 n=43 v=108
63264 On ch=16 n=43 v=0
63264 On ch=16 n=43 v=124
63310 On ch=16 n=43 v=0
63312 On ch=16 n=43 v=108
63334 On ch=16 n=43 v=0
63336 On ch=16 n=43 v=114
63381 On ch=16 n=43 v=0
63384 On ch=16 n=43 v=108
63406 On ch=16 n=43 v=0
63408 On ch=16 n=43 v=92
63430 On ch=16 n=43 v=0
63432 On ch=16 n=43 v=85
63454 On ch=16 n=43 v=0
63456 On ch=16 n=43 v=85
63478 On ch=16 n=43 v=0
63480 Pb ch=16 v=7509
63480 On ch=16 n=50 v=109
63485 Pb ch=16 v=8192
63528 On ch=16 n=50 v=0
63528 On ch=16 n=50 v=111
63573 On ch=16 n=50 v=0
63576 On ch=16 n=50 v=108
63621 On ch=16 n=50 v=0
63624 On ch=16 n=50 v=98
63648 On ch=16 n=50 v=0
63648 On ch=16 n=50 v=118
63670 On ch=16 n=50 v=0
63696 On ch=16 n=46 v=110
63720 On ch=16 n=46 v=0
63720 On ch=16 n=46 v=118
63765 On ch=16 n=46 v=0
63768 On ch=16 n=46 v=105
63790 On ch=16 n=46 v=0
63792 On ch=16 n=46 v=114
63814 On ch=16 n=46 v=0
63816 On ch=16 n=46 v=100
63838 On ch=16 n=46 v=0
63840 On ch=16 n=46 v=108
63862 On ch=16 n=46 v=0
63864 On ch=16 n=46 v=110
63888 Pb ch=16 v=7509
63892 Pb ch=16 v=6827
63894 Pb ch=16 v=6144
63912 On ch=16 n=46 v=0
63912 Pb ch=16 v=8192
63912 On ch=16 n=43 v=96
63936 On ch=16 n=43 v=0
63960 On ch=16 n=43 v=98
64008 On ch=16 n=43 v=0
64008 On ch=16 n=43 v=95
64030 On ch=16 n=43 v=0
64056 On ch=16 n=43 v=100
64124 On ch=16 n=43 v=0
64152 On ch=16 n=43 v=110
64200 On ch=16 n=43 v=0
64200 On ch=16 n=43 v=115
64236 Pb ch=16 v=7509
64240 Pb ch=16 v=6827
64243 Pb ch=16 v=6144
64245 Pb ch=16 v=5821
64246 Pb ch=16 v=4779
64247 Pb ch=16 v=4096
64248 On ch=16 n=43 v=0
64248 Par ch=16 c=11 v=127
64248 PrCh ch=16 p=34
64248 Pb ch=16 v=8192
64248 Par ch=16 c=10 v=64
64248 On ch=16 n=43 v=116
64438 On ch=16 n=43 v=0
64440 On ch=16 n=39 v=116
64630 On ch=16 n=39 v=0
64632 On ch=16 n=36 v=116
65014 On ch=16 n=36 v=0
65016 On ch=16 n=43 v=116
65206 On ch=16 n=43 v=0
65208 On ch=16 n=39 v=116
65398 On ch=16 n=39 v=0
65400 On ch=16 n=36 v=116
65782 On ch=16 n=36 v=0
65784 On ch=16 n=43 v=116
65974 On ch=16 n=43 v=0
65976 On ch=16 n=39 v=116
66166 On ch=16 n=39 v=0
66168 On ch=16 n=36 v=116
66550 On ch=16 n=36 v=0
66552 On ch=16 n=43 v=116
66742 On ch=16 n=43 v=0
66744 On ch=16 n=39 v=116
66934 On ch=16 n=39 v=0
66936 On ch=16 n=36 v=116
67318 On ch=16 n=36 v=0
67320 On ch=16 n=43 v=116
67510 On ch=16 n=43 v=0
67512 On ch=16 n=39 v=116
67702 On ch=16 n=39 v=0
67704 On ch=16 n=36 v=116
68086 On ch=16 n=36 v=0
68088 On ch=16 n=43 v=116
68278 On ch=16 n=43 v=0
68280 On ch=16 n=39 v=116
68470 On ch=16 n=39 v=0
68472 On ch=16 n=36 v=116
68854 On ch=16 n=36 v=0
68856 On ch=16 n=43 v=116
69046 On ch=16 n=43 v=0
69048 On ch=16 n=39 v=116
69238 On ch=16 n=39 v=0
69240 On ch=16 n=36 v=116
69432 Par ch=16 c=7 v=116
69456 Par ch=16 c=7 v=115
69472 Par ch=16 c=7 v=114
69488 Par ch=16 c=7 v=113
69504 Par ch=16 c=7 v=112
69528 Par ch=16 c=7 v=111
69544 Par ch=16 c=7 v=110
69560 Par ch=16 c=7 v=109
69576 Par ch=16 c=7 v=108
69600 Par ch=16 c=7 v=107
69616 Par ch=16 c=7 v=106
69622 On ch=16 n=36 v=0
69624 On ch=16 n=43 v=116
69632 Par ch=16 c=7 v=105
69648 Par ch=16 c=7 v=104
69672 Par ch=16 c=7 v=103
69688 Par ch=16 c=7 v=102
69704 Par ch=16 c=7 v=101
69720 Par ch=16 c=7 v=100
69744 Par ch=16 c=7 v=99
69760 Par ch=16 c=7 v=98
69776 Par ch=16 c=7 v=97
69792 Par ch=16 c=7 v=96
69814 On ch=16 n=43 v=0
69816 On ch=16 n=39 v=116
69816 Par ch=16 c=7 v=95
69832 Par ch=16 c=7 v=94
69848 Par ch=16 c=7 v=93
69864 Par ch=16 c=7 v=92
69888 Par ch=16 c=7 v=91
69904 Par ch=16 c=7 v=90
69920 Par ch=16 c=7 v=89
69936 Par ch=16 c=7 v=88
69960 Par ch=16 c=7 v=87
69976 Par ch=16 c=7 v=86
69992 Par ch=16 c=7 v=85
70006 On ch=16 n=39 v=0
70008 On ch=16 n=36 v=116
70008 Par ch=16 c=7 v=84
70032 Par ch=16 c=7 v=83
70048 Par ch=16 c=7 v=82
70064 Par ch=16 c=7 v=81
70080 Par ch=16 c=7 v=80
70104 Par ch=16 c=7 v=79
70120 Par ch=16 c=7 v=78
70136 Par ch=16 c=7 v=77
70152 Par ch=16 c=7 v=76
70176 Par ch=16 c=7 v=75
70192 Par ch=16 c=7 v=74
70208 Par ch=16 c=7 v=73
70224 Par ch=16 c=7 v=72
70248 Par ch=16 c=7 v=71
70264 Par ch=16 c=7 v=70
70280 Par ch=16 c=7 v=69
70296 Par ch=16 c=7 v=68
70320 Par ch=16 c=7 v=67
70336 Par ch=16 c=7 v=66
70352 Par ch=16 c=7 v=65
70368 Par ch=16 c=7 v=64
70390 On ch=16 n=36 v=0
70392 On ch=16 n=43 v=116
70392 Par ch=16 c=7 v=63
70408 Par ch=16 c=7 v=62
70424 Par ch=16 c=7 v=61
70440 Par ch=16 c=7 v=60
70464 Par ch=16 c=7 v=59
70480 Par ch=16 c=7 v=58
70496 Par ch=16 c=7 v=57
70512 Par ch=16 c=7 v=56
70536 Par ch=16 c=7 v=55
70552 Par ch=16 c=7 v=54
70568 Par ch=16 c=7 v=53
70582 On ch=16 n=43 v=0
70584 On ch=16 n=39 v=116
70584 Par ch=16 c=7 v=52
70608 Par ch=16 c=7 v=51
70624 Par ch=16 c=7 v=50
70640 Par ch=16 c=7 v=49
70656 Par ch=16 c=7 v=48
70680 Par ch=16 c=7 v=47
70696 Par ch=16 c=7 v=46
70712 Par ch=16 c=7 v=45
70728 Par ch=16 c=7 v=44
70752 Par ch=16 c=7 v=43
70768 Par ch=16 c=7 v=42
70774 On ch=16 n=39 v=0
70776 On ch=16 n=36 v=116
70784 Par ch=16 c=7 v=41
70800 Par ch=16 c=7 v=40
70824 Par ch=16 c=7 v=39
70840 Par ch=16 c=7 v=38
70856 Par ch=16 c=7 v=37
70872 Par ch=16 c=7 v=36
70896 Par ch=16 c=7 v=35
70912 Par ch=16 c=7 v=34
70928 Par ch=16 c=7 v=33
70944 Par ch=16 c=7 v=32
70968 Par ch=16 c=7 v=31
70984 Par ch=16 c=7 v=30
71000 Par ch=16 c=7 v=29
71016 Par ch=16 c=7 v=28
71040 Par ch=16 c=7 v=27
71056 Par ch=16 c=7 v=26
71072 Par ch=16 c=7 v=25
71088 Par ch=16 c=7 v=24
71112 Par ch=16 c=7 v=23
71128 Par ch=16 c=7 v=22
71144 Par ch=16 c=7 v=21
71158 On ch=16 n=36 v=0
71160 Par ch=16 c=7 v=20
71160 On ch=16 n=43 v=116
71350 On ch=16 n=43 v=0
71352 Par ch=16 c=7 v=15
71352 On ch=16 n=39 v=116
71542 On ch=16 n=39 v=0
71542 Meta TrkEnd
TrkEnd
