MFile 1 19 120
MTrk
0 TimeSig 4/4 24 8
0 KeySig 1 major
0 Tempo 1153846
2 Tempo 1176471
4320 Tempo 550459
4440 Tempo 461538
46598 Tempo 487805
46800 Tempo 512821
47160 Tempo 517241
47522 Tempo 454545
70566 Tempo 1016949
73442 Tempo 454545
74400 TimeSig 2/4 24 8
74640 TimeSig 4/4 24 8
90564 Tempo 472441
90722 Tempo 500000
90846 Tempo 550459
90962 Tempo 588235
90962 Meta TrkEnd
TrkEnd
MTrk
0 Meta 0x21 00
0 Meta Text "@KMIDI KARAOKE FILE tm"
0 Meta Text "@KAll rights reserved, TUNE 1000 CORP."
0 Meta Text "@V0100"
0 Meta Text "@I 11-24-93, 13:00, L.T."
0 Meta Text "@KCopyright WARNER CHAPPELL International rights secured"
0 Meta TrkEnd
TrkEnd
MTrk
0 Meta 0x21 00
0 Meta Text "@LENGL"
0 Meta Text "@TROUNDABOUT"
0 Meta Text "@TJon Anderson / Steve Howe"
0 Meta Text "@TCopyright WARNER CHAPPELL International rights secured"
0 Meta Text "@WALL rights reserved. Not for broadcast or"
0 Meta Text "@Wtransmission of any kind."
0 Meta Text "@WDO NOT DUPLICATE. NOT FOR RENTAL."
9180 Meta Text "\\I'll"
9239 Meta Text " be"
9299 Meta Text " the "
9358 Meta Text "round"
9659 Meta Text "a"
9779 Meta Text "bout,"
10139 Meta Text "/the"
10199 Meta Text " words"
10259 Meta Text " will"
10317 Meta Text " make"
10619 Meta Text " you"
10739 Meta Text " out-"
10859 Meta Text "'n'-"
10921 Meta Text "out."
11099 Meta Text "/I"
11159 Meta Text " spend"
11219 Meta Text " the"
11279 Meta Text " day"
11579 Meta Text " your"
11699 Meta Text " way."
12539 Meta Text "\\Call "
12658 Meta Text "it"
12719 Meta Text " morn"
12779 Meta Text "ing"
12841 Meta Text " driv"
12901 Meta Text "ing"
12961 Meta Text " thru"
13021 Meta Text " the"
13081 Meta Text " sound"
13201 Meta Text "/in"
13261 Meta Text " and"
13322 Meta Text " out"
13379 Meta Text " the"
13434 Meta Text " val"
13504 Meta Text "ley."
16378 Meta Text "\\The "
16439 Meta Text "mu"
16501 Meta Text "sic"
16561 Meta Text " dance"
16859 Meta Text " and"
16979 Meta Text " sing,"
17338 Meta Text "/they"
17398 Meta Text " make"
17461 Meta Text " the"
17519 Meta Text " chil"
17819 Meta Text "dren"
17938 Meta Text " real"
18059 Meta Text "ly"
18119 Meta Text " ring."
18299 Meta Text "/I"
18358 Meta Text " spend"
18420 Meta Text " the"
18479 Meta Text " day"
18779 Meta Text " your"
18899 Meta Text " way."
19738 Meta Text "\\Call "
19858 Meta Text "it"
19918 Meta Text " morn"
19979 Meta Text "ing"
20040 Meta Text " driv"
20101 Meta Text "ing"
20159 Meta Text " thru"
20222 Meta Text " the"
20282 Meta Text " sound"
20402 Meta Text "/in"
20462 Meta Text " and"
20522 Meta Text " out"
20581 Meta Text " the"
20643 Meta Text " val"
20703 Meta Text "ley."
21358 Meta Text "\\In "
21419 Meta Text "and"
21479 Meta Text " a"
21541 Meta Text "round"
21719 Meta Text " the"
21781 Meta Text " lake,"
22319 Meta Text "/moun"
22379 Meta Text "tains"
22438 Meta Text " come"
22499 Meta Text " out"
22620 Meta Text " of"
22680 Meta Text " the"
22739 Meta Text " sky"
22861 Meta Text "/and"
22919 Meta Text " they"
22980 Meta Text " stand"
23098 Meta Text " there."
24181 Meta Text "\\One "
24299 Meta Text "mile"
24359 Meta Text " o"
24421 Meta Text "ver"
24481 Meta Text " we'll"
24539 Meta Text " be"
24599 Meta Text " there"
24658 Meta Text "/and"
24719 Meta Text " we'll"
24779 Meta Text " see"
24900 Meta Text " you."
25859 Meta Text "\\Ten"
25978 Meta Text " true"
26038 Meta Text " sum"
26100 Meta Text "mers"
26159 Meta Text " we'll"
26221 Meta Text " be"
26280 Meta Text " there"
26339 Meta Text "/and"
26398 Meta Text " laugh"
26458 Meta Text "ing"
26579 Meta Text " too."
27540 Meta Text "\\Twen"
27658 Meta Text "ty"
27718 Meta Text " four"
27781 Meta Text " be"
27839 Meta Text "fore"
27901 Meta Text " my"
27959 Meta Text " love"
28019 Meta Text "/you'll"
28141 Meta Text " see"
28259 Meta Text " I'll"
28380 Meta Text " be"
28499 Meta Text " there"
28619 Meta Text " with"
28747 Meta Text " you."
33181 Meta Text "\\I"
33301 Meta Text " will"
33479 Meta Text " re"
33541 Meta Text "mem"
33659 Meta Text "ber"
33781 Meta Text " you,"
34139 Meta Text "/your"
34198 Meta Text " sil"
34259 Meta Text "hou"
34318 Meta Text "ette"
34619 Meta Text " will"
34740 Meta Text " charge"
34858 Meta Text " the"
34918 Meta Text " view"
35099 Meta Text "/of"
35219 Meta Text " dis"
35338 Meta Text "tant"
35399 Meta Text " at"
35580 Meta Text "mo"
35701 Meta Text "sphere."
36539 Meta Text "\\Call"
36660 Meta Text " it"
36719 Meta Text " morn"
36779 Meta Text "ing"
36839 Meta Text " driv"
36902 Meta Text "ing"
36972 Meta Text " thru"
37020 Meta Text " the"
37081 Meta Text " sound"
37199 Meta Text "/ev"
37262 Meta Text "en"
37321 Meta Text " in"
37379 Meta Text " the"
37432 Meta Text " val"
37502 Meta Text "ley."
38158 Meta Text "\\In "
38218 Meta Text "and"
38277 Meta Text " a"
38342 Meta Text "round"
38519 Meta Text " the"
38581 Meta Text " lake,"
39121 Meta Text "/moun"
39180 Meta Text "tains"
39238 Meta Text " come"
39299 Meta Text " out"
39419 Meta Text " of"
39479 Meta Text " the"
39539 Meta Text " sky"
39662 Meta Text "/and"
39721 Meta Text " they"
39780 Meta Text " stand"
39898 Meta Text " there."
40980 Meta Text "\\One"
41101 Meta Text " mile"
41159 Meta Text " o"
41220 Meta Text "ver"
41279 Meta Text " we'll"
41341 Meta Text " be"
41398 Meta Text " there"
41461 Meta Text "/and"
41519 Meta Text " we'll"
41579 Meta Text " see"
41699 Meta Text " you."
42659 Meta Text "\\Ten"
42778 Meta Text " true"
42839 Meta Text " sum"
42901 Meta Text "mers"
42958 Meta Text " we'll"
43021 Meta Text " be"
43079 Meta Text " there"
43138 Meta Text "/and"
43198 Meta Text " laugh"
43258 Meta Text "ing"
43379 Meta Text " too."
44340 Meta Text "\\Twen"
44458 Meta Text "ty"
44518 Meta Text " four"
44581 Meta Text " be"
44638 Meta Text "fore"
44701 Meta Text " my"
44759 Meta Text " love"
44818 Meta Text "/you'll"
44939 Meta Text " see"
45058 Meta Text " I'll"
45181 Meta Text " be"
45299 Meta Text " there"
45421 Meta Text " with"
45547 Meta Text " you."
49738 Meta Text "\\A"
49797 Meta Text "long"
49856 Meta Text " the"
49918 Meta Text " drift"
49981 Meta Text "ing"
50102 Meta Text " cloud,"
50221 Meta Text "/the"
50282 Meta Text " ea"
50341 Meta Text "gle"
50402 Meta Text " search"
50463 Meta Text "ing"
50582 Meta Text " down"
50701 Meta Text " on"
50817 Meta Text " the"
50881 Meta Text " land."
51657 Meta Text "\\Catch"
51718 Meta Text "ing"
51777 Meta Text " the"
51840 Meta Text " swirl"
51902 Meta Text "ing"
52021 Meta Text " wind,"
52141 Meta Text "/the"
52201 Meta Text " sail"
52261 Meta Text "or"
52330 Meta Text " sees"
52380 Meta Text " the"
52501 Meta Text " rim"
52621 Meta Text " of"
52734 Meta Text " the"
52798 Meta Text " land."
53577 Meta Text "\\The"
53638 Meta Text " ea"
53698 Meta Text "gle's"
53770 Meta Text " danc"
53822 Meta Text "ing"
53938 Meta Text " wings"
54059 Meta Text "/cre"
54120 Meta Text "ate"
54179 Meta Text " as"
54250 Meta Text " weath"
54304 Meta Text "er"
54421 Meta Text " spins"
54541 Meta Text " out"
54657 Meta Text " of"
54718 Meta Text " hand."
59337 Meta Text "\\Go"
59401 Meta Text " clos"
59461 Meta Text "er,"
59522 Meta Text " hold"
59584 Meta Text " the"
59702 Meta Text " land,"
59821 Meta Text "/feel"
59881 Meta Text " part"
59939 Meta Text "ly"
60011 Meta Text " no"
60063 Meta Text " more"
60181 Meta Text " than"
60300 Meta Text " grains"
60415 Meta Text " of"
60481 Meta Text " sand."
61259 Meta Text "\\We"
61321 Meta Text " stand"
61381 Meta Text " to"
61448 Meta Text " lose"
61503 Meta Text " all"
61622 Meta Text " time,"
61741 Meta Text "/a"
61803 Meta Text " thou"
61861 Meta Text "sand"
61932 Meta Text " an"
61984 Meta Text "swers"
62103 Meta Text " by"
62224 Meta Text " in"
62337 Meta Text " our"
62401 Meta Text " hand."
63179 Meta Text "\\Next"
63239 Meta Text " to"
63297 Meta Text " your"
63372 Meta Text " deep"
63419 Meta Text "er"
63539 Meta Text " fears,"
63659 Meta Text "/we"
63719 Meta Text " stand"
63778 Meta Text " sur"
63851 Meta Text "round"
63901 Meta Text "ed"
64021 Meta Text " by"
64161 Meta Text " mil"
64242 Meta Text "lion"
64321 Meta Text " years."
64860 Meta Text "\\I'll"
64921 Meta Text " be"
64981 Meta Text " the "
65041 Meta Text "round"
65340 Meta Text "a"
65461 Meta Text "bout,"
65819 Meta Text "/the"
65879 Meta Text " words"
65941 Meta Text " will"
66000 Meta Text " make"
66299 Meta Text " you"
66419 Meta Text " out-"
66538 Meta Text "'n'-"
66599 Meta Text "out."
66779 Meta Text "\\I'll"
66841 Meta Text " be"
66902 Meta Text " the"
66961 Meta Text " round"
67262 Meta Text "a"
67381 Meta Text "bout,"
67738 Meta Text "/the"
67799 Meta Text " words"
67859 Meta Text " will"
67921 Meta Text " make"
68218 Meta Text " you"
68339 Meta Text " out-"
68457 Meta Text "'n'-"
68519 Meta Text "out."
71883 Meta Text "\\In"
71913 Meta Text " and"
71943 Meta Text " a"
71969 Meta Text "round"
72061 Meta Text " the"
72093 Meta Text " lake,"
72357 Meta Text "/moun"
72388 Meta Text "tains"
72418 Meta Text " come"
72448 Meta Text " out"
72509 Meta Text " of"
72540 Meta Text " the"
72571 Meta Text " sky,"
72659 Meta Text "/they"
72720 Meta Text " stand"
72809 Meta Text " there."
73197 Meta Text "\\Twen"
73226 Meta Text "ty"
73256 Meta Text " four"
73286 Meta Text " be"
73317 Meta Text "fore"
73348 Meta Text " my"
73380 Meta Text " love"
73441 Meta Text "/I'll"
73505 Meta Text " be"
73626 Meta Text " there."
83459 Meta Text "\\Da "
83521 Meta Text "ya"
83581 Meta Text " doo"
83641 Meta Text " doo"
83701 Meta Text " da"
83939 Meta Text " la"
84119 Meta Text " da,"
84301 Meta Text "/da"
84361 Meta Text " ya"
84421 Meta Text " doo"
84481 Meta Text " doo"
84541 Meta Text " da"
84779 Meta Text " la"
84959 Meta Text " da,"
85139 Meta Text "/da"
85201 Meta Text " ya"
85261 Meta Text " doo"
85321 Meta Text " doo"
85381 Meta Text " da"
85621 Meta Text " la"
85799 Meta Text " da,"
85979 Meta Text "\\da"
86041 Meta Text " ya"
86101 Meta Text " doo"
86161 Meta Text " doo"
86221 Meta Text " da"
86459 Meta Text " la"
86639 Meta Text " da,"
86820 Meta Text "/da"
86881 Meta Text " ya"
86941 Meta Text " doo"
86999 Meta Text " doo"
87061 Meta Text " da"
87301 Meta Text " la"
87480 Meta Text " da,"
87659 Meta Text "/da"
87719 Meta Text " ya"
87779 Meta Text " doo"
87839 Meta Text " doo"
87899 Meta Text " da"
88139 Meta Text " la"
88319 Meta Text " da,"
88499 Meta Text "\\da"
88559 Meta Text " ya"
88619 Meta Text " doo"
88679 Meta Text " doo"
88740 Meta Text " da"
88979 Meta Text " la"
89159 Meta Text " da,"
89339 Meta Text "/da"
89400 Meta Text " ya"
89459 Meta Text " doo"
89519 Meta Text " doo"
89581 Meta Text " da"
89814 Meta Text " la"
90001 Meta Text " da."
90001 Meta TrkEnd
TrkEnd
MTrk
0 Meta 0x21 00
0 Meta TrkName "Melody"
0 PrCh ch=1 p=63
0 Par ch=1 c=7 v=110
0 Par ch=1 c=10 v=64
0 Par ch=1 c=121 v=0
2 Par ch=1 c=0 v=0
4 Par ch=1 c=32 v=0
6 Par ch=1 c=11 v=127
8 Par ch=1 c=91 v=100
10 Par ch=1 c=93 v=110
9180 On ch=1 n=59 v=70
9239 On ch=1 n=61 v=98
9243 On ch=1 n=59 v=0
9299 On ch=1 n=59 v=76
9302 On ch=1 n=61 v=0
9357 On ch=1 n=59 v=0
9358 On ch=1 n=66 v=98
9659 On ch=1 n=64 v=100
9664 On ch=1 n=66 v=0
9771 On ch=1 n=64 v=0
9779 On ch=1 n=64 v=90
9969 On ch=1 n=64 v=0
10139 On ch=1 n=59 v=90
10195 On ch=1 n=59 v=0
10199 On ch=1 n=61 v=81
10259 On ch=1 n=59 v=75
10260 On ch=1 n=61 v=0
10312 On ch=1 n=59 v=0
10317 On ch=1 n=66 v=108
10616 On ch=1 n=66 v=0
10619 On ch=1 n=67 v=104
10733 On ch=1 n=67 v=0
10739 On ch=1 n=66 v=108
10850 On ch=1 n=66 v=0
10859 On ch=1 n=67 v=104
10921 On ch=1 n=66 v=98
10925 On ch=1 n=67 v=0
10994 On ch=1 n=66 v=0
11099 On ch=1 n=59 v=93
11155 On ch=1 n=59 v=0
11159 On ch=1 n=61 v=87
11217 On ch=1 n=61 v=0
11219 On ch=1 n=59 v=75
11279 On ch=1 n=59 v=0
11279 On ch=1 n=66 v=111
11568 On ch=1 n=66 v=0
11579 On ch=1 n=67 v=98
11694 On ch=1 n=67 v=0
11699 On ch=1 n=69 v=95
12462 On ch=1 n=69 v=0
12539 On ch=1 n=67 v=112
12658 On ch=1 n=66 v=92
12659 On ch=1 n=67 v=0
12707 On ch=1 n=66 v=0
12719 On ch=1 n=66 v=104
12779 On ch=1 n=64 v=74
12782 On ch=1 n=66 v=0
12841 On ch=1 n=66 v=100
12844 On ch=1 n=64 v=0
12901 On ch=1 n=64 v=95
12902 On ch=1 n=66 v=0
12961 On ch=1 n=66 v=104
12969 On ch=1 n=64 v=0
13021 On ch=1 n=64 v=85
13024 On ch=1 n=66 v=0
13081 On ch=1 n=66 v=108
13084 On ch=1 n=64 v=0
13177 On ch=1 n=66 v=0
13201 On ch=1 n=66 v=104
13261 On ch=1 n=64 v=87
13264 On ch=1 n=66 v=0
13322 On ch=1 n=66 v=111
13323 On ch=1 n=64 v=0
13379 On ch=1 n=64 v=87
13380 On ch=1 n=66 v=0
13428 On ch=1 n=64 v=0
13434 On ch=1 n=67 v=120
13496 On ch=1 n=67 v=0
13504 On ch=1 n=67 v=120
14273 On ch=1 n=67 v=0
16378 On ch=1 n=59 v=83
16439 On ch=1 n=61 v=100
16442 On ch=1 n=59 v=0
16501 On ch=1 n=59 v=85
16502 On ch=1 n=61 v=0
16559 On ch=1 n=59 v=0
16561 On ch=1 n=66 v=100
16858 On ch=1 n=66 v=0
16859 On ch=1 n=64 v=104
16968 On ch=1 n=64 v=0
16979 On ch=1 n=64 v=93
17139 On ch=1 n=64 v=0
17338 On ch=1 n=59 v=93
17396 On ch=1 n=59 v=0
17398 On ch=1 n=61 v=117
17461 On ch=1 n=61 v=0
17461 On ch=1 n=59 v=76
17515 On ch=1 n=59 v=0
17519 On ch=1 n=66 v=112
17762 On ch=1 n=66 v=0
17819 On ch=1 n=67 v=112
17934 On ch=1 n=67 v=0
17938 On ch=1 n=66 v=108
18054 On ch=1 n=66 v=0
18059 On ch=1 n=67 v=93
18119 On ch=1 n=66 v=100
18121 On ch=1 n=67 v=0
18184 On ch=1 n=66 v=0
18299 On ch=1 n=59 v=95
18353 On ch=1 n=59 v=0
18358 On ch=1 n=61 v=111
18418 On ch=1 n=61 v=0
18420 On ch=1 n=59 v=83
18471 On ch=1 n=59 v=0
18479 On ch=1 n=66 v=117
18758 On ch=1 n=66 v=0
18779 On ch=1 n=67 v=112
18892 On ch=1 n=67 v=0
18899 On ch=1 n=69 v=114
19606 On ch=1 n=69 v=0
19738 On ch=1 n=67 v=100
19857 On ch=1 n=67 v=0
19858 On ch=1 n=66 v=85
19908 On ch=1 n=66 v=0
19918 On ch=1 n=66 v=112
19979 On ch=1 n=64 v=73
19983 On ch=1 n=66 v=0
20033 On ch=1 n=64 v=0
20040 On ch=1 n=66 v=98
20099 On ch=1 n=66 v=0
20101 On ch=1 n=64 v=76
20154 On ch=1 n=64 v=0
20159 On ch=1 n=66 v=100
20222 On ch=1 n=64 v=83
20227 On ch=1 n=66 v=0
20276 On ch=1 n=64 v=0
20282 On ch=1 n=66 v=104
20387 On ch=1 n=66 v=0
20402 On ch=1 n=66 v=114
20461 On ch=1 n=66 v=0
20462 On ch=1 n=64 v=85
20517 On ch=1 n=64 v=0
20522 On ch=1 n=66 v=111
20581 On ch=1 n=66 v=0
20581 On ch=1 n=64 v=85
20642 On ch=1 n=64 v=0
20643 On ch=1 n=67 v=95
20685 On ch=1 n=67 v=0
20703 On ch=1 n=67 v=81
21349 On ch=1 n=67 v=0
21358 On ch=1 n=55 v=81
21400 On ch=1 n=55 v=0
21419 On ch=1 n=55 v=76
21477 On ch=1 n=55 v=0
21479 On ch=1 n=64 v=111
21536 On ch=1 n=64 v=0
21541 On ch=1 n=62 v=83
21694 On ch=1 n=62 v=0
21719 On ch=1 n=60 v=87
21781 On ch=1 n=60 v=0
21781 On ch=1 n=59 v=79
21901 On ch=1 n=59 v=0
22319 On ch=1 n=55 v=77
22360 On ch=1 n=55 v=0
22379 On ch=1 n=55 v=81
22433 On ch=1 n=55 v=0
22438 On ch=1 n=64 v=90
22494 On ch=1 n=64 v=0
22499 On ch=1 n=62 v=87
22606 On ch=1 n=62 v=0
22620 On ch=1 n=62 v=104
22671 On ch=1 n=62 v=0
22680 On ch=1 n=60 v=69
22734 On ch=1 n=60 v=0
22739 On ch=1 n=59 v=87
22855 On ch=1 n=59 v=0
22861 On ch=1 n=64 v=111
22907 On ch=1 n=64 v=0
22919 On ch=1 n=64 v=74
22973 On ch=1 n=64 v=0
22980 On ch=1 n=65 v=108
23088 On ch=1 n=65 v=0
23098 On ch=1 n=67 v=85
23279 On ch=1 n=67 v=0
23279 On ch=1 n=55 v=86
23334 On ch=1 n=55 v=0
24181 On ch=1 n=62 v=100
24281 On ch=1 n=62 v=0
24299 On ch=1 n=62 v=90
24343 On ch=1 n=62 v=0
24359 On ch=1 n=64 v=104
24417 On ch=1 n=64 v=0
24421 On ch=1 n=62 v=71
24462 On ch=1 n=62 v=0
24481 On ch=1 n=65 v=95
24536 On ch=1 n=65 v=0
24539 On ch=1 n=62 v=61
24596 On ch=1 n=62 v=0
24599 On ch=1 n=65 v=104
24658 On ch=1 n=62 v=72
24662 On ch=1 n=65 v=0
24706 On ch=1 n=62 v=0
24719 On ch=1 n=65 v=93
24772 On ch=1 n=65 v=0
24779 On ch=1 n=67 v=121
24888 On ch=1 n=67 v=0
24900 On ch=1 n=70 v=108
24961 On ch=1 n=70 v=0
24961 On ch=1 n=67 v=86
25017 On ch=1 n=67 v=0
25859 On ch=1 n=62 v=111
25959 On ch=1 n=62 v=0
25978 On ch=1 n=62 v=98
26021 On ch=1 n=62 v=0
26038 On ch=1 n=64 v=111
26100 On ch=1 n=64 v=0
26100 On ch=1 n=62 v=69
26148 On ch=1 n=62 v=0
26159 On ch=1 n=65 v=112
26217 On ch=1 n=65 v=0
26221 On ch=1 n=62 v=69
26255 On ch=1 n=62 v=0
26280 On ch=1 n=65 v=120
26335 On ch=1 n=65 v=0
26339 On ch=1 n=62 v=71
26376 On ch=1 n=62 v=0
26398 On ch=1 n=65 v=112
26451 On ch=1 n=65 v=0
26458 On ch=1 n=67 v=90
26579 On ch=1 n=67 v=0
26579 On ch=1 n=70 v=121
26637 On ch=1 n=70 v=0
26639 On ch=1 n=67 v=90
26699 On ch=1 n=67 v=0
27540 On ch=1 n=62 v=98
27637 On ch=1 n=62 v=0
27658 On ch=1 n=62 v=86
27692 On ch=1 n=62 v=0
27718 On ch=1 n=64 v=121
27777 On ch=1 n=64 v=0
27781 On ch=1 n=62 v=65
27817 On ch=1 n=62 v=0
27839 On ch=1 n=65 v=121
27900 On ch=1 n=65 v=0
27901 On ch=1 n=62 v=73
27947 On ch=1 n=62 v=0
27959 On ch=1 n=64 v=114
28012 On ch=1 n=64 v=0
28019 On ch=1 n=65 v=111
28133 On ch=1 n=65 v=0
28141 On ch=1 n=67 v=114
28243 On ch=1 n=67 v=0
28259 On ch=1 n=67 v=90
28373 On ch=1 n=67 v=0
28380 On ch=1 n=67 v=112
28487 On ch=1 n=67 v=0
28499 On ch=1 n=67 v=98
28609 On ch=1 n=67 v=0
28619 On ch=1 n=67 v=112
28733 On ch=1 n=67 v=0
28747 On ch=1 n=67 v=108
29235 On ch=1 n=67 v=0
33181 On ch=1 n=59 v=100
33299 On ch=1 n=59 v=0
33301 On ch=1 n=62 v=111
33474 On ch=1 n=62 v=0
33479 On ch=1 n=59 v=95
33540 On ch=1 n=59 v=0
33541 On ch=1 n=66 v=108
33651 On ch=1 n=66 v=0
33659 On ch=1 n=64 v=114
33774 On ch=1 n=64 v=0
33781 On ch=1 n=64 v=100
33960 On ch=1 n=64 v=0
34139 On ch=1 n=59 v=87
34196 On ch=1 n=59 v=0
34198 On ch=1 n=61 v=95
34259 On ch=1 n=61 v=0
34259 On ch=1 n=59 v=98
34313 On ch=1 n=59 v=0
34318 On ch=1 n=66 v=104
34610 On ch=1 n=66 v=0
34619 On ch=1 n=67 v=90
34732 On ch=1 n=67 v=0
34740 On ch=1 n=66 v=86
34842 On ch=1 n=66 v=0
34858 On ch=1 n=67 v=93
34915 On ch=1 n=67 v=0
34918 On ch=1 n=66 v=95
34977 On ch=1 n=66 v=0
35099 On ch=1 n=59 v=93
35217 On ch=1 n=59 v=0
35219 On ch=1 n=62 v=117
35330 On ch=1 n=62 v=0
35338 On ch=1 n=59 v=98
35397 On ch=1 n=59 v=0
35399 On ch=1 n=66 v=104
35569 On ch=1 n=66 v=0
35580 On ch=1 n=67 v=112
35698 On ch=1 n=67 v=0
35701 On ch=1 n=69 v=112
36473 On ch=1 n=69 v=0
36539 On ch=1 n=67 v=114
36660 On ch=1 n=66 v=95
36662 On ch=1 n=67 v=0
36706 On ch=1 n=66 v=0
36719 On ch=1 n=66 v=120
36778 On ch=1 n=66 v=0
36779 On ch=1 n=64 v=91
36829 On ch=1 n=64 v=0
36839 On ch=1 n=66 v=114
36902 On ch=1 n=64 v=91
36910 On ch=1 n=66 v=0
36940 On ch=1 n=64 v=0
36972 On ch=1 n=66 v=104
37020 On ch=1 n=64 v=94
37026 On ch=1 n=66 v=0
37068 On ch=1 n=64 v=0
37081 On ch=1 n=66 v=111
37188 On ch=1 n=66 v=0
37199 On ch=1 n=66 v=104
37262 On ch=1 n=64 v=85
37267 On ch=1 n=66 v=0
37321 On ch=1 n=66 v=112
37323 On ch=1 n=64 v=0
37377 On ch=1 n=66 v=0
37379 On ch=1 n=64 v=90
37432 On ch=1 n=67 v=120
37439 On ch=1 n=64 v=0
37489 On ch=1 n=67 v=0
37502 On ch=1 n=67 v=121
38146 On ch=1 n=67 v=0
38158 On ch=1 n=55 v=104
38204 On ch=1 n=55 v=0
38218 On ch=1 n=55 v=77
38269 On ch=1 n=55 v=0
38277 On ch=1 n=64 v=117
38334 On ch=1 n=64 v=0
38342 On ch=1 n=62 v=112
38519 On ch=1 n=60 v=100
38530 On ch=1 n=62 v=0
38581 On ch=1 n=59 v=111
38582 On ch=1 n=60 v=0
38645 On ch=1 n=59 v=0
39121 On ch=1 n=55 v=100
39160 On ch=1 n=55 v=0
39180 On ch=1 n=55 v=87
39230 On ch=1 n=55 v=0
39238 On ch=1 n=64 v=95
39292 On ch=1 n=64 v=0
39299 On ch=1 n=62 v=98
39406 On ch=1 n=62 v=0
39419 On ch=1 n=62 v=93
39470 On ch=1 n=62 v=0
39479 On ch=1 n=60 v=87
39535 On ch=1 n=60 v=0
39539 On ch=1 n=59 v=95
39629 On ch=1 n=59 v=0
39662 On ch=1 n=64 v=110
39713 On ch=1 n=64 v=0
39721 On ch=1 n=64 v=95
39772 On ch=1 n=64 v=0
39780 On ch=1 n=65 v=112
39888 On ch=1 n=65 v=0
39898 On ch=1 n=67 v=95
40075 On ch=1 n=67 v=0
40078 On ch=1 n=55 v=93
40152 On ch=1 n=55 v=0
40980 On ch=1 n=62 v=111
41090 On ch=1 n=62 v=0
41101 On ch=1 n=62 v=111
41145 On ch=1 n=62 v=0
41159 On ch=1 n=64 v=120
41217 On ch=1 n=64 v=0
41220 On ch=1 n=62 v=76
41262 On ch=1 n=62 v=0
41279 On ch=1 n=65 v=120
41336 On ch=1 n=65 v=0
41341 On ch=1 n=62 v=73
41384 On ch=1 n=62 v=0
41398 On ch=1 n=65 v=121
41459 On ch=1 n=65 v=0
41461 On ch=1 n=62 v=68
41499 On ch=1 n=62 v=0
41519 On ch=1 n=65 v=117
41570 On ch=1 n=65 v=0
41579 On ch=1 n=67 v=112
41694 On ch=1 n=67 v=0
41699 On ch=1 n=70 v=117
41756 On ch=1 n=70 v=0
41759 On ch=1 n=67 v=98
41823 On ch=1 n=67 v=0
42659 On ch=1 n=62 v=114
42757 On ch=1 n=62 v=0
42778 On ch=1 n=62 v=90
42827 On ch=1 n=62 v=0
42839 On ch=1 n=64 v=117
42900 On ch=1 n=64 v=0
42901 On ch=1 n=62 v=71
42939 On ch=1 n=62 v=0
42958 On ch=1 n=65 v=121
43019 On ch=1 n=65 v=0
43021 On ch=1 n=62 v=84
43053 On ch=1 n=62 v=0
43079 On ch=1 n=65 v=122
43138 On ch=1 n=65 v=0
43138 On ch=1 n=62 v=85
43189 On ch=1 n=62 v=0
43198 On ch=1 n=65 v=120
43254 On ch=1 n=65 v=0
43258 On ch=1 n=67 v=112
43376 On ch=1 n=67 v=0
43379 On ch=1 n=70 v=121
43438 On ch=1 n=70 v=0
43438 On ch=1 n=67 v=108
43494 On ch=1 n=67 v=0
44340 On ch=1 n=62 v=111
44442 On ch=1 n=62 v=0
44458 On ch=1 n=62 v=83
44497 On ch=1 n=62 v=0
44518 On ch=1 n=64 v=120
44581 On ch=1 n=62 v=74
44584 On ch=1 n=64 v=0
44622 On ch=1 n=62 v=0
44638 On ch=1 n=65 v=117
44696 On ch=1 n=65 v=0
44701 On ch=1 n=62 v=85
44750 On ch=1 n=62 v=0
44759 On ch=1 n=64 v=117
44807 On ch=1 n=64 v=0
44818 On ch=1 n=65 v=117
44934 On ch=1 n=65 v=0
44939 On ch=1 n=67 v=120
45044 On ch=1 n=67 v=0
45058 On ch=1 n=67 v=112
45176 On ch=1 n=67 v=0
45181 On ch=1 n=67 v=112
45286 On ch=1 n=67 v=0
45299 On ch=1 n=67 v=120
45411 On ch=1 n=67 v=0
45421 On ch=1 n=67 v=112
45526 On ch=1 n=67 v=0
45547 On ch=1 n=67 v=112
46545 On ch=1 n=67 v=0
49738 On ch=1 n=73 v=121
49788 On ch=1 n=73 v=0
49797 On ch=1 n=71 v=90
49856 On ch=1 n=73 v=117
49857 On ch=1 n=71 v=0
49912 On ch=1 n=73 v=0
49918 On ch=1 n=74 v=104
49981 On ch=1 n=73 v=117
49984 On ch=1 n=74 v=0
50068 On ch=1 n=73 v=0
50102 On ch=1 n=73 v=114
50192 On ch=1 n=73 v=0
50221 On ch=1 n=73 v=114
50282 On ch=1 n=73 v=0
50282 On ch=1 n=71 v=95
50316 On ch=1 n=71 v=0
50341 On ch=1 n=73 v=112
50392 On ch=1 n=73 v=0
50402 On ch=1 n=74 v=98
50463 On ch=1 n=73 v=121
50468 On ch=1 n=74 v=0
50539 On ch=1 n=73 v=0
50582 On ch=1 n=73 v=120
50685 On ch=1 n=73 v=0
50701 On ch=1 n=71 v=100
50794 On ch=1 n=71 v=0
50817 On ch=1 n=73 v=114
50880 On ch=1 n=73 v=0
50881 On ch=1 n=71 v=108
51234 On ch=1 n=71 v=0
51657 On ch=1 n=73 v=112
51715 On ch=1 n=73 v=0
51718 On ch=1 n=71 v=87
51777 On ch=1 n=73 v=112
51781 On ch=1 n=71 v=0
51829 On ch=1 n=73 v=0
51840 On ch=1 n=74 v=108
51895 On ch=1 n=74 v=0
51902 On ch=1 n=73 v=121
51974 On ch=1 n=73 v=0
52021 On ch=1 n=73 v=121
52106 On ch=1 n=73 v=0
52141 On ch=1 n=73 v=121
52194 On ch=1 n=73 v=0
52201 On ch=1 n=71 v=90
52246 On ch=1 n=71 v=0
52261 On ch=1 n=73 v=112
52296 On ch=1 n=73 v=0
52330 On ch=1 n=74 v=117
52380 On ch=1 n=73 v=117
52384 On ch=1 n=74 v=0
52459 On ch=1 n=73 v=0
52501 On ch=1 n=73 v=121
52607 On ch=1 n=73 v=0
52621 On ch=1 n=71 v=104
52703 On ch=1 n=71 v=0
52734 On ch=1 n=73 v=112
52794 On ch=1 n=73 v=0
52798 On ch=1 n=71 v=112
53152 On ch=1 n=71 v=0
53577 On ch=1 n=73 v=121
53638 On ch=1 n=73 v=0
53638 On ch=1 n=71 v=87
53698 On ch=1 n=73 v=112
53704 On ch=1 n=71 v=0
53738 On ch=1 n=73 v=0
53770 On ch=1 n=74 v=111
53814 On ch=1 n=74 v=0
53822 On ch=1 n=73 v=121
53909 On ch=1 n=73 v=0
53938 On ch=1 n=73 v=117
54039 On ch=1 n=73 v=0
54059 On ch=1 n=73 v=104
54106 On ch=1 n=73 v=0
54120 On ch=1 n=71 v=100
54179 On ch=1 n=73 v=121
54186 On ch=1 n=71 v=0
54216 On ch=1 n=73 v=0
54250 On ch=1 n=74 v=112
54298 On ch=1 n=74 v=0
54304 On ch=1 n=73 v=120
54385 On ch=1 n=73 v=0
54421 On ch=1 n=73 v=108
54529 On ch=1 n=73 v=0
54541 On ch=1 n=71 v=112
54630 On ch=1 n=71 v=0
54657 On ch=1 n=73 v=108
54718 On ch=1 n=71 v=108
54723 On ch=1 n=73 v=0
55085 On ch=1 n=71 v=0
59337 On ch=1 n=73 v=122
59401 On ch=1 n=71 v=104
59403 On ch=1 n=73 v=0
59461 On ch=1 n=73 v=120
59467 On ch=1 n=71 v=0
59503 On ch=1 n=73 v=0
59522 On ch=1 n=74 v=111
59580 On ch=1 n=74 v=0
59584 On ch=1 n=73 v=120
59663 On ch=1 n=73 v=0
59702 On ch=1 n=73 v=122
59779 On ch=1 n=73 v=0
59821 On ch=1 n=73 v=122
59879 On ch=1 n=73 v=0
59881 On ch=1 n=71 v=93
59916 On ch=1 n=71 v=0
59939 On ch=1 n=73 v=121
59970 On ch=1 n=73 v=0
60011 On ch=1 n=74 v=120
60063 On ch=1 n=74 v=0
60063 On ch=1 n=73 v=122
60137 On ch=1 n=73 v=0
60181 On ch=1 n=73 v=122
60279 On ch=1 n=73 v=0
60300 On ch=1 n=71 v=114
60388 On ch=1 n=71 v=0
60415 On ch=1 n=73 v=114
60481 On ch=1 n=71 v=112
60491 On ch=1 n=73 v=0
60811 On ch=1 n=71 v=0
61259 On ch=1 n=73 v=117
61315 On ch=1 n=73 v=0
61321 On ch=1 n=71 v=98
61371 On ch=1 n=71 v=0
61381 On ch=1 n=73 v=112
61423 On ch=1 n=73 v=0
61448 On ch=1 n=74 v=100
61503 On ch=1 n=73 v=117
61506 On ch=1 n=74 v=0
61590 On ch=1 n=73 v=0
61622 On ch=1 n=73 v=122
61712 On ch=1 n=73 v=0
61741 On ch=1 n=73 v=120
61802 On ch=1 n=73 v=0
61803 On ch=1 n=71 v=86
61832 On ch=1 n=71 v=0
61861 On ch=1 n=73 v=112
61893 On ch=1 n=73 v=0
61932 On ch=1 n=74 v=121
61984 On ch=1 n=73 v=117
61987 On ch=1 n=74 v=0
62069 On ch=1 n=73 v=0
62103 On ch=1 n=73 v=121
62213 On ch=1 n=73 v=0
62224 On ch=1 n=71 v=112
62311 On ch=1 n=71 v=0
62337 On ch=1 n=73 v=117
62401 On ch=1 n=71 v=117
62408 On ch=1 n=73 v=0
62739 On ch=1 n=71 v=0
63179 On ch=1 n=73 v=112
63239 On ch=1 n=71 v=90
63245 On ch=1 n=73 v=0
63297 On ch=1 n=71 v=0
63297 On ch=1 n=73 v=104
63334 On ch=1 n=73 v=0
63372 On ch=1 n=74 v=114
63417 On ch=1 n=74 v=0
63419 On ch=1 n=73 v=114
63514 On ch=1 n=73 v=0
63539 On ch=1 n=73 v=120
63626 On ch=1 n=73 v=0
63659 On ch=1 n=73 v=121
63715 On ch=1 n=73 v=0
63719 On ch=1 n=71 v=81
63756 On ch=1 n=71 v=0
63778 On ch=1 n=73 v=117
63813 On ch=1 n=73 v=0
63851 On ch=1 n=74 v=116
63900 On ch=1 n=74 v=0
63901 On ch=1 n=73 v=121
64004 On ch=1 n=73 v=0
64021 On ch=1 n=73 v=114
64126 On ch=1 n=73 v=0
64161 On ch=1 n=71 v=98
64209 On ch=1 n=71 v=0
64242 On ch=1 n=73 v=112
64300 On ch=1 n=73 v=0
64321 On ch=1 n=71 v=104
64709 On ch=1 n=71 v=0
64860 On ch=1 n=59 v=111
64918 On ch=1 n=59 v=0
64921 On ch=1 n=61 v=98
64974 On ch=1 n=61 v=0
64981 On ch=1 n=59 v=104
65036 On ch=1 n=59 v=0
65041 On ch=1 n=66 v=120
65326 On ch=1 n=66 v=0
65340 On ch=1 n=64 v=117
65432 On ch=1 n=64 v=0
65461 On ch=1 n=64 v=121
65699 On ch=1 n=64 v=0
65819 On ch=1 n=59 v=73
65866 On ch=1 n=59 v=0
65879 On ch=1 n=61 v=90
65941 On ch=1 n=59 v=104
65945 On ch=1 n=61 v=0
65994 On ch=1 n=59 v=0
66000 On ch=1 n=66 v=112
66272 On ch=1 n=66 v=0
66299 On ch=1 n=67 v=114
66408 On ch=1 n=67 v=0
66419 On ch=1 n=66 v=122
66527 On ch=1 n=66 v=0
66538 On ch=1 n=67 v=112
66599 On ch=1 n=66 v=121
66607 On ch=1 n=67 v=0
66692 On ch=1 n=66 v=0
66779 On ch=1 n=59 v=95
66837 On ch=1 n=59 v=0
66841 On ch=1 n=61 v=108
66899 On ch=1 n=61 v=0
66902 On ch=1 n=59 v=87
66949 On ch=1 n=59 v=0
66961 On ch=1 n=66 v=120
67243 On ch=1 n=66 v=0
67262 On ch=1 n=64 v=122
67352 On ch=1 n=64 v=0
67381 On ch=1 n=64 v=122
67547 On ch=1 n=64 v=0
67738 On ch=1 n=59 v=108
67797 On ch=1 n=59 v=0
67799 On ch=1 n=61 v=98
67857 On ch=1 n=61 v=0
67859 On ch=1 n=59 v=90
67909 On ch=1 n=59 v=0
67921 On ch=1 n=66 v=117
68201 On ch=1 n=66 v=0
68218 On ch=1 n=67 v=112
68339 On ch=1 n=66 v=122
68347 On ch=1 n=67 v=0
68439 On ch=1 n=66 v=0
68457 On ch=1 n=67 v=112
68518 On ch=1 n=67 v=0
68519 On ch=1 n=66 v=122
69485 On ch=1 n=66 v=0
71883 On ch=1 n=55 v=59
71908 On ch=1 n=55 v=0
71913 On ch=1 n=55 v=64
71941 On ch=1 n=55 v=0
71943 On ch=1 n=64 v=86
71969 On ch=1 n=64 v=0
71969 On ch=1 n=62 v=73
72044 On ch=1 n=62 v=0
72061 On ch=1 n=60 v=64
72093 On ch=1 n=59 v=61
72105 On ch=1 n=60 v=0
72245 On ch=1 n=59 v=0
72357 On ch=1 n=55 v=67
72377 On ch=1 n=55 v=0
72388 On ch=1 n=55 v=67
72418 On ch=1 n=55 v=0
72418 On ch=1 n=64 v=79
72447 On ch=1 n=64 v=0
72448 On ch=1 n=62 v=70
72505 On ch=1 n=62 v=0
72509 On ch=1 n=62 v=75
72540 On ch=1 n=60 v=69
72545 On ch=1 n=62 v=0
72571 On ch=1 n=59 v=74
72577 On ch=1 n=60 v=0
72655 On ch=1 n=59 v=0
72659 On ch=1 n=62 v=86
72720 On ch=1 n=65 v=85
72724 On ch=1 n=62 v=0
72801 On ch=1 n=65 v=0
72809 On ch=1 n=65 v=90
73167 On ch=1 n=65 v=0
73197 On ch=1 n=62 v=91
73217 On ch=1 n=62 v=0
73226 On ch=1 n=62 v=89
73251 On ch=1 n=62 v=0
73256 On ch=1 n=64 v=87
73286 On ch=1 n=64 v=0
73286 On ch=1 n=62 v=87
73306 On ch=1 n=62 v=0
73317 On ch=1 n=65 v=89
73345 On ch=1 n=65 v=0
73348 On ch=1 n=62 v=87
73368 On ch=1 n=62 v=0
73380 On ch=1 n=64 v=93
73431 On ch=1 n=64 v=0
73441 On ch=1 n=65 v=117
73505 On ch=1 n=67 v=100
73506 On ch=1 n=65 v=0
73605 On ch=1 n=67 v=0
73626 On ch=1 n=67 v=120
74455 On ch=1 n=67 v=0
83459 On ch=1 n=62 v=100
83521 On ch=1 n=61 v=70
83528 On ch=1 n=62 v=0
83579 On ch=1 n=61 v=0
83581 On ch=1 n=59 v=69
83639 On ch=1 n=59 v=0
83641 On ch=1 n=57 v=74
83701 On ch=1 n=57 v=0
83701 On ch=1 n=59 v=85
83925 On ch=1 n=59 v=0
83939 On ch=1 n=61 v=74
84113 On ch=1 n=61 v=0
84119 On ch=1 n=62 v=86
84167 On ch=1 n=62 v=0
84301 On ch=1 n=62 v=93
84361 On ch=1 n=61 v=86
84367 On ch=1 n=62 v=0
84411 On ch=1 n=61 v=0
84421 On ch=1 n=59 v=70
84477 On ch=1 n=59 v=0
84481 On ch=1 n=57 v=67
84536 On ch=1 n=57 v=0
84541 On ch=1 n=59 v=79
84760 On ch=1 n=59 v=0
84779 On ch=1 n=61 v=95
84943 On ch=1 n=61 v=0
84959 On ch=1 n=62 v=81
85017 On ch=1 n=62 v=0
85139 On ch=1 n=62 v=112
85194 On ch=1 n=62 v=0
85201 On ch=1 n=61 v=69
85259 On ch=1 n=61 v=0
85261 On ch=1 n=59 v=74
85321 On ch=1 n=59 v=0
85321 On ch=1 n=57 v=67
85381 On ch=1 n=59 v=86
85382 On ch=1 n=57 v=0
85600 On ch=1 n=59 v=0
85621 On ch=1 n=61 v=93
85784 On ch=1 n=61 v=0
85799 On ch=1 n=62 v=85
85854 On ch=1 n=62 v=0
85979 On ch=1 n=62 v=93
86037 On ch=1 n=62 v=0
86041 On ch=1 n=61 v=73
86101 On ch=1 n=59 v=71
86104 On ch=1 n=61 v=0
86154 On ch=1 n=59 v=0
86161 On ch=1 n=57 v=66
86211 On ch=1 n=57 v=0
86221 On ch=1 n=59 v=86
86430 On ch=1 n=59 v=0
86459 On ch=1 n=61 v=85
86636 On ch=1 n=61 v=0
86639 On ch=1 n=62 v=87
86687 On ch=1 n=62 v=0
86820 On ch=1 n=62 v=100
86870 On ch=1 n=62 v=0
86881 On ch=1 n=61 v=74
86941 On ch=1 n=59 v=70
86944 On ch=1 n=61 v=0
86989 On ch=1 n=59 v=0
86999 On ch=1 n=57 v=71
87055 On ch=1 n=57 v=0
87061 On ch=1 n=59 v=87
87286 On ch=1 n=59 v=0
87301 On ch=1 n=61 v=90
87467 On ch=1 n=61 v=0
87480 On ch=1 n=62 v=86
87536 On ch=1 n=62 v=0
87659 On ch=1 n=62 v=108
87706 On ch=1 n=62 v=0
87719 On ch=1 n=61 v=81
87779 On ch=1 n=59 v=68
87782 On ch=1 n=61 v=0
87831 On ch=1 n=59 v=0
87839 On ch=1 n=57 v=69
87886 On ch=1 n=57 v=0
87899 On ch=1 n=59 v=93
88121 On ch=1 n=59 v=0
88139 On ch=1 n=61 v=98
88303 On ch=1 n=61 v=0
88319 On ch=1 n=62 v=93
88367 On ch=1 n=62 v=0
88499 On ch=1 n=62 v=108
88554 On ch=1 n=62 v=0
88559 On ch=1 n=61 v=62
88612 On ch=1 n=61 v=0
88619 On ch=1 n=59 v=69
88677 On ch=1 n=59 v=0
88679 On ch=1 n=57 v=71
88734 On ch=1 n=57 v=0
88740 On ch=1 n=59 v=86
88961 On ch=1 n=59 v=0
88979 On ch=1 n=61 v=90
89148 On ch=1 n=61 v=0
89159 On ch=1 n=62 v=77
89214 On ch=1 n=62 v=0
89339 On ch=1 n=62 v=108
89399 On ch=1 n=62 v=0
89400 On ch=1 n=61 v=67
89450 On ch=1 n=61 v=0
89459 On ch=1 n=59 v=69
89511 On ch=1 n=59 v=0
89519 On ch=1 n=57 v=74
89567 On ch=1 n=57 v=0
89581 On ch=1 n=59 v=90
89789 On ch=1 n=59 v=0
89814 On ch=1 n=61 v=96
89980 On ch=1 n=61 v=0
90001 On ch=1 n=62 v=95
90062 On ch=1 n=62 v=0
90062 Meta TrkEnd
TrkEnd
MTrk
0 Meta 0x21 00
0 Meta TrkName "Vocals"
0 PrCh ch=2 p=53
0 Par ch=2 c=7 v=110
0 Par ch=2 c=10 v=55
0 Par ch=2 c=121 v=0
2 Par ch=2 c=0 v=0
4 Par ch=2 c=32 v=0
6 Par ch=2 c=11 v=127
8 Par ch=2 c=91 v=100
10 Par ch=2 c=93 v=110
83461 On ch=2 n=71 v=69
83461 On ch=2 n=67 v=65
83521 On ch=2 n=71 v=0
83522 On ch=2 n=66 v=58
83524 On ch=2 n=69 v=54
83525 On ch=2 n=67 v=0
83581 On ch=2 n=64 v=59
83581 On ch=2 n=67 v=77
83582 On ch=2 n=69 v=0
83588 On ch=2 n=66 v=0
83615 On ch=2 n=64 v=0
83637 On ch=2 n=67 v=0
83642 On ch=2 n=66 v=61
83642 On ch=2 n=62 v=65
83674 On ch=2 n=62 v=0
83702 On ch=2 n=66 v=0
83702 On ch=2 n=67 v=72
83702 On ch=2 n=64 v=67
83916 On ch=2 n=64 v=0
83924 On ch=2 n=67 v=0
83938 On ch=2 n=66 v=62
83938 On ch=2 n=69 v=61
84107 On ch=2 n=69 v=0
84112 On ch=2 n=66 v=0
84119 On ch=2 n=67 v=74
84119 On ch=2 n=71 v=63
84167 On ch=2 n=71 v=0
84167 On ch=2 n=67 v=0
84299 On ch=2 n=71 v=68
84299 On ch=2 n=67 v=74
84354 On ch=2 n=71 v=0
84359 On ch=2 n=67 v=0
84362 On ch=2 n=66 v=64
84362 On ch=2 n=69 v=67
84415 On ch=2 n=69 v=0
84420 On ch=2 n=64 v=65
84422 On ch=2 n=67 v=74
84423 On ch=2 n=66 v=0
84449 On ch=2 n=64 v=0
84472 On ch=2 n=67 v=0
84481 On ch=2 n=66 v=63
84481 On ch=2 n=62 v=62
84516 On ch=2 n=62 v=0
84541 On ch=2 n=66 v=0
84541 On ch=2 n=67 v=75
84542 On ch=2 n=64 v=71
84763 On ch=2 n=64 v=0
84771 On ch=2 n=67 v=0
84781 On ch=2 n=66 v=67
84781 On ch=2 n=69 v=66
84944 On ch=2 n=69 v=0
84947 On ch=2 n=66 v=0
84961 On ch=2 n=71 v=74
84961 On ch=2 n=67 v=75
85003 On ch=2 n=67 v=0
85003 On ch=2 n=71 v=0
85137 On ch=2 n=71 v=73
85137 On ch=2 n=67 v=79
85197 On ch=2 n=67 v=0
85197 On ch=2 n=71 v=0
85204 On ch=2 n=69 v=65
85204 On ch=2 n=66 v=63
85251 On ch=2 n=69 v=0
85258 On ch=2 n=64 v=63
85258 On ch=2 n=67 v=76
85264 On ch=2 n=66 v=0
85285 On ch=2 n=64 v=0
85314 On ch=2 n=67 v=0
85318 On ch=2 n=62 v=67
85318 On ch=2 n=66 v=65
85350 On ch=2 n=62 v=0
85373 On ch=2 n=66 v=0
85379 On ch=2 n=67 v=79
85381 On ch=2 n=64 v=66
85608 On ch=2 n=64 v=0
85617 On ch=2 n=67 v=0
85621 On ch=2 n=66 v=72
85621 On ch=2 n=69 v=69
85790 On ch=2 n=69 v=0
85798 On ch=2 n=66 v=0
85803 On ch=2 n=67 v=76
85803 On ch=2 n=71 v=74
85848 On ch=2 n=71 v=0
85848 On ch=2 n=67 v=0
85978 On ch=2 n=71 v=76
85978 On ch=2 n=67 v=81
86041 On ch=2 n=71 v=0
86041 On ch=2 n=66 v=62
86041 On ch=2 n=69 v=62
86052 On ch=2 n=67 v=0
86098 On ch=2 n=64 v=67
86099 On ch=2 n=67 v=74
86104 On ch=2 n=66 v=0
86107 On ch=2 n=69 v=0
86132 On ch=2 n=64 v=0
86155 On ch=2 n=67 v=0
86159 On ch=2 n=66 v=63
86159 On ch=2 n=62 v=65
86193 On ch=2 n=62 v=0
86209 On ch=2 n=66 v=0
86220 On ch=2 n=67 v=85
86220 On ch=2 n=64 v=74
86450 On ch=2 n=64 v=0
86458 On ch=2 n=67 v=0
86461 On ch=2 n=66 v=69
86461 On ch=2 n=69 v=67
86620 On ch=2 n=66 v=0
86622 On ch=2 n=69 v=0
86645 On ch=2 n=71 v=83
86646 On ch=2 n=67 v=81
86695 On ch=2 n=71 v=0
86696 On ch=2 n=67 v=0
86819 On ch=2 n=67 v=76
86819 On ch=2 n=71 v=74
86881 On ch=2 n=66 v=62
86882 On ch=2 n=71 v=0
86882 On ch=2 n=69 v=61
86890 On ch=2 n=67 v=0
86941 On ch=2 n=64 v=60
86941 On ch=2 n=67 v=74
86945 On ch=2 n=69 v=0
86950 On ch=2 n=66 v=0
86978 On ch=2 n=64 v=0
86996 On ch=2 n=67 v=0
87002 On ch=2 n=62 v=64
87002 On ch=2 n=66 v=62
87041 On ch=2 n=62 v=0
87054 On ch=2 n=66 v=0
87063 On ch=2 n=67 v=76
87063 On ch=2 n=64 v=70
87279 On ch=2 n=64 v=0
87284 On ch=2 n=67 v=0
87301 On ch=2 n=66 v=71
87302 On ch=2 n=69 v=67
87457 On ch=2 n=69 v=0
87462 On ch=2 n=66 v=0
87478 On ch=2 n=71 v=74
87478 On ch=2 n=67 v=71
87529 On ch=2 n=71 v=0
87531 On ch=2 n=67 v=0
87659 On ch=2 n=71 v=79
87659 On ch=2 n=67 v=86
87715 On ch=2 n=71 v=0
87720 On ch=2 n=66 v=66
87722 On ch=2 n=69 v=63
87731 On ch=2 n=67 v=0
87778 On ch=2 n=64 v=65
87781 On ch=2 n=67 v=76
87785 On ch=2 n=69 v=0
87786 On ch=2 n=66 v=0
87813 On ch=2 n=64 v=0
87831 On ch=2 n=67 v=0
87839 On ch=2 n=62 v=67
87839 On ch=2 n=66 v=64
87873 On ch=2 n=62 v=0
87886 On ch=2 n=66 v=0
87900 On ch=2 n=67 v=75
87901 On ch=2 n=64 v=70
88123 On ch=2 n=64 v=0
88127 On ch=2 n=67 v=0
88139 On ch=2 n=66 v=74
88140 On ch=2 n=69 v=76
88303 On ch=2 n=69 v=0
88308 On ch=2 n=66 v=0
88319 On ch=2 n=71 v=73
88319 On ch=2 n=67 v=75
88364 On ch=2 n=67 v=0
88364 On ch=2 n=71 v=0
88499 On ch=2 n=71 v=75
88499 On ch=2 n=67 v=77
88560 On ch=2 n=71 v=0
88562 On ch=2 n=66 v=63
88563 On ch=2 n=69 v=65
88575 On ch=2 n=67 v=0
88611 On ch=2 n=69 v=0
88619 On ch=2 n=64 v=64
88621 On ch=2 n=67 v=73
88626 On ch=2 n=66 v=0
88648 On ch=2 n=64 v=0
88668 On ch=2 n=67 v=0
88679 On ch=2 n=62 v=65
88679 On ch=2 n=66 v=61
88711 On ch=2 n=62 v=0
88722 On ch=2 n=66 v=0
88741 On ch=2 n=67 v=74
88741 On ch=2 n=64 v=68
88965 On ch=2 n=64 v=0
88968 On ch=2 n=67 v=0
88981 On ch=2 n=66 v=75
88981 On ch=2 n=69 v=72
89142 On ch=2 n=66 v=0
89145 On ch=2 n=69 v=0
89159 On ch=2 n=71 v=72
89161 On ch=2 n=67 v=73
89201 On ch=2 n=71 v=0
89206 On ch=2 n=67 v=0
89339 On ch=2 n=71 v=76
89339 On ch=2 n=67 v=86
89395 On ch=2 n=71 v=0
89397 On ch=2 n=67 v=0
89399 On ch=2 n=66 v=62
89399 On ch=2 n=69 v=62
89442 On ch=2 n=69 v=0
89459 On ch=2 n=64 v=64
89459 On ch=2 n=67 v=69
89463 On ch=2 n=66 v=0
89488 On ch=2 n=64 v=0
89512 On ch=2 n=67 v=0
89519 On ch=2 n=66 v=63
89519 On ch=2 n=62 v=66
89553 On ch=2 n=62 v=0
89564 On ch=2 n=66 v=0
89582 On ch=2 n=67 v=72
89583 On ch=2 n=64 v=63
89801 On ch=2 n=67 v=0
89805 On ch=2 n=64 v=0
89818 On ch=2 n=66 v=77
89818 On ch=2 n=69 v=73
89977 On ch=2 n=66 v=0
89979 On ch=2 n=69 v=0
89999 On ch=2 n=66 v=74
89999 On ch=2 n=69 v=81
90057 On ch=2 n=69 v=0
90057 On ch=2 n=66 v=0
90057 Meta TrkEnd
TrkEnd
MTrk
0 Meta 0x21 00
0 Meta TrkName "Drums"
0 PrCh ch=10 p=0
0 Par ch=10 c=7 v=110
0 Par ch=10 c=10 v=64
0 Par ch=10 c=121 v=0
2 Par ch=10 c=0 v=0
4 Par ch=10 c=32 v=0
6 Par ch=10 c=11 v=127
8 Par ch=10 c=91 v=80
10 Par ch=10 c=93 v=0
5221 On ch=10 n=36 v=122
5222 On ch=10 n=57 v=70
5223 On ch=10 n=46 v=95
5227 On ch=10 n=36 v=0
5228 On ch=10 n=57 v=0
5229 On ch=10 n=46 v=0
5372 On ch=10 n=42 v=58
5378 On ch=10 n=42 v=0
5401 On ch=10 n=42 v=97
5403 On ch=10 n=40 v=122
5407 On ch=10 n=42 v=0
5409 On ch=10 n=40 v=0
5458 On ch=10 n=42 v=83
5464 On ch=10 n=42 v=0
5491 On ch=10 n=40 v=74
5497 On ch=10 n=40 v=0
5521 On ch=10 n=42 v=89
5527 On ch=10 n=42 v=0
5581 On ch=10 n=42 v=73
5582 On ch=10 n=36 v=122
5587 On ch=10 n=42 v=0
5588 On ch=10 n=36 v=0
5611 On ch=10 n=42 v=70
5617 On ch=10 n=42 v=0
5642 On ch=10 n=40 v=122
5643 On ch=10 n=42 v=96
5648 On ch=10 n=40 v=0
5649 On ch=10 n=42 v=0
5701 On ch=10 n=42 v=89
5707 On ch=10 n=42 v=0
5731 On ch=10 n=40 v=72
5737 On ch=10 n=40 v=0
5761 On ch=10 n=42 v=95
5767 On ch=10 n=42 v=0
5821 On ch=10 n=36 v=123
5822 On ch=10 n=42 v=79
5827 On ch=10 n=36 v=0
5828 On ch=10 n=42 v=0
5852 On ch=10 n=42 v=61
5858 On ch=10 n=42 v=0
5881 On ch=10 n=40 v=122
5881 On ch=10 n=42 v=96
5887 On ch=10 n=42 v=0
5887 On ch=10 n=40 v=0
5941 On ch=10 n=42 v=87
5947 On ch=10 n=42 v=0
6001 On ch=10 n=42 v=97
6007 On ch=10 n=42 v=0
6061 On ch=10 n=36 v=122
6062 On ch=10 n=42 v=70
6067 On ch=10 n=36 v=0
6068 On ch=10 n=42 v=0
6093 On ch=10 n=42 v=68
6099 On ch=10 n=42 v=0
6121 On ch=10 n=40 v=122
6121 On ch=10 n=42 v=95
6127 On ch=10 n=42 v=0
6127 On ch=10 n=40 v=0
6181 On ch=10 n=42 v=89
6182 On ch=10 n=36 v=120
6187 On ch=10 n=42 v=0
6188 On ch=10 n=36 v=0
6242 On ch=10 n=42 v=96
6248 On ch=10 n=42 v=0
6301 On ch=10 n=42 v=87
6307 On ch=10 n=42 v=0
6331 On ch=10 n=42 v=68
6337 On ch=10 n=42 v=0
6358 On ch=10 n=42 v=92
6362 On ch=10 n=40 v=123
6364 On ch=10 n=42 v=0
6368 On ch=10 n=40 v=0
6418 On ch=10 n=42 v=83
6424 On ch=10 n=42 v=0
6451 On ch=10 n=40 v=70
6457 On ch=10 n=40 v=0
6479 On ch=10 n=42 v=96
6485 On ch=10 n=42 v=0
6538 On ch=10 n=42 v=79
6539 On ch=10 n=36 v=122
6544 On ch=10 n=42 v=0
6545 On ch=10 n=36 v=0
6569 On ch=10 n=42 v=54
6575 On ch=10 n=42 v=0
6601 On ch=10 n=40 v=122
6607 On ch=10 n=40 v=0
6658 On ch=10 n=42 v=87
6664 On ch=10 n=42 v=0
6691 On ch=10 n=40 v=68
6697 On ch=10 n=40 v=0
6719 On ch=10 n=42 v=97
6725 On ch=10 n=42 v=0
6778 On ch=10 n=42 v=75
6781 On ch=10 n=36 v=122
6784 On ch=10 n=42 v=0
6787 On ch=10 n=36 v=0
6811 On ch=10 n=42 v=60
6817 On ch=10 n=42 v=0
6839 On ch=10 n=42 v=97
6840 On ch=10 n=40 v=123
6845 On ch=10 n=42 v=0
6846 On ch=10 n=40 v=0
6900 On ch=10 n=42 v=86
6906 On ch=10 n=42 v=0
6961 On ch=10 n=42 v=97
6967 On ch=10 n=42 v=0
7019 On ch=10 n=36 v=122
7022 On ch=10 n=42 v=89
7025 On ch=10 n=36 v=0
7028 On ch=10 n=42 v=0
7052 On ch=10 n=42 v=65
7058 On ch=10 n=42 v=0
7079 On ch=10 n=40 v=122
7083 On ch=10 n=42 v=97
7085 On ch=10 n=40 v=0
7089 On ch=10 n=42 v=0
7141 On ch=10 n=36 v=123
7142 On ch=10 n=46 v=97
7147 On ch=10 n=36 v=0
7148 On ch=10 n=46 v=0
7261 On ch=10 n=42 v=87
7267 On ch=10 n=42 v=0
7291 On ch=10 n=42 v=70
7297 On ch=10 n=42 v=0
7321 On ch=10 n=42 v=98
7322 On ch=10 n=40 v=122
7327 On ch=10 n=42 v=0
7328 On ch=10 n=40 v=0
7379 On ch=10 n=42 v=73
7385 On ch=10 n=42 v=0
7411 On ch=10 n=40 v=67
7417 On ch=10 n=40 v=0
7440 On ch=10 n=42 v=97
7446 On ch=10 n=42 v=0
7499 On ch=10 n=42 v=73
7501 On ch=10 n=36 v=124
7505 On ch=10 n=42 v=0
7507 On ch=10 n=36 v=0
7531 On ch=10 n=42 v=86
7537 On ch=10 n=42 v=0
7559 On ch=10 n=42 v=97
7563 On ch=10 n=40 v=124
7565 On ch=10 n=42 v=0
7569 On ch=10 n=40 v=0
7621 On ch=10 n=42 v=83
7627 On ch=10 n=42 v=0
7649 On ch=10 n=40 v=71
7655 On ch=10 n=40 v=0
7678 On ch=10 n=42 v=97
7684 On ch=10 n=42 v=0
7739 On ch=10 n=42 v=79
7741 On ch=10 n=36 v=122
7745 On ch=10 n=42 v=0
7747 On ch=10 n=36 v=0
7772 On ch=10 n=42 v=83
7778 On ch=10 n=42 v=0
7799 On ch=10 n=42 v=97
7801 On ch=10 n=40 v=123
7805 On ch=10 n=42 v=0
7807 On ch=10 n=40 v=0
7859 On ch=10 n=42 v=86
7865 On ch=10 n=42 v=0
7889 On ch=10 n=40 v=72
7895 On ch=10 n=40 v=0
7921 On ch=10 n=42 v=95
7927 On ch=10 n=42 v=0
7980 On ch=10 n=42 v=68
7981 On ch=10 n=36 v=121
7986 On ch=10 n=42 v=0
7987 On ch=10 n=36 v=0
8011 On ch=10 n=42 v=75
8017 On ch=10 n=42 v=0
8040 On ch=10 n=40 v=124
8046 On ch=10 n=40 v=0
8098 On ch=10 n=42 v=79
8100 On ch=10 n=36 v=122
8104 On ch=10 n=42 v=0
8106 On ch=10 n=36 v=0
8130 On ch=10 n=40 v=71
8136 On ch=10 n=40 v=0
8158 On ch=10 n=42 v=97
8164 On ch=10 n=42 v=0
8218 On ch=10 n=42 v=79
8219 On ch=10 n=36 v=121
8224 On ch=10 n=42 v=0
8225 On ch=10 n=36 v=0
8249 On ch=10 n=42 v=68
8255 On ch=10 n=42 v=0
8278 On ch=10 n=42 v=97
8281 On ch=10 n=40 v=123
8284 On ch=10 n=42 v=0
8287 On ch=10 n=40 v=0
8338 On ch=10 n=42 v=79
8344 On ch=10 n=42 v=0
8398 On ch=10 n=42 v=96
8404 On ch=10 n=42 v=0
8458 On ch=10 n=36 v=122
8459 On ch=10 n=42 v=79
8464 On ch=10 n=36 v=0
8465 On ch=10 n=42 v=0
8490 On ch=10 n=42 v=79
8496 On ch=10 n=42 v=0
8520 On ch=10 n=40 v=124
8526 On ch=10 n=40 v=0
8578 On ch=10 n=42 v=87
8584 On ch=10 n=42 v=0
8640 On ch=10 n=42 v=97
8646 On ch=10 n=42 v=0
8699 On ch=10 n=42 v=87
8701 On ch=10 n=36 v=122
8705 On ch=10 n=42 v=0
8707 On ch=10 n=36 v=0
8732 On ch=10 n=42 v=70
8738 On ch=10 n=42 v=0
8758 On ch=10 n=42 v=97
8761 On ch=10 n=40 v=124
8764 On ch=10 n=42 v=0
8767 On ch=10 n=40 v=0
8819 On ch=10 n=42 v=92
8825 On ch=10 n=42 v=0
8850 On ch=10 n=40 v=76
8856 On ch=10 n=40 v=0
8881 On ch=10 n=42 v=96
8882 On ch=10 n=45 v=123
8887 On ch=10 n=42 v=0
8888 On ch=10 n=45 v=0
8939 On ch=10 n=42 v=87
8942 On ch=10 n=48 v=123
8945 On ch=10 n=42 v=0
8948 On ch=10 n=48 v=0
8971 On ch=10 n=42 v=79
8977 On ch=10 n=42 v=0
9001 On ch=10 n=42 v=96
9003 On ch=10 n=45 v=124
9007 On ch=10 n=42 v=0
9009 On ch=10 n=45 v=0
9059 On ch=10 n=46 v=97
9063 On ch=10 n=40 v=124
9063 On ch=10 n=49 v=75
9065 On ch=10 n=46 v=0
9069 On ch=10 n=49 v=0
9069 On ch=10 n=40 v=0
9181 On ch=10 n=42 v=87
9187 On ch=10 n=42 v=0
9213 On ch=10 n=42 v=79
9219 On ch=10 n=42 v=0
9240 On ch=10 n=40 v=122
9242 On ch=10 n=42 v=98
9246 On ch=10 n=40 v=0
9248 On ch=10 n=42 v=0
9301 On ch=10 n=42 v=92
9307 On ch=10 n=42 v=0
9329 On ch=10 n=40 v=64
9335 On ch=10 n=40 v=0
9361 On ch=10 n=42 v=97
9367 On ch=10 n=42 v=0
9421 On ch=10 n=36 v=121
9421 On ch=10 n=42 v=87
9427 On ch=10 n=42 v=0
9427 On ch=10 n=36 v=0
9451 On ch=10 n=42 v=49
9457 On ch=10 n=42 v=0
9482 On ch=10 n=40 v=122
9482 On ch=10 n=42 v=97
9488 On ch=10 n=42 v=0
9488 On ch=10 n=40 v=0
9538 On ch=10 n=42 v=83
9544 On ch=10 n=42 v=0
9571 On ch=10 n=40 v=67
9577 On ch=10 n=40 v=0
9601 On ch=10 n=42 v=96
9607 On ch=10 n=42 v=0
9660 On ch=10 n=42 v=75
9661 On ch=10 n=36 v=122
9666 On ch=10 n=42 v=0
9667 On ch=10 n=36 v=0
9691 On ch=10 n=42 v=70
9697 On ch=10 n=42 v=0
9720 On ch=10 n=40 v=122
9720 On ch=10 n=42 v=97
9726 On ch=10 n=42 v=0
9726 On ch=10 n=40 v=0
9779 On ch=10 n=42 v=79
9785 On ch=10 n=42 v=0
9811 On ch=10 n=40 v=77
9817 On ch=10 n=40 v=0
9840 On ch=10 n=36 v=120
9840 On ch=10 n=42 v=96
9846 On ch=10 n=42 v=0
9846 On ch=10 n=36 v=0
9900 On ch=10 n=36 v=117
9901 On ch=10 n=42 v=73
9906 On ch=10 n=36 v=0
9907 On ch=10 n=42 v=0
9932 On ch=10 n=42 v=73
9938 On ch=10 n=42 v=0
9959 On ch=10 n=42 v=96
9961 On ch=10 n=40 v=123
9965 On ch=10 n=42 v=0
9967 On ch=10 n=40 v=0
10019 On ch=10 n=42 v=75
10025 On ch=10 n=42 v=0
10079 On ch=10 n=42 v=89
10085 On ch=10 n=42 v=0
10138 On ch=10 n=42 v=83
10141 On ch=10 n=36 v=122
10144 On ch=10 n=42 v=0
10147 On ch=10 n=36 v=0
10172 On ch=10 n=42 v=65
10178 On ch=10 n=42 v=0
10199 On ch=10 n=42 v=96
10202 On ch=10 n=40 v=123
10205 On ch=10 n=42 v=0
10208 On ch=10 n=40 v=0
10259 On ch=10 n=42 v=70
10265 On ch=10 n=42 v=0
10292 On ch=10 n=40 v=72
10298 On ch=10 n=40 v=0
10319 On ch=10 n=42 v=95
10325 On ch=10 n=42 v=0
10378 On ch=10 n=42 v=68
10380 On ch=10 n=36 v=121
10384 On ch=10 n=42 v=0
10386 On ch=10 n=36 v=0
10409 On ch=10 n=42 v=79
10415 On ch=10 n=42 v=0
10439 On ch=10 n=42 v=97
10441 On ch=10 n=40 v=123
10445 On ch=10 n=42 v=0
10447 On ch=10 n=40 v=0
10501 On ch=10 n=42 v=73
10507 On ch=10 n=42 v=0
10530 On ch=10 n=40 v=72
10536 On ch=10 n=40 v=0
10558 On ch=10 n=36 v=117
10561 On ch=10 n=42 v=95
10564 On ch=10 n=36 v=0
10567 On ch=10 n=42 v=0
10617 On ch=10 n=42 v=68
10619 On ch=10 n=36 v=114
10623 On ch=10 n=42 v=0
10625 On ch=10 n=36 v=0
10649 On ch=10 n=42 v=73
10655 On ch=10 n=42 v=0
10678 On ch=10 n=42 v=97
10679 On ch=10 n=40 v=122
10684 On ch=10 n=42 v=0
10685 On ch=10 n=40 v=0
10738 On ch=10 n=42 v=75
10744 On ch=10 n=42 v=0
10801 On ch=10 n=42 v=96
10807 On ch=10 n=42 v=0
10859 On ch=10 n=42 v=86
10862 On ch=10 n=36 v=122
10865 On ch=10 n=42 v=0
10868 On ch=10 n=36 v=0
10891 On ch=10 n=42 v=73
10897 On ch=10 n=42 v=0
10918 On ch=10 n=42 v=97
10920 On ch=10 n=40 v=122
10924 On ch=10 n=42 v=0
10926 On ch=10 n=40 v=0
10979 On ch=10 n=36 v=122
10979 On ch=10 n=46 v=95
10985 On ch=10 n=46 v=0
10985 On ch=10 n=36 v=0
11009 On ch=10 n=40 v=68
11015 On ch=10 n=40 v=0
11041 On ch=10 n=42 v=92
11047 On ch=10 n=42 v=0
11098 On ch=10 n=42 v=87
11104 On ch=10 n=42 v=0
11131 On ch=10 n=42 v=79
11137 On ch=10 n=42 v=0
11159 On ch=10 n=42 v=97
11162 On ch=10 n=40 v=122
11165 On ch=10 n=42 v=0
11168 On ch=10 n=40 v=0
11221 On ch=10 n=42 v=62
11227 On ch=10 n=42 v=0
11250 On ch=10 n=40 v=71
11256 On ch=10 n=40 v=0
11281 On ch=10 n=42 v=95
11287 On ch=10 n=42 v=0
11338 On ch=10 n=42 v=83
11339 On ch=10 n=36 v=122
11344 On ch=10 n=42 v=0
11345 On ch=10 n=36 v=0
11369 On ch=10 n=42 v=75
11375 On ch=10 n=42 v=0
11398 On ch=10 n=42 v=97
11402 On ch=10 n=40 v=123
11404 On ch=10 n=42 v=0
11408 On ch=10 n=40 v=0
11459 On ch=10 n=42 v=54
11465 On ch=10 n=42 v=0
11520 On ch=10 n=42 v=97
11522 On ch=10 n=36 v=120
11526 On ch=10 n=42 v=0
11528 On ch=10 n=36 v=0
11580 On ch=10 n=42 v=61
11581 On ch=10 n=36 v=117
11586 On ch=10 n=42 v=0
11587 On ch=10 n=36 v=0
11609 On ch=10 n=42 v=73
11615 On ch=10 n=42 v=0
11638 On ch=10 n=42 v=97
11642 On ch=10 n=40 v=122
11644 On ch=10 n=42 v=0
11648 On ch=10 n=40 v=0
11698 On ch=10 n=42 v=89
11701 On ch=10 n=36 v=122
11704 On ch=10 n=42 v=0
11707 On ch=10 n=36 v=0
11730 On ch=10 n=40 v=72
11736 On ch=10 n=40 v=0
11758 On ch=10 n=42 v=87
11764 On ch=10 n=42 v=0
11819 On ch=10 n=42 v=83
11825 On ch=10 n=42 v=0
11848 On ch=10 n=42 v=83
11854 On ch=10 n=42 v=0
11878 On ch=10 n=42 v=99
11883 On ch=10 n=40 v=124
11884 On ch=10 n=42 v=0
11889 On ch=10 n=40 v=0
11938 On ch=10 n=42 v=86
11944 On ch=10 n=42 v=0
12000 On ch=10 n=42 v=97
12006 On ch=10 n=42 v=0
12061 On ch=10 n=36 v=120
12061 On ch=10 n=42 v=65
12067 On ch=10 n=42 v=0
12067 On ch=10 n=36 v=0
12091 On ch=10 n=42 v=87
12097 On ch=10 n=42 v=0
12121 On ch=10 n=40 v=125
12122 On ch=10 n=42 v=98
12127 On ch=10 n=40 v=0
12128 On ch=10 n=42 v=0
12180 On ch=10 n=42 v=70
12186 On ch=10 n=42 v=0
12239 On ch=10 n=42 v=97
12245 On ch=10 n=42 v=0
12299 On ch=10 n=42 v=50
12301 On ch=10 n=36 v=122
12305 On ch=10 n=42 v=0
12307 On ch=10 n=36 v=0
12328 On ch=10 n=42 v=79
12334 On ch=10 n=42 v=0
12358 On ch=10 n=42 v=97
12361 On ch=10 n=40 v=124
12364 On ch=10 n=42 v=0
12367 On ch=10 n=40 v=0
12417 On ch=10 n=42 v=75
12423 On ch=10 n=42 v=0
12478 On ch=10 n=42 v=97
12481 On ch=10 n=40 v=124
12484 On ch=10 n=42 v=0
12487 On ch=10 n=40 v=0
12509 On ch=10 n=40 v=69
12515 On ch=10 n=40 v=0
12538 On ch=10 n=42 v=79
12541 On ch=10 n=41 v=123
12544 On ch=10 n=42 v=0
12547 On ch=10 n=41 v=0
12567 On ch=10 n=42 v=73
12573 On ch=10 n=42 v=0
12597 On ch=10 n=42 v=97
12601 On ch=10 n=45 v=122
12603 On ch=10 n=42 v=0
12607 On ch=10 n=45 v=0
12657 On ch=10 n=42 v=70
12661 On ch=10 n=40 v=126
12663 On ch=10 n=42 v=0
12667 On ch=10 n=40 v=0
12691 On ch=10 n=40 v=123
12697 On ch=10 n=40 v=0
12719 On ch=10 n=36 v=122
12719 On ch=10 n=49 v=43
12720 On ch=10 n=46 v=98
12725 On ch=10 n=49 v=0
12725 On ch=10 n=36 v=0
12726 On ch=10 n=46 v=0
12956 On ch=10 n=46 v=83
12958 On ch=10 n=49 v=37
12961 On ch=10 n=36 v=120
12962 On ch=10 n=46 v=0
12964 On ch=10 n=49 v=0
12967 On ch=10 n=36 v=0
13198 On ch=10 n=57 v=54
13200 On ch=10 n=46 v=56
13204 On ch=10 n=57 v=0
13204 On ch=10 n=36 v=122
13206 On ch=10 n=46 v=0
13210 On ch=10 n=36 v=0
13441 On ch=10 n=36 v=122
13441 On ch=10 n=46 v=86
13447 On ch=10 n=46 v=0
13447 On ch=10 n=36 v=0
13448 On ch=10 n=49 v=73
13454 On ch=10 n=49 v=0
14099 On ch=10 n=40 v=124
14105 On ch=10 n=40 v=0
14159 On ch=10 n=45 v=124
14165 On ch=10 n=45 v=0
14221 On ch=10 n=40 v=123
14227 On ch=10 n=40 v=0
14251 On ch=10 n=40 v=122
14257 On ch=10 n=40 v=0
14281 On ch=10 n=40 v=123
14287 On ch=10 n=40 v=0
14341 On ch=10 n=40 v=125
14341 On ch=10 n=46 v=92
14347 On ch=10 n=46 v=0
14347 On ch=10 n=40 v=0
14461 On ch=10 n=42 v=79
14467 On ch=10 n=42 v=0
14492 On ch=10 n=42 v=62
14498 On ch=10 n=42 v=0
14522 On ch=10 n=40 v=122
14522 On ch=10 n=42 v=97
14528 On ch=10 n=42 v=0
14528 On ch=10 n=40 v=0
14581 On ch=10 n=42 v=65
14587 On ch=10 n=42 v=0
14611 On ch=10 n=40 v=71
14617 On ch=10 n=40 v=0
14643 On ch=10 n=42 v=97
14649 On ch=10 n=42 v=0
14701 On ch=10 n=36 v=120
14703 On ch=10 n=42 v=61
14707 On ch=10 n=36 v=0
14709 On ch=10 n=42 v=0
14731 On ch=10 n=42 v=79
14737 On ch=10 n=42 v=0
14762 On ch=10 n=40 v=124
14763 On ch=10 n=42 v=96
14768 On ch=10 n=40 v=0
14769 On ch=10 n=42 v=0
14822 On ch=10 n=42 v=52
14828 On ch=10 n=42 v=0
14852 On ch=10 n=40 v=73
14858 On ch=10 n=40 v=0
14881 On ch=10 n=42 v=96
14887 On ch=10 n=42 v=0
14940 On ch=10 n=42 v=65
14941 On ch=10 n=36 v=117
14946 On ch=10 n=42 v=0
14947 On ch=10 n=36 v=0
14971 On ch=10 n=42 v=73
14977 On ch=10 n=42 v=0
14999 On ch=10 n=42 v=97
15001 On ch=10 n=40 v=123
15005 On ch=10 n=42 v=0
15007 On ch=10 n=40 v=0
15060 On ch=10 n=42 v=54
15066 On ch=10 n=42 v=0
15094 On ch=10 n=42 v=97
15100 On ch=10 n=42 v=0
15178 On ch=10 n=42 v=75
15182 On ch=10 n=36 v=122
15184 On ch=10 n=42 v=0
15188 On ch=10 n=36 v=0
15207 On ch=10 n=42 v=83
15213 On ch=10 n=42 v=0
15237 On ch=10 n=42 v=97
15239 On ch=10 n=40 v=123
15243 On ch=10 n=42 v=0
15245 On ch=10 n=40 v=0
15297 On ch=10 n=42 v=87
15301 On ch=10 n=36 v=122
15303 On ch=10 n=42 v=0
15307 On ch=10 n=36 v=0
15357 On ch=10 n=42 v=96
15363 On ch=10 n=42 v=0
15417 On ch=10 n=42 v=73
15421 On ch=10 n=36 v=122
15423 On ch=10 n=42 v=0
15427 On ch=10 n=36 v=0
15447 On ch=10 n=42 v=86
15453 On ch=10 n=42 v=0
15477 On ch=10 n=42 v=98
15479 On ch=10 n=40 v=123
15483 On ch=10 n=42 v=0
15485 On ch=10 n=40 v=0
15538 On ch=10 n=42 v=87
15544 On ch=10 n=42 v=0
15571 On ch=10 n=40 v=65
15577 On ch=10 n=40 v=0
15600 On ch=10 n=42 v=95
15606 On ch=10 n=42 v=0
15659 On ch=10 n=42 v=83
15662 On ch=10 n=36 v=122
15665 On ch=10 n=42 v=0
15668 On ch=10 n=36 v=0
15689 On ch=10 n=42 v=83
15695 On ch=10 n=42 v=0
15720 On ch=10 n=42 v=98
15721 On ch=10 n=40 v=122
15726 On ch=10 n=42 v=0
15727 On ch=10 n=40 v=0
15778 On ch=10 n=42 v=95
15779 On ch=10 n=36 v=123
15781 On ch=10 n=40 v=123
15784 On ch=10 n=42 v=0
15785 On ch=10 n=36 v=0
15787 On ch=10 n=40 v=0
15807 On ch=10 n=40 v=69
15813 On ch=10 n=40 v=0
15902 On ch=10 n=40 v=125
15908 On ch=10 n=40 v=0
15961 On ch=10 n=41 v=124
15967 On ch=10 n=41 v=0
16079 On ch=10 n=45 v=125
16085 On ch=10 n=45 v=0
16109 On ch=10 n=41 v=124
16115 On ch=10 n=41 v=0
16139 On ch=10 n=48 v=120
16145 On ch=10 n=48 v=0
16170 On ch=10 n=40 v=122
16176 On ch=10 n=40 v=0
16201 On ch=10 n=43 v=122
16207 On ch=10 n=43 v=0
16261 On ch=10 n=40 v=124
16261 On ch=10 n=46 v=92
16261 On ch=10 n=49 v=83
16267 On ch=10 n=49 v=0
16267 On ch=10 n=46 v=0
16267 On ch=10 n=40 v=0
16382 On ch=10 n=36 v=124
16383 On ch=10 n=42 v=86
16388 On ch=10 n=36 v=0
16389 On ch=10 n=42 v=0
16412 On ch=10 n=42 v=79
16418 On ch=10 n=42 v=0
16442 On ch=10 n=40 v=123
16443 On ch=10 n=42 v=97
16448 On ch=10 n=40 v=0
16449 On ch=10 n=42 v=0
16502 On ch=10 n=42 v=51
16508 On ch=10 n=42 v=0
16531 On ch=10 n=40 v=67
16537 On ch=10 n=40 v=0
16561 On ch=10 n=42 v=96
16567 On ch=10 n=42 v=0
16622 On ch=10 n=42 v=58
16623 On ch=10 n=36 v=122
16628 On ch=10 n=42 v=0
16629 On ch=10 n=36 v=0
16652 On ch=10 n=42 v=89
16658 On ch=10 n=42 v=0
16681 On ch=10 n=42 v=97
16682 On ch=10 n=40 v=123
16687 On ch=10 n=42 v=0
16688 On ch=10 n=40 v=0
16742 On ch=10 n=42 v=51
16748 On ch=10 n=42 v=0
16772 On ch=10 n=40 v=67
16778 On ch=10 n=40 v=0
16800 On ch=10 n=42 v=96
16806 On ch=10 n=42 v=0
16861 On ch=10 n=42 v=60
16862 On ch=10 n=36 v=122
16867 On ch=10 n=42 v=0
16868 On ch=10 n=36 v=0
16889 On ch=10 n=42 v=83
16895 On ch=10 n=42 v=0
16921 On ch=10 n=40 v=123
16921 On ch=10 n=42 v=98
16927 On ch=10 n=42 v=0
16927 On ch=10 n=40 v=0
16979 On ch=10 n=42 v=49
16985 On ch=10 n=42 v=0
17041 On ch=10 n=42 v=97
17047 On ch=10 n=42 v=0
17099 On ch=10 n=42 v=60
17101 On ch=10 n=36 v=122
17105 On ch=10 n=42 v=0
17107 On ch=10 n=36 v=0
17129 On ch=10 n=42 v=86
17135 On ch=10 n=42 v=0
17161 On ch=10 n=40 v=123
17161 On ch=10 n=42 v=97
17167 On ch=10 n=42 v=0
17167 On ch=10 n=40 v=0
17219 On ch=10 n=36 v=123
17224 On ch=10 n=42 v=75
17225 On ch=10 n=36 v=0
17230 On ch=10 n=42 v=0
17277 On ch=10 n=42 v=97
17283 On ch=10 n=42 v=0
17336 On ch=10 n=42 v=65
17342 On ch=10 n=42 v=0
17366 On ch=10 n=42 v=86
17372 On ch=10 n=42 v=0
17396 On ch=10 n=42 v=98
17402 On ch=10 n=42 v=0
17402 On ch=10 n=40 v=123
17408 On ch=10 n=40 v=0
17457 On ch=10 n=42 v=65
17463 On ch=10 n=42 v=0
17489 On ch=10 n=40 v=63
17495 On ch=10 n=40 v=0
17518 On ch=10 n=42 v=97
17524 On ch=10 n=42 v=0
17579 On ch=10 n=42 v=52
17581 On ch=10 n=36 v=123
17585 On ch=10 n=42 v=0
17587 On ch=10 n=36 v=0
17608 On ch=10 n=42 v=87
17614 On ch=10 n=42 v=0
17638 On ch=10 n=42 v=98
17641 On ch=10 n=40 v=123
17644 On ch=10 n=42 v=0
17647 On ch=10 n=40 v=0
17698 On ch=10 n=42 v=68
17704 On ch=10 n=42 v=0
17729 On ch=10 n=40 v=60
17735 On ch=10 n=40 v=0
17761 On ch=10 n=42 v=97
17767 On ch=10 n=42 v=0
17821 On ch=10 n=42 v=73
17822 On ch=10 n=36 v=122
17827 On ch=10 n=42 v=0
17828 On ch=10 n=36 v=0
17849 On ch=10 n=42 v=83
17855 On ch=10 n=42 v=0
17879 On ch=10 n=42 v=97
17881 On ch=10 n=40 v=124
17885 On ch=10 n=42 v=0
17887 On ch=10 n=40 v=0
17940 On ch=10 n=42 v=89
17946 On ch=10 n=42 v=0
17969 On ch=10 n=40 v=65
17975 On ch=10 n=40 v=0
18000 On ch=10 n=42 v=95
18006 On ch=10 n=42 v=0
18060 On ch=10 n=42 v=87
18061 On ch=10 n=36 v=123
18066 On ch=10 n=42 v=0
18067 On ch=10 n=36 v=0
18089 On ch=10 n=42 v=86
18095 On ch=10 n=42 v=0
18119 On ch=10 n=40 v=123
18119 On ch=10 n=42 v=97
18125 On ch=10 n=42 v=0
18125 On ch=10 n=40 v=0
18178 On ch=10 n=36 v=123
18178 On ch=10 n=46 v=96
18184 On ch=10 n=46 v=0
18184 On ch=10 n=36 v=0
18209 On ch=10 n=40 v=68
18215 On ch=10 n=40 v=0
18239 On ch=10 n=42 v=87
18245 On ch=10 n=42 v=0
18298 On ch=10 n=42 v=83
18304 On ch=10 n=42 v=0
18328 On ch=10 n=42 v=92
18334 On ch=10 n=42 v=0
18358 On ch=10 n=42 v=98
18361 On ch=10 n=40 v=123
18364 On ch=10 n=42 v=0
18367 On ch=10 n=40 v=0
18419 On ch=10 n=42 v=73
18425 On ch=10 n=42 v=0
18481 On ch=10 n=42 v=97
18487 On ch=10 n=42 v=0
18512 On ch=10 n=40 v=67
18518 On ch=10 n=40 v=0
18541 On ch=10 n=36 v=122
18543 On ch=10 n=42 v=62
18547 On ch=10 n=36 v=0
18549 On ch=10 n=42 v=0
18571 On ch=10 n=42 v=75
18577 On ch=10 n=42 v=0
18601 On ch=10 n=42 v=98
18602 On ch=10 n=40 v=123
18607 On ch=10 n=42 v=0
18608 On ch=10 n=40 v=0
18661 On ch=10 n=42 v=75
18667 On ch=10 n=42 v=0
18722 On ch=10 n=42 v=97
18728 On ch=10 n=42 v=0
18751 On ch=10 n=40 v=68
18757 On ch=10 n=40 v=0
18782 On ch=10 n=42 v=73
18783 On ch=10 n=36 v=108
18788 On ch=10 n=42 v=0
18789 On ch=10 n=36 v=0
18812 On ch=10 n=42 v=79
18818 On ch=10 n=42 v=0
18841 On ch=10 n=40 v=122
18841 On ch=10 n=42 v=96
18847 On ch=10 n=42 v=0
18847 On ch=10 n=40 v=0
18899 On ch=10 n=46 v=96
18903 On ch=10 n=36 v=123
18905 On ch=10 n=46 v=0
18909 On ch=10 n=36 v=0
18958 On ch=10 n=42 v=83
18964 On ch=10 n=42 v=0
19019 On ch=10 n=42 v=92
19025 On ch=10 n=42 v=0
19048 On ch=10 n=42 v=79
19054 On ch=10 n=42 v=0
19079 On ch=10 n=42 v=97
19083 On ch=10 n=40 v=124
19085 On ch=10 n=42 v=0
19089 On ch=10 n=40 v=0
19140 On ch=10 n=42 v=62
19146 On ch=10 n=42 v=0
19200 On ch=10 n=42 v=97
19206 On ch=10 n=42 v=0
19230 On ch=10 n=40 v=72
19236 On ch=10 n=40 v=0
19261 On ch=10 n=42 v=65
19267 On ch=10 n=42 v=0
19289 On ch=10 n=42 v=79
19295 On ch=10 n=42 v=0
19321 On ch=10 n=42 v=99
19323 On ch=10 n=40 v=122
19327 On ch=10 n=42 v=0
19329 On ch=10 n=40 v=0
19382 On ch=10 n=42 v=75
19388 On ch=10 n=42 v=0
19443 On ch=10 n=42 v=97
19449 On ch=10 n=42 v=0
19472 On ch=10 n=40 v=73
19478 On ch=10 n=40 v=0
19498 On ch=10 n=36 v=122
19499 On ch=10 n=42 v=79
19504 On ch=10 n=36 v=0
19505 On ch=10 n=42 v=0
19529 On ch=10 n=42 v=83
19535 On ch=10 n=42 v=0
19556 On ch=10 n=40 v=123
19558 On ch=10 n=42 v=97
19562 On ch=10 n=40 v=0
19564 On ch=10 n=42 v=0
19616 On ch=10 n=41 v=123
19618 On ch=10 n=42 v=75
19622 On ch=10 n=41 v=0
19624 On ch=10 n=42 v=0
19676 On ch=10 n=45 v=124
19679 On ch=10 n=42 v=97
19682 On ch=10 n=45 v=0
19685 On ch=10 n=42 v=0
19709 On ch=10 n=40 v=72
19715 On ch=10 n=40 v=0
19739 On ch=10 n=48 v=125
19739 On ch=10 n=42 v=68
19745 On ch=10 n=42 v=0
19745 On ch=10 n=48 v=0
19768 On ch=10 n=42 v=86
19774 On ch=10 n=42 v=0
19798 On ch=10 n=42 v=97
19800 On ch=10 n=45 v=125
19804 On ch=10 n=42 v=0
19806 On ch=10 n=45 v=0
19863 On ch=10 n=41 v=125
19869 On ch=10 n=41 v=0
19921 On ch=10 n=46 v=79
19922 On ch=10 n=57 v=49
19927 On ch=10 n=46 v=0
19928 On ch=10 n=57 v=0
19928 On ch=10 n=36 v=120
19934 On ch=10 n=36 v=0
20161 On ch=10 n=46 v=52
20167 On ch=10 n=46 v=0
20169 On ch=10 n=36 v=125
20175 On ch=10 n=36 v=0
20399 On ch=10 n=46 v=62
20401 On ch=10 n=49 v=68
20402 On ch=10 n=36 v=123
20405 On ch=10 n=46 v=0
20407 On ch=10 n=49 v=0
20408 On ch=10 n=36 v=0
20637 On ch=10 n=46 v=83
20642 On ch=10 n=49 v=86
20643 On ch=10 n=46 v=0
20648 On ch=10 n=49 v=0
20657 On ch=10 n=36 v=123
20663 On ch=10 n=36 v=0
21181 On ch=10 n=40 v=123
21187 On ch=10 n=40 v=0
21241 On ch=10 n=40 v=124
21247 On ch=10 n=40 v=0
21358 On ch=10 n=41 v=123
21364 On ch=10 n=41 v=0
21389 On ch=10 n=40 v=100
21395 On ch=10 n=40 v=0
21419 On ch=10 n=45 v=108
21425 On ch=10 n=45 v=0
21449 On ch=10 n=41 v=124
21455 On ch=10 n=41 v=0
21481 On ch=10 n=48 v=125
21487 On ch=10 n=48 v=0
21600 On ch=10 n=42 v=122
21601 On ch=10 n=36 v=122
21601 On ch=10 n=49 v=97
21606 On ch=10 n=42 v=0
21607 On ch=10 n=49 v=0
21607 On ch=10 n=36 v=0
21723 On ch=10 n=42 v=123
21729 On ch=10 n=42 v=0
21839 On ch=10 n=42 v=123
21845 On ch=10 n=42 v=0
21962 On ch=10 n=42 v=123
21968 On ch=10 n=42 v=0
22081 On ch=10 n=42 v=122
22087 On ch=10 n=42 v=0
22202 On ch=10 n=42 v=122
22208 On ch=10 n=42 v=0
22323 On ch=10 n=42 v=121
22329 On ch=10 n=42 v=0
22444 On ch=10 n=42 v=122
22450 On ch=10 n=42 v=0
22567 On ch=10 n=42 v=124
22573 On ch=10 n=42 v=0
22683 On ch=10 n=42 v=123
22689 On ch=10 n=42 v=0
22804 On ch=10 n=42 v=123
22810 On ch=10 n=42 v=0
22920 On ch=10 n=42 v=123
22926 On ch=10 n=42 v=0
23041 On ch=10 n=42 v=124
23047 On ch=10 n=42 v=0
23162 On ch=10 n=42 v=124
23168 On ch=10 n=42 v=0
23288 On ch=10 n=42 v=124
23294 On ch=10 n=42 v=0
23401 On ch=10 n=42 v=124
23407 On ch=10 n=42 v=0
23525 On ch=10 n=42 v=124
23531 On ch=10 n=42 v=0
23638 On ch=10 n=42 v=124
23644 On ch=10 n=42 v=0
23757 On ch=10 n=42 v=124
23763 On ch=10 n=42 v=0
23880 On ch=10 n=42 v=123
23886 On ch=10 n=42 v=0
24001 On ch=10 n=42 v=122
24007 On ch=10 n=42 v=0
24125 On ch=10 n=42 v=122
24131 On ch=10 n=42 v=0
24240 On ch=10 n=42 v=123
24246 On ch=10 n=42 v=0
24356 On ch=10 n=42 v=123
24362 On ch=10 n=42 v=0
24480 On ch=10 n=42 v=122
24486 On ch=10 n=42 v=0
24601 On ch=10 n=42 v=123
24607 On ch=10 n=42 v=0
24722 On ch=10 n=42 v=123
24728 On ch=10 n=42 v=0
24845 On ch=10 n=42 v=123
24851 On ch=10 n=42 v=0
24961 On ch=10 n=40 v=121
24962 On ch=10 n=36 v=121
24962 On ch=10 n=57 v=90
24966 On ch=10 n=42 v=122
24967 On ch=10 n=40 v=0
24968 On ch=10 n=36 v=0
24968 On ch=10 n=57 v=0
24972 On ch=10 n=42 v=0
25021 On ch=10 n=36 v=114
25027 On ch=10 n=36 v=0
25082 On ch=10 n=40 v=123
25085 On ch=10 n=42 v=124
25088 On ch=10 n=40 v=0
25091 On ch=10 n=42 v=0
25142 On ch=10 n=36 v=112
25148 On ch=10 n=36 v=0
25201 On ch=10 n=42 v=124
25202 On ch=10 n=40 v=124
25207 On ch=10 n=42 v=0
25208 On ch=10 n=40 v=0
25324 On ch=10 n=42 v=124
25330 On ch=10 n=42 v=0
25381 On ch=10 n=36 v=125
25387 On ch=10 n=36 v=0
25445 On ch=10 n=42 v=125
25451 On ch=10 n=42 v=0
25501 On ch=10 n=36 v=124
25507 On ch=10 n=36 v=0
25566 On ch=10 n=42 v=124
25572 On ch=10 n=42 v=0
25619 On ch=10 n=36 v=125
25625 On ch=10 n=36 v=0
25680 On ch=10 n=40 v=123
25682 On ch=10 n=42 v=125
25686 On ch=10 n=40 v=0
25688 On ch=10 n=42 v=0
25739 On ch=10 n=36 v=123
25745 On ch=10 n=36 v=0
25798 On ch=10 n=42 v=124
25801 On ch=10 n=40 v=123
25801 On ch=10 n=36 v=124
25804 On ch=10 n=42 v=0
25807 On ch=10 n=36 v=0
25807 On ch=10 n=40 v=0
25921 On ch=10 n=42 v=124
25927 On ch=10 n=42 v=0
25981 On ch=10 n=36 v=125
25987 On ch=10 n=36 v=0
26042 On ch=10 n=40 v=123
26045 On ch=10 n=42 v=124
26048 On ch=10 n=40 v=0
26051 On ch=10 n=42 v=0
26162 On ch=10 n=40 v=124
26162 On ch=10 n=36 v=124
26166 On ch=10 n=42 v=124
26168 On ch=10 n=36 v=0
26168 On ch=10 n=40 v=0
26172 On ch=10 n=42 v=0
26282 On ch=10 n=36 v=124
26282 On ch=10 n=40 v=124
26284 On ch=10 n=42 v=124
26288 On ch=10 n=40 v=0
26288 On ch=10 n=36 v=0
26290 On ch=10 n=42 v=0
26400 On ch=10 n=42 v=123
26406 On ch=10 n=42 v=0
26459 On ch=10 n=36 v=125
26465 On ch=10 n=36 v=0
26516 On ch=10 n=42 v=123
26521 On ch=10 n=40 v=124
26522 On ch=10 n=42 v=0
26527 On ch=10 n=40 v=0
26579 On ch=10 n=36 v=126
26585 On ch=10 n=36 v=0
26642 On ch=10 n=42 v=124
26648 On ch=10 n=42 v=0
26699 On ch=10 n=36 v=120
26705 On ch=10 n=36 v=0
26731 On ch=10 n=36 v=124
26737 On ch=10 n=36 v=0
26761 On ch=10 n=40 v=123
26762 On ch=10 n=49 v=90
26766 On ch=10 n=42 v=123
26767 On ch=10 n=40 v=0
26768 On ch=10 n=49 v=0
26772 On ch=10 n=42 v=0
26822 On ch=10 n=36 v=124
26828 On ch=10 n=36 v=0
26879 On ch=10 n=42 v=123
26880 On ch=10 n=40 v=123
26882 On ch=10 n=36 v=124
26885 On ch=10 n=42 v=0
26886 On ch=10 n=40 v=0
26888 On ch=10 n=36 v=0
27001 On ch=10 n=36 v=124
27002 On ch=10 n=40 v=123
27002 On ch=10 n=42 v=122
27007 On ch=10 n=36 v=0
27008 On ch=10 n=42 v=0
27008 On ch=10 n=40 v=0
27123 On ch=10 n=42 v=124
27129 On ch=10 n=42 v=0
27180 On ch=10 n=36 v=126
27186 On ch=10 n=36 v=0
27240 On ch=10 n=40 v=124
27246 On ch=10 n=40 v=0
27249 On ch=10 n=42 v=123
27255 On ch=10 n=42 v=0
27301 On ch=10 n=36 v=124
27307 On ch=10 n=36 v=0
27368 On ch=10 n=42 v=122
27374 On ch=10 n=42 v=0
27422 On ch=10 n=36 v=125
27428 On ch=10 n=36 v=0
27483 On ch=10 n=40 v=125
27486 On ch=10 n=42 v=124
27489 On ch=10 n=40 v=0
27492 On ch=10 n=42 v=0
27506 On ch=10 n=36 v=124
27512 On ch=10 n=36 v=0
27597 On ch=10 n=42 v=124
27602 On ch=10 n=36 v=123
27602 On ch=10 n=40 v=123
27603 On ch=10 n=42 v=0
27608 On ch=10 n=40 v=0
27608 On ch=10 n=36 v=0
27722 On ch=10 n=36 v=125
27722 On ch=10 n=40 v=123
27723 On ch=10 n=42 v=124
27728 On ch=10 n=40 v=0
27728 On ch=10 n=36 v=0
27729 On ch=10 n=42 v=0
27842 On ch=10 n=42 v=124
27848 On ch=10 n=42 v=0
27902 On ch=10 n=36 v=125
27908 On ch=10 n=36 v=0
27961 On ch=10 n=40 v=122
27962 On ch=10 n=36 v=123
27963 On ch=10 n=42 v=122
27967 On ch=10 n=40 v=0
27968 On ch=10 n=36 v=0
27969 On ch=10 n=42 v=0
28018 On ch=10 n=46 v=123
28019 On ch=10 n=57 v=89
28021 On ch=10 n=36 v=124
28023 On ch=10 n=40 v=123
28024 On ch=10 n=46 v=0
28025 On ch=10 n=57 v=0
28027 On ch=10 n=36 v=0
28029 On ch=10 n=40 v=0
28141 On ch=10 n=42 v=122
28147 On ch=10 n=42 v=0
28204 On ch=10 n=42 v=122
28210 On ch=10 n=42 v=0
28261 On ch=10 n=49 v=84
28262 On ch=10 n=36 v=124
28262 On ch=10 n=40 v=124
28262 On ch=10 n=46 v=125
28267 On ch=10 n=49 v=0
28268 On ch=10 n=36 v=0
28268 On ch=10 n=40 v=0
28268 On ch=10 n=46 v=0
28378 On ch=10 n=42 v=124
28384 On ch=10 n=42 v=0
28441 On ch=10 n=42 v=122
28447 On ch=10 n=42 v=0
28502 On ch=10 n=42 v=124
28508 On ch=10 n=42 v=0
28623 On ch=10 n=42 v=122
28629 On ch=10 n=42 v=0
28688 On ch=10 n=42 v=122
28694 On ch=10 n=42 v=0
28742 On ch=10 n=36 v=124
28746 On ch=10 n=46 v=126
28748 On ch=10 n=36 v=0
28752 On ch=10 n=46 v=0
29221 On ch=10 n=57 v=87
29223 On ch=10 n=36 v=121
29227 On ch=10 n=57 v=0
29229 On ch=10 n=36 v=0
29280 On ch=10 n=42 v=86
29286 On ch=10 n=42 v=0
29340 On ch=10 n=36 v=114
29341 On ch=10 n=42 v=100
29346 On ch=10 n=36 v=0
29347 On ch=10 n=42 v=0
29399 On ch=10 n=40 v=122
29402 On ch=10 n=42 v=120
29405 On ch=10 n=40 v=0
29408 On ch=10 n=42 v=0
29462 On ch=10 n=42 v=112
29468 On ch=10 n=42 v=0
29489 On ch=10 n=40 v=63
29493 On ch=10 n=42 v=98
29495 On ch=10 n=40 v=0
29499 On ch=10 n=42 v=0
29521 On ch=10 n=42 v=65
29527 On ch=10 n=42 v=0
29581 On ch=10 n=36 v=121
29581 On ch=10 n=42 v=111
29587 On ch=10 n=42 v=0
29587 On ch=10 n=36 v=0
29641 On ch=10 n=40 v=122
29641 On ch=10 n=42 v=121
29647 On ch=10 n=42 v=0
29647 On ch=10 n=40 v=0
29701 On ch=10 n=42 v=112
29707 On ch=10 n=42 v=0
29728 On ch=10 n=40 v=66
29729 On ch=10 n=42 v=100
29734 On ch=10 n=40 v=0
29735 On ch=10 n=42 v=0
29759 On ch=10 n=42 v=65
29765 On ch=10 n=42 v=0
29821 On ch=10 n=36 v=120
29821 On ch=10 n=42 v=120
29827 On ch=10 n=42 v=0
29827 On ch=10 n=36 v=0
29879 On ch=10 n=40 v=122
29881 On ch=10 n=42 v=122
29885 On ch=10 n=40 v=0
29887 On ch=10 n=42 v=0
29941 On ch=10 n=42 v=117
29947 On ch=10 n=42 v=0
30001 On ch=10 n=42 v=87
30007 On ch=10 n=42 v=0
30061 On ch=10 n=36 v=114
30061 On ch=10 n=42 v=120
30067 On ch=10 n=42 v=0
30067 On ch=10 n=36 v=0
30120 On ch=10 n=40 v=122
30121 On ch=10 n=42 v=122
30126 On ch=10 n=40 v=0
30127 On ch=10 n=42 v=0
30179 On ch=10 n=42 v=114
30180 On ch=10 n=36 v=120
30185 On ch=10 n=42 v=0
30186 On ch=10 n=36 v=0
30211 On ch=10 n=42 v=90
30217 On ch=10 n=42 v=0
30241 On ch=10 n=42 v=111
30247 On ch=10 n=42 v=0
30299 On ch=10 n=36 v=122
30299 On ch=10 n=42 v=112
30305 On ch=10 n=42 v=0
30305 On ch=10 n=36 v=0
30359 On ch=10 n=40 v=122
30361 On ch=10 n=42 v=122
30365 On ch=10 n=40 v=0
30367 On ch=10 n=42 v=0
30419 On ch=10 n=42 v=87
30425 On ch=10 n=42 v=0
30450 On ch=10 n=40 v=74
30450 On ch=10 n=42 v=100
30456 On ch=10 n=42 v=0
30456 On ch=10 n=40 v=0
30481 On ch=10 n=42 v=120
30487 On ch=10 n=42 v=0
30539 On ch=10 n=42 v=114
30541 On ch=10 n=36 v=120
30545 On ch=10 n=42 v=0
30547 On ch=10 n=36 v=0
30599 On ch=10 n=40 v=122
30601 On ch=10 n=42 v=114
30605 On ch=10 n=40 v=0
30607 On ch=10 n=42 v=0
30659 On ch=10 n=42 v=111
30660 On ch=10 n=49 v=75
30665 On ch=10 n=42 v=0
30666 On ch=10 n=49 v=0
31141 On ch=10 n=36 v=122
31141 On ch=10 n=57 v=74
31143 On ch=10 n=42 v=114
31147 On ch=10 n=57 v=0
31147 On ch=10 n=36 v=0
31149 On ch=10 n=42 v=0
31261 On ch=10 n=42 v=108
31262 On ch=10 n=36 v=122
31267 On ch=10 n=42 v=0
31268 On ch=10 n=36 v=0
31321 On ch=10 n=42 v=120
31322 On ch=10 n=40 v=123
31327 On ch=10 n=42 v=0
31328 On ch=10 n=40 v=0
31380 On ch=10 n=42 v=104
31386 On ch=10 n=42 v=0
31411 On ch=10 n=40 v=69
31411 On ch=10 n=42 v=108
31417 On ch=10 n=42 v=0
31417 On ch=10 n=40 v=0
31441 On ch=10 n=42 v=75
31447 On ch=10 n=42 v=0
31501 On ch=10 n=42 v=95
31502 On ch=10 n=36 v=121
31507 On ch=10 n=42 v=0
31508 On ch=10 n=36 v=0
31561 On ch=10 n=42 v=121
31562 On ch=10 n=40 v=123
31567 On ch=10 n=42 v=0
31568 On ch=10 n=40 v=0
31621 On ch=10 n=42 v=108
31627 On ch=10 n=42 v=0
31649 On ch=10 n=40 v=65
31651 On ch=10 n=42 v=104
31655 On ch=10 n=40 v=0
31657 On ch=10 n=42 v=0
31681 On ch=10 n=42 v=93
31687 On ch=10 n=42 v=0
31741 On ch=10 n=42 v=117
31744 On ch=10 n=36 v=117
31747 On ch=10 n=42 v=0
31750 On ch=10 n=36 v=0
31801 On ch=10 n=40 v=122
31801 On ch=10 n=42 v=117
31807 On ch=10 n=42 v=0
31807 On ch=10 n=40 v=0
31861 On ch=10 n=42 v=104
31867 On ch=10 n=42 v=0
31890 On ch=10 n=40 v=67
31896 On ch=10 n=40 v=0
31922 On ch=10 n=42 v=114
31928 On ch=10 n=42 v=0
31981 On ch=10 n=36 v=114
31982 On ch=10 n=42 v=112
31987 On ch=10 n=36 v=0
31988 On ch=10 n=42 v=0
32012 On ch=10 n=42 v=64
32018 On ch=10 n=42 v=0
32039 On ch=10 n=40 v=122
32041 On ch=10 n=42 v=72
32045 On ch=10 n=40 v=0
32047 On ch=10 n=42 v=0
32101 On ch=10 n=42 v=111
32107 On ch=10 n=42 v=0
32161 On ch=10 n=40 v=120
32161 On ch=10 n=36 v=111
32167 On ch=10 n=36 v=0
32167 On ch=10 n=40 v=0
32283 On ch=10 n=36 v=122
32289 On ch=10 n=36 v=0
32343 On ch=10 n=36 v=120
32349 On ch=10 n=36 v=0
32519 On ch=10 n=36 v=124
32525 On ch=10 n=36 v=0
32699 On ch=10 n=36 v=122
32705 On ch=10 n=36 v=0
32877 On ch=10 n=36 v=122
32883 On ch=10 n=36 v=0
33060 On ch=10 n=57 v=79
33061 On ch=10 n=36 v=123
33066 On ch=10 n=57 v=0
33067 On ch=10 n=36 v=0
33121 On ch=10 n=49 v=81
33122 On ch=10 n=36 v=112
33127 On ch=10 n=49 v=0
33128 On ch=10 n=36 v=0
33183 On ch=10 n=42 v=86
33189 On ch=10 n=42 v=0
33212 On ch=10 n=42 v=79
33218 On ch=10 n=42 v=0
33242 On ch=10 n=40 v=123
33243 On ch=10 n=42 v=97
33248 On ch=10 n=40 v=0
33249 On ch=10 n=42 v=0
33302 On ch=10 n=42 v=51
33308 On ch=10 n=42 v=0
33331 On ch=10 n=40 v=69
33337 On ch=10 n=40 v=0
33361 On ch=10 n=42 v=96
33367 On ch=10 n=42 v=0
33422 On ch=10 n=42 v=58
33423 On ch=10 n=36 v=122
33428 On ch=10 n=42 v=0
33429 On ch=10 n=36 v=0
33452 On ch=10 n=42 v=89
33458 On ch=10 n=42 v=0
33481 On ch=10 n=42 v=97
33482 On ch=10 n=40 v=123
33487 On ch=10 n=42 v=0
33488 On ch=10 n=40 v=0
33542 On ch=10 n=42 v=51
33548 On ch=10 n=42 v=0
33569 On ch=10 n=40 v=67
33575 On ch=10 n=40 v=0
33600 On ch=10 n=42 v=96
33606 On ch=10 n=42 v=0
33661 On ch=10 n=42 v=60
33662 On ch=10 n=36 v=122
33667 On ch=10 n=42 v=0
33668 On ch=10 n=36 v=0
33689 On ch=10 n=42 v=83
33695 On ch=10 n=42 v=0
33721 On ch=10 n=40 v=123
33721 On ch=10 n=42 v=98
33727 On ch=10 n=42 v=0
33727 On ch=10 n=40 v=0
33779 On ch=10 n=42 v=49
33785 On ch=10 n=42 v=0
33841 On ch=10 n=42 v=97
33847 On ch=10 n=42 v=0
33869 On ch=10 n=40 v=65
33875 On ch=10 n=40 v=0
33899 On ch=10 n=42 v=60
33901 On ch=10 n=36 v=122
33905 On ch=10 n=42 v=0
33907 On ch=10 n=36 v=0
33929 On ch=10 n=42 v=86
33935 On ch=10 n=42 v=0
33961 On ch=10 n=40 v=123
33961 On ch=10 n=42 v=97
33967 On ch=10 n=42 v=0
33967 On ch=10 n=40 v=0
34019 On ch=10 n=36 v=123
34024 On ch=10 n=42 v=75
34025 On ch=10 n=36 v=0
34030 On ch=10 n=42 v=0
34077 On ch=10 n=42 v=97
34083 On ch=10 n=42 v=0
34136 On ch=10 n=42 v=65
34142 On ch=10 n=42 v=0
34166 On ch=10 n=42 v=86
34172 On ch=10 n=42 v=0
34196 On ch=10 n=42 v=98
34202 On ch=10 n=42 v=0
34202 On ch=10 n=40 v=123
34208 On ch=10 n=40 v=0
34257 On ch=10 n=42 v=65
34263 On ch=10 n=42 v=0
34318 On ch=10 n=42 v=97
34324 On ch=10 n=42 v=0
34349 On ch=10 n=40 v=65
34355 On ch=10 n=40 v=0
34379 On ch=10 n=42 v=52
34381 On ch=10 n=36 v=123
34385 On ch=10 n=42 v=0
34387 On ch=10 n=36 v=0
34408 On ch=10 n=42 v=87
34414 On ch=10 n=42 v=0
34438 On ch=10 n=42 v=98
34441 On ch=10 n=40 v=123
34444 On ch=10 n=42 v=0
34447 On ch=10 n=40 v=0
34498 On ch=10 n=42 v=68
34504 On ch=10 n=42 v=0
34561 On ch=10 n=42 v=97
34567 On ch=10 n=42 v=0
34591 On ch=10 n=40 v=73
34597 On ch=10 n=40 v=0
34621 On ch=10 n=42 v=73
34622 On ch=10 n=36 v=122
34627 On ch=10 n=42 v=0
34628 On ch=10 n=36 v=0
34649 On ch=10 n=42 v=83
34655 On ch=10 n=42 v=0
34679 On ch=10 n=42 v=97
34681 On ch=10 n=40 v=124
34685 On ch=10 n=42 v=0
34687 On ch=10 n=40 v=0
34740 On ch=10 n=42 v=89
34746 On ch=10 n=42 v=0
34800 On ch=10 n=42 v=95
34806 On ch=10 n=42 v=0
34829 On ch=10 n=40 v=65
34835 On ch=10 n=40 v=0
34860 On ch=10 n=42 v=87
34861 On ch=10 n=36 v=123
34866 On ch=10 n=42 v=0
34867 On ch=10 n=36 v=0
34889 On ch=10 n=42 v=86
34895 On ch=10 n=42 v=0
34919 On ch=10 n=40 v=123
34919 On ch=10 n=42 v=97
34925 On ch=10 n=42 v=0
34925 On ch=10 n=40 v=0
34978 On ch=10 n=36 v=123
34978 On ch=10 n=46 v=96
34984 On ch=10 n=46 v=0
34984 On ch=10 n=36 v=0
35039 On ch=10 n=42 v=87
35045 On ch=10 n=42 v=0
35098 On ch=10 n=42 v=83
35104 On ch=10 n=42 v=0
35128 On ch=10 n=42 v=92
35134 On ch=10 n=42 v=0
35158 On ch=10 n=42 v=98
35161 On ch=10 n=40 v=123
35164 On ch=10 n=42 v=0
35167 On ch=10 n=40 v=0
35219 On ch=10 n=42 v=73
35225 On ch=10 n=42 v=0
35249 On ch=10 n=40 v=69
35255 On ch=10 n=40 v=0
35281 On ch=10 n=42 v=97
35287 On ch=10 n=42 v=0
35341 On ch=10 n=36 v=122
35343 On ch=10 n=42 v=62
35347 On ch=10 n=36 v=0
35349 On ch=10 n=42 v=0
35371 On ch=10 n=42 v=75
35377 On ch=10 n=42 v=0
35401 On ch=10 n=42 v=98
35402 On ch=10 n=40 v=123
35407 On ch=10 n=42 v=0
35408 On ch=10 n=40 v=0
35461 On ch=10 n=42 v=75
35467 On ch=10 n=42 v=0
35489 On ch=10 n=40 v=67
35495 On ch=10 n=40 v=0
35522 On ch=10 n=42 v=97
35528 On ch=10 n=42 v=0
35582 On ch=10 n=42 v=73
35583 On ch=10 n=36 v=108
35588 On ch=10 n=42 v=0
35589 On ch=10 n=36 v=0
35612 On ch=10 n=42 v=79
35618 On ch=10 n=42 v=0
35641 On ch=10 n=40 v=122
35641 On ch=10 n=42 v=96
35647 On ch=10 n=42 v=0
35647 On ch=10 n=40 v=0
35699 On ch=10 n=46 v=96
35703 On ch=10 n=36 v=123
35705 On ch=10 n=46 v=0
35709 On ch=10 n=36 v=0
35758 On ch=10 n=42 v=83
35764 On ch=10 n=42 v=0
35819 On ch=10 n=42 v=92
35825 On ch=10 n=42 v=0
35848 On ch=10 n=42 v=79
35854 On ch=10 n=42 v=0
35879 On ch=10 n=42 v=97
35883 On ch=10 n=40 v=124
35885 On ch=10 n=42 v=0
35889 On ch=10 n=40 v=0
35940 On ch=10 n=42 v=62
35946 On ch=10 n=42 v=0
36000 On ch=10 n=42 v=97
36006 On ch=10 n=42 v=0
36029 On ch=10 n=40 v=65
36035 On ch=10 n=40 v=0
36061 On ch=10 n=42 v=65
36067 On ch=10 n=42 v=0
36089 On ch=10 n=42 v=79
36095 On ch=10 n=42 v=0
36121 On ch=10 n=42 v=99
36123 On ch=10 n=40 v=122
36127 On ch=10 n=42 v=0
36129 On ch=10 n=40 v=0
36182 On ch=10 n=42 v=75
36188 On ch=10 n=42 v=0
36243 On ch=10 n=42 v=97
36249 On ch=10 n=42 v=0
36271 On ch=10 n=40 v=79
36277 On ch=10 n=40 v=0
36298 On ch=10 n=36 v=122
36299 On ch=10 n=42 v=79
36304 On ch=10 n=36 v=0
36305 On ch=10 n=42 v=0
36329 On ch=10 n=42 v=83
36335 On ch=10 n=42 v=0
36356 On ch=10 n=40 v=123
36358 On ch=10 n=42 v=97
36362 On ch=10 n=40 v=0
36364 On ch=10 n=42 v=0
36416 On ch=10 n=41 v=123
36418 On ch=10 n=42 v=75
36422 On ch=10 n=41 v=0
36424 On ch=10 n=42 v=0
36476 On ch=10 n=45 v=124
36479 On ch=10 n=42 v=97
36482 On ch=10 n=45 v=0
36485 On ch=10 n=42 v=0
36509 On ch=10 n=40 v=70
36515 On ch=10 n=40 v=0
36539 On ch=10 n=48 v=125
36539 On ch=10 n=42 v=68
36545 On ch=10 n=42 v=0
36545 On ch=10 n=48 v=0
36568 On ch=10 n=42 v=86
36574 On ch=10 n=42 v=0
36598 On ch=10 n=42 v=97
36600 On ch=10 n=45 v=125
36604 On ch=10 n=42 v=0
36606 On ch=10 n=45 v=0
36663 On ch=10 n=41 v=125
36669 On ch=10 n=41 v=0
36721 On ch=10 n=46 v=79
36722 On ch=10 n=57 v=49
36727 On ch=10 n=46 v=0
36728 On ch=10 n=57 v=0
36728 On ch=10 n=36 v=120
36734 On ch=10 n=36 v=0
36961 On ch=10 n=46 v=52
36967 On ch=10 n=46 v=0
36969 On ch=10 n=36 v=125
36975 On ch=10 n=36 v=0
37199 On ch=10 n=46 v=62
37201 On ch=10 n=49 v=68
37202 On ch=10 n=36 v=123
37205 On ch=10 n=46 v=0
37207 On ch=10 n=49 v=0
37208 On ch=10 n=36 v=0
37437 On ch=10 n=46 v=83
37442 On ch=10 n=49 v=86
37443 On ch=10 n=46 v=0
37448 On ch=10 n=49 v=0
37457 On ch=10 n=36 v=123
37463 On ch=10 n=36 v=0
37981 On ch=10 n=40 v=123
37987 On ch=10 n=40 v=0
38041 On ch=10 n=40 v=124
38047 On ch=10 n=40 v=0
38158 On ch=10 n=41 v=123
38164 On ch=10 n=41 v=0
38189 On ch=10 n=40 v=100
38195 On ch=10 n=40 v=0
38219 On ch=10 n=45 v=108
38225 On ch=10 n=45 v=0
38249 On ch=10 n=41 v=124
38255 On ch=10 n=41 v=0
38281 On ch=10 n=48 v=125
38287 On ch=10 n=48 v=0
38400 On ch=10 n=42 v=122
38401 On ch=10 n=40 v=121
38401 On ch=10 n=49 v=97
38402 On ch=10 n=36 v=121
38406 On ch=10 n=42 v=0
38407 On ch=10 n=40 v=0
38407 On ch=10 n=49 v=0
38408 On ch=10 n=36 v=0
38461 On ch=10 n=36 v=114
38467 On ch=10 n=36 v=0
38522 On ch=10 n=40 v=123
38523 On ch=10 n=42 v=123
38528 On ch=10 n=40 v=0
38529 On ch=10 n=42 v=0
38582 On ch=10 n=36 v=112
38588 On ch=10 n=36 v=0
38639 On ch=10 n=42 v=123
38642 On ch=10 n=40 v=124
38645 On ch=10 n=42 v=0
38648 On ch=10 n=40 v=0
38762 On ch=10 n=42 v=123
38768 On ch=10 n=42 v=0
38821 On ch=10 n=36 v=125
38827 On ch=10 n=36 v=0
38881 On ch=10 n=42 v=122
38887 On ch=10 n=42 v=0
38941 On ch=10 n=36 v=124
38947 On ch=10 n=36 v=0
39002 On ch=10 n=42 v=122
39008 On ch=10 n=42 v=0
39059 On ch=10 n=36 v=125
39065 On ch=10 n=36 v=0
39120 On ch=10 n=40 v=123
39123 On ch=10 n=42 v=121
39126 On ch=10 n=40 v=0
39129 On ch=10 n=42 v=0
39179 On ch=10 n=36 v=123
39185 On ch=10 n=36 v=0
39241 On ch=10 n=40 v=123
39241 On ch=10 n=36 v=124
39244 On ch=10 n=42 v=122
39247 On ch=10 n=36 v=0
39247 On ch=10 n=40 v=0
39250 On ch=10 n=42 v=0
39367 On ch=10 n=42 v=124
39373 On ch=10 n=42 v=0
39421 On ch=10 n=36 v=125
39427 On ch=10 n=36 v=0
39482 On ch=10 n=40 v=123
39483 On ch=10 n=42 v=123
39488 On ch=10 n=40 v=0
39489 On ch=10 n=42 v=0
39602 On ch=10 n=40 v=124
39602 On ch=10 n=36 v=124
39604 On ch=10 n=42 v=123
39608 On ch=10 n=36 v=0
39608 On ch=10 n=40 v=0
39610 On ch=10 n=42 v=0
39720 On ch=10 n=42 v=123
39722 On ch=10 n=36 v=124
39722 On ch=10 n=40 v=124
39726 On ch=10 n=42 v=0
39728 On ch=10 n=40 v=0
39728 On ch=10 n=36 v=0
39841 On ch=10 n=42 v=124
39847 On ch=10 n=42 v=0
39899 On ch=10 n=36 v=125
39905 On ch=10 n=36 v=0
39961 On ch=10 n=40 v=124
39962 On ch=10 n=42 v=124
39967 On ch=10 n=40 v=0
39968 On ch=10 n=42 v=0
40019 On ch=10 n=36 v=126
40025 On ch=10 n=36 v=0
40088 On ch=10 n=42 v=124
40094 On ch=10 n=42 v=0
40139 On ch=10 n=36 v=120
40145 On ch=10 n=36 v=0
40171 On ch=10 n=36 v=124
40177 On ch=10 n=36 v=0
40201 On ch=10 n=40 v=123
40201 On ch=10 n=42 v=124
40207 On ch=10 n=42 v=0
40207 On ch=10 n=40 v=0
40262 On ch=10 n=36 v=124
40268 On ch=10 n=36 v=0
40320 On ch=10 n=40 v=123
40322 On ch=10 n=36 v=124
40325 On ch=10 n=42 v=124
40326 On ch=10 n=40 v=0
40328 On ch=10 n=36 v=0
40331 On ch=10 n=42 v=0
40438 On ch=10 n=42 v=124
40441 On ch=10 n=36 v=124
40442 On ch=10 n=40 v=123
40444 On ch=10 n=42 v=0
40447 On ch=10 n=36 v=0
40448 On ch=10 n=40 v=0
40557 On ch=10 n=42 v=124
40563 On ch=10 n=42 v=0
40620 On ch=10 n=36 v=126
40626 On ch=10 n=36 v=0
40680 On ch=10 n=40 v=124
40680 On ch=10 n=42 v=123
40686 On ch=10 n=42 v=0
40686 On ch=10 n=40 v=0
40741 On ch=10 n=36 v=124
40747 On ch=10 n=36 v=0
40801 On ch=10 n=42 v=122
40807 On ch=10 n=42 v=0
40862 On ch=10 n=36 v=125
40868 On ch=10 n=36 v=0
40923 On ch=10 n=40 v=125
40925 On ch=10 n=42 v=122
40929 On ch=10 n=40 v=0
40931 On ch=10 n=42 v=0
40946 On ch=10 n=36 v=124
40952 On ch=10 n=36 v=0
41040 On ch=10 n=42 v=123
41042 On ch=10 n=36 v=123
41042 On ch=10 n=40 v=123
41046 On ch=10 n=42 v=0
41048 On ch=10 n=40 v=0
41048 On ch=10 n=36 v=0
41156 On ch=10 n=42 v=123
41162 On ch=10 n=42 v=0
41162 On ch=10 n=36 v=125
41162 On ch=10 n=40 v=123
41168 On ch=10 n=40 v=0
41168 On ch=10 n=36 v=0
41280 On ch=10 n=42 v=122
41281 On ch=10 n=40 v=121
41282 On ch=10 n=36 v=121
41286 On ch=10 n=42 v=0
41287 On ch=10 n=40 v=0
41288 On ch=10 n=36 v=0
41341 On ch=10 n=36 v=114
41347 On ch=10 n=36 v=0
41401 On ch=10 n=42 v=123
41407 On ch=10 n=42 v=0
41462 On ch=10 n=36 v=112
41468 On ch=10 n=36 v=0
41522 On ch=10 n=40 v=124
41522 On ch=10 n=42 v=123
41528 On ch=10 n=42 v=0
41528 On ch=10 n=40 v=0
41645 On ch=10 n=42 v=123
41651 On ch=10 n=42 v=0
41701 On ch=10 n=36 v=125
41707 On ch=10 n=36 v=0
41762 On ch=10 n=57 v=90
41766 On ch=10 n=42 v=122
41768 On ch=10 n=57 v=0
41772 On ch=10 n=42 v=0
41821 On ch=10 n=36 v=124
41827 On ch=10 n=36 v=0
41885 On ch=10 n=42 v=124
41891 On ch=10 n=42 v=0
41939 On ch=10 n=36 v=125
41945 On ch=10 n=36 v=0
42000 On ch=10 n=40 v=123
42001 On ch=10 n=42 v=124
42006 On ch=10 n=40 v=0
42007 On ch=10 n=42 v=0
42059 On ch=10 n=36 v=123
42065 On ch=10 n=36 v=0
42121 On ch=10 n=40 v=123
42121 On ch=10 n=36 v=124
42124 On ch=10 n=42 v=124
42127 On ch=10 n=36 v=0
42127 On ch=10 n=40 v=0
42130 On ch=10 n=42 v=0
42245 On ch=10 n=42 v=125
42251 On ch=10 n=42 v=0
42301 On ch=10 n=36 v=125
42307 On ch=10 n=36 v=0
42362 On ch=10 n=40 v=123
42366 On ch=10 n=42 v=124
42368 On ch=10 n=40 v=0
42372 On ch=10 n=42 v=0
42482 On ch=10 n=40 v=124
42482 On ch=10 n=36 v=124
42482 On ch=10 n=42 v=125
42488 On ch=10 n=42 v=0
42488 On ch=10 n=36 v=0
42488 On ch=10 n=40 v=0
42598 On ch=10 n=42 v=124
42602 On ch=10 n=36 v=124
42602 On ch=10 n=40 v=124
42604 On ch=10 n=42 v=0
42608 On ch=10 n=40 v=0
42608 On ch=10 n=36 v=0
42721 On ch=10 n=42 v=124
42727 On ch=10 n=42 v=0
42779 On ch=10 n=36 v=125
42785 On ch=10 n=36 v=0
42841 On ch=10 n=40 v=124
42845 On ch=10 n=42 v=124
42847 On ch=10 n=40 v=0
42851 On ch=10 n=42 v=0
42899 On ch=10 n=36 v=126
42905 On ch=10 n=36 v=0
42966 On ch=10 n=42 v=124
42972 On ch=10 n=42 v=0
43019 On ch=10 n=36 v=120
43025 On ch=10 n=36 v=0
43051 On ch=10 n=36 v=124
43057 On ch=10 n=36 v=0
43081 On ch=10 n=40 v=123
43084 On ch=10 n=42 v=124
43087 On ch=10 n=40 v=0
43090 On ch=10 n=42 v=0
43142 On ch=10 n=36 v=124
43148 On ch=10 n=36 v=0
43200 On ch=10 n=40 v=123
43200 On ch=10 n=42 v=123
43202 On ch=10 n=36 v=124
43206 On ch=10 n=42 v=0
43206 On ch=10 n=40 v=0
43208 On ch=10 n=36 v=0
43316 On ch=10 n=42 v=123
43321 On ch=10 n=36 v=124
43322 On ch=10 n=42 v=0
43322 On ch=10 n=40 v=123
43327 On ch=10 n=36 v=0
43328 On ch=10 n=40 v=0
43442 On ch=10 n=42 v=124
43448 On ch=10 n=42 v=0
43500 On ch=10 n=36 v=126
43506 On ch=10 n=36 v=0
43560 On ch=10 n=40 v=124
43562 On ch=10 n=49 v=90
43566 On ch=10 n=40 v=0
43566 On ch=10 n=42 v=123
43568 On ch=10 n=49 v=0
43572 On ch=10 n=42 v=0
43621 On ch=10 n=36 v=124
43627 On ch=10 n=36 v=0
43679 On ch=10 n=42 v=123
43685 On ch=10 n=42 v=0
43742 On ch=10 n=36 v=125
43748 On ch=10 n=36 v=0
43802 On ch=10 n=42 v=122
43803 On ch=10 n=40 v=125
43808 On ch=10 n=42 v=0
43809 On ch=10 n=40 v=0
43826 On ch=10 n=36 v=124
43832 On ch=10 n=36 v=0
43922 On ch=10 n=36 v=123
43922 On ch=10 n=40 v=123
43923 On ch=10 n=42 v=124
43928 On ch=10 n=40 v=0
43928 On ch=10 n=36 v=0
43929 On ch=10 n=42 v=0
44042 On ch=10 n=36 v=125
44042 On ch=10 n=40 v=123
44048 On ch=10 n=40 v=0
44048 On ch=10 n=36 v=0
44049 On ch=10 n=42 v=123
44055 On ch=10 n=42 v=0
44168 On ch=10 n=42 v=122
44174 On ch=10 n=42 v=0
44222 On ch=10 n=36 v=125
44228 On ch=10 n=36 v=0
44283 On ch=10 n=40 v=125
44286 On ch=10 n=42 v=124
44289 On ch=10 n=40 v=0
44292 On ch=10 n=42 v=0
44306 On ch=10 n=36 v=124
44312 On ch=10 n=36 v=0
44397 On ch=10 n=42 v=124
44402 On ch=10 n=36 v=123
44402 On ch=10 n=40 v=123
44403 On ch=10 n=42 v=0
44408 On ch=10 n=40 v=0
44408 On ch=10 n=36 v=0
44522 On ch=10 n=36 v=125
44522 On ch=10 n=40 v=123
44523 On ch=10 n=42 v=124
44528 On ch=10 n=40 v=0
44528 On ch=10 n=36 v=0
44529 On ch=10 n=42 v=0
44642 On ch=10 n=42 v=124
44648 On ch=10 n=42 v=0
44702 On ch=10 n=36 v=125
44708 On ch=10 n=36 v=0
44761 On ch=10 n=40 v=122
44762 On ch=10 n=36 v=123
44763 On ch=10 n=42 v=122
44767 On ch=10 n=40 v=0
44768 On ch=10 n=36 v=0
44769 On ch=10 n=42 v=0
44818 On ch=10 n=46 v=123
44819 On ch=10 n=57 v=89
44821 On ch=10 n=36 v=124
44823 On ch=10 n=40 v=123
44824 On ch=10 n=46 v=0
44825 On ch=10 n=57 v=0
44827 On ch=10 n=36 v=0
44829 On ch=10 n=40 v=0
44941 On ch=10 n=42 v=122
44947 On ch=10 n=42 v=0
45004 On ch=10 n=42 v=122
45010 On ch=10 n=42 v=0
45061 On ch=10 n=49 v=84
45062 On ch=10 n=36 v=124
45062 On ch=10 n=40 v=124
45062 On ch=10 n=46 v=125
45067 On ch=10 n=49 v=0
45068 On ch=10 n=36 v=0
45068 On ch=10 n=40 v=0
45068 On ch=10 n=46 v=0
45178 On ch=10 n=42 v=124
45184 On ch=10 n=42 v=0
45241 On ch=10 n=42 v=122
45247 On ch=10 n=42 v=0
45302 On ch=10 n=42 v=124
45308 On ch=10 n=42 v=0
45423 On ch=10 n=42 v=122
45429 On ch=10 n=42 v=0
45488 On ch=10 n=42 v=122
45494 On ch=10 n=42 v=0
45542 On ch=10 n=36 v=124
45546 On ch=10 n=46 v=126
45548 On ch=10 n=36 v=0
45552 On ch=10 n=46 v=0
46561 On ch=10 n=40 v=120
46561 On ch=10 n=36 v=111
46567 On ch=10 n=36 v=0
46567 On ch=10 n=40 v=0
46683 On ch=10 n=36 v=122
46689 On ch=10 n=36 v=0
46743 On ch=10 n=36 v=120
46749 On ch=10 n=36 v=0
46919 On ch=10 n=36 v=124
46925 On ch=10 n=36 v=0
47099 On ch=10 n=36 v=122
47105 On ch=10 n=36 v=0
47277 On ch=10 n=36 v=122
47283 On ch=10 n=36 v=0
47460 On ch=10 n=57 v=79
47461 On ch=10 n=36 v=123
47466 On ch=10 n=57 v=0
47467 On ch=10 n=36 v=0
47521 On ch=10 n=36 v=111
47521 On ch=10 n=49 v=81
47527 On ch=10 n=49 v=0
47527 On ch=10 n=36 v=0
47607 On ch=10 n=40 v=61
47613 On ch=10 n=40 v=0
47636 On ch=10 n=40 v=77
47641 On ch=10 n=36 v=111
47642 On ch=10 n=40 v=0
47647 On ch=10 n=36 v=0
47698 On ch=10 n=40 v=65
47704 On ch=10 n=40 v=0
47727 On ch=10 n=40 v=60
47733 On ch=10 n=40 v=0
47760 On ch=10 n=36 v=112
47760 On ch=10 n=40 v=112
47766 On ch=10 n=40 v=0
47766 On ch=10 n=36 v=0
47819 On ch=10 n=40 v=62
47825 On ch=10 n=40 v=0
47849 On ch=10 n=40 v=76
47855 On ch=10 n=40 v=0
47881 On ch=10 n=40 v=120
47887 On ch=10 n=40 v=0
47908 On ch=10 n=40 v=69
47914 On ch=10 n=40 v=0
47939 On ch=10 n=40 v=77
47945 On ch=10 n=40 v=0
47968 On ch=10 n=40 v=75
47974 On ch=10 n=40 v=0
47999 On ch=10 n=40 v=120
48001 On ch=10 n=36 v=104
48005 On ch=10 n=40 v=0
48007 On ch=10 n=36 v=0
48030 On ch=10 n=40 v=71
48036 On ch=10 n=40 v=0
48061 On ch=10 n=40 v=60
48067 On ch=10 n=40 v=0
48092 On ch=10 n=40 v=74
48098 On ch=10 n=40 v=0
48119 On ch=10 n=36 v=100
48121 On ch=10 n=40 v=122
48125 On ch=10 n=36 v=0
48127 On ch=10 n=40 v=0
48211 On ch=10 n=40 v=75
48217 On ch=10 n=40 v=0
48240 On ch=10 n=36 v=100
48240 On ch=10 n=40 v=114
48246 On ch=10 n=40 v=0
48246 On ch=10 n=36 v=0
48269 On ch=10 n=40 v=71
48275 On ch=10 n=40 v=0
48300 On ch=10 n=40 v=83
48306 On ch=10 n=40 v=0
48329 On ch=10 n=40 v=83
48335 On ch=10 n=40 v=0
48359 On ch=10 n=40 v=122
48365 On ch=10 n=40 v=0
48418 On ch=10 n=40 v=74
48424 On ch=10 n=40 v=0
48447 On ch=10 n=40 v=74
48453 On ch=10 n=40 v=0
48479 On ch=10 n=40 v=76
48479 On ch=10 n=36 v=111
48485 On ch=10 n=36 v=0
48485 On ch=10 n=40 v=0
48508 On ch=10 n=40 v=68
48514 On ch=10 n=40 v=0
48538 On ch=10 n=40 v=73
48544 On ch=10 n=40 v=0
48566 On ch=10 n=40 v=87
48572 On ch=10 n=40 v=0
48599 On ch=10 n=40 v=123
48601 On ch=10 n=36 v=95
48605 On ch=10 n=40 v=0
48607 On ch=10 n=36 v=0
48626 On ch=10 n=40 v=77
48632 On ch=10 n=40 v=0
48658 On ch=10 n=40 v=65
48664 On ch=10 n=40 v=0
48689 On ch=10 n=40 v=73
48695 On ch=10 n=40 v=0
48719 On ch=10 n=36 v=112
48719 On ch=10 n=40 v=120
48725 On ch=10 n=40 v=0
48725 On ch=10 n=36 v=0
48749 On ch=10 n=40 v=61
48755 On ch=10 n=40 v=0
48778 On ch=10 n=40 v=65
48784 On ch=10 n=40 v=0
48811 On ch=10 n=40 v=77
48817 On ch=10 n=40 v=0
48840 On ch=10 n=40 v=114
48846 On ch=10 n=40 v=0
48868 On ch=10 n=40 v=60
48874 On ch=10 n=40 v=0
48928 On ch=10 n=40 v=66
48934 On ch=10 n=40 v=0
48959 On ch=10 n=36 v=111
48962 On ch=10 n=40 v=79
48965 On ch=10 n=36 v=0
48968 On ch=10 n=40 v=0
49019 On ch=10 n=40 v=60
49020 On ch=10 n=36 v=112
49025 On ch=10 n=40 v=0
49026 On ch=10 n=36 v=0
49046 On ch=10 n=40 v=72
49052 On ch=10 n=40 v=0
49079 On ch=10 n=40 v=112
49085 On ch=10 n=40 v=0
49108 On ch=10 n=40 v=67
49114 On ch=10 n=40 v=0
49168 On ch=10 n=40 v=74
49174 On ch=10 n=40 v=0
49199 On ch=10 n=40 v=108
49205 On ch=10 n=40 v=0
49226 On ch=10 n=40 v=66
49232 On ch=10 n=40 v=0
49259 On ch=10 n=40 v=63
49265 On ch=10 n=40 v=0
49287 On ch=10 n=40 v=90
49293 On ch=10 n=40 v=0
49320 On ch=10 n=36 v=117
49321 On ch=10 n=40 v=122
49326 On ch=10 n=36 v=0
49327 On ch=10 n=40 v=0
49347 On ch=10 n=40 v=108
49353 On ch=10 n=40 v=0
49379 On ch=10 n=40 v=117
49385 On ch=10 n=40 v=0
49408 On ch=10 n=40 v=108
49414 On ch=10 n=40 v=0
49440 On ch=10 n=36 v=95
49440 On ch=10 n=49 v=93
49446 On ch=10 n=49 v=0
49446 On ch=10 n=36 v=0
49529 On ch=10 n=40 v=62
49535 On ch=10 n=40 v=0
49560 On ch=10 n=36 v=87
49562 On ch=10 n=40 v=108
49566 On ch=10 n=36 v=0
49568 On ch=10 n=40 v=0
49622 On ch=10 n=40 v=66
49628 On ch=10 n=40 v=0
49652 On ch=10 n=40 v=76
49658 On ch=10 n=40 v=0
49679 On ch=10 n=36 v=111
49683 On ch=10 n=40 v=66
49685 On ch=10 n=36 v=0
49689 On ch=10 n=40 v=0
49744 On ch=10 n=40 v=57
49750 On ch=10 n=40 v=0
49772 On ch=10 n=40 v=86
49778 On ch=10 n=40 v=0
49802 On ch=10 n=40 v=112
49808 On ch=10 n=40 v=0
49831 On ch=10 n=40 v=74
49837 On ch=10 n=40 v=0
49861 On ch=10 n=40 v=98
49867 On ch=10 n=40 v=0
49892 On ch=10 n=40 v=98
49898 On ch=10 n=40 v=0
49918 On ch=10 n=36 v=111
49922 On ch=10 n=40 v=76
49924 On ch=10 n=36 v=0
49928 On ch=10 n=40 v=0
49983 On ch=10 n=40 v=61
49989 On ch=10 n=40 v=0
50013 On ch=10 n=40 v=60
50019 On ch=10 n=40 v=0
50039 On ch=10 n=36 v=111
50043 On ch=10 n=40 v=93
50045 On ch=10 n=36 v=0
50049 On ch=10 n=40 v=0
50074 On ch=10 n=40 v=67
50080 On ch=10 n=40 v=0
50104 On ch=10 n=40 v=65
50110 On ch=10 n=40 v=0
50133 On ch=10 n=40 v=68
50139 On ch=10 n=40 v=0
50161 On ch=10 n=36 v=108
50167 On ch=10 n=36 v=0
50223 On ch=10 n=40 v=121
50229 On ch=10 n=40 v=0
50283 On ch=10 n=40 v=98
50289 On ch=10 n=40 v=0
50343 On ch=10 n=40 v=95
50349 On ch=10 n=40 v=0
50372 On ch=10 n=40 v=100
50378 On ch=10 n=40 v=0
50399 On ch=10 n=36 v=108
50401 On ch=10 n=40 v=122
50405 On ch=10 n=36 v=0
50407 On ch=10 n=40 v=0
50493 On ch=10 n=40 v=66
50499 On ch=10 n=40 v=0
50522 On ch=10 n=36 v=112
50522 On ch=10 n=40 v=60
50528 On ch=10 n=40 v=0
50528 On ch=10 n=36 v=0
50552 On ch=10 n=40 v=75
50558 On ch=10 n=40 v=0
50582 On ch=10 n=40 v=100
50588 On ch=10 n=40 v=0
50612 On ch=10 n=40 v=67
50618 On ch=10 n=40 v=0
50642 On ch=10 n=36 v=120
50643 On ch=10 n=40 v=70
50648 On ch=10 n=36 v=0
50649 On ch=10 n=40 v=0
50702 On ch=10 n=40 v=69
50708 On ch=10 n=40 v=0
50731 On ch=10 n=40 v=95
50737 On ch=10 n=40 v=0
50760 On ch=10 n=40 v=122
50766 On ch=10 n=40 v=0
50789 On ch=10 n=40 v=67
50795 On ch=10 n=40 v=0
50880 On ch=10 n=36 v=104
50886 On ch=10 n=36 v=0
50939 On ch=10 n=40 v=87
50945 On ch=10 n=40 v=0
50948 On ch=10 n=36 v=122
50954 On ch=10 n=36 v=0
50968 On ch=10 n=40 v=100
50974 On ch=10 n=40 v=0
50998 On ch=10 n=40 v=122
51004 On ch=10 n=40 v=0
51029 On ch=10 n=40 v=69
51035 On ch=10 n=40 v=0
51089 On ch=10 n=40 v=75
51095 On ch=10 n=40 v=0
51118 On ch=10 n=40 v=93
51124 On ch=10 n=40 v=0
51148 On ch=10 n=40 v=98
51154 On ch=10 n=40 v=0
51177 On ch=10 n=40 v=117
51183 On ch=10 n=40 v=0
51207 On ch=10 n=41 v=100
51213 On ch=10 n=41 v=0
51238 On ch=10 n=41 v=93
51240 On ch=10 n=36 v=112
51244 On ch=10 n=41 v=0
51246 On ch=10 n=36 v=0
51269 On ch=10 n=41 v=111
51275 On ch=10 n=41 v=0
51298 On ch=10 n=45 v=123
51304 On ch=10 n=45 v=0
51360 On ch=10 n=36 v=95
51362 On ch=10 n=57 v=77
51366 On ch=10 n=36 v=0
51368 On ch=10 n=57 v=0
51391 On ch=10 n=40 v=79
51397 On ch=10 n=40 v=0
51420 On ch=10 n=40 v=76
51426 On ch=10 n=40 v=0
51451 On ch=10 n=40 v=104
51457 On ch=10 n=40 v=0
51480 On ch=10 n=36 v=87
51481 On ch=10 n=40 v=122
51486 On ch=10 n=36 v=0
51487 On ch=10 n=40 v=0
51542 On ch=10 n=40 v=65
51548 On ch=10 n=40 v=0
51573 On ch=10 n=40 v=62
51579 On ch=10 n=40 v=0
51599 On ch=10 n=36 v=111
51605 On ch=10 n=36 v=0
51632 On ch=10 n=40 v=90
51638 On ch=10 n=40 v=0
51663 On ch=10 n=40 v=114
51669 On ch=10 n=40 v=0
51723 On ch=10 n=40 v=114
51729 On ch=10 n=40 v=0
51754 On ch=10 n=40 v=90
51760 On ch=10 n=40 v=0
51783 On ch=10 n=40 v=90
51789 On ch=10 n=40 v=0
51813 On ch=10 n=40 v=98
51819 On ch=10 n=40 v=0
51838 On ch=10 n=36 v=111
51843 On ch=10 n=40 v=122
51844 On ch=10 n=36 v=0
51849 On ch=10 n=40 v=0
51873 On ch=10 n=40 v=63
51879 On ch=10 n=40 v=0
51903 On ch=10 n=40 v=65
51909 On ch=10 n=40 v=0
51933 On ch=10 n=40 v=79
51939 On ch=10 n=40 v=0
51959 On ch=10 n=36 v=111
51962 On ch=10 n=40 v=117
51965 On ch=10 n=36 v=0
51968 On ch=10 n=40 v=0
52052 On ch=10 n=40 v=81
52058 On ch=10 n=40 v=0
52080 On ch=10 n=40 v=112
52081 On ch=10 n=36 v=108
52086 On ch=10 n=40 v=0
52087 On ch=10 n=36 v=0
52113 On ch=10 n=40 v=58
52119 On ch=10 n=40 v=0
52171 On ch=10 n=40 v=93
52177 On ch=10 n=40 v=0
52201 On ch=10 n=40 v=117
52207 On ch=10 n=40 v=0
52231 On ch=10 n=40 v=64
52237 On ch=10 n=40 v=0
52259 On ch=10 n=40 v=98
52265 On ch=10 n=40 v=0
52288 On ch=10 n=40 v=117
52294 On ch=10 n=40 v=0
52318 On ch=10 n=40 v=123
52319 On ch=10 n=36 v=108
52324 On ch=10 n=40 v=0
52325 On ch=10 n=36 v=0
52348 On ch=10 n=40 v=86
52354 On ch=10 n=40 v=0
52379 On ch=10 n=40 v=59
52385 On ch=10 n=40 v=0
52411 On ch=10 n=40 v=83
52417 On ch=10 n=40 v=0
52441 On ch=10 n=40 v=93
52442 On ch=10 n=36 v=112
52447 On ch=10 n=40 v=0
52448 On ch=10 n=36 v=0
52473 On ch=10 n=40 v=71
52479 On ch=10 n=40 v=0
52502 On ch=10 n=40 v=66
52508 On ch=10 n=40 v=0
52533 On ch=10 n=40 v=85
52539 On ch=10 n=40 v=0
52562 On ch=10 n=36 v=120
52562 On ch=10 n=40 v=114
52568 On ch=10 n=40 v=0
52568 On ch=10 n=36 v=0
52592 On ch=10 n=40 v=66
52598 On ch=10 n=40 v=0
52623 On ch=10 n=40 v=61
52629 On ch=10 n=40 v=0
52651 On ch=10 n=40 v=76
52657 On ch=10 n=40 v=0
52682 On ch=10 n=40 v=117
52688 On ch=10 n=40 v=0
52712 On ch=10 n=40 v=73
52718 On ch=10 n=40 v=0
52743 On ch=10 n=40 v=63
52749 On ch=10 n=40 v=0
52774 On ch=10 n=40 v=86
52780 On ch=10 n=40 v=0
52800 On ch=10 n=36 v=104
52803 On ch=10 n=40 v=122
52806 On ch=10 n=36 v=0
52809 On ch=10 n=40 v=0
52832 On ch=10 n=40 v=75
52838 On ch=10 n=40 v=0
52863 On ch=10 n=40 v=85
52868 On ch=10 n=36 v=122
52869 On ch=10 n=40 v=0
52874 On ch=10 n=36 v=0
52893 On ch=10 n=40 v=81
52899 On ch=10 n=40 v=0
52922 On ch=10 n=40 v=111
52928 On ch=10 n=40 v=0
52953 On ch=10 n=40 v=87
52959 On ch=10 n=40 v=0
52981 On ch=10 n=40 v=98
52987 On ch=10 n=40 v=0
53012 On ch=10 n=40 v=104
53018 On ch=10 n=40 v=0
53041 On ch=10 n=47 v=123
53047 On ch=10 n=47 v=0
53069 On ch=10 n=47 v=122
53075 On ch=10 n=47 v=0
53099 On ch=10 n=47 v=114
53099 On ch=10 n=57 v=95
53105 On ch=10 n=57 v=0
53105 On ch=10 n=47 v=0
53129 On ch=10 n=45 v=111
53135 On ch=10 n=45 v=0
53159 On ch=10 n=45 v=122
53160 On ch=10 n=36 v=112
53165 On ch=10 n=45 v=0
53166 On ch=10 n=36 v=0
53189 On ch=10 n=43 v=108
53195 On ch=10 n=43 v=0
53218 On ch=10 n=45 v=98
53224 On ch=10 n=45 v=0
53248 On ch=10 n=41 v=120
53254 On ch=10 n=41 v=0
53278 On ch=10 n=41 v=121
53278 On ch=10 n=49 v=93
53280 On ch=10 n=36 v=95
53284 On ch=10 n=49 v=0
53284 On ch=10 n=41 v=0
53286 On ch=10 n=36 v=0
53309 On ch=10 n=40 v=100
53315 On ch=10 n=40 v=0
53339 On ch=10 n=40 v=77
53345 On ch=10 n=40 v=0
53371 On ch=10 n=40 v=90
53377 On ch=10 n=40 v=0
53400 On ch=10 n=36 v=87
53401 On ch=10 n=40 v=122
53406 On ch=10 n=36 v=0
53407 On ch=10 n=40 v=0
53432 On ch=10 n=40 v=70
53438 On ch=10 n=40 v=0
53492 On ch=10 n=40 v=86
53498 On ch=10 n=40 v=0
53519 On ch=10 n=36 v=111
53521 On ch=10 n=40 v=81
53525 On ch=10 n=36 v=0
53527 On ch=10 n=40 v=0
53611 On ch=10 n=40 v=108
53617 On ch=10 n=40 v=0
53641 On ch=10 n=40 v=122
53647 On ch=10 n=40 v=0
53672 On ch=10 n=40 v=60
53678 On ch=10 n=40 v=0
53733 On ch=10 n=40 v=93
53739 On ch=10 n=40 v=0
53758 On ch=10 n=36 v=111
53762 On ch=10 n=40 v=68
53764 On ch=10 n=36 v=0
53768 On ch=10 n=40 v=0
53851 On ch=10 n=40 v=111
53857 On ch=10 n=40 v=0
53879 On ch=10 n=36 v=111
53882 On ch=10 n=40 v=123
53885 On ch=10 n=36 v=0
53888 On ch=10 n=40 v=0
53943 On ch=10 n=40 v=64
53949 On ch=10 n=40 v=0
53973 On ch=10 n=40 v=74
53979 On ch=10 n=40 v=0
54001 On ch=10 n=36 v=108
54003 On ch=10 n=40 v=76
54007 On ch=10 n=36 v=0
54009 On ch=10 n=40 v=0
54032 On ch=10 n=40 v=76
54038 On ch=10 n=40 v=0
54061 On ch=10 n=40 v=86
54067 On ch=10 n=40 v=0
54090 On ch=10 n=40 v=95
54096 On ch=10 n=40 v=0
54119 On ch=10 n=40 v=120
54125 On ch=10 n=40 v=0
54151 On ch=10 n=40 v=100
54157 On ch=10 n=40 v=0
54179 On ch=10 n=40 v=121
54185 On ch=10 n=40 v=0
54209 On ch=10 n=40 v=117
54215 On ch=10 n=40 v=0
54239 On ch=10 n=36 v=108
54241 On ch=10 n=40 v=59
54245 On ch=10 n=36 v=0
54247 On ch=10 n=40 v=0
54271 On ch=10 n=40 v=85
54277 On ch=10 n=40 v=0
54300 On ch=10 n=40 v=93
54306 On ch=10 n=40 v=0
54329 On ch=10 n=40 v=108
54335 On ch=10 n=40 v=0
54360 On ch=10 n=40 v=123
54362 On ch=10 n=36 v=112
54366 On ch=10 n=40 v=0
54368 On ch=10 n=36 v=0
54393 On ch=10 n=40 v=60
54399 On ch=10 n=40 v=0
54480 On ch=10 n=40 v=86
54482 On ch=10 n=36 v=120
54486 On ch=10 n=40 v=0
54488 On ch=10 n=36 v=0
54509 On ch=10 n=40 v=111
54515 On ch=10 n=40 v=0
54541 On ch=10 n=40 v=123
54547 On ch=10 n=40 v=0
54572 On ch=10 n=40 v=63
54578 On ch=10 n=40 v=0
54603 On ch=10 n=40 v=72
54609 On ch=10 n=40 v=0
54661 On ch=10 n=40 v=86
54667 On ch=10 n=40 v=0
54690 On ch=10 n=40 v=120
54696 On ch=10 n=40 v=0
54720 On ch=10 n=36 v=104
54721 On ch=10 n=40 v=123
54726 On ch=10 n=36 v=0
54727 On ch=10 n=40 v=0
54751 On ch=10 n=40 v=100
54757 On ch=10 n=40 v=0
54779 On ch=10 n=40 v=108
54785 On ch=10 n=40 v=0
54788 On ch=10 n=36 v=122
54794 On ch=10 n=36 v=0
54811 On ch=10 n=40 v=108
54817 On ch=10 n=40 v=0
54839 On ch=10 n=40 v=117
54845 On ch=10 n=40 v=0
54869 On ch=10 n=40 v=108
54875 On ch=10 n=40 v=0
54900 On ch=10 n=41 v=122
54901 On ch=10 n=57 v=104
54906 On ch=10 n=41 v=0
54907 On ch=10 n=57 v=0
54931 On ch=10 n=41 v=66
54937 On ch=10 n=41 v=0
54991 On ch=10 n=41 v=117
54997 On ch=10 n=41 v=0
55019 On ch=10 n=45 v=123
55025 On ch=10 n=45 v=0
55051 On ch=10 n=41 v=114
55057 On ch=10 n=41 v=0
55079 On ch=10 n=48 v=123
55080 On ch=10 n=36 v=112
55085 On ch=10 n=48 v=0
55086 On ch=10 n=36 v=0
55141 On ch=10 n=45 v=117
55147 On ch=10 n=45 v=0
55171 On ch=10 n=41 v=122
55177 On ch=10 n=41 v=0
55200 On ch=10 n=36 v=95
55202 On ch=10 n=57 v=98
55206 On ch=10 n=36 v=0
55208 On ch=10 n=57 v=0
55230 On ch=10 n=40 v=114
55236 On ch=10 n=40 v=0
55261 On ch=10 n=40 v=122
55267 On ch=10 n=40 v=0
55291 On ch=10 n=40 v=117
55297 On ch=10 n=40 v=0
55320 On ch=10 n=36 v=87
55322 On ch=10 n=41 v=122
55326 On ch=10 n=36 v=0
55328 On ch=10 n=41 v=0
55383 On ch=10 n=40 v=70
55389 On ch=10 n=40 v=0
55414 On ch=10 n=40 v=95
55420 On ch=10 n=40 v=0
55439 On ch=10 n=36 v=111
55443 On ch=10 n=40 v=108
55445 On ch=10 n=36 v=0
55449 On ch=10 n=40 v=0
55473 On ch=10 n=40 v=86
55479 On ch=10 n=40 v=0
55502 On ch=10 n=40 v=121
55508 On ch=10 n=40 v=0
55533 On ch=10 n=40 v=74
55539 On ch=10 n=40 v=0
55562 On ch=10 n=40 v=100
55568 On ch=10 n=40 v=0
55593 On ch=10 n=40 v=98
55599 On ch=10 n=40 v=0
55678 On ch=10 n=36 v=111
55684 On ch=10 n=36 v=0
55706 On ch=10 n=40 v=122
55712 On ch=10 n=40 v=0
55738 On ch=10 n=40 v=60
55744 On ch=10 n=40 v=0
55774 On ch=10 n=40 v=111
55780 On ch=10 n=40 v=0
55799 On ch=10 n=36 v=111
55803 On ch=10 n=40 v=121
55805 On ch=10 n=36 v=0
55809 On ch=10 n=40 v=0
55921 On ch=10 n=36 v=108
55923 On ch=10 n=40 v=98
55927 On ch=10 n=36 v=0
55929 On ch=10 n=40 v=0
55981 On ch=10 n=40 v=74
55987 On ch=10 n=40 v=0
56011 On ch=10 n=40 v=100
56017 On ch=10 n=40 v=0
56041 On ch=10 n=40 v=123
56042 On ch=10 n=49 v=57
56047 On ch=10 n=40 v=0
56048 On ch=10 n=49 v=0
56072 On ch=10 n=40 v=87
56078 On ch=10 n=40 v=0
56101 On ch=10 n=40 v=72
56107 On ch=10 n=40 v=0
56133 On ch=10 n=40 v=74
56139 On ch=10 n=40 v=0
56159 On ch=10 n=36 v=108
56165 On ch=10 n=36 v=0
56193 On ch=10 n=40 v=66
56199 On ch=10 n=40 v=0
56220 On ch=10 n=40 v=72
56226 On ch=10 n=40 v=0
56249 On ch=10 n=40 v=112
56255 On ch=10 n=40 v=0
56282 On ch=10 n=36 v=112
56282 On ch=10 n=40 v=124
56288 On ch=10 n=40 v=0
56288 On ch=10 n=36 v=0
56311 On ch=10 n=40 v=87
56317 On ch=10 n=40 v=0
56342 On ch=10 n=40 v=100
56348 On ch=10 n=40 v=0
56372 On ch=10 n=40 v=111
56378 On ch=10 n=40 v=0
56402 On ch=10 n=36 v=120
56408 On ch=10 n=36 v=0
56433 On ch=10 n=40 v=58
56439 On ch=10 n=40 v=0
56490 On ch=10 n=40 v=112
56496 On ch=10 n=40 v=0
56522 On ch=10 n=40 v=124
56528 On ch=10 n=40 v=0
56552 On ch=10 n=40 v=85
56558 On ch=10 n=40 v=0
56582 On ch=10 n=40 v=85
56588 On ch=10 n=40 v=0
56612 On ch=10 n=40 v=85
56618 On ch=10 n=40 v=0
56640 On ch=10 n=36 v=104
56642 On ch=10 n=40 v=72
56646 On ch=10 n=36 v=0
56648 On ch=10 n=40 v=0
56673 On ch=10 n=40 v=81
56679 On ch=10 n=40 v=0
56702 On ch=10 n=40 v=68
56708 On ch=10 n=40 v=0
56708 On ch=10 n=36 v=122
56714 On ch=10 n=36 v=0
56731 On ch=10 n=40 v=111
56737 On ch=10 n=40 v=0
56763 On ch=10 n=40 v=123
56769 On ch=10 n=40 v=0
56792 On ch=10 n=40 v=93
56798 On ch=10 n=40 v=0
56822 On ch=10 n=40 v=112
56828 On ch=10 n=40 v=0
56851 On ch=10 n=40 v=111
56857 On ch=10 n=40 v=0
56880 On ch=10 n=45 v=122
56886 On ch=10 n=45 v=0
56938 On ch=10 n=45 v=120
56944 On ch=10 n=45 v=0
56969 On ch=10 n=43 v=120
56975 On ch=10 n=43 v=0
56999 On ch=10 n=48 v=122
57000 On ch=10 n=36 v=112
57005 On ch=10 n=48 v=0
57006 On ch=10 n=36 v=0
57031 On ch=10 n=41 v=95
57037 On ch=10 n=41 v=0
57059 On ch=10 n=45 v=90
57065 On ch=10 n=45 v=0
57090 On ch=10 n=41 v=111
57096 On ch=10 n=41 v=0
57119 On ch=10 n=49 v=95
57120 On ch=10 n=36 v=95
57121 On ch=10 n=41 v=122
57125 On ch=10 n=49 v=0
57126 On ch=10 n=36 v=0
57127 On ch=10 n=41 v=0
57151 On ch=10 n=40 v=77
57157 On ch=10 n=40 v=0
57182 On ch=10 n=40 v=64
57188 On ch=10 n=40 v=0
57210 On ch=10 n=40 v=112
57216 On ch=10 n=40 v=0
57240 On ch=10 n=36 v=87
57241 On ch=10 n=40 v=123
57246 On ch=10 n=36 v=0
57247 On ch=10 n=40 v=0
57273 On ch=10 n=40 v=74
57279 On ch=10 n=40 v=0
57334 On ch=10 n=40 v=74
57340 On ch=10 n=40 v=0
57359 On ch=10 n=36 v=111
57365 On ch=10 n=36 v=0
57422 On ch=10 n=40 v=64
57428 On ch=10 n=40 v=0
57448 On ch=10 n=40 v=114
57454 On ch=10 n=40 v=0
57481 On ch=10 n=40 v=123
57487 On ch=10 n=40 v=0
57511 On ch=10 n=40 v=83
57517 On ch=10 n=40 v=0
57572 On ch=10 n=40 v=111
57578 On ch=10 n=40 v=0
57598 On ch=10 n=36 v=111
57602 On ch=10 n=40 v=124
57604 On ch=10 n=36 v=0
57608 On ch=10 n=40 v=0
57662 On ch=10 n=40 v=81
57668 On ch=10 n=40 v=0
57693 On ch=10 n=40 v=81
57699 On ch=10 n=40 v=0
57719 On ch=10 n=36 v=111
57723 On ch=10 n=40 v=79
57725 On ch=10 n=36 v=0
57729 On ch=10 n=40 v=0
57808 On ch=10 n=40 v=114
57814 On ch=10 n=40 v=0
57841 On ch=10 n=36 v=108
57841 On ch=10 n=40 v=122
57847 On ch=10 n=40 v=0
57847 On ch=10 n=36 v=0
57871 On ch=10 n=40 v=83
57877 On ch=10 n=40 v=0
57902 On ch=10 n=40 v=60
57908 On ch=10 n=40 v=0
57932 On ch=10 n=40 v=90
57938 On ch=10 n=40 v=0
58051 On ch=10 n=40 v=104
58057 On ch=10 n=40 v=0
58079 On ch=10 n=36 v=108
58082 On ch=10 n=40 v=122
58085 On ch=10 n=36 v=0
58088 On ch=10 n=40 v=0
58112 On ch=10 n=40 v=81
58118 On ch=10 n=40 v=0
58142 On ch=10 n=40 v=75
58148 On ch=10 n=40 v=0
58173 On ch=10 n=40 v=100
58179 On ch=10 n=40 v=0
58202 On ch=10 n=36 v=112
58208 On ch=10 n=36 v=0
58233 On ch=10 n=40 v=58
58239 On ch=10 n=40 v=0
58291 On ch=10 n=40 v=98
58297 On ch=10 n=40 v=0
58321 On ch=10 n=40 v=123
58322 On ch=10 n=36 v=120
58327 On ch=10 n=40 v=0
58328 On ch=10 n=36 v=0
58352 On ch=10 n=40 v=85
58358 On ch=10 n=40 v=0
58383 On ch=10 n=40 v=72
58389 On ch=10 n=40 v=0
58412 On ch=10 n=40 v=98
58418 On ch=10 n=40 v=0
58442 On ch=10 n=40 v=108
58448 On ch=10 n=40 v=0
58473 On ch=10 n=40 v=95
58479 On ch=10 n=40 v=0
58501 On ch=10 n=40 v=124
58507 On ch=10 n=40 v=0
58533 On ch=10 n=40 v=75
58539 On ch=10 n=40 v=0
58560 On ch=10 n=36 v=104
58562 On ch=10 n=40 v=77
58566 On ch=10 n=36 v=0
58568 On ch=10 n=40 v=0
58592 On ch=10 n=40 v=112
58598 On ch=10 n=40 v=0
58628 On ch=10 n=36 v=122
58634 On ch=10 n=36 v=0
58653 On ch=10 n=40 v=112
58659 On ch=10 n=40 v=0
58679 On ch=10 n=40 v=123
58685 On ch=10 n=40 v=0
58741 On ch=10 n=40 v=122
58747 On ch=10 n=40 v=0
58771 On ch=10 n=40 v=114
58777 On ch=10 n=40 v=0
58828 On ch=10 n=40 v=120
58834 On ch=10 n=40 v=0
58859 On ch=10 n=40 v=122
58865 On ch=10 n=40 v=0
58888 On ch=10 n=40 v=121
58894 On ch=10 n=40 v=0
58919 On ch=10 n=40 v=125
58920 On ch=10 n=36 v=112
58925 On ch=10 n=40 v=0
58926 On ch=10 n=36 v=0
58950 On ch=10 n=40 v=87
58956 On ch=10 n=40 v=0
58979 On ch=10 n=40 v=87
58985 On ch=10 n=40 v=0
59009 On ch=10 n=40 v=121
59015 On ch=10 n=40 v=0
59038 On ch=10 n=57 v=81
59039 On ch=10 n=40 v=124
59040 On ch=10 n=36 v=95
59044 On ch=10 n=57 v=0
59045 On ch=10 n=40 v=0
59046 On ch=10 n=36 v=0
59071 On ch=10 n=40 v=90
59077 On ch=10 n=40 v=0
59102 On ch=10 n=40 v=67
59108 On ch=10 n=40 v=0
59131 On ch=10 n=40 v=108
59137 On ch=10 n=40 v=0
59160 On ch=10 n=36 v=87
59161 On ch=10 n=40 v=124
59166 On ch=10 n=36 v=0
59167 On ch=10 n=40 v=0
59279 On ch=10 n=36 v=111
59283 On ch=10 n=40 v=98
59285 On ch=10 n=36 v=0
59289 On ch=10 n=40 v=0
59312 On ch=10 n=40 v=120
59318 On ch=10 n=40 v=0
59342 On ch=10 n=40 v=124
59348 On ch=10 n=40 v=0
59459 On ch=10 n=40 v=98
59465 On ch=10 n=40 v=0
59487 On ch=10 n=40 v=111
59493 On ch=10 n=40 v=0
59518 On ch=10 n=36 v=111
59519 On ch=10 n=40 v=123
59524 On ch=10 n=36 v=0
59525 On ch=10 n=40 v=0
59551 On ch=10 n=40 v=79
59557 On ch=10 n=40 v=0
59581 On ch=10 n=40 v=86
59587 On ch=10 n=40 v=0
59611 On ch=10 n=40 v=112
59617 On ch=10 n=40 v=0
59639 On ch=10 n=36 v=111
59641 On ch=10 n=40 v=123
59645 On ch=10 n=36 v=0
59647 On ch=10 n=40 v=0
59673 On ch=10 n=40 v=64
59679 On ch=10 n=40 v=0
59703 On ch=10 n=40 v=60
59709 On ch=10 n=40 v=0
59733 On ch=10 n=40 v=98
59739 On ch=10 n=40 v=0
59761 On ch=10 n=36 v=108
59762 On ch=10 n=40 v=114
59767 On ch=10 n=36 v=0
59768 On ch=10 n=40 v=0
59792 On ch=10 n=40 v=112
59798 On ch=10 n=40 v=0
59821 On ch=10 n=40 v=124
59827 On ch=10 n=40 v=0
59853 On ch=10 n=40 v=76
59859 On ch=10 n=40 v=0
59883 On ch=10 n=40 v=67
59889 On ch=10 n=40 v=0
59912 On ch=10 n=40 v=111
59918 On ch=10 n=40 v=0
59942 On ch=10 n=40 v=122
59948 On ch=10 n=40 v=0
59972 On ch=10 n=40 v=111
59978 On ch=10 n=40 v=0
59999 On ch=10 n=36 v=108
60001 On ch=10 n=40 v=125
60005 On ch=10 n=36 v=0
60007 On ch=10 n=40 v=0
60092 On ch=10 n=40 v=86
60098 On ch=10 n=40 v=0
60122 On ch=10 n=36 v=112
60128 On ch=10 n=36 v=0
60213 On ch=10 n=40 v=86
60219 On ch=10 n=40 v=0
60241 On ch=10 n=40 v=122
60242 On ch=10 n=36 v=120
60247 On ch=10 n=40 v=0
60248 On ch=10 n=36 v=0
60272 On ch=10 n=40 v=71
60278 On ch=10 n=40 v=0
60301 On ch=10 n=40 v=76
60307 On ch=10 n=40 v=0
60331 On ch=10 n=40 v=112
60337 On ch=10 n=40 v=0
60360 On ch=10 n=40 v=122
60366 On ch=10 n=40 v=0
60392 On ch=10 n=40 v=79
60398 On ch=10 n=40 v=0
60422 On ch=10 n=40 v=64
60428 On ch=10 n=40 v=0
60453 On ch=10 n=40 v=95
60459 On ch=10 n=40 v=0
60480 On ch=10 n=36 v=104
60482 On ch=10 n=40 v=81
60486 On ch=10 n=36 v=0
60488 On ch=10 n=40 v=0
60512 On ch=10 n=40 v=111
60518 On ch=10 n=40 v=0
60542 On ch=10 n=40 v=123
60548 On ch=10 n=40 v=0
60548 On ch=10 n=36 v=122
60554 On ch=10 n=36 v=0
60572 On ch=10 n=40 v=112
60578 On ch=10 n=40 v=0
60601 On ch=10 n=40 v=120
60607 On ch=10 n=40 v=0
60632 On ch=10 n=40 v=104
60638 On ch=10 n=40 v=0
60659 On ch=10 n=41 v=122
60665 On ch=10 n=41 v=0
60719 On ch=10 n=45 v=112
60725 On ch=10 n=45 v=0
60751 On ch=10 n=41 v=122
60757 On ch=10 n=41 v=0
60778 On ch=10 n=45 v=123
60784 On ch=10 n=45 v=0
60809 On ch=10 n=41 v=120
60815 On ch=10 n=41 v=0
60840 On ch=10 n=36 v=112
60841 On ch=10 n=48 v=112
60846 On ch=10 n=36 v=0
60847 On ch=10 n=48 v=0
60898 On ch=10 n=48 v=120
60904 On ch=10 n=48 v=0
60929 On ch=10 n=47 v=77
60935 On ch=10 n=47 v=0
60958 On ch=10 n=43 v=124
60958 On ch=10 n=49 v=90
60960 On ch=10 n=36 v=95
60964 On ch=10 n=49 v=0
60964 On ch=10 n=43 v=0
60966 On ch=10 n=36 v=0
61022 On ch=10 n=40 v=100
61028 On ch=10 n=40 v=0
61052 On ch=10 n=40 v=121
61058 On ch=10 n=40 v=0
61080 On ch=10 n=36 v=87
61080 On ch=10 n=40 v=123
61086 On ch=10 n=40 v=0
61086 On ch=10 n=36 v=0
61142 On ch=10 n=40 v=95
61148 On ch=10 n=40 v=0
61173 On ch=10 n=40 v=100
61179 On ch=10 n=40 v=0
61199 On ch=10 n=36 v=111
61203 On ch=10 n=40 v=81
61205 On ch=10 n=36 v=0
61209 On ch=10 n=40 v=0
61233 On ch=10 n=40 v=114
61239 On ch=10 n=40 v=0
61263 On ch=10 n=40 v=123
61269 On ch=10 n=40 v=0
61323 On ch=10 n=40 v=121
61329 On ch=10 n=40 v=0
61354 On ch=10 n=40 v=120
61360 On ch=10 n=40 v=0
61383 On ch=10 n=45 v=122
61389 On ch=10 n=45 v=0
61438 On ch=10 n=36 v=111
61443 On ch=10 n=40 v=108
61444 On ch=10 n=36 v=0
61449 On ch=10 n=40 v=0
61474 On ch=10 n=40 v=95
61480 On ch=10 n=40 v=0
61503 On ch=10 n=40 v=117
61509 On ch=10 n=40 v=0
61556 On ch=10 n=40 v=98
61556 On ch=10 n=49 v=87
61559 On ch=10 n=36 v=111
61562 On ch=10 n=49 v=0
61562 On ch=10 n=40 v=0
61562 On ch=10 n=40 v=122
61565 On ch=10 n=36 v=0
61568 On ch=10 n=40 v=0
61622 On ch=10 n=40 v=98
61628 On ch=10 n=40 v=0
61653 On ch=10 n=40 v=108
61659 On ch=10 n=40 v=0
61681 On ch=10 n=36 v=108
61684 On ch=10 n=40 v=79
61687 On ch=10 n=36 v=0
61690 On ch=10 n=40 v=0
61736 On ch=10 n=40 v=58
61742 On ch=10 n=40 v=0
61743 On ch=10 n=40 v=76
61749 On ch=10 n=40 v=0
61773 On ch=10 n=40 v=98
61779 On ch=10 n=40 v=0
61803 On ch=10 n=40 v=122
61809 On ch=10 n=40 v=0
61834 On ch=10 n=40 v=77
61840 On ch=10 n=40 v=0
61863 On ch=10 n=40 v=70
61869 On ch=10 n=40 v=0
61894 On ch=10 n=40 v=67
61900 On ch=10 n=40 v=0
61919 On ch=10 n=36 v=108
61925 On ch=10 n=36 v=0
61979 On ch=10 n=40 v=81
61985 On ch=10 n=40 v=0
62008 On ch=10 n=40 v=108
62014 On ch=10 n=40 v=0
62039 On ch=10 n=57 v=83
62041 On ch=10 n=40 v=124
62042 On ch=10 n=36 v=112
62045 On ch=10 n=57 v=0
62047 On ch=10 n=40 v=0
62048 On ch=10 n=36 v=0
62071 On ch=10 n=40 v=90
62077 On ch=10 n=40 v=0
62101 On ch=10 n=40 v=85
62107 On ch=10 n=40 v=0
62133 On ch=10 n=40 v=81
62139 On ch=10 n=40 v=0
62161 On ch=10 n=40 v=59
62162 On ch=10 n=36 v=120
62167 On ch=10 n=40 v=0
62168 On ch=10 n=36 v=0
62193 On ch=10 n=40 v=66
62199 On ch=10 n=40 v=0
62220 On ch=10 n=40 v=71
62226 On ch=10 n=40 v=0
62249 On ch=10 n=40 v=98
62255 On ch=10 n=40 v=0
62280 On ch=10 n=40 v=121
62286 On ch=10 n=40 v=0
62340 On ch=10 n=40 v=65
62346 On ch=10 n=40 v=0
62369 On ch=10 n=40 v=90
62375 On ch=10 n=40 v=0
62400 On ch=10 n=36 v=104
62401 On ch=10 n=40 v=111
62406 On ch=10 n=36 v=0
62407 On ch=10 n=40 v=0
62429 On ch=10 n=40 v=111
62435 On ch=10 n=40 v=0
62459 On ch=10 n=40 v=124
62465 On ch=10 n=40 v=0
62468 On ch=10 n=36 v=122
62474 On ch=10 n=36 v=0
62491 On ch=10 n=40 v=98
62497 On ch=10 n=40 v=0
62521 On ch=10 n=40 v=108
62527 On ch=10 n=40 v=0
62552 On ch=10 n=40 v=83
62558 On ch=10 n=40 v=0
62579 On ch=10 n=41 v=124
62581 On ch=10 n=43 v=112
62585 On ch=10 n=41 v=0
62587 On ch=10 n=43 v=0
62639 On ch=10 n=45 v=122
62645 On ch=10 n=45 v=0
62671 On ch=10 n=45 v=122
62677 On ch=10 n=45 v=0
62699 On ch=10 n=45 v=122
62705 On ch=10 n=45 v=0
62760 On ch=10 n=36 v=112
62760 On ch=10 n=48 v=122
62760 On ch=10 n=57 v=93
62766 On ch=10 n=57 v=0
62766 On ch=10 n=48 v=0
62766 On ch=10 n=36 v=0
62791 On ch=10 n=47 v=122
62797 On ch=10 n=47 v=0
62820 On ch=10 n=48 v=122
62826 On ch=10 n=48 v=0
62851 On ch=10 n=43 v=120
62857 On ch=10 n=43 v=0
62880 On ch=10 n=36 v=95
62880 On ch=10 n=43 v=122
62880 On ch=10 n=49 v=86
62886 On ch=10 n=49 v=0
62886 On ch=10 n=43 v=0
62886 On ch=10 n=36 v=0
62911 On ch=10 n=41 v=121
62917 On ch=10 n=41 v=0
62940 On ch=10 n=40 v=122
62946 On ch=10 n=40 v=0
63000 On ch=10 n=36 v=87
63002 On ch=10 n=40 v=114
63006 On ch=10 n=36 v=0
63008 On ch=10 n=40 v=0
63033 On ch=10 n=40 v=100
63039 On ch=10 n=40 v=0
63063 On ch=10 n=40 v=122
63069 On ch=10 n=40 v=0
63119 On ch=10 n=36 v=111
63123 On ch=10 n=40 v=86
63125 On ch=10 n=36 v=0
63129 On ch=10 n=40 v=0
63152 On ch=10 n=40 v=117
63158 On ch=10 n=40 v=0
63183 On ch=10 n=40 v=122
63189 On ch=10 n=40 v=0
63243 On ch=10 n=40 v=114
63249 On ch=10 n=40 v=0
63273 On ch=10 n=40 v=121
63279 On ch=10 n=40 v=0
63303 On ch=10 n=40 v=122
63309 On ch=10 n=40 v=0
63333 On ch=10 n=40 v=104
63339 On ch=10 n=40 v=0
63358 On ch=10 n=36 v=111
63363 On ch=10 n=40 v=117
63364 On ch=10 n=36 v=0
63369 On ch=10 n=40 v=0
63394 On ch=10 n=40 v=75
63400 On ch=10 n=40 v=0
63422 On ch=10 n=40 v=81
63428 On ch=10 n=40 v=0
63453 On ch=10 n=40 v=108
63459 On ch=10 n=40 v=0
63479 On ch=10 n=36 v=111
63482 On ch=10 n=40 v=122
63485 On ch=10 n=36 v=0
63488 On ch=10 n=40 v=0
63512 On ch=10 n=40 v=74
63518 On ch=10 n=40 v=0
63542 On ch=10 n=40 v=62
63548 On ch=10 n=40 v=0
63573 On ch=10 n=40 v=64
63579 On ch=10 n=40 v=0
63601 On ch=10 n=36 v=108
63602 On ch=10 n=40 v=90
63607 On ch=10 n=36 v=0
63608 On ch=10 n=40 v=0
63631 On ch=10 n=40 v=111
63637 On ch=10 n=40 v=0
63659 On ch=10 n=40 v=123
63665 On ch=10 n=40 v=0
63693 On ch=10 n=40 v=81
63699 On ch=10 n=40 v=0
63779 On ch=10 n=40 v=98
63785 On ch=10 n=40 v=0
63810 On ch=10 n=40 v=111
63816 On ch=10 n=40 v=0
63839 On ch=10 n=36 v=108
63839 On ch=10 n=40 v=122
63845 On ch=10 n=40 v=0
63845 On ch=10 n=36 v=0
63871 On ch=10 n=40 v=93
63877 On ch=10 n=40 v=0
63901 On ch=10 n=40 v=76
63907 On ch=10 n=40 v=0
63933 On ch=10 n=40 v=111
63939 On ch=10 n=40 v=0
63961 On ch=10 n=40 v=122
63962 On ch=10 n=36 v=112
63967 On ch=10 n=40 v=0
63968 On ch=10 n=36 v=0
64053 On ch=10 n=40 v=104
64059 On ch=10 n=40 v=0
64082 On ch=10 n=36 v=120
64082 On ch=10 n=40 v=121
64088 On ch=10 n=40 v=0
64088 On ch=10 n=36 v=0
64112 On ch=10 n=40 v=111
64118 On ch=10 n=40 v=0
64141 On ch=10 n=40 v=122
64147 On ch=10 n=40 v=0
64173 On ch=10 n=40 v=81
64179 On ch=10 n=40 v=0
64203 On ch=10 n=40 v=68
64209 On ch=10 n=40 v=0
64233 On ch=10 n=40 v=76
64239 On ch=10 n=40 v=0
64261 On ch=10 n=40 v=104
64267 On ch=10 n=40 v=0
64290 On ch=10 n=40 v=114
64296 On ch=10 n=40 v=0
64320 On ch=10 n=36 v=104
64321 On ch=10 n=40 v=123
64326 On ch=10 n=36 v=0
64327 On ch=10 n=40 v=0
64349 On ch=10 n=40 v=104
64355 On ch=10 n=40 v=0
64379 On ch=10 n=40 v=77
64385 On ch=10 n=40 v=0
64388 On ch=10 n=36 v=122
64394 On ch=10 n=36 v=0
64437 On ch=10 n=40 v=100
64443 On ch=10 n=40 v=0
64468 On ch=10 n=40 v=117
64474 On ch=10 n=40 v=0
64497 On ch=10 n=40 v=122
64503 On ch=10 n=40 v=0
64528 On ch=10 n=40 v=90
64534 On ch=10 n=40 v=0
64557 On ch=10 n=40 v=74
64563 On ch=10 n=40 v=0
64589 On ch=10 n=40 v=95
64595 On ch=10 n=40 v=0
64618 On ch=10 n=40 v=122
64624 On ch=10 n=40 v=0
64649 On ch=10 n=40 v=121
64655 On ch=10 n=40 v=0
64679 On ch=10 n=43 v=117
64680 On ch=10 n=36 v=112
64685 On ch=10 n=43 v=0
64686 On ch=10 n=36 v=0
64708 On ch=10 n=40 v=108
64714 On ch=10 n=40 v=0
64738 On ch=10 n=41 v=85
64744 On ch=10 n=41 v=0
64768 On ch=10 n=40 v=112
64774 On ch=10 n=40 v=0
64798 On ch=10 n=40 v=121
64799 On ch=10 n=57 v=93
64800 On ch=10 n=36 v=95
64804 On ch=10 n=40 v=0
64805 On ch=10 n=57 v=0
64806 On ch=10 n=36 v=0
64829 On ch=10 n=40 v=114
64835 On ch=10 n=40 v=0
64859 On ch=10 n=40 v=98
64865 On ch=10 n=40 v=0
64889 On ch=10 n=40 v=112
64895 On ch=10 n=40 v=0
64920 On ch=10 n=36 v=87
64921 On ch=10 n=40 v=123
64926 On ch=10 n=36 v=0
64927 On ch=10 n=40 v=0
64950 On ch=10 n=40 v=93
64956 On ch=10 n=40 v=0
64983 On ch=10 n=40 v=73
64989 On ch=10 n=40 v=0
65014 On ch=10 n=40 v=90
65020 On ch=10 n=40 v=0
65039 On ch=10 n=36 v=111
65043 On ch=10 n=40 v=108
65045 On ch=10 n=36 v=0
65049 On ch=10 n=40 v=0
65129 On ch=10 n=40 v=108
65135 On ch=10 n=40 v=0
65159 On ch=10 n=40 v=122
65165 On ch=10 n=40 v=0
65192 On ch=10 n=40 v=65
65198 On ch=10 n=40 v=0
65252 On ch=10 n=40 v=77
65258 On ch=10 n=40 v=0
65278 On ch=10 n=36 v=111
65284 On ch=10 n=36 v=0
65339 On ch=10 n=40 v=60
65345 On ch=10 n=40 v=0
65367 On ch=10 n=40 v=108
65373 On ch=10 n=40 v=0
65399 On ch=10 n=36 v=111
65399 On ch=10 n=40 v=122
65405 On ch=10 n=40 v=0
65405 On ch=10 n=36 v=0
65431 On ch=10 n=40 v=86
65437 On ch=10 n=40 v=0
65461 On ch=10 n=40 v=74
65467 On ch=10 n=40 v=0
65492 On ch=10 n=40 v=104
65498 On ch=10 n=40 v=0
65521 On ch=10 n=36 v=108
65521 On ch=10 n=40 v=104
65527 On ch=10 n=40 v=0
65527 On ch=10 n=36 v=0
65611 On ch=10 n=40 v=114
65617 On ch=10 n=40 v=0
65641 On ch=10 n=40 v=123
65647 On ch=10 n=40 v=0
65672 On ch=10 n=40 v=75
65678 On ch=10 n=40 v=0
65733 On ch=10 n=40 v=100
65739 On ch=10 n=40 v=0
65759 On ch=10 n=36 v=108
65761 On ch=10 n=40 v=98
65765 On ch=10 n=36 v=0
65767 On ch=10 n=40 v=0
65849 On ch=10 n=40 v=121
65855 On ch=10 n=40 v=0
65881 On ch=10 n=40 v=125
65882 On ch=10 n=36 v=112
65887 On ch=10 n=40 v=0
65888 On ch=10 n=36 v=0
65913 On ch=10 n=40 v=95
65919 On ch=10 n=40 v=0
65942 On ch=10 n=40 v=90
65948 On ch=10 n=40 v=0
65973 On ch=10 n=40 v=114
65979 On ch=10 n=40 v=0
66001 On ch=10 n=40 v=121
66002 On ch=10 n=36 v=120
66007 On ch=10 n=40 v=0
66008 On ch=10 n=36 v=0
66033 On ch=10 n=40 v=70
66039 On ch=10 n=40 v=0
66062 On ch=10 n=40 v=62
66068 On ch=10 n=40 v=0
66092 On ch=10 n=40 v=112
66098 On ch=10 n=40 v=0
66121 On ch=10 n=40 v=122
66127 On ch=10 n=40 v=0
66152 On ch=10 n=40 v=73
66158 On ch=10 n=40 v=0
66182 On ch=10 n=40 v=61
66188 On ch=10 n=40 v=0
66237 On ch=10 n=40 v=70
66240 On ch=10 n=36 v=104
66242 On ch=10 n=40 v=83
66243 On ch=10 n=40 v=0
66246 On ch=10 n=36 v=0
66248 On ch=10 n=40 v=0
66272 On ch=10 n=40 v=104
66278 On ch=10 n=40 v=0
66302 On ch=10 n=40 v=108
66308 On ch=10 n=40 v=0
66308 On ch=10 n=36 v=122
66314 On ch=10 n=36 v=0
66332 On ch=10 n=40 v=104
66338 On ch=10 n=40 v=0
66361 On ch=10 n=48 v=122
66367 On ch=10 n=48 v=0
66420 On ch=10 n=44 v=122
66426 On ch=10 n=44 v=0
66537 On ch=10 n=45 v=124
66543 On ch=10 n=45 v=0
66602 On ch=10 n=43 v=123
66608 On ch=10 n=43 v=0
66658 On ch=10 n=43 v=121
66664 On ch=10 n=43 v=0
66687 On ch=10 n=41 v=122
66693 On ch=10 n=41 v=0
66708 On ch=10 n=36 v=117
66714 On ch=10 n=36 v=0
66717 On ch=10 n=57 v=108
66723 On ch=10 n=57 v=0
66782 On ch=10 n=40 v=120
66788 On ch=10 n=40 v=0
66812 On ch=10 n=40 v=121
66818 On ch=10 n=40 v=0
66841 On ch=10 n=40 v=114
66847 On ch=10 n=40 v=0
66873 On ch=10 n=40 v=74
66879 On ch=10 n=40 v=0
66902 On ch=10 n=36 v=122
66902 On ch=10 n=49 v=87
66903 On ch=10 n=40 v=87
66908 On ch=10 n=49 v=0
66908 On ch=10 n=36 v=0
66909 On ch=10 n=40 v=0
66933 On ch=10 n=40 v=112
66939 On ch=10 n=40 v=0
66963 On ch=10 n=40 v=121
66969 On ch=10 n=40 v=0
67053 On ch=10 n=40 v=111
67059 On ch=10 n=40 v=0
67076 On ch=10 n=36 v=122
67081 On ch=10 n=40 v=122
67081 On ch=10 n=57 v=85
67082 On ch=10 n=36 v=0
67087 On ch=10 n=57 v=0
67087 On ch=10 n=40 v=0
67136 On ch=10 n=40 v=58
67142 On ch=10 n=40 v=0
67173 On ch=10 n=40 v=90
67179 On ch=10 n=40 v=0
67233 On ch=10 n=40 v=81
67239 On ch=10 n=40 v=0
67259 On ch=10 n=40 v=63
67262 On ch=10 n=49 v=93
67264 On ch=10 n=36 v=123
67265 On ch=10 n=40 v=0
67268 On ch=10 n=49 v=0
67270 On ch=10 n=36 v=0
67287 On ch=10 n=40 v=104
67293 On ch=10 n=40 v=0
67319 On ch=10 n=40 v=122
67325 On ch=10 n=40 v=0
67349 On ch=10 n=40 v=93
67355 On ch=10 n=40 v=0
67379 On ch=10 n=40 v=76
67385 On ch=10 n=40 v=0
67412 On ch=10 n=40 v=77
67418 On ch=10 n=40 v=0
67503 On ch=10 n=40 v=114
67509 On ch=10 n=40 v=0
67558 On ch=10 n=40 v=122
67559 On ch=10 n=57 v=90
67562 On ch=10 n=36 v=122
67564 On ch=10 n=40 v=0
67565 On ch=10 n=57 v=0
67568 On ch=10 n=36 v=0
67589 On ch=10 n=40 v=100
67595 On ch=10 n=40 v=0
67619 On ch=10 n=40 v=93
67625 On ch=10 n=40 v=0
67649 On ch=10 n=40 v=100
67655 On ch=10 n=40 v=0
67674 On ch=10 n=49 v=90
67674 On ch=10 n=36 v=123
67680 On ch=10 n=36 v=0
67680 On ch=10 n=49 v=0
67682 On ch=10 n=40 v=123
67688 On ch=10 n=40 v=0
67711 On ch=10 n=40 v=73
67717 On ch=10 n=40 v=0
67741 On ch=10 n=40 v=73
67747 On ch=10 n=40 v=0
67773 On ch=10 n=40 v=111
67779 On ch=10 n=40 v=0
67801 On ch=10 n=40 v=122
67807 On ch=10 n=40 v=0
67861 On ch=10 n=36 v=124
67862 On ch=10 n=57 v=74
67867 On ch=10 n=36 v=0
67868 On ch=10 n=57 v=0
67893 On ch=10 n=40 v=90
67899 On ch=10 n=40 v=0
67923 On ch=10 n=40 v=104
67929 On ch=10 n=40 v=0
67953 On ch=10 n=40 v=104
67959 On ch=10 n=40 v=0
67982 On ch=10 n=40 v=122
67988 On ch=10 n=40 v=0
68043 On ch=10 n=57 v=90
68044 On ch=10 n=36 v=123
68049 On ch=10 n=57 v=0
68050 On ch=10 n=36 v=0
68102 On ch=10 n=40 v=121
68108 On ch=10 n=40 v=0
68132 On ch=10 n=40 v=123
68138 On ch=10 n=40 v=0
68189 On ch=10 n=40 v=74
68195 On ch=10 n=40 v=0
68218 On ch=10 n=40 v=85
68221 On ch=10 n=57 v=67
68223 On ch=10 n=36 v=122
68224 On ch=10 n=40 v=0
68227 On ch=10 n=57 v=0
68229 On ch=10 n=36 v=0
68247 On ch=10 n=40 v=86
68253 On ch=10 n=40 v=0
68277 On ch=10 n=40 v=122
68283 On ch=10 n=40 v=0
68337 On ch=10 n=40 v=67
68343 On ch=10 n=40 v=0
68367 On ch=10 n=40 v=93
68373 On ch=10 n=40 v=0
68397 On ch=10 n=40 v=114
68403 On ch=10 n=40 v=0
68427 On ch=10 n=40 v=95
68433 On ch=10 n=40 v=0
68458 On ch=10 n=40 v=112
68464 On ch=10 n=40 v=0
68487 On ch=10 n=40 v=114
68493 On ch=10 n=40 v=0
68516 On ch=10 n=49 v=95
68518 On ch=10 n=36 v=123
68518 On ch=10 n=40 v=123
68522 On ch=10 n=49 v=0
68524 On ch=10 n=40 v=0
68524 On ch=10 n=36 v=0
73365 On ch=10 n=45 v=114
73371 On ch=10 n=45 v=0
73375 On ch=10 n=45 v=114
73381 On ch=10 n=45 v=0
73385 On ch=10 n=45 v=104
73391 On ch=10 n=45 v=0
73396 On ch=10 n=45 v=112
73402 On ch=10 n=45 v=0
73407 On ch=10 n=43 v=112
73413 On ch=10 n=43 v=0
73417 On ch=10 n=43 v=114
73423 On ch=10 n=43 v=0
73430 On ch=10 n=41 v=116
73436 On ch=10 n=41 v=0
73440 On ch=10 n=36 v=93
73440 On ch=10 n=57 v=83
73446 On ch=10 n=57 v=0
73446 On ch=10 n=36 v=0
73621 On ch=10 n=36 v=117
73621 On ch=10 n=49 v=98
73627 On ch=10 n=49 v=0
73627 On ch=10 n=36 v=0
73980 On ch=10 n=48 v=123
73986 On ch=10 n=48 v=0
74041 On ch=10 n=48 v=124
74047 On ch=10 n=48 v=0
74160 On ch=10 n=36 v=95
74163 On ch=10 n=49 v=71
74166 On ch=10 n=36 v=0
74169 On ch=10 n=49 v=0
74219 On ch=10 n=45 v=122
74225 On ch=10 n=45 v=0
74248 On ch=10 n=45 v=122
74254 On ch=10 n=45 v=0
74279 On ch=10 n=45 v=125
74285 On ch=10 n=45 v=0
74400 On ch=10 n=36 v=112
74402 On ch=10 n=49 v=114
74406 On ch=10 n=36 v=0
74408 On ch=10 n=49 v=0
74459 On ch=10 n=43 v=122
74465 On ch=10 n=43 v=0
74521 On ch=10 n=43 v=125
74527 On ch=10 n=43 v=0
74581 On ch=10 n=41 v=121
74587 On ch=10 n=41 v=0
74612 On ch=10 n=41 v=125
74618 On ch=10 n=41 v=0
74640 On ch=10 n=40 v=117
74642 On ch=10 n=42 v=121
74642 On ch=10 n=57 v=70
74646 On ch=10 n=40 v=0
74648 On ch=10 n=57 v=0
74648 On ch=10 n=42 v=0
74701 On ch=10 n=36 v=79
74707 On ch=10 n=36 v=0
74761 On ch=10 n=40 v=112
74762 On ch=10 n=42 v=124
74767 On ch=10 n=40 v=0
74768 On ch=10 n=42 v=0
74820 On ch=10 n=36 v=90
74826 On ch=10 n=36 v=0
74881 On ch=10 n=40 v=117
74881 On ch=10 n=42 v=124
74887 On ch=10 n=42 v=0
74887 On ch=10 n=40 v=0
74941 On ch=10 n=36 v=95
74947 On ch=10 n=36 v=0
75001 On ch=10 n=42 v=123
75007 On ch=10 n=42 v=0
75061 On ch=10 n=36 v=117
75067 On ch=10 n=36 v=0
75122 On ch=10 n=42 v=123
75128 On ch=10 n=42 v=0
75178 On ch=10 n=36 v=104
75184 On ch=10 n=36 v=0
75241 On ch=10 n=40 v=120
75241 On ch=10 n=42 v=125
75247 On ch=10 n=42 v=0
75247 On ch=10 n=40 v=0
75362 On ch=10 n=42 v=122
75368 On ch=10 n=42 v=0
75421 On ch=10 n=36 v=122
75421 On ch=10 n=42 v=122
75427 On ch=10 n=42 v=0
75427 On ch=10 n=36 v=0
75480 On ch=10 n=40 v=122
75482 On ch=10 n=42 v=123
75486 On ch=10 n=40 v=0
75488 On ch=10 n=42 v=0
75541 On ch=10 n=36 v=122
75542 On ch=10 n=42 v=111
75547 On ch=10 n=36 v=0
75548 On ch=10 n=42 v=0
75602 On ch=10 n=42 v=124
75608 On ch=10 n=42 v=0
75661 On ch=10 n=36 v=123
75667 On ch=10 n=36 v=0
75721 On ch=10 n=40 v=122
75722 On ch=10 n=42 v=122
75727 On ch=10 n=40 v=0
75728 On ch=10 n=42 v=0
75811 On ch=10 n=36 v=121
75817 On ch=10 n=36 v=0
75841 On ch=10 n=40 v=122
75842 On ch=10 n=42 v=123
75847 On ch=10 n=40 v=0
75848 On ch=10 n=42 v=0
75900 On ch=10 n=36 v=120
75900 On ch=10 n=46 v=122
75906 On ch=10 n=46 v=0
75906 On ch=10 n=36 v=0
75961 On ch=10 n=42 v=120
75962 On ch=10 n=36 v=123
75967 On ch=10 n=42 v=0
75968 On ch=10 n=36 v=0
76019 On ch=10 n=49 v=81
76021 On ch=10 n=40 v=122
76021 On ch=10 n=46 v=124
76025 On ch=10 n=49 v=0
76027 On ch=10 n=46 v=0
76027 On ch=10 n=40 v=0
76081 On ch=10 n=42 v=117
76087 On ch=10 n=42 v=0
76141 On ch=10 n=36 v=120
76141 On ch=10 n=42 v=120
76147 On ch=10 n=42 v=0
76147 On ch=10 n=36 v=0
76201 On ch=10 n=40 v=123
76201 On ch=10 n=42 v=123
76207 On ch=10 n=42 v=0
76207 On ch=10 n=40 v=0
76259 On ch=10 n=36 v=108
76259 On ch=10 n=46 v=124
76265 On ch=10 n=46 v=0
76265 On ch=10 n=36 v=0
76289 On ch=10 n=40 v=122
76295 On ch=10 n=40 v=0
76318 On ch=10 n=57 v=77
76319 On ch=10 n=36 v=122
76324 On ch=10 n=57 v=0
76325 On ch=10 n=36 v=0
76379 On ch=10 n=36 v=120
76379 On ch=10 n=46 v=124
76385 On ch=10 n=46 v=0
76385 On ch=10 n=36 v=0
76440 On ch=10 n=40 v=122
76441 On ch=10 n=42 v=123
76446 On ch=10 n=40 v=0
76447 On ch=10 n=42 v=0
76501 On ch=10 n=42 v=108
76507 On ch=10 n=42 v=0
76560 On ch=10 n=40 v=122
76562 On ch=10 n=42 v=123
76566 On ch=10 n=40 v=0
76568 On ch=10 n=42 v=0
76681 On ch=10 n=40 v=122
76682 On ch=10 n=42 v=125
76687 On ch=10 n=40 v=0
76688 On ch=10 n=42 v=0
76741 On ch=10 n=36 v=121
76747 On ch=10 n=36 v=0
76803 On ch=10 n=42 v=124
76809 On ch=10 n=42 v=0
76861 On ch=10 n=36 v=122
76867 On ch=10 n=36 v=0
76921 On ch=10 n=40 v=122
76923 On ch=10 n=42 v=123
76927 On ch=10 n=40 v=0
76929 On ch=10 n=42 v=0
76983 On ch=10 n=42 v=74
76989 On ch=10 n=42 v=0
77040 On ch=10 n=36 v=123
77040 On ch=10 n=42 v=124
77042 On ch=10 n=40 v=111
77046 On ch=10 n=42 v=0
77046 On ch=10 n=36 v=0
77048 On ch=10 n=40 v=0
77161 On ch=10 n=40 v=123
77161 On ch=10 n=57 v=108
77162 On ch=10 n=42 v=121
77167 On ch=10 n=57 v=0
77167 On ch=10 n=40 v=0
77168 On ch=10 n=42 v=0
77221 On ch=10 n=36 v=104
77221 On ch=10 n=42 v=75
77227 On ch=10 n=42 v=0
77227 On ch=10 n=36 v=0
77282 On ch=10 n=42 v=123
77282 On ch=10 n=49 v=93
77288 On ch=10 n=49 v=0
77288 On ch=10 n=42 v=0
77341 On ch=10 n=36 v=123
77347 On ch=10 n=36 v=0
77401 On ch=10 n=40 v=123
77402 On ch=10 n=42 v=125
77407 On ch=10 n=40 v=0
77408 On ch=10 n=42 v=0
77491 On ch=10 n=36 v=120
77497 On ch=10 n=36 v=0
77521 On ch=10 n=40 v=122
77524 On ch=10 n=42 v=123
77527 On ch=10 n=40 v=0
77530 On ch=10 n=42 v=0
77581 On ch=10 n=36 v=122
77587 On ch=10 n=36 v=0
77641 On ch=10 n=40 v=122
77642 On ch=10 n=42 v=123
77647 On ch=10 n=40 v=0
77648 On ch=10 n=42 v=0
77697 On ch=10 n=49 v=63
77699 On ch=10 n=36 v=124
77701 On ch=10 n=46 v=124
77703 On ch=10 n=49 v=0
77705 On ch=10 n=36 v=0
77707 On ch=10 n=46 v=0
77821 On ch=10 n=36 v=122
77822 On ch=10 n=42 v=121
77827 On ch=10 n=36 v=0
77828 On ch=10 n=42 v=0
77879 On ch=10 n=40 v=123
77882 On ch=10 n=42 v=121
77885 On ch=10 n=40 v=0
77888 On ch=10 n=42 v=0
77938 On ch=10 n=36 v=120
77944 On ch=10 n=36 v=0
77968 On ch=10 n=40 v=121
77974 On ch=10 n=40 v=0
77998 On ch=10 n=36 v=122
78003 On ch=10 n=42 v=123
78004 On ch=10 n=36 v=0
78009 On ch=10 n=42 v=0
78059 On ch=10 n=36 v=122
78065 On ch=10 n=36 v=0
78119 On ch=10 n=40 v=122
78122 On ch=10 n=42 v=124
78125 On ch=10 n=40 v=0
78128 On ch=10 n=42 v=0
78239 On ch=10 n=40 v=123
78242 On ch=10 n=42 v=117
78245 On ch=10 n=40 v=0
78248 On ch=10 n=42 v=0
78300 On ch=10 n=36 v=123
78301 On ch=10 n=42 v=108
78306 On ch=10 n=36 v=0
78307 On ch=10 n=42 v=0
78359 On ch=10 n=40 v=122
78361 On ch=10 n=42 v=123
78365 On ch=10 n=40 v=0
78367 On ch=10 n=42 v=0
78419 On ch=10 n=36 v=122
78419 On ch=10 n=57 v=69
78422 On ch=10 n=42 v=108
78425 On ch=10 n=57 v=0
78425 On ch=10 n=36 v=0
78428 On ch=10 n=42 v=0
78481 On ch=10 n=42 v=124
78481 On ch=10 n=36 v=122
78481 On ch=10 n=57 v=108
78487 On ch=10 n=57 v=0
78487 On ch=10 n=36 v=0
78487 On ch=10 n=42 v=0
78598 On ch=10 n=42 v=123
78603 On ch=10 n=40 v=123
78604 On ch=10 n=42 v=0
78609 On ch=10 n=40 v=0
78694 On ch=10 n=40 v=120
78700 On ch=10 n=40 v=0
78717 On ch=10 n=42 v=124
78723 On ch=10 n=42 v=0
78724 On ch=10 n=36 v=121
78730 On ch=10 n=36 v=0
78841 On ch=10 n=42 v=122
78842 On ch=10 n=40 v=122
78847 On ch=10 n=42 v=0
78848 On ch=10 n=40 v=0
78897 On ch=10 n=46 v=124
78903 On ch=10 n=46 v=0
78962 On ch=10 n=42 v=121
78962 On ch=10 n=36 v=121
78962 On ch=10 n=49 v=93
78968 On ch=10 n=49 v=0
78968 On ch=10 n=36 v=0
78968 On ch=10 n=42 v=0
79019 On ch=10 n=42 v=123
79025 On ch=10 n=42 v=0
79079 On ch=10 n=42 v=124
79083 On ch=10 n=40 v=122
79085 On ch=10 n=42 v=0
79089 On ch=10 n=40 v=0
79173 On ch=10 n=40 v=114
79179 On ch=10 n=40 v=0
79202 On ch=10 n=42 v=122
79202 On ch=10 n=36 v=120
79208 On ch=10 n=36 v=0
79208 On ch=10 n=42 v=0
79262 On ch=10 n=36 v=111
79268 On ch=10 n=36 v=0
79322 On ch=10 n=40 v=122
79323 On ch=10 n=42 v=125
79328 On ch=10 n=40 v=0
79329 On ch=10 n=42 v=0
79381 On ch=10 n=42 v=123
79387 On ch=10 n=42 v=0
79413 On ch=10 n=40 v=121
79419 On ch=10 n=40 v=0
79442 On ch=10 n=46 v=123
79443 On ch=10 n=36 v=122
79448 On ch=10 n=46 v=0
79449 On ch=10 n=36 v=0
79499 On ch=10 n=49 v=111
79501 On ch=10 n=46 v=124
79505 On ch=10 n=49 v=0
79507 On ch=10 n=46 v=0
79563 On ch=10 n=46 v=123
79563 On ch=10 n=40 v=123
79569 On ch=10 n=40 v=0
79569 On ch=10 n=46 v=0
79654 On ch=10 n=40 v=121
79660 On ch=10 n=40 v=0
79683 On ch=10 n=42 v=123
79683 On ch=10 n=36 v=117
79689 On ch=10 n=36 v=0
79689 On ch=10 n=42 v=0
79743 On ch=10 n=36 v=112
79749 On ch=10 n=36 v=0
79801 On ch=10 n=42 v=123
79802 On ch=10 n=40 v=122
79807 On ch=10 n=42 v=0
79808 On ch=10 n=40 v=0
79893 On ch=10 n=40 v=121
79899 On ch=10 n=40 v=0
79919 On ch=10 n=46 v=122
79923 On ch=10 n=36 v=121
79925 On ch=10 n=46 v=0
79929 On ch=10 n=36 v=0
79978 On ch=10 n=46 v=124
79983 On ch=10 n=36 v=117
79984 On ch=10 n=46 v=0
79989 On ch=10 n=36 v=0
80040 On ch=10 n=42 v=123
80042 On ch=10 n=40 v=122
80045 On ch=10 n=57 v=112
80046 On ch=10 n=42 v=0
80048 On ch=10 n=40 v=0
80051 On ch=10 n=57 v=0
80100 On ch=10 n=45 v=124
80106 On ch=10 n=45 v=0
80134 On ch=10 n=40 v=121
80140 On ch=10 n=40 v=0
80164 On ch=10 n=36 v=121
80170 On ch=10 n=36 v=0
80223 On ch=10 n=45 v=125
80223 On ch=10 n=36 v=117
80229 On ch=10 n=36 v=0
80229 On ch=10 n=45 v=0
80284 On ch=10 n=40 v=123
80290 On ch=10 n=40 v=0
80342 On ch=10 n=45 v=124
80348 On ch=10 n=45 v=0
80400 On ch=10 n=51 v=122
80400 On ch=10 n=57 v=98
80401 On ch=10 n=36 v=122
80406 On ch=10 n=57 v=0
80406 On ch=10 n=51 v=0
80407 On ch=10 n=36 v=0
80457 On ch=10 n=51 v=95
80463 On ch=10 n=51 v=0
80519 On ch=10 n=51 v=124
80523 On ch=10 n=40 v=122
80525 On ch=10 n=51 v=0
80529 On ch=10 n=40 v=0
80578 On ch=10 n=51 v=93
80584 On ch=10 n=51 v=0
80613 On ch=10 n=36 v=121
80619 On ch=10 n=36 v=0
80641 On ch=10 n=51 v=122
80641 On ch=10 n=52 v=87
80643 On ch=10 n=40 v=120
80647 On ch=10 n=52 v=0
80647 On ch=10 n=51 v=0
80649 On ch=10 n=40 v=0
80698 On ch=10 n=51 v=90
80702 On ch=10 n=40 v=121
80704 On ch=10 n=51 v=0
80708 On ch=10 n=40 v=0
80730 On ch=10 n=51 v=120
80736 On ch=10 n=51 v=0
80759 On ch=10 n=51 v=120
80761 On ch=10 n=36 v=122
80762 On ch=10 n=50 v=63
80765 On ch=10 n=51 v=0
80767 On ch=10 n=36 v=0
80768 On ch=10 n=50 v=0
80819 On ch=10 n=40 v=122
80819 On ch=10 n=51 v=123
80819 On ch=10 n=49 v=95
80821 On ch=10 n=40 v=123
80825 On ch=10 n=40 v=0
80825 On ch=10 n=49 v=0
80825 On ch=10 n=51 v=0
80827 On ch=10 n=40 v=0
80878 On ch=10 n=51 v=121
80884 On ch=10 n=51 v=0
80938 On ch=10 n=36 v=122
80938 On ch=10 n=51 v=123
80944 On ch=10 n=51 v=0
80944 On ch=10 n=36 v=0
80997 On ch=10 n=40 v=123
80999 On ch=10 n=51 v=125
81003 On ch=10 n=40 v=0
81005 On ch=10 n=51 v=0
81057 On ch=10 n=51 v=114
81063 On ch=10 n=51 v=0
81089 On ch=10 n=51 v=111
81092 On ch=10 n=36 v=122
81095 On ch=10 n=51 v=0
81098 On ch=10 n=36 v=0
81119 On ch=10 n=51 v=111
81122 On ch=10 n=41 v=122
81125 On ch=10 n=51 v=0
81128 On ch=10 n=41 v=0
81181 On ch=10 n=45 v=123
81181 On ch=10 n=51 v=123
81187 On ch=10 n=51 v=0
81187 On ch=10 n=45 v=0
81239 On ch=10 n=51 v=123
81242 On ch=10 n=41 v=123
81245 On ch=10 n=51 v=0
81248 On ch=10 n=41 v=0
81301 On ch=10 n=51 v=125
81301 On ch=10 n=49 v=108
81302 On ch=10 n=36 v=123
81302 On ch=10 n=40 v=124
81307 On ch=10 n=49 v=0
81307 On ch=10 n=51 v=0
81308 On ch=10 n=36 v=0
81308 On ch=10 n=40 v=0
81358 On ch=10 n=51 v=67
81364 On ch=10 n=51 v=0
81416 On ch=10 n=51 v=122
81422 On ch=10 n=51 v=0
81422 On ch=10 n=36 v=123
81428 On ch=10 n=36 v=0
81478 On ch=10 n=51 v=125
81482 On ch=10 n=40 v=124
81484 On ch=10 n=51 v=0
81488 On ch=10 n=40 v=0
81538 On ch=10 n=51 v=117
81544 On ch=10 n=51 v=0
81571 On ch=10 n=51 v=114
81575 On ch=10 n=36 v=122
81577 On ch=10 n=51 v=0
81581 On ch=10 n=36 v=0
81602 On ch=10 n=51 v=121
81604 On ch=10 n=40 v=123
81608 On ch=10 n=51 v=0
81610 On ch=10 n=40 v=0
81661 On ch=10 n=51 v=122
81663 On ch=10 n=41 v=122
81667 On ch=10 n=51 v=0
81669 On ch=10 n=41 v=0
81718 On ch=10 n=51 v=122
81722 On ch=10 n=45 v=124
81724 On ch=10 n=51 v=0
81728 On ch=10 n=45 v=0
81779 On ch=10 n=51 v=125
81779 On ch=10 n=57 v=114
81780 On ch=10 n=40 v=123
81782 On ch=10 n=36 v=124
81785 On ch=10 n=57 v=0
81785 On ch=10 n=51 v=0
81786 On ch=10 n=40 v=0
81788 On ch=10 n=36 v=0
83760 On ch=10 n=36 v=58
83766 On ch=10 n=36 v=0
85080 On ch=10 n=36 v=59
85086 On ch=10 n=36 v=0
85800 On ch=10 n=36 v=58
85806 On ch=10 n=36 v=0
86640 On ch=10 n=36 v=58
86646 On ch=10 n=36 v=0
87601 On ch=10 n=36 v=56
87607 On ch=10 n=36 v=0
88080 On ch=10 n=36 v=57
88086 On ch=10 n=36 v=0
88560 On ch=10 n=36 v=59
88566 On ch=10 n=36 v=0
89040 On ch=10 n=36 v=58
89046 On ch=10 n=36 v=0
89520 On ch=10 n=36 v=57
89526 On ch=10 n=36 v=0
89526 Meta TrkEnd
TrkEnd
MTrk
0 Meta 0x21 00
0 Meta TrkName "Bass"
0 PrCh ch=3 p=34
0 Par ch=3 c=7 v=120
0 Par ch=3 c=10 v=64
0 Par ch=3 c=121 v=0
2 Par ch=3 c=0 v=0
4 Par ch=3 c=32 v=0
6 Par ch=3 c=11 v=127
8 Par ch=3 c=91 v=60
10 Par ch=3 c=93 v=15
5223 On ch=3 n=28 v=117
5355 On ch=3 n=28 v=0
5374 On ch=3 n=28 v=88
5391 On ch=3 n=28 v=0
5402 On ch=3 n=30 v=109
5493 On ch=3 n=30 v=0
5494 On ch=3 n=28 v=109
5510 On ch=3 n=28 v=0
5523 On ch=3 n=31 v=117
5586 On ch=3 n=31 v=0
5606 On ch=3 n=31 v=100
5630 On ch=3 n=31 v=0
5636 On ch=3 n=33 v=100
5665 On ch=3 n=33 v=0
5668 On ch=3 n=36 v=72
5692 On ch=3 n=36 v=0
5696 On ch=3 n=38 v=74
5727 On ch=3 n=40 v=100
5729 On ch=3 n=38 v=0
5751 On ch=3 n=40 v=0
5757 On ch=3 n=28 v=117
5836 On ch=3 n=28 v=0
5854 On ch=3 n=28 v=98
5873 On ch=3 n=28 v=0
5883 On ch=3 n=30 v=117
5958 On ch=3 n=30 v=0
5971 On ch=3 n=28 v=105
5991 On ch=3 n=28 v=0
6001 On ch=3 n=31 v=117
6080 On ch=3 n=31 v=0
6091 On ch=3 n=31 v=109
6113 On ch=3 n=31 v=0
6119 On ch=3 n=33 v=109
6151 On ch=3 n=35 v=109
6153 On ch=3 n=33 v=0
6175 On ch=3 n=35 v=0
6182 On ch=3 n=38 v=70
6211 On ch=3 n=40 v=98
6220 On ch=3 n=38 v=0
6235 On ch=3 n=40 v=0
6243 On ch=3 n=28 v=117
6310 On ch=3 n=28 v=0
6333 On ch=3 n=28 v=86
6352 On ch=3 n=28 v=0
6361 On ch=3 n=30 v=117
6440 On ch=3 n=30 v=0
6451 On ch=3 n=28 v=103
6468 On ch=3 n=28 v=0
6482 On ch=3 n=31 v=117
6556 On ch=3 n=31 v=0
6568 On ch=3 n=31 v=113
6595 On ch=3 n=31 v=0
6599 On ch=3 n=33 v=79
6623 On ch=3 n=33 v=0
6629 On ch=3 n=35 v=103
6655 On ch=3 n=35 v=0
6661 On ch=3 n=38 v=91
6691 On ch=3 n=40 v=95
6700 On ch=3 n=38 v=0
6717 On ch=3 n=40 v=0
6721 On ch=3 n=28 v=113
6786 On ch=3 n=28 v=0
6811 On ch=3 n=28 v=92
6831 On ch=3 n=28 v=0
6839 On ch=3 n=30 v=117
6921 On ch=3 n=30 v=0
6929 On ch=3 n=28 v=100
6945 On ch=3 n=28 v=0
6959 On ch=3 n=31 v=117
7041 On ch=3 n=31 v=0
7048 On ch=3 n=31 v=109
7070 On ch=3 n=31 v=0
7077 On ch=3 n=33 v=95
7108 On ch=3 n=35 v=98
7113 On ch=3 n=33 v=0
7137 On ch=3 n=35 v=0
7139 On ch=3 n=38 v=77
7168 On ch=3 n=40 v=109
7178 On ch=3 n=38 v=0
7192 On ch=3 n=40 v=0
7200 On ch=3 n=28 v=113
7274 On ch=3 n=28 v=0
7291 On ch=3 n=28 v=82
7313 On ch=3 n=28 v=0
7320 On ch=3 n=30 v=117
7409 On ch=3 n=30 v=0
7411 On ch=3 n=28 v=117
7423 On ch=3 n=28 v=0
7442 On ch=3 n=31 v=117
7518 On ch=3 n=31 v=0
7531 On ch=3 n=31 v=105
7555 On ch=3 n=31 v=0
7560 On ch=3 n=33 v=81
7591 On ch=3 n=36 v=74
7598 On ch=3 n=33 v=0
7615 On ch=3 n=36 v=0
7621 On ch=3 n=38 v=79
7651 On ch=3 n=40 v=92
7660 On ch=3 n=38 v=0
7673 On ch=3 n=40 v=0
7680 On ch=3 n=28 v=117
7745 On ch=3 n=28 v=0
7768 On ch=3 n=28 v=88
7792 On ch=3 n=28 v=0
7799 On ch=3 n=30 v=117
7881 On ch=3 n=30 v=0
7891 On ch=3 n=28 v=113
7910 On ch=3 n=28 v=0
7920 On ch=3 n=31 v=117
7994 On ch=3 n=31 v=0
8006 On ch=3 n=31 v=113
8032 On ch=3 n=31 v=0
8037 On ch=3 n=33 v=98
8068 On ch=3 n=35 v=98
8076 On ch=3 n=33 v=0
8098 On ch=3 n=38 v=79
8099 On ch=3 n=35 v=0
8131 On ch=3 n=40 v=113
8144 On ch=3 n=38 v=0
8157 On ch=3 n=40 v=0
8162 On ch=3 n=28 v=113
8226 On ch=3 n=28 v=0
8252 On ch=3 n=28 v=91
8271 On ch=3 n=28 v=0
8282 On ch=3 n=30 v=117
8361 On ch=3 n=30 v=0
8369 On ch=3 n=28 v=117
8385 On ch=3 n=28 v=0
8399 On ch=3 n=31 v=117
8476 On ch=3 n=31 v=0
8488 On ch=3 n=31 v=105
8512 On ch=3 n=31 v=0
8517 On ch=3 n=33 v=113
8548 On ch=3 n=35 v=105
8555 On ch=3 n=33 v=0
8577 On ch=3 n=35 v=0
8578 On ch=3 n=38 v=77
8611 On ch=3 n=40 v=109
8624 On ch=3 n=38 v=0
8633 On ch=3 n=40 v=0
8640 On ch=3 n=28 v=109
8700 On ch=3 n=28 v=0
8729 On ch=3 n=28 v=92
8748 On ch=3 n=28 v=0
8758 On ch=3 n=30 v=117
8847 On ch=3 n=30 v=0
8851 On ch=3 n=28 v=117
8863 On ch=3 n=28 v=0
8879 On ch=3 n=31 v=116
8966 On ch=3 n=31 v=0
8971 On ch=3 n=31 v=113
8986 On ch=3 n=31 v=0
8999 On ch=3 n=33 v=95
9031 On ch=3 n=33 v=0
9031 On ch=3 n=35 v=98
9062 On ch=3 n=38 v=79
9063 On ch=3 n=35 v=0
9093 On ch=3 n=40 v=103
9105 On ch=3 n=38 v=0
9120 On ch=3 n=40 v=0
9123 On ch=3 n=28 v=113
9190 On ch=3 n=28 v=0
9213 On ch=3 n=28 v=68
9228 On ch=3 n=28 v=0
9239 On ch=3 n=30 v=117
9323 On ch=3 n=30 v=0
9329 On ch=3 n=28 v=103
9345 On ch=3 n=28 v=0
9359 On ch=3 n=31 v=117
9441 On ch=3 n=31 v=0
9451 On ch=3 n=31 v=116
9468 On ch=3 n=31 v=0
9479 On ch=3 n=33 v=82
9506 On ch=3 n=33 v=0
9511 On ch=3 n=36 v=82
9543 On ch=3 n=36 v=0
9543 On ch=3 n=38 v=68
9571 On ch=3 n=40 v=86
9579 On ch=3 n=38 v=0
9595 On ch=3 n=40 v=0
9601 On ch=3 n=28 v=117
9673 On ch=3 n=28 v=0
9692 On ch=3 n=28 v=82
9716 On ch=3 n=28 v=0
9720 On ch=3 n=30 v=117
9806 On ch=3 n=30 v=0
9812 On ch=3 n=28 v=109
9826 On ch=3 n=28 v=0
9841 On ch=3 n=31 v=117
9916 On ch=3 n=31 v=0
9928 On ch=3 n=31 v=103
9955 On ch=3 n=31 v=0
9957 On ch=3 n=33 v=105
9988 On ch=3 n=35 v=88
9995 On ch=3 n=33 v=0
10019 On ch=3 n=38 v=78
10024 On ch=3 n=35 v=0
10051 On ch=3 n=40 v=86
10063 On ch=3 n=38 v=0
10073 On ch=3 n=40 v=0
10082 On ch=3 n=28 v=113
10149 On ch=3 n=28 v=0
10174 On ch=3 n=28 v=79
10193 On ch=3 n=28 v=0
10201 On ch=3 n=30 v=116
10280 On ch=3 n=30 v=0
10291 On ch=3 n=28 v=113
10310 On ch=3 n=28 v=0
10319 On ch=3 n=31 v=117
10399 On ch=3 n=31 v=0
10408 On ch=3 n=31 v=98
10437 On ch=3 n=33 v=98
10449 On ch=3 n=31 v=0
10468 On ch=3 n=35 v=86
10470 On ch=3 n=33 v=0
10498 On ch=3 n=38 v=66
10502 On ch=3 n=35 v=0
10529 On ch=3 n=40 v=105
10544 On ch=3 n=38 v=0
10553 On ch=3 n=40 v=0
10562 On ch=3 n=28 v=100
10622 On ch=3 n=28 v=0
10651 On ch=3 n=28 v=80
10670 On ch=3 n=28 v=0
10679 On ch=3 n=30 v=117
10754 On ch=3 n=30 v=0
10767 On ch=3 n=28 v=100
10782 On ch=3 n=28 v=0
10796 On ch=3 n=31 v=117
10877 On ch=3 n=31 v=0
10887 On ch=3 n=31 v=80
10911 On ch=3 n=31 v=0
10917 On ch=3 n=33 v=109
10947 On ch=3 n=35 v=86
10951 On ch=3 n=33 v=0
10979 On ch=3 n=38 v=61
10983 On ch=3 n=35 v=0
11011 On ch=3 n=40 v=100
11018 On ch=3 n=38 v=0
11037 On ch=3 n=40 v=0
11042 On ch=3 n=28 v=117
11114 On ch=3 n=28 v=0
11132 On ch=3 n=28 v=80
11153 On ch=3 n=28 v=0
11161 On ch=3 n=30 v=117
11240 On ch=3 n=30 v=0
11251 On ch=3 n=28 v=105
11266 On ch=3 n=28 v=0
11280 On ch=3 n=31 v=117
11354 On ch=3 n=31 v=0
11369 On ch=3 n=31 v=79
11393 On ch=3 n=31 v=0
11397 On ch=3 n=33 v=109
11430 On ch=3 n=33 v=0
11431 On ch=3 n=35 v=91
11457 On ch=3 n=35 v=0
11459 On ch=3 n=38 v=65
11491 On ch=3 n=40 v=98
11500 On ch=3 n=38 v=0
11515 On ch=3 n=40 v=0
11521 On ch=3 n=28 v=117
11591 On ch=3 n=28 v=0
11613 On ch=3 n=28 v=79
11635 On ch=3 n=28 v=0
11642 On ch=3 n=30 v=117
11682 On ch=3 n=30 v=0
11703 On ch=3 n=33 v=117
11811 On ch=3 n=33 v=0
11821 On ch=3 n=33 v=117
11867 On ch=3 n=33 v=0
11880 On ch=3 n=35 v=117
11983 On ch=3 n=35 v=0
12000 On ch=3 n=36 v=117
12103 On ch=3 n=36 v=0
12118 On ch=3 n=38 v=113
12224 On ch=3 n=38 v=0
12239 On ch=3 n=40 v=100
12338 On ch=3 n=40 v=0
12358 On ch=3 n=33 v=77
12359 On ch=3 n=38 v=100
12407 On ch=3 n=38 v=0
12422 On ch=3 n=36 v=117
12711 On ch=3 n=33 v=0
12712 On ch=3 n=36 v=0
12718 On ch=3 n=35 v=117
12960 On ch=3 n=33 v=117
12963 On ch=3 n=35 v=0
13197 On ch=3 n=33 v=0
13201 On ch=3 n=31 v=117
13381 On ch=3 n=31 v=0
13462 On ch=3 n=31 v=117
14332 On ch=3 n=31 v=0
14332 On ch=3 n=28 v=117
14482 On ch=3 n=28 v=0
14515 On ch=3 n=28 v=90
14523 On ch=3 n=30 v=116
14530 On ch=3 n=28 v=0
14609 On ch=3 n=30 v=0
14614 On ch=3 n=28 v=109
14635 On ch=3 n=28 v=0
14643 On ch=3 n=31 v=117
14717 On ch=3 n=31 v=0
14731 On ch=3 n=31 v=91
14751 On ch=3 n=31 v=0
14760 On ch=3 n=33 v=98
14791 On ch=3 n=33 v=0
14792 On ch=3 n=36 v=64
14813 On ch=3 n=36 v=0
14821 On ch=3 n=38 v=66
14851 On ch=3 n=40 v=116
14857 On ch=3 n=38 v=0
14877 On ch=3 n=40 v=0
14881 On ch=3 n=28 v=117
14953 On ch=3 n=28 v=0
14973 On ch=3 n=28 v=81
14992 On ch=3 n=28 v=0
15001 On ch=3 n=30 v=117
15078 On ch=3 n=30 v=0
15089 On ch=3 n=28 v=105
15101 On ch=3 n=28 v=0
15119 On ch=3 n=31 v=117
15203 On ch=3 n=31 v=0
15211 On ch=3 n=31 v=109
15233 On ch=3 n=31 v=0
15239 On ch=3 n=33 v=92
15269 On ch=3 n=33 v=0
15272 On ch=3 n=35 v=84
15302 On ch=3 n=35 v=0
15302 On ch=3 n=38 v=79
15333 On ch=3 n=40 v=100
15342 On ch=3 n=38 v=0
15352 On ch=3 n=40 v=0
15362 On ch=3 n=28 v=117
15441 On ch=3 n=28 v=0
15454 On ch=3 n=28 v=80
15478 On ch=3 n=28 v=0
15483 On ch=3 n=30 v=117
15562 On ch=3 n=30 v=0
15571 On ch=3 n=28 v=116
15593 On ch=3 n=28 v=0
15600 On ch=3 n=31 v=117
15689 On ch=3 n=31 v=0
15689 On ch=3 n=28 v=100
15708 On ch=3 n=28 v=0
15717 On ch=3 n=30 v=117
15765 On ch=3 n=30 v=0
15780 On ch=3 n=35 v=117
16205 On ch=3 n=35 v=0
16263 On ch=3 n=28 v=117
16395 On ch=3 n=28 v=0
16435 On ch=3 n=28 v=80
16443 On ch=3 n=30 v=117
16447 On ch=3 n=28 v=0
16529 On ch=3 n=30 v=0
16534 On ch=3 n=28 v=109
16548 On ch=3 n=28 v=0
16563 On ch=3 n=31 v=117
16637 On ch=3 n=31 v=0
16651 On ch=3 n=31 v=103
16670 On ch=3 n=31 v=0
16680 On ch=3 n=33 v=95
16709 On ch=3 n=33 v=0
16711 On ch=3 n=36 v=68
16739 On ch=3 n=38 v=75
16741 On ch=3 n=36 v=0
16769 On ch=3 n=38 v=0
16770 On ch=3 n=40 v=100
16790 On ch=3 n=40 v=0
16799 On ch=3 n=28 v=117
16801 On ch=3 n=28 v=117
16871 On ch=3 n=28 v=0
16873 On ch=3 n=28 v=0
16892 On ch=3 n=28 v=82
16916 On ch=3 n=28 v=0
16920 On ch=3 n=30 v=117
17006 On ch=3 n=30 v=0
17012 On ch=3 n=28 v=109
17026 On ch=3 n=28 v=0
17041 On ch=3 n=31 v=117
17116 On ch=3 n=31 v=0
17128 On ch=3 n=31 v=103
17155 On ch=3 n=31 v=0
17157 On ch=3 n=33 v=105
17188 On ch=3 n=35 v=88
17195 On ch=3 n=33 v=0
17219 On ch=3 n=38 v=78
17224 On ch=3 n=35 v=0
17251 On ch=3 n=40 v=86
17263 On ch=3 n=38 v=0
17273 On ch=3 n=40 v=0
17282 On ch=3 n=28 v=113
17349 On ch=3 n=28 v=0
17374 On ch=3 n=28 v=79
17393 On ch=3 n=28 v=0
17401 On ch=3 n=30 v=116
17480 On ch=3 n=30 v=0
17491 On ch=3 n=28 v=113
17510 On ch=3 n=28 v=0
17519 On ch=3 n=31 v=117
17599 On ch=3 n=31 v=0
17608 On ch=3 n=31 v=98
17637 On ch=3 n=33 v=98
17649 On ch=3 n=31 v=0
17668 On ch=3 n=35 v=86
17670 On ch=3 n=33 v=0
17698 On ch=3 n=38 v=66
17702 On ch=3 n=35 v=0
17729 On ch=3 n=40 v=105
17744 On ch=3 n=38 v=0
17753 On ch=3 n=40 v=0
17762 On ch=3 n=28 v=100
17822 On ch=3 n=28 v=0
17851 On ch=3 n=28 v=80
17870 On ch=3 n=28 v=0
17879 On ch=3 n=30 v=117
17954 On ch=3 n=30 v=0
17967 On ch=3 n=28 v=100
17982 On ch=3 n=28 v=0
17996 On ch=3 n=31 v=117
18077 On ch=3 n=31 v=0
18087 On ch=3 n=31 v=80
18111 On ch=3 n=31 v=0
18117 On ch=3 n=33 v=109
18147 On ch=3 n=35 v=86
18151 On ch=3 n=33 v=0
18179 On ch=3 n=38 v=61
18183 On ch=3 n=35 v=0
18211 On ch=3 n=40 v=100
18218 On ch=3 n=38 v=0
18237 On ch=3 n=40 v=0
18242 On ch=3 n=28 v=117
18314 On ch=3 n=28 v=0
18332 On ch=3 n=28 v=80
18353 On ch=3 n=28 v=0
18361 On ch=3 n=30 v=117
18440 On ch=3 n=30 v=0
18451 On ch=3 n=28 v=105
18466 On ch=3 n=28 v=0
18480 On ch=3 n=31 v=117
18554 On ch=3 n=31 v=0
18569 On ch=3 n=31 v=79
18593 On ch=3 n=31 v=0
18597 On ch=3 n=33 v=109
18630 On ch=3 n=33 v=0
18631 On ch=3 n=35 v=91
18657 On ch=3 n=35 v=0
18659 On ch=3 n=38 v=65
18691 On ch=3 n=40 v=98
18700 On ch=3 n=38 v=0
18715 On ch=3 n=40 v=0
18721 On ch=3 n=28 v=117
18791 On ch=3 n=28 v=0
18813 On ch=3 n=28 v=79
18835 On ch=3 n=28 v=0
18842 On ch=3 n=30 v=117
18882 On ch=3 n=30 v=0
18903 On ch=3 n=33 v=117
19011 On ch=3 n=33 v=0
19021 On ch=3 n=33 v=117
19067 On ch=3 n=33 v=0
19080 On ch=3 n=35 v=117
19183 On ch=3 n=35 v=0
19200 On ch=3 n=36 v=117
19303 On ch=3 n=36 v=0
19318 On ch=3 n=38 v=113
19424 On ch=3 n=38 v=0
19439 On ch=3 n=40 v=100
19538 On ch=3 n=40 v=0
19559 On ch=3 n=38 v=100
19607 On ch=3 n=38 v=0
19622 On ch=3 n=36 v=117
19912 On ch=3 n=36 v=0
19918 On ch=3 n=35 v=117
20160 On ch=3 n=33 v=117
20163 On ch=3 n=35 v=0
20397 On ch=3 n=33 v=0
20401 On ch=3 n=31 v=117
20581 On ch=3 n=31 v=0
20654 On ch=3 n=41 v=115
20814 On ch=3 n=41 v=0
20820 On ch=3 n=40 v=117
20984 On ch=3 n=40 v=0
21002 On ch=3 n=38 v=117
21168 On ch=3 n=38 v=0
21181 On ch=3 n=36 v=105
21349 On ch=3 n=36 v=0
21359 On ch=3 n=35 v=117
21419 On ch=3 n=36 v=117
21423 On ch=3 n=35 v=0
21474 On ch=3 n=36 v=0
21477 On ch=3 n=38 v=117
21601 On ch=3 n=31 v=113
21613 On ch=3 n=38 v=0
21705 On ch=3 n=31 v=0
24960 On ch=3 n=31 v=100
25021 On ch=3 n=31 v=0
25079 On ch=3 n=31 v=98
25140 On ch=3 n=31 v=0
25199 On ch=3 n=31 v=116
25274 On ch=3 n=31 v=0
25320 On ch=3 n=31 v=117
25354 On ch=3 n=31 v=0
25379 On ch=3 n=31 v=105
25443 On ch=3 n=31 v=0
25500 On ch=3 n=31 v=117
25564 On ch=3 n=31 v=0
25619 On ch=3 n=31 v=117
25658 On ch=3 n=31 v=0
25679 On ch=3 n=31 v=86
25711 On ch=3 n=31 v=0
25738 On ch=3 n=31 v=105
25795 On ch=3 n=31 v=0
25798 On ch=3 n=29 v=117
25855 On ch=3 n=29 v=0
25858 On ch=3 n=26 v=105
25906 On ch=3 n=26 v=0
25921 On ch=3 n=31 v=98
25978 On ch=3 n=31 v=0
26039 On ch=3 n=31 v=105
26096 On ch=3 n=31 v=0
26159 On ch=3 n=31 v=117
26219 On ch=3 n=29 v=116
26220 On ch=3 n=31 v=0
26274 On ch=3 n=29 v=0
26279 On ch=3 n=31 v=116
26334 On ch=3 n=31 v=0
26339 On ch=3 n=29 v=117
26437 On ch=3 n=29 v=0
26459 On ch=3 n=28 v=95
26567 On ch=3 n=28 v=0
26579 On ch=3 n=26 v=95
26632 On ch=3 n=26 v=0
26639 On ch=3 n=31 v=113
26693 On ch=3 n=31 v=0
26759 On ch=3 n=31 v=116
26829 On ch=3 n=31 v=0
26881 On ch=3 n=31 v=109
26938 On ch=3 n=31 v=0
26939 On ch=3 n=26 v=75
26996 On ch=3 n=26 v=0
27001 On ch=3 n=29 v=88
27062 On ch=3 n=29 v=0
27062 On ch=3 n=31 v=98
27126 On ch=3 n=31 v=0
27181 On ch=3 n=31 v=116
27245 On ch=3 n=31 v=0
27301 On ch=3 n=31 v=117
27392 On ch=3 n=31 v=0
27421 On ch=3 n=31 v=116
27482 On ch=3 n=29 v=91
27485 On ch=3 n=31 v=0
27539 On ch=3 n=29 v=0
27541 On ch=3 n=26 v=98
27598 On ch=3 n=26 v=0
27600 On ch=3 n=31 v=117
27664 On ch=3 n=31 v=0
27718 On ch=3 n=31 v=117
27784 On ch=3 n=31 v=0
27842 On ch=3 n=31 v=95
27901 On ch=3 n=26 v=84
27902 On ch=3 n=31 v=0
27953 On ch=3 n=26 v=0
27959 On ch=3 n=31 v=113
28014 On ch=3 n=31 v=0
28019 On ch=3 n=29 v=117
28111 On ch=3 n=29 v=0
28137 On ch=3 n=29 v=116
28194 On ch=3 n=29 v=0
28197 On ch=3 n=31 v=113
28257 On ch=3 n=31 v=0
28263 On ch=3 n=28 v=95
28742 On ch=3 n=40 v=117
28751 On ch=3 n=28 v=0
29212 On ch=3 n=40 v=0
29223 On ch=3 n=28 v=117
29355 On ch=3 n=28 v=0
29374 On ch=3 n=28 v=88
29391 On ch=3 n=28 v=0
29402 On ch=3 n=30 v=109
29493 On ch=3 n=30 v=0
29494 On ch=3 n=28 v=109
29510 On ch=3 n=28 v=0
29523 On ch=3 n=31 v=117
29586 On ch=3 n=31 v=0
29606 On ch=3 n=31 v=100
29630 On ch=3 n=31 v=0
29636 On ch=3 n=33 v=100
29665 On ch=3 n=33 v=0
29668 On ch=3 n=36 v=72
29692 On ch=3 n=36 v=0
29696 On ch=3 n=38 v=74
29727 On ch=3 n=40 v=100
29729 On ch=3 n=38 v=0
29751 On ch=3 n=40 v=0
29757 On ch=3 n=28 v=117
29836 On ch=3 n=28 v=0
29854 On ch=3 n=28 v=98
29873 On ch=3 n=28 v=0
29883 On ch=3 n=30 v=117
29958 On ch=3 n=30 v=0
29971 On ch=3 n=28 v=105
29991 On ch=3 n=28 v=0
30001 On ch=3 n=31 v=117
30080 On ch=3 n=31 v=0
30091 On ch=3 n=31 v=109
30113 On ch=3 n=31 v=0
30119 On ch=3 n=33 v=109
30151 On ch=3 n=35 v=109
30153 On ch=3 n=33 v=0
30175 On ch=3 n=35 v=0
30182 On ch=3 n=38 v=70
30211 On ch=3 n=40 v=98
30220 On ch=3 n=38 v=0
30235 On ch=3 n=40 v=0
30240 On ch=3 n=28 v=116
30308 On ch=3 n=28 v=0
30330 On ch=3 n=28 v=77
30350 On ch=3 n=28 v=0
30358 On ch=3 n=30 v=100
30451 On ch=3 n=28 v=95
30452 On ch=3 n=30 v=0
30466 On ch=3 n=28 v=0
30479 On ch=3 n=31 v=117
30571 On ch=3 n=28 v=98
30575 On ch=3 n=31 v=0
30589 On ch=3 n=28 v=0
30600 On ch=3 n=33 v=109
30658 On ch=3 n=33 v=0
30661 On ch=3 n=35 v=113
31140 On ch=3 n=35 v=0
31143 On ch=3 n=28 v=117
31275 On ch=3 n=28 v=0
31294 On ch=3 n=28 v=88
31311 On ch=3 n=28 v=0
31322 On ch=3 n=30 v=109
31413 On ch=3 n=30 v=0
31414 On ch=3 n=28 v=109
31430 On ch=3 n=28 v=0
31443 On ch=3 n=31 v=117
31506 On ch=3 n=31 v=0
31526 On ch=3 n=31 v=100
31550 On ch=3 n=31 v=0
31556 On ch=3 n=33 v=100
31585 On ch=3 n=33 v=0
31588 On ch=3 n=36 v=72
31612 On ch=3 n=36 v=0
31616 On ch=3 n=38 v=74
31647 On ch=3 n=40 v=100
31649 On ch=3 n=38 v=0
31671 On ch=3 n=40 v=0
31677 On ch=3 n=28 v=117
31756 On ch=3 n=28 v=0
31774 On ch=3 n=28 v=98
31793 On ch=3 n=28 v=0
31803 On ch=3 n=30 v=117
31878 On ch=3 n=30 v=0
31891 On ch=3 n=28 v=105
31911 On ch=3 n=28 v=0
31921 On ch=3 n=31 v=117
32000 On ch=3 n=31 v=0
32011 On ch=3 n=31 v=109
32033 On ch=3 n=31 v=0
32039 On ch=3 n=33 v=109
32071 On ch=3 n=35 v=109
32073 On ch=3 n=33 v=0
32095 On ch=3 n=35 v=0
32102 On ch=3 n=38 v=70
32131 On ch=3 n=40 v=98
32140 On ch=3 n=38 v=0
32155 On ch=3 n=40 v=0
32160 On ch=3 n=28 v=95
32225 On ch=3 n=28 v=0
32280 On ch=3 n=36 v=109
32326 On ch=3 n=36 v=0
32342 On ch=3 n=36 v=95
32397 On ch=3 n=36 v=0
32522 On ch=3 n=35 v=117
32577 On ch=3 n=35 v=0
32701 On ch=3 n=33 v=117
32754 On ch=3 n=33 v=0
32878 On ch=3 n=31 v=117
32943 On ch=3 n=31 v=0
33061 On ch=3 n=30 v=117
33104 On ch=3 n=30 v=0
33121 On ch=3 n=28 v=117
33191 On ch=3 n=28 v=0
33212 On ch=3 n=28 v=80
33213 On ch=3 n=28 v=0
33243 On ch=3 n=30 v=117
33326 On ch=3 n=30 v=0
33334 On ch=3 n=28 v=109
33346 On ch=3 n=28 v=0
33363 On ch=3 n=31 v=117
33436 On ch=3 n=31 v=0
33451 On ch=3 n=31 v=103
33470 On ch=3 n=31 v=0
33480 On ch=3 n=33 v=95
33508 On ch=3 n=35 v=88
33509 On ch=3 n=33 v=0
33539 On ch=3 n=38 v=75
33544 On ch=3 n=35 v=0
33569 On ch=3 n=38 v=0
33571 On ch=3 n=40 v=86
33590 On ch=3 n=40 v=0
33601 On ch=3 n=28 v=117
33671 On ch=3 n=28 v=0
33692 On ch=3 n=28 v=110
33708 On ch=3 n=28 v=0
33720 On ch=3 n=30 v=117
33806 On ch=3 n=30 v=0
33812 On ch=3 n=28 v=109
33826 On ch=3 n=28 v=0
33841 On ch=3 n=31 v=117
33916 On ch=3 n=31 v=0
33928 On ch=3 n=31 v=103
33955 On ch=3 n=31 v=0
33957 On ch=3 n=33 v=105
33988 On ch=3 n=35 v=88
33995 On ch=3 n=33 v=0
34019 On ch=3 n=38 v=78
34024 On ch=3 n=35 v=0
34051 On ch=3 n=40 v=86
34063 On ch=3 n=38 v=0
34073 On ch=3 n=40 v=0
34082 On ch=3 n=28 v=113
34149 On ch=3 n=28 v=0
34174 On ch=3 n=28 v=79
34193 On ch=3 n=28 v=0
34201 On ch=3 n=30 v=116
34280 On ch=3 n=30 v=0
34291 On ch=3 n=28 v=113
34310 On ch=3 n=28 v=0
34319 On ch=3 n=31 v=117
34399 On ch=3 n=31 v=0
34408 On ch=3 n=31 v=98
34437 On ch=3 n=33 v=98
34449 On ch=3 n=31 v=0
34468 On ch=3 n=35 v=86
34470 On ch=3 n=33 v=0
34498 On ch=3 n=38 v=66
34502 On ch=3 n=35 v=0
34529 On ch=3 n=40 v=105
34544 On ch=3 n=38 v=0
34553 On ch=3 n=40 v=0
34562 On ch=3 n=28 v=100
34622 On ch=3 n=28 v=0
34651 On ch=3 n=28 v=80
34670 On ch=3 n=28 v=0
34679 On ch=3 n=30 v=117
34754 On ch=3 n=30 v=0
34767 On ch=3 n=28 v=100
34782 On ch=3 n=28 v=0
34796 On ch=3 n=31 v=117
34877 On ch=3 n=31 v=0
34890 On ch=3 n=31 v=80
34914 On ch=3 n=31 v=0
34917 On ch=3 n=33 v=109
34947 On ch=3 n=35 v=86
34951 On ch=3 n=33 v=0
34979 On ch=3 n=38 v=61
34983 On ch=3 n=35 v=0
35011 On ch=3 n=40 v=100
35018 On ch=3 n=38 v=0
35037 On ch=3 n=40 v=0
35042 On ch=3 n=28 v=117
35114 On ch=3 n=28 v=0
35132 On ch=3 n=28 v=80
35132 On ch=3 n=28 v=80
35153 On ch=3 n=28 v=0
35153 On ch=3 n=28 v=0
35161 On ch=3 n=30 v=117
35240 On ch=3 n=30 v=0
35251 On ch=3 n=28 v=105
35266 On ch=3 n=28 v=0
35280 On ch=3 n=31 v=117
35354 On ch=3 n=31 v=0
35369 On ch=3 n=31 v=79
35393 On ch=3 n=31 v=0
35397 On ch=3 n=33 v=109
35430 On ch=3 n=33 v=0
35431 On ch=3 n=35 v=91
35431 On ch=3 n=35 v=91
35457 On ch=3 n=35 v=0
35457 On ch=3 n=35 v=0
35459 On ch=3 n=38 v=65
35491 On ch=3 n=40 v=98
35500 On ch=3 n=38 v=0
35515 On ch=3 n=40 v=0
35521 On ch=3 n=28 v=117
35591 On ch=3 n=28 v=0
35613 On ch=3 n=28 v=79
35635 On ch=3 n=28 v=0
35642 On ch=3 n=30 v=117
35682 On ch=3 n=30 v=0
35703 On ch=3 n=33 v=117
35811 On ch=3 n=33 v=0
35821 On ch=3 n=33 v=117
35867 On ch=3 n=33 v=0
35880 On ch=3 n=35 v=117
35983 On ch=3 n=35 v=0
36000 On ch=3 n=36 v=117
36103 On ch=3 n=36 v=0
36118 On ch=3 n=38 v=113
36224 On ch=3 n=38 v=0
36239 On ch=3 n=40 v=100
36338 On ch=3 n=40 v=0
36359 On ch=3 n=38 v=100
36407 On ch=3 n=38 v=0
36422 On ch=3 n=36 v=117
36712 On ch=3 n=36 v=0
36718 On ch=3 n=35 v=117
36960 On ch=3 n=33 v=117
36963 On ch=3 n=35 v=0
37197 On ch=3 n=33 v=0
37201 On ch=3 n=31 v=117
37381 On ch=3 n=31 v=0
37452 On ch=3 n=41 v=109
37470 On ch=3 n=41 v=109
37643 On ch=3 n=41 v=0
37650 On ch=3 n=41 v=0
37650 On ch=3 n=40 v=117
37791 On ch=3 n=40 v=0
37802 On ch=3 n=38 v=117
37968 On ch=3 n=38 v=0
37981 On ch=3 n=36 v=105
38149 On ch=3 n=36 v=0
38159 On ch=3 n=35 v=117
38219 On ch=3 n=36 v=117
38223 On ch=3 n=35 v=0
38274 On ch=3 n=36 v=0
38277 On ch=3 n=38 v=117
38397 On ch=3 n=38 v=0
38401 On ch=3 n=31 v=109
38501 On ch=3 n=31 v=0
38821 On ch=3 n=29 v=117
38876 On ch=3 n=29 v=0
38878 On ch=3 n=31 v=95
38920 On ch=3 n=31 v=0
38939 On ch=3 n=31 v=91
38987 On ch=3 n=31 v=0
38999 On ch=3 n=31 v=98
39057 On ch=3 n=31 v=0
39301 On ch=3 n=29 v=117
39354 On ch=3 n=29 v=0
39362 On ch=3 n=31 v=113
39408 On ch=3 n=31 v=0
39422 On ch=3 n=31 v=90
39463 On ch=3 n=31 v=0
39481 On ch=3 n=31 v=88
39545 On ch=3 n=31 v=0
39661 On ch=3 n=29 v=116
39717 On ch=3 n=29 v=0
39722 On ch=3 n=31 v=113
39773 On ch=3 n=31 v=0
39779 On ch=3 n=29 v=116
39986 On ch=3 n=29 v=0
40019 On ch=3 n=29 v=105
40078 On ch=3 n=31 v=84
40083 On ch=3 n=29 v=0
40126 On ch=3 n=31 v=0
40139 On ch=3 n=31 v=88
40185 On ch=3 n=31 v=0
40199 On ch=3 n=31 v=109
40250 On ch=3 n=31 v=0
40501 On ch=3 n=29 v=117
40561 On ch=3 n=31 v=98
40562 On ch=3 n=29 v=0
40604 On ch=3 n=31 v=0
40621 On ch=3 n=31 v=100
40675 On ch=3 n=31 v=0
40861 On ch=3 n=29 v=117
40892 On ch=3 n=29 v=0
40979 On ch=3 n=29 v=117
41039 On ch=3 n=31 v=116
41045 On ch=3 n=29 v=0
41088 On ch=3 n=31 v=0
41100 On ch=3 n=31 v=103
41144 On ch=3 n=31 v=0
41161 On ch=3 n=31 v=113
41209 On ch=3 n=31 v=0
41341 On ch=3 n=29 v=117
41401 On ch=3 n=31 v=113
41405 On ch=3 n=29 v=0
41455 On ch=3 n=31 v=0
41459 On ch=3 n=29 v=117
41682 On ch=3 n=29 v=0
41701 On ch=3 n=29 v=117
41744 On ch=3 n=29 v=0
41760 On ch=3 n=31 v=100
41821 On ch=3 n=31 v=0
41879 On ch=3 n=31 v=98
41940 On ch=3 n=31 v=0
41999 On ch=3 n=31 v=116
42074 On ch=3 n=31 v=0
42120 On ch=3 n=31 v=117
42154 On ch=3 n=31 v=0
42179 On ch=3 n=31 v=105
42243 On ch=3 n=31 v=0
42300 On ch=3 n=31 v=117
42364 On ch=3 n=31 v=0
42419 On ch=3 n=31 v=117
42458 On ch=3 n=31 v=0
42479 On ch=3 n=31 v=86
42511 On ch=3 n=31 v=0
42538 On ch=3 n=31 v=105
42595 On ch=3 n=31 v=0
42598 On ch=3 n=29 v=117
42655 On ch=3 n=29 v=0
42658 On ch=3 n=26 v=105
42706 On ch=3 n=26 v=0
42721 On ch=3 n=31 v=98
42778 On ch=3 n=31 v=0
42839 On ch=3 n=31 v=105
42896 On ch=3 n=31 v=0
42959 On ch=3 n=31 v=117
43019 On ch=3 n=29 v=116
43020 On ch=3 n=31 v=0
43074 On ch=3 n=29 v=0
43079 On ch=3 n=31 v=116
43134 On ch=3 n=31 v=0
43139 On ch=3 n=29 v=117
43237 On ch=3 n=29 v=0
43259 On ch=3 n=28 v=95
43367 On ch=3 n=28 v=0
43379 On ch=3 n=26 v=95
43432 On ch=3 n=26 v=0
43439 On ch=3 n=31 v=113
43493 On ch=3 n=31 v=0
43559 On ch=3 n=31 v=116
43629 On ch=3 n=31 v=0
43681 On ch=3 n=31 v=109
43738 On ch=3 n=31 v=0
43739 On ch=3 n=26 v=75
43796 On ch=3 n=26 v=0
43801 On ch=3 n=29 v=88
43862 On ch=3 n=29 v=0
43862 On ch=3 n=31 v=98
43926 On ch=3 n=31 v=0
43981 On ch=3 n=31 v=116
44045 On ch=3 n=31 v=0
44101 On ch=3 n=31 v=117
44192 On ch=3 n=31 v=0
44221 On ch=3 n=31 v=116
44281 On ch=3 n=29 v=91
44285 On ch=3 n=31 v=0
44338 On ch=3 n=29 v=0
44341 On ch=3 n=26 v=98
44398 On ch=3 n=26 v=0
44400 On ch=3 n=31 v=117
44464 On ch=3 n=31 v=0
44519 On ch=3 n=31 v=117
44585 On ch=3 n=31 v=0
44701 On ch=3 n=40 v=113
44755 On ch=3 n=40 v=0
44761 On ch=3 n=43 v=109
44820 On ch=3 n=41 v=117
44825 On ch=3 n=43 v=0
45061 On ch=3 n=40 v=117
45066 On ch=3 n=41 v=0
45421 On ch=3 n=38 v=117
45432 On ch=3 n=40 v=0
45481 On ch=3 n=40 v=116
45485 On ch=3 n=38 v=0
45535 On ch=3 n=40 v=0
45540 On ch=3 n=28 v=117
46560 On ch=3 n=28 v=0
46560 On ch=3 n=28 v=95
46625 On ch=3 n=28 v=0
46680 On ch=3 n=36 v=109
46726 On ch=3 n=36 v=0
46742 On ch=3 n=36 v=95
46797 On ch=3 n=36 v=0
46922 On ch=3 n=35 v=117
46977 On ch=3 n=35 v=0
47101 On ch=3 n=33 v=117
47154 On ch=3 n=33 v=0
47278 On ch=3 n=31 v=117
47343 On ch=3 n=31 v=0
47461 On ch=3 n=30 v=117
47504 On ch=3 n=30 v=0
47524 On ch=3 n=28 v=113
47605 On ch=3 n=30 v=92
47610 On ch=3 n=28 v=0
47676 On ch=3 n=30 v=0
47682 On ch=3 n=31 v=95
47756 On ch=3 n=31 v=0
47759 On ch=3 n=33 v=117
47989 On ch=3 n=33 v=0
47999 On ch=3 n=35 v=103
48067 On ch=3 n=35 v=0
48078 On ch=3 n=33 v=90
48146 On ch=3 n=33 v=0
48158 On ch=3 n=31 v=117
48229 On ch=3 n=31 v=0
48240 On ch=3 n=33 v=117
48470 On ch=3 n=33 v=0
48479 On ch=3 n=35 v=100
48545 On ch=3 n=35 v=0
48562 On ch=3 n=33 v=88
48633 On ch=3 n=33 v=0
48638 On ch=3 n=31 v=117
48706 On ch=3 n=31 v=0
48717 On ch=3 n=33 v=117
48793 On ch=3 n=33 v=0
48798 On ch=3 n=31 v=117
48871 On ch=3 n=31 v=0
48871 On ch=3 n=30 v=113
48929 On ch=3 n=30 v=0
48947 On ch=3 n=31 v=113
48979 On ch=3 n=30 v=116
48989 On ch=3 n=31 v=0
49007 On ch=3 n=30 v=0
49013 On ch=3 n=28 v=117
49345 On ch=3 n=28 v=0
49444 On ch=3 n=28 v=113
49525 On ch=3 n=30 v=92
49530 On ch=3 n=28 v=0
49596 On ch=3 n=30 v=0
49602 On ch=3 n=31 v=95
49676 On ch=3 n=31 v=0
49679 On ch=3 n=33 v=117
49909 On ch=3 n=33 v=0
49919 On ch=3 n=35 v=103
49987 On ch=3 n=35 v=0
49998 On ch=3 n=33 v=90
50066 On ch=3 n=33 v=0
50078 On ch=3 n=31 v=117
50149 On ch=3 n=31 v=0
50160 On ch=3 n=33 v=117
50390 On ch=3 n=33 v=0
50399 On ch=3 n=35 v=100
50465 On ch=3 n=35 v=0
50482 On ch=3 n=33 v=88
50553 On ch=3 n=33 v=0
50558 On ch=3 n=31 v=117
50626 On ch=3 n=31 v=0
50637 On ch=3 n=33 v=117
50713 On ch=3 n=33 v=0
50718 On ch=3 n=31 v=117
50791 On ch=3 n=31 v=0
50791 On ch=3 n=30 v=113
50849 On ch=3 n=30 v=0
50867 On ch=3 n=31 v=113
50899 On ch=3 n=30 v=116
50909 On ch=3 n=31 v=0
50927 On ch=3 n=30 v=0
50933 On ch=3 n=28 v=117
51265 On ch=3 n=28 v=0
51364 On ch=3 n=28 v=113
51445 On ch=3 n=30 v=92
51450 On ch=3 n=28 v=0
51516 On ch=3 n=30 v=0
51522 On ch=3 n=31 v=95
51596 On ch=3 n=31 v=0
51599 On ch=3 n=33 v=117
51829 On ch=3 n=33 v=0
51839 On ch=3 n=35 v=103
51907 On ch=3 n=35 v=0
51918 On ch=3 n=33 v=90
51986 On ch=3 n=33 v=0
51998 On ch=3 n=31 v=117
52069 On ch=3 n=31 v=0
52080 On ch=3 n=33 v=117
52310 On ch=3 n=33 v=0
52319 On ch=3 n=35 v=100
52385 On ch=3 n=35 v=0
52402 On ch=3 n=33 v=88
52473 On ch=3 n=33 v=0
52478 On ch=3 n=31 v=117
52546 On ch=3 n=31 v=0
52557 On ch=3 n=33 v=117
52633 On ch=3 n=33 v=0
52638 On ch=3 n=31 v=117
52711 On ch=3 n=31 v=0
52711 On ch=3 n=30 v=113
52769 On ch=3 n=30 v=0
52787 On ch=3 n=31 v=113
52819 On ch=3 n=30 v=116
52829 On ch=3 n=31 v=0
52847 On ch=3 n=30 v=0
52853 On ch=3 n=28 v=117
53185 On ch=3 n=28 v=0
53284 On ch=3 n=28 v=113
53365 On ch=3 n=30 v=92
53370 On ch=3 n=28 v=0
53436 On ch=3 n=30 v=0
53442 On ch=3 n=31 v=95
53516 On ch=3 n=31 v=0
53519 On ch=3 n=33 v=117
53749 On ch=3 n=33 v=0
53759 On ch=3 n=35 v=103
53827 On ch=3 n=35 v=0
53838 On ch=3 n=33 v=90
53906 On ch=3 n=33 v=0
53918 On ch=3 n=31 v=117
53989 On ch=3 n=31 v=0
54000 On ch=3 n=33 v=117
54230 On ch=3 n=33 v=0
54239 On ch=3 n=35 v=100
54305 On ch=3 n=35 v=0
54322 On ch=3 n=33 v=88
54393 On ch=3 n=33 v=0
54398 On ch=3 n=31 v=117
54466 On ch=3 n=31 v=0
54477 On ch=3 n=33 v=117
54553 On ch=3 n=33 v=0
54558 On ch=3 n=31 v=117
54631 On ch=3 n=31 v=0
54631 On ch=3 n=30 v=113
54689 On ch=3 n=30 v=0
54707 On ch=3 n=31 v=113
54739 On ch=3 n=30 v=116
54749 On ch=3 n=31 v=0
54767 On ch=3 n=30 v=0
54773 On ch=3 n=28 v=117
55105 On ch=3 n=28 v=0
55204 On ch=3 n=28 v=113
55285 On ch=3 n=30 v=92
55290 On ch=3 n=28 v=0
55356 On ch=3 n=30 v=0
55362 On ch=3 n=31 v=95
55436 On ch=3 n=31 v=0
55439 On ch=3 n=33 v=117
55669 On ch=3 n=33 v=0
55679 On ch=3 n=35 v=103
55747 On ch=3 n=35 v=0
55758 On ch=3 n=33 v=90
55826 On ch=3 n=33 v=0
55838 On ch=3 n=31 v=117
55909 On ch=3 n=31 v=0
55920 On ch=3 n=33 v=117
56150 On ch=3 n=33 v=0
56159 On ch=3 n=35 v=100
56225 On ch=3 n=35 v=0
56242 On ch=3 n=33 v=88
56313 On ch=3 n=33 v=0
56318 On ch=3 n=31 v=117
56386 On ch=3 n=31 v=0
56397 On ch=3 n=33 v=117
56473 On ch=3 n=33 v=0
56478 On ch=3 n=31 v=117
56551 On ch=3 n=31 v=0
56551 On ch=3 n=30 v=113
56609 On ch=3 n=30 v=0
56627 On ch=3 n=31 v=113
56659 On ch=3 n=30 v=116
56669 On ch=3 n=31 v=0
56687 On ch=3 n=30 v=0
56693 On ch=3 n=28 v=117
57025 On ch=3 n=28 v=0
57124 On ch=3 n=28 v=113
57205 On ch=3 n=30 v=92
57210 On ch=3 n=28 v=0
57276 On ch=3 n=30 v=0
57282 On ch=3 n=31 v=95
57356 On ch=3 n=31 v=0
57359 On ch=3 n=33 v=117
57589 On ch=3 n=33 v=0
57599 On ch=3 n=35 v=103
57667 On ch=3 n=35 v=0
57678 On ch=3 n=33 v=90
57746 On ch=3 n=33 v=0
57758 On ch=3 n=31 v=117
57829 On ch=3 n=31 v=0
57840 On ch=3 n=33 v=117
58070 On ch=3 n=33 v=0
58079 On ch=3 n=35 v=100
58145 On ch=3 n=35 v=0
58162 On ch=3 n=33 v=88
58233 On ch=3 n=33 v=0
58238 On ch=3 n=31 v=117
58306 On ch=3 n=31 v=0
58317 On ch=3 n=33 v=117
58393 On ch=3 n=33 v=0
58398 On ch=3 n=31 v=117
58471 On ch=3 n=31 v=0
58471 On ch=3 n=30 v=113
58529 On ch=3 n=30 v=0
58547 On ch=3 n=31 v=113
58579 On ch=3 n=30 v=116
58589 On ch=3 n=31 v=0
58607 On ch=3 n=30 v=0
58613 On ch=3 n=28 v=117
58945 On ch=3 n=28 v=0
59044 On ch=3 n=28 v=113
59125 On ch=3 n=30 v=92
59130 On ch=3 n=28 v=0
59196 On ch=3 n=30 v=0
59202 On ch=3 n=31 v=95
59276 On ch=3 n=31 v=0
59279 On ch=3 n=33 v=117
59509 On ch=3 n=33 v=0
59519 On ch=3 n=35 v=103
59587 On ch=3 n=35 v=0
59598 On ch=3 n=33 v=90
59666 On ch=3 n=33 v=0
59678 On ch=3 n=31 v=117
59749 On ch=3 n=31 v=0
59760 On ch=3 n=33 v=117
59990 On ch=3 n=33 v=0
59999 On ch=3 n=35 v=100
60065 On ch=3 n=35 v=0
60082 On ch=3 n=33 v=88
60153 On ch=3 n=33 v=0
60158 On ch=3 n=31 v=117
60226 On ch=3 n=31 v=0
60237 On ch=3 n=33 v=117
60313 On ch=3 n=33 v=0
60318 On ch=3 n=31 v=117
60391 On ch=3 n=31 v=0
60391 On ch=3 n=30 v=113
60449 On ch=3 n=30 v=0
60467 On ch=3 n=31 v=113
60499 On ch=3 n=30 v=116
60509 On ch=3 n=31 v=0
60527 On ch=3 n=30 v=0
60533 On ch=3 n=28 v=117
60865 On ch=3 n=28 v=0
60964 On ch=3 n=28 v=113
61045 On ch=3 n=30 v=92
61050 On ch=3 n=28 v=0
61116 On ch=3 n=30 v=0
61122 On ch=3 n=31 v=95
61196 On ch=3 n=31 v=0
61199 On ch=3 n=33 v=117
61429 On ch=3 n=33 v=0
61439 On ch=3 n=35 v=103
61507 On ch=3 n=35 v=0
61518 On ch=3 n=33 v=90
61586 On ch=3 n=33 v=0
61598 On ch=3 n=31 v=117
61669 On ch=3 n=31 v=0
61680 On ch=3 n=33 v=117
61910 On ch=3 n=33 v=0
61919 On ch=3 n=35 v=100
61985 On ch=3 n=35 v=0
62002 On ch=3 n=33 v=88
62073 On ch=3 n=33 v=0
62078 On ch=3 n=31 v=117
62146 On ch=3 n=31 v=0
62157 On ch=3 n=33 v=117
62233 On ch=3 n=33 v=0
62238 On ch=3 n=31 v=117
62311 On ch=3 n=31 v=0
62311 On ch=3 n=30 v=113
62369 On ch=3 n=30 v=0
62387 On ch=3 n=31 v=113
62419 On ch=3 n=30 v=116
62429 On ch=3 n=31 v=0
62447 On ch=3 n=30 v=0
62453 On ch=3 n=28 v=117
62785 On ch=3 n=28 v=0
62884 On ch=3 n=28 v=113
62965 On ch=3 n=30 v=92
62970 On ch=3 n=28 v=0
63036 On ch=3 n=30 v=0
63042 On ch=3 n=31 v=95
63116 On ch=3 n=31 v=0
63119 On ch=3 n=33 v=117
63349 On ch=3 n=33 v=0
63359 On ch=3 n=35 v=103
63427 On ch=3 n=35 v=0
63438 On ch=3 n=33 v=90
63506 On ch=3 n=33 v=0
63518 On ch=3 n=31 v=117
63589 On ch=3 n=31 v=0
63600 On ch=3 n=33 v=117
63830 On ch=3 n=33 v=0
63839 On ch=3 n=35 v=100
63905 On ch=3 n=35 v=0
63922 On ch=3 n=33 v=88
63993 On ch=3 n=33 v=0
63998 On ch=3 n=31 v=117
64066 On ch=3 n=31 v=0
64077 On ch=3 n=33 v=117
64153 On ch=3 n=33 v=0
64158 On ch=3 n=31 v=117
64231 On ch=3 n=31 v=0
64231 On ch=3 n=30 v=113
64289 On ch=3 n=30 v=0
64307 On ch=3 n=31 v=113
64339 On ch=3 n=30 v=116
64349 On ch=3 n=31 v=0
64367 On ch=3 n=30 v=0
64373 On ch=3 n=28 v=117
64705 On ch=3 n=28 v=0
64804 On ch=3 n=28 v=113
64885 On ch=3 n=30 v=92
64890 On ch=3 n=28 v=0
64956 On ch=3 n=30 v=0
64962 On ch=3 n=31 v=95
65036 On ch=3 n=31 v=0
65039 On ch=3 n=33 v=117
65269 On ch=3 n=33 v=0
65279 On ch=3 n=35 v=103
65347 On ch=3 n=35 v=0
65358 On ch=3 n=33 v=90
65426 On ch=3 n=33 v=0
65438 On ch=3 n=31 v=117
65509 On ch=3 n=31 v=0
65520 On ch=3 n=33 v=117
65750 On ch=3 n=33 v=0
65759 On ch=3 n=35 v=100
65825 On ch=3 n=35 v=0
65842 On ch=3 n=33 v=88
65913 On ch=3 n=33 v=0
65918 On ch=3 n=31 v=117
65986 On ch=3 n=31 v=0
65997 On ch=3 n=33 v=117
66073 On ch=3 n=33 v=0
66078 On ch=3 n=31 v=117
66151 On ch=3 n=31 v=0
66151 On ch=3 n=30 v=113
66209 On ch=3 n=30 v=0
66227 On ch=3 n=31 v=113
66259 On ch=3 n=30 v=116
66269 On ch=3 n=31 v=0
66287 On ch=3 n=30 v=0
66293 On ch=3 n=28 v=117
66625 On ch=3 n=28 v=0
66724 On ch=3 n=28 v=113
66805 On ch=3 n=30 v=92
66810 On ch=3 n=28 v=0
66876 On ch=3 n=30 v=0
66882 On ch=3 n=31 v=95
66956 On ch=3 n=31 v=0
66959 On ch=3 n=33 v=117
67189 On ch=3 n=33 v=0
67199 On ch=3 n=35 v=103
67267 On ch=3 n=35 v=0
67278 On ch=3 n=33 v=90
67346 On ch=3 n=33 v=0
67358 On ch=3 n=31 v=117
67429 On ch=3 n=31 v=0
67440 On ch=3 n=33 v=117
67670 On ch=3 n=33 v=0
67679 On ch=3 n=35 v=100
67745 On ch=3 n=35 v=0
67762 On ch=3 n=33 v=88
67833 On ch=3 n=33 v=0
67838 On ch=3 n=31 v=117
67906 On ch=3 n=31 v=0
67917 On ch=3 n=33 v=117
67993 On ch=3 n=33 v=0
67998 On ch=3 n=31 v=117
68071 On ch=3 n=31 v=0
68071 On ch=3 n=30 v=113
68129 On ch=3 n=30 v=0
68147 On ch=3 n=31 v=113
68177 On ch=3 n=31 v=0
68179 On ch=3 n=30 v=116
68207 On ch=3 n=30 v=0
68213 On ch=3 n=28 v=117
68483 On ch=3 n=28 v=0
68518 On ch=3 n=28 v=109
68866 Par ch=3 c=11 v=126
68874 Par ch=3 c=11 v=125
68885 Par ch=3 c=11 v=124
68895 Par ch=3 c=11 v=123
68903 Par ch=3 c=11 v=122
68916 Par ch=3 c=11 v=121
68932 Par ch=3 c=11 v=120
68958 Par ch=3 c=11 v=119
68995 Par ch=3 c=11 v=118
69016 Par ch=3 c=11 v=117
69089 Par ch=3 c=11 v=116
69110 Par ch=3 c=11 v=115
69115 Par ch=3 c=11 v=114
69121 Par ch=3 c=11 v=113
69128 Par ch=3 c=11 v=112
69134 Par ch=3 c=11 v=111
69139 Par ch=3 c=11 v=110
69144 Par ch=3 c=11 v=109
69149 Par ch=3 c=11 v=108
69157 Par ch=3 c=11 v=107
69162 Par ch=3 c=11 v=106
69176 Par ch=3 c=11 v=105
69181 Par ch=3 c=11 v=104
69186 Par ch=3 c=11 v=103
69194 Par ch=3 c=11 v=102
69202 Par ch=3 c=11 v=101
69207 Par ch=3 c=11 v=100
69220 Par ch=3 c=11 v=99
69236 Par ch=3 c=11 v=98
69254 Par ch=3 c=11 v=97
69267 Par ch=3 c=11 v=96
69275 Par ch=3 c=11 v=95
69283 Par ch=3 c=11 v=94
69286 Par ch=3 c=11 v=93
69293 Par ch=3 c=11 v=92
69301 Par ch=3 c=11 v=91
69312 Par ch=3 c=11 v=90
69330 Par ch=3 c=11 v=89
69341 Par ch=3 c=11 v=88
69348 Par ch=3 c=11 v=87
69356 Par ch=3 c=11 v=86
69369 Par ch=3 c=11 v=85
69380 Par ch=3 c=11 v=84
69396 Par ch=3 c=11 v=83
69411 Par ch=3 c=11 v=82
69427 Par ch=3 c=11 v=81
69451 Par ch=3 c=11 v=80
69474 Par ch=3 c=11 v=79
69490 Par ch=3 c=11 v=78
69500 Par ch=3 c=11 v=77
69508 Par ch=3 c=11 v=76
69514 Par ch=3 c=11 v=75
69521 Par ch=3 c=11 v=74
69529 Par ch=3 c=11 v=73
69540 Par ch=3 c=11 v=72
69555 Par ch=3 c=11 v=71
69569 Par ch=3 c=11 v=70
69579 Par ch=3 c=11 v=69
69589 Par ch=3 c=11 v=68
69603 Par ch=3 c=11 v=67
69621 Par ch=3 c=11 v=66
69642 Par ch=3 c=11 v=65
69658 Par ch=3 c=11 v=64
69671 Par ch=3 c=11 v=63
69684 Par ch=3 c=11 v=62
69694 Par ch=3 c=11 v=61
69710 Par ch=3 c=11 v=60
69723 Par ch=3 c=11 v=59
69741 Par ch=3 c=11 v=58
69760 Par ch=3 c=11 v=57
69773 Par ch=3 c=11 v=56
69794 Par ch=3 c=11 v=55
69817 Par ch=3 c=11 v=54
69831 Par ch=3 c=11 v=53
69846 Par ch=3 c=11 v=52
69857 Par ch=3 c=11 v=51
69870 Par ch=3 c=11 v=50
69893 Par ch=3 c=11 v=49
69914 Par ch=3 c=11 v=48
69946 Par ch=3 c=11 v=47
69990 Par ch=3 c=11 v=46
70006 Par ch=3 c=11 v=45
70024 Par ch=3 c=11 v=44
70051 Par ch=3 c=11 v=43
70074 Par ch=3 c=11 v=42
70100 Par ch=3 c=11 v=41
70134 Par ch=3 c=11 v=40
70158 Par ch=3 c=11 v=39
70179 Par ch=3 c=11 v=38
70203 Par ch=3 c=11 v=37
70239 Par ch=3 c=11 v=36
70255 Par ch=3 c=11 v=35
70263 Par ch=3 c=11 v=34
70276 Par ch=3 c=11 v=33
70289 Par ch=3 c=11 v=32
70302 Par ch=3 c=11 v=31
70313 Par ch=3 c=11 v=30
70320 Par ch=3 c=11 v=29
70328 Par ch=3 c=11 v=28
70336 Par ch=3 c=11 v=27
70344 Par ch=3 c=11 v=26
70355 Par ch=3 c=11 v=25
70362 Par ch=3 c=11 v=24
70373 Par ch=3 c=11 v=23
70381 Par ch=3 c=11 v=22
70391 Par ch=3 c=11 v=21
70404 Par ch=3 c=11 v=20
70415 Par ch=3 c=11 v=19
70428 Par ch=3 c=11 v=18
70438 Par ch=3 c=11 v=17
70446 Par ch=3 c=11 v=16
70454 Par ch=3 c=11 v=15
70462 Par ch=3 c=11 v=14
70472 Par ch=3 c=11 v=13
70478 Par ch=3 c=11 v=12
70488 Par ch=3 c=11 v=11
70499 Par ch=3 c=11 v=10
70506 Par ch=3 c=11 v=9
70514 Par ch=3 c=11 v=8
70522 Par ch=3 c=11 v=7
70527 Par ch=3 c=11 v=6
70535 Par ch=3 c=11 v=5
70546 Par ch=3 c=11 v=4
70556 Par ch=3 c=11 v=3
70569 Par ch=3 c=11 v=2
70580 Par ch=3 c=11 v=1
70585 Par ch=3 c=11 v=0
70910 Par ch=3 c=11 v=1
70913 Par ch=3 c=11 v=2
70913 Par ch=3 c=11 v=3
70913 Par ch=3 c=11 v=5
70913 Par ch=3 c=11 v=6
70913 Par ch=3 c=11 v=7
70915 Par ch=3 c=11 v=9
70915 Par ch=3 c=11 v=10
70915 Par ch=3 c=11 v=12
70915 Par ch=3 c=11 v=13
70918 On ch=3 n=28 v=0
70918 Par ch=3 c=11 v=15
70918 Par ch=3 c=11 v=17
70918 Par ch=3 c=11 v=19
70918 Par ch=3 c=11 v=21
70920 Par ch=3 c=11 v=23
70920 Par ch=3 c=11 v=25
70920 Par ch=3 c=11 v=27
70920 Par ch=3 c=11 v=29
70920 Par ch=3 c=11 v=31
70923 Par ch=3 c=11 v=34
70923 Par ch=3 c=11 v=36
70923 Par ch=3 c=11 v=39
70923 Par ch=3 c=11 v=41
70926 Par ch=3 c=11 v=43
70926 Par ch=3 c=11 v=46
70926 Par ch=3 c=11 v=48
70926 Par ch=3 c=11 v=50
70926 Par ch=3 c=11 v=53
70931 Par ch=3 c=11 v=55
70931 Par ch=3 c=11 v=57
70931 Par ch=3 c=11 v=59
70931 Par ch=3 c=11 v=62
70931 Par ch=3 c=11 v=64
70931 Par ch=3 c=11 v=66
70931 Par ch=3 c=11 v=69
70931 Par ch=3 c=11 v=71
70931 Par ch=3 c=11 v=73
70936 Par ch=3 c=11 v=76
70936 Par ch=3 c=11 v=78
70936 Par ch=3 c=11 v=81
70936 Par ch=3 c=11 v=83
70936 Par ch=3 c=11 v=85
70936 Par ch=3 c=11 v=88
70936 Par ch=3 c=11 v=90
70936 Par ch=3 c=11 v=93
70936 Par ch=3 c=11 v=95
70941 Par ch=3 c=11 v=98
70941 Par ch=3 c=11 v=101
70941 Par ch=3 c=11 v=103
70941 Par ch=3 c=11 v=106
70941 Par ch=3 c=11 v=108
70941 Par ch=3 c=11 v=111
70941 Par ch=3 c=11 v=113
70941 Par ch=3 c=11 v=116
70941 Par ch=3 c=11 v=118
70947 Par ch=3 c=11 v=121
70947 Par ch=3 c=11 v=124
70947 Par ch=3 c=11 v=126
70947 Par ch=3 c=11 v=127
72718 On ch=3 n=34 v=81
72808 On ch=3 n=34 v=0
72809 On ch=3 n=36 v=92
72899 On ch=3 n=36 v=0
72899 On ch=3 n=38 v=98
72987 On ch=3 n=40 v=105
72992 On ch=3 n=38 v=0
73071 On ch=3 n=40 v=0
73071 On ch=3 n=41 v=109
73196 On ch=3 n=41 v=0
73197 On ch=3 n=43 v=109
73322 On ch=3 n=43 v=0
73322 On ch=3 n=41 v=105
73439 On ch=3 n=34 v=117
73440 On ch=3 n=41 v=0
73633 On ch=3 n=34 v=0
73636 On ch=3 n=27 v=116
74640 On ch=3 n=31 v=117
74641 On ch=3 n=27 v=0
74717 On ch=3 n=31 v=0
75538 On ch=3 n=29 v=117
75598 On ch=3 n=31 v=116
75599 On ch=3 n=29 v=0
75641 On ch=3 n=31 v=0
75661 On ch=3 n=31 v=116
75701 On ch=3 n=31 v=0
75722 On ch=3 n=31 v=117
75783 On ch=3 n=31 v=0
76022 On ch=3 n=29 v=117
76235 On ch=3 n=29 v=0
76261 On ch=3 n=29 v=103
76314 On ch=3 n=29 v=0
76321 On ch=3 n=31 v=117
76361 On ch=3 n=31 v=0
76381 On ch=3 n=31 v=100
76421 On ch=3 n=31 v=0
76442 On ch=3 n=31 v=117
76487 On ch=3 n=31 v=0
76739 On ch=3 n=29 v=117
76799 On ch=3 n=31 v=117
76800 On ch=3 n=29 v=0
76831 On ch=3 n=31 v=0
76858 On ch=3 n=31 v=105
76898 On ch=3 n=31 v=0
76919 On ch=3 n=31 v=117
76973 On ch=3 n=31 v=0
77220 On ch=3 n=29 v=117
77281 On ch=3 n=29 v=0
77281 On ch=3 n=31 v=117
77339 On ch=3 n=26 v=97
77341 On ch=3 n=31 v=0
77402 On ch=3 n=31 v=117
77414 On ch=3 n=26 v=0
77468 On ch=3 n=31 v=0
77518 On ch=3 n=31 v=117
77579 On ch=3 n=29 v=103
77584 On ch=3 n=31 v=0
77642 On ch=3 n=31 v=117
77643 On ch=3 n=29 v=0
77701 On ch=3 n=29 v=117
77709 On ch=3 n=31 v=0
77895 On ch=3 n=29 v=0
77941 On ch=3 n=29 v=117
78001 On ch=3 n=31 v=117
78002 On ch=3 n=29 v=0
78079 On ch=3 n=31 v=0
78121 On ch=3 n=31 v=117
78188 On ch=3 n=31 v=0
78241 On ch=3 n=31 v=117
78301 On ch=3 n=31 v=0
78302 On ch=3 n=29 v=117
78371 On ch=3 n=29 v=0
78422 On ch=3 n=31 v=117
78506 On ch=3 n=31 v=0
78512 On ch=3 n=31 v=115
78528 On ch=3 n=31 v=0
78542 On ch=3 n=31 v=90
78558 On ch=3 n=31 v=0
78571 On ch=3 n=31 v=102
78600 On ch=3 n=31 v=0
78601 On ch=3 n=35 v=117
78624 On ch=3 n=35 v=0
78631 On ch=3 n=35 v=111
78647 On ch=3 n=35 v=0
78659 On ch=3 n=35 v=107
78676 On ch=3 n=35 v=0
78688 On ch=3 n=35 v=103
78711 On ch=3 n=35 v=0
78719 On ch=3 n=36 v=117
78738 On ch=3 n=36 v=0
78748 On ch=3 n=36 v=109
78766 On ch=3 n=36 v=0
78778 On ch=3 n=36 v=102
78797 On ch=3 n=36 v=0
78807 On ch=3 n=36 v=99
78837 On ch=3 n=36 v=0
78837 On ch=3 n=38 v=117
78860 On ch=3 n=38 v=0
78867 On ch=3 n=38 v=102
78886 On ch=3 n=38 v=0
78898 On ch=3 n=38 v=109
78915 On ch=3 n=38 v=0
78928 On ch=3 n=38 v=99
78954 On ch=3 n=38 v=0
78958 On ch=3 n=41 v=114
78977 On ch=3 n=41 v=0
78988 On ch=3 n=41 v=102
79010 On ch=3 n=41 v=0
79019 On ch=3 n=41 v=104
79041 On ch=3 n=41 v=0
79048 On ch=3 n=41 v=102
79077 On ch=3 n=41 v=0
79079 On ch=3 n=45 v=115
79101 On ch=3 n=45 v=0
79109 On ch=3 n=45 v=103
79135 On ch=3 n=45 v=0
79139 On ch=3 n=45 v=107
79163 On ch=3 n=45 v=0
79169 On ch=3 n=45 v=104
79198 On ch=3 n=45 v=0
79201 On ch=3 n=46 v=117
79224 On ch=3 n=46 v=0
79230 On ch=3 n=46 v=103
79251 On ch=3 n=46 v=0
79259 On ch=3 n=46 v=117
79278 On ch=3 n=46 v=0
79289 On ch=3 n=46 v=102
79308 On ch=3 n=46 v=0
79320 On ch=3 n=41 v=117
79345 On ch=3 n=41 v=0
79351 On ch=3 n=41 v=101
79365 On ch=3 n=41 v=0
79380 On ch=3 n=41 v=96
79401 On ch=3 n=41 v=0
79409 On ch=3 n=41 v=101
79433 On ch=3 n=41 v=0
79441 On ch=3 n=31 v=117
79460 On ch=3 n=31 v=0
79471 On ch=3 n=31 v=111
79483 On ch=3 n=31 v=0
79501 On ch=3 n=31 v=104
79523 On ch=3 n=31 v=0
79529 On ch=3 n=31 v=102
79558 On ch=3 n=31 v=0
79559 On ch=3 n=35 v=113
79581 On ch=3 n=35 v=0
79589 On ch=3 n=35 v=107
79606 On ch=3 n=35 v=0
79619 On ch=3 n=35 v=107
79638 On ch=3 n=35 v=0
79648 On ch=3 n=35 v=103
79670 On ch=3 n=35 v=0
79678 On ch=3 n=36 v=109
79701 On ch=3 n=36 v=0
79707 On ch=3 n=36 v=102
79729 On ch=3 n=36 v=0
79738 On ch=3 n=36 v=101
79762 On ch=3 n=36 v=0
79768 On ch=3 n=36 v=104
79797 On ch=3 n=36 v=0
79799 On ch=3 n=38 v=117
79823 On ch=3 n=38 v=0
79828 On ch=3 n=38 v=111
79847 On ch=3 n=38 v=0
79859 On ch=3 n=38 v=113
79879 On ch=3 n=38 v=0
79888 On ch=3 n=38 v=111
79919 On ch=3 n=41 v=117
79920 On ch=3 n=38 v=0
79941 On ch=3 n=41 v=0
79950 On ch=3 n=41 v=107
79969 On ch=3 n=41 v=0
79979 On ch=3 n=41 v=102
79996 On ch=3 n=41 v=0
80009 On ch=3 n=41 v=105
80038 On ch=3 n=41 v=0
80039 On ch=3 n=45 v=117
80065 On ch=3 n=45 v=0
80069 On ch=3 n=45 v=115
80092 On ch=3 n=45 v=0
80099 On ch=3 n=45 v=113
80121 On ch=3 n=45 v=0
80129 On ch=3 n=45 v=109
80157 On ch=3 n=45 v=0
80160 On ch=3 n=46 v=117
80180 On ch=3 n=46 v=0
80189 On ch=3 n=46 v=114
80209 On ch=3 n=46 v=0
80219 On ch=3 n=46 v=117
80240 On ch=3 n=46 v=0
80249 On ch=3 n=46 v=115
80267 On ch=3 n=46 v=0
80281 On ch=3 n=41 v=117
80300 On ch=3 n=41 v=0
80309 On ch=3 n=41 v=111
80330 On ch=3 n=41 v=0
80339 On ch=3 n=41 v=117
80365 On ch=3 n=41 v=0
80369 On ch=3 n=41 v=117
80384 On ch=3 n=41 v=0
80401 On ch=3 n=33 v=95
80518 On ch=3 n=35 v=83
80520 On ch=3 n=33 v=0
80638 On ch=3 n=35 v=0
80641 On ch=3 n=36 v=104
80699 On ch=3 n=38 v=90
80702 On ch=3 n=36 v=0
80816 On ch=3 n=40 v=98
80819 On ch=3 n=38 v=0
80998 On ch=3 n=42 v=117
81012 On ch=3 n=40 v=0
81101 On ch=3 n=42 v=0
81120 On ch=3 n=43 v=104
81183 On ch=3 n=45 v=93
81194 On ch=3 n=43 v=0
81300 On ch=3 n=47 v=114
81303 On ch=3 n=45 v=0
81477 On ch=3 n=47 v=0
81478 On ch=3 n=48 v=86
81575 On ch=3 n=48 v=0
81598 On ch=3 n=50 v=98
81662 On ch=3 n=50 v=0
81664 On ch=3 n=52 v=100
81736 On ch=3 n=52 v=0
81783 On ch=3 n=54 v=100
82728 On ch=3 n=54 v=0
82728 Meta TrkEnd
TrkEnd
MTrk
0 Meta 0x21 00
0 Meta TrkName "Keyboard 1"
0 PrCh ch=4 p=18
0 Par ch=4 c=7 v=110
0 Par ch=4 c=10 v=64
0 Par ch=4 c=121 v=0
2 Par ch=4 c=0 v=0
4 Par ch=4 c=32 v=0
6 Par ch=4 c=11 v=127
8 Par ch=4 c=91 v=80
10 Par ch=4 c=93 v=75
12600 Meta Text "%-"
12694 Par ch=4 c=64 v=127
12702 On ch=4 n=81 v=80
12726 On ch=4 n=83 v=77
12734 On ch=4 n=81 v=0
12750 On ch=4 n=86 v=66
12760 On ch=4 n=83 v=0
12776 On ch=4 n=90 v=71
12779 On ch=4 n=86 v=0
12803 On ch=4 n=86 v=72
12813 On ch=4 n=90 v=0
12821 Par ch=4 c=64 v=0
12821 On ch=4 n=83 v=71
12837 On ch=4 n=86 v=0
12850 On ch=4 n=83 v=0
12850 On ch=4 n=81 v=69
12861 Par ch=4 c=64 v=127
12871 On ch=4 n=83 v=82
12876 On ch=4 n=81 v=0
12900 On ch=4 n=86 v=66
12908 On ch=4 n=83 v=0
12927 On ch=4 n=90 v=80
12932 On ch=4 n=86 v=0
12953 On ch=4 n=86 v=72
12964 On ch=4 n=90 v=0
12966 On ch=4 n=83 v=68
12974 Par ch=4 c=64 v=0
12987 On ch=4 n=86 v=0
12993 Par ch=4 c=64 v=127
12995 On ch=4 n=83 v=0
13001 On ch=4 n=81 v=70
13024 On ch=4 n=83 v=78
13030 On ch=4 n=81 v=0
13048 On ch=4 n=86 v=68
13059 On ch=4 n=83 v=0
13074 On ch=4 n=90 v=86
13077 On ch=4 n=86 v=0
13098 On ch=4 n=86 v=73
13109 On ch=4 n=90 v=0
13114 On ch=4 n=83 v=67
13130 On ch=4 n=86 v=0
13140 On ch=4 n=83 v=0
13140 Par ch=4 c=64 v=0
13148 On ch=4 n=81 v=60
13170 On ch=4 n=83 v=71
13175 On ch=4 n=81 v=0
13196 Par ch=4 c=64 v=127
13196 On ch=4 n=86 v=65
13206 On ch=4 n=83 v=0
13220 On ch=4 n=90 v=76
13222 On ch=4 n=86 v=0
13241 On ch=4 n=86 v=72
13249 On ch=4 n=90 v=0
13257 On ch=4 n=83 v=69
13270 On ch=4 n=86 v=0
13288 On ch=4 n=83 v=0
13291 On ch=4 n=81 v=68
13320 On ch=4 n=83 v=75
13333 On ch=4 n=81 v=0
13375 On ch=4 n=83 v=0
13420 On ch=4 n=81 v=66
13449 On ch=4 n=84 v=62
13455 On ch=4 n=91 v=91
13465 Par ch=4 c=64 v=0
14268 On ch=4 n=91 v=0
14270 On ch=4 n=84 v=0
14278 On ch=4 n=79 v=72
14281 On ch=4 n=81 v=0
14281 Par ch=4 c=64 v=127
14286 On ch=4 n=77 v=87
14292 On ch=4 n=79 v=0
14297 On ch=4 n=76 v=86
14299 On ch=4 n=77 v=0
14305 On ch=4 n=74 v=94
14307 On ch=4 n=76 v=0
14315 On ch=4 n=74 v=0
14315 On ch=4 n=72 v=78
14326 On ch=4 n=71 v=80
14328 On ch=4 n=72 v=0
14336 On ch=4 n=69 v=82
14339 On ch=4 n=71 v=0
14347 On ch=4 n=67 v=75
14350 On ch=4 n=69 v=0
14360 On ch=4 n=67 v=0
14360 On ch=4 n=65 v=76
14371 On ch=4 n=64 v=74
14373 On ch=4 n=65 v=0
14381 Par ch=4 c=64 v=0
14384 On ch=4 n=62 v=76
14387 On ch=4 n=64 v=0
14397 On ch=4 n=62 v=0
14397 On ch=4 n=60 v=74
14408 On ch=4 n=60 v=0
14408 On ch=4 n=59 v=62
14413 On ch=4 n=59 v=0
19200 Par ch=4 c=64 v=127
19200 Par ch=4 c=64 v=0
19200 On ch=4 n=88 v=60
19200 On ch=4 n=91 v=59
19224 Par ch=4 c=64 v=127
19293 On ch=4 n=91 v=0
19306 On ch=4 n=88 v=0
19306 Par ch=4 c=64 v=0
19321 On ch=4 n=90 v=59
19322 On ch=4 n=93 v=60
19339 Par ch=4 c=64 v=127
19409 On ch=4 n=93 v=0
19422 On ch=4 n=90 v=0
19430 Par ch=4 c=64 v=0
19442 On ch=4 n=88 v=61
19442 On ch=4 n=91 v=60
19468 Par ch=4 c=64 v=127
19532 On ch=4 n=91 v=0
19534 Par ch=4 c=64 v=0
19538 On ch=4 n=88 v=0
19559 On ch=4 n=90 v=61
19561 On ch=4 n=86 v=65
19561 Par ch=4 c=64 v=127
19591 On ch=4 n=86 v=0
19597 On ch=4 n=90 v=0
19621 On ch=4 n=84 v=64
19621 On ch=4 n=88 v=65
19624 Par ch=4 c=64 v=0
19802 Par ch=4 c=64 v=127
19840 On ch=4 n=88 v=0
19843 On ch=4 n=84 v=0
19909 Par ch=4 c=64 v=0
19920 On ch=4 n=90 v=80
19945 On ch=4 n=86 v=70
19958 On ch=4 n=90 v=0
19964 On ch=4 n=83 v=45
19964 Par ch=4 c=64 v=127
19978 On ch=4 n=86 v=0
19983 On ch=4 n=83 v=0
19983 On ch=4 n=81 v=64
20011 On ch=4 n=83 v=71
20019 On ch=4 n=81 v=0
20030 Par ch=4 c=64 v=0
20032 On ch=4 n=86 v=74
20041 On ch=4 n=83 v=0
20049 Par ch=4 c=64 v=127
20049 On ch=4 n=90 v=68
20054 On ch=4 n=86 v=0
20071 On ch=4 n=86 v=66
20087 On ch=4 n=90 v=0
20087 On ch=4 n=83 v=61
20106 On ch=4 n=86 v=0
20115 On ch=4 n=81 v=64
20117 On ch=4 n=83 v=0
20142 Par ch=4 c=64 v=0
20145 On ch=4 n=83 v=65
20148 On ch=4 n=81 v=0
20161 On ch=4 n=86 v=76
20172 On ch=4 n=83 v=0
20175 Par ch=4 c=64 v=127
20189 On ch=4 n=90 v=72
20191 On ch=4 n=86 v=0
20208 On ch=4 n=86 v=66
20219 On ch=4 n=90 v=0
20227 On ch=4 n=83 v=53
20243 On ch=4 n=86 v=0
20252 On ch=4 n=81 v=65
20254 On ch=4 n=83 v=0
20268 Par ch=4 c=64 v=0
20279 On ch=4 n=83 v=76
20285 On ch=4 n=81 v=0
20293 Par ch=4 c=64 v=127
20298 On ch=4 n=86 v=71
20309 On ch=4 n=83 v=0
20320 On ch=4 n=90 v=74
20323 On ch=4 n=86 v=0
20342 On ch=4 n=86 v=71
20353 Par ch=4 c=64 v=0
20359 On ch=4 n=90 v=0
20359 On ch=4 n=83 v=59
20372 On ch=4 n=86 v=0
20383 On ch=4 n=83 v=0
20386 On ch=4 n=81 v=69
20405 Par ch=4 c=64 v=127
20408 On ch=4 n=83 v=70
20413 On ch=4 n=81 v=0
20433 On ch=4 n=86 v=70
20441 On ch=4 n=83 v=0
20452 On ch=4 n=90 v=73
20460 On ch=4 n=86 v=0
20476 On ch=4 n=86 v=65
20493 On ch=4 n=90 v=0
20493 On ch=4 n=83 v=54
20509 On ch=4 n=86 v=0
20526 On ch=4 n=81 v=66
20537 On ch=4 n=83 v=0
20564 On ch=4 n=83 v=66
20575 On ch=4 n=81 v=0
20624 On ch=4 n=83 v=0
20640 On ch=4 n=81 v=77
20646 On ch=4 n=84 v=76
20649 On ch=4 n=91 v=88
20652 Par ch=4 c=64 v=0
20761 Meta Text "%+"
21550 On ch=4 n=84 v=0
21553 On ch=4 n=91 v=0
21574 On ch=4 n=81 v=0
23281 On ch=4 n=86 v=122
23301 On ch=4 n=86 v=0
23311 On ch=4 n=79 v=84
23334 On ch=4 n=79 v=0
23341 On ch=4 n=83 v=75
23364 On ch=4 n=83 v=0
23372 On ch=4 n=79 v=86
23390 On ch=4 n=79 v=0
23401 On ch=4 n=88 v=109
23429 On ch=4 n=88 v=0
23429 On ch=4 n=79 v=78
23452 On ch=4 n=79 v=0
23459 On ch=4 n=83 v=65
23484 On ch=4 n=83 v=0
23490 On ch=4 n=79 v=86
23507 On ch=4 n=79 v=0
23519 On ch=4 n=89 v=101
23542 On ch=4 n=89 v=0
23548 On ch=4 n=81 v=91
23573 On ch=4 n=81 v=0
23580 On ch=4 n=84 v=73
23600 On ch=4 n=84 v=0
23609 On ch=4 n=81 v=94
23629 On ch=4 n=81 v=0
23641 On ch=4 n=88 v=118
23656 On ch=4 n=88 v=0
23671 On ch=4 n=81 v=84
23691 On ch=4 n=81 v=0
23699 On ch=4 n=84 v=91
23718 On ch=4 n=84 v=0
23731 On ch=4 n=81 v=84
23749 On ch=4 n=81 v=0
23759 On ch=4 n=89 v=119
23776 On ch=4 n=89 v=0
23792 On ch=4 n=81 v=101
23811 On ch=4 n=81 v=0
23819 On ch=4 n=84 v=91
23836 On ch=4 n=84 v=0
23850 On ch=4 n=81 v=80
23865 On ch=4 n=81 v=0
23879 On ch=4 n=88 v=121
23896 On ch=4 n=88 v=0
23908 On ch=4 n=81 v=99
23930 On ch=4 n=81 v=0
23939 On ch=4 n=84 v=75
23964 On ch=4 n=84 v=0
23969 On ch=4 n=81 v=91
23989 On ch=4 n=81 v=0
23999 On ch=4 n=86 v=121
24017 On ch=4 n=86 v=0
24029 On ch=4 n=79 v=82
24044 On ch=4 n=79 v=0
24059 On ch=4 n=83 v=64
24082 On ch=4 n=83 v=0
24091 On ch=4 n=79 v=101
24108 On ch=4 n=79 v=0
24120 On ch=4 n=91 v=109
24140 On ch=4 n=91 v=0
24148 On ch=4 n=79 v=77
24170 On ch=4 n=79 v=0
24180 On ch=4 n=83 v=69
24198 On ch=4 n=83 v=0
24210 On ch=4 n=79 v=66
24223 On ch=4 n=79 v=0
24239 On ch=4 n=86 v=121
24257 On ch=4 n=86 v=0
24268 On ch=4 n=79 v=86
24291 On ch=4 n=79 v=0
24299 On ch=4 n=83 v=73
24320 On ch=4 n=83 v=0
24331 On ch=4 n=79 v=87
24349 On ch=4 n=79 v=0
24361 On ch=4 n=88 v=105
24387 On ch=4 n=88 v=0
24391 On ch=4 n=79 v=86
24414 On ch=4 n=79 v=0
24421 On ch=4 n=83 v=63
24444 On ch=4 n=83 v=0
24451 On ch=4 n=79 v=75
24469 On ch=4 n=79 v=0
24480 On ch=4 n=89 v=109
24503 On ch=4 n=89 v=0
24509 On ch=4 n=81 v=77
24529 On ch=4 n=81 v=0
24542 On ch=4 n=84 v=59
24555 On ch=4 n=84 v=0
24569 On ch=4 n=81 v=101
24587 On ch=4 n=81 v=0
24601 On ch=4 n=88 v=121
24621 On ch=4 n=88 v=0
24631 On ch=4 n=81 v=91
24649 On ch=4 n=81 v=0
24659 On ch=4 n=84 v=71
24684 On ch=4 n=84 v=0
24689 On ch=4 n=81 v=96
24709 On ch=4 n=81 v=0
24719 On ch=4 n=89 v=105
24742 On ch=4 n=89 v=0
24750 On ch=4 n=82 v=86
24775 On ch=4 n=82 v=0
24783 On ch=4 n=84 v=63
24795 On ch=4 n=84 v=0
24811 On ch=4 n=82 v=94
24823 On ch=4 n=82 v=0
24841 On ch=4 n=86 v=96
24856 On ch=4 n=86 v=0
24871 On ch=4 n=82 v=80
24889 On ch=4 n=82 v=0
24899 On ch=4 n=84 v=74
24922 On ch=4 n=84 v=0
24929 On ch=4 n=82 v=94
24947 On ch=4 n=82 v=0
24961 On ch=4 n=86 v=115
24984 On ch=4 n=86 v=0
24991 On ch=4 n=79 v=76
25011 On ch=4 n=79 v=0
25022 On ch=4 n=83 v=69
25037 On ch=4 n=83 v=0
25051 On ch=4 n=79 v=82
25068 On ch=4 n=79 v=0
25080 On ch=4 n=88 v=96
25106 On ch=4 n=88 v=0
25111 On ch=4 n=79 v=82
25131 On ch=4 n=79 v=0
25139 On ch=4 n=83 v=64
25167 On ch=4 n=83 v=0
25169 On ch=4 n=79 v=80
25194 On ch=4 n=79 v=0
25199 On ch=4 n=89 v=101
25222 On ch=4 n=89 v=0
25229 On ch=4 n=81 v=94
25251 On ch=4 n=81 v=0
25261 On ch=4 n=84 v=57
25281 On ch=4 n=84 v=0
25289 On ch=4 n=81 v=96
25307 On ch=4 n=81 v=0
25318 On ch=4 n=88 v=122
25341 On ch=4 n=88 v=0
25348 On ch=4 n=81 v=86
25368 On ch=4 n=81 v=0
25379 On ch=4 n=84 v=64
25399 On ch=4 n=84 v=0
25409 On ch=4 n=81 v=88
25427 On ch=4 n=81 v=0
25439 On ch=4 n=89 v=109
25465 On ch=4 n=89 v=0
25469 On ch=4 n=81 v=87
25489 On ch=4 n=81 v=0
25498 On ch=4 n=84 v=104
25516 On ch=4 n=84 v=0
25529 On ch=4 n=81 v=91
25549 On ch=4 n=81 v=0
25561 On ch=4 n=88 v=121
25581 On ch=4 n=88 v=0
25589 On ch=4 n=81 v=88
25612 On ch=4 n=81 v=0
25620 On ch=4 n=84 v=69
25642 On ch=4 n=84 v=0
25650 On ch=4 n=81 v=94
25668 On ch=4 n=81 v=0
25680 On ch=4 n=86 v=118
25700 On ch=4 n=86 v=0
25711 On ch=4 n=79 v=82
25729 On ch=4 n=79 v=0
25741 On ch=4 n=83 v=65
25761 On ch=4 n=83 v=0
25769 On ch=4 n=79 v=91
25790 On ch=4 n=79 v=0
25799 On ch=4 n=91 v=112
25801 On ch=4 n=87 v=84
25806 On ch=4 n=87 v=0
25824 On ch=4 n=91 v=0
25831 On ch=4 n=79 v=87
25852 On ch=4 n=79 v=0
25861 On ch=4 n=83 v=64
25881 On ch=4 n=83 v=0
25889 On ch=4 n=79 v=86
25905 On ch=4 n=79 v=0
25920 On ch=4 n=86 v=118
25940 On ch=4 n=86 v=0
25949 On ch=4 n=79 v=86
25964 On ch=4 n=79 v=0
25979 On ch=4 n=83 v=68
25994 On ch=4 n=83 v=0
26009 On ch=4 n=79 v=96
26026 On ch=4 n=79 v=0
26041 On ch=4 n=88 v=113
26066 On ch=4 n=88 v=0
26069 On ch=4 n=79 v=84
26081 On ch=4 n=79 v=0
26102 On ch=4 n=83 v=74
26120 On ch=4 n=83 v=0
26129 On ch=4 n=79 v=88
26152 On ch=4 n=79 v=0
26159 On ch=4 n=89 v=112
26184 On ch=4 n=89 v=0
26189 On ch=4 n=81 v=77
26209 On ch=4 n=81 v=0
26222 On ch=4 n=84 v=67
26244 On ch=4 n=84 v=0
26251 On ch=4 n=81 v=99
26266 On ch=4 n=81 v=0
26280 On ch=4 n=88 v=122
26298 On ch=4 n=88 v=0
26309 On ch=4 n=81 v=96
26332 On ch=4 n=81 v=0
26338 On ch=4 n=84 v=66
26363 On ch=4 n=84 v=0
26368 On ch=4 n=81 v=96
26386 On ch=4 n=81 v=0
26399 On ch=4 n=89 v=112
26429 On ch=4 n=89 v=0
26429 On ch=4 n=82 v=101
26449 On ch=4 n=82 v=0
26461 On ch=4 n=84 v=78
26479 On ch=4 n=84 v=0
26489 On ch=4 n=82 v=94
26507 On ch=4 n=82 v=0
26519 On ch=4 n=86 v=122
26542 On ch=4 n=86 v=0
26550 On ch=4 n=82 v=82
26567 On ch=4 n=82 v=0
26580 On ch=4 n=84 v=68
26603 On ch=4 n=84 v=0
26609 On ch=4 n=82 v=101
26621 On ch=4 n=82 v=0
26640 On ch=4 n=86 v=118
26666 On ch=4 n=86 v=0
26672 On ch=4 n=79 v=94
26687 On ch=4 n=79 v=0
26701 On ch=4 n=83 v=74
26726 On ch=4 n=83 v=0
26731 On ch=4 n=79 v=112
26751 On ch=4 n=79 v=0
26761 On ch=4 n=88 v=112
26784 On ch=4 n=88 v=0
26791 On ch=4 n=79 v=88
26811 On ch=4 n=79 v=0
26821 On ch=4 n=83 v=77
26839 On ch=4 n=83 v=0
26852 On ch=4 n=79 v=88
26864 On ch=4 n=79 v=0
26880 On ch=4 n=89 v=109
26900 On ch=4 n=89 v=0
26908 On ch=4 n=81 v=80
26926 On ch=4 n=81 v=0
26941 On ch=4 n=84 v=58
26956 On ch=4 n=84 v=0
26968 On ch=4 n=81 v=91
26986 On ch=4 n=81 v=0
26999 On ch=4 n=88 v=122
27022 On ch=4 n=88 v=0
27029 On ch=4 n=81 v=94
27050 On ch=4 n=81 v=0
27059 On ch=4 n=84 v=66
27081 On ch=4 n=84 v=0
27091 On ch=4 n=81 v=105
27106 On ch=4 n=81 v=0
27121 On ch=4 n=89 v=112
27141 On ch=4 n=89 v=0
27151 On ch=4 n=81 v=99
27169 On ch=4 n=81 v=0
27183 On ch=4 n=84 v=61
27203 On ch=4 n=84 v=0
27212 On ch=4 n=81 v=101
27227 On ch=4 n=81 v=0
27242 On ch=4 n=88 v=121
27262 On ch=4 n=88 v=0
27270 On ch=4 n=81 v=94
27293 On ch=4 n=81 v=0
27301 On ch=4 n=84 v=73
27328 On ch=4 n=84 v=0
27331 On ch=4 n=81 v=99
27346 On ch=4 n=81 v=0
27362 On ch=4 n=86 v=113
27380 On ch=4 n=86 v=0
27391 On ch=4 n=79 v=91
27404 On ch=4 n=79 v=0
27421 On ch=4 n=83 v=66
27441 On ch=4 n=83 v=0
27449 On ch=4 n=79 v=105
27469 On ch=4 n=79 v=0
27479 On ch=4 n=91 v=109
27502 On ch=4 n=91 v=0
27508 On ch=4 n=79 v=99
27528 On ch=4 n=79 v=0
27539 On ch=4 n=83 v=63
27560 On ch=4 n=83 v=0
27569 On ch=4 n=79 v=91
27586 On ch=4 n=79 v=0
27598 On ch=4 n=86 v=121
27624 On ch=4 n=86 v=0
27629 On ch=4 n=79 v=96
27646 On ch=4 n=79 v=0
27659 On ch=4 n=83 v=73
27680 On ch=4 n=83 v=0
27689 On ch=4 n=79 v=101
27709 On ch=4 n=79 v=0
27719 On ch=4 n=88 v=101
27745 On ch=4 n=88 v=0
27749 On ch=4 n=79 v=80
27769 On ch=4 n=79 v=0
27781 On ch=4 n=83 v=68
27799 On ch=4 n=83 v=0
27810 On ch=4 n=79 v=105
27825 On ch=4 n=79 v=0
27838 On ch=4 n=89 v=113
27861 On ch=4 n=89 v=0
27868 On ch=4 n=81 v=105
27888 On ch=4 n=81 v=0
27900 On ch=4 n=84 v=62
27921 On ch=4 n=84 v=0
27929 On ch=4 n=81 v=99
27946 On ch=4 n=81 v=0
27959 On ch=4 n=88 v=118
27977 On ch=4 n=88 v=0
27989 On ch=4 n=81 v=96
28006 On ch=4 n=81 v=0
28019 On ch=4 n=84 v=63
28042 On ch=4 n=84 v=0
28049 On ch=4 n=81 v=109
28066 On ch=4 n=81 v=0
28079 On ch=4 n=89 v=109
28111 On ch=4 n=82 v=86
28114 On ch=4 n=89 v=0
28131 On ch=4 n=82 v=0
28141 On ch=4 n=84 v=76
28161 On ch=4 n=84 v=0
28170 On ch=4 n=82 v=88
28188 On ch=4 n=82 v=0
28201 On ch=4 n=86 v=109
28221 On ch=4 n=86 v=0
28231 On ch=4 n=84 v=80
28251 On ch=4 n=84 v=0
28263 On ch=4 n=82 v=41
28293 On ch=4 n=82 v=0
28322 On ch=4 n=88 v=115
28351 On ch=4 n=79 v=78
28365 On ch=4 n=88 v=0
28370 On ch=4 n=79 v=0
28383 On ch=4 n=83 v=66
28405 On ch=4 n=83 v=0
28413 On ch=4 n=79 v=99
28429 On ch=4 n=79 v=0
28442 On ch=4 n=86 v=105
28469 On ch=4 n=86 v=0
28469 On ch=4 n=79 v=88
28492 On ch=4 n=79 v=0
28499 On ch=4 n=83 v=75
28524 On ch=4 n=83 v=0
28529 On ch=4 n=79 v=94
28549 On ch=4 n=79 v=0
28561 On ch=4 n=88 v=113
28586 On ch=4 n=88 v=0
28589 On ch=4 n=79 v=87
28609 On ch=4 n=79 v=0
28621 On ch=4 n=83 v=57
28641 On ch=4 n=83 v=0
28649 On ch=4 n=79 v=78
28671 On ch=4 n=79 v=0
28681 On ch=4 n=86 v=78
28723 On ch=4 n=86 v=0
28741 On ch=4 n=83 v=113
28741 On ch=4 n=88 v=112
29251 On ch=4 n=88 v=0
29251 On ch=4 n=83 v=0
32162 On ch=4 n=84 v=85
32179 On ch=4 n=84 v=0
32181 On ch=4 n=86 v=83
32197 On ch=4 n=86 v=0
32200 On ch=4 n=88 v=90
32219 On ch=4 n=88 v=0
32220 On ch=4 n=78 v=77
32241 On ch=4 n=78 v=0
32241 On ch=4 n=79 v=75
32258 On ch=4 n=79 v=0
32259 On ch=4 n=81 v=73
32279 On ch=4 n=81 v=0
32280 On ch=4 n=72 v=95
32326 On ch=4 n=72 v=0
32342 On ch=4 n=72 v=98
32387 On ch=4 n=72 v=0
32401 On ch=4 n=83 v=104
32421 On ch=4 n=84 v=104
32422 On ch=4 n=83 v=0
32438 On ch=4 n=84 v=0
32441 On ch=4 n=86 v=100
32457 On ch=4 n=86 v=0
32461 On ch=4 n=78 v=86
32481 On ch=4 n=79 v=76
32484 On ch=4 n=78 v=0
32499 On ch=4 n=79 v=0
32501 On ch=4 n=81 v=74
32522 On ch=4 n=71 v=108
32523 On ch=4 n=81 v=0
32581 On ch=4 n=71 v=0
32582 On ch=4 n=83 v=112
32599 On ch=4 n=83 v=0
32602 On ch=4 n=84 v=98
32618 On ch=4 n=84 v=0
32622 On ch=4 n=86 v=98
32641 On ch=4 n=78 v=112
32644 On ch=4 n=86 v=0
32661 On ch=4 n=78 v=0
32661 On ch=4 n=79 v=64
32680 On ch=4 n=79 v=0
32681 On ch=4 n=81 v=79
32702 On ch=4 n=69 v=104
32705 On ch=4 n=81 v=0
32759 On ch=4 n=69 v=0
32762 On ch=4 n=71 v=108
32782 On ch=4 n=72 v=86
32785 On ch=4 n=71 v=0
32799 On ch=4 n=72 v=0
32801 On ch=4 n=74 v=104
32822 On ch=4 n=74 v=0
32822 On ch=4 n=66 v=112
32842 On ch=4 n=67 v=83
32844 On ch=4 n=66 v=0
32860 On ch=4 n=67 v=0
32862 On ch=4 n=69 v=83
32880 On ch=4 n=67 v=98
32883 On ch=4 n=69 v=0
32927 On ch=4 n=67 v=0
32941 On ch=4 n=71 v=121
32958 On ch=4 n=71 v=0
32960 On ch=4 n=72 v=79
32979 On ch=4 n=72 v=0
32979 On ch=4 n=74 v=87
32998 On ch=4 n=74 v=0
33001 On ch=4 n=66 v=108
33021 On ch=4 n=67 v=85
33022 On ch=4 n=66 v=0
33040 On ch=4 n=67 v=0
33041 On ch=4 n=69 v=73
33061 On ch=4 n=69 v=0
33061 On ch=4 n=66 v=117
33120 On ch=4 n=76 v=112
33121 On ch=4 n=66 v=0
33241 Meta Text "%-"
33262 On ch=4 n=76 v=0
36694 Par ch=4 c=64 v=127
36702 On ch=4 n=81 v=80
36726 On ch=4 n=83 v=77
36734 On ch=4 n=81 v=0
36750 On ch=4 n=86 v=66
36760 On ch=4 n=83 v=0
36776 On ch=4 n=90 v=71
36779 On ch=4 n=86 v=0
36803 On ch=4 n=86 v=72
36813 On ch=4 n=90 v=0
36821 Par ch=4 c=64 v=0
36821 On ch=4 n=83 v=71
36837 On ch=4 n=86 v=0
36850 On ch=4 n=83 v=0
36850 On ch=4 n=81 v=69
36861 Par ch=4 c=64 v=127
36871 On ch=4 n=83 v=82
36876 On ch=4 n=81 v=0
36900 On ch=4 n=86 v=66
36908 On ch=4 n=83 v=0
36927 On ch=4 n=90 v=80
36932 On ch=4 n=86 v=0
36953 On ch=4 n=86 v=72
36964 On ch=4 n=90 v=0
36966 On ch=4 n=83 v=68
36974 Par ch=4 c=64 v=0
36987 On ch=4 n=86 v=0
36993 Par ch=4 c=64 v=127
36995 On ch=4 n=83 v=0
37001 On ch=4 n=81 v=70
37024 On ch=4 n=83 v=78
37030 On ch=4 n=81 v=0
37048 On ch=4 n=86 v=68
37059 On ch=4 n=83 v=0
37074 On ch=4 n=90 v=86
37077 On ch=4 n=86 v=0
37098 On ch=4 n=86 v=73
37109 On ch=4 n=90 v=0
37114 On ch=4 n=83 v=67
37130 On ch=4 n=86 v=0
37140 On ch=4 n=83 v=0
37140 Par ch=4 c=64 v=0
37148 On ch=4 n=81 v=60
37170 On ch=4 n=83 v=71
37175 On ch=4 n=81 v=0
37196 Par ch=4 c=64 v=127
37196 On ch=4 n=86 v=65
37206 On ch=4 n=83 v=0
37220 On ch=4 n=90 v=76
37222 On ch=4 n=86 v=0
37241 On ch=4 n=86 v=72
37249 On ch=4 n=90 v=0
37257 On ch=4 n=83 v=69
37270 On ch=4 n=86 v=0
37288 On ch=4 n=83 v=0
37291 On ch=4 n=81 v=68
37320 On ch=4 n=83 v=75
37333 On ch=4 n=81 v=0
37375 On ch=4 n=83 v=0
37420 On ch=4 n=81 v=66
37449 On ch=4 n=84 v=62
37455 On ch=4 n=91 v=91
37465 Par ch=4 c=64 v=0
38268 On ch=4 n=91 v=0
38270 On ch=4 n=84 v=0
38278 On ch=4 n=79 v=72
38281 On ch=4 n=81 v=0
38281 Par ch=4 c=64 v=127
38286 On ch=4 n=77 v=87
38292 On ch=4 n=79 v=0
38297 On ch=4 n=76 v=86
38299 On ch=4 n=77 v=0
38305 On ch=4 n=74 v=94
38307 On ch=4 n=76 v=0
38315 On ch=4 n=74 v=0
38315 On ch=4 n=72 v=78
38326 On ch=4 n=71 v=80
38328 On ch=4 n=72 v=0
38336 On ch=4 n=69 v=82
38339 On ch=4 n=71 v=0
38347 On ch=4 n=67 v=75
38350 On ch=4 n=69 v=0
38360 On ch=4 n=67 v=0
38360 On ch=4 n=65 v=76
38371 On ch=4 n=64 v=74
38373 On ch=4 n=65 v=0
38381 Par ch=4 c=64 v=0
38384 On ch=4 n=62 v=76
38387 On ch=4 n=64 v=0
38397 On ch=4 n=62 v=0
38397 On ch=4 n=60 v=74
38408 On ch=4 n=60 v=0
38408 On ch=4 n=59 v=62
38413 On ch=4 n=59 v=0
38522 Meta Text "%+"
40081 On ch=4 n=86 v=114
40104 On ch=4 n=86 v=0
40111 On ch=4 n=79 v=100
40136 On ch=4 n=79 v=0
40142 On ch=4 n=83 v=85
40158 On ch=4 n=83 v=0
40173 On ch=4 n=79 v=74
40194 On ch=4 n=79 v=0
40202 On ch=4 n=88 v=104
40222 On ch=4 n=88 v=0
40229 On ch=4 n=79 v=83
40252 On ch=4 n=79 v=0
40261 On ch=4 n=83 v=87
40281 On ch=4 n=83 v=0
40291 On ch=4 n=79 v=95
40309 On ch=4 n=79 v=0
40319 On ch=4 n=89 v=104
40342 On ch=4 n=89 v=0
40348 On ch=4 n=81 v=95
40368 On ch=4 n=81 v=0
40378 On ch=4 n=84 v=63
40401 On ch=4 n=84 v=0
40408 On ch=4 n=81 v=95
40426 On ch=4 n=81 v=0
40437 On ch=4 n=88 v=117
40455 On ch=4 n=88 v=0
40465 On ch=4 n=81 v=87
40486 On ch=4 n=81 v=0
40495 On ch=4 n=84 v=74
40523 On ch=4 n=84 v=0
40529 On ch=4 n=81 v=95
40550 On ch=4 n=81 v=0
40559 On ch=4 n=89 v=111
40582 On ch=4 n=89 v=0
40589 On ch=4 n=81 v=98
40612 On ch=4 n=81 v=0
40621 On ch=4 n=84 v=73
40644 On ch=4 n=84 v=0
40651 On ch=4 n=81 v=104
40674 On ch=4 n=81 v=0
40682 On ch=4 n=88 v=120
40698 On ch=4 n=88 v=0
40709 On ch=4 n=81 v=87
40730 On ch=4 n=81 v=0
40739 On ch=4 n=84 v=71
40762 On ch=4 n=84 v=0
40769 On ch=4 n=81 v=93
40787 On ch=4 n=81 v=0
40799 On ch=4 n=86 v=108
40817 On ch=4 n=86 v=0
40828 On ch=4 n=79 v=90
40849 On ch=4 n=79 v=0
40859 On ch=4 n=83 v=73
40882 On ch=4 n=83 v=0
40893 On ch=4 n=79 v=100
40908 On ch=4 n=79 v=0
40921 On ch=4 n=91 v=104
40944 On ch=4 n=91 v=0
40949 On ch=4 n=79 v=98
40972 On ch=4 n=79 v=0
40982 On ch=4 n=83 v=67
41000 On ch=4 n=83 v=0
41013 On ch=4 n=79 v=85
41031 On ch=4 n=79 v=0
41042 On ch=4 n=86 v=114
41063 On ch=4 n=86 v=0
41071 On ch=4 n=79 v=83
41091 On ch=4 n=79 v=0
41101 On ch=4 n=83 v=75
41121 On ch=4 n=83 v=0
41132 On ch=4 n=79 v=100
41152 On ch=4 n=79 v=0
41162 On ch=4 n=88 v=100
41185 On ch=4 n=88 v=0
41192 On ch=4 n=79 v=87
41210 On ch=4 n=79 v=0
41221 On ch=4 n=83 v=66
41244 On ch=4 n=83 v=0
41251 On ch=4 n=79 v=83
41266 On ch=4 n=79 v=0
41281 On ch=4 n=89 v=100
41301 On ch=4 n=89 v=0
41308 On ch=4 n=81 v=74
41326 On ch=4 n=81 v=0
41339 On ch=4 n=83 v=69
41347 On ch=4 n=83 v=0
41367 On ch=4 n=81 v=79
41385 On ch=4 n=81 v=0
41398 On ch=4 n=88 v=117
41416 On ch=4 n=88 v=0
41428 On ch=4 n=81 v=100
41449 On ch=4 n=81 v=0
41457 On ch=4 n=84 v=72
41483 On ch=4 n=84 v=0
41491 On ch=4 n=81 v=117
41509 On ch=4 n=81 v=0
41521 On ch=4 n=89 v=111
41550 On ch=4 n=89 v=0
41550 On ch=4 n=82 v=93
41570 On ch=4 n=82 v=0
41583 On ch=4 n=84 v=83
41606 On ch=4 n=84 v=0
41614 On ch=4 n=82 v=76
41630 On ch=4 n=82 v=0
41643 On ch=4 n=86 v=117
41666 On ch=4 n=86 v=0
41672 On ch=4 n=82 v=76
41693 On ch=4 n=82 v=0
41699 On ch=4 n=84 v=71
41727 On ch=4 n=84 v=0
41731 On ch=4 n=82 v=74
41749 On ch=4 n=82 v=0
41762 On ch=4 n=86 v=100
41785 On ch=4 n=86 v=0
41790 On ch=4 n=79 v=79
41813 On ch=4 n=79 v=0
41821 On ch=4 n=83 v=79
41844 On ch=4 n=83 v=0
41851 On ch=4 n=79 v=67
41874 On ch=4 n=79 v=0
41882 On ch=4 n=88 v=95
41905 On ch=4 n=88 v=0
41909 On ch=4 n=79 v=76
41929 On ch=4 n=79 v=0
41938 On ch=4 n=83 v=74
41964 On ch=4 n=83 v=0
41971 On ch=4 n=79 v=108
41991 On ch=4 n=79 v=0
42001 On ch=4 n=89 v=98
42021 On ch=4 n=89 v=0
42028 On ch=4 n=81 v=87
42048 On ch=4 n=81 v=0
42058 On ch=4 n=84 v=74
42084 On ch=4 n=84 v=0
42090 On ch=4 n=81 v=83
42108 On ch=4 n=81 v=0
42117 On ch=4 n=88 v=117
42145 On ch=4 n=88 v=0
42148 On ch=4 n=81 v=79
42171 On ch=4 n=81 v=0
42178 On ch=4 n=84 v=75
42204 On ch=4 n=84 v=0
42211 On ch=4 n=81 v=93
42229 On ch=4 n=81 v=0
42241 On ch=4 n=89 v=100
42267 On ch=4 n=89 v=0
42269 On ch=4 n=81 v=85
42292 On ch=4 n=81 v=0
42302 On ch=4 n=84 v=57
42320 On ch=4 n=84 v=0
42332 On ch=4 n=81 v=79
42352 On ch=4 n=81 v=0
42362 On ch=4 n=88 v=114
42380 On ch=4 n=88 v=0
42391 On ch=4 n=81 v=79
42414 On ch=4 n=81 v=0
42421 On ch=4 n=84 v=65
42446 On ch=4 n=84 v=0
42453 On ch=4 n=81 v=83
42471 On ch=4 n=81 v=0
42482 On ch=4 n=86 v=111
42505 On ch=4 n=86 v=0
42513 On ch=4 n=79 v=74
42529 On ch=4 n=79 v=0
42539 On ch=4 n=83 v=75
42564 On ch=4 n=83 v=0
42573 On ch=4 n=79 v=95
42588 On ch=4 n=79 v=0
42602 On ch=4 n=91 v=98
42623 On ch=4 n=91 v=0
42629 On ch=4 n=79 v=69
42650 On ch=4 n=79 v=0
42661 On ch=4 n=83 v=60
42684 On ch=4 n=83 v=0
42691 On ch=4 n=79 v=81
42709 On ch=4 n=79 v=0
42720 On ch=4 n=86 v=114
42743 On ch=4 n=86 v=0
42749 On ch=4 n=79 v=73
42772 On ch=4 n=79 v=0
42778 On ch=4 n=83 v=69
42796 On ch=4 n=83 v=0
42811 On ch=4 n=79 v=90
42831 On ch=4 n=79 v=0
42840 On ch=4 n=88 v=93
42871 On ch=4 n=79 v=73
42873 On ch=4 n=88 v=0
42894 On ch=4 n=79 v=0
42901 On ch=4 n=83 v=67
42924 On ch=4 n=83 v=0
42932 On ch=4 n=79 v=67
42949 On ch=4 n=79 v=0
42960 On ch=4 n=89 v=100
42986 On ch=4 n=89 v=0
42991 On ch=4 n=81 v=79
43009 On ch=4 n=81 v=0
43018 On ch=4 n=84 v=73
43042 On ch=4 n=84 v=0
43050 On ch=4 n=81 v=86
43073 On ch=4 n=81 v=0
43081 On ch=4 n=88 v=117
43104 On ch=4 n=88 v=0
43111 On ch=4 n=81 v=81
43132 On ch=4 n=81 v=0
43141 On ch=4 n=84 v=66
43159 On ch=4 n=84 v=0
43171 On ch=4 n=81 v=65
43186 On ch=4 n=81 v=0
43201 On ch=4 n=89 v=112
43221 On ch=4 n=89 v=0
43227 On ch=4 n=82 v=98
43245 On ch=4 n=82 v=0
43259 On ch=4 n=84 v=77
43277 On ch=4 n=84 v=0
43287 On ch=4 n=82 v=85
43305 On ch=4 n=82 v=0
43318 On ch=4 n=86 v=117
43338 On ch=4 n=86 v=0
43347 On ch=4 n=82 v=83
43362 On ch=4 n=82 v=0
43377 On ch=4 n=84 v=73
43400 On ch=4 n=84 v=0
43407 On ch=4 n=82 v=90
43422 On ch=4 n=82 v=0
43439 On ch=4 n=86 v=120
43459 On ch=4 n=86 v=0
43469 On ch=4 n=79 v=90
43487 On ch=4 n=79 v=0
43499 On ch=4 n=83 v=74
43519 On ch=4 n=83 v=0
43529 On ch=4 n=79 v=111
43547 On ch=4 n=79 v=0
43561 On ch=4 n=88 v=108
43581 On ch=4 n=88 v=0
43587 On ch=4 n=79 v=95
43610 On ch=4 n=79 v=0
43618 On ch=4 n=83 v=69
43643 On ch=4 n=83 v=0
43652 On ch=4 n=79 v=93
43665 On ch=4 n=79 v=0
43680 On ch=4 n=89 v=108
43697 On ch=4 n=89 v=0
43708 On ch=4 n=81 v=95
43726 On ch=4 n=81 v=0
43738 On ch=4 n=84 v=66
43763 On ch=4 n=84 v=0
43769 On ch=4 n=81 v=108
43789 On ch=4 n=81 v=0
43800 On ch=4 n=88 v=114
43818 On ch=4 n=88 v=0
43827 On ch=4 n=81 v=81
43847 On ch=4 n=81 v=0
43859 On ch=4 n=84 v=64
43879 On ch=4 n=84 v=0
43891 On ch=4 n=81 v=104
43906 On ch=4 n=81 v=0
43920 On ch=4 n=89 v=111
43941 On ch=4 n=89 v=0
43948 On ch=4 n=81 v=100
43966 On ch=4 n=81 v=0
43981 On ch=4 n=84 v=64
44001 On ch=4 n=84 v=0
44010 On ch=4 n=81 v=100
44028 On ch=4 n=81 v=0
44040 On ch=4 n=88 v=120
44061 On ch=4 n=88 v=0
44067 On ch=4 n=81 v=86
44090 On ch=4 n=81 v=0
44099 On ch=4 n=84 v=74
44122 On ch=4 n=84 v=0
44128 On ch=4 n=81 v=90
44148 On ch=4 n=81 v=0
44161 On ch=4 n=86 v=117
44179 On ch=4 n=86 v=0
44191 On ch=4 n=79 v=87
44208 On ch=4 n=79 v=0
44221 On ch=4 n=83 v=73
44242 On ch=4 n=83 v=0
44252 On ch=4 n=79 v=100
44269 On ch=4 n=79 v=0
44282 On ch=4 n=91 v=104
44305 On ch=4 n=91 v=0
44312 On ch=4 n=79 v=100
44333 On ch=4 n=79 v=0
44343 On ch=4 n=83 v=64
44358 On ch=4 n=83 v=0
44371 On ch=4 n=79 v=98
44389 On ch=4 n=79 v=0
44399 On ch=4 n=88 v=104
44414 On ch=4 n=88 v=0
44428 On ch=4 n=79 v=77
44449 On ch=4 n=79 v=0
44459 On ch=4 n=83 v=74
44479 On ch=4 n=83 v=0
44491 On ch=4 n=79 v=111
44512 On ch=4 n=79 v=0
44519 On ch=4 n=88 v=111
44545 On ch=4 n=88 v=0
44550 On ch=4 n=79 v=100
44570 On ch=4 n=79 v=0
44581 On ch=4 n=83 v=70
44604 On ch=4 n=83 v=0
44612 On ch=4 n=79 v=100
44628 On ch=4 n=79 v=0
44642 On ch=4 n=89 v=108
44660 On ch=4 n=89 v=0
44670 On ch=4 n=81 v=90
44688 On ch=4 n=81 v=0
44701 On ch=4 n=84 v=68
44721 On ch=4 n=84 v=0
44729 On ch=4 n=81 v=100
44747 On ch=4 n=81 v=0
44760 On ch=4 n=88 v=120
44780 On ch=4 n=88 v=0
44791 On ch=4 n=81 v=95
44811 On ch=4 n=81 v=0
44819 On ch=4 n=84 v=61
44839 On ch=4 n=84 v=0
44849 On ch=4 n=81 v=114
44862 On ch=4 n=81 v=0
44878 On ch=4 n=89 v=112
44904 On ch=4 n=89 v=0
44911 On ch=4 n=82 v=86
44926 On ch=4 n=82 v=0
44941 On ch=4 n=84 v=62
44953 On ch=4 n=84 v=0
44968 On ch=4 n=82 v=76
44986 On ch=4 n=82 v=0
44998 On ch=4 n=86 v=98
45021 On ch=4 n=86 v=0
45029 On ch=4 n=82 v=81
45044 On ch=4 n=82 v=0
45057 On ch=4 n=84 v=64
45087 On ch=4 n=84 v=0
45087 On ch=4 n=82 v=98
45103 On ch=4 n=82 v=0
45119 On ch=4 n=88 v=100
45140 On ch=4 n=88 v=0
45148 On ch=4 n=79 v=85
45166 On ch=4 n=79 v=0
45179 On ch=4 n=83 v=72
45200 On ch=4 n=83 v=0
45210 On ch=4 n=79 v=98
45231 On ch=4 n=79 v=0
45241 On ch=4 n=86 v=121
45264 On ch=4 n=86 v=0
45269 On ch=4 n=79 v=81
45290 On ch=4 n=79 v=0
45301 On ch=4 n=83 v=64
45324 On ch=4 n=83 v=0
45331 On ch=4 n=79 v=98
45352 On ch=4 n=79 v=0
45363 On ch=4 n=88 v=108
45380 On ch=4 n=88 v=0
45389 On ch=4 n=79 v=83
45410 On ch=4 n=79 v=0
45421 On ch=4 n=83 v=59
45444 On ch=4 n=83 v=0
45453 On ch=4 n=79 v=68
45468 On ch=4 n=79 v=0
45483 On ch=4 n=86 v=114
45498 On ch=4 n=86 v=0
45511 On ch=4 n=79 v=85
45532 On ch=4 n=79 v=0
45540 On ch=4 n=88 v=108
45540 On ch=4 n=83 v=112
46560 On ch=4 n=83 v=0
46560 On ch=4 n=88 v=0
46562 On ch=4 n=84 v=85
46579 On ch=4 n=84 v=0
46581 On ch=4 n=86 v=83
46597 On ch=4 n=86 v=0
46600 On ch=4 n=88 v=90
46619 On ch=4 n=88 v=0
46620 On ch=4 n=78 v=77
46641 On ch=4 n=78 v=0
46641 On ch=4 n=79 v=75
46658 On ch=4 n=79 v=0
46659 On ch=4 n=81 v=73
46679 On ch=4 n=81 v=0
46680 On ch=4 n=72 v=95
46726 On ch=4 n=72 v=0
46742 On ch=4 n=72 v=98
46787 On ch=4 n=72 v=0
46801 On ch=4 n=83 v=104
46821 On ch=4 n=84 v=104
46822 On ch=4 n=83 v=0
46838 On ch=4 n=84 v=0
46841 On ch=4 n=86 v=100
46857 On ch=4 n=86 v=0
46861 On ch=4 n=78 v=86
46881 On ch=4 n=79 v=76
46884 On ch=4 n=78 v=0
46899 On ch=4 n=79 v=0
46901 On ch=4 n=81 v=74
46922 On ch=4 n=71 v=108
46923 On ch=4 n=81 v=0
46981 On ch=4 n=71 v=0
46982 On ch=4 n=83 v=112
46999 On ch=4 n=83 v=0
47002 On ch=4 n=84 v=98
47018 On ch=4 n=84 v=0
47022 On ch=4 n=86 v=98
47041 On ch=4 n=78 v=112
47044 On ch=4 n=86 v=0
47061 On ch=4 n=78 v=0
47061 On ch=4 n=79 v=64
47080 On ch=4 n=79 v=0
47081 On ch=4 n=81 v=79
47102 On ch=4 n=69 v=104
47105 On ch=4 n=81 v=0
47159 On ch=4 n=69 v=0
47162 On ch=4 n=71 v=108
47182 On ch=4 n=72 v=86
47185 On ch=4 n=71 v=0
47199 On ch=4 n=72 v=0
47201 On ch=4 n=74 v=104
47222 On ch=4 n=74 v=0
47222 On ch=4 n=66 v=112
47242 On ch=4 n=67 v=83
47244 On ch=4 n=66 v=0
47260 On ch=4 n=67 v=0
47262 On ch=4 n=69 v=83
47280 On ch=4 n=67 v=98
47283 On ch=4 n=69 v=0
47327 On ch=4 n=67 v=0
47341 On ch=4 n=71 v=121
47358 On ch=4 n=71 v=0
47360 On ch=4 n=72 v=79
47379 On ch=4 n=72 v=0
47379 On ch=4 n=74 v=87
47398 On ch=4 n=74 v=0
47401 On ch=4 n=66 v=108
47421 On ch=4 n=67 v=85
47422 On ch=4 n=66 v=0
47440 On ch=4 n=67 v=0
47441 On ch=4 n=69 v=73
47461 On ch=4 n=69 v=0
47461 On ch=4 n=66 v=117
47496 Meta Text "%-"
47521 On ch=4 n=66 v=0
47523 On ch=4 n=52 v=98
47523 On ch=4 n=64 v=104
47588 On ch=4 n=52 v=0
47601 On ch=4 n=64 v=0
47605 On ch=4 n=54 v=98
47605 On ch=4 n=66 v=81
47676 On ch=4 n=66 v=0
47678 On ch=4 n=54 v=0
47683 On ch=4 n=67 v=85
47683 On ch=4 n=55 v=77
47751 On ch=4 n=55 v=0
47751 On ch=4 n=67 v=0
47760 On ch=4 n=69 v=93
47760 On ch=4 n=57 v=87
47986 On ch=4 n=69 v=0
47997 On ch=4 n=59 v=104
47997 On ch=4 n=71 v=79
47999 On ch=4 n=57 v=0
48063 On ch=4 n=71 v=0
48073 On ch=4 n=59 v=0
48079 On ch=4 n=69 v=95
48080 On ch=4 n=57 v=77
48145 On ch=4 n=69 v=0
48156 On ch=4 n=57 v=0
48158 On ch=4 n=55 v=85
48158 On ch=4 n=67 v=111
48226 On ch=4 n=67 v=0
48226 On ch=4 n=55 v=0
48237 On ch=4 n=57 v=108
48237 On ch=4 n=69 v=111
48473 On ch=4 n=69 v=0
48478 On ch=4 n=59 v=76
48478 On ch=4 n=71 v=98
48481 On ch=4 n=57 v=0
48543 On ch=4 n=71 v=0
48556 On ch=4 n=59 v=0
48557 On ch=4 n=69 v=98
48557 On ch=4 n=57 v=83
48628 On ch=4 n=69 v=0
48638 On ch=4 n=55 v=95
48638 On ch=4 n=67 v=112
48643 On ch=4 n=57 v=0
48709 On ch=4 n=67 v=0
48717 On ch=4 n=55 v=0
48717 On ch=4 n=69 v=111
48717 On ch=4 n=57 v=104
48798 On ch=4 n=67 v=104
48798 On ch=4 n=55 v=104
48803 On ch=4 n=69 v=0
48806 On ch=4 n=57 v=0
48866 On ch=4 n=55 v=0
48871 On ch=4 n=67 v=0
48871 On ch=4 n=54 v=87
48871 On ch=4 n=66 v=95
48929 On ch=4 n=66 v=0
48929 On ch=4 n=54 v=0
48945 On ch=4 n=55 v=100
48950 On ch=4 n=67 v=104
48976 On ch=4 n=55 v=0
48981 On ch=4 n=67 v=0
48981 On ch=4 n=66 v=93
48986 On ch=4 n=54 v=60
49007 On ch=4 n=54 v=0
49013 On ch=4 n=66 v=0
49015 On ch=4 n=52 v=93
49015 On ch=4 n=64 v=95
49343 On ch=4 n=52 v=0
49345 On ch=4 n=64 v=0
49443 On ch=4 n=52 v=98
49443 On ch=4 n=64 v=104
49508 On ch=4 n=52 v=0
49521 On ch=4 n=64 v=0
49525 On ch=4 n=54 v=98
49525 On ch=4 n=66 v=81
49596 On ch=4 n=66 v=0
49598 On ch=4 n=54 v=0
49603 On ch=4 n=67 v=85
49603 On ch=4 n=55 v=77
49671 On ch=4 n=55 v=0
49671 On ch=4 n=67 v=0
49680 On ch=4 n=69 v=93
49680 On ch=4 n=57 v=87
49906 On ch=4 n=69 v=0
49917 On ch=4 n=59 v=104
49917 On ch=4 n=71 v=79
49919 On ch=4 n=57 v=0
49983 On ch=4 n=71 v=0
49993 On ch=4 n=59 v=0
49999 On ch=4 n=69 v=95
50000 On ch=4 n=57 v=77
50065 On ch=4 n=69 v=0
50076 On ch=4 n=57 v=0
50078 On ch=4 n=55 v=85
50078 On ch=4 n=67 v=111
50146 On ch=4 n=67 v=0
50146 On ch=4 n=55 v=0
50157 On ch=4 n=57 v=108
50157 On ch=4 n=69 v=111
50393 On ch=4 n=69 v=0
50398 On ch=4 n=59 v=76
50398 On ch=4 n=71 v=98
50401 On ch=4 n=57 v=0
50463 On ch=4 n=71 v=0
50476 On ch=4 n=59 v=0
50477 On ch=4 n=69 v=98
50477 On ch=4 n=57 v=83
50548 On ch=4 n=69 v=0
50558 On ch=4 n=55 v=95
50558 On ch=4 n=67 v=112
50563 On ch=4 n=57 v=0
50629 On ch=4 n=67 v=0
50637 On ch=4 n=55 v=0
50637 On ch=4 n=69 v=111
50637 On ch=4 n=57 v=104
50718 On ch=4 n=67 v=104
50718 On ch=4 n=55 v=104
50723 On ch=4 n=69 v=0
50726 On ch=4 n=57 v=0
50786 On ch=4 n=55 v=0
50791 On ch=4 n=67 v=0
50791 On ch=4 n=54 v=87
50791 On ch=4 n=66 v=95
50849 On ch=4 n=66 v=0
50849 On ch=4 n=54 v=0
50865 On ch=4 n=55 v=100
50870 On ch=4 n=67 v=104
50896 On ch=4 n=55 v=0
50901 On ch=4 n=67 v=0
50901 On ch=4 n=66 v=93
50906 On ch=4 n=54 v=60
50927 On ch=4 n=54 v=0
50933 On ch=4 n=66 v=0
50935 On ch=4 n=52 v=93
50935 On ch=4 n=64 v=95
51263 On ch=4 n=52 v=0
51265 On ch=4 n=64 v=0
51363 On ch=4 n=52 v=98
51363 On ch=4 n=64 v=104
51428 On ch=4 n=52 v=0
51441 On ch=4 n=64 v=0
51445 On ch=4 n=54 v=98
51445 On ch=4 n=66 v=81
51516 On ch=4 n=66 v=0
51518 On ch=4 n=54 v=0
51523 On ch=4 n=67 v=85
51523 On ch=4 n=55 v=77
51591 On ch=4 n=55 v=0
51591 On ch=4 n=67 v=0
51600 On ch=4 n=69 v=93
51600 On ch=4 n=57 v=87
51826 On ch=4 n=69 v=0
51837 On ch=4 n=59 v=104
51837 On ch=4 n=71 v=79
51839 On ch=4 n=57 v=0
51903 On ch=4 n=71 v=0
51913 On ch=4 n=59 v=0
51919 On ch=4 n=69 v=95
51920 On ch=4 n=57 v=77
51985 On ch=4 n=69 v=0
51996 On ch=4 n=57 v=0
51998 On ch=4 n=55 v=85
51998 On ch=4 n=67 v=111
52066 On ch=4 n=67 v=0
52066 On ch=4 n=55 v=0
52077 On ch=4 n=57 v=108
52077 On ch=4 n=69 v=111
52313 On ch=4 n=69 v=0
52318 On ch=4 n=59 v=76
52318 On ch=4 n=71 v=98
52321 On ch=4 n=57 v=0
52383 On ch=4 n=71 v=0
52396 On ch=4 n=59 v=0
52397 On ch=4 n=69 v=98
52397 On ch=4 n=57 v=83
52468 On ch=4 n=69 v=0
52478 On ch=4 n=55 v=95
52478 On ch=4 n=67 v=112
52483 On ch=4 n=57 v=0
52549 On ch=4 n=67 v=0
52557 On ch=4 n=55 v=0
52557 On ch=4 n=69 v=111
52557 On ch=4 n=57 v=104
52638 On ch=4 n=67 v=104
52638 On ch=4 n=55 v=104
52643 On ch=4 n=69 v=0
52646 On ch=4 n=57 v=0
52706 On ch=4 n=55 v=0
52711 On ch=4 n=67 v=0
52711 On ch=4 n=54 v=87
52711 On ch=4 n=66 v=95
52769 On ch=4 n=66 v=0
52769 On ch=4 n=54 v=0
52785 On ch=4 n=55 v=100
52790 On ch=4 n=67 v=104
52816 On ch=4 n=55 v=0
52821 On ch=4 n=67 v=0
52821 On ch=4 n=66 v=93
52826 On ch=4 n=54 v=60
52847 On ch=4 n=54 v=0
52853 On ch=4 n=66 v=0
52855 On ch=4 n=52 v=93
52855 On ch=4 n=64 v=95
53183 On ch=4 n=52 v=0
53185 On ch=4 n=64 v=0
53283 On ch=4 n=52 v=98
53283 On ch=4 n=64 v=104
53348 On ch=4 n=52 v=0
53361 On ch=4 n=64 v=0
53365 On ch=4 n=54 v=98
53365 On ch=4 n=66 v=81
53436 On ch=4 n=66 v=0
53438 On ch=4 n=54 v=0
53443 On ch=4 n=67 v=85
53443 On ch=4 n=55 v=77
53511 On ch=4 n=55 v=0
53511 On ch=4 n=67 v=0
53520 On ch=4 n=69 v=93
53520 On ch=4 n=57 v=87
53746 On ch=4 n=69 v=0
53757 On ch=4 n=59 v=104
53757 On ch=4 n=71 v=79
53759 On ch=4 n=57 v=0
53823 On ch=4 n=71 v=0
53833 On ch=4 n=59 v=0
53839 On ch=4 n=69 v=95
53840 On ch=4 n=57 v=77
53905 On ch=4 n=69 v=0
53916 On ch=4 n=57 v=0
53918 On ch=4 n=55 v=85
53918 On ch=4 n=67 v=111
53986 On ch=4 n=67 v=0
53986 On ch=4 n=55 v=0
53997 On ch=4 n=57 v=108
53997 On ch=4 n=69 v=111
54233 On ch=4 n=69 v=0
54238 On ch=4 n=59 v=76
54238 On ch=4 n=71 v=98
54241 On ch=4 n=57 v=0
54303 On ch=4 n=71 v=0
54316 On ch=4 n=59 v=0
54317 On ch=4 n=69 v=98
54317 On ch=4 n=57 v=83
54388 On ch=4 n=69 v=0
54398 On ch=4 n=55 v=95
54398 On ch=4 n=67 v=112
54403 On ch=4 n=57 v=0
54469 On ch=4 n=67 v=0
54477 On ch=4 n=55 v=0
54477 On ch=4 n=69 v=111
54477 On ch=4 n=57 v=104
54558 On ch=4 n=67 v=104
54558 On ch=4 n=55 v=104
54563 On ch=4 n=69 v=0
54566 On ch=4 n=57 v=0
54626 On ch=4 n=55 v=0
54631 On ch=4 n=67 v=0
54631 On ch=4 n=54 v=87
54631 On ch=4 n=66 v=95
54689 On ch=4 n=66 v=0
54689 On ch=4 n=54 v=0
54705 On ch=4 n=55 v=100
54710 On ch=4 n=67 v=104
54736 On ch=4 n=55 v=0
54741 On ch=4 n=67 v=0
54741 On ch=4 n=66 v=93
54746 On ch=4 n=54 v=60
54767 On ch=4 n=54 v=0
54773 On ch=4 n=66 v=0
54775 On ch=4 n=52 v=93
54775 On ch=4 n=64 v=95
55103 On ch=4 n=52 v=0
55105 On ch=4 n=64 v=0
55203 On ch=4 n=52 v=98
55203 On ch=4 n=64 v=104
55268 On ch=4 n=52 v=0
55281 On ch=4 n=64 v=0
55285 On ch=4 n=54 v=98
55285 On ch=4 n=66 v=81
55356 On ch=4 n=66 v=0
55358 On ch=4 n=54 v=0
55363 On ch=4 n=67 v=85
55363 On ch=4 n=55 v=77
55431 On ch=4 n=55 v=0
55431 On ch=4 n=67 v=0
55440 On ch=4 n=69 v=93
55440 On ch=4 n=57 v=87
55666 On ch=4 n=69 v=0
55677 On ch=4 n=59 v=104
55677 On ch=4 n=71 v=79
55679 On ch=4 n=57 v=0
55743 On ch=4 n=71 v=0
55753 On ch=4 n=59 v=0
55759 On ch=4 n=69 v=95
55760 On ch=4 n=57 v=77
55825 On ch=4 n=69 v=0
55836 On ch=4 n=57 v=0
55838 On ch=4 n=55 v=85
55838 On ch=4 n=67 v=111
55906 On ch=4 n=67 v=0
55906 On ch=4 n=55 v=0
55917 On ch=4 n=57 v=108
55917 On ch=4 n=69 v=111
56153 On ch=4 n=69 v=0
56158 On ch=4 n=59 v=76
56158 On ch=4 n=71 v=98
56161 On ch=4 n=57 v=0
56223 On ch=4 n=71 v=0
56236 On ch=4 n=59 v=0
56237 On ch=4 n=69 v=98
56237 On ch=4 n=57 v=83
56308 On ch=4 n=69 v=0
56318 On ch=4 n=55 v=95
56318 On ch=4 n=67 v=112
56323 On ch=4 n=57 v=0
56389 On ch=4 n=67 v=0
56397 On ch=4 n=55 v=0
56397 On ch=4 n=69 v=111
56397 On ch=4 n=57 v=104
56478 On ch=4 n=67 v=104
56478 On ch=4 n=55 v=104
56483 On ch=4 n=69 v=0
56486 On ch=4 n=57 v=0
56546 On ch=4 n=55 v=0
56551 On ch=4 n=67 v=0
56551 On ch=4 n=54 v=87
56551 On ch=4 n=66 v=95
56609 On ch=4 n=66 v=0
56609 On ch=4 n=54 v=0
56625 On ch=4 n=55 v=100
56630 On ch=4 n=67 v=104
56656 On ch=4 n=55 v=0
56661 On ch=4 n=67 v=0
56661 On ch=4 n=66 v=93
56666 On ch=4 n=54 v=60
56687 On ch=4 n=54 v=0
56693 On ch=4 n=66 v=0
56695 On ch=4 n=52 v=93
56695 On ch=4 n=64 v=95
57023 On ch=4 n=52 v=0
57025 On ch=4 n=64 v=0
57123 On ch=4 n=52 v=98
57123 On ch=4 n=64 v=104
57188 On ch=4 n=52 v=0
57201 On ch=4 n=64 v=0
57205 On ch=4 n=54 v=98
57205 On ch=4 n=66 v=81
57276 On ch=4 n=66 v=0
57278 On ch=4 n=54 v=0
57283 On ch=4 n=67 v=85
57283 On ch=4 n=55 v=77
57351 On ch=4 n=55 v=0
57351 On ch=4 n=67 v=0
57360 On ch=4 n=69 v=93
57360 On ch=4 n=57 v=87
57586 On ch=4 n=69 v=0
57597 On ch=4 n=59 v=104
57597 On ch=4 n=71 v=79
57599 On ch=4 n=57 v=0
57663 On ch=4 n=71 v=0
57673 On ch=4 n=59 v=0
57679 On ch=4 n=69 v=95
57680 On ch=4 n=57 v=77
57745 On ch=4 n=69 v=0
57756 On ch=4 n=57 v=0
57758 On ch=4 n=55 v=85
57758 On ch=4 n=67 v=111
57826 On ch=4 n=67 v=0
57826 On ch=4 n=55 v=0
57837 On ch=4 n=57 v=108
57837 On ch=4 n=69 v=111
58073 On ch=4 n=69 v=0
58078 On ch=4 n=59 v=76
58078 On ch=4 n=71 v=98
58081 On ch=4 n=57 v=0
58143 On ch=4 n=71 v=0
58156 On ch=4 n=59 v=0
58157 On ch=4 n=69 v=98
58157 On ch=4 n=57 v=83
58228 On ch=4 n=69 v=0
58238 On ch=4 n=55 v=95
58238 On ch=4 n=67 v=112
58243 On ch=4 n=57 v=0
58309 On ch=4 n=67 v=0
58317 On ch=4 n=55 v=0
58317 On ch=4 n=69 v=111
58317 On ch=4 n=57 v=104
58398 On ch=4 n=67 v=104
58398 On ch=4 n=55 v=104
58403 On ch=4 n=69 v=0
58406 On ch=4 n=57 v=0
58466 On ch=4 n=55 v=0
58471 On ch=4 n=67 v=0
58471 On ch=4 n=54 v=87
58471 On ch=4 n=66 v=95
58529 On ch=4 n=66 v=0
58529 On ch=4 n=54 v=0
58545 On ch=4 n=55 v=100
58550 On ch=4 n=67 v=104
58576 On ch=4 n=55 v=0
58581 On ch=4 n=67 v=0
58581 On ch=4 n=66 v=93
58586 On ch=4 n=54 v=60
58607 On ch=4 n=54 v=0
58613 On ch=4 n=66 v=0
58615 On ch=4 n=52 v=93
58615 On ch=4 n=64 v=95
58943 On ch=4 n=52 v=0
58945 On ch=4 n=64 v=0
59043 On ch=4 n=52 v=98
59043 On ch=4 n=64 v=104
59108 On ch=4 n=52 v=0
59121 On ch=4 n=64 v=0
59125 On ch=4 n=54 v=98
59125 On ch=4 n=66 v=81
59196 On ch=4 n=66 v=0
59198 On ch=4 n=54 v=0
59203 On ch=4 n=67 v=85
59203 On ch=4 n=55 v=77
59271 On ch=4 n=55 v=0
59271 On ch=4 n=67 v=0
59280 On ch=4 n=69 v=93
59280 On ch=4 n=57 v=87
59506 On ch=4 n=69 v=0
59517 On ch=4 n=59 v=104
59517 On ch=4 n=71 v=79
59519 On ch=4 n=57 v=0
59583 On ch=4 n=71 v=0
59593 On ch=4 n=59 v=0
59599 On ch=4 n=69 v=95
59600 On ch=4 n=57 v=77
59665 On ch=4 n=69 v=0
59676 On ch=4 n=57 v=0
59678 On ch=4 n=55 v=85
59678 On ch=4 n=67 v=111
59746 On ch=4 n=67 v=0
59746 On ch=4 n=55 v=0
59757 On ch=4 n=57 v=108
59757 On ch=4 n=69 v=111
59993 On ch=4 n=69 v=0
59998 On ch=4 n=59 v=76
59998 On ch=4 n=71 v=98
60001 On ch=4 n=57 v=0
60063 On ch=4 n=71 v=0
60076 On ch=4 n=59 v=0
60077 On ch=4 n=69 v=98
60077 On ch=4 n=57 v=83
60148 On ch=4 n=69 v=0
60158 On ch=4 n=55 v=95
60158 On ch=4 n=67 v=112
60163 On ch=4 n=57 v=0
60229 On ch=4 n=67 v=0
60237 On ch=4 n=55 v=0
60237 On ch=4 n=69 v=111
60237 On ch=4 n=57 v=104
60318 On ch=4 n=67 v=104
60318 On ch=4 n=55 v=104
60323 On ch=4 n=69 v=0
60326 On ch=4 n=57 v=0
60386 On ch=4 n=55 v=0
60391 On ch=4 n=67 v=0
60391 On ch=4 n=54 v=87
60391 On ch=4 n=66 v=95
60449 On ch=4 n=66 v=0
60449 On ch=4 n=54 v=0
60465 On ch=4 n=55 v=100
60470 On ch=4 n=67 v=104
60496 On ch=4 n=55 v=0
60501 On ch=4 n=67 v=0
60501 On ch=4 n=66 v=93
60506 On ch=4 n=54 v=60
60527 On ch=4 n=54 v=0
60533 On ch=4 n=66 v=0
60535 On ch=4 n=52 v=93
60535 On ch=4 n=64 v=95
60863 On ch=4 n=52 v=0
60865 On ch=4 n=64 v=0
60963 On ch=4 n=52 v=98
60963 On ch=4 n=64 v=104
61028 On ch=4 n=52 v=0
61041 On ch=4 n=64 v=0
61045 On ch=4 n=54 v=98
61045 On ch=4 n=66 v=81
61116 On ch=4 n=66 v=0
61118 On ch=4 n=54 v=0
61123 On ch=4 n=67 v=85
61123 On ch=4 n=55 v=77
61191 On ch=4 n=55 v=0
61191 On ch=4 n=67 v=0
61200 On ch=4 n=69 v=93
61200 On ch=4 n=57 v=87
61426 On ch=4 n=69 v=0
61437 On ch=4 n=59 v=104
61437 On ch=4 n=71 v=79
61439 On ch=4 n=57 v=0
61503 On ch=4 n=71 v=0
61513 On ch=4 n=59 v=0
61519 On ch=4 n=69 v=95
61520 On ch=4 n=57 v=77
61585 On ch=4 n=69 v=0
61596 On ch=4 n=57 v=0
61598 On ch=4 n=55 v=85
61598 On ch=4 n=67 v=111
61666 On ch=4 n=67 v=0
61666 On ch=4 n=55 v=0
61677 On ch=4 n=57 v=108
61677 On ch=4 n=69 v=111
61913 On ch=4 n=69 v=0
61918 On ch=4 n=59 v=76
61918 On ch=4 n=71 v=98
61921 On ch=4 n=57 v=0
61983 On ch=4 n=71 v=0
61996 On ch=4 n=59 v=0
61997 On ch=4 n=69 v=98
61997 On ch=4 n=57 v=83
62068 On ch=4 n=69 v=0
62078 On ch=4 n=55 v=95
62078 On ch=4 n=67 v=112
62083 On ch=4 n=57 v=0
62149 On ch=4 n=67 v=0
62157 On ch=4 n=55 v=0
62157 On ch=4 n=69 v=111
62157 On ch=4 n=57 v=104
62238 On ch=4 n=67 v=104
62238 On ch=4 n=55 v=104
62243 On ch=4 n=69 v=0
62246 On ch=4 n=57 v=0
62306 On ch=4 n=55 v=0
62311 On ch=4 n=67 v=0
62311 On ch=4 n=54 v=87
62311 On ch=4 n=66 v=95
62369 On ch=4 n=66 v=0
62369 On ch=4 n=54 v=0
62385 On ch=4 n=55 v=100
62390 On ch=4 n=67 v=104
62416 On ch=4 n=55 v=0
62421 On ch=4 n=67 v=0
62421 On ch=4 n=66 v=93
62426 On ch=4 n=54 v=60
62447 On ch=4 n=54 v=0
62453 On ch=4 n=66 v=0
62455 On ch=4 n=52 v=93
62455 On ch=4 n=64 v=95
62783 On ch=4 n=52 v=0
62785 On ch=4 n=64 v=0
62883 On ch=4 n=52 v=98
62883 On ch=4 n=64 v=104
62948 On ch=4 n=52 v=0
62961 On ch=4 n=64 v=0
62965 On ch=4 n=54 v=98
62965 On ch=4 n=66 v=81
63036 On ch=4 n=66 v=0
63038 On ch=4 n=54 v=0
63043 On ch=4 n=67 v=85
63043 On ch=4 n=55 v=77
63111 On ch=4 n=55 v=0
63111 On ch=4 n=67 v=0
63120 On ch=4 n=69 v=93
63120 On ch=4 n=57 v=87
63346 On ch=4 n=69 v=0
63357 On ch=4 n=59 v=104
63357 On ch=4 n=71 v=79
63359 On ch=4 n=57 v=0
63423 On ch=4 n=71 v=0
63433 On ch=4 n=59 v=0
63439 On ch=4 n=69 v=95
63440 On ch=4 n=57 v=77
63505 On ch=4 n=69 v=0
63516 On ch=4 n=57 v=0
63518 On ch=4 n=55 v=85
63518 On ch=4 n=67 v=111
63586 On ch=4 n=67 v=0
63586 On ch=4 n=55 v=0
63597 On ch=4 n=57 v=108
63597 On ch=4 n=69 v=111
63833 On ch=4 n=69 v=0
63838 On ch=4 n=59 v=76
63838 On ch=4 n=71 v=98
63841 On ch=4 n=57 v=0
63903 On ch=4 n=71 v=0
63916 On ch=4 n=59 v=0
63917 On ch=4 n=69 v=98
63917 On ch=4 n=57 v=83
63988 On ch=4 n=69 v=0
63998 On ch=4 n=55 v=95
63998 On ch=4 n=67 v=112
64003 On ch=4 n=57 v=0
64069 On ch=4 n=67 v=0
64077 On ch=4 n=55 v=0
64077 On ch=4 n=69 v=111
64077 On ch=4 n=57 v=104
64158 On ch=4 n=67 v=104
64158 On ch=4 n=55 v=104
64163 On ch=4 n=69 v=0
64166 On ch=4 n=57 v=0
64226 On ch=4 n=55 v=0
64231 On ch=4 n=67 v=0
64231 On ch=4 n=54 v=87
64231 On ch=4 n=66 v=95
64289 On ch=4 n=66 v=0
64289 On ch=4 n=54 v=0
64305 On ch=4 n=55 v=100
64310 On ch=4 n=67 v=104
64336 On ch=4 n=55 v=0
64341 On ch=4 n=67 v=0
64341 On ch=4 n=66 v=93
64346 On ch=4 n=54 v=60
64367 On ch=4 n=54 v=0
64373 On ch=4 n=66 v=0
64375 On ch=4 n=52 v=93
64375 On ch=4 n=64 v=95
64703 On ch=4 n=52 v=0
64705 On ch=4 n=64 v=0
64803 On ch=4 n=52 v=98
64803 On ch=4 n=64 v=104
64868 On ch=4 n=52 v=0
64881 On ch=4 n=64 v=0
64885 On ch=4 n=54 v=98
64885 On ch=4 n=66 v=81
64956 On ch=4 n=66 v=0
64958 On ch=4 n=54 v=0
64963 On ch=4 n=67 v=85
64963 On ch=4 n=55 v=77
65031 On ch=4 n=55 v=0
65031 On ch=4 n=67 v=0
65040 On ch=4 n=69 v=93
65040 On ch=4 n=57 v=87
65266 On ch=4 n=69 v=0
65277 On ch=4 n=59 v=104
65277 On ch=4 n=71 v=79
65279 On ch=4 n=57 v=0
65343 On ch=4 n=71 v=0
65353 On ch=4 n=59 v=0
65359 On ch=4 n=69 v=95
65360 On ch=4 n=57 v=77
65425 On ch=4 n=69 v=0
65436 On ch=4 n=57 v=0
65438 On ch=4 n=55 v=85
65438 On ch=4 n=67 v=111
65506 On ch=4 n=67 v=0
65506 On ch=4 n=55 v=0
65517 On ch=4 n=57 v=108
65517 On ch=4 n=69 v=111
65753 On ch=4 n=69 v=0
65758 On ch=4 n=59 v=76
65758 On ch=4 n=71 v=98
65761 On ch=4 n=57 v=0
65823 On ch=4 n=71 v=0
65836 On ch=4 n=59 v=0
65837 On ch=4 n=69 v=98
65837 On ch=4 n=57 v=83
65908 On ch=4 n=69 v=0
65918 On ch=4 n=55 v=95
65918 On ch=4 n=67 v=112
65923 On ch=4 n=57 v=0
65989 On ch=4 n=67 v=0
65997 On ch=4 n=55 v=0
65997 On ch=4 n=69 v=111
65997 On ch=4 n=57 v=104
66078 On ch=4 n=67 v=104
66078 On ch=4 n=55 v=104
66083 On ch=4 n=69 v=0
66086 On ch=4 n=57 v=0
66146 On ch=4 n=55 v=0
66151 On ch=4 n=67 v=0
66151 On ch=4 n=54 v=87
66151 On ch=4 n=66 v=95
66209 On ch=4 n=66 v=0
66209 On ch=4 n=54 v=0
66225 On ch=4 n=55 v=100
66230 On ch=4 n=67 v=104
66256 On ch=4 n=55 v=0
66261 On ch=4 n=67 v=0
66261 On ch=4 n=66 v=93
66266 On ch=4 n=54 v=60
66287 On ch=4 n=54 v=0
66293 On ch=4 n=66 v=0
66295 On ch=4 n=52 v=93
66295 On ch=4 n=64 v=95
66623 On ch=4 n=52 v=0
66625 On ch=4 n=64 v=0
66723 On ch=4 n=52 v=98
66723 On ch=4 n=64 v=104
66788 On ch=4 n=52 v=0
66801 On ch=4 n=64 v=0
66805 On ch=4 n=54 v=98
66805 On ch=4 n=66 v=81
66876 On ch=4 n=66 v=0
66878 On ch=4 n=54 v=0
66883 On ch=4 n=67 v=85
66883 On ch=4 n=55 v=77
66951 On ch=4 n=55 v=0
66951 On ch=4 n=67 v=0
66960 On ch=4 n=69 v=93
66960 On ch=4 n=57 v=87
67186 On ch=4 n=69 v=0
67197 On ch=4 n=59 v=104
67197 On ch=4 n=71 v=79
67199 On ch=4 n=57 v=0
67263 On ch=4 n=71 v=0
67273 On ch=4 n=59 v=0
67279 On ch=4 n=69 v=95
67280 On ch=4 n=57 v=77
67345 On ch=4 n=69 v=0
67356 On ch=4 n=57 v=0
67358 On ch=4 n=55 v=85
67358 On ch=4 n=67 v=111
67426 On ch=4 n=67 v=0
67426 On ch=4 n=55 v=0
67437 On ch=4 n=57 v=108
67437 On ch=4 n=69 v=111
67673 On ch=4 n=69 v=0
67678 On ch=4 n=59 v=76
67678 On ch=4 n=71 v=98
67681 On ch=4 n=57 v=0
67743 On ch=4 n=71 v=0
67756 On ch=4 n=59 v=0
67757 On ch=4 n=69 v=98
67757 On ch=4 n=57 v=83
67828 On ch=4 n=69 v=0
67838 On ch=4 n=55 v=95
67838 On ch=4 n=67 v=112
67843 On ch=4 n=57 v=0
67909 On ch=4 n=67 v=0
67917 On ch=4 n=55 v=0
67917 On ch=4 n=69 v=111
67917 On ch=4 n=57 v=104
67998 On ch=4 n=67 v=104
67998 On ch=4 n=55 v=104
68003 On ch=4 n=69 v=0
68006 On ch=4 n=57 v=0
68066 On ch=4 n=55 v=0
68071 On ch=4 n=67 v=0
68071 On ch=4 n=54 v=87
68071 On ch=4 n=66 v=95
68129 On ch=4 n=66 v=0
68129 On ch=4 n=54 v=0
68145 On ch=4 n=55 v=100
68150 On ch=4 n=67 v=104
68176 On ch=4 n=55 v=0
68181 On ch=4 n=67 v=0
68181 On ch=4 n=66 v=93
68186 On ch=4 n=54 v=60
68207 On ch=4 n=54 v=0
68213 On ch=4 n=66 v=0
68215 On ch=4 n=64 v=95
68220 On ch=4 n=52 v=93
68605 On ch=4 n=64 v=0
68610 On ch=4 n=52 v=0
68708 Par ch=4 c=11 v=126
68713 Par ch=4 c=11 v=125
68713 Par ch=4 c=11 v=123
68713 Par ch=4 c=11 v=121
68713 Par ch=4 c=11 v=119
68713 Par ch=4 c=11 v=117
68713 Par ch=4 c=11 v=114
68713 Par ch=4 c=11 v=112
68713 Par ch=4 c=11 v=110
68713 Par ch=4 c=11 v=107
68719 Par ch=4 c=11 v=104
68719 Par ch=4 c=11 v=101
68719 Par ch=4 c=11 v=98
68719 Par ch=4 c=11 v=95
68719 Par ch=4 c=11 v=92
68719 Par ch=4 c=11 v=89
68719 Par ch=4 c=11 v=85
68719 Par ch=4 c=11 v=82
68719 Par ch=4 c=11 v=78
68724 Par ch=4 c=11 v=74
68724 Par ch=4 c=11 v=70
68724 Par ch=4 c=11 v=66
68724 Par ch=4 c=11 v=62
68724 Par ch=4 c=11 v=58
68724 Par ch=4 c=11 v=54
68724 Par ch=4 c=11 v=50
68724 Par ch=4 c=11 v=45
68724 Par ch=4 c=11 v=41
68729 Par ch=4 c=11 v=36
68729 Par ch=4 c=11 v=31
68729 Par ch=4 c=11 v=26
68729 Par ch=4 c=11 v=21
68729 Par ch=4 c=11 v=16
68729 Par ch=4 c=11 v=11
68729 Par ch=4 c=11 v=6
68729 Par ch=4 c=11 v=1
68729 Par ch=4 c=11 v=0
68766 Par ch=4 c=11 v=1
68766 Par ch=4 c=11 v=3
68766 Par ch=4 c=11 v=5
68766 Par ch=4 c=11 v=7
68766 Par ch=4 c=11 v=10
68766 Par ch=4 c=11 v=12
68772 Par ch=4 c=11 v=14
68772 Par ch=4 c=11 v=17
68772 Par ch=4 c=11 v=20
68772 Par ch=4 c=11 v=23
68772 Par ch=4 c=11 v=26
68772 Par ch=4 c=11 v=29
68772 Par ch=4 c=11 v=32
68772 Par ch=4 c=11 v=36
68772 Par ch=4 c=11 v=39
68772 Par ch=4 c=11 v=43
68772 Par ch=4 c=11 v=47
68772 Par ch=4 c=11 v=50
68772 Par ch=4 c=11 v=55
68772 Par ch=4 c=11 v=58
68772 Par ch=4 c=11 v=63
68772 Par ch=4 c=11 v=67
68772 Par ch=4 c=11 v=71
68772 Par ch=4 c=11 v=75
68772 Par ch=4 c=11 v=79
68772 Par ch=4 c=11 v=84
68772 Par ch=4 c=11 v=88
68772 Par ch=4 c=11 v=92
68772 Par ch=4 c=11 v=96
68772 Par ch=4 c=11 v=101
68772 Par ch=4 c=11 v=105
68772 Par ch=4 c=11 v=109
68772 Par ch=4 c=11 v=114
68772 Par ch=4 c=11 v=118
68772 Par ch=4 c=11 v=122
68772 Par ch=4 c=11 v=126
68772 Par ch=4 c=11 v=127
68816 Par ch=4 c=11 v=126
68816 Par ch=4 c=11 v=123
68816 Par ch=4 c=11 v=120
68816 Par ch=4 c=11 v=116
68816 Par ch=4 c=11 v=113
68816 Par ch=4 c=11 v=109
68816 Par ch=4 c=11 v=106
68816 Par ch=4 c=11 v=102
68816 Par ch=4 c=11 v=98
68816 Par ch=4 c=11 v=94
68816 Par ch=4 c=11 v=91
68816 Par ch=4 c=11 v=87
68816 Par ch=4 c=11 v=83
68816 Par ch=4 c=11 v=80
68816 Par ch=4 c=11 v=76
68816 Par ch=4 c=11 v=73
68816 Par ch=4 c=11 v=69
68816 Par ch=4 c=11 v=65
68816 Par ch=4 c=11 v=61
68816 Par ch=4 c=11 v=58
68816 Par ch=4 c=11 v=54
68816 Par ch=4 c=11 v=50
68816 Par ch=4 c=11 v=46
68816 Par ch=4 c=11 v=42
68816 Par ch=4 c=11 v=39
68816 Par ch=4 c=11 v=35
68816 Par ch=4 c=11 v=32
68816 Par ch=4 c=11 v=28
68816 Par ch=4 c=11 v=24
68816 Par ch=4 c=11 v=21
68816 Par ch=4 c=11 v=18
68816 Par ch=4 c=11 v=14
68816 Par ch=4 c=11 v=11
68816 Par ch=4 c=11 v=7
68816 Par ch=4 c=11 v=4
68816 Par ch=4 c=11 v=0
69120 Par ch=4 c=64 v=127
69138 On ch=4 n=90 v=58
69149 Par ch=4 c=11 v=1
69151 Par ch=4 c=64 v=0
69152 Par ch=4 c=11 v=2
69152 Par ch=4 c=11 v=3
69152 Par ch=4 c=11 v=4
69156 On ch=4 n=90 v=0
69156 On ch=4 n=88 v=61
69157 Par ch=4 c=11 v=5
69157 Par ch=4 c=11 v=6
69157 Par ch=4 c=11 v=7
69157 Par ch=4 c=11 v=8
69157 Par ch=4 c=11 v=9
69157 Par ch=4 c=11 v=10
69157 Par ch=4 c=11 v=11
69157 Par ch=4 c=11 v=12
69157 Par ch=4 c=11 v=13
69162 Par ch=4 c=11 v=14
69168 Par ch=4 c=11 v=15
69168 Par ch=4 c=11 v=16
69173 Par ch=4 c=11 v=17
69173 Par ch=4 c=11 v=18
69175 Par ch=4 c=11 v=19
69175 Par ch=4 c=11 v=20
69178 Par ch=4 c=11 v=21
69180 On ch=4 n=88 v=0
69180 On ch=4 n=86 v=54
69181 Par ch=4 c=11 v=22
69181 Par ch=4 c=11 v=23
69186 Par ch=4 c=11 v=24
69186 Par ch=4 c=11 v=25
69188 On ch=4 n=86 v=0
69191 Par ch=4 c=11 v=26
69194 Par ch=4 c=11 v=27
69199 Par ch=4 c=11 v=28
69199 Par ch=4 c=11 v=29
69204 Par ch=4 c=11 v=30
69210 Par ch=4 c=11 v=31
69215 Par ch=4 c=11 v=32
69217 Par ch=4 c=64 v=127
69222 On ch=4 n=86 v=58
69226 Par ch=4 c=11 v=33
69226 Par ch=4 c=11 v=34
69236 On ch=4 n=88 v=56
69236 Par ch=4 c=11 v=35
69241 Par ch=4 c=11 v=36
69241 Par ch=4 c=11 v=37
69246 On ch=4 n=86 v=0
69247 Par ch=4 c=11 v=38
69252 Par ch=4 c=11 v=39
69257 On ch=4 n=88 v=0
69262 On ch=4 n=90 v=63
69263 Par ch=4 c=11 v=40
69263 Par ch=4 c=11 v=41
69265 Par ch=4 c=64 v=0
69268 Par ch=4 c=11 v=42
69276 Par ch=4 c=11 v=43
69281 Par ch=4 c=11 v=44
69283 On ch=4 n=88 v=61
69286 Par ch=4 c=11 v=45
69291 On ch=4 n=90 v=0
69292 Par ch=4 c=11 v=46
69297 Par ch=4 c=11 v=47
69302 On ch=4 n=86 v=59
69302 Par ch=4 c=11 v=48
69310 On ch=4 n=88 v=0
69315 On ch=4 n=86 v=0
69315 On ch=4 n=83 v=63
69315 Par ch=4 c=11 v=49
69315 Par ch=4 c=11 v=50
69326 Par ch=4 c=11 v=51
69331 Par ch=4 c=64 v=127
69341 On ch=4 n=83 v=0
69342 Par ch=4 c=11 v=52
69347 On ch=4 n=86 v=61
69347 Par ch=4 c=11 v=53
69358 Par ch=4 c=11 v=54
69365 On ch=4 n=88 v=58
69366 Par ch=4 c=11 v=55
69370 On ch=4 n=86 v=0
69371 Par ch=4 c=11 v=56
69379 Par ch=4 c=11 v=57
69381 On ch=4 n=88 v=0
69384 Par ch=4 c=11 v=58
69386 On ch=4 n=90 v=59
69389 Par ch=4 c=11 v=59
69395 Par ch=4 c=11 v=60
69400 Par ch=4 c=11 v=61
69402 Par ch=4 c=64 v=0
69407 On ch=4 n=88 v=63
69410 Par ch=4 c=11 v=62
69410 Par ch=4 c=11 v=63
69413 On ch=4 n=90 v=0
69416 Par ch=4 c=11 v=64
69424 Par ch=4 c=11 v=65
69431 On ch=4 n=86 v=56
69434 Par ch=4 c=11 v=66
69436 On ch=4 n=88 v=0
69444 On ch=4 n=86 v=0
69447 On ch=4 n=83 v=60
69447 Par ch=4 c=11 v=67
69461 Par ch=4 c=11 v=68
69471 On ch=4 n=83 v=0
69471 On ch=4 n=86 v=60
69471 Par ch=4 c=11 v=69
69476 Par ch=4 c=11 v=70
69479 Par ch=4 c=64 v=127
69487 Par ch=4 c=11 v=71
69494 On ch=4 n=88 v=59
69498 Par ch=4 c=11 v=72
69502 On ch=4 n=86 v=0
69513 On ch=4 n=88 v=0
69513 Par ch=4 c=11 v=73
69518 Par ch=4 c=64 v=0
69518 On ch=4 n=90 v=60
69519 Par ch=4 c=11 v=74
69532 Par ch=4 c=11 v=75
69542 On ch=4 n=88 v=61
69548 Par ch=4 c=11 v=76
69550 On ch=4 n=90 v=0
69556 Par ch=4 c=11 v=77
69560 On ch=4 n=86 v=58
69566 Par ch=4 c=11 v=78
69571 On ch=4 n=88 v=0
69577 Par ch=4 c=11 v=79
69582 On ch=4 n=86 v=0
69582 On ch=4 n=83 v=53
69587 Par ch=4 c=11 v=80
69598 Par ch=4 c=11 v=81
69603 On ch=4 n=83 v=0
69603 On ch=4 n=86 v=64
69603 Par ch=4 c=64 v=127
69603 Par ch=4 c=11 v=82
69616 Par ch=4 c=11 v=83
69626 On ch=4 n=88 v=61
69627 Par ch=4 c=11 v=84
69634 On ch=4 n=86 v=0
69640 Par ch=4 c=11 v=85
69648 On ch=4 n=88 v=0
69653 On ch=4 n=90 v=61
69659 Par ch=4 c=11 v=86
69663 Par ch=4 c=64 v=0
69671 On ch=4 n=88 v=63
69674 Par ch=4 c=11 v=87
69682 On ch=4 n=90 v=0
69685 Par ch=4 c=11 v=88
69692 On ch=4 n=86 v=59
69701 Par ch=4 c=11 v=89
69703 On ch=4 n=88 v=0
69714 On ch=4 n=86 v=0
69714 On ch=4 n=83 v=60
69717 Par ch=4 c=11 v=90
69732 Par ch=4 c=11 v=91
69737 On ch=4 n=83 v=0
69737 On ch=4 n=86 v=62
69737 Par ch=4 c=64 v=127
69743 Par ch=4 c=11 v=92
69754 Par ch=4 c=11 v=93
69758 On ch=4 n=88 v=59
69764 Par ch=4 c=11 v=94
69769 On ch=4 n=86 v=0
69772 Par ch=4 c=11 v=95
69780 On ch=4 n=88 v=0
69785 On ch=4 n=90 v=63
69785 Par ch=4 c=64 v=0
69785 Par ch=4 c=11 v=96
69801 Par ch=4 c=11 v=97
69806 On ch=4 n=88 v=64
69812 Par ch=4 c=11 v=98
69819 On ch=4 n=90 v=0
69824 On ch=4 n=86 v=61
69830 Par ch=4 c=64 v=127
69830 Par ch=4 c=11 v=99
69835 On ch=4 n=88 v=0
69846 Par ch=4 c=11 v=100
69848 On ch=4 n=86 v=0
69851 On ch=4 n=83 v=60
69857 Par ch=4 c=11 v=101
69867 Par ch=4 c=11 v=102
69869 On ch=4 n=83 v=0
69872 On ch=4 n=86 v=60
69883 Par ch=4 c=11 v=103
69893 On ch=4 n=88 v=58
69898 On ch=4 n=86 v=0
69906 Par ch=4 c=64 v=0
69907 Par ch=4 c=11 v=104
69914 On ch=4 n=88 v=0
69914 On ch=4 n=90 v=65
69930 Par ch=4 c=11 v=105
69938 On ch=4 n=88 v=63
69943 On ch=4 n=90 v=0
69944 Par ch=4 c=11 v=106
69956 On ch=4 n=86 v=60
69957 Par ch=4 c=11 v=107
69967 On ch=4 n=88 v=0
69972 On ch=4 n=86 v=0
69978 On ch=4 n=83 v=60
69996 On ch=4 n=83 v=0
70001 On ch=4 n=86 v=60
70002 Par ch=4 c=11 v=108
70020 On ch=4 n=88 v=60
70030 On ch=4 n=86 v=0
70039 Par ch=4 c=11 v=109
70046 On ch=4 n=88 v=0
70051 On ch=4 n=90 v=59
70057 Par ch=4 c=11 v=110
70073 On ch=4 n=88 v=63
70076 Par ch=4 c=11 v=111
70080 On ch=4 n=95 v=52
70086 On ch=4 n=90 v=0
70091 On ch=4 n=86 v=60
70092 Par ch=4 c=11 v=112
70099 On ch=4 n=88 v=0
70107 On ch=4 n=95 v=0
70112 On ch=4 n=86 v=0
70112 On ch=4 n=83 v=58
70113 Par ch=4 c=11 v=113
70128 Par ch=4 c=11 v=114
70133 On ch=4 n=83 v=0
70133 On ch=4 n=86 v=59
70142 Par ch=4 c=11 v=115
70149 On ch=4 n=88 v=60
70157 On ch=4 n=86 v=0
70163 Par ch=4 c=11 v=116
70168 On ch=4 n=88 v=0
70178 On ch=4 n=90 v=59
70184 Par ch=4 c=11 v=117
70202 On ch=4 n=90 v=0
70202 On ch=4 n=88 v=64
70212 On ch=4 n=88 v=0
70212 On ch=4 n=86 v=60
70213 Par ch=4 c=11 v=118
70239 On ch=4 n=86 v=0
70239 On ch=4 n=83 v=59
70253 Par ch=4 c=11 v=119
70260 On ch=4 n=83 v=0
70260 On ch=4 n=86 v=63
70276 Par ch=4 c=11 v=120
70281 On ch=4 n=88 v=59
70289 On ch=4 n=86 v=0
70297 On ch=4 n=88 v=0
70302 On ch=4 n=90 v=63
70303 Par ch=4 c=11 v=121
70319 Par ch=4 c=11 v=122
70326 On ch=4 n=88 v=65
70326 On ch=4 n=95 v=51
70334 On ch=4 n=90 v=0
70334 Par ch=4 c=11 v=123
70345 Par ch=4 c=11 v=124
70350 On ch=4 n=86 v=59
70355 On ch=4 n=95 v=0
70355 On ch=4 n=88 v=0
70363 Par ch=4 c=11 v=125
70368 On ch=4 n=86 v=0
70368 On ch=4 n=83 v=54
70387 On ch=4 n=83 v=0
70387 On ch=4 n=86 v=60
70392 Par ch=4 c=11 v=126
70411 Par ch=4 c=11 v=127
70413 On ch=4 n=88 v=55
70418 On ch=4 n=86 v=0
70424 Par ch=4 c=64 v=127
70429 On ch=4 n=88 v=0
70434 On ch=4 n=90 v=64
70455 Par ch=4 c=64 v=0
70455 On ch=4 n=88 v=64
70469 On ch=4 n=90 v=0
70479 On ch=4 n=86 v=60
70484 On ch=4 n=88 v=0
70498 On ch=4 n=86 v=0
70498 On ch=4 n=83 v=59
70521 On ch=4 n=83 v=0
70521 On ch=4 n=86 v=64
70540 On ch=4 n=88 v=59
70548 On ch=4 n=86 v=0
70556 Meta Text "%+"
70561 On ch=4 n=88 v=0
70566 On ch=4 n=90 v=69
70569 On ch=4 n=95 v=41
70574 On ch=4 n=88 v=60
70579 On ch=4 n=95 v=0
70581 On ch=4 n=90 v=0
70585 On ch=4 n=86 v=60
70589 On ch=4 n=88 v=0
70593 On ch=4 n=83 v=55
70595 On ch=4 n=86 v=0
70604 On ch=4 n=83 v=0
70604 On ch=4 n=86 v=63
70612 On ch=4 n=88 v=59
70614 On ch=4 n=86 v=0
70620 On ch=4 n=88 v=0
70622 On ch=4 n=90 v=62
70633 On ch=4 n=88 v=60
70634 On ch=4 n=90 v=0
70640 On ch=4 n=86 v=61
70646 On ch=4 n=88 v=0
70650 On ch=4 n=86 v=0
70652 On ch=4 n=83 v=58
70660 On ch=4 n=86 v=63
70663 On ch=4 n=83 v=0
70668 On ch=4 n=88 v=63
70672 On ch=4 n=86 v=0
70678 On ch=4 n=88 v=0
70680 On ch=4 n=90 v=63
70684 On ch=4 n=95 v=49
70691 On ch=4 n=88 v=62
70694 On ch=4 n=95 v=0
70697 On ch=4 n=90 v=0
70700 On ch=4 n=86 v=59
70704 On ch=4 n=88 v=0
70709 On ch=4 n=83 v=59
70710 On ch=4 n=86 v=0
70718 On ch=4 n=83 v=0
70718 On ch=4 n=86 v=60
70727 On ch=4 n=88 v=59
70730 On ch=4 n=86 v=0
70737 On ch=4 n=88 v=0
70739 On ch=4 n=90 v=60
70749 On ch=4 n=88 v=63
70752 On ch=4 n=90 v=0
70757 On ch=4 n=86 v=62
70763 On ch=4 n=88 v=0
70769 On ch=4 n=86 v=0
70770 On ch=4 n=83 v=55
70777 On ch=4 n=86 v=60
70779 On ch=4 n=83 v=0
70788 On ch=4 n=88 v=59
70790 On ch=4 n=86 v=0
70797 On ch=4 n=88 v=0
70797 On ch=4 n=90 v=63
70801 On ch=4 n=95 v=48
70809 On ch=4 n=88 v=63
70812 On ch=4 n=95 v=0
70815 On ch=4 n=90 v=0
70818 On ch=4 n=86 v=59
70823 On ch=4 n=88 v=0
70828 On ch=4 n=86 v=0
70830 On ch=4 n=83 v=48
70837 On ch=4 n=83 v=0
70840 On ch=4 n=86 v=61
70848 On ch=4 n=88 v=59
70851 On ch=4 n=86 v=0
70857 On ch=4 n=88 v=0
70860 On ch=4 n=90 v=61
70870 On ch=4 n=88 v=63
70876 On ch=4 n=90 v=0
70879 On ch=4 n=86 v=59
70883 On ch=4 n=88 v=0
70888 On ch=4 n=86 v=0
70888 On ch=4 n=83 v=57
70897 On ch=4 n=83 v=0
70897 On ch=4 n=86 v=62
70907 On ch=4 n=88 v=60
70910 On ch=4 n=86 v=0
70917 On ch=4 n=88 v=0
70917 On ch=4 n=95 v=47
70917 On ch=4 n=90 v=65
70929 On ch=4 n=95 v=0
70929 On ch=4 n=88 v=64
70931 Par ch=4 c=11 v=126
70934 On ch=4 n=90 v=0
70937 Par ch=4 c=11 v=125
70939 On ch=4 n=86 v=59
70941 On ch=4 n=88 v=0
70948 On ch=4 n=86 v=0
70948 On ch=4 n=83 v=58
70950 Par ch=4 c=11 v=124
70958 On ch=4 n=83 v=0
70958 On ch=4 n=86 v=63
70958 Par ch=4 c=11 v=123
70968 On ch=4 n=88 v=60
70971 On ch=4 n=86 v=0
70971 Par ch=4 c=11 v=122
70976 On ch=4 n=88 v=0
70979 On ch=4 n=90 v=66
70981 Par ch=4 c=11 v=121
70987 On ch=4 n=88 v=67
70993 Par ch=4 c=11 v=120
70994 On ch=4 n=90 v=0
70999 On ch=4 n=86 v=59
71004 On ch=4 n=88 v=0
71006 Par ch=4 c=11 v=119
71010 On ch=4 n=86 v=0
71010 On ch=4 n=83 v=54
71016 Par ch=4 c=11 v=118
71018 On ch=4 n=86 v=59
71020 On ch=4 n=83 v=0
71023 Par ch=4 c=11 v=117
71030 On ch=4 n=88 v=58
71030 Par ch=4 c=11 v=116
71031 On ch=4 n=95 v=53
71033 On ch=4 n=86 v=0
71035 On ch=4 n=88 v=0
71038 On ch=4 n=90 v=61
71038 Par ch=4 c=11 v=115
71043 On ch=4 n=95 v=0
71045 Par ch=4 c=11 v=114
71047 On ch=4 n=88 v=59
71052 On ch=4 n=90 v=0
71053 Par ch=4 c=11 v=113
71057 On ch=4 n=86 v=60
71061 On ch=4 n=88 v=0
71064 Par ch=4 c=11 v=112
71067 On ch=4 n=86 v=0
71067 On ch=4 n=83 v=55
71067 On ch=4 n=86 v=60
71068 On ch=4 n=83 v=0
71068 Par ch=4 c=11 v=111
71083 Par ch=4 c=11 v=110
71086 On ch=4 n=88 v=59
71090 On ch=4 n=86 v=0
71090 Par ch=4 c=11 v=109
71094 On ch=4 n=88 v=0
71098 On ch=4 n=90 v=59
71098 Par ch=4 c=11 v=108
71109 On ch=4 n=88 v=65
71113 On ch=4 n=90 v=0
71116 Par ch=4 c=11 v=107
71119 On ch=4 n=86 v=58
71119 Par ch=4 c=11 v=106
71123 On ch=4 n=88 v=0
71126 On ch=4 n=86 v=0
71129 On ch=4 n=83 v=58
71129 Par ch=4 c=11 v=105
71134 Par ch=4 c=11 v=104
71138 On ch=4 n=83 v=0
71138 On ch=4 n=86 v=62
71141 Par ch=4 c=11 v=103
71145 Par ch=4 c=11 v=102
71149 On ch=4 n=88 v=60
71151 On ch=4 n=86 v=0
71151 Par ch=4 c=11 v=101
71156 Par ch=4 c=11 v=100
71157 On ch=4 n=88 v=0
71159 On ch=4 n=95 v=54
71159 On ch=4 n=90 v=64
71164 Par ch=4 c=11 v=99
71170 On ch=4 n=95 v=0
71170 On ch=4 n=88 v=60
71175 On ch=4 n=90 v=0
71178 On ch=4 n=86 v=60
71182 On ch=4 n=88 v=0
71188 On ch=4 n=83 v=58
71190 On ch=4 n=86 v=0
71197 On ch=4 n=83 v=0
71197 On ch=4 n=86 v=60
71208 On ch=4 n=88 v=58
71210 On ch=4 n=86 v=0
71216 Par ch=4 c=11 v=100
71217 On ch=4 n=88 v=0
71217 On ch=4 n=90 v=65
71221 Par ch=4 c=11 v=101
71224 Par ch=4 c=11 v=102
71228 On ch=4 n=88 v=63
71230 Par ch=4 c=11 v=103
71233 On ch=4 n=90 v=0
71235 Par ch=4 c=11 v=104
71238 On ch=4 n=86 v=60
71242 On ch=4 n=88 v=0
71246 On ch=4 n=83 v=60
71247 Par ch=4 c=11 v=105
71248 On ch=4 n=86 v=0
71255 Par ch=4 c=11 v=106
71256 On ch=4 n=83 v=0
71256 On ch=4 n=86 v=61
71260 Par ch=4 c=11 v=107
71263 Par ch=4 c=11 v=108
71267 On ch=4 n=88 v=59
71268 Par ch=4 c=11 v=109
71269 On ch=4 n=86 v=0
71269 On ch=4 n=95 v=52
71274 On ch=4 n=88 v=0
71276 On ch=4 n=90 v=59
71282 On ch=4 n=95 v=0
71282 Par ch=4 c=11 v=110
71288 On ch=4 n=90 v=0
71288 On ch=4 n=88 v=63
71295 On ch=4 n=86 v=59
71295 Par ch=4 c=11 v=111
71299 On ch=4 n=88 v=0
71303 On ch=4 n=83 v=59
71306 On ch=4 n=86 v=0
71306 Par ch=4 c=11 v=112
71312 Par ch=4 c=11 v=113
71313 On ch=4 n=83 v=0
71313 On ch=4 n=86 v=63
71321 Par ch=4 c=11 v=114
71323 On ch=4 n=88 v=59
71327 On ch=4 n=86 v=0
71332 On ch=4 n=88 v=0
71334 Par ch=4 c=11 v=115
71335 On ch=4 n=90 v=65
71345 Par ch=4 c=11 v=116
71347 On ch=4 n=88 v=63
71354 On ch=4 n=90 v=0
71354 Par ch=4 c=11 v=117
71356 On ch=4 n=86 v=58
71359 Par ch=4 c=11 v=118
71361 On ch=4 n=88 v=0
71364 Par ch=4 c=11 v=119
71367 On ch=4 n=86 v=0
71369 On ch=4 n=83 v=51
71370 Par ch=4 c=11 v=120
71375 On ch=4 n=83 v=0
71378 On ch=4 n=86 v=60
71387 On ch=4 n=88 v=60
71392 On ch=4 n=86 v=0
71398 On ch=4 n=88 v=0
71398 On ch=4 n=90 v=65
71402 On ch=4 n=95 v=56
71408 On ch=4 n=88 v=59
71413 On ch=4 n=95 v=0
71413 On ch=4 n=90 v=0
71417 Par ch=4 c=11 v=119
71418 On ch=4 n=86 v=61
71419 Par ch=4 c=11 v=118
71422 Par ch=4 c=11 v=117
71424 On ch=4 n=88 v=0
71424 Par ch=4 c=11 v=116
71426 Par ch=4 c=11 v=115
71428 On ch=4 n=86 v=0
71428 On ch=4 n=83 v=58
71429 Par ch=4 c=11 v=114
71431 Par ch=4 c=11 v=113
71433 Par ch=4 c=11 v=112
71438 On ch=4 n=83 v=0
71440 On ch=4 n=86 v=62
71452 On ch=4 n=88 v=58
71458 On ch=4 n=86 v=0
71461 On ch=4 n=88 v=0
71461 On ch=4 n=90 v=62
71473 On ch=4 n=88 v=65
71477 Par ch=4 c=11 v=113
71480 On ch=4 n=90 v=0
71481 Par ch=4 c=11 v=114
71483 On ch=4 n=86 v=59
71485 Par ch=4 c=11 v=115
71487 On ch=4 n=88 v=0
71490 Par ch=4 c=11 v=116
71491 On ch=4 n=83 v=67
71491 Par ch=4 c=11 v=117
71494 Par ch=4 c=11 v=118
71496 On ch=4 n=86 v=0
71496 Par ch=4 c=11 v=119
71499 Par ch=4 c=11 v=120
71500 On ch=4 n=86 v=58
71502 Par ch=4 c=11 v=121
71503 On ch=4 n=83 v=0
71505 Par ch=4 c=11 v=122
71510 Par ch=4 c=11 v=123
71512 On ch=4 n=88 v=54
71515 Par ch=4 c=11 v=124
71519 On ch=4 n=86 v=0
71519 On ch=4 n=90 v=73
71519 Par ch=4 c=11 v=125
71522 Par ch=4 c=11 v=126
71524 Par ch=4 c=11 v=127
71525 On ch=4 n=88 v=0
71529 On ch=4 n=95 v=47
71531 On ch=4 n=90 v=0
71536 On ch=4 n=91 v=74
71541 On ch=4 n=95 v=0
71551 On ch=4 n=88 v=59
71555 On ch=4 n=91 v=0
71561 On ch=4 n=86 v=59
71564 On ch=4 n=88 v=0
71569 On ch=4 n=84 v=60
71570 On ch=4 n=86 v=0
71581 On ch=4 n=86 v=59
71583 On ch=4 n=84 v=0
71588 On ch=4 n=88 v=59
71592 On ch=4 n=86 v=0
71597 On ch=4 n=88 v=0
71597 On ch=4 n=91 v=62
71609 On ch=4 n=88 v=59
71610 On ch=4 n=91 v=0
71616 On ch=4 n=86 v=57
71621 On ch=4 n=88 v=0
71624 On ch=4 n=86 v=0
71627 On ch=4 n=84 v=59
71637 On ch=4 n=84 v=0
71637 On ch=4 n=86 v=61
71646 On ch=4 n=88 v=60
71648 On ch=4 n=96 v=51
71649 On ch=4 n=86 v=0
71656 On ch=4 n=91 v=71
71659 On ch=4 n=88 v=0
71661 On ch=4 n=96 v=0
71668 On ch=4 n=91 v=0
71668 On ch=4 n=88 v=53
71676 On ch=4 n=86 v=59
71681 On ch=4 n=88 v=0
71686 On ch=4 n=86 v=0
71686 On ch=4 n=84 v=59
71696 On ch=4 n=86 v=59
71699 On ch=4 n=84 v=0
71705 On ch=4 n=88 v=62
71709 On ch=4 n=86 v=0
71718 On ch=4 n=88 v=0
71718 On ch=4 n=91 v=67
71726 Par ch=4 c=11 v=126
71727 On ch=4 n=88 v=59
71730 On ch=4 n=91 v=0
71735 Par ch=4 c=11 v=125
71738 On ch=4 n=86 v=55
71742 On ch=4 n=88 v=0
71742 Par ch=4 c=11 v=124
71746 On ch=4 n=86 v=0
71748 On ch=4 n=84 v=61
71751 Par ch=4 c=11 v=123
71758 Par ch=4 c=11 v=122
71759 On ch=4 n=86 v=59
71761 On ch=4 n=84 v=0
71765 Par ch=4 c=11 v=121
71766 On ch=4 n=96 v=56
71767 On ch=4 n=88 v=62
71771 On ch=4 n=86 v=0
71778 On ch=4 n=91 v=68
71780 On ch=4 n=88 v=0
71780 On ch=4 n=96 v=0
71780 Par ch=4 c=11 v=120
71789 On ch=4 n=88 v=59
71792 Par ch=4 c=11 v=119
71793 On ch=4 n=91 v=0
71798 Par ch=4 c=11 v=118
71799 On ch=4 n=86 v=59
71804 On ch=4 n=88 v=0
71804 Par ch=4 c=11 v=117
71808 On ch=4 n=86 v=0
71808 On ch=4 n=84 v=60
71809 Par ch=4 c=11 v=116
71814 Par ch=4 c=11 v=115
71819 On ch=4 n=86 v=60
71819 Par ch=4 c=11 v=114
71821 On ch=4 n=84 v=0
71825 Par ch=4 c=11 v=113
71826 On ch=4 n=88 v=60
71831 On ch=4 n=86 v=0
71831 Par ch=4 c=11 v=112
71838 On ch=4 n=88 v=0
71838 On ch=4 n=91 v=70
71838 Par ch=4 c=11 v=111
71845 Par ch=4 c=11 v=110
71848 On ch=4 n=91 v=0
71848 On ch=4 n=88 v=55
71852 Par ch=4 c=11 v=109
71858 On ch=4 n=86 v=59
71858 Par ch=4 c=11 v=108
71863 On ch=4 n=88 v=0
71866 On ch=4 n=84 v=61
71868 Par ch=4 c=11 v=107
71869 On ch=4 n=86 v=0
71878 On ch=4 n=86 v=59
71880 On ch=4 n=84 v=0
71883 Par ch=4 c=11 v=106
71886 On ch=4 n=88 v=64
71886 On ch=4 n=96 v=54
71890 On ch=4 n=86 v=0
71892 Par ch=4 c=11 v=105
71898 On ch=4 n=96 v=0
71898 On ch=4 n=88 v=0
71898 On ch=4 n=91 v=62
71901 Par ch=4 c=11 v=104
71905 Par ch=4 c=11 v=103
71907 On ch=4 n=88 v=59
71909 Par ch=4 c=11 v=102
71911 On ch=4 n=91 v=0
71915 Par ch=4 c=11 v=101
71919 On ch=4 n=86 v=52
71922 On ch=4 n=88 v=0
71922 Par ch=4 c=11 v=100
71925 On ch=4 n=86 v=0
71928 On ch=4 n=84 v=60
71928 Par ch=4 c=11 v=99
71934 Par ch=4 c=11 v=98
71936 On ch=4 n=86 v=60
71938 On ch=4 n=84 v=0
71938 Par ch=4 c=11 v=97
71943 Par ch=4 c=11 v=96
71944 On ch=4 n=88 v=64
71950 On ch=4 n=86 v=0
71953 Par ch=4 c=11 v=95
71956 On ch=4 n=91 v=66
71958 On ch=4 n=88 v=0
71962 Par ch=4 c=11 v=94
71963 Par ch=4 c=64 v=127
71966 On ch=4 n=88 v=58
71968 Par ch=4 c=11 v=93
71971 On ch=4 n=91 v=0
71975 Par ch=4 c=11 v=92
71976 On ch=4 n=86 v=60
71981 On ch=4 n=88 v=0
71983 On ch=4 n=86 v=0
71983 On ch=4 n=84 v=63
71983 Par ch=4 c=11 v=91
71988 Par ch=4 c=11 v=90
71993 Par ch=4 c=11 v=89
71995 On ch=4 n=84 v=0
71997 Par ch=4 c=11 v=88
71998 On ch=4 n=83 v=54
72001 On ch=4 n=96 v=46
72001 Par ch=4 c=11 v=87
72003 On ch=4 n=86 v=59
72003 Par ch=4 c=11 v=86
72008 On ch=4 n=83 v=0
72009 Par ch=4 c=11 v=85
72013 On ch=4 n=96 v=0
72015 Par ch=4 c=64 v=0
72015 Par ch=4 c=11 v=84
72017 On ch=4 n=86 v=0
72019 Par ch=4 c=11 v=83
72020 On ch=4 n=79 v=59
72030 On ch=4 n=83 v=67
72033 On ch=4 n=79 v=0
72040 On ch=4 n=86 v=64
72043 On ch=4 n=83 v=0
72046 Par ch=4 c=11 v=84
72048 Par ch=4 c=11 v=85
72048 Par ch=4 c=11 v=86
72049 On ch=4 n=91 v=66
72050 Par ch=4 c=11 v=87
72051 On ch=4 n=86 v=0
72053 Par ch=4 c=11 v=88
72056 On ch=4 n=86 v=57
72056 Par ch=4 c=11 v=89
72061 Par ch=4 c=11 v=90
72063 On ch=4 n=91 v=0
72066 Par ch=4 c=11 v=91
72067 On ch=4 n=83 v=54
72069 Par ch=4 c=11 v=92
72073 On ch=4 n=86 v=0
72073 Par ch=4 c=11 v=93
72076 Par ch=4 c=11 v=94
72079 On ch=4 n=79 v=54
72081 On ch=4 n=83 v=0
72081 Par ch=4 c=11 v=95
72087 Par ch=4 c=11 v=96
72089 On ch=4 n=83 v=60
72090 On ch=4 n=79 v=0
72093 Par ch=4 c=11 v=97
72099 On ch=4 n=86 v=67
72101 Par ch=4 c=11 v=98
72102 On ch=4 n=83 v=0
72108 Par ch=4 c=11 v=99
72110 On ch=4 n=91 v=68
72113 Par ch=4 c=11 v=100
72119 On ch=4 n=95 v=58
72121 On ch=4 n=91 v=0
72124 Par ch=4 c=11 v=101
72128 On ch=4 n=83 v=59
72131 On ch=4 n=95 v=0
72131 Par ch=4 c=11 v=102
72134 On ch=4 n=86 v=0
72137 Par ch=4 c=11 v=103
72139 On ch=4 n=83 v=0
72139 On ch=4 n=79 v=59
72141 Par ch=4 c=11 v=104
72146 Par ch=4 c=11 v=105
72151 On ch=4 n=79 v=0
72151 On ch=4 n=83 v=64
72151 Par ch=4 c=11 v=106
72158 Par ch=4 c=11 v=107
72162 On ch=4 n=86 v=64
72165 On ch=4 n=83 v=0
72165 Par ch=4 c=11 v=108
72170 Par ch=4 c=11 v=109
72172 On ch=4 n=91 v=74
72173 On ch=4 n=86 v=0
72176 Par ch=4 c=11 v=110
72180 Par ch=4 c=64 v=127
72183 Par ch=4 c=11 v=111
72184 On ch=4 n=86 v=59
72186 On ch=4 n=91 v=0
72195 On ch=4 n=83 v=51
72197 Par ch=4 c=11 v=112
72198 On ch=4 n=86 v=0
72205 On ch=4 n=83 v=0
72205 On ch=4 n=79 v=59
72210 Par ch=4 c=11 v=113
72214 On ch=4 n=79 v=0
72214 On ch=4 n=83 v=60
72222 Par ch=4 c=11 v=114
72226 Par ch=4 c=64 v=0
72228 On ch=4 n=86 v=59
72231 On ch=4 n=83 v=0
72238 On ch=4 n=90 v=66
72238 Par ch=4 c=11 v=115
72240 On ch=4 n=86 v=0
72240 On ch=4 n=95 v=48
72245 Par ch=4 c=11 v=116
72249 On ch=4 n=86 v=65
72252 On ch=4 n=90 v=0
72254 On ch=4 n=95 v=0
72257 On ch=4 n=83 v=59
72257 Par ch=4 c=11 v=117
72262 Par ch=4 c=11 v=118
72263 On ch=4 n=86 v=0
72269 On ch=4 n=79 v=64
72269 Par ch=4 c=11 v=119
72271 On ch=4 n=83 v=0
72279 On ch=4 n=83 v=71
72282 On ch=4 n=79 v=0
72285 Par ch=4 c=11 v=120
72291 On ch=4 n=86 v=60
72293 On ch=4 n=83 v=0
72298 On ch=4 n=86 v=0
72298 On ch=4 n=90 v=67
72302 Par ch=4 c=11 v=121
72308 On ch=4 n=90 v=0
72308 On ch=4 n=86 v=66
72318 On ch=4 n=83 v=56
72322 On ch=4 n=86 v=0
72328 Par ch=4 c=11 v=122
72329 On ch=4 n=79 v=70
72331 On ch=4 n=83 v=0
72339 On ch=4 n=83 v=66
72340 Par ch=4 c=11 v=123
72342 On ch=4 n=79 v=0
72350 On ch=4 n=86 v=65
72352 On ch=4 n=83 v=0
72357 On ch=4 n=95 v=54
72359 On ch=4 n=90 v=63
72362 On ch=4 n=86 v=0
72362 Par ch=4 c=11 v=124
72367 On ch=4 n=86 v=63
72368 On ch=4 n=95 v=0
72370 On ch=4 n=90 v=0
72377 Par ch=4 c=11 v=125
72378 On ch=4 n=83 v=58
72382 On ch=4 n=86 v=0
72387 On ch=4 n=79 v=63
72391 On ch=4 n=83 v=0
72394 Par ch=4 c=11 v=126
72397 On ch=4 n=79 v=0
72397 On ch=4 n=83 v=63
72408 On ch=4 n=86 v=63
72408 Par ch=4 c=11 v=127
72413 Par ch=4 c=64 v=127
72414 On ch=4 n=83 v=0
72417 On ch=4 n=90 v=68
72420 On ch=4 n=86 v=0
72427 On ch=4 n=86 v=64
72429 On ch=4 n=90 v=0
72436 On ch=4 n=83 v=54
72442 On ch=4 n=86 v=0
72446 On ch=4 n=83 v=0
72448 On ch=4 n=79 v=53
72456 On ch=4 n=83 v=73
72459 On ch=4 n=79 v=0
72469 On ch=4 n=86 v=64
72473 Par ch=4 c=64 v=0
72475 On ch=4 n=83 v=0
72477 On ch=4 n=95 v=54
72480 On ch=4 n=88 v=63
72482 On ch=4 n=86 v=0
72487 On ch=4 n=86 v=50
72489 On ch=4 n=95 v=0
72494 On ch=4 n=88 v=0
72496 On ch=4 n=83 v=62
72501 On ch=4 n=86 v=0
72507 On ch=4 n=79 v=59
72509 On ch=4 n=83 v=0
72518 On ch=4 n=83 v=72
72521 On ch=4 n=79 v=0
72527 On ch=4 n=86 v=67
72532 On ch=4 n=83 v=0
72540 On ch=4 n=86 v=0
72540 On ch=4 n=88 v=60
72548 On ch=4 n=86 v=59
72554 On ch=4 n=88 v=0
72556 On ch=4 n=83 v=64
72562 On ch=4 n=86 v=0
72569 On ch=4 n=79 v=60
72574 On ch=4 n=83 v=0
72580 On ch=4 n=79 v=0
72580 On ch=4 n=83 v=66
72588 On ch=4 n=86 v=64
72593 On ch=4 n=83 v=0
72600 On ch=4 n=86 v=0
72600 On ch=4 n=95 v=53
72600 On ch=4 n=88 v=64
72611 On ch=4 n=95 v=0
72611 Par ch=4 c=64 v=127
72611 On ch=4 n=86 v=62
72617 On ch=4 n=88 v=0
72617 On ch=4 n=83 v=60
72623 On ch=4 n=86 v=0
72631 On ch=4 n=83 v=0
72631 On ch=4 n=79 v=55
72639 On ch=4 n=83 v=71
72641 On ch=4 n=79 v=0
72649 On ch=4 n=86 v=67
72653 On ch=4 n=83 v=0
72660 On ch=4 n=86 v=0
72667 On ch=4 n=88 v=58
72674 On ch=4 n=86 v=67
72684 On ch=4 n=88 v=0
72687 On ch=4 n=83 v=49
72692 On ch=4 n=86 v=0
72703 On ch=4 n=79 v=54
72706 On ch=4 n=83 v=0
72718 On ch=4 n=95 v=57
72720 Meta Text "%-"
72723 On ch=4 n=86 v=83
72723 On ch=4 n=82 v=74
72726 On ch=4 n=79 v=0
72726 Par ch=4 c=64 v=0
72729 On ch=4 n=95 v=0
72835 Par ch=4 c=64 v=127
72843 On ch=4 n=82 v=0
72846 On ch=4 n=86 v=0
72952 On ch=4 n=74 v=62
72952 On ch=4 n=77 v=62
72952 On ch=4 n=70 v=57
72952 On ch=4 n=81 v=58
72954 Par ch=4 c=64 v=0
73085 Par ch=4 c=64 v=127
73105 On ch=4 n=70 v=0
73108 On ch=4 n=77 v=0
73109 On ch=4 n=74 v=0
73111 On ch=4 n=81 v=0
73197 Par ch=4 c=64 v=0
73200 On ch=4 n=79 v=75
73200 On ch=4 n=74 v=73
73200 On ch=4 n=83 v=75
73250 Par ch=4 c=64 v=127
73262 On ch=4 n=83 v=0
73264 On ch=4 n=74 v=0
73264 On ch=4 n=79 v=0
73318 Par ch=4 c=64 v=0
73319 On ch=4 n=77 v=75
73319 On ch=4 n=81 v=74
73319 On ch=4 n=72 v=69
73379 Par ch=4 c=64 v=127
73380 On ch=4 n=81 v=0
73380 On ch=4 n=77 v=0
73386 On ch=4 n=72 v=0
73434 Par ch=4 c=64 v=0
73439 On ch=4 n=70 v=66
73439 On ch=4 n=81 v=64
73439 On ch=4 n=74 v=79
73439 On ch=4 n=77 v=72
73566 Par ch=4 c=64 v=127
73600 On ch=4 n=70 v=0
73606 On ch=4 n=74 v=0
73609 Par ch=4 c=64 v=0
73610 On ch=4 n=77 v=0
73611 On ch=4 n=81 v=0
73622 On ch=4 n=74 v=73
73622 On ch=4 n=79 v=70
73622 On ch=4 n=63 v=61
73622 On ch=4 n=70 v=72
73624 On ch=4 n=67 v=58
74148 On ch=4 n=70 v=0
74148 On ch=4 n=79 v=0
74151 On ch=4 n=67 v=0
74154 On ch=4 n=63 v=0
74159 On ch=4 n=74 v=0
74161 On ch=4 n=48 v=86
74161 On ch=4 n=53 v=87
74164 On ch=4 n=50 v=108
74164 On ch=4 n=52 v=65
74164 On ch=4 n=51 v=104
74169 On ch=4 n=54 v=81
74174 On ch=4 n=54 v=0
74180 On ch=4 n=51 v=0
74201 On ch=4 n=55 v=44
74236 On ch=4 n=57 v=49
74254 On ch=4 n=59 v=61
74267 On ch=4 n=48 v=0
74270 On ch=4 n=60 v=59
74286 On ch=4 n=50 v=0
74289 On ch=4 n=62 v=52
74313 On ch=4 n=64 v=47
74315 On ch=4 n=52 v=0
74342 On ch=4 n=65 v=52
74350 On ch=4 n=53 v=0
74369 On ch=4 n=67 v=50
74385 On ch=4 n=55 v=0
74395 On ch=4 n=69 v=48
74406 On ch=4 n=57 v=0
74419 On ch=4 n=71 v=50
74427 On ch=4 n=59 v=0
74440 On ch=4 n=72 v=51
74446 On ch=4 n=60 v=0
74459 On ch=4 n=74 v=52
74467 On ch=4 n=62 v=0
74478 On ch=4 n=76 v=58
74486 On ch=4 n=64 v=0
74491 On ch=4 n=74 v=0
74494 On ch=4 n=72 v=0
74494 On ch=4 n=76 v=0
74504 On ch=4 n=65 v=0
74512 On ch=4 n=72 v=31
74528 On ch=4 n=67 v=0
74533 On ch=4 n=74 v=43
74541 On ch=4 n=69 v=0
74547 On ch=4 n=76 v=60
74557 On ch=4 n=71 v=0
74560 On ch=4 n=77 v=61
74568 On ch=4 n=72 v=0
74573 On ch=4 n=79 v=60
74581 On ch=4 n=74 v=0
74587 On ch=4 n=81 v=62
74595 On ch=4 n=76 v=0
74600 On ch=4 n=83 v=73
74605 On ch=4 n=77 v=0
74611 On ch=4 n=84 v=70
74616 On ch=4 n=79 v=0
74619 On ch=4 n=86 v=73
74627 On ch=4 n=81 v=0
74627 On ch=4 n=88 v=73
74632 On ch=4 n=83 v=0
74632 Meta Text "%+"
74635 On ch=4 n=84 v=0
74640 On ch=4 n=86 v=0
74640 On ch=4 n=86 v=120
74640 On ch=4 n=91 v=98
74640 On ch=4 n=79 v=117
74640 On ch=4 n=85 v=120
74641 On ch=4 n=88 v=79
74643 On ch=4 n=88 v=0
74646 On ch=4 n=88 v=0
74653 On ch=4 n=85 v=0
75148 On ch=4 n=79 v=0
75158 On ch=4 n=86 v=0
75161 On ch=4 n=91 v=0
75183 On ch=4 n=89 v=117
75183 On ch=4 n=94 v=120
75185 On ch=4 n=92 v=93
75188 On ch=4 n=92 v=0
75199 On ch=4 n=89 v=0
75201 On ch=4 n=94 v=0
75242 On ch=4 n=89 v=122
75242 On ch=4 n=94 v=120
75243 On ch=4 n=92 v=100
75246 On ch=4 n=92 v=0
75298 On ch=4 n=94 v=0
75299 On ch=4 n=86 v=112
75303 On ch=4 n=89 v=0
75320 On ch=4 n=86 v=0
75332 On ch=4 n=94 v=122
75332 On ch=4 n=89 v=120
75385 On ch=4 n=89 v=0
75390 On ch=4 n=94 v=0
75391 On ch=4 n=86 v=104
75421 On ch=4 n=86 v=0
75424 On ch=4 n=94 v=111
75424 On ch=4 n=89 v=87
75424 On ch=4 n=92 v=90
75432 On ch=4 n=92 v=0
75445 On ch=4 n=94 v=0
75455 On ch=4 n=86 v=104
75456 On ch=4 n=89 v=0
75476 On ch=4 n=86 v=0
75483 On ch=4 n=85 v=104
75484 On ch=4 n=91 v=95
75484 On ch=4 n=89 v=111
75487 On ch=4 n=87 v=90
75490 On ch=4 n=87 v=0
75511 On ch=4 n=89 v=0
75511 On ch=4 n=91 v=0
75515 On ch=4 n=84 v=98
75518 On ch=4 n=85 v=0
75542 On ch=4 n=89 v=95
75544 On ch=4 n=85 v=81
75547 On ch=4 n=84 v=0
75568 On ch=4 n=89 v=0
75570 On ch=4 n=85 v=0
75572 On ch=4 n=84 v=100
75591 On ch=4 n=84 v=0
75600 On ch=4 n=82 v=111
75600 On ch=4 n=89 v=117
75650 On ch=4 n=89 v=0
75658 On ch=4 n=82 v=0
75659 On ch=4 n=79 v=98
75678 On ch=4 n=79 v=0
75689 On ch=4 n=86 v=122
75750 On ch=4 n=86 v=0
75752 On ch=4 n=79 v=117
75773 On ch=4 n=79 v=0
75782 On ch=4 n=85 v=121
75801 On ch=4 n=85 v=0
75812 On ch=4 n=79 v=108
75835 On ch=4 n=79 v=0
75844 On ch=4 n=84 v=111
75869 On ch=4 n=82 v=104
75873 On ch=4 n=84 v=0
75896 On ch=4 n=82 v=0
75896 On ch=4 n=79 v=74
75926 On ch=4 n=79 v=0
75926 On ch=4 n=77 v=114
75950 On ch=4 n=77 v=0
75957 On ch=4 n=79 v=121
76002 On ch=4 n=79 v=0
76018 On ch=4 n=79 v=122
76022 On ch=4 n=81 v=70
76027 On ch=4 n=81 v=0
76072 On ch=4 n=79 v=0
76076 On ch=4 n=74 v=98
76105 On ch=4 n=74 v=0
76109 On ch=4 n=77 v=111
76138 On ch=4 n=79 v=111
76141 On ch=4 n=77 v=0
76162 On ch=4 n=79 v=0
76169 On ch=4 n=82 v=114
76201 On ch=4 n=77 v=117
76206 On ch=4 n=82 v=0
76225 On ch=4 n=77 v=0
76232 On ch=4 n=79 v=93
76259 On ch=4 n=82 v=112
76266 On ch=4 n=79 v=0
76283 On ch=4 n=82 v=0
76291 On ch=4 n=84 v=112
76315 On ch=4 n=84 v=0
76319 On ch=4 n=85 v=108
76343 On ch=4 n=85 v=0
76348 On ch=4 n=86 v=86
76372 On ch=4 n=86 v=0
76379 On ch=4 n=89 v=90
76411 On ch=4 n=91 v=121
76416 On ch=4 n=89 v=0
76432 On ch=4 n=91 v=0
76440 On ch=4 n=94 v=114
76483 On ch=4 n=94 v=0
76501 On ch=4 n=94 v=121
76541 On ch=4 n=94 v=0
76562 On ch=4 n=91 v=122
76593 On ch=4 n=89 v=114
76602 On ch=4 n=91 v=0
76617 On ch=4 n=89 v=0
76622 On ch=4 n=86 v=112
76638 On ch=4 n=86 v=0
76653 On ch=4 n=91 v=122
76685 On ch=4 n=89 v=104
76693 On ch=4 n=91 v=0
76709 On ch=4 n=89 v=0
76715 On ch=4 n=86 v=111
76733 On ch=4 n=86 v=0
76743 On ch=4 n=91 v=125
76786 On ch=4 n=91 v=0
76805 On ch=4 n=91 v=124
76845 On ch=4 n=91 v=0
76861 On ch=4 n=89 v=86
76893 On ch=4 n=91 v=122
76903 On ch=4 n=89 v=0
76919 On ch=4 n=86 v=122
76922 On ch=4 n=91 v=0
76953 On ch=4 n=91 v=125
76977 On ch=4 n=91 v=0
77011 On ch=4 n=86 v=122
77011 On ch=4 n=91 v=121
77040 On ch=4 n=91 v=0
77040 On ch=4 n=86 v=0
77041 On ch=4 n=89 v=111
77071 On ch=4 n=89 v=0
77072 On ch=4 n=86 v=114
77094 On ch=4 n=86 v=0
77103 On ch=4 n=85 v=111
77130 On ch=4 n=85 v=0
77131 On ch=4 n=84 v=114
77152 On ch=4 n=84 v=0
77165 On ch=4 n=86 v=122
77196 On ch=4 n=79 v=108
77197 On ch=4 n=86 v=0
77197 On ch=4 n=81 v=79
77209 On ch=4 n=86 v=0
77210 On ch=4 n=81 v=0
77221 On ch=4 n=86 v=111
77223 On ch=4 n=79 v=0
77253 On ch=4 n=86 v=0
77255 On ch=4 n=79 v=100
77276 On ch=4 n=79 v=0
77283 On ch=4 n=85 v=122
77304 On ch=4 n=85 v=0
77312 On ch=4 n=79 v=120
77333 On ch=4 n=79 v=0
77343 On ch=4 n=84 v=117
77372 On ch=4 n=82 v=117
77383 On ch=4 n=84 v=0
77393 On ch=4 n=82 v=0
77397 On ch=4 n=79 v=93
77430 On ch=4 n=77 v=117
77453 On ch=4 n=79 v=0
77459 On ch=4 n=79 v=114
77462 On ch=4 n=77 v=0
77486 On ch=4 n=79 v=0
77489 On ch=4 n=74 v=114
77519 On ch=4 n=74 v=0
77519 On ch=4 n=77 v=111
77526 On ch=4 n=89 v=123
77526 On ch=4 n=86 v=121
77550 On ch=4 n=79 v=112
77553 On ch=4 n=77 v=0
77573 On ch=4 n=79 v=0
77581 On ch=4 n=82 v=108
77606 On ch=4 n=77 v=121
77613 On ch=4 n=82 v=0
77637 On ch=4 n=79 v=114
77643 On ch=4 n=77 v=0
77669 On ch=4 n=82 v=114
77679 On ch=4 n=79 v=0
77693 On ch=4 n=82 v=0
77701 On ch=4 n=84 v=112
77722 On ch=4 n=84 v=0
77730 On ch=4 n=85 v=104
77746 On ch=4 n=89 v=0
77752 On ch=4 n=86 v=0
77757 On ch=4 n=85 v=0
77760 On ch=4 n=89 v=125
77761 On ch=4 n=86 v=125
77850 On ch=4 n=89 v=0
77873 On ch=4 n=86 v=0
77878 On ch=4 n=86 v=77
77881 On ch=4 n=89 v=126
77881 On ch=4 n=91 v=121
77886 On ch=4 n=91 v=0
77912 On ch=4 n=86 v=0
77940 On ch=4 n=89 v=0
77941 On ch=4 n=86 v=117
77967 On ch=4 n=91 v=123
77983 On ch=4 n=86 v=0
78029 On ch=4 n=91 v=0
78031 On ch=4 n=84 v=114
78031 On ch=4 n=86 v=117
78039 On ch=4 n=84 v=0
78052 On ch=4 n=86 v=0
78060 On ch=4 n=94 v=122
78090 On ch=4 n=94 v=0
78090 On ch=4 n=86 v=111
78119 On ch=4 n=94 v=122
78159 On ch=4 n=86 v=0
78177 On ch=4 n=94 v=0
78178 On ch=4 n=86 v=117
78200 On ch=4 n=86 v=0
78211 On ch=4 n=91 v=124
78256 On ch=4 n=91 v=0
78276 On ch=4 n=91 v=122
78305 On ch=4 n=89 v=100
78313 On ch=4 n=91 v=0
78331 On ch=4 n=86 v=117
78340 On ch=4 n=89 v=0
78356 On ch=4 n=86 v=0
78362 On ch=4 n=86 v=71
78364 On ch=4 n=86 v=0
78366 On ch=4 n=91 v=124
78391 On ch=4 n=86 v=63
78406 On ch=4 n=91 v=0
78413 On ch=4 n=86 v=0
78424 On ch=4 n=86 v=90
78424 On ch=4 n=91 v=123
78514 On ch=4 n=91 v=0
78514 On ch=4 n=86 v=0
80400 On ch=4 n=69 v=112
80400 On ch=4 n=64 v=95
80502 On ch=4 n=64 v=0
80510 On ch=4 n=69 v=0
80521 On ch=4 n=71 v=95
80521 On ch=4 n=66 v=90
80616 On ch=4 n=71 v=0
80619 On ch=4 n=66 v=0
80637 On ch=4 n=72 v=85
80637 On ch=4 n=67 v=73
80688 On ch=4 n=72 v=0
80696 On ch=4 n=67 v=0
80703 On ch=4 n=74 v=98
80703 On ch=4 n=69 v=100
80793 On ch=4 n=74 v=0
80798 On ch=4 n=69 v=0
80818 On ch=4 n=76 v=111
80818 On ch=4 n=71 v=111
80971 On ch=4 n=71 v=0
80987 On ch=4 n=76 v=0
80998 On ch=4 n=78 v=108
80998 On ch=4 n=72 v=104
81098 On ch=4 n=78 v=0
81104 On ch=4 n=72 v=0
81118 On ch=4 n=79 v=98
81118 On ch=4 n=74 v=108
81168 On ch=4 n=79 v=0
81181 On ch=4 n=74 v=0
81182 On ch=4 n=81 v=108
81182 On ch=4 n=76 v=108
81269 On ch=4 n=81 v=0
81279 On ch=4 n=76 v=0
81298 On ch=4 n=78 v=117
81298 On ch=4 n=83 v=120
81459 On ch=4 n=83 v=0
81459 On ch=4 n=78 v=0
81476 On ch=4 n=79 v=108
81476 On ch=4 n=84 v=108
81590 On ch=4 n=84 v=0
81593 On ch=4 n=79 v=0
81601 On ch=4 n=86 v=93
81601 On ch=4 n=81 v=100
81646 On ch=4 n=81 v=0
81646 On ch=4 n=86 v=0
81661 On ch=4 n=88 v=93
81661 On ch=4 n=83 v=87
81756 On ch=4 n=83 v=0
81759 On ch=4 n=88 v=0
81780 On ch=4 n=83 v=86
81780 On ch=4 n=90 v=114
81842 Meta Text "%-"
81904 On ch=4 n=90 v=0
81904 On ch=4 n=91 v=77
81936 On ch=4 n=90 v=104
81941 On ch=4 n=91 v=0
81962 On ch=4 n=91 v=83
81968 On ch=4 n=90 v=0
81991 On ch=4 n=90 v=87
81994 On ch=4 n=91 v=0
82018 On ch=4 n=90 v=0
82018 On ch=4 n=91 v=77
82044 On ch=4 n=90 v=81
82050 On ch=4 n=91 v=0
82068 On ch=4 n=90 v=0
82071 On ch=4 n=91 v=70
82100 On ch=4 n=90 v=77
82105 On ch=4 n=91 v=0
82129 On ch=4 n=90 v=0
82129 On ch=4 n=91 v=79
82174 On ch=4 n=90 v=85
82179 On ch=4 n=91 v=0
82200 On ch=4 n=90 v=0
82200 On ch=4 n=91 v=86
82229 On ch=4 n=90 v=111
82237 On ch=4 n=91 v=0
82258 On ch=4 n=91 v=104
82261 On ch=4 n=90 v=0
82287 On ch=4 n=90 v=112
82295 On ch=4 n=91 v=0
82314 On ch=4 n=91 v=108
82316 On ch=4 n=90 v=0
82343 On ch=4 n=90 v=112
82353 On ch=4 n=91 v=0
82372 On ch=4 n=91 v=100
82374 On ch=4 n=90 v=0
82401 On ch=4 n=90 v=100
82411 On ch=4 n=91 v=0
82427 On ch=4 n=91 v=87
82432 On ch=4 n=90 v=0
82461 On ch=4 n=90 v=108
82469 On ch=4 n=91 v=0
82488 On ch=4 n=91 v=98
82496 On ch=4 n=90 v=0
82519 On ch=4 n=90 v=104
82528 Meta Text "%+"
82533 On ch=4 n=91 v=0
82820 On ch=4 n=90 v=0
82820 On ch=4 n=83 v=0
82820 Meta TrkEnd
TrkEnd
MTrk
0 Meta 0x21 00
0 Meta TrkName "Keyboard 2"
0 PrCh ch=5 p=16
0 Par ch=5 c=7 v=127
0 Par ch=5 c=10 v=105
0 Par ch=5 c=121 v=0
2 Par ch=5 c=0 v=0
4 Par ch=5 c=32 v=0
6 Par ch=5 c=11 v=127
8 Par ch=5 c=91 v=80
10 Par ch=5 c=93 v=115
55202 On ch=5 n=76 v=98
55202 On ch=5 n=83 v=98
55443 On ch=5 n=83 v=0
55448 On ch=5 n=76 v=0
55515 On ch=5 n=76 v=111
55515 On ch=5 n=83 v=112
55584 On ch=5 n=83 v=0
55586 On ch=5 n=76 v=0
55599 On ch=5 n=78 v=111
55667 On ch=5 n=78 v=0
55681 On ch=5 n=81 v=122
55919 On ch=5 n=81 v=0
55996 On ch=5 n=81 v=122
56062 On ch=5 n=81 v=0
56080 On ch=5 n=78 v=100
56140 On ch=5 n=78 v=0
56162 On ch=5 n=79 v=121
56319 On ch=5 n=79 v=0
56339 On ch=5 n=81 v=117
56491 On ch=5 n=81 v=0
56517 On ch=5 n=83 v=121
56677 On ch=5 n=83 v=0
56698 On ch=5 n=81 v=122
56849 On ch=5 n=81 v=0
56878 On ch=5 n=79 v=122
56972 On ch=5 n=79 v=0
56998 On ch=5 n=78 v=117
57077 On ch=5 n=78 v=0
57119 On ch=5 n=76 v=111
57119 On ch=5 n=83 v=108
57358 On ch=5 n=83 v=0
57358 On ch=5 n=76 v=0
57421 On ch=5 n=76 v=95
57421 On ch=5 n=83 v=108
57495 On ch=5 n=83 v=0
57497 On ch=5 n=76 v=0
57518 On ch=5 n=78 v=117
57594 On ch=5 n=78 v=0
57605 On ch=5 n=81 v=120
57848 On ch=5 n=81 v=0
57911 On ch=5 n=81 v=122
57987 On ch=5 n=81 v=0
58006 On ch=5 n=78 v=114
58066 On ch=5 n=78 v=0
58092 On ch=5 n=79 v=122
58257 On ch=5 n=79 v=0
58265 On ch=5 n=81 v=112
58422 On ch=5 n=81 v=0
58440 On ch=5 n=83 v=117
58606 On ch=5 n=83 v=0
58624 On ch=5 n=81 v=121
58771 On ch=5 n=81 v=0
58797 On ch=5 n=79 v=122
58899 On ch=5 n=79 v=0
58917 On ch=5 n=78 v=112
59012 On ch=5 n=78 v=0
59035 On ch=5 n=83 v=118
59038 On ch=5 n=76 v=85
59308 On ch=5 n=76 v=0
59310 On ch=5 n=83 v=0
59350 On ch=5 n=83 v=87
59350 On ch=5 n=76 v=74
59415 On ch=5 n=76 v=0
59415 On ch=5 n=83 v=0
59433 On ch=5 n=78 v=87
59517 On ch=5 n=78 v=0
59520 On ch=5 n=81 v=113
59798 On ch=5 n=81 v=0
59832 On ch=5 n=81 v=111
59910 On ch=5 n=81 v=0
59934 On ch=5 n=78 v=86
59989 On ch=5 n=78 v=0
60010 On ch=5 n=79 v=100
60167 On ch=5 n=79 v=0
60183 On ch=5 n=81 v=108
60329 On ch=5 n=81 v=0
60348 On ch=5 n=83 v=112
60523 On ch=5 n=83 v=0
60539 On ch=5 n=81 v=112
60681 On ch=5 n=81 v=0
60707 On ch=5 n=79 v=98
60822 On ch=5 n=79 v=0
60840 On ch=5 n=78 v=100
60943 On ch=5 n=78 v=0
60964 On ch=5 n=76 v=67
60964 On ch=5 n=83 v=74
61220 On ch=5 n=83 v=0
61223 On ch=5 n=76 v=0
61265 On ch=5 n=83 v=85
61265 On ch=5 n=76 v=74
61338 On ch=5 n=83 v=0
61341 On ch=5 n=76 v=0
61359 On ch=5 n=78 v=85
61432 On ch=5 n=78 v=0
61443 On ch=5 n=81 v=100
61710 On ch=5 n=81 v=0
61747 On ch=5 n=81 v=111
61831 On ch=5 n=81 v=0
61846 On ch=5 n=78 v=81
61907 On ch=5 n=78 v=0
61928 On ch=5 n=79 v=95
62095 On ch=5 n=79 v=0
62103 On ch=5 n=81 v=100
62260 On ch=5 n=81 v=0
62274 On ch=5 n=83 v=104
62446 On ch=5 n=83 v=0
62465 On ch=5 n=81 v=114
62604 On ch=5 n=81 v=0
62635 On ch=5 n=79 v=117
62735 On ch=5 n=79 v=0
62758 On ch=5 n=78 v=104
62871 On ch=5 n=78 v=0
62881 On ch=5 n=83 v=75
62881 On ch=5 n=76 v=72
63135 On ch=5 n=83 v=0
63141 On ch=5 n=76 v=0
63188 On ch=5 n=76 v=83
63188 On ch=5 n=83 v=93
63269 On ch=5 n=76 v=0
63272 On ch=5 n=83 v=0
63285 On ch=5 n=78 v=93
63366 On ch=5 n=81 v=87
63377 On ch=5 n=78 v=0
63633 On ch=5 n=81 v=0
63665 On ch=5 n=81 v=114
63746 On ch=5 n=81 v=0
63759 On ch=5 n=78 v=87
63825 On ch=5 n=78 v=0
63843 On ch=5 n=79 v=100
64005 On ch=5 n=79 v=0
64016 On ch=5 n=81 v=90
64176 On ch=5 n=81 v=0
64189 On ch=5 n=83 v=108
64362 On ch=5 n=83 v=0
64377 On ch=5 n=81 v=111
64527 On ch=5 n=81 v=0
64550 On ch=5 n=79 v=117
64658 On ch=5 n=79 v=0
64673 On ch=5 n=78 v=108
64778 On ch=5 n=78 v=0
64799 On ch=5 n=76 v=71
64799 On ch=5 n=83 v=79
65053 On ch=5 n=83 v=0
65053 On ch=5 n=76 v=0
65106 On ch=5 n=76 v=76
65106 On ch=5 n=83 v=86
65182 On ch=5 n=76 v=0
65184 On ch=5 n=83 v=0
65205 On ch=5 n=78 v=90
65281 On ch=5 n=78 v=0
65292 On ch=5 n=81 v=104
65559 On ch=5 n=81 v=0
65588 On ch=5 n=81 v=114
65664 On ch=5 n=81 v=0
65682 On ch=5 n=78 v=95
65745 On ch=5 n=78 v=0
65771 On ch=5 n=79 v=121
65939 On ch=5 n=79 v=0
65949 On ch=5 n=81 v=114
66112 On ch=5 n=81 v=0
66120 On ch=5 n=83 v=108
66287 On ch=5 n=83 v=0
66300 On ch=5 n=81 v=95
66447 On ch=5 n=81 v=0
66471 On ch=5 n=79 v=117
66578 On ch=5 n=79 v=0
66594 On ch=5 n=78 v=114
66691 On ch=5 n=78 v=0
66720 Par ch=5 c=11 v=126
66720 Par ch=5 c=11 v=123
66720 Par ch=5 c=11 v=121
66720 Par ch=5 c=11 v=118
66720 Par ch=5 c=11 v=115
66720 Par ch=5 c=11 v=112
66720 Par ch=5 c=11 v=108
66720 Par ch=5 c=11 v=105
66720 Par ch=5 c=11 v=102
66720 Par ch=5 c=11 v=99
66720 Par ch=5 c=11 v=95
66720 Par ch=5 c=11 v=92
66720 Par ch=5 c=11 v=88
66720 Par ch=5 c=11 v=84
66720 Par ch=5 c=11 v=80
66720 Par ch=5 c=11 v=75
66720 Par ch=5 c=11 v=70
66720 Par ch=5 c=11 v=66
66720 Par ch=5 c=11 v=62
66720 Par ch=5 c=11 v=57
66720 Par ch=5 c=11 v=53
66720 Par ch=5 c=11 v=48
66720 Par ch=5 c=11 v=44
66720 Par ch=5 c=11 v=39
66720 Par ch=5 c=11 v=34
66720 Par ch=5 c=11 v=30
66720 Par ch=5 c=11 v=25
66720 Par ch=5 c=11 v=21
66720 Par ch=5 c=11 v=16
66720 Par ch=5 c=11 v=11
66720 Par ch=5 c=11 v=7
66720 Par ch=5 c=11 v=2
66720 Par ch=5 c=11 v=0
66720 Par ch=5 c=11 v=1
66720 Par ch=5 c=11 v=3
66720 Par ch=5 c=11 v=4
66720 Par ch=5 c=11 v=6
66720 Par ch=5 c=11 v=8
66720 Par ch=5 c=11 v=10
66720 Par ch=5 c=11 v=12
66720 Par ch=5 c=11 v=14
66720 Par ch=5 c=11 v=16
66720 Par ch=5 c=11 v=18
66720 Par ch=5 c=11 v=20
66720 Par ch=5 c=11 v=22
66720 Par ch=5 c=11 v=25
66720 Par ch=5 c=11 v=27
66720 Par ch=5 c=11 v=29
66720 Par ch=5 c=11 v=32
66720 Par ch=5 c=11 v=34
66720 Par ch=5 c=11 v=37
66720 Par ch=5 c=11 v=39
66720 Par ch=5 c=11 v=42
66720 Par ch=5 c=11 v=44
66720 Par ch=5 c=11 v=47
66720 Par ch=5 c=11 v=49
66720 Par ch=5 c=11 v=52
66720 Par ch=5 c=11 v=54
66720 Par ch=5 c=11 v=57
66720 Par ch=5 c=11 v=59
66720 Par ch=5 c=11 v=61
66720 Par ch=5 c=11 v=64
66720 Par ch=5 c=11 v=66
66720 Par ch=5 c=11 v=69
66720 Par ch=5 c=11 v=71
66720 Par ch=5 c=11 v=74
66720 Par ch=5 c=11 v=76
66720 Par ch=5 c=11 v=79
66720 Par ch=5 c=11 v=81
66720 Par ch=5 c=11 v=84
66720 Par ch=5 c=11 v=86
66720 Par ch=5 c=11 v=89
66720 Par ch=5 c=11 v=91
66720 Par ch=5 c=11 v=94
66720 Par ch=5 c=11 v=97
66720 Par ch=5 c=11 v=99
66720 Par ch=5 c=11 v=102
66720 Par ch=5 c=11 v=104
66720 Par ch=5 c=11 v=107
66720 Par ch=5 c=11 v=109
66720 Par ch=5 c=11 v=112
66720 Par ch=5 c=11 v=114
66720 Par ch=5 c=11 v=117
66720 Par ch=5 c=11 v=119
66720 Par ch=5 c=11 v=121
66720 Par ch=5 c=11 v=124
66720 Par ch=5 c=11 v=126
66720 Par ch=5 c=11 v=127
66722 On ch=5 n=83 v=81
66722 On ch=5 n=76 v=73
66971 On ch=5 n=83 v=0
66976 On ch=5 n=76 v=0
67034 On ch=5 n=76 v=90
67034 On ch=5 n=83 v=104
67105 On ch=5 n=76 v=0
67110 On ch=5 n=83 v=0
67126 On ch=5 n=78 v=81
67199 On ch=5 n=78 v=0
67212 On ch=5 n=81 v=112
67450 On ch=5 n=81 v=0
67503 On ch=5 n=81 v=104
67592 On ch=5 n=81 v=0
67602 On ch=5 n=78 v=75
67673 On ch=5 n=78 v=0
67681 On ch=5 n=79 v=95
67857 On ch=5 n=79 v=0
67872 On ch=5 n=81 v=98
68035 On ch=5 n=81 v=0
68048 On ch=5 n=83 v=98
68202 On ch=5 n=83 v=0
68223 On ch=5 n=81 v=98
68394 On ch=5 n=79 v=100
68399 On ch=5 n=81 v=0
68519 On ch=5 n=78 v=85
68527 On ch=5 n=79 v=0
68978 Par ch=5 c=11 v=126
68991 Par ch=5 c=11 v=125
69002 Par ch=5 c=11 v=124
69009 Par ch=5 c=11 v=123
69017 Par ch=5 c=11 v=122
69025 Par ch=5 c=11 v=121
69033 Par ch=5 c=11 v=120
69038 Par ch=5 c=11 v=119
69043 Par ch=5 c=11 v=118
69054 Par ch=5 c=11 v=117
69064 Par ch=5 c=11 v=116
69078 Par ch=5 c=11 v=115
69096 Par ch=5 c=11 v=114
69106 Par ch=5 c=11 v=113
69112 Par ch=5 c=11 v=112
69122 Par ch=5 c=11 v=111
69130 Par ch=5 c=11 v=110
69135 Par ch=5 c=11 v=109
69140 Par ch=5 c=11 v=108
69146 Par ch=5 c=11 v=107
69151 Par ch=5 c=11 v=106
69156 Par ch=5 c=11 v=105
69161 Par ch=5 c=11 v=104
69167 Par ch=5 c=11 v=103
69169 Par ch=5 c=11 v=102
69174 Par ch=5 c=11 v=101
69180 Par ch=5 c=11 v=100
69188 Par ch=5 c=11 v=99
69193 Par ch=5 c=11 v=98
69198 Par ch=5 c=11 v=97
69203 Par ch=5 c=11 v=96
69211 Par ch=5 c=11 v=95
69219 Par ch=5 c=11 v=94
69227 Par ch=5 c=11 v=93
69237 Par ch=5 c=11 v=92
69243 Par ch=5 c=11 v=91
69253 Par ch=5 c=11 v=90
69261 Par ch=5 c=11 v=89
69266 Par ch=5 c=11 v=88
69274 Par ch=5 c=11 v=87
69282 Par ch=5 c=11 v=86
69292 Par ch=5 c=11 v=85
69295 Par ch=5 c=11 v=84
69303 Par ch=5 c=11 v=83
69308 Par ch=5 c=11 v=82
69319 Par ch=5 c=11 v=81
69329 Par ch=5 c=11 v=80
69340 Par ch=5 c=11 v=79
69347 Par ch=5 c=11 v=78
69355 Par ch=5 c=11 v=77
69360 Par ch=5 c=11 v=76
69368 Par ch=5 c=11 v=75
69374 Par ch=5 c=11 v=74
69379 Par ch=5 c=11 v=73
69381 Par ch=5 c=11 v=72
69387 Par ch=5 c=11 v=71
69392 Par ch=5 c=11 v=70
69397 Par ch=5 c=11 v=69
69402 Par ch=5 c=11 v=68
69413 Par ch=5 c=11 v=67
69426 Par ch=5 c=11 v=66
69439 Par ch=5 c=11 v=65
69450 Par ch=5 c=11 v=64
69457 Par ch=5 c=11 v=63
69465 Par ch=5 c=11 v=62
69473 Par ch=5 c=11 v=61
69481 Par ch=5 c=11 v=60
69486 Par ch=5 c=11 v=59
69491 Par ch=5 c=11 v=58
69497 Par ch=5 c=11 v=57
69502 Par ch=5 c=11 v=56
69510 Par ch=5 c=11 v=55
69520 Par ch=5 c=11 v=54
69539 Par ch=5 c=11 v=53
69570 Par ch=5 c=11 v=52
69586 Par ch=5 c=11 v=51
69591 Par ch=5 c=11 v=50
69599 Par ch=5 c=11 v=49
69604 Par ch=5 c=11 v=48
69612 Par ch=5 c=11 v=47
69617 Par ch=5 c=11 v=46
69628 Par ch=5 c=11 v=45
69636 Par ch=5 c=11 v=44
69641 Par ch=5 c=11 v=43
69649 Par ch=5 c=11 v=42
69659 Par ch=5 c=11 v=41
69667 Par ch=5 c=11 v=40
69675 Par ch=5 c=11 v=39
69680 Par ch=5 c=11 v=38
69685 Par ch=5 c=11 v=37
69693 Par ch=5 c=11 v=36
69701 Par ch=5 c=11 v=35
69709 Par ch=5 c=11 v=34
69717 Par ch=5 c=11 v=33
69727 Par ch=5 c=11 v=32
69738 Par ch=5 c=11 v=31
69748 Par ch=5 c=11 v=30
69759 Par ch=5 c=11 v=29
69772 Par ch=5 c=11 v=28
69780 Par ch=5 c=11 v=27
69790 Par ch=5 c=11 v=26
69801 Par ch=5 c=11 v=25
69808 Par ch=5 c=11 v=24
69814 Par ch=5 c=11 v=23
69819 Par ch=5 c=11 v=22
69824 Par ch=5 c=11 v=21
69829 Par ch=5 c=11 v=20
69832 Par ch=5 c=11 v=19
69837 Par ch=5 c=11 v=18
69843 Par ch=5 c=11 v=17
69848 Par ch=5 c=11 v=16
69853 Par ch=5 c=11 v=15
69858 Par ch=5 c=11 v=14
69866 Par ch=5 c=11 v=13
69877 Par ch=5 c=11 v=12
69887 Par ch=5 c=11 v=11
69900 Par ch=5 c=11 v=10
69908 Par ch=5 c=11 v=9
69913 Par ch=5 c=11 v=8
69921 Par ch=5 c=11 v=7
69926 Par ch=5 c=11 v=6
69932 Par ch=5 c=11 v=5
69934 Par ch=5 c=11 v=4
69939 Par ch=5 c=11 v=3
69945 Par ch=5 c=11 v=2
69945 Par ch=5 c=11 v=1
69950 Par ch=5 c=11 v=0
70070 On ch=5 n=78 v=0
70191 Par ch=5 c=11 v=1
70191 Par ch=5 c=11 v=2
70191 Par ch=5 c=11 v=3
70191 Par ch=5 c=11 v=4
70196 Par ch=5 c=11 v=6
70196 Par ch=5 c=11 v=7
70196 Par ch=5 c=11 v=8
70196 Par ch=5 c=11 v=9
70196 Par ch=5 c=11 v=10
70196 Par ch=5 c=11 v=11
70196 Par ch=5 c=11 v=13
70196 Par ch=5 c=11 v=14
70196 Par ch=5 c=11 v=15
70201 Par ch=5 c=11 v=16
70201 Par ch=5 c=11 v=17
70201 Par ch=5 c=11 v=18
70201 Par ch=5 c=11 v=20
70201 Par ch=5 c=11 v=21
70201 Par ch=5 c=11 v=22
70201 Par ch=5 c=11 v=23
70201 Par ch=5 c=11 v=25
70201 Par ch=5 c=11 v=26
70207 Par ch=5 c=11 v=27
70207 Par ch=5 c=11 v=28
70207 Par ch=5 c=11 v=30
70207 Par ch=5 c=11 v=31
70207 Par ch=5 c=11 v=33
70207 Par ch=5 c=11 v=34
70207 Par ch=5 c=11 v=36
70207 Par ch=5 c=11 v=37
70207 Par ch=5 c=11 v=39
70212 Par ch=5 c=11 v=41
70212 Par ch=5 c=11 v=42
70212 Par ch=5 c=11 v=44
70212 Par ch=5 c=11 v=46
70212 Par ch=5 c=11 v=48
70212 Par ch=5 c=11 v=49
70212 Par ch=5 c=11 v=51
70212 Par ch=5 c=11 v=53
70212 Par ch=5 c=11 v=55
70212 Par ch=5 c=11 v=56
70212 Par ch=5 c=11 v=58
70212 Par ch=5 c=11 v=60
70212 Par ch=5 c=11 v=62
70212 Par ch=5 c=11 v=64
70212 Par ch=5 c=11 v=66
70212 Par ch=5 c=11 v=68
70212 Par ch=5 c=11 v=71
70212 Par ch=5 c=11 v=73
70212 Par ch=5 c=11 v=75
70212 Par ch=5 c=11 v=77
70212 Par ch=5 c=11 v=79
70212 Par ch=5 c=11 v=81
70212 Par ch=5 c=11 v=83
70212 Par ch=5 c=11 v=86
70212 Par ch=5 c=11 v=88
70212 Par ch=5 c=11 v=90
70212 Par ch=5 c=11 v=92
70212 Par ch=5 c=11 v=94
70212 Par ch=5 c=11 v=96
70212 Par ch=5 c=11 v=98
70212 Par ch=5 c=11 v=100
70212 Par ch=5 c=11 v=102
70212 Par ch=5 c=11 v=104
70212 Par ch=5 c=11 v=106
70212 Par ch=5 c=11 v=108
70212 Par ch=5 c=11 v=110
70212 Par ch=5 c=11 v=112
70212 Par ch=5 c=11 v=114
70212 Par ch=5 c=11 v=116
70212 Par ch=5 c=11 v=118
70212 Par ch=5 c=11 v=120
70212 Par ch=5 c=11 v=122
70212 Par ch=5 c=11 v=124
70212 Par ch=5 c=11 v=126
70212 Par ch=5 c=11 v=127
70212 Meta TrkEnd
TrkEnd
MTrk
0 Meta 0x21 00
0 Meta TrkName "Keyboard 3"
0 PrCh ch=6 p=4
0 Par ch=6 c=7 v=110
0 Par ch=6 c=10 v=25
0 Meta Text "%-"
0 Par ch=6 c=121 v=0
2 Par ch=6 c=0 v=0
4 Par ch=6 c=32 v=0
6 Par ch=6 c=11 v=127
8 Par ch=6 c=91 v=80
10 Par ch=6 c=93 v=10
5221 On ch=6 n=76 v=63
5221 On ch=6 n=71 v=59
5321 On ch=6 n=76 v=0
5324 On ch=6 n=71 v=0
5342 On ch=6 n=76 v=61
5342 On ch=6 n=71 v=62
5366 On ch=6 n=76 v=0
5400 On ch=6 n=71 v=0
5402 On ch=6 n=73 v=60
5402 On ch=6 n=78 v=61
5473 On ch=6 n=73 v=0
5479 On ch=6 n=78 v=0
5519 On ch=6 n=74 v=59
5519 On ch=6 n=79 v=59
5611 On ch=6 n=79 v=0
5617 On ch=6 n=74 v=0
5641 On ch=6 n=73 v=58
5641 On ch=6 n=78 v=56
5712 On ch=6 n=78 v=0
5712 On ch=6 n=73 v=0
5760 On ch=6 n=79 v=65
5760 On ch=6 n=74 v=63
5850 On ch=6 n=79 v=0
5860 On ch=6 n=74 v=0
5879 On ch=6 n=78 v=59
5879 On ch=6 n=73 v=61
5929 On ch=6 n=73 v=0
5934 On ch=6 n=78 v=0
5941 On ch=6 n=76 v=58
5942 On ch=6 n=71 v=58
6153 On ch=6 n=71 v=0
6157 On ch=6 n=76 v=0
6179 On ch=6 n=76 v=64
6179 On ch=6 n=71 v=64
6277 On ch=6 n=71 v=0
6277 On ch=6 n=76 v=0
6299 On ch=6 n=76 v=63
6301 On ch=6 n=71 v=60
6342 On ch=6 n=76 v=0
6348 On ch=6 n=71 v=0
6359 On ch=6 n=73 v=60
6361 On ch=6 n=78 v=58
6441 On ch=6 n=73 v=0
6445 On ch=6 n=78 v=0
6479 On ch=6 n=74 v=60
6479 On ch=6 n=79 v=63
6577 On ch=6 n=79 v=0
6587 On ch=6 n=74 v=0
6599 On ch=6 n=78 v=58
6601 On ch=6 n=73 v=61
6644 On ch=6 n=78 v=0
6659 On ch=6 n=73 v=0
6660 On ch=6 n=76 v=62
6661 On ch=6 n=71 v=65
7123 On ch=6 n=71 v=0
7125 On ch=6 n=76 v=0
7141 On ch=6 n=76 v=60
7141 On ch=6 n=71 v=63
7231 On ch=6 n=71 v=0
7236 On ch=6 n=76 v=0
7259 On ch=6 n=76 v=59
7261 On ch=6 n=71 v=59
7285 On ch=6 n=71 v=0
7286 On ch=6 n=76 v=0
7320 On ch=6 n=73 v=63
7320 On ch=6 n=78 v=63
7402 On ch=6 n=73 v=0
7407 On ch=6 n=78 v=0
7439 On ch=6 n=79 v=65
7439 On ch=6 n=74 v=59
7539 On ch=6 n=79 v=0
7547 On ch=6 n=74 v=0
7559 On ch=6 n=73 v=63
7560 On ch=6 n=78 v=61
7648 On ch=6 n=73 v=0
7655 On ch=6 n=78 v=0
7679 On ch=6 n=79 v=69
7679 On ch=6 n=74 v=63
7788 On ch=6 n=74 v=0
7788 On ch=6 n=79 v=0
7799 On ch=6 n=78 v=60
7799 On ch=6 n=73 v=59
7854 On ch=6 n=78 v=0
7860 On ch=6 n=73 v=0
7861 On ch=6 n=71 v=52
7861 On ch=6 n=76 v=59
8072 On ch=6 n=71 v=0
8080 On ch=6 n=76 v=0
8101 On ch=6 n=76 v=62
8101 On ch=6 n=71 v=63
8196 On ch=6 n=71 v=0
8196 On ch=6 n=76 v=0
8220 On ch=6 n=76 v=62
8220 On ch=6 n=71 v=58
8255 On ch=6 n=76 v=0
8260 On ch=6 n=71 v=0
8278 On ch=6 n=73 v=59
8279 On ch=6 n=78 v=59
8365 On ch=6 n=73 v=0
8372 On ch=6 n=78 v=0
8398 On ch=6 n=79 v=64
8399 On ch=6 n=74 v=63
8507 On ch=6 n=74 v=0
8507 On ch=6 n=79 v=0
8519 On ch=6 n=78 v=59
8519 On ch=6 n=73 v=61
8580 On ch=6 n=73 v=0
8581 On ch=6 n=76 v=59
8581 On ch=6 n=71 v=70
8585 On ch=6 n=78 v=0
9090 On ch=6 n=71 v=0
9098 On ch=6 n=76 v=0
9121 On ch=6 n=76 v=62
9121 On ch=6 n=71 v=61
9166 On ch=6 n=71 v=0
9166 On ch=6 n=76 v=0
9183 On ch=6 n=71 v=60
9183 On ch=6 n=76 v=64
9217 On ch=6 n=76 v=0
9225 On ch=6 n=71 v=0
9242 On ch=6 n=73 v=63
9242 On ch=6 n=78 v=61
9321 On ch=6 n=73 v=0
9335 On ch=6 n=78 v=0
9359 On ch=6 n=74 v=60
9361 On ch=6 n=79 v=62
9466 On ch=6 n=79 v=0
9473 On ch=6 n=74 v=0
9481 On ch=6 n=78 v=59
9482 On ch=6 n=73 v=61
9569 On ch=6 n=73 v=0
9581 On ch=6 n=78 v=0
9599 On ch=6 n=74 v=59
9599 On ch=6 n=79 v=63
9715 On ch=6 n=74 v=0
9719 On ch=6 n=78 v=56
9719 On ch=6 n=73 v=55
9728 On ch=6 n=79 v=0
9777 On ch=6 n=73 v=0
9779 On ch=6 n=76 v=65
9780 On ch=6 n=78 v=0
9782 On ch=6 n=71 v=51
9994 On ch=6 n=71 v=0
10009 On ch=6 n=76 v=0
10021 On ch=6 n=76 v=62
10021 On ch=6 n=71 v=65
10103 On ch=6 n=71 v=0
10119 On ch=6 n=76 v=0
10140 On ch=6 n=76 v=61
10141 On ch=6 n=71 v=59
10175 On ch=6 n=71 v=0
10187 On ch=6 n=76 v=0
10201 On ch=6 n=73 v=67
10201 On ch=6 n=78 v=61
10293 On ch=6 n=73 v=0
10301 On ch=6 n=78 v=0
10319 On ch=6 n=74 v=62
10319 On ch=6 n=79 v=68
10422 On ch=6 n=79 v=0
10428 On ch=6 n=74 v=0
10440 On ch=6 n=78 v=59
10440 On ch=6 n=73 v=60
10536 On ch=6 n=73 v=0
10543 On ch=6 n=78 v=0
10559 On ch=6 n=74 v=60
10559 On ch=6 n=79 v=58
10665 On ch=6 n=74 v=0
10675 On ch=6 n=79 v=0
10678 On ch=6 n=78 v=58
10681 On ch=6 n=73 v=59
10726 On ch=6 n=73 v=0
10737 On ch=6 n=78 v=0
10741 On ch=6 n=76 v=60
10743 On ch=6 n=71 v=62
10965 On ch=6 n=71 v=0
10968 On ch=6 n=76 v=0
10981 On ch=6 n=71 v=60
10981 On ch=6 n=76 v=65
11073 On ch=6 n=71 v=0
11078 On ch=6 n=76 v=0
11101 On ch=6 n=71 v=60
11101 On ch=6 n=76 v=63
11138 On ch=6 n=76 v=0
11151 On ch=6 n=71 v=0
11161 On ch=6 n=73 v=65
11161 On ch=6 n=78 v=59
11248 On ch=6 n=73 v=0
11262 On ch=6 n=78 v=0
11278 On ch=6 n=74 v=63
11278 On ch=6 n=79 v=68
11383 On ch=6 n=79 v=0
11394 On ch=6 n=74 v=0
11401 On ch=6 n=78 v=58
11401 On ch=6 n=73 v=56
11499 On ch=6 n=73 v=0
11512 On ch=6 n=78 v=0
11521 On ch=6 n=79 v=63
11521 On ch=6 n=74 v=60
11626 On ch=6 n=79 v=0
11629 On ch=6 n=74 v=0
11641 On ch=6 n=73 v=59
11641 On ch=6 n=78 v=53
11699 On ch=6 n=73 v=0
11702 On ch=6 n=72 v=60
11702 On ch=6 n=76 v=60
11707 On ch=6 n=78 v=0
11916 On ch=6 n=72 v=0
11921 On ch=6 n=76 v=0
16261 On ch=6 n=64 v=65
16261 On ch=6 n=55 v=62
16262 On ch=6 n=59 v=66
16372 On ch=6 n=59 v=0
16374 On ch=6 n=55 v=0
16374 On ch=6 n=64 v=0
16384 On ch=6 n=64 v=64
16384 On ch=6 n=59 v=72
16384 On ch=6 n=55 v=58
16406 On ch=6 n=55 v=0
16408 On ch=6 n=59 v=0
16419 On ch=6 n=64 v=0
16444 On ch=6 n=61 v=65
16444 On ch=6 n=57 v=59
16444 On ch=6 n=66 v=63
16523 On ch=6 n=57 v=0
16534 On ch=6 n=66 v=0
16534 On ch=6 n=61 v=0
16562 On ch=6 n=59 v=64
16562 On ch=6 n=67 v=70
16562 On ch=6 n=62 v=67
16642 On ch=6 n=62 v=0
16644 On ch=6 n=59 v=0
16663 On ch=6 n=67 v=0
16681 On ch=6 n=66 v=63
16681 On ch=6 n=57 v=61
16681 On ch=6 n=61 v=67
16769 On ch=6 n=57 v=0
16780 On ch=6 n=61 v=0
16783 On ch=6 n=66 v=0
16801 On ch=6 n=59 v=67
16801 On ch=6 n=67 v=69
16801 On ch=6 n=62 v=69
16880 On ch=6 n=62 v=0
16883 On ch=6 n=59 v=0
16905 On ch=6 n=67 v=0
16919 On ch=6 n=66 v=60
16921 On ch=6 n=57 v=56
16921 On ch=6 n=61 v=62
16955 On ch=6 n=66 v=0
16956 On ch=6 n=57 v=0
16962 On ch=6 n=61 v=0
16981 On ch=6 n=64 v=63
16981 On ch=6 n=55 v=61
16981 On ch=6 n=59 v=69
17189 On ch=6 n=59 v=0
17192 On ch=6 n=55 v=0
17192 On ch=6 n=64 v=0
17219 On ch=6 n=64 v=70
17219 On ch=6 n=59 v=73
17219 On ch=6 n=55 v=60
17312 On ch=6 n=59 v=0
17317 On ch=6 n=55 v=0
17320 On ch=6 n=64 v=0
17339 On ch=6 n=64 v=63
17339 On ch=6 n=59 v=65
17339 On ch=6 n=55 v=54
17361 On ch=6 n=55 v=0
17361 On ch=6 n=59 v=0
17369 On ch=6 n=64 v=0
17399 On ch=6 n=61 v=70
17399 On ch=6 n=57 v=58
17399 On ch=6 n=66 v=72
17497 On ch=6 n=57 v=0
17503 On ch=6 n=61 v=0
17508 On ch=6 n=66 v=0
17521 On ch=6 n=59 v=62
17521 On ch=6 n=67 v=70
17521 On ch=6 n=62 v=67
17614 On ch=6 n=62 v=0
17614 On ch=6 n=59 v=0
17641 On ch=6 n=57 v=61
17642 On ch=6 n=66 v=61
17642 On ch=6 n=61 v=67
17644 On ch=6 n=67 v=0
17735 On ch=6 n=57 v=0
17738 On ch=6 n=61 v=0
17743 On ch=6 n=66 v=0
17760 On ch=6 n=67 v=71
17761 On ch=6 n=59 v=62
17761 On ch=6 n=62 v=65
17838 On ch=6 n=62 v=0
17840 On ch=6 n=59 v=0
17881 On ch=6 n=67 v=0
17881 On ch=6 n=61 v=62
17881 On ch=6 n=66 v=58
17881 On ch=6 n=57 v=58
17914 On ch=6 n=66 v=0
17922 On ch=6 n=57 v=0
17925 On ch=6 n=61 v=0
17942 On ch=6 n=55 v=63
17942 On ch=6 n=64 v=68
17942 On ch=6 n=59 v=76
18161 On ch=6 n=59 v=0
18161 On ch=6 n=64 v=0
18161 On ch=6 n=55 v=0
18181 On ch=6 n=64 v=71
18182 On ch=6 n=55 v=66
18182 On ch=6 n=59 v=77
18272 On ch=6 n=59 v=0
18274 On ch=6 n=64 v=0
18275 On ch=6 n=55 v=0
18301 On ch=6 n=64 v=65
18301 On ch=6 n=59 v=65
18301 On ch=6 n=55 v=56
18323 On ch=6 n=55 v=0
18325 On ch=6 n=59 v=0
18331 On ch=6 n=64 v=0
18361 On ch=6 n=57 v=58
18361 On ch=6 n=61 v=68
18361 On ch=6 n=66 v=73
18451 On ch=6 n=57 v=0
18460 On ch=6 n=61 v=0
18462 On ch=6 n=66 v=0
18481 On ch=6 n=67 v=73
18481 On ch=6 n=59 v=65
18481 On ch=6 n=62 v=69
18566 On ch=6 n=62 v=0
18566 On ch=6 n=59 v=0
18588 On ch=6 n=67 v=0
18601 On ch=6 n=57 v=60
18601 On ch=6 n=61 v=65
18601 On ch=6 n=66 v=62
18695 On ch=6 n=57 v=0
18703 On ch=6 n=61 v=0
18706 On ch=6 n=66 v=0
18719 On ch=6 n=59 v=71
18719 On ch=6 n=67 v=69
18719 On ch=6 n=62 v=71
18801 On ch=6 n=62 v=0
18804 On ch=6 n=59 v=0
18832 On ch=6 n=67 v=0
18841 On ch=6 n=66 v=63
18842 On ch=6 n=61 v=65
18842 On ch=6 n=57 v=60
18878 On ch=6 n=57 v=0
18879 On ch=6 n=66 v=0
18883 On ch=6 n=61 v=0
18902 On ch=6 n=60 v=71
18902 On ch=6 n=57 v=61
18903 On ch=6 n=64 v=63
18989 On ch=6 n=60 v=0
18990 On ch=6 n=57 v=0
18991 On ch=6 n=64 v=0
19021 On ch=6 n=57 v=59
19021 On ch=6 n=64 v=63
19021 On ch=6 n=60 v=62
19043 On ch=6 n=57 v=0
19049 On ch=6 n=60 v=0
19051 On ch=6 n=64 v=0
19081 On ch=6 n=66 v=73
19081 On ch=6 n=62 v=67
19081 On ch=6 n=59 v=58
19168 On ch=6 n=59 v=0
19180 On ch=6 n=62 v=0
19182 On ch=6 n=66 v=0
19199 On ch=6 n=64 v=64
19199 On ch=6 n=67 v=67
19201 On ch=6 n=60 v=64
19300 On ch=6 n=67 v=0
19303 On ch=6 n=60 v=0
19314 On ch=6 n=64 v=0
19319 On ch=6 n=66 v=67
19321 On ch=6 n=62 v=71
19321 On ch=6 n=69 v=75
19417 On ch=6 n=69 v=0
19428 On ch=6 n=62 v=0
19429 On ch=6 n=66 v=0
19441 On ch=6 n=64 v=72
19441 On ch=6 n=67 v=69
19441 On ch=6 n=60 v=67
19553 On ch=6 n=60 v=0
19561 On ch=6 n=64 v=0
19563 On ch=6 n=62 v=69
19563 On ch=6 n=66 v=65
19564 On ch=6 n=59 v=69
19580 On ch=6 n=67 v=0
19610 On ch=6 n=62 v=0
19610 On ch=6 n=59 v=0
19615 On ch=6 n=66 v=0
19625 On ch=6 n=60 v=85
19625 On ch=6 n=57 v=81
19625 On ch=6 n=64 v=75
19845 On ch=6 n=57 v=0
19866 On ch=6 n=64 v=0
19883 On ch=6 n=60 v=0
19919 On ch=6 n=62 v=72
19919 On ch=6 n=59 v=62
19921 On ch=6 n=66 v=67
20132 On ch=6 n=66 v=0
20157 On ch=6 n=62 v=0
20162 On ch=6 n=66 v=60
20162 On ch=6 n=62 v=69
20162 On ch=6 n=57 v=61
20381 On ch=6 n=57 v=0
20381 On ch=6 n=62 v=0
20381 On ch=6 n=66 v=0
20385 On ch=6 n=59 v=0
20402 On ch=6 n=62 v=71
20402 On ch=6 n=59 v=73
20402 On ch=6 n=66 v=56
20402 On ch=6 n=55 v=68
20608 On ch=6 n=59 v=0
20613 On ch=6 n=55 v=0
20621 On ch=6 n=66 v=0
20639 On ch=6 n=67 v=77
20640 On ch=6 n=57 v=65
20641 On ch=6 n=60 v=77
21493 On ch=6 n=60 v=0
21493 On ch=6 n=62 v=0
21495 On ch=6 n=57 v=0
21500 On ch=6 n=67 v=0
80401 On ch=6 n=45 v=70
80401 On ch=6 n=40 v=62
80509 On ch=6 n=40 v=0
80512 On ch=6 n=45 v=0
80523 On ch=6 n=47 v=71
80525 On ch=6 n=42 v=63
80615 On ch=6 n=42 v=0
80618 On ch=6 n=47 v=0
80641 On ch=6 n=48 v=67
80641 On ch=6 n=43 v=62
80676 On ch=6 n=48 v=0
80697 On ch=6 n=43 v=0
80702 On ch=6 n=50 v=71
80702 On ch=6 n=45 v=71
80784 On ch=6 n=50 v=0
80795 On ch=6 n=45 v=0
80814 On ch=6 n=52 v=74
80815 On ch=6 n=47 v=77
80963 On ch=6 n=47 v=0
80988 On ch=6 n=52 v=0
80993 On ch=6 n=48 v=70
80993 On ch=6 n=54 v=75
81093 On ch=6 n=54 v=0
81093 On ch=6 n=48 v=0
81117 On ch=6 n=55 v=67
81117 On ch=6 n=50 v=74
81162 On ch=6 n=55 v=0
81181 On ch=6 n=57 v=73
81182 On ch=6 n=52 v=73
81194 On ch=6 n=50 v=0
81268 On ch=6 n=57 v=0
81274 On ch=6 n=52 v=0
81296 On ch=6 n=54 v=74
81296 On ch=6 n=59 v=76
81457 On ch=6 n=59 v=0
81457 On ch=6 n=54 v=0
81475 On ch=6 n=60 v=67
81477 On ch=6 n=55 v=65
81575 On ch=6 n=55 v=0
81578 On ch=6 n=60 v=0
81597 On ch=6 n=62 v=72
81597 On ch=6 n=57 v=73
81640 On ch=6 n=57 v=0
81640 On ch=6 n=62 v=0
81662 On ch=6 n=64 v=65
81662 On ch=6 n=59 v=68
81744 On ch=6 n=64 v=0
81747 On ch=6 n=59 v=0
81777 On ch=6 n=59 v=67
81777 On ch=6 n=66 v=87
82783 On ch=6 n=66 v=0
82785 On ch=6 n=59 v=0
84719 On ch=6 n=64 v=54
84719 On ch=6 n=59 v=58
84719 On ch=6 n=55 v=49
84719 On ch=6 n=52 v=44
85622 On ch=6 n=59 v=0
85622 On ch=6 n=64 v=0
85627 On ch=6 n=55 v=0
85648 On ch=6 n=52 v=0
85679 On ch=6 n=52 v=58
85680 On ch=6 n=55 v=48
85680 On ch=6 n=64 v=50
85680 On ch=6 n=59 v=53
86583 On ch=6 n=59 v=0
86588 On ch=6 n=64 v=0
86593 On ch=6 n=55 v=0
86593 On ch=6 n=52 v=0
86639 On ch=6 n=55 v=47
86639 On ch=6 n=59 v=52
86639 On ch=6 n=64 v=48
86639 On ch=6 n=52 v=61
87539 On ch=6 n=64 v=0
87545 On ch=6 n=59 v=0
87550 On ch=6 n=55 v=0
87566 On ch=6 n=52 v=0
87597 On ch=6 n=52 v=62
87599 On ch=6 n=55 v=50
87599 On ch=6 n=59 v=56
87599 On ch=6 n=64 v=53
88508 On ch=6 n=64 v=0
88510 On ch=6 n=55 v=0
88513 On ch=6 n=59 v=0
88521 On ch=6 n=52 v=0
88557 On ch=6 n=52 v=59
88557 On ch=6 n=64 v=56
88557 On ch=6 n=55 v=51
88557 On ch=6 n=59 v=54
88564 Meta Text "%+"
89476 On ch=6 n=59 v=0
89476 On ch=6 n=64 v=0
89481 On ch=6 n=55 v=0
89489 On ch=6 n=52 v=0
89489 Meta TrkEnd
TrkEnd
MTrk
0 Meta 0x21 00
0 Meta TrkName "Guitar 1"
0 PrCh ch=7 p=30
0 Par ch=7 c=7 v=110
0 Par ch=7 c=10 v=30
0 Par ch=7 c=121 v=0
2 Par ch=7 c=0 v=0
4 Par ch=7 c=32 v=0
6 Par ch=7 c=11 v=127
8 Par ch=7 c=91 v=100
10 Par ch=7 c=93 v=120
468 Meta Text "%-"
480 Par ch=7 c=11 v=126
480 Par ch=7 c=11 v=123
480 Par ch=7 c=11 v=120
480 Par ch=7 c=11 v=117
480 Par ch=7 c=11 v=113
480 Par ch=7 c=11 v=109
480 Par ch=7 c=11 v=106
480 Par ch=7 c=11 v=102
480 Par ch=7 c=11 v=99
480 Par ch=7 c=11 v=96
480 Par ch=7 c=11 v=93
480 Par ch=7 c=11 v=89
480 Par ch=7 c=11 v=86
480 Par ch=7 c=11 v=83
480 Par ch=7 c=11 v=79
480 Par ch=7 c=11 v=76
480 Par ch=7 c=11 v=72
480 Par ch=7 c=11 v=69
480 Par ch=7 c=11 v=66
480 Par ch=7 c=11 v=62
480 Par ch=7 c=11 v=59
480 Par ch=7 c=11 v=55
480 Par ch=7 c=11 v=52
480 Par ch=7 c=11 v=47
480 Par ch=7 c=11 v=42
480 Par ch=7 c=11 v=37
480 Par ch=7 c=11 v=32
480 Par ch=7 c=11 v=27
480 Par ch=7 c=11 v=23
480 Par ch=7 c=11 v=19
480 Par ch=7 c=11 v=15
480 Par ch=7 c=11 v=11
480 Par ch=7 c=11 v=7
480 Par ch=7 c=11 v=4
480 Par ch=7 c=11 v=0
491 Par ch=7 c=64 v=127
495 On ch=7 n=28 v=112
495 On ch=7 n=40 v=120
495 On ch=7 n=55 v=114
495 On ch=7 n=47 v=120
495 On ch=7 n=52 v=122
501 On ch=7 n=40 v=0
502 On ch=7 n=52 v=0
503 On ch=7 n=28 v=0
503 On ch=7 n=55 v=0
503 On ch=7 n=47 v=0
593 Par ch=7 c=11 v=1
595 Par ch=7 c=11 v=2
596 Par ch=7 c=11 v=3
598 Par ch=7 c=11 v=4
599 Par ch=7 c=11 v=5
601 Par ch=7 c=11 v=6
602 Par ch=7 c=11 v=7
603 Par ch=7 c=11 v=8
604 Par ch=7 c=11 v=9
606 Par ch=7 c=11 v=10
606 Par ch=7 c=11 v=11
608 Par ch=7 c=11 v=12
609 Par ch=7 c=11 v=13
612 Par ch=7 c=11 v=14
614 Par ch=7 c=11 v=15
617 Par ch=7 c=11 v=16
620 Par ch=7 c=11 v=17
624 Par ch=7 c=11 v=18
629 Par ch=7 c=11 v=19
632 Par ch=7 c=11 v=20
635 Par ch=7 c=11 v=21
637 Par ch=7 c=11 v=22
640 Par ch=7 c=11 v=23
642 Par ch=7 c=11 v=24
644 Par ch=7 c=11 v=25
645 Par ch=7 c=11 v=26
647 Par ch=7 c=11 v=27
649 Par ch=7 c=11 v=28
651 Par ch=7 c=11 v=29
653 Par ch=7 c=11 v=30
655 Par ch=7 c=11 v=31
658 Par ch=7 c=11 v=32
661 Par ch=7 c=11 v=33
664 Par ch=7 c=11 v=34
667 Par ch=7 c=11 v=35
669 Par ch=7 c=11 v=36
671 Par ch=7 c=11 v=37
673 Par ch=7 c=11 v=38
674 Par ch=7 c=11 v=39
676 Par ch=7 c=11 v=40
678 Par ch=7 c=11 v=41
679 Par ch=7 c=11 v=42
681 Par ch=7 c=11 v=43
682 Par ch=7 c=11 v=44
685 Par ch=7 c=11 v=45
687 Par ch=7 c=11 v=46
689 Par ch=7 c=11 v=47
691 Par ch=7 c=11 v=48
692 Par ch=7 c=11 v=49
695 Par ch=7 c=11 v=50
697 Par ch=7 c=11 v=51
699 Par ch=7 c=11 v=52
701 Par ch=7 c=11 v=53
704 Par ch=7 c=11 v=54
706 Par ch=7 c=11 v=55
708 Par ch=7 c=11 v=56
710 Par ch=7 c=11 v=57
712 Par ch=7 c=11 v=58
714 Par ch=7 c=11 v=59
716 Par ch=7 c=11 v=60
718 Par ch=7 c=11 v=61
720 Par ch=7 c=11 v=62
723 Par ch=7 c=11 v=63
726 Par ch=7 c=11 v=64
729 Par ch=7 c=11 v=65
732 Par ch=7 c=11 v=66
737 Par ch=7 c=11 v=67
741 Par ch=7 c=11 v=68
745 Par ch=7 c=11 v=69
748 Par ch=7 c=11 v=70
752 Par ch=7 c=11 v=71
756 Par ch=7 c=11 v=72
761 Par ch=7 c=11 v=73
764 Par ch=7 c=11 v=74
767 Par ch=7 c=11 v=75
771 Par ch=7 c=11 v=76
775 Par ch=7 c=11 v=77
779 Par ch=7 c=11 v=78
783 Par ch=7 c=11 v=79
788 Par ch=7 c=11 v=80
792 Par ch=7 c=11 v=81
795 Par ch=7 c=11 v=82
799 Par ch=7 c=11 v=83
801 Par ch=7 c=11 v=84
805 Par ch=7 c=11 v=85
809 Par ch=7 c=11 v=86
812 Par ch=7 c=11 v=87
815 Par ch=7 c=11 v=88
817 Par ch=7 c=11 v=89
820 Par ch=7 c=11 v=90
824 Par ch=7 c=11 v=91
827 Par ch=7 c=11 v=92
831 Par ch=7 c=11 v=93
836 Par ch=7 c=11 v=94
841 Par ch=7 c=11 v=95
847 Par ch=7 c=11 v=96
850 Par ch=7 c=11 v=97
853 Par ch=7 c=11 v=98
856 Par ch=7 c=11 v=99
859 Par ch=7 c=11 v=100
862 Par ch=7 c=11 v=101
864 Par ch=7 c=11 v=102
867 Par ch=7 c=11 v=103
870 Par ch=7 c=11 v=104
872 Par ch=7 c=11 v=105
875 Par ch=7 c=11 v=106
878 Par ch=7 c=11 v=107
881 Par ch=7 c=11 v=108
883 Par ch=7 c=11 v=109
885 Par ch=7 c=11 v=110
887 Par ch=7 c=11 v=111
890 Par ch=7 c=11 v=112
891 Par ch=7 c=11 v=113
893 Par ch=7 c=11 v=114
894 Par ch=7 c=11 v=115
896 Par ch=7 c=11 v=116
897 Par ch=7 c=11 v=117
898 Par ch=7 c=11 v=118
898 Par ch=7 c=11 v=119
898 Par ch=7 c=11 v=120
900 Par ch=7 c=11 v=121
900 Par ch=7 c=11 v=122
901 Par ch=7 c=11 v=123
901 Par ch=7 c=11 v=124
902 Par ch=7 c=11 v=125
902 Par ch=7 c=11 v=126
902 Par ch=7 c=11 v=127
922 Par ch=7 c=64 v=0
2400 Par ch=7 c=11 v=1
2400 Par ch=7 c=11 v=3
2400 Par ch=7 c=11 v=4
2400 Par ch=7 c=11 v=6
2400 Par ch=7 c=11 v=8
2400 Par ch=7 c=11 v=10
2400 Par ch=7 c=11 v=12
2400 Par ch=7 c=11 v=14
2400 Par ch=7 c=11 v=16
2400 Par ch=7 c=11 v=18
2400 Par ch=7 c=11 v=21
2400 Par ch=7 c=11 v=23
2400 Par ch=7 c=11 v=26
2400 Par ch=7 c=11 v=29
2400 Par ch=7 c=11 v=32
2400 Par ch=7 c=11 v=35
2400 Par ch=7 c=11 v=38
2400 Par ch=7 c=11 v=41
2400 Par ch=7 c=11 v=45
2400 Par ch=7 c=11 v=48
2400 Par ch=7 c=11 v=51
2400 Par ch=7 c=11 v=54
2400 Par ch=7 c=11 v=57
2400 Par ch=7 c=11 v=61
2400 Par ch=7 c=11 v=64
2400 Par ch=7 c=11 v=67
2400 Par ch=7 c=11 v=70
2400 Par ch=7 c=11 v=73
2400 Par ch=7 c=11 v=76
2400 Par ch=7 c=11 v=79
2400 Par ch=7 c=11 v=82
2400 Par ch=7 c=11 v=85
2400 Par ch=7 c=11 v=87
2400 Par ch=7 c=11 v=90
2400 Par ch=7 c=11 v=93
2400 Par ch=7 c=11 v=96
2400 Par ch=7 c=1 v=1
2400 Par ch=7 c=11 v=98
2400 Par ch=7 c=11 v=101
2400 Par ch=7 c=1 v=2
2400 Par ch=7 c=11 v=104
2400 Par ch=7 c=1 v=3
2400 Par ch=7 c=11 v=106
2400 Par ch=7 c=1 v=4
2400 Par ch=7 c=11 v=108
2400 Par ch=7 c=1 v=5
2400 Par ch=7 c=11 v=111
2400 Par ch=7 c=1 v=7
2400 Par ch=7 c=11 v=113
2400 Par ch=7 c=1 v=8
2400 Par ch=7 c=11 v=116
2400 Par ch=7 c=1 v=10
2400 Par ch=7 c=11 v=118
2400 Par ch=7 c=1 v=11
2400 Par ch=7 c=11 v=121
2400 Par ch=7 c=1 v=13
2400 Par ch=7 c=11 v=123
2400 Par ch=7 c=1 v=14
2400 Par ch=7 c=11 v=126
2400 Par ch=7 c=1 v=16
2400 Par ch=7 c=11 v=127
2400 Par ch=7 c=1 v=17
2400 Par ch=7 c=1 v=19
2400 Par ch=7 c=1 v=20
2400 Par ch=7 c=1 v=22
2400 Par ch=7 c=1 v=23
2400 Par ch=7 c=1 v=25
2400 Par ch=7 c=1 v=26
2400 Par ch=7 c=1 v=27
2400 Par ch=7 c=1 v=28
2400 Par ch=7 c=1 v=29
2400 Par ch=7 c=1 v=30
2400 Par ch=7 c=1 v=31
2400 Par ch=7 c=1 v=32
2400 Par ch=7 c=1 v=31
2400 Par ch=7 c=1 v=30
2400 Par ch=7 c=11 v=126
2400 Par ch=7 c=11 v=122
2400 Par ch=7 c=11 v=119
2400 Par ch=7 c=11 v=115
2400 Par ch=7 c=11 v=110
2400 Par ch=7 c=11 v=106
2400 Par ch=7 c=11 v=101
2400 Par ch=7 c=11 v=97
2400 Par ch=7 c=11 v=92
2400 Par ch=7 c=11 v=87
2400 Par ch=7 c=11 v=82
2400 Par ch=7 c=11 v=77
2400 Par ch=7 c=11 v=72
2400 Par ch=7 c=11 v=66
2400 Par ch=7 c=11 v=61
2400 Par ch=7 c=11 v=56
2400 Par ch=7 c=11 v=51
2400 Par ch=7 c=11 v=46
2400 Par ch=7 c=11 v=41
2400 Par ch=7 c=11 v=37
2400 Par ch=7 c=11 v=33
2400 Par ch=7 c=11 v=29
2400 Par ch=7 c=11 v=25
2400 Par ch=7 c=11 v=22
2400 Par ch=7 c=11 v=18
2400 Par ch=7 c=11 v=15
2400 Par ch=7 c=11 v=11
2400 Par ch=7 c=11 v=8
2400 Par ch=7 c=11 v=6
2400 Par ch=7 c=11 v=3
2400 Par ch=7 c=11 v=0
2526 Par ch=7 c=64 v=127
2572 On ch=7 n=52 v=114
2572 On ch=7 n=43 v=112
2572 On ch=7 n=36 v=120
2579 On ch=7 n=43 v=0
2579 On ch=7 n=52 v=0
2580 On ch=7 n=36 v=0
2628 Par ch=7 c=11 v=1
2628 Par ch=7 c=11 v=2
2628 Par ch=7 c=11 v=3
2629 Par ch=7 c=11 v=4
2630 Par ch=7 c=11 v=5
2630 Par ch=7 c=11 v=6
2632 Par ch=7 c=11 v=7
2634 Par ch=7 c=11 v=8
2635 Par ch=7 c=11 v=9
2636 Par ch=7 c=11 v=10
2638 Par ch=7 c=11 v=11
2640 Par ch=7 c=11 v=12
2642 Par ch=7 c=11 v=13
2644 Par ch=7 c=11 v=14
2645 Par ch=7 c=11 v=15
2646 Par ch=7 c=11 v=16
2647 Par ch=7 c=11 v=17
2649 Par ch=7 c=11 v=18
2650 Par ch=7 c=11 v=19
2651 Par ch=7 c=11 v=20
2652 Par ch=7 c=11 v=21
2653 Par ch=7 c=11 v=22
2654 Par ch=7 c=11 v=23
2657 Par ch=7 c=11 v=24
2657 Par ch=7 c=11 v=25
2659 Par ch=7 c=11 v=26
2660 Par ch=7 c=11 v=27
2661 Par ch=7 c=11 v=28
2663 Par ch=7 c=11 v=29
2665 Par ch=7 c=11 v=30
2667 Par ch=7 c=11 v=31
2671 Par ch=7 c=11 v=32
2675 Par ch=7 c=11 v=33
2677 Par ch=7 c=11 v=34
2682 Par ch=7 c=11 v=35
2687 Par ch=7 c=11 v=36
2693 Par ch=7 c=11 v=37
2697 Par ch=7 c=11 v=38
2701 Par ch=7 c=11 v=39
2707 Par ch=7 c=11 v=40
2710 Par ch=7 c=11 v=41
2712 Par ch=7 c=11 v=42
2715 Par ch=7 c=11 v=43
2718 Par ch=7 c=11 v=44
2721 Par ch=7 c=11 v=45
2725 Par ch=7 c=11 v=46
2731 Par ch=7 c=11 v=47
2736 Par ch=7 c=11 v=48
2741 Par ch=7 c=11 v=49
2745 Par ch=7 c=11 v=50
2748 Par ch=7 c=11 v=51
2750 Par ch=7 c=11 v=52
2754 Par ch=7 c=11 v=53
2758 Par ch=7 c=11 v=54
2761 Par ch=7 c=11 v=55
2763 Par ch=7 c=11 v=56
2765 Par ch=7 c=11 v=57
2768 Par ch=7 c=11 v=58
2770 Par ch=7 c=11 v=59
2773 Par ch=7 c=11 v=60
2777 Par ch=7 c=11 v=61
2781 Par ch=7 c=11 v=62
2787 Par ch=7 c=11 v=63
2791 Par ch=7 c=11 v=64
2796 Par ch=7 c=11 v=65
2800 Par ch=7 c=11 v=66
2804 Par ch=7 c=11 v=67
2809 Par ch=7 c=11 v=68
2812 Par ch=7 c=11 v=69
2815 Par ch=7 c=11 v=70
2821 Par ch=7 c=11 v=71
2828 Par ch=7 c=11 v=72
2839 Par ch=7 c=11 v=73
2842 Par ch=7 c=11 v=74
2845 Par ch=7 c=11 v=75
2850 Par ch=7 c=11 v=76
2854 Par ch=7 c=11 v=77
2858 Par ch=7 c=11 v=78
2864 Par ch=7 c=11 v=79
2869 Par ch=7 c=11 v=80
2872 Par ch=7 c=11 v=81
2877 Par ch=7 c=11 v=82
2883 Par ch=7 c=11 v=83
2887 Par ch=7 c=11 v=84
2891 Par ch=7 c=11 v=85
2897 Par ch=7 c=11 v=86
2904 Par ch=7 c=11 v=87
2909 Par ch=7 c=11 v=88
2914 Par ch=7 c=11 v=89
2918 Par ch=7 c=11 v=90
2922 Par ch=7 c=11 v=91
2927 Par ch=7 c=11 v=92
2934 Par ch=7 c=11 v=93
2938 Par ch=7 c=11 v=94
2942 Par ch=7 c=11 v=95
2946 Par ch=7 c=11 v=96
2951 Par ch=7 c=11 v=97
2960 Par ch=7 c=11 v=98
2974 Par ch=7 c=11 v=99
2979 Par ch=7 c=11 v=100
2982 Par ch=7 c=11 v=101
2985 Par ch=7 c=11 v=102
2987 Par ch=7 c=11 v=103
2990 Par ch=7 c=11 v=104
2992 Par ch=7 c=11 v=105
2994 Par ch=7 c=11 v=106
2997 Par ch=7 c=11 v=107
3000 Par ch=7 c=11 v=108
3003 Par ch=7 c=11 v=109
3005 Par ch=7 c=11 v=110
3007 Par ch=7 c=11 v=111
3009 Par ch=7 c=11 v=112
3013 Par ch=7 c=11 v=113
3017 Par ch=7 c=11 v=114
3022 Par ch=7 c=11 v=115
3027 Par ch=7 c=11 v=116
3030 Par ch=7 c=11 v=117
3032 Par ch=7 c=11 v=118
3033 Par ch=7 c=11 v=119
3035 Par ch=7 c=11 v=120
3037 Par ch=7 c=11 v=121
3038 Par ch=7 c=11 v=122
3040 Par ch=7 c=11 v=123
3042 Par ch=7 c=11 v=124
3043 Par ch=7 c=11 v=125
3044 Par ch=7 c=11 v=126
3045 Par ch=7 c=11 v=127
3067 Par ch=7 c=64 v=0
3080 Meta Text "%+"
21600 On ch=7 n=67 v=79
21600 On ch=7 n=62 v=87
21600 On ch=7 n=59 v=77
21643 On ch=7 n=59 v=0
21643 On ch=7 n=62 v=0
21643 On ch=7 n=67 v=0
21659 On ch=7 n=59 v=60
21659 On ch=7 n=62 v=67
21659 On ch=7 n=67 v=67
21683 On ch=7 n=59 v=0
21690 On ch=7 n=62 v=0
21694 On ch=7 n=67 v=0
21719 On ch=7 n=64 v=61
21719 On ch=7 n=55 v=74
21719 On ch=7 n=60 v=74
21770 On ch=7 n=60 v=0
21770 On ch=7 n=64 v=0
21775 On ch=7 n=55 v=0
21837 On ch=7 n=60 v=77
21837 On ch=7 n=57 v=73
21837 On ch=7 n=65 v=77
21900 On ch=7 n=57 v=0
21913 On ch=7 n=60 v=0
21917 On ch=7 n=65 v=0
21957 On ch=7 n=55 v=73
21957 On ch=7 n=60 v=79
21957 On ch=7 n=64 v=77
22009 On ch=7 n=55 v=0
22011 On ch=7 n=60 v=0
22018 On ch=7 n=64 v=0
22019 On ch=7 n=60 v=73
22019 On ch=7 n=65 v=71
22019 On ch=7 n=57 v=73
22074 Par ch=7 c=1 v=1
22076 Par ch=7 c=1 v=3
22076 Par ch=7 c=1 v=5
22076 Par ch=7 c=1 v=7
22076 Par ch=7 c=1 v=9
22076 Par ch=7 c=1 v=12
22081 Par ch=7 c=1 v=13
22081 Par ch=7 c=1 v=15
22081 Par ch=7 c=1 v=17
22081 Par ch=7 c=1 v=19
22081 Par ch=7 c=1 v=21
22081 Par ch=7 c=1 v=22
22081 Par ch=7 c=1 v=24
22081 Par ch=7 c=1 v=25
22081 Par ch=7 c=1 v=26
22085 Par ch=7 c=1 v=27
22085 Par ch=7 c=1 v=28
22085 Par ch=7 c=1 v=29
22085 Par ch=7 c=1 v=30
22085 Par ch=7 c=1 v=31
22085 Par ch=7 c=1 v=32
22085 Par ch=7 c=1 v=33
22085 Par ch=7 c=1 v=34
22085 Par ch=7 c=1 v=35
22085 Par ch=7 c=1 v=36
22085 Par ch=7 c=1 v=37
22085 Par ch=7 c=1 v=38
22087 Par ch=7 c=1 v=39
22091 Par ch=7 c=1 v=40
22091 Par ch=7 c=1 v=41
22094 Par ch=7 c=1 v=42
22096 Par ch=7 c=1 v=43
22096 Par ch=7 c=1 v=44
22100 Par ch=7 c=1 v=45
22100 Par ch=7 c=1 v=46
22100 Par ch=7 c=1 v=47
22100 Par ch=7 c=1 v=48
22100 Par ch=7 c=1 v=49
22104 Par ch=7 c=1 v=50
22104 Par ch=7 c=1 v=51
22104 Par ch=7 c=1 v=52
22104 Par ch=7 c=1 v=53
22104 Par ch=7 c=1 v=54
22109 Par ch=7 c=1 v=55
22109 Par ch=7 c=1 v=56
22109 Par ch=7 c=1 v=57
22109 Par ch=7 c=1 v=58
22113 Par ch=7 c=1 v=59
22113 Par ch=7 c=1 v=60
22117 Par ch=7 c=1 v=61
22117 Par ch=7 c=1 v=62
22117 Par ch=7 c=1 v=63
22117 Par ch=7 c=1 v=64
22122 Par ch=7 c=1 v=65
22122 Par ch=7 c=1 v=66
22126 Par ch=7 c=1 v=67
22126 Par ch=7 c=1 v=68
22126 Par ch=7 c=1 v=69
22130 Par ch=7 c=1 v=70
22130 Par ch=7 c=1 v=71
22130 Par ch=7 c=1 v=72
22130 Par ch=7 c=1 v=73
22130 Par ch=7 c=1 v=74
22130 Par ch=7 c=1 v=75
22130 Par ch=7 c=1 v=76
22130 Par ch=7 c=1 v=77
22137 Par ch=7 c=1 v=78
22137 Par ch=7 c=1 v=79
22137 Par ch=7 c=1 v=80
22137 Par ch=7 c=1 v=81
22137 Par ch=7 c=1 v=82
22137 Par ch=7 c=1 v=83
22141 Par ch=7 c=1 v=84
22141 Par ch=7 c=1 v=85
22145 Par ch=7 c=1 v=86
22145 Par ch=7 c=1 v=87
22145 Par ch=7 c=1 v=88
22145 Par ch=7 c=1 v=89
22145 Par ch=7 c=1 v=90
22145 Par ch=7 c=1 v=91
22150 Par ch=7 c=1 v=92
22150 Par ch=7 c=1 v=93
22150 Par ch=7 c=1 v=94
22150 Par ch=7 c=1 v=95
22154 Par ch=7 c=1 v=96
22154 Par ch=7 c=1 v=97
22158 Par ch=7 c=1 v=98
22158 Par ch=7 c=1 v=99
22158 Par ch=7 c=1 v=100
22161 Par ch=7 c=1 v=101
22161 Par ch=7 c=1 v=102
22167 Par ch=7 c=1 v=101
22169 Par ch=7 c=1 v=100
22169 Par ch=7 c=1 v=99
22169 Par ch=7 c=1 v=98
22169 Par ch=7 c=1 v=97
22170 On ch=7 n=57 v=0
22174 Par ch=7 c=1 v=96
22174 Par ch=7 c=1 v=95
22174 Par ch=7 c=1 v=94
22174 Par ch=7 c=1 v=92
22174 Par ch=7 c=1 v=91
22174 Par ch=7 c=1 v=89
22174 Par ch=7 c=1 v=87
22174 Par ch=7 c=1 v=85
22174 Par ch=7 c=1 v=82
22178 Par ch=7 c=1 v=80
22178 Par ch=7 c=1 v=77
22178 Par ch=7 c=1 v=75
22178 Par ch=7 c=1 v=72
22178 Par ch=7 c=1 v=69
22178 Par ch=7 c=1 v=66
22178 Par ch=7 c=1 v=64
22178 Par ch=7 c=1 v=61
22178 Par ch=7 c=1 v=58
22181 On ch=7 n=60 v=0
22182 Par ch=7 c=1 v=55
22182 Par ch=7 c=1 v=53
22182 Par ch=7 c=1 v=50
22182 Par ch=7 c=1 v=47
22182 Par ch=7 c=1 v=43
22182 Par ch=7 c=1 v=40
22182 Par ch=7 c=1 v=37
22182 Par ch=7 c=1 v=34
22182 Par ch=7 c=1 v=30
22187 Par ch=7 c=1 v=27
22187 Par ch=7 c=1 v=24
22187 Par ch=7 c=1 v=20
22187 Par ch=7 c=1 v=17
22187 Par ch=7 c=1 v=13
22189 Par ch=7 c=1 v=9
22189 Par ch=7 c=1 v=5
22189 Par ch=7 c=1 v=2
22189 Par ch=7 c=1 v=0
22190 On ch=7 n=65 v=0
22197 On ch=7 n=64 v=75
22197 On ch=7 n=60 v=68
22197 On ch=7 n=55 v=72
22242 On ch=7 n=60 v=0
22249 On ch=7 n=55 v=0
22253 On ch=7 n=64 v=0
22259 On ch=7 n=55 v=69
22259 On ch=7 n=62 v=77
22259 On ch=7 n=59 v=86
22314 Par ch=7 c=1 v=1
22314 Par ch=7 c=1 v=4
22317 On ch=7 n=55 v=0
22318 Par ch=7 c=1 v=6
22318 Par ch=7 c=1 v=9
22318 Par ch=7 c=1 v=11
22318 Par ch=7 c=1 v=13
22318 Par ch=7 c=1 v=15
22318 Par ch=7 c=1 v=17
22318 Par ch=7 c=1 v=18
22318 Par ch=7 c=1 v=20
22318 Par ch=7 c=1 v=22
22323 Par ch=7 c=1 v=24
22323 Par ch=7 c=1 v=25
22323 Par ch=7 c=1 v=27
22323 Par ch=7 c=1 v=28
22323 Par ch=7 c=1 v=29
22323 Par ch=7 c=1 v=31
22323 Par ch=7 c=1 v=32
22323 Par ch=7 c=1 v=33
22323 Par ch=7 c=1 v=34
22327 Par ch=7 c=1 v=35
22327 Par ch=7 c=1 v=36
22327 Par ch=7 c=1 v=37
22327 Par ch=7 c=1 v=38
22327 Par ch=7 c=1 v=39
22327 Par ch=7 c=1 v=40
22327 Par ch=7 c=1 v=41
22327 Par ch=7 c=1 v=42
22327 Par ch=7 c=1 v=43
22327 Par ch=7 c=1 v=44
22327 Par ch=7 c=1 v=45
22327 Par ch=7 c=1 v=46
22327 Par ch=7 c=1 v=47
22327 Par ch=7 c=1 v=48
22327 Par ch=7 c=1 v=49
22336 Par ch=7 c=1 v=50
22336 Par ch=7 c=1 v=51
22336 Par ch=7 c=1 v=52
22336 Par ch=7 c=1 v=53
22336 Par ch=7 c=1 v=54
22340 Par ch=7 c=1 v=55
22340 Par ch=7 c=1 v=56
22344 Par ch=7 c=1 v=57
22344 Par ch=7 c=1 v=58
22344 Par ch=7 c=1 v=59
22344 Par ch=7 c=1 v=60
22349 Par ch=7 c=1 v=61
22349 Par ch=7 c=1 v=62
22349 Par ch=7 c=1 v=63
22353 Par ch=7 c=1 v=64
22355 Par ch=7 c=1 v=65
22355 Par ch=7 c=1 v=66
22359 Par ch=7 c=1 v=67
22379 On ch=7 n=55 v=73
22385 Par ch=7 c=1 v=66
22390 Par ch=7 c=1 v=65
22394 Par ch=7 c=1 v=64
22396 Par ch=7 c=1 v=63
22396 Par ch=7 c=1 v=62
22396 Par ch=7 c=1 v=61
22396 Par ch=7 c=1 v=60
22396 Par ch=7 c=1 v=59
22398 Par ch=7 c=1 v=58
22399 On ch=7 n=59 v=0
22399 On ch=7 n=62 v=0
22400 Par ch=7 c=1 v=57
22403 Par ch=7 c=1 v=56
22403 Par ch=7 c=1 v=55
22403 Par ch=7 c=1 v=54
22403 Par ch=7 c=1 v=53
22403 Par ch=7 c=1 v=52
22407 Par ch=7 c=1 v=51
22407 Par ch=7 c=1 v=50
22407 Par ch=7 c=1 v=49
22407 Par ch=7 c=1 v=48
22407 Par ch=7 c=1 v=47
22407 Par ch=7 c=1 v=46
22407 Par ch=7 c=1 v=45
22407 Par ch=7 c=1 v=43
22407 Par ch=7 c=1 v=42
22411 Par ch=7 c=1 v=41
22411 Par ch=7 c=1 v=39
22411 Par ch=7 c=1 v=38
22411 Par ch=7 c=1 v=36
22411 Par ch=7 c=1 v=34
22411 Par ch=7 c=1 v=33
22411 Par ch=7 c=1 v=31
22411 Par ch=7 c=1 v=29
22411 Par ch=7 c=1 v=27
22415 Par ch=7 c=1 v=25
22415 Par ch=7 c=1 v=24
22415 Par ch=7 c=1 v=21
22415 Par ch=7 c=1 v=19
22415 Par ch=7 c=1 v=17
22415 Par ch=7 c=1 v=14
22415 Par ch=7 c=1 v=12
22415 Par ch=7 c=1 v=9
22415 Par ch=7 c=1 v=6
22420 Par ch=7 c=1 v=3
22420 Par ch=7 c=1 v=1
22422 Par ch=7 c=1 v=0
22439 On ch=7 n=62 v=68
22439 On ch=7 n=59 v=65
22476 On ch=7 n=55 v=0
22485 On ch=7 n=59 v=0
22499 On ch=7 n=59 v=65
22499 On ch=7 n=67 v=90
22554 On ch=7 n=62 v=0
22559 On ch=7 n=59 v=0
22563 On ch=7 n=67 v=0
22618 On ch=7 n=59 v=74
22618 On ch=7 n=67 v=83
22618 On ch=7 n=62 v=87
22653 On ch=7 n=59 v=0
22659 On ch=7 n=67 v=0
22670 On ch=7 n=62 v=0
22678 On ch=7 n=55 v=72
22678 On ch=7 n=60 v=67
22678 On ch=7 n=64 v=59
22758 On ch=7 n=55 v=0
22762 On ch=7 n=60 v=0
22773 On ch=7 n=64 v=0
22799 On ch=7 n=65 v=75
22799 On ch=7 n=60 v=81
22799 On ch=7 n=57 v=73
22872 On ch=7 n=57 v=0
22885 On ch=7 n=60 v=0
22889 On ch=7 n=65 v=0
22917 On ch=7 n=64 v=77
22917 On ch=7 n=60 v=72
22917 On ch=7 n=67 v=74
22954 On ch=7 n=67 v=0
22967 On ch=7 n=64 v=0
22978 On ch=7 n=62 v=75
22979 On ch=7 n=70 v=86
22979 On ch=7 n=65 v=95
22986 On ch=7 n=60 v=0
23051 Par ch=7 c=1 v=1
23053 Par ch=7 c=1 v=3
23053 Par ch=7 c=1 v=5
23053 Par ch=7 c=1 v=8
23053 Par ch=7 c=1 v=10
23053 Par ch=7 c=1 v=13
23053 Par ch=7 c=1 v=15
23053 Par ch=7 c=1 v=17
23053 Par ch=7 c=1 v=20
23053 Par ch=7 c=1 v=22
23053 Par ch=7 c=1 v=24
23053 Par ch=7 c=1 v=26
23053 Par ch=7 c=1 v=28
23053 Par ch=7 c=1 v=30
23053 Par ch=7 c=1 v=32
23053 Par ch=7 c=1 v=35
23053 Par ch=7 c=1 v=37
23053 Par ch=7 c=1 v=38
23053 Par ch=7 c=1 v=40
23053 Par ch=7 c=1 v=42
23053 Par ch=7 c=1 v=44
23053 Par ch=7 c=1 v=46
23053 Par ch=7 c=1 v=48
23053 Par ch=7 c=1 v=49
23053 Par ch=7 c=1 v=51
23053 Par ch=7 c=1 v=52
23053 Par ch=7 c=1 v=54
23053 Par ch=7 c=1 v=55
23053 Par ch=7 c=1 v=57
23053 Par ch=7 c=1 v=58
23053 Par ch=7 c=1 v=60
23053 Par ch=7 c=1 v=61
23053 Par ch=7 c=1 v=62
23053 Par ch=7 c=1 v=64
23053 Par ch=7 c=1 v=65
23053 Par ch=7 c=1 v=66
23053 Par ch=7 c=1 v=67
23053 Par ch=7 c=1 v=68
23053 Par ch=7 c=1 v=69
23053 Par ch=7 c=1 v=70
23053 Par ch=7 c=1 v=72
23053 Par ch=7 c=1 v=73
23053 Par ch=7 c=1 v=74
23074 Par ch=7 c=1 v=75
23074 Par ch=7 c=1 v=76
23074 Par ch=7 c=1 v=77
23074 Par ch=7 c=1 v=78
23074 Par ch=7 c=1 v=79
23079 Par ch=7 c=1 v=80
23079 Par ch=7 c=1 v=81
23079 Par ch=7 c=1 v=82
23079 Par ch=7 c=1 v=83
23083 Par ch=7 c=1 v=84
23083 Par ch=7 c=1 v=85
23083 Par ch=7 c=1 v=86
23087 Par ch=7 c=1 v=87
23096 Par ch=7 c=1 v=86
23096 Par ch=7 c=1 v=85
23100 Par ch=7 c=1 v=84
23100 Par ch=7 c=1 v=83
23105 Par ch=7 c=1 v=82
23105 Par ch=7 c=1 v=81
23105 Par ch=7 c=1 v=80
23109 Par ch=7 c=1 v=79
23109 Par ch=7 c=1 v=78
23113 Par ch=7 c=1 v=77
23113 Par ch=7 c=1 v=76
23113 Par ch=7 c=1 v=75
23117 Par ch=7 c=1 v=74
23117 Par ch=7 c=1 v=73
23122 Par ch=7 c=1 v=72
23122 Par ch=7 c=1 v=71
23126 Par ch=7 c=1 v=70
23139 Par ch=7 c=1 v=71
23139 Par ch=7 c=1 v=72
23143 Par ch=7 c=1 v=73
23143 Par ch=7 c=1 v=74
23143 Par ch=7 c=1 v=75
23148 Par ch=7 c=1 v=76
23148 Par ch=7 c=1 v=77
23148 Par ch=7 c=1 v=78
23148 Par ch=7 c=1 v=79
23148 Par ch=7 c=1 v=80
23148 Par ch=7 c=1 v=81
23152 Par ch=7 c=1 v=82
23152 Par ch=7 c=1 v=83
23152 Par ch=7 c=1 v=84
23156 Par ch=7 c=1 v=85
23161 Par ch=7 c=1 v=84
23161 Par ch=7 c=1 v=83
23161 Par ch=7 c=1 v=82
23165 Par ch=7 c=1 v=81
23165 Par ch=7 c=1 v=80
23165 Par ch=7 c=1 v=79
23165 Par ch=7 c=1 v=77
23165 Par ch=7 c=1 v=76
23165 Par ch=7 c=1 v=74
23165 Par ch=7 c=1 v=72
23165 Par ch=7 c=1 v=70
23165 Par ch=7 c=1 v=68
23165 Par ch=7 c=1 v=66
23165 Par ch=7 c=1 v=64
23165 Par ch=7 c=1 v=61
23165 Par ch=7 c=1 v=58
23165 Par ch=7 c=1 v=55
23165 Par ch=7 c=1 v=51
23165 Par ch=7 c=1 v=48
23165 Par ch=7 c=1 v=43
23165 Par ch=7 c=1 v=39
23165 Par ch=7 c=1 v=34
23165 Par ch=7 c=1 v=28
23165 Par ch=7 c=1 v=22
23165 Par ch=7 c=1 v=14
23165 Par ch=7 c=1 v=7
23165 Par ch=7 c=1 v=0
23186 On ch=7 n=65 v=0
23186 On ch=7 n=70 v=0
23187 On ch=7 n=62 v=0
23222 On ch=7 n=62 v=104
23222 On ch=7 n=65 v=90
23228 On ch=7 n=65 v=0
23232 On ch=7 n=62 v=0
23251 On ch=7 n=70 v=61
23252 On ch=7 n=62 v=64
23252 On ch=7 n=65 v=70
23261 On ch=7 n=62 v=0
23265 On ch=7 n=65 v=0
23268 On ch=7 n=70 v=0
23282 On ch=7 n=62 v=83
23282 On ch=7 n=67 v=86
23282 On ch=7 n=59 v=85
23369 On ch=7 n=59 v=0
23369 On ch=7 n=67 v=0
23386 On ch=7 n=62 v=0
23400 On ch=7 n=64 v=69
23400 On ch=7 n=55 v=79
23400 On ch=7 n=60 v=79
23489 On ch=7 n=55 v=0
23493 On ch=7 n=60 v=0
23498 On ch=7 n=64 v=0
23518 On ch=7 n=65 v=76
23518 On ch=7 n=60 v=79
23519 On ch=7 n=57 v=67
23618 On ch=7 n=57 v=0
23626 On ch=7 n=60 v=0
23630 On ch=7 n=65 v=0
23638 On ch=7 n=60 v=83
23638 On ch=7 n=64 v=79
23638 On ch=7 n=55 v=71
23733 On ch=7 n=55 v=0
23737 On ch=7 n=60 v=0
23741 On ch=7 n=64 v=0
23757 On ch=7 n=60 v=76
23757 On ch=7 n=57 v=72
23757 On ch=7 n=65 v=75
23765 Par ch=7 c=1 v=2
23765 Par ch=7 c=1 v=5
23765 Par ch=7 c=1 v=9
23765 Par ch=7 c=1 v=13
23765 Par ch=7 c=1 v=17
23765 Par ch=7 c=1 v=20
23765 Par ch=7 c=1 v=23
23765 Par ch=7 c=1 v=26
23765 Par ch=7 c=1 v=29
23765 Par ch=7 c=1 v=32
23765 Par ch=7 c=1 v=35
23765 Par ch=7 c=1 v=38
23765 Par ch=7 c=1 v=41
23765 Par ch=7 c=1 v=44
23765 Par ch=7 c=1 v=47
23765 Par ch=7 c=1 v=50
23765 Par ch=7 c=1 v=52
23765 Par ch=7 c=1 v=55
23765 Par ch=7 c=1 v=57
23765 Par ch=7 c=1 v=60
23765 Par ch=7 c=1 v=62
23765 Par ch=7 c=1 v=64
23765 Par ch=7 c=1 v=66
23765 Par ch=7 c=1 v=68
23765 Par ch=7 c=1 v=70
23765 Par ch=7 c=1 v=72
23765 Par ch=7 c=1 v=74
23765 Par ch=7 c=1 v=75
23765 Par ch=7 c=1 v=77
23765 Par ch=7 c=1 v=79
23765 Par ch=7 c=1 v=80
23765 Par ch=7 c=1 v=81
23765 Par ch=7 c=1 v=83
23765 Par ch=7 c=1 v=84
23765 Par ch=7 c=1 v=85
23765 Par ch=7 c=1 v=86
23765 Par ch=7 c=1 v=88
23765 Par ch=7 c=1 v=89
23765 Par ch=7 c=1 v=90
23765 Par ch=7 c=1 v=91
23772 Par ch=7 c=1 v=92
23772 Par ch=7 c=1 v=93
23776 Par ch=7 c=1 v=94
23776 Par ch=7 c=1 v=95
23776 Par ch=7 c=1 v=96
23787 Par ch=7 c=1 v=97
23787 Par ch=7 c=1 v=98
23787 Par ch=7 c=1 v=99
23787 Par ch=7 c=1 v=100
23791 Par ch=7 c=1 v=101
23791 Par ch=7 c=1 v=102
23791 Par ch=7 c=1 v=103
23796 Par ch=7 c=1 v=104
23796 Par ch=7 c=1 v=105
23800 Par ch=7 c=1 v=106
23804 Par ch=7 c=1 v=107
23811 Par ch=7 c=1 v=108
23811 Par ch=7 c=1 v=109
23815 Par ch=7 c=1 v=110
23819 Par ch=7 c=1 v=111
23824 Par ch=7 c=1 v=112
23824 Par ch=7 c=1 v=113
23828 Par ch=7 c=1 v=114
23830 Par ch=7 c=1 v=115
23835 Par ch=7 c=1 v=116
23835 Par ch=7 c=1 v=117
23839 Par ch=7 c=1 v=118
23845 Par ch=7 c=1 v=117
23845 Par ch=7 c=1 v=116
23848 Par ch=7 c=1 v=115
23850 Par ch=7 c=1 v=114
23850 Par ch=7 c=1 v=113
23850 Par ch=7 c=1 v=112
23850 Par ch=7 c=1 v=111
23850 Par ch=7 c=1 v=110
23854 On ch=7 n=57 v=0
23854 Par ch=7 c=1 v=109
23854 Par ch=7 c=1 v=107
23854 Par ch=7 c=1 v=105
23854 Par ch=7 c=1 v=103
23854 Par ch=7 c=1 v=101
23854 Par ch=7 c=1 v=99
23854 Par ch=7 c=1 v=97
23854 Par ch=7 c=1 v=95
23854 Par ch=7 c=1 v=92
23858 Par ch=7 c=1 v=89
23858 Par ch=7 c=1 v=86
23858 Par ch=7 c=1 v=83
23858 Par ch=7 c=1 v=80
23858 Par ch=7 c=1 v=76
23858 Par ch=7 c=1 v=73
23858 Par ch=7 c=1 v=69
23858 Par ch=7 c=1 v=65
23858 Par ch=7 c=1 v=61
23863 On ch=7 n=60 v=0
23863 Par ch=7 c=1 v=56
23863 Par ch=7 c=1 v=52
23863 Par ch=7 c=1 v=47
23863 Par ch=7 c=1 v=42
23863 Par ch=7 c=1 v=38
23863 Par ch=7 c=1 v=33
23863 Par ch=7 c=1 v=28
23863 Par ch=7 c=1 v=23
23863 Par ch=7 c=1 v=18
23867 Par ch=7 c=1 v=13
23867 Par ch=7 c=1 v=8
23867 Par ch=7 c=1 v=3
23867 Par ch=7 c=1 v=0
23877 On ch=7 n=64 v=68
23877 On ch=7 n=60 v=70
23878 On ch=7 n=65 v=0
23878 On ch=7 n=55 v=73
23920 On ch=7 n=60 v=0
23938 On ch=7 n=64 v=0
23939 On ch=7 n=62 v=83
23939 On ch=7 n=59 v=85
23993 On ch=7 n=55 v=0
24001 Par ch=7 c=1 v=1
24001 Par ch=7 c=1 v=2
24001 Par ch=7 c=1 v=4
24001 Par ch=7 c=1 v=5
24001 Par ch=7 c=1 v=6
24005 Par ch=7 c=1 v=8
24005 Par ch=7 c=1 v=10
24005 Par ch=7 c=1 v=11
24005 Par ch=7 c=1 v=12
24005 Par ch=7 c=1 v=14
24005 Par ch=7 c=1 v=15
24005 Par ch=7 c=1 v=17
24005 Par ch=7 c=1 v=18
24005 Par ch=7 c=1 v=19
24010 Par ch=7 c=1 v=20
24010 Par ch=7 c=1 v=22
24010 Par ch=7 c=1 v=23
24010 Par ch=7 c=1 v=24
24010 Par ch=7 c=1 v=25
24010 Par ch=7 c=1 v=26
24010 Par ch=7 c=1 v=27
24010 Par ch=7 c=1 v=28
24010 Par ch=7 c=1 v=29
24014 Par ch=7 c=1 v=30
24014 Par ch=7 c=1 v=31
24014 Par ch=7 c=1 v=32
24014 Par ch=7 c=1 v=33
24014 Par ch=7 c=1 v=34
24014 Par ch=7 c=1 v=35
24014 Par ch=7 c=1 v=36
24014 Par ch=7 c=1 v=37
24018 Par ch=7 c=1 v=38
24018 Par ch=7 c=1 v=39
24018 Par ch=7 c=1 v=40
24018 Par ch=7 c=1 v=41
24018 Par ch=7 c=1 v=42
24018 Par ch=7 c=1 v=43
24018 Par ch=7 c=1 v=44
24018 Par ch=7 c=1 v=45
24018 Par ch=7 c=1 v=46
24025 Par ch=7 c=1 v=47
24025 Par ch=7 c=1 v=48
24025 Par ch=7 c=1 v=49
24025 Par ch=7 c=1 v=50
24029 Par ch=7 c=1 v=51
24029 Par ch=7 c=1 v=52
24029 Par ch=7 c=1 v=53
24029 Par ch=7 c=1 v=54
24029 Par ch=7 c=1 v=55
24029 Par ch=7 c=1 v=56
24033 Par ch=7 c=1 v=57
24033 Par ch=7 c=1 v=58
24033 Par ch=7 c=1 v=59
24033 Par ch=7 c=1 v=60
24033 Par ch=7 c=1 v=61
24033 Par ch=7 c=1 v=62
24033 Par ch=7 c=1 v=63
24038 Par ch=7 c=1 v=64
24038 Par ch=7 c=1 v=65
24038 Par ch=7 c=1 v=66
24038 Par ch=7 c=1 v=67
24038 Par ch=7 c=1 v=68
24038 Par ch=7 c=1 v=69
24038 Par ch=7 c=1 v=70
24042 Par ch=7 c=1 v=71
24042 Par ch=7 c=1 v=72
24044 Par ch=7 c=1 v=73
24044 Par ch=7 c=1 v=74
24048 Par ch=7 c=1 v=75
24048 Par ch=7 c=1 v=76
24053 Par ch=7 c=1 v=77
24053 Par ch=7 c=1 v=78
24057 Par ch=7 c=1 v=79
24058 On ch=7 n=55 v=70
24059 Par ch=7 c=1 v=80
24064 Par ch=7 c=1 v=81
24064 Par ch=7 c=1 v=82
24068 Par ch=7 c=1 v=83
24072 Par ch=7 c=1 v=84
24077 Par ch=7 c=1 v=85
24077 Par ch=7 c=1 v=86
24081 Par ch=7 c=1 v=87
24081 Par ch=7 c=1 v=88
24087 Par ch=7 c=1 v=89
24092 Par ch=7 c=1 v=90
24094 Par ch=7 c=1 v=89
24098 Par ch=7 c=1 v=88
24098 Par ch=7 c=1 v=87
24098 Par ch=7 c=1 v=86
24098 Par ch=7 c=1 v=85
24098 Par ch=7 c=1 v=84
24098 Par ch=7 c=1 v=82
24102 Par ch=7 c=1 v=81
24102 Par ch=7 c=1 v=79
24102 Par ch=7 c=1 v=77
24102 Par ch=7 c=1 v=75
24102 Par ch=7 c=1 v=73
24102 Par ch=7 c=1 v=70
24102 Par ch=7 c=1 v=68
24102 Par ch=7 c=1 v=65
24102 Par ch=7 c=1 v=61
24107 Par ch=7 c=1 v=58
24107 Par ch=7 c=1 v=54
24107 Par ch=7 c=1 v=50
24107 Par ch=7 c=1 v=46
24107 Par ch=7 c=1 v=41
24107 Par ch=7 c=1 v=35
24107 Par ch=7 c=1 v=29
24107 Par ch=7 c=1 v=23
24107 Par ch=7 c=1 v=15
24111 Par ch=7 c=1 v=6
24111 Par ch=7 c=1 v=0
24159 On ch=7 n=55 v=0
24162 On ch=7 n=59 v=0
24162 On ch=7 n=62 v=0
24180 On ch=7 n=59 v=65
24180 On ch=7 n=67 v=69
24180 On ch=7 n=62 v=70
24191 On ch=7 n=62 v=0
24193 On ch=7 n=67 v=0
24193 On ch=7 n=59 v=0
24210 On ch=7 n=67 v=64
24210 On ch=7 n=59 v=72
24210 On ch=7 n=62 v=79
24223 On ch=7 n=62 v=0
24223 On ch=7 n=59 v=0
24228 On ch=7 n=67 v=0
24241 On ch=7 n=67 v=74
24241 On ch=7 n=59 v=83
24241 On ch=7 n=62 v=90
24295 Par ch=7 c=1 v=1
24295 Par ch=7 c=1 v=4
24297 Par ch=7 c=1 v=6
24297 Par ch=7 c=1 v=9
24297 Par ch=7 c=1 v=12
24297 Par ch=7 c=1 v=15
24301 Par ch=7 c=1 v=18
24301 Par ch=7 c=1 v=20
24301 Par ch=7 c=1 v=23
24301 Par ch=7 c=1 v=25
24301 Par ch=7 c=1 v=27
24301 Par ch=7 c=1 v=30
24301 Par ch=7 c=1 v=32
24301 Par ch=7 c=1 v=34
24301 Par ch=7 c=1 v=37
24305 Par ch=7 c=1 v=39
24305 Par ch=7 c=1 v=41
24305 Par ch=7 c=1 v=43
24305 Par ch=7 c=1 v=45
24305 Par ch=7 c=1 v=47
24305 Par ch=7 c=1 v=49
24305 Par ch=7 c=1 v=50
24305 Par ch=7 c=1 v=52
24305 Par ch=7 c=1 v=54
24310 Par ch=7 c=1 v=55
24310 Par ch=7 c=1 v=56
24310 Par ch=7 c=1 v=58
24310 Par ch=7 c=1 v=59
24310 Par ch=7 c=1 v=60
24310 Par ch=7 c=1 v=62
24310 Par ch=7 c=1 v=63
24310 Par ch=7 c=1 v=64
24310 Par ch=7 c=1 v=65
24314 Par ch=7 c=1 v=66
24314 Par ch=7 c=1 v=67
24314 Par ch=7 c=1 v=68
24314 Par ch=7 c=1 v=69
24314 Par ch=7 c=1 v=70
24314 Par ch=7 c=1 v=71
24314 Par ch=7 c=1 v=72
24314 Par ch=7 c=1 v=73
24318 Par ch=7 c=1 v=74
24325 Par ch=7 c=1 v=75
24329 On ch=7 n=59 v=0
24329 Par ch=7 c=1 v=76
24334 Par ch=7 c=1 v=77
24338 Par ch=7 c=1 v=78
24342 On ch=7 n=67 v=0
24342 Par ch=7 c=1 v=77
24342 Par ch=7 c=1 v=76
24342 Par ch=7 c=1 v=75
24342 Par ch=7 c=1 v=74
24342 Par ch=7 c=1 v=73
24342 Par ch=7 c=1 v=72
24342 Par ch=7 c=1 v=70
24342 Par ch=7 c=1 v=69
24342 Par ch=7 c=1 v=67
24342 Par ch=7 c=1 v=65
24342 Par ch=7 c=1 v=64
24342 Par ch=7 c=1 v=62
24342 Par ch=7 c=1 v=59
24342 Par ch=7 c=1 v=57
24347 On ch=7 n=62 v=0
24347 Par ch=7 c=1 v=54
24347 Par ch=7 c=1 v=51
24347 Par ch=7 c=1 v=48
24347 Par ch=7 c=1 v=44
24347 Par ch=7 c=1 v=40
24347 Par ch=7 c=1 v=37
24347 Par ch=7 c=1 v=32
24347 Par ch=7 c=1 v=28
24347 Par ch=7 c=1 v=24
24351 Par ch=7 c=1 v=19
24351 Par ch=7 c=1 v=15
24351 Par ch=7 c=1 v=11
24355 Par ch=7 c=1 v=6
24355 Par ch=7 c=1 v=2
24355 Par ch=7 c=1 v=0
24359 On ch=7 n=60 v=75
24359 On ch=7 n=64 v=65
24359 On ch=7 n=55 v=93
24459 On ch=7 n=55 v=0
24467 On ch=7 n=60 v=0
24472 On ch=7 n=64 v=0
24480 On ch=7 n=60 v=79
24480 On ch=7 n=65 v=76
24480 On ch=7 n=57 v=74
24575 On ch=7 n=57 v=0
24580 On ch=7 n=65 v=0
24580 On ch=7 n=60 v=0
24598 On ch=7 n=60 v=65
24598 On ch=7 n=67 v=79
24599 On ch=7 n=64 v=76
24635 On ch=7 n=67 v=0
24642 On ch=7 n=64 v=0
24652 On ch=7 n=60 v=0
24660 On ch=7 n=65 v=89
24661 On ch=7 n=70 v=91
24662 On ch=7 n=62 v=79
24737 Par ch=7 c=1 v=1
24737 Par ch=7 c=1 v=3
24737 Par ch=7 c=1 v=5
24742 Par ch=7 c=1 v=7
24742 Par ch=7 c=1 v=9
24742 Par ch=7 c=1 v=12
24742 Par ch=7 c=1 v=14
24742 Par ch=7 c=1 v=16
24742 Par ch=7 c=1 v=18
24742 Par ch=7 c=1 v=21
24742 Par ch=7 c=1 v=23
24742 Par ch=7 c=1 v=25
24746 Par ch=7 c=1 v=27
24746 Par ch=7 c=1 v=29
24746 Par ch=7 c=1 v=31
24746 Par ch=7 c=1 v=34
24746 Par ch=7 c=1 v=35
24748 Par ch=7 c=1 v=38
24748 Par ch=7 c=1 v=39
24748 Par ch=7 c=1 v=41
24748 Par ch=7 c=1 v=43
24748 Par ch=7 c=1 v=45
24748 Par ch=7 c=1 v=47
24748 Par ch=7 c=1 v=48
24748 Par ch=7 c=1 v=50
24748 Par ch=7 c=1 v=51
24748 Par ch=7 c=1 v=53
24748 Par ch=7 c=1 v=55
24748 Par ch=7 c=1 v=56
24748 Par ch=7 c=1 v=57
24748 Par ch=7 c=1 v=58
24748 Par ch=7 c=1 v=60
24748 Par ch=7 c=1 v=61
24748 Par ch=7 c=1 v=62
24748 Par ch=7 c=1 v=63
24748 Par ch=7 c=1 v=64
24748 Par ch=7 c=1 v=65
24748 Par ch=7 c=1 v=66
24748 Par ch=7 c=1 v=68
24748 Par ch=7 c=1 v=69
24748 Par ch=7 c=1 v=70
24748 Par ch=7 c=1 v=71
24748 Par ch=7 c=1 v=72
24748 Par ch=7 c=1 v=73
24748 Par ch=7 c=1 v=74
24748 Par ch=7 c=1 v=75
24748 Par ch=7 c=1 v=76
24755 Par ch=7 c=1 v=77
24763 Par ch=7 c=1 v=78
24763 Par ch=7 c=1 v=79
24763 Par ch=7 c=1 v=80
24763 Par ch=7 c=1 v=81
24763 Par ch=7 c=1 v=82
24763 Par ch=7 c=1 v=83
24763 Par ch=7 c=1 v=84
24770 Par ch=7 c=1 v=85
24770 Par ch=7 c=1 v=86
24770 Par ch=7 c=1 v=87
24770 Par ch=7 c=1 v=88
24770 Par ch=7 c=1 v=89
24774 Par ch=7 c=1 v=90
24774 Par ch=7 c=1 v=91
24779 Par ch=7 c=1 v=92
24779 Par ch=7 c=1 v=93
24779 Par ch=7 c=1 v=94
24783 Par ch=7 c=1 v=95
24783 Par ch=7 c=1 v=96
24783 Par ch=7 c=1 v=97
24787 On ch=7 n=65 v=0
24787 Par ch=7 c=1 v=98
24787 Par ch=7 c=1 v=99
24787 Par ch=7 c=1 v=100
24791 Par ch=7 c=1 v=101
24791 Par ch=7 c=1 v=102
24791 Par ch=7 c=1 v=103
24791 Par ch=7 c=1 v=104
24796 Par ch=7 c=1 v=105
24796 Par ch=7 c=1 v=106
24796 Par ch=7 c=1 v=107
24796 Par ch=7 c=1 v=108
24796 Par ch=7 c=1 v=109
24796 Par ch=7 c=1 v=110
24800 Par ch=7 c=1 v=111
24800 Par ch=7 c=1 v=112
24800 Par ch=7 c=1 v=113
24800 Par ch=7 c=1 v=114
24800 Par ch=7 c=1 v=115
24800 Par ch=7 c=1 v=116
24804 Par ch=7 c=1 v=117
24804 Par ch=7 c=1 v=118
24804 Par ch=7 c=1 v=119
24804 Par ch=7 c=1 v=120
24804 Par ch=7 c=1 v=121
24805 On ch=7 n=62 v=0
24809 Par ch=7 c=1 v=122
24809 Par ch=7 c=1 v=123
24809 Par ch=7 c=1 v=124
24813 Par ch=7 c=1 v=123
24813 Par ch=7 c=1 v=122
24813 Par ch=7 c=1 v=121
24813 Par ch=7 c=1 v=120
24813 Par ch=7 c=1 v=119
24813 Par ch=7 c=1 v=118
24813 Par ch=7 c=1 v=116
24813 Par ch=7 c=1 v=115
24813 Par ch=7 c=1 v=113
24813 Par ch=7 c=1 v=112
24813 Par ch=7 c=1 v=110
24815 Par ch=7 c=1 v=108
24815 Par ch=7 c=1 v=106
24815 Par ch=7 c=1 v=103
24815 Par ch=7 c=1 v=101
24815 Par ch=7 c=1 v=98
24820 Par ch=7 c=1 v=95
24820 Par ch=7 c=1 v=92
24824 Par ch=7 c=1 v=90
24824 Par ch=7 c=1 v=86
24824 Par ch=7 c=1 v=83
24824 Par ch=7 c=1 v=79
24824 Par ch=7 c=1 v=76
24824 Par ch=7 c=1 v=72
24824 Par ch=7 c=1 v=68
24824 Par ch=7 c=1 v=64
24824 Par ch=7 c=1 v=60
24824 Par ch=7 c=1 v=56
24824 Par ch=7 c=1 v=52
24828 Par ch=7 c=1 v=47
24828 Par ch=7 c=1 v=43
24829 On ch=7 n=70 v=0
24830 Par ch=7 c=1 v=38
24830 Par ch=7 c=1 v=34
24830 Par ch=7 c=1 v=29
24830 Par ch=7 c=1 v=24
24830 Par ch=7 c=1 v=19
24830 Par ch=7 c=1 v=15
24830 Par ch=7 c=1 v=10
24830 Par ch=7 c=1 v=4
24830 Par ch=7 c=1 v=0
24837 On ch=7 n=58 v=87
24837 On ch=7 n=62 v=70
24839 On ch=7 n=65 v=59
24891 On ch=7 n=58 v=0
24899 On ch=7 n=59 v=67
24901 On ch=7 n=67 v=81
24902 On ch=7 n=65 v=0
24979 Par ch=7 c=1 v=1
24982 Par ch=7 c=1 v=3
24982 Par ch=7 c=1 v=5
24982 Par ch=7 c=1 v=7
24982 Par ch=7 c=1 v=9
24982 Par ch=7 c=1 v=12
24986 Par ch=7 c=1 v=13
24986 Par ch=7 c=1 v=15
24986 Par ch=7 c=1 v=17
24986 Par ch=7 c=1 v=19
24986 Par ch=7 c=1 v=21
24986 Par ch=7 c=1 v=23
24986 Par ch=7 c=1 v=25
24986 Par ch=7 c=1 v=26
24986 Par ch=7 c=1 v=28
24990 Par ch=7 c=1 v=29
24990 Par ch=7 c=1 v=31
24990 Par ch=7 c=1 v=33
24990 Par ch=7 c=1 v=34
24990 Par ch=7 c=1 v=36
24990 Par ch=7 c=1 v=38
24990 Par ch=7 c=1 v=39
24990 Par ch=7 c=1 v=41
24990 Par ch=7 c=1 v=43
24995 Par ch=7 c=1 v=44
24995 Par ch=7 c=1 v=46
24995 Par ch=7 c=1 v=48
24995 Par ch=7 c=1 v=49
24995 Par ch=7 c=1 v=50
24995 Par ch=7 c=1 v=52
24995 Par ch=7 c=1 v=53
24995 Par ch=7 c=1 v=55
24995 Par ch=7 c=1 v=56
24998 On ch=7 n=67 v=0
24999 Par ch=7 c=1 v=57
24999 Par ch=7 c=1 v=58
24999 Par ch=7 c=1 v=60
24999 Par ch=7 c=1 v=61
24999 Par ch=7 c=1 v=62
24999 Par ch=7 c=1 v=63
24999 Par ch=7 c=1 v=65
24999 Par ch=7 c=1 v=66
25001 On ch=7 n=59 v=0
25003 Par ch=7 c=1 v=67
25003 Par ch=7 c=1 v=68
25003 Par ch=7 c=1 v=69
25003 Par ch=7 c=1 v=70
25003 Par ch=7 c=1 v=72
25003 Par ch=7 c=1 v=73
25003 Par ch=7 c=1 v=74
25003 Par ch=7 c=1 v=75
25003 Par ch=7 c=1 v=76
25007 Par ch=7 c=1 v=77
25007 Par ch=7 c=1 v=78
25007 Par ch=7 c=1 v=79
25007 Par ch=7 c=1 v=80
25007 Par ch=7 c=1 v=81
25007 Par ch=7 c=1 v=82
25007 Par ch=7 c=1 v=83
25007 Par ch=7 c=1 v=84
25010 On ch=7 n=62 v=0
25012 Par ch=7 c=1 v=85
25012 Par ch=7 c=1 v=86
25012 Par ch=7 c=1 v=87
25012 Par ch=7 c=1 v=88
25012 Par ch=7 c=1 v=89
25012 Par ch=7 c=1 v=90
25016 Par ch=7 c=1 v=93
25016 Par ch=7 c=1 v=94
25016 Par ch=7 c=1 v=95
25016 Par ch=7 c=1 v=91
25016 Par ch=7 c=1 v=92
25019 On ch=7 n=67 v=87
25019 On ch=7 n=59 v=76
25019 On ch=7 n=62 v=86
25020 Par ch=7 c=1 v=96
25031 Par ch=7 c=1 v=95
25033 Par ch=7 c=1 v=94
25033 Par ch=7 c=1 v=93
25036 Par ch=7 c=1 v=92
25038 Par ch=7 c=1 v=91
25038 Par ch=7 c=1 v=90
25038 Par ch=7 c=1 v=89
25038 Par ch=7 c=1 v=88
25042 Par ch=7 c=1 v=87
25042 Par ch=7 c=1 v=86
25042 Par ch=7 c=1 v=85
25042 Par ch=7 c=1 v=84
25046 Par ch=7 c=1 v=83
25046 Par ch=7 c=1 v=82
25046 Par ch=7 c=1 v=81
25046 Par ch=7 c=1 v=80
25046 Par ch=7 c=1 v=79
25046 Par ch=7 c=1 v=77
25046 Par ch=7 c=1 v=76
25046 Par ch=7 c=1 v=74
25046 Par ch=7 c=1 v=72
25049 On ch=7 n=59 v=0
25051 Par ch=7 c=1 v=71
25051 Par ch=7 c=1 v=69
25051 Par ch=7 c=1 v=67
25051 Par ch=7 c=1 v=65
25051 Par ch=7 c=1 v=63
25051 Par ch=7 c=1 v=60
25051 Par ch=7 c=1 v=57
25051 Par ch=7 c=1 v=55
25051 Par ch=7 c=1 v=52
25055 Par ch=7 c=1 v=49
25055 Par ch=7 c=1 v=45
25055 Par ch=7 c=1 v=42
25055 Par ch=7 c=1 v=38
25055 Par ch=7 c=1 v=34
25055 Par ch=7 c=1 v=30
25055 Par ch=7 c=1 v=26
25055 Par ch=7 c=1 v=21
25055 Par ch=7 c=1 v=17
25058 On ch=7 n=67 v=0
25059 Par ch=7 c=1 v=13
25059 Par ch=7 c=1 v=9
25059 Par ch=7 c=1 v=4
25059 Par ch=7 c=1 v=0
25069 On ch=7 n=62 v=0
25078 On ch=7 n=60 v=75
25078 On ch=7 n=64 v=71
25079 On ch=7 n=55 v=87
25156 On ch=7 n=55 v=0
25167 On ch=7 n=60 v=0
25173 On ch=7 n=64 v=0
25198 On ch=7 n=57 v=81
25198 On ch=7 n=65 v=81
25198 On ch=7 n=60 v=86
25256 Par ch=7 c=1 v=1
25256 Par ch=7 c=1 v=4
25256 Par ch=7 c=1 v=7
25256 Par ch=7 c=1 v=10
25256 Par ch=7 c=1 v=12
25260 Par ch=7 c=1 v=15
25260 Par ch=7 c=1 v=18
25260 Par ch=7 c=1 v=20
25260 Par ch=7 c=1 v=23
25260 Par ch=7 c=1 v=26
25260 Par ch=7 c=1 v=28
25260 Par ch=7 c=1 v=31
25260 Par ch=7 c=1 v=33
25260 Par ch=7 c=1 v=36
25265 Par ch=7 c=1 v=38
25265 Par ch=7 c=1 v=41
25265 Par ch=7 c=1 v=43
25265 Par ch=7 c=1 v=45
25265 Par ch=7 c=1 v=48
25265 Par ch=7 c=1 v=50
25265 Par ch=7 c=1 v=52
25265 Par ch=7 c=1 v=54
25265 Par ch=7 c=1 v=56
25269 Par ch=7 c=1 v=57
25269 Par ch=7 c=1 v=59
25269 Par ch=7 c=1 v=61
25269 Par ch=7 c=1 v=63
25269 Par ch=7 c=1 v=65
25269 Par ch=7 c=1 v=66
25269 Par ch=7 c=1 v=68
25269 Par ch=7 c=1 v=69
25269 Par ch=7 c=1 v=71
25273 Par ch=7 c=1 v=72
25273 Par ch=7 c=1 v=74
25273 Par ch=7 c=1 v=75
25273 Par ch=7 c=1 v=77
25273 Par ch=7 c=1 v=78
25273 Par ch=7 c=1 v=79
25273 Par ch=7 c=1 v=81
25273 Par ch=7 c=1 v=82
25273 Par ch=7 c=1 v=83
25277 Par ch=7 c=1 v=84
25277 Par ch=7 c=1 v=86
25277 Par ch=7 c=1 v=87
25277 Par ch=7 c=1 v=88
25277 Par ch=7 c=1 v=89
25277 Par ch=7 c=1 v=90
25277 Par ch=7 c=1 v=91
25277 Par ch=7 c=1 v=92
25277 Par ch=7 c=1 v=93
25277 Par ch=7 c=1 v=94
25277 Par ch=7 c=1 v=95
25284 Par ch=7 c=1 v=96
25284 Par ch=7 c=1 v=97
25286 Par ch=7 c=1 v=98
25286 Par ch=7 c=1 v=99
25288 Par ch=7 c=1 v=100
25293 On ch=7 n=57 v=0
25293 Par ch=7 c=1 v=101
25303 Par ch=7 c=1 v=100
25303 Par ch=7 c=1 v=99
25303 Par ch=7 c=1 v=98
25303 Par ch=7 c=1 v=97
25304 On ch=7 n=60 v=0
25308 Par ch=7 c=1 v=96
25308 Par ch=7 c=1 v=95
25308 Par ch=7 c=1 v=94
25308 Par ch=7 c=1 v=92
25308 Par ch=7 c=1 v=91
25308 Par ch=7 c=1 v=89
25308 Par ch=7 c=1 v=88
25308 Par ch=7 c=1 v=86
25308 Par ch=7 c=1 v=84
25312 Par ch=7 c=1 v=82
25312 Par ch=7 c=1 v=14
25312 Par ch=7 c=1 v=9
25312 Par ch=7 c=1 v=80
25312 Par ch=7 c=1 v=77
25312 Par ch=7 c=1 v=75
25312 Par ch=7 c=1 v=72
25312 Par ch=7 c=1 v=69
25312 Par ch=7 c=1 v=66
25312 Par ch=7 c=1 v=63
25312 Par ch=7 c=1 v=60
25312 Par ch=7 c=1 v=56
25312 Par ch=7 c=1 v=34
25312 Par ch=7 c=1 v=52
25312 Par ch=7 c=1 v=48
25312 Par ch=7 c=1 v=44
25312 Par ch=7 c=1 v=39
25312 Par ch=7 c=1 v=24
25312 Par ch=7 c=1 v=29
25312 Par ch=7 c=1 v=4
25312 Par ch=7 c=1 v=19
25312 Par ch=7 c=1 v=0
25313 On ch=7 n=65 v=0
25318 On ch=7 n=55 v=72
25318 On ch=7 n=60 v=59
25318 On ch=7 n=64 v=72
25368 On ch=7 n=55 v=0
25372 On ch=7 n=60 v=0
25376 On ch=7 n=64 v=0
25379 On ch=7 n=60 v=83
25379 On ch=7 n=57 v=81
25379 On ch=7 n=65 v=83
25424 Par ch=7 c=1 v=1
25424 Par ch=7 c=1 v=3
25429 Par ch=7 c=1 v=5
25429 Par ch=7 c=1 v=8
25429 Par ch=7 c=1 v=10
25429 Par ch=7 c=1 v=12
25429 Par ch=7 c=1 v=14
25429 Par ch=7 c=1 v=16
25429 Par ch=7 c=1 v=18
25429 Par ch=7 c=1 v=20
25429 Par ch=7 c=1 v=22
25433 Par ch=7 c=1 v=24
25433 Par ch=7 c=1 v=25
25433 Par ch=7 c=1 v=27
25433 Par ch=7 c=1 v=29
25433 Par ch=7 c=1 v=30
25433 Par ch=7 c=1 v=32
25433 Par ch=7 c=1 v=33
25433 Par ch=7 c=1 v=34
25433 Par ch=7 c=1 v=35
25435 On ch=7 n=57 v=0
25437 Par ch=7 c=1 v=37
25437 Par ch=7 c=1 v=38
25437 Par ch=7 c=1 v=39
25437 Par ch=7 c=1 v=40
25437 Par ch=7 c=1 v=41
25437 Par ch=7 c=1 v=42
25437 Par ch=7 c=1 v=43
25437 Par ch=7 c=1 v=44
25442 Par ch=7 c=1 v=45
25442 Par ch=7 c=1 v=46
25442 Par ch=7 c=1 v=47
25442 Par ch=7 c=1 v=48
25442 Par ch=7 c=1 v=49
25442 Par ch=7 c=1 v=50
25442 Par ch=7 c=1 v=51
25446 Par ch=7 c=1 v=52
25446 Par ch=7 c=1 v=53
25446 Par ch=7 c=1 v=54
25446 Par ch=7 c=1 v=55
25446 Par ch=7 c=1 v=56
25446 Par ch=7 c=1 v=57
25446 Par ch=7 c=1 v=58
25446 Par ch=7 c=1 v=59
25450 Par ch=7 c=1 v=60
25450 Par ch=7 c=1 v=61
25450 Par ch=7 c=1 v=62
25450 Par ch=7 c=1 v=63
25450 Par ch=7 c=1 v=64
25450 Par ch=7 c=1 v=65
25455 Par ch=7 c=1 v=66
25455 Par ch=7 c=1 v=67
25459 Par ch=7 c=1 v=68
25463 Par ch=7 c=1 v=69
25470 Par ch=7 c=1 v=70
25474 Par ch=7 c=1 v=71
25476 Par ch=7 c=1 v=72
25478 On ch=7 n=65 v=0
25481 Par ch=7 c=1 v=73
25483 On ch=7 n=60 v=0
25487 Par ch=7 c=1 v=72
25487 Par ch=7 c=1 v=71
25487 Par ch=7 c=1 v=70
25491 Par ch=7 c=1 v=69
25491 Par ch=7 c=1 v=68
25491 Par ch=7 c=1 v=67
25491 Par ch=7 c=1 v=66
25491 Par ch=7 c=1 v=64
25491 Par ch=7 c=1 v=61
25491 Par ch=7 c=1 v=63
25491 Par ch=7 c=1 v=56
25491 Par ch=7 c=1 v=59
25496 Par ch=7 c=1 v=46
25496 Par ch=7 c=1 v=29
25496 Par ch=7 c=1 v=33
25496 Par ch=7 c=1 v=54
25496 Par ch=7 c=1 v=51
25496 Par ch=7 c=1 v=48
25496 Par ch=7 c=1 v=39
25496 Par ch=7 c=1 v=42
25496 Par ch=7 c=1 v=36
25497 On ch=7 n=60 v=68
25497 On ch=7 n=57 v=74
25497 On ch=7 n=65 v=87
25500 Par ch=7 c=1 v=26
25500 Par ch=7 c=1 v=22
25500 Par ch=7 c=1 v=18
25500 Par ch=7 c=1 v=14
25500 Par ch=7 c=1 v=9
25500 Par ch=7 c=1 v=4
25500 Par ch=7 c=1 v=1
25515 Par ch=7 c=1 v=0
25543 On ch=7 n=57 v=0
25556 On ch=7 n=60 v=0
25560 On ch=7 n=60 v=59
25560 On ch=7 n=64 v=67
25561 On ch=7 n=55 v=74
25573 On ch=7 n=65 v=0
25597 On ch=7 n=60 v=0
25610 On ch=7 n=55 v=0
25619 On ch=7 n=55 v=55
25619 On ch=7 n=62 v=83
25621 On ch=7 n=59 v=86
25627 On ch=7 n=64 v=0
25662 Par ch=7 c=1 v=1
25662 Par ch=7 c=1 v=3
25662 Par ch=7 c=1 v=6
25662 Par ch=7 c=1 v=8
25662 Par ch=7 c=1 v=11
25666 Par ch=7 c=1 v=13
25666 Par ch=7 c=1 v=15
25666 Par ch=7 c=1 v=17
25666 Par ch=7 c=1 v=19
25666 Par ch=7 c=1 v=21
25666 Par ch=7 c=1 v=23
25666 Par ch=7 c=1 v=25
25666 Par ch=7 c=1 v=26
25666 Par ch=7 c=1 v=28
25671 On ch=7 n=55 v=0
25671 Par ch=7 c=1 v=29
25671 Par ch=7 c=1 v=30
25671 Par ch=7 c=1 v=32
25671 Par ch=7 c=1 v=33
25671 Par ch=7 c=1 v=34
25671 Par ch=7 c=1 v=35
25671 Par ch=7 c=1 v=36
25671 Par ch=7 c=1 v=37
25671 Par ch=7 c=1 v=38
25671 Par ch=7 c=1 v=39
25675 Par ch=7 c=1 v=40
25684 Par ch=7 c=1 v=39
25684 Par ch=7 c=1 v=38
25686 Par ch=7 c=1 v=37
25686 Par ch=7 c=1 v=36
25686 Par ch=7 c=1 v=35
25686 Par ch=7 c=1 v=34
25686 Par ch=7 c=1 v=33
25686 Par ch=7 c=1 v=32
25690 Par ch=7 c=1 v=31
25690 Par ch=7 c=1 v=30
25690 Par ch=7 c=1 v=29
25690 Par ch=7 c=1 v=28
25690 Par ch=7 c=1 v=27
25694 Par ch=7 c=1 v=26
25694 Par ch=7 c=1 v=25
25694 Par ch=7 c=1 v=24
25699 Par ch=7 c=1 v=23
25699 Par ch=7 c=1 v=22
25699 Par ch=7 c=1 v=21
25699 Par ch=7 c=1 v=20
25699 Par ch=7 c=1 v=19
25699 Par ch=7 c=1 v=18
25699 Par ch=7 c=1 v=17
25699 Par ch=7 c=1 v=16
25705 Par ch=7 c=1 v=15
25712 Par ch=7 c=1 v=16
25716 Par ch=7 c=1 v=17
25716 Par ch=7 c=1 v=18
25716 Par ch=7 c=1 v=19
25720 Par ch=7 c=1 v=20
25720 Par ch=7 c=1 v=21
25720 Par ch=7 c=1 v=22
25720 Par ch=7 c=1 v=23
25725 Par ch=7 c=1 v=24
25725 Par ch=7 c=1 v=25
25725 Par ch=7 c=1 v=26
25725 Par ch=7 c=1 v=27
25725 Par ch=7 c=1 v=28
25725 Par ch=7 c=1 v=29
25725 Par ch=7 c=1 v=30
25725 Par ch=7 c=1 v=31
25725 Par ch=7 c=1 v=32
25731 Par ch=7 c=1 v=33
25731 Par ch=7 c=1 v=34
25731 Par ch=7 c=1 v=35
25731 Par ch=7 c=1 v=36
25731 Par ch=7 c=1 v=37
25731 Par ch=7 c=1 v=38
25737 On ch=7 n=55 v=67
25738 Par ch=7 c=1 v=39
25738 Par ch=7 c=1 v=40
25738 Par ch=7 c=1 v=41
25738 Par ch=7 c=1 v=42
25738 Par ch=7 c=1 v=43
25742 Par ch=7 c=1 v=44
25744 Par ch=7 c=1 v=45
25744 Par ch=7 c=1 v=46
25744 Par ch=7 c=1 v=47
25748 Par ch=7 c=1 v=48
25748 Par ch=7 c=1 v=49
25748 Par ch=7 c=1 v=50
25748 Par ch=7 c=1 v=51
25753 Par ch=7 c=1 v=52
25753 Par ch=7 c=1 v=53
25753 Par ch=7 c=1 v=54
25757 Par ch=7 c=1 v=55
25757 Par ch=7 c=1 v=56
25757 Par ch=7 c=1 v=57
25761 Par ch=7 c=1 v=58
25761 Par ch=7 c=1 v=59
25763 Par ch=7 c=1 v=60
25763 Par ch=7 c=1 v=61
25763 Par ch=7 c=1 v=62
25763 Par ch=7 c=1 v=63
25766 On ch=7 n=59 v=0
25768 Par ch=7 c=1 v=64
25768 Par ch=7 c=1 v=65
25768 Par ch=7 c=1 v=66
25768 Par ch=7 c=1 v=67
25768 Par ch=7 c=1 v=68
25768 Par ch=7 c=1 v=69
25768 Par ch=7 c=1 v=70
25768 Par ch=7 c=1 v=71
25774 Par ch=7 c=1 v=72
25774 Par ch=7 c=1 v=73
25779 On ch=7 n=62 v=0
25779 Par ch=7 c=1 v=74
25779 Par ch=7 c=1 v=75
25779 Par ch=7 c=1 v=76
25779 Par ch=7 c=1 v=77
25787 Par ch=7 c=1 v=76
25787 Par ch=7 c=1 v=75
25789 Par ch=7 c=1 v=74
25789 Par ch=7 c=1 v=73
25789 Par ch=7 c=1 v=72
25789 Par ch=7 c=1 v=70
25794 Par ch=7 c=1 v=50
25794 Par ch=7 c=1 v=69
25794 Par ch=7 c=1 v=67
25794 Par ch=7 c=1 v=65
25794 Par ch=7 c=1 v=53
25794 Par ch=7 c=1 v=63
25794 Par ch=7 c=1 v=61
25794 Par ch=7 c=1 v=59
25794 Par ch=7 c=1 v=56
25797 On ch=7 n=62 v=71
25798 On ch=7 n=59 v=79
25798 Par ch=7 c=1 v=47
25798 Par ch=7 c=1 v=43
25798 Par ch=7 c=1 v=39
25798 Par ch=7 c=1 v=34
25798 Par ch=7 c=1 v=29
25798 Par ch=7 c=1 v=24
25798 Par ch=7 c=1 v=19
25798 Par ch=7 c=1 v=13
25798 Par ch=7 c=1 v=7
25802 Par ch=7 c=1 v=1
25802 Par ch=7 c=1 v=0
25839 On ch=7 n=55 v=0
25847 On ch=7 n=59 v=0
25851 On ch=7 n=62 v=0
25858 On ch=7 n=59 v=76
25858 On ch=7 n=62 v=87
25858 On ch=7 n=67 v=95
25958 Par ch=7 c=1 v=1
25962 Par ch=7 c=1 v=2
25962 Par ch=7 c=1 v=3
25962 Par ch=7 c=1 v=4
25962 Par ch=7 c=1 v=5
25962 Par ch=7 c=1 v=6
25962 Par ch=7 c=1 v=7
25962 Par ch=7 c=1 v=8
25962 Par ch=7 c=1 v=9
25962 Par ch=7 c=1 v=10
25962 Par ch=7 c=1 v=11
25962 Par ch=7 c=1 v=12
25962 Par ch=7 c=1 v=13
25962 Par ch=7 c=1 v=14
25964 On ch=7 n=59 v=0
25964 Par ch=7 c=1 v=15
25966 On ch=7 n=67 v=0
25968 On ch=7 n=62 v=0
25969 Par ch=7 c=1 v=16
25969 Par ch=7 c=1 v=17
25969 Par ch=7 c=1 v=18
25969 Par ch=7 c=1 v=19
25973 Par ch=7 c=1 v=20
25973 Par ch=7 c=1 v=21
25973 Par ch=7 c=1 v=22
25973 Par ch=7 c=1 v=25
25973 Par ch=7 c=1 v=26
25973 Par ch=7 c=1 v=23
25973 Par ch=7 c=1 v=24
25977 Par ch=7 c=1 v=34
25977 Par ch=7 c=1 v=30
25977 Par ch=7 c=1 v=31
25977 Par ch=7 c=1 v=27
25977 Par ch=7 c=1 v=28
25977 Par ch=7 c=1 v=29
25977 Par ch=7 c=1 v=32
25977 Par ch=7 c=1 v=33
25978 On ch=7 n=59 v=73
25978 On ch=7 n=67 v=83
25978 On ch=7 n=62 v=87
25982 Par ch=7 c=1 v=35
25982 Par ch=7 c=1 v=36
25982 Par ch=7 c=1 v=38
25982 Par ch=7 c=1 v=39
25982 Par ch=7 c=1 v=40
25984 Par ch=7 c=1 v=41
25984 Par ch=7 c=1 v=42
25984 Par ch=7 c=1 v=44
25984 Par ch=7 c=1 v=45
25984 Par ch=7 c=1 v=46
25984 Par ch=7 c=1 v=48
25984 Par ch=7 c=1 v=49
25984 Par ch=7 c=1 v=50
25988 Par ch=7 c=1 v=51
25988 Par ch=7 c=1 v=52
25988 Par ch=7 c=1 v=53
25988 Par ch=7 c=1 v=55
25988 Par ch=7 c=1 v=56
25988 Par ch=7 c=1 v=57
25988 Par ch=7 c=1 v=58
25988 Par ch=7 c=1 v=59
25988 Par ch=7 c=1 v=60
25992 Par ch=7 c=1 v=61
25992 Par ch=7 c=1 v=62
25992 Par ch=7 c=1 v=63
25992 Par ch=7 c=1 v=64
25992 Par ch=7 c=1 v=65
25992 Par ch=7 c=1 v=66
25992 Par ch=7 c=1 v=67
25992 Par ch=7 c=1 v=68
25992 Par ch=7 c=1 v=69
25992 Par ch=7 c=1 v=70
25992 Par ch=7 c=1 v=71
25992 Par ch=7 c=1 v=72
25992 Par ch=7 c=1 v=73
25992 Par ch=7 c=1 v=74
25992 Par ch=7 c=1 v=75
25992 Par ch=7 c=1 v=76
25992 Par ch=7 c=1 v=77
25992 Par ch=7 c=1 v=78
25992 Par ch=7 c=1 v=79
25992 Par ch=7 c=1 v=80
25992 Par ch=7 c=1 v=81
25992 Par ch=7 c=1 v=82
25992 Par ch=7 c=1 v=83
25992 Par ch=7 c=1 v=84
25992 Par ch=7 c=1 v=85
26001 Par ch=7 c=1 v=86
26005 Par ch=7 c=1 v=87
26005 Par ch=7 c=1 v=88
26005 Par ch=7 c=1 v=89
26010 Par ch=7 c=1 v=90
26012 On ch=7 n=64 v=71
26014 Par ch=7 c=1 v=89
26015 On ch=7 n=59 v=0
26016 Par ch=7 c=1 v=87
26016 Par ch=7 c=1 v=88
26016 Par ch=7 c=1 v=85
26016 Par ch=7 c=1 v=84
26016 Par ch=7 c=1 v=83
26016 Par ch=7 c=1 v=81
26016 Par ch=7 c=1 v=80
26016 Par ch=7 c=1 v=78
26016 Par ch=7 c=1 v=76
26016 Par ch=7 c=1 v=74
26016 Par ch=7 c=1 v=72
26016 Par ch=7 c=1 v=86
26016 Par ch=7 c=1 v=67
26016 Par ch=7 c=1 v=64
26016 Par ch=7 c=1 v=62
26016 Par ch=7 c=1 v=58
26016 Par ch=7 c=1 v=55
26016 Par ch=7 c=1 v=52
26016 Par ch=7 c=1 v=48
26016 Par ch=7 c=1 v=45
26016 Par ch=7 c=1 v=41
26016 Par ch=7 c=1 v=37
26016 Par ch=7 c=1 v=34
26016 Par ch=7 c=1 v=29
26016 Par ch=7 c=1 v=25
26016 Par ch=7 c=1 v=21
26016 Par ch=7 c=1 v=17
26016 Par ch=7 c=1 v=13
26016 Par ch=7 c=1 v=8
26016 Par ch=7 c=1 v=3
26016 Par ch=7 c=1 v=0
26016 Par ch=7 c=1 v=69
26021 On ch=7 n=67 v=0
26021 On ch=7 n=62 v=0
26039 On ch=7 n=60 v=74
26039 On ch=7 n=55 v=85
26127 On ch=7 n=55 v=0
26137 On ch=7 n=64 v=0
26140 On ch=7 n=60 v=0
26159 On ch=7 n=60 v=86
26161 On ch=7 n=65 v=77
26161 On ch=7 n=57 v=79
26226 On ch=7 n=57 v=0
26256 On ch=7 n=60 v=0
26258 On ch=7 n=65 v=0
26277 On ch=7 n=64 v=76
26277 On ch=7 n=67 v=79
26278 On ch=7 n=60 v=74
26318 On ch=7 n=67 v=0
26331 On ch=7 n=64 v=0
26337 On ch=7 n=60 v=0
26339 On ch=7 n=62 v=77
26341 On ch=7 n=65 v=74
26341 On ch=7 n=70 v=81
26386 Par ch=7 c=1 v=1
26386 Par ch=7 c=1 v=5
26386 Par ch=7 c=1 v=9
26386 Par ch=7 c=1 v=13
26390 Par ch=7 c=1 v=16
26390 Par ch=7 c=1 v=19
26390 Par ch=7 c=1 v=22
26390 Par ch=7 c=1 v=25
26390 Par ch=7 c=1 v=27
26390 Par ch=7 c=1 v=29
26390 Par ch=7 c=1 v=32
26390 Par ch=7 c=1 v=34
26390 Par ch=7 c=1 v=37
26394 Par ch=7 c=1 v=39
26394 Par ch=7 c=1 v=41
26394 Par ch=7 c=1 v=43
26394 Par ch=7 c=1 v=45
26394 Par ch=7 c=1 v=48
26394 Par ch=7 c=1 v=49
26394 Par ch=7 c=1 v=51
26394 Par ch=7 c=1 v=52
26394 Par ch=7 c=1 v=54
26399 Par ch=7 c=1 v=55
26399 Par ch=7 c=1 v=56
26399 Par ch=7 c=1 v=57
26399 Par ch=7 c=1 v=58
26399 Par ch=7 c=1 v=59
26399 Par ch=7 c=1 v=60
26399 Par ch=7 c=1 v=61
26399 Par ch=7 c=1 v=62
26403 Par ch=7 c=1 v=63
26403 Par ch=7 c=1 v=64
26403 Par ch=7 c=1 v=65
26403 Par ch=7 c=1 v=66
26403 Par ch=7 c=1 v=67
26403 Par ch=7 c=1 v=68
26403 Par ch=7 c=1 v=69
26407 Par ch=7 c=1 v=70
26411 Par ch=7 c=1 v=69
26411 Par ch=7 c=1 v=68
26411 Par ch=7 c=1 v=67
26416 Par ch=7 c=1 v=66
26416 Par ch=7 c=1 v=65
26420 Par ch=7 c=1 v=64
26420 Par ch=7 c=1 v=63
26433 Par ch=7 c=1 v=64
26433 Par ch=7 c=1 v=65
26433 Par ch=7 c=1 v=66
26437 Par ch=7 c=1 v=67
26437 Par ch=7 c=1 v=68
26437 Par ch=7 c=1 v=69
26437 Par ch=7 c=1 v=70
26440 Par ch=7 c=1 v=71
26442 Par ch=7 c=1 v=72
26442 Par ch=7 c=1 v=73
26442 Par ch=7 c=1 v=74
26444 Par ch=7 c=1 v=75
26446 Par ch=7 c=1 v=76
26446 Par ch=7 c=1 v=77
26446 Par ch=7 c=1 v=78
26446 Par ch=7 c=1 v=79
26450 Par ch=7 c=1 v=80
26450 Par ch=7 c=1 v=81
26450 Par ch=7 c=1 v=82
26450 Par ch=7 c=1 v=83
26455 Par ch=7 c=1 v=84
26457 Par ch=7 c=1 v=85
26457 Par ch=7 c=1 v=86
26461 Par ch=7 c=1 v=87
26465 Par ch=7 c=1 v=88
26470 Par ch=7 c=1 v=89
26474 Par ch=7 c=1 v=90
26478 Par ch=7 c=1 v=91
26483 Par ch=7 c=1 v=92
26487 Par ch=7 c=1 v=93
26489 Par ch=7 c=1 v=94
26489 Par ch=7 c=1 v=95
26496 Par ch=7 c=1 v=96
26500 Par ch=7 c=1 v=97
26524 Par ch=7 c=1 v=96
26526 Par ch=7 c=1 v=95
26526 Par ch=7 c=1 v=94
26530 Par ch=7 c=1 v=93
26530 Par ch=7 c=1 v=92
26532 Par ch=7 c=1 v=91
26532 Par ch=7 c=1 v=90
26532 Par ch=7 c=1 v=89
26532 Par ch=7 c=1 v=88
26535 Par ch=7 c=1 v=87
26535 Par ch=7 c=1 v=86
26535 Par ch=7 c=1 v=85
26535 Par ch=7 c=1 v=84
26535 Par ch=7 c=1 v=83
26535 Par ch=7 c=1 v=81
26539 Par ch=7 c=1 v=80
26539 Par ch=7 c=1 v=79
26539 Par ch=7 c=1 v=77
26539 Par ch=7 c=1 v=75
26539 Par ch=7 c=1 v=74
26539 Par ch=7 c=1 v=72
26539 Par ch=7 c=1 v=70
26539 Par ch=7 c=1 v=68
26539 Par ch=7 c=1 v=65
26539 Par ch=7 c=1 v=63
26539 Par ch=7 c=1 v=60
26539 Par ch=7 c=1 v=58
26539 Par ch=7 c=1 v=55
26539 Par ch=7 c=1 v=52
26539 Par ch=7 c=1 v=49
26539 Par ch=7 c=1 v=45
26539 Par ch=7 c=1 v=41
26539 Par ch=7 c=1 v=38
26539 Par ch=7 c=1 v=33
26539 Par ch=7 c=1 v=29
26539 Par ch=7 c=1 v=25
26539 Par ch=7 c=1 v=20
26539 Par ch=7 c=1 v=16
26539 Par ch=7 c=1 v=11
26539 Par ch=7 c=1 v=6
26539 Par ch=7 c=1 v=2
26539 Par ch=7 c=1 v=0
26551 On ch=7 n=65 v=0
26557 On ch=7 n=62 v=0
26575 On ch=7 n=70 v=0
26579 On ch=7 n=62 v=74
26580 On ch=7 n=58 v=93
26580 On ch=7 n=65 v=73
26620 On ch=7 n=62 v=0
26621 On ch=7 n=58 v=0
26625 On ch=7 n=65 v=0
26639 On ch=7 n=59 v=73
26639 On ch=7 n=62 v=77
26639 On ch=7 n=67 v=79
26741 On ch=7 n=59 v=0
26745 On ch=7 n=67 v=0
26759 On ch=7 n=60 v=79
26759 On ch=7 n=64 v=65
26759 On ch=7 n=55 v=87
26762 On ch=7 n=62 v=0
26848 On ch=7 n=55 v=0
26867 On ch=7 n=64 v=0
26867 On ch=7 n=60 v=0
26880 On ch=7 n=60 v=72
26880 On ch=7 n=57 v=83
26880 On ch=7 n=65 v=83
26971 On ch=7 n=57 v=0
26993 On ch=7 n=65 v=0
26999 On ch=7 n=64 v=74
26999 On ch=7 n=55 v=74
27051 On ch=7 n=55 v=0
27053 On ch=7 n=60 v=0
27061 On ch=7 n=60 v=73
27061 On ch=7 n=57 v=83
27061 On ch=7 n=65 v=86
27070 On ch=7 n=64 v=0
27124 Par ch=7 c=1 v=1
27124 Par ch=7 c=1 v=4
27124 Par ch=7 c=1 v=7
27124 Par ch=7 c=1 v=10
27124 Par ch=7 c=1 v=13
27124 Par ch=7 c=1 v=16
27124 Par ch=7 c=1 v=18
27124 Par ch=7 c=1 v=21
27124 Par ch=7 c=1 v=24
27129 Par ch=7 c=1 v=26
27129 Par ch=7 c=1 v=28
27129 Par ch=7 c=1 v=31
27129 Par ch=7 c=1 v=33
27129 Par ch=7 c=1 v=35
27129 Par ch=7 c=1 v=37
27129 Par ch=7 c=1 v=39
27129 Par ch=7 c=1 v=41
27129 Par ch=7 c=1 v=42
27133 Par ch=7 c=1 v=44
27133 Par ch=7 c=1 v=45
27133 Par ch=7 c=1 v=47
27133 Par ch=7 c=1 v=48
27133 Par ch=7 c=1 v=49
27133 Par ch=7 c=1 v=50
27133 Par ch=7 c=1 v=51
27133 Par ch=7 c=1 v=52
27133 Par ch=7 c=1 v=53
27133 Par ch=7 c=1 v=55
27133 Par ch=7 c=1 v=56
27133 Par ch=7 c=1 v=57
27133 Par ch=7 c=1 v=58
27133 Par ch=7 c=1 v=59
27133 Par ch=7 c=1 v=60
27133 Par ch=7 c=1 v=61
27133 Par ch=7 c=1 v=62
27133 Par ch=7 c=1 v=63
27137 Par ch=7 c=1 v=64
27142 Par ch=7 c=1 v=65
27142 Par ch=7 c=1 v=66
27146 Par ch=7 c=1 v=67
27146 Par ch=7 c=1 v=68
27146 Par ch=7 c=1 v=69
27146 Par ch=7 c=1 v=70
27146 Par ch=7 c=1 v=71
27150 Par ch=7 c=1 v=72
27150 Par ch=7 c=1 v=73
27150 Par ch=7 c=1 v=74
27150 Par ch=7 c=1 v=75
27150 Par ch=7 c=1 v=76
27150 Par ch=7 c=1 v=77
27155 Par ch=7 c=1 v=78
27155 Par ch=7 c=1 v=79
27155 Par ch=7 c=1 v=80
27155 Par ch=7 c=1 v=81
27155 Par ch=7 c=1 v=82
27155 Par ch=7 c=1 v=83
27159 Par ch=7 c=1 v=84
27159 Par ch=7 c=1 v=85
27159 Par ch=7 c=1 v=86
27159 Par ch=7 c=1 v=87
27159 Par ch=7 c=1 v=88
27159 Par ch=7 c=1 v=89
27159 Par ch=7 c=1 v=90
27159 Par ch=7 c=1 v=91
27163 Par ch=7 c=1 v=92
27163 Par ch=7 c=1 v=93
27163 Par ch=7 c=1 v=94
27163 Par ch=7 c=1 v=95
27163 Par ch=7 c=1 v=96
27163 Par ch=7 c=1 v=97
27163 Par ch=7 c=1 v=98
27163 Par ch=7 c=1 v=99
27163 Par ch=7 c=1 v=100
27163 Par ch=7 c=1 v=101
27163 Par ch=7 c=1 v=102
27170 Par ch=7 c=1 v=103
27170 Par ch=7 c=1 v=104
27170 Par ch=7 c=1 v=105
27174 Par ch=7 c=1 v=106
27174 Par ch=7 c=1 v=107
27174 Par ch=7 c=1 v=108
27174 Par ch=7 c=1 v=109
27178 Par ch=7 c=1 v=110
27178 Par ch=7 c=1 v=111
27178 Par ch=7 c=1 v=112
27183 Par ch=7 c=1 v=113
27196 Par ch=7 c=1 v=112
27198 Par ch=7 c=1 v=111
27200 Par ch=7 c=1 v=110
27200 Par ch=7 c=1 v=109
27204 Par ch=7 c=1 v=108
27204 Par ch=7 c=1 v=107
27204 Par ch=7 c=1 v=106
27204 Par ch=7 c=1 v=105
27204 Par ch=7 c=1 v=104
27206 Par ch=7 c=1 v=103
27210 On ch=7 n=57 v=0
27211 Par ch=7 c=1 v=102
27211 Par ch=7 c=1 v=101
27211 Par ch=7 c=1 v=100
27211 Par ch=7 c=1 v=99
27211 Par ch=7 c=1 v=98
27211 Par ch=7 c=1 v=97
27211 Par ch=7 c=1 v=95
27211 Par ch=7 c=1 v=94
27211 Par ch=7 c=1 v=92
27211 Par ch=7 c=1 v=91
27211 Par ch=7 c=1 v=89
27211 Par ch=7 c=1 v=87
27211 Par ch=7 c=1 v=85
27211 Par ch=7 c=1 v=83
27211 Par ch=7 c=1 v=81
27211 Par ch=7 c=1 v=79
27211 Par ch=7 c=1 v=76
27211 Par ch=7 c=1 v=74
27211 Par ch=7 c=1 v=71
27211 Par ch=7 c=1 v=68
27211 Par ch=7 c=1 v=65
27211 Par ch=7 c=1 v=61
27211 Par ch=7 c=1 v=58
27211 Par ch=7 c=1 v=55
27211 Par ch=7 c=1 v=51
27211 Par ch=7 c=1 v=47
27211 Par ch=7 c=1 v=43
27211 Par ch=7 c=1 v=39
27211 Par ch=7 c=1 v=35
27211 Par ch=7 c=1 v=31
27211 Par ch=7 c=1 v=26
27211 Par ch=7 c=1 v=22
27211 Par ch=7 c=1 v=18
27211 Par ch=7 c=1 v=13
27211 Par ch=7 c=1 v=9
27211 Par ch=7 c=1 v=4
27211 Par ch=7 c=1 v=0
27231 On ch=7 n=60 v=0
27239 On ch=7 n=64 v=67
27239 On ch=7 n=60 v=65
27241 On ch=7 n=55 v=72
27244 On ch=7 n=65 v=0
27286 On ch=7 n=60 v=0
27288 On ch=7 n=55 v=0
27301 On ch=7 n=62 v=79
27301 On ch=7 n=59 v=81
27301 On ch=7 n=55 v=67
27310 On ch=7 n=64 v=0
27399 Par ch=7 c=1 v=1
27403 Par ch=7 c=1 v=2
27403 Par ch=7 c=1 v=3
27403 Par ch=7 c=1 v=4
27405 Par ch=7 c=1 v=5
27405 Par ch=7 c=1 v=6
27409 Par ch=7 c=1 v=7
27409 Par ch=7 c=1 v=8
27409 Par ch=7 c=1 v=9
27412 Par ch=7 c=1 v=10
27412 Par ch=7 c=1 v=11
27412 Par ch=7 c=1 v=12
27416 Par ch=7 c=1 v=13
27416 Par ch=7 c=1 v=14
27420 Par ch=7 c=1 v=15
27420 Par ch=7 c=1 v=16
27425 Par ch=7 c=1 v=17
27425 Par ch=7 c=1 v=18
27429 Par ch=7 c=1 v=19
27429 Par ch=7 c=1 v=20
27429 Par ch=7 c=1 v=21
27429 Par ch=7 c=1 v=22
27429 Par ch=7 c=1 v=23
27429 Par ch=7 c=1 v=24
27433 Par ch=7 c=1 v=25
27433 Par ch=7 c=1 v=26
27437 Par ch=7 c=1 v=27
27437 Par ch=7 c=1 v=28
27437 Par ch=7 c=1 v=29
27437 Par ch=7 c=1 v=30
27437 Par ch=7 c=1 v=31
27437 Par ch=7 c=1 v=32
27437 Par ch=7 c=1 v=33
27437 Par ch=7 c=1 v=34
27444 Par ch=7 c=1 v=35
27444 Par ch=7 c=1 v=36
27444 Par ch=7 c=1 v=37
27444 Par ch=7 c=1 v=38
27448 Par ch=7 c=1 v=39
27448 Par ch=7 c=1 v=40
27448 Par ch=7 c=1 v=41
27448 Par ch=7 c=1 v=42
27448 Par ch=7 c=1 v=43
27448 Par ch=7 c=1 v=44
27448 Par ch=7 c=1 v=45
27448 Par ch=7 c=1 v=46
27448 Par ch=7 c=1 v=47
27455 Par ch=7 c=1 v=48
27455 Par ch=7 c=1 v=49
27455 Par ch=7 c=1 v=50
27459 Par ch=7 c=1 v=51
27459 Par ch=7 c=1 v=52
27459 Par ch=7 c=1 v=53
27459 Par ch=7 c=1 v=54
27459 Par ch=7 c=1 v=55
27459 Par ch=7 c=1 v=56
27463 Par ch=7 c=1 v=57
27463 Par ch=7 c=1 v=58
27463 Par ch=7 c=1 v=59
27463 Par ch=7 c=1 v=60
27463 Par ch=7 c=1 v=61
27468 Par ch=7 c=1 v=62
27468 Par ch=7 c=1 v=63
27468 Par ch=7 c=1 v=64
27468 Par ch=7 c=1 v=65
27468 Par ch=7 c=1 v=66
27468 Par ch=7 c=1 v=67
27472 Par ch=7 c=1 v=68
27476 Par ch=7 c=1 v=67
27476 Par ch=7 c=1 v=66
27476 Par ch=7 c=1 v=65
27481 Par ch=7 c=1 v=64
27481 Par ch=7 c=1 v=63
27481 Par ch=7 c=1 v=62
27481 Par ch=7 c=1 v=61
27481 Par ch=7 c=1 v=59
27481 Par ch=7 c=1 v=58
27481 Par ch=7 c=1 v=56
27481 Par ch=7 c=1 v=54
27481 Par ch=7 c=1 v=52
27485 Par ch=7 c=1 v=50
27485 Par ch=7 c=1 v=47
27485 Par ch=7 c=1 v=44
27485 Par ch=7 c=1 v=41
27485 Par ch=7 c=1 v=38
27485 Par ch=7 c=1 v=35
27485 Par ch=7 c=1 v=32
27485 Par ch=7 c=1 v=28
27485 Par ch=7 c=1 v=25
27489 Par ch=7 c=1 v=21
27489 Par ch=7 c=1 v=18
27489 Par ch=7 c=1 v=14
27489 Par ch=7 c=1 v=10
27489 Par ch=7 c=1 v=6
27489 Par ch=7 c=1 v=2
27489 Par ch=7 c=1 v=0
27525 On ch=7 n=55 v=0
27530 On ch=7 n=59 v=0
27530 On ch=7 n=62 v=0
27539 On ch=7 n=59 v=66
27539 On ch=7 n=62 v=73
27539 On ch=7 n=55 v=74
27697 On ch=7 n=55 v=0
27699 On ch=7 n=59 v=0
27705 On ch=7 n=62 v=0
27718 On ch=7 n=64 v=74
27718 On ch=7 n=55 v=75
27718 On ch=7 n=60 v=83
27817 On ch=7 n=55 v=0
27826 On ch=7 n=60 v=0
27832 On ch=7 n=64 v=0
27837 On ch=7 n=60 v=75
27838 On ch=7 n=57 v=79
27838 On ch=7 n=65 v=83
27929 On ch=7 n=57 v=0
27946 On ch=7 n=65 v=0
27949 On ch=7 n=60 v=0
27958 On ch=7 n=60 v=76
27958 On ch=7 n=64 v=74
27958 On ch=7 n=55 v=74
27992 On ch=7 n=55 v=0
27999 On ch=7 n=64 v=0
28010 On ch=7 n=60 v=0
28018 On ch=7 n=65 v=85
28018 On ch=7 n=62 v=83
28019 On ch=7 n=58 v=73
28057 Par ch=7 c=1 v=1
28057 Par ch=7 c=1 v=3
28060 Par ch=7 c=1 v=5
28060 Par ch=7 c=1 v=8
28060 Par ch=7 c=1 v=10
28060 Par ch=7 c=1 v=12
28064 Par ch=7 c=1 v=14
28064 Par ch=7 c=1 v=16
28064 Par ch=7 c=1 v=18
28064 Par ch=7 c=1 v=20
28064 Par ch=7 c=1 v=22
28064 Par ch=7 c=1 v=23
28064 Par ch=7 c=1 v=25
28064 Par ch=7 c=1 v=26
28064 Par ch=7 c=1 v=27
28068 Par ch=7 c=1 v=28
28068 Par ch=7 c=1 v=29
28068 Par ch=7 c=1 v=31
28068 Par ch=7 c=1 v=32
28068 Par ch=7 c=1 v=33
28068 Par ch=7 c=1 v=34
28068 Par ch=7 c=1 v=35
28068 Par ch=7 c=1 v=36
28068 Par ch=7 c=1 v=37
28068 Par ch=7 c=1 v=38
28068 Par ch=7 c=1 v=39
28068 Par ch=7 c=1 v=40
28075 Par ch=7 c=1 v=41
28075 Par ch=7 c=1 v=42
28079 Par ch=7 c=1 v=43
28079 Par ch=7 c=1 v=44
28079 Par ch=7 c=1 v=45
28079 Par ch=7 c=1 v=46
28083 Par ch=7 c=1 v=47
28083 Par ch=7 c=1 v=48
28083 Par ch=7 c=1 v=49
28083 Par ch=7 c=1 v=50
28083 Par ch=7 c=1 v=51
28088 Par ch=7 c=1 v=52
28088 Par ch=7 c=1 v=53
28088 Par ch=7 c=1 v=54
28088 Par ch=7 c=1 v=55
28092 Par ch=7 c=1 v=56
28092 Par ch=7 c=1 v=57
28092 Par ch=7 c=1 v=58
28092 Par ch=7 c=1 v=59
28096 Par ch=7 c=1 v=60
28096 Par ch=7 c=1 v=61
28096 Par ch=7 c=1 v=62
28096 Par ch=7 c=1 v=63
28101 Par ch=7 c=1 v=64
28101 Par ch=7 c=1 v=65
28105 Par ch=7 c=1 v=66
28105 Par ch=7 c=1 v=67
28105 Par ch=7 c=1 v=68
28109 Par ch=7 c=1 v=69
28109 Par ch=7 c=1 v=70
28114 Par ch=7 c=1 v=71
28114 Par ch=7 c=1 v=72
28170 Par ch=7 c=1 v=73
28176 Par ch=7 c=1 v=74
28183 Par ch=7 c=1 v=75
28187 Par ch=7 c=1 v=76
28191 Par ch=7 c=1 v=77
28196 Par ch=7 c=1 v=78
28196 Par ch=7 c=1 v=79
28200 Par ch=7 c=1 v=80
28204 Par ch=7 c=1 v=81
28213 Par ch=7 c=1 v=82
28217 Par ch=7 c=1 v=83
28222 Par ch=7 c=1 v=84
28222 Par ch=7 c=1 v=85
28226 Par ch=7 c=1 v=86
28226 Par ch=7 c=1 v=87
28226 Par ch=7 c=1 v=88
28230 Par ch=7 c=1 v=89
28230 Par ch=7 c=1 v=90
28232 Par ch=7 c=1 v=91
28232 Par ch=7 c=1 v=92
28237 Par ch=7 c=1 v=94
28237 Par ch=7 c=1 v=93
28241 On ch=7 n=58 v=0
28241 Par ch=7 c=1 v=91
28241 Par ch=7 c=1 v=88
28241 Par ch=7 c=1 v=92
28241 Par ch=7 c=1 v=84
28241 Par ch=7 c=1 v=82
28241 Par ch=7 c=1 v=80
28241 Par ch=7 c=1 v=93
28241 Par ch=7 c=1 v=74
28241 Par ch=7 c=1 v=72
28241 Par ch=7 c=1 v=89
28241 Par ch=7 c=1 v=85
28241 Par ch=7 c=1 v=87
28241 Par ch=7 c=1 v=77
28243 Par ch=7 c=1 v=56
28243 Par ch=7 c=1 v=66
28243 Par ch=7 c=1 v=50
28243 Par ch=7 c=1 v=53
28243 Par ch=7 c=1 v=43
28243 Par ch=7 c=1 v=39
28243 Par ch=7 c=1 v=35
28243 Par ch=7 c=1 v=32
28243 Par ch=7 c=1 v=27
28243 Par ch=7 c=1 v=23
28243 Par ch=7 c=1 v=19
28243 Par ch=7 c=1 v=15
28243 Par ch=7 c=1 v=11
28243 Par ch=7 c=1 v=47
28243 Par ch=7 c=1 v=6
28243 Par ch=7 c=1 v=2
28243 Par ch=7 c=1 v=69
28243 Par ch=7 c=1 v=0
28243 Par ch=7 c=1 v=63
28243 Par ch=7 c=1 v=59
28247 On ch=7 n=62 v=0
28258 On ch=7 n=65 v=0
28260 On ch=7 n=59 v=85
28260 On ch=7 n=55 v=73
28262 On ch=7 n=64 v=77
28392 Par ch=7 c=1 v=2
28392 Par ch=7 c=1 v=5
28392 Par ch=7 c=1 v=9
28392 Par ch=7 c=1 v=13
28392 Par ch=7 c=1 v=16
28397 Par ch=7 c=1 v=20
28397 Par ch=7 c=1 v=24
28397 Par ch=7 c=1 v=28
28397 Par ch=7 c=1 v=32
28397 Par ch=7 c=1 v=35
28397 Par ch=7 c=1 v=39
28397 Par ch=7 c=1 v=43
28397 Par ch=7 c=1 v=47
28397 Par ch=7 c=1 v=50
28401 Par ch=7 c=1 v=54
28401 Par ch=7 c=1 v=57
28401 Par ch=7 c=1 v=61
28401 Par ch=7 c=1 v=64
28401 Par ch=7 c=1 v=67
28401 Par ch=7 c=1 v=69
28401 Par ch=7 c=1 v=72
28401 Par ch=7 c=1 v=75
28401 Par ch=7 c=1 v=77
28405 Par ch=7 c=1 v=80
28405 Par ch=7 c=1 v=82
28405 Par ch=7 c=1 v=84
28405 Par ch=7 c=1 v=86
28405 Par ch=7 c=1 v=88
28405 Par ch=7 c=1 v=90
28405 Par ch=7 c=1 v=92
28405 Par ch=7 c=1 v=93
28405 Par ch=7 c=1 v=95
28407 On ch=7 n=64 v=0
28409 Par ch=7 c=1 v=96
28409 Par ch=7 c=1 v=98
28409 Par ch=7 c=1 v=99
28409 Par ch=7 c=1 v=100
28409 Par ch=7 c=1 v=101
28409 Par ch=7 c=1 v=102
28409 Par ch=7 c=1 v=103
28409 Par ch=7 c=1 v=104
28410 On ch=7 n=59 v=0
28414 Par ch=7 c=1 v=105
28414 Par ch=7 c=1 v=106
28416 Par ch=7 c=1 v=107
28416 Par ch=7 c=1 v=108
28425 Par ch=7 c=1 v=107
28425 Par ch=7 c=1 v=106
28425 Par ch=7 c=1 v=105
28425 Par ch=7 c=1 v=104
28425 Par ch=7 c=1 v=103
28425 Par ch=7 c=1 v=102
28425 Par ch=7 c=1 v=101
28431 Par ch=7 c=1 v=100
28431 Par ch=7 c=1 v=99
28431 Par ch=7 c=1 v=98
28431 Par ch=7 c=1 v=97
28431 Par ch=7 c=1 v=96
28435 Par ch=7 c=1 v=95
28435 Par ch=7 c=1 v=94
28435 Par ch=7 c=1 v=93
28435 Par ch=7 c=1 v=92
28435 Par ch=7 c=1 v=91
28435 Par ch=7 c=1 v=90
28435 Par ch=7 c=1 v=89
28435 Par ch=7 c=1 v=88
28440 On ch=7 n=59 v=81
28440 Par ch=7 c=1 v=86
28440 Par ch=7 c=1 v=85
28440 On ch=7 n=62 v=83
28440 Par ch=7 c=1 v=84
28440 On ch=7 n=66 v=87
28440 Par ch=7 c=1 v=82
28440 Par ch=7 c=1 v=80
28440 Par ch=7 c=1 v=79
28440 Par ch=7 c=1 v=77
28440 Par ch=7 c=1 v=74
28440 Par ch=7 c=1 v=72
28442 On ch=7 n=55 v=0
28444 Par ch=7 c=1 v=70
28444 Par ch=7 c=1 v=68
28444 Par ch=7 c=1 v=65
28444 Par ch=7 c=1 v=62
28444 Par ch=7 c=1 v=59
28444 Par ch=7 c=1 v=56
28444 Par ch=7 c=1 v=53
28444 Par ch=7 c=1 v=50
28444 Par ch=7 c=1 v=47
28448 Par ch=7 c=1 v=43
28448 Par ch=7 c=1 v=40
28448 Par ch=7 c=1 v=37
28448 Par ch=7 c=1 v=33
28448 Par ch=7 c=1 v=29
28448 Par ch=7 c=1 v=25
28448 Par ch=7 c=1 v=21
28448 Par ch=7 c=1 v=17
28448 Par ch=7 c=1 v=13
28453 Par ch=7 c=1 v=8
28453 Par ch=7 c=1 v=3
28453 Par ch=7 c=1 v=0
28541 On ch=7 n=66 v=0
28546 On ch=7 n=62 v=0
28546 On ch=7 n=59 v=0
28561 On ch=7 n=55 v=95
28561 On ch=7 n=59 v=85
28561 On ch=7 n=64 v=79
28656 On ch=7 n=59 v=0
28660 On ch=7 n=64 v=0
28660 On ch=7 n=55 v=0
28677 On ch=7 n=59 v=87
28677 On ch=7 n=62 v=81
28678 On ch=7 n=66 v=76
28731 On ch=7 n=59 v=0
28734 On ch=7 n=66 v=0
28735 On ch=7 n=62 v=0
28740 On ch=7 n=64 v=70
28740 On ch=7 n=59 v=77
28740 On ch=7 n=67 v=81
29081 Par ch=7 c=1 v=1
29083 Par ch=7 c=1 v=2
29083 Par ch=7 c=1 v=3
29083 Par ch=7 c=1 v=4
29088 Par ch=7 c=1 v=5
29088 Par ch=7 c=1 v=6
29088 Par ch=7 c=1 v=7
29088 Par ch=7 c=1 v=8
29092 Par ch=7 c=1 v=9
29092 Par ch=7 c=1 v=10
29092 Par ch=7 c=1 v=11
29096 Par ch=7 c=1 v=12
29096 Par ch=7 c=1 v=13
29099 Par ch=7 c=1 v=14
29099 Par ch=7 c=1 v=15
29101 Par ch=7 c=1 v=16
29105 Par ch=7 c=1 v=17
29107 Par ch=7 c=1 v=18
29107 Par ch=7 c=1 v=19
29111 Par ch=7 c=1 v=20
29114 Par ch=7 c=1 v=21
29118 Par ch=7 c=1 v=22
29118 Par ch=7 c=1 v=23
29118 Par ch=7 c=1 v=24
29122 Par ch=7 c=1 v=25
29127 Par ch=7 c=1 v=26
29129 Par ch=7 c=1 v=27
29129 Par ch=7 c=1 v=28
29133 Par ch=7 c=1 v=29
29135 Par ch=7 c=1 v=30
29135 Par ch=7 c=1 v=31
29140 Par ch=7 c=1 v=32
29140 Par ch=7 c=1 v=33
29144 Par ch=7 c=1 v=34
29144 Par ch=7 c=1 v=35
29144 Par ch=7 c=1 v=36
29144 Par ch=7 c=1 v=37
29144 Par ch=7 c=1 v=38
29148 Par ch=7 c=1 v=39
29148 Par ch=7 c=1 v=40
29153 Par ch=7 c=1 v=41
29153 Par ch=7 c=1 v=42
29153 Par ch=7 c=1 v=43
29153 Par ch=7 c=1 v=44
29153 Par ch=7 c=1 v=45
29153 Par ch=7 c=1 v=46
29153 Par ch=7 c=1 v=47
29155 Par ch=7 c=1 v=48
29159 Par ch=7 c=1 v=49
29159 Par ch=7 c=1 v=50
29159 Par ch=7 c=1 v=51
29159 Par ch=7 c=1 v=52
29159 Par ch=7 c=1 v=53
29159 Par ch=7 c=1 v=54
29161 Par ch=7 c=1 v=55
29165 Par ch=7 c=1 v=56
29165 Par ch=7 c=1 v=57
29165 Par ch=7 c=1 v=58
29165 Par ch=7 c=1 v=59
29165 Par ch=7 c=1 v=60
29170 Par ch=7 c=1 v=61
29170 Par ch=7 c=1 v=62
29170 Par ch=7 c=1 v=63
29170 Par ch=7 c=1 v=64
29174 Par ch=7 c=1 v=65
29174 Par ch=7 c=1 v=66
29174 Par ch=7 c=1 v=67
29174 Par ch=7 c=1 v=68
29178 Par ch=7 c=1 v=69
29178 Par ch=7 c=1 v=70
29178 Par ch=7 c=1 v=71
29183 Par ch=7 c=1 v=72
29183 Par ch=7 c=1 v=73
29183 Par ch=7 c=1 v=74
29183 Par ch=7 c=1 v=75
29187 Par ch=7 c=1 v=76
29187 Par ch=7 c=1 v=77
29187 Par ch=7 c=1 v=78
29189 Par ch=7 c=1 v=79
29189 Par ch=7 c=1 v=80
29194 Par ch=7 c=1 v=81
29194 Par ch=7 c=1 v=82
29198 Par ch=7 c=1 v=83
29198 Par ch=7 c=1 v=84
29198 Par ch=7 c=1 v=85
29202 Par ch=7 c=1 v=86
29202 Par ch=7 c=1 v=87
29202 Par ch=7 c=1 v=88
29207 Par ch=7 c=1 v=89
29207 Par ch=7 c=1 v=90
29207 Par ch=7 c=1 v=91
29209 Par ch=7 c=1 v=92
29209 Par ch=7 c=1 v=93
29209 Par ch=7 c=1 v=94
29213 Par ch=7 c=1 v=95
29213 Par ch=7 c=1 v=96
29213 Par ch=7 c=1 v=97
29217 Par ch=7 c=1 v=98
29217 Par ch=7 c=1 v=99
29222 Par ch=7 c=1 v=100
29222 Par ch=7 c=1 v=101
29222 Par ch=7 c=1 v=102
29226 Par ch=7 c=1 v=103
29230 Par ch=7 c=1 v=104
29230 Par ch=7 c=1 v=103
29230 Par ch=7 c=1 v=102
29235 On ch=7 n=59 v=0
29235 Par ch=7 c=1 v=101
29235 Par ch=7 c=1 v=100
29235 Par ch=7 c=1 v=99
29235 Par ch=7 c=1 v=98
29235 Par ch=7 c=1 v=97
29235 Par ch=7 c=1 v=95
29239 On ch=7 n=67 v=0
29239 On ch=7 n=64 v=0
29239 Par ch=7 c=1 v=93
29239 Par ch=7 c=1 v=92
29239 Par ch=7 c=1 v=90
29239 Par ch=7 c=1 v=87
29239 Par ch=7 c=1 v=85
29239 Par ch=7 c=1 v=82
29239 Par ch=7 c=1 v=79
29239 Par ch=7 c=1 v=76
29239 Par ch=7 c=1 v=72
29243 Par ch=7 c=1 v=68
29243 Par ch=7 c=1 v=64
29243 Par ch=7 c=1 v=60
29243 Par ch=7 c=1 v=55
29243 Par ch=7 c=1 v=49
29243 Par ch=7 c=1 v=43
29243 Par ch=7 c=1 v=37
29243 Par ch=7 c=1 v=33
29243 Par ch=7 c=1 v=31
29248 Par ch=7 c=1 v=27
29248 Par ch=7 c=1 v=24
29248 Par ch=7 c=1 v=20
29248 Par ch=7 c=1 v=14
29248 Par ch=7 c=1 v=8
29248 Par ch=7 c=1 v=2
29248 Par ch=7 c=1 v=0
38400 On ch=7 n=67 v=79
38400 On ch=7 n=62 v=87
38400 On ch=7 n=59 v=77
38443 On ch=7 n=59 v=0
38443 On ch=7 n=62 v=0
38443 On ch=7 n=67 v=0
38459 On ch=7 n=59 v=60
38459 On ch=7 n=62 v=67
38459 On ch=7 n=67 v=67
38483 On ch=7 n=59 v=0
38490 On ch=7 n=62 v=0
38494 On ch=7 n=67 v=0
38519 On ch=7 n=64 v=61
38519 On ch=7 n=55 v=74
38519 On ch=7 n=60 v=74
38570 On ch=7 n=60 v=0
38570 On ch=7 n=64 v=0
38575 On ch=7 n=55 v=0
38637 On ch=7 n=60 v=77
38637 On ch=7 n=57 v=73
38637 On ch=7 n=65 v=77
38700 On ch=7 n=57 v=0
38713 On ch=7 n=60 v=0
38717 On ch=7 n=65 v=0
38757 On ch=7 n=55 v=73
38757 On ch=7 n=60 v=79
38757 On ch=7 n=64 v=77
38809 On ch=7 n=55 v=0
38811 On ch=7 n=60 v=0
38818 On ch=7 n=64 v=0
38819 On ch=7 n=60 v=73
38819 On ch=7 n=65 v=71
38819 On ch=7 n=57 v=73
38874 Par ch=7 c=1 v=1
38876 Par ch=7 c=1 v=3
38876 Par ch=7 c=1 v=5
38876 Par ch=7 c=1 v=7
38876 Par ch=7 c=1 v=9
38876 Par ch=7 c=1 v=12
38881 Par ch=7 c=1 v=13
38881 Par ch=7 c=1 v=15
38881 Par ch=7 c=1 v=17
38881 Par ch=7 c=1 v=19
38881 Par ch=7 c=1 v=21
38881 Par ch=7 c=1 v=22
38881 Par ch=7 c=1 v=24
38881 Par ch=7 c=1 v=25
38881 Par ch=7 c=1 v=26
38885 Par ch=7 c=1 v=27
38885 Par ch=7 c=1 v=28
38885 Par ch=7 c=1 v=29
38885 Par ch=7 c=1 v=30
38885 Par ch=7 c=1 v=31
38885 Par ch=7 c=1 v=32
38885 Par ch=7 c=1 v=33
38885 Par ch=7 c=1 v=34
38885 Par ch=7 c=1 v=35
38885 Par ch=7 c=1 v=36
38885 Par ch=7 c=1 v=37
38885 Par ch=7 c=1 v=38
38887 Par ch=7 c=1 v=39
38891 Par ch=7 c=1 v=40
38891 Par ch=7 c=1 v=41
38894 Par ch=7 c=1 v=42
38896 Par ch=7 c=1 v=43
38896 Par ch=7 c=1 v=44
38900 Par ch=7 c=1 v=45
38900 Par ch=7 c=1 v=46
38900 Par ch=7 c=1 v=47
38900 Par ch=7 c=1 v=48
38900 Par ch=7 c=1 v=49
38904 Par ch=7 c=1 v=50
38904 Par ch=7 c=1 v=51
38904 Par ch=7 c=1 v=52
38904 Par ch=7 c=1 v=53
38904 Par ch=7 c=1 v=54
38909 Par ch=7 c=1 v=55
38909 Par ch=7 c=1 v=56
38909 Par ch=7 c=1 v=57
38909 Par ch=7 c=1 v=58
38913 Par ch=7 c=1 v=59
38913 Par ch=7 c=1 v=60
38917 Par ch=7 c=1 v=61
38917 Par ch=7 c=1 v=62
38917 Par ch=7 c=1 v=63
38917 Par ch=7 c=1 v=64
38922 Par ch=7 c=1 v=65
38922 Par ch=7 c=1 v=66
38926 Par ch=7 c=1 v=67
38926 Par ch=7 c=1 v=68
38926 Par ch=7 c=1 v=69
38930 Par ch=7 c=1 v=70
38930 Par ch=7 c=1 v=71
38930 Par ch=7 c=1 v=72
38930 Par ch=7 c=1 v=73
38930 Par ch=7 c=1 v=74
38930 Par ch=7 c=1 v=75
38930 Par ch=7 c=1 v=76
38930 Par ch=7 c=1 v=77
38937 Par ch=7 c=1 v=78
38937 Par ch=7 c=1 v=79
38937 Par ch=7 c=1 v=80
38937 Par ch=7 c=1 v=81
38937 Par ch=7 c=1 v=82
38937 Par ch=7 c=1 v=83
38941 Par ch=7 c=1 v=84
38941 Par ch=7 c=1 v=85
38945 Par ch=7 c=1 v=86
38945 Par ch=7 c=1 v=87
38945 Par ch=7 c=1 v=88
38945 Par ch=7 c=1 v=89
38945 Par ch=7 c=1 v=90
38945 Par ch=7 c=1 v=91
38950 Par ch=7 c=1 v=92
38950 Par ch=7 c=1 v=93
38950 Par ch=7 c=1 v=94
38950 Par ch=7 c=1 v=95
38954 Par ch=7 c=1 v=96
38954 Par ch=7 c=1 v=97
38958 Par ch=7 c=1 v=98
38958 Par ch=7 c=1 v=99
38958 Par ch=7 c=1 v=100
38961 Par ch=7 c=1 v=101
38961 Par ch=7 c=1 v=102
38967 Par ch=7 c=1 v=101
38969 Par ch=7 c=1 v=100
38969 Par ch=7 c=1 v=99
38969 Par ch=7 c=1 v=98
38969 Par ch=7 c=1 v=97
38970 On ch=7 n=57 v=0
38974 Par ch=7 c=1 v=96
38974 Par ch=7 c=1 v=95
38974 Par ch=7 c=1 v=94
38974 Par ch=7 c=1 v=92
38974 Par ch=7 c=1 v=91
38974 Par ch=7 c=1 v=89
38974 Par ch=7 c=1 v=87
38974 Par ch=7 c=1 v=85
38974 Par ch=7 c=1 v=82
38978 Par ch=7 c=1 v=80
38978 Par ch=7 c=1 v=77
38978 Par ch=7 c=1 v=75
38978 Par ch=7 c=1 v=72
38978 Par ch=7 c=1 v=69
38978 Par ch=7 c=1 v=66
38978 Par ch=7 c=1 v=64
38978 Par ch=7 c=1 v=61
38978 Par ch=7 c=1 v=58
38981 On ch=7 n=60 v=0
38982 Par ch=7 c=1 v=55
38982 Par ch=7 c=1 v=53
38982 Par ch=7 c=1 v=50
38982 Par ch=7 c=1 v=47
38982 Par ch=7 c=1 v=43
38982 Par ch=7 c=1 v=40
38982 Par ch=7 c=1 v=37
38982 Par ch=7 c=1 v=34
38982 Par ch=7 c=1 v=30
38987 Par ch=7 c=1 v=27
38987 Par ch=7 c=1 v=24
38987 Par ch=7 c=1 v=20
38987 Par ch=7 c=1 v=17
38987 Par ch=7 c=1 v=13
38989 Par ch=7 c=1 v=9
38989 Par ch=7 c=1 v=5
38989 Par ch=7 c=1 v=2
38989 Par ch=7 c=1 v=0
38990 On ch=7 n=65 v=0
38997 On ch=7 n=64 v=75
38997 On ch=7 n=60 v=68
38997 On ch=7 n=55 v=72
39042 On ch=7 n=60 v=0
39049 On ch=7 n=55 v=0
39053 On ch=7 n=64 v=0
39059 On ch=7 n=55 v=69
39059 On ch=7 n=62 v=77
39059 On ch=7 n=59 v=86
39114 Par ch=7 c=1 v=1
39114 Par ch=7 c=1 v=4
39117 On ch=7 n=55 v=0
39118 Par ch=7 c=1 v=6
39118 Par ch=7 c=1 v=9
39118 Par ch=7 c=1 v=11
39118 Par ch=7 c=1 v=13
39118 Par ch=7 c=1 v=15
39118 Par ch=7 c=1 v=17
39118 Par ch=7 c=1 v=18
39118 Par ch=7 c=1 v=20
39118 Par ch=7 c=1 v=22
39123 Par ch=7 c=1 v=24
39123 Par ch=7 c=1 v=25
39123 Par ch=7 c=1 v=27
39123 Par ch=7 c=1 v=28
39123 Par ch=7 c=1 v=29
39123 Par ch=7 c=1 v=31
39123 Par ch=7 c=1 v=32
39123 Par ch=7 c=1 v=33
39123 Par ch=7 c=1 v=34
39127 Par ch=7 c=1 v=35
39127 Par ch=7 c=1 v=36
39127 Par ch=7 c=1 v=37
39127 Par ch=7 c=1 v=38
39127 Par ch=7 c=1 v=39
39127 Par ch=7 c=1 v=40
39127 Par ch=7 c=1 v=41
39127 Par ch=7 c=1 v=42
39127 Par ch=7 c=1 v=43
39127 Par ch=7 c=1 v=44
39127 Par ch=7 c=1 v=45
39127 Par ch=7 c=1 v=46
39127 Par ch=7 c=1 v=47
39127 Par ch=7 c=1 v=48
39127 Par ch=7 c=1 v=49
39136 Par ch=7 c=1 v=50
39136 Par ch=7 c=1 v=51
39136 Par ch=7 c=1 v=52
39136 Par ch=7 c=1 v=53
39136 Par ch=7 c=1 v=54
39140 Par ch=7 c=1 v=55
39140 Par ch=7 c=1 v=56
39144 Par ch=7 c=1 v=57
39144 Par ch=7 c=1 v=58
39144 Par ch=7 c=1 v=59
39144 Par ch=7 c=1 v=60
39149 Par ch=7 c=1 v=61
39149 Par ch=7 c=1 v=62
39149 Par ch=7 c=1 v=63
39153 Par ch=7 c=1 v=64
39155 Par ch=7 c=1 v=65
39155 Par ch=7 c=1 v=66
39159 Par ch=7 c=1 v=67
39179 On ch=7 n=55 v=73
39185 Par ch=7 c=1 v=66
39190 Par ch=7 c=1 v=65
39194 Par ch=7 c=1 v=64
39196 Par ch=7 c=1 v=63
39196 Par ch=7 c=1 v=62
39196 Par ch=7 c=1 v=61
39196 Par ch=7 c=1 v=60
39196 Par ch=7 c=1 v=59
39198 Par ch=7 c=1 v=58
39199 On ch=7 n=59 v=0
39199 On ch=7 n=62 v=0
39200 Par ch=7 c=1 v=57
39203 Par ch=7 c=1 v=56
39203 Par ch=7 c=1 v=55
39203 Par ch=7 c=1 v=54
39203 Par ch=7 c=1 v=53
39203 Par ch=7 c=1 v=52
39207 Par ch=7 c=1 v=51
39207 Par ch=7 c=1 v=50
39207 Par ch=7 c=1 v=49
39207 Par ch=7 c=1 v=48
39207 Par ch=7 c=1 v=47
39207 Par ch=7 c=1 v=46
39207 Par ch=7 c=1 v=45
39207 Par ch=7 c=1 v=43
39207 Par ch=7 c=1 v=42
39211 Par ch=7 c=1 v=41
39211 Par ch=7 c=1 v=39
39211 Par ch=7 c=1 v=38
39211 Par ch=7 c=1 v=36
39211 Par ch=7 c=1 v=34
39211 Par ch=7 c=1 v=33
39211 Par ch=7 c=1 v=31
39211 Par ch=7 c=1 v=29
39211 Par ch=7 c=1 v=27
39215 Par ch=7 c=1 v=25
39215 Par ch=7 c=1 v=24
39215 Par ch=7 c=1 v=21
39215 Par ch=7 c=1 v=19
39215 Par ch=7 c=1 v=17
39215 Par ch=7 c=1 v=14
39215 Par ch=7 c=1 v=12
39215 Par ch=7 c=1 v=9
39215 Par ch=7 c=1 v=6
39220 Par ch=7 c=1 v=3
39220 Par ch=7 c=1 v=1
39222 Par ch=7 c=1 v=0
39239 On ch=7 n=62 v=68
39239 On ch=7 n=59 v=65
39276 On ch=7 n=55 v=0
39285 On ch=7 n=59 v=0
39299 On ch=7 n=59 v=65
39299 On ch=7 n=67 v=90
39354 On ch=7 n=62 v=0
39359 On ch=7 n=59 v=0
39363 On ch=7 n=67 v=0
39418 On ch=7 n=59 v=74
39418 On ch=7 n=67 v=83
39418 On ch=7 n=62 v=87
39453 On ch=7 n=59 v=0
39459 On ch=7 n=67 v=0
39470 On ch=7 n=62 v=0
39478 On ch=7 n=55 v=72
39478 On ch=7 n=60 v=67
39478 On ch=7 n=64 v=59
39558 On ch=7 n=55 v=0
39562 On ch=7 n=60 v=0
39573 On ch=7 n=64 v=0
39599 On ch=7 n=65 v=75
39599 On ch=7 n=60 v=81
39599 On ch=7 n=57 v=73
39672 On ch=7 n=57 v=0
39685 On ch=7 n=60 v=0
39689 On ch=7 n=65 v=0
39717 On ch=7 n=64 v=77
39717 On ch=7 n=60 v=72
39717 On ch=7 n=67 v=74
39754 On ch=7 n=67 v=0
39767 On ch=7 n=64 v=0
39778 On ch=7 n=62 v=75
39779 On ch=7 n=70 v=86
39779 On ch=7 n=65 v=95
39786 On ch=7 n=60 v=0
39851 Par ch=7 c=1 v=1
39853 Par ch=7 c=1 v=3
39853 Par ch=7 c=1 v=5
39853 Par ch=7 c=1 v=8
39853 Par ch=7 c=1 v=10
39853 Par ch=7 c=1 v=13
39853 Par ch=7 c=1 v=15
39853 Par ch=7 c=1 v=17
39853 Par ch=7 c=1 v=20
39853 Par ch=7 c=1 v=22
39853 Par ch=7 c=1 v=24
39853 Par ch=7 c=1 v=26
39853 Par ch=7 c=1 v=28
39853 Par ch=7 c=1 v=30
39853 Par ch=7 c=1 v=32
39853 Par ch=7 c=1 v=35
39853 Par ch=7 c=1 v=37
39853 Par ch=7 c=1 v=38
39853 Par ch=7 c=1 v=40
39853 Par ch=7 c=1 v=42
39853 Par ch=7 c=1 v=44
39853 Par ch=7 c=1 v=46
39853 Par ch=7 c=1 v=48
39853 Par ch=7 c=1 v=49
39853 Par ch=7 c=1 v=51
39853 Par ch=7 c=1 v=52
39853 Par ch=7 c=1 v=54
39853 Par ch=7 c=1 v=55
39853 Par ch=7 c=1 v=57
39853 Par ch=7 c=1 v=58
39853 Par ch=7 c=1 v=60
39853 Par ch=7 c=1 v=61
39853 Par ch=7 c=1 v=62
39853 Par ch=7 c=1 v=64
39853 Par ch=7 c=1 v=65
39853 Par ch=7 c=1 v=66
39853 Par ch=7 c=1 v=67
39853 Par ch=7 c=1 v=68
39853 Par ch=7 c=1 v=69
39853 Par ch=7 c=1 v=70
39853 Par ch=7 c=1 v=72
39853 Par ch=7 c=1 v=73
39853 Par ch=7 c=1 v=74
39874 Par ch=7 c=1 v=75
39874 Par ch=7 c=1 v=76
39874 Par ch=7 c=1 v=77
39874 Par ch=7 c=1 v=78
39874 Par ch=7 c=1 v=79
39879 Par ch=7 c=1 v=80
39879 Par ch=7 c=1 v=81
39879 Par ch=7 c=1 v=82
39879 Par ch=7 c=1 v=83
39883 Par ch=7 c=1 v=84
39883 Par ch=7 c=1 v=85
39883 Par ch=7 c=1 v=86
39887 Par ch=7 c=1 v=87
39896 Par ch=7 c=1 v=86
39896 Par ch=7 c=1 v=85
39900 Par ch=7 c=1 v=84
39900 Par ch=7 c=1 v=83
39905 Par ch=7 c=1 v=82
39905 Par ch=7 c=1 v=81
39905 Par ch=7 c=1 v=80
39909 Par ch=7 c=1 v=79
39909 Par ch=7 c=1 v=78
39913 Par ch=7 c=1 v=77
39913 Par ch=7 c=1 v=76
39913 Par ch=7 c=1 v=75
39917 Par ch=7 c=1 v=74
39917 Par ch=7 c=1 v=73
39922 Par ch=7 c=1 v=72
39922 Par ch=7 c=1 v=71
39926 Par ch=7 c=1 v=70
39939 Par ch=7 c=1 v=71
39939 Par ch=7 c=1 v=72
39943 Par ch=7 c=1 v=73
39943 Par ch=7 c=1 v=74
39943 Par ch=7 c=1 v=75
39948 Par ch=7 c=1 v=76
39948 Par ch=7 c=1 v=77
39948 Par ch=7 c=1 v=78
39948 Par ch=7 c=1 v=79
39948 Par ch=7 c=1 v=80
39948 Par ch=7 c=1 v=81
39952 Par ch=7 c=1 v=82
39952 Par ch=7 c=1 v=83
39952 Par ch=7 c=1 v=84
39956 Par ch=7 c=1 v=85
39961 Par ch=7 c=1 v=84
39961 Par ch=7 c=1 v=83
39961 Par ch=7 c=1 v=82
39965 Par ch=7 c=1 v=81
39965 Par ch=7 c=1 v=80
39965 Par ch=7 c=1 v=79
39965 Par ch=7 c=1 v=77
39965 Par ch=7 c=1 v=76
39965 Par ch=7 c=1 v=74
39965 Par ch=7 c=1 v=72
39965 Par ch=7 c=1 v=70
39965 Par ch=7 c=1 v=68
39965 Par ch=7 c=1 v=66
39965 Par ch=7 c=1 v=64
39965 Par ch=7 c=1 v=61
39965 Par ch=7 c=1 v=58
39965 Par ch=7 c=1 v=55
39965 Par ch=7 c=1 v=51
39965 Par ch=7 c=1 v=48
39965 Par ch=7 c=1 v=43
39965 Par ch=7 c=1 v=39
39965 Par ch=7 c=1 v=34
39965 Par ch=7 c=1 v=28
39965 Par ch=7 c=1 v=22
39965 Par ch=7 c=1 v=14
39965 Par ch=7 c=1 v=7
39965 Par ch=7 c=1 v=0
39986 On ch=7 n=65 v=0
39986 On ch=7 n=70 v=0
39987 On ch=7 n=62 v=0
40022 On ch=7 n=62 v=104
40022 On ch=7 n=65 v=90
40028 On ch=7 n=65 v=0
40032 On ch=7 n=62 v=0
40051 On ch=7 n=70 v=61
40052 On ch=7 n=62 v=64
40052 On ch=7 n=65 v=70
40061 On ch=7 n=62 v=0
40065 On ch=7 n=65 v=0
40068 On ch=7 n=70 v=0
40082 On ch=7 n=62 v=83
40082 On ch=7 n=67 v=86
40082 On ch=7 n=59 v=85
40169 On ch=7 n=59 v=0
40169 On ch=7 n=67 v=0
40186 On ch=7 n=62 v=0
40200 On ch=7 n=64 v=69
40200 On ch=7 n=55 v=79
40200 On ch=7 n=60 v=79
40289 On ch=7 n=55 v=0
40293 On ch=7 n=60 v=0
40298 On ch=7 n=64 v=0
40318 On ch=7 n=65 v=76
40318 On ch=7 n=60 v=79
40319 On ch=7 n=57 v=67
40418 On ch=7 n=57 v=0
40426 On ch=7 n=60 v=0
40430 On ch=7 n=65 v=0
40438 On ch=7 n=60 v=83
40438 On ch=7 n=64 v=79
40438 On ch=7 n=55 v=71
40533 On ch=7 n=55 v=0
40537 On ch=7 n=60 v=0
40541 On ch=7 n=64 v=0
40557 On ch=7 n=60 v=76
40557 On ch=7 n=57 v=72
40557 On ch=7 n=65 v=75
40565 Par ch=7 c=1 v=2
40565 Par ch=7 c=1 v=5
40565 Par ch=7 c=1 v=9
40565 Par ch=7 c=1 v=13
40565 Par ch=7 c=1 v=17
40565 Par ch=7 c=1 v=20
40565 Par ch=7 c=1 v=23
40565 Par ch=7 c=1 v=26
40565 Par ch=7 c=1 v=29
40565 Par ch=7 c=1 v=32
40565 Par ch=7 c=1 v=35
40565 Par ch=7 c=1 v=38
40565 Par ch=7 c=1 v=41
40565 Par ch=7 c=1 v=44
40565 Par ch=7 c=1 v=47
40565 Par ch=7 c=1 v=50
40565 Par ch=7 c=1 v=52
40565 Par ch=7 c=1 v=55
40565 Par ch=7 c=1 v=57
40565 Par ch=7 c=1 v=60
40565 Par ch=7 c=1 v=62
40565 Par ch=7 c=1 v=64
40565 Par ch=7 c=1 v=66
40565 Par ch=7 c=1 v=68
40565 Par ch=7 c=1 v=70
40565 Par ch=7 c=1 v=72
40565 Par ch=7 c=1 v=74
40565 Par ch=7 c=1 v=75
40565 Par ch=7 c=1 v=77
40565 Par ch=7 c=1 v=79
40565 Par ch=7 c=1 v=80
40565 Par ch=7 c=1 v=81
40565 Par ch=7 c=1 v=83
40565 Par ch=7 c=1 v=84
40565 Par ch=7 c=1 v=85
40565 Par ch=7 c=1 v=86
40565 Par ch=7 c=1 v=88
40565 Par ch=7 c=1 v=89
40565 Par ch=7 c=1 v=90
40565 Par ch=7 c=1 v=91
40572 Par ch=7 c=1 v=92
40572 Par ch=7 c=1 v=93
40576 Par ch=7 c=1 v=94
40576 Par ch=7 c=1 v=95
40576 Par ch=7 c=1 v=96
40587 Par ch=7 c=1 v=97
40587 Par ch=7 c=1 v=98
40587 Par ch=7 c=1 v=99
40587 Par ch=7 c=1 v=100
40591 Par ch=7 c=1 v=101
40591 Par ch=7 c=1 v=102
40591 Par ch=7 c=1 v=103
40596 Par ch=7 c=1 v=104
40596 Par ch=7 c=1 v=105
40600 Par ch=7 c=1 v=106
40604 Par ch=7 c=1 v=107
40611 Par ch=7 c=1 v=108
40611 Par ch=7 c=1 v=109
40615 Par ch=7 c=1 v=110
40619 Par ch=7 c=1 v=111
40624 Par ch=7 c=1 v=112
40624 Par ch=7 c=1 v=113
40628 Par ch=7 c=1 v=114
40630 Par ch=7 c=1 v=115
40635 Par ch=7 c=1 v=116
40635 Par ch=7 c=1 v=117
40639 Par ch=7 c=1 v=118
40645 Par ch=7 c=1 v=117
40645 Par ch=7 c=1 v=116
40648 Par ch=7 c=1 v=115
40650 Par ch=7 c=1 v=114
40650 Par ch=7 c=1 v=113
40650 Par ch=7 c=1 v=112
40650 Par ch=7 c=1 v=111
40650 Par ch=7 c=1 v=110
40654 On ch=7 n=57 v=0
40654 Par ch=7 c=1 v=109
40654 Par ch=7 c=1 v=107
40654 Par ch=7 c=1 v=105
40654 Par ch=7 c=1 v=103
40654 Par ch=7 c=1 v=101
40654 Par ch=7 c=1 v=99
40654 Par ch=7 c=1 v=97
40654 Par ch=7 c=1 v=95
40654 Par ch=7 c=1 v=92
40658 Par ch=7 c=1 v=89
40658 Par ch=7 c=1 v=86
40658 Par ch=7 c=1 v=83
40658 Par ch=7 c=1 v=80
40658 Par ch=7 c=1 v=76
40658 Par ch=7 c=1 v=73
40658 Par ch=7 c=1 v=69
40658 Par ch=7 c=1 v=65
40658 Par ch=7 c=1 v=61
40663 On ch=7 n=60 v=0
40663 Par ch=7 c=1 v=56
40663 Par ch=7 c=1 v=52
40663 Par ch=7 c=1 v=47
40663 Par ch=7 c=1 v=42
40663 Par ch=7 c=1 v=38
40663 Par ch=7 c=1 v=33
40663 Par ch=7 c=1 v=28
40663 Par ch=7 c=1 v=23
40663 Par ch=7 c=1 v=18
40667 Par ch=7 c=1 v=13
40667 Par ch=7 c=1 v=8
40667 Par ch=7 c=1 v=3
40667 Par ch=7 c=1 v=0
40677 On ch=7 n=64 v=68
40677 On ch=7 n=60 v=70
40678 On ch=7 n=65 v=0
40678 On ch=7 n=55 v=73
40720 On ch=7 n=60 v=0
40738 On ch=7 n=64 v=0
40739 On ch=7 n=62 v=83
40739 On ch=7 n=59 v=85
40793 On ch=7 n=55 v=0
40801 Par ch=7 c=1 v=1
40801 Par ch=7 c=1 v=2
40801 Par ch=7 c=1 v=4
40801 Par ch=7 c=1 v=5
40801 Par ch=7 c=1 v=6
40805 Par ch=7 c=1 v=8
40805 Par ch=7 c=1 v=10
40805 Par ch=7 c=1 v=11
40805 Par ch=7 c=1 v=12
40805 Par ch=7 c=1 v=14
40805 Par ch=7 c=1 v=15
40805 Par ch=7 c=1 v=17
40805 Par ch=7 c=1 v=18
40805 Par ch=7 c=1 v=19
40810 Par ch=7 c=1 v=20
40810 Par ch=7 c=1 v=22
40810 Par ch=7 c=1 v=23
40810 Par ch=7 c=1 v=24
40810 Par ch=7 c=1 v=25
40810 Par ch=7 c=1 v=26
40810 Par ch=7 c=1 v=27
40810 Par ch=7 c=1 v=28
40810 Par ch=7 c=1 v=29
40814 Par ch=7 c=1 v=30
40814 Par ch=7 c=1 v=31
40814 Par ch=7 c=1 v=32
40814 Par ch=7 c=1 v=33
40814 Par ch=7 c=1 v=34
40814 Par ch=7 c=1 v=35
40814 Par ch=7 c=1 v=36
40814 Par ch=7 c=1 v=37
40818 Par ch=7 c=1 v=38
40818 Par ch=7 c=1 v=39
40818 Par ch=7 c=1 v=40
40818 Par ch=7 c=1 v=41
40818 Par ch=7 c=1 v=42
40818 Par ch=7 c=1 v=43
40818 Par ch=7 c=1 v=44
40818 Par ch=7 c=1 v=45
40818 Par ch=7 c=1 v=46
40825 Par ch=7 c=1 v=47
40825 Par ch=7 c=1 v=48
40825 Par ch=7 c=1 v=49
40825 Par ch=7 c=1 v=50
40829 Par ch=7 c=1 v=51
40829 Par ch=7 c=1 v=52
40829 Par ch=7 c=1 v=53
40829 Par ch=7 c=1 v=54
40829 Par ch=7 c=1 v=55
40829 Par ch=7 c=1 v=56
40833 Par ch=7 c=1 v=57
40833 Par ch=7 c=1 v=58
40833 Par ch=7 c=1 v=59
40833 Par ch=7 c=1 v=60
40833 Par ch=7 c=1 v=61
40833 Par ch=7 c=1 v=62
40833 Par ch=7 c=1 v=63
40838 Par ch=7 c=1 v=64
40838 Par ch=7 c=1 v=65
40838 Par ch=7 c=1 v=66
40838 Par ch=7 c=1 v=67
40838 Par ch=7 c=1 v=68
40838 Par ch=7 c=1 v=69
40838 Par ch=7 c=1 v=70
40842 Par ch=7 c=1 v=71
40842 Par ch=7 c=1 v=72
40844 Par ch=7 c=1 v=73
40844 Par ch=7 c=1 v=74
40848 Par ch=7 c=1 v=75
40848 Par ch=7 c=1 v=76
40853 Par ch=7 c=1 v=77
40853 Par ch=7 c=1 v=78
40857 Par ch=7 c=1 v=79
40858 On ch=7 n=55 v=70
40859 Par ch=7 c=1 v=80
40864 Par ch=7 c=1 v=81
40864 Par ch=7 c=1 v=82
40868 Par ch=7 c=1 v=83
40872 Par ch=7 c=1 v=84
40877 Par ch=7 c=1 v=85
40877 Par ch=7 c=1 v=86
40881 Par ch=7 c=1 v=87
40881 Par ch=7 c=1 v=88
40887 Par ch=7 c=1 v=89
40892 Par ch=7 c=1 v=90
40894 Par ch=7 c=1 v=89
40898 Par ch=7 c=1 v=88
40898 Par ch=7 c=1 v=87
40898 Par ch=7 c=1 v=86
40898 Par ch=7 c=1 v=85
40898 Par ch=7 c=1 v=84
40898 Par ch=7 c=1 v=82
40902 Par ch=7 c=1 v=81
40902 Par ch=7 c=1 v=79
40902 Par ch=7 c=1 v=77
40902 Par ch=7 c=1 v=75
40902 Par ch=7 c=1 v=73
40902 Par ch=7 c=1 v=70
40902 Par ch=7 c=1 v=68
40902 Par ch=7 c=1 v=65
40902 Par ch=7 c=1 v=61
40907 Par ch=7 c=1 v=58
40907 Par ch=7 c=1 v=54
40907 Par ch=7 c=1 v=50
40907 Par ch=7 c=1 v=46
40907 Par ch=7 c=1 v=41
40907 Par ch=7 c=1 v=35
40907 Par ch=7 c=1 v=29
40907 Par ch=7 c=1 v=23
40907 Par ch=7 c=1 v=15
40911 Par ch=7 c=1 v=6
40911 Par ch=7 c=1 v=0
40959 On ch=7 n=55 v=0
40962 On ch=7 n=59 v=0
40962 On ch=7 n=62 v=0
40980 On ch=7 n=59 v=65
40980 On ch=7 n=67 v=69
40980 On ch=7 n=62 v=70
40991 On ch=7 n=62 v=0
40993 On ch=7 n=67 v=0
40993 On ch=7 n=59 v=0
41010 On ch=7 n=67 v=64
41010 On ch=7 n=59 v=72
41010 On ch=7 n=62 v=79
41023 On ch=7 n=62 v=0
41023 On ch=7 n=59 v=0
41028 On ch=7 n=67 v=0
41041 On ch=7 n=67 v=74
41041 On ch=7 n=59 v=83
41041 On ch=7 n=62 v=90
41095 Par ch=7 c=1 v=1
41095 Par ch=7 c=1 v=4
41097 Par ch=7 c=1 v=6
41097 Par ch=7 c=1 v=9
41097 Par ch=7 c=1 v=12
41097 Par ch=7 c=1 v=15
41101 Par ch=7 c=1 v=18
41101 Par ch=7 c=1 v=20
41101 Par ch=7 c=1 v=23
41101 Par ch=7 c=1 v=25
41101 Par ch=7 c=1 v=27
41101 Par ch=7 c=1 v=30
41101 Par ch=7 c=1 v=32
41101 Par ch=7 c=1 v=34
41101 Par ch=7 c=1 v=37
41105 Par ch=7 c=1 v=39
41105 Par ch=7 c=1 v=41
41105 Par ch=7 c=1 v=43
41105 Par ch=7 c=1 v=45
41105 Par ch=7 c=1 v=47
41105 Par ch=7 c=1 v=49
41105 Par ch=7 c=1 v=50
41105 Par ch=7 c=1 v=52
41105 Par ch=7 c=1 v=54
41110 Par ch=7 c=1 v=55
41110 Par ch=7 c=1 v=56
41110 Par ch=7 c=1 v=58
41110 Par ch=7 c=1 v=59
41110 Par ch=7 c=1 v=60
41110 Par ch=7 c=1 v=62
41110 Par ch=7 c=1 v=63
41110 Par ch=7 c=1 v=64
41110 Par ch=7 c=1 v=65
41114 Par ch=7 c=1 v=66
41114 Par ch=7 c=1 v=67
41114 Par ch=7 c=1 v=68
41114 Par ch=7 c=1 v=69
41114 Par ch=7 c=1 v=70
41114 Par ch=7 c=1 v=71
41114 Par ch=7 c=1 v=72
41114 Par ch=7 c=1 v=73
41118 Par ch=7 c=1 v=74
41125 Par ch=7 c=1 v=75
41129 On ch=7 n=59 v=0
41129 Par ch=7 c=1 v=76
41134 Par ch=7 c=1 v=77
41138 Par ch=7 c=1 v=78
41142 On ch=7 n=67 v=0
41142 Par ch=7 c=1 v=77
41142 Par ch=7 c=1 v=76
41142 Par ch=7 c=1 v=75
41142 Par ch=7 c=1 v=74
41142 Par ch=7 c=1 v=73
41142 Par ch=7 c=1 v=72
41142 Par ch=7 c=1 v=70
41142 Par ch=7 c=1 v=69
41142 Par ch=7 c=1 v=67
41142 Par ch=7 c=1 v=65
41142 Par ch=7 c=1 v=64
41142 Par ch=7 c=1 v=62
41142 Par ch=7 c=1 v=59
41142 Par ch=7 c=1 v=57
41147 On ch=7 n=62 v=0
41147 Par ch=7 c=1 v=54
41147 Par ch=7 c=1 v=51
41147 Par ch=7 c=1 v=48
41147 Par ch=7 c=1 v=44
41147 Par ch=7 c=1 v=40
41147 Par ch=7 c=1 v=37
41147 Par ch=7 c=1 v=32
41147 Par ch=7 c=1 v=28
41147 Par ch=7 c=1 v=24
41151 Par ch=7 c=1 v=19
41151 Par ch=7 c=1 v=15
41151 Par ch=7 c=1 v=11
41155 Par ch=7 c=1 v=6
41155 Par ch=7 c=1 v=2
41155 Par ch=7 c=1 v=0
41159 On ch=7 n=60 v=75
41159 On ch=7 n=64 v=65
41159 On ch=7 n=55 v=93
41259 On ch=7 n=55 v=0
41267 On ch=7 n=60 v=0
41272 On ch=7 n=64 v=0
41280 On ch=7 n=60 v=79
41280 On ch=7 n=65 v=76
41280 On ch=7 n=57 v=74
41375 On ch=7 n=57 v=0
41380 On ch=7 n=65 v=0
41380 On ch=7 n=60 v=0
41398 On ch=7 n=60 v=65
41398 On ch=7 n=67 v=79
41399 On ch=7 n=64 v=76
41435 On ch=7 n=67 v=0
41442 On ch=7 n=64 v=0
41452 On ch=7 n=60 v=0
41460 On ch=7 n=65 v=84
41461 On ch=7 n=70 v=85
41462 On ch=7 n=62 v=86
41537 Par ch=7 c=1 v=1
41537 Par ch=7 c=1 v=3
41537 Par ch=7 c=1 v=5
41542 Par ch=7 c=1 v=7
41542 Par ch=7 c=1 v=9
41542 Par ch=7 c=1 v=12
41542 Par ch=7 c=1 v=14
41542 Par ch=7 c=1 v=16
41542 Par ch=7 c=1 v=18
41542 Par ch=7 c=1 v=21
41542 Par ch=7 c=1 v=23
41542 Par ch=7 c=1 v=25
41546 Par ch=7 c=1 v=27
41546 Par ch=7 c=1 v=29
41546 Par ch=7 c=1 v=31
41546 Par ch=7 c=1 v=34
41546 Par ch=7 c=1 v=35
41548 Par ch=7 c=1 v=38
41548 Par ch=7 c=1 v=39
41548 Par ch=7 c=1 v=41
41548 Par ch=7 c=1 v=43
41548 Par ch=7 c=1 v=45
41548 Par ch=7 c=1 v=47
41548 Par ch=7 c=1 v=48
41548 Par ch=7 c=1 v=50
41548 Par ch=7 c=1 v=51
41548 Par ch=7 c=1 v=53
41548 Par ch=7 c=1 v=55
41548 Par ch=7 c=1 v=56
41548 Par ch=7 c=1 v=57
41548 Par ch=7 c=1 v=58
41548 Par ch=7 c=1 v=60
41548 Par ch=7 c=1 v=61
41548 Par ch=7 c=1 v=62
41548 Par ch=7 c=1 v=63
41548 Par ch=7 c=1 v=64
41548 Par ch=7 c=1 v=65
41548 Par ch=7 c=1 v=66
41548 Par ch=7 c=1 v=68
41548 Par ch=7 c=1 v=69
41548 Par ch=7 c=1 v=70
41548 Par ch=7 c=1 v=71
41548 Par ch=7 c=1 v=72
41548 Par ch=7 c=1 v=73
41548 Par ch=7 c=1 v=74
41548 Par ch=7 c=1 v=75
41548 Par ch=7 c=1 v=76
41555 Par ch=7 c=1 v=77
41563 Par ch=7 c=1 v=78
41563 Par ch=7 c=1 v=79
41563 Par ch=7 c=1 v=80
41563 Par ch=7 c=1 v=81
41563 Par ch=7 c=1 v=82
41563 Par ch=7 c=1 v=83
41563 Par ch=7 c=1 v=84
41570 Par ch=7 c=1 v=85
41570 Par ch=7 c=1 v=86
41570 Par ch=7 c=1 v=87
41570 Par ch=7 c=1 v=88
41570 Par ch=7 c=1 v=89
41574 Par ch=7 c=1 v=90
41574 Par ch=7 c=1 v=91
41579 Par ch=7 c=1 v=92
41579 Par ch=7 c=1 v=93
41579 Par ch=7 c=1 v=94
41583 Par ch=7 c=1 v=95
41583 Par ch=7 c=1 v=96
41583 Par ch=7 c=1 v=97
41587 On ch=7 n=65 v=0
41587 Par ch=7 c=1 v=98
41587 Par ch=7 c=1 v=99
41587 Par ch=7 c=1 v=100
41591 Par ch=7 c=1 v=101
41591 Par ch=7 c=1 v=102
41591 Par ch=7 c=1 v=103
41591 Par ch=7 c=1 v=104
41596 Par ch=7 c=1 v=105
41596 Par ch=7 c=1 v=106
41596 Par ch=7 c=1 v=107
41596 Par ch=7 c=1 v=108
41596 Par ch=7 c=1 v=109
41596 Par ch=7 c=1 v=110
41600 Par ch=7 c=1 v=111
41600 Par ch=7 c=1 v=112
41600 Par ch=7 c=1 v=113
41600 Par ch=7 c=1 v=114
41600 Par ch=7 c=1 v=115
41600 Par ch=7 c=1 v=116
41604 Par ch=7 c=1 v=117
41604 Par ch=7 c=1 v=118
41604 Par ch=7 c=1 v=119
41604 Par ch=7 c=1 v=120
41604 Par ch=7 c=1 v=121
41605 On ch=7 n=62 v=0
41609 Par ch=7 c=1 v=122
41609 Par ch=7 c=1 v=123
41609 Par ch=7 c=1 v=124
41613 Par ch=7 c=1 v=123
41613 Par ch=7 c=1 v=122
41613 Par ch=7 c=1 v=121
41613 Par ch=7 c=1 v=120
41613 Par ch=7 c=1 v=119
41613 Par ch=7 c=1 v=118
41613 Par ch=7 c=1 v=116
41613 Par ch=7 c=1 v=115
41613 Par ch=7 c=1 v=113
41613 Par ch=7 c=1 v=112
41613 Par ch=7 c=1 v=110
41615 Par ch=7 c=1 v=108
41615 Par ch=7 c=1 v=106
41615 Par ch=7 c=1 v=103
41615 Par ch=7 c=1 v=101
41615 Par ch=7 c=1 v=98
41620 Par ch=7 c=1 v=95
41620 Par ch=7 c=1 v=92
41624 Par ch=7 c=1 v=90
41624 Par ch=7 c=1 v=86
41624 Par ch=7 c=1 v=83
41624 Par ch=7 c=1 v=79
41624 Par ch=7 c=1 v=76
41624 Par ch=7 c=1 v=72
41624 Par ch=7 c=1 v=68
41624 Par ch=7 c=1 v=64
41624 Par ch=7 c=1 v=60
41624 Par ch=7 c=1 v=56
41624 Par ch=7 c=1 v=52
41628 Par ch=7 c=1 v=47
41628 Par ch=7 c=1 v=43
41629 On ch=7 n=70 v=0
41630 Par ch=7 c=1 v=38
41630 Par ch=7 c=1 v=34
41630 Par ch=7 c=1 v=29
41630 Par ch=7 c=1 v=24
41630 Par ch=7 c=1 v=19
41630 Par ch=7 c=1 v=15
41630 Par ch=7 c=1 v=10
41630 Par ch=7 c=1 v=4
41630 Par ch=7 c=1 v=0
41637 On ch=7 n=58 v=87
41637 On ch=7 n=62 v=70
41639 On ch=7 n=65 v=59
41691 On ch=7 n=58 v=0
41699 On ch=7 n=59 v=67
41701 On ch=7 n=67 v=81
41702 On ch=7 n=65 v=0
41779 Par ch=7 c=1 v=1
41782 Par ch=7 c=1 v=3
41782 Par ch=7 c=1 v=5
41782 Par ch=7 c=1 v=7
41782 Par ch=7 c=1 v=9
41782 Par ch=7 c=1 v=12
41786 Par ch=7 c=1 v=13
41786 Par ch=7 c=1 v=15
41786 Par ch=7 c=1 v=17
41786 Par ch=7 c=1 v=19
41786 Par ch=7 c=1 v=21
41786 Par ch=7 c=1 v=23
41786 Par ch=7 c=1 v=25
41786 Par ch=7 c=1 v=26
41786 Par ch=7 c=1 v=28
41790 Par ch=7 c=1 v=29
41790 Par ch=7 c=1 v=31
41790 Par ch=7 c=1 v=33
41790 Par ch=7 c=1 v=34
41790 Par ch=7 c=1 v=36
41790 Par ch=7 c=1 v=38
41790 Par ch=7 c=1 v=39
41790 Par ch=7 c=1 v=41
41790 Par ch=7 c=1 v=43
41795 Par ch=7 c=1 v=44
41795 Par ch=7 c=1 v=46
41795 Par ch=7 c=1 v=48
41795 Par ch=7 c=1 v=49
41795 Par ch=7 c=1 v=50
41795 Par ch=7 c=1 v=52
41795 Par ch=7 c=1 v=53
41795 Par ch=7 c=1 v=55
41795 Par ch=7 c=1 v=56
41798 On ch=7 n=67 v=0
41799 Par ch=7 c=1 v=57
41799 Par ch=7 c=1 v=58
41799 Par ch=7 c=1 v=60
41799 Par ch=7 c=1 v=61
41799 Par ch=7 c=1 v=62
41799 Par ch=7 c=1 v=63
41799 Par ch=7 c=1 v=65
41799 Par ch=7 c=1 v=66
41801 On ch=7 n=59 v=0
41803 Par ch=7 c=1 v=67
41803 Par ch=7 c=1 v=68
41803 Par ch=7 c=1 v=69
41803 Par ch=7 c=1 v=70
41803 Par ch=7 c=1 v=72
41803 Par ch=7 c=1 v=73
41803 Par ch=7 c=1 v=74
41803 Par ch=7 c=1 v=75
41803 Par ch=7 c=1 v=76
41807 Par ch=7 c=1 v=77
41807 Par ch=7 c=1 v=78
41807 Par ch=7 c=1 v=79
41807 Par ch=7 c=1 v=80
41807 Par ch=7 c=1 v=81
41807 Par ch=7 c=1 v=82
41807 Par ch=7 c=1 v=83
41807 Par ch=7 c=1 v=84
41810 On ch=7 n=62 v=0
41812 Par ch=7 c=1 v=85
41812 Par ch=7 c=1 v=86
41812 Par ch=7 c=1 v=87
41812 Par ch=7 c=1 v=88
41812 Par ch=7 c=1 v=89
41812 Par ch=7 c=1 v=90
41816 Par ch=7 c=1 v=93
41816 Par ch=7 c=1 v=94
41816 Par ch=7 c=1 v=95
41816 Par ch=7 c=1 v=91
41816 Par ch=7 c=1 v=92
41819 On ch=7 n=67 v=87
41819 On ch=7 n=59 v=76
41819 On ch=7 n=62 v=86
41820 Par ch=7 c=1 v=96
41831 Par ch=7 c=1 v=95
41833 Par ch=7 c=1 v=94
41833 Par ch=7 c=1 v=93
41836 Par ch=7 c=1 v=92
41838 Par ch=7 c=1 v=91
41838 Par ch=7 c=1 v=90
41838 Par ch=7 c=1 v=89
41838 Par ch=7 c=1 v=88
41842 Par ch=7 c=1 v=87
41842 Par ch=7 c=1 v=86
41842 Par ch=7 c=1 v=85
41842 Par ch=7 c=1 v=84
41846 Par ch=7 c=1 v=83
41846 Par ch=7 c=1 v=82
41846 Par ch=7 c=1 v=81
41846 Par ch=7 c=1 v=80
41846 Par ch=7 c=1 v=79
41846 Par ch=7 c=1 v=77
41846 Par ch=7 c=1 v=76
41846 Par ch=7 c=1 v=74
41846 Par ch=7 c=1 v=72
41849 On ch=7 n=59 v=0
41851 Par ch=7 c=1 v=71
41851 Par ch=7 c=1 v=69
41851 Par ch=7 c=1 v=67
41851 Par ch=7 c=1 v=65
41851 Par ch=7 c=1 v=63
41851 Par ch=7 c=1 v=60
41851 Par ch=7 c=1 v=57
41851 Par ch=7 c=1 v=55
41851 Par ch=7 c=1 v=52
41855 Par ch=7 c=1 v=49
41855 Par ch=7 c=1 v=45
41855 Par ch=7 c=1 v=42
41855 Par ch=7 c=1 v=38
41855 Par ch=7 c=1 v=34
41855 Par ch=7 c=1 v=30
41855 Par ch=7 c=1 v=26
41855 Par ch=7 c=1 v=21
41855 Par ch=7 c=1 v=17
41858 On ch=7 n=67 v=0
41859 Par ch=7 c=1 v=13
41859 Par ch=7 c=1 v=9
41859 Par ch=7 c=1 v=4
41859 Par ch=7 c=1 v=0
41869 On ch=7 n=62 v=0
41878 On ch=7 n=60 v=75
41878 On ch=7 n=64 v=71
41879 On ch=7 n=55 v=87
41956 On ch=7 n=55 v=0
41967 On ch=7 n=60 v=0
41973 On ch=7 n=64 v=0
41998 On ch=7 n=57 v=81
41998 On ch=7 n=65 v=81
41998 On ch=7 n=60 v=86
42056 Par ch=7 c=1 v=1
42056 Par ch=7 c=1 v=4
42056 Par ch=7 c=1 v=7
42056 Par ch=7 c=1 v=10
42056 Par ch=7 c=1 v=12
42060 Par ch=7 c=1 v=15
42060 Par ch=7 c=1 v=18
42060 Par ch=7 c=1 v=20
42060 Par ch=7 c=1 v=23
42060 Par ch=7 c=1 v=26
42060 Par ch=7 c=1 v=28
42060 Par ch=7 c=1 v=31
42060 Par ch=7 c=1 v=33
42060 Par ch=7 c=1 v=36
42065 Par ch=7 c=1 v=38
42065 Par ch=7 c=1 v=41
42065 Par ch=7 c=1 v=43
42065 Par ch=7 c=1 v=45
42065 Par ch=7 c=1 v=48
42065 Par ch=7 c=1 v=50
42065 Par ch=7 c=1 v=52
42065 Par ch=7 c=1 v=54
42065 Par ch=7 c=1 v=56
42069 Par ch=7 c=1 v=57
42069 Par ch=7 c=1 v=59
42069 Par ch=7 c=1 v=61
42069 Par ch=7 c=1 v=63
42069 Par ch=7 c=1 v=65
42069 Par ch=7 c=1 v=66
42069 Par ch=7 c=1 v=68
42069 Par ch=7 c=1 v=69
42069 Par ch=7 c=1 v=71
42073 Par ch=7 c=1 v=72
42073 Par ch=7 c=1 v=74
42073 Par ch=7 c=1 v=75
42073 Par ch=7 c=1 v=77
42073 Par ch=7 c=1 v=78
42073 Par ch=7 c=1 v=79
42073 Par ch=7 c=1 v=81
42073 Par ch=7 c=1 v=82
42073 Par ch=7 c=1 v=83
42077 Par ch=7 c=1 v=84
42077 Par ch=7 c=1 v=86
42077 Par ch=7 c=1 v=87
42077 Par ch=7 c=1 v=88
42077 Par ch=7 c=1 v=89
42077 Par ch=7 c=1 v=90
42077 Par ch=7 c=1 v=91
42077 Par ch=7 c=1 v=92
42077 Par ch=7 c=1 v=93
42077 Par ch=7 c=1 v=94
42077 Par ch=7 c=1 v=95
42084 Par ch=7 c=1 v=96
42084 Par ch=7 c=1 v=97
42086 Par ch=7 c=1 v=98
42086 Par ch=7 c=1 v=99
42088 Par ch=7 c=1 v=100
42093 On ch=7 n=57 v=0
42093 Par ch=7 c=1 v=101
42103 Par ch=7 c=1 v=100
42103 Par ch=7 c=1 v=99
42103 Par ch=7 c=1 v=98
42103 Par ch=7 c=1 v=97
42104 On ch=7 n=60 v=0
42108 Par ch=7 c=1 v=96
42108 Par ch=7 c=1 v=95
42108 Par ch=7 c=1 v=94
42108 Par ch=7 c=1 v=92
42108 Par ch=7 c=1 v=91
42108 Par ch=7 c=1 v=89
42108 Par ch=7 c=1 v=88
42108 Par ch=7 c=1 v=86
42108 Par ch=7 c=1 v=84
42112 Par ch=7 c=1 v=82
42112 Par ch=7 c=1 v=14
42112 Par ch=7 c=1 v=9
42112 Par ch=7 c=1 v=80
42112 Par ch=7 c=1 v=77
42112 Par ch=7 c=1 v=75
42112 Par ch=7 c=1 v=72
42112 Par ch=7 c=1 v=69
42112 Par ch=7 c=1 v=66
42112 Par ch=7 c=1 v=63
42112 Par ch=7 c=1 v=60
42112 Par ch=7 c=1 v=56
42112 Par ch=7 c=1 v=34
42112 Par ch=7 c=1 v=52
42112 Par ch=7 c=1 v=48
42112 Par ch=7 c=1 v=44
42112 Par ch=7 c=1 v=39
42112 Par ch=7 c=1 v=24
42112 Par ch=7 c=1 v=29
42112 Par ch=7 c=1 v=4
42112 Par ch=7 c=1 v=19
42112 Par ch=7 c=1 v=0
42113 On ch=7 n=65 v=0
42118 On ch=7 n=55 v=72
42118 On ch=7 n=60 v=59
42118 On ch=7 n=64 v=72
42168 On ch=7 n=55 v=0
42172 On ch=7 n=60 v=0
42176 On ch=7 n=64 v=0
42179 On ch=7 n=60 v=83
42179 On ch=7 n=57 v=81
42179 On ch=7 n=65 v=83
42224 Par ch=7 c=1 v=1
42224 Par ch=7 c=1 v=3
42229 Par ch=7 c=1 v=5
42229 Par ch=7 c=1 v=8
42229 Par ch=7 c=1 v=10
42229 Par ch=7 c=1 v=12
42229 Par ch=7 c=1 v=14
42229 Par ch=7 c=1 v=16
42229 Par ch=7 c=1 v=18
42229 Par ch=7 c=1 v=20
42229 Par ch=7 c=1 v=22
42233 Par ch=7 c=1 v=24
42233 Par ch=7 c=1 v=25
42233 Par ch=7 c=1 v=27
42233 Par ch=7 c=1 v=29
42233 Par ch=7 c=1 v=30
42233 Par ch=7 c=1 v=32
42233 Par ch=7 c=1 v=33
42233 Par ch=7 c=1 v=34
42233 Par ch=7 c=1 v=35
42235 On ch=7 n=57 v=0
42237 Par ch=7 c=1 v=37
42237 Par ch=7 c=1 v=38
42237 Par ch=7 c=1 v=39
42237 Par ch=7 c=1 v=40
42237 Par ch=7 c=1 v=41
42237 Par ch=7 c=1 v=42
42237 Par ch=7 c=1 v=43
42237 Par ch=7 c=1 v=44
42242 Par ch=7 c=1 v=45
42242 Par ch=7 c=1 v=46
42242 Par ch=7 c=1 v=47
42242 Par ch=7 c=1 v=48
42242 Par ch=7 c=1 v=49
42242 Par ch=7 c=1 v=50
42242 Par ch=7 c=1 v=51
42246 Par ch=7 c=1 v=52
42246 Par ch=7 c=1 v=53
42246 Par ch=7 c=1 v=54
42246 Par ch=7 c=1 v=55
42246 Par ch=7 c=1 v=56
42246 Par ch=7 c=1 v=57
42246 Par ch=7 c=1 v=58
42246 Par ch=7 c=1 v=59
42250 Par ch=7 c=1 v=60
42250 Par ch=7 c=1 v=61
42250 Par ch=7 c=1 v=62
42250 Par ch=7 c=1 v=63
42250 Par ch=7 c=1 v=64
42250 Par ch=7 c=1 v=65
42255 Par ch=7 c=1 v=66
42255 Par ch=7 c=1 v=67
42259 Par ch=7 c=1 v=68
42263 Par ch=7 c=1 v=69
42270 Par ch=7 c=1 v=70
42274 Par ch=7 c=1 v=71
42276 Par ch=7 c=1 v=72
42278 On ch=7 n=65 v=0
42281 Par ch=7 c=1 v=73
42283 On ch=7 n=60 v=0
42287 Par ch=7 c=1 v=72
42287 Par ch=7 c=1 v=71
42287 Par ch=7 c=1 v=70
42291 Par ch=7 c=1 v=69
42291 Par ch=7 c=1 v=68
42291 Par ch=7 c=1 v=67
42291 Par ch=7 c=1 v=66
42291 Par ch=7 c=1 v=64
42291 Par ch=7 c=1 v=61
42291 Par ch=7 c=1 v=63
42291 Par ch=7 c=1 v=56
42291 Par ch=7 c=1 v=59
42296 Par ch=7 c=1 v=46
42296 Par ch=7 c=1 v=29
42296 Par ch=7 c=1 v=33
42296 Par ch=7 c=1 v=54
42296 Par ch=7 c=1 v=51
42296 Par ch=7 c=1 v=48
42296 Par ch=7 c=1 v=39
42296 Par ch=7 c=1 v=42
42296 Par ch=7 c=1 v=36
42297 On ch=7 n=60 v=68
42297 On ch=7 n=57 v=74
42297 On ch=7 n=65 v=87
42300 Par ch=7 c=1 v=26
42300 Par ch=7 c=1 v=22
42300 Par ch=7 c=1 v=18
42300 Par ch=7 c=1 v=14
42300 Par ch=7 c=1 v=9
42300 Par ch=7 c=1 v=4
42300 Par ch=7 c=1 v=1
42315 Par ch=7 c=1 v=0
42343 On ch=7 n=57 v=0
42356 On ch=7 n=60 v=0
42360 On ch=7 n=60 v=59
42360 On ch=7 n=64 v=67
42361 On ch=7 n=55 v=74
42373 On ch=7 n=65 v=0
42397 On ch=7 n=60 v=0
42410 On ch=7 n=55 v=0
42419 On ch=7 n=55 v=55
42419 On ch=7 n=62 v=83
42421 On ch=7 n=59 v=86
42427 On ch=7 n=64 v=0
42462 Par ch=7 c=1 v=1
42462 Par ch=7 c=1 v=3
42462 Par ch=7 c=1 v=6
42462 Par ch=7 c=1 v=8
42462 Par ch=7 c=1 v=11
42466 Par ch=7 c=1 v=13
42466 Par ch=7 c=1 v=15
42466 Par ch=7 c=1 v=17
42466 Par ch=7 c=1 v=19
42466 Par ch=7 c=1 v=21
42466 Par ch=7 c=1 v=23
42466 Par ch=7 c=1 v=25
42466 Par ch=7 c=1 v=26
42466 Par ch=7 c=1 v=28
42471 On ch=7 n=55 v=0
42471 Par ch=7 c=1 v=29
42471 Par ch=7 c=1 v=30
42471 Par ch=7 c=1 v=32
42471 Par ch=7 c=1 v=33
42471 Par ch=7 c=1 v=34
42471 Par ch=7 c=1 v=35
42471 Par ch=7 c=1 v=36
42471 Par ch=7 c=1 v=37
42471 Par ch=7 c=1 v=38
42471 Par ch=7 c=1 v=39
42475 Par ch=7 c=1 v=40
42484 Par ch=7 c=1 v=39
42484 Par ch=7 c=1 v=38
42486 Par ch=7 c=1 v=37
42486 Par ch=7 c=1 v=36
42486 Par ch=7 c=1 v=35
42486 Par ch=7 c=1 v=34
42486 Par ch=7 c=1 v=33
42486 Par ch=7 c=1 v=32
42490 Par ch=7 c=1 v=31
42490 Par ch=7 c=1 v=30
42490 Par ch=7 c=1 v=29
42490 Par ch=7 c=1 v=28
42490 Par ch=7 c=1 v=27
42494 Par ch=7 c=1 v=26
42494 Par ch=7 c=1 v=25
42494 Par ch=7 c=1 v=24
42499 Par ch=7 c=1 v=23
42499 Par ch=7 c=1 v=22
42499 Par ch=7 c=1 v=21
42499 Par ch=7 c=1 v=20
42499 Par ch=7 c=1 v=19
42499 Par ch=7 c=1 v=18
42499 Par ch=7 c=1 v=17
42499 Par ch=7 c=1 v=16
42505 Par ch=7 c=1 v=15
42512 Par ch=7 c=1 v=16
42516 Par ch=7 c=1 v=17
42516 Par ch=7 c=1 v=18
42516 Par ch=7 c=1 v=19
42520 Par ch=7 c=1 v=20
42520 Par ch=7 c=1 v=21
42520 Par ch=7 c=1 v=22
42520 Par ch=7 c=1 v=23
42525 Par ch=7 c=1 v=24
42525 Par ch=7 c=1 v=25
42525 Par ch=7 c=1 v=26
42525 Par ch=7 c=1 v=27
42525 Par ch=7 c=1 v=28
42525 Par ch=7 c=1 v=29
42525 Par ch=7 c=1 v=30
42525 Par ch=7 c=1 v=31
42525 Par ch=7 c=1 v=32
42531 Par ch=7 c=1 v=33
42531 Par ch=7 c=1 v=34
42531 Par ch=7 c=1 v=35
42531 Par ch=7 c=1 v=36
42531 Par ch=7 c=1 v=37
42531 Par ch=7 c=1 v=38
42537 On ch=7 n=55 v=67
42538 Par ch=7 c=1 v=39
42538 Par ch=7 c=1 v=40
42538 Par ch=7 c=1 v=41
42538 Par ch=7 c=1 v=42
42538 Par ch=7 c=1 v=43
42542 Par ch=7 c=1 v=44
42544 Par ch=7 c=1 v=45
42544 Par ch=7 c=1 v=46
42544 Par ch=7 c=1 v=47
42548 Par ch=7 c=1 v=48
42548 Par ch=7 c=1 v=49
42548 Par ch=7 c=1 v=50
42548 Par ch=7 c=1 v=51
42553 Par ch=7 c=1 v=52
42553 Par ch=7 c=1 v=53
42553 Par ch=7 c=1 v=54
42557 Par ch=7 c=1 v=55
42557 Par ch=7 c=1 v=56
42557 Par ch=7 c=1 v=57
42561 Par ch=7 c=1 v=58
42561 Par ch=7 c=1 v=59
42563 Par ch=7 c=1 v=60
42563 Par ch=7 c=1 v=61
42563 Par ch=7 c=1 v=62
42563 Par ch=7 c=1 v=63
42566 On ch=7 n=59 v=0
42568 Par ch=7 c=1 v=64
42568 Par ch=7 c=1 v=65
42568 Par ch=7 c=1 v=66
42568 Par ch=7 c=1 v=67
42568 Par ch=7 c=1 v=68
42568 Par ch=7 c=1 v=69
42568 Par ch=7 c=1 v=70
42568 Par ch=7 c=1 v=71
42574 Par ch=7 c=1 v=72
42574 Par ch=7 c=1 v=73
42579 On ch=7 n=62 v=0
42579 Par ch=7 c=1 v=74
42579 Par ch=7 c=1 v=75
42579 Par ch=7 c=1 v=76
42579 Par ch=7 c=1 v=77
42587 Par ch=7 c=1 v=76
42587 Par ch=7 c=1 v=75
42589 Par ch=7 c=1 v=74
42589 Par ch=7 c=1 v=73
42589 Par ch=7 c=1 v=72
42589 Par ch=7 c=1 v=70
42594 Par ch=7 c=1 v=50
42594 Par ch=7 c=1 v=69
42594 Par ch=7 c=1 v=67
42594 Par ch=7 c=1 v=65
42594 Par ch=7 c=1 v=53
42594 Par ch=7 c=1 v=63
42594 Par ch=7 c=1 v=61
42594 Par ch=7 c=1 v=59
42594 Par ch=7 c=1 v=56
42597 On ch=7 n=62 v=71
42598 On ch=7 n=59 v=79
42598 Par ch=7 c=1 v=47
42598 Par ch=7 c=1 v=43
42598 Par ch=7 c=1 v=39
42598 Par ch=7 c=1 v=34
42598 Par ch=7 c=1 v=29
42598 Par ch=7 c=1 v=24
42598 Par ch=7 c=1 v=19
42598 Par ch=7 c=1 v=13
42598 Par ch=7 c=1 v=7
42602 Par ch=7 c=1 v=1
42602 Par ch=7 c=1 v=0
42639 On ch=7 n=55 v=0
42647 On ch=7 n=59 v=0
42651 On ch=7 n=62 v=0
42658 On ch=7 n=59 v=76
42658 On ch=7 n=62 v=87
42658 On ch=7 n=67 v=95
42758 Par ch=7 c=1 v=1
42762 Par ch=7 c=1 v=2
42762 Par ch=7 c=1 v=3
42762 Par ch=7 c=1 v=4
42762 Par ch=7 c=1 v=5
42762 Par ch=7 c=1 v=6
42762 Par ch=7 c=1 v=7
42762 Par ch=7 c=1 v=8
42762 Par ch=7 c=1 v=9
42762 Par ch=7 c=1 v=10
42762 Par ch=7 c=1 v=11
42762 Par ch=7 c=1 v=12
42762 Par ch=7 c=1 v=13
42762 Par ch=7 c=1 v=14
42764 On ch=7 n=59 v=0
42764 Par ch=7 c=1 v=15
42766 On ch=7 n=67 v=0
42768 On ch=7 n=62 v=0
42769 Par ch=7 c=1 v=16
42769 Par ch=7 c=1 v=17
42769 Par ch=7 c=1 v=18
42769 Par ch=7 c=1 v=19
42773 Par ch=7 c=1 v=20
42773 Par ch=7 c=1 v=21
42773 Par ch=7 c=1 v=22
42773 Par ch=7 c=1 v=25
42773 Par ch=7 c=1 v=26
42773 Par ch=7 c=1 v=23
42773 Par ch=7 c=1 v=24
42777 Par ch=7 c=1 v=34
42777 Par ch=7 c=1 v=30
42777 Par ch=7 c=1 v=31
42777 Par ch=7 c=1 v=27
42777 Par ch=7 c=1 v=28
42777 Par ch=7 c=1 v=29
42777 Par ch=7 c=1 v=32
42777 Par ch=7 c=1 v=33
42778 On ch=7 n=59 v=73
42778 On ch=7 n=67 v=83
42778 On ch=7 n=62 v=87
42782 Par ch=7 c=1 v=35
42782 Par ch=7 c=1 v=36
42782 Par ch=7 c=1 v=38
42782 Par ch=7 c=1 v=39
42782 Par ch=7 c=1 v=40
42784 Par ch=7 c=1 v=41
42784 Par ch=7 c=1 v=42
42784 Par ch=7 c=1 v=44
42784 Par ch=7 c=1 v=45
42784 Par ch=7 c=1 v=46
42784 Par ch=7 c=1 v=48
42784 Par ch=7 c=1 v=49
42784 Par ch=7 c=1 v=50
42788 Par ch=7 c=1 v=51
42788 Par ch=7 c=1 v=52
42788 Par ch=7 c=1 v=53
42788 Par ch=7 c=1 v=55
42788 Par ch=7 c=1 v=56
42788 Par ch=7 c=1 v=57
42788 Par ch=7 c=1 v=58
42788 Par ch=7 c=1 v=59
42788 Par ch=7 c=1 v=60
42792 Par ch=7 c=1 v=61
42792 Par ch=7 c=1 v=62
42792 Par ch=7 c=1 v=63
42792 Par ch=7 c=1 v=64
42792 Par ch=7 c=1 v=65
42792 Par ch=7 c=1 v=66
42792 Par ch=7 c=1 v=67
42792 Par ch=7 c=1 v=68
42792 Par ch=7 c=1 v=69
42792 Par ch=7 c=1 v=70
42792 Par ch=7 c=1 v=71
42792 Par ch=7 c=1 v=72
42792 Par ch=7 c=1 v=73
42792 Par ch=7 c=1 v=74
42792 Par ch=7 c=1 v=75
42792 Par ch=7 c=1 v=76
42792 Par ch=7 c=1 v=77
42792 Par ch=7 c=1 v=78
42792 Par ch=7 c=1 v=79
42792 Par ch=7 c=1 v=80
42792 Par ch=7 c=1 v=81
42792 Par ch=7 c=1 v=82
42792 Par ch=7 c=1 v=83
42792 Par ch=7 c=1 v=84
42792 Par ch=7 c=1 v=85
42801 Par ch=7 c=1 v=86
42805 Par ch=7 c=1 v=87
42805 Par ch=7 c=1 v=88
42805 Par ch=7 c=1 v=89
42810 Par ch=7 c=1 v=90
42812 On ch=7 n=64 v=71
42814 Par ch=7 c=1 v=89
42815 On ch=7 n=59 v=0
42816 Par ch=7 c=1 v=87
42816 Par ch=7 c=1 v=88
42816 Par ch=7 c=1 v=85
42816 Par ch=7 c=1 v=84
42816 Par ch=7 c=1 v=83
42816 Par ch=7 c=1 v=81
42816 Par ch=7 c=1 v=80
42816 Par ch=7 c=1 v=78
42816 Par ch=7 c=1 v=76
42816 Par ch=7 c=1 v=74
42816 Par ch=7 c=1 v=72
42816 Par ch=7 c=1 v=86
42816 Par ch=7 c=1 v=67
42816 Par ch=7 c=1 v=64
42816 Par ch=7 c=1 v=62
42816 Par ch=7 c=1 v=58
42816 Par ch=7 c=1 v=55
42816 Par ch=7 c=1 v=52
42816 Par ch=7 c=1 v=48
42816 Par ch=7 c=1 v=45
42816 Par ch=7 c=1 v=41
42816 Par ch=7 c=1 v=37
42816 Par ch=7 c=1 v=34
42816 Par ch=7 c=1 v=29
42816 Par ch=7 c=1 v=25
42816 Par ch=7 c=1 v=21
42816 Par ch=7 c=1 v=17
42816 Par ch=7 c=1 v=13
42816 Par ch=7 c=1 v=8
42816 Par ch=7 c=1 v=3
42816 Par ch=7 c=1 v=0
42816 Par ch=7 c=1 v=69
42821 On ch=7 n=67 v=0
42821 On ch=7 n=62 v=0
42839 On ch=7 n=60 v=74
42839 On ch=7 n=55 v=85
42927 On ch=7 n=55 v=0
42937 On ch=7 n=64 v=0
42940 On ch=7 n=60 v=0
42959 On ch=7 n=60 v=86
42961 On ch=7 n=65 v=77
42961 On ch=7 n=57 v=79
43026 On ch=7 n=57 v=0
43056 On ch=7 n=60 v=0
43058 On ch=7 n=65 v=0
43077 On ch=7 n=64 v=76
43077 On ch=7 n=67 v=79
43078 On ch=7 n=60 v=74
43118 On ch=7 n=67 v=0
43131 On ch=7 n=64 v=0
43137 On ch=7 n=60 v=0
43139 On ch=7 n=62 v=77
43141 On ch=7 n=65 v=74
43141 On ch=7 n=70 v=81
43186 Par ch=7 c=1 v=1
43186 Par ch=7 c=1 v=5
43186 Par ch=7 c=1 v=9
43186 Par ch=7 c=1 v=13
43190 Par ch=7 c=1 v=16
43190 Par ch=7 c=1 v=19
43190 Par ch=7 c=1 v=22
43190 Par ch=7 c=1 v=25
43190 Par ch=7 c=1 v=27
43190 Par ch=7 c=1 v=29
43190 Par ch=7 c=1 v=32
43190 Par ch=7 c=1 v=34
43190 Par ch=7 c=1 v=37
43194 Par ch=7 c=1 v=39
43194 Par ch=7 c=1 v=41
43194 Par ch=7 c=1 v=43
43194 Par ch=7 c=1 v=45
43194 Par ch=7 c=1 v=48
43194 Par ch=7 c=1 v=49
43194 Par ch=7 c=1 v=51
43194 Par ch=7 c=1 v=52
43194 Par ch=7 c=1 v=54
43199 Par ch=7 c=1 v=55
43199 Par ch=7 c=1 v=56
43199 Par ch=7 c=1 v=57
43199 Par ch=7 c=1 v=58
43199 Par ch=7 c=1 v=59
43199 Par ch=7 c=1 v=60
43199 Par ch=7 c=1 v=61
43199 Par ch=7 c=1 v=62
43203 Par ch=7 c=1 v=63
43203 Par ch=7 c=1 v=64
43203 Par ch=7 c=1 v=65
43203 Par ch=7 c=1 v=66
43203 Par ch=7 c=1 v=67
43203 Par ch=7 c=1 v=68
43203 Par ch=7 c=1 v=69
43207 Par ch=7 c=1 v=70
43211 Par ch=7 c=1 v=69
43211 Par ch=7 c=1 v=68
43211 Par ch=7 c=1 v=67
43216 Par ch=7 c=1 v=66
43216 Par ch=7 c=1 v=65
43220 Par ch=7 c=1 v=64
43220 Par ch=7 c=1 v=63
43233 Par ch=7 c=1 v=64
43233 Par ch=7 c=1 v=65
43233 Par ch=7 c=1 v=66
43237 Par ch=7 c=1 v=67
43237 Par ch=7 c=1 v=68
43237 Par ch=7 c=1 v=69
43237 Par ch=7 c=1 v=70
43240 Par ch=7 c=1 v=71
43242 Par ch=7 c=1 v=72
43242 Par ch=7 c=1 v=73
43242 Par ch=7 c=1 v=74
43244 Par ch=7 c=1 v=75
43246 Par ch=7 c=1 v=76
43246 Par ch=7 c=1 v=77
43246 Par ch=7 c=1 v=78
43246 Par ch=7 c=1 v=79
43250 Par ch=7 c=1 v=80
43250 Par ch=7 c=1 v=81
43250 Par ch=7 c=1 v=82
43250 Par ch=7 c=1 v=83
43255 Par ch=7 c=1 v=84
43257 Par ch=7 c=1 v=85
43257 Par ch=7 c=1 v=86
43261 Par ch=7 c=1 v=87
43265 Par ch=7 c=1 v=88
43270 Par ch=7 c=1 v=89
43274 Par ch=7 c=1 v=90
43278 Par ch=7 c=1 v=91
43283 Par ch=7 c=1 v=92
43287 Par ch=7 c=1 v=93
43289 Par ch=7 c=1 v=94
43289 Par ch=7 c=1 v=95
43296 Par ch=7 c=1 v=96
43300 Par ch=7 c=1 v=97
43324 Par ch=7 c=1 v=96
43326 Par ch=7 c=1 v=95
43326 Par ch=7 c=1 v=94
43330 Par ch=7 c=1 v=93
43330 Par ch=7 c=1 v=92
43332 Par ch=7 c=1 v=91
43332 Par ch=7 c=1 v=90
43332 Par ch=7 c=1 v=89
43332 Par ch=7 c=1 v=88
43335 Par ch=7 c=1 v=87
43335 Par ch=7 c=1 v=86
43335 Par ch=7 c=1 v=85
43335 Par ch=7 c=1 v=84
43335 Par ch=7 c=1 v=83
43335 Par ch=7 c=1 v=81
43339 Par ch=7 c=1 v=80
43339 Par ch=7 c=1 v=79
43339 Par ch=7 c=1 v=77
43339 Par ch=7 c=1 v=75
43339 Par ch=7 c=1 v=74
43339 Par ch=7 c=1 v=72
43339 Par ch=7 c=1 v=70
43339 Par ch=7 c=1 v=68
43339 Par ch=7 c=1 v=65
43339 Par ch=7 c=1 v=63
43339 Par ch=7 c=1 v=60
43339 Par ch=7 c=1 v=58
43339 Par ch=7 c=1 v=55
43339 Par ch=7 c=1 v=52
43339 Par ch=7 c=1 v=49
43339 Par ch=7 c=1 v=45
43339 Par ch=7 c=1 v=41
43339 Par ch=7 c=1 v=38
43339 Par ch=7 c=1 v=33
43339 Par ch=7 c=1 v=29
43339 Par ch=7 c=1 v=25
43339 Par ch=7 c=1 v=20
43339 Par ch=7 c=1 v=16
43339 Par ch=7 c=1 v=11
43339 Par ch=7 c=1 v=6
43339 Par ch=7 c=1 v=2
43339 Par ch=7 c=1 v=0
43351 On ch=7 n=65 v=0
43357 On ch=7 n=62 v=0
43375 On ch=7 n=70 v=0
43379 On ch=7 n=62 v=74
43380 On ch=7 n=58 v=93
43380 On ch=7 n=65 v=73
43420 On ch=7 n=62 v=0
43421 On ch=7 n=58 v=0
43425 On ch=7 n=65 v=0
43439 On ch=7 n=59 v=73
43439 On ch=7 n=62 v=77
43439 On ch=7 n=67 v=79
43541 On ch=7 n=59 v=0
43545 On ch=7 n=67 v=0
43559 On ch=7 n=60 v=79
43559 On ch=7 n=64 v=65
43559 On ch=7 n=55 v=87
43562 On ch=7 n=62 v=0
43648 On ch=7 n=55 v=0
43667 On ch=7 n=64 v=0
43667 On ch=7 n=60 v=0
43680 On ch=7 n=60 v=72
43680 On ch=7 n=57 v=83
43680 On ch=7 n=65 v=83
43771 On ch=7 n=57 v=0
43793 On ch=7 n=65 v=0
43799 On ch=7 n=64 v=74
43799 On ch=7 n=55 v=74
43851 On ch=7 n=55 v=0
43853 On ch=7 n=60 v=0
43861 On ch=7 n=60 v=73
43861 On ch=7 n=57 v=83
43861 On ch=7 n=65 v=86
43870 On ch=7 n=64 v=0
43924 Par ch=7 c=1 v=1
43924 Par ch=7 c=1 v=4
43924 Par ch=7 c=1 v=7
43924 Par ch=7 c=1 v=10
43924 Par ch=7 c=1 v=13
43924 Par ch=7 c=1 v=16
43924 Par ch=7 c=1 v=18
43924 Par ch=7 c=1 v=21
43924 Par ch=7 c=1 v=24
43929 Par ch=7 c=1 v=26
43929 Par ch=7 c=1 v=28
43929 Par ch=7 c=1 v=31
43929 Par ch=7 c=1 v=33
43929 Par ch=7 c=1 v=35
43929 Par ch=7 c=1 v=37
43929 Par ch=7 c=1 v=39
43929 Par ch=7 c=1 v=41
43929 Par ch=7 c=1 v=42
43933 Par ch=7 c=1 v=44
43933 Par ch=7 c=1 v=45
43933 Par ch=7 c=1 v=47
43933 Par ch=7 c=1 v=48
43933 Par ch=7 c=1 v=49
43933 Par ch=7 c=1 v=50
43933 Par ch=7 c=1 v=51
43933 Par ch=7 c=1 v=52
43933 Par ch=7 c=1 v=53
43933 Par ch=7 c=1 v=55
43933 Par ch=7 c=1 v=56
43933 Par ch=7 c=1 v=57
43933 Par ch=7 c=1 v=58
43933 Par ch=7 c=1 v=59
43933 Par ch=7 c=1 v=60
43933 Par ch=7 c=1 v=61
43933 Par ch=7 c=1 v=62
43933 Par ch=7 c=1 v=63
43937 Par ch=7 c=1 v=64
43942 Par ch=7 c=1 v=65
43942 Par ch=7 c=1 v=66
43946 Par ch=7 c=1 v=67
43946 Par ch=7 c=1 v=68
43946 Par ch=7 c=1 v=69
43946 Par ch=7 c=1 v=70
43946 Par ch=7 c=1 v=71
43950 Par ch=7 c=1 v=72
43950 Par ch=7 c=1 v=73
43950 Par ch=7 c=1 v=74
43950 Par ch=7 c=1 v=75
43950 Par ch=7 c=1 v=76
43950 Par ch=7 c=1 v=77
43955 Par ch=7 c=1 v=78
43955 Par ch=7 c=1 v=79
43955 Par ch=7 c=1 v=80
43955 Par ch=7 c=1 v=81
43955 Par ch=7 c=1 v=82
43955 Par ch=7 c=1 v=83
43959 Par ch=7 c=1 v=84
43959 Par ch=7 c=1 v=85
43959 Par ch=7 c=1 v=86
43959 Par ch=7 c=1 v=87
43959 Par ch=7 c=1 v=88
43959 Par ch=7 c=1 v=89
43959 Par ch=7 c=1 v=90
43959 Par ch=7 c=1 v=91
43963 Par ch=7 c=1 v=92
43963 Par ch=7 c=1 v=93
43963 Par ch=7 c=1 v=94
43963 Par ch=7 c=1 v=95
43963 Par ch=7 c=1 v=96
43963 Par ch=7 c=1 v=97
43963 Par ch=7 c=1 v=98
43963 Par ch=7 c=1 v=99
43963 Par ch=7 c=1 v=100
43963 Par ch=7 c=1 v=101
43963 Par ch=7 c=1 v=102
43970 Par ch=7 c=1 v=103
43970 Par ch=7 c=1 v=104
43970 Par ch=7 c=1 v=105
43974 Par ch=7 c=1 v=106
43974 Par ch=7 c=1 v=107
43974 Par ch=7 c=1 v=108
43974 Par ch=7 c=1 v=109
43978 Par ch=7 c=1 v=110
43978 Par ch=7 c=1 v=111
43978 Par ch=7 c=1 v=112
43983 Par ch=7 c=1 v=113
43996 Par ch=7 c=1 v=112
43998 Par ch=7 c=1 v=111
44000 Par ch=7 c=1 v=110
44000 Par ch=7 c=1 v=109
44004 Par ch=7 c=1 v=108
44004 Par ch=7 c=1 v=107
44004 Par ch=7 c=1 v=106
44004 Par ch=7 c=1 v=105
44004 Par ch=7 c=1 v=104
44006 Par ch=7 c=1 v=103
44010 On ch=7 n=57 v=0
44011 Par ch=7 c=1 v=102
44011 Par ch=7 c=1 v=101
44011 Par ch=7 c=1 v=100
44011 Par ch=7 c=1 v=99
44011 Par ch=7 c=1 v=98
44011 Par ch=7 c=1 v=97
44011 Par ch=7 c=1 v=95
44011 Par ch=7 c=1 v=94
44011 Par ch=7 c=1 v=92
44011 Par ch=7 c=1 v=91
44011 Par ch=7 c=1 v=89
44011 Par ch=7 c=1 v=87
44011 Par ch=7 c=1 v=85
44011 Par ch=7 c=1 v=83
44011 Par ch=7 c=1 v=81
44011 Par ch=7 c=1 v=79
44011 Par ch=7 c=1 v=76
44011 Par ch=7 c=1 v=74
44011 Par ch=7 c=1 v=71
44011 Par ch=7 c=1 v=68
44011 Par ch=7 c=1 v=65
44011 Par ch=7 c=1 v=61
44011 Par ch=7 c=1 v=58
44011 Par ch=7 c=1 v=55
44011 Par ch=7 c=1 v=51
44011 Par ch=7 c=1 v=47
44011 Par ch=7 c=1 v=43
44011 Par ch=7 c=1 v=39
44011 Par ch=7 c=1 v=35
44011 Par ch=7 c=1 v=31
44011 Par ch=7 c=1 v=26
44011 Par ch=7 c=1 v=22
44011 Par ch=7 c=1 v=18
44011 Par ch=7 c=1 v=13
44011 Par ch=7 c=1 v=9
44011 Par ch=7 c=1 v=4
44011 Par ch=7 c=1 v=0
44031 On ch=7 n=60 v=0
44039 On ch=7 n=64 v=67
44039 On ch=7 n=60 v=65
44041 On ch=7 n=55 v=72
44044 On ch=7 n=65 v=0
44086 On ch=7 n=60 v=0
44088 On ch=7 n=55 v=0
44101 On ch=7 n=62 v=79
44101 On ch=7 n=59 v=81
44101 On ch=7 n=55 v=67
44110 On ch=7 n=64 v=0
44199 Par ch=7 c=1 v=1
44203 Par ch=7 c=1 v=2
44203 Par ch=7 c=1 v=3
44203 Par ch=7 c=1 v=4
44205 Par ch=7 c=1 v=5
44205 Par ch=7 c=1 v=6
44209 Par ch=7 c=1 v=7
44209 Par ch=7 c=1 v=8
44209 Par ch=7 c=1 v=9
44212 Par ch=7 c=1 v=10
44212 Par ch=7 c=1 v=11
44212 Par ch=7 c=1 v=12
44216 Par ch=7 c=1 v=13
44216 Par ch=7 c=1 v=14
44220 Par ch=7 c=1 v=15
44220 Par ch=7 c=1 v=16
44225 Par ch=7 c=1 v=17
44225 Par ch=7 c=1 v=18
44229 Par ch=7 c=1 v=19
44229 Par ch=7 c=1 v=20
44229 Par ch=7 c=1 v=21
44229 Par ch=7 c=1 v=22
44229 Par ch=7 c=1 v=23
44229 Par ch=7 c=1 v=24
44233 Par ch=7 c=1 v=25
44233 Par ch=7 c=1 v=26
44237 Par ch=7 c=1 v=27
44237 Par ch=7 c=1 v=28
44237 Par ch=7 c=1 v=29
44237 Par ch=7 c=1 v=30
44237 Par ch=7 c=1 v=31
44237 Par ch=7 c=1 v=32
44237 Par ch=7 c=1 v=33
44237 Par ch=7 c=1 v=34
44244 Par ch=7 c=1 v=35
44244 Par ch=7 c=1 v=36
44244 Par ch=7 c=1 v=37
44244 Par ch=7 c=1 v=38
44248 Par ch=7 c=1 v=39
44248 Par ch=7 c=1 v=40
44248 Par ch=7 c=1 v=41
44248 Par ch=7 c=1 v=42
44248 Par ch=7 c=1 v=43
44248 Par ch=7 c=1 v=44
44248 Par ch=7 c=1 v=45
44248 Par ch=7 c=1 v=46
44248 Par ch=7 c=1 v=47
44255 Par ch=7 c=1 v=48
44255 Par ch=7 c=1 v=49
44255 Par ch=7 c=1 v=50
44259 Par ch=7 c=1 v=51
44259 Par ch=7 c=1 v=52
44259 Par ch=7 c=1 v=53
44259 Par ch=7 c=1 v=54
44259 Par ch=7 c=1 v=55
44259 Par ch=7 c=1 v=56
44263 Par ch=7 c=1 v=57
44263 Par ch=7 c=1 v=58
44263 Par ch=7 c=1 v=59
44263 Par ch=7 c=1 v=60
44263 Par ch=7 c=1 v=61
44268 Par ch=7 c=1 v=62
44268 Par ch=7 c=1 v=63
44268 Par ch=7 c=1 v=64
44268 Par ch=7 c=1 v=65
44268 Par ch=7 c=1 v=66
44268 Par ch=7 c=1 v=67
44272 Par ch=7 c=1 v=68
44276 Par ch=7 c=1 v=67
44276 Par ch=7 c=1 v=66
44276 Par ch=7 c=1 v=65
44281 Par ch=7 c=1 v=64
44281 Par ch=7 c=1 v=63
44281 Par ch=7 c=1 v=62
44281 Par ch=7 c=1 v=61
44281 Par ch=7 c=1 v=59
44281 Par ch=7 c=1 v=58
44281 Par ch=7 c=1 v=56
44281 Par ch=7 c=1 v=54
44281 Par ch=7 c=1 v=52
44285 Par ch=7 c=1 v=50
44285 Par ch=7 c=1 v=47
44285 Par ch=7 c=1 v=44
44285 Par ch=7 c=1 v=41
44285 Par ch=7 c=1 v=38
44285 Par ch=7 c=1 v=35
44285 Par ch=7 c=1 v=32
44285 Par ch=7 c=1 v=28
44285 Par ch=7 c=1 v=25
44289 Par ch=7 c=1 v=21
44289 Par ch=7 c=1 v=18
44289 Par ch=7 c=1 v=14
44289 Par ch=7 c=1 v=10
44289 Par ch=7 c=1 v=6
44289 Par ch=7 c=1 v=2
44289 Par ch=7 c=1 v=0
44325 On ch=7 n=55 v=0
44330 On ch=7 n=59 v=0
44330 On ch=7 n=62 v=0
44339 On ch=7 n=59 v=66
44339 On ch=7 n=62 v=73
44339 On ch=7 n=55 v=74
44497 On ch=7 n=55 v=0
44499 On ch=7 n=59 v=0
44505 On ch=7 n=62 v=0
44518 On ch=7 n=64 v=74
44518 On ch=7 n=55 v=75
44518 On ch=7 n=60 v=83
44617 On ch=7 n=55 v=0
44626 On ch=7 n=60 v=0
44632 On ch=7 n=64 v=0
44637 On ch=7 n=60 v=75
44638 On ch=7 n=57 v=79
44638 On ch=7 n=65 v=83
44729 On ch=7 n=57 v=0
44746 On ch=7 n=65 v=0
44749 On ch=7 n=60 v=0
44758 On ch=7 n=60 v=76
44758 On ch=7 n=64 v=74
44758 On ch=7 n=55 v=74
44792 On ch=7 n=55 v=0
44799 On ch=7 n=64 v=0
44810 On ch=7 n=60 v=0
44818 On ch=7 n=65 v=85
44818 On ch=7 n=62 v=83
44819 On ch=7 n=58 v=73
44857 Par ch=7 c=1 v=1
44857 Par ch=7 c=1 v=3
44860 Par ch=7 c=1 v=5
44860 Par ch=7 c=1 v=8
44860 Par ch=7 c=1 v=10
44860 Par ch=7 c=1 v=12
44864 Par ch=7 c=1 v=14
44864 Par ch=7 c=1 v=16
44864 Par ch=7 c=1 v=18
44864 Par ch=7 c=1 v=20
44864 Par ch=7 c=1 v=22
44864 Par ch=7 c=1 v=23
44864 Par ch=7 c=1 v=25
44864 Par ch=7 c=1 v=26
44864 Par ch=7 c=1 v=27
44868 Par ch=7 c=1 v=28
44868 Par ch=7 c=1 v=29
44868 Par ch=7 c=1 v=31
44868 Par ch=7 c=1 v=32
44868 Par ch=7 c=1 v=33
44868 Par ch=7 c=1 v=34
44868 Par ch=7 c=1 v=35
44868 Par ch=7 c=1 v=36
44868 Par ch=7 c=1 v=37
44868 Par ch=7 c=1 v=38
44868 Par ch=7 c=1 v=39
44868 Par ch=7 c=1 v=40
44875 Par ch=7 c=1 v=41
44875 Par ch=7 c=1 v=42
44879 Par ch=7 c=1 v=43
44879 Par ch=7 c=1 v=44
44879 Par ch=7 c=1 v=45
44879 Par ch=7 c=1 v=46
44883 Par ch=7 c=1 v=47
44883 Par ch=7 c=1 v=48
44883 Par ch=7 c=1 v=49
44883 Par ch=7 c=1 v=50
44883 Par ch=7 c=1 v=51
44888 Par ch=7 c=1 v=52
44888 Par ch=7 c=1 v=53
44888 Par ch=7 c=1 v=54
44888 Par ch=7 c=1 v=55
44892 Par ch=7 c=1 v=56
44892 Par ch=7 c=1 v=57
44892 Par ch=7 c=1 v=58
44892 Par ch=7 c=1 v=59
44896 Par ch=7 c=1 v=60
44896 Par ch=7 c=1 v=61
44896 Par ch=7 c=1 v=62
44896 Par ch=7 c=1 v=63
44901 Par ch=7 c=1 v=64
44901 Par ch=7 c=1 v=65
44905 Par ch=7 c=1 v=66
44905 Par ch=7 c=1 v=67
44905 Par ch=7 c=1 v=68
44909 Par ch=7 c=1 v=69
44909 Par ch=7 c=1 v=70
44914 Par ch=7 c=1 v=71
44914 Par ch=7 c=1 v=72
44970 Par ch=7 c=1 v=73
44976 Par ch=7 c=1 v=74
44983 Par ch=7 c=1 v=75
44987 Par ch=7 c=1 v=76
44991 Par ch=7 c=1 v=77
44996 Par ch=7 c=1 v=78
44996 Par ch=7 c=1 v=79
45000 Par ch=7 c=1 v=80
45004 Par ch=7 c=1 v=81
45013 Par ch=7 c=1 v=82
45017 Par ch=7 c=1 v=83
45022 Par ch=7 c=1 v=84
45022 Par ch=7 c=1 v=85
45026 Par ch=7 c=1 v=86
45026 Par ch=7 c=1 v=87
45026 Par ch=7 c=1 v=88
45030 Par ch=7 c=1 v=89
45030 Par ch=7 c=1 v=90
45032 Par ch=7 c=1 v=91
45032 Par ch=7 c=1 v=92
45037 Par ch=7 c=1 v=94
45037 Par ch=7 c=1 v=93
45041 On ch=7 n=58 v=0
45041 Par ch=7 c=1 v=91
45041 Par ch=7 c=1 v=88
45041 Par ch=7 c=1 v=92
45041 Par ch=7 c=1 v=84
45041 Par ch=7 c=1 v=82
45041 Par ch=7 c=1 v=80
45041 Par ch=7 c=1 v=93
45041 Par ch=7 c=1 v=74
45041 Par ch=7 c=1 v=72
45041 Par ch=7 c=1 v=89
45041 Par ch=7 c=1 v=85
45041 Par ch=7 c=1 v=87
45041 Par ch=7 c=1 v=77
45043 Par ch=7 c=1 v=56
45043 Par ch=7 c=1 v=66
45043 Par ch=7 c=1 v=50
45043 Par ch=7 c=1 v=53
45043 Par ch=7 c=1 v=43
45043 Par ch=7 c=1 v=39
45043 Par ch=7 c=1 v=35
45043 Par ch=7 c=1 v=32
45043 Par ch=7 c=1 v=27
45043 Par ch=7 c=1 v=23
45043 Par ch=7 c=1 v=19
45043 Par ch=7 c=1 v=15
45043 Par ch=7 c=1 v=11
45043 Par ch=7 c=1 v=47
45043 Par ch=7 c=1 v=6
45043 Par ch=7 c=1 v=2
45043 Par ch=7 c=1 v=69
45043 Par ch=7 c=1 v=0
45043 Par ch=7 c=1 v=63
45043 Par ch=7 c=1 v=59
45047 On ch=7 n=62 v=0
45058 On ch=7 n=65 v=0
45060 On ch=7 n=59 v=85
45060 On ch=7 n=55 v=73
45062 On ch=7 n=64 v=77
45192 Par ch=7 c=1 v=2
45192 Par ch=7 c=1 v=5
45192 Par ch=7 c=1 v=9
45192 Par ch=7 c=1 v=13
45192 Par ch=7 c=1 v=16
45197 Par ch=7 c=1 v=20
45197 Par ch=7 c=1 v=24
45197 Par ch=7 c=1 v=28
45197 Par ch=7 c=1 v=32
45197 Par ch=7 c=1 v=35
45197 Par ch=7 c=1 v=39
45197 Par ch=7 c=1 v=43
45197 Par ch=7 c=1 v=47
45197 Par ch=7 c=1 v=50
45201 Par ch=7 c=1 v=54
45201 Par ch=7 c=1 v=57
45201 Par ch=7 c=1 v=61
45201 Par ch=7 c=1 v=64
45201 Par ch=7 c=1 v=67
45201 Par ch=7 c=1 v=69
45201 Par ch=7 c=1 v=72
45201 Par ch=7 c=1 v=75
45201 Par ch=7 c=1 v=77
45205 Par ch=7 c=1 v=80
45205 Par ch=7 c=1 v=82
45205 Par ch=7 c=1 v=84
45205 Par ch=7 c=1 v=86
45205 Par ch=7 c=1 v=88
45205 Par ch=7 c=1 v=90
45205 Par ch=7 c=1 v=92
45205 Par ch=7 c=1 v=93
45205 Par ch=7 c=1 v=95
45207 On ch=7 n=64 v=0
45209 Par ch=7 c=1 v=96
45209 Par ch=7 c=1 v=98
45209 Par ch=7 c=1 v=99
45209 Par ch=7 c=1 v=100
45209 Par ch=7 c=1 v=101
45209 Par ch=7 c=1 v=102
45209 Par ch=7 c=1 v=103
45209 Par ch=7 c=1 v=104
45210 On ch=7 n=59 v=0
45214 Par ch=7 c=1 v=105
45214 Par ch=7 c=1 v=106
45216 Par ch=7 c=1 v=107
45216 Par ch=7 c=1 v=108
45225 Par ch=7 c=1 v=107
45225 Par ch=7 c=1 v=106
45225 Par ch=7 c=1 v=105
45225 Par ch=7 c=1 v=104
45225 Par ch=7 c=1 v=103
45225 Par ch=7 c=1 v=102
45225 Par ch=7 c=1 v=101
45231 Par ch=7 c=1 v=100
45231 Par ch=7 c=1 v=99
45231 Par ch=7 c=1 v=98
45231 Par ch=7 c=1 v=97
45231 Par ch=7 c=1 v=96
45235 Par ch=7 c=1 v=95
45235 Par ch=7 c=1 v=94
45235 Par ch=7 c=1 v=93
45235 Par ch=7 c=1 v=92
45235 Par ch=7 c=1 v=91
45235 Par ch=7 c=1 v=90
45235 Par ch=7 c=1 v=89
45235 Par ch=7 c=1 v=88
45240 On ch=7 n=59 v=81
45240 Par ch=7 c=1 v=86
45240 Par ch=7 c=1 v=85
45240 On ch=7 n=62 v=83
45240 Par ch=7 c=1 v=84
45240 On ch=7 n=66 v=87
45240 Par ch=7 c=1 v=82
45240 Par ch=7 c=1 v=80
45240 Par ch=7 c=1 v=79
45240 Par ch=7 c=1 v=77
45240 Par ch=7 c=1 v=74
45240 Par ch=7 c=1 v=72
45242 On ch=7 n=55 v=0
45244 Par ch=7 c=1 v=70
45244 Par ch=7 c=1 v=68
45244 Par ch=7 c=1 v=65
45244 Par ch=7 c=1 v=62
45244 Par ch=7 c=1 v=59
45244 Par ch=7 c=1 v=56
45244 Par ch=7 c=1 v=53
45244 Par ch=7 c=1 v=50
45244 Par ch=7 c=1 v=47
45248 Par ch=7 c=1 v=43
45248 Par ch=7 c=1 v=40
45248 Par ch=7 c=1 v=37
45248 Par ch=7 c=1 v=33
45248 Par ch=7 c=1 v=29
45248 Par ch=7 c=1 v=25
45248 Par ch=7 c=1 v=21
45248 Par ch=7 c=1 v=17
45248 Par ch=7 c=1 v=13
45253 Par ch=7 c=1 v=8
45253 Par ch=7 c=1 v=3
45253 Par ch=7 c=1 v=0
45341 On ch=7 n=66 v=0
45346 On ch=7 n=62 v=0
45346 On ch=7 n=59 v=0
45361 On ch=7 n=55 v=95
45361 On ch=7 n=59 v=85
45361 On ch=7 n=64 v=79
45456 On ch=7 n=59 v=0
45460 On ch=7 n=64 v=0
45460 On ch=7 n=55 v=0
45477 On ch=7 n=59 v=87
45477 On ch=7 n=62 v=81
45478 On ch=7 n=66 v=76
45528 On ch=7 n=59 v=0
45534 On ch=7 n=66 v=0
45535 On ch=7 n=62 v=0
45540 On ch=7 n=67 v=81
45540 On ch=7 n=64 v=70
45540 On ch=7 n=59 v=77
45881 Par ch=7 c=1 v=1
45883 Par ch=7 c=1 v=2
45883 Par ch=7 c=1 v=3
45883 Par ch=7 c=1 v=4
45888 Par ch=7 c=1 v=5
45888 Par ch=7 c=1 v=6
45888 Par ch=7 c=1 v=7
45888 Par ch=7 c=1 v=8
45892 Par ch=7 c=1 v=9
45892 Par ch=7 c=1 v=10
45892 Par ch=7 c=1 v=11
45896 Par ch=7 c=1 v=12
45896 Par ch=7 c=1 v=13
45899 Par ch=7 c=1 v=14
45899 Par ch=7 c=1 v=15
45901 Par ch=7 c=1 v=16
45905 Par ch=7 c=1 v=17
45907 Par ch=7 c=1 v=18
45907 Par ch=7 c=1 v=19
45911 Par ch=7 c=1 v=20
45914 Par ch=7 c=1 v=21
45918 Par ch=7 c=1 v=22
45918 Par ch=7 c=1 v=23
45918 Par ch=7 c=1 v=24
45922 Par ch=7 c=1 v=25
45927 Par ch=7 c=1 v=26
45929 Par ch=7 c=1 v=27
45929 Par ch=7 c=1 v=28
45933 Par ch=7 c=1 v=29
45935 Par ch=7 c=1 v=30
45935 Par ch=7 c=1 v=31
45940 Par ch=7 c=1 v=32
45940 Par ch=7 c=1 v=33
45944 Par ch=7 c=1 v=34
45944 Par ch=7 c=1 v=35
45944 Par ch=7 c=1 v=36
45944 Par ch=7 c=1 v=37
45944 Par ch=7 c=1 v=38
45948 Par ch=7 c=1 v=39
45948 Par ch=7 c=1 v=40
45953 Par ch=7 c=1 v=41
45953 Par ch=7 c=1 v=42
45953 Par ch=7 c=1 v=43
45953 Par ch=7 c=1 v=44
45953 Par ch=7 c=1 v=45
45953 Par ch=7 c=1 v=46
45953 Par ch=7 c=1 v=47
45955 Par ch=7 c=1 v=48
45959 Par ch=7 c=1 v=49
45959 Par ch=7 c=1 v=50
45959 Par ch=7 c=1 v=51
45959 Par ch=7 c=1 v=52
45959 Par ch=7 c=1 v=53
45959 Par ch=7 c=1 v=54
45961 Par ch=7 c=1 v=55
45965 Par ch=7 c=1 v=56
45965 Par ch=7 c=1 v=57
45965 Par ch=7 c=1 v=58
45965 Par ch=7 c=1 v=59
45965 Par ch=7 c=1 v=60
45970 Par ch=7 c=1 v=61
45970 Par ch=7 c=1 v=62
45970 Par ch=7 c=1 v=63
45970 Par ch=7 c=1 v=64
45974 Par ch=7 c=1 v=65
45974 Par ch=7 c=1 v=66
45974 Par ch=7 c=1 v=67
45974 Par ch=7 c=1 v=68
45978 Par ch=7 c=1 v=69
45978 Par ch=7 c=1 v=70
45978 Par ch=7 c=1 v=71
45983 Par ch=7 c=1 v=72
45983 Par ch=7 c=1 v=73
45983 Par ch=7 c=1 v=74
45983 Par ch=7 c=1 v=75
45987 Par ch=7 c=1 v=76
45987 Par ch=7 c=1 v=77
45987 Par ch=7 c=1 v=78
45989 Par ch=7 c=1 v=79
45989 Par ch=7 c=1 v=80
45994 Par ch=7 c=1 v=81
45994 Par ch=7 c=1 v=82
45998 Par ch=7 c=1 v=83
45998 Par ch=7 c=1 v=84
45998 Par ch=7 c=1 v=85
46002 Par ch=7 c=1 v=86
46002 Par ch=7 c=1 v=87
46002 Par ch=7 c=1 v=88
46007 Par ch=7 c=1 v=89
46007 Par ch=7 c=1 v=90
46007 Par ch=7 c=1 v=91
46009 Par ch=7 c=1 v=92
46009 Par ch=7 c=1 v=93
46009 Par ch=7 c=1 v=94
46013 Par ch=7 c=1 v=95
46013 Par ch=7 c=1 v=96
46013 Par ch=7 c=1 v=97
46017 Par ch=7 c=1 v=98
46017 Par ch=7 c=1 v=99
46022 Par ch=7 c=1 v=100
46022 Par ch=7 c=1 v=101
46022 Par ch=7 c=1 v=102
46026 Par ch=7 c=1 v=103
46030 Par ch=7 c=1 v=104
46030 Par ch=7 c=1 v=103
46030 Par ch=7 c=1 v=102
46035 Par ch=7 c=1 v=101
46035 Par ch=7 c=1 v=100
46035 Par ch=7 c=1 v=99
46035 Par ch=7 c=1 v=98
46035 Par ch=7 c=1 v=97
46035 Par ch=7 c=1 v=95
46039 Par ch=7 c=1 v=93
46039 Par ch=7 c=1 v=92
46039 Par ch=7 c=1 v=90
46039 Par ch=7 c=1 v=87
46039 Par ch=7 c=1 v=85
46039 Par ch=7 c=1 v=82
46039 Par ch=7 c=1 v=79
46039 Par ch=7 c=1 v=76
46039 Par ch=7 c=1 v=72
46043 Par ch=7 c=1 v=68
46043 Par ch=7 c=1 v=64
46043 Par ch=7 c=1 v=60
46043 Par ch=7 c=1 v=55
46043 Par ch=7 c=1 v=49
46043 Par ch=7 c=1 v=43
46043 Par ch=7 c=1 v=37
46043 Par ch=7 c=1 v=33
46043 Par ch=7 c=1 v=31
46048 Par ch=7 c=1 v=27
46048 Par ch=7 c=1 v=24
46048 Par ch=7 c=1 v=20
46048 Par ch=7 c=1 v=14
46048 Par ch=7 c=1 v=8
46048 Par ch=7 c=1 v=2
46048 Par ch=7 c=1 v=0
46060 Meta Text "%-"
46560 On ch=7 n=59 v=0
46560 On ch=7 n=64 v=0
46560 On ch=7 n=67 v=0
47520 On ch=7 n=40 v=90
47520 On ch=7 n=52 v=100
47598 On ch=7 n=52 v=0
47598 On ch=7 n=42 v=67
47599 On ch=7 n=54 v=76
47603 On ch=7 n=40 v=0
47664 On ch=7 n=54 v=0
47669 On ch=7 n=42 v=0
47679 On ch=7 n=43 v=81
47679 On ch=7 n=55 v=86
47750 On ch=7 n=43 v=0
47752 On ch=7 n=55 v=0
47759 On ch=7 n=45 v=72
47759 On ch=7 n=57 v=83
47979 On ch=7 n=57 v=0
47994 On ch=7 n=45 v=0
47997 On ch=7 n=59 v=86
47997 On ch=7 n=47 v=100
48065 On ch=7 n=59 v=0
48073 On ch=7 n=47 v=0
48078 On ch=7 n=57 v=77
48079 On ch=7 n=45 v=71
48148 On ch=7 n=57 v=0
48157 On ch=7 n=55 v=85
48157 On ch=7 n=43 v=77
48161 On ch=7 n=45 v=0
48225 On ch=7 n=55 v=0
48228 On ch=7 n=43 v=0
48236 On ch=7 n=45 v=86
48236 On ch=7 n=57 v=90
48464 On ch=7 n=57 v=0
48477 On ch=7 n=59 v=95
48477 On ch=7 n=47 v=98
48480 On ch=7 n=45 v=0
48548 On ch=7 n=59 v=0
48550 On ch=7 n=47 v=0
48557 On ch=7 n=57 v=75
48557 On ch=7 n=45 v=74
48622 On ch=7 n=57 v=0
48628 On ch=7 n=43 v=81
48628 On ch=7 n=55 v=76
48633 On ch=7 n=45 v=0
48703 On ch=7 n=55 v=0
48706 On ch=7 n=43 v=0
48711 On ch=7 n=57 v=108
48714 On ch=7 n=45 v=81
48790 On ch=7 n=43 v=83
48793 On ch=7 n=45 v=0
48793 On ch=7 n=55 v=85
48803 On ch=7 n=57 v=0
48861 On ch=7 n=43 v=0
48869 On ch=7 n=42 v=81
48871 On ch=7 n=54 v=86
48876 On ch=7 n=55 v=0
48931 On ch=7 n=54 v=0
48931 On ch=7 n=42 v=0
48945 On ch=7 n=43 v=85
48947 On ch=7 n=55 v=93
48979 On ch=7 n=55 v=0
48979 On ch=7 n=43 v=0
48981 On ch=7 n=54 v=83
48984 On ch=7 n=42 v=79
49007 On ch=7 n=42 v=0
49013 On ch=7 n=54 v=0
49013 On ch=7 n=52 v=76
49015 On ch=7 n=40 v=90
49338 On ch=7 n=40 v=0
49338 On ch=7 n=52 v=0
49440 On ch=7 n=40 v=90
49440 On ch=7 n=52 v=100
49518 On ch=7 n=52 v=0
49518 On ch=7 n=42 v=67
49519 On ch=7 n=54 v=76
49523 On ch=7 n=40 v=0
49584 On ch=7 n=54 v=0
49589 On ch=7 n=42 v=0
49599 On ch=7 n=43 v=81
49599 On ch=7 n=55 v=86
49670 On ch=7 n=43 v=0
49672 On ch=7 n=55 v=0
49679 On ch=7 n=45 v=72
49679 On ch=7 n=57 v=83
49899 On ch=7 n=57 v=0
49914 On ch=7 n=45 v=0
49917 On ch=7 n=59 v=86
49917 On ch=7 n=47 v=100
49985 On ch=7 n=59 v=0
49993 On ch=7 n=47 v=0
49998 On ch=7 n=57 v=77
49999 On ch=7 n=45 v=71
50068 On ch=7 n=57 v=0
50077 On ch=7 n=55 v=85
50077 On ch=7 n=43 v=77
50081 On ch=7 n=45 v=0
50145 On ch=7 n=55 v=0
50148 On ch=7 n=43 v=0
50156 On ch=7 n=45 v=86
50156 On ch=7 n=57 v=90
50384 On ch=7 n=57 v=0
50397 On ch=7 n=59 v=95
50397 On ch=7 n=47 v=98
50400 On ch=7 n=45 v=0
50468 On ch=7 n=59 v=0
50470 On ch=7 n=47 v=0
50477 On ch=7 n=57 v=75
50477 On ch=7 n=45 v=74
50542 On ch=7 n=57 v=0
50548 On ch=7 n=43 v=81
50548 On ch=7 n=55 v=76
50553 On ch=7 n=45 v=0
50623 On ch=7 n=55 v=0
50626 On ch=7 n=43 v=0
50631 On ch=7 n=57 v=108
50634 On ch=7 n=45 v=81
50710 On ch=7 n=43 v=83
50713 On ch=7 n=45 v=0
50713 On ch=7 n=55 v=85
50723 On ch=7 n=57 v=0
50781 On ch=7 n=43 v=0
50789 On ch=7 n=42 v=81
50791 On ch=7 n=54 v=86
50796 On ch=7 n=55 v=0
50851 On ch=7 n=54 v=0
50851 On ch=7 n=42 v=0
50865 On ch=7 n=43 v=85
50867 On ch=7 n=55 v=93
50899 On ch=7 n=55 v=0
50899 On ch=7 n=43 v=0
50901 On ch=7 n=54 v=83
50904 On ch=7 n=42 v=79
50927 On ch=7 n=42 v=0
50933 On ch=7 n=54 v=0
50933 On ch=7 n=52 v=76
50935 On ch=7 n=40 v=90
51258 On ch=7 n=40 v=0
51258 On ch=7 n=52 v=0
51360 On ch=7 n=40 v=90
51360 On ch=7 n=52 v=100
51438 On ch=7 n=52 v=0
51438 On ch=7 n=42 v=67
51439 On ch=7 n=54 v=76
51443 On ch=7 n=40 v=0
51504 On ch=7 n=54 v=0
51509 On ch=7 n=42 v=0
51519 On ch=7 n=43 v=81
51519 On ch=7 n=55 v=86
51590 On ch=7 n=43 v=0
51592 On ch=7 n=55 v=0
51599 On ch=7 n=45 v=72
51599 On ch=7 n=57 v=83
51819 On ch=7 n=57 v=0
51834 On ch=7 n=45 v=0
51837 On ch=7 n=59 v=86
51837 On ch=7 n=47 v=100
51905 On ch=7 n=59 v=0
51913 On ch=7 n=47 v=0
51918 On ch=7 n=57 v=77
51919 On ch=7 n=45 v=71
51988 On ch=7 n=57 v=0
51997 On ch=7 n=55 v=85
51997 On ch=7 n=43 v=77
52001 On ch=7 n=45 v=0
52065 On ch=7 n=55 v=0
52068 On ch=7 n=43 v=0
52076 On ch=7 n=45 v=86
52076 On ch=7 n=57 v=90
52304 On ch=7 n=57 v=0
52317 On ch=7 n=59 v=95
52317 On ch=7 n=47 v=98
52320 On ch=7 n=45 v=0
52388 On ch=7 n=59 v=0
52390 On ch=7 n=47 v=0
52397 On ch=7 n=57 v=75
52397 On ch=7 n=45 v=74
52462 On ch=7 n=57 v=0
52468 On ch=7 n=43 v=81
52468 On ch=7 n=55 v=76
52473 On ch=7 n=45 v=0
52543 On ch=7 n=55 v=0
52546 On ch=7 n=43 v=0
52551 On ch=7 n=57 v=108
52554 On ch=7 n=45 v=81
52630 On ch=7 n=43 v=83
52633 On ch=7 n=45 v=0
52633 On ch=7 n=55 v=85
52643 On ch=7 n=57 v=0
52701 On ch=7 n=43 v=0
52709 On ch=7 n=42 v=81
52711 On ch=7 n=54 v=86
52716 On ch=7 n=55 v=0
52771 On ch=7 n=54 v=0
52771 On ch=7 n=42 v=0
52785 On ch=7 n=43 v=85
52787 On ch=7 n=55 v=93
52819 On ch=7 n=55 v=0
52819 On ch=7 n=43 v=0
52821 On ch=7 n=54 v=83
52824 On ch=7 n=42 v=79
52847 On ch=7 n=42 v=0
52853 On ch=7 n=54 v=0
52853 On ch=7 n=52 v=76
52855 On ch=7 n=40 v=90
53178 On ch=7 n=40 v=0
53178 On ch=7 n=52 v=0
53280 On ch=7 n=40 v=90
53280 On ch=7 n=52 v=100
53358 On ch=7 n=52 v=0
53358 On ch=7 n=42 v=67
53359 On ch=7 n=54 v=76
53363 On ch=7 n=40 v=0
53424 On ch=7 n=54 v=0
53429 On ch=7 n=42 v=0
53439 On ch=7 n=43 v=81
53439 On ch=7 n=55 v=86
53510 On ch=7 n=43 v=0
53512 On ch=7 n=55 v=0
53519 On ch=7 n=45 v=72
53519 On ch=7 n=57 v=83
53739 On ch=7 n=57 v=0
53754 On ch=7 n=45 v=0
53757 On ch=7 n=59 v=86
53757 On ch=7 n=47 v=100
53825 On ch=7 n=59 v=0
53833 On ch=7 n=47 v=0
53838 On ch=7 n=57 v=77
53839 On ch=7 n=45 v=71
53908 On ch=7 n=57 v=0
53917 On ch=7 n=55 v=85
53917 On ch=7 n=43 v=77
53921 On ch=7 n=45 v=0
53985 On ch=7 n=55 v=0
53988 On ch=7 n=43 v=0
53996 On ch=7 n=45 v=86
53996 On ch=7 n=57 v=90
54224 On ch=7 n=57 v=0
54237 On ch=7 n=59 v=95
54237 On ch=7 n=47 v=98
54240 On ch=7 n=45 v=0
54308 On ch=7 n=59 v=0
54310 On ch=7 n=47 v=0
54317 On ch=7 n=57 v=75
54317 On ch=7 n=45 v=74
54382 On ch=7 n=57 v=0
54388 On ch=7 n=43 v=81
54388 On ch=7 n=55 v=76
54393 On ch=7 n=45 v=0
54463 On ch=7 n=55 v=0
54466 On ch=7 n=43 v=0
54471 On ch=7 n=57 v=108
54474 On ch=7 n=45 v=81
54550 On ch=7 n=43 v=83
54553 On ch=7 n=45 v=0
54553 On ch=7 n=55 v=85
54563 On ch=7 n=57 v=0
54621 On ch=7 n=43 v=0
54629 On ch=7 n=42 v=81
54631 On ch=7 n=54 v=86
54636 On ch=7 n=55 v=0
54691 On ch=7 n=54 v=0
54691 On ch=7 n=42 v=0
54705 On ch=7 n=43 v=85
54707 On ch=7 n=55 v=93
54739 On ch=7 n=55 v=0
54739 On ch=7 n=43 v=0
54741 On ch=7 n=54 v=83
54744 On ch=7 n=42 v=79
54767 On ch=7 n=42 v=0
54773 On ch=7 n=54 v=0
54773 On ch=7 n=52 v=76
54775 On ch=7 n=40 v=90
55098 On ch=7 n=40 v=0
55098 On ch=7 n=52 v=0
55202 On ch=7 n=64 v=117
55422 On ch=7 n=64 v=0
55501 On ch=7 n=64 v=120
55572 On ch=7 n=64 v=0
55598 On ch=7 n=66 v=112
55655 On ch=7 n=66 v=0
55684 On ch=7 n=62 v=112
55915 On ch=7 n=62 v=0
55991 On ch=7 n=59 v=120
56059 On ch=7 n=59 v=0
56082 On ch=7 n=61 v=112
56143 On ch=7 n=61 v=0
56172 On ch=7 n=62 v=122
56318 On ch=7 n=62 v=0
56342 On ch=7 n=64 v=117
56507 On ch=7 n=64 v=0
56515 On ch=7 n=59 v=120
56680 On ch=7 n=59 v=0
56693 On ch=7 n=62 v=121
56868 On ch=7 n=62 v=0
56879 On ch=7 n=66 v=112
56939 On ch=7 n=66 v=0
57007 On ch=7 n=66 v=120
57075 On ch=7 n=66 v=0
57120 On ch=7 n=64 v=117
57351 On ch=7 n=64 v=0
57429 On ch=7 n=64 v=121
57484 On ch=7 n=64 v=0
57521 On ch=7 n=66 v=112
57573 On ch=7 n=66 v=0
57610 On ch=7 n=62 v=111
57809 On ch=7 n=62 v=0
57903 On ch=7 n=59 v=117
57977 On ch=7 n=59 v=0
58000 On ch=7 n=61 v=112
58063 On ch=7 n=61 v=0
58089 On ch=7 n=62 v=120
58249 On ch=7 n=62 v=0
58270 On ch=7 n=64 v=112
58440 On ch=7 n=64 v=0
58456 On ch=7 n=59 v=117
58608 On ch=7 n=59 v=0
58621 On ch=7 n=62 v=121
58778 On ch=7 n=62 v=0
58792 On ch=7 n=66 v=120
58865 On ch=7 n=66 v=0
58917 On ch=7 n=66 v=114
58993 On ch=7 n=66 v=0
59035 On ch=7 n=64 v=121
59245 On ch=7 n=64 v=0
59352 On ch=7 n=64 v=120
59402 On ch=7 n=64 v=0
59439 On ch=7 n=66 v=114
59494 On ch=7 n=66 v=0
59533 On ch=7 n=62 v=123
59740 On ch=7 n=62 v=0
59821 On ch=7 n=59 v=112
59895 On ch=7 n=59 v=0
59918 On ch=7 n=61 v=112
59981 On ch=7 n=61 v=0
60007 On ch=7 n=62 v=112
60159 On ch=7 n=62 v=0
60183 On ch=7 n=64 v=104
60327 On ch=7 n=64 v=0
60361 On ch=7 n=59 v=112
60508 On ch=7 n=59 v=0
60529 On ch=7 n=62 v=117
60694 On ch=7 n=62 v=0
60707 On ch=7 n=66 v=108
60785 On ch=7 n=66 v=0
60838 On ch=7 n=66 v=114
60911 On ch=7 n=66 v=0
60961 On ch=7 n=64 v=108
61173 On ch=7 n=64 v=0
61270 On ch=7 n=64 v=120
61333 On ch=7 n=64 v=0
61357 On ch=7 n=66 v=111
61419 On ch=7 n=66 v=0
61451 On ch=7 n=62 v=108
61658 On ch=7 n=62 v=0
61750 On ch=7 n=59 v=111
61820 On ch=7 n=59 v=0
61841 On ch=7 n=61 v=90
61901 On ch=7 n=61 v=0
61930 On ch=7 n=62 v=111
62085 On ch=7 n=62 v=0
62106 On ch=7 n=64 v=104
62258 On ch=7 n=64 v=0
62281 On ch=7 n=59 v=108
62441 On ch=7 n=59 v=0
62465 On ch=7 n=62 v=108
62619 On ch=7 n=62 v=0
62638 On ch=7 n=66 v=108
62708 On ch=7 n=66 v=0
62761 On ch=7 n=66 v=112
62837 On ch=7 n=66 v=0
62881 On ch=7 n=64 v=104
63101 On ch=7 n=64 v=0
63188 On ch=7 n=64 v=114
63259 On ch=7 n=64 v=0
63280 On ch=7 n=66 v=111
63342 On ch=7 n=66 v=0
63374 On ch=7 n=62 v=108
63573 On ch=7 n=62 v=0
63662 On ch=7 n=59 v=100
63735 On ch=7 n=59 v=0
63756 On ch=7 n=61 v=104
63822 On ch=7 n=61 v=0
63843 On ch=7 n=62 v=114
63997 On ch=7 n=62 v=0
64013 On ch=7 n=64 v=112
64168 On ch=7 n=64 v=0
64207 On ch=7 n=59 v=117
64354 On ch=7 n=59 v=0
64375 On ch=7 n=62 v=117
64529 On ch=7 n=62 v=0
64550 On ch=7 n=66 v=114
64626 On ch=7 n=66 v=0
64679 On ch=7 n=66 v=117
64749 On ch=7 n=66 v=0
64794 On ch=7 n=64 v=114
64802 On ch=7 n=64 v=114
64990 On ch=7 n=64 v=0
65041 On ch=7 n=64 v=0
65103 On ch=7 n=64 v=114
65169 On ch=7 n=64 v=0
65198 On ch=7 n=66 v=112
65255 On ch=7 n=66 v=0
65289 On ch=7 n=62 v=108
65504 On ch=7 n=62 v=0
65578 On ch=7 n=59 v=111
65651 On ch=7 n=59 v=0
65677 On ch=7 n=61 v=108
65740 On ch=7 n=61 v=0
65761 On ch=7 n=62 v=114
65923 On ch=7 n=62 v=0
65939 On ch=7 n=64 v=112
66096 On ch=7 n=64 v=0
66120 On ch=7 n=59 v=120
66280 On ch=7 n=59 v=0
66296 On ch=7 n=62 v=114
66453 On ch=7 n=62 v=0
66468 On ch=7 n=66 v=117
66547 On ch=7 n=66 v=0
66599 On ch=7 n=66 v=117
66673 On ch=7 n=66 v=0
66720 On ch=7 n=64 v=117
66990 On ch=7 n=64 v=0
67032 On ch=7 n=64 v=121
67105 On ch=7 n=64 v=0
67126 On ch=7 n=66 v=112
67189 On ch=7 n=66 v=0
67218 On ch=7 n=62 v=111
67464 On ch=7 n=62 v=0
67506 On ch=7 n=59 v=114
67587 On ch=7 n=59 v=0
67603 On ch=7 n=61 v=111
67663 On ch=7 n=61 v=0
67682 On ch=7 n=62 v=120
67852 On ch=7 n=62 v=0
67873 On ch=7 n=64 v=114
68030 On ch=7 n=64 v=0
68043 On ch=7 n=59 v=114
68206 On ch=7 n=59 v=0
68219 On ch=7 n=62 v=120
68378 On ch=7 n=62 v=0
68389 On ch=7 n=66 v=117
68481 On ch=7 n=66 v=0
68515 On ch=7 n=66 v=87
69104 Par ch=7 c=11 v=126
69107 Par ch=7 c=11 v=125
69112 Par ch=7 c=11 v=124
69123 Par ch=7 c=11 v=123
69130 Par ch=7 c=11 v=122
69138 Par ch=7 c=11 v=121
69146 Par ch=7 c=11 v=120
69151 Par ch=7 c=11 v=119
69157 Par ch=7 c=11 v=118
69162 Par ch=7 c=11 v=117
69167 Par ch=7 c=11 v=116
69170 Par ch=7 c=11 v=115
69175 Par ch=7 c=11 v=114
69180 Par ch=7 c=11 v=113
69188 Par ch=7 c=11 v=112
69193 Par ch=7 c=11 v=111
69198 Par ch=7 c=11 v=110
69204 Par ch=7 c=11 v=109
69209 Par ch=7 c=11 v=108
69214 Par ch=7 c=11 v=107
69219 Par ch=7 c=11 v=106
69222 Par ch=7 c=11 v=105
69225 Par ch=7 c=11 v=104
69230 Par ch=7 c=11 v=103
69235 Par ch=7 c=11 v=102
69240 Par ch=7 c=11 v=101
69251 Par ch=7 c=11 v=100
69264 Par ch=7 c=11 v=99
69272 Par ch=7 c=11 v=98
69280 Par ch=7 c=11 v=97
69285 Par ch=7 c=11 v=96
69290 Par ch=7 c=11 v=95
69295 Par ch=7 c=11 v=94
69303 Par ch=7 c=11 v=93
69314 Par ch=7 c=11 v=92
69324 Par ch=7 c=11 v=91
69329 Par ch=7 c=11 v=90
69343 Par ch=7 c=11 v=89
69353 Par ch=7 c=11 v=88
69361 Par ch=7 c=11 v=87
69379 Par ch=7 c=11 v=86
69390 Par ch=7 c=11 v=85
69398 Par ch=7 c=11 v=84
69405 Par ch=7 c=11 v=83
69411 Par ch=7 c=11 v=82
69416 Par ch=7 c=11 v=81
69424 Par ch=7 c=11 v=80
69434 Par ch=7 c=11 v=79
69442 Par ch=7 c=11 v=78
69447 Par ch=7 c=11 v=77
69455 Par ch=7 c=11 v=76
69460 Par ch=7 c=11 v=75
69466 Par ch=7 c=11 v=74
69468 Par ch=7 c=11 v=73
69474 Par ch=7 c=11 v=72
69479 Par ch=7 c=11 v=71
69487 Par ch=7 c=11 v=70
69492 Par ch=7 c=11 v=69
69500 Par ch=7 c=11 v=68
69508 Par ch=7 c=11 v=67
69513 Par ch=7 c=11 v=66
69518 Par ch=7 c=11 v=65
69526 Par ch=7 c=11 v=64
69534 Par ch=7 c=11 v=63
69539 Par ch=7 c=11 v=62
69550 Par ch=7 c=11 v=61
69555 Par ch=7 c=11 v=60
69563 Par ch=7 c=11 v=59
69571 Par ch=7 c=11 v=58
69581 Par ch=7 c=11 v=57
69589 Par ch=7 c=11 v=56
69594 Par ch=7 c=11 v=55
69602 Par ch=7 c=11 v=54
69610 Par ch=7 c=11 v=53
69615 Par ch=7 c=11 v=52
69618 Par ch=7 c=11 v=51
69626 Par ch=7 c=11 v=50
69633 Par ch=7 c=11 v=49
69639 Par ch=7 c=11 v=48
69647 Par ch=7 c=11 v=47
69652 Par ch=7 c=11 v=46
69657 Par ch=7 c=11 v=45
69665 Par ch=7 c=11 v=44
69667 Par ch=7 c=11 v=43
69673 Par ch=7 c=11 v=42
69681 Par ch=7 c=11 v=41
69686 Par ch=7 c=11 v=40
69691 Par ch=7 c=11 v=39
69696 Par ch=7 c=11 v=38
69699 Par ch=7 c=11 v=37
69704 Par ch=7 c=11 v=36
69707 Par ch=7 c=11 v=35
69712 Par ch=7 c=11 v=34
69712 Par ch=7 c=11 v=33
69717 Par ch=7 c=11 v=32
69722 Par ch=7 c=11 v=31
69722 Par ch=7 c=11 v=30
69725 Par ch=7 c=11 v=29
69730 Par ch=7 c=11 v=28
69733 Par ch=7 c=11 v=27
69736 Par ch=7 c=11 v=26
69741 Par ch=7 c=11 v=25
69746 Par ch=7 c=11 v=24
69751 Par ch=7 c=11 v=23
69751 Par ch=7 c=11 v=22
69757 Par ch=7 c=11 v=21
69757 Par ch=7 c=11 v=20
69762 Par ch=7 c=11 v=19
69767 Par ch=7 c=11 v=18
69770 Par ch=7 c=11 v=17
69775 Par ch=7 c=11 v=16
69780 Par ch=7 c=11 v=15
69785 Par ch=7 c=11 v=14
69791 Par ch=7 c=11 v=13
69796 Par ch=7 c=11 v=12
69801 Par ch=7 c=11 v=11
69806 Par ch=7 c=11 v=10
69809 Par ch=7 c=11 v=9
69814 Par ch=7 c=11 v=8
69819 Par ch=7 c=11 v=7
69822 Par ch=7 c=11 v=6
69830 Par ch=7 c=11 v=5
69833 Par ch=7 c=11 v=4
69838 Par ch=7 c=11 v=3
69843 Par ch=7 c=11 v=2
69846 Par ch=7 c=11 v=1
69851 Par ch=7 c=11 v=0
69987 On ch=7 n=66 v=0
70134 Par ch=7 c=11 v=1
70134 Par ch=7 c=11 v=2
70134 Par ch=7 c=11 v=3
70136 Par ch=7 c=11 v=4
70136 Par ch=7 c=11 v=5
70136 Par ch=7 c=11 v=6
70136 Par ch=7 c=11 v=7
70136 Par ch=7 c=11 v=9
70139 Par ch=7 c=11 v=10
70139 Par ch=7 c=11 v=11
70139 Par ch=7 c=11 v=12
70139 Par ch=7 c=11 v=13
70139 Par ch=7 c=11 v=15
70142 Par ch=7 c=11 v=16
70142 Par ch=7 c=11 v=17
70142 Par ch=7 c=11 v=19
70142 Par ch=7 c=11 v=20
70144 Par ch=7 c=11 v=22
70144 Par ch=7 c=11 v=23
70144 Par ch=7 c=11 v=25
70144 Par ch=7 c=11 v=27
70147 Par ch=7 c=11 v=28
70147 Par ch=7 c=11 v=30
70147 Par ch=7 c=11 v=32
70147 Par ch=7 c=11 v=34
70147 Par ch=7 c=11 v=36
70150 Par ch=7 c=11 v=38
70150 Par ch=7 c=11 v=40
70150 Par ch=7 c=11 v=42
70150 Par ch=7 c=11 v=45
70152 Par ch=7 c=11 v=47
70152 Par ch=7 c=11 v=50
70152 Par ch=7 c=11 v=52
70152 Par ch=7 c=11 v=55
70152 Par ch=7 c=11 v=57
70155 Par ch=7 c=11 v=60
70155 Par ch=7 c=11 v=63
70155 Par ch=7 c=11 v=65
70155 Par ch=7 c=11 v=68
70157 Par ch=7 c=11 v=70
70157 Par ch=7 c=11 v=73
70157 Par ch=7 c=11 v=75
70157 Par ch=7 c=11 v=78
70157 Par ch=7 c=11 v=80
70160 Par ch=7 c=11 v=83
70160 Par ch=7 c=11 v=85
70160 Par ch=7 c=11 v=88
70160 Par ch=7 c=11 v=90
70163 Par ch=7 c=11 v=93
70163 Par ch=7 c=11 v=95
70163 Par ch=7 c=11 v=98
70163 Par ch=7 c=11 v=101
70163 Par ch=7 c=11 v=103
70165 Par ch=7 c=11 v=106
70165 Par ch=7 c=11 v=108
70165 Par ch=7 c=11 v=111
70165 Par ch=7 c=11 v=113
70168 Par ch=7 c=11 v=116
70168 Par ch=7 c=11 v=118
70168 Par ch=7 c=11 v=121
70168 Par ch=7 c=11 v=123
70168 Par ch=7 c=11 v=125
70168 Par ch=7 c=11 v=127
78460 Meta Text "%+"
78478 On ch=7 n=55 v=99
78564 On ch=7 n=55 v=0
78570 On ch=7 n=57 v=99
78601 On ch=7 n=59 v=98
78616 On ch=7 n=57 v=0
78632 On ch=7 n=60 v=99
78633 On ch=7 n=59 v=0
78662 On ch=7 n=60 v=0
78662 On ch=7 n=62 v=90
78692 On ch=7 n=62 v=0
78693 On ch=7 n=64 v=110
78782 On ch=7 n=62 v=89
78788 On ch=7 n=64 v=0
78811 On ch=7 n=60 v=89
78819 On ch=7 n=62 v=0
78841 On ch=7 n=59 v=87
78845 On ch=7 n=60 v=0
78867 On ch=7 n=59 v=0
78869 On ch=7 n=57 v=87
78892 On ch=7 n=57 v=0
78899 On ch=7 n=55 v=98
78955 On ch=7 n=55 v=0
78959 On ch=7 n=53 v=99
79045 On ch=7 n=53 v=0
79048 On ch=7 n=55 v=98
79078 On ch=7 n=55 v=0
79078 On ch=7 n=57 v=85
79108 On ch=7 n=57 v=0
79108 On ch=7 n=58 v=95
79134 On ch=7 n=58 v=0
79138 On ch=7 n=60 v=95
79166 On ch=7 n=60 v=0
79168 On ch=7 n=62 v=98
79258 On ch=7 n=60 v=90
79277 On ch=7 n=62 v=0
79289 On ch=7 n=58 v=101
79304 On ch=7 n=60 v=0
79318 On ch=7 n=57 v=86
79326 On ch=7 n=58 v=0
79344 On ch=7 n=57 v=0
79349 On ch=7 n=55 v=83
79370 On ch=7 n=55 v=0
79378 On ch=7 n=53 v=94
79434 On ch=7 n=53 v=0
79438 On ch=7 n=55 v=100
79529 On ch=7 n=57 v=105
79535 On ch=7 n=55 v=0
79559 On ch=7 n=59 v=98
79566 On ch=7 n=57 v=0
79591 On ch=7 n=59 v=0
79591 On ch=7 n=60 v=98
79614 On ch=7 n=60 v=0
79619 On ch=7 n=62 v=93
79646 On ch=7 n=62 v=0
79651 On ch=7 n=64 v=99
79741 On ch=7 n=62 v=94
79751 On ch=7 n=64 v=0
79769 On ch=7 n=60 v=100
79775 On ch=7 n=62 v=0
79800 On ch=7 n=59 v=87
79804 On ch=7 n=60 v=0
79823 On ch=7 n=59 v=0
79830 On ch=7 n=57 v=85
79853 On ch=7 n=57 v=0
79858 On ch=7 n=55 v=92
79918 On ch=7 n=55 v=0
79922 On ch=7 n=53 v=99
79941 On ch=7 n=53 v=0
79951 On ch=7 n=57 v=94
79974 On ch=7 n=57 v=0
79982 On ch=7 n=58 v=90
80008 On ch=7 n=58 v=0
80010 On ch=7 n=60 v=93
80038 On ch=7 n=60 v=0
80040 On ch=7 n=62 v=97
80069 On ch=7 n=60 v=87
80077 On ch=7 n=62 v=0
80100 On ch=7 n=58 v=83
80111 On ch=7 n=60 v=0
80128 On ch=7 n=57 v=84
80138 On ch=7 n=58 v=0
80151 On ch=7 n=57 v=0
80157 On ch=7 n=55 v=85
80187 On ch=7 n=53 v=97
80196 On ch=7 n=55 v=0
80206 On ch=7 n=53 v=0
80218 On ch=7 n=50 v=97
80239 On ch=7 n=50 v=0
80248 On ch=7 n=48 v=90
80275 On ch=7 n=48 v=0
80279 On ch=7 n=46 v=96
80337 On ch=7 n=46 v=0
80343 On ch=7 n=43 v=101
80360 Meta Text "%-"
80383 On ch=7 n=43 v=0
80400 On ch=7 n=52 v=101
80521 On ch=7 n=52 v=0
80521 On ch=7 n=54 v=91
80595 On ch=7 n=54 v=0
80637 On ch=7 n=55 v=119
80698 On ch=7 n=55 v=0
80700 On ch=7 n=57 v=94
80761 On ch=7 n=57 v=0
80817 On ch=7 n=59 v=109
80989 On ch=7 n=59 v=0
80997 On ch=7 n=60 v=103
81076 On ch=7 n=60 v=0
81116 On ch=7 n=62 v=127
81179 On ch=7 n=62 v=0
81179 On ch=7 n=64 v=111
81253 On ch=7 n=64 v=0
81297 On ch=7 n=66 v=127
81469 On ch=7 n=66 v=0
81478 On ch=7 n=67 v=99
81583 On ch=7 n=67 v=0
81601 On ch=7 n=69 v=114
81664 On ch=7 n=71 v=117
81683 On ch=7 n=69 v=0
81704 On ch=7 n=71 v=0
81779 On ch=7 n=71 v=109
81831 On ch=7 n=71 v=0
81831 On ch=7 n=72 v=94
81860 On ch=7 n=72 v=0
81906 On ch=7 n=71 v=84
81929 On ch=7 n=71 v=0
81929 On ch=7 n=72 v=87
81953 On ch=7 n=71 v=85
81958 On ch=7 n=72 v=0
81977 On ch=7 n=71 v=0
81977 On ch=7 n=72 v=87
81998 On ch=7 n=72 v=0
81998 On ch=7 n=71 v=83
82019 On ch=7 n=72 v=87
82024 On ch=7 n=71 v=0
82043 On ch=7 n=71 v=86
82048 On ch=7 n=72 v=0
82064 On ch=7 n=72 v=94
82069 On ch=7 n=71 v=0
82090 On ch=7 n=71 v=95
82098 On ch=7 n=72 v=0
82394 On ch=7 n=71 v=0
82397 On ch=7 n=71 v=91
82428 On ch=7 n=71 v=0
82428 On ch=7 n=72 v=91
82444 On ch=7 n=71 v=87
82449 On ch=7 n=72 v=0
82473 On ch=7 n=71 v=0
82473 On ch=7 n=72 v=88
82489 On ch=7 n=71 v=86
82494 On ch=7 n=72 v=0
82513 On ch=7 n=72 v=88
82518 On ch=7 n=71 v=0
82539 On ch=7 n=72 v=0
82539 On ch=7 n=71 v=89
82560 On ch=7 n=71 v=0
82560 On ch=7 n=72 v=97
82584 On ch=7 n=71 v=91
82587 On ch=7 n=72 v=0
82590 Meta Text "%+"
82790 On ch=7 n=71 v=0
82790 Meta TrkEnd
TrkEnd
MTrk
0 Meta 0x21 00
0 Meta TrkName "Guitar 2"
0 PrCh ch=8 p=29
0 Par ch=8 c=7 v=90
0 Par ch=8 c=10 v=90
0 Meta Text "%-"
0 Par ch=8 c=121 v=0
2 Par ch=8 c=0 v=0
4 Par ch=8 c=32 v=0
6 Par ch=8 c=11 v=127
8 Par ch=8 c=91 v=110
10 Par ch=8 c=93 v=127
6958 On ch=8 n=52 v=108
6988 On ch=8 n=50 v=74
6998 On ch=8 n=52 v=0
7018 On ch=8 n=47 v=82
7020 On ch=8 n=50 v=0
7047 On ch=8 n=47 v=0
7048 On ch=8 n=45 v=91
7077 On ch=8 n=45 v=0
7078 On ch=8 n=47 v=115
7107 On ch=8 n=45 v=86
7112 On ch=8 n=47 v=0
7140 On ch=8 n=43 v=78
7142 On ch=8 n=45 v=0
7170 On ch=8 n=43 v=0
7170 On ch=8 n=42 v=79
7198 On ch=8 n=40 v=81
7200 On ch=8 n=42 v=0
7319 On ch=8 n=40 v=0
8879 On ch=8 n=52 v=100
8908 On ch=8 n=50 v=89
8913 On ch=8 n=52 v=0
8939 On ch=8 n=47 v=83
8940 On ch=8 n=50 v=0
8968 On ch=8 n=47 v=0
8969 On ch=8 n=45 v=90
8998 On ch=8 n=47 v=88
8999 On ch=8 n=45 v=0
9030 On ch=8 n=45 v=87
9035 On ch=8 n=47 v=0
9058 On ch=8 n=43 v=78
9060 On ch=8 n=45 v=0
9088 On ch=8 n=43 v=0
9089 On ch=8 n=42 v=84
9121 On ch=8 n=40 v=79
9123 On ch=8 n=42 v=0
9237 On ch=8 n=40 v=0
13440 Par ch=8 c=1 v=1
13440 Par ch=8 c=1 v=6
13440 Par ch=8 c=1 v=12
13440 Par ch=8 c=1 v=17
13440 Par ch=8 c=1 v=21
13440 Pb ch=8 v=8322
13440 Par ch=8 c=1 v=26
13440 Pb ch=8 v=8842
13440 Par ch=8 c=1 v=31
13440 Pb ch=8 v=9232
13440 Par ch=8 c=1 v=36
13440 Pb ch=8 v=9492
13440 Par ch=8 c=1 v=40
13440 Pb ch=8 v=9752
13440 Par ch=8 c=1 v=44
13440 Pb ch=8 v=10142
13440 Par ch=8 c=1 v=48
13440 Pb ch=8 v=10402
13440 Par ch=8 c=1 v=52
13440 Pb ch=8 v=10532
13440 Par ch=8 c=1 v=56
13440 Pb ch=8 v=10792
13440 Par ch=8 c=1 v=60
13440 Pb ch=8 v=10922
13440 Par ch=8 c=1 v=63
13440 Pb ch=8 v=11052
13440 Par ch=8 c=1 v=66
13440 Pb ch=8 v=11312
13440 Par ch=8 c=1 v=69
13440 Par ch=8 c=1 v=72
13440 Par ch=8 c=1 v=75
13440 Par ch=8 c=1 v=78
13440 Par ch=8 c=1 v=80
13440 Pb ch=8 v=11052
13440 Par ch=8 c=1 v=83
13440 Pb ch=8 v=10922
13440 Par ch=8 c=1 v=85
13440 Pb ch=8 v=10662
13440 Par ch=8 c=1 v=88
13440 Pb ch=8 v=10402
13440 Par ch=8 c=1 v=90
13440 Pb ch=8 v=10012
13440 Par ch=8 c=1 v=92
13440 Pb ch=8 v=9622
13440 Par ch=8 c=1 v=94
13440 Pb ch=8 v=9102
13440 Par ch=8 c=1 v=95
13440 Pb ch=8 v=8582
13440 Par ch=8 c=1 v=97
13440 Pb ch=8 v=8192
13440 Par ch=8 c=1 v=98
13440 Par ch=8 c=1 v=99
13440 Par ch=8 c=1 v=100
13440 Par ch=8 c=1 v=101
13440 Par ch=8 c=1 v=100
13440 Par ch=8 c=1 v=99
13440 Par ch=8 c=1 v=98
13440 Par ch=8 c=1 v=97
13440 Par ch=8 c=1 v=96
13440 Par ch=8 c=1 v=94
13440 Par ch=8 c=1 v=93
13440 Par ch=8 c=1 v=91
13440 Par ch=8 c=1 v=90
13440 Par ch=8 c=1 v=88
13440 Par ch=8 c=1 v=86
13440 Par ch=8 c=1 v=84
13440 Par ch=8 c=1 v=81
13440 Par ch=8 c=1 v=79
13440 Par ch=8 c=1 v=76
13440 Par ch=8 c=1 v=74
13440 Par ch=8 c=1 v=71
13440 Par ch=8 c=1 v=68
13440 Par ch=8 c=1 v=65
13440 Par ch=8 c=1 v=62
13440 Par ch=8 c=1 v=59
13440 Par ch=8 c=1 v=56
13440 Par ch=8 c=1 v=52
13440 Par ch=8 c=1 v=49
13440 Par ch=8 c=1 v=45
13440 Par ch=8 c=1 v=42
13440 Par ch=8 c=1 v=38
13440 Par ch=8 c=1 v=34
13440 Par ch=8 c=1 v=31
13440 Par ch=8 c=1 v=27
13440 Par ch=8 c=1 v=23
13440 Par ch=8 c=1 v=19
13440 Par ch=8 c=1 v=15
13440 Par ch=8 c=1 v=11
13440 Par ch=8 c=1 v=7
13440 Par ch=8 c=1 v=3
13440 Par ch=8 c=1 v=0
14457 On ch=8 n=64 v=73
14458 On ch=8 n=59 v=78
14458 On ch=8 n=55 v=74
14485 On ch=8 n=59 v=0
14491 On ch=8 n=55 v=0
14500 On ch=8 n=64 v=0
14519 On ch=8 n=61 v=77
14519 On ch=8 n=66 v=88
14519 On ch=8 n=57 v=69
14609 On ch=8 n=57 v=0
14626 On ch=8 n=61 v=0
14631 On ch=8 n=66 v=0
14641 On ch=8 n=67 v=80
14641 On ch=8 n=62 v=78
14641 On ch=8 n=59 v=73
14715 On ch=8 n=62 v=0
14724 On ch=8 n=59 v=0
14730 Par ch=8 c=1 v=1
14730 Par ch=8 c=1 v=6
14730 Par ch=8 c=1 v=11
14730 Par ch=8 c=1 v=15
14736 Par ch=8 c=1 v=19
14736 Par ch=8 c=1 v=23
14736 Par ch=8 c=1 v=27
14736 Par ch=8 c=1 v=30
14736 Par ch=8 c=1 v=34
14736 Par ch=8 c=1 v=37
14736 Par ch=8 c=1 v=41
14736 Par ch=8 c=1 v=44
14736 Par ch=8 c=1 v=47
14741 Par ch=8 c=1 v=50
14741 Par ch=8 c=1 v=53
14741 Par ch=8 c=1 v=55
14741 Par ch=8 c=1 v=58
14741 Par ch=8 c=1 v=61
14741 Par ch=8 c=1 v=63
14741 Par ch=8 c=1 v=66
14741 Par ch=8 c=1 v=68
14741 Par ch=8 c=1 v=70
14746 Par ch=8 c=1 v=72
14746 Par ch=8 c=1 v=74
14746 Par ch=8 c=1 v=76
14746 Par ch=8 c=1 v=78
14746 Par ch=8 c=1 v=80
14746 Par ch=8 c=1 v=82
14746 Par ch=8 c=1 v=84
14746 Par ch=8 c=1 v=85
14746 Par ch=8 c=1 v=87
14752 Par ch=8 c=1 v=88
14752 Par ch=8 c=1 v=90
14752 Par ch=8 c=1 v=91
14752 Par ch=8 c=1 v=92
14752 Par ch=8 c=1 v=93
14752 Par ch=8 c=1 v=95
14752 Par ch=8 c=1 v=96
14752 Par ch=8 c=1 v=97
14752 Par ch=8 c=1 v=98
14757 Par ch=8 c=1 v=99
14757 Par ch=8 c=1 v=100
14757 Par ch=8 c=1 v=101
14757 Par ch=8 c=1 v=102
14760 Par ch=8 c=1 v=103
14760 Par ch=8 c=1 v=104
14760 Par ch=8 c=1 v=105
14760 On ch=8 n=66 v=78
14760 Par ch=8 c=1 v=106
14760 On ch=8 n=61 v=76
14760 On ch=8 n=57 v=74
14767 On ch=8 n=67 v=0
14768 Par ch=8 c=1 v=105
14768 Par ch=8 c=1 v=104
14768 Par ch=8 c=1 v=103
14774 Par ch=8 c=1 v=102
14774 Par ch=8 c=1 v=101
14774 Par ch=8 c=1 v=100
14774 Par ch=8 c=1 v=99
14779 Par ch=8 c=1 v=98
14779 Par ch=8 c=1 v=97
14779 Par ch=8 c=1 v=96
14779 Par ch=8 c=1 v=95
14779 Par ch=8 c=1 v=94
14779 Par ch=8 c=1 v=93
14779 Par ch=8 c=1 v=92
14779 Par ch=8 c=1 v=91
14785 Par ch=8 c=1 v=90
14785 Par ch=8 c=1 v=89
14785 Par ch=8 c=1 v=87
14785 Par ch=8 c=1 v=86
14785 Par ch=8 c=1 v=85
14785 Par ch=8 c=1 v=84
14785 Par ch=8 c=1 v=83
14785 Par ch=8 c=1 v=81
14785 Par ch=8 c=1 v=80
14790 Par ch=8 c=1 v=79
14790 Par ch=8 c=1 v=77
14790 Par ch=8 c=1 v=76
14790 Par ch=8 c=1 v=74
14790 Par ch=8 c=1 v=73
14790 Par ch=8 c=1 v=71
14790 Par ch=8 c=1 v=70
14790 Par ch=8 c=1 v=68
14790 Par ch=8 c=1 v=67
14796 Par ch=8 c=1 v=65
14796 Par ch=8 c=1 v=64
14796 Par ch=8 c=1 v=62
14796 Par ch=8 c=1 v=61
14796 Par ch=8 c=1 v=59
14796 Par ch=8 c=1 v=57
14796 Par ch=8 c=1 v=56
14796 Par ch=8 c=1 v=54
14796 Par ch=8 c=1 v=52
14801 Par ch=8 c=1 v=51
14801 Par ch=8 c=1 v=49
14801 Par ch=8 c=1 v=48
14801 Par ch=8 c=1 v=46
14801 Par ch=8 c=1 v=44
14801 Par ch=8 c=1 v=42
14801 Par ch=8 c=1 v=40
14801 Par ch=8 c=1 v=38
14801 Par ch=8 c=1 v=37
14807 Par ch=8 c=1 v=35
14807 Par ch=8 c=1 v=33
14807 Par ch=8 c=1 v=31
14807 Par ch=8 c=1 v=29
14807 Par ch=8 c=1 v=27
14807 Par ch=8 c=1 v=26
14807 Par ch=8 c=1 v=24
14807 Par ch=8 c=1 v=22
14807 Par ch=8 c=1 v=20
14812 Par ch=8 c=1 v=18
14812 Par ch=8 c=1 v=16
14812 Par ch=8 c=1 v=14
14812 Par ch=8 c=1 v=13
14812 Par ch=8 c=1 v=11
14812 Par ch=8 c=1 v=9
14812 Par ch=8 c=1 v=7
14812 Par ch=8 c=1 v=5
14812 Par ch=8 c=1 v=4
14818 Par ch=8 c=1 v=2
14818 Par ch=8 c=1 v=1
14864 On ch=8 n=57 v=0
14873 On ch=8 n=61 v=0
14873 On ch=8 n=66 v=0
14882 On ch=8 n=67 v=82
14883 On ch=8 n=62 v=79
14883 On ch=8 n=59 v=75
14900 Par ch=8 c=1 v=0
14954 On ch=8 n=62 v=0
14960 On ch=8 n=59 v=0
15002 On ch=8 n=66 v=76
15002 On ch=8 n=57 v=74
15003 On ch=8 n=61 v=78
15006 On ch=8 n=67 v=0
15043 On ch=8 n=66 v=0
15044 On ch=8 n=61 v=0
15049 On ch=8 n=57 v=0
15063 On ch=8 n=64 v=79
15063 On ch=8 n=59 v=80
15064 On ch=8 n=55 v=74
15100 Par ch=8 c=1 v=1
15100 Par ch=8 c=1 v=3
15100 Par ch=8 c=1 v=4
15100 Par ch=8 c=1 v=7
15100 Par ch=8 c=1 v=9
15100 Par ch=8 c=1 v=12
15100 Par ch=8 c=1 v=14
15100 Par ch=8 c=1 v=16
15100 Par ch=8 c=1 v=18
15100 Par ch=8 c=1 v=21
15100 Par ch=8 c=1 v=23
15100 Par ch=8 c=1 v=25
15100 Par ch=8 c=1 v=27
15100 Par ch=8 c=1 v=29
15100 Par ch=8 c=1 v=31
15100 Par ch=8 c=1 v=34
15100 Par ch=8 c=1 v=35
15100 Par ch=8 c=1 v=37
15100 Par ch=8 c=1 v=39
15100 Par ch=8 c=1 v=41
15100 Par ch=8 c=1 v=43
15100 Par ch=8 c=1 v=45
15100 Par ch=8 c=1 v=47
15100 Par ch=8 c=1 v=48
15100 Par ch=8 c=1 v=50
15100 Par ch=8 c=1 v=52
15100 Par ch=8 c=1 v=54
15100 Par ch=8 c=1 v=55
15100 Par ch=8 c=1 v=56
15100 Par ch=8 c=1 v=58
15100 Par ch=8 c=1 v=60
15100 Par ch=8 c=1 v=61
15100 Par ch=8 c=1 v=62
15100 Par ch=8 c=1 v=64
15100 Par ch=8 c=1 v=65
15100 Par ch=8 c=1 v=67
15100 Par ch=8 c=1 v=68
15100 Par ch=8 c=1 v=69
15100 Par ch=8 c=1 v=71
15100 Par ch=8 c=1 v=72
15100 Par ch=8 c=1 v=73
15100 Par ch=8 c=1 v=74
15100 Par ch=8 c=1 v=76
15100 Par ch=8 c=1 v=77
15100 Par ch=8 c=1 v=78
15100 Par ch=8 c=1 v=79
15100 Par ch=8 c=1 v=80
15100 Par ch=8 c=1 v=81
15100 Par ch=8 c=1 v=82
15100 Par ch=8 c=1 v=83
15100 Par ch=8 c=1 v=84
15100 Par ch=8 c=1 v=85
15108 Par ch=8 c=1 v=86
15116 Par ch=8 c=1 v=87
15116 Par ch=8 c=1 v=88
15122 Par ch=8 c=1 v=89
15136 Par ch=8 c=1 v=90
15136 Par ch=8 c=1 v=91
15136 Par ch=8 c=1 v=92
15136 Par ch=8 c=1 v=93
15136 Par ch=8 c=1 v=94
15136 Par ch=8 c=1 v=95
15141 Par ch=8 c=1 v=96
15141 Par ch=8 c=1 v=97
15141 Par ch=8 c=1 v=98
15141 Par ch=8 c=1 v=99
15147 Par ch=8 c=1 v=100
15147 Par ch=8 c=1 v=101
15147 Par ch=8 c=1 v=102
15152 Par ch=8 c=1 v=103
15157 Par ch=8 c=1 v=104
15163 Par ch=8 c=1 v=105
15179 Par ch=8 c=1 v=106
15190 Par ch=8 c=1 v=107
15204 Par ch=8 c=1 v=108
15212 Par ch=8 c=1 v=107
15218 Par ch=8 c=1 v=106
15218 Par ch=8 c=1 v=105
15221 Par ch=8 c=1 v=104
15221 Par ch=8 c=1 v=103
15221 Par ch=8 c=1 v=102
15221 Par ch=8 c=1 v=101
15221 Par ch=8 c=1 v=100
15226 Par ch=8 c=1 v=99
15226 Par ch=8 c=1 v=98
15226 Par ch=8 c=1 v=97
15226 Par ch=8 c=1 v=96
15231 Par ch=8 c=1 v=95
15231 Par ch=8 c=1 v=94
15231 Par ch=8 c=1 v=93
15231 Par ch=8 c=1 v=92
15231 Par ch=8 c=1 v=91
15231 Par ch=8 c=1 v=90
15231 Par ch=8 c=1 v=89
15231 Par ch=8 c=1 v=88
15231 Par ch=8 c=1 v=86
15237 Par ch=8 c=1 v=85
15237 Par ch=8 c=1 v=84
15237 Par ch=8 c=1 v=83
15237 Par ch=8 c=1 v=81
15237 Par ch=8 c=1 v=80
15237 Par ch=8 c=1 v=78
15237 Par ch=8 c=1 v=77
15237 Par ch=8 c=1 v=75
15237 Par ch=8 c=1 v=73
15242 Par ch=8 c=1 v=72
15242 Par ch=8 c=1 v=70
15242 Par ch=8 c=1 v=68
15242 Par ch=8 c=1 v=66
15242 Par ch=8 c=1 v=65
15242 Par ch=8 c=1 v=63
15242 Par ch=8 c=1 v=61
15242 Par ch=8 c=1 v=59
15242 Par ch=8 c=1 v=57
15248 Par ch=8 c=1 v=55
15248 Par ch=8 c=1 v=53
15248 Par ch=8 c=1 v=51
15248 Par ch=8 c=1 v=49
15248 Par ch=8 c=1 v=47
15248 Par ch=8 c=1 v=45
15248 Par ch=8 c=1 v=43
15248 Par ch=8 c=1 v=41
15248 Par ch=8 c=1 v=39
15248 Par ch=8 c=1 v=37
15248 Par ch=8 c=1 v=34
15248 Par ch=8 c=1 v=32
15248 Par ch=8 c=1 v=30
15248 Par ch=8 c=1 v=28
15248 Par ch=8 c=1 v=26
15248 Par ch=8 c=1 v=24
15248 Par ch=8 c=1 v=22
15248 Par ch=8 c=1 v=20
15248 Par ch=8 c=1 v=18
15248 Par ch=8 c=1 v=16
15248 Par ch=8 c=1 v=15
15248 Par ch=8 c=1 v=13
15248 Par ch=8 c=1 v=10
15248 Par ch=8 c=1 v=7
15248 Par ch=8 c=1 v=5
15248 Par ch=8 c=1 v=2
15248 Par ch=8 c=1 v=0
15401 On ch=8 n=55 v=0
15403 On ch=8 n=64 v=0
15411 On ch=8 n=59 v=0
15416 On ch=8 n=62 v=90
15477 On ch=8 n=64 v=101
15484 On ch=8 n=62 v=0
15530 Pb ch=8 v=8322
15530 Pb ch=8 v=8452
15536 Pb ch=8 v=8582
15536 Pb ch=8 v=8712
15536 Pb ch=8 v=8842
15536 Pb ch=8 v=8972
15536 Pb ch=8 v=9102
15536 Pb ch=8 v=9232
15536 Pb ch=8 v=9362
15538 Pb ch=8 v=9492
15544 Pb ch=8 v=9622
15544 Pb ch=8 v=9752
15544 Pb ch=8 v=9882
15549 Pb ch=8 v=10012
15549 Pb ch=8 v=10142
15549 Pb ch=8 v=10272
15549 Pb ch=8 v=10402
15555 Pb ch=8 v=10532
15555 Pb ch=8 v=10662
15555 Pb ch=8 v=10792
15555 Pb ch=8 v=10922
15555 Pb ch=8 v=11052
15558 Pb ch=8 v=11312
15560 Pb ch=8 v=11442
15566 Pb ch=8 v=11572
15566 Pb ch=8 v=11702
15566 Pb ch=8 v=11832
15566 Pb ch=8 v=11962
15566 Pb ch=8 v=12092
15571 Pb ch=8 v=12222
15571 Pb ch=8 v=12352
15571 Pb ch=8 v=12482
15571 Pb ch=8 v=12612
15577 Pb ch=8 v=12742
15582 Pb ch=8 v=12872
15582 Pb ch=8 v=13002
15582 Pb ch=8 v=13132
15582 Pb ch=8 v=13262
15582 Pb ch=8 v=13392
15588 Pb ch=8 v=13522
15588 Pb ch=8 v=13652
15588 Pb ch=8 v=13782
15593 Pb ch=8 v=13912
15593 Pb ch=8 v=14042
15593 Pb ch=8 v=14172
15599 Pb ch=8 v=14302
15601 Pb ch=8 v=14432
15601 Pb ch=8 v=14562
15601 Pb ch=8 v=14692
15601 Pb ch=8 v=14822
15607 Pb ch=8 v=14952
15607 Pb ch=8 v=15082
15612 Pb ch=8 v=15212
15612 Pb ch=8 v=15342
15612 Pb ch=8 v=15472
15618 Pb ch=8 v=15602
15618 Pb ch=8 v=15732
15618 Pb ch=8 v=15862
15623 Pb ch=8 v=15992
15623 Pb ch=8 v=16122
15629 Pb ch=8 v=16252
15629 Pb ch=8 v=16382
15886 Par ch=8 c=1 v=1
15886 Par ch=8 c=1 v=2
15889 Par ch=8 c=1 v=3
15889 Par ch=8 c=1 v=4
15889 Par ch=8 c=1 v=5
15895 Par ch=8 c=1 v=6
15895 Par ch=8 c=1 v=7
15895 Par ch=8 c=1 v=8
15895 Par ch=8 c=1 v=9
15900 Par ch=8 c=1 v=10
15900 Par ch=8 c=1 v=11
15900 Par ch=8 c=1 v=12
15900 Par ch=8 c=1 v=13
15900 Par ch=8 c=1 v=14
15900 Par ch=8 c=1 v=15
15906 Par ch=8 c=1 v=16
15906 Par ch=8 c=1 v=17
15906 Par ch=8 c=1 v=18
15906 Par ch=8 c=1 v=19
15906 Par ch=8 c=1 v=20
15911 Par ch=8 c=1 v=21
15911 Par ch=8 c=1 v=22
15911 Par ch=8 c=1 v=23
15911 Par ch=8 c=1 v=24
15911 Par ch=8 c=1 v=25
15911 Par ch=8 c=1 v=26
15911 Par ch=8 c=1 v=27
15911 Par ch=8 c=1 v=28
15919 Par ch=8 c=1 v=29
15919 Par ch=8 c=1 v=30
15919 Par ch=8 c=1 v=31
15919 Par ch=8 c=1 v=32
15925 Par ch=8 c=1 v=33
15925 Par ch=8 c=1 v=34
15925 Par ch=8 c=1 v=35
15925 Par ch=8 c=1 v=36
15925 Par ch=8 c=1 v=37
15930 Par ch=8 c=1 v=38
15933 Par ch=8 c=1 v=39
15933 Par ch=8 c=1 v=40
15933 Par ch=8 c=1 v=41
15933 Par ch=8 c=1 v=42
15938 Par ch=8 c=1 v=43
15938 Par ch=8 c=1 v=44
15938 Par ch=8 c=1 v=45
15944 Par ch=8 c=1 v=46
15944 Par ch=8 c=1 v=47
15949 Par ch=8 c=1 v=48
15949 Par ch=8 c=1 v=49
15952 Par ch=8 c=1 v=50
15952 Par ch=8 c=1 v=51
15958 Par ch=8 c=1 v=52
15958 Par ch=8 c=1 v=53
15963 Par ch=8 c=1 v=54
15963 Par ch=8 c=1 v=55
15969 Par ch=8 c=1 v=56
15971 Par ch=8 c=1 v=57
15974 Par ch=8 c=1 v=58
15974 Par ch=8 c=1 v=59
15979 Par ch=8 c=1 v=60
15979 Par ch=8 c=1 v=61
15985 Par ch=8 c=1 v=62
15985 Par ch=8 c=1 v=63
15990 Par ch=8 c=1 v=64
15993 Par ch=8 c=1 v=65
15993 Par ch=8 c=1 v=66
15999 Par ch=8 c=1 v=67
15999 Par ch=8 c=1 v=68
16004 Par ch=8 c=1 v=69
16010 Par ch=8 c=1 v=70
16010 Par ch=8 c=1 v=71
16015 Par ch=8 c=1 v=72
16021 Par ch=8 c=1 v=73
16026 Par ch=8 c=1 v=74
16026 Par ch=8 c=1 v=75
16032 Par ch=8 c=1 v=76
16037 Par ch=8 c=1 v=77
16040 Par ch=8 c=1 v=78
16043 Par ch=8 c=1 v=79
16048 Par ch=8 c=1 v=80
16053 Par ch=8 c=1 v=81
16059 Par ch=8 c=1 v=82
16062 Par ch=8 c=1 v=83
16067 Par ch=8 c=1 v=84
16073 Par ch=8 c=1 v=85
16114 Par ch=8 c=1 v=84
16121 On ch=8 n=64 v=0
16122 Par ch=8 c=1 v=83
16174 Par ch=8 c=1 v=82
16180 Par ch=8 c=1 v=81
16180 Par ch=8 c=1 v=80
16180 Par ch=8 c=1 v=79
16185 Par ch=8 c=1 v=78
16185 Par ch=8 c=1 v=77
16188 Par ch=8 c=1 v=76
16190 Par ch=8 c=1 v=75
16190 Par ch=8 c=1 v=74
16190 Par ch=8 c=1 v=73
16196 Par ch=8 c=1 v=72
16196 Par ch=8 c=1 v=71
16196 Par ch=8 c=1 v=70
16196 Par ch=8 c=1 v=69
16196 Par ch=8 c=1 v=68
16201 Par ch=8 c=1 v=67
16201 Par ch=8 c=1 v=66
16201 Par ch=8 c=1 v=65
16201 Par ch=8 c=1 v=64
16201 Par ch=8 c=1 v=63
16201 Par ch=8 c=1 v=62
16201 Par ch=8 c=1 v=61
16201 Par ch=8 c=1 v=60
16201 Par ch=8 c=1 v=59
16201 Par ch=8 c=1 v=58
16201 Par ch=8 c=1 v=57
16201 Par ch=8 c=1 v=56
16201 Par ch=8 c=1 v=55
16201 Par ch=8 c=1 v=53
16201 Par ch=8 c=1 v=52
16201 Par ch=8 c=1 v=51
16201 Par ch=8 c=1 v=49
16204 Par ch=8 c=1 v=48
16204 Par ch=8 c=1 v=46
16204 Par ch=8 c=1 v=44
16204 Par ch=8 c=1 v=43
16204 Par ch=8 c=1 v=41
16204 Par ch=8 c=1 v=39
16204 Par ch=8 c=1 v=37
16204 Par ch=8 c=1 v=35
16204 Par ch=8 c=1 v=33
16204 Par ch=8 c=1 v=31
16204 Par ch=8 c=1 v=29
16207 Par ch=8 c=1 v=27
16207 Par ch=8 c=1 v=25
16207 Par ch=8 c=1 v=23
16215 Par ch=8 c=1 v=21
16218 Par ch=8 c=1 v=19
16218 Par ch=8 c=1 v=17
16218 Pb ch=8 v=16122
16218 Par ch=8 c=1 v=15
16218 Pb ch=8 v=15732
16218 Par ch=8 c=1 v=13
16218 Pb ch=8 v=15342
16218 Par ch=8 c=1 v=12
16218 Pb ch=8 v=14952
16218 Par ch=8 c=1 v=10
16218 Pb ch=8 v=14302
16218 Par ch=8 c=1 v=9
16218 Pb ch=8 v=13782
16218 Par ch=8 c=1 v=8
16218 Pb ch=8 v=13132
16218 Par ch=8 c=1 v=7
16218 Pb ch=8 v=12222
16218 Pb ch=8 v=11442
16218 Pb ch=8 v=10532
16218 Par ch=8 c=1 v=6
16218 Pb ch=8 v=9622
16218 Pb ch=8 v=8842
16218 Pb ch=8 v=8192
16393 Par ch=8 c=1 v=5
16393 Par ch=8 c=1 v=4
16393 Par ch=8 c=1 v=3
16399 Par ch=8 c=1 v=2
16399 Par ch=8 c=1 v=1
16399 Par ch=8 c=1 v=0
16549 Pb ch=8 v=8064
16549 Pb ch=8 v=7936
16549 Pb ch=8 v=7808
16549 Pb ch=8 v=7680
16549 Pb ch=8 v=7552
16555 Pb ch=8 v=7424
16555 Pb ch=8 v=7296
16555 Pb ch=8 v=7168
16560 Pb ch=8 v=7296
16560 Pb ch=8 v=7424
16560 Pb ch=8 v=7680
16560 Pb ch=8 v=7936
16560 Pb ch=8 v=8192
29221 On ch=8 n=55 v=75
29221 On ch=8 n=64 v=76
29222 On ch=8 n=59 v=75
29318 On ch=8 n=59 v=0
29322 On ch=8 n=55 v=0
29327 On ch=8 n=64 v=0
29342 On ch=8 n=64 v=76
29342 On ch=8 n=59 v=79
29342 On ch=8 n=55 v=73
29368 On ch=8 n=55 v=0
29370 On ch=8 n=59 v=0
29375 On ch=8 n=64 v=0
29402 On ch=8 n=66 v=87
29402 On ch=8 n=57 v=69
29402 On ch=8 n=61 v=76
29488 On ch=8 n=57 v=0
29500 On ch=8 n=61 v=0
29500 On ch=8 n=66 v=0
29522 On ch=8 n=59 v=74
29522 On ch=8 n=67 v=85
29522 On ch=8 n=62 v=80
29598 On ch=8 n=62 v=0
29600 On ch=8 n=59 v=0
29621 On ch=8 n=67 v=0
29641 On ch=8 n=61 v=78
29641 On ch=8 n=57 v=73
29641 On ch=8 n=66 v=78
29724 On ch=8 n=57 v=0
29731 On ch=8 n=61 v=0
29736 On ch=8 n=66 v=0
29759 On ch=8 n=67 v=87
29759 On ch=8 n=62 v=86
29759 On ch=8 n=59 v=78
29832 On ch=8 n=62 v=0
29840 On ch=8 n=59 v=0
29865 On ch=8 n=67 v=0
29879 On ch=8 n=66 v=78
29881 On ch=8 n=57 v=74
29881 On ch=8 n=61 v=81
29914 On ch=8 n=66 v=0
29916 On ch=8 n=57 v=0
29921 On ch=8 n=61 v=0
29939 On ch=8 n=59 v=83
29939 On ch=8 n=64 v=81
29939 On ch=8 n=55 v=79
30002 Par ch=8 c=1 v=1
30002 Par ch=8 c=1 v=3
30004 Par ch=8 c=1 v=5
30004 Par ch=8 c=1 v=7
30004 Par ch=8 c=1 v=9
30004 Par ch=8 c=1 v=10
30004 Par ch=8 c=1 v=12
30004 Par ch=8 c=1 v=13
30004 Par ch=8 c=1 v=14
30004 Par ch=8 c=1 v=16
30004 Par ch=8 c=1 v=17
30004 Par ch=8 c=1 v=18
30004 Par ch=8 c=1 v=20
30004 Par ch=8 c=1 v=21
30004 Par ch=8 c=1 v=22
30004 Par ch=8 c=1 v=24
30004 Par ch=8 c=1 v=25
30004 Par ch=8 c=1 v=26
30004 Par ch=8 c=1 v=27
30004 Par ch=8 c=1 v=28
30004 Par ch=8 c=1 v=29
30007 Par ch=8 c=1 v=30
30007 Par ch=8 c=1 v=31
30017 Par ch=8 c=1 v=32
30017 Par ch=8 c=1 v=33
30019 Par ch=8 c=1 v=34
30019 Par ch=8 c=1 v=35
30024 Par ch=8 c=1 v=36
30024 Par ch=8 c=1 v=37
30024 Par ch=8 c=1 v=38
30024 Par ch=8 c=1 v=39
30029 Par ch=8 c=1 v=40
30029 Par ch=8 c=1 v=41
30029 Par ch=8 c=1 v=42
30032 Par ch=8 c=1 v=43
30034 Par ch=8 c=1 v=44
30034 Par ch=8 c=1 v=45
30034 Par ch=8 c=1 v=46
30034 Par ch=8 c=1 v=47
30039 Par ch=8 c=1 v=48
30039 Par ch=8 c=1 v=49
30039 Par ch=8 c=1 v=50
30039 Par ch=8 c=1 v=51
30044 Par ch=8 c=1 v=52
30044 Par ch=8 c=1 v=53
30044 Par ch=8 c=1 v=54
30049 Par ch=8 c=1 v=55
30049 Par ch=8 c=1 v=56
30054 Par ch=8 c=1 v=57
30054 Par ch=8 c=1 v=58
30054 Par ch=8 c=1 v=59
30054 Par ch=8 c=1 v=60
30060 Par ch=8 c=1 v=61
30060 Par ch=8 c=1 v=62
30060 Par ch=8 c=1 v=63
30065 Par ch=8 c=1 v=64
30067 Par ch=8 c=1 v=65
30075 Par ch=8 c=1 v=66
30080 Par ch=8 c=1 v=67
30087 Par ch=8 c=1 v=68
30095 Par ch=8 c=1 v=69
30100 Par ch=8 c=1 v=70
30105 Par ch=8 c=1 v=71
30105 Par ch=8 c=1 v=72
30110 Par ch=8 c=1 v=73
30110 Par ch=8 c=1 v=74
30115 Par ch=8 c=1 v=75
30120 Par ch=8 c=1 v=76
30120 Par ch=8 c=1 v=77
30125 Par ch=8 c=1 v=78
30128 Par ch=8 c=1 v=79
30130 Par ch=8 c=1 v=80
30135 Par ch=8 c=1 v=81
30140 Par ch=8 c=1 v=82
30153 Par ch=8 c=1 v=81
30153 Par ch=8 c=1 v=80
30158 Par ch=8 c=1 v=79
30158 Par ch=8 c=1 v=78
30158 Par ch=8 c=1 v=77
30158 Par ch=8 c=1 v=76
30158 Par ch=8 c=1 v=75
30158 Par ch=8 c=1 v=74
30158 Par ch=8 c=1 v=72
30158 Par ch=8 c=1 v=71
30163 On ch=8 n=55 v=0
30163 On ch=8 n=59 v=0
30163 Par ch=8 c=1 v=69
30163 Par ch=8 c=1 v=68
30163 Par ch=8 c=1 v=66
30163 Par ch=8 c=1 v=64
30163 Par ch=8 c=1 v=61
30163 Par ch=8 c=1 v=59
30163 Par ch=8 c=1 v=55
30163 Par ch=8 c=1 v=52
30163 Par ch=8 c=1 v=48
30168 On ch=8 n=64 v=0
30168 Par ch=8 c=1 v=44
30168 Par ch=8 c=1 v=40
30168 Par ch=8 c=1 v=35
30168 Par ch=8 c=1 v=30
30168 Par ch=8 c=1 v=25
30168 Par ch=8 c=1 v=20
30168 Par ch=8 c=1 v=16
30168 Par ch=8 c=1 v=12
30168 Par ch=8 c=1 v=8
30173 Par ch=8 c=1 v=4
30173 Par ch=8 c=1 v=0
30179 On ch=8 n=59 v=83
30179 On ch=8 n=64 v=74
30179 On ch=8 n=55 v=78
30277 On ch=8 n=59 v=0
30282 On ch=8 n=64 v=0
30297 On ch=8 n=55 v=0
30298 On ch=8 n=62 v=102
30358 On ch=8 n=64 v=96
30363 On ch=8 n=62 v=0
30427 Pb ch=8 v=8322
30430 Pb ch=8 v=8452
30430 Pb ch=8 v=8582
30435 Pb ch=8 v=8712
30435 Pb ch=8 v=8842
30435 Pb ch=8 v=8972
30440 Pb ch=8 v=9102
30440 Pb ch=8 v=9232
30443 Pb ch=8 v=9362
30443 Pb ch=8 v=9492
30443 Pb ch=8 v=9622
30448 Pb ch=8 v=9752
30448 Pb ch=8 v=9882
30450 Pb ch=8 v=10012
30453 Pb ch=8 v=10142
30453 Pb ch=8 v=10272
30453 Pb ch=8 v=10402
30458 Pb ch=8 v=10532
30458 Pb ch=8 v=10662
30460 Pb ch=8 v=10792
30463 Pb ch=8 v=10922
30463 Pb ch=8 v=11052
30463 Pb ch=8 v=11312
30468 Pb ch=8 v=11442
30468 Pb ch=8 v=11572
30473 Pb ch=8 v=11702
30473 Pb ch=8 v=11832
30473 Pb ch=8 v=11962
30475 Pb ch=8 v=12092
30478 Pb ch=8 v=12222
30480 Pb ch=8 v=12352
30480 Pb ch=8 v=12482
30485 Pb ch=8 v=12612
30488 Pb ch=8 v=12742
30488 Pb ch=8 v=12872
30490 Pb ch=8 v=13002
30493 Pb ch=8 v=13132
30495 Pb ch=8 v=13262
30495 Pb ch=8 v=13392
30501 Pb ch=8 v=13522
30501 Pb ch=8 v=13652
30506 Pb ch=8 v=13782
30506 Pb ch=8 v=13912
30511 Pb ch=8 v=14042
30511 Pb ch=8 v=14172
30516 Pb ch=8 v=14302
30516 Pb ch=8 v=14432
30521 Pb ch=8 v=14562
30521 Pb ch=8 v=14692
30526 Pb ch=8 v=14822
30526 Pb ch=8 v=14952
30531 Pb ch=8 v=15082
30531 Pb ch=8 v=15212
30536 Pb ch=8 v=15342
30538 Pb ch=8 v=15472
30541 Pb ch=8 v=15602
30543 Pb ch=8 v=15732
30546 Pb ch=8 v=15862
30548 Pb ch=8 v=15992
30551 Pb ch=8 v=16122
30556 Pb ch=8 v=16252
30558 Pb ch=8 v=16382
30678 On ch=8 n=64 v=0
30775 Pb ch=8 v=16252
30775 Pb ch=8 v=16122
30775 Pb ch=8 v=15862
30778 Pb ch=8 v=15472
30778 Pb ch=8 v=14952
30778 Pb ch=8 v=14302
30778 Pb ch=8 v=13652
30778 Pb ch=8 v=12872
30778 Pb ch=8 v=11962
30778 Pb ch=8 v=10922
30778 Pb ch=8 v=10012
30778 Pb ch=8 v=9102
30785 Pb ch=8 v=8322
30785 Pb ch=8 v=8192
31141 On ch=8 n=55 v=71
31141 On ch=8 n=64 v=64
31142 On ch=8 n=59 v=73
31223 On ch=8 n=59 v=0
31227 On ch=8 n=55 v=0
31232 On ch=8 n=64 v=0
31258 On ch=8 n=64 v=74
31258 On ch=8 n=59 v=78
31259 On ch=8 n=55 v=71
31282 On ch=8 n=55 v=0
31285 On ch=8 n=59 v=0
31291 On ch=8 n=64 v=0
31319 On ch=8 n=61 v=84
31319 On ch=8 n=66 v=85
31319 On ch=8 n=57 v=78
31400 On ch=8 n=57 v=0
31405 On ch=8 n=61 v=0
31413 On ch=8 n=66 v=0
31439 On ch=8 n=62 v=69
31439 On ch=8 n=59 v=76
31440 On ch=8 n=67 v=79
31517 On ch=8 n=62 v=0
31522 On ch=8 n=59 v=0
31541 On ch=8 n=67 v=0
31559 On ch=8 n=57 v=79
31559 On ch=8 n=61 v=79
31559 On ch=8 n=66 v=73
31645 On ch=8 n=57 v=0
31655 On ch=8 n=61 v=0
31657 On ch=8 n=66 v=0
31680 On ch=8 n=67 v=80
31680 On ch=8 n=62 v=76
31680 On ch=8 n=59 v=73
31755 On ch=8 n=59 v=0
31758 On ch=8 n=62 v=0
31791 On ch=8 n=67 v=0
31798 On ch=8 n=66 v=71
31799 On ch=8 n=57 v=69
31801 On ch=8 n=61 v=74
31836 On ch=8 n=66 v=0
31838 On ch=8 n=61 v=0
31839 On ch=8 n=57 v=0
31859 On ch=8 n=64 v=78
31861 On ch=8 n=55 v=75
31861 On ch=8 n=59 v=77
32045 Par ch=8 c=1 v=1
32045 Par ch=8 c=1 v=6
32045 Par ch=8 c=1 v=11
32048 Par ch=8 c=1 v=16
32048 Par ch=8 c=1 v=20
32048 Par ch=8 c=1 v=24
32048 Par ch=8 c=1 v=28
32048 Par ch=8 c=1 v=32
32048 Par ch=8 c=1 v=35
32048 Par ch=8 c=1 v=39
32048 Par ch=8 c=1 v=42
32048 Par ch=8 c=1 v=46
32048 Par ch=8 c=1 v=49
32048 Par ch=8 c=1 v=52
32048 Par ch=8 c=1 v=55
32048 Par ch=8 c=1 v=58
32048 Par ch=8 c=1 v=60
32048 Par ch=8 c=1 v=63
32048 Par ch=8 c=1 v=66
32048 Par ch=8 c=1 v=68
32048 Par ch=8 c=1 v=71
32048 Par ch=8 c=1 v=73
32048 Par ch=8 c=1 v=75
32048 Par ch=8 c=1 v=78
32048 Par ch=8 c=1 v=80
32048 Par ch=8 c=1 v=82
32048 Par ch=8 c=1 v=84
32048 Par ch=8 c=1 v=86
32048 Par ch=8 c=1 v=87
32048 Par ch=8 c=1 v=89
32048 Par ch=8 c=1 v=91
32048 Par ch=8 c=1 v=92
32048 Par ch=8 c=1 v=94
32048 Par ch=8 c=1 v=95
32048 Par ch=8 c=1 v=96
32048 Par ch=8 c=1 v=98
32048 Par ch=8 c=1 v=99
32048 Par ch=8 c=1 v=100
32048 Par ch=8 c=1 v=101
32048 Par ch=8 c=1 v=102
32048 Par ch=8 c=1 v=103
32048 Par ch=8 c=1 v=104
32048 Par ch=8 c=1 v=105
32048 Par ch=8 c=1 v=106
32048 Par ch=8 c=1 v=107
32048 Par ch=8 c=1 v=108
32048 Par ch=8 c=1 v=109
32058 Par ch=8 c=1 v=110
32068 Par ch=8 c=1 v=111
32073 Par ch=8 c=1 v=112
32075 Par ch=8 c=1 v=113
32075 Par ch=8 c=1 v=114
32078 Par ch=8 c=1 v=115
32078 Par ch=8 c=1 v=116
32080 Par ch=8 c=1 v=117
32080 Par ch=8 c=1 v=118
32083 Par ch=8 c=1 v=119
32085 Par ch=8 c=1 v=120
32090 Par ch=8 c=1 v=121
32095 On ch=8 n=55 v=0
32098 On ch=8 n=64 v=0
32100 On ch=8 n=59 v=0
32103 Par ch=8 c=1 v=120
32103 Par ch=8 c=1 v=119
32103 Par ch=8 c=1 v=118
32103 Par ch=8 c=1 v=117
32103 Par ch=8 c=1 v=116
32103 Par ch=8 c=1 v=115
32103 Par ch=8 c=1 v=114
32103 Par ch=8 c=1 v=113
32103 Par ch=8 c=1 v=112
32103 Par ch=8 c=1 v=111
32103 Par ch=8 c=1 v=110
32103 Par ch=8 c=1 v=109
32103 Par ch=8 c=1 v=108
32103 Par ch=8 c=1 v=107
32103 Par ch=8 c=1 v=106
32103 Par ch=8 c=1 v=104
32103 Par ch=8 c=1 v=103
32103 Par ch=8 c=1 v=101
32103 Par ch=8 c=1 v=99
32103 Par ch=8 c=1 v=98
32103 Par ch=8 c=1 v=96
32103 Par ch=8 c=1 v=94
32103 Par ch=8 c=1 v=92
32103 Par ch=8 c=1 v=90
32103 Par ch=8 c=1 v=88
32103 Par ch=8 c=1 v=85
32103 Par ch=8 c=1 v=83
32103 Par ch=8 c=1 v=80
32103 Par ch=8 c=1 v=78
32103 Par ch=8 c=1 v=75
32103 Par ch=8 c=1 v=72
32103 Par ch=8 c=1 v=69
32103 Par ch=8 c=1 v=65
32103 Par ch=8 c=1 v=62
32103 Par ch=8 c=1 v=59
32103 Par ch=8 c=1 v=56
32103 Par ch=8 c=1 v=53
32106 Par ch=8 c=1 v=49
32106 Par ch=8 c=1 v=46
32106 Par ch=8 c=1 v=42
32106 Par ch=8 c=1 v=39
32106 Par ch=8 c=1 v=35
32106 Par ch=8 c=1 v=32
32106 Par ch=8 c=1 v=28
32106 Par ch=8 c=1 v=25
32108 Par ch=8 c=1 v=22
32108 Par ch=8 c=1 v=18
32113 Par ch=8 c=1 v=15
32113 Par ch=8 c=1 v=13
32116 Par ch=8 c=1 v=9
32118 Par ch=8 c=1 v=6
32118 Par ch=8 c=1 v=3
32121 Par ch=8 c=1 v=0
32160 On ch=8 n=72 v=123
32177 On ch=8 n=72 v=0
32178 On ch=8 n=74 v=94
32202 On ch=8 n=76 v=123
32203 On ch=8 n=74 v=0
32217 On ch=8 n=76 v=0
32223 On ch=8 n=66 v=105
32243 On ch=8 n=67 v=94
32253 On ch=8 n=66 v=0
32265 On ch=8 n=67 v=0
32265 On ch=8 n=69 v=98
32284 On ch=8 n=69 v=0
32285 On ch=8 n=60 v=102
32323 On ch=8 n=60 v=0
32339 On ch=8 n=60 v=96
32389 On ch=8 n=60 v=0
32398 On ch=8 n=71 v=123
32417 On ch=8 n=71 v=0
32420 On ch=8 n=72 v=94
32442 On ch=8 n=74 v=127
32445 On ch=8 n=72 v=0
32462 On ch=8 n=74 v=0
32465 On ch=8 n=66 v=89
32493 On ch=8 n=66 v=0
32494 On ch=8 n=67 v=89
32506 On ch=8 n=69 v=92
32514 On ch=8 n=67 v=0
32523 On ch=8 n=69 v=0
32525 On ch=8 n=59 v=102
32576 On ch=8 n=59 v=0
32581 On ch=8 n=71 v=127
32598 On ch=8 n=71 v=0
32604 On ch=8 n=72 v=98
32622 On ch=8 n=72 v=0
32624 On ch=8 n=74 v=110
32640 On ch=8 n=66 v=108
32643 On ch=8 n=74 v=0
32646 On ch=8 n=66 v=0
32652 On ch=8 n=67 v=88
32674 On ch=8 n=69 v=113
32682 On ch=8 n=67 v=0
32702 On ch=8 n=57 v=127
32703 On ch=8 n=69 v=0
32746 On ch=8 n=57 v=0
32758 On ch=8 n=59 v=123
32778 On ch=8 n=59 v=0
32780 On ch=8 n=60 v=89
32802 On ch=8 n=62 v=113
32806 On ch=8 n=60 v=0
32816 On ch=8 n=62 v=0
32819 On ch=8 n=54 v=81
32838 On ch=8 n=55 v=105
32842 On ch=8 n=54 v=0
32861 On ch=8 n=55 v=0
32861 On ch=8 n=57 v=100
32878 On ch=8 n=57 v=0
32883 On ch=8 n=55 v=113
32933 On ch=8 n=55 v=0
32940 On ch=8 n=59 v=123
32959 On ch=8 n=59 v=0
32961 On ch=8 n=60 v=83
32981 On ch=8 n=62 v=113
32984 On ch=8 n=60 v=0
32995 On ch=8 n=62 v=0
33000 On ch=8 n=54 v=102
33018 On ch=8 n=55 v=98
33025 On ch=8 n=54 v=0
33039 On ch=8 n=57 v=91
33040 On ch=8 n=55 v=0
33058 On ch=8 n=57 v=0
33063 On ch=8 n=54 v=127
33122 On ch=8 n=52 v=126
33123 On ch=8 n=54 v=0
33241 On ch=8 n=66 v=81
33241 On ch=8 n=61 v=73
33241 On ch=8 n=57 v=63
33242 On ch=8 n=52 v=0
33317 On ch=8 n=57 v=0
33324 On ch=8 n=61 v=0
33330 On ch=8 n=66 v=0
33359 On ch=8 n=62 v=76
33361 On ch=8 n=67 v=77
33361 On ch=8 n=59 v=75
33431 On ch=8 n=59 v=0
33432 On ch=8 n=62 v=0
33464 On ch=8 n=67 v=0
33481 On ch=8 n=61 v=73
33481 On ch=8 n=57 v=65
33481 On ch=8 n=66 v=67
33557 On ch=8 n=57 v=0
33569 On ch=8 n=61 v=0
33572 On ch=8 n=66 v=0
33600 On ch=8 n=67 v=80
33600 On ch=8 n=59 v=74
33600 On ch=8 n=62 v=76
33665 On ch=8 n=62 v=0
33678 On ch=8 n=59 v=0
33708 On ch=8 n=67 v=0
33719 On ch=8 n=66 v=68
33721 On ch=8 n=61 v=76
33721 On ch=8 n=57 v=68
33754 On ch=8 n=66 v=0
33761 On ch=8 n=57 v=0
33761 On ch=8 n=61 v=0
33781 On ch=8 n=64 v=76
33781 On ch=8 n=59 v=74
33782 On ch=8 n=55 v=73
33996 On ch=8 n=55 v=0
33997 On ch=8 n=59 v=0
34002 On ch=8 n=64 v=0
34020 On ch=8 n=64 v=84
34020 On ch=8 n=59 v=85
34022 On ch=8 n=55 v=76
34102 On ch=8 n=55 v=0
34106 On ch=8 n=59 v=0
34111 On ch=8 n=64 v=0
34139 On ch=8 n=64 v=65
34139 On ch=8 n=59 v=71
34141 On ch=8 n=55 v=62
34151 On ch=8 n=55 v=0
34157 On ch=8 n=59 v=0
34165 On ch=8 n=64 v=0
34198 On ch=8 n=61 v=78
34199 On ch=8 n=66 v=79
34199 On ch=8 n=57 v=69
34277 On ch=8 n=57 v=0
34289 On ch=8 n=61 v=0
34295 On ch=8 n=66 v=0
34319 On ch=8 n=62 v=74
34319 On ch=8 n=67 v=75
34319 On ch=8 n=59 v=73
34399 On ch=8 n=62 v=0
34405 On ch=8 n=59 v=0
34437 On ch=8 n=67 v=0
34441 On ch=8 n=66 v=70
34441 On ch=8 n=57 v=74
34441 On ch=8 n=61 v=75
34472 On ch=8 n=66 v=0
34484 On ch=8 n=61 v=0
34489 On ch=8 n=57 v=0
34501 On ch=8 n=55 v=70
34501 On ch=8 n=64 v=76
34501 On ch=8 n=59 v=75
34643 Par ch=8 c=1 v=1
34645 Par ch=8 c=1 v=2
34645 Par ch=8 c=1 v=4
34645 Par ch=8 c=1 v=5
34645 Par ch=8 c=1 v=7
34645 Par ch=8 c=1 v=8
34650 Par ch=8 c=1 v=10
34650 Par ch=8 c=1 v=11
34650 Par ch=8 c=1 v=12
34650 Par ch=8 c=1 v=14
34650 Par ch=8 c=1 v=15
34650 Par ch=8 c=1 v=16
34650 Par ch=8 c=1 v=17
34650 Par ch=8 c=1 v=18
34650 Par ch=8 c=1 v=19
34650 Par ch=8 c=1 v=20
34650 Par ch=8 c=1 v=21
34650 Par ch=8 c=1 v=22
34650 Par ch=8 c=1 v=23
34650 Par ch=8 c=1 v=24
34650 Par ch=8 c=1 v=25
34650 Par ch=8 c=1 v=26
34661 Par ch=8 c=1 v=27
34661 Par ch=8 c=1 v=28
34683 Par ch=8 c=1 v=27
34683 Par ch=8 c=1 v=26
34683 Par ch=8 c=1 v=25
34683 Par ch=8 c=1 v=24
34686 Par ch=8 c=1 v=23
34686 Par ch=8 c=1 v=22
34686 Par ch=8 c=1 v=21
34686 Par ch=8 c=1 v=20
34686 Par ch=8 c=1 v=19
34686 Par ch=8 c=1 v=18
34691 Par ch=8 c=1 v=17
34691 Par ch=8 c=1 v=16
34691 Par ch=8 c=1 v=15
34691 Par ch=8 c=1 v=14
34696 Par ch=8 c=1 v=13
34696 Par ch=8 c=1 v=12
34696 Par ch=8 c=1 v=11
34696 Par ch=8 c=1 v=10
34701 Par ch=8 c=1 v=9
34711 Par ch=8 c=1 v=10
34711 Par ch=8 c=1 v=11
34713 Par ch=8 c=1 v=12
34713 Par ch=8 c=1 v=13
34719 Par ch=8 c=1 v=14
34719 Par ch=8 c=1 v=15
34719 Par ch=8 c=1 v=16
34721 Par ch=8 c=1 v=17
34721 Par ch=8 c=1 v=18
34721 Par ch=8 c=1 v=19
34721 Par ch=8 c=1 v=20
34721 Par ch=8 c=1 v=21
34726 Par ch=8 c=1 v=22
34726 Par ch=8 c=1 v=23
34726 Par ch=8 c=1 v=24
34731 Par ch=8 c=1 v=25
34731 Par ch=8 c=1 v=26
34731 Par ch=8 c=1 v=27
34731 Par ch=8 c=1 v=28
34731 Par ch=8 c=1 v=29
34731 Par ch=8 c=1 v=30
34731 Par ch=8 c=1 v=31
34731 Par ch=8 c=1 v=32
34731 Par ch=8 c=1 v=33
34731 Par ch=8 c=1 v=34
34739 Par ch=8 c=1 v=35
34739 Par ch=8 c=1 v=36
34739 Par ch=8 c=1 v=37
34739 Par ch=8 c=1 v=38
34744 Par ch=8 c=1 v=39
34744 Par ch=8 c=1 v=40
34744 Par ch=8 c=1 v=41
34746 Par ch=8 c=1 v=42
34749 Par ch=8 c=1 v=43
34749 Par ch=8 c=1 v=44
34754 Par ch=8 c=1 v=45
34754 Par ch=8 c=1 v=46
34759 Par ch=8 c=1 v=47
34834 Par ch=8 c=1 v=48
34842 Par ch=8 c=1 v=49
34847 Par ch=8 c=1 v=50
34847 Par ch=8 c=1 v=51
34850 Par ch=8 c=1 v=52
34850 Par ch=8 c=1 v=53
34855 Par ch=8 c=1 v=54
34855 Par ch=8 c=1 v=55
34860 Par ch=8 c=1 v=56
34860 Par ch=8 c=1 v=57
34860 Par ch=8 c=1 v=58
34865 Par ch=8 c=1 v=59
34865 Par ch=8 c=1 v=60
34865 Par ch=8 c=1 v=61
34865 Par ch=8 c=1 v=62
34870 Par ch=8 c=1 v=63
34870 Par ch=8 c=1 v=64
34872 Par ch=8 c=1 v=65
34875 Par ch=8 c=1 v=66
34875 Par ch=8 c=1 v=67
34875 Par ch=8 c=1 v=68
34880 Par ch=8 c=1 v=69
34882 Par ch=8 c=1 v=70
34882 Par ch=8 c=1 v=71
34887 Par ch=8 c=1 v=72
34887 Par ch=8 c=1 v=73
34892 Par ch=8 c=1 v=74
34895 Par ch=8 c=1 v=75
34910 Par ch=8 c=1 v=74
34913 Par ch=8 c=1 v=73
34913 Par ch=8 c=1 v=72
34913 Par ch=8 c=1 v=71
34913 Par ch=8 c=1 v=70
34913 Par ch=8 c=1 v=69
34913 Par ch=8 c=1 v=68
34913 Par ch=8 c=1 v=67
34913 Par ch=8 c=1 v=65
34913 Par ch=8 c=1 v=64
34913 Par ch=8 c=1 v=63
34913 Par ch=8 c=1 v=61
34913 Par ch=8 c=1 v=60
34913 Par ch=8 c=1 v=58
34913 Par ch=8 c=1 v=56
34913 Par ch=8 c=1 v=54
34913 Par ch=8 c=1 v=52
34913 Par ch=8 c=1 v=50
34913 Par ch=8 c=1 v=48
34913 Par ch=8 c=1 v=45
34913 Par ch=8 c=1 v=43
34913 Par ch=8 c=1 v=40
34913 Par ch=8 c=1 v=37
34913 Par ch=8 c=1 v=34
34913 Par ch=8 c=1 v=32
34913 Par ch=8 c=1 v=28
34913 Par ch=8 c=1 v=26
34913 Par ch=8 c=1 v=23
34915 Par ch=8 c=1 v=20
34915 Par ch=8 c=1 v=16
34915 Par ch=8 c=1 v=13
34915 Par ch=8 c=1 v=10
34915 Par ch=8 c=1 v=7
34915 Par ch=8 c=1 v=4
34915 Par ch=8 c=1 v=2
34918 Par ch=8 c=1 v=0
34940 On ch=8 n=55 v=0
34947 On ch=8 n=64 v=0
34952 On ch=8 n=59 v=0
34981 On ch=8 n=59 v=70
34981 On ch=8 n=64 v=69
34981 On ch=8 n=55 v=73
35079 On ch=8 n=55 v=0
35084 On ch=8 n=64 v=0
35084 On ch=8 n=59 v=0
35101 On ch=8 n=64 v=76
35101 On ch=8 n=59 v=75
35102 On ch=8 n=55 v=69
35117 On ch=8 n=55 v=0
35123 On ch=8 n=59 v=0
35128 On ch=8 n=64 v=0
35162 On ch=8 n=66 v=78
35162 On ch=8 n=61 v=76
35162 On ch=8 n=57 v=73
35232 On ch=8 n=57 v=0
35242 On ch=8 n=61 v=0
35247 On ch=8 n=66 v=0
35280 On ch=8 n=67 v=78
35280 On ch=8 n=59 v=73
35280 On ch=8 n=62 v=74
35341 On ch=8 n=62 v=0
35346 On ch=8 n=59 v=0
35381 On ch=8 n=67 v=0
35399 On ch=8 n=66 v=72
35399 On ch=8 n=61 v=75
35401 On ch=8 n=57 v=67
35469 On ch=8 n=57 v=0
35485 On ch=8 n=61 v=0
35492 On ch=8 n=66 v=0
35520 On ch=8 n=67 v=78
35520 On ch=8 n=62 v=74
35520 On ch=8 n=59 v=74
35578 On ch=8 n=62 v=0
35588 On ch=8 n=59 v=0
35610 On ch=8 n=67 v=0
35639 On ch=8 n=66 v=75
35641 On ch=8 n=61 v=76
35642 On ch=8 n=57 v=69
35675 On ch=8 n=57 v=0
35677 On ch=8 n=66 v=0
35681 On ch=8 n=61 v=0
35701 On ch=8 n=60 v=74
35701 On ch=8 n=64 v=74
35701 On ch=8 n=57 v=71
35802 On ch=8 n=57 v=0
35802 On ch=8 n=64 v=0
35802 On ch=8 n=60 v=0
35821 On ch=8 n=60 v=78
35821 On ch=8 n=64 v=78
35821 On ch=8 n=57 v=74
35852 On ch=8 n=57 v=0
35862 On ch=8 n=64 v=0
35862 On ch=8 n=60 v=0
35880 On ch=8 n=66 v=25
35885 On ch=8 n=59 v=63
35885 On ch=8 n=62 v=71
35966 On ch=8 n=62 v=0
35970 On ch=8 n=66 v=0
35978 On ch=8 n=59 v=0
36003 On ch=8 n=60 v=77
36003 On ch=8 n=64 v=70
36003 On ch=8 n=67 v=66
36093 On ch=8 n=67 v=0
36093 On ch=8 n=64 v=0
36093 On ch=8 n=60 v=0
36122 On ch=8 n=66 v=78
36122 On ch=8 n=69 v=80
36122 On ch=8 n=62 v=75
36210 On ch=8 n=62 v=0
36217 On ch=8 n=69 v=0
36220 On ch=8 n=66 v=0
36241 On ch=8 n=67 v=75
36241 On ch=8 n=64 v=75
36241 On ch=8 n=60 v=74
36309 On ch=8 n=64 v=0
36326 On ch=8 n=60 v=0
36344 On ch=8 n=67 v=0
36357 On ch=8 n=66 v=75
36357 On ch=8 n=62 v=78
36359 On ch=8 n=59 v=75
36394 On ch=8 n=59 v=0
36395 On ch=8 n=66 v=0
36400 On ch=8 n=62 v=0
36420 On ch=8 n=64 v=74
36420 On ch=8 n=60 v=71
36421 On ch=8 n=57 v=73
36636 On ch=8 n=60 v=0
36677 On ch=8 n=64 v=0
36708 On ch=8 n=57 v=0
36719 On ch=8 n=59 v=76
36719 On ch=8 n=62 v=57
36719 On ch=8 n=66 v=75
36958 On ch=8 n=57 v=83
36959 On ch=8 n=59 v=0
37185 On ch=8 n=57 v=0
37199 On ch=8 n=55 v=74
37201 On ch=8 n=59 v=79
37385 On ch=8 n=66 v=0
37390 On ch=8 n=59 v=0
37396 On ch=8 n=55 v=0
37439 On ch=8 n=57 v=76
37440 On ch=8 n=60 v=80
37445 On ch=8 n=62 v=0
37858 Par ch=8 c=1 v=1
37863 Par ch=8 c=1 v=2
37869 Par ch=8 c=1 v=3
37876 Par ch=8 c=1 v=4
37962 Par ch=8 c=1 v=5
37967 Par ch=8 c=1 v=6
37969 Par ch=8 c=1 v=7
37974 Par ch=8 c=1 v=8
37977 Par ch=8 c=1 v=9
37977 Par ch=8 c=1 v=10
37982 Par ch=8 c=1 v=11
37984 Par ch=8 c=1 v=12
37984 Par ch=8 c=1 v=13
37989 Par ch=8 c=1 v=14
37989 Par ch=8 c=1 v=15
37989 Par ch=8 c=1 v=16
37989 Par ch=8 c=1 v=17
37995 Par ch=8 c=1 v=18
37995 Par ch=8 c=1 v=19
37995 Par ch=8 c=1 v=20
37995 Par ch=8 c=1 v=21
37995 Par ch=8 c=1 v=22
38000 Par ch=8 c=1 v=23
38000 Par ch=8 c=1 v=24
38000 Par ch=8 c=1 v=25
38002 Par ch=8 c=1 v=26
38002 Par ch=8 c=1 v=27
38002 Par ch=8 c=1 v=28
38005 Par ch=8 c=1 v=29
38005 Par ch=8 c=1 v=30
38005 Par ch=8 c=1 v=31
38005 Par ch=8 c=1 v=32
38005 Par ch=8 c=1 v=33
38005 Par ch=8 c=1 v=34
38005 Par ch=8 c=1 v=35
38005 Par ch=8 c=1 v=36
38005 Par ch=8 c=1 v=37
38005 Par ch=8 c=1 v=38
38005 Par ch=8 c=1 v=39
38010 Par ch=8 c=1 v=40
38010 Par ch=8 c=1 v=41
38015 Par ch=8 c=1 v=42
38015 Par ch=8 c=1 v=43
38015 Par ch=8 c=1 v=44
38015 Par ch=8 c=1 v=45
38015 Par ch=8 c=1 v=46
38015 Par ch=8 c=1 v=48
38020 Par ch=8 c=1 v=49
38020 Par ch=8 c=1 v=50
38020 Par ch=8 c=1 v=51
38020 Par ch=8 c=1 v=52
38020 Par ch=8 c=1 v=53
38020 Par ch=8 c=1 v=54
38020 Par ch=8 c=1 v=55
38020 Par ch=8 c=1 v=56
38025 Par ch=8 c=1 v=57
38025 Par ch=8 c=1 v=58
38025 Par ch=8 c=1 v=59
38025 Par ch=8 c=1 v=60
38025 Par ch=8 c=1 v=61
38025 Par ch=8 c=1 v=62
38025 Par ch=8 c=1 v=63
38030 Par ch=8 c=1 v=64
38030 Par ch=8 c=1 v=65
38030 Par ch=8 c=1 v=66
38030 Par ch=8 c=1 v=67
38030 Par ch=8 c=1 v=68
38030 Par ch=8 c=1 v=69
38030 Par ch=8 c=1 v=70
38030 Par ch=8 c=1 v=71
38030 Par ch=8 c=1 v=72
38030 Par ch=8 c=1 v=73
38037 Par ch=8 c=1 v=74
38037 Par ch=8 c=1 v=75
38037 Par ch=8 c=1 v=76
38040 Par ch=8 c=1 v=77
38040 Par ch=8 c=1 v=78
38042 Par ch=8 c=1 v=79
38042 Par ch=8 c=1 v=80
38042 Par ch=8 c=1 v=81
38047 Par ch=8 c=1 v=82
38047 Par ch=8 c=1 v=83
38052 Par ch=8 c=1 v=84
38052 Par ch=8 c=1 v=85
38058 Par ch=8 c=1 v=86
38058 Par ch=8 c=1 v=87
38063 Par ch=8 c=1 v=88
38063 Par ch=8 c=1 v=89
38065 Par ch=8 c=1 v=90
38065 Par ch=8 c=1 v=91
38070 Par ch=8 c=1 v=92
38070 Par ch=8 c=1 v=93
38073 Par ch=8 c=1 v=94
38075 Par ch=8 c=1 v=95
38075 Par ch=8 c=1 v=96
38075 Par ch=8 c=1 v=97
38080 Par ch=8 c=1 v=98
38080 Par ch=8 c=1 v=99
38085 Par ch=8 c=1 v=100
38093 Par ch=8 c=1 v=99
38095 Par ch=8 c=1 v=98
38095 Par ch=8 c=1 v=97
38095 Par ch=8 c=1 v=96
38098 Par ch=8 c=1 v=95
38098 Par ch=8 c=1 v=94
38098 Par ch=8 c=1 v=93
38098 Par ch=8 c=1 v=92
38098 Par ch=8 c=1 v=91
38103 Par ch=8 c=1 v=89
38103 Par ch=8 c=1 v=87
38103 Par ch=8 c=1 v=85
38103 Par ch=8 c=1 v=84
38103 Par ch=8 c=1 v=81
38103 Par ch=8 c=1 v=80
38103 Par ch=8 c=1 v=77
38103 Par ch=8 c=1 v=75
38103 Par ch=8 c=1 v=72
38108 Par ch=8 c=1 v=70
38108 Par ch=8 c=1 v=67
38108 Par ch=8 c=1 v=65
38108 Par ch=8 c=1 v=62
38108 Par ch=8 c=1 v=59
38108 Par ch=8 c=1 v=56
38108 Par ch=8 c=1 v=53
38108 Par ch=8 c=1 v=50
38108 Par ch=8 c=1 v=47
38113 Par ch=8 c=1 v=44
38113 Par ch=8 c=1 v=40
38113 Par ch=8 c=1 v=37
38113 Par ch=8 c=1 v=34
38113 Par ch=8 c=1 v=30
38113 Par ch=8 c=1 v=27
38113 Par ch=8 c=1 v=24
38113 Par ch=8 c=1 v=22
38113 Par ch=8 c=1 v=19
38118 Par ch=8 c=1 v=17
38118 Par ch=8 c=1 v=14
38118 Par ch=8 c=1 v=11
38118 Par ch=8 c=1 v=8
38118 Par ch=8 c=1 v=5
38118 Par ch=8 c=1 v=2
38118 Par ch=8 c=1 v=0
38236 On ch=8 n=60 v=0
38237 On ch=8 n=57 v=0
46560 On ch=8 n=72 v=123
46577 On ch=8 n=72 v=0
46578 On ch=8 n=74 v=94
46602 On ch=8 n=76 v=123
46603 On ch=8 n=74 v=0
46617 On ch=8 n=76 v=0
46623 On ch=8 n=66 v=105
46643 On ch=8 n=67 v=94
46653 On ch=8 n=66 v=0
46665 On ch=8 n=67 v=0
46665 On ch=8 n=69 v=98
46684 On ch=8 n=69 v=0
46685 On ch=8 n=60 v=102
46723 On ch=8 n=60 v=0
46739 On ch=8 n=60 v=96
46789 On ch=8 n=60 v=0
46798 On ch=8 n=71 v=123
46817 On ch=8 n=71 v=0
46820 On ch=8 n=72 v=94
46842 On ch=8 n=74 v=127
46845 On ch=8 n=72 v=0
46862 On ch=8 n=74 v=0
46865 On ch=8 n=66 v=89
46893 On ch=8 n=66 v=0
46894 On ch=8 n=67 v=89
46906 On ch=8 n=69 v=92
46914 On ch=8 n=67 v=0
46923 On ch=8 n=69 v=0
46925 On ch=8 n=59 v=102
46976 On ch=8 n=59 v=0
46981 On ch=8 n=71 v=127
46998 On ch=8 n=71 v=0
47004 On ch=8 n=72 v=98
47022 On ch=8 n=72 v=0
47024 On ch=8 n=74 v=110
47040 On ch=8 n=66 v=108
47043 On ch=8 n=74 v=0
47046 On ch=8 n=66 v=0
47052 On ch=8 n=67 v=88
47074 On ch=8 n=69 v=113
47082 On ch=8 n=67 v=0
47102 On ch=8 n=57 v=127
47103 On ch=8 n=69 v=0
47146 On ch=8 n=57 v=0
47158 On ch=8 n=59 v=123
47178 On ch=8 n=59 v=0
47180 On ch=8 n=60 v=89
47202 On ch=8 n=62 v=113
47206 On ch=8 n=60 v=0
47216 On ch=8 n=62 v=0
47219 On ch=8 n=54 v=81
47238 On ch=8 n=55 v=105
47242 On ch=8 n=54 v=0
47261 On ch=8 n=55 v=0
47261 On ch=8 n=57 v=100
47278 On ch=8 n=57 v=0
47283 On ch=8 n=55 v=113
47333 On ch=8 n=55 v=0
47340 On ch=8 n=59 v=123
47359 On ch=8 n=59 v=0
47361 On ch=8 n=60 v=83
47381 On ch=8 n=62 v=113
47384 On ch=8 n=60 v=0
47395 On ch=8 n=62 v=0
47400 On ch=8 n=54 v=102
47418 On ch=8 n=55 v=98
47425 On ch=8 n=54 v=0
47439 On ch=8 n=57 v=91
47440 On ch=8 n=55 v=0
47458 On ch=8 n=57 v=0
47463 On ch=8 n=54 v=127
47523 On ch=8 n=54 v=0
47524 On ch=8 n=52 v=108
47524 On ch=8 n=40 v=105
47600 On ch=8 n=40 v=0
47600 On ch=8 n=52 v=0
47604 On ch=8 n=42 v=88
47604 On ch=8 n=54 v=92
47669 On ch=8 n=54 v=0
47669 On ch=8 n=42 v=0
47683 On ch=8 n=43 v=108
47683 On ch=8 n=55 v=113
47746 On ch=8 n=43 v=0
47751 On ch=8 n=55 v=0
47760 On ch=8 n=57 v=119
47760 On ch=8 n=45 v=102
48001 On ch=8 n=57 v=0
48004 On ch=8 n=45 v=0
48004 On ch=8 n=47 v=113
48004 On ch=8 n=59 v=105
48075 On ch=8 n=59 v=0
48080 On ch=8 n=47 v=0
48084 On ch=8 n=57 v=105
48085 On ch=8 n=45 v=108
48155 On ch=8 n=57 v=0
48158 On ch=8 n=45 v=0
48163 On ch=8 n=43 v=102
48163 On ch=8 n=55 v=115
48234 On ch=8 n=55 v=0
48234 On ch=8 n=43 v=0
48242 On ch=8 n=57 v=123
48242 On ch=8 n=45 v=115
48457 On ch=8 n=57 v=0
48473 On ch=8 n=45 v=0
48479 On ch=8 n=47 v=126
48479 On ch=8 n=59 v=115
48545 On ch=8 n=59 v=0
48560 On ch=8 n=47 v=0
48562 On ch=8 n=57 v=113
48563 On ch=8 n=45 v=108
48638 On ch=8 n=57 v=0
48642 On ch=8 n=43 v=94
48643 On ch=8 n=55 v=105
48644 On ch=8 n=45 v=0
48709 On ch=8 n=55 v=0
48718 On ch=8 n=43 v=0
48721 On ch=8 n=57 v=126
48721 On ch=8 n=45 v=119
48802 On ch=8 n=43 v=110
48802 On ch=8 n=55 v=123
48807 On ch=8 n=45 v=0
48810 On ch=8 n=57 v=0
48873 On ch=8 n=43 v=0
48877 On ch=8 n=42 v=98
48878 On ch=8 n=54 v=108
48886 On ch=8 n=55 v=0
48928 On ch=8 n=54 v=0
48934 On ch=8 n=42 v=0
48955 On ch=8 n=43 v=115
48957 On ch=8 n=55 v=123
48986 On ch=8 n=54 v=110
48986 On ch=8 n=42 v=96
48987 On ch=8 n=43 v=0
48991 On ch=8 n=55 v=0
49018 On ch=8 n=42 v=0
49026 On ch=8 n=54 v=0
49026 On ch=8 n=40 v=119
49026 On ch=8 n=52 v=119
49411 On ch=8 n=40 v=0
49424 On ch=8 n=52 v=0
49444 On ch=8 n=52 v=108
49444 On ch=8 n=40 v=105
49520 On ch=8 n=40 v=0
49520 On ch=8 n=52 v=0
49524 On ch=8 n=42 v=88
49524 On ch=8 n=54 v=92
49589 On ch=8 n=54 v=0
49589 On ch=8 n=42 v=0
49603 On ch=8 n=43 v=108
49603 On ch=8 n=55 v=113
49666 On ch=8 n=43 v=0
49671 On ch=8 n=55 v=0
49680 On ch=8 n=57 v=119
49680 On ch=8 n=45 v=102
49921 On ch=8 n=57 v=0
49924 On ch=8 n=45 v=0
49924 On ch=8 n=47 v=113
49924 On ch=8 n=59 v=105
49995 On ch=8 n=59 v=0
50000 On ch=8 n=47 v=0
50004 On ch=8 n=57 v=105
50005 On ch=8 n=45 v=108
50075 On ch=8 n=57 v=0
50078 On ch=8 n=45 v=0
50083 On ch=8 n=43 v=102
50083 On ch=8 n=55 v=115
50154 On ch=8 n=55 v=0
50154 On ch=8 n=43 v=0
50162 On ch=8 n=57 v=123
50162 On ch=8 n=45 v=115
50377 On ch=8 n=57 v=0
50393 On ch=8 n=45 v=0
50399 On ch=8 n=47 v=126
50399 On ch=8 n=59 v=115
50465 On ch=8 n=59 v=0
50480 On ch=8 n=47 v=0
50482 On ch=8 n=57 v=113
50483 On ch=8 n=45 v=108
50558 On ch=8 n=57 v=0
50562 On ch=8 n=43 v=94
50563 On ch=8 n=55 v=105
50564 On ch=8 n=45 v=0
50629 On ch=8 n=55 v=0
50638 On ch=8 n=43 v=0
50641 On ch=8 n=57 v=126
50641 On ch=8 n=45 v=119
50722 On ch=8 n=43 v=110
50722 On ch=8 n=55 v=123
50727 On ch=8 n=45 v=0
50730 On ch=8 n=57 v=0
50793 On ch=8 n=43 v=0
50797 On ch=8 n=42 v=98
50798 On ch=8 n=54 v=108
50806 On ch=8 n=55 v=0
50848 On ch=8 n=54 v=0
50854 On ch=8 n=42 v=0
50875 On ch=8 n=43 v=115
50877 On ch=8 n=55 v=123
50906 On ch=8 n=54 v=110
50906 On ch=8 n=42 v=96
50907 On ch=8 n=43 v=0
50911 On ch=8 n=55 v=0
50938 On ch=8 n=42 v=0
50946 On ch=8 n=54 v=0
50946 On ch=8 n=40 v=119
50946 On ch=8 n=52 v=119
51331 On ch=8 n=40 v=0
51344 On ch=8 n=52 v=0
51364 On ch=8 n=52 v=108
51364 On ch=8 n=40 v=105
51440 On ch=8 n=40 v=0
51440 On ch=8 n=52 v=0
51444 On ch=8 n=42 v=88
51444 On ch=8 n=54 v=92
51509 On ch=8 n=54 v=0
51509 On ch=8 n=42 v=0
51523 On ch=8 n=43 v=108
51523 On ch=8 n=55 v=113
51586 On ch=8 n=43 v=0
51591 On ch=8 n=55 v=0
51600 On ch=8 n=57 v=119
51600 On ch=8 n=45 v=102
51841 On ch=8 n=57 v=0
51844 On ch=8 n=45 v=0
51844 On ch=8 n=47 v=113
51844 On ch=8 n=59 v=105
51915 On ch=8 n=59 v=0
51920 On ch=8 n=47 v=0
51924 On ch=8 n=57 v=105
51925 On ch=8 n=45 v=108
51995 On ch=8 n=57 v=0
51998 On ch=8 n=45 v=0
52003 On ch=8 n=43 v=102
52003 On ch=8 n=55 v=115
52074 On ch=8 n=55 v=0
52074 On ch=8 n=43 v=0
52082 On ch=8 n=57 v=123
52082 On ch=8 n=45 v=115
52297 On ch=8 n=57 v=0
52313 On ch=8 n=45 v=0
52319 On ch=8 n=47 v=126
52319 On ch=8 n=59 v=115
52385 On ch=8 n=59 v=0
52400 On ch=8 n=47 v=0
52402 On ch=8 n=57 v=113
52403 On ch=8 n=45 v=108
52478 On ch=8 n=57 v=0
52482 On ch=8 n=43 v=94
52483 On ch=8 n=55 v=105
52484 On ch=8 n=45 v=0
52549 On ch=8 n=55 v=0
52558 On ch=8 n=43 v=0
52561 On ch=8 n=57 v=126
52561 On ch=8 n=45 v=119
52642 On ch=8 n=43 v=110
52642 On ch=8 n=55 v=123
52647 On ch=8 n=45 v=0
52650 On ch=8 n=57 v=0
52713 On ch=8 n=43 v=0
52717 On ch=8 n=42 v=98
52718 On ch=8 n=54 v=108
52726 On ch=8 n=55 v=0
52768 On ch=8 n=54 v=0
52774 On ch=8 n=42 v=0
52795 On ch=8 n=43 v=115
52797 On ch=8 n=55 v=123
52826 On ch=8 n=54 v=110
52826 On ch=8 n=42 v=96
52827 On ch=8 n=43 v=0
52831 On ch=8 n=55 v=0
52858 On ch=8 n=42 v=0
52866 On ch=8 n=54 v=0
52866 On ch=8 n=40 v=119
52866 On ch=8 n=52 v=119
53251 On ch=8 n=40 v=0
53264 On ch=8 n=52 v=0
53284 On ch=8 n=52 v=108
53284 On ch=8 n=40 v=105
53360 On ch=8 n=40 v=0
53360 On ch=8 n=52 v=0
53364 On ch=8 n=42 v=88
53364 On ch=8 n=54 v=92
53429 On ch=8 n=54 v=0
53429 On ch=8 n=42 v=0
53443 On ch=8 n=43 v=108
53443 On ch=8 n=55 v=113
53506 On ch=8 n=43 v=0
53511 On ch=8 n=55 v=0
53520 On ch=8 n=57 v=119
53520 On ch=8 n=45 v=102
53761 On ch=8 n=57 v=0
53764 On ch=8 n=45 v=0
53764 On ch=8 n=47 v=113
53764 On ch=8 n=59 v=105
53835 On ch=8 n=59 v=0
53840 On ch=8 n=47 v=0
53844 On ch=8 n=57 v=105
53845 On ch=8 n=45 v=108
53915 On ch=8 n=57 v=0
53918 On ch=8 n=45 v=0
53923 On ch=8 n=43 v=102
53923 On ch=8 n=55 v=115
53994 On ch=8 n=55 v=0
53994 On ch=8 n=43 v=0
54002 On ch=8 n=57 v=123
54002 On ch=8 n=45 v=115
54217 On ch=8 n=57 v=0
54233 On ch=8 n=45 v=0
54239 On ch=8 n=47 v=126
54239 On ch=8 n=59 v=115
54305 On ch=8 n=59 v=0
54320 On ch=8 n=47 v=0
54322 On ch=8 n=57 v=113
54323 On ch=8 n=45 v=108
54398 On ch=8 n=57 v=0
54402 On ch=8 n=43 v=94
54403 On ch=8 n=55 v=105
54404 On ch=8 n=45 v=0
54469 On ch=8 n=55 v=0
54478 On ch=8 n=43 v=0
54481 On ch=8 n=57 v=126
54481 On ch=8 n=45 v=119
54562 On ch=8 n=43 v=110
54562 On ch=8 n=55 v=123
54567 On ch=8 n=45 v=0
54570 On ch=8 n=57 v=0
54633 On ch=8 n=43 v=0
54637 On ch=8 n=42 v=98
54638 On ch=8 n=54 v=108
54646 On ch=8 n=55 v=0
54688 On ch=8 n=54 v=0
54694 On ch=8 n=42 v=0
54715 On ch=8 n=43 v=115
54717 On ch=8 n=55 v=123
54746 On ch=8 n=54 v=110
54746 On ch=8 n=42 v=96
54747 On ch=8 n=43 v=0
54751 On ch=8 n=55 v=0
54778 On ch=8 n=42 v=0
54786 On ch=8 n=54 v=0
54786 On ch=8 n=40 v=119
54786 On ch=8 n=52 v=119
55171 On ch=8 n=40 v=0
55184 On ch=8 n=52 v=0
55204 On ch=8 n=52 v=108
55204 On ch=8 n=40 v=105
55280 On ch=8 n=40 v=0
55280 On ch=8 n=52 v=0
55284 On ch=8 n=42 v=88
55284 On ch=8 n=54 v=92
55349 On ch=8 n=54 v=0
55349 On ch=8 n=42 v=0
55363 On ch=8 n=43 v=108
55363 On ch=8 n=55 v=113
55426 On ch=8 n=43 v=0
55431 On ch=8 n=55 v=0
55440 On ch=8 n=57 v=119
55440 On ch=8 n=45 v=102
55681 On ch=8 n=57 v=0
55684 On ch=8 n=45 v=0
55684 On ch=8 n=47 v=113
55684 On ch=8 n=59 v=105
55755 On ch=8 n=59 v=0
55760 On ch=8 n=47 v=0
55764 On ch=8 n=57 v=105
55765 On ch=8 n=45 v=108
55835 On ch=8 n=57 v=0
55838 On ch=8 n=45 v=0
55843 On ch=8 n=43 v=102
55843 On ch=8 n=55 v=115
55914 On ch=8 n=55 v=0
55914 On ch=8 n=43 v=0
55922 On ch=8 n=57 v=123
55922 On ch=8 n=45 v=115
56137 On ch=8 n=57 v=0
56153 On ch=8 n=45 v=0
56159 On ch=8 n=47 v=126
56159 On ch=8 n=59 v=115
56225 On ch=8 n=59 v=0
56240 On ch=8 n=47 v=0
56242 On ch=8 n=57 v=113
56243 On ch=8 n=45 v=108
56318 On ch=8 n=57 v=0
56322 On ch=8 n=43 v=94
56323 On ch=8 n=55 v=105
56324 On ch=8 n=45 v=0
56389 On ch=8 n=55 v=0
56398 On ch=8 n=43 v=0
56401 On ch=8 n=57 v=126
56401 On ch=8 n=45 v=119
56482 On ch=8 n=43 v=110
56482 On ch=8 n=55 v=123
56487 On ch=8 n=45 v=0
56490 On ch=8 n=57 v=0
56553 On ch=8 n=43 v=0
56557 On ch=8 n=42 v=98
56558 On ch=8 n=54 v=108
56566 On ch=8 n=55 v=0
56608 On ch=8 n=54 v=0
56614 On ch=8 n=42 v=0
56635 On ch=8 n=43 v=115
56637 On ch=8 n=55 v=123
56666 On ch=8 n=54 v=110
56666 On ch=8 n=42 v=96
56667 On ch=8 n=43 v=0
56671 On ch=8 n=55 v=0
56698 On ch=8 n=42 v=0
56706 On ch=8 n=54 v=0
56706 On ch=8 n=40 v=119
56706 On ch=8 n=52 v=119
57091 On ch=8 n=40 v=0
57104 On ch=8 n=52 v=0
57124 On ch=8 n=52 v=108
57124 On ch=8 n=40 v=105
57200 On ch=8 n=40 v=0
57200 On ch=8 n=52 v=0
57204 On ch=8 n=42 v=88
57204 On ch=8 n=54 v=92
57269 On ch=8 n=54 v=0
57269 On ch=8 n=42 v=0
57283 On ch=8 n=43 v=108
57283 On ch=8 n=55 v=113
57346 On ch=8 n=43 v=0
57351 On ch=8 n=55 v=0
57360 On ch=8 n=57 v=119
57360 On ch=8 n=45 v=102
57601 On ch=8 n=57 v=0
57604 On ch=8 n=45 v=0
57604 On ch=8 n=47 v=113
57604 On ch=8 n=59 v=105
57675 On ch=8 n=59 v=0
57680 On ch=8 n=47 v=0
57684 On ch=8 n=57 v=105
57685 On ch=8 n=45 v=108
57755 On ch=8 n=57 v=0
57758 On ch=8 n=45 v=0
57763 On ch=8 n=43 v=102
57763 On ch=8 n=55 v=115
57834 On ch=8 n=55 v=0
57834 On ch=8 n=43 v=0
57842 On ch=8 n=57 v=123
57842 On ch=8 n=45 v=115
58057 On ch=8 n=57 v=0
58073 On ch=8 n=45 v=0
58079 On ch=8 n=47 v=126
58079 On ch=8 n=59 v=115
58145 On ch=8 n=59 v=0
58160 On ch=8 n=47 v=0
58162 On ch=8 n=57 v=113
58163 On ch=8 n=45 v=108
58238 On ch=8 n=57 v=0
58242 On ch=8 n=43 v=94
58243 On ch=8 n=55 v=105
58244 On ch=8 n=45 v=0
58309 On ch=8 n=55 v=0
58318 On ch=8 n=43 v=0
58321 On ch=8 n=57 v=126
58321 On ch=8 n=45 v=119
58402 On ch=8 n=43 v=110
58402 On ch=8 n=55 v=123
58407 On ch=8 n=45 v=0
58410 On ch=8 n=57 v=0
58473 On ch=8 n=43 v=0
58477 On ch=8 n=42 v=98
58478 On ch=8 n=54 v=108
58486 On ch=8 n=55 v=0
58528 On ch=8 n=54 v=0
58534 On ch=8 n=42 v=0
58555 On ch=8 n=43 v=115
58557 On ch=8 n=55 v=123
58586 On ch=8 n=54 v=110
58586 On ch=8 n=42 v=96
58587 On ch=8 n=43 v=0
58591 On ch=8 n=55 v=0
58618 On ch=8 n=42 v=0
58626 On ch=8 n=54 v=0
58626 On ch=8 n=40 v=119
58626 On ch=8 n=52 v=119
59011 On ch=8 n=40 v=0
59024 On ch=8 n=52 v=0
59044 On ch=8 n=52 v=108
59044 On ch=8 n=40 v=105
59120 On ch=8 n=40 v=0
59120 On ch=8 n=52 v=0
59124 On ch=8 n=42 v=88
59124 On ch=8 n=54 v=92
59189 On ch=8 n=54 v=0
59189 On ch=8 n=42 v=0
59203 On ch=8 n=43 v=108
59203 On ch=8 n=55 v=113
59266 On ch=8 n=43 v=0
59271 On ch=8 n=55 v=0
59280 On ch=8 n=57 v=119
59280 On ch=8 n=45 v=102
59521 On ch=8 n=57 v=0
59524 On ch=8 n=45 v=0
59524 On ch=8 n=47 v=113
59524 On ch=8 n=59 v=105
59595 On ch=8 n=59 v=0
59600 On ch=8 n=47 v=0
59604 On ch=8 n=57 v=105
59605 On ch=8 n=45 v=108
59675 On ch=8 n=57 v=0
59678 On ch=8 n=45 v=0
59683 On ch=8 n=43 v=102
59683 On ch=8 n=55 v=115
59754 On ch=8 n=55 v=0
59754 On ch=8 n=43 v=0
59762 On ch=8 n=57 v=123
59762 On ch=8 n=45 v=115
59977 On ch=8 n=57 v=0
59993 On ch=8 n=45 v=0
59999 On ch=8 n=47 v=126
59999 On ch=8 n=59 v=115
60065 On ch=8 n=59 v=0
60080 On ch=8 n=47 v=0
60082 On ch=8 n=57 v=113
60083 On ch=8 n=45 v=108
60158 On ch=8 n=57 v=0
60162 On ch=8 n=43 v=94
60163 On ch=8 n=55 v=105
60164 On ch=8 n=45 v=0
60229 On ch=8 n=55 v=0
60238 On ch=8 n=43 v=0
60241 On ch=8 n=57 v=126
60241 On ch=8 n=45 v=119
60322 On ch=8 n=43 v=110
60322 On ch=8 n=55 v=123
60327 On ch=8 n=45 v=0
60330 On ch=8 n=57 v=0
60393 On ch=8 n=43 v=0
60397 On ch=8 n=42 v=98
60398 On ch=8 n=54 v=108
60406 On ch=8 n=55 v=0
60448 On ch=8 n=54 v=0
60454 On ch=8 n=42 v=0
60475 On ch=8 n=43 v=115
60477 On ch=8 n=55 v=123
60506 On ch=8 n=54 v=110
60506 On ch=8 n=42 v=96
60507 On ch=8 n=43 v=0
60511 On ch=8 n=55 v=0
60538 On ch=8 n=42 v=0
60546 On ch=8 n=54 v=0
60546 On ch=8 n=40 v=119
60546 On ch=8 n=52 v=119
60931 On ch=8 n=40 v=0
60944 On ch=8 n=52 v=0
60964 On ch=8 n=52 v=108
60964 On ch=8 n=40 v=105
61040 On ch=8 n=40 v=0
61040 On ch=8 n=52 v=0
61044 On ch=8 n=42 v=88
61044 On ch=8 n=54 v=92
61109 On ch=8 n=54 v=0
61109 On ch=8 n=42 v=0
61123 On ch=8 n=43 v=108
61123 On ch=8 n=55 v=113
61186 On ch=8 n=43 v=0
61191 On ch=8 n=55 v=0
61200 On ch=8 n=57 v=119
61200 On ch=8 n=45 v=102
61441 On ch=8 n=57 v=0
61444 On ch=8 n=45 v=0
61444 On ch=8 n=47 v=113
61444 On ch=8 n=59 v=105
61515 On ch=8 n=59 v=0
61520 On ch=8 n=47 v=0
61524 On ch=8 n=57 v=105
61525 On ch=8 n=45 v=108
61595 On ch=8 n=57 v=0
61598 On ch=8 n=45 v=0
61603 On ch=8 n=43 v=102
61603 On ch=8 n=55 v=115
61674 On ch=8 n=55 v=0
61674 On ch=8 n=43 v=0
61682 On ch=8 n=57 v=123
61682 On ch=8 n=45 v=115
61897 On ch=8 n=57 v=0
61913 On ch=8 n=45 v=0
61919 On ch=8 n=47 v=126
61919 On ch=8 n=59 v=115
61985 On ch=8 n=59 v=0
62000 On ch=8 n=47 v=0
62002 On ch=8 n=57 v=113
62003 On ch=8 n=45 v=108
62078 On ch=8 n=57 v=0
62082 On ch=8 n=43 v=94
62083 On ch=8 n=55 v=105
62084 On ch=8 n=45 v=0
62149 On ch=8 n=55 v=0
62158 On ch=8 n=43 v=0
62161 On ch=8 n=57 v=126
62161 On ch=8 n=45 v=119
62242 On ch=8 n=43 v=110
62242 On ch=8 n=55 v=123
62247 On ch=8 n=45 v=0
62250 On ch=8 n=57 v=0
62313 On ch=8 n=43 v=0
62317 On ch=8 n=42 v=98
62318 On ch=8 n=54 v=108
62326 On ch=8 n=55 v=0
62368 On ch=8 n=54 v=0
62374 On ch=8 n=42 v=0
62395 On ch=8 n=43 v=115
62397 On ch=8 n=55 v=123
62426 On ch=8 n=54 v=110
62426 On ch=8 n=42 v=96
62427 On ch=8 n=43 v=0
62431 On ch=8 n=55 v=0
62458 On ch=8 n=42 v=0
62466 On ch=8 n=54 v=0
62466 On ch=8 n=40 v=119
62466 On ch=8 n=52 v=119
62851 On ch=8 n=40 v=0
62864 On ch=8 n=52 v=0
62884 On ch=8 n=52 v=108
62884 On ch=8 n=40 v=105
62960 On ch=8 n=40 v=0
62960 On ch=8 n=52 v=0
62964 On ch=8 n=42 v=88
62964 On ch=8 n=54 v=92
63029 On ch=8 n=54 v=0
63029 On ch=8 n=42 v=0
63043 On ch=8 n=43 v=108
63043 On ch=8 n=55 v=113
63106 On ch=8 n=43 v=0
63111 On ch=8 n=55 v=0
63120 On ch=8 n=57 v=119
63120 On ch=8 n=45 v=102
63361 On ch=8 n=57 v=0
63364 On ch=8 n=45 v=0
63364 On ch=8 n=47 v=113
63364 On ch=8 n=59 v=105
63435 On ch=8 n=59 v=0
63440 On ch=8 n=47 v=0
63444 On ch=8 n=57 v=105
63445 On ch=8 n=45 v=108
63515 On ch=8 n=57 v=0
63518 On ch=8 n=45 v=0
63523 On ch=8 n=43 v=102
63523 On ch=8 n=55 v=115
63594 On ch=8 n=55 v=0
63594 On ch=8 n=43 v=0
63602 On ch=8 n=57 v=123
63602 On ch=8 n=45 v=115
63817 On ch=8 n=57 v=0
63833 On ch=8 n=45 v=0
63839 On ch=8 n=47 v=126
63839 On ch=8 n=59 v=115
63905 On ch=8 n=59 v=0
63920 On ch=8 n=47 v=0
63922 On ch=8 n=57 v=113
63923 On ch=8 n=45 v=108
63998 On ch=8 n=57 v=0
64002 On ch=8 n=43 v=94
64003 On ch=8 n=55 v=105
64004 On ch=8 n=45 v=0
64069 On ch=8 n=55 v=0
64078 On ch=8 n=43 v=0
64081 On ch=8 n=57 v=126
64081 On ch=8 n=45 v=119
64162 On ch=8 n=43 v=110
64162 On ch=8 n=55 v=123
64167 On ch=8 n=45 v=0
64170 On ch=8 n=57 v=0
64233 On ch=8 n=43 v=0
64237 On ch=8 n=42 v=98
64238 On ch=8 n=54 v=108
64246 On ch=8 n=55 v=0
64288 On ch=8 n=54 v=0
64294 On ch=8 n=42 v=0
64315 On ch=8 n=43 v=115
64317 On ch=8 n=55 v=123
64346 On ch=8 n=54 v=110
64346 On ch=8 n=42 v=96
64347 On ch=8 n=43 v=0
64351 On ch=8 n=55 v=0
64378 On ch=8 n=42 v=0
64386 On ch=8 n=54 v=0
64386 On ch=8 n=40 v=119
64386 On ch=8 n=52 v=119
64771 On ch=8 n=40 v=0
64784 On ch=8 n=52 v=0
64804 On ch=8 n=52 v=108
64804 On ch=8 n=40 v=105
64880 On ch=8 n=40 v=0
64880 On ch=8 n=52 v=0
64884 On ch=8 n=42 v=88
64884 On ch=8 n=54 v=92
64949 On ch=8 n=54 v=0
64949 On ch=8 n=42 v=0
64963 On ch=8 n=43 v=108
64963 On ch=8 n=55 v=113
65026 On ch=8 n=43 v=0
65031 On ch=8 n=55 v=0
65040 On ch=8 n=57 v=119
65040 On ch=8 n=45 v=102
65281 On ch=8 n=57 v=0
65284 On ch=8 n=45 v=0
65284 On ch=8 n=47 v=113
65284 On ch=8 n=59 v=105
65355 On ch=8 n=59 v=0
65360 On ch=8 n=47 v=0
65364 On ch=8 n=57 v=105
65365 On ch=8 n=45 v=108
65435 On ch=8 n=57 v=0
65438 On ch=8 n=45 v=0
65443 On ch=8 n=43 v=102
65443 On ch=8 n=55 v=115
65514 On ch=8 n=55 v=0
65514 On ch=8 n=43 v=0
65522 On ch=8 n=57 v=123
65522 On ch=8 n=45 v=115
65737 On ch=8 n=57 v=0
65753 On ch=8 n=45 v=0
65759 On ch=8 n=47 v=126
65759 On ch=8 n=59 v=115
65825 On ch=8 n=59 v=0
65840 On ch=8 n=47 v=0
65842 On ch=8 n=57 v=113
65843 On ch=8 n=45 v=108
65918 On ch=8 n=57 v=0
65922 On ch=8 n=43 v=94
65923 On ch=8 n=55 v=105
65924 On ch=8 n=45 v=0
65989 On ch=8 n=55 v=0
65998 On ch=8 n=43 v=0
66001 On ch=8 n=57 v=126
66001 On ch=8 n=45 v=119
66082 On ch=8 n=43 v=110
66082 On ch=8 n=55 v=123
66087 On ch=8 n=45 v=0
66090 On ch=8 n=57 v=0
66153 On ch=8 n=43 v=0
66157 On ch=8 n=42 v=98
66158 On ch=8 n=54 v=108
66166 On ch=8 n=55 v=0
66208 On ch=8 n=54 v=0
66214 On ch=8 n=42 v=0
66235 On ch=8 n=43 v=115
66237 On ch=8 n=55 v=123
66266 On ch=8 n=54 v=110
66266 On ch=8 n=42 v=96
66267 On ch=8 n=43 v=0
66271 On ch=8 n=55 v=0
66298 On ch=8 n=42 v=0
66306 On ch=8 n=54 v=0
66306 On ch=8 n=40 v=119
66306 On ch=8 n=52 v=119
66691 On ch=8 n=40 v=0
66704 On ch=8 n=52 v=0
66724 On ch=8 n=52 v=108
66724 On ch=8 n=40 v=105
66800 On ch=8 n=40 v=0
66800 On ch=8 n=52 v=0
66804 On ch=8 n=42 v=88
66804 On ch=8 n=54 v=92
66869 On ch=8 n=54 v=0
66869 On ch=8 n=42 v=0
66883 On ch=8 n=43 v=108
66883 On ch=8 n=55 v=113
66946 On ch=8 n=43 v=0
66951 On ch=8 n=55 v=0
66960 On ch=8 n=57 v=119
66960 On ch=8 n=45 v=102
67201 On ch=8 n=57 v=0
67204 On ch=8 n=45 v=0
67204 On ch=8 n=47 v=113
67204 On ch=8 n=59 v=105
67275 On ch=8 n=59 v=0
67280 On ch=8 n=47 v=0
67284 On ch=8 n=57 v=105
67285 On ch=8 n=45 v=108
67355 On ch=8 n=57 v=0
67358 On ch=8 n=45 v=0
67363 On ch=8 n=43 v=102
67363 On ch=8 n=55 v=115
67434 On ch=8 n=55 v=0
67434 On ch=8 n=43 v=0
67442 On ch=8 n=57 v=123
67442 On ch=8 n=45 v=115
67657 On ch=8 n=57 v=0
67673 On ch=8 n=45 v=0
67679 On ch=8 n=47 v=126
67679 On ch=8 n=59 v=115
67680 Par ch=8 c=11 v=126
67680 Par ch=8 c=11 v=124
67680 Par ch=8 c=11 v=121
67680 Par ch=8 c=11 v=119
67680 Par ch=8 c=11 v=116
67680 Par ch=8 c=11 v=113
67680 Par ch=8 c=11 v=110
67680 Par ch=8 c=11 v=107
67680 Par ch=8 c=11 v=104
67680 Par ch=8 c=11 v=101
67680 Par ch=8 c=11 v=98
67680 Par ch=8 c=11 v=94
67680 Par ch=8 c=11 v=91
67680 Par ch=8 c=11 v=88
67680 Par ch=8 c=11 v=84
67680 Par ch=8 c=11 v=80
67680 Par ch=8 c=11 v=77
67680 Par ch=8 c=11 v=73
67680 Par ch=8 c=11 v=69
67680 Par ch=8 c=11 v=65
67680 Par ch=8 c=11 v=61
67680 Par ch=8 c=11 v=57
67680 Par ch=8 c=11 v=53
67680 Par ch=8 c=11 v=49
67680 Par ch=8 c=11 v=44
67680 Par ch=8 c=11 v=40
67680 Par ch=8 c=11 v=36
67680 Par ch=8 c=11 v=32
67680 Par ch=8 c=11 v=28
67680 Par ch=8 c=11 v=24
67680 Par ch=8 c=11 v=20
67680 Par ch=8 c=11 v=15
67680 Par ch=8 c=11 v=12
67680 Par ch=8 c=11 v=8
67680 Par ch=8 c=11 v=4
67680 Par ch=8 c=11 v=0
67680 Par ch=8 c=11 v=1
67680 Par ch=8 c=11 v=3
67680 Par ch=8 c=11 v=5
67680 Par ch=8 c=11 v=7
67680 Par ch=8 c=11 v=9
67680 Par ch=8 c=11 v=11
67680 Par ch=8 c=11 v=13
67680 Par ch=8 c=11 v=15
67680 Par ch=8 c=11 v=18
67680 Par ch=8 c=11 v=20
67680 Par ch=8 c=11 v=23
67680 Par ch=8 c=11 v=26
67680 Par ch=8 c=11 v=28
67680 Par ch=8 c=11 v=31
67680 Par ch=8 c=11 v=34
67680 Par ch=8 c=11 v=37
67680 Par ch=8 c=11 v=40
67680 Par ch=8 c=11 v=43
67680 Par ch=8 c=11 v=47
67680 Par ch=8 c=11 v=50
67680 Par ch=8 c=11 v=53
67680 Par ch=8 c=11 v=56
67680 Par ch=8 c=11 v=60
67680 Par ch=8 c=11 v=63
67680 Par ch=8 c=11 v=66
67680 Par ch=8 c=11 v=70
67680 Par ch=8 c=11 v=73
67680 Par ch=8 c=11 v=77
67680 Par ch=8 c=11 v=80
67680 Par ch=8 c=11 v=84
67680 Par ch=8 c=11 v=87
67680 Par ch=8 c=11 v=91
67680 Par ch=8 c=11 v=94
67680 Par ch=8 c=11 v=98
67680 Par ch=8 c=11 v=102
67680 Par ch=8 c=11 v=105
67680 Par ch=8 c=11 v=109
67680 Par ch=8 c=11 v=112
67680 Par ch=8 c=11 v=115
67680 Par ch=8 c=11 v=119
67680 Par ch=8 c=11 v=122
67680 Par ch=8 c=11 v=126
67680 Par ch=8 c=11 v=127
67745 On ch=8 n=59 v=0
67760 On ch=8 n=47 v=0
67762 On ch=8 n=57 v=113
67763 On ch=8 n=45 v=108
67838 On ch=8 n=57 v=0
67842 On ch=8 n=43 v=94
67843 On ch=8 n=55 v=105
67844 On ch=8 n=45 v=0
67909 On ch=8 n=55 v=0
67918 On ch=8 n=43 v=0
67921 On ch=8 n=57 v=126
67921 On ch=8 n=45 v=119
68002 On ch=8 n=43 v=110
68002 On ch=8 n=55 v=123
68007 On ch=8 n=45 v=0
68010 On ch=8 n=57 v=0
68073 On ch=8 n=43 v=0
68077 On ch=8 n=42 v=98
68078 On ch=8 n=54 v=108
68086 On ch=8 n=55 v=0
68128 On ch=8 n=54 v=0
68134 On ch=8 n=42 v=0
68155 On ch=8 n=43 v=115
68157 On ch=8 n=55 v=123
68186 On ch=8 n=54 v=110
68186 On ch=8 n=42 v=96
68187 On ch=8 n=43 v=0
68191 On ch=8 n=55 v=0
68218 On ch=8 n=42 v=0
68226 On ch=8 n=54 v=0
68226 On ch=8 n=40 v=119
68226 On ch=8 n=52 v=119
68937 Par ch=8 c=11 v=126
68971 Par ch=8 c=11 v=125
68990 Par ch=8 c=11 v=124
69010 Par ch=8 c=11 v=123
69037 Par ch=8 c=11 v=122
69055 Par ch=8 c=11 v=121
69071 Par ch=8 c=11 v=120
69121 Par ch=8 c=11 v=119
69155 Par ch=8 c=11 v=118
69162 Par ch=8 c=11 v=117
69173 Par ch=8 c=11 v=116
69181 Par ch=8 c=11 v=115
69194 Par ch=8 c=11 v=114
69217 Par ch=8 c=11 v=113
69241 Par ch=8 c=11 v=112
69262 Par ch=8 c=11 v=111
69278 Par ch=8 c=11 v=110
69301 Par ch=8 c=11 v=109
69330 Par ch=8 c=11 v=108
69351 Par ch=8 c=11 v=107
69364 Par ch=8 c=11 v=106
69377 Par ch=8 c=11 v=105
69388 Par ch=8 c=11 v=104
69398 Par ch=8 c=11 v=103
69411 Par ch=8 c=11 v=102
69440 Par ch=8 c=11 v=101
69461 Par ch=8 c=11 v=100
69474 Par ch=8 c=11 v=99
69485 Par ch=8 c=11 v=98
69498 Par ch=8 c=11 v=97
69511 Par ch=8 c=11 v=96
69537 Par ch=8 c=11 v=95
69561 Par ch=8 c=11 v=94
69587 Par ch=8 c=11 v=93
69603 Par ch=8 c=11 v=92
69616 Par ch=8 c=11 v=91
69624 Par ch=8 c=11 v=90
69642 Par ch=8 c=11 v=89
69673 Par ch=8 c=11 v=88
69681 Par ch=8 c=11 v=87
69692 Par ch=8 c=11 v=86
69700 Par ch=8 c=11 v=85
69713 Par ch=8 c=11 v=84
69736 Par ch=8 c=11 v=83
69744 Par ch=8 c=11 v=82
69752 Par ch=8 c=11 v=81
69757 Par ch=8 c=11 v=80
69765 Par ch=8 c=11 v=79
69773 Par ch=8 c=11 v=78
69794 Par ch=8 c=11 v=77
69810 Par ch=8 c=11 v=76
69820 Par ch=8 c=11 v=75
69831 Par ch=8 c=11 v=74
69841 Par ch=8 c=11 v=73
69857 Par ch=8 c=11 v=72
69867 Par ch=8 c=11 v=71
69880 Par ch=8 c=11 v=70
69907 Par ch=8 c=11 v=69
69920 Par ch=8 c=11 v=68
69959 Par ch=8 c=11 v=67
69964 Par ch=8 c=11 v=66
69972 Par ch=8 c=11 v=65
69977 Par ch=8 c=11 v=64
69985 Par ch=8 c=11 v=63
69993 Par ch=8 c=11 v=62
70040 Par ch=8 c=11 v=61
70053 Par ch=8 c=11 v=60
70061 Par ch=8 c=11 v=59
70074 Par ch=8 c=11 v=58
70087 Par ch=8 c=11 v=57
70106 Par ch=8 c=11 v=56
70124 Par ch=8 c=11 v=55
70150 Par ch=8 c=11 v=54
70171 Par ch=8 c=11 v=53
70179 Par ch=8 c=11 v=52
70192 Par ch=8 c=11 v=51
70205 Par ch=8 c=11 v=50
70216 Par ch=8 c=11 v=49
70224 Par ch=8 c=11 v=48
70265 Par ch=8 c=11 v=47
70284 Par ch=8 c=11 v=46
70300 Par ch=8 c=11 v=45
70323 Par ch=8 c=11 v=44
70370 Par ch=8 c=11 v=43
70381 Par ch=8 c=11 v=42
70394 Par ch=8 c=11 v=41
70412 Par ch=8 c=11 v=40
70423 Par ch=8 c=11 v=39
70431 Par ch=8 c=11 v=38
70441 Par ch=8 c=11 v=37
70462 Par ch=8 c=11 v=36
70488 Par ch=8 c=11 v=35
70509 Par ch=8 c=11 v=34
70533 Par ch=8 c=11 v=33
70575 Par ch=8 c=11 v=32
70601 Par ch=8 c=11 v=31
70609 Par ch=8 c=11 v=30
70617 Par ch=8 c=11 v=29
70624 Par ch=8 c=11 v=28
70626 On ch=8 n=52 v=0
70626 On ch=8 n=40 v=0
70640 Par ch=8 c=11 v=27
70658 Par ch=8 c=11 v=26
70682 Par ch=8 c=11 v=25
70713 Par ch=8 c=11 v=24
70734 Par ch=8 c=11 v=23
70784 Par ch=8 c=11 v=22
70797 Par ch=8 c=11 v=21
70803 Par ch=8 c=11 v=20
70818 Par ch=8 c=11 v=19
70829 Par ch=8 c=11 v=18
70844 Par ch=8 c=11 v=17
70850 Par ch=8 c=11 v=16
70858 Par ch=8 c=11 v=15
70868 Par ch=8 c=11 v=14
70873 Par ch=8 c=11 v=13
70881 Par ch=8 c=11 v=12
70886 Par ch=8 c=11 v=11
70894 Par ch=8 c=11 v=10
70902 Par ch=8 c=11 v=9
70907 Par ch=8 c=11 v=8
70910 Par ch=8 c=11 v=7
70915 Par ch=8 c=11 v=6
70915 Par ch=8 c=11 v=5
70918 Par ch=8 c=11 v=4
70920 Par ch=8 c=11 v=3
70926 Par ch=8 c=11 v=2
70926 Par ch=8 c=11 v=1
70926 Par ch=8 c=11 v=0
71054 Par ch=8 c=11 v=1
71059 Par ch=8 c=11 v=2
71059 Par ch=8 c=11 v=3
71059 Par ch=8 c=11 v=4
71059 Par ch=8 c=11 v=5
71059 Par ch=8 c=11 v=6
71059 Par ch=8 c=11 v=7
71059 Par ch=8 c=11 v=8
71062 Par ch=8 c=11 v=9
71062 Par ch=8 c=11 v=10
71062 Par ch=8 c=11 v=11
71062 Par ch=8 c=11 v=13
71062 Par ch=8 c=11 v=14
71065 Par ch=8 c=11 v=15
71065 Par ch=8 c=11 v=16
71065 Par ch=8 c=11 v=17
71065 Par ch=8 c=11 v=18
71067 Par ch=8 c=11 v=20
71067 Par ch=8 c=11 v=21
71067 Par ch=8 c=11 v=22
71067 Par ch=8 c=11 v=23
71067 Par ch=8 c=11 v=24
71067 Par ch=8 c=11 v=25
71067 Par ch=8 c=11 v=27
71067 Par ch=8 c=11 v=28
71067 Par ch=8 c=11 v=29
71067 Par ch=8 c=11 v=30
71067 Par ch=8 c=11 v=32
71067 Par ch=8 c=11 v=33
71067 Par ch=8 c=11 v=34
71067 Par ch=8 c=11 v=35
71067 Par ch=8 c=11 v=37
71067 Par ch=8 c=11 v=38
71067 Par ch=8 c=11 v=39
71067 Par ch=8 c=11 v=41
71067 Par ch=8 c=11 v=42
71067 Par ch=8 c=11 v=43
71067 Par ch=8 c=11 v=45
71067 Par ch=8 c=11 v=46
71067 Par ch=8 c=11 v=48
71067 Par ch=8 c=11 v=49
71067 Par ch=8 c=11 v=51
71067 Par ch=8 c=11 v=52
71067 Par ch=8 c=11 v=54
71067 Par ch=8 c=11 v=55
71067 Par ch=8 c=11 v=57
71067 Par ch=8 c=11 v=58
71067 Par ch=8 c=11 v=60
71067 Par ch=8 c=11 v=61
71067 Par ch=8 c=11 v=63
71067 Par ch=8 c=11 v=64
71067 Par ch=8 c=11 v=65
71067 Par ch=8 c=11 v=67
71067 Par ch=8 c=11 v=68
71067 Par ch=8 c=11 v=70
71067 Par ch=8 c=11 v=71
71067 Par ch=8 c=11 v=72
71067 Par ch=8 c=11 v=74
71067 Par ch=8 c=11 v=75
71067 Par ch=8 c=11 v=77
71067 Par ch=8 c=11 v=78
71067 Par ch=8 c=11 v=80
71067 Par ch=8 c=11 v=81
71067 Par ch=8 c=11 v=83
71067 Par ch=8 c=11 v=84
71067 Par ch=8 c=11 v=86
71067 Par ch=8 c=11 v=87
71067 Par ch=8 c=11 v=89
71067 Par ch=8 c=11 v=90
71067 Par ch=8 c=11 v=91
71067 Par ch=8 c=11 v=93
71067 Par ch=8 c=11 v=94
71067 Par ch=8 c=11 v=96
71067 Par ch=8 c=11 v=97
71067 Par ch=8 c=11 v=99
71067 Par ch=8 c=11 v=100
71067 Par ch=8 c=11 v=102
71067 Par ch=8 c=11 v=103
71067 Par ch=8 c=11 v=105
71067 Par ch=8 c=11 v=106
71067 Par ch=8 c=11 v=108
71067 Par ch=8 c=11 v=109
71067 Par ch=8 c=11 v=111
71067 Par ch=8 c=11 v=112
71067 Par ch=8 c=11 v=113
71067 Par ch=8 c=11 v=115
71067 Par ch=8 c=11 v=116
71067 Par ch=8 c=11 v=118
71067 Par ch=8 c=11 v=119
71067 Par ch=8 c=11 v=121
71067 Par ch=8 c=11 v=122
71067 Par ch=8 c=11 v=123
71067 Par ch=8 c=11 v=125
71070 Par ch=8 c=11 v=126
71070 Par ch=8 c=11 v=127
74641 On ch=8 n=55 v=89
74641 On ch=8 n=50 v=76
74641 On ch=8 n=43 v=77
74641 On ch=8 n=59 v=105
74641 On ch=8 n=62 v=89
74681 On ch=8 n=62 v=0
74684 On ch=8 n=55 v=0
74684 On ch=8 n=59 v=0
74701 On ch=8 n=59 v=67
74701 On ch=8 n=62 v=66
74701 On ch=8 n=55 v=60
74733 On ch=8 n=55 v=0
74734 On ch=8 n=50 v=0
74739 On ch=8 n=59 v=0
74741 On ch=8 n=62 v=0
74742 On ch=8 n=43 v=0
74761 On ch=8 n=64 v=86
74761 On ch=8 n=60 v=91
74761 On ch=8 n=55 v=74
74817 On ch=8 n=55 v=0
74817 On ch=8 n=60 v=0
74822 On ch=8 n=64 v=0
74878 On ch=8 n=65 v=89
74879 On ch=8 n=62 v=89
74879 On ch=8 n=55 v=81
74879 On ch=8 n=61 v=72
74893 On ch=8 n=61 v=0
74955 On ch=8 n=65 v=0
74959 On ch=8 n=55 v=0
74964 On ch=8 n=62 v=0
74998 On ch=8 n=64 v=76
74999 On ch=8 n=55 v=72
74999 On ch=8 n=60 v=72
75057 On ch=8 n=60 v=0
75057 On ch=8 n=55 v=0
75059 On ch=8 n=64 v=0
75119 On ch=8 n=65 v=86
75119 On ch=8 n=61 v=86
75119 On ch=8 n=62 v=84
75119 On ch=8 n=55 v=77
75149 On ch=8 n=61 v=0
75207 On ch=8 n=65 v=0
75210 On ch=8 n=55 v=0
75223 On ch=8 n=62 v=0
75238 On ch=8 n=60 v=84
75238 On ch=8 n=64 v=78
75238 On ch=8 n=55 v=72
75289 On ch=8 n=64 v=0
75289 On ch=8 n=60 v=0
75294 On ch=8 n=55 v=0
75301 On ch=8 n=62 v=86
75301 On ch=8 n=55 v=65
75301 On ch=8 n=59 v=99
75419 On ch=8 n=43 v=84
75419 On ch=8 n=50 v=99
75517 On ch=8 n=62 v=0
75518 On ch=8 n=43 v=0
75518 On ch=8 n=50 v=0
75520 On ch=8 n=55 v=0
75522 On ch=8 n=59 v=0
75539 On ch=8 n=43 v=95
75539 On ch=8 n=50 v=89
75539 On ch=8 n=59 v=95
75539 On ch=8 n=62 v=91
75539 On ch=8 n=55 v=74
75539 On ch=8 n=58 v=99
75552 On ch=8 n=58 v=0
75640 On ch=8 n=50 v=0
75642 On ch=8 n=62 v=0
75642 On ch=8 n=55 v=0
75645 On ch=8 n=59 v=0
75659 On ch=8 n=62 v=67
75659 On ch=8 n=50 v=74
75659 On ch=8 n=59 v=86
75659 On ch=8 n=55 v=66
75670 On ch=8 n=50 v=0
75672 On ch=8 n=43 v=0
75697 On ch=8 n=55 v=0
75702 On ch=8 n=59 v=0
75702 On ch=8 n=62 v=0
75719 On ch=8 n=60 v=84
75719 On ch=8 n=64 v=86
75719 On ch=8 n=55 v=63
75773 On ch=8 n=55 v=0
75785 On ch=8 n=64 v=0
75785 On ch=8 n=60 v=0
75839 On ch=8 n=65 v=103
75839 On ch=8 n=62 v=105
75839 On ch=8 n=61 v=108
75839 On ch=8 n=55 v=89
75839 On ch=8 n=64 v=65
75844 On ch=8 n=64 v=0
75863 On ch=8 n=61 v=0
75925 On ch=8 n=65 v=0
75930 On ch=8 n=55 v=0
75958 On ch=8 n=55 v=56
75959 On ch=8 n=60 v=81
75959 On ch=8 n=64 v=89
75962 On ch=8 n=62 v=0
76004 On ch=8 n=60 v=0
76008 On ch=8 n=55 v=0
76019 On ch=8 n=48 v=103
76019 On ch=8 n=41 v=89
76020 On ch=8 n=64 v=0
76021 On ch=8 n=62 v=70
76021 On ch=8 n=53 v=86
76021 On ch=8 n=58 v=86
76249 On ch=8 n=53 v=0
76260 On ch=8 n=58 v=0
76293 On ch=8 n=41 v=0
76299 On ch=8 n=48 v=0
76318 On ch=8 n=59 v=81
76318 On ch=8 n=55 v=95
76318 On ch=8 n=50 v=78
76318 On ch=8 n=43 v=89
76364 On ch=8 n=62 v=0
76371 On ch=8 n=59 v=0
76379 On ch=8 n=62 v=62
76379 On ch=8 n=59 v=72
76397 On ch=8 n=50 v=0
76397 On ch=8 n=43 v=0
76422 On ch=8 n=59 v=0
76424 On ch=8 n=55 v=0
76425 On ch=8 n=62 v=0
76439 On ch=8 n=64 v=78
76439 On ch=8 n=60 v=78
76439 On ch=8 n=55 v=70
76495 On ch=8 n=55 v=0
76500 On ch=8 n=60 v=0
76500 On ch=8 n=64 v=0
76558 On ch=8 n=62 v=95
76558 On ch=8 n=65 v=89
76559 On ch=8 n=55 v=84
76559 On ch=8 n=61 v=84
76583 On ch=8 n=61 v=0
76637 On ch=8 n=65 v=0
76644 On ch=8 n=55 v=0
76656 On ch=8 n=62 v=0
76679 On ch=8 n=64 v=68
76679 On ch=8 n=60 v=70
76679 On ch=8 n=55 v=76
76759 On ch=8 n=60 v=0
76759 On ch=8 n=64 v=0
76762 On ch=8 n=55 v=0
76799 On ch=8 n=62 v=105
76801 On ch=8 n=65 v=95
76801 On ch=8 n=61 v=102
76801 On ch=8 n=55 v=78
76830 On ch=8 n=61 v=0
76889 On ch=8 n=65 v=0
76894 On ch=8 n=55 v=0
76919 On ch=8 n=64 v=78
76919 On ch=8 n=60 v=84
76919 On ch=8 n=55 v=77
76927 On ch=8 n=62 v=0
76970 On ch=8 n=60 v=0
76975 On ch=8 n=64 v=0
76975 On ch=8 n=55 v=0
76981 On ch=8 n=62 v=89
76981 On ch=8 n=55 v=65
76981 On ch=8 n=59 v=102
77098 On ch=8 n=43 v=86
77098 On ch=8 n=50 v=102
77194 On ch=8 n=50 v=0
77194 On ch=8 n=43 v=0
77196 On ch=8 n=62 v=0
77199 On ch=8 n=59 v=0
77207 On ch=8 n=55 v=0
77218 On ch=8 n=50 v=95
77218 On ch=8 n=43 v=89
77218 On ch=8 n=59 v=89
77218 On ch=8 n=55 v=67
77218 On ch=8 n=62 v=78
77317 On ch=8 n=50 v=0
77327 On ch=8 n=55 v=0
77327 On ch=8 n=62 v=0
77333 On ch=8 n=59 v=0
77338 On ch=8 n=50 v=76
77339 On ch=8 n=59 v=63
77339 On ch=8 n=62 v=66
77339 On ch=8 n=55 v=63
77346 On ch=8 n=50 v=0
77349 On ch=8 n=43 v=0
77376 On ch=8 n=55 v=0
77384 On ch=8 n=59 v=0
77384 On ch=8 n=62 v=0
77401 On ch=8 n=60 v=91
77401 On ch=8 n=64 v=95
77401 On ch=8 n=55 v=76
77462 On ch=8 n=55 v=0
77467 On ch=8 n=64 v=0
77470 On ch=8 n=60 v=0
77518 On ch=8 n=62 v=95
77518 On ch=8 n=65 v=91
77518 On ch=8 n=55 v=86
77518 On ch=8 n=61 v=99
77542 On ch=8 n=61 v=0
77603 On ch=8 n=65 v=0
77614 On ch=8 n=55 v=0
77638 On ch=8 n=64 v=81
77638 On ch=8 n=55 v=65
77638 On ch=8 n=60 v=84
77643 On ch=8 n=62 v=0
77683 On ch=8 n=60 v=0
77683 On ch=8 n=55 v=0
77694 On ch=8 n=64 v=0
77699 On ch=8 n=48 v=95
77699 On ch=8 n=62 v=84
77699 On ch=8 n=41 v=99
77701 On ch=8 n=58 v=84
77701 On ch=8 n=53 v=81
77970 On ch=8 n=41 v=0
77970 On ch=8 n=48 v=0
77972 On ch=8 n=53 v=0
77986 On ch=8 n=58 v=0
77997 On ch=8 n=43 v=84
77997 On ch=8 n=59 v=54
77997 On ch=8 n=50 v=68
77997 On ch=8 n=48 v=67
77999 On ch=8 n=55 v=63
78042 On ch=8 n=48 v=0
78042 On ch=8 n=59 v=0
78042 On ch=8 n=62 v=0
78047 On ch=8 n=55 v=0
78059 On ch=8 n=55 v=53
78059 On ch=8 n=59 v=72
78059 On ch=8 n=62 v=65
78096 On ch=8 n=50 v=0
78096 On ch=8 n=43 v=0
78098 On ch=8 n=55 v=0
78101 On ch=8 n=59 v=0
78106 On ch=8 n=62 v=0
78121 On ch=8 n=60 v=95
78121 On ch=8 n=64 v=91
78121 On ch=8 n=55 v=91
78180 On ch=8 n=55 v=0
78182 On ch=8 n=64 v=0
78182 On ch=8 n=60 v=0
78239 On ch=8 n=62 v=108
78239 On ch=8 n=65 v=95
78239 On ch=8 n=55 v=102
78239 On ch=8 n=61 v=102
78268 On ch=8 n=61 v=0
78329 On ch=8 n=55 v=0
78329 On ch=8 n=65 v=0
78359 On ch=8 n=64 v=81
78359 On ch=8 n=60 v=86
78359 On ch=8 n=55 v=76
78366 On ch=8 n=62 v=0
78404 On ch=8 n=60 v=0
78412 On ch=8 n=55 v=0
78419 On ch=8 n=50 v=95
78419 On ch=8 n=43 v=95
78421 On ch=8 n=62 v=81
78421 On ch=8 n=55 v=63
78421 On ch=8 n=59 v=91
78436 On ch=8 n=64 v=0
78480 On ch=8 n=43 v=92
78490 On ch=8 n=55 v=0
78499 On ch=8 n=43 v=0
78503 On ch=8 n=62 v=0
78504 On ch=8 n=50 v=0
78509 On ch=8 n=59 v=0
78565 On ch=8 n=43 v=0
78572 On ch=8 n=45 v=100
78596 On ch=8 n=45 v=0
78605 On ch=8 n=47 v=92
78633 On ch=8 n=48 v=82
78635 On ch=8 n=47 v=0
78660 On ch=8 n=48 v=0
78665 On ch=8 n=50 v=88
78688 On ch=8 n=50 v=0
78698 On ch=8 n=52 v=96
78774 On ch=8 n=50 v=82
78783 On ch=8 n=52 v=0
78800 On ch=8 n=50 v=0
78807 On ch=8 n=48 v=90
78834 On ch=8 n=48 v=0
78837 On ch=8 n=47 v=77
78860 On ch=8 n=47 v=0
78865 On ch=8 n=45 v=79
78886 On ch=8 n=45 v=0
78892 On ch=8 n=43 v=105
78953 On ch=8 n=43 v=0
78960 On ch=8 n=41 v=94
79027 On ch=8 n=41 v=0
79046 On ch=8 n=43 v=90
79066 On ch=8 n=43 v=0
79076 On ch=8 n=45 v=86
79099 On ch=8 n=45 v=0
79101 On ch=8 n=46 v=89
79122 On ch=8 n=46 v=0
79136 On ch=8 n=48 v=89
79157 On ch=8 n=48 v=0
79164 On ch=8 n=50 v=101
79250 On ch=8 n=48 v=84
79264 On ch=8 n=50 v=0
79285 On ch=8 n=46 v=126
79287 On ch=8 n=48 v=0
79310 On ch=8 n=46 v=0
79312 On ch=8 n=45 v=85
79336 On ch=8 n=45 v=0
79340 On ch=8 n=43 v=77
79361 On ch=8 n=43 v=0
79370 On ch=8 n=41 v=89
79431 On ch=8 n=41 v=0
79435 On ch=8 n=43 v=96
79519 On ch=8 n=43 v=0
79526 On ch=8 n=45 v=98
79556 On ch=8 n=47 v=96
79558 On ch=8 n=45 v=0
79579 On ch=8 n=47 v=0
79586 On ch=8 n=48 v=83
79605 On ch=8 n=48 v=0
79614 On ch=8 n=50 v=89
79637 On ch=8 n=50 v=0
79646 On ch=8 n=52 v=110
79735 On ch=8 n=50 v=96
79742 On ch=8 n=52 v=0
79765 On ch=8 n=50 v=0
79769 On ch=8 n=48 v=105
79795 On ch=8 n=48 v=0
79795 On ch=8 n=47 v=83
79816 On ch=8 n=47 v=0
79823 On ch=8 n=45 v=79
79841 On ch=8 n=45 v=0
79855 On ch=8 n=43 v=123
79911 On ch=8 n=43 v=0
79920 On ch=8 n=53 v=119
79938 On ch=8 n=53 v=0
79948 On ch=8 n=57 v=105
79979 On ch=8 n=57 v=0
79979 On ch=8 n=58 v=79
80009 On ch=8 n=58 v=0
80009 On ch=8 n=60 v=96
80040 On ch=8 n=62 v=113
80048 On ch=8 n=60 v=0
80070 On ch=8 n=60 v=82
80087 On ch=8 n=62 v=0
80100 On ch=8 n=58 v=96
80114 On ch=8 n=60 v=0
80125 On ch=8 n=57 v=78
80135 On ch=8 n=58 v=0
80155 On ch=8 n=57 v=0
80155 On ch=8 n=55 v=85
80185 On ch=8 n=53 v=101
80195 On ch=8 n=55 v=0
80209 On ch=8 n=53 v=0
80215 On ch=8 n=50 v=102
80240 On ch=8 n=50 v=0
80246 On ch=8 n=48 v=92
80277 On ch=8 n=46 v=123
80278 On ch=8 n=48 v=0
80338 On ch=8 n=46 v=0
80341 On ch=8 n=43 v=123
80396 On ch=8 n=43 v=0
80401 On ch=8 n=52 v=110
80520 On ch=8 n=52 v=0
80523 On ch=8 n=54 v=100
80584 On ch=8 n=54 v=0
80637 On ch=8 n=55 v=98
80702 On ch=8 n=57 v=100
80706 On ch=8 n=55 v=0
80765 On ch=8 n=57 v=0
80817 On ch=8 n=59 v=100
80991 On ch=8 n=59 v=0
80998 On ch=8 n=60 v=89
81091 On ch=8 n=60 v=0
81117 On ch=8 n=62 v=96
81183 On ch=8 n=64 v=100
81199 On ch=8 n=62 v=0
81257 On ch=8 n=64 v=0
81297 On ch=8 n=66 v=90
81471 On ch=8 n=66 v=0
81478 On ch=8 n=67 v=86
81573 On ch=8 n=67 v=0
81596 On ch=8 n=69 v=94
81663 On ch=8 n=71 v=87
81678 On ch=8 n=69 v=0
81713 On ch=8 n=71 v=0
81776 On ch=8 n=71 v=83
82078 On ch=8 n=79 v=76
82112 On ch=8 n=79 v=0
82112 On ch=8 n=78 v=75
82138 On ch=8 n=79 v=76
82141 On ch=8 n=78 v=0
82162 On ch=8 n=78 v=74
82170 On ch=8 n=79 v=0
82188 On ch=8 n=79 v=77
82191 On ch=8 n=78 v=0
82215 On ch=8 n=78 v=74
82223 On ch=8 n=79 v=0
82236 On ch=8 n=79 v=75
82244 On ch=8 n=78 v=0
82270 On ch=8 n=78 v=72
82278 On ch=8 n=79 v=0
82376 On ch=8 n=78 v=0
82400 On ch=8 n=78 v=73
82431 On ch=8 n=79 v=76
82434 On ch=8 n=78 v=0
82458 On ch=8 n=78 v=76
82463 On ch=8 n=79 v=0
82482 On ch=8 n=79 v=77
82489 On ch=8 n=78 v=0
82505 On ch=8 n=78 v=75
82513 On ch=8 n=79 v=0
82534 On ch=8 n=79 v=78
82542 On ch=8 n=78 v=0
82563 On ch=8 n=78 v=75
82571 On ch=8 n=79 v=0
82587 On ch=8 n=79 v=78
82595 On ch=8 n=78 v=0
82611 On ch=8 n=78 v=77
82621 On ch=8 n=79 v=0
82626 Meta Text "%+"
82766 On ch=8 n=71 v=0
82843 On ch=8 n=78 v=0
82843 Meta TrkEnd
TrkEnd
MTrk
0 Meta 0x21 00
0 Meta TrkName "Guitar 3"
0 PrCh ch=9 p=24
0 Par ch=9 c=7 v=110
0 Par ch=9 c=10 v=75
0 Par ch=9 c=121 v=0
2 Par ch=9 c=0 v=0
4 Par ch=9 c=32 v=0
6 Par ch=9 c=11 v=127
8 Par ch=9 c=91 v=80
10 Par ch=9 c=93 v=25
480 Par ch=9 c=64 v=0
480 Par ch=9 c=64 v=127
898 On ch=9 n=64 v=59
906 On ch=9 n=64 v=0
906 On ch=9 n=67 v=60
913 On ch=9 n=71 v=74
915 On ch=9 n=67 v=0
923 On ch=9 n=71 v=0
923 On ch=9 n=76 v=98
929 On ch=9 n=76 v=0
1223 On ch=9 n=71 v=100
1269 On ch=9 n=69 v=81
1272 On ch=9 n=71 v=0
1298 On ch=9 n=71 v=57
1299 On ch=9 n=69 v=0
1306 On ch=9 n=69 v=62
1310 On ch=9 n=71 v=0
1316 On ch=9 n=67 v=64
1318 Par ch=9 c=64 v=0
1320 On ch=9 n=69 v=0
1355 On ch=9 n=66 v=62
1358 On ch=9 n=67 v=0
1469 On ch=9 n=69 v=64
1472 On ch=9 n=66 v=0
1580 Par ch=9 c=64 v=127
1585 On ch=9 n=69 v=0
1898 On ch=9 n=52 v=66
1907 On ch=9 n=52 v=0
1974 On ch=9 n=64 v=59
1981 On ch=9 n=67 v=67
1983 On ch=9 n=64 v=0
1989 On ch=9 n=67 v=0
1989 On ch=9 n=71 v=74
1998 On ch=9 n=71 v=0
1999 On ch=9 n=76 v=93
2002 On ch=9 n=76 v=0
2285 On ch=9 n=71 v=100
2323 On ch=9 n=69 v=63
2326 On ch=9 n=71 v=0
2341 On ch=9 n=69 v=0
2342 On ch=9 n=71 v=59
2350 On ch=9 n=69 v=63
2354 On ch=9 n=71 v=0
2357 Par ch=9 c=64 v=0
2358 On ch=9 n=67 v=70
2362 On ch=9 n=69 v=0
2396 On ch=9 n=66 v=63
2400 On ch=9 n=67 v=0
2433 Par ch=9 c=64 v=127
2446 On ch=9 n=66 v=0
2496 On ch=9 n=59 v=61
2503 On ch=9 n=60 v=68
2509 On ch=9 n=59 v=0
2509 Par ch=9 c=64 v=0
2515 On ch=9 n=62 v=66
2517 On ch=9 n=60 v=0
2520 Par ch=9 c=64 v=127
2544 On ch=9 n=54 v=58
2546 On ch=9 n=62 v=0
2550 On ch=9 n=54 v=0
2553 On ch=9 n=55 v=72
2553 Par ch=9 c=64 v=0
2560 On ch=9 n=57 v=60
2566 On ch=9 n=55 v=0
2567 Par ch=9 c=64 v=127
2613 Par ch=9 c=64 v=0
2618 On ch=9 n=57 v=0
2618 On ch=9 n=48 v=59
2713 Par ch=9 c=64 v=127
2728 On ch=9 n=48 v=0
3064 On ch=9 n=52 v=108
3070 On ch=9 n=52 v=0
3142 On ch=9 n=64 v=59
3149 On ch=9 n=67 v=65
3151 On ch=9 n=64 v=0
3154 On ch=9 n=71 v=81
3155 On ch=9 n=67 v=0
3162 On ch=9 n=76 v=104
3163 On ch=9 n=71 v=0
3167 On ch=9 n=76 v=0
3447 On ch=9 n=71 v=104
3484 On ch=9 n=69 v=59
3487 On ch=9 n=71 v=0
3507 On ch=9 n=69 v=0
3508 On ch=9 n=71 v=61
3516 On ch=9 n=69 v=64
3520 On ch=9 n=71 v=0
3525 Par ch=9 c=64 v=0
3525 On ch=9 n=67 v=68
3530 On ch=9 n=69 v=0
3568 On ch=9 n=66 v=60
3571 On ch=9 n=67 v=0
3678 Par ch=9 c=64 v=127
3700 Par ch=9 c=64 v=0
3716 On ch=9 n=69 v=60
3719 On ch=9 n=66 v=0
3912 On ch=9 n=66 v=63
3915 On ch=9 n=69 v=0
4295 Par ch=9 c=64 v=127
4302 On ch=9 n=66 v=0
4308 Par ch=9 c=64 v=0
4320 On ch=9 n=66 v=108
4321 On ch=9 n=50 v=61
4382 On ch=9 n=67 v=64
4384 On ch=9 n=66 v=0
4411 On ch=9 n=66 v=46
4415 On ch=9 n=67 v=0
4439 On ch=9 n=66 v=0
4440 On ch=9 n=67 v=76
4471 On ch=9 n=66 v=67
4476 On ch=9 n=67 v=0
4498 On ch=9 n=62 v=76
4501 On ch=9 n=66 v=0
4560 On ch=9 n=64 v=98
4561 On ch=9 n=48 v=63
4562 On ch=9 n=50 v=0
4567 On ch=9 n=62 v=0
4619 On ch=9 n=62 v=77
4627 On ch=9 n=64 v=0
4677 On ch=9 n=60 v=63
4678 On ch=9 n=62 v=0
4738 On ch=9 n=59 v=75
4743 On ch=9 n=60 v=0
4786 On ch=9 n=48 v=0
4787 On ch=9 n=59 v=0
4796 On ch=9 n=62 v=100
4799 On ch=9 n=47 v=65
4855 On ch=9 n=62 v=0
4859 On ch=9 n=59 v=77
4913 On ch=9 n=59 v=0
4919 On ch=9 n=60 v=112
4919 On ch=9 n=45 v=74
4922 On ch=9 n=47 v=0
4973 On ch=9 n=60 v=0
4979 On ch=9 n=57 v=75
5035 On ch=9 n=57 v=0
5039 On ch=9 n=59 v=108
5039 On ch=9 n=43 v=77
5045 On ch=9 n=45 v=0
5098 On ch=9 n=59 v=0
5099 On ch=9 n=55 v=76
5136 On ch=9 n=43 v=0
5155 On ch=9 n=55 v=0
5159 On ch=9 n=57 v=114
5159 On ch=9 n=42 v=62
5219 On ch=9 n=40 v=76
5219 On ch=9 n=55 v=87
5220 On ch=9 n=57 v=0
5220 On ch=9 n=59 v=64
5220 On ch=9 n=55 v=61
5220 On ch=9 n=64 v=61
5221 On ch=9 n=52 v=75
5228 On ch=9 n=42 v=0
5299 Par ch=9 c=64 v=127
5318 On ch=9 n=59 v=0
5320 On ch=9 n=55 v=0
5320 On ch=9 n=64 v=0
5339 On ch=9 n=64 v=60
5341 On ch=9 n=59 v=64
5342 On ch=9 n=55 v=52
5358 On ch=9 n=55 v=0
5360 On ch=9 n=59 v=0
5368 On ch=9 n=64 v=0
5394 Par ch=9 c=64 v=0
5401 On ch=9 n=61 v=67
5401 On ch=9 n=66 v=70
5401 On ch=9 n=57 v=60
5413 On ch=9 n=52 v=0
5421 On ch=9 n=55 v=0
5439 On ch=9 n=40 v=0
5455 Par ch=9 c=64 v=127
5470 On ch=9 n=57 v=0
5475 On ch=9 n=61 v=0
5480 On ch=9 n=66 v=0
5508 Par ch=9 c=64 v=0
5519 On ch=9 n=67 v=66
5519 On ch=9 n=59 v=61
5519 On ch=9 n=62 v=63
5576 Par ch=9 c=64 v=127
5601 On ch=9 n=62 v=0
5601 On ch=9 n=59 v=0
5625 On ch=9 n=67 v=0
5640 Par ch=9 c=64 v=0
5641 On ch=9 n=61 v=61
5641 On ch=9 n=57 v=59
5641 On ch=9 n=66 v=61
5690 Par ch=9 c=64 v=127
5731 On ch=9 n=57 v=0
5739 On ch=9 n=61 v=0
5741 On ch=9 n=66 v=0
5751 Par ch=9 c=64 v=0
5761 On ch=9 n=67 v=67
5761 On ch=9 n=62 v=66
5762 On ch=9 n=59 v=60
5822 Par ch=9 c=64 v=127
5827 On ch=9 n=62 v=0
5830 On ch=9 n=59 v=0
5853 On ch=9 n=67 v=0
5879 On ch=9 n=66 v=65
5880 On ch=9 n=61 v=62
5881 On ch=9 n=57 v=58
5906 On ch=9 n=66 v=0
5907 On ch=9 n=57 v=0
5909 On ch=9 n=61 v=0
5917 Par ch=9 c=64 v=0
5941 On ch=9 n=55 v=57
5941 On ch=9 n=59 v=61
5941 On ch=9 n=64 v=59
6099 Par ch=9 c=64 v=127
6145 On ch=9 n=59 v=0
6147 On ch=9 n=64 v=0
6147 On ch=9 n=55 v=0
6182 On ch=9 n=64 v=63
6182 On ch=9 n=55 v=60
6182 On ch=9 n=59 v=65
6194 Par ch=9 c=64 v=0
6250 Par ch=9 c=64 v=127
6275 On ch=9 n=59 v=0
6275 On ch=9 n=55 v=0
6277 On ch=9 n=64 v=0
6301 On ch=9 n=64 v=64
6301 On ch=9 n=59 v=64
6302 On ch=9 n=55 v=56
6318 On ch=9 n=55 v=0
6322 On ch=9 n=59 v=0
6333 On ch=9 n=64 v=0
6339 Par ch=9 c=64 v=0
6361 On ch=9 n=61 v=64
6362 On ch=9 n=66 v=64
6363 On ch=9 n=57 v=37
6408 Par ch=9 c=64 v=127
6434 On ch=9 n=57 v=0
6451 On ch=9 n=61 v=0
6454 On ch=9 n=66 v=0
6474 Par ch=9 c=64 v=0
6482 On ch=9 n=62 v=62
6482 On ch=9 n=67 v=63
6482 On ch=9 n=59 v=63
6537 Par ch=9 c=64 v=127
6551 On ch=9 n=59 v=0
6554 On ch=9 n=62 v=0
6575 On ch=9 n=67 v=0
6593 Par ch=9 c=64 v=0
6601 On ch=9 n=61 v=58
6601 On ch=9 n=66 v=56
6602 On ch=9 n=57 v=57
6622 Par ch=9 c=64 v=127
6632 On ch=9 n=66 v=0
6639 On ch=9 n=57 v=0
6643 On ch=9 n=61 v=0
6661 On ch=9 n=55 v=61
6661 On ch=9 n=59 v=62
6661 On ch=9 n=64 v=60
6672 Par ch=9 c=64 v=0
7079 Par ch=9 c=64 v=127
7123 On ch=9 n=64 v=0
7123 On ch=9 n=59 v=0
7123 On ch=9 n=55 v=0
7141 On ch=9 n=64 v=67
7141 On ch=9 n=59 v=72
7142 On ch=9 n=55 v=64
7153 Par ch=9 c=64 v=0
7224 Par ch=9 c=64 v=127
7243 On ch=9 n=55 v=0
7244 On ch=9 n=59 v=0
7246 On ch=9 n=64 v=0
7262 On ch=9 n=64 v=61
7263 On ch=9 n=59 v=67
7263 On ch=9 n=55 v=54
7285 On ch=9 n=55 v=0
7285 On ch=9 n=59 v=0
7296 On ch=9 n=64 v=0
7322 On ch=9 n=66 v=68
7323 On ch=9 n=61 v=62
7325 On ch=9 n=57 v=37
7327 Par ch=9 c=64 v=0
7393 On ch=9 n=57 v=0
7416 On ch=9 n=61 v=0
7420 On ch=9 n=66 v=0
7442 On ch=9 n=67 v=64
7443 On ch=9 n=62 v=62
7443 On ch=9 n=59 v=63
7496 Par ch=9 c=64 v=127
7512 On ch=9 n=62 v=0
7517 On ch=9 n=59 v=0
7537 On ch=9 n=67 v=0
7551 Par ch=9 c=64 v=0
7559 On ch=9 n=66 v=65
7559 On ch=9 n=57 v=59
7559 On ch=9 n=61 v=64
7593 Par ch=9 c=64 v=127
7649 On ch=9 n=57 v=0
7665 On ch=9 n=61 v=0
7670 On ch=9 n=66 v=0
7670 Par ch=9 c=64 v=0
7682 On ch=9 n=67 v=65
7682 On ch=9 n=62 v=64
7682 On ch=9 n=59 v=62
7710 Par ch=9 c=64 v=127
7751 On ch=9 n=62 v=0
7753 On ch=9 n=59 v=0
7785 On ch=9 n=67 v=0
7801 On ch=9 n=66 v=65
7801 On ch=9 n=61 v=66
7802 On ch=9 n=57 v=63
7830 On ch=9 n=66 v=0
7834 On ch=9 n=57 v=0
7838 On ch=9 n=61 v=0
7855 Par ch=9 c=64 v=0
7862 On ch=9 n=55 v=62
7862 On ch=9 n=64 v=67
7863 On ch=9 n=59 v=65
8053 Par ch=9 c=64 v=127
8079 On ch=9 n=59 v=0
8081 On ch=9 n=64 v=0
8081 On ch=9 n=55 v=0
8102 On ch=9 n=64 v=71
8102 On ch=9 n=55 v=64
8102 On ch=9 n=59 v=73
8124 Par ch=9 c=64 v=0
8187 Par ch=9 c=64 v=127
8199 On ch=9 n=59 v=0
8202 On ch=9 n=55 v=0
8205 On ch=9 n=64 v=0
8222 On ch=9 n=64 v=61
8223 On ch=9 n=59 v=64
8223 On ch=9 n=55 v=55
8239 On ch=9 n=55 v=0
8239 On ch=9 n=59 v=0
8251 On ch=9 n=64 v=0
8269 Par ch=9 c=64 v=0
8282 On ch=9 n=66 v=74
8282 On ch=9 n=57 v=59
8283 On ch=9 n=61 v=62
8338 Par ch=9 c=64 v=127
8366 On ch=9 n=57 v=0
8370 On ch=9 n=61 v=0
8385 On ch=9 n=66 v=0
8401 Par ch=9 c=64 v=0
8402 On ch=9 n=62 v=68
8402 On ch=9 n=67 v=69
8402 On ch=9 n=59 v=64
8444 Par ch=9 c=64 v=127
8474 On ch=9 n=62 v=0
8479 On ch=9 n=59 v=0
8497 On ch=9 n=67 v=0
8510 Par ch=9 c=64 v=0
8521 On ch=9 n=66 v=66
8521 On ch=9 n=61 v=64
8521 On ch=9 n=57 v=64
8539 Par ch=9 c=64 v=127
8553 On ch=9 n=66 v=0
8564 On ch=9 n=57 v=0
8564 On ch=9 n=61 v=0
8582 On ch=9 n=55 v=60
8582 On ch=9 n=64 v=66
8582 On ch=9 n=59 v=74
8594 Par ch=9 c=64 v=0
8766 Par ch=9 c=64 v=127
8917 On ch=9 n=55 v=0
8922 On ch=9 n=64 v=0
8928 On ch=9 n=59 v=0
9122 Par ch=9 c=64 v=0
9122 On ch=9 n=64 v=64
9122 On ch=9 n=59 v=67
9122 On ch=9 n=55 v=59
9162 On ch=9 n=59 v=0
9162 Par ch=9 c=64 v=127
9169 On ch=9 n=55 v=0
9170 On ch=9 n=64 v=0
9183 On ch=9 n=64 v=60
9183 On ch=9 n=59 v=70
9184 On ch=9 n=55 v=47
9202 On ch=9 n=55 v=0
9204 On ch=9 n=59 v=0
9212 On ch=9 n=64 v=0
9240 On ch=9 n=66 v=44
9242 On ch=9 n=57 v=54
9242 On ch=9 n=61 v=59
9246 Par ch=9 c=64 v=0
9299 Par ch=9 c=64 v=127
9327 On ch=9 n=66 v=0
9329 On ch=9 n=57 v=0
9342 On ch=9 n=61 v=0
9362 On ch=9 n=67 v=70
9362 On ch=9 n=62 v=63
9363 On ch=9 n=59 v=61
9373 Par ch=9 c=64 v=0
9415 Par ch=9 c=64 v=127
9445 On ch=9 n=59 v=0
9446 On ch=9 n=62 v=0
9478 On ch=9 n=67 v=0
9482 On ch=9 n=61 v=59
9482 On ch=9 n=57 v=59
9482 On ch=9 n=66 v=53
9486 Par ch=9 c=64 v=0
9529 Par ch=9 c=64 v=127
9575 On ch=9 n=57 v=0
9577 On ch=9 n=61 v=0
9588 On ch=9 n=66 v=0
9597 Par ch=9 c=64 v=0
9602 On ch=9 n=67 v=73
9602 On ch=9 n=62 v=68
9602 On ch=9 n=59 v=60
9632 Par ch=9 c=64 v=127
9668 On ch=9 n=59 v=0
9668 On ch=9 n=62 v=0
9713 On ch=9 n=67 v=0
9713 Par ch=9 c=64 v=0
9721 On ch=9 n=66 v=58
9722 On ch=9 n=57 v=58
9722 On ch=9 n=61 v=60
9740 Par ch=9 c=64 v=127
9755 On ch=9 n=66 v=0
9757 On ch=9 n=57 v=0
9762 On ch=9 n=61 v=0
9782 On ch=9 n=55 v=61
9782 On ch=9 n=64 v=59
9782 On ch=9 n=59 v=63
9801 Par ch=9 c=64 v=0
9967 Par ch=9 c=64 v=127
9998 On ch=9 n=59 v=0
10001 On ch=9 n=64 v=0
10001 On ch=9 n=55 v=0
10022 On ch=9 n=59 v=65
10022 On ch=9 n=64 v=62
10022 On ch=9 n=55 v=61
10046 Par ch=9 c=64 v=0
10094 Par ch=9 c=64 v=127
10114 On ch=9 n=55 v=0
10114 On ch=9 n=59 v=0
10122 On ch=9 n=64 v=0
10125 Par ch=9 c=64 v=127
10141 On ch=9 n=64 v=62
10141 On ch=9 n=59 v=67
10141 On ch=9 n=55 v=53
10156 On ch=9 n=55 v=0
10157 Par ch=9 c=64 v=0
10159 On ch=9 n=59 v=0
10168 On ch=9 n=64 v=0
10183 Par ch=9 c=64 v=0
10201 On ch=9 n=61 v=62
10201 On ch=9 n=66 v=61
10201 On ch=9 n=57 v=59
10249 Par ch=9 c=64 v=127
10291 On ch=9 n=57 v=0
10302 On ch=9 n=61 v=0
10304 On ch=9 n=66 v=0
10321 On ch=9 n=67 v=68
10321 On ch=9 n=62 v=64
10321 On ch=9 n=59 v=60
10326 Par ch=9 c=64 v=0
10355 Par ch=9 c=64 v=127
10387 On ch=9 n=62 v=0
10397 On ch=9 n=59 v=0
10426 Par ch=9 c=64 v=0
10431 On ch=9 n=67 v=0
10441 On ch=9 n=57 v=58
10441 On ch=9 n=66 v=53
10441 On ch=9 n=61 v=60
10463 Par ch=9 c=64 v=127
10528 On ch=9 n=57 v=0
10541 On ch=9 n=61 v=0
10546 On ch=9 n=66 v=0
10550 Par ch=9 c=64 v=0
10559 On ch=9 n=62 v=74
10559 On ch=9 n=59 v=69
10559 On ch=9 n=67 v=68
10571 Par ch=9 c=64 v=127
10612 On ch=9 n=62 v=0
10620 On ch=9 n=59 v=0
10643 On ch=9 n=67 v=0
10656 Par ch=9 c=64 v=0
10679 On ch=9 n=66 v=63
10679 On ch=9 n=61 v=60
10679 On ch=9 n=57 v=63
10698 Par ch=9 c=64 v=127
10713 On ch=9 n=66 v=0
10722 On ch=9 n=57 v=0
10724 On ch=9 n=61 v=0
10742 On ch=9 n=64 v=70
10742 On ch=9 n=55 v=62
10742 On ch=9 n=59 v=70
10756 Par ch=9 c=64 v=0
10912 Par ch=9 c=64 v=127
10948 On ch=9 n=59 v=0
10950 On ch=9 n=55 v=0
10950 On ch=9 n=64 v=0
10980 On ch=9 n=64 v=66
10980 On ch=9 n=55 v=66
10980 On ch=9 n=59 v=71
10986 Par ch=9 c=64 v=0
11052 Par ch=9 c=64 v=127
11067 On ch=9 n=59 v=0
11070 On ch=9 n=55 v=0
11073 On ch=9 n=64 v=0
11101 On ch=9 n=55 v=59
11101 On ch=9 n=64 v=61
11102 On ch=9 n=59 v=61
11118 On ch=9 n=59 v=0
11122 On ch=9 n=55 v=0
11130 On ch=9 n=64 v=0
11157 Par ch=9 c=64 v=0
11161 On ch=9 n=61 v=63
11161 On ch=9 n=66 v=77
11161 On ch=9 n=57 v=58
11218 Par ch=9 c=64 v=127
11243 On ch=9 n=57 v=0
11251 On ch=9 n=61 v=0
11256 On ch=9 n=66 v=0
11281 On ch=9 n=62 v=73
11281 On ch=9 n=67 v=69
11281 On ch=9 n=59 v=72
11289 Par ch=9 c=64 v=0
11331 Par ch=9 c=64 v=127
11368 On ch=9 n=59 v=0
11368 On ch=9 n=62 v=0
11382 On ch=9 n=67 v=0
11397 Par ch=9 c=64 v=0
11400 On ch=9 n=57 v=63
11400 On ch=9 n=61 v=63
11400 On ch=9 n=66 v=71
11437 Par ch=9 c=64 v=127
11487 On ch=9 n=57 v=0
11495 On ch=9 n=61 v=0
11498 On ch=9 n=66 v=0
11511 Par ch=9 c=64 v=0
11519 On ch=9 n=67 v=73
11521 On ch=9 n=62 v=70
11521 On ch=9 n=59 v=71
11548 Par ch=9 c=64 v=127
11590 On ch=9 n=62 v=0
11598 On ch=9 n=59 v=0
11622 On ch=9 n=67 v=0
11622 Par ch=9 c=64 v=0
11640 On ch=9 n=66 v=70
11640 On ch=9 n=57 v=68
11640 On ch=9 n=61 v=72
11656 Par ch=9 c=64 v=127
11680 On ch=9 n=66 v=0
11688 On ch=9 n=57 v=0
11690 On ch=9 n=61 v=0
11701 On ch=9 n=64 v=72
11701 On ch=9 n=60 v=65
11702 On ch=9 n=57 v=67
11712 Par ch=9 c=64 v=0
11770 Par ch=9 c=64 v=127
11791 On ch=9 n=60 v=0
11792 On ch=9 n=57 v=0
11794 On ch=9 n=64 v=0
11821 On ch=9 n=60 v=63
11821 On ch=9 n=64 v=64
11821 On ch=9 n=57 v=58
11840 On ch=9 n=57 v=0
11845 On ch=9 n=64 v=0
11845 On ch=9 n=60 v=0
11870 Par ch=9 c=64 v=0
11881 On ch=9 n=62 v=70
11881 On ch=9 n=66 v=70
11881 On ch=9 n=59 v=63
11917 Par ch=9 c=64 v=127
11939 On ch=9 n=59 v=0
11968 On ch=9 n=66 v=0
11973 On ch=9 n=62 v=0
11994 Par ch=9 c=64 v=0
11996 On ch=9 n=60 v=60
12002 On ch=9 n=64 v=67
12002 On ch=9 n=67 v=73
12036 Par ch=9 c=64 v=127
12086 On ch=9 n=67 v=0
12097 On ch=9 n=64 v=0
12115 On ch=9 n=62 v=75
12118 On ch=9 n=66 v=81
12121 Par ch=9 c=64 v=0
12121 On ch=9 n=69 v=83
12139 On ch=9 n=60 v=0
12160 Par ch=9 c=64 v=127
12200 On ch=9 n=69 v=0
12213 On ch=9 n=66 v=0
12221 On ch=9 n=62 v=0
12232 Par ch=9 c=64 v=0
12240 On ch=9 n=64 v=72
12240 On ch=9 n=60 v=59
12245 On ch=9 n=67 v=76
12269 Par ch=9 c=64 v=127
12333 On ch=9 n=64 v=0
12335 On ch=9 n=67 v=0
12340 On ch=9 n=60 v=0
12345 Par ch=9 c=64 v=0
12358 On ch=9 n=59 v=59
12358 On ch=9 n=62 v=67
12364 On ch=9 n=66 v=63
12372 Par ch=9 c=64 v=127
12385 On ch=9 n=66 v=0
12395 On ch=9 n=62 v=0
12406 On ch=9 n=59 v=0
12424 On ch=9 n=64 v=81
12424 On ch=9 n=60 v=81
12424 On ch=9 n=57 v=74
12430 Par ch=9 c=64 v=0
12593 Par ch=9 c=64 v=127
12622 On ch=9 n=57 v=0
12628 On ch=9 n=64 v=0
12633 On ch=9 n=60 v=0
12709 Par ch=9 c=64 v=0
12710 On ch=9 n=59 v=58
12717 On ch=9 n=62 v=79
12717 On ch=9 n=66 v=83
12834 Par ch=9 c=64 v=127
12849 On ch=9 n=66 v=0
12849 On ch=9 n=62 v=0
12855 On ch=9 n=59 v=0
12930 On ch=9 n=57 v=54
12940 On ch=9 n=59 v=47
12947 Par ch=9 c=64 v=0
12955 On ch=9 n=62 v=86
12958 On ch=9 n=66 v=69
13063 Par ch=9 c=64 v=127
13109 On ch=9 n=59 v=0
13116 On ch=9 n=62 v=0
13119 On ch=9 n=66 v=0
13122 On ch=9 n=57 v=0
13187 Par ch=9 c=64 v=0
13191 On ch=9 n=59 v=44
13194 On ch=9 n=55 v=59
13200 On ch=9 n=62 v=76
13200 On ch=9 n=66 v=75
13306 Par ch=9 c=64 v=127
13327 On ch=9 n=62 v=0
13332 On ch=9 n=66 v=0
13336 On ch=9 n=59 v=0
13344 On ch=9 n=55 v=0
13424 On ch=9 n=57 v=52
13434 On ch=9 n=60 v=61
13441 Par ch=9 c=64 v=0
13444 On ch=9 n=67 v=93
13966 Par ch=9 c=64 v=127
14043 On ch=9 n=67 v=0
14049 On ch=9 n=60 v=0
14063 On ch=9 n=57 v=0
14341 On ch=9 n=64 v=73
14341 On ch=9 n=59 v=68
14349 Par ch=9 c=64 v=0
14410 Par ch=9 c=64 v=127
14428 On ch=9 n=59 v=0
14430 On ch=9 n=64 v=0
14460 On ch=9 n=64 v=69
14460 On ch=9 n=59 v=67
14461 On ch=9 n=55 v=57
14477 On ch=9 n=55 v=0
14478 On ch=9 n=59 v=0
14489 On ch=9 n=64 v=0
14513 Par ch=9 c=64 v=0
14520 On ch=9 n=61 v=70
14520 On ch=9 n=66 v=77
14521 On ch=9 n=57 v=59
14565 Par ch=9 c=64 v=127
14603 On ch=9 n=57 v=0
14613 On ch=9 n=61 v=0
14616 On ch=9 n=66 v=0
14637 Par ch=9 c=64 v=0
14639 On ch=9 n=62 v=69
14639 On ch=9 n=67 v=71
14641 On ch=9 n=59 v=62
14679 Par ch=9 c=64 v=127
14711 On ch=9 n=62 v=0
14717 On ch=9 n=59 v=0
14742 On ch=9 n=67 v=0
14755 Par ch=9 c=64 v=0
14759 On ch=9 n=66 v=68
14759 On ch=9 n=57 v=61
14759 On ch=9 n=61 v=64
14792 Par ch=9 c=64 v=127
14851 On ch=9 n=57 v=0
14857 On ch=9 n=61 v=0
14862 On ch=9 n=66 v=0
14872 Par ch=9 c=64 v=0
14881 On ch=9 n=62 v=74
14881 On ch=9 n=67 v=74
14881 On ch=9 n=59 v=63
14909 Par ch=9 c=64 v=127
14945 On ch=9 n=62 v=0
14950 On ch=9 n=59 v=0
14981 On ch=9 n=67 v=0
14985 Par ch=9 c=64 v=0
14999 On ch=9 n=66 v=67
14999 On ch=9 n=61 v=64
14999 On ch=9 n=57 v=64
15017 Par ch=9 c=64 v=127
15039 On ch=9 n=66 v=0
15044 On ch=9 n=57 v=0
15047 On ch=9 n=61 v=0
15062 On ch=9 n=64 v=70
15062 On ch=9 n=59 v=73
15062 On ch=9 n=55 v=60
15078 Par ch=9 c=64 v=0
15157 Par ch=9 c=64 v=127
15268 On ch=9 n=59 v=0
15271 On ch=9 n=64 v=0
15273 On ch=9 n=55 v=0
15299 On ch=9 n=59 v=70
15299 On ch=9 n=64 v=67
15299 On ch=9 n=55 v=62
15305 Par ch=9 c=64 v=0
15360 Par ch=9 c=64 v=127
15389 On ch=9 n=59 v=0
15392 On ch=9 n=55 v=0
15392 On ch=9 n=64 v=0
15415 Par ch=9 c=64 v=0
15422 On ch=9 n=64 v=65
15422 On ch=9 n=59 v=68
15422 On ch=9 n=55 v=59
15443 On ch=9 n=59 v=0
15447 Par ch=9 c=64 v=127
15451 On ch=9 n=55 v=0
15456 On ch=9 n=64 v=0
15482 On ch=9 n=66 v=73
15482 On ch=9 n=61 v=62
15482 On ch=9 n=57 v=58
15499 Par ch=9 c=64 v=0
15528 Par ch=9 c=64 v=127
15556 On ch=9 n=57 v=0
15569 On ch=9 n=61 v=0
15575 On ch=9 n=66 v=0
15587 Par ch=9 c=64 v=0
15599 On ch=9 n=67 v=72
15600 On ch=9 n=62 v=66
15600 On ch=9 n=59 v=63
15616 Par ch=9 c=64 v=127
15674 On ch=9 n=59 v=0
15676 On ch=9 n=62 v=0
15692 On ch=9 n=67 v=0
15695 Par ch=9 c=64 v=0
15718 On ch=9 n=66 v=64
15718 On ch=9 n=61 v=61
15719 On ch=9 n=57 v=60
15721 Par ch=9 c=64 v=127
15742 On ch=9 n=66 v=0
15745 On ch=9 n=57 v=0
15745 On ch=9 n=61 v=0
15779 On ch=9 n=66 v=68
15779 On ch=9 n=62 v=75
15779 On ch=9 n=59 v=72
15779 On ch=9 n=57 v=60
15785 Par ch=9 c=64 v=0
16218 Par ch=9 c=64 v=127
16223 On ch=9 n=59 v=0
16225 On ch=9 n=57 v=0
16225 On ch=9 n=62 v=0
16227 On ch=9 n=66 v=0
16262 On ch=9 n=64 v=74
16262 On ch=9 n=55 v=68
16262 On ch=9 n=59 v=75
16286 Par ch=9 c=64 v=0
16344 Par ch=9 c=64 v=127
16352 On ch=9 n=59 v=0
16352 On ch=9 n=55 v=0
16352 On ch=9 n=64 v=0
16382 On ch=9 n=64 v=63
16382 On ch=9 n=59 v=72
16382 On ch=9 n=55 v=60
16401 On ch=9 n=55 v=0
16401 On ch=9 n=59 v=0
16406 On ch=9 n=64 v=0
16429 Par ch=9 c=64 v=0
16442 On ch=9 n=66 v=79
16442 On ch=9 n=61 v=67
16442 On ch=9 n=57 v=53
16489 Par ch=9 c=64 v=127
16529 On ch=9 n=57 v=0
16542 On ch=9 n=61 v=0
16545 On ch=9 n=66 v=0
16561 Par ch=9 c=64 v=0
16562 On ch=9 n=67 v=72
16562 On ch=9 n=62 v=69
16562 On ch=9 n=59 v=67
16600 Par ch=9 c=64 v=127
16646 On ch=9 n=59 v=0
16646 On ch=9 n=62 v=0
16670 On ch=9 n=67 v=0
16674 Par ch=9 c=64 v=0
16682 On ch=9 n=66 v=67
16682 On ch=9 n=61 v=72
16682 On ch=9 n=57 v=71
16711 Par ch=9 c=64 v=127
16772 On ch=9 n=57 v=0
16783 On ch=9 n=61 v=0
16793 On ch=9 n=66 v=0
16793 Par ch=9 c=64 v=0
16802 On ch=9 n=59 v=67
16803 On ch=9 n=67 v=75
16803 On ch=9 n=62 v=70
16833 Par ch=9 c=64 v=127
16881 On ch=9 n=59 v=0
16884 On ch=9 n=62 v=0
16907 Par ch=9 c=64 v=0
16922 On ch=9 n=66 v=63
16922 On ch=9 n=61 v=64
16922 On ch=9 n=57 v=67
16929 On ch=9 n=67 v=0
16941 Par ch=9 c=64 v=127
16956 On ch=9 n=66 v=0
16965 On ch=9 n=57 v=0
16972 On ch=9 n=61 v=0
16983 On ch=9 n=59 v=77
16983 On ch=9 n=64 v=65
16983 On ch=9 n=55 v=65
17004 Par ch=9 c=64 v=0
17168 Par ch=9 c=64 v=127
17202 On ch=9 n=55 v=0
17202 On ch=9 n=59 v=0
17205 On ch=9 n=64 v=0
17222 On ch=9 n=55 v=67
17222 On ch=9 n=64 v=67
17222 On ch=9 n=59 v=77
17237 Par ch=9 c=64 v=0
17305 Par ch=9 c=64 v=127
17317 On ch=9 n=59 v=0
17317 On ch=9 n=64 v=0
17322 On ch=9 n=55 v=0
17341 On ch=9 n=64 v=63
17342 On ch=9 n=59 v=70
17342 On ch=9 n=55 v=58
17361 On ch=9 n=55 v=0
17369 On ch=9 n=59 v=0
17372 On ch=9 n=64 v=0
17390 Par ch=9 c=64 v=0
17402 On ch=9 n=66 v=86
17402 On ch=9 n=61 v=81
17403 On ch=9 n=57 v=59
17453 Par ch=9 c=64 v=127
17490 On ch=9 n=57 v=0
17504 On ch=9 n=66 v=0
17507 On ch=9 n=61 v=0
17511 Par ch=9 c=64 v=0
17521 On ch=9 n=59 v=67
17521 On ch=9 n=67 v=76
17521 On ch=9 n=62 v=74
17559 Par ch=9 c=64 v=127
17619 On ch=9 n=62 v=0
17619 On ch=9 n=59 v=0
17630 On ch=9 n=67 v=0
17633 Par ch=9 c=64 v=0
17642 On ch=9 n=57 v=62
17642 On ch=9 n=61 v=70
17642 On ch=9 n=66 v=65
17677 Par ch=9 c=64 v=127
17737 On ch=9 n=57 v=0
17745 On ch=9 n=61 v=0
17749 Par ch=9 c=64 v=0
17750 On ch=9 n=66 v=0
17761 On ch=9 n=67 v=76
17762 On ch=9 n=59 v=64
17762 On ch=9 n=62 v=73
17791 Par ch=9 c=64 v=127
17836 On ch=9 n=62 v=0
17836 On ch=9 n=59 v=0
17868 Par ch=9 c=64 v=0
17869 On ch=9 n=67 v=0
17879 On ch=9 n=66 v=51
17881 On ch=9 n=57 v=58
17881 On ch=9 n=61 v=58
17904 Par ch=9 c=64 v=127
17916 On ch=9 n=66 v=0
17920 On ch=9 n=61 v=0
17923 On ch=9 n=57 v=0
17941 On ch=9 n=59 v=72
17941 On ch=9 n=64 v=70
17942 On ch=9 n=55 v=58
17963 Par ch=9 c=64 v=0
18026 Par ch=9 c=64 v=127
18165 On ch=9 n=64 v=0
18165 On ch=9 n=59 v=0
18166 On ch=9 n=55 v=0
18181 On ch=9 n=64 v=66
18181 On ch=9 n=59 v=75
18181 On ch=9 n=55 v=61
18190 Par ch=9 c=64 v=0
18250 Par ch=9 c=64 v=127
18279 On ch=9 n=59 v=0
18287 On ch=9 n=55 v=0
18287 On ch=9 n=64 v=0
18301 On ch=9 n=64 v=63
18302 On ch=9 n=55 v=58
18302 On ch=9 n=59 v=67
18318 On ch=9 n=59 v=0
18320 On ch=9 n=55 v=0
18330 On ch=9 n=64 v=0
18359 Par ch=9 c=64 v=0
18361 On ch=9 n=61 v=71
18361 On ch=9 n=66 v=75
18362 On ch=9 n=57 v=54
18409 Par ch=9 c=64 v=127
18450 On ch=9 n=57 v=0
18472 On ch=9 n=66 v=0
18472 On ch=9 n=61 v=0
18477 Par ch=9 c=64 v=0
18481 On ch=9 n=67 v=77
18481 On ch=9 n=62 v=70
18481 On ch=9 n=59 v=67
18522 Par ch=9 c=64 v=127
18571 On ch=9 n=62 v=0
18574 On ch=9 n=59 v=0
18588 Par ch=9 c=64 v=0
18592 On ch=9 n=67 v=0
18601 On ch=9 n=57 v=65
18602 On ch=9 n=66 v=69
18602 On ch=9 n=61 v=72
18630 Par ch=9 c=64 v=127
18696 On ch=9 n=57 v=0
18702 Par ch=9 c=64 v=0
18707 On ch=9 n=61 v=0
18707 On ch=9 n=66 v=0
18722 On ch=9 n=67 v=69
18722 On ch=9 n=62 v=67
18722 On ch=9 n=59 v=61
18744 Par ch=9 c=64 v=127
18793 On ch=9 n=62 v=0
18799 On ch=9 n=59 v=0
18815 Par ch=9 c=64 v=0
18842 On ch=9 n=66 v=61
18842 On ch=9 n=61 v=70
18843 On ch=9 n=57 v=65
18855 Par ch=9 c=64 v=127
18856 On ch=9 n=67 v=0
18882 On ch=9 n=66 v=0
18888 On ch=9 n=57 v=0
18892 On ch=9 n=61 v=0
18903 On ch=9 n=64 v=72
18903 On ch=9 n=57 v=63
18903 On ch=9 n=60 v=68
18918 Par ch=9 c=64 v=0
18971 Par ch=9 c=64 v=127
19001 On ch=9 n=60 v=0
19001 On ch=9 n=64 v=0
19003 On ch=9 n=57 v=0
19022 On ch=9 n=60 v=72
19023 On ch=9 n=64 v=74
19023 On ch=9 n=57 v=64
19047 On ch=9 n=57 v=0
19052 On ch=9 n=64 v=0
19054 On ch=9 n=60 v=0
19063 Par ch=9 c=64 v=0
19083 On ch=9 n=62 v=86
19083 On ch=9 n=66 v=76
19083 On ch=9 n=59 v=61
19111 Par ch=9 c=64 v=127
19142 On ch=9 n=59 v=0
19168 On ch=9 n=66 v=0
19179 On ch=9 n=62 v=0
19185 Par ch=9 c=64 v=0
19197 On ch=9 n=60 v=63
19204 On ch=9 n=64 v=72
19204 On ch=9 n=67 v=69
19224 Par ch=9 c=64 v=127
19294 On ch=9 n=67 v=0
19304 Par ch=9 c=64 v=0
19307 On ch=9 n=64 v=0
19316 On ch=9 n=62 v=63
19322 On ch=9 n=66 v=74
19322 On ch=9 n=69 v=75
19329 On ch=9 n=60 v=0
19349 Par ch=9 c=64 v=127
19415 On ch=9 n=69 v=0
19425 On ch=9 n=66 v=0
19425 Par ch=9 c=64 v=0
19429 On ch=9 n=60 v=67
19430 On ch=9 n=62 v=0
19443 On ch=9 n=64 v=74
19444 On ch=9 n=67 v=75
19467 Par ch=9 c=64 v=127
19524 On ch=9 n=60 v=0
19537 On ch=9 n=67 v=0
19538 On ch=9 n=64 v=0
19539 Par ch=9 c=64 v=0
19548 On ch=9 n=59 v=59
19558 On ch=9 n=62 v=65
19560 On ch=9 n=66 v=71
19573 Par ch=9 c=64 v=127
19602 On ch=9 n=66 v=0
19603 On ch=9 n=62 v=0
19616 On ch=9 n=59 v=0
19624 On ch=9 n=60 v=73
19624 On ch=9 n=64 v=75
19624 On ch=9 n=57 v=75
19631 Par ch=9 c=64 v=0
19789 Par ch=9 c=64 v=127
19827 On ch=9 n=57 v=0
19835 On ch=9 n=64 v=0
19835 On ch=9 n=60 v=0
19910 On ch=9 n=59 v=61
19914 Par ch=9 c=64 v=0
19921 On ch=9 n=62 v=75
19923 On ch=9 n=66 v=81
20046 Par ch=9 c=64 v=127
20064 On ch=9 n=62 v=0
20066 On ch=9 n=66 v=0
20071 On ch=9 n=59 v=0
20149 On ch=9 n=57 v=60
20162 Par ch=9 c=64 v=0
20162 On ch=9 n=59 v=68
20164 On ch=9 n=62 v=87
20166 On ch=9 n=66 v=81
20286 Par ch=9 c=64 v=127
20296 On ch=9 n=62 v=0
20298 On ch=9 n=66 v=0
20302 On ch=9 n=59 v=0
20312 On ch=9 n=57 v=0
20390 On ch=9 n=55 v=60
20397 Par ch=9 c=64 v=0
20399 On ch=9 n=59 v=70
20403 On ch=9 n=62 v=81
20406 On ch=9 n=66 v=72
20526 Par ch=9 c=64 v=127
20540 On ch=9 n=62 v=0
20544 On ch=9 n=59 v=0
20551 On ch=9 n=55 v=0
20551 On ch=9 n=66 v=0
20636 On ch=9 n=60 v=63
20642 On ch=9 n=57 v=68
20646 On ch=9 n=67 v=95
20650 Par ch=9 c=64 v=0
21594 On ch=9 n=67 v=0
21600 On ch=9 n=60 v=0
21606 On ch=9 n=57 v=0
29221 On ch=9 n=67 v=72
29221 On ch=9 n=64 v=74
29221 On ch=9 n=59 v=81
29317 On ch=9 n=64 v=0
29319 On ch=9 n=59 v=0
29319 On ch=9 n=67 v=0
29339 On ch=9 n=67 v=65
29341 On ch=9 n=64 v=60
29341 On ch=9 n=59 v=63
29367 On ch=9 n=59 v=0
29367 On ch=9 n=64 v=0
29401 On ch=9 n=69 v=72
29401 On ch=9 n=66 v=63
29401 On ch=9 n=61 v=62
29404 On ch=9 n=67 v=0
29469 On ch=9 n=61 v=0
29490 On ch=9 n=66 v=0
29492 On ch=9 n=69 v=0
29519 On ch=9 n=62 v=67
29519 On ch=9 n=71 v=68
29519 On ch=9 n=66 v=61
29519 On ch=9 n=67 v=67
29592 On ch=9 n=62 v=0
29597 On ch=9 n=66 v=0
29602 On ch=9 n=71 v=0
29604 On ch=9 n=67 v=0
29639 On ch=9 n=61 v=69
29639 On ch=9 n=69 v=70
29641 On ch=9 n=66 v=60
29719 On ch=9 n=61 v=0
29727 On ch=9 n=69 v=0
29734 On ch=9 n=66 v=0
29758 On ch=9 n=62 v=64
29758 On ch=9 n=66 v=60
29758 On ch=9 n=71 v=73
29758 On ch=9 n=67 v=75
29841 On ch=9 n=62 v=0
29856 On ch=9 n=67 v=0
29858 On ch=9 n=66 v=0
29861 On ch=9 n=71 v=0
29878 On ch=9 n=69 v=64
29879 On ch=9 n=66 v=60
29879 On ch=9 n=61 v=67
29922 On ch=9 n=61 v=0
29924 On ch=9 n=66 v=0
29936 On ch=9 n=69 v=0
29939 On ch=9 n=67 v=67
29939 On ch=9 n=59 v=61
29941 On ch=9 n=64 v=74
30039 On ch=9 n=59 v=0
30060 On ch=9 n=59 v=59
30158 On ch=9 n=64 v=0
30161 On ch=9 n=67 v=0
30178 On ch=9 n=67 v=74
30178 On ch=9 n=64 v=75
30241 On ch=9 n=59 v=0
30298 On ch=9 n=59 v=76
30321 On ch=9 n=59 v=0
30327 On ch=9 n=64 v=0
30349 On ch=9 n=67 v=0
30358 On ch=9 n=69 v=75
30359 On ch=9 n=61 v=77
30359 On ch=9 n=66 v=67
30429 On ch=9 n=61 v=0
30452 On ch=9 n=66 v=0
30459 On ch=9 n=69 v=0
30478 On ch=9 n=62 v=68
30478 On ch=9 n=66 v=65
30478 On ch=9 n=67 v=73
30478 On ch=9 n=71 v=74
30553 On ch=9 n=62 v=0
30571 On ch=9 n=66 v=0
30574 On ch=9 n=71 v=0
30586 On ch=9 n=67 v=0
30597 On ch=9 n=69 v=65
30597 On ch=9 n=61 v=73
30597 On ch=9 n=66 v=67
30642 On ch=9 n=61 v=0
30647 On ch=9 n=66 v=0
30650 On ch=9 n=69 v=0
30658 On ch=9 n=66 v=68
30658 On ch=9 n=69 v=83
30658 On ch=9 n=62 v=81
30658 On ch=9 n=71 v=81
31114 On ch=9 n=62 v=0
31119 On ch=9 n=66 v=0
31129 On ch=9 n=69 v=0
31129 On ch=9 n=71 v=0
31141 On ch=9 n=67 v=74
31141 On ch=9 n=64 v=74
31141 On ch=9 n=59 v=74
31234 On ch=9 n=59 v=0
31242 On ch=9 n=64 v=0
31244 On ch=9 n=67 v=0
31259 On ch=9 n=64 v=68
31259 On ch=9 n=59 v=65
31259 On ch=9 n=67 v=72
31289 On ch=9 n=59 v=0
31292 On ch=9 n=64 v=0
31312 On ch=9 n=67 v=0
31321 On ch=9 n=69 v=74
31322 On ch=9 n=61 v=76
31322 On ch=9 n=66 v=67
31390 On ch=9 n=61 v=0
31412 On ch=9 n=66 v=0
31419 On ch=9 n=69 v=0
31440 On ch=9 n=62 v=65
31440 On ch=9 n=67 v=69
31440 On ch=9 n=66 v=63
31440 On ch=9 n=71 v=70
31516 On ch=9 n=62 v=0
31529 On ch=9 n=66 v=0
31534 On ch=9 n=71 v=0
31544 On ch=9 n=67 v=0
31559 On ch=9 n=69 v=73
31561 On ch=9 n=66 v=65
31561 On ch=9 n=61 v=72
31632 On ch=9 n=61 v=0
31655 On ch=9 n=66 v=0
31655 On ch=9 n=69 v=0
31678 On ch=9 n=62 v=71
31678 On ch=9 n=71 v=74
31678 On ch=9 n=66 v=63
31678 On ch=9 n=67 v=67
31756 On ch=9 n=62 v=0
31779 On ch=9 n=66 v=0
31782 On ch=9 n=71 v=0
31782 On ch=9 n=67 v=0
31797 On ch=9 n=69 v=69
31797 On ch=9 n=66 v=59
31798 On ch=9 n=61 v=68
31839 On ch=9 n=61 v=0
31842 On ch=9 n=66 v=0
31850 On ch=9 n=69 v=0
31858 On ch=9 n=59 v=67
31858 On ch=9 n=67 v=70
31859 On ch=9 n=64 v=79
32129 On ch=9 n=64 v=0
32130 On ch=9 n=67 v=0
32135 On ch=9 n=59 v=0
33118 On ch=9 n=64 v=79
33119 On ch=9 n=59 v=81
33119 On ch=9 n=67 v=73
33150 On ch=9 n=67 v=0
33152 On ch=9 n=64 v=0
33153 On ch=9 n=59 v=0
33181 On ch=9 n=67 v=73
33181 On ch=9 n=64 v=74
33181 On ch=9 n=59 v=67
33204 On ch=9 n=59 v=0
33209 On ch=9 n=64 v=0
33222 On ch=9 n=67 v=0
33239 On ch=9 n=69 v=77
33241 On ch=9 n=61 v=65
33241 On ch=9 n=66 v=65
33311 On ch=9 n=61 v=0
33337 On ch=9 n=66 v=0
33340 On ch=9 n=69 v=0
33358 On ch=9 n=62 v=65
33358 On ch=9 n=67 v=67
33358 On ch=9 n=71 v=64
33358 On ch=9 n=66 v=58
33431 On ch=9 n=62 v=0
33441 On ch=9 n=66 v=0
33451 On ch=9 n=71 v=0
33458 On ch=9 n=67 v=0
33477 On ch=9 n=69 v=65
33479 On ch=9 n=61 v=65
33479 On ch=9 n=66 v=60
33560 On ch=9 n=61 v=0
33578 On ch=9 n=69 v=0
33580 On ch=9 n=66 v=0
33597 On ch=9 n=66 v=55
33597 On ch=9 n=62 v=66
33597 On ch=9 n=67 v=70
33597 On ch=9 n=71 v=71
33672 On ch=9 n=62 v=0
33697 On ch=9 n=67 v=0
33702 On ch=9 n=66 v=0
33702 On ch=9 n=71 v=0
33717 On ch=9 n=66 v=50
33717 On ch=9 n=69 v=70
33718 On ch=9 n=61 v=64
33762 On ch=9 n=66 v=0
33763 On ch=9 n=61 v=0
33772 On ch=9 n=69 v=0
33778 On ch=9 n=67 v=66
33779 On ch=9 n=59 v=65
33779 On ch=9 n=64 v=74
34000 On ch=9 n=64 v=0
34000 On ch=9 n=59 v=0
34004 On ch=9 n=67 v=0
34018 On ch=9 n=67 v=69
34019 On ch=9 n=59 v=60
34019 On ch=9 n=64 v=72
34107 On ch=9 n=59 v=0
34112 On ch=9 n=64 v=0
34119 On ch=9 n=67 v=0
34137 On ch=9 n=67 v=66
34137 On ch=9 n=64 v=66
34137 On ch=9 n=59 v=59
34160 On ch=9 n=59 v=0
34162 On ch=9 n=64 v=0
34182 On ch=9 n=67 v=0
34196 On ch=9 n=69 v=68
34198 On ch=9 n=61 v=71
34198 On ch=9 n=66 v=63
34281 On ch=9 n=61 v=0
34299 On ch=9 n=66 v=0
34302 On ch=9 n=69 v=0
34317 On ch=9 n=67 v=72
34317 On ch=9 n=71 v=71
34317 On ch=9 n=62 v=74
34317 On ch=9 n=66 v=61
34398 On ch=9 n=62 v=0
34426 On ch=9 n=66 v=0
34431 On ch=9 n=71 v=0
34431 On ch=9 n=67 v=0
34439 On ch=9 n=69 v=72
34439 On ch=9 n=66 v=62
34439 On ch=9 n=61 v=68
34479 On ch=9 n=61 v=0
34482 On ch=9 n=66 v=0
34489 On ch=9 n=69 v=0
34499 On ch=9 n=67 v=69
34499 On ch=9 n=59 v=74
34499 On ch=9 n=64 v=76
34837 On ch=9 n=67 v=0
34842 On ch=9 n=64 v=0
34847 On ch=9 n=59 v=0
34861 On ch=9 n=67 v=77
34861 On ch=9 n=64 v=76
34922 On ch=9 n=59 v=67
34940 On ch=9 n=64 v=0
34945 On ch=9 n=67 v=0
34978 On ch=9 n=67 v=77
34979 On ch=9 n=64 v=79
35078 On ch=9 n=59 v=0
35087 On ch=9 n=64 v=0
35089 On ch=9 n=67 v=0
35101 On ch=9 n=67 v=67
35101 On ch=9 n=64 v=64
35102 On ch=9 n=59 v=60
35123 On ch=9 n=59 v=0
35129 On ch=9 n=64 v=0
35136 On ch=9 n=67 v=0
35161 On ch=9 n=69 v=77
35162 On ch=9 n=66 v=63
35162 On ch=9 n=61 v=62
35235 On ch=9 n=61 v=0
35258 On ch=9 n=66 v=0
35260 On ch=9 n=69 v=0
35281 On ch=9 n=62 v=77
35281 On ch=9 n=67 v=69
35281 On ch=9 n=66 v=62
35282 On ch=9 n=71 v=74
35364 On ch=9 n=62 v=0
35374 On ch=9 n=66 v=0
35381 On ch=9 n=71 v=0
35382 On ch=9 n=67 v=0
35399 On ch=9 n=69 v=71
35399 On ch=9 n=61 v=76
35399 On ch=9 n=66 v=66
35489 On ch=9 n=61 v=0
35505 On ch=9 n=66 v=0
35505 On ch=9 n=69 v=0
35520 On ch=9 n=62 v=68
35521 On ch=9 n=66 v=56
35521 On ch=9 n=67 v=72
35521 On ch=9 n=71 v=74
35595 On ch=9 n=62 v=0
35612 On ch=9 n=66 v=0
35614 On ch=9 n=67 v=0
35619 On ch=9 n=71 v=0
35639 On ch=9 n=69 v=72
35639 On ch=9 n=66 v=67
35639 On ch=9 n=61 v=74
35669 On ch=9 n=69 v=0
35674 On ch=9 n=61 v=0
35674 On ch=9 n=66 v=0
35702 On ch=9 n=64 v=68
35702 On ch=9 n=60 v=69
35703 On ch=9 n=55 v=62
35703 On ch=9 n=57 v=62
35715 On ch=9 n=55 v=0
35798 On ch=9 n=57 v=0
35803 On ch=9 n=60 v=0
35805 On ch=9 n=64 v=0
35822 On ch=9 n=64 v=67
35822 On ch=9 n=60 v=65
35822 On ch=9 n=57 v=60
35852 On ch=9 n=57 v=0
35852 On ch=9 n=60 v=0
35869 On ch=9 n=64 v=0
35882 On ch=9 n=62 v=72
35882 On ch=9 n=59 v=72
35882 On ch=9 n=66 v=81
35932 On ch=9 n=59 v=0
35973 On ch=9 n=66 v=0
35978 On ch=9 n=62 v=0
35994 On ch=9 n=60 v=67
36001 On ch=9 n=64 v=74
36001 On ch=9 n=67 v=86
36087 On ch=9 n=60 v=0
36092 On ch=9 n=67 v=0
36093 On ch=9 n=60 v=57
36094 On ch=9 n=64 v=0
36111 On ch=9 n=60 v=0
36115 On ch=9 n=62 v=59
36118 On ch=9 n=66 v=77
36119 On ch=9 n=69 v=74
36205 On ch=9 n=69 v=0
36215 On ch=9 n=60 v=67
36221 On ch=9 n=66 v=0
36223 On ch=9 n=62 v=0
36240 On ch=9 n=64 v=72
36242 On ch=9 n=67 v=75
36300 On ch=9 n=60 v=0
36330 On ch=9 n=67 v=0
36331 On ch=9 n=59 v=62
36341 On ch=9 n=64 v=0
36359 On ch=9 n=62 v=69
36359 On ch=9 n=66 v=83
36394 On ch=9 n=66 v=0
36399 On ch=9 n=59 v=0
36402 On ch=9 n=62 v=0
36422 On ch=9 n=64 v=68
36422 On ch=9 n=60 v=68
36422 On ch=9 n=57 v=69
36651 On ch=9 n=57 v=0
36681 On ch=9 n=60 v=0
36681 On ch=9 n=64 v=0
36722 On ch=9 n=59 v=70
36726 On ch=9 n=62 v=70
36729 On ch=9 n=66 v=77
36933 On ch=9 n=62 v=0
36936 On ch=9 n=59 v=0
36938 On ch=9 n=66 v=0
36952 On ch=9 n=57 v=67
36961 On ch=9 n=59 v=62
36966 On ch=9 n=62 v=74
36969 On ch=9 n=66 v=81
37172 On ch=9 n=62 v=0
37174 On ch=9 n=57 v=0
37178 On ch=9 n=66 v=0
37185 On ch=9 n=59 v=0
37192 On ch=9 n=55 v=71
37205 On ch=9 n=59 v=69
37208 On ch=9 n=62 v=77
37222 On ch=9 n=66 v=72
37388 On ch=9 n=55 v=0
37397 On ch=9 n=59 v=0
37404 On ch=9 n=66 v=0
37427 On ch=9 n=62 v=0
37431 On ch=9 n=57 v=70
37443 On ch=9 n=60 v=70
37446 On ch=9 n=67 v=90
38270 On ch=9 n=67 v=0
38277 On ch=9 n=60 v=0
38280 On ch=9 n=57 v=0
70689 On ch=9 n=52 v=60
70736 Par ch=9 c=64 v=127
70760 On ch=9 n=52 v=0
70781 On ch=9 n=64 v=59
70791 On ch=9 n=67 v=52
70798 On ch=9 n=71 v=68
70802 On ch=9 n=76 v=74
70931 On ch=9 n=76 v=0
70931 On ch=9 n=71 v=0
70931 On ch=9 n=64 v=0
70935 On ch=9 n=67 v=0
71042 On ch=9 n=71 v=112
71048 Par ch=9 c=64 v=0
71086 On ch=9 n=69 v=73
71090 On ch=9 n=71 v=0
71120 On ch=9 n=67 v=58
71127 On ch=9 n=69 v=0
71165 On ch=9 n=66 v=58
71167 On ch=9 n=67 v=0
71283 On ch=9 n=66 v=0
71283 On ch=9 n=59 v=95
71325 On ch=9 n=60 v=75
71327 On ch=9 n=59 v=0
71358 On ch=9 n=60 v=0
71362 On ch=9 n=62 v=81
71409 On ch=9 n=54 v=65
71411 On ch=9 n=62 v=0
71453 On ch=9 n=55 v=81
71456 On ch=9 n=54 v=0
71488 On ch=9 n=55 v=0
71490 On ch=9 n=57 v=90
71533 On ch=9 n=57 v=0
71533 On ch=9 n=48 v=66
71958 On ch=9 n=48 v=0
82800 Par ch=9 c=64 v=127
82800 On ch=9 n=64 v=51
82800 On ch=9 n=55 v=49
82800 On ch=9 n=59 v=59
82858 On ch=9 n=64 v=0
82858 On ch=9 n=52 v=53
82868 On ch=9 n=59 v=0
82876 On ch=9 n=55 v=0
82881 On ch=9 n=52 v=0
82924 On ch=9 n=55 v=60
82924 On ch=9 n=59 v=68
82924 On ch=9 n=64 v=63
82950 Par ch=9 c=64 v=0
82982 On ch=9 n=52 v=53
82988 On ch=9 n=64 v=0
82990 Par ch=9 c=64 v=127
82993 On ch=9 n=59 v=0
82998 On ch=9 n=55 v=0
83024 On ch=9 n=52 v=0
83040 On ch=9 n=55 v=54
83040 On ch=9 n=59 v=62
83040 On ch=9 n=64 v=59
83090 On ch=9 n=64 v=0
83097 On ch=9 n=52 v=60
83098 On ch=9 n=59 v=0
83114 On ch=9 n=55 v=0
83126 On ch=9 n=52 v=0
83159 On ch=9 n=55 v=65
83159 On ch=9 n=64 v=79
83159 On ch=9 n=59 v=77
83218 On ch=9 n=52 v=59
83222 On ch=9 n=59 v=0
83222 On ch=9 n=64 v=0
83235 On ch=9 n=55 v=0
83252 On ch=9 n=52 v=0
83278 On ch=9 n=64 v=71
83280 On ch=9 n=59 v=69
83280 On ch=9 n=55 v=58
83337 On ch=9 n=52 v=59
83347 On ch=9 n=64 v=0
83351 On ch=9 n=59 v=0
83354 On ch=9 n=55 v=0
83374 On ch=9 n=52 v=0
83399 On ch=9 n=55 v=58
83399 On ch=9 n=59 v=61
83399 On ch=9 n=64 v=58
83458 On ch=9 n=52 v=59
83460 On ch=9 n=64 v=0
83470 On ch=9 n=59 v=0
83475 On ch=9 n=55 v=0
83522 On ch=9 n=55 v=52
83524 On ch=9 n=59 v=60
83524 On ch=9 n=64 v=60
83532 On ch=9 n=52 v=0
83578 On ch=9 n=52 v=59
83579 On ch=9 n=64 v=0
83587 On ch=9 n=59 v=0
83591 On ch=9 n=55 v=0
83610 Par ch=9 c=64 v=0
83626 On ch=9 n=52 v=0
83639 On ch=9 n=55 v=59
83639 On ch=9 n=59 v=66
83642 On ch=9 n=64 v=64
83647 Par ch=9 c=64 v=127
83697 On ch=9 n=64 v=0
83698 On ch=9 n=52 v=60
83705 On ch=9 n=59 v=0
83708 On ch=9 n=55 v=0
83758 On ch=9 n=59 v=62
83758 On ch=9 n=55 v=55
83758 On ch=9 n=64 v=63
83759 On ch=9 n=52 v=0
83768 Par ch=9 c=64 v=0
83795 Par ch=9 c=64 v=127
83817 On ch=9 n=52 v=54
83826 On ch=9 n=59 v=0
83826 On ch=9 n=64 v=0
83832 On ch=9 n=55 v=0
83882 On ch=9 n=64 v=60
83882 On ch=9 n=59 v=59
83882 On ch=9 n=55 v=50
83883 On ch=9 n=52 v=0
83937 On ch=9 n=52 v=59
83943 On ch=9 n=64 v=0
83945 On ch=9 n=59 v=0
83948 On ch=9 n=55 v=0
83984 On ch=9 n=52 v=0
84001 On ch=9 n=59 v=63
84001 On ch=9 n=55 v=56
84001 On ch=9 n=64 v=60
84030 On ch=9 n=64 v=0
84035 On ch=9 n=59 v=0
84038 On ch=9 n=55 v=0
84057 On ch=9 n=52 v=56
84081 On ch=9 n=52 v=0
84120 On ch=9 n=59 v=70
84120 On ch=9 n=64 v=68
84122 On ch=9 n=55 v=58
84156 On ch=9 n=64 v=0
84164 On ch=9 n=59 v=0
84178 On ch=9 n=52 v=58
84186 On ch=9 n=55 v=0
84209 On ch=9 n=52 v=0
84241 On ch=9 n=64 v=61
84241 On ch=9 n=59 v=60
84241 On ch=9 n=55 v=56
84259 Par ch=9 c=64 v=0
84283 Par ch=9 c=64 v=127
84291 On ch=9 n=64 v=0
84296 On ch=9 n=52 v=52
84302 On ch=9 n=59 v=0
84310 On ch=9 n=55 v=0
84330 On ch=9 n=52 v=0
84362 On ch=9 n=64 v=59
84362 On ch=9 n=55 v=55
84362 On ch=9 n=59 v=59
84397 On ch=9 n=59 v=0
84397 On ch=9 n=64 v=0
84402 On ch=9 n=55 v=0
84418 On ch=9 n=52 v=50
84442 On ch=9 n=52 v=0
84477 On ch=9 n=64 v=70
84477 On ch=9 n=55 v=58
84477 On ch=9 n=59 v=67
84517 On ch=9 n=59 v=0
84517 On ch=9 n=64 v=0
84524 On ch=9 n=55 v=0
84536 On ch=9 n=52 v=47
84593 On ch=9 n=55 v=62
84597 On ch=9 n=59 v=67
84598 On ch=9 n=64 v=73
84602 On ch=9 n=52 v=0
84638 On ch=9 n=64 v=0
84647 On ch=9 n=59 v=0
84654 On ch=9 n=52 v=53
84662 On ch=9 n=55 v=0
84686 On ch=9 n=52 v=0
84717 On ch=9 n=64 v=72
84717 On ch=9 n=55 v=60
84717 On ch=9 n=59 v=67
84775 On ch=9 n=64 v=0
84776 On ch=9 n=52 v=58
84786 On ch=9 n=59 v=0
84788 On ch=9 n=55 v=0
84840 On ch=9 n=55 v=50
84840 On ch=9 n=59 v=50
84844 On ch=9 n=64 v=58
84848 On ch=9 n=52 v=0
84895 On ch=9 n=52 v=57
84904 On ch=9 n=64 v=0
84906 On ch=9 n=59 v=0
84917 On ch=9 n=55 v=0
84952 On ch=9 n=55 v=59
84957 On ch=9 n=59 v=65
84957 On ch=9 n=64 v=76
84958 On ch=9 n=52 v=0
84997 On ch=9 n=64 v=0
85022 On ch=9 n=52 v=60
85026 On ch=9 n=59 v=0
85037 On ch=9 n=55 v=0
85051 On ch=9 n=52 v=0
85082 On ch=9 n=55 v=57
85082 On ch=9 n=59 v=62
85082 On ch=9 n=64 v=61
85135 On ch=9 n=64 v=0
85138 On ch=9 n=59 v=0
85141 On ch=9 n=52 v=55
85148 On ch=9 n=55 v=0
85173 On ch=9 n=52 v=0
85199 On ch=9 n=55 v=59
85202 On ch=9 n=59 v=66
85202 On ch=9 n=64 v=63
85260 On ch=9 n=64 v=0
85260 On ch=9 n=52 v=57
85263 On ch=9 n=59 v=0
85268 On ch=9 n=55 v=0
85310 Par ch=9 c=64 v=0
85312 On ch=9 n=55 v=60
85321 On ch=9 n=59 v=58
85322 On ch=9 n=64 v=72
85326 On ch=9 n=52 v=0
85334 Par ch=9 c=64 v=127
85375 On ch=9 n=64 v=0
85377 On ch=9 n=52 v=60
85381 On ch=9 n=59 v=0
85393 On ch=9 n=55 v=0
85411 On ch=9 n=52 v=0
85438 On ch=9 n=55 v=60
85438 On ch=9 n=59 v=75
85438 On ch=9 n=64 v=74
85491 On ch=9 n=64 v=0
85497 On ch=9 n=52 v=53
85499 On ch=9 n=59 v=0
85512 On ch=9 n=55 v=0
85542 On ch=9 n=52 v=0
85561 On ch=9 n=55 v=58
85563 On ch=9 n=59 v=59
85563 On ch=9 n=64 v=60
85619 On ch=9 n=52 v=60
85630 On ch=9 n=55 v=0
85634 On ch=9 n=59 v=0
85637 On ch=9 n=64 v=0
85648 On ch=9 n=52 v=0
85682 On ch=9 n=55 v=64
85682 On ch=9 n=59 v=74
85682 On ch=9 n=64 v=69
85730 On ch=9 n=64 v=0
85738 On ch=9 n=59 v=0
85740 On ch=9 n=55 v=0
85745 On ch=9 n=52 v=44
85775 On ch=9 n=55 v=59
85782 On ch=9 n=52 v=0
85785 Par ch=9 c=64 v=0
85791 On ch=9 n=59 v=61
85794 On ch=9 n=64 v=77
85796 Par ch=9 c=64 v=127
85854 On ch=9 n=64 v=0
85854 On ch=9 n=52 v=65
85865 On ch=9 n=55 v=0
85871 On ch=9 n=59 v=0
85881 On ch=9 n=52 v=0
85918 On ch=9 n=55 v=59
85918 On ch=9 n=59 v=67
85918 On ch=9 n=64 v=62
85969 On ch=9 n=64 v=0
85976 On ch=9 n=59 v=0
85977 On ch=9 n=52 v=58
85990 On ch=9 n=55 v=0
86006 On ch=9 n=52 v=0
86041 On ch=9 n=55 v=58
86041 On ch=9 n=59 v=63
86041 On ch=9 n=64 v=61
86092 On ch=9 n=64 v=0
86100 On ch=9 n=52 v=58
86105 On ch=9 n=59 v=0
86110 On ch=9 n=55 v=0
86121 On ch=9 n=52 v=0
86158 On ch=9 n=55 v=60
86158 On ch=9 n=59 v=72
86160 On ch=9 n=64 v=65
86221 On ch=9 n=64 v=0
86221 On ch=9 n=52 v=50
86232 On ch=9 n=59 v=0
86239 On ch=9 n=55 v=0
86245 On ch=9 n=52 v=0
86277 On ch=9 n=64 v=61
86277 On ch=9 n=55 v=54
86277 On ch=9 n=59 v=63
86335 On ch=9 n=64 v=0
86336 On ch=9 n=52 v=57
86351 On ch=9 n=59 v=0
86354 On ch=9 n=55 v=0
86360 On ch=9 n=52 v=0
86402 On ch=9 n=59 v=59
86402 On ch=9 n=55 v=53
86402 On ch=9 n=64 v=58
86458 On ch=9 n=64 v=0
86458 On ch=9 n=59 v=0
86459 On ch=9 n=52 v=59
86468 On ch=9 n=55 v=0
86488 On ch=9 n=52 v=0
86518 On ch=9 n=55 v=56
86518 On ch=9 n=59 v=68
86522 On ch=9 n=64 v=65
86572 On ch=9 n=64 v=0
86578 On ch=9 n=52 v=58
86581 On ch=9 n=59 v=0
86589 On ch=9 n=55 v=0
86602 On ch=9 n=52 v=0
86641 On ch=9 n=64 v=74
86641 On ch=9 n=59 v=71
86641 On ch=9 n=55 v=61
86696 On ch=9 n=59 v=0
86696 On ch=9 n=64 v=0
86701 On ch=9 n=55 v=0
86701 On ch=9 n=52 v=49
86736 On ch=9 n=52 v=0
86737 On ch=9 n=55 v=53
86738 Par ch=9 c=64 v=0
86755 On ch=9 n=59 v=58
86756 On ch=9 n=64 v=69
86760 Par ch=9 c=64 v=127
86815 On ch=9 n=52 v=62
86820 On ch=9 n=64 v=0
86829 On ch=9 n=55 v=0
86831 On ch=9 n=59 v=0
86842 On ch=9 n=52 v=0
86878 On ch=9 n=55 v=59
86878 On ch=9 n=64 v=62
86878 On ch=9 n=59 v=66
86934 On ch=9 n=64 v=0
86937 On ch=9 n=52 v=59
86942 On ch=9 n=59 v=0
86950 On ch=9 n=55 v=0
86969 On ch=9 n=52 v=0
86998 On ch=9 n=55 v=57
86998 On ch=9 n=59 v=63
86998 On ch=9 n=64 v=63
87054 On ch=9 n=64 v=0
87058 On ch=9 n=52 v=58
87069 On ch=9 n=59 v=0
87077 On ch=9 n=55 v=0
87084 On ch=9 n=52 v=0
87121 On ch=9 n=59 v=66
87121 On ch=9 n=64 v=67
87121 On ch=9 n=55 v=56
87169 On ch=9 n=64 v=0
87171 On ch=9 n=59 v=0
87178 On ch=9 n=52 v=56
87187 On ch=9 n=55 v=0
87204 On ch=9 n=52 v=0
87238 On ch=9 n=55 v=58
87240 On ch=9 n=59 v=64
87240 On ch=9 n=64 v=63
87290 On ch=9 n=64 v=0
87297 On ch=9 n=52 v=59
87306 On ch=9 n=59 v=0
87307 On ch=9 n=55 v=0
87324 On ch=9 n=52 v=0
87357 On ch=9 n=55 v=59
87357 On ch=9 n=59 v=61
87357 On ch=9 n=64 v=62
87415 On ch=9 n=64 v=0
87418 On ch=9 n=52 v=58
87426 On ch=9 n=59 v=0
87431 On ch=9 n=55 v=0
87444 On ch=9 n=52 v=0
87478 On ch=9 n=55 v=59
87478 On ch=9 n=64 v=64
87480 On ch=9 n=59 v=64
87536 On ch=9 n=59 v=0
87536 On ch=9 n=64 v=0
87536 On ch=9 n=55 v=0
87537 On ch=9 n=52 v=56
87578 Par ch=9 c=64 v=0
87591 On ch=9 n=55 v=61
87591 On ch=9 n=59 v=79
87594 On ch=9 n=64 v=74
87599 Par ch=9 c=64 v=127
87600 On ch=9 n=52 v=0
87652 On ch=9 n=64 v=0
87653 On ch=9 n=52 v=59
87667 On ch=9 n=59 v=0
87670 On ch=9 n=55 v=0
87680 On ch=9 n=52 v=0
87715 On ch=9 n=64 v=61
87715 On ch=9 n=59 v=61
87715 On ch=9 n=55 v=57
87767 On ch=9 n=64 v=0
87774 On ch=9 n=52 v=57
87781 On ch=9 n=55 v=0
87781 On ch=9 n=59 v=0
87800 On ch=9 n=52 v=0
87836 On ch=9 n=64 v=61
87836 On ch=9 n=59 v=60
87838 On ch=9 n=55 v=56
87889 On ch=9 n=64 v=0
87897 On ch=9 n=59 v=0
87897 On ch=9 n=52 v=56
87901 On ch=9 n=55 v=0
87926 On ch=9 n=52 v=0
87958 On ch=9 n=55 v=59
87958 On ch=9 n=59 v=65
87958 On ch=9 n=64 v=64
87992 On ch=9 n=59 v=0
87992 On ch=9 n=55 v=0
88006 On ch=9 n=64 v=0
88016 On ch=9 n=52 v=55
88039 On ch=9 n=52 v=0
88075 On ch=9 n=55 v=61
88075 On ch=9 n=59 v=69
88075 On ch=9 n=64 v=65
88133 On ch=9 n=64 v=0
88134 On ch=9 n=52 v=54
88143 On ch=9 n=59 v=0
88146 On ch=9 n=55 v=0
88165 On ch=9 n=52 v=0
88197 On ch=9 n=55 v=58
88197 On ch=9 n=59 v=62
88197 On ch=9 n=64 v=65
88242 On ch=9 n=64 v=0
88247 On ch=9 n=59 v=0
88254 On ch=9 n=52 v=53
88265 On ch=9 n=55 v=0
88283 On ch=9 n=52 v=0
88316 On ch=9 n=59 v=67
88318 On ch=9 n=55 v=58
88318 On ch=9 n=64 v=65
88363 On ch=9 n=64 v=0
88374 On ch=9 n=52 v=58
88382 On ch=9 n=59 v=0
88387 On ch=9 n=55 v=0
88400 On ch=9 n=52 v=0
88439 On ch=9 n=55 v=60
88439 On ch=9 n=59 v=69
88439 On ch=9 n=64 v=65
88481 On ch=9 n=64 v=0
88481 On ch=9 n=59 v=0
88493 On ch=9 n=52 v=58
88497 On ch=9 n=55 v=0
88530 On ch=9 n=52 v=0
88552 On ch=9 n=55 v=62
88552 Par ch=9 c=64 v=0
88553 On ch=9 n=59 v=76
88555 On ch=9 n=64 v=74
88560 Par ch=9 c=64 v=127
88608 On ch=9 n=64 v=0
88612 On ch=9 n=52 v=58
88619 On ch=9 n=59 v=0
88626 On ch=9 n=55 v=0
88641 On ch=9 n=52 v=0
88676 On ch=9 n=55 v=55
88676 On ch=9 n=64 v=56
88676 On ch=9 n=59 v=58
88720 On ch=9 n=59 v=0
88720 On ch=9 n=64 v=0
88728 On ch=9 n=55 v=0
88736 On ch=9 n=52 v=47
88763 On ch=9 n=52 v=0
88797 On ch=9 n=55 v=52
88798 On ch=9 n=59 v=58
88798 On ch=9 n=64 v=57
88835 On ch=9 n=59 v=0
88842 On ch=9 n=64 v=0
88857 On ch=9 n=52 v=52
88858 On ch=9 n=55 v=0
88880 On ch=9 n=52 v=0
88916 On ch=9 n=55 v=59
88916 On ch=9 n=59 v=67
88919 On ch=9 n=64 v=63
88969 On ch=9 n=64 v=0
88974 On ch=9 n=59 v=0
88975 On ch=9 n=52 v=56
88984 On ch=9 n=55 v=0
89007 On ch=9 n=52 v=0
89035 On ch=9 n=55 v=60
89037 On ch=9 n=59 v=67
89037 On ch=9 n=64 v=60
89082 On ch=9 n=64 v=0
89090 On ch=9 n=59 v=0
89092 On ch=9 n=52 v=52
89101 On ch=9 n=55 v=0
89124 On ch=9 n=52 v=0
89154 On ch=9 n=55 v=59
89154 On ch=9 n=64 v=64
89154 On ch=9 n=59 v=65
89194 On ch=9 n=59 v=0
89194 On ch=9 n=64 v=0
89212 On ch=9 n=55 v=0
89215 On ch=9 n=52 v=58
89244 On ch=9 n=52 v=0
89275 On ch=9 n=55 v=59
89275 On ch=9 n=59 v=71
89275 On ch=9 n=64 v=67
89322 On ch=9 n=64 v=0
89325 On ch=9 n=59 v=0
89337 On ch=9 n=52 v=54
89346 On ch=9 n=55 v=0
89358 On ch=9 n=52 v=0
89396 On ch=9 n=55 v=59
89396 On ch=9 n=64 v=67
89396 On ch=9 n=59 v=68
89441 On ch=9 n=59 v=0
89441 On ch=9 n=64 v=0
89460 On ch=9 n=52 v=56
89462 On ch=9 n=55 v=0
89512 On ch=9 n=55 v=60
89514 On ch=9 n=59 v=74
89517 On ch=9 n=64 v=77
89521 On ch=9 n=52 v=0
89559 On ch=9 n=64 v=0
89574 On ch=9 n=52 v=59
89591 On ch=9 n=59 v=0
89596 On ch=9 n=55 v=0
89603 On ch=9 n=52 v=0
89640 On ch=9 n=64 v=58
89640 On ch=9 n=55 v=58
89640 On ch=9 n=59 v=64
89690 On ch=9 n=64 v=0
89695 On ch=9 n=59 v=0
89697 On ch=9 n=52 v=54
89706 On ch=9 n=55 v=0
89724 On ch=9 n=52 v=0
89761 On ch=9 n=55 v=54
89763 On ch=9 n=59 v=58
89763 On ch=9 n=64 v=58
89802 On ch=9 n=64 v=0
89802 On ch=9 n=59 v=0
89816 On ch=9 n=52 v=47
89819 On ch=9 n=55 v=0
89840 On ch=9 n=52 v=0
89878 On ch=9 n=55 v=59
89880 On ch=9 n=59 v=67
89880 On ch=9 n=64 v=62
89937 On ch=9 n=52 v=53
89958 Par ch=9 c=64 v=127
89958 Par ch=9 c=64 v=0
89960 Par ch=9 c=64 v=127
89968 On ch=9 n=55 v=0
89970 On ch=9 n=59 v=0
89970 On ch=9 n=64 v=0
89971 Par ch=9 c=64 v=0
89997 On ch=9 n=52 v=0
90000 On ch=9 n=57 v=59
90000 On ch=9 n=62 v=65
90000 On ch=9 n=66 v=111
90002 On ch=9 n=50 v=79
90145 Par ch=9 c=64 v=127
90158 On ch=9 n=62 v=0
90158 On ch=9 n=57 v=0
90161 On ch=9 n=66 v=0
90183 On ch=9 n=67 v=98
90197 On ch=9 n=67 v=0
90238 On ch=9 n=67 v=108
90253 Par ch=9 c=64 v=0
90264 On ch=9 n=66 v=104
90270 On ch=9 n=67 v=0
90276 On ch=9 n=64 v=74
90290 On ch=9 n=66 v=0
90300 On ch=9 n=62 v=86
90305 On ch=9 n=64 v=0
90337 On ch=9 n=62 v=0
90348 On ch=9 n=50 v=0
90358 On ch=9 n=48 v=86
90359 On ch=9 n=64 v=111
90409 On ch=9 n=64 v=0
90418 On ch=9 n=62 v=79
90478 On ch=9 n=60 v=73
90481 On ch=9 n=62 v=0
90537 On ch=9 n=59 v=85
90542 On ch=9 n=60 v=0
90574 On ch=9 n=59 v=0
90597 On ch=9 n=62 v=111
90601 On ch=9 n=47 v=77
90609 On ch=9 n=48 v=0
90653 On ch=9 n=62 v=0
90658 On ch=9 n=59 v=74
90695 On ch=9 n=59 v=0
90710 On ch=9 n=47 v=0
90718 On ch=9 n=60 v=111
90719 On ch=9 n=45 v=75
90773 On ch=9 n=60 v=0
90778 On ch=9 n=57 v=81
90823 On ch=9 n=57 v=0
90829 On ch=9 n=45 v=0
90837 On ch=9 n=43 v=79
90837 On ch=9 n=59 v=120
90882 On ch=9 n=59 v=0
90898 On ch=9 n=55 v=74
90937 On ch=9 n=43 v=0
90943 On ch=9 n=55 v=0
90958 On ch=9 n=57 v=114
90959 On ch=9 n=42 v=76
90968 Par ch=9 c=64 v=127
90979 On ch=9 n=57 v=0
91030 On ch=9 n=42 v=0
91054 On ch=9 n=59 v=62
91076 On ch=9 n=64 v=66
91079 On ch=9 n=40 v=74
91083 On ch=9 n=56 v=80
91085 On ch=9 n=68 v=86
91087 Par ch=9 c=64 v=0
92036 On ch=9 n=68 v=0
92036 On ch=9 n=59 v=0
92036 On ch=9 n=56 v=0
92042 On ch=9 n=64 v=0
92048 On ch=9 n=40 v=0
92048 Meta TrkEnd
TrkEnd
MTrk
0 Meta 0x21 00
0 Meta TrkName "Guitar 4"
0 PrCh ch=11 p=31
0 Par ch=11 c=7 v=110
0 Par ch=11 c=10 v=56
0 Meta Text "%-"
0 Par ch=11 c=121 v=0
2 Par ch=11 c=0 v=0
4 Par ch=11 c=32 v=0
6 Par ch=11 c=11 v=127
8 Par ch=11 c=91 v=80
10 Par ch=11 c=93 v=50
480 Par ch=11 c=64 v=0
480 Par ch=11 c=64 v=127
898 On ch=11 n=64 v=23
906 On ch=11 n=64 v=0
906 On ch=11 n=67 v=24
913 On ch=11 n=71 v=38
915 On ch=11 n=67 v=0
923 On ch=11 n=71 v=0
923 On ch=11 n=76 v=62
929 On ch=11 n=76 v=0
1318 Par ch=11 c=64 v=0
1580 Par ch=11 c=64 v=127
1898 On ch=11 n=52 v=30
1907 On ch=11 n=52 v=0
1974 On ch=11 n=64 v=23
1981 On ch=11 n=67 v=31
1983 On ch=11 n=64 v=0
1989 On ch=11 n=67 v=0
1989 On ch=11 n=71 v=38
1998 On ch=11 n=71 v=0
1999 On ch=11 n=76 v=57
2002 On ch=11 n=76 v=0
2357 Par ch=11 c=64 v=0
2433 Par ch=11 c=64 v=127
2509 Par ch=11 c=64 v=0
2520 Par ch=11 c=64 v=127
2553 Par ch=11 c=64 v=0
2567 Par ch=11 c=64 v=127
2613 Par ch=11 c=64 v=0
2713 Par ch=11 c=64 v=127
3064 On ch=11 n=52 v=47
3070 On ch=11 n=52 v=0
3142 On ch=11 n=64 v=23
3149 On ch=11 n=67 v=29
3151 On ch=11 n=64 v=0
3154 On ch=11 n=71 v=45
3155 On ch=11 n=67 v=0
3162 On ch=11 n=76 v=68
3163 On ch=11 n=71 v=0
3167 On ch=11 n=76 v=0
3525 Par ch=11 c=64 v=0
3678 Par ch=11 c=64 v=127
3700 Par ch=11 c=64 v=0
70689 On ch=11 n=52 v=60
70730 On ch=11 n=52 v=0
70736 Par ch=11 c=64 v=127
70781 On ch=11 n=64 v=33
70791 On ch=11 n=67 v=31
70798 On ch=11 n=71 v=38
70802 On ch=11 n=76 v=37
70931 On ch=11 n=76 v=0
70931 On ch=11 n=71 v=0
70931 On ch=11 n=64 v=0
70935 On ch=11 n=67 v=0
71056 Par ch=11 c=64 v=127
71062 Par ch=11 c=64 v=0
71066 Meta Text "%+"
71066 Meta TrkEnd
TrkEnd
MTrk
0 Meta 0x21 00
0 Meta TrkName "Brass 1"
0 PrCh ch=12 p=61
0 Par ch=12 c=7 v=120
0 Par ch=12 c=10 v=75
0 Meta Text "%-"
0 Par ch=12 c=121 v=0
2 Par ch=12 c=0 v=0
4 Par ch=12 c=32 v=0
6 Par ch=12 c=11 v=127
8 Par ch=12 c=91 v=110
10 Par ch=12 c=93 v=100
480 Par ch=12 c=11 v=126
480 Par ch=12 c=11 v=123
480 Par ch=12 c=11 v=120
480 Par ch=12 c=11 v=117
480 Par ch=12 c=11 v=113
480 Par ch=12 c=11 v=109
480 Par ch=12 c=11 v=106
480 Par ch=12 c=11 v=102
480 Par ch=12 c=11 v=99
480 Par ch=12 c=11 v=96
480 Par ch=12 c=11 v=93
480 Par ch=12 c=11 v=89
480 Par ch=12 c=11 v=86
480 Par ch=12 c=11 v=83
480 Par ch=12 c=11 v=79
480 Par ch=12 c=11 v=76
480 Par ch=12 c=11 v=72
480 Par ch=12 c=11 v=69
480 Par ch=12 c=11 v=66
480 Par ch=12 c=11 v=62
480 Par ch=12 c=11 v=59
480 Par ch=12 c=11 v=55
480 Par ch=12 c=11 v=52
480 Par ch=12 c=11 v=47
480 Par ch=12 c=11 v=42
480 Par ch=12 c=11 v=37
480 Par ch=12 c=11 v=32
480 Par ch=12 c=11 v=27
480 Par ch=12 c=11 v=23
480 Par ch=12 c=11 v=19
480 Par ch=12 c=11 v=15
480 Par ch=12 c=11 v=11
480 Par ch=12 c=11 v=7
480 Par ch=12 c=11 v=4
480 Par ch=12 c=11 v=0
491 Par ch=12 c=64 v=127
495 On ch=12 n=28 v=112
495 On ch=12 n=40 v=120
495 On ch=12 n=55 v=114
495 On ch=12 n=52 v=122
501 On ch=12 n=40 v=0
502 On ch=12 n=52 v=0
503 On ch=12 n=55 v=0
503 On ch=12 n=28 v=0
510 On ch=12 n=64 v=120
540 On ch=12 n=64 v=0
593 Par ch=12 c=11 v=1
595 Par ch=12 c=11 v=2
596 Par ch=12 c=11 v=3
598 Par ch=12 c=11 v=4
599 Par ch=12 c=11 v=5
601 Par ch=12 c=11 v=6
602 Par ch=12 c=11 v=7
603 Par ch=12 c=11 v=8
604 Par ch=12 c=11 v=9
606 Par ch=12 c=11 v=10
606 Par ch=12 c=11 v=11
608 Par ch=12 c=11 v=12
609 Par ch=12 c=11 v=13
612 Par ch=12 c=11 v=14
614 Par ch=12 c=11 v=15
617 Par ch=12 c=11 v=16
620 Par ch=12 c=11 v=17
624 Par ch=12 c=11 v=18
629 Par ch=12 c=11 v=19
632 Par ch=12 c=11 v=20
635 Par ch=12 c=11 v=21
637 Par ch=12 c=11 v=22
640 Par ch=12 c=11 v=23
642 Par ch=12 c=11 v=24
644 Par ch=12 c=11 v=25
645 Par ch=12 c=11 v=26
647 Par ch=12 c=11 v=27
649 Par ch=12 c=11 v=28
651 Par ch=12 c=11 v=29
653 Par ch=12 c=11 v=30
655 Par ch=12 c=11 v=31
658 Par ch=12 c=11 v=32
661 Par ch=12 c=11 v=33
664 Par ch=12 c=11 v=34
667 Par ch=12 c=11 v=35
669 Par ch=12 c=11 v=36
671 Par ch=12 c=11 v=37
673 Par ch=12 c=11 v=38
674 Par ch=12 c=11 v=39
676 Par ch=12 c=11 v=40
678 Par ch=12 c=11 v=41
679 Par ch=12 c=11 v=42
681 Par ch=12 c=11 v=43
682 Par ch=12 c=11 v=44
685 Par ch=12 c=11 v=45
687 Par ch=12 c=11 v=46
689 Par ch=12 c=11 v=47
691 Par ch=12 c=11 v=48
692 Par ch=12 c=11 v=49
695 Par ch=12 c=11 v=50
697 Par ch=12 c=11 v=51
699 Par ch=12 c=11 v=52
701 Par ch=12 c=11 v=53
704 Par ch=12 c=11 v=54
706 Par ch=12 c=11 v=55
708 Par ch=12 c=11 v=56
710 Par ch=12 c=11 v=57
712 Par ch=12 c=11 v=58
714 Par ch=12 c=11 v=59
716 Par ch=12 c=11 v=60
718 Par ch=12 c=11 v=61
720 Par ch=12 c=11 v=62
723 Par ch=12 c=11 v=63
726 Par ch=12 c=11 v=64
729 Par ch=12 c=11 v=65
732 Par ch=12 c=11 v=66
737 Par ch=12 c=11 v=67
741 Par ch=12 c=11 v=68
745 Par ch=12 c=11 v=69
748 Par ch=12 c=11 v=70
752 Par ch=12 c=11 v=71
756 Par ch=12 c=11 v=72
761 Par ch=12 c=11 v=73
764 Par ch=12 c=11 v=74
767 Par ch=12 c=11 v=75
771 Par ch=12 c=11 v=76
775 Par ch=12 c=11 v=77
779 Par ch=12 c=11 v=78
783 Par ch=12 c=11 v=79
788 Par ch=12 c=11 v=80
792 Par ch=12 c=11 v=81
795 Par ch=12 c=11 v=82
799 Par ch=12 c=11 v=83
801 Par ch=12 c=11 v=84
805 Par ch=12 c=11 v=85
809 Par ch=12 c=11 v=86
812 Par ch=12 c=11 v=87
815 Par ch=12 c=11 v=88
817 Par ch=12 c=11 v=89
820 Par ch=12 c=11 v=90
824 Par ch=12 c=11 v=91
827 Par ch=12 c=11 v=92
831 Par ch=12 c=11 v=93
836 Par ch=12 c=11 v=94
841 Par ch=12 c=11 v=95
847 Par ch=12 c=11 v=96
850 Par ch=12 c=11 v=97
853 Par ch=12 c=11 v=98
856 Par ch=12 c=11 v=99
859 Par ch=12 c=11 v=100
862 Par ch=12 c=11 v=101
864 Par ch=12 c=11 v=102
867 Par ch=12 c=11 v=103
870 Par ch=12 c=11 v=104
872 Par ch=12 c=11 v=105
875 Par ch=12 c=11 v=106
878 Par ch=12 c=11 v=107
881 Par ch=12 c=11 v=108
883 Par ch=12 c=11 v=109
885 Par ch=12 c=11 v=110
887 Par ch=12 c=11 v=111
890 Par ch=12 c=11 v=112
891 Par ch=12 c=11 v=113
893 Par ch=12 c=11 v=114
894 Par ch=12 c=11 v=115
896 Par ch=12 c=11 v=116
897 Par ch=12 c=11 v=117
898 Par ch=12 c=11 v=118
898 Par ch=12 c=11 v=119
898 Par ch=12 c=11 v=120
900 Par ch=12 c=11 v=121
900 Par ch=12 c=11 v=122
901 Par ch=12 c=11 v=123
901 Par ch=12 c=11 v=124
902 Par ch=12 c=11 v=125
902 Par ch=12 c=11 v=126
902 Par ch=12 c=11 v=127
922 Par ch=12 c=64 v=0
2400 Par ch=12 c=11 v=1
2400 Par ch=12 c=11 v=3
2400 Par ch=12 c=11 v=4
2400 Par ch=12 c=11 v=6
2400 Par ch=12 c=11 v=8
2400 Par ch=12 c=11 v=10
2400 Par ch=12 c=11 v=12
2400 Par ch=12 c=11 v=14
2400 Par ch=12 c=11 v=16
2400 Par ch=12 c=11 v=18
2400 Par ch=12 c=11 v=21
2400 Par ch=12 c=11 v=23
2400 Par ch=12 c=11 v=26
2400 Par ch=12 c=11 v=29
2400 Par ch=12 c=11 v=32
2400 Par ch=12 c=11 v=35
2400 Par ch=12 c=11 v=38
2400 Par ch=12 c=11 v=41
2400 Par ch=12 c=11 v=45
2400 Par ch=12 c=11 v=48
2400 Par ch=12 c=11 v=51
2400 Par ch=12 c=11 v=54
2400 Par ch=12 c=11 v=57
2400 Par ch=12 c=11 v=61
2400 Par ch=12 c=11 v=64
2400 Par ch=12 c=11 v=67
2400 Par ch=12 c=11 v=70
2400 Par ch=12 c=11 v=73
2400 Par ch=12 c=11 v=76
2400 Par ch=12 c=11 v=79
2400 Par ch=12 c=11 v=82
2400 Par ch=12 c=11 v=85
2400 Par ch=12 c=11 v=87
2400 Par ch=12 c=11 v=90
2400 Par ch=12 c=11 v=93
2400 Par ch=12 c=11 v=96
2400 Par ch=12 c=1 v=1
2400 Par ch=12 c=11 v=98
2400 Par ch=12 c=11 v=101
2400 Par ch=12 c=1 v=2
2400 Par ch=12 c=11 v=104
2400 Par ch=12 c=1 v=3
2400 Par ch=12 c=11 v=106
2400 Par ch=12 c=1 v=4
2400 Par ch=12 c=11 v=108
2400 Par ch=12 c=1 v=5
2400 Par ch=12 c=11 v=111
2400 Par ch=12 c=1 v=7
2400 Par ch=12 c=11 v=113
2400 Par ch=12 c=1 v=8
2400 Par ch=12 c=11 v=116
2400 Par ch=12 c=1 v=10
2400 Par ch=12 c=11 v=118
2400 Par ch=12 c=1 v=11
2400 Par ch=12 c=11 v=121
2400 Par ch=12 c=1 v=13
2400 Par ch=12 c=11 v=123
2400 Par ch=12 c=1 v=14
2400 Par ch=12 c=11 v=126
2400 Par ch=12 c=1 v=16
2400 Par ch=12 c=11 v=127
2400 Par ch=12 c=1 v=17
2400 Par ch=12 c=1 v=19
2400 Par ch=12 c=1 v=20
2400 Par ch=12 c=1 v=22
2400 Par ch=12 c=1 v=23
2400 Par ch=12 c=1 v=25
2400 Par ch=12 c=1 v=26
2400 Par ch=12 c=1 v=27
2400 Par ch=12 c=1 v=28
2400 Par ch=12 c=1 v=29
2400 Par ch=12 c=1 v=30
2400 Par ch=12 c=1 v=31
2400 Par ch=12 c=1 v=32
2400 Par ch=12 c=1 v=31
2400 Par ch=12 c=1 v=30
2400 Par ch=12 c=11 v=126
2400 Par ch=12 c=11 v=122
2400 Par ch=12 c=11 v=119
2400 Par ch=12 c=11 v=115
2400 Par ch=12 c=11 v=110
2400 Par ch=12 c=11 v=106
2400 Par ch=12 c=11 v=101
2400 Par ch=12 c=11 v=97
2400 Par ch=12 c=11 v=92
2400 Par ch=12 c=11 v=87
2400 Par ch=12 c=11 v=82
2400 Par ch=12 c=11 v=77
2400 Par ch=12 c=11 v=72
2400 Par ch=12 c=11 v=66
2400 Par ch=12 c=11 v=61
2400 Par ch=12 c=11 v=56
2400 Par ch=12 c=11 v=51
2400 Par ch=12 c=11 v=46
2400 Par ch=12 c=11 v=41
2400 Par ch=12 c=11 v=37
2400 Par ch=12 c=11 v=33
2400 Par ch=12 c=11 v=29
2400 Par ch=12 c=11 v=25
2400 Par ch=12 c=11 v=22
2400 Par ch=12 c=11 v=18
2400 Par ch=12 c=11 v=15
2400 Par ch=12 c=11 v=11
2400 Par ch=12 c=11 v=8
2400 Par ch=12 c=11 v=6
2400 Par ch=12 c=11 v=3
2400 Par ch=12 c=11 v=0
2526 Par ch=12 c=64 v=127
2572 On ch=12 n=52 v=114
2572 On ch=12 n=43 v=112
2572 On ch=12 n=36 v=120
2579 On ch=12 n=43 v=0
2579 On ch=12 n=52 v=0
2580 On ch=12 n=36 v=0
2628 Par ch=12 c=11 v=1
2628 Par ch=12 c=11 v=2
2628 Par ch=12 c=11 v=3
2629 Par ch=12 c=11 v=4
2630 Par ch=12 c=11 v=5
2630 Par ch=12 c=11 v=6
2632 Par ch=12 c=11 v=7
2634 Par ch=12 c=11 v=8
2635 Par ch=12 c=11 v=9
2636 Par ch=12 c=11 v=10
2638 Par ch=12 c=11 v=11
2640 Par ch=12 c=11 v=12
2642 Par ch=12 c=11 v=13
2644 Par ch=12 c=11 v=14
2645 Par ch=12 c=11 v=15
2646 Par ch=12 c=11 v=16
2647 Par ch=12 c=11 v=17
2649 Par ch=12 c=11 v=18
2650 Par ch=12 c=11 v=19
2651 Par ch=12 c=11 v=20
2652 Par ch=12 c=11 v=21
2653 Par ch=12 c=11 v=22
2654 Par ch=12 c=11 v=23
2657 Par ch=12 c=11 v=24
2657 Par ch=12 c=11 v=25
2659 Par ch=12 c=11 v=26
2660 Par ch=12 c=11 v=27
2661 Par ch=12 c=11 v=28
2663 Par ch=12 c=11 v=29
2665 Par ch=12 c=11 v=30
2667 Par ch=12 c=11 v=31
2671 Par ch=12 c=11 v=32
2675 Par ch=12 c=11 v=33
2677 Par ch=12 c=11 v=34
2682 Par ch=12 c=11 v=35
2687 Par ch=12 c=11 v=36
2693 Par ch=12 c=11 v=37
2697 Par ch=12 c=11 v=38
2701 Par ch=12 c=11 v=39
2707 Par ch=12 c=11 v=40
2710 Par ch=12 c=11 v=41
2712 Par ch=12 c=11 v=42
2715 Par ch=12 c=11 v=43
2718 Par ch=12 c=11 v=44
2721 Par ch=12 c=11 v=45
2725 Par ch=12 c=11 v=46
2731 Par ch=12 c=11 v=47
2736 Par ch=12 c=11 v=48
2741 Par ch=12 c=11 v=49
2745 Par ch=12 c=11 v=50
2748 Par ch=12 c=11 v=51
2750 Par ch=12 c=11 v=52
2754 Par ch=12 c=11 v=53
2758 Par ch=12 c=11 v=54
2761 Par ch=12 c=11 v=55
2763 Par ch=12 c=11 v=56
2765 Par ch=12 c=11 v=57
2768 Par ch=12 c=11 v=58
2770 Par ch=12 c=11 v=59
2773 Par ch=12 c=11 v=60
2777 Par ch=12 c=11 v=61
2781 Par ch=12 c=11 v=62
2787 Par ch=12 c=11 v=63
2791 Par ch=12 c=11 v=64
2796 Par ch=12 c=11 v=65
2800 Par ch=12 c=11 v=66
2804 Par ch=12 c=11 v=67
2809 Par ch=12 c=11 v=68
2812 Par ch=12 c=11 v=69
2815 Par ch=12 c=11 v=70
2821 Par ch=12 c=11 v=71
2828 Par ch=12 c=11 v=72
2839 Par ch=12 c=11 v=73
2842 Par ch=12 c=11 v=74
2845 Par ch=12 c=11 v=75
2850 Par ch=12 c=11 v=76
2854 Par ch=12 c=11 v=77
2858 Par ch=12 c=11 v=78
2864 Par ch=12 c=11 v=79
2869 Par ch=12 c=11 v=80
2872 Par ch=12 c=11 v=81
2877 Par ch=12 c=11 v=82
2883 Par ch=12 c=11 v=83
2887 Par ch=12 c=11 v=84
2891 Par ch=12 c=11 v=85
2897 Par ch=12 c=11 v=86
2904 Par ch=12 c=11 v=87
2909 Par ch=12 c=11 v=88
2914 Par ch=12 c=11 v=89
2918 Par ch=12 c=11 v=90
2922 Par ch=12 c=11 v=91
2927 Par ch=12 c=11 v=92
2934 Par ch=12 c=11 v=93
2938 Par ch=12 c=11 v=94
2942 Par ch=12 c=11 v=95
2946 Par ch=12 c=11 v=96
2951 Par ch=12 c=11 v=97
2960 Par ch=12 c=11 v=98
2974 Par ch=12 c=11 v=99
2979 Par ch=12 c=11 v=100
2982 Par ch=12 c=11 v=101
2985 Par ch=12 c=11 v=102
2987 Par ch=12 c=11 v=103
2990 Par ch=12 c=11 v=104
2992 Par ch=12 c=11 v=105
2994 Par ch=12 c=11 v=106
2997 Par ch=12 c=11 v=107
3000 Par ch=12 c=11 v=108
3003 Par ch=12 c=11 v=109
3005 Par ch=12 c=11 v=110
3007 Par ch=12 c=11 v=111
3009 Par ch=12 c=11 v=112
3013 Par ch=12 c=11 v=113
3017 Par ch=12 c=11 v=114
3022 Par ch=12 c=11 v=115
3027 Par ch=12 c=11 v=116
3030 Par ch=12 c=11 v=117
3032 Par ch=12 c=11 v=118
3033 Par ch=12 c=11 v=119
3035 Par ch=12 c=11 v=120
3037 Par ch=12 c=11 v=121
3038 Par ch=12 c=11 v=122
3040 Par ch=12 c=11 v=123
3042 Par ch=12 c=11 v=124
3043 Par ch=12 c=11 v=125
3044 Par ch=12 c=11 v=126
3045 Par ch=12 c=11 v=127
3067 Par ch=12 c=64 v=0
3074 Meta Text "%+"
3074 Meta TrkEnd
TrkEnd
MTrk
0 Meta 0x21 00
0 Meta TrkName "Brass 2"
0 PrCh ch=13 p=62
0 Par ch=13 c=7 v=110
0 Par ch=13 c=10 v=80
0 Par ch=13 c=121 v=0
2 Par ch=13 c=0 v=0
4 Par ch=13 c=32 v=0
6 Par ch=13 c=11 v=127
8 Par ch=13 c=91 v=80
10 Par ch=13 c=93 v=120
15778 On ch=13 n=74 v=108
15779 On ch=13 n=71 v=87
15808 On ch=13 n=69 v=72
15809 On ch=13 n=73 v=85
15810 On ch=13 n=71 v=0
15811 On ch=13 n=74 v=0
15832 On ch=13 n=73 v=0
15837 On ch=13 n=69 v=0
15838 On ch=13 n=71 v=75
15838 On ch=13 n=74 v=75
15867 On ch=13 n=69 v=64
15868 On ch=13 n=73 v=93
15870 On ch=13 n=74 v=0
15870 On ch=13 n=71 v=0
15898 On ch=13 n=73 v=0
15898 On ch=13 n=66 v=62
15898 On ch=13 n=69 v=65
15899 On ch=13 n=69 v=0
15920 On ch=13 n=66 v=0
15928 On ch=13 n=64 v=65
15930 On ch=13 n=67 v=73
15935 On ch=13 n=69 v=0
15956 On ch=13 n=67 v=0
15957 On ch=13 n=66 v=104
15960 On ch=13 n=69 v=90
15963 On ch=13 n=64 v=0
15989 On ch=13 n=64 v=77
15990 On ch=13 n=67 v=63
15996 On ch=13 n=66 v=0
16018 On ch=13 n=69 v=0
16018 On ch=13 n=67 v=0
16019 On ch=13 n=66 v=83
16020 On ch=13 n=62 v=63
16030 On ch=13 n=64 v=0
16044 On ch=13 n=62 v=0
16045 On ch=13 n=66 v=0
16049 On ch=13 n=59 v=67
16049 On ch=13 n=62 v=58
16068 On ch=13 n=62 v=0
16070 On ch=13 n=59 v=0
16078 On ch=13 n=66 v=108
16079 On ch=13 n=62 v=93
16108 On ch=13 n=62 v=60
16109 On ch=13 n=66 v=0
16111 On ch=13 n=59 v=71
16113 On ch=13 n=62 v=0
16131 On ch=13 n=62 v=0
16138 On ch=13 n=61 v=74
16142 On ch=13 n=57 v=64
16146 On ch=13 n=59 v=0
16163 On ch=13 n=57 v=0
16168 On ch=13 n=61 v=0
16169 On ch=13 n=59 v=62
16171 On ch=13 n=55 v=69
16191 On ch=13 n=59 v=0
16199 On ch=13 n=57 v=86
16201 On ch=13 n=54 v=98
16203 On ch=13 n=55 v=0
16257 On ch=13 n=57 v=0
16259 On ch=13 n=55 v=75
16261 On ch=13 n=54 v=0
16262 On ch=13 n=52 v=62
16398 On ch=13 n=52 v=0
16408 On ch=13 n=55 v=0
30658 On ch=13 n=74 v=108
30659 On ch=13 n=71 v=87
30688 On ch=13 n=69 v=72
30689 On ch=13 n=73 v=85
30690 On ch=13 n=71 v=0
30691 On ch=13 n=74 v=0
30712 On ch=13 n=73 v=0
30717 On ch=13 n=69 v=0
30718 On ch=13 n=71 v=75
30718 On ch=13 n=74 v=75
30747 On ch=13 n=69 v=64
30748 On ch=13 n=73 v=93
30750 On ch=13 n=74 v=0
30750 On ch=13 n=71 v=0
30778 On ch=13 n=73 v=0
30778 On ch=13 n=66 v=62
30778 On ch=13 n=69 v=65
30779 On ch=13 n=69 v=0
30800 On ch=13 n=66 v=0
30808 On ch=13 n=64 v=65
30810 On ch=13 n=67 v=73
30815 On ch=13 n=69 v=0
30836 On ch=13 n=67 v=0
30837 On ch=13 n=66 v=104
30840 On ch=13 n=69 v=90
30843 On ch=13 n=64 v=0
30869 On ch=13 n=64 v=77
30870 On ch=13 n=67 v=63
30876 On ch=13 n=66 v=0
30898 On ch=13 n=69 v=0
30898 On ch=13 n=67 v=0
30899 On ch=13 n=66 v=83
30900 On ch=13 n=62 v=63
30910 On ch=13 n=64 v=0
30924 On ch=13 n=62 v=0
30925 On ch=13 n=66 v=0
30929 On ch=13 n=59 v=67
30929 On ch=13 n=62 v=58
30948 On ch=13 n=62 v=0
30950 On ch=13 n=59 v=0
30958 On ch=13 n=66 v=108
30959 On ch=13 n=62 v=93
30988 On ch=13 n=62 v=60
30989 On ch=13 n=66 v=0
30991 On ch=13 n=59 v=71
30993 On ch=13 n=62 v=0
31011 On ch=13 n=62 v=0
31018 On ch=13 n=61 v=74
31022 On ch=13 n=57 v=64
31026 On ch=13 n=59 v=0
31043 On ch=13 n=57 v=0
31048 On ch=13 n=61 v=0
31049 On ch=13 n=59 v=62
31051 On ch=13 n=55 v=69
31071 On ch=13 n=59 v=0
31079 On ch=13 n=57 v=86
31081 On ch=13 n=54 v=98
31083 On ch=13 n=55 v=0
31137 On ch=13 n=57 v=0
31139 On ch=13 n=55 v=75
31141 On ch=13 n=54 v=0
31142 On ch=13 n=52 v=62
31278 On ch=13 n=52 v=0
31288 On ch=13 n=55 v=0
31288 Meta TrkEnd
TrkEnd
MTrk
0 Meta 0x21 00
0 Meta TrkName "Cymbal"
0 PrCh ch=14 p=119
0 Par ch=14 c=7 v=110
0 Par ch=14 c=10 v=40
0 Meta Text "%-"
0 Par ch=14 c=121 v=0
2 Par ch=14 c=0 v=0
4 Par ch=14 c=32 v=0
6 Par ch=14 c=11 v=127
8 Par ch=14 c=91 v=100
10 Par ch=14 c=93 v=30
480 Par ch=14 c=11 v=1
480 Par ch=14 c=11 v=4
480 Par ch=14 c=11 v=6
480 Par ch=14 c=11 v=8
480 Par ch=14 c=11 v=11
480 Par ch=14 c=11 v=14
480 Par ch=14 c=11 v=16
480 Par ch=14 c=11 v=19
480 Par ch=14 c=11 v=22
480 Par ch=14 c=11 v=25
480 Par ch=14 c=11 v=28
480 Par ch=14 c=11 v=31
480 Par ch=14 c=11 v=34
480 Par ch=14 c=11 v=37
480 Par ch=14 c=11 v=40
480 Par ch=14 c=11 v=43
480 Par ch=14 c=11 v=46
480 Par ch=14 c=11 v=49
480 Par ch=14 c=11 v=52
480 Par ch=14 c=11 v=55
480 Par ch=14 c=11 v=58
480 Par ch=14 c=11 v=62
480 Par ch=14 c=11 v=65
480 Par ch=14 c=11 v=68
480 Par ch=14 c=11 v=71
480 Par ch=14 c=11 v=74
480 Par ch=14 c=11 v=77
480 Par ch=14 c=11 v=80
480 Par ch=14 c=11 v=83
480 Par ch=14 c=11 v=86
480 Par ch=14 c=11 v=89
480 Par ch=14 c=11 v=92
480 Par ch=14 c=11 v=95
480 Par ch=14 c=11 v=98
480 Par ch=14 c=11 v=101
480 Par ch=14 c=11 v=104
480 Par ch=14 c=11 v=107
480 Par ch=14 c=11 v=110
480 Par ch=14 c=11 v=113
480 Par ch=14 c=11 v=116
480 Par ch=14 c=11 v=119
480 Par ch=14 c=11 v=122
480 Par ch=14 c=11 v=125
480 Par ch=14 c=11 v=127
480 Par ch=14 c=11 v=126
480 Par ch=14 c=11 v=124
480 Par ch=14 c=11 v=122
480 Par ch=14 c=11 v=120
480 Par ch=14 c=11 v=117
480 Par ch=14 c=11 v=115
480 Par ch=14 c=11 v=112
480 Par ch=14 c=11 v=110
480 Par ch=14 c=11 v=107
480 Par ch=14 c=11 v=104
480 Par ch=14 c=11 v=102
480 Par ch=14 c=11 v=99
480 Par ch=14 c=11 v=97
480 Par ch=14 c=11 v=94
480 Par ch=14 c=11 v=91
480 Par ch=14 c=11 v=88
480 Par ch=14 c=11 v=85
480 Par ch=14 c=11 v=82
480 Par ch=14 c=11 v=79
480 Par ch=14 c=11 v=76
480 Par ch=14 c=11 v=73
480 Par ch=14 c=11 v=70
480 Par ch=14 c=11 v=67
480 Par ch=14 c=11 v=65
480 Par ch=14 c=11 v=62
480 Par ch=14 c=11 v=59
480 Par ch=14 c=11 v=56
480 Par ch=14 c=11 v=53
480 Par ch=14 c=11 v=50
480 Par ch=14 c=11 v=48
480 Par ch=14 c=11 v=45
480 Par ch=14 c=11 v=42
480 Par ch=14 c=11 v=39
480 Par ch=14 c=11 v=36
480 Par ch=14 c=11 v=34
480 Par ch=14 c=11 v=31
480 Par ch=14 c=11 v=28
480 Par ch=14 c=11 v=25
480 Par ch=14 c=11 v=22
480 Par ch=14 c=11 v=20
480 Par ch=14 c=11 v=17
480 Par ch=14 c=11 v=14
480 Par ch=14 c=11 v=12
480 Par ch=14 c=11 v=9
480 Par ch=14 c=11 v=6
480 Par ch=14 c=11 v=4
480 Par ch=14 c=11 v=1
480 Par ch=14 c=11 v=0
781 On ch=14 n=64 v=109
836 Par ch=14 c=11 v=1
839 Par ch=14 c=11 v=2
839 Par ch=14 c=11 v=3
839 Par ch=14 c=11 v=4
841 Par ch=14 c=11 v=5
842 Par ch=14 c=11 v=6
843 Par ch=14 c=11 v=7
843 Par ch=14 c=11 v=8
844 Par ch=14 c=11 v=9
845 Par ch=14 c=11 v=10
846 Par ch=14 c=11 v=11
847 Par ch=14 c=11 v=12
848 Par ch=14 c=11 v=13
850 Par ch=14 c=11 v=14
852 Par ch=14 c=11 v=15
853 Par ch=14 c=11 v=16
854 Par ch=14 c=11 v=17
856 Par ch=14 c=11 v=18
856 Par ch=14 c=11 v=19
858 Par ch=14 c=11 v=20
858 Par ch=14 c=11 v=21
860 Par ch=14 c=11 v=22
860 Par ch=14 c=11 v=23
861 Par ch=14 c=11 v=24
862 Par ch=14 c=11 v=25
862 Par ch=14 c=11 v=26
864 Par ch=14 c=11 v=27
864 Par ch=14 c=11 v=28
864 Par ch=14 c=11 v=29
866 Par ch=14 c=11 v=30
866 Par ch=14 c=11 v=31
867 Par ch=14 c=11 v=32
867 Par ch=14 c=11 v=33
869 Par ch=14 c=11 v=34
869 Par ch=14 c=11 v=35
870 Par ch=14 c=11 v=36
870 Par ch=14 c=11 v=37
870 Par ch=14 c=11 v=38
872 Par ch=14 c=11 v=39
872 Par ch=14 c=11 v=40
872 Par ch=14 c=11 v=41
874 Par ch=14 c=11 v=42
874 Par ch=14 c=11 v=43
875 Par ch=14 c=11 v=44
876 Par ch=14 c=11 v=45
876 Par ch=14 c=11 v=46
876 Par ch=14 c=11 v=47
878 Par ch=14 c=11 v=48
878 Par ch=14 c=11 v=49
878 Par ch=14 c=11 v=50
880 Par ch=14 c=11 v=51
880 Par ch=14 c=11 v=52
880 Par ch=14 c=11 v=53
882 Par ch=14 c=11 v=54
882 Par ch=14 c=11 v=55
882 Par ch=14 c=11 v=56
884 Par ch=14 c=11 v=57
884 Par ch=14 c=11 v=58
884 Par ch=14 c=11 v=59
886 Par ch=14 c=11 v=60
887 Par ch=14 c=11 v=61
887 Par ch=14 c=11 v=62
887 Par ch=14 c=11 v=63
890 Par ch=14 c=11 v=64
890 Par ch=14 c=11 v=65
892 Par ch=14 c=11 v=66
893 Par ch=14 c=11 v=67
893 Par ch=14 c=11 v=68
894 Par ch=14 c=11 v=69
895 Par ch=14 c=11 v=70
895 Par ch=14 c=11 v=71
897 Par ch=14 c=11 v=72
897 Par ch=14 c=11 v=73
898 Par ch=14 c=11 v=74
899 Par ch=14 c=11 v=75
899 Par ch=14 c=11 v=76
899 Par ch=14 c=11 v=77
901 Par ch=14 c=11 v=78
901 Par ch=14 c=11 v=79
901 Par ch=14 c=11 v=80
902 Par ch=14 c=11 v=81
902 Par ch=14 c=11 v=82
904 Par ch=14 c=11 v=83
904 Par ch=14 c=11 v=84
905 Par ch=14 c=11 v=85
905 Par ch=14 c=11 v=86
906 Par ch=14 c=11 v=87
907 Par ch=14 c=11 v=88
907 Par ch=14 c=11 v=89
908 Par ch=14 c=11 v=90
908 Par ch=14 c=11 v=91
909 Par ch=14 c=11 v=92
909 Par ch=14 c=11 v=93
910 Par ch=14 c=11 v=94
910 Par ch=14 c=11 v=95
911 Par ch=14 c=11 v=96
911 Par ch=14 c=11 v=97
912 Par ch=14 c=11 v=98
912 Par ch=14 c=11 v=99
913 Par ch=14 c=11 v=100
913 Par ch=14 c=11 v=101
913 Par ch=14 c=11 v=102
913 Par ch=14 c=11 v=103
913 Par ch=14 c=11 v=104
915 Par ch=14 c=11 v=105
915 Par ch=14 c=11 v=106
916 Par ch=14 c=11 v=107
916 Par ch=14 c=11 v=108
916 Par ch=14 c=11 v=109
917 Par ch=14 c=11 v=110
917 Par ch=14 c=11 v=111
917 Par ch=14 c=11 v=112
918 Par ch=14 c=11 v=113
918 Par ch=14 c=11 v=114
918 Par ch=14 c=11 v=115
918 Par ch=14 c=11 v=116
919 Par ch=14 c=11 v=117
919 Par ch=14 c=11 v=118
919 Par ch=14 c=11 v=10
919 Par ch=14 c=11 v=119
919 Par ch=14 c=11 v=120
919 Par ch=14 c=11 v=121
919 Par ch=14 c=11 v=11
919 Par ch=14 c=11 v=122
919 Par ch=14 c=11 v=123
919 Par ch=14 c=11 v=12
919 Par ch=14 c=11 v=124
919 Par ch=14 c=11 v=13
919 Par ch=14 c=11 v=125
919 Par ch=14 c=11 v=126
919 Par ch=14 c=11 v=14
919 Par ch=14 c=11 v=127
919 Par ch=14 c=11 v=15
919 Par ch=14 c=11 v=16
919 Par ch=14 c=11 v=17
919 Par ch=14 c=11 v=18
919 Par ch=14 c=11 v=19
922 Par ch=14 c=11 v=20
923 Par ch=14 c=11 v=21
932 On ch=14 n=64 v=0
2426 Par ch=14 c=11 v=1
2426 Par ch=14 c=11 v=3
2426 Par ch=14 c=11 v=5
2426 Par ch=14 c=11 v=7
2427 Par ch=14 c=11 v=9
2427 Par ch=14 c=11 v=11
2427 Par ch=14 c=11 v=14
2427 Par ch=14 c=11 v=16
2428 Par ch=14 c=11 v=18
2428 Par ch=14 c=11 v=21
2428 Par ch=14 c=11 v=23
2428 Par ch=14 c=11 v=25
2428 Par ch=14 c=11 v=27
2429 Par ch=14 c=11 v=30
2429 Par ch=14 c=11 v=32
2429 Par ch=14 c=11 v=34
2429 Par ch=14 c=11 v=36
2430 Par ch=14 c=11 v=39
2430 Par ch=14 c=11 v=41
2430 Par ch=14 c=11 v=43
2430 Par ch=14 c=11 v=45
2430 Par ch=14 c=11 v=47
2431 Par ch=14 c=11 v=49
2431 Par ch=14 c=11 v=51
2431 Par ch=14 c=11 v=53
2431 Par ch=14 c=11 v=55
2432 Par ch=14 c=11 v=57
2432 Par ch=14 c=11 v=59
2432 Par ch=14 c=11 v=61
2432 Par ch=14 c=11 v=63
2432 Par ch=14 c=11 v=65
2433 Par ch=14 c=11 v=67
2433 Par ch=14 c=11 v=69
2433 Par ch=14 c=11 v=71
2433 Par ch=14 c=11 v=73
2434 Par ch=14 c=11 v=75
2434 Par ch=14 c=11 v=77
2434 Par ch=14 c=11 v=79
2434 Par ch=14 c=11 v=81
2434 Par ch=14 c=11 v=84
2435 Par ch=14 c=11 v=86
2435 Par ch=14 c=11 v=88
2435 Par ch=14 c=11 v=90
2435 Par ch=14 c=11 v=93
2436 Par ch=14 c=11 v=95
2436 Par ch=14 c=11 v=97
2436 Par ch=14 c=11 v=99
2436 Par ch=14 c=11 v=102
2436 Par ch=14 c=11 v=104
2437 Par ch=14 c=11 v=106
2437 Par ch=14 c=11 v=108
2437 Par ch=14 c=11 v=110
2437 Par ch=14 c=11 v=112
2438 Par ch=14 c=11 v=115
2438 Par ch=14 c=11 v=117
2438 Par ch=14 c=11 v=119
2438 Par ch=14 c=11 v=121
2438 Par ch=14 c=11 v=123
2439 Par ch=14 c=11 v=126
2439 Par ch=14 c=11 v=127
2454 Par ch=14 c=11 v=126
2454 Par ch=14 c=11 v=124
2454 Par ch=14 c=11 v=121
2455 Par ch=14 c=11 v=118
2455 Par ch=14 c=11 v=115
2455 Par ch=14 c=11 v=112
2455 Par ch=14 c=11 v=109
2455 Par ch=14 c=11 v=106
2455 Par ch=14 c=11 v=103
2455 Par ch=14 c=11 v=100
2455 Par ch=14 c=11 v=96
2455 Par ch=14 c=11 v=92
2455 Par ch=14 c=11 v=89
2455 Par ch=14 c=11 v=85
2455 Par ch=14 c=11 v=82
2455 Par ch=14 c=11 v=78
2455 Par ch=14 c=11 v=75
2455 Par ch=14 c=11 v=71
2455 Par ch=14 c=11 v=68
2455 Par ch=14 c=11 v=65
2455 Par ch=14 c=11 v=61
2455 Par ch=14 c=11 v=58
2455 Par ch=14 c=11 v=54
2455 Par ch=14 c=11 v=51
2455 Par ch=14 c=11 v=47
2455 Par ch=14 c=11 v=43
2455 Par ch=14 c=11 v=40
2455 Par ch=14 c=11 v=36
2455 Par ch=14 c=11 v=33
2455 Par ch=14 c=11 v=29
2455 Par ch=14 c=11 v=26
2455 Par ch=14 c=11 v=22
2455 Par ch=14 c=11 v=18
2455 Par ch=14 c=11 v=15
2455 Par ch=14 c=11 v=11
2455 Par ch=14 c=11 v=8
2455 Par ch=14 c=11 v=5
2455 Par ch=14 c=11 v=1
2455 Par ch=14 c=11 v=0
2927 On ch=14 n=64 v=94
2970 Par ch=14 c=11 v=1
2971 Par ch=14 c=11 v=2
2971 Par ch=14 c=11 v=3
2973 Par ch=14 c=11 v=4
2974 Par ch=14 c=11 v=5
2977 Par ch=14 c=11 v=6
2980 Par ch=14 c=11 v=7
2981 Par ch=14 c=11 v=8
2983 Par ch=14 c=11 v=9
2984 Par ch=14 c=11 v=10
2985 Par ch=14 c=11 v=11
2987 Par ch=14 c=11 v=12
2988 Par ch=14 c=11 v=13
2989 Par ch=14 c=11 v=14
2990 Par ch=14 c=11 v=15
2990 Par ch=14 c=11 v=16
2992 Par ch=14 c=11 v=17
2993 Par ch=14 c=11 v=18
2993 Par ch=14 c=11 v=19
2994 Par ch=14 c=11 v=20
2995 Par ch=14 c=11 v=21
2996 Par ch=14 c=11 v=22
2997 Par ch=14 c=11 v=23
2998 Par ch=14 c=11 v=24
2999 Par ch=14 c=11 v=25
2999 Par ch=14 c=11 v=26
3000 Par ch=14 c=11 v=27
3001 Par ch=14 c=11 v=28
3002 Par ch=14 c=11 v=29
3003 Par ch=14 c=11 v=30
3004 Par ch=14 c=11 v=31
3005 Par ch=14 c=11 v=32
3005 Par ch=14 c=11 v=33
3007 Par ch=14 c=11 v=34
3008 Par ch=14 c=11 v=35
3009 Par ch=14 c=11 v=36
3010 Par ch=14 c=11 v=37
3011 Par ch=14 c=11 v=38
3013 Par ch=14 c=11 v=39
3013 Par ch=14 c=11 v=40
3015 Par ch=14 c=11 v=41
3016 Par ch=14 c=11 v=42
3016 Par ch=14 c=11 v=43
3017 Par ch=14 c=11 v=44
3018 Par ch=14 c=11 v=45
3018 Par ch=14 c=11 v=46
3019 Par ch=14 c=11 v=47
3020 Par ch=14 c=11 v=48
3021 Par ch=14 c=11 v=49
3021 Par ch=14 c=11 v=50
3022 Par ch=14 c=11 v=51
3022 Par ch=14 c=11 v=52
3023 Par ch=14 c=11 v=53
3023 Par ch=14 c=11 v=54
3023 Par ch=14 c=11 v=55
3024 Par ch=14 c=11 v=56
3024 Par ch=14 c=11 v=57
3024 Par ch=14 c=11 v=58
3024 Par ch=14 c=11 v=59
3026 Par ch=14 c=11 v=60
3026 Par ch=14 c=11 v=61
3026 Par ch=14 c=11 v=62
3027 Par ch=14 c=11 v=63
3027 Par ch=14 c=11 v=64
3027 Par ch=14 c=11 v=65
3027 Par ch=14 c=11 v=66
3027 Par ch=14 c=11 v=67
3027 Par ch=14 c=11 v=68
3028 Par ch=14 c=11 v=69
3029 Par ch=14 c=11 v=70
3030 Par ch=14 c=11 v=71
3030 Par ch=14 c=11 v=72
3030 Par ch=14 c=11 v=73
3030 Par ch=14 c=11 v=74
3030 Par ch=14 c=11 v=75
3032 Par ch=14 c=11 v=76
3032 Par ch=14 c=11 v=77
3032 Par ch=14 c=11 v=78
3032 Par ch=14 c=11 v=79
3034 Par ch=14 c=11 v=80
3034 Par ch=14 c=11 v=81
3035 Par ch=14 c=11 v=82
3035 Par ch=14 c=11 v=83
3037 Par ch=14 c=11 v=84
3037 Par ch=14 c=11 v=85
3037 Par ch=14 c=11 v=86
3039 Par ch=14 c=11 v=87
3040 Par ch=14 c=11 v=88
3041 Par ch=14 c=11 v=89
3041 Par ch=14 c=11 v=90
3042 Par ch=14 c=11 v=91
3043 Par ch=14 c=11 v=92
3044 Par ch=14 c=11 v=93
3045 Par ch=14 c=11 v=94
3045 Par ch=14 c=11 v=95
3047 Par ch=14 c=11 v=96
3047 Par ch=14 c=11 v=97
3047 Par ch=14 c=11 v=98
3048 Par ch=14 c=11 v=99
3048 Par ch=14 c=11 v=100
3048 Par ch=14 c=11 v=101
3050 Par ch=14 c=11 v=102
3050 Par ch=14 c=11 v=103
3050 Par ch=14 c=11 v=104
3050 Par ch=14 c=11 v=105
3051 Par ch=14 c=11 v=106
3051 Par ch=14 c=11 v=107
3051 Par ch=14 c=11 v=108
3052 Par ch=14 c=11 v=109
3052 Par ch=14 c=11 v=110
3052 Par ch=14 c=11 v=111
3052 Par ch=14 c=11 v=112
3053 Par ch=14 c=11 v=113
3053 Par ch=14 c=11 v=114
3053 Par ch=14 c=11 v=115
3053 Par ch=14 c=11 v=116
3054 Par ch=14 c=11 v=117
3054 Par ch=14 c=11 v=118
3054 Par ch=14 c=11 v=119
3054 Par ch=14 c=11 v=120
3054 Par ch=14 c=11 v=121
3054 Par ch=14 c=11 v=122
3054 Par ch=14 c=11 v=123
3054 Par ch=14 c=11 v=124
3054 Par ch=14 c=11 v=125
3054 Par ch=14 c=11 v=126
3054 Par ch=14 c=11 v=127
3063 Meta Text "%+"
3127 On ch=14 n=64 v=0
3127 Meta TrkEnd
TrkEnd
MTrk
0 Meta 0x21 00
0 Meta TrkName "Flute"
0 PrCh ch=15 p=75
0 Par ch=15 c=7 v=105
0 Par ch=15 c=10 v=64
0 Par ch=15 c=121 v=0
2 Par ch=15 c=0 v=0
4 Par ch=15 c=32 v=0
6 Par ch=15 c=11 v=127
8 Par ch=15 c=91 v=100
10 Par ch=15 c=93 v=80
72000 On ch=15 n=71 v=50
72000 On ch=15 n=67 v=51
72000 On ch=15 n=62 v=46
72240 On ch=15 n=67 v=0
72240 On ch=15 n=66 v=57
72480 On ch=15 n=64 v=59
72484 On ch=15 n=66 v=0
72687 On ch=15 n=64 v=0
72717 On ch=15 n=65 v=59
72717 On ch=15 n=70 v=58
72718 On ch=15 n=71 v=0
73192 On ch=15 n=70 v=0
73192 On ch=15 n=65 v=0
73199 On ch=15 n=62 v=0
73199 On ch=15 n=67 v=61
73199 On ch=15 n=71 v=68
73199 On ch=15 n=62 v=59
73292 On ch=15 n=71 v=0
73306 On ch=15 n=62 v=0
73317 On ch=15 n=67 v=0
73317 On ch=15 n=65 v=63
73317 On ch=15 n=69 v=58
73317 On ch=15 n=60 v=62
73416 On ch=15 n=60 v=0
73440 On ch=15 n=62 v=59
73443 On ch=15 n=58 v=43
73563 On ch=15 n=58 v=0
73620 On ch=15 n=58 v=59
73620 On ch=15 n=67 v=72
73629 On ch=15 n=65 v=0
73642 On ch=15 n=69 v=0
74580 On ch=15 n=67 v=0
74610 On ch=15 n=62 v=0
74610 On ch=15 n=58 v=0
74610 Meta TrkEnd
TrkEnd
MTrk
0 Meta 0x21 00
0 Meta TrkName "Percussion"
0 PrCh ch=10 p=0
0 Par ch=10 c=7 v=110
0 Par ch=10 c=10 v=64
47031 On ch=10 n=33 v=114
47037 On ch=10 n=33 v=0
47050 On ch=10 n=33 v=114
47056 On ch=10 n=33 v=0
47066 On ch=10 n=33 v=86
47072 On ch=10 n=33 v=0
47085 On ch=10 n=33 v=100
47091 On ch=10 n=33 v=0
47104 On ch=10 n=33 v=68
47110 On ch=10 n=33 v=0
47127 On ch=10 n=33 v=59
47133 On ch=10 n=33 v=0
47148 On ch=10 n=33 v=95
47154 On ch=10 n=33 v=0
47158 On ch=10 n=65 v=87
47164 On ch=10 n=65 v=0
47165 On ch=10 n=33 v=111
47171 On ch=10 n=33 v=0
47179 On ch=10 n=65 v=79
47185 On ch=10 n=65 v=0
47188 On ch=10 n=33 v=117
47192 On ch=10 n=65 v=83
47194 On ch=10 n=33 v=0
47198 On ch=10 n=65 v=0
47204 On ch=10 n=33 v=121
47210 On ch=10 n=33 v=0
47211 On ch=10 n=65 v=87
47217 On ch=10 n=65 v=0
47220 On ch=10 n=33 v=121
47226 On ch=10 n=33 v=0
47227 On ch=10 n=65 v=92
47233 On ch=10 n=65 v=0
47239 On ch=10 n=33 v=111
47245 On ch=10 n=33 v=0
47248 On ch=10 n=65 v=92
47254 On ch=10 n=65 v=0
47257 On ch=10 n=33 v=104
47263 On ch=10 n=33 v=0
47267 On ch=10 n=65 v=89
47273 On ch=10 n=65 v=0
47276 On ch=10 n=33 v=98
47282 On ch=10 n=33 v=0
47283 On ch=10 n=65 v=95
47289 On ch=10 n=65 v=0
47295 On ch=10 n=33 v=112
47301 On ch=10 n=33 v=0
47304 On ch=10 n=65 v=86
47310 On ch=10 n=65 v=0
47315 On ch=10 n=33 v=120
47321 On ch=10 n=33 v=0
47322 On ch=10 n=65 v=89
47328 On ch=10 n=65 v=0
47332 On ch=10 n=33 v=120
47338 On ch=10 n=33 v=0
47341 On ch=10 n=65 v=87
47347 On ch=10 n=65 v=0
47353 On ch=10 n=33 v=122
47359 On ch=10 n=33 v=0
47359 On ch=10 n=65 v=89
47365 On ch=10 n=65 v=0
47366 On ch=10 n=33 v=121
47372 On ch=10 n=33 v=0
47378 On ch=10 n=65 v=89
47384 On ch=10 n=65 v=0
47387 On ch=10 n=33 v=121
47393 On ch=10 n=33 v=0
47397 On ch=10 n=65 v=95
47403 On ch=10 n=65 v=0
47406 On ch=10 n=33 v=117
47412 On ch=10 n=33 v=0
47415 On ch=10 n=65 v=83
47421 On ch=10 n=65 v=0
47424 On ch=10 n=33 v=117
47430 On ch=10 n=33 v=0
47431 On ch=10 n=65 v=95
47437 On ch=10 n=65 v=0
47441 On ch=10 n=33 v=117
47447 On ch=10 n=33 v=0
47452 On ch=10 n=65 v=95
47458 On ch=10 n=65 v=0
47459 On ch=10 n=33 v=111
47465 On ch=10 n=33 v=0
47469 On ch=10 n=65 v=89
47475 On ch=10 n=65 v=0
47478 On ch=10 n=33 v=112
47484 On ch=10 n=33 v=0
47489 On ch=10 n=65 v=95
47494 On ch=10 n=33 v=114
47495 On ch=10 n=65 v=0
47500 On ch=10 n=33 v=0
47506 On ch=10 n=65 v=95
47512 On ch=10 n=65 v=0
47513 On ch=10 n=33 v=117
47519 On ch=10 n=33 v=0
47520 On ch=10 n=65 v=97
47520 On ch=10 n=63 v=120
47520 On ch=10 n=68 v=108
47521 On ch=10 n=69 v=122
47521 On ch=10 n=56 v=105
47523 On ch=10 n=33 v=121
47526 On ch=10 n=68 v=0
47526 On ch=10 n=65 v=0
47526 On ch=10 n=63 v=0
47527 On ch=10 n=69 v=0
47527 On ch=10 n=56 v=0
47529 On ch=10 n=33 v=0
47548 On ch=10 n=65 v=70
47549 On ch=10 n=69 v=86
47551 On ch=10 n=62 v=79
47554 On ch=10 n=65 v=0
47555 On ch=10 n=69 v=0
47557 On ch=10 n=62 v=0
47579 On ch=10 n=69 v=100
47579 On ch=10 n=63 v=95
47585 On ch=10 n=63 v=0
47585 On ch=10 n=69 v=0
47603 On ch=10 n=68 v=100
47607 On ch=10 n=65 v=89
47609 On ch=10 n=68 v=0
47611 On ch=10 n=69 v=112
47611 On ch=10 n=62 v=90
47613 On ch=10 n=65 v=0
47617 On ch=10 n=62 v=0
47617 On ch=10 n=69 v=0
47640 On ch=10 n=65 v=97
47641 On ch=10 n=33 v=87
47642 On ch=10 n=69 v=122
47642 On ch=10 n=64 v=122
47643 On ch=10 n=56 v=102
47646 On ch=10 n=65 v=0
47647 On ch=10 n=33 v=0
47648 On ch=10 n=64 v=0
47648 On ch=10 n=69 v=0
47649 On ch=10 n=56 v=0
47669 On ch=10 n=69 v=95
47671 On ch=10 n=62 v=85
47675 On ch=10 n=69 v=0
47677 On ch=10 n=62 v=0
47686 On ch=10 n=68 v=79
47692 On ch=10 n=68 v=0
47700 On ch=10 n=65 v=65
47701 On ch=10 n=69 v=112
47702 On ch=10 n=64 v=73
47706 On ch=10 n=65 v=0
47707 On ch=10 n=69 v=0
47708 On ch=10 n=64 v=0
47729 On ch=10 n=66 v=89
47731 On ch=10 n=69 v=95
47733 On ch=10 n=62 v=95
47735 On ch=10 n=66 v=0
47737 On ch=10 n=69 v=0
47739 On ch=10 n=62 v=0
47760 On ch=10 n=69 v=122
47760 On ch=10 n=65 v=95
47763 On ch=10 n=68 v=108
47764 On ch=10 n=56 v=102
47764 On ch=10 n=63 v=122
47764 On ch=10 n=33 v=100
47766 On ch=10 n=65 v=0
47766 On ch=10 n=69 v=0
47769 On ch=10 n=68 v=0
47770 On ch=10 n=56 v=0
47770 On ch=10 n=63 v=0
47770 On ch=10 n=33 v=0
47789 On ch=10 n=69 v=79
47793 On ch=10 n=62 v=98
47795 On ch=10 n=69 v=0
47799 On ch=10 n=62 v=0
47821 On ch=10 n=69 v=108
47822 On ch=10 n=65 v=70
47822 On ch=10 n=33 v=65
47823 On ch=10 n=63 v=117
47827 On ch=10 n=69 v=0
47828 On ch=10 n=65 v=0
47828 On ch=10 n=33 v=0
47829 On ch=10 n=63 v=0
47843 On ch=10 n=68 v=79
47849 On ch=10 n=68 v=0
47852 On ch=10 n=69 v=83
47852 On ch=10 n=33 v=112
47853 On ch=10 n=65 v=54
47853 On ch=10 n=62 v=117
47858 On ch=10 n=33 v=0
47858 On ch=10 n=69 v=0
47859 On ch=10 n=65 v=0
47859 On ch=10 n=62 v=0
47881 On ch=10 n=69 v=123
47881 On ch=10 n=66 v=62
47882 On ch=10 n=56 v=96
47882 On ch=10 n=33 v=122
47884 On ch=10 n=64 v=122
47887 On ch=10 n=66 v=0
47887 On ch=10 n=69 v=0
47888 On ch=10 n=33 v=0
47888 On ch=10 n=56 v=0
47890 On ch=10 n=64 v=0
47911 On ch=10 n=69 v=90
47913 On ch=10 n=63 v=108
47917 On ch=10 n=69 v=0
47919 On ch=10 n=63 v=0
47926 On ch=10 n=68 v=86
47932 On ch=10 n=68 v=0
47939 On ch=10 n=66 v=96
47941 On ch=10 n=69 v=100
47943 On ch=10 n=64 v=98
47943 On ch=10 n=62 v=81
47945 On ch=10 n=66 v=0
47947 On ch=10 n=69 v=0
47949 On ch=10 n=64 v=0
47949 On ch=10 n=62 v=0
47969 On ch=10 n=69 v=95
47970 On ch=10 n=65 v=87
47972 On ch=10 n=63 v=122
47975 On ch=10 n=69 v=0
47976 On ch=10 n=65 v=0
47978 On ch=10 n=63 v=0
47999 On ch=10 n=69 v=122
48001 On ch=10 n=56 v=105
48003 On ch=10 n=65 v=70
48003 On ch=10 n=64 v=117
48005 On ch=10 n=69 v=0
48005 On ch=10 n=68 v=98
48007 On ch=10 n=56 v=0
48009 On ch=10 n=64 v=0
48009 On ch=10 n=65 v=0
48011 On ch=10 n=68 v=0
48028 On ch=10 n=69 v=79
48031 On ch=10 n=66 v=89
48032 On ch=10 n=63 v=112
48034 On ch=10 n=69 v=0
48037 On ch=10 n=66 v=0
48038 On ch=10 n=63 v=0
48059 On ch=10 n=33 v=69
48061 On ch=10 n=69 v=108
48061 On ch=10 n=65 v=79
48065 On ch=10 n=33 v=0
48067 On ch=10 n=65 v=0
48067 On ch=10 n=69 v=0
48084 On ch=10 n=68 v=85
48090 On ch=10 n=68 v=0
48090 On ch=10 n=33 v=112
48091 On ch=10 n=69 v=87
48093 On ch=10 n=66 v=62
48093 On ch=10 n=62 v=77
48096 On ch=10 n=33 v=0
48097 On ch=10 n=69 v=0
48099 On ch=10 n=66 v=0
48099 On ch=10 n=62 v=0
48119 On ch=10 n=33 v=122
48121 On ch=10 n=69 v=122
48121 On ch=10 n=56 v=102
48122 On ch=10 n=65 v=92
48123 On ch=10 n=63 v=122
48125 On ch=10 n=33 v=0
48127 On ch=10 n=69 v=0
48127 On ch=10 n=56 v=0
48128 On ch=10 n=65 v=0
48129 On ch=10 n=63 v=0
48151 On ch=10 n=69 v=76
48152 On ch=10 n=66 v=83
48157 On ch=10 n=69 v=0
48158 On ch=10 n=66 v=0
48180 On ch=10 n=68 v=87
48182 On ch=10 n=69 v=108
48182 On ch=10 n=65 v=62
48182 On ch=10 n=63 v=121
48186 On ch=10 n=68 v=0
48188 On ch=10 n=69 v=0
48188 On ch=10 n=65 v=0
48188 On ch=10 n=63 v=0
48211 On ch=10 n=69 v=98
48211 On ch=10 n=65 v=95
48212 On ch=10 n=62 v=121
48217 On ch=10 n=65 v=0
48217 On ch=10 n=69 v=0
48218 On ch=10 n=62 v=0
48239 On ch=10 n=33 v=77
48241 On ch=10 n=56 v=105
48242 On ch=10 n=69 v=122
48242 On ch=10 n=65 v=95
48243 On ch=10 n=64 v=117
48243 On ch=10 n=68 v=108
48245 On ch=10 n=33 v=0
48247 On ch=10 n=56 v=0
48248 On ch=10 n=65 v=0
48248 On ch=10 n=69 v=0
48249 On ch=10 n=68 v=0
48249 On ch=10 n=64 v=0
48271 On ch=10 n=69 v=85
48271 On ch=10 n=62 v=112
48272 On ch=10 n=65 v=83
48277 On ch=10 n=62 v=0
48277 On ch=10 n=69 v=0
48278 On ch=10 n=65 v=0
48297 On ch=10 n=33 v=86
48301 On ch=10 n=65 v=83
48301 On ch=10 n=64 v=114
48302 On ch=10 n=69 v=98
48303 On ch=10 n=33 v=0
48307 On ch=10 n=65 v=0
48307 On ch=10 n=64 v=0
48308 On ch=10 n=69 v=0
48322 On ch=10 n=68 v=74
48328 On ch=10 n=68 v=0
48328 On ch=10 n=33 v=112
48331 On ch=10 n=69 v=85
48331 On ch=10 n=62 v=120
48333 On ch=10 n=65 v=95
48334 On ch=10 n=33 v=0
48337 On ch=10 n=69 v=0
48337 On ch=10 n=62 v=0
48339 On ch=10 n=65 v=0
48359 On ch=10 n=33 v=121
48360 On ch=10 n=56 v=105
48361 On ch=10 n=69 v=123
48361 On ch=10 n=63 v=122
48364 On ch=10 n=65 v=98
48365 On ch=10 n=33 v=0
48366 On ch=10 n=56 v=0
48367 On ch=10 n=63 v=0
48367 On ch=10 n=69 v=0
48370 On ch=10 n=65 v=0
48389 On ch=10 n=33 v=98
48391 On ch=10 n=69 v=86
48391 On ch=10 n=65 v=89
48391 On ch=10 n=62 v=104
48395 On ch=10 n=33 v=0
48397 On ch=10 n=69 v=0
48397 On ch=10 n=65 v=0
48397 On ch=10 n=62 v=0
48403 On ch=10 n=68 v=87
48409 On ch=10 n=68 v=0
48421 On ch=10 n=69 v=104
48421 On ch=10 n=64 v=117
48421 On ch=10 n=33 v=117
48422 On ch=10 n=65 v=86
48423 On ch=10 n=62 v=108
48427 On ch=10 n=33 v=0
48427 On ch=10 n=69 v=0
48427 On ch=10 n=64 v=0
48428 On ch=10 n=65 v=0
48429 On ch=10 n=62 v=0
48452 On ch=10 n=69 v=104
48453 On ch=10 n=65 v=95
48453 On ch=10 n=63 v=100
48458 On ch=10 n=69 v=0
48459 On ch=10 n=63 v=0
48459 On ch=10 n=65 v=0
48478 On ch=10 n=68 v=108
48481 On ch=10 n=69 v=122
48481 On ch=10 n=56 v=105
48481 On ch=10 n=66 v=97
48481 On ch=10 n=64 v=108
48481 On ch=10 n=62 v=98
48484 On ch=10 n=68 v=0
48487 On ch=10 n=56 v=0
48487 On ch=10 n=66 v=0
48487 On ch=10 n=69 v=0
48487 On ch=10 n=62 v=0
48487 On ch=10 n=64 v=0
48511 On ch=10 n=69 v=87
48512 On ch=10 n=65 v=95
48512 On ch=10 n=63 v=117
48517 On ch=10 n=69 v=0
48518 On ch=10 n=63 v=0
48518 On ch=10 n=65 v=0
48541 On ch=10 n=69 v=95
48541 On ch=10 n=64 v=117
48542 On ch=10 n=66 v=95
48543 On ch=10 n=33 v=100
48547 On ch=10 n=64 v=0
48547 On ch=10 n=69 v=0
48548 On ch=10 n=66 v=0
48549 On ch=10 n=33 v=0
48559 On ch=10 n=68 v=72
48565 On ch=10 n=68 v=0
48571 On ch=10 n=66 v=95
48571 On ch=10 n=63 v=122
48572 On ch=10 n=69 v=100
48574 On ch=10 n=33 v=120
48577 On ch=10 n=63 v=0
48577 On ch=10 n=66 v=0
48578 On ch=10 n=69 v=0
48580 On ch=10 n=33 v=0
48601 On ch=10 n=56 v=105
48602 On ch=10 n=69 v=123
48602 On ch=10 n=65 v=95
48603 On ch=10 n=62 v=121
48607 On ch=10 n=56 v=0
48608 On ch=10 n=69 v=0
48608 On ch=10 n=65 v=0
48609 On ch=10 n=62 v=0
48630 On ch=10 n=69 v=93
48633 On ch=10 n=66 v=86
48636 On ch=10 n=69 v=0
48639 On ch=10 n=66 v=0
48641 On ch=10 n=68 v=95
48647 On ch=10 n=68 v=0
48655 On ch=10 n=62 v=74
48661 On ch=10 n=62 v=0
48662 On ch=10 n=69 v=98
48662 On ch=10 n=63 v=100
48668 On ch=10 n=63 v=0
48668 On ch=10 n=69 v=0
48690 On ch=10 n=66 v=95
48692 On ch=10 n=69 v=108
48692 On ch=10 n=62 v=111
48696 On ch=10 n=66 v=0
48698 On ch=10 n=62 v=0
48698 On ch=10 n=69 v=0
48719 On ch=10 n=68 v=98
48721 On ch=10 n=56 v=105
48721 On ch=10 n=65 v=95
48722 On ch=10 n=69 v=124
48722 On ch=10 n=33 v=68
48723 On ch=10 n=63 v=123
48725 On ch=10 n=68 v=0
48727 On ch=10 n=56 v=0
48727 On ch=10 n=65 v=0
48728 On ch=10 n=69 v=0
48728 On ch=10 n=33 v=0
48729 On ch=10 n=63 v=0
48751 On ch=10 n=69 v=86
48751 On ch=10 n=62 v=111
48752 On ch=10 n=65 v=87
48757 On ch=10 n=62 v=0
48757 On ch=10 n=69 v=0
48758 On ch=10 n=65 v=0
48776 On ch=10 n=33 v=104
48781 On ch=10 n=65 v=52
48781 On ch=10 n=64 v=117
48782 On ch=10 n=33 v=0
48782 On ch=10 n=69 v=87
48784 On ch=10 n=33 v=111
48787 On ch=10 n=64 v=0
48787 On ch=10 n=65 v=0
48788 On ch=10 n=69 v=0
48790 On ch=10 n=33 v=0
48797 On ch=10 n=68 v=77
48803 On ch=10 n=68 v=0
48811 On ch=10 n=69 v=112
48811 On ch=10 n=65 v=92
48812 On ch=10 n=63 v=122
48817 On ch=10 n=65 v=0
48817 On ch=10 n=69 v=0
48818 On ch=10 n=63 v=0
48838 On ch=10 n=33 v=122
48840 On ch=10 n=56 v=105
48841 On ch=10 n=69 v=123
48841 On ch=10 n=66 v=97
48842 On ch=10 n=64 v=122
48844 On ch=10 n=33 v=0
48846 On ch=10 n=56 v=0
48847 On ch=10 n=66 v=0
48847 On ch=10 n=69 v=0
48848 On ch=10 n=64 v=0
48871 On ch=10 n=69 v=75
48872 On ch=10 n=66 v=95
48872 On ch=10 n=63 v=114
48877 On ch=10 n=69 v=0
48878 On ch=10 n=63 v=0
48878 On ch=10 n=66 v=0
48881 On ch=10 n=68 v=87
48887 On ch=10 n=68 v=0
48901 On ch=10 n=64 v=120
48902 On ch=10 n=69 v=95
48907 On ch=10 n=64 v=0
48908 On ch=10 n=69 v=0
48931 On ch=10 n=69 v=104
48931 On ch=10 n=66 v=79
48933 On ch=10 n=63 v=117
48937 On ch=10 n=66 v=0
48937 On ch=10 n=69 v=0
48939 On ch=10 n=63 v=0
48957 On ch=10 n=68 v=100
48957 On ch=10 n=33 v=60
48960 On ch=10 n=69 v=124
48960 On ch=10 n=56 v=107
48960 On ch=10 n=65 v=96
48960 On ch=10 n=62 v=120
48963 On ch=10 n=33 v=0
48963 On ch=10 n=68 v=0
48966 On ch=10 n=65 v=0
48966 On ch=10 n=56 v=0
48966 On ch=10 n=62 v=0
48966 On ch=10 n=69 v=0
48988 On ch=10 n=69 v=93
48991 On ch=10 n=66 v=89
48994 On ch=10 n=69 v=0
48997 On ch=10 n=66 v=0
49018 On ch=10 n=69 v=100
49018 On ch=10 n=68 v=95
49019 On ch=10 n=65 v=89
49021 On ch=10 n=63 v=120
49024 On ch=10 n=68 v=0
49024 On ch=10 n=69 v=0
49025 On ch=10 n=65 v=0
49025 On ch=10 n=33 v=95
49027 On ch=10 n=63 v=0
49031 On ch=10 n=33 v=0
49047 On ch=10 n=69 v=104
49048 On ch=10 n=62 v=117
49051 On ch=10 n=66 v=89
49053 On ch=10 n=69 v=0
49054 On ch=10 n=62 v=0
49057 On ch=10 n=66 v=0
49077 On ch=10 n=33 v=122
49079 On ch=10 n=69 v=124
49079 On ch=10 n=56 v=105
49079 On ch=10 n=63 v=124
49081 On ch=10 n=65 v=70
49083 On ch=10 n=33 v=0
49085 On ch=10 n=63 v=0
49085 On ch=10 n=69 v=0
49085 On ch=10 n=56 v=0
49087 On ch=10 n=65 v=0
49107 On ch=10 n=69 v=100
49109 On ch=10 n=65 v=92
49109 On ch=10 n=62 v=76
49113 On ch=10 n=69 v=0
49115 On ch=10 n=62 v=0
49115 On ch=10 n=65 v=0
49120 On ch=10 n=68 v=60
49126 On ch=10 n=68 v=0
49138 On ch=10 n=69 v=98
49138 On ch=10 n=66 v=99
49138 On ch=10 n=63 v=112
49144 On ch=10 n=63 v=0
49144 On ch=10 n=66 v=0
49144 On ch=10 n=69 v=0
49167 On ch=10 n=65 v=89
49168 On ch=10 n=69 v=104
49169 On ch=10 n=62 v=122
49173 On ch=10 n=65 v=0
49174 On ch=10 n=69 v=0
49175 On ch=10 n=62 v=0
49197 On ch=10 n=66 v=98
49198 On ch=10 n=69 v=123
49198 On ch=10 n=64 v=122
49199 On ch=10 n=56 v=99
49200 On ch=10 n=68 v=104
49203 On ch=10 n=66 v=0
49204 On ch=10 n=69 v=0
49204 On ch=10 n=64 v=0
49205 On ch=10 n=56 v=0
49206 On ch=10 n=68 v=0
49227 On ch=10 n=69 v=108
49227 On ch=10 n=65 v=92
49227 On ch=10 n=63 v=122
49233 On ch=10 n=63 v=0
49233 On ch=10 n=65 v=0
49233 On ch=10 n=69 v=0
49258 On ch=10 n=64 v=117
49258 On ch=10 n=33 v=79
49259 On ch=10 n=69 v=112
49259 On ch=10 n=65 v=92
49264 On ch=10 n=33 v=0
49264 On ch=10 n=64 v=0
49265 On ch=10 n=69 v=0
49265 On ch=10 n=65 v=0
49287 On ch=10 n=63 v=122
49288 On ch=10 n=65 v=95
49288 On ch=10 n=33 v=117
49289 On ch=10 n=69 v=112
49293 On ch=10 n=63 v=0
49294 On ch=10 n=65 v=0
49294 On ch=10 n=33 v=0
49295 On ch=10 n=69 v=0
49318 On ch=10 n=62 v=122
49319 On ch=10 n=69 v=124
49319 On ch=10 n=56 v=107
49319 On ch=10 n=65 v=97
49319 On ch=10 n=33 v=122
49320 On ch=10 n=68 v=95
49324 On ch=10 n=62 v=0
49325 On ch=10 n=33 v=0
49325 On ch=10 n=65 v=0
49325 On ch=10 n=69 v=0
49325 On ch=10 n=56 v=0
49326 On ch=10 n=68 v=0
49348 On ch=10 n=69 v=112
49348 On ch=10 n=62 v=121
49349 On ch=10 n=65 v=95
49354 On ch=10 n=62 v=0
49354 On ch=10 n=69 v=0
49355 On ch=10 n=65 v=0
49378 On ch=10 n=63 v=123
49379 On ch=10 n=69 v=117
49379 On ch=10 n=65 v=97
49384 On ch=10 n=63 v=0
49385 On ch=10 n=65 v=0
49385 On ch=10 n=69 v=0
49411 On ch=10 n=69 v=120
49411 On ch=10 n=65 v=99
49417 On ch=10 n=65 v=0
49417 On ch=10 n=69 v=0
49440 On ch=10 n=65 v=97
49440 On ch=10 n=63 v=120
49440 On ch=10 n=68 v=108
49441 On ch=10 n=69 v=122
49441 On ch=10 n=56 v=105
49443 On ch=10 n=33 v=121
49446 On ch=10 n=68 v=0
49446 On ch=10 n=65 v=0
49446 On ch=10 n=63 v=0
49447 On ch=10 n=69 v=0
49447 On ch=10 n=56 v=0
49449 On ch=10 n=33 v=0
49468 On ch=10 n=65 v=70
49469 On ch=10 n=69 v=86
49471 On ch=10 n=62 v=79
49474 On ch=10 n=65 v=0
49475 On ch=10 n=69 v=0
49477 On ch=10 n=62 v=0
49499 On ch=10 n=69 v=100
49499 On ch=10 n=63 v=95
49505 On ch=10 n=63 v=0
49505 On ch=10 n=69 v=0
49523 On ch=10 n=68 v=100
49527 On ch=10 n=65 v=89
49529 On ch=10 n=68 v=0
49531 On ch=10 n=69 v=112
49531 On ch=10 n=62 v=90
49533 On ch=10 n=65 v=0
49537 On ch=10 n=62 v=0
49537 On ch=10 n=69 v=0
49560 On ch=10 n=65 v=97
49561 On ch=10 n=33 v=87
49562 On ch=10 n=69 v=122
49562 On ch=10 n=64 v=122
49563 On ch=10 n=56 v=102
49566 On ch=10 n=65 v=0
49567 On ch=10 n=33 v=0
49568 On ch=10 n=64 v=0
49568 On ch=10 n=69 v=0
49569 On ch=10 n=56 v=0
49589 On ch=10 n=69 v=95
49591 On ch=10 n=62 v=85
49595 On ch=10 n=69 v=0
49597 On ch=10 n=62 v=0
49606 On ch=10 n=68 v=79
49612 On ch=10 n=68 v=0
49620 On ch=10 n=65 v=65
49621 On ch=10 n=69 v=112
49622 On ch=10 n=64 v=73
49626 On ch=10 n=65 v=0
49627 On ch=10 n=69 v=0
49628 On ch=10 n=64 v=0
49649 On ch=10 n=66 v=89
49651 On ch=10 n=69 v=95
49653 On ch=10 n=62 v=95
49655 On ch=10 n=66 v=0
49657 On ch=10 n=69 v=0
49659 On ch=10 n=62 v=0
49680 On ch=10 n=69 v=122
49680 On ch=10 n=65 v=95
49683 On ch=10 n=68 v=108
49684 On ch=10 n=56 v=102
49684 On ch=10 n=63 v=122
49684 On ch=10 n=33 v=100
49686 On ch=10 n=65 v=0
49686 On ch=10 n=69 v=0
49689 On ch=10 n=68 v=0
49690 On ch=10 n=56 v=0
49690 On ch=10 n=63 v=0
49690 On ch=10 n=33 v=0
49709 On ch=10 n=69 v=79
49713 On ch=10 n=62 v=98
49715 On ch=10 n=69 v=0
49719 On ch=10 n=62 v=0
49741 On ch=10 n=69 v=108
49742 On ch=10 n=65 v=70
49742 On ch=10 n=33 v=65
49743 On ch=10 n=63 v=117
49747 On ch=10 n=69 v=0
49748 On ch=10 n=65 v=0
49748 On ch=10 n=33 v=0
49749 On ch=10 n=63 v=0
49763 On ch=10 n=68 v=79
49769 On ch=10 n=68 v=0
49772 On ch=10 n=69 v=83
49772 On ch=10 n=33 v=112
49773 On ch=10 n=65 v=54
49773 On ch=10 n=62 v=117
49778 On ch=10 n=33 v=0
49778 On ch=10 n=69 v=0
49779 On ch=10 n=65 v=0
49779 On ch=10 n=62 v=0
49801 On ch=10 n=69 v=123
49801 On ch=10 n=66 v=62
49802 On ch=10 n=56 v=96
49802 On ch=10 n=33 v=122
49804 On ch=10 n=64 v=122
49807 On ch=10 n=66 v=0
49807 On ch=10 n=69 v=0
49808 On ch=10 n=33 v=0
49808 On ch=10 n=56 v=0
49810 On ch=10 n=64 v=0
49831 On ch=10 n=69 v=90
49833 On ch=10 n=63 v=108
49837 On ch=10 n=69 v=0
49839 On ch=10 n=63 v=0
49846 On ch=10 n=68 v=86
49852 On ch=10 n=68 v=0
49859 On ch=10 n=66 v=96
49861 On ch=10 n=69 v=100
49863 On ch=10 n=64 v=98
49863 On ch=10 n=62 v=81
49865 On ch=10 n=66 v=0
49867 On ch=10 n=69 v=0
49869 On ch=10 n=64 v=0
49869 On ch=10 n=62 v=0
49889 On ch=10 n=69 v=95
49890 On ch=10 n=65 v=87
49892 On ch=10 n=63 v=122
49895 On ch=10 n=69 v=0
49896 On ch=10 n=65 v=0
49898 On ch=10 n=63 v=0
49919 On ch=10 n=69 v=122
49921 On ch=10 n=56 v=105
49923 On ch=10 n=65 v=70
49923 On ch=10 n=64 v=117
49925 On ch=10 n=69 v=0
49925 On ch=10 n=68 v=98
49927 On ch=10 n=56 v=0
49929 On ch=10 n=64 v=0
49929 On ch=10 n=65 v=0
49931 On ch=10 n=68 v=0
49948 On ch=10 n=69 v=79
49951 On ch=10 n=66 v=89
49952 On ch=10 n=63 v=112
49954 On ch=10 n=69 v=0
49957 On ch=10 n=66 v=0
49958 On ch=10 n=63 v=0
49979 On ch=10 n=33 v=69
49981 On ch=10 n=69 v=108
49981 On ch=10 n=65 v=79
49985 On ch=10 n=33 v=0
49987 On ch=10 n=65 v=0
49987 On ch=10 n=69 v=0
50004 On ch=10 n=68 v=85
50010 On ch=10 n=68 v=0
50010 On ch=10 n=33 v=112
50011 On ch=10 n=69 v=87
50013 On ch=10 n=66 v=62
50013 On ch=10 n=62 v=77
50016 On ch=10 n=33 v=0
50017 On ch=10 n=69 v=0
50019 On ch=10 n=66 v=0
50019 On ch=10 n=62 v=0
50039 On ch=10 n=33 v=122
50041 On ch=10 n=69 v=122
50041 On ch=10 n=56 v=102
50042 On ch=10 n=65 v=92
50043 On ch=10 n=63 v=122
50045 On ch=10 n=33 v=0
50047 On ch=10 n=69 v=0
50047 On ch=10 n=56 v=0
50048 On ch=10 n=65 v=0
50049 On ch=10 n=63 v=0
50071 On ch=10 n=69 v=76
50072 On ch=10 n=66 v=83
50077 On ch=10 n=69 v=0
50078 On ch=10 n=66 v=0
50100 On ch=10 n=68 v=87
50102 On ch=10 n=69 v=108
50102 On ch=10 n=65 v=62
50102 On ch=10 n=63 v=121
50106 On ch=10 n=68 v=0
50108 On ch=10 n=69 v=0
50108 On ch=10 n=65 v=0
50108 On ch=10 n=63 v=0
50131 On ch=10 n=69 v=98
50131 On ch=10 n=65 v=95
50132 On ch=10 n=62 v=121
50137 On ch=10 n=65 v=0
50137 On ch=10 n=69 v=0
50138 On ch=10 n=62 v=0
50159 On ch=10 n=33 v=77
50161 On ch=10 n=56 v=105
50162 On ch=10 n=69 v=122
50162 On ch=10 n=65 v=95
50163 On ch=10 n=64 v=117
50163 On ch=10 n=68 v=108
50165 On ch=10 n=33 v=0
50167 On ch=10 n=56 v=0
50168 On ch=10 n=65 v=0
50168 On ch=10 n=69 v=0
50169 On ch=10 n=68 v=0
50169 On ch=10 n=64 v=0
50191 On ch=10 n=69 v=85
50191 On ch=10 n=62 v=112
50192 On ch=10 n=65 v=83
50197 On ch=10 n=62 v=0
50197 On ch=10 n=69 v=0
50198 On ch=10 n=65 v=0
50217 On ch=10 n=33 v=86
50221 On ch=10 n=65 v=83
50221 On ch=10 n=64 v=114
50222 On ch=10 n=69 v=98
50223 On ch=10 n=33 v=0
50227 On ch=10 n=65 v=0
50227 On ch=10 n=64 v=0
50228 On ch=10 n=69 v=0
50242 On ch=10 n=68 v=74
50248 On ch=10 n=68 v=0
50248 On ch=10 n=33 v=112
50251 On ch=10 n=69 v=85
50251 On ch=10 n=62 v=120
50253 On ch=10 n=65 v=95
50254 On ch=10 n=33 v=0
50257 On ch=10 n=69 v=0
50257 On ch=10 n=62 v=0
50259 On ch=10 n=65 v=0
50279 On ch=10 n=33 v=121
50280 On ch=10 n=56 v=105
50281 On ch=10 n=69 v=123
50281 On ch=10 n=63 v=122
50284 On ch=10 n=65 v=98
50285 On ch=10 n=33 v=0
50286 On ch=10 n=56 v=0
50287 On ch=10 n=63 v=0
50287 On ch=10 n=69 v=0
50290 On ch=10 n=65 v=0
50309 On ch=10 n=33 v=98
50311 On ch=10 n=69 v=86
50311 On ch=10 n=65 v=89
50311 On ch=10 n=62 v=104
50315 On ch=10 n=33 v=0
50317 On ch=10 n=69 v=0
50317 On ch=10 n=65 v=0
50317 On ch=10 n=62 v=0
50323 On ch=10 n=68 v=87
50329 On ch=10 n=68 v=0
50341 On ch=10 n=69 v=104
50341 On ch=10 n=64 v=117
50341 On ch=10 n=33 v=117
50342 On ch=10 n=65 v=86
50343 On ch=10 n=62 v=108
50347 On ch=10 n=33 v=0
50347 On ch=10 n=69 v=0
50347 On ch=10 n=64 v=0
50348 On ch=10 n=65 v=0
50349 On ch=10 n=62 v=0
50372 On ch=10 n=69 v=104
50373 On ch=10 n=65 v=95
50373 On ch=10 n=63 v=100
50378 On ch=10 n=69 v=0
50379 On ch=10 n=63 v=0
50379 On ch=10 n=65 v=0
50398 On ch=10 n=68 v=108
50401 On ch=10 n=69 v=122
50401 On ch=10 n=56 v=105
50401 On ch=10 n=66 v=97
50401 On ch=10 n=64 v=108
50401 On ch=10 n=62 v=98
50404 On ch=10 n=68 v=0
50407 On ch=10 n=56 v=0
50407 On ch=10 n=66 v=0
50407 On ch=10 n=69 v=0
50407 On ch=10 n=62 v=0
50407 On ch=10 n=64 v=0
50431 On ch=10 n=69 v=87
50432 On ch=10 n=65 v=95
50432 On ch=10 n=63 v=117
50437 On ch=10 n=69 v=0
50438 On ch=10 n=63 v=0
50438 On ch=10 n=65 v=0
50461 On ch=10 n=69 v=95
50461 On ch=10 n=64 v=117
50462 On ch=10 n=66 v=95
50463 On ch=10 n=33 v=100
50467 On ch=10 n=64 v=0
50467 On ch=10 n=69 v=0
50468 On ch=10 n=66 v=0
50469 On ch=10 n=33 v=0
50479 On ch=10 n=68 v=72
50485 On ch=10 n=68 v=0
50491 On ch=10 n=66 v=95
50491 On ch=10 n=63 v=122
50492 On ch=10 n=69 v=100
50494 On ch=10 n=33 v=120
50497 On ch=10 n=63 v=0
50497 On ch=10 n=66 v=0
50498 On ch=10 n=69 v=0
50500 On ch=10 n=33 v=0
50521 On ch=10 n=56 v=105
50522 On ch=10 n=69 v=123
50522 On ch=10 n=65 v=95
50523 On ch=10 n=62 v=121
50527 On ch=10 n=56 v=0
50528 On ch=10 n=69 v=0
50528 On ch=10 n=65 v=0
50529 On ch=10 n=62 v=0
50550 On ch=10 n=69 v=93
50553 On ch=10 n=66 v=86
50556 On ch=10 n=69 v=0
50559 On ch=10 n=66 v=0
50561 On ch=10 n=68 v=95
50567 On ch=10 n=68 v=0
50575 On ch=10 n=62 v=74
50581 On ch=10 n=62 v=0
50582 On ch=10 n=69 v=98
50582 On ch=10 n=63 v=100
50588 On ch=10 n=63 v=0
50588 On ch=10 n=69 v=0
50610 On ch=10 n=66 v=95
50612 On ch=10 n=69 v=108
50612 On ch=10 n=62 v=111
50616 On ch=10 n=66 v=0
50618 On ch=10 n=62 v=0
50618 On ch=10 n=69 v=0
50639 On ch=10 n=68 v=98
50641 On ch=10 n=56 v=105
50641 On ch=10 n=65 v=95
50642 On ch=10 n=69 v=124
50642 On ch=10 n=33 v=68
50643 On ch=10 n=63 v=123
50645 On ch=10 n=68 v=0
50647 On ch=10 n=56 v=0
50647 On ch=10 n=65 v=0
50648 On ch=10 n=69 v=0
50648 On ch=10 n=33 v=0
50649 On ch=10 n=63 v=0
50671 On ch=10 n=69 v=86
50671 On ch=10 n=62 v=111
50672 On ch=10 n=65 v=87
50677 On ch=10 n=62 v=0
50677 On ch=10 n=69 v=0
50678 On ch=10 n=65 v=0
50696 On ch=10 n=33 v=104
50701 On ch=10 n=65 v=52
50701 On ch=10 n=64 v=117
50702 On ch=10 n=33 v=0
50702 On ch=10 n=69 v=87
50704 On ch=10 n=33 v=111
50707 On ch=10 n=64 v=0
50707 On ch=10 n=65 v=0
50708 On ch=10 n=69 v=0
50710 On ch=10 n=33 v=0
50717 On ch=10 n=68 v=77
50723 On ch=10 n=68 v=0
50731 On ch=10 n=69 v=112
50731 On ch=10 n=65 v=92
50732 On ch=10 n=63 v=122
50737 On ch=10 n=65 v=0
50737 On ch=10 n=69 v=0
50738 On ch=10 n=63 v=0
50758 On ch=10 n=33 v=122
50760 On ch=10 n=56 v=105
50761 On ch=10 n=69 v=123
50761 On ch=10 n=66 v=97
50762 On ch=10 n=64 v=122
50764 On ch=10 n=33 v=0
50766 On ch=10 n=56 v=0
50767 On ch=10 n=66 v=0
50767 On ch=10 n=69 v=0
50768 On ch=10 n=64 v=0
50791 On ch=10 n=69 v=75
50792 On ch=10 n=66 v=95
50792 On ch=10 n=63 v=114
50797 On ch=10 n=69 v=0
50798 On ch=10 n=63 v=0
50798 On ch=10 n=66 v=0
50801 On ch=10 n=68 v=87
50807 On ch=10 n=68 v=0
50821 On ch=10 n=64 v=120
50822 On ch=10 n=69 v=95
50827 On ch=10 n=64 v=0
50828 On ch=10 n=69 v=0
50851 On ch=10 n=69 v=104
50851 On ch=10 n=66 v=79
50853 On ch=10 n=63 v=117
50857 On ch=10 n=66 v=0
50857 On ch=10 n=69 v=0
50859 On ch=10 n=63 v=0
50877 On ch=10 n=68 v=100
50877 On ch=10 n=33 v=60
50880 On ch=10 n=69 v=124
50880 On ch=10 n=56 v=107
50880 On ch=10 n=65 v=96
50880 On ch=10 n=62 v=120
50883 On ch=10 n=33 v=0
50883 On ch=10 n=68 v=0
50886 On ch=10 n=65 v=0
50886 On ch=10 n=56 v=0
50886 On ch=10 n=62 v=0
50886 On ch=10 n=69 v=0
50908 On ch=10 n=69 v=93
50911 On ch=10 n=66 v=89
50914 On ch=10 n=69 v=0
50917 On ch=10 n=66 v=0
50938 On ch=10 n=69 v=100
50938 On ch=10 n=68 v=95
50939 On ch=10 n=65 v=89
50941 On ch=10 n=63 v=120
50944 On ch=10 n=68 v=0
50944 On ch=10 n=69 v=0
50945 On ch=10 n=65 v=0
50945 On ch=10 n=33 v=95
50947 On ch=10 n=63 v=0
50951 On ch=10 n=33 v=0
50967 On ch=10 n=69 v=104
50968 On ch=10 n=62 v=117
50971 On ch=10 n=66 v=89
50973 On ch=10 n=69 v=0
50974 On ch=10 n=62 v=0
50977 On ch=10 n=66 v=0
50997 On ch=10 n=33 v=122
50999 On ch=10 n=69 v=124
50999 On ch=10 n=56 v=105
50999 On ch=10 n=63 v=124
51001 On ch=10 n=65 v=70
51003 On ch=10 n=33 v=0
51005 On ch=10 n=63 v=0
51005 On ch=10 n=69 v=0
51005 On ch=10 n=56 v=0
51007 On ch=10 n=65 v=0
51027 On ch=10 n=69 v=100
51029 On ch=10 n=65 v=92
51029 On ch=10 n=62 v=76
51033 On ch=10 n=69 v=0
51035 On ch=10 n=62 v=0
51035 On ch=10 n=65 v=0
51040 On ch=10 n=68 v=60
51046 On ch=10 n=68 v=0
51058 On ch=10 n=69 v=98
51058 On ch=10 n=66 v=99
51058 On ch=10 n=63 v=112
51064 On ch=10 n=63 v=0
51064 On ch=10 n=66 v=0
51064 On ch=10 n=69 v=0
51087 On ch=10 n=65 v=89
51088 On ch=10 n=69 v=104
51089 On ch=10 n=62 v=122
51093 On ch=10 n=65 v=0
51094 On ch=10 n=69 v=0
51095 On ch=10 n=62 v=0
51117 On ch=10 n=66 v=98
51118 On ch=10 n=69 v=123
51118 On ch=10 n=64 v=122
51119 On ch=10 n=56 v=99
51120 On ch=10 n=68 v=104
51123 On ch=10 n=66 v=0
51124 On ch=10 n=69 v=0
51124 On ch=10 n=64 v=0
51125 On ch=10 n=56 v=0
51126 On ch=10 n=68 v=0
51147 On ch=10 n=69 v=108
51147 On ch=10 n=65 v=92
51147 On ch=10 n=63 v=122
51153 On ch=10 n=63 v=0
51153 On ch=10 n=65 v=0
51153 On ch=10 n=69 v=0
51178 On ch=10 n=64 v=117
51178 On ch=10 n=33 v=79
51179 On ch=10 n=69 v=112
51179 On ch=10 n=65 v=92
51184 On ch=10 n=33 v=0
51184 On ch=10 n=64 v=0
51185 On ch=10 n=69 v=0
51185 On ch=10 n=65 v=0
51207 On ch=10 n=63 v=122
51208 On ch=10 n=65 v=95
51208 On ch=10 n=33 v=117
51209 On ch=10 n=69 v=112
51213 On ch=10 n=63 v=0
51214 On ch=10 n=65 v=0
51214 On ch=10 n=33 v=0
51215 On ch=10 n=69 v=0
51238 On ch=10 n=62 v=122
51239 On ch=10 n=69 v=124
51239 On ch=10 n=56 v=107
51239 On ch=10 n=65 v=97
51239 On ch=10 n=33 v=122
51240 On ch=10 n=68 v=95
51244 On ch=10 n=62 v=0
51245 On ch=10 n=33 v=0
51245 On ch=10 n=65 v=0
51245 On ch=10 n=69 v=0
51245 On ch=10 n=56 v=0
51246 On ch=10 n=68 v=0
51268 On ch=10 n=69 v=112
51268 On ch=10 n=62 v=121
51269 On ch=10 n=65 v=95
51274 On ch=10 n=62 v=0
51274 On ch=10 n=69 v=0
51275 On ch=10 n=65 v=0
51298 On ch=10 n=63 v=123
51299 On ch=10 n=69 v=117
51299 On ch=10 n=65 v=97
51304 On ch=10 n=63 v=0
51305 On ch=10 n=65 v=0
51305 On ch=10 n=69 v=0
51331 On ch=10 n=69 v=120
51331 On ch=10 n=65 v=99
51337 On ch=10 n=65 v=0
51337 On ch=10 n=69 v=0
51360 On ch=10 n=65 v=97
51360 On ch=10 n=63 v=120
51360 On ch=10 n=68 v=108
51361 On ch=10 n=69 v=122
51361 On ch=10 n=56 v=105
51363 On ch=10 n=33 v=121
51366 On ch=10 n=68 v=0
51366 On ch=10 n=65 v=0
51366 On ch=10 n=63 v=0
51367 On ch=10 n=69 v=0
51367 On ch=10 n=56 v=0
51369 On ch=10 n=33 v=0
51388 On ch=10 n=65 v=70
51389 On ch=10 n=69 v=86
51391 On ch=10 n=62 v=79
51394 On ch=10 n=65 v=0
51395 On ch=10 n=69 v=0
51397 On ch=10 n=62 v=0
51419 On ch=10 n=69 v=100
51419 On ch=10 n=63 v=95
51425 On ch=10 n=63 v=0
51425 On ch=10 n=69 v=0
51443 On ch=10 n=68 v=100
51447 On ch=10 n=65 v=89
51449 On ch=10 n=68 v=0
51451 On ch=10 n=69 v=112
51451 On ch=10 n=62 v=90
51453 On ch=10 n=65 v=0
51457 On ch=10 n=62 v=0
51457 On ch=10 n=69 v=0
51480 On ch=10 n=65 v=97
51481 On ch=10 n=33 v=87
51482 On ch=10 n=69 v=122
51482 On ch=10 n=64 v=122
51483 On ch=10 n=56 v=102
51486 On ch=10 n=65 v=0
51487 On ch=10 n=33 v=0
51488 On ch=10 n=64 v=0
51488 On ch=10 n=69 v=0
51489 On ch=10 n=56 v=0
51509 On ch=10 n=69 v=95
51511 On ch=10 n=62 v=85
51515 On ch=10 n=69 v=0
51517 On ch=10 n=62 v=0
51526 On ch=10 n=68 v=79
51532 On ch=10 n=68 v=0
51540 On ch=10 n=65 v=65
51541 On ch=10 n=69 v=112
51542 On ch=10 n=64 v=73
51546 On ch=10 n=65 v=0
51547 On ch=10 n=69 v=0
51548 On ch=10 n=64 v=0
51569 On ch=10 n=66 v=89
51571 On ch=10 n=69 v=95
51573 On ch=10 n=62 v=95
51575 On ch=10 n=66 v=0
51577 On ch=10 n=69 v=0
51579 On ch=10 n=62 v=0
51600 On ch=10 n=69 v=122
51600 On ch=10 n=65 v=95
51603 On ch=10 n=68 v=108
51604 On ch=10 n=56 v=102
51604 On ch=10 n=63 v=122
51604 On ch=10 n=33 v=100
51606 On ch=10 n=65 v=0
51606 On ch=10 n=69 v=0
51609 On ch=10 n=68 v=0
51610 On ch=10 n=56 v=0
51610 On ch=10 n=63 v=0
51610 On ch=10 n=33 v=0
51629 On ch=10 n=69 v=79
51633 On ch=10 n=62 v=98
51635 On ch=10 n=69 v=0
51639 On ch=10 n=62 v=0
51661 On ch=10 n=69 v=108
51662 On ch=10 n=65 v=70
51662 On ch=10 n=33 v=65
51663 On ch=10 n=63 v=117
51667 On ch=10 n=69 v=0
51668 On ch=10 n=65 v=0
51668 On ch=10 n=33 v=0
51669 On ch=10 n=63 v=0
51683 On ch=10 n=68 v=79
51689 On ch=10 n=68 v=0
51692 On ch=10 n=69 v=83
51692 On ch=10 n=33 v=112
51693 On ch=10 n=65 v=54
51693 On ch=10 n=62 v=117
51698 On ch=10 n=33 v=0
51698 On ch=10 n=69 v=0
51699 On ch=10 n=65 v=0
51699 On ch=10 n=62 v=0
51721 On ch=10 n=69 v=123
51721 On ch=10 n=66 v=62
51722 On ch=10 n=56 v=96
51722 On ch=10 n=33 v=122
51724 On ch=10 n=64 v=122
51727 On ch=10 n=66 v=0
51727 On ch=10 n=69 v=0
51728 On ch=10 n=33 v=0
51728 On ch=10 n=56 v=0
51730 On ch=10 n=64 v=0
51751 On ch=10 n=69 v=90
51753 On ch=10 n=63 v=108
51757 On ch=10 n=69 v=0
51759 On ch=10 n=63 v=0
51766 On ch=10 n=68 v=86
51772 On ch=10 n=68 v=0
51779 On ch=10 n=66 v=96
51781 On ch=10 n=69 v=100
51783 On ch=10 n=64 v=98
51783 On ch=10 n=62 v=81
51785 On ch=10 n=66 v=0
51787 On ch=10 n=69 v=0
51789 On ch=10 n=64 v=0
51789 On ch=10 n=62 v=0
51809 On ch=10 n=69 v=95
51810 On ch=10 n=65 v=87
51812 On ch=10 n=63 v=122
51815 On ch=10 n=69 v=0
51816 On ch=10 n=65 v=0
51818 On ch=10 n=63 v=0
51839 On ch=10 n=69 v=122
51841 On ch=10 n=56 v=105
51843 On ch=10 n=65 v=70
51843 On ch=10 n=64 v=117
51845 On ch=10 n=69 v=0
51845 On ch=10 n=68 v=98
51847 On ch=10 n=56 v=0
51849 On ch=10 n=64 v=0
51849 On ch=10 n=65 v=0
51851 On ch=10 n=68 v=0
51868 On ch=10 n=69 v=79
51871 On ch=10 n=66 v=89
51872 On ch=10 n=63 v=112
51874 On ch=10 n=69 v=0
51877 On ch=10 n=66 v=0
51878 On ch=10 n=63 v=0
51899 On ch=10 n=33 v=69
51901 On ch=10 n=69 v=108
51901 On ch=10 n=65 v=79
51905 On ch=10 n=33 v=0
51907 On ch=10 n=65 v=0
51907 On ch=10 n=69 v=0
51924 On ch=10 n=68 v=85
51930 On ch=10 n=68 v=0
51930 On ch=10 n=33 v=112
51931 On ch=10 n=69 v=87
51933 On ch=10 n=66 v=62
51933 On ch=10 n=62 v=77
51936 On ch=10 n=33 v=0
51937 On ch=10 n=69 v=0
51939 On ch=10 n=66 v=0
51939 On ch=10 n=62 v=0
51959 On ch=10 n=33 v=122
51961 On ch=10 n=69 v=122
51961 On ch=10 n=56 v=102
51962 On ch=10 n=65 v=92
51963 On ch=10 n=63 v=122
51965 On ch=10 n=33 v=0
51967 On ch=10 n=69 v=0
51967 On ch=10 n=56 v=0
51968 On ch=10 n=65 v=0
51969 On ch=10 n=63 v=0
51991 On ch=10 n=69 v=76
51992 On ch=10 n=66 v=83
51997 On ch=10 n=69 v=0
51998 On ch=10 n=66 v=0
52020 On ch=10 n=68 v=87
52022 On ch=10 n=69 v=108
52022 On ch=10 n=65 v=62
52022 On ch=10 n=63 v=121
52026 On ch=10 n=68 v=0
52028 On ch=10 n=69 v=0
52028 On ch=10 n=65 v=0
52028 On ch=10 n=63 v=0
52051 On ch=10 n=69 v=98
52051 On ch=10 n=65 v=95
52052 On ch=10 n=62 v=121
52057 On ch=10 n=65 v=0
52057 On ch=10 n=69 v=0
52058 On ch=10 n=62 v=0
52079 On ch=10 n=33 v=77
52081 On ch=10 n=56 v=105
52082 On ch=10 n=69 v=122
52082 On ch=10 n=65 v=95
52083 On ch=10 n=64 v=117
52083 On ch=10 n=68 v=108
52085 On ch=10 n=33 v=0
52087 On ch=10 n=56 v=0
52088 On ch=10 n=65 v=0
52088 On ch=10 n=69 v=0
52089 On ch=10 n=68 v=0
52089 On ch=10 n=64 v=0
52111 On ch=10 n=69 v=85
52111 On ch=10 n=62 v=112
52112 On ch=10 n=65 v=83
52117 On ch=10 n=62 v=0
52117 On ch=10 n=69 v=0
52118 On ch=10 n=65 v=0
52137 On ch=10 n=33 v=86
52141 On ch=10 n=65 v=83
52141 On ch=10 n=64 v=114
52142 On ch=10 n=69 v=98
52143 On ch=10 n=33 v=0
52147 On ch=10 n=65 v=0
52147 On ch=10 n=64 v=0
52148 On ch=10 n=69 v=0
52162 On ch=10 n=68 v=74
52168 On ch=10 n=68 v=0
52168 On ch=10 n=33 v=112
52171 On ch=10 n=69 v=85
52171 On ch=10 n=62 v=120
52173 On ch=10 n=65 v=95
52174 On ch=10 n=33 v=0
52177 On ch=10 n=69 v=0
52177 On ch=10 n=62 v=0
52179 On ch=10 n=65 v=0
52199 On ch=10 n=33 v=121
52200 On ch=10 n=56 v=105
52201 On ch=10 n=69 v=123
52201 On ch=10 n=63 v=122
52204 On ch=10 n=65 v=98
52205 On ch=10 n=33 v=0
52206 On ch=10 n=56 v=0
52207 On ch=10 n=63 v=0
52207 On ch=10 n=69 v=0
52210 On ch=10 n=65 v=0
52229 On ch=10 n=33 v=98
52231 On ch=10 n=69 v=86
52231 On ch=10 n=65 v=89
52231 On ch=10 n=62 v=104
52235 On ch=10 n=33 v=0
52237 On ch=10 n=69 v=0
52237 On ch=10 n=65 v=0
52237 On ch=10 n=62 v=0
52243 On ch=10 n=68 v=87
52249 On ch=10 n=68 v=0
52261 On ch=10 n=69 v=104
52261 On ch=10 n=64 v=117
52261 On ch=10 n=33 v=117
52262 On ch=10 n=65 v=86
52263 On ch=10 n=62 v=108
52267 On ch=10 n=33 v=0
52267 On ch=10 n=69 v=0
52267 On ch=10 n=64 v=0
52268 On ch=10 n=65 v=0
52269 On ch=10 n=62 v=0
52292 On ch=10 n=69 v=104
52293 On ch=10 n=65 v=95
52293 On ch=10 n=63 v=100
52298 On ch=10 n=69 v=0
52299 On ch=10 n=63 v=0
52299 On ch=10 n=65 v=0
52318 On ch=10 n=68 v=108
52321 On ch=10 n=69 v=122
52321 On ch=10 n=56 v=105
52321 On ch=10 n=66 v=97
52321 On ch=10 n=64 v=108
52321 On ch=10 n=62 v=98
52324 On ch=10 n=68 v=0
52327 On ch=10 n=56 v=0
52327 On ch=10 n=66 v=0
52327 On ch=10 n=69 v=0
52327 On ch=10 n=62 v=0
52327 On ch=10 n=64 v=0
52351 On ch=10 n=69 v=87
52352 On ch=10 n=65 v=95
52352 On ch=10 n=63 v=117
52357 On ch=10 n=69 v=0
52358 On ch=10 n=63 v=0
52358 On ch=10 n=65 v=0
52381 On ch=10 n=69 v=95
52381 On ch=10 n=64 v=117
52382 On ch=10 n=66 v=95
52383 On ch=10 n=33 v=100
52387 On ch=10 n=64 v=0
52387 On ch=10 n=69 v=0
52388 On ch=10 n=66 v=0
52389 On ch=10 n=33 v=0
52399 On ch=10 n=68 v=72
52405 On ch=10 n=68 v=0
52411 On ch=10 n=66 v=95
52411 On ch=10 n=63 v=122
52412 On ch=10 n=69 v=100
52414 On ch=10 n=33 v=120
52417 On ch=10 n=63 v=0
52417 On ch=10 n=66 v=0
52418 On ch=10 n=69 v=0
52420 On ch=10 n=33 v=0
52441 On ch=10 n=56 v=105
52442 On ch=10 n=69 v=123
52442 On ch=10 n=65 v=95
52443 On ch=10 n=62 v=121
52447 On ch=10 n=56 v=0
52448 On ch=10 n=69 v=0
52448 On ch=10 n=65 v=0
52449 On ch=10 n=62 v=0
52470 On ch=10 n=69 v=93
52473 On ch=10 n=66 v=86
52476 On ch=10 n=69 v=0
52479 On ch=10 n=66 v=0
52481 On ch=10 n=68 v=95
52487 On ch=10 n=68 v=0
52495 On ch=10 n=62 v=74
52501 On ch=10 n=62 v=0
52502 On ch=10 n=69 v=98
52502 On ch=10 n=63 v=100
52508 On ch=10 n=63 v=0
52508 On ch=10 n=69 v=0
52530 On ch=10 n=66 v=95
52532 On ch=10 n=69 v=108
52532 On ch=10 n=62 v=111
52536 On ch=10 n=66 v=0
52538 On ch=10 n=62 v=0
52538 On ch=10 n=69 v=0
52559 On ch=10 n=68 v=98
52561 On ch=10 n=56 v=105
52561 On ch=10 n=65 v=95
52562 On ch=10 n=69 v=124
52562 On ch=10 n=33 v=68
52563 On ch=10 n=63 v=123
52565 On ch=10 n=68 v=0
52567 On ch=10 n=56 v=0
52567 On ch=10 n=65 v=0
52568 On ch=10 n=69 v=0
52568 On ch=10 n=33 v=0
52569 On ch=10 n=63 v=0
52591 On ch=10 n=69 v=86
52591 On ch=10 n=62 v=111
52592 On ch=10 n=65 v=87
52597 On ch=10 n=62 v=0
52597 On ch=10 n=69 v=0
52598 On ch=10 n=65 v=0
52616 On ch=10 n=33 v=104
52621 On ch=10 n=65 v=52
52621 On ch=10 n=64 v=117
52622 On ch=10 n=33 v=0
52622 On ch=10 n=69 v=87
52624 On ch=10 n=33 v=111
52627 On ch=10 n=64 v=0
52627 On ch=10 n=65 v=0
52628 On ch=10 n=69 v=0
52630 On ch=10 n=33 v=0
52637 On ch=10 n=68 v=77
52643 On ch=10 n=68 v=0
52651 On ch=10 n=69 v=112
52651 On ch=10 n=65 v=92
52652 On ch=10 n=63 v=122
52657 On ch=10 n=65 v=0
52657 On ch=10 n=69 v=0
52658 On ch=10 n=63 v=0
52678 On ch=10 n=33 v=122
52680 On ch=10 n=56 v=105
52681 On ch=10 n=69 v=123
52681 On ch=10 n=66 v=97
52682 On ch=10 n=64 v=122
52684 On ch=10 n=33 v=0
52686 On ch=10 n=56 v=0
52687 On ch=10 n=66 v=0
52687 On ch=10 n=69 v=0
52688 On ch=10 n=64 v=0
52711 On ch=10 n=69 v=75
52712 On ch=10 n=66 v=95
52712 On ch=10 n=63 v=114
52717 On ch=10 n=69 v=0
52718 On ch=10 n=63 v=0
52718 On ch=10 n=66 v=0
52721 On ch=10 n=68 v=87
52727 On ch=10 n=68 v=0
52741 On ch=10 n=64 v=120
52742 On ch=10 n=69 v=95
52747 On ch=10 n=64 v=0
52748 On ch=10 n=69 v=0
52771 On ch=10 n=69 v=104
52771 On ch=10 n=66 v=79
52773 On ch=10 n=63 v=117
52777 On ch=10 n=66 v=0
52777 On ch=10 n=69 v=0
52779 On ch=10 n=63 v=0
52797 On ch=10 n=68 v=100
52797 On ch=10 n=33 v=60
52800 On ch=10 n=69 v=124
52800 On ch=10 n=56 v=107
52800 On ch=10 n=65 v=96
52800 On ch=10 n=62 v=120
52803 On ch=10 n=33 v=0
52803 On ch=10 n=68 v=0
52806 On ch=10 n=65 v=0
52806 On ch=10 n=56 v=0
52806 On ch=10 n=62 v=0
52806 On ch=10 n=69 v=0
52828 On ch=10 n=69 v=93
52831 On ch=10 n=66 v=89
52834 On ch=10 n=69 v=0
52837 On ch=10 n=66 v=0
52858 On ch=10 n=69 v=100
52858 On ch=10 n=68 v=95
52859 On ch=10 n=65 v=89
52861 On ch=10 n=63 v=120
52864 On ch=10 n=68 v=0
52864 On ch=10 n=69 v=0
52865 On ch=10 n=65 v=0
52865 On ch=10 n=33 v=95
52867 On ch=10 n=63 v=0
52871 On ch=10 n=33 v=0
52887 On ch=10 n=69 v=104
52888 On ch=10 n=62 v=117
52891 On ch=10 n=66 v=89
52893 On ch=10 n=69 v=0
52894 On ch=10 n=62 v=0
52897 On ch=10 n=66 v=0
52917 On ch=10 n=33 v=122
52919 On ch=10 n=69 v=124
52919 On ch=10 n=56 v=105
52919 On ch=10 n=63 v=124
52921 On ch=10 n=65 v=70
52923 On ch=10 n=33 v=0
52925 On ch=10 n=63 v=0
52925 On ch=10 n=69 v=0
52925 On ch=10 n=56 v=0
52927 On ch=10 n=65 v=0
52947 On ch=10 n=69 v=100
52949 On ch=10 n=65 v=92
52949 On ch=10 n=62 v=76
52953 On ch=10 n=69 v=0
52955 On ch=10 n=62 v=0
52955 On ch=10 n=65 v=0
52960 On ch=10 n=68 v=60
52966 On ch=10 n=68 v=0
52978 On ch=10 n=69 v=98
52978 On ch=10 n=66 v=99
52978 On ch=10 n=63 v=112
52984 On ch=10 n=63 v=0
52984 On ch=10 n=66 v=0
52984 On ch=10 n=69 v=0
53007 On ch=10 n=65 v=89
53008 On ch=10 n=69 v=104
53009 On ch=10 n=62 v=122
53013 On ch=10 n=65 v=0
53014 On ch=10 n=69 v=0
53015 On ch=10 n=62 v=0
53037 On ch=10 n=66 v=98
53038 On ch=10 n=69 v=123
53038 On ch=10 n=64 v=122
53039 On ch=10 n=56 v=99
53040 On ch=10 n=68 v=104
53043 On ch=10 n=66 v=0
53044 On ch=10 n=69 v=0
53044 On ch=10 n=64 v=0
53045 On ch=10 n=56 v=0
53046 On ch=10 n=68 v=0
53067 On ch=10 n=69 v=108
53067 On ch=10 n=65 v=92
53067 On ch=10 n=63 v=122
53073 On ch=10 n=63 v=0
53073 On ch=10 n=65 v=0
53073 On ch=10 n=69 v=0
53098 On ch=10 n=64 v=117
53098 On ch=10 n=33 v=79
53099 On ch=10 n=69 v=112
53099 On ch=10 n=65 v=92
53104 On ch=10 n=33 v=0
53104 On ch=10 n=64 v=0
53105 On ch=10 n=69 v=0
53105 On ch=10 n=65 v=0
53127 On ch=10 n=63 v=122
53128 On ch=10 n=65 v=95
53128 On ch=10 n=33 v=117
53129 On ch=10 n=69 v=112
53133 On ch=10 n=63 v=0
53134 On ch=10 n=65 v=0
53134 On ch=10 n=33 v=0
53135 On ch=10 n=69 v=0
53158 On ch=10 n=62 v=122
53159 On ch=10 n=69 v=124
53159 On ch=10 n=56 v=107
53159 On ch=10 n=65 v=97
53159 On ch=10 n=33 v=122
53160 On ch=10 n=68 v=95
53164 On ch=10 n=62 v=0
53165 On ch=10 n=33 v=0
53165 On ch=10 n=65 v=0
53165 On ch=10 n=69 v=0
53165 On ch=10 n=56 v=0
53166 On ch=10 n=68 v=0
53188 On ch=10 n=69 v=112
53188 On ch=10 n=62 v=121
53189 On ch=10 n=65 v=95
53194 On ch=10 n=62 v=0
53194 On ch=10 n=69 v=0
53195 On ch=10 n=65 v=0
53218 On ch=10 n=63 v=123
53219 On ch=10 n=69 v=117
53219 On ch=10 n=65 v=97
53224 On ch=10 n=63 v=0
53225 On ch=10 n=65 v=0
53225 On ch=10 n=69 v=0
53251 On ch=10 n=69 v=120
53251 On ch=10 n=65 v=99
53257 On ch=10 n=65 v=0
53257 On ch=10 n=69 v=0
53280 On ch=10 n=65 v=97
53280 On ch=10 n=63 v=120
53280 On ch=10 n=68 v=108
53281 On ch=10 n=69 v=122
53281 On ch=10 n=56 v=105
53283 On ch=10 n=33 v=121
53286 On ch=10 n=68 v=0
53286 On ch=10 n=65 v=0
53286 On ch=10 n=63 v=0
53287 On ch=10 n=69 v=0
53287 On ch=10 n=56 v=0
53289 On ch=10 n=33 v=0
53308 On ch=10 n=65 v=70
53309 On ch=10 n=69 v=86
53311 On ch=10 n=62 v=79
53314 On ch=10 n=65 v=0
53315 On ch=10 n=69 v=0
53317 On ch=10 n=62 v=0
53339 On ch=10 n=69 v=100
53339 On ch=10 n=63 v=95
53345 On ch=10 n=63 v=0
53345 On ch=10 n=69 v=0
53363 On ch=10 n=68 v=100
53367 On ch=10 n=65 v=89
53369 On ch=10 n=68 v=0
53371 On ch=10 n=69 v=112
53371 On ch=10 n=62 v=90
53373 On ch=10 n=65 v=0
53377 On ch=10 n=62 v=0
53377 On ch=10 n=69 v=0
53400 On ch=10 n=65 v=97
53401 On ch=10 n=33 v=87
53402 On ch=10 n=69 v=122
53402 On ch=10 n=64 v=122
53403 On ch=10 n=56 v=102
53406 On ch=10 n=65 v=0
53407 On ch=10 n=33 v=0
53408 On ch=10 n=64 v=0
53408 On ch=10 n=69 v=0
53409 On ch=10 n=56 v=0
53429 On ch=10 n=69 v=95
53431 On ch=10 n=62 v=85
53435 On ch=10 n=69 v=0
53437 On ch=10 n=62 v=0
53446 On ch=10 n=68 v=79
53452 On ch=10 n=68 v=0
53460 On ch=10 n=65 v=65
53461 On ch=10 n=69 v=112
53462 On ch=10 n=64 v=73
53466 On ch=10 n=65 v=0
53467 On ch=10 n=69 v=0
53468 On ch=10 n=64 v=0
53489 On ch=10 n=66 v=89
53491 On ch=10 n=69 v=95
53493 On ch=10 n=62 v=95
53495 On ch=10 n=66 v=0
53497 On ch=10 n=69 v=0
53499 On ch=10 n=62 v=0
53520 On ch=10 n=69 v=122
53520 On ch=10 n=65 v=95
53523 On ch=10 n=68 v=108
53524 On ch=10 n=56 v=102
53524 On ch=10 n=63 v=122
53524 On ch=10 n=33 v=100
53526 On ch=10 n=65 v=0
53526 On ch=10 n=69 v=0
53529 On ch=10 n=68 v=0
53530 On ch=10 n=56 v=0
53530 On ch=10 n=63 v=0
53530 On ch=10 n=33 v=0
53549 On ch=10 n=69 v=79
53553 On ch=10 n=62 v=98
53555 On ch=10 n=69 v=0
53559 On ch=10 n=62 v=0
53581 On ch=10 n=69 v=108
53582 On ch=10 n=65 v=70
53582 On ch=10 n=33 v=65
53583 On ch=10 n=63 v=117
53587 On ch=10 n=69 v=0
53588 On ch=10 n=65 v=0
53588 On ch=10 n=33 v=0
53589 On ch=10 n=63 v=0
53603 On ch=10 n=68 v=79
53609 On ch=10 n=68 v=0
53612 On ch=10 n=69 v=83
53612 On ch=10 n=33 v=112
53613 On ch=10 n=65 v=54
53613 On ch=10 n=62 v=117
53618 On ch=10 n=33 v=0
53618 On ch=10 n=69 v=0
53619 On ch=10 n=65 v=0
53619 On ch=10 n=62 v=0
53641 On ch=10 n=69 v=123
53641 On ch=10 n=66 v=62
53642 On ch=10 n=56 v=96
53642 On ch=10 n=33 v=122
53644 On ch=10 n=64 v=122
53647 On ch=10 n=66 v=0
53647 On ch=10 n=69 v=0
53648 On ch=10 n=33 v=0
53648 On ch=10 n=56 v=0
53650 On ch=10 n=64 v=0
53671 On ch=10 n=69 v=90
53673 On ch=10 n=63 v=108
53677 On ch=10 n=69 v=0
53679 On ch=10 n=63 v=0
53686 On ch=10 n=68 v=86
53692 On ch=10 n=68 v=0
53699 On ch=10 n=66 v=96
53701 On ch=10 n=69 v=100
53703 On ch=10 n=64 v=98
53703 On ch=10 n=62 v=81
53705 On ch=10 n=66 v=0
53707 On ch=10 n=69 v=0
53709 On ch=10 n=64 v=0
53709 On ch=10 n=62 v=0
53729 On ch=10 n=69 v=95
53730 On ch=10 n=65 v=87
53732 On ch=10 n=63 v=122
53735 On ch=10 n=69 v=0
53736 On ch=10 n=65 v=0
53738 On ch=10 n=63 v=0
53759 On ch=10 n=69 v=122
53761 On ch=10 n=56 v=105
53763 On ch=10 n=65 v=70
53763 On ch=10 n=64 v=117
53765 On ch=10 n=69 v=0
53765 On ch=10 n=68 v=98
53767 On ch=10 n=56 v=0
53769 On ch=10 n=64 v=0
53769 On ch=10 n=65 v=0
53771 On ch=10 n=68 v=0
53788 On ch=10 n=69 v=79
53791 On ch=10 n=66 v=89
53792 On ch=10 n=63 v=112
53794 On ch=10 n=69 v=0
53797 On ch=10 n=66 v=0
53798 On ch=10 n=63 v=0
53819 On ch=10 n=33 v=69
53821 On ch=10 n=69 v=108
53821 On ch=10 n=65 v=79
53825 On ch=10 n=33 v=0
53827 On ch=10 n=65 v=0
53827 On ch=10 n=69 v=0
53844 On ch=10 n=68 v=85
53850 On ch=10 n=68 v=0
53850 On ch=10 n=33 v=112
53851 On ch=10 n=69 v=87
53853 On ch=10 n=66 v=62
53853 On ch=10 n=62 v=77
53856 On ch=10 n=33 v=0
53857 On ch=10 n=69 v=0
53859 On ch=10 n=66 v=0
53859 On ch=10 n=62 v=0
53879 On ch=10 n=33 v=122
53881 On ch=10 n=69 v=122
53881 On ch=10 n=56 v=102
53882 On ch=10 n=65 v=92
53883 On ch=10 n=63 v=122
53885 On ch=10 n=33 v=0
53887 On ch=10 n=69 v=0
53887 On ch=10 n=56 v=0
53888 On ch=10 n=65 v=0
53889 On ch=10 n=63 v=0
53911 On ch=10 n=69 v=76
53912 On ch=10 n=66 v=83
53917 On ch=10 n=69 v=0
53918 On ch=10 n=66 v=0
53940 On ch=10 n=68 v=87
53942 On ch=10 n=69 v=108
53942 On ch=10 n=65 v=62
53942 On ch=10 n=63 v=121
53946 On ch=10 n=68 v=0
53948 On ch=10 n=69 v=0
53948 On ch=10 n=65 v=0
53948 On ch=10 n=63 v=0
53971 On ch=10 n=69 v=98
53971 On ch=10 n=65 v=95
53972 On ch=10 n=62 v=121
53977 On ch=10 n=65 v=0
53977 On ch=10 n=69 v=0
53978 On ch=10 n=62 v=0
53999 On ch=10 n=33 v=77
54001 On ch=10 n=56 v=105
54002 On ch=10 n=69 v=122
54002 On ch=10 n=65 v=95
54003 On ch=10 n=64 v=117
54003 On ch=10 n=68 v=108
54005 On ch=10 n=33 v=0
54007 On ch=10 n=56 v=0
54008 On ch=10 n=65 v=0
54008 On ch=10 n=69 v=0
54009 On ch=10 n=68 v=0
54009 On ch=10 n=64 v=0
54031 On ch=10 n=69 v=85
54031 On ch=10 n=62 v=112
54032 On ch=10 n=65 v=83
54037 On ch=10 n=62 v=0
54037 On ch=10 n=69 v=0
54038 On ch=10 n=65 v=0
54057 On ch=10 n=33 v=86
54061 On ch=10 n=65 v=83
54061 On ch=10 n=64 v=114
54062 On ch=10 n=69 v=98
54063 On ch=10 n=33 v=0
54067 On ch=10 n=65 v=0
54067 On ch=10 n=64 v=0
54068 On ch=10 n=69 v=0
54082 On ch=10 n=68 v=74
54088 On ch=10 n=68 v=0
54088 On ch=10 n=33 v=112
54091 On ch=10 n=69 v=85
54091 On ch=10 n=62 v=120
54093 On ch=10 n=65 v=95
54094 On ch=10 n=33 v=0
54097 On ch=10 n=69 v=0
54097 On ch=10 n=62 v=0
54099 On ch=10 n=65 v=0
54119 On ch=10 n=33 v=121
54120 On ch=10 n=56 v=105
54121 On ch=10 n=69 v=123
54121 On ch=10 n=63 v=122
54124 On ch=10 n=65 v=98
54125 On ch=10 n=33 v=0
54126 On ch=10 n=56 v=0
54127 On ch=10 n=63 v=0
54127 On ch=10 n=69 v=0
54130 On ch=10 n=65 v=0
54149 On ch=10 n=33 v=98
54151 On ch=10 n=69 v=86
54151 On ch=10 n=65 v=89
54151 On ch=10 n=62 v=104
54155 On ch=10 n=33 v=0
54157 On ch=10 n=69 v=0
54157 On ch=10 n=65 v=0
54157 On ch=10 n=62 v=0
54163 On ch=10 n=68 v=87
54169 On ch=10 n=68 v=0
54181 On ch=10 n=69 v=104
54181 On ch=10 n=64 v=117
54181 On ch=10 n=33 v=117
54182 On ch=10 n=65 v=86
54183 On ch=10 n=62 v=108
54187 On ch=10 n=33 v=0
54187 On ch=10 n=69 v=0
54187 On ch=10 n=64 v=0
54188 On ch=10 n=65 v=0
54189 On ch=10 n=62 v=0
54212 On ch=10 n=69 v=104
54213 On ch=10 n=65 v=95
54213 On ch=10 n=63 v=100
54218 On ch=10 n=69 v=0
54219 On ch=10 n=63 v=0
54219 On ch=10 n=65 v=0
54238 On ch=10 n=68 v=108
54241 On ch=10 n=69 v=122
54241 On ch=10 n=56 v=105
54241 On ch=10 n=66 v=97
54241 On ch=10 n=64 v=108
54241 On ch=10 n=62 v=98
54244 On ch=10 n=68 v=0
54247 On ch=10 n=56 v=0
54247 On ch=10 n=66 v=0
54247 On ch=10 n=69 v=0
54247 On ch=10 n=62 v=0
54247 On ch=10 n=64 v=0
54271 On ch=10 n=69 v=87
54272 On ch=10 n=65 v=95
54272 On ch=10 n=63 v=117
54277 On ch=10 n=69 v=0
54278 On ch=10 n=63 v=0
54278 On ch=10 n=65 v=0
54301 On ch=10 n=69 v=95
54301 On ch=10 n=64 v=117
54302 On ch=10 n=66 v=95
54303 On ch=10 n=33 v=100
54307 On ch=10 n=64 v=0
54307 On ch=10 n=69 v=0
54308 On ch=10 n=66 v=0
54309 On ch=10 n=33 v=0
54319 On ch=10 n=68 v=72
54325 On ch=10 n=68 v=0
54331 On ch=10 n=66 v=95
54331 On ch=10 n=63 v=122
54332 On ch=10 n=69 v=100
54334 On ch=10 n=33 v=120
54337 On ch=10 n=63 v=0
54337 On ch=10 n=66 v=0
54338 On ch=10 n=69 v=0
54340 On ch=10 n=33 v=0
54361 On ch=10 n=56 v=105
54362 On ch=10 n=69 v=123
54362 On ch=10 n=65 v=95
54363 On ch=10 n=62 v=121
54367 On ch=10 n=56 v=0
54368 On ch=10 n=69 v=0
54368 On ch=10 n=65 v=0
54369 On ch=10 n=62 v=0
54390 On ch=10 n=69 v=93
54393 On ch=10 n=66 v=86
54396 On ch=10 n=69 v=0
54399 On ch=10 n=66 v=0
54401 On ch=10 n=68 v=95
54407 On ch=10 n=68 v=0
54415 On ch=10 n=62 v=74
54421 On ch=10 n=62 v=0
54422 On ch=10 n=69 v=98
54422 On ch=10 n=63 v=100
54428 On ch=10 n=63 v=0
54428 On ch=10 n=69 v=0
54450 On ch=10 n=66 v=95
54452 On ch=10 n=69 v=108
54452 On ch=10 n=62 v=111
54456 On ch=10 n=66 v=0
54458 On ch=10 n=62 v=0
54458 On ch=10 n=69 v=0
54479 On ch=10 n=68 v=98
54481 On ch=10 n=56 v=105
54481 On ch=10 n=65 v=95
54482 On ch=10 n=69 v=124
54482 On ch=10 n=33 v=68
54483 On ch=10 n=63 v=123
54485 On ch=10 n=68 v=0
54487 On ch=10 n=56 v=0
54487 On ch=10 n=65 v=0
54488 On ch=10 n=69 v=0
54488 On ch=10 n=33 v=0
54489 On ch=10 n=63 v=0
54511 On ch=10 n=69 v=86
54511 On ch=10 n=62 v=111
54512 On ch=10 n=65 v=87
54517 On ch=10 n=62 v=0
54517 On ch=10 n=69 v=0
54518 On ch=10 n=65 v=0
54536 On ch=10 n=33 v=104
54541 On ch=10 n=65 v=52
54541 On ch=10 n=64 v=117
54542 On ch=10 n=33 v=0
54542 On ch=10 n=69 v=87
54544 On ch=10 n=33 v=111
54547 On ch=10 n=64 v=0
54547 On ch=10 n=65 v=0
54548 On ch=10 n=69 v=0
54550 On ch=10 n=33 v=0
54557 On ch=10 n=68 v=77
54563 On ch=10 n=68 v=0
54571 On ch=10 n=69 v=112
54571 On ch=10 n=65 v=92
54572 On ch=10 n=63 v=122
54577 On ch=10 n=65 v=0
54577 On ch=10 n=69 v=0
54578 On ch=10 n=63 v=0
54598 On ch=10 n=33 v=122
54600 On ch=10 n=56 v=105
54601 On ch=10 n=69 v=123
54601 On ch=10 n=66 v=97
54602 On ch=10 n=64 v=122
54604 On ch=10 n=33 v=0
54606 On ch=10 n=56 v=0
54607 On ch=10 n=66 v=0
54607 On ch=10 n=69 v=0
54608 On ch=10 n=64 v=0
54631 On ch=10 n=69 v=75
54632 On ch=10 n=66 v=95
54632 On ch=10 n=63 v=114
54637 On ch=10 n=69 v=0
54638 On ch=10 n=63 v=0
54638 On ch=10 n=66 v=0
54641 On ch=10 n=68 v=87
54647 On ch=10 n=68 v=0
54661 On ch=10 n=64 v=120
54662 On ch=10 n=69 v=95
54667 On ch=10 n=64 v=0
54668 On ch=10 n=69 v=0
54691 On ch=10 n=69 v=104
54691 On ch=10 n=66 v=79
54693 On ch=10 n=63 v=117
54697 On ch=10 n=66 v=0
54697 On ch=10 n=69 v=0
54699 On ch=10 n=63 v=0
54717 On ch=10 n=68 v=100
54717 On ch=10 n=33 v=60
54720 On ch=10 n=69 v=124
54720 On ch=10 n=56 v=107
54720 On ch=10 n=65 v=96
54720 On ch=10 n=62 v=120
54723 On ch=10 n=33 v=0
54723 On ch=10 n=68 v=0
54726 On ch=10 n=65 v=0
54726 On ch=10 n=56 v=0
54726 On ch=10 n=62 v=0
54726 On ch=10 n=69 v=0
54748 On ch=10 n=69 v=93
54751 On ch=10 n=66 v=89
54754 On ch=10 n=69 v=0
54757 On ch=10 n=66 v=0
54778 On ch=10 n=69 v=100
54778 On ch=10 n=68 v=95
54779 On ch=10 n=65 v=89
54781 On ch=10 n=63 v=120
54784 On ch=10 n=68 v=0
54784 On ch=10 n=69 v=0
54785 On ch=10 n=65 v=0
54785 On ch=10 n=33 v=95
54787 On ch=10 n=63 v=0
54791 On ch=10 n=33 v=0
54807 On ch=10 n=69 v=104
54808 On ch=10 n=62 v=117
54811 On ch=10 n=66 v=89
54813 On ch=10 n=69 v=0
54814 On ch=10 n=62 v=0
54817 On ch=10 n=66 v=0
54837 On ch=10 n=33 v=122
54839 On ch=10 n=69 v=124
54839 On ch=10 n=56 v=105
54839 On ch=10 n=63 v=124
54841 On ch=10 n=65 v=70
54843 On ch=10 n=33 v=0
54845 On ch=10 n=63 v=0
54845 On ch=10 n=69 v=0
54845 On ch=10 n=56 v=0
54847 On ch=10 n=65 v=0
54867 On ch=10 n=69 v=100
54869 On ch=10 n=65 v=92
54869 On ch=10 n=62 v=76
54873 On ch=10 n=69 v=0
54875 On ch=10 n=62 v=0
54875 On ch=10 n=65 v=0
54880 On ch=10 n=68 v=60
54886 On ch=10 n=68 v=0
54887 On ch=10 n=65 v=93
54893 On ch=10 n=65 v=0
54898 On ch=10 n=69 v=98
54898 On ch=10 n=66 v=99
54898 On ch=10 n=63 v=112
54902 On ch=10 n=65 v=100
54904 On ch=10 n=63 v=0
54904 On ch=10 n=69 v=0
54904 On ch=10 n=66 v=0
54908 On ch=10 n=65 v=0
54927 On ch=10 n=65 v=89
54928 On ch=10 n=69 v=104
54929 On ch=10 n=65 v=120
54929 On ch=10 n=62 v=122
54933 On ch=10 n=65 v=0
54934 On ch=10 n=69 v=0
54935 On ch=10 n=65 v=0
54935 On ch=10 n=62 v=0
54957 On ch=10 n=66 v=98
54958 On ch=10 n=69 v=123
54958 On ch=10 n=64 v=122
54959 On ch=10 n=56 v=99
54960 On ch=10 n=68 v=104
54963 On ch=10 n=66 v=0
54964 On ch=10 n=69 v=0
54964 On ch=10 n=64 v=0
54965 On ch=10 n=56 v=0
54966 On ch=10 n=68 v=0
54987 On ch=10 n=69 v=108
54987 On ch=10 n=65 v=92
54987 On ch=10 n=63 v=122
54991 On ch=10 n=65 v=114
54993 On ch=10 n=65 v=0
54993 On ch=10 n=63 v=0
54993 On ch=10 n=69 v=0
54997 On ch=10 n=65 v=0
55015 On ch=10 n=65 v=114
55018 On ch=10 n=64 v=117
55018 On ch=10 n=33 v=79
55019 On ch=10 n=69 v=112
55019 On ch=10 n=65 v=92
55021 On ch=10 n=65 v=0
55024 On ch=10 n=33 v=0
55024 On ch=10 n=64 v=0
55025 On ch=10 n=65 v=0
55025 On ch=10 n=69 v=0
55036 On ch=10 n=65 v=117
55042 On ch=10 n=65 v=0
55047 On ch=10 n=63 v=122
55048 On ch=10 n=65 v=95
55048 On ch=10 n=33 v=117
55049 On ch=10 n=69 v=112
55053 On ch=10 n=63 v=0
55054 On ch=10 n=65 v=0
55054 On ch=10 n=33 v=0
55054 On ch=10 n=65 v=114
55055 On ch=10 n=69 v=0
55060 On ch=10 n=65 v=0
55078 On ch=10 n=65 v=108
55078 On ch=10 n=62 v=122
55079 On ch=10 n=69 v=124
55079 On ch=10 n=56 v=107
55079 On ch=10 n=65 v=97
55079 On ch=10 n=33 v=122
55080 On ch=10 n=68 v=95
55084 On ch=10 n=65 v=0
55084 On ch=10 n=62 v=0
55085 On ch=10 n=69 v=0
55085 On ch=10 n=56 v=0
55085 On ch=10 n=65 v=0
55085 On ch=10 n=33 v=0
55086 On ch=10 n=68 v=0
55099 On ch=10 n=65 v=112
55105 On ch=10 n=65 v=0
55108 On ch=10 n=69 v=112
55108 On ch=10 n=62 v=121
55109 On ch=10 n=65 v=95
55114 On ch=10 n=62 v=0
55114 On ch=10 n=69 v=0
55115 On ch=10 n=65 v=0
55117 On ch=10 n=65 v=114
55123 On ch=10 n=65 v=0
55138 On ch=10 n=63 v=123
55139 On ch=10 n=69 v=117
55139 On ch=10 n=65 v=97
55141 On ch=10 n=65 v=108
55144 On ch=10 n=63 v=0
55145 On ch=10 n=69 v=0
55145 On ch=10 n=65 v=0
55147 On ch=10 n=65 v=0
55162 On ch=10 n=65 v=112
55168 On ch=10 n=65 v=0
55171 On ch=10 n=69 v=120
55171 On ch=10 n=65 v=99
55177 On ch=10 n=65 v=0
55177 On ch=10 n=69 v=0
55185 On ch=10 n=65 v=120
55191 On ch=10 n=65 v=0
55200 On ch=10 n=65 v=97
55200 On ch=10 n=63 v=120
55200 On ch=10 n=68 v=108
55201 On ch=10 n=69 v=122
55201 On ch=10 n=56 v=105
55203 On ch=10 n=33 v=121
55206 On ch=10 n=68 v=0
55206 On ch=10 n=65 v=0
55206 On ch=10 n=63 v=0
55207 On ch=10 n=69 v=0
55207 On ch=10 n=56 v=0
55209 On ch=10 n=33 v=0
55228 On ch=10 n=65 v=70
55229 On ch=10 n=69 v=86
55231 On ch=10 n=62 v=79
55234 On ch=10 n=65 v=0
55235 On ch=10 n=69 v=0
55237 On ch=10 n=62 v=0
55259 On ch=10 n=69 v=100
55259 On ch=10 n=63 v=95
55265 On ch=10 n=63 v=0
55265 On ch=10 n=69 v=0
55283 On ch=10 n=68 v=100
55287 On ch=10 n=65 v=89
55289 On ch=10 n=68 v=0
55291 On ch=10 n=69 v=112
55291 On ch=10 n=62 v=90
55293 On ch=10 n=65 v=0
55297 On ch=10 n=62 v=0
55297 On ch=10 n=69 v=0
55320 On ch=10 n=65 v=97
55321 On ch=10 n=33 v=87
55322 On ch=10 n=69 v=122
55322 On ch=10 n=64 v=122
55323 On ch=10 n=56 v=102
55326 On ch=10 n=65 v=0
55327 On ch=10 n=33 v=0
55328 On ch=10 n=64 v=0
55328 On ch=10 n=69 v=0
55329 On ch=10 n=56 v=0
55349 On ch=10 n=69 v=95
55351 On ch=10 n=62 v=85
55355 On ch=10 n=69 v=0
55357 On ch=10 n=62 v=0
55366 On ch=10 n=68 v=79
55372 On ch=10 n=68 v=0
55380 On ch=10 n=65 v=65
55381 On ch=10 n=69 v=112
55382 On ch=10 n=64 v=73
55386 On ch=10 n=65 v=0
55387 On ch=10 n=69 v=0
55388 On ch=10 n=64 v=0
55409 On ch=10 n=66 v=89
55411 On ch=10 n=69 v=95
55413 On ch=10 n=62 v=95
55415 On ch=10 n=66 v=0
55417 On ch=10 n=69 v=0
55419 On ch=10 n=62 v=0
55440 On ch=10 n=69 v=122
55440 On ch=10 n=65 v=95
55443 On ch=10 n=68 v=108
55444 On ch=10 n=56 v=102
55444 On ch=10 n=63 v=122
55444 On ch=10 n=33 v=100
55446 On ch=10 n=65 v=0
55446 On ch=10 n=69 v=0
55449 On ch=10 n=68 v=0
55450 On ch=10 n=56 v=0
55450 On ch=10 n=63 v=0
55450 On ch=10 n=33 v=0
55469 On ch=10 n=69 v=79
55473 On ch=10 n=62 v=98
55475 On ch=10 n=69 v=0
55479 On ch=10 n=62 v=0
55501 On ch=10 n=69 v=108
55502 On ch=10 n=65 v=70
55502 On ch=10 n=33 v=65
55503 On ch=10 n=63 v=117
55507 On ch=10 n=69 v=0
55508 On ch=10 n=65 v=0
55508 On ch=10 n=33 v=0
55509 On ch=10 n=63 v=0
55523 On ch=10 n=68 v=79
55529 On ch=10 n=68 v=0
55532 On ch=10 n=69 v=83
55532 On ch=10 n=33 v=112
55533 On ch=10 n=65 v=54
55533 On ch=10 n=62 v=117
55538 On ch=10 n=33 v=0
55538 On ch=10 n=69 v=0
55539 On ch=10 n=65 v=0
55539 On ch=10 n=62 v=0
55561 On ch=10 n=69 v=123
55561 On ch=10 n=66 v=62
55562 On ch=10 n=56 v=96
55562 On ch=10 n=33 v=122
55564 On ch=10 n=64 v=122
55567 On ch=10 n=66 v=0
55567 On ch=10 n=69 v=0
55568 On ch=10 n=33 v=0
55568 On ch=10 n=56 v=0
55570 On ch=10 n=64 v=0
55591 On ch=10 n=69 v=90
55593 On ch=10 n=63 v=108
55597 On ch=10 n=69 v=0
55599 On ch=10 n=63 v=0
55606 On ch=10 n=68 v=86
55612 On ch=10 n=68 v=0
55619 On ch=10 n=66 v=96
55621 On ch=10 n=69 v=100
55623 On ch=10 n=64 v=98
55623 On ch=10 n=62 v=81
55625 On ch=10 n=66 v=0
55627 On ch=10 n=69 v=0
55629 On ch=10 n=64 v=0
55629 On ch=10 n=62 v=0
55649 On ch=10 n=69 v=95
55650 On ch=10 n=65 v=87
55652 On ch=10 n=63 v=122
55655 On ch=10 n=69 v=0
55656 On ch=10 n=65 v=0
55658 On ch=10 n=63 v=0
55679 On ch=10 n=69 v=122
55681 On ch=10 n=56 v=105
55683 On ch=10 n=65 v=70
55683 On ch=10 n=64 v=117
55685 On ch=10 n=69 v=0
55685 On ch=10 n=68 v=98
55687 On ch=10 n=56 v=0
55689 On ch=10 n=64 v=0
55689 On ch=10 n=65 v=0
55691 On ch=10 n=68 v=0
55708 On ch=10 n=69 v=79
55711 On ch=10 n=66 v=89
55712 On ch=10 n=63 v=112
55714 On ch=10 n=69 v=0
55717 On ch=10 n=66 v=0
55718 On ch=10 n=63 v=0
55739 On ch=10 n=33 v=69
55741 On ch=10 n=69 v=108
55741 On ch=10 n=65 v=79
55745 On ch=10 n=33 v=0
55747 On ch=10 n=65 v=0
55747 On ch=10 n=69 v=0
55764 On ch=10 n=68 v=85
55770 On ch=10 n=68 v=0
55770 On ch=10 n=33 v=112
55771 On ch=10 n=69 v=87
55773 On ch=10 n=66 v=62
55773 On ch=10 n=62 v=77
55776 On ch=10 n=33 v=0
55777 On ch=10 n=69 v=0
55779 On ch=10 n=66 v=0
55779 On ch=10 n=62 v=0
55799 On ch=10 n=33 v=122
55801 On ch=10 n=69 v=122
55801 On ch=10 n=56 v=102
55802 On ch=10 n=65 v=92
55803 On ch=10 n=63 v=122
55805 On ch=10 n=33 v=0
55807 On ch=10 n=69 v=0
55807 On ch=10 n=56 v=0
55808 On ch=10 n=65 v=0
55809 On ch=10 n=63 v=0
55831 On ch=10 n=69 v=76
55832 On ch=10 n=66 v=83
55837 On ch=10 n=69 v=0
55838 On ch=10 n=66 v=0
55860 On ch=10 n=68 v=87
55862 On ch=10 n=69 v=108
55862 On ch=10 n=65 v=62
55862 On ch=10 n=63 v=121
55866 On ch=10 n=68 v=0
55868 On ch=10 n=69 v=0
55868 On ch=10 n=65 v=0
55868 On ch=10 n=63 v=0
55891 On ch=10 n=69 v=98
55891 On ch=10 n=65 v=95
55892 On ch=10 n=62 v=121
55897 On ch=10 n=65 v=0
55897 On ch=10 n=69 v=0
55898 On ch=10 n=62 v=0
55919 On ch=10 n=33 v=77
55921 On ch=10 n=56 v=105
55922 On ch=10 n=69 v=122
55922 On ch=10 n=65 v=95
55923 On ch=10 n=64 v=117
55923 On ch=10 n=68 v=108
55925 On ch=10 n=33 v=0
55927 On ch=10 n=56 v=0
55928 On ch=10 n=65 v=0
55928 On ch=10 n=69 v=0
55929 On ch=10 n=68 v=0
55929 On ch=10 n=64 v=0
55951 On ch=10 n=69 v=85
55951 On ch=10 n=62 v=112
55952 On ch=10 n=65 v=83
55957 On ch=10 n=62 v=0
55957 On ch=10 n=69 v=0
55958 On ch=10 n=65 v=0
55977 On ch=10 n=33 v=86
55981 On ch=10 n=65 v=83
55981 On ch=10 n=64 v=114
55982 On ch=10 n=69 v=98
55983 On ch=10 n=33 v=0
55987 On ch=10 n=65 v=0
55987 On ch=10 n=64 v=0
55988 On ch=10 n=69 v=0
56002 On ch=10 n=68 v=74
56008 On ch=10 n=68 v=0
56008 On ch=10 n=33 v=112
56011 On ch=10 n=69 v=85
56011 On ch=10 n=62 v=120
56013 On ch=10 n=65 v=95
56014 On ch=10 n=33 v=0
56017 On ch=10 n=69 v=0
56017 On ch=10 n=62 v=0
56019 On ch=10 n=65 v=0
56039 On ch=10 n=33 v=121
56040 On ch=10 n=56 v=105
56041 On ch=10 n=69 v=123
56041 On ch=10 n=63 v=122
56044 On ch=10 n=65 v=98
56045 On ch=10 n=33 v=0
56046 On ch=10 n=56 v=0
56047 On ch=10 n=63 v=0
56047 On ch=10 n=69 v=0
56050 On ch=10 n=65 v=0
56069 On ch=10 n=33 v=98
56071 On ch=10 n=69 v=86
56071 On ch=10 n=65 v=89
56071 On ch=10 n=62 v=104
56075 On ch=10 n=33 v=0
56077 On ch=10 n=69 v=0
56077 On ch=10 n=65 v=0
56077 On ch=10 n=62 v=0
56083 On ch=10 n=68 v=87
56089 On ch=10 n=68 v=0
56101 On ch=10 n=69 v=104
56101 On ch=10 n=64 v=117
56101 On ch=10 n=33 v=117
56102 On ch=10 n=65 v=86
56103 On ch=10 n=62 v=108
56107 On ch=10 n=33 v=0
56107 On ch=10 n=69 v=0
56107 On ch=10 n=64 v=0
56108 On ch=10 n=65 v=0
56109 On ch=10 n=62 v=0
56132 On ch=10 n=69 v=104
56133 On ch=10 n=65 v=95
56133 On ch=10 n=63 v=100
56138 On ch=10 n=69 v=0
56139 On ch=10 n=63 v=0
56139 On ch=10 n=65 v=0
56158 On ch=10 n=68 v=108
56161 On ch=10 n=69 v=122
56161 On ch=10 n=56 v=105
56161 On ch=10 n=66 v=97
56161 On ch=10 n=64 v=108
56161 On ch=10 n=62 v=98
56164 On ch=10 n=68 v=0
56167 On ch=10 n=56 v=0
56167 On ch=10 n=66 v=0
56167 On ch=10 n=69 v=0
56167 On ch=10 n=62 v=0
56167 On ch=10 n=64 v=0
56191 On ch=10 n=69 v=87
56192 On ch=10 n=65 v=95
56192 On ch=10 n=63 v=117
56197 On ch=10 n=69 v=0
56198 On ch=10 n=63 v=0
56198 On ch=10 n=65 v=0
56221 On ch=10 n=69 v=95
56221 On ch=10 n=64 v=117
56222 On ch=10 n=66 v=95
56223 On ch=10 n=33 v=100
56227 On ch=10 n=64 v=0
56227 On ch=10 n=69 v=0
56228 On ch=10 n=66 v=0
56229 On ch=10 n=33 v=0
56239 On ch=10 n=68 v=72
56245 On ch=10 n=68 v=0
56251 On ch=10 n=66 v=95
56251 On ch=10 n=63 v=122
56252 On ch=10 n=69 v=100
56254 On ch=10 n=33 v=120
56257 On ch=10 n=63 v=0
56257 On ch=10 n=66 v=0
56258 On ch=10 n=69 v=0
56260 On ch=10 n=33 v=0
56281 On ch=10 n=56 v=105
56282 On ch=10 n=69 v=123
56282 On ch=10 n=65 v=95
56283 On ch=10 n=62 v=121
56287 On ch=10 n=56 v=0
56288 On ch=10 n=69 v=0
56288 On ch=10 n=65 v=0
56289 On ch=10 n=62 v=0
56310 On ch=10 n=69 v=93
56313 On ch=10 n=66 v=86
56316 On ch=10 n=69 v=0
56319 On ch=10 n=66 v=0
56321 On ch=10 n=68 v=95
56327 On ch=10 n=68 v=0
56335 On ch=10 n=62 v=74
56341 On ch=10 n=62 v=0
56342 On ch=10 n=69 v=98
56342 On ch=10 n=63 v=100
56348 On ch=10 n=63 v=0
56348 On ch=10 n=69 v=0
56370 On ch=10 n=66 v=95
56372 On ch=10 n=69 v=108
56372 On ch=10 n=62 v=111
56376 On ch=10 n=66 v=0
56378 On ch=10 n=62 v=0
56378 On ch=10 n=69 v=0
56399 On ch=10 n=68 v=98
56401 On ch=10 n=56 v=105
56401 On ch=10 n=65 v=95
56402 On ch=10 n=69 v=124
56402 On ch=10 n=33 v=68
56403 On ch=10 n=63 v=123
56405 On ch=10 n=68 v=0
56407 On ch=10 n=56 v=0
56407 On ch=10 n=65 v=0
56408 On ch=10 n=69 v=0
56408 On ch=10 n=33 v=0
56409 On ch=10 n=63 v=0
56431 On ch=10 n=69 v=86
56431 On ch=10 n=62 v=111
56432 On ch=10 n=65 v=87
56437 On ch=10 n=62 v=0
56437 On ch=10 n=69 v=0
56438 On ch=10 n=65 v=0
56456 On ch=10 n=33 v=104
56461 On ch=10 n=65 v=52
56461 On ch=10 n=64 v=117
56462 On ch=10 n=33 v=0
56462 On ch=10 n=69 v=87
56464 On ch=10 n=33 v=111
56467 On ch=10 n=64 v=0
56467 On ch=10 n=65 v=0
56468 On ch=10 n=69 v=0
56470 On ch=10 n=33 v=0
56477 On ch=10 n=68 v=77
56483 On ch=10 n=68 v=0
56491 On ch=10 n=69 v=112
56491 On ch=10 n=65 v=92
56492 On ch=10 n=63 v=122
56497 On ch=10 n=65 v=0
56497 On ch=10 n=69 v=0
56498 On ch=10 n=63 v=0
56518 On ch=10 n=33 v=122
56520 On ch=10 n=56 v=105
56521 On ch=10 n=69 v=123
56521 On ch=10 n=66 v=97
56522 On ch=10 n=64 v=122
56524 On ch=10 n=33 v=0
56526 On ch=10 n=56 v=0
56527 On ch=10 n=66 v=0
56527 On ch=10 n=69 v=0
56528 On ch=10 n=64 v=0
56551 On ch=10 n=69 v=75
56552 On ch=10 n=66 v=95
56552 On ch=10 n=63 v=114
56557 On ch=10 n=69 v=0
56558 On ch=10 n=63 v=0
56558 On ch=10 n=66 v=0
56561 On ch=10 n=68 v=87
56567 On ch=10 n=68 v=0
56581 On ch=10 n=64 v=120
56582 On ch=10 n=69 v=95
56587 On ch=10 n=64 v=0
56588 On ch=10 n=69 v=0
56611 On ch=10 n=69 v=104
56611 On ch=10 n=66 v=79
56613 On ch=10 n=63 v=117
56617 On ch=10 n=66 v=0
56617 On ch=10 n=69 v=0
56619 On ch=10 n=63 v=0
56637 On ch=10 n=68 v=100
56637 On ch=10 n=33 v=60
56640 On ch=10 n=69 v=124
56640 On ch=10 n=56 v=107
56640 On ch=10 n=65 v=96
56640 On ch=10 n=62 v=120
56643 On ch=10 n=33 v=0
56643 On ch=10 n=68 v=0
56646 On ch=10 n=65 v=0
56646 On ch=10 n=56 v=0
56646 On ch=10 n=62 v=0
56646 On ch=10 n=69 v=0
56668 On ch=10 n=69 v=93
56671 On ch=10 n=66 v=89
56674 On ch=10 n=69 v=0
56677 On ch=10 n=66 v=0
56698 On ch=10 n=69 v=100
56698 On ch=10 n=68 v=95
56699 On ch=10 n=65 v=89
56701 On ch=10 n=63 v=120
56704 On ch=10 n=68 v=0
56704 On ch=10 n=69 v=0
56705 On ch=10 n=65 v=0
56705 On ch=10 n=66 v=100
56705 On ch=10 n=33 v=95
56707 On ch=10 n=63 v=0
56711 On ch=10 n=33 v=0
56711 On ch=10 n=66 v=0
56718 On ch=10 n=66 v=104
56724 On ch=10 n=66 v=0
56727 On ch=10 n=69 v=104
56728 On ch=10 n=62 v=117
56731 On ch=10 n=66 v=89
56733 On ch=10 n=69 v=0
56734 On ch=10 n=62 v=0
56737 On ch=10 n=66 v=0
56742 On ch=10 n=66 v=111
56748 On ch=10 n=66 v=0
56757 On ch=10 n=66 v=112
56757 On ch=10 n=33 v=122
56759 On ch=10 n=69 v=124
56759 On ch=10 n=56 v=105
56759 On ch=10 n=63 v=124
56761 On ch=10 n=65 v=70
56763 On ch=10 n=33 v=0
56763 On ch=10 n=66 v=0
56765 On ch=10 n=63 v=0
56765 On ch=10 n=56 v=0
56765 On ch=10 n=69 v=0
56767 On ch=10 n=65 v=0
56776 On ch=10 n=66 v=117
56782 On ch=10 n=66 v=0
56787 On ch=10 n=69 v=100
56789 On ch=10 n=65 v=92
56789 On ch=10 n=62 v=76
56793 On ch=10 n=69 v=0
56795 On ch=10 n=62 v=0
56795 On ch=10 n=65 v=0
56800 On ch=10 n=68 v=60
56806 On ch=10 n=68 v=0
56818 On ch=10 n=69 v=98
56818 On ch=10 n=66 v=99
56818 On ch=10 n=63 v=112
56824 On ch=10 n=63 v=0
56824 On ch=10 n=66 v=0
56824 On ch=10 n=69 v=0
56839 On ch=10 n=66 v=112
56845 On ch=10 n=66 v=0
56847 On ch=10 n=65 v=89
56848 On ch=10 n=69 v=104
56849 On ch=10 n=62 v=122
56853 On ch=10 n=65 v=0
56854 On ch=10 n=69 v=0
56855 On ch=10 n=62 v=0
56860 On ch=10 n=66 v=108
56866 On ch=10 n=66 v=0
56877 On ch=10 n=66 v=98
56878 On ch=10 n=69 v=123
56878 On ch=10 n=66 v=114
56878 On ch=10 n=64 v=122
56879 On ch=10 n=56 v=99
56880 On ch=10 n=68 v=104
56883 On ch=10 n=66 v=0
56884 On ch=10 n=64 v=0
56884 On ch=10 n=66 v=0
56884 On ch=10 n=69 v=0
56885 On ch=10 n=56 v=0
56886 On ch=10 n=68 v=0
56899 On ch=10 n=66 v=108
56905 On ch=10 n=66 v=0
56907 On ch=10 n=69 v=108
56907 On ch=10 n=65 v=92
56907 On ch=10 n=63 v=122
56913 On ch=10 n=63 v=0
56913 On ch=10 n=65 v=0
56913 On ch=10 n=69 v=0
56917 On ch=10 n=66 v=122
56923 On ch=10 n=66 v=0
56933 On ch=10 n=66 v=123
56938 On ch=10 n=64 v=117
56938 On ch=10 n=33 v=79
56939 On ch=10 n=66 v=0
56939 On ch=10 n=69 v=112
56939 On ch=10 n=65 v=92
56944 On ch=10 n=33 v=0
56944 On ch=10 n=64 v=0
56945 On ch=10 n=69 v=0
56945 On ch=10 n=65 v=0
56967 On ch=10 n=63 v=122
56968 On ch=10 n=65 v=95
56968 On ch=10 n=33 v=117
56969 On ch=10 n=69 v=112
56973 On ch=10 n=63 v=0
56974 On ch=10 n=65 v=0
56974 On ch=10 n=33 v=0
56975 On ch=10 n=69 v=0
56998 On ch=10 n=66 v=100
56998 On ch=10 n=62 v=122
56999 On ch=10 n=69 v=124
56999 On ch=10 n=56 v=107
56999 On ch=10 n=65 v=97
56999 On ch=10 n=33 v=122
57000 On ch=10 n=68 v=95
57004 On ch=10 n=62 v=0
57004 On ch=10 n=66 v=0
57005 On ch=10 n=69 v=0
57005 On ch=10 n=65 v=0
57005 On ch=10 n=56 v=0
57005 On ch=10 n=33 v=0
57006 On ch=10 n=68 v=0
57019 On ch=10 n=66 v=93
57025 On ch=10 n=66 v=0
57028 On ch=10 n=69 v=112
57028 On ch=10 n=62 v=121
57029 On ch=10 n=65 v=95
57034 On ch=10 n=62 v=0
57034 On ch=10 n=69 v=0
57035 On ch=10 n=65 v=0
57035 On ch=10 n=66 v=121
57041 On ch=10 n=66 v=0
57058 On ch=10 n=63 v=123
57059 On ch=10 n=69 v=117
57059 On ch=10 n=65 v=97
57059 On ch=10 n=66 v=111
57064 On ch=10 n=63 v=0
57065 On ch=10 n=69 v=0
57065 On ch=10 n=65 v=0
57065 On ch=10 n=66 v=0
57077 On ch=10 n=66 v=121
57083 On ch=10 n=66 v=0
57091 On ch=10 n=69 v=120
57091 On ch=10 n=65 v=99
57097 On ch=10 n=65 v=0
57097 On ch=10 n=69 v=0
57098 On ch=10 n=66 v=123
57104 On ch=10 n=66 v=0
57120 On ch=10 n=65 v=97
57120 On ch=10 n=63 v=120
57120 On ch=10 n=68 v=108
57121 On ch=10 n=69 v=122
57121 On ch=10 n=56 v=105
57123 On ch=10 n=33 v=121
57126 On ch=10 n=68 v=0
57126 On ch=10 n=65 v=0
57126 On ch=10 n=63 v=0
57127 On ch=10 n=69 v=0
57127 On ch=10 n=56 v=0
57129 On ch=10 n=33 v=0
57148 On ch=10 n=65 v=70
57149 On ch=10 n=69 v=86
57151 On ch=10 n=62 v=79
57154 On ch=10 n=65 v=0
57155 On ch=10 n=69 v=0
57157 On ch=10 n=62 v=0
57179 On ch=10 n=69 v=100
57179 On ch=10 n=63 v=95
57185 On ch=10 n=63 v=0
57185 On ch=10 n=69 v=0
57203 On ch=10 n=68 v=100
57207 On ch=10 n=65 v=89
57209 On ch=10 n=68 v=0
57211 On ch=10 n=69 v=112
57211 On ch=10 n=62 v=90
57213 On ch=10 n=65 v=0
57217 On ch=10 n=62 v=0
57217 On ch=10 n=69 v=0
57240 On ch=10 n=65 v=97
57241 On ch=10 n=33 v=87
57242 On ch=10 n=69 v=122
57242 On ch=10 n=64 v=122
57243 On ch=10 n=56 v=102
57246 On ch=10 n=65 v=0
57247 On ch=10 n=33 v=0
57248 On ch=10 n=64 v=0
57248 On ch=10 n=69 v=0
57249 On ch=10 n=56 v=0
57269 On ch=10 n=69 v=95
57271 On ch=10 n=62 v=85
57275 On ch=10 n=69 v=0
57277 On ch=10 n=62 v=0
57286 On ch=10 n=68 v=79
57292 On ch=10 n=68 v=0
57300 On ch=10 n=65 v=65
57301 On ch=10 n=69 v=112
57302 On ch=10 n=64 v=73
57306 On ch=10 n=65 v=0
57307 On ch=10 n=69 v=0
57308 On ch=10 n=64 v=0
57329 On ch=10 n=66 v=89
57331 On ch=10 n=69 v=95
57333 On ch=10 n=62 v=95
57335 On ch=10 n=66 v=0
57337 On ch=10 n=69 v=0
57339 On ch=10 n=62 v=0
57360 On ch=10 n=69 v=122
57360 On ch=10 n=65 v=95
57363 On ch=10 n=68 v=108
57364 On ch=10 n=56 v=102
57364 On ch=10 n=63 v=122
57364 On ch=10 n=33 v=100
57366 On ch=10 n=65 v=0
57366 On ch=10 n=69 v=0
57369 On ch=10 n=68 v=0
57370 On ch=10 n=56 v=0
57370 On ch=10 n=63 v=0
57370 On ch=10 n=33 v=0
57389 On ch=10 n=69 v=79
57393 On ch=10 n=62 v=98
57395 On ch=10 n=69 v=0
57399 On ch=10 n=62 v=0
57421 On ch=10 n=69 v=108
57422 On ch=10 n=65 v=70
57422 On ch=10 n=33 v=65
57423 On ch=10 n=63 v=117
57427 On ch=10 n=69 v=0
57428 On ch=10 n=65 v=0
57428 On ch=10 n=33 v=0
57429 On ch=10 n=63 v=0
57443 On ch=10 n=68 v=79
57449 On ch=10 n=68 v=0
57452 On ch=10 n=69 v=83
57452 On ch=10 n=33 v=112
57453 On ch=10 n=65 v=54
57453 On ch=10 n=62 v=117
57458 On ch=10 n=33 v=0
57458 On ch=10 n=69 v=0
57459 On ch=10 n=65 v=0
57459 On ch=10 n=62 v=0
57481 On ch=10 n=69 v=123
57481 On ch=10 n=66 v=62
57482 On ch=10 n=56 v=96
57482 On ch=10 n=33 v=122
57484 On ch=10 n=64 v=122
57487 On ch=10 n=66 v=0
57487 On ch=10 n=69 v=0
57488 On ch=10 n=33 v=0
57488 On ch=10 n=56 v=0
57490 On ch=10 n=64 v=0
57511 On ch=10 n=69 v=90
57513 On ch=10 n=63 v=108
57517 On ch=10 n=69 v=0
57519 On ch=10 n=63 v=0
57526 On ch=10 n=68 v=86
57532 On ch=10 n=68 v=0
57539 On ch=10 n=66 v=96
57541 On ch=10 n=69 v=100
57543 On ch=10 n=64 v=98
57543 On ch=10 n=62 v=81
57545 On ch=10 n=66 v=0
57547 On ch=10 n=69 v=0
57549 On ch=10 n=64 v=0
57549 On ch=10 n=62 v=0
57569 On ch=10 n=69 v=95
57570 On ch=10 n=65 v=87
57572 On ch=10 n=63 v=122
57575 On ch=10 n=69 v=0
57576 On ch=10 n=65 v=0
57578 On ch=10 n=63 v=0
57599 On ch=10 n=69 v=122
57601 On ch=10 n=56 v=105
57603 On ch=10 n=65 v=70
57603 On ch=10 n=64 v=117
57605 On ch=10 n=69 v=0
57605 On ch=10 n=68 v=98
57607 On ch=10 n=56 v=0
57609 On ch=10 n=64 v=0
57609 On ch=10 n=65 v=0
57611 On ch=10 n=68 v=0
57628 On ch=10 n=69 v=79
57631 On ch=10 n=66 v=89
57632 On ch=10 n=63 v=112
57634 On ch=10 n=69 v=0
57637 On ch=10 n=66 v=0
57638 On ch=10 n=63 v=0
57659 On ch=10 n=33 v=69
57661 On ch=10 n=69 v=108
57661 On ch=10 n=65 v=79
57665 On ch=10 n=33 v=0
57667 On ch=10 n=65 v=0
57667 On ch=10 n=69 v=0
57684 On ch=10 n=68 v=85
57690 On ch=10 n=68 v=0
57690 On ch=10 n=33 v=112
57691 On ch=10 n=69 v=87
57693 On ch=10 n=66 v=62
57693 On ch=10 n=62 v=77
57696 On ch=10 n=33 v=0
57697 On ch=10 n=69 v=0
57699 On ch=10 n=66 v=0
57699 On ch=10 n=62 v=0
57719 On ch=10 n=33 v=122
57721 On ch=10 n=69 v=122
57721 On ch=10 n=56 v=102
57722 On ch=10 n=65 v=92
57723 On ch=10 n=63 v=122
57725 On ch=10 n=33 v=0
57727 On ch=10 n=69 v=0
57727 On ch=10 n=56 v=0
57728 On ch=10 n=65 v=0
57729 On ch=10 n=63 v=0
57751 On ch=10 n=69 v=76
57752 On ch=10 n=66 v=83
57757 On ch=10 n=69 v=0
57758 On ch=10 n=66 v=0
57780 On ch=10 n=68 v=87
57782 On ch=10 n=69 v=108
57782 On ch=10 n=65 v=62
57782 On ch=10 n=63 v=121
57786 On ch=10 n=68 v=0
57788 On ch=10 n=69 v=0
57788 On ch=10 n=65 v=0
57788 On ch=10 n=63 v=0
57811 On ch=10 n=69 v=98
57811 On ch=10 n=65 v=95
57812 On ch=10 n=62 v=121
57817 On ch=10 n=65 v=0
57817 On ch=10 n=69 v=0
57818 On ch=10 n=62 v=0
57839 On ch=10 n=33 v=77
57841 On ch=10 n=56 v=105
57842 On ch=10 n=69 v=122
57842 On ch=10 n=65 v=95
57843 On ch=10 n=64 v=117
57843 On ch=10 n=68 v=108
57845 On ch=10 n=33 v=0
57847 On ch=10 n=56 v=0
57848 On ch=10 n=65 v=0
57848 On ch=10 n=69 v=0
57849 On ch=10 n=68 v=0
57849 On ch=10 n=64 v=0
57871 On ch=10 n=69 v=85
57871 On ch=10 n=62 v=112
57872 On ch=10 n=65 v=83
57877 On ch=10 n=62 v=0
57877 On ch=10 n=69 v=0
57878 On ch=10 n=65 v=0
57897 On ch=10 n=33 v=86
57901 On ch=10 n=65 v=83
57901 On ch=10 n=64 v=114
57902 On ch=10 n=69 v=98
57903 On ch=10 n=33 v=0
57907 On ch=10 n=65 v=0
57907 On ch=10 n=64 v=0
57908 On ch=10 n=69 v=0
57922 On ch=10 n=68 v=74
57928 On ch=10 n=68 v=0
57928 On ch=10 n=33 v=112
57931 On ch=10 n=69 v=85
57931 On ch=10 n=62 v=120
57933 On ch=10 n=65 v=95
57934 On ch=10 n=33 v=0
57937 On ch=10 n=69 v=0
57937 On ch=10 n=62 v=0
57939 On ch=10 n=65 v=0
57959 On ch=10 n=33 v=121
57960 On ch=10 n=56 v=105
57961 On ch=10 n=69 v=123
57961 On ch=10 n=63 v=122
57964 On ch=10 n=65 v=98
57965 On ch=10 n=33 v=0
57966 On ch=10 n=56 v=0
57967 On ch=10 n=63 v=0
57967 On ch=10 n=69 v=0
57970 On ch=10 n=65 v=0
57989 On ch=10 n=33 v=98
57991 On ch=10 n=69 v=86
57991 On ch=10 n=65 v=89
57991 On ch=10 n=62 v=104
57995 On ch=10 n=33 v=0
57997 On ch=10 n=69 v=0
57997 On ch=10 n=65 v=0
57997 On ch=10 n=62 v=0
58003 On ch=10 n=68 v=87
58009 On ch=10 n=68 v=0
58021 On ch=10 n=69 v=104
58021 On ch=10 n=64 v=117
58021 On ch=10 n=33 v=117
58022 On ch=10 n=65 v=86
58023 On ch=10 n=62 v=108
58027 On ch=10 n=33 v=0
58027 On ch=10 n=69 v=0
58027 On ch=10 n=64 v=0
58028 On ch=10 n=65 v=0
58029 On ch=10 n=62 v=0
58052 On ch=10 n=69 v=104
58053 On ch=10 n=65 v=95
58053 On ch=10 n=63 v=100
58058 On ch=10 n=69 v=0
58059 On ch=10 n=63 v=0
58059 On ch=10 n=65 v=0
58078 On ch=10 n=68 v=108
58081 On ch=10 n=69 v=122
58081 On ch=10 n=56 v=105
58081 On ch=10 n=66 v=97
58081 On ch=10 n=64 v=108
58081 On ch=10 n=62 v=98
58084 On ch=10 n=68 v=0
58087 On ch=10 n=56 v=0
58087 On ch=10 n=66 v=0
58087 On ch=10 n=69 v=0
58087 On ch=10 n=62 v=0
58087 On ch=10 n=64 v=0
58111 On ch=10 n=69 v=87
58112 On ch=10 n=65 v=95
58112 On ch=10 n=63 v=117
58117 On ch=10 n=69 v=0
58118 On ch=10 n=63 v=0
58118 On ch=10 n=65 v=0
58141 On ch=10 n=69 v=95
58141 On ch=10 n=64 v=117
58142 On ch=10 n=66 v=95
58143 On ch=10 n=33 v=100
58147 On ch=10 n=64 v=0
58147 On ch=10 n=69 v=0
58148 On ch=10 n=66 v=0
58149 On ch=10 n=33 v=0
58159 On ch=10 n=68 v=72
58165 On ch=10 n=68 v=0
58171 On ch=10 n=66 v=95
58171 On ch=10 n=63 v=122
58172 On ch=10 n=69 v=100
58174 On ch=10 n=33 v=120
58177 On ch=10 n=63 v=0
58177 On ch=10 n=66 v=0
58178 On ch=10 n=69 v=0
58180 On ch=10 n=33 v=0
58201 On ch=10 n=56 v=105
58202 On ch=10 n=69 v=123
58202 On ch=10 n=65 v=95
58203 On ch=10 n=62 v=121
58207 On ch=10 n=56 v=0
58208 On ch=10 n=69 v=0
58208 On ch=10 n=65 v=0
58209 On ch=10 n=62 v=0
58230 On ch=10 n=69 v=93
58233 On ch=10 n=66 v=86
58236 On ch=10 n=69 v=0
58239 On ch=10 n=66 v=0
58241 On ch=10 n=68 v=95
58247 On ch=10 n=68 v=0
58255 On ch=10 n=62 v=74
58261 On ch=10 n=62 v=0
58262 On ch=10 n=69 v=98
58262 On ch=10 n=63 v=100
58268 On ch=10 n=63 v=0
58268 On ch=10 n=69 v=0
58290 On ch=10 n=66 v=95
58292 On ch=10 n=69 v=108
58292 On ch=10 n=62 v=111
58296 On ch=10 n=66 v=0
58298 On ch=10 n=62 v=0
58298 On ch=10 n=69 v=0
58319 On ch=10 n=68 v=98
58321 On ch=10 n=56 v=105
58321 On ch=10 n=65 v=95
58322 On ch=10 n=69 v=124
58322 On ch=10 n=33 v=68
58323 On ch=10 n=63 v=123
58325 On ch=10 n=68 v=0
58327 On ch=10 n=56 v=0
58327 On ch=10 n=65 v=0
58328 On ch=10 n=69 v=0
58328 On ch=10 n=33 v=0
58329 On ch=10 n=63 v=0
58351 On ch=10 n=69 v=86
58351 On ch=10 n=62 v=111
58352 On ch=10 n=65 v=87
58357 On ch=10 n=62 v=0
58357 On ch=10 n=69 v=0
58358 On ch=10 n=65 v=0
58376 On ch=10 n=33 v=104
58381 On ch=10 n=65 v=52
58381 On ch=10 n=64 v=117
58382 On ch=10 n=33 v=0
58382 On ch=10 n=69 v=87
58384 On ch=10 n=33 v=111
58387 On ch=10 n=64 v=0
58387 On ch=10 n=65 v=0
58388 On ch=10 n=69 v=0
58390 On ch=10 n=33 v=0
58397 On ch=10 n=68 v=77
58403 On ch=10 n=68 v=0
58411 On ch=10 n=69 v=112
58411 On ch=10 n=65 v=92
58412 On ch=10 n=63 v=122
58417 On ch=10 n=65 v=0
58417 On ch=10 n=69 v=0
58418 On ch=10 n=63 v=0
58438 On ch=10 n=33 v=122
58440 On ch=10 n=56 v=105
58441 On ch=10 n=69 v=123
58441 On ch=10 n=66 v=97
58442 On ch=10 n=64 v=122
58444 On ch=10 n=33 v=0
58446 On ch=10 n=56 v=0
58447 On ch=10 n=66 v=0
58447 On ch=10 n=69 v=0
58448 On ch=10 n=64 v=0
58471 On ch=10 n=69 v=75
58472 On ch=10 n=66 v=95
58472 On ch=10 n=63 v=114
58477 On ch=10 n=69 v=0
58478 On ch=10 n=63 v=0
58478 On ch=10 n=66 v=0
58481 On ch=10 n=68 v=87
58487 On ch=10 n=68 v=0
58501 On ch=10 n=64 v=120
58502 On ch=10 n=69 v=95
58507 On ch=10 n=64 v=0
58508 On ch=10 n=69 v=0
58531 On ch=10 n=69 v=104
58531 On ch=10 n=66 v=79
58533 On ch=10 n=63 v=117
58537 On ch=10 n=66 v=0
58537 On ch=10 n=69 v=0
58539 On ch=10 n=63 v=0
58557 On ch=10 n=68 v=100
58557 On ch=10 n=33 v=60
58560 On ch=10 n=69 v=124
58560 On ch=10 n=56 v=107
58560 On ch=10 n=65 v=96
58560 On ch=10 n=62 v=120
58563 On ch=10 n=33 v=0
58563 On ch=10 n=68 v=0
58566 On ch=10 n=65 v=0
58566 On ch=10 n=56 v=0
58566 On ch=10 n=62 v=0
58566 On ch=10 n=69 v=0
58577 On ch=10 n=66 v=114
58583 On ch=10 n=66 v=0
58588 On ch=10 n=69 v=93
58591 On ch=10 n=66 v=89
58594 On ch=10 n=69 v=0
58597 On ch=10 n=66 v=0
58598 On ch=10 n=66 v=111
58604 On ch=10 n=66 v=0
58608 On ch=10 n=66 v=122
58614 On ch=10 n=66 v=0
58618 On ch=10 n=69 v=100
58618 On ch=10 n=68 v=95
58619 On ch=10 n=65 v=89
58621 On ch=10 n=63 v=120
58624 On ch=10 n=68 v=0
58624 On ch=10 n=69 v=0
58625 On ch=10 n=65 v=0
58625 On ch=10 n=33 v=95
58627 On ch=10 n=63 v=0
58631 On ch=10 n=33 v=0
58637 On ch=10 n=66 v=122
58643 On ch=10 n=66 v=0
58647 On ch=10 n=69 v=104
58648 On ch=10 n=62 v=117
58651 On ch=10 n=66 v=89
58653 On ch=10 n=69 v=0
58654 On ch=10 n=62 v=0
58657 On ch=10 n=66 v=0
58677 On ch=10 n=33 v=122
58679 On ch=10 n=69 v=124
58679 On ch=10 n=56 v=105
58679 On ch=10 n=63 v=124
58681 On ch=10 n=65 v=70
58683 On ch=10 n=33 v=0
58685 On ch=10 n=63 v=0
58685 On ch=10 n=69 v=0
58685 On ch=10 n=56 v=0
58687 On ch=10 n=65 v=0
58707 On ch=10 n=69 v=100
58708 On ch=10 n=66 v=121
58709 On ch=10 n=65 v=92
58709 On ch=10 n=62 v=76
58713 On ch=10 n=69 v=0
58714 On ch=10 n=66 v=0
58715 On ch=10 n=65 v=0
58715 On ch=10 n=62 v=0
58720 On ch=10 n=68 v=60
58726 On ch=10 n=68 v=0
58731 On ch=10 n=66 v=117
58737 On ch=10 n=66 v=0
58738 On ch=10 n=69 v=98
58738 On ch=10 n=66 v=99
58738 On ch=10 n=63 v=112
58744 On ch=10 n=63 v=0
58744 On ch=10 n=66 v=0
58744 On ch=10 n=69 v=0
58747 On ch=10 n=66 v=123
58753 On ch=10 n=66 v=0
58767 On ch=10 n=65 v=89
58768 On ch=10 n=69 v=104
58769 On ch=10 n=62 v=122
58773 On ch=10 n=65 v=0
58773 On ch=10 n=66 v=122
58774 On ch=10 n=69 v=0
58775 On ch=10 n=62 v=0
58779 On ch=10 n=66 v=0
58797 On ch=10 n=66 v=98
58798 On ch=10 n=69 v=123
58798 On ch=10 n=64 v=122
58799 On ch=10 n=56 v=99
58800 On ch=10 n=68 v=104
58803 On ch=10 n=66 v=0
58804 On ch=10 n=69 v=0
58804 On ch=10 n=64 v=0
58805 On ch=10 n=56 v=0
58806 On ch=10 n=68 v=0
58827 On ch=10 n=69 v=108
58827 On ch=10 n=65 v=92
58827 On ch=10 n=63 v=122
58833 On ch=10 n=63 v=0
58833 On ch=10 n=65 v=0
58833 On ch=10 n=69 v=0
58852 On ch=10 n=65 v=79
58858 On ch=10 n=65 v=0
58858 On ch=10 n=64 v=117
58858 On ch=10 n=33 v=79
58859 On ch=10 n=69 v=112
58859 On ch=10 n=65 v=92
58864 On ch=10 n=33 v=0
58864 On ch=10 n=64 v=0
58865 On ch=10 n=69 v=0
58865 On ch=10 n=65 v=0
58865 On ch=10 n=65 v=111
58871 On ch=10 n=65 v=0
58883 On ch=10 n=65 v=114
58887 On ch=10 n=63 v=122
58888 On ch=10 n=65 v=95
58888 On ch=10 n=33 v=117
58889 On ch=10 n=65 v=0
58889 On ch=10 n=69 v=112
58893 On ch=10 n=63 v=0
58894 On ch=10 n=33 v=0
58894 On ch=10 n=65 v=0
58895 On ch=10 n=69 v=0
58910 On ch=10 n=65 v=117
58916 On ch=10 n=65 v=0
58918 On ch=10 n=62 v=122
58919 On ch=10 n=69 v=124
58919 On ch=10 n=56 v=107
58919 On ch=10 n=65 v=97
58919 On ch=10 n=33 v=122
58920 On ch=10 n=68 v=95
58924 On ch=10 n=62 v=0
58925 On ch=10 n=33 v=0
58925 On ch=10 n=65 v=0
58925 On ch=10 n=69 v=0
58925 On ch=10 n=56 v=0
58925 On ch=10 n=65 v=114
58926 On ch=10 n=68 v=0
58931 On ch=10 n=65 v=0
58946 On ch=10 n=65 v=111
58948 On ch=10 n=69 v=112
58948 On ch=10 n=62 v=121
58949 On ch=10 n=65 v=95
58952 On ch=10 n=65 v=0
58954 On ch=10 n=62 v=0
58954 On ch=10 n=69 v=0
58955 On ch=10 n=65 v=0
58967 On ch=10 n=65 v=121
58973 On ch=10 n=65 v=0
58978 On ch=10 n=63 v=123
58979 On ch=10 n=69 v=117
58979 On ch=10 n=65 v=97
58984 On ch=10 n=63 v=0
58985 On ch=10 n=65 v=0
58985 On ch=10 n=69 v=0
58988 On ch=10 n=65 v=112
58994 On ch=10 n=65 v=0
59006 On ch=10 n=65 v=121
59011 On ch=10 n=69 v=120
59011 On ch=10 n=65 v=99
59012 On ch=10 n=65 v=0
59017 On ch=10 n=69 v=0
59017 On ch=10 n=65 v=0
59033 On ch=10 n=65 v=124
59039 On ch=10 n=65 v=0
59040 On ch=10 n=65 v=97
59040 On ch=10 n=63 v=120
59040 On ch=10 n=68 v=108
59041 On ch=10 n=69 v=122
59041 On ch=10 n=56 v=105
59043 On ch=10 n=33 v=121
59046 On ch=10 n=68 v=0
59046 On ch=10 n=65 v=0
59046 On ch=10 n=63 v=0
59047 On ch=10 n=69 v=0
59047 On ch=10 n=56 v=0
59049 On ch=10 n=33 v=0
59068 On ch=10 n=65 v=70
59069 On ch=10 n=69 v=86
59071 On ch=10 n=62 v=79
59074 On ch=10 n=65 v=0
59075 On ch=10 n=69 v=0
59077 On ch=10 n=62 v=0
59099 On ch=10 n=69 v=100
59099 On ch=10 n=63 v=95
59105 On ch=10 n=63 v=0
59105 On ch=10 n=69 v=0
59123 On ch=10 n=68 v=100
59127 On ch=10 n=65 v=89
59129 On ch=10 n=68 v=0
59131 On ch=10 n=69 v=112
59131 On ch=10 n=62 v=90
59133 On ch=10 n=65 v=0
59137 On ch=10 n=62 v=0
59137 On ch=10 n=69 v=0
59160 On ch=10 n=65 v=97
59161 On ch=10 n=33 v=87
59162 On ch=10 n=69 v=122
59162 On ch=10 n=64 v=122
59163 On ch=10 n=56 v=102
59166 On ch=10 n=65 v=0
59167 On ch=10 n=33 v=0
59168 On ch=10 n=64 v=0
59168 On ch=10 n=69 v=0
59169 On ch=10 n=56 v=0
59189 On ch=10 n=69 v=95
59191 On ch=10 n=62 v=85
59195 On ch=10 n=69 v=0
59197 On ch=10 n=62 v=0
59206 On ch=10 n=68 v=79
59212 On ch=10 n=68 v=0
59220 On ch=10 n=65 v=65
59221 On ch=10 n=69 v=112
59222 On ch=10 n=64 v=73
59226 On ch=10 n=65 v=0
59227 On ch=10 n=69 v=0
59228 On ch=10 n=64 v=0
59249 On ch=10 n=66 v=89
59251 On ch=10 n=69 v=95
59253 On ch=10 n=62 v=95
59255 On ch=10 n=66 v=0
59257 On ch=10 n=69 v=0
59259 On ch=10 n=62 v=0
59280 On ch=10 n=69 v=122
59280 On ch=10 n=65 v=95
59283 On ch=10 n=68 v=108
59284 On ch=10 n=56 v=102
59284 On ch=10 n=63 v=122
59284 On ch=10 n=33 v=100
59286 On ch=10 n=65 v=0
59286 On ch=10 n=69 v=0
59289 On ch=10 n=68 v=0
59290 On ch=10 n=56 v=0
59290 On ch=10 n=63 v=0
59290 On ch=10 n=33 v=0
59309 On ch=10 n=69 v=79
59313 On ch=10 n=62 v=98
59315 On ch=10 n=69 v=0
59319 On ch=10 n=62 v=0
59341 On ch=10 n=69 v=108
59342 On ch=10 n=65 v=70
59342 On ch=10 n=33 v=65
59343 On ch=10 n=63 v=117
59347 On ch=10 n=69 v=0
59348 On ch=10 n=65 v=0
59348 On ch=10 n=33 v=0
59349 On ch=10 n=63 v=0
59363 On ch=10 n=68 v=79
59369 On ch=10 n=68 v=0
59372 On ch=10 n=69 v=83
59372 On ch=10 n=33 v=112
59373 On ch=10 n=65 v=54
59373 On ch=10 n=62 v=117
59378 On ch=10 n=33 v=0
59378 On ch=10 n=69 v=0
59379 On ch=10 n=65 v=0
59379 On ch=10 n=62 v=0
59401 On ch=10 n=69 v=123
59401 On ch=10 n=66 v=62
59402 On ch=10 n=56 v=96
59402 On ch=10 n=33 v=122
59404 On ch=10 n=64 v=122
59407 On ch=10 n=66 v=0
59407 On ch=10 n=69 v=0
59408 On ch=10 n=33 v=0
59408 On ch=10 n=56 v=0
59410 On ch=10 n=64 v=0
59431 On ch=10 n=69 v=90
59433 On ch=10 n=63 v=108
59437 On ch=10 n=69 v=0
59439 On ch=10 n=63 v=0
59446 On ch=10 n=68 v=86
59452 On ch=10 n=68 v=0
59459 On ch=10 n=66 v=96
59461 On ch=10 n=69 v=100
59463 On ch=10 n=64 v=98
59463 On ch=10 n=62 v=81
59465 On ch=10 n=66 v=0
59467 On ch=10 n=69 v=0
59469 On ch=10 n=64 v=0
59469 On ch=10 n=62 v=0
59489 On ch=10 n=69 v=95
59490 On ch=10 n=65 v=87
59492 On ch=10 n=63 v=122
59495 On ch=10 n=69 v=0
59496 On ch=10 n=65 v=0
59498 On ch=10 n=63 v=0
59519 On ch=10 n=69 v=122
59521 On ch=10 n=56 v=105
59523 On ch=10 n=65 v=70
59523 On ch=10 n=64 v=117
59525 On ch=10 n=69 v=0
59525 On ch=10 n=68 v=98
59527 On ch=10 n=56 v=0
59529 On ch=10 n=64 v=0
59529 On ch=10 n=65 v=0
59531 On ch=10 n=68 v=0
59548 On ch=10 n=69 v=79
59551 On ch=10 n=66 v=89
59552 On ch=10 n=63 v=112
59554 On ch=10 n=69 v=0
59557 On ch=10 n=66 v=0
59558 On ch=10 n=63 v=0
59579 On ch=10 n=33 v=69
59581 On ch=10 n=69 v=108
59581 On ch=10 n=65 v=79
59585 On ch=10 n=33 v=0
59587 On ch=10 n=65 v=0
59587 On ch=10 n=69 v=0
59604 On ch=10 n=68 v=85
59610 On ch=10 n=68 v=0
59610 On ch=10 n=33 v=112
59611 On ch=10 n=69 v=87
59613 On ch=10 n=66 v=62
59613 On ch=10 n=62 v=77
59616 On ch=10 n=33 v=0
59617 On ch=10 n=69 v=0
59619 On ch=10 n=66 v=0
59619 On ch=10 n=62 v=0
59639 On ch=10 n=33 v=122
59641 On ch=10 n=69 v=122
59641 On ch=10 n=56 v=102
59642 On ch=10 n=65 v=92
59643 On ch=10 n=63 v=122
59645 On ch=10 n=33 v=0
59647 On ch=10 n=69 v=0
59647 On ch=10 n=56 v=0
59648 On ch=10 n=65 v=0
59649 On ch=10 n=63 v=0
59671 On ch=10 n=69 v=76
59672 On ch=10 n=66 v=83
59677 On ch=10 n=69 v=0
59678 On ch=10 n=66 v=0
59700 On ch=10 n=68 v=87
59702 On ch=10 n=69 v=108
59702 On ch=10 n=65 v=62
59702 On ch=10 n=63 v=121
59706 On ch=10 n=68 v=0
59708 On ch=10 n=69 v=0
59708 On ch=10 n=65 v=0
59708 On ch=10 n=63 v=0
59731 On ch=10 n=69 v=98
59731 On ch=10 n=65 v=95
59732 On ch=10 n=62 v=121
59737 On ch=10 n=65 v=0
59737 On ch=10 n=69 v=0
59738 On ch=10 n=62 v=0
59759 On ch=10 n=33 v=77
59761 On ch=10 n=56 v=105
59762 On ch=10 n=69 v=122
59762 On ch=10 n=65 v=95
59763 On ch=10 n=64 v=117
59763 On ch=10 n=68 v=108
59765 On ch=10 n=33 v=0
59767 On ch=10 n=56 v=0
59768 On ch=10 n=65 v=0
59768 On ch=10 n=69 v=0
59769 On ch=10 n=68 v=0
59769 On ch=10 n=64 v=0
59791 On ch=10 n=69 v=85
59791 On ch=10 n=62 v=112
59792 On ch=10 n=65 v=83
59797 On ch=10 n=62 v=0
59797 On ch=10 n=69 v=0
59798 On ch=10 n=65 v=0
59817 On ch=10 n=33 v=86
59821 On ch=10 n=65 v=83
59821 On ch=10 n=64 v=114
59822 On ch=10 n=69 v=98
59823 On ch=10 n=33 v=0
59827 On ch=10 n=65 v=0
59827 On ch=10 n=64 v=0
59828 On ch=10 n=69 v=0
59842 On ch=10 n=68 v=74
59848 On ch=10 n=68 v=0
59848 On ch=10 n=33 v=112
59851 On ch=10 n=69 v=85
59851 On ch=10 n=62 v=120
59853 On ch=10 n=65 v=95
59854 On ch=10 n=33 v=0
59857 On ch=10 n=69 v=0
59857 On ch=10 n=62 v=0
59859 On ch=10 n=65 v=0
59879 On ch=10 n=33 v=121
59880 On ch=10 n=56 v=105
59881 On ch=10 n=69 v=123
59881 On ch=10 n=63 v=122
59884 On ch=10 n=65 v=98
59885 On ch=10 n=33 v=0
59886 On ch=10 n=56 v=0
59887 On ch=10 n=63 v=0
59887 On ch=10 n=69 v=0
59890 On ch=10 n=65 v=0
59909 On ch=10 n=33 v=98
59911 On ch=10 n=69 v=86
59911 On ch=10 n=65 v=89
59911 On ch=10 n=62 v=104
59915 On ch=10 n=33 v=0
59917 On ch=10 n=69 v=0
59917 On ch=10 n=65 v=0
59917 On ch=10 n=62 v=0
59923 On ch=10 n=68 v=87
59929 On ch=10 n=68 v=0
59941 On ch=10 n=69 v=104
59941 On ch=10 n=64 v=117
59941 On ch=10 n=33 v=117
59942 On ch=10 n=65 v=86
59943 On ch=10 n=62 v=108
59947 On ch=10 n=33 v=0
59947 On ch=10 n=69 v=0
59947 On ch=10 n=64 v=0
59948 On ch=10 n=65 v=0
59949 On ch=10 n=62 v=0
59972 On ch=10 n=69 v=104
59973 On ch=10 n=65 v=95
59973 On ch=10 n=63 v=100
59978 On ch=10 n=69 v=0
59979 On ch=10 n=63 v=0
59979 On ch=10 n=65 v=0
59998 On ch=10 n=68 v=108
60001 On ch=10 n=69 v=122
60001 On ch=10 n=56 v=105
60001 On ch=10 n=66 v=97
60001 On ch=10 n=64 v=108
60001 On ch=10 n=62 v=98
60004 On ch=10 n=68 v=0
60007 On ch=10 n=56 v=0
60007 On ch=10 n=66 v=0
60007 On ch=10 n=69 v=0
60007 On ch=10 n=62 v=0
60007 On ch=10 n=64 v=0
60031 On ch=10 n=69 v=87
60032 On ch=10 n=65 v=95
60032 On ch=10 n=63 v=117
60037 On ch=10 n=69 v=0
60038 On ch=10 n=63 v=0
60038 On ch=10 n=65 v=0
60061 On ch=10 n=69 v=95
60061 On ch=10 n=66 v=98
60061 On ch=10 n=64 v=117
60062 On ch=10 n=66 v=95
60063 On ch=10 n=33 v=100
60067 On ch=10 n=66 v=0
60067 On ch=10 n=64 v=0
60067 On ch=10 n=69 v=0
60068 On ch=10 n=66 v=0
60069 On ch=10 n=33 v=0
60077 On ch=10 n=66 v=117
60079 On ch=10 n=68 v=72
60083 On ch=10 n=66 v=0
60085 On ch=10 n=68 v=0
60091 On ch=10 n=66 v=95
60091 On ch=10 n=63 v=122
60092 On ch=10 n=69 v=100
60094 On ch=10 n=33 v=120
60097 On ch=10 n=63 v=0
60097 On ch=10 n=66 v=0
60098 On ch=10 n=69 v=0
60100 On ch=10 n=33 v=0
60100 On ch=10 n=66 v=120
60106 On ch=10 n=66 v=0
60121 On ch=10 n=56 v=105
60122 On ch=10 n=69 v=123
60122 On ch=10 n=65 v=95
60123 On ch=10 n=62 v=121
60127 On ch=10 n=56 v=0
60128 On ch=10 n=69 v=0
60128 On ch=10 n=65 v=0
60129 On ch=10 n=62 v=0
60150 On ch=10 n=69 v=93
60153 On ch=10 n=66 v=86
60156 On ch=10 n=69 v=0
60159 On ch=10 n=66 v=0
60161 On ch=10 n=68 v=95
60167 On ch=10 n=68 v=0
60174 On ch=10 n=66 v=77
60175 On ch=10 n=62 v=74
60180 On ch=10 n=66 v=0
60181 On ch=10 n=62 v=0
60182 On ch=10 n=69 v=98
60182 On ch=10 n=63 v=100
60188 On ch=10 n=63 v=0
60188 On ch=10 n=69 v=0
60200 On ch=10 n=66 v=64
60206 On ch=10 n=66 v=0
60210 On ch=10 n=66 v=95
60212 On ch=10 n=69 v=108
60212 On ch=10 n=62 v=111
60216 On ch=10 n=66 v=0
60218 On ch=10 n=62 v=0
60218 On ch=10 n=69 v=0
60237 On ch=10 n=66 v=114
60239 On ch=10 n=68 v=98
60241 On ch=10 n=56 v=105
60241 On ch=10 n=65 v=95
60242 On ch=10 n=69 v=124
60242 On ch=10 n=33 v=68
60243 On ch=10 n=66 v=0
60243 On ch=10 n=63 v=123
60245 On ch=10 n=68 v=0
60247 On ch=10 n=65 v=0
60247 On ch=10 n=56 v=0
60248 On ch=10 n=33 v=0
60248 On ch=10 n=69 v=0
60249 On ch=10 n=63 v=0
60271 On ch=10 n=69 v=86
60271 On ch=10 n=62 v=111
60272 On ch=10 n=65 v=87
60277 On ch=10 n=62 v=0
60277 On ch=10 n=69 v=0
60278 On ch=10 n=65 v=0
60296 On ch=10 n=33 v=104
60301 On ch=10 n=65 v=52
60301 On ch=10 n=64 v=117
60302 On ch=10 n=33 v=0
60302 On ch=10 n=69 v=87
60304 On ch=10 n=33 v=111
60307 On ch=10 n=64 v=0
60307 On ch=10 n=65 v=0
60308 On ch=10 n=69 v=0
60310 On ch=10 n=33 v=0
60317 On ch=10 n=68 v=77
60323 On ch=10 n=68 v=0
60328 On ch=10 n=66 v=112
60331 On ch=10 n=69 v=112
60331 On ch=10 n=65 v=92
60332 On ch=10 n=63 v=122
60334 On ch=10 n=66 v=0
60337 On ch=10 n=69 v=0
60337 On ch=10 n=65 v=0
60338 On ch=10 n=63 v=0
60352 On ch=10 n=66 v=93
60358 On ch=10 n=66 v=0
60358 On ch=10 n=33 v=122
60360 On ch=10 n=56 v=105
60361 On ch=10 n=69 v=123
60361 On ch=10 n=66 v=97
60362 On ch=10 n=64 v=122
60364 On ch=10 n=33 v=0
60365 On ch=10 n=66 v=120
60366 On ch=10 n=56 v=0
60367 On ch=10 n=66 v=0
60367 On ch=10 n=69 v=0
60368 On ch=10 n=64 v=0
60371 On ch=10 n=66 v=0
60391 On ch=10 n=69 v=75
60391 On ch=10 n=66 v=122
60392 On ch=10 n=66 v=95
60392 On ch=10 n=63 v=114
60397 On ch=10 n=66 v=0
60397 On ch=10 n=69 v=0
60398 On ch=10 n=66 v=0
60398 On ch=10 n=63 v=0
60401 On ch=10 n=68 v=87
60407 On ch=10 n=68 v=0
60421 On ch=10 n=64 v=120
60422 On ch=10 n=69 v=95
60427 On ch=10 n=64 v=0
60428 On ch=10 n=69 v=0
60451 On ch=10 n=69 v=104
60451 On ch=10 n=66 v=79
60453 On ch=10 n=63 v=117
60457 On ch=10 n=66 v=0
60457 On ch=10 n=69 v=0
60459 On ch=10 n=63 v=0
60477 On ch=10 n=68 v=100
60477 On ch=10 n=33 v=60
60480 On ch=10 n=69 v=124
60480 On ch=10 n=56 v=107
60480 On ch=10 n=65 v=96
60480 On ch=10 n=62 v=120
60483 On ch=10 n=33 v=0
60483 On ch=10 n=68 v=0
60486 On ch=10 n=65 v=0
60486 On ch=10 n=56 v=0
60486 On ch=10 n=62 v=0
60486 On ch=10 n=69 v=0
60508 On ch=10 n=69 v=93
60511 On ch=10 n=66 v=89
60514 On ch=10 n=69 v=0
60517 On ch=10 n=66 v=0
60538 On ch=10 n=69 v=100
60538 On ch=10 n=68 v=95
60539 On ch=10 n=65 v=89
60541 On ch=10 n=63 v=120
60544 On ch=10 n=68 v=0
60544 On ch=10 n=69 v=0
60545 On ch=10 n=65 v=0
60545 On ch=10 n=33 v=95
60547 On ch=10 n=63 v=0
60551 On ch=10 n=33 v=0
60567 On ch=10 n=69 v=104
60568 On ch=10 n=62 v=117
60571 On ch=10 n=66 v=89
60573 On ch=10 n=69 v=0
60574 On ch=10 n=62 v=0
60577 On ch=10 n=66 v=0
60577 On ch=10 n=65 v=111
60583 On ch=10 n=65 v=0
60596 On ch=10 n=65 v=108
60597 On ch=10 n=33 v=122
60599 On ch=10 n=69 v=124
60599 On ch=10 n=56 v=105
60599 On ch=10 n=63 v=124
60601 On ch=10 n=65 v=70
60602 On ch=10 n=65 v=0
60603 On ch=10 n=33 v=0
60605 On ch=10 n=56 v=0
60605 On ch=10 n=63 v=0
60605 On ch=10 n=69 v=0
60607 On ch=10 n=65 v=0
60614 On ch=10 n=65 v=114
60620 On ch=10 n=65 v=0
60627 On ch=10 n=69 v=100
60629 On ch=10 n=65 v=92
60629 On ch=10 n=62 v=76
60630 On ch=10 n=65 v=122
60633 On ch=10 n=69 v=0
60635 On ch=10 n=65 v=0
60635 On ch=10 n=62 v=0
60636 On ch=10 n=65 v=0
60640 On ch=10 n=68 v=60
60646 On ch=10 n=68 v=0
60658 On ch=10 n=69 v=98
60658 On ch=10 n=66 v=99
60658 On ch=10 n=63 v=112
60664 On ch=10 n=63 v=0
60664 On ch=10 n=66 v=0
60664 On ch=10 n=69 v=0
60687 On ch=10 n=65 v=89
60688 On ch=10 n=69 v=104
60689 On ch=10 n=62 v=122
60693 On ch=10 n=65 v=0
60694 On ch=10 n=69 v=0
60695 On ch=10 n=62 v=0
60706 On ch=10 n=65 v=111
60712 On ch=10 n=65 v=0
60717 On ch=10 n=66 v=98
60718 On ch=10 n=69 v=123
60718 On ch=10 n=64 v=122
60719 On ch=10 n=56 v=99
60720 On ch=10 n=68 v=104
60723 On ch=10 n=66 v=0
60724 On ch=10 n=69 v=0
60724 On ch=10 n=64 v=0
60725 On ch=10 n=56 v=0
60726 On ch=10 n=68 v=0
60729 On ch=10 n=65 v=93
60735 On ch=10 n=65 v=0
60742 On ch=10 n=65 v=117
60747 On ch=10 n=69 v=108
60747 On ch=10 n=65 v=92
60747 On ch=10 n=63 v=122
60748 On ch=10 n=65 v=0
60753 On ch=10 n=65 v=0
60753 On ch=10 n=69 v=0
60753 On ch=10 n=63 v=0
60766 On ch=10 n=65 v=117
60772 On ch=10 n=65 v=0
60778 On ch=10 n=64 v=117
60778 On ch=10 n=33 v=79
60779 On ch=10 n=69 v=112
60779 On ch=10 n=65 v=92
60784 On ch=10 n=33 v=0
60784 On ch=10 n=64 v=0
60785 On ch=10 n=69 v=0
60785 On ch=10 n=65 v=0
60807 On ch=10 n=63 v=122
60808 On ch=10 n=65 v=95
60808 On ch=10 n=33 v=117
60809 On ch=10 n=69 v=112
60813 On ch=10 n=63 v=0
60814 On ch=10 n=65 v=0
60814 On ch=10 n=33 v=0
60815 On ch=10 n=69 v=0
60838 On ch=10 n=62 v=122
60839 On ch=10 n=69 v=124
60839 On ch=10 n=56 v=107
60839 On ch=10 n=65 v=97
60839 On ch=10 n=33 v=122
60840 On ch=10 n=68 v=95
60844 On ch=10 n=62 v=0
60845 On ch=10 n=33 v=0
60845 On ch=10 n=65 v=0
60845 On ch=10 n=69 v=0
60845 On ch=10 n=56 v=0
60846 On ch=10 n=68 v=0
60847 On ch=10 n=65 v=120
60853 On ch=10 n=65 v=0
60868 On ch=10 n=69 v=112
60868 On ch=10 n=65 v=111
60868 On ch=10 n=62 v=121
60869 On ch=10 n=65 v=95
60874 On ch=10 n=65 v=0
60874 On ch=10 n=62 v=0
60874 On ch=10 n=69 v=0
60875 On ch=10 n=65 v=0
60886 On ch=10 n=65 v=121
60892 On ch=10 n=65 v=0
60898 On ch=10 n=63 v=123
60899 On ch=10 n=69 v=117
60899 On ch=10 n=65 v=97
60904 On ch=10 n=63 v=0
60905 On ch=10 n=65 v=0
60905 On ch=10 n=69 v=0
60907 On ch=10 n=65 v=122
60913 On ch=10 n=65 v=0
60931 On ch=10 n=69 v=120
60931 On ch=10 n=65 v=99
60937 On ch=10 n=65 v=0
60937 On ch=10 n=69 v=0
60960 On ch=10 n=65 v=97
60960 On ch=10 n=63 v=120
60960 On ch=10 n=68 v=108
60961 On ch=10 n=69 v=122
60961 On ch=10 n=56 v=105
60963 On ch=10 n=33 v=121
60966 On ch=10 n=68 v=0
60966 On ch=10 n=65 v=0
60966 On ch=10 n=63 v=0
60967 On ch=10 n=69 v=0
60967 On ch=10 n=56 v=0
60969 On ch=10 n=33 v=0
60988 On ch=10 n=65 v=70
60989 On ch=10 n=69 v=86
60991 On ch=10 n=62 v=79
60994 On ch=10 n=65 v=0
60995 On ch=10 n=69 v=0
60997 On ch=10 n=62 v=0
61019 On ch=10 n=69 v=100
61019 On ch=10 n=63 v=95
61025 On ch=10 n=63 v=0
61025 On ch=10 n=69 v=0
61043 On ch=10 n=68 v=100
61047 On ch=10 n=65 v=89
61049 On ch=10 n=68 v=0
61051 On ch=10 n=69 v=112
61051 On ch=10 n=62 v=90
61053 On ch=10 n=65 v=0
61057 On ch=10 n=62 v=0
61057 On ch=10 n=69 v=0
61080 On ch=10 n=65 v=97
61081 On ch=10 n=33 v=87
61082 On ch=10 n=69 v=122
61082 On ch=10 n=64 v=122
61083 On ch=10 n=56 v=102
61086 On ch=10 n=65 v=0
61087 On ch=10 n=33 v=0
61088 On ch=10 n=64 v=0
61088 On ch=10 n=69 v=0
61089 On ch=10 n=56 v=0
61109 On ch=10 n=69 v=95
61111 On ch=10 n=62 v=85
61115 On ch=10 n=69 v=0
61117 On ch=10 n=62 v=0
61126 On ch=10 n=68 v=79
61132 On ch=10 n=68 v=0
61140 On ch=10 n=65 v=65
61141 On ch=10 n=69 v=112
61142 On ch=10 n=64 v=73
61146 On ch=10 n=65 v=0
61147 On ch=10 n=69 v=0
61148 On ch=10 n=64 v=0
61169 On ch=10 n=66 v=89
61171 On ch=10 n=69 v=95
61173 On ch=10 n=62 v=95
61175 On ch=10 n=66 v=0
61177 On ch=10 n=69 v=0
61179 On ch=10 n=62 v=0
61200 On ch=10 n=69 v=122
61200 On ch=10 n=65 v=95
61203 On ch=10 n=68 v=108
61204 On ch=10 n=56 v=102
61204 On ch=10 n=63 v=122
61204 On ch=10 n=33 v=100
61206 On ch=10 n=65 v=0
61206 On ch=10 n=69 v=0
61209 On ch=10 n=68 v=0
61210 On ch=10 n=56 v=0
61210 On ch=10 n=63 v=0
61210 On ch=10 n=33 v=0
61229 On ch=10 n=69 v=79
61233 On ch=10 n=62 v=98
61235 On ch=10 n=69 v=0
61239 On ch=10 n=62 v=0
61261 On ch=10 n=69 v=108
61262 On ch=10 n=65 v=70
61262 On ch=10 n=33 v=65
61263 On ch=10 n=63 v=117
61267 On ch=10 n=69 v=0
61268 On ch=10 n=65 v=0
61268 On ch=10 n=33 v=0
61269 On ch=10 n=63 v=0
61283 On ch=10 n=68 v=79
61289 On ch=10 n=68 v=0
61292 On ch=10 n=69 v=83
61292 On ch=10 n=33 v=112
61293 On ch=10 n=65 v=54
61293 On ch=10 n=62 v=117
61298 On ch=10 n=33 v=0
61298 On ch=10 n=69 v=0
61299 On ch=10 n=65 v=0
61299 On ch=10 n=62 v=0
61321 On ch=10 n=69 v=123
61321 On ch=10 n=66 v=62
61322 On ch=10 n=56 v=96
61322 On ch=10 n=33 v=122
61324 On ch=10 n=64 v=122
61327 On ch=10 n=66 v=0
61327 On ch=10 n=69 v=0
61328 On ch=10 n=33 v=0
61328 On ch=10 n=56 v=0
61330 On ch=10 n=64 v=0
61351 On ch=10 n=69 v=90
61353 On ch=10 n=63 v=108
61357 On ch=10 n=69 v=0
61359 On ch=10 n=63 v=0
61366 On ch=10 n=68 v=86
61372 On ch=10 n=68 v=0
61379 On ch=10 n=66 v=96
61381 On ch=10 n=69 v=100
61383 On ch=10 n=64 v=98
61383 On ch=10 n=62 v=81
61385 On ch=10 n=66 v=0
61387 On ch=10 n=69 v=0
61389 On ch=10 n=64 v=0
61389 On ch=10 n=62 v=0
61409 On ch=10 n=69 v=95
61410 On ch=10 n=65 v=87
61412 On ch=10 n=63 v=122
61415 On ch=10 n=69 v=0
61416 On ch=10 n=65 v=0
61418 On ch=10 n=63 v=0
61439 On ch=10 n=69 v=122
61441 On ch=10 n=56 v=105
61443 On ch=10 n=65 v=70
61443 On ch=10 n=64 v=117
61445 On ch=10 n=69 v=0
61445 On ch=10 n=68 v=98
61447 On ch=10 n=56 v=0
61449 On ch=10 n=64 v=0
61449 On ch=10 n=65 v=0
61451 On ch=10 n=68 v=0
61468 On ch=10 n=69 v=79
61471 On ch=10 n=66 v=89
61472 On ch=10 n=63 v=112
61474 On ch=10 n=69 v=0
61477 On ch=10 n=66 v=0
61478 On ch=10 n=63 v=0
61499 On ch=10 n=33 v=69
61501 On ch=10 n=69 v=108
61501 On ch=10 n=65 v=79
61505 On ch=10 n=33 v=0
61507 On ch=10 n=65 v=0
61507 On ch=10 n=69 v=0
61524 On ch=10 n=68 v=85
61530 On ch=10 n=68 v=0
61530 On ch=10 n=33 v=112
61531 On ch=10 n=69 v=87
61533 On ch=10 n=66 v=62
61533 On ch=10 n=62 v=77
61536 On ch=10 n=33 v=0
61537 On ch=10 n=69 v=0
61539 On ch=10 n=66 v=0
61539 On ch=10 n=62 v=0
61559 On ch=10 n=33 v=122
61561 On ch=10 n=69 v=122
61561 On ch=10 n=56 v=102
61562 On ch=10 n=65 v=92
61563 On ch=10 n=63 v=122
61565 On ch=10 n=33 v=0
61567 On ch=10 n=69 v=0
61567 On ch=10 n=56 v=0
61568 On ch=10 n=65 v=0
61569 On ch=10 n=63 v=0
61591 On ch=10 n=69 v=76
61592 On ch=10 n=66 v=83
61597 On ch=10 n=69 v=0
61598 On ch=10 n=66 v=0
61620 On ch=10 n=68 v=87
61622 On ch=10 n=69 v=108
61622 On ch=10 n=65 v=62
61622 On ch=10 n=63 v=121
61626 On ch=10 n=68 v=0
61628 On ch=10 n=69 v=0
61628 On ch=10 n=65 v=0
61628 On ch=10 n=63 v=0
61651 On ch=10 n=69 v=98
61651 On ch=10 n=65 v=95
61652 On ch=10 n=62 v=121
61657 On ch=10 n=65 v=0
61657 On ch=10 n=69 v=0
61658 On ch=10 n=62 v=0
61679 On ch=10 n=33 v=77
61681 On ch=10 n=56 v=105
61682 On ch=10 n=69 v=122
61682 On ch=10 n=65 v=95
61683 On ch=10 n=64 v=117
61683 On ch=10 n=68 v=108
61685 On ch=10 n=33 v=0
61687 On ch=10 n=56 v=0
61688 On ch=10 n=65 v=0
61688 On ch=10 n=69 v=0
61689 On ch=10 n=68 v=0
61689 On ch=10 n=64 v=0
61711 On ch=10 n=69 v=85
61711 On ch=10 n=62 v=112
61712 On ch=10 n=65 v=83
61717 On ch=10 n=62 v=0
61717 On ch=10 n=69 v=0
61718 On ch=10 n=65 v=0
61737 On ch=10 n=33 v=86
61741 On ch=10 n=65 v=83
61741 On ch=10 n=64 v=114
61742 On ch=10 n=69 v=98
61743 On ch=10 n=33 v=0
61747 On ch=10 n=65 v=0
61747 On ch=10 n=64 v=0
61748 On ch=10 n=69 v=0
61762 On ch=10 n=68 v=74
61768 On ch=10 n=68 v=0
61768 On ch=10 n=33 v=112
61771 On ch=10 n=69 v=85
61771 On ch=10 n=62 v=120
61773 On ch=10 n=65 v=95
61774 On ch=10 n=33 v=0
61777 On ch=10 n=69 v=0
61777 On ch=10 n=62 v=0
61779 On ch=10 n=65 v=0
61799 On ch=10 n=33 v=121
61800 On ch=10 n=56 v=105
61801 On ch=10 n=69 v=123
61801 On ch=10 n=63 v=122
61804 On ch=10 n=65 v=98
61805 On ch=10 n=33 v=0
61806 On ch=10 n=56 v=0
61807 On ch=10 n=63 v=0
61807 On ch=10 n=69 v=0
61810 On ch=10 n=65 v=0
61829 On ch=10 n=33 v=98
61831 On ch=10 n=69 v=86
61831 On ch=10 n=65 v=89
61831 On ch=10 n=62 v=104
61835 On ch=10 n=33 v=0
61837 On ch=10 n=69 v=0
61837 On ch=10 n=65 v=0
61837 On ch=10 n=62 v=0
61843 On ch=10 n=68 v=87
61849 On ch=10 n=68 v=0
61861 On ch=10 n=69 v=104
61861 On ch=10 n=64 v=117
61861 On ch=10 n=33 v=117
61862 On ch=10 n=65 v=86
61863 On ch=10 n=62 v=108
61867 On ch=10 n=33 v=0
61867 On ch=10 n=69 v=0
61867 On ch=10 n=64 v=0
61868 On ch=10 n=65 v=0
61869 On ch=10 n=62 v=0
61892 On ch=10 n=69 v=104
61893 On ch=10 n=65 v=95
61893 On ch=10 n=63 v=100
61898 On ch=10 n=69 v=0
61899 On ch=10 n=63 v=0
61899 On ch=10 n=65 v=0
61918 On ch=10 n=68 v=108
61921 On ch=10 n=69 v=122
61921 On ch=10 n=56 v=105
61921 On ch=10 n=66 v=97
61921 On ch=10 n=64 v=108
61921 On ch=10 n=62 v=98
61924 On ch=10 n=68 v=0
61927 On ch=10 n=56 v=0
61927 On ch=10 n=66 v=0
61927 On ch=10 n=69 v=0
61927 On ch=10 n=62 v=0
61927 On ch=10 n=64 v=0
61951 On ch=10 n=69 v=87
61952 On ch=10 n=65 v=95
61952 On ch=10 n=63 v=117
61957 On ch=10 n=69 v=0
61958 On ch=10 n=63 v=0
61958 On ch=10 n=65 v=0
61981 On ch=10 n=69 v=95
61981 On ch=10 n=64 v=117
61982 On ch=10 n=66 v=95
61983 On ch=10 n=33 v=100
61987 On ch=10 n=64 v=0
61987 On ch=10 n=69 v=0
61988 On ch=10 n=66 v=0
61989 On ch=10 n=33 v=0
61999 On ch=10 n=68 v=72
62005 On ch=10 n=68 v=0
62011 On ch=10 n=66 v=95
62011 On ch=10 n=63 v=122
62012 On ch=10 n=69 v=100
62014 On ch=10 n=33 v=120
62017 On ch=10 n=63 v=0
62017 On ch=10 n=66 v=0
62018 On ch=10 n=69 v=0
62020 On ch=10 n=33 v=0
62041 On ch=10 n=56 v=105
62042 On ch=10 n=69 v=123
62042 On ch=10 n=65 v=95
62043 On ch=10 n=62 v=121
62047 On ch=10 n=56 v=0
62048 On ch=10 n=69 v=0
62048 On ch=10 n=65 v=0
62049 On ch=10 n=62 v=0
62070 On ch=10 n=69 v=93
62073 On ch=10 n=66 v=86
62076 On ch=10 n=69 v=0
62079 On ch=10 n=66 v=0
62081 On ch=10 n=68 v=95
62087 On ch=10 n=68 v=0
62095 On ch=10 n=62 v=74
62101 On ch=10 n=62 v=0
62102 On ch=10 n=69 v=98
62102 On ch=10 n=63 v=100
62108 On ch=10 n=63 v=0
62108 On ch=10 n=69 v=0
62130 On ch=10 n=66 v=95
62132 On ch=10 n=69 v=108
62132 On ch=10 n=62 v=111
62136 On ch=10 n=66 v=0
62138 On ch=10 n=62 v=0
62138 On ch=10 n=69 v=0
62159 On ch=10 n=68 v=98
62161 On ch=10 n=56 v=105
62161 On ch=10 n=65 v=95
62162 On ch=10 n=69 v=124
62162 On ch=10 n=33 v=68
62163 On ch=10 n=63 v=123
62165 On ch=10 n=68 v=0
62167 On ch=10 n=56 v=0
62167 On ch=10 n=65 v=0
62168 On ch=10 n=69 v=0
62168 On ch=10 n=33 v=0
62169 On ch=10 n=63 v=0
62191 On ch=10 n=69 v=86
62191 On ch=10 n=62 v=111
62192 On ch=10 n=65 v=87
62197 On ch=10 n=62 v=0
62197 On ch=10 n=69 v=0
62198 On ch=10 n=65 v=0
62216 On ch=10 n=33 v=104
62221 On ch=10 n=65 v=52
62221 On ch=10 n=64 v=117
62222 On ch=10 n=33 v=0
62222 On ch=10 n=69 v=87
62224 On ch=10 n=33 v=111
62227 On ch=10 n=64 v=0
62227 On ch=10 n=65 v=0
62228 On ch=10 n=69 v=0
62230 On ch=10 n=33 v=0
62237 On ch=10 n=68 v=77
62243 On ch=10 n=68 v=0
62251 On ch=10 n=69 v=112
62251 On ch=10 n=65 v=92
62252 On ch=10 n=63 v=122
62257 On ch=10 n=65 v=0
62257 On ch=10 n=69 v=0
62258 On ch=10 n=63 v=0
62278 On ch=10 n=33 v=122
62280 On ch=10 n=56 v=105
62281 On ch=10 n=69 v=123
62281 On ch=10 n=66 v=97
62282 On ch=10 n=64 v=122
62284 On ch=10 n=33 v=0
62286 On ch=10 n=56 v=0
62287 On ch=10 n=66 v=0
62287 On ch=10 n=69 v=0
62288 On ch=10 n=64 v=0
62311 On ch=10 n=69 v=75
62312 On ch=10 n=66 v=95
62312 On ch=10 n=63 v=114
62317 On ch=10 n=69 v=0
62318 On ch=10 n=63 v=0
62318 On ch=10 n=66 v=0
62321 On ch=10 n=68 v=87
62327 On ch=10 n=68 v=0
62341 On ch=10 n=64 v=120
62342 On ch=10 n=69 v=95
62347 On ch=10 n=64 v=0
62348 On ch=10 n=69 v=0
62371 On ch=10 n=69 v=104
62371 On ch=10 n=66 v=79
62373 On ch=10 n=63 v=117
62377 On ch=10 n=66 v=0
62377 On ch=10 n=69 v=0
62379 On ch=10 n=63 v=0
62397 On ch=10 n=68 v=100
62397 On ch=10 n=33 v=60
62400 On ch=10 n=69 v=124
62400 On ch=10 n=56 v=107
62400 On ch=10 n=65 v=96
62400 On ch=10 n=62 v=120
62403 On ch=10 n=33 v=0
62403 On ch=10 n=68 v=0
62406 On ch=10 n=65 v=0
62406 On ch=10 n=56 v=0
62406 On ch=10 n=62 v=0
62406 On ch=10 n=69 v=0
62428 On ch=10 n=69 v=93
62431 On ch=10 n=66 v=89
62434 On ch=10 n=69 v=0
62437 On ch=10 n=66 v=0
62458 On ch=10 n=69 v=100
62458 On ch=10 n=68 v=95
62459 On ch=10 n=65 v=89
62461 On ch=10 n=63 v=120
62464 On ch=10 n=68 v=0
62464 On ch=10 n=69 v=0
62465 On ch=10 n=65 v=0
62465 On ch=10 n=33 v=95
62467 On ch=10 n=63 v=0
62471 On ch=10 n=33 v=0
62487 On ch=10 n=69 v=104
62488 On ch=10 n=62 v=117
62491 On ch=10 n=66 v=89
62493 On ch=10 n=69 v=0
62494 On ch=10 n=62 v=0
62497 On ch=10 n=66 v=0
62517 On ch=10 n=33 v=122
62519 On ch=10 n=69 v=124
62519 On ch=10 n=56 v=105
62519 On ch=10 n=63 v=124
62521 On ch=10 n=65 v=70
62523 On ch=10 n=33 v=0
62525 On ch=10 n=63 v=0
62525 On ch=10 n=69 v=0
62525 On ch=10 n=56 v=0
62527 On ch=10 n=65 v=0
62547 On ch=10 n=69 v=100
62549 On ch=10 n=65 v=92
62549 On ch=10 n=62 v=76
62553 On ch=10 n=69 v=0
62555 On ch=10 n=62 v=0
62555 On ch=10 n=65 v=0
62560 On ch=10 n=68 v=60
62566 On ch=10 n=68 v=0
62578 On ch=10 n=69 v=98
62578 On ch=10 n=66 v=99
62578 On ch=10 n=63 v=112
62584 On ch=10 n=63 v=0
62584 On ch=10 n=66 v=0
62584 On ch=10 n=69 v=0
62607 On ch=10 n=65 v=89
62608 On ch=10 n=69 v=104
62609 On ch=10 n=62 v=122
62613 On ch=10 n=65 v=0
62614 On ch=10 n=69 v=0
62615 On ch=10 n=62 v=0
62637 On ch=10 n=66 v=98
62638 On ch=10 n=69 v=123
62638 On ch=10 n=64 v=122
62639 On ch=10 n=56 v=99
62640 On ch=10 n=68 v=104
62643 On ch=10 n=66 v=0
62644 On ch=10 n=69 v=0
62644 On ch=10 n=64 v=0
62645 On ch=10 n=56 v=0
62646 On ch=10 n=68 v=0
62667 On ch=10 n=69 v=108
62667 On ch=10 n=65 v=92
62667 On ch=10 n=63 v=122
62673 On ch=10 n=63 v=0
62673 On ch=10 n=65 v=0
62673 On ch=10 n=69 v=0
62698 On ch=10 n=64 v=117
62698 On ch=10 n=33 v=79
62699 On ch=10 n=69 v=112
62699 On ch=10 n=65 v=92
62704 On ch=10 n=33 v=0
62704 On ch=10 n=64 v=0
62705 On ch=10 n=69 v=0
62705 On ch=10 n=65 v=0
62727 On ch=10 n=63 v=122
62728 On ch=10 n=65 v=95
62728 On ch=10 n=33 v=117
62729 On ch=10 n=69 v=112
62733 On ch=10 n=63 v=0
62734 On ch=10 n=65 v=0
62734 On ch=10 n=33 v=0
62735 On ch=10 n=69 v=0
62758 On ch=10 n=62 v=122
62759 On ch=10 n=69 v=124
62759 On ch=10 n=56 v=107
62759 On ch=10 n=65 v=97
62759 On ch=10 n=33 v=122
62760 On ch=10 n=68 v=95
62764 On ch=10 n=62 v=0
62765 On ch=10 n=33 v=0
62765 On ch=10 n=65 v=0
62765 On ch=10 n=69 v=0
62765 On ch=10 n=56 v=0
62766 On ch=10 n=68 v=0
62788 On ch=10 n=69 v=112
62788 On ch=10 n=62 v=121
62789 On ch=10 n=65 v=95
62794 On ch=10 n=62 v=0
62794 On ch=10 n=69 v=0
62795 On ch=10 n=65 v=0
62818 On ch=10 n=63 v=123
62819 On ch=10 n=69 v=117
62819 On ch=10 n=65 v=97
62824 On ch=10 n=63 v=0
62825 On ch=10 n=65 v=0
62825 On ch=10 n=69 v=0
62851 On ch=10 n=69 v=120
62851 On ch=10 n=65 v=99
62857 On ch=10 n=65 v=0
62857 On ch=10 n=69 v=0
62880 On ch=10 n=65 v=97
62880 On ch=10 n=63 v=120
62880 On ch=10 n=68 v=108
62881 On ch=10 n=69 v=122
62881 On ch=10 n=56 v=105
62883 On ch=10 n=33 v=121
62886 On ch=10 n=68 v=0
62886 On ch=10 n=65 v=0
62886 On ch=10 n=63 v=0
62887 On ch=10 n=69 v=0
62887 On ch=10 n=56 v=0
62889 On ch=10 n=33 v=0
62908 On ch=10 n=65 v=70
62909 On ch=10 n=69 v=86
62911 On ch=10 n=62 v=79
62914 On ch=10 n=65 v=0
62915 On ch=10 n=69 v=0
62917 On ch=10 n=62 v=0
62939 On ch=10 n=69 v=100
62939 On ch=10 n=63 v=95
62945 On ch=10 n=63 v=0
62945 On ch=10 n=69 v=0
62963 On ch=10 n=68 v=100
62967 On ch=10 n=65 v=89
62969 On ch=10 n=68 v=0
62971 On ch=10 n=69 v=112
62971 On ch=10 n=62 v=90
62973 On ch=10 n=65 v=0
62977 On ch=10 n=62 v=0
62977 On ch=10 n=69 v=0
63000 On ch=10 n=65 v=97
63001 On ch=10 n=33 v=87
63002 On ch=10 n=69 v=122
63002 On ch=10 n=64 v=122
63003 On ch=10 n=56 v=102
63006 On ch=10 n=65 v=0
63007 On ch=10 n=33 v=0
63008 On ch=10 n=64 v=0
63008 On ch=10 n=69 v=0
63009 On ch=10 n=56 v=0
63029 On ch=10 n=69 v=95
63031 On ch=10 n=62 v=85
63035 On ch=10 n=69 v=0
63037 On ch=10 n=62 v=0
63046 On ch=10 n=68 v=79
63052 On ch=10 n=68 v=0
63060 On ch=10 n=65 v=65
63061 On ch=10 n=69 v=112
63062 On ch=10 n=64 v=73
63066 On ch=10 n=65 v=0
63067 On ch=10 n=69 v=0
63068 On ch=10 n=64 v=0
63089 On ch=10 n=66 v=89
63091 On ch=10 n=69 v=95
63093 On ch=10 n=62 v=95
63095 On ch=10 n=66 v=0
63097 On ch=10 n=69 v=0
63099 On ch=10 n=62 v=0
63120 On ch=10 n=69 v=122
63120 On ch=10 n=65 v=95
63123 On ch=10 n=68 v=108
63124 On ch=10 n=56 v=102
63124 On ch=10 n=63 v=122
63124 On ch=10 n=33 v=100
63126 On ch=10 n=65 v=0
63126 On ch=10 n=69 v=0
63129 On ch=10 n=68 v=0
63130 On ch=10 n=56 v=0
63130 On ch=10 n=63 v=0
63130 On ch=10 n=33 v=0
63149 On ch=10 n=69 v=79
63153 On ch=10 n=62 v=98
63155 On ch=10 n=69 v=0
63159 On ch=10 n=62 v=0
63181 On ch=10 n=69 v=108
63182 On ch=10 n=65 v=70
63182 On ch=10 n=33 v=65
63183 On ch=10 n=63 v=117
63187 On ch=10 n=69 v=0
63188 On ch=10 n=65 v=0
63188 On ch=10 n=33 v=0
63189 On ch=10 n=63 v=0
63203 On ch=10 n=68 v=79
63209 On ch=10 n=68 v=0
63212 On ch=10 n=69 v=83
63212 On ch=10 n=33 v=112
63213 On ch=10 n=65 v=54
63213 On ch=10 n=62 v=117
63218 On ch=10 n=33 v=0
63218 On ch=10 n=69 v=0
63219 On ch=10 n=65 v=0
63219 On ch=10 n=62 v=0
63241 On ch=10 n=69 v=123
63241 On ch=10 n=66 v=62
63242 On ch=10 n=56 v=96
63242 On ch=10 n=33 v=122
63244 On ch=10 n=64 v=122
63247 On ch=10 n=66 v=0
63247 On ch=10 n=69 v=0
63248 On ch=10 n=33 v=0
63248 On ch=10 n=56 v=0
63250 On ch=10 n=64 v=0
63271 On ch=10 n=69 v=90
63273 On ch=10 n=63 v=108
63277 On ch=10 n=69 v=0
63279 On ch=10 n=63 v=0
63286 On ch=10 n=68 v=86
63292 On ch=10 n=68 v=0
63299 On ch=10 n=66 v=96
63301 On ch=10 n=69 v=100
63303 On ch=10 n=64 v=98
63303 On ch=10 n=62 v=81
63305 On ch=10 n=66 v=0
63307 On ch=10 n=69 v=0
63309 On ch=10 n=64 v=0
63309 On ch=10 n=62 v=0
63329 On ch=10 n=69 v=95
63330 On ch=10 n=65 v=87
63332 On ch=10 n=63 v=122
63335 On ch=10 n=69 v=0
63336 On ch=10 n=65 v=0
63338 On ch=10 n=63 v=0
63359 On ch=10 n=69 v=122
63361 On ch=10 n=56 v=105
63363 On ch=10 n=65 v=70
63363 On ch=10 n=64 v=117
63365 On ch=10 n=69 v=0
63365 On ch=10 n=68 v=98
63367 On ch=10 n=56 v=0
63369 On ch=10 n=64 v=0
63369 On ch=10 n=65 v=0
63371 On ch=10 n=68 v=0
63388 On ch=10 n=69 v=79
63391 On ch=10 n=66 v=89
63392 On ch=10 n=63 v=112
63394 On ch=10 n=69 v=0
63397 On ch=10 n=66 v=0
63398 On ch=10 n=63 v=0
63419 On ch=10 n=33 v=69
63421 On ch=10 n=69 v=108
63421 On ch=10 n=65 v=79
63425 On ch=10 n=33 v=0
63427 On ch=10 n=65 v=0
63427 On ch=10 n=69 v=0
63444 On ch=10 n=68 v=85
63450 On ch=10 n=68 v=0
63450 On ch=10 n=33 v=112
63451 On ch=10 n=69 v=87
63453 On ch=10 n=66 v=62
63453 On ch=10 n=62 v=77
63456 On ch=10 n=33 v=0
63457 On ch=10 n=69 v=0
63459 On ch=10 n=66 v=0
63459 On ch=10 n=62 v=0
63479 On ch=10 n=33 v=122
63481 On ch=10 n=69 v=122
63481 On ch=10 n=56 v=102
63482 On ch=10 n=65 v=92
63483 On ch=10 n=63 v=122
63485 On ch=10 n=33 v=0
63487 On ch=10 n=69 v=0
63487 On ch=10 n=56 v=0
63488 On ch=10 n=65 v=0
63489 On ch=10 n=63 v=0
63511 On ch=10 n=69 v=76
63512 On ch=10 n=66 v=83
63517 On ch=10 n=69 v=0
63518 On ch=10 n=66 v=0
63540 On ch=10 n=68 v=87
63542 On ch=10 n=69 v=108
63542 On ch=10 n=65 v=62
63542 On ch=10 n=63 v=121
63546 On ch=10 n=68 v=0
63548 On ch=10 n=69 v=0
63548 On ch=10 n=65 v=0
63548 On ch=10 n=63 v=0
63571 On ch=10 n=69 v=98
63571 On ch=10 n=65 v=95
63572 On ch=10 n=62 v=121
63577 On ch=10 n=65 v=0
63577 On ch=10 n=69 v=0
63578 On ch=10 n=62 v=0
63599 On ch=10 n=33 v=77
63601 On ch=10 n=56 v=105
63602 On ch=10 n=69 v=122
63602 On ch=10 n=65 v=95
63603 On ch=10 n=64 v=117
63603 On ch=10 n=68 v=108
63605 On ch=10 n=33 v=0
63607 On ch=10 n=56 v=0
63608 On ch=10 n=65 v=0
63608 On ch=10 n=69 v=0
63609 On ch=10 n=68 v=0
63609 On ch=10 n=64 v=0
63631 On ch=10 n=69 v=85
63631 On ch=10 n=62 v=112
63632 On ch=10 n=65 v=83
63637 On ch=10 n=62 v=0
63637 On ch=10 n=69 v=0
63638 On ch=10 n=65 v=0
63657 On ch=10 n=33 v=86
63661 On ch=10 n=65 v=83
63661 On ch=10 n=64 v=114
63662 On ch=10 n=69 v=98
63663 On ch=10 n=33 v=0
63667 On ch=10 n=65 v=0
63667 On ch=10 n=64 v=0
63668 On ch=10 n=69 v=0
63682 On ch=10 n=68 v=74
63688 On ch=10 n=68 v=0
63688 On ch=10 n=33 v=112
63691 On ch=10 n=69 v=85
63691 On ch=10 n=62 v=120
63693 On ch=10 n=65 v=95
63694 On ch=10 n=33 v=0
63697 On ch=10 n=69 v=0
63697 On ch=10 n=62 v=0
63699 On ch=10 n=65 v=0
63719 On ch=10 n=33 v=121
63720 On ch=10 n=56 v=105
63721 On ch=10 n=69 v=123
63721 On ch=10 n=63 v=122
63724 On ch=10 n=65 v=98
63725 On ch=10 n=33 v=0
63726 On ch=10 n=56 v=0
63727 On ch=10 n=63 v=0
63727 On ch=10 n=69 v=0
63730 On ch=10 n=65 v=0
63749 On ch=10 n=33 v=98
63751 On ch=10 n=69 v=86
63751 On ch=10 n=65 v=89
63751 On ch=10 n=62 v=104
63755 On ch=10 n=33 v=0
63757 On ch=10 n=69 v=0
63757 On ch=10 n=65 v=0
63757 On ch=10 n=62 v=0
63763 On ch=10 n=68 v=87
63769 On ch=10 n=68 v=0
63781 On ch=10 n=69 v=104
63781 On ch=10 n=64 v=117
63781 On ch=10 n=33 v=117
63782 On ch=10 n=65 v=86
63783 On ch=10 n=62 v=108
63787 On ch=10 n=33 v=0
63787 On ch=10 n=69 v=0
63787 On ch=10 n=64 v=0
63788 On ch=10 n=65 v=0
63789 On ch=10 n=62 v=0
63812 On ch=10 n=69 v=104
63813 On ch=10 n=65 v=95
63813 On ch=10 n=63 v=100
63818 On ch=10 n=69 v=0
63819 On ch=10 n=63 v=0
63819 On ch=10 n=65 v=0
63838 On ch=10 n=68 v=108
63841 On ch=10 n=69 v=122
63841 On ch=10 n=56 v=105
63841 On ch=10 n=66 v=97
63841 On ch=10 n=64 v=108
63841 On ch=10 n=62 v=98
63844 On ch=10 n=68 v=0
63847 On ch=10 n=56 v=0
63847 On ch=10 n=66 v=0
63847 On ch=10 n=69 v=0
63847 On ch=10 n=62 v=0
63847 On ch=10 n=64 v=0
63871 On ch=10 n=69 v=87
63872 On ch=10 n=65 v=95
63872 On ch=10 n=63 v=117
63877 On ch=10 n=69 v=0
63878 On ch=10 n=63 v=0
63878 On ch=10 n=65 v=0
63901 On ch=10 n=69 v=95
63901 On ch=10 n=64 v=117
63902 On ch=10 n=66 v=95
63903 On ch=10 n=33 v=100
63907 On ch=10 n=64 v=0
63907 On ch=10 n=69 v=0
63908 On ch=10 n=66 v=0
63909 On ch=10 n=33 v=0
63919 On ch=10 n=68 v=72
63925 On ch=10 n=68 v=0
63931 On ch=10 n=66 v=95
63931 On ch=10 n=63 v=122
63932 On ch=10 n=69 v=100
63934 On ch=10 n=33 v=120
63937 On ch=10 n=63 v=0
63937 On ch=10 n=66 v=0
63938 On ch=10 n=69 v=0
63940 On ch=10 n=33 v=0
63961 On ch=10 n=56 v=105
63962 On ch=10 n=69 v=123
63962 On ch=10 n=65 v=95
63963 On ch=10 n=62 v=121
63967 On ch=10 n=56 v=0
63968 On ch=10 n=69 v=0
63968 On ch=10 n=65 v=0
63969 On ch=10 n=62 v=0
63990 On ch=10 n=69 v=93
63993 On ch=10 n=66 v=86
63996 On ch=10 n=69 v=0
63999 On ch=10 n=66 v=0
64001 On ch=10 n=68 v=95
64007 On ch=10 n=68 v=0
64015 On ch=10 n=62 v=74
64021 On ch=10 n=62 v=0
64022 On ch=10 n=69 v=98
64022 On ch=10 n=63 v=100
64028 On ch=10 n=63 v=0
64028 On ch=10 n=69 v=0
64050 On ch=10 n=66 v=95
64052 On ch=10 n=69 v=108
64052 On ch=10 n=62 v=111
64056 On ch=10 n=66 v=0
64058 On ch=10 n=62 v=0
64058 On ch=10 n=69 v=0
64079 On ch=10 n=68 v=98
64081 On ch=10 n=56 v=105
64081 On ch=10 n=65 v=95
64082 On ch=10 n=69 v=124
64082 On ch=10 n=33 v=68
64083 On ch=10 n=63 v=123
64085 On ch=10 n=68 v=0
64087 On ch=10 n=56 v=0
64087 On ch=10 n=65 v=0
64088 On ch=10 n=69 v=0
64088 On ch=10 n=33 v=0
64089 On ch=10 n=63 v=0
64111 On ch=10 n=69 v=86
64111 On ch=10 n=62 v=111
64112 On ch=10 n=65 v=87
64117 On ch=10 n=62 v=0
64117 On ch=10 n=69 v=0
64118 On ch=10 n=65 v=0
64136 On ch=10 n=33 v=104
64141 On ch=10 n=65 v=52
64141 On ch=10 n=64 v=117
64142 On ch=10 n=33 v=0
64142 On ch=10 n=69 v=87
64144 On ch=10 n=33 v=111
64147 On ch=10 n=64 v=0
64147 On ch=10 n=65 v=0
64148 On ch=10 n=69 v=0
64150 On ch=10 n=33 v=0
64157 On ch=10 n=68 v=77
64163 On ch=10 n=68 v=0
64171 On ch=10 n=69 v=112
64171 On ch=10 n=65 v=92
64172 On ch=10 n=63 v=122
64177 On ch=10 n=65 v=0
64177 On ch=10 n=69 v=0
64178 On ch=10 n=63 v=0
64198 On ch=10 n=33 v=122
64200 On ch=10 n=56 v=105
64201 On ch=10 n=69 v=123
64201 On ch=10 n=66 v=97
64202 On ch=10 n=64 v=122
64204 On ch=10 n=33 v=0
64206 On ch=10 n=56 v=0
64207 On ch=10 n=66 v=0
64207 On ch=10 n=69 v=0
64208 On ch=10 n=64 v=0
64231 On ch=10 n=69 v=75
64232 On ch=10 n=66 v=95
64232 On ch=10 n=63 v=114
64237 On ch=10 n=69 v=0
64238 On ch=10 n=63 v=0
64238 On ch=10 n=66 v=0
64241 On ch=10 n=68 v=87
64247 On ch=10 n=68 v=0
64261 On ch=10 n=64 v=120
64262 On ch=10 n=69 v=95
64267 On ch=10 n=64 v=0
64268 On ch=10 n=69 v=0
64291 On ch=10 n=69 v=104
64291 On ch=10 n=66 v=79
64293 On ch=10 n=63 v=117
64297 On ch=10 n=66 v=0
64297 On ch=10 n=69 v=0
64299 On ch=10 n=63 v=0
64317 On ch=10 n=68 v=100
64317 On ch=10 n=33 v=60
64320 On ch=10 n=69 v=124
64320 On ch=10 n=56 v=107
64320 On ch=10 n=65 v=96
64320 On ch=10 n=62 v=120
64323 On ch=10 n=33 v=0
64323 On ch=10 n=68 v=0
64326 On ch=10 n=65 v=0
64326 On ch=10 n=56 v=0
64326 On ch=10 n=62 v=0
64326 On ch=10 n=69 v=0
64348 On ch=10 n=69 v=93
64351 On ch=10 n=66 v=89
64354 On ch=10 n=69 v=0
64357 On ch=10 n=66 v=0
64378 On ch=10 n=69 v=100
64378 On ch=10 n=68 v=95
64379 On ch=10 n=65 v=89
64381 On ch=10 n=63 v=120
64384 On ch=10 n=68 v=0
64384 On ch=10 n=69 v=0
64385 On ch=10 n=65 v=0
64385 On ch=10 n=33 v=95
64387 On ch=10 n=63 v=0
64391 On ch=10 n=33 v=0
64407 On ch=10 n=69 v=104
64408 On ch=10 n=62 v=117
64411 On ch=10 n=66 v=89
64413 On ch=10 n=69 v=0
64414 On ch=10 n=62 v=0
64417 On ch=10 n=66 v=0
64437 On ch=10 n=33 v=122
64439 On ch=10 n=69 v=124
64439 On ch=10 n=56 v=105
64439 On ch=10 n=63 v=124
64441 On ch=10 n=65 v=70
64443 On ch=10 n=33 v=0
64445 On ch=10 n=63 v=0
64445 On ch=10 n=69 v=0
64445 On ch=10 n=56 v=0
64447 On ch=10 n=65 v=0
64467 On ch=10 n=69 v=100
64469 On ch=10 n=65 v=92
64469 On ch=10 n=62 v=76
64473 On ch=10 n=69 v=0
64475 On ch=10 n=62 v=0
64475 On ch=10 n=65 v=0
64480 On ch=10 n=68 v=60
64486 On ch=10 n=68 v=0
64498 On ch=10 n=69 v=98
64498 On ch=10 n=66 v=99
64498 On ch=10 n=63 v=112
64504 On ch=10 n=63 v=0
64504 On ch=10 n=66 v=0
64504 On ch=10 n=69 v=0
64527 On ch=10 n=65 v=89
64528 On ch=10 n=69 v=104
64529 On ch=10 n=62 v=122
64533 On ch=10 n=65 v=0
64534 On ch=10 n=69 v=0
64535 On ch=10 n=62 v=0
64557 On ch=10 n=66 v=98
64558 On ch=10 n=69 v=123
64558 On ch=10 n=64 v=122
64559 On ch=10 n=56 v=99
64560 On ch=10 n=68 v=104
64563 On ch=10 n=66 v=0
64564 On ch=10 n=69 v=0
64564 On ch=10 n=64 v=0
64565 On ch=10 n=56 v=0
64566 On ch=10 n=68 v=0
64587 On ch=10 n=69 v=108
64587 On ch=10 n=65 v=92
64587 On ch=10 n=63 v=122
64593 On ch=10 n=63 v=0
64593 On ch=10 n=65 v=0
64593 On ch=10 n=69 v=0
64618 On ch=10 n=64 v=117
64618 On ch=10 n=33 v=79
64619 On ch=10 n=69 v=112
64619 On ch=10 n=65 v=92
64624 On ch=10 n=33 v=0
64624 On ch=10 n=64 v=0
64625 On ch=10 n=69 v=0
64625 On ch=10 n=65 v=0
64644 On ch=10 n=65 v=100
64647 On ch=10 n=63 v=122
64648 On ch=10 n=65 v=95
64648 On ch=10 n=33 v=117
64649 On ch=10 n=69 v=112
64650 On ch=10 n=65 v=0
64653 On ch=10 n=63 v=0
64654 On ch=10 n=65 v=0
64654 On ch=10 n=33 v=0
64655 On ch=10 n=69 v=0
64672 On ch=10 n=65 v=104
64678 On ch=10 n=65 v=0
64678 On ch=10 n=62 v=122
64679 On ch=10 n=69 v=124
64679 On ch=10 n=56 v=107
64679 On ch=10 n=65 v=97
64679 On ch=10 n=33 v=122
64680 On ch=10 n=68 v=95
64684 On ch=10 n=62 v=0
64685 On ch=10 n=33 v=0
64685 On ch=10 n=65 v=0
64685 On ch=10 n=69 v=0
64685 On ch=10 n=56 v=0
64685 On ch=10 n=65 v=100
64686 On ch=10 n=68 v=0
64691 On ch=10 n=65 v=0
64708 On ch=10 n=69 v=112
64708 On ch=10 n=62 v=121
64709 On ch=10 n=65 v=95
64712 On ch=10 n=65 v=98
64714 On ch=10 n=62 v=0
64714 On ch=10 n=69 v=0
64715 On ch=10 n=65 v=0
64718 On ch=10 n=65 v=0
64727 On ch=10 n=65 v=108
64733 On ch=10 n=65 v=0
64738 On ch=10 n=63 v=123
64739 On ch=10 n=69 v=117
64739 On ch=10 n=65 v=97
64744 On ch=10 n=63 v=0
64745 On ch=10 n=65 v=0
64745 On ch=10 n=69 v=0
64748 On ch=10 n=65 v=93
64754 On ch=10 n=65 v=0
64771 On ch=10 n=69 v=120
64771 On ch=10 n=65 v=99
64777 On ch=10 n=65 v=0
64777 On ch=10 n=69 v=0
64793 On ch=10 n=65 v=122
64799 On ch=10 n=65 v=0
64800 On ch=10 n=65 v=97
64800 On ch=10 n=63 v=120
64800 On ch=10 n=68 v=108
64801 On ch=10 n=69 v=122
64801 On ch=10 n=56 v=105
64803 On ch=10 n=33 v=121
64806 On ch=10 n=68 v=0
64806 On ch=10 n=65 v=0
64806 On ch=10 n=63 v=0
64807 On ch=10 n=69 v=0
64807 On ch=10 n=56 v=0
64809 On ch=10 n=33 v=0
64828 On ch=10 n=65 v=70
64829 On ch=10 n=69 v=86
64831 On ch=10 n=62 v=79
64834 On ch=10 n=65 v=0
64835 On ch=10 n=69 v=0
64837 On ch=10 n=62 v=0
64859 On ch=10 n=69 v=100
64859 On ch=10 n=63 v=95
64865 On ch=10 n=63 v=0
64865 On ch=10 n=69 v=0
64883 On ch=10 n=68 v=100
64887 On ch=10 n=65 v=89
64889 On ch=10 n=68 v=0
64891 On ch=10 n=69 v=112
64891 On ch=10 n=62 v=90
64893 On ch=10 n=65 v=0
64897 On ch=10 n=62 v=0
64897 On ch=10 n=69 v=0
64920 On ch=10 n=65 v=97
64921 On ch=10 n=33 v=87
64922 On ch=10 n=69 v=122
64922 On ch=10 n=64 v=122
64923 On ch=10 n=56 v=102
64926 On ch=10 n=65 v=0
64927 On ch=10 n=33 v=0
64928 On ch=10 n=64 v=0
64928 On ch=10 n=69 v=0
64929 On ch=10 n=56 v=0
64949 On ch=10 n=69 v=95
64951 On ch=10 n=62 v=85
64955 On ch=10 n=69 v=0
64957 On ch=10 n=62 v=0
64966 On ch=10 n=68 v=79
64972 On ch=10 n=68 v=0
64980 On ch=10 n=65 v=65
64981 On ch=10 n=69 v=112
64982 On ch=10 n=64 v=73
64986 On ch=10 n=65 v=0
64987 On ch=10 n=69 v=0
64988 On ch=10 n=64 v=0
65009 On ch=10 n=66 v=89
65011 On ch=10 n=69 v=95
65013 On ch=10 n=62 v=95
65015 On ch=10 n=66 v=0
65017 On ch=10 n=69 v=0
65019 On ch=10 n=62 v=0
65040 On ch=10 n=69 v=122
65040 On ch=10 n=65 v=95
65043 On ch=10 n=68 v=108
65044 On ch=10 n=56 v=102
65044 On ch=10 n=63 v=122
65044 On ch=10 n=33 v=100
65046 On ch=10 n=65 v=0
65046 On ch=10 n=69 v=0
65049 On ch=10 n=68 v=0
65050 On ch=10 n=56 v=0
65050 On ch=10 n=63 v=0
65050 On ch=10 n=33 v=0
65069 On ch=10 n=69 v=79
65073 On ch=10 n=62 v=98
65075 On ch=10 n=69 v=0
65079 On ch=10 n=62 v=0
65101 On ch=10 n=69 v=108
65102 On ch=10 n=65 v=70
65102 On ch=10 n=33 v=65
65103 On ch=10 n=63 v=117
65107 On ch=10 n=69 v=0
65108 On ch=10 n=65 v=0
65108 On ch=10 n=33 v=0
65109 On ch=10 n=63 v=0
65123 On ch=10 n=68 v=79
65129 On ch=10 n=68 v=0
65132 On ch=10 n=69 v=83
65132 On ch=10 n=33 v=112
65133 On ch=10 n=65 v=54
65133 On ch=10 n=62 v=117
65138 On ch=10 n=33 v=0
65138 On ch=10 n=69 v=0
65139 On ch=10 n=65 v=0
65139 On ch=10 n=62 v=0
65161 On ch=10 n=69 v=123
65161 On ch=10 n=66 v=62
65162 On ch=10 n=56 v=96
65162 On ch=10 n=33 v=122
65164 On ch=10 n=64 v=122
65167 On ch=10 n=66 v=0
65167 On ch=10 n=69 v=0
65168 On ch=10 n=33 v=0
65168 On ch=10 n=56 v=0
65170 On ch=10 n=64 v=0
65191 On ch=10 n=69 v=90
65193 On ch=10 n=63 v=108
65197 On ch=10 n=69 v=0
65199 On ch=10 n=63 v=0
65206 On ch=10 n=68 v=86
65212 On ch=10 n=68 v=0
65215 On ch=10 n=66 v=75
65219 On ch=10 n=66 v=96
65221 On ch=10 n=66 v=0
65221 On ch=10 n=69 v=100
65223 On ch=10 n=64 v=98
65223 On ch=10 n=62 v=81
65225 On ch=10 n=66 v=0
65227 On ch=10 n=69 v=0
65229 On ch=10 n=64 v=0
65229 On ch=10 n=62 v=0
65249 On ch=10 n=69 v=95
65250 On ch=10 n=65 v=87
65252 On ch=10 n=63 v=122
65255 On ch=10 n=69 v=0
65256 On ch=10 n=65 v=0
65258 On ch=10 n=63 v=0
65278 On ch=10 n=66 v=87
65279 On ch=10 n=69 v=122
65281 On ch=10 n=56 v=105
65283 On ch=10 n=65 v=70
65283 On ch=10 n=64 v=117
65284 On ch=10 n=66 v=0
65285 On ch=10 n=69 v=0
65285 On ch=10 n=68 v=98
65287 On ch=10 n=56 v=0
65289 On ch=10 n=64 v=0
65289 On ch=10 n=65 v=0
65291 On ch=10 n=68 v=0
65301 On ch=10 n=66 v=112
65307 On ch=10 n=66 v=0
65308 On ch=10 n=69 v=79
65311 On ch=10 n=66 v=89
65312 On ch=10 n=63 v=112
65314 On ch=10 n=69 v=0
65317 On ch=10 n=66 v=0
65318 On ch=10 n=63 v=0
65325 On ch=10 n=66 v=93
65331 On ch=10 n=66 v=0
65339 On ch=10 n=33 v=69
65340 On ch=10 n=66 v=114
65341 On ch=10 n=69 v=108
65341 On ch=10 n=65 v=79
65345 On ch=10 n=33 v=0
65346 On ch=10 n=66 v=0
65347 On ch=10 n=69 v=0
65347 On ch=10 n=65 v=0
65364 On ch=10 n=68 v=85
65367 On ch=10 n=66 v=122
65370 On ch=10 n=68 v=0
65370 On ch=10 n=33 v=112
65371 On ch=10 n=69 v=87
65373 On ch=10 n=66 v=0
65373 On ch=10 n=66 v=62
65373 On ch=10 n=62 v=77
65376 On ch=10 n=33 v=0
65377 On ch=10 n=69 v=0
65379 On ch=10 n=66 v=0
65379 On ch=10 n=62 v=0
65399 On ch=10 n=33 v=122
65401 On ch=10 n=69 v=122
65401 On ch=10 n=56 v=102
65402 On ch=10 n=65 v=92
65403 On ch=10 n=63 v=122
65405 On ch=10 n=33 v=0
65407 On ch=10 n=69 v=0
65407 On ch=10 n=56 v=0
65408 On ch=10 n=65 v=0
65409 On ch=10 n=63 v=0
65431 On ch=10 n=69 v=76
65432 On ch=10 n=66 v=83
65437 On ch=10 n=69 v=0
65438 On ch=10 n=66 v=0
65460 On ch=10 n=68 v=87
65462 On ch=10 n=69 v=108
65462 On ch=10 n=65 v=62
65462 On ch=10 n=63 v=121
65466 On ch=10 n=68 v=0
65468 On ch=10 n=69 v=0
65468 On ch=10 n=65 v=0
65468 On ch=10 n=63 v=0
65491 On ch=10 n=69 v=98
65491 On ch=10 n=65 v=95
65492 On ch=10 n=62 v=121
65497 On ch=10 n=65 v=0
65497 On ch=10 n=69 v=0
65498 On ch=10 n=62 v=0
65519 On ch=10 n=33 v=77
65521 On ch=10 n=56 v=105
65522 On ch=10 n=69 v=122
65522 On ch=10 n=65 v=95
65523 On ch=10 n=64 v=117
65523 On ch=10 n=68 v=108
65525 On ch=10 n=33 v=0
65527 On ch=10 n=56 v=0
65528 On ch=10 n=65 v=0
65528 On ch=10 n=69 v=0
65529 On ch=10 n=68 v=0
65529 On ch=10 n=64 v=0
65551 On ch=10 n=69 v=85
65551 On ch=10 n=62 v=112
65552 On ch=10 n=65 v=83
65557 On ch=10 n=62 v=0
65557 On ch=10 n=69 v=0
65558 On ch=10 n=65 v=0
65577 On ch=10 n=33 v=86
65581 On ch=10 n=65 v=83
65581 On ch=10 n=64 v=114
65582 On ch=10 n=69 v=98
65583 On ch=10 n=33 v=0
65587 On ch=10 n=65 v=0
65587 On ch=10 n=64 v=0
65588 On ch=10 n=69 v=0
65602 On ch=10 n=68 v=74
65608 On ch=10 n=68 v=0
65608 On ch=10 n=33 v=112
65611 On ch=10 n=69 v=85
65611 On ch=10 n=62 v=120
65613 On ch=10 n=65 v=95
65614 On ch=10 n=33 v=0
65617 On ch=10 n=69 v=0
65617 On ch=10 n=62 v=0
65619 On ch=10 n=65 v=0
65639 On ch=10 n=33 v=121
65640 On ch=10 n=56 v=105
65641 On ch=10 n=69 v=123
65641 On ch=10 n=63 v=122
65644 On ch=10 n=65 v=98
65645 On ch=10 n=33 v=0
65646 On ch=10 n=56 v=0
65647 On ch=10 n=63 v=0
65647 On ch=10 n=69 v=0
65650 On ch=10 n=65 v=0
65669 On ch=10 n=33 v=98
65671 On ch=10 n=69 v=86
65671 On ch=10 n=65 v=89
65671 On ch=10 n=62 v=104
65675 On ch=10 n=33 v=0
65677 On ch=10 n=69 v=0
65677 On ch=10 n=65 v=0
65677 On ch=10 n=62 v=0
65683 On ch=10 n=68 v=87
65689 On ch=10 n=68 v=0
65701 On ch=10 n=69 v=104
65701 On ch=10 n=64 v=117
65701 On ch=10 n=33 v=117
65702 On ch=10 n=65 v=86
65703 On ch=10 n=62 v=108
65707 On ch=10 n=33 v=0
65707 On ch=10 n=69 v=0
65707 On ch=10 n=64 v=0
65708 On ch=10 n=65 v=0
65709 On ch=10 n=62 v=0
65732 On ch=10 n=69 v=104
65733 On ch=10 n=65 v=95
65733 On ch=10 n=63 v=100
65738 On ch=10 n=69 v=0
65739 On ch=10 n=63 v=0
65739 On ch=10 n=65 v=0
65758 On ch=10 n=68 v=108
65761 On ch=10 n=69 v=122
65761 On ch=10 n=56 v=105
65761 On ch=10 n=66 v=97
65761 On ch=10 n=64 v=108
65761 On ch=10 n=62 v=98
65764 On ch=10 n=68 v=0
65767 On ch=10 n=56 v=0
65767 On ch=10 n=66 v=0
65767 On ch=10 n=69 v=0
65767 On ch=10 n=62 v=0
65767 On ch=10 n=64 v=0
65791 On ch=10 n=69 v=87
65792 On ch=10 n=65 v=95
65792 On ch=10 n=63 v=117
65797 On ch=10 n=69 v=0
65798 On ch=10 n=63 v=0
65798 On ch=10 n=65 v=0
65821 On ch=10 n=69 v=95
65821 On ch=10 n=64 v=117
65822 On ch=10 n=66 v=95
65823 On ch=10 n=33 v=100
65827 On ch=10 n=64 v=0
65827 On ch=10 n=69 v=0
65828 On ch=10 n=66 v=0
65829 On ch=10 n=33 v=0
65839 On ch=10 n=68 v=72
65845 On ch=10 n=68 v=0
65851 On ch=10 n=66 v=95
65851 On ch=10 n=63 v=122
65852 On ch=10 n=69 v=100
65854 On ch=10 n=33 v=120
65857 On ch=10 n=63 v=0
65857 On ch=10 n=66 v=0
65858 On ch=10 n=69 v=0
65860 On ch=10 n=33 v=0
65881 On ch=10 n=56 v=105
65882 On ch=10 n=69 v=123
65882 On ch=10 n=65 v=95
65883 On ch=10 n=62 v=121
65887 On ch=10 n=56 v=0
65888 On ch=10 n=69 v=0
65888 On ch=10 n=65 v=0
65889 On ch=10 n=62 v=0
65910 On ch=10 n=69 v=93
65913 On ch=10 n=66 v=86
65916 On ch=10 n=69 v=0
65919 On ch=10 n=66 v=0
65921 On ch=10 n=68 v=95
65927 On ch=10 n=68 v=0
65935 On ch=10 n=62 v=74
65941 On ch=10 n=62 v=0
65942 On ch=10 n=69 v=98
65942 On ch=10 n=63 v=100
65948 On ch=10 n=63 v=0
65948 On ch=10 n=69 v=0
65970 On ch=10 n=66 v=95
65972 On ch=10 n=69 v=108
65972 On ch=10 n=62 v=111
65976 On ch=10 n=66 v=0
65978 On ch=10 n=62 v=0
65978 On ch=10 n=69 v=0
65999 On ch=10 n=68 v=98
66001 On ch=10 n=56 v=105
66001 On ch=10 n=65 v=95
66002 On ch=10 n=69 v=124
66002 On ch=10 n=33 v=68
66003 On ch=10 n=63 v=123
66005 On ch=10 n=68 v=0
66007 On ch=10 n=56 v=0
66007 On ch=10 n=65 v=0
66008 On ch=10 n=69 v=0
66008 On ch=10 n=33 v=0
66009 On ch=10 n=63 v=0
66031 On ch=10 n=69 v=86
66031 On ch=10 n=62 v=111
66032 On ch=10 n=65 v=87
66037 On ch=10 n=62 v=0
66037 On ch=10 n=69 v=0
66038 On ch=10 n=65 v=0
66056 On ch=10 n=33 v=104
66061 On ch=10 n=65 v=52
66061 On ch=10 n=64 v=117
66062 On ch=10 n=33 v=0
66062 On ch=10 n=69 v=87
66064 On ch=10 n=33 v=111
66067 On ch=10 n=64 v=0
66067 On ch=10 n=65 v=0
66068 On ch=10 n=69 v=0
66070 On ch=10 n=33 v=0
66077 On ch=10 n=68 v=77
66083 On ch=10 n=68 v=0
66091 On ch=10 n=69 v=112
66091 On ch=10 n=65 v=92
66092 On ch=10 n=63 v=122
66097 On ch=10 n=65 v=0
66097 On ch=10 n=69 v=0
66098 On ch=10 n=63 v=0
66118 On ch=10 n=33 v=122
66120 On ch=10 n=56 v=105
66121 On ch=10 n=69 v=123
66121 On ch=10 n=66 v=97
66122 On ch=10 n=64 v=122
66124 On ch=10 n=33 v=0
66126 On ch=10 n=56 v=0
66127 On ch=10 n=66 v=0
66127 On ch=10 n=69 v=0
66128 On ch=10 n=64 v=0
66151 On ch=10 n=69 v=75
66152 On ch=10 n=66 v=95
66152 On ch=10 n=63 v=114
66157 On ch=10 n=69 v=0
66158 On ch=10 n=63 v=0
66158 On ch=10 n=66 v=0
66161 On ch=10 n=68 v=87
66167 On ch=10 n=68 v=0
66181 On ch=10 n=64 v=120
66182 On ch=10 n=69 v=95
66187 On ch=10 n=64 v=0
66188 On ch=10 n=69 v=0
66211 On ch=10 n=69 v=104
66211 On ch=10 n=66 v=79
66213 On ch=10 n=63 v=117
66217 On ch=10 n=66 v=0
66217 On ch=10 n=69 v=0
66219 On ch=10 n=63 v=0
66237 On ch=10 n=68 v=100
66237 On ch=10 n=33 v=60
66240 On ch=10 n=69 v=124
66240 On ch=10 n=56 v=107
66240 On ch=10 n=65 v=96
66240 On ch=10 n=62 v=120
66243 On ch=10 n=33 v=0
66243 On ch=10 n=68 v=0
66246 On ch=10 n=65 v=0
66246 On ch=10 n=56 v=0
66246 On ch=10 n=62 v=0
66246 On ch=10 n=69 v=0
66268 On ch=10 n=69 v=93
66271 On ch=10 n=66 v=89
66274 On ch=10 n=69 v=0
66277 On ch=10 n=66 v=0
66298 On ch=10 n=69 v=100
66298 On ch=10 n=68 v=95
66299 On ch=10 n=65 v=89
66301 On ch=10 n=63 v=120
66304 On ch=10 n=68 v=0
66304 On ch=10 n=69 v=0
66305 On ch=10 n=65 v=0
66305 On ch=10 n=33 v=95
66307 On ch=10 n=63 v=0
66311 On ch=10 n=33 v=0
66327 On ch=10 n=69 v=104
66328 On ch=10 n=62 v=117
66331 On ch=10 n=66 v=89
66333 On ch=10 n=69 v=0
66334 On ch=10 n=62 v=0
66337 On ch=10 n=66 v=0
66357 On ch=10 n=33 v=122
66359 On ch=10 n=69 v=124
66359 On ch=10 n=56 v=105
66359 On ch=10 n=63 v=124
66361 On ch=10 n=65 v=70
66363 On ch=10 n=33 v=0
66365 On ch=10 n=63 v=0
66365 On ch=10 n=69 v=0
66365 On ch=10 n=56 v=0
66367 On ch=10 n=65 v=0
66387 On ch=10 n=69 v=100
66389 On ch=10 n=65 v=92
66389 On ch=10 n=62 v=76
66393 On ch=10 n=69 v=0
66395 On ch=10 n=62 v=0
66395 On ch=10 n=65 v=0
66400 On ch=10 n=68 v=60
66406 On ch=10 n=68 v=0
66418 On ch=10 n=69 v=98
66418 On ch=10 n=66 v=99
66418 On ch=10 n=63 v=112
66424 On ch=10 n=63 v=0
66424 On ch=10 n=66 v=0
66424 On ch=10 n=69 v=0
66447 On ch=10 n=65 v=89
66448 On ch=10 n=69 v=104
66449 On ch=10 n=62 v=122
66453 On ch=10 n=65 v=0
66454 On ch=10 n=69 v=0
66455 On ch=10 n=62 v=0
66477 On ch=10 n=66 v=98
66478 On ch=10 n=69 v=123
66478 On ch=10 n=64 v=122
66479 On ch=10 n=56 v=99
66480 On ch=10 n=68 v=104
66483 On ch=10 n=66 v=0
66484 On ch=10 n=69 v=0
66484 On ch=10 n=64 v=0
66485 On ch=10 n=56 v=0
66486 On ch=10 n=68 v=0
66507 On ch=10 n=69 v=108
66507 On ch=10 n=65 v=92
66507 On ch=10 n=63 v=122
66513 On ch=10 n=63 v=0
66513 On ch=10 n=65 v=0
66513 On ch=10 n=69 v=0
66538 On ch=10 n=64 v=117
66538 On ch=10 n=33 v=79
66539 On ch=10 n=69 v=112
66539 On ch=10 n=65 v=92
66544 On ch=10 n=33 v=0
66544 On ch=10 n=64 v=0
66545 On ch=10 n=69 v=0
66545 On ch=10 n=65 v=0
66567 On ch=10 n=63 v=122
66568 On ch=10 n=65 v=95
66568 On ch=10 n=33 v=117
66569 On ch=10 n=69 v=112
66573 On ch=10 n=63 v=0
66574 On ch=10 n=65 v=0
66574 On ch=10 n=33 v=0
66575 On ch=10 n=69 v=0
66598 On ch=10 n=62 v=122
66599 On ch=10 n=69 v=124
66599 On ch=10 n=56 v=107
66599 On ch=10 n=65 v=97
66599 On ch=10 n=33 v=122
66600 On ch=10 n=68 v=95
66604 On ch=10 n=62 v=0
66605 On ch=10 n=33 v=0
66605 On ch=10 n=65 v=0
66605 On ch=10 n=69 v=0
66605 On ch=10 n=56 v=0
66606 On ch=10 n=68 v=0
66628 On ch=10 n=69 v=112
66628 On ch=10 n=62 v=121
66629 On ch=10 n=65 v=95
66634 On ch=10 n=62 v=0
66634 On ch=10 n=69 v=0
66635 On ch=10 n=65 v=0
66635 On ch=10 n=65 v=43
66641 On ch=10 n=65 v=0
66658 On ch=10 n=63 v=123
66659 On ch=10 n=69 v=117
66659 On ch=10 n=65 v=97
66661 On ch=10 n=65 v=75
66664 On ch=10 n=63 v=0
66665 On ch=10 n=69 v=0
66665 On ch=10 n=65 v=0
66667 On ch=10 n=65 v=0
66691 On ch=10 n=69 v=120
66691 On ch=10 n=65 v=99
66697 On ch=10 n=65 v=0
66697 On ch=10 n=69 v=0
66700 On ch=10 n=65 v=98
66706 On ch=10 n=65 v=0
66720 On ch=10 n=65 v=97
66720 On ch=10 n=63 v=120
66720 On ch=10 n=68 v=108
66721 On ch=10 n=69 v=122
66721 On ch=10 n=56 v=105
66723 On ch=10 n=33 v=121
66726 On ch=10 n=68 v=0
66726 On ch=10 n=65 v=0
66726 On ch=10 n=63 v=0
66727 On ch=10 n=69 v=0
66727 On ch=10 n=56 v=0
66729 On ch=10 n=33 v=0
66748 On ch=10 n=65 v=70
66749 On ch=10 n=69 v=86
66751 On ch=10 n=62 v=79
66754 On ch=10 n=65 v=0
66755 On ch=10 n=69 v=0
66757 On ch=10 n=62 v=0
66779 On ch=10 n=69 v=100
66779 On ch=10 n=63 v=95
66785 On ch=10 n=63 v=0
66785 On ch=10 n=69 v=0
66803 On ch=10 n=68 v=100
66807 On ch=10 n=65 v=89
66809 On ch=10 n=68 v=0
66810 On ch=10 n=65 v=114
66811 On ch=10 n=69 v=112
66811 On ch=10 n=62 v=90
66813 On ch=10 n=65 v=0
66816 On ch=10 n=65 v=0
66817 On ch=10 n=69 v=0
66817 On ch=10 n=62 v=0
66831 On ch=10 n=65 v=100
66837 On ch=10 n=65 v=0
66840 On ch=10 n=65 v=97
66841 On ch=10 n=33 v=87
66842 On ch=10 n=69 v=122
66842 On ch=10 n=64 v=122
66843 On ch=10 n=56 v=102
66846 On ch=10 n=65 v=0
66847 On ch=10 n=33 v=0
66848 On ch=10 n=64 v=0
66848 On ch=10 n=69 v=0
66849 On ch=10 n=56 v=0
66850 On ch=10 n=65 v=111
66856 On ch=10 n=65 v=0
66869 On ch=10 n=69 v=95
66871 On ch=10 n=65 v=114
66871 On ch=10 n=62 v=85
66875 On ch=10 n=69 v=0
66877 On ch=10 n=62 v=0
66877 On ch=10 n=65 v=0
66886 On ch=10 n=68 v=79
66889 On ch=10 n=65 v=120
66892 On ch=10 n=68 v=0
66895 On ch=10 n=65 v=0
66900 On ch=10 n=65 v=65
66901 On ch=10 n=69 v=112
66902 On ch=10 n=64 v=73
66906 On ch=10 n=65 v=0
66907 On ch=10 n=69 v=0
66908 On ch=10 n=64 v=0
66910 On ch=10 n=65 v=120
66916 On ch=10 n=65 v=0
66929 On ch=10 n=66 v=89
66931 On ch=10 n=69 v=95
66933 On ch=10 n=62 v=95
66935 On ch=10 n=66 v=0
66937 On ch=10 n=69 v=0
66939 On ch=10 n=62 v=0
66960 On ch=10 n=69 v=122
66960 On ch=10 n=65 v=95
66963 On ch=10 n=68 v=108
66964 On ch=10 n=56 v=102
66964 On ch=10 n=63 v=122
66964 On ch=10 n=33 v=100
66966 On ch=10 n=65 v=0
66966 On ch=10 n=69 v=0
66969 On ch=10 n=68 v=0
66970 On ch=10 n=56 v=0
66970 On ch=10 n=63 v=0
66970 On ch=10 n=33 v=0
66981 On ch=10 n=65 v=76
66987 On ch=10 n=65 v=0
66989 On ch=10 n=69 v=79
66993 On ch=10 n=62 v=98
66995 On ch=10 n=69 v=0
66999 On ch=10 n=62 v=0
67012 On ch=10 n=65 v=74
67018 On ch=10 n=65 v=0
67021 On ch=10 n=69 v=108
67022 On ch=10 n=65 v=70
67022 On ch=10 n=33 v=65
67023 On ch=10 n=63 v=117
67027 On ch=10 n=69 v=0
67028 On ch=10 n=65 v=0
67028 On ch=10 n=33 v=0
67029 On ch=10 n=63 v=0
67043 On ch=10 n=68 v=79
67049 On ch=10 n=68 v=0
67049 On ch=10 n=65 v=98
67052 On ch=10 n=69 v=83
67052 On ch=10 n=33 v=112
67053 On ch=10 n=65 v=54
67053 On ch=10 n=62 v=117
67055 On ch=10 n=65 v=0
67058 On ch=10 n=33 v=0
67058 On ch=10 n=69 v=0
67059 On ch=10 n=65 v=0
67059 On ch=10 n=62 v=0
67067 On ch=10 n=65 v=117
67073 On ch=10 n=65 v=0
67081 On ch=10 n=69 v=123
67081 On ch=10 n=66 v=62
67082 On ch=10 n=56 v=96
67082 On ch=10 n=33 v=122
67084 On ch=10 n=64 v=122
67087 On ch=10 n=66 v=0
67087 On ch=10 n=69 v=0
67088 On ch=10 n=33 v=0
67088 On ch=10 n=56 v=0
67088 On ch=10 n=65 v=123
67090 On ch=10 n=64 v=0
67094 On ch=10 n=65 v=0
67111 On ch=10 n=69 v=90
67113 On ch=10 n=63 v=108
67117 On ch=10 n=69 v=0
67119 On ch=10 n=63 v=0
67126 On ch=10 n=68 v=86
67132 On ch=10 n=68 v=0
67139 On ch=10 n=66 v=96
67141 On ch=10 n=69 v=100
67143 On ch=10 n=64 v=98
67143 On ch=10 n=62 v=81
67145 On ch=10 n=66 v=0
67147 On ch=10 n=69 v=0
67149 On ch=10 n=64 v=0
67149 On ch=10 n=62 v=0
67159 On ch=10 n=66 v=108
67165 On ch=10 n=66 v=0
67169 On ch=10 n=69 v=95
67170 On ch=10 n=65 v=87
67172 On ch=10 n=63 v=122
67175 On ch=10 n=69 v=0
67176 On ch=10 n=65 v=0
67178 On ch=10 n=63 v=0
67190 On ch=10 n=66 v=104
67196 On ch=10 n=66 v=0
67199 On ch=10 n=69 v=122
67201 On ch=10 n=56 v=105
67203 On ch=10 n=65 v=70
67203 On ch=10 n=64 v=117
67205 On ch=10 n=69 v=0
67205 On ch=10 n=68 v=98
67207 On ch=10 n=56 v=0
67209 On ch=10 n=64 v=0
67209 On ch=10 n=65 v=0
67211 On ch=10 n=68 v=0
67227 On ch=10 n=66 v=114
67228 On ch=10 n=69 v=79
67231 On ch=10 n=66 v=89
67232 On ch=10 n=63 v=112
67233 On ch=10 n=66 v=0
67234 On ch=10 n=69 v=0
67237 On ch=10 n=66 v=0
67238 On ch=10 n=63 v=0
67243 On ch=10 n=66 v=120
67249 On ch=10 n=66 v=0
67259 On ch=10 n=33 v=69
67261 On ch=10 n=69 v=108
67261 On ch=10 n=65 v=79
67265 On ch=10 n=33 v=0
67267 On ch=10 n=65 v=0
67267 On ch=10 n=69 v=0
67269 On ch=10 n=66 v=123
67275 On ch=10 n=66 v=0
67284 On ch=10 n=68 v=85
67290 On ch=10 n=68 v=0
67290 On ch=10 n=33 v=112
67291 On ch=10 n=69 v=87
67293 On ch=10 n=66 v=62
67293 On ch=10 n=62 v=77
67296 On ch=10 n=33 v=0
67297 On ch=10 n=69 v=0
67299 On ch=10 n=66 v=0
67299 On ch=10 n=62 v=0
67319 On ch=10 n=33 v=122
67321 On ch=10 n=69 v=122
67321 On ch=10 n=56 v=102
67322 On ch=10 n=65 v=92
67323 On ch=10 n=63 v=122
67325 On ch=10 n=33 v=0
67327 On ch=10 n=69 v=0
67327 On ch=10 n=56 v=0
67328 On ch=10 n=65 v=0
67329 On ch=10 n=63 v=0
67351 On ch=10 n=69 v=76
67352 On ch=10 n=66 v=83
67357 On ch=10 n=69 v=0
67358 On ch=10 n=66 v=0
67380 On ch=10 n=68 v=87
67382 On ch=10 n=69 v=108
67382 On ch=10 n=65 v=62
67382 On ch=10 n=63 v=121
67386 On ch=10 n=68 v=0
67388 On ch=10 n=69 v=0
67388 On ch=10 n=65 v=0
67388 On ch=10 n=63 v=0
67411 On ch=10 n=69 v=98
67411 On ch=10 n=65 v=95
67412 On ch=10 n=62 v=121
67417 On ch=10 n=65 v=0
67417 On ch=10 n=69 v=0
67418 On ch=10 n=62 v=0
67439 On ch=10 n=33 v=77
67441 On ch=10 n=56 v=105
67442 On ch=10 n=69 v=122
67442 On ch=10 n=65 v=95
67443 On ch=10 n=64 v=117
67443 On ch=10 n=68 v=108
67445 On ch=10 n=33 v=0
67447 On ch=10 n=56 v=0
67448 On ch=10 n=65 v=0
67448 On ch=10 n=69 v=0
67449 On ch=10 n=68 v=0
67449 On ch=10 n=64 v=0
67471 On ch=10 n=69 v=85
67471 On ch=10 n=62 v=112
67472 On ch=10 n=65 v=83
67477 On ch=10 n=62 v=0
67477 On ch=10 n=69 v=0
67478 On ch=10 n=65 v=0
67497 On ch=10 n=33 v=86
67501 On ch=10 n=65 v=83
67501 On ch=10 n=64 v=114
67502 On ch=10 n=69 v=98
67503 On ch=10 n=33 v=0
67507 On ch=10 n=65 v=0
67507 On ch=10 n=64 v=0
67508 On ch=10 n=69 v=0
67522 On ch=10 n=68 v=74
67528 On ch=10 n=68 v=0
67528 On ch=10 n=33 v=112
67531 On ch=10 n=69 v=85
67531 On ch=10 n=62 v=120
67533 On ch=10 n=65 v=95
67534 On ch=10 n=33 v=0
67537 On ch=10 n=69 v=0
67537 On ch=10 n=62 v=0
67539 On ch=10 n=65 v=0
67559 On ch=10 n=33 v=121
67560 On ch=10 n=56 v=105
67561 On ch=10 n=69 v=123
67561 On ch=10 n=63 v=122
67564 On ch=10 n=65 v=98
67565 On ch=10 n=33 v=0
67566 On ch=10 n=56 v=0
67567 On ch=10 n=63 v=0
67567 On ch=10 n=69 v=0
67570 On ch=10 n=65 v=0
67589 On ch=10 n=33 v=98
67591 On ch=10 n=69 v=86
67591 On ch=10 n=65 v=89
67591 On ch=10 n=62 v=104
67595 On ch=10 n=33 v=0
67597 On ch=10 n=69 v=0
67597 On ch=10 n=65 v=0
67597 On ch=10 n=62 v=0
67603 On ch=10 n=68 v=87
67609 On ch=10 n=68 v=0
67621 On ch=10 n=69 v=104
67621 On ch=10 n=64 v=117
67621 On ch=10 n=33 v=117
67622 On ch=10 n=65 v=86
67623 On ch=10 n=62 v=108
67627 On ch=10 n=33 v=0
67627 On ch=10 n=69 v=0
67627 On ch=10 n=64 v=0
67628 On ch=10 n=65 v=0
67629 On ch=10 n=62 v=0
67652 On ch=10 n=69 v=104
67653 On ch=10 n=65 v=95
67653 On ch=10 n=63 v=100
67658 On ch=10 n=69 v=0
67659 On ch=10 n=63 v=0
67659 On ch=10 n=65 v=0
67678 On ch=10 n=68 v=108
67681 On ch=10 n=69 v=122
67681 On ch=10 n=66 v=97
67681 On ch=10 n=64 v=108
67681 On ch=10 n=62 v=98
67682 On ch=10 n=56 v=87
67684 On ch=10 n=68 v=0
67687 On ch=10 n=62 v=0
67687 On ch=10 n=64 v=0
67687 On ch=10 n=69 v=0
67687 On ch=10 n=66 v=0
67688 On ch=10 n=56 v=0
67711 On ch=10 n=69 v=87
67712 On ch=10 n=65 v=95
67712 On ch=10 n=63 v=117
67717 On ch=10 n=69 v=0
67718 On ch=10 n=63 v=0
67718 On ch=10 n=65 v=0
67741 On ch=10 n=69 v=95
67741 On ch=10 n=64 v=117
67742 On ch=10 n=66 v=95
67743 On ch=10 n=33 v=100
67747 On ch=10 n=64 v=0
67747 On ch=10 n=69 v=0
67748 On ch=10 n=66 v=0
67749 On ch=10 n=33 v=0
67759 On ch=10 n=68 v=72
67765 On ch=10 n=68 v=0
67771 On ch=10 n=66 v=95
67771 On ch=10 n=63 v=122
67772 On ch=10 n=69 v=100
67774 On ch=10 n=33 v=120
67777 On ch=10 n=63 v=0
67777 On ch=10 n=66 v=0
67778 On ch=10 n=69 v=0
67780 On ch=10 n=33 v=0
67801 On ch=10 n=56 v=95
67802 On ch=10 n=69 v=123
67802 On ch=10 n=65 v=95
67803 On ch=10 n=62 v=121
67807 On ch=10 n=56 v=0
67808 On ch=10 n=69 v=0
67808 On ch=10 n=65 v=0
67809 On ch=10 n=62 v=0
67830 On ch=10 n=69 v=93
67833 On ch=10 n=66 v=86
67836 On ch=10 n=69 v=0
67839 On ch=10 n=66 v=0
67841 On ch=10 n=68 v=95
67847 On ch=10 n=68 v=0
67855 On ch=10 n=62 v=74
67861 On ch=10 n=62 v=0
67862 On ch=10 n=69 v=98
67862 On ch=10 n=63 v=100
67868 On ch=10 n=63 v=0
67868 On ch=10 n=69 v=0
67890 On ch=10 n=66 v=95
67892 On ch=10 n=69 v=108
67892 On ch=10 n=62 v=111
67896 On ch=10 n=66 v=0
67898 On ch=10 n=62 v=0
67898 On ch=10 n=69 v=0
67919 On ch=10 n=56 v=100
67919 On ch=10 n=68 v=98
67921 On ch=10 n=65 v=95
67922 On ch=10 n=69 v=124
67922 On ch=10 n=33 v=68
67923 On ch=10 n=63 v=123
67925 On ch=10 n=68 v=0
67925 On ch=10 n=56 v=0
67927 On ch=10 n=65 v=0
67928 On ch=10 n=69 v=0
67928 On ch=10 n=33 v=0
67929 On ch=10 n=63 v=0
67951 On ch=10 n=69 v=86
67951 On ch=10 n=62 v=111
67952 On ch=10 n=65 v=87
67957 On ch=10 n=62 v=0
67957 On ch=10 n=69 v=0
67958 On ch=10 n=65 v=0
67976 On ch=10 n=33 v=104
67981 On ch=10 n=65 v=52
67981 On ch=10 n=64 v=117
67982 On ch=10 n=33 v=0
67982 On ch=10 n=69 v=87
67984 On ch=10 n=33 v=111
67987 On ch=10 n=64 v=0
67987 On ch=10 n=65 v=0
67988 On ch=10 n=69 v=0
67990 On ch=10 n=33 v=0
67997 On ch=10 n=68 v=77
68003 On ch=10 n=68 v=0
68011 On ch=10 n=69 v=112
68011 On ch=10 n=65 v=92
68012 On ch=10 n=63 v=122
68017 On ch=10 n=65 v=0
68017 On ch=10 n=69 v=0
68018 On ch=10 n=63 v=0
68038 On ch=10 n=33 v=122
68041 On ch=10 n=69 v=123
68041 On ch=10 n=56 v=104
68041 On ch=10 n=66 v=97
68042 On ch=10 n=64 v=122
68044 On ch=10 n=33 v=0
68047 On ch=10 n=66 v=0
68047 On ch=10 n=69 v=0
68047 On ch=10 n=56 v=0
68048 On ch=10 n=64 v=0
68071 On ch=10 n=69 v=75
68072 On ch=10 n=66 v=95
68072 On ch=10 n=63 v=114
68077 On ch=10 n=69 v=0
68078 On ch=10 n=63 v=0
68078 On ch=10 n=66 v=0
68081 On ch=10 n=68 v=87
68087 On ch=10 n=68 v=0
68101 On ch=10 n=64 v=120
68102 On ch=10 n=69 v=95
68107 On ch=10 n=64 v=0
68108 On ch=10 n=69 v=0
68131 On ch=10 n=69 v=104
68131 On ch=10 n=66 v=79
68133 On ch=10 n=63 v=117
68137 On ch=10 n=66 v=0
68137 On ch=10 n=69 v=0
68139 On ch=10 n=63 v=0
68155 On ch=10 n=68 v=122
68157 On ch=10 n=68 v=100
68157 On ch=10 n=33 v=60
68161 On ch=10 n=68 v=0
68161 On ch=10 n=56 v=108
68161 On ch=10 n=64 v=114
68163 On ch=10 n=33 v=0
68163 On ch=10 n=68 v=0
68163 On ch=10 n=69 v=122
68163 On ch=10 n=65 v=121
68167 On ch=10 n=56 v=0
68167 On ch=10 n=64 v=0
68169 On ch=10 n=69 v=0
68169 On ch=10 n=65 v=0
68189 On ch=10 n=63 v=100
68191 On ch=10 n=65 v=120
68193 On ch=10 n=69 v=83
68195 On ch=10 n=63 v=0
68197 On ch=10 n=65 v=0
68199 On ch=10 n=69 v=0
68222 On ch=10 n=69 v=98
68222 On ch=10 n=65 v=75
68228 On ch=10 n=65 v=0
68228 On ch=10 n=69 v=0
68247 On ch=10 n=67 v=108
68252 On ch=10 n=31 v=67
68253 On ch=10 n=67 v=0
68253 On ch=10 n=69 v=87
68258 On ch=10 n=31 v=0
68259 On ch=10 n=69 v=0
68279 On ch=10 n=56 v=108
68279 On ch=10 n=64 v=122
68282 On ch=10 n=69 v=124
68282 On ch=10 n=65 v=123
68283 On ch=10 n=31 v=100
68285 On ch=10 n=64 v=0
68285 On ch=10 n=56 v=0
68288 On ch=10 n=65 v=0
68288 On ch=10 n=69 v=0
68289 On ch=10 n=31 v=0
68311 On ch=10 n=69 v=86
68311 On ch=10 n=63 v=114
68312 On ch=10 n=65 v=121
68317 On ch=10 n=63 v=0
68317 On ch=10 n=69 v=0
68318 On ch=10 n=65 v=0
68337 On ch=10 n=67 v=112
68341 On ch=10 n=69 v=77
68341 On ch=10 n=64 v=95
68343 On ch=10 n=67 v=0
68343 On ch=10 n=65 v=104
68347 On ch=10 n=64 v=0
68347 On ch=10 n=69 v=0
68349 On ch=10 n=65 v=0
68371 On ch=10 n=69 v=100
68371 On ch=10 n=31 v=86
68373 On ch=10 n=65 v=100
68377 On ch=10 n=31 v=0
68377 On ch=10 n=69 v=0
68379 On ch=10 n=65 v=0
68400 On ch=10 n=56 v=108
68400 On ch=10 n=64 v=120
68401 On ch=10 n=69 v=122
68402 On ch=10 n=31 v=114
68403 On ch=10 n=66 v=120
68406 On ch=10 n=64 v=0
68406 On ch=10 n=56 v=0
68407 On ch=10 n=69 v=0
68408 On ch=10 n=31 v=0
68409 On ch=10 n=66 v=0
68426 On ch=10 n=67 v=122
68429 On ch=10 n=69 v=95
68429 On ch=10 n=31 v=79
68431 On ch=10 n=63 v=122
68432 On ch=10 n=67 v=0
68435 On ch=10 n=69 v=0
68435 On ch=10 n=31 v=0
68437 On ch=10 n=63 v=0
68460 On ch=10 n=69 v=114
68460 On ch=10 n=64 v=123
68461 On ch=10 n=31 v=75
68462 On ch=10 n=66 v=111
68466 On ch=10 n=64 v=0
68466 On ch=10 n=69 v=0
68467 On ch=10 n=31 v=0
68468 On ch=10 n=66 v=0
68490 On ch=10 n=31 v=117
68492 On ch=10 n=69 v=98
68492 On ch=10 n=65 v=122
68493 On ch=10 n=63 v=124
68496 On ch=10 n=31 v=0
68498 On ch=10 n=69 v=0
68498 On ch=10 n=65 v=0
68499 On ch=10 n=63 v=0
68517 On ch=10 n=61 v=122
68519 On ch=10 n=56 v=120
68521 On ch=10 n=69 v=123
68522 On ch=10 n=65 v=125
68522 On ch=10 n=67 v=122
68522 On ch=10 n=31 v=121
68523 On ch=10 n=61 v=0
68525 On ch=10 n=56 v=0
68527 On ch=10 n=69 v=0
68528 On ch=10 n=65 v=0
68528 On ch=10 n=67 v=0
68528 On ch=10 n=31 v=0
68544 On ch=10 n=61 v=111
68550 On ch=10 n=61 v=0
68569 On ch=10 n=61 v=93
68575 On ch=10 n=61 v=0
68591 On ch=10 n=61 v=75
68597 On ch=10 n=61 v=0
68613 On ch=10 n=61 v=72
68619 On ch=10 n=61 v=0
68635 On ch=10 n=61 v=70
68641 On ch=10 n=61 v=0
68655 On ch=10 n=61 v=77
68661 On ch=10 n=61 v=0
68677 On ch=10 n=61 v=70
68683 On ch=10 n=61 v=0
68698 On ch=10 n=61 v=83
68704 On ch=10 n=61 v=0
68722 On ch=10 n=61 v=71
68728 On ch=10 n=61 v=0
68743 On ch=10 n=61 v=85
68749 On ch=10 n=61 v=0
68766 On ch=10 n=61 v=74
68772 On ch=10 n=61 v=0
68789 On ch=10 n=61 v=98
68795 On ch=10 n=61 v=0
68811 On ch=10 n=61 v=81
68817 On ch=10 n=61 v=0
68832 On ch=10 n=61 v=93
68838 On ch=10 n=61 v=0
68853 On ch=10 n=61 v=87
68859 On ch=10 n=61 v=0
68877 On ch=10 n=61 v=111
68883 On ch=10 n=61 v=0
68898 On ch=10 n=61 v=95
68904 On ch=10 n=61 v=0
68920 On ch=10 n=61 v=117
68926 On ch=10 n=61 v=0
68944 On ch=10 n=61 v=108
68950 On ch=10 n=61 v=0
68965 On ch=10 n=61 v=100
68971 On ch=10 n=61 v=0
68988 On ch=10 n=61 v=108
68994 On ch=10 n=61 v=0
69011 On ch=10 n=61 v=121
69017 On ch=10 n=61 v=0
69032 On ch=10 n=61 v=108
69038 On ch=10 n=61 v=0
69053 On ch=10 n=61 v=114
69059 On ch=10 n=61 v=0
69077 On ch=10 n=61 v=117
69083 On ch=10 n=61 v=0
69099 On ch=10 n=61 v=120
69105 On ch=10 n=61 v=0
69124 On ch=10 n=61 v=114
69130 On ch=10 n=61 v=0
69147 On ch=10 n=61 v=121
69153 On ch=10 n=61 v=0
69169 On ch=10 n=61 v=117
69175 On ch=10 n=61 v=0
69191 On ch=10 n=61 v=121
69197 On ch=10 n=61 v=0
69215 On ch=10 n=61 v=120
69221 On ch=10 n=61 v=0
69242 On ch=10 n=61 v=122
69248 On ch=10 n=61 v=0
69272 On ch=10 n=61 v=117
69278 On ch=10 n=61 v=0
69303 On ch=10 n=61 v=121
69309 On ch=10 n=61 v=0
69335 On ch=10 n=61 v=117
69341 On ch=10 n=61 v=0
69369 On ch=10 n=61 v=122
69375 On ch=10 n=61 v=0
69404 On ch=10 n=61 v=114
69410 On ch=10 n=61 v=0
69442 On ch=10 n=61 v=122
69448 On ch=10 n=61 v=0
69482 On ch=10 n=61 v=117
69488 On ch=10 n=61 v=0
69529 On ch=10 n=61 v=123
69535 On ch=10 n=61 v=0
69576 On ch=10 n=61 v=117
69582 On ch=10 n=61 v=0
69633 On ch=10 n=61 v=122
69639 On ch=10 n=61 v=0
69689 On ch=10 n=61 v=122
69695 On ch=10 n=61 v=0
69753 On ch=10 n=61 v=122
69759 On ch=10 n=61 v=0
69822 On ch=10 n=61 v=122
69828 On ch=10 n=61 v=0
69914 On ch=10 n=61 v=122
69920 On ch=10 n=61 v=0
70015 On ch=10 n=61 v=122
70021 On ch=10 n=61 v=0
70127 On ch=10 n=61 v=122
70133 On ch=10 n=61 v=0
70250 On ch=10 n=61 v=122
70256 On ch=10 n=61 v=0
70393 On ch=10 n=61 v=121
70399 On ch=10 n=61 v=0
70534 On ch=10 n=61 v=120
70540 On ch=10 n=61 v=0
73239 On ch=10 n=31 v=64
73245 On ch=10 n=31 v=0
73249 On ch=10 n=31 v=68
73255 On ch=10 n=31 v=0
73259 On ch=10 n=31 v=66
73265 On ch=10 n=31 v=0
73267 On ch=10 n=31 v=75
73273 On ch=10 n=31 v=0
73277 On ch=10 n=31 v=74
73283 On ch=10 n=31 v=0
73285 On ch=10 n=31 v=98
73291 On ch=10 n=31 v=0
73296 On ch=10 n=31 v=81
73302 On ch=10 n=31 v=0
73304 On ch=10 n=31 v=114
73310 On ch=10 n=31 v=0
73310 Meta TrkEnd
TrkEnd
