MFile 1 12 480
MTrk
0 Meta SeqName "Heart Of The Sunrise / Yes"
0 TimeSig 4/4 24 8
0 Tempo 408163
29280 Tempo 437956
32640 Tempo 428571
33360 Tempo 468750
34080 Tempo 526315
34800 Tempo 468750
36720 Tempo 451127
50160 Tempo 444444
63600 Tempo 437956
75120 Tempo 428571
96240 Tempo 422535
130800 Tempo 416666
142410 Tempo 413793
142540 Tempo 410958
142870 Tempo 408163
162480 Tempo 451127
163680 Tempo 468750
164400 Tempo 476190
165120 Tempo 437956
167090 Tempo 434782
167130 Tempo 431654
167190 Tempo 428571
167210 Tempo 425531
167250 Tempo 422535
167270 Tempo 419580
167330 Tempo 416666
167370 Tempo 413793
167430 Tempo 410958
167690 Tempo 408163
187200 Tempo 451127
188400 Tempo 468750
189120 Tempo 476190
189840 Tempo 437956
191760 Tempo 408163
223440 Tempo 422535
226320 Tempo 451127
227520 Tempo 504201
228240 Tempo 526315
228960 Tempo 545454
229440 Tempo 625000
231840 Tempo 545454
233280 Tempo 882352
234720 Tempo 408163
441600 TimeSig 2/4 24 8
442560 TimeSig 3/4 24 8
442920 Tempo 461538
443520 Tempo 508474
444000 TimeSig 6/4 24 8
449760 TimeSig 10/8 24 4
449760 Tempo 461538
454560 TimeSig 6/4 24 8
457440 Tempo 400000
463200 TimeSig 3/4 24 8
464640 TimeSig 6/4 24 8
467520 TimeSig 3/8 24 4
468240 TimeSig 6/4 24 8
471120 TimeSig 5/8 24 4
480720 TimeSig 4/4 24 8
492240 TimeSig 5/8 24 4
501840 TimeSig 4/4 24 8
513360 TimeSig 5/8 24 4
518160 TimeSig 4/4 24 8
523920 TimeSig 5/8 24 4
528720 TimeSig 4/4 24 8
534480 TimeSig 6/4 24 8
537360 TimeSig 4/4 24 8
539280 TimeSig 6/4 24 8
542160 TimeSig 4/4 24 8
544080 TimeSig 6/4 24 8
546960 TimeSig 4/4 24 8
548880 TimeSig 6/4 24 8
551760 TimeSig 4/4 24 8
553680 TimeSig 6/4 24 8
556560 TimeSig 3/4 24 8
558000 TimeSig 6/4 24 8
560880 TimeSig 2/4 24 8
561840 TimeSig 4/4 24 8
565680 TimeSig 6/4 24 8
568560 TimeSig 4/4 24 8
572400 TimeSig 6/4 24 8
575280 TimeSig 3/4 24 8
576720 TimeSig 6/4 24 8
579600 TimeSig 2/4 24 8
580560 TimeSig 4/4 24 8
584400 TimeSig 6/4 24 8
587280 TimeSig 4/4 24 8
591120 TimeSig 6/4 24 8
594000 TimeSig 3/4 24 8
595440 TimeSig 6/4 24 8
598320 TimeSig 3/4 24 8
599760 TimeSig 4/4 24 8
603600 TimeSig 2/4 24 8
604560 TimeSig 6/4 24 8
607440 TimeSig 3/4 24 8
608880 TimeSig 7/4 24 8
612240 TimeSig 6/8 24 4
615120 TimeSig 8/8 24 4
617040 TimeSig 6/4 24 8
619920 TimeSig 3/4 24 8
621360 TimeSig 6/4 24 8
624240 TimeSig 2/4 24 8
625200 TimeSig 4/4 24 8
630960 TimeSig 6/8 24 4
642480 TimeSig 4/8 24 4
643440 TimeSig 3/4 24 8
643800 Tempo 461538
644400 Tempo 508474
644880 TimeSig 6/4 24 8
650640 Tempo 405405
705360 TimeSig 3/4 24 8
705720 Tempo 461538
706320 Tempo 508474
706800 TimeSig 6/4 24 8
712560 TimeSig 4/4 24 8
712560 Tempo 400000
722160 Meta TrkEnd
TrkEnd
MTrk
0 Meta TrkName "Melody"
0 Meta 0x20 00
0 Meta InstrName "Melody"
0 KeySig 0 major
5 SysEx f0 41 10 42 12 40 00 7f 00 41 f7
15 SysEx f0 41 10 42 12 40 00 04 64 58 f7
25 SysEx f0 41 10 42 12 40 01 30 04 0b f7
35 SysEx f0 41 10 42 12 40 01 31 03 0b f7
45 SysEx f0 41 10 42 12 40 01 32 00 0d f7
55 SysEx f0 41 10 42 12 40 01 33 64 28 f7
65 SysEx f0 41 10 42 12 40 01 34 46 45 f7
75 SysEx f0 41 10 42 12 40 01 35 3c 4e f7
85 SysEx f0 41 10 42 12 40 01 36 00 09 f7
95 SysEx f0 41 10 42 12 40 01 38 05 02 f7
105 SysEx f0 41 10 42 12 40 01 39 00 06 f7
115 SysEx f0 41 10 42 12 40 01 3a 64 21 f7
125 SysEx f0 41 10 42 12 40 01 3b 32 52 f7
135 SysEx f0 41 10 42 12 40 01 3c 14 6f f7
145 SysEx f0 41 10 42 12 40 01 3d 04 7e f7
155 SysEx f0 41 10 42 12 40 01 3e 0b 76 f7
165 SysEx f0 41 10 42 12 40 01 3f 00 00 f7
180 Par ch=1 c=7 v=107
185 Par ch=1 c=10 v=64
190 Par ch=1 c=91 v=40
195 Par ch=1 c=93 v=0
200 Par ch=1 c=101 v=0
200 Par ch=1 c=100 v=0
200 Par ch=1 c=6 v=2
205 Par ch=1 c=99 v=1
205 Par ch=1 c=98 v=8
205 Par ch=1 c=6 v=64
210 Par ch=1 c=99 v=1
210 Par ch=1 c=98 v=9
210 Par ch=1 c=6 v=64
215 Par ch=1 c=99 v=1
215 Par ch=1 c=98 v=10
215 Par ch=1 c=6 v=64
220 Par ch=1 c=99 v=1
220 Par ch=1 c=98 v=32
220 Par ch=1 c=6 v=64
225 Par ch=1 c=99 v=1
225 Par ch=1 c=98 v=33
225 Par ch=1 c=6 v=64
230 Par ch=1 c=99 v=1
230 Par ch=1 c=98 v=99
230 Par ch=1 c=6 v=64
235 Par ch=1 c=99 v=1
235 Par ch=1 c=98 v=100
235 Par ch=1 c=6 v=64
240 Par ch=1 c=99 v=1
240 Par ch=1 c=98 v=102
240 Par ch=1 c=6 v=64
722160 Meta TrkEnd
TrkEnd
MTrk
0 Meta TrkName "Fretless Bs."
0 Meta 0x20 01
0 Meta InstrName "Fretless Bs."
0 KeySig 0 major
245 Par ch=2 c=0 v=0
250 Par ch=2 c=32 v=0
255 PrCh ch=2 p=35
260 Par ch=2 c=7 v=100
265 Par ch=2 c=10 v=64
270 Par ch=2 c=91 v=40
275 Par ch=2 c=93 v=0
280 Par ch=2 c=101 v=0
280 Par ch=2 c=100 v=0
280 Par ch=2 c=6 v=12
285 Par ch=2 c=99 v=1
285 Par ch=2 c=98 v=8
285 Par ch=2 c=6 v=64
290 Par ch=2 c=99 v=1
290 Par ch=2 c=98 v=9
290 Par ch=2 c=6 v=64
295 Par ch=2 c=99 v=1
295 Par ch=2 c=98 v=10
295 Par ch=2 c=6 v=64
300 Par ch=2 c=99 v=1
300 Par ch=2 c=98 v=32
300 Par ch=2 c=6 v=64
305 Par ch=2 c=99 v=1
305 Par ch=2 c=98 v=33
305 Par ch=2 c=6 v=64
310 Par ch=2 c=99 v=1
310 Par ch=2 c=98 v=99
310 Par ch=2 c=6 v=64
315 Par ch=2 c=99 v=1
315 Par ch=2 c=98 v=100
315 Par ch=2 c=6 v=64
320 Par ch=2 c=99 v=1
320 Par ch=2 c=98 v=102
320 Par ch=2 c=6 v=64
1920 Pb ch=2 v=6827
1920 On ch=2 n=32 v=120
2040 Pb ch=2 v=8192
2150 Off ch=2 n=32 v=120
2160 On ch=2 n=32 v=120
2270 Off ch=2 n=32 v=120
2280 On ch=2 n=32 v=120
2390 Off ch=2 n=32 v=120
2400 On ch=2 n=32 v=120
2510 Off ch=2 n=32 v=120
2520 On ch=2 n=32 v=120
2630 Off ch=2 n=32 v=120
2640 Pb ch=2 v=6827
2640 On ch=2 n=32 v=120
2760 Pb ch=2 v=8192
2870 Off ch=2 n=32 v=120
2880 On ch=2 n=32 v=120
2990 Off ch=2 n=32 v=120
3000 On ch=2 n=32 v=120
3110 Off ch=2 n=32 v=120
3120 On ch=2 n=32 v=120
3230 Off ch=2 n=32 v=120
3240 On ch=2 n=32 v=120
3350 Off ch=2 n=32 v=120
3360 On ch=2 n=35 v=120
3590 Off ch=2 n=35 v=120
3600 On ch=2 n=36 v=120
3830 Off ch=2 n=36 v=120
3840 On ch=2 n=37 v=120
4070 Off ch=2 n=37 v=120
4080 On ch=2 n=38 v=120
4310 Off ch=2 n=38 v=120
4320 On ch=2 n=39 v=120
4550 Off ch=2 n=39 v=120
4560 On ch=2 n=42 v=120
4790 Off ch=2 n=42 v=120
8400 Pb ch=2 v=6827
8400 On ch=2 n=32 v=120
8520 Pb ch=2 v=8192
8630 Off ch=2 n=32 v=120
8640 On ch=2 n=32 v=120
8750 Off ch=2 n=32 v=120
8760 On ch=2 n=32 v=120
8870 Off ch=2 n=32 v=120
8880 On ch=2 n=32 v=120
8990 Off ch=2 n=32 v=120
9000 On ch=2 n=32 v=120
9110 Off ch=2 n=32 v=120
9120 Pb ch=2 v=6827
9120 On ch=2 n=32 v=120
9240 Pb ch=2 v=8192
9350 Off ch=2 n=32 v=120
9360 On ch=2 n=32 v=120
9470 Off ch=2 n=32 v=120
9480 On ch=2 n=32 v=120
9590 Off ch=2 n=32 v=120
9600 On ch=2 n=32 v=120
9710 Off ch=2 n=32 v=120
9720 On ch=2 n=32 v=120
9830 Off ch=2 n=32 v=120
9840 On ch=2 n=35 v=120
10070 Off ch=2 n=35 v=120
10080 On ch=2 n=36 v=120
10310 Off ch=2 n=36 v=120
10320 On ch=2 n=37 v=120
10550 Off ch=2 n=37 v=120
10560 On ch=2 n=38 v=120
10790 Off ch=2 n=38 v=120
10800 On ch=2 n=39 v=120
11030 Off ch=2 n=39 v=120
11040 On ch=2 n=42 v=120
11270 Off ch=2 n=42 v=120
14880 Pb ch=2 v=6827
14880 On ch=2 n=56 v=120
15000 Pb ch=2 v=8192
15110 Off ch=2 n=56 v=120
15120 On ch=2 n=56 v=120
15230 Off ch=2 n=56 v=120
15240 On ch=2 n=56 v=120
15350 Off ch=2 n=56 v=120
15360 On ch=2 n=56 v=120
15470 Off ch=2 n=56 v=120
15480 On ch=2 n=56 v=120
15590 Off ch=2 n=56 v=120
15600 Pb ch=2 v=6827
15600 On ch=2 n=56 v=120
15720 Pb ch=2 v=8192
15830 Off ch=2 n=56 v=120
15840 On ch=2 n=56 v=120
15950 Off ch=2 n=56 v=120
15960 On ch=2 n=56 v=120
16070 Off ch=2 n=56 v=120
16080 On ch=2 n=56 v=120
16190 Off ch=2 n=56 v=120
16200 On ch=2 n=54 v=120
16310 Off ch=2 n=54 v=120
16320 On ch=2 n=51 v=120
16550 Off ch=2 n=51 v=120
16560 On ch=2 n=50 v=120
16790 Off ch=2 n=50 v=120
16800 On ch=2 n=49 v=120
17030 Off ch=2 n=49 v=120
17040 On ch=2 n=48 v=120
17270 Off ch=2 n=48 v=120
17280 On ch=2 n=47 v=120
17510 Off ch=2 n=47 v=120
17520 On ch=2 n=44 v=120
17750 Off ch=2 n=44 v=120
17760 Pb ch=2 v=6827
17760 On ch=2 n=44 v=120
17880 Pb ch=2 v=8192
17990 Off ch=2 n=44 v=120
18000 On ch=2 n=44 v=120
18110 Off ch=2 n=44 v=120
18120 On ch=2 n=44 v=120
18230 Off ch=2 n=44 v=120
18240 On ch=2 n=44 v=120
18350 Off ch=2 n=44 v=120
18360 On ch=2 n=44 v=120
18470 Off ch=2 n=44 v=120
18480 Pb ch=2 v=6827
18480 On ch=2 n=44 v=120
18600 Pb ch=2 v=8192
18710 Off ch=2 n=44 v=120
18720 On ch=2 n=44 v=120
18830 Off ch=2 n=44 v=120
18840 On ch=2 n=44 v=120
18950 Off ch=2 n=44 v=120
18960 On ch=2 n=44 v=120
19070 Off ch=2 n=44 v=120
19080 On ch=2 n=42 v=120
19190 Off ch=2 n=42 v=120
19200 On ch=2 n=39 v=120
19430 Off ch=2 n=39 v=120
19440 On ch=2 n=38 v=120
19670 Off ch=2 n=38 v=120
19680 On ch=2 n=37 v=120
19910 Off ch=2 n=37 v=120
19920 On ch=2 n=36 v=120
20150 Off ch=2 n=36 v=120
20160 On ch=2 n=35 v=120
20390 Off ch=2 n=35 v=120
20400 On ch=2 n=32 v=120
20630 Off ch=2 n=32 v=120
20640 Pb ch=2 v=6827
20640 On ch=2 n=32 v=120
20760 Pb ch=2 v=8192
20870 Off ch=2 n=32 v=120
20880 On ch=2 n=32 v=120
20990 Off ch=2 n=32 v=120
21000 On ch=2 n=32 v=120
21110 Off ch=2 n=32 v=120
21120 On ch=2 n=32 v=120
21230 Off ch=2 n=32 v=120
21240 On ch=2 n=32 v=120
21350 Off ch=2 n=32 v=120
21360 Pb ch=2 v=6827
21360 On ch=2 n=32 v=120
21480 Pb ch=2 v=8192
21590 Off ch=2 n=32 v=120
21600 On ch=2 n=32 v=120
21710 Off ch=2 n=32 v=120
21720 On ch=2 n=32 v=120
21830 Off ch=2 n=32 v=120
21840 On ch=2 n=32 v=120
21950 Off ch=2 n=32 v=120
21960 On ch=2 n=32 v=120
22070 Off ch=2 n=32 v=120
22080 On ch=2 n=35 v=120
22310 Off ch=2 n=35 v=120
22320 On ch=2 n=36 v=120
22550 Off ch=2 n=36 v=120
22560 On ch=2 n=37 v=120
22790 Off ch=2 n=37 v=120
22800 On ch=2 n=38 v=120
23030 Off ch=2 n=38 v=120
23040 On ch=2 n=39 v=120
23270 Off ch=2 n=39 v=120
23280 On ch=2 n=42 v=120
23510 Off ch=2 n=42 v=120
23520 Pb ch=2 v=6827
23520 On ch=2 n=44 v=120
23640 Pb ch=2 v=8192
23750 Off ch=2 n=44 v=120
23760 On ch=2 n=44 v=120
23870 Off ch=2 n=44 v=120
23880 On ch=2 n=44 v=120
23990 Off ch=2 n=44 v=120
24000 On ch=2 n=44 v=120
24110 Off ch=2 n=44 v=120
24120 On ch=2 n=44 v=120
24230 Off ch=2 n=44 v=120
24240 Pb ch=2 v=6827
24240 On ch=2 n=44 v=120
24360 Pb ch=2 v=8192
24470 Off ch=2 n=44 v=120
24480 On ch=2 n=44 v=120
24590 Off ch=2 n=44 v=120
24600 On ch=2 n=44 v=120
24710 Off ch=2 n=44 v=120
24720 On ch=2 n=44 v=120
24830 Off ch=2 n=44 v=120
24840 On ch=2 n=44 v=120
24950 Off ch=2 n=44 v=120
24960 On ch=2 n=47 v=120
25190 Off ch=2 n=47 v=120
25200 On ch=2 n=48 v=120
25430 Off ch=2 n=48 v=120
25440 On ch=2 n=49 v=120
25670 Off ch=2 n=49 v=120
25680 On ch=2 n=50 v=120
25910 Off ch=2 n=50 v=120
25920 On ch=2 n=51 v=120
26150 Off ch=2 n=51 v=120
26160 On ch=2 n=54 v=120
26390 Off ch=2 n=54 v=120
26400 Pb ch=2 v=6827
26400 On ch=2 n=44 v=120
26520 Pb ch=2 v=8192
26630 Off ch=2 n=44 v=120
26640 On ch=2 n=44 v=120
26750 Off ch=2 n=44 v=120
26760 On ch=2 n=44 v=120
26870 Off ch=2 n=44 v=120
26880 On ch=2 n=44 v=120
26990 Off ch=2 n=44 v=120
27000 On ch=2 n=44 v=120
27110 Off ch=2 n=44 v=120
27120 Pb ch=2 v=6827
27120 On ch=2 n=44 v=120
27240 Pb ch=2 v=8192
27350 Off ch=2 n=44 v=120
27360 On ch=2 n=44 v=120
27470 Off ch=2 n=44 v=120
27480 On ch=2 n=44 v=120
27590 Off ch=2 n=44 v=120
27600 On ch=2 n=44 v=120
27710 Off ch=2 n=44 v=120
27720 On ch=2 n=44 v=120
27830 Off ch=2 n=44 v=120
27840 On ch=2 n=47 v=120
28070 Off ch=2 n=47 v=120
28080 On ch=2 n=48 v=120
28310 Off ch=2 n=48 v=120
28320 On ch=2 n=49 v=120
28550 Off ch=2 n=49 v=120
28560 On ch=2 n=50 v=120
28790 Off ch=2 n=50 v=120
28800 On ch=2 n=51 v=120
29030 Off ch=2 n=51 v=120
29040 On ch=2 n=54 v=120
29270 Off ch=2 n=54 v=120
29280 On ch=2 n=56 v=120
29930 Off ch=2 n=56 v=120
30000 On ch=2 n=39 v=120
30000 On ch=2 n=51 v=120
30650 Off ch=2 n=51 v=120
30700 Off ch=2 n=39 v=120
30720 On ch=2 n=37 v=120
30720 On ch=2 n=49 v=120
31370 Off ch=2 n=49 v=120
31420 Off ch=2 n=37 v=120
31440 On ch=2 n=35 v=120
31440 On ch=2 n=47 v=120
32090 Off ch=2 n=47 v=120
32140 Off ch=2 n=35 v=120
32160 On ch=2 n=46 v=106
32160 On ch=2 n=34 v=120
32593 Off ch=2 n=46 v=106
32630 Off ch=2 n=34 v=120
33360 On ch=2 n=32 v=120
33710 Off ch=2 n=32 v=120
34080 On ch=2 n=30 v=120
34430 Off ch=2 n=30 v=120
34800 On ch=2 n=28 v=120
36710 Off ch=2 n=28 v=120
36960 On ch=2 n=39 v=120
37190 Off ch=2 n=39 v=120
37200 On ch=2 n=42 v=120
37430 Off ch=2 n=42 v=120
37440 On ch=2 n=44 v=120
37670 Off ch=2 n=44 v=120
37680 On ch=2 n=47 v=120
38390 Off ch=2 n=47 v=120
38400 Pb ch=2 v=6827
38400 On ch=2 n=44 v=120
38640 Pb ch=2 v=8192
38870 Off ch=2 n=44 v=120
38880 On ch=2 n=44 v=120
39110 Off ch=2 n=44 v=120
39120 On ch=2 n=32 v=120
39350 Off ch=2 n=32 v=120
40080 On ch=2 n=44 v=120
40790 Off ch=2 n=44 v=120
40800 On ch=2 n=39 v=120
41030 Off ch=2 n=39 v=120
41040 On ch=2 n=42 v=120
41270 Off ch=2 n=42 v=120
41280 On ch=2 n=44 v=120
41510 Off ch=2 n=44 v=120
41520 On ch=2 n=47 v=120
42230 Off ch=2 n=47 v=120
42240 Pb ch=2 v=6827
42240 On ch=2 n=44 v=120
42480 Pb ch=2 v=8192
42710 Off ch=2 n=44 v=120
42720 On ch=2 n=44 v=120
42950 Off ch=2 n=44 v=120
42960 On ch=2 n=32 v=120
43190 Off ch=2 n=32 v=120
43920 On ch=2 n=44 v=120
44150 Off ch=2 n=44 v=120
44640 On ch=2 n=39 v=120
44870 Off ch=2 n=39 v=120
44880 On ch=2 n=42 v=120
45110 Off ch=2 n=42 v=120
45120 On ch=2 n=44 v=120
45350 Off ch=2 n=44 v=120
45360 On ch=2 n=35 v=120
46070 Off ch=2 n=35 v=120
46080 On ch=2 n=37 v=120
46310 Off ch=2 n=37 v=120
46320 On ch=2 n=39 v=120
46550 Off ch=2 n=39 v=120
46560 On ch=2 n=42 v=120
46790 Off ch=2 n=42 v=120
46800 On ch=2 n=44 v=120
47030 Off ch=2 n=44 v=120
47280 On ch=2 n=32 v=120
47510 Off ch=2 n=32 v=120
47760 On ch=2 n=44 v=120
47990 Off ch=2 n=44 v=120
48480 On ch=2 n=39 v=120
48710 Off ch=2 n=39 v=120
48720 On ch=2 n=42 v=120
48950 Off ch=2 n=42 v=120
48960 On ch=2 n=44 v=120
49190 Off ch=2 n=44 v=120
49200 On ch=2 n=47 v=120
49910 Off ch=2 n=47 v=120
49920 Pb ch=2 v=6827
49920 On ch=2 n=44 v=120
50160 Pb ch=2 v=8192
50390 Off ch=2 n=44 v=120
50400 On ch=2 n=44 v=120
50630 Off ch=2 n=44 v=120
50640 On ch=2 n=32 v=120
50870 Off ch=2 n=32 v=120
51600 On ch=2 n=44 v=120
51830 Off ch=2 n=44 v=120
52320 On ch=2 n=39 v=120
52550 Off ch=2 n=39 v=120
52560 On ch=2 n=42 v=120
52790 Off ch=2 n=42 v=120
52800 On ch=2 n=44 v=120
53030 Off ch=2 n=44 v=120
53040 On ch=2 n=47 v=120
53750 Off ch=2 n=47 v=120
53760 Pb ch=2 v=6827
53760 On ch=2 n=44 v=120
54000 Pb ch=2 v=8192
54230 Off ch=2 n=44 v=120
54240 On ch=2 n=44 v=120
54470 Off ch=2 n=44 v=120
54480 On ch=2 n=32 v=120
54710 Off ch=2 n=32 v=120
55440 On ch=2 n=44 v=120
55670 Off ch=2 n=44 v=120
56160 On ch=2 n=39 v=120
56390 Off ch=2 n=39 v=120
56400 On ch=2 n=42 v=120
56630 Off ch=2 n=42 v=120
56640 On ch=2 n=44 v=120
56870 Off ch=2 n=44 v=120
56880 On ch=2 n=47 v=120
57590 Off ch=2 n=47 v=120
57600 Pb ch=2 v=6827
57600 On ch=2 n=44 v=120
57840 Pb ch=2 v=8192
58070 Off ch=2 n=44 v=120
58080 On ch=2 n=44 v=120
58310 Off ch=2 n=44 v=120
58320 On ch=2 n=32 v=120
58550 Off ch=2 n=32 v=120
59280 On ch=2 n=44 v=120
59510 Off ch=2 n=44 v=120
60000 On ch=2 n=39 v=120
60230 Off ch=2 n=39 v=120
60240 On ch=2 n=42 v=120
60470 Off ch=2 n=42 v=120
60480 On ch=2 n=44 v=120
60710 Off ch=2 n=44 v=120
60720 On ch=2 n=35 v=120
61430 Off ch=2 n=35 v=120
61440 On ch=2 n=37 v=120
61670 Off ch=2 n=37 v=120
61680 On ch=2 n=39 v=120
61910 Off ch=2 n=39 v=120
61920 On ch=2 n=42 v=120
62150 Off ch=2 n=42 v=120
62160 On ch=2 n=44 v=120
62390 Off ch=2 n=44 v=120
62640 On ch=2 n=32 v=120
62870 Off ch=2 n=32 v=120
63120 On ch=2 n=44 v=120
63350 Off ch=2 n=44 v=120
63840 On ch=2 n=39 v=120
64070 Off ch=2 n=39 v=120
64080 On ch=2 n=42 v=120
64310 Off ch=2 n=42 v=120
64320 On ch=2 n=44 v=120
64550 Off ch=2 n=44 v=120
64560 On ch=2 n=46 v=120
65270 Off ch=2 n=46 v=120
65280 Pb ch=2 v=6827
65280 On ch=2 n=44 v=120
65520 Pb ch=2 v=8192
65750 Off ch=2 n=44 v=120
65760 On ch=2 n=44 v=120
65990 Off ch=2 n=44 v=120
66000 On ch=2 n=32 v=120
66230 Off ch=2 n=32 v=120
66960 On ch=2 n=44 v=120
67190 Off ch=2 n=44 v=120
67680 On ch=2 n=39 v=120
67910 Off ch=2 n=39 v=120
67920 On ch=2 n=42 v=120
68150 Off ch=2 n=42 v=120
68160 On ch=2 n=44 v=120
68390 Off ch=2 n=44 v=120
68400 On ch=2 n=47 v=120
69350 Off ch=2 n=47 v=120
69360 On ch=2 n=44 v=120
69510 Off ch=2 n=44 v=120
69520 On ch=2 n=42 v=120
69670 Off ch=2 n=42 v=120
69680 On ch=2 n=39 v=120
69830 Off ch=2 n=39 v=120
69840 On ch=2 n=32 v=120
70070 Off ch=2 n=32 v=120
70800 On ch=2 n=44 v=120
71510 Off ch=2 n=44 v=120
71520 On ch=2 n=39 v=120
71750 Off ch=2 n=39 v=120
71760 On ch=2 n=42 v=120
71990 Off ch=2 n=42 v=120
72000 On ch=2 n=44 v=120
72230 Off ch=2 n=44 v=120
72240 On ch=2 n=47 v=120
73190 Off ch=2 n=47 v=120
73200 On ch=2 n=44 v=120
73350 Off ch=2 n=44 v=120
73360 On ch=2 n=42 v=120
73510 Off ch=2 n=42 v=120
73520 On ch=2 n=39 v=120
73670 Off ch=2 n=39 v=120
73680 On ch=2 n=32 v=120
73910 Off ch=2 n=32 v=120
74640 On ch=2 n=44 v=120
75350 Off ch=2 n=44 v=120
75360 On ch=2 n=39 v=120
75590 Off ch=2 n=39 v=120
75600 On ch=2 n=42 v=120
75830 Off ch=2 n=42 v=120
75840 On ch=2 n=44 v=120
76070 Off ch=2 n=44 v=120
76080 On ch=2 n=35 v=120
77030 Off ch=2 n=35 v=120
77040 On ch=2 n=37 v=120
77190 Off ch=2 n=37 v=120
77200 On ch=2 n=39 v=120
77350 Off ch=2 n=39 v=120
77360 On ch=2 n=42 v=120
77510 Off ch=2 n=42 v=120
77520 On ch=2 n=44 v=120
77750 Off ch=2 n=44 v=120
78480 On ch=2 n=32 v=120
79190 Off ch=2 n=32 v=120
79200 On ch=2 n=39 v=120
79430 Off ch=2 n=39 v=120
79440 On ch=2 n=42 v=120
79670 Off ch=2 n=42 v=120
79680 On ch=2 n=44 v=120
79910 Off ch=2 n=44 v=120
79920 On ch=2 n=47 v=120
80630 Off ch=2 n=47 v=120
80640 Pb ch=2 v=6827
80640 On ch=2 n=44 v=120
80880 Pb ch=2 v=8192
81110 Off ch=2 n=44 v=120
81120 On ch=2 n=44 v=120
81350 Off ch=2 n=44 v=120
81360 On ch=2 n=32 v=120
81590 Off ch=2 n=32 v=120
82320 On ch=2 n=44 v=120
82550 Off ch=2 n=44 v=120
83040 On ch=2 n=39 v=120
83270 Off ch=2 n=39 v=120
83280 On ch=2 n=42 v=120
83510 Off ch=2 n=42 v=120
83520 On ch=2 n=44 v=120
83750 Off ch=2 n=44 v=120
83760 On ch=2 n=46 v=120
84470 Off ch=2 n=46 v=120
84480 Pb ch=2 v=6827
84480 On ch=2 n=44 v=120
84720 Pb ch=2 v=8192
84950 Off ch=2 n=44 v=120
84960 On ch=2 n=44 v=120
85190 Off ch=2 n=44 v=120
85200 On ch=2 n=32 v=120
85430 Off ch=2 n=32 v=120
86160 On ch=2 n=44 v=120
86390 Off ch=2 n=44 v=120
86880 On ch=2 n=39 v=120
87110 Off ch=2 n=39 v=120
87120 On ch=2 n=42 v=120
87350 Off ch=2 n=42 v=120
87360 On ch=2 n=44 v=120
87590 Off ch=2 n=44 v=120
87600 On ch=2 n=47 v=120
88310 Off ch=2 n=47 v=120
88320 Pb ch=2 v=6827
88320 On ch=2 n=44 v=120
88560 Pb ch=2 v=8192
88790 Off ch=2 n=44 v=120
88800 On ch=2 n=44 v=120
89030 Off ch=2 n=44 v=120
89040 On ch=2 n=32 v=120
89270 Off ch=2 n=32 v=120
90000 On ch=2 n=44 v=120
90710 Off ch=2 n=44 v=120
90720 On ch=2 n=39 v=120
90950 Off ch=2 n=39 v=120
90960 On ch=2 n=42 v=120
91190 Off ch=2 n=42 v=120
91200 On ch=2 n=44 v=120
91430 Off ch=2 n=44 v=120
91440 On ch=2 n=35 v=120
92150 Off ch=2 n=35 v=120
92160 On ch=2 n=37 v=120
92390 Off ch=2 n=37 v=120
92400 On ch=2 n=39 v=120
92630 Off ch=2 n=39 v=120
92640 On ch=2 n=42 v=120
92870 Off ch=2 n=42 v=120
92880 On ch=2 n=44 v=120
93110 Off ch=2 n=44 v=120
93360 On ch=2 n=32 v=120
93590 Off ch=2 n=32 v=120
93600 On ch=2 n=32 v=120
93830 Off ch=2 n=32 v=120
93840 On ch=2 n=44 v=120
94070 Off ch=2 n=44 v=120
94560 On ch=2 n=39 v=120
94790 Off ch=2 n=39 v=120
94800 On ch=2 n=42 v=120
95030 Off ch=2 n=42 v=120
95040 On ch=2 n=44 v=120
95270 Off ch=2 n=44 v=120
95280 On ch=2 n=47 v=120
95990 Off ch=2 n=47 v=120
96000 Pb ch=2 v=6827
96000 On ch=2 n=44 v=120
96240 Pb ch=2 v=8192
96470 Off ch=2 n=44 v=120
96480 On ch=2 n=44 v=120
96710 Off ch=2 n=44 v=120
96720 On ch=2 n=32 v=120
96950 Off ch=2 n=32 v=120
97680 On ch=2 n=44 v=120
97910 Off ch=2 n=44 v=120
98400 On ch=2 n=39 v=120
98630 Off ch=2 n=39 v=120
98640 On ch=2 n=42 v=120
98870 Off ch=2 n=42 v=120
98880 On ch=2 n=44 v=120
99110 Off ch=2 n=44 v=120
99120 On ch=2 n=47 v=120
99830 Off ch=2 n=47 v=120
99840 Pb ch=2 v=6827
99840 On ch=2 n=44 v=120
100080 Pb ch=2 v=8192
100310 Off ch=2 n=44 v=120
100320 On ch=2 n=44 v=120
100550 Off ch=2 n=44 v=120
100560 On ch=2 n=32 v=120
100790 Off ch=2 n=32 v=120
101520 On ch=2 n=44 v=120
101750 Off ch=2 n=44 v=120
102240 On ch=2 n=39 v=120
102470 Off ch=2 n=39 v=120
102480 On ch=2 n=42 v=120
102710 Off ch=2 n=42 v=120
102720 On ch=2 n=44 v=120
102950 Off ch=2 n=44 v=120
102960 On ch=2 n=46 v=120
103910 Off ch=2 n=46 v=120
103920 On ch=2 n=44 v=120
104070 Off ch=2 n=44 v=120
104080 On ch=2 n=42 v=120
104230 Off ch=2 n=42 v=120
104240 On ch=2 n=39 v=120
104390 Off ch=2 n=39 v=120
104400 On ch=2 n=32 v=120
104630 Off ch=2 n=32 v=120
105360 On ch=2 n=32 v=120
106070 Off ch=2 n=32 v=120
106080 On ch=2 n=39 v=120
106310 Off ch=2 n=39 v=120
106320 On ch=2 n=42 v=120
106550 Off ch=2 n=42 v=120
106560 On ch=2 n=44 v=120
106790 Off ch=2 n=44 v=120
106800 On ch=2 n=47 v=120
107750 Off ch=2 n=47 v=120
107760 On ch=2 n=44 v=120
107910 Off ch=2 n=44 v=120
107920 On ch=2 n=42 v=120
108070 Off ch=2 n=42 v=120
108080 On ch=2 n=39 v=120
108230 Off ch=2 n=39 v=120
108240 On ch=2 n=32 v=120
108470 Off ch=2 n=32 v=120
109200 On ch=2 n=44 v=120
109910 Off ch=2 n=44 v=120
109920 On ch=2 n=39 v=120
110150 Off ch=2 n=39 v=120
110160 On ch=2 n=42 v=120
110390 Off ch=2 n=42 v=120
110400 On ch=2 n=44 v=120
110630 Off ch=2 n=44 v=120
110640 On ch=2 n=47 v=120
111590 Off ch=2 n=47 v=120
111600 On ch=2 n=44 v=120
111750 Off ch=2 n=44 v=120
111760 On ch=2 n=42 v=120
111910 Off ch=2 n=42 v=120
111920 On ch=2 n=39 v=120
112070 Off ch=2 n=39 v=120
112080 On ch=2 n=32 v=120
113030 Off ch=2 n=32 v=120
113040 On ch=2 n=44 v=120
113750 Off ch=2 n=44 v=120
113760 On ch=2 n=42 v=120
113990 Off ch=2 n=42 v=120
114000 On ch=2 n=39 v=120
114230 Off ch=2 n=39 v=120
114240 On ch=2 n=37 v=120
114470 Off ch=2 n=37 v=120
114480 On ch=2 n=35 v=120
115190 Off ch=2 n=35 v=120
115200 On ch=2 n=37 v=120
115430 Off ch=2 n=37 v=120
115440 On ch=2 n=39 v=120
115590 Off ch=2 n=39 v=120
115600 On ch=2 n=39 v=120
115750 Off ch=2 n=39 v=120
115760 On ch=2 n=42 v=120
115910 Off ch=2 n=42 v=120
115920 On ch=2 n=44 v=120
116390 Off ch=2 n=44 v=120
116400 On ch=2 n=32 v=120
116870 Off ch=2 n=32 v=120
116880 On ch=2 n=44 v=120
117590 Off ch=2 n=44 v=120
117840 On ch=2 n=42 v=120
118070 Off ch=2 n=42 v=120
118080 On ch=2 n=44 v=120
118310 Off ch=2 n=44 v=120
118320 On ch=2 n=47 v=120
119270 Off ch=2 n=47 v=120
119280 On ch=2 n=44 v=120
119750 Off ch=2 n=44 v=120
119760 On ch=2 n=32 v=120
120710 Off ch=2 n=32 v=120
120720 On ch=2 n=44 v=120
121430 Off ch=2 n=44 v=120
121440 On ch=2 n=39 v=120
121670 Off ch=2 n=39 v=120
121680 On ch=2 n=42 v=120
121910 Off ch=2 n=42 v=120
121920 On ch=2 n=44 v=120
122150 Off ch=2 n=44 v=120
122160 On ch=2 n=46 v=120
123110 Off ch=2 n=46 v=120
123120 On ch=2 n=44 v=120
123350 Off ch=2 n=44 v=120
123360 On ch=2 n=44 v=120
123590 Off ch=2 n=44 v=120
123600 On ch=2 n=32 v=120
123830 Off ch=2 n=32 v=120
124560 On ch=2 n=44 v=120
125270 Off ch=2 n=44 v=120
125280 On ch=2 n=39 v=120
125510 Off ch=2 n=39 v=120
125520 On ch=2 n=42 v=120
125750 Off ch=2 n=42 v=120
125760 On ch=2 n=44 v=120
125990 Off ch=2 n=44 v=120
126000 On ch=2 n=47 v=120
126710 Off ch=2 n=47 v=120
126720 Pb ch=2 v=6827
126720 On ch=2 n=44 v=120
126960 Pb ch=2 v=8192
127190 Off ch=2 n=44 v=120
127200 On ch=2 n=44 v=120
127430 Off ch=2 n=44 v=120
127440 On ch=2 n=32 v=120
127670 Off ch=2 n=32 v=120
128400 On ch=2 n=44 v=120
129110 Off ch=2 n=44 v=120
129120 On ch=2 n=44 v=120
129350 Off ch=2 n=44 v=120
129360 On ch=2 n=42 v=120
129510 Off ch=2 n=42 v=120
129520 On ch=2 n=39 v=120
129670 Off ch=2 n=39 v=120
129680 On ch=2 n=37 v=120
129830 Off ch=2 n=37 v=120
129840 On ch=2 n=35 v=120
130550 Off ch=2 n=35 v=120
130560 On ch=2 n=37 v=120
130790 Off ch=2 n=37 v=120
130800 On ch=2 n=39 v=120
131030 Off ch=2 n=39 v=120
131040 On ch=2 n=42 v=120
131270 Off ch=2 n=42 v=120
131280 On ch=2 n=44 v=120
131510 Off ch=2 n=44 v=120
131760 On ch=2 n=32 v=120
131990 Off ch=2 n=32 v=120
132240 On ch=2 n=44 v=120
132950 Off ch=2 n=44 v=120
132960 On ch=2 n=39 v=120
133190 Off ch=2 n=39 v=120
133200 On ch=2 n=42 v=120
133430 Off ch=2 n=42 v=120
133440 On ch=2 n=44 v=120
133670 Off ch=2 n=44 v=120
133680 On ch=2 n=47 v=120
134390 Off ch=2 n=47 v=120
134400 Pb ch=2 v=6827
134400 On ch=2 n=44 v=120
134640 Pb ch=2 v=8192
134870 Off ch=2 n=44 v=120
134880 On ch=2 n=44 v=120
135110 Off ch=2 n=44 v=120
135120 On ch=2 n=32 v=120
135350 Off ch=2 n=32 v=120
136080 On ch=2 n=44 v=120
136790 Off ch=2 n=44 v=120
136800 On ch=2 n=39 v=120
137030 Off ch=2 n=39 v=120
137040 On ch=2 n=42 v=120
137270 Off ch=2 n=42 v=120
137280 On ch=2 n=44 v=120
137510 Off ch=2 n=44 v=120
137520 On ch=2 n=47 v=120
138230 Off ch=2 n=47 v=120
138240 On ch=2 n=44 v=120
138470 Off ch=2 n=44 v=120
138480 On ch=2 n=46 v=120
138710 Off ch=2 n=46 v=120
138720 On ch=2 n=46 v=120
138950 Off ch=2 n=46 v=120
138960 On ch=2 n=46 v=120
139190 Off ch=2 n=46 v=120
139680 On ch=2 n=46 v=120
139910 Off ch=2 n=46 v=120
139920 On ch=2 n=46 v=120
140150 Off ch=2 n=46 v=120
140160 On ch=2 n=46 v=120
140390 Off ch=2 n=46 v=120
140400 On ch=2 n=46 v=120
140630 Off ch=2 n=46 v=120
141120 On ch=2 n=46 v=120
141350 Off ch=2 n=46 v=120
141360 On ch=2 n=46 v=120
141590 Off ch=2 n=46 v=120
141600 On ch=2 n=46 v=120
141830 Off ch=2 n=46 v=120
141840 On ch=2 n=46 v=120
142070 Off ch=2 n=46 v=120
142320 Pb ch=2 v=6827
142320 On ch=2 n=32 v=120
142440 Pb ch=2 v=8192
142550 Off ch=2 n=32 v=120
142560 On ch=2 n=32 v=120
142670 Off ch=2 n=32 v=120
142680 On ch=2 n=32 v=120
142790 Off ch=2 n=32 v=120
142800 On ch=2 n=32 v=120
142910 Off ch=2 n=32 v=120
142920 On ch=2 n=32 v=120
143030 Off ch=2 n=32 v=120
143040 Pb ch=2 v=6827
143040 On ch=2 n=32 v=120
143160 Pb ch=2 v=8192
143270 Off ch=2 n=32 v=120
143280 On ch=2 n=32 v=120
143390 Off ch=2 n=32 v=120
143400 On ch=2 n=32 v=120
143510 Off ch=2 n=32 v=120
143520 On ch=2 n=32 v=120
143630 Off ch=2 n=32 v=120
143640 On ch=2 n=32 v=120
143750 Off ch=2 n=32 v=120
143760 On ch=2 n=35 v=120
143990 Off ch=2 n=35 v=120
144000 On ch=2 n=36 v=120
144230 Off ch=2 n=36 v=120
144240 On ch=2 n=37 v=120
144470 Off ch=2 n=37 v=120
144480 On ch=2 n=38 v=120
144710 Off ch=2 n=38 v=120
144720 On ch=2 n=39 v=120
144950 Off ch=2 n=39 v=120
144960 On ch=2 n=42 v=120
145190 Off ch=2 n=42 v=120
145200 Pb ch=2 v=6827
145200 On ch=2 n=44 v=120
145320 Pb ch=2 v=8192
145430 Off ch=2 n=44 v=120
145440 On ch=2 n=44 v=120
145550 Off ch=2 n=44 v=120
145560 On ch=2 n=44 v=120
145670 Off ch=2 n=44 v=120
145680 On ch=2 n=44 v=120
145790 Off ch=2 n=44 v=120
145800 On ch=2 n=44 v=120
145910 Off ch=2 n=44 v=120
145920 Pb ch=2 v=6827
145920 On ch=2 n=44 v=120
146040 Pb ch=2 v=8192
146150 Off ch=2 n=44 v=120
146160 On ch=2 n=44 v=120
146270 Off ch=2 n=44 v=120
146280 On ch=2 n=44 v=120
146390 Off ch=2 n=44 v=120
146400 On ch=2 n=44 v=120
146510 Off ch=2 n=44 v=120
146520 On ch=2 n=42 v=120
146630 Off ch=2 n=42 v=120
146640 On ch=2 n=39 v=120
146870 Off ch=2 n=39 v=120
146880 On ch=2 n=38 v=120
147110 Off ch=2 n=38 v=120
147120 On ch=2 n=37 v=120
147350 Off ch=2 n=37 v=120
147360 On ch=2 n=36 v=120
147590 Off ch=2 n=36 v=120
147600 On ch=2 n=35 v=120
147830 Off ch=2 n=35 v=120
147840 On ch=2 n=32 v=120
148070 Off ch=2 n=32 v=120
148080 Pb ch=2 v=6827
148080 On ch=2 n=32 v=120
148200 Pb ch=2 v=8192
148310 Off ch=2 n=32 v=120
148320 On ch=2 n=32 v=120
148430 Off ch=2 n=32 v=120
148440 On ch=2 n=32 v=120
148550 Off ch=2 n=32 v=120
148560 On ch=2 n=32 v=120
148670 Off ch=2 n=32 v=120
148680 On ch=2 n=32 v=120
148790 Off ch=2 n=32 v=120
148800 Pb ch=2 v=6827
148800 On ch=2 n=32 v=120
148920 Pb ch=2 v=8192
149030 Off ch=2 n=32 v=120
149040 On ch=2 n=32 v=120
149150 Off ch=2 n=32 v=120
149160 On ch=2 n=32 v=120
149270 Off ch=2 n=32 v=120
149280 On ch=2 n=32 v=120
149390 Off ch=2 n=32 v=120
149400 On ch=2 n=32 v=120
149510 Off ch=2 n=32 v=120
149520 On ch=2 n=35 v=120
149750 Off ch=2 n=35 v=120
149760 On ch=2 n=36 v=120
149990 Off ch=2 n=36 v=120
150000 On ch=2 n=37 v=120
150230 Off ch=2 n=37 v=120
150240 On ch=2 n=38 v=120
150470 Off ch=2 n=38 v=120
150480 On ch=2 n=39 v=120
150710 Off ch=2 n=39 v=120
150720 On ch=2 n=42 v=120
150950 Off ch=2 n=42 v=120
150960 Pb ch=2 v=6827
150960 On ch=2 n=44 v=120
151080 Pb ch=2 v=8192
151190 Off ch=2 n=44 v=120
151200 On ch=2 n=44 v=120
151310 Off ch=2 n=44 v=120
151320 On ch=2 n=44 v=120
151430 Off ch=2 n=44 v=120
151440 On ch=2 n=44 v=120
151550 Off ch=2 n=44 v=120
151560 On ch=2 n=44 v=120
151670 Off ch=2 n=44 v=120
151680 Pb ch=2 v=6827
151680 On ch=2 n=44 v=120
151800 Pb ch=2 v=8192
151910 Off ch=2 n=44 v=120
151920 On ch=2 n=44 v=120
152030 Off ch=2 n=44 v=120
152040 On ch=2 n=44 v=120
152150 Off ch=2 n=44 v=120
152160 On ch=2 n=44 v=120
152270 Off ch=2 n=44 v=120
152280 On ch=2 n=44 v=120
152390 Off ch=2 n=44 v=120
152400 On ch=2 n=47 v=120
152630 Off ch=2 n=47 v=120
152640 On ch=2 n=48 v=120
152870 Off ch=2 n=48 v=120
152880 On ch=2 n=49 v=120
153110 Off ch=2 n=49 v=120
153120 On ch=2 n=50 v=120
153350 Off ch=2 n=50 v=120
153360 On ch=2 n=51 v=120
153590 Off ch=2 n=51 v=120
153600 On ch=2 n=54 v=120
153830 Off ch=2 n=54 v=120
153840 Pb ch=2 v=6827
153840 On ch=2 n=56 v=120
153960 Pb ch=2 v=8192
154070 Off ch=2 n=56 v=120
154080 On ch=2 n=56 v=120
154190 Off ch=2 n=56 v=120
154200 On ch=2 n=56 v=120
154310 Off ch=2 n=56 v=120
154320 On ch=2 n=56 v=120
154430 Off ch=2 n=56 v=120
154440 On ch=2 n=56 v=120
154550 Off ch=2 n=56 v=120
154560 Pb ch=2 v=6827
154560 On ch=2 n=56 v=120
154680 Pb ch=2 v=8192
154790 Off ch=2 n=56 v=120
154800 On ch=2 n=56 v=120
154910 Off ch=2 n=56 v=120
154920 On ch=2 n=56 v=120
155030 Off ch=2 n=56 v=120
155040 On ch=2 n=56 v=120
155150 Off ch=2 n=56 v=120
155160 On ch=2 n=54 v=120
155270 Off ch=2 n=54 v=120
155280 On ch=2 n=51 v=120
155510 Off ch=2 n=51 v=120
155520 On ch=2 n=50 v=120
155750 Off ch=2 n=50 v=120
155760 On ch=2 n=49 v=120
155990 Off ch=2 n=49 v=120
156000 On ch=2 n=48 v=120
156230 Off ch=2 n=48 v=120
156240 On ch=2 n=47 v=120
156470 Off ch=2 n=47 v=120
156480 On ch=2 n=44 v=120
156710 Off ch=2 n=44 v=120
156720 Pb ch=2 v=6827
156720 On ch=2 n=44 v=120
156840 Pb ch=2 v=8192
156950 Off ch=2 n=44 v=120
156960 On ch=2 n=44 v=120
157070 Off ch=2 n=44 v=120
157080 On ch=2 n=44 v=120
157190 Off ch=2 n=44 v=120
157200 On ch=2 n=44 v=120
157310 Off ch=2 n=44 v=120
157320 On ch=2 n=44 v=120
157430 Off ch=2 n=44 v=120
157440 Pb ch=2 v=6827
157440 On ch=2 n=44 v=120
157560 Pb ch=2 v=8192
157670 Off ch=2 n=44 v=120
157680 On ch=2 n=44 v=120
157790 Off ch=2 n=44 v=120
157800 On ch=2 n=44 v=120
157910 Off ch=2 n=44 v=120
157920 On ch=2 n=44 v=120
158030 Off ch=2 n=44 v=120
158040 On ch=2 n=44 v=120
158150 Off ch=2 n=44 v=120
158160 On ch=2 n=47 v=120
158390 Off ch=2 n=47 v=120
158400 On ch=2 n=48 v=120
158630 Off ch=2 n=48 v=120
158640 On ch=2 n=49 v=120
158870 Off ch=2 n=49 v=120
158880 On ch=2 n=50 v=120
159110 Off ch=2 n=50 v=120
159120 On ch=2 n=51 v=120
159350 Off ch=2 n=51 v=120
159360 On ch=2 n=54 v=120
159590 Off ch=2 n=54 v=120
159600 On ch=2 n=56 v=120
160250 Off ch=2 n=56 v=120
160320 On ch=2 n=39 v=120
160320 On ch=2 n=51 v=120
160970 Off ch=2 n=51 v=120
161020 Off ch=2 n=39 v=120
161040 On ch=2 n=37 v=120
161040 On ch=2 n=49 v=120
161690 Off ch=2 n=49 v=120
161740 Off ch=2 n=37 v=120
161760 On ch=2 n=35 v=120
161760 On ch=2 n=47 v=120
162410 Off ch=2 n=47 v=120
162460 Off ch=2 n=35 v=120
162480 On ch=2 n=34 v=120
162485 On ch=2 n=46 v=120
162950 Off ch=2 n=34 v=120
162955 Off ch=2 n=46 v=120
163680 On ch=2 n=32 v=120
164030 Off ch=2 n=32 v=120
164400 On ch=2 n=30 v=120
164750 Off ch=2 n=30 v=120
165120 On ch=2 n=28 v=120
166310 Off ch=2 n=28 v=120
166320 On ch=2 n=30 v=120
167030 Off ch=2 n=30 v=120
167040 Pb ch=2 v=6827
167040 On ch=2 n=32 v=120
167160 Pb ch=2 v=8192
167270 Off ch=2 n=32 v=120
167280 On ch=2 n=32 v=120
167390 Off ch=2 n=32 v=120
167400 On ch=2 n=32 v=120
167510 Off ch=2 n=32 v=120
167520 On ch=2 n=32 v=120
167630 Off ch=2 n=32 v=120
167640 On ch=2 n=32 v=120
167750 Off ch=2 n=32 v=120
167760 Pb ch=2 v=6827
167760 On ch=2 n=32 v=120
167880 Pb ch=2 v=8192
167990 Off ch=2 n=32 v=120
168000 On ch=2 n=32 v=120
168110 Off ch=2 n=32 v=120
168120 On ch=2 n=32 v=120
168230 Off ch=2 n=32 v=120
168240 On ch=2 n=32 v=120
168350 Off ch=2 n=32 v=120
168360 On ch=2 n=32 v=120
168470 Off ch=2 n=32 v=120
168480 On ch=2 n=35 v=120
168710 Off ch=2 n=35 v=120
168720 On ch=2 n=36 v=120
168950 Off ch=2 n=36 v=120
168960 On ch=2 n=37 v=120
169190 Off ch=2 n=37 v=120
169200 On ch=2 n=38 v=120
169430 Off ch=2 n=38 v=120
169440 On ch=2 n=39 v=120
169670 Off ch=2 n=39 v=120
169680 On ch=2 n=42 v=120
169910 Off ch=2 n=42 v=120
169920 Pb ch=2 v=6827
169920 On ch=2 n=44 v=110
170040 Pb ch=2 v=8192
170150 Off ch=2 n=44 v=110
170160 On ch=2 n=44 v=110
170270 Off ch=2 n=44 v=110
170280 On ch=2 n=44 v=110
170390 Off ch=2 n=44 v=110
170400 On ch=2 n=44 v=110
170510 Off ch=2 n=44 v=110
170520 On ch=2 n=44 v=110
170630 Off ch=2 n=44 v=110
170640 Pb ch=2 v=6827
170640 On ch=2 n=44 v=110
170760 Pb ch=2 v=8192
170870 Off ch=2 n=44 v=110
170880 On ch=2 n=44 v=110
170990 Off ch=2 n=44 v=110
171000 On ch=2 n=44 v=110
171110 Off ch=2 n=44 v=110
171120 On ch=2 n=44 v=110
171230 Off ch=2 n=44 v=110
171240 On ch=2 n=42 v=110
171350 Off ch=2 n=42 v=110
171360 On ch=2 n=39 v=110
171590 Off ch=2 n=39 v=110
171600 On ch=2 n=38 v=110
171830 Off ch=2 n=38 v=110
171840 On ch=2 n=37 v=110
172070 Off ch=2 n=37 v=110
172080 On ch=2 n=36 v=110
172310 Off ch=2 n=36 v=110
172320 On ch=2 n=35 v=110
172550 Off ch=2 n=35 v=110
172560 On ch=2 n=32 v=110
172790 Off ch=2 n=32 v=110
172800 Pb ch=2 v=6827
172800 On ch=2 n=32 v=110
172920 Pb ch=2 v=8192
173030 Off ch=2 n=32 v=110
173040 On ch=2 n=32 v=110
173150 Off ch=2 n=32 v=110
173160 On ch=2 n=32 v=110
173270 Off ch=2 n=32 v=110
173280 On ch=2 n=32 v=110
173390 Off ch=2 n=32 v=110
173400 On ch=2 n=32 v=110
173510 Off ch=2 n=32 v=110
173520 Pb ch=2 v=6827
173520 On ch=2 n=32 v=110
173640 Pb ch=2 v=8192
173750 Off ch=2 n=32 v=110
173760 On ch=2 n=32 v=110
173870 Off ch=2 n=32 v=110
173880 On ch=2 n=32 v=110
173990 Off ch=2 n=32 v=110
174000 On ch=2 n=32 v=110
174110 Off ch=2 n=32 v=110
174120 On ch=2 n=32 v=110
174230 Off ch=2 n=32 v=110
174240 On ch=2 n=35 v=110
174470 Off ch=2 n=35 v=110
174480 On ch=2 n=36 v=110
174710 Off ch=2 n=36 v=110
174720 On ch=2 n=37 v=110
174950 Off ch=2 n=37 v=110
174960 On ch=2 n=38 v=110
175190 Off ch=2 n=38 v=110
175200 On ch=2 n=39 v=110
175430 Off ch=2 n=39 v=110
175440 On ch=2 n=42 v=110
175670 Off ch=2 n=42 v=110
175680 Pb ch=2 v=6827
175680 On ch=2 n=44 v=110
175800 Pb ch=2 v=8192
175910 Off ch=2 n=44 v=110
175920 On ch=2 n=44 v=110
176030 Off ch=2 n=44 v=110
176040 On ch=2 n=44 v=110
176150 Off ch=2 n=44 v=110
176160 On ch=2 n=44 v=110
176270 Off ch=2 n=44 v=110
176280 On ch=2 n=44 v=110
176390 Off ch=2 n=44 v=110
176400 Pb ch=2 v=6827
176400 On ch=2 n=44 v=110
176520 Pb ch=2 v=8192
176630 Off ch=2 n=44 v=110
176640 On ch=2 n=44 v=110
176750 Off ch=2 n=44 v=110
176760 On ch=2 n=44 v=110
176870 Off ch=2 n=44 v=110
176880 On ch=2 n=44 v=110
176990 Off ch=2 n=44 v=110
177000 On ch=2 n=44 v=110
177110 Off ch=2 n=44 v=110
177120 On ch=2 n=47 v=110
177350 Off ch=2 n=47 v=110
177360 On ch=2 n=48 v=110
177590 Off ch=2 n=48 v=110
177600 On ch=2 n=49 v=110
177830 Off ch=2 n=49 v=110
177840 On ch=2 n=50 v=110
178070 Off ch=2 n=50 v=110
178080 On ch=2 n=51 v=110
178310 Off ch=2 n=51 v=110
178320 On ch=2 n=54 v=110
178550 Off ch=2 n=54 v=110
178560 Pb ch=2 v=6827
178560 On ch=2 n=56 v=110
178680 Pb ch=2 v=8192
178790 Off ch=2 n=56 v=110
178800 On ch=2 n=56 v=110
178910 Off ch=2 n=56 v=110
178920 On ch=2 n=56 v=110
179030 Off ch=2 n=56 v=110
179040 On ch=2 n=56 v=110
179150 Off ch=2 n=56 v=110
179160 On ch=2 n=56 v=110
179270 Off ch=2 n=56 v=110
179280 Pb ch=2 v=6827
179280 On ch=2 n=56 v=110
179400 Pb ch=2 v=8192
179510 Off ch=2 n=56 v=110
179520 On ch=2 n=56 v=110
179630 Off ch=2 n=56 v=110
179640 On ch=2 n=56 v=110
179750 Off ch=2 n=56 v=110
179760 On ch=2 n=56 v=110
179870 Off ch=2 n=56 v=110
179880 On ch=2 n=54 v=110
179990 Off ch=2 n=54 v=110
180000 On ch=2 n=51 v=110
180230 Off ch=2 n=51 v=110
180240 On ch=2 n=50 v=110
180470 Off ch=2 n=50 v=110
180480 On ch=2 n=49 v=110
180710 Off ch=2 n=49 v=110
180720 On ch=2 n=48 v=110
180950 Off ch=2 n=48 v=110
180960 On ch=2 n=47 v=110
181190 Off ch=2 n=47 v=110
181200 On ch=2 n=44 v=110
181430 Off ch=2 n=44 v=110
181440 Pb ch=2 v=6827
181440 On ch=2 n=44 v=110
181560 Pb ch=2 v=8192
181670 Off ch=2 n=44 v=110
181680 On ch=2 n=44 v=110
181790 Off ch=2 n=44 v=110
181800 On ch=2 n=44 v=110
181910 Off ch=2 n=44 v=110
181920 On ch=2 n=44 v=110
182030 Off ch=2 n=44 v=110
182040 On ch=2 n=44 v=110
182150 Off ch=2 n=44 v=110
182160 Pb ch=2 v=6827
182160 On ch=2 n=44 v=110
182280 Pb ch=2 v=8192
182390 Off ch=2 n=44 v=110
182400 On ch=2 n=44 v=110
182510 Off ch=2 n=44 v=110
182520 On ch=2 n=44 v=110
182630 Off ch=2 n=44 v=110
182640 On ch=2 n=44 v=110
182750 Off ch=2 n=44 v=110
182760 On ch=2 n=44 v=110
182870 Off ch=2 n=44 v=110
182880 On ch=2 n=47 v=110
183110 Off ch=2 n=47 v=110
183120 On ch=2 n=48 v=110
183350 Off ch=2 n=48 v=110
183360 On ch=2 n=49 v=110
183590 Off ch=2 n=49 v=110
183600 On ch=2 n=50 v=110
183830 Off ch=2 n=50 v=110
183840 On ch=2 n=51 v=110
184070 Off ch=2 n=51 v=110
184080 On ch=2 n=54 v=110
184310 Off ch=2 n=54 v=110
184320 On ch=2 n=56 v=110
184970 Off ch=2 n=56 v=110
185040 On ch=2 n=39 v=110
185040 On ch=2 n=51 v=110
185690 Off ch=2 n=51 v=110
185740 Off ch=2 n=39 v=110
185760 On ch=2 n=37 v=110
185760 On ch=2 n=49 v=110
186410 Off ch=2 n=49 v=110
186460 Off ch=2 n=37 v=110
186480 On ch=2 n=35 v=110
186480 On ch=2 n=47 v=110
187130 Off ch=2 n=47 v=110
187180 Off ch=2 n=35 v=110
187199 On ch=2 n=46 v=120
187200 On ch=2 n=34 v=110
187669 Off ch=2 n=46 v=120
187670 Off ch=2 n=34 v=110
188400 On ch=2 n=32 v=110
188750 Off ch=2 n=32 v=110
189120 On ch=2 n=30 v=110
189470 Off ch=2 n=30 v=110
189840 On ch=2 n=28 v=110
191030 Off ch=2 n=28 v=110
191040 On ch=2 n=30 v=110
191750 Off ch=2 n=30 v=110
191760 Pb ch=2 v=6827
191760 On ch=2 n=44 v=110
191880 Pb ch=2 v=8192
191990 Off ch=2 n=44 v=110
192000 On ch=2 n=44 v=110
192110 Off ch=2 n=44 v=110
192120 On ch=2 n=44 v=110
192230 Off ch=2 n=44 v=110
192240 On ch=2 n=44 v=110
192350 Off ch=2 n=44 v=110
192360 On ch=2 n=44 v=110
192470 Off ch=2 n=44 v=110
192480 Pb ch=2 v=6827
192480 On ch=2 n=44 v=110
192600 Pb ch=2 v=8192
192710 Off ch=2 n=44 v=110
192720 On ch=2 n=44 v=110
192830 Off ch=2 n=44 v=110
192840 On ch=2 n=44 v=110
192950 Off ch=2 n=44 v=110
192960 On ch=2 n=44 v=110
193070 Off ch=2 n=44 v=110
193080 On ch=2 n=44 v=110
193190 Off ch=2 n=44 v=110
193200 On ch=2 n=47 v=110
193430 Off ch=2 n=47 v=110
193440 On ch=2 n=48 v=110
193670 Off ch=2 n=48 v=110
193680 On ch=2 n=49 v=110
193910 Off ch=2 n=49 v=110
193920 On ch=2 n=50 v=110
194150 Off ch=2 n=50 v=110
194160 On ch=2 n=51 v=110
194390 Off ch=2 n=51 v=110
194400 On ch=2 n=54 v=110
194630 Off ch=2 n=54 v=110
194640 Pb ch=2 v=6827
194640 On ch=2 n=56 v=110
194760 Pb ch=2 v=8192
194870 Off ch=2 n=56 v=110
194880 On ch=2 n=56 v=110
194990 Off ch=2 n=56 v=110
195000 On ch=2 n=56 v=110
195110 Off ch=2 n=56 v=110
195120 On ch=2 n=56 v=110
195230 Off ch=2 n=56 v=110
195240 On ch=2 n=56 v=110
195350 Off ch=2 n=56 v=110
195360 Pb ch=2 v=6827
195360 On ch=2 n=56 v=110
195480 Pb ch=2 v=8192
195590 Off ch=2 n=56 v=110
195600 On ch=2 n=56 v=110
195710 Off ch=2 n=56 v=110
195720 On ch=2 n=56 v=110
195830 Off ch=2 n=56 v=110
195840 On ch=2 n=56 v=110
195950 Off ch=2 n=56 v=110
195960 On ch=2 n=54 v=110
196070 Off ch=2 n=54 v=110
196080 On ch=2 n=51 v=110
196310 Off ch=2 n=51 v=110
196320 On ch=2 n=50 v=110
196550 Off ch=2 n=50 v=110
196560 On ch=2 n=49 v=110
196790 Off ch=2 n=49 v=110
196800 On ch=2 n=48 v=110
197030 Off ch=2 n=48 v=110
197040 On ch=2 n=47 v=110
197270 Off ch=2 n=47 v=110
197280 On ch=2 n=44 v=110
197510 Off ch=2 n=44 v=110
197520 Pb ch=2 v=6827
197520 On ch=2 n=44 v=110
197640 Pb ch=2 v=8192
197750 Off ch=2 n=44 v=110
197760 On ch=2 n=44 v=110
197870 Off ch=2 n=44 v=110
197880 On ch=2 n=44 v=110
197990 Off ch=2 n=44 v=110
198000 On ch=2 n=44 v=110
198110 Off ch=2 n=44 v=110
198120 On ch=2 n=44 v=110
198230 Off ch=2 n=44 v=110
198240 Pb ch=2 v=6827
198240 On ch=2 n=44 v=110
198360 Pb ch=2 v=8192
198470 Off ch=2 n=44 v=110
198480 On ch=2 n=44 v=110
198590 Off ch=2 n=44 v=110
198600 On ch=2 n=44 v=110
198710 Off ch=2 n=44 v=110
198720 On ch=2 n=44 v=110
198830 Off ch=2 n=44 v=110
198840 On ch=2 n=42 v=110
198950 Off ch=2 n=42 v=110
198960 On ch=2 n=39 v=110
199190 Off ch=2 n=39 v=110
199200 On ch=2 n=38 v=110
199430 Off ch=2 n=38 v=110
199440 On ch=2 n=37 v=110
199670 Off ch=2 n=37 v=110
199680 On ch=2 n=36 v=110
199910 Off ch=2 n=36 v=110
199920 On ch=2 n=35 v=110
200150 Off ch=2 n=35 v=110
200160 On ch=2 n=32 v=110
200390 Off ch=2 n=32 v=110
200400 Pb ch=2 v=6827
200400 On ch=2 n=32 v=110
200520 Pb ch=2 v=8192
200630 Off ch=2 n=32 v=110
200640 On ch=2 n=32 v=110
200750 Off ch=2 n=32 v=110
200760 On ch=2 n=32 v=110
200870 Off ch=2 n=32 v=110
200880 On ch=2 n=32 v=110
200990 Off ch=2 n=32 v=110
201000 On ch=2 n=32 v=110
201110 Off ch=2 n=32 v=110
201120 Pb ch=2 v=6827
201120 On ch=2 n=32 v=110
201240 Pb ch=2 v=8192
201350 Off ch=2 n=32 v=110
201360 On ch=2 n=32 v=110
201470 Off ch=2 n=32 v=110
201480 On ch=2 n=32 v=110
201590 Off ch=2 n=32 v=110
201600 On ch=2 n=32 v=110
201710 Off ch=2 n=32 v=110
201720 On ch=2 n=32 v=110
201830 Off ch=2 n=32 v=110
201840 On ch=2 n=35 v=110
202070 Off ch=2 n=35 v=110
202080 On ch=2 n=36 v=110
202310 Off ch=2 n=36 v=110
202320 On ch=2 n=37 v=110
202550 Off ch=2 n=37 v=110
202560 On ch=2 n=38 v=110
202790 Off ch=2 n=38 v=110
202800 On ch=2 n=39 v=110
203030 Off ch=2 n=39 v=110
203040 On ch=2 n=42 v=110
203270 Off ch=2 n=42 v=110
203280 Pb ch=2 v=6827
203280 On ch=2 n=44 v=110
203400 Pb ch=2 v=8192
203510 Off ch=2 n=44 v=110
203520 On ch=2 n=44 v=110
203630 Off ch=2 n=44 v=110
203640 On ch=2 n=44 v=110
203750 Off ch=2 n=44 v=110
203760 On ch=2 n=44 v=110
203870 Off ch=2 n=44 v=110
203880 On ch=2 n=44 v=110
203990 Off ch=2 n=44 v=110
204000 Pb ch=2 v=6827
204000 On ch=2 n=44 v=110
204120 Pb ch=2 v=8192
204230 Off ch=2 n=44 v=110
204240 On ch=2 n=44 v=110
204350 Off ch=2 n=44 v=110
204360 On ch=2 n=44 v=110
204470 Off ch=2 n=44 v=110
204480 On ch=2 n=44 v=110
204590 Off ch=2 n=44 v=110
204600 On ch=2 n=42 v=110
204710 Off ch=2 n=42 v=110
204720 On ch=2 n=39 v=110
204950 Off ch=2 n=39 v=110
204960 On ch=2 n=38 v=110
205190 Off ch=2 n=38 v=110
205200 On ch=2 n=37 v=110
205430 Off ch=2 n=37 v=110
205440 On ch=2 n=36 v=110
205670 Off ch=2 n=36 v=110
205680 On ch=2 n=35 v=110
205910 Off ch=2 n=35 v=110
205920 On ch=2 n=32 v=110
206150 Off ch=2 n=32 v=110
206160 Pb ch=2 v=6827
206160 On ch=2 n=32 v=110
206280 Pb ch=2 v=8192
206390 Off ch=2 n=32 v=110
206400 On ch=2 n=32 v=110
206510 Off ch=2 n=32 v=110
206520 On ch=2 n=32 v=110
206630 Off ch=2 n=32 v=110
206640 On ch=2 n=32 v=110
206750 Off ch=2 n=32 v=110
206760 On ch=2 n=32 v=110
206870 Off ch=2 n=32 v=110
206880 Pb ch=2 v=6827
206880 On ch=2 n=32 v=110
207000 Pb ch=2 v=8192
207110 Off ch=2 n=32 v=110
207120 On ch=2 n=32 v=110
207230 Off ch=2 n=32 v=110
207240 On ch=2 n=32 v=110
207350 Off ch=2 n=32 v=110
207360 On ch=2 n=32 v=110
207470 Off ch=2 n=32 v=110
207480 On ch=2 n=32 v=110
207590 Off ch=2 n=32 v=110
207600 On ch=2 n=35 v=110
207830 Off ch=2 n=35 v=110
207840 On ch=2 n=36 v=110
208070 Off ch=2 n=36 v=110
208080 On ch=2 n=37 v=110
208310 Off ch=2 n=37 v=110
208320 On ch=2 n=38 v=110
208550 Off ch=2 n=38 v=110
208560 On ch=2 n=39 v=110
208790 Off ch=2 n=39 v=110
208800 On ch=2 n=42 v=110
209030 Off ch=2 n=42 v=110
209040 Pb ch=2 v=6827
209040 On ch=2 n=44 v=110
209160 Pb ch=2 v=8192
209270 Off ch=2 n=44 v=110
209280 On ch=2 n=44 v=110
209390 Off ch=2 n=44 v=110
209400 On ch=2 n=44 v=110
209510 Off ch=2 n=44 v=110
209520 On ch=2 n=44 v=110
209630 Off ch=2 n=44 v=110
209640 On ch=2 n=44 v=110
209750 Off ch=2 n=44 v=110
209760 Pb ch=2 v=6827
209760 On ch=2 n=44 v=110
209880 Pb ch=2 v=8192
209990 Off ch=2 n=44 v=110
210000 On ch=2 n=44 v=110
210110 Off ch=2 n=44 v=110
210120 On ch=2 n=44 v=110
210230 Off ch=2 n=44 v=110
210240 On ch=2 n=44 v=110
210350 Off ch=2 n=44 v=110
210360 On ch=2 n=44 v=110
210470 Off ch=2 n=44 v=110
210480 On ch=2 n=47 v=110
210710 Off ch=2 n=47 v=110
210720 On ch=2 n=48 v=110
210950 Off ch=2 n=48 v=110
210960 On ch=2 n=49 v=110
211190 Off ch=2 n=49 v=110
211200 On ch=2 n=50 v=110
211430 Off ch=2 n=50 v=110
211440 On ch=2 n=51 v=110
211670 Off ch=2 n=51 v=110
211680 On ch=2 n=54 v=110
211910 Off ch=2 n=54 v=110
211920 Pb ch=2 v=6827
211920 On ch=2 n=56 v=110
212040 Pb ch=2 v=8192
212150 Off ch=2 n=56 v=110
212160 On ch=2 n=56 v=110
212270 Off ch=2 n=56 v=110
212280 On ch=2 n=56 v=110
212390 Off ch=2 n=56 v=110
212400 On ch=2 n=56 v=110
212510 Off ch=2 n=56 v=110
212520 On ch=2 n=56 v=110
212630 Off ch=2 n=56 v=110
212640 Pb ch=2 v=6827
212640 On ch=2 n=56 v=110
212760 Pb ch=2 v=8192
212870 Off ch=2 n=56 v=110
212880 On ch=2 n=56 v=110
212990 Off ch=2 n=56 v=110
213000 On ch=2 n=56 v=110
213110 Off ch=2 n=56 v=110
213120 On ch=2 n=56 v=110
213230 Off ch=2 n=56 v=110
213240 On ch=2 n=56 v=110
213350 Off ch=2 n=56 v=110
213360 On ch=2 n=59 v=110
213590 Off ch=2 n=59 v=110
213600 On ch=2 n=60 v=110
213830 Off ch=2 n=60 v=110
213840 On ch=2 n=61 v=110
214070 Off ch=2 n=61 v=110
214080 On ch=2 n=62 v=110
214310 Off ch=2 n=62 v=110
214320 On ch=2 n=63 v=110
214550 Off ch=2 n=63 v=110
214560 On ch=2 n=54 v=110
214790 Off ch=2 n=54 v=110
214800 Pb ch=2 v=6827
214800 On ch=2 n=56 v=110
214920 Pb ch=2 v=8192
215030 Off ch=2 n=56 v=110
215040 On ch=2 n=56 v=110
215150 Off ch=2 n=56 v=110
215160 On ch=2 n=56 v=110
215270 Off ch=2 n=56 v=110
215280 On ch=2 n=56 v=110
215390 Off ch=2 n=56 v=110
215400 On ch=2 n=56 v=110
215510 Off ch=2 n=56 v=110
215520 Pb ch=2 v=6827
215520 On ch=2 n=56 v=110
215640 Pb ch=2 v=8192
215750 Off ch=2 n=56 v=110
215760 On ch=2 n=56 v=110
215870 Off ch=2 n=56 v=110
215880 On ch=2 n=56 v=110
215990 Off ch=2 n=56 v=110
216000 On ch=2 n=56 v=110
216110 Off ch=2 n=56 v=110
216120 On ch=2 n=56 v=110
216230 Off ch=2 n=56 v=110
216240 On ch=2 n=59 v=110
216470 Off ch=2 n=59 v=110
216480 On ch=2 n=60 v=110
216710 Off ch=2 n=60 v=110
216720 On ch=2 n=61 v=110
216950 Off ch=2 n=61 v=110
216960 On ch=2 n=62 v=110
217190 Off ch=2 n=62 v=110
217200 On ch=2 n=63 v=110
217430 Off ch=2 n=63 v=110
217440 On ch=2 n=54 v=110
217670 Off ch=2 n=54 v=110
217680 Pb ch=2 v=6827
217680 On ch=2 n=56 v=110
217800 Pb ch=2 v=8192
217910 Off ch=2 n=56 v=110
217920 On ch=2 n=56 v=110
218030 Off ch=2 n=56 v=110
218040 On ch=2 n=56 v=110
218150 Off ch=2 n=56 v=110
218160 On ch=2 n=56 v=110
218270 Off ch=2 n=56 v=110
218280 On ch=2 n=56 v=110
218390 Off ch=2 n=56 v=110
218400 Pb ch=2 v=6827
218400 On ch=2 n=56 v=110
218520 Pb ch=2 v=8192
218630 Off ch=2 n=56 v=110
218640 On ch=2 n=56 v=110
218750 Off ch=2 n=56 v=110
218760 On ch=2 n=56 v=110
218870 Off ch=2 n=56 v=110
218880 On ch=2 n=56 v=110
218990 Off ch=2 n=56 v=110
219000 On ch=2 n=54 v=110
219110 Off ch=2 n=54 v=110
219120 On ch=2 n=51 v=110
219350 Off ch=2 n=51 v=110
219360 On ch=2 n=50 v=110
219590 Off ch=2 n=50 v=110
219600 On ch=2 n=49 v=110
219830 Off ch=2 n=49 v=110
219840 On ch=2 n=48 v=110
220070 Off ch=2 n=48 v=110
220080 On ch=2 n=47 v=110
220310 Off ch=2 n=47 v=110
220320 On ch=2 n=44 v=110
220550 Off ch=2 n=44 v=110
220560 Pb ch=2 v=6827
220560 On ch=2 n=44 v=110
220680 Pb ch=2 v=8192
220790 Off ch=2 n=44 v=110
220800 On ch=2 n=44 v=110
220910 Off ch=2 n=44 v=110
220920 On ch=2 n=44 v=110
221030 Off ch=2 n=44 v=110
221040 On ch=2 n=44 v=110
221150 Off ch=2 n=44 v=110
221160 On ch=2 n=44 v=110
221270 Off ch=2 n=44 v=110
221280 Pb ch=2 v=6827
221280 On ch=2 n=44 v=110
221400 Pb ch=2 v=8192
221510 Off ch=2 n=44 v=110
221520 On ch=2 n=44 v=110
221630 Off ch=2 n=44 v=110
221640 On ch=2 n=44 v=110
221750 Off ch=2 n=44 v=110
221760 On ch=2 n=44 v=110
221870 Off ch=2 n=44 v=110
221880 On ch=2 n=42 v=110
221990 Off ch=2 n=42 v=110
222000 On ch=2 n=39 v=110
222230 Off ch=2 n=39 v=110
222240 On ch=2 n=38 v=110
222470 Off ch=2 n=38 v=110
222480 On ch=2 n=37 v=110
222710 Off ch=2 n=37 v=110
222720 On ch=2 n=36 v=110
222950 Off ch=2 n=36 v=110
222960 On ch=2 n=35 v=110
223190 Off ch=2 n=35 v=110
223200 On ch=2 n=32 v=110
223430 Off ch=2 n=32 v=110
223440 On ch=2 n=32 v=110
223840 Off ch=2 n=32 v=110
224160 On ch=2 n=39 v=110
224560 Off ch=2 n=39 v=110
224880 On ch=2 n=37 v=110
225280 Off ch=2 n=37 v=110
225600 On ch=2 n=35 v=110
226000 Off ch=2 n=35 v=110
226320 On ch=2 n=34 v=110
226790 Off ch=2 n=34 v=110
227520 On ch=2 n=32 v=110
227750 Off ch=2 n=32 v=110
228240 On ch=2 n=30 v=110
228470 Off ch=2 n=30 v=110
228960 On ch=2 n=28 v=110
231730 Par ch=2 c=98 v=33
231730 Off ch=2 n=28 v=110
231740 Par ch=2 c=99 v=1
231750 Par ch=2 c=6 v=64
231760 Par ch=2 c=98 v=32
231770 Par ch=2 c=99 v=1
231780 Par ch=2 c=6 v=30
231790 Par ch=2 c=11 v=100
231800 PrCh ch=2 p=33
231810 Par ch=2 c=98 v=99
231820 Par ch=2 c=99 v=1
231830 Par ch=2 c=6 v=64
231840 On ch=2 n=39 v=110
232070 Off ch=2 n=39 v=110
232080 On ch=2 n=42 v=110
232310 Off ch=2 n=42 v=110
232320 On ch=2 n=44 v=110
232550 Off ch=2 n=44 v=110
232560 On ch=2 n=35 v=110
234360 Pb ch=2 v=7509
234710 Off ch=2 n=35 v=110
234720 Pb ch=2 v=8192
234720 On ch=2 n=32 v=70
240470 Off ch=2 n=32 v=70
279360 Par ch=2 c=91 v=30
279370 Par ch=2 c=93 v=10
280800 On ch=2 n=46 v=110
281270 Off ch=2 n=46 v=110
281280 On ch=2 n=41 v=110
281750 Off ch=2 n=41 v=110
281760 On ch=2 n=37 v=110
282230 Off ch=2 n=37 v=110
282240 On ch=2 n=34 v=110
282710 Off ch=2 n=34 v=110
282720 On ch=2 n=37 v=110
283190 Off ch=2 n=37 v=110
283200 On ch=2 n=29 v=110
283670 Off ch=2 n=29 v=110
283680 On ch=2 n=30 v=110
284150 Off ch=2 n=30 v=110
284160 On ch=2 n=32 v=110
284630 Off ch=2 n=32 v=110
284640 On ch=2 n=34 v=110
285110 Off ch=2 n=34 v=110
285120 On ch=2 n=37 v=110
285590 Off ch=2 n=37 v=110
285600 On ch=2 n=39 v=110
286070 Off ch=2 n=39 v=110
286080 On ch=2 n=41 v=110
286550 Off ch=2 n=41 v=110
286560 On ch=2 n=39 v=110
286680 Pb ch=2 v=9557
286800 Pb ch=2 v=8192
287030 Off ch=2 n=39 v=110
287040 On ch=2 n=36 v=110
288720 Off ch=2 n=36 v=110
288720 On ch=2 n=36 v=110
288950 Off ch=2 n=36 v=110
288960 On ch=2 n=37 v=110
289190 Off ch=2 n=37 v=110
289200 On ch=2 n=39 v=110
289430 Off ch=2 n=39 v=110
289440 On ch=2 n=37 v=110
289560 Pb ch=2 v=9557
289680 Pb ch=2 v=8192
289910 Off ch=2 n=37 v=110
289920 On ch=2 n=34 v=110
290870 Off ch=2 n=34 v=110
290880 On ch=2 n=34 v=110
291350 Off ch=2 n=34 v=110
291360 On ch=2 n=37 v=110
291830 Off ch=2 n=37 v=110
291840 On ch=2 n=41 v=110
292310 Off ch=2 n=41 v=110
292320 Pb ch=2 v=8875
292320 On ch=2 n=48 v=110
292560 Pb ch=2 v=8192
292790 Off ch=2 n=48 v=110
292800 On ch=2 n=44 v=110
294450 Off ch=2 n=44 v=110
294480 Pb ch=2 v=6144
294480 On ch=2 n=39 v=110
294510 Pb ch=2 v=6272
294520 Pb ch=2 v=6400
294530 Pb ch=2 v=6528
294540 Pb ch=2 v=6656
294550 Pb ch=2 v=6784
294560 Pb ch=2 v=6912
294570 Pb ch=2 v=7168
294580 Pb ch=2 v=7296
294590 Pb ch=2 v=7424
294600 Pb ch=2 v=7552
294610 Pb ch=2 v=7680
294620 Pb ch=2 v=7808
294630 Pb ch=2 v=7936
294640 Pb ch=2 v=8192
294900 Pb ch=2 v=8064
294960 Pb ch=2 v=7936
294990 Pb ch=2 v=7808
295020 Pb ch=2 v=7680
295030 Pb ch=2 v=7552
295050 Pb ch=2 v=7424
295060 Pb ch=2 v=7296
295070 Pb ch=2 v=7168
295080 Pb ch=2 v=7040
295090 Pb ch=2 v=6912
295100 Pb ch=2 v=6784
295110 Pb ch=2 v=6528
295120 Pb ch=2 v=6400
295130 Pb ch=2 v=6016
295140 Pb ch=2 v=5760
295150 Pb ch=2 v=5504
295160 Pb ch=2 v=5120
295170 Pb ch=2 v=4736
295180 Pb ch=2 v=4352
295190 Pb ch=2 v=3712
295190 Off ch=2 n=39 v=110
295200 Pb ch=2 v=8192
295200 On ch=2 n=32 v=110
296640 Pb ch=2 v=8192
297840 Pb ch=2 v=8064
297880 Pb ch=2 v=7936
297910 Pb ch=2 v=7808
297930 Pb ch=2 v=7680
297950 Pb ch=2 v=7552
297960 Pb ch=2 v=7424
297970 Pb ch=2 v=7296
297980 Pb ch=2 v=7168
297990 Pb ch=2 v=7040
298000 Pb ch=2 v=6784
298010 Pb ch=2 v=6528
298020 Pb ch=2 v=6272
298030 Pb ch=2 v=6016
298040 Pb ch=2 v=5632
298050 Pb ch=2 v=5248
298060 Pb ch=2 v=4736
298070 Pb ch=2 v=4096
298070 Off ch=2 n=32 v=110
298080 Pb ch=2 v=8192
298080 On ch=2 n=46 v=110
298550 Off ch=2 n=46 v=110
298560 On ch=2 n=41 v=110
299030 Off ch=2 n=41 v=110
299040 On ch=2 n=37 v=110
299510 Off ch=2 n=37 v=110
299520 Pb ch=2 v=8192
299520 On ch=2 n=34 v=110
300650 Pb ch=2 v=8064
300720 Pb ch=2 v=7936
300750 Pb ch=2 v=7808
300780 Pb ch=2 v=7680
300810 Pb ch=2 v=7552
300820 Pb ch=2 v=7424
300840 Pb ch=2 v=7296
300850 Pb ch=2 v=7168
300860 Pb ch=2 v=7040
300870 Pb ch=2 v=6912
300880 Pb ch=2 v=6784
300890 Pb ch=2 v=6656
300900 Pb ch=2 v=6400
300910 Pb ch=2 v=6272
300920 Pb ch=2 v=6016
300930 Pb ch=2 v=5760
300940 Pb ch=2 v=5504
300950 Pb ch=2 v=5120
300950 Off ch=2 n=34 v=110
300960 Pb ch=2 v=8192
300960 On ch=2 n=30 v=110
301430 Off ch=2 n=30 v=110
301440 On ch=2 n=32 v=110
301910 Off ch=2 n=32 v=110
301920 On ch=2 n=34 v=110
302390 Off ch=2 n=34 v=110
302400 On ch=2 n=37 v=110
302870 Off ch=2 n=37 v=110
302880 On ch=2 n=39 v=110
303350 Off ch=2 n=39 v=110
303360 On ch=2 n=41 v=110
303830 Off ch=2 n=41 v=110
303840 On ch=2 n=39 v=110
303960 Pb ch=2 v=9557
304080 Pb ch=2 v=8192
304310 Off ch=2 n=39 v=110
304320 On ch=2 n=36 v=110
306000 Off ch=2 n=36 v=110
306000 On ch=2 n=36 v=110
306230 Off ch=2 n=36 v=110
306240 On ch=2 n=37 v=110
306470 Off ch=2 n=37 v=110
306480 On ch=2 n=39 v=110
306710 Off ch=2 n=39 v=110
306720 On ch=2 n=37 v=110
306840 Pb ch=2 v=9557
306960 Pb ch=2 v=8192
307190 Off ch=2 n=37 v=110
307200 On ch=2 n=34 v=110
308150 Off ch=2 n=34 v=110
308160 On ch=2 n=34 v=110
308630 Off ch=2 n=34 v=110
308640 On ch=2 n=37 v=110
309110 Off ch=2 n=37 v=110
309120 On ch=2 n=41 v=110
309590 Off ch=2 n=41 v=110
309600 Pb ch=2 v=8875
309600 On ch=2 n=48 v=110
309840 Pb ch=2 v=8192
310070 Off ch=2 n=48 v=110
310080 On ch=2 n=44 v=110
311730 Off ch=2 n=44 v=110
311760 Pb ch=2 v=6144
311760 On ch=2 n=39 v=110
311790 Pb ch=2 v=6272
311800 Pb ch=2 v=6400
311810 Pb ch=2 v=6528
311820 Pb ch=2 v=6656
311830 Pb ch=2 v=6784
311840 Pb ch=2 v=6912
311850 Pb ch=2 v=7168
311860 Pb ch=2 v=7296
311870 Pb ch=2 v=7424
311880 Pb ch=2 v=7552
311890 Pb ch=2 v=7680
311900 Pb ch=2 v=7808
311910 Pb ch=2 v=7936
311920 Pb ch=2 v=8192
312180 Pb ch=2 v=8064
312240 Pb ch=2 v=7936
312270 Pb ch=2 v=7808
312300 Pb ch=2 v=7680
312310 Pb ch=2 v=7552
312330 Pb ch=2 v=7424
312340 Pb ch=2 v=7296
312350 Pb ch=2 v=7168
312360 Pb ch=2 v=7040
312370 Pb ch=2 v=6912
312380 Pb ch=2 v=6784
312390 Pb ch=2 v=6528
312400 Pb ch=2 v=6400
312410 Pb ch=2 v=6016
312420 Pb ch=2 v=5760
312430 Pb ch=2 v=5504
312440 Pb ch=2 v=5120
312450 Pb ch=2 v=4736
312460 Pb ch=2 v=4352
312470 Pb ch=2 v=3712
312470 Off ch=2 n=39 v=110
312480 Pb ch=2 v=8192
312480 On ch=2 n=32 v=110
313910 Off ch=2 n=32 v=110
313920 On ch=2 n=32 v=110
314390 Off ch=2 n=32 v=110
314400 On ch=2 n=34 v=110
314870 Off ch=2 n=34 v=110
314880 On ch=2 n=36 v=110
315350 Off ch=2 n=36 v=110
315360 On ch=2 n=37 v=110
316790 Off ch=2 n=37 v=110
316800 On ch=2 n=36 v=110
318230 Off ch=2 n=36 v=110
318240 On ch=2 n=34 v=110
319670 Off ch=2 n=34 v=110
319680 On ch=2 n=32 v=110
321110 Off ch=2 n=32 v=110
321600 On ch=2 n=30 v=110
321830 Off ch=2 n=30 v=110
322320 On ch=2 n=28 v=110
322550 Off ch=2 n=28 v=110
323040 On ch=2 n=39 v=110
323270 Off ch=2 n=39 v=110
323760 On ch=2 n=37 v=110
323990 Off ch=2 n=37 v=110
324480 On ch=2 n=35 v=110
324800 Off ch=2 n=35 v=110
325200 On ch=2 n=33 v=110
325430 Off ch=2 n=33 v=110
325440 On ch=2 n=47 v=110
325670 Off ch=2 n=47 v=110
326400 On ch=2 n=42 v=110
326630 Off ch=2 n=42 v=110
327120 On ch=2 n=40 v=110
327350 Off ch=2 n=40 v=110
327840 On ch=2 n=39 v=110
328070 Off ch=2 n=39 v=110
328560 On ch=2 n=37 v=110
328790 Off ch=2 n=37 v=110
329280 On ch=2 n=35 v=110
329600 Off ch=2 n=35 v=110
330000 On ch=2 n=33 v=110
330230 Off ch=2 n=33 v=110
330240 On ch=2 n=47 v=110
330470 Off ch=2 n=47 v=110
330480 On ch=2 n=33 v=110
330590 Off ch=2 n=33 v=110
330600 On ch=2 n=33 v=110
330710 Off ch=2 n=33 v=110
330720 On ch=2 n=35 v=110
331200 On ch=2 n=47 v=110
331430 Off ch=2 n=47 v=110
331440 On ch=2 n=47 v=110
331670 Off ch=2 n=47 v=110
331680 On ch=2 n=47 v=110
337910 Off ch=2 n=47 v=110
337910 Off ch=2 n=35 v=110
337920 On ch=2 n=28 v=110
338390 Off ch=2 n=28 v=110
338400 On ch=2 n=35 v=110
338870 Off ch=2 n=35 v=110
338880 On ch=2 n=32 v=110
339350 Off ch=2 n=32 v=110
339360 On ch=2 n=28 v=110
339830 Off ch=2 n=28 v=110
339840 On ch=2 n=35 v=110
340310 Off ch=2 n=35 v=110
340320 On ch=2 n=28 v=110
340790 Off ch=2 n=28 v=110
340800 On ch=2 n=33 v=110
341270 Off ch=2 n=33 v=110
341280 On ch=2 n=37 v=110
341750 Off ch=2 n=37 v=110
341760 Pb ch=2 v=8192
341760 On ch=2 n=40 v=110
342060 Pb ch=2 v=8320
342100 Pb ch=2 v=8448
342120 Pb ch=2 v=8576
342140 Pb ch=2 v=8704
342150 Pb ch=2 v=8832
342160 Pb ch=2 v=8960
342170 Pb ch=2 v=9216
342180 Pb ch=2 v=9344
342190 Pb ch=2 v=9600
342200 Pb ch=2 v=9856
342210 Pb ch=2 v=10240
342220 Pb ch=2 v=10624
342230 Pb ch=2 v=11264
342230 Off ch=2 n=40 v=110
342240 Pb ch=2 v=8192
342240 On ch=2 n=45 v=110
342470 Off ch=2 n=45 v=110
342480 On ch=2 n=49 v=110
342710 Off ch=2 n=49 v=110
342720 On ch=2 n=52 v=110
342950 Off ch=2 n=52 v=110
342960 On ch=2 n=57 v=110
343430 Off ch=2 n=57 v=110
343440 On ch=2 n=57 v=110
343670 Off ch=2 n=57 v=110
343680 On ch=2 n=52 v=110
343910 Off ch=2 n=52 v=110
343920 On ch=2 n=49 v=110
344150 Off ch=2 n=49 v=110
344160 On ch=2 n=52 v=110
344390 Off ch=2 n=52 v=110
344400 On ch=2 n=49 v=110
344630 Off ch=2 n=49 v=110
344640 On ch=2 n=47 v=110
344870 Off ch=2 n=47 v=110
344880 On ch=2 n=45 v=110
345110 Off ch=2 n=45 v=110
345120 On ch=2 n=40 v=110
345590 Off ch=2 n=40 v=110
345600 On ch=2 n=35 v=110
346070 Off ch=2 n=35 v=110
346080 On ch=2 n=32 v=110
346550 Off ch=2 n=32 v=110
346560 On ch=2 n=28 v=110
347990 Off ch=2 n=28 v=110
348720 On ch=2 n=30 v=110
349430 Off ch=2 n=30 v=110
349440 On ch=2 n=32 v=110
350150 Off ch=2 n=32 v=110
350160 On ch=2 n=35 v=110
350870 Off ch=2 n=35 v=110
350880 On ch=2 n=37 v=110
351590 Off ch=2 n=37 v=110
351600 On ch=2 n=39 v=110
352310 Off ch=2 n=39 v=110
352320 On ch=2 n=42 v=110
352790 Off ch=2 n=42 v=110
352800 Pb ch=2 v=9557
352800 On ch=2 n=42 v=110
353000 Pb ch=2 v=8875
353060 Pb ch=2 v=8192
353270 Off ch=2 n=42 v=110
353280 On ch=2 n=39 v=110
353750 Off ch=2 n=39 v=110
353760 On ch=2 n=46 v=110
354230 Off ch=2 n=46 v=110
354240 On ch=2 n=41 v=110
354710 Off ch=2 n=41 v=110
354720 On ch=2 n=37 v=110
355190 Off ch=2 n=37 v=110
355200 On ch=2 n=34 v=110
355670 Off ch=2 n=34 v=110
355680 On ch=2 n=37 v=110
356150 Off ch=2 n=37 v=110
356160 On ch=2 n=29 v=110
356630 Off ch=2 n=29 v=110
356640 On ch=2 n=30 v=110
357110 Off ch=2 n=30 v=110
357120 On ch=2 n=32 v=110
357590 Off ch=2 n=32 v=110
357600 On ch=2 n=34 v=110
358070 Off ch=2 n=34 v=110
358080 On ch=2 n=37 v=110
358550 Off ch=2 n=37 v=110
358560 On ch=2 n=39 v=110
359030 Off ch=2 n=39 v=110
359040 On ch=2 n=41 v=110
359510 Off ch=2 n=41 v=110
359520 On ch=2 n=39 v=110
359640 Pb ch=2 v=9557
359760 Pb ch=2 v=8192
359990 Off ch=2 n=39 v=110
360000 On ch=2 n=36 v=110
361680 Off ch=2 n=36 v=110
361680 On ch=2 n=36 v=110
361910 Off ch=2 n=36 v=110
361920 On ch=2 n=37 v=110
362150 Off ch=2 n=37 v=110
362160 On ch=2 n=39 v=110
362390 Off ch=2 n=39 v=110
362400 On ch=2 n=37 v=110
362520 Pb ch=2 v=9557
362640 Pb ch=2 v=8192
362870 Off ch=2 n=37 v=110
362880 On ch=2 n=34 v=110
363830 Off ch=2 n=34 v=110
363840 On ch=2 n=34 v=110
364310 Off ch=2 n=34 v=110
364320 On ch=2 n=37 v=110
364790 Off ch=2 n=37 v=110
364800 On ch=2 n=41 v=110
365270 Off ch=2 n=41 v=110
365280 Pb ch=2 v=8875
365280 On ch=2 n=48 v=110
365520 Pb ch=2 v=8192
365750 Off ch=2 n=48 v=110
365760 On ch=2 n=44 v=110
367410 Off ch=2 n=44 v=110
367440 Pb ch=2 v=6144
367440 On ch=2 n=39 v=110
367460 Pb ch=2 v=6272
367470 Pb ch=2 v=6400
367490 Pb ch=2 v=6528
367500 Pb ch=2 v=6656
367510 Pb ch=2 v=6784
367530 Pb ch=2 v=6912
367540 Pb ch=2 v=7040
367550 Pb ch=2 v=7168
367570 Pb ch=2 v=7296
367580 Pb ch=2 v=7424
367600 Pb ch=2 v=7552
367610 Pb ch=2 v=7680
367620 Pb ch=2 v=7808
367640 Pb ch=2 v=7936
367650 Pb ch=2 v=8064
367660 Pb ch=2 v=8192
368150 Off ch=2 n=39 v=110
368160 On ch=2 n=32 v=110
371030 Off ch=2 n=32 v=110
371040 On ch=2 n=46 v=110
371510 Off ch=2 n=46 v=110
371520 On ch=2 n=41 v=110
371990 Off ch=2 n=41 v=110
372000 On ch=2 n=37 v=110
372470 Off ch=2 n=37 v=110
372480 On ch=2 n=34 v=110
372950 Off ch=2 n=34 v=110
372960 On ch=2 n=37 v=110
373430 Off ch=2 n=37 v=110
373440 On ch=2 n=29 v=110
373910 Off ch=2 n=29 v=110
373920 On ch=2 n=30 v=110
374390 Off ch=2 n=30 v=110
374400 On ch=2 n=32 v=110
374870 Off ch=2 n=32 v=110
374880 On ch=2 n=34 v=110
375350 Off ch=2 n=34 v=110
375360 On ch=2 n=37 v=110
375830 Off ch=2 n=37 v=110
375840 On ch=2 n=39 v=110
376310 Off ch=2 n=39 v=110
376320 On ch=2 n=41 v=110
376790 Off ch=2 n=41 v=110
376800 On ch=2 n=39 v=110
376920 Pb ch=2 v=9557
377040 Pb ch=2 v=8192
377270 Off ch=2 n=39 v=110
377280 On ch=2 n=36 v=110
378960 Off ch=2 n=36 v=110
378960 On ch=2 n=36 v=110
379190 Off ch=2 n=36 v=110
379200 On ch=2 n=37 v=110
379430 Off ch=2 n=37 v=110
379440 On ch=2 n=39 v=110
379670 Off ch=2 n=39 v=110
379680 On ch=2 n=37 v=110
379800 Pb ch=2 v=9557
379920 Pb ch=2 v=8192
380150 Off ch=2 n=37 v=110
380160 On ch=2 n=34 v=110
381110 Off ch=2 n=34 v=110
381120 On ch=2 n=34 v=110
381590 Off ch=2 n=34 v=110
381600 On ch=2 n=37 v=110
382070 Off ch=2 n=37 v=110
382080 On ch=2 n=41 v=110
382550 Off ch=2 n=41 v=110
382560 Pb ch=2 v=8875
382560 On ch=2 n=48 v=110
382800 Pb ch=2 v=8192
383030 Off ch=2 n=48 v=110
383040 On ch=2 n=44 v=110
384690 Off ch=2 n=44 v=110
384720 Pb ch=2 v=6144
384720 On ch=2 n=39 v=110
384740 Pb ch=2 v=6272
384750 Pb ch=2 v=6400
384770 Pb ch=2 v=6528
384780 Pb ch=2 v=6656
384790 Pb ch=2 v=6784
384810 Pb ch=2 v=6912
384820 Pb ch=2 v=7040
384830 Pb ch=2 v=7168
384850 Pb ch=2 v=7296
384860 Pb ch=2 v=7424
384880 Pb ch=2 v=7552
384890 Pb ch=2 v=7680
384900 Pb ch=2 v=7808
384920 Pb ch=2 v=7936
384930 Pb ch=2 v=8064
384940 Pb ch=2 v=8192
385430 Off ch=2 n=39 v=110
385440 On ch=2 n=32 v=110
388310 Off ch=2 n=32 v=110
389760 On ch=2 n=34 v=100
391190 Off ch=2 n=34 v=100
392640 On ch=2 n=39 v=100
394070 Off ch=2 n=39 v=100
394080 On ch=2 n=39 v=100
395510 Off ch=2 n=39 v=100
395520 On ch=2 n=39 v=100
396950 Off ch=2 n=39 v=100
396960 On ch=2 n=37 v=100
398390 Off ch=2 n=37 v=100
398400 Pb ch=2 v=8192
398400 On ch=2 n=37 v=100
399570 Pb ch=2 v=8064
399630 Pb ch=2 v=7936
399660 Pb ch=2 v=7808
399680 Pb ch=2 v=7680
399700 Pb ch=2 v=7552
399720 Pb ch=2 v=7424
399730 Pb ch=2 v=7296
399740 Pb ch=2 v=7168
399750 Pb ch=2 v=7040
399760 Pb ch=2 v=6912
399770 Pb ch=2 v=6784
399780 Pb ch=2 v=6528
399790 Pb ch=2 v=6400
399800 Pb ch=2 v=6144
399810 Pb ch=2 v=5888
399820 Pb ch=2 v=5504
399830 Pb ch=2 v=5120
399830 Off ch=2 n=37 v=100
399840 Pb ch=2 v=8192
399840 On ch=2 n=32 v=100
401270 Off ch=2 n=32 v=100
401280 On ch=2 n=32 v=100
405590 Off ch=2 n=32 v=100
407040 On ch=2 n=34 v=100
408470 Off ch=2 n=34 v=100
409920 On ch=2 n=39 v=100
411350 Off ch=2 n=39 v=100
411360 On ch=2 n=39 v=100
412790 Off ch=2 n=39 v=100
412800 On ch=2 n=39 v=100
414230 Off ch=2 n=39 v=100
414240 On ch=2 n=37 v=100
415670 Off ch=2 n=37 v=100
415680 Pb ch=2 v=8192
415680 On ch=2 n=37 v=100
416850 Pb ch=2 v=8064
416910 Pb ch=2 v=7936
416940 Pb ch=2 v=7808
416960 Pb ch=2 v=7680
416980 Pb ch=2 v=7552
417000 Pb ch=2 v=7424
417010 Pb ch=2 v=7296
417020 Pb ch=2 v=7168
417030 Pb ch=2 v=7040
417040 Pb ch=2 v=6912
417050 Pb ch=2 v=6784
417060 Pb ch=2 v=6528
417070 Pb ch=2 v=6400
417080 Pb ch=2 v=6144
417090 Pb ch=2 v=5888
417100 Pb ch=2 v=5504
417110 Pb ch=2 v=5120
417110 Off ch=2 n=37 v=100
417120 Pb ch=2 v=8192
417120 On ch=2 n=32 v=100
418550 Off ch=2 n=32 v=100
418560 On ch=2 n=32 v=100
419990 Off ch=2 n=32 v=100
420000 On ch=2 n=32 v=100
421430 Off ch=2 n=32 v=100
421440 On ch=2 n=32 v=100
421910 Off ch=2 n=32 v=100
421920 On ch=2 n=34 v=100
422390 Off ch=2 n=34 v=100
422400 On ch=2 n=36 v=100
422870 Off ch=2 n=36 v=100
422880 On ch=2 n=37 v=100
424310 Off ch=2 n=37 v=100
424320 On ch=2 n=36 v=100
425750 Off ch=2 n=36 v=100
425760 On ch=2 n=34 v=100
427190 Off ch=2 n=34 v=100
427200 On ch=2 n=32 v=100
428630 Off ch=2 n=32 v=100
429120 On ch=2 n=30 v=100
429350 Off ch=2 n=30 v=100
429840 On ch=2 n=28 v=100
430070 Off ch=2 n=28 v=100
430560 On ch=2 n=39 v=100
430790 Off ch=2 n=39 v=100
431280 On ch=2 n=37 v=100
431510 Off ch=2 n=37 v=100
432000 On ch=2 n=35 v=100
432320 Off ch=2 n=35 v=100
432720 On ch=2 n=33 v=100
432950 Off ch=2 n=33 v=100
432960 On ch=2 n=47 v=100
433190 Off ch=2 n=47 v=100
433920 On ch=2 n=42 v=100
434150 Off ch=2 n=42 v=100
434640 On ch=2 n=40 v=100
434870 Off ch=2 n=40 v=100
435360 On ch=2 n=39 v=100
435590 Off ch=2 n=39 v=100
436080 On ch=2 n=37 v=100
436310 Off ch=2 n=37 v=100
436800 On ch=2 n=35 v=100
437120 Off ch=2 n=35 v=100
437520 On ch=2 n=33 v=100
437750 Off ch=2 n=33 v=100
437760 On ch=2 n=47 v=100
437990 Off ch=2 n=47 v=100
438720 On ch=2 n=42 v=100
438950 Off ch=2 n=42 v=100
439440 On ch=2 n=40 v=100
439670 Off ch=2 n=40 v=100
440160 On ch=2 n=39 v=100
440390 Off ch=2 n=39 v=100
440880 On ch=2 n=37 v=100
441110 Off ch=2 n=37 v=100
441600 On ch=2 n=35 v=100
441920 Off ch=2 n=35 v=100
442320 On ch=2 n=33 v=100
442550 Off ch=2 n=33 v=100
442560 On ch=2 n=35 v=106
442610 Pb ch=2 v=8185
442650 Pb ch=2 v=8178
442690 Pb ch=2 v=8171
442710 Pb ch=2 v=8164
442730 Pb ch=2 v=8157
442750 Pb ch=2 v=8151
442770 Pb ch=2 v=8075
442790 Pb ch=2 v=8075
442850 Pb ch=2 v=8082
442890 Pb ch=2 v=8089
442930 Pb ch=2 v=8096
442950 Pb ch=2 v=8103
442970 Pb ch=2 v=8110
442990 Pb ch=2 v=8116
443010 Pb ch=2 v=8192
443030 Pb ch=2 v=8192
443040 On ch=2 n=47 v=106
443240 Off ch=2 n=47 v=106
443280 On ch=2 n=47 v=106
443440 Off ch=2 n=47 v=106
443520 On ch=2 n=47 v=106
449730 On ch=2 n=33 v=127
449760 Off ch=2 n=47 v=106
449760 Off ch=2 n=35 v=106
449770 Off ch=2 n=33 v=127
449790 On ch=2 n=35 v=106
454560 Off ch=2 n=35 v=106
454560 On ch=2 n=28 v=106
457440 Off ch=2 n=28 v=106
457440 On ch=2 n=28 v=106
457840 Off ch=2 n=28 v=106
457920 On ch=2 n=32 v=106
458320 Off ch=2 n=32 v=106
458400 On ch=2 n=35 v=106
458800 Off ch=2 n=35 v=106
458880 On ch=2 n=32 v=106
459280 Off ch=2 n=32 v=106
459360 On ch=2 n=28 v=106
459680 Off ch=2 n=28 v=106
459840 On ch=2 n=35 v=106
460240 Off ch=2 n=35 v=106
460320 On ch=2 n=33 v=106
460720 Off ch=2 n=33 v=106
460800 On ch=2 n=37 v=106
461200 Off ch=2 n=37 v=106
461280 On ch=2 n=40 v=106
461680 Off ch=2 n=40 v=106
461760 On ch=2 n=45 v=106
461920 Off ch=2 n=45 v=106
462000 On ch=2 n=49 v=106
462200 Off ch=2 n=49 v=106
462230 Pb ch=2 v=8192
462240 On ch=2 n=52 v=106
462290 Pb ch=2 v=8198
462330 Pb ch=2 v=8205
462370 Pb ch=2 v=8212
462390 Pb ch=2 v=8219
462410 Pb ch=2 v=8226
462430 Pb ch=2 v=8239
462440 Off ch=2 n=52 v=106
462450 Pb ch=2 v=8328
462470 Pb ch=2 v=8192
462480 On ch=2 n=57 v=106
462550 Pb ch=2 v=8198
462590 Pb ch=2 v=8205
462630 Pb ch=2 v=8212
462650 Pb ch=2 v=8219
462670 Pb ch=2 v=8226
462690 Pb ch=2 v=8287
462710 Pb ch=2 v=8287
462790 Pb ch=2 v=8280
462830 Pb ch=2 v=8273
462870 Pb ch=2 v=8267
462880 Off ch=2 n=57 v=106
462890 Pb ch=2 v=8260
462910 Pb ch=2 v=8253
462930 Pb ch=2 v=8192
462950 Pb ch=2 v=8192
462960 On ch=2 n=57 v=106
463120 Off ch=2 n=57 v=106
463200 On ch=2 n=52 v=106
463400 Off ch=2 n=52 v=106
463440 On ch=2 n=49 v=106
463640 Off ch=2 n=49 v=106
463680 On ch=2 n=52 v=106
463880 Off ch=2 n=52 v=106
463920 On ch=2 n=49 v=106
464120 Off ch=2 n=49 v=106
464160 On ch=2 n=47 v=106
464360 Off ch=2 n=47 v=106
464410 On ch=2 n=45 v=106
464610 Off ch=2 n=45 v=106
464630 Pb ch=2 v=8192
464640 On ch=2 n=40 v=106
464730 Pb ch=2 v=8185
464770 Pb ch=2 v=8178
464810 Pb ch=2 v=8171
464830 Pb ch=2 v=8164
464850 Pb ch=2 v=8116
464870 Pb ch=2 v=8116
464970 Pb ch=2 v=8123
465010 Pb ch=2 v=8130
465040 Off ch=2 n=40 v=106
465050 Pb ch=2 v=8137
465070 Pb ch=2 v=8144
465090 Pb ch=2 v=8192
465110 Pb ch=2 v=8192
465120 On ch=2 n=35 v=106
465520 Off ch=2 n=35 v=106
465600 On ch=2 n=32 v=106
466000 Off ch=2 n=32 v=106
466070 Pb ch=2 v=8192
466080 On ch=2 n=28 v=106
466150 Pb ch=2 v=8185
466190 Pb ch=2 v=8178
466230 Pb ch=2 v=8171
466250 Pb ch=2 v=8164
466270 Pb ch=2 v=8157
466290 Pb ch=2 v=8096
466310 Pb ch=2 v=8096
466390 Pb ch=2 v=8103
466430 Pb ch=2 v=8110
466470 Pb ch=2 v=8116
466490 Pb ch=2 v=8123
466510 Pb ch=2 v=8130
466530 Pb ch=2 v=8192
466550 Pb ch=2 v=8192
467520 Off ch=2 n=28 v=106
468230 Pb ch=2 v=8192
468240 On ch=2 n=30 v=106
468310 Pb ch=2 v=8198
468370 Pb ch=2 v=8205
468410 Pb ch=2 v=8212
468430 Pb ch=2 v=8219
468450 Pb ch=2 v=8273
468470 Pb ch=2 v=8273
468550 Pb ch=2 v=8267
468610 Pb ch=2 v=8260
468650 Pb ch=2 v=8253
468670 Pb ch=2 v=8246
468690 Pb ch=2 v=8192
468710 Pb ch=2 v=8192
468840 Off ch=2 n=30 v=106
468960 On ch=2 n=32 v=106
469560 Off ch=2 n=32 v=106
469680 On ch=2 n=35 v=106
470280 Off ch=2 n=35 v=106
470400 On ch=2 n=37 v=106
471000 Off ch=2 n=37 v=106
471110 Pb ch=2 v=8192
471120 On ch=2 n=39 v=106
471190 Pb ch=2 v=8198
471250 Pb ch=2 v=8205
471270 Pb ch=2 v=8212
471310 Pb ch=2 v=8219
471330 Pb ch=2 v=8280
471350 Pb ch=2 v=8192
471360 Off ch=2 n=39 v=106
471480 On ch=2 n=39 v=106
471590 Pb ch=2 v=8192
471720 Off ch=2 n=39 v=106
471840 On ch=2 n=39 v=106
472000 Off ch=2 n=39 v=106
472320 On ch=2 n=39 v=106
472400 Off ch=2 n=39 v=106
472440 On ch=2 n=39 v=106
472520 Off ch=2 n=39 v=106
472560 On ch=2 n=39 v=106
472640 Off ch=2 n=39 v=106
472680 On ch=2 n=39 v=106
472760 Off ch=2 n=39 v=106
472800 On ch=2 n=39 v=106
472880 Off ch=2 n=39 v=106
472920 On ch=2 n=39 v=106
473000 Off ch=2 n=39 v=106
473040 On ch=2 n=39 v=106
473200 Off ch=2 n=39 v=106
473520 On ch=2 n=39 v=106
473600 Off ch=2 n=39 v=106
473640 On ch=2 n=39 v=106
473720 Off ch=2 n=39 v=106
473760 On ch=2 n=39 v=106
473840 Off ch=2 n=39 v=106
473880 On ch=2 n=39 v=106
473960 Off ch=2 n=39 v=106
474000 On ch=2 n=39 v=106
474080 Off ch=2 n=39 v=106
474120 On ch=2 n=39 v=106
474200 Off ch=2 n=39 v=106
474240 On ch=2 n=39 v=106
474400 Off ch=2 n=39 v=106
474720 On ch=2 n=39 v=106
474800 Off ch=2 n=39 v=106
474840 On ch=2 n=39 v=106
474920 Off ch=2 n=39 v=106
474960 On ch=2 n=39 v=106
475040 Off ch=2 n=39 v=106
475080 On ch=2 n=39 v=106
475160 Off ch=2 n=39 v=106
475200 On ch=2 n=39 v=106
475280 Off ch=2 n=39 v=106
475320 On ch=2 n=39 v=106
475400 Off ch=2 n=39 v=106
475440 On ch=2 n=39 v=106
475600 Off ch=2 n=39 v=106
475920 On ch=2 n=39 v=106
476000 Off ch=2 n=39 v=106
476040 On ch=2 n=39 v=106
476120 Off ch=2 n=39 v=106
476160 On ch=2 n=39 v=106
476240 Off ch=2 n=39 v=106
476280 On ch=2 n=39 v=106
476360 Off ch=2 n=39 v=106
476400 On ch=2 n=39 v=106
476480 Off ch=2 n=39 v=106
476520 On ch=2 n=39 v=106
476600 Off ch=2 n=39 v=106
476640 On ch=2 n=39 v=106
476800 Off ch=2 n=39 v=106
477120 On ch=2 n=39 v=106
477200 Off ch=2 n=39 v=106
477240 On ch=2 n=39 v=106
477320 Off ch=2 n=39 v=106
477360 On ch=2 n=39 v=106
477440 Off ch=2 n=39 v=106
477480 On ch=2 n=39 v=106
477560 Off ch=2 n=39 v=106
477600 On ch=2 n=39 v=106
477680 Off ch=2 n=39 v=106
477720 On ch=2 n=39 v=106
477800 Off ch=2 n=39 v=106
477840 On ch=2 n=39 v=106
478000 Off ch=2 n=39 v=106
478320 On ch=2 n=39 v=106
478400 Off ch=2 n=39 v=106
478440 On ch=2 n=39 v=106
478520 Off ch=2 n=39 v=106
478560 On ch=2 n=39 v=106
478640 Off ch=2 n=39 v=106
478680 On ch=2 n=39 v=106
478760 Off ch=2 n=39 v=106
478800 On ch=2 n=39 v=106
478880 Off ch=2 n=39 v=106
478920 On ch=2 n=39 v=106
479000 Off ch=2 n=39 v=106
479040 On ch=2 n=39 v=106
479200 Off ch=2 n=39 v=106
479520 On ch=2 n=39 v=106
479600 Off ch=2 n=39 v=106
479640 On ch=2 n=39 v=106
479720 Off ch=2 n=39 v=106
479760 On ch=2 n=39 v=106
479840 Off ch=2 n=39 v=106
479880 On ch=2 n=39 v=106
479960 Off ch=2 n=39 v=106
480000 On ch=2 n=39 v=106
480080 Off ch=2 n=39 v=106
480120 On ch=2 n=39 v=106
480200 Off ch=2 n=39 v=106
480240 On ch=2 n=39 v=106
480480 Off ch=2 n=39 v=106
480720 Pb ch=2 v=6827
480720 On ch=2 n=32 v=120
480840 Pb ch=2 v=8192
480950 Off ch=2 n=32 v=120
480960 On ch=2 n=32 v=120
481070 Off ch=2 n=32 v=120
481080 On ch=2 n=32 v=120
481190 Off ch=2 n=32 v=120
481200 On ch=2 n=32 v=120
481310 Off ch=2 n=32 v=120
481320 On ch=2 n=32 v=120
481430 Off ch=2 n=32 v=120
481440 Pb ch=2 v=6827
481440 On ch=2 n=32 v=120
481560 Pb ch=2 v=8192
481670 Off ch=2 n=32 v=120
481680 On ch=2 n=32 v=120
481790 Off ch=2 n=32 v=120
481800 On ch=2 n=32 v=120
481910 Off ch=2 n=32 v=120
481920 On ch=2 n=32 v=120
482030 Off ch=2 n=32 v=120
482040 On ch=2 n=32 v=120
482150 Off ch=2 n=32 v=120
482160 On ch=2 n=35 v=120
482390 Off ch=2 n=35 v=120
482400 On ch=2 n=36 v=120
482630 Off ch=2 n=36 v=120
482640 On ch=2 n=37 v=120
482870 Off ch=2 n=37 v=120
482880 On ch=2 n=38 v=120
483110 Off ch=2 n=38 v=120
483120 On ch=2 n=39 v=120
483350 Off ch=2 n=39 v=120
483360 On ch=2 n=42 v=120
483590 Off ch=2 n=42 v=120
483600 Pb ch=2 v=6827
483600 On ch=2 n=44 v=120
483720 Pb ch=2 v=8192
483830 Off ch=2 n=44 v=120
483840 On ch=2 n=44 v=120
483950 Off ch=2 n=44 v=120
483960 On ch=2 n=44 v=120
484070 Off ch=2 n=44 v=120
484080 On ch=2 n=44 v=120
484190 Off ch=2 n=44 v=120
484200 On ch=2 n=44 v=120
484310 Off ch=2 n=44 v=120
484320 Pb ch=2 v=6827
484320 On ch=2 n=44 v=120
484440 Pb ch=2 v=8192
484550 Off ch=2 n=44 v=120
484560 On ch=2 n=44 v=120
484670 Off ch=2 n=44 v=120
484680 On ch=2 n=44 v=120
484790 Off ch=2 n=44 v=120
484800 On ch=2 n=44 v=120
484910 Off ch=2 n=44 v=120
484920 On ch=2 n=42 v=120
485030 Off ch=2 n=42 v=120
485040 On ch=2 n=39 v=120
485270 Off ch=2 n=39 v=120
485280 On ch=2 n=38 v=120
485510 Off ch=2 n=38 v=120
485520 On ch=2 n=37 v=120
485750 Off ch=2 n=37 v=120
485760 On ch=2 n=36 v=120
485990 Off ch=2 n=36 v=120
486000 On ch=2 n=35 v=120
486230 Off ch=2 n=35 v=120
486240 On ch=2 n=32 v=120
486470 Off ch=2 n=32 v=120
486480 Pb ch=2 v=6827
486480 On ch=2 n=32 v=120
486600 Pb ch=2 v=8192
486710 Off ch=2 n=32 v=120
486720 On ch=2 n=32 v=120
486830 Off ch=2 n=32 v=120
486840 On ch=2 n=32 v=120
486950 Off ch=2 n=32 v=120
486960 On ch=2 n=32 v=120
487070 Off ch=2 n=32 v=120
487080 On ch=2 n=32 v=120
487190 Off ch=2 n=32 v=120
487200 Pb ch=2 v=6827
487200 On ch=2 n=32 v=120
487320 Pb ch=2 v=8192
487430 Off ch=2 n=32 v=120
487440 On ch=2 n=32 v=120
487550 Off ch=2 n=32 v=120
487560 On ch=2 n=32 v=120
487670 Off ch=2 n=32 v=120
487680 On ch=2 n=32 v=120
487790 Off ch=2 n=32 v=120
487800 On ch=2 n=32 v=120
487910 Off ch=2 n=32 v=120
487920 On ch=2 n=35 v=120
488150 Off ch=2 n=35 v=120
488160 On ch=2 n=36 v=120
488390 Off ch=2 n=36 v=120
488400 On ch=2 n=37 v=120
488630 Off ch=2 n=37 v=120
488640 On ch=2 n=38 v=120
488870 Off ch=2 n=38 v=120
488880 On ch=2 n=39 v=120
489110 Off ch=2 n=39 v=120
489120 On ch=2 n=42 v=120
489350 Off ch=2 n=42 v=120
489360 Pb ch=2 v=6827
489360 On ch=2 n=44 v=120
489480 Pb ch=2 v=8192
489590 Off ch=2 n=44 v=120
489600 On ch=2 n=44 v=120
489710 Off ch=2 n=44 v=120
489720 On ch=2 n=44 v=120
489830 Off ch=2 n=44 v=120
489840 On ch=2 n=44 v=120
489950 Off ch=2 n=44 v=120
489960 On ch=2 n=44 v=120
490070 Off ch=2 n=44 v=120
490080 Pb ch=2 v=6827
490080 On ch=2 n=44 v=120
490200 Pb ch=2 v=8192
490310 Off ch=2 n=44 v=120
490320 On ch=2 n=44 v=120
490430 Off ch=2 n=44 v=120
490440 On ch=2 n=44 v=120
490550 Off ch=2 n=44 v=120
490560 On ch=2 n=44 v=120
490670 Off ch=2 n=44 v=120
490680 On ch=2 n=44 v=120
490790 Off ch=2 n=44 v=120
490800 On ch=2 n=47 v=120
491030 Off ch=2 n=47 v=120
491040 On ch=2 n=48 v=120
491270 Off ch=2 n=48 v=120
491280 On ch=2 n=49 v=120
491510 Off ch=2 n=49 v=120
491520 On ch=2 n=50 v=120
491750 Off ch=2 n=50 v=120
491760 On ch=2 n=51 v=120
491990 Off ch=2 n=51 v=120
492000 On ch=2 n=54 v=120
492230 Off ch=2 n=54 v=120
492240 On ch=2 n=39 v=106
492310 Pb ch=2 v=8198
492370 Pb ch=2 v=8205
492390 Pb ch=2 v=8212
492430 Pb ch=2 v=8219
492450 Pb ch=2 v=8280
492470 Pb ch=2 v=8192
492480 Off ch=2 n=39 v=106
492600 On ch=2 n=39 v=106
492710 Pb ch=2 v=8192
492840 Off ch=2 n=39 v=106
492960 On ch=2 n=39 v=106
493120 Off ch=2 n=39 v=106
493440 On ch=2 n=39 v=106
493520 Off ch=2 n=39 v=106
493560 On ch=2 n=39 v=106
493640 Off ch=2 n=39 v=106
493680 On ch=2 n=39 v=106
493760 Off ch=2 n=39 v=106
493800 On ch=2 n=39 v=106
493880 Off ch=2 n=39 v=106
493920 On ch=2 n=39 v=106
494000 Off ch=2 n=39 v=106
494040 On ch=2 n=39 v=106
494120 Off ch=2 n=39 v=106
494160 On ch=2 n=39 v=106
494320 Off ch=2 n=39 v=106
494640 On ch=2 n=39 v=106
494720 Off ch=2 n=39 v=106
494760 On ch=2 n=39 v=106
494840 Off ch=2 n=39 v=106
494880 On ch=2 n=39 v=106
494960 Off ch=2 n=39 v=106
495000 On ch=2 n=39 v=106
495080 Off ch=2 n=39 v=106
495120 On ch=2 n=39 v=106
495200 Off ch=2 n=39 v=106
495240 On ch=2 n=39 v=106
495320 Off ch=2 n=39 v=106
495360 On ch=2 n=39 v=106
495520 Off ch=2 n=39 v=106
495840 On ch=2 n=39 v=106
495920 Off ch=2 n=39 v=106
495960 On ch=2 n=39 v=106
496040 Off ch=2 n=39 v=106
496080 On ch=2 n=39 v=106
496160 Off ch=2 n=39 v=106
496200 On ch=2 n=39 v=106
496280 Off ch=2 n=39 v=106
496320 On ch=2 n=39 v=106
496400 Off ch=2 n=39 v=106
496440 On ch=2 n=39 v=106
496520 Off ch=2 n=39 v=106
496560 On ch=2 n=39 v=106
496720 Off ch=2 n=39 v=106
497040 On ch=2 n=39 v=106
497120 Off ch=2 n=39 v=106
497160 On ch=2 n=39 v=106
497240 Off ch=2 n=39 v=106
497280 On ch=2 n=39 v=106
497360 Off ch=2 n=39 v=106
497400 On ch=2 n=39 v=106
497480 Off ch=2 n=39 v=106
497520 On ch=2 n=39 v=106
497600 Off ch=2 n=39 v=106
497640 On ch=2 n=39 v=106
497720 Off ch=2 n=39 v=106
497760 On ch=2 n=39 v=106
497920 Off ch=2 n=39 v=106
498240 On ch=2 n=39 v=106
498320 Off ch=2 n=39 v=106
498360 On ch=2 n=39 v=106
498440 Off ch=2 n=39 v=106
498480 On ch=2 n=39 v=106
498560 Off ch=2 n=39 v=106
498600 On ch=2 n=39 v=106
498680 Off ch=2 n=39 v=106
498720 On ch=2 n=39 v=106
498800 Off ch=2 n=39 v=106
498840 On ch=2 n=39 v=106
498920 Off ch=2 n=39 v=106
498960 On ch=2 n=39 v=106
499120 Off ch=2 n=39 v=106
499440 On ch=2 n=39 v=106
499520 Off ch=2 n=39 v=106
499560 On ch=2 n=39 v=106
499640 Off ch=2 n=39 v=106
499680 On ch=2 n=39 v=106
499760 Off ch=2 n=39 v=106
499800 On ch=2 n=39 v=106
499880 Off ch=2 n=39 v=106
499920 On ch=2 n=39 v=106
500000 Off ch=2 n=39 v=106
500040 On ch=2 n=39 v=106
500120 Off ch=2 n=39 v=106
500160 On ch=2 n=39 v=106
500320 Off ch=2 n=39 v=106
500640 On ch=2 n=39 v=106
500720 Off ch=2 n=39 v=106
500760 On ch=2 n=39 v=106
500840 Off ch=2 n=39 v=106
500880 On ch=2 n=39 v=106
500960 Off ch=2 n=39 v=106
501000 On ch=2 n=39 v=106
501080 Off ch=2 n=39 v=106
501120 On ch=2 n=39 v=106
501200 Off ch=2 n=39 v=106
501240 On ch=2 n=39 v=106
501320 Off ch=2 n=39 v=106
501360 On ch=2 n=39 v=106
501600 Off ch=2 n=39 v=106
501840 Pb ch=2 v=6827
501840 On ch=2 n=32 v=120
501960 Pb ch=2 v=8192
502070 Off ch=2 n=32 v=120
502080 On ch=2 n=32 v=120
502190 Off ch=2 n=32 v=120
502200 On ch=2 n=32 v=120
502310 Off ch=2 n=32 v=120
502320 On ch=2 n=32 v=120
502430 Off ch=2 n=32 v=120
502440 On ch=2 n=32 v=120
502550 Off ch=2 n=32 v=120
502560 Pb ch=2 v=6827
502560 On ch=2 n=32 v=120
502680 Pb ch=2 v=8192
502790 Off ch=2 n=32 v=120
502800 On ch=2 n=32 v=120
502910 Off ch=2 n=32 v=120
502920 On ch=2 n=32 v=120
503030 Off ch=2 n=32 v=120
503040 On ch=2 n=32 v=120
503150 Off ch=2 n=32 v=120
503160 On ch=2 n=32 v=120
503270 Off ch=2 n=32 v=120
503280 On ch=2 n=35 v=120
503510 Off ch=2 n=35 v=120
503520 On ch=2 n=36 v=120
503750 Off ch=2 n=36 v=120
503760 On ch=2 n=37 v=120
503990 Off ch=2 n=37 v=120
504000 On ch=2 n=38 v=120
504230 Off ch=2 n=38 v=120
504240 On ch=2 n=39 v=120
504470 Off ch=2 n=39 v=120
504480 On ch=2 n=42 v=120
504710 Off ch=2 n=42 v=120
504720 Pb ch=2 v=6827
504720 On ch=2 n=44 v=120
504840 Pb ch=2 v=8192
504950 Off ch=2 n=44 v=120
504960 On ch=2 n=44 v=120
505070 Off ch=2 n=44 v=120
505080 On ch=2 n=44 v=120
505190 Off ch=2 n=44 v=120
505200 On ch=2 n=44 v=120
505310 Off ch=2 n=44 v=120
505320 On ch=2 n=44 v=120
505430 Off ch=2 n=44 v=120
505440 Pb ch=2 v=6827
505440 On ch=2 n=44 v=120
505560 Pb ch=2 v=8192
505670 Off ch=2 n=44 v=120
505680 On ch=2 n=44 v=120
505790 Off ch=2 n=44 v=120
505800 On ch=2 n=44 v=120
505910 Off ch=2 n=44 v=120
505920 On ch=2 n=44 v=120
506030 Off ch=2 n=44 v=120
506040 On ch=2 n=42 v=120
506150 Off ch=2 n=42 v=120
506160 On ch=2 n=39 v=120
506390 Off ch=2 n=39 v=120
506400 On ch=2 n=38 v=120
506630 Off ch=2 n=38 v=120
506640 On ch=2 n=37 v=120
506870 Off ch=2 n=37 v=120
506880 On ch=2 n=36 v=120
507110 Off ch=2 n=36 v=120
507120 On ch=2 n=35 v=120
507350 Off ch=2 n=35 v=120
507360 On ch=2 n=32 v=120
507590 Off ch=2 n=32 v=120
507600 Pb ch=2 v=6827
507600 On ch=2 n=32 v=120
507720 Pb ch=2 v=8192
507830 Off ch=2 n=32 v=120
507840 On ch=2 n=32 v=120
507950 Off ch=2 n=32 v=120
507960 On ch=2 n=32 v=120
508070 Off ch=2 n=32 v=120
508080 On ch=2 n=32 v=120
508190 Off ch=2 n=32 v=120
508200 On ch=2 n=32 v=120
508310 Off ch=2 n=32 v=120
508320 Pb ch=2 v=6827
508320 On ch=2 n=32 v=120
508440 Pb ch=2 v=8192
508550 Off ch=2 n=32 v=120
508560 On ch=2 n=32 v=120
508670 Off ch=2 n=32 v=120
508680 On ch=2 n=32 v=120
508790 Off ch=2 n=32 v=120
508800 On ch=2 n=32 v=120
508910 Off ch=2 n=32 v=120
508920 On ch=2 n=32 v=120
509030 Off ch=2 n=32 v=120
509040 On ch=2 n=35 v=120
509270 Off ch=2 n=35 v=120
509280 On ch=2 n=36 v=120
509510 Off ch=2 n=36 v=120
509520 On ch=2 n=37 v=120
509750 Off ch=2 n=37 v=120
509760 On ch=2 n=38 v=120
509990 Off ch=2 n=38 v=120
510000 On ch=2 n=39 v=120
510230 Off ch=2 n=39 v=120
510240 On ch=2 n=42 v=120
510470 Off ch=2 n=42 v=120
510480 Pb ch=2 v=6827
510480 On ch=2 n=44 v=120
510600 Pb ch=2 v=8192
510710 Off ch=2 n=44 v=120
510720 On ch=2 n=44 v=120
510830 Off ch=2 n=44 v=120
510840 On ch=2 n=44 v=120
510950 Off ch=2 n=44 v=120
510960 On ch=2 n=44 v=120
511070 Off ch=2 n=44 v=120
511080 On ch=2 n=44 v=120
511190 Off ch=2 n=44 v=120
511200 Pb ch=2 v=6827
511200 On ch=2 n=44 v=120
511320 Pb ch=2 v=8192
511430 Off ch=2 n=44 v=120
511440 On ch=2 n=44 v=120
511550 Off ch=2 n=44 v=120
511560 On ch=2 n=44 v=120
511670 Off ch=2 n=44 v=120
511680 On ch=2 n=44 v=120
511790 Off ch=2 n=44 v=120
511800 On ch=2 n=44 v=120
511910 Off ch=2 n=44 v=120
511920 On ch=2 n=47 v=120
512150 Off ch=2 n=47 v=120
512160 On ch=2 n=48 v=120
512390 Off ch=2 n=48 v=120
512400 On ch=2 n=49 v=120
512630 Off ch=2 n=49 v=120
512640 On ch=2 n=50 v=120
512870 Off ch=2 n=50 v=120
512880 On ch=2 n=51 v=120
513110 Off ch=2 n=51 v=120
513120 On ch=2 n=54 v=120
513350 Off ch=2 n=54 v=120
513360 On ch=2 n=39 v=111
513440 Off ch=2 n=39 v=111
513480 On ch=2 n=39 v=111
513560 Off ch=2 n=39 v=111
513600 On ch=2 n=39 v=111
513680 Off ch=2 n=39 v=111
513720 On ch=2 n=46 v=111
513800 Off ch=2 n=46 v=111
513840 On ch=2 n=46 v=111
513920 Off ch=2 n=46 v=111
513960 On ch=2 n=46 v=111
514040 Off ch=2 n=46 v=111
514080 On ch=2 n=39 v=111
514320 Off ch=2 n=39 v=111
514560 On ch=2 n=39 v=111
514640 Off ch=2 n=39 v=111
514680 On ch=2 n=39 v=111
514760 Off ch=2 n=39 v=111
514800 On ch=2 n=39 v=111
514880 Off ch=2 n=39 v=111
514920 On ch=2 n=46 v=111
515000 Off ch=2 n=46 v=111
515040 On ch=2 n=46 v=111
515120 Off ch=2 n=46 v=111
515160 On ch=2 n=46 v=111
515240 Off ch=2 n=46 v=111
515280 On ch=2 n=39 v=111
515520 Off ch=2 n=39 v=111
515760 On ch=2 n=39 v=111
515840 Off ch=2 n=39 v=111
515880 On ch=2 n=39 v=111
515960 Off ch=2 n=39 v=111
516000 On ch=2 n=39 v=111
516080 Off ch=2 n=39 v=111
516120 On ch=2 n=46 v=111
516200 Off ch=2 n=46 v=111
516240 On ch=2 n=46 v=111
516320 Off ch=2 n=46 v=111
516360 On ch=2 n=46 v=111
516440 Off ch=2 n=46 v=111
516480 On ch=2 n=39 v=111
516720 Off ch=2 n=39 v=111
516960 On ch=2 n=39 v=111
517040 Off ch=2 n=39 v=111
517080 On ch=2 n=39 v=111
517160 Off ch=2 n=39 v=111
517200 On ch=2 n=39 v=111
517280 Off ch=2 n=39 v=111
517320 On ch=2 n=46 v=111
517400 Off ch=2 n=46 v=111
517440 On ch=2 n=46 v=111
517520 Off ch=2 n=46 v=111
517560 On ch=2 n=46 v=111
517640 Off ch=2 n=46 v=111
517680 On ch=2 n=39 v=111
517920 Off ch=2 n=39 v=111
518160 Pb ch=2 v=6827
518160 On ch=2 n=56 v=120
518280 Pb ch=2 v=8192
518390 Off ch=2 n=56 v=120
518400 On ch=2 n=56 v=120
518510 Off ch=2 n=56 v=120
518520 On ch=2 n=56 v=120
518630 Off ch=2 n=56 v=120
518640 On ch=2 n=56 v=120
518750 Off ch=2 n=56 v=120
518760 On ch=2 n=56 v=120
518870 Off ch=2 n=56 v=120
518880 Pb ch=2 v=6827
518880 On ch=2 n=56 v=120
519000 Pb ch=2 v=8192
519110 Off ch=2 n=56 v=120
519120 On ch=2 n=56 v=120
519230 Off ch=2 n=56 v=120
519240 On ch=2 n=56 v=120
519350 Off ch=2 n=56 v=120
519360 On ch=2 n=56 v=120
519470 Off ch=2 n=56 v=120
519480 On ch=2 n=54 v=120
519590 Off ch=2 n=54 v=120
519600 On ch=2 n=51 v=120
519830 Off ch=2 n=51 v=120
519840 On ch=2 n=50 v=120
520070 Off ch=2 n=50 v=120
520080 On ch=2 n=49 v=120
520310 Off ch=2 n=49 v=120
520320 On ch=2 n=48 v=120
520550 Off ch=2 n=48 v=120
520560 On ch=2 n=47 v=120
520790 Off ch=2 n=47 v=120
520800 On ch=2 n=44 v=120
521030 Off ch=2 n=44 v=120
521040 Pb ch=2 v=6827
521040 On ch=2 n=44 v=120
521160 Pb ch=2 v=8192
521270 Off ch=2 n=44 v=120
521280 On ch=2 n=44 v=120
521390 Off ch=2 n=44 v=120
521400 On ch=2 n=44 v=120
521510 Off ch=2 n=44 v=120
521520 On ch=2 n=44 v=120
521630 Off ch=2 n=44 v=120
521640 On ch=2 n=44 v=120
521750 Off ch=2 n=44 v=120
521760 Pb ch=2 v=6827
521760 On ch=2 n=44 v=120
521880 Pb ch=2 v=8192
521990 Off ch=2 n=44 v=120
522000 On ch=2 n=44 v=120
522110 Off ch=2 n=44 v=120
522120 On ch=2 n=44 v=120
522230 Off ch=2 n=44 v=120
522240 On ch=2 n=44 v=120
522350 Off ch=2 n=44 v=120
522360 On ch=2 n=44 v=120
522470 Off ch=2 n=44 v=120
522480 On ch=2 n=47 v=120
522710 Off ch=2 n=47 v=120
522720 On ch=2 n=48 v=120
522950 Off ch=2 n=48 v=120
522960 On ch=2 n=49 v=120
523190 Off ch=2 n=49 v=120
523200 On ch=2 n=50 v=120
523430 Off ch=2 n=50 v=120
523440 On ch=2 n=51 v=120
523670 Off ch=2 n=51 v=120
523680 On ch=2 n=54 v=120
523910 Off ch=2 n=54 v=120
523920 On ch=2 n=39 v=111
524010 Off ch=2 n=39 v=111
524040 On ch=2 n=39 v=111
524130 Off ch=2 n=39 v=111
524160 On ch=2 n=39 v=111
524250 Off ch=2 n=39 v=111
524280 On ch=2 n=46 v=111
524370 Off ch=2 n=46 v=111
524400 On ch=2 n=46 v=111
524490 Off ch=2 n=46 v=111
524520 On ch=2 n=46 v=111
524610 Off ch=2 n=46 v=111
524640 On ch=2 n=39 v=116
524860 Off ch=2 n=39 v=116
525120 On ch=2 n=39 v=111
525210 Off ch=2 n=39 v=111
525240 On ch=2 n=39 v=111
525330 Off ch=2 n=39 v=111
525360 On ch=2 n=39 v=111
525450 Off ch=2 n=39 v=111
525480 On ch=2 n=46 v=111
525570 Off ch=2 n=46 v=111
525600 On ch=2 n=46 v=111
525690 Off ch=2 n=46 v=111
525720 On ch=2 n=46 v=111
525810 Off ch=2 n=46 v=111
525840 On ch=2 n=39 v=116
526060 Off ch=2 n=39 v=116
526320 On ch=2 n=39 v=111
526410 Off ch=2 n=39 v=111
526440 On ch=2 n=39 v=111
526530 Off ch=2 n=39 v=111
526560 On ch=2 n=39 v=111
526650 Off ch=2 n=39 v=111
526680 On ch=2 n=46 v=111
526770 Off ch=2 n=46 v=111
526800 On ch=2 n=46 v=111
526890 Off ch=2 n=46 v=111
526920 On ch=2 n=46 v=111
527010 Off ch=2 n=46 v=111
527040 On ch=2 n=39 v=116
527260 Off ch=2 n=39 v=116
527520 On ch=2 n=39 v=111
527610 Off ch=2 n=39 v=111
527640 On ch=2 n=39 v=111
527730 Off ch=2 n=39 v=111
527760 On ch=2 n=39 v=111
527850 Off ch=2 n=39 v=111
527880 On ch=2 n=46 v=111
527970 Off ch=2 n=46 v=111
528000 On ch=2 n=46 v=111
528090 Off ch=2 n=46 v=111
528120 On ch=2 n=46 v=111
528210 Off ch=2 n=46 v=111
528240 On ch=2 n=39 v=116
528460 Off ch=2 n=39 v=116
528720 Pb ch=2 v=6827
528720 On ch=2 n=44 v=120
528840 Pb ch=2 v=8192
528950 Off ch=2 n=44 v=120
528960 On ch=2 n=44 v=120
529070 Off ch=2 n=44 v=120
529080 On ch=2 n=44 v=120
529190 Off ch=2 n=44 v=120
529200 On ch=2 n=44 v=120
529310 Off ch=2 n=44 v=120
529320 On ch=2 n=44 v=120
529430 Off ch=2 n=44 v=120
529440 Pb ch=2 v=6827
529440 On ch=2 n=44 v=120
529560 Pb ch=2 v=8192
529670 Off ch=2 n=44 v=120
529680 On ch=2 n=44 v=120
529790 Off ch=2 n=44 v=120
529800 On ch=2 n=44 v=120
529910 Off ch=2 n=44 v=120
529920 On ch=2 n=44 v=120
530030 Off ch=2 n=44 v=120
530040 On ch=2 n=44 v=120
530150 Off ch=2 n=44 v=120
530160 On ch=2 n=47 v=120
530390 Off ch=2 n=47 v=120
530400 On ch=2 n=48 v=120
530630 Off ch=2 n=48 v=120
530640 On ch=2 n=49 v=120
530870 Off ch=2 n=49 v=120
530880 On ch=2 n=50 v=120
531110 Off ch=2 n=50 v=120
531120 On ch=2 n=51 v=120
531350 Off ch=2 n=51 v=120
531360 On ch=2 n=54 v=120
531590 Off ch=2 n=54 v=120
531600 Pb ch=2 v=6827
531600 On ch=2 n=44 v=120
531720 Pb ch=2 v=8192
531830 Off ch=2 n=44 v=120
531840 On ch=2 n=44 v=120
531950 Off ch=2 n=44 v=120
531960 On ch=2 n=44 v=120
532070 Off ch=2 n=44 v=120
532080 On ch=2 n=44 v=120
532190 Off ch=2 n=44 v=120
532200 On ch=2 n=44 v=120
532310 Off ch=2 n=44 v=120
532320 Pb ch=2 v=6827
532320 On ch=2 n=44 v=120
532440 Pb ch=2 v=8192
532550 Off ch=2 n=44 v=120
532560 On ch=2 n=44 v=120
532670 Off ch=2 n=44 v=120
532680 On ch=2 n=44 v=120
532790 Off ch=2 n=44 v=120
532800 On ch=2 n=44 v=120
532910 Off ch=2 n=44 v=120
532920 On ch=2 n=42 v=120
533030 Off ch=2 n=42 v=120
533040 On ch=2 n=39 v=120
533270 Off ch=2 n=39 v=120
533280 On ch=2 n=38 v=120
533510 Off ch=2 n=38 v=120
533520 On ch=2 n=37 v=120
533750 Off ch=2 n=37 v=120
533760 On ch=2 n=36 v=120
533990 Off ch=2 n=36 v=120
534000 On ch=2 n=35 v=120
534230 Off ch=2 n=35 v=120
534240 On ch=2 n=34 v=120
534470 Off ch=2 n=34 v=120
534960 On ch=2 n=42 v=111
535160 Off ch=2 n=42 v=111
535680 On ch=2 n=40 v=111
535880 Off ch=2 n=40 v=111
536400 On ch=2 n=39 v=111
536600 Off ch=2 n=39 v=111
537120 On ch=2 n=37 v=111
537320 Off ch=2 n=37 v=111
537840 On ch=2 n=35 v=111
538040 Off ch=2 n=35 v=111
538560 On ch=2 n=33 v=111
538760 Off ch=2 n=33 v=111
538800 On ch=2 n=47 v=111
539140 Off ch=2 n=47 v=111
539760 On ch=2 n=42 v=111
539960 Off ch=2 n=42 v=111
540480 On ch=2 n=40 v=111
540680 Off ch=2 n=40 v=111
541200 On ch=2 n=39 v=111
541400 Off ch=2 n=39 v=111
541920 On ch=2 n=37 v=111
542120 Off ch=2 n=37 v=111
542640 On ch=2 n=35 v=111
542840 Off ch=2 n=35 v=111
543360 On ch=2 n=33 v=111
543560 Off ch=2 n=33 v=111
543600 On ch=2 n=47 v=111
543940 Off ch=2 n=47 v=111
544560 On ch=2 n=42 v=111
544760 Off ch=2 n=42 v=111
545280 On ch=2 n=40 v=111
545480 Off ch=2 n=40 v=111
546000 On ch=2 n=39 v=111
546200 Off ch=2 n=39 v=111
546720 On ch=2 n=37 v=111
546920 Off ch=2 n=37 v=111
547440 On ch=2 n=35 v=111
547640 Off ch=2 n=35 v=111
548160 On ch=2 n=33 v=111
548360 Off ch=2 n=33 v=111
548400 On ch=2 n=47 v=111
548740 Off ch=2 n=47 v=111
549360 On ch=2 n=42 v=111
549560 Off ch=2 n=42 v=111
550080 On ch=2 n=40 v=111
550280 Off ch=2 n=40 v=111
550800 On ch=2 n=39 v=111
551000 Off ch=2 n=39 v=111
551520 On ch=2 n=37 v=111
551720 Off ch=2 n=37 v=111
552240 On ch=2 n=35 v=111
552440 Off ch=2 n=35 v=111
552960 On ch=2 n=33 v=111
553160 Off ch=2 n=33 v=111
553200 On ch=2 n=47 v=111
553540 Off ch=2 n=47 v=111
553680 On ch=2 n=42 v=111
554360 Off ch=2 n=42 v=111
554390 On ch=2 n=41 v=111
555020 Off ch=2 n=41 v=111
555120 On ch=2 n=39 v=111
555840 Off ch=2 n=39 v=111
555840 On ch=2 n=37 v=108
556530 Off ch=2 n=37 v=108
556560 On ch=2 n=36 v=107
557020 Off ch=2 n=36 v=107
557040 On ch=2 n=34 v=110
557470 Off ch=2 n=34 v=110
557520 On ch=2 n=39 v=109
557990 Off ch=2 n=39 v=109
558000 On ch=2 n=42 v=109
558720 Off ch=2 n=42 v=109
558720 On ch=2 n=41 v=107
559390 Off ch=2 n=41 v=107
559440 On ch=2 n=39 v=102
560150 Off ch=2 n=39 v=102
560160 On ch=2 n=37 v=108
560850 Off ch=2 n=37 v=108
560880 On ch=2 n=36 v=105
561360 Off ch=2 n=36 v=105
561360 On ch=2 n=34 v=109
561410 Pb ch=2 v=8192
561450 Pb ch=2 v=8198
561470 Pb ch=2 v=8212
561490 Pb ch=2 v=8219
561510 Pb ch=2 v=8226
561530 Pb ch=2 v=8246
561550 Pb ch=2 v=8260
561570 Pb ch=2 v=8273
561590 Pb ch=2 v=8287
561610 Pb ch=2 v=8301
561630 Pb ch=2 v=8321
561650 Pb ch=2 v=8342
561670 Pb ch=2 v=8362
561690 Pb ch=2 v=8383
561710 Pb ch=2 v=8410
561730 Pb ch=2 v=8458
561750 Pb ch=2 v=8499
561770 Pb ch=2 v=8547
561790 Pb ch=2 v=8615
561790 Off ch=2 n=34 v=109
561810 Pb ch=2 v=9011
561830 Pb ch=2 v=9011
561830 Pb ch=2 v=9557
561830 Pb ch=2 v=8192
561840 On ch=2 n=39 v=110
562270 Off ch=2 n=39 v=110
562320 On ch=2 n=39 v=110
562730 Off ch=2 n=39 v=110
563280 On ch=2 n=51 v=110
563970 Off ch=2 n=51 v=110
563990 On ch=2 n=46 v=111
564200 Off ch=2 n=46 v=111
564240 On ch=2 n=49 v=111
564450 Off ch=2 n=49 v=111
564480 On ch=2 n=51 v=111
564690 Off ch=2 n=51 v=111
564720 On ch=2 n=54 v=110
564950 Pb ch=2 v=8192
564970 Pb ch=2 v=8178
564990 Pb ch=2 v=8164
565010 Pb ch=2 v=8130
565030 Pb ch=2 v=8116
565050 Pb ch=2 v=8103
565070 Pb ch=2 v=8069
565090 Pb ch=2 v=8055
565110 Pb ch=2 v=8021
565130 Pb ch=2 v=7993
565150 Pb ch=2 v=7959
565170 Pb ch=2 v=7932
565190 Pb ch=2 v=7898
565210 Pb ch=2 v=7870
565230 Pb ch=2 v=7823
565250 Pb ch=2 v=7775
565270 Pb ch=2 v=7727
565290 Pb ch=2 v=7666
565310 Pb ch=2 v=7604
565330 Pb ch=2 v=7543
565350 Pb ch=2 v=7448
565370 Pb ch=2 v=7325
565390 Pb ch=2 v=7168
565410 Pb ch=2 v=6212
565430 Pb ch=2 v=6212
565430 Pb ch=2 v=6144
565430 Pb ch=2 v=8192
565560 Off ch=2 n=54 v=110
565680 On ch=2 n=46 v=105
566250 Off ch=2 n=46 v=105
566400 On ch=2 n=34 v=111
567810 Off ch=2 n=34 v=111
567840 On ch=2 n=41 v=111
568050 Off ch=2 n=41 v=111
568080 On ch=2 n=44 v=111
568290 Off ch=2 n=44 v=111
568320 On ch=2 n=46 v=111
568530 Off ch=2 n=46 v=111
568560 On ch=2 n=30 v=111
569420 Off ch=2 n=30 v=111
569520 On ch=2 n=42 v=111
570170 Off ch=2 n=42 v=111
570240 On ch=2 n=42 v=111
570460 Off ch=2 n=42 v=111
570480 On ch=2 n=44 v=111
570680 Off ch=2 n=44 v=111
570720 On ch=2 n=44 v=111
570920 Off ch=2 n=44 v=111
570960 On ch=2 n=32 v=111
571640 Off ch=2 n=32 v=111
571680 On ch=2 n=32 v=111
571880 Off ch=2 n=32 v=111
571920 On ch=2 n=44 v=111
572350 Off ch=2 n=44 v=111
572400 On ch=2 n=42 v=111
573020 Off ch=2 n=42 v=111
573120 On ch=2 n=41 v=111
573740 Off ch=2 n=41 v=111
573840 On ch=2 n=39 v=111
574460 Off ch=2 n=39 v=111
574560 On ch=2 n=37 v=111
575180 Off ch=2 n=37 v=111
575280 On ch=2 n=36 v=111
575690 Off ch=2 n=36 v=111
575760 On ch=2 n=34 v=111
576170 Off ch=2 n=34 v=111
576240 On ch=2 n=39 v=111
576650 Off ch=2 n=39 v=111
576720 On ch=2 n=42 v=107
577320 Off ch=2 n=42 v=107
577440 On ch=2 n=41 v=106
578060 Off ch=2 n=41 v=106
578160 On ch=2 n=39 v=109
578830 Off ch=2 n=39 v=109
578880 On ch=2 n=37 v=113
579510 Off ch=2 n=37 v=113
579600 On ch=2 n=36 v=107
580000 Off ch=2 n=36 v=107
580080 On ch=2 n=34 v=111
580190 Pb ch=2 v=8192
580210 Pb ch=2 v=8205
580230 Pb ch=2 v=8219
580250 Pb ch=2 v=8267
580270 Pb ch=2 v=8287
580290 Pb ch=2 v=8314
580310 Pb ch=2 v=8362
580330 Pb ch=2 v=8396
580350 Pb ch=2 v=8465
580370 Pb ch=2 v=8492
580390 Pb ch=2 v=8526
580410 Pb ch=2 v=8622
580430 Pb ch=2 v=8670
580450 Pb ch=2 v=8799
580470 Pb ch=2 v=8868
580490 Pb ch=2 v=8963
580510 Pb ch=2 v=9250
580510 Off ch=2 n=34 v=111
580530 Pb ch=2 v=10240
580550 Pb ch=2 v=10240
580550 Pb ch=2 v=10923
580550 Pb ch=2 v=8192
580560 On ch=2 n=39 v=111
580760 Off ch=2 n=39 v=111
580800 On ch=2 n=51 v=111
581000 Off ch=2 n=51 v=111
581040 On ch=2 n=39 v=111
581470 Off ch=2 n=39 v=111
582000 On ch=2 n=51 v=111
582680 Off ch=2 n=51 v=111
582720 On ch=2 n=46 v=106
582920 Off ch=2 n=46 v=106
582960 On ch=2 n=49 v=111
583150 Off ch=2 n=49 v=111
583200 On ch=2 n=51 v=108
583400 Off ch=2 n=51 v=108
583440 On ch=2 n=54 v=111
584310 Off ch=2 n=54 v=111
584390 Pb ch=2 v=8192
584400 On ch=2 n=46 v=106
584410 Pb ch=2 v=8164
584430 Pb ch=2 v=8130
584470 Pb ch=2 v=8069
584490 Pb ch=2 v=8034
584530 Pb ch=2 v=8000
584550 Pb ch=2 v=7966
584570 Pb ch=2 v=7939
584590 Pb ch=2 v=7905
584610 Pb ch=2 v=7870
584630 Pb ch=2 v=7843
584650 Pb ch=2 v=7775
584670 Pb ch=2 v=7741
584690 Pb ch=2 v=7713
584710 Pb ch=2 v=7645
584730 Pb ch=2 v=7611
584750 Pb ch=2 v=7584
584770 Pb ch=2 v=7515
584790 Pb ch=2 v=7455
584810 Pb ch=2 v=7421
584830 Pb ch=2 v=7325
584850 Pb ch=2 v=7257
584870 Pb ch=2 v=7229
584890 Pb ch=2 v=7100
584910 Pb ch=2 v=7031
584930 Pb ch=2 v=6970
584950 Pb ch=2 v=6840
584970 Pb ch=2 v=6745
584990 Pb ch=2 v=6649
585000 Off ch=2 n=46 v=106
585010 Pb ch=2 v=6389
585030 Pb ch=2 v=6225
585050 Pb ch=2 v=6068
585070 Pb ch=2 v=5549
585090 Pb ch=2 v=4096
585110 Pb ch=2 v=4096
585110 Pb ch=2 v=4096
585110 Pb ch=2 v=8192
585120 On ch=2 n=34 v=115
586520 Off ch=2 n=34 v=115
586560 On ch=2 n=41 v=111
586760 Off ch=2 n=41 v=111
586800 On ch=2 n=44 v=111
587000 Off ch=2 n=44 v=111
587040 On ch=2 n=46 v=111
587240 Off ch=2 n=46 v=111
587280 On ch=2 n=30 v=111
587880 Off ch=2 n=30 v=111
588000 On ch=2 n=30 v=109
588200 Off ch=2 n=30 v=109
588240 On ch=2 n=42 v=111
588830 Off ch=2 n=42 v=111
588960 On ch=2 n=43 v=107
589150 Off ch=2 n=43 v=107
589210 On ch=2 n=44 v=111
589310 Pb ch=2 v=8192
589330 Pb ch=2 v=8151
589350 Pb ch=2 v=8110
589370 Pb ch=2 v=7980
589390 Pb ch=2 v=7939
589410 Pb ch=2 v=7850
589430 Pb ch=2 v=7720
589450 Pb ch=2 v=7638
589470 Pb ch=2 v=7462
589490 Pb ch=2 v=7380
589510 Pb ch=2 v=7291
589530 Pb ch=2 v=7031
589550 Pb ch=2 v=6908
589570 Pb ch=2 v=6560
589590 Pb ch=2 v=6389
589590 Off ch=2 n=44 v=111
589610 Pb ch=2 v=6130
589630 Pb ch=2 v=5359
589650 Pb ch=2 v=2731
589670 Pb ch=2 v=0
589670 Pb ch=2 v=8192
589680 On ch=2 n=32 v=109
590350 Off ch=2 n=32 v=109
590400 On ch=2 n=32 v=105
590580 Off ch=2 n=32 v=105
590640 On ch=2 n=44 v=111
591020 Off ch=2 n=44 v=111
591120 On ch=2 n=42 v=111
591700 Off ch=2 n=42 v=111
591840 On ch=2 n=41 v=111
592420 Off ch=2 n=41 v=111
592560 On ch=2 n=39 v=109
593210 Off ch=2 n=39 v=109
593280 On ch=2 n=37 v=110
593860 Off ch=2 n=37 v=110
594000 On ch=2 n=36 v=111
594380 Off ch=2 n=36 v=111
594480 On ch=2 n=34 v=111
594870 Off ch=2 n=34 v=111
594960 On ch=2 n=39 v=111
595320 Off ch=2 n=39 v=111
595440 On ch=2 n=42 v=111
596020 Off ch=2 n=42 v=111
596160 On ch=2 n=41 v=111
596740 Off ch=2 n=41 v=111
596880 On ch=2 n=39 v=109
597530 Off ch=2 n=39 v=109
597600 On ch=2 n=37 v=110
598180 Off ch=2 n=37 v=110
598320 On ch=2 n=36 v=111
598700 Off ch=2 n=36 v=111
598800 On ch=2 n=34 v=111
599190 Off ch=2 n=34 v=111
599280 On ch=2 n=39 v=111
599640 Off ch=2 n=39 v=111
600240 On ch=2 n=30 v=100
600470 Off ch=2 n=30 v=100
600960 On ch=2 n=28 v=100
601190 Off ch=2 n=28 v=100
601680 On ch=2 n=39 v=100
601910 Off ch=2 n=39 v=100
602400 On ch=2 n=37 v=100
602630 Off ch=2 n=37 v=100
603120 On ch=2 n=35 v=100
603440 Off ch=2 n=35 v=100
603840 On ch=2 n=33 v=100
604070 Off ch=2 n=33 v=100
604080 On ch=2 n=47 v=100
604310 Off ch=2 n=47 v=100
608880 On ch=2 n=42 v=111
609583 Off ch=2 n=42 v=111
609600 On ch=2 n=41 v=111
610301 Off ch=2 n=41 v=111
610320 On ch=2 n=39 v=108
611036 Off ch=2 n=39 v=108
611040 On ch=2 n=37 v=108
611729 Off ch=2 n=37 v=108
611760 On ch=2 n=36 v=114
612226 Off ch=2 n=36 v=114
612244 On ch=2 n=44 v=111
612854 Off ch=2 n=44 v=111
612960 On ch=2 n=39 v=105
612960 On ch=2 n=51 v=105
613520 Off ch=2 n=39 v=105
613520 Off ch=2 n=51 v=105
613684 On ch=2 n=37 v=107
613684 On ch=2 n=49 v=107
614124 Off ch=2 n=37 v=107
614124 Off ch=2 n=49 v=107
614400 On ch=2 n=35 v=109
614400 On ch=2 n=47 v=109
614880 Off ch=2 n=35 v=109
614880 Off ch=2 n=47 v=109
615120 On ch=2 n=34 v=109
615120 On ch=2 n=46 v=109
615611 Off ch=2 n=34 v=109
615611 Off ch=2 n=46 v=109
616320 On ch=2 n=32 v=108
616555 Off ch=2 n=32 v=108
621360 On ch=2 n=42 v=108
622066 Off ch=2 n=42 v=108
622080 On ch=2 n=41 v=109
622794 Off ch=2 n=41 v=109
622800 On ch=2 n=39 v=109
623514 Off ch=2 n=39 v=109
623520 On ch=2 n=37 v=109
624226 Off ch=2 n=37 v=109
624240 On ch=2 n=36 v=111
624716 Off ch=2 n=36 v=111
624720 On ch=2 n=34 v=109
625193 Off ch=2 n=34 v=109
625200 KeySig 1 major
625200 Pb ch=2 v=6827
625200 On ch=2 n=39 v=120
625320 Pb ch=2 v=8192
625430 Off ch=2 n=39 v=120
625440 On ch=2 n=39 v=120
625550 Off ch=2 n=39 v=120
625560 On ch=2 n=39 v=120
625670 Off ch=2 n=39 v=120
625680 On ch=2 n=39 v=120
625790 Off ch=2 n=39 v=120
625800 On ch=2 n=39 v=120
625910 Off ch=2 n=39 v=120
625920 Pb ch=2 v=6827
625920 On ch=2 n=39 v=120
626040 Pb ch=2 v=8192
626150 Off ch=2 n=39 v=120
626160 On ch=2 n=39 v=120
626270 Off ch=2 n=39 v=120
626280 On ch=2 n=39 v=120
626390 Off ch=2 n=39 v=120
626400 On ch=2 n=39 v=120
626510 Off ch=2 n=39 v=120
626520 On ch=2 n=39 v=120
626630 Off ch=2 n=39 v=120
626640 On ch=2 n=42 v=120
626870 Off ch=2 n=42 v=120
626880 On ch=2 n=43 v=120
627110 Off ch=2 n=43 v=120
627120 On ch=2 n=44 v=120
627350 Off ch=2 n=44 v=120
627360 On ch=2 n=45 v=120
627590 Off ch=2 n=45 v=120
627600 On ch=2 n=46 v=120
627830 Off ch=2 n=46 v=120
627840 On ch=2 n=49 v=120
628070 Off ch=2 n=49 v=120
628080 Pb ch=2 v=6827
628080 On ch=2 n=51 v=120
628200 Pb ch=2 v=8192
628310 Off ch=2 n=51 v=120
628320 On ch=2 n=51 v=120
628430 Off ch=2 n=51 v=120
628440 On ch=2 n=51 v=120
628550 Off ch=2 n=51 v=120
628560 On ch=2 n=51 v=120
628670 Off ch=2 n=51 v=120
628680 On ch=2 n=51 v=120
628790 Off ch=2 n=51 v=120
628800 Pb ch=2 v=6827
628800 On ch=2 n=51 v=120
628920 Pb ch=2 v=8192
629030 Off ch=2 n=51 v=120
629040 On ch=2 n=51 v=120
629150 Off ch=2 n=51 v=120
629160 On ch=2 n=51 v=120
629270 Off ch=2 n=51 v=120
629280 On ch=2 n=51 v=120
629390 Off ch=2 n=51 v=120
629400 On ch=2 n=49 v=120
629510 Off ch=2 n=49 v=120
629520 On ch=2 n=46 v=120
629750 Off ch=2 n=46 v=120
629760 On ch=2 n=45 v=120
629990 Off ch=2 n=45 v=120
630000 On ch=2 n=44 v=120
630230 Off ch=2 n=44 v=120
630240 On ch=2 n=43 v=120
630470 Off ch=2 n=43 v=120
630480 On ch=2 n=42 v=120
630710 Off ch=2 n=42 v=120
630720 On ch=2 n=39 v=120
630950 Off ch=2 n=39 v=120
630960 KeySig 0 major
630960 On ch=2 n=42 v=111
631330 Off ch=2 n=42 v=111
631440 On ch=2 n=42 v=111
631630 Off ch=2 n=42 v=111
631680 On ch=2 n=41 v=111
632050 Off ch=2 n=41 v=111
632160 On ch=2 n=41 v=111
632350 Off ch=2 n=41 v=111
632400 On ch=2 n=39 v=111
632770 Off ch=2 n=39 v=111
632880 On ch=2 n=39 v=111
633070 Off ch=2 n=39 v=111
633120 On ch=2 n=37 v=111
633490 Off ch=2 n=37 v=111
633600 On ch=2 n=37 v=111
633790 Off ch=2 n=37 v=111
633840 On ch=2 n=35 v=79
634220 Off ch=2 n=35 v=79
634320 On ch=2 n=34 v=111
634700 Off ch=2 n=34 v=111
634800 On ch=2 n=39 v=111
635180 Off ch=2 n=39 v=111
635280 On ch=2 n=42 v=111
635650 Off ch=2 n=42 v=111
635760 On ch=2 n=42 v=111
635950 Off ch=2 n=42 v=111
636000 On ch=2 n=41 v=111
636370 Off ch=2 n=41 v=111
636480 On ch=2 n=41 v=111
636670 Off ch=2 n=41 v=111
636720 On ch=2 n=39 v=111
637090 Off ch=2 n=39 v=111
637200 On ch=2 n=39 v=111
637390 Off ch=2 n=39 v=111
637440 On ch=2 n=37 v=111
637810 Off ch=2 n=37 v=111
637920 On ch=2 n=37 v=111
638110 Off ch=2 n=37 v=111
638180 On ch=2 n=35 v=79
638560 Off ch=2 n=35 v=79
638640 On ch=2 n=46 v=111
639020 Off ch=2 n=46 v=111
639120 On ch=2 n=39 v=111
639500 Off ch=2 n=39 v=111
639600 On ch=2 n=42 v=111
640160 Off ch=2 n=42 v=111
640320 On ch=2 n=44 v=111
640690 Off ch=2 n=44 v=111
640800 On ch=2 n=44 v=111
640990 Off ch=2 n=44 v=111
641040 On ch=2 n=46 v=111
641410 Off ch=2 n=46 v=111
641520 On ch=2 n=46 v=111
641710 Off ch=2 n=46 v=111
641760 On ch=2 n=49 v=111
642130 Off ch=2 n=49 v=111
642240 On ch=2 n=49 v=111
642430 Off ch=2 n=49 v=111
642480 On ch=2 n=51 v=111
642850 Off ch=2 n=51 v=111
642960 On ch=2 n=53 v=111
643330 Off ch=2 n=53 v=111
643440 On ch=2 n=28 v=106
643490 Pb ch=2 v=8185
643530 Pb ch=2 v=8178
643570 Pb ch=2 v=8171
643590 Pb ch=2 v=8164
643610 Pb ch=2 v=8157
643630 Pb ch=2 v=8151
643650 Pb ch=2 v=8075
643670 Pb ch=2 v=8075
643730 Pb ch=2 v=8082
643770 Pb ch=2 v=8089
643810 Pb ch=2 v=8096
643830 Pb ch=2 v=8103
643850 Pb ch=2 v=8110
643870 Pb ch=2 v=8116
643890 Pb ch=2 v=8192
643910 Pb ch=2 v=8192
643920 On ch=2 n=47 v=106
644120 Off ch=2 n=47 v=106
644160 On ch=2 n=47 v=106
644320 Off ch=2 n=47 v=106
644400 On ch=2 n=47 v=106
650640 Off ch=2 n=28 v=106
650640 Off ch=2 n=47 v=106
650640 On ch=2 n=40 v=111
651000 Off ch=2 n=40 v=111
651110 On ch=2 n=47 v=108
651490 Off ch=2 n=47 v=108
651600 On ch=2 n=43 v=111
651920 Off ch=2 n=43 v=111
652080 On ch=2 n=40 v=111
652410 Off ch=2 n=40 v=111
652560 On ch=2 n=43 v=111
652940 Off ch=2 n=43 v=111
653070 On ch=2 n=35 v=111
653470 Off ch=2 n=35 v=111
653520 On ch=2 n=36 v=111
653890 Off ch=2 n=36 v=111
654000 On ch=2 n=38 v=116
654370 Off ch=2 n=38 v=116
654480 On ch=2 n=40 v=108
654890 Off ch=2 n=40 v=108
654960 On ch=2 n=43 v=111
655390 Off ch=2 n=43 v=111
655440 On ch=2 n=45 v=111
655810 Off ch=2 n=45 v=111
655920 On ch=2 n=47 v=111
656290 Off ch=2 n=47 v=111
656400 On ch=2 n=45 v=111
656490 Off ch=2 n=45 v=111
656510 On ch=2 n=47 v=106
656580 Off ch=2 n=47 v=106
656640 On ch=2 n=45 v=116
656840 Off ch=2 n=45 v=116
656880 On ch=2 n=42 v=121
658490 Off ch=2 n=42 v=121
658570 On ch=2 n=42 v=111
658760 Off ch=2 n=42 v=111
658800 On ch=2 n=43 v=111
659000 Off ch=2 n=43 v=111
659040 On ch=2 n=45 v=111
659240 Off ch=2 n=45 v=111
659280 On ch=2 n=43 v=111
659370 Off ch=2 n=43 v=111
659400 On ch=2 n=45 v=111
659510 On ch=2 n=43 v=111
659520 Off ch=2 n=45 v=111
659710 Off ch=2 n=43 v=111
659760 On ch=2 n=40 v=111
660720 Off ch=2 n=40 v=111
660720 On ch=2 n=40 v=111
661120 Off ch=2 n=40 v=111
661210 On ch=2 n=43 v=111
661570 Off ch=2 n=43 v=111
661680 On ch=2 n=47 v=111
662080 Off ch=2 n=47 v=111
662160 On ch=2 n=55 v=101
662350 Off ch=2 n=55 v=101
662380 On ch=2 n=54 v=111
662580 Off ch=2 n=54 v=111
662640 On ch=2 n=50 v=111
664200 Off ch=2 n=50 v=111
664320 On ch=2 n=45 v=115
664980 Off ch=2 n=45 v=115
665040 On ch=2 n=38 v=111
667830 Off ch=2 n=38 v=111
667920 On ch=2 n=40 v=111
668350 Off ch=2 n=40 v=111
668400 On ch=2 n=35 v=106
668810 Off ch=2 n=35 v=106
668880 On ch=2 n=31 v=111
669310 Off ch=2 n=31 v=111
669360 On ch=2 n=28 v=111
670640 Off ch=2 n=28 v=111
670800 On ch=2 n=36 v=111
671220 Off ch=2 n=36 v=111
671280 On ch=2 n=38 v=111
671700 Off ch=2 n=38 v=111
671760 On ch=2 n=40 v=111
672180 Off ch=2 n=40 v=111
672240 On ch=2 n=43 v=111
673080 Off ch=2 n=43 v=111
673170 On ch=2 n=45 v=111
673210 On ch=2 n=47 v=111
673250 Off ch=2 n=45 v=111
673630 Off ch=2 n=47 v=111
673680 On ch=2 n=45 v=109
673780 Off ch=2 n=45 v=109
673810 On ch=2 n=47 v=111
673910 Off ch=2 n=47 v=111
673920 On ch=2 n=45 v=111
674130 Off ch=2 n=45 v=111
674160 On ch=2 n=42 v=111
675750 Off ch=2 n=42 v=111
675840 On ch=2 n=42 v=111
676050 Off ch=2 n=42 v=111
676070 On ch=2 n=43 v=102
676280 Off ch=2 n=43 v=102
676320 On ch=2 n=45 v=111
676530 Off ch=2 n=45 v=111
676550 On ch=2 n=43 v=114
676650 Off ch=2 n=43 v=114
676680 On ch=2 n=45 v=111
676780 Off ch=2 n=45 v=111
676800 On ch=2 n=43 v=111
677010 Off ch=2 n=43 v=111
677040 On ch=2 n=40 v=111
677950 Off ch=2 n=40 v=111
678000 On ch=2 n=40 v=111
678420 Off ch=2 n=40 v=111
678480 On ch=2 n=43 v=106
678880 Off ch=2 n=43 v=106
678960 On ch=2 n=47 v=111
679380 Off ch=2 n=47 v=111
679440 On ch=2 n=55 v=101
679630 Off ch=2 n=55 v=101
679660 On ch=2 n=54 v=111
679860 Off ch=2 n=54 v=111
679920 On ch=2 n=50 v=111
681480 Off ch=2 n=50 v=111
681570 On ch=2 n=43 v=111
681610 On ch=2 n=45 v=115
681610 Off ch=2 n=43 v=111
682270 Off ch=2 n=45 v=115
682330 On ch=2 n=38 v=115
685080 Off ch=2 n=38 v=115
686640 On ch=2 n=28 v=115
688050 Off ch=2 n=28 v=115
689520 On ch=2 n=33 v=112
690860 Off ch=2 n=33 v=112
690960 On ch=2 n=33 v=114
692270 Off ch=2 n=33 v=114
692400 On ch=2 n=33 v=111
693810 Off ch=2 n=33 v=111
693840 On ch=2 n=33 v=115
694040 Off ch=2 n=33 v=115
694080 On ch=2 n=33 v=100
694260 Off ch=2 n=33 v=100
694320 On ch=2 n=33 v=111
694540 Off ch=2 n=33 v=111
694560 On ch=2 n=33 v=95
694780 Off ch=2 n=33 v=95
694800 On ch=2 n=33 v=111
695000 Off ch=2 n=33 v=111
695040 On ch=2 n=33 v=116
695270 Off ch=2 n=33 v=116
695280 On ch=2 n=33 v=111
695500 Off ch=2 n=33 v=111
695520 On ch=2 n=33 v=98
695720 Off ch=2 n=33 v=98
695760 On ch=2 n=33 v=113
695970 Off ch=2 n=33 v=113
695990 On ch=2 n=33 v=111
696200 Off ch=2 n=33 v=111
696240 On ch=2 n=33 v=104
696460 Off ch=2 n=33 v=104
696480 On ch=2 n=33 v=115
696710 Off ch=2 n=33 v=115
696720 On ch=2 n=33 v=115
696920 Off ch=2 n=33 v=115
696960 On ch=2 n=33 v=100
697140 Off ch=2 n=33 v=100
697200 On ch=2 n=33 v=111
697420 Off ch=2 n=33 v=111
697440 On ch=2 n=33 v=95
697660 Off ch=2 n=33 v=95
697680 On ch=2 n=33 v=111
697880 Off ch=2 n=33 v=111
697920 On ch=2 n=33 v=116
698150 Off ch=2 n=33 v=116
698160 On ch=2 n=33 v=111
698380 Off ch=2 n=33 v=111
698400 On ch=2 n=33 v=98
698600 Off ch=2 n=33 v=98
698640 On ch=2 n=33 v=113
698850 Off ch=2 n=33 v=113
698870 On ch=2 n=33 v=111
699080 Off ch=2 n=33 v=111
699120 On ch=2 n=33 v=104
699340 Off ch=2 n=33 v=104
699360 On ch=2 n=33 v=115
699590 Off ch=2 n=33 v=115
699600 On ch=2 n=33 v=115
699800 Off ch=2 n=33 v=115
699840 On ch=2 n=33 v=100
700020 Off ch=2 n=33 v=100
700080 On ch=2 n=33 v=111
700300 Off ch=2 n=33 v=111
700320 On ch=2 n=33 v=95
700540 Off ch=2 n=33 v=95
700560 On ch=2 n=33 v=111
700760 Off ch=2 n=33 v=111
700800 On ch=2 n=33 v=116
701030 Off ch=2 n=33 v=116
701040 On ch=2 n=33 v=111
701260 Off ch=2 n=33 v=111
701280 On ch=2 n=33 v=98
701480 Off ch=2 n=33 v=98
701520 On ch=2 n=33 v=113
701730 Off ch=2 n=33 v=113
701750 On ch=2 n=33 v=111
701960 Off ch=2 n=33 v=111
702000 On ch=2 n=33 v=104
702220 Off ch=2 n=33 v=104
702240 On ch=2 n=33 v=115
702470 Off ch=2 n=33 v=115
702480 On ch=2 n=31 v=111
703400 Off ch=2 n=31 v=111
703440 On ch=2 n=43 v=118
703820 Off ch=2 n=43 v=118
703920 On ch=2 n=30 v=111
704840 Off ch=2 n=30 v=111
704890 On ch=2 n=42 v=116
705300 Off ch=2 n=42 v=116
705360 On ch=2 n=34 v=106
705410 Pb ch=2 v=8185
705450 Pb ch=2 v=8178
705490 Pb ch=2 v=8171
705510 Pb ch=2 v=8164
705530 Pb ch=2 v=8157
705550 Pb ch=2 v=8151
705570 Pb ch=2 v=8075
705590 Pb ch=2 v=8075
705650 Pb ch=2 v=8082
705690 Pb ch=2 v=8089
705730 Pb ch=2 v=8096
705750 Pb ch=2 v=8103
705770 Pb ch=2 v=8110
705790 Pb ch=2 v=8116
705810 Pb ch=2 v=8192
705830 Pb ch=2 v=8192
705840 On ch=2 n=41 v=106
706040 Off ch=2 n=41 v=106
706080 On ch=2 n=41 v=106
706240 Off ch=2 n=41 v=106
706320 On ch=2 n=41 v=106
706800 Off ch=2 n=41 v=106
706800 On ch=2 n=46 v=106
712560 Off ch=2 n=34 v=106
712560 Off ch=2 n=46 v=106
712560 KeySig 2 major
712560 Pb ch=2 v=6827
712560 On ch=2 n=46 v=120
712680 Pb ch=2 v=8192
712790 Off ch=2 n=46 v=120
712800 On ch=2 n=46 v=120
712910 Off ch=2 n=46 v=120
712920 On ch=2 n=46 v=120
713030 Off ch=2 n=46 v=120
713040 On ch=2 n=46 v=120
713150 Off ch=2 n=46 v=120
713160 On ch=2 n=46 v=120
713270 Off ch=2 n=46 v=120
713280 Pb ch=2 v=6827
713280 On ch=2 n=46 v=120
713400 Pb ch=2 v=8192
713510 Off ch=2 n=46 v=120
713520 On ch=2 n=46 v=120
713630 Off ch=2 n=46 v=120
713640 On ch=2 n=46 v=120
713750 Off ch=2 n=46 v=120
713760 On ch=2 n=46 v=120
713870 Off ch=2 n=46 v=120
713880 On ch=2 n=44 v=120
713990 Off ch=2 n=44 v=120
714000 On ch=2 n=41 v=120
714230 Off ch=2 n=41 v=120
714240 On ch=2 n=40 v=120
714470 Off ch=2 n=40 v=120
714480 On ch=2 n=39 v=120
714710 Off ch=2 n=39 v=120
714720 On ch=2 n=38 v=120
714950 Off ch=2 n=38 v=120
714960 On ch=2 n=37 v=120
715190 Off ch=2 n=37 v=120
715200 On ch=2 n=34 v=120
715430 Off ch=2 n=34 v=120
715440 Pb ch=2 v=6827
715440 On ch=2 n=34 v=120
715560 Pb ch=2 v=8192
715670 Off ch=2 n=34 v=120
715680 On ch=2 n=34 v=120
715790 Off ch=2 n=34 v=120
715800 On ch=2 n=34 v=120
715910 Off ch=2 n=34 v=120
715920 On ch=2 n=34 v=120
716030 Off ch=2 n=34 v=120
716040 On ch=2 n=34 v=120
716150 Off ch=2 n=34 v=120
716160 Pb ch=2 v=6827
716160 On ch=2 n=34 v=120
716280 Pb ch=2 v=8192
716390 Off ch=2 n=34 v=120
716400 On ch=2 n=34 v=120
716510 Off ch=2 n=34 v=120
716520 On ch=2 n=34 v=120
716630 Off ch=2 n=34 v=120
716640 On ch=2 n=34 v=120
716750 Off ch=2 n=34 v=120
716760 On ch=2 n=34 v=120
716870 Off ch=2 n=34 v=120
716880 On ch=2 n=37 v=120
717110 Off ch=2 n=37 v=120
717120 On ch=2 n=38 v=120
717350 Off ch=2 n=38 v=120
717360 On ch=2 n=39 v=120
717590 Off ch=2 n=39 v=120
717600 On ch=2 n=40 v=120
717830 Off ch=2 n=40 v=120
717840 On ch=2 n=41 v=120
718070 Off ch=2 n=41 v=120
718080 On ch=2 n=44 v=120
718310 Off ch=2 n=44 v=120
718320 KeySig 4 major
718320 Pb ch=2 v=6827
718320 On ch=2 n=46 v=120
718440 Pb ch=2 v=8192
718550 Off ch=2 n=46 v=120
718560 On ch=2 n=46 v=120
718670 Off ch=2 n=46 v=120
718680 On ch=2 n=46 v=120
718790 Off ch=2 n=46 v=120
718800 On ch=2 n=46 v=120
718910 Off ch=2 n=46 v=120
718920 On ch=2 n=46 v=120
719030 Off ch=2 n=46 v=120
719040 Pb ch=2 v=6827
719040 On ch=2 n=46 v=120
719160 Pb ch=2 v=8192
719270 Off ch=2 n=46 v=120
719280 On ch=2 n=46 v=120
719390 Off ch=2 n=46 v=120
719400 On ch=2 n=46 v=120
719510 Off ch=2 n=46 v=120
719520 On ch=2 n=46 v=120
719630 Off ch=2 n=46 v=120
719640 On ch=2 n=46 v=120
719750 Off ch=2 n=46 v=120
719760 On ch=2 n=49 v=120
719990 Off ch=2 n=49 v=120
720000 On ch=2 n=50 v=120
720230 Off ch=2 n=50 v=120
720240 On ch=2 n=51 v=120
720470 Off ch=2 n=51 v=120
720480 On ch=2 n=52 v=120
720710 Off ch=2 n=52 v=120
720720 On ch=2 n=53 v=120
720950 Off ch=2 n=53 v=120
720960 On ch=2 n=56 v=120
721190 Off ch=2 n=56 v=120
721200 Pb ch=2 v=6827
721320 Pb ch=2 v=8192
721920 Pb ch=2 v=6827
722040 Pb ch=2 v=8192
722160 Meta TrkEnd
TrkEnd
MTrk
0 Meta TrkName "Distortion Gt"
0 Meta 0x20 02
0 Meta InstrName "Distortion Gt"
0 KeySig 0 major
325 Par ch=3 c=0 v=0
330 Par ch=3 c=32 v=0
335 PrCh ch=3 p=30
340 Par ch=3 c=7 v=100
345 Par ch=3 c=10 v=64
350 Par ch=3 c=91 v=40
355 Par ch=3 c=93 v=0
360 Par ch=3 c=101 v=0
360 Par ch=3 c=100 v=0
360 Par ch=3 c=6 v=12
365 Par ch=3 c=99 v=1
365 Par ch=3 c=98 v=8
365 Par ch=3 c=6 v=64
370 Par ch=3 c=99 v=1
370 Par ch=3 c=98 v=9
370 Par ch=3 c=6 v=64
375 Par ch=3 c=99 v=1
375 Par ch=3 c=98 v=10
375 Par ch=3 c=6 v=64
380 Par ch=3 c=99 v=1
380 Par ch=3 c=98 v=32
380 Par ch=3 c=6 v=64
385 Par ch=3 c=99 v=1
385 Par ch=3 c=98 v=33
385 Par ch=3 c=6 v=64
390 Par ch=3 c=99 v=1
390 Par ch=3 c=98 v=99
390 Par ch=3 c=6 v=64
395 Par ch=3 c=99 v=1
395 Par ch=3 c=98 v=100
395 Par ch=3 c=6 v=64
400 Par ch=3 c=99 v=1
400 Par ch=3 c=98 v=102
400 Par ch=3 c=6 v=64
1920 Pb ch=3 v=6827
1920 On ch=3 n=44 v=120
2040 Pb ch=3 v=8192
2150 Off ch=3 n=44 v=120
2160 On ch=3 n=44 v=120
2270 Off ch=3 n=44 v=120
2280 On ch=3 n=44 v=120
2390 Off ch=3 n=44 v=120
2400 On ch=3 n=44 v=120
2510 Off ch=3 n=44 v=120
2520 On ch=3 n=44 v=120
2630 Off ch=3 n=44 v=120
2640 Pb ch=3 v=6827
2640 On ch=3 n=44 v=120
2760 Pb ch=3 v=8192
2870 Off ch=3 n=44 v=120
2880 On ch=3 n=44 v=120
2990 Off ch=3 n=44 v=120
3000 On ch=3 n=44 v=120
3110 Off ch=3 n=44 v=120
3120 On ch=3 n=44 v=120
3230 Off ch=3 n=44 v=120
3240 On ch=3 n=44 v=120
3350 Off ch=3 n=44 v=120
3360 On ch=3 n=47 v=120
3590 Off ch=3 n=47 v=120
3600 On ch=3 n=48 v=120
3830 Off ch=3 n=48 v=120
3840 On ch=3 n=49 v=120
4070 Off ch=3 n=49 v=120
4080 On ch=3 n=50 v=120
4310 Off ch=3 n=50 v=120
4320 On ch=3 n=51 v=120
4550 Off ch=3 n=51 v=120
4560 On ch=3 n=54 v=120
4800 Off ch=3 n=54 v=120
8400 Pb ch=3 v=6827
8400 On ch=3 n=44 v=120
8520 Pb ch=3 v=8192
8630 Off ch=3 n=44 v=120
8640 On ch=3 n=44 v=120
8750 Off ch=3 n=44 v=120
8760 On ch=3 n=44 v=120
8870 Off ch=3 n=44 v=120
8880 On ch=3 n=44 v=120
8990 Off ch=3 n=44 v=120
9000 On ch=3 n=44 v=120
9110 Off ch=3 n=44 v=120
9120 Pb ch=3 v=6827
9120 On ch=3 n=44 v=120
9240 Pb ch=3 v=8192
9350 Off ch=3 n=44 v=120
9360 On ch=3 n=44 v=120
9470 Off ch=3 n=44 v=120
9480 On ch=3 n=44 v=120
9590 Off ch=3 n=44 v=120
9600 On ch=3 n=44 v=120
9710 Off ch=3 n=44 v=120
9720 On ch=3 n=44 v=120
9830 Off ch=3 n=44 v=120
9840 On ch=3 n=47 v=120
10070 Off ch=3 n=47 v=120
10080 On ch=3 n=48 v=120
10310 Off ch=3 n=48 v=120
10320 On ch=3 n=49 v=120
10550 Off ch=3 n=49 v=120
10560 On ch=3 n=50 v=120
10790 Off ch=3 n=50 v=120
10800 On ch=3 n=51 v=120
11030 Off ch=3 n=51 v=120
11040 On ch=3 n=54 v=120
11270 Off ch=3 n=54 v=120
14870 Par ch=3 c=11 v=95
14880 Pb ch=3 v=6827
14880 On ch=3 n=68 v=120
15000 Pb ch=3 v=8192
15110 Off ch=3 n=68 v=120
15120 On ch=3 n=68 v=120
15230 Off ch=3 n=68 v=120
15240 On ch=3 n=68 v=120
15350 Off ch=3 n=68 v=120
15360 On ch=3 n=68 v=120
15470 Off ch=3 n=68 v=120
15480 On ch=3 n=68 v=120
15590 Off ch=3 n=68 v=120
15600 Pb ch=3 v=6827
15600 On ch=3 n=68 v=120
15720 Pb ch=3 v=8192
15830 Off ch=3 n=68 v=120
15840 On ch=3 n=68 v=120
15950 Off ch=3 n=68 v=120
15960 On ch=3 n=68 v=120
16070 Off ch=3 n=68 v=120
16080 On ch=3 n=68 v=120
16190 Off ch=3 n=68 v=120
16200 On ch=3 n=66 v=120
16310 Off ch=3 n=66 v=120
16320 On ch=3 n=63 v=120
16550 Off ch=3 n=63 v=120
16560 On ch=3 n=62 v=120
16790 Off ch=3 n=62 v=120
16800 On ch=3 n=61 v=120
17030 Off ch=3 n=61 v=120
17040 On ch=3 n=60 v=120
17270 Off ch=3 n=60 v=120
17280 On ch=3 n=59 v=120
17510 Off ch=3 n=59 v=120
17520 On ch=3 n=56 v=120
17750 Off ch=3 n=56 v=120
17760 Par ch=3 c=11 v=115
17760 Pb ch=3 v=6827
17760 On ch=3 n=56 v=120
17880 Pb ch=3 v=8192
17990 Off ch=3 n=56 v=120
18000 On ch=3 n=56 v=120
18110 Off ch=3 n=56 v=120
18120 On ch=3 n=56 v=120
18230 Off ch=3 n=56 v=120
18240 On ch=3 n=56 v=120
18350 Off ch=3 n=56 v=120
18360 On ch=3 n=56 v=120
18470 Off ch=3 n=56 v=120
18480 Pb ch=3 v=6827
18480 On ch=3 n=56 v=120
18600 Pb ch=3 v=8192
18710 Off ch=3 n=56 v=120
18720 On ch=3 n=56 v=120
18830 Off ch=3 n=56 v=120
18840 On ch=3 n=56 v=120
18950 Off ch=3 n=56 v=120
18960 On ch=3 n=56 v=120
19070 Off ch=3 n=56 v=120
19080 On ch=3 n=54 v=120
19190 Off ch=3 n=54 v=120
19200 On ch=3 n=51 v=120
19430 Off ch=3 n=51 v=120
19440 On ch=3 n=50 v=120
19670 Off ch=3 n=50 v=120
19680 On ch=3 n=49 v=120
19910 Off ch=3 n=49 v=120
19920 On ch=3 n=48 v=120
20150 Off ch=3 n=48 v=120
20160 On ch=3 n=47 v=120
20390 Off ch=3 n=47 v=120
20400 On ch=3 n=44 v=120
20630 Off ch=3 n=44 v=120
20640 Par ch=3 c=11 v=120
20640 Pb ch=3 v=6827
20640 On ch=3 n=44 v=120
20760 Pb ch=3 v=8192
20870 Off ch=3 n=44 v=120
20880 On ch=3 n=44 v=120
20990 Off ch=3 n=44 v=120
21000 On ch=3 n=44 v=120
21110 Off ch=3 n=44 v=120
21120 On ch=3 n=44 v=120
21230 Off ch=3 n=44 v=120
21240 On ch=3 n=44 v=120
21350 Off ch=3 n=44 v=120
21360 Pb ch=3 v=6827
21360 On ch=3 n=44 v=120
21480 Pb ch=3 v=8192
21590 Off ch=3 n=44 v=120
21600 On ch=3 n=44 v=120
21710 Off ch=3 n=44 v=120
21720 On ch=3 n=44 v=120
21830 Off ch=3 n=44 v=120
21840 On ch=3 n=44 v=120
21950 Off ch=3 n=44 v=120
21960 On ch=3 n=44 v=120
22070 Off ch=3 n=44 v=120
22080 On ch=3 n=47 v=120
22310 Off ch=3 n=47 v=120
22320 On ch=3 n=48 v=120
22550 Off ch=3 n=48 v=120
22560 On ch=3 n=49 v=120
22790 Off ch=3 n=49 v=120
22800 On ch=3 n=50 v=120
23030 Off ch=3 n=50 v=120
23040 On ch=3 n=51 v=120
23270 Off ch=3 n=51 v=120
23280 On ch=3 n=54 v=120
23510 Off ch=3 n=54 v=120
23520 Pb ch=3 v=6827
23520 On ch=3 n=56 v=120
23640 Pb ch=3 v=8192
23750 Off ch=3 n=56 v=120
23760 On ch=3 n=56 v=120
23870 Off ch=3 n=56 v=120
23880 On ch=3 n=56 v=120
23990 Off ch=3 n=56 v=120
24000 On ch=3 n=56 v=120
24110 Off ch=3 n=56 v=120
24120 On ch=3 n=56 v=120
24230 Off ch=3 n=56 v=120
24240 Pb ch=3 v=6827
24240 On ch=3 n=56 v=120
24360 Pb ch=3 v=8192
24470 Off ch=3 n=56 v=120
24480 On ch=3 n=56 v=120
24590 Off ch=3 n=56 v=120
24600 On ch=3 n=56 v=120
24710 Off ch=3 n=56 v=120
24720 On ch=3 n=56 v=120
24830 Off ch=3 n=56 v=120
24840 On ch=3 n=56 v=120
24950 Par ch=3 c=11 v=100
24950 Off ch=3 n=56 v=120
24960 On ch=3 n=59 v=120
25190 Off ch=3 n=59 v=120
25200 On ch=3 n=60 v=120
25430 Off ch=3 n=60 v=120
25440 On ch=3 n=61 v=120
25670 Off ch=3 n=61 v=120
25680 On ch=3 n=62 v=120
25910 Off ch=3 n=62 v=120
25920 On ch=3 n=63 v=120
26150 Off ch=3 n=63 v=120
26160 Pb ch=3 v=8192
26160 On ch=3 n=66 v=120
26270 Pb ch=3 v=8320
26300 Pb ch=3 v=8448
26310 Pb ch=3 v=8576
26320 Pb ch=3 v=8704
26330 Pb ch=3 v=8832
26340 Pb ch=3 v=8960
26350 Pb ch=3 v=9216
26360 Pb ch=3 v=9472
26370 Pb ch=3 v=9856
26380 Pb ch=3 v=10368
26390 Pb ch=3 v=11136
26390 Off ch=3 n=66 v=120
26400 Pb ch=3 v=8192
26400 Par ch=3 c=11 v=120
26400 Pb ch=3 v=6827
26400 On ch=3 n=56 v=120
26520 Pb ch=3 v=8192
26630 Off ch=3 n=56 v=120
26640 On ch=3 n=56 v=120
26750 Off ch=3 n=56 v=120
26760 On ch=3 n=56 v=120
26870 Off ch=3 n=56 v=120
26880 On ch=3 n=56 v=120
26990 Off ch=3 n=56 v=120
27000 On ch=3 n=56 v=120
27110 Off ch=3 n=56 v=120
27120 Pb ch=3 v=6827
27120 On ch=3 n=56 v=120
27240 Pb ch=3 v=8192
27350 Off ch=3 n=56 v=120
27360 On ch=3 n=56 v=120
27470 Off ch=3 n=56 v=120
27480 On ch=3 n=56 v=120
27590 Off ch=3 n=56 v=120
27600 On ch=3 n=56 v=120
27710 Off ch=3 n=56 v=120
27720 On ch=3 n=54 v=120
27830 Off ch=3 n=54 v=120
27840 Par ch=3 c=11 v=110
27840 On ch=3 n=51 v=120
28070 Off ch=3 n=51 v=120
28080 On ch=3 n=50 v=120
28310 Off ch=3 n=50 v=120
28320 On ch=3 n=49 v=120
28550 Off ch=3 n=49 v=120
28560 On ch=3 n=48 v=120
28790 Off ch=3 n=48 v=120
28800 On ch=3 n=47 v=120
29030 Off ch=3 n=47 v=120
29040 On ch=3 n=44 v=120
29270 Off ch=3 n=44 v=120
29280 Par ch=3 c=11 v=85
29280 Pb ch=3 v=6827
29280 On ch=3 n=68 v=120
29280 On ch=3 n=63 v=120
29310 Pb ch=3 v=7509
29340 Pb ch=3 v=8192
29510 Off ch=3 n=68 v=120
29510 Off ch=3 n=63 v=120
29520 On ch=3 n=63 v=120
29750 Off ch=3 n=63 v=120
29760 On ch=3 n=59 v=120
29990 Off ch=3 n=59 v=120
30000 Par ch=3 c=1 v=45
30000 On ch=3 n=58 v=120
30470 Off ch=3 n=58 v=120
30480 Par ch=3 c=1 v=0
30480 On ch=3 n=61 v=120
30660 Off ch=3 n=61 v=120
30720 Par ch=3 c=1 v=40
30720 On ch=3 n=59 v=120
31190 Off ch=3 n=59 v=120
31200 Par ch=3 c=1 v=0
31200 On ch=3 n=63 v=120
31380 Off ch=3 n=63 v=120
31440 Par ch=3 c=1 v=50
31440 On ch=3 n=61 v=120
31910 Off ch=3 n=61 v=120
31920 Par ch=3 c=1 v=0
31920 On ch=3 n=66 v=120
32100 Off ch=3 n=66 v=120
32160 On ch=3 n=64 v=120
32280 Pb ch=3 v=9557
32400 Pb ch=3 v=8192
32480 Pb ch=3 v=9557
32560 Pb ch=3 v=8192
32630 Off ch=3 n=64 v=120
32640 On ch=3 n=75 v=120
32820 Off ch=3 n=75 v=120
33360 On ch=3 n=73 v=120
33520 Off ch=3 n=73 v=120
34080 On ch=3 n=83 v=120
34240 Off ch=3 n=83 v=120
34840 On ch=3 n=75 v=120
34940 Pb ch=3 v=8875
35040 Pb ch=3 v=8192
35140 Pb ch=3 v=6827
35220 Pb ch=3 v=8192
35220 Off ch=3 n=75 v=120
35220 On ch=3 n=75 v=120
36690 Off ch=3 n=75 v=120
103920 Par ch=3 c=11 v=80
104880 Pb ch=3 v=6827
104880 On ch=3 n=56 v=70
105000 Pb ch=3 v=8192
105110 Off ch=3 n=56 v=70
105120 On ch=3 n=56 v=70
105230 Off ch=3 n=56 v=70
105240 On ch=3 n=56 v=70
105350 Off ch=3 n=56 v=70
105360 On ch=3 n=56 v=70
105590 Off ch=3 n=56 v=70
105600 Pb ch=3 v=6827
105600 On ch=3 n=56 v=71
105720 Pb ch=3 v=8192
105830 Off ch=3 n=56 v=71
105840 On ch=3 n=56 v=71
105950 Off ch=3 n=56 v=71
105960 On ch=3 n=56 v=72
106070 Off ch=3 n=56 v=72
106080 On ch=3 n=56 v=72
106190 Off ch=3 n=56 v=72
106200 On ch=3 n=56 v=72
106310 Off ch=3 n=56 v=72
106320 On ch=3 n=59 v=72
106550 Off ch=3 n=59 v=72
106560 On ch=3 n=60 v=73
106790 Off ch=3 n=60 v=73
106800 On ch=3 n=61 v=73
107030 Off ch=3 n=61 v=73
107040 On ch=3 n=62 v=74
107270 Off ch=3 n=62 v=74
107280 On ch=3 n=63 v=74
107510 Off ch=3 n=63 v=74
107520 On ch=3 n=66 v=75
107750 Off ch=3 n=66 v=75
107760 Pb ch=3 v=6827
107760 On ch=3 n=68 v=75
107880 Pb ch=3 v=8192
107990 Off ch=3 n=68 v=75
108000 On ch=3 n=68 v=76
108110 Off ch=3 n=68 v=76
108120 On ch=3 n=68 v=76
108230 Off ch=3 n=68 v=76
108240 On ch=3 n=68 v=76
108470 Off ch=3 n=68 v=76
108480 Pb ch=3 v=6827
108480 On ch=3 n=68 v=77
108600 Pb ch=3 v=8192
108710 Off ch=3 n=68 v=77
108720 On ch=3 n=68 v=77
108830 Off ch=3 n=68 v=77
108840 On ch=3 n=68 v=77
108950 Off ch=3 n=68 v=77
108960 On ch=3 n=68 v=77
109070 Off ch=3 n=68 v=77
109080 On ch=3 n=66 v=78
109190 Off ch=3 n=66 v=78
109200 On ch=3 n=63 v=78
109430 Off ch=3 n=63 v=78
109440 On ch=3 n=62 v=78
109670 Off ch=3 n=62 v=78
109680 On ch=3 n=61 v=79
109910 Off ch=3 n=61 v=79
109920 On ch=3 n=60 v=79
110150 Off ch=3 n=60 v=79
110160 On ch=3 n=59 v=80
110390 Off ch=3 n=59 v=80
110400 On ch=3 n=56 v=80
110630 Off ch=3 n=56 v=80
110640 Pb ch=3 v=6827
110640 On ch=3 n=56 v=81
110760 Pb ch=3 v=8192
110870 Off ch=3 n=56 v=81
110880 On ch=3 n=56 v=81
110990 Off ch=3 n=56 v=81
111000 On ch=3 n=56 v=81
111110 Off ch=3 n=56 v=81
111120 On ch=3 n=56 v=82
111350 Off ch=3 n=56 v=82
111360 Pb ch=3 v=6827
111360 On ch=3 n=56 v=82
111480 Pb ch=3 v=8192
111590 Off ch=3 n=56 v=82
111600 On ch=3 n=56 v=83
111710 Off ch=3 n=56 v=83
111720 On ch=3 n=56 v=83
111830 Off ch=3 n=56 v=83
111840 On ch=3 n=56 v=83
111950 Off ch=3 n=56 v=83
111960 On ch=3 n=56 v=83
112070 Off ch=3 n=56 v=83
112080 On ch=3 n=59 v=84
112310 Off ch=3 n=59 v=84
112320 On ch=3 n=60 v=84
112550 Off ch=3 n=60 v=84
112560 On ch=3 n=61 v=85
112790 Off ch=3 n=61 v=85
112800 On ch=3 n=62 v=85
113030 Off ch=3 n=62 v=85
113040 On ch=3 n=63 v=85
113270 Off ch=3 n=63 v=85
113280 On ch=3 n=66 v=86
113510 Off ch=3 n=66 v=86
113520 Pb ch=3 v=6827
113520 On ch=3 n=68 v=86
113640 Pb ch=3 v=8192
113750 Off ch=3 n=68 v=86
113760 On ch=3 n=68 v=87
113870 Off ch=3 n=68 v=87
113880 On ch=3 n=68 v=87
113990 Off ch=3 n=68 v=87
114000 On ch=3 n=68 v=87
114230 Off ch=3 n=68 v=87
114240 Pb ch=3 v=6827
114240 On ch=3 n=68 v=88
114360 Pb ch=3 v=8192
114470 Off ch=3 n=68 v=88
114480 On ch=3 n=68 v=88
114590 Off ch=3 n=68 v=88
114600 On ch=3 n=68 v=88
114710 Off ch=3 n=68 v=88
114720 On ch=3 n=68 v=89
114830 Off ch=3 n=68 v=89
114840 On ch=3 n=66 v=89
114950 Off ch=3 n=66 v=89
114960 On ch=3 n=63 v=89
115190 Off ch=3 n=63 v=89
115200 On ch=3 n=62 v=90
115430 Off ch=3 n=62 v=90
115440 On ch=3 n=61 v=90
115670 Off ch=3 n=61 v=90
115680 On ch=3 n=60 v=91
115910 Off ch=3 n=60 v=91
115920 On ch=3 n=59 v=91
116150 Off ch=3 n=59 v=91
116160 On ch=3 n=56 v=92
116390 Off ch=3 n=56 v=92
116400 Pb ch=3 v=6827
116400 On ch=3 n=56 v=92
116520 Pb ch=3 v=8192
116630 Off ch=3 n=56 v=92
116640 On ch=3 n=56 v=92
116750 Off ch=3 n=56 v=92
116760 On ch=3 n=56 v=93
116870 Off ch=3 n=56 v=93
116880 On ch=3 n=56 v=93
117110 Off ch=3 n=56 v=93
117120 Pb ch=3 v=6827
117120 On ch=3 n=56 v=93
117240 Pb ch=3 v=8192
117350 Off ch=3 n=56 v=93
117360 On ch=3 n=56 v=94
117470 Off ch=3 n=56 v=94
117480 On ch=3 n=56 v=94
117590 Off ch=3 n=56 v=94
117600 On ch=3 n=56 v=94
117710 Off ch=3 n=56 v=94
117720 On ch=3 n=56 v=95
117830 Off ch=3 n=56 v=95
117840 On ch=3 n=59 v=95
118070 Off ch=3 n=59 v=95
118080 On ch=3 n=60 v=95
118310 Off ch=3 n=60 v=95
118320 On ch=3 n=61 v=96
118550 Off ch=3 n=61 v=96
118560 On ch=3 n=62 v=96
118790 Off ch=3 n=62 v=96
118800 On ch=3 n=63 v=97
119030 Off ch=3 n=63 v=97
119040 On ch=3 n=66 v=97
119270 Off ch=3 n=66 v=97
119280 Pb ch=3 v=6827
119280 On ch=3 n=68 v=98
119400 Pb ch=3 v=8192
119510 Off ch=3 n=68 v=98
119520 On ch=3 n=68 v=98
119630 Off ch=3 n=68 v=98
119640 On ch=3 n=68 v=98
119750 Off ch=3 n=68 v=98
119760 On ch=3 n=68 v=99
119990 Off ch=3 n=68 v=99
120000 Pb ch=3 v=6827
120000 On ch=3 n=68 v=99
120120 Pb ch=3 v=8192
120230 Off ch=3 n=68 v=99
120240 On ch=3 n=68 v=100
120350 Off ch=3 n=68 v=100
120360 On ch=3 n=68 v=100
120470 Off ch=3 n=68 v=100
120480 On ch=3 n=68 v=100
120590 Off ch=3 n=68 v=100
120600 On ch=3 n=66 v=100
120710 Off ch=3 n=66 v=100
120720 On ch=3 n=63 v=100
120950 Off ch=3 n=63 v=100
120960 On ch=3 n=62 v=101
121190 Off ch=3 n=62 v=101
121200 On ch=3 n=61 v=101
121430 Off ch=3 n=61 v=101
121440 On ch=3 n=60 v=102
121670 Off ch=3 n=60 v=102
121680 On ch=3 n=59 v=102
121910 Off ch=3 n=59 v=102
121920 On ch=3 n=56 v=103
122150 Off ch=3 n=56 v=103
122160 Pb ch=3 v=6827
122160 On ch=3 n=56 v=103
122280 Pb ch=3 v=8192
122390 Off ch=3 n=56 v=103
122400 On ch=3 n=56 v=104
122510 Off ch=3 n=56 v=104
122520 On ch=3 n=56 v=104
122630 Off ch=3 n=56 v=104
122640 On ch=3 n=56 v=104
122870 Off ch=3 n=56 v=104
122880 Pb ch=3 v=6827
122880 On ch=3 n=56 v=105
123000 Pb ch=3 v=8192
123110 Off ch=3 n=56 v=105
123120 On ch=3 n=56 v=105
123230 Off ch=3 n=56 v=105
123240 On ch=3 n=56 v=105
123350 Off ch=3 n=56 v=105
123360 On ch=3 n=56 v=106
123590 Off ch=3 n=56 v=106
123600 On ch=3 n=59 v=106
123830 Off ch=3 n=59 v=106
123840 On ch=3 n=60 v=107
124070 Off ch=3 n=60 v=107
124080 On ch=3 n=61 v=107
124310 Off ch=3 n=61 v=107
124320 On ch=3 n=62 v=107
124550 Off ch=3 n=62 v=107
124560 On ch=3 n=63 v=108
124790 Off ch=3 n=63 v=108
124800 On ch=3 n=66 v=108
125030 Off ch=3 n=66 v=108
125040 Pb ch=3 v=6827
125040 On ch=3 n=68 v=110
125160 Pb ch=3 v=8192
125270 Off ch=3 n=68 v=110
125280 On ch=3 n=68 v=110
125390 Off ch=3 n=68 v=110
125400 On ch=3 n=68 v=110
125510 Off ch=3 n=68 v=110
125520 On ch=3 n=68 v=110
125750 Off ch=3 n=68 v=110
125760 Pb ch=3 v=6827
125760 On ch=3 n=68 v=110
125880 Pb ch=3 v=8192
125990 Off ch=3 n=68 v=110
126000 On ch=3 n=68 v=110
126110 Off ch=3 n=68 v=110
126120 On ch=3 n=68 v=110
126230 Off ch=3 n=68 v=110
126240 On ch=3 n=68 v=110
126350 Off ch=3 n=68 v=110
126360 On ch=3 n=66 v=110
126470 Off ch=3 n=66 v=110
126480 On ch=3 n=63 v=110
126710 Off ch=3 n=63 v=110
126720 On ch=3 n=62 v=110
126950 Off ch=3 n=62 v=110
126960 On ch=3 n=61 v=110
127190 Off ch=3 n=61 v=110
127200 On ch=3 n=60 v=110
127430 Off ch=3 n=60 v=110
127440 On ch=3 n=59 v=110
127670 Off ch=3 n=59 v=110
127680 On ch=3 n=56 v=110
127910 Off ch=3 n=56 v=110
127920 Pb ch=3 v=6827
127920 On ch=3 n=56 v=110
128040 Pb ch=3 v=8192
128150 Off ch=3 n=56 v=110
128160 On ch=3 n=56 v=110
128270 Off ch=3 n=56 v=110
128280 On ch=3 n=56 v=110
128390 Off ch=3 n=56 v=110
128400 On ch=3 n=56 v=110
128510 Off ch=3 n=56 v=110
128520 On ch=3 n=56 v=110
128630 Off ch=3 n=56 v=110
128640 Pb ch=3 v=6827
128640 On ch=3 n=56 v=110
128760 Pb ch=3 v=8192
128870 Off ch=3 n=56 v=110
128880 On ch=3 n=56 v=110
128990 Off ch=3 n=56 v=110
129000 On ch=3 n=56 v=110
129110 Off ch=3 n=56 v=110
129120 On ch=3 n=56 v=110
129230 Off ch=3 n=56 v=110
129240 On ch=3 n=56 v=110
129350 Off ch=3 n=56 v=110
129360 On ch=3 n=59 v=110
129590 Off ch=3 n=59 v=110
129600 On ch=3 n=60 v=110
129830 Off ch=3 n=60 v=110
129840 On ch=3 n=61 v=110
130070 Off ch=3 n=61 v=110
130080 On ch=3 n=62 v=110
130310 Off ch=3 n=62 v=110
130320 On ch=3 n=63 v=110
130550 Off ch=3 n=63 v=110
130560 On ch=3 n=66 v=110
130790 Off ch=3 n=66 v=110
130800 Pb ch=3 v=6827
130800 On ch=3 n=68 v=110
130920 Pb ch=3 v=8192
131030 Off ch=3 n=68 v=110
131040 On ch=3 n=68 v=110
131150 Off ch=3 n=68 v=110
131160 On ch=3 n=68 v=110
131270 Off ch=3 n=68 v=110
131280 On ch=3 n=68 v=110
131390 Off ch=3 n=68 v=110
131400 On ch=3 n=68 v=110
131510 Off ch=3 n=68 v=110
131520 Pb ch=3 v=6827
131520 On ch=3 n=68 v=110
131640 Pb ch=3 v=8192
131750 Off ch=3 n=68 v=110
131760 On ch=3 n=68 v=110
131870 Off ch=3 n=68 v=110
131880 On ch=3 n=68 v=110
131990 Off ch=3 n=68 v=110
132000 On ch=3 n=68 v=110
132110 Off ch=3 n=68 v=110
132120 On ch=3 n=66 v=110
132230 Off ch=3 n=66 v=110
132240 On ch=3 n=63 v=110
132470 Off ch=3 n=63 v=110
132480 On ch=3 n=62 v=110
132710 Off ch=3 n=62 v=110
132720 On ch=3 n=61 v=110
132950 Off ch=3 n=61 v=110
132960 On ch=3 n=60 v=110
133190 Off ch=3 n=60 v=110
133200 On ch=3 n=59 v=110
133430 Off ch=3 n=59 v=110
133440 On ch=3 n=56 v=110
133670 Off ch=3 n=56 v=110
133680 Pb ch=3 v=6827
133680 On ch=3 n=56 v=110
133800 Pb ch=3 v=8192
133910 Off ch=3 n=56 v=110
133920 On ch=3 n=56 v=110
134030 Off ch=3 n=56 v=110
134040 On ch=3 n=56 v=110
134150 Off ch=3 n=56 v=110
134160 On ch=3 n=56 v=110
134390 Off ch=3 n=56 v=110
134400 Pb ch=3 v=6827
134400 On ch=3 n=56 v=110
134520 Pb ch=3 v=8192
134630 Off ch=3 n=56 v=110
134640 On ch=3 n=56 v=110
134750 Off ch=3 n=56 v=110
134760 On ch=3 n=56 v=110
134870 Off ch=3 n=56 v=110
134880 On ch=3 n=56 v=110
134990 Off ch=3 n=56 v=110
135000 On ch=3 n=56 v=110
135110 Off ch=3 n=56 v=110
135120 On ch=3 n=59 v=110
135350 Off ch=3 n=59 v=110
135360 On ch=3 n=60 v=110
135590 Off ch=3 n=60 v=110
135600 On ch=3 n=61 v=110
135830 Off ch=3 n=61 v=110
135840 On ch=3 n=62 v=110
136070 Off ch=3 n=62 v=110
136080 On ch=3 n=63 v=110
136310 Off ch=3 n=63 v=110
136320 On ch=3 n=66 v=110
136550 Off ch=3 n=66 v=110
136560 Pb ch=3 v=6827
136560 On ch=3 n=68 v=110
136680 Pb ch=3 v=8192
136790 Off ch=3 n=68 v=110
136800 On ch=3 n=68 v=110
136910 Off ch=3 n=68 v=110
136920 On ch=3 n=68 v=110
137030 Off ch=3 n=68 v=110
137040 On ch=3 n=68 v=110
137150 Off ch=3 n=68 v=110
137160 On ch=3 n=68 v=110
137270 Off ch=3 n=68 v=110
137280 Pb ch=3 v=6827
137280 On ch=3 n=68 v=110
137400 Pb ch=3 v=8192
137510 Off ch=3 n=68 v=110
137520 On ch=3 n=68 v=110
137630 Off ch=3 n=68 v=110
137640 On ch=3 n=68 v=110
137750 Off ch=3 n=68 v=110
137760 On ch=3 n=68 v=110
137870 Off ch=3 n=68 v=110
137880 On ch=3 n=66 v=110
137990 Off ch=3 n=66 v=110
138000 On ch=3 n=63 v=110
138230 Off ch=3 n=63 v=110
138240 On ch=3 n=62 v=110
138470 Off ch=3 n=62 v=110
138480 On ch=3 n=61 v=110
138710 Off ch=3 n=61 v=110
138720 On ch=3 n=60 v=110
138950 Off ch=3 n=60 v=110
138960 On ch=3 n=59 v=110
139190 Off ch=3 n=59 v=110
139200 On ch=3 n=56 v=110
139430 Off ch=3 n=56 v=110
139440 Pb ch=3 v=6827
139440 On ch=3 n=56 v=110
139560 Pb ch=3 v=8192
139670 Off ch=3 n=56 v=110
139680 On ch=3 n=56 v=110
139790 Off ch=3 n=56 v=110
139800 On ch=3 n=56 v=110
139910 Off ch=3 n=56 v=110
139920 On ch=3 n=56 v=110
140030 Off ch=3 n=56 v=110
140040 On ch=3 n=56 v=110
140150 Off ch=3 n=56 v=110
140160 Pb ch=3 v=6827
140160 On ch=3 n=56 v=110
140280 Pb ch=3 v=8192
140390 Off ch=3 n=56 v=110
140400 On ch=3 n=56 v=110
140510 Off ch=3 n=56 v=110
140520 On ch=3 n=56 v=110
140630 Off ch=3 n=56 v=110
140640 On ch=3 n=56 v=110
140870 Off ch=3 n=56 v=110
140880 On ch=3 n=59 v=110
141110 Off ch=3 n=59 v=110
141120 On ch=3 n=60 v=110
141350 Off ch=3 n=60 v=110
141360 On ch=3 n=61 v=110
141590 Off ch=3 n=61 v=110
141600 On ch=3 n=62 v=110
141830 Off ch=3 n=62 v=110
141840 On ch=3 n=63 v=110
142070 Off ch=3 n=63 v=110
142080 On ch=3 n=66 v=110
142310 Off ch=3 n=66 v=110
142320 Par ch=3 c=11 v=100
142320 Pb ch=3 v=6827
142320 On ch=3 n=44 v=110
142440 Pb ch=3 v=8192
142550 Off ch=3 n=44 v=110
142560 On ch=3 n=44 v=110
142670 Off ch=3 n=44 v=110
142680 On ch=3 n=44 v=110
142790 Off ch=3 n=44 v=110
142800 On ch=3 n=44 v=110
142910 Off ch=3 n=44 v=110
142920 On ch=3 n=44 v=110
143030 Off ch=3 n=44 v=110
143040 Pb ch=3 v=6827
143040 On ch=3 n=44 v=110
143160 Pb ch=3 v=8192
143270 Off ch=3 n=44 v=110
143280 On ch=3 n=44 v=110
143390 Off ch=3 n=44 v=110
143400 On ch=3 n=44 v=110
143510 Off ch=3 n=44 v=110
143520 On ch=3 n=44 v=110
143630 Off ch=3 n=44 v=110
143640 On ch=3 n=44 v=110
143750 Off ch=3 n=44 v=110
143760 On ch=3 n=47 v=110
143990 Off ch=3 n=47 v=110
144000 On ch=3 n=48 v=110
144230 Off ch=3 n=48 v=110
144240 On ch=3 n=49 v=110
144470 Off ch=3 n=49 v=110
144480 On ch=3 n=50 v=110
144710 Off ch=3 n=50 v=110
144720 On ch=3 n=51 v=110
144950 Off ch=3 n=51 v=110
144960 On ch=3 n=54 v=110
145190 Off ch=3 n=54 v=110
145200 Pb ch=3 v=6827
145200 On ch=3 n=56 v=110
145320 Pb ch=3 v=8192
145430 Off ch=3 n=56 v=110
145440 On ch=3 n=56 v=110
145550 Off ch=3 n=56 v=110
145560 On ch=3 n=56 v=110
145670 Off ch=3 n=56 v=110
145680 On ch=3 n=56 v=110
145910 Off ch=3 n=56 v=110
145920 Pb ch=3 v=6827
145920 On ch=3 n=56 v=110
146040 Pb ch=3 v=8192
146150 Off ch=3 n=56 v=110
146160 On ch=3 n=56 v=110
146270 Off ch=3 n=56 v=110
146280 On ch=3 n=56 v=110
146390 Off ch=3 n=56 v=110
146400 On ch=3 n=56 v=110
146510 Off ch=3 n=56 v=110
146520 On ch=3 n=54 v=110
146630 Off ch=3 n=54 v=110
146640 On ch=3 n=51 v=110
146870 Off ch=3 n=51 v=110
146880 On ch=3 n=50 v=110
147110 Off ch=3 n=50 v=110
147120 On ch=3 n=49 v=110
147350 Off ch=3 n=49 v=110
147360 On ch=3 n=48 v=110
147590 Off ch=3 n=48 v=110
147600 On ch=3 n=47 v=110
147830 Off ch=3 n=47 v=110
147840 On ch=3 n=44 v=110
148070 Off ch=3 n=44 v=110
148080 Pb ch=3 v=6827
148080 On ch=3 n=44 v=110
148200 Pb ch=3 v=8192
148310 Off ch=3 n=44 v=110
148320 On ch=3 n=44 v=110
148430 Off ch=3 n=44 v=110
148440 On ch=3 n=44 v=110
148550 Off ch=3 n=44 v=110
148560 On ch=3 n=44 v=110
148790 Off ch=3 n=44 v=110
148800 Pb ch=3 v=6827
148800 On ch=3 n=44 v=110
148920 Pb ch=3 v=8192
149030 Off ch=3 n=44 v=110
149040 On ch=3 n=44 v=110
149150 Off ch=3 n=44 v=110
149160 On ch=3 n=44 v=110
149270 Off ch=3 n=44 v=110
149280 On ch=3 n=44 v=110
149390 Off ch=3 n=44 v=110
149400 On ch=3 n=44 v=110
149510 Off ch=3 n=44 v=110
149520 On ch=3 n=47 v=110
149750 Off ch=3 n=47 v=110
149760 On ch=3 n=48 v=110
149990 Off ch=3 n=48 v=110
150000 On ch=3 n=49 v=110
150230 Off ch=3 n=49 v=110
150240 On ch=3 n=50 v=110
150470 Off ch=3 n=50 v=110
150480 On ch=3 n=51 v=110
150710 Off ch=3 n=51 v=110
150720 On ch=3 n=54 v=110
150950 Off ch=3 n=54 v=110
150960 Pb ch=3 v=6827
150960 On ch=3 n=56 v=110
151080 Pb ch=3 v=8192
151190 Off ch=3 n=56 v=110
151200 On ch=3 n=56 v=110
151310 Off ch=3 n=56 v=110
151320 On ch=3 n=56 v=110
151430 Off ch=3 n=56 v=110
151440 On ch=3 n=56 v=110
151670 Off ch=3 n=56 v=110
151680 Pb ch=3 v=6827
151680 On ch=3 n=56 v=110
151800 Pb ch=3 v=8192
151910 Off ch=3 n=56 v=110
151920 On ch=3 n=56 v=110
152030 Off ch=3 n=56 v=110
152040 On ch=3 n=56 v=110
152150 Off ch=3 n=56 v=110
152160 On ch=3 n=56 v=110
152270 Off ch=3 n=56 v=110
152280 On ch=3 n=56 v=110
152390 Off ch=3 n=56 v=110
152400 On ch=3 n=59 v=110
152630 Off ch=3 n=59 v=110
152640 On ch=3 n=60 v=110
152870 Off ch=3 n=60 v=110
152880 On ch=3 n=61 v=110
153110 Off ch=3 n=61 v=110
153120 On ch=3 n=62 v=110
153350 Off ch=3 n=62 v=110
153360 On ch=3 n=63 v=110
153590 Off ch=3 n=63 v=110
153600 On ch=3 n=66 v=110
153830 Off ch=3 n=66 v=110
153840 Pb ch=3 v=6827
153840 On ch=3 n=68 v=110
153960 Pb ch=3 v=8192
154070 Off ch=3 n=68 v=110
154080 On ch=3 n=68 v=110
154190 Off ch=3 n=68 v=110
154200 On ch=3 n=68 v=110
154310 Off ch=3 n=68 v=110
154320 On ch=3 n=68 v=110
154430 Off ch=3 n=68 v=110
154440 On ch=3 n=68 v=110
154550 Off ch=3 n=68 v=110
154560 Pb ch=3 v=6827
154560 On ch=3 n=68 v=110
154680 Pb ch=3 v=8192
154790 Off ch=3 n=68 v=110
154800 On ch=3 n=68 v=110
154910 Off ch=3 n=68 v=110
154920 On ch=3 n=68 v=110
155030 Off ch=3 n=68 v=110
155040 On ch=3 n=68 v=110
155150 Off ch=3 n=68 v=110
155160 On ch=3 n=66 v=110
155270 Off ch=3 n=66 v=110
155280 On ch=3 n=63 v=110
155510 Off ch=3 n=63 v=110
155520 On ch=3 n=62 v=110
155750 Off ch=3 n=62 v=110
155760 On ch=3 n=61 v=110
155990 Off ch=3 n=61 v=110
156000 On ch=3 n=60 v=110
156230 Off ch=3 n=60 v=110
156240 On ch=3 n=59 v=110
156470 Off ch=3 n=59 v=110
156480 On ch=3 n=56 v=110
156710 Off ch=3 n=56 v=110
156720 Pb ch=3 v=6827
156720 On ch=3 n=56 v=110
156840 Pb ch=3 v=8192
156950 Off ch=3 n=56 v=110
156960 On ch=3 n=56 v=110
157070 Off ch=3 n=56 v=110
157080 On ch=3 n=56 v=110
157190 Off ch=3 n=56 v=110
157200 On ch=3 n=56 v=110
157310 Off ch=3 n=56 v=110
157320 On ch=3 n=56 v=110
157430 Off ch=3 n=56 v=110
157440 Pb ch=3 v=6827
157440 On ch=3 n=56 v=110
157560 Pb ch=3 v=8192
157670 Off ch=3 n=56 v=110
157680 On ch=3 n=56 v=110
157790 Off ch=3 n=56 v=110
157800 On ch=3 n=56 v=110
157910 Off ch=3 n=56 v=110
157920 On ch=3 n=56 v=110
158030 Off ch=3 n=56 v=110
158040 On ch=3 n=56 v=110
158150 Off ch=3 n=56 v=110
158160 On ch=3 n=59 v=110
158390 Off ch=3 n=59 v=110
158400 On ch=3 n=60 v=110
158630 Off ch=3 n=60 v=110
158640 On ch=3 n=61 v=110
158870 Off ch=3 n=61 v=110
158880 On ch=3 n=62 v=110
159110 Off ch=3 n=62 v=110
159120 On ch=3 n=63 v=110
159350 Off ch=3 n=63 v=110
159360 On ch=3 n=66 v=110
159590 Off ch=3 n=66 v=110
159600 On ch=3 n=68 v=110
159780 Off ch=3 n=68 v=110
159840 On ch=3 n=63 v=110
160020 Off ch=3 n=63 v=110
160080 On ch=3 n=59 v=110
160260 Off ch=3 n=59 v=110
160320 Par ch=3 c=1 v=30
160320 On ch=3 n=58 v=110
160790 Off ch=3 n=58 v=110
160800 Par ch=3 c=1 v=0
160800 On ch=3 n=61 v=110
160980 Off ch=3 n=61 v=110
161040 Par ch=3 c=1 v=45
161040 On ch=3 n=59 v=110
161510 Off ch=3 n=59 v=110
161520 Par ch=3 c=1 v=0
161520 On ch=3 n=63 v=110
161700 Off ch=3 n=63 v=110
161760 Par ch=3 c=1 v=40
161760 On ch=3 n=61 v=110
162230 Off ch=3 n=61 v=110
162240 Par ch=3 c=1 v=0
162240 On ch=3 n=66 v=110
162420 Off ch=3 n=66 v=110
162480 On ch=3 n=64 v=110
162600 Pb ch=3 v=9557
162720 Pb ch=3 v=8192
162800 Pb ch=3 v=9557
162880 Pb ch=3 v=8192
162950 Off ch=3 n=64 v=110
162960 On ch=3 n=75 v=110
163140 Off ch=3 n=75 v=110
163680 On ch=3 n=73 v=110
163840 Off ch=3 n=73 v=110
164400 On ch=3 n=83 v=110
164560 Off ch=3 n=83 v=110
165160 On ch=3 n=75 v=110
165260 Pb ch=3 v=8875
165360 Pb ch=3 v=8192
165460 Pb ch=3 v=6827
165540 Pb ch=3 v=8192
165540 Off ch=3 n=75 v=110
165540 On ch=3 n=75 v=110
167030 Off ch=3 n=75 v=110
167040 Pb ch=3 v=6827
167040 On ch=3 n=44 v=110
167160 Pb ch=3 v=8192
167270 Off ch=3 n=44 v=110
167280 On ch=3 n=44 v=110
167390 Off ch=3 n=44 v=110
167400 On ch=3 n=44 v=110
167510 Off ch=3 n=44 v=110
167520 On ch=3 n=44 v=110
167630 Off ch=3 n=44 v=110
167640 On ch=3 n=44 v=110
167750 Off ch=3 n=44 v=110
167760 Pb ch=3 v=6827
167760 On ch=3 n=44 v=110
167880 Pb ch=3 v=8192
167990 Off ch=3 n=44 v=110
168000 On ch=3 n=44 v=110
168110 Off ch=3 n=44 v=110
168120 On ch=3 n=44 v=110
168230 Off ch=3 n=44 v=110
168240 On ch=3 n=44 v=110
168350 Off ch=3 n=44 v=110
168360 On ch=3 n=44 v=110
168470 Off ch=3 n=44 v=110
168480 On ch=3 n=47 v=110
168710 Off ch=3 n=47 v=110
168720 On ch=3 n=48 v=110
168950 Off ch=3 n=48 v=110
168960 On ch=3 n=49 v=110
169190 Off ch=3 n=49 v=110
169200 On ch=3 n=50 v=110
169430 Off ch=3 n=50 v=110
169440 On ch=3 n=51 v=110
169670 Off ch=3 n=51 v=110
169680 On ch=3 n=54 v=110
169910 Off ch=3 n=54 v=110
169920 Pb ch=3 v=6827
169920 On ch=3 n=56 v=100
170040 Pb ch=3 v=8192
170150 Off ch=3 n=56 v=100
170160 On ch=3 n=56 v=100
170270 Off ch=3 n=56 v=100
170280 On ch=3 n=56 v=100
170390 Off ch=3 n=56 v=100
170400 On ch=3 n=56 v=100
170630 Off ch=3 n=56 v=100
170640 Pb ch=3 v=6827
170640 On ch=3 n=56 v=100
170760 Pb ch=3 v=8192
170870 Off ch=3 n=56 v=100
170880 On ch=3 n=56 v=100
170990 Off ch=3 n=56 v=100
171000 On ch=3 n=56 v=100
171110 Off ch=3 n=56 v=100
171120 On ch=3 n=56 v=100
171230 Off ch=3 n=56 v=100
171240 On ch=3 n=54 v=100
171350 Off ch=3 n=54 v=100
171360 On ch=3 n=51 v=100
171590 Off ch=3 n=51 v=100
171600 On ch=3 n=50 v=100
171830 Off ch=3 n=50 v=100
171840 On ch=3 n=49 v=100
172070 Off ch=3 n=49 v=100
172080 On ch=3 n=48 v=100
172310 Off ch=3 n=48 v=100
172320 On ch=3 n=47 v=100
172550 Off ch=3 n=47 v=100
172560 On ch=3 n=44 v=100
172790 Off ch=3 n=44 v=100
172800 Pb ch=3 v=6827
172800 On ch=3 n=44 v=100
172920 Pb ch=3 v=8192
173030 Off ch=3 n=44 v=100
173040 On ch=3 n=44 v=100
173150 Off ch=3 n=44 v=100
173160 On ch=3 n=44 v=100
173270 Off ch=3 n=44 v=100
173280 On ch=3 n=44 v=100
173510 Off ch=3 n=44 v=100
173520 Pb ch=3 v=6827
173520 On ch=3 n=44 v=100
173640 Pb ch=3 v=8192
173750 Off ch=3 n=44 v=100
173760 On ch=3 n=44 v=100
173870 Off ch=3 n=44 v=100
173880 On ch=3 n=44 v=100
173990 Off ch=3 n=44 v=100
174000 On ch=3 n=44 v=100
174110 Off ch=3 n=44 v=100
174120 On ch=3 n=44 v=100
174230 Off ch=3 n=44 v=100
174240 On ch=3 n=47 v=100
174470 Off ch=3 n=47 v=100
174480 On ch=3 n=48 v=100
174710 Off ch=3 n=48 v=100
174720 On ch=3 n=49 v=100
174950 Off ch=3 n=49 v=100
174960 On ch=3 n=50 v=100
175190 Off ch=3 n=50 v=100
175200 On ch=3 n=51 v=100
175430 Off ch=3 n=51 v=100
175440 On ch=3 n=54 v=100
175670 Off ch=3 n=54 v=100
175680 Pb ch=3 v=6827
175680 On ch=3 n=56 v=100
175800 Pb ch=3 v=8192
175910 Off ch=3 n=56 v=100
175920 On ch=3 n=56 v=100
176030 Off ch=3 n=56 v=100
176040 On ch=3 n=56 v=100
176150 Off ch=3 n=56 v=100
176160 On ch=3 n=56 v=100
176390 Off ch=3 n=56 v=100
176400 Pb ch=3 v=6827
176400 On ch=3 n=56 v=100
176520 Pb ch=3 v=8192
176630 Off ch=3 n=56 v=100
176640 On ch=3 n=56 v=100
176750 Off ch=3 n=56 v=100
176760 On ch=3 n=56 v=100
176870 Off ch=3 n=56 v=100
176880 On ch=3 n=56 v=100
176990 Off ch=3 n=56 v=100
177000 On ch=3 n=56 v=100
177110 Off ch=3 n=56 v=100
177120 On ch=3 n=59 v=100
177350 Off ch=3 n=59 v=100
177360 On ch=3 n=60 v=100
177590 Off ch=3 n=60 v=100
177600 On ch=3 n=61 v=100
177830 Off ch=3 n=61 v=100
177840 On ch=3 n=62 v=100
178070 Off ch=3 n=62 v=100
178080 On ch=3 n=63 v=100
178310 Off ch=3 n=63 v=100
178320 On ch=3 n=66 v=100
178550 Off ch=3 n=66 v=100
178560 Pb ch=3 v=6827
178560 On ch=3 n=68 v=100
178680 Pb ch=3 v=8192
178790 Off ch=3 n=68 v=100
178800 On ch=3 n=68 v=100
178910 Off ch=3 n=68 v=100
178920 On ch=3 n=68 v=100
179030 Off ch=3 n=68 v=100
179040 On ch=3 n=68 v=100
179270 Off ch=3 n=68 v=100
179280 Pb ch=3 v=6827
179280 On ch=3 n=68 v=100
179400 Pb ch=3 v=8192
179510 Off ch=3 n=68 v=100
179520 On ch=3 n=68 v=100
179630 Off ch=3 n=68 v=100
179640 On ch=3 n=68 v=100
179750 Off ch=3 n=68 v=100
179760 On ch=3 n=68 v=100
179870 Off ch=3 n=68 v=100
179880 On ch=3 n=66 v=100
179990 Off ch=3 n=66 v=100
180000 On ch=3 n=63 v=100
180230 Off ch=3 n=63 v=100
180240 On ch=3 n=62 v=100
180470 Off ch=3 n=62 v=100
180480 On ch=3 n=61 v=100
180710 Off ch=3 n=61 v=100
180720 On ch=3 n=60 v=100
180950 Off ch=3 n=60 v=100
180960 On ch=3 n=59 v=100
181190 Off ch=3 n=59 v=100
181200 On ch=3 n=56 v=100
181430 Off ch=3 n=56 v=100
181440 Pb ch=3 v=6827
181440 On ch=3 n=68 v=100
181560 Pb ch=3 v=8192
181670 Off ch=3 n=68 v=100
181680 On ch=3 n=68 v=100
181790 Off ch=3 n=68 v=100
181800 On ch=3 n=68 v=100
181910 Off ch=3 n=68 v=100
181920 On ch=3 n=68 v=100
182150 Off ch=3 n=68 v=100
182160 Pb ch=3 v=6827
182160 On ch=3 n=68 v=100
182280 Pb ch=3 v=8192
182390 Off ch=3 n=68 v=100
182400 On ch=3 n=68 v=100
182510 Off ch=3 n=68 v=100
182520 On ch=3 n=68 v=100
182630 Off ch=3 n=68 v=100
182640 On ch=3 n=68 v=100
182750 Off ch=3 n=68 v=100
182760 On ch=3 n=66 v=100
182870 Off ch=3 n=66 v=100
182880 On ch=3 n=63 v=100
183110 Off ch=3 n=63 v=100
183120 On ch=3 n=62 v=100
183350 Off ch=3 n=62 v=100
183360 On ch=3 n=61 v=100
183590 Off ch=3 n=61 v=100
183600 On ch=3 n=60 v=100
183830 Off ch=3 n=60 v=100
183840 On ch=3 n=59 v=100
184070 Off ch=3 n=59 v=100
184080 On ch=3 n=56 v=100
184310 Off ch=3 n=56 v=100
184320 On ch=3 n=68 v=100
184500 Off ch=3 n=68 v=100
184560 On ch=3 n=63 v=100
184740 Off ch=3 n=63 v=100
184800 On ch=3 n=59 v=100
184980 Off ch=3 n=59 v=100
185040 Par ch=3 c=1 v=60
185040 On ch=3 n=58 v=100
185510 Off ch=3 n=58 v=100
185520 Par ch=3 c=1 v=0
185520 On ch=3 n=61 v=100
185700 Off ch=3 n=61 v=100
185760 Par ch=3 c=1 v=40
185760 On ch=3 n=59 v=100
186230 Off ch=3 n=59 v=100
186240 Par ch=3 c=1 v=0
186240 On ch=3 n=63 v=100
186420 Off ch=3 n=63 v=100
186480 Par ch=3 c=1 v=45
186480 On ch=3 n=61 v=100
186950 Off ch=3 n=61 v=100
186960 Par ch=3 c=1 v=0
186960 On ch=3 n=66 v=100
187140 Off ch=3 n=66 v=100
187200 On ch=3 n=64 v=100
187320 Pb ch=3 v=9557
187440 Pb ch=3 v=8192
187520 Pb ch=3 v=9557
187600 Pb ch=3 v=8192
187670 Off ch=3 n=64 v=100
187680 On ch=3 n=75 v=100
187860 Off ch=3 n=75 v=100
188400 On ch=3 n=73 v=100
188560 Off ch=3 n=73 v=100
189120 On ch=3 n=83 v=100
189280 Off ch=3 n=83 v=100
189880 On ch=3 n=75 v=100
189980 Pb ch=3 v=8875
190080 Pb ch=3 v=8192
190180 Pb ch=3 v=6827
190260 Pb ch=3 v=8192
190260 Off ch=3 n=75 v=100
190260 On ch=3 n=75 v=100
191750 Off ch=3 n=75 v=100
191760 Pb ch=3 v=6827
191760 On ch=3 n=44 v=100
191880 Pb ch=3 v=8192
191990 Off ch=3 n=44 v=100
192000 On ch=3 n=44 v=100
192110 Off ch=3 n=44 v=100
192120 On ch=3 n=44 v=100
192230 Off ch=3 n=44 v=100
192240 On ch=3 n=44 v=100
192350 Off ch=3 n=44 v=100
192360 On ch=3 n=44 v=100
192470 Off ch=3 n=44 v=100
192480 Pb ch=3 v=6827
192480 On ch=3 n=44 v=100
192600 Pb ch=3 v=8192
192710 Off ch=3 n=44 v=100
192720 On ch=3 n=44 v=100
192830 Off ch=3 n=44 v=100
192840 On ch=3 n=44 v=100
192950 Off ch=3 n=44 v=100
192960 On ch=3 n=44 v=100
193070 Off ch=3 n=44 v=100
193080 On ch=3 n=44 v=100
193190 Off ch=3 n=44 v=100
193200 On ch=3 n=47 v=100
193430 Off ch=3 n=47 v=100
193440 On ch=3 n=48 v=100
193670 Off ch=3 n=48 v=100
193680 On ch=3 n=49 v=100
193910 Off ch=3 n=49 v=100
193920 On ch=3 n=50 v=100
194150 Off ch=3 n=50 v=100
194160 On ch=3 n=51 v=100
194390 Off ch=3 n=51 v=100
194400 On ch=3 n=54 v=100
194630 Off ch=3 n=54 v=100
194640 Pb ch=3 v=6827
194640 On ch=3 n=56 v=100
194760 Pb ch=3 v=8192
194870 Off ch=3 n=56 v=100
194880 On ch=3 n=56 v=100
194990 Off ch=3 n=56 v=100
195000 On ch=3 n=56 v=100
195110 Off ch=3 n=56 v=100
195120 On ch=3 n=56 v=100
195350 Off ch=3 n=56 v=100
195360 Pb ch=3 v=6827
195360 On ch=3 n=56 v=100
195480 Pb ch=3 v=8192
195590 Off ch=3 n=56 v=100
195600 On ch=3 n=56 v=100
195710 Off ch=3 n=56 v=100
195720 On ch=3 n=56 v=100
195830 Off ch=3 n=56 v=100
195840 On ch=3 n=56 v=100
195950 Off ch=3 n=56 v=100
195960 On ch=3 n=54 v=100
196070 Off ch=3 n=54 v=100
196080 On ch=3 n=51 v=100
196310 Off ch=3 n=51 v=100
196320 On ch=3 n=50 v=100
196550 Off ch=3 n=50 v=100
196560 On ch=3 n=49 v=100
196790 Off ch=3 n=49 v=100
196800 On ch=3 n=48 v=100
197030 Off ch=3 n=48 v=100
197040 On ch=3 n=47 v=100
197270 Off ch=3 n=47 v=100
197280 On ch=3 n=44 v=100
197510 Off ch=3 n=44 v=100
197520 Pb ch=3 v=6827
197520 On ch=3 n=44 v=100
197640 Pb ch=3 v=8192
197750 Off ch=3 n=44 v=100
197760 On ch=3 n=44 v=100
197870 Off ch=3 n=44 v=100
197880 On ch=3 n=44 v=100
197990 Off ch=3 n=44 v=100
198000 On ch=3 n=44 v=100
198110 Off ch=3 n=44 v=100
198120 On ch=3 n=44 v=100
198230 Off ch=3 n=44 v=100
198240 Pb ch=3 v=6827
198240 On ch=3 n=44 v=100
198360 Pb ch=3 v=8192
198470 Off ch=3 n=44 v=100
198480 On ch=3 n=44 v=100
198590 Off ch=3 n=44 v=100
198600 On ch=3 n=44 v=100
198710 Off ch=3 n=44 v=100
198720 On ch=3 n=44 v=100
198830 Off ch=3 n=44 v=100
198840 On ch=3 n=44 v=100
198950 Off ch=3 n=44 v=100
198960 On ch=3 n=47 v=100
199190 Off ch=3 n=47 v=100
199200 On ch=3 n=48 v=100
199430 Off ch=3 n=48 v=100
199440 On ch=3 n=49 v=100
199670 Off ch=3 n=49 v=100
199680 On ch=3 n=50 v=100
199910 Off ch=3 n=50 v=100
199920 On ch=3 n=51 v=100
200150 Off ch=3 n=51 v=100
200160 On ch=3 n=54 v=100
200390 Off ch=3 n=54 v=100
200400 Pb ch=3 v=6827
200400 On ch=3 n=56 v=100
200520 Pb ch=3 v=8192
200630 Off ch=3 n=56 v=100
200640 On ch=3 n=56 v=100
200750 Off ch=3 n=56 v=100
200760 On ch=3 n=56 v=100
200870 Off ch=3 n=56 v=100
200880 On ch=3 n=56 v=100
201110 Off ch=3 n=56 v=100
201120 Pb ch=3 v=6827
201120 On ch=3 n=56 v=100
201240 Pb ch=3 v=8192
201350 Off ch=3 n=56 v=100
201360 On ch=3 n=56 v=100
201470 Off ch=3 n=56 v=100
201480 On ch=3 n=56 v=100
201590 Off ch=3 n=56 v=100
201600 On ch=3 n=56 v=100
201710 Off ch=3 n=56 v=100
201720 On ch=3 n=54 v=100
201830 Off ch=3 n=54 v=100
201840 On ch=3 n=51 v=100
202070 Off ch=3 n=51 v=100
202080 On ch=3 n=50 v=100
202310 Off ch=3 n=50 v=100
202320 On ch=3 n=49 v=100
202550 Off ch=3 n=49 v=100
202560 On ch=3 n=48 v=100
202790 Off ch=3 n=48 v=100
202800 On ch=3 n=47 v=100
203030 Off ch=3 n=47 v=100
203040 On ch=3 n=44 v=100
203270 Off ch=3 n=44 v=100
203280 Pb ch=3 v=6827
203280 On ch=3 n=56 v=100
203400 Pb ch=3 v=8192
203510 Off ch=3 n=56 v=100
203520 On ch=3 n=56 v=100
203630 Off ch=3 n=56 v=100
203640 On ch=3 n=56 v=100
203750 Off ch=3 n=56 v=100
203760 On ch=3 n=56 v=100
203990 Off ch=3 n=56 v=100
204000 Pb ch=3 v=6827
204000 On ch=3 n=56 v=100
204120 Pb ch=3 v=8192
204230 Off ch=3 n=56 v=100
204240 On ch=3 n=56 v=100
204350 Off ch=3 n=56 v=100
204360 On ch=3 n=56 v=100
204470 Off ch=3 n=56 v=100
204480 On ch=3 n=56 v=100
204590 Off ch=3 n=56 v=100
204600 On ch=3 n=56 v=100
204710 Off ch=3 n=56 v=100
204720 On ch=3 n=59 v=100
204950 Off ch=3 n=59 v=100
204960 On ch=3 n=60 v=100
205190 Off ch=3 n=60 v=100
205200 On ch=3 n=61 v=100
205430 Off ch=3 n=61 v=100
205440 On ch=3 n=62 v=100
205670 Off ch=3 n=62 v=100
205680 On ch=3 n=63 v=100
205910 Off ch=3 n=63 v=100
205920 On ch=3 n=66 v=100
206150 Off ch=3 n=66 v=100
206160 Pb ch=3 v=6827
206160 On ch=3 n=68 v=100
206280 Pb ch=3 v=8192
206390 Off ch=3 n=68 v=100
206400 On ch=3 n=68 v=100
206510 Off ch=3 n=68 v=100
206520 On ch=3 n=68 v=100
206630 Off ch=3 n=68 v=100
206640 On ch=3 n=68 v=100
206870 Off ch=3 n=68 v=100
206880 Pb ch=3 v=6827
206880 On ch=3 n=68 v=100
207000 Pb ch=3 v=8192
207110 Off ch=3 n=68 v=100
207120 On ch=3 n=68 v=100
207230 Off ch=3 n=68 v=100
207240 On ch=3 n=68 v=100
207350 Off ch=3 n=68 v=100
207360 On ch=3 n=68 v=100
207470 Off ch=3 n=68 v=100
207480 On ch=3 n=66 v=100
207590 Off ch=3 n=66 v=100
207600 On ch=3 n=63 v=100
207830 Off ch=3 n=63 v=100
207840 On ch=3 n=62 v=100
208070 Off ch=3 n=62 v=100
208080 On ch=3 n=61 v=100
208310 Off ch=3 n=61 v=100
208320 On ch=3 n=60 v=100
208550 Off ch=3 n=60 v=100
208560 On ch=3 n=59 v=100
208790 Off ch=3 n=59 v=100
208800 Pb ch=3 v=8192
208800 On ch=3 n=56 v=100
208930 Pb ch=3 v=8576
208940 Pb ch=3 v=9088
208950 Pb ch=3 v=9600
208960 Pb ch=3 v=9984
208970 Pb ch=3 v=10496
208980 Pb ch=3 v=11008
208990 Pb ch=3 v=11520
209000 Pb ch=3 v=11904
209010 Pb ch=3 v=12416
209020 Pb ch=3 v=12928
209030 Pb ch=3 v=13440
209030 Off ch=3 n=56 v=100
209040 Pb ch=3 v=8192
209040 Pb ch=3 v=6827
209040 On ch=3 n=80 v=100
209160 Pb ch=3 v=8192
209270 Off ch=3 n=80 v=100
209280 On ch=3 n=80 v=100
209390 Off ch=3 n=80 v=100
209400 On ch=3 n=80 v=100
209510 Off ch=3 n=80 v=100
209520 On ch=3 n=80 v=100
209630 Off ch=3 n=80 v=100
209640 On ch=3 n=80 v=100
209750 Off ch=3 n=80 v=100
209760 Pb ch=3 v=6827
209760 On ch=3 n=80 v=100
209880 Pb ch=3 v=8192
209990 Off ch=3 n=80 v=100
210000 On ch=3 n=80 v=100
210110 Off ch=3 n=80 v=100
210120 On ch=3 n=80 v=100
210230 Off ch=3 n=80 v=100
210240 On ch=3 n=80 v=100
210350 Off ch=3 n=80 v=100
210360 On ch=3 n=78 v=100
210470 Off ch=3 n=78 v=100
210480 On ch=3 n=75 v=100
210710 Off ch=3 n=75 v=100
210720 On ch=3 n=74 v=100
210950 Off ch=3 n=74 v=100
210960 On ch=3 n=73 v=100
211190 Off ch=3 n=73 v=100
211200 On ch=3 n=72 v=100
211430 Off ch=3 n=72 v=100
211440 On ch=3 n=71 v=100
211670 Off ch=3 n=71 v=100
211680 On ch=3 n=68 v=100
211910 Off ch=3 n=68 v=100
211920 Pb ch=3 v=6827
211920 On ch=3 n=68 v=100
212040 Pb ch=3 v=8192
212150 Off ch=3 n=68 v=100
212160 On ch=3 n=68 v=100
212270 Off ch=3 n=68 v=100
212280 On ch=3 n=68 v=100
212390 Off ch=3 n=68 v=100
212400 On ch=3 n=68 v=100
212630 Off ch=3 n=68 v=100
212640 Pb ch=3 v=6827
212640 On ch=3 n=68 v=100
212760 Pb ch=3 v=8192
212870 Off ch=3 n=68 v=100
212880 On ch=3 n=68 v=100
212990 Off ch=3 n=68 v=100
213000 On ch=3 n=68 v=100
213110 Off ch=3 n=68 v=100
213120 On ch=3 n=68 v=100
213230 Off ch=3 n=68 v=100
213240 On ch=3 n=66 v=100
213350 Off ch=3 n=66 v=100
213360 On ch=3 n=63 v=100
213590 Off ch=3 n=63 v=100
213600 Par ch=3 c=1 v=80
213600 On ch=3 n=62 v=100
213830 Off ch=3 n=62 v=100
213840 Par ch=3 c=1 v=0
213840 On ch=3 n=61 v=100
214070 Off ch=3 n=61 v=100
214080 On ch=3 n=60 v=100
214310 Off ch=3 n=60 v=100
214320 On ch=3 n=59 v=100
214550 Off ch=3 n=59 v=100
214560 On ch=3 n=56 v=100
214790 Off ch=3 n=56 v=100
214800 Pb ch=3 v=6827
214800 On ch=3 n=56 v=100
214920 Pb ch=3 v=8192
215030 Off ch=3 n=56 v=100
215040 On ch=3 n=56 v=100
215150 Off ch=3 n=56 v=100
215160 On ch=3 n=56 v=100
215270 Off ch=3 n=56 v=100
215280 On ch=3 n=56 v=100
215510 Off ch=3 n=56 v=100
215520 Pb ch=3 v=6827
215520 On ch=3 n=56 v=100
215640 Pb ch=3 v=8192
215750 Off ch=3 n=56 v=100
215760 On ch=3 n=56 v=100
215870 Off ch=3 n=56 v=100
215880 On ch=3 n=56 v=100
215990 Off ch=3 n=56 v=100
216000 On ch=3 n=56 v=100
216110 Off ch=3 n=56 v=100
216120 On ch=3 n=54 v=100
216230 Off ch=3 n=54 v=100
216240 On ch=3 n=51 v=100
216470 Off ch=3 n=51 v=100
216480 Par ch=3 c=1 v=80
216480 On ch=3 n=50 v=100
216710 Off ch=3 n=50 v=100
216720 Par ch=3 c=1 v=0
216720 On ch=3 n=49 v=100
216950 Off ch=3 n=49 v=100
216960 On ch=3 n=48 v=100
217190 Off ch=3 n=48 v=100
217200 On ch=3 n=47 v=100
217430 Off ch=3 n=47 v=100
217440 On ch=3 n=44 v=100
217670 Off ch=3 n=44 v=100
217680 Pb ch=3 v=6827
217680 On ch=3 n=44 v=100
217800 Pb ch=3 v=8192
217910 Off ch=3 n=44 v=100
217920 On ch=3 n=44 v=100
218030 Off ch=3 n=44 v=100
218040 On ch=3 n=44 v=100
218150 Off ch=3 n=44 v=100
218160 On ch=3 n=44 v=100
218270 Off ch=3 n=44 v=100
218280 On ch=3 n=44 v=100
218390 Off ch=3 n=44 v=100
218400 Pb ch=3 v=6827
218400 On ch=3 n=44 v=100
218520 Pb ch=3 v=8192
218630 Off ch=3 n=44 v=100
218640 On ch=3 n=44 v=100
218750 Off ch=3 n=44 v=100
218760 On ch=3 n=44 v=100
218870 Off ch=3 n=44 v=100
218880 On ch=3 n=44 v=100
218990 Off ch=3 n=44 v=100
219000 On ch=3 n=44 v=100
219110 Off ch=3 n=44 v=100
219120 On ch=3 n=47 v=100
219350 Off ch=3 n=47 v=100
219360 On ch=3 n=48 v=100
219590 Off ch=3 n=48 v=100
219600 On ch=3 n=49 v=100
219830 Off ch=3 n=49 v=100
219840 On ch=3 n=50 v=100
220070 Off ch=3 n=50 v=100
220080 On ch=3 n=51 v=100
220310 Off ch=3 n=51 v=100
220320 On ch=3 n=54 v=100
220550 Off ch=3 n=54 v=100
220560 Pb ch=3 v=6827
220560 On ch=3 n=56 v=100
220680 Pb ch=3 v=8192
220790 Off ch=3 n=56 v=100
220800 On ch=3 n=56 v=100
220910 Off ch=3 n=56 v=100
220920 On ch=3 n=56 v=100
221030 Off ch=3 n=56 v=100
221040 On ch=3 n=56 v=100
221270 Off ch=3 n=56 v=100
221280 Pb ch=3 v=6827
221280 On ch=3 n=56 v=100
221400 Pb ch=3 v=8192
221510 Off ch=3 n=56 v=100
221520 On ch=3 n=56 v=100
221630 Off ch=3 n=56 v=100
221640 On ch=3 n=56 v=100
221750 Off ch=3 n=56 v=100
221760 On ch=3 n=56 v=100
221870 Off ch=3 n=56 v=100
221880 On ch=3 n=54 v=100
221990 Off ch=3 n=54 v=100
222000 On ch=3 n=51 v=100
222230 Off ch=3 n=51 v=100
222240 On ch=3 n=50 v=100
222470 Off ch=3 n=50 v=100
222480 On ch=3 n=49 v=100
222710 Off ch=3 n=49 v=100
222720 On ch=3 n=48 v=100
222950 Off ch=3 n=48 v=100
222960 On ch=3 n=47 v=100
223190 Off ch=3 n=47 v=100
223200 On ch=3 n=44 v=100
223430 Off ch=3 n=44 v=100
223440 On ch=3 n=68 v=100
223620 Off ch=3 n=68 v=100
223680 On ch=3 n=63 v=100
223860 Off ch=3 n=63 v=100
223920 On ch=3 n=59 v=100
224100 Off ch=3 n=59 v=100
224160 Par ch=3 c=1 v=60
224160 On ch=3 n=58 v=100
224630 Off ch=3 n=58 v=100
224640 Par ch=3 c=1 v=0
224640 On ch=3 n=61 v=100
224820 Off ch=3 n=61 v=100
224880 Par ch=3 c=1 v=50
224880 On ch=3 n=59 v=100
225350 Off ch=3 n=59 v=100
225360 Par ch=3 c=1 v=0
225360 On ch=3 n=63 v=100
225540 Off ch=3 n=63 v=100
225600 Par ch=3 c=1 v=20
225600 On ch=3 n=61 v=100
226070 Off ch=3 n=61 v=100
226080 Par ch=3 c=1 v=0
226080 On ch=3 n=66 v=100
226260 Off ch=3 n=66 v=100
226320 On ch=3 n=64 v=100
226440 Pb ch=3 v=9557
226560 Pb ch=3 v=8192
226640 Pb ch=3 v=9557
226720 Pb ch=3 v=8192
226790 Off ch=3 n=64 v=100
226800 On ch=3 n=75 v=100
226980 Off ch=3 n=75 v=100
227520 On ch=3 n=73 v=100
227680 Off ch=3 n=73 v=100
228240 On ch=3 n=83 v=100
228400 Off ch=3 n=83 v=100
229000 On ch=3 n=75 v=100
229100 Pb ch=3 v=8875
229200 Pb ch=3 v=8192
229300 Pb ch=3 v=6827
229380 Pb ch=3 v=8192
229380 Off ch=3 n=75 v=100
229380 On ch=3 n=75 v=100
231830 Off ch=3 n=75 v=100
233280 Par ch=3 c=98 v=33
233290 Par ch=3 c=99 v=1
233300 Par ch=3 c=6 v=80
233310 Par ch=3 c=98 v=32
233320 Par ch=3 c=99 v=1
233330 Par ch=3 c=6 v=80
233340 Par ch=3 c=10 v=0
233350 PrCh ch=3 p=26
233360 Par ch=3 c=11 v=80
233370 Par ch=3 c=91 v=40
233380 Par ch=3 c=93 v=40
234720 PrCh ch=3 p=26
234720 Pb ch=3 v=6827
234720 On ch=3 n=56 v=70
234900 Pb ch=3 v=8192
235430 Off ch=3 n=56 v=70
235440 Pb ch=3 v=7509
235440 On ch=3 n=59 v=70
235500 Pb ch=3 v=8192
236150 Off ch=3 n=59 v=70
236160 On ch=3 n=56 v=70
236870 Off ch=3 n=56 v=70
236880 Pb ch=3 v=6827
236880 On ch=3 n=61 v=70
237060 Pb ch=3 v=8192
237590 Off ch=3 n=61 v=70
237600 On ch=3 n=56 v=70
238310 Off ch=3 n=56 v=70
238320 Pb ch=3 v=6827
238320 On ch=3 n=61 v=70
238440 Pb ch=3 v=8192
239030 Off ch=3 n=61 v=70
239040 On ch=3 n=56 v=70
239750 Off ch=3 n=56 v=70
239760 Pb ch=3 v=6827
239760 On ch=3 n=61 v=70
239880 Pb ch=3 v=8192
240470 Off ch=3 n=61 v=70
240480 On ch=3 n=56 v=70
241190 Off ch=3 n=56 v=70
241200 Pb ch=3 v=6827
241200 On ch=3 n=61 v=70
241320 Pb ch=3 v=8192
241910 Off ch=3 n=61 v=70
241920 On ch=3 n=56 v=70
242630 Off ch=3 n=56 v=70
242640 Pb ch=3 v=6827
242640 On ch=3 n=61 v=70
242760 Pb ch=3 v=8192
243350 Off ch=3 n=61 v=70
243360 Pb ch=3 v=6827
243360 On ch=3 n=58 v=70
243480 Pb ch=3 v=8192
244070 Off ch=3 n=58 v=70
244080 Pb ch=3 v=6827
244080 On ch=3 n=63 v=70
244200 Pb ch=3 v=8192
244790 Off ch=3 n=63 v=70
244800 On ch=3 n=58 v=70
245510 Off ch=3 n=58 v=70
245520 Pb ch=3 v=6827
245520 On ch=3 n=63 v=70
245640 Pb ch=3 v=8192
246230 Off ch=3 n=63 v=70
246240 Pb ch=3 v=6827
246240 On ch=3 n=58 v=70
246360 Pb ch=3 v=8192
246950 Off ch=3 n=58 v=70
246960 Pb ch=3 v=6827
246960 On ch=3 n=63 v=70
247080 Pb ch=3 v=8192
247670 Off ch=3 n=63 v=70
247680 On ch=3 n=58 v=70
248390 Off ch=3 n=58 v=70
248400 Pb ch=3 v=6827
248400 On ch=3 n=63 v=70
248520 Pb ch=3 v=8192
249110 Off ch=3 n=63 v=70
249120 On ch=3 n=58 v=70
249830 Off ch=3 n=58 v=70
249840 On ch=3 n=63 v=70
250550 Off ch=3 n=63 v=70
250560 On ch=3 n=54 v=70
251270 Off ch=3 n=54 v=70
251280 On ch=3 n=53 v=70
251990 Off ch=3 n=53 v=70
252000 Pb ch=3 v=6827
252000 On ch=3 n=55 v=70
252240 Pb ch=3 v=8192
252950 Off ch=3 n=55 v=70
252960 On ch=3 n=55 v=55
254880 Off ch=3 n=55 v=55
254880 On ch=3 n=53 v=70
255600 On ch=3 n=61 v=60
255840 On ch=3 n=65 v=50
256300 Off ch=3 n=61 v=60
257430 Off ch=3 n=53 v=70
257740 Off ch=3 n=65 v=50
257760 On ch=3 n=51 v=70
258470 Off ch=3 n=51 v=70
258480 On ch=3 n=56 v=50
259190 Off ch=3 n=56 v=50
259200 Pb ch=3 v=7509
259200 On ch=3 n=61 v=60
259380 Pb ch=3 v=8192
259910 Off ch=3 n=61 v=60
259920 On ch=3 n=61 v=50
260630 Off ch=3 n=61 v=50
260640 Pb ch=3 v=8875
260640 On ch=3 n=60 v=70
260880 Pb ch=3 v=8192
260960 Pb ch=3 v=8875
261040 Pb ch=3 v=8192
261120 Off ch=3 n=60 v=70
261120 On ch=3 n=56 v=50
262080 Off ch=3 n=56 v=50
262080 On ch=3 n=56 v=60
262790 Off ch=3 n=56 v=60
262800 On ch=3 n=51 v=60
263510 Off ch=3 n=51 v=60
263520 Pb ch=3 v=6827
263520 On ch=3 n=53 v=71
263680 Pb ch=3 v=8192
264720 Off ch=3 n=53 v=71
264720 On ch=3 n=56 v=60
265430 Off ch=3 n=56 v=60
265440 On ch=3 n=63 v=70
266390 Off ch=3 n=63 v=70
266400 On ch=3 n=51 v=70
267110 Off ch=3 n=51 v=70
267120 On ch=3 n=58 v=60
267830 Off ch=3 n=58 v=60
267840 On ch=3 n=63 v=60
269270 Off ch=3 n=63 v=60
269280 On ch=3 n=51 v=70
269990 Off ch=3 n=51 v=70
270000 On ch=3 n=58 v=60
270710 Off ch=3 n=58 v=60
270720 On ch=3 n=58 v=60
271430 Off ch=3 n=58 v=60
271440 On ch=3 n=63 v=60
272150 Off ch=3 n=63 v=60
272160 On ch=3 n=49 v=70
272870 Off ch=3 n=49 v=70
272880 On ch=3 n=56 v=60
273590 Off ch=3 n=56 v=60
273600 On ch=3 n=61 v=60
274310 Off ch=3 n=61 v=60
274320 On ch=3 n=61 v=60
275030 Off ch=3 n=61 v=60
275040 On ch=3 n=60 v=60
275750 Off ch=3 n=60 v=60
275760 On ch=3 n=61 v=60
275860 Off ch=3 n=61 v=60
276480 Pb ch=3 v=8875
276480 On ch=3 n=60 v=60
276720 Pb ch=3 v=8192
276960 On ch=3 n=56 v=60
277380 Off ch=3 n=60 v=60
277910 Off ch=3 n=56 v=60
277920 On ch=3 n=60 v=60
278630 Off ch=3 n=60 v=60
278640 On ch=3 n=60 v=60
279350 Off ch=3 n=60 v=60
279360 On ch=3 n=60 v=60
279520 Pb ch=3 v=8875
279680 Pb ch=3 v=8192
279840 Off ch=3 n=60 v=60
279840 On ch=3 n=60 v=50
280320 Off ch=3 n=60 v=50
280320 On ch=3 n=56 v=60
280790 Off ch=3 n=56 v=60
292230 Par ch=3 c=98 v=33
292240 Par ch=3 c=99 v=1
292250 Par ch=3 c=6 v=114
292260 PrCh ch=3 p=29
292270 Par ch=3 c=98 v=32
292280 Par ch=3 c=99 v=1
292290 Par ch=3 c=6 v=60
292300 Par ch=3 c=6 v=30
292310 Par ch=3 c=10 v=127
292320 On ch=3 n=68 v=90
292550 Off ch=3 n=68 v=90
292560 On ch=3 n=70 v=90
292790 Off ch=3 n=70 v=90
292800 On ch=3 n=72 v=90
293030 Off ch=3 n=72 v=90
293040 On ch=3 n=73 v=90
293270 Off ch=3 n=73 v=90
293280 On ch=3 n=75 v=90
295190 Off ch=3 n=75 v=90
295200 Par ch=3 c=6 v=30
295200 On ch=3 n=75 v=90
295320 Pb ch=3 v=9557
295440 Pb ch=3 v=8192
297110 Off ch=3 n=75 v=90
297120 Pb ch=3 v=9557
297120 Par ch=3 c=6 v=25
297120 On ch=3 n=70 v=90
297360 Pb ch=3 v=8192
299520 Off ch=3 n=70 v=90
299520 Pb ch=3 v=11605
299520 On ch=3 n=65 v=90
299740 Pb ch=3 v=10923
299760 Pb ch=3 v=10240
299780 Pb ch=3 v=9557
299800 Pb ch=3 v=8875
299820 Pb ch=3 v=8192
300950 Off ch=3 n=65 v=90
300960 Par ch=3 c=6 v=28
300960 On ch=3 n=63 v=90
303830 Off ch=3 n=63 v=90
303840 Par ch=3 c=6 v=27
303840 Pb ch=3 v=10923
303840 On ch=3 n=63 v=90
304300 Pb ch=3 v=10240
304320 Pb ch=3 v=9557
304340 Pb ch=3 v=8875
304360 Pb ch=3 v=8192
305270 Off ch=3 n=63 v=90
305300 Pb ch=3 v=9557
305300 Par ch=3 c=6 v=25
305300 On ch=3 n=58 v=90
305760 Pb ch=3 v=8875
305790 Pb ch=3 v=8192
306720 Par ch=3 c=6 v=29
306720 On ch=3 n=63 v=90
306730 Off ch=3 n=58 v=90
307190 Off ch=3 n=63 v=90
307200 Pb ch=3 v=9557
307200 Par ch=3 c=6 v=30
307200 On ch=3 n=63 v=90
307440 Pb ch=3 v=8192
307670 Off ch=3 n=63 v=90
307680 Par ch=3 c=6 v=30
307680 On ch=3 n=61 v=90
308150 Off ch=3 n=61 v=90
308160 Par ch=3 c=6 v=25
308160 On ch=3 n=58 v=90
309590 Off ch=3 n=58 v=90
309600 Par ch=3 c=6 v=20
309600 On ch=3 n=60 v=90
315350 Off ch=3 n=60 v=90
318240 Par ch=3 c=11 v=98
318250 PrCh ch=3 p=27
318260 Par ch=3 c=6 v=45
321110 Par ch=3 c=10 v=0
321120 On ch=3 n=75 v=85
321120 On ch=3 n=63 v=70
321350 Off ch=3 n=75 v=85
321350 Off ch=3 n=63 v=70
321360 On ch=3 n=76 v=85
321360 On ch=3 n=64 v=70
321590 Off ch=3 n=76 v=85
321590 Off ch=3 n=64 v=70
321840 On ch=3 n=75 v=85
321840 On ch=3 n=63 v=70
322070 Off ch=3 n=75 v=85
322070 Off ch=3 n=63 v=70
322320 On ch=3 n=73 v=85
322320 On ch=3 n=61 v=70
322550 Off ch=3 n=73 v=85
322550 Off ch=3 n=61 v=70
322560 Pb ch=3 v=6827
322560 On ch=3 n=75 v=85
322560 On ch=3 n=63 v=70
322680 Pb ch=3 v=7509
322700 Pb ch=3 v=8192
322860 Off ch=3 n=75 v=85
322860 Off ch=3 n=63 v=70
323040 On ch=3 n=68 v=85
323270 Off ch=3 n=68 v=85
323520 On ch=3 n=78 v=85
323520 On ch=3 n=54 v=70
323750 Off ch=3 n=78 v=85
323750 Off ch=3 n=54 v=70
323760 Pb ch=3 v=6827
323760 On ch=3 n=80 v=85
323760 On ch=3 n=56 v=70
323800 Pb ch=3 v=7509
323820 Pb ch=3 v=8192
323990 Off ch=3 n=80 v=85
323990 Off ch=3 n=56 v=70
324240 On ch=3 n=78 v=85
324240 On ch=3 n=54 v=70
324470 Off ch=3 n=78 v=85
324470 Off ch=3 n=54 v=70
324720 On ch=3 n=76 v=85
324720 On ch=3 n=52 v=70
324950 Off ch=3 n=76 v=85
324950 Off ch=3 n=52 v=70
324960 Pb ch=3 v=6827
324960 On ch=3 n=78 v=85
324960 On ch=3 n=54 v=70
325120 Pb ch=3 v=7509
325160 Pb ch=3 v=8192
325260 Off ch=3 n=78 v=85
325260 Off ch=3 n=54 v=70
325440 On ch=3 n=75 v=85
325440 On ch=3 n=51 v=70
325670 Off ch=3 n=75 v=85
325670 Off ch=3 n=51 v=70
325920 On ch=3 n=75 v=85
325920 On ch=3 n=63 v=70
326150 Off ch=3 n=75 v=85
326150 Off ch=3 n=63 v=70
326160 Pb ch=3 v=7509
326160 On ch=3 n=76 v=85
326160 On ch=3 n=64 v=70
326280 Pb ch=3 v=8192
326390 Off ch=3 n=76 v=85
326390 Off ch=3 n=64 v=70
326640 On ch=3 n=75 v=85
326640 On ch=3 n=63 v=70
326870 Off ch=3 n=75 v=85
326870 Off ch=3 n=63 v=70
327120 On ch=3 n=73 v=85
327120 On ch=3 n=61 v=70
327350 Off ch=3 n=73 v=85
327350 Off ch=3 n=61 v=70
327360 Pb ch=3 v=6827
327360 On ch=3 n=75 v=85
327360 On ch=3 n=63 v=70
327480 Pb ch=3 v=7509
327500 Pb ch=3 v=8192
327660 Off ch=3 n=75 v=85
327660 Off ch=3 n=63 v=70
327840 On ch=3 n=68 v=85
328070 Off ch=3 n=68 v=85
328320 On ch=3 n=78 v=85
328320 On ch=3 n=54 v=70
328550 Off ch=3 n=78 v=85
328550 Off ch=3 n=54 v=70
328560 Pb ch=3 v=6827
328560 On ch=3 n=80 v=85
328560 On ch=3 n=56 v=70
328600 Pb ch=3 v=7509
328620 Pb ch=3 v=8192
328790 Off ch=3 n=80 v=85
328790 Off ch=3 n=56 v=70
329040 On ch=3 n=78 v=85
329040 On ch=3 n=54 v=70
329270 Off ch=3 n=78 v=85
329270 Off ch=3 n=54 v=70
329520 On ch=3 n=76 v=85
329520 On ch=3 n=52 v=70
329750 Off ch=3 n=76 v=85
329750 Off ch=3 n=52 v=70
329760 Pb ch=3 v=6827
329760 On ch=3 n=78 v=85
329760 On ch=3 n=54 v=70
329920 Pb ch=3 v=7509
329960 Pb ch=3 v=8192
330060 Off ch=3 n=78 v=85
330060 Off ch=3 n=54 v=70
330240 On ch=3 n=75 v=85
330240 On ch=3 n=51 v=70
330470 Off ch=3 n=75 v=85
330470 Off ch=3 n=51 v=70
366720 Par ch=3 c=6 v=30
368150 Par ch=3 c=10 v=127
368160 Pb ch=3 v=8875
368160 On ch=3 n=72 v=80
368400 Pb ch=3 v=8192
368630 Off ch=3 n=72 v=80
368640 On ch=3 n=68 v=80
368870 Off ch=3 n=68 v=80
368880 Pb ch=3 v=9557
368880 On ch=3 n=75 v=80
369120 Pb ch=3 v=8192
369350 Off ch=3 n=75 v=80
369360 On ch=3 n=68 v=80
370960 Off ch=3 n=68 v=80
372480 On ch=3 n=73 v=80
372950 Off ch=3 n=73 v=80
372960 On ch=3 n=72 v=80
373430 Off ch=3 n=72 v=80
373440 On ch=3 n=70 v=80
373910 Off ch=3 n=70 v=80
373920 On ch=3 n=70 v=80
375350 Off ch=3 n=70 v=80
375360 On ch=3 n=66 v=80
375830 Off ch=3 n=66 v=80
375840 On ch=3 n=65 v=80
376310 Off ch=3 n=65 v=80
376320 On ch=3 n=63 v=80
376790 Off ch=3 n=63 v=80
376800 On ch=3 n=63 v=80
377270 Off ch=3 n=63 v=80
377280 On ch=3 n=60 v=80
378230 Off ch=3 n=60 v=80
378240 On ch=3 n=63 v=80
378710 Off ch=3 n=63 v=80
378720 On ch=3 n=61 v=80
379190 Off ch=3 n=61 v=80
379200 On ch=3 n=60 v=80
379670 Off ch=3 n=60 v=80
379680 On ch=3 n=61 v=80
381110 Off ch=3 n=61 v=80
384000 Pb ch=3 v=9557
384000 On ch=3 n=63 v=80
384240 Pb ch=3 v=8192
384470 Off ch=3 n=63 v=80
384480 On ch=3 n=63 v=80
384710 Off ch=3 n=63 v=80
384720 Pb ch=3 v=9557
384720 On ch=3 n=58 v=80
384960 Pb ch=3 v=8192
385190 Off ch=3 n=58 v=80
385200 On ch=3 n=56 v=80
385430 Off ch=3 n=56 v=80
385440 On ch=3 n=60 v=80
385910 Off ch=3 n=60 v=80
385920 On ch=3 n=58 v=80
386150 Off ch=3 n=58 v=80
386160 On ch=3 n=56 v=80
386630 Off ch=3 n=56 v=80
386640 On ch=3 n=53 v=80
386870 Off ch=3 n=53 v=80
386880 On ch=3 n=51 v=80
387160 Off ch=3 n=51 v=80
387160 On ch=3 n=48 v=80
387320 Off ch=3 n=48 v=80
387320 On ch=3 n=46 v=80
387600 Off ch=3 n=46 v=80
387600 On ch=3 n=44 v=80
388310 Off ch=3 n=44 v=80
388320 On ch=3 n=46 v=80
389750 Off ch=3 n=46 v=80
402700 Par ch=3 c=11 v=122
402710 Par ch=3 c=6 v=50
402720 Pb ch=3 v=9557
402720 On ch=3 n=75 v=80
402960 Pb ch=3 v=8192
403190 Off ch=3 n=75 v=80
403680 Pb ch=3 v=8875
403680 On ch=3 n=72 v=80
403920 Pb ch=3 v=8192
404150 Off ch=3 n=72 v=80
404160 Pb ch=3 v=9557
404160 On ch=3 n=70 v=80
404400 Pb ch=3 v=8192
404630 Off ch=3 n=70 v=80
404640 Pb ch=3 v=9557
404640 On ch=3 n=68 v=80
405360 Pb ch=3 v=8192
405590 Off ch=3 n=68 v=80
417120 On ch=3 n=84 v=80
417830 Off ch=3 n=84 v=80
417840 On ch=3 n=82 v=80
418550 Off ch=3 n=82 v=80
418560 On ch=3 n=77 v=80
419030 Off ch=3 n=77 v=80
419040 On ch=3 n=80 v=80
419270 Off ch=3 n=80 v=80
419280 On ch=3 n=75 v=80
419990 Off ch=3 n=75 v=80
421440 On ch=3 n=72 v=80
422870 Off ch=3 n=72 v=80
427200 Par ch=3 c=6 v=40
427210 Par ch=3 c=11 v=98
428630 Par ch=3 c=10 v=0
428640 On ch=3 n=75 v=85
428640 On ch=3 n=63 v=70
428870 Off ch=3 n=75 v=85
428870 Off ch=3 n=63 v=70
428880 Pb ch=3 v=7509
428880 On ch=3 n=76 v=85
428880 On ch=3 n=64 v=70
429000 Pb ch=3 v=8192
429110 Off ch=3 n=76 v=85
429110 Off ch=3 n=64 v=70
429360 On ch=3 n=75 v=85
429360 On ch=3 n=63 v=70
429590 Off ch=3 n=75 v=85
429590 Off ch=3 n=63 v=70
429840 On ch=3 n=73 v=85
429840 On ch=3 n=61 v=70
430070 Off ch=3 n=73 v=85
430070 Off ch=3 n=61 v=70
430080 Pb ch=3 v=6827
430080 On ch=3 n=75 v=85
430080 On ch=3 n=63 v=70
430200 Pb ch=3 v=7509
430220 Pb ch=3 v=8192
430380 Off ch=3 n=75 v=85
430380 Off ch=3 n=63 v=70
430560 On ch=3 n=68 v=85
430790 Off ch=3 n=68 v=85
431040 On ch=3 n=78 v=85
431040 On ch=3 n=54 v=70
431270 Off ch=3 n=78 v=85
431270 Off ch=3 n=54 v=70
431280 Pb ch=3 v=6827
431280 On ch=3 n=80 v=85
431280 On ch=3 n=56 v=70
431320 Pb ch=3 v=7509
431340 Pb ch=3 v=8192
431510 Off ch=3 n=80 v=85
431510 Off ch=3 n=56 v=70
431760 On ch=3 n=78 v=85
431760 On ch=3 n=54 v=70
431990 Off ch=3 n=78 v=85
431990 Off ch=3 n=54 v=70
432240 On ch=3 n=76 v=85
432240 On ch=3 n=52 v=70
432470 Off ch=3 n=76 v=85
432470 Off ch=3 n=52 v=70
432480 Pb ch=3 v=6827
432480 On ch=3 n=78 v=85
432480 On ch=3 n=54 v=70
432640 Pb ch=3 v=7509
432680 Pb ch=3 v=8192
432780 Off ch=3 n=78 v=85
432780 Off ch=3 n=54 v=70
432960 On ch=3 n=75 v=85
432960 On ch=3 n=51 v=70
433190 Off ch=3 n=75 v=85
433190 Off ch=3 n=51 v=70
433440 On ch=3 n=75 v=85
433440 On ch=3 n=63 v=70
433670 Off ch=3 n=75 v=85
433670 Off ch=3 n=63 v=70
433680 Pb ch=3 v=7509
433680 On ch=3 n=76 v=85
433680 On ch=3 n=64 v=70
433800 Pb ch=3 v=8192
433910 Off ch=3 n=76 v=85
433910 Off ch=3 n=64 v=70
434160 On ch=3 n=75 v=85
434160 On ch=3 n=63 v=70
434390 Off ch=3 n=75 v=85
434390 Off ch=3 n=63 v=70
434640 On ch=3 n=73 v=85
434640 On ch=3 n=61 v=70
434870 Off ch=3 n=73 v=85
434870 Off ch=3 n=61 v=70
434880 Pb ch=3 v=6827
434880 On ch=3 n=75 v=85
434880 On ch=3 n=63 v=70
435000 Pb ch=3 v=7509
435020 Pb ch=3 v=8192
435180 Off ch=3 n=75 v=85
435180 Off ch=3 n=63 v=70
435360 On ch=3 n=68 v=85
435590 Off ch=3 n=68 v=85
435840 On ch=3 n=78 v=85
435840 On ch=3 n=54 v=70
436070 Off ch=3 n=78 v=85
436070 Off ch=3 n=54 v=70
436080 Pb ch=3 v=6827
436080 On ch=3 n=80 v=85
436080 On ch=3 n=56 v=70
436120 Pb ch=3 v=7509
436140 Pb ch=3 v=8192
436310 Off ch=3 n=80 v=85
436310 Off ch=3 n=56 v=70
436560 On ch=3 n=78 v=85
436560 On ch=3 n=54 v=70
436790 Off ch=3 n=78 v=85
436790 Off ch=3 n=54 v=70
437040 On ch=3 n=76 v=85
437040 On ch=3 n=52 v=70
437270 Off ch=3 n=76 v=85
437270 Off ch=3 n=52 v=70
437280 Pb ch=3 v=6827
437280 On ch=3 n=78 v=85
437280 On ch=3 n=54 v=70
437440 Pb ch=3 v=7509
437480 Pb ch=3 v=8192
437580 Off ch=3 n=78 v=85
437580 Off ch=3 n=54 v=70
437760 On ch=3 n=75 v=85
437760 On ch=3 n=51 v=70
437990 Off ch=3 n=75 v=85
437990 Off ch=3 n=51 v=70
438240 On ch=3 n=75 v=85
438240 On ch=3 n=63 v=70
438470 Off ch=3 n=75 v=85
438470 Off ch=3 n=63 v=70
438480 Pb ch=3 v=7509
438480 On ch=3 n=76 v=85
438480 On ch=3 n=64 v=70
438600 Pb ch=3 v=8192
438710 Off ch=3 n=76 v=85
438710 Off ch=3 n=64 v=70
438960 On ch=3 n=75 v=85
438960 On ch=3 n=63 v=70
439190 Off ch=3 n=75 v=85
439190 Off ch=3 n=63 v=70
439440 On ch=3 n=73 v=85
439440 On ch=3 n=61 v=70
439670 Off ch=3 n=73 v=85
439670 Off ch=3 n=61 v=70
439680 Pb ch=3 v=6827
439680 On ch=3 n=75 v=85
439680 On ch=3 n=63 v=70
439800 Pb ch=3 v=7509
439820 Pb ch=3 v=8192
439980 Off ch=3 n=75 v=85
439980 Off ch=3 n=63 v=70
440160 On ch=3 n=68 v=85
440390 Off ch=3 n=68 v=85
440640 On ch=3 n=78 v=85
440640 On ch=3 n=54 v=70
440870 Off ch=3 n=78 v=85
440870 Off ch=3 n=54 v=70
440880 Pb ch=3 v=6827
440880 On ch=3 n=80 v=85
440880 On ch=3 n=56 v=70
440920 Pb ch=3 v=7509
440940 Pb ch=3 v=8192
441110 Off ch=3 n=80 v=85
441110 Off ch=3 n=56 v=70
441360 On ch=3 n=78 v=85
441360 On ch=3 n=54 v=70
441590 Off ch=3 n=78 v=85
441590 Off ch=3 n=54 v=70
441840 On ch=3 n=52 v=70
441840 On ch=3 n=76 v=85
442070 Off ch=3 n=52 v=70
442070 Off ch=3 n=76 v=85
442080 Pb ch=3 v=6827
442080 On ch=3 n=54 v=70
442080 On ch=3 n=78 v=85
442240 Pb ch=3 v=7509
442280 Pb ch=3 v=8192
442380 Off ch=3 n=54 v=70
442380 Off ch=3 n=78 v=85
442560 On ch=3 n=51 v=94
442564 On ch=3 n=75 v=89
442760 Off ch=3 n=51 v=94
442764 Off ch=3 n=75 v=89
443040 On ch=3 n=83 v=106
443040 On ch=3 n=76 v=106
443040 On ch=3 n=78 v=106
443240 Off ch=3 n=83 v=106
443240 Off ch=3 n=76 v=106
443240 Off ch=3 n=78 v=106
443280 On ch=3 n=83 v=106
443280 On ch=3 n=76 v=106
443280 On ch=3 n=78 v=106
443480 Off ch=3 n=83 v=106
443480 Off ch=3 n=76 v=106
443480 Off ch=3 n=78 v=106
443520 On ch=3 n=83 v=106
443520 On ch=3 n=76 v=106
443520 On ch=3 n=78 v=106
449760 Off ch=3 n=83 v=106
449760 Off ch=3 n=76 v=106
449760 Off ch=3 n=78 v=106
449760 On ch=3 n=75 v=106
449870 Off ch=3 n=75 v=106
449880 On ch=3 n=76 v=106
449980 Off ch=3 n=76 v=106
450120 On ch=3 n=75 v=106
450220 Off ch=3 n=75 v=106
450360 On ch=3 n=73 v=106
450460 Off ch=3 n=73 v=106
450480 On ch=3 n=75 v=106
450580 Off ch=3 n=75 v=106
450720 On ch=3 n=68 v=106
450840 Off ch=3 n=68 v=106
450960 On ch=3 n=78 v=106
451060 Off ch=3 n=78 v=106
451080 On ch=3 n=80 v=106
451180 Off ch=3 n=80 v=106
451320 On ch=3 n=78 v=106
451420 Off ch=3 n=78 v=106
451560 On ch=3 n=76 v=106
451660 Off ch=3 n=76 v=106
451680 On ch=3 n=78 v=106
451780 Off ch=3 n=78 v=106
451920 On ch=3 n=75 v=106
452020 Off ch=3 n=75 v=106
452160 On ch=3 n=75 v=106
452270 Off ch=3 n=75 v=106
452280 On ch=3 n=76 v=106
452380 Off ch=3 n=76 v=106
452520 On ch=3 n=75 v=106
452630 Off ch=3 n=75 v=106
452760 On ch=3 n=73 v=106
452860 Off ch=3 n=73 v=106
452880 On ch=3 n=75 v=106
452980 Off ch=3 n=75 v=106
453120 On ch=3 n=68 v=106
453240 Off ch=3 n=68 v=106
453360 On ch=3 n=78 v=106
453460 Off ch=3 n=78 v=106
453480 On ch=3 n=80 v=106
453580 Off ch=3 n=80 v=106
453720 On ch=3 n=78 v=106
453830 Off ch=3 n=78 v=106
453960 On ch=3 n=76 v=106
454060 Off ch=3 n=76 v=106
454080 On ch=3 n=78 v=106
454180 Off ch=3 n=78 v=106
454320 On ch=3 n=75 v=106
454420 Off ch=3 n=75 v=106
454430 Par ch=3 c=32 v=0
454430 PrCh ch=3 p=49
454550 Par ch=3 c=10 v=54
467630 Par ch=3 c=1 v=0
470990 Par ch=3 c=32 v=0
470990 PrCh ch=3 p=29
471110 Par ch=3 c=10 v=0
471120 On ch=3 n=75 v=76
471220 Off ch=3 n=75 v=76
471240 On ch=3 n=73 v=76
471340 Off ch=3 n=73 v=76
471350 Par ch=3 c=10 v=9
471360 On ch=3 n=74 v=76
471460 Off ch=3 n=74 v=76
471480 On ch=3 n=80 v=76
471580 Off ch=3 n=80 v=76
471590 Par ch=3 c=10 v=18
471600 On ch=3 n=78 v=76
471700 Off ch=3 n=78 v=76
471720 On ch=3 n=79 v=76
471820 Off ch=3 n=79 v=76
471830 Par ch=3 c=10 v=27
471840 On ch=3 n=87 v=76
472060 Off ch=3 n=87 v=76
472070 Par ch=3 c=10 v=36
472080 On ch=3 n=82 v=76
472280 Off ch=3 n=82 v=76
472320 On ch=3 n=75 v=76
472420 Off ch=3 n=75 v=76
472440 On ch=3 n=73 v=76
472540 Off ch=3 n=73 v=76
472560 On ch=3 n=74 v=76
472660 Off ch=3 n=74 v=76
472680 On ch=3 n=75 v=76
472780 Off ch=3 n=75 v=76
472800 On ch=3 n=73 v=76
472900 Off ch=3 n=73 v=76
472920 On ch=3 n=74 v=76
473020 Off ch=3 n=74 v=76
473040 On ch=3 n=70 v=76
473280 Off ch=3 n=70 v=76
473390 Par ch=3 c=32 v=0
473520 On ch=3 n=75 v=76
473620 Off ch=3 n=75 v=76
473640 On ch=3 n=73 v=76
473740 Off ch=3 n=73 v=76
473760 On ch=3 n=74 v=76
473860 Off ch=3 n=74 v=76
473880 On ch=3 n=80 v=76
473980 Off ch=3 n=80 v=76
474000 On ch=3 n=78 v=76
474100 Off ch=3 n=78 v=76
474120 On ch=3 n=79 v=76
474220 Off ch=3 n=79 v=76
474240 On ch=3 n=87 v=76
474460 Off ch=3 n=87 v=76
474480 On ch=3 n=82 v=76
474680 Off ch=3 n=82 v=76
474720 On ch=3 n=75 v=76
474820 Off ch=3 n=75 v=76
474840 On ch=3 n=73 v=76
474940 Off ch=3 n=73 v=76
474960 On ch=3 n=74 v=76
475060 Off ch=3 n=74 v=76
475080 On ch=3 n=75 v=76
475180 Off ch=3 n=75 v=76
475200 On ch=3 n=73 v=76
475300 Off ch=3 n=73 v=76
475320 On ch=3 n=74 v=76
475420 Off ch=3 n=74 v=76
475440 On ch=3 n=70 v=76
475680 Off ch=3 n=70 v=76
475790 Par ch=3 c=32 v=0
475920 On ch=3 n=75 v=76
476020 Off ch=3 n=75 v=76
476040 On ch=3 n=73 v=76
476140 Off ch=3 n=73 v=76
476160 On ch=3 n=74 v=76
476260 Off ch=3 n=74 v=76
476280 On ch=3 n=80 v=76
476380 Off ch=3 n=80 v=76
476400 On ch=3 n=78 v=76
476500 Off ch=3 n=78 v=76
476520 On ch=3 n=79 v=76
476620 Off ch=3 n=79 v=76
476640 On ch=3 n=87 v=76
476860 Off ch=3 n=87 v=76
476880 On ch=3 n=82 v=76
477080 Off ch=3 n=82 v=76
477120 On ch=3 n=75 v=76
477220 Off ch=3 n=75 v=76
477240 On ch=3 n=73 v=76
477340 Off ch=3 n=73 v=76
477360 On ch=3 n=74 v=76
477460 Off ch=3 n=74 v=76
477480 On ch=3 n=75 v=76
477580 Off ch=3 n=75 v=76
477600 On ch=3 n=73 v=76
477700 Off ch=3 n=73 v=76
477720 On ch=3 n=74 v=76
477820 Off ch=3 n=74 v=76
477840 On ch=3 n=70 v=76
478080 Off ch=3 n=70 v=76
478190 Par ch=3 c=32 v=0
478320 On ch=3 n=75 v=76
478420 Off ch=3 n=75 v=76
478440 On ch=3 n=73 v=76
478540 Off ch=3 n=73 v=76
478560 On ch=3 n=74 v=76
478660 Off ch=3 n=74 v=76
478680 On ch=3 n=80 v=76
478780 Off ch=3 n=80 v=76
478800 On ch=3 n=78 v=76
478900 Off ch=3 n=78 v=76
478920 On ch=3 n=79 v=76
479020 Off ch=3 n=79 v=76
479040 On ch=3 n=87 v=76
479260 Off ch=3 n=87 v=76
479280 On ch=3 n=82 v=76
479480 Off ch=3 n=82 v=76
479520 On ch=3 n=75 v=76
479620 Off ch=3 n=75 v=76
479640 On ch=3 n=73 v=76
479740 Off ch=3 n=73 v=76
479760 On ch=3 n=74 v=76
479860 Off ch=3 n=74 v=76
479880 On ch=3 n=75 v=76
479980 Off ch=3 n=75 v=76
480000 On ch=3 n=73 v=76
480100 Off ch=3 n=73 v=76
480120 On ch=3 n=74 v=76
480220 Off ch=3 n=74 v=76
480240 On ch=3 n=70 v=76
480480 Off ch=3 n=70 v=76
480720 Par ch=3 c=99 v=1
480720 Par ch=3 c=98 v=33
480720 Par ch=3 c=6 v=64
480720 Par ch=3 c=38 v=0
480720 Par ch=3 c=99 v=1
480720 Par ch=3 c=98 v=32
480720 Par ch=3 c=6 v=64
480720 Par ch=3 c=38 v=0
480720 Pb ch=3 v=6827
480720 On ch=3 n=44 v=110
480840 Pb ch=3 v=8192
480950 Off ch=3 n=44 v=110
480960 Par ch=3 c=11 v=100
480960 On ch=3 n=44 v=110
481070 Off ch=3 n=44 v=110
481080 On ch=3 n=44 v=110
481190 Off ch=3 n=44 v=110
481200 On ch=3 n=44 v=110
481310 Off ch=3 n=44 v=110
481320 On ch=3 n=44 v=110
481430 Off ch=3 n=44 v=110
481440 Pb ch=3 v=6827
481445 On ch=3 n=44 v=110
481560 Pb ch=3 v=8192
481675 Off ch=3 n=44 v=110
481680 On ch=3 n=44 v=110
481790 Off ch=3 n=44 v=110
481800 On ch=3 n=44 v=110
481910 Off ch=3 n=44 v=110
481920 On ch=3 n=44 v=110
482030 Off ch=3 n=44 v=110
482040 On ch=3 n=44 v=110
482150 Off ch=3 n=44 v=110
482160 On ch=3 n=47 v=110
482390 Off ch=3 n=47 v=110
482400 On ch=3 n=48 v=110
482630 Off ch=3 n=48 v=110
482640 On ch=3 n=49 v=110
482870 Off ch=3 n=49 v=110
482880 On ch=3 n=50 v=110
483110 Off ch=3 n=50 v=110
483120 On ch=3 n=51 v=110
483350 Off ch=3 n=51 v=110
483360 On ch=3 n=54 v=110
483590 Off ch=3 n=54 v=110
483600 Pb ch=3 v=6827
483600 On ch=3 n=56 v=110
483720 Pb ch=3 v=8192
483830 Off ch=3 n=56 v=110
483840 On ch=3 n=56 v=110
483950 Off ch=3 n=56 v=110
483960 On ch=3 n=56 v=110
484070 Off ch=3 n=56 v=110
484080 On ch=3 n=56 v=110
484310 Off ch=3 n=56 v=110
484320 Pb ch=3 v=6827
484320 On ch=3 n=56 v=110
484440 Pb ch=3 v=8192
484550 Off ch=3 n=56 v=110
484560 On ch=3 n=56 v=110
484670 Off ch=3 n=56 v=110
484680 On ch=3 n=56 v=110
484790 Off ch=3 n=56 v=110
484800 On ch=3 n=56 v=110
484910 Off ch=3 n=56 v=110
484920 On ch=3 n=54 v=110
485030 Off ch=3 n=54 v=110
485040 On ch=3 n=51 v=110
485270 Off ch=3 n=51 v=110
485280 On ch=3 n=50 v=110
485510 Off ch=3 n=50 v=110
485520 On ch=3 n=49 v=110
485750 Off ch=3 n=49 v=110
485760 On ch=3 n=48 v=110
485990 Off ch=3 n=48 v=110
486000 On ch=3 n=47 v=110
486230 Off ch=3 n=47 v=110
486240 On ch=3 n=44 v=110
486470 Off ch=3 n=44 v=110
486480 Pb ch=3 v=6827
486480 On ch=3 n=56 v=110
486600 Pb ch=3 v=8192
486710 Off ch=3 n=56 v=110
486720 Par ch=3 c=11 v=100
486720 On ch=3 n=56 v=110
486830 Off ch=3 n=56 v=110
486840 On ch=3 n=56 v=110
486950 Off ch=3 n=56 v=110
486960 On ch=3 n=56 v=110
487070 Off ch=3 n=56 v=110
487080 On ch=3 n=56 v=110
487190 Off ch=3 n=56 v=110
487200 Pb ch=3 v=6827
487200 On ch=3 n=56 v=110
487320 Pb ch=3 v=8192
487430 Off ch=3 n=56 v=110
487440 On ch=3 n=56 v=110
487550 Off ch=3 n=56 v=110
487560 On ch=3 n=56 v=110
487670 Off ch=3 n=56 v=110
487680 On ch=3 n=56 v=110
487790 Off ch=3 n=56 v=110
487800 On ch=3 n=56 v=110
487910 Off ch=3 n=56 v=110
487920 On ch=3 n=59 v=110
488150 Off ch=3 n=59 v=110
488160 On ch=3 n=60 v=110
488390 Off ch=3 n=60 v=110
488400 On ch=3 n=61 v=110
488630 Off ch=3 n=61 v=110
488640 On ch=3 n=62 v=110
488870 Off ch=3 n=62 v=110
488880 On ch=3 n=63 v=110
489110 Off ch=3 n=63 v=110
489120 On ch=3 n=66 v=110
489350 Off ch=3 n=66 v=110
489360 Pb ch=3 v=6827
489360 On ch=3 n=68 v=110
489480 Pb ch=3 v=8192
489590 Off ch=3 n=68 v=110
489600 On ch=3 n=68 v=110
489710 Off ch=3 n=68 v=110
489720 On ch=3 n=68 v=110
489830 Off ch=3 n=68 v=110
489840 On ch=3 n=68 v=110
490070 Off ch=3 n=68 v=110
490080 Pb ch=3 v=6827
490080 On ch=3 n=68 v=110
490200 Pb ch=3 v=8192
490310 Off ch=3 n=68 v=110
490320 On ch=3 n=68 v=110
490430 Off ch=3 n=68 v=110
490440 On ch=3 n=68 v=110
490550 Off ch=3 n=68 v=110
490560 On ch=3 n=68 v=110
490670 Off ch=3 n=68 v=110
490680 On ch=3 n=66 v=110
490790 Off ch=3 n=66 v=110
490800 On ch=3 n=63 v=110
491030 Off ch=3 n=63 v=110
491040 On ch=3 n=62 v=110
491270 Off ch=3 n=62 v=110
491280 On ch=3 n=61 v=110
491510 Off ch=3 n=61 v=110
491520 On ch=3 n=60 v=110
491750 Off ch=3 n=60 v=110
491760 On ch=3 n=59 v=110
491990 Off ch=3 n=59 v=110
492000 On ch=3 n=58 v=110
492230 Off ch=3 n=58 v=110
492240 Par ch=3 c=99 v=1
492240 Par ch=3 c=98 v=33
492240 Par ch=3 c=6 v=100
492240 Par ch=3 c=38 v=0
492240 Par ch=3 c=99 v=1
492240 Par ch=3 c=98 v=32
492240 Par ch=3 c=6 v=50
492240 Par ch=3 c=38 v=0
492240 On ch=3 n=75 v=56
492340 Off ch=3 n=75 v=56
492360 On ch=3 n=73 v=56
492460 Off ch=3 n=73 v=56
492470 Par ch=3 c=10 v=9
492480 On ch=3 n=74 v=56
492580 Off ch=3 n=74 v=56
492600 On ch=3 n=80 v=56
492700 Off ch=3 n=80 v=56
492710 Par ch=3 c=10 v=18
492720 On ch=3 n=78 v=56
492820 Off ch=3 n=78 v=56
492840 On ch=3 n=79 v=56
492940 Off ch=3 n=79 v=56
492950 Par ch=3 c=10 v=27
492960 On ch=3 n=87 v=56
493180 Off ch=3 n=87 v=56
493190 Par ch=3 c=10 v=36
493200 On ch=3 n=82 v=56
493400 Off ch=3 n=82 v=56
493440 On ch=3 n=75 v=56
493540 Off ch=3 n=75 v=56
493560 On ch=3 n=73 v=56
493660 Off ch=3 n=73 v=56
493680 On ch=3 n=74 v=56
493780 Off ch=3 n=74 v=56
493800 On ch=3 n=75 v=56
493900 Off ch=3 n=75 v=56
493920 On ch=3 n=73 v=56
494020 Off ch=3 n=73 v=56
494040 On ch=3 n=74 v=56
494140 Off ch=3 n=74 v=56
494160 On ch=3 n=70 v=56
494400 Off ch=3 n=70 v=56
494510 Par ch=3 c=32 v=0
494640 On ch=3 n=75 v=56
494740 Off ch=3 n=75 v=56
494760 On ch=3 n=73 v=56
494860 Off ch=3 n=73 v=56
494880 On ch=3 n=74 v=56
494980 Off ch=3 n=74 v=56
495000 On ch=3 n=80 v=56
495100 Off ch=3 n=80 v=56
495120 On ch=3 n=78 v=56
495220 Off ch=3 n=78 v=56
495240 On ch=3 n=79 v=56
495340 Off ch=3 n=79 v=56
495360 On ch=3 n=87 v=56
495580 Off ch=3 n=87 v=56
495600 On ch=3 n=82 v=56
495800 Off ch=3 n=82 v=56
495840 On ch=3 n=75 v=56
495940 Off ch=3 n=75 v=56
495960 On ch=3 n=73 v=56
496060 Off ch=3 n=73 v=56
496080 On ch=3 n=74 v=56
496180 Off ch=3 n=74 v=56
496200 On ch=3 n=75 v=56
496300 Off ch=3 n=75 v=56
496320 On ch=3 n=73 v=56
496420 Off ch=3 n=73 v=56
496440 On ch=3 n=74 v=56
496540 Off ch=3 n=74 v=56
496560 On ch=3 n=70 v=56
496800 Off ch=3 n=70 v=56
496910 Par ch=3 c=32 v=0
497040 On ch=3 n=75 v=56
497140 Off ch=3 n=75 v=56
497160 On ch=3 n=73 v=56
497260 Off ch=3 n=73 v=56
497280 On ch=3 n=74 v=56
497380 Off ch=3 n=74 v=56
497400 On ch=3 n=80 v=56
497500 Off ch=3 n=80 v=56
497520 On ch=3 n=78 v=56
497620 Off ch=3 n=78 v=56
497640 On ch=3 n=79 v=56
497740 Off ch=3 n=79 v=56
497760 On ch=3 n=87 v=56
497980 Off ch=3 n=87 v=56
498000 On ch=3 n=82 v=56
498200 Off ch=3 n=82 v=56
498240 On ch=3 n=75 v=56
498340 Off ch=3 n=75 v=56
498360 On ch=3 n=73 v=56
498460 Off ch=3 n=73 v=56
498480 On ch=3 n=74 v=56
498580 Off ch=3 n=74 v=56
498600 On ch=3 n=75 v=56
498700 Off ch=3 n=75 v=56
498720 On ch=3 n=73 v=56
498820 Off ch=3 n=73 v=56
498840 On ch=3 n=74 v=56
498940 Off ch=3 n=74 v=56
498960 On ch=3 n=70 v=56
499200 Off ch=3 n=70 v=56
499310 Par ch=3 c=32 v=0
499440 On ch=3 n=75 v=56
499540 Off ch=3 n=75 v=56
499560 On ch=3 n=73 v=56
499660 Off ch=3 n=73 v=56
499680 On ch=3 n=74 v=56
499780 Off ch=3 n=74 v=56
499800 On ch=3 n=80 v=56
499900 Off ch=3 n=80 v=56
499920 On ch=3 n=78 v=56
500020 Off ch=3 n=78 v=56
500040 On ch=3 n=79 v=56
500140 Off ch=3 n=79 v=56
500160 On ch=3 n=87 v=56
500380 Off ch=3 n=87 v=56
500400 On ch=3 n=82 v=56
500600 Off ch=3 n=82 v=56
500640 On ch=3 n=75 v=56
500740 Off ch=3 n=75 v=56
500760 On ch=3 n=73 v=56
500860 Off ch=3 n=73 v=56
500880 On ch=3 n=74 v=56
500980 Off ch=3 n=74 v=56
501000 On ch=3 n=75 v=56
501100 Off ch=3 n=75 v=56
501120 On ch=3 n=73 v=56
501220 Off ch=3 n=73 v=56
501240 On ch=3 n=74 v=56
501340 Off ch=3 n=74 v=56
501360 On ch=3 n=70 v=56
501600 Off ch=3 n=70 v=56
501840 Par ch=3 c=99 v=1
501840 Par ch=3 c=98 v=33
501840 Par ch=3 c=6 v=64
501840 Par ch=3 c=38 v=0
501840 Par ch=3 c=99 v=1
501840 Par ch=3 c=98 v=32
501840 Par ch=3 c=6 v=64
501840 Par ch=3 c=38 v=0
501840 Pb ch=3 v=6827
501840 On ch=3 n=44 v=110
501960 Pb ch=3 v=8192
502070 Off ch=3 n=44 v=110
502080 Par ch=3 c=11 v=100
502080 On ch=3 n=44 v=110
502190 Off ch=3 n=44 v=110
502200 On ch=3 n=44 v=110
502310 Off ch=3 n=44 v=110
502320 On ch=3 n=44 v=110
502430 Off ch=3 n=44 v=110
502440 On ch=3 n=44 v=110
502550 Off ch=3 n=44 v=110
502560 Pb ch=3 v=6827
502565 On ch=3 n=44 v=110
502680 Pb ch=3 v=8192
502795 Off ch=3 n=44 v=110
502800 On ch=3 n=44 v=110
502910 Off ch=3 n=44 v=110
502920 On ch=3 n=44 v=110
503030 Off ch=3 n=44 v=110
503040 On ch=3 n=44 v=110
503150 Off ch=3 n=44 v=110
503160 On ch=3 n=44 v=110
503270 Off ch=3 n=44 v=110
503280 On ch=3 n=47 v=110
503510 Off ch=3 n=47 v=110
503520 On ch=3 n=48 v=110
503750 Off ch=3 n=48 v=110
503760 On ch=3 n=49 v=110
503990 Off ch=3 n=49 v=110
504000 On ch=3 n=50 v=110
504230 Off ch=3 n=50 v=110
504240 On ch=3 n=51 v=110
504470 Off ch=3 n=51 v=110
504480 On ch=3 n=54 v=110
504710 Off ch=3 n=54 v=110
504720 Pb ch=3 v=6827
504720 On ch=3 n=56 v=127
504840 Pb ch=3 v=7509
504960 Pb ch=3 v=8192
505200 On ch=3 n=54 v=125
505201 Off ch=3 n=56 v=127
505430 Off ch=3 n=54 v=125
505440 Pb ch=3 v=6827
505440 On ch=3 n=56 v=127
505560 Pb ch=3 v=7509
505680 Pb ch=3 v=8192
505916 Off ch=3 n=56 v=127
505920 On ch=3 n=54 v=115
506160 On ch=3 n=51 v=110
506161 Off ch=3 n=54 v=115
506390 Off ch=3 n=51 v=110
506400 On ch=3 n=50 v=110
506630 Off ch=3 n=50 v=110
506640 On ch=3 n=49 v=110
506870 Off ch=3 n=49 v=110
506880 On ch=3 n=48 v=110
507110 Off ch=3 n=48 v=110
507120 On ch=3 n=47 v=110
507350 Off ch=3 n=47 v=110
507360 On ch=3 n=44 v=110
507590 Off ch=3 n=44 v=110
507600 Pb ch=3 v=6827
507600 On ch=3 n=56 v=110
507720 Pb ch=3 v=8192
507830 Off ch=3 n=56 v=110
507840 Par ch=3 c=11 v=100
507840 On ch=3 n=56 v=110
507950 Off ch=3 n=56 v=110
507960 On ch=3 n=56 v=110
508070 Off ch=3 n=56 v=110
508080 On ch=3 n=56 v=110
508190 Off ch=3 n=56 v=110
508200 On ch=3 n=56 v=110
508310 Off ch=3 n=56 v=110
508320 Pb ch=3 v=6827
508320 On ch=3 n=56 v=110
508440 Pb ch=3 v=8192
508550 Off ch=3 n=56 v=110
508560 On ch=3 n=56 v=110
508670 Off ch=3 n=56 v=110
508680 On ch=3 n=56 v=110
508790 Off ch=3 n=56 v=110
508800 On ch=3 n=56 v=110
508910 Off ch=3 n=56 v=110
508920 On ch=3 n=56 v=110
509030 Off ch=3 n=56 v=110
509040 On ch=3 n=59 v=110
509270 Off ch=3 n=59 v=110
509280 On ch=3 n=60 v=110
509510 Off ch=3 n=60 v=110
509520 On ch=3 n=61 v=110
509750 Off ch=3 n=61 v=110
509760 On ch=3 n=62 v=110
509990 Off ch=3 n=62 v=110
510000 On ch=3 n=63 v=110
510230 Off ch=3 n=63 v=110
510240 On ch=3 n=66 v=110
510470 Off ch=3 n=66 v=110
510480 Pb ch=3 v=6827
510480 On ch=3 n=68 v=110
510600 Pb ch=3 v=8192
510710 Off ch=3 n=68 v=110
510720 On ch=3 n=68 v=110
510830 Off ch=3 n=68 v=110
510840 On ch=3 n=68 v=110
510950 Off ch=3 n=68 v=110
510960 On ch=3 n=68 v=110
511190 Off ch=3 n=68 v=110
511200 Pb ch=3 v=6827
511200 On ch=3 n=68 v=110
511320 Pb ch=3 v=8192
511430 Off ch=3 n=68 v=110
511440 On ch=3 n=68 v=110
511550 Off ch=3 n=68 v=110
511560 On ch=3 n=68 v=110
511670 Off ch=3 n=68 v=110
511680 On ch=3 n=68 v=110
511790 Off ch=3 n=68 v=110
511800 On ch=3 n=66 v=110
511910 Off ch=3 n=66 v=110
511920 On ch=3 n=63 v=110
512150 Off ch=3 n=63 v=110
512160 On ch=3 n=62 v=110
512390 Off ch=3 n=62 v=110
512400 On ch=3 n=61 v=110
512630 Off ch=3 n=61 v=110
512640 On ch=3 n=60 v=110
512870 Off ch=3 n=60 v=110
512880 On ch=3 n=59 v=110
513110 Off ch=3 n=59 v=110
513120 On ch=3 n=58 v=110
513350 Off ch=3 n=58 v=110
513360 Par ch=3 c=99 v=1
513360 Par ch=3 c=98 v=33
513360 Par ch=3 c=6 v=100
513360 Par ch=3 c=38 v=0
513360 Par ch=3 c=99 v=1
513360 Par ch=3 c=98 v=32
513360 Par ch=3 c=6 v=50
513360 Par ch=3 c=38 v=0
513360 On ch=3 n=75 v=66
513450 Off ch=3 n=75 v=66
513480 On ch=3 n=73 v=66
513570 Off ch=3 n=73 v=66
513600 On ch=3 n=74 v=66
513690 Off ch=3 n=74 v=66
513720 On ch=3 n=80 v=66
513810 Off ch=3 n=80 v=66
513840 On ch=3 n=78 v=66
513930 Off ch=3 n=78 v=66
513960 On ch=3 n=79 v=66
514050 Off ch=3 n=79 v=66
514080 On ch=3 n=87 v=66
514250 Off ch=3 n=87 v=66
514320 On ch=3 n=82 v=66
514490 Off ch=3 n=82 v=66
514560 On ch=3 n=75 v=66
514650 Off ch=3 n=75 v=66
514680 On ch=3 n=73 v=66
514770 Off ch=3 n=73 v=66
514800 On ch=3 n=74 v=66
514890 Off ch=3 n=74 v=66
514920 On ch=3 n=75 v=66
515010 Off ch=3 n=75 v=66
515040 On ch=3 n=73 v=66
515130 Off ch=3 n=73 v=66
515160 On ch=3 n=74 v=66
515250 Off ch=3 n=74 v=66
515280 On ch=3 n=70 v=66
515520 Off ch=3 n=70 v=66
515760 On ch=3 n=75 v=66
515850 Off ch=3 n=75 v=66
515880 On ch=3 n=73 v=66
515970 Off ch=3 n=73 v=66
516000 On ch=3 n=74 v=66
516090 Off ch=3 n=74 v=66
516120 On ch=3 n=80 v=66
516210 Off ch=3 n=80 v=66
516240 On ch=3 n=78 v=66
516330 Off ch=3 n=78 v=66
516360 On ch=3 n=79 v=66
516450 Off ch=3 n=79 v=66
516480 On ch=3 n=87 v=66
516650 Off ch=3 n=87 v=66
516720 On ch=3 n=82 v=66
516890 Off ch=3 n=82 v=66
516960 On ch=3 n=75 v=66
517050 Off ch=3 n=75 v=66
517080 On ch=3 n=73 v=66
517170 Off ch=3 n=73 v=66
517200 On ch=3 n=74 v=66
517290 Off ch=3 n=74 v=66
517320 On ch=3 n=75 v=66
517410 Off ch=3 n=75 v=66
517440 On ch=3 n=73 v=66
517530 Off ch=3 n=73 v=66
517560 On ch=3 n=74 v=66
517650 Off ch=3 n=74 v=66
517680 On ch=3 n=70 v=66
517920 Off ch=3 n=70 v=66
518160 Par ch=3 c=99 v=1
518160 Par ch=3 c=98 v=33
518160 Par ch=3 c=6 v=64
518160 Par ch=3 c=38 v=0
518160 Par ch=3 c=99 v=1
518160 Par ch=3 c=98 v=32
518160 Par ch=3 c=6 v=64
518160 Par ch=3 c=38 v=0
518160 Pb ch=3 v=6827
518160 On ch=3 n=68 v=110
518280 Pb ch=3 v=8192
518390 Off ch=3 n=68 v=110
518400 On ch=3 n=68 v=110
518510 Off ch=3 n=68 v=110
518520 On ch=3 n=68 v=110
518630 Off ch=3 n=68 v=110
518640 On ch=3 n=68 v=110
518870 Off ch=3 n=68 v=110
518880 Pb ch=3 v=6827
518880 On ch=3 n=68 v=110
519000 Pb ch=3 v=8192
519110 Off ch=3 n=68 v=110
519120 On ch=3 n=68 v=110
519230 Off ch=3 n=68 v=110
519240 On ch=3 n=68 v=110
519350 Off ch=3 n=68 v=110
519360 On ch=3 n=68 v=110
519470 Off ch=3 n=68 v=110
519480 On ch=3 n=66 v=110
519590 Off ch=3 n=66 v=110
519600 On ch=3 n=63 v=110
519830 Off ch=3 n=63 v=110
519840 On ch=3 n=62 v=110
520070 Off ch=3 n=62 v=110
520080 On ch=3 n=61 v=110
520310 Off ch=3 n=61 v=110
520320 On ch=3 n=60 v=110
520550 Off ch=3 n=60 v=110
520560 On ch=3 n=59 v=110
520790 Off ch=3 n=59 v=110
520800 On ch=3 n=56 v=110
521030 Off ch=3 n=56 v=110
521040 Pb ch=3 v=6827
521040 On ch=3 n=56 v=110
521160 Pb ch=3 v=8192
521270 Off ch=3 n=56 v=110
521280 On ch=3 n=56 v=110
521390 Off ch=3 n=56 v=110
521400 On ch=3 n=56 v=110
521510 Off ch=3 n=56 v=110
521520 On ch=3 n=56 v=110
521750 Off ch=3 n=56 v=110
521760 Pb ch=3 v=6827
521760 On ch=3 n=56 v=110
521880 Pb ch=3 v=8192
521990 Off ch=3 n=56 v=110
522000 On ch=3 n=56 v=100
522110 Off ch=3 n=56 v=100
522120 On ch=3 n=56 v=100
522230 Off ch=3 n=56 v=100
522240 On ch=3 n=56 v=100
522350 Off ch=3 n=56 v=100
522360 On ch=3 n=54 v=100
522470 Off ch=3 n=54 v=100
522480 On ch=3 n=51 v=100
522710 Off ch=3 n=51 v=100
522720 On ch=3 n=50 v=100
522950 Off ch=3 n=50 v=100
522960 On ch=3 n=49 v=100
523190 Off ch=3 n=49 v=100
523200 On ch=3 n=48 v=100
523430 Off ch=3 n=48 v=100
523440 On ch=3 n=47 v=100
523670 Off ch=3 n=47 v=100
523680 On ch=3 n=46 v=118
523910 Off ch=3 n=46 v=118
523920 Par ch=3 c=99 v=1
523920 Par ch=3 c=98 v=33
523920 Par ch=3 c=6 v=100
523920 Par ch=3 c=38 v=0
523920 Par ch=3 c=99 v=1
523920 Par ch=3 c=98 v=32
523920 Par ch=3 c=6 v=50
523920 Par ch=3 c=38 v=0
523920 On ch=3 n=75 v=66
524010 Off ch=3 n=75 v=66
524040 On ch=3 n=73 v=66
524130 Off ch=3 n=73 v=66
524160 On ch=3 n=74 v=66
524250 Off ch=3 n=74 v=66
524280 On ch=3 n=80 v=66
524370 Off ch=3 n=80 v=66
524400 On ch=3 n=78 v=66
524490 Off ch=3 n=78 v=66
524520 On ch=3 n=79 v=66
524610 Off ch=3 n=79 v=66
524640 On ch=3 n=87 v=66
524860 Off ch=3 n=87 v=66
524880 On ch=3 n=82 v=66
525060 Off ch=3 n=82 v=66
525120 On ch=3 n=75 v=66
525210 Off ch=3 n=75 v=66
525240 On ch=3 n=73 v=66
525330 Off ch=3 n=73 v=66
525360 On ch=3 n=74 v=66
525450 Off ch=3 n=74 v=66
525480 On ch=3 n=75 v=66
525570 Off ch=3 n=75 v=66
525600 On ch=3 n=73 v=66
525690 Off ch=3 n=73 v=66
525720 On ch=3 n=74 v=66
525810 Off ch=3 n=74 v=66
525840 On ch=3 n=70 v=70
526040 Off ch=3 n=70 v=70
526320 On ch=3 n=75 v=66
526410 Off ch=3 n=75 v=66
526440 On ch=3 n=73 v=66
526530 Off ch=3 n=73 v=66
526560 On ch=3 n=74 v=66
526650 Off ch=3 n=74 v=66
526680 On ch=3 n=80 v=66
526770 Off ch=3 n=80 v=66
526800 On ch=3 n=78 v=66
526890 Off ch=3 n=78 v=66
526920 On ch=3 n=79 v=66
527010 Off ch=3 n=79 v=66
527040 On ch=3 n=87 v=66
527260 Off ch=3 n=87 v=66
527280 On ch=3 n=82 v=66
527460 Off ch=3 n=82 v=66
527520 On ch=3 n=87 v=66
527610 Off ch=3 n=87 v=66
527640 On ch=3 n=88 v=66
527730 Off ch=3 n=88 v=66
527760 On ch=3 n=89 v=66
527850 Off ch=3 n=89 v=66
527880 On ch=3 n=90 v=66
527970 Off ch=3 n=90 v=66
528000 On ch=3 n=91 v=66
528090 Off ch=3 n=91 v=66
528120 On ch=3 n=92 v=66
528210 Off ch=3 n=92 v=66
528240 On ch=3 n=93 v=70
528440 Off ch=3 n=93 v=70
528590 Par ch=3 c=0 v=0
528590 Par ch=3 c=32 v=0
528590 PrCh ch=3 p=30
528720 Par ch=3 c=99 v=1
528720 Par ch=3 c=98 v=33
528720 Par ch=3 c=6 v=64
528720 Par ch=3 c=38 v=0
528720 Par ch=3 c=99 v=1
528720 Par ch=3 c=98 v=32
528720 Par ch=3 c=6 v=64
528720 Par ch=3 c=38 v=0
528720 Pb ch=3 v=6827
528720 On ch=3 n=56 v=110
528840 Pb ch=3 v=8192
528950 Off ch=3 n=56 v=110
528960 Par ch=3 c=11 v=100
528960 On ch=3 n=56 v=110
529070 Off ch=3 n=56 v=110
529080 On ch=3 n=56 v=110
529190 Off ch=3 n=56 v=110
529200 On ch=3 n=56 v=110
529310 Off ch=3 n=56 v=110
529320 On ch=3 n=56 v=110
529430 Off ch=3 n=56 v=110
529440 Pb ch=3 v=6827
529445 On ch=3 n=56 v=110
529560 Pb ch=3 v=8192
529675 Off ch=3 n=56 v=110
529680 On ch=3 n=56 v=110
529790 Off ch=3 n=56 v=110
529800 On ch=3 n=56 v=110
529910 Off ch=3 n=56 v=110
529920 On ch=3 n=56 v=110
530030 Off ch=3 n=56 v=110
530040 On ch=3 n=56 v=110
530150 Off ch=3 n=56 v=110
530160 On ch=3 n=59 v=110
530390 Off ch=3 n=59 v=110
530400 On ch=3 n=60 v=110
530630 Off ch=3 n=60 v=110
530640 On ch=3 n=61 v=110
530870 Off ch=3 n=61 v=110
530880 On ch=3 n=62 v=110
531110 Off ch=3 n=62 v=110
531120 On ch=3 n=63 v=110
531350 Off ch=3 n=63 v=110
531360 On ch=3 n=66 v=110
531590 Off ch=3 n=66 v=110
531600 Pb ch=3 v=6827
531600 On ch=3 n=56 v=110
531720 Pb ch=3 v=8192
531830 Off ch=3 n=56 v=110
531840 On ch=3 n=56 v=110
531950 Off ch=3 n=56 v=110
531960 On ch=3 n=56 v=110
532070 Off ch=3 n=56 v=110
532080 On ch=3 n=56 v=110
532310 Off ch=3 n=56 v=110
532320 Pb ch=3 v=6827
532320 On ch=3 n=56 v=110
532440 Pb ch=3 v=8192
532550 Off ch=3 n=56 v=110
532560 On ch=3 n=56 v=110
532670 Off ch=3 n=56 v=110
532680 On ch=3 n=56 v=110
532790 Off ch=3 n=56 v=110
532800 On ch=3 n=56 v=110
532910 Off ch=3 n=56 v=110
532920 On ch=3 n=54 v=110
533030 Off ch=3 n=54 v=110
533040 On ch=3 n=51 v=110
533270 Off ch=3 n=51 v=110
533280 On ch=3 n=50 v=110
533510 Off ch=3 n=50 v=110
533520 On ch=3 n=49 v=110
533750 Off ch=3 n=49 v=110
533760 On ch=3 n=48 v=110
533990 Off ch=3 n=48 v=110
534000 On ch=3 n=47 v=110
534230 Off ch=3 n=47 v=110
534240 On ch=3 n=46 v=110
534470 Off ch=3 n=46 v=110
539040 Par ch=3 c=99 v=1
539040 Par ch=3 c=98 v=33
539040 Par ch=3 c=6 v=100
539040 Par ch=3 c=38 v=0
539040 Par ch=3 c=7 v=94
539150 Par ch=3 c=0 v=8
539150 Par ch=3 c=32 v=0
539150 PrCh ch=3 p=30
539160 Par ch=3 c=99 v=1
539160 Par ch=3 c=98 v=32
539160 Par ch=3 c=6 v=47
539160 Par ch=3 c=38 v=0
539250 On ch=3 n=92 v=100
539270 Par ch=3 c=0 v=0
539270 Par ch=3 c=32 v=0
539270 PrCh ch=3 p=27
539270 Pb ch=3 v=8192
539270 Par ch=3 c=10 v=72
539290 Pb ch=3 v=8253
539310 Pb ch=3 v=8267
539310 On ch=3 n=90 v=97
539330 Pb ch=3 v=8280
539330 Off ch=3 n=92 v=100
539350 Pb ch=3 v=8287
539370 Pb ch=3 v=8294
539390 Pb ch=3 v=8301
539430 Pb ch=3 v=8308
539470 Pb ch=3 v=8314
539490 Pb ch=3 v=8321
539510 Pb ch=3 v=8321
539510 Par ch=3 c=10 v=63
539550 Pb ch=3 v=8314
539590 Pb ch=3 v=8308
539610 Pb ch=3 v=8301
539650 Pb ch=3 v=8287
539670 Pb ch=3 v=8273
539690 Pb ch=3 v=8260
539710 Pb ch=3 v=8246
539730 Pb ch=3 v=8110
539750 Par ch=3 c=0 v=0
539750 Par ch=3 c=32 v=0
539750 PrCh ch=3 p=29
539750 Pb ch=3 v=8192
539750 Par ch=3 c=10 v=54
539990 Pb ch=3 v=8192
539990 Par ch=3 c=10 v=45
540137 Off ch=3 n=90 v=97
540190 On ch=3 n=87 v=79
540230 Par ch=3 c=10 v=36
540270 On ch=3 n=85 v=96
540270 Off ch=3 n=87 v=79
540470 Par ch=3 c=10 v=27
541163 Off ch=3 n=85 v=96
541170 On ch=3 n=85 v=79
541210 On ch=3 n=87 v=93
541250 Off ch=3 n=85 v=79
541440 Off ch=3 n=87 v=93
541920 On ch=3 n=87 v=95
542620 Off ch=3 n=87 v=95
542640 On ch=3 n=83 v=92
542860 Off ch=3 n=83 v=92
543120 On ch=3 n=78 v=95
543470 Pb ch=3 v=8192
543490 Pb ch=3 v=8178
543500 Off ch=3 n=78 v=95
543510 Pb ch=3 v=8164
543530 Pb ch=3 v=8151
543550 Pb ch=3 v=8137
543570 Pb ch=3 v=8123
543590 Pb ch=3 v=8110
543600 On ch=3 n=76 v=90
543610 Pb ch=3 v=8096
543630 Pb ch=3 v=8082
543650 Pb ch=3 v=8069
543670 Pb ch=3 v=8055
543690 Pb ch=3 v=8041
543710 Pb ch=3 v=8192
543810 Off ch=3 n=76 v=90
543840 On ch=3 n=75 v=95
543950 Pb ch=3 v=8192
544880 Off ch=3 n=75 v=95
545030 Par ch=3 c=0 v=0
545030 Par ch=3 c=32 v=0
545030 PrCh ch=3 p=30
545040 On ch=3 n=78 v=95
545240 Off ch=3 n=78 v=95
545270 Par ch=3 c=0 v=0
545270 Par ch=3 c=32 v=0
545270 PrCh ch=3 p=29
545770 On ch=3 n=71 v=95
546190 Off ch=3 n=71 v=95
546240 On ch=3 n=71 v=89
546350 Pb ch=3 v=8192
546370 Pb ch=3 v=8171
546390 Pb ch=3 v=8151
546410 Pb ch=3 v=8130
546430 Pb ch=3 v=8110
546450 Pb ch=3 v=8089
546450 Off ch=3 n=71 v=89
546460 On ch=3 n=76 v=85
546470 Pb ch=3 v=8062
546490 Pb ch=3 v=8041
546510 Pb ch=3 v=8021
546530 Pb ch=3 v=8000
546550 Pb ch=3 v=7980
546570 Pb ch=3 v=7959
546590 Pb ch=3 v=8192
546680 Off ch=3 n=76 v=85
546720 On ch=3 n=75 v=89
546830 Pb ch=3 v=8192
546950 Off ch=3 n=75 v=89
546960 On ch=3 n=73 v=88
547180 Off ch=3 n=73 v=88
547200 On ch=3 n=71 v=92
547410 Off ch=3 n=71 v=92
547440 On ch=3 n=68 v=91
547900 Off ch=3 n=68 v=91
547920 On ch=3 n=66 v=98
548360 Off ch=3 n=66 v=98
548400 On ch=3 n=68 v=92
548610 Off ch=3 n=68 v=92
548640 On ch=3 n=71 v=95
549120 Off ch=3 n=71 v=95
549120 On ch=3 n=71 v=95
549540 Off ch=3 n=71 v=95
549600 On ch=3 n=73 v=95
550030 Off ch=3 n=73 v=95
550080 On ch=3 n=76 v=91
550300 Off ch=3 n=76 v=91
550320 On ch=3 n=76 v=95
550720 Off ch=3 n=76 v=95
550800 On ch=3 n=75 v=90
551030 Off ch=3 n=75 v=90
551520 On ch=3 n=73 v=95
551700 Off ch=3 n=73 v=95
552240 On ch=3 n=71 v=95
552420 Off ch=3 n=71 v=95
552960 On ch=3 n=73 v=95
553500 Off ch=3 n=73 v=95
561710 Par ch=3 c=0 v=0
561710 Par ch=3 c=32 v=0
561710 PrCh ch=3 p=49
561710 Par ch=3 c=7 v=109
570350 Par ch=3 c=0 v=0
570350 Par ch=3 c=32 v=0
570350 PrCh ch=3 p=29
572270 Pb ch=3 v=8192
572310 Pb ch=3 v=8178
572330 Pb ch=3 v=8171
572350 Pb ch=3 v=8157
572370 Pb ch=3 v=8144
572390 Par ch=3 c=7 v=95
572390 Pb ch=3 v=8137
572400 Par ch=3 c=99 v=1
572400 Par ch=3 c=98 v=32
572400 Par ch=3 c=6 v=64
572400 Par ch=3 c=38 v=0
572400 Par ch=3 c=99 v=1
572400 Par ch=3 c=98 v=33
572400 Par ch=3 c=6 v=64
572400 Par ch=3 c=38 v=0
572400 On ch=3 n=73 v=111
572410 Pb ch=3 v=8116
572430 Pb ch=3 v=8096
572450 Pb ch=3 v=8075
572470 Pb ch=3 v=8041
572490 Pb ch=3 v=7782
572510 Pb ch=3 v=8192
572550 Pb ch=3 v=8185
572590 Pb ch=3 v=8178
572610 Pb ch=3 v=8171
572610 Off ch=3 n=73 v=111
572630 Pb ch=3 v=8164
572630 On ch=3 n=70 v=106
572650 Pb ch=3 v=8157
572670 Pb ch=3 v=8144
572690 Pb ch=3 v=8137
572710 Pb ch=3 v=8116
572730 Pb ch=3 v=7987
572750 Pb ch=3 v=8192
572830 Off ch=3 n=70 v=106
572880 On ch=3 n=66 v=111
573090 Off ch=3 n=66 v=111
573120 On ch=3 n=75 v=110
573320 Off ch=3 n=75 v=110
573350 On ch=3 n=72 v=106
573530 Off ch=3 n=72 v=106
573600 On ch=3 n=68 v=114
573710 Pb ch=3 v=8192
573750 Pb ch=3 v=8185
573770 Pb ch=3 v=8178
573790 Pb ch=3 v=8171
573790 Off ch=3 n=68 v=114
573810 Pb ch=3 v=8157
573830 Pb ch=3 v=8151
573840 On ch=3 n=70 v=108
573850 Pb ch=3 v=8137
573870 Pb ch=3 v=8123
573890 Pb ch=3 v=8103
573910 Pb ch=3 v=8075
573930 Pb ch=3 v=7877
573950 Pb ch=3 v=8192
574040 Off ch=3 n=70 v=108
574080 On ch=3 n=66 v=109
574190 Pb ch=3 v=8192
574270 Off ch=3 n=66 v=109
574320 On ch=3 n=63 v=111
574520 Off ch=3 n=63 v=111
574560 On ch=3 n=72 v=114
574670 Pb ch=3 v=8192
574710 Pb ch=3 v=8185
574730 Pb ch=3 v=8178
574760 Off ch=3 n=72 v=114
574770 Pb ch=3 v=8164
574790 Pb ch=3 v=8157
574800 On ch=3 n=68 v=105
574810 Pb ch=3 v=8151
574830 Pb ch=3 v=8137
574850 Pb ch=3 v=8123
574870 Pb ch=3 v=8110
574890 Pb ch=3 v=7959
574910 Pb ch=3 v=8192
574990 Off ch=3 n=68 v=105
575040 On ch=3 n=65 v=111
575150 Pb ch=3 v=8192
575250 Off ch=3 n=65 v=111
575280 On ch=3 n=70 v=110
575480 Off ch=3 n=70 v=110
575520 On ch=3 n=66 v=112
575710 Off ch=3 n=66 v=112
575750 On ch=3 n=63 v=111
575960 Off ch=3 n=63 v=111
576000 On ch=3 n=60 v=113
576200 Off ch=3 n=60 v=113
576240 On ch=3 n=58 v=112
576590 Pb ch=3 v=8192
576630 Pb ch=3 v=8178
576650 Pb ch=3 v=8171
576670 Pb ch=3 v=8157
576670 Off ch=3 n=58 v=112
576690 Pb ch=3 v=8144
576710 Pb ch=3 v=8137
576720 On ch=3 n=73 v=111
576730 Pb ch=3 v=8116
576750 Pb ch=3 v=8096
576770 Pb ch=3 v=8075
576790 Pb ch=3 v=8041
576810 Pb ch=3 v=7782
576830 Pb ch=3 v=8192
576870 Pb ch=3 v=8185
576910 Pb ch=3 v=8178
576930 Pb ch=3 v=8171
576930 Off ch=3 n=73 v=111
576950 Pb ch=3 v=8164
576950 On ch=3 n=70 v=106
576970 Pb ch=3 v=8157
576990 Pb ch=3 v=8144
577010 Pb ch=3 v=8137
577030 Pb ch=3 v=8116
577050 Pb ch=3 v=7987
577070 Pb ch=3 v=8192
577150 Off ch=3 n=70 v=106
577200 On ch=3 n=66 v=111
577410 Off ch=3 n=66 v=111
577440 On ch=3 n=75 v=110
577640 Off ch=3 n=75 v=110
577670 On ch=3 n=72 v=106
577850 Off ch=3 n=72 v=106
577920 On ch=3 n=68 v=114
578030 Pb ch=3 v=8192
578070 Pb ch=3 v=8185
578090 Pb ch=3 v=8178
578110 Pb ch=3 v=8171
578110 Off ch=3 n=68 v=114
578130 Pb ch=3 v=8157
578150 Pb ch=3 v=8151
578160 On ch=3 n=70 v=108
578170 Pb ch=3 v=8137
578190 Pb ch=3 v=8123
578210 Pb ch=3 v=8103
578230 Pb ch=3 v=8075
578250 Pb ch=3 v=7877
578270 Pb ch=3 v=8192
578360 Off ch=3 n=70 v=108
578400 On ch=3 n=66 v=109
578510 Pb ch=3 v=8192
578590 Off ch=3 n=66 v=109
578640 On ch=3 n=63 v=111
578840 Off ch=3 n=63 v=111
578880 On ch=3 n=72 v=114
578990 Pb ch=3 v=8192
579030 Pb ch=3 v=8185
579050 Pb ch=3 v=8178
579080 Off ch=3 n=72 v=114
579090 Pb ch=3 v=8164
579110 Pb ch=3 v=8157
579120 On ch=3 n=68 v=105
579130 Pb ch=3 v=8151
579150 Pb ch=3 v=8137
579170 Pb ch=3 v=8123
579190 Pb ch=3 v=8110
579210 Pb ch=3 v=7959
579230 Pb ch=3 v=8192
579310 Off ch=3 n=68 v=105
579360 On ch=3 n=65 v=111
579570 Off ch=3 n=65 v=111
579600 On ch=3 n=70 v=111
579800 Off ch=3 n=70 v=111
579830 On ch=3 n=66 v=98
580040 Off ch=3 n=66 v=98
580080 On ch=3 n=63 v=110
580280 Off ch=3 n=63 v=110
580320 On ch=3 n=60 v=112
580520 Off ch=3 n=60 v=112
580560 On ch=3 n=58 v=92
584110 Off ch=3 n=58 v=92
585120 On ch=3 n=73 v=91
585120 On ch=3 n=83 v=59
585120 On ch=3 n=68 v=59
585120 On ch=3 n=56 v=75
585120 On ch=3 n=77 v=75
587280 Off ch=3 n=73 v=91
587280 Off ch=3 n=83 v=59
587280 Off ch=3 n=68 v=59
587280 Off ch=3 n=56 v=75
587280 Off ch=3 n=77 v=75
590990 Pb ch=3 v=8192
591030 Pb ch=3 v=8178
591050 Pb ch=3 v=8171
591070 Pb ch=3 v=8157
591090 Pb ch=3 v=8144
591110 Pb ch=3 v=8137
591120 Par ch=3 c=99 v=1
591120 Par ch=3 c=98 v=32
591120 Par ch=3 c=6 v=64
591120 Par ch=3 c=38 v=0
591120 Par ch=3 c=99 v=1
591120 Par ch=3 c=98 v=33
591120 Par ch=3 c=6 v=64
591120 Par ch=3 c=38 v=0
591120 On ch=3 n=73 v=108
591130 Pb ch=3 v=8116
591150 Pb ch=3 v=8096
591170 Pb ch=3 v=8075
591190 Pb ch=3 v=8041
591210 Pb ch=3 v=7782
591230 Pb ch=3 v=8192
591270 Pb ch=3 v=8185
591310 Pb ch=3 v=8178
591330 Pb ch=3 v=8171
591350 Pb ch=3 v=8164
591350 Off ch=3 n=73 v=108
591350 On ch=3 n=70 v=104
591370 Pb ch=3 v=8157
591390 Pb ch=3 v=8144
591410 Pb ch=3 v=8137
591430 Pb ch=3 v=8116
591450 Pb ch=3 v=7987
591470 Pb ch=3 v=8192
591540 Off ch=3 n=70 v=104
591600 On ch=3 n=66 v=111
591790 Off ch=3 n=66 v=111
591840 On ch=3 n=75 v=110
592040 Off ch=3 n=75 v=110
592070 On ch=3 n=72 v=105
592250 Off ch=3 n=72 v=105
592320 On ch=3 n=68 v=114
592430 Pb ch=3 v=8192
592470 Pb ch=3 v=8185
592490 Pb ch=3 v=8178
592500 Off ch=3 n=68 v=114
592510 Pb ch=3 v=8171
592530 Pb ch=3 v=8157
592550 Pb ch=3 v=8151
592560 On ch=3 n=70 v=110
592570 Pb ch=3 v=8137
592590 Pb ch=3 v=8123
592610 Pb ch=3 v=8103
592630 Pb ch=3 v=8075
592650 Pb ch=3 v=7877
592670 Pb ch=3 v=8192
592780 Off ch=3 n=70 v=110
592800 On ch=3 n=66 v=97
592910 Pb ch=3 v=8192
592980 Off ch=3 n=66 v=97
593040 On ch=3 n=63 v=110
593260 Off ch=3 n=63 v=110
593280 On ch=3 n=72 v=107
593390 Pb ch=3 v=8192
593430 Pb ch=3 v=8185
593450 Pb ch=3 v=8178
593470 Off ch=3 n=72 v=107
593490 Pb ch=3 v=8164
593510 Pb ch=3 v=8157
593520 On ch=3 n=68 v=98
593530 Pb ch=3 v=8151
593550 Pb ch=3 v=8137
593570 Pb ch=3 v=8123
593590 Pb ch=3 v=8110
593610 Pb ch=3 v=7959
593630 Pb ch=3 v=8192
593700 Off ch=3 n=68 v=98
593760 On ch=3 n=65 v=111
593980 Off ch=3 n=65 v=111
594000 On ch=3 n=70 v=110
594200 Off ch=3 n=70 v=110
594240 On ch=3 n=66 v=111
594430 Off ch=3 n=66 v=111
594480 On ch=3 n=63 v=109
594670 Off ch=3 n=63 v=109
594720 On ch=3 n=60 v=103
594910 Off ch=3 n=60 v=103
594960 On ch=3 n=58 v=111
595310 Pb ch=3 v=8192
595350 Pb ch=3 v=8178
595370 Pb ch=3 v=8171
595380 Off ch=3 n=58 v=111
595390 Pb ch=3 v=8157
595410 Pb ch=3 v=8144
595430 Pb ch=3 v=8137
595440 On ch=3 n=73 v=111
595450 Pb ch=3 v=8116
595470 Pb ch=3 v=8096
595490 Pb ch=3 v=8075
595510 Pb ch=3 v=8041
595530 Pb ch=3 v=7782
595550 Pb ch=3 v=8192
595590 Pb ch=3 v=8185
595630 Pb ch=3 v=8178
595650 Pb ch=3 v=8171
595650 Off ch=3 n=73 v=111
595670 Pb ch=3 v=8164
595670 On ch=3 n=70 v=106
595690 Pb ch=3 v=8157
595710 Pb ch=3 v=8144
595730 Pb ch=3 v=8137
595750 Pb ch=3 v=8116
595770 Pb ch=3 v=7987
595790 Pb ch=3 v=8192
595870 Off ch=3 n=70 v=106
595920 On ch=3 n=66 v=111
596130 Off ch=3 n=66 v=111
596160 On ch=3 n=75 v=110
596360 Off ch=3 n=75 v=110
596390 On ch=3 n=72 v=106
596570 Off ch=3 n=72 v=106
596640 On ch=3 n=68 v=114
596750 Pb ch=3 v=8192
596790 Pb ch=3 v=8185
596810 Pb ch=3 v=8178
596830 Pb ch=3 v=8171
596830 Off ch=3 n=68 v=114
596850 Pb ch=3 v=8157
596870 Pb ch=3 v=8151
596880 On ch=3 n=70 v=108
596890 Pb ch=3 v=8137
596910 Pb ch=3 v=8123
596930 Pb ch=3 v=8103
596950 Pb ch=3 v=8075
596970 Pb ch=3 v=7877
596990 Pb ch=3 v=8192
597080 Off ch=3 n=70 v=108
597120 On ch=3 n=66 v=109
597230 Pb ch=3 v=8192
597310 Off ch=3 n=66 v=109
597360 On ch=3 n=63 v=111
597560 Off ch=3 n=63 v=111
597600 On ch=3 n=72 v=114
597710 Pb ch=3 v=8192
597750 Pb ch=3 v=8185
597770 Pb ch=3 v=8178
597800 Off ch=3 n=72 v=114
597810 Pb ch=3 v=8164
597830 Pb ch=3 v=8157
597840 On ch=3 n=68 v=105
597850 Pb ch=3 v=8151
597870 Pb ch=3 v=8137
597890 Pb ch=3 v=8123
597910 Pb ch=3 v=8110
597930 Pb ch=3 v=7959
597950 Pb ch=3 v=8192
598030 Off ch=3 n=68 v=105
598080 On ch=3 n=65 v=111
598290 Off ch=3 n=65 v=111
598320 On ch=3 n=70 v=110
598520 Off ch=3 n=70 v=110
598560 On ch=3 n=66 v=111
598750 Off ch=3 n=66 v=111
598800 On ch=3 n=63 v=109
598990 Off ch=3 n=63 v=109
599040 On ch=3 n=60 v=103
599230 Off ch=3 n=60 v=103
599280 On ch=3 n=58 v=111
599700 Off ch=3 n=58 v=111
599760 Par ch=3 c=99 v=1
599760 Par ch=3 c=98 v=33
599760 Par ch=3 c=6 v=80
599760 Par ch=3 c=38 v=0
599760 Par ch=3 c=99 v=1
599760 Par ch=3 c=98 v=32
599760 Par ch=3 c=6 v=50
599760 Par ch=3 c=38 v=0
599760 On ch=3 n=63 v=70
599760 On ch=3 n=75 v=85
599990 Off ch=3 n=63 v=70
599990 Off ch=3 n=75 v=85
600000 Pb ch=3 v=7509
600000 On ch=3 n=64 v=70
600000 On ch=3 n=76 v=85
600120 Pb ch=3 v=8192
600230 Par ch=3 c=10 v=0
600230 Off ch=3 n=64 v=70
600230 Off ch=3 n=76 v=85
600480 On ch=3 n=63 v=70
600480 On ch=3 n=75 v=85
600710 Off ch=3 n=63 v=70
600710 Off ch=3 n=75 v=85
600960 On ch=3 n=61 v=70
600960 On ch=3 n=73 v=85
601190 Off ch=3 n=61 v=70
601190 Off ch=3 n=73 v=85
601200 Pb ch=3 v=6827
601200 On ch=3 n=63 v=70
601200 On ch=3 n=75 v=85
601320 Pb ch=3 v=7509
601340 Pb ch=3 v=8192
601500 Off ch=3 n=63 v=70
601500 Off ch=3 n=75 v=85
601680 On ch=3 n=68 v=85
601910 Off ch=3 n=68 v=85
602160 On ch=3 n=54 v=70
602160 On ch=3 n=78 v=85
602390 Off ch=3 n=54 v=70
602390 Off ch=3 n=78 v=85
602400 Pb ch=3 v=6827
602400 On ch=3 n=56 v=70
602400 On ch=3 n=80 v=85
602440 Pb ch=3 v=7509
602460 Pb ch=3 v=8192
602630 Off ch=3 n=56 v=70
602630 Off ch=3 n=80 v=85
602880 On ch=3 n=54 v=70
602880 On ch=3 n=78 v=85
603110 Off ch=3 n=54 v=70
603110 Off ch=3 n=78 v=85
603360 On ch=3 n=52 v=70
603360 On ch=3 n=76 v=85
603590 Off ch=3 n=52 v=70
603590 Off ch=3 n=76 v=85
603600 Pb ch=3 v=6827
603600 On ch=3 n=78 v=85
603600 On ch=3 n=54 v=70
603760 Pb ch=3 v=7509
603800 Pb ch=3 v=8192
603900 Off ch=3 n=78 v=85
603900 Off ch=3 n=54 v=70
604080 On ch=3 n=75 v=85
604080 On ch=3 n=51 v=70
604310 Off ch=3 n=75 v=85
604310 Off ch=3 n=51 v=70
611280 Par ch=3 c=99 v=1
611280 Par ch=3 c=98 v=32
611280 Par ch=3 c=6 v=64
611280 Par ch=3 c=38 v=0
611760 Par ch=3 c=99 v=1
611760 Par ch=3 c=98 v=33
611760 Par ch=3 c=6 v=64
611760 Par ch=3 c=38 v=0
612240 On ch=3 n=80 v=107
612430 Off ch=3 n=80 v=107
612480 On ch=3 n=75 v=107
612670 Off ch=3 n=75 v=107
612720 On ch=3 n=71 v=107
612910 Off ch=3 n=71 v=107
612960 On ch=3 n=70 v=107
613370 Off ch=3 n=70 v=107
613440 On ch=3 n=73 v=107
613630 Off ch=3 n=73 v=107
613680 On ch=3 n=71 v=107
614050 Off ch=3 n=71 v=107
614160 On ch=3 n=75 v=107
614340 Off ch=3 n=75 v=107
614400 On ch=3 n=73 v=107
614770 Off ch=3 n=73 v=107
614880 On ch=3 n=78 v=107
615060 Off ch=3 n=78 v=107
615120 On ch=3 n=76 v=109
615210 Off ch=3 n=76 v=109
615240 On ch=3 n=78 v=112
615340 Off ch=3 n=78 v=112
615360 On ch=3 n=76 v=110
615420 Off ch=3 n=76 v=110
615430 On ch=3 n=78 v=100
615490 Off ch=3 n=78 v=100
615520 On ch=3 n=76 v=108
615580 Off ch=3 n=76 v=108
615600 On ch=3 n=87 v=111
615800 Off ch=3 n=87 v=111
616320 On ch=3 n=85 v=114
616510 Off ch=3 n=85 v=114
625200 KeySig 1 major
625200 Pb ch=3 v=6827
625200 On ch=3 n=51 v=110
625320 Pb ch=3 v=8192
625430 Off ch=3 n=51 v=110
625440 Par ch=3 c=11 v=100
625440 On ch=3 n=51 v=110
625550 Off ch=3 n=51 v=110
625560 On ch=3 n=51 v=110
625670 Off ch=3 n=51 v=110
625680 On ch=3 n=51 v=110
625790 Off ch=3 n=51 v=110
625800 On ch=3 n=51 v=110
625910 Off ch=3 n=51 v=110
625920 Pb ch=3 v=6827
625925 On ch=3 n=51 v=110
626040 Pb ch=3 v=8192
626155 Off ch=3 n=51 v=110
626160 On ch=3 n=51 v=110
626270 Off ch=3 n=51 v=110
626280 On ch=3 n=51 v=110
626390 Off ch=3 n=51 v=110
626400 On ch=3 n=51 v=110
626510 Off ch=3 n=51 v=110
626520 On ch=3 n=51 v=110
626630 Off ch=3 n=51 v=110
626640 On ch=3 n=54 v=110
626870 Off ch=3 n=54 v=110
626880 On ch=3 n=55 v=110
627110 Off ch=3 n=55 v=110
627120 On ch=3 n=56 v=110
627350 Off ch=3 n=56 v=110
627360 On ch=3 n=57 v=110
627590 Off ch=3 n=57 v=110
627600 On ch=3 n=58 v=110
627830 Off ch=3 n=58 v=110
627840 On ch=3 n=61 v=110
628070 Off ch=3 n=61 v=110
628080 Pb ch=3 v=6827
628080 On ch=3 n=63 v=110
628200 Pb ch=3 v=8192
628310 Off ch=3 n=63 v=110
628320 On ch=3 n=63 v=110
628430 Off ch=3 n=63 v=110
628440 On ch=3 n=63 v=110
628550 Off ch=3 n=63 v=110
628560 On ch=3 n=63 v=110
628790 Off ch=3 n=63 v=110
628800 Pb ch=3 v=6827
628800 On ch=3 n=63 v=110
628920 Pb ch=3 v=8192
629030 Off ch=3 n=63 v=110
629040 On ch=3 n=63 v=110
629150 Off ch=3 n=63 v=110
629160 On ch=3 n=63 v=110
629270 Off ch=3 n=63 v=110
629280 On ch=3 n=63 v=110
629390 Off ch=3 n=63 v=110
629400 On ch=3 n=61 v=110
629510 Off ch=3 n=61 v=110
629520 On ch=3 n=58 v=110
629750 Off ch=3 n=58 v=110
629760 On ch=3 n=57 v=110
629990 Off ch=3 n=57 v=110
630000 On ch=3 n=56 v=110
630230 Off ch=3 n=56 v=110
630240 On ch=3 n=55 v=110
630470 Off ch=3 n=55 v=110
630480 On ch=3 n=54 v=110
630710 Off ch=3 n=54 v=110
630720 On ch=3 n=51 v=110
630950 Off ch=3 n=51 v=110
630960 KeySig 0 major
630960 On ch=3 n=73 v=110
631197 Off ch=3 n=73 v=110
631200 On ch=3 n=70 v=110
631437 Off ch=3 n=70 v=110
631440 On ch=3 n=66 v=111
631677 Off ch=3 n=66 v=111
631680 On ch=3 n=75 v=111
631920 Off ch=3 n=75 v=111
631920 On ch=3 n=72 v=111
632160 Off ch=3 n=72 v=111
632160 On ch=3 n=68 v=110
632393 Off ch=3 n=68 v=110
632400 On ch=3 n=70 v=111
632640 Off ch=3 n=70 v=111
632640 On ch=3 n=66 v=111
632877 Off ch=3 n=66 v=111
632880 On ch=3 n=63 v=111
633117 Off ch=3 n=63 v=111
633120 On ch=3 n=72 v=111
633360 Off ch=3 n=72 v=111
633360 On ch=3 n=68 v=110
633593 Off ch=3 n=68 v=110
633600 On ch=3 n=65 v=112
633837 Off ch=3 n=65 v=112
633840 On ch=3 n=70 v=112
634080 On ch=3 n=66 v=110
634084 Off ch=3 n=70 v=112
634298 Off ch=3 n=66 v=110
634320 On ch=3 n=63 v=111
634560 Off ch=3 n=63 v=111
634560 On ch=3 n=60 v=111
634781 Off ch=3 n=60 v=111
634800 On ch=3 n=58 v=111
635160 Off ch=3 n=58 v=111
635280 On ch=3 n=73 v=110
635517 Off ch=3 n=73 v=110
635520 On ch=3 n=70 v=110
635757 Off ch=3 n=70 v=110
635760 On ch=3 n=66 v=111
635997 Off ch=3 n=66 v=111
636000 On ch=3 n=75 v=111
636240 Off ch=3 n=75 v=111
636240 On ch=3 n=72 v=111
636480 Off ch=3 n=72 v=111
636480 On ch=3 n=68 v=110
636713 Off ch=3 n=68 v=110
636720 On ch=3 n=70 v=111
636960 Off ch=3 n=70 v=111
636960 On ch=3 n=66 v=111
637197 Off ch=3 n=66 v=111
637200 On ch=3 n=63 v=111
637437 Off ch=3 n=63 v=111
637440 On ch=3 n=72 v=111
637680 Off ch=3 n=72 v=111
637680 On ch=3 n=68 v=110
637913 Off ch=3 n=68 v=110
637920 On ch=3 n=65 v=112
638157 Off ch=3 n=65 v=112
638160 On ch=3 n=70 v=112
638400 On ch=3 n=66 v=110
638404 Off ch=3 n=70 v=112
638618 Off ch=3 n=66 v=110
638640 On ch=3 n=63 v=111
638880 Off ch=3 n=63 v=111
638880 On ch=3 n=60 v=111
639101 Off ch=3 n=60 v=111
639120 On ch=3 n=58 v=111
639480 Off ch=3 n=58 v=111
639600 On ch=3 n=73 v=110
639837 Off ch=3 n=73 v=110
639840 On ch=3 n=70 v=110
640077 Off ch=3 n=70 v=110
640080 On ch=3 n=66 v=111
640317 Off ch=3 n=66 v=111
640320 On ch=3 n=75 v=111
640560 Off ch=3 n=75 v=111
640560 On ch=3 n=72 v=111
640800 Off ch=3 n=72 v=111
640800 On ch=3 n=68 v=110
641033 Off ch=3 n=68 v=110
641040 On ch=3 n=70 v=111
641280 Off ch=3 n=70 v=111
641280 On ch=3 n=66 v=111
641517 Off ch=3 n=66 v=111
641520 On ch=3 n=63 v=111
641757 Off ch=3 n=63 v=111
641760 On ch=3 n=72 v=111
642000 Off ch=3 n=72 v=111
642000 On ch=3 n=68 v=110
642233 Off ch=3 n=68 v=110
642240 On ch=3 n=65 v=112
642477 Off ch=3 n=65 v=112
642480 On ch=3 n=70 v=112
642715 Off ch=3 n=70 v=112
642720 On ch=3 n=66 v=111
642928 Off ch=3 n=66 v=111
642960 On ch=3 n=63 v=111
643185 Off ch=3 n=63 v=111
643200 On ch=3 n=60 v=111
643408 Off ch=3 n=60 v=111
643444 On ch=3 n=52 v=90
643900 Off ch=3 n=52 v=90
643920 Par ch=3 c=7 v=64
643920 On ch=3 n=83 v=106
643920 On ch=3 n=76 v=106
643920 On ch=3 n=78 v=106
644120 Off ch=3 n=83 v=106
644120 Off ch=3 n=76 v=106
644120 Off ch=3 n=78 v=106
644160 On ch=3 n=83 v=106
644160 On ch=3 n=76 v=106
644160 On ch=3 n=78 v=106
644360 Off ch=3 n=83 v=106
644360 Off ch=3 n=76 v=106
644360 Off ch=3 n=78 v=106
644400 On ch=3 n=83 v=106
644400 On ch=3 n=76 v=106
644400 On ch=3 n=78 v=106
650640 Off ch=3 n=83 v=106
650640 Off ch=3 n=76 v=106
650640 Off ch=3 n=78 v=106
702480 On ch=3 n=74 v=111
702480 On ch=3 n=67 v=111
702480 On ch=3 n=71 v=111
703920 Off ch=3 n=74 v=111
703920 Off ch=3 n=67 v=111
703920 Off ch=3 n=71 v=111
703920 On ch=3 n=74 v=111
703920 On ch=3 n=71 v=111
703920 On ch=3 n=66 v=111
704880 Off ch=3 n=74 v=111
704880 Off ch=3 n=71 v=111
704880 Off ch=3 n=66 v=111
704880 On ch=3 n=74 v=111
704880 On ch=3 n=71 v=111
704880 On ch=3 n=66 v=111
705360 Off ch=3 n=74 v=111
705360 Off ch=3 n=71 v=111
705360 Off ch=3 n=66 v=111
705364 On ch=3 n=58 v=90
705820 Off ch=3 n=58 v=90
705840 Par ch=3 c=7 v=64
705840 On ch=3 n=82 v=106
705840 On ch=3 n=75 v=106
705840 On ch=3 n=77 v=106
706040 Off ch=3 n=82 v=106
706040 Off ch=3 n=75 v=106
706040 Off ch=3 n=77 v=106
706080 On ch=3 n=82 v=106
706080 On ch=3 n=75 v=106
706080 On ch=3 n=77 v=106
706280 Off ch=3 n=82 v=106
706280 Off ch=3 n=75 v=106
706280 Off ch=3 n=77 v=106
706320 On ch=3 n=82 v=106
706320 On ch=3 n=75 v=106
706320 On ch=3 n=77 v=106
712560 Off ch=3 n=82 v=106
712560 Off ch=3 n=75 v=106
712560 Off ch=3 n=77 v=106
712560 KeySig 4 major
712560 Pb ch=3 v=6827
712560 On ch=3 n=58 v=110
712680 Pb ch=3 v=8192
712790 Off ch=3 n=58 v=110
712800 On ch=3 n=58 v=110
712910 Off ch=3 n=58 v=110
712920 On ch=3 n=58 v=110
713030 Off ch=3 n=58 v=110
713040 On ch=3 n=58 v=110
713270 Off ch=3 n=58 v=110
713280 Pb ch=3 v=6827
713280 On ch=3 n=58 v=110
713400 Pb ch=3 v=8192
713510 Off ch=3 n=58 v=110
713520 On ch=3 n=58 v=110
713630 Off ch=3 n=58 v=110
713640 On ch=3 n=58 v=110
713750 Off ch=3 n=58 v=110
713760 On ch=3 n=58 v=110
713870 Off ch=3 n=58 v=110
713880 On ch=3 n=58 v=110
713990 Off ch=3 n=58 v=110
714000 On ch=3 n=61 v=110
714230 Off ch=3 n=61 v=110
714240 On ch=3 n=62 v=110
714470 Off ch=3 n=62 v=110
714480 On ch=3 n=63 v=110
714710 Off ch=3 n=63 v=110
714720 On ch=3 n=64 v=110
714950 Off ch=3 n=64 v=110
714960 On ch=3 n=65 v=110
715190 Off ch=3 n=65 v=110
715200 On ch=3 n=68 v=110
715430 Off ch=3 n=68 v=110
715440 Pb ch=3 v=6827
715440 On ch=3 n=70 v=110
715560 Pb ch=3 v=8192
715670 Off ch=3 n=70 v=110
715680 On ch=3 n=70 v=110
715790 Off ch=3 n=70 v=110
715800 On ch=3 n=70 v=110
715910 Off ch=3 n=70 v=110
715920 On ch=3 n=70 v=110
716150 Off ch=3 n=70 v=110
716160 Pb ch=3 v=6827
716160 On ch=3 n=70 v=110
716280 Pb ch=3 v=8192
716390 Off ch=3 n=70 v=110
716400 On ch=3 n=70 v=110
716510 Off ch=3 n=70 v=110
716520 On ch=3 n=70 v=110
716630 Off ch=3 n=70 v=110
716640 On ch=3 n=70 v=110
716750 Off ch=3 n=70 v=110
716760 On ch=3 n=70 v=110
716870 Off ch=3 n=70 v=110
716880 On ch=3 n=73 v=110
717110 Off ch=3 n=73 v=110
717120 On ch=3 n=74 v=110
717350 Off ch=3 n=74 v=110
717360 On ch=3 n=75 v=110
717590 Off ch=3 n=75 v=110
717600 On ch=3 n=76 v=110
717830 Off ch=3 n=76 v=110
717840 On ch=3 n=77 v=110
718070 Off ch=3 n=77 v=110
718080 On ch=3 n=80 v=110
718310 Off ch=3 n=80 v=110
718320 KeySig 2 major
718320 Pb ch=3 v=6827
718320 On ch=3 n=82 v=110
718440 Pb ch=3 v=8192
718550 Off ch=3 n=82 v=110
718560 On ch=3 n=82 v=110
718670 Off ch=3 n=82 v=110
718680 On ch=3 n=82 v=110
718790 Off ch=3 n=82 v=110
718800 On ch=3 n=82 v=110
719030 Off ch=3 n=82 v=110
719040 Pb ch=3 v=6827
719040 On ch=3 n=82 v=110
719160 Pb ch=3 v=8192
719270 Off ch=3 n=82 v=110
719280 On ch=3 n=82 v=110
719390 Off ch=3 n=82 v=110
719400 On ch=3 n=82 v=110
719510 Off ch=3 n=82 v=110
719520 On ch=3 n=82 v=110
719630 Off ch=3 n=82 v=110
719640 On ch=3 n=82 v=110
719750 Off ch=3 n=82 v=110
719760 On ch=3 n=85 v=110
719990 Off ch=3 n=85 v=110
720000 On ch=3 n=86 v=110
720230 Off ch=3 n=86 v=110
720240 On ch=3 n=87 v=110
720470 Off ch=3 n=87 v=110
720480 On ch=3 n=88 v=110
720710 Off ch=3 n=88 v=110
720720 On ch=3 n=89 v=110
720950 Off ch=3 n=89 v=110
720960 On ch=3 n=92 v=110
721190 Off ch=3 n=92 v=110
721200 Pb ch=3 v=6827
721320 Pb ch=3 v=8192
721920 Pb ch=3 v=6827
722040 Pb ch=3 v=8192
722160 Meta TrkEnd
TrkEnd
MTrk
0 Meta TrkName "Oboe"
0 Meta 0x20 03
0 Meta InstrName "Oboe"
0 KeySig 0 major
405 Par ch=4 c=0 v=0
410 Par ch=4 c=32 v=0
415 PrCh ch=4 p=68
420 Par ch=4 c=7 v=118
425 Par ch=4 c=10 v=64
430 Par ch=4 c=91 v=64
435 Par ch=4 c=93 v=7
440 Par ch=4 c=101 v=0
440 Par ch=4 c=100 v=0
440 Par ch=4 c=6 v=12
445 Par ch=4 c=99 v=1
445 Par ch=4 c=98 v=8
445 Par ch=4 c=6 v=64
450 Par ch=4 c=99 v=1
450 Par ch=4 c=98 v=9
450 Par ch=4 c=6 v=64
455 Par ch=4 c=99 v=1
455 Par ch=4 c=98 v=10
455 Par ch=4 c=6 v=64
460 Par ch=4 c=99 v=1
460 Par ch=4 c=98 v=32
460 Par ch=4 c=6 v=64
465 Par ch=4 c=99 v=1
465 Par ch=4 c=98 v=33
465 Par ch=4 c=6 v=64
470 Par ch=4 c=99 v=1
470 Par ch=4 c=98 v=99
470 Par ch=4 c=6 v=64
475 Par ch=4 c=99 v=1
475 Par ch=4 c=98 v=100
475 Par ch=4 c=6 v=64
480 Par ch=4 c=99 v=1
480 Par ch=4 c=98 v=102
480 Par ch=4 c=6 v=64
246240 On ch=4 n=58 v=70
246640 Off ch=4 n=58 v=70
246720 On ch=4 n=58 v=70
247120 Off ch=4 n=58 v=70
247200 On ch=4 n=58 v=70
247430 Off ch=4 n=58 v=70
247440 On ch=4 n=58 v=70
248240 Off ch=4 n=58 v=70
248400 On ch=4 n=53 v=70
248630 Off ch=4 n=53 v=70
248640 On ch=4 n=53 v=70
249110 Off ch=4 n=53 v=70
249120 On ch=4 n=61 v=70
249350 Off ch=4 n=61 v=70
249360 On ch=4 n=61 v=70
250540 Off ch=4 n=61 v=70
252000 On ch=4 n=65 v=70
253430 Off ch=4 n=65 v=70
253440 On ch=4 n=65 v=70
254240 Off ch=4 n=65 v=70
254880 On ch=4 n=65 v=70
255830 Off ch=4 n=65 v=70
255840 On ch=4 n=66 v=70
256070 Off ch=4 n=66 v=70
256080 On ch=4 n=65 v=70
256310 Off ch=4 n=65 v=70
256320 On ch=4 n=63 v=70
257270 Off ch=4 n=63 v=70
257280 On ch=4 n=65 v=70
257510 Off ch=4 n=65 v=70
257520 On ch=4 n=65 v=70
257750 Off ch=4 n=65 v=70
257760 On ch=4 n=65 v=70
257990 Off ch=4 n=65 v=70
258000 On ch=4 n=63 v=70
258230 Off ch=4 n=63 v=70
258240 On ch=4 n=63 v=70
260150 Off ch=4 n=63 v=70
263520 On ch=4 n=65 v=70
264240 Off ch=4 n=65 v=70
266400 On ch=4 n=65 v=70
266870 Off ch=4 n=65 v=70
266880 On ch=4 n=65 v=70
267350 Off ch=4 n=65 v=70
269280 On ch=4 n=65 v=70
270710 Off ch=4 n=65 v=70
270720 On ch=4 n=65 v=70
271670 Off ch=4 n=65 v=70
271920 On ch=4 n=65 v=70
272150 Off ch=4 n=65 v=70
272160 On ch=4 n=65 v=70
273110 Off ch=4 n=65 v=70
273120 On ch=4 n=66 v=70
273350 Off ch=4 n=66 v=70
273360 On ch=4 n=65 v=70
273590 Off ch=4 n=65 v=70
273600 On ch=4 n=63 v=70
274550 Off ch=4 n=63 v=70
274560 On ch=4 n=65 v=70
274790 Off ch=4 n=65 v=70
274800 On ch=4 n=61 v=70
275030 Off ch=4 n=61 v=70
275040 On ch=4 n=63 v=70
275990 Off ch=4 n=63 v=70
276000 On ch=4 n=63 v=70
277910 Off ch=4 n=63 v=70
280800 On ch=4 n=58 v=70
281100 Off ch=4 n=58 v=70
281280 On ch=4 n=58 v=70
281510 Off ch=4 n=58 v=70
281520 On ch=4 n=58 v=70
281750 Off ch=4 n=58 v=70
281760 On ch=4 n=58 v=70
282960 Off ch=4 n=58 v=70
283200 On ch=4 n=53 v=70
283430 Off ch=4 n=53 v=70
283440 On ch=4 n=61 v=70
283910 Off ch=4 n=61 v=70
283920 On ch=4 n=61 v=70
285350 Off ch=4 n=61 v=70
286560 On ch=4 n=65 v=70
287990 Off ch=4 n=65 v=70
288000 On ch=4 n=65 v=70
288800 Off ch=4 n=65 v=70
289440 On ch=4 n=65 v=70
290390 Off ch=4 n=65 v=70
290400 On ch=4 n=66 v=70
290630 Off ch=4 n=66 v=70
290640 On ch=4 n=65 v=70
290870 Off ch=4 n=65 v=70
290880 On ch=4 n=63 v=70
291830 Off ch=4 n=63 v=70
291840 On ch=4 n=65 v=70
292070 Off ch=4 n=65 v=70
292080 On ch=4 n=61 v=70
292310 Off ch=4 n=61 v=70
292320 On ch=4 n=63 v=70
293270 Off ch=4 n=63 v=70
293280 On ch=4 n=63 v=70
295190 Off ch=4 n=63 v=70
298080 On ch=4 n=65 v=70
298800 Off ch=4 n=65 v=70
300960 On ch=4 n=66 v=70
301430 Off ch=4 n=66 v=70
301440 On ch=4 n=65 v=70
301910 Off ch=4 n=65 v=70
303840 On ch=4 n=65 v=70
305270 Off ch=4 n=65 v=70
305280 On ch=4 n=65 v=70
306230 Off ch=4 n=65 v=70
306480 On ch=4 n=65 v=70
306710 Off ch=4 n=65 v=70
306720 On ch=4 n=65 v=70
307670 Off ch=4 n=65 v=70
307680 On ch=4 n=66 v=70
307910 Off ch=4 n=66 v=70
307920 On ch=4 n=65 v=70
308150 Off ch=4 n=65 v=70
308160 On ch=4 n=63 v=70
309110 Off ch=4 n=63 v=70
309120 On ch=4 n=65 v=70
309350 Off ch=4 n=65 v=70
309360 On ch=4 n=61 v=70
309590 Off ch=4 n=61 v=70
309600 On ch=4 n=63 v=70
310550 Off ch=4 n=63 v=70
310560 On ch=4 n=63 v=70
312470 Off ch=4 n=63 v=70
313920 On ch=4 n=63 v=70
314390 Off ch=4 n=63 v=70
314400 On ch=4 n=61 v=70
314870 Off ch=4 n=61 v=70
314880 On ch=4 n=60 v=70
315350 Off ch=4 n=60 v=70
315360 On ch=4 n=61 v=70
315830 Off ch=4 n=61 v=70
315840 On ch=4 n=61 v=70
317520 Pb ch=4 v=6827
317520 Off ch=4 n=61 v=70
317520 On ch=4 n=65 v=70
317760 Pb ch=4 v=8192
319190 Off ch=4 n=65 v=70
336480 Par ch=4 c=98 v=32
336490 Par ch=4 c=99 v=1
336500 Par ch=4 c=6 v=40
337920 On ch=4 n=64 v=90
338390 Off ch=4 n=64 v=90
338400 On ch=4 n=64 v=90
338870 Off ch=4 n=64 v=90
338880 On ch=4 n=64 v=90
339110 Off ch=4 n=64 v=90
339120 On ch=4 n=64 v=90
340070 Off ch=4 n=64 v=90
340320 On ch=4 n=59 v=90
340550 Off ch=4 n=59 v=90
340560 On ch=4 n=59 v=90
340790 Off ch=4 n=59 v=90
340800 On ch=4 n=61 v=90
341030 Off ch=4 n=61 v=90
341040 On ch=4 n=61 v=90
341270 Off ch=4 n=61 v=90
341280 On ch=4 n=61 v=90
342960 Pb ch=4 v=8875
343200 Pb ch=4 v=8192
343440 Pb ch=4 v=6827
343680 Par ch=4 c=1 v=20
344880 Par ch=4 c=1 v=0
344880 Off ch=4 n=61 v=90
345110 Pb ch=4 v=8192
345120 On ch=4 n=59 v=90
345590 Off ch=4 n=59 v=90
345600 On ch=4 n=61 v=90
346070 Off ch=4 n=61 v=90
346080 On ch=4 n=62 v=90
346550 Off ch=4 n=62 v=90
346560 On ch=4 n=69 v=90
347030 Off ch=4 n=69 v=90
347040 On ch=4 n=68 v=90
347510 Off ch=4 n=68 v=90
347520 On ch=4 n=66 v=90
347840 Off ch=4 n=66 v=90
348000 On ch=4 n=66 v=80
348470 Off ch=4 n=66 v=80
348480 On ch=4 n=68 v=80
348710 Off ch=4 n=68 v=80
348720 On ch=4 n=63 v=70
350870 Off ch=4 n=63 v=70
352320 Par ch=4 c=6 v=42
353760 On ch=4 n=58 v=70
354060 Off ch=4 n=58 v=70
354240 On ch=4 n=58 v=70
354710 Off ch=4 n=58 v=70
354720 On ch=4 n=58 v=70
354950 Off ch=4 n=58 v=70
354960 On ch=4 n=58 v=70
355920 Off ch=4 n=58 v=70
356160 On ch=4 n=53 v=70
356390 Off ch=4 n=53 v=70
356400 On ch=4 n=61 v=70
356870 Off ch=4 n=61 v=70
356880 On ch=4 n=61 v=70
358310 Off ch=4 n=61 v=70
359520 On ch=4 n=65 v=70
360950 Off ch=4 n=65 v=70
360960 On ch=4 n=65 v=70
361760 Off ch=4 n=65 v=70
362400 On ch=4 n=65 v=70
363350 Off ch=4 n=65 v=70
363360 On ch=4 n=66 v=70
363590 Off ch=4 n=66 v=70
363600 On ch=4 n=65 v=70
363830 Off ch=4 n=65 v=70
363840 On ch=4 n=63 v=70
364790 Off ch=4 n=63 v=70
364800 On ch=4 n=65 v=70
365030 Off ch=4 n=65 v=70
365040 On ch=4 n=61 v=70
365270 Off ch=4 n=61 v=70
365280 On ch=4 n=63 v=70
365740 Off ch=4 n=63 v=70
365760 On ch=4 n=63 v=70
368140 Off ch=4 n=63 v=70
369600 Par ch=4 c=6 v=40
370800 On ch=4 n=56 v=80
371030 Off ch=4 n=56 v=80
371040 On ch=4 n=58 v=80
371340 Off ch=4 n=58 v=80
371520 On ch=4 n=58 v=80
371750 Off ch=4 n=58 v=80
371760 On ch=4 n=58 v=80
371990 Off ch=4 n=58 v=80
372000 On ch=4 n=58 v=80
372720 Off ch=4 n=58 v=80
373440 On ch=4 n=53 v=80
373670 Off ch=4 n=53 v=80
373680 On ch=4 n=53 v=80
373910 Off ch=4 n=53 v=80
373920 On ch=4 n=61 v=80
374390 Off ch=4 n=61 v=80
374400 On ch=4 n=61 v=80
375350 Off ch=4 n=61 v=80
376800 On ch=4 n=65 v=80
378230 Off ch=4 n=65 v=80
378240 On ch=4 n=65 v=80
379040 Off ch=4 n=65 v=80
379680 On ch=4 n=65 v=80
380630 Off ch=4 n=65 v=80
380640 On ch=4 n=66 v=80
380870 Off ch=4 n=66 v=80
380880 On ch=4 n=65 v=80
381110 Off ch=4 n=65 v=80
381120 On ch=4 n=63 v=80
382070 Off ch=4 n=63 v=80
382080 On ch=4 n=65 v=80
382310 Off ch=4 n=65 v=80
382320 On ch=4 n=65 v=80
382550 Off ch=4 n=65 v=80
382560 On ch=4 n=65 v=80
382790 Off ch=4 n=65 v=80
382800 On ch=4 n=63 v=80
383750 Off ch=4 n=63 v=80
383760 On ch=4 n=63 v=80
386870 Off ch=4 n=63 v=80
388320 On ch=4 n=70 v=105
389030 Off ch=4 n=70 v=105
391200 On ch=4 n=70 v=105
391500 Off ch=4 n=70 v=105
391680 On ch=4 n=70 v=100
392390 Off ch=4 n=70 v=100
394080 On ch=4 n=70 v=105
395510 Off ch=4 n=70 v=105
395520 On ch=4 n=70 v=100
396470 Off ch=4 n=70 v=100
396720 On ch=4 n=70 v=100
396950 Off ch=4 n=70 v=100
396960 On ch=4 n=70 v=100
397910 Off ch=4 n=70 v=100
397920 Pb ch=4 v=7992
397920 On ch=4 n=71 v=100
398150 Off ch=4 n=71 v=100
398160 Pb ch=4 v=8192
398160 On ch=4 n=70 v=105
398390 Off ch=4 n=70 v=105
398400 On ch=4 n=68 v=105
399110 Off ch=4 n=68 v=105
399360 On ch=4 n=70 v=105
399590 Off ch=4 n=70 v=105
399600 On ch=4 n=68 v=105
399830 Off ch=4 n=68 v=105
399840 On ch=4 n=68 v=105
400790 Off ch=4 n=68 v=105
400800 On ch=4 n=68 v=105
404150 Off ch=4 n=68 v=105
405600 On ch=4 n=70 v=105
406310 Off ch=4 n=70 v=105
408480 On ch=4 n=70 v=105
408780 Off ch=4 n=70 v=105
408960 On ch=4 n=70 v=100
409670 Off ch=4 n=70 v=100
411360 On ch=4 n=70 v=105
412790 Off ch=4 n=70 v=105
412800 On ch=4 n=70 v=105
413750 Off ch=4 n=70 v=105
414000 On ch=4 n=70 v=105
414230 Off ch=4 n=70 v=105
414240 On ch=4 n=70 v=105
415190 Off ch=4 n=70 v=105
415200 On ch=4 n=71 v=105
415430 Off ch=4 n=71 v=105
415440 Pb ch=4 v=8192
415440 On ch=4 n=70 v=105
415670 Off ch=4 n=70 v=105
415680 On ch=4 n=68 v=105
416390 Off ch=4 n=68 v=105
416640 On ch=4 n=70 v=105
416870 Off ch=4 n=70 v=105
416880 On ch=4 n=68 v=105
417110 Off ch=4 n=68 v=105
417120 On ch=4 n=72 v=95
417590 Off ch=4 n=72 v=95
417600 On ch=4 n=70 v=100
418070 Off ch=4 n=70 v=100
418080 Pb ch=4 v=7552
418080 On ch=4 n=70 v=100
418120 Pb ch=4 v=7680
418150 Pb ch=4 v=7808
418180 Pb ch=4 v=7936
418210 Pb ch=4 v=8064
418240 Pb ch=4 v=8192
419040 Pb ch=4 v=9557
419200 Pb ch=4 v=8192
419360 Pb ch=4 v=6827
419990 Off ch=4 n=70 v=100
420000 Pb ch=4 v=8192
420720 On ch=4 n=63 v=100
420950 Off ch=4 n=63 v=100
420960 On ch=4 n=72 v=95
421430 Off ch=4 n=72 v=95
421440 On ch=4 n=72 v=95
421910 Off ch=4 n=72 v=95
421920 On ch=4 n=70 v=100
422230 Off ch=4 n=70 v=100
422240 On ch=4 n=68 v=100
422550 Off ch=4 n=68 v=100
422560 On ch=4 n=70 v=100
422870 Off ch=4 n=70 v=100
422880 On ch=4 n=72 v=95
424080 Off ch=4 n=72 v=95
424080 On ch=4 n=70 v=100
424310 Off ch=4 n=70 v=100
424320 On ch=4 n=68 v=100
425750 Off ch=4 n=68 v=100
457440 On ch=4 n=76 v=111
457912 Off ch=4 n=76 v=111
457920 On ch=4 n=76 v=111
458369 Off ch=4 n=76 v=111
458400 On ch=4 n=76 v=111
458632 Off ch=4 n=76 v=111
458640 On ch=4 n=76 v=111
459840 Off ch=4 n=76 v=111
459840 On ch=4 n=78 v=111
460080 Off ch=4 n=78 v=111
460088 On ch=4 n=78 v=111
460320 Off ch=4 n=78 v=111
460320 On ch=4 n=78 v=111
460560 Off ch=4 n=78 v=111
460560 On ch=4 n=80 v=111
460800 Off ch=4 n=80 v=111
460800 On ch=4 n=76 v=111
464640 Off ch=4 n=76 v=111
464640 On ch=4 n=71 v=111
465120 Off ch=4 n=71 v=111
465120 On ch=4 n=73 v=111
465600 Off ch=4 n=73 v=111
465600 On ch=4 n=74 v=111
466080 Off ch=4 n=74 v=111
466080 On ch=4 n=81 v=111
466560 Off ch=4 n=81 v=111
466560 On ch=4 n=80 v=111
467040 Off ch=4 n=80 v=111
467040 On ch=4 n=78 v=111
467520 Off ch=4 n=78 v=111
467520 On ch=4 n=78 v=111
468000 Off ch=4 n=78 v=111
468000 On ch=4 n=80 v=111
468240 Off ch=4 n=80 v=111
468240 On ch=4 n=75 v=111
469680 Off ch=4 n=75 v=111
469680 On ch=4 n=75 v=111
471120 Off ch=4 n=75 v=111
561840 On ch=4 n=77 v=111
562320 Off ch=4 n=77 v=111
562320 On ch=4 n=77 v=111
562800 Off ch=4 n=77 v=111
562800 On ch=4 n=77 v=111
563120 Off ch=4 n=77 v=111
563120 On ch=4 n=75 v=111
563280 Off ch=4 n=75 v=111
563280 On ch=4 n=73 v=111
563600 Off ch=4 n=73 v=111
563600 On ch=4 n=75 v=111
563760 Off ch=4 n=75 v=111
563760 On ch=4 n=77 v=111
564080 Off ch=4 n=77 v=111
564080 On ch=4 n=78 v=111
564240 Off ch=4 n=78 v=111
564240 On ch=4 n=80 v=111
564560 Off ch=4 n=80 v=111
564560 On ch=4 n=78 v=111
564720 Off ch=4 n=78 v=111
564720 On ch=4 n=77 v=111
565040 Off ch=4 n=77 v=111
565040 On ch=4 n=75 v=111
565200 Off ch=4 n=75 v=111
565200 On ch=4 n=73 v=111
565520 Off ch=4 n=73 v=111
565520 On ch=4 n=75 v=111
565680 Off ch=4 n=75 v=111
565680 On ch=4 n=77 v=111
566160 Off ch=4 n=77 v=111
566400 On ch=4 n=77 v=111
567840 Off ch=4 n=77 v=111
568560 On ch=4 n=78 v=111
569040 Off ch=4 n=78 v=111
569040 On ch=4 n=78 v=111
569520 Off ch=4 n=78 v=111
569520 On ch=4 n=78 v=111
569840 Off ch=4 n=78 v=111
569840 On ch=4 n=77 v=111
570000 Off ch=4 n=77 v=111
570000 On ch=4 n=75 v=111
570320 Off ch=4 n=75 v=111
570320 On ch=4 n=77 v=111
570480 Off ch=4 n=77 v=111
570480 On ch=4 n=78 v=111
570800 Off ch=4 n=78 v=111
570800 On ch=4 n=80 v=111
570960 Off ch=4 n=80 v=111
570960 On ch=4 n=82 v=111
571280 Off ch=4 n=82 v=111
571280 On ch=4 n=80 v=111
571440 Off ch=4 n=80 v=111
571440 On ch=4 n=78 v=111
572400 Off ch=4 n=78 v=111
580560 KeySig -3 major
580560 On ch=4 n=80 v=111
581015 Off ch=4 n=80 v=111
581040 On ch=4 n=80 v=111
581495 Off ch=4 n=80 v=111
581520 On ch=4 n=80 v=111
581830 Off ch=4 n=80 v=111
581840 On ch=4 n=78 v=111
582000 Off ch=4 n=78 v=111
582000 On ch=4 n=77 v=111
582290 Off ch=4 n=77 v=111
582320 On ch=4 n=78 v=111
582480 Off ch=4 n=78 v=111
582480 On ch=4 n=80 v=111
582800 Off ch=4 n=80 v=111
582800 On ch=4 n=82 v=111
582960 Off ch=4 n=82 v=111
582960 On ch=4 n=84 v=111
583280 Off ch=4 n=84 v=111
583280 On ch=4 n=82 v=111
583440 Off ch=4 n=82 v=111
583440 On ch=4 n=80 v=111
583760 Off ch=4 n=80 v=111
583760 On ch=4 n=78 v=111
583915 On ch=4 n=77 v=111
583920 Off ch=4 n=78 v=111
584235 Off ch=4 n=77 v=111
584240 On ch=4 n=78 v=111
584400 Off ch=4 n=78 v=111
584400 On ch=4 n=80 v=111
584880 Off ch=4 n=80 v=111
585120 On ch=4 n=82 v=111
586800 Off ch=4 n=82 v=111
587280 On ch=4 n=82 v=112
587720 Off ch=4 n=82 v=112
587760 On ch=4 n=82 v=111
588215 Off ch=4 n=82 v=111
588240 On ch=4 n=82 v=111
588540 Off ch=4 n=82 v=111
588560 On ch=4 n=80 v=111
588720 Off ch=4 n=80 v=111
588720 On ch=4 n=78 v=111
589040 Off ch=4 n=78 v=111
589040 On ch=4 n=80 v=111
589200 Off ch=4 n=80 v=111
589200 On ch=4 n=82 v=111
589520 Off ch=4 n=82 v=111
589520 On ch=4 n=84 v=111
589680 Off ch=4 n=84 v=111
589680 On ch=4 n=85 v=111
590000 Off ch=4 n=85 v=111
590000 On ch=4 n=84 v=111
590155 On ch=4 n=82 v=113
590160 Off ch=4 n=84 v=111
590385 Off ch=4 n=82 v=113
590430 On ch=4 n=80 v=111
591105 Off ch=4 n=80 v=111
591120 KeySig 0 major
625200 KeySig 1 major
630960 KeySig 0 major
650640 On ch=4 n=76 v=120
651097 Off ch=4 n=76 v=120
651120 On ch=4 n=76 v=112
651570 Off ch=4 n=76 v=112
651600 On ch=4 n=76 v=111
651832 Off ch=4 n=76 v=111
651840 On ch=4 n=76 v=111
652770 Off ch=4 n=76 v=111
652800 On ch=4 n=71 v=121
653040 Off ch=4 n=71 v=121
653040 On ch=4 n=71 v=111
653499 Off ch=4 n=71 v=111
653521 On ch=4 n=79 v=109
653805 Off ch=4 n=79 v=109
653850 On ch=4 n=79 v=116
656010 Off ch=4 n=79 v=116
656400 On ch=4 n=83 v=115
657840 Off ch=4 n=83 v=115
657840 On ch=4 n=83 v=122
658800 Off ch=4 n=83 v=122
659280 On ch=4 n=83 v=113
660240 Off ch=4 n=83 v=113
660240 On ch=4 n=84 v=113
660480 Off ch=4 n=84 v=113
660480 On ch=4 n=83 v=111
660720 Off ch=4 n=83 v=111
660720 On ch=4 n=81 v=118
661680 Off ch=4 n=81 v=118
661680 On ch=4 n=83 v=113
661920 Off ch=4 n=83 v=113
661920 On ch=4 n=83 v=111
662160 Off ch=4 n=83 v=111
662160 On ch=4 n=83 v=111
662400 Off ch=4 n=83 v=111
662400 On ch=4 n=81 v=95
663120 Off ch=4 n=81 v=95
663120 On ch=4 n=81 v=111
666480 Off ch=4 n=81 v=111
667920 On ch=4 n=83 v=116
669360 Off ch=4 n=83 v=116
670800 On ch=4 n=83 v=116
671280 Off ch=4 n=83 v=116
671280 On ch=4 n=83 v=116
672000 Off ch=4 n=83 v=116
673680 On ch=4 n=83 v=111
675120 Off ch=4 n=83 v=111
675120 On ch=4 n=83 v=111
676080 Off ch=4 n=83 v=111
676320 On ch=4 n=83 v=111
676560 Off ch=4 n=83 v=111
676560 On ch=4 n=83 v=111
677520 Off ch=4 n=83 v=111
677520 On ch=4 n=84 v=111
677760 Off ch=4 n=84 v=111
677760 On ch=4 n=83 v=111
678000 Off ch=4 n=83 v=111
678000 On ch=4 n=81 v=111
678960 Off ch=4 n=81 v=111
678960 On ch=4 n=83 v=111
679200 Off ch=4 n=83 v=111
679200 On ch=4 n=79 v=111
679320 On ch=4 n=81 v=120
679438 Off ch=4 n=81 v=120
679440 Off ch=4 n=79 v=111
679440 On ch=4 n=81 v=111
680400 Off ch=4 n=81 v=111
680400 On ch=4 n=81 v=111
684240 Off ch=4 n=81 v=111
685200 On ch=4 n=83 v=112
686400 Off ch=4 n=83 v=112
688080 On ch=4 n=83 v=112
688560 Off ch=4 n=83 v=112
688560 On ch=4 n=83 v=112
689280 Off ch=4 n=83 v=112
690960 On ch=4 n=83 v=112
692400 Off ch=4 n=83 v=112
692400 On ch=4 n=83 v=112
692880 Off ch=4 n=83 v=112
693600 On ch=4 n=83 v=112
693840 Off ch=4 n=83 v=112
693840 On ch=4 n=83 v=112
694800 Off ch=4 n=83 v=112
694800 On ch=4 n=84 v=112
695040 Off ch=4 n=84 v=112
695040 On ch=4 n=83 v=112
695280 Off ch=4 n=83 v=112
695280 On ch=4 n=81 v=112
696240 Off ch=4 n=81 v=112
696240 On ch=4 n=83 v=112
696480 Off ch=4 n=83 v=112
696480 On ch=4 n=83 v=112
696720 Off ch=4 n=83 v=112
696720 On ch=4 n=83 v=112
698160 Off ch=4 n=83 v=112
698160 On ch=4 n=81 v=112
699600 Off ch=4 n=81 v=112
700320 On ch=4 n=79 v=112
700560 Off ch=4 n=79 v=112
700560 On ch=4 n=83 v=112
701040 Off ch=4 n=83 v=112
701040 On ch=4 n=83 v=112
701520 Off ch=4 n=83 v=112
701520 On ch=4 n=83 v=112
702000 Off ch=4 n=83 v=112
702000 On ch=4 n=83 v=112
702480 Off ch=4 n=83 v=112
702480 On ch=4 n=83 v=112
702960 Off ch=4 n=83 v=112
702960 On ch=4 n=86 v=121
703920 Off ch=4 n=86 v=121
703920 On ch=4 n=83 v=115
704400 Off ch=4 n=83 v=115
704400 On ch=4 n=83 v=106
704640 Off ch=4 n=83 v=106
704640 On ch=4 n=81 v=115
704880 Off ch=4 n=81 v=115
704880 On ch=4 n=79 v=115
705360 Off ch=4 n=79 v=115
712560 KeySig 2 major
722160 Meta TrkEnd
TrkEnd
MTrk
0 Meta TrkName "Overdrive Gt"
0 Meta 0x20 04
0 Meta InstrName "Overdrive Gt"
0 KeySig 0 major
485 Par ch=5 c=0 v=0
490 Par ch=5 c=32 v=0
495 PrCh ch=5 p=29
500 Par ch=5 c=7 v=100
505 Par ch=5 c=10 v=64
510 Par ch=5 c=91 v=64
515 Par ch=5 c=93 v=0
520 Par ch=5 c=101 v=0
520 Par ch=5 c=100 v=0
520 Par ch=5 c=6 v=12
525 Par ch=5 c=99 v=1
525 Par ch=5 c=98 v=8
525 Par ch=5 c=6 v=64
530 Par ch=5 c=99 v=1
530 Par ch=5 c=98 v=9
530 Par ch=5 c=6 v=64
535 Par ch=5 c=99 v=1
535 Par ch=5 c=98 v=10
535 Par ch=5 c=6 v=64
540 Par ch=5 c=99 v=1
540 Par ch=5 c=98 v=32
540 Par ch=5 c=6 v=64
545 Par ch=5 c=99 v=1
545 Par ch=5 c=98 v=33
545 Par ch=5 c=6 v=64
550 Par ch=5 c=99 v=1
550 Par ch=5 c=98 v=99
550 Par ch=5 c=6 v=64
555 Par ch=5 c=99 v=1
555 Par ch=5 c=98 v=100
555 Par ch=5 c=6 v=64
560 Par ch=5 c=99 v=1
560 Par ch=5 c=98 v=102
560 Par ch=5 c=6 v=64
103920 Par ch=5 c=11 v=80
103990 Par ch=5 c=1 v=10
104880 Pb ch=5 v=6827
104880 On ch=5 n=56 v=70
105000 Pb ch=5 v=8192
105110 Off ch=5 n=56 v=70
105120 On ch=5 n=56 v=70
105230 Off ch=5 n=56 v=70
105240 On ch=5 n=56 v=70
105350 Off ch=5 n=56 v=70
105360 On ch=5 n=56 v=70
105590 Off ch=5 n=56 v=70
105600 Pb ch=5 v=6827
105600 On ch=5 n=56 v=70
105720 Pb ch=5 v=8192
105830 Off ch=5 n=56 v=70
105840 On ch=5 n=56 v=71
105950 Off ch=5 n=56 v=71
105960 On ch=5 n=56 v=71
106070 Off ch=5 n=56 v=71
106080 On ch=5 n=56 v=71
106190 Off ch=5 n=56 v=71
106200 On ch=5 n=56 v=71
106310 Off ch=5 n=56 v=71
106320 On ch=5 n=59 v=71
106550 Off ch=5 n=59 v=71
106560 On ch=5 n=60 v=71
106790 Off ch=5 n=60 v=71
106800 On ch=5 n=61 v=72
107030 Off ch=5 n=61 v=72
107040 On ch=5 n=62 v=72
107270 Off ch=5 n=62 v=72
107280 On ch=5 n=63 v=72
107510 Off ch=5 n=63 v=72
107520 On ch=5 n=66 v=73
107750 Off ch=5 n=66 v=73
107760 Pb ch=5 v=6827
107760 On ch=5 n=68 v=73
107880 Pb ch=5 v=8192
107990 Off ch=5 n=68 v=73
108000 On ch=5 n=68 v=73
108110 Off ch=5 n=68 v=73
108120 On ch=5 n=68 v=73
108230 Off ch=5 n=68 v=73
108240 On ch=5 n=68 v=73
108470 Off ch=5 n=68 v=73
108480 Pb ch=5 v=6827
108480 On ch=5 n=68 v=74
108600 Pb ch=5 v=8192
108710 Off ch=5 n=68 v=74
108720 On ch=5 n=68 v=74
108830 Off ch=5 n=68 v=74
108840 On ch=5 n=68 v=74
108950 Off ch=5 n=68 v=74
108960 On ch=5 n=68 v=74
109070 Off ch=5 n=68 v=74
109080 On ch=5 n=66 v=74
109190 Off ch=5 n=66 v=74
109200 On ch=5 n=63 v=75
109430 Off ch=5 n=63 v=75
109440 On ch=5 n=62 v=75
109670 Off ch=5 n=62 v=75
109680 On ch=5 n=61 v=75
109910 Off ch=5 n=61 v=75
109920 On ch=5 n=60 v=75
110150 Off ch=5 n=60 v=75
110160 On ch=5 n=59 v=76
110390 Off ch=5 n=59 v=76
110400 On ch=5 n=56 v=76
110630 Off ch=5 n=56 v=76
110640 Pb ch=5 v=6827
110640 On ch=5 n=56 v=76
110760 Pb ch=5 v=8192
110870 Off ch=5 n=56 v=76
110880 On ch=5 n=56 v=77
110990 Off ch=5 n=56 v=77
111000 On ch=5 n=56 v=77
111110 Off ch=5 n=56 v=77
111120 On ch=5 n=56 v=77
111350 Off ch=5 n=56 v=77
111360 Pb ch=5 v=6827
111360 On ch=5 n=56 v=77
111480 Pb ch=5 v=8192
111590 Off ch=5 n=56 v=77
111600 On ch=5 n=56 v=77
111710 Off ch=5 n=56 v=77
111720 On ch=5 n=56 v=78
111830 Off ch=5 n=56 v=78
111840 On ch=5 n=56 v=78
111950 Off ch=5 n=56 v=78
111960 On ch=5 n=56 v=78
112070 Off ch=5 n=56 v=78
112080 On ch=5 n=59 v=78
112310 Off ch=5 n=59 v=78
112320 On ch=5 n=60 v=78
112550 Off ch=5 n=60 v=78
112560 On ch=5 n=61 v=79
112790 Off ch=5 n=61 v=79
112800 On ch=5 n=62 v=79
113030 Off ch=5 n=62 v=79
113040 On ch=5 n=63 v=79
113270 Off ch=5 n=63 v=79
113280 On ch=5 n=66 v=79
113510 Off ch=5 n=66 v=79
113520 Pb ch=5 v=6827
113520 On ch=5 n=68 v=80
113640 Pb ch=5 v=8192
113750 Off ch=5 n=68 v=80
113760 On ch=5 n=68 v=80
113870 Off ch=5 n=68 v=80
113880 On ch=5 n=68 v=80
113990 Off ch=5 n=68 v=80
114000 On ch=5 n=68 v=80
114230 Off ch=5 n=68 v=80
114240 Pb ch=5 v=6827
114240 On ch=5 n=68 v=80
114360 Pb ch=5 v=8192
114470 Off ch=5 n=68 v=80
114480 On ch=5 n=68 v=81
114590 Off ch=5 n=68 v=81
114600 On ch=5 n=68 v=81
114710 Off ch=5 n=68 v=81
114720 On ch=5 n=68 v=81
114830 Off ch=5 n=68 v=81
114840 On ch=5 n=66 v=81
114950 Off ch=5 n=66 v=81
114960 On ch=5 n=63 v=81
115190 Off ch=5 n=63 v=81
115200 On ch=5 n=62 v=82
115430 Off ch=5 n=62 v=82
115440 On ch=5 n=61 v=82
115670 Off ch=5 n=61 v=82
115680 On ch=5 n=60 v=82
115910 Off ch=5 n=60 v=82
115920 On ch=5 n=59 v=82
116150 Off ch=5 n=59 v=82
116160 On ch=5 n=56 v=83
116390 Off ch=5 n=56 v=83
116400 Pb ch=5 v=6827
116400 On ch=5 n=56 v=83
116520 Pb ch=5 v=8192
116630 Off ch=5 n=56 v=83
116640 On ch=5 n=56 v=83
116750 Off ch=5 n=56 v=83
116760 On ch=5 n=56 v=83
116870 Off ch=5 n=56 v=83
116880 On ch=5 n=56 v=84
117110 Off ch=5 n=56 v=84
117120 Pb ch=5 v=6827
117120 On ch=5 n=56 v=84
117240 Pb ch=5 v=8192
117350 Off ch=5 n=56 v=84
117360 On ch=5 n=56 v=84
117470 Off ch=5 n=56 v=84
117480 On ch=5 n=56 v=84
117590 Off ch=5 n=56 v=84
117600 On ch=5 n=56 v=84
117710 Off ch=5 n=56 v=84
117720 On ch=5 n=56 v=85
117830 Off ch=5 n=56 v=85
117840 On ch=5 n=59 v=85
118070 Off ch=5 n=59 v=85
118080 On ch=5 n=60 v=85
118310 Off ch=5 n=60 v=85
118320 On ch=5 n=61 v=85
118550 Off ch=5 n=61 v=85
118560 On ch=5 n=62 v=86
118790 Off ch=5 n=62 v=86
118800 On ch=5 n=63 v=86
119030 Off ch=5 n=63 v=86
119040 On ch=5 n=66 v=86
119270 Off ch=5 n=66 v=86
119280 Pb ch=5 v=6827
119280 On ch=5 n=68 v=86
119400 Pb ch=5 v=8192
119510 Off ch=5 n=68 v=86
119520 On ch=5 n=68 v=87
119630 Off ch=5 n=68 v=87
119640 On ch=5 n=68 v=87
119750 Off ch=5 n=68 v=87
119760 On ch=5 n=68 v=87
119990 Off ch=5 n=68 v=87
120000 Pb ch=5 v=6827
120000 On ch=5 n=68 v=87
120120 Pb ch=5 v=8192
120230 Off ch=5 n=68 v=87
120240 On ch=5 n=68 v=88
120350 Off ch=5 n=68 v=88
120360 On ch=5 n=68 v=88
120470 Off ch=5 n=68 v=88
120480 On ch=5 n=68 v=88
120590 Off ch=5 n=68 v=88
120600 On ch=5 n=66 v=88
120710 Off ch=5 n=66 v=88
120720 On ch=5 n=63 v=88
120950 Off ch=5 n=63 v=88
120960 On ch=5 n=62 v=88
121190 Off ch=5 n=62 v=88
121200 On ch=5 n=61 v=89
121430 Off ch=5 n=61 v=89
121440 On ch=5 n=60 v=89
121670 Off ch=5 n=60 v=89
121680 On ch=5 n=59 v=89
121910 Off ch=5 n=59 v=89
121920 On ch=5 n=56 v=89
122150 Off ch=5 n=56 v=89
122160 Pb ch=5 v=6827
122160 On ch=5 n=56 v=90
122280 Pb ch=5 v=8192
122390 Off ch=5 n=56 v=90
122400 On ch=5 n=56 v=90
122510 Off ch=5 n=56 v=90
122520 On ch=5 n=56 v=90
122630 Off ch=5 n=56 v=90
122640 On ch=5 n=56 v=90
122870 Off ch=5 n=56 v=90
122880 Pb ch=5 v=6827
122880 On ch=5 n=56 v=91
123000 Pb ch=5 v=8192
123110 Off ch=5 n=56 v=91
123120 On ch=5 n=56 v=91
123230 Off ch=5 n=56 v=91
123240 On ch=5 n=56 v=91
123350 Off ch=5 n=56 v=91
123360 On ch=5 n=56 v=91
123590 Off ch=5 n=56 v=91
123600 On ch=5 n=59 v=91
123830 Off ch=5 n=59 v=91
123840 On ch=5 n=60 v=92
124070 Off ch=5 n=60 v=92
124080 On ch=5 n=61 v=92
124310 Off ch=5 n=61 v=92
124320 On ch=5 n=62 v=92
124550 Off ch=5 n=62 v=92
124560 On ch=5 n=63 v=93
124790 Off ch=5 n=63 v=93
124800 On ch=5 n=66 v=93
125030 Off ch=5 n=66 v=93
125040 Pb ch=5 v=6827
125040 On ch=5 n=68 v=100
125160 Pb ch=5 v=8192
125270 Off ch=5 n=68 v=100
125280 On ch=5 n=68 v=100
125390 Off ch=5 n=68 v=100
125400 On ch=5 n=68 v=100
125510 Off ch=5 n=68 v=100
125520 On ch=5 n=68 v=100
125750 Off ch=5 n=68 v=100
125760 Pb ch=5 v=6827
125760 On ch=5 n=68 v=100
125880 Pb ch=5 v=8192
125990 Off ch=5 n=68 v=100
126000 On ch=5 n=68 v=100
126110 Off ch=5 n=68 v=100
126120 On ch=5 n=68 v=100
126230 Off ch=5 n=68 v=100
126240 On ch=5 n=68 v=100
126350 Off ch=5 n=68 v=100
126360 On ch=5 n=66 v=100
126470 Off ch=5 n=66 v=100
126480 On ch=5 n=63 v=100
126710 Off ch=5 n=63 v=100
126720 On ch=5 n=62 v=100
126950 Off ch=5 n=62 v=100
126960 On ch=5 n=61 v=100
127190 Off ch=5 n=61 v=100
127200 On ch=5 n=60 v=100
127430 Off ch=5 n=60 v=100
127440 On ch=5 n=59 v=100
127670 Off ch=5 n=59 v=100
127680 On ch=5 n=56 v=100
127910 Off ch=5 n=56 v=100
127920 Pb ch=5 v=6827
127920 On ch=5 n=56 v=100
128040 Pb ch=5 v=8192
128150 Off ch=5 n=56 v=100
128160 On ch=5 n=56 v=100
128270 Off ch=5 n=56 v=100
128280 On ch=5 n=56 v=100
128390 Off ch=5 n=56 v=100
128400 On ch=5 n=56 v=100
128510 Off ch=5 n=56 v=100
128520 On ch=5 n=56 v=100
128630 Off ch=5 n=56 v=100
128640 Pb ch=5 v=6827
128640 On ch=5 n=56 v=100
128760 Pb ch=5 v=8192
128870 Off ch=5 n=56 v=100
128880 On ch=5 n=56 v=100
128990 Off ch=5 n=56 v=100
129000 On ch=5 n=56 v=100
129110 Off ch=5 n=56 v=100
129120 On ch=5 n=56 v=100
129230 Off ch=5 n=56 v=100
129240 On ch=5 n=56 v=100
129350 Off ch=5 n=56 v=100
129360 On ch=5 n=59 v=100
129590 Off ch=5 n=59 v=100
129600 On ch=5 n=60 v=100
129830 Off ch=5 n=60 v=100
129840 On ch=5 n=61 v=100
130070 Off ch=5 n=61 v=100
130080 On ch=5 n=62 v=100
130310 Off ch=5 n=62 v=100
130320 On ch=5 n=63 v=100
130550 Off ch=5 n=63 v=100
130560 On ch=5 n=66 v=100
130790 Off ch=5 n=66 v=100
130800 Pb ch=5 v=6827
130800 On ch=5 n=68 v=100
130920 Pb ch=5 v=8192
131030 Off ch=5 n=68 v=100
131040 On ch=5 n=68 v=100
131150 Off ch=5 n=68 v=100
131160 On ch=5 n=68 v=100
131270 Off ch=5 n=68 v=100
131280 On ch=5 n=68 v=100
131390 Off ch=5 n=68 v=100
131400 On ch=5 n=68 v=100
131510 Off ch=5 n=68 v=100
131520 Pb ch=5 v=6827
131520 On ch=5 n=68 v=100
131640 Pb ch=5 v=8192
131750 Off ch=5 n=68 v=100
131760 On ch=5 n=68 v=100
131870 Off ch=5 n=68 v=100
131880 On ch=5 n=68 v=100
131990 Off ch=5 n=68 v=100
132000 On ch=5 n=68 v=100
132110 Off ch=5 n=68 v=100
132120 On ch=5 n=66 v=100
132230 Off ch=5 n=66 v=100
132240 On ch=5 n=63 v=100
132470 Off ch=5 n=63 v=100
132480 On ch=5 n=62 v=100
132710 Off ch=5 n=62 v=100
132720 On ch=5 n=61 v=100
132950 Off ch=5 n=61 v=100
132960 On ch=5 n=60 v=100
133190 Off ch=5 n=60 v=100
133200 On ch=5 n=59 v=100
133430 Off ch=5 n=59 v=100
133440 On ch=5 n=56 v=100
133670 Off ch=5 n=56 v=100
133680 Pb ch=5 v=6827
133680 On ch=5 n=56 v=100
133800 Pb ch=5 v=8192
133910 Off ch=5 n=56 v=100
133920 On ch=5 n=56 v=100
134030 Off ch=5 n=56 v=100
134040 On ch=5 n=56 v=100
134150 Off ch=5 n=56 v=100
134160 On ch=5 n=56 v=100
134390 Off ch=5 n=56 v=100
134400 Pb ch=5 v=6827
134400 On ch=5 n=56 v=100
134520 Pb ch=5 v=8192
134630 Off ch=5 n=56 v=100
134640 On ch=5 n=56 v=100
134750 Off ch=5 n=56 v=100
134760 On ch=5 n=56 v=100
134870 Off ch=5 n=56 v=100
134880 On ch=5 n=56 v=100
134990 Off ch=5 n=56 v=100
135000 On ch=5 n=56 v=100
135110 Off ch=5 n=56 v=100
135120 On ch=5 n=59 v=100
135350 Off ch=5 n=59 v=100
135360 On ch=5 n=60 v=100
135590 Off ch=5 n=60 v=100
135600 On ch=5 n=61 v=100
135830 Off ch=5 n=61 v=100
135840 On ch=5 n=62 v=100
136070 Off ch=5 n=62 v=100
136080 On ch=5 n=63 v=100
136310 Off ch=5 n=63 v=100
136320 On ch=5 n=66 v=100
136550 Off ch=5 n=66 v=100
136560 Pb ch=5 v=6827
136560 On ch=5 n=68 v=100
136680 Pb ch=5 v=8192
136790 Off ch=5 n=68 v=100
136800 On ch=5 n=68 v=100
136910 Off ch=5 n=68 v=100
136920 On ch=5 n=68 v=100
137030 Off ch=5 n=68 v=100
137040 On ch=5 n=68 v=100
137150 Off ch=5 n=68 v=100
137160 On ch=5 n=68 v=100
137270 Off ch=5 n=68 v=100
137280 Pb ch=5 v=6827
137280 On ch=5 n=68 v=100
137400 Pb ch=5 v=8192
137510 Off ch=5 n=68 v=100
137520 On ch=5 n=68 v=100
137630 Off ch=5 n=68 v=100
137640 On ch=5 n=68 v=100
137750 Off ch=5 n=68 v=100
137760 On ch=5 n=68 v=100
137870 Off ch=5 n=68 v=100
137880 On ch=5 n=66 v=100
137990 Off ch=5 n=66 v=100
138000 On ch=5 n=63 v=100
138230 Off ch=5 n=63 v=100
138240 On ch=5 n=62 v=100
138470 Off ch=5 n=62 v=100
138480 On ch=5 n=61 v=100
138710 Off ch=5 n=61 v=100
138720 On ch=5 n=60 v=100
138950 Off ch=5 n=60 v=100
138960 On ch=5 n=59 v=100
139190 Off ch=5 n=59 v=100
139200 On ch=5 n=56 v=100
139430 Off ch=5 n=56 v=100
139440 Pb ch=5 v=6827
139440 On ch=5 n=56 v=100
139560 Pb ch=5 v=8192
139670 Off ch=5 n=56 v=100
139680 On ch=5 n=56 v=100
139790 Off ch=5 n=56 v=100
139800 On ch=5 n=56 v=100
139910 Off ch=5 n=56 v=100
139920 On ch=5 n=56 v=100
140030 Off ch=5 n=56 v=100
140040 On ch=5 n=56 v=100
140150 Off ch=5 n=56 v=100
140160 Pb ch=5 v=6827
140160 On ch=5 n=56 v=100
140280 Pb ch=5 v=8192
140390 Off ch=5 n=56 v=100
140400 On ch=5 n=56 v=100
140510 Off ch=5 n=56 v=100
140520 On ch=5 n=56 v=100
140630 Off ch=5 n=56 v=100
140640 On ch=5 n=56 v=100
140870 Off ch=5 n=56 v=100
140880 On ch=5 n=59 v=100
141110 Off ch=5 n=59 v=100
141120 On ch=5 n=60 v=100
141350 Off ch=5 n=60 v=100
141360 On ch=5 n=61 v=100
141590 Off ch=5 n=61 v=100
141600 On ch=5 n=62 v=100
141830 Off ch=5 n=62 v=100
141840 On ch=5 n=63 v=100
142070 Off ch=5 n=63 v=100
142080 On ch=5 n=66 v=100
142310 Off ch=5 n=66 v=100
142320 Par ch=5 c=11 v=100
142320 Pb ch=5 v=6827
142320 On ch=5 n=44 v=100
142440 Pb ch=5 v=8192
142550 Off ch=5 n=44 v=100
142560 On ch=5 n=44 v=100
142670 Off ch=5 n=44 v=100
142680 On ch=5 n=44 v=100
142790 Off ch=5 n=44 v=100
142800 On ch=5 n=44 v=100
142910 Off ch=5 n=44 v=100
142920 On ch=5 n=44 v=100
143030 Off ch=5 n=44 v=100
143040 Pb ch=5 v=6827
143040 On ch=5 n=44 v=100
143160 Pb ch=5 v=8192
143270 Off ch=5 n=44 v=100
143280 On ch=5 n=44 v=100
143390 Off ch=5 n=44 v=100
143400 On ch=5 n=44 v=100
143510 Off ch=5 n=44 v=100
143520 On ch=5 n=44 v=100
143630 Off ch=5 n=44 v=100
143640 On ch=5 n=44 v=100
143750 Off ch=5 n=44 v=100
143760 On ch=5 n=47 v=100
143990 Off ch=5 n=47 v=100
144000 On ch=5 n=48 v=100
144230 Off ch=5 n=48 v=100
144240 On ch=5 n=49 v=100
144470 Off ch=5 n=49 v=100
144480 On ch=5 n=50 v=100
144710 Off ch=5 n=50 v=100
144720 On ch=5 n=51 v=100
144950 Off ch=5 n=51 v=100
144960 On ch=5 n=54 v=100
145190 Off ch=5 n=54 v=100
145200 Pb ch=5 v=6827
145200 On ch=5 n=56 v=100
145320 Pb ch=5 v=8192
145430 Off ch=5 n=56 v=100
145440 On ch=5 n=56 v=100
145550 Off ch=5 n=56 v=100
145560 On ch=5 n=56 v=100
145670 Off ch=5 n=56 v=100
145680 On ch=5 n=56 v=100
145910 Off ch=5 n=56 v=100
145920 Pb ch=5 v=6827
145920 On ch=5 n=56 v=100
146040 Pb ch=5 v=8192
146150 Off ch=5 n=56 v=100
146160 On ch=5 n=56 v=100
146270 Off ch=5 n=56 v=100
146280 On ch=5 n=56 v=100
146390 Off ch=5 n=56 v=100
146400 On ch=5 n=56 v=100
146510 Off ch=5 n=56 v=100
146520 On ch=5 n=54 v=100
146630 Off ch=5 n=54 v=100
146640 On ch=5 n=51 v=100
146870 Off ch=5 n=51 v=100
146880 On ch=5 n=50 v=100
147110 Off ch=5 n=50 v=100
147120 On ch=5 n=49 v=100
147350 Off ch=5 n=49 v=100
147360 On ch=5 n=48 v=100
147590 Off ch=5 n=48 v=100
147600 On ch=5 n=47 v=100
147830 Off ch=5 n=47 v=100
147840 On ch=5 n=44 v=100
148070 Off ch=5 n=44 v=100
148080 Pb ch=5 v=6827
148080 On ch=5 n=44 v=100
148200 Pb ch=5 v=8192
148310 Off ch=5 n=44 v=100
148320 On ch=5 n=44 v=100
148430 Off ch=5 n=44 v=100
148440 On ch=5 n=44 v=100
148550 Off ch=5 n=44 v=100
148560 On ch=5 n=44 v=100
148790 Off ch=5 n=44 v=100
148800 Pb ch=5 v=6827
148800 On ch=5 n=44 v=100
148920 Pb ch=5 v=8192
149030 Off ch=5 n=44 v=100
149040 On ch=5 n=44 v=100
149150 Off ch=5 n=44 v=100
149160 On ch=5 n=44 v=100
149270 Off ch=5 n=44 v=100
149280 On ch=5 n=44 v=100
149390 Off ch=5 n=44 v=100
149400 On ch=5 n=44 v=100
149510 Off ch=5 n=44 v=100
149520 On ch=5 n=47 v=100
149750 Off ch=5 n=47 v=100
149760 On ch=5 n=48 v=100
149990 Off ch=5 n=48 v=100
150000 On ch=5 n=49 v=100
150230 Off ch=5 n=49 v=100
150240 On ch=5 n=50 v=100
150470 Off ch=5 n=50 v=100
150480 On ch=5 n=51 v=100
150710 Off ch=5 n=51 v=100
150720 On ch=5 n=54 v=100
150950 Off ch=5 n=54 v=100
150960 Pb ch=5 v=6827
150960 On ch=5 n=56 v=100
151080 Pb ch=5 v=8192
151190 Off ch=5 n=56 v=100
151200 On ch=5 n=56 v=100
151310 Off ch=5 n=56 v=100
151320 On ch=5 n=56 v=100
151430 Off ch=5 n=56 v=100
151440 On ch=5 n=56 v=100
151670 Off ch=5 n=56 v=100
151680 Pb ch=5 v=6827
151680 On ch=5 n=56 v=100
151800 Pb ch=5 v=8192
151910 Off ch=5 n=56 v=100
151920 On ch=5 n=56 v=100
152030 Off ch=5 n=56 v=100
152040 On ch=5 n=56 v=100
152150 Off ch=5 n=56 v=100
152160 On ch=5 n=56 v=100
152270 Off ch=5 n=56 v=100
152280 On ch=5 n=56 v=100
152390 Off ch=5 n=56 v=100
152400 On ch=5 n=59 v=100
152630 Off ch=5 n=59 v=100
152640 On ch=5 n=60 v=100
152870 Off ch=5 n=60 v=100
152880 On ch=5 n=61 v=100
153110 Off ch=5 n=61 v=100
153120 On ch=5 n=62 v=100
153350 Off ch=5 n=62 v=100
153360 On ch=5 n=63 v=100
153590 Off ch=5 n=63 v=100
153600 On ch=5 n=66 v=100
153830 Off ch=5 n=66 v=100
153840 Pb ch=5 v=6827
153840 On ch=5 n=80 v=100
153960 Pb ch=5 v=8192
154070 Off ch=5 n=80 v=100
154080 On ch=5 n=80 v=100
154190 Off ch=5 n=80 v=100
154200 On ch=5 n=80 v=100
154310 Off ch=5 n=80 v=100
154320 On ch=5 n=80 v=100
154430 Off ch=5 n=80 v=100
154440 On ch=5 n=80 v=100
154550 Off ch=5 n=80 v=100
154560 Pb ch=5 v=6827
154560 On ch=5 n=80 v=100
154680 Pb ch=5 v=8192
154790 Off ch=5 n=80 v=100
154800 On ch=5 n=80 v=100
154910 Off ch=5 n=80 v=100
154920 On ch=5 n=80 v=100
155030 Off ch=5 n=80 v=100
155040 On ch=5 n=80 v=100
155150 Off ch=5 n=80 v=100
155160 On ch=5 n=78 v=100
155270 Off ch=5 n=78 v=100
155280 On ch=5 n=75 v=100
155510 Off ch=5 n=75 v=100
155520 On ch=5 n=74 v=100
155750 Off ch=5 n=74 v=100
155760 On ch=5 n=73 v=100
155990 Off ch=5 n=73 v=100
156000 On ch=5 n=72 v=100
156230 Off ch=5 n=72 v=100
156240 On ch=5 n=71 v=100
156470 Off ch=5 n=71 v=100
156480 On ch=5 n=68 v=100
156710 Off ch=5 n=68 v=100
156720 Pb ch=5 v=6827
156720 On ch=5 n=68 v=100
156840 Pb ch=5 v=8192
156950 Off ch=5 n=68 v=100
156960 On ch=5 n=68 v=100
157070 Off ch=5 n=68 v=100
157080 On ch=5 n=68 v=100
157190 Off ch=5 n=68 v=100
157200 On ch=5 n=68 v=100
157310 Off ch=5 n=68 v=100
157320 On ch=5 n=68 v=100
157430 Off ch=5 n=68 v=100
157440 Pb ch=5 v=6827
157440 On ch=5 n=68 v=100
157560 Pb ch=5 v=8192
157670 Off ch=5 n=68 v=100
157680 On ch=5 n=68 v=100
157790 Off ch=5 n=68 v=100
157800 On ch=5 n=68 v=100
157910 Off ch=5 n=68 v=100
157920 On ch=5 n=68 v=100
158030 Off ch=5 n=68 v=100
158040 On ch=5 n=66 v=100
158150 Off ch=5 n=66 v=100
158160 On ch=5 n=63 v=100
158390 Off ch=5 n=63 v=100
158400 On ch=5 n=62 v=100
158630 Off ch=5 n=62 v=100
158640 On ch=5 n=61 v=100
158870 Off ch=5 n=61 v=100
158880 On ch=5 n=60 v=100
159110 Off ch=5 n=60 v=100
159120 On ch=5 n=59 v=100
159350 Off ch=5 n=59 v=100
159360 On ch=5 n=56 v=100
159590 Off ch=5 n=56 v=100
159600 On ch=5 n=68 v=100
159780 Off ch=5 n=68 v=100
159840 On ch=5 n=63 v=100
160020 Off ch=5 n=63 v=100
160080 On ch=5 n=59 v=100
160260 Off ch=5 n=59 v=100
160320 Par ch=5 c=1 v=50
160320 On ch=5 n=58 v=100
160790 Off ch=5 n=58 v=100
160800 Par ch=5 c=1 v=0
160800 On ch=5 n=61 v=100
160980 Off ch=5 n=61 v=100
161040 Par ch=5 c=1 v=45
161040 On ch=5 n=59 v=100
161510 Off ch=5 n=59 v=100
161520 Par ch=5 c=1 v=0
161520 On ch=5 n=63 v=100
161700 Off ch=5 n=63 v=100
161760 Par ch=5 c=1 v=50
161760 On ch=5 n=61 v=100
162230 Off ch=5 n=61 v=100
162240 Par ch=5 c=1 v=0
162240 On ch=5 n=66 v=100
162420 Off ch=5 n=66 v=100
162480 On ch=5 n=64 v=100
162600 Pb ch=5 v=9557
162720 Pb ch=5 v=8192
162800 Pb ch=5 v=9557
162880 Pb ch=5 v=8192
162950 Off ch=5 n=64 v=100
162960 On ch=5 n=75 v=100
163140 Off ch=5 n=75 v=100
163680 On ch=5 n=73 v=100
163840 Off ch=5 n=73 v=100
164400 On ch=5 n=83 v=100
164560 Off ch=5 n=83 v=100
165160 On ch=5 n=75 v=100
165260 Pb ch=5 v=8875
165360 Pb ch=5 v=8192
165460 Pb ch=5 v=6827
165540 Pb ch=5 v=8192
165540 Off ch=5 n=75 v=100
165540 On ch=5 n=75 v=100
167030 Off ch=5 n=75 v=100
167040 Pb ch=5 v=6827
167040 On ch=5 n=44 v=100
167160 Pb ch=5 v=8192
167270 Off ch=5 n=44 v=100
167280 On ch=5 n=44 v=100
167390 Off ch=5 n=44 v=100
167400 On ch=5 n=44 v=100
167510 Off ch=5 n=44 v=100
167520 On ch=5 n=44 v=100
167630 Off ch=5 n=44 v=100
167640 On ch=5 n=44 v=100
167750 Off ch=5 n=44 v=100
167760 Pb ch=5 v=6827
167760 On ch=5 n=44 v=100
167880 Pb ch=5 v=8192
167990 Off ch=5 n=44 v=100
168000 On ch=5 n=44 v=100
168110 Off ch=5 n=44 v=100
168120 On ch=5 n=44 v=100
168230 Off ch=5 n=44 v=100
168240 On ch=5 n=44 v=100
168350 Off ch=5 n=44 v=100
168360 On ch=5 n=44 v=100
168470 Off ch=5 n=44 v=100
168480 On ch=5 n=47 v=100
168710 Off ch=5 n=47 v=100
168720 On ch=5 n=48 v=100
168950 Off ch=5 n=48 v=100
168960 On ch=5 n=49 v=100
169190 Off ch=5 n=49 v=100
169200 On ch=5 n=50 v=100
169430 Off ch=5 n=50 v=100
169440 On ch=5 n=51 v=100
169670 Off ch=5 n=51 v=100
169680 On ch=5 n=54 v=100
169910 Off ch=5 n=54 v=100
169920 Pb ch=5 v=6827
169920 On ch=5 n=56 v=100
170040 Pb ch=5 v=8192
170150 Off ch=5 n=56 v=100
170160 On ch=5 n=56 v=100
170270 Off ch=5 n=56 v=100
170280 On ch=5 n=56 v=100
170390 Off ch=5 n=56 v=100
170400 On ch=5 n=56 v=100
170630 Off ch=5 n=56 v=100
170640 Pb ch=5 v=6827
170640 On ch=5 n=56 v=100
170760 Pb ch=5 v=8192
170870 Off ch=5 n=56 v=100
170880 On ch=5 n=56 v=100
170990 Off ch=5 n=56 v=100
171000 On ch=5 n=56 v=100
171110 Off ch=5 n=56 v=100
171120 On ch=5 n=56 v=100
171230 Off ch=5 n=56 v=100
171240 On ch=5 n=54 v=100
171350 Off ch=5 n=54 v=100
171360 On ch=5 n=51 v=100
171590 Off ch=5 n=51 v=100
171600 On ch=5 n=50 v=100
171830 Off ch=5 n=50 v=100
171840 On ch=5 n=49 v=100
172070 Off ch=5 n=49 v=100
172080 On ch=5 n=48 v=100
172310 Off ch=5 n=48 v=100
172320 On ch=5 n=47 v=100
172550 Off ch=5 n=47 v=100
172560 On ch=5 n=44 v=100
172790 Off ch=5 n=44 v=100
172800 Pb ch=5 v=6827
172800 On ch=5 n=44 v=100
172920 Pb ch=5 v=8192
173030 Off ch=5 n=44 v=100
173040 On ch=5 n=44 v=100
173150 Off ch=5 n=44 v=100
173160 On ch=5 n=44 v=100
173270 Off ch=5 n=44 v=100
173280 On ch=5 n=44 v=100
173510 Off ch=5 n=44 v=100
173520 Pb ch=5 v=6827
173520 On ch=5 n=44 v=100
173640 Pb ch=5 v=8192
173750 Off ch=5 n=44 v=100
173760 On ch=5 n=44 v=100
173870 Off ch=5 n=44 v=100
173880 On ch=5 n=44 v=100
173990 Off ch=5 n=44 v=100
174000 On ch=5 n=44 v=100
174110 Off ch=5 n=44 v=100
174120 On ch=5 n=44 v=100
174230 Off ch=5 n=44 v=100
174240 On ch=5 n=47 v=100
174470 Off ch=5 n=47 v=100
174480 On ch=5 n=48 v=100
174710 Off ch=5 n=48 v=100
174720 On ch=5 n=49 v=100
174950 Off ch=5 n=49 v=100
174960 On ch=5 n=50 v=100
175190 Off ch=5 n=50 v=100
175200 On ch=5 n=51 v=100
175430 Off ch=5 n=51 v=100
175440 On ch=5 n=54 v=100
175670 Off ch=5 n=54 v=100
175680 Pb ch=5 v=6827
175680 On ch=5 n=56 v=100
175800 Pb ch=5 v=8192
175910 Off ch=5 n=56 v=100
175920 On ch=5 n=56 v=100
176030 Off ch=5 n=56 v=100
176040 On ch=5 n=56 v=100
176150 Off ch=5 n=56 v=100
176160 On ch=5 n=56 v=100
176390 Off ch=5 n=56 v=100
176400 Pb ch=5 v=6827
176400 On ch=5 n=56 v=100
176520 Pb ch=5 v=8192
176630 Off ch=5 n=56 v=100
176640 On ch=5 n=56 v=100
176750 Off ch=5 n=56 v=100
176760 On ch=5 n=56 v=100
176870 Off ch=5 n=56 v=100
176880 On ch=5 n=56 v=100
176990 Off ch=5 n=56 v=100
177000 On ch=5 n=56 v=100
177110 Off ch=5 n=56 v=100
177120 On ch=5 n=59 v=100
177350 Off ch=5 n=59 v=100
177360 On ch=5 n=60 v=100
177590 Off ch=5 n=60 v=100
177600 On ch=5 n=61 v=100
177830 Off ch=5 n=61 v=100
177840 On ch=5 n=62 v=100
178070 Off ch=5 n=62 v=100
178080 On ch=5 n=63 v=100
178310 Off ch=5 n=63 v=100
178320 On ch=5 n=66 v=100
178550 Off ch=5 n=66 v=100
178560 Pb ch=5 v=6827
178560 On ch=5 n=68 v=100
178680 Pb ch=5 v=8192
178790 Off ch=5 n=68 v=100
178800 On ch=5 n=68 v=100
178910 Off ch=5 n=68 v=100
178920 On ch=5 n=68 v=100
179030 Off ch=5 n=68 v=100
179040 On ch=5 n=68 v=100
179270 Off ch=5 n=68 v=100
179280 Pb ch=5 v=6827
179280 On ch=5 n=68 v=100
179400 Pb ch=5 v=8192
179510 Off ch=5 n=68 v=100
179520 On ch=5 n=68 v=100
179630 Off ch=5 n=68 v=100
179640 On ch=5 n=68 v=100
179750 Off ch=5 n=68 v=100
179760 On ch=5 n=68 v=100
179870 Off ch=5 n=68 v=100
179880 On ch=5 n=66 v=100
179990 Off ch=5 n=66 v=100
180000 On ch=5 n=63 v=100
180230 Off ch=5 n=63 v=100
180240 On ch=5 n=62 v=100
180470 Off ch=5 n=62 v=100
180480 On ch=5 n=61 v=100
180710 Off ch=5 n=61 v=100
180720 On ch=5 n=60 v=100
180950 Off ch=5 n=60 v=100
180960 On ch=5 n=59 v=100
181190 Off ch=5 n=59 v=100
181200 On ch=5 n=56 v=100
181430 Off ch=5 n=56 v=100
181440 Pb ch=5 v=6827
181440 On ch=5 n=56 v=100
181560 Pb ch=5 v=8192
181670 Off ch=5 n=56 v=100
181680 On ch=5 n=56 v=100
181790 Off ch=5 n=56 v=100
181800 On ch=5 n=56 v=100
181910 Off ch=5 n=56 v=100
181920 On ch=5 n=56 v=100
182150 Off ch=5 n=56 v=100
182160 Pb ch=5 v=6827
182160 On ch=5 n=56 v=100
182280 Pb ch=5 v=8192
182390 Off ch=5 n=56 v=100
182400 On ch=5 n=56 v=100
182510 Off ch=5 n=56 v=100
182520 On ch=5 n=56 v=100
182630 Off ch=5 n=56 v=100
182640 On ch=5 n=56 v=100
182750 Off ch=5 n=56 v=100
182760 On ch=5 n=56 v=100
182870 Off ch=5 n=56 v=100
182880 On ch=5 n=59 v=100
183110 Off ch=5 n=59 v=100
183120 On ch=5 n=60 v=100
183350 Off ch=5 n=60 v=100
183360 On ch=5 n=61 v=100
183590 Off ch=5 n=61 v=100
183600 On ch=5 n=62 v=100
183830 Off ch=5 n=62 v=100
183840 On ch=5 n=63 v=100
184070 Off ch=5 n=63 v=100
184080 On ch=5 n=66 v=100
184310 Off ch=5 n=66 v=100
184320 On ch=5 n=68 v=100
184500 Off ch=5 n=68 v=100
184560 On ch=5 n=63 v=100
184740 Off ch=5 n=63 v=100
184800 On ch=5 n=59 v=100
184980 Off ch=5 n=59 v=100
185040 Par ch=5 c=1 v=30
185040 On ch=5 n=58 v=100
185510 Off ch=5 n=58 v=100
185520 Par ch=5 c=1 v=0
185520 On ch=5 n=61 v=100
185700 Off ch=5 n=61 v=100
185760 Par ch=5 c=1 v=45
185760 On ch=5 n=59 v=100
186230 Off ch=5 n=59 v=100
186240 Par ch=5 c=1 v=0
186240 On ch=5 n=63 v=100
186420 Off ch=5 n=63 v=100
186480 Par ch=5 c=1 v=50
186480 On ch=5 n=61 v=100
186950 Off ch=5 n=61 v=100
186960 Par ch=5 c=1 v=0
186960 On ch=5 n=66 v=100
187140 Off ch=5 n=66 v=100
187200 On ch=5 n=64 v=100
187320 Pb ch=5 v=9557
187440 Pb ch=5 v=8192
187520 Pb ch=5 v=9557
187600 Pb ch=5 v=8192
187670 Off ch=5 n=64 v=100
187680 On ch=5 n=75 v=100
187860 Off ch=5 n=75 v=100
188400 On ch=5 n=73 v=100
188560 Off ch=5 n=73 v=100
189120 On ch=5 n=83 v=100
189280 Off ch=5 n=83 v=100
189880 On ch=5 n=75 v=100
189980 Pb ch=5 v=8875
190080 Pb ch=5 v=8192
190180 Pb ch=5 v=6827
190260 Pb ch=5 v=8192
190260 Off ch=5 n=75 v=100
190260 On ch=5 n=75 v=100
191750 Off ch=5 n=75 v=100
191760 Pb ch=5 v=6827
191760 On ch=5 n=44 v=100
191880 Pb ch=5 v=8192
191990 Off ch=5 n=44 v=100
192000 On ch=5 n=44 v=100
192110 Off ch=5 n=44 v=100
192120 On ch=5 n=44 v=100
192230 Off ch=5 n=44 v=100
192240 On ch=5 n=44 v=100
192350 Off ch=5 n=44 v=100
192360 On ch=5 n=44 v=100
192470 Off ch=5 n=44 v=100
192480 Pb ch=5 v=6827
192480 On ch=5 n=44 v=100
192600 Pb ch=5 v=8192
192710 Off ch=5 n=44 v=100
192720 On ch=5 n=44 v=100
192830 Off ch=5 n=44 v=100
192840 On ch=5 n=44 v=100
192950 Off ch=5 n=44 v=100
192960 On ch=5 n=44 v=100
193070 Off ch=5 n=44 v=100
193080 On ch=5 n=44 v=100
193190 Off ch=5 n=44 v=100
193200 On ch=5 n=47 v=100
193430 Off ch=5 n=47 v=100
193440 On ch=5 n=48 v=100
193670 Off ch=5 n=48 v=100
193680 On ch=5 n=49 v=100
193910 Off ch=5 n=49 v=100
193920 On ch=5 n=50 v=100
194150 Off ch=5 n=50 v=100
194160 On ch=5 n=51 v=100
194390 Off ch=5 n=51 v=100
194400 On ch=5 n=54 v=100
194630 Off ch=5 n=54 v=100
194640 Pb ch=5 v=6827
194640 On ch=5 n=56 v=100
194760 Pb ch=5 v=8192
194870 Off ch=5 n=56 v=100
194880 On ch=5 n=56 v=100
194990 Off ch=5 n=56 v=100
195000 On ch=5 n=56 v=100
195110 Off ch=5 n=56 v=100
195120 On ch=5 n=56 v=100
195350 Off ch=5 n=56 v=100
195360 Pb ch=5 v=6827
195360 On ch=5 n=56 v=100
195480 Pb ch=5 v=8192
195590 Off ch=5 n=56 v=100
195600 On ch=5 n=56 v=100
195710 Off ch=5 n=56 v=100
195720 On ch=5 n=56 v=100
195830 Off ch=5 n=56 v=100
195840 On ch=5 n=56 v=100
195950 Off ch=5 n=56 v=100
195960 On ch=5 n=54 v=100
196070 Off ch=5 n=54 v=100
196080 On ch=5 n=51 v=100
196310 Off ch=5 n=51 v=100
196320 On ch=5 n=50 v=100
196550 Off ch=5 n=50 v=100
196560 On ch=5 n=49 v=100
196790 Off ch=5 n=49 v=100
196800 On ch=5 n=48 v=100
197030 Off ch=5 n=48 v=100
197040 On ch=5 n=47 v=100
197270 Off ch=5 n=47 v=100
197280 On ch=5 n=44 v=100
197510 Off ch=5 n=44 v=100
197520 Pb ch=5 v=6827
197520 On ch=5 n=44 v=100
197640 Pb ch=5 v=8192
197750 Off ch=5 n=44 v=100
197760 On ch=5 n=44 v=100
197870 Off ch=5 n=44 v=100
197880 On ch=5 n=44 v=100
197990 Off ch=5 n=44 v=100
198000 On ch=5 n=44 v=100
198230 Off ch=5 n=44 v=100
198240 Pb ch=5 v=6827
198240 On ch=5 n=44 v=100
198360 Pb ch=5 v=8192
198470 Off ch=5 n=44 v=100
198480 On ch=5 n=44 v=100
198590 Off ch=5 n=44 v=100
198600 On ch=5 n=44 v=100
198710 Off ch=5 n=44 v=100
198720 On ch=5 n=44 v=100
198830 Off ch=5 n=44 v=100
198840 On ch=5 n=44 v=100
198950 Off ch=5 n=44 v=100
198960 On ch=5 n=47 v=100
199190 Off ch=5 n=47 v=100
199200 On ch=5 n=48 v=100
199430 Off ch=5 n=48 v=100
199440 On ch=5 n=49 v=100
199670 Off ch=5 n=49 v=100
199680 On ch=5 n=50 v=100
199910 Off ch=5 n=50 v=100
199920 On ch=5 n=51 v=100
200150 Off ch=5 n=51 v=100
200160 On ch=5 n=54 v=100
200390 Off ch=5 n=54 v=100
200400 Pb ch=5 v=6827
200400 On ch=5 n=56 v=100
200520 Pb ch=5 v=8192
200630 Off ch=5 n=56 v=100
200640 On ch=5 n=56 v=100
200750 Off ch=5 n=56 v=100
200760 On ch=5 n=56 v=100
200870 Off ch=5 n=56 v=100
200880 On ch=5 n=56 v=100
201110 Off ch=5 n=56 v=100
201120 Pb ch=5 v=6827
201120 On ch=5 n=56 v=100
201240 Pb ch=5 v=8192
201350 Off ch=5 n=56 v=100
201360 On ch=5 n=56 v=100
201470 Off ch=5 n=56 v=100
201480 On ch=5 n=56 v=100
201590 Off ch=5 n=56 v=100
201600 On ch=5 n=56 v=100
201710 Off ch=5 n=56 v=100
201720 On ch=5 n=56 v=100
201830 Off ch=5 n=56 v=100
201840 On ch=5 n=59 v=100
202070 Off ch=5 n=59 v=100
202080 On ch=5 n=60 v=100
202310 Off ch=5 n=60 v=100
202320 On ch=5 n=61 v=100
202550 Off ch=5 n=61 v=100
202560 On ch=5 n=62 v=100
202790 Off ch=5 n=62 v=100
202800 On ch=5 n=63 v=100
203030 Off ch=5 n=63 v=100
203040 On ch=5 n=66 v=100
203270 Off ch=5 n=66 v=100
203280 Pb ch=5 v=6827
203280 On ch=5 n=68 v=100
203400 Pb ch=5 v=8192
203510 Off ch=5 n=68 v=100
203520 On ch=5 n=68 v=100
203630 Off ch=5 n=68 v=100
203640 On ch=5 n=68 v=100
203750 Off ch=5 n=68 v=100
203760 On ch=5 n=68 v=100
203990 Off ch=5 n=68 v=100
204000 Pb ch=5 v=6827
204000 On ch=5 n=68 v=100
204120 Pb ch=5 v=8192
204230 Off ch=5 n=68 v=100
204240 On ch=5 n=68 v=100
204350 Off ch=5 n=68 v=100
204360 On ch=5 n=68 v=100
204470 Off ch=5 n=68 v=100
204480 On ch=5 n=68 v=100
204590 Off ch=5 n=68 v=100
204600 On ch=5 n=66 v=100
204710 Off ch=5 n=66 v=100
204720 On ch=5 n=63 v=100
204950 Off ch=5 n=63 v=100
204960 On ch=5 n=62 v=100
205190 Off ch=5 n=62 v=100
205200 On ch=5 n=61 v=100
205430 Off ch=5 n=61 v=100
205440 On ch=5 n=60 v=100
205670 Off ch=5 n=60 v=100
205680 On ch=5 n=59 v=100
205910 Off ch=5 n=59 v=100
205920 On ch=5 n=56 v=100
206150 Off ch=5 n=56 v=100
206160 Pb ch=5 v=6827
206160 On ch=5 n=56 v=100
206280 Pb ch=5 v=8192
206390 Off ch=5 n=56 v=100
206400 On ch=5 n=56 v=100
206510 Off ch=5 n=56 v=100
206520 On ch=5 n=56 v=100
206630 Off ch=5 n=56 v=100
206640 On ch=5 n=56 v=100
206870 Off ch=5 n=56 v=100
206880 Pb ch=5 v=6827
206880 On ch=5 n=56 v=100
207000 Pb ch=5 v=8192
207110 Off ch=5 n=56 v=100
207120 On ch=5 n=56 v=100
207230 Off ch=5 n=56 v=100
207240 On ch=5 n=56 v=100
207350 Off ch=5 n=56 v=100
207360 On ch=5 n=56 v=100
207470 Off ch=5 n=56 v=100
207480 On ch=5 n=56 v=100
207590 Off ch=5 n=56 v=100
207600 On ch=5 n=59 v=100
207830 Off ch=5 n=59 v=100
207840 On ch=5 n=60 v=100
208070 Off ch=5 n=60 v=100
208080 On ch=5 n=61 v=100
208310 Off ch=5 n=61 v=100
208320 On ch=5 n=62 v=100
208550 Off ch=5 n=62 v=100
208560 On ch=5 n=63 v=100
208790 Off ch=5 n=63 v=100
208800 On ch=5 n=66 v=100
209030 Off ch=5 n=66 v=100
209040 Pb ch=5 v=6827
209040 On ch=5 n=68 v=100
209160 Pb ch=5 v=8192
209270 Off ch=5 n=68 v=100
209280 On ch=5 n=68 v=100
209390 Off ch=5 n=68 v=100
209400 On ch=5 n=68 v=100
209510 Off ch=5 n=68 v=100
209520 On ch=5 n=68 v=100
209750 Off ch=5 n=68 v=100
209760 Pb ch=5 v=6827
209760 On ch=5 n=68 v=100
209880 Pb ch=5 v=8192
209990 Off ch=5 n=68 v=100
210000 On ch=5 n=68 v=100
210110 Off ch=5 n=68 v=100
210120 On ch=5 n=68 v=100
210230 Off ch=5 n=68 v=100
210240 On ch=5 n=68 v=100
210350 Off ch=5 n=68 v=100
210360 On ch=5 n=66 v=100
210470 Off ch=5 n=66 v=100
210480 On ch=5 n=63 v=100
210710 Off ch=5 n=63 v=100
210720 On ch=5 n=62 v=100
210950 Off ch=5 n=62 v=100
210960 On ch=5 n=61 v=100
211190 Off ch=5 n=61 v=100
211200 On ch=5 n=60 v=100
211430 Off ch=5 n=60 v=100
211440 On ch=5 n=59 v=100
211670 Off ch=5 n=59 v=100
211680 On ch=5 n=56 v=100
211910 Off ch=5 n=56 v=100
211920 Pb ch=5 v=6827
211920 On ch=5 n=68 v=100
212040 Pb ch=5 v=8192
212150 Off ch=5 n=68 v=100
212160 On ch=5 n=68 v=100
212270 Off ch=5 n=68 v=100
212280 On ch=5 n=68 v=100
212390 Off ch=5 n=68 v=100
212400 On ch=5 n=68 v=100
212630 Off ch=5 n=68 v=100
212640 Pb ch=5 v=6827
212640 On ch=5 n=68 v=100
212760 Pb ch=5 v=8192
212870 Off ch=5 n=68 v=100
212880 On ch=5 n=68 v=100
212990 Off ch=5 n=68 v=100
213000 On ch=5 n=68 v=100
213110 Off ch=5 n=68 v=100
213120 On ch=5 n=68 v=100
213230 Off ch=5 n=68 v=100
213240 On ch=5 n=66 v=100
213350 Off ch=5 n=66 v=100
213360 On ch=5 n=75 v=100
213590 Off ch=5 n=75 v=100
213600 On ch=5 n=74 v=100
213830 Off ch=5 n=74 v=100
213840 On ch=5 n=73 v=100
214070 Off ch=5 n=73 v=100
214080 On ch=5 n=72 v=100
214310 Off ch=5 n=72 v=100
214320 On ch=5 n=71 v=100
214550 Off ch=5 n=71 v=100
214560 On ch=5 n=68 v=100
214790 Off ch=5 n=68 v=100
214800 Pb ch=5 v=6827
214800 On ch=5 n=68 v=100
214920 Pb ch=5 v=8192
215030 Off ch=5 n=68 v=100
215040 On ch=5 n=68 v=100
215150 Off ch=5 n=68 v=100
215160 On ch=5 n=68 v=100
215270 Off ch=5 n=68 v=100
215280 On ch=5 n=68 v=100
215510 Off ch=5 n=68 v=100
215520 Pb ch=5 v=6827
215520 On ch=5 n=68 v=100
215640 Pb ch=5 v=8192
215750 Off ch=5 n=68 v=100
215760 On ch=5 n=68 v=100
215870 Off ch=5 n=68 v=100
215880 On ch=5 n=68 v=100
215990 Off ch=5 n=68 v=100
216000 On ch=5 n=68 v=100
216110 Off ch=5 n=68 v=100
216120 On ch=5 n=66 v=100
216230 Off ch=5 n=66 v=100
216240 On ch=5 n=80 v=100
216470 Off ch=5 n=80 v=100
216480 On ch=5 n=79 v=100
216710 Off ch=5 n=79 v=100
216720 On ch=5 n=78 v=100
216950 Off ch=5 n=78 v=100
216960 On ch=5 n=77 v=100
217190 Off ch=5 n=77 v=100
217200 On ch=5 n=76 v=100
217430 Off ch=5 n=76 v=100
217440 On ch=5 n=75 v=100
217670 Off ch=5 n=75 v=100
217680 Pb ch=5 v=6827
217680 On ch=5 n=68 v=100
217800 Pb ch=5 v=8192
217910 Off ch=5 n=68 v=100
217920 On ch=5 n=68 v=100
218030 Off ch=5 n=68 v=100
218040 On ch=5 n=68 v=100
218150 Off ch=5 n=68 v=100
218160 On ch=5 n=68 v=100
218390 Off ch=5 n=68 v=100
218400 Pb ch=5 v=6827
218400 On ch=5 n=68 v=100
218520 Pb ch=5 v=8192
218630 Off ch=5 n=68 v=100
218640 On ch=5 n=68 v=100
218750 Off ch=5 n=68 v=100
218760 On ch=5 n=68 v=100
218870 Off ch=5 n=68 v=100
218880 On ch=5 n=68 v=100
218990 Off ch=5 n=68 v=100
219000 On ch=5 n=66 v=100
219110 Off ch=5 n=66 v=100
219120 On ch=5 n=75 v=100
219350 Off ch=5 n=75 v=100
219360 On ch=5 n=74 v=100
219590 Off ch=5 n=74 v=100
219600 On ch=5 n=73 v=100
219830 Off ch=5 n=73 v=100
219840 On ch=5 n=72 v=100
220070 Off ch=5 n=72 v=100
220080 On ch=5 n=71 v=100
220310 Off ch=5 n=71 v=100
220320 On ch=5 n=70 v=100
220550 Off ch=5 n=70 v=100
220560 Pb ch=5 v=6827
220560 On ch=5 n=68 v=100
220680 Pb ch=5 v=8192
220790 Off ch=5 n=68 v=100
220800 On ch=5 n=68 v=100
220910 Off ch=5 n=68 v=100
220920 On ch=5 n=68 v=100
221030 Off ch=5 n=68 v=100
221040 On ch=5 n=68 v=100
221270 Off ch=5 n=68 v=100
221280 Pb ch=5 v=6827
221280 On ch=5 n=68 v=100
221400 Pb ch=5 v=8192
221510 Off ch=5 n=68 v=100
221520 On ch=5 n=68 v=100
221630 Off ch=5 n=68 v=100
221640 On ch=5 n=68 v=100
221750 Off ch=5 n=68 v=100
221760 On ch=5 n=68 v=100
221870 Off ch=5 n=68 v=100
221880 On ch=5 n=66 v=100
221990 Off ch=5 n=66 v=100
222000 On ch=5 n=80 v=100
222230 Off ch=5 n=80 v=100
222240 On ch=5 n=79 v=100
222470 Off ch=5 n=79 v=100
222480 On ch=5 n=78 v=100
222710 Off ch=5 n=78 v=100
222720 On ch=5 n=77 v=100
222950 Off ch=5 n=77 v=100
222960 On ch=5 n=76 v=100
223190 Off ch=5 n=76 v=100
223200 On ch=5 n=75 v=100
223430 Off ch=5 n=75 v=100
223440 Par ch=5 c=6 v=55
223440 On ch=5 n=68 v=100
223620 Off ch=5 n=68 v=100
223680 On ch=5 n=63 v=100
223860 Off ch=5 n=63 v=100
223920 On ch=5 n=59 v=100
224100 Off ch=5 n=59 v=100
224160 Par ch=5 c=1 v=30
224160 On ch=5 n=58 v=100
224630 Off ch=5 n=58 v=100
224640 Par ch=5 c=1 v=0
224640 On ch=5 n=61 v=100
224820 Off ch=5 n=61 v=100
224880 Par ch=5 c=1 v=45
224880 On ch=5 n=59 v=100
225350 Off ch=5 n=59 v=100
225360 Par ch=5 c=1 v=0
225360 On ch=5 n=63 v=100
225540 Off ch=5 n=63 v=100
225600 Par ch=5 c=1 v=50
225600 On ch=5 n=61 v=100
226070 Off ch=5 n=61 v=100
226080 Par ch=5 c=1 v=0
226080 On ch=5 n=66 v=100
226260 Off ch=5 n=66 v=100
226320 On ch=5 n=64 v=100
226440 Pb ch=5 v=9557
226560 Pb ch=5 v=8192
226640 Pb ch=5 v=9557
226720 Pb ch=5 v=8192
226790 Off ch=5 n=64 v=100
226800 On ch=5 n=75 v=100
226980 Off ch=5 n=75 v=100
227520 On ch=5 n=73 v=100
227680 Off ch=5 n=73 v=100
228240 On ch=5 n=83 v=100
228400 Off ch=5 n=83 v=100
229000 On ch=5 n=75 v=100
229100 Pb ch=5 v=8875
229200 Pb ch=5 v=8192
229300 Pb ch=5 v=6827
229380 Pb ch=5 v=8192
229380 Off ch=5 n=75 v=100
229380 On ch=5 n=75 v=100
230130 Off ch=5 n=75 v=100
230160 Par ch=5 c=11 v=127
230160 Par ch=5 c=93 v=80
230160 Par ch=5 c=6 v=30
230160 Pb ch=5 v=9557
230160 On ch=5 n=73 v=90
230260 Pb ch=5 v=8192
230400 Par ch=5 c=6 v=25
230400 Pb ch=5 v=8192
230410 Pb ch=5 v=7550
230420 Pb ch=5 v=6909
230430 Pb ch=5 v=6144
230440 Pb ch=5 v=5502
230450 Par ch=5 c=6 v=40
230450 Pb ch=5 v=4779
230800 Off ch=5 n=73 v=90
230810 Pb ch=5 v=8192
230810 Par ch=5 c=6 v=25
230810 On ch=5 n=71 v=90
231170 Par ch=5 c=11 v=127
231170 Off ch=5 n=71 v=90
231170 On ch=5 n=63 v=90
231400 Par ch=5 c=11 v=126
231510 Par ch=5 c=11 v=125
231580 Par ch=5 c=11 v=124
231630 Par ch=5 c=11 v=123
231670 Par ch=5 c=11 v=122
231700 Par ch=5 c=11 v=121
231740 Par ch=5 c=11 v=120
231760 Par ch=5 c=11 v=119
231780 Par ch=5 c=11 v=118
231800 Par ch=5 c=11 v=117
231820 Par ch=5 c=11 v=116
231840 Par ch=5 c=11 v=115
231860 Par ch=5 c=11 v=114
231870 Par ch=5 c=11 v=113
231880 Par ch=5 c=11 v=112
231900 Par ch=5 c=11 v=111
231910 Par ch=5 c=11 v=110
231920 Par ch=5 c=11 v=109
231930 Par ch=5 c=11 v=108
231940 Par ch=5 c=11 v=107
231950 Par ch=5 c=11 v=106
231960 Par ch=5 c=11 v=105
231970 Par ch=5 c=11 v=104
231980 Par ch=5 c=11 v=103
231990 Par ch=5 c=11 v=101
232000 Par ch=5 c=11 v=100
232010 Par ch=5 c=11 v=99
232020 Par ch=5 c=11 v=97
232030 Par ch=5 c=11 v=95
232040 Par ch=5 c=11 v=94
232050 Par ch=5 c=11 v=92
232060 Par ch=5 c=11 v=91
232070 Par ch=5 c=11 v=88
232080 Par ch=5 c=11 v=87
232090 Par ch=5 c=11 v=85
232100 Par ch=5 c=11 v=83
232110 Par ch=5 c=11 v=80
232120 Par ch=5 c=11 v=78
232130 Par ch=5 c=11 v=75
232140 Par ch=5 c=11 v=73
232150 Par ch=5 c=11 v=69
232160 Par ch=5 c=11 v=67
232170 Par ch=5 c=11 v=64
232180 Par ch=5 c=11 v=62
232190 Par ch=5 c=11 v=57
232200 Par ch=5 c=11 v=54
232210 Par ch=5 c=11 v=51
232220 Par ch=5 c=11 v=47
232230 Par ch=5 c=11 v=42
232240 Par ch=5 c=11 v=38
232250 Par ch=5 c=11 v=34
232260 Par ch=5 c=11 v=30
232270 Par ch=5 c=11 v=23
232280 Par ch=5 c=11 v=19
232290 Par ch=5 c=11 v=14
232300 Par ch=5 c=11 v=9
232310 Par ch=5 c=11 v=0
232320 Off ch=5 n=63 v=90
234720 Par ch=5 c=98 v=33
234730 Par ch=5 c=99 v=1
234740 Par ch=5 c=6 v=80
234750 Par ch=5 c=98 v=32
234760 Par ch=5 c=99 v=1
234770 Par ch=5 c=6 v=80
234780 Par ch=5 c=10 v=0
234790 PrCh ch=5 p=26
234800 Par ch=5 c=11 v=80
234810 Par ch=5 c=91 v=40
234820 Par ch=5 c=93 v=40
235200 On ch=5 n=63 v=70
235910 Off ch=5 n=63 v=70
235920 On ch=5 n=63 v=70
236400 On ch=5 n=68 v=50
236620 Off ch=5 n=63 v=70
236640 On ch=5 n=63 v=70
237100 Off ch=5 n=68 v=50
237120 On ch=5 n=68 v=50
237340 Off ch=5 n=63 v=70
237360 On ch=5 n=63 v=70
237820 Off ch=5 n=68 v=50
237840 On ch=5 n=68 v=50
238060 Off ch=5 n=63 v=70
238080 On ch=5 n=63 v=70
238540 Off ch=5 n=68 v=50
238560 On ch=5 n=68 v=50
238780 Off ch=5 n=63 v=70
238800 On ch=5 n=63 v=70
239260 Off ch=5 n=68 v=50
239280 On ch=5 n=68 v=50
239500 Off ch=5 n=63 v=70
239520 On ch=5 n=63 v=70
239980 Off ch=5 n=68 v=50
240000 On ch=5 n=68 v=50
240220 Off ch=5 n=63 v=70
240240 On ch=5 n=63 v=70
240700 Off ch=5 n=68 v=50
240720 On ch=5 n=68 v=50
240940 Off ch=5 n=63 v=70
240960 On ch=5 n=63 v=70
241420 Off ch=5 n=68 v=50
241440 On ch=5 n=68 v=50
241660 Off ch=5 n=63 v=70
241680 On ch=5 n=63 v=70
242140 Off ch=5 n=68 v=50
242160 On ch=5 n=68 v=50
242380 Off ch=5 n=63 v=70
242400 On ch=5 n=63 v=70
242860 Off ch=5 n=68 v=50
242880 On ch=5 n=68 v=50
243100 Off ch=5 n=63 v=70
243120 On ch=5 n=63 v=70
243360 Off ch=5 n=63 v=70
243580 Off ch=5 n=68 v=50
243600 On ch=5 n=70 v=50
243840 On ch=5 n=65 v=70
244300 Off ch=5 n=70 v=50
244320 On ch=5 n=70 v=50
244540 Off ch=5 n=65 v=70
244560 On ch=5 n=65 v=70
245020 Off ch=5 n=70 v=50
245040 On ch=5 n=70 v=50
245260 Off ch=5 n=65 v=70
245280 On ch=5 n=65 v=70
245740 Off ch=5 n=70 v=50
245760 On ch=5 n=70 v=50
245980 Off ch=5 n=65 v=70
246000 On ch=5 n=65 v=70
246240 Off ch=5 n=65 v=70
246460 Off ch=5 n=70 v=50
246480 On ch=5 n=70 v=50
246720 On ch=5 n=65 v=70
247180 Off ch=5 n=70 v=50
247200 On ch=5 n=70 v=50
247420 Off ch=5 n=65 v=70
247440 On ch=5 n=65 v=70
247900 Off ch=5 n=70 v=50
247920 On ch=5 n=70 v=50
248140 Off ch=5 n=65 v=70
248160 On ch=5 n=65 v=70
248620 Off ch=5 n=70 v=50
248640 On ch=5 n=70 v=50
248860 Off ch=5 n=65 v=70
248880 On ch=5 n=65 v=70
249120 Off ch=5 n=65 v=70
249340 Off ch=5 n=70 v=50
249360 On ch=5 n=70 v=50
249600 On ch=5 n=66 v=70
250060 Off ch=5 n=70 v=50
250080 On ch=5 n=70 v=50
250300 Off ch=5 n=66 v=70
250320 On ch=5 n=66 v=70
250780 Off ch=5 n=70 v=50
250800 On ch=5 n=70 v=50
251020 Off ch=5 n=66 v=70
251040 On ch=5 n=66 v=70
251500 Off ch=5 n=70 v=50
251520 On ch=5 n=70 v=50
251740 Off ch=5 n=66 v=70
251760 On ch=5 n=66 v=70
252000 Off ch=5 n=66 v=70
252220 Off ch=5 n=70 v=50
252480 On ch=5 n=67 v=70
252720 On ch=5 n=63 v=70
252960 Off ch=5 n=67 v=70
252960 On ch=5 n=67 v=70
253200 Off ch=5 n=63 v=70
253430 Off ch=5 n=67 v=70
253440 Pb ch=5 v=8875
253440 On ch=5 n=74 v=70
253680 Pb ch=5 v=8192
253920 Pb ch=5 v=6827
254150 Off ch=5 n=74 v=70
254160 Pb ch=5 v=10240
254160 On ch=5 n=67 v=40
254400 Pb ch=5 v=8192
254870 Off ch=5 n=67 v=40
255360 On ch=5 n=65 v=40
255600 On ch=5 n=61 v=60
256060 Off ch=5 n=65 v=40
256300 Off ch=5 n=61 v=60
256320 Pb ch=5 v=8875
256320 On ch=5 n=72 v=60
256560 Pb ch=5 v=8192
256800 Pb ch=5 v=6827
257020 Off ch=5 n=72 v=60
257040 Pb ch=5 v=10240
257040 On ch=5 n=65 v=50
257280 Pb ch=5 v=8192
257740 Off ch=5 n=65 v=50
258000 On ch=5 n=63 v=50
258240 On ch=5 n=60 v=55
258480 Off ch=5 n=63 v=50
258720 On ch=5 n=68 v=60
258940 Off ch=5 n=60 v=55
259420 Off ch=5 n=68 v=60
259440 On ch=5 n=68 v=50
259680 On ch=5 n=63 v=50
260140 Off ch=5 n=68 v=50
260160 On ch=5 n=68 v=50
260380 Off ch=5 n=63 v=50
260400 On ch=5 n=63 v=50
260560 Off ch=5 n=68 v=50
260640 Off ch=5 n=63 v=50
261600 On ch=5 n=68 v=50
261840 On ch=5 n=63 v=50
262300 Off ch=5 n=68 v=50
262320 On ch=5 n=68 v=50
262540 Off ch=5 n=63 v=50
262560 On ch=5 n=63 v=50
263020 Off ch=5 n=68 v=50
263040 On ch=5 n=68 v=50
263260 Off ch=5 n=63 v=50
263280 On ch=5 n=63 v=50
263510 Off ch=5 n=63 v=50
263520 Off ch=5 n=68 v=50
264240 On ch=5 n=70 v=50
264480 On ch=5 n=65 v=50
264940 Off ch=5 n=70 v=50
264960 On ch=5 n=70 v=50
265180 Off ch=5 n=65 v=50
265200 On ch=5 n=65 v=50
265660 Off ch=5 n=70 v=50
265680 On ch=5 n=70 v=50
265900 Off ch=5 n=65 v=50
265920 On ch=5 n=65 v=50
266380 Off ch=5 n=70 v=50
266390 Off ch=5 n=65 v=50
266640 On ch=5 n=70 v=50
266880 On ch=5 n=66 v=50
267340 Off ch=5 n=70 v=50
267360 On ch=5 n=70 v=50
267580 Off ch=5 n=66 v=50
267600 On ch=5 n=66 v=50
268060 Off ch=5 n=70 v=50
268080 On ch=5 n=70 v=50
268300 Off ch=5 n=66 v=50
268320 On ch=5 n=66 v=50
268780 Off ch=5 n=70 v=50
268800 On ch=5 n=70 v=50
269020 Off ch=5 n=66 v=50
269040 On ch=5 n=66 v=50
269270 Off ch=5 n=66 v=50
269280 Off ch=5 n=70 v=50
269520 On ch=5 n=70 v=50
269760 On ch=5 n=67 v=50
270220 Off ch=5 n=70 v=50
270240 On ch=5 n=70 v=50
270460 Off ch=5 n=67 v=50
270480 On ch=5 n=67 v=50
270940 Off ch=5 n=70 v=50
270960 On ch=5 n=72 v=45
271180 Off ch=5 n=67 v=50
271200 On ch=5 n=67 v=45
271660 Off ch=5 n=72 v=45
271680 On ch=5 n=72 v=40
271900 Off ch=5 n=67 v=45
271920 On ch=5 n=67 v=40
272150 Off ch=5 n=67 v=40
272160 Off ch=5 n=72 v=40
272400 On ch=5 n=70 v=50
272640 On ch=5 n=65 v=50
273100 Off ch=5 n=70 v=50
273120 On ch=5 n=70 v=50
273340 Off ch=5 n=65 v=50
273360 On ch=5 n=65 v=50
273820 Off ch=5 n=70 v=50
273840 On ch=5 n=70 v=50
274060 Off ch=5 n=65 v=50
274080 On ch=5 n=65 v=50
274540 Off ch=5 n=70 v=50
274560 On ch=5 n=70 v=50
274780 Off ch=5 n=65 v=50
274800 On ch=5 n=65 v=50
275030 Off ch=5 n=65 v=50
275040 Off ch=5 n=70 v=50
275280 On ch=5 n=72 v=50
275520 On ch=5 n=68 v=50
275980 Off ch=5 n=72 v=50
276000 On ch=5 n=72 v=50
276220 Off ch=5 n=68 v=50
276240 On ch=5 n=68 v=50
276700 Off ch=5 n=72 v=50
277200 On ch=5 n=72 v=50
277440 Off ch=5 n=68 v=50
277440 On ch=5 n=68 v=50
277680 On ch=5 n=63 v=50
277800 Off ch=5 n=72 v=50
277840 Off ch=5 n=68 v=50
277910 Off ch=5 n=63 v=50
278160 On ch=5 n=72 v=50
278400 On ch=5 n=63 v=50
278860 Off ch=5 n=72 v=50
278880 On ch=5 n=72 v=50
279100 Off ch=5 n=63 v=50
279120 On ch=5 n=68 v=50
279580 Off ch=5 n=72 v=50
280720 Off ch=5 n=68 v=50
315330 Par ch=5 c=10 v=127
315340 PrCh ch=5 p=79
315350 Par ch=5 c=11 v=69
315360 On ch=5 n=68 v=50
315360 On ch=5 n=65 v=50
315360 On ch=5 n=61 v=50
315410 Par ch=5 c=11 v=70
315460 Par ch=5 c=11 v=71
315510 Par ch=5 c=11 v=72
315560 Par ch=5 c=11 v=73
315610 Par ch=5 c=11 v=74
315660 Par ch=5 c=11 v=75
315710 Par ch=5 c=11 v=76
315760 Par ch=5 c=11 v=77
315810 Par ch=5 c=11 v=78
315860 Par ch=5 c=11 v=79
315910 Par ch=5 c=11 v=80
315960 Par ch=5 c=11 v=81
316010 Par ch=5 c=11 v=82
316060 Par ch=5 c=11 v=83
316100 Par ch=5 c=11 v=84
316150 Par ch=5 c=11 v=85
316200 Par ch=5 c=11 v=86
316250 Par ch=5 c=11 v=87
316300 Par ch=5 c=11 v=88
316350 Par ch=5 c=11 v=89
316400 Par ch=5 c=11 v=90
316450 Par ch=5 c=11 v=91
316500 Par ch=5 c=11 v=92
316550 Par ch=5 c=11 v=93
316600 Par ch=5 c=11 v=94
316650 Par ch=5 c=11 v=95
316700 Par ch=5 c=11 v=96
316750 Par ch=5 c=11 v=97
316790 Par ch=5 c=11 v=98
316790 Off ch=5 n=68 v=50
316790 Off ch=5 n=65 v=50
316790 Off ch=5 n=61 v=50
316800 Par ch=5 c=11 v=71
316800 On ch=5 n=68 v=50
316800 On ch=5 n=65 v=50
316800 On ch=5 n=60 v=50
316860 Par ch=5 c=11 v=72
316910 Par ch=5 c=11 v=73
316960 Par ch=5 c=11 v=74
317020 Par ch=5 c=11 v=75
317070 Par ch=5 c=11 v=76
317120 Par ch=5 c=11 v=77
317180 Par ch=5 c=11 v=78
317230 Par ch=5 c=11 v=79
317280 Par ch=5 c=11 v=80
317330 Par ch=5 c=11 v=81
317390 Par ch=5 c=11 v=82
317440 Par ch=5 c=11 v=83
317490 Par ch=5 c=11 v=84
317550 Par ch=5 c=11 v=85
317600 Par ch=5 c=11 v=86
317650 Par ch=5 c=11 v=87
317710 Par ch=5 c=11 v=88
317760 Par ch=5 c=11 v=89
317810 Par ch=5 c=11 v=90
317860 Par ch=5 c=11 v=91
317920 Par ch=5 c=11 v=92
317970 Par ch=5 c=11 v=93
318020 Par ch=5 c=11 v=94
318080 Par ch=5 c=11 v=95
318130 Par ch=5 c=11 v=96
318180 Par ch=5 c=11 v=97
318230 Par ch=5 c=11 v=98
318230 Off ch=5 n=68 v=50
318230 Off ch=5 n=65 v=50
318230 Off ch=5 n=60 v=50
359520 Par ch=5 c=98 v=33
359530 Par ch=5 c=99 v=1
359540 Par ch=5 c=6 v=64
359550 Par ch=5 c=98 v=32
359560 Par ch=5 c=99 v=1
359570 Par ch=5 c=6 v=55
359580 Par ch=5 c=98 v=99
359590 Par ch=5 c=99 v=1
359600 Par ch=5 c=6 v=64
359610 Par ch=5 c=93 v=20
359620 Par ch=5 c=91 v=50
360960 PrCh ch=5 p=62
361420 Par ch=5 c=11 v=118
361430 Par ch=5 c=1 v=20
361440 On ch=5 n=46 v=80
361670 Off ch=5 n=46 v=80
361680 On ch=5 n=48 v=80
361910 Off ch=5 n=48 v=80
361920 On ch=5 n=49 v=80
362150 Off ch=5 n=49 v=80
362160 On ch=5 n=51 v=80
362390 Off ch=5 n=51 v=80
362400 On ch=5 n=49 v=80
362870 Off ch=5 n=49 v=80
362880 On ch=5 n=51 v=80
363350 Off ch=5 n=51 v=80
363360 On ch=5 n=56 v=80
363830 Off ch=5 n=56 v=80
363840 On ch=5 n=58 v=80
364310 Off ch=5 n=58 v=80
364320 On ch=5 n=65 v=80
364790 Off ch=5 n=65 v=80
364800 On ch=5 n=63 v=80
365270 Off ch=5 n=63 v=80
365280 On ch=5 n=61 v=80
365510 Off ch=5 n=61 v=80
365520 On ch=5 n=60 v=80
365750 Off ch=5 n=60 v=80
365760 On ch=5 n=56 v=80
368110 Off ch=5 n=56 v=80
368160 On ch=5 n=61 v=80
368390 Off ch=5 n=61 v=80
368400 On ch=5 n=60 v=80
368630 Off ch=5 n=60 v=80
368640 On ch=5 n=68 v=80
370990 Off ch=5 n=68 v=80
376800 On ch=5 n=63 v=80
377270 Off ch=5 n=63 v=80
377280 On ch=5 n=60 v=80
377750 Off ch=5 n=60 v=80
377760 On ch=5 n=58 v=80
378230 Off ch=5 n=58 v=80
378240 On ch=5 n=53 v=80
378710 Off ch=5 n=53 v=80
378720 On ch=5 n=58 v=80
379190 Off ch=5 n=58 v=80
379200 On ch=5 n=60 v=80
379670 Off ch=5 n=60 v=80
379680 On ch=5 n=61 v=80
380150 Off ch=5 n=61 v=80
380160 On ch=5 n=63 v=80
380630 Off ch=5 n=63 v=80
380640 On ch=5 n=68 v=80
381110 Off ch=5 n=68 v=80
381120 On ch=5 n=70 v=80
381590 Off ch=5 n=70 v=80
381600 On ch=5 n=77 v=80
382070 Off ch=5 n=77 v=80
382080 On ch=5 n=75 v=80
382550 Off ch=5 n=75 v=80
382560 On ch=5 n=73 v=80
382790 Off ch=5 n=73 v=80
382800 On ch=5 n=72 v=80
383030 Off ch=5 n=72 v=80
383040 On ch=5 n=63 v=80
385390 Off ch=5 n=63 v=80
385440 On ch=5 n=61 v=80
385670 Off ch=5 n=61 v=80
385680 On ch=5 n=60 v=80
385910 Off ch=5 n=60 v=80
385920 On ch=5 n=68 v=80
388270 Off ch=5 n=68 v=80
424320 Par ch=5 c=98 v=33
424330 Par ch=5 c=99 v=1
424340 Par ch=5 c=6 v=64
424350 Par ch=5 c=99 v=1
424360 Par ch=5 c=98 v=102
424370 Par ch=5 c=6 v=70
425740 Par ch=5 c=11 v=75
425750 PrCh ch=5 p=18
425760 On ch=5 n=75 v=90
425990 Off ch=5 n=75 v=90
426000 On ch=5 n=72 v=90
426230 Off ch=5 n=72 v=90
426240 On ch=5 n=73 v=90
426470 Off ch=5 n=73 v=90
426480 On ch=5 n=78 v=90
426710 Off ch=5 n=78 v=90
426720 On ch=5 n=76 v=90
426950 Off ch=5 n=76 v=90
426960 On ch=5 n=77 v=90
427190 Off ch=5 n=77 v=90
427200 On ch=5 n=82 v=90
427430 Off ch=5 n=82 v=90
427440 On ch=5 n=79 v=90
427670 Off ch=5 n=79 v=90
427680 On ch=5 n=80 v=90
427910 Off ch=5 n=80 v=90
427920 On ch=5 n=87 v=90
428150 Off ch=5 n=87 v=90
428160 On ch=5 n=84 v=90
428390 Off ch=5 n=84 v=90
428400 On ch=5 n=85 v=90
428630 Off ch=5 n=85 v=90
428640 On ch=5 n=83 v=90
428870 Off ch=5 n=83 v=90
428880 On ch=5 n=81 v=90
429110 Off ch=5 n=81 v=90
429120 On ch=5 n=78 v=90
429350 Off ch=5 n=78 v=90
429360 On ch=5 n=83 v=90
429590 Off ch=5 n=83 v=90
429600 On ch=5 n=81 v=90
429830 Off ch=5 n=81 v=90
429840 On ch=5 n=76 v=90
430070 Off ch=5 n=76 v=90
430080 On ch=5 n=83 v=90
430310 Off ch=5 n=83 v=90
430320 On ch=5 n=81 v=90
430550 Off ch=5 n=81 v=90
430560 On ch=5 n=75 v=90
430790 Off ch=5 n=75 v=90
430800 On ch=5 n=83 v=90
431030 Off ch=5 n=83 v=90
431040 On ch=5 n=81 v=90
431270 Off ch=5 n=81 v=90
431280 On ch=5 n=73 v=90
431510 Off ch=5 n=73 v=90
431520 On ch=5 n=83 v=90
431750 Off ch=5 n=83 v=90
431760 On ch=5 n=81 v=90
431990 Off ch=5 n=81 v=90
432000 On ch=5 n=71 v=90
432230 Off ch=5 n=71 v=90
432240 On ch=5 n=83 v=90
432470 Off ch=5 n=83 v=90
432480 On ch=5 n=81 v=90
432710 Off ch=5 n=81 v=90
432720 On ch=5 n=71 v=90
432950 Off ch=5 n=71 v=90
432960 On ch=5 n=83 v=90
433190 Off ch=5 n=83 v=90
433440 On ch=5 n=83 v=90
433670 Off ch=5 n=83 v=90
433680 On ch=5 n=81 v=90
433910 Off ch=5 n=81 v=90
433920 On ch=5 n=78 v=90
434150 Off ch=5 n=78 v=90
434160 On ch=5 n=83 v=90
434390 Off ch=5 n=83 v=90
434400 On ch=5 n=81 v=90
434630 Off ch=5 n=81 v=90
434640 On ch=5 n=76 v=90
434870 Off ch=5 n=76 v=90
434880 On ch=5 n=83 v=90
435110 Off ch=5 n=83 v=90
435120 On ch=5 n=81 v=90
435350 Off ch=5 n=81 v=90
435360 On ch=5 n=75 v=90
435590 Off ch=5 n=75 v=90
435600 On ch=5 n=83 v=90
435830 Off ch=5 n=83 v=90
435840 On ch=5 n=81 v=90
436070 Off ch=5 n=81 v=90
436080 On ch=5 n=73 v=90
436310 Off ch=5 n=73 v=90
436320 On ch=5 n=83 v=90
436550 Off ch=5 n=83 v=90
436560 On ch=5 n=81 v=90
436790 Off ch=5 n=81 v=90
436800 On ch=5 n=71 v=90
437030 Off ch=5 n=71 v=90
437040 On ch=5 n=83 v=90
437270 Off ch=5 n=83 v=90
437280 On ch=5 n=81 v=90
437510 Off ch=5 n=81 v=90
437520 On ch=5 n=71 v=90
437750 Off ch=5 n=71 v=90
437760 On ch=5 n=83 v=90
437990 Off ch=5 n=83 v=90
438240 On ch=5 n=83 v=90
438470 Off ch=5 n=83 v=90
438480 On ch=5 n=81 v=90
438710 Off ch=5 n=81 v=90
438720 On ch=5 n=78 v=90
438950 Off ch=5 n=78 v=90
438960 On ch=5 n=83 v=90
439190 Off ch=5 n=83 v=90
439200 On ch=5 n=81 v=90
439430 Off ch=5 n=81 v=90
439440 On ch=5 n=76 v=90
439670 Off ch=5 n=76 v=90
439680 On ch=5 n=83 v=90
439910 Off ch=5 n=83 v=90
439920 On ch=5 n=81 v=90
440150 Off ch=5 n=81 v=90
440160 On ch=5 n=75 v=90
440390 Off ch=5 n=75 v=90
440400 On ch=5 n=83 v=90
440630 Off ch=5 n=83 v=90
440640 On ch=5 n=81 v=90
440870 Off ch=5 n=81 v=90
440880 On ch=5 n=73 v=90
441110 Off ch=5 n=73 v=90
441120 On ch=5 n=83 v=90
441350 Off ch=5 n=83 v=90
441360 On ch=5 n=81 v=90
441590 Off ch=5 n=81 v=90
441600 On ch=5 n=71 v=90
441830 Off ch=5 n=71 v=90
441840 On ch=5 n=83 v=90
442070 Off ch=5 n=83 v=90
442080 On ch=5 n=81 v=90
442310 Off ch=5 n=81 v=90
442320 On ch=5 n=71 v=90
442550 Off ch=5 n=71 v=90
480710 Par ch=5 c=0 v=0
480710 Par ch=5 c=32 v=0
480710 PrCh ch=5 p=30
480720 Pb ch=5 v=7509
480720 On ch=5 n=44 v=100
480840 Pb ch=5 v=8192
480950 Off ch=5 n=44 v=100
480960 Par ch=5 c=11 v=100
480960 On ch=5 n=44 v=100
481070 Off ch=5 n=44 v=100
481080 On ch=5 n=44 v=100
481190 Off ch=5 n=44 v=100
481200 On ch=5 n=44 v=100
481310 Off ch=5 n=44 v=100
481320 On ch=5 n=44 v=100
481430 Off ch=5 n=44 v=100
481440 Pb ch=5 v=7509
481440 On ch=5 n=44 v=100
481560 Pb ch=5 v=8192
481670 Off ch=5 n=44 v=100
481680 On ch=5 n=44 v=100
481790 Off ch=5 n=44 v=100
481800 On ch=5 n=44 v=100
481910 Off ch=5 n=44 v=100
481920 On ch=5 n=44 v=100
482030 Off ch=5 n=44 v=100
482040 On ch=5 n=44 v=100
482150 Off ch=5 n=44 v=100
482160 On ch=5 n=47 v=100
482390 Off ch=5 n=47 v=100
482400 On ch=5 n=48 v=100
482630 Off ch=5 n=48 v=100
482640 On ch=5 n=49 v=100
482870 Off ch=5 n=49 v=100
482880 On ch=5 n=50 v=100
483110 Off ch=5 n=50 v=100
483120 On ch=5 n=51 v=100
483350 Off ch=5 n=51 v=100
483360 On ch=5 n=54 v=100
483590 Off ch=5 n=54 v=100
483600 Pb ch=5 v=7509
483600 On ch=5 n=56 v=100
483720 Pb ch=5 v=8192
483830 Off ch=5 n=56 v=100
483840 On ch=5 n=56 v=100
483950 Off ch=5 n=56 v=100
483960 On ch=5 n=56 v=100
484070 Off ch=5 n=56 v=100
484080 On ch=5 n=56 v=100
484310 Off ch=5 n=56 v=100
484320 Pb ch=5 v=7509
484320 On ch=5 n=56 v=100
484440 Pb ch=5 v=8192
484550 Off ch=5 n=56 v=100
484560 On ch=5 n=56 v=100
484670 Off ch=5 n=56 v=100
484680 On ch=5 n=56 v=100
484790 Off ch=5 n=56 v=100
484800 On ch=5 n=56 v=100
484910 Off ch=5 n=56 v=100
484920 On ch=5 n=54 v=100
485030 Off ch=5 n=54 v=100
485040 On ch=5 n=51 v=100
485270 Off ch=5 n=51 v=100
485280 On ch=5 n=50 v=100
485510 Off ch=5 n=50 v=100
485520 On ch=5 n=49 v=100
485750 Off ch=5 n=49 v=100
485760 On ch=5 n=48 v=100
485990 Off ch=5 n=48 v=100
486000 On ch=5 n=47 v=100
486230 Off ch=5 n=47 v=100
486240 On ch=5 n=44 v=100
486470 Off ch=5 n=44 v=100
486480 Pb ch=5 v=7509
486480 On ch=5 n=56 v=100
486600 Pb ch=5 v=8192
486710 Off ch=5 n=56 v=100
486720 Par ch=5 c=11 v=100
486720 On ch=5 n=56 v=100
486830 Off ch=5 n=56 v=100
486840 On ch=5 n=56 v=100
486950 Off ch=5 n=56 v=100
486960 On ch=5 n=56 v=100
487070 Off ch=5 n=56 v=100
487080 On ch=5 n=56 v=100
487190 Off ch=5 n=56 v=100
487200 Pb ch=5 v=7509
487200 On ch=5 n=56 v=100
487320 Pb ch=5 v=8192
487430 Off ch=5 n=56 v=100
487440 On ch=5 n=56 v=100
487550 Off ch=5 n=56 v=100
487560 On ch=5 n=56 v=100
487670 Off ch=5 n=56 v=100
487680 On ch=5 n=56 v=100
487790 Off ch=5 n=56 v=100
487800 On ch=5 n=56 v=100
487910 Off ch=5 n=56 v=100
487920 On ch=5 n=59 v=100
488150 Off ch=5 n=59 v=100
488160 On ch=5 n=60 v=100
488390 Off ch=5 n=60 v=100
488400 On ch=5 n=61 v=100
488630 Off ch=5 n=61 v=100
488640 On ch=5 n=62 v=100
488870 Off ch=5 n=62 v=100
488880 On ch=5 n=63 v=100
489110 Off ch=5 n=63 v=100
489120 On ch=5 n=66 v=100
489350 Off ch=5 n=66 v=100
489360 Pb ch=5 v=7509
489360 On ch=5 n=68 v=100
489480 Pb ch=5 v=8192
489590 Off ch=5 n=68 v=100
489600 On ch=5 n=68 v=100
489710 Off ch=5 n=68 v=100
489720 On ch=5 n=68 v=100
489830 Off ch=5 n=68 v=100
489840 On ch=5 n=68 v=100
490070 Off ch=5 n=68 v=100
490080 Pb ch=5 v=7509
490080 On ch=5 n=68 v=100
490200 Pb ch=5 v=8192
490310 Off ch=5 n=68 v=100
490320 On ch=5 n=68 v=100
490430 Off ch=5 n=68 v=100
490440 On ch=5 n=68 v=100
490550 Off ch=5 n=68 v=100
490560 On ch=5 n=68 v=100
490670 Off ch=5 n=68 v=100
490680 On ch=5 n=66 v=100
490790 Off ch=5 n=66 v=100
490800 On ch=5 n=63 v=100
491030 Off ch=5 n=63 v=100
491040 On ch=5 n=62 v=100
491270 Off ch=5 n=62 v=100
491280 On ch=5 n=61 v=100
491510 Off ch=5 n=61 v=100
491520 On ch=5 n=60 v=100
491750 Off ch=5 n=60 v=100
491760 On ch=5 n=59 v=100
491990 Off ch=5 n=59 v=100
492000 On ch=5 n=58 v=100
492230 Off ch=5 n=58 v=100
501830 Par ch=5 c=0 v=0
501830 Par ch=5 c=32 v=0
501830 PrCh ch=5 p=30
501840 Pb ch=5 v=7509
501840 On ch=5 n=44 v=100
501960 Pb ch=5 v=8192
502070 Off ch=5 n=44 v=100
502080 Par ch=5 c=11 v=100
502080 On ch=5 n=44 v=100
502190 Off ch=5 n=44 v=100
502200 On ch=5 n=44 v=100
502310 Off ch=5 n=44 v=100
502320 On ch=5 n=44 v=100
502430 Off ch=5 n=44 v=100
502440 On ch=5 n=44 v=100
502550 Off ch=5 n=44 v=100
502560 Pb ch=5 v=7509
502560 On ch=5 n=44 v=100
502680 Pb ch=5 v=8192
502790 Off ch=5 n=44 v=100
502800 On ch=5 n=44 v=100
502910 Off ch=5 n=44 v=100
502920 On ch=5 n=44 v=100
503030 Off ch=5 n=44 v=100
503040 On ch=5 n=44 v=100
503150 Off ch=5 n=44 v=100
503160 On ch=5 n=44 v=100
503270 Off ch=5 n=44 v=100
503280 On ch=5 n=47 v=100
503510 Off ch=5 n=47 v=100
503520 On ch=5 n=48 v=100
503750 Off ch=5 n=48 v=100
503760 On ch=5 n=49 v=100
503990 Off ch=5 n=49 v=100
504000 On ch=5 n=50 v=100
504230 Off ch=5 n=50 v=100
504240 On ch=5 n=51 v=100
504470 Off ch=5 n=51 v=100
504480 On ch=5 n=54 v=100
504710 Off ch=5 n=54 v=100
504720 Pb ch=5 v=7509
504720 On ch=5 n=56 v=127
504840 Pb ch=5 v=7851
504960 Pb ch=5 v=8192
505200 On ch=5 n=54 v=125
505201 Off ch=5 n=56 v=127
505430 Off ch=5 n=54 v=125
505440 Pb ch=5 v=7509
505440 On ch=5 n=56 v=127
505560 Pb ch=5 v=7851
505680 Pb ch=5 v=8192
505920 On ch=5 n=54 v=115
505921 Off ch=5 n=56 v=127
506156 Off ch=5 n=54 v=115
506160 On ch=5 n=51 v=100
506390 Off ch=5 n=51 v=100
506400 On ch=5 n=50 v=100
506630 Off ch=5 n=50 v=100
506640 On ch=5 n=49 v=100
506870 Off ch=5 n=49 v=100
506880 On ch=5 n=48 v=100
507110 Off ch=5 n=48 v=100
507120 On ch=5 n=47 v=100
507350 Off ch=5 n=47 v=100
507360 On ch=5 n=44 v=100
507590 Off ch=5 n=44 v=100
507600 Pb ch=5 v=7509
507600 On ch=5 n=56 v=100
507720 Pb ch=5 v=8192
507830 Off ch=5 n=56 v=100
507840 Par ch=5 c=11 v=100
507840 On ch=5 n=56 v=100
507950 Off ch=5 n=56 v=100
507960 On ch=5 n=56 v=100
508070 Off ch=5 n=56 v=100
508080 On ch=5 n=56 v=100
508190 Off ch=5 n=56 v=100
508200 On ch=5 n=56 v=100
508310 Off ch=5 n=56 v=100
508320 Pb ch=5 v=7509
508320 On ch=5 n=56 v=100
508440 Pb ch=5 v=8192
508550 Off ch=5 n=56 v=100
508560 On ch=5 n=56 v=100
508670 Off ch=5 n=56 v=100
508680 On ch=5 n=56 v=100
508790 Off ch=5 n=56 v=100
508800 On ch=5 n=56 v=100
508910 Off ch=5 n=56 v=100
508920 On ch=5 n=56 v=100
509030 Off ch=5 n=56 v=100
509040 On ch=5 n=59 v=100
509270 Off ch=5 n=59 v=100
509280 On ch=5 n=60 v=100
509510 Off ch=5 n=60 v=100
509520 On ch=5 n=61 v=100
509750 Off ch=5 n=61 v=100
509760 On ch=5 n=62 v=100
509990 Off ch=5 n=62 v=100
510000 On ch=5 n=63 v=100
510230 Off ch=5 n=63 v=100
510240 On ch=5 n=66 v=100
510470 Off ch=5 n=66 v=100
510480 Pb ch=5 v=7509
510480 On ch=5 n=68 v=100
510600 Pb ch=5 v=8192
510710 Off ch=5 n=68 v=100
510720 On ch=5 n=68 v=100
510830 Off ch=5 n=68 v=100
510840 On ch=5 n=68 v=100
510950 Off ch=5 n=68 v=100
510960 On ch=5 n=68 v=100
511190 Off ch=5 n=68 v=100
511200 Pb ch=5 v=7509
511200 On ch=5 n=68 v=100
511320 Pb ch=5 v=8192
511430 Off ch=5 n=68 v=100
511440 On ch=5 n=68 v=100
511550 Off ch=5 n=68 v=100
511560 On ch=5 n=68 v=100
511670 Off ch=5 n=68 v=100
511680 On ch=5 n=68 v=100
511790 Off ch=5 n=68 v=100
511800 On ch=5 n=66 v=100
511910 Off ch=5 n=66 v=100
511920 On ch=5 n=63 v=100
512150 Off ch=5 n=63 v=100
512160 On ch=5 n=62 v=100
512390 Off ch=5 n=62 v=100
512400 On ch=5 n=61 v=100
512630 Off ch=5 n=61 v=100
512640 On ch=5 n=60 v=100
512870 Off ch=5 n=60 v=100
512880 On ch=5 n=59 v=100
513110 Off ch=5 n=59 v=100
513120 On ch=5 n=58 v=100
513350 Off ch=5 n=58 v=100
518150 Par ch=5 c=0 v=8
518150 Par ch=5 c=32 v=0
518150 PrCh ch=5 p=30
518160 Pb ch=5 v=7509
518160 Par ch=5 c=99 v=1
518160 Par ch=5 c=98 v=33
518160 Par ch=5 c=6 v=64
518160 Par ch=5 c=38 v=0
518160 Par ch=5 c=99 v=1
518160 Par ch=5 c=98 v=32
518160 Par ch=5 c=6 v=64
518160 Par ch=5 c=38 v=0
518160 On ch=5 n=68 v=110
518280 Pb ch=5 v=8192
518390 Off ch=5 n=68 v=110
518400 On ch=5 n=68 v=110
518510 Off ch=5 n=68 v=110
518520 On ch=5 n=68 v=110
518630 Off ch=5 n=68 v=110
518640 On ch=5 n=68 v=110
518870 Off ch=5 n=68 v=110
518880 Pb ch=5 v=7509
518880 On ch=5 n=68 v=110
519000 Pb ch=5 v=8192
519110 Off ch=5 n=68 v=110
519120 On ch=5 n=68 v=110
519230 Off ch=5 n=68 v=110
519240 On ch=5 n=68 v=110
519350 Off ch=5 n=68 v=110
519360 On ch=5 n=68 v=110
519470 Off ch=5 n=68 v=110
519480 On ch=5 n=66 v=110
519590 Off ch=5 n=66 v=110
519600 On ch=5 n=63 v=110
519830 Off ch=5 n=63 v=110
519840 On ch=5 n=62 v=110
520070 Off ch=5 n=62 v=110
520080 On ch=5 n=61 v=110
520310 Off ch=5 n=61 v=110
520320 On ch=5 n=60 v=110
520550 Off ch=5 n=60 v=110
520560 On ch=5 n=59 v=110
520790 Off ch=5 n=59 v=110
520800 On ch=5 n=56 v=110
521030 Off ch=5 n=56 v=110
521040 Pb ch=5 v=7509
521040 On ch=5 n=56 v=110
521160 Pb ch=5 v=8192
521270 Off ch=5 n=56 v=110
521280 On ch=5 n=56 v=110
521390 Off ch=5 n=56 v=110
521400 On ch=5 n=56 v=110
521510 Off ch=5 n=56 v=110
521520 On ch=5 n=56 v=110
521750 Off ch=5 n=56 v=110
521760 Pb ch=5 v=7509
521760 On ch=5 n=56 v=110
521880 Pb ch=5 v=8192
521990 Off ch=5 n=56 v=110
522000 On ch=5 n=56 v=100
522110 Off ch=5 n=56 v=100
522120 On ch=5 n=56 v=100
522230 Off ch=5 n=56 v=100
522240 On ch=5 n=56 v=100
522350 Off ch=5 n=56 v=100
522360 On ch=5 n=54 v=100
522470 Off ch=5 n=54 v=100
522480 On ch=5 n=51 v=100
522710 Off ch=5 n=51 v=100
522720 On ch=5 n=50 v=100
522950 Off ch=5 n=50 v=100
522960 On ch=5 n=49 v=100
523190 Off ch=5 n=49 v=100
523200 On ch=5 n=48 v=100
523430 Off ch=5 n=48 v=100
523440 On ch=5 n=47 v=100
523670 Off ch=5 n=47 v=100
523680 On ch=5 n=46 v=112
523910 Off ch=5 n=46 v=112
528710 Par ch=5 c=0 v=0
528710 Par ch=5 c=32 v=0
528710 PrCh ch=5 p=29
528720 Pb ch=5 v=7509
528720 On ch=5 n=56 v=100
528840 Pb ch=5 v=8192
528950 Off ch=5 n=56 v=100
528960 Par ch=5 c=11 v=100
528960 On ch=5 n=56 v=100
529070 Off ch=5 n=56 v=100
529080 On ch=5 n=56 v=100
529190 Off ch=5 n=56 v=100
529200 On ch=5 n=56 v=100
529310 Off ch=5 n=56 v=100
529320 On ch=5 n=56 v=100
529430 Off ch=5 n=56 v=100
529440 Pb ch=5 v=7509
529440 On ch=5 n=56 v=100
529560 Pb ch=5 v=8192
529670 Off ch=5 n=56 v=100
529680 On ch=5 n=56 v=100
529790 Off ch=5 n=56 v=100
529800 On ch=5 n=56 v=100
529910 Off ch=5 n=56 v=100
529920 On ch=5 n=56 v=100
530030 Off ch=5 n=56 v=100
530040 On ch=5 n=56 v=100
530150 Off ch=5 n=56 v=100
530160 On ch=5 n=59 v=100
530390 Off ch=5 n=59 v=100
530400 On ch=5 n=60 v=100
530630 Off ch=5 n=60 v=100
530640 On ch=5 n=61 v=100
530870 Off ch=5 n=61 v=100
530880 On ch=5 n=62 v=100
531110 Off ch=5 n=62 v=100
531120 On ch=5 n=63 v=100
531350 Off ch=5 n=63 v=100
531360 On ch=5 n=66 v=100
531590 Off ch=5 n=66 v=100
531600 Pb ch=5 v=7509
531600 On ch=5 n=56 v=100
531720 Pb ch=5 v=8192
531830 Off ch=5 n=56 v=100
531840 On ch=5 n=56 v=100
531950 Off ch=5 n=56 v=100
531960 On ch=5 n=56 v=100
532070 Off ch=5 n=56 v=100
532080 On ch=5 n=56 v=100
532310 Off ch=5 n=56 v=100
532320 Pb ch=5 v=7509
532320 On ch=5 n=56 v=100
532440 Pb ch=5 v=8192
532550 Off ch=5 n=56 v=100
532560 On ch=5 n=56 v=100
532670 Off ch=5 n=56 v=100
532680 On ch=5 n=56 v=100
532790 Off ch=5 n=56 v=100
532800 On ch=5 n=56 v=100
532910 Off ch=5 n=56 v=100
532920 On ch=5 n=54 v=100
533030 Off ch=5 n=54 v=100
533040 On ch=5 n=51 v=100
533270 Off ch=5 n=51 v=100
533280 On ch=5 n=50 v=100
533510 Off ch=5 n=50 v=100
533520 On ch=5 n=49 v=100
533750 Off ch=5 n=49 v=100
533760 On ch=5 n=48 v=100
533990 Off ch=5 n=48 v=100
534000 On ch=5 n=47 v=100
534230 Off ch=5 n=47 v=100
534240 On ch=5 n=46 v=100
534470 Off ch=5 n=46 v=100
572400 On ch=5 n=73 v=111
572410 Pb ch=5 v=8116
572430 Pb ch=5 v=8096
572450 Pb ch=5 v=8075
572470 Pb ch=5 v=8041
572490 Pb ch=5 v=7782
572510 Pb ch=5 v=8192
572550 Pb ch=5 v=8185
572590 Pb ch=5 v=8178
572610 Pb ch=5 v=8171
572610 Off ch=5 n=73 v=111
572630 Pb ch=5 v=8164
572630 On ch=5 n=70 v=106
572650 Pb ch=5 v=8157
572670 Pb ch=5 v=8144
572690 Pb ch=5 v=8137
572710 Pb ch=5 v=8116
572730 Pb ch=5 v=7987
572750 Pb ch=5 v=8192
572830 Off ch=5 n=70 v=106
572880 On ch=5 n=66 v=111
573090 Off ch=5 n=66 v=111
573120 On ch=5 n=75 v=110
573320 Off ch=5 n=75 v=110
573350 On ch=5 n=72 v=106
573530 Off ch=5 n=72 v=106
573600 On ch=5 n=68 v=114
573710 Pb ch=5 v=8192
573750 Pb ch=5 v=8185
573770 Pb ch=5 v=8178
573790 Pb ch=5 v=8171
573790 Off ch=5 n=68 v=114
573810 Pb ch=5 v=8157
573830 Pb ch=5 v=8151
573840 On ch=5 n=70 v=108
573850 Pb ch=5 v=8137
573870 Pb ch=5 v=8123
573890 Pb ch=5 v=8103
573910 Pb ch=5 v=8075
573930 Pb ch=5 v=7877
573950 Pb ch=5 v=8192
574040 Off ch=5 n=70 v=108
574080 On ch=5 n=66 v=109
574190 Pb ch=5 v=8192
574270 Off ch=5 n=66 v=109
574320 On ch=5 n=63 v=111
574520 Off ch=5 n=63 v=111
574560 On ch=5 n=72 v=114
574670 Pb ch=5 v=8192
574710 Pb ch=5 v=8185
574730 Pb ch=5 v=8178
574760 Off ch=5 n=72 v=114
574770 Pb ch=5 v=8164
574790 Pb ch=5 v=8157
574800 On ch=5 n=68 v=105
574810 Pb ch=5 v=8151
574830 Pb ch=5 v=8137
574850 Pb ch=5 v=8123
574870 Pb ch=5 v=8110
574890 Pb ch=5 v=7959
574910 Pb ch=5 v=8192
574990 Off ch=5 n=68 v=105
575040 On ch=5 n=65 v=111
575150 Pb ch=5 v=8192
575250 Off ch=5 n=65 v=111
575280 On ch=5 n=70 v=110
575480 Off ch=5 n=70 v=110
575520 On ch=5 n=66 v=112
575710 Off ch=5 n=66 v=112
575750 On ch=5 n=63 v=111
575960 Off ch=5 n=63 v=111
576000 On ch=5 n=60 v=113
576200 Off ch=5 n=60 v=113
576240 On ch=5 n=58 v=112
576590 Pb ch=5 v=8192
576630 Pb ch=5 v=8178
576650 Pb ch=5 v=8171
576670 Pb ch=5 v=8157
576670 Off ch=5 n=58 v=112
576690 Pb ch=5 v=8144
576710 Pb ch=5 v=8137
576720 On ch=5 n=73 v=111
576730 Pb ch=5 v=8116
576750 Pb ch=5 v=8096
576770 Pb ch=5 v=8075
576790 Pb ch=5 v=8041
576810 Pb ch=5 v=7782
576830 Pb ch=5 v=8192
576870 Pb ch=5 v=8185
576910 Pb ch=5 v=8178
576930 Pb ch=5 v=8171
576930 Off ch=5 n=73 v=111
576950 Pb ch=5 v=8164
576950 On ch=5 n=70 v=106
576970 Pb ch=5 v=8157
576990 Pb ch=5 v=8144
577010 Pb ch=5 v=8137
577030 Pb ch=5 v=8116
577050 Pb ch=5 v=7987
577070 Pb ch=5 v=8192
577150 Off ch=5 n=70 v=106
577200 On ch=5 n=66 v=111
577410 Off ch=5 n=66 v=111
577440 On ch=5 n=75 v=110
577640 Off ch=5 n=75 v=110
577670 On ch=5 n=72 v=106
577850 Off ch=5 n=72 v=106
577920 On ch=5 n=68 v=114
578030 Pb ch=5 v=8192
578070 Pb ch=5 v=8185
578090 Pb ch=5 v=8178
578110 Pb ch=5 v=8171
578110 Off ch=5 n=68 v=114
578130 Pb ch=5 v=8157
578150 Pb ch=5 v=8151
578160 On ch=5 n=70 v=108
578170 Pb ch=5 v=8137
578190 Pb ch=5 v=8123
578210 Pb ch=5 v=8103
578230 Pb ch=5 v=8075
578250 Pb ch=5 v=7877
578270 Pb ch=5 v=8192
578360 Off ch=5 n=70 v=108
578400 On ch=5 n=66 v=109
578510 Pb ch=5 v=8192
578590 Off ch=5 n=66 v=109
578640 On ch=5 n=63 v=111
578840 Off ch=5 n=63 v=111
578880 On ch=5 n=72 v=114
578990 Pb ch=5 v=8192
579030 Pb ch=5 v=8185
579050 Pb ch=5 v=8178
579080 Off ch=5 n=72 v=114
579090 Pb ch=5 v=8164
579110 Pb ch=5 v=8157
579120 On ch=5 n=68 v=105
579130 Pb ch=5 v=8151
579150 Pb ch=5 v=8137
579170 Pb ch=5 v=8123
579190 Pb ch=5 v=8110
579210 Pb ch=5 v=7959
579230 Pb ch=5 v=8192
579310 Off ch=5 n=68 v=105
579360 On ch=5 n=65 v=111
579570 Off ch=5 n=65 v=111
579600 On ch=5 n=70 v=111
579800 Off ch=5 n=70 v=111
579830 On ch=5 n=66 v=98
580040 Off ch=5 n=66 v=98
580080 On ch=5 n=63 v=110
580280 Off ch=5 n=63 v=110
580320 On ch=5 n=60 v=112
580520 Off ch=5 n=60 v=112
599760 On ch=5 n=83 v=74
599990 Off ch=5 n=83 v=74
600000 On ch=5 n=81 v=74
600230 Off ch=5 n=81 v=74
600240 On ch=5 n=78 v=74
600470 Off ch=5 n=78 v=74
600480 On ch=5 n=83 v=74
600710 Off ch=5 n=83 v=74
600720 On ch=5 n=81 v=74
600950 Off ch=5 n=81 v=74
600960 On ch=5 n=76 v=74
601190 Off ch=5 n=76 v=74
601200 On ch=5 n=83 v=74
601430 Off ch=5 n=83 v=74
601440 On ch=5 n=81 v=74
601670 Off ch=5 n=81 v=74
601680 On ch=5 n=75 v=74
601910 Off ch=5 n=75 v=74
601920 On ch=5 n=83 v=74
602150 Off ch=5 n=83 v=74
602160 On ch=5 n=81 v=74
602390 Off ch=5 n=81 v=74
602400 On ch=5 n=73 v=74
602630 Off ch=5 n=73 v=74
602640 On ch=5 n=83 v=74
602870 Off ch=5 n=83 v=74
602880 On ch=5 n=81 v=74
603110 Off ch=5 n=81 v=74
603120 On ch=5 n=71 v=74
603350 Off ch=5 n=71 v=74
603360 On ch=5 n=83 v=74
603590 Off ch=5 n=83 v=74
603600 On ch=5 n=81 v=74
603830 Off ch=5 n=81 v=74
603840 On ch=5 n=71 v=74
604070 Off ch=5 n=71 v=74
604080 On ch=5 n=83 v=74
604310 Off ch=5 n=83 v=74
612240 On ch=5 n=68 v=114
612440 Off ch=5 n=68 v=114
612480 On ch=5 n=63 v=114
612680 Off ch=5 n=63 v=114
612710 Par ch=5 c=91 v=108
612710 Par ch=5 c=93 v=45
612720 On ch=5 n=59 v=114
612920 Off ch=5 n=59 v=114
612960 On ch=5 n=58 v=111
613420 Off ch=5 n=58 v=111
613440 On ch=5 n=61 v=111
613670 Off ch=5 n=61 v=111
613680 On ch=5 n=59 v=111
614140 Off ch=5 n=59 v=111
614160 On ch=5 n=63 v=111
614390 Off ch=5 n=63 v=111
614400 On ch=5 n=61 v=111
614860 Off ch=5 n=61 v=111
614880 On ch=5 n=66 v=111
615110 Off ch=5 n=66 v=111
615120 On ch=5 n=64 v=111
615580 Off ch=5 n=64 v=111
615600 On ch=5 n=75 v=111
615830 Off ch=5 n=75 v=111
616320 On ch=5 n=73 v=111
616550 Off ch=5 n=73 v=111
625200 KeySig 1 major
625200 Pb ch=5 v=7509
625200 On ch=5 n=51 v=100
625320 Pb ch=5 v=8192
625430 Off ch=5 n=51 v=100
625440 Par ch=5 c=11 v=100
625440 On ch=5 n=51 v=100
625550 Off ch=5 n=51 v=100
625560 On ch=5 n=51 v=100
625670 Off ch=5 n=51 v=100
625680 On ch=5 n=51 v=100
625790 Off ch=5 n=51 v=100
625800 On ch=5 n=51 v=100
625910 Off ch=5 n=51 v=100
625920 Pb ch=5 v=7509
625920 On ch=5 n=51 v=100
626040 Pb ch=5 v=8192
626150 Off ch=5 n=51 v=100
626160 On ch=5 n=51 v=100
626270 Off ch=5 n=51 v=100
626280 On ch=5 n=51 v=100
626390 Off ch=5 n=51 v=100
626400 On ch=5 n=51 v=100
626510 Off ch=5 n=51 v=100
626520 On ch=5 n=51 v=100
626630 Off ch=5 n=51 v=100
626640 On ch=5 n=54 v=100
626870 Off ch=5 n=54 v=100
626880 On ch=5 n=55 v=100
627110 Off ch=5 n=55 v=100
627120 On ch=5 n=56 v=110
627350 Off ch=5 n=56 v=110
627360 On ch=5 n=57 v=110
627590 Off ch=5 n=57 v=110
627600 On ch=5 n=58 v=110
627830 Off ch=5 n=58 v=110
627840 On ch=5 n=61 v=110
628070 Off ch=5 n=61 v=110
628080 Pb ch=5 v=7509
628080 On ch=5 n=63 v=110
628200 Pb ch=5 v=8192
628310 Off ch=5 n=63 v=110
628320 On ch=5 n=63 v=110
628430 Off ch=5 n=63 v=110
628440 On ch=5 n=63 v=110
628550 Off ch=5 n=63 v=110
628560 On ch=5 n=63 v=110
628790 Off ch=5 n=63 v=110
628800 Pb ch=5 v=7509
628800 On ch=5 n=63 v=110
628920 Pb ch=5 v=8192
629030 Off ch=5 n=63 v=110
629040 On ch=5 n=63 v=110
629150 Off ch=5 n=63 v=110
629160 On ch=5 n=63 v=110
629270 Off ch=5 n=63 v=110
629280 On ch=5 n=63 v=110
629390 Off ch=5 n=63 v=110
629400 On ch=5 n=61 v=110
629510 Off ch=5 n=61 v=110
629520 On ch=5 n=58 v=110
629750 Off ch=5 n=58 v=110
629760 On ch=5 n=57 v=110
629990 Off ch=5 n=57 v=110
630000 On ch=5 n=56 v=110
630230 Off ch=5 n=56 v=110
630240 On ch=5 n=55 v=110
630470 Off ch=5 n=55 v=110
630480 On ch=5 n=54 v=110
630710 Off ch=5 n=54 v=110
630720 On ch=5 n=51 v=110
630950 Off ch=5 n=51 v=110
630960 KeySig 0 major
712560 KeySig 2 major
712560 Pb ch=5 v=7509
712560 On ch=5 n=58 v=110
712680 Pb ch=5 v=8192
712790 Off ch=5 n=58 v=110
712800 On ch=5 n=58 v=110
712910 Off ch=5 n=58 v=110
712920 On ch=5 n=58 v=110
713030 Off ch=5 n=58 v=110
713040 On ch=5 n=58 v=110
713270 Off ch=5 n=58 v=110
713280 Pb ch=5 v=7509
713280 On ch=5 n=58 v=110
713400 Pb ch=5 v=8192
713510 Off ch=5 n=58 v=110
713520 On ch=5 n=58 v=110
713630 Off ch=5 n=58 v=110
713640 On ch=5 n=58 v=110
713750 Off ch=5 n=58 v=110
713760 On ch=5 n=58 v=110
713870 Off ch=5 n=58 v=110
713880 On ch=5 n=58 v=110
713990 Off ch=5 n=58 v=110
714000 On ch=5 n=61 v=110
714230 Off ch=5 n=61 v=110
714240 On ch=5 n=62 v=110
714470 Off ch=5 n=62 v=110
714480 On ch=5 n=63 v=110
714710 Off ch=5 n=63 v=110
714720 On ch=5 n=64 v=110
714950 Off ch=5 n=64 v=110
714960 On ch=5 n=65 v=110
715190 Off ch=5 n=65 v=110
715200 On ch=5 n=68 v=110
715430 Off ch=5 n=68 v=110
715440 Pb ch=5 v=7509
715440 On ch=5 n=70 v=110
715560 Pb ch=5 v=8192
715670 Off ch=5 n=70 v=110
715680 On ch=5 n=70 v=110
715790 Off ch=5 n=70 v=110
715800 On ch=5 n=70 v=110
715910 Off ch=5 n=70 v=110
715920 On ch=5 n=70 v=110
716150 Off ch=5 n=70 v=110
716160 Pb ch=5 v=7509
716160 On ch=5 n=70 v=110
716280 Pb ch=5 v=8192
716390 Off ch=5 n=70 v=110
716400 On ch=5 n=70 v=110
716510 Off ch=5 n=70 v=110
716520 On ch=5 n=70 v=110
716630 Off ch=5 n=70 v=110
716640 On ch=5 n=70 v=110
716750 Off ch=5 n=70 v=110
716760 On ch=5 n=70 v=110
716870 Off ch=5 n=70 v=110
716880 On ch=5 n=73 v=110
717110 Off ch=5 n=73 v=110
717120 On ch=5 n=74 v=110
717350 Off ch=5 n=74 v=110
717360 On ch=5 n=75 v=110
717590 Off ch=5 n=75 v=110
717600 On ch=5 n=76 v=110
717830 Off ch=5 n=76 v=110
717840 On ch=5 n=77 v=110
718070 Off ch=5 n=77 v=110
718080 On ch=5 n=80 v=110
718310 Off ch=5 n=80 v=110
718320 On ch=5 n=82 v=110
718550 Off ch=5 n=82 v=110
718560 On ch=5 n=82 v=110
718670 Off ch=5 n=82 v=110
718680 On ch=5 n=82 v=110
718790 Off ch=5 n=82 v=110
718800 On ch=5 n=82 v=110
719030 Off ch=5 n=82 v=110
719040 On ch=5 n=82 v=110
719270 Off ch=5 n=82 v=110
719280 On ch=5 n=82 v=110
719390 Off ch=5 n=82 v=110
719400 On ch=5 n=82 v=110
719510 Off ch=5 n=82 v=110
719520 On ch=5 n=82 v=110
719630 Off ch=5 n=82 v=110
719640 Pb ch=5 v=7509
719640 On ch=5 n=82 v=110
719750 Off ch=5 n=82 v=110
719760 Pb ch=5 v=8192
719760 On ch=5 n=85 v=110
719990 Off ch=5 n=85 v=110
720000 On ch=5 n=86 v=110
720230 Off ch=5 n=86 v=110
720240 On ch=5 n=87 v=110
720360 Pb ch=5 v=7509
720470 Off ch=5 n=87 v=110
720480 Pb ch=5 v=8192
720480 On ch=5 n=88 v=110
720710 Off ch=5 n=88 v=110
720720 On ch=5 n=89 v=110
720950 Off ch=5 n=89 v=110
720960 On ch=5 n=92 v=110
721190 Off ch=5 n=92 v=110
722160 Meta TrkEnd
TrkEnd
MTrk
0 Meta TrkName "Jetplane"
0 Meta 0x20 05
0 Meta InstrName "Jetplane"
0 KeySig 0 major
565 Par ch=6 c=0 v=7
570 Par ch=6 c=32 v=0
575 PrCh ch=6 p=125
580 Par ch=6 c=7 v=100
585 Par ch=6 c=10 v=64
590 Par ch=6 c=91 v=40
595 Par ch=6 c=93 v=0
600 Par ch=6 c=101 v=0
600 Par ch=6 c=100 v=0
600 Par ch=6 c=6 v=2
605 Par ch=6 c=99 v=1
605 Par ch=6 c=98 v=8
605 Par ch=6 c=6 v=64
610 Par ch=6 c=99 v=1
610 Par ch=6 c=98 v=9
610 Par ch=6 c=6 v=64
615 Par ch=6 c=99 v=1
615 Par ch=6 c=98 v=10
615 Par ch=6 c=6 v=64
620 Par ch=6 c=99 v=1
620 Par ch=6 c=98 v=32
620 Par ch=6 c=6 v=64
625 Par ch=6 c=99 v=1
625 Par ch=6 c=98 v=33
625 Par ch=6 c=6 v=64
630 Par ch=6 c=99 v=1
630 Par ch=6 c=98 v=99
630 Par ch=6 c=6 v=64
635 Par ch=6 c=99 v=1
635 Par ch=6 c=98 v=100
635 Par ch=6 c=6 v=64
640 Par ch=6 c=99 v=1
640 Par ch=6 c=98 v=102
640 Par ch=6 c=6 v=64
4800 Pb ch=6 v=8192
4800 On ch=6 n=59 v=100
4940 Pb ch=6 v=8320
5080 Pb ch=6 v=8448
5220 Pb ch=6 v=8576
5360 Pb ch=6 v=8704
5500 Pb ch=6 v=8832
5630 Pb ch=6 v=8960
5770 Pb ch=6 v=9088
5910 Pb ch=6 v=9216
6050 Pb ch=6 v=9344
6190 Pb ch=6 v=9472
6320 Pb ch=6 v=9600
6460 Pb ch=6 v=9728
6600 Pb ch=6 v=9856
6740 Pb ch=6 v=9984
6880 Pb ch=6 v=10112
7010 Pb ch=6 v=10240
7150 Pb ch=6 v=10368
7290 Pb ch=6 v=10496
7430 Pb ch=6 v=10624
7570 Pb ch=6 v=10752
7700 Pb ch=6 v=10880
7840 Pb ch=6 v=11008
7980 Pb ch=6 v=11136
8120 Pb ch=6 v=11264
8260 Pb ch=6 v=11392
8390 Pb ch=6 v=11520
11280 Off ch=6 n=59 v=100
11280 On ch=6 n=91 v=100
11760 Off ch=6 n=91 v=100
11760 On ch=6 n=84 v=100
12720 Pb ch=6 v=11520
12720 Par ch=6 c=11 v=110
12720 Off ch=6 n=84 v=100
12720 On ch=6 n=60 v=100
13100 Par ch=6 c=11 v=109
13480 Par ch=6 c=11 v=108
13860 Par ch=6 c=11 v=107
14240 Par ch=6 c=11 v=106
14620 Par ch=6 c=11 v=105
15000 Par ch=6 c=11 v=104
15380 Par ch=6 c=11 v=103
15760 Par ch=6 c=11 v=102
16140 Par ch=6 c=11 v=101
16520 Par ch=6 c=11 v=100
16900 Par ch=6 c=11 v=99
17280 Par ch=6 c=11 v=98
17650 Par ch=6 c=11 v=97
18030 Par ch=6 c=11 v=96
18410 Par ch=6 c=11 v=95
18790 Par ch=6 c=11 v=94
19170 Par ch=6 c=11 v=93
19550 Par ch=6 c=11 v=92
19930 Par ch=6 c=11 v=91
20310 Par ch=6 c=11 v=90
20690 Par ch=6 c=11 v=89
21070 Par ch=6 c=11 v=88
21450 Par ch=6 c=11 v=87
21830 Par ch=6 c=11 v=86
22200 Par ch=6 c=11 v=85
22580 Par ch=6 c=11 v=84
22960 Par ch=6 c=11 v=83
23340 Par ch=6 c=11 v=82
23720 Par ch=6 c=11 v=81
24100 Par ch=6 c=11 v=80
24480 Par ch=6 c=11 v=79
24860 Par ch=6 c=11 v=78
25240 Par ch=6 c=11 v=77
25620 Par ch=6 c=11 v=76
26000 Par ch=6 c=11 v=75
26380 Par ch=6 c=11 v=74
26760 Par ch=6 c=11 v=73
27130 Par ch=6 c=11 v=72
27510 Par ch=6 c=11 v=71
27890 Par ch=6 c=11 v=70
28270 Par ch=6 c=11 v=69
28650 Par ch=6 c=11 v=68
29030 Par ch=6 c=11 v=67
29410 Par ch=6 c=11 v=66
29790 Par ch=6 c=11 v=65
30170 Par ch=6 c=11 v=64
30550 Par ch=6 c=11 v=63
30930 Par ch=6 c=11 v=62
31310 Par ch=6 c=11 v=61
31680 Par ch=6 c=11 v=60
32060 Par ch=6 c=11 v=59
32440 Par ch=6 c=11 v=58
32820 Par ch=6 c=11 v=57
33200 Par ch=6 c=11 v=56
33580 Par ch=6 c=11 v=55
33960 Par ch=6 c=11 v=54
34340 Par ch=6 c=11 v=53
34720 Par ch=6 c=11 v=52
35100 Par ch=6 c=11 v=51
35480 Par ch=6 c=11 v=50
35860 Par ch=6 c=11 v=49
36230 Par ch=6 c=11 v=48
36720 Off ch=6 n=60 v=100
48240 Par ch=6 c=91 v=50
48250 Par ch=6 c=93 v=60
48260 Par ch=6 c=98 v=33
48270 Par ch=6 c=99 v=1
48280 Par ch=6 c=6 v=70
48290 Pb ch=6 v=8202
48430 Par ch=6 c=10 v=20
48440 Par ch=6 c=1 v=20
48450 Par ch=6 c=0 v=0
48460 PrCh ch=6 p=91
48470 Par ch=6 c=11 v=60
48480 On ch=6 n=73 v=65
48480 On ch=6 n=68 v=65
48480 On ch=6 n=63 v=65
48550 Par ch=6 c=11 v=64
48800 Par ch=6 c=11 v=68
49060 Par ch=6 c=11 v=72
49310 Par ch=6 c=11 v=76
49570 Par ch=6 c=11 v=80
49830 Par ch=6 c=11 v=84
50080 Par ch=6 c=11 v=88
50330 Par ch=6 c=11 v=90
50390 Off ch=6 n=73 v=65
50390 Off ch=6 n=68 v=65
50390 Off ch=6 n=63 v=65
50400 Par ch=6 c=11 v=60
50400 On ch=6 n=73 v=65
50400 On ch=6 n=68 v=65
50400 On ch=6 n=64 v=65
50650 Par ch=6 c=11 v=62
50910 Par ch=6 c=11 v=64
51160 Par ch=6 c=11 v=66
51420 Par ch=6 c=11 v=68
51670 Par ch=6 c=11 v=70
51930 Par ch=6 c=11 v=72
52180 Par ch=6 c=11 v=74
52320 Par ch=6 c=11 v=76
52450 Par ch=6 c=11 v=78
52700 Par ch=6 c=11 v=80
52960 Par ch=6 c=11 v=82
53210 Par ch=6 c=11 v=84
53470 Par ch=6 c=11 v=86
53720 Par ch=6 c=11 v=88
53980 Par ch=6 c=11 v=90
54230 Off ch=6 n=73 v=65
54230 Off ch=6 n=68 v=65
54230 Off ch=6 n=64 v=65
54240 Par ch=6 c=11 v=60
54240 On ch=6 n=70 v=65
54240 On ch=6 n=68 v=65
54240 On ch=6 n=65 v=65
54490 Par ch=6 c=11 v=62
54750 Par ch=6 c=11 v=64
55000 Par ch=6 c=11 v=66
55260 Par ch=6 c=11 v=68
55510 Par ch=6 c=11 v=70
55770 Par ch=6 c=11 v=72
56020 Par ch=6 c=11 v=74
56160 Par ch=6 c=11 v=76
56290 Par ch=6 c=11 v=78
56540 Par ch=6 c=11 v=80
56800 Par ch=6 c=11 v=82
57050 Par ch=6 c=11 v=84
57310 Par ch=6 c=11 v=86
57560 Par ch=6 c=11 v=88
57820 Par ch=6 c=11 v=90
58070 Off ch=6 n=70 v=65
58070 Off ch=6 n=68 v=65
58070 Off ch=6 n=65 v=65
58080 Par ch=6 c=11 v=60
58080 On ch=6 n=75 v=65
58080 On ch=6 n=71 v=65
58080 On ch=6 n=66 v=65
58330 Par ch=6 c=11 v=62
58590 Par ch=6 c=11 v=64
58840 Par ch=6 c=11 v=66
59100 Par ch=6 c=11 v=68
59350 Par ch=6 c=11 v=70
59610 Par ch=6 c=11 v=72
59860 Par ch=6 c=11 v=74
60000 Par ch=6 c=11 v=76
60130 Par ch=6 c=11 v=78
60380 Par ch=6 c=11 v=80
60640 Par ch=6 c=11 v=82
60890 Par ch=6 c=11 v=84
61150 Par ch=6 c=11 v=86
61400 Par ch=6 c=11 v=88
61660 Par ch=6 c=11 v=90
61910 Off ch=6 n=75 v=65
61910 Off ch=6 n=71 v=65
61910 Off ch=6 n=66 v=65
61920 Par ch=6 c=11 v=60
61920 On ch=6 n=73 v=65
61920 On ch=6 n=70 v=65
61920 On ch=6 n=66 v=65
62170 Par ch=6 c=11 v=62
62430 Par ch=6 c=11 v=64
62680 Par ch=6 c=11 v=66
62940 Par ch=6 c=11 v=68
63190 Par ch=6 c=11 v=70
63450 Par ch=6 c=11 v=72
63700 Par ch=6 c=11 v=74
63840 Par ch=6 c=11 v=76
63970 Par ch=6 c=11 v=78
64220 Par ch=6 c=11 v=80
64480 Par ch=6 c=11 v=82
64730 Par ch=6 c=11 v=84
64990 Par ch=6 c=11 v=86
65240 Par ch=6 c=11 v=88
65500 Par ch=6 c=11 v=90
65750 Off ch=6 n=73 v=65
65750 Off ch=6 n=70 v=65
65750 Off ch=6 n=66 v=65
65760 Par ch=6 c=11 v=60
65760 On ch=6 n=73 v=65
65760 On ch=6 n=68 v=65
65760 On ch=6 n=63 v=65
66010 Par ch=6 c=11 v=62
66270 Par ch=6 c=11 v=64
66520 Par ch=6 c=11 v=66
66780 Par ch=6 c=11 v=68
67030 Par ch=6 c=11 v=70
67290 Par ch=6 c=11 v=72
67540 Par ch=6 c=11 v=74
67680 Par ch=6 c=11 v=76
67810 Par ch=6 c=11 v=78
68060 Par ch=6 c=11 v=80
68320 Par ch=6 c=11 v=82
68570 Par ch=6 c=11 v=84
68830 Par ch=6 c=11 v=86
69080 Par ch=6 c=11 v=88
69340 Par ch=6 c=11 v=90
69590 Off ch=6 n=73 v=65
69590 Off ch=6 n=68 v=65
69590 Off ch=6 n=63 v=65
69600 Par ch=6 c=11 v=60
69600 On ch=6 n=73 v=65
69600 On ch=6 n=68 v=65
69600 On ch=6 n=64 v=65
69850 Par ch=6 c=11 v=62
70110 Par ch=6 c=11 v=64
70360 Par ch=6 c=11 v=66
70620 Par ch=6 c=11 v=68
70870 Par ch=6 c=11 v=70
71130 Par ch=6 c=11 v=72
71380 Par ch=6 c=11 v=74
71520 Par ch=6 c=11 v=76
71650 Par ch=6 c=11 v=78
71900 Par ch=6 c=11 v=80
72160 Par ch=6 c=11 v=82
72410 Par ch=6 c=11 v=84
72670 Par ch=6 c=11 v=86
72920 Par ch=6 c=11 v=88
73180 Par ch=6 c=11 v=90
73430 Off ch=6 n=73 v=65
73430 Off ch=6 n=68 v=65
73430 Off ch=6 n=64 v=65
73440 Par ch=6 c=11 v=60
73440 On ch=6 n=70 v=65
73440 On ch=6 n=68 v=65
73440 On ch=6 n=65 v=65
73690 Par ch=6 c=11 v=62
73950 Par ch=6 c=11 v=64
74200 Par ch=6 c=11 v=66
74460 Par ch=6 c=11 v=68
74710 Par ch=6 c=11 v=70
74970 Par ch=6 c=11 v=72
75220 Par ch=6 c=11 v=74
75360 Par ch=6 c=11 v=76
75490 Par ch=6 c=11 v=78
75740 Par ch=6 c=11 v=80
76000 Par ch=6 c=11 v=82
76250 Par ch=6 c=11 v=84
76510 Par ch=6 c=11 v=86
76760 Par ch=6 c=11 v=88
77020 Par ch=6 c=11 v=90
77270 Off ch=6 n=70 v=65
77270 Off ch=6 n=68 v=65
77270 Off ch=6 n=65 v=65
77280 Par ch=6 c=11 v=60
77280 On ch=6 n=75 v=65
77280 On ch=6 n=71 v=65
77280 On ch=6 n=66 v=65
77530 Par ch=6 c=11 v=62
77790 Par ch=6 c=11 v=64
78040 Par ch=6 c=11 v=66
78300 Par ch=6 c=11 v=68
78550 Par ch=6 c=11 v=70
78810 Par ch=6 c=11 v=72
79060 Par ch=6 c=11 v=74
79200 Par ch=6 c=11 v=76
79330 Par ch=6 c=11 v=78
79580 Par ch=6 c=11 v=80
79840 Par ch=6 c=11 v=82
80090 Par ch=6 c=11 v=84
80350 Par ch=6 c=11 v=86
80600 Par ch=6 c=11 v=88
80860 Par ch=6 c=11 v=90
81110 Off ch=6 n=75 v=65
81110 Off ch=6 n=71 v=65
81110 Off ch=6 n=66 v=65
81120 Par ch=6 c=11 v=60
81120 On ch=6 n=73 v=65
81120 On ch=6 n=70 v=65
81120 On ch=6 n=66 v=65
81370 Par ch=6 c=11 v=62
81630 Par ch=6 c=11 v=64
81880 Par ch=6 c=11 v=66
82140 Par ch=6 c=11 v=68
82390 Par ch=6 c=11 v=70
82650 Par ch=6 c=11 v=72
82900 Par ch=6 c=11 v=74
83040 Par ch=6 c=11 v=76
83170 Par ch=6 c=11 v=78
83420 Par ch=6 c=11 v=80
83680 Par ch=6 c=11 v=82
83930 Par ch=6 c=11 v=84
84190 Par ch=6 c=11 v=86
84440 Par ch=6 c=11 v=88
84700 Par ch=6 c=11 v=90
84950 Off ch=6 n=73 v=65
84950 Off ch=6 n=70 v=65
84950 Off ch=6 n=66 v=65
84960 Par ch=6 c=11 v=60
84960 On ch=6 n=73 v=65
84960 On ch=6 n=68 v=65
84960 On ch=6 n=63 v=65
85210 Par ch=6 c=11 v=62
85470 Par ch=6 c=11 v=64
85720 Par ch=6 c=11 v=66
85980 Par ch=6 c=11 v=68
86230 Par ch=6 c=11 v=70
86490 Par ch=6 c=11 v=72
86740 Par ch=6 c=11 v=74
86880 Par ch=6 c=11 v=76
87010 Par ch=6 c=11 v=78
87260 Par ch=6 c=11 v=80
87520 Par ch=6 c=11 v=82
87770 Par ch=6 c=11 v=84
88030 Par ch=6 c=11 v=86
88280 Par ch=6 c=11 v=88
88540 Par ch=6 c=11 v=90
88790 Off ch=6 n=73 v=65
88790 Off ch=6 n=68 v=65
88790 Off ch=6 n=63 v=65
88800 Par ch=6 c=11 v=60
88800 On ch=6 n=73 v=65
88800 On ch=6 n=68 v=65
88800 On ch=6 n=64 v=65
89050 Par ch=6 c=11 v=62
89310 Par ch=6 c=11 v=64
89560 Par ch=6 c=11 v=66
89820 Par ch=6 c=11 v=68
90070 Par ch=6 c=11 v=70
90330 Par ch=6 c=11 v=72
90580 Par ch=6 c=11 v=74
90720 Par ch=6 c=11 v=76
90850 Par ch=6 c=11 v=78
91100 Par ch=6 c=11 v=80
91360 Par ch=6 c=11 v=82
91610 Par ch=6 c=11 v=84
91870 Par ch=6 c=11 v=86
92120 Par ch=6 c=11 v=88
92380 Par ch=6 c=11 v=90
92630 Off ch=6 n=73 v=65
92630 Off ch=6 n=68 v=65
92630 Off ch=6 n=64 v=65
92640 Par ch=6 c=11 v=60
92640 On ch=6 n=70 v=65
92640 On ch=6 n=68 v=65
92640 On ch=6 n=65 v=65
92890 Par ch=6 c=11 v=62
93150 Par ch=6 c=11 v=64
93400 Par ch=6 c=11 v=66
93660 Par ch=6 c=11 v=68
93910 Par ch=6 c=11 v=70
94170 Par ch=6 c=11 v=72
94420 Par ch=6 c=11 v=74
94560 Par ch=6 c=11 v=76
94690 Par ch=6 c=11 v=78
94940 Par ch=6 c=11 v=80
95200 Par ch=6 c=11 v=82
95450 Par ch=6 c=11 v=84
95710 Par ch=6 c=11 v=86
95960 Par ch=6 c=11 v=88
96220 Par ch=6 c=11 v=90
96470 Off ch=6 n=70 v=65
96470 Off ch=6 n=68 v=65
96470 Off ch=6 n=65 v=65
96480 Par ch=6 c=11 v=60
96480 On ch=6 n=75 v=65
96480 On ch=6 n=71 v=65
96480 On ch=6 n=68 v=65
96480 On ch=6 n=66 v=65
96730 Par ch=6 c=11 v=62
96990 Par ch=6 c=11 v=64
97240 Par ch=6 c=11 v=66
97500 Par ch=6 c=11 v=68
97750 Par ch=6 c=11 v=70
98010 Par ch=6 c=11 v=72
98260 Par ch=6 c=11 v=74
98400 Par ch=6 c=11 v=76
98530 Par ch=6 c=11 v=78
98780 Par ch=6 c=11 v=80
99040 Par ch=6 c=11 v=82
99290 Par ch=6 c=11 v=84
99550 Par ch=6 c=11 v=86
99800 Par ch=6 c=11 v=88
100060 Par ch=6 c=11 v=90
100310 Off ch=6 n=75 v=65
100310 Off ch=6 n=71 v=65
100310 Off ch=6 n=68 v=65
100310 Off ch=6 n=66 v=65
100320 Par ch=6 c=11 v=60
100320 On ch=6 n=73 v=65
100320 On ch=6 n=70 v=65
100320 On ch=6 n=66 v=65
100570 Par ch=6 c=11 v=62
100830 Par ch=6 c=11 v=64
101080 Par ch=6 c=11 v=66
101340 Par ch=6 c=11 v=68
101590 Par ch=6 c=11 v=70
101850 Par ch=6 c=11 v=72
102100 Par ch=6 c=11 v=74
102240 Par ch=6 c=11 v=76
102370 Par ch=6 c=11 v=78
102620 Par ch=6 c=11 v=80
102880 Par ch=6 c=11 v=82
103130 Par ch=6 c=11 v=84
103390 Par ch=6 c=11 v=86
103640 Par ch=6 c=11 v=88
103900 Par ch=6 c=11 v=90
104150 Off ch=6 n=73 v=65
104150 Off ch=6 n=70 v=65
104150 Off ch=6 n=66 v=65
104160 Par ch=6 c=11 v=60
104160 On ch=6 n=73 v=65
104160 On ch=6 n=68 v=65
104160 On ch=6 n=63 v=65
104410 Par ch=6 c=11 v=62
104670 Par ch=6 c=11 v=64
104920 Par ch=6 c=11 v=66
105180 Par ch=6 c=11 v=68
105430 Par ch=6 c=11 v=70
105690 Par ch=6 c=11 v=72
105940 Par ch=6 c=11 v=74
106080 Par ch=6 c=11 v=76
106210 Par ch=6 c=11 v=78
106460 Par ch=6 c=11 v=80
106720 Par ch=6 c=11 v=82
106970 Par ch=6 c=11 v=84
107230 Par ch=6 c=11 v=86
107480 Par ch=6 c=11 v=88
107740 Par ch=6 c=11 v=90
107990 Off ch=6 n=73 v=65
107990 Off ch=6 n=68 v=65
107990 Off ch=6 n=63 v=65
108000 Par ch=6 c=11 v=60
108000 On ch=6 n=73 v=65
108000 On ch=6 n=68 v=65
108000 On ch=6 n=64 v=65
108250 Par ch=6 c=11 v=62
108510 Par ch=6 c=11 v=64
108760 Par ch=6 c=11 v=66
109020 Par ch=6 c=11 v=68
109270 Par ch=6 c=11 v=70
109530 Par ch=6 c=11 v=72
109780 Par ch=6 c=11 v=74
109920 Par ch=6 c=11 v=76
110050 Par ch=6 c=11 v=78
110300 Par ch=6 c=11 v=80
110560 Par ch=6 c=11 v=82
110810 Par ch=6 c=11 v=84
111070 Par ch=6 c=11 v=86
111320 Par ch=6 c=11 v=88
111580 Par ch=6 c=11 v=90
111830 Off ch=6 n=73 v=65
111830 Off ch=6 n=68 v=65
111830 Off ch=6 n=64 v=65
111840 Par ch=6 c=11 v=60
111840 On ch=6 n=70 v=65
111840 On ch=6 n=68 v=65
111840 On ch=6 n=65 v=65
112090 Par ch=6 c=11 v=62
112350 Par ch=6 c=11 v=64
112600 Par ch=6 c=11 v=66
112860 Par ch=6 c=11 v=68
113110 Par ch=6 c=11 v=70
113370 Par ch=6 c=11 v=72
113620 Par ch=6 c=11 v=74
113760 Par ch=6 c=11 v=76
113890 Par ch=6 c=11 v=78
114140 Par ch=6 c=11 v=80
114400 Par ch=6 c=11 v=82
114650 Par ch=6 c=11 v=84
114910 Par ch=6 c=11 v=86
115160 Par ch=6 c=11 v=88
115420 Par ch=6 c=11 v=90
115670 Off ch=6 n=70 v=65
115670 Off ch=6 n=68 v=65
115670 Off ch=6 n=65 v=65
115680 Par ch=6 c=11 v=60
115680 On ch=6 n=75 v=65
115680 On ch=6 n=71 v=65
115680 On ch=6 n=68 v=65
115680 On ch=6 n=66 v=65
115930 Par ch=6 c=11 v=62
116190 Par ch=6 c=11 v=64
116440 Par ch=6 c=11 v=66
116700 Par ch=6 c=11 v=68
116950 Par ch=6 c=11 v=70
117210 Par ch=6 c=11 v=72
117460 Par ch=6 c=11 v=74
117600 Par ch=6 c=11 v=76
117730 Par ch=6 c=11 v=78
117980 Par ch=6 c=11 v=80
118240 Par ch=6 c=11 v=82
118490 Par ch=6 c=11 v=84
118750 Par ch=6 c=11 v=86
119000 Par ch=6 c=11 v=88
119260 Par ch=6 c=11 v=90
119510 Off ch=6 n=75 v=65
119510 Off ch=6 n=71 v=65
119510 Off ch=6 n=68 v=65
119510 Off ch=6 n=66 v=65
119520 Par ch=6 c=11 v=60
119520 On ch=6 n=73 v=65
119520 On ch=6 n=70 v=65
119520 On ch=6 n=66 v=65
119770 Par ch=6 c=11 v=62
120030 Par ch=6 c=11 v=64
120280 Par ch=6 c=11 v=66
120540 Par ch=6 c=11 v=68
120790 Par ch=6 c=11 v=70
121050 Par ch=6 c=11 v=72
121300 Par ch=6 c=11 v=74
121440 Par ch=6 c=11 v=76
121570 Par ch=6 c=11 v=78
121820 Par ch=6 c=11 v=80
122080 Par ch=6 c=11 v=82
122330 Par ch=6 c=11 v=84
122590 Par ch=6 c=11 v=86
122840 Par ch=6 c=11 v=88
123100 Par ch=6 c=11 v=90
123350 Off ch=6 n=73 v=65
123350 Off ch=6 n=70 v=65
123350 Off ch=6 n=66 v=65
123360 Par ch=6 c=11 v=60
123360 On ch=6 n=73 v=65
123360 On ch=6 n=68 v=65
123360 On ch=6 n=63 v=65
123610 Par ch=6 c=11 v=62
123870 Par ch=6 c=11 v=64
124120 Par ch=6 c=11 v=66
124380 Par ch=6 c=11 v=68
124630 Par ch=6 c=11 v=70
124890 Par ch=6 c=11 v=72
125140 Par ch=6 c=11 v=74
125280 Par ch=6 c=11 v=76
125410 Par ch=6 c=11 v=78
125660 Par ch=6 c=11 v=80
125920 Par ch=6 c=11 v=82
126170 Par ch=6 c=11 v=84
126430 Par ch=6 c=11 v=86
126680 Par ch=6 c=11 v=88
126940 Par ch=6 c=11 v=90
127190 Off ch=6 n=73 v=65
127190 Off ch=6 n=68 v=65
127190 Off ch=6 n=63 v=65
127200 Par ch=6 c=11 v=60
127200 On ch=6 n=73 v=65
127200 On ch=6 n=68 v=65
127200 On ch=6 n=64 v=65
127450 Par ch=6 c=11 v=62
127710 Par ch=6 c=11 v=64
127960 Par ch=6 c=11 v=66
128220 Par ch=6 c=11 v=68
128470 Par ch=6 c=11 v=70
128730 Par ch=6 c=11 v=72
128980 Par ch=6 c=11 v=74
129120 Par ch=6 c=11 v=76
129250 Par ch=6 c=11 v=78
129500 Par ch=6 c=11 v=80
129760 Par ch=6 c=11 v=82
130010 Par ch=6 c=11 v=84
130270 Par ch=6 c=11 v=86
130520 Par ch=6 c=11 v=88
130780 Par ch=6 c=11 v=90
131030 Off ch=6 n=73 v=65
131030 Off ch=6 n=68 v=65
131030 Off ch=6 n=64 v=65
131040 Par ch=6 c=11 v=60
131040 On ch=6 n=70 v=65
131040 On ch=6 n=68 v=65
131040 On ch=6 n=65 v=65
131290 Par ch=6 c=11 v=62
131550 Par ch=6 c=11 v=64
131800 Par ch=6 c=11 v=66
132060 Par ch=6 c=11 v=68
132310 Par ch=6 c=11 v=70
132570 Par ch=6 c=11 v=72
132820 Par ch=6 c=11 v=74
132960 Par ch=6 c=11 v=76
133090 Par ch=6 c=11 v=78
133340 Par ch=6 c=11 v=80
133600 Par ch=6 c=11 v=82
133850 Par ch=6 c=11 v=84
134110 Par ch=6 c=11 v=86
134360 Par ch=6 c=11 v=88
134620 Par ch=6 c=11 v=90
134870 Off ch=6 n=70 v=65
134870 Off ch=6 n=68 v=65
134870 Off ch=6 n=65 v=65
134880 Par ch=6 c=11 v=60
134880 On ch=6 n=75 v=65
134880 On ch=6 n=71 v=65
134880 On ch=6 n=68 v=65
134880 On ch=6 n=66 v=65
135130 Par ch=6 c=11 v=62
135390 Par ch=6 c=11 v=64
135640 Par ch=6 c=11 v=66
135900 Par ch=6 c=11 v=68
136150 Par ch=6 c=11 v=70
136410 Par ch=6 c=11 v=72
136660 Par ch=6 c=11 v=74
136800 Par ch=6 c=11 v=76
136930 Par ch=6 c=11 v=78
137180 Par ch=6 c=11 v=80
137440 Par ch=6 c=11 v=82
137690 Par ch=6 c=11 v=84
137950 Par ch=6 c=11 v=86
138200 Par ch=6 c=11 v=88
138460 Par ch=6 c=11 v=90
138710 Off ch=6 n=75 v=65
138710 Off ch=6 n=71 v=65
138710 Off ch=6 n=68 v=65
138710 Off ch=6 n=66 v=65
138720 Par ch=6 c=11 v=60
138720 On ch=6 n=73 v=65
138720 On ch=6 n=70 v=65
138720 On ch=6 n=66 v=65
138970 Par ch=6 c=11 v=62
139230 Par ch=6 c=11 v=64
139480 Par ch=6 c=11 v=66
139740 Par ch=6 c=11 v=68
139990 Par ch=6 c=11 v=70
140250 Par ch=6 c=11 v=72
140500 Par ch=6 c=11 v=74
140640 Par ch=6 c=11 v=76
140770 Par ch=6 c=11 v=78
141020 Par ch=6 c=11 v=80
141280 Par ch=6 c=11 v=82
141530 Par ch=6 c=11 v=84
141790 Par ch=6 c=11 v=86
142040 Par ch=6 c=11 v=88
142300 Par ch=6 c=11 v=90
142320 Pb ch=6 v=8192
142320 Off ch=6 n=73 v=65
142320 Off ch=6 n=70 v=65
142320 Off ch=6 n=66 v=65
191760 Par ch=6 c=10 v=10
191770 Par ch=6 c=11 v=110
191780 Par ch=6 c=0 v=7
191790 PrCh ch=6 p=125
191800 Par ch=6 c=11 v=120
191810 On ch=6 n=52 v=100
230380 Off ch=6 n=52 v=100
230400 Par ch=6 c=0 v=0
230410 PrCh ch=6 p=63
231840 Par ch=6 c=11 v=45
231840 On ch=6 n=71 v=70
231840 On ch=6 n=68 v=70
231840 On ch=6 n=66 v=70
231840 On ch=6 n=63 v=70
231930 Par ch=6 c=11 v=46
232010 Par ch=6 c=11 v=47
232100 Par ch=6 c=11 v=48
232180 Par ch=6 c=11 v=49
232270 Par ch=6 c=11 v=50
232350 Par ch=6 c=11 v=51
232440 Par ch=6 c=11 v=52
232520 Par ch=6 c=11 v=53
232600 Par ch=6 c=11 v=54
232690 Par ch=6 c=11 v=55
232770 Par ch=6 c=11 v=56
232860 Par ch=6 c=11 v=57
232940 Par ch=6 c=11 v=58
233030 Par ch=6 c=11 v=59
233110 Par ch=6 c=11 v=60
233200 Par ch=6 c=11 v=61
233280 Par ch=6 c=11 v=62
233360 Par ch=6 c=11 v=63
233450 Par ch=6 c=11 v=64
233530 Par ch=6 c=11 v=65
233620 Par ch=6 c=11 v=66
233700 Par ch=6 c=11 v=67
233790 Par ch=6 c=11 v=68
233870 Par ch=6 c=11 v=69
233960 Par ch=6 c=11 v=70
234040 Par ch=6 c=11 v=71
234120 Par ch=6 c=11 v=72
234210 Par ch=6 c=11 v=73
234290 Par ch=6 c=11 v=74
234380 Par ch=6 c=11 v=75
234460 Par ch=6 c=11 v=76
234550 Par ch=6 c=11 v=77
234630 Par ch=6 c=11 v=78
234710 Par ch=6 c=11 v=79
237590 Off ch=6 n=71 v=70
237590 Off ch=6 n=68 v=70
237590 Off ch=6 n=66 v=70
237590 Off ch=6 n=63 v=70
280670 Par ch=6 c=98 v=33
280680 Par ch=6 c=99 v=1
280690 Par ch=6 c=6 v=40
280700 Par ch=6 c=98 v=32
280710 Par ch=6 c=99 v=1
280720 Par ch=6 c=6 v=45
280730 Par ch=6 c=10 v=0
280740 Par ch=6 c=98 v=99
280750 Par ch=6 c=99 v=1
280760 Par ch=6 c=6 v=88
280770 PrCh ch=6 p=29
280780 Par ch=6 c=91 v=30
280790 Par ch=6 c=93 v=50
280800 On ch=6 n=70 v=80
280800 On ch=6 n=65 v=80
280800 On ch=6 n=61 v=80
280800 On ch=6 n=58 v=80
283670 Off ch=6 n=70 v=80
283670 Off ch=6 n=65 v=80
283670 Off ch=6 n=61 v=80
283670 Off ch=6 n=58 v=80
283680 On ch=6 n=70 v=80
283680 On ch=6 n=66 v=80
283680 On ch=6 n=63 v=80
283680 On ch=6 n=58 v=80
286550 Off ch=6 n=70 v=80
286550 Off ch=6 n=66 v=80
286550 Off ch=6 n=63 v=80
286550 Off ch=6 n=58 v=80
286560 On ch=6 n=72 v=80
286560 On ch=6 n=67 v=80
286560 On ch=6 n=63 v=80
286560 On ch=6 n=58 v=80
289430 Off ch=6 n=72 v=80
289430 Off ch=6 n=67 v=80
289430 Off ch=6 n=63 v=80
289430 Off ch=6 n=58 v=80
289440 On ch=6 n=70 v=80
289440 On ch=6 n=65 v=80
289440 On ch=6 n=61 v=80
289440 On ch=6 n=58 v=80
292310 Par ch=6 c=6 v=70
292310 Off ch=6 n=70 v=80
292310 Off ch=6 n=65 v=80
292310 Off ch=6 n=61 v=80
292310 Off ch=6 n=58 v=80
292320 On ch=6 n=68 v=80
292320 On ch=6 n=63 v=80
292320 On ch=6 n=60 v=80
292320 On ch=6 n=56 v=80
294230 Par ch=6 c=6 v=75
294230 Off ch=6 n=68 v=80
294230 Off ch=6 n=63 v=80
294230 Off ch=6 n=60 v=80
294230 Off ch=6 n=56 v=80
294240 On ch=6 n=68 v=80
294240 On ch=6 n=63 v=80
294240 On ch=6 n=61 v=80
294240 On ch=6 n=56 v=80
295190 Par ch=6 c=6 v=88
295190 Off ch=6 n=68 v=80
295190 Off ch=6 n=63 v=80
295190 Off ch=6 n=61 v=80
295190 Off ch=6 n=56 v=80
295200 On ch=6 n=68 v=80
295200 On ch=6 n=63 v=80
295200 On ch=6 n=60 v=80
295200 On ch=6 n=56 v=80
298070 Off ch=6 n=68 v=80
298070 Off ch=6 n=63 v=80
298070 Off ch=6 n=60 v=80
298070 Off ch=6 n=56 v=80
298080 On ch=6 n=70 v=80
298080 On ch=6 n=65 v=80
298080 On ch=6 n=61 v=80
298080 On ch=6 n=58 v=80
300950 Off ch=6 n=70 v=80
300950 Off ch=6 n=65 v=80
300950 Off ch=6 n=61 v=80
300950 Off ch=6 n=58 v=80
300960 On ch=6 n=70 v=80
300960 On ch=6 n=66 v=80
300960 On ch=6 n=63 v=80
300960 On ch=6 n=58 v=80
303830 Off ch=6 n=70 v=80
303830 Off ch=6 n=66 v=80
303830 Off ch=6 n=63 v=80
303830 Off ch=6 n=58 v=80
303840 On ch=6 n=72 v=80
303840 On ch=6 n=67 v=80
303840 On ch=6 n=63 v=80
303840 On ch=6 n=58 v=80
306710 Off ch=6 n=72 v=80
306710 Off ch=6 n=67 v=80
306710 Off ch=6 n=63 v=80
306710 Off ch=6 n=58 v=80
306720 On ch=6 n=70 v=80
306720 On ch=6 n=65 v=80
306720 On ch=6 n=61 v=80
306720 On ch=6 n=58 v=80
309590 Off ch=6 n=70 v=80
309590 Off ch=6 n=65 v=80
309590 Off ch=6 n=61 v=80
309590 Off ch=6 n=58 v=80
309600 On ch=6 n=68 v=80
309600 On ch=6 n=63 v=80
309600 On ch=6 n=60 v=80
309600 On ch=6 n=56 v=80
315350 Off ch=6 n=68 v=80
315350 Off ch=6 n=63 v=80
315350 Off ch=6 n=60 v=80
315350 Off ch=6 n=56 v=80
315360 On ch=6 n=65 v=80
315360 On ch=6 n=61 v=80
315360 On ch=6 n=56 v=80
315360 On ch=6 n=49 v=80
318230 Off ch=6 n=65 v=80
318230 Off ch=6 n=61 v=80
318230 Off ch=6 n=56 v=80
318230 Off ch=6 n=49 v=80
337920 On ch=6 n=64 v=80
337920 On ch=6 n=59 v=80
337920 On ch=6 n=56 v=80
337920 On ch=6 n=52 v=80
337920 On ch=6 n=47 v=80
337920 On ch=6 n=40 v=80
340790 Off ch=6 n=64 v=80
340790 Off ch=6 n=59 v=80
340790 Off ch=6 n=56 v=80
340790 Off ch=6 n=52 v=80
340790 Off ch=6 n=47 v=80
340790 Off ch=6 n=40 v=80
340800 On ch=6 n=52 v=80
340800 On ch=6 n=66 v=80
340800 On ch=6 n=61 v=80
340800 On ch=6 n=57 v=80
340800 On ch=6 n=45 v=80
345120 On ch=6 n=64 v=80
345120 On ch=6 n=59 v=80
345120 On ch=6 n=56 v=80
345120 On ch=6 n=47 v=80
345120 On ch=6 n=40 v=80
345130 Off ch=6 n=66 v=80
345130 Off ch=6 n=61 v=80
345130 Off ch=6 n=57 v=80
345130 Off ch=6 n=45 v=80
347990 Off ch=6 n=64 v=80
347990 Off ch=6 n=59 v=80
347990 Off ch=6 n=56 v=80
347990 Off ch=6 n=52 v=80
347990 Off ch=6 n=47 v=80
347990 Off ch=6 n=40 v=80
352320 On ch=6 n=71 v=80
352320 On ch=6 n=66 v=80
353030 Off ch=6 n=71 v=80
353030 Off ch=6 n=66 v=80
353760 On ch=6 n=70 v=80
353760 On ch=6 n=65 v=80
353760 On ch=6 n=61 v=80
353760 On ch=6 n=58 v=80
356630 Off ch=6 n=70 v=80
356630 Off ch=6 n=65 v=80
356630 Off ch=6 n=61 v=80
356630 Off ch=6 n=58 v=80
356640 On ch=6 n=70 v=80
356640 On ch=6 n=66 v=80
356640 On ch=6 n=63 v=80
356640 On ch=6 n=58 v=80
359510 Off ch=6 n=70 v=80
359510 Off ch=6 n=66 v=80
359510 Off ch=6 n=63 v=80
359510 Off ch=6 n=58 v=80
359520 On ch=6 n=72 v=80
359520 On ch=6 n=67 v=80
359520 On ch=6 n=63 v=80
359520 On ch=6 n=60 v=80
362390 Off ch=6 n=72 v=80
362390 Off ch=6 n=67 v=80
362390 Off ch=6 n=63 v=80
362390 Off ch=6 n=60 v=80
362400 On ch=6 n=65 v=80
362400 On ch=6 n=61 v=80
362400 On ch=6 n=56 v=80
362400 On ch=6 n=51 v=80
365270 Off ch=6 n=65 v=80
365270 Off ch=6 n=61 v=80
365270 Off ch=6 n=56 v=80
365270 Off ch=6 n=51 v=80
365280 On ch=6 n=63 v=80
365280 On ch=6 n=60 v=80
365280 On ch=6 n=56 v=80
368150 Off ch=6 n=63 v=80
368150 Off ch=6 n=60 v=80
368150 Off ch=6 n=56 v=80
368160 On ch=6 n=61 v=80
368870 Off ch=6 n=61 v=80
368880 On ch=6 n=60 v=80
369590 Off ch=6 n=60 v=80
369600 On ch=6 n=56 v=80
371030 Off ch=6 n=56 v=80
371040 On ch=6 n=65 v=80
371040 On ch=6 n=61 v=80
371040 On ch=6 n=58 v=80
373910 Off ch=6 n=65 v=80
373910 Off ch=6 n=61 v=80
373910 Off ch=6 n=58 v=80
373920 On ch=6 n=66 v=80
373920 On ch=6 n=61 v=80
373920 On ch=6 n=58 v=80
376790 Off ch=6 n=66 v=80
376790 Off ch=6 n=61 v=80
376790 Off ch=6 n=58 v=80
376800 On ch=6 n=75 v=80
376800 On ch=6 n=67 v=80
376800 On ch=6 n=72 v=80
378240 Off ch=6 n=72 v=80
379670 Off ch=6 n=75 v=80
379670 Off ch=6 n=67 v=80
379680 On ch=6 n=73 v=80
379680 On ch=6 n=70 v=80
379680 On ch=6 n=65 v=80
382550 Off ch=6 n=73 v=80
382550 Off ch=6 n=70 v=80
382550 Off ch=6 n=65 v=80
382560 On ch=6 n=68 v=80
382560 On ch=6 n=63 v=80
382560 On ch=6 n=60 v=80
385430 Off ch=6 n=68 v=80
385430 Off ch=6 n=63 v=80
385430 Off ch=6 n=60 v=80
385440 On ch=6 n=63 v=80
386870 Off ch=6 n=63 v=80
386880 On ch=6 n=63 v=80
387350 Off ch=6 n=63 v=80
387360 On ch=6 n=60 v=80
387830 Off ch=6 n=60 v=80
387840 On ch=6 n=56 v=80
388310 Off ch=6 n=56 v=80
388320 Par ch=6 c=98 v=99
388330 Par ch=6 c=99 v=1
388340 Par ch=6 c=6 v=64
388350 Par ch=6 c=11 v=120
388360 Par ch=6 c=98 v=33
388370 Par ch=6 c=99 v=1
388380 Par ch=6 c=6 v=80
388390 Par ch=6 c=98 v=32
388400 Par ch=6 c=99 v=1
388410 Par ch=6 c=6 v=60
388420 Par ch=6 c=91 v=50
388430 Par ch=6 c=93 v=50
389720 On ch=6 n=46 v=80
389740 On ch=6 n=51 v=80
389760 On ch=6 n=56 v=80
389780 On ch=6 n=70 v=80
389780 On ch=6 n=65 v=80
389780 On ch=6 n=61 v=80
391150 Off ch=6 n=46 v=80
391170 Off ch=6 n=51 v=80
391190 Off ch=6 n=70 v=80
391190 Off ch=6 n=65 v=80
391190 Off ch=6 n=61 v=80
391190 Off ch=6 n=56 v=80
392600 On ch=6 n=46 v=80
392620 On ch=6 n=51 v=80
392640 On ch=6 n=58 v=80
392660 On ch=6 n=70 v=80
392660 On ch=6 n=66 v=80
392660 On ch=6 n=63 v=80
394030 Off ch=6 n=46 v=80
394050 Off ch=6 n=51 v=80
394070 Off ch=6 n=70 v=80
394070 Off ch=6 n=66 v=80
394070 Off ch=6 n=63 v=80
394070 Off ch=6 n=58 v=80
394080 Par ch=6 c=11 v=80
394080 On ch=6 n=70 v=80
394080 On ch=6 n=67 v=80
394080 On ch=6 n=63 v=80
394080 On ch=6 n=58 v=80
394080 On ch=6 n=51 v=80
396950 Off ch=6 n=70 v=80
396950 Off ch=6 n=67 v=80
396950 Off ch=6 n=63 v=80
396950 Off ch=6 n=58 v=80
396950 Off ch=6 n=51 v=80
396960 On ch=6 n=68 v=80
396960 On ch=6 n=65 v=80
396960 On ch=6 n=61 v=80
396960 On ch=6 n=56 v=80
396960 On ch=6 n=49 v=80
399830 Off ch=6 n=68 v=80
399830 Off ch=6 n=65 v=80
399830 Off ch=6 n=61 v=80
399830 Off ch=6 n=56 v=80
399830 Off ch=6 n=49 v=80
399840 Par ch=6 c=11 v=100
399840 Pb ch=6 v=9557
399840 On ch=6 n=70 v=80
399840 On ch=6 n=61 v=80
400090 Pb ch=6 v=9472
400100 Pb ch=6 v=9216
400110 Pb ch=6 v=9088
400120 Pb ch=6 v=8832
400130 Pb ch=6 v=8704
400140 Pb ch=6 v=8448
400150 Pb ch=6 v=8192
400220 Off ch=6 n=70 v=80
400220 Off ch=6 n=61 v=80
400560 On ch=6 n=68 v=80
400560 On ch=6 n=60 v=80
401060 Off ch=6 n=68 v=80
401060 Off ch=6 n=60 v=80
401280 On ch=6 n=72 v=80
401280 On ch=6 n=63 v=80
404150 Off ch=6 n=72 v=80
404150 Off ch=6 n=63 v=80
404160 Pb ch=6 v=9557
404160 On ch=6 n=70 v=80
404160 On ch=6 n=61 v=80
404350 Pb ch=6 v=9344
404360 Pb ch=6 v=9216
404380 Pb ch=6 v=9088
404390 Pb ch=6 v=8960
404400 Pb ch=6 v=8832
404420 Pb ch=6 v=8704
404430 Pb ch=6 v=8576
404450 Pb ch=6 v=8448
404460 Pb ch=6 v=8320
404470 Pb ch=6 v=8192
405590 Off ch=6 n=70 v=80
405590 Off ch=6 n=61 v=80
405600 Par ch=6 c=11 v=120
407040 On ch=6 n=70 v=80
407040 On ch=6 n=65 v=80
407040 On ch=6 n=61 v=80
407040 On ch=6 n=56 v=80
407040 On ch=6 n=51 v=80
407040 On ch=6 n=46 v=80
408470 Off ch=6 n=70 v=80
408470 Off ch=6 n=65 v=80
408470 Off ch=6 n=61 v=80
408470 Off ch=6 n=56 v=80
408470 Off ch=6 n=51 v=80
408470 Off ch=6 n=46 v=80
409920 On ch=6 n=77 v=80
409920 On ch=6 n=70 v=80
409920 On ch=6 n=66 v=80
409920 On ch=6 n=61 v=80
411350 Off ch=6 n=77 v=80
411350 Off ch=6 n=70 v=80
411350 Off ch=6 n=66 v=80
411350 Off ch=6 n=61 v=80
411360 Par ch=6 c=11 v=80
411360 On ch=6 n=70 v=80
411360 On ch=6 n=67 v=80
411360 On ch=6 n=63 v=80
411360 On ch=6 n=58 v=80
411360 On ch=6 n=51 v=80
414230 Off ch=6 n=70 v=80
414230 Off ch=6 n=67 v=80
414230 Off ch=6 n=63 v=80
414230 Off ch=6 n=58 v=80
414230 Off ch=6 n=51 v=80
414240 On ch=6 n=73 v=80
414240 On ch=6 n=68 v=80
414240 On ch=6 n=65 v=80
414240 On ch=6 n=61 v=80
417110 Off ch=6 n=73 v=80
417110 Off ch=6 n=68 v=80
417110 Off ch=6 n=65 v=80
417110 Off ch=6 n=61 v=80
417120 On ch=6 n=72 v=80
417120 On ch=6 n=68 v=80
417120 On ch=6 n=63 v=80
417120 On ch=6 n=60 v=80
419990 Par ch=6 c=98 v=32
419990 Par ch=6 c=99 v=1
419990 Par ch=6 c=6 v=55
419990 Par ch=6 c=98 v=99
419990 Par ch=6 c=99 v=1
419990 Par ch=6 c=6 v=76
419990 Off ch=6 n=72 v=80
419990 Off ch=6 n=68 v=80
419990 Off ch=6 n=63 v=80
419990 Off ch=6 n=60 v=80
420000 On ch=6 n=73 v=90
420000 On ch=6 n=65 v=90
420710 Off ch=6 n=73 v=90
420710 Off ch=6 n=65 v=90
420720 On ch=6 n=72 v=90
420720 On ch=6 n=63 v=90
421430 Off ch=6 n=72 v=90
421430 Off ch=6 n=63 v=90
421440 On ch=6 n=68 v=90
421440 On ch=6 n=60 v=90
422870 Off ch=6 n=68 v=90
422870 Off ch=6 n=60 v=90
449750 Par ch=6 c=10 v=108
449750 Par ch=6 c=0 v=0
449750 Par ch=6 c=32 v=0
449750 PrCh ch=6 p=62
449760 On ch=6 n=70 v=111
449880 Off ch=6 n=70 v=111
449880 On ch=6 n=71 v=111
450000 Off ch=6 n=71 v=111
450120 On ch=6 n=70 v=111
450240 Off ch=6 n=70 v=111
450360 On ch=6 n=68 v=111
450480 Off ch=6 n=68 v=111
450480 On ch=6 n=70 v=111
450600 Off ch=6 n=70 v=111
450720 On ch=6 n=63 v=111
450840 Off ch=6 n=63 v=111
450960 On ch=6 n=75 v=111
451080 Off ch=6 n=75 v=111
451080 On ch=6 n=76 v=111
451200 Off ch=6 n=76 v=111
451320 On ch=6 n=75 v=111
451440 Off ch=6 n=75 v=111
451560 On ch=6 n=73 v=111
451680 Off ch=6 n=73 v=111
451680 On ch=6 n=75 v=111
451800 Off ch=6 n=75 v=111
451920 On ch=6 n=68 v=111
452040 Off ch=6 n=68 v=111
452160 On ch=6 n=70 v=111
452280 Off ch=6 n=70 v=111
452280 On ch=6 n=71 v=111
452400 Off ch=6 n=71 v=111
452520 On ch=6 n=70 v=111
452640 Off ch=6 n=70 v=111
452760 On ch=6 n=68 v=111
452880 Off ch=6 n=68 v=111
452880 On ch=6 n=70 v=111
453000 Off ch=6 n=70 v=111
453120 On ch=6 n=63 v=111
453240 Off ch=6 n=63 v=111
453360 On ch=6 n=75 v=111
453480 Off ch=6 n=75 v=111
453480 On ch=6 n=76 v=111
453600 Off ch=6 n=76 v=111
453720 On ch=6 n=75 v=111
453840 Off ch=6 n=75 v=111
453960 On ch=6 n=73 v=111
454080 Off ch=6 n=73 v=111
454080 On ch=6 n=75 v=111
454200 Off ch=6 n=75 v=111
454320 On ch=6 n=68 v=111
454440 Off ch=6 n=68 v=111
471110 Par ch=6 c=0 v=0
471110 Par ch=6 c=32 v=0
480940 Par ch=6 c=11 v=90
480960 Pb ch=6 v=8192
502060 Par ch=6 c=11 v=90
502080 Pb ch=6 v=8192
528940 Par ch=6 c=11 v=90
528960 Pb ch=6 v=8192
561600 Par ch=6 c=99 v=1
561600 Par ch=6 c=98 v=99
561600 Par ch=6 c=6 v=51
561600 Par ch=6 c=38 v=0
561830 Par ch=6 c=93 v=26
561830 Par ch=6 c=0 v=0
561830 Par ch=6 c=32 v=0
561830 PrCh ch=6 p=50
561840 Par ch=6 c=7 v=94
561840 On ch=6 n=58 v=111
561840 On ch=6 n=51 v=111
561840 On ch=6 n=55 v=111
562310 Par ch=6 c=93 v=26
563760 Off ch=6 n=55 v=111
563760 On ch=6 n=54 v=111
565680 Off ch=6 n=54 v=111
565680 Off ch=6 n=58 v=111
565680 Off ch=6 n=51 v=111
566400 On ch=6 n=61 v=115
566400 On ch=6 n=53 v=119
566400 On ch=6 n=58 v=111
568560 Off ch=6 n=61 v=115
568560 Off ch=6 n=53 v=119
568560 Off ch=6 n=58 v=111
568560 On ch=6 n=61 v=111
568560 On ch=6 n=54 v=111
568560 On ch=6 n=58 v=111
570480 Off ch=6 n=61 v=111
570480 Off ch=6 n=54 v=111
570480 Off ch=6 n=58 v=111
570480 On ch=6 n=63 v=111
570480 On ch=6 n=60 v=111
570480 On ch=6 n=56 v=111
572400 Off ch=6 n=63 v=111
572400 Off ch=6 n=60 v=111
572400 Off ch=6 n=56 v=111
580550 Par ch=6 c=10 v=90
580550 Par ch=6 c=0 v=0
580550 Par ch=6 c=32 v=0
580560 On ch=6 n=58 v=111
580560 On ch=6 n=51 v=111
580560 On ch=6 n=55 v=111
582480 Off ch=6 n=55 v=111
582480 On ch=6 n=54 v=111
584400 Off ch=6 n=54 v=111
584400 Off ch=6 n=58 v=111
584400 Off ch=6 n=51 v=111
585120 On ch=6 n=61 v=95
585120 On ch=6 n=53 v=108
585120 On ch=6 n=58 v=111
587280 Off ch=6 n=61 v=95
587280 Off ch=6 n=53 v=108
587280 Off ch=6 n=58 v=111
587280 On ch=6 n=61 v=111
587280 On ch=6 n=54 v=111
587280 On ch=6 n=58 v=111
589200 Off ch=6 n=61 v=111
589200 Off ch=6 n=54 v=111
589200 Off ch=6 n=58 v=111
589200 On ch=6 n=60 v=111
589200 On ch=6 n=56 v=111
589205 On ch=6 n=63 v=111
591120 Off ch=6 n=63 v=111
591120 Off ch=6 n=60 v=111
591120 Off ch=6 n=56 v=111
599750 Par ch=6 c=0 v=0
599750 Par ch=6 c=32 v=0
599750 PrCh ch=6 p=16
612230 Par ch=6 c=91 v=108
612230 Par ch=6 c=93 v=45
612230 Par ch=6 c=0 v=8
612230 Par ch=6 c=32 v=0
612230 PrCh ch=6 p=17
625200 KeySig 1 major
625420 Par ch=6 c=11 v=90
625440 Pb ch=6 v=8192
630960 KeySig 0 major
630960 On ch=6 n=73 v=111
631170 Off ch=6 n=73 v=111
631190 Par ch=6 c=93 v=26
631200 On ch=6 n=70 v=111
631410 Off ch=6 n=70 v=111
631430 Par ch=6 c=91 v=115
631440 On ch=6 n=66 v=111
631650 Off ch=6 n=66 v=111
631680 On ch=6 n=75 v=111
631890 Off ch=6 n=75 v=111
631920 On ch=6 n=72 v=111
632130 Off ch=6 n=72 v=111
632160 On ch=6 n=68 v=111
632370 Off ch=6 n=68 v=111
632400 On ch=6 n=70 v=111
632630 Off ch=6 n=70 v=111
632640 On ch=6 n=66 v=111
632870 Off ch=6 n=66 v=111
632880 On ch=6 n=63 v=111
633110 Off ch=6 n=63 v=111
633120 On ch=6 n=72 v=111
633330 Off ch=6 n=72 v=111
633360 On ch=6 n=68 v=111
633590 Off ch=6 n=68 v=111
633600 On ch=6 n=65 v=111
633830 Off ch=6 n=65 v=111
633840 On ch=6 n=70 v=111
634070 Off ch=6 n=70 v=111
634080 On ch=6 n=66 v=111
634310 Off ch=6 n=66 v=111
634320 On ch=6 n=63 v=111
634550 Off ch=6 n=63 v=111
634560 On ch=6 n=60 v=111
634790 Off ch=6 n=60 v=111
634800 On ch=6 n=58 v=111
635270 Off ch=6 n=58 v=111
635280 On ch=6 n=73 v=111
635490 Off ch=6 n=73 v=111
635520 On ch=6 n=70 v=111
635730 Off ch=6 n=70 v=111
635760 On ch=6 n=66 v=111
635970 Off ch=6 n=66 v=111
636000 On ch=6 n=75 v=111
636210 Off ch=6 n=75 v=111
636240 On ch=6 n=72 v=111
636450 Off ch=6 n=72 v=111
636480 On ch=6 n=68 v=111
636690 Off ch=6 n=68 v=111
636720 On ch=6 n=70 v=111
636950 Off ch=6 n=70 v=111
636960 On ch=6 n=66 v=111
637190 Off ch=6 n=66 v=111
637200 On ch=6 n=63 v=111
637430 Off ch=6 n=63 v=111
637440 On ch=6 n=72 v=111
637650 Off ch=6 n=72 v=111
637680 On ch=6 n=68 v=111
637910 Off ch=6 n=68 v=111
637920 On ch=6 n=65 v=111
638150 Off ch=6 n=65 v=111
638160 On ch=6 n=70 v=111
638390 Off ch=6 n=70 v=111
638400 On ch=6 n=66 v=111
638630 Off ch=6 n=66 v=111
638640 On ch=6 n=63 v=111
638870 Off ch=6 n=63 v=111
638880 On ch=6 n=60 v=111
639110 Off ch=6 n=60 v=111
639120 On ch=6 n=58 v=111
639590 Off ch=6 n=58 v=111
639600 On ch=6 n=73 v=115
639840 Off ch=6 n=73 v=115
639840 On ch=6 n=70 v=115
640080 Off ch=6 n=70 v=115
640080 On ch=6 n=66 v=115
640320 Off ch=6 n=66 v=115
640320 On ch=6 n=75 v=115
640560 Off ch=6 n=75 v=115
640560 On ch=6 n=72 v=115
640800 Off ch=6 n=72 v=115
640800 On ch=6 n=68 v=115
641040 Off ch=6 n=68 v=115
641040 On ch=6 n=70 v=115
641280 Off ch=6 n=70 v=115
641280 On ch=6 n=66 v=115
641520 Off ch=6 n=66 v=115
641520 On ch=6 n=63 v=115
641760 Off ch=6 n=63 v=115
641760 On ch=6 n=72 v=115
642000 Off ch=6 n=72 v=115
642000 On ch=6 n=68 v=115
642240 Off ch=6 n=68 v=115
642240 On ch=6 n=65 v=115
642480 Off ch=6 n=65 v=115
642480 On ch=6 n=70 v=115
642720 Off ch=6 n=70 v=115
642720 On ch=6 n=66 v=115
642960 Off ch=6 n=66 v=115
642960 On ch=6 n=63 v=115
643200 Off ch=6 n=63 v=115
643200 On ch=6 n=60 v=115
643440 Off ch=6 n=60 v=115
650630 Par ch=6 c=10 v=108
650630 Par ch=6 c=0 v=0
650630 Par ch=6 c=32 v=0
650630 PrCh ch=6 p=62
656390 Par ch=6 c=91 v=121
656390 Par ch=6 c=93 v=51
656390 Par ch=6 c=0 v=8
656390 Par ch=6 c=32 v=0
656390 PrCh ch=6 p=63
656870 Par ch=6 c=91 v=121
656870 Par ch=6 c=93 v=51
656880 On ch=6 n=54 v=125
657840 Off ch=6 n=54 v=125
657840 On ch=6 n=57 v=120
658800 Off ch=6 n=57 v=120
658800 On ch=6 n=54 v=126
659280 Off ch=6 n=54 v=126
659280 On ch=6 n=55 v=120
659760 Off ch=6 n=55 v=120
659760 On ch=6 n=57 v=120
660240 Off ch=6 n=57 v=120
660240 On ch=6 n=62 v=120
660720 Off ch=6 n=62 v=120
660720 On ch=6 n=64 v=120
661200 Off ch=6 n=64 v=120
661200 On ch=6 n=71 v=117
661680 Off ch=6 n=71 v=117
661680 On ch=6 n=69 v=120
662160 Off ch=6 n=69 v=120
662160 On ch=6 n=67 v=118
662400 Off ch=6 n=67 v=118
662400 On ch=6 n=66 v=111
662640 Off ch=6 n=66 v=111
662640 On ch=6 n=62 v=111
665040 Off ch=6 n=62 v=111
665040 On ch=6 n=67 v=111
665280 Off ch=6 n=67 v=111
665280 On ch=6 n=66 v=111
665520 Off ch=6 n=66 v=111
665520 On ch=6 n=74 v=111
667920 Off ch=6 n=74 v=111
674160 On ch=6 n=54 v=125
675120 Off ch=6 n=54 v=125
675120 On ch=6 n=57 v=111
676080 Off ch=6 n=57 v=111
676080 On ch=6 n=54 v=111
676560 Off ch=6 n=54 v=111
676560 On ch=6 n=55 v=111
677040 Off ch=6 n=55 v=111
677040 On ch=6 n=57 v=111
677520 Off ch=6 n=57 v=111
677520 On ch=6 n=62 v=111
678000 Off ch=6 n=62 v=111
678000 On ch=6 n=64 v=111
678480 Off ch=6 n=64 v=111
678480 On ch=6 n=71 v=111
678960 Off ch=6 n=71 v=111
678960 On ch=6 n=69 v=111
679440 Off ch=6 n=69 v=111
679440 On ch=6 n=67 v=111
679680 Off ch=6 n=67 v=111
679680 On ch=6 n=66 v=111
679920 Off ch=6 n=66 v=111
679920 On ch=6 n=62 v=111
682320 Off ch=6 n=62 v=111
682320 On ch=6 n=67 v=111
682560 Off ch=6 n=67 v=111
682560 On ch=6 n=66 v=111
682800 Off ch=6 n=66 v=111
682800 On ch=6 n=74 v=111
685200 Off ch=6 n=74 v=111
685200 On ch=6 n=64 v=114
685670 Off ch=6 n=64 v=114
685680 On ch=6 n=62 v=114
686150 Off ch=6 n=62 v=114
686160 On ch=6 n=55 v=114
686630 Off ch=6 n=55 v=114
686640 On ch=6 n=52 v=114
687110 Off ch=6 n=52 v=114
687120 On ch=6 n=55 v=114
687590 Off ch=6 n=55 v=114
687600 On ch=6 n=59 v=114
688070 Off ch=6 n=59 v=114
688080 On ch=6 n=60 v=114
688550 Off ch=6 n=60 v=114
688560 On ch=6 n=62 v=114
689030 Off ch=6 n=62 v=114
689040 On ch=6 n=64 v=114
689510 Off ch=6 n=64 v=114
689520 On ch=6 n=67 v=114
689990 Off ch=6 n=67 v=114
690000 On ch=6 n=69 v=114
690470 Off ch=6 n=69 v=114
690480 On ch=6 n=71 v=114
690950 Off ch=6 n=71 v=114
690960 On ch=6 n=69 v=113
691110 On ch=6 n=71 v=109
691120 Off ch=6 n=69 v=113
691240 Off ch=6 n=71 v=109
691280 On ch=6 n=69 v=113
691440 Off ch=6 n=69 v=113
691440 On ch=6 n=66 v=113
693070 Off ch=6 n=66 v=113
693120 On ch=6 n=66 v=113
693340 Off ch=6 n=66 v=113
693360 On ch=6 n=67 v=113
693580 Off ch=6 n=67 v=113
693600 On ch=6 n=69 v=113
693820 Off ch=6 n=69 v=113
693840 On ch=6 n=67 v=112
693990 Off ch=6 n=67 v=112
694010 On ch=6 n=69 v=111
694160 Off ch=6 n=69 v=111
694160 On ch=6 n=67 v=114
694290 Off ch=6 n=67 v=114
694320 On ch=6 n=64 v=114
695210 Off ch=6 n=64 v=114
695280 On ch=6 n=64 v=114
695730 Off ch=6 n=64 v=114
695760 On ch=6 n=67 v=114
696210 Off ch=6 n=67 v=114
696240 On ch=6 n=71 v=114
696690 Off ch=6 n=71 v=114
696720 On ch=6 n=79 v=112
696940 Off ch=6 n=79 v=112
696960 On ch=6 n=78 v=112
697180 Off ch=6 n=78 v=112
697200 On ch=6 n=74 v=112
699050 Off ch=6 n=74 v=112
699120 On ch=6 n=81 v=112
699570 Off ch=6 n=81 v=112
699600 On ch=6 n=86 v=112
702480 Off ch=6 n=86 v=112
712550 Par ch=6 c=10 v=108
712550 Par ch=6 c=0 v=0
712550 Par ch=6 c=32 v=0
712550 PrCh ch=6 p=62
712560 KeySig 2 major
722160 Meta TrkEnd
TrkEnd
MTrk
0 Meta TrkName "Space Voice"
0 Meta 0x20 06
0 Meta InstrName "Space Voice"
0 KeySig 0 major
645 Par ch=7 c=0 v=0
650 Par ch=7 c=32 v=0
655 PrCh ch=7 p=91
660 Par ch=7 c=7 v=100
665 Par ch=7 c=10 v=64
670 Par ch=7 c=91 v=40
675 Par ch=7 c=93 v=0
680 Par ch=7 c=101 v=0
680 Par ch=7 c=100 v=0
680 Par ch=7 c=6 v=2
685 Par ch=7 c=99 v=1
685 Par ch=7 c=98 v=8
685 Par ch=7 c=6 v=64
690 Par ch=7 c=99 v=1
690 Par ch=7 c=98 v=9
690 Par ch=7 c=6 v=64
695 Par ch=7 c=99 v=1
695 Par ch=7 c=98 v=10
695 Par ch=7 c=6 v=64
700 Par ch=7 c=99 v=1
700 Par ch=7 c=98 v=32
700 Par ch=7 c=6 v=64
705 Par ch=7 c=99 v=1
705 Par ch=7 c=98 v=33
705 Par ch=7 c=6 v=64
710 Par ch=7 c=99 v=1
710 Par ch=7 c=98 v=99
710 Par ch=7 c=6 v=64
715 Par ch=7 c=99 v=1
715 Par ch=7 c=98 v=100
715 Par ch=7 c=6 v=64
720 Par ch=7 c=99 v=1
720 Par ch=7 c=98 v=102
720 Par ch=7 c=6 v=64
48120 Par ch=7 c=7 v=35
48230 Par ch=7 c=1 v=20
48245 On ch=7 n=63 v=80
48245 On ch=7 n=68 v=80
48245 On ch=7 n=73 v=80
48310 Par ch=7 c=11 v=64
48560 Par ch=7 c=11 v=68
48820 Par ch=7 c=11 v=72
49070 Par ch=7 c=11 v=76
49330 Par ch=7 c=11 v=80
49590 Par ch=7 c=11 v=84
49840 Par ch=7 c=11 v=88
50090 Par ch=7 c=11 v=90
50155 Off ch=7 n=63 v=80
50155 Off ch=7 n=68 v=80
50155 Off ch=7 n=73 v=80
50160 Par ch=7 c=11 v=60
50160 On ch=7 n=73 v=80
50160 On ch=7 n=68 v=80
50160 On ch=7 n=64 v=80
50410 Par ch=7 c=11 v=62
50670 Par ch=7 c=11 v=64
50920 Par ch=7 c=11 v=66
51180 Par ch=7 c=11 v=68
51430 Par ch=7 c=11 v=70
51690 Par ch=7 c=11 v=72
51940 Par ch=7 c=11 v=74
52080 Par ch=7 c=11 v=76
52210 Par ch=7 c=11 v=78
52460 Par ch=7 c=11 v=80
52720 Par ch=7 c=11 v=82
52970 Par ch=7 c=11 v=84
53230 Par ch=7 c=11 v=86
53480 Par ch=7 c=11 v=88
53740 Par ch=7 c=11 v=90
53990 Off ch=7 n=73 v=80
53990 Off ch=7 n=68 v=80
53990 Off ch=7 n=64 v=80
54000 Par ch=7 c=11 v=60
54000 On ch=7 n=70 v=80
54000 On ch=7 n=68 v=80
54000 On ch=7 n=65 v=80
54250 Par ch=7 c=11 v=62
54510 Par ch=7 c=11 v=64
54760 Par ch=7 c=11 v=66
55020 Par ch=7 c=11 v=68
55270 Par ch=7 c=11 v=70
55530 Par ch=7 c=11 v=72
55780 Par ch=7 c=11 v=74
55920 Par ch=7 c=11 v=76
56050 Par ch=7 c=11 v=78
56300 Par ch=7 c=11 v=80
56560 Par ch=7 c=11 v=82
56810 Par ch=7 c=11 v=84
57070 Par ch=7 c=11 v=86
57320 Par ch=7 c=11 v=88
57580 Par ch=7 c=11 v=90
57830 Off ch=7 n=70 v=80
57830 Off ch=7 n=68 v=80
57830 Off ch=7 n=65 v=80
57840 Par ch=7 c=11 v=60
57840 On ch=7 n=75 v=80
57840 On ch=7 n=71 v=80
57840 On ch=7 n=66 v=80
58090 Par ch=7 c=11 v=62
58350 Par ch=7 c=11 v=64
58600 Par ch=7 c=11 v=66
58860 Par ch=7 c=11 v=68
59110 Par ch=7 c=11 v=70
59370 Par ch=7 c=11 v=72
59620 Par ch=7 c=11 v=74
59760 Par ch=7 c=11 v=76
59890 Par ch=7 c=11 v=78
60140 Par ch=7 c=11 v=80
60400 Par ch=7 c=11 v=82
60650 Par ch=7 c=11 v=84
60910 Par ch=7 c=11 v=86
61160 Par ch=7 c=11 v=88
61420 Par ch=7 c=11 v=90
61670 Off ch=7 n=75 v=80
61670 Off ch=7 n=71 v=80
61670 Off ch=7 n=66 v=80
61680 Par ch=7 c=11 v=60
61680 On ch=7 n=73 v=80
61680 On ch=7 n=70 v=80
61680 On ch=7 n=66 v=80
61930 Par ch=7 c=11 v=62
62190 Par ch=7 c=11 v=64
62440 Par ch=7 c=11 v=66
62700 Par ch=7 c=11 v=68
62950 Par ch=7 c=11 v=70
63210 Par ch=7 c=11 v=72
63460 Par ch=7 c=11 v=74
63600 Par ch=7 c=11 v=76
63730 Par ch=7 c=11 v=78
63980 Par ch=7 c=11 v=80
64240 Par ch=7 c=11 v=82
64490 Par ch=7 c=11 v=84
64750 Par ch=7 c=11 v=86
65000 Par ch=7 c=11 v=88
65260 Par ch=7 c=11 v=90
65510 Off ch=7 n=73 v=80
65510 Off ch=7 n=70 v=80
65510 Off ch=7 n=66 v=80
65520 Par ch=7 c=11 v=60
65520 On ch=7 n=73 v=80
65520 On ch=7 n=68 v=80
65520 On ch=7 n=63 v=80
65770 Par ch=7 c=11 v=62
66030 Par ch=7 c=11 v=64
66280 Par ch=7 c=11 v=66
66540 Par ch=7 c=11 v=68
66790 Par ch=7 c=11 v=70
67050 Par ch=7 c=11 v=72
67300 Par ch=7 c=11 v=74
67440 Par ch=7 c=11 v=76
67570 Par ch=7 c=11 v=78
67820 Par ch=7 c=11 v=80
68080 Par ch=7 c=11 v=82
68330 Par ch=7 c=11 v=84
68590 Par ch=7 c=11 v=86
68840 Par ch=7 c=11 v=88
69100 Par ch=7 c=11 v=90
69350 Off ch=7 n=73 v=80
69350 Off ch=7 n=68 v=80
69350 Off ch=7 n=63 v=80
69360 Par ch=7 c=11 v=60
69360 On ch=7 n=73 v=80
69360 On ch=7 n=68 v=80
69360 On ch=7 n=64 v=80
69610 Par ch=7 c=11 v=62
69870 Par ch=7 c=11 v=64
70120 Par ch=7 c=11 v=66
70380 Par ch=7 c=11 v=68
70630 Par ch=7 c=11 v=70
70890 Par ch=7 c=11 v=72
71140 Par ch=7 c=11 v=74
71280 Par ch=7 c=11 v=76
71410 Par ch=7 c=11 v=78
71660 Par ch=7 c=11 v=80
71920 Par ch=7 c=11 v=82
72170 Par ch=7 c=11 v=84
72430 Par ch=7 c=11 v=86
72680 Par ch=7 c=11 v=88
72940 Par ch=7 c=11 v=90
73190 Off ch=7 n=73 v=80
73190 Off ch=7 n=68 v=80
73190 Off ch=7 n=64 v=80
73200 Par ch=7 c=11 v=60
73200 On ch=7 n=70 v=80
73200 On ch=7 n=68 v=80
73200 On ch=7 n=65 v=80
73450 Par ch=7 c=11 v=62
73710 Par ch=7 c=11 v=64
73960 Par ch=7 c=11 v=66
74220 Par ch=7 c=11 v=68
74470 Par ch=7 c=11 v=70
74730 Par ch=7 c=11 v=72
74980 Par ch=7 c=11 v=74
75120 Par ch=7 c=11 v=76
75250 Par ch=7 c=11 v=78
75500 Par ch=7 c=11 v=80
75760 Par ch=7 c=11 v=82
76010 Par ch=7 c=11 v=84
76270 Par ch=7 c=11 v=86
76520 Par ch=7 c=11 v=88
76780 Par ch=7 c=11 v=90
77030 Off ch=7 n=70 v=80
77030 Off ch=7 n=68 v=80
77030 Off ch=7 n=65 v=80
77040 Par ch=7 c=11 v=60
77040 On ch=7 n=75 v=80
77040 On ch=7 n=71 v=80
77040 On ch=7 n=66 v=80
77290 Par ch=7 c=11 v=62
77550 Par ch=7 c=11 v=64
77800 Par ch=7 c=11 v=66
78060 Par ch=7 c=11 v=68
78310 Par ch=7 c=11 v=70
78570 Par ch=7 c=11 v=72
78820 Par ch=7 c=11 v=74
78960 Par ch=7 c=11 v=76
79090 Par ch=7 c=11 v=78
79340 Par ch=7 c=11 v=80
79600 Par ch=7 c=11 v=82
79850 Par ch=7 c=11 v=84
80110 Par ch=7 c=11 v=86
80360 Par ch=7 c=11 v=88
80620 Par ch=7 c=11 v=90
80870 Off ch=7 n=75 v=80
80870 Off ch=7 n=71 v=80
80870 Off ch=7 n=66 v=80
80880 Par ch=7 c=11 v=60
80880 On ch=7 n=73 v=80
80880 On ch=7 n=70 v=80
80880 On ch=7 n=66 v=80
81130 Par ch=7 c=11 v=62
81390 Par ch=7 c=11 v=64
81640 Par ch=7 c=11 v=66
81900 Par ch=7 c=11 v=68
82150 Par ch=7 c=11 v=70
82410 Par ch=7 c=11 v=72
82660 Par ch=7 c=11 v=74
82800 Par ch=7 c=11 v=76
82930 Par ch=7 c=11 v=78
83180 Par ch=7 c=11 v=80
83440 Par ch=7 c=11 v=82
83690 Par ch=7 c=11 v=84
83950 Par ch=7 c=11 v=86
84200 Par ch=7 c=11 v=88
84460 Par ch=7 c=11 v=90
84710 Off ch=7 n=73 v=80
84710 Off ch=7 n=70 v=80
84710 Off ch=7 n=66 v=80
84720 Par ch=7 c=11 v=60
84720 On ch=7 n=73 v=80
84720 On ch=7 n=68 v=80
84720 On ch=7 n=63 v=80
84970 Par ch=7 c=11 v=62
85230 Par ch=7 c=11 v=64
85480 Par ch=7 c=11 v=66
85740 Par ch=7 c=11 v=68
85990 Par ch=7 c=11 v=70
86250 Par ch=7 c=11 v=72
86500 Par ch=7 c=11 v=74
86640 Par ch=7 c=11 v=76
86770 Par ch=7 c=11 v=78
87020 Par ch=7 c=11 v=80
87280 Par ch=7 c=11 v=82
87530 Par ch=7 c=11 v=84
87790 Par ch=7 c=11 v=86
88040 Par ch=7 c=11 v=88
88300 Par ch=7 c=11 v=90
88550 Off ch=7 n=73 v=80
88550 Off ch=7 n=68 v=80
88550 Off ch=7 n=63 v=80
88560 Par ch=7 c=11 v=60
88560 On ch=7 n=73 v=80
88560 On ch=7 n=68 v=80
88560 On ch=7 n=64 v=80
88810 Par ch=7 c=11 v=62
89070 Par ch=7 c=11 v=64
89320 Par ch=7 c=11 v=66
89580 Par ch=7 c=11 v=68
89830 Par ch=7 c=11 v=70
90090 Par ch=7 c=11 v=72
90340 Par ch=7 c=11 v=74
90480 Par ch=7 c=11 v=76
90610 Par ch=7 c=11 v=78
90860 Par ch=7 c=11 v=80
91120 Par ch=7 c=11 v=82
91370 Par ch=7 c=11 v=84
91630 Par ch=7 c=11 v=86
91880 Par ch=7 c=11 v=88
92140 Par ch=7 c=11 v=90
92390 Off ch=7 n=73 v=80
92390 Off ch=7 n=68 v=80
92390 Off ch=7 n=64 v=80
92400 Par ch=7 c=11 v=60
92400 On ch=7 n=70 v=80
92400 On ch=7 n=68 v=80
92400 On ch=7 n=65 v=80
92650 Par ch=7 c=11 v=62
92910 Par ch=7 c=11 v=64
93160 Par ch=7 c=11 v=66
93420 Par ch=7 c=11 v=68
93670 Par ch=7 c=11 v=70
93930 Par ch=7 c=11 v=72
94180 Par ch=7 c=11 v=74
94320 Par ch=7 c=11 v=76
94450 Par ch=7 c=11 v=78
94700 Par ch=7 c=11 v=80
94960 Par ch=7 c=11 v=82
95210 Par ch=7 c=11 v=84
95470 Par ch=7 c=11 v=86
95720 Par ch=7 c=11 v=88
95980 Par ch=7 c=11 v=90
96230 Off ch=7 n=70 v=80
96230 Off ch=7 n=68 v=80
96230 Off ch=7 n=65 v=80
96240 Par ch=7 c=11 v=60
96240 On ch=7 n=75 v=80
96240 On ch=7 n=71 v=80
96240 On ch=7 n=68 v=80
96240 On ch=7 n=66 v=80
96490 Par ch=7 c=11 v=62
96750 Par ch=7 c=11 v=64
97000 Par ch=7 c=11 v=66
97260 Par ch=7 c=11 v=68
97510 Par ch=7 c=11 v=70
97770 Par ch=7 c=11 v=72
98020 Par ch=7 c=11 v=74
98160 Par ch=7 c=11 v=76
98290 Par ch=7 c=11 v=78
98540 Par ch=7 c=11 v=80
98800 Par ch=7 c=11 v=82
99050 Par ch=7 c=11 v=84
99310 Par ch=7 c=11 v=86
99560 Par ch=7 c=11 v=88
99820 Par ch=7 c=11 v=90
100070 Off ch=7 n=75 v=80
100070 Off ch=7 n=71 v=80
100070 Off ch=7 n=68 v=80
100070 Off ch=7 n=66 v=80
100080 Par ch=7 c=11 v=60
100080 On ch=7 n=73 v=80
100080 On ch=7 n=70 v=80
100080 On ch=7 n=66 v=80
100330 Par ch=7 c=11 v=62
100590 Par ch=7 c=11 v=64
100840 Par ch=7 c=11 v=66
101100 Par ch=7 c=11 v=68
101350 Par ch=7 c=11 v=70
101610 Par ch=7 c=11 v=72
101860 Par ch=7 c=11 v=74
102000 Par ch=7 c=11 v=76
102130 Par ch=7 c=11 v=78
102380 Par ch=7 c=11 v=80
102640 Par ch=7 c=11 v=82
102890 Par ch=7 c=11 v=84
103150 Par ch=7 c=11 v=86
103400 Par ch=7 c=11 v=88
103660 Par ch=7 c=11 v=90
103910 Off ch=7 n=73 v=80
103910 Off ch=7 n=70 v=80
103910 Off ch=7 n=66 v=80
103920 Par ch=7 c=11 v=60
103920 On ch=7 n=73 v=80
103920 On ch=7 n=68 v=80
103920 On ch=7 n=63 v=80
104170 Par ch=7 c=11 v=62
104430 Par ch=7 c=11 v=64
104680 Par ch=7 c=11 v=66
104940 Par ch=7 c=11 v=68
105190 Par ch=7 c=11 v=70
105450 Par ch=7 c=11 v=72
105700 Par ch=7 c=11 v=74
105840 Par ch=7 c=11 v=76
105970 Par ch=7 c=11 v=78
106220 Par ch=7 c=11 v=80
106480 Par ch=7 c=11 v=82
106730 Par ch=7 c=11 v=84
106990 Par ch=7 c=11 v=86
107240 Par ch=7 c=11 v=88
107500 Par ch=7 c=11 v=90
107750 Off ch=7 n=73 v=80
107750 Off ch=7 n=68 v=80
107750 Off ch=7 n=63 v=80
107760 Par ch=7 c=11 v=60
107760 On ch=7 n=73 v=80
107760 On ch=7 n=68 v=80
107760 On ch=7 n=64 v=80
108010 Par ch=7 c=11 v=62
108270 Par ch=7 c=11 v=64
108520 Par ch=7 c=11 v=66
108780 Par ch=7 c=11 v=68
109030 Par ch=7 c=11 v=70
109290 Par ch=7 c=11 v=72
109540 Par ch=7 c=11 v=74
109680 Par ch=7 c=11 v=76
109810 Par ch=7 c=11 v=78
110060 Par ch=7 c=11 v=80
110320 Par ch=7 c=11 v=82
110570 Par ch=7 c=11 v=84
110830 Par ch=7 c=11 v=86
111080 Par ch=7 c=11 v=88
111340 Par ch=7 c=11 v=90
111590 Off ch=7 n=73 v=80
111590 Off ch=7 n=68 v=80
111590 Off ch=7 n=64 v=80
111600 Par ch=7 c=11 v=60
111600 On ch=7 n=70 v=80
111600 On ch=7 n=68 v=80
111600 On ch=7 n=65 v=80
111850 Par ch=7 c=11 v=62
112110 Par ch=7 c=11 v=64
112360 Par ch=7 c=11 v=66
112620 Par ch=7 c=11 v=68
112870 Par ch=7 c=11 v=70
113130 Par ch=7 c=11 v=72
113380 Par ch=7 c=11 v=74
113520 Par ch=7 c=11 v=76
113650 Par ch=7 c=11 v=78
113900 Par ch=7 c=11 v=80
114160 Par ch=7 c=11 v=82
114410 Par ch=7 c=11 v=84
114670 Par ch=7 c=11 v=86
114920 Par ch=7 c=11 v=88
115180 Par ch=7 c=11 v=90
115430 Off ch=7 n=70 v=80
115430 Off ch=7 n=68 v=80
115430 Off ch=7 n=65 v=80
115440 Par ch=7 c=11 v=60
115440 On ch=7 n=75 v=80
115440 On ch=7 n=71 v=80
115440 On ch=7 n=68 v=80
115440 On ch=7 n=66 v=80
115690 Par ch=7 c=11 v=62
115950 Par ch=7 c=11 v=64
116200 Par ch=7 c=11 v=66
116460 Par ch=7 c=11 v=68
116710 Par ch=7 c=11 v=70
116970 Par ch=7 c=11 v=72
117220 Par ch=7 c=11 v=74
117360 Par ch=7 c=11 v=76
117490 Par ch=7 c=11 v=78
117740 Par ch=7 c=11 v=80
118000 Par ch=7 c=11 v=82
118250 Par ch=7 c=11 v=84
118510 Par ch=7 c=11 v=86
118760 Par ch=7 c=11 v=88
119020 Par ch=7 c=11 v=90
119270 Off ch=7 n=75 v=80
119270 Off ch=7 n=71 v=80
119270 Off ch=7 n=68 v=80
119270 Off ch=7 n=66 v=80
119280 Par ch=7 c=11 v=60
119280 On ch=7 n=73 v=80
119280 On ch=7 n=70 v=80
119280 On ch=7 n=66 v=80
119530 Par ch=7 c=11 v=62
119790 Par ch=7 c=11 v=64
120040 Par ch=7 c=11 v=66
120300 Par ch=7 c=11 v=68
120550 Par ch=7 c=11 v=70
120810 Par ch=7 c=11 v=72
121060 Par ch=7 c=11 v=74
121200 Par ch=7 c=11 v=76
121330 Par ch=7 c=11 v=78
121580 Par ch=7 c=11 v=80
121840 Par ch=7 c=11 v=82
122090 Par ch=7 c=11 v=84
122350 Par ch=7 c=11 v=86
122600 Par ch=7 c=11 v=88
122860 Par ch=7 c=11 v=90
123110 Off ch=7 n=73 v=80
123110 Off ch=7 n=70 v=80
123110 Off ch=7 n=66 v=80
123120 Par ch=7 c=11 v=60
123120 On ch=7 n=73 v=80
123120 On ch=7 n=68 v=80
123120 On ch=7 n=63 v=80
123370 Par ch=7 c=11 v=62
123630 Par ch=7 c=11 v=64
123880 Par ch=7 c=11 v=66
124140 Par ch=7 c=11 v=68
124390 Par ch=7 c=11 v=70
124650 Par ch=7 c=11 v=72
124900 Par ch=7 c=11 v=74
125040 Par ch=7 c=11 v=76
125170 Par ch=7 c=11 v=78
125420 Par ch=7 c=11 v=80
125680 Par ch=7 c=11 v=82
125930 Par ch=7 c=11 v=84
126190 Par ch=7 c=11 v=86
126440 Par ch=7 c=11 v=88
126700 Par ch=7 c=11 v=90
126950 Off ch=7 n=73 v=80
126950 Off ch=7 n=68 v=80
126950 Off ch=7 n=63 v=80
126960 Par ch=7 c=11 v=60
126960 On ch=7 n=73 v=80
126960 On ch=7 n=68 v=80
126960 On ch=7 n=64 v=80
127210 Par ch=7 c=11 v=62
127470 Par ch=7 c=11 v=64
127720 Par ch=7 c=11 v=66
127980 Par ch=7 c=11 v=68
128230 Par ch=7 c=11 v=70
128490 Par ch=7 c=11 v=72
128740 Par ch=7 c=11 v=74
128880 Par ch=7 c=11 v=76
129010 Par ch=7 c=11 v=78
129260 Par ch=7 c=11 v=80
129520 Par ch=7 c=11 v=82
129770 Par ch=7 c=11 v=84
130030 Par ch=7 c=11 v=86
130280 Par ch=7 c=11 v=88
130540 Par ch=7 c=11 v=90
130790 Off ch=7 n=73 v=80
130790 Off ch=7 n=68 v=80
130790 Off ch=7 n=64 v=80
130800 Par ch=7 c=11 v=60
130800 On ch=7 n=70 v=80
130800 On ch=7 n=68 v=80
130800 On ch=7 n=65 v=80
131050 Par ch=7 c=11 v=62
131310 Par ch=7 c=11 v=64
131560 Par ch=7 c=11 v=66
131820 Par ch=7 c=11 v=68
132070 Par ch=7 c=11 v=70
132330 Par ch=7 c=11 v=72
132580 Par ch=7 c=11 v=74
132720 Par ch=7 c=11 v=76
132850 Par ch=7 c=11 v=78
133100 Par ch=7 c=11 v=80
133360 Par ch=7 c=11 v=82
133610 Par ch=7 c=11 v=84
133870 Par ch=7 c=11 v=86
134120 Par ch=7 c=11 v=88
134380 Par ch=7 c=11 v=90
134630 Off ch=7 n=70 v=80
134630 Off ch=7 n=68 v=80
134630 Off ch=7 n=65 v=80
134640 Par ch=7 c=11 v=60
134640 On ch=7 n=75 v=80
134640 On ch=7 n=71 v=80
134640 On ch=7 n=68 v=80
134640 On ch=7 n=66 v=80
134890 Par ch=7 c=11 v=62
135150 Par ch=7 c=11 v=64
135400 Par ch=7 c=11 v=66
135660 Par ch=7 c=11 v=68
135910 Par ch=7 c=11 v=70
136170 Par ch=7 c=11 v=72
136420 Par ch=7 c=11 v=74
136560 Par ch=7 c=11 v=76
136690 Par ch=7 c=11 v=78
136940 Par ch=7 c=11 v=80
137200 Par ch=7 c=11 v=82
137450 Par ch=7 c=11 v=84
137710 Par ch=7 c=11 v=86
137960 Par ch=7 c=11 v=88
138220 Par ch=7 c=11 v=90
138470 Off ch=7 n=75 v=80
138470 Off ch=7 n=71 v=80
138470 Off ch=7 n=68 v=80
138470 Off ch=7 n=66 v=80
138480 Par ch=7 c=11 v=60
138480 On ch=7 n=73 v=80
138480 On ch=7 n=70 v=80
138480 On ch=7 n=66 v=80
138730 Par ch=7 c=11 v=62
138990 Par ch=7 c=11 v=64
139240 Par ch=7 c=11 v=66
139500 Par ch=7 c=11 v=68
139750 Par ch=7 c=11 v=70
140010 Par ch=7 c=11 v=72
140260 Par ch=7 c=11 v=74
140400 Par ch=7 c=11 v=76
140530 Par ch=7 c=11 v=78
140780 Par ch=7 c=11 v=80
141040 Par ch=7 c=11 v=82
141290 Par ch=7 c=11 v=84
141550 Par ch=7 c=11 v=86
141800 Par ch=7 c=11 v=88
142060 Par ch=7 c=11 v=90
142310 Off ch=7 n=73 v=80
142310 Off ch=7 n=70 v=80
142310 Off ch=7 n=66 v=80
230400 Par ch=7 c=11 v=127
230410 Par ch=7 c=98 v=33
230420 Par ch=7 c=99 v=1
230430 Par ch=7 c=6 v=64
230440 Par ch=7 c=98 v=32
230450 Par ch=7 c=99 v=1
230460 Par ch=7 c=6 v=64
231820 Par ch=7 c=10 v=127
231830 PrCh ch=7 p=1
231840 On ch=7 n=63 v=70
232080 On ch=7 n=66 v=70
232320 On ch=7 n=68 v=70
232560 On ch=7 n=71 v=70
232740 Off ch=7 n=63 v=70
232980 Off ch=7 n=66 v=70
233220 Off ch=7 n=68 v=70
234710 Off ch=7 n=71 v=70
332040 Par ch=7 c=7 v=99
332070 Par ch=7 c=98 v=33
332080 Par ch=7 c=99 v=1
332090 Par ch=7 c=6 v=114
332100 Par ch=7 c=10 v=127
332110 Par ch=7 c=98 v=32
332120 Par ch=7 c=99 v=1
332130 Par ch=7 c=6 v=45
332140 PrCh ch=7 p=48
332150 Par ch=7 c=11 v=48
332160 On ch=7 n=66 v=90
332160 On ch=7 n=64 v=90
332160 On ch=7 n=71 v=90
333590 Off ch=7 n=66 v=90
333590 Off ch=7 n=64 v=90
333590 Off ch=7 n=71 v=90
333600 On ch=7 n=74 v=90
333600 On ch=7 n=69 v=90
333600 On ch=7 n=67 v=90
335030 Off ch=7 n=74 v=90
335030 Off ch=7 n=69 v=90
335030 Off ch=7 n=67 v=90
335040 On ch=7 n=78 v=90
335040 On ch=7 n=73 v=90
335040 On ch=7 n=71 v=90
336470 Off ch=7 n=78 v=90
336470 Off ch=7 n=73 v=90
336470 Off ch=7 n=71 v=90
336480 On ch=7 n=81 v=90
336480 On ch=7 n=76 v=90
336480 On ch=7 n=74 v=90
340790 Off ch=7 n=81 v=90
340790 Off ch=7 n=76 v=90
340790 Off ch=7 n=74 v=90
352320 Par ch=7 c=98 v=33
352330 Par ch=7 c=99 v=1
352340 Par ch=7 c=6 v=64
352350 Par ch=7 c=98 v=32
352360 Par ch=7 c=99 v=1
352370 Par ch=7 c=6 v=64
353760 Par ch=7 c=10 v=40
353770 PrCh ch=7 p=1
353790 Par ch=7 c=93 v=0
355200 On ch=7 n=46 v=90
355670 Off ch=7 n=46 v=90
355680 On ch=7 n=46 v=90
356150 Off ch=7 n=46 v=90
356160 On ch=7 n=46 v=90
356630 Off ch=7 n=46 v=90
356640 On ch=7 n=42 v=90
358060 Off ch=7 n=42 v=90
358080 On ch=7 n=42 v=90
358530 Off ch=7 n=42 v=90
358560 On ch=7 n=42 v=90
359010 Off ch=7 n=42 v=90
359040 On ch=7 n=42 v=90
359490 Off ch=7 n=42 v=90
359520 On ch=7 n=36 v=90
359970 Off ch=7 n=36 v=90
360000 On ch=7 n=36 v=90
362350 Off ch=7 n=36 v=90
362400 On ch=7 n=34 v=90
362850 Off ch=7 n=34 v=90
362880 On ch=7 n=34 v=90
365230 Off ch=7 n=34 v=90
365280 On ch=7 n=32 v=90
365280 On ch=7 n=44 v=90
366460 Off ch=7 n=44 v=90
366480 On ch=7 n=44 v=90
367630 Off ch=7 n=32 v=90
368160 On ch=7 n=32 v=90
371020 Off ch=7 n=44 v=90
371020 Off ch=7 n=32 v=90
372480 On ch=7 n=46 v=90
372950 Off ch=7 n=46 v=90
372960 On ch=7 n=46 v=90
373430 Off ch=7 n=46 v=90
373440 On ch=7 n=46 v=90
373910 Off ch=7 n=46 v=90
373920 On ch=7 n=42 v=90
375340 Off ch=7 n=42 v=90
375360 On ch=7 n=42 v=90
375810 Off ch=7 n=42 v=90
375840 On ch=7 n=42 v=90
376290 Off ch=7 n=42 v=90
376320 On ch=7 n=42 v=90
376770 Off ch=7 n=42 v=90
376800 On ch=7 n=36 v=90
377250 Off ch=7 n=36 v=90
377280 On ch=7 n=36 v=90
379630 Off ch=7 n=36 v=90
379680 On ch=7 n=34 v=90
380130 Off ch=7 n=34 v=90
380160 On ch=7 n=34 v=90
382510 Off ch=7 n=34 v=90
382560 On ch=7 n=44 v=90
382560 On ch=7 n=32 v=90
385420 Off ch=7 n=44 v=90
385420 Off ch=7 n=32 v=90
385440 On ch=7 n=44 v=90
385440 On ch=7 n=32 v=90
388300 Off ch=7 n=44 v=90
388300 Off ch=7 n=32 v=90
389760 On ch=7 n=51 v=100
391180 Off ch=7 n=51 v=100
392640 On ch=7 n=39 v=100
394060 Off ch=7 n=39 v=100
396480 On ch=7 n=67 v=90
396480 On ch=7 n=63 v=90
396480 On ch=7 n=58 v=90
396950 Off ch=7 n=67 v=90
396950 Off ch=7 n=63 v=90
396950 Off ch=7 n=58 v=90
397680 On ch=7 n=65 v=90
397680 On ch=7 n=61 v=90
397680 On ch=7 n=56 v=90
398390 Off ch=7 n=65 v=90
398390 Off ch=7 n=61 v=90
398390 Off ch=7 n=56 v=90
398400 On ch=7 n=65 v=90
398400 On ch=7 n=61 v=90
398400 On ch=7 n=56 v=90
399350 Off ch=7 n=65 v=90
399350 Off ch=7 n=61 v=90
399350 Off ch=7 n=56 v=90
399360 On ch=7 n=65 v=90
399360 On ch=7 n=61 v=90
399360 On ch=7 n=56 v=90
399830 Off ch=7 n=65 v=90
399830 Off ch=7 n=61 v=90
399830 Off ch=7 n=56 v=90
407040 On ch=7 n=51 v=100
408460 Off ch=7 n=51 v=100
409920 On ch=7 n=39 v=100
411340 Off ch=7 n=39 v=100
422880 On ch=7 n=37 v=90
424310 Off ch=7 n=37 v=90
424320 On ch=7 n=36 v=90
425750 Off ch=7 n=36 v=90
442440 PrCh ch=7 p=35
442560 On ch=7 n=47 v=106
442570 Pb ch=7 v=8130
442590 Pb ch=7 v=8110
442610 Pb ch=7 v=8096
442630 Pb ch=7 v=8089
442650 Pb ch=7 v=8082
442670 Pb ch=7 v=8075
442710 Pb ch=7 v=8069
442750 Pb ch=7 v=8062
442770 Pb ch=7 v=8055
442790 Pb ch=7 v=8055
442850 Pb ch=7 v=8062
442890 Pb ch=7 v=8069
442930 Pb ch=7 v=8075
442950 Pb ch=7 v=8082
442970 Pb ch=7 v=8089
442990 Pb ch=7 v=8103
443010 Pb ch=7 v=8192
443030 Pb ch=7 v=8192
443040 On ch=7 n=59 v=102
443270 Off ch=7 n=59 v=102
443280 On ch=7 n=59 v=104
443510 Pb ch=7 v=8192
443510 Off ch=7 n=59 v=104
443520 On ch=7 n=59 v=102
443530 Pb ch=7 v=8246
443550 Pb ch=7 v=8267
443570 Pb ch=7 v=8273
443590 Pb ch=7 v=8280
443610 Pb ch=7 v=8287
443630 Pb ch=7 v=8294
443670 Pb ch=7 v=8301
443710 Pb ch=7 v=8308
443730 Pb ch=7 v=8314
443750 Pb ch=7 v=8314
443770 Pb ch=7 v=8260
443790 Pb ch=7 v=8239
443810 Pb ch=7 v=8232
443830 Pb ch=7 v=8226
443850 Pb ch=7 v=8219
443870 Pb ch=7 v=8212
443910 Pb ch=7 v=8205
443950 Pb ch=7 v=8198
443970 Pb ch=7 v=8192
443990 Pb ch=7 v=8192
449730 On ch=7 n=45 v=124
449760 Off ch=7 n=59 v=102
449760 Off ch=7 n=47 v=106
449770 Off ch=7 n=45 v=124
449790 On ch=7 n=47 v=95
454560 Off ch=7 n=47 v=95
454560 On ch=7 n=35 v=106
457440 Off ch=7 n=35 v=106
457440 On ch=7 n=40 v=106
457840 Off ch=7 n=40 v=106
457920 On ch=7 n=44 v=106
458320 Off ch=7 n=44 v=106
458400 On ch=7 n=47 v=106
458800 Off ch=7 n=47 v=106
458880 On ch=7 n=44 v=106
459280 Off ch=7 n=44 v=106
459360 On ch=7 n=40 v=106
459680 Off ch=7 n=40 v=106
459840 On ch=7 n=47 v=106
460240 Off ch=7 n=47 v=106
460320 On ch=7 n=45 v=106
460720 Off ch=7 n=45 v=106
460800 On ch=7 n=49 v=106
461200 Off ch=7 n=49 v=106
461280 On ch=7 n=52 v=106
461680 Off ch=7 n=52 v=106
461760 On ch=7 n=57 v=106
461920 Off ch=7 n=57 v=106
462000 On ch=7 n=61 v=106
462200 Off ch=7 n=61 v=106
462240 On ch=7 n=64 v=106
462440 Off ch=7 n=64 v=106
462480 On ch=7 n=69 v=106
462880 Off ch=7 n=69 v=106
462960 On ch=7 n=69 v=106
463120 Off ch=7 n=69 v=106
463200 On ch=7 n=64 v=106
463400 Off ch=7 n=64 v=106
463440 On ch=7 n=61 v=106
463640 Off ch=7 n=61 v=106
463680 On ch=7 n=64 v=106
463880 Off ch=7 n=64 v=106
463920 On ch=7 n=61 v=106
464120 Off ch=7 n=61 v=106
464160 On ch=7 n=59 v=106
464360 Off ch=7 n=59 v=106
464410 On ch=7 n=57 v=106
464610 Off ch=7 n=57 v=106
464640 On ch=7 n=52 v=106
465040 Off ch=7 n=52 v=106
465120 On ch=7 n=47 v=106
465520 Off ch=7 n=47 v=106
465600 On ch=7 n=44 v=106
466000 Off ch=7 n=44 v=106
466080 On ch=7 n=40 v=106
467520 Off ch=7 n=40 v=106
468240 On ch=7 n=42 v=106
468840 Off ch=7 n=42 v=106
468960 On ch=7 n=44 v=106
469560 Off ch=7 n=44 v=106
469680 On ch=7 n=47 v=106
470280 Off ch=7 n=47 v=106
470400 On ch=7 n=49 v=106
471000 Off ch=7 n=49 v=106
471120 On ch=7 n=51 v=106
471360 Off ch=7 n=51 v=106
471480 On ch=7 n=51 v=106
471720 Off ch=7 n=51 v=106
471840 On ch=7 n=51 v=106
472000 Off ch=7 n=51 v=106
472320 On ch=7 n=51 v=106
472430 Off ch=7 n=51 v=106
472440 On ch=7 n=51 v=106
472550 Off ch=7 n=51 v=106
472560 On ch=7 n=51 v=106
472670 Off ch=7 n=51 v=106
472680 On ch=7 n=51 v=106
472790 Off ch=7 n=51 v=106
472800 On ch=7 n=51 v=106
472910 Off ch=7 n=51 v=106
472920 On ch=7 n=51 v=106
473030 Off ch=7 n=51 v=106
473040 On ch=7 n=51 v=106
473250 Off ch=7 n=51 v=106
473520 On ch=7 n=51 v=106
473630 Off ch=7 n=51 v=106
473640 On ch=7 n=51 v=106
473750 Off ch=7 n=51 v=106
473760 On ch=7 n=51 v=106
473870 Off ch=7 n=51 v=106
473880 On ch=7 n=51 v=106
473990 Off ch=7 n=51 v=106
474000 On ch=7 n=51 v=106
474110 Off ch=7 n=51 v=106
474120 On ch=7 n=51 v=106
474230 Off ch=7 n=51 v=106
474240 On ch=7 n=51 v=106
474450 Off ch=7 n=51 v=106
474720 On ch=7 n=51 v=106
474830 Off ch=7 n=51 v=106
474840 On ch=7 n=51 v=106
474950 Off ch=7 n=51 v=106
474960 On ch=7 n=51 v=106
475070 Off ch=7 n=51 v=106
475080 On ch=7 n=51 v=106
475190 Off ch=7 n=51 v=106
475200 On ch=7 n=51 v=106
475310 Off ch=7 n=51 v=106
475320 On ch=7 n=51 v=106
475430 Off ch=7 n=51 v=106
475440 On ch=7 n=51 v=106
475650 Off ch=7 n=51 v=106
475920 On ch=7 n=51 v=106
476040 Off ch=7 n=51 v=106
476040 On ch=7 n=51 v=106
476160 Off ch=7 n=51 v=106
476160 On ch=7 n=51 v=106
476280 Off ch=7 n=51 v=106
476280 On ch=7 n=51 v=106
476400 Off ch=7 n=51 v=106
476400 On ch=7 n=51 v=106
476520 Off ch=7 n=51 v=106
476520 On ch=7 n=51 v=106
476640 Off ch=7 n=51 v=106
476640 On ch=7 n=51 v=106
476880 Off ch=7 n=51 v=106
477120 On ch=7 n=51 v=106
477240 Off ch=7 n=51 v=106
477240 On ch=7 n=51 v=106
477360 Off ch=7 n=51 v=106
477360 On ch=7 n=51 v=106
477480 Off ch=7 n=51 v=106
477480 On ch=7 n=51 v=106
477600 Off ch=7 n=51 v=106
477600 On ch=7 n=51 v=106
477720 Off ch=7 n=51 v=106
477720 On ch=7 n=51 v=106
477840 Off ch=7 n=51 v=106
477840 On ch=7 n=51 v=106
478080 Off ch=7 n=51 v=106
478320 On ch=7 n=51 v=106
478400 Off ch=7 n=51 v=106
478440 On ch=7 n=51 v=106
478520 Off ch=7 n=51 v=106
478560 On ch=7 n=51 v=106
478640 Off ch=7 n=51 v=106
478680 On ch=7 n=51 v=106
478760 Off ch=7 n=51 v=106
478800 On ch=7 n=51 v=106
478880 Off ch=7 n=51 v=106
478920 On ch=7 n=51 v=106
479000 Off ch=7 n=51 v=106
479040 On ch=7 n=51 v=106
479200 Off ch=7 n=51 v=106
479520 On ch=7 n=51 v=106
479600 Off ch=7 n=51 v=106
479640 On ch=7 n=51 v=106
479720 Off ch=7 n=51 v=106
479760 On ch=7 n=51 v=106
479840 Off ch=7 n=51 v=106
479880 On ch=7 n=51 v=106
479960 Off ch=7 n=51 v=106
480000 On ch=7 n=51 v=106
480080 Off ch=7 n=51 v=106
480120 On ch=7 n=51 v=106
480200 Off ch=7 n=51 v=106
480240 On ch=7 n=51 v=106
480480 Off ch=7 n=51 v=106
492240 On ch=7 n=51 v=106
492480 Off ch=7 n=51 v=106
492600 On ch=7 n=51 v=106
492840 Off ch=7 n=51 v=106
492960 On ch=7 n=51 v=106
493120 Off ch=7 n=51 v=106
493440 On ch=7 n=51 v=106
493550 Off ch=7 n=51 v=106
493560 On ch=7 n=51 v=106
493670 Off ch=7 n=51 v=106
493680 On ch=7 n=51 v=106
493790 Off ch=7 n=51 v=106
493800 On ch=7 n=51 v=106
493910 Off ch=7 n=51 v=106
493920 On ch=7 n=51 v=106
494030 Off ch=7 n=51 v=106
494040 On ch=7 n=51 v=106
494150 Off ch=7 n=51 v=106
494160 On ch=7 n=51 v=106
494370 Off ch=7 n=51 v=106
494640 On ch=7 n=51 v=106
494750 Off ch=7 n=51 v=106
494760 On ch=7 n=51 v=106
494870 Off ch=7 n=51 v=106
494880 On ch=7 n=51 v=106
494990 Off ch=7 n=51 v=106
495000 On ch=7 n=51 v=106
495110 Off ch=7 n=51 v=106
495120 On ch=7 n=51 v=106
495230 Off ch=7 n=51 v=106
495240 On ch=7 n=51 v=106
495350 Off ch=7 n=51 v=106
495360 On ch=7 n=51 v=106
495570 Off ch=7 n=51 v=106
495840 On ch=7 n=51 v=106
495950 Off ch=7 n=51 v=106
495960 On ch=7 n=51 v=106
496070 Off ch=7 n=51 v=106
496080 On ch=7 n=51 v=106
496190 Off ch=7 n=51 v=106
496200 On ch=7 n=51 v=106
496310 Off ch=7 n=51 v=106
496320 On ch=7 n=51 v=106
496430 Off ch=7 n=51 v=106
496440 On ch=7 n=51 v=106
496550 Off ch=7 n=51 v=106
496560 On ch=7 n=51 v=106
496770 Off ch=7 n=51 v=106
497040 On ch=7 n=51 v=106
497160 Off ch=7 n=51 v=106
497160 On ch=7 n=51 v=106
497280 Off ch=7 n=51 v=106
497280 On ch=7 n=51 v=106
497400 Off ch=7 n=51 v=106
497400 On ch=7 n=51 v=106
497520 Off ch=7 n=51 v=106
497520 On ch=7 n=51 v=106
497640 Off ch=7 n=51 v=106
497640 On ch=7 n=51 v=106
497760 Off ch=7 n=51 v=106
497760 On ch=7 n=51 v=106
498000 Off ch=7 n=51 v=106
498240 On ch=7 n=51 v=106
498360 Off ch=7 n=51 v=106
498360 On ch=7 n=51 v=106
498480 Off ch=7 n=51 v=106
498480 On ch=7 n=51 v=106
498600 Off ch=7 n=51 v=106
498600 On ch=7 n=51 v=106
498720 Off ch=7 n=51 v=106
498720 On ch=7 n=51 v=106
498840 Off ch=7 n=51 v=106
498840 On ch=7 n=51 v=106
498960 Off ch=7 n=51 v=106
498960 On ch=7 n=51 v=106
499200 Off ch=7 n=51 v=106
499440 On ch=7 n=51 v=106
499520 Off ch=7 n=51 v=106
499560 On ch=7 n=51 v=106
499640 Off ch=7 n=51 v=106
499680 On ch=7 n=51 v=106
499760 Off ch=7 n=51 v=106
499800 On ch=7 n=51 v=106
499880 Off ch=7 n=51 v=106
499920 On ch=7 n=51 v=106
500000 Off ch=7 n=51 v=106
500040 On ch=7 n=51 v=106
500120 Off ch=7 n=51 v=106
500160 On ch=7 n=51 v=106
500320 Off ch=7 n=51 v=106
500640 On ch=7 n=51 v=106
500720 Off ch=7 n=51 v=106
500760 On ch=7 n=51 v=106
500840 Off ch=7 n=51 v=106
500880 On ch=7 n=51 v=106
500960 Off ch=7 n=51 v=106
501000 On ch=7 n=51 v=106
501080 Off ch=7 n=51 v=106
501120 On ch=7 n=51 v=106
501200 Off ch=7 n=51 v=106
501240 On ch=7 n=51 v=106
501320 Off ch=7 n=51 v=106
501360 On ch=7 n=51 v=106
501600 Off ch=7 n=51 v=106
513360 On ch=7 n=51 v=111
513440 Off ch=7 n=51 v=111
513480 On ch=7 n=51 v=111
513560 Off ch=7 n=51 v=111
513600 On ch=7 n=51 v=111
513680 Off ch=7 n=51 v=111
513720 On ch=7 n=58 v=111
513800 Off ch=7 n=58 v=111
513840 On ch=7 n=58 v=111
513920 Off ch=7 n=58 v=111
513960 On ch=7 n=58 v=111
514040 Off ch=7 n=58 v=111
514080 On ch=7 n=51 v=111
514320 Off ch=7 n=51 v=111
514560 On ch=7 n=51 v=111
514640 Off ch=7 n=51 v=111
514680 On ch=7 n=51 v=111
514760 Off ch=7 n=51 v=111
514800 On ch=7 n=51 v=111
514880 Off ch=7 n=51 v=111
514920 On ch=7 n=58 v=111
515000 Off ch=7 n=58 v=111
515040 On ch=7 n=58 v=111
515120 Off ch=7 n=58 v=111
515160 On ch=7 n=58 v=111
515240 Off ch=7 n=58 v=111
515280 On ch=7 n=51 v=111
515520 Off ch=7 n=51 v=111
515760 On ch=7 n=51 v=111
515840 Off ch=7 n=51 v=111
515880 On ch=7 n=51 v=111
515960 Off ch=7 n=51 v=111
516000 On ch=7 n=51 v=111
516080 Off ch=7 n=51 v=111
516120 On ch=7 n=58 v=111
516200 Off ch=7 n=58 v=111
516240 On ch=7 n=58 v=111
516320 Off ch=7 n=58 v=111
516360 On ch=7 n=58 v=111
516440 Off ch=7 n=58 v=111
516480 On ch=7 n=51 v=111
516720 Off ch=7 n=51 v=111
516960 On ch=7 n=51 v=111
517040 Off ch=7 n=51 v=111
517080 On ch=7 n=51 v=111
517160 Off ch=7 n=51 v=111
517200 On ch=7 n=51 v=111
517280 Off ch=7 n=51 v=111
517320 On ch=7 n=58 v=111
517400 Off ch=7 n=58 v=111
517440 On ch=7 n=58 v=111
517520 Off ch=7 n=58 v=111
517560 On ch=7 n=58 v=111
517640 Off ch=7 n=58 v=111
517680 On ch=7 n=51 v=111
517920 Off ch=7 n=51 v=111
523920 On ch=7 n=51 v=111
524010 Off ch=7 n=51 v=111
524040 On ch=7 n=51 v=111
524130 Off ch=7 n=51 v=111
524160 On ch=7 n=51 v=111
524250 Off ch=7 n=51 v=111
524280 On ch=7 n=58 v=111
524370 Off ch=7 n=58 v=111
524400 On ch=7 n=58 v=111
524490 Off ch=7 n=58 v=111
524520 On ch=7 n=58 v=111
524610 Off ch=7 n=58 v=111
524640 On ch=7 n=51 v=116
524860 Off ch=7 n=51 v=116
525120 On ch=7 n=51 v=111
525210 Off ch=7 n=51 v=111
525240 On ch=7 n=51 v=111
525330 Off ch=7 n=51 v=111
525360 On ch=7 n=51 v=111
525450 Off ch=7 n=51 v=111
525480 On ch=7 n=58 v=111
525570 Off ch=7 n=58 v=111
525600 On ch=7 n=58 v=111
525690 Off ch=7 n=58 v=111
525720 On ch=7 n=58 v=111
525810 Off ch=7 n=58 v=111
525840 On ch=7 n=51 v=116
526060 Off ch=7 n=51 v=116
526320 On ch=7 n=51 v=111
526410 Off ch=7 n=51 v=111
526440 On ch=7 n=51 v=111
526530 Off ch=7 n=51 v=111
526560 On ch=7 n=51 v=111
526650 Off ch=7 n=51 v=111
526680 On ch=7 n=58 v=111
526770 Off ch=7 n=58 v=111
526800 On ch=7 n=58 v=111
526890 Off ch=7 n=58 v=111
526920 On ch=7 n=58 v=111
527010 Off ch=7 n=58 v=111
527040 On ch=7 n=51 v=116
527260 Off ch=7 n=51 v=116
527520 On ch=7 n=51 v=111
527610 Off ch=7 n=51 v=111
527640 On ch=7 n=51 v=111
527730 Off ch=7 n=51 v=111
527760 On ch=7 n=51 v=111
527850 Off ch=7 n=51 v=111
527880 On ch=7 n=58 v=111
527970 Off ch=7 n=58 v=111
528000 On ch=7 n=58 v=111
528090 Off ch=7 n=58 v=111
528120 On ch=7 n=58 v=111
528210 Off ch=7 n=58 v=111
528240 On ch=7 n=51 v=116
528460 Off ch=7 n=51 v=116
534960 On ch=7 n=54 v=111
535160 Off ch=7 n=54 v=111
535680 On ch=7 n=52 v=111
535880 Off ch=7 n=52 v=111
536400 On ch=7 n=51 v=111
536600 Off ch=7 n=51 v=111
537120 On ch=7 n=49 v=111
537320 Off ch=7 n=49 v=111
537840 On ch=7 n=47 v=111
538040 Off ch=7 n=47 v=111
538560 On ch=7 n=45 v=111
538760 Off ch=7 n=45 v=111
538800 On ch=7 n=59 v=111
539140 Off ch=7 n=59 v=111
539760 On ch=7 n=54 v=111
539960 Off ch=7 n=54 v=111
540480 On ch=7 n=52 v=111
540680 Off ch=7 n=52 v=111
541200 On ch=7 n=51 v=111
541400 Off ch=7 n=51 v=111
541920 On ch=7 n=49 v=111
542120 Off ch=7 n=49 v=111
542640 On ch=7 n=47 v=111
542840 Off ch=7 n=47 v=111
543360 On ch=7 n=45 v=111
543560 Off ch=7 n=45 v=111
543600 On ch=7 n=59 v=111
543940 Off ch=7 n=59 v=111
544560 On ch=7 n=54 v=111
544760 Off ch=7 n=54 v=111
545280 On ch=7 n=52 v=111
545480 Off ch=7 n=52 v=111
546000 On ch=7 n=51 v=111
546200 Off ch=7 n=51 v=111
546720 On ch=7 n=49 v=111
546920 Off ch=7 n=49 v=111
547440 On ch=7 n=47 v=111
547640 Off ch=7 n=47 v=111
548160 On ch=7 n=45 v=111
548360 Off ch=7 n=45 v=111
548400 On ch=7 n=59 v=111
548740 Off ch=7 n=59 v=111
549360 On ch=7 n=54 v=111
549560 Off ch=7 n=54 v=111
550080 On ch=7 n=52 v=111
550280 Off ch=7 n=52 v=111
550800 On ch=7 n=51 v=111
551000 Off ch=7 n=51 v=111
551520 On ch=7 n=49 v=111
551720 Off ch=7 n=49 v=111
552240 On ch=7 n=47 v=111
552440 Off ch=7 n=47 v=111
552960 On ch=7 n=45 v=111
553160 Off ch=7 n=45 v=111
553200 On ch=7 n=59 v=111
553540 Off ch=7 n=59 v=111
553680 On ch=7 n=54 v=111
554360 Off ch=7 n=54 v=111
554390 On ch=7 n=53 v=111
555020 Off ch=7 n=53 v=111
555120 On ch=7 n=51 v=111
555840 Off ch=7 n=51 v=111
555840 On ch=7 n=49 v=108
556530 Off ch=7 n=49 v=108
556560 On ch=7 n=48 v=107
557020 Off ch=7 n=48 v=107
557040 On ch=7 n=46 v=110
557470 Off ch=7 n=46 v=110
557520 On ch=7 n=51 v=109
557990 Off ch=7 n=51 v=109
558000 On ch=7 n=54 v=109
558720 Off ch=7 n=54 v=109
558720 On ch=7 n=53 v=107
559390 Off ch=7 n=53 v=107
559440 On ch=7 n=51 v=102
560150 Off ch=7 n=51 v=102
560160 On ch=7 n=49 v=108
560850 Off ch=7 n=49 v=108
560880 On ch=7 n=48 v=105
561360 Off ch=7 n=48 v=105
561360 On ch=7 n=46 v=109
561410 Pb ch=7 v=8192
561450 Pb ch=7 v=8198
561470 Pb ch=7 v=8212
561490 Pb ch=7 v=8219
561510 Pb ch=7 v=8226
561530 Pb ch=7 v=8246
561550 Pb ch=7 v=8260
561570 Pb ch=7 v=8273
561590 Pb ch=7 v=8287
561610 Pb ch=7 v=8301
561630 Pb ch=7 v=8321
561650 Pb ch=7 v=8342
561670 Pb ch=7 v=8362
561690 Pb ch=7 v=8383
561710 Pb ch=7 v=8410
561730 Pb ch=7 v=8458
561750 Pb ch=7 v=8499
561770 Pb ch=7 v=8547
561790 Pb ch=7 v=8615
561790 Off ch=7 n=46 v=109
561810 Pb ch=7 v=9011
561830 Pb ch=7 v=9011
561830 Pb ch=7 v=9557
561830 Pb ch=7 v=8192
561840 On ch=7 n=51 v=110
562270 Off ch=7 n=51 v=110
562320 On ch=7 n=51 v=110
562730 Off ch=7 n=51 v=110
563280 On ch=7 n=63 v=110
563970 Off ch=7 n=63 v=110
563990 On ch=7 n=58 v=111
564200 Off ch=7 n=58 v=111
564240 On ch=7 n=61 v=111
564450 Off ch=7 n=61 v=111
564480 On ch=7 n=63 v=111
564690 Off ch=7 n=63 v=111
564720 On ch=7 n=66 v=110
564950 Pb ch=7 v=8192
564970 Pb ch=7 v=8178
564990 Pb ch=7 v=8164
565010 Pb ch=7 v=8130
565030 Pb ch=7 v=8116
565050 Pb ch=7 v=8103
565070 Pb ch=7 v=8069
565090 Pb ch=7 v=8055
565110 Pb ch=7 v=8021
565130 Pb ch=7 v=7993
565150 Pb ch=7 v=7959
565170 Pb ch=7 v=7932
565190 Pb ch=7 v=7898
565210 Pb ch=7 v=7870
565230 Pb ch=7 v=7823
565250 Pb ch=7 v=7775
565270 Pb ch=7 v=7727
565290 Pb ch=7 v=7666
565310 Pb ch=7 v=7604
565330 Pb ch=7 v=7543
565350 Pb ch=7 v=7448
565370 Pb ch=7 v=7325
565390 Pb ch=7 v=7168
565410 Pb ch=7 v=6212
565430 Pb ch=7 v=6212
565430 Pb ch=7 v=6144
565430 Pb ch=7 v=8192
565560 Off ch=7 n=66 v=110
565680 On ch=7 n=58 v=105
566250 Off ch=7 n=58 v=105
566400 On ch=7 n=46 v=111
567810 Off ch=7 n=46 v=111
567840 On ch=7 n=53 v=111
568050 Off ch=7 n=53 v=111
568080 On ch=7 n=56 v=111
568290 Off ch=7 n=56 v=111
568320 On ch=7 n=58 v=111
568530 Off ch=7 n=58 v=111
568560 On ch=7 n=42 v=111
569420 Off ch=7 n=42 v=111
569520 On ch=7 n=54 v=111
570170 Off ch=7 n=54 v=111
570240 On ch=7 n=54 v=111
570460 Off ch=7 n=54 v=111
570480 On ch=7 n=56 v=111
570680 Off ch=7 n=56 v=111
570720 On ch=7 n=56 v=111
570920 Off ch=7 n=56 v=111
570960 On ch=7 n=44 v=111
571640 Off ch=7 n=44 v=111
571680 On ch=7 n=44 v=111
571880 Off ch=7 n=44 v=111
571920 On ch=7 n=56 v=111
572350 Off ch=7 n=56 v=111
572400 On ch=7 n=54 v=111
573020 Off ch=7 n=54 v=111
573120 On ch=7 n=53 v=111
573740 Off ch=7 n=53 v=111
573840 On ch=7 n=51 v=111
574460 Off ch=7 n=51 v=111
574560 On ch=7 n=49 v=111
575180 Off ch=7 n=49 v=111
575280 On ch=7 n=48 v=111
575690 Off ch=7 n=48 v=111
575760 On ch=7 n=46 v=111
576170 Off ch=7 n=46 v=111
576240 On ch=7 n=51 v=111
576650 Off ch=7 n=51 v=111
576720 On ch=7 n=54 v=107
577320 Off ch=7 n=54 v=107
577440 On ch=7 n=53 v=106
578060 Off ch=7 n=53 v=106
578160 On ch=7 n=51 v=109
578830 Off ch=7 n=51 v=109
578880 On ch=7 n=49 v=113
579510 Off ch=7 n=49 v=113
579600 On ch=7 n=48 v=107
580000 Off ch=7 n=48 v=107
580080 On ch=7 n=46 v=111
580190 Pb ch=7 v=8192
580210 Pb ch=7 v=8205
580230 Pb ch=7 v=8219
580250 Pb ch=7 v=8267
580270 Pb ch=7 v=8287
580290 Pb ch=7 v=8314
580310 Pb ch=7 v=8362
580330 Pb ch=7 v=8396
580350 Pb ch=7 v=8465
580370 Pb ch=7 v=8492
580390 Pb ch=7 v=8526
580410 Pb ch=7 v=8622
580430 Pb ch=7 v=8670
580450 Pb ch=7 v=8799
580470 Pb ch=7 v=8868
580490 Pb ch=7 v=8963
580510 Pb ch=7 v=9250
580510 Off ch=7 n=46 v=111
580530 Pb ch=7 v=10240
580550 Pb ch=7 v=10240
580550 Pb ch=7 v=10923
580550 Pb ch=7 v=8192
580560 On ch=7 n=51 v=111
580760 Off ch=7 n=51 v=111
580800 On ch=7 n=63 v=111
581000 Off ch=7 n=63 v=111
581040 On ch=7 n=51 v=111
581470 Off ch=7 n=51 v=111
582000 On ch=7 n=63 v=111
582680 Off ch=7 n=63 v=111
582720 On ch=7 n=58 v=106
582920 Off ch=7 n=58 v=106
582960 On ch=7 n=61 v=111
583150 Off ch=7 n=61 v=111
583200 On ch=7 n=63 v=108
583400 Off ch=7 n=63 v=108
583440 On ch=7 n=66 v=111
584310 Off ch=7 n=66 v=111
584390 Pb ch=7 v=8192
584400 On ch=7 n=58 v=106
584410 Pb ch=7 v=8164
584430 Pb ch=7 v=8130
584470 Pb ch=7 v=8069
584490 Pb ch=7 v=8034
584530 Pb ch=7 v=8000
584550 Pb ch=7 v=7966
584570 Pb ch=7 v=7939
584590 Pb ch=7 v=7905
584610 Pb ch=7 v=7870
584630 Pb ch=7 v=7843
584650 Pb ch=7 v=7775
584670 Pb ch=7 v=7741
584690 Pb ch=7 v=7713
584710 Pb ch=7 v=7645
584730 Pb ch=7 v=7611
584750 Pb ch=7 v=7584
584770 Pb ch=7 v=7515
584790 Pb ch=7 v=7455
584810 Pb ch=7 v=7421
584830 Pb ch=7 v=7325
584850 Pb ch=7 v=7257
584870 Pb ch=7 v=7229
584890 Pb ch=7 v=7100
584910 Pb ch=7 v=7031
584930 Pb ch=7 v=6970
584950 Pb ch=7 v=6840
584970 Pb ch=7 v=6745
584990 Pb ch=7 v=6649
585000 Off ch=7 n=58 v=106
585010 Pb ch=7 v=6389
585030 Pb ch=7 v=6225
585050 Pb ch=7 v=6068
585070 Pb ch=7 v=5549
585090 Pb ch=7 v=4096
585110 Pb ch=7 v=4096
585110 Pb ch=7 v=4096
585110 Pb ch=7 v=8192
585120 On ch=7 n=46 v=115
586520 Off ch=7 n=46 v=115
586560 On ch=7 n=53 v=111
586760 Off ch=7 n=53 v=111
586800 On ch=7 n=56 v=111
587000 Off ch=7 n=56 v=111
587040 On ch=7 n=58 v=111
587240 Off ch=7 n=58 v=111
587280 On ch=7 n=42 v=111
587880 Off ch=7 n=42 v=111
588000 On ch=7 n=42 v=109
588200 Off ch=7 n=42 v=109
588240 On ch=7 n=54 v=111
588830 Off ch=7 n=54 v=111
588960 On ch=7 n=55 v=107
589150 Off ch=7 n=55 v=107
589210 On ch=7 n=56 v=111
589310 Pb ch=7 v=8192
589330 Pb ch=7 v=8151
589350 Pb ch=7 v=8110
589370 Pb ch=7 v=7980
589390 Pb ch=7 v=7939
589410 Pb ch=7 v=7850
589430 Pb ch=7 v=7720
589450 Pb ch=7 v=7638
589470 Pb ch=7 v=7462
589490 Pb ch=7 v=7380
589510 Pb ch=7 v=7291
589530 Pb ch=7 v=7031
589550 Pb ch=7 v=6908
589570 Pb ch=7 v=6560
589590 Pb ch=7 v=6389
589590 Off ch=7 n=56 v=111
589610 Pb ch=7 v=6130
589630 Pb ch=7 v=5359
589650 Pb ch=7 v=2731
589670 Pb ch=7 v=0
589670 Pb ch=7 v=8192
589680 On ch=7 n=44 v=109
590350 Off ch=7 n=44 v=109
590400 On ch=7 n=44 v=105
590580 Off ch=7 n=44 v=105
590640 On ch=7 n=56 v=111
591020 Off ch=7 n=56 v=111
591120 On ch=7 n=54 v=111
591700 Off ch=7 n=54 v=111
591840 On ch=7 n=53 v=111
592420 Off ch=7 n=53 v=111
592560 On ch=7 n=51 v=109
593210 Off ch=7 n=51 v=109
593280 On ch=7 n=49 v=110
593860 Off ch=7 n=49 v=110
594000 On ch=7 n=48 v=111
594380 Off ch=7 n=48 v=111
594480 On ch=7 n=46 v=111
594870 Off ch=7 n=46 v=111
594960 On ch=7 n=51 v=111
595320 Off ch=7 n=51 v=111
595440 On ch=7 n=54 v=111
596020 Off ch=7 n=54 v=111
596160 On ch=7 n=53 v=111
596740 Off ch=7 n=53 v=111
596880 On ch=7 n=51 v=109
597530 Off ch=7 n=51 v=109
597600 On ch=7 n=49 v=110
598180 Off ch=7 n=49 v=110
598320 On ch=7 n=48 v=111
598700 Off ch=7 n=48 v=111
598800 On ch=7 n=46 v=111
599190 Off ch=7 n=46 v=111
599280 On ch=7 n=51 v=111
599640 Off ch=7 n=51 v=111
608880 On ch=7 n=54 v=110
609460 Off ch=7 n=54 v=110
609600 On ch=7 n=53 v=111
610160 Off ch=7 n=53 v=111
610320 On ch=7 n=51 v=108
610930 Off ch=7 n=51 v=108
611040 On ch=7 n=49 v=109
611650 Off ch=7 n=49 v=109
611760 On ch=7 n=48 v=114
612120 Off ch=7 n=48 v=114
612240 On ch=7 n=46 v=111
612850 Off ch=7 n=46 v=111
612960 On ch=7 n=63 v=105
613520 Off ch=7 n=63 v=105
613680 On ch=7 n=61 v=107
614120 Off ch=7 n=61 v=107
614400 On ch=7 n=59 v=109
614880 Off ch=7 n=59 v=109
615120 On ch=7 n=58 v=109
615440 Off ch=7 n=58 v=109
616320 On ch=7 n=56 v=109
616480 Off ch=7 n=56 v=109
621360 On ch=7 n=54 v=109
621840 Off ch=7 n=54 v=109
622080 On ch=7 n=53 v=109
622560 Off ch=7 n=53 v=109
622800 On ch=7 n=51 v=109
623280 Off ch=7 n=51 v=109
623520 On ch=7 n=49 v=109
624000 Off ch=7 n=49 v=109
624240 On ch=7 n=48 v=109
624560 Off ch=7 n=48 v=109
624720 On ch=7 n=46 v=109
625040 Off ch=7 n=46 v=109
625200 KeySig 1 major
630960 KeySig 0 major
630960 On ch=7 n=54 v=111
631330 Off ch=7 n=54 v=111
631440 On ch=7 n=54 v=111
631630 Off ch=7 n=54 v=111
631680 On ch=7 n=53 v=111
632050 Off ch=7 n=53 v=111
632160 On ch=7 n=53 v=111
632350 Off ch=7 n=53 v=111
632400 On ch=7 n=51 v=111
632770 Off ch=7 n=51 v=111
632880 On ch=7 n=51 v=111
633070 Off ch=7 n=51 v=111
633120 On ch=7 n=49 v=111
633490 Off ch=7 n=49 v=111
633600 On ch=7 n=49 v=111
633790 Off ch=7 n=49 v=111
633840 On ch=7 n=47 v=79
634220 Off ch=7 n=47 v=79
634320 On ch=7 n=46 v=111
634700 Off ch=7 n=46 v=111
634800 On ch=7 n=51 v=111
635180 Off ch=7 n=51 v=111
635280 On ch=7 n=54 v=111
635650 Off ch=7 n=54 v=111
635760 On ch=7 n=54 v=111
635950 Off ch=7 n=54 v=111
636000 On ch=7 n=53 v=111
636370 Off ch=7 n=53 v=111
636480 On ch=7 n=53 v=111
636670 Off ch=7 n=53 v=111
636720 On ch=7 n=51 v=111
637090 Off ch=7 n=51 v=111
637200 On ch=7 n=51 v=111
637390 Off ch=7 n=51 v=111
637440 On ch=7 n=49 v=111
637810 Off ch=7 n=49 v=111
637920 On ch=7 n=49 v=111
638110 Off ch=7 n=49 v=111
638180 On ch=7 n=47 v=79
638560 Off ch=7 n=47 v=79
638640 On ch=7 n=58 v=111
639020 Off ch=7 n=58 v=111
639120 On ch=7 n=51 v=111
639500 Off ch=7 n=51 v=111
639600 On ch=7 n=54 v=111
640160 Off ch=7 n=54 v=111
640320 On ch=7 n=56 v=111
640690 Off ch=7 n=56 v=111
640800 On ch=7 n=56 v=111
640990 Off ch=7 n=56 v=111
641040 On ch=7 n=58 v=111
641410 Off ch=7 n=58 v=111
641520 On ch=7 n=58 v=111
641710 Off ch=7 n=58 v=111
641760 On ch=7 n=61 v=111
642130 Off ch=7 n=61 v=111
642240 On ch=7 n=61 v=111
642430 Off ch=7 n=61 v=111
642480 On ch=7 n=63 v=111
642850 Off ch=7 n=63 v=111
642960 On ch=7 n=65 v=111
643330 Off ch=7 n=65 v=111
643440 On ch=7 n=47 v=106
643450 Pb ch=7 v=8130
643470 Pb ch=7 v=8110
643490 Pb ch=7 v=8096
643510 Pb ch=7 v=8089
643530 Pb ch=7 v=8082
643550 Pb ch=7 v=8075
643590 Pb ch=7 v=8069
643630 Pb ch=7 v=8062
643650 Pb ch=7 v=8055
643670 Pb ch=7 v=8055
643730 Pb ch=7 v=8062
643770 Pb ch=7 v=8069
643810 Pb ch=7 v=8075
643830 Pb ch=7 v=8082
643850 Pb ch=7 v=8089
643870 Pb ch=7 v=8103
643890 Pb ch=7 v=8192
643910 Pb ch=7 v=8192
643920 On ch=7 n=59 v=102
644150 Off ch=7 n=59 v=102
644160 On ch=7 n=59 v=104
644390 Pb ch=7 v=8192
644390 Off ch=7 n=59 v=104
644400 On ch=7 n=59 v=102
644410 Pb ch=7 v=8246
644430 Pb ch=7 v=8267
644450 Pb ch=7 v=8273
644470 Pb ch=7 v=8280
644490 Pb ch=7 v=8287
644510 Pb ch=7 v=8294
644550 Pb ch=7 v=8301
644590 Pb ch=7 v=8308
644610 Pb ch=7 v=8314
644630 Pb ch=7 v=8314
644650 Pb ch=7 v=8260
644670 Pb ch=7 v=8239
644690 Pb ch=7 v=8232
644710 Pb ch=7 v=8226
644730 Pb ch=7 v=8219
644750 Pb ch=7 v=8212
644790 Pb ch=7 v=8205
644830 Pb ch=7 v=8198
644850 Pb ch=7 v=8192
644870 Pb ch=7 v=8192
650640 Off ch=7 n=59 v=102
650640 Off ch=7 n=47 v=106
650640 On ch=7 n=52 v=111
651000 Off ch=7 n=52 v=111
651110 On ch=7 n=59 v=108
651490 Off ch=7 n=59 v=108
651600 On ch=7 n=55 v=111
651920 Off ch=7 n=55 v=111
652080 On ch=7 n=52 v=111
652410 Off ch=7 n=52 v=111
652560 On ch=7 n=55 v=111
652940 Off ch=7 n=55 v=111
653070 On ch=7 n=47 v=111
653470 Off ch=7 n=47 v=111
653520 On ch=7 n=48 v=111
653890 Off ch=7 n=48 v=111
654000 On ch=7 n=50 v=116
654370 Off ch=7 n=50 v=116
654480 On ch=7 n=52 v=108
654890 Off ch=7 n=52 v=108
654960 On ch=7 n=55 v=111
655390 Off ch=7 n=55 v=111
655440 On ch=7 n=57 v=111
655810 Off ch=7 n=57 v=111
655920 On ch=7 n=59 v=111
656290 Off ch=7 n=59 v=111
656400 On ch=7 n=57 v=111
656490 Off ch=7 n=57 v=111
656510 On ch=7 n=59 v=106
656580 Off ch=7 n=59 v=106
656640 On ch=7 n=57 v=116
656840 Off ch=7 n=57 v=116
656880 On ch=7 n=54 v=121
658490 Off ch=7 n=54 v=121
658570 On ch=7 n=54 v=111
658760 Off ch=7 n=54 v=111
658800 On ch=7 n=55 v=111
659000 Off ch=7 n=55 v=111
659040 On ch=7 n=57 v=111
659240 Off ch=7 n=57 v=111
659280 On ch=7 n=55 v=111
659370 Off ch=7 n=55 v=111
659400 On ch=7 n=57 v=111
659510 On ch=7 n=55 v=111
659520 Off ch=7 n=57 v=111
659710 Off ch=7 n=55 v=111
659760 On ch=7 n=52 v=111
660720 Off ch=7 n=52 v=111
660720 On ch=7 n=52 v=111
661120 Off ch=7 n=52 v=111
661210 On ch=7 n=55 v=111
661570 Off ch=7 n=55 v=111
661680 On ch=7 n=59 v=111
662080 Off ch=7 n=59 v=111
662160 On ch=7 n=67 v=101
662350 Off ch=7 n=67 v=101
662380 On ch=7 n=66 v=111
662580 Off ch=7 n=66 v=111
662640 On ch=7 n=62 v=111
664200 Off ch=7 n=62 v=111
664320 On ch=7 n=57 v=115
664980 Off ch=7 n=57 v=115
665040 On ch=7 n=50 v=111
667830 Off ch=7 n=50 v=111
667920 On ch=7 n=52 v=111
668350 Off ch=7 n=52 v=111
668400 On ch=7 n=47 v=106
668810 Off ch=7 n=47 v=106
668880 On ch=7 n=43 v=111
669310 Off ch=7 n=43 v=111
669360 On ch=7 n=40 v=111
670640 Off ch=7 n=40 v=111
670800 On ch=7 n=48 v=111
671220 Off ch=7 n=48 v=111
671280 On ch=7 n=50 v=111
671700 Off ch=7 n=50 v=111
671760 On ch=7 n=52 v=111
672180 Off ch=7 n=52 v=111
672240 On ch=7 n=55 v=111
673080 Off ch=7 n=55 v=111
673170 On ch=7 n=57 v=111
673210 On ch=7 n=59 v=111
673250 Off ch=7 n=57 v=111
673630 Off ch=7 n=59 v=111
673680 On ch=7 n=57 v=109
673780 Off ch=7 n=57 v=109
673810 On ch=7 n=59 v=111
673910 Off ch=7 n=59 v=111
673920 On ch=7 n=57 v=111
674130 Off ch=7 n=57 v=111
674160 On ch=7 n=54 v=111
675750 Off ch=7 n=54 v=111
675840 On ch=7 n=54 v=111
676050 Off ch=7 n=54 v=111
676070 On ch=7 n=55 v=102
676280 Off ch=7 n=55 v=102
676320 On ch=7 n=57 v=111
676530 Off ch=7 n=57 v=111
676550 On ch=7 n=55 v=114
676650 Off ch=7 n=55 v=114
676680 On ch=7 n=57 v=111
676780 Off ch=7 n=57 v=111
676800 On ch=7 n=55 v=111
677010 Off ch=7 n=55 v=111
677040 On ch=7 n=52 v=111
677950 Off ch=7 n=52 v=111
678000 On ch=7 n=52 v=111
678420 Off ch=7 n=52 v=111
678480 On ch=7 n=55 v=106
678880 Off ch=7 n=55 v=106
678960 On ch=7 n=59 v=111
679380 Off ch=7 n=59 v=111
679440 On ch=7 n=67 v=101
679630 Off ch=7 n=67 v=101
679660 On ch=7 n=66 v=111
679860 Off ch=7 n=66 v=111
679920 On ch=7 n=62 v=111
681480 Off ch=7 n=62 v=111
681570 On ch=7 n=55 v=111
681610 On ch=7 n=57 v=115
681610 Off ch=7 n=55 v=111
682270 Off ch=7 n=57 v=115
682330 On ch=7 n=50 v=115
685080 Off ch=7 n=50 v=115
686640 On ch=7 n=40 v=115
688050 Off ch=7 n=40 v=115
689520 On ch=7 n=45 v=112
690860 Off ch=7 n=45 v=112
690960 On ch=7 n=45 v=114
692270 Off ch=7 n=45 v=114
692400 On ch=7 n=45 v=111
693810 Off ch=7 n=45 v=111
693840 On ch=7 n=45 v=115
694040 Off ch=7 n=45 v=115
694080 On ch=7 n=45 v=100
694260 Off ch=7 n=45 v=100
694320 On ch=7 n=45 v=111
694540 Off ch=7 n=45 v=111
694560 On ch=7 n=45 v=95
694780 Off ch=7 n=45 v=95
694800 On ch=7 n=45 v=111
695000 Off ch=7 n=45 v=111
695040 On ch=7 n=45 v=116
695270 Off ch=7 n=45 v=116
695280 On ch=7 n=45 v=111
695500 Off ch=7 n=45 v=111
695520 On ch=7 n=45 v=98
695720 Off ch=7 n=45 v=98
695760 On ch=7 n=45 v=113
695970 Off ch=7 n=45 v=113
695990 On ch=7 n=45 v=111
696200 Off ch=7 n=45 v=111
696240 On ch=7 n=45 v=104
696460 Off ch=7 n=45 v=104
696480 On ch=7 n=45 v=115
696710 Off ch=7 n=45 v=115
696720 On ch=7 n=45 v=115
696920 Off ch=7 n=45 v=115
696960 On ch=7 n=45 v=100
697140 Off ch=7 n=45 v=100
697200 On ch=7 n=45 v=111
697420 Off ch=7 n=45 v=111
697440 On ch=7 n=45 v=95
697660 Off ch=7 n=45 v=95
697680 On ch=7 n=45 v=111
697880 Off ch=7 n=45 v=111
697920 On ch=7 n=45 v=116
698150 Off ch=7 n=45 v=116
698160 On ch=7 n=45 v=111
698380 Off ch=7 n=45 v=111
698400 On ch=7 n=45 v=98
698600 Off ch=7 n=45 v=98
698640 On ch=7 n=45 v=113
698850 Off ch=7 n=45 v=113
698870 On ch=7 n=45 v=111
699080 Off ch=7 n=45 v=111
699120 On ch=7 n=45 v=104
699340 Off ch=7 n=45 v=104
699360 On ch=7 n=45 v=115
699590 Off ch=7 n=45 v=115
699600 On ch=7 n=45 v=115
699800 Off ch=7 n=45 v=115
699840 On ch=7 n=45 v=100
700020 Off ch=7 n=45 v=100
700080 On ch=7 n=45 v=111
700300 Off ch=7 n=45 v=111
700320 On ch=7 n=45 v=95
700540 Off ch=7 n=45 v=95
700560 On ch=7 n=45 v=111
700760 Off ch=7 n=45 v=111
700800 On ch=7 n=45 v=116
701030 Off ch=7 n=45 v=116
701040 On ch=7 n=45 v=111
701260 Off ch=7 n=45 v=111
701280 On ch=7 n=45 v=98
701480 Off ch=7 n=45 v=98
701520 On ch=7 n=45 v=113
701730 Off ch=7 n=45 v=113
701750 On ch=7 n=45 v=111
701960 Off ch=7 n=45 v=111
702000 On ch=7 n=45 v=104
702220 Off ch=7 n=45 v=104
702240 On ch=7 n=45 v=115
702470 Off ch=7 n=45 v=115
702480 On ch=7 n=43 v=111
703400 Off ch=7 n=43 v=111
703440 On ch=7 n=55 v=118
703820 Off ch=7 n=55 v=118
703920 On ch=7 n=42 v=111
704840 Off ch=7 n=42 v=111
704890 On ch=7 n=54 v=116
705300 Off ch=7 n=54 v=116
705360 On ch=7 n=46 v=106
705370 Pb ch=7 v=8130
705390 Pb ch=7 v=8110
705410 Pb ch=7 v=8096
705430 Pb ch=7 v=8089
705450 Pb ch=7 v=8082
705470 Pb ch=7 v=8075
705510 Pb ch=7 v=8069
705550 Pb ch=7 v=8062
705570 Pb ch=7 v=8055
705590 Pb ch=7 v=8055
705650 Pb ch=7 v=8062
705690 Pb ch=7 v=8069
705730 Pb ch=7 v=8075
705750 Pb ch=7 v=8082
705770 Pb ch=7 v=8089
705790 Pb ch=7 v=8103
705810 Pb ch=7 v=8192
705830 Pb ch=7 v=8192
705840 On ch=7 n=53 v=102
706070 Off ch=7 n=53 v=102
706080 On ch=7 n=53 v=104
706310 Pb ch=7 v=8192
706310 Off ch=7 n=53 v=104
706320 On ch=7 n=53 v=102
706330 Pb ch=7 v=8246
706350 Pb ch=7 v=8267
706370 Pb ch=7 v=8273
706390 Pb ch=7 v=8280
706410 Pb ch=7 v=8287
706430 Pb ch=7 v=8294
706470 Pb ch=7 v=8301
706510 Pb ch=7 v=8308
706530 Pb ch=7 v=8314
706550 Pb ch=7 v=8314
706570 Pb ch=7 v=8260
706590 Pb ch=7 v=8239
706610 Pb ch=7 v=8232
706630 Pb ch=7 v=8226
706650 Pb ch=7 v=8219
706670 Pb ch=7 v=8212
706710 Pb ch=7 v=8205
706750 Pb ch=7 v=8198
706770 Pb ch=7 v=8192
706790 Pb ch=7 v=8192
706800 Off ch=7 n=53 v=102
706800 On ch=7 n=58 v=102
712560 Off ch=7 n=58 v=102
712560 Off ch=7 n=46 v=106
712560 KeySig 2 major
722160 Meta TrkEnd
TrkEnd
MTrk
0 Meta TrkName "Organ 3"
0 Meta 0x20 07
0 Meta InstrName "Organ 3"
0 KeySig 0 major
725 Par ch=8 c=0 v=0
730 Par ch=8 c=32 v=0
735 PrCh ch=8 p=18
740 Par ch=8 c=7 v=100
745 Par ch=8 c=10 v=64
750 Par ch=8 c=91 v=40
755 Par ch=8 c=93 v=0
760 Par ch=8 c=101 v=0
760 Par ch=8 c=100 v=0
760 Par ch=8 c=6 v=2
765 Par ch=8 c=99 v=1
765 Par ch=8 c=98 v=8
765 Par ch=8 c=6 v=64
770 Par ch=8 c=99 v=1
770 Par ch=8 c=98 v=9
770 Par ch=8 c=6 v=64
775 Par ch=8 c=99 v=1
775 Par ch=8 c=98 v=10
775 Par ch=8 c=6 v=64
780 Par ch=8 c=99 v=1
780 Par ch=8 c=98 v=32
780 Par ch=8 c=6 v=64
785 Par ch=8 c=99 v=1
785 Par ch=8 c=98 v=33
785 Par ch=8 c=6 v=64
790 Par ch=8 c=99 v=1
790 Par ch=8 c=98 v=99
790 Par ch=8 c=6 v=64
795 Par ch=8 c=99 v=1
795 Par ch=8 c=98 v=100
795 Par ch=8 c=6 v=64
800 Par ch=8 c=99 v=1
800 Par ch=8 c=98 v=102
800 Par ch=8 c=6 v=64
4800 On ch=8 n=80 v=100
4800 On ch=8 n=92 v=100
6950 Off ch=8 n=92 v=100
6960 On ch=8 n=92 v=100
7670 Off ch=8 n=92 v=100
7680 On ch=8 n=92 v=100
8390 Off ch=8 n=92 v=100
8390 Off ch=8 n=80 v=100
11280 On ch=8 n=86 v=100
11280 On ch=8 n=98 v=100
14880 Off ch=8 n=86 v=100
14880 Off ch=8 n=98 v=100
14880 On ch=8 n=80 v=100
15590 Off ch=8 n=80 v=100
15600 On ch=8 n=80 v=100
16310 Off ch=8 n=80 v=100
16320 On ch=8 n=80 v=100
16790 Off ch=8 n=80 v=100
16800 On ch=8 n=80 v=100
17270 Off ch=8 n=80 v=100
17280 On ch=8 n=80 v=100
17750 Off ch=8 n=80 v=100
17760 On ch=8 n=80 v=100
18470 Off ch=8 n=80 v=100
18480 On ch=8 n=80 v=100
19190 Off ch=8 n=80 v=100
19200 On ch=8 n=80 v=100
19670 Off ch=8 n=80 v=100
19680 On ch=8 n=80 v=100
20150 Off ch=8 n=80 v=100
20160 On ch=8 n=80 v=100
20630 Off ch=8 n=80 v=100
20640 On ch=8 n=80 v=100
21350 Off ch=8 n=80 v=100
21360 On ch=8 n=80 v=100
22070 Off ch=8 n=80 v=100
22080 On ch=8 n=80 v=100
22550 Off ch=8 n=80 v=100
22560 On ch=8 n=80 v=100
23030 Off ch=8 n=80 v=100
23040 On ch=8 n=80 v=100
23510 Off ch=8 n=80 v=100
23520 On ch=8 n=80 v=100
24230 Off ch=8 n=80 v=100
24240 On ch=8 n=80 v=100
24950 Off ch=8 n=80 v=100
24960 On ch=8 n=80 v=100
25430 Off ch=8 n=80 v=100
25440 On ch=8 n=80 v=100
25910 Off ch=8 n=80 v=100
25920 On ch=8 n=80 v=100
26390 Off ch=8 n=80 v=100
26400 On ch=8 n=80 v=100
27110 Off ch=8 n=80 v=100
27120 On ch=8 n=80 v=100
27830 Off ch=8 n=80 v=100
27840 On ch=8 n=80 v=100
28310 Off ch=8 n=80 v=100
28320 On ch=8 n=80 v=100
28790 Off ch=8 n=80 v=100
28800 On ch=8 n=80 v=100
29270 Off ch=8 n=80 v=100
29280 On ch=8 n=80 v=100
29510 Off ch=8 n=80 v=100
29520 On ch=8 n=75 v=100
29680 Off ch=8 n=75 v=100
29760 On ch=8 n=71 v=100
29920 Off ch=8 n=71 v=100
30000 On ch=8 n=70 v=100
30470 Off ch=8 n=70 v=100
30480 On ch=8 n=73 v=100
30640 Off ch=8 n=73 v=100
30720 On ch=8 n=71 v=100
31190 Off ch=8 n=71 v=100
31200 On ch=8 n=75 v=100
31360 Off ch=8 n=75 v=100
31440 On ch=8 n=73 v=100
31910 Off ch=8 n=73 v=100
31920 On ch=8 n=78 v=100
32080 Off ch=8 n=78 v=100
32160 On ch=8 n=76 v=100
32320 Off ch=8 n=76 v=100
32640 On ch=8 n=87 v=100
32800 Off ch=8 n=87 v=100
33360 On ch=8 n=85 v=100
33520 Off ch=8 n=85 v=100
34080 On ch=8 n=83 v=100
34240 Off ch=8 n=83 v=100
34800 On ch=8 n=87 v=100
34910 Off ch=8 n=87 v=100
34910 On ch=8 n=88 v=100
35020 Off ch=8 n=88 v=100
35020 On ch=8 n=87 v=100
35130 Off ch=8 n=87 v=100
35130 On ch=8 n=85 v=100
35240 Off ch=8 n=85 v=100
35240 On ch=8 n=90 v=100
35240 On ch=8 n=88 v=100
35240 On ch=8 n=87 v=100
35240 On ch=8 n=83 v=100
36690 Off ch=8 n=90 v=100
36690 Off ch=8 n=88 v=100
36690 Off ch=8 n=87 v=100
36690 Off ch=8 n=83 v=100
142310 Par ch=8 c=11 v=75
142320 On ch=8 n=75 v=100
142430 Off ch=8 n=75 v=100
142440 On ch=8 n=83 v=100
142550 Off ch=8 n=83 v=100
142560 On ch=8 n=80 v=100
142670 Off ch=8 n=80 v=100
142680 On ch=8 n=75 v=100
142790 Off ch=8 n=75 v=100
142800 On ch=8 n=83 v=100
142910 Off ch=8 n=83 v=100
142920 On ch=8 n=80 v=100
143030 Off ch=8 n=80 v=100
143040 On ch=8 n=75 v=100
143150 Off ch=8 n=75 v=100
143160 On ch=8 n=83 v=100
143270 Off ch=8 n=83 v=100
143280 On ch=8 n=80 v=100
143390 Off ch=8 n=80 v=100
143400 On ch=8 n=75 v=100
143510 Off ch=8 n=75 v=100
143520 On ch=8 n=83 v=100
143630 Off ch=8 n=83 v=100
143640 On ch=8 n=80 v=100
143750 Off ch=8 n=80 v=100
143760 On ch=8 n=71 v=100
143990 Off ch=8 n=71 v=100
144000 On ch=8 n=72 v=100
144230 Off ch=8 n=72 v=100
144240 On ch=8 n=73 v=100
144470 Off ch=8 n=73 v=100
144480 On ch=8 n=74 v=100
144710 Off ch=8 n=74 v=100
144720 On ch=8 n=75 v=100
144950 Off ch=8 n=75 v=100
144960 On ch=8 n=78 v=100
145190 Off ch=8 n=78 v=100
145200 On ch=8 n=75 v=100
145310 Off ch=8 n=75 v=100
145320 On ch=8 n=83 v=100
145430 Off ch=8 n=83 v=100
145440 On ch=8 n=80 v=100
145550 Off ch=8 n=80 v=100
145560 On ch=8 n=75 v=100
145670 Off ch=8 n=75 v=100
145680 On ch=8 n=83 v=100
145790 Off ch=8 n=83 v=100
145800 On ch=8 n=80 v=100
145910 Off ch=8 n=80 v=100
145920 On ch=8 n=75 v=100
146030 Off ch=8 n=75 v=100
146040 On ch=8 n=83 v=100
146150 Off ch=8 n=83 v=100
146160 On ch=8 n=80 v=100
146270 Off ch=8 n=80 v=100
146280 On ch=8 n=75 v=100
146390 Off ch=8 n=75 v=100
146400 On ch=8 n=83 v=100
146510 Off ch=8 n=83 v=100
146520 On ch=8 n=80 v=100
146630 Off ch=8 n=80 v=100
146640 On ch=8 n=75 v=100
146870 Off ch=8 n=75 v=100
146880 On ch=8 n=74 v=100
147110 Off ch=8 n=74 v=100
147120 On ch=8 n=73 v=100
147350 Off ch=8 n=73 v=100
147360 On ch=8 n=72 v=100
147590 Off ch=8 n=72 v=100
147600 On ch=8 n=71 v=100
147830 Off ch=8 n=71 v=100
147840 On ch=8 n=68 v=100
148070 Off ch=8 n=68 v=100
148080 On ch=8 n=75 v=100
148190 Off ch=8 n=75 v=100
148200 On ch=8 n=83 v=100
148310 Off ch=8 n=83 v=100
148320 On ch=8 n=80 v=100
148430 Off ch=8 n=80 v=100
148440 On ch=8 n=75 v=100
148550 Off ch=8 n=75 v=100
148560 On ch=8 n=83 v=100
148670 Off ch=8 n=83 v=100
148680 On ch=8 n=80 v=100
148790 Off ch=8 n=80 v=100
148800 On ch=8 n=75 v=100
148910 Off ch=8 n=75 v=100
148920 On ch=8 n=83 v=100
149030 Off ch=8 n=83 v=100
149040 On ch=8 n=80 v=100
149150 Off ch=8 n=80 v=100
149160 On ch=8 n=75 v=100
149270 Off ch=8 n=75 v=100
149280 On ch=8 n=83 v=100
149390 Off ch=8 n=83 v=100
149400 On ch=8 n=80 v=100
149510 Off ch=8 n=80 v=100
149520 On ch=8 n=75 v=100
149750 Off ch=8 n=75 v=100
149760 On ch=8 n=74 v=100
149990 Off ch=8 n=74 v=100
150000 On ch=8 n=73 v=100
150230 Off ch=8 n=73 v=100
150240 On ch=8 n=72 v=100
150470 Off ch=8 n=72 v=100
150480 On ch=8 n=71 v=100
150710 Off ch=8 n=71 v=100
150720 On ch=8 n=68 v=100
150950 Off ch=8 n=68 v=100
150960 On ch=8 n=75 v=100
151070 Off ch=8 n=75 v=100
151080 On ch=8 n=83 v=100
151190 Off ch=8 n=83 v=100
151200 On ch=8 n=80 v=100
151310 Off ch=8 n=80 v=100
151320 On ch=8 n=75 v=100
151430 Off ch=8 n=75 v=100
151440 On ch=8 n=83 v=100
151550 Off ch=8 n=83 v=100
151560 On ch=8 n=80 v=100
151670 Off ch=8 n=80 v=100
151680 On ch=8 n=75 v=100
151790 Off ch=8 n=75 v=100
151800 On ch=8 n=83 v=100
151910 Off ch=8 n=83 v=100
151920 On ch=8 n=80 v=100
152030 Off ch=8 n=80 v=100
152040 On ch=8 n=75 v=100
152150 Off ch=8 n=75 v=100
152160 On ch=8 n=83 v=100
152270 Off ch=8 n=83 v=100
152280 On ch=8 n=80 v=100
152390 Off ch=8 n=80 v=100
152400 On ch=8 n=75 v=100
152630 Off ch=8 n=75 v=100
152640 On ch=8 n=74 v=100
152870 Off ch=8 n=74 v=100
152880 On ch=8 n=73 v=100
153110 Off ch=8 n=73 v=100
153120 On ch=8 n=72 v=100
153350 Off ch=8 n=72 v=100
153360 On ch=8 n=71 v=100
153590 Off ch=8 n=71 v=100
153600 On ch=8 n=68 v=100
153830 Off ch=8 n=68 v=100
153840 On ch=8 n=75 v=100
153950 Off ch=8 n=75 v=100
153960 On ch=8 n=83 v=100
154070 Off ch=8 n=83 v=100
154080 On ch=8 n=80 v=100
154190 Off ch=8 n=80 v=100
154200 On ch=8 n=75 v=100
154310 Off ch=8 n=75 v=100
154320 On ch=8 n=83 v=100
154430 Off ch=8 n=83 v=100
154440 On ch=8 n=80 v=100
154550 Off ch=8 n=80 v=100
154560 On ch=8 n=75 v=100
154670 Off ch=8 n=75 v=100
154680 On ch=8 n=83 v=100
154790 Off ch=8 n=83 v=100
154800 On ch=8 n=80 v=100
154910 Off ch=8 n=80 v=100
154920 On ch=8 n=75 v=100
155030 Off ch=8 n=75 v=100
155040 On ch=8 n=83 v=100
155150 Off ch=8 n=83 v=100
155160 On ch=8 n=80 v=100
155270 Off ch=8 n=80 v=100
155280 On ch=8 n=71 v=100
155510 Off ch=8 n=71 v=100
155520 On ch=8 n=72 v=100
155750 Off ch=8 n=72 v=100
155760 On ch=8 n=73 v=100
155990 Off ch=8 n=73 v=100
156000 On ch=8 n=74 v=100
156230 Off ch=8 n=74 v=100
156240 On ch=8 n=75 v=100
156470 Off ch=8 n=75 v=100
156480 On ch=8 n=78 v=100
156710 Off ch=8 n=78 v=100
156720 On ch=8 n=75 v=100
156830 Off ch=8 n=75 v=100
156840 On ch=8 n=83 v=100
156950 Off ch=8 n=83 v=100
156960 On ch=8 n=80 v=100
157070 Off ch=8 n=80 v=100
157080 On ch=8 n=75 v=100
157190 Off ch=8 n=75 v=100
157200 On ch=8 n=83 v=100
157310 Off ch=8 n=83 v=100
157320 On ch=8 n=80 v=100
157430 Off ch=8 n=80 v=100
157440 On ch=8 n=75 v=100
157550 Off ch=8 n=75 v=100
157560 On ch=8 n=83 v=100
157670 Off ch=8 n=83 v=100
157680 On ch=8 n=80 v=100
157790 Off ch=8 n=80 v=100
157800 On ch=8 n=75 v=100
157910 Off ch=8 n=75 v=100
157920 On ch=8 n=83 v=100
158030 Off ch=8 n=83 v=100
158040 On ch=8 n=80 v=100
158150 Off ch=8 n=80 v=100
158160 On ch=8 n=75 v=100
158390 Off ch=8 n=75 v=100
158400 On ch=8 n=74 v=100
158630 Off ch=8 n=74 v=100
158640 On ch=8 n=73 v=100
158870 Off ch=8 n=73 v=100
158880 On ch=8 n=72 v=100
159110 Off ch=8 n=72 v=100
159120 On ch=8 n=71 v=100
159350 Off ch=8 n=71 v=100
159360 On ch=8 n=68 v=100
159590 Par ch=8 c=11 v=110
159590 Off ch=8 n=68 v=100
159600 On ch=8 n=80 v=100
159760 Off ch=8 n=80 v=100
159840 On ch=8 n=75 v=100
160000 Off ch=8 n=75 v=100
160080 On ch=8 n=71 v=100
160240 Off ch=8 n=71 v=100
160320 On ch=8 n=70 v=100
160790 Off ch=8 n=70 v=100
160800 On ch=8 n=73 v=100
160960 Off ch=8 n=73 v=100
161040 On ch=8 n=71 v=100
161510 Off ch=8 n=71 v=100
161520 On ch=8 n=75 v=100
161680 Off ch=8 n=75 v=100
161760 On ch=8 n=73 v=100
162230 Off ch=8 n=73 v=100
162240 On ch=8 n=78 v=100
162400 Off ch=8 n=78 v=100
162480 On ch=8 n=75 v=100
162640 Off ch=8 n=75 v=100
162960 On ch=8 n=87 v=100
163120 Off ch=8 n=87 v=100
163680 On ch=8 n=85 v=100
163840 Off ch=8 n=85 v=100
164400 On ch=8 n=83 v=100
164560 Off ch=8 n=83 v=100
165120 On ch=8 n=87 v=100
165230 Off ch=8 n=87 v=100
165230 On ch=8 n=88 v=100
165340 Off ch=8 n=88 v=100
165340 On ch=8 n=87 v=100
165450 Off ch=8 n=87 v=100
165450 On ch=8 n=85 v=100
165560 Off ch=8 n=85 v=100
165560 On ch=8 n=90 v=100
165560 On ch=8 n=88 v=100
165560 On ch=8 n=87 v=100
165560 On ch=8 n=83 v=100
166310 Off ch=8 n=90 v=100
166310 Off ch=8 n=88 v=100
166310 Off ch=8 n=87 v=100
166310 Off ch=8 n=83 v=100
166320 On ch=8 n=85 v=100
166320 On ch=8 n=82 v=100
166320 On ch=8 n=78 v=100
167030 Off ch=8 n=85 v=100
167030 Off ch=8 n=82 v=100
167030 Off ch=8 n=78 v=100
167040 Par ch=8 c=11 v=75
167040 On ch=8 n=75 v=100
167150 Off ch=8 n=75 v=100
167160 On ch=8 n=83 v=100
167270 Off ch=8 n=83 v=100
167280 On ch=8 n=80 v=100
167390 Off ch=8 n=80 v=100
167400 On ch=8 n=75 v=100
167510 Off ch=8 n=75 v=100
167520 On ch=8 n=83 v=100
167630 Off ch=8 n=83 v=100
167640 On ch=8 n=80 v=100
167750 Off ch=8 n=80 v=100
167760 On ch=8 n=75 v=100
167870 Off ch=8 n=75 v=100
167880 On ch=8 n=83 v=100
167990 Off ch=8 n=83 v=100
168000 On ch=8 n=80 v=100
168110 Off ch=8 n=80 v=100
168120 On ch=8 n=75 v=100
168230 Off ch=8 n=75 v=100
168240 On ch=8 n=83 v=100
168350 Off ch=8 n=83 v=100
168360 On ch=8 n=80 v=100
168470 Off ch=8 n=80 v=100
168480 On ch=8 n=71 v=100
168710 Off ch=8 n=71 v=100
168720 On ch=8 n=72 v=100
168950 Off ch=8 n=72 v=100
168960 On ch=8 n=73 v=100
169190 Off ch=8 n=73 v=100
169200 On ch=8 n=74 v=100
169430 Off ch=8 n=74 v=100
169440 On ch=8 n=75 v=100
169670 Off ch=8 n=75 v=100
169680 On ch=8 n=78 v=100
169910 Off ch=8 n=78 v=100
169920 On ch=8 n=75 v=100
170030 Off ch=8 n=75 v=100
170040 On ch=8 n=83 v=100
170150 Off ch=8 n=83 v=100
170160 On ch=8 n=80 v=100
170270 Off ch=8 n=80 v=100
170280 On ch=8 n=75 v=100
170390 Off ch=8 n=75 v=100
170400 On ch=8 n=83 v=100
170510 Off ch=8 n=83 v=100
170520 On ch=8 n=80 v=100
170630 Off ch=8 n=80 v=100
170640 On ch=8 n=75 v=100
170750 Off ch=8 n=75 v=100
170760 On ch=8 n=83 v=100
170870 Off ch=8 n=83 v=100
170880 On ch=8 n=80 v=100
170990 Off ch=8 n=80 v=100
171000 On ch=8 n=75 v=100
171110 Off ch=8 n=75 v=100
171120 On ch=8 n=83 v=100
171230 Off ch=8 n=83 v=100
171240 On ch=8 n=80 v=100
171350 Off ch=8 n=80 v=100
171360 On ch=8 n=75 v=100
171590 Off ch=8 n=75 v=100
171600 On ch=8 n=74 v=100
171830 Off ch=8 n=74 v=100
171840 On ch=8 n=73 v=100
172070 Off ch=8 n=73 v=100
172080 On ch=8 n=72 v=100
172310 Off ch=8 n=72 v=100
172320 On ch=8 n=71 v=100
172550 Off ch=8 n=71 v=100
172560 On ch=8 n=68 v=100
172790 Off ch=8 n=68 v=100
172800 On ch=8 n=75 v=100
172910 Off ch=8 n=75 v=100
172920 On ch=8 n=83 v=100
173030 Off ch=8 n=83 v=100
173040 On ch=8 n=80 v=100
173150 Off ch=8 n=80 v=100
173160 On ch=8 n=75 v=100
173270 Off ch=8 n=75 v=100
173280 On ch=8 n=83 v=100
173390 Off ch=8 n=83 v=100
173400 On ch=8 n=80 v=100
173510 Off ch=8 n=80 v=100
173520 On ch=8 n=75 v=100
173630 Off ch=8 n=75 v=100
173640 On ch=8 n=83 v=100
173750 Off ch=8 n=83 v=100
173760 On ch=8 n=80 v=100
173870 Off ch=8 n=80 v=100
173880 On ch=8 n=75 v=100
173990 Off ch=8 n=75 v=100
174000 On ch=8 n=83 v=100
174110 Off ch=8 n=83 v=100
174120 On ch=8 n=80 v=100
174230 Off ch=8 n=80 v=100
174240 On ch=8 n=75 v=100
174470 Off ch=8 n=75 v=100
174480 On ch=8 n=74 v=100
174710 Off ch=8 n=74 v=100
174720 On ch=8 n=73 v=100
174950 Off ch=8 n=73 v=100
174960 On ch=8 n=72 v=100
175190 Off ch=8 n=72 v=100
175200 On ch=8 n=71 v=100
175430 Off ch=8 n=71 v=100
175440 On ch=8 n=68 v=100
175670 Off ch=8 n=68 v=100
175680 On ch=8 n=75 v=100
175790 Off ch=8 n=75 v=100
175800 On ch=8 n=83 v=100
175910 Off ch=8 n=83 v=100
175920 On ch=8 n=80 v=100
176030 Off ch=8 n=80 v=100
176040 On ch=8 n=75 v=100
176150 Off ch=8 n=75 v=100
176160 On ch=8 n=83 v=100
176270 Off ch=8 n=83 v=100
176280 On ch=8 n=80 v=100
176390 Off ch=8 n=80 v=100
176400 On ch=8 n=75 v=100
176510 Off ch=8 n=75 v=100
176520 On ch=8 n=83 v=100
176630 Off ch=8 n=83 v=100
176640 On ch=8 n=80 v=100
176750 Off ch=8 n=80 v=100
176760 On ch=8 n=75 v=100
176870 Off ch=8 n=75 v=100
176880 On ch=8 n=83 v=100
176990 Off ch=8 n=83 v=100
177000 On ch=8 n=80 v=100
177110 Off ch=8 n=80 v=100
177120 On ch=8 n=75 v=100
177350 Off ch=8 n=75 v=100
177360 On ch=8 n=74 v=100
177590 Off ch=8 n=74 v=100
177600 On ch=8 n=73 v=100
177830 Off ch=8 n=73 v=100
177840 On ch=8 n=72 v=100
178070 Off ch=8 n=72 v=100
178080 On ch=8 n=71 v=100
178310 Off ch=8 n=71 v=100
178320 On ch=8 n=68 v=100
178550 Off ch=8 n=68 v=100
178560 On ch=8 n=75 v=100
178670 Off ch=8 n=75 v=100
178680 On ch=8 n=83 v=100
178790 Off ch=8 n=83 v=100
178800 On ch=8 n=80 v=100
178910 Off ch=8 n=80 v=100
178920 On ch=8 n=75 v=100
179030 Off ch=8 n=75 v=100
179040 On ch=8 n=83 v=100
179150 Off ch=8 n=83 v=100
179160 On ch=8 n=80 v=100
179270 Off ch=8 n=80 v=100
179280 On ch=8 n=75 v=100
179390 Off ch=8 n=75 v=100
179400 On ch=8 n=83 v=100
179510 Off ch=8 n=83 v=100
179520 On ch=8 n=80 v=100
179630 Off ch=8 n=80 v=100
179640 On ch=8 n=75 v=100
179750 Off ch=8 n=75 v=100
179760 On ch=8 n=83 v=100
179870 Off ch=8 n=83 v=100
179880 On ch=8 n=80 v=100
179990 Off ch=8 n=80 v=100
180000 On ch=8 n=71 v=100
180230 Off ch=8 n=71 v=100
180240 On ch=8 n=72 v=100
180470 Off ch=8 n=72 v=100
180480 On ch=8 n=73 v=100
180710 Off ch=8 n=73 v=100
180720 On ch=8 n=74 v=100
180950 Off ch=8 n=74 v=100
180960 On ch=8 n=75 v=100
181190 Off ch=8 n=75 v=100
181200 On ch=8 n=78 v=100
181430 Off ch=8 n=78 v=100
181440 On ch=8 n=75 v=100
181550 Off ch=8 n=75 v=100
181560 On ch=8 n=83 v=100
181670 Off ch=8 n=83 v=100
181680 On ch=8 n=80 v=100
181790 Off ch=8 n=80 v=100
181800 On ch=8 n=75 v=100
181910 Off ch=8 n=75 v=100
181920 On ch=8 n=83 v=100
182030 Off ch=8 n=83 v=100
182040 On ch=8 n=80 v=100
182150 Off ch=8 n=80 v=100
182160 On ch=8 n=75 v=100
182270 Off ch=8 n=75 v=100
182280 On ch=8 n=83 v=100
182390 Off ch=8 n=83 v=100
182400 On ch=8 n=80 v=100
182510 Off ch=8 n=80 v=100
182520 On ch=8 n=75 v=100
182630 Off ch=8 n=75 v=100
182640 On ch=8 n=83 v=100
182750 Off ch=8 n=83 v=100
182760 On ch=8 n=80 v=100
182870 Off ch=8 n=80 v=100
182880 On ch=8 n=75 v=100
183110 Off ch=8 n=75 v=100
183120 On ch=8 n=74 v=100
183350 Off ch=8 n=74 v=100
183360 On ch=8 n=73 v=100
183590 Off ch=8 n=73 v=100
183600 On ch=8 n=72 v=100
183830 Off ch=8 n=72 v=100
183840 On ch=8 n=71 v=100
184070 Off ch=8 n=71 v=100
184080 On ch=8 n=68 v=100
184310 Off ch=8 n=68 v=100
184320 Par ch=8 c=11 v=110
184320 On ch=8 n=80 v=100
184480 Off ch=8 n=80 v=100
184560 On ch=8 n=75 v=100
184720 Off ch=8 n=75 v=100
184800 On ch=8 n=71 v=100
184960 Off ch=8 n=71 v=100
185040 On ch=8 n=70 v=100
185510 Off ch=8 n=70 v=100
185520 On ch=8 n=73 v=100
185680 Off ch=8 n=73 v=100
185760 On ch=8 n=71 v=100
186230 Off ch=8 n=71 v=100
186240 On ch=8 n=75 v=100
186400 Off ch=8 n=75 v=100
186480 On ch=8 n=73 v=100
186950 Off ch=8 n=73 v=100
186960 On ch=8 n=78 v=100
187120 Off ch=8 n=78 v=100
187200 On ch=8 n=75 v=100
187360 Off ch=8 n=75 v=100
187680 On ch=8 n=87 v=100
187840 Off ch=8 n=87 v=100
188400 On ch=8 n=85 v=100
188560 Off ch=8 n=85 v=100
189120 On ch=8 n=83 v=100
189280 Off ch=8 n=83 v=100
189840 On ch=8 n=87 v=100
189950 Off ch=8 n=87 v=100
189950 On ch=8 n=88 v=100
190060 Off ch=8 n=88 v=100
190060 On ch=8 n=87 v=100
190170 Off ch=8 n=87 v=100
190170 On ch=8 n=85 v=100
190280 Off ch=8 n=85 v=100
190280 On ch=8 n=90 v=100
190280 On ch=8 n=88 v=100
190280 On ch=8 n=87 v=100
190280 On ch=8 n=83 v=100
191030 Off ch=8 n=90 v=100
191030 Off ch=8 n=88 v=100
191030 Off ch=8 n=87 v=100
191030 Off ch=8 n=83 v=100
191040 On ch=8 n=85 v=100
191040 On ch=8 n=82 v=100
191040 On ch=8 n=78 v=100
191750 Off ch=8 n=85 v=100
191750 Off ch=8 n=82 v=100
191750 Off ch=8 n=78 v=100
191760 On ch=8 n=85 v=100
191760 On ch=8 n=80 v=100
191760 On ch=8 n=75 v=100
194630 Off ch=8 n=85 v=100
194630 Off ch=8 n=80 v=100
194630 Off ch=8 n=75 v=100
194640 On ch=8 n=85 v=100
194640 On ch=8 n=80 v=100
194640 On ch=8 n=76 v=100
197510 Off ch=8 n=85 v=100
197510 Off ch=8 n=80 v=100
197510 Off ch=8 n=76 v=100
197520 On ch=8 n=85 v=100
197520 On ch=8 n=82 v=100
197520 On ch=8 n=80 v=100
197520 On ch=8 n=77 v=100
200390 Off ch=8 n=85 v=100
200390 Off ch=8 n=82 v=100
200390 Off ch=8 n=80 v=100
200390 Off ch=8 n=77 v=100
200400 On ch=8 n=87 v=100
200400 On ch=8 n=83 v=100
200400 On ch=8 n=80 v=100
200400 On ch=8 n=78 v=100
203270 Off ch=8 n=87 v=100
203270 Off ch=8 n=83 v=100
203270 Off ch=8 n=80 v=100
203270 Off ch=8 n=78 v=100
203280 On ch=8 n=85 v=100
203280 On ch=8 n=82 v=100
203280 On ch=8 n=78 v=100
206150 Off ch=8 n=85 v=100
206150 Off ch=8 n=82 v=100
206150 Off ch=8 n=78 v=100
206160 On ch=8 n=85 v=100
206160 On ch=8 n=80 v=100
206160 On ch=8 n=75 v=100
209030 Off ch=8 n=85 v=100
209030 Off ch=8 n=80 v=100
209030 Off ch=8 n=75 v=100
209040 On ch=8 n=85 v=100
209040 On ch=8 n=80 v=100
209040 On ch=8 n=76 v=100
211910 Off ch=8 n=85 v=100
211910 Off ch=8 n=80 v=100
211910 Off ch=8 n=76 v=100
211920 On ch=8 n=85 v=100
211920 On ch=8 n=82 v=100
211920 On ch=8 n=80 v=100
211920 On ch=8 n=77 v=100
214790 Off ch=8 n=85 v=100
214790 Off ch=8 n=82 v=100
214790 Off ch=8 n=80 v=100
214790 Off ch=8 n=77 v=100
214800 On ch=8 n=87 v=100
214800 On ch=8 n=83 v=100
214800 On ch=8 n=80 v=100
214800 On ch=8 n=78 v=100
217670 Off ch=8 n=87 v=100
217670 Off ch=8 n=83 v=100
217670 Off ch=8 n=80 v=100
217670 Off ch=8 n=78 v=100
217680 On ch=8 n=85 v=100
217680 On ch=8 n=82 v=100
217680 On ch=8 n=78 v=100
220550 Off ch=8 n=85 v=100
220550 Off ch=8 n=82 v=100
220550 Off ch=8 n=78 v=100
220560 On ch=8 n=85 v=100
220560 On ch=8 n=80 v=100
220560 On ch=8 n=75 v=100
223430 Off ch=8 n=85 v=100
223430 Off ch=8 n=80 v=100
223430 Off ch=8 n=75 v=100
223440 On ch=8 n=80 v=100
223600 Off ch=8 n=80 v=100
223680 On ch=8 n=75 v=100
223840 Off ch=8 n=75 v=100
223920 On ch=8 n=71 v=100
224080 Off ch=8 n=71 v=100
224160 On ch=8 n=70 v=100
224630 Off ch=8 n=70 v=100
224640 On ch=8 n=73 v=100
224800 Off ch=8 n=73 v=100
224880 On ch=8 n=71 v=100
225350 Off ch=8 n=71 v=100
225360 On ch=8 n=75 v=100
225520 Off ch=8 n=75 v=100
225600 On ch=8 n=73 v=100
226070 Off ch=8 n=73 v=100
226080 On ch=8 n=78 v=100
226240 Off ch=8 n=78 v=100
226320 On ch=8 n=75 v=100
226480 Off ch=8 n=75 v=100
226800 On ch=8 n=87 v=100
226960 Off ch=8 n=87 v=100
227520 On ch=8 n=85 v=100
227680 Off ch=8 n=85 v=100
228240 On ch=8 n=83 v=100
228400 Off ch=8 n=83 v=100
228960 On ch=8 n=87 v=100
229070 Off ch=8 n=87 v=100
229070 On ch=8 n=88 v=100
229180 Off ch=8 n=88 v=100
229180 On ch=8 n=87 v=100
229290 Off ch=8 n=87 v=100
229290 On ch=8 n=85 v=100
229400 Off ch=8 n=85 v=100
229400 On ch=8 n=87 v=100
229400 On ch=8 n=83 v=100
229400 On ch=8 n=80 v=100
231830 Off ch=8 n=87 v=100
231830 Off ch=8 n=83 v=100
231830 Off ch=8 n=80 v=100
315360 Par ch=8 c=11 v=100
318240 On ch=8 n=75 v=90
318470 Off ch=8 n=75 v=90
318480 On ch=8 n=72 v=90
318710 Off ch=8 n=72 v=90
318720 On ch=8 n=73 v=90
318950 Off ch=8 n=73 v=90
318960 On ch=8 n=78 v=90
319190 Off ch=8 n=78 v=90
319200 On ch=8 n=76 v=90
319430 Off ch=8 n=76 v=90
319440 On ch=8 n=77 v=90
319670 Off ch=8 n=77 v=90
319680 On ch=8 n=82 v=90
319910 Off ch=8 n=82 v=90
319920 On ch=8 n=79 v=90
320150 Off ch=8 n=79 v=90
320160 On ch=8 n=80 v=90
320390 Off ch=8 n=80 v=90
320400 On ch=8 n=87 v=90
320630 Off ch=8 n=87 v=90
320640 On ch=8 n=84 v=90
320870 Off ch=8 n=84 v=90
320880 On ch=8 n=85 v=90
321110 Off ch=8 n=85 v=90
321120 On ch=8 n=83 v=90
321350 Off ch=8 n=83 v=90
321360 On ch=8 n=81 v=90
321590 Off ch=8 n=81 v=90
321600 On ch=8 n=78 v=90
321830 Off ch=8 n=78 v=90
321840 On ch=8 n=83 v=90
322070 Off ch=8 n=83 v=90
322080 On ch=8 n=81 v=90
322310 Off ch=8 n=81 v=90
322320 On ch=8 n=76 v=90
322550 Off ch=8 n=76 v=90
322560 On ch=8 n=83 v=90
322790 Off ch=8 n=83 v=90
322800 On ch=8 n=81 v=90
323030 Off ch=8 n=81 v=90
323040 On ch=8 n=75 v=90
323270 Off ch=8 n=75 v=90
323280 On ch=8 n=83 v=90
323510 Off ch=8 n=83 v=90
323520 On ch=8 n=81 v=90
323750 Off ch=8 n=81 v=90
323760 On ch=8 n=73 v=90
323990 Off ch=8 n=73 v=90
324000 On ch=8 n=83 v=90
324230 Off ch=8 n=83 v=90
324240 On ch=8 n=81 v=90
324470 Off ch=8 n=81 v=90
324480 On ch=8 n=71 v=90
324710 Off ch=8 n=71 v=90
324720 On ch=8 n=83 v=90
324950 Off ch=8 n=83 v=90
324960 On ch=8 n=81 v=90
325190 Off ch=8 n=81 v=90
325200 On ch=8 n=71 v=90
325430 Off ch=8 n=71 v=90
325440 On ch=8 n=83 v=90
325670 Off ch=8 n=83 v=90
325920 On ch=8 n=83 v=90
326150 Off ch=8 n=83 v=90
326160 On ch=8 n=81 v=90
326390 Off ch=8 n=81 v=90
326400 On ch=8 n=78 v=90
326630 Off ch=8 n=78 v=90
326640 On ch=8 n=83 v=90
326870 Off ch=8 n=83 v=90
326880 On ch=8 n=81 v=90
327110 Off ch=8 n=81 v=90
327120 On ch=8 n=76 v=90
327350 Off ch=8 n=76 v=90
327360 On ch=8 n=83 v=90
327590 Off ch=8 n=83 v=90
327600 On ch=8 n=81 v=90
327830 Off ch=8 n=81 v=90
327840 On ch=8 n=75 v=90
328070 Off ch=8 n=75 v=90
328080 On ch=8 n=83 v=90
328310 Off ch=8 n=83 v=90
328320 On ch=8 n=81 v=90
328550 Off ch=8 n=81 v=90
328560 On ch=8 n=73 v=90
328790 Off ch=8 n=73 v=90
328800 On ch=8 n=83 v=90
329030 Off ch=8 n=83 v=90
329040 On ch=8 n=81 v=90
329270 Off ch=8 n=81 v=90
329280 On ch=8 n=71 v=90
329510 Off ch=8 n=71 v=90
329520 On ch=8 n=83 v=90
329750 Off ch=8 n=83 v=90
329760 On ch=8 n=81 v=90
329990 Off ch=8 n=81 v=90
330000 On ch=8 n=71 v=90
330230 Off ch=8 n=71 v=90
330240 On ch=8 n=83 v=90
330470 Off ch=8 n=83 v=90
330720 Par ch=8 c=11 v=118
331200 On ch=8 n=83 v=90
331200 On ch=8 n=81 v=90
331200 On ch=8 n=76 v=90
331340 Off ch=8 n=83 v=90
331340 Off ch=8 n=81 v=90
331340 Off ch=8 n=76 v=90
331440 On ch=8 n=83 v=80
331440 On ch=8 n=81 v=80
331440 On ch=8 n=76 v=80
331580 Off ch=8 n=83 v=80
331580 Off ch=8 n=81 v=80
331580 Off ch=8 n=76 v=80
331680 On ch=8 n=83 v=90
331680 On ch=8 n=81 v=90
331680 On ch=8 n=76 v=90
332712 Par ch=8 c=7 v=99
332954 Par ch=8 c=7 v=97
333160 Par ch=8 c=7 v=94
333292 Par ch=8 c=7 v=92
333422 Par ch=8 c=7 v=89
333628 Par ch=8 c=7 v=87
333872 Par ch=8 c=7 v=84
334169 Par ch=8 c=7 v=82
334449 Par ch=8 c=7 v=79
334655 Par ch=8 c=7 v=77
334861 Par ch=8 c=7 v=74
334954 Par ch=8 c=7 v=72
335048 Par ch=8 c=7 v=69
335160 Par ch=8 c=7 v=67
335254 Par ch=8 c=7 v=64
335328 Par ch=8 c=7 v=62
335496 Par ch=8 c=7 v=59
335815 Par ch=8 c=7 v=57
335984 Par ch=8 c=7 v=54
336171 Par ch=8 c=7 v=52
336414 Par ch=8 c=7 v=49
336601 Par ch=8 c=7 v=47
336788 Par ch=8 c=7 v=44
337910 Off ch=8 n=83 v=90
337910 Off ch=8 n=81 v=90
337910 Off ch=8 n=76 v=90
337920 Par ch=8 c=7 v=89
337920 On ch=8 n=76 v=90
337920 On ch=8 n=71 v=90
337920 On ch=8 n=68 v=90
340790 Off ch=8 n=76 v=90
340790 Off ch=8 n=71 v=90
340790 Off ch=8 n=68 v=90
340800 On ch=8 n=78 v=90
340800 On ch=8 n=73 v=90
340800 On ch=8 n=69 v=90
345110 Off ch=8 n=78 v=90
345110 Off ch=8 n=73 v=90
345110 Off ch=8 n=69 v=90
345120 On ch=8 n=76 v=90
345120 On ch=8 n=71 v=90
345120 On ch=8 n=68 v=90
347990 Off ch=8 n=76 v=90
347990 Off ch=8 n=71 v=90
347990 Off ch=8 n=68 v=90
352320 Par ch=8 c=98 v=33
352330 Par ch=8 c=99 v=1
352340 Par ch=8 c=6 v=64
352350 Par ch=8 c=98 v=32
352360 Par ch=8 c=99 v=1
352370 Par ch=8 c=6 v=64
353760 Par ch=8 c=10 v=40
353770 PrCh ch=8 p=1
353780 Par ch=8 c=11 v=85
353790 Par ch=8 c=93 v=0
355440 On ch=8 n=63 v=90
355440 On ch=8 n=58 v=90
355440 On ch=8 n=53 v=90
355640 Off ch=8 n=63 v=90
355640 Off ch=8 n=58 v=90
355640 Off ch=8 n=53 v=90
355920 On ch=8 n=58 v=90
355920 On ch=8 n=53 v=90
355920 On ch=8 n=63 v=90
356150 Off ch=8 n=63 v=90
356160 On ch=8 n=61 v=90
356630 Off ch=8 n=61 v=90
356640 Off ch=8 n=58 v=90
356640 Off ch=8 n=53 v=90
356640 On ch=8 n=63 v=90
356640 On ch=8 n=58 v=90
356640 On ch=8 n=54 v=90
358070 Off ch=8 n=63 v=90
358070 Off ch=8 n=58 v=90
358070 Off ch=8 n=54 v=90
358320 On ch=8 n=63 v=90
358320 On ch=8 n=58 v=90
358320 On ch=8 n=54 v=90
358500 Off ch=8 n=63 v=90
358500 Off ch=8 n=58 v=90
358500 Off ch=8 n=54 v=90
358800 On ch=8 n=63 v=90
358800 On ch=8 n=58 v=90
358800 On ch=8 n=54 v=90
358980 Off ch=8 n=63 v=90
358980 Off ch=8 n=58 v=90
358980 Off ch=8 n=54 v=90
359280 On ch=8 n=63 v=90
359280 On ch=8 n=58 v=90
359280 On ch=8 n=54 v=90
359460 Off ch=8 n=63 v=90
359460 Off ch=8 n=58 v=90
359460 Off ch=8 n=54 v=90
359520 On ch=8 n=63 v=90
359520 On ch=8 n=58 v=90
359520 On ch=8 n=55 v=90
360230 Off ch=8 n=63 v=90
360230 Off ch=8 n=58 v=90
360230 Off ch=8 n=55 v=90
360240 On ch=8 n=60 v=90
360240 On ch=8 n=55 v=90
360710 Off ch=8 n=60 v=90
360710 Off ch=8 n=55 v=90
360720 On ch=8 n=55 v=90
360720 On ch=8 n=51 v=90
360950 Off ch=8 n=55 v=90
360950 Off ch=8 n=51 v=90
360960 On ch=8 n=60 v=90
360960 On ch=8 n=55 v=90
361190 Off ch=8 n=60 v=90
361190 Off ch=8 n=55 v=90
361200 On ch=8 n=55 v=90
361430 Off ch=8 n=55 v=90
361440 On ch=8 n=67 v=90
362390 Off ch=8 n=67 v=90
362400 On ch=8 n=61 v=90
362400 On ch=8 n=56 v=90
362400 On ch=8 n=53 v=90
363110 Off ch=8 n=61 v=90
363110 Off ch=8 n=56 v=90
363110 Off ch=8 n=53 v=90
363120 On ch=8 n=58 v=90
363120 On ch=8 n=53 v=90
363590 Off ch=8 n=58 v=90
363590 Off ch=8 n=53 v=90
363600 On ch=8 n=53 v=90
363600 On ch=8 n=49 v=90
363830 Off ch=8 n=53 v=90
363830 Off ch=8 n=49 v=90
363840 On ch=8 n=58 v=90
363840 On ch=8 n=53 v=90
364070 Off ch=8 n=58 v=90
364070 Off ch=8 n=53 v=90
364080 On ch=8 n=53 v=90
364310 Off ch=8 n=53 v=90
364320 On ch=8 n=65 v=90
365270 Off ch=8 n=65 v=90
365280 On ch=8 n=60 v=90
365280 On ch=8 n=56 v=90
365280 On ch=8 n=51 v=90
366960 Off ch=8 n=51 v=90
366960 On ch=8 n=51 v=90
367480 Off ch=8 n=60 v=90
367480 Off ch=8 n=56 v=90
368140 Off ch=8 n=51 v=90
368160 On ch=8 n=60 v=90
368160 On ch=8 n=56 v=90
368160 On ch=8 n=51 v=90
369340 Off ch=8 n=60 v=90
369340 Off ch=8 n=56 v=90
369340 Off ch=8 n=51 v=90
369360 On ch=8 n=68 v=90
370070 Off ch=8 n=68 v=90
370080 On ch=8 n=63 v=90
371030 Off ch=8 n=63 v=90
372720 On ch=8 n=63 v=90
372720 On ch=8 n=58 v=90
372720 On ch=8 n=53 v=90
372920 Off ch=8 n=63 v=90
372920 Off ch=8 n=58 v=90
372920 Off ch=8 n=53 v=90
373200 On ch=8 n=58 v=90
373200 On ch=8 n=53 v=90
373200 On ch=8 n=63 v=90
373430 Off ch=8 n=63 v=90
373440 On ch=8 n=61 v=90
373910 Off ch=8 n=61 v=90
373920 Off ch=8 n=58 v=90
373920 Off ch=8 n=53 v=90
373920 On ch=8 n=63 v=90
373920 On ch=8 n=58 v=90
373920 On ch=8 n=54 v=90
374870 Off ch=8 n=63 v=90
374870 Off ch=8 n=58 v=90
374870 Off ch=8 n=54 v=90
375120 On ch=8 n=63 v=90
375120 On ch=8 n=58 v=90
375120 On ch=8 n=54 v=90
376770 Off ch=8 n=63 v=90
376770 Off ch=8 n=58 v=90
376770 Off ch=8 n=54 v=90
376800 On ch=8 n=55 v=90
377270 Off ch=8 n=55 v=90
377280 On ch=8 n=60 v=90
377510 Off ch=8 n=60 v=90
377520 On ch=8 n=67 v=90
377750 Off ch=8 n=67 v=90
377760 On ch=8 n=63 v=90
378230 Off ch=8 n=63 v=90
378240 On ch=8 n=60 v=90
378470 Off ch=8 n=60 v=90
378480 On ch=8 n=55 v=90
378710 Off ch=8 n=55 v=90
378720 On ch=8 n=51 v=90
379670 Off ch=8 n=51 v=90
379680 On ch=8 n=65 v=90
379680 On ch=8 n=61 v=90
379680 On ch=8 n=58 v=90
380390 Off ch=8 n=65 v=90
380390 Off ch=8 n=61 v=90
380390 Off ch=8 n=58 v=90
380400 On ch=8 n=70 v=90
380400 On ch=8 n=65 v=90
380400 On ch=8 n=61 v=90
381110 Off ch=8 n=70 v=90
381110 Off ch=8 n=65 v=90
381110 Off ch=8 n=61 v=90
381120 On ch=8 n=73 v=90
381120 On ch=8 n=70 v=90
381120 On ch=8 n=65 v=90
381830 Off ch=8 n=73 v=90
381830 Off ch=8 n=70 v=90
381830 Off ch=8 n=65 v=90
381840 On ch=8 n=77 v=90
381840 On ch=8 n=73 v=90
381840 On ch=8 n=70 v=90
382550 Off ch=8 n=77 v=90
382550 Off ch=8 n=73 v=90
382550 Off ch=8 n=70 v=90
382560 On ch=8 n=60 v=90
382560 On ch=8 n=56 v=90
382560 On ch=8 n=51 v=90
383270 Off ch=8 n=60 v=90
383270 Off ch=8 n=56 v=90
383270 Off ch=8 n=51 v=90
383280 On ch=8 n=60 v=90
383280 On ch=8 n=56 v=90
383280 On ch=8 n=51 v=90
383990 Off ch=8 n=60 v=90
383990 Off ch=8 n=56 v=90
383990 Off ch=8 n=51 v=90
384000 On ch=8 n=60 v=90
384000 On ch=8 n=56 v=90
384000 On ch=8 n=51 v=90
385430 Off ch=8 n=60 v=90
385430 Off ch=8 n=56 v=90
385430 Off ch=8 n=51 v=90
385440 On ch=8 n=60 v=90
385440 On ch=8 n=56 v=90
385440 On ch=8 n=51 v=90
386870 Off ch=8 n=60 v=90
386870 Off ch=8 n=56 v=90
386870 Off ch=8 n=51 v=90
386880 On ch=8 n=63 v=90
388310 Off ch=8 n=63 v=90
388320 Par ch=8 c=10 v=115
388330 PrCh ch=8 p=27
388340 Par ch=8 c=11 v=118
388350 Par ch=8 c=98 v=33
388360 Par ch=8 c=99 v=1
388370 Par ch=8 c=6 v=70
388380 Par ch=8 c=98 v=32
388390 Par ch=8 c=99 v=1
388400 Par ch=8 c=6 v=55
388410 Par ch=8 c=91 v=70
388420 Par ch=8 c=93 v=50
389760 On ch=8 n=53 v=100
389760 On ch=8 n=49 v=100
389760 On ch=8 n=46 v=100
389760 On ch=8 n=34 v=100
391190 Off ch=8 n=53 v=100
391190 Off ch=8 n=49 v=100
391190 Off ch=8 n=46 v=100
391190 Off ch=8 n=34 v=100
392640 On ch=8 n=54 v=100
392640 On ch=8 n=51 v=100
392640 On ch=8 n=46 v=100
392640 On ch=8 n=39 v=100
394070 Par ch=8 c=11 v=108
394070 Off ch=8 n=54 v=100
394070 Off ch=8 n=51 v=100
394070 Off ch=8 n=46 v=100
394070 Off ch=8 n=39 v=100
394080 On ch=8 n=39 v=80
394320 On ch=8 n=46 v=80
394550 Off ch=8 n=46 v=80
394560 On ch=8 n=51 v=80
394790 Off ch=8 n=51 v=80
394800 On ch=8 n=55 v=80
395030 Off ch=8 n=55 v=80
395040 On ch=8 n=51 v=80
395270 Off ch=8 n=51 v=80
395280 On ch=8 n=46 v=80
395480 Off ch=8 n=39 v=80
395510 Off ch=8 n=46 v=80
395520 On ch=8 n=39 v=80
395760 On ch=8 n=46 v=80
395990 Off ch=8 n=46 v=80
396000 On ch=8 n=51 v=80
396230 Off ch=8 n=51 v=80
396240 On ch=8 n=55 v=80
396470 Off ch=8 n=55 v=80
396480 On ch=8 n=51 v=80
396710 Off ch=8 n=51 v=80
396720 On ch=8 n=46 v=80
396920 Off ch=8 n=39 v=80
396950 Off ch=8 n=46 v=80
396960 On ch=8 n=37 v=80
397200 On ch=8 n=44 v=80
397430 Off ch=8 n=44 v=80
397440 On ch=8 n=49 v=80
397670 Off ch=8 n=49 v=80
397680 On ch=8 n=53 v=80
397910 Off ch=8 n=53 v=80
397920 On ch=8 n=49 v=80
398150 Off ch=8 n=49 v=80
398160 On ch=8 n=44 v=80
398360 Off ch=8 n=37 v=80
398390 Off ch=8 n=44 v=80
398400 On ch=8 n=37 v=80
398640 On ch=8 n=44 v=80
398870 Off ch=8 n=44 v=80
398880 On ch=8 n=49 v=80
399110 Off ch=8 n=49 v=80
399120 On ch=8 n=53 v=80
399350 Off ch=8 n=53 v=80
399360 On ch=8 n=49 v=80
399590 Off ch=8 n=49 v=80
399600 On ch=8 n=44 v=80
399800 Off ch=8 n=37 v=80
399830 Off ch=8 n=44 v=80
399840 On ch=8 n=32 v=80
400080 On ch=8 n=44 v=80
400310 Off ch=8 n=44 v=80
400320 On ch=8 n=51 v=80
400790 Off ch=8 n=51 v=80
400800 On ch=8 n=48 v=80
401030 Off ch=8 n=48 v=80
401040 On ch=8 n=44 v=80
401240 Off ch=8 n=32 v=80
401270 Off ch=8 n=44 v=80
401280 On ch=8 n=32 v=80
401520 On ch=8 n=44 v=80
401750 Off ch=8 n=44 v=80
401760 On ch=8 n=56 v=80
401990 Off ch=8 n=56 v=80
402000 On ch=8 n=51 v=80
402230 Off ch=8 n=51 v=80
402240 On ch=8 n=48 v=80
402470 Off ch=8 n=48 v=80
402480 On ch=8 n=44 v=80
402680 Off ch=8 n=32 v=80
402710 Off ch=8 n=44 v=80
402720 On ch=8 n=32 v=80
402960 On ch=8 n=44 v=80
403190 Off ch=8 n=44 v=80
403200 On ch=8 n=56 v=80
403430 Off ch=8 n=56 v=80
403440 On ch=8 n=51 v=80
403670 Off ch=8 n=51 v=80
403680 On ch=8 n=48 v=80
403910 Off ch=8 n=48 v=80
403920 On ch=8 n=44 v=80
404120 Off ch=8 n=32 v=80
404150 Off ch=8 n=44 v=80
404160 On ch=8 n=32 v=80
404400 On ch=8 n=44 v=80
404630 Off ch=8 n=44 v=80
404640 On ch=8 n=56 v=80
404870 Off ch=8 n=56 v=80
404880 On ch=8 n=51 v=80
405110 Off ch=8 n=51 v=80
405120 On ch=8 n=48 v=80
405350 Off ch=8 n=48 v=80
405360 On ch=8 n=44 v=80
405560 Off ch=8 n=32 v=80
405590 Off ch=8 n=44 v=80
407030 Par ch=8 c=11 v=118
407040 On ch=8 n=53 v=100
407040 On ch=8 n=49 v=100
407040 On ch=8 n=46 v=100
407040 On ch=8 n=34 v=100
408470 Off ch=8 n=53 v=100
408470 Off ch=8 n=49 v=100
408470 Off ch=8 n=46 v=100
408470 Off ch=8 n=34 v=100
409920 On ch=8 n=54 v=100
409920 On ch=8 n=51 v=100
409920 On ch=8 n=46 v=100
409920 On ch=8 n=39 v=100
411350 Off ch=8 n=54 v=100
411350 Off ch=8 n=51 v=100
411350 Off ch=8 n=46 v=100
411350 Off ch=8 n=39 v=100
411360 Par ch=8 c=11 v=108
411360 On ch=8 n=39 v=80
411600 On ch=8 n=46 v=80
411830 Off ch=8 n=46 v=80
411840 On ch=8 n=51 v=80
412070 Off ch=8 n=51 v=80
412080 On ch=8 n=55 v=80
412310 Off ch=8 n=55 v=80
412320 On ch=8 n=51 v=80
412550 Off ch=8 n=51 v=80
412560 On ch=8 n=46 v=80
412760 Off ch=8 n=39 v=80
412790 Off ch=8 n=46 v=80
412800 On ch=8 n=39 v=80
413040 On ch=8 n=46 v=80
413270 Off ch=8 n=46 v=80
413280 On ch=8 n=51 v=80
413510 Off ch=8 n=51 v=80
413520 On ch=8 n=55 v=80
413750 Off ch=8 n=55 v=80
413760 On ch=8 n=51 v=80
413990 Off ch=8 n=51 v=80
414000 On ch=8 n=46 v=80
414200 Off ch=8 n=39 v=80
414230 Off ch=8 n=46 v=80
414240 On ch=8 n=37 v=80
414480 On ch=8 n=44 v=80
414710 Off ch=8 n=44 v=80
414720 On ch=8 n=49 v=80
414950 Off ch=8 n=49 v=80
414960 On ch=8 n=53 v=80
415190 Off ch=8 n=53 v=80
415200 On ch=8 n=49 v=80
415430 Off ch=8 n=49 v=80
415440 On ch=8 n=44 v=80
415640 Off ch=8 n=37 v=80
415670 Off ch=8 n=44 v=80
415680 On ch=8 n=37 v=80
415920 On ch=8 n=44 v=80
416150 Off ch=8 n=44 v=80
416160 On ch=8 n=49 v=80
416390 Off ch=8 n=49 v=80
416400 On ch=8 n=53 v=80
416630 Off ch=8 n=53 v=80
416640 On ch=8 n=49 v=80
416870 Off ch=8 n=49 v=80
416880 On ch=8 n=44 v=80
417080 Off ch=8 n=37 v=80
417110 Off ch=8 n=44 v=80
417120 On ch=8 n=32 v=80
417360 On ch=8 n=44 v=80
417590 Off ch=8 n=44 v=80
417600 On ch=8 n=56 v=80
417830 Off ch=8 n=56 v=80
417840 On ch=8 n=51 v=80
418070 Off ch=8 n=51 v=80
418080 On ch=8 n=48 v=80
418310 Off ch=8 n=48 v=80
418320 On ch=8 n=44 v=80
418520 Off ch=8 n=32 v=80
418550 Off ch=8 n=44 v=80
418560 On ch=8 n=32 v=80
418800 On ch=8 n=44 v=80
419030 Off ch=8 n=44 v=80
419040 On ch=8 n=56 v=80
419270 Off ch=8 n=56 v=80
419280 On ch=8 n=51 v=80
419510 Off ch=8 n=51 v=80
419520 On ch=8 n=48 v=80
419750 Off ch=8 n=48 v=80
419760 On ch=8 n=44 v=80
419960 Off ch=8 n=32 v=80
419990 Off ch=8 n=44 v=80
420000 On ch=8 n=32 v=80
420240 On ch=8 n=44 v=80
420470 Off ch=8 n=44 v=80
420480 On ch=8 n=56 v=80
420710 Off ch=8 n=56 v=80
420720 On ch=8 n=51 v=80
420950 Off ch=8 n=51 v=80
420960 On ch=8 n=48 v=80
421190 Off ch=8 n=48 v=80
421200 On ch=8 n=44 v=80
421400 Off ch=8 n=32 v=80
421430 Off ch=8 n=44 v=80
421440 On ch=8 n=32 v=80
421680 On ch=8 n=44 v=80
421910 Off ch=8 n=44 v=80
421920 On ch=8 n=56 v=80
422150 Off ch=8 n=56 v=80
422160 On ch=8 n=51 v=80
422390 Off ch=8 n=51 v=80
422400 On ch=8 n=48 v=80
422630 Off ch=8 n=48 v=80
422640 On ch=8 n=44 v=80
422840 Off ch=8 n=32 v=80
422870 Off ch=8 n=44 v=80
422880 On ch=8 n=37 v=80
424310 Off ch=8 n=37 v=80
424320 On ch=8 n=36 v=80
425750 Off ch=8 n=36 v=80
425760 On ch=8 n=34 v=80
427190 Off ch=8 n=34 v=80
443040 On ch=8 n=71 v=111
443040 On ch=8 n=69 v=111
443040 On ch=8 n=64 v=111
443280 Off ch=8 n=71 v=111
443280 Off ch=8 n=69 v=111
443280 Off ch=8 n=64 v=111
443280 On ch=8 n=71 v=111
443280 On ch=8 n=64 v=111
443280 On ch=8 n=69 v=111
443520 Off ch=8 n=71 v=111
443520 Off ch=8 n=64 v=111
443520 Off ch=8 n=69 v=111
443520 On ch=8 n=71 v=111
443520 On ch=8 n=64 v=111
443520 On ch=8 n=69 v=111
449760 Off ch=8 n=71 v=111
449760 Off ch=8 n=64 v=111
449760 Off ch=8 n=69 v=111
454560 Par ch=8 c=99 v=1
454560 Par ch=8 c=98 v=33
454560 Par ch=8 c=6 v=64
454560 Par ch=8 c=38 v=0
454560 Par ch=8 c=99 v=1
454560 Par ch=8 c=98 v=99
454560 Par ch=8 c=6 v=75
454560 Par ch=8 c=38 v=0
454560 Par ch=8 c=99 v=1
454560 Par ch=8 c=98 v=32
454560 Par ch=8 c=6 v=64
454560 Par ch=8 c=38 v=0
454568 On ch=8 n=62 v=84
454576 On ch=8 n=64 v=111
454590 On ch=8 n=71 v=111
457440 Off ch=8 n=64 v=111
457440 Off ch=8 n=62 v=84
457440 Off ch=8 n=71 v=111
457440 Par ch=8 c=99 v=1
457440 Par ch=8 c=98 v=99
457440 Par ch=8 c=6 v=64
457440 Par ch=8 c=38 v=0
457440 On ch=8 n=68 v=86
457440 On ch=8 n=59 v=86
457440 On ch=8 n=64 v=86
460320 Off ch=8 n=68 v=86
460320 Off ch=8 n=59 v=86
460320 Off ch=8 n=64 v=86
460320 On ch=8 n=69 v=86
460320 On ch=8 n=61 v=86
460320 On ch=8 n=64 v=86
464640 Off ch=8 n=69 v=86
464640 Off ch=8 n=61 v=86
464640 Off ch=8 n=64 v=86
464640 On ch=8 n=69 v=86
464640 On ch=8 n=59 v=86
464640 On ch=8 n=64 v=86
467520 Off ch=8 n=69 v=86
467520 Off ch=8 n=59 v=86
467520 Off ch=8 n=64 v=86
471000 PrCh ch=8 p=81
471120 On ch=8 n=63 v=111
471240 Off ch=8 n=63 v=111
471240 On ch=8 n=61 v=111
471360 Off ch=8 n=61 v=111
471360 On ch=8 n=62 v=111
471480 Off ch=8 n=62 v=111
471480 On ch=8 n=68 v=111
471600 Off ch=8 n=68 v=111
471600 On ch=8 n=66 v=111
471720 Off ch=8 n=66 v=111
471720 On ch=8 n=67 v=111
471840 Off ch=8 n=67 v=111
471840 On ch=8 n=75 v=111
472080 Off ch=8 n=75 v=111
472080 On ch=8 n=70 v=111
472197 Off ch=8 n=70 v=111
472320 On ch=8 n=63 v=111
472440 Off ch=8 n=63 v=111
472440 On ch=8 n=61 v=111
472560 Off ch=8 n=61 v=111
472560 On ch=8 n=62 v=111
472680 Off ch=8 n=62 v=111
472680 On ch=8 n=63 v=111
472800 Off ch=8 n=63 v=111
472800 On ch=8 n=61 v=111
472920 Off ch=8 n=61 v=111
472920 On ch=8 n=62 v=111
473040 Off ch=8 n=62 v=111
473040 On ch=8 n=58 v=111
473280 Off ch=8 n=58 v=111
473280 On ch=8 n=53 v=111
473401 Off ch=8 n=53 v=111
473520 On ch=8 n=63 v=111
473640 Off ch=8 n=63 v=111
473640 On ch=8 n=61 v=111
473760 Off ch=8 n=61 v=111
473760 On ch=8 n=62 v=111
473880 Off ch=8 n=62 v=111
473880 On ch=8 n=68 v=111
474000 Off ch=8 n=68 v=111
474000 On ch=8 n=66 v=111
474120 Off ch=8 n=66 v=111
474120 On ch=8 n=67 v=111
474240 Off ch=8 n=67 v=111
474240 On ch=8 n=75 v=111
474480 Off ch=8 n=75 v=111
474480 On ch=8 n=70 v=112
474601 Off ch=8 n=70 v=112
474720 On ch=8 n=63 v=111
474840 Off ch=8 n=63 v=111
474840 On ch=8 n=61 v=111
474960 Off ch=8 n=61 v=111
474960 On ch=8 n=62 v=111
475080 Off ch=8 n=62 v=111
475080 On ch=8 n=63 v=111
475200 Off ch=8 n=63 v=111
475200 On ch=8 n=61 v=111
475320 Off ch=8 n=61 v=111
475320 On ch=8 n=62 v=111
475440 Off ch=8 n=62 v=111
475440 On ch=8 n=58 v=111
475680 Off ch=8 n=58 v=111
475680 On ch=8 n=53 v=111
475798 Off ch=8 n=53 v=111
475920 On ch=8 n=63 v=111
476040 Off ch=8 n=63 v=111
476040 On ch=8 n=61 v=111
476160 Off ch=8 n=61 v=111
476160 On ch=8 n=62 v=111
476280 Off ch=8 n=62 v=111
476280 On ch=8 n=68 v=111
476400 Off ch=8 n=68 v=111
476400 On ch=8 n=66 v=111
476520 Off ch=8 n=66 v=111
476520 On ch=8 n=67 v=111
476640 Off ch=8 n=67 v=111
476640 On ch=8 n=75 v=111
476880 Off ch=8 n=75 v=111
476880 On ch=8 n=70 v=111
476997 Off ch=8 n=70 v=111
477120 On ch=8 n=63 v=111
477240 Off ch=8 n=63 v=111
477240 On ch=8 n=61 v=111
477360 Off ch=8 n=61 v=111
477360 On ch=8 n=62 v=111
477480 Off ch=8 n=62 v=111
477480 On ch=8 n=63 v=111
477600 Off ch=8 n=63 v=111
477600 On ch=8 n=61 v=111
477720 Off ch=8 n=61 v=111
477720 On ch=8 n=62 v=111
477840 Off ch=8 n=62 v=111
477840 On ch=8 n=58 v=111
478080 Off ch=8 n=58 v=111
478080 On ch=8 n=53 v=111
478201 Off ch=8 n=53 v=111
478320 On ch=8 n=63 v=111
478440 Off ch=8 n=63 v=111
478440 On ch=8 n=61 v=111
478560 Off ch=8 n=61 v=111
478560 On ch=8 n=62 v=111
478680 Off ch=8 n=62 v=111
478680 On ch=8 n=68 v=111
478800 Off ch=8 n=68 v=111
478800 On ch=8 n=66 v=111
478920 Off ch=8 n=66 v=111
478920 On ch=8 n=67 v=111
479040 Off ch=8 n=67 v=111
479040 On ch=8 n=75 v=111
479280 Off ch=8 n=75 v=111
479280 On ch=8 n=70 v=112
479401 Off ch=8 n=70 v=112
479520 On ch=8 n=63 v=111
479640 Off ch=8 n=63 v=111
479640 On ch=8 n=61 v=111
479760 Off ch=8 n=61 v=111
479760 On ch=8 n=62 v=111
479880 Off ch=8 n=62 v=111
479880 On ch=8 n=63 v=111
480000 Off ch=8 n=63 v=111
480000 On ch=8 n=61 v=111
480120 Off ch=8 n=61 v=111
480120 On ch=8 n=62 v=111
480240 Off ch=8 n=62 v=111
480240 On ch=8 n=58 v=111
480480 Off ch=8 n=58 v=111
480480 On ch=8 n=53 v=111
480598 Off ch=8 n=53 v=111
480720 Par ch=8 c=11 v=75
480720 On ch=8 n=75 v=100
480830 Off ch=8 n=75 v=100
480840 On ch=8 n=83 v=100
480950 Off ch=8 n=83 v=100
480960 On ch=8 n=80 v=100
481070 Off ch=8 n=80 v=100
481080 On ch=8 n=75 v=100
481190 Off ch=8 n=75 v=100
481200 On ch=8 n=83 v=100
481310 Off ch=8 n=83 v=100
481320 On ch=8 n=80 v=100
481430 Off ch=8 n=80 v=100
481440 On ch=8 n=75 v=100
481550 Off ch=8 n=75 v=100
481560 On ch=8 n=83 v=100
481670 Off ch=8 n=83 v=100
481680 On ch=8 n=80 v=100
481790 Off ch=8 n=80 v=100
481800 On ch=8 n=75 v=100
481910 Off ch=8 n=75 v=100
481920 On ch=8 n=83 v=100
482030 Off ch=8 n=83 v=100
482040 On ch=8 n=80 v=100
482150 Off ch=8 n=80 v=100
482160 On ch=8 n=71 v=100
482390 Off ch=8 n=71 v=100
482400 On ch=8 n=72 v=100
482630 Off ch=8 n=72 v=100
482640 On ch=8 n=73 v=100
482870 Off ch=8 n=73 v=100
482880 On ch=8 n=74 v=100
483110 Off ch=8 n=74 v=100
483120 On ch=8 n=75 v=100
483350 Off ch=8 n=75 v=100
483360 On ch=8 n=78 v=100
483590 Off ch=8 n=78 v=100
483600 On ch=8 n=75 v=100
483710 Off ch=8 n=75 v=100
483720 On ch=8 n=83 v=100
483830 Off ch=8 n=83 v=100
483840 On ch=8 n=80 v=100
483950 Off ch=8 n=80 v=100
483960 On ch=8 n=75 v=100
484070 Off ch=8 n=75 v=100
484080 On ch=8 n=83 v=100
484190 Off ch=8 n=83 v=100
484200 On ch=8 n=80 v=100
484310 Off ch=8 n=80 v=100
484320 On ch=8 n=75 v=100
484430 Off ch=8 n=75 v=100
484440 On ch=8 n=83 v=100
484550 Off ch=8 n=83 v=100
484560 On ch=8 n=80 v=100
484670 Off ch=8 n=80 v=100
484680 On ch=8 n=75 v=100
484790 Off ch=8 n=75 v=100
484800 On ch=8 n=83 v=100
484910 Off ch=8 n=83 v=100
484920 On ch=8 n=80 v=100
485030 Off ch=8 n=80 v=100
485040 On ch=8 n=75 v=100
485270 Off ch=8 n=75 v=100
485280 On ch=8 n=74 v=100
485510 Off ch=8 n=74 v=100
485520 On ch=8 n=73 v=100
485750 Off ch=8 n=73 v=100
485760 On ch=8 n=72 v=100
485990 Off ch=8 n=72 v=100
486000 On ch=8 n=71 v=100
486230 Off ch=8 n=71 v=100
486240 On ch=8 n=68 v=100
486470 Off ch=8 n=68 v=100
486480 On ch=8 n=75 v=100
486590 Off ch=8 n=75 v=100
486600 On ch=8 n=83 v=100
486710 Off ch=8 n=83 v=100
486720 On ch=8 n=80 v=100
486830 Off ch=8 n=80 v=100
486840 On ch=8 n=75 v=100
486950 Off ch=8 n=75 v=100
486960 On ch=8 n=83 v=100
487070 Off ch=8 n=83 v=100
487080 On ch=8 n=80 v=100
487190 Off ch=8 n=80 v=100
487200 On ch=8 n=75 v=100
487310 Off ch=8 n=75 v=100
487320 On ch=8 n=83 v=100
487430 Off ch=8 n=83 v=100
487440 On ch=8 n=80 v=100
487550 Off ch=8 n=80 v=100
487560 On ch=8 n=75 v=100
487670 Off ch=8 n=75 v=100
487680 On ch=8 n=83 v=100
487790 Off ch=8 n=83 v=100
487800 On ch=8 n=80 v=100
487910 Off ch=8 n=80 v=100
487920 On ch=8 n=75 v=100
488150 Off ch=8 n=75 v=100
488160 On ch=8 n=74 v=100
488390 Off ch=8 n=74 v=100
488400 On ch=8 n=73 v=100
488630 Off ch=8 n=73 v=100
488640 On ch=8 n=72 v=100
488870 Off ch=8 n=72 v=100
488880 On ch=8 n=71 v=100
489110 Off ch=8 n=71 v=100
489120 On ch=8 n=68 v=100
489350 Off ch=8 n=68 v=100
489360 On ch=8 n=75 v=100
489470 Off ch=8 n=75 v=100
489480 On ch=8 n=83 v=100
489590 Off ch=8 n=83 v=100
489600 On ch=8 n=80 v=100
489710 Off ch=8 n=80 v=100
489720 On ch=8 n=75 v=100
489830 Off ch=8 n=75 v=100
489840 On ch=8 n=83 v=100
489950 Off ch=8 n=83 v=100
489960 On ch=8 n=80 v=100
490070 Off ch=8 n=80 v=100
490080 On ch=8 n=75 v=100
490190 Off ch=8 n=75 v=100
490200 On ch=8 n=83 v=100
490310 Off ch=8 n=83 v=100
490320 On ch=8 n=80 v=100
490430 Off ch=8 n=80 v=100
490440 On ch=8 n=75 v=100
490550 Off ch=8 n=75 v=100
490560 On ch=8 n=83 v=100
490670 Off ch=8 n=83 v=100
490680 On ch=8 n=80 v=100
490790 Off ch=8 n=80 v=100
490800 On ch=8 n=75 v=100
491030 Off ch=8 n=75 v=100
491040 On ch=8 n=74 v=100
491270 Off ch=8 n=74 v=100
491280 On ch=8 n=73 v=100
491510 Off ch=8 n=73 v=100
491520 On ch=8 n=72 v=100
491750 Off ch=8 n=72 v=100
491760 On ch=8 n=71 v=100
491990 Off ch=8 n=71 v=100
492000 On ch=8 n=68 v=100
492230 Off ch=8 n=68 v=100
492240 Par ch=8 c=11 v=127
492240 On ch=8 n=63 v=111
492360 Off ch=8 n=63 v=111
492360 On ch=8 n=61 v=111
492480 Off ch=8 n=61 v=111
492480 On ch=8 n=62 v=111
492600 Off ch=8 n=62 v=111
492600 On ch=8 n=68 v=111
492720 Off ch=8 n=68 v=111
492720 On ch=8 n=66 v=111
492840 Off ch=8 n=66 v=111
492840 On ch=8 n=67 v=111
492960 Off ch=8 n=67 v=111
492960 On ch=8 n=75 v=111
493200 Off ch=8 n=75 v=111
493200 On ch=8 n=70 v=111
493317 Off ch=8 n=70 v=111
493440 On ch=8 n=63 v=111
493560 Off ch=8 n=63 v=111
493560 On ch=8 n=61 v=111
493680 Off ch=8 n=61 v=111
493680 On ch=8 n=62 v=111
493800 Off ch=8 n=62 v=111
493800 On ch=8 n=63 v=111
493920 Off ch=8 n=63 v=111
493920 On ch=8 n=61 v=111
494040 Off ch=8 n=61 v=111
494040 On ch=8 n=62 v=111
494160 Off ch=8 n=62 v=111
494160 On ch=8 n=58 v=111
494400 Off ch=8 n=58 v=111
494400 On ch=8 n=53 v=111
494521 Off ch=8 n=53 v=111
494640 On ch=8 n=63 v=111
494760 Off ch=8 n=63 v=111
494760 On ch=8 n=61 v=111
494880 Off ch=8 n=61 v=111
494880 On ch=8 n=62 v=111
495000 Off ch=8 n=62 v=111
495000 On ch=8 n=68 v=111
495120 Off ch=8 n=68 v=111
495120 On ch=8 n=66 v=111
495240 Off ch=8 n=66 v=111
495240 On ch=8 n=67 v=111
495360 Off ch=8 n=67 v=111
495360 On ch=8 n=75 v=111
495600 Off ch=8 n=75 v=111
495600 On ch=8 n=70 v=112
495721 Off ch=8 n=70 v=112
495840 On ch=8 n=63 v=111
495960 Off ch=8 n=63 v=111
495960 On ch=8 n=61 v=111
496080 Off ch=8 n=61 v=111
496080 On ch=8 n=62 v=111
496200 Off ch=8 n=62 v=111
496200 On ch=8 n=63 v=111
496320 Off ch=8 n=63 v=111
496320 On ch=8 n=61 v=111
496440 Off ch=8 n=61 v=111
496440 On ch=8 n=62 v=111
496560 Off ch=8 n=62 v=111
496560 On ch=8 n=58 v=111
496800 Off ch=8 n=58 v=111
496800 On ch=8 n=53 v=111
496918 Off ch=8 n=53 v=111
497040 On ch=8 n=75 v=111
497160 Off ch=8 n=75 v=111
497160 On ch=8 n=73 v=111
497280 Off ch=8 n=73 v=111
497280 On ch=8 n=74 v=111
497400 Off ch=8 n=74 v=111
497400 On ch=8 n=80 v=111
497520 Off ch=8 n=80 v=111
497520 On ch=8 n=78 v=111
497640 Off ch=8 n=78 v=111
497640 On ch=8 n=79 v=111
497760 Off ch=8 n=79 v=111
497760 On ch=8 n=87 v=111
498000 Off ch=8 n=87 v=111
498000 On ch=8 n=82 v=111
498117 Off ch=8 n=82 v=111
498240 On ch=8 n=75 v=111
498360 Off ch=8 n=75 v=111
498360 On ch=8 n=73 v=111
498480 Off ch=8 n=73 v=111
498480 On ch=8 n=74 v=111
498600 Off ch=8 n=74 v=111
498600 On ch=8 n=75 v=111
498720 Off ch=8 n=75 v=111
498720 On ch=8 n=73 v=111
498840 Off ch=8 n=73 v=111
498840 On ch=8 n=74 v=111
498960 Off ch=8 n=74 v=111
498960 On ch=8 n=70 v=111
499200 Off ch=8 n=70 v=111
499200 On ch=8 n=65 v=111
499321 Off ch=8 n=65 v=111
499440 On ch=8 n=75 v=111
499560 Off ch=8 n=75 v=111
499560 On ch=8 n=73 v=111
499680 Off ch=8 n=73 v=111
499680 On ch=8 n=74 v=111
499800 Off ch=8 n=74 v=111
499800 On ch=8 n=80 v=111
499920 Off ch=8 n=80 v=111
499920 On ch=8 n=78 v=111
500040 Off ch=8 n=78 v=111
500040 On ch=8 n=79 v=111
500160 Off ch=8 n=79 v=111
500160 On ch=8 n=87 v=111
500400 Off ch=8 n=87 v=111
500400 On ch=8 n=82 v=112
500521 Off ch=8 n=82 v=112
500640 On ch=8 n=75 v=111
500760 Off ch=8 n=75 v=111
500760 On ch=8 n=73 v=111
500880 Off ch=8 n=73 v=111
500880 On ch=8 n=74 v=111
501000 Off ch=8 n=74 v=111
501000 On ch=8 n=75 v=111
501120 Off ch=8 n=75 v=111
501120 On ch=8 n=73 v=111
501240 Off ch=8 n=73 v=111
501240 On ch=8 n=74 v=111
501360 Off ch=8 n=74 v=111
501360 On ch=8 n=70 v=111
501600 Off ch=8 n=70 v=111
501600 On ch=8 n=65 v=111
501718 Off ch=8 n=65 v=111
501840 Par ch=8 c=11 v=75
501840 On ch=8 n=75 v=100
501950 Off ch=8 n=75 v=100
501960 On ch=8 n=83 v=100
502070 Off ch=8 n=83 v=100
502080 On ch=8 n=80 v=100
502190 Off ch=8 n=80 v=100
502200 On ch=8 n=75 v=100
502310 Off ch=8 n=75 v=100
502320 On ch=8 n=83 v=100
502430 Off ch=8 n=83 v=100
502440 On ch=8 n=80 v=100
502550 Off ch=8 n=80 v=100
502560 On ch=8 n=75 v=100
502670 Off ch=8 n=75 v=100
502680 On ch=8 n=83 v=100
502790 Off ch=8 n=83 v=100
502800 On ch=8 n=80 v=100
502910 Off ch=8 n=80 v=100
502920 On ch=8 n=75 v=100
503030 Off ch=8 n=75 v=100
503040 On ch=8 n=83 v=100
503150 Off ch=8 n=83 v=100
503160 On ch=8 n=80 v=100
503270 Off ch=8 n=80 v=100
503280 On ch=8 n=71 v=100
503510 Off ch=8 n=71 v=100
503520 On ch=8 n=72 v=100
503750 Off ch=8 n=72 v=100
503760 On ch=8 n=73 v=100
503990 Off ch=8 n=73 v=100
504000 On ch=8 n=74 v=100
504230 Off ch=8 n=74 v=100
504240 On ch=8 n=75 v=100
504470 Off ch=8 n=75 v=100
504480 On ch=8 n=78 v=100
504710 Off ch=8 n=78 v=100
504720 On ch=8 n=75 v=100
504830 Off ch=8 n=75 v=100
504840 On ch=8 n=83 v=100
504950 Off ch=8 n=83 v=100
504960 On ch=8 n=80 v=100
505070 Off ch=8 n=80 v=100
505080 On ch=8 n=75 v=100
505190 Off ch=8 n=75 v=100
505200 On ch=8 n=83 v=100
505310 Off ch=8 n=83 v=100
505320 On ch=8 n=80 v=100
505430 Off ch=8 n=80 v=100
505440 On ch=8 n=75 v=100
505550 Off ch=8 n=75 v=100
505560 On ch=8 n=83 v=100
505670 Off ch=8 n=83 v=100
505680 On ch=8 n=80 v=100
505790 Off ch=8 n=80 v=100
505800 On ch=8 n=75 v=100
505910 Off ch=8 n=75 v=100
505920 On ch=8 n=83 v=100
506030 Off ch=8 n=83 v=100
506040 On ch=8 n=80 v=100
506150 Off ch=8 n=80 v=100
506160 On ch=8 n=75 v=100
506390 Off ch=8 n=75 v=100
506400 On ch=8 n=74 v=100
506630 Off ch=8 n=74 v=100
506640 On ch=8 n=73 v=100
506870 Off ch=8 n=73 v=100
506880 On ch=8 n=72 v=100
507110 Off ch=8 n=72 v=100
507120 On ch=8 n=71 v=100
507350 Off ch=8 n=71 v=100
507360 On ch=8 n=68 v=100
507590 Off ch=8 n=68 v=100
507600 On ch=8 n=75 v=100
507710 Off ch=8 n=75 v=100
507720 On ch=8 n=83 v=100
507830 Off ch=8 n=83 v=100
507840 On ch=8 n=80 v=100
507950 Off ch=8 n=80 v=100
507960 On ch=8 n=75 v=100
508070 Off ch=8 n=75 v=100
508080 On ch=8 n=83 v=100
508190 Off ch=8 n=83 v=100
508200 On ch=8 n=80 v=100
508310 Off ch=8 n=80 v=100
508320 On ch=8 n=75 v=100
508430 Off ch=8 n=75 v=100
508440 On ch=8 n=83 v=100
508550 Off ch=8 n=83 v=100
508560 On ch=8 n=80 v=100
508670 Off ch=8 n=80 v=100
508680 On ch=8 n=75 v=100
508790 Off ch=8 n=75 v=100
508800 On ch=8 n=83 v=100
508910 Off ch=8 n=83 v=100
508920 On ch=8 n=80 v=100
509030 Off ch=8 n=80 v=100
509040 On ch=8 n=75 v=100
509270 Off ch=8 n=75 v=100
509280 On ch=8 n=74 v=100
509510 Off ch=8 n=74 v=100
509520 On ch=8 n=73 v=100
509750 Off ch=8 n=73 v=100
509760 On ch=8 n=72 v=100
509990 Off ch=8 n=72 v=100
510000 On ch=8 n=71 v=100
510230 Off ch=8 n=71 v=100
510240 On ch=8 n=68 v=100
510470 Off ch=8 n=68 v=100
510480 On ch=8 n=75 v=100
510590 Off ch=8 n=75 v=100
510600 On ch=8 n=83 v=100
510710 Off ch=8 n=83 v=100
510720 On ch=8 n=80 v=100
510830 Off ch=8 n=80 v=100
510840 On ch=8 n=75 v=100
510950 Off ch=8 n=75 v=100
510960 On ch=8 n=83 v=100
511070 Off ch=8 n=83 v=100
511080 On ch=8 n=80 v=100
511190 Off ch=8 n=80 v=100
511200 On ch=8 n=75 v=100
511310 Off ch=8 n=75 v=100
511320 On ch=8 n=83 v=100
511430 Off ch=8 n=83 v=100
511440 On ch=8 n=80 v=100
511550 Off ch=8 n=80 v=100
511560 On ch=8 n=75 v=100
511670 Off ch=8 n=75 v=100
511680 On ch=8 n=83 v=100
511790 Off ch=8 n=83 v=100
511800 On ch=8 n=80 v=100
511910 Off ch=8 n=80 v=100
511920 On ch=8 n=75 v=100
512150 Off ch=8 n=75 v=100
512160 On ch=8 n=74 v=100
512390 Off ch=8 n=74 v=100
512400 On ch=8 n=73 v=100
512630 Off ch=8 n=73 v=100
512640 On ch=8 n=72 v=100
512870 Off ch=8 n=72 v=100
512880 On ch=8 n=71 v=100
513110 Off ch=8 n=71 v=100
513120 On ch=8 n=68 v=100
513350 Off ch=8 n=68 v=100
513360 Par ch=8 c=11 v=127
513360 On ch=8 n=63 v=111
513480 Off ch=8 n=63 v=111
513480 On ch=8 n=61 v=111
513600 Off ch=8 n=61 v=111
513600 On ch=8 n=62 v=111
513720 Off ch=8 n=62 v=111
513720 On ch=8 n=68 v=111
513840 Off ch=8 n=68 v=111
513840 On ch=8 n=66 v=111
513960 Off ch=8 n=66 v=111
513960 On ch=8 n=67 v=111
514080 Off ch=8 n=67 v=111
514080 On ch=8 n=75 v=111
514320 Off ch=8 n=75 v=111
514320 On ch=8 n=70 v=111
514437 Off ch=8 n=70 v=111
514560 On ch=8 n=63 v=111
514680 Off ch=8 n=63 v=111
514680 On ch=8 n=61 v=111
514800 Off ch=8 n=61 v=111
514800 On ch=8 n=62 v=111
514920 Off ch=8 n=62 v=111
514920 On ch=8 n=63 v=111
515040 Off ch=8 n=63 v=111
515040 On ch=8 n=61 v=111
515160 Off ch=8 n=61 v=111
515160 On ch=8 n=62 v=111
515280 Off ch=8 n=62 v=111
515280 On ch=8 n=58 v=111
515520 Off ch=8 n=58 v=111
515520 On ch=8 n=53 v=111
515641 Off ch=8 n=53 v=111
515760 On ch=8 n=75 v=111
515880 Off ch=8 n=75 v=111
515880 On ch=8 n=73 v=111
516000 Off ch=8 n=73 v=111
516000 On ch=8 n=74 v=111
516120 Off ch=8 n=74 v=111
516120 On ch=8 n=80 v=111
516240 Off ch=8 n=80 v=111
516240 On ch=8 n=78 v=111
516360 Off ch=8 n=78 v=111
516360 On ch=8 n=79 v=111
516480 Off ch=8 n=79 v=111
516480 On ch=8 n=87 v=111
516720 Off ch=8 n=87 v=111
516720 On ch=8 n=82 v=112
516841 Off ch=8 n=82 v=112
516960 On ch=8 n=75 v=111
517080 Off ch=8 n=75 v=111
517080 On ch=8 n=73 v=111
517200 Off ch=8 n=73 v=111
517200 On ch=8 n=74 v=111
517320 Off ch=8 n=74 v=111
517320 On ch=8 n=75 v=111
517440 Off ch=8 n=75 v=111
517440 On ch=8 n=73 v=111
517560 Off ch=8 n=73 v=111
517560 On ch=8 n=74 v=111
517680 Off ch=8 n=74 v=111
517680 On ch=8 n=70 v=111
517920 Off ch=8 n=70 v=111
517920 On ch=8 n=65 v=111
518038 Off ch=8 n=65 v=111
518160 Par ch=8 c=11 v=75
518160 On ch=8 n=75 v=100
518270 Off ch=8 n=75 v=100
518280 On ch=8 n=83 v=100
518390 Off ch=8 n=83 v=100
518400 On ch=8 n=80 v=100
518510 Off ch=8 n=80 v=100
518520 On ch=8 n=75 v=100
518630 Off ch=8 n=75 v=100
518640 On ch=8 n=83 v=100
518750 Off ch=8 n=83 v=100
518760 On ch=8 n=80 v=100
518870 Off ch=8 n=80 v=100
518880 On ch=8 n=75 v=100
518990 Off ch=8 n=75 v=100
519000 On ch=8 n=83 v=100
519110 Off ch=8 n=83 v=100
519120 On ch=8 n=80 v=100
519230 Off ch=8 n=80 v=100
519240 On ch=8 n=75 v=100
519350 Off ch=8 n=75 v=100
519360 On ch=8 n=83 v=100
519470 Off ch=8 n=83 v=100
519480 On ch=8 n=80 v=100
519590 Off ch=8 n=80 v=100
519600 On ch=8 n=75 v=100
519830 Off ch=8 n=75 v=100
519840 On ch=8 n=74 v=100
520070 Off ch=8 n=74 v=100
520080 On ch=8 n=73 v=100
520310 Off ch=8 n=73 v=100
520320 On ch=8 n=72 v=100
520550 Off ch=8 n=72 v=100
520560 On ch=8 n=71 v=100
520790 Off ch=8 n=71 v=100
520800 On ch=8 n=68 v=100
521030 Off ch=8 n=68 v=100
521040 On ch=8 n=75 v=100
521150 Off ch=8 n=75 v=100
521160 On ch=8 n=83 v=100
521270 Off ch=8 n=83 v=100
521280 On ch=8 n=80 v=100
521390 Off ch=8 n=80 v=100
521400 On ch=8 n=75 v=100
521510 Off ch=8 n=75 v=100
521520 On ch=8 n=83 v=100
521630 Off ch=8 n=83 v=100
521640 On ch=8 n=80 v=100
521750 Off ch=8 n=80 v=100
521760 On ch=8 n=75 v=100
521870 Off ch=8 n=75 v=100
521880 On ch=8 n=83 v=100
521990 Off ch=8 n=83 v=100
522000 On ch=8 n=80 v=100
522110 Off ch=8 n=80 v=100
522120 On ch=8 n=75 v=100
522230 Off ch=8 n=75 v=100
522240 On ch=8 n=83 v=100
522350 Off ch=8 n=83 v=100
522360 On ch=8 n=80 v=100
522470 Off ch=8 n=80 v=100
522480 On ch=8 n=75 v=100
522710 Off ch=8 n=75 v=100
522720 On ch=8 n=74 v=100
522950 Off ch=8 n=74 v=100
522960 On ch=8 n=73 v=100
523190 Off ch=8 n=73 v=100
523200 On ch=8 n=72 v=100
523430 Off ch=8 n=72 v=100
523440 On ch=8 n=71 v=100
523670 Off ch=8 n=71 v=100
523680 On ch=8 n=68 v=100
523910 Off ch=8 n=68 v=100
523920 Par ch=8 c=11 v=127
523920 On ch=8 n=75 v=111
524040 Off ch=8 n=75 v=111
524040 On ch=8 n=73 v=111
524160 Off ch=8 n=73 v=111
524160 On ch=8 n=74 v=111
524280 Off ch=8 n=74 v=111
524280 On ch=8 n=80 v=111
524400 Off ch=8 n=80 v=111
524400 On ch=8 n=78 v=111
524520 Off ch=8 n=78 v=111
524520 On ch=8 n=79 v=111
524640 Off ch=8 n=79 v=111
524640 On ch=8 n=87 v=111
524880 Off ch=8 n=87 v=111
524880 On ch=8 n=82 v=111
524997 Off ch=8 n=82 v=111
525120 On ch=8 n=75 v=111
525240 Off ch=8 n=75 v=111
525240 On ch=8 n=73 v=111
525360 Off ch=8 n=73 v=111
525360 On ch=8 n=74 v=111
525480 Off ch=8 n=74 v=111
525480 On ch=8 n=75 v=111
525600 Off ch=8 n=75 v=111
525600 On ch=8 n=73 v=111
525720 Off ch=8 n=73 v=111
525720 On ch=8 n=74 v=111
525840 Off ch=8 n=74 v=111
525840 On ch=8 n=70 v=111
526080 Off ch=8 n=70 v=111
526080 On ch=8 n=65 v=111
526201 Off ch=8 n=65 v=111
526320 On ch=8 n=75 v=111
526440 Off ch=8 n=75 v=111
526440 On ch=8 n=73 v=111
526560 Off ch=8 n=73 v=111
526560 On ch=8 n=74 v=111
526680 Off ch=8 n=74 v=111
526680 On ch=8 n=80 v=111
526800 Off ch=8 n=80 v=111
526800 On ch=8 n=78 v=111
526920 Off ch=8 n=78 v=111
526920 On ch=8 n=79 v=111
527040 Off ch=8 n=79 v=111
527040 On ch=8 n=87 v=111
527280 Off ch=8 n=87 v=111
527280 On ch=8 n=82 v=112
527401 Off ch=8 n=82 v=112
527520 On ch=8 n=87 v=111
527640 Off ch=8 n=87 v=111
527640 On ch=8 n=88 v=111
527760 Off ch=8 n=88 v=111
527760 On ch=8 n=89 v=111
527880 Off ch=8 n=89 v=111
527880 On ch=8 n=90 v=111
528000 Off ch=8 n=90 v=111
528000 On ch=8 n=91 v=111
528120 Off ch=8 n=91 v=111
528120 On ch=8 n=92 v=111
528240 Off ch=8 n=92 v=111
528240 On ch=8 n=93 v=111
528480 Off ch=8 n=93 v=111
528480 On ch=8 n=94 v=111
528598 Off ch=8 n=94 v=111
528720 Par ch=8 c=11 v=75
528720 On ch=8 n=75 v=100
528830 Off ch=8 n=75 v=100
528840 On ch=8 n=83 v=100
528950 Off ch=8 n=83 v=100
528960 On ch=8 n=80 v=100
529070 Off ch=8 n=80 v=100
529080 On ch=8 n=75 v=100
529190 Off ch=8 n=75 v=100
529200 On ch=8 n=83 v=100
529310 Off ch=8 n=83 v=100
529320 On ch=8 n=80 v=100
529430 Off ch=8 n=80 v=100
529440 On ch=8 n=75 v=100
529550 Off ch=8 n=75 v=100
529560 On ch=8 n=83 v=100
529670 Off ch=8 n=83 v=100
529680 On ch=8 n=80 v=100
529790 Off ch=8 n=80 v=100
529800 On ch=8 n=75 v=100
529910 Off ch=8 n=75 v=100
529920 On ch=8 n=83 v=100
530030 Off ch=8 n=83 v=100
530040 On ch=8 n=80 v=100
530150 Off ch=8 n=80 v=100
530160 On ch=8 n=71 v=100
530390 Off ch=8 n=71 v=100
530400 On ch=8 n=72 v=100
530630 Off ch=8 n=72 v=100
530640 On ch=8 n=73 v=100
530870 Off ch=8 n=73 v=100
530880 On ch=8 n=74 v=100
531110 Off ch=8 n=74 v=100
531120 On ch=8 n=75 v=100
531350 Off ch=8 n=75 v=100
531360 On ch=8 n=78 v=100
531590 Off ch=8 n=78 v=100
531600 On ch=8 n=75 v=100
531710 Off ch=8 n=75 v=100
531720 On ch=8 n=83 v=100
531830 Off ch=8 n=83 v=100
531840 On ch=8 n=80 v=100
531950 Off ch=8 n=80 v=100
531960 On ch=8 n=75 v=100
532070 Off ch=8 n=75 v=100
532080 On ch=8 n=83 v=100
532190 Off ch=8 n=83 v=100
532200 On ch=8 n=80 v=100
532310 Off ch=8 n=80 v=100
532320 On ch=8 n=75 v=100
532430 Off ch=8 n=75 v=100
532440 On ch=8 n=83 v=100
532550 Off ch=8 n=83 v=100
532560 On ch=8 n=80 v=100
532670 Off ch=8 n=80 v=100
532680 On ch=8 n=75 v=100
532790 Off ch=8 n=75 v=100
532800 On ch=8 n=83 v=100
532910 Off ch=8 n=83 v=100
532920 On ch=8 n=80 v=100
533030 Off ch=8 n=80 v=100
533040 On ch=8 n=75 v=100
533270 Off ch=8 n=75 v=100
533280 On ch=8 n=74 v=100
533510 Off ch=8 n=74 v=100
533520 On ch=8 n=73 v=100
533750 Off ch=8 n=73 v=100
533760 On ch=8 n=72 v=100
533990 Off ch=8 n=72 v=100
534000 On ch=8 n=71 v=100
534230 Off ch=8 n=71 v=100
534240 On ch=8 n=68 v=100
534470 Off ch=8 n=68 v=100
534480 PrCh ch=8 p=18
534480 On ch=8 n=83 v=111
534710 Off ch=8 n=83 v=111
534720 On ch=8 n=81 v=98
534798 Off ch=8 n=81 v=98
534800 On ch=8 n=83 v=97
534878 Off ch=8 n=83 v=97
534880 On ch=8 n=81 v=104
534958 Off ch=8 n=81 v=104
534960 On ch=8 n=78 v=111
535190 Off ch=8 n=78 v=111
535200 On ch=8 n=83 v=111
535430 Off ch=8 n=83 v=111
535440 On ch=8 n=81 v=80
535518 Off ch=8 n=81 v=80
535520 On ch=8 n=83 v=83
535598 Off ch=8 n=83 v=83
535600 On ch=8 n=81 v=91
535678 Off ch=8 n=81 v=91
535680 On ch=8 n=76 v=111
535910 Off ch=8 n=76 v=111
535920 On ch=8 n=83 v=111
536150 Off ch=8 n=83 v=111
536160 On ch=8 n=81 v=94
536238 Off ch=8 n=81 v=94
536240 On ch=8 n=83 v=98
536318 Off ch=8 n=83 v=98
536320 On ch=8 n=81 v=97
536398 Off ch=8 n=81 v=97
536400 On ch=8 n=75 v=111
536630 Off ch=8 n=75 v=111
536640 On ch=8 n=83 v=111
536870 Off ch=8 n=83 v=111
536880 On ch=8 n=81 v=95
536958 Off ch=8 n=81 v=95
536960 On ch=8 n=83 v=98
537038 Off ch=8 n=83 v=98
537040 On ch=8 n=81 v=100
537118 Off ch=8 n=81 v=100
537120 On ch=8 n=73 v=111
537350 Off ch=8 n=73 v=111
537360 On ch=8 n=83 v=111
537590 Off ch=8 n=83 v=111
537600 On ch=8 n=81 v=102
537678 Off ch=8 n=81 v=102
537680 On ch=8 n=83 v=100
537758 Off ch=8 n=83 v=100
537760 On ch=8 n=81 v=77
537838 Off ch=8 n=81 v=77
537840 On ch=8 n=71 v=111
538070 Off ch=8 n=71 v=111
538080 On ch=8 n=83 v=111
538310 Off ch=8 n=83 v=111
538320 On ch=8 n=81 v=104
538398 Off ch=8 n=81 v=104
538400 On ch=8 n=83 v=110
538478 Off ch=8 n=83 v=110
538480 On ch=8 n=81 v=108
538558 Off ch=8 n=81 v=108
538560 On ch=8 n=69 v=111
538790 Off ch=8 n=69 v=111
538800 On ch=8 n=83 v=111
539030 Off ch=8 n=83 v=111
539280 PrCh ch=8 p=18
539280 On ch=8 n=83 v=111
539510 Off ch=8 n=83 v=111
539520 On ch=8 n=81 v=98
539598 Off ch=8 n=81 v=98
539600 On ch=8 n=83 v=97
539678 Off ch=8 n=83 v=97
539680 On ch=8 n=81 v=104
539758 Off ch=8 n=81 v=104
539760 On ch=8 n=78 v=111
539990 Off ch=8 n=78 v=111
540000 On ch=8 n=83 v=111
540230 Off ch=8 n=83 v=111
540240 On ch=8 n=81 v=80
540318 Off ch=8 n=81 v=80
540320 On ch=8 n=83 v=83
540398 Off ch=8 n=83 v=83
540400 On ch=8 n=81 v=91
540478 Off ch=8 n=81 v=91
540480 On ch=8 n=76 v=111
540710 Off ch=8 n=76 v=111
540720 On ch=8 n=83 v=111
540950 Off ch=8 n=83 v=111
540960 On ch=8 n=81 v=94
541038 Off ch=8 n=81 v=94
541040 On ch=8 n=83 v=98
541118 Off ch=8 n=83 v=98
541120 On ch=8 n=81 v=97
541198 Off ch=8 n=81 v=97
541200 On ch=8 n=75 v=111
541430 Off ch=8 n=75 v=111
541440 On ch=8 n=83 v=111
541670 Off ch=8 n=83 v=111
541680 On ch=8 n=81 v=95
541758 Off ch=8 n=81 v=95
541760 On ch=8 n=83 v=98
541838 Off ch=8 n=83 v=98
541840 On ch=8 n=81 v=100
541918 Off ch=8 n=81 v=100
541920 On ch=8 n=73 v=111
542150 Off ch=8 n=73 v=111
542160 On ch=8 n=83 v=111
542390 Off ch=8 n=83 v=111
542400 On ch=8 n=81 v=102
542478 Off ch=8 n=81 v=102
542480 On ch=8 n=83 v=100
542558 Off ch=8 n=83 v=100
542560 On ch=8 n=81 v=77
542638 Off ch=8 n=81 v=77
542640 On ch=8 n=71 v=111
542870 Off ch=8 n=71 v=111
542880 On ch=8 n=83 v=111
543110 Off ch=8 n=83 v=111
543120 On ch=8 n=81 v=104
543198 Off ch=8 n=81 v=104
543200 On ch=8 n=83 v=110
543278 Off ch=8 n=83 v=110
543280 On ch=8 n=81 v=108
543358 Off ch=8 n=81 v=108
543360 On ch=8 n=69 v=111
543590 Off ch=8 n=69 v=111
543600 On ch=8 n=83 v=111
543830 Off ch=8 n=83 v=111
544080 PrCh ch=8 p=18
544080 On ch=8 n=83 v=111
544310 Off ch=8 n=83 v=111
544320 On ch=8 n=81 v=98
544398 Off ch=8 n=81 v=98
544400 On ch=8 n=83 v=97
544478 Off ch=8 n=83 v=97
544480 On ch=8 n=81 v=104
544558 Off ch=8 n=81 v=104
544560 On ch=8 n=78 v=111
544790 Off ch=8 n=78 v=111
544800 On ch=8 n=83 v=111
545030 Off ch=8 n=83 v=111
545040 On ch=8 n=81 v=80
545118 Off ch=8 n=81 v=80
545120 On ch=8 n=83 v=83
545198 Off ch=8 n=83 v=83
545200 On ch=8 n=81 v=91
545278 Off ch=8 n=81 v=91
545280 On ch=8 n=76 v=111
545510 Off ch=8 n=76 v=111
545520 On ch=8 n=83 v=111
545750 Off ch=8 n=83 v=111
545760 On ch=8 n=81 v=94
545838 Off ch=8 n=81 v=94
545840 On ch=8 n=83 v=98
545918 Off ch=8 n=83 v=98
545920 On ch=8 n=81 v=97
545998 Off ch=8 n=81 v=97
546000 On ch=8 n=75 v=111
546230 Off ch=8 n=75 v=111
546240 On ch=8 n=83 v=111
546470 Off ch=8 n=83 v=111
546480 On ch=8 n=81 v=95
546558 Off ch=8 n=81 v=95
546560 On ch=8 n=83 v=98
546638 Off ch=8 n=83 v=98
546640 On ch=8 n=81 v=100
546718 Off ch=8 n=81 v=100
546720 On ch=8 n=73 v=111
546950 Off ch=8 n=73 v=111
546960 On ch=8 n=83 v=111
547190 Off ch=8 n=83 v=111
547200 On ch=8 n=81 v=102
547278 Off ch=8 n=81 v=102
547280 On ch=8 n=83 v=100
547358 Off ch=8 n=83 v=100
547360 On ch=8 n=81 v=77
547438 Off ch=8 n=81 v=77
547440 On ch=8 n=71 v=111
547670 Off ch=8 n=71 v=111
547680 On ch=8 n=83 v=111
547910 Off ch=8 n=83 v=111
547920 On ch=8 n=81 v=104
547998 Off ch=8 n=81 v=104
548000 On ch=8 n=83 v=110
548078 Off ch=8 n=83 v=110
548080 On ch=8 n=81 v=108
548158 Off ch=8 n=81 v=108
548160 On ch=8 n=69 v=111
548390 Off ch=8 n=69 v=111
548400 On ch=8 n=83 v=111
548630 Off ch=8 n=83 v=111
548880 PrCh ch=8 p=18
548880 On ch=8 n=83 v=111
549110 Off ch=8 n=83 v=111
549120 On ch=8 n=81 v=98
549198 Off ch=8 n=81 v=98
549200 On ch=8 n=83 v=97
549278 Off ch=8 n=83 v=97
549280 On ch=8 n=81 v=104
549358 Off ch=8 n=81 v=104
549360 On ch=8 n=78 v=111
549590 Off ch=8 n=78 v=111
549600 On ch=8 n=83 v=111
549830 Off ch=8 n=83 v=111
549840 On ch=8 n=81 v=80
549918 Off ch=8 n=81 v=80
549920 On ch=8 n=83 v=83
549998 Off ch=8 n=83 v=83
550000 On ch=8 n=81 v=91
550078 Off ch=8 n=81 v=91
550080 On ch=8 n=76 v=111
550310 Off ch=8 n=76 v=111
550320 On ch=8 n=83 v=111
550550 Off ch=8 n=83 v=111
550560 On ch=8 n=81 v=94
550638 Off ch=8 n=81 v=94
550640 On ch=8 n=83 v=98
550718 Off ch=8 n=83 v=98
550720 On ch=8 n=81 v=97
550798 Off ch=8 n=81 v=97
550800 On ch=8 n=75 v=111
551030 Off ch=8 n=75 v=111
551040 On ch=8 n=83 v=111
551270 Off ch=8 n=83 v=111
551280 On ch=8 n=81 v=95
551358 Off ch=8 n=81 v=95
551360 On ch=8 n=83 v=98
551438 Off ch=8 n=83 v=98
551440 On ch=8 n=81 v=100
551518 Off ch=8 n=81 v=100
551520 On ch=8 n=73 v=111
551750 Off ch=8 n=73 v=111
551760 On ch=8 n=83 v=111
551990 Off ch=8 n=83 v=111
552000 On ch=8 n=81 v=102
552078 Off ch=8 n=81 v=102
552080 On ch=8 n=83 v=100
552158 Off ch=8 n=83 v=100
552160 On ch=8 n=81 v=77
552238 Off ch=8 n=81 v=77
552240 On ch=8 n=71 v=111
552470 Off ch=8 n=71 v=111
552480 On ch=8 n=83 v=111
552710 Off ch=8 n=83 v=111
552720 On ch=8 n=81 v=104
552798 Off ch=8 n=81 v=104
552800 On ch=8 n=83 v=110
552878 Off ch=8 n=83 v=110
552880 On ch=8 n=81 v=108
552958 Off ch=8 n=81 v=108
552960 On ch=8 n=69 v=111
553190 Off ch=8 n=69 v=111
553200 On ch=8 n=83 v=111
553430 Off ch=8 n=83 v=111
580550 Par ch=8 c=0 v=0
580550 Par ch=8 c=32 v=0
580550 PrCh ch=8 p=75
580560 Par ch=8 c=99 v=1
580560 Par ch=8 c=98 v=99
580560 Par ch=8 c=6 v=64
580560 Par ch=8 c=38 v=0
580560 Par ch=8 c=7 v=95
580560 On ch=8 n=73 v=111
581025 Off ch=8 n=73 v=111
581040 On ch=8 n=73 v=111
581495 Off ch=8 n=73 v=111
581520 On ch=8 n=73 v=111
581840 Off ch=8 n=73 v=111
581840 On ch=8 n=72 v=111
582000 Off ch=8 n=72 v=111
582000 On ch=8 n=70 v=111
582320 Off ch=8 n=70 v=111
582320 On ch=8 n=72 v=111
582480 Off ch=8 n=72 v=111
582480 On ch=8 n=73 v=111
582800 Off ch=8 n=73 v=111
582800 On ch=8 n=75 v=111
582960 Off ch=8 n=75 v=111
582960 On ch=8 n=77 v=111
583280 Off ch=8 n=77 v=111
583280 On ch=8 n=75 v=111
583440 Off ch=8 n=75 v=111
583440 On ch=8 n=73 v=111
583760 Off ch=8 n=73 v=111
583760 On ch=8 n=72 v=111
583920 Off ch=8 n=72 v=111
583920 On ch=8 n=70 v=111
584240 Off ch=8 n=70 v=111
584240 On ch=8 n=72 v=111
584400 Off ch=8 n=72 v=111
584400 On ch=8 n=73 v=111
584880 Off ch=8 n=73 v=111
585128 On ch=8 n=77 v=111
586568 Off ch=8 n=77 v=111
587280 On ch=8 n=73 v=111
587285 On ch=8 n=78 v=111
587760 Off ch=8 n=73 v=111
587760 On ch=8 n=73 v=111
587765 Off ch=8 n=78 v=111
587765 On ch=8 n=78 v=111
588240 Off ch=8 n=73 v=111
588240 On ch=8 n=78 v=111
588240 On ch=8 n=73 v=111
588245 Off ch=8 n=78 v=111
588560 Off ch=8 n=78 v=111
588560 Off ch=8 n=73 v=111
588560 On ch=8 n=72 v=111
588560 On ch=8 n=77 v=111
588720 Off ch=8 n=72 v=111
588720 Off ch=8 n=77 v=111
588720 On ch=8 n=75 v=111
588720 On ch=8 n=70 v=111
589040 Off ch=8 n=75 v=111
589040 Off ch=8 n=70 v=111
589040 On ch=8 n=72 v=111
589040 On ch=8 n=77 v=111
589200 Off ch=8 n=72 v=111
589200 Off ch=8 n=77 v=111
589200 On ch=8 n=78 v=111
589200 On ch=8 n=73 v=111
589520 Off ch=8 n=78 v=111
589520 Off ch=8 n=73 v=111
589520 On ch=8 n=75 v=111
589525 On ch=8 n=80 v=111
589680 Off ch=8 n=75 v=111
589680 On ch=8 n=82 v=111
589685 Off ch=8 n=80 v=111
589685 On ch=8 n=77 v=111
590000 Off ch=8 n=82 v=111
590000 On ch=8 n=75 v=111
590005 Off ch=8 n=77 v=111
590005 On ch=8 n=80 v=111
590160 Off ch=8 n=75 v=111
590160 On ch=8 n=73 v=111
590165 Off ch=8 n=80 v=111
590165 On ch=8 n=78 v=111
590335 Off ch=8 n=73 v=111
590340 Off ch=8 n=78 v=111
590405 On ch=8 n=77 v=111
590410 On ch=8 n=73 v=111
591110 Off ch=8 n=77 v=111
591110 Off ch=8 n=73 v=111
599640 PrCh ch=8 p=18
599760 On ch=8 n=83 v=115
599990 Off ch=8 n=83 v=115
600000 On ch=8 n=81 v=119
600078 Off ch=8 n=81 v=119
600080 On ch=8 n=83 v=122
600158 Off ch=8 n=83 v=122
600160 On ch=8 n=81 v=127
600238 Off ch=8 n=81 v=127
600240 On ch=8 n=78 v=115
600470 Off ch=8 n=78 v=115
600480 On ch=8 n=83 v=115
600710 Off ch=8 n=83 v=115
600720 On ch=8 n=81 v=111
600798 Off ch=8 n=81 v=111
600800 On ch=8 n=83 v=100
600878 Off ch=8 n=83 v=100
600880 On ch=8 n=81 v=120
600958 Off ch=8 n=81 v=120
600960 On ch=8 n=76 v=115
601190 Off ch=8 n=76 v=115
601200 On ch=8 n=83 v=115
601430 Off ch=8 n=83 v=115
601440 On ch=8 n=81 v=117
601518 Off ch=8 n=81 v=117
601520 On ch=8 n=83 v=108
601598 Off ch=8 n=83 v=108
601600 On ch=8 n=81 v=113
601678 Off ch=8 n=81 v=113
601680 On ch=8 n=75 v=115
601910 Off ch=8 n=75 v=115
601920 On ch=8 n=83 v=115
602150 Off ch=8 n=83 v=115
602160 On ch=8 n=81 v=127
602238 Off ch=8 n=81 v=127
602240 On ch=8 n=83 v=111
602318 Off ch=8 n=83 v=111
602320 On ch=8 n=81 v=120
602398 Off ch=8 n=81 v=120
602400 On ch=8 n=73 v=115
602630 Off ch=8 n=73 v=115
602640 On ch=8 n=83 v=115
602870 Off ch=8 n=83 v=115
602880 On ch=8 n=81 v=127
602958 Off ch=8 n=81 v=127
602960 On ch=8 n=83 v=106
603038 Off ch=8 n=83 v=106
603040 On ch=8 n=81 v=122
603118 Off ch=8 n=81 v=122
603120 On ch=8 n=71 v=115
603350 Off ch=8 n=71 v=115
603360 On ch=8 n=83 v=115
603590 Off ch=8 n=83 v=115
603600 On ch=8 n=81 v=116
603678 Off ch=8 n=81 v=116
603680 On ch=8 n=83 v=127
603758 Off ch=8 n=83 v=127
603760 On ch=8 n=81 v=119
603838 Off ch=8 n=81 v=119
603840 On ch=8 n=71 v=115
604070 Off ch=8 n=71 v=115
604080 On ch=8 n=83 v=115
604310 Off ch=8 n=83 v=115
625200 KeySig 1 major
625200 Par ch=8 c=11 v=75
625200 On ch=8 n=70 v=100
625310 Off ch=8 n=70 v=100
625320 On ch=8 n=78 v=100
625430 Off ch=8 n=78 v=100
625440 On ch=8 n=75 v=100
625550 Off ch=8 n=75 v=100
625560 On ch=8 n=70 v=100
625670 Off ch=8 n=70 v=100
625680 On ch=8 n=78 v=100
625790 Off ch=8 n=78 v=100
625800 On ch=8 n=75 v=100
625910 Off ch=8 n=75 v=100
625920 On ch=8 n=70 v=100
626030 Off ch=8 n=70 v=100
626040 On ch=8 n=78 v=100
626150 Off ch=8 n=78 v=100
626160 On ch=8 n=75 v=100
626270 Off ch=8 n=75 v=100
626280 On ch=8 n=70 v=100
626390 Off ch=8 n=70 v=100
626400 On ch=8 n=78 v=100
626510 Off ch=8 n=78 v=100
626520 On ch=8 n=75 v=100
626630 Off ch=8 n=75 v=100
626640 On ch=8 n=66 v=100
626870 Off ch=8 n=66 v=100
626880 On ch=8 n=67 v=100
627110 Off ch=8 n=67 v=100
627120 On ch=8 n=68 v=100
627350 Off ch=8 n=68 v=100
627360 On ch=8 n=69 v=100
627590 Off ch=8 n=69 v=100
627600 On ch=8 n=70 v=100
627830 Off ch=8 n=70 v=100
627840 On ch=8 n=73 v=100
628070 Off ch=8 n=73 v=100
628080 On ch=8 n=70 v=100
628190 Off ch=8 n=70 v=100
628200 On ch=8 n=78 v=100
628310 Off ch=8 n=78 v=100
628320 On ch=8 n=75 v=100
628430 Off ch=8 n=75 v=100
628440 On ch=8 n=70 v=100
628550 Off ch=8 n=70 v=100
628560 On ch=8 n=78 v=100
628670 Off ch=8 n=78 v=100
628680 On ch=8 n=75 v=100
628790 Off ch=8 n=75 v=100
628800 On ch=8 n=70 v=100
628910 Off ch=8 n=70 v=100
628920 On ch=8 n=78 v=100
629030 Off ch=8 n=78 v=100
629040 On ch=8 n=75 v=100
629150 Off ch=8 n=75 v=100
629160 On ch=8 n=70 v=100
629270 Off ch=8 n=70 v=100
629280 On ch=8 n=78 v=100
629390 Off ch=8 n=78 v=100
629400 On ch=8 n=75 v=100
629510 Off ch=8 n=75 v=100
629520 On ch=8 n=70 v=100
629750 Off ch=8 n=70 v=100
629760 On ch=8 n=69 v=100
629990 Off ch=8 n=69 v=100
630000 On ch=8 n=68 v=100
630230 Off ch=8 n=68 v=100
630240 On ch=8 n=67 v=100
630470 Off ch=8 n=67 v=100
630480 On ch=8 n=66 v=100
630710 Off ch=8 n=66 v=100
630720 On ch=8 n=63 v=100
630950 Off ch=8 n=63 v=100
630960 KeySig 0 major
643440 Par ch=8 c=99 v=1
643440 Par ch=8 c=98 v=32
643440 Par ch=8 c=6 v=64
643440 Par ch=8 c=38 v=0
643560 Par ch=8 c=99 v=1
643560 Par ch=8 c=98 v=33
643560 Par ch=8 c=6 v=64
643560 Par ch=8 c=38 v=0
643680 Par ch=8 c=7 v=127
643680 PrCh ch=8 p=28
643920 On ch=8 n=64 v=111
643920 On ch=8 n=69 v=111
643920 On ch=8 n=71 v=111
644062 Off ch=8 n=64 v=111
644066 Off ch=8 n=71 v=111
644069 Off ch=8 n=69 v=111
644160 On ch=8 n=71 v=111
644160 On ch=8 n=69 v=112
644160 On ch=8 n=64 v=113
644272 Off ch=8 n=69 v=112
644283 Off ch=8 n=64 v=113
644284 Off ch=8 n=71 v=111
644400 On ch=8 n=71 v=111
644400 On ch=8 n=64 v=111
644400 On ch=8 n=69 v=111
650640 Off ch=8 n=71 v=111
650640 Off ch=8 n=64 v=111
650640 Off ch=8 n=69 v=111
667910 Par ch=8 c=0 v=0
667910 Par ch=8 c=32 v=0
667910 PrCh ch=8 p=44
669360 On ch=8 n=40 v=114
669360 On ch=8 n=52 v=114
669360 On ch=8 n=55 v=114
669360 On ch=8 n=59 v=114
669360 On ch=8 n=64 v=114
670800 Off ch=8 n=40 v=114
670800 Off ch=8 n=52 v=114
670800 Off ch=8 n=55 v=114
670800 Off ch=8 n=59 v=114
670800 Off ch=8 n=64 v=114
672240 On ch=8 n=64 v=114
672240 On ch=8 n=45 v=114
672240 On ch=8 n=57 v=114
672240 On ch=8 n=60 v=114
673680 Off ch=8 n=64 v=114
673680 Off ch=8 n=45 v=114
673680 Off ch=8 n=57 v=114
673680 Off ch=8 n=60 v=114
673680 On ch=8 n=45 v=114
673920 On ch=8 n=57 v=111
674160 Off ch=8 n=57 v=111
674160 On ch=8 n=61 v=111
674400 Off ch=8 n=61 v=111
674400 On ch=8 n=66 v=111
674640 Off ch=8 n=66 v=111
674640 On ch=8 n=61 v=111
674880 Off ch=8 n=61 v=111
674880 On ch=8 n=57 v=111
675120 Off ch=8 n=45 v=114
675120 Off ch=8 n=57 v=111
675120 On ch=8 n=45 v=114
675360 On ch=8 n=57 v=111
675600 Off ch=8 n=57 v=111
675600 On ch=8 n=61 v=111
675840 Off ch=8 n=61 v=111
675840 On ch=8 n=66 v=111
676080 Off ch=8 n=66 v=111
676080 On ch=8 n=61 v=111
676320 Off ch=8 n=61 v=111
676320 On ch=8 n=57 v=111
676560 Off ch=8 n=45 v=114
676560 Off ch=8 n=57 v=111
676560 On ch=8 n=40 v=111
676800 On ch=8 n=55 v=111
677040 Off ch=8 n=55 v=111
677040 On ch=8 n=59 v=111
677280 Off ch=8 n=59 v=111
677280 On ch=8 n=64 v=111
677520 Off ch=8 n=64 v=111
677520 On ch=8 n=59 v=111
677760 Off ch=8 n=59 v=111
677760 On ch=8 n=55 v=111
678000 Off ch=8 n=40 v=111
678000 Off ch=8 n=55 v=111
678000 On ch=8 n=40 v=111
678240 On ch=8 n=55 v=111
678480 Off ch=8 n=55 v=111
678480 On ch=8 n=59 v=111
678720 Off ch=8 n=59 v=111
678720 On ch=8 n=64 v=111
678960 Off ch=8 n=64 v=111
678960 On ch=8 n=59 v=111
679200 Off ch=8 n=59 v=111
679200 On ch=8 n=55 v=111
679440 Off ch=8 n=40 v=111
679440 Off ch=8 n=55 v=111
679440 On ch=8 n=50 v=111
679680 On ch=8 n=57 v=111
679920 Off ch=8 n=57 v=111
679920 On ch=8 n=62 v=111
680160 Off ch=8 n=62 v=111
680160 On ch=8 n=66 v=111
680400 Off ch=8 n=66 v=111
680400 On ch=8 n=62 v=111
680640 Off ch=8 n=62 v=111
680640 On ch=8 n=57 v=111
680880 Off ch=8 n=50 v=111
680880 Off ch=8 n=57 v=111
680880 On ch=8 n=50 v=111
681120 On ch=8 n=57 v=111
681360 Off ch=8 n=57 v=111
681360 On ch=8 n=62 v=111
681600 Off ch=8 n=62 v=111
681600 On ch=8 n=66 v=111
681840 Off ch=8 n=66 v=111
681840 On ch=8 n=62 v=111
682080 Off ch=8 n=62 v=111
682080 On ch=8 n=57 v=111
682320 Off ch=8 n=50 v=111
682320 Off ch=8 n=57 v=111
682320 On ch=8 n=50 v=111
682560 On ch=8 n=57 v=111
682800 Off ch=8 n=57 v=111
682800 On ch=8 n=62 v=111
683040 Off ch=8 n=62 v=111
683040 On ch=8 n=66 v=111
683280 Off ch=8 n=66 v=111
683280 On ch=8 n=62 v=111
683520 Off ch=8 n=62 v=111
683520 On ch=8 n=57 v=111
683760 Off ch=8 n=50 v=111
683760 Off ch=8 n=57 v=111
683760 On ch=8 n=50 v=111
684000 On ch=8 n=57 v=111
684240 Off ch=8 n=57 v=111
684240 On ch=8 n=62 v=111
684480 Off ch=8 n=62 v=111
684480 On ch=8 n=66 v=111
684720 Off ch=8 n=66 v=111
684720 On ch=8 n=62 v=111
684960 Off ch=8 n=62 v=111
684960 On ch=8 n=57 v=111
685200 Off ch=8 n=50 v=111
685200 Off ch=8 n=57 v=111
686640 On ch=8 n=64 v=115
686640 On ch=8 n=40 v=115
686640 On ch=8 n=52 v=115
686640 On ch=8 n=55 v=115
686640 On ch=8 n=59 v=115
688050 Off ch=8 n=64 v=115
688050 Off ch=8 n=40 v=115
688050 Off ch=8 n=52 v=115
688050 Off ch=8 n=55 v=115
688050 Off ch=8 n=59 v=115
689510 On ch=8 n=57 v=117
689520 On ch=8 n=64 v=115
689520 On ch=8 n=45 v=115
689520 On ch=8 n=60 v=115
690920 Off ch=8 n=57 v=117
690930 Off ch=8 n=64 v=115
690930 Off ch=8 n=45 v=115
690930 Off ch=8 n=60 v=115
690960 On ch=8 n=45 v=114
691200 On ch=8 n=54 v=111
691400 Off ch=8 n=54 v=111
691440 On ch=8 n=57 v=116
691670 Off ch=8 n=57 v=116
691680 On ch=8 n=60 v=114
691900 Off ch=8 n=60 v=114
691930 On ch=8 n=57 v=109
692150 Off ch=8 n=57 v=109
692160 On ch=8 n=54 v=114
692360 Off ch=8 n=45 v=114
692390 Off ch=8 n=54 v=114
692390 On ch=8 n=45 v=114
692640 On ch=8 n=54 v=111
692870 Off ch=8 n=54 v=111
692880 On ch=8 n=57 v=114
693110 Off ch=8 n=57 v=114
693110 On ch=8 n=60 v=117
693340 Off ch=8 n=60 v=117
693360 On ch=8 n=57 v=114
693590 Off ch=8 n=57 v=114
693600 On ch=8 n=54 v=114
693790 Off ch=8 n=45 v=114
693830 Off ch=8 n=54 v=114
693840 On ch=8 n=45 v=111
694080 On ch=8 n=55 v=111
694310 Off ch=8 n=55 v=111
694320 On ch=8 n=59 v=111
694550 Off ch=8 n=59 v=111
694560 On ch=8 n=62 v=111
694790 Off ch=8 n=62 v=111
694800 On ch=8 n=59 v=111
695030 Off ch=8 n=59 v=111
695040 On ch=8 n=55 v=111
695210 Off ch=8 n=45 v=111
695270 Off ch=8 n=55 v=111
695280 On ch=8 n=45 v=111
695520 On ch=8 n=55 v=111
695750 Off ch=8 n=55 v=111
695760 On ch=8 n=59 v=111
695990 Off ch=8 n=59 v=111
696000 On ch=8 n=62 v=111
696230 Off ch=8 n=62 v=111
696240 On ch=8 n=59 v=111
696470 Off ch=8 n=59 v=111
696480 On ch=8 n=55 v=111
696650 Off ch=8 n=45 v=111
696710 Off ch=8 n=55 v=111
696720 On ch=8 n=45 v=111
696960 On ch=8 n=57 v=111
697190 Off ch=8 n=57 v=111
697200 On ch=8 n=62 v=111
697430 Off ch=8 n=62 v=111
697440 On ch=8 n=66 v=111
697670 Off ch=8 n=66 v=111
697680 On ch=8 n=62 v=111
697910 Off ch=8 n=62 v=111
697920 On ch=8 n=57 v=111
698090 Off ch=8 n=45 v=111
698150 Off ch=8 n=57 v=111
698160 On ch=8 n=45 v=111
698400 On ch=8 n=57 v=111
698630 Off ch=8 n=57 v=111
698640 On ch=8 n=62 v=111
698870 Off ch=8 n=62 v=111
698880 On ch=8 n=66 v=111
699110 Off ch=8 n=66 v=111
699120 On ch=8 n=62 v=111
699350 Off ch=8 n=62 v=111
699360 On ch=8 n=57 v=111
699530 Off ch=8 n=45 v=111
699590 Off ch=8 n=57 v=111
699600 On ch=8 n=45 v=111
699840 On ch=8 n=57 v=111
700070 Off ch=8 n=57 v=111
700080 On ch=8 n=62 v=111
700310 Off ch=8 n=62 v=111
700320 On ch=8 n=66 v=111
700550 Off ch=8 n=66 v=111
700560 On ch=8 n=62 v=111
700790 Off ch=8 n=62 v=111
700800 On ch=8 n=57 v=111
700970 Off ch=8 n=45 v=111
701030 Off ch=8 n=57 v=111
701040 On ch=8 n=45 v=111
701280 On ch=8 n=57 v=111
701510 Off ch=8 n=57 v=111
701520 On ch=8 n=62 v=111
701750 Off ch=8 n=62 v=111
701760 On ch=8 n=66 v=111
701990 Off ch=8 n=66 v=111
702000 On ch=8 n=62 v=111
702230 Off ch=8 n=62 v=111
702240 On ch=8 n=57 v=111
702410 Off ch=8 n=45 v=111
702470 Off ch=8 n=57 v=111
705360 KeySig 1 major
705360 Par ch=8 c=99 v=1
705360 Par ch=8 c=98 v=32
705360 Par ch=8 c=6 v=64
705360 Par ch=8 c=38 v=0
705480 Par ch=8 c=99 v=1
705480 Par ch=8 c=98 v=33
705480 Par ch=8 c=6 v=64
705480 Par ch=8 c=38 v=0
705600 Par ch=8 c=7 v=127
705600 PrCh ch=8 p=27
705840 On ch=8 n=70 v=111
705840 On ch=8 n=75 v=111
705840 On ch=8 n=77 v=111
705974 Off ch=8 n=70 v=111
705974 Off ch=8 n=75 v=111
705975 Off ch=8 n=77 v=111
706080 On ch=8 n=77 v=112
706080 On ch=8 n=75 v=112
706080 On ch=8 n=70 v=112
706204 Off ch=8 n=75 v=112
706211 Off ch=8 n=77 v=112
706218 Off ch=8 n=70 v=112
706320 On ch=8 n=77 v=111
706320 On ch=8 n=70 v=111
706320 On ch=8 n=75 v=111
712560 Off ch=8 n=77 v=111
712560 Off ch=8 n=70 v=111
712560 Off ch=8 n=75 v=111
712560 KeySig 2 major
712560 PrCh ch=8 p=18
712560 Pb ch=8 v=7509
712560 On ch=8 n=58 v=110
712680 Pb ch=8 v=8192
712790 Off ch=8 n=58 v=110
712800 On ch=8 n=58 v=110
712910 Off ch=8 n=58 v=110
712920 On ch=8 n=58 v=110
713030 Off ch=8 n=58 v=110
713040 On ch=8 n=58 v=110
713270 Off ch=8 n=58 v=110
713280 Pb ch=8 v=7509
713280 On ch=8 n=58 v=110
713400 Pb ch=8 v=8192
713510 Off ch=8 n=58 v=110
713520 On ch=8 n=58 v=110
713630 Off ch=8 n=58 v=110
713640 On ch=8 n=58 v=110
713750 Off ch=8 n=58 v=110
713760 On ch=8 n=58 v=110
713870 Off ch=8 n=58 v=110
713880 On ch=8 n=58 v=110
713990 Off ch=8 n=58 v=110
714000 On ch=8 n=61 v=110
714230 Off ch=8 n=61 v=110
714240 On ch=8 n=62 v=110
714470 Off ch=8 n=62 v=110
714480 On ch=8 n=63 v=110
714710 Off ch=8 n=63 v=110
714720 On ch=8 n=64 v=110
714950 Off ch=8 n=64 v=110
714960 On ch=8 n=65 v=110
715190 Off ch=8 n=65 v=110
715200 On ch=8 n=68 v=110
715430 Off ch=8 n=68 v=110
715440 Pb ch=8 v=7509
715440 On ch=8 n=70 v=110
715560 Pb ch=8 v=8192
715670 Off ch=8 n=70 v=110
715680 On ch=8 n=70 v=110
715790 Off ch=8 n=70 v=110
715800 On ch=8 n=70 v=110
715910 Off ch=8 n=70 v=110
715920 On ch=8 n=70 v=110
716150 Off ch=8 n=70 v=110
716160 Pb ch=8 v=7509
716160 On ch=8 n=70 v=110
716280 Pb ch=8 v=8192
716390 Off ch=8 n=70 v=110
716400 On ch=8 n=70 v=110
716510 Off ch=8 n=70 v=110
716520 On ch=8 n=70 v=110
716630 Off ch=8 n=70 v=110
716640 On ch=8 n=70 v=110
716750 Off ch=8 n=70 v=110
716760 On ch=8 n=70 v=110
716870 Off ch=8 n=70 v=110
716880 On ch=8 n=73 v=110
717110 Off ch=8 n=73 v=110
717120 On ch=8 n=74 v=110
717350 Off ch=8 n=74 v=110
717360 On ch=8 n=75 v=110
717590 Off ch=8 n=75 v=110
717600 On ch=8 n=76 v=110
717830 Off ch=8 n=76 v=110
717840 On ch=8 n=77 v=110
718070 Off ch=8 n=77 v=110
718080 On ch=8 n=80 v=110
718310 Off ch=8 n=80 v=110
718320 On ch=8 n=82 v=110
718550 Off ch=8 n=82 v=110
718560 On ch=8 n=82 v=110
718670 Off ch=8 n=82 v=110
718680 On ch=8 n=82 v=110
718790 Off ch=8 n=82 v=110
718800 On ch=8 n=82 v=110
719030 Off ch=8 n=82 v=110
719040 On ch=8 n=82 v=110
719270 Off ch=8 n=82 v=110
719280 On ch=8 n=82 v=110
719390 Off ch=8 n=82 v=110
719400 On ch=8 n=82 v=110
719510 Off ch=8 n=82 v=110
719520 On ch=8 n=82 v=110
719630 Off ch=8 n=82 v=110
719640 Pb ch=8 v=7509
719640 On ch=8 n=82 v=110
719750 Off ch=8 n=82 v=110
719760 Pb ch=8 v=8192
719760 On ch=8 n=85 v=110
719990 Off ch=8 n=85 v=110
720000 On ch=8 n=86 v=110
720230 Off ch=8 n=86 v=110
720240 On ch=8 n=87 v=110
720360 Pb ch=8 v=7509
720470 Off ch=8 n=87 v=110
720480 Pb ch=8 v=8192
720480 On ch=8 n=88 v=110
720710 Off ch=8 n=88 v=110
720720 On ch=8 n=89 v=110
720950 Off ch=8 n=89 v=110
720960 On ch=8 n=92 v=110
721190 Off ch=8 n=92 v=110
722160 Meta TrkEnd
TrkEnd
MTrk
0 Meta TrkName "Organ 2"
0 Meta 0x20 08
0 Meta InstrName "Organ 2"
0 KeySig 0 major
805 Par ch=9 c=0 v=0
810 Par ch=9 c=32 v=0
815 PrCh ch=9 p=17
820 Par ch=9 c=7 v=100
825 Par ch=9 c=10 v=64
830 Par ch=9 c=91 v=40
835 Par ch=9 c=93 v=0
840 Par ch=9 c=101 v=0
840 Par ch=9 c=100 v=0
840 Par ch=9 c=6 v=2
845 Par ch=9 c=99 v=1
845 Par ch=9 c=98 v=8
845 Par ch=9 c=6 v=64
850 Par ch=9 c=99 v=1
850 Par ch=9 c=98 v=9
850 Par ch=9 c=6 v=64
855 Par ch=9 c=99 v=1
855 Par ch=9 c=98 v=10
855 Par ch=9 c=6 v=64
860 Par ch=9 c=99 v=1
860 Par ch=9 c=98 v=32
860 Par ch=9 c=6 v=64
865 Par ch=9 c=99 v=1
865 Par ch=9 c=98 v=33
865 Par ch=9 c=6 v=64
870 Par ch=9 c=99 v=1
870 Par ch=9 c=98 v=99
870 Par ch=9 c=6 v=64
875 Par ch=9 c=99 v=1
875 Par ch=9 c=98 v=100
875 Par ch=9 c=6 v=64
880 Par ch=9 c=99 v=1
880 Par ch=9 c=98 v=102
880 Par ch=9 c=6 v=64
4800 On ch=9 n=92 v=80
5600 Off ch=9 n=92 v=80
5600 On ch=9 n=91 v=80
6050 Off ch=9 n=91 v=80
6050 On ch=9 n=97 v=80
6310 Off ch=9 n=97 v=80
6310 On ch=9 n=96 v=80
6830 Off ch=9 n=96 v=80
6830 On ch=9 n=92 v=80
7130 Off ch=9 n=92 v=80
7130 On ch=9 n=100 v=80
8400 Off ch=9 n=100 v=80
11280 On ch=9 n=98 v=80
12080 Off ch=9 n=98 v=80
12080 On ch=9 n=97 v=80
12880 Off ch=9 n=97 v=80
12880 On ch=9 n=100 v=80
13400 Off ch=9 n=100 v=80
13400 On ch=9 n=97 v=80
13660 Off ch=9 n=97 v=80
13660 On ch=9 n=95 v=80
14160 Off ch=9 n=95 v=80
14160 On ch=9 n=92 v=80
14870 Off ch=9 n=92 v=80
142260 Par ch=9 c=98 v=99
142270 Par ch=9 c=99 v=1
142280 Par ch=9 c=6 v=66
142290 Par ch=9 c=10 v=0
142300 PrCh ch=9 p=18
142310 Par ch=9 c=11 v=85
142320 On ch=9 n=68 v=100
142430 Off ch=9 n=68 v=100
142440 On ch=9 n=75 v=100
142550 Off ch=9 n=75 v=100
142560 On ch=9 n=71 v=100
142670 Off ch=9 n=71 v=100
142680 On ch=9 n=68 v=100
142790 Off ch=9 n=68 v=100
142800 On ch=9 n=75 v=100
142910 Off ch=9 n=75 v=100
142920 On ch=9 n=71 v=100
143030 Off ch=9 n=71 v=100
143040 On ch=9 n=68 v=100
143150 Off ch=9 n=68 v=100
143160 On ch=9 n=75 v=100
143270 Off ch=9 n=75 v=100
143280 On ch=9 n=71 v=100
143390 Off ch=9 n=71 v=100
143400 On ch=9 n=68 v=100
143510 Off ch=9 n=68 v=100
143520 On ch=9 n=75 v=100
143630 Off ch=9 n=75 v=100
143640 On ch=9 n=71 v=100
143750 Off ch=9 n=71 v=100
143760 On ch=9 n=75 v=100
143990 Off ch=9 n=75 v=100
144000 On ch=9 n=74 v=100
144230 Off ch=9 n=74 v=100
144240 On ch=9 n=73 v=100
144470 Off ch=9 n=73 v=100
144480 On ch=9 n=72 v=100
144710 Off ch=9 n=72 v=100
144720 On ch=9 n=71 v=100
144950 Off ch=9 n=71 v=100
144960 On ch=9 n=68 v=100
145190 Off ch=9 n=68 v=100
145200 On ch=9 n=68 v=100
145310 Off ch=9 n=68 v=100
145320 On ch=9 n=75 v=100
145430 Off ch=9 n=75 v=100
145440 On ch=9 n=71 v=100
145550 Off ch=9 n=71 v=100
145560 On ch=9 n=68 v=100
145670 Off ch=9 n=68 v=100
145680 On ch=9 n=75 v=100
145790 Off ch=9 n=75 v=100
145800 On ch=9 n=71 v=100
145910 Off ch=9 n=71 v=100
145920 On ch=9 n=68 v=100
146030 Off ch=9 n=68 v=100
146040 On ch=9 n=75 v=100
146150 Off ch=9 n=75 v=100
146160 On ch=9 n=71 v=100
146270 Off ch=9 n=71 v=100
146280 On ch=9 n=68 v=100
146390 Off ch=9 n=68 v=100
146400 On ch=9 n=75 v=100
146510 Off ch=9 n=75 v=100
146520 On ch=9 n=71 v=100
146630 Off ch=9 n=71 v=100
146640 On ch=9 n=71 v=100
146870 Off ch=9 n=71 v=100
146880 On ch=9 n=72 v=100
147110 Off ch=9 n=72 v=100
147120 On ch=9 n=73 v=100
147350 Off ch=9 n=73 v=100
147360 On ch=9 n=74 v=100
147590 Off ch=9 n=74 v=100
147600 On ch=9 n=75 v=100
147830 Off ch=9 n=75 v=100
147840 On ch=9 n=78 v=100
148070 Off ch=9 n=78 v=100
148080 On ch=9 n=68 v=100
148190 Off ch=9 n=68 v=100
148200 On ch=9 n=75 v=100
148310 Off ch=9 n=75 v=100
148320 On ch=9 n=71 v=100
148430 Off ch=9 n=71 v=100
148440 On ch=9 n=68 v=100
148550 Off ch=9 n=68 v=100
148560 On ch=9 n=75 v=100
148670 Off ch=9 n=75 v=100
148680 On ch=9 n=71 v=100
148790 Off ch=9 n=71 v=100
148800 On ch=9 n=68 v=100
148910 Off ch=9 n=68 v=100
148920 On ch=9 n=75 v=100
149030 Off ch=9 n=75 v=100
149040 On ch=9 n=71 v=100
149150 Off ch=9 n=71 v=100
149160 On ch=9 n=68 v=100
149270 Off ch=9 n=68 v=100
149280 On ch=9 n=75 v=100
149390 Off ch=9 n=75 v=100
149400 On ch=9 n=71 v=100
149510 Off ch=9 n=71 v=100
149520 On ch=9 n=71 v=100
149750 Off ch=9 n=71 v=100
149760 On ch=9 n=72 v=100
149990 Off ch=9 n=72 v=100
150000 On ch=9 n=73 v=100
150230 Off ch=9 n=73 v=100
150240 On ch=9 n=74 v=100
150470 Off ch=9 n=74 v=100
150480 On ch=9 n=75 v=100
150710 Off ch=9 n=75 v=100
150720 On ch=9 n=78 v=100
150950 Off ch=9 n=78 v=100
150960 On ch=9 n=68 v=100
151070 Off ch=9 n=68 v=100
151080 On ch=9 n=75 v=100
151190 Off ch=9 n=75 v=100
151200 On ch=9 n=71 v=100
151310 Off ch=9 n=71 v=100
151320 On ch=9 n=68 v=100
151430 Off ch=9 n=68 v=100
151440 On ch=9 n=75 v=100
151550 Off ch=9 n=75 v=100
151560 On ch=9 n=71 v=100
151670 Off ch=9 n=71 v=100
151680 On ch=9 n=68 v=100
151790 Off ch=9 n=68 v=100
151800 On ch=9 n=75 v=100
151910 Off ch=9 n=75 v=100
151920 On ch=9 n=71 v=100
152030 Off ch=9 n=71 v=100
152040 On ch=9 n=68 v=100
152150 Off ch=9 n=68 v=100
152160 On ch=9 n=75 v=100
152270 Off ch=9 n=75 v=100
152280 On ch=9 n=71 v=100
152390 Off ch=9 n=71 v=100
152400 On ch=9 n=71 v=100
152630 Off ch=9 n=71 v=100
152640 On ch=9 n=72 v=100
152870 Off ch=9 n=72 v=100
152880 On ch=9 n=73 v=100
153110 Off ch=9 n=73 v=100
153120 On ch=9 n=74 v=100
153350 Off ch=9 n=74 v=100
153360 On ch=9 n=75 v=100
153590 Off ch=9 n=75 v=100
153600 On ch=9 n=78 v=100
153830 Off ch=9 n=78 v=100
153840 On ch=9 n=68 v=100
153950 Off ch=9 n=68 v=100
153960 On ch=9 n=75 v=100
154070 Off ch=9 n=75 v=100
154080 On ch=9 n=71 v=100
154190 Off ch=9 n=71 v=100
154200 On ch=9 n=68 v=100
154310 Off ch=9 n=68 v=100
154320 On ch=9 n=75 v=100
154430 Off ch=9 n=75 v=100
154440 On ch=9 n=71 v=100
154550 Off ch=9 n=71 v=100
154560 On ch=9 n=68 v=100
154670 Off ch=9 n=68 v=100
154680 On ch=9 n=75 v=100
154790 Off ch=9 n=75 v=100
154800 On ch=9 n=71 v=100
154910 Off ch=9 n=71 v=100
154920 On ch=9 n=68 v=100
155030 Off ch=9 n=68 v=100
155040 On ch=9 n=75 v=100
155150 Off ch=9 n=75 v=100
155160 On ch=9 n=71 v=100
155270 Off ch=9 n=71 v=100
155280 On ch=9 n=75 v=100
155510 Off ch=9 n=75 v=100
155520 On ch=9 n=74 v=100
155750 Off ch=9 n=74 v=100
155760 On ch=9 n=73 v=100
155990 Off ch=9 n=73 v=100
156000 On ch=9 n=72 v=100
156230 Off ch=9 n=72 v=100
156240 On ch=9 n=71 v=100
156470 Off ch=9 n=71 v=100
156480 On ch=9 n=68 v=100
156710 Off ch=9 n=68 v=100
156720 On ch=9 n=68 v=100
156830 Off ch=9 n=68 v=100
156840 On ch=9 n=75 v=100
156950 Off ch=9 n=75 v=100
156960 On ch=9 n=71 v=100
157070 Off ch=9 n=71 v=100
157080 On ch=9 n=68 v=100
157190 Off ch=9 n=68 v=100
157200 On ch=9 n=75 v=100
157310 Off ch=9 n=75 v=100
157320 On ch=9 n=71 v=100
157430 Off ch=9 n=71 v=100
157440 On ch=9 n=68 v=100
157550 Off ch=9 n=68 v=100
157560 On ch=9 n=75 v=100
157670 Off ch=9 n=75 v=100
157680 On ch=9 n=71 v=100
157790 Off ch=9 n=71 v=100
157800 On ch=9 n=68 v=100
157910 Off ch=9 n=68 v=100
157920 On ch=9 n=75 v=100
158030 Off ch=9 n=75 v=100
158040 On ch=9 n=71 v=100
158150 Off ch=9 n=71 v=100
158160 On ch=9 n=71 v=100
158390 Off ch=9 n=71 v=100
158400 On ch=9 n=72 v=100
158630 Off ch=9 n=72 v=100
158640 On ch=9 n=73 v=100
158870 Off ch=9 n=73 v=100
158880 On ch=9 n=74 v=100
159110 Off ch=9 n=74 v=100
159120 On ch=9 n=75 v=100
159350 Off ch=9 n=75 v=100
159360 On ch=9 n=78 v=100
159590 Off ch=9 n=78 v=100
159600 On ch=9 n=56 v=100
159760 Off ch=9 n=56 v=100
159840 On ch=9 n=51 v=100
160000 Off ch=9 n=51 v=100
160080 On ch=9 n=47 v=100
160240 Off ch=9 n=47 v=100
160320 On ch=9 n=46 v=100
160790 Off ch=9 n=46 v=100
160800 On ch=9 n=49 v=100
160960 Off ch=9 n=49 v=100
161040 On ch=9 n=59 v=100
161510 Off ch=9 n=59 v=100
161520 On ch=9 n=63 v=100
161680 Off ch=9 n=63 v=100
161760 On ch=9 n=61 v=100
162230 Off ch=9 n=61 v=100
162240 On ch=9 n=66 v=100
162400 Off ch=9 n=66 v=100
162480 On ch=9 n=63 v=100
162640 Off ch=9 n=63 v=100
162960 On ch=9 n=75 v=100
163120 Off ch=9 n=75 v=100
163680 On ch=9 n=73 v=100
163840 Off ch=9 n=73 v=100
164400 On ch=9 n=71 v=100
164560 Off ch=9 n=71 v=100
165120 On ch=9 n=80 v=100
165120 On ch=9 n=75 v=100
165120 On ch=9 n=71 v=100
166310 Off ch=9 n=80 v=100
166310 Off ch=9 n=75 v=100
166310 Off ch=9 n=71 v=100
166320 On ch=9 n=78 v=100
166320 On ch=9 n=73 v=100
166320 On ch=9 n=70 v=100
167030 Off ch=9 n=78 v=100
167030 Off ch=9 n=73 v=100
167030 Off ch=9 n=70 v=100
167040 On ch=9 n=68 v=100
167150 Off ch=9 n=68 v=100
167160 On ch=9 n=75 v=100
167270 Off ch=9 n=75 v=100
167280 On ch=9 n=71 v=100
167390 Off ch=9 n=71 v=100
167400 On ch=9 n=68 v=100
167510 Off ch=9 n=68 v=100
167520 On ch=9 n=75 v=100
167630 Off ch=9 n=75 v=100
167640 On ch=9 n=71 v=100
167750 Off ch=9 n=71 v=100
167760 On ch=9 n=68 v=100
167870 Off ch=9 n=68 v=100
167880 On ch=9 n=75 v=100
167990 Off ch=9 n=75 v=100
168000 On ch=9 n=71 v=100
168110 Off ch=9 n=71 v=100
168120 On ch=9 n=68 v=100
168230 Off ch=9 n=68 v=100
168240 On ch=9 n=75 v=100
168350 Off ch=9 n=75 v=100
168360 On ch=9 n=71 v=100
168470 Off ch=9 n=71 v=100
168480 On ch=9 n=75 v=100
168710 Off ch=9 n=75 v=100
168720 On ch=9 n=74 v=100
168950 Off ch=9 n=74 v=100
168960 On ch=9 n=73 v=100
169190 Off ch=9 n=73 v=100
169200 On ch=9 n=72 v=100
169430 Off ch=9 n=72 v=100
169440 On ch=9 n=71 v=100
169670 Off ch=9 n=71 v=100
169680 On ch=9 n=68 v=100
169910 Off ch=9 n=68 v=100
169920 On ch=9 n=68 v=100
170030 Off ch=9 n=68 v=100
170040 On ch=9 n=75 v=100
170150 Off ch=9 n=75 v=100
170160 On ch=9 n=71 v=100
170270 Off ch=9 n=71 v=100
170280 On ch=9 n=68 v=100
170390 Off ch=9 n=68 v=100
170400 On ch=9 n=75 v=100
170510 Off ch=9 n=75 v=100
170520 On ch=9 n=71 v=100
170630 Off ch=9 n=71 v=100
170640 On ch=9 n=68 v=100
170750 Off ch=9 n=68 v=100
170760 On ch=9 n=75 v=100
170870 Off ch=9 n=75 v=100
170880 On ch=9 n=71 v=100
170990 Off ch=9 n=71 v=100
171000 On ch=9 n=68 v=100
171110 Off ch=9 n=68 v=100
171120 On ch=9 n=75 v=100
171230 Off ch=9 n=75 v=100
171240 On ch=9 n=71 v=100
171350 Off ch=9 n=71 v=100
171360 On ch=9 n=71 v=100
171590 Off ch=9 n=71 v=100
171600 On ch=9 n=72 v=100
171830 Off ch=9 n=72 v=100
171840 On ch=9 n=73 v=100
172070 Off ch=9 n=73 v=100
172080 On ch=9 n=74 v=100
172310 Off ch=9 n=74 v=100
172320 On ch=9 n=75 v=100
172550 Off ch=9 n=75 v=100
172560 On ch=9 n=78 v=100
172790 Off ch=9 n=78 v=100
172800 On ch=9 n=68 v=100
172910 Off ch=9 n=68 v=100
172920 On ch=9 n=75 v=100
173030 Off ch=9 n=75 v=100
173040 On ch=9 n=71 v=100
173150 Off ch=9 n=71 v=100
173160 On ch=9 n=68 v=100
173270 Off ch=9 n=68 v=100
173280 On ch=9 n=75 v=100
173390 Off ch=9 n=75 v=100
173400 On ch=9 n=71 v=100
173510 Off ch=9 n=71 v=100
173520 On ch=9 n=68 v=100
173630 Off ch=9 n=68 v=100
173640 On ch=9 n=75 v=100
173750 Off ch=9 n=75 v=100
173760 On ch=9 n=71 v=100
173870 Off ch=9 n=71 v=100
173880 On ch=9 n=68 v=100
173990 Off ch=9 n=68 v=100
174000 On ch=9 n=75 v=100
174110 Off ch=9 n=75 v=100
174120 On ch=9 n=71 v=100
174230 Off ch=9 n=71 v=100
174240 On ch=9 n=71 v=100
174470 Off ch=9 n=71 v=100
174480 On ch=9 n=72 v=100
174710 Off ch=9 n=72 v=100
174720 On ch=9 n=73 v=100
174950 Off ch=9 n=73 v=100
174960 On ch=9 n=74 v=100
175190 Off ch=9 n=74 v=100
175200 On ch=9 n=75 v=100
175430 Off ch=9 n=75 v=100
175440 On ch=9 n=78 v=100
175670 Off ch=9 n=78 v=100
175680 On ch=9 n=68 v=100
175790 Off ch=9 n=68 v=100
175800 On ch=9 n=75 v=100
175910 Off ch=9 n=75 v=100
175920 On ch=9 n=71 v=100
176030 Off ch=9 n=71 v=100
176040 On ch=9 n=68 v=100
176150 Off ch=9 n=68 v=100
176160 On ch=9 n=75 v=100
176270 Off ch=9 n=75 v=100
176280 On ch=9 n=71 v=100
176390 Off ch=9 n=71 v=100
176400 On ch=9 n=68 v=100
176510 Off ch=9 n=68 v=100
176520 On ch=9 n=75 v=100
176630 Off ch=9 n=75 v=100
176640 On ch=9 n=71 v=100
176750 Off ch=9 n=71 v=100
176760 On ch=9 n=68 v=100
176870 Off ch=9 n=68 v=100
176880 On ch=9 n=75 v=100
176990 Off ch=9 n=75 v=100
177000 On ch=9 n=71 v=100
177110 Off ch=9 n=71 v=100
177120 On ch=9 n=71 v=100
177350 Off ch=9 n=71 v=100
177360 On ch=9 n=72 v=100
177590 Off ch=9 n=72 v=100
177600 On ch=9 n=73 v=100
177830 Off ch=9 n=73 v=100
177840 On ch=9 n=74 v=100
178070 Off ch=9 n=74 v=100
178080 On ch=9 n=75 v=100
178310 Off ch=9 n=75 v=100
178320 On ch=9 n=78 v=100
178550 Off ch=9 n=78 v=100
178560 On ch=9 n=68 v=100
178670 Off ch=9 n=68 v=100
178680 On ch=9 n=75 v=100
178790 Off ch=9 n=75 v=100
178800 On ch=9 n=71 v=100
178910 Off ch=9 n=71 v=100
178920 On ch=9 n=68 v=100
179030 Off ch=9 n=68 v=100
179040 On ch=9 n=75 v=100
179150 Off ch=9 n=75 v=100
179160 On ch=9 n=71 v=100
179270 Off ch=9 n=71 v=100
179280 On ch=9 n=68 v=100
179390 Off ch=9 n=68 v=100
179400 On ch=9 n=75 v=100
179510 Off ch=9 n=75 v=100
179520 On ch=9 n=71 v=100
179630 Off ch=9 n=71 v=100
179640 On ch=9 n=68 v=100
179750 Off ch=9 n=68 v=100
179760 On ch=9 n=75 v=100
179870 Off ch=9 n=75 v=100
179880 On ch=9 n=71 v=100
179990 Off ch=9 n=71 v=100
180000 On ch=9 n=75 v=100
180230 Off ch=9 n=75 v=100
180240 On ch=9 n=74 v=100
180470 Off ch=9 n=74 v=100
180480 On ch=9 n=73 v=100
180710 Off ch=9 n=73 v=100
180720 On ch=9 n=72 v=100
180950 Off ch=9 n=72 v=100
180960 On ch=9 n=71 v=100
181190 Off ch=9 n=71 v=100
181200 On ch=9 n=68 v=100
181430 Off ch=9 n=68 v=100
181440 On ch=9 n=68 v=100
181550 Off ch=9 n=68 v=100
181560 On ch=9 n=75 v=100
181670 Off ch=9 n=75 v=100
181680 On ch=9 n=71 v=100
181790 Off ch=9 n=71 v=100
181800 On ch=9 n=68 v=100
181910 Off ch=9 n=68 v=100
181920 On ch=9 n=75 v=100
182030 Off ch=9 n=75 v=100
182040 On ch=9 n=71 v=100
182150 Off ch=9 n=71 v=100
182160 On ch=9 n=68 v=100
182270 Off ch=9 n=68 v=100
182280 On ch=9 n=75 v=100
182390 Off ch=9 n=75 v=100
182400 On ch=9 n=71 v=100
182510 Off ch=9 n=71 v=100
182520 On ch=9 n=68 v=100
182630 Off ch=9 n=68 v=100
182640 On ch=9 n=75 v=100
182750 Off ch=9 n=75 v=100
182760 On ch=9 n=71 v=100
182870 Off ch=9 n=71 v=100
182880 On ch=9 n=71 v=100
183110 Off ch=9 n=71 v=100
183120 On ch=9 n=72 v=100
183350 Off ch=9 n=72 v=100
183360 On ch=9 n=73 v=100
183590 Off ch=9 n=73 v=100
183600 On ch=9 n=74 v=100
183830 Off ch=9 n=74 v=100
183840 On ch=9 n=75 v=100
184070 Off ch=9 n=75 v=100
184080 On ch=9 n=78 v=100
184310 Off ch=9 n=78 v=100
184320 On ch=9 n=56 v=100
184480 Off ch=9 n=56 v=100
184560 On ch=9 n=51 v=100
184720 Off ch=9 n=51 v=100
184800 On ch=9 n=47 v=100
184960 Off ch=9 n=47 v=100
185040 On ch=9 n=46 v=100
185510 Off ch=9 n=46 v=100
185520 On ch=9 n=49 v=100
185680 Off ch=9 n=49 v=100
185760 On ch=9 n=59 v=100
186230 Off ch=9 n=59 v=100
186240 On ch=9 n=63 v=100
186400 Off ch=9 n=63 v=100
186480 On ch=9 n=61 v=100
186950 Off ch=9 n=61 v=100
186960 On ch=9 n=66 v=100
187120 Off ch=9 n=66 v=100
187200 On ch=9 n=63 v=100
187360 Off ch=9 n=63 v=100
187680 On ch=9 n=75 v=100
187840 Off ch=9 n=75 v=100
188400 On ch=9 n=73 v=100
188560 Off ch=9 n=73 v=100
189120 On ch=9 n=71 v=100
189280 Off ch=9 n=71 v=100
189840 On ch=9 n=80 v=100
189840 On ch=9 n=75 v=100
189840 On ch=9 n=71 v=100
191030 Off ch=9 n=80 v=100
191030 Off ch=9 n=75 v=100
191030 Off ch=9 n=71 v=100
191040 On ch=9 n=78 v=100
191040 On ch=9 n=73 v=100
191040 On ch=9 n=70 v=100
191750 Off ch=9 n=78 v=100
191750 Off ch=9 n=73 v=100
191750 Off ch=9 n=70 v=100
223440 On ch=9 n=56 v=100
223600 Off ch=9 n=56 v=100
223680 On ch=9 n=51 v=100
223840 Off ch=9 n=51 v=100
223920 On ch=9 n=47 v=100
224080 Off ch=9 n=47 v=100
224160 On ch=9 n=46 v=100
224630 Off ch=9 n=46 v=100
224640 On ch=9 n=49 v=100
224800 Off ch=9 n=49 v=100
224880 On ch=9 n=59 v=100
225350 Off ch=9 n=59 v=100
225360 On ch=9 n=63 v=100
225520 Off ch=9 n=63 v=100
225600 On ch=9 n=61 v=100
226070 Off ch=9 n=61 v=100
226080 On ch=9 n=66 v=100
226240 Off ch=9 n=66 v=100
226320 On ch=9 n=63 v=100
226480 Off ch=9 n=63 v=100
226800 On ch=9 n=75 v=100
226960 Off ch=9 n=75 v=100
227520 On ch=9 n=73 v=100
227680 Off ch=9 n=73 v=100
228240 On ch=9 n=71 v=100
228400 Off ch=9 n=71 v=100
228960 On ch=9 n=71 v=70
228960 On ch=9 n=68 v=70
231830 Off ch=9 n=71 v=70
231830 Off ch=9 n=68 v=70
315360 Par ch=9 c=98 v=33
315370 Par ch=9 c=99 v=1
315380 Par ch=9 c=6 v=114
315390 Par ch=9 c=98 v=32
315400 Par ch=9 c=99 v=1
315410 Par ch=9 c=6 v=45
318220 Par ch=9 c=10 v=105
318230 Par ch=9 c=11 v=80
318240 On ch=9 n=63 v=90
318470 Off ch=9 n=63 v=90
318480 On ch=9 n=60 v=90
318710 Off ch=9 n=60 v=90
318720 On ch=9 n=61 v=90
318950 Off ch=9 n=61 v=90
318960 On ch=9 n=66 v=90
319190 Off ch=9 n=66 v=90
319200 On ch=9 n=64 v=90
319430 Off ch=9 n=64 v=90
319440 On ch=9 n=65 v=90
319670 Off ch=9 n=65 v=90
319680 On ch=9 n=70 v=90
319910 Off ch=9 n=70 v=90
319920 On ch=9 n=67 v=90
320150 Off ch=9 n=67 v=90
320160 On ch=9 n=68 v=90
320390 Off ch=9 n=68 v=90
320400 On ch=9 n=75 v=90
320630 Off ch=9 n=75 v=90
320640 On ch=9 n=72 v=90
320870 Off ch=9 n=72 v=90
320880 On ch=9 n=73 v=90
321110 Off ch=9 n=73 v=90
321120 On ch=9 n=71 v=90
321350 Off ch=9 n=71 v=90
321360 On ch=9 n=69 v=90
321590 Off ch=9 n=69 v=90
321600 On ch=9 n=66 v=90
321830 Off ch=9 n=66 v=90
321840 On ch=9 n=71 v=90
322070 Off ch=9 n=71 v=90
322080 On ch=9 n=69 v=90
322310 Off ch=9 n=69 v=90
322320 On ch=9 n=64 v=90
322550 Off ch=9 n=64 v=90
322560 On ch=9 n=71 v=90
322790 Off ch=9 n=71 v=90
322800 On ch=9 n=69 v=90
323030 Off ch=9 n=69 v=90
323040 On ch=9 n=63 v=90
323270 Off ch=9 n=63 v=90
323280 On ch=9 n=71 v=90
323510 Off ch=9 n=71 v=90
323520 On ch=9 n=69 v=90
323750 Off ch=9 n=69 v=90
323760 On ch=9 n=61 v=90
323990 Off ch=9 n=61 v=90
324000 On ch=9 n=71 v=90
324230 Off ch=9 n=71 v=90
324240 On ch=9 n=69 v=90
324470 Off ch=9 n=69 v=90
324480 On ch=9 n=59 v=90
324710 Off ch=9 n=59 v=90
324720 On ch=9 n=71 v=90
324950 Off ch=9 n=71 v=90
324960 On ch=9 n=69 v=90
325190 Off ch=9 n=69 v=90
325200 On ch=9 n=59 v=90
325430 Off ch=9 n=59 v=90
325440 On ch=9 n=71 v=90
325670 Off ch=9 n=71 v=90
325920 On ch=9 n=59 v=90
326150 Off ch=9 n=59 v=90
326160 On ch=9 n=57 v=90
326390 Off ch=9 n=57 v=90
326400 On ch=9 n=54 v=90
326630 Off ch=9 n=54 v=90
326640 On ch=9 n=59 v=90
326870 Off ch=9 n=59 v=90
326880 On ch=9 n=57 v=90
327110 Off ch=9 n=57 v=90
327120 On ch=9 n=52 v=90
327350 Off ch=9 n=52 v=90
327360 On ch=9 n=59 v=90
327590 Off ch=9 n=59 v=90
327600 On ch=9 n=57 v=90
327830 Off ch=9 n=57 v=90
327840 On ch=9 n=51 v=90
328070 Off ch=9 n=51 v=90
328080 On ch=9 n=59 v=90
328310 Off ch=9 n=59 v=90
328320 On ch=9 n=57 v=90
328550 Off ch=9 n=57 v=90
328560 On ch=9 n=49 v=90
328790 Off ch=9 n=49 v=90
328800 On ch=9 n=59 v=90
329030 Off ch=9 n=59 v=90
329040 On ch=9 n=57 v=90
329270 Off ch=9 n=57 v=90
329280 On ch=9 n=47 v=90
329510 Off ch=9 n=47 v=90
329520 On ch=9 n=59 v=90
329700 Off ch=9 n=59 v=90
329760 On ch=9 n=57 v=90
329920 Off ch=9 n=57 v=90
330000 On ch=9 n=47 v=90
330160 Off ch=9 n=47 v=90
330240 On ch=9 n=59 v=90
330420 Off ch=9 n=59 v=90
330720 On ch=9 n=47 v=90
330880 Off ch=9 n=47 v=90
424320 Par ch=9 c=99 v=1
424320 Par ch=9 c=98 v=32
424320 Par ch=9 c=6 v=64
424320 Par ch=9 c=38 v=0
424320 Par ch=9 c=99 v=1
424320 Par ch=9 c=98 v=33
424320 Par ch=9 c=6 v=64
424320 Par ch=9 c=38 v=0
425760 On ch=9 n=63 v=90
425990 Off ch=9 n=63 v=90
426000 On ch=9 n=60 v=90
426230 Off ch=9 n=60 v=90
426240 On ch=9 n=61 v=90
426470 Off ch=9 n=61 v=90
426480 On ch=9 n=66 v=90
426710 Off ch=9 n=66 v=90
426720 On ch=9 n=64 v=90
426950 Off ch=9 n=64 v=90
426960 On ch=9 n=65 v=90
427190 Off ch=9 n=65 v=90
427200 On ch=9 n=70 v=90
427430 Off ch=9 n=70 v=90
427440 On ch=9 n=67 v=90
427670 Off ch=9 n=67 v=90
427680 On ch=9 n=68 v=90
427910 Off ch=9 n=68 v=90
427920 On ch=9 n=75 v=90
428150 Off ch=9 n=75 v=90
428160 On ch=9 n=72 v=90
428390 Off ch=9 n=72 v=90
428400 On ch=9 n=73 v=90
428630 Off ch=9 n=73 v=90
428640 On ch=9 n=71 v=91
428870 Off ch=9 n=71 v=91
428880 On ch=9 n=69 v=84
428960 On ch=9 n=71 v=84
428993 Off ch=9 n=69 v=84
429040 On ch=9 n=69 v=88
429063 Off ch=9 n=71 v=84
429120 On ch=9 n=66 v=90
429158 Off ch=9 n=69 v=88
429350 Off ch=9 n=66 v=90
429360 On ch=9 n=71 v=90
429590 Off ch=9 n=71 v=90
429600 On ch=9 n=69 v=84
429680 On ch=9 n=71 v=84
429698 Off ch=9 n=69 v=84
429760 On ch=9 n=69 v=84
429773 Off ch=9 n=71 v=84
429840 On ch=9 n=64 v=90
429858 Off ch=9 n=69 v=84
430070 Off ch=9 n=64 v=90
430080 On ch=9 n=71 v=90
430310 Off ch=9 n=71 v=90
430320 On ch=9 n=69 v=85
430400 On ch=9 n=71 v=82
430438 Off ch=9 n=69 v=85
430480 On ch=9 n=69 v=85
430513 Off ch=9 n=71 v=82
430560 On ch=9 n=63 v=90
430588 Off ch=9 n=69 v=85
430790 Off ch=9 n=63 v=90
430800 On ch=9 n=71 v=90
431030 Off ch=9 n=71 v=90
431040 On ch=9 n=69 v=82
431120 On ch=9 n=71 v=84
431153 Off ch=9 n=69 v=82
431200 On ch=9 n=69 v=86
431228 Off ch=9 n=71 v=84
431280 On ch=9 n=61 v=90
431318 Off ch=9 n=69 v=86
431510 Off ch=9 n=61 v=90
431520 On ch=9 n=71 v=90
431750 Off ch=9 n=71 v=90
431760 On ch=9 n=69 v=86
431840 On ch=9 n=71 v=83
431868 Off ch=9 n=69 v=86
431920 On ch=9 n=69 v=85
431948 Off ch=9 n=71 v=83
432000 Off ch=9 n=69 v=85
432000 On ch=9 n=59 v=90
432230 Off ch=9 n=59 v=90
432240 On ch=9 n=71 v=90
432470 Off ch=9 n=71 v=90
432480 On ch=9 n=69 v=86
432560 On ch=9 n=71 v=85
432578 Off ch=9 n=69 v=86
432640 On ch=9 n=69 v=83
432663 Off ch=9 n=71 v=85
432720 On ch=9 n=59 v=90
432743 Off ch=9 n=69 v=83
432950 Off ch=9 n=59 v=90
432960 On ch=9 n=71 v=90
433190 Off ch=9 n=71 v=90
433440 On ch=9 n=71 v=90
433670 Off ch=9 n=71 v=90
433680 On ch=9 n=69 v=84
433760 On ch=9 n=71 v=83
433788 Off ch=9 n=69 v=84
433840 On ch=9 n=69 v=84
433868 Off ch=9 n=71 v=83
433920 Off ch=9 n=69 v=84
433920 On ch=9 n=66 v=90
434150 Off ch=9 n=66 v=90
434160 On ch=9 n=71 v=90
434390 Off ch=9 n=71 v=90
434400 On ch=9 n=69 v=85
434480 On ch=9 n=71 v=85
434498 Off ch=9 n=69 v=85
434560 On ch=9 n=69 v=84
434593 Off ch=9 n=71 v=85
434640 On ch=9 n=64 v=90
434673 Off ch=9 n=69 v=84
434870 Off ch=9 n=64 v=90
434880 On ch=9 n=71 v=90
435110 Off ch=9 n=71 v=90
435120 On ch=9 n=69 v=85
435200 On ch=9 n=71 v=83
435223 Off ch=9 n=69 v=85
435280 On ch=9 n=69 v=85
435308 Off ch=9 n=71 v=83
435360 On ch=9 n=63 v=90
435388 Off ch=9 n=69 v=85
435590 Off ch=9 n=63 v=90
435600 On ch=9 n=71 v=90
435830 Off ch=9 n=71 v=90
435840 On ch=9 n=69 v=90
436070 Off ch=9 n=69 v=90
436080 On ch=9 n=61 v=90
436310 Off ch=9 n=61 v=90
436320 On ch=9 n=71 v=90
436550 Off ch=9 n=71 v=90
436560 On ch=9 n=69 v=84
436640 On ch=9 n=71 v=82
436663 Off ch=9 n=69 v=84
436720 On ch=9 n=69 v=84
436748 Off ch=9 n=71 v=82
436800 On ch=9 n=59 v=90
436828 Off ch=9 n=69 v=84
437030 Off ch=9 n=59 v=90
437040 On ch=9 n=71 v=90
437270 Off ch=9 n=71 v=90
437280 On ch=9 n=69 v=85
437360 On ch=9 n=71 v=83
437383 Off ch=9 n=69 v=85
437440 On ch=9 n=69 v=84
437453 Off ch=9 n=71 v=83
437520 On ch=9 n=59 v=90
437543 Off ch=9 n=69 v=84
437750 Off ch=9 n=59 v=90
437760 On ch=9 n=71 v=90
437990 Off ch=9 n=71 v=90
438240 On ch=9 n=71 v=90
438470 Off ch=9 n=71 v=90
438480 On ch=9 n=69 v=85
438560 On ch=9 n=71 v=85
438578 Off ch=9 n=69 v=85
438640 On ch=9 n=69 v=84
438663 Off ch=9 n=71 v=85
438720 On ch=9 n=66 v=90
438748 Off ch=9 n=69 v=84
438950 Off ch=9 n=66 v=90
438960 On ch=9 n=71 v=90
439190 Off ch=9 n=71 v=90
439200 On ch=9 n=69 v=83
439280 On ch=9 n=71 v=84
439298 Off ch=9 n=69 v=83
439360 On ch=9 n=69 v=83
439383 Off ch=9 n=71 v=84
439440 On ch=9 n=64 v=90
439463 Off ch=9 n=69 v=83
439670 Off ch=9 n=64 v=90
439680 On ch=9 n=71 v=90
439910 Off ch=9 n=71 v=90
439920 On ch=9 n=69 v=85
440000 On ch=9 n=71 v=83
440018 Off ch=9 n=69 v=85
440080 On ch=9 n=69 v=83
440093 Off ch=9 n=71 v=83
440160 On ch=9 n=63 v=90
440183 Off ch=9 n=69 v=83
440390 Off ch=9 n=63 v=90
440400 On ch=9 n=71 v=90
440630 Off ch=9 n=71 v=90
440640 On ch=9 n=69 v=85
440720 On ch=9 n=71 v=83
440738 Off ch=9 n=69 v=85
440800 On ch=9 n=69 v=84
440823 Off ch=9 n=71 v=83
440880 On ch=9 n=61 v=90
440898 Off ch=9 n=69 v=84
441110 Off ch=9 n=61 v=90
441120 On ch=9 n=71 v=90
441350 Off ch=9 n=71 v=90
441360 On ch=9 n=69 v=85
441440 On ch=9 n=71 v=83
441458 Off ch=9 n=69 v=85
441520 On ch=9 n=69 v=83
441538 Off ch=9 n=71 v=83
441600 Off ch=9 n=69 v=83
441600 On ch=9 n=59 v=90
441830 Off ch=9 n=59 v=90
441840 On ch=9 n=71 v=90
442070 Off ch=9 n=71 v=90
442080 On ch=9 n=69 v=84
442160 On ch=9 n=71 v=85
442188 Off ch=9 n=69 v=84
442240 On ch=9 n=69 v=83
442271 Off ch=9 n=71 v=85
442320 On ch=9 n=59 v=90
442343 Off ch=9 n=69 v=83
442550 Off ch=9 n=59 v=90
442560 On ch=9 n=71 v=97
442798 Off ch=9 n=71 v=97
443280 Par ch=9 c=99 v=1
443280 Par ch=9 c=98 v=33
443280 Par ch=9 c=6 v=80
443280 Par ch=9 c=38 v=0
443400 Par ch=9 c=99 v=1
443400 Par ch=9 c=98 v=32
443400 Par ch=9 c=6 v=50
443400 Par ch=9 c=38 v=0
443990 Par ch=9 c=0 v=0
443990 Par ch=9 c=32 v=0
443990 PrCh ch=9 p=48
444000 On ch=9 n=71 v=111
444000 On ch=9 n=66 v=111
444000 On ch=9 n=64 v=111
445440 Off ch=9 n=71 v=111
445440 Off ch=9 n=66 v=111
445440 Off ch=9 n=64 v=111
445440 On ch=9 n=74 v=111
445440 On ch=9 n=69 v=111
445440 On ch=9 n=67 v=111
446880 Off ch=9 n=74 v=111
446880 Off ch=9 n=69 v=111
446880 Off ch=9 n=67 v=111
446880 On ch=9 n=78 v=111
446880 On ch=9 n=71 v=111
446880 On ch=9 n=73 v=111
448320 Off ch=9 n=78 v=111
448320 Off ch=9 n=71 v=111
448320 Off ch=9 n=73 v=111
448320 On ch=9 n=81 v=111
448320 On ch=9 n=74 v=111
448320 On ch=9 n=76 v=111
449760 Off ch=9 n=81 v=111
449760 Off ch=9 n=74 v=111
449760 Off ch=9 n=76 v=111
454560 On ch=9 n=71 v=76
454575 On ch=9 n=76 v=76
454583 On ch=9 n=78 v=76
454590 On ch=9 n=83 v=76
456980 Off ch=9 n=71 v=76
456995 Off ch=9 n=76 v=76
457003 Off ch=9 n=78 v=76
457010 Off ch=9 n=83 v=76
457440 On ch=9 n=88 v=81
457440 On ch=9 n=83 v=81
457440 On ch=9 n=52 v=81
457440 On ch=9 n=59 v=81
457440 On ch=9 n=64 v=81
457440 On ch=9 n=68 v=81
460320 Off ch=9 n=88 v=81
460320 Off ch=9 n=83 v=81
460320 Off ch=9 n=52 v=81
460320 Off ch=9 n=59 v=81
460320 Off ch=9 n=64 v=81
460320 Off ch=9 n=68 v=81
460320 On ch=9 n=78 v=81
460320 On ch=9 n=64 v=81
460320 On ch=9 n=69 v=81
460320 On ch=9 n=73 v=81
464510 Par ch=9 c=1 v=0
464570 Par ch=9 c=1 v=1
464630 Par ch=9 c=1 v=2
464640 Off ch=9 n=78 v=81
464640 Off ch=9 n=64 v=81
464640 Off ch=9 n=69 v=81
464640 Off ch=9 n=73 v=81
464640 On ch=9 n=88 v=81
464640 On ch=9 n=83 v=81
464640 On ch=9 n=52 v=81
464640 On ch=9 n=59 v=81
464640 On ch=9 n=64 v=81
464640 On ch=9 n=68 v=81
464690 Par ch=9 c=1 v=3
464750 Par ch=9 c=1 v=4
464810 Par ch=9 c=1 v=5
464870 Par ch=9 c=1 v=6
464930 Par ch=9 c=1 v=7
464990 Par ch=9 c=1 v=8
465050 Par ch=9 c=1 v=9
465110 Par ch=9 c=1 v=10
465170 Par ch=9 c=1 v=11
465230 Par ch=9 c=1 v=12
465290 Par ch=9 c=1 v=13
465350 Par ch=9 c=1 v=14
465410 Par ch=9 c=1 v=15
465470 Par ch=9 c=1 v=16
465530 Par ch=9 c=1 v=17
465590 Par ch=9 c=1 v=18
465650 Par ch=9 c=1 v=19
465710 Par ch=9 c=1 v=20
465770 Par ch=9 c=1 v=21
465830 Par ch=9 c=1 v=22
465890 Par ch=9 c=1 v=23
465950 Par ch=9 c=1 v=0
466070 Par ch=9 c=1 v=1
466130 Par ch=9 c=1 v=2
466190 Par ch=9 c=1 v=3
466250 Par ch=9 c=1 v=5
466310 Par ch=9 c=1 v=7
466370 Par ch=9 c=1 v=24
466430 Par ch=9 c=1 v=0
466490 Par ch=9 c=1 v=10
466550 Par ch=9 c=1 v=13
466610 Par ch=9 c=1 v=14
466670 Par ch=9 c=1 v=16
466730 Par ch=9 c=1 v=17
466850 Par ch=9 c=1 v=19
466910 Par ch=9 c=1 v=0
466970 Par ch=9 c=1 v=10
467030 Par ch=9 c=1 v=13
467090 Par ch=9 c=1 v=14
467150 Par ch=9 c=1 v=16
467210 Par ch=9 c=1 v=17
467330 Par ch=9 c=1 v=19
467390 Par ch=9 c=1 v=0
467520 Off ch=9 n=88 v=81
467520 Off ch=9 n=83 v=81
467520 Off ch=9 n=52 v=81
467520 Off ch=9 n=59 v=81
467520 Off ch=9 n=64 v=81
467520 Off ch=9 n=68 v=81
480720 On ch=9 n=68 v=100
480830 Off ch=9 n=68 v=100
480840 On ch=9 n=75 v=100
480900 Par ch=9 c=98 v=99
480910 Par ch=9 c=99 v=1
480920 Par ch=9 c=6 v=66
480930 Par ch=9 c=10 v=0
480940 PrCh ch=9 p=18
480950 Par ch=9 c=11 v=85
480950 Off ch=9 n=75 v=100
480960 On ch=9 n=71 v=100
481070 Off ch=9 n=71 v=100
481080 On ch=9 n=68 v=100
481190 Off ch=9 n=68 v=100
481200 On ch=9 n=75 v=100
481310 Off ch=9 n=75 v=100
481320 On ch=9 n=71 v=100
481430 Off ch=9 n=71 v=100
481440 On ch=9 n=68 v=100
481550 Off ch=9 n=68 v=100
481560 On ch=9 n=75 v=100
481670 Off ch=9 n=75 v=100
481680 On ch=9 n=71 v=100
481790 Off ch=9 n=71 v=100
481800 On ch=9 n=68 v=100
481910 Off ch=9 n=68 v=100
481920 On ch=9 n=75 v=100
482030 Off ch=9 n=75 v=100
482040 On ch=9 n=71 v=100
482150 Off ch=9 n=71 v=100
482160 On ch=9 n=75 v=100
482390 Off ch=9 n=75 v=100
482400 On ch=9 n=74 v=100
482630 Off ch=9 n=74 v=100
482640 On ch=9 n=73 v=100
482870 Off ch=9 n=73 v=100
482880 On ch=9 n=72 v=100
483110 Off ch=9 n=72 v=100
483120 On ch=9 n=71 v=100
483350 Off ch=9 n=71 v=100
483360 On ch=9 n=68 v=100
483590 Off ch=9 n=68 v=100
483600 On ch=9 n=68 v=100
483710 Off ch=9 n=68 v=100
483720 On ch=9 n=75 v=100
483830 Off ch=9 n=75 v=100
483840 On ch=9 n=71 v=100
483950 Off ch=9 n=71 v=100
483960 On ch=9 n=68 v=100
484070 Off ch=9 n=68 v=100
484080 On ch=9 n=75 v=100
484190 Off ch=9 n=75 v=100
484200 On ch=9 n=71 v=100
484310 Off ch=9 n=71 v=100
484320 On ch=9 n=68 v=100
484430 Off ch=9 n=68 v=100
484440 On ch=9 n=75 v=100
484550 Off ch=9 n=75 v=100
484560 On ch=9 n=71 v=100
484670 Off ch=9 n=71 v=100
484680 On ch=9 n=68 v=100
484790 Off ch=9 n=68 v=100
484800 On ch=9 n=75 v=100
484910 Off ch=9 n=75 v=100
484920 On ch=9 n=71 v=100
485030 Off ch=9 n=71 v=100
485040 On ch=9 n=71 v=100
485270 Off ch=9 n=71 v=100
485280 On ch=9 n=72 v=100
485510 Off ch=9 n=72 v=100
485520 On ch=9 n=73 v=100
485750 Off ch=9 n=73 v=100
485760 On ch=9 n=74 v=100
485990 Off ch=9 n=74 v=100
486000 On ch=9 n=75 v=100
486230 Off ch=9 n=75 v=100
486240 On ch=9 n=78 v=100
486470 Off ch=9 n=78 v=100
486480 On ch=9 n=68 v=100
486590 Off ch=9 n=68 v=100
486600 On ch=9 n=75 v=100
486710 Off ch=9 n=75 v=100
486720 On ch=9 n=71 v=100
486830 Off ch=9 n=71 v=100
486840 On ch=9 n=68 v=100
486950 Off ch=9 n=68 v=100
486960 On ch=9 n=75 v=100
487070 Off ch=9 n=75 v=100
487080 On ch=9 n=71 v=100
487190 Off ch=9 n=71 v=100
487200 On ch=9 n=68 v=100
487310 Off ch=9 n=68 v=100
487320 On ch=9 n=75 v=100
487430 Off ch=9 n=75 v=100
487440 On ch=9 n=71 v=100
487550 Off ch=9 n=71 v=100
487560 On ch=9 n=68 v=100
487670 Off ch=9 n=68 v=100
487680 On ch=9 n=75 v=100
487790 Off ch=9 n=75 v=100
487800 On ch=9 n=71 v=100
487910 Off ch=9 n=71 v=100
487920 On ch=9 n=71 v=100
488150 Off ch=9 n=71 v=100
488160 On ch=9 n=72 v=100
488390 Off ch=9 n=72 v=100
488400 On ch=9 n=73 v=100
488630 Off ch=9 n=73 v=100
488640 On ch=9 n=74 v=100
488870 Off ch=9 n=74 v=100
488880 On ch=9 n=75 v=100
489110 Off ch=9 n=75 v=100
489120 On ch=9 n=78 v=100
489350 Off ch=9 n=78 v=100
489360 On ch=9 n=68 v=100
489470 Off ch=9 n=68 v=100
489480 On ch=9 n=75 v=100
489590 Off ch=9 n=75 v=100
489600 On ch=9 n=71 v=100
489710 Off ch=9 n=71 v=100
489720 On ch=9 n=68 v=100
489830 Off ch=9 n=68 v=100
489840 On ch=9 n=75 v=100
489950 Off ch=9 n=75 v=100
489960 On ch=9 n=71 v=100
490070 Off ch=9 n=71 v=100
490080 On ch=9 n=68 v=100
490190 Off ch=9 n=68 v=100
490200 On ch=9 n=75 v=100
490310 Off ch=9 n=75 v=100
490320 On ch=9 n=71 v=100
490430 Off ch=9 n=71 v=100
490440 On ch=9 n=68 v=100
490550 Off ch=9 n=68 v=100
490560 On ch=9 n=75 v=100
490670 Off ch=9 n=75 v=100
490680 On ch=9 n=71 v=100
490790 Off ch=9 n=71 v=100
490800 On ch=9 n=71 v=100
491030 Off ch=9 n=71 v=100
491040 On ch=9 n=72 v=100
491270 Off ch=9 n=72 v=100
491280 On ch=9 n=73 v=100
491510 Off ch=9 n=73 v=100
491520 On ch=9 n=74 v=100
491750 Off ch=9 n=74 v=100
491760 On ch=9 n=75 v=100
491990 Off ch=9 n=75 v=100
492000 On ch=9 n=78 v=100
492230 Off ch=9 n=78 v=100
501840 On ch=9 n=68 v=100
501950 Off ch=9 n=68 v=100
501960 On ch=9 n=75 v=100
502020 Par ch=9 c=98 v=99
502030 Par ch=9 c=99 v=1
502040 Par ch=9 c=6 v=66
502050 Par ch=9 c=10 v=0
502060 PrCh ch=9 p=18
502070 Par ch=9 c=11 v=85
502070 Off ch=9 n=75 v=100
502080 On ch=9 n=71 v=100
502190 Off ch=9 n=71 v=100
502200 On ch=9 n=68 v=100
502310 Off ch=9 n=68 v=100
502320 On ch=9 n=75 v=100
502430 Off ch=9 n=75 v=100
502440 On ch=9 n=71 v=100
502550 Off ch=9 n=71 v=100
502560 On ch=9 n=68 v=100
502670 Off ch=9 n=68 v=100
502680 On ch=9 n=75 v=100
502790 Off ch=9 n=75 v=100
502800 On ch=9 n=71 v=100
502910 Off ch=9 n=71 v=100
502920 On ch=9 n=68 v=100
503030 Off ch=9 n=68 v=100
503040 On ch=9 n=75 v=100
503150 Off ch=9 n=75 v=100
503160 On ch=9 n=71 v=100
503270 Off ch=9 n=71 v=100
503280 On ch=9 n=75 v=100
503510 Off ch=9 n=75 v=100
503520 On ch=9 n=74 v=100
503750 Off ch=9 n=74 v=100
503760 On ch=9 n=73 v=100
503990 Off ch=9 n=73 v=100
504000 On ch=9 n=72 v=100
504230 Off ch=9 n=72 v=100
504240 On ch=9 n=71 v=100
504470 Off ch=9 n=71 v=100
504480 On ch=9 n=68 v=100
504710 Off ch=9 n=68 v=100
504720 On ch=9 n=68 v=100
504830 Off ch=9 n=68 v=100
504840 On ch=9 n=75 v=100
504950 Off ch=9 n=75 v=100
504960 On ch=9 n=71 v=100
505070 Off ch=9 n=71 v=100
505080 On ch=9 n=68 v=100
505190 Off ch=9 n=68 v=100
505200 On ch=9 n=75 v=100
505310 Off ch=9 n=75 v=100
505320 On ch=9 n=71 v=100
505430 Off ch=9 n=71 v=100
505440 On ch=9 n=68 v=100
505550 Off ch=9 n=68 v=100
505560 On ch=9 n=75 v=100
505670 Off ch=9 n=75 v=100
505680 On ch=9 n=71 v=100
505790 Off ch=9 n=71 v=100
505800 On ch=9 n=68 v=100
505910 Off ch=9 n=68 v=100
505920 On ch=9 n=75 v=100
506030 Off ch=9 n=75 v=100
506040 On ch=9 n=71 v=100
506150 Off ch=9 n=71 v=100
506160 On ch=9 n=71 v=100
506390 Off ch=9 n=71 v=100
506400 On ch=9 n=72 v=100
506630 Off ch=9 n=72 v=100
506640 On ch=9 n=73 v=100
506870 Off ch=9 n=73 v=100
506880 On ch=9 n=74 v=100
507110 Off ch=9 n=74 v=100
507120 On ch=9 n=75 v=100
507350 Off ch=9 n=75 v=100
507360 On ch=9 n=78 v=100
507590 Off ch=9 n=78 v=100
507600 On ch=9 n=68 v=100
507710 Off ch=9 n=68 v=100
507720 On ch=9 n=75 v=100
507830 Off ch=9 n=75 v=100
507840 On ch=9 n=71 v=100
507950 Off ch=9 n=71 v=100
507960 On ch=9 n=68 v=100
508070 Off ch=9 n=68 v=100
508080 On ch=9 n=75 v=100
508190 Off ch=9 n=75 v=100
508200 On ch=9 n=71 v=100
508310 Off ch=9 n=71 v=100
508320 On ch=9 n=68 v=100
508430 Off ch=9 n=68 v=100
508440 On ch=9 n=75 v=100
508550 Off ch=9 n=75 v=100
508560 On ch=9 n=71 v=100
508670 Off ch=9 n=71 v=100
508680 On ch=9 n=68 v=100
508790 Off ch=9 n=68 v=100
508800 On ch=9 n=75 v=100
508910 Off ch=9 n=75 v=100
508920 On ch=9 n=71 v=100
509030 Off ch=9 n=71 v=100
509040 On ch=9 n=71 v=100
509270 Off ch=9 n=71 v=100
509280 On ch=9 n=72 v=100
509510 Off ch=9 n=72 v=100
509520 On ch=9 n=73 v=100
509750 Off ch=9 n=73 v=100
509760 On ch=9 n=74 v=100
509990 Off ch=9 n=74 v=100
510000 On ch=9 n=75 v=100
510230 Off ch=9 n=75 v=100
510240 On ch=9 n=78 v=100
510470 Off ch=9 n=78 v=100
510480 On ch=9 n=68 v=100
510590 Off ch=9 n=68 v=100
510600 On ch=9 n=75 v=100
510710 Off ch=9 n=75 v=100
510720 On ch=9 n=71 v=100
510830 Off ch=9 n=71 v=100
510840 On ch=9 n=68 v=100
510950 Off ch=9 n=68 v=100
510960 On ch=9 n=75 v=100
511070 Off ch=9 n=75 v=100
511080 On ch=9 n=71 v=100
511190 Off ch=9 n=71 v=100
511200 On ch=9 n=68 v=100
511310 Off ch=9 n=68 v=100
511320 On ch=9 n=75 v=100
511430 Off ch=9 n=75 v=100
511440 On ch=9 n=71 v=100
511550 Off ch=9 n=71 v=100
511560 On ch=9 n=68 v=100
511670 Off ch=9 n=68 v=100
511680 On ch=9 n=75 v=100
511790 Off ch=9 n=75 v=100
511800 On ch=9 n=71 v=100
511910 Off ch=9 n=71 v=100
511920 On ch=9 n=71 v=100
512150 Off ch=9 n=71 v=100
512160 On ch=9 n=72 v=100
512390 Off ch=9 n=72 v=100
512400 On ch=9 n=73 v=100
512630 Off ch=9 n=73 v=100
512640 On ch=9 n=74 v=100
512870 Off ch=9 n=74 v=100
512880 On ch=9 n=75 v=100
513110 Off ch=9 n=75 v=100
513120 On ch=9 n=78 v=100
513350 Off ch=9 n=78 v=100
518160 On ch=9 n=68 v=100
518270 Off ch=9 n=68 v=100
518280 On ch=9 n=75 v=100
518390 Off ch=9 n=75 v=100
518400 On ch=9 n=71 v=100
518510 Off ch=9 n=71 v=100
518520 On ch=9 n=68 v=100
518630 Off ch=9 n=68 v=100
518640 On ch=9 n=75 v=100
518750 Off ch=9 n=75 v=100
518760 On ch=9 n=71 v=100
518870 Off ch=9 n=71 v=100
518880 On ch=9 n=68 v=100
518990 Off ch=9 n=68 v=100
519000 On ch=9 n=75 v=100
519110 Off ch=9 n=75 v=100
519120 On ch=9 n=71 v=100
519230 Off ch=9 n=71 v=100
519240 On ch=9 n=68 v=100
519350 Off ch=9 n=68 v=100
519360 On ch=9 n=75 v=100
519470 Off ch=9 n=75 v=100
519480 On ch=9 n=71 v=100
519590 Off ch=9 n=71 v=100
519600 On ch=9 n=71 v=100
519830 Off ch=9 n=71 v=100
519840 On ch=9 n=72 v=100
520070 Off ch=9 n=72 v=100
520080 On ch=9 n=73 v=100
520310 Off ch=9 n=73 v=100
520320 On ch=9 n=74 v=100
520550 Off ch=9 n=74 v=100
520560 On ch=9 n=75 v=100
520790 Off ch=9 n=75 v=100
520800 On ch=9 n=78 v=100
521030 Off ch=9 n=78 v=100
521040 On ch=9 n=68 v=100
521150 Off ch=9 n=68 v=100
521160 On ch=9 n=75 v=100
521270 Off ch=9 n=75 v=100
521280 On ch=9 n=71 v=100
521390 Off ch=9 n=71 v=100
521400 On ch=9 n=68 v=100
521510 Off ch=9 n=68 v=100
521520 On ch=9 n=75 v=100
521630 Off ch=9 n=75 v=100
521640 On ch=9 n=71 v=100
521750 Off ch=9 n=71 v=100
521760 On ch=9 n=68 v=100
521870 Off ch=9 n=68 v=100
521880 On ch=9 n=75 v=100
521990 Off ch=9 n=75 v=100
522000 On ch=9 n=71 v=100
522110 Off ch=9 n=71 v=100
522120 On ch=9 n=68 v=100
522230 Off ch=9 n=68 v=100
522240 On ch=9 n=75 v=100
522350 Off ch=9 n=75 v=100
522360 On ch=9 n=71 v=100
522470 Off ch=9 n=71 v=100
522480 On ch=9 n=71 v=100
522710 Off ch=9 n=71 v=100
522720 On ch=9 n=72 v=100
522950 Off ch=9 n=72 v=100
522960 On ch=9 n=73 v=100
523190 Off ch=9 n=73 v=100
523200 On ch=9 n=74 v=100
523430 Off ch=9 n=74 v=100
523440 On ch=9 n=75 v=100
523670 Off ch=9 n=75 v=100
523680 On ch=9 n=78 v=100
523910 Off ch=9 n=78 v=100
528720 On ch=9 n=68 v=100
528830 Off ch=9 n=68 v=100
528840 On ch=9 n=75 v=100
528900 Par ch=9 c=98 v=99
528910 Par ch=9 c=99 v=1
528920 Par ch=9 c=6 v=66
528930 Par ch=9 c=10 v=0
528940 PrCh ch=9 p=18
528950 Par ch=9 c=11 v=85
528950 Off ch=9 n=75 v=100
528960 On ch=9 n=71 v=100
529070 Off ch=9 n=71 v=100
529080 On ch=9 n=68 v=100
529190 Off ch=9 n=68 v=100
529200 On ch=9 n=75 v=100
529310 Off ch=9 n=75 v=100
529320 On ch=9 n=71 v=100
529430 Off ch=9 n=71 v=100
529440 On ch=9 n=68 v=100
529550 Off ch=9 n=68 v=100
529560 On ch=9 n=75 v=100
529670 Off ch=9 n=75 v=100
529680 On ch=9 n=71 v=100
529790 Off ch=9 n=71 v=100
529800 On ch=9 n=68 v=100
529910 Off ch=9 n=68 v=100
529920 On ch=9 n=75 v=100
530030 Off ch=9 n=75 v=100
530040 On ch=9 n=71 v=100
530150 Off ch=9 n=71 v=100
530160 On ch=9 n=75 v=100
530390 Off ch=9 n=75 v=100
530400 On ch=9 n=74 v=100
530630 Off ch=9 n=74 v=100
530640 On ch=9 n=73 v=100
530870 Off ch=9 n=73 v=100
530880 On ch=9 n=72 v=100
531110 Off ch=9 n=72 v=100
531120 On ch=9 n=71 v=100
531350 Off ch=9 n=71 v=100
531360 On ch=9 n=68 v=100
531590 Off ch=9 n=68 v=100
531600 On ch=9 n=68 v=100
531710 Off ch=9 n=68 v=100
531720 On ch=9 n=75 v=100
531830 Off ch=9 n=75 v=100
531840 On ch=9 n=71 v=100
531950 Off ch=9 n=71 v=100
531960 On ch=9 n=68 v=100
532070 Off ch=9 n=68 v=100
532080 On ch=9 n=75 v=100
532190 Off ch=9 n=75 v=100
532200 On ch=9 n=71 v=100
532310 Off ch=9 n=71 v=100
532320 On ch=9 n=68 v=100
532430 Off ch=9 n=68 v=100
532440 On ch=9 n=75 v=100
532550 Off ch=9 n=75 v=100
532560 On ch=9 n=71 v=100
532670 Off ch=9 n=71 v=100
532680 On ch=9 n=68 v=100
532790 Off ch=9 n=68 v=100
532800 On ch=9 n=75 v=100
532910 Off ch=9 n=75 v=100
532920 On ch=9 n=71 v=100
533030 Off ch=9 n=71 v=100
533040 On ch=9 n=71 v=100
533270 Off ch=9 n=71 v=100
533280 On ch=9 n=72 v=100
533510 Off ch=9 n=72 v=100
533520 On ch=9 n=73 v=100
533750 Off ch=9 n=73 v=100
533760 On ch=9 n=74 v=100
533990 Off ch=9 n=74 v=100
534000 On ch=9 n=75 v=100
534230 Off ch=9 n=75 v=100
534240 On ch=9 n=78 v=100
534470 Off ch=9 n=78 v=100
552480 Par ch=9 c=93 v=0
552960 Par ch=9 c=99 v=1
552960 Par ch=9 c=98 v=10
552960 Par ch=9 c=6 v=64
552960 Par ch=9 c=38 v=0
552960 Par ch=9 c=65 v=0
553080 Par ch=9 c=99 v=1
553080 Par ch=9 c=98 v=9
553080 Par ch=9 c=6 v=64
553080 Par ch=9 c=38 v=0
553200 Par ch=9 c=99 v=1
553200 Par ch=9 c=98 v=8
553200 Par ch=9 c=6 v=64
553200 Par ch=9 c=38 v=0
553320 Par ch=9 c=99 v=1
553320 Par ch=9 c=98 v=100
553320 Par ch=9 c=6 v=64
553320 Par ch=9 c=38 v=0
553440 Par ch=9 c=99 v=1
553440 Par ch=9 c=98 v=102
553440 Par ch=9 c=6 v=64
553440 Par ch=9 c=38 v=0
553560 Par ch=9 c=99 v=1
553560 Par ch=9 c=98 v=99
553560 Par ch=9 c=6 v=64
553560 Par ch=9 c=38 v=0
553670 Par ch=9 c=0 v=0
553670 Par ch=9 c=32 v=0
553670 PrCh ch=9 p=1
553680 PrCh ch=9 p=1
553680 Par ch=9 c=99 v=1
553680 Par ch=9 c=98 v=99
553680 Par ch=9 c=6 v=64
553680 Par ch=9 c=38 v=0
553680 Par ch=9 c=99 v=1
553680 Par ch=9 c=98 v=32
553680 Par ch=9 c=6 v=64
553680 Par ch=9 c=38 v=0
553680 Par ch=9 c=99 v=1
553680 Par ch=9 c=98 v=33
553680 Par ch=9 c=6 v=64
553680 Par ch=9 c=38 v=0
553680 Par ch=9 c=99 v=1
553680 Par ch=9 c=98 v=32
553680 Par ch=9 c=6 v=64
553680 Par ch=9 c=38 v=0
553680 On ch=9 n=54 v=115
553680 On ch=9 n=66 v=111
553680 On ch=9 n=73 v=113
553910 Off ch=9 n=73 v=113
553920 On ch=9 n=70 v=111
553990 Off ch=9 n=70 v=111
554000 On ch=9 n=73 v=102
554070 Off ch=9 n=73 v=102
554080 On ch=9 n=70 v=111
554150 Off ch=9 n=70 v=111
554160 Off ch=9 n=66 v=111
554160 On ch=9 n=66 v=101
554380 Off ch=9 n=66 v=101
554380 On ch=9 n=68 v=115
554390 On ch=9 n=53 v=114
554390 On ch=9 n=75 v=105
554400 Off ch=9 n=54 v=115
554620 Off ch=9 n=75 v=105
554640 On ch=9 n=72 v=102
554860 Off ch=9 n=68 v=115
554880 Off ch=9 n=72 v=102
554880 On ch=9 n=68 v=111
555090 Off ch=9 n=68 v=111
555100 Off ch=9 n=53 v=114
555120 On ch=9 n=51 v=109
555120 On ch=9 n=63 v=111
555120 On ch=9 n=70 v=108
555340 Off ch=9 n=70 v=108
555360 On ch=9 n=66 v=108
555420 On ch=9 n=70 v=103
555430 Off ch=9 n=66 v=108
555480 Off ch=9 n=70 v=103
555520 On ch=9 n=66 v=107
555590 Off ch=9 n=66 v=107
555600 Off ch=9 n=63 v=111
555600 On ch=9 n=63 v=106
555830 Off ch=9 n=63 v=106
555840 Off ch=9 n=51 v=109
555840 On ch=9 n=49 v=115
555840 On ch=9 n=65 v=114
555840 On ch=9 n=72 v=110
556070 Off ch=9 n=72 v=110
556080 On ch=9 n=68 v=105
556310 Off ch=9 n=68 v=105
556310 Off ch=9 n=65 v=114
556320 On ch=9 n=65 v=110
556550 Off ch=9 n=49 v=115
556560 Off ch=9 n=65 v=110
556560 On ch=9 n=48 v=112
556560 On ch=9 n=63 v=111
556560 On ch=9 n=70 v=111
556790 Off ch=9 n=70 v=111
556800 On ch=9 n=66 v=102
557010 Off ch=9 n=63 v=111
557010 Off ch=9 n=66 v=102
557030 On ch=9 n=56 v=111
557030 On ch=9 n=63 v=106
557040 Off ch=9 n=48 v=112
557040 On ch=9 n=46 v=115
557250 Off ch=9 n=63 v=106
557270 On ch=9 n=60 v=105
557480 Off ch=9 n=60 v=105
557490 Off ch=9 n=56 v=111
557510 On ch=9 n=51 v=117
557510 On ch=9 n=55 v=112
557520 Off ch=9 n=46 v=115
557530 On ch=9 n=63 v=112
557787 Off ch=9 n=51 v=117
557798 Off ch=9 n=63 v=112
557802 Off ch=9 n=55 v=112
558000 On ch=9 n=54 v=117
558000 On ch=9 n=73 v=103
558010 On ch=9 n=66 v=108
558220 Off ch=9 n=73 v=103
558230 On ch=9 n=70 v=101
558300 Off ch=9 n=70 v=101
558300 On ch=9 n=73 v=97
558370 Off ch=9 n=73 v=97
558400 On ch=9 n=70 v=110
558470 Off ch=9 n=66 v=108
558470 Off ch=9 n=70 v=110
558470 On ch=9 n=66 v=113
558690 Off ch=9 n=66 v=113
558710 On ch=9 n=68 v=108
558720 Off ch=9 n=54 v=117
558720 On ch=9 n=53 v=110
558720 On ch=9 n=75 v=105
558940 Off ch=9 n=75 v=105
558960 On ch=9 n=72 v=101
559160 Off ch=9 n=68 v=108
559180 Off ch=9 n=72 v=101
559210 On ch=9 n=68 v=109
559430 Off ch=9 n=68 v=109
559440 Off ch=9 n=53 v=110
559440 On ch=9 n=51 v=112
559440 On ch=9 n=70 v=111
559450 On ch=9 n=63 v=108
559650 Off ch=9 n=70 v=111
559660 On ch=9 n=66 v=101
559730 On ch=9 n=70 v=101
559730 Off ch=9 n=66 v=101
559790 Off ch=9 n=70 v=101
559840 On ch=9 n=66 v=109
559910 Off ch=9 n=66 v=109
559920 Off ch=9 n=63 v=108
559920 On ch=9 n=63 v=105
560130 Off ch=9 n=63 v=105
560150 Off ch=9 n=51 v=112
560160 On ch=9 n=49 v=110
560160 On ch=9 n=65 v=110
560170 On ch=9 n=72 v=111
560400 On ch=9 n=68 v=104
560410 Off ch=9 n=72 v=111
560610 Off ch=9 n=65 v=110
560620 Off ch=9 n=68 v=104
560640 On ch=9 n=65 v=107
560870 Off ch=9 n=49 v=110
560870 Off ch=9 n=65 v=107
560880 On ch=9 n=63 v=105
560880 On ch=9 n=48 v=109
560880 On ch=9 n=70 v=106
561100 Off ch=9 n=70 v=106
561110 On ch=9 n=66 v=103
561310 Off ch=9 n=66 v=103
561350 Off ch=9 n=63 v=105
561350 Off ch=9 n=48 v=109
561360 On ch=9 n=46 v=114
561360 On ch=9 n=56 v=108
561360 On ch=9 n=63 v=106
561580 Off ch=9 n=63 v=106
561600 On ch=9 n=60 v=114
561810 Off ch=9 n=60 v=114
561830 Off ch=9 n=56 v=108
561840 Off ch=9 n=46 v=114
561840 On ch=9 n=51 v=112
561840 On ch=9 n=58 v=110
561850 On ch=9 n=55 v=108
563510 Off ch=9 n=58 v=110
563670 Off ch=9 n=55 v=108
563720 Off ch=9 n=51 v=112
572400 On ch=9 n=54 v=115
572400 On ch=9 n=66 v=111
572400 On ch=9 n=73 v=113
572630 Off ch=9 n=73 v=113
572640 On ch=9 n=70 v=111
572710 Off ch=9 n=70 v=111
572720 On ch=9 n=73 v=102
572790 Off ch=9 n=73 v=102
572800 On ch=9 n=70 v=111
572870 Off ch=9 n=70 v=111
572880 Off ch=9 n=66 v=111
572880 On ch=9 n=66 v=101
573100 Off ch=9 n=66 v=101
573100 On ch=9 n=68 v=115
573110 On ch=9 n=53 v=114
573110 On ch=9 n=75 v=105
573120 Off ch=9 n=54 v=115
573340 Off ch=9 n=75 v=105
573360 On ch=9 n=72 v=102
573580 Off ch=9 n=68 v=115
573600 Off ch=9 n=72 v=102
573600 On ch=9 n=68 v=111
573810 Off ch=9 n=68 v=111
573820 Off ch=9 n=53 v=114
573840 On ch=9 n=51 v=109
573840 On ch=9 n=63 v=111
573840 On ch=9 n=70 v=108
574060 Off ch=9 n=70 v=108
574080 On ch=9 n=66 v=108
574140 On ch=9 n=70 v=103
574150 Off ch=9 n=66 v=108
574200 Off ch=9 n=70 v=103
574240 On ch=9 n=66 v=107
574310 Off ch=9 n=66 v=107
574320 Off ch=9 n=63 v=111
574320 On ch=9 n=63 v=106
574550 Off ch=9 n=63 v=106
574560 Off ch=9 n=51 v=109
574560 On ch=9 n=49 v=115
574560 On ch=9 n=65 v=114
574560 On ch=9 n=72 v=110
574790 Off ch=9 n=72 v=110
574800 On ch=9 n=68 v=105
575030 Off ch=9 n=68 v=105
575030 Off ch=9 n=65 v=114
575040 On ch=9 n=65 v=110
575270 Off ch=9 n=49 v=115
575280 Off ch=9 n=65 v=110
575280 On ch=9 n=48 v=112
575280 On ch=9 n=70 v=111
575510 Off ch=9 n=70 v=111
575520 On ch=9 n=66 v=102
575730 Off ch=9 n=66 v=102
575750 On ch=9 n=56 v=111
575750 On ch=9 n=63 v=106
575760 Off ch=9 n=48 v=112
575760 On ch=9 n=46 v=115
575970 Off ch=9 n=63 v=106
575990 On ch=9 n=60 v=105
576200 Off ch=9 n=60 v=105
576210 Off ch=9 n=56 v=111
576230 On ch=9 n=51 v=117
576230 On ch=9 n=55 v=112
576240 Off ch=9 n=46 v=115
576250 On ch=9 n=63 v=110
576680 Off ch=9 n=63 v=110
576710 Off ch=9 n=51 v=117
576710 Off ch=9 n=55 v=112
576720 On ch=9 n=54 v=117
576720 On ch=9 n=73 v=103
576730 On ch=9 n=66 v=108
576940 Off ch=9 n=73 v=103
576950 On ch=9 n=70 v=101
577020 Off ch=9 n=70 v=101
577020 On ch=9 n=73 v=97
577090 Off ch=9 n=73 v=97
577120 On ch=9 n=70 v=110
577190 Off ch=9 n=66 v=108
577190 Off ch=9 n=70 v=110
577190 On ch=9 n=66 v=113
577410 Off ch=9 n=66 v=113
577430 On ch=9 n=68 v=108
577440 Off ch=9 n=54 v=117
577440 On ch=9 n=53 v=110
577440 On ch=9 n=75 v=105
577660 Off ch=9 n=75 v=105
577680 On ch=9 n=72 v=101
577880 Off ch=9 n=68 v=108
577900 Off ch=9 n=72 v=101
577930 On ch=9 n=68 v=109
578150 Off ch=9 n=68 v=109
578160 Off ch=9 n=53 v=110
578160 On ch=9 n=51 v=112
578160 On ch=9 n=70 v=111
578170 On ch=9 n=63 v=108
578370 Off ch=9 n=70 v=111
578380 On ch=9 n=66 v=101
578450 On ch=9 n=70 v=101
578450 Off ch=9 n=66 v=101
578510 Off ch=9 n=70 v=101
578560 On ch=9 n=66 v=109
578630 Off ch=9 n=66 v=109
578640 Off ch=9 n=63 v=108
578640 On ch=9 n=63 v=105
578850 Off ch=9 n=63 v=105
578870 Off ch=9 n=51 v=112
578880 On ch=9 n=49 v=110
578880 On ch=9 n=65 v=110
578890 On ch=9 n=72 v=111
579120 On ch=9 n=68 v=104
579130 Off ch=9 n=72 v=111
579330 Off ch=9 n=65 v=110
579340 Off ch=9 n=68 v=104
579360 On ch=9 n=65 v=107
579590 Off ch=9 n=49 v=110
579590 Off ch=9 n=65 v=107
579600 On ch=9 n=48 v=109
579600 On ch=9 n=70 v=106
579820 Off ch=9 n=70 v=106
579830 On ch=9 n=66 v=103
580030 Off ch=9 n=66 v=103
580070 Off ch=9 n=48 v=109
580080 On ch=9 n=46 v=114
580080 On ch=9 n=56 v=108
580080 On ch=9 n=63 v=106
580300 Off ch=9 n=63 v=106
580320 On ch=9 n=60 v=114
580530 Off ch=9 n=60 v=114
580550 Off ch=9 n=56 v=108
580560 Off ch=9 n=46 v=114
591120 On ch=9 n=54 v=117
591120 On ch=9 n=73 v=103
591130 On ch=9 n=66 v=108
591340 Off ch=9 n=73 v=103
591350 On ch=9 n=70 v=101
591420 Off ch=9 n=70 v=101
591420 On ch=9 n=73 v=97
591490 Off ch=9 n=73 v=97
591520 On ch=9 n=70 v=110
591590 Off ch=9 n=66 v=108
591590 Off ch=9 n=70 v=110
591590 On ch=9 n=66 v=113
591810 Off ch=9 n=66 v=113
591830 On ch=9 n=68 v=108
591840 Off ch=9 n=54 v=117
591840 On ch=9 n=53 v=110
591840 On ch=9 n=75 v=105
592060 Off ch=9 n=75 v=105
592080 On ch=9 n=72 v=101
592280 Off ch=9 n=68 v=108
592300 Off ch=9 n=72 v=101
592330 On ch=9 n=68 v=109
592550 Off ch=9 n=68 v=109
592560 Off ch=9 n=53 v=110
592560 On ch=9 n=51 v=112
592560 On ch=9 n=70 v=111
592570 On ch=9 n=63 v=108
592770 Off ch=9 n=70 v=111
592780 On ch=9 n=66 v=101
592850 On ch=9 n=70 v=101
592850 Off ch=9 n=66 v=101
592910 Off ch=9 n=70 v=101
592960 On ch=9 n=66 v=109
593030 Off ch=9 n=66 v=109
593040 Off ch=9 n=63 v=108
593040 On ch=9 n=63 v=105
593250 Off ch=9 n=63 v=105
593270 Off ch=9 n=51 v=112
593280 On ch=9 n=49 v=110
593280 On ch=9 n=65 v=110
593290 On ch=9 n=72 v=111
593520 On ch=9 n=68 v=104
593530 Off ch=9 n=72 v=111
593730 Off ch=9 n=65 v=110
593740 Off ch=9 n=68 v=104
593760 On ch=9 n=65 v=107
593990 Off ch=9 n=49 v=110
593990 Off ch=9 n=65 v=107
594000 On ch=9 n=48 v=111
594000 On ch=9 n=70 v=111
594240 Off ch=9 n=70 v=111
594240 On ch=9 n=66 v=111
594470 Off ch=9 n=48 v=111
594470 Off ch=9 n=66 v=111
594480 On ch=9 n=56 v=115
594480 On ch=9 n=46 v=119
594480 On ch=9 n=63 v=104
594710 Off ch=9 n=63 v=104
594720 On ch=9 n=60 v=108
594940 Off ch=9 n=46 v=119
594950 Off ch=9 n=56 v=115
594950 Off ch=9 n=60 v=108
594960 On ch=9 n=51 v=111
594960 On ch=9 n=55 v=111
594960 On ch=9 n=63 v=111
595188 Off ch=9 n=55 v=111
595199 Off ch=9 n=63 v=111
595203 Off ch=9 n=51 v=111
595440 On ch=9 n=54 v=117
595440 On ch=9 n=73 v=103
595450 On ch=9 n=66 v=108
595660 Off ch=9 n=73 v=103
595670 On ch=9 n=70 v=101
595740 Off ch=9 n=70 v=101
595740 On ch=9 n=73 v=97
595810 Off ch=9 n=73 v=97
595840 On ch=9 n=70 v=110
595910 Off ch=9 n=66 v=108
595910 Off ch=9 n=70 v=110
595910 On ch=9 n=66 v=113
596130 Off ch=9 n=66 v=113
596150 On ch=9 n=68 v=108
596160 Off ch=9 n=54 v=117
596160 On ch=9 n=53 v=110
596160 On ch=9 n=75 v=105
596380 Off ch=9 n=75 v=105
596400 On ch=9 n=72 v=101
596600 Off ch=9 n=68 v=108
596620 Off ch=9 n=72 v=101
596650 On ch=9 n=68 v=109
596870 Off ch=9 n=68 v=109
596880 Off ch=9 n=53 v=110
596880 On ch=9 n=51 v=112
596880 On ch=9 n=70 v=111
596890 On ch=9 n=63 v=108
597090 Off ch=9 n=70 v=111
597100 On ch=9 n=66 v=101
597170 On ch=9 n=70 v=101
597170 Off ch=9 n=66 v=101
597230 Off ch=9 n=70 v=101
597280 On ch=9 n=66 v=109
597350 Off ch=9 n=66 v=109
597360 Off ch=9 n=63 v=108
597360 On ch=9 n=63 v=105
597570 Off ch=9 n=63 v=105
597590 Off ch=9 n=51 v=112
597600 On ch=9 n=49 v=110
597600 On ch=9 n=65 v=110
597610 On ch=9 n=72 v=111
597840 On ch=9 n=68 v=104
597850 Off ch=9 n=72 v=111
598050 Off ch=9 n=65 v=110
598060 Off ch=9 n=68 v=104
598080 On ch=9 n=65 v=107
598310 Off ch=9 n=49 v=110
598310 Off ch=9 n=65 v=107
598320 On ch=9 n=48 v=111
598320 On ch=9 n=70 v=111
598560 Off ch=9 n=70 v=111
598560 On ch=9 n=66 v=111
598790 Off ch=9 n=48 v=111
598790 Off ch=9 n=66 v=111
598800 On ch=9 n=56 v=115
598800 On ch=9 n=46 v=119
598800 On ch=9 n=63 v=104
599030 Off ch=9 n=63 v=104
599040 On ch=9 n=60 v=108
599260 Off ch=9 n=46 v=119
599270 Off ch=9 n=56 v=115
599270 Off ch=9 n=60 v=108
599280 On ch=9 n=51 v=111
599280 On ch=9 n=55 v=111
599280 On ch=9 n=63 v=111
599508 Off ch=9 n=55 v=111
599519 Off ch=9 n=63 v=111
599523 Off ch=9 n=51 v=111
604560 Par ch=9 c=99 v=1
604560 Par ch=9 c=98 v=32
604560 Par ch=9 c=6 v=64
604560 Par ch=9 c=38 v=0
604560 Par ch=9 c=99 v=1
604560 Par ch=9 c=98 v=33
604560 Par ch=9 c=6 v=64
604560 Par ch=9 c=38 v=0
604560 On ch=9 n=54 v=117
604560 On ch=9 n=73 v=103
604570 On ch=9 n=66 v=108
604780 Off ch=9 n=73 v=103
604790 On ch=9 n=70 v=101
604860 Off ch=9 n=70 v=101
604860 On ch=9 n=73 v=97
604930 Off ch=9 n=73 v=97
604960 On ch=9 n=70 v=110
605030 Off ch=9 n=66 v=108
605030 Off ch=9 n=70 v=110
605030 On ch=9 n=66 v=113
605250 Off ch=9 n=66 v=113
605270 On ch=9 n=68 v=108
605280 Off ch=9 n=54 v=117
605280 On ch=9 n=53 v=110
605280 On ch=9 n=75 v=105
605500 Off ch=9 n=75 v=105
605520 On ch=9 n=72 v=101
605720 Off ch=9 n=68 v=108
605740 Off ch=9 n=72 v=101
605770 On ch=9 n=68 v=109
605990 Off ch=9 n=68 v=109
606000 Off ch=9 n=53 v=110
606000 On ch=9 n=51 v=112
606000 On ch=9 n=70 v=111
606010 On ch=9 n=63 v=108
606210 Off ch=9 n=70 v=111
606220 On ch=9 n=66 v=101
606290 On ch=9 n=70 v=101
606290 Off ch=9 n=66 v=101
606350 Off ch=9 n=70 v=101
606400 On ch=9 n=66 v=109
606470 Off ch=9 n=66 v=109
606480 Off ch=9 n=63 v=108
606480 On ch=9 n=63 v=105
606690 Off ch=9 n=63 v=105
606710 Off ch=9 n=51 v=112
606720 On ch=9 n=49 v=110
606720 On ch=9 n=65 v=110
606730 On ch=9 n=72 v=111
606960 On ch=9 n=68 v=104
606970 Off ch=9 n=72 v=111
607170 Off ch=9 n=65 v=110
607180 Off ch=9 n=68 v=104
607200 On ch=9 n=65 v=107
607430 Off ch=9 n=49 v=110
607430 Off ch=9 n=65 v=107
607440 On ch=9 n=63 v=111
607440 On ch=9 n=48 v=111
607440 On ch=9 n=70 v=111
607660 Off ch=9 n=70 v=111
607680 On ch=9 n=66 v=111
607890 Off ch=9 n=63 v=111
607890 Off ch=9 n=48 v=111
607900 Off ch=9 n=66 v=111
607920 On ch=9 n=56 v=111
607920 On ch=9 n=46 v=111
607920 On ch=9 n=63 v=111
608140 Off ch=9 n=63 v=111
608160 On ch=9 n=60 v=111
608370 Off ch=9 n=56 v=111
608370 Off ch=9 n=46 v=111
608380 Off ch=9 n=60 v=111
608400 On ch=9 n=51 v=111
608400 On ch=9 n=55 v=111
608400 On ch=9 n=63 v=111
608628 Off ch=9 n=55 v=111
608639 Off ch=9 n=63 v=111
608643 Off ch=9 n=51 v=111
608880 On ch=9 n=54 v=117
608880 On ch=9 n=73 v=103
608890 On ch=9 n=66 v=108
609100 Off ch=9 n=73 v=103
609110 On ch=9 n=70 v=101
609180 Off ch=9 n=70 v=101
609180 On ch=9 n=73 v=97
609250 Off ch=9 n=73 v=97
609280 On ch=9 n=70 v=110
609350 Off ch=9 n=66 v=108
609350 Off ch=9 n=70 v=110
609350 On ch=9 n=66 v=113
609570 Off ch=9 n=66 v=113
609590 On ch=9 n=68 v=108
609600 Off ch=9 n=54 v=117
609600 On ch=9 n=53 v=110
609600 On ch=9 n=75 v=105
609820 Off ch=9 n=75 v=105
609840 On ch=9 n=72 v=101
610040 Off ch=9 n=68 v=108
610060 Off ch=9 n=72 v=101
610090 On ch=9 n=68 v=109
610310 Off ch=9 n=68 v=109
610320 Off ch=9 n=53 v=110
610320 On ch=9 n=51 v=112
610320 On ch=9 n=70 v=111
610330 On ch=9 n=63 v=108
610530 Off ch=9 n=70 v=111
610540 On ch=9 n=66 v=101
610610 On ch=9 n=70 v=101
610610 Off ch=9 n=66 v=101
610670 Off ch=9 n=70 v=101
610720 On ch=9 n=66 v=109
610790 Off ch=9 n=66 v=109
610800 Off ch=9 n=63 v=108
610800 On ch=9 n=63 v=105
611010 Off ch=9 n=63 v=105
611030 Off ch=9 n=51 v=112
611040 On ch=9 n=49 v=110
611040 On ch=9 n=65 v=110
611050 On ch=9 n=72 v=111
611280 On ch=9 n=68 v=104
611290 Off ch=9 n=72 v=111
611490 Off ch=9 n=65 v=110
611500 Off ch=9 n=68 v=104
611520 On ch=9 n=65 v=107
611750 Off ch=9 n=49 v=110
611750 Off ch=9 n=65 v=107
611760 On ch=9 n=63 v=111
611760 On ch=9 n=48 v=111
611760 On ch=9 n=70 v=111
611980 Off ch=9 n=70 v=111
612000 On ch=9 n=66 v=111
612210 Off ch=9 n=63 v=111
612210 Off ch=9 n=48 v=111
612220 Off ch=9 n=66 v=111
617040 On ch=9 n=54 v=117
617040 On ch=9 n=73 v=103
617050 On ch=9 n=66 v=108
617260 Off ch=9 n=73 v=103
617270 On ch=9 n=70 v=101
617340 Off ch=9 n=70 v=101
617340 On ch=9 n=73 v=97
617410 Off ch=9 n=73 v=97
617440 On ch=9 n=70 v=110
617510 Off ch=9 n=66 v=108
617510 Off ch=9 n=70 v=110
617510 On ch=9 n=66 v=113
617730 Off ch=9 n=66 v=113
617750 On ch=9 n=68 v=108
617760 Off ch=9 n=54 v=117
617760 On ch=9 n=53 v=110
617760 On ch=9 n=75 v=105
617980 Off ch=9 n=75 v=105
618000 On ch=9 n=72 v=101
618200 Off ch=9 n=68 v=108
618220 Off ch=9 n=72 v=101
618250 On ch=9 n=68 v=109
618470 Off ch=9 n=68 v=109
618480 Off ch=9 n=53 v=110
618480 On ch=9 n=51 v=112
618480 On ch=9 n=70 v=111
618490 On ch=9 n=63 v=108
618690 Off ch=9 n=70 v=111
618700 On ch=9 n=66 v=101
618770 On ch=9 n=70 v=101
618770 Off ch=9 n=66 v=101
618830 Off ch=9 n=70 v=101
618880 On ch=9 n=66 v=109
618950 Off ch=9 n=66 v=109
618960 Off ch=9 n=63 v=108
618960 On ch=9 n=63 v=105
619170 Off ch=9 n=63 v=105
619190 Off ch=9 n=51 v=112
619200 On ch=9 n=49 v=110
619200 On ch=9 n=65 v=110
619210 On ch=9 n=72 v=111
619440 On ch=9 n=68 v=104
619450 Off ch=9 n=72 v=111
619650 Off ch=9 n=65 v=110
619660 Off ch=9 n=68 v=104
619680 On ch=9 n=65 v=107
619910 Off ch=9 n=49 v=110
619910 Off ch=9 n=65 v=107
619920 On ch=9 n=63 v=111
619920 On ch=9 n=48 v=111
619920 On ch=9 n=70 v=111
620140 Off ch=9 n=70 v=111
620160 On ch=9 n=66 v=111
620370 Off ch=9 n=63 v=111
620370 Off ch=9 n=48 v=111
620380 Off ch=9 n=66 v=111
620400 On ch=9 n=56 v=111
620400 On ch=9 n=46 v=111
620400 On ch=9 n=63 v=111
620620 Off ch=9 n=63 v=111
620640 On ch=9 n=60 v=111
620850 Off ch=9 n=56 v=111
620850 Off ch=9 n=46 v=111
620860 Off ch=9 n=60 v=111
620880 On ch=9 n=51 v=111
620880 On ch=9 n=55 v=111
620880 On ch=9 n=63 v=111
621108 Off ch=9 n=55 v=111
621119 Off ch=9 n=63 v=111
621123 Off ch=9 n=51 v=111
621360 On ch=9 n=54 v=117
621360 On ch=9 n=73 v=103
621370 On ch=9 n=66 v=108
621580 Off ch=9 n=73 v=103
621590 On ch=9 n=70 v=101
621660 Off ch=9 n=70 v=101
621660 On ch=9 n=73 v=97
621730 Off ch=9 n=73 v=97
621760 On ch=9 n=70 v=110
621830 Off ch=9 n=66 v=108
621830 Off ch=9 n=70 v=110
621830 On ch=9 n=66 v=113
622050 Off ch=9 n=66 v=113
622070 On ch=9 n=68 v=108
622080 Off ch=9 n=54 v=117
622080 On ch=9 n=53 v=110
622080 On ch=9 n=75 v=105
622300 Off ch=9 n=75 v=105
622320 On ch=9 n=72 v=101
622520 Off ch=9 n=68 v=108
622540 Off ch=9 n=72 v=101
622570 On ch=9 n=68 v=109
622790 Off ch=9 n=68 v=109
622800 Off ch=9 n=53 v=110
622800 On ch=9 n=51 v=112
622800 On ch=9 n=70 v=111
622810 On ch=9 n=63 v=108
623010 Off ch=9 n=70 v=111
623020 On ch=9 n=66 v=101
623090 On ch=9 n=70 v=101
623090 Off ch=9 n=66 v=101
623150 Off ch=9 n=70 v=101
623200 On ch=9 n=66 v=109
623270 Off ch=9 n=66 v=109
623280 Off ch=9 n=63 v=108
623280 On ch=9 n=63 v=105
623490 Off ch=9 n=63 v=105
623510 Off ch=9 n=51 v=112
623520 On ch=9 n=49 v=110
623520 On ch=9 n=65 v=110
623530 On ch=9 n=72 v=111
623760 On ch=9 n=68 v=104
623770 Off ch=9 n=72 v=111
623970 Off ch=9 n=65 v=110
623980 Off ch=9 n=68 v=104
624000 On ch=9 n=65 v=107
624230 Off ch=9 n=49 v=110
624230 Off ch=9 n=65 v=107
624240 On ch=9 n=48 v=109
624240 On ch=9 n=63 v=111
624240 On ch=9 n=70 v=106
624460 Off ch=9 n=70 v=106
624470 On ch=9 n=66 v=103
624670 Off ch=9 n=66 v=103
624690 Off ch=9 n=63 v=111
624710 Off ch=9 n=48 v=109
624720 On ch=9 n=46 v=114
624720 On ch=9 n=56 v=108
624720 On ch=9 n=63 v=106
624940 Off ch=9 n=63 v=106
624960 On ch=9 n=60 v=114
625170 Off ch=9 n=60 v=114
625190 Off ch=9 n=56 v=108
625200 Off ch=9 n=46 v=114
625200 KeySig 1 major
625200 On ch=9 n=63 v=100
625310 Off ch=9 n=63 v=100
625320 On ch=9 n=70 v=100
625380 Par ch=9 c=98 v=99
625390 Par ch=9 c=99 v=1
625400 Par ch=9 c=6 v=66
625410 Par ch=9 c=10 v=0
625420 PrCh ch=9 p=18
625430 Par ch=9 c=11 v=85
625430 Off ch=9 n=70 v=100
625440 On ch=9 n=66 v=100
625550 Off ch=9 n=66 v=100
625560 On ch=9 n=63 v=100
625670 Off ch=9 n=63 v=100
625680 On ch=9 n=70 v=100
625790 Off ch=9 n=70 v=100
625800 On ch=9 n=66 v=100
625910 Off ch=9 n=66 v=100
625920 On ch=9 n=63 v=100
626030 Off ch=9 n=63 v=100
626040 On ch=9 n=70 v=100
626150 Off ch=9 n=70 v=100
626160 On ch=9 n=66 v=100
626270 Off ch=9 n=66 v=100
626280 On ch=9 n=63 v=100
626390 Off ch=9 n=63 v=100
626400 On ch=9 n=70 v=100
626510 Off ch=9 n=70 v=100
626520 On ch=9 n=66 v=100
626630 Off ch=9 n=66 v=100
626640 On ch=9 n=70 v=100
626870 Off ch=9 n=70 v=100
626880 On ch=9 n=69 v=100
627110 Off ch=9 n=69 v=100
627120 On ch=9 n=68 v=100
627350 Off ch=9 n=68 v=100
627360 On ch=9 n=67 v=100
627590 Off ch=9 n=67 v=100
627600 On ch=9 n=66 v=100
627830 Off ch=9 n=66 v=100
627840 On ch=9 n=63 v=100
628070 Off ch=9 n=63 v=100
628080 On ch=9 n=63 v=100
628190 Off ch=9 n=63 v=100
628200 On ch=9 n=70 v=100
628310 Off ch=9 n=70 v=100
628320 On ch=9 n=66 v=100
628430 Off ch=9 n=66 v=100
628440 On ch=9 n=63 v=100
628550 Off ch=9 n=63 v=100
628560 On ch=9 n=70 v=100
628670 Off ch=9 n=70 v=100
628680 On ch=9 n=66 v=100
628790 Off ch=9 n=66 v=100
628800 On ch=9 n=63 v=100
628910 Off ch=9 n=63 v=100
628920 On ch=9 n=70 v=100
629030 Off ch=9 n=70 v=100
629040 On ch=9 n=66 v=100
629150 Off ch=9 n=66 v=100
629160 On ch=9 n=63 v=100
629270 Off ch=9 n=63 v=100
629280 On ch=9 n=70 v=100
629390 Off ch=9 n=70 v=100
629400 On ch=9 n=66 v=100
629510 Off ch=9 n=66 v=100
629520 On ch=9 n=66 v=100
629750 Off ch=9 n=66 v=100
629760 On ch=9 n=67 v=100
629990 Off ch=9 n=67 v=100
630000 On ch=9 n=68 v=100
630230 Off ch=9 n=68 v=100
630240 On ch=9 n=69 v=100
630470 Off ch=9 n=69 v=100
630480 On ch=9 n=70 v=100
630710 Off ch=9 n=70 v=100
630720 On ch=9 n=73 v=100
630950 Off ch=9 n=73 v=100
630960 KeySig 0 major
630960 PrCh ch=9 p=1
630960 On ch=9 n=54 v=117
630960 On ch=9 n=66 v=114
630960 On ch=9 n=73 v=109
631190 Off ch=9 n=73 v=109
631200 On ch=9 n=70 v=113
631270 On ch=9 n=73 v=107
631280 Off ch=9 n=70 v=113
631350 Off ch=9 n=73 v=107
631360 On ch=9 n=70 v=117
631440 Off ch=9 n=66 v=114
631440 Off ch=9 n=70 v=117
631440 On ch=9 n=66 v=115
631670 Off ch=9 n=66 v=115
631680 Off ch=9 n=54 v=117
631680 On ch=9 n=53 v=121
631680 On ch=9 n=68 v=107
631680 On ch=9 n=75 v=118
631910 Off ch=9 n=75 v=118
631920 On ch=9 n=72 v=111
632150 Off ch=9 n=72 v=111
632160 Off ch=9 n=68 v=107
632160 On ch=9 n=68 v=119
632390 Off ch=9 n=68 v=119
632390 On ch=9 n=51 v=124
632400 Off ch=9 n=53 v=121
632400 On ch=9 n=63 v=117
632400 On ch=9 n=70 v=118
632630 Off ch=9 n=70 v=118
632650 On ch=9 n=66 v=111
632720 On ch=9 n=70 v=115
632730 Off ch=9 n=66 v=111
632800 Off ch=9 n=70 v=115
632800 On ch=9 n=66 v=117
632880 Off ch=9 n=63 v=117
632880 Off ch=9 n=66 v=117
632880 On ch=9 n=63 v=119
633070 Off ch=9 n=51 v=124
633110 Off ch=9 n=63 v=119
633120 On ch=9 n=49 v=124
633120 On ch=9 n=65 v=117
633120 On ch=9 n=72 v=117
633330 Off ch=9 n=72 v=117
633360 On ch=9 n=68 v=115
633590 Off ch=9 n=68 v=115
633600 Off ch=9 n=65 v=117
633600 On ch=9 n=65 v=123
633800 Off ch=9 n=49 v=124
633820 Off ch=9 n=65 v=123
633840 On ch=9 n=48 v=124
633840 On ch=9 n=63 v=116
633840 On ch=9 n=70 v=120
634060 Off ch=9 n=70 v=120
634080 On ch=9 n=66 v=114
634280 Off ch=9 n=66 v=114
634300 Off ch=9 n=63 v=116
634320 Off ch=9 n=48 v=124
634320 On ch=9 n=46 v=107
634320 On ch=9 n=56 v=117
634320 On ch=9 n=63 v=116
634510 Off ch=9 n=63 v=116
634560 On ch=9 n=60 v=118
634750 Off ch=9 n=56 v=117
634780 Off ch=9 n=60 v=118
634790 Off ch=9 n=46 v=107
634800 On ch=9 n=58 v=125
634800 On ch=9 n=51 v=123
634800 On ch=9 n=55 v=120
635230 Off ch=9 n=55 v=120
635250 Off ch=9 n=51 v=123
635280 Off ch=9 n=58 v=125
635280 On ch=9 n=54 v=117
635280 On ch=9 n=66 v=114
635280 On ch=9 n=73 v=109
635510 Off ch=9 n=73 v=109
635520 On ch=9 n=70 v=113
635590 On ch=9 n=73 v=107
635600 Off ch=9 n=70 v=113
635670 Off ch=9 n=73 v=107
635680 On ch=9 n=70 v=117
635760 Off ch=9 n=66 v=114
635760 Off ch=9 n=70 v=117
635760 On ch=9 n=66 v=115
635990 Off ch=9 n=66 v=115
636000 Off ch=9 n=54 v=117
636000 On ch=9 n=53 v=121
636000 On ch=9 n=68 v=107
636000 On ch=9 n=75 v=118
636230 Off ch=9 n=75 v=118
636240 On ch=9 n=72 v=111
636470 Off ch=9 n=72 v=111
636480 Off ch=9 n=68 v=107
636480 On ch=9 n=68 v=119
636710 Off ch=9 n=68 v=119
636710 On ch=9 n=51 v=124
636720 Off ch=9 n=53 v=121
636720 On ch=9 n=63 v=117
636720 On ch=9 n=70 v=118
636950 Off ch=9 n=70 v=118
636970 On ch=9 n=66 v=111
637040 On ch=9 n=70 v=115
637050 Off ch=9 n=66 v=111
637120 Off ch=9 n=70 v=115
637120 On ch=9 n=66 v=117
637200 Off ch=9 n=63 v=117
637200 Off ch=9 n=66 v=117
637200 On ch=9 n=63 v=119
637390 Off ch=9 n=51 v=124
637430 Off ch=9 n=63 v=119
637440 On ch=9 n=49 v=124
637440 On ch=9 n=65 v=117
637440 On ch=9 n=72 v=117
637650 Off ch=9 n=72 v=117
637680 On ch=9 n=68 v=115
637910 Off ch=9 n=68 v=115
637920 Off ch=9 n=65 v=117
637920 On ch=9 n=65 v=123
638120 Off ch=9 n=49 v=124
638140 Off ch=9 n=65 v=123
638160 On ch=9 n=48 v=124
638160 On ch=9 n=63 v=116
638160 On ch=9 n=70 v=120
638380 Off ch=9 n=70 v=120
638400 On ch=9 n=66 v=114
638600 Off ch=9 n=66 v=114
638620 Off ch=9 n=63 v=116
638640 Off ch=9 n=48 v=124
638640 On ch=9 n=46 v=107
638640 On ch=9 n=56 v=117
638640 On ch=9 n=63 v=116
638830 Off ch=9 n=63 v=116
638880 On ch=9 n=60 v=118
639070 Off ch=9 n=56 v=117
639100 Off ch=9 n=60 v=118
639110 Off ch=9 n=46 v=107
639120 On ch=9 n=58 v=125
639120 On ch=9 n=51 v=123
639120 On ch=9 n=55 v=120
639550 Off ch=9 n=55 v=120
639570 Off ch=9 n=51 v=123
639600 Off ch=9 n=58 v=125
639600 On ch=9 n=54 v=121
639610 On ch=9 n=66 v=115
639620 On ch=9 n=73 v=115
639840 On ch=9 n=70 v=111
639850 Off ch=9 n=73 v=115
639910 Off ch=9 n=70 v=111
639910 On ch=9 n=73 v=95
639960 Off ch=9 n=73 v=95
640000 On ch=9 n=70 v=115
640070 Off ch=9 n=70 v=115
640080 Off ch=9 n=66 v=115
640080 On ch=9 n=66 v=111
640310 Off ch=9 n=54 v=121
640310 On ch=9 n=54 v=121
640320 On ch=9 n=68 v=115
640320 On ch=9 n=75 v=115
640330 Off ch=9 n=66 v=111
640550 Off ch=9 n=75 v=115
640550 On ch=9 n=72 v=115
640780 Off ch=9 n=72 v=115
640800 Off ch=9 n=68 v=115
640800 On ch=9 n=68 v=115
641030 Off ch=9 n=54 v=121
641030 On ch=9 n=63 v=111
641030 On ch=9 n=70 v=117
641040 Off ch=9 n=68 v=115
641040 On ch=9 n=51 v=115
641230 Off ch=9 n=70 v=117
641280 On ch=9 n=66 v=111
641350 Off ch=9 n=66 v=111
641370 On ch=9 n=70 v=95
641420 Off ch=9 n=70 v=95
641440 On ch=9 n=66 v=115
641520 Off ch=9 n=66 v=115
641540 Off ch=9 n=63 v=111
641540 On ch=9 n=63 v=111
641720 Off ch=9 n=51 v=115
641740 Off ch=9 n=63 v=111
641750 On ch=9 n=72 v=115
641760 On ch=9 n=49 v=115
641760 On ch=9 n=65 v=115
641980 Off ch=9 n=72 v=115
642000 On ch=9 n=68 v=111
642200 Off ch=9 n=68 v=111
642240 Off ch=9 n=65 v=115
642240 On ch=9 n=65 v=115
642440 Off ch=9 n=49 v=115
642470 Off ch=9 n=65 v=115
642470 On ch=9 n=47 v=116
642480 On ch=9 n=63 v=110
642480 On ch=9 n=70 v=117
642710 Off ch=9 n=70 v=117
642710 On ch=9 n=66 v=111
642910 Off ch=9 n=66 v=111
642920 Off ch=9 n=63 v=110
642930 Off ch=9 n=47 v=116
642960 On ch=9 n=46 v=116
642960 On ch=9 n=63 v=116
642970 On ch=9 n=56 v=111
643190 Off ch=9 n=63 v=116
643200 On ch=9 n=60 v=115
643400 Off ch=9 n=60 v=115
643420 Off ch=9 n=46 v=116
643430 Off ch=9 n=56 v=111
643440 On ch=9 n=64 v=97
643678 Off ch=9 n=64 v=97
644160 Par ch=9 c=99 v=1
644160 Par ch=9 c=98 v=33
644160 Par ch=9 c=6 v=80
644160 Par ch=9 c=38 v=0
644280 Par ch=9 c=99 v=1
644280 Par ch=9 c=98 v=32
644280 Par ch=9 c=6 v=50
644280 Par ch=9 c=38 v=0
644870 Par ch=9 c=0 v=0
644870 Par ch=9 c=32 v=0
644870 PrCh ch=9 p=48
644880 On ch=9 n=71 v=111
644880 On ch=9 n=66 v=111
644880 On ch=9 n=64 v=111
646320 Off ch=9 n=71 v=111
646320 Off ch=9 n=66 v=111
646320 Off ch=9 n=64 v=111
646320 On ch=9 n=74 v=111
646320 On ch=9 n=69 v=111
646320 On ch=9 n=67 v=111
647760 Off ch=9 n=74 v=111
647760 Off ch=9 n=69 v=111
647760 Off ch=9 n=67 v=111
647760 On ch=9 n=78 v=111
647760 On ch=9 n=71 v=111
647760 On ch=9 n=73 v=111
649200 Off ch=9 n=78 v=111
649200 Off ch=9 n=71 v=111
649200 Off ch=9 n=73 v=111
649200 On ch=9 n=81 v=111
649200 On ch=9 n=74 v=111
649200 On ch=9 n=76 v=111
650630 On ch=9 n=76 v=107
650640 Off ch=9 n=81 v=111
650640 Off ch=9 n=74 v=111
650640 Off ch=9 n=76 v=111
650640 Par ch=9 c=7 v=74
650640 On ch=9 n=52 v=121
650640 On ch=9 n=40 v=121
650770 Off ch=9 n=76 v=107
650800 On ch=9 n=71 v=105
650950 Off ch=9 n=71 v=105
650960 On ch=9 n=67 v=116
651110 Off ch=9 n=67 v=116
651120 On ch=9 n=76 v=106
651260 Off ch=9 n=76 v=106
651270 On ch=9 n=71 v=101
651400 Off ch=9 n=71 v=101
651440 On ch=9 n=67 v=111
651590 Off ch=9 n=67 v=111
651600 On ch=9 n=76 v=104
651730 Off ch=9 n=76 v=104
651760 On ch=9 n=71 v=111
651910 Off ch=9 n=71 v=111
651920 On ch=9 n=67 v=111
652070 Off ch=9 n=67 v=111
652070 On ch=9 n=76 v=105
652200 Off ch=9 n=76 v=105
652240 On ch=9 n=71 v=95
652370 Off ch=9 n=71 v=95
652400 On ch=9 n=67 v=111
652550 Off ch=9 n=67 v=111
652560 On ch=9 n=83 v=117
652690 Off ch=9 n=83 v=117
652710 On ch=9 n=79 v=104
652830 Off ch=9 n=79 v=104
652880 On ch=9 n=76 v=107
653020 Off ch=9 n=76 v=107
653040 On ch=9 n=79 v=108
653170 Off ch=9 n=79 v=108
653210 On ch=9 n=76 v=95
653340 Off ch=9 n=76 v=95
653360 On ch=9 n=71 v=111
653490 Off ch=9 n=52 v=121
653490 Off ch=9 n=40 v=121
653500 Off ch=9 n=71 v=111
653520 On ch=9 n=57 v=124
653520 On ch=9 n=45 v=125
653520 On ch=9 n=69 v=106
653620 Off ch=9 n=69 v=106
653630 On ch=9 n=72 v=102
653720 Off ch=9 n=72 v=102
653760 On ch=9 n=76 v=111
653860 Off ch=9 n=76 v=111
653880 On ch=9 n=72 v=111
653980 Off ch=9 n=72 v=111
654010 On ch=9 n=76 v=104
654100 Off ch=9 n=76 v=104
654120 On ch=9 n=81 v=109
654220 Off ch=9 n=81 v=109
654240 On ch=9 n=72 v=118
654340 Off ch=9 n=72 v=118
654350 On ch=9 n=76 v=109
654450 Off ch=9 n=76 v=109
654480 On ch=9 n=81 v=102
654590 Off ch=9 n=81 v=102
654600 On ch=9 n=76 v=109
654700 Off ch=9 n=76 v=109
654720 On ch=9 n=81 v=101
654810 Off ch=9 n=81 v=101
654830 On ch=9 n=84 v=109
654930 Off ch=9 n=84 v=109
654960 On ch=9 n=88 v=111
655060 Off ch=9 n=88 v=111
655080 On ch=9 n=81 v=102
655170 Off ch=9 n=81 v=102
655200 On ch=9 n=76 v=116
655290 Off ch=9 n=76 v=116
655320 On ch=9 n=84 v=111
655540 Off ch=9 n=84 v=111
655560 On ch=9 n=76 v=100
655650 Off ch=9 n=76 v=100
655680 On ch=9 n=72 v=116
655780 Off ch=9 n=72 v=116
655800 On ch=9 n=76 v=111
656010 Off ch=9 n=76 v=111
656040 On ch=9 n=76 v=116
656150 Off ch=9 n=76 v=116
656150 On ch=9 n=72 v=115
656260 Off ch=9 n=72 v=115
656280 On ch=9 n=76 v=107
656370 Off ch=9 n=57 v=124
656370 Off ch=9 n=45 v=125
656390 Off ch=9 n=76 v=107
656400 On ch=9 n=54 v=127
656400 On ch=9 n=66 v=111
656400 On ch=9 n=66 v=121
656400 Off ch=9 n=66 v=121
656510 On ch=9 n=69 v=104
656610 Off ch=9 n=69 v=104
656630 On ch=9 n=73 v=111
656740 Off ch=9 n=73 v=111
656760 On ch=9 n=78 v=105
656870 Off ch=9 n=78 v=105
656880 On ch=9 n=81 v=109
656980 Off ch=9 n=81 v=109
657000 On ch=9 n=69 v=116
657110 Off ch=9 n=69 v=116
657120 On ch=9 n=73 v=102
657230 Off ch=9 n=73 v=102
657230 On ch=9 n=78 v=110
657340 Off ch=9 n=78 v=110
657350 Off ch=9 n=66 v=111
657350 On ch=9 n=66 v=116
657360 On ch=9 n=66 v=111
657360 Off ch=9 n=66 v=116
657480 On ch=9 n=69 v=101
657580 Off ch=9 n=69 v=101
657600 On ch=9 n=73 v=95
657710 Off ch=9 n=73 v=95
657720 On ch=9 n=78 v=108
657800 Off ch=9 n=66 v=111
657820 Off ch=9 n=78 v=108
657840 On ch=9 n=66 v=111
657950 Off ch=9 n=66 v=111
657960 On ch=9 n=69 v=111
658070 Off ch=9 n=69 v=111
658080 On ch=9 n=73 v=111
658190 Off ch=9 n=73 v=111
658200 On ch=9 n=78 v=111
658310 Off ch=9 n=78 v=111
658310 On ch=9 n=66 v=127
658320 On ch=9 n=66 v=111
658320 Off ch=9 n=66 v=127
658440 On ch=9 n=69 v=95
658540 Off ch=9 n=69 v=95
658550 On ch=9 n=73 v=108
658660 Off ch=9 n=73 v=108
658680 On ch=9 n=78 v=104
658780 Off ch=9 n=66 v=111
658780 Off ch=9 n=78 v=104
658780 On ch=9 n=66 v=127
658800 On ch=9 n=66 v=111
658800 Off ch=9 n=66 v=127
658920 On ch=9 n=69 v=100
659020 On ch=9 n=73 v=106
659030 Off ch=9 n=69 v=100
659120 Off ch=9 n=73 v=106
659160 On ch=9 n=78 v=111
659260 Off ch=9 n=66 v=111
659270 Off ch=9 n=78 v=111
659270 On ch=9 n=64 v=111
659280 Off ch=9 n=54 v=127
659280 On ch=9 n=52 v=127
659280 On ch=9 n=64 v=127
659280 Off ch=9 n=64 v=111
659400 On ch=9 n=67 v=106
659500 Off ch=9 n=67 v=106
659520 On ch=9 n=71 v=116
659630 Off ch=9 n=71 v=116
659640 On ch=9 n=76 v=107
659750 Off ch=9 n=76 v=107
659760 On ch=9 n=79 v=111
659860 Off ch=9 n=79 v=111
659880 On ch=9 n=67 v=116
659990 Off ch=9 n=67 v=116
660000 On ch=9 n=71 v=100
660100 Off ch=9 n=71 v=100
660120 On ch=9 n=76 v=111
660210 Off ch=9 n=64 v=127
660220 Off ch=9 n=76 v=111
660240 On ch=9 n=64 v=127
660250 On ch=9 n=64 v=111
660250 Off ch=9 n=64 v=127
660360 On ch=9 n=67 v=100
660470 Off ch=9 n=67 v=100
660480 On ch=9 n=71 v=108
660590 Off ch=9 n=71 v=108
660600 On ch=9 n=76 v=109
660680 Off ch=9 n=52 v=127
660700 Off ch=9 n=64 v=111
660700 On ch=9 n=64 v=111
660710 On ch=9 n=64 v=127
660710 Off ch=9 n=64 v=111
660720 Off ch=9 n=76 v=109
660720 On ch=9 n=52 v=127
660840 On ch=9 n=67 v=120
660950 Off ch=9 n=67 v=120
660960 On ch=9 n=71 v=108
661070 Off ch=9 n=71 v=108
661080 On ch=9 n=76 v=111
661180 Off ch=9 n=64 v=127
661180 On ch=9 n=64 v=127
661190 Off ch=9 n=76 v=111
661200 On ch=9 n=64 v=111
661200 Off ch=9 n=64 v=127
661320 On ch=9 n=67 v=111
661430 Off ch=9 n=67 v=111
661440 On ch=9 n=71 v=100
661560 Off ch=9 n=71 v=100
661560 On ch=9 n=76 v=111
661650 Off ch=9 n=64 v=111
661670 Off ch=9 n=76 v=111
661680 On ch=9 n=64 v=124
661690 On ch=9 n=64 v=111
661690 Off ch=9 n=64 v=124
661800 On ch=9 n=67 v=111
661910 Off ch=9 n=67 v=111
661920 On ch=9 n=71 v=107
662030 Off ch=9 n=71 v=107
662040 On ch=9 n=76 v=108
662120 Off ch=9 n=52 v=127
662120 Off ch=9 n=64 v=111
662160 Off ch=9 n=76 v=108
662160 On ch=9 n=50 v=127
662280 On ch=9 n=62 v=116
662390 Off ch=9 n=62 v=116
662390 On ch=9 n=66 v=107
662500 Off ch=9 n=66 v=107
662500 On ch=9 n=69 v=108
662610 Off ch=9 n=69 v=108
662640 On ch=9 n=74 v=116
662750 Off ch=9 n=74 v=116
662760 On ch=9 n=69 v=111
662860 Off ch=9 n=69 v=111
662880 On ch=9 n=74 v=106
662990 Off ch=9 n=74 v=106
663000 On ch=9 n=78 v=109
663110 Off ch=9 n=78 v=109
663130 On ch=9 n=81 v=107
663240 Off ch=9 n=81 v=107
663240 On ch=9 n=74 v=119
663350 Off ch=9 n=74 v=119
663360 On ch=9 n=78 v=111
663480 Off ch=9 n=78 v=111
663480 On ch=9 n=81 v=116
663580 Off ch=9 n=81 v=116
663600 On ch=9 n=86 v=115
663720 Off ch=9 n=86 v=115
663720 On ch=9 n=81 v=103
663830 Off ch=9 n=81 v=103
663840 On ch=9 n=78 v=106
663950 Off ch=9 n=78 v=106
663960 On ch=9 n=74 v=111
664060 Off ch=9 n=74 v=111
664070 On ch=9 n=69 v=114
664180 Off ch=9 n=69 v=114
664200 On ch=9 n=66 v=108
664310 Off ch=9 n=66 v=108
664320 On ch=9 n=62 v=120
664430 Off ch=9 n=62 v=120
664440 On ch=9 n=66 v=105
664540 Off ch=9 n=66 v=105
664570 On ch=9 n=69 v=114
664670 Off ch=9 n=69 v=114
664680 On ch=9 n=62 v=120
664780 Off ch=9 n=62 v=120
664800 On ch=9 n=66 v=102
664900 Off ch=9 n=66 v=102
664920 On ch=9 n=69 v=117
665030 Off ch=9 n=69 v=117
665030 On ch=9 n=74 v=119
665130 Off ch=9 n=74 v=119
665160 On ch=9 n=66 v=111
665270 Off ch=9 n=66 v=111
665280 On ch=9 n=69 v=106
665390 Off ch=9 n=69 v=106
665400 On ch=9 n=74 v=110
665510 Off ch=9 n=74 v=110
665520 On ch=9 n=78 v=116
665640 Off ch=9 n=78 v=116
665640 On ch=9 n=74 v=121
665750 Off ch=9 n=74 v=121
665760 On ch=9 n=78 v=104
665870 Off ch=9 n=78 v=104
665870 On ch=9 n=81 v=108
666110 Off ch=9 n=81 v=108
666120 On ch=9 n=81 v=98
666230 Off ch=9 n=81 v=98
666250 On ch=9 n=78 v=109
666360 Off ch=9 n=78 v=109
666360 On ch=9 n=74 v=109
666470 Off ch=9 n=74 v=109
666480 On ch=9 n=69 v=115
666590 Off ch=9 n=69 v=115
666600 On ch=9 n=66 v=116
666710 Off ch=9 n=66 v=116
666720 On ch=9 n=62 v=120
666830 Off ch=9 n=62 v=120
666840 On ch=9 n=74 v=106
666950 Off ch=9 n=74 v=106
666960 On ch=9 n=69 v=107
667060 Off ch=9 n=69 v=107
667070 On ch=9 n=66 v=108
667180 Off ch=9 n=66 v=108
667200 On ch=9 n=62 v=120
667310 On ch=9 n=69 v=102
667320 Off ch=9 n=62 v=120
667420 Off ch=9 n=69 v=102
667440 On ch=9 n=66 v=112
667550 Off ch=9 n=66 v=112
667560 On ch=9 n=62 v=111
667670 Off ch=9 n=62 v=111
667670 On ch=9 n=57 v=111
667780 Off ch=9 n=57 v=111
667800 On ch=9 n=54 v=118
667860 Off ch=9 n=50 v=127
667920 Off ch=9 n=54 v=118
667920 On ch=9 n=52 v=127
667920 On ch=9 n=67 v=116
668030 Off ch=9 n=67 v=116
668040 On ch=9 n=59 v=115
668140 Off ch=9 n=59 v=115
668160 On ch=9 n=64 v=105
668270 Off ch=9 n=64 v=105
668280 On ch=9 n=67 v=111
668390 Off ch=9 n=67 v=111
668400 On ch=9 n=71 v=114
668510 Off ch=9 n=71 v=114
668520 On ch=9 n=64 v=111
668620 Off ch=9 n=64 v=111
668640 On ch=9 n=67 v=111
668760 Off ch=9 n=67 v=111
668760 On ch=9 n=71 v=113
668870 Off ch=9 n=71 v=113
668880 On ch=9 n=76 v=103
668990 Off ch=9 n=76 v=103
668990 On ch=9 n=67 v=111
669090 Off ch=9 n=67 v=111
669120 On ch=9 n=71 v=107
669220 Off ch=9 n=71 v=107
669240 On ch=9 n=76 v=109
669350 Off ch=9 n=76 v=109
669350 On ch=9 n=79 v=115
669460 Off ch=9 n=79 v=115
669480 On ch=9 n=67 v=116
669580 On ch=9 n=71 v=105
669590 Off ch=9 n=67 v=116
669680 Off ch=9 n=71 v=105
669720 On ch=9 n=76 v=111
669830 Off ch=9 n=76 v=111
669840 On ch=9 n=79 v=111
669950 Off ch=9 n=79 v=111
669970 On ch=9 n=67 v=116
670070 Off ch=9 n=67 v=116
670080 On ch=9 n=71 v=108
670180 Off ch=9 n=71 v=108
670200 On ch=9 n=76 v=111
670310 Off ch=9 n=76 v=111
670320 On ch=9 n=79 v=116
670430 Off ch=9 n=79 v=116
670430 On ch=9 n=67 v=106
670540 Off ch=9 n=67 v=106
670560 On ch=9 n=71 v=108
670680 Off ch=9 n=71 v=108
670690 On ch=9 n=76 v=115
670800 Off ch=9 n=52 v=127
670800 Off ch=9 n=76 v=115
670800 On ch=9 n=57 v=125
670800 On ch=9 n=72 v=115
670950 Off ch=9 n=72 v=115
670970 On ch=9 n=69 v=107
671120 Off ch=9 n=69 v=107
671120 On ch=9 n=72 v=112
671260 Off ch=9 n=72 v=112
671280 On ch=9 n=76 v=117
671430 Off ch=9 n=76 v=117
671430 On ch=9 n=72 v=111
671580 Off ch=9 n=72 v=111
671600 On ch=9 n=76 v=104
671740 Off ch=9 n=76 v=104
671760 On ch=9 n=81 v=111
671910 Off ch=9 n=81 v=111
671920 On ch=9 n=76 v=118
672070 Off ch=9 n=76 v=118
672090 On ch=9 n=81 v=104
672230 Off ch=9 n=81 v=104
672240 On ch=9 n=84 v=113
672390 Off ch=9 n=84 v=113
672400 On ch=9 n=76 v=118
672550 On ch=9 n=81 v=103
672560 Off ch=9 n=76 v=118
672700 Off ch=9 n=81 v=103
672720 On ch=9 n=84 v=111
672870 Off ch=9 n=84 v=111
672880 On ch=9 n=81 v=116
673020 Off ch=9 n=81 v=116
673050 On ch=9 n=76 v=115
673200 Off ch=9 n=76 v=115
673200 On ch=9 n=88 v=114
673310 Off ch=9 n=88 v=114
673310 On ch=9 n=84 v=106
673420 Off ch=9 n=84 v=106
673440 On ch=9 n=81 v=109
673540 Off ch=9 n=81 v=109
673560 On ch=9 n=76 v=116
673650 Off ch=9 n=57 v=125
673680 Off ch=9 n=76 v=116
673680 On ch=9 n=54 v=127
673680 On ch=9 n=66 v=111
673680 On ch=9 n=66 v=121
673680 Off ch=9 n=66 v=121
673790 On ch=9 n=69 v=104
673890 Off ch=9 n=69 v=104
673910 On ch=9 n=73 v=111
674020 Off ch=9 n=73 v=111
674040 On ch=9 n=78 v=105
674150 Off ch=9 n=78 v=105
674160 On ch=9 n=81 v=109
674260 Off ch=9 n=81 v=109
674280 On ch=9 n=69 v=116
674390 Off ch=9 n=69 v=116
674400 On ch=9 n=73 v=102
674510 Off ch=9 n=73 v=102
674510 On ch=9 n=78 v=110
674620 Off ch=9 n=78 v=110
674630 Off ch=9 n=66 v=111
674630 On ch=9 n=66 v=116
674640 On ch=9 n=66 v=111
674640 Off ch=9 n=66 v=116
674760 On ch=9 n=69 v=101
674860 Off ch=9 n=69 v=101
674880 On ch=9 n=73 v=95
674990 Off ch=9 n=73 v=95
675000 On ch=9 n=78 v=108
675080 Off ch=9 n=66 v=111
675100 Off ch=9 n=78 v=108
675120 On ch=9 n=66 v=111
675230 Off ch=9 n=66 v=111
675240 On ch=9 n=69 v=111
675350 Off ch=9 n=69 v=111
675360 On ch=9 n=73 v=111
675470 Off ch=9 n=73 v=111
675480 On ch=9 n=78 v=111
675590 Off ch=9 n=78 v=111
675590 On ch=9 n=66 v=127
675600 On ch=9 n=66 v=111
675600 Off ch=9 n=66 v=127
675720 On ch=9 n=69 v=95
675820 Off ch=9 n=69 v=95
675830 On ch=9 n=73 v=108
675940 Off ch=9 n=73 v=108
675960 On ch=9 n=78 v=104
676060 Off ch=9 n=66 v=111
676060 Off ch=9 n=78 v=104
676060 On ch=9 n=66 v=127
676080 On ch=9 n=66 v=111
676080 Off ch=9 n=66 v=127
676200 On ch=9 n=69 v=100
676300 On ch=9 n=73 v=106
676310 Off ch=9 n=69 v=100
676400 Off ch=9 n=73 v=106
676440 On ch=9 n=78 v=111
676540 Off ch=9 n=66 v=111
676550 Off ch=9 n=78 v=111
676550 On ch=9 n=64 v=111
676560 Off ch=9 n=54 v=127
676560 On ch=9 n=52 v=127
676560 On ch=9 n=64 v=127
676560 Off ch=9 n=64 v=111
676680 On ch=9 n=67 v=106
676780 Off ch=9 n=67 v=106
676800 On ch=9 n=71 v=116
676910 Off ch=9 n=71 v=116
676920 On ch=9 n=76 v=107
677030 Off ch=9 n=76 v=107
677040 On ch=9 n=79 v=111
677140 Off ch=9 n=79 v=111
677160 On ch=9 n=67 v=116
677270 Off ch=9 n=67 v=116
677280 On ch=9 n=71 v=100
677380 Off ch=9 n=71 v=100
677400 On ch=9 n=76 v=111
677490 Off ch=9 n=64 v=127
677500 Off ch=9 n=76 v=111
677520 On ch=9 n=64 v=127
677530 On ch=9 n=64 v=111
677530 Off ch=9 n=64 v=127
677640 On ch=9 n=67 v=100
677750 Off ch=9 n=67 v=100
677760 On ch=9 n=71 v=108
677870 Off ch=9 n=71 v=108
677880 On ch=9 n=76 v=109
677960 Off ch=9 n=52 v=127
677980 Off ch=9 n=64 v=111
677980 On ch=9 n=64 v=111
677990 On ch=9 n=64 v=127
677990 Off ch=9 n=64 v=111
678000 Off ch=9 n=76 v=109
678000 On ch=9 n=52 v=127
678120 On ch=9 n=67 v=120
678230 Off ch=9 n=67 v=120
678240 On ch=9 n=71 v=108
678350 Off ch=9 n=71 v=108
678360 On ch=9 n=76 v=111
678460 Off ch=9 n=64 v=127
678460 On ch=9 n=64 v=127
678470 Off ch=9 n=76 v=111
678480 On ch=9 n=64 v=111
678480 Off ch=9 n=64 v=127
678600 On ch=9 n=67 v=111
678710 Off ch=9 n=67 v=111
678720 On ch=9 n=71 v=100
678840 Off ch=9 n=71 v=100
678840 On ch=9 n=76 v=111
678930 Off ch=9 n=64 v=111
678950 Off ch=9 n=76 v=111
678960 On ch=9 n=64 v=124
678970 On ch=9 n=64 v=111
678970 Off ch=9 n=64 v=124
679080 On ch=9 n=67 v=111
679190 Off ch=9 n=67 v=111
679200 On ch=9 n=71 v=107
679310 Off ch=9 n=71 v=107
679320 On ch=9 n=76 v=108
679400 Off ch=9 n=52 v=127
679400 Off ch=9 n=64 v=111
679440 Off ch=9 n=76 v=108
679440 On ch=9 n=50 v=127
679560 On ch=9 n=62 v=116
679670 Off ch=9 n=62 v=116
679670 On ch=9 n=66 v=107
679780 Off ch=9 n=66 v=107
679780 On ch=9 n=69 v=108
679890 Off ch=9 n=69 v=108
679920 On ch=9 n=74 v=116
680030 Off ch=9 n=74 v=116
680040 On ch=9 n=69 v=111
680140 Off ch=9 n=69 v=111
680160 On ch=9 n=74 v=106
680270 Off ch=9 n=74 v=106
680280 On ch=9 n=78 v=109
680390 Off ch=9 n=78 v=109
680410 On ch=9 n=81 v=107
680520 Off ch=9 n=81 v=107
680520 On ch=9 n=74 v=119
680630 Off ch=9 n=74 v=119
680640 On ch=9 n=78 v=111
680760 Off ch=9 n=78 v=111
680760 On ch=9 n=81 v=116
680860 Off ch=9 n=81 v=116
680880 On ch=9 n=86 v=115
681000 Off ch=9 n=86 v=115
681000 On ch=9 n=81 v=103
681110 Off ch=9 n=81 v=103
681120 On ch=9 n=78 v=106
681230 Off ch=9 n=78 v=106
681240 On ch=9 n=74 v=111
681340 Off ch=9 n=74 v=111
681350 On ch=9 n=69 v=114
681460 Off ch=9 n=69 v=114
681480 On ch=9 n=66 v=108
681590 Off ch=9 n=66 v=108
681600 On ch=9 n=62 v=120
681710 Off ch=9 n=62 v=120
681720 On ch=9 n=66 v=105
681820 Off ch=9 n=66 v=105
681850 On ch=9 n=69 v=114
681950 Off ch=9 n=69 v=114
681960 On ch=9 n=62 v=120
682060 Off ch=9 n=62 v=120
682080 On ch=9 n=66 v=102
682180 Off ch=9 n=66 v=102
682200 On ch=9 n=69 v=117
682310 Off ch=9 n=69 v=117
682310 On ch=9 n=74 v=119
682410 Off ch=9 n=74 v=119
682440 On ch=9 n=66 v=111
682550 Off ch=9 n=66 v=111
682560 On ch=9 n=69 v=106
682670 Off ch=9 n=69 v=106
682680 On ch=9 n=74 v=110
682790 Off ch=9 n=74 v=110
682800 On ch=9 n=78 v=116
682920 Off ch=9 n=78 v=116
682920 On ch=9 n=74 v=121
683030 Off ch=9 n=74 v=121
683040 On ch=9 n=78 v=104
683150 Off ch=9 n=78 v=104
683150 On ch=9 n=81 v=108
683390 Off ch=9 n=81 v=108
683400 On ch=9 n=81 v=98
683510 Off ch=9 n=81 v=98
683530 On ch=9 n=78 v=109
683640 Off ch=9 n=78 v=109
683640 On ch=9 n=74 v=109
683750 Off ch=9 n=74 v=109
683760 On ch=9 n=69 v=115
683870 Off ch=9 n=69 v=115
683880 On ch=9 n=66 v=116
683990 Off ch=9 n=66 v=116
684000 On ch=9 n=62 v=120
684110 Off ch=9 n=62 v=120
684120 On ch=9 n=74 v=106
684230 Off ch=9 n=74 v=106
684240 On ch=9 n=69 v=107
684340 Off ch=9 n=69 v=107
684350 On ch=9 n=66 v=108
684460 Off ch=9 n=66 v=108
684480 On ch=9 n=62 v=120
684590 On ch=9 n=69 v=102
684600 Off ch=9 n=62 v=120
684700 Off ch=9 n=69 v=102
684720 On ch=9 n=66 v=112
684830 Off ch=9 n=66 v=112
684840 On ch=9 n=62 v=111
684950 Off ch=9 n=62 v=111
684950 On ch=9 n=57 v=111
685060 Off ch=9 n=57 v=111
685080 On ch=9 n=54 v=118
685140 Off ch=9 n=50 v=127
685200 Off ch=9 n=54 v=118
685200 On ch=9 n=52 v=127
685200 On ch=9 n=67 v=116
685310 Off ch=9 n=67 v=116
685320 On ch=9 n=59 v=115
685420 Off ch=9 n=59 v=115
685440 On ch=9 n=64 v=105
685550 Off ch=9 n=64 v=105
685560 On ch=9 n=67 v=111
685670 Off ch=9 n=67 v=111
685680 On ch=9 n=71 v=114
685790 Off ch=9 n=71 v=114
685800 On ch=9 n=64 v=111
685900 Off ch=9 n=64 v=111
685920 On ch=9 n=67 v=111
686040 Off ch=9 n=67 v=111
686040 On ch=9 n=71 v=113
686150 Off ch=9 n=71 v=113
686160 On ch=9 n=76 v=103
686270 Off ch=9 n=76 v=103
686270 On ch=9 n=67 v=111
686370 Off ch=9 n=67 v=111
686400 On ch=9 n=71 v=107
686500 Off ch=9 n=71 v=107
686520 On ch=9 n=76 v=109
686630 Off ch=9 n=76 v=109
686630 On ch=9 n=79 v=115
686740 Off ch=9 n=79 v=115
686760 On ch=9 n=67 v=116
686860 On ch=9 n=71 v=105
686870 Off ch=9 n=67 v=116
686960 Off ch=9 n=71 v=105
687000 On ch=9 n=76 v=111
687110 Off ch=9 n=76 v=111
687120 On ch=9 n=79 v=111
687230 Off ch=9 n=79 v=111
687250 On ch=9 n=67 v=116
687350 Off ch=9 n=67 v=116
687360 On ch=9 n=71 v=108
687460 Off ch=9 n=71 v=108
687480 On ch=9 n=76 v=111
687590 Off ch=9 n=76 v=111
687600 On ch=9 n=79 v=116
687710 Off ch=9 n=79 v=116
687710 On ch=9 n=67 v=106
687820 Off ch=9 n=67 v=106
687840 On ch=9 n=71 v=108
687960 Off ch=9 n=71 v=108
687970 On ch=9 n=76 v=115
688080 Off ch=9 n=52 v=127
688080 Off ch=9 n=76 v=115
689510 On ch=9 n=45 v=127
689510 On ch=9 n=72 v=118
689520 On ch=9 n=57 v=123
689520 On ch=9 n=69 v=119
689530 On ch=9 n=64 v=116
690880 Off ch=9 n=72 v=118
690940 Off ch=9 n=45 v=127
690950 Off ch=9 n=57 v=123
690950 Off ch=9 n=69 v=119
690950 On ch=9 n=57 v=125
690960 Off ch=9 n=64 v=116
690960 On ch=9 n=66 v=120
690960 On ch=9 n=45 v=120
690960 On ch=9 n=69 v=122
690960 On ch=9 n=73 v=116
692300 Off ch=9 n=73 v=116
692330 Off ch=9 n=45 v=120
692330 Off ch=9 n=69 v=122
692340 Off ch=9 n=66 v=120
692380 Off ch=9 n=57 v=125
692400 On ch=9 n=73 v=124
692400 On ch=9 n=66 v=118
692400 On ch=9 n=69 v=123
692400 On ch=9 n=45 v=125
692410 On ch=9 n=57 v=117
693770 Off ch=9 n=45 v=125
693810 Off ch=9 n=69 v=123
693820 Off ch=9 n=57 v=117
693830 Off ch=9 n=73 v=124
693830 Off ch=9 n=66 v=118
693830 On ch=9 n=45 v=125
693840 On ch=9 n=74 v=123
693840 On ch=9 n=67 v=124
693840 On ch=9 n=71 v=121
693840 On ch=9 n=57 v=119
694050 Off ch=9 n=57 v=119
694050 Off ch=9 n=45 v=125
694070 Off ch=9 n=67 v=124
694070 Off ch=9 n=71 v=121
694070 On ch=9 n=67 v=118
694080 Off ch=9 n=74 v=123
694080 On ch=9 n=71 v=121
694080 On ch=9 n=57 v=121
694080 On ch=9 n=74 v=118
694080 On ch=9 n=45 v=126
694290 Off ch=9 n=67 v=118
694300 Off ch=9 n=74 v=118
694300 Off ch=9 n=45 v=126
694310 Off ch=9 n=71 v=121
694310 Off ch=9 n=57 v=121
694310 On ch=9 n=45 v=111
694320 On ch=9 n=74 v=111
694320 On ch=9 n=71 v=121
694320 On ch=9 n=57 v=111
694320 On ch=9 n=67 v=113
694520 Off ch=9 n=57 v=111
694520 Off ch=9 n=67 v=113
694530 Off ch=9 n=45 v=111
694550 Off ch=9 n=71 v=121
694550 On ch=9 n=67 v=118
694560 Off ch=9 n=74 v=111
694560 On ch=9 n=71 v=111
694560 On ch=9 n=45 v=126
694560 On ch=9 n=74 v=111
694570 On ch=9 n=57 v=127
694760 Off ch=9 n=74 v=111
694770 Off ch=9 n=57 v=127
694770 Off ch=9 n=67 v=118
694780 Off ch=9 n=45 v=126
694790 Off ch=9 n=71 v=111
694790 On ch=9 n=74 v=123
694790 On ch=9 n=45 v=125
694800 On ch=9 n=67 v=124
694800 On ch=9 n=71 v=121
694800 On ch=9 n=57 v=119
694990 Off ch=9 n=74 v=123
694990 Off ch=9 n=45 v=125
695010 Off ch=9 n=57 v=119
695030 Off ch=9 n=67 v=124
695030 Off ch=9 n=71 v=121
695030 On ch=9 n=45 v=127
695030 On ch=9 n=67 v=118
695040 On ch=9 n=71 v=121
695040 On ch=9 n=74 v=118
695040 On ch=9 n=57 v=124
695240 Off ch=9 n=57 v=124
695250 Off ch=9 n=45 v=127
695250 Off ch=9 n=67 v=118
695260 Off ch=9 n=74 v=118
695270 Off ch=9 n=71 v=121
695270 On ch=9 n=45 v=125
695280 On ch=9 n=74 v=123
695280 On ch=9 n=67 v=124
695280 On ch=9 n=71 v=121
695280 On ch=9 n=57 v=119
695490 Off ch=9 n=57 v=119
695490 Off ch=9 n=45 v=125
695510 Off ch=9 n=67 v=124
695510 Off ch=9 n=71 v=121
695510 On ch=9 n=67 v=118
695510 On ch=9 n=57 v=121
695510 On ch=9 n=71 v=111
695520 Off ch=9 n=74 v=123
695520 On ch=9 n=74 v=95
695520 On ch=9 n=45 v=111
695710 Off ch=9 n=57 v=121
695710 Off ch=9 n=71 v=111
695730 Off ch=9 n=67 v=118
695740 Off ch=9 n=74 v=95
695740 Off ch=9 n=45 v=111
695750 On ch=9 n=74 v=123
695750 On ch=9 n=45 v=125
695760 On ch=9 n=67 v=111
695760 On ch=9 n=71 v=121
695770 On ch=9 n=57 v=119
695910 Off ch=9 n=45 v=125
695970 Off ch=9 n=57 v=119
695990 Off ch=9 n=67 v=111
695990 Off ch=9 n=71 v=121
695990 Off ch=9 n=74 v=123
695990 On ch=9 n=67 v=118
696000 On ch=9 n=71 v=121
696000 On ch=9 n=57 v=121
696000 On ch=9 n=74 v=118
696000 On ch=9 n=45 v=126
696210 Off ch=9 n=67 v=118
696220 Off ch=9 n=74 v=118
696220 Off ch=9 n=45 v=126
696230 Off ch=9 n=71 v=121
696230 Off ch=9 n=57 v=121
696240 On ch=9 n=67 v=111
696240 On ch=9 n=45 v=125
696240 On ch=9 n=57 v=111
696240 On ch=9 n=71 v=111
696240 On ch=9 n=74 v=95
696400 Off ch=9 n=74 v=95
696440 Off ch=9 n=57 v=111
696440 Off ch=9 n=71 v=111
696460 Off ch=9 n=45 v=125
696470 Off ch=9 n=67 v=111
696470 On ch=9 n=67 v=118
696480 On ch=9 n=71 v=111
696480 On ch=9 n=74 v=118
696480 On ch=9 n=45 v=126
696490 On ch=9 n=57 v=121
696680 Off ch=9 n=74 v=118
696680 Off ch=9 n=45 v=126
696690 Off ch=9 n=57 v=121
696690 Off ch=9 n=67 v=118
696710 Off ch=9 n=71 v=111
696710 On ch=9 n=45 v=125
696720 On ch=9 n=74 v=123
696720 On ch=9 n=57 v=119
696720 On ch=9 n=66 v=115
696720 On ch=9 n=69 v=111
696920 Off ch=9 n=66 v=115
696920 Off ch=9 n=69 v=111
696930 Off ch=9 n=57 v=119
696930 Off ch=9 n=45 v=125
696960 Off ch=9 n=74 v=123
696960 On ch=9 n=57 v=121
696960 On ch=9 n=74 v=118
696960 On ch=9 n=45 v=126
696960 On ch=9 n=66 v=111
696970 On ch=9 n=69 v=111
697160 Off ch=9 n=66 v=111
697170 Off ch=9 n=69 v=111
697180 Off ch=9 n=74 v=118
697180 Off ch=9 n=45 v=126
697190 Off ch=9 n=57 v=121
697190 On ch=9 n=45 v=111
697190 On ch=9 n=66 v=111
697200 On ch=9 n=74 v=111
697200 On ch=9 n=69 v=115
697200 On ch=9 n=57 v=111
697390 Off ch=9 n=66 v=111
697400 Off ch=9 n=69 v=115
697400 Off ch=9 n=57 v=111
697410 Off ch=9 n=45 v=111
697440 Off ch=9 n=74 v=111
697440 On ch=9 n=69 v=111
697440 On ch=9 n=45 v=126
697440 On ch=9 n=66 v=127
697440 On ch=9 n=74 v=111
697450 On ch=9 n=57 v=127
697640 Off ch=9 n=66 v=127
697640 Off ch=9 n=74 v=111
697650 Off ch=9 n=57 v=127
697660 Off ch=9 n=69 v=111
697660 Off ch=9 n=45 v=126
697670 On ch=9 n=74 v=123
697670 On ch=9 n=45 v=125
697680 On ch=9 n=57 v=119
697680 On ch=9 n=69 v=111
697680 On ch=9 n=66 v=111
697870 Off ch=9 n=74 v=123
697870 Off ch=9 n=45 v=125
697880 Off ch=9 n=69 v=111
697880 Off ch=9 n=66 v=111
697890 Off ch=9 n=57 v=119
697910 On ch=9 n=45 v=127
697920 On ch=9 n=74 v=118
697920 On ch=9 n=66 v=111
697920 On ch=9 n=57 v=124
697920 On ch=9 n=69 v=111
698080 Off ch=9 n=69 v=111
698120 Off ch=9 n=66 v=111
698120 Off ch=9 n=57 v=124
698130 Off ch=9 n=45 v=127
698140 Off ch=9 n=74 v=118
698150 On ch=9 n=45 v=125
698160 On ch=9 n=74 v=123
698160 On ch=9 n=57 v=119
698160 On ch=9 n=69 v=127
698160 On ch=9 n=66 v=95
698320 Off ch=9 n=66 v=95
698360 Off ch=9 n=69 v=127
698370 Off ch=9 n=57 v=119
698370 Off ch=9 n=45 v=125
698390 On ch=9 n=66 v=111
698390 On ch=9 n=57 v=121
698400 Off ch=9 n=74 v=123
698400 On ch=9 n=74 v=95
698400 On ch=9 n=45 v=111
698400 On ch=9 n=69 v=111
698590 Off ch=9 n=66 v=111
698590 Off ch=9 n=57 v=121
698600 Off ch=9 n=69 v=111
698620 Off ch=9 n=74 v=95
698620 Off ch=9 n=45 v=111
698630 On ch=9 n=74 v=123
698630 On ch=9 n=45 v=125
698640 On ch=9 n=66 v=127
698640 On ch=9 n=69 v=95
698650 On ch=9 n=57 v=119
698790 Off ch=9 n=45 v=125
698800 Off ch=9 n=69 v=95
698840 Off ch=9 n=66 v=127
698850 Off ch=9 n=57 v=119
698870 Off ch=9 n=74 v=123
698870 On ch=9 n=66 v=111
698880 On ch=9 n=57 v=121
698880 On ch=9 n=74 v=118
698880 On ch=9 n=45 v=126
698880 On ch=9 n=69 v=111
699040 Off ch=9 n=69 v=111
699070 Off ch=9 n=66 v=111
699100 Off ch=9 n=74 v=118
699100 Off ch=9 n=45 v=126
699110 Off ch=9 n=57 v=121
699120 On ch=9 n=66 v=111
699120 On ch=9 n=45 v=125
699120 On ch=9 n=69 v=127
699120 On ch=9 n=57 v=111
699120 On ch=9 n=74 v=95
699280 Off ch=9 n=74 v=95
699320 Off ch=9 n=69 v=127
699320 Off ch=9 n=57 v=111
699340 Off ch=9 n=66 v=111
699340 Off ch=9 n=45 v=125
699350 On ch=9 n=66 v=111
699360 On ch=9 n=74 v=118
699360 On ch=9 n=45 v=126
699370 On ch=9 n=69 v=111
699370 On ch=9 n=57 v=121
699550 Off ch=9 n=66 v=111
699560 Off ch=9 n=74 v=118
699560 Off ch=9 n=45 v=126
699570 Off ch=9 n=69 v=111
699570 Off ch=9 n=57 v=121
699590 On ch=9 n=45 v=125
699600 On ch=9 n=74 v=123
699600 On ch=9 n=57 v=119
699600 On ch=9 n=66 v=115
699600 On ch=9 n=69 v=111
699800 Off ch=9 n=66 v=115
699800 Off ch=9 n=69 v=111
699810 Off ch=9 n=45 v=125
699810 Off ch=9 n=57 v=119
699840 Off ch=9 n=74 v=123
699840 On ch=9 n=57 v=121
699840 On ch=9 n=45 v=126
699840 On ch=9 n=66 v=111
699840 On ch=9 n=74 v=114
699850 On ch=9 n=69 v=111
700000 Off ch=9 n=74 v=114
700040 Off ch=9 n=66 v=111
700050 Off ch=9 n=69 v=111
700060 Off ch=9 n=45 v=126
700070 Off ch=9 n=57 v=121
700070 On ch=9 n=45 v=111
700070 On ch=9 n=66 v=113
700080 On ch=9 n=74 v=109
700080 On ch=9 n=69 v=115
700080 On ch=9 n=57 v=111
700270 Off ch=9 n=66 v=113
700280 Off ch=9 n=69 v=115
700280 Off ch=9 n=57 v=111
700290 Off ch=9 n=45 v=111
700320 Off ch=9 n=74 v=109
700320 On ch=9 n=69 v=111
700320 On ch=9 n=45 v=111
700320 On ch=9 n=66 v=111
700320 On ch=9 n=74 v=111
700330 On ch=9 n=57 v=111
700520 Off ch=9 n=66 v=111
700520 Off ch=9 n=74 v=111
700530 Off ch=9 n=57 v=111
700540 Off ch=9 n=69 v=111
700540 Off ch=9 n=45 v=111
700560 On ch=9 n=57 v=119
700560 On ch=9 n=69 v=111
700560 On ch=9 n=66 v=111
700560 On ch=9 n=74 v=111
700560 On ch=9 n=45 v=111
700720 Off ch=9 n=45 v=111
700760 Off ch=9 n=69 v=111
700760 Off ch=9 n=66 v=111
700760 Off ch=9 n=74 v=111
700770 Off ch=9 n=57 v=119
700790 On ch=9 n=45 v=127
700800 On ch=9 n=74 v=118
700800 On ch=9 n=57 v=124
700800 On ch=9 n=69 v=111
700800 On ch=9 n=66 v=111
700960 Off ch=9 n=69 v=111
700960 Off ch=9 n=66 v=111
701000 Off ch=9 n=57 v=124
701010 Off ch=9 n=45 v=127
701020 Off ch=9 n=74 v=118
701030 On ch=9 n=45 v=95
701040 On ch=9 n=74 v=95
701040 On ch=9 n=57 v=95
701040 On ch=9 n=69 v=95
701040 On ch=9 n=66 v=95
701200 Off ch=9 n=66 v=95
701240 Off ch=9 n=69 v=95
701250 Off ch=9 n=57 v=95
701250 Off ch=9 n=45 v=95
701270 On ch=9 n=66 v=95
701270 On ch=9 n=57 v=95
701280 Off ch=9 n=74 v=95
701280 On ch=9 n=74 v=95
701280 On ch=9 n=45 v=95
701280 On ch=9 n=69 v=95
701470 Off ch=9 n=66 v=95
701470 Off ch=9 n=57 v=95
701480 Off ch=9 n=69 v=95
701500 Off ch=9 n=74 v=95
701500 Off ch=9 n=45 v=95
701510 On ch=9 n=74 v=123
701520 On ch=9 n=66 v=127
701520 On ch=9 n=69 v=95
701520 On ch=9 n=45 v=111
701530 On ch=9 n=57 v=119
701680 Off ch=9 n=69 v=95
701680 Off ch=9 n=45 v=111
701720 Off ch=9 n=66 v=127
701730 Off ch=9 n=57 v=119
701750 Off ch=9 n=74 v=123
701750 On ch=9 n=57 v=111
701750 On ch=9 n=66 v=111
701760 On ch=9 n=74 v=118
701760 On ch=9 n=45 v=126
701760 On ch=9 n=69 v=111
701920 Off ch=9 n=69 v=111
701950 Off ch=9 n=66 v=111
701980 Off ch=9 n=74 v=118
701980 Off ch=9 n=45 v=126
701980 Off ch=9 n=57 v=111
702000 On ch=9 n=66 v=111
702000 On ch=9 n=45 v=125
702000 On ch=9 n=69 v=127
702000 On ch=9 n=57 v=111
702000 On ch=9 n=74 v=95
702160 Off ch=9 n=74 v=95
702200 Off ch=9 n=69 v=127
702200 Off ch=9 n=57 v=111
702220 Off ch=9 n=66 v=111
702220 Off ch=9 n=45 v=125
702230 On ch=9 n=66 v=111
702240 On ch=9 n=74 v=118
702240 On ch=9 n=45 v=126
702250 On ch=9 n=69 v=111
702250 On ch=9 n=57 v=121
702430 Off ch=9 n=66 v=111
702440 Off ch=9 n=74 v=118
702440 Off ch=9 n=45 v=126
702450 Off ch=9 n=69 v=111
702450 Off ch=9 n=57 v=121
702480 On ch=9 n=86 v=111
702480 On ch=9 n=83 v=111
702480 On ch=9 n=79 v=111
703890 Off ch=9 n=79 v=111
703920 On ch=9 n=78 v=111
705330 Off ch=9 n=83 v=111
705330 Off ch=9 n=78 v=111
705360 Off ch=9 n=86 v=111
705360 On ch=9 n=63 v=97
705598 Off ch=9 n=63 v=97
706080 Par ch=9 c=99 v=1
706080 Par ch=9 c=98 v=33
706080 Par ch=9 c=6 v=80
706080 Par ch=9 c=38 v=0
706200 Par ch=9 c=99 v=1
706200 Par ch=9 c=98 v=32
706200 Par ch=9 c=6 v=50
706200 Par ch=9 c=38 v=0
706790 Par ch=9 c=0 v=0
706790 Par ch=9 c=32 v=0
706790 PrCh ch=9 p=48
706800 KeySig 2 major
706800 On ch=9 n=84 v=111
706800 On ch=9 n=79 v=111
706800 On ch=9 n=77 v=111
708240 Off ch=9 n=84 v=111
708240 Off ch=9 n=79 v=111
708240 Off ch=9 n=77 v=111
708240 On ch=9 n=87 v=111
708240 On ch=9 n=82 v=111
708240 On ch=9 n=80 v=111
709680 Off ch=9 n=87 v=111
709680 Off ch=9 n=82 v=111
709680 Off ch=9 n=80 v=111
709680 On ch=9 n=90 v=111
709680 On ch=9 n=83 v=111
709680 On ch=9 n=85 v=111
711120 Off ch=9 n=90 v=111
711120 Off ch=9 n=83 v=111
711120 Off ch=9 n=85 v=111
711120 On ch=9 n=92 v=111
711120 On ch=9 n=85 v=111
711120 On ch=9 n=87 v=111
712560 Off ch=9 n=92 v=111
712560 Off ch=9 n=85 v=111
712560 Off ch=9 n=87 v=111
712575 On ch=9 n=94 v=119
712582 On ch=9 n=89 v=106
712601 On ch=9 n=87 v=127
721139 Off ch=9 n=94 v=119
721145 Off ch=9 n=87 v=127
721160 Off ch=9 n=89 v=106
722160 Meta TrkEnd
TrkEnd
MTrk
0 Meta TrkName "Drums"
0 Meta 0x20 09
0 Meta InstrName "Drums"
0 KeySig 0 major
885 PrCh ch=10 p=8
890 Par ch=10 c=7 v=100
895 Par ch=10 c=10 v=64
900 Par ch=10 c=91 v=40
905 Par ch=10 c=93 v=0
910 Par ch=10 c=101 v=0
910 Par ch=10 c=100 v=0
910 Par ch=10 c=6 v=2
915 Par ch=10 c=99 v=1
915 Par ch=10 c=98 v=8
915 Par ch=10 c=6 v=64
920 Par ch=10 c=99 v=1
920 Par ch=10 c=98 v=9
920 Par ch=10 c=6 v=64
925 Par ch=10 c=99 v=1
925 Par ch=10 c=98 v=10
925 Par ch=10 c=6 v=64
930 Par ch=10 c=99 v=1
930 Par ch=10 c=98 v=32
930 Par ch=10 c=6 v=64
935 Par ch=10 c=99 v=1
935 Par ch=10 c=98 v=33
935 Par ch=10 c=6 v=64
940 Par ch=10 c=99 v=1
940 Par ch=10 c=98 v=99
940 Par ch=10 c=6 v=64
945 Par ch=10 c=99 v=1
945 Par ch=10 c=98 v=100
945 Par ch=10 c=6 v=64
950 Par ch=10 c=99 v=1
950 Par ch=10 c=98 v=102
950 Par ch=10 c=6 v=64
955 Par ch=10 c=99 v=24
955 Par ch=10 c=98 v=38
955 Par ch=10 c=6 v=67
960 Par ch=10 c=99 v=28
960 Par ch=10 c=98 v=40
960 Par ch=10 c=6 v=64
965 Par ch=10 c=99 v=29
965 Par ch=10 c=98 v=50
965 Par ch=10 c=6 v=30
1920 On ch=10 n=42 v=92
1920 On ch=10 n=36 v=92
1920 On ch=10 n=40 v=92
1930 Off ch=10 n=42 v=92
1930 Off ch=10 n=36 v=92
1930 Off ch=10 n=40 v=92
2040 On ch=10 n=40 v=50
2040 On ch=10 n=42 v=50
2050 Off ch=10 n=40 v=50
2050 Off ch=10 n=42 v=50
2160 On ch=10 n=42 v=50
2170 Off ch=10 n=42 v=50
2280 On ch=10 n=40 v=50
2290 Off ch=10 n=40 v=50
2400 On ch=10 n=42 v=50
2400 On ch=10 n=40 v=92
2410 Off ch=10 n=42 v=50
2410 Off ch=10 n=40 v=92
2520 On ch=10 n=40 v=78
2530 Off ch=10 n=40 v=78
2640 On ch=10 n=36 v=92
2640 On ch=10 n=40 v=92
2640 On ch=10 n=42 v=92
2650 Off ch=10 n=36 v=92
2650 Off ch=10 n=40 v=92
2650 Off ch=10 n=42 v=92
2760 On ch=10 n=40 v=50
2760 On ch=10 n=42 v=50
2770 Off ch=10 n=40 v=50
2770 Off ch=10 n=42 v=50
2880 On ch=10 n=42 v=50
2890 Off ch=10 n=42 v=50
3000 On ch=10 n=40 v=50
3010 Off ch=10 n=40 v=50
3120 On ch=10 n=42 v=50
3120 On ch=10 n=40 v=92
3130 Off ch=10 n=42 v=50
3130 Off ch=10 n=40 v=92
3240 On ch=10 n=40 v=78
3250 Off ch=10 n=40 v=78
3360 On ch=10 n=40 v=106
3370 Off ch=10 n=40 v=106
3480 On ch=10 n=40 v=64
3490 Off ch=10 n=40 v=64
3600 On ch=10 n=40 v=78
3610 Off ch=10 n=40 v=78
3720 On ch=10 n=40 v=78
3730 Off ch=10 n=40 v=78
3840 On ch=10 n=40 v=106
3850 Off ch=10 n=40 v=106
3930 On ch=10 n=40 v=92
3940 Off ch=10 n=40 v=92
4020 On ch=10 n=40 v=64
4030 Off ch=10 n=40 v=64
4110 On ch=10 n=40 v=106
4120 Off ch=10 n=40 v=106
4200 On ch=10 n=40 v=78
4210 Off ch=10 n=40 v=78
4320 On ch=10 n=40 v=106
4330 Off ch=10 n=40 v=106
4560 On ch=10 n=40 v=106
4570 Off ch=10 n=40 v=106
8400 On ch=10 n=36 v=92
8400 On ch=10 n=40 v=92
8400 On ch=10 n=42 v=92
8410 Off ch=10 n=36 v=92
8410 Off ch=10 n=40 v=92
8410 Off ch=10 n=42 v=92
8520 On ch=10 n=40 v=50
8520 On ch=10 n=42 v=50
8530 Off ch=10 n=40 v=50
8530 Off ch=10 n=42 v=50
8640 On ch=10 n=42 v=50
8650 Off ch=10 n=42 v=50
8760 On ch=10 n=40 v=50
8770 Off ch=10 n=40 v=50
8880 On ch=10 n=42 v=50
8880 On ch=10 n=40 v=92
8890 Off ch=10 n=42 v=50
8890 Off ch=10 n=40 v=92
9000 On ch=10 n=40 v=78
9010 Off ch=10 n=40 v=78
9120 On ch=10 n=36 v=92
9120 On ch=10 n=40 v=92
9120 On ch=10 n=42 v=92
9130 Off ch=10 n=36 v=92
9130 Off ch=10 n=40 v=92
9130 Off ch=10 n=42 v=92
9240 On ch=10 n=40 v=50
9240 On ch=10 n=42 v=50
9250 Off ch=10 n=40 v=50
9250 Off ch=10 n=42 v=50
9360 On ch=10 n=42 v=50
9370 Off ch=10 n=42 v=50
9480 On ch=10 n=40 v=50
9490 Off ch=10 n=40 v=50
9600 On ch=10 n=42 v=50
9600 On ch=10 n=40 v=92
9610 Off ch=10 n=42 v=50
9610 Off ch=10 n=40 v=92
9720 On ch=10 n=40 v=78
9730 Off ch=10 n=40 v=78
9840 On ch=10 n=40 v=106
9850 Off ch=10 n=40 v=106
9960 On ch=10 n=40 v=64
9970 Off ch=10 n=40 v=64
10080 On ch=10 n=40 v=78
10090 Off ch=10 n=40 v=78
10200 On ch=10 n=40 v=78
10210 Off ch=10 n=40 v=78
10320 On ch=10 n=40 v=106
10330 Off ch=10 n=40 v=106
10410 On ch=10 n=40 v=92
10420 Off ch=10 n=40 v=92
10500 On ch=10 n=40 v=64
10510 Off ch=10 n=40 v=64
10590 On ch=10 n=40 v=106
10600 Off ch=10 n=40 v=106
10680 On ch=10 n=40 v=78
10690 Off ch=10 n=40 v=78
10800 On ch=10 n=40 v=106
10810 Off ch=10 n=40 v=106
11040 On ch=10 n=40 v=106
11050 Off ch=10 n=40 v=106
14880 On ch=10 n=51 v=92
14880 On ch=10 n=36 v=92
14890 Off ch=10 n=51 v=92
14890 Off ch=10 n=36 v=92
15000 On ch=10 n=40 v=92
15010 Off ch=10 n=40 v=92
15120 On ch=10 n=40 v=64
15130 Off ch=10 n=40 v=64
15240 On ch=10 n=51 v=50
15250 Off ch=10 n=51 v=50
15360 On ch=10 n=40 v=92
15370 Off ch=10 n=40 v=92
15480 On ch=10 n=40 v=64
15490 Off ch=10 n=40 v=64
15600 On ch=10 n=51 v=92
15600 On ch=10 n=36 v=92
15610 Off ch=10 n=51 v=92
15610 Off ch=10 n=36 v=92
15720 On ch=10 n=40 v=92
15730 Off ch=10 n=40 v=92
15840 On ch=10 n=40 v=64
15850 Off ch=10 n=40 v=64
15960 On ch=10 n=51 v=50
15970 Off ch=10 n=51 v=50
16080 On ch=10 n=40 v=78
16090 Off ch=10 n=40 v=78
16200 On ch=10 n=40 v=50
16210 Off ch=10 n=40 v=50
16320 On ch=10 n=51 v=92
16320 On ch=10 n=36 v=92
16330 Off ch=10 n=51 v=92
16330 Off ch=10 n=36 v=92
16440 On ch=10 n=40 v=92
16450 Off ch=10 n=40 v=92
16560 On ch=10 n=51 v=64
16570 Off ch=10 n=51 v=64
16680 On ch=10 n=40 v=64
16690 Off ch=10 n=40 v=64
16800 On ch=10 n=51 v=92
16800 On ch=10 n=36 v=78
16810 Off ch=10 n=51 v=92
16810 Off ch=10 n=36 v=78
16920 On ch=10 n=40 v=92
16930 Off ch=10 n=40 v=92
17040 On ch=10 n=51 v=64
17050 Off ch=10 n=51 v=64
17160 On ch=10 n=40 v=64
17170 Off ch=10 n=40 v=64
17280 On ch=10 n=51 v=92
17280 On ch=10 n=36 v=78
17290 Off ch=10 n=51 v=92
17290 Off ch=10 n=36 v=78
17400 On ch=10 n=40 v=92
17410 Off ch=10 n=40 v=92
17520 On ch=10 n=51 v=64
17530 Off ch=10 n=51 v=64
17640 On ch=10 n=40 v=64
17650 Off ch=10 n=40 v=64
17760 On ch=10 n=51 v=92
17760 On ch=10 n=36 v=92
17770 Off ch=10 n=51 v=92
17770 Off ch=10 n=36 v=92
17880 On ch=10 n=40 v=92
17890 Off ch=10 n=40 v=92
18000 On ch=10 n=40 v=64
18010 Off ch=10 n=40 v=64
18120 On ch=10 n=51 v=50
18130 Off ch=10 n=51 v=50
18240 On ch=10 n=40 v=92
18250 Off ch=10 n=40 v=92
18360 On ch=10 n=40 v=64
18370 Off ch=10 n=40 v=64
18480 On ch=10 n=51 v=92
18480 On ch=10 n=36 v=92
18490 Off ch=10 n=51 v=92
18490 Off ch=10 n=36 v=92
18600 On ch=10 n=40 v=92
18610 Off ch=10 n=40 v=92
18720 On ch=10 n=40 v=64
18730 Off ch=10 n=40 v=64
18840 On ch=10 n=51 v=50
18850 Off ch=10 n=51 v=50
18960 On ch=10 n=40 v=78
18970 Off ch=10 n=40 v=78
19080 On ch=10 n=40 v=50
19090 Off ch=10 n=40 v=50
19200 On ch=10 n=51 v=92
19200 On ch=10 n=36 v=92
19210 Off ch=10 n=51 v=92
19210 Off ch=10 n=36 v=92
19320 On ch=10 n=40 v=92
19330 Off ch=10 n=40 v=92
19440 On ch=10 n=51 v=64
19450 Off ch=10 n=51 v=64
19560 On ch=10 n=40 v=64
19570 Off ch=10 n=40 v=64
19680 On ch=10 n=51 v=92
19680 On ch=10 n=36 v=78
19690 Off ch=10 n=51 v=92
19690 Off ch=10 n=36 v=78
19800 On ch=10 n=40 v=92
19810 Off ch=10 n=40 v=92
19920 On ch=10 n=51 v=64
19930 Off ch=10 n=51 v=64
20040 On ch=10 n=40 v=64
20050 Off ch=10 n=40 v=64
20160 On ch=10 n=51 v=92
20160 On ch=10 n=36 v=78
20170 Off ch=10 n=51 v=92
20170 Off ch=10 n=36 v=78
20280 On ch=10 n=40 v=92
20290 Off ch=10 n=40 v=92
20400 On ch=10 n=51 v=64
20410 Off ch=10 n=51 v=64
20520 On ch=10 n=40 v=64
20530 Off ch=10 n=40 v=64
20640 On ch=10 n=51 v=92
20640 On ch=10 n=36 v=92
20650 Off ch=10 n=51 v=92
20650 Off ch=10 n=36 v=92
20760 On ch=10 n=40 v=92
20770 Off ch=10 n=40 v=92
20880 On ch=10 n=40 v=64
20890 Off ch=10 n=40 v=64
21000 On ch=10 n=51 v=50
21010 Off ch=10 n=51 v=50
21120 On ch=10 n=40 v=92
21130 Off ch=10 n=40 v=92
21240 On ch=10 n=40 v=64
21250 Off ch=10 n=40 v=64
21360 On ch=10 n=51 v=92
21360 On ch=10 n=36 v=92
21370 Off ch=10 n=51 v=92
21370 Off ch=10 n=36 v=92
21480 On ch=10 n=40 v=92
21490 Off ch=10 n=40 v=92
21600 On ch=10 n=40 v=64
21610 Off ch=10 n=40 v=64
21720 On ch=10 n=51 v=50
21730 Off ch=10 n=51 v=50
21840 On ch=10 n=40 v=78
21850 Off ch=10 n=40 v=78
21960 On ch=10 n=40 v=50
21970 Off ch=10 n=40 v=50
22080 On ch=10 n=51 v=92
22080 On ch=10 n=36 v=92
22090 Off ch=10 n=51 v=92
22090 Off ch=10 n=36 v=92
22200 On ch=10 n=40 v=92
22210 Off ch=10 n=40 v=92
22320 On ch=10 n=51 v=64
22330 Off ch=10 n=51 v=64
22440 On ch=10 n=40 v=64
22450 Off ch=10 n=40 v=64
22560 On ch=10 n=51 v=92
22560 On ch=10 n=36 v=78
22570 Off ch=10 n=51 v=92
22570 Off ch=10 n=36 v=78
22680 On ch=10 n=40 v=92
22690 Off ch=10 n=40 v=92
22800 On ch=10 n=51 v=64
22810 Off ch=10 n=51 v=64
22920 On ch=10 n=40 v=64
22930 Off ch=10 n=40 v=64
23040 On ch=10 n=51 v=92
23040 On ch=10 n=36 v=78
23050 Off ch=10 n=51 v=92
23050 Off ch=10 n=36 v=78
23160 On ch=10 n=40 v=92
23170 Off ch=10 n=40 v=92
23280 On ch=10 n=51 v=64
23290 Off ch=10 n=51 v=64
23400 On ch=10 n=40 v=64
23410 Off ch=10 n=40 v=64
23520 On ch=10 n=51 v=92
23520 On ch=10 n=36 v=92
23530 Off ch=10 n=51 v=92
23530 Off ch=10 n=36 v=92
23640 On ch=10 n=40 v=92
23650 Off ch=10 n=40 v=92
23760 On ch=10 n=40 v=64
23770 Off ch=10 n=40 v=64
23880 On ch=10 n=51 v=50
23890 Off ch=10 n=51 v=50
24000 On ch=10 n=40 v=92
24010 Off ch=10 n=40 v=92
24120 On ch=10 n=40 v=64
24130 Off ch=10 n=40 v=64
24240 On ch=10 n=51 v=92
24240 On ch=10 n=36 v=92
24250 Off ch=10 n=51 v=92
24250 Off ch=10 n=36 v=92
24360 On ch=10 n=40 v=92
24370 Off ch=10 n=40 v=92
24480 On ch=10 n=40 v=64
24490 Off ch=10 n=40 v=64
24600 On ch=10 n=51 v=50
24610 Off ch=10 n=51 v=50
24720 On ch=10 n=40 v=78
24730 Off ch=10 n=40 v=78
24840 On ch=10 n=40 v=50
24850 Off ch=10 n=40 v=50
24960 On ch=10 n=51 v=92
24960 On ch=10 n=36 v=92
24970 Off ch=10 n=51 v=92
24970 Off ch=10 n=36 v=92
25080 On ch=10 n=40 v=92
25090 Off ch=10 n=40 v=92
25200 On ch=10 n=51 v=64
25210 Off ch=10 n=51 v=64
25320 On ch=10 n=40 v=64
25330 Off ch=10 n=40 v=64
25440 On ch=10 n=51 v=92
25440 On ch=10 n=36 v=78
25450 Off ch=10 n=51 v=92
25450 Off ch=10 n=36 v=78
25560 On ch=10 n=40 v=92
25570 Off ch=10 n=40 v=92
25680 On ch=10 n=51 v=64
25690 Off ch=10 n=51 v=64
25800 On ch=10 n=40 v=64
25810 Off ch=10 n=40 v=64
25920 On ch=10 n=51 v=92
25920 On ch=10 n=36 v=78
25930 Off ch=10 n=51 v=92
25930 Off ch=10 n=36 v=78
26040 On ch=10 n=40 v=92
26050 Off ch=10 n=40 v=92
26160 On ch=10 n=51 v=64
26170 Off ch=10 n=51 v=64
26280 On ch=10 n=40 v=64
26290 Off ch=10 n=40 v=64
26400 On ch=10 n=49 v=36
26400 On ch=10 n=51 v=92
26400 On ch=10 n=36 v=78
26410 Off ch=10 n=49 v=36
26410 Off ch=10 n=51 v=92
26410 Off ch=10 n=36 v=78
26520 On ch=10 n=40 v=78
26530 Off ch=10 n=40 v=78
26760 On ch=10 n=40 v=50
26770 Off ch=10 n=40 v=50
26880 On ch=10 n=40 v=92
26890 Off ch=10 n=40 v=92
27000 On ch=10 n=40 v=50
27010 Off ch=10 n=40 v=50
27120 On ch=10 n=40 v=92
27130 Off ch=10 n=40 v=92
27240 On ch=10 n=40 v=64
27250 Off ch=10 n=40 v=64
27360 On ch=10 n=40 v=50
27370 Off ch=10 n=40 v=50
27480 On ch=10 n=40 v=50
27490 Off ch=10 n=40 v=50
27600 On ch=10 n=40 v=92
27610 Off ch=10 n=40 v=92
27720 On ch=10 n=40 v=64
27730 Off ch=10 n=40 v=64
27840 On ch=10 n=40 v=92
27850 Off ch=10 n=40 v=92
27920 On ch=10 n=40 v=78
27930 Off ch=10 n=40 v=78
28000 On ch=10 n=40 v=64
28010 Off ch=10 n=40 v=64
28080 On ch=10 n=40 v=64
28090 Off ch=10 n=40 v=64
28200 On ch=10 n=40 v=50
28210 Off ch=10 n=40 v=50
28320 On ch=10 n=40 v=92
28330 Off ch=10 n=40 v=92
28440 On ch=10 n=40 v=64
28450 Off ch=10 n=40 v=64
28560 On ch=10 n=40 v=78
28570 Off ch=10 n=40 v=78
28680 On ch=10 n=40 v=64
28690 Off ch=10 n=40 v=64
28800 On ch=10 n=40 v=92
28810 Off ch=10 n=40 v=92
28920 On ch=10 n=40 v=64
28930 Off ch=10 n=40 v=64
29040 On ch=10 n=40 v=78
29050 Off ch=10 n=40 v=78
29160 On ch=10 n=40 v=64
29170 Off ch=10 n=40 v=64
29280 On ch=10 n=40 v=106
29290 Off ch=10 n=40 v=106
29520 On ch=10 n=40 v=106
29530 Off ch=10 n=40 v=106
29760 On ch=10 n=45 v=92
29770 Off ch=10 n=45 v=92
30000 On ch=10 n=45 v=78
30010 Off ch=10 n=45 v=78
30040 On ch=10 n=43 v=92
30050 Off ch=10 n=43 v=92
30480 On ch=10 n=40 v=92
30480 On ch=10 n=46 v=78
30490 Off ch=10 n=40 v=92
30490 Off ch=10 n=46 v=78
30720 On ch=10 n=36 v=78
30720 On ch=10 n=42 v=64
30730 Off ch=10 n=36 v=78
30730 Off ch=10 n=42 v=64
31200 On ch=10 n=40 v=92
31200 On ch=10 n=46 v=78
31210 Off ch=10 n=40 v=92
31210 Off ch=10 n=46 v=78
31440 On ch=10 n=36 v=78
31440 On ch=10 n=42 v=64
31450 Off ch=10 n=36 v=78
31450 Off ch=10 n=42 v=64
31920 On ch=10 n=40 v=92
31920 On ch=10 n=46 v=78
31930 Off ch=10 n=40 v=92
31930 Off ch=10 n=46 v=78
32160 On ch=10 n=36 v=78
32160 On ch=10 n=42 v=64
32170 Off ch=10 n=36 v=78
32170 Off ch=10 n=42 v=64
32640 On ch=10 n=40 v=92
32650 Off ch=10 n=40 v=92
33360 On ch=10 n=36 v=92
33370 Off ch=10 n=36 v=92
34080 On ch=10 n=36 v=92
34090 Off ch=10 n=36 v=92
34800 On ch=10 n=57 v=78
34800 On ch=10 n=40 v=106
34800 On ch=10 n=36 v=92
34810 Off ch=10 n=57 v=78
34810 Off ch=10 n=40 v=106
34810 Off ch=10 n=36 v=92
35280 On ch=10 n=40 v=36
35290 Off ch=10 n=40 v=36
35330 On ch=10 n=38 v=36
35340 Off ch=10 n=38 v=36
35370 On ch=10 n=40 v=36
35380 Off ch=10 n=40 v=36
35420 On ch=10 n=38 v=36
35430 Off ch=10 n=38 v=36
35470 On ch=10 n=40 v=50
35480 Off ch=10 n=40 v=50
35520 On ch=10 n=38 v=36
35530 Off ch=10 n=38 v=36
35560 On ch=10 n=40 v=36
35570 Off ch=10 n=40 v=36
35610 On ch=10 n=38 v=36
35620 Off ch=10 n=38 v=36
35660 On ch=10 n=40 v=36
35670 Off ch=10 n=40 v=36
35700 On ch=10 n=38 v=36
35710 Off ch=10 n=38 v=36
35750 On ch=10 n=40 v=36
35760 Off ch=10 n=40 v=36
35800 On ch=10 n=38 v=36
35810 Off ch=10 n=38 v=36
35840 On ch=10 n=40 v=36
35850 Off ch=10 n=40 v=36
35890 On ch=10 n=38 v=36
35900 Off ch=10 n=38 v=36
35930 On ch=10 n=40 v=36
35940 Off ch=10 n=40 v=36
35970 On ch=10 n=38 v=36
35980 Off ch=10 n=38 v=36
36020 On ch=10 n=40 v=36
36030 Off ch=10 n=40 v=36
36060 On ch=10 n=38 v=36
36070 Off ch=10 n=38 v=36
36110 On ch=10 n=40 v=36
36120 Off ch=10 n=40 v=36
36160 On ch=10 n=38 v=36
36170 Off ch=10 n=38 v=36
36200 On ch=10 n=40 v=36
36210 Off ch=10 n=40 v=36
36250 On ch=10 n=38 v=36
36260 Off ch=10 n=38 v=36
36300 On ch=10 n=40 v=34
36310 Off ch=10 n=40 v=34
36340 On ch=10 n=38 v=36
36350 Off ch=10 n=38 v=36
36720 On ch=10 n=40 v=92
36730 Off ch=10 n=40 v=92
39120 On ch=10 n=42 v=78
39120 On ch=10 n=36 v=78
39130 Off ch=10 n=42 v=78
39130 Off ch=10 n=36 v=78
40080 On ch=10 n=40 v=92
40080 On ch=10 n=42 v=78
40090 Off ch=10 n=40 v=92
40090 Off ch=10 n=42 v=78
41040 On ch=10 n=42 v=78
41050 Off ch=10 n=42 v=78
42000 On ch=10 n=40 v=92
42000 On ch=10 n=42 v=78
42010 Off ch=10 n=40 v=92
42010 Off ch=10 n=42 v=78
42960 On ch=10 n=42 v=78
42970 Off ch=10 n=42 v=78
43440 On ch=10 n=40 v=50
43450 Off ch=10 n=40 v=50
43470 On ch=10 n=40 v=92
43480 Off ch=10 n=40 v=92
43920 On ch=10 n=36 v=78
43930 Off ch=10 n=36 v=78
44160 On ch=10 n=36 v=78
44170 Off ch=10 n=36 v=78
44400 On ch=10 n=42 v=78
44410 Off ch=10 n=42 v=78
44640 On ch=10 n=40 v=78
44650 Off ch=10 n=40 v=78
45360 On ch=10 n=42 v=78
45370 Off ch=10 n=42 v=78
45840 On ch=10 n=40 v=92
45840 On ch=10 n=42 v=78
45850 Off ch=10 n=40 v=92
45850 Off ch=10 n=42 v=78
46320 On ch=10 n=36 v=92
46320 On ch=10 n=42 v=78
46330 Off ch=10 n=36 v=92
46330 Off ch=10 n=42 v=78
47280 On ch=10 n=40 v=92
47280 On ch=10 n=46 v=78
47290 Off ch=10 n=40 v=92
47290 Off ch=10 n=46 v=78
47760 On ch=10 n=44 v=78
47760 On ch=10 n=36 v=78
47770 Off ch=10 n=44 v=78
47770 Off ch=10 n=36 v=78
48240 On ch=10 n=42 v=78
48250 Off ch=10 n=42 v=78
48480 On ch=10 n=40 v=92
48490 Off ch=10 n=40 v=92
48960 On ch=10 n=40 v=92
48970 Off ch=10 n=40 v=92
49200 On ch=10 n=42 v=78
49210 Off ch=10 n=42 v=78
49440 On ch=10 n=36 v=78
49450 Off ch=10 n=36 v=78
49680 On ch=10 n=46 v=64
49680 On ch=10 n=40 v=92
49690 Off ch=10 n=46 v=64
49690 Off ch=10 n=40 v=92
50160 On ch=10 n=36 v=92
50160 On ch=10 n=42 v=78
50170 Off ch=10 n=36 v=92
50170 Off ch=10 n=42 v=78
50640 On ch=10 n=42 v=78
50650 Off ch=10 n=42 v=78
51120 On ch=10 n=40 v=92
51120 On ch=10 n=42 v=78
51130 Off ch=10 n=40 v=92
51130 Off ch=10 n=42 v=78
51600 On ch=10 n=42 v=78
51610 Off ch=10 n=42 v=78
52080 On ch=10 n=42 v=78
52090 Off ch=10 n=42 v=78
52240 On ch=10 n=40 v=64
52250 Off ch=10 n=40 v=64
52400 On ch=10 n=42 v=50
52410 Off ch=10 n=42 v=50
52560 On ch=10 n=42 v=78
52570 Off ch=10 n=42 v=78
52720 On ch=10 n=40 v=64
52730 Off ch=10 n=40 v=64
52880 On ch=10 n=42 v=50
52890 Off ch=10 n=42 v=50
53040 On ch=10 n=42 v=78
53050 Off ch=10 n=42 v=78
53200 On ch=10 n=40 v=64
53210 Off ch=10 n=40 v=64
53360 On ch=10 n=42 v=50
53370 Off ch=10 n=42 v=50
53520 On ch=10 n=42 v=78
53530 Off ch=10 n=42 v=78
53680 On ch=10 n=40 v=64
53690 Off ch=10 n=40 v=64
53840 On ch=10 n=42 v=50
53850 Off ch=10 n=42 v=50
54000 On ch=10 n=36 v=78
54000 On ch=10 n=46 v=64
54010 Off ch=10 n=36 v=78
54010 Off ch=10 n=46 v=64
54480 On ch=10 n=42 v=78
54490 Off ch=10 n=42 v=78
54960 On ch=10 n=40 v=78
54960 On ch=10 n=42 v=78
54970 Off ch=10 n=40 v=78
54970 Off ch=10 n=42 v=78
55440 On ch=10 n=42 v=78
55450 Off ch=10 n=42 v=78
56400 On ch=10 n=42 v=78
56410 Off ch=10 n=42 v=78
56880 On ch=10 n=40 v=92
56880 On ch=10 n=42 v=78
56890 Off ch=10 n=40 v=92
56890 Off ch=10 n=42 v=78
57360 On ch=10 n=36 v=78
57360 On ch=10 n=42 v=78
57370 Off ch=10 n=36 v=78
57370 Off ch=10 n=42 v=78
57600 On ch=10 n=36 v=78
57610 Off ch=10 n=36 v=78
57840 On ch=10 n=42 v=78
57850 Off ch=10 n=42 v=78
58080 On ch=10 n=40 v=92
58090 Off ch=10 n=40 v=92
58320 On ch=10 n=40 v=92
58320 On ch=10 n=42 v=78
58330 Off ch=10 n=40 v=92
58330 Off ch=10 n=42 v=78
58800 On ch=10 n=42 v=78
58810 Off ch=10 n=42 v=78
59280 On ch=10 n=40 v=92
59280 On ch=10 n=42 v=78
59290 Off ch=10 n=40 v=92
59290 Off ch=10 n=42 v=78
59760 On ch=10 n=42 v=78
59770 Off ch=10 n=42 v=78
59920 On ch=10 n=40 v=64
59930 Off ch=10 n=40 v=64
60080 On ch=10 n=36 v=78
60090 Off ch=10 n=36 v=78
60240 On ch=10 n=42 v=78
60250 Off ch=10 n=42 v=78
60400 On ch=10 n=40 v=64
60410 Off ch=10 n=40 v=64
60560 On ch=10 n=36 v=64
60570 Off ch=10 n=36 v=64
60720 On ch=10 n=40 v=78
60730 Off ch=10 n=40 v=78
60880 On ch=10 n=42 v=64
60890 Off ch=10 n=42 v=64
61040 On ch=10 n=36 v=64
61050 Off ch=10 n=36 v=64
61200 On ch=10 n=40 v=78
61210 Off ch=10 n=40 v=78
61360 On ch=10 n=42 v=64
61370 Off ch=10 n=42 v=64
61520 On ch=10 n=36 v=64
61530 Off ch=10 n=36 v=64
61680 On ch=10 n=49 v=78
61680 On ch=10 n=40 v=92
61690 Off ch=10 n=49 v=78
61690 Off ch=10 n=40 v=92
62640 On ch=10 n=40 v=92
62640 On ch=10 n=42 v=78
62650 Off ch=10 n=40 v=92
62650 Off ch=10 n=42 v=78
63120 On ch=10 n=36 v=78
63120 On ch=10 n=42 v=78
63130 Off ch=10 n=36 v=78
63130 Off ch=10 n=42 v=78
63600 On ch=10 n=42 v=78
63610 Off ch=10 n=42 v=78
63840 On ch=10 n=40 v=92
63850 Off ch=10 n=40 v=92
64080 On ch=10 n=42 v=78
64090 Off ch=10 n=42 v=78
64320 On ch=10 n=36 v=78
64330 Off ch=10 n=36 v=78
64560 On ch=10 n=40 v=92
64560 On ch=10 n=46 v=78
64570 Off ch=10 n=40 v=92
64570 Off ch=10 n=46 v=78
65040 On ch=10 n=40 v=92
65040 On ch=10 n=49 v=78
65040 On ch=10 n=44 v=64
65050 Off ch=10 n=40 v=92
65050 Off ch=10 n=49 v=78
65050 Off ch=10 n=44 v=64
65520 On ch=10 n=36 v=78
65520 On ch=10 n=42 v=78
65530 Off ch=10 n=36 v=78
65530 Off ch=10 n=42 v=78
65760 On ch=10 n=36 v=64
65770 Off ch=10 n=36 v=64
66000 On ch=10 n=42 v=78
66010 Off ch=10 n=42 v=78
66480 On ch=10 n=40 v=92
66480 On ch=10 n=42 v=78
66490 Off ch=10 n=40 v=92
66490 Off ch=10 n=42 v=78
66960 On ch=10 n=36 v=78
66960 On ch=10 n=42 v=78
66970 Off ch=10 n=36 v=78
66970 Off ch=10 n=42 v=78
67440 On ch=10 n=42 v=78
67450 Off ch=10 n=42 v=78
67680 On ch=10 n=40 v=92
67690 Off ch=10 n=40 v=92
67920 On ch=10 n=42 v=78
67930 Off ch=10 n=42 v=78
68160 On ch=10 n=40 v=78
68170 Off ch=10 n=40 v=78
68280 On ch=10 n=40 v=78
68290 Off ch=10 n=40 v=78
68400 On ch=10 n=40 v=92
68410 Off ch=10 n=40 v=92
68490 On ch=10 n=40 v=64
68500 Off ch=10 n=40 v=64
68580 On ch=10 n=40 v=50
68590 Off ch=10 n=40 v=50
68680 On ch=10 n=40 v=78
68690 Off ch=10 n=40 v=78
68770 On ch=10 n=40 v=64
68780 Off ch=10 n=40 v=64
68880 On ch=10 n=40 v=92
68890 Off ch=10 n=40 v=92
69000 On ch=10 n=40 v=64
69010 Off ch=10 n=40 v=64
69120 On ch=10 n=40 v=78
69130 Off ch=10 n=40 v=78
69240 On ch=10 n=40 v=78
69250 Off ch=10 n=40 v=78
69360 On ch=10 n=36 v=78
69360 On ch=10 n=42 v=78
69370 Off ch=10 n=36 v=78
69370 Off ch=10 n=42 v=78
69840 On ch=10 n=42 v=78
69850 Off ch=10 n=42 v=78
70320 On ch=10 n=40 v=92
70320 On ch=10 n=46 v=78
70330 Off ch=10 n=40 v=92
70330 Off ch=10 n=46 v=78
70800 On ch=10 n=36 v=78
70800 On ch=10 n=42 v=78
70810 Off ch=10 n=36 v=78
70810 Off ch=10 n=42 v=78
71280 On ch=10 n=42 v=78
71290 Off ch=10 n=42 v=78
71440 On ch=10 n=40 v=64
71450 Off ch=10 n=40 v=64
71600 On ch=10 n=40 v=92
71610 Off ch=10 n=40 v=92
71760 On ch=10 n=42 v=78
71770 Off ch=10 n=42 v=78
71920 On ch=10 n=40 v=64
71930 Off ch=10 n=40 v=64
72080 On ch=10 n=40 v=92
72090 Off ch=10 n=40 v=92
72240 On ch=10 n=40 v=92
72250 Off ch=10 n=40 v=92
72400 On ch=10 n=40 v=64
72410 Off ch=10 n=40 v=64
72560 On ch=10 n=40 v=92
72570 Off ch=10 n=40 v=92
72720 On ch=10 n=45 v=92
72730 Off ch=10 n=45 v=92
72880 On ch=10 n=40 v=92
72890 Off ch=10 n=40 v=92
73040 On ch=10 n=40 v=64
73050 Off ch=10 n=40 v=64
73200 On ch=10 n=36 v=92
73200 On ch=10 n=49 v=78
73210 Off ch=10 n=36 v=92
73210 Off ch=10 n=49 v=78
73680 On ch=10 n=42 v=78
73690 Off ch=10 n=42 v=78
74160 On ch=10 n=40 v=92
74160 On ch=10 n=46 v=78
74170 Off ch=10 n=40 v=92
74170 Off ch=10 n=46 v=78
74640 On ch=10 n=36 v=78
74640 On ch=10 n=42 v=78
74650 Off ch=10 n=36 v=78
74650 Off ch=10 n=42 v=78
75120 On ch=10 n=40 v=92
75130 Off ch=10 n=40 v=92
75200 On ch=10 n=40 v=64
75210 Off ch=10 n=40 v=64
75280 On ch=10 n=40 v=64
75290 Off ch=10 n=40 v=64
75360 On ch=10 n=40 v=78
75370 Off ch=10 n=40 v=78
75440 On ch=10 n=40 v=64
75450 Off ch=10 n=40 v=64
75520 On ch=10 n=40 v=64
75530 Off ch=10 n=40 v=64
75600 On ch=10 n=40 v=92
75610 Off ch=10 n=40 v=92
75720 On ch=10 n=40 v=64
75730 Off ch=10 n=40 v=64
75840 On ch=10 n=40 v=78
75850 Off ch=10 n=40 v=78
75960 On ch=10 n=40 v=64
75970 Off ch=10 n=40 v=64
76080 On ch=10 n=40 v=92
76090 Off ch=10 n=40 v=92
76160 On ch=10 n=40 v=64
76170 Off ch=10 n=40 v=64
76240 On ch=10 n=40 v=64
76250 Off ch=10 n=40 v=64
76320 On ch=10 n=40 v=78
76330 Off ch=10 n=40 v=78
76400 On ch=10 n=40 v=64
76410 Off ch=10 n=40 v=64
76480 On ch=10 n=40 v=64
76490 Off ch=10 n=40 v=64
76560 On ch=10 n=40 v=92
76570 Off ch=10 n=40 v=92
76680 On ch=10 n=40 v=64
76690 Off ch=10 n=40 v=64
76800 On ch=10 n=40 v=78
76810 Off ch=10 n=40 v=78
76920 On ch=10 n=40 v=64
76930 Off ch=10 n=40 v=64
77040 On ch=10 n=57 v=78
77040 On ch=10 n=36 v=78
77050 Off ch=10 n=57 v=78
77050 Off ch=10 n=36 v=78
77520 On ch=10 n=42 v=78
77530 Off ch=10 n=42 v=78
78000 On ch=10 n=40 v=92
78000 On ch=10 n=46 v=78
78010 Off ch=10 n=40 v=92
78010 Off ch=10 n=46 v=78
78480 On ch=10 n=36 v=78
78480 On ch=10 n=42 v=78
78490 Off ch=10 n=36 v=78
78490 Off ch=10 n=42 v=78
78960 On ch=10 n=42 v=78
78970 Off ch=10 n=42 v=78
79200 On ch=10 n=40 v=92
79210 Off ch=10 n=40 v=92
79440 On ch=10 n=42 v=78
79450 Off ch=10 n=42 v=78
79680 On ch=10 n=36 v=78
79690 Off ch=10 n=36 v=78
79920 On ch=10 n=40 v=92
79920 On ch=10 n=46 v=78
79930 Off ch=10 n=40 v=92
79930 Off ch=10 n=46 v=78
80400 On ch=10 n=36 v=78
80400 On ch=10 n=42 v=78
80410 Off ch=10 n=36 v=78
80410 Off ch=10 n=42 v=78
80640 On ch=10 n=40 v=64
80650 Off ch=10 n=40 v=64
80760 On ch=10 n=40 v=64
80770 Off ch=10 n=40 v=64
80880 On ch=10 n=36 v=78
80880 On ch=10 n=42 v=78
80890 Off ch=10 n=36 v=78
80890 Off ch=10 n=42 v=78
81120 On ch=10 n=36 v=64
81130 Off ch=10 n=36 v=64
81360 On ch=10 n=42 v=78
81370 Off ch=10 n=42 v=78
81600 On ch=10 n=36 v=64
81610 Off ch=10 n=36 v=64
81840 On ch=10 n=40 v=92
81840 On ch=10 n=46 v=78
81850 Off ch=10 n=40 v=92
81850 Off ch=10 n=46 v=78
82320 On ch=10 n=36 v=92
82320 On ch=10 n=49 v=78
82320 On ch=10 n=44 v=64
82330 Off ch=10 n=36 v=92
82330 Off ch=10 n=49 v=78
82330 Off ch=10 n=44 v=64
82800 On ch=10 n=53 v=78
82810 Off ch=10 n=53 v=78
83040 On ch=10 n=40 v=92
83050 Off ch=10 n=40 v=92
83280 On ch=10 n=53 v=78
83290 Off ch=10 n=53 v=78
83520 On ch=10 n=36 v=78
83530 Off ch=10 n=36 v=78
83760 On ch=10 n=40 v=92
83760 On ch=10 n=53 v=78
83770 Off ch=10 n=40 v=92
83770 Off ch=10 n=53 v=78
84240 On ch=10 n=53 v=78
84250 Off ch=10 n=53 v=78
84480 On ch=10 n=40 v=78
84490 Off ch=10 n=40 v=78
84600 On ch=10 n=40 v=50
84610 Off ch=10 n=40 v=50
84720 On ch=10 n=36 v=78
84720 On ch=10 n=53 v=78
84730 Off ch=10 n=36 v=78
84730 Off ch=10 n=53 v=78
84960 On ch=10 n=36 v=78
84970 Off ch=10 n=36 v=78
85200 On ch=10 n=53 v=78
85210 Off ch=10 n=53 v=78
85680 On ch=10 n=40 v=92
85680 On ch=10 n=53 v=78
85690 Off ch=10 n=40 v=92
85690 Off ch=10 n=53 v=78
86160 On ch=10 n=36 v=78
86160 On ch=10 n=53 v=78
86170 Off ch=10 n=36 v=78
86170 Off ch=10 n=53 v=78
86640 On ch=10 n=53 v=78
86650 Off ch=10 n=53 v=78
87120 On ch=10 n=53 v=78
87130 Off ch=10 n=53 v=78
87600 On ch=10 n=40 v=92
87600 On ch=10 n=53 v=78
87610 Off ch=10 n=40 v=92
87610 Off ch=10 n=53 v=78
88080 On ch=10 n=36 v=78
88080 On ch=10 n=53 v=78
88090 Off ch=10 n=36 v=78
88090 Off ch=10 n=53 v=78
88320 On ch=10 n=40 v=78
88330 Off ch=10 n=40 v=78
88440 On ch=10 n=40 v=50
88450 Off ch=10 n=40 v=50
88560 On ch=10 n=36 v=92
88560 On ch=10 n=53 v=78
88570 Off ch=10 n=36 v=92
88570 Off ch=10 n=53 v=78
88800 On ch=10 n=36 v=78
88810 Off ch=10 n=36 v=78
89040 On ch=10 n=53 v=78
89050 Off ch=10 n=53 v=78
89520 On ch=10 n=40 v=106
89520 On ch=10 n=53 v=78
89530 Off ch=10 n=40 v=106
89530 Off ch=10 n=53 v=78
90000 On ch=10 n=36 v=78
90000 On ch=10 n=53 v=78
90010 Off ch=10 n=36 v=78
90010 Off ch=10 n=53 v=78
90480 On ch=10 n=53 v=78
90490 Off ch=10 n=53 v=78
90720 On ch=10 n=40 v=92
90730 Off ch=10 n=40 v=92
90960 On ch=10 n=53 v=78
90970 Off ch=10 n=53 v=78
91200 On ch=10 n=36 v=78
91210 Off ch=10 n=36 v=78
91440 On ch=10 n=40 v=92
91440 On ch=10 n=53 v=78
91450 Off ch=10 n=40 v=92
91450 Off ch=10 n=53 v=78
91920 On ch=10 n=43 v=92
91920 On ch=10 n=53 v=78
91930 Off ch=10 n=43 v=92
91930 Off ch=10 n=53 v=78
92160 On ch=10 n=43 v=92
92170 Off ch=10 n=43 v=92
92400 On ch=10 n=49 v=78
92400 On ch=10 n=36 v=92
92410 Off ch=10 n=49 v=78
92410 Off ch=10 n=36 v=92
92880 On ch=10 n=53 v=78
92890 Off ch=10 n=53 v=78
93360 On ch=10 n=40 v=92
93360 On ch=10 n=53 v=78
93370 Off ch=10 n=40 v=92
93370 Off ch=10 n=53 v=78
93840 On ch=10 n=36 v=78
93840 On ch=10 n=53 v=78
93850 Off ch=10 n=36 v=78
93850 Off ch=10 n=53 v=78
94320 On ch=10 n=40 v=92
94320 On ch=10 n=53 v=78
94330 Off ch=10 n=40 v=92
94330 Off ch=10 n=53 v=78
94800 On ch=10 n=40 v=92
94800 On ch=10 n=53 v=78
94810 Off ch=10 n=40 v=92
94810 Off ch=10 n=53 v=78
95040 On ch=10 n=36 v=92
95050 Off ch=10 n=36 v=92
95280 On ch=10 n=53 v=78
95290 Off ch=10 n=53 v=78
95520 On ch=10 n=40 v=92
95530 Off ch=10 n=40 v=92
95760 On ch=10 n=40 v=92
95760 On ch=10 n=53 v=78
95770 Off ch=10 n=40 v=92
95770 Off ch=10 n=53 v=78
96240 On ch=10 n=40 v=92
96240 On ch=10 n=53 v=78
96250 Off ch=10 n=40 v=92
96250 Off ch=10 n=53 v=78
96720 On ch=10 n=53 v=78
96730 Off ch=10 n=53 v=78
97200 On ch=10 n=40 v=92
97200 On ch=10 n=53 v=78
97210 Off ch=10 n=40 v=92
97210 Off ch=10 n=53 v=78
97680 On ch=10 n=53 v=78
97690 Off ch=10 n=53 v=78
98160 On ch=10 n=40 v=92
98160 On ch=10 n=53 v=78
98170 Off ch=10 n=40 v=92
98170 Off ch=10 n=53 v=78
98640 On ch=10 n=53 v=78
98650 Off ch=10 n=53 v=78
99120 On ch=10 n=53 v=78
99130 Off ch=10 n=53 v=78
99280 On ch=10 n=40 v=78
99290 Off ch=10 n=40 v=78
99440 On ch=10 n=36 v=78
99450 Off ch=10 n=36 v=78
99600 On ch=10 n=40 v=92
99600 On ch=10 n=53 v=78
99610 Off ch=10 n=40 v=92
99610 Off ch=10 n=53 v=78
99920 On ch=10 n=36 v=78
99930 Off ch=10 n=36 v=78
100080 On ch=10 n=57 v=78
100080 On ch=10 n=40 v=92
100080 On ch=10 n=53 v=78
100090 Off ch=10 n=57 v=78
100090 Off ch=10 n=40 v=92
100090 Off ch=10 n=53 v=78
100560 On ch=10 n=53 v=78
100570 Off ch=10 n=53 v=78
101040 On ch=10 n=40 v=92
101040 On ch=10 n=53 v=78
101050 Off ch=10 n=40 v=92
101050 Off ch=10 n=53 v=78
101520 On ch=10 n=36 v=78
101520 On ch=10 n=53 v=78
101530 Off ch=10 n=36 v=78
101530 Off ch=10 n=53 v=78
102000 On ch=10 n=53 v=78
102010 Off ch=10 n=53 v=78
102480 On ch=10 n=40 v=92
102480 On ch=10 n=53 v=78
102490 Off ch=10 n=40 v=92
102490 Off ch=10 n=53 v=78
102760 On ch=10 n=40 v=50
102770 Off ch=10 n=40 v=50
102840 On ch=10 n=40 v=50
102850 Off ch=10 n=40 v=50
102960 On ch=10 n=53 v=106
102970 Off ch=10 n=53 v=106
103120 On ch=10 n=40 v=64
103130 Off ch=10 n=40 v=64
103280 On ch=10 n=40 v=64
103290 Off ch=10 n=40 v=64
103440 On ch=10 n=45 v=78
103450 Off ch=10 n=45 v=78
103600 On ch=10 n=40 v=64
103610 Off ch=10 n=40 v=64
103760 On ch=10 n=40 v=64
103770 Off ch=10 n=40 v=64
103920 On ch=10 n=49 v=78
103920 On ch=10 n=36 v=92
103930 Off ch=10 n=49 v=78
103930 Off ch=10 n=36 v=92
104400 On ch=10 n=53 v=78
104410 Off ch=10 n=53 v=78
104880 On ch=10 n=40 v=92
104880 On ch=10 n=53 v=78
104890 Off ch=10 n=40 v=92
104890 Off ch=10 n=53 v=78
105360 On ch=10 n=36 v=78
105360 On ch=10 n=53 v=78
105370 Off ch=10 n=36 v=78
105370 Off ch=10 n=53 v=78
105840 On ch=10 n=53 v=78
105850 Off ch=10 n=53 v=78
106080 On ch=10 n=40 v=92
106090 Off ch=10 n=40 v=92
106320 On ch=10 n=53 v=78
106330 Off ch=10 n=53 v=78
106560 On ch=10 n=36 v=92
106570 Off ch=10 n=36 v=92
106800 On ch=10 n=40 v=92
106800 On ch=10 n=53 v=78
106810 Off ch=10 n=40 v=92
106810 Off ch=10 n=53 v=78
107280 On ch=10 n=53 v=78
107290 Off ch=10 n=53 v=78
107580 On ch=10 n=40 v=78
107590 Off ch=10 n=40 v=78
107670 On ch=10 n=40 v=64
107680 Off ch=10 n=40 v=64
107760 On ch=10 n=53 v=78
107770 Off ch=10 n=53 v=78
108000 On ch=10 n=36 v=92
108010 Off ch=10 n=36 v=92
108240 On ch=10 n=53 v=78
108250 Off ch=10 n=53 v=78
108480 On ch=10 n=36 v=92
108490 Off ch=10 n=36 v=92
108720 On ch=10 n=49 v=78
108720 On ch=10 n=40 v=92
108730 Off ch=10 n=49 v=78
108730 Off ch=10 n=40 v=92
109200 On ch=10 n=36 v=78
109200 On ch=10 n=53 v=78
109210 Off ch=10 n=36 v=78
109210 Off ch=10 n=53 v=78
109680 On ch=10 n=53 v=78
109690 Off ch=10 n=53 v=78
109920 On ch=10 n=40 v=92
109930 Off ch=10 n=40 v=92
110160 On ch=10 n=53 v=78
110170 Off ch=10 n=53 v=78
110400 On ch=10 n=36 v=92
110410 Off ch=10 n=36 v=92
110640 On ch=10 n=40 v=92
110640 On ch=10 n=53 v=78
110650 Off ch=10 n=40 v=92
110650 Off ch=10 n=53 v=78
111120 On ch=10 n=53 v=78
111130 Off ch=10 n=53 v=78
111600 On ch=10 n=40 v=92
111600 On ch=10 n=53 v=78
111610 Off ch=10 n=40 v=92
111610 Off ch=10 n=53 v=78
111760 On ch=10 n=40 v=92
111770 Off ch=10 n=40 v=92
112080 On ch=10 n=40 v=92
112080 On ch=10 n=53 v=78
112090 Off ch=10 n=40 v=92
112090 Off ch=10 n=53 v=78
112560 On ch=10 n=36 v=92
112560 On ch=10 n=53 v=78
112570 Off ch=10 n=36 v=92
112570 Off ch=10 n=53 v=78
113040 On ch=10 n=57 v=78
113040 On ch=10 n=36 v=92
113050 Off ch=10 n=57 v=78
113050 Off ch=10 n=36 v=92
113520 On ch=10 n=53 v=78
113530 Off ch=10 n=53 v=78
114000 On ch=10 n=53 v=78
114010 Off ch=10 n=53 v=78
114240 On ch=10 n=36 v=78
114250 Off ch=10 n=36 v=78
114480 On ch=10 n=40 v=92
114480 On ch=10 n=53 v=78
114490 Off ch=10 n=40 v=92
114490 Off ch=10 n=53 v=78
114960 On ch=10 n=53 v=78
114970 Off ch=10 n=53 v=78
115280 On ch=10 n=40 v=78
115290 Off ch=10 n=40 v=78
115360 On ch=10 n=40 v=50
115370 Off ch=10 n=40 v=50
115440 On ch=10 n=36 v=92
115440 On ch=10 n=53 v=78
115450 Off ch=10 n=36 v=92
115450 Off ch=10 n=53 v=78
115680 On ch=10 n=36 v=78
115690 Off ch=10 n=36 v=78
115920 On ch=10 n=53 v=78
115930 Off ch=10 n=53 v=78
116160 On ch=10 n=36 v=92
116170 Off ch=10 n=36 v=92
116400 On ch=10 n=40 v=92
116400 On ch=10 n=53 v=78
116410 Off ch=10 n=40 v=92
116410 Off ch=10 n=53 v=78
116880 On ch=10 n=49 v=78
116880 On ch=10 n=36 v=92
116890 Off ch=10 n=49 v=78
116890 Off ch=10 n=36 v=92
117360 On ch=10 n=53 v=78
117370 Off ch=10 n=53 v=78
117600 On ch=10 n=40 v=92
117610 Off ch=10 n=40 v=92
117840 On ch=10 n=53 v=78
117850 Off ch=10 n=53 v=78
118080 On ch=10 n=36 v=92
118090 Off ch=10 n=36 v=92
118320 On ch=10 n=53 v=78
118330 Off ch=10 n=53 v=78
118800 On ch=10 n=53 v=78
118810 Off ch=10 n=53 v=78
119280 On ch=10 n=49 v=78
119280 On ch=10 n=36 v=92
119290 Off ch=10 n=49 v=78
119290 Off ch=10 n=36 v=92
119760 On ch=10 n=53 v=78
119770 Off ch=10 n=53 v=78
120240 On ch=10 n=40 v=92
120240 On ch=10 n=53 v=78
120250 Off ch=10 n=40 v=92
120250 Off ch=10 n=53 v=78
120720 On ch=10 n=53 v=78
120730 Off ch=10 n=53 v=78
121200 On ch=10 n=53 v=78
121210 Off ch=10 n=53 v=78
121440 On ch=10 n=40 v=92
121450 Off ch=10 n=40 v=92
121680 On ch=10 n=53 v=78
121690 Off ch=10 n=53 v=78
121920 On ch=10 n=36 v=92
121930 Off ch=10 n=36 v=92
122160 On ch=10 n=53 v=78
122170 Off ch=10 n=53 v=78
122280 On ch=10 n=40 v=92
122290 Off ch=10 n=40 v=92
122640 On ch=10 n=53 v=78
122650 Off ch=10 n=53 v=78
123120 On ch=10 n=40 v=92
123120 On ch=10 n=53 v=78
123130 Off ch=10 n=40 v=92
123130 Off ch=10 n=53 v=78
123360 On ch=10 n=40 v=92
123370 Off ch=10 n=40 v=92
123600 On ch=10 n=40 v=92
123600 On ch=10 n=53 v=78
123610 Off ch=10 n=40 v=92
123610 Off ch=10 n=53 v=78
124080 On ch=10 n=53 v=78
124090 Off ch=10 n=53 v=78
124560 On ch=10 n=49 v=78
124560 On ch=10 n=40 v=92
124570 Off ch=10 n=49 v=78
124570 Off ch=10 n=40 v=92
125040 On ch=10 n=53 v=78
125050 Off ch=10 n=53 v=78
125280 On ch=10 n=40 v=92
125290 Off ch=10 n=40 v=92
125520 On ch=10 n=53 v=78
125530 Off ch=10 n=53 v=78
125760 On ch=10 n=36 v=92
125770 Off ch=10 n=36 v=92
126000 On ch=10 n=40 v=92
126000 On ch=10 n=53 v=78
126010 Off ch=10 n=40 v=92
126010 Off ch=10 n=53 v=78
126480 On ch=10 n=53 v=78
126490 Off ch=10 n=53 v=78
126720 On ch=10 n=40 v=92
126730 Off ch=10 n=40 v=92
126960 On ch=10 n=36 v=92
126960 On ch=10 n=53 v=78
126970 Off ch=10 n=36 v=92
126970 Off ch=10 n=53 v=78
127200 On ch=10 n=36 v=78
127210 Off ch=10 n=36 v=78
127440 On ch=10 n=40 v=92
127440 On ch=10 n=53 v=78
127450 Off ch=10 n=40 v=92
127450 Off ch=10 n=53 v=78
127920 On ch=10 n=53 v=78
127930 Off ch=10 n=53 v=78
128400 On ch=10 n=49 v=78
128400 On ch=10 n=40 v=92
128410 Off ch=10 n=49 v=78
128410 Off ch=10 n=40 v=92
128880 On ch=10 n=53 v=78
128890 Off ch=10 n=53 v=78
129360 On ch=10 n=40 v=92
129360 On ch=10 n=53 v=78
129370 Off ch=10 n=40 v=92
129370 Off ch=10 n=53 v=78
129680 On ch=10 n=40 v=78
129690 Off ch=10 n=40 v=78
129760 On ch=10 n=40 v=50
129770 Off ch=10 n=40 v=50
129840 On ch=10 n=40 v=92
129850 Off ch=10 n=40 v=92
129960 On ch=10 n=40 v=64
129970 Off ch=10 n=40 v=64
130200 On ch=10 n=40 v=92
130210 Off ch=10 n=40 v=92
130320 On ch=10 n=40 v=92
130330 Off ch=10 n=40 v=92
130440 On ch=10 n=40 v=64
130450 Off ch=10 n=40 v=64
130560 On ch=10 n=45 v=92
130570 Off ch=10 n=45 v=92
130800 On ch=10 n=40 v=92
130810 Off ch=10 n=40 v=92
131280 On ch=10 n=53 v=78
131290 Off ch=10 n=53 v=78
131760 On ch=10 n=40 v=92
131760 On ch=10 n=53 v=78
131770 Off ch=10 n=40 v=92
131770 Off ch=10 n=53 v=78
132240 On ch=10 n=36 v=92
132240 On ch=10 n=53 v=78
132250 Off ch=10 n=36 v=92
132250 Off ch=10 n=53 v=78
132720 On ch=10 n=53 v=78
132730 Off ch=10 n=53 v=78
132960 On ch=10 n=40 v=92
132970 Off ch=10 n=40 v=92
133200 On ch=10 n=53 v=78
133210 Off ch=10 n=53 v=78
133440 On ch=10 n=36 v=92
133450 Off ch=10 n=36 v=92
133680 On ch=10 n=40 v=106
133680 On ch=10 n=53 v=78
133690 Off ch=10 n=40 v=106
133690 Off ch=10 n=53 v=78
134160 On ch=10 n=53 v=78
134170 Off ch=10 n=53 v=78
134640 On ch=10 n=49 v=92
134640 On ch=10 n=36 v=92
134650 Off ch=10 n=49 v=92
134650 Off ch=10 n=36 v=92
135120 On ch=10 n=53 v=78
135130 Off ch=10 n=53 v=78
135600 On ch=10 n=40 v=106
135600 On ch=10 n=53 v=78
135610 Off ch=10 n=40 v=106
135610 Off ch=10 n=53 v=78
136080 On ch=10 n=37 v=92
136080 On ch=10 n=53 v=78
136090 Off ch=10 n=37 v=92
136090 Off ch=10 n=53 v=78
136560 On ch=10 n=53 v=78
136570 Off ch=10 n=53 v=78
136800 On ch=10 n=40 v=92
136810 Off ch=10 n=40 v=92
137040 On ch=10 n=53 v=78
137050 Off ch=10 n=53 v=78
137280 On ch=10 n=37 v=92
137290 Off ch=10 n=37 v=92
137520 On ch=10 n=40 v=92
137520 On ch=10 n=53 v=78
137530 Off ch=10 n=40 v=92
137530 Off ch=10 n=53 v=78
138000 On ch=10 n=53 v=78
138010 Off ch=10 n=53 v=78
138480 On ch=10 n=40 v=92
138480 On ch=10 n=49 v=78
138490 Off ch=10 n=40 v=92
138490 Off ch=10 n=49 v=78
138960 On ch=10 n=53 v=78
138970 Off ch=10 n=53 v=78
139680 On ch=10 n=41 v=92
139680 On ch=10 n=40 v=92
139690 Off ch=10 n=41 v=92
139690 Off ch=10 n=40 v=92
139920 On ch=10 n=41 v=92
139920 On ch=10 n=40 v=92
139930 Off ch=10 n=41 v=92
139930 Off ch=10 n=40 v=92
140160 On ch=10 n=41 v=92
140160 On ch=10 n=40 v=92
140170 Off ch=10 n=41 v=92
140170 Off ch=10 n=40 v=92
140400 On ch=10 n=40 v=92
140400 On ch=10 n=41 v=92
140410 Off ch=10 n=40 v=92
140410 Off ch=10 n=41 v=92
141120 On ch=10 n=41 v=92
141120 On ch=10 n=40 v=92
141130 Off ch=10 n=41 v=92
141130 Off ch=10 n=40 v=92
141360 On ch=10 n=41 v=92
141360 On ch=10 n=40 v=92
141370 Off ch=10 n=41 v=92
141370 Off ch=10 n=40 v=92
141600 On ch=10 n=41 v=92
141600 On ch=10 n=40 v=92
141610 Off ch=10 n=41 v=92
141610 Off ch=10 n=40 v=92
141840 On ch=10 n=41 v=92
141840 On ch=10 n=40 v=92
141850 Off ch=10 n=41 v=92
141850 Off ch=10 n=40 v=92
142320 On ch=10 n=49 v=78
142320 On ch=10 n=36 v=92
142330 Off ch=10 n=49 v=78
142330 Off ch=10 n=36 v=92
142800 On ch=10 n=42 v=64
142810 Off ch=10 n=42 v=64
142920 On ch=10 n=40 v=64
142930 Off ch=10 n=40 v=64
143040 On ch=10 n=42 v=78
143040 On ch=10 n=36 v=92
143050 Off ch=10 n=42 v=78
143050 Off ch=10 n=36 v=92
143160 On ch=10 n=40 v=92
143170 Off ch=10 n=40 v=92
143280 On ch=10 n=40 v=64
143290 Off ch=10 n=40 v=64
143400 On ch=10 n=42 v=64
143410 Off ch=10 n=42 v=64
143520 On ch=10 n=40 v=78
143530 Off ch=10 n=40 v=78
143640 On ch=10 n=40 v=50
143650 Off ch=10 n=40 v=50
143760 On ch=10 n=42 v=78
143760 On ch=10 n=36 v=92
143770 Off ch=10 n=42 v=78
143770 Off ch=10 n=36 v=92
143880 On ch=10 n=40 v=92
143890 Off ch=10 n=40 v=92
144000 On ch=10 n=42 v=50
144010 Off ch=10 n=42 v=50
144120 On ch=10 n=40 v=64
144130 Off ch=10 n=40 v=64
144240 On ch=10 n=42 v=78
144240 On ch=10 n=36 v=78
144250 Off ch=10 n=42 v=78
144250 Off ch=10 n=36 v=78
144360 On ch=10 n=40 v=92
144370 Off ch=10 n=40 v=92
144480 On ch=10 n=42 v=50
144490 Off ch=10 n=42 v=50
144600 On ch=10 n=40 v=64
144610 Off ch=10 n=40 v=64
144720 On ch=10 n=42 v=78
144720 On ch=10 n=36 v=78
144730 Off ch=10 n=42 v=78
144730 Off ch=10 n=36 v=78
144840 On ch=10 n=40 v=92
144850 Off ch=10 n=40 v=92
144960 On ch=10 n=42 v=50
144970 Off ch=10 n=42 v=50
145080 On ch=10 n=40 v=64
145090 Off ch=10 n=40 v=64
145200 On ch=10 n=42 v=78
145200 On ch=10 n=36 v=92
145210 Off ch=10 n=42 v=78
145210 Off ch=10 n=36 v=92
145320 On ch=10 n=40 v=92
145330 Off ch=10 n=40 v=92
145440 On ch=10 n=40 v=64
145450 Off ch=10 n=40 v=64
145560 On ch=10 n=42 v=64
145570 Off ch=10 n=42 v=64
145680 On ch=10 n=40 v=92
145690 Off ch=10 n=40 v=92
145800 On ch=10 n=40 v=64
145810 Off ch=10 n=40 v=64
145920 On ch=10 n=42 v=78
145920 On ch=10 n=36 v=92
145930 Off ch=10 n=42 v=78
145930 Off ch=10 n=36 v=92
146040 On ch=10 n=40 v=92
146050 Off ch=10 n=40 v=92
146160 On ch=10 n=40 v=64
146170 Off ch=10 n=40 v=64
146280 On ch=10 n=42 v=64
146290 Off ch=10 n=42 v=64
146400 On ch=10 n=40 v=78
146410 Off ch=10 n=40 v=78
146520 On ch=10 n=40 v=50
146530 Off ch=10 n=40 v=50
146640 On ch=10 n=42 v=78
146640 On ch=10 n=36 v=92
146650 Off ch=10 n=42 v=78
146650 Off ch=10 n=36 v=92
146760 On ch=10 n=40 v=92
146770 Off ch=10 n=40 v=92
146880 On ch=10 n=42 v=50
146890 Off ch=10 n=42 v=50
147000 On ch=10 n=40 v=64
147010 Off ch=10 n=40 v=64
147120 On ch=10 n=42 v=78
147120 On ch=10 n=36 v=78
147130 Off ch=10 n=42 v=78
147130 Off ch=10 n=36 v=78
147240 On ch=10 n=40 v=92
147250 Off ch=10 n=40 v=92
147360 On ch=10 n=42 v=50
147370 Off ch=10 n=42 v=50
147480 On ch=10 n=40 v=64
147490 Off ch=10 n=40 v=64
147600 On ch=10 n=42 v=78
147600 On ch=10 n=36 v=78
147610 Off ch=10 n=42 v=78
147610 Off ch=10 n=36 v=78
147720 On ch=10 n=40 v=92
147730 Off ch=10 n=40 v=92
147840 On ch=10 n=42 v=50
147850 Off ch=10 n=42 v=50
147960 On ch=10 n=40 v=64
147970 Off ch=10 n=40 v=64
148080 On ch=10 n=42 v=78
148080 On ch=10 n=36 v=92
148090 Off ch=10 n=42 v=78
148090 Off ch=10 n=36 v=92
148200 On ch=10 n=40 v=92
148210 Off ch=10 n=40 v=92
148320 On ch=10 n=40 v=64
148330 Off ch=10 n=40 v=64
148440 On ch=10 n=42 v=64
148450 Off ch=10 n=42 v=64
148560 On ch=10 n=40 v=92
148570 Off ch=10 n=40 v=92
148680 On ch=10 n=40 v=64
148690 Off ch=10 n=40 v=64
148800 On ch=10 n=42 v=78
148800 On ch=10 n=36 v=92
148810 Off ch=10 n=42 v=78
148810 Off ch=10 n=36 v=92
148920 On ch=10 n=40 v=92
148930 Off ch=10 n=40 v=92
149040 On ch=10 n=40 v=64
149050 Off ch=10 n=40 v=64
149160 On ch=10 n=42 v=64
149170 Off ch=10 n=42 v=64
149280 On ch=10 n=40 v=78
149290 Off ch=10 n=40 v=78
149400 On ch=10 n=40 v=50
149410 Off ch=10 n=40 v=50
149520 On ch=10 n=42 v=78
149520 On ch=10 n=36 v=92
149530 Off ch=10 n=42 v=78
149530 Off ch=10 n=36 v=92
149640 On ch=10 n=40 v=92
149650 Off ch=10 n=40 v=92
149760 On ch=10 n=42 v=50
149770 Off ch=10 n=42 v=50
149880 On ch=10 n=40 v=64
149890 Off ch=10 n=40 v=64
150000 On ch=10 n=42 v=78
150000 On ch=10 n=36 v=78
150010 Off ch=10 n=42 v=78
150010 Off ch=10 n=36 v=78
150120 On ch=10 n=40 v=92
150130 Off ch=10 n=40 v=92
150240 On ch=10 n=42 v=50
150250 Off ch=10 n=42 v=50
150360 On ch=10 n=40 v=64
150370 Off ch=10 n=40 v=64
150480 On ch=10 n=42 v=78
150480 On ch=10 n=36 v=78
150490 Off ch=10 n=42 v=78
150490 Off ch=10 n=36 v=78
150600 On ch=10 n=40 v=92
150610 Off ch=10 n=40 v=92
150720 On ch=10 n=42 v=50
150730 Off ch=10 n=42 v=50
150840 On ch=10 n=40 v=64
150850 Off ch=10 n=40 v=64
150960 On ch=10 n=42 v=78
150960 On ch=10 n=36 v=92
150970 Off ch=10 n=42 v=78
150970 Off ch=10 n=36 v=92
151080 On ch=10 n=40 v=92
151090 Off ch=10 n=40 v=92
151200 On ch=10 n=40 v=64
151210 Off ch=10 n=40 v=64
151320 On ch=10 n=42 v=64
151330 Off ch=10 n=42 v=64
151440 On ch=10 n=40 v=92
151450 Off ch=10 n=40 v=92
151560 On ch=10 n=40 v=64
151570 Off ch=10 n=40 v=64
151680 On ch=10 n=42 v=78
151680 On ch=10 n=36 v=92
151690 Off ch=10 n=42 v=78
151690 Off ch=10 n=36 v=92
151800 On ch=10 n=40 v=92
151810 Off ch=10 n=40 v=92
151920 On ch=10 n=40 v=64
151930 Off ch=10 n=40 v=64
152040 On ch=10 n=42 v=64
152050 Off ch=10 n=42 v=64
152160 On ch=10 n=40 v=78
152170 Off ch=10 n=40 v=78
152280 On ch=10 n=40 v=50
152290 Off ch=10 n=40 v=50
152400 On ch=10 n=42 v=78
152400 On ch=10 n=36 v=92
152410 Off ch=10 n=42 v=78
152410 Off ch=10 n=36 v=92
152520 On ch=10 n=40 v=92
152530 Off ch=10 n=40 v=92
152640 On ch=10 n=42 v=50
152650 Off ch=10 n=42 v=50
152760 On ch=10 n=40 v=64
152770 Off ch=10 n=40 v=64
152880 On ch=10 n=42 v=78
152880 On ch=10 n=36 v=78
152890 Off ch=10 n=42 v=78
152890 Off ch=10 n=36 v=78
153000 On ch=10 n=40 v=92
153010 Off ch=10 n=40 v=92
153120 On ch=10 n=42 v=50
153130 Off ch=10 n=42 v=50
153240 On ch=10 n=40 v=64
153250 Off ch=10 n=40 v=64
153360 On ch=10 n=42 v=78
153360 On ch=10 n=36 v=78
153370 Off ch=10 n=42 v=78
153370 Off ch=10 n=36 v=78
153480 On ch=10 n=40 v=92
153490 Off ch=10 n=40 v=92
153600 On ch=10 n=42 v=50
153610 Off ch=10 n=42 v=50
153720 On ch=10 n=40 v=64
153730 Off ch=10 n=40 v=64
153840 On ch=10 n=42 v=78
153840 On ch=10 n=36 v=92
153850 Off ch=10 n=42 v=78
153850 Off ch=10 n=36 v=92
153960 On ch=10 n=40 v=92
153970 Off ch=10 n=40 v=92
154080 On ch=10 n=40 v=64
154090 Off ch=10 n=40 v=64
154200 On ch=10 n=42 v=64
154210 Off ch=10 n=42 v=64
154320 On ch=10 n=40 v=92
154330 Off ch=10 n=40 v=92
154440 On ch=10 n=40 v=64
154450 Off ch=10 n=40 v=64
154560 On ch=10 n=42 v=78
154560 On ch=10 n=36 v=92
154570 Off ch=10 n=42 v=78
154570 Off ch=10 n=36 v=92
154680 On ch=10 n=40 v=92
154690 Off ch=10 n=40 v=92
154800 On ch=10 n=40 v=64
154810 Off ch=10 n=40 v=64
154920 On ch=10 n=42 v=64
154930 Off ch=10 n=42 v=64
155040 On ch=10 n=40 v=78
155050 Off ch=10 n=40 v=78
155160 On ch=10 n=40 v=50
155170 Off ch=10 n=40 v=50
155280 On ch=10 n=42 v=78
155280 On ch=10 n=36 v=92
155290 Off ch=10 n=42 v=78
155290 Off ch=10 n=36 v=92
155400 On ch=10 n=40 v=92
155410 Off ch=10 n=40 v=92
155520 On ch=10 n=42 v=50
155530 Off ch=10 n=42 v=50
155640 On ch=10 n=40 v=64
155650 Off ch=10 n=40 v=64
155760 On ch=10 n=42 v=78
155760 On ch=10 n=36 v=78
155770 Off ch=10 n=42 v=78
155770 Off ch=10 n=36 v=78
155880 On ch=10 n=40 v=92
155890 Off ch=10 n=40 v=92
156000 On ch=10 n=42 v=50
156010 Off ch=10 n=42 v=50
156120 On ch=10 n=40 v=64
156130 Off ch=10 n=40 v=64
156240 On ch=10 n=42 v=78
156240 On ch=10 n=36 v=78
156250 Off ch=10 n=42 v=78
156250 Off ch=10 n=36 v=78
156360 On ch=10 n=40 v=92
156370 Off ch=10 n=40 v=92
156480 On ch=10 n=42 v=50
156490 Off ch=10 n=42 v=50
156600 On ch=10 n=40 v=64
156610 Off ch=10 n=40 v=64
156720 On ch=10 n=42 v=78
156720 On ch=10 n=36 v=92
156730 Off ch=10 n=42 v=78
156730 Off ch=10 n=36 v=92
156840 On ch=10 n=40 v=92
156850 Off ch=10 n=40 v=92
156960 On ch=10 n=40 v=64
156970 Off ch=10 n=40 v=64
157080 On ch=10 n=42 v=64
157090 Off ch=10 n=42 v=64
157200 On ch=10 n=40 v=92
157210 Off ch=10 n=40 v=92
157320 On ch=10 n=40 v=64
157330 Off ch=10 n=40 v=64
157440 On ch=10 n=42 v=78
157440 On ch=10 n=36 v=92
157450 Off ch=10 n=42 v=78
157450 Off ch=10 n=36 v=92
157560 On ch=10 n=40 v=92
157570 Off ch=10 n=40 v=92
157680 On ch=10 n=40 v=64
157690 Off ch=10 n=40 v=64
157800 On ch=10 n=42 v=64
157810 Off ch=10 n=42 v=64
157920 On ch=10 n=40 v=78
157930 Off ch=10 n=40 v=78
158040 On ch=10 n=40 v=50
158050 Off ch=10 n=40 v=50
158160 On ch=10 n=40 v=92
158170 Off ch=10 n=40 v=92
158280 On ch=10 n=40 v=64
158290 Off ch=10 n=40 v=64
158400 On ch=10 n=40 v=78
158410 Off ch=10 n=40 v=78
158520 On ch=10 n=40 v=64
158530 Off ch=10 n=40 v=64
158640 On ch=10 n=40 v=92
158650 Off ch=10 n=40 v=92
158720 On ch=10 n=40 v=64
158730 Off ch=10 n=40 v=64
158800 On ch=10 n=40 v=64
158810 Off ch=10 n=40 v=64
158880 On ch=10 n=40 v=78
158890 Off ch=10 n=40 v=78
158960 On ch=10 n=40 v=64
158970 Off ch=10 n=40 v=64
159040 On ch=10 n=40 v=64
159050 Off ch=10 n=40 v=64
159120 On ch=10 n=40 v=92
159130 Off ch=10 n=40 v=92
159240 On ch=10 n=40 v=64
159250 Off ch=10 n=40 v=64
159360 On ch=10 n=40 v=78
159370 Off ch=10 n=40 v=78
159480 On ch=10 n=40 v=64
159490 Off ch=10 n=40 v=64
159600 On ch=10 n=40 v=106
159610 Off ch=10 n=40 v=106
159840 On ch=10 n=40 v=106
159850 Off ch=10 n=40 v=106
160080 On ch=10 n=45 v=92
160090 Off ch=10 n=45 v=92
160320 On ch=10 n=43 v=92
160330 Off ch=10 n=43 v=92
160800 On ch=10 n=40 v=92
160800 On ch=10 n=46 v=78
160810 Off ch=10 n=40 v=92
160810 Off ch=10 n=46 v=78
161040 On ch=10 n=36 v=78
161040 On ch=10 n=42 v=64
161050 Off ch=10 n=36 v=78
161050 Off ch=10 n=42 v=64
161520 On ch=10 n=40 v=92
161520 On ch=10 n=46 v=78
161530 Off ch=10 n=40 v=92
161530 Off ch=10 n=46 v=78
161760 On ch=10 n=36 v=78
161760 On ch=10 n=42 v=64
161770 Off ch=10 n=36 v=78
161770 Off ch=10 n=42 v=64
162240 On ch=10 n=40 v=92
162240 On ch=10 n=46 v=78
162250 Off ch=10 n=40 v=92
162250 Off ch=10 n=46 v=78
162480 On ch=10 n=36 v=78
162480 On ch=10 n=42 v=64
162490 Off ch=10 n=36 v=78
162490 Off ch=10 n=42 v=64
162960 On ch=10 n=40 v=92
162970 Off ch=10 n=40 v=92
163680 On ch=10 n=40 v=106
163690 Off ch=10 n=40 v=106
164400 On ch=10 n=40 v=106
164410 Off ch=10 n=40 v=106
165120 On ch=10 n=57 v=78
165120 On ch=10 n=40 v=106
165120 On ch=10 n=36 v=92
165130 Off ch=10 n=57 v=78
165130 Off ch=10 n=40 v=106
165130 Off ch=10 n=36 v=92
166080 On ch=10 n=42 v=64
166090 Off ch=10 n=42 v=64
166320 On ch=10 n=36 v=92
166320 On ch=10 n=57 v=78
166320 On ch=10 n=40 v=106
166330 Off ch=10 n=36 v=92
166330 Off ch=10 n=57 v=78
166330 Off ch=10 n=40 v=106
167040 On ch=10 n=51 v=92
167040 On ch=10 n=36 v=92
167050 Off ch=10 n=51 v=92
167050 Off ch=10 n=36 v=92
167160 On ch=10 n=40 v=92
167170 Off ch=10 n=40 v=92
167280 On ch=10 n=40 v=64
167290 Off ch=10 n=40 v=64
167400 On ch=10 n=51 v=50
167410 Off ch=10 n=51 v=50
167520 On ch=10 n=40 v=92
167530 Off ch=10 n=40 v=92
167640 On ch=10 n=40 v=64
167650 Off ch=10 n=40 v=64
167760 On ch=10 n=51 v=92
167760 On ch=10 n=36 v=92
167770 Off ch=10 n=51 v=92
167770 Off ch=10 n=36 v=92
167880 On ch=10 n=40 v=92
167890 Off ch=10 n=40 v=92
168000 On ch=10 n=40 v=64
168010 Off ch=10 n=40 v=64
168120 On ch=10 n=51 v=50
168130 Off ch=10 n=51 v=50
168240 On ch=10 n=40 v=78
168250 Off ch=10 n=40 v=78
168360 On ch=10 n=40 v=50
168370 Off ch=10 n=40 v=50
168480 On ch=10 n=51 v=92
168480 On ch=10 n=36 v=92
168490 Off ch=10 n=51 v=92
168490 Off ch=10 n=36 v=92
168600 On ch=10 n=40 v=92
168610 Off ch=10 n=40 v=92
168720 On ch=10 n=51 v=64
168730 Off ch=10 n=51 v=64
168840 On ch=10 n=40 v=64
168850 Off ch=10 n=40 v=64
168960 On ch=10 n=51 v=92
168960 On ch=10 n=36 v=78
168970 Off ch=10 n=51 v=92
168970 Off ch=10 n=36 v=78
169080 On ch=10 n=40 v=92
169090 Off ch=10 n=40 v=92
169200 On ch=10 n=51 v=64
169210 Off ch=10 n=51 v=64
169320 On ch=10 n=40 v=64
169330 Off ch=10 n=40 v=64
169440 On ch=10 n=51 v=92
169440 On ch=10 n=36 v=78
169450 Off ch=10 n=51 v=92
169450 Off ch=10 n=36 v=78
169560 On ch=10 n=40 v=92
169570 Off ch=10 n=40 v=92
169680 On ch=10 n=51 v=64
169690 Off ch=10 n=51 v=64
169800 On ch=10 n=40 v=64
169810 Off ch=10 n=40 v=64
169920 On ch=10 n=51 v=92
169920 On ch=10 n=36 v=92
169930 Off ch=10 n=51 v=92
169930 Off ch=10 n=36 v=92
170040 On ch=10 n=40 v=92
170050 Off ch=10 n=40 v=92
170160 On ch=10 n=40 v=64
170170 Off ch=10 n=40 v=64
170280 On ch=10 n=51 v=50
170290 Off ch=10 n=51 v=50
170400 On ch=10 n=40 v=92
170410 Off ch=10 n=40 v=92
170520 On ch=10 n=40 v=64
170530 Off ch=10 n=40 v=64
170640 On ch=10 n=51 v=92
170640 On ch=10 n=36 v=92
170650 Off ch=10 n=51 v=92
170650 Off ch=10 n=36 v=92
170760 On ch=10 n=40 v=92
170770 Off ch=10 n=40 v=92
170880 On ch=10 n=40 v=64
170890 Off ch=10 n=40 v=64
171000 On ch=10 n=51 v=50
171010 Off ch=10 n=51 v=50
171120 On ch=10 n=40 v=78
171130 Off ch=10 n=40 v=78
171240 On ch=10 n=40 v=50
171250 Off ch=10 n=40 v=50
171360 On ch=10 n=51 v=92
171360 On ch=10 n=36 v=92
171370 Off ch=10 n=51 v=92
171370 Off ch=10 n=36 v=92
171480 On ch=10 n=40 v=92
171490 Off ch=10 n=40 v=92
171600 On ch=10 n=51 v=64
171610 Off ch=10 n=51 v=64
171720 On ch=10 n=40 v=64
171730 Off ch=10 n=40 v=64
171840 On ch=10 n=51 v=92
171840 On ch=10 n=36 v=78
171850 Off ch=10 n=51 v=92
171850 Off ch=10 n=36 v=78
171960 On ch=10 n=40 v=92
171970 Off ch=10 n=40 v=92
172080 On ch=10 n=51 v=64
172090 Off ch=10 n=51 v=64
172200 On ch=10 n=40 v=64
172210 Off ch=10 n=40 v=64
172320 On ch=10 n=51 v=92
172320 On ch=10 n=36 v=78
172330 Off ch=10 n=51 v=92
172330 Off ch=10 n=36 v=78
172440 On ch=10 n=40 v=92
172450 Off ch=10 n=40 v=92
172560 On ch=10 n=51 v=64
172570 Off ch=10 n=51 v=64
172680 On ch=10 n=40 v=64
172690 Off ch=10 n=40 v=64
172800 On ch=10 n=51 v=92
172800 On ch=10 n=36 v=92
172810 Off ch=10 n=51 v=92
172810 Off ch=10 n=36 v=92
172920 On ch=10 n=40 v=92
172930 Off ch=10 n=40 v=92
173040 On ch=10 n=40 v=64
173050 Off ch=10 n=40 v=64
173160 On ch=10 n=51 v=50
173170 Off ch=10 n=51 v=50
173280 On ch=10 n=40 v=92
173290 Off ch=10 n=40 v=92
173400 On ch=10 n=40 v=64
173410 Off ch=10 n=40 v=64
173520 On ch=10 n=51 v=92
173520 On ch=10 n=36 v=92
173530 Off ch=10 n=51 v=92
173530 Off ch=10 n=36 v=92
173640 On ch=10 n=40 v=92
173650 Off ch=10 n=40 v=92
173760 On ch=10 n=40 v=64
173770 Off ch=10 n=40 v=64
173880 On ch=10 n=51 v=50
173890 Off ch=10 n=51 v=50
174000 On ch=10 n=40 v=78
174010 Off ch=10 n=40 v=78
174120 On ch=10 n=40 v=50
174130 Off ch=10 n=40 v=50
174240 On ch=10 n=51 v=92
174240 On ch=10 n=36 v=92
174250 Off ch=10 n=51 v=92
174250 Off ch=10 n=36 v=92
174360 On ch=10 n=40 v=92
174370 Off ch=10 n=40 v=92
174480 On ch=10 n=51 v=64
174490 Off ch=10 n=51 v=64
174600 On ch=10 n=40 v=64
174610 Off ch=10 n=40 v=64
174720 On ch=10 n=51 v=92
174720 On ch=10 n=36 v=78
174730 Off ch=10 n=51 v=92
174730 Off ch=10 n=36 v=78
174840 On ch=10 n=40 v=92
174850 Off ch=10 n=40 v=92
174960 On ch=10 n=51 v=64
174970 Off ch=10 n=51 v=64
175080 On ch=10 n=40 v=64
175090 Off ch=10 n=40 v=64
175200 On ch=10 n=51 v=92
175200 On ch=10 n=36 v=78
175210 Off ch=10 n=51 v=92
175210 Off ch=10 n=36 v=78
175320 On ch=10 n=40 v=92
175330 Off ch=10 n=40 v=92
175440 On ch=10 n=51 v=64
175450 Off ch=10 n=51 v=64
175560 On ch=10 n=40 v=64
175570 Off ch=10 n=40 v=64
175680 On ch=10 n=51 v=92
175680 On ch=10 n=36 v=92
175690 Off ch=10 n=51 v=92
175690 Off ch=10 n=36 v=92
175800 On ch=10 n=40 v=92
175810 Off ch=10 n=40 v=92
175920 On ch=10 n=40 v=64
175930 Off ch=10 n=40 v=64
176040 On ch=10 n=51 v=50
176050 Off ch=10 n=51 v=50
176160 On ch=10 n=40 v=92
176170 Off ch=10 n=40 v=92
176280 On ch=10 n=40 v=64
176290 Off ch=10 n=40 v=64
176400 On ch=10 n=51 v=92
176400 On ch=10 n=36 v=92
176410 Off ch=10 n=51 v=92
176410 Off ch=10 n=36 v=92
176520 On ch=10 n=40 v=92
176530 Off ch=10 n=40 v=92
176640 On ch=10 n=40 v=64
176650 Off ch=10 n=40 v=64
176760 On ch=10 n=51 v=50
176770 Off ch=10 n=51 v=50
176880 On ch=10 n=40 v=78
176890 Off ch=10 n=40 v=78
177000 On ch=10 n=40 v=50
177010 Off ch=10 n=40 v=50
177120 On ch=10 n=51 v=92
177120 On ch=10 n=36 v=92
177130 Off ch=10 n=51 v=92
177130 Off ch=10 n=36 v=92
177240 On ch=10 n=40 v=92
177250 Off ch=10 n=40 v=92
177360 On ch=10 n=51 v=64
177370 Off ch=10 n=51 v=64
177480 On ch=10 n=40 v=64
177490 Off ch=10 n=40 v=64
177600 On ch=10 n=51 v=92
177600 On ch=10 n=36 v=78
177610 Off ch=10 n=51 v=92
177610 Off ch=10 n=36 v=78
177720 On ch=10 n=40 v=92
177730 Off ch=10 n=40 v=92
177840 On ch=10 n=51 v=64
177850 Off ch=10 n=51 v=64
177960 On ch=10 n=40 v=64
177970 Off ch=10 n=40 v=64
178080 On ch=10 n=51 v=92
178080 On ch=10 n=36 v=78
178090 Off ch=10 n=51 v=92
178090 Off ch=10 n=36 v=78
178200 On ch=10 n=40 v=92
178210 Off ch=10 n=40 v=92
178320 On ch=10 n=51 v=64
178330 Off ch=10 n=51 v=64
178440 On ch=10 n=40 v=64
178450 Off ch=10 n=40 v=64
178560 On ch=10 n=51 v=92
178560 On ch=10 n=36 v=92
178570 Off ch=10 n=51 v=92
178570 Off ch=10 n=36 v=92
178680 On ch=10 n=40 v=92
178690 Off ch=10 n=40 v=92
178800 On ch=10 n=40 v=64
178810 Off ch=10 n=40 v=64
178920 On ch=10 n=51 v=50
178930 Off ch=10 n=51 v=50
179040 On ch=10 n=40 v=92
179050 Off ch=10 n=40 v=92
179160 On ch=10 n=40 v=64
179170 Off ch=10 n=40 v=64
179280 On ch=10 n=51 v=92
179280 On ch=10 n=36 v=92
179290 Off ch=10 n=51 v=92
179290 Off ch=10 n=36 v=92
179400 On ch=10 n=40 v=92
179410 Off ch=10 n=40 v=92
179520 On ch=10 n=40 v=64
179530 Off ch=10 n=40 v=64
179640 On ch=10 n=51 v=50
179650 Off ch=10 n=51 v=50
179760 On ch=10 n=40 v=78
179770 Off ch=10 n=40 v=78
179880 On ch=10 n=40 v=50
179890 Off ch=10 n=40 v=50
180000 On ch=10 n=51 v=92
180000 On ch=10 n=36 v=92
180010 Off ch=10 n=51 v=92
180010 Off ch=10 n=36 v=92
180120 On ch=10 n=40 v=92
180130 Off ch=10 n=40 v=92
180240 On ch=10 n=51 v=64
180250 Off ch=10 n=51 v=64
180360 On ch=10 n=40 v=64
180370 Off ch=10 n=40 v=64
180480 On ch=10 n=51 v=92
180480 On ch=10 n=36 v=78
180490 Off ch=10 n=51 v=92
180490 Off ch=10 n=36 v=78
180600 On ch=10 n=40 v=92
180610 Off ch=10 n=40 v=92
180720 On ch=10 n=51 v=64
180730 Off ch=10 n=51 v=64
180840 On ch=10 n=40 v=64
180850 Off ch=10 n=40 v=64
180960 On ch=10 n=51 v=92
180960 On ch=10 n=36 v=78
180970 Off ch=10 n=51 v=92
180970 Off ch=10 n=36 v=78
181080 On ch=10 n=40 v=92
181090 Off ch=10 n=40 v=92
181200 On ch=10 n=51 v=64
181210 Off ch=10 n=51 v=64
181320 On ch=10 n=40 v=64
181330 Off ch=10 n=40 v=64
181440 On ch=10 n=51 v=92
181440 On ch=10 n=36 v=92
181450 Off ch=10 n=51 v=92
181450 Off ch=10 n=36 v=92
181560 On ch=10 n=40 v=92
181570 Off ch=10 n=40 v=92
181680 On ch=10 n=40 v=64
181690 Off ch=10 n=40 v=64
181800 On ch=10 n=51 v=50
181810 Off ch=10 n=51 v=50
181920 On ch=10 n=40 v=92
181930 Off ch=10 n=40 v=92
182040 On ch=10 n=40 v=64
182050 Off ch=10 n=40 v=64
182160 On ch=10 n=51 v=92
182160 On ch=10 n=36 v=92
182170 Off ch=10 n=51 v=92
182170 Off ch=10 n=36 v=92
182280 On ch=10 n=40 v=92
182290 Off ch=10 n=40 v=92
182400 On ch=10 n=40 v=64
182410 Off ch=10 n=40 v=64
182520 On ch=10 n=51 v=50
182530 Off ch=10 n=51 v=50
182640 On ch=10 n=40 v=78
182650 Off ch=10 n=40 v=78
182760 On ch=10 n=40 v=50
182770 Off ch=10 n=40 v=50
182880 On ch=10 n=40 v=92
182890 Off ch=10 n=40 v=92
183000 On ch=10 n=40 v=64
183010 Off ch=10 n=40 v=64
183120 On ch=10 n=40 v=50
183130 Off ch=10 n=40 v=50
183240 On ch=10 n=40 v=78
183250 Off ch=10 n=40 v=78
183360 On ch=10 n=40 v=92
183370 Off ch=10 n=40 v=92
183480 On ch=10 n=40 v=64
183490 Off ch=10 n=40 v=64
183600 On ch=10 n=40 v=78
183610 Off ch=10 n=40 v=78
183720 On ch=10 n=40 v=64
183730 Off ch=10 n=40 v=64
183840 On ch=10 n=40 v=92
183850 Off ch=10 n=40 v=92
183920 On ch=10 n=40 v=64
183930 Off ch=10 n=40 v=64
184000 On ch=10 n=40 v=64
184010 Off ch=10 n=40 v=64
184080 On ch=10 n=40 v=78
184090 Off ch=10 n=40 v=78
184160 On ch=10 n=40 v=64
184170 Off ch=10 n=40 v=64
184240 On ch=10 n=40 v=64
184250 Off ch=10 n=40 v=64
184320 On ch=10 n=40 v=106
184330 Off ch=10 n=40 v=106
184560 On ch=10 n=40 v=106
184570 Off ch=10 n=40 v=106
184800 On ch=10 n=45 v=92
184810 Off ch=10 n=45 v=92
185040 On ch=10 n=43 v=92
185050 Off ch=10 n=43 v=92
185520 On ch=10 n=40 v=50
185530 Off ch=10 n=40 v=50
185540 On ch=10 n=40 v=106
185550 Off ch=10 n=40 v=106
185760 On ch=10 n=36 v=92
185770 Off ch=10 n=36 v=92
186240 On ch=10 n=40 v=50
186250 Off ch=10 n=40 v=50
186260 On ch=10 n=40 v=106
186270 Off ch=10 n=40 v=106
186480 On ch=10 n=36 v=92
186490 Off ch=10 n=36 v=92
186960 On ch=10 n=40 v=50
186970 Off ch=10 n=40 v=50
186980 On ch=10 n=40 v=106
186990 Off ch=10 n=40 v=106
187200 On ch=10 n=36 v=92
187210 Off ch=10 n=36 v=92
187560 On ch=10 n=40 v=64
187570 Off ch=10 n=40 v=64
187620 On ch=10 n=40 v=78
187630 Off ch=10 n=40 v=78
187680 On ch=10 n=40 v=92
187690 Off ch=10 n=40 v=92
188400 On ch=10 n=40 v=50
188410 Off ch=10 n=40 v=50
188420 On ch=10 n=40 v=106
188430 Off ch=10 n=40 v=106
189120 On ch=10 n=40 v=106
189130 Off ch=10 n=40 v=106
189840 On ch=10 n=57 v=78
189840 On ch=10 n=40 v=106
189840 On ch=10 n=36 v=92
189850 Off ch=10 n=57 v=78
189850 Off ch=10 n=40 v=106
189850 Off ch=10 n=36 v=92
191040 On ch=10 n=36 v=92
191040 On ch=10 n=57 v=78
191040 On ch=10 n=40 v=106
191050 Off ch=10 n=36 v=92
191050 Off ch=10 n=57 v=78
191050 Off ch=10 n=40 v=106
191760 On ch=10 n=51 v=92
191760 On ch=10 n=36 v=92
191770 Off ch=10 n=51 v=92
191770 Off ch=10 n=36 v=92
191880 On ch=10 n=40 v=92
191890 Off ch=10 n=40 v=92
192000 On ch=10 n=40 v=64
192010 Off ch=10 n=40 v=64
192120 On ch=10 n=51 v=50
192130 Off ch=10 n=51 v=50
192240 On ch=10 n=40 v=92
192250 Off ch=10 n=40 v=92
192360 On ch=10 n=40 v=64
192370 Off ch=10 n=40 v=64
192480 On ch=10 n=51 v=92
192480 On ch=10 n=36 v=92
192490 Off ch=10 n=51 v=92
192490 Off ch=10 n=36 v=92
192600 On ch=10 n=40 v=92
192610 Off ch=10 n=40 v=92
192720 On ch=10 n=40 v=64
192730 Off ch=10 n=40 v=64
192840 On ch=10 n=51 v=50
192850 Off ch=10 n=51 v=50
192960 On ch=10 n=40 v=78
192970 Off ch=10 n=40 v=78
193080 On ch=10 n=40 v=50
193090 Off ch=10 n=40 v=50
193200 On ch=10 n=51 v=92
193200 On ch=10 n=36 v=92
193210 Off ch=10 n=51 v=92
193210 Off ch=10 n=36 v=92
193320 On ch=10 n=40 v=92
193330 Off ch=10 n=40 v=92
193440 On ch=10 n=51 v=64
193450 Off ch=10 n=51 v=64
193560 On ch=10 n=40 v=64
193570 Off ch=10 n=40 v=64
193680 On ch=10 n=51 v=92
193680 On ch=10 n=36 v=78
193690 Off ch=10 n=51 v=92
193690 Off ch=10 n=36 v=78
193800 On ch=10 n=40 v=92
193810 Off ch=10 n=40 v=92
193920 On ch=10 n=51 v=64
193930 Off ch=10 n=51 v=64
194040 On ch=10 n=40 v=64
194050 Off ch=10 n=40 v=64
194160 On ch=10 n=51 v=92
194160 On ch=10 n=36 v=78
194170 Off ch=10 n=51 v=92
194170 Off ch=10 n=36 v=78
194280 On ch=10 n=40 v=92
194290 Off ch=10 n=40 v=92
194400 On ch=10 n=51 v=64
194410 Off ch=10 n=51 v=64
194520 On ch=10 n=40 v=64
194530 Off ch=10 n=40 v=64
194640 On ch=10 n=51 v=92
194640 On ch=10 n=36 v=92
194650 Off ch=10 n=51 v=92
194650 Off ch=10 n=36 v=92
194760 On ch=10 n=40 v=92
194770 Off ch=10 n=40 v=92
194880 On ch=10 n=40 v=64
194890 Off ch=10 n=40 v=64
195000 On ch=10 n=51 v=50
195010 Off ch=10 n=51 v=50
195120 On ch=10 n=40 v=92
195130 Off ch=10 n=40 v=92
195240 On ch=10 n=40 v=64
195250 Off ch=10 n=40 v=64
195360 On ch=10 n=51 v=92
195360 On ch=10 n=36 v=92
195370 Off ch=10 n=51 v=92
195370 Off ch=10 n=36 v=92
195480 On ch=10 n=40 v=92
195490 Off ch=10 n=40 v=92
195600 On ch=10 n=40 v=64
195610 Off ch=10 n=40 v=64
195720 On ch=10 n=51 v=50
195730 Off ch=10 n=51 v=50
195840 On ch=10 n=40 v=78
195850 Off ch=10 n=40 v=78
195960 On ch=10 n=40 v=50
195970 Off ch=10 n=40 v=50
196080 On ch=10 n=51 v=92
196080 On ch=10 n=36 v=92
196090 Off ch=10 n=51 v=92
196090 Off ch=10 n=36 v=92
196200 On ch=10 n=40 v=92
196210 Off ch=10 n=40 v=92
196320 On ch=10 n=51 v=64
196330 Off ch=10 n=51 v=64
196440 On ch=10 n=40 v=64
196450 Off ch=10 n=40 v=64
196560 On ch=10 n=51 v=92
196560 On ch=10 n=36 v=78
196570 Off ch=10 n=51 v=92
196570 Off ch=10 n=36 v=78
196680 On ch=10 n=40 v=92
196690 Off ch=10 n=40 v=92
196800 On ch=10 n=51 v=64
196810 Off ch=10 n=51 v=64
196920 On ch=10 n=40 v=64
196930 Off ch=10 n=40 v=64
197040 On ch=10 n=51 v=92
197040 On ch=10 n=36 v=78
197050 Off ch=10 n=51 v=92
197050 Off ch=10 n=36 v=78
197160 On ch=10 n=40 v=92
197170 Off ch=10 n=40 v=92
197280 On ch=10 n=51 v=64
197290 Off ch=10 n=51 v=64
197400 On ch=10 n=40 v=64
197410 Off ch=10 n=40 v=64
197520 On ch=10 n=51 v=92
197520 On ch=10 n=36 v=92
197530 Off ch=10 n=51 v=92
197530 Off ch=10 n=36 v=92
197640 On ch=10 n=40 v=92
197650 Off ch=10 n=40 v=92
197760 On ch=10 n=40 v=64
197770 Off ch=10 n=40 v=64
197880 On ch=10 n=51 v=50
197890 Off ch=10 n=51 v=50
198000 On ch=10 n=40 v=92
198010 Off ch=10 n=40 v=92
198120 On ch=10 n=40 v=64
198130 Off ch=10 n=40 v=64
198240 On ch=10 n=51 v=92
198240 On ch=10 n=36 v=92
198250 Off ch=10 n=51 v=92
198250 Off ch=10 n=36 v=92
198360 On ch=10 n=40 v=92
198370 Off ch=10 n=40 v=92
198480 On ch=10 n=40 v=64
198490 Off ch=10 n=40 v=64
198600 On ch=10 n=51 v=50
198610 Off ch=10 n=51 v=50
198720 On ch=10 n=40 v=78
198730 Off ch=10 n=40 v=78
198840 On ch=10 n=40 v=50
198850 Off ch=10 n=40 v=50
198960 On ch=10 n=51 v=92
198960 On ch=10 n=36 v=92
198970 Off ch=10 n=51 v=92
198970 Off ch=10 n=36 v=92
199080 On ch=10 n=40 v=92
199090 Off ch=10 n=40 v=92
199200 On ch=10 n=51 v=64
199210 Off ch=10 n=51 v=64
199320 On ch=10 n=40 v=64
199330 Off ch=10 n=40 v=64
199440 On ch=10 n=51 v=92
199440 On ch=10 n=36 v=78
199450 Off ch=10 n=51 v=92
199450 Off ch=10 n=36 v=78
199560 On ch=10 n=40 v=92
199570 Off ch=10 n=40 v=92
199680 On ch=10 n=51 v=64
199690 Off ch=10 n=51 v=64
199800 On ch=10 n=40 v=64
199810 Off ch=10 n=40 v=64
199920 On ch=10 n=51 v=92
199920 On ch=10 n=36 v=78
199930 Off ch=10 n=51 v=92
199930 Off ch=10 n=36 v=78
200040 On ch=10 n=40 v=92
200050 Off ch=10 n=40 v=92
200160 On ch=10 n=51 v=64
200170 Off ch=10 n=51 v=64
200280 On ch=10 n=40 v=64
200290 Off ch=10 n=40 v=64
200400 On ch=10 n=51 v=92
200400 On ch=10 n=36 v=92
200410 Off ch=10 n=51 v=92
200410 Off ch=10 n=36 v=92
200520 On ch=10 n=40 v=92
200530 Off ch=10 n=40 v=92
200640 On ch=10 n=40 v=64
200650 Off ch=10 n=40 v=64
200760 On ch=10 n=51 v=50
200770 Off ch=10 n=51 v=50
200880 On ch=10 n=40 v=92
200890 Off ch=10 n=40 v=92
201000 On ch=10 n=40 v=64
201010 Off ch=10 n=40 v=64
201120 On ch=10 n=51 v=92
201120 On ch=10 n=36 v=92
201130 Off ch=10 n=51 v=92
201130 Off ch=10 n=36 v=92
201240 On ch=10 n=40 v=92
201250 Off ch=10 n=40 v=92
201360 On ch=10 n=40 v=64
201370 Off ch=10 n=40 v=64
201480 On ch=10 n=51 v=50
201490 Off ch=10 n=51 v=50
201600 On ch=10 n=40 v=78
201610 Off ch=10 n=40 v=78
201720 On ch=10 n=40 v=50
201730 Off ch=10 n=40 v=50
201840 On ch=10 n=51 v=92
201840 On ch=10 n=36 v=92
201850 Off ch=10 n=51 v=92
201850 Off ch=10 n=36 v=92
201960 On ch=10 n=40 v=92
201970 Off ch=10 n=40 v=92
202080 On ch=10 n=51 v=64
202090 Off ch=10 n=51 v=64
202200 On ch=10 n=40 v=64
202210 Off ch=10 n=40 v=64
202320 On ch=10 n=51 v=92
202320 On ch=10 n=36 v=78
202330 Off ch=10 n=51 v=92
202330 Off ch=10 n=36 v=78
202440 On ch=10 n=40 v=92
202450 Off ch=10 n=40 v=92
202560 On ch=10 n=51 v=64
202570 Off ch=10 n=51 v=64
202680 On ch=10 n=40 v=64
202690 Off ch=10 n=40 v=64
202800 On ch=10 n=51 v=92
202800 On ch=10 n=36 v=78
202810 Off ch=10 n=51 v=92
202810 Off ch=10 n=36 v=78
202920 On ch=10 n=40 v=92
202930 Off ch=10 n=40 v=92
203040 On ch=10 n=51 v=64
203050 Off ch=10 n=51 v=64
203160 On ch=10 n=40 v=64
203170 Off ch=10 n=40 v=64
203280 On ch=10 n=51 v=92
203280 On ch=10 n=36 v=92
203290 Off ch=10 n=51 v=92
203290 Off ch=10 n=36 v=92
203400 On ch=10 n=40 v=92
203410 Off ch=10 n=40 v=92
203520 On ch=10 n=40 v=64
203530 Off ch=10 n=40 v=64
203640 On ch=10 n=51 v=50
203650 Off ch=10 n=51 v=50
203760 On ch=10 n=40 v=92
203770 Off ch=10 n=40 v=92
203880 On ch=10 n=40 v=64
203890 Off ch=10 n=40 v=64
204000 On ch=10 n=51 v=92
204000 On ch=10 n=36 v=92
204010 Off ch=10 n=51 v=92
204010 Off ch=10 n=36 v=92
204120 On ch=10 n=40 v=92
204130 Off ch=10 n=40 v=92
204240 On ch=10 n=40 v=64
204250 Off ch=10 n=40 v=64
204360 On ch=10 n=51 v=50
204370 Off ch=10 n=51 v=50
204480 On ch=10 n=40 v=78
204490 Off ch=10 n=40 v=78
204600 On ch=10 n=40 v=50
204610 Off ch=10 n=40 v=50
204720 On ch=10 n=51 v=92
204720 On ch=10 n=36 v=92
204730 Off ch=10 n=51 v=92
204730 Off ch=10 n=36 v=92
204840 On ch=10 n=40 v=92
204850 Off ch=10 n=40 v=92
204960 On ch=10 n=51 v=64
204970 Off ch=10 n=51 v=64
205080 On ch=10 n=40 v=64
205090 Off ch=10 n=40 v=64
205200 On ch=10 n=51 v=92
205200 On ch=10 n=36 v=78
205210 Off ch=10 n=51 v=92
205210 Off ch=10 n=36 v=78
205320 On ch=10 n=40 v=92
205330 Off ch=10 n=40 v=92
205440 On ch=10 n=51 v=64
205450 Off ch=10 n=51 v=64
205560 On ch=10 n=40 v=64
205570 Off ch=10 n=40 v=64
205680 On ch=10 n=51 v=92
205680 On ch=10 n=36 v=78
205690 Off ch=10 n=51 v=92
205690 Off ch=10 n=36 v=78
205800 On ch=10 n=40 v=92
205810 Off ch=10 n=40 v=92
205920 On ch=10 n=51 v=64
205930 Off ch=10 n=51 v=64
206040 On ch=10 n=40 v=64
206050 Off ch=10 n=40 v=64
206160 On ch=10 n=51 v=92
206160 On ch=10 n=36 v=92
206170 Off ch=10 n=51 v=92
206170 Off ch=10 n=36 v=92
206280 On ch=10 n=40 v=92
206290 Off ch=10 n=40 v=92
206400 On ch=10 n=40 v=64
206410 Off ch=10 n=40 v=64
206520 On ch=10 n=51 v=50
206530 Off ch=10 n=51 v=50
206640 On ch=10 n=40 v=92
206650 Off ch=10 n=40 v=92
206760 On ch=10 n=40 v=64
206770 Off ch=10 n=40 v=64
206880 On ch=10 n=51 v=92
206880 On ch=10 n=36 v=92
206890 Off ch=10 n=51 v=92
206890 Off ch=10 n=36 v=92
207000 On ch=10 n=40 v=92
207010 Off ch=10 n=40 v=92
207120 On ch=10 n=40 v=64
207130 Off ch=10 n=40 v=64
207240 On ch=10 n=51 v=50
207250 Off ch=10 n=51 v=50
207360 On ch=10 n=40 v=78
207370 Off ch=10 n=40 v=78
207480 On ch=10 n=40 v=50
207490 Off ch=10 n=40 v=50
207600 On ch=10 n=51 v=92
207600 On ch=10 n=36 v=92
207610 Off ch=10 n=51 v=92
207610 Off ch=10 n=36 v=92
207720 On ch=10 n=40 v=92
207730 Off ch=10 n=40 v=92
207840 On ch=10 n=51 v=64
207850 Off ch=10 n=51 v=64
207960 On ch=10 n=40 v=64
207970 Off ch=10 n=40 v=64
208080 On ch=10 n=51 v=92
208080 On ch=10 n=36 v=78
208090 Off ch=10 n=51 v=92
208090 Off ch=10 n=36 v=78
208200 On ch=10 n=40 v=92
208210 Off ch=10 n=40 v=92
208320 On ch=10 n=51 v=64
208330 Off ch=10 n=51 v=64
208440 On ch=10 n=40 v=64
208450 Off ch=10 n=40 v=64
208560 On ch=10 n=51 v=92
208560 On ch=10 n=36 v=78
208570 Off ch=10 n=51 v=92
208570 Off ch=10 n=36 v=78
208680 On ch=10 n=40 v=92
208690 Off ch=10 n=40 v=92
208800 On ch=10 n=51 v=64
208810 Off ch=10 n=51 v=64
208920 On ch=10 n=40 v=64
208930 Off ch=10 n=40 v=64
209040 On ch=10 n=51 v=92
209040 On ch=10 n=36 v=92
209050 Off ch=10 n=51 v=92
209050 Off ch=10 n=36 v=92
209160 On ch=10 n=40 v=92
209170 Off ch=10 n=40 v=92
209280 On ch=10 n=40 v=64
209290 Off ch=10 n=40 v=64
209400 On ch=10 n=43 v=78
209410 Off ch=10 n=43 v=78
209520 On ch=10 n=40 v=92
209530 Off ch=10 n=40 v=92
209640 On ch=10 n=40 v=64
209650 Off ch=10 n=40 v=64
209760 On ch=10 n=51 v=92
209760 On ch=10 n=36 v=92
209770 Off ch=10 n=51 v=92
209770 Off ch=10 n=36 v=92
209880 On ch=10 n=40 v=92
209890 Off ch=10 n=40 v=92
210000 On ch=10 n=40 v=64
210010 Off ch=10 n=40 v=64
210120 On ch=10 n=51 v=50
210130 Off ch=10 n=51 v=50
210240 On ch=10 n=40 v=78
210250 Off ch=10 n=40 v=78
210360 On ch=10 n=40 v=50
210370 Off ch=10 n=40 v=50
210480 On ch=10 n=51 v=92
210480 On ch=10 n=36 v=92
210490 Off ch=10 n=51 v=92
210490 Off ch=10 n=36 v=92
210600 On ch=10 n=40 v=92
210610 Off ch=10 n=40 v=92
210720 On ch=10 n=51 v=64
210730 Off ch=10 n=51 v=64
210840 On ch=10 n=40 v=64
210850 Off ch=10 n=40 v=64
210960 On ch=10 n=51 v=92
210960 On ch=10 n=36 v=78
210970 Off ch=10 n=51 v=92
210970 Off ch=10 n=36 v=78
211080 On ch=10 n=40 v=92
211090 Off ch=10 n=40 v=92
211200 On ch=10 n=51 v=64
211210 Off ch=10 n=51 v=64
211320 On ch=10 n=40 v=64
211330 Off ch=10 n=40 v=64
211440 On ch=10 n=51 v=92
211440 On ch=10 n=36 v=78
211450 Off ch=10 n=51 v=92
211450 Off ch=10 n=36 v=78
211560 On ch=10 n=40 v=92
211570 Off ch=10 n=40 v=92
211680 On ch=10 n=51 v=64
211690 Off ch=10 n=51 v=64
211800 On ch=10 n=40 v=64
211810 Off ch=10 n=40 v=64
211920 On ch=10 n=51 v=92
211920 On ch=10 n=36 v=92
211930 Off ch=10 n=51 v=92
211930 Off ch=10 n=36 v=92
212040 On ch=10 n=40 v=92
212050 Off ch=10 n=40 v=92
212160 On ch=10 n=40 v=64
212170 Off ch=10 n=40 v=64
212280 On ch=10 n=43 v=78
212290 Off ch=10 n=43 v=78
212400 On ch=10 n=40 v=92
212410 Off ch=10 n=40 v=92
212520 On ch=10 n=40 v=64
212530 Off ch=10 n=40 v=64
212640 On ch=10 n=51 v=92
212640 On ch=10 n=36 v=92
212650 Off ch=10 n=51 v=92
212650 Off ch=10 n=36 v=92
212760 On ch=10 n=40 v=92
212770 Off ch=10 n=40 v=92
212880 On ch=10 n=40 v=64
212890 Off ch=10 n=40 v=64
213000 On ch=10 n=51 v=50
213010 Off ch=10 n=51 v=50
213120 On ch=10 n=40 v=78
213130 Off ch=10 n=40 v=78
213240 On ch=10 n=40 v=50
213250 Off ch=10 n=40 v=50
213360 On ch=10 n=51 v=92
213360 On ch=10 n=36 v=92
213370 Off ch=10 n=51 v=92
213370 Off ch=10 n=36 v=92
213480 On ch=10 n=40 v=92
213490 Off ch=10 n=40 v=92
213600 On ch=10 n=51 v=64
213610 Off ch=10 n=51 v=64
213720 On ch=10 n=40 v=64
213730 Off ch=10 n=40 v=64
213840 On ch=10 n=51 v=92
213840 On ch=10 n=36 v=78
213850 Off ch=10 n=51 v=92
213850 Off ch=10 n=36 v=78
213960 On ch=10 n=40 v=92
213970 Off ch=10 n=40 v=92
214080 On ch=10 n=51 v=64
214090 Off ch=10 n=51 v=64
214200 On ch=10 n=40 v=64
214210 Off ch=10 n=40 v=64
214320 On ch=10 n=51 v=92
214320 On ch=10 n=36 v=78
214330 Off ch=10 n=51 v=92
214330 Off ch=10 n=36 v=78
214440 On ch=10 n=40 v=92
214450 Off ch=10 n=40 v=92
214560 On ch=10 n=51 v=64
214570 Off ch=10 n=51 v=64
214680 On ch=10 n=40 v=64
214690 Off ch=10 n=40 v=64
214800 On ch=10 n=51 v=92
214800 On ch=10 n=36 v=92
214810 Off ch=10 n=51 v=92
214810 Off ch=10 n=36 v=92
214920 On ch=10 n=40 v=92
214930 Off ch=10 n=40 v=92
215040 On ch=10 n=40 v=64
215050 Off ch=10 n=40 v=64
215160 On ch=10 n=43 v=78
215170 Off ch=10 n=43 v=78
215280 On ch=10 n=40 v=92
215290 Off ch=10 n=40 v=92
215400 On ch=10 n=40 v=64
215410 Off ch=10 n=40 v=64
215520 On ch=10 n=51 v=92
215520 On ch=10 n=36 v=92
215530 Off ch=10 n=51 v=92
215530 Off ch=10 n=36 v=92
215640 On ch=10 n=40 v=92
215650 Off ch=10 n=40 v=92
215760 On ch=10 n=40 v=64
215770 Off ch=10 n=40 v=64
215880 On ch=10 n=43 v=78
215890 Off ch=10 n=43 v=78
216000 On ch=10 n=41 v=78
216010 Off ch=10 n=41 v=78
216120 On ch=10 n=40 v=64
216130 Off ch=10 n=40 v=64
216240 On ch=10 n=51 v=92
216240 On ch=10 n=36 v=92
216250 Off ch=10 n=51 v=92
216250 Off ch=10 n=36 v=92
216360 On ch=10 n=40 v=92
216370 Off ch=10 n=40 v=92
216480 On ch=10 n=51 v=64
216490 Off ch=10 n=51 v=64
216600 On ch=10 n=43 v=78
216610 Off ch=10 n=43 v=78
216720 On ch=10 n=41 v=78
216720 On ch=10 n=36 v=78
216730 Off ch=10 n=41 v=78
216730 Off ch=10 n=36 v=78
216840 On ch=10 n=40 v=92
216850 Off ch=10 n=40 v=92
216960 On ch=10 n=51 v=64
216970 Off ch=10 n=51 v=64
217080 On ch=10 n=40 v=64
217090 Off ch=10 n=40 v=64
217200 On ch=10 n=51 v=92
217200 On ch=10 n=36 v=78
217210 Off ch=10 n=51 v=92
217210 Off ch=10 n=36 v=78
217320 On ch=10 n=43 v=78
217330 Off ch=10 n=43 v=78
217440 On ch=10 n=41 v=78
217450 Off ch=10 n=41 v=78
217560 On ch=10 n=40 v=64
217570 Off ch=10 n=40 v=64
217680 On ch=10 n=51 v=92
217680 On ch=10 n=36 v=92
217690 Off ch=10 n=51 v=92
217690 Off ch=10 n=36 v=92
217800 On ch=10 n=40 v=92
217810 Off ch=10 n=40 v=92
217920 On ch=10 n=40 v=64
217930 Off ch=10 n=40 v=64
218040 On ch=10 n=51 v=50
218050 Off ch=10 n=51 v=50
218160 On ch=10 n=40 v=92
218170 Off ch=10 n=40 v=92
218280 On ch=10 n=40 v=64
218290 Off ch=10 n=40 v=64
218400 On ch=10 n=51 v=92
218400 On ch=10 n=36 v=92
218410 Off ch=10 n=51 v=92
218410 Off ch=10 n=36 v=92
218520 On ch=10 n=40 v=92
218530 Off ch=10 n=40 v=92
218640 On ch=10 n=40 v=64
218650 Off ch=10 n=40 v=64
218760 On ch=10 n=51 v=50
218770 Off ch=10 n=51 v=50
218880 On ch=10 n=40 v=78
218890 Off ch=10 n=40 v=78
219000 On ch=10 n=40 v=50
219010 Off ch=10 n=40 v=50
219120 On ch=10 n=51 v=92
219120 On ch=10 n=36 v=92
219130 Off ch=10 n=51 v=92
219130 Off ch=10 n=36 v=92
219240 On ch=10 n=40 v=92
219250 Off ch=10 n=40 v=92
219360 On ch=10 n=51 v=64
219370 Off ch=10 n=51 v=64
219480 On ch=10 n=40 v=64
219490 Off ch=10 n=40 v=64
219600 On ch=10 n=51 v=92
219600 On ch=10 n=36 v=78
219610 Off ch=10 n=51 v=92
219610 Off ch=10 n=36 v=78
219720 On ch=10 n=40 v=92
219730 Off ch=10 n=40 v=92
219840 On ch=10 n=51 v=64
219850 Off ch=10 n=51 v=64
219960 On ch=10 n=40 v=64
219970 Off ch=10 n=40 v=64
220080 On ch=10 n=51 v=92
220080 On ch=10 n=36 v=78
220090 Off ch=10 n=51 v=92
220090 Off ch=10 n=36 v=78
220200 On ch=10 n=40 v=92
220210 Off ch=10 n=40 v=92
220320 On ch=10 n=51 v=64
220330 Off ch=10 n=51 v=64
220440 On ch=10 n=40 v=64
220450 Off ch=10 n=40 v=64
220560 On ch=10 n=51 v=92
220560 On ch=10 n=36 v=92
220570 Off ch=10 n=51 v=92
220570 Off ch=10 n=36 v=92
220680 On ch=10 n=40 v=92
220690 Off ch=10 n=40 v=92
220800 On ch=10 n=40 v=64
220810 Off ch=10 n=40 v=64
220920 On ch=10 n=51 v=50
220930 Off ch=10 n=51 v=50
221040 On ch=10 n=40 v=92
221050 Off ch=10 n=40 v=92
221160 On ch=10 n=40 v=64
221170 Off ch=10 n=40 v=64
221280 On ch=10 n=51 v=92
221280 On ch=10 n=36 v=92
221290 Off ch=10 n=51 v=92
221290 Off ch=10 n=36 v=92
221400 On ch=10 n=40 v=92
221410 Off ch=10 n=40 v=92
221520 On ch=10 n=40 v=64
221530 Off ch=10 n=40 v=64
221640 On ch=10 n=51 v=50
221650 Off ch=10 n=51 v=50
221760 On ch=10 n=40 v=78
221770 Off ch=10 n=40 v=78
221880 On ch=10 n=40 v=50
221890 Off ch=10 n=40 v=50
222000 On ch=10 n=40 v=92
222010 Off ch=10 n=40 v=92
222120 On ch=10 n=40 v=64
222130 Off ch=10 n=40 v=64
222240 On ch=10 n=40 v=78
222250 Off ch=10 n=40 v=78
222360 On ch=10 n=40 v=64
222370 Off ch=10 n=40 v=64
222480 On ch=10 n=40 v=92
222490 Off ch=10 n=40 v=92
222560 On ch=10 n=40 v=64
222570 Off ch=10 n=40 v=64
222640 On ch=10 n=40 v=64
222650 Off ch=10 n=40 v=64
222720 On ch=10 n=40 v=78
222730 Off ch=10 n=40 v=78
222800 On ch=10 n=40 v=64
222810 Off ch=10 n=40 v=64
222880 On ch=10 n=40 v=64
222890 Off ch=10 n=40 v=64
222960 On ch=10 n=40 v=92
222970 Off ch=10 n=40 v=92
223080 On ch=10 n=40 v=64
223090 Off ch=10 n=40 v=64
223200 On ch=10 n=40 v=78
223210 Off ch=10 n=40 v=78
223320 On ch=10 n=40 v=64
223330 Off ch=10 n=40 v=64
223440 On ch=10 n=40 v=106
223450 Off ch=10 n=40 v=106
223680 On ch=10 n=40 v=106
223690 Off ch=10 n=40 v=106
223920 On ch=10 n=45 v=92
223930 Off ch=10 n=45 v=92
224160 On ch=10 n=43 v=92
224170 Off ch=10 n=43 v=92
224640 On ch=10 n=40 v=92
224640 On ch=10 n=46 v=78
224650 Off ch=10 n=40 v=92
224650 Off ch=10 n=46 v=78
224880 On ch=10 n=36 v=78
224880 On ch=10 n=42 v=64
224890 Off ch=10 n=36 v=78
224890 Off ch=10 n=42 v=64
225360 On ch=10 n=40 v=92
225360 On ch=10 n=46 v=78
225370 Off ch=10 n=40 v=92
225370 Off ch=10 n=46 v=78
225600 On ch=10 n=36 v=78
225600 On ch=10 n=42 v=64
225610 Off ch=10 n=36 v=78
225610 Off ch=10 n=42 v=64
226080 On ch=10 n=40 v=92
226080 On ch=10 n=46 v=78
226090 Off ch=10 n=40 v=92
226090 Off ch=10 n=46 v=78
226320 On ch=10 n=36 v=78
226320 On ch=10 n=42 v=64
226330 Off ch=10 n=36 v=78
226330 Off ch=10 n=42 v=64
226800 On ch=10 n=40 v=92
226810 Off ch=10 n=40 v=92
227520 On ch=10 n=40 v=106
227530 Off ch=10 n=40 v=106
228240 On ch=10 n=40 v=106
228250 Off ch=10 n=40 v=106
228960 On ch=10 n=57 v=78
228960 On ch=10 n=40 v=106
228960 On ch=10 n=36 v=92
228970 Off ch=10 n=57 v=78
228970 Off ch=10 n=40 v=106
228970 Off ch=10 n=36 v=92
282240 On ch=10 n=40 v=64
282250 Off ch=10 n=40 v=64
282290 On ch=10 n=38 v=30
282300 Off ch=10 n=38 v=30
282330 On ch=10 n=40 v=25
282340 Off ch=10 n=40 v=25
282380 On ch=10 n=38 v=30
282390 Off ch=10 n=38 v=30
282430 On ch=10 n=40 v=25
282440 Off ch=10 n=40 v=25
282480 On ch=10 n=38 v=25
282490 Off ch=10 n=38 v=25
282520 On ch=10 n=40 v=36
282530 Off ch=10 n=40 v=36
282570 On ch=10 n=38 v=30
282580 Off ch=10 n=38 v=30
282620 On ch=10 n=40 v=20
282630 Off ch=10 n=40 v=20
282660 On ch=10 n=38 v=24
282670 Off ch=10 n=38 v=24
282710 On ch=10 n=40 v=24
282720 Off ch=10 n=40 v=24
282760 On ch=10 n=38 v=30
282770 Off ch=10 n=38 v=30
282800 On ch=10 n=40 v=24
282810 Off ch=10 n=40 v=24
282850 On ch=10 n=38 v=30
282860 Off ch=10 n=38 v=30
282890 On ch=10 n=40 v=24
282900 Off ch=10 n=40 v=24
282930 On ch=10 n=38 v=24
282940 Off ch=10 n=38 v=24
282980 On ch=10 n=40 v=24
282990 Off ch=10 n=40 v=24
283030 On ch=10 n=38 v=30
283040 Off ch=10 n=38 v=30
283070 On ch=10 n=40 v=28
283080 Off ch=10 n=40 v=28
283120 On ch=10 n=38 v=20
283130 Off ch=10 n=38 v=20
283160 On ch=10 n=40 v=30
283170 Off ch=10 n=40 v=30
283210 On ch=10 n=38 v=20
283220 Off ch=10 n=38 v=20
283260 On ch=10 n=40 v=25
283270 Off ch=10 n=40 v=25
283310 On ch=10 n=38 v=24
283320 Off ch=10 n=38 v=24
283350 On ch=10 n=40 v=25
283360 Off ch=10 n=40 v=25
283400 On ch=10 n=38 v=24
283410 Off ch=10 n=38 v=24
283450 On ch=10 n=40 v=23
283460 Off ch=10 n=40 v=23
283490 On ch=10 n=38 v=23
283500 Off ch=10 n=38 v=23
283540 On ch=10 n=40 v=30
283550 Off ch=10 n=40 v=30
283590 On ch=10 n=38 v=27
283600 Off ch=10 n=38 v=27
283630 On ch=10 n=40 v=25
283640 Off ch=10 n=40 v=25
283680 On ch=10 n=36 v=64
283690 Off ch=10 n=36 v=64
285120 On ch=10 n=40 v=64
285130 Off ch=10 n=40 v=64
285170 On ch=10 n=38 v=30
285180 Off ch=10 n=38 v=30
285210 On ch=10 n=40 v=25
285220 Off ch=10 n=40 v=25
285260 On ch=10 n=38 v=30
285270 Off ch=10 n=38 v=30
285310 On ch=10 n=40 v=25
285320 Off ch=10 n=40 v=25
285360 On ch=10 n=38 v=25
285370 Off ch=10 n=38 v=25
285400 On ch=10 n=40 v=36
285410 Off ch=10 n=40 v=36
285450 On ch=10 n=38 v=30
285460 Off ch=10 n=38 v=30
285500 On ch=10 n=40 v=20
285510 Off ch=10 n=40 v=20
285540 On ch=10 n=38 v=24
285550 Off ch=10 n=38 v=24
285590 On ch=10 n=40 v=24
285600 Off ch=10 n=40 v=24
285640 On ch=10 n=38 v=30
285650 Off ch=10 n=38 v=30
285680 On ch=10 n=40 v=24
285690 Off ch=10 n=40 v=24
285730 On ch=10 n=38 v=30
285740 Off ch=10 n=38 v=30
285770 On ch=10 n=40 v=24
285780 Off ch=10 n=40 v=24
285810 On ch=10 n=38 v=24
285820 Off ch=10 n=38 v=24
285860 On ch=10 n=40 v=24
285870 Off ch=10 n=40 v=24
285910 On ch=10 n=38 v=30
285920 Off ch=10 n=38 v=30
285950 On ch=10 n=40 v=28
285960 Off ch=10 n=40 v=28
286000 On ch=10 n=38 v=20
286010 Off ch=10 n=38 v=20
286040 On ch=10 n=40 v=30
286080 Off ch=10 n=40 v=30
286090 On ch=10 n=38 v=20
286100 Off ch=10 n=38 v=20
286140 On ch=10 n=40 v=25
286150 Off ch=10 n=40 v=25
286190 On ch=10 n=38 v=24
286200 Off ch=10 n=38 v=24
286230 On ch=10 n=40 v=25
286240 Off ch=10 n=40 v=25
286280 On ch=10 n=38 v=24
286290 Off ch=10 n=38 v=24
286330 On ch=10 n=40 v=23
286340 Off ch=10 n=40 v=23
286370 On ch=10 n=38 v=23
286380 Off ch=10 n=38 v=23
286420 On ch=10 n=40 v=30
286430 Off ch=10 n=40 v=30
286470 On ch=10 n=38 v=27
286480 Off ch=10 n=38 v=27
286510 On ch=10 n=40 v=25
286520 Off ch=10 n=40 v=25
286560 On ch=10 n=36 v=78
286560 On ch=10 n=44 v=64
286570 Off ch=10 n=36 v=78
286570 Off ch=10 n=44 v=64
287280 On ch=10 n=40 v=64
287290 Off ch=10 n=40 v=64
288000 On ch=10 n=46 v=50
288000 On ch=10 n=40 v=64
288010 Off ch=10 n=46 v=50
288010 Off ch=10 n=40 v=64
288480 On ch=10 n=44 v=78
288490 Off ch=10 n=44 v=78
288960 On ch=10 n=40 v=50
288960 On ch=10 n=46 v=50
288970 Off ch=10 n=40 v=50
288970 Off ch=10 n=46 v=50
289440 On ch=10 n=51 v=50
289440 On ch=10 n=40 v=64
289450 Off ch=10 n=51 v=50
289450 Off ch=10 n=40 v=64
289920 On ch=10 n=44 v=64
289930 Off ch=10 n=44 v=64
290160 On ch=10 n=43 v=50
290160 On ch=10 n=51 v=50
290170 Off ch=10 n=43 v=50
290170 Off ch=10 n=51 v=50
290880 On ch=10 n=41 v=50
290880 On ch=10 n=40 v=50
290880 On ch=10 n=51 v=50
290890 Off ch=10 n=41 v=50
290890 Off ch=10 n=40 v=50
290890 Off ch=10 n=51 v=50
291360 On ch=10 n=44 v=64
291370 Off ch=10 n=44 v=64
291600 On ch=10 n=51 v=50
291610 Off ch=10 n=51 v=50
292320 On ch=10 n=43 v=50
292320 On ch=10 n=51 v=50
292330 Off ch=10 n=43 v=50
292330 Off ch=10 n=51 v=50
292800 On ch=10 n=44 v=64
292810 Off ch=10 n=44 v=64
293040 On ch=10 n=41 v=50
293040 On ch=10 n=51 v=50
293050 Off ch=10 n=41 v=50
293050 Off ch=10 n=51 v=50
293520 On ch=10 n=44 v=64
293530 Off ch=10 n=44 v=64
293760 On ch=10 n=43 v=36
293760 On ch=10 n=51 v=50
293770 Off ch=10 n=43 v=36
293770 Off ch=10 n=51 v=50
294240 On ch=10 n=44 v=64
294250 Off ch=10 n=44 v=64
294480 On ch=10 n=51 v=50
294490 Off ch=10 n=51 v=50
294960 On ch=10 n=40 v=50
294960 On ch=10 n=44 v=64
294970 Off ch=10 n=40 v=50
294970 Off ch=10 n=44 v=64
295200 On ch=10 n=51 v=50
295210 Off ch=10 n=51 v=50
295440 On ch=10 n=44 v=50
295450 Off ch=10 n=44 v=50
295680 On ch=10 n=51 v=50
295690 Off ch=10 n=51 v=50
295920 On ch=10 n=40 v=50
295920 On ch=10 n=44 v=50
295930 Off ch=10 n=40 v=50
295930 Off ch=10 n=44 v=50
296400 On ch=10 n=40 v=64
296400 On ch=10 n=44 v=50
296410 Off ch=10 n=40 v=64
296410 Off ch=10 n=44 v=50
296640 On ch=10 n=51 v=50
296650 Off ch=10 n=51 v=50
296880 On ch=10 n=44 v=50
296890 Off ch=10 n=44 v=50
297120 On ch=10 n=51 v=50
297130 Off ch=10 n=51 v=50
297360 On ch=10 n=40 v=50
297360 On ch=10 n=44 v=50
297370 Off ch=10 n=40 v=50
297370 Off ch=10 n=44 v=50
298080 On ch=10 n=40 v=64
298080 On ch=10 n=51 v=64
298090 Off ch=10 n=40 v=64
298090 Off ch=10 n=51 v=64
298560 On ch=10 n=40 v=64
298570 Off ch=10 n=40 v=64
298610 On ch=10 n=38 v=30
298620 Off ch=10 n=38 v=30
298650 On ch=10 n=40 v=25
298660 Off ch=10 n=40 v=25
298700 On ch=10 n=38 v=30
298710 Off ch=10 n=38 v=30
298750 On ch=10 n=40 v=25
298760 Off ch=10 n=40 v=25
298800 On ch=10 n=38 v=25
298810 Off ch=10 n=38 v=25
298840 On ch=10 n=40 v=36
298850 Off ch=10 n=40 v=36
298890 On ch=10 n=38 v=30
298900 Off ch=10 n=38 v=30
298940 On ch=10 n=40 v=20
298950 Off ch=10 n=40 v=20
298980 On ch=10 n=38 v=24
298990 Off ch=10 n=38 v=24
299030 On ch=10 n=40 v=24
299040 Off ch=10 n=40 v=24
299080 On ch=10 n=38 v=30
299090 Off ch=10 n=38 v=30
299120 On ch=10 n=40 v=24
299130 Off ch=10 n=40 v=24
299170 On ch=10 n=38 v=30
299180 Off ch=10 n=38 v=30
299210 On ch=10 n=40 v=24
299220 Off ch=10 n=40 v=24
299250 On ch=10 n=38 v=24
299260 Off ch=10 n=38 v=24
299300 On ch=10 n=40 v=24
299310 Off ch=10 n=40 v=24
299350 On ch=10 n=38 v=30
299360 Off ch=10 n=38 v=30
299390 On ch=10 n=40 v=28
299400 Off ch=10 n=40 v=28
299440 On ch=10 n=38 v=20
299450 Off ch=10 n=38 v=20
299480 On ch=10 n=40 v=30
299520 On ch=10 n=36 v=78
299520 Off ch=10 n=40 v=30
299530 Off ch=10 n=36 v=78
300000 On ch=10 n=59 v=64
300010 Off ch=10 n=59 v=64
300960 On ch=10 n=40 v=64
300970 Off ch=10 n=40 v=64
301010 On ch=10 n=38 v=30
301020 Off ch=10 n=38 v=30
301050 On ch=10 n=40 v=25
301060 Off ch=10 n=40 v=25
301100 On ch=10 n=38 v=30
301110 Off ch=10 n=38 v=30
301150 On ch=10 n=40 v=25
301160 Off ch=10 n=40 v=25
301200 On ch=10 n=38 v=25
301210 Off ch=10 n=38 v=25
301240 On ch=10 n=40 v=36
301250 Off ch=10 n=40 v=36
301290 On ch=10 n=38 v=30
301300 Off ch=10 n=38 v=30
301340 On ch=10 n=40 v=20
301350 Off ch=10 n=40 v=20
301380 On ch=10 n=38 v=24
301430 On ch=10 n=40 v=24
301440 Off ch=10 n=40 v=24
301440 Off ch=10 n=38 v=24
301480 On ch=10 n=38 v=30
301490 Off ch=10 n=38 v=30
301520 On ch=10 n=40 v=24
301530 Off ch=10 n=40 v=24
301570 On ch=10 n=38 v=30
301580 Off ch=10 n=38 v=30
301610 On ch=10 n=40 v=24
301620 Off ch=10 n=40 v=24
301650 On ch=10 n=38 v=24
301660 Off ch=10 n=38 v=24
301700 On ch=10 n=40 v=24
301710 Off ch=10 n=40 v=24
301750 On ch=10 n=38 v=30
301760 Off ch=10 n=38 v=30
301790 On ch=10 n=40 v=28
301800 Off ch=10 n=40 v=28
301840 On ch=10 n=38 v=20
301850 Off ch=10 n=38 v=20
301880 On ch=10 n=40 v=30
301890 Off ch=10 n=40 v=30
301930 On ch=10 n=38 v=20
301940 Off ch=10 n=38 v=20
301980 On ch=10 n=40 v=25
301990 Off ch=10 n=40 v=25
302030 On ch=10 n=38 v=24
302040 Off ch=10 n=38 v=24
302070 On ch=10 n=40 v=25
302080 Off ch=10 n=40 v=25
302120 On ch=10 n=38 v=24
302130 Off ch=10 n=38 v=24
302170 On ch=10 n=40 v=23
302180 Off ch=10 n=40 v=23
302210 On ch=10 n=38 v=23
302220 Off ch=10 n=38 v=23
302260 On ch=10 n=40 v=30
302270 Off ch=10 n=40 v=30
302310 On ch=10 n=38 v=27
302320 Off ch=10 n=38 v=27
302350 On ch=10 n=40 v=25
302360 Off ch=10 n=40 v=25
302400 On ch=10 n=36 v=78
302410 Off ch=10 n=36 v=78
302880 On ch=10 n=59 v=64
302890 Off ch=10 n=59 v=64
303840 On ch=10 n=59 v=50
303840 On ch=10 n=43 v=50
303850 Off ch=10 n=59 v=50
303850 Off ch=10 n=43 v=50
304320 On ch=10 n=44 v=50
304330 Off ch=10 n=44 v=50
304560 On ch=10 n=59 v=50
304560 On ch=10 n=41 v=50
304570 Off ch=10 n=59 v=50
304570 Off ch=10 n=41 v=50
305040 On ch=10 n=44 v=50
305050 Off ch=10 n=44 v=50
305280 On ch=10 n=59 v=50
305280 On ch=10 n=43 v=50
305290 Off ch=10 n=59 v=50
305290 Off ch=10 n=43 v=50
305760 On ch=10 n=44 v=50
305770 Off ch=10 n=44 v=50
306000 On ch=10 n=59 v=50
306000 On ch=10 n=41 v=50
306010 Off ch=10 n=59 v=50
306010 Off ch=10 n=41 v=50
306480 On ch=10 n=44 v=50
306490 Off ch=10 n=44 v=50
306720 On ch=10 n=40 v=50
306720 On ch=10 n=59 v=50
306730 Off ch=10 n=40 v=50
306730 Off ch=10 n=59 v=50
307200 On ch=10 n=59 v=50
307210 Off ch=10 n=59 v=50
307680 On ch=10 n=40 v=50
307680 On ch=10 n=59 v=50
307690 Off ch=10 n=40 v=50
307690 Off ch=10 n=59 v=50
308160 On ch=10 n=36 v=64
308160 On ch=10 n=59 v=50
308170 Off ch=10 n=36 v=64
308170 Off ch=10 n=59 v=50
308640 On ch=10 n=59 v=50
308650 Off ch=10 n=59 v=50
309120 On ch=10 n=59 v=50
309130 Off ch=10 n=59 v=50
309600 On ch=10 n=36 v=78
309600 On ch=10 n=59 v=50
309610 Off ch=10 n=36 v=78
309610 Off ch=10 n=59 v=50
310080 On ch=10 n=59 v=50
310090 Off ch=10 n=59 v=50
310560 On ch=10 n=36 v=64
310560 On ch=10 n=59 v=50
310570 Off ch=10 n=36 v=64
310570 Off ch=10 n=59 v=50
311040 On ch=10 n=40 v=64
311040 On ch=10 n=59 v=50
311050 Off ch=10 n=40 v=64
311050 Off ch=10 n=59 v=50
311520 On ch=10 n=59 v=50
311530 Off ch=10 n=59 v=50
312000 On ch=10 n=59 v=50
312010 Off ch=10 n=59 v=50
312480 On ch=10 n=59 v=50
312490 Off ch=10 n=59 v=50
312960 On ch=10 n=59 v=50
312970 Off ch=10 n=59 v=50
313440 On ch=10 n=59 v=50
313450 Off ch=10 n=59 v=50
313920 On ch=10 n=40 v=64
313920 On ch=10 n=59 v=50
313930 Off ch=10 n=40 v=64
313930 Off ch=10 n=59 v=50
314400 On ch=10 n=44 v=50
314400 On ch=10 n=36 v=78
314400 On ch=10 n=59 v=50
314410 Off ch=10 n=44 v=50
314410 Off ch=10 n=36 v=78
314410 Off ch=10 n=59 v=50
314880 On ch=10 n=44 v=50
314880 On ch=10 n=36 v=64
314880 On ch=10 n=59 v=50
314890 Off ch=10 n=44 v=50
314890 Off ch=10 n=36 v=64
314890 Off ch=10 n=59 v=50
315200 On ch=10 n=40 v=22
315210 Off ch=10 n=40 v=22
315280 On ch=10 n=40 v=36
315290 Off ch=10 n=40 v=36
315360 On ch=10 n=59 v=50
315360 On ch=10 n=36 v=64
315370 Off ch=10 n=59 v=50
315370 Off ch=10 n=36 v=64
315840 On ch=10 n=59 v=36
315850 Off ch=10 n=59 v=36
316320 On ch=10 n=59 v=50
316330 Off ch=10 n=59 v=50
316800 On ch=10 n=40 v=64
316800 On ch=10 n=59 v=50
316810 Off ch=10 n=40 v=64
316810 Off ch=10 n=59 v=50
317280 On ch=10 n=59 v=36
317290 Off ch=10 n=59 v=36
317760 On ch=10 n=59 v=36
317770 Off ch=10 n=59 v=36
318080 On ch=10 n=40 v=50
318090 Off ch=10 n=40 v=50
318160 On ch=10 n=40 v=36
318170 Off ch=10 n=40 v=36
318240 On ch=10 n=59 v=50
318240 On ch=10 n=36 v=78
318250 Off ch=10 n=59 v=50
318250 Off ch=10 n=36 v=78
318720 On ch=10 n=59 v=50
318730 Off ch=10 n=59 v=50
319200 On ch=10 n=59 v=50
319210 Off ch=10 n=59 v=50
319680 On ch=10 n=40 v=64
319680 On ch=10 n=59 v=50
319690 Off ch=10 n=40 v=64
319690 Off ch=10 n=59 v=50
320160 On ch=10 n=59 v=50
320170 Off ch=10 n=59 v=50
320640 On ch=10 n=59 v=50
320650 Off ch=10 n=59 v=50
321120 On ch=10 n=59 v=50
321130 Off ch=10 n=59 v=50
321600 On ch=10 n=40 v=92
321600 On ch=10 n=59 v=50
321610 Off ch=10 n=40 v=92
321610 Off ch=10 n=59 v=50
322080 On ch=10 n=59 v=50
322090 Off ch=10 n=59 v=50
322320 On ch=10 n=36 v=78
322330 Off ch=10 n=36 v=78
322560 On ch=10 n=59 v=50
322570 Off ch=10 n=59 v=50
323040 On ch=10 n=40 v=92
323040 On ch=10 n=59 v=50
323050 Off ch=10 n=40 v=92
323050 Off ch=10 n=59 v=50
323520 On ch=10 n=59 v=50
323530 Off ch=10 n=59 v=50
323760 On ch=10 n=36 v=78
323770 Off ch=10 n=36 v=78
324000 On ch=10 n=59 v=50
324010 Off ch=10 n=59 v=50
324480 On ch=10 n=40 v=92
324480 On ch=10 n=59 v=50
324490 Off ch=10 n=40 v=92
324490 Off ch=10 n=59 v=50
324960 On ch=10 n=59 v=50
324970 Off ch=10 n=59 v=50
325200 On ch=10 n=36 v=78
325210 Off ch=10 n=36 v=78
325440 On ch=10 n=36 v=78
325440 On ch=10 n=59 v=50
325450 Off ch=10 n=36 v=78
325450 Off ch=10 n=59 v=50
325920 On ch=10 n=59 v=50
325930 Off ch=10 n=59 v=50
326400 On ch=10 n=40 v=78
326400 On ch=10 n=59 v=50
326410 Off ch=10 n=40 v=78
326410 Off ch=10 n=59 v=50
326880 On ch=10 n=59 v=50
326890 Off ch=10 n=59 v=50
327120 On ch=10 n=36 v=78
327130 Off ch=10 n=36 v=78
327360 On ch=10 n=59 v=50
327370 Off ch=10 n=59 v=50
327840 On ch=10 n=40 v=78
327840 On ch=10 n=59 v=50
327850 Off ch=10 n=40 v=78
327850 Off ch=10 n=59 v=50
328320 On ch=10 n=59 v=50
328330 Off ch=10 n=59 v=50
328560 On ch=10 n=36 v=78
328570 Off ch=10 n=36 v=78
328800 On ch=10 n=59 v=50
328810 Off ch=10 n=59 v=50
329280 On ch=10 n=40 v=78
329280 On ch=10 n=59 v=50
329290 Off ch=10 n=40 v=78
329290 Off ch=10 n=59 v=50
329760 On ch=10 n=59 v=50
329770 Off ch=10 n=59 v=50
330000 On ch=10 n=36 v=78
330010 Off ch=10 n=36 v=78
330240 On ch=10 n=36 v=78
330240 On ch=10 n=59 v=50
330250 Off ch=10 n=36 v=78
330250 Off ch=10 n=59 v=50
330480 On ch=10 n=40 v=92
330490 Off ch=10 n=40 v=92
330600 On ch=10 n=40 v=78
330610 Off ch=10 n=40 v=78
330720 On ch=10 n=36 v=78
330730 Off ch=10 n=36 v=78
331200 On ch=10 n=49 v=50
331200 On ch=10 n=40 v=92
331210 Off ch=10 n=49 v=50
331210 Off ch=10 n=40 v=92
331440 On ch=10 n=40 v=64
331440 On ch=10 n=57 v=50
331450 Off ch=10 n=40 v=64
331450 Off ch=10 n=57 v=50
331680 On ch=10 n=49 v=50
331680 On ch=10 n=40 v=92
331690 Off ch=10 n=49 v=50
331690 Off ch=10 n=40 v=92
337920 On ch=10 n=49 v=64
337920 On ch=10 n=36 v=92
337930 Off ch=10 n=49 v=64
337930 Off ch=10 n=36 v=92
338400 On ch=10 n=42 v=50
338410 Off ch=10 n=42 v=50
338880 On ch=10 n=42 v=50
338890 Off ch=10 n=42 v=50
339360 On ch=10 n=42 v=64
339360 On ch=10 n=40 v=92
339370 Off ch=10 n=42 v=64
339370 Off ch=10 n=40 v=92
339840 On ch=10 n=42 v=50
339850 Off ch=10 n=42 v=50
340320 On ch=10 n=42 v=50
340330 Off ch=10 n=42 v=50
340640 On ch=10 n=40 v=50
340650 Off ch=10 n=40 v=50
340720 On ch=10 n=40 v=36
340730 Off ch=10 n=40 v=36
340800 On ch=10 n=42 v=64
340800 On ch=10 n=36 v=92
340810 Off ch=10 n=42 v=64
340810 Off ch=10 n=36 v=92
341280 On ch=10 n=36 v=64
341280 On ch=10 n=42 v=50
341290 Off ch=10 n=36 v=64
341290 Off ch=10 n=42 v=50
341760 On ch=10 n=42 v=50
341770 Off ch=10 n=42 v=50
342240 On ch=10 n=42 v=64
342240 On ch=10 n=40 v=92
342250 Off ch=10 n=42 v=64
342250 Off ch=10 n=40 v=92
342720 On ch=10 n=42 v=50
342730 Off ch=10 n=42 v=50
343200 On ch=10 n=42 v=50
343210 Off ch=10 n=42 v=50
343520 On ch=10 n=40 v=50
343530 Off ch=10 n=40 v=50
343600 On ch=10 n=40 v=36
343610 Off ch=10 n=40 v=36
343680 On ch=10 n=42 v=64
343680 On ch=10 n=36 v=92
343690 Off ch=10 n=42 v=64
343690 Off ch=10 n=36 v=92
344160 On ch=10 n=40 v=78
344160 On ch=10 n=42 v=50
344170 Off ch=10 n=40 v=78
344170 Off ch=10 n=42 v=50
344640 On ch=10 n=40 v=92
344640 On ch=10 n=42 v=50
344650 Off ch=10 n=40 v=92
344650 Off ch=10 n=42 v=50
345120 On ch=10 n=36 v=78
345120 On ch=10 n=42 v=64
345130 Off ch=10 n=36 v=78
345130 Off ch=10 n=42 v=64
345600 On ch=10 n=42 v=50
345610 Off ch=10 n=42 v=50
346080 On ch=10 n=42 v=50
346090 Off ch=10 n=42 v=50
346560 On ch=10 n=40 v=92
346560 On ch=10 n=42 v=64
346570 Off ch=10 n=40 v=92
346570 Off ch=10 n=42 v=64
347040 On ch=10 n=36 v=78
347040 On ch=10 n=42 v=50
347050 Off ch=10 n=36 v=78
347050 Off ch=10 n=42 v=50
347520 On ch=10 n=36 v=78
347520 On ch=10 n=42 v=50
347530 Off ch=10 n=36 v=78
347530 Off ch=10 n=42 v=50
348720 On ch=10 n=46 v=36
348720 On ch=10 n=59 v=36
348730 Off ch=10 n=46 v=36
348730 Off ch=10 n=59 v=36
349440 On ch=10 n=46 v=36
349440 On ch=10 n=59 v=36
349450 Off ch=10 n=46 v=36
349450 Off ch=10 n=59 v=36
350160 On ch=10 n=46 v=36
350160 On ch=10 n=59 v=36
350170 Off ch=10 n=46 v=36
350170 Off ch=10 n=59 v=36
350880 On ch=10 n=59 v=36
350880 On ch=10 n=46 v=36
350890 Off ch=10 n=59 v=36
350890 Off ch=10 n=46 v=36
351600 On ch=10 n=59 v=36
351600 On ch=10 n=46 v=36
351610 Off ch=10 n=59 v=36
351610 Off ch=10 n=46 v=36
352320 On ch=10 n=59 v=36
352320 On ch=10 n=46 v=36
352330 Off ch=10 n=59 v=36
352330 Off ch=10 n=46 v=36
352560 On ch=10 n=43 v=36
352570 Off ch=10 n=43 v=36
352800 On ch=10 n=40 v=50
352810 Off ch=10 n=40 v=50
353040 On ch=10 n=40 v=64
353050 Off ch=10 n=40 v=64
353280 On ch=10 n=43 v=50
353290 Off ch=10 n=43 v=50
353520 On ch=10 n=43 v=36
353530 Off ch=10 n=43 v=36
353760 On ch=10 n=36 v=78
353760 On ch=10 n=42 v=64
353770 Off ch=10 n=36 v=78
353770 Off ch=10 n=42 v=64
354240 On ch=10 n=42 v=50
354250 Off ch=10 n=42 v=50
354720 On ch=10 n=37 v=64
354720 On ch=10 n=42 v=50
354730 Off ch=10 n=37 v=64
354730 Off ch=10 n=42 v=50
355200 On ch=10 n=37 v=78
355200 On ch=10 n=42 v=64
355210 Off ch=10 n=37 v=78
355210 Off ch=10 n=42 v=64
355680 On ch=10 n=42 v=50
355690 Off ch=10 n=42 v=50
356160 On ch=10 n=36 v=64
356160 On ch=10 n=42 v=50
356170 Off ch=10 n=36 v=64
356170 Off ch=10 n=42 v=50
356640 On ch=10 n=36 v=78
356640 On ch=10 n=42 v=64
356650 Off ch=10 n=36 v=78
356650 Off ch=10 n=42 v=64
357120 On ch=10 n=37 v=50
357120 On ch=10 n=42 v=50
357130 Off ch=10 n=37 v=50
357130 Off ch=10 n=42 v=50
357600 On ch=10 n=37 v=64
357600 On ch=10 n=42 v=50
357610 Off ch=10 n=37 v=64
357610 Off ch=10 n=42 v=50
358080 On ch=10 n=37 v=78
358080 On ch=10 n=42 v=64
358090 Off ch=10 n=37 v=78
358090 Off ch=10 n=42 v=64
358560 On ch=10 n=42 v=50
358570 Off ch=10 n=42 v=50
359040 On ch=10 n=36 v=64
359040 On ch=10 n=42 v=50
359050 Off ch=10 n=36 v=64
359050 Off ch=10 n=42 v=50
359520 On ch=10 n=36 v=78
359520 On ch=10 n=42 v=64
359530 Off ch=10 n=36 v=78
359530 Off ch=10 n=42 v=64
360000 On ch=10 n=42 v=50
360010 Off ch=10 n=42 v=50
360480 On ch=10 n=37 v=64
360480 On ch=10 n=42 v=50
360490 Off ch=10 n=37 v=64
360490 Off ch=10 n=42 v=50
360960 On ch=10 n=37 v=78
360960 On ch=10 n=42 v=64
360970 Off ch=10 n=37 v=78
360970 Off ch=10 n=42 v=64
361440 On ch=10 n=42 v=50
361450 Off ch=10 n=42 v=50
361920 On ch=10 n=40 v=64
361920 On ch=10 n=42 v=50
361930 Off ch=10 n=40 v=64
361930 Off ch=10 n=42 v=50
362400 On ch=10 n=36 v=78
362400 On ch=10 n=42 v=64
362410 Off ch=10 n=36 v=78
362410 Off ch=10 n=42 v=64
362880 On ch=10 n=42 v=50
362890 Off ch=10 n=42 v=50
363360 On ch=10 n=36 v=64
363360 On ch=10 n=42 v=50
363370 Off ch=10 n=36 v=64
363370 Off ch=10 n=42 v=50
363840 On ch=10 n=40 v=78
363840 On ch=10 n=42 v=64
363850 Off ch=10 n=40 v=78
363850 Off ch=10 n=42 v=64
364320 On ch=10 n=42 v=50
364330 Off ch=10 n=42 v=50
364800 On ch=10 n=42 v=50
364810 Off ch=10 n=42 v=50
365120 On ch=10 n=40 v=64
365130 Off ch=10 n=40 v=64
365200 On ch=10 n=40 v=50
365210 Off ch=10 n=40 v=50
365280 On ch=10 n=36 v=78
365280 On ch=10 n=42 v=64
365290 Off ch=10 n=36 v=78
365290 Off ch=10 n=42 v=64
365760 On ch=10 n=42 v=50
365770 Off ch=10 n=42 v=50
366240 On ch=10 n=42 v=50
366250 Off ch=10 n=42 v=50
366720 On ch=10 n=40 v=78
366720 On ch=10 n=42 v=64
366730 Off ch=10 n=40 v=78
366730 Off ch=10 n=42 v=64
367200 On ch=10 n=42 v=50
367210 Off ch=10 n=42 v=50
367680 On ch=10 n=42 v=50
367690 Off ch=10 n=42 v=50
368000 On ch=10 n=40 v=64
368010 Off ch=10 n=40 v=64
368080 On ch=10 n=40 v=50
368090 Off ch=10 n=40 v=50
368160 On ch=10 n=36 v=78
368160 On ch=10 n=42 v=64
368170 Off ch=10 n=36 v=78
368170 Off ch=10 n=42 v=64
368640 On ch=10 n=42 v=50
368650 Off ch=10 n=42 v=50
369120 On ch=10 n=42 v=50
369130 Off ch=10 n=42 v=50
369600 On ch=10 n=42 v=64
369610 Off ch=10 n=42 v=64
369760 On ch=10 n=40 v=64
369770 Off ch=10 n=40 v=64
369920 On ch=10 n=36 v=64
369930 Off ch=10 n=36 v=64
370080 On ch=10 n=40 v=64
370080 On ch=10 n=42 v=50
370090 Off ch=10 n=40 v=64
370090 Off ch=10 n=42 v=50
370400 On ch=10 n=36 v=64
370400 On ch=10 n=40 v=64
370410 Off ch=10 n=36 v=64
370410 Off ch=10 n=40 v=64
370560 On ch=10 n=42 v=50
370570 Off ch=10 n=42 v=50
370720 On ch=10 n=40 v=64
370730 Off ch=10 n=40 v=64
370880 On ch=10 n=36 v=64
370890 Off ch=10 n=36 v=64
371040 On ch=10 n=49 v=64
371040 On ch=10 n=36 v=78
371050 Off ch=10 n=49 v=64
371050 Off ch=10 n=36 v=78
371520 On ch=10 n=42 v=50
371530 Off ch=10 n=42 v=50
372000 On ch=10 n=42 v=50
372010 Off ch=10 n=42 v=50
372480 On ch=10 n=40 v=78
372480 On ch=10 n=42 v=64
372490 Off ch=10 n=40 v=78
372490 Off ch=10 n=42 v=64
372960 On ch=10 n=42 v=50
372970 Off ch=10 n=42 v=50
373440 On ch=10 n=36 v=64
373440 On ch=10 n=42 v=50
373450 Off ch=10 n=36 v=64
373450 Off ch=10 n=42 v=50
373920 On ch=10 n=36 v=78
373920 On ch=10 n=42 v=64
373930 Off ch=10 n=36 v=78
373930 Off ch=10 n=42 v=64
374400 On ch=10 n=42 v=50
374410 Off ch=10 n=42 v=50
374880 On ch=10 n=42 v=50
374890 Off ch=10 n=42 v=50
375360 On ch=10 n=40 v=78
375360 On ch=10 n=42 v=64
375370 Off ch=10 n=40 v=78
375370 Off ch=10 n=42 v=64
375840 On ch=10 n=42 v=50
375850 Off ch=10 n=42 v=50
376320 On ch=10 n=42 v=50
376330 Off ch=10 n=42 v=50
376640 On ch=10 n=40 v=64
376650 Off ch=10 n=40 v=64
376720 On ch=10 n=40 v=50
376730 Off ch=10 n=40 v=50
376800 On ch=10 n=36 v=78
376800 On ch=10 n=42 v=64
376810 Off ch=10 n=36 v=78
376810 Off ch=10 n=42 v=64
377280 On ch=10 n=42 v=50
377290 Off ch=10 n=42 v=50
377760 On ch=10 n=42 v=50
377770 Off ch=10 n=42 v=50
378240 On ch=10 n=40 v=78
378240 On ch=10 n=42 v=64
378250 Off ch=10 n=40 v=78
378250 Off ch=10 n=42 v=64
378720 On ch=10 n=42 v=50
378730 Off ch=10 n=42 v=50
379200 On ch=10 n=42 v=50
379210 Off ch=10 n=42 v=50
379520 On ch=10 n=40 v=64
379530 Off ch=10 n=40 v=64
379600 On ch=10 n=40 v=50
379610 Off ch=10 n=40 v=50
379680 On ch=10 n=36 v=78
379680 On ch=10 n=42 v=64
379690 Off ch=10 n=36 v=78
379690 Off ch=10 n=42 v=64
380160 On ch=10 n=42 v=50
380170 Off ch=10 n=42 v=50
380640 On ch=10 n=42 v=50
380650 Off ch=10 n=42 v=50
381120 On ch=10 n=40 v=78
381120 On ch=10 n=42 v=64
381130 Off ch=10 n=40 v=78
381130 Off ch=10 n=42 v=64
381600 On ch=10 n=42 v=50
381610 Off ch=10 n=42 v=50
382080 On ch=10 n=42 v=50
382090 Off ch=10 n=42 v=50
382400 On ch=10 n=40 v=64
382410 Off ch=10 n=40 v=64
382480 On ch=10 n=40 v=50
382490 Off ch=10 n=40 v=50
382560 On ch=10 n=36 v=78
382560 On ch=10 n=42 v=64
382570 Off ch=10 n=36 v=78
382570 Off ch=10 n=42 v=64
383040 On ch=10 n=42 v=50
383050 Off ch=10 n=42 v=50
383520 On ch=10 n=42 v=50
383530 Off ch=10 n=42 v=50
384000 On ch=10 n=40 v=78
384000 On ch=10 n=46 v=64
384010 Off ch=10 n=40 v=78
384010 Off ch=10 n=46 v=64
384480 On ch=10 n=42 v=50
384490 Off ch=10 n=42 v=50
384960 On ch=10 n=40 v=78
384960 On ch=10 n=42 v=50
384970 Off ch=10 n=40 v=78
384970 Off ch=10 n=42 v=50
385440 On ch=10 n=40 v=92
385440 On ch=10 n=46 v=64
385450 Off ch=10 n=40 v=92
385450 Off ch=10 n=46 v=64
385920 On ch=10 n=42 v=64
385930 Off ch=10 n=42 v=64
386400 On ch=10 n=46 v=36
386400 On ch=10 n=40 v=64
386410 Off ch=10 n=46 v=36
386410 Off ch=10 n=40 v=64
386640 On ch=10 n=46 v=36
386640 On ch=10 n=40 v=64
386650 Off ch=10 n=46 v=36
386650 Off ch=10 n=40 v=64
386880 On ch=10 n=46 v=36
386880 On ch=10 n=40 v=64
386890 Off ch=10 n=46 v=36
386890 Off ch=10 n=40 v=64
387120 On ch=10 n=46 v=50
387120 On ch=10 n=40 v=78
387130 Off ch=10 n=46 v=50
387130 Off ch=10 n=40 v=78
387360 On ch=10 n=46 v=50
387360 On ch=10 n=40 v=78
387370 Off ch=10 n=46 v=50
387370 Off ch=10 n=40 v=78
387600 On ch=10 n=46 v=50
387600 On ch=10 n=40 v=78
387610 Off ch=10 n=46 v=50
387610 Off ch=10 n=40 v=78
387840 On ch=10 n=46 v=64
387840 On ch=10 n=40 v=78
387850 Off ch=10 n=46 v=64
387850 Off ch=10 n=40 v=78
388080 On ch=10 n=46 v=64
388080 On ch=10 n=40 v=78
388090 Off ch=10 n=46 v=64
388090 Off ch=10 n=40 v=78
388320 On ch=10 n=40 v=36
388320 On ch=10 n=42 v=64
388330 Off ch=10 n=40 v=36
388330 Off ch=10 n=42 v=64
388350 On ch=10 n=40 v=78
388360 Off ch=10 n=40 v=78
389760 On ch=10 n=49 v=78
389760 On ch=10 n=36 v=78
389770 Off ch=10 n=49 v=78
389770 Off ch=10 n=36 v=78
391200 On ch=10 n=40 v=36
391200 On ch=10 n=42 v=64
391210 Off ch=10 n=40 v=36
391210 Off ch=10 n=42 v=64
391230 On ch=10 n=40 v=78
391240 Off ch=10 n=40 v=78
392640 On ch=10 n=49 v=78
392640 On ch=10 n=36 v=78
392650 Off ch=10 n=49 v=78
392650 Off ch=10 n=36 v=78
393920 On ch=10 n=40 v=64
393930 Off ch=10 n=40 v=64
394000 On ch=10 n=40 v=50
394010 Off ch=10 n=40 v=50
394080 On ch=10 n=36 v=78
394080 On ch=10 n=42 v=64
394090 Off ch=10 n=36 v=78
394090 Off ch=10 n=42 v=64
394560 On ch=10 n=42 v=50
394570 Off ch=10 n=42 v=50
395040 On ch=10 n=42 v=50
395050 Off ch=10 n=42 v=50
395520 On ch=10 n=46 v=64
395520 On ch=10 n=40 v=92
395530 Off ch=10 n=46 v=64
395530 Off ch=10 n=40 v=92
396000 On ch=10 n=42 v=50
396010 Off ch=10 n=42 v=50
396480 On ch=10 n=42 v=50
396490 Off ch=10 n=42 v=50
396800 On ch=10 n=40 v=64
396810 Off ch=10 n=40 v=64
396880 On ch=10 n=40 v=50
396890 Off ch=10 n=40 v=50
396960 On ch=10 n=36 v=78
396960 On ch=10 n=42 v=64
396970 Off ch=10 n=36 v=78
396970 Off ch=10 n=42 v=64
397440 On ch=10 n=42 v=50
397450 Off ch=10 n=42 v=50
397920 On ch=10 n=42 v=50
397930 Off ch=10 n=42 v=50
398400 On ch=10 n=46 v=50
398400 On ch=10 n=40 v=92
398410 Off ch=10 n=46 v=50
398410 Off ch=10 n=40 v=92
398880 On ch=10 n=46 v=50
398890 Off ch=10 n=46 v=50
399360 On ch=10 n=46 v=36
399370 Off ch=10 n=46 v=36
399680 On ch=10 n=40 v=64
399690 Off ch=10 n=40 v=64
399760 On ch=10 n=40 v=50
399770 Off ch=10 n=40 v=50
399840 On ch=10 n=49 v=50
399840 On ch=10 n=36 v=78
399850 Off ch=10 n=49 v=50
399850 Off ch=10 n=36 v=78
400320 On ch=10 n=59 v=50
400330 Off ch=10 n=59 v=50
400800 On ch=10 n=59 v=50
400810 Off ch=10 n=59 v=50
401280 On ch=10 n=40 v=92
401280 On ch=10 n=59 v=50
401290 Off ch=10 n=40 v=92
401290 Off ch=10 n=59 v=50
401760 On ch=10 n=59 v=50
401770 Off ch=10 n=59 v=50
402240 On ch=10 n=59 v=50
402250 Off ch=10 n=59 v=50
402560 On ch=10 n=40 v=64
402570 Off ch=10 n=40 v=64
402640 On ch=10 n=40 v=50
402650 Off ch=10 n=40 v=50
402720 On ch=10 n=59 v=50
402720 On ch=10 n=36 v=78
402730 Off ch=10 n=59 v=50
402730 Off ch=10 n=36 v=78
403200 On ch=10 n=40 v=64
403200 On ch=10 n=59 v=50
403210 Off ch=10 n=40 v=64
403210 Off ch=10 n=59 v=50
403440 On ch=10 n=40 v=64
403440 On ch=10 n=59 v=50
403450 Off ch=10 n=40 v=64
403450 Off ch=10 n=59 v=50
403680 On ch=10 n=40 v=64
403680 On ch=10 n=59 v=50
403690 Off ch=10 n=40 v=64
403690 Off ch=10 n=59 v=50
403920 On ch=10 n=40 v=64
403920 On ch=10 n=59 v=50
403930 Off ch=10 n=40 v=64
403930 Off ch=10 n=59 v=50
404160 On ch=10 n=40 v=78
404160 On ch=10 n=59 v=50
404170 Off ch=10 n=40 v=78
404170 Off ch=10 n=59 v=50
404400 On ch=10 n=40 v=64
404400 On ch=10 n=59 v=50
404410 Off ch=10 n=40 v=64
404410 Off ch=10 n=59 v=50
404640 On ch=10 n=40 v=78
404640 On ch=10 n=59 v=50
404650 Off ch=10 n=40 v=78
404650 Off ch=10 n=59 v=50
404880 On ch=10 n=40 v=64
404880 On ch=10 n=59 v=50
404890 Off ch=10 n=40 v=64
404890 Off ch=10 n=59 v=50
405120 On ch=10 n=40 v=78
405120 On ch=10 n=59 v=50
405130 Off ch=10 n=40 v=78
405130 Off ch=10 n=59 v=50
405480 On ch=10 n=40 v=64
405490 Off ch=10 n=40 v=64
405540 On ch=10 n=40 v=78
405550 Off ch=10 n=40 v=78
405600 On ch=10 n=40 v=106
405610 Off ch=10 n=40 v=106
405720 On ch=10 n=40 v=78
405730 Off ch=10 n=40 v=78
405840 On ch=10 n=40 v=78
405850 Off ch=10 n=40 v=78
405960 On ch=10 n=40 v=78
405970 Off ch=10 n=40 v=78
406080 On ch=10 n=40 v=106
406090 Off ch=10 n=40 v=106
406200 On ch=10 n=40 v=92
406210 Off ch=10 n=40 v=92
406320 On ch=10 n=40 v=78
406330 Off ch=10 n=40 v=78
406440 On ch=10 n=40 v=78
406450 Off ch=10 n=40 v=78
406560 On ch=10 n=45 v=78
406570 Off ch=10 n=45 v=78
406800 On ch=10 n=45 v=78
406810 Off ch=10 n=45 v=78
407040 On ch=10 n=49 v=78
407040 On ch=10 n=36 v=92
407050 Off ch=10 n=49 v=78
407050 Off ch=10 n=36 v=92
407520 On ch=10 n=59 v=64
407530 Off ch=10 n=59 v=64
408000 On ch=10 n=59 v=64
408010 Off ch=10 n=59 v=64
408360 On ch=10 n=40 v=64
408370 Off ch=10 n=40 v=64
408420 On ch=10 n=40 v=50
408430 Off ch=10 n=40 v=50
408480 On ch=10 n=40 v=92
408490 Off ch=10 n=40 v=92
408640 On ch=10 n=40 v=78
408650 Off ch=10 n=40 v=78
408800 On ch=10 n=45 v=78
408810 Off ch=10 n=45 v=78
408960 On ch=10 n=45 v=78
408970 Off ch=10 n=45 v=78
409120 On ch=10 n=43 v=78
409130 Off ch=10 n=43 v=78
409280 On ch=10 n=41 v=64
409290 Off ch=10 n=41 v=64
409440 On ch=10 n=41 v=64
409450 Off ch=10 n=41 v=64
409470 On ch=10 n=41 v=78
409480 Off ch=10 n=41 v=78
409920 On ch=10 n=49 v=78
409920 On ch=10 n=36 v=92
409930 Off ch=10 n=49 v=78
409930 Off ch=10 n=36 v=92
411360 On ch=10 n=36 v=92
411360 On ch=10 n=49 v=64
411370 Off ch=10 n=36 v=92
411370 Off ch=10 n=49 v=64
411840 On ch=10 n=59 v=64
411850 Off ch=10 n=59 v=64
412320 On ch=10 n=59 v=64
412330 Off ch=10 n=59 v=64
412800 On ch=10 n=40 v=92
412800 On ch=10 n=59 v=64
412810 Off ch=10 n=40 v=92
412810 Off ch=10 n=59 v=64
413280 On ch=10 n=59 v=64
413290 Off ch=10 n=59 v=64
413760 On ch=10 n=59 v=64
413770 Off ch=10 n=59 v=64
414080 On ch=10 n=40 v=64
414090 Off ch=10 n=40 v=64
414160 On ch=10 n=40 v=50
414170 Off ch=10 n=40 v=50
414240 On ch=10 n=59 v=64
414240 On ch=10 n=36 v=92
414250 Off ch=10 n=59 v=64
414250 Off ch=10 n=36 v=92
414720 On ch=10 n=59 v=64
414730 Off ch=10 n=59 v=64
415200 On ch=10 n=59 v=64
415210 Off ch=10 n=59 v=64
415680 On ch=10 n=40 v=92
415680 On ch=10 n=59 v=64
415690 Off ch=10 n=40 v=92
415690 Off ch=10 n=59 v=64
416160 On ch=10 n=59 v=64
416170 Off ch=10 n=59 v=64
416640 On ch=10 n=59 v=64
416650 Off ch=10 n=59 v=64
416960 On ch=10 n=40 v=64
416970 Off ch=10 n=40 v=64
417040 On ch=10 n=40 v=50
417050 Off ch=10 n=40 v=50
417120 On ch=10 n=59 v=64
417120 On ch=10 n=36 v=92
417130 Off ch=10 n=59 v=64
417130 Off ch=10 n=36 v=92
417600 On ch=10 n=59 v=64
417610 Off ch=10 n=59 v=64
418080 On ch=10 n=59 v=64
418090 Off ch=10 n=59 v=64
418560 On ch=10 n=40 v=92
418560 On ch=10 n=59 v=64
418570 Off ch=10 n=40 v=92
418570 Off ch=10 n=59 v=64
419040 On ch=10 n=59 v=64
419050 Off ch=10 n=59 v=64
419520 On ch=10 n=59 v=64
419530 Off ch=10 n=59 v=64
420000 On ch=10 n=40 v=92
420000 On ch=10 n=59 v=64
420010 Off ch=10 n=40 v=92
420010 Off ch=10 n=59 v=64
420480 On ch=10 n=40 v=92
420480 On ch=10 n=59 v=64
420490 Off ch=10 n=40 v=92
420490 Off ch=10 n=59 v=64
420720 On ch=10 n=36 v=78
420730 Off ch=10 n=36 v=78
420960 On ch=10 n=59 v=64
420970 Off ch=10 n=59 v=64
421200 On ch=10 n=36 v=78
421210 Off ch=10 n=36 v=78
421440 On ch=10 n=40 v=92
421440 On ch=10 n=59 v=64
421450 Off ch=10 n=40 v=92
421450 Off ch=10 n=59 v=64
421920 On ch=10 n=40 v=92
421920 On ch=10 n=59 v=64
421930 Off ch=10 n=40 v=92
421930 Off ch=10 n=59 v=64
422160 On ch=10 n=36 v=78
422170 Off ch=10 n=36 v=78
422400 On ch=10 n=59 v=64
422410 Off ch=10 n=59 v=64
422640 On ch=10 n=36 v=78
422650 Off ch=10 n=36 v=78
422880 On ch=10 n=49 v=64
422880 On ch=10 n=36 v=92
422890 Off ch=10 n=49 v=64
422890 Off ch=10 n=36 v=92
423360 On ch=10 n=59 v=64
423370 Off ch=10 n=59 v=64
423840 On ch=10 n=59 v=64
423850 Off ch=10 n=59 v=64
424080 On ch=10 n=36 v=78
424090 Off ch=10 n=36 v=78
424320 On ch=10 n=40 v=92
424320 On ch=10 n=59 v=64
424330 Off ch=10 n=40 v=92
424330 Off ch=10 n=59 v=64
424800 On ch=10 n=59 v=64
424810 Off ch=10 n=59 v=64
425280 On ch=10 n=59 v=64
425290 Off ch=10 n=59 v=64
425520 On ch=10 n=36 v=78
425530 Off ch=10 n=36 v=78
425760 On ch=10 n=40 v=92
425760 On ch=10 n=59 v=64
425770 Off ch=10 n=40 v=92
425770 Off ch=10 n=59 v=64
426240 On ch=10 n=59 v=64
426250 Off ch=10 n=59 v=64
426720 On ch=10 n=59 v=64
426730 Off ch=10 n=59 v=64
426960 On ch=10 n=36 v=78
426970 Off ch=10 n=36 v=78
427200 On ch=10 n=40 v=92
427200 On ch=10 n=59 v=64
427210 Off ch=10 n=40 v=92
427210 Off ch=10 n=59 v=64
427680 On ch=10 n=59 v=64
427690 Off ch=10 n=59 v=64
428160 On ch=10 n=59 v=64
428170 Off ch=10 n=59 v=64
428640 On ch=10 n=59 v=64
428650 Off ch=10 n=59 v=64
429120 On ch=10 n=40 v=92
429120 On ch=10 n=59 v=64
429130 Off ch=10 n=40 v=92
429130 Off ch=10 n=59 v=64
429600 On ch=10 n=59 v=64
429610 Off ch=10 n=59 v=64
429840 On ch=10 n=36 v=92
429850 Off ch=10 n=36 v=92
430080 On ch=10 n=59 v=64
430090 Off ch=10 n=59 v=64
430560 On ch=10 n=40 v=92
430560 On ch=10 n=59 v=64
430570 Off ch=10 n=40 v=92
430570 Off ch=10 n=59 v=64
431040 On ch=10 n=59 v=64
431050 Off ch=10 n=59 v=64
431280 On ch=10 n=36 v=92
431290 Off ch=10 n=36 v=92
431520 On ch=10 n=59 v=64
431530 Off ch=10 n=59 v=64
432000 On ch=10 n=40 v=92
432000 On ch=10 n=59 v=64
432010 Off ch=10 n=40 v=92
432010 Off ch=10 n=59 v=64
432480 On ch=10 n=59 v=64
432490 Off ch=10 n=59 v=64
432720 On ch=10 n=36 v=78
432730 Off ch=10 n=36 v=78
432960 On ch=10 n=36 v=92
432960 On ch=10 n=59 v=64
432970 Off ch=10 n=36 v=92
432970 Off ch=10 n=59 v=64
433440 On ch=10 n=59 v=64
433450 Off ch=10 n=59 v=64
433920 On ch=10 n=40 v=92
433920 On ch=10 n=59 v=64
433930 Off ch=10 n=40 v=92
433930 Off ch=10 n=59 v=64
434400 On ch=10 n=59 v=64
434410 Off ch=10 n=59 v=64
434640 On ch=10 n=36 v=92
434650 Off ch=10 n=36 v=92
434880 On ch=10 n=59 v=64
434890 Off ch=10 n=59 v=64
435360 On ch=10 n=40 v=92
435360 On ch=10 n=59 v=64
435370 Off ch=10 n=40 v=92
435370 Off ch=10 n=59 v=64
435840 On ch=10 n=59 v=64
435850 Off ch=10 n=59 v=64
436080 On ch=10 n=36 v=92
436090 Off ch=10 n=36 v=92
436320 On ch=10 n=59 v=64
436330 Off ch=10 n=59 v=64
436800 On ch=10 n=40 v=92
436800 On ch=10 n=59 v=64
436810 Off ch=10 n=40 v=92
436810 Off ch=10 n=59 v=64
437280 On ch=10 n=59 v=64
437290 Off ch=10 n=59 v=64
437520 On ch=10 n=36 v=78
437530 Off ch=10 n=36 v=78
437760 On ch=10 n=36 v=92
437760 On ch=10 n=59 v=64
437770 Off ch=10 n=36 v=92
437770 Off ch=10 n=59 v=64
438240 On ch=10 n=59 v=64
438250 Off ch=10 n=59 v=64
438720 On ch=10 n=40 v=92
438720 On ch=10 n=59 v=64
438730 Off ch=10 n=40 v=92
438730 Off ch=10 n=59 v=64
439200 On ch=10 n=59 v=64
439210 Off ch=10 n=59 v=64
439440 On ch=10 n=36 v=92
439450 Off ch=10 n=36 v=92
439680 On ch=10 n=59 v=64
439690 Off ch=10 n=59 v=64
440160 On ch=10 n=40 v=92
440160 On ch=10 n=59 v=64
440170 Off ch=10 n=40 v=92
440170 Off ch=10 n=59 v=64
440640 On ch=10 n=59 v=64
440650 Off ch=10 n=59 v=64
440880 On ch=10 n=36 v=92
440890 Off ch=10 n=36 v=92
441120 On ch=10 n=59 v=64
441130 Off ch=10 n=59 v=64
441600 On ch=10 n=59 v=64
441600 On ch=10 n=40 v=92
441610 Off ch=10 n=59 v=64
441610 Off ch=10 n=40 v=92
442080 On ch=10 n=59 v=64
442090 Off ch=10 n=59 v=64
442320 On ch=10 n=36 v=78
442330 Off ch=10 n=36 v=78
442560 On ch=10 n=38 v=67
442560 On ch=10 n=36 v=67
442760 Off ch=10 n=38 v=67
442880 Off ch=10 n=36 v=67
443040 On ch=10 n=49 v=46
443040 On ch=10 n=38 v=67
443280 Off ch=10 n=49 v=46
443280 Off ch=10 n=38 v=67
443280 On ch=10 n=57 v=46
443280 On ch=10 n=38 v=67
443520 Off ch=10 n=57 v=46
443520 Off ch=10 n=38 v=67
443520 On ch=10 n=49 v=46
443520 On ch=10 n=38 v=67
443840 Off ch=10 n=49 v=46
443840 Off ch=10 n=38 v=67
454560 On ch=10 n=49 v=87
454560 On ch=10 n=36 v=87
454980 Off ch=10 n=49 v=87
454980 Off ch=10 n=36 v=87
456240 On ch=10 n=38 v=87
456360 Off ch=10 n=38 v=87
456360 On ch=10 n=38 v=87
456480 Off ch=10 n=38 v=87
456480 On ch=10 n=38 v=87
456720 On ch=10 n=50 v=87
456720 On ch=10 n=47 v=87
456720 On ch=10 n=43 v=23
456900 Off ch=10 n=38 v=87
456960 Off ch=10 n=43 v=23
456960 On ch=10 n=43 v=87
456960 On ch=10 n=38 v=23
457140 Off ch=10 n=50 v=87
457140 Off ch=10 n=47 v=87
457200 Off ch=10 n=43 v=87
457200 Off ch=10 n=38 v=23
457200 On ch=10 n=43 v=87
457200 On ch=10 n=38 v=23
457440 On ch=10 n=49 v=66
457440 On ch=10 n=36 v=87
457620 Off ch=10 n=43 v=87
457620 Off ch=10 n=38 v=23
457860 Off ch=10 n=49 v=66
457860 Off ch=10 n=36 v=87
457920 On ch=10 n=42 v=87
458340 Off ch=10 n=42 v=87
458390 On ch=10 n=42 v=87
458810 Off ch=10 n=42 v=87
458880 On ch=10 n=43 v=2
458880 On ch=10 n=42 v=87
458880 On ch=10 n=38 v=87
459300 Off ch=10 n=42 v=87
459300 Off ch=10 n=38 v=87
459360 Off ch=10 n=43 v=2
459360 On ch=10 n=42 v=87
459360 On ch=10 n=36 v=87
459780 Off ch=10 n=42 v=87
459780 Off ch=10 n=36 v=87
459840 On ch=10 n=42 v=87
459840 On ch=10 n=36 v=87
460260 Off ch=10 n=42 v=87
460260 Off ch=10 n=36 v=87
460320 On ch=10 n=42 v=87
460320 On ch=10 n=36 v=87
460800 Off ch=10 n=42 v=87
460800 Off ch=10 n=36 v=87
460800 On ch=10 n=42 v=87
461280 Off ch=10 n=42 v=87
461280 On ch=10 n=42 v=87
461520 On ch=10 n=36 v=87
461760 Off ch=10 n=42 v=87
461760 On ch=10 n=42 v=87
461760 On ch=10 n=38 v=87
462000 Off ch=10 n=36 v=87
462240 Off ch=10 n=42 v=87
462240 Off ch=10 n=38 v=87
462240 On ch=10 n=42 v=87
462240 On ch=10 n=36 v=87
462720 Off ch=10 n=42 v=87
462720 Off ch=10 n=36 v=87
462720 On ch=10 n=42 v=87
463200 Off ch=10 n=42 v=87
463200 On ch=10 n=42 v=87
463200 On ch=10 n=36 v=87
463680 Off ch=10 n=42 v=87
463680 Off ch=10 n=36 v=87
463680 On ch=10 n=42 v=87
464160 Off ch=10 n=42 v=87
464160 On ch=10 n=42 v=87
464160 On ch=10 n=38 v=87
464500 Off ch=10 n=38 v=87
464500 On ch=10 n=38 v=87
464520 On ch=10 n=43 v=44
464580 Off ch=10 n=43 v=44
464580 Off ch=10 n=38 v=87
464580 On ch=10 n=43 v=44
464580 On ch=10 n=38 v=87
464640 Off ch=10 n=42 v=87
464640 On ch=10 n=42 v=87
464640 On ch=10 n=36 v=87
465060 Off ch=10 n=43 v=44
465060 Off ch=10 n=38 v=87
465120 Off ch=10 n=42 v=87
465120 Off ch=10 n=36 v=87
465120 On ch=10 n=36 v=87
465120 On ch=10 n=42 v=87
465590 Off ch=10 n=42 v=87
465590 On ch=10 n=42 v=87
465600 Off ch=10 n=36 v=87
466070 Off ch=10 n=42 v=87
466080 On ch=10 n=42 v=87
466080 On ch=10 n=38 v=87
466560 Off ch=10 n=42 v=87
466560 Off ch=10 n=38 v=87
466560 On ch=10 n=42 v=87
466560 On ch=10 n=36 v=87
467040 Off ch=10 n=42 v=87
467040 Off ch=10 n=36 v=87
467040 On ch=10 n=42 v=87
467040 On ch=10 n=36 v=87
467520 Off ch=10 n=42 v=87
467520 Off ch=10 n=36 v=87
468240 On ch=10 n=46 v=66
468240 On ch=10 n=36 v=87
468712 Off ch=10 n=46 v=66
468720 Off ch=10 n=36 v=87
468960 On ch=10 n=36 v=87
468970 On ch=10 n=46 v=66
469440 Off ch=10 n=36 v=87
469450 Off ch=10 n=46 v=66
469680 On ch=10 n=46 v=66
469680 On ch=10 n=36 v=87
470160 Off ch=10 n=46 v=66
470160 Off ch=10 n=36 v=87
470400 On ch=10 n=36 v=87
470418 On ch=10 n=46 v=66
470880 Off ch=10 n=36 v=87
470898 Off ch=10 n=46 v=66
471120 On ch=10 n=42 v=87
471200 Off ch=10 n=42 v=87
471240 On ch=10 n=38 v=87
471320 Off ch=10 n=38 v=87
471360 On ch=10 n=38 v=87
471360 On ch=10 n=43 v=66
471440 Off ch=10 n=38 v=87
471440 Off ch=10 n=43 v=66
471480 On ch=10 n=42 v=87
471560 Off ch=10 n=42 v=87
471590 On ch=10 n=38 v=87
471670 Off ch=10 n=38 v=87
471720 On ch=10 n=38 v=87
471800 Off ch=10 n=38 v=87
471840 On ch=10 n=46 v=87
472000 Off ch=10 n=46 v=87
472070 On ch=10 n=42 v=87
472080 On ch=10 n=38 v=87
472230 Off ch=10 n=42 v=87
472240 Off ch=10 n=38 v=87
472320 On ch=10 n=42 v=87
472400 Off ch=10 n=42 v=87
472440 On ch=10 n=38 v=87
472520 Off ch=10 n=38 v=87
472560 On ch=10 n=38 v=87
472640 Off ch=10 n=38 v=87
472680 On ch=10 n=42 v=87
472760 Off ch=10 n=42 v=87
472800 On ch=10 n=38 v=87
472880 Off ch=10 n=38 v=87
472920 On ch=10 n=38 v=87
473000 Off ch=10 n=38 v=87
473040 On ch=10 n=42 v=87
473200 Off ch=10 n=42 v=87
473280 On ch=10 n=36 v=87
473440 Off ch=10 n=36 v=87
473520 On ch=10 n=42 v=87
473600 Off ch=10 n=42 v=87
473640 On ch=10 n=38 v=87
473720 Off ch=10 n=38 v=87
473760 On ch=10 n=38 v=87
473840 Off ch=10 n=38 v=87
473880 On ch=10 n=42 v=87
473960 Off ch=10 n=42 v=87
474000 On ch=10 n=38 v=87
474080 Off ch=10 n=38 v=87
474120 On ch=10 n=38 v=87
474200 Off ch=10 n=38 v=87
474240 On ch=10 n=46 v=87
474400 Off ch=10 n=46 v=87
474480 On ch=10 n=42 v=87
474480 On ch=10 n=38 v=87
474640 Off ch=10 n=42 v=87
474640 Off ch=10 n=38 v=87
474720 On ch=10 n=42 v=87
474800 Off ch=10 n=42 v=87
474840 On ch=10 n=38 v=87
474920 Off ch=10 n=38 v=87
474960 On ch=10 n=38 v=87
475040 Off ch=10 n=38 v=87
475080 On ch=10 n=42 v=87
475160 Off ch=10 n=42 v=87
475200 On ch=10 n=38 v=87
475280 Off ch=10 n=38 v=87
475320 On ch=10 n=38 v=87
475400 Off ch=10 n=38 v=87
475440 On ch=10 n=42 v=87
475600 Off ch=10 n=42 v=87
475680 On ch=10 n=36 v=87
475840 Off ch=10 n=36 v=87
475920 On ch=10 n=42 v=87
476000 Off ch=10 n=42 v=87
476040 On ch=10 n=38 v=87
476120 Off ch=10 n=38 v=87
476160 On ch=10 n=38 v=87
476240 Off ch=10 n=38 v=87
476280 On ch=10 n=42 v=87
476360 Off ch=10 n=42 v=87
476400 On ch=10 n=38 v=87
476480 Off ch=10 n=38 v=87
476520 On ch=10 n=38 v=87
476600 Off ch=10 n=38 v=87
476640 On ch=10 n=46 v=87
476800 Off ch=10 n=46 v=87
476880 On ch=10 n=42 v=87
476880 On ch=10 n=38 v=87
477040 Off ch=10 n=42 v=87
477040 Off ch=10 n=38 v=87
477120 On ch=10 n=42 v=87
477200 Off ch=10 n=42 v=87
477240 On ch=10 n=38 v=87
477320 Off ch=10 n=38 v=87
477360 On ch=10 n=38 v=87
477440 Off ch=10 n=38 v=87
477480 On ch=10 n=42 v=87
477560 Off ch=10 n=42 v=87
477600 On ch=10 n=38 v=87
477680 Off ch=10 n=38 v=87
477720 On ch=10 n=38 v=87
477800 Off ch=10 n=38 v=87
477840 On ch=10 n=42 v=87
478000 Off ch=10 n=42 v=87
478080 On ch=10 n=36 v=87
478240 Off ch=10 n=36 v=87
478320 On ch=10 n=42 v=87
478400 Off ch=10 n=42 v=87
478440 On ch=10 n=38 v=87
478520 Off ch=10 n=38 v=87
478560 On ch=10 n=38 v=87
478640 Off ch=10 n=38 v=87
478680 On ch=10 n=42 v=87
478760 Off ch=10 n=42 v=87
478800 On ch=10 n=38 v=87
478880 Off ch=10 n=38 v=87
478920 On ch=10 n=38 v=87
479000 Off ch=10 n=38 v=87
479040 On ch=10 n=46 v=87
479200 Off ch=10 n=46 v=87
479280 On ch=10 n=42 v=87
479280 On ch=10 n=38 v=87
479440 Off ch=10 n=42 v=87
479440 Off ch=10 n=38 v=87
479520 On ch=10 n=42 v=87
479600 Off ch=10 n=42 v=87
479640 On ch=10 n=38 v=87
479720 Off ch=10 n=38 v=87
479760 On ch=10 n=38 v=87
479840 Off ch=10 n=38 v=87
479880 On ch=10 n=42 v=87
479960 Off ch=10 n=42 v=87
480000 On ch=10 n=38 v=87
480080 Off ch=10 n=38 v=87
480120 On ch=10 n=38 v=87
480200 Off ch=10 n=38 v=87
480240 On ch=10 n=42 v=87
480400 Off ch=10 n=42 v=87
480480 On ch=10 n=36 v=87
480640 Off ch=10 n=36 v=87
480720 On ch=10 n=36 v=109
480720 On ch=10 n=49 v=95
480730 Off ch=10 n=36 v=109
480730 Off ch=10 n=49 v=95
480960 On ch=10 n=40 v=91
480993 Off ch=10 n=40 v=91
481080 On ch=10 n=40 v=93
481133 Off ch=10 n=40 v=93
481200 On ch=10 n=40 v=93
481200 On ch=10 n=42 v=81
481210 Off ch=10 n=42 v=81
481230 Off ch=10 n=40 v=93
481320 On ch=10 n=40 v=91
481343 Off ch=10 n=40 v=91
481440 On ch=10 n=40 v=115
481440 On ch=10 n=36 v=109
481440 On ch=10 n=42 v=95
481450 Off ch=10 n=36 v=109
481450 Off ch=10 n=42 v=95
481470 Off ch=10 n=40 v=115
481560 On ch=10 n=40 v=91
481598 Off ch=10 n=40 v=91
481680 On ch=10 n=40 v=93
481690 Off ch=10 n=40 v=93
481800 On ch=10 n=40 v=92
481800 On ch=10 n=42 v=81
481810 Off ch=10 n=42 v=81
481818 Off ch=10 n=40 v=92
481920 On ch=10 n=40 v=95
481930 Off ch=10 n=40 v=95
482040 On ch=10 n=40 v=91
482050 Off ch=10 n=40 v=91
482160 On ch=10 n=40 v=114
482160 On ch=10 n=36 v=109
482160 On ch=10 n=42 v=95
482170 Off ch=10 n=36 v=109
482170 Off ch=10 n=42 v=95
482183 Off ch=10 n=40 v=114
482280 On ch=10 n=40 v=109
482290 Off ch=10 n=40 v=109
482400 On ch=10 n=40 v=82
482400 On ch=10 n=42 v=67
482410 Off ch=10 n=42 v=67
482443 Off ch=10 n=40 v=82
482520 On ch=10 n=40 v=81
482530 Off ch=10 n=40 v=81
482640 On ch=10 n=40 v=126
482640 On ch=10 n=36 v=95
482640 On ch=10 n=42 v=95
482650 Off ch=10 n=36 v=95
482650 Off ch=10 n=42 v=95
482685 Off ch=10 n=40 v=126
482880 On ch=10 n=40 v=60
482880 On ch=10 n=42 v=67
482890 Off ch=10 n=40 v=60
482890 Off ch=10 n=42 v=67
483120 On ch=10 n=40 v=127
483120 On ch=10 n=36 v=95
483120 On ch=10 n=42 v=95
483130 Off ch=10 n=36 v=95
483130 Off ch=10 n=42 v=95
483150 Off ch=10 n=40 v=127
483360 On ch=10 n=40 v=60
483360 On ch=10 n=42 v=67
483370 Off ch=10 n=40 v=60
483370 Off ch=10 n=42 v=67
483600 On ch=10 n=40 v=69
483600 On ch=10 n=36 v=109
483600 On ch=10 n=42 v=95
483610 Off ch=10 n=36 v=109
483610 Off ch=10 n=42 v=95
483718 Off ch=10 n=40 v=69
483720 On ch=10 n=40 v=91
483735 Off ch=10 n=40 v=91
483840 On ch=10 n=40 v=91
483873 Off ch=10 n=40 v=91
483960 On ch=10 n=40 v=93
484018 Off ch=10 n=40 v=93
484080 On ch=10 n=40 v=93
484080 On ch=10 n=42 v=81
484090 Off ch=10 n=42 v=81
484110 Off ch=10 n=40 v=93
484200 On ch=10 n=40 v=91
484223 Off ch=10 n=40 v=91
484320 On ch=10 n=40 v=115
484320 On ch=10 n=36 v=109
484320 On ch=10 n=42 v=95
484330 Off ch=10 n=36 v=109
484330 Off ch=10 n=42 v=95
484350 Off ch=10 n=40 v=115
484440 On ch=10 n=40 v=91
484478 Off ch=10 n=40 v=91
484560 On ch=10 n=40 v=93
484570 Off ch=10 n=40 v=93
484680 On ch=10 n=40 v=92
484680 On ch=10 n=42 v=81
484690 Off ch=10 n=42 v=81
484698 Off ch=10 n=40 v=92
484800 On ch=10 n=40 v=95
484810 Off ch=10 n=40 v=95
484920 On ch=10 n=40 v=91
484930 Off ch=10 n=40 v=91
485040 On ch=10 n=40 v=114
485040 On ch=10 n=36 v=109
485040 On ch=10 n=42 v=95
485050 Off ch=10 n=36 v=109
485050 Off ch=10 n=42 v=95
485063 Off ch=10 n=40 v=114
485160 On ch=10 n=40 v=109
485170 Off ch=10 n=40 v=109
485280 On ch=10 n=40 v=82
485280 On ch=10 n=42 v=67
485290 Off ch=10 n=42 v=67
485323 Off ch=10 n=40 v=82
485400 On ch=10 n=40 v=81
485410 Off ch=10 n=40 v=81
485520 On ch=10 n=40 v=126
485520 On ch=10 n=36 v=95
485520 On ch=10 n=42 v=95
485530 Off ch=10 n=36 v=95
485530 Off ch=10 n=42 v=95
485565 Off ch=10 n=40 v=126
485760 On ch=10 n=40 v=61
485760 On ch=10 n=42 v=67
485770 Off ch=10 n=40 v=61
485770 Off ch=10 n=42 v=67
486000 On ch=10 n=40 v=127
486000 On ch=10 n=36 v=95
486000 On ch=10 n=42 v=95
486010 Off ch=10 n=36 v=95
486010 Off ch=10 n=42 v=95
486030 Off ch=10 n=40 v=127
486240 On ch=10 n=40 v=60
486240 On ch=10 n=42 v=67
486250 Off ch=10 n=40 v=60
486250 Off ch=10 n=42 v=67
486480 On ch=10 n=36 v=109
486480 On ch=10 n=46 v=95
486490 Off ch=10 n=36 v=109
486490 Off ch=10 n=46 v=95
486720 On ch=10 n=40 v=91
486753 Off ch=10 n=40 v=91
486840 On ch=10 n=40 v=93
486893 Off ch=10 n=40 v=93
486960 On ch=10 n=40 v=93
486960 On ch=10 n=42 v=81
486970 Off ch=10 n=42 v=81
486990 Off ch=10 n=40 v=93
487080 On ch=10 n=40 v=91
487103 Off ch=10 n=40 v=91
487200 On ch=10 n=40 v=115
487200 On ch=10 n=36 v=109
487200 On ch=10 n=42 v=95
487210 Off ch=10 n=36 v=109
487210 Off ch=10 n=42 v=95
487230 Off ch=10 n=40 v=115
487320 On ch=10 n=40 v=91
487358 Off ch=10 n=40 v=91
487440 On ch=10 n=40 v=93
487450 Off ch=10 n=40 v=93
487560 On ch=10 n=40 v=92
487560 On ch=10 n=42 v=81
487570 Off ch=10 n=42 v=81
487578 Off ch=10 n=40 v=92
487680 On ch=10 n=40 v=95
487690 Off ch=10 n=40 v=95
487800 On ch=10 n=40 v=91
487810 Off ch=10 n=40 v=91
487920 On ch=10 n=40 v=114
487920 On ch=10 n=36 v=109
487920 On ch=10 n=42 v=95
487930 Off ch=10 n=36 v=109
487930 Off ch=10 n=42 v=95
487943 Off ch=10 n=40 v=114
488040 On ch=10 n=40 v=109
488050 Off ch=10 n=40 v=109
488160 On ch=10 n=40 v=82
488160 On ch=10 n=42 v=67
488170 Off ch=10 n=42 v=67
488203 Off ch=10 n=40 v=82
488280 On ch=10 n=40 v=81
488290 Off ch=10 n=40 v=81
488400 On ch=10 n=40 v=126
488400 On ch=10 n=36 v=95
488400 On ch=10 n=42 v=95
488410 Off ch=10 n=36 v=95
488410 Off ch=10 n=42 v=95
488445 Off ch=10 n=40 v=126
488640 On ch=10 n=40 v=60
488640 On ch=10 n=42 v=67
488650 Off ch=10 n=40 v=60
488650 Off ch=10 n=42 v=67
488880 On ch=10 n=40 v=127
488880 On ch=10 n=36 v=95
488880 On ch=10 n=42 v=95
488890 Off ch=10 n=36 v=95
488890 Off ch=10 n=42 v=95
488910 Off ch=10 n=40 v=127
489120 On ch=10 n=40 v=60
489120 On ch=10 n=42 v=67
489130 Off ch=10 n=40 v=60
489130 Off ch=10 n=42 v=67
489360 On ch=10 n=40 v=69
489360 On ch=10 n=36 v=109
489360 On ch=10 n=42 v=95
489370 Off ch=10 n=36 v=109
489370 Off ch=10 n=42 v=95
489478 Off ch=10 n=40 v=69
489480 On ch=10 n=40 v=91
489495 Off ch=10 n=40 v=91
489600 On ch=10 n=40 v=91
489633 Off ch=10 n=40 v=91
489720 On ch=10 n=40 v=93
489778 Off ch=10 n=40 v=93
489840 On ch=10 n=40 v=93
489840 On ch=10 n=42 v=81
489850 Off ch=10 n=42 v=81
489870 Off ch=10 n=40 v=93
489960 On ch=10 n=40 v=91
489983 Off ch=10 n=40 v=91
490080 On ch=10 n=40 v=115
490080 On ch=10 n=36 v=109
490080 On ch=10 n=42 v=95
490090 Off ch=10 n=36 v=109
490090 Off ch=10 n=42 v=95
490110 Off ch=10 n=40 v=115
490200 On ch=10 n=40 v=91
490238 Off ch=10 n=40 v=91
490320 On ch=10 n=40 v=93
490330 Off ch=10 n=40 v=93
490440 On ch=10 n=40 v=92
490440 On ch=10 n=42 v=81
490450 Off ch=10 n=42 v=81
490458 Off ch=10 n=40 v=92
490560 On ch=10 n=40 v=95
490570 Off ch=10 n=40 v=95
490680 On ch=10 n=40 v=91
490690 Off ch=10 n=40 v=91
490800 On ch=10 n=40 v=114
490800 On ch=10 n=36 v=109
490800 On ch=10 n=42 v=95
490810 Off ch=10 n=36 v=109
490810 Off ch=10 n=42 v=95
490823 Off ch=10 n=40 v=114
490920 On ch=10 n=40 v=109
490930 Off ch=10 n=40 v=109
491040 On ch=10 n=40 v=82
491040 On ch=10 n=42 v=67
491050 Off ch=10 n=42 v=67
491083 Off ch=10 n=40 v=82
491160 On ch=10 n=40 v=81
491170 Off ch=10 n=40 v=81
491280 On ch=10 n=40 v=126
491280 On ch=10 n=36 v=95
491280 On ch=10 n=42 v=95
491290 Off ch=10 n=36 v=95
491290 Off ch=10 n=42 v=95
491325 Off ch=10 n=40 v=126
491520 On ch=10 n=40 v=61
491520 On ch=10 n=42 v=67
491530 Off ch=10 n=40 v=61
491530 Off ch=10 n=42 v=67
491760 On ch=10 n=40 v=127
491760 On ch=10 n=36 v=95
491760 On ch=10 n=42 v=95
491770 Off ch=10 n=36 v=95
491770 Off ch=10 n=42 v=95
491790 Off ch=10 n=40 v=127
492000 On ch=10 n=40 v=60
492000 On ch=10 n=42 v=67
492010 Off ch=10 n=40 v=60
492010 Off ch=10 n=42 v=67
492240 On ch=10 n=42 v=87
492320 Off ch=10 n=42 v=87
492360 On ch=10 n=38 v=87
492440 Off ch=10 n=38 v=87
492480 On ch=10 n=38 v=87
492480 On ch=10 n=43 v=66
492560 Off ch=10 n=38 v=87
492560 Off ch=10 n=43 v=66
492600 On ch=10 n=42 v=87
492680 Off ch=10 n=42 v=87
492710 On ch=10 n=38 v=87
492790 Off ch=10 n=38 v=87
492840 On ch=10 n=38 v=87
492920 Off ch=10 n=38 v=87
492960 On ch=10 n=46 v=87
493120 Off ch=10 n=46 v=87
493190 On ch=10 n=42 v=87
493200 On ch=10 n=38 v=87
493350 Off ch=10 n=42 v=87
493360 Off ch=10 n=38 v=87
493440 On ch=10 n=42 v=87
493520 Off ch=10 n=42 v=87
493560 On ch=10 n=38 v=87
493640 Off ch=10 n=38 v=87
493680 On ch=10 n=38 v=87
493760 Off ch=10 n=38 v=87
493800 On ch=10 n=42 v=87
493880 Off ch=10 n=42 v=87
493920 On ch=10 n=38 v=87
494000 Off ch=10 n=38 v=87
494040 On ch=10 n=38 v=87
494120 Off ch=10 n=38 v=87
494160 On ch=10 n=42 v=87
494320 Off ch=10 n=42 v=87
494400 On ch=10 n=36 v=87
494560 Off ch=10 n=36 v=87
494640 On ch=10 n=42 v=87
494720 Off ch=10 n=42 v=87
494760 On ch=10 n=38 v=87
494840 Off ch=10 n=38 v=87
494880 On ch=10 n=38 v=87
494960 Off ch=10 n=38 v=87
495000 On ch=10 n=42 v=87
495080 Off ch=10 n=42 v=87
495120 On ch=10 n=38 v=87
495200 Off ch=10 n=38 v=87
495240 On ch=10 n=38 v=87
495320 Off ch=10 n=38 v=87
495360 On ch=10 n=46 v=87
495520 Off ch=10 n=46 v=87
495600 On ch=10 n=42 v=87
495600 On ch=10 n=38 v=87
495760 Off ch=10 n=42 v=87
495760 Off ch=10 n=38 v=87
495840 On ch=10 n=42 v=87
495920 Off ch=10 n=42 v=87
495960 On ch=10 n=38 v=87
496040 Off ch=10 n=38 v=87
496080 On ch=10 n=38 v=87
496160 Off ch=10 n=38 v=87
496200 On ch=10 n=42 v=87
496280 Off ch=10 n=42 v=87
496320 On ch=10 n=38 v=87
496400 Off ch=10 n=38 v=87
496440 On ch=10 n=38 v=87
496520 Off ch=10 n=38 v=87
496560 On ch=10 n=42 v=87
496720 Off ch=10 n=42 v=87
496800 On ch=10 n=36 v=87
496960 Off ch=10 n=36 v=87
497040 On ch=10 n=42 v=87
497120 Off ch=10 n=42 v=87
497160 On ch=10 n=38 v=87
497240 Off ch=10 n=38 v=87
497280 On ch=10 n=38 v=87
497360 Off ch=10 n=38 v=87
497400 On ch=10 n=42 v=87
497480 Off ch=10 n=42 v=87
497520 On ch=10 n=38 v=87
497600 Off ch=10 n=38 v=87
497640 On ch=10 n=38 v=87
497720 Off ch=10 n=38 v=87
497760 On ch=10 n=46 v=87
497920 Off ch=10 n=46 v=87
498000 On ch=10 n=42 v=87
498000 On ch=10 n=38 v=87
498160 Off ch=10 n=42 v=87
498160 Off ch=10 n=38 v=87
498240 On ch=10 n=42 v=87
498320 Off ch=10 n=42 v=87
498360 On ch=10 n=38 v=87
498440 Off ch=10 n=38 v=87
498480 On ch=10 n=38 v=87
498560 Off ch=10 n=38 v=87
498600 On ch=10 n=42 v=87
498680 Off ch=10 n=42 v=87
498720 On ch=10 n=38 v=87
498800 Off ch=10 n=38 v=87
498840 On ch=10 n=38 v=87
498920 Off ch=10 n=38 v=87
498960 On ch=10 n=42 v=87
499120 Off ch=10 n=42 v=87
499200 On ch=10 n=36 v=87
499360 Off ch=10 n=36 v=87
499440 On ch=10 n=42 v=87
499520 Off ch=10 n=42 v=87
499560 On ch=10 n=38 v=87
499640 Off ch=10 n=38 v=87
499680 On ch=10 n=38 v=87
499760 Off ch=10 n=38 v=87
499800 On ch=10 n=42 v=87
499880 Off ch=10 n=42 v=87
499920 On ch=10 n=38 v=87
500000 Off ch=10 n=38 v=87
500040 On ch=10 n=38 v=87
500120 Off ch=10 n=38 v=87
500160 On ch=10 n=46 v=87
500320 Off ch=10 n=46 v=87
500400 On ch=10 n=42 v=87
500400 On ch=10 n=38 v=87
500560 Off ch=10 n=42 v=87
500560 Off ch=10 n=38 v=87
500640 On ch=10 n=42 v=87
500720 Off ch=10 n=42 v=87
500760 On ch=10 n=38 v=87
500840 Off ch=10 n=38 v=87
500880 On ch=10 n=38 v=87
500960 Off ch=10 n=38 v=87
501000 On ch=10 n=42 v=87
501080 Off ch=10 n=42 v=87
501120 On ch=10 n=38 v=87
501200 Off ch=10 n=38 v=87
501240 On ch=10 n=38 v=87
501320 Off ch=10 n=38 v=87
501360 On ch=10 n=42 v=87
501520 Off ch=10 n=42 v=87
501600 On ch=10 n=36 v=87
501760 Off ch=10 n=36 v=87
501840 On ch=10 n=36 v=109
501840 On ch=10 n=49 v=95
501850 Off ch=10 n=36 v=109
501850 Off ch=10 n=49 v=95
502080 On ch=10 n=40 v=91
502113 Off ch=10 n=40 v=91
502200 On ch=10 n=40 v=93
502253 Off ch=10 n=40 v=93
502320 On ch=10 n=40 v=93
502320 On ch=10 n=42 v=81
502330 Off ch=10 n=42 v=81
502350 Off ch=10 n=40 v=93
502440 On ch=10 n=40 v=91
502463 Off ch=10 n=40 v=91
502560 On ch=10 n=40 v=115
502560 On ch=10 n=36 v=109
502560 On ch=10 n=42 v=95
502570 Off ch=10 n=36 v=109
502570 Off ch=10 n=42 v=95
502590 Off ch=10 n=40 v=115
502680 On ch=10 n=40 v=91
502718 Off ch=10 n=40 v=91
502800 On ch=10 n=40 v=93
502810 Off ch=10 n=40 v=93
502920 On ch=10 n=40 v=92
502920 On ch=10 n=42 v=81
502930 Off ch=10 n=42 v=81
502938 Off ch=10 n=40 v=92
503040 On ch=10 n=40 v=95
503050 Off ch=10 n=40 v=95
503160 On ch=10 n=40 v=91
503170 Off ch=10 n=40 v=91
503280 On ch=10 n=40 v=114
503280 On ch=10 n=36 v=109
503280 On ch=10 n=42 v=95
503290 Off ch=10 n=36 v=109
503290 Off ch=10 n=42 v=95
503303 Off ch=10 n=40 v=114
503400 On ch=10 n=40 v=109
503410 Off ch=10 n=40 v=109
503520 On ch=10 n=40 v=82
503520 On ch=10 n=42 v=67
503530 Off ch=10 n=42 v=67
503563 Off ch=10 n=40 v=82
503640 On ch=10 n=40 v=81
503650 Off ch=10 n=40 v=81
503760 On ch=10 n=40 v=126
503760 On ch=10 n=36 v=95
503760 On ch=10 n=42 v=95
503770 Off ch=10 n=36 v=95
503770 Off ch=10 n=42 v=95
503805 Off ch=10 n=40 v=126
504000 On ch=10 n=40 v=60
504000 On ch=10 n=42 v=67
504010 Off ch=10 n=40 v=60
504010 Off ch=10 n=42 v=67
504240 On ch=10 n=40 v=127
504240 On ch=10 n=36 v=95
504240 On ch=10 n=42 v=95
504250 Off ch=10 n=36 v=95
504250 Off ch=10 n=42 v=95
504270 Off ch=10 n=40 v=127
504480 On ch=10 n=40 v=60
504480 On ch=10 n=42 v=67
504490 Off ch=10 n=40 v=60
504490 Off ch=10 n=42 v=67
504720 On ch=10 n=40 v=69
504720 On ch=10 n=36 v=109
504720 On ch=10 n=42 v=95
504730 Off ch=10 n=36 v=109
504730 Off ch=10 n=42 v=95
504838 Off ch=10 n=40 v=69
504840 On ch=10 n=40 v=91
504855 Off ch=10 n=40 v=91
504960 On ch=10 n=40 v=91
504993 Off ch=10 n=40 v=91
505080 On ch=10 n=40 v=93
505138 Off ch=10 n=40 v=93
505200 On ch=10 n=40 v=93
505200 On ch=10 n=42 v=81
505210 Off ch=10 n=42 v=81
505230 Off ch=10 n=40 v=93
505320 On ch=10 n=40 v=91
505343 Off ch=10 n=40 v=91
505440 On ch=10 n=40 v=115
505440 On ch=10 n=36 v=109
505440 On ch=10 n=42 v=95
505450 Off ch=10 n=36 v=109
505450 Off ch=10 n=42 v=95
505470 Off ch=10 n=40 v=115
505560 On ch=10 n=40 v=91
505598 Off ch=10 n=40 v=91
505680 On ch=10 n=40 v=93
505690 Off ch=10 n=40 v=93
505800 On ch=10 n=40 v=92
505800 On ch=10 n=42 v=81
505810 Off ch=10 n=42 v=81
505818 Off ch=10 n=40 v=92
505920 On ch=10 n=40 v=95
505930 Off ch=10 n=40 v=95
506040 On ch=10 n=40 v=91
506050 Off ch=10 n=40 v=91
506160 On ch=10 n=40 v=114
506160 On ch=10 n=36 v=109
506160 On ch=10 n=42 v=95
506170 Off ch=10 n=36 v=109
506170 Off ch=10 n=42 v=95
506183 Off ch=10 n=40 v=114
506280 On ch=10 n=40 v=109
506290 Off ch=10 n=40 v=109
506400 On ch=10 n=40 v=82
506400 On ch=10 n=42 v=67
506410 Off ch=10 n=42 v=67
506443 Off ch=10 n=40 v=82
506520 On ch=10 n=40 v=81
506530 Off ch=10 n=40 v=81
506640 On ch=10 n=40 v=126
506640 On ch=10 n=36 v=95
506640 On ch=10 n=42 v=95
506650 Off ch=10 n=36 v=95
506650 Off ch=10 n=42 v=95
506685 Off ch=10 n=40 v=126
506880 On ch=10 n=40 v=61
506880 On ch=10 n=42 v=67
506890 Off ch=10 n=40 v=61
506890 Off ch=10 n=42 v=67
507120 On ch=10 n=40 v=127
507120 On ch=10 n=36 v=95
507120 On ch=10 n=42 v=95
507130 Off ch=10 n=36 v=95
507130 Off ch=10 n=42 v=95
507150 Off ch=10 n=40 v=127
507360 On ch=10 n=40 v=60
507360 On ch=10 n=42 v=67
507370 Off ch=10 n=40 v=60
507370 Off ch=10 n=42 v=67
507600 On ch=10 n=36 v=109
507600 On ch=10 n=46 v=95
507610 Off ch=10 n=36 v=109
507610 Off ch=10 n=46 v=95
507840 On ch=10 n=40 v=91
507873 Off ch=10 n=40 v=91
507960 On ch=10 n=40 v=93
508013 Off ch=10 n=40 v=93
508080 On ch=10 n=40 v=93
508080 On ch=10 n=42 v=81
508090 Off ch=10 n=42 v=81
508110 Off ch=10 n=40 v=93
508200 On ch=10 n=40 v=91
508223 Off ch=10 n=40 v=91
508320 On ch=10 n=40 v=115
508320 On ch=10 n=36 v=109
508320 On ch=10 n=42 v=95
508330 Off ch=10 n=36 v=109
508330 Off ch=10 n=42 v=95
508350 Off ch=10 n=40 v=115
508440 On ch=10 n=40 v=91
508478 Off ch=10 n=40 v=91
508560 On ch=10 n=40 v=93
508570 Off ch=10 n=40 v=93
508680 On ch=10 n=40 v=92
508680 On ch=10 n=42 v=81
508690 Off ch=10 n=42 v=81
508698 Off ch=10 n=40 v=92
508800 On ch=10 n=40 v=95
508810 Off ch=10 n=40 v=95
508920 On ch=10 n=40 v=91
508930 Off ch=10 n=40 v=91
509040 On ch=10 n=40 v=114
509040 On ch=10 n=36 v=109
509040 On ch=10 n=42 v=95
509050 Off ch=10 n=36 v=109
509050 Off ch=10 n=42 v=95
509063 Off ch=10 n=40 v=114
509160 On ch=10 n=40 v=109
509170 Off ch=10 n=40 v=109
509280 On ch=10 n=40 v=82
509280 On ch=10 n=42 v=67
509290 Off ch=10 n=42 v=67
509323 Off ch=10 n=40 v=82
509400 On ch=10 n=40 v=81
509410 Off ch=10 n=40 v=81
509520 On ch=10 n=40 v=126
509520 On ch=10 n=36 v=95
509520 On ch=10 n=42 v=95
509530 Off ch=10 n=36 v=95
509530 Off ch=10 n=42 v=95
509565 Off ch=10 n=40 v=126
509760 On ch=10 n=40 v=60
509760 On ch=10 n=42 v=67
509770 Off ch=10 n=40 v=60
509770 Off ch=10 n=42 v=67
510000 On ch=10 n=40 v=127
510000 On ch=10 n=36 v=95
510000 On ch=10 n=42 v=95
510010 Off ch=10 n=36 v=95
510010 Off ch=10 n=42 v=95
510030 Off ch=10 n=40 v=127
510240 On ch=10 n=40 v=60
510240 On ch=10 n=42 v=67
510250 Off ch=10 n=40 v=60
510250 Off ch=10 n=42 v=67
510480 On ch=10 n=40 v=69
510480 On ch=10 n=36 v=109
510480 On ch=10 n=42 v=95
510490 Off ch=10 n=36 v=109
510490 Off ch=10 n=42 v=95
510598 Off ch=10 n=40 v=69
510600 On ch=10 n=40 v=91
510615 Off ch=10 n=40 v=91
510720 On ch=10 n=40 v=91
510753 Off ch=10 n=40 v=91
510840 On ch=10 n=40 v=93
510898 Off ch=10 n=40 v=93
510960 On ch=10 n=40 v=93
510960 On ch=10 n=42 v=81
510970 Off ch=10 n=42 v=81
510990 Off ch=10 n=40 v=93
511080 On ch=10 n=40 v=91
511103 Off ch=10 n=40 v=91
511200 On ch=10 n=40 v=115
511200 On ch=10 n=36 v=109
511200 On ch=10 n=42 v=95
511210 Off ch=10 n=36 v=109
511210 Off ch=10 n=42 v=95
511230 Off ch=10 n=40 v=115
511320 On ch=10 n=40 v=91
511358 Off ch=10 n=40 v=91
511440 On ch=10 n=40 v=93
511450 Off ch=10 n=40 v=93
511560 On ch=10 n=40 v=92
511560 On ch=10 n=42 v=81
511570 Off ch=10 n=42 v=81
511578 Off ch=10 n=40 v=92
511680 On ch=10 n=40 v=95
511690 Off ch=10 n=40 v=95
511800 On ch=10 n=40 v=91
511810 Off ch=10 n=40 v=91
511920 On ch=10 n=40 v=114
511920 On ch=10 n=36 v=109
511920 On ch=10 n=42 v=95
511930 Off ch=10 n=36 v=109
511930 Off ch=10 n=42 v=95
511943 Off ch=10 n=40 v=114
512040 On ch=10 n=40 v=109
512050 Off ch=10 n=40 v=109
512160 On ch=10 n=40 v=82
512160 On ch=10 n=42 v=67
512170 Off ch=10 n=42 v=67
512203 Off ch=10 n=40 v=82
512280 On ch=10 n=40 v=81
512290 Off ch=10 n=40 v=81
512400 On ch=10 n=40 v=126
512400 On ch=10 n=36 v=95
512400 On ch=10 n=42 v=95
512410 Off ch=10 n=36 v=95
512410 Off ch=10 n=42 v=95
512445 Off ch=10 n=40 v=126
512640 On ch=10 n=40 v=61
512640 On ch=10 n=42 v=67
512650 Off ch=10 n=40 v=61
512650 Off ch=10 n=42 v=67
512880 On ch=10 n=40 v=127
512880 On ch=10 n=36 v=95
512880 On ch=10 n=42 v=95
512890 Off ch=10 n=36 v=95
512890 Off ch=10 n=42 v=95
512910 Off ch=10 n=40 v=127
513120 On ch=10 n=40 v=60
513120 On ch=10 n=42 v=67
513130 Off ch=10 n=40 v=60
513130 Off ch=10 n=42 v=67
513360 On ch=10 n=42 v=87
513440 Off ch=10 n=42 v=87
513480 On ch=10 n=38 v=87
513560 Off ch=10 n=38 v=87
513600 On ch=10 n=38 v=87
513600 On ch=10 n=43 v=66
513680 Off ch=10 n=38 v=87
513680 Off ch=10 n=43 v=66
513720 On ch=10 n=42 v=87
513800 Off ch=10 n=42 v=87
513830 On ch=10 n=38 v=87
513910 Off ch=10 n=38 v=87
513960 On ch=10 n=38 v=87
514040 Off ch=10 n=38 v=87
514080 On ch=10 n=46 v=87
514240 Off ch=10 n=46 v=87
514310 On ch=10 n=42 v=87
514320 On ch=10 n=38 v=87
514470 Off ch=10 n=42 v=87
514480 Off ch=10 n=38 v=87
514560 On ch=10 n=42 v=87
514640 Off ch=10 n=42 v=87
514680 On ch=10 n=38 v=87
514760 Off ch=10 n=38 v=87
514800 On ch=10 n=38 v=87
514880 Off ch=10 n=38 v=87
514920 On ch=10 n=42 v=87
515000 Off ch=10 n=42 v=87
515040 On ch=10 n=38 v=87
515120 Off ch=10 n=38 v=87
515160 On ch=10 n=38 v=87
515240 Off ch=10 n=38 v=87
515280 On ch=10 n=42 v=87
515440 Off ch=10 n=42 v=87
515520 On ch=10 n=36 v=87
515680 Off ch=10 n=36 v=87
515760 On ch=10 n=42 v=87
515840 Off ch=10 n=42 v=87
515880 On ch=10 n=38 v=87
515960 Off ch=10 n=38 v=87
516000 On ch=10 n=38 v=87
516080 Off ch=10 n=38 v=87
516120 On ch=10 n=42 v=87
516200 Off ch=10 n=42 v=87
516240 On ch=10 n=38 v=87
516320 Off ch=10 n=38 v=87
516360 On ch=10 n=38 v=87
516440 Off ch=10 n=38 v=87
516480 On ch=10 n=46 v=87
516640 Off ch=10 n=46 v=87
516720 On ch=10 n=42 v=87
516720 On ch=10 n=38 v=87
516880 Off ch=10 n=42 v=87
516880 Off ch=10 n=38 v=87
516960 On ch=10 n=42 v=87
517040 Off ch=10 n=42 v=87
517080 On ch=10 n=38 v=87
517160 Off ch=10 n=38 v=87
517200 On ch=10 n=38 v=87
517280 Off ch=10 n=38 v=87
517320 On ch=10 n=42 v=87
517400 Off ch=10 n=42 v=87
517440 On ch=10 n=38 v=87
517520 Off ch=10 n=38 v=87
517560 On ch=10 n=38 v=87
517640 Off ch=10 n=38 v=87
517680 On ch=10 n=42 v=87
517840 Off ch=10 n=42 v=87
517920 On ch=10 n=36 v=87
518080 Off ch=10 n=36 v=87
518160 On ch=10 n=36 v=109
518160 On ch=10 n=49 v=95
518170 Off ch=10 n=36 v=109
518170 Off ch=10 n=49 v=95
518400 On ch=10 n=40 v=91
518433 Off ch=10 n=40 v=91
518520 On ch=10 n=40 v=93
518573 Off ch=10 n=40 v=93
518640 On ch=10 n=40 v=93
518640 On ch=10 n=42 v=81
518650 Off ch=10 n=42 v=81
518670 Off ch=10 n=40 v=93
518760 On ch=10 n=40 v=91
518783 Off ch=10 n=40 v=91
518880 On ch=10 n=40 v=115
518880 On ch=10 n=36 v=109
518880 On ch=10 n=42 v=95
518890 Off ch=10 n=36 v=109
518890 Off ch=10 n=42 v=95
518910 Off ch=10 n=40 v=115
519000 On ch=10 n=40 v=91
519038 Off ch=10 n=40 v=91
519120 On ch=10 n=40 v=93
519130 Off ch=10 n=40 v=93
519240 On ch=10 n=40 v=92
519240 On ch=10 n=42 v=81
519250 Off ch=10 n=42 v=81
519258 Off ch=10 n=40 v=92
519360 On ch=10 n=40 v=95
519370 Off ch=10 n=40 v=95
519480 On ch=10 n=40 v=91
519490 Off ch=10 n=40 v=91
519600 On ch=10 n=40 v=114
519600 On ch=10 n=36 v=109
519600 On ch=10 n=42 v=95
519610 Off ch=10 n=36 v=109
519610 Off ch=10 n=42 v=95
519623 Off ch=10 n=40 v=114
519720 On ch=10 n=40 v=109
519730 Off ch=10 n=40 v=109
519840 On ch=10 n=40 v=82
519840 On ch=10 n=42 v=67
519850 Off ch=10 n=42 v=67
519883 Off ch=10 n=40 v=82
519960 On ch=10 n=40 v=81
519970 Off ch=10 n=40 v=81
520080 On ch=10 n=40 v=126
520080 On ch=10 n=36 v=95
520080 On ch=10 n=42 v=95
520090 Off ch=10 n=36 v=95
520090 Off ch=10 n=42 v=95
520125 Off ch=10 n=40 v=126
520320 On ch=10 n=40 v=60
520320 On ch=10 n=42 v=67
520330 Off ch=10 n=40 v=60
520330 Off ch=10 n=42 v=67
520560 On ch=10 n=40 v=127
520560 On ch=10 n=36 v=95
520560 On ch=10 n=42 v=95
520570 Off ch=10 n=36 v=95
520570 Off ch=10 n=42 v=95
520590 Off ch=10 n=40 v=127
520800 On ch=10 n=40 v=60
520800 On ch=10 n=42 v=67
520810 Off ch=10 n=40 v=60
520810 Off ch=10 n=42 v=67
521040 On ch=10 n=40 v=69
521040 On ch=10 n=36 v=109
521040 On ch=10 n=42 v=95
521050 Off ch=10 n=36 v=109
521050 Off ch=10 n=42 v=95
521158 Off ch=10 n=40 v=69
521160 On ch=10 n=40 v=91
521175 Off ch=10 n=40 v=91
521280 On ch=10 n=40 v=91
521313 Off ch=10 n=40 v=91
521400 On ch=10 n=40 v=93
521458 Off ch=10 n=40 v=93
521520 On ch=10 n=40 v=93
521520 On ch=10 n=42 v=81
521530 Off ch=10 n=42 v=81
521550 Off ch=10 n=40 v=93
521640 On ch=10 n=40 v=91
521663 Off ch=10 n=40 v=91
521760 On ch=10 n=40 v=115
521760 On ch=10 n=36 v=109
521760 On ch=10 n=42 v=95
521770 Off ch=10 n=36 v=109
521770 Off ch=10 n=42 v=95
521790 Off ch=10 n=40 v=115
521880 On ch=10 n=40 v=91
521918 Off ch=10 n=40 v=91
522000 On ch=10 n=40 v=93
522010 Off ch=10 n=40 v=93
522120 On ch=10 n=40 v=92
522120 On ch=10 n=42 v=81
522130 Off ch=10 n=42 v=81
522138 Off ch=10 n=40 v=92
522240 On ch=10 n=40 v=95
522250 Off ch=10 n=40 v=95
522360 On ch=10 n=40 v=91
522370 Off ch=10 n=40 v=91
522480 On ch=10 n=40 v=114
522480 On ch=10 n=36 v=109
522480 On ch=10 n=42 v=95
522490 Off ch=10 n=36 v=109
522490 Off ch=10 n=42 v=95
522503 Off ch=10 n=40 v=114
522600 On ch=10 n=40 v=109
522610 Off ch=10 n=40 v=109
522720 On ch=10 n=40 v=82
522720 On ch=10 n=42 v=67
522730 Off ch=10 n=42 v=67
522763 Off ch=10 n=40 v=82
522840 On ch=10 n=40 v=81
522850 Off ch=10 n=40 v=81
522960 On ch=10 n=40 v=126
522960 On ch=10 n=36 v=95
522960 On ch=10 n=42 v=95
522970 Off ch=10 n=36 v=95
522970 Off ch=10 n=42 v=95
523005 Off ch=10 n=40 v=126
523200 On ch=10 n=40 v=61
523200 On ch=10 n=42 v=67
523210 Off ch=10 n=40 v=61
523210 Off ch=10 n=42 v=67
523440 On ch=10 n=40 v=127
523440 On ch=10 n=36 v=95
523440 On ch=10 n=42 v=95
523450 Off ch=10 n=36 v=95
523450 Off ch=10 n=42 v=95
523470 Off ch=10 n=40 v=127
523680 On ch=10 n=40 v=60
523680 On ch=10 n=42 v=67
523690 Off ch=10 n=40 v=60
523690 Off ch=10 n=42 v=67
523920 On ch=10 n=42 v=87
524000 Off ch=10 n=42 v=87
524040 On ch=10 n=38 v=87
524120 Off ch=10 n=38 v=87
524160 On ch=10 n=38 v=87
524160 On ch=10 n=43 v=66
524240 Off ch=10 n=38 v=87
524240 Off ch=10 n=43 v=66
524280 On ch=10 n=42 v=87
524360 Off ch=10 n=42 v=87
524390 On ch=10 n=38 v=87
524470 Off ch=10 n=38 v=87
524520 On ch=10 n=38 v=87
524600 Off ch=10 n=38 v=87
524640 On ch=10 n=46 v=87
524800 Off ch=10 n=46 v=87
524870 On ch=10 n=42 v=87
524880 On ch=10 n=38 v=87
525030 Off ch=10 n=42 v=87
525040 Off ch=10 n=38 v=87
525120 On ch=10 n=42 v=87
525200 Off ch=10 n=42 v=87
525240 On ch=10 n=38 v=87
525320 Off ch=10 n=38 v=87
525360 On ch=10 n=38 v=87
525440 Off ch=10 n=38 v=87
525480 On ch=10 n=42 v=87
525560 Off ch=10 n=42 v=87
525600 On ch=10 n=38 v=87
525680 Off ch=10 n=38 v=87
525720 On ch=10 n=38 v=87
525800 Off ch=10 n=38 v=87
525840 On ch=10 n=42 v=87
526000 Off ch=10 n=42 v=87
526080 On ch=10 n=36 v=87
526240 Off ch=10 n=36 v=87
526320 On ch=10 n=42 v=87
526400 Off ch=10 n=42 v=87
526440 On ch=10 n=38 v=87
526520 Off ch=10 n=38 v=87
526560 On ch=10 n=38 v=87
526640 Off ch=10 n=38 v=87
526680 On ch=10 n=42 v=87
526760 Off ch=10 n=42 v=87
526800 On ch=10 n=38 v=87
526880 Off ch=10 n=38 v=87
526920 On ch=10 n=38 v=87
527000 Off ch=10 n=38 v=87
527040 On ch=10 n=46 v=87
527200 Off ch=10 n=46 v=87
527280 On ch=10 n=42 v=87
527280 On ch=10 n=38 v=87
527440 Off ch=10 n=42 v=87
527440 Off ch=10 n=38 v=87
527520 On ch=10 n=42 v=87
527600 Off ch=10 n=42 v=87
527640 On ch=10 n=38 v=87
527720 Off ch=10 n=38 v=87
527760 On ch=10 n=38 v=87
527840 Off ch=10 n=38 v=87
527880 On ch=10 n=42 v=87
527960 Off ch=10 n=42 v=87
528000 On ch=10 n=38 v=87
528080 Off ch=10 n=38 v=87
528120 On ch=10 n=38 v=87
528200 Off ch=10 n=38 v=87
528240 On ch=10 n=42 v=87
528400 Off ch=10 n=42 v=87
528480 On ch=10 n=36 v=87
528640 Off ch=10 n=36 v=87
528720 On ch=10 n=36 v=109
528720 On ch=10 n=49 v=95
528730 Off ch=10 n=36 v=109
528730 Off ch=10 n=49 v=95
528960 On ch=10 n=40 v=91
528993 Off ch=10 n=40 v=91
529080 On ch=10 n=40 v=93
529133 Off ch=10 n=40 v=93
529200 On ch=10 n=40 v=93
529200 On ch=10 n=42 v=81
529210 Off ch=10 n=42 v=81
529230 Off ch=10 n=40 v=93
529320 On ch=10 n=40 v=91
529343 Off ch=10 n=40 v=91
529440 On ch=10 n=40 v=115
529440 On ch=10 n=36 v=109
529440 On ch=10 n=42 v=95
529450 Off ch=10 n=36 v=109
529450 Off ch=10 n=42 v=95
529470 Off ch=10 n=40 v=115
529560 On ch=10 n=40 v=91
529598 Off ch=10 n=40 v=91
529680 On ch=10 n=40 v=93
529690 Off ch=10 n=40 v=93
529800 On ch=10 n=40 v=92
529800 On ch=10 n=42 v=81
529810 Off ch=10 n=42 v=81
529818 Off ch=10 n=40 v=92
529920 On ch=10 n=40 v=95
529930 Off ch=10 n=40 v=95
530040 On ch=10 n=40 v=91
530050 Off ch=10 n=40 v=91
530160 On ch=10 n=40 v=114
530160 On ch=10 n=36 v=109
530160 On ch=10 n=42 v=95
530170 Off ch=10 n=36 v=109
530170 Off ch=10 n=42 v=95
530183 Off ch=10 n=40 v=114
530280 On ch=10 n=40 v=109
530290 Off ch=10 n=40 v=109
530400 On ch=10 n=40 v=82
530400 On ch=10 n=42 v=67
530410 Off ch=10 n=42 v=67
530443 Off ch=10 n=40 v=82
530520 On ch=10 n=40 v=81
530530 Off ch=10 n=40 v=81
530640 On ch=10 n=40 v=126
530640 On ch=10 n=36 v=95
530640 On ch=10 n=42 v=95
530650 Off ch=10 n=36 v=95
530650 Off ch=10 n=42 v=95
530685 Off ch=10 n=40 v=126
530880 On ch=10 n=40 v=60
530880 On ch=10 n=42 v=67
530890 Off ch=10 n=40 v=60
530890 Off ch=10 n=42 v=67
531120 On ch=10 n=40 v=127
531120 On ch=10 n=36 v=95
531120 On ch=10 n=42 v=95
531130 Off ch=10 n=36 v=95
531130 Off ch=10 n=42 v=95
531150 Off ch=10 n=40 v=127
531360 On ch=10 n=40 v=60
531360 On ch=10 n=42 v=67
531370 Off ch=10 n=40 v=60
531370 Off ch=10 n=42 v=67
531600 On ch=10 n=40 v=69
531600 On ch=10 n=36 v=109
531600 On ch=10 n=42 v=95
531610 Off ch=10 n=36 v=109
531610 Off ch=10 n=42 v=95
531718 Off ch=10 n=40 v=69
531720 On ch=10 n=40 v=91
531735 Off ch=10 n=40 v=91
531840 On ch=10 n=40 v=91
531873 Off ch=10 n=40 v=91
531960 On ch=10 n=40 v=93
532018 Off ch=10 n=40 v=93
532080 On ch=10 n=40 v=93
532080 On ch=10 n=42 v=81
532090 Off ch=10 n=42 v=81
532110 Off ch=10 n=40 v=93
532200 On ch=10 n=40 v=91
532223 Off ch=10 n=40 v=91
532320 On ch=10 n=40 v=115
532320 On ch=10 n=36 v=109
532320 On ch=10 n=42 v=95
532330 Off ch=10 n=36 v=109
532330 Off ch=10 n=42 v=95
532350 Off ch=10 n=40 v=115
532440 On ch=10 n=40 v=91
532478 Off ch=10 n=40 v=91
532560 On ch=10 n=40 v=93
532570 Off ch=10 n=40 v=93
532680 On ch=10 n=40 v=92
532680 On ch=10 n=42 v=81
532690 Off ch=10 n=42 v=81
532698 Off ch=10 n=40 v=92
532800 On ch=10 n=40 v=95
532810 Off ch=10 n=40 v=95
532920 On ch=10 n=40 v=91
532930 Off ch=10 n=40 v=91
533040 On ch=10 n=40 v=114
533040 On ch=10 n=36 v=109
533040 On ch=10 n=42 v=95
533050 Off ch=10 n=36 v=109
533050 Off ch=10 n=42 v=95
533063 Off ch=10 n=40 v=114
533160 On ch=10 n=40 v=109
533170 Off ch=10 n=40 v=109
533280 On ch=10 n=40 v=82
533280 On ch=10 n=42 v=67
533290 Off ch=10 n=42 v=67
533323 Off ch=10 n=40 v=82
533400 On ch=10 n=40 v=81
533410 Off ch=10 n=40 v=81
533520 On ch=10 n=40 v=126
533520 On ch=10 n=36 v=95
533520 On ch=10 n=42 v=95
533530 Off ch=10 n=36 v=95
533530 Off ch=10 n=42 v=95
533565 Off ch=10 n=40 v=126
533760 On ch=10 n=40 v=61
533760 On ch=10 n=42 v=67
533770 Off ch=10 n=40 v=61
533770 Off ch=10 n=42 v=67
534000 On ch=10 n=40 v=127
534000 On ch=10 n=36 v=95
534000 On ch=10 n=42 v=95
534010 Off ch=10 n=36 v=95
534010 Off ch=10 n=42 v=95
534030 Off ch=10 n=40 v=127
534240 On ch=10 n=40 v=60
534240 On ch=10 n=42 v=67
534250 Off ch=10 n=40 v=60
534250 Off ch=10 n=42 v=67
534480 On ch=10 n=36 v=96
534480 On ch=10 n=42 v=101
534600 Off ch=10 n=36 v=96
534880 Off ch=10 n=42 v=101
534960 On ch=10 n=42 v=101
534960 On ch=10 n=38 v=101
535360 Off ch=10 n=42 v=101
535360 Off ch=10 n=38 v=101
535440 On ch=10 n=42 v=101
535680 On ch=10 n=36 v=101
535840 Off ch=10 n=42 v=101
535880 Off ch=10 n=36 v=101
535920 On ch=10 n=42 v=101
536320 Off ch=10 n=42 v=101
536400 On ch=10 n=36 v=74
536400 On ch=10 n=42 v=101
536400 On ch=10 n=38 v=101
536600 Off ch=10 n=36 v=74
536800 Off ch=10 n=42 v=101
536800 Off ch=10 n=38 v=101
536880 On ch=10 n=42 v=101
537120 On ch=10 n=36 v=101
537280 Off ch=10 n=42 v=101
537320 Off ch=10 n=36 v=101
537360 On ch=10 n=42 v=117
537760 Off ch=10 n=42 v=117
537840 On ch=10 n=36 v=96
537840 On ch=10 n=42 v=117
537840 On ch=10 n=38 v=117
538040 Off ch=10 n=36 v=96
538240 Off ch=10 n=42 v=117
538240 Off ch=10 n=38 v=117
538320 On ch=10 n=42 v=117
538560 On ch=10 n=36 v=117
538720 Off ch=10 n=42 v=117
538760 Off ch=10 n=36 v=117
538800 On ch=10 n=42 v=117
538800 On ch=10 n=36 v=117
539200 Off ch=10 n=42 v=117
539200 Off ch=10 n=36 v=117
539280 On ch=10 n=42 v=101
539680 Off ch=10 n=42 v=101
539760 On ch=10 n=42 v=101
539760 On ch=10 n=38 v=101
540160 Off ch=10 n=42 v=101
540160 Off ch=10 n=38 v=101
540240 On ch=10 n=42 v=101
540480 On ch=10 n=36 v=101
540640 Off ch=10 n=42 v=101
540680 Off ch=10 n=36 v=101
540720 On ch=10 n=42 v=101
541120 Off ch=10 n=42 v=101
541200 On ch=10 n=36 v=74
541200 On ch=10 n=42 v=101
541200 On ch=10 n=38 v=101
541400 Off ch=10 n=36 v=74
541600 Off ch=10 n=42 v=101
541600 Off ch=10 n=38 v=101
541680 On ch=10 n=42 v=101
541920 On ch=10 n=36 v=101
542080 Off ch=10 n=42 v=101
542120 Off ch=10 n=36 v=101
542160 On ch=10 n=42 v=117
542560 Off ch=10 n=42 v=117
542640 On ch=10 n=36 v=96
542640 On ch=10 n=42 v=117
542640 On ch=10 n=38 v=117
542840 Off ch=10 n=36 v=96
543040 Off ch=10 n=42 v=117
543040 Off ch=10 n=38 v=117
543120 On ch=10 n=42 v=117
543360 On ch=10 n=36 v=117
543520 Off ch=10 n=42 v=117
543560 Off ch=10 n=36 v=117
543600 On ch=10 n=42 v=117
543600 On ch=10 n=36 v=117
544000 Off ch=10 n=42 v=117
544000 Off ch=10 n=36 v=117
544080 On ch=10 n=42 v=101
544480 Off ch=10 n=42 v=101
544560 On ch=10 n=42 v=101
544560 On ch=10 n=38 v=101
544960 Off ch=10 n=42 v=101
544960 Off ch=10 n=38 v=101
545040 On ch=10 n=42 v=101
545280 On ch=10 n=36 v=101
545440 Off ch=10 n=42 v=101
545480 Off ch=10 n=36 v=101
545520 On ch=10 n=42 v=101
545920 Off ch=10 n=42 v=101
546000 On ch=10 n=36 v=74
546000 On ch=10 n=42 v=101
546000 On ch=10 n=38 v=101
546200 Off ch=10 n=36 v=74
546400 Off ch=10 n=42 v=101
546400 Off ch=10 n=38 v=101
546480 On ch=10 n=42 v=101
546720 On ch=10 n=36 v=101
546880 Off ch=10 n=42 v=101
546920 Off ch=10 n=36 v=101
546960 On ch=10 n=42 v=117
547360 Off ch=10 n=42 v=117
547440 On ch=10 n=36 v=96
547440 On ch=10 n=42 v=117
547440 On ch=10 n=38 v=117
547640 Off ch=10 n=36 v=96
547840 Off ch=10 n=42 v=117
547840 Off ch=10 n=38 v=117
547920 On ch=10 n=42 v=117
548160 On ch=10 n=36 v=117
548320 Off ch=10 n=42 v=117
548360 Off ch=10 n=36 v=117
548400 On ch=10 n=42 v=117
548400 On ch=10 n=36 v=117
548800 Off ch=10 n=42 v=117
548800 Off ch=10 n=36 v=117
548880 On ch=10 n=42 v=101
549280 Off ch=10 n=42 v=101
549360 On ch=10 n=42 v=101
549360 On ch=10 n=38 v=101
549760 Off ch=10 n=42 v=101
549760 Off ch=10 n=38 v=101
549840 On ch=10 n=42 v=101
550080 On ch=10 n=36 v=101
550240 Off ch=10 n=42 v=101
550280 Off ch=10 n=36 v=101
550320 On ch=10 n=42 v=101
550720 Off ch=10 n=42 v=101
550800 On ch=10 n=36 v=74
550800 On ch=10 n=42 v=101
550800 On ch=10 n=38 v=101
551000 Off ch=10 n=36 v=74
551200 Off ch=10 n=42 v=101
551200 Off ch=10 n=38 v=101
551280 On ch=10 n=42 v=101
551520 On ch=10 n=36 v=101
551680 Off ch=10 n=42 v=101
551720 Off ch=10 n=36 v=101
551760 On ch=10 n=42 v=117
552160 Off ch=10 n=42 v=117
552240 On ch=10 n=36 v=96
552240 On ch=10 n=42 v=117
552240 On ch=10 n=38 v=117
552440 Off ch=10 n=36 v=96
552640 Off ch=10 n=42 v=117
552640 Off ch=10 n=38 v=117
552720 On ch=10 n=42 v=117
552960 On ch=10 n=36 v=117
553120 Off ch=10 n=42 v=117
553160 Off ch=10 n=36 v=117
553200 On ch=10 n=42 v=117
553200 On ch=10 n=36 v=117
553600 Off ch=10 n=42 v=117
553600 Off ch=10 n=36 v=117
553680 On ch=10 n=51 v=96
553760 Off ch=10 n=51 v=96
553800 On ch=10 n=51 v=90
553830 Off ch=10 n=51 v=90
553920 On ch=10 n=51 v=93
554000 Off ch=10 n=51 v=93
554040 On ch=10 n=51 v=96
554120 Off ch=10 n=51 v=96
554160 On ch=10 n=51 v=98
554210 Off ch=10 n=51 v=98
572400 On ch=10 n=49 v=74
572400 On ch=10 n=36 v=117
572560 Off ch=10 n=36 v=117
572639 Off ch=10 n=49 v=74
572880 On ch=10 n=51 v=96
572880 On ch=10 n=38 v=117
572960 Off ch=10 n=38 v=117
573060 Off ch=10 n=51 v=96
573120 On ch=10 n=51 v=96
573120 On ch=10 n=36 v=117
573200 Off ch=10 n=36 v=117
573300 Off ch=10 n=51 v=96
573360 On ch=10 n=51 v=96
573585 Off ch=10 n=51 v=96
573600 On ch=10 n=51 v=96
573600 On ch=10 n=36 v=117
573680 Off ch=10 n=36 v=117
573787 Off ch=10 n=51 v=96
573840 On ch=10 n=51 v=96
573840 On ch=10 n=38 v=117
573920 Off ch=10 n=38 v=117
574050 Off ch=10 n=51 v=96
574080 On ch=10 n=51 v=96
574177 Off ch=10 n=51 v=96
574200 On ch=10 n=51 v=96
574297 Off ch=10 n=51 v=96
574320 On ch=10 n=51 v=96
574320 On ch=10 n=36 v=117
574400 Off ch=10 n=51 v=96
574480 Off ch=10 n=36 v=117
574560 On ch=10 n=51 v=96
574560 On ch=10 n=38 v=117
574640 Off ch=10 n=51 v=96
574640 Off ch=10 n=38 v=117
574800 On ch=10 n=51 v=96
574880 Off ch=10 n=51 v=96
575039 On ch=10 n=38 v=117
575048 On ch=10 n=51 v=96
575079 Off ch=10 n=38 v=117
575088 Off ch=10 n=51 v=96
575280 On ch=10 n=51 v=96
575440 Off ch=10 n=51 v=96
575520 On ch=10 n=51 v=96
575520 On ch=10 n=36 v=117
575680 Off ch=10 n=51 v=96
575680 Off ch=10 n=36 v=117
575760 On ch=10 n=51 v=96
575760 On ch=10 n=38 v=117
575920 Off ch=10 n=51 v=96
575920 Off ch=10 n=38 v=117
576000 On ch=10 n=51 v=96
576160 Off ch=10 n=51 v=96
576240 On ch=10 n=51 v=96
576240 On ch=10 n=38 v=117
576400 Off ch=10 n=51 v=96
576400 Off ch=10 n=38 v=117
576480 On ch=10 n=51 v=96
576480 On ch=10 n=38 v=117
576560 Off ch=10 n=51 v=96
576560 Off ch=10 n=38 v=117
576600 On ch=10 n=43 v=74
576600 On ch=10 n=38 v=117
576680 Off ch=10 n=43 v=74
576680 Off ch=10 n=38 v=117
576720 On ch=10 n=49 v=57
576720 On ch=10 n=36 v=117
576880 Off ch=10 n=49 v=57
576930 Off ch=10 n=36 v=117
576960 On ch=10 n=51 v=96
577120 Off ch=10 n=51 v=96
577200 On ch=10 n=51 v=96
577200 On ch=10 n=38 v=117
577310 Off ch=10 n=38 v=117
577360 Off ch=10 n=51 v=96
577440 On ch=10 n=51 v=90
577440 On ch=10 n=36 v=117
577550 Off ch=10 n=36 v=117
577600 Off ch=10 n=51 v=90
577680 On ch=10 n=51 v=96
577840 Off ch=10 n=51 v=96
577920 On ch=10 n=51 v=96
577920 On ch=10 n=36 v=117
578030 Off ch=10 n=36 v=117
578080 Off ch=10 n=51 v=96
578160 On ch=10 n=51 v=96
578160 On ch=10 n=38 v=117
578270 Off ch=10 n=38 v=117
578320 Off ch=10 n=51 v=96
578400 On ch=10 n=51 v=96
578560 Off ch=10 n=51 v=96
578640 On ch=10 n=51 v=96
578800 Off ch=10 n=51 v=96
578880 On ch=10 n=51 v=88
578880 On ch=10 n=38 v=117
578990 Off ch=10 n=38 v=117
579040 Off ch=10 n=51 v=88
579120 On ch=10 n=51 v=88
579280 Off ch=10 n=51 v=88
579360 On ch=10 n=51 v=85
579520 Off ch=10 n=51 v=85
579600 On ch=10 n=51 v=96
579600 On ch=10 n=38 v=117
579710 Off ch=10 n=51 v=96
579710 Off ch=10 n=38 v=117
579840 On ch=10 n=51 v=96
579950 Off ch=10 n=51 v=96
580080 On ch=10 n=51 v=96
580080 On ch=10 n=38 v=117
580190 Off ch=10 n=51 v=96
580190 Off ch=10 n=38 v=117
580320 On ch=10 n=51 v=96
580370 Off ch=10 n=51 v=96
580440 On ch=10 n=38 v=117
580490 Off ch=10 n=38 v=117
580560 On ch=10 n=42 v=104
580560 On ch=10 n=36 v=104
580770 Off ch=10 n=42 v=104
580770 Off ch=10 n=36 v=104
581040 On ch=10 n=42 v=104
581040 On ch=10 n=36 v=104
581250 Off ch=10 n=42 v=104
581250 Off ch=10 n=36 v=104
581520 On ch=10 n=42 v=104
581730 Off ch=10 n=42 v=104
581760 On ch=10 n=36 v=104
581870 Off ch=10 n=36 v=104
582000 On ch=10 n=46 v=104
582000 On ch=10 n=38 v=104
582210 Off ch=10 n=46 v=104
582210 Off ch=10 n=38 v=104
582480 On ch=10 n=46 v=104
582590 Off ch=10 n=46 v=104
582720 On ch=10 n=38 v=104
582770 Off ch=10 n=38 v=104
582840 On ch=10 n=38 v=104
582890 Off ch=10 n=38 v=104
582960 On ch=10 n=42 v=104
582960 On ch=10 n=36 v=104
583170 Off ch=10 n=42 v=104
583170 Off ch=10 n=36 v=104
583440 On ch=10 n=38 v=104
583550 Off ch=10 n=38 v=104
583680 On ch=10 n=38 v=104
583790 Off ch=10 n=38 v=104
583920 On ch=10 n=38 v=104
583970 Off ch=10 n=38 v=104
584040 On ch=10 n=38 v=104
584090 Off ch=10 n=38 v=104
584160 On ch=10 n=43 v=61
584160 On ch=10 n=38 v=104
584210 Off ch=10 n=43 v=61
584210 Off ch=10 n=38 v=104
584280 On ch=10 n=38 v=104
584330 Off ch=10 n=38 v=104
584400 On ch=10 n=38 v=104
584610 Off ch=10 n=38 v=104
585120 On ch=10 n=49 v=83
585120 On ch=10 n=36 v=104
585230 Off ch=10 n=49 v=83
585230 Off ch=10 n=36 v=104
585840 On ch=10 n=42 v=104
586050 Off ch=10 n=42 v=104
586080 On ch=10 n=36 v=104
586190 Off ch=10 n=36 v=104
586320 On ch=10 n=57 v=62
586320 On ch=10 n=38 v=104
586530 Off ch=10 n=57 v=62
586530 Off ch=10 n=38 v=104
587160 On ch=10 n=38 v=104
587190 Off ch=10 n=38 v=104
587220 On ch=10 n=38 v=104
587280 On ch=10 n=49 v=83
587280 On ch=10 n=36 v=104
587280 Off ch=10 n=38 v=104
587490 Off ch=10 n=49 v=83
587490 Off ch=10 n=36 v=104
587760 On ch=10 n=42 v=104
587970 Off ch=10 n=42 v=104
588240 On ch=10 n=42 v=104
588240 On ch=10 n=38 v=104
588450 Off ch=10 n=42 v=104
588450 Off ch=10 n=38 v=104
588720 On ch=10 n=42 v=104
588830 Off ch=10 n=42 v=104
588960 On ch=10 n=38 v=104
589010 Off ch=10 n=38 v=104
589080 On ch=10 n=38 v=104
589130 Off ch=10 n=38 v=104
589200 On ch=10 n=42 v=104
589200 On ch=10 n=36 v=104
589410 Off ch=10 n=42 v=104
589410 Off ch=10 n=36 v=104
589680 On ch=10 n=42 v=104
589680 On ch=10 n=38 v=104
589890 Off ch=10 n=42 v=104
589890 Off ch=10 n=38 v=104
590400 On ch=10 n=36 v=104
590510 Off ch=10 n=36 v=104
590640 On ch=10 n=36 v=104
590850 Off ch=10 n=36 v=104
591120 On ch=10 n=49 v=76
591120 On ch=10 n=36 v=117
591280 Off ch=10 n=36 v=117
591442 Off ch=10 n=49 v=76
591600 On ch=10 n=51 v=96
591600 On ch=10 n=38 v=117
591680 Off ch=10 n=38 v=117
591780 Off ch=10 n=51 v=96
591840 On ch=10 n=51 v=96
591840 On ch=10 n=36 v=117
591920 Off ch=10 n=36 v=117
592020 Off ch=10 n=51 v=96
592080 On ch=10 n=51 v=96
592305 Off ch=10 n=51 v=96
592320 On ch=10 n=51 v=96
592320 On ch=10 n=36 v=117
592400 Off ch=10 n=36 v=117
592507 Off ch=10 n=51 v=96
592560 On ch=10 n=51 v=96
592560 On ch=10 n=38 v=117
592640 Off ch=10 n=38 v=117
592770 Off ch=10 n=51 v=96
592800 On ch=10 n=51 v=96
592897 Off ch=10 n=51 v=96
592920 On ch=10 n=51 v=96
593017 Off ch=10 n=51 v=96
593040 On ch=10 n=51 v=96
593040 On ch=10 n=36 v=117
593120 Off ch=10 n=51 v=96
593200 Off ch=10 n=36 v=117
593280 On ch=10 n=51 v=96
593280 On ch=10 n=38 v=117
593360 Off ch=10 n=51 v=96
593360 Off ch=10 n=38 v=117
593520 On ch=10 n=51 v=96
593600 Off ch=10 n=51 v=96
593759 On ch=10 n=38 v=117
593768 On ch=10 n=51 v=96
593799 Off ch=10 n=38 v=117
593808 Off ch=10 n=51 v=96
594000 On ch=10 n=51 v=96
594160 Off ch=10 n=51 v=96
594240 On ch=10 n=51 v=96
594240 On ch=10 n=36 v=117
594400 Off ch=10 n=51 v=96
594400 Off ch=10 n=36 v=117
594480 On ch=10 n=51 v=96
594480 On ch=10 n=38 v=117
594640 Off ch=10 n=51 v=96
594640 Off ch=10 n=38 v=117
594720 On ch=10 n=51 v=96
594880 Off ch=10 n=51 v=96
594960 On ch=10 n=51 v=96
594960 On ch=10 n=38 v=117
595120 Off ch=10 n=51 v=96
595120 Off ch=10 n=38 v=117
595200 On ch=10 n=51 v=96
595200 On ch=10 n=38 v=117
595280 Off ch=10 n=51 v=96
595280 Off ch=10 n=38 v=117
595320 On ch=10 n=43 v=74
595320 On ch=10 n=38 v=117
595400 Off ch=10 n=43 v=74
595400 Off ch=10 n=38 v=117
595440 On ch=10 n=49 v=57
595440 On ch=10 n=36 v=117
595600 Off ch=10 n=49 v=57
595650 Off ch=10 n=36 v=117
595680 On ch=10 n=51 v=96
595840 Off ch=10 n=51 v=96
595920 On ch=10 n=51 v=96
595920 On ch=10 n=38 v=117
596030 Off ch=10 n=38 v=117
596080 Off ch=10 n=51 v=96
596160 On ch=10 n=51 v=90
596160 On ch=10 n=36 v=117
596270 Off ch=10 n=36 v=117
596320 Off ch=10 n=51 v=90
596400 On ch=10 n=51 v=96
596560 Off ch=10 n=51 v=96
596640 On ch=10 n=51 v=96
596640 On ch=10 n=36 v=117
596750 Off ch=10 n=36 v=117
596800 Off ch=10 n=51 v=96
596880 On ch=10 n=51 v=96
596880 On ch=10 n=38 v=117
596990 Off ch=10 n=38 v=117
597040 Off ch=10 n=51 v=96
597120 On ch=10 n=51 v=96
597280 Off ch=10 n=51 v=96
597360 On ch=10 n=51 v=96
597520 Off ch=10 n=51 v=96
597600 On ch=10 n=51 v=88
597600 On ch=10 n=38 v=117
597710 Off ch=10 n=38 v=117
597760 Off ch=10 n=51 v=88
597840 On ch=10 n=51 v=88
598000 Off ch=10 n=51 v=88
598080 On ch=10 n=51 v=85
598240 Off ch=10 n=51 v=85
598320 On ch=10 n=51 v=96
598320 On ch=10 n=38 v=117
598400 Off ch=10 n=51 v=96
598400 Off ch=10 n=38 v=117
598560 On ch=10 n=51 v=96
598640 Off ch=10 n=51 v=96
598800 On ch=10 n=51 v=96
598800 On ch=10 n=38 v=117
598880 Off ch=10 n=51 v=96
598880 Off ch=10 n=38 v=117
599040 On ch=10 n=51 v=96
599120 Off ch=10 n=51 v=96
599270 On ch=10 n=38 v=117
599280 On ch=10 n=51 v=96
599350 Off ch=10 n=38 v=117
599360 Off ch=10 n=51 v=96
599520 On ch=10 n=51 v=96
599520 On ch=10 n=38 v=117
599560 Off ch=10 n=51 v=96
599560 Off ch=10 n=38 v=117
599630 On ch=10 n=43 v=74
599640 On ch=10 n=38 v=117
599670 Off ch=10 n=43 v=74
599680 Off ch=10 n=38 v=117
599760 On ch=10 n=59 v=64
599770 Off ch=10 n=59 v=64
600240 On ch=10 n=59 v=64
600240 On ch=10 n=40 v=92
600250 Off ch=10 n=59 v=64
600250 Off ch=10 n=40 v=92
600720 On ch=10 n=59 v=64
600730 Off ch=10 n=59 v=64
600960 On ch=10 n=36 v=92
600970 Off ch=10 n=36 v=92
601200 On ch=10 n=59 v=64
601210 Off ch=10 n=59 v=64
601680 On ch=10 n=59 v=64
601680 On ch=10 n=40 v=92
601690 Off ch=10 n=59 v=64
601690 Off ch=10 n=40 v=92
602160 On ch=10 n=59 v=64
602170 Off ch=10 n=59 v=64
602400 On ch=10 n=36 v=92
602410 Off ch=10 n=36 v=92
602640 On ch=10 n=59 v=64
602650 Off ch=10 n=59 v=64
603120 On ch=10 n=59 v=64
603120 On ch=10 n=40 v=92
603130 Off ch=10 n=59 v=64
603130 Off ch=10 n=40 v=92
603600 On ch=10 n=59 v=64
603610 Off ch=10 n=59 v=64
603840 On ch=10 n=36 v=78
603850 Off ch=10 n=36 v=78
604080 On ch=10 n=36 v=92
604080 On ch=10 n=59 v=64
604090 Off ch=10 n=36 v=92
604090 Off ch=10 n=59 v=64
612240 On ch=10 n=38 v=117
612480 Off ch=10 n=38 v=117
612480 On ch=10 n=38 v=117
612720 Off ch=10 n=38 v=117
612720 On ch=10 n=50 v=74
612720 On ch=10 n=47 v=117
612960 Off ch=10 n=50 v=74
612960 Off ch=10 n=47 v=117
612960 On ch=10 n=50 v=74
612960 On ch=10 n=47 v=117
613200 Off ch=10 n=50 v=74
613200 Off ch=10 n=47 v=117
613440 On ch=10 n=46 v=117
613440 On ch=10 n=43 v=74
613440 On ch=10 n=38 v=117
613680 Off ch=10 n=46 v=117
613680 Off ch=10 n=43 v=74
613680 Off ch=10 n=38 v=117
613680 On ch=10 n=36 v=117
613680 On ch=10 n=42 v=117
614160 Off ch=10 n=42 v=117
614160 On ch=10 n=46 v=117
614160 On ch=10 n=38 v=117
614400 Off ch=10 n=36 v=117
614400 Off ch=10 n=46 v=117
614400 Off ch=10 n=38 v=117
614400 On ch=10 n=36 v=117
614400 On ch=10 n=42 v=117
614880 Off ch=10 n=42 v=117
614880 On ch=10 n=46 v=117
614880 On ch=10 n=38 v=117
615120 Off ch=10 n=36 v=117
615120 Off ch=10 n=46 v=117
615120 Off ch=10 n=38 v=117
615120 On ch=10 n=42 v=117
615120 On ch=10 n=36 v=117
615595 Par ch=10 c=99 v=1
615595 Par ch=10 c=98 v=100
615595 Par ch=10 c=6 v=52
615595 Par ch=10 c=38 v=0
615599 On ch=10 n=49 v=84
615600 Off ch=10 n=42 v=117
615600 Off ch=10 n=36 v=117
615600 On ch=10 n=38 v=117
615839 Off ch=10 n=49 v=84
615840 Off ch=10 n=38 v=117
616320 On ch=10 n=49 v=96
616320 On ch=10 n=36 v=117
616560 Off ch=10 n=49 v=96
616560 Off ch=10 n=36 v=117
616980 Par ch=10 c=99 v=1
616980 Par ch=10 c=98 v=100
616980 Par ch=10 c=6 v=64
616980 Par ch=10 c=38 v=0
625200 On ch=10 n=36 v=122
625200 On ch=10 n=49 v=108
625210 Off ch=10 n=36 v=122
625210 Off ch=10 n=49 v=108
625680 On ch=10 n=42 v=94
625690 Off ch=10 n=42 v=94
625800 On ch=10 n=40 v=94
625810 Off ch=10 n=40 v=94
625920 On ch=10 n=36 v=122
625920 On ch=10 n=42 v=108
625930 Off ch=10 n=36 v=122
625930 Off ch=10 n=42 v=108
626040 On ch=10 n=40 v=122
626050 Off ch=10 n=40 v=122
626160 On ch=10 n=40 v=94
626170 Off ch=10 n=40 v=94
626280 On ch=10 n=42 v=94
626290 Off ch=10 n=42 v=94
626400 On ch=10 n=40 v=108
626410 Off ch=10 n=40 v=108
626520 On ch=10 n=40 v=80
626530 Off ch=10 n=40 v=80
626640 On ch=10 n=36 v=122
626640 On ch=10 n=42 v=108
626650 Off ch=10 n=36 v=122
626650 Off ch=10 n=42 v=108
626760 On ch=10 n=40 v=122
626770 Off ch=10 n=40 v=122
626880 On ch=10 n=42 v=80
626890 Off ch=10 n=42 v=80
627000 On ch=10 n=40 v=94
627010 Off ch=10 n=40 v=94
627120 On ch=10 n=36 v=108
627120 On ch=10 n=42 v=108
627130 Off ch=10 n=36 v=108
627130 Off ch=10 n=42 v=108
627240 On ch=10 n=40 v=122
627250 Off ch=10 n=40 v=122
627360 On ch=10 n=42 v=80
627370 Off ch=10 n=42 v=80
627480 On ch=10 n=40 v=94
627490 Off ch=10 n=40 v=94
627600 On ch=10 n=36 v=108
627600 On ch=10 n=42 v=108
627610 Off ch=10 n=36 v=108
627610 Off ch=10 n=42 v=108
627720 On ch=10 n=40 v=122
627730 Off ch=10 n=40 v=122
627840 On ch=10 n=42 v=80
627850 Off ch=10 n=42 v=80
627960 On ch=10 n=40 v=94
627970 Off ch=10 n=40 v=94
628080 On ch=10 n=36 v=122
628080 On ch=10 n=42 v=108
628090 Off ch=10 n=36 v=122
628090 Off ch=10 n=42 v=108
628200 On ch=10 n=40 v=122
628210 Off ch=10 n=40 v=122
628320 On ch=10 n=40 v=94
628330 Off ch=10 n=40 v=94
628440 On ch=10 n=42 v=94
628450 Off ch=10 n=42 v=94
628560 On ch=10 n=40 v=122
628570 Off ch=10 n=40 v=122
628680 On ch=10 n=40 v=94
628690 Off ch=10 n=40 v=94
628800 On ch=10 n=36 v=122
628800 On ch=10 n=42 v=108
628810 Off ch=10 n=36 v=122
628810 Off ch=10 n=42 v=108
628920 On ch=10 n=40 v=122
628930 Off ch=10 n=40 v=122
629040 On ch=10 n=40 v=94
629050 Off ch=10 n=40 v=94
629160 On ch=10 n=42 v=94
629170 Off ch=10 n=42 v=94
629280 On ch=10 n=40 v=108
629290 Off ch=10 n=40 v=108
629400 On ch=10 n=40 v=80
629410 Off ch=10 n=40 v=80
629520 On ch=10 n=36 v=122
629520 On ch=10 n=42 v=108
629530 Off ch=10 n=36 v=122
629530 Off ch=10 n=42 v=108
629640 On ch=10 n=40 v=122
629650 Off ch=10 n=40 v=122
629760 On ch=10 n=42 v=80
629770 Off ch=10 n=42 v=80
629880 On ch=10 n=40 v=94
629890 Off ch=10 n=40 v=94
630000 On ch=10 n=36 v=108
630000 On ch=10 n=42 v=108
630010 Off ch=10 n=36 v=108
630010 Off ch=10 n=42 v=108
630120 On ch=10 n=40 v=122
630130 Off ch=10 n=40 v=122
630240 On ch=10 n=42 v=80
630250 Off ch=10 n=42 v=80
630360 On ch=10 n=40 v=94
630370 Off ch=10 n=40 v=94
630480 On ch=10 n=36 v=108
630480 On ch=10 n=42 v=108
630490 Off ch=10 n=36 v=108
630490 Off ch=10 n=42 v=108
630600 On ch=10 n=40 v=122
630610 Off ch=10 n=40 v=122
630720 On ch=10 n=42 v=80
630730 Off ch=10 n=42 v=80
630840 On ch=10 n=40 v=94
630850 Off ch=10 n=40 v=94
630960 On ch=10 n=49 v=110
630964 On ch=10 n=36 v=112
631045 Off ch=10 n=49 v=110
631187 Off ch=10 n=36 v=112
631198 On ch=10 n=51 v=87
631289 Off ch=10 n=51 v=87
631440 On ch=10 n=51 v=95
631441 On ch=10 n=38 v=120
631536 Off ch=10 n=51 v=95
631625 Off ch=10 n=38 v=120
631688 On ch=10 n=51 v=91
631783 Off ch=10 n=51 v=91
631923 On ch=10 n=36 v=117
631943 On ch=10 n=51 v=95
632035 Off ch=10 n=51 v=95
632126 Off ch=10 n=36 v=117
632174 On ch=10 n=51 v=93
632249 Off ch=10 n=51 v=93
632405 On ch=10 n=38 v=112
632407 On ch=10 n=51 v=113
632499 Off ch=10 n=51 v=113
632572 Off ch=10 n=38 v=112
632650 On ch=10 n=51 v=85
632729 Off ch=10 n=51 v=85
632881 On ch=10 n=36 v=108
632893 On ch=10 n=51 v=99
632968 Off ch=10 n=51 v=99
633086 Off ch=10 n=36 v=108
633128 On ch=10 n=51 v=91
633209 Off ch=10 n=51 v=91
633363 On ch=10 n=38 v=112
633364 On ch=10 n=51 v=99
633453 Off ch=10 n=51 v=99
633544 Off ch=10 n=38 v=112
633597 On ch=10 n=51 v=91
633660 Off ch=10 n=51 v=91
633843 On ch=10 n=51 v=91
633846 On ch=10 n=36 v=114
633918 Off ch=10 n=51 v=91
634072 Off ch=10 n=36 v=114
634083 On ch=10 n=51 v=99
634161 Off ch=10 n=51 v=99
634321 On ch=10 n=51 v=104
634325 On ch=10 n=38 v=114
634407 Off ch=10 n=51 v=104
634486 Off ch=10 n=38 v=114
634559 On ch=10 n=51 v=99
634640 Off ch=10 n=51 v=99
634806 On ch=10 n=38 v=117
634808 On ch=10 n=51 v=116
634888 Off ch=10 n=51 v=116
634992 Off ch=10 n=38 v=117
635024 On ch=10 n=51 v=85
635110 Off ch=10 n=51 v=85
635280 On ch=10 n=49 v=110
635284 On ch=10 n=36 v=112
635365 Off ch=10 n=49 v=110
635507 Off ch=10 n=36 v=112
635518 On ch=10 n=51 v=87
635609 Off ch=10 n=51 v=87
635760 On ch=10 n=51 v=95
635761 On ch=10 n=38 v=120
635856 Off ch=10 n=51 v=95
635945 Off ch=10 n=38 v=120
636008 On ch=10 n=51 v=91
636103 Off ch=10 n=51 v=91
636243 On ch=10 n=36 v=117
636263 On ch=10 n=51 v=95
636355 Off ch=10 n=51 v=95
636446 Off ch=10 n=36 v=117
636494 On ch=10 n=51 v=93
636569 Off ch=10 n=51 v=93
636725 On ch=10 n=38 v=112
636727 On ch=10 n=51 v=113
636819 Off ch=10 n=51 v=113
636892 Off ch=10 n=38 v=112
636970 On ch=10 n=51 v=85
637049 Off ch=10 n=51 v=85
637201 On ch=10 n=36 v=108
637213 On ch=10 n=51 v=99
637288 Off ch=10 n=51 v=99
637406 Off ch=10 n=36 v=108
637448 On ch=10 n=51 v=91
637529 Off ch=10 n=51 v=91
637683 On ch=10 n=38 v=112
637684 On ch=10 n=51 v=99
637773 Off ch=10 n=51 v=99
637864 Off ch=10 n=38 v=112
637917 On ch=10 n=51 v=91
637980 Off ch=10 n=51 v=91
638163 On ch=10 n=51 v=91
638166 On ch=10 n=36 v=114
638238 Off ch=10 n=51 v=91
638392 Off ch=10 n=36 v=114
638403 On ch=10 n=51 v=99
638481 Off ch=10 n=51 v=99
638641 On ch=10 n=51 v=104
638645 On ch=10 n=38 v=114
638727 Off ch=10 n=51 v=104
638806 Off ch=10 n=38 v=114
638879 On ch=10 n=51 v=99
638960 Off ch=10 n=51 v=99
639126 On ch=10 n=38 v=117
639128 On ch=10 n=51 v=116
639208 Off ch=10 n=51 v=116
639312 Off ch=10 n=38 v=117
639344 On ch=10 n=51 v=85
639430 Off ch=10 n=51 v=85
639600 On ch=10 n=49 v=110
639604 On ch=10 n=36 v=112
639685 Off ch=10 n=49 v=110
639827 Off ch=10 n=36 v=112
639838 On ch=10 n=51 v=87
639929 Off ch=10 n=51 v=87
640080 On ch=10 n=51 v=95
640081 On ch=10 n=38 v=120
640176 Off ch=10 n=51 v=95
640265 Off ch=10 n=38 v=120
640328 On ch=10 n=51 v=91
640423 Off ch=10 n=51 v=91
640563 On ch=10 n=36 v=117
640583 On ch=10 n=51 v=95
640675 Off ch=10 n=51 v=95
640766 Off ch=10 n=36 v=117
640814 On ch=10 n=51 v=93
640889 Off ch=10 n=51 v=93
641045 On ch=10 n=38 v=112
641047 On ch=10 n=51 v=113
641139 Off ch=10 n=51 v=113
641212 Off ch=10 n=38 v=112
641290 On ch=10 n=51 v=85
641369 Off ch=10 n=51 v=85
641521 On ch=10 n=36 v=108
641533 On ch=10 n=51 v=99
641608 Off ch=10 n=51 v=99
641726 Off ch=10 n=36 v=108
641768 On ch=10 n=51 v=91
641849 Off ch=10 n=51 v=91
642003 On ch=10 n=38 v=112
642004 On ch=10 n=51 v=99
642093 Off ch=10 n=51 v=99
642184 Off ch=10 n=38 v=112
642237 On ch=10 n=51 v=91
642300 Off ch=10 n=51 v=91
642477 On ch=10 n=51 v=96
642480 On ch=10 n=36 v=119
642481 On ch=10 n=48 v=96
642533 Off ch=10 n=48 v=96
642557 Off ch=10 n=51 v=96
642589 Off ch=10 n=36 v=119
642604 On ch=10 n=48 v=96
642656 Off ch=10 n=48 v=96
642723 On ch=10 n=38 v=117
642724 On ch=10 n=48 v=117
642781 Off ch=10 n=48 v=117
642803 Off ch=10 n=38 v=117
642840 On ch=10 n=48 v=96
642895 Off ch=10 n=48 v=96
642960 On ch=10 n=36 v=116
642962 On ch=10 n=45 v=117
643012 Off ch=10 n=45 v=117
643079 Off ch=10 n=36 v=116
643084 On ch=10 n=45 v=117
643136 Off ch=10 n=45 v=117
643200 On ch=10 n=45 v=115
643258 Off ch=10 n=45 v=115
643320 On ch=10 n=45 v=114
643378 Off ch=10 n=45 v=114
643440 On ch=10 n=38 v=67
643440 On ch=10 n=36 v=67
643640 Off ch=10 n=38 v=67
643760 Off ch=10 n=36 v=67
643920 On ch=10 n=49 v=112
643920 On ch=10 n=38 v=67
644160 Off ch=10 n=49 v=112
644160 Off ch=10 n=38 v=67
644160 On ch=10 n=57 v=115
644160 On ch=10 n=38 v=67
644400 Off ch=10 n=57 v=115
644400 Off ch=10 n=38 v=67
644400 On ch=10 n=49 v=115
644400 On ch=10 n=38 v=67
644720 Off ch=10 n=49 v=115
644720 Off ch=10 n=38 v=67
649237 On ch=10 n=43 v=63
649299 Off ch=10 n=43 v=63
649334 On ch=10 n=43 v=67
649423 Off ch=10 n=43 v=67
649440 On ch=10 n=43 v=74
649558 Off ch=10 n=43 v=74
649566 On ch=10 n=43 v=73
649663 Off ch=10 n=43 v=73
649723 On ch=10 n=43 v=102
649785 Off ch=10 n=43 v=102
649811 On ch=10 n=43 v=97
649868 Off ch=10 n=43 v=97
649896 On ch=10 n=43 v=100
649948 Off ch=10 n=43 v=100
649968 On ch=10 n=43 v=92
650025 Off ch=10 n=43 v=92
650056 On ch=10 n=43 v=106
650112 Off ch=10 n=43 v=106
650126 On ch=10 n=43 v=90
650179 Off ch=10 n=43 v=90
650193 On ch=10 n=43 v=108
650270 Off ch=10 n=43 v=108
650280 On ch=10 n=43 v=80
650375 Off ch=10 n=43 v=80
650388 On ch=10 n=43 v=106
650487 Off ch=10 n=43 v=106
650520 On ch=10 n=43 v=114
650638 Off ch=10 n=43 v=114
650640 On ch=10 n=49 v=81
650640 On ch=10 n=36 v=117
650960 Off ch=10 n=49 v=81
650960 Off ch=10 n=36 v=117
651120 On ch=10 n=57 v=70
651440 Off ch=10 n=57 v=70
651600 On ch=10 n=49 v=69
651920 Off ch=10 n=49 v=69
651920 On ch=10 n=36 v=117
652072 On ch=10 n=57 v=66
652080 On ch=10 n=38 v=117
652130 Off ch=10 n=36 v=117
652392 Off ch=10 n=57 v=66
652400 Off ch=10 n=38 v=117
653400 On ch=10 n=38 v=117
653460 Off ch=10 n=38 v=117
653460 On ch=10 n=38 v=117
653520 On ch=10 n=42 v=117
653520 On ch=10 n=36 v=117
653780 Off ch=10 n=38 v=117
653840 Off ch=10 n=42 v=117
653840 Off ch=10 n=36 v=117
654000 On ch=10 n=42 v=117
654000 On ch=10 n=36 v=117
654320 Off ch=10 n=42 v=117
654320 Off ch=10 n=36 v=117
654480 On ch=10 n=42 v=117
654720 On ch=10 n=36 v=117
654800 Off ch=10 n=42 v=117
654880 Off ch=10 n=36 v=117
654960 On ch=10 n=46 v=117
654960 On ch=10 n=38 v=117
655280 Off ch=10 n=46 v=117
655280 Off ch=10 n=38 v=117
656280 On ch=10 n=38 v=117
656320 Off ch=10 n=38 v=117
656340 On ch=10 n=38 v=117
656400 On ch=10 n=42 v=117
656400 On ch=10 n=36 v=117
656400 Off ch=10 n=38 v=117
656720 Off ch=10 n=42 v=117
656720 Off ch=10 n=36 v=117
656880 On ch=10 n=42 v=117
657200 Off ch=10 n=42 v=117
657600 On ch=10 n=36 v=117
657760 Off ch=10 n=36 v=117
657840 On ch=10 n=46 v=117
658160 Off ch=10 n=46 v=117
659160 On ch=10 n=38 v=117
659200 Off ch=10 n=38 v=117
659220 On ch=10 n=38 v=117
659280 On ch=10 n=42 v=117
659280 Off ch=10 n=38 v=117
659520 On ch=10 n=36 v=117
659600 Off ch=10 n=42 v=117
659680 Off ch=10 n=36 v=117
659760 On ch=10 n=42 v=117
660080 Off ch=10 n=42 v=117
660240 On ch=10 n=42 v=117
660480 On ch=10 n=36 v=117
660560 Off ch=10 n=42 v=117
660640 Off ch=10 n=36 v=117
660720 On ch=10 n=46 v=117
661040 Off ch=10 n=46 v=117
662040 On ch=10 n=38 v=117
662080 Off ch=10 n=38 v=117
662100 On ch=10 n=38 v=117
662160 On ch=10 n=42 v=117
662160 On ch=10 n=36 v=117
662160 Off ch=10 n=38 v=117
662480 Off ch=10 n=42 v=117
662480 Off ch=10 n=36 v=117
662640 On ch=10 n=42 v=117
662960 Off ch=10 n=42 v=117
663120 On ch=10 n=42 v=117
663120 On ch=10 n=36 v=117
663440 Off ch=10 n=42 v=117
663440 Off ch=10 n=36 v=117
663600 On ch=10 n=42 v=117
663600 On ch=10 n=38 v=117
663920 Off ch=10 n=42 v=117
663920 Off ch=10 n=38 v=117
664080 On ch=10 n=42 v=117
664400 Off ch=10 n=42 v=117
664560 On ch=10 n=36 v=117
664560 On ch=10 n=42 v=117
664680 Off ch=10 n=42 v=117
664880 Off ch=10 n=36 v=117
664920 On ch=10 n=38 v=117
664960 Off ch=10 n=38 v=117
664980 On ch=10 n=38 v=117
665040 On ch=10 n=42 v=117
665040 Off ch=10 n=38 v=117
665150 Off ch=10 n=42 v=117
665200 On ch=10 n=38 v=117
665310 Off ch=10 n=38 v=117
665360 On ch=10 n=38 v=117
665470 Off ch=10 n=38 v=117
665520 On ch=10 n=42 v=117
665630 Off ch=10 n=42 v=117
665670 On ch=10 n=42 v=117
665780 Off ch=10 n=42 v=117
665840 On ch=10 n=38 v=117
665950 Off ch=10 n=38 v=117
666000 On ch=10 n=38 v=117
666110 Off ch=10 n=38 v=117
666160 On ch=10 n=42 v=117
666270 Off ch=10 n=42 v=117
666320 On ch=10 n=47 v=117
666330 On ch=10 n=43 v=74
666430 Off ch=10 n=47 v=117
666440 Off ch=10 n=43 v=74
666480 On ch=10 n=38 v=117
666590 Off ch=10 n=38 v=117
666630 On ch=10 n=38 v=117
666740 Off ch=10 n=38 v=117
666800 On ch=10 n=47 v=117
666810 On ch=10 n=43 v=96
666910 Off ch=10 n=47 v=117
666920 Off ch=10 n=43 v=96
666960 On ch=10 n=38 v=117
667070 Off ch=10 n=38 v=117
667120 On ch=10 n=38 v=117
667230 Off ch=10 n=38 v=117
667280 On ch=10 n=47 v=117
667290 On ch=10 n=50 v=74
667390 Off ch=10 n=47 v=117
667400 Off ch=10 n=50 v=74
667430 On ch=10 n=38 v=117
667540 Off ch=10 n=38 v=117
667600 On ch=10 n=47 v=117
667710 Off ch=10 n=47 v=117
667760 On ch=10 n=43 v=117
667770 On ch=10 n=38 v=74
667870 Off ch=10 n=43 v=117
667880 Off ch=10 n=38 v=74
667890 On ch=10 n=43 v=74
667890 On ch=10 n=38 v=96
667930 On ch=10 n=38 v=117
667930 Off ch=10 n=38 v=96
667970 Off ch=10 n=43 v=74
668010 Off ch=10 n=38 v=117
669360 On ch=10 n=49 v=96
669360 On ch=10 n=36 v=117
669440 Off ch=10 n=36 v=117
669520 Off ch=10 n=49 v=96
669850 On ch=10 n=38 v=117
669890 Off ch=10 n=38 v=117
669980 On ch=10 n=38 v=117
670020 Off ch=10 n=38 v=117
670080 On ch=10 n=38 v=117
670120 Off ch=10 n=38 v=117
670200 On ch=10 n=38 v=117
670240 Off ch=10 n=38 v=117
670320 On ch=10 n=38 v=117
670360 Off ch=10 n=38 v=117
670440 On ch=10 n=38 v=117
670480 Off ch=10 n=38 v=117
670560 On ch=10 n=47 v=117
670580 On ch=10 n=43 v=96
670640 Off ch=10 n=47 v=117
670660 Off ch=10 n=43 v=96
670800 On ch=10 n=47 v=117
670810 On ch=10 n=38 v=88
670850 Off ch=10 n=47 v=117
670860 Off ch=10 n=38 v=88
671040 On ch=10 n=38 v=88
671050 On ch=10 n=47 v=117
671090 Off ch=10 n=38 v=88
671100 Off ch=10 n=47 v=117
671280 On ch=10 n=47 v=117
671290 On ch=10 n=38 v=88
671330 Off ch=10 n=47 v=117
671340 Off ch=10 n=38 v=88
671520 On ch=10 n=50 v=88
671530 On ch=10 n=47 v=117
671570 Off ch=10 n=50 v=88
671580 Off ch=10 n=47 v=117
671760 On ch=10 n=47 v=117
671770 On ch=10 n=38 v=88
671810 Off ch=10 n=47 v=117
671820 Off ch=10 n=38 v=88
672000 On ch=10 n=47 v=117
672010 On ch=10 n=50 v=74
672050 Off ch=10 n=47 v=117
672060 Off ch=10 n=50 v=74
672240 On ch=10 n=46 v=96
672240 On ch=10 n=38 v=117
672250 On ch=10 n=49 v=96
672250 On ch=10 n=43 v=74
672280 Off ch=10 n=43 v=74
672450 Off ch=10 n=46 v=96
672450 Off ch=10 n=38 v=117
672460 Off ch=10 n=49 v=96
673680 On ch=10 n=36 v=117
673690 On ch=10 n=49 v=83
673830 Off ch=10 n=49 v=83
673960 Off ch=10 n=36 v=117
674160 On ch=10 n=51 v=96
674440 Off ch=10 n=51 v=96
674640 On ch=10 n=51 v=96
674870 On ch=10 n=36 v=117
674920 Off ch=10 n=51 v=96
675010 Off ch=10 n=36 v=117
675120 On ch=10 n=38 v=117
675130 On ch=10 n=51 v=96
675400 Off ch=10 n=38 v=117
675410 Off ch=10 n=51 v=96
675600 On ch=10 n=51 v=96
675880 Off ch=10 n=51 v=96
676080 On ch=10 n=51 v=90
676290 Off ch=10 n=51 v=90
676440 On ch=10 n=38 v=117
676470 Off ch=10 n=38 v=117
676510 On ch=10 n=38 v=117
676560 On ch=10 n=51 v=96
676560 On ch=10 n=36 v=117
676560 Off ch=10 n=38 v=117
676840 Off ch=10 n=51 v=96
676840 Off ch=10 n=36 v=117
677040 On ch=10 n=51 v=96
677320 Off ch=10 n=51 v=96
677520 On ch=10 n=51 v=96
677760 On ch=10 n=36 v=117
677800 Off ch=10 n=51 v=96
678000 On ch=10 n=51 v=96
678000 On ch=10 n=38 v=117
678040 Off ch=10 n=36 v=117
678280 Off ch=10 n=51 v=96
678280 Off ch=10 n=38 v=117
678480 On ch=10 n=51 v=96
678760 Off ch=10 n=51 v=96
678960 On ch=10 n=51 v=96
679240 Off ch=10 n=51 v=96
679320 On ch=10 n=38 v=117
679350 Off ch=10 n=38 v=117
679380 On ch=10 n=38 v=117
679440 On ch=10 n=36 v=117
679440 Off ch=10 n=38 v=117
679450 On ch=10 n=51 v=83
679590 Off ch=10 n=51 v=83
679720 Off ch=10 n=36 v=117
679920 On ch=10 n=51 v=96
680200 Off ch=10 n=51 v=96
680400 On ch=10 n=51 v=96
680630 On ch=10 n=36 v=117
680680 Off ch=10 n=51 v=96
680770 Off ch=10 n=36 v=117
680880 On ch=10 n=38 v=117
680890 On ch=10 n=51 v=96
681160 Off ch=10 n=38 v=117
681170 Off ch=10 n=51 v=96
681360 On ch=10 n=51 v=96
681640 Off ch=10 n=51 v=96
681840 On ch=10 n=51 v=90
682050 Off ch=10 n=51 v=90
682200 On ch=10 n=38 v=117
682230 Off ch=10 n=38 v=117
682270 On ch=10 n=38 v=117
682320 On ch=10 n=51 v=96
682320 On ch=10 n=36 v=117
682320 Off ch=10 n=38 v=117
682600 Off ch=10 n=51 v=96
682600 Off ch=10 n=36 v=117
682800 On ch=10 n=51 v=96
683040 On ch=10 n=36 v=117
683080 Off ch=10 n=51 v=96
683180 Off ch=10 n=36 v=117
683280 On ch=10 n=51 v=96
683520 On ch=10 n=36 v=117
683560 Off ch=10 n=51 v=96
683660 Off ch=10 n=36 v=117
683760 On ch=10 n=51 v=96
683760 On ch=10 n=38 v=117
683900 Off ch=10 n=38 v=117
684000 On ch=10 n=38 v=117
684040 Off ch=10 n=51 v=96
684140 Off ch=10 n=38 v=117
684230 On ch=10 n=38 v=117
684300 Off ch=10 n=38 v=117
684340 On ch=10 n=38 v=117
684410 Off ch=10 n=38 v=117
684480 On ch=10 n=38 v=117
684550 Off ch=10 n=38 v=117
684600 On ch=10 n=38 v=96
684670 Off ch=10 n=38 v=96
684720 On ch=10 n=38 v=117
684790 Off ch=10 n=38 v=117
684830 On ch=10 n=38 v=117
684900 Off ch=10 n=38 v=117
684940 On ch=10 n=38 v=117
685010 Off ch=10 n=38 v=117
685080 On ch=10 n=38 v=117
685150 Off ch=10 n=38 v=117
685200 On ch=10 n=38 v=110
685360 Off ch=10 n=38 v=110
685440 On ch=10 n=38 v=117
685520 Off ch=10 n=38 v=117
685560 On ch=10 n=38 v=113
685640 Off ch=10 n=38 v=113
685680 On ch=10 n=38 v=115
685760 Off ch=10 n=38 v=115
685800 On ch=10 n=38 v=117
685880 Off ch=10 n=38 v=117
685920 On ch=10 n=38 v=114
686000 Off ch=10 n=38 v=114
686040 On ch=10 n=38 v=117
686120 Off ch=10 n=38 v=117
686160 On ch=10 n=47 v=117
686160 On ch=10 n=38 v=74
686320 Off ch=10 n=47 v=117
686320 Off ch=10 n=38 v=74
686390 On ch=10 n=47 v=115
686400 On ch=10 n=38 v=53
686480 Off ch=10 n=38 v=53
686550 Off ch=10 n=47 v=115
686640 On ch=10 n=49 v=90
686640 On ch=10 n=36 v=117
686960 Off ch=10 n=49 v=90
686960 Off ch=10 n=36 v=117
687590 On ch=10 n=51 v=96
687750 Off ch=10 n=51 v=96
687840 On ch=10 n=38 v=117
688080 On ch=10 n=51 v=96
688150 Off ch=10 n=51 v=96
688160 Off ch=10 n=38 v=117
688240 On ch=10 n=38 v=117
688310 Off ch=10 n=38 v=117
688390 On ch=10 n=38 v=117
688460 Off ch=10 n=38 v=117
688560 On ch=10 n=50 v=74
688560 On ch=10 n=47 v=117
688630 Off ch=10 n=50 v=74
688630 Off ch=10 n=47 v=117
688720 On ch=10 n=47 v=117
688790 Off ch=10 n=47 v=117
688880 On ch=10 n=47 v=117
688950 Off ch=10 n=47 v=117
689010 On ch=10 n=43 v=96
689060 On ch=10 n=38 v=117
689220 Off ch=10 n=43 v=96
689270 Off ch=10 n=38 v=117
689520 On ch=10 n=49 v=96
689520 On ch=10 n=36 v=117
689940 Off ch=10 n=49 v=96
689940 Off ch=10 n=36 v=117
690480 On ch=10 n=51 v=96
690900 Off ch=10 n=51 v=96
690960 On ch=10 n=49 v=90
690960 On ch=10 n=36 v=117
691380 Off ch=10 n=49 v=90
691380 Off ch=10 n=36 v=117
691440 On ch=10 n=51 v=96
691860 Off ch=10 n=51 v=96
691920 On ch=10 n=51 v=101
692340 Off ch=10 n=51 v=101
692400 On ch=10 n=51 v=96
692400 On ch=10 n=38 v=117
692820 Off ch=10 n=51 v=96
692820 Off ch=10 n=38 v=117
692880 On ch=10 n=51 v=96
693300 Off ch=10 n=51 v=96
693360 On ch=10 n=51 v=96
693720 On ch=10 n=38 v=117
693780 Off ch=10 n=51 v=96
693780 Off ch=10 n=38 v=117
693780 On ch=10 n=38 v=117
693840 On ch=10 n=49 v=96
693840 On ch=10 n=36 v=117
693880 Off ch=10 n=38 v=117
694260 Off ch=10 n=49 v=96
694260 Off ch=10 n=36 v=117
694320 On ch=10 n=46 v=92
694320 On ch=10 n=38 v=117
694530 Off ch=10 n=46 v=92
694530 Off ch=10 n=38 v=117
694557 On ch=10 n=38 v=116
694560 On ch=10 n=46 v=92
694767 Off ch=10 n=38 v=116
694770 Off ch=10 n=46 v=92
694800 On ch=10 n=38 v=113
694810 On ch=10 n=46 v=92
695010 Off ch=10 n=38 v=113
695020 Off ch=10 n=46 v=92
695040 On ch=10 n=46 v=96
695040 On ch=10 n=38 v=117
695250 Off ch=10 n=46 v=96
695250 Off ch=10 n=38 v=117
695280 On ch=10 n=46 v=88
695280 On ch=10 n=38 v=117
695490 Off ch=10 n=46 v=88
695490 Off ch=10 n=38 v=117
695510 On ch=10 n=46 v=92
695520 On ch=10 n=38 v=108
695720 Off ch=10 n=46 v=92
695730 Off ch=10 n=38 v=108
695760 On ch=10 n=46 v=96
695760 On ch=10 n=38 v=117
695970 Off ch=10 n=46 v=96
695970 Off ch=10 n=38 v=117
696000 On ch=10 n=46 v=88
696000 On ch=10 n=38 v=117
696210 Off ch=10 n=46 v=88
696210 Off ch=10 n=38 v=117
696240 On ch=10 n=46 v=88
696240 On ch=10 n=38 v=117
696450 Off ch=10 n=46 v=88
696450 Off ch=10 n=38 v=117
696480 On ch=10 n=46 v=92
696483 On ch=10 n=38 v=117
696690 Off ch=10 n=46 v=92
696693 Off ch=10 n=38 v=117
696720 On ch=10 n=38 v=117
696720 On ch=10 n=49 v=45
696930 Off ch=10 n=49 v=45
696937 Off ch=10 n=38 v=117
696960 On ch=10 n=38 v=110
696960 On ch=10 n=49 v=50
696960 On ch=10 n=43 v=74
697155 Off ch=10 n=49 v=50
697170 Off ch=10 n=38 v=110
697200 Off ch=10 n=43 v=74
697200 On ch=10 n=49 v=53
697200 On ch=10 n=38 v=117
697410 Off ch=10 n=49 v=53
697410 Off ch=10 n=38 v=117
697437 On ch=10 n=38 v=116
697440 On ch=10 n=49 v=56
697647 Off ch=10 n=38 v=116
697658 Off ch=10 n=49 v=56
697680 On ch=10 n=38 v=113
697690 On ch=10 n=49 v=60
697890 Off ch=10 n=38 v=113
697900 Off ch=10 n=49 v=60
697920 On ch=10 n=49 v=69
697920 On ch=10 n=38 v=117
698130 Off ch=10 n=49 v=69
698130 Off ch=10 n=38 v=117
698160 On ch=10 n=49 v=73
698160 On ch=10 n=38 v=117
698370 Off ch=10 n=49 v=73
698370 Off ch=10 n=38 v=117
698390 On ch=10 n=49 v=77
698400 On ch=10 n=38 v=108
698410 On ch=10 n=43 v=96
698600 Off ch=10 n=49 v=77
698610 Off ch=10 n=38 v=108
698640 On ch=10 n=49 v=81
698640 On ch=10 n=38 v=117
698650 Off ch=10 n=43 v=96
698850 Off ch=10 n=49 v=81
698850 Off ch=10 n=38 v=117
698880 On ch=10 n=49 v=85
698880 On ch=10 n=38 v=117
699090 Off ch=10 n=38 v=117
699098 Off ch=10 n=49 v=85
699120 On ch=10 n=49 v=88
699120 On ch=10 n=38 v=117
699330 Off ch=10 n=49 v=88
699330 Off ch=10 n=38 v=117
699340 On ch=10 n=38 v=117
699360 On ch=10 n=49 v=89
699550 Off ch=10 n=38 v=117
699570 Off ch=10 n=49 v=89
699600 On ch=10 n=49 v=96
699600 On ch=10 n=38 v=109
699752 Off ch=10 n=49 v=96
699760 Off ch=10 n=38 v=109
699840 On ch=10 n=49 v=99
699840 On ch=10 n=38 v=117
700000 Off ch=10 n=49 v=99
700000 Off ch=10 n=38 v=117
700080 On ch=10 n=49 v=101
700080 On ch=10 n=38 v=117
700240 Off ch=10 n=49 v=101
700240 Off ch=10 n=38 v=117
700320 On ch=10 n=49 v=102
700320 On ch=10 n=38 v=106
700480 Off ch=10 n=49 v=102
700480 Off ch=10 n=38 v=106
700560 On ch=10 n=49 v=103
700560 On ch=10 n=43 v=96
700560 On ch=10 n=38 v=117
700720 Off ch=10 n=49 v=103
700720 Off ch=10 n=43 v=96
700720 Off ch=10 n=38 v=117
700800 On ch=10 n=49 v=103
700800 On ch=10 n=38 v=111
700960 Off ch=10 n=49 v=103
700960 Off ch=10 n=38 v=111
701040 On ch=10 n=49 v=105
701040 On ch=10 n=38 v=96
701120 Off ch=10 n=38 v=96
701160 On ch=10 n=38 v=117
701200 Off ch=10 n=49 v=105
701240 Off ch=10 n=38 v=117
701280 On ch=10 n=38 v=117
701360 Off ch=10 n=38 v=117
701400 On ch=10 n=38 v=117
701480 Off ch=10 n=38 v=117
701520 On ch=10 n=38 v=98
701600 Off ch=10 n=38 v=98
701640 On ch=10 n=38 v=117
701720 Off ch=10 n=38 v=117
701760 On ch=10 n=38 v=117
701840 Off ch=10 n=38 v=117
701880 On ch=10 n=38 v=117
701960 Off ch=10 n=38 v=117
702000 On ch=10 n=47 v=117
702080 Off ch=10 n=47 v=117
702120 On ch=10 n=47 v=117
702200 Off ch=10 n=47 v=117
702240 On ch=10 n=47 v=110
702320 Off ch=10 n=47 v=110
702360 On ch=10 n=47 v=117
702360 On ch=10 n=43 v=96
702440 Off ch=10 n=47 v=117
702440 Off ch=10 n=43 v=96
702480 On ch=10 n=49 v=82
702480 On ch=10 n=36 v=117
702640 Off ch=10 n=49 v=82
702640 Off ch=10 n=36 v=117
702960 On ch=10 n=51 v=96
703120 Off ch=10 n=51 v=96
703440 On ch=10 n=51 v=117
703600 Off ch=10 n=51 v=117
703680 On ch=10 n=36 v=117
703760 Off ch=10 n=36 v=117
703920 On ch=10 n=51 v=96
703920 On ch=10 n=38 v=117
704000 Off ch=10 n=38 v=117
704080 Off ch=10 n=51 v=96
704400 On ch=10 n=51 v=96
704560 Off ch=10 n=51 v=96
704880 On ch=10 n=51 v=96
705040 Off ch=10 n=51 v=96
705120 On ch=10 n=47 v=117
705130 On ch=10 n=38 v=74
705160 Off ch=10 n=47 v=117
705170 Off ch=10 n=38 v=74
705240 On ch=10 n=43 v=117
705250 On ch=10 n=38 v=96
705280 Off ch=10 n=43 v=117
705290 Off ch=10 n=38 v=96
705360 On ch=10 n=38 v=67
705360 On ch=10 n=36 v=67
705560 Off ch=10 n=38 v=67
705680 Off ch=10 n=36 v=67
705840 On ch=10 n=49 v=112
705840 On ch=10 n=38 v=67
706080 Off ch=10 n=49 v=112
706080 Off ch=10 n=38 v=67
706080 On ch=10 n=57 v=115
706080 On ch=10 n=38 v=67
706320 Off ch=10 n=57 v=115
706320 Off ch=10 n=38 v=67
706320 On ch=10 n=49 v=115
706320 On ch=10 n=38 v=67
706640 Off ch=10 n=49 v=115
706640 Off ch=10 n=38 v=67
712560 On ch=10 n=36 v=109
712560 On ch=10 n=46 v=95
712570 Off ch=10 n=36 v=109
712570 Off ch=10 n=46 v=95
712800 On ch=10 n=40 v=91
712833 Off ch=10 n=40 v=91
712920 On ch=10 n=40 v=93
712973 Off ch=10 n=40 v=93
713040 On ch=10 n=40 v=93
713040 On ch=10 n=42 v=81
713050 Off ch=10 n=42 v=81
713070 Off ch=10 n=40 v=93
713160 On ch=10 n=40 v=91
713183 Off ch=10 n=40 v=91
713280 On ch=10 n=40 v=115
713280 On ch=10 n=36 v=109
713280 On ch=10 n=42 v=95
713290 Off ch=10 n=36 v=109
713290 Off ch=10 n=42 v=95
713310 Off ch=10 n=40 v=115
713400 On ch=10 n=40 v=91
713438 Off ch=10 n=40 v=91
713520 On ch=10 n=40 v=93
713530 Off ch=10 n=40 v=93
713640 On ch=10 n=40 v=92
713640 On ch=10 n=42 v=81
713650 Off ch=10 n=42 v=81
713658 Off ch=10 n=40 v=92
713760 On ch=10 n=40 v=95
713770 Off ch=10 n=40 v=95
713880 On ch=10 n=40 v=91
713890 Off ch=10 n=40 v=91
714000 On ch=10 n=40 v=114
714000 On ch=10 n=36 v=109
714000 On ch=10 n=42 v=95
714010 Off ch=10 n=36 v=109
714010 Off ch=10 n=42 v=95
714023 Off ch=10 n=40 v=114
714120 On ch=10 n=40 v=109
714130 Off ch=10 n=40 v=109
714240 On ch=10 n=40 v=82
714240 On ch=10 n=42 v=67
714250 Off ch=10 n=42 v=67
714283 Off ch=10 n=40 v=82
714360 On ch=10 n=40 v=81
714370 Off ch=10 n=40 v=81
714480 On ch=10 n=40 v=126
714480 On ch=10 n=36 v=95
714480 On ch=10 n=42 v=95
714490 Off ch=10 n=36 v=95
714490 Off ch=10 n=42 v=95
714525 Off ch=10 n=40 v=126
714720 On ch=10 n=40 v=60
714720 On ch=10 n=42 v=67
714730 Off ch=10 n=40 v=60
714730 Off ch=10 n=42 v=67
714960 On ch=10 n=40 v=127
714960 On ch=10 n=36 v=95
714960 On ch=10 n=42 v=95
714970 Off ch=10 n=36 v=95
714970 Off ch=10 n=42 v=95
714990 Off ch=10 n=40 v=127
715200 On ch=10 n=40 v=60
715200 On ch=10 n=42 v=67
715210 Off ch=10 n=40 v=60
715210 Off ch=10 n=42 v=67
715440 On ch=10 n=40 v=69
715440 On ch=10 n=36 v=109
715440 On ch=10 n=42 v=95
715450 Off ch=10 n=36 v=109
715450 Off ch=10 n=42 v=95
715558 Off ch=10 n=40 v=69
715560 On ch=10 n=40 v=91
715575 Off ch=10 n=40 v=91
715680 On ch=10 n=40 v=91
715713 Off ch=10 n=40 v=91
715800 On ch=10 n=40 v=93
715858 Off ch=10 n=40 v=93
715920 On ch=10 n=40 v=93
715920 On ch=10 n=42 v=81
715930 Off ch=10 n=42 v=81
715950 Off ch=10 n=40 v=93
716040 On ch=10 n=40 v=91
716063 Off ch=10 n=40 v=91
716160 On ch=10 n=40 v=115
716160 On ch=10 n=36 v=109
716160 On ch=10 n=42 v=95
716170 Off ch=10 n=36 v=109
716170 Off ch=10 n=42 v=95
716190 Off ch=10 n=40 v=115
716280 On ch=10 n=40 v=91
716318 Off ch=10 n=40 v=91
716400 On ch=10 n=40 v=93
716410 Off ch=10 n=40 v=93
716520 On ch=10 n=40 v=92
716520 On ch=10 n=42 v=81
716530 Off ch=10 n=42 v=81
716538 Off ch=10 n=40 v=92
716640 On ch=10 n=40 v=95
716650 Off ch=10 n=40 v=95
716760 On ch=10 n=40 v=91
716770 Off ch=10 n=40 v=91
716880 On ch=10 n=40 v=114
716880 On ch=10 n=36 v=109
716880 On ch=10 n=42 v=95
716890 Off ch=10 n=36 v=109
716890 Off ch=10 n=42 v=95
716903 Off ch=10 n=40 v=114
717000 On ch=10 n=40 v=109
717010 Off ch=10 n=40 v=109
717120 On ch=10 n=40 v=82
717120 On ch=10 n=42 v=67
717130 Off ch=10 n=42 v=67
717163 Off ch=10 n=40 v=82
717240 On ch=10 n=40 v=81
717250 Off ch=10 n=40 v=81
717360 On ch=10 n=40 v=126
717360 On ch=10 n=36 v=95
717360 On ch=10 n=42 v=95
717370 Off ch=10 n=36 v=95
717370 Off ch=10 n=42 v=95
717405 Off ch=10 n=40 v=126
717600 On ch=10 n=40 v=61
717600 On ch=10 n=42 v=67
717610 Off ch=10 n=40 v=61
717610 Off ch=10 n=42 v=67
717840 On ch=10 n=40 v=127
717840 On ch=10 n=36 v=95
717840 On ch=10 n=42 v=95
717850 Off ch=10 n=36 v=95
717850 Off ch=10 n=42 v=95
717870 Off ch=10 n=40 v=127
718080 On ch=10 n=40 v=60
718080 On ch=10 n=42 v=67
718090 Off ch=10 n=40 v=60
718090 Off ch=10 n=42 v=67
718320 On ch=10 n=40 v=77
718320 On ch=10 n=42 v=95
718320 On ch=10 n=36 v=109
718330 Off ch=10 n=42 v=95
718330 Off ch=10 n=36 v=109
718438 Off ch=10 n=40 v=77
718440 On ch=10 n=40 v=73
718558 Off ch=10 n=40 v=73
718560 On ch=10 n=40 v=91
718593 Off ch=10 n=40 v=91
718680 On ch=10 n=40 v=93
718733 Off ch=10 n=40 v=93
718800 On ch=10 n=40 v=93
718800 On ch=10 n=42 v=81
718810 Off ch=10 n=42 v=81
718830 Off ch=10 n=40 v=93
718920 On ch=10 n=40 v=91
718943 Off ch=10 n=40 v=91
719040 On ch=10 n=40 v=115
719040 On ch=10 n=36 v=109
719040 On ch=10 n=42 v=95
719050 Off ch=10 n=36 v=109
719050 Off ch=10 n=42 v=95
719070 Off ch=10 n=40 v=115
719160 On ch=10 n=40 v=91
719198 Off ch=10 n=40 v=91
719280 On ch=10 n=40 v=93
719290 Off ch=10 n=40 v=93
719400 On ch=10 n=40 v=92
719400 On ch=10 n=42 v=81
719410 Off ch=10 n=42 v=81
719418 Off ch=10 n=40 v=92
719520 On ch=10 n=40 v=95
719530 Off ch=10 n=40 v=95
719640 On ch=10 n=40 v=91
719650 Off ch=10 n=40 v=91
719760 On ch=10 n=40 v=114
719760 On ch=10 n=36 v=109
719760 On ch=10 n=42 v=95
719770 Off ch=10 n=36 v=109
719770 Off ch=10 n=42 v=95
719783 Off ch=10 n=40 v=114
719880 On ch=10 n=40 v=109
719890 Off ch=10 n=40 v=109
720000 On ch=10 n=40 v=82
720000 On ch=10 n=42 v=67
720010 Off ch=10 n=42 v=67
720043 Off ch=10 n=40 v=82
720120 On ch=10 n=40 v=81
720130 Off ch=10 n=40 v=81
720240 On ch=10 n=36 v=108
720240 On ch=10 n=40 v=122
720240 On ch=10 n=42 v=108
720250 Off ch=10 n=36 v=108
720250 Off ch=10 n=40 v=122
720250 Off ch=10 n=42 v=108
720480 On ch=10 n=36 v=108
720480 On ch=10 n=40 v=94
720480 On ch=10 n=42 v=80
720490 Off ch=10 n=40 v=94
720490 Off ch=10 n=42 v=80
720503 Off ch=10 n=36 v=108
720720 On ch=10 n=36 v=107
720720 On ch=10 n=40 v=122
720720 On ch=10 n=42 v=108
720730 Off ch=10 n=40 v=122
720730 Off ch=10 n=42 v=108
720732 Off ch=10 n=36 v=107
720960 On ch=10 n=40 v=94
720960 On ch=10 n=42 v=80
720961 On ch=10 n=36 v=108
720970 Off ch=10 n=40 v=94
720970 Off ch=10 n=42 v=80
720971 Off ch=10 n=36 v=108
722160 Meta TrkEnd
TrkEnd
MTrk
0 Meta TrkName "WindChime"
0 Meta 0x20 0a
0 Meta InstrName "WindChime"
0 KeySig 0 major
970 Par ch=11 c=0 v=5
975 Par ch=11 c=32 v=0
980 PrCh ch=11 p=124
985 Par ch=11 c=7 v=60
990 Par ch=11 c=10 v=64
995 Par ch=11 c=91 v=104
1000 Par ch=11 c=93 v=0
1005 Par ch=11 c=101 v=0
1005 Par ch=11 c=100 v=0
1005 Par ch=11 c=6 v=2
1010 Par ch=11 c=99 v=1
1010 Par ch=11 c=98 v=8
1010 Par ch=11 c=6 v=64
1015 Par ch=11 c=99 v=1
1015 Par ch=11 c=98 v=9
1015 Par ch=11 c=6 v=64
1020 Par ch=11 c=99 v=1
1020 Par ch=11 c=98 v=10
1020 Par ch=11 c=6 v=64
1025 Par ch=11 c=99 v=1
1025 Par ch=11 c=98 v=32
1025 Par ch=11 c=6 v=64
1030 Par ch=11 c=99 v=1
1030 Par ch=11 c=98 v=33
1030 Par ch=11 c=6 v=64
1035 Par ch=11 c=99 v=1
1035 Par ch=11 c=98 v=99
1035 Par ch=11 c=6 v=64
1040 Par ch=11 c=99 v=1
1040 Par ch=11 c=98 v=100
1040 Par ch=11 c=6 v=64
1045 Par ch=11 c=99 v=1
1045 Par ch=11 c=98 v=102
1045 Par ch=11 c=6 v=64
561840 On ch=11 n=96 v=72
562078 Off ch=11 n=96 v=72
562080 On ch=11 n=91 v=62
562318 Off ch=11 n=91 v=62
562320 On ch=11 n=86 v=69
562558 Off ch=11 n=86 v=69
562560 On ch=11 n=81 v=73
562798 Off ch=11 n=81 v=73
562800 On ch=11 n=76 v=65
563038 Off ch=11 n=76 v=65
563040 On ch=11 n=71 v=65
563278 Off ch=11 n=71 v=65
563280 On ch=11 n=66 v=53
563518 Off ch=11 n=66 v=53
563520 On ch=11 n=61 v=62
563758 Off ch=11 n=61 v=62
563760 On ch=11 n=56 v=49
563998 Off ch=11 n=56 v=49
564000 On ch=11 n=51 v=40
564238 Off ch=11 n=51 v=40
564240 On ch=11 n=46 v=34
564478 Off ch=11 n=46 v=34
564480 On ch=11 n=41 v=28
564718 Off ch=11 n=41 v=28
564720 On ch=11 n=36 v=17
564958 Off ch=11 n=36 v=17
722160 Meta TrkEnd
TrkEnd
