MFile 1 2 240
MTrk
0 TimeSig 3/4 24 8
0 Tempo 400000
1440 TimeSig 2/4 24 8
1920 TimeSig 4/4 24 8
2880 TimeSig 3/4 24 8
4320 TimeSig 2/4 24 8
4800 TimeSig 4/4 24 8
5760 TimeSig 3/4 24 8
7920 TimeSig 12/8 36 8
9360 TimeSig 3/4 24 8
11520 TimeSig 12/8 36 8
12960 TimeSig 2/4 24 8
13440 TimeSig 3/4 24 8
14160 TimeSig 4/4 24 8
14160 Tempo 279070
15120 TimeSig 3/4 24 8
16560 TimeSig 4/4 24 8
17520 Tempo 400000
34800 TimeSig 12/8 36 8
34800 Tempo 244898
36240 TimeSig 6/8 36 8
36960 Tempo 400000
37680 TimeSig 12/8 36 8
47760 TimeSig 4/4 24 8
53520 TimeSig 3/4 24 8
55680 TimeSig 4/4 24 8
56640 TimeSig 3/4 24 8
58800 TimeSig 12/8 36 8
60240 TimeSig 3/4 24 8
62400 TimeSig 12/8 36 8
63840 TimeSig 3/4 24 8
66720 TimeSig 3/8 36 8
67800 TimeSig 2/8 24 8
68040 TimeSig 3/8 36 8
70560 TimeSig 2/8 24 8
70800 TimeSig 3/8 36 8
73320 TimeSig 4/8 24 8
73800 TimeSig 3/8 36 8
76680 TimeSig 4/4 24 8
81480 TimeSig 2/4 24 8
81960 TimeSig 4/4 24 8
81960 Meta TrkEnd
TrkEnd
MTrk
0 PrCh ch=1 p=24
0 On ch=1 n=74 v=80
0 On ch=1 n=55 v=80
0 On ch=1 n=67 v=80
0 On ch=1 n=62 v=80
0 On ch=1 n=79 v=80
0 On ch=1 n=71 v=80
96 Off ch=1 n=71 v=64
96 Off ch=1 n=79 v=64
96 Off ch=1 n=62 v=64
96 Off ch=1 n=67 v=64
96 Off ch=1 n=55 v=64
96 Off ch=1 n=74 v=64
120 On ch=1 n=62 v=80
120 On ch=1 n=67 v=80
120 On ch=1 n=74 v=80
120 On ch=1 n=79 v=80
120 On ch=1 n=55 v=80
120 On ch=1 n=71 v=80
216 Off ch=1 n=71 v=64
216 Off ch=1 n=55 v=64
216 Off ch=1 n=79 v=64
216 Off ch=1 n=74 v=64
216 Off ch=1 n=67 v=64
216 Off ch=1 n=62 v=64
240 On ch=1 n=74 v=80
240 On ch=1 n=55 v=80
240 On ch=1 n=62 v=80
240 On ch=1 n=67 v=80
240 On ch=1 n=79 v=80
240 On ch=1 n=71 v=80
336 Off ch=1 n=71 v=64
336 Off ch=1 n=79 v=64
336 Off ch=1 n=67 v=64
336 Off ch=1 n=62 v=64
336 Off ch=1 n=55 v=64
336 Off ch=1 n=74 v=64
360 On ch=1 n=55 v=80
360 On ch=1 n=62 v=80
360 On ch=1 n=79 v=80
360 On ch=1 n=71 v=80
360 On ch=1 n=67 v=80
360 On ch=1 n=74 v=80
456 Off ch=1 n=74 v=64
456 Off ch=1 n=67 v=64
456 Off ch=1 n=71 v=64
456 Off ch=1 n=79 v=64
456 Off ch=1 n=62 v=64
456 Off ch=1 n=55 v=64
480 On ch=1 n=54 v=80
480 On ch=1 n=70 v=80
480 On ch=1 n=61 v=80
480 On ch=1 n=73 v=80
480 On ch=1 n=66 v=80
480 On ch=1 n=78 v=80
576 Off ch=1 n=78 v=64
576 Off ch=1 n=66 v=64
576 Off ch=1 n=73 v=64
576 Off ch=1 n=61 v=64
576 Off ch=1 n=70 v=64
576 Off ch=1 n=54 v=64
600 On ch=1 n=78 v=80
696 Off ch=1 n=78 v=64
720 On ch=1 n=79 v=80
720 On ch=1 n=55 v=80
720 On ch=1 n=67 v=80
720 On ch=1 n=62 v=80
720 On ch=1 n=74 v=80
720 On ch=1 n=71 v=80
816 Off ch=1 n=71 v=64
816 Off ch=1 n=74 v=64
816 Off ch=1 n=62 v=64
816 Off ch=1 n=67 v=64
816 Off ch=1 n=55 v=64
816 Off ch=1 n=79 v=64
840 On ch=1 n=55 v=80
840 On ch=1 n=67 v=80
840 On ch=1 n=71 v=80
840 On ch=1 n=79 v=80
840 On ch=1 n=62 v=80
840 On ch=1 n=74 v=80
936 Off ch=1 n=74 v=64
936 Off ch=1 n=62 v=64
936 Off ch=1 n=79 v=64
936 Off ch=1 n=71 v=64
936 Off ch=1 n=67 v=64
936 Off ch=1 n=55 v=64
960 On ch=1 n=74 v=80
960 On ch=1 n=55 v=80
960 On ch=1 n=62 v=80
960 On ch=1 n=79 v=80
960 On ch=1 n=71 v=80
960 On ch=1 n=67 v=80
1056 Off ch=1 n=67 v=64
1056 Off ch=1 n=71 v=64
1056 Off ch=1 n=79 v=64
1056 Off ch=1 n=62 v=64
1056 Off ch=1 n=55 v=64
1056 Off ch=1 n=74 v=64
1080 On ch=1 n=55 v=80
1080 On ch=1 n=62 v=80
1080 On ch=1 n=74 v=80
1080 On ch=1 n=79 v=80
1080 On ch=1 n=71 v=80
1080 On ch=1 n=67 v=80
1176 Off ch=1 n=67 v=64
1176 Off ch=1 n=71 v=64
1176 Off ch=1 n=79 v=64
1176 Off ch=1 n=74 v=64
1176 Off ch=1 n=62 v=64
1176 Off ch=1 n=55 v=64
1200 On ch=1 n=61 v=80
1200 On ch=1 n=73 v=80
1200 On ch=1 n=54 v=80
1200 On ch=1 n=66 v=80
1200 On ch=1 n=78 v=80
1200 On ch=1 n=70 v=80
1296 Off ch=1 n=70 v=64
1296 Off ch=1 n=78 v=64
1296 Off ch=1 n=66 v=64
1296 Off ch=1 n=54 v=64
1296 Off ch=1 n=73 v=64
1296 Off ch=1 n=61 v=64
1320 On ch=1 n=78 v=80
1416 Off ch=1 n=78 v=64
1440 On ch=1 n=79 v=80
1440 On ch=1 n=71 v=80
1440 On ch=1 n=62 v=80
1440 On ch=1 n=74 v=80
1440 On ch=1 n=67 v=80
1440 On ch=1 n=55 v=80
1536 Off ch=1 n=55 v=64
1536 Off ch=1 n=67 v=64
1536 Off ch=1 n=74 v=64
1536 Off ch=1 n=62 v=64
1536 Off ch=1 n=71 v=64
1536 Off ch=1 n=79 v=64
1560 On ch=1 n=71 v=80
1560 On ch=1 n=79 v=80
1560 On ch=1 n=62 v=80
1560 On ch=1 n=55 v=80
1560 On ch=1 n=74 v=80
1560 On ch=1 n=67 v=80
1656 Off ch=1 n=67 v=64
1656 Off ch=1 n=74 v=64
1656 Off ch=1 n=55 v=64
1656 Off ch=1 n=62 v=64
1656 Off ch=1 n=79 v=64
1656 Off ch=1 n=71 v=64
1680 On ch=1 n=62 v=80
1680 On ch=1 n=55 v=80
1680 On ch=1 n=74 v=80
1680 On ch=1 n=79 v=80
1680 On ch=1 n=67 v=80
1680 On ch=1 n=71 v=80
1776 Off ch=1 n=71 v=64
1776 Off ch=1 n=67 v=64
1776 Off ch=1 n=79 v=64
1776 Off ch=1 n=74 v=64
1776 Off ch=1 n=55 v=64
1776 Off ch=1 n=62 v=64
1800 On ch=1 n=74 v=80
1800 On ch=1 n=71 v=80
1800 On ch=1 n=62 v=80
1800 On ch=1 n=67 v=80
1800 On ch=1 n=55 v=80
1800 On ch=1 n=79 v=80
1896 Off ch=1 n=79 v=64
1896 Off ch=1 n=55 v=64
1896 Off ch=1 n=67 v=64
1896 Off ch=1 n=62 v=64
1896 Off ch=1 n=71 v=64
1896 Off ch=1 n=74 v=64
1920 On ch=1 n=66 v=80
1920 On ch=1 n=61 v=80
1920 On ch=1 n=73 v=80
1920 On ch=1 n=54 v=80
1920 On ch=1 n=76 v=80
1920 On ch=1 n=70 v=80
2016 Off ch=1 n=70 v=64
2016 Off ch=1 n=76 v=64
2016 Off ch=1 n=54 v=64
2016 Off ch=1 n=73 v=64
2016 Off ch=1 n=61 v=64
2016 Off ch=1 n=66 v=64
2040 On ch=1 n=73 v=80
2040 On ch=1 n=66 v=80
2040 On ch=1 n=70 v=80
2040 On ch=1 n=76 v=80
2040 On ch=1 n=61 v=80
2040 On ch=1 n=54 v=80
2209 Off ch=1 n=54 v=64
2209 Off ch=1 n=61 v=64
2209 Off ch=1 n=76 v=64
2209 Off ch=1 n=70 v=64
2209 Off ch=1 n=66 v=64
2209 Off ch=1 n=73 v=64
2280 On ch=1 n=70 v=80
2280 On ch=1 n=73 v=80
2280 On ch=1 n=76 v=80
2280 On ch=1 n=66 v=80
2376 Off ch=1 n=66 v=64
2376 Off ch=1 n=76 v=64
2376 Off ch=1 n=73 v=64
2376 Off ch=1 n=70 v=64
2400 On ch=1 n=61 v=80
2400 On ch=1 n=54 v=80
2496 Off ch=1 n=54 v=64
2496 Off ch=1 n=61 v=64
2520 On ch=1 n=66 v=80
2520 On ch=1 n=70 v=80
2520 On ch=1 n=73 v=80
2520 On ch=1 n=76 v=80
2616 Off ch=1 n=76 v=64
2616 Off ch=1 n=73 v=64
2616 Off ch=1 n=70 v=64
2616 Off ch=1 n=66 v=64
2640 On ch=1 n=66 v=80
2640 On ch=1 n=54 v=80
2640 On ch=1 n=61 v=80
2640 On ch=1 n=70 v=80
2640 On ch=1 n=76 v=80
2640 On ch=1 n=73 v=80
2736 Off ch=1 n=73 v=64
2736 Off ch=1 n=76 v=64
2736 Off ch=1 n=70 v=64
2736 Off ch=1 n=61 v=64
2736 Off ch=1 n=54 v=64
2736 Off ch=1 n=66 v=64
2760 On ch=1 n=54 v=80
2760 On ch=1 n=61 v=80
2856 Off ch=1 n=61 v=64
2856 Off ch=1 n=54 v=64
2880 On ch=1 n=79 v=80
2880 On ch=1 n=55 v=80
2880 On ch=1 n=71 v=80
2880 On ch=1 n=62 v=80
2880 On ch=1 n=74 v=80
2880 On ch=1 n=67 v=80
2976 Off ch=1 n=67 v=64
2976 Off ch=1 n=74 v=64
2976 Off ch=1 n=62 v=64
2976 Off ch=1 n=71 v=64
2976 Off ch=1 n=55 v=64
2976 Off ch=1 n=79 v=64
3000 On ch=1 n=62 v=80
3000 On ch=1 n=67 v=80
3000 On ch=1 n=79 v=80
3000 On ch=1 n=71 v=80
3000 On ch=1 n=55 v=80
3000 On ch=1 n=74 v=80
3096 Off ch=1 n=74 v=64
3096 Off ch=1 n=55 v=64
3096 Off ch=1 n=71 v=64
3096 Off ch=1 n=79 v=64
3096 Off ch=1 n=67 v=64
3096 Off ch=1 n=62 v=64
3120 On ch=1 n=74 v=80
3120 On ch=1 n=55 v=80
3120 On ch=1 n=62 v=80
3120 On ch=1 n=67 v=80
3120 On ch=1 n=79 v=80
3120 On ch=1 n=71 v=80
3216 Off ch=1 n=71 v=64
3216 Off ch=1 n=79 v=64
3216 Off ch=1 n=67 v=64
3216 Off ch=1 n=62 v=64
3216 Off ch=1 n=55 v=64
3216 Off ch=1 n=74 v=64
3240 On ch=1 n=62 v=80
3240 On ch=1 n=55 v=80
3240 On ch=1 n=79 v=80
3240 On ch=1 n=71 v=80
3240 On ch=1 n=67 v=80
3240 On ch=1 n=74 v=80
3336 Off ch=1 n=74 v=64
3336 Off ch=1 n=67 v=64
3336 Off ch=1 n=71 v=64
3336 Off ch=1 n=79 v=64
3336 Off ch=1 n=55 v=64
3336 Off ch=1 n=62 v=64
3360 On ch=1 n=54 v=80
3360 On ch=1 n=70 v=80
3360 On ch=1 n=61 v=80
3360 On ch=1 n=73 v=80
3360 On ch=1 n=66 v=80
3360 On ch=1 n=78 v=80
3456 Off ch=1 n=78 v=64
3456 Off ch=1 n=66 v=64
3456 Off ch=1 n=73 v=64
3456 Off ch=1 n=61 v=64
3456 Off ch=1 n=70 v=64
3456 Off ch=1 n=54 v=64
3480 On ch=1 n=78 v=80
3576 Off ch=1 n=78 v=64
3600 On ch=1 n=79 v=80
3600 On ch=1 n=55 v=80
3600 On ch=1 n=71 v=80
3600 On ch=1 n=62 v=80
3600 On ch=1 n=74 v=80
3600 On ch=1 n=67 v=80
3696 Off ch=1 n=67 v=64
3696 Off ch=1 n=74 v=64
3696 Off ch=1 n=62 v=64
3696 Off ch=1 n=71 v=64
3696 Off ch=1 n=55 v=64
3696 Off ch=1 n=79 v=64
3720 On ch=1 n=62 v=80
3720 On ch=1 n=67 v=80
3720 On ch=1 n=79 v=80
3720 On ch=1 n=71 v=80
3720 On ch=1 n=55 v=80
3720 On ch=1 n=74 v=80
3816 Off ch=1 n=74 v=64
3816 Off ch=1 n=55 v=64
3816 Off ch=1 n=71 v=64
3816 Off ch=1 n=79 v=64
3816 Off ch=1 n=67 v=64
3816 Off ch=1 n=62 v=64
3840 On ch=1 n=74 v=80
3840 On ch=1 n=55 v=80
3840 On ch=1 n=62 v=80
3840 On ch=1 n=67 v=80
3840 On ch=1 n=79 v=80
3840 On ch=1 n=71 v=80
3936 Off ch=1 n=71 v=64
3936 Off ch=1 n=79 v=64
3936 Off ch=1 n=67 v=64
3936 Off ch=1 n=62 v=64
3936 Off ch=1 n=55 v=64
3936 Off ch=1 n=74 v=64
3960 On ch=1 n=62 v=80
3960 On ch=1 n=55 v=80
3960 On ch=1 n=79 v=80
3960 On ch=1 n=71 v=80
3960 On ch=1 n=67 v=80
3960 On ch=1 n=74 v=80
4056 Off ch=1 n=74 v=64
4056 Off ch=1 n=67 v=64
4056 Off ch=1 n=71 v=64
4056 Off ch=1 n=79 v=64
4056 Off ch=1 n=55 v=64
4056 Off ch=1 n=62 v=64
4080 On ch=1 n=54 v=80
4080 On ch=1 n=70 v=80
4080 On ch=1 n=61 v=80
4080 On ch=1 n=73 v=80
4080 On ch=1 n=66 v=80
4080 On ch=1 n=78 v=80
4176 Off ch=1 n=78 v=64
4176 Off ch=1 n=66 v=64
4176 Off ch=1 n=73 v=64
4176 Off ch=1 n=61 v=64
4176 Off ch=1 n=70 v=64
4176 Off ch=1 n=54 v=64
4200 On ch=1 n=78 v=80
4296 Off ch=1 n=78 v=64
4320 On ch=1 n=55 v=80
4320 On ch=1 n=79 v=80
4320 On ch=1 n=71 v=80
4320 On ch=1 n=62 v=80
4320 On ch=1 n=74 v=80
4320 On ch=1 n=67 v=80
4416 Off ch=1 n=67 v=64
4416 Off ch=1 n=74 v=64
4416 Off ch=1 n=62 v=64
4416 Off ch=1 n=71 v=64
4416 Off ch=1 n=79 v=64
4416 Off ch=1 n=55 v=64
4440 On ch=1 n=74 v=80
4440 On ch=1 n=71 v=80
4440 On ch=1 n=79 v=80
4440 On ch=1 n=62 v=80
4440 On ch=1 n=55 v=80
4440 On ch=1 n=67 v=80
4536 Off ch=1 n=67 v=64
4536 Off ch=1 n=55 v=64
4536 Off ch=1 n=62 v=64
4536 Off ch=1 n=79 v=64
4536 Off ch=1 n=71 v=64
4536 Off ch=1 n=74 v=64
4560 On ch=1 n=74 v=80
4560 On ch=1 n=62 v=80
4560 On ch=1 n=55 v=80
4560 On ch=1 n=79 v=80
4560 On ch=1 n=67 v=80
4560 On ch=1 n=71 v=80
4656 Off ch=1 n=71 v=64
4656 Off ch=1 n=67 v=64
4656 Off ch=1 n=79 v=64
4656 Off ch=1 n=55 v=64
4656 Off ch=1 n=62 v=64
4656 Off ch=1 n=74 v=64
4680 On ch=1 n=71 v=80
4680 On ch=1 n=62 v=80
4680 On ch=1 n=67 v=80
4680 On ch=1 n=55 v=80
4680 On ch=1 n=79 v=80
4680 On ch=1 n=74 v=80
4776 Off ch=1 n=74 v=64
4776 Off ch=1 n=79 v=64
4776 Off ch=1 n=55 v=64
4776 Off ch=1 n=67 v=64
4776 Off ch=1 n=62 v=64
4776 Off ch=1 n=71 v=64
4800 On ch=1 n=73 v=80
4800 On ch=1 n=76 v=80
4800 On ch=1 n=66 v=80
4800 On ch=1 n=70 v=80
4800 On ch=1 n=54 v=80
4800 On ch=1 n=61 v=80
4896 Off ch=1 n=61 v=64
4896 Off ch=1 n=54 v=64
4896 Off ch=1 n=70 v=64
4896 Off ch=1 n=66 v=64
4896 Off ch=1 n=76 v=64
4896 Off ch=1 n=73 v=64
4920 On ch=1 n=70 v=80
4920 On ch=1 n=76 v=80
4920 On ch=1 n=73 v=80
4920 On ch=1 n=66 v=80
4920 On ch=1 n=54 v=80
4920 On ch=1 n=61 v=80
5016 Off ch=1 n=61 v=64
5016 Off ch=1 n=54 v=64
5016 Off ch=1 n=66 v=64
5016 Off ch=1 n=73 v=64
5016 Off ch=1 n=76 v=64
5016 Off ch=1 n=70 v=64
5160 On ch=1 n=73 v=80
5160 On ch=1 n=70 v=80
5160 On ch=1 n=66 v=80
5160 On ch=1 n=76 v=80
5256 Off ch=1 n=76 v=64
5256 Off ch=1 n=66 v=64
5256 Off ch=1 n=70 v=64
5256 Off ch=1 n=73 v=64
5280 On ch=1 n=54 v=80
5280 On ch=1 n=61 v=80
5376 Off ch=1 n=61 v=64
5376 Off ch=1 n=54 v=64
5400 On ch=1 n=70 v=80
5400 On ch=1 n=73 v=80
5400 On ch=1 n=76 v=80
5400 On ch=1 n=66 v=80
5496 Off ch=1 n=66 v=64
5496 Off ch=1 n=76 v=64
5496 Off ch=1 n=73 v=64
5496 Off ch=1 n=70 v=64
5520 On ch=1 n=54 v=80
5520 On ch=1 n=61 v=80
5520 On ch=1 n=66 v=80
5616 Off ch=1 n=66 v=64
5616 Off ch=1 n=61 v=64
5616 Off ch=1 n=54 v=64
5760 On ch=1 n=67 v=80
5856 Off ch=1 n=67 v=64
5880 On ch=1 n=70 v=80
5976 Off ch=1 n=70 v=64
6000 On ch=1 n=71 v=80
6096 Off ch=1 n=71 v=64
6120 On ch=1 n=73 v=80
6216 Off ch=1 n=73 v=64
6240 On ch=1 n=74 v=80
6336 Off ch=1 n=74 v=64
6360 On ch=1 n=79 v=80
6456 Off ch=1 n=79 v=64
6480 On ch=1 n=66 v=80
6480 On ch=1 n=78 v=80
6480 On ch=1 n=59 v=80
6480 On ch=1 n=71 v=80
6480 On ch=1 n=74 v=80
6576 Off ch=1 n=74 v=64
6576 Off ch=1 n=71 v=64
6576 Off ch=1 n=59 v=64
6576 Off ch=1 n=78 v=64
6576 Off ch=1 n=66 v=64
6600 On ch=1 n=74 v=80
6600 On ch=1 n=59 v=80
6600 On ch=1 n=66 v=80
6600 On ch=1 n=71 v=80
6600 On ch=1 n=78 v=80
6696 Off ch=1 n=78 v=64
6696 Off ch=1 n=71 v=64
6696 Off ch=1 n=66 v=64
6696 Off ch=1 n=59 v=64
6696 Off ch=1 n=74 v=64
6720 On ch=1 n=74 v=80
6720 On ch=1 n=71 v=80
6720 On ch=1 n=66 v=80
6720 On ch=1 n=78 v=80
6720 On ch=1 n=59 v=80
6816 Off ch=1 n=59 v=64
6816 Off ch=1 n=78 v=64
6816 Off ch=1 n=66 v=64
6816 Off ch=1 n=71 v=64
6816 Off ch=1 n=74 v=64
6840 On ch=1 n=66 v=80
6840 On ch=1 n=74 v=80
6840 On ch=1 n=59 v=80
6840 On ch=1 n=78 v=80
6840 On ch=1 n=71 v=80
6936 Off ch=1 n=71 v=64
6936 Off ch=1 n=78 v=64
6936 Off ch=1 n=59 v=64
6936 Off ch=1 n=74 v=64
6936 Off ch=1 n=66 v=64
6960 On ch=1 n=66 v=80
6960 On ch=1 n=59 v=80
6960 On ch=1 n=71 v=80
6960 On ch=1 n=78 v=80
6960 On ch=1 n=74 v=80
7056 Off ch=1 n=74 v=64
7056 Off ch=1 n=78 v=64
7056 Off ch=1 n=71 v=64
7056 Off ch=1 n=59 v=64
7056 Off ch=1 n=66 v=64
7080 On ch=1 n=74 v=80
7080 On ch=1 n=78 v=80
7080 On ch=1 n=71 v=80
7080 On ch=1 n=59 v=80
7080 On ch=1 n=66 v=80
7176 Off ch=1 n=66 v=64
7176 Off ch=1 n=59 v=64
7176 Off ch=1 n=71 v=64
7176 Off ch=1 n=78 v=64
7176 Off ch=1 n=74 v=64
7200 On ch=1 n=57 v=80
7200 On ch=1 n=73 v=80
7296 Off ch=1 n=73 v=64
7320 On ch=1 n=74 v=80
7416 Off ch=1 n=74 v=64
7440 On ch=1 n=76 v=80
7488 Off ch=1 n=76 v=64
7500 On ch=1 n=73 v=80
7548 Off ch=1 n=73 v=64
7560 On ch=1 n=74 v=80
7608 Off ch=1 n=74 v=64
7620 On ch=1 n=73 v=80
7668 Off ch=1 n=73 v=64
7680 On ch=1 n=71 v=80
7776 Off ch=1 n=71 v=64
7776 Off ch=1 n=57 v=64
7800 On ch=1 n=69 v=80
7896 Off ch=1 n=69 v=64
7920 On ch=1 n=55 v=80
7920 On ch=1 n=74 v=80
8016 Off ch=1 n=74 v=64
8040 On ch=1 n=73 v=80
8136 Off ch=1 n=73 v=64
8160 On ch=1 n=71 v=80
8208 Off ch=1 n=55 v=64
8256 Off ch=1 n=71 v=64
8280 On ch=1 n=73 v=80
8280 On ch=1 n=54 v=80
8376 Off ch=1 n=73 v=64
8400 On ch=1 n=74 v=80
8496 Off ch=1 n=74 v=64
8520 On ch=1 n=76 v=80
8568 Off ch=1 n=54 v=64
8616 Off ch=1 n=76 v=64
8640 On ch=1 n=74 v=80
8640 On ch=1 n=59 v=80
8736 Off ch=1 n=74 v=64
8760 On ch=1 n=73 v=80
8856 Off ch=1 n=73 v=64
8880 On ch=1 n=71 v=80
8928 Off ch=1 n=59 v=64
8976 Off ch=1 n=71 v=64
9000 On ch=1 n=58 v=80
9000 On ch=1 n=73 v=80
9096 Off ch=1 n=73 v=64
9096 Off ch=1 n=58 v=64
9240 On ch=1 n=66 v=80
9336 Off ch=1 n=66 v=64
9360 On ch=1 n=67 v=80
9456 Off ch=1 n=67 v=64
9480 On ch=1 n=70 v=80
9576 Off ch=1 n=70 v=64
9600 On ch=1 n=71 v=80
9696 Off ch=1 n=71 v=64
9720 On ch=1 n=73 v=80
9816 Off ch=1 n=73 v=64
9840 On ch=1 n=74 v=80
9936 Off ch=1 n=74 v=64
9960 On ch=1 n=79 v=80
10056 Off ch=1 n=79 v=64
10080 On ch=1 n=78 v=80
10080 On ch=1 n=59 v=80
10080 On ch=1 n=66 v=80
10080 On ch=1 n=74 v=80
10080 On ch=1 n=71 v=80
10176 Off ch=1 n=71 v=64
10176 Off ch=1 n=74 v=64
10176 Off ch=1 n=66 v=64
10176 Off ch=1 n=59 v=64
10176 Off ch=1 n=78 v=64
10200 On ch=1 n=66 v=80
10200 On ch=1 n=71 v=80
10200 On ch=1 n=74 v=80
10200 On ch=1 n=78 v=80
10200 On ch=1 n=59 v=80
10296 Off ch=1 n=59 v=64
10296 Off ch=1 n=78 v=64
10296 Off ch=1 n=74 v=64
10296 Off ch=1 n=71 v=64
10296 Off ch=1 n=66 v=64
10320 On ch=1 n=66 v=80
10320 On ch=1 n=74 v=80
10320 On ch=1 n=71 v=80
10320 On ch=1 n=78 v=80
10320 On ch=1 n=59 v=80
10416 Off ch=1 n=59 v=64
10416 Off ch=1 n=78 v=64
10416 Off ch=1 n=71 v=64
10416 Off ch=1 n=74 v=64
10416 Off ch=1 n=66 v=64
10440 On ch=1 n=74 v=80
10440 On ch=1 n=71 v=80
10440 On ch=1 n=78 v=80
10440 On ch=1 n=59 v=80
10440 On ch=1 n=66 v=80
10536 Off ch=1 n=66 v=64
10536 Off ch=1 n=59 v=64
10536 Off ch=1 n=78 v=64
10536 Off ch=1 n=71 v=64
10536 Off ch=1 n=74 v=64
10560 On ch=1 n=66 v=80
10560 On ch=1 n=59 v=80
10560 On ch=1 n=78 v=80
10560 On ch=1 n=71 v=80
10560 On ch=1 n=74 v=80
10656 Off ch=1 n=74 v=64
10656 Off ch=1 n=71 v=64
10656 Off ch=1 n=78 v=64
10656 Off ch=1 n=59 v=64
10656 Off ch=1 n=66 v=64
10680 On ch=1 n=59 v=80
10680 On ch=1 n=78 v=80
10680 On ch=1 n=71 v=80
10680 On ch=1 n=74 v=80
10680 On ch=1 n=66 v=80
10776 Off ch=1 n=66 v=64
10776 Off ch=1 n=74 v=64
10776 Off ch=1 n=71 v=64
10776 Off ch=1 n=78 v=64
10776 Off ch=1 n=59 v=64
10800 On ch=1 n=57 v=80
10800 On ch=1 n=79 v=80
10848 Off ch=1 n=79 v=64
10860 On ch=1 n=81 v=80
10908 Off ch=1 n=81 v=64
10920 On ch=1 n=79 v=80
10968 Off ch=1 n=79 v=64
10980 On ch=1 n=78 v=80
11028 Off ch=1 n=78 v=64
11040 On ch=1 n=76 v=80
11097 Off ch=1 n=76 v=64
11100 On ch=1 n=73 v=80
11148 Off ch=1 n=73 v=64
11160 On ch=1 n=74 v=80
11208 Off ch=1 n=74 v=64
11220 On ch=1 n=73 v=80
11277 Off ch=1 n=73 v=64
11280 On ch=1 n=71 v=80
11376 Off ch=1 n=71 v=64
11376 Off ch=1 n=57 v=64
11400 On ch=1 n=69 v=80
11496 Off ch=1 n=69 v=64
11520 On ch=1 n=55 v=80
11520 On ch=1 n=74 v=80
11616 Off ch=1 n=74 v=64
11640 On ch=1 n=73 v=80
11736 Off ch=1 n=73 v=64
11760 On ch=1 n=71 v=80
11808 Off ch=1 n=55 v=64
11856 Off ch=1 n=71 v=64
11880 On ch=1 n=54 v=80
11880 On ch=1 n=73 v=80
11976 Off ch=1 n=73 v=64
12000 On ch=1 n=74 v=80
12096 Off ch=1 n=74 v=64
12120 On ch=1 n=76 v=80
12168 Off ch=1 n=54 v=64
12216 Off ch=1 n=76 v=64
12240 On ch=1 n=59 v=80
12240 On ch=1 n=74 v=80
12336 Off ch=1 n=74 v=64
12360 On ch=1 n=73 v=80
12456 Off ch=1 n=73 v=64
12480 On ch=1 n=71 v=80
12528 Off ch=1 n=59 v=64
12576 Off ch=1 n=71 v=64
12600 On ch=1 n=73 v=80
12600 On ch=1 n=58 v=80
12696 Off ch=1 n=58 v=64
12696 Off ch=1 n=73 v=64
12840 On ch=1 n=66 v=80
12936 Off ch=1 n=66 v=64
12960 On ch=1 n=67 v=80
13056 Off ch=1 n=67 v=64
13080 On ch=1 n=70 v=80
13176 Off ch=1 n=70 v=64
13200 On ch=1 n=71 v=80
13296 Off ch=1 n=71 v=64
13320 On ch=1 n=73 v=80
13416 Off ch=1 n=73 v=64
13440 On ch=1 n=74 v=80
13536 Off ch=1 n=74 v=64
13620 On ch=1 n=71 v=80
13668 Off ch=1 n=71 v=64
13680 On ch=1 n=73 v=80
13776 Off ch=1 n=73 v=64
13860 On ch=1 n=70 v=80
13908 Off ch=1 n=70 v=64
13920 On ch=1 n=71 v=80
14016 Off ch=1 n=71 v=64
14100 On ch=1 n=66 v=80
14148 Off ch=1 n=66 v=64
14160 On ch=1 n=67 v=80
14256 Off ch=1 n=67 v=64
14280 On ch=1 n=64 v=80
14376 Off ch=1 n=64 v=64
14400 On ch=1 n=66 v=80
14496 Off ch=1 n=66 v=64
14520 On ch=1 n=62 v=80
14616 Off ch=1 n=62 v=64
14640 On ch=1 n=64 v=80
14736 Off ch=1 n=64 v=64
14760 On ch=1 n=61 v=80
14856 Off ch=1 n=61 v=64
14880 On ch=1 n=62 v=80
14976 Off ch=1 n=62 v=64
15000 On ch=1 n=58 v=80
15096 Off ch=1 n=58 v=64
15120 On ch=1 n=59 v=80
15216 Off ch=1 n=59 v=64
15240 On ch=1 n=54 v=80
15336 Off ch=1 n=54 v=64
15360 On ch=1 n=55 v=80
15456 Off ch=1 n=55 v=64
15480 On ch=1 n=52 v=80
15576 Off ch=1 n=52 v=64
15600 On ch=1 n=54 v=80
15696 Off ch=1 n=54 v=64
15720 On ch=1 n=58 v=80
15816 Off ch=1 n=58 v=64
15840 On ch=1 n=59 v=80
15936 Off ch=1 n=59 v=64
15960 On ch=1 n=54 v=80
16056 Off ch=1 n=54 v=64
16080 On ch=1 n=55 v=80
16176 Off ch=1 n=55 v=64
16200 On ch=1 n=52 v=80
16296 Off ch=1 n=52 v=64
16320 On ch=1 n=54 v=80
16416 Off ch=1 n=54 v=64
16440 On ch=1 n=58 v=80
16536 Off ch=1 n=58 v=64
16560 On ch=1 n=59 v=80
16656 Off ch=1 n=59 v=64
16680 On ch=1 n=54 v=80
16776 Off ch=1 n=54 v=64
16800 On ch=1 n=55 v=80
16896 Off ch=1 n=55 v=64
16920 On ch=1 n=52 v=80
17016 Off ch=1 n=52 v=64
17040 On ch=1 n=54 v=80
17136 Off ch=1 n=54 v=64
17160 On ch=1 n=58 v=80
17256 Off ch=1 n=58 v=64
17280 On ch=1 n=59 v=80
17376 Off ch=1 n=59 v=64
17400 On ch=1 n=52 v=80
17496 Off ch=1 n=52 v=64
17520 On ch=1 n=54 v=80
17558 Off ch=1 n=54 v=64
17560 On ch=1 n=55 v=80
17598 Off ch=1 n=55 v=64
17600 On ch=1 n=54 v=80
17638 Off ch=1 n=54 v=64
17640 On ch=1 n=52 v=80
17736 Off ch=1 n=52 v=64
17760 On ch=1 n=54 v=80
17798 Off ch=1 n=54 v=64
17800 On ch=1 n=55 v=80
17838 Off ch=1 n=55 v=64
17840 On ch=1 n=54 v=80
17878 Off ch=1 n=54 v=64
17880 On ch=1 n=52 v=80
17976 Off ch=1 n=52 v=64
18000 On ch=1 n=54 v=80
18038 Off ch=1 n=54 v=64
18040 On ch=1 n=55 v=80
18078 Off ch=1 n=55 v=64
18080 On ch=1 n=54 v=80
18118 Off ch=1 n=54 v=64
18120 On ch=1 n=52 v=80
18216 Off ch=1 n=52 v=64
18240 On ch=1 n=54 v=80
18278 Off ch=1 n=54 v=64
18280 On ch=1 n=55 v=80
18318 Off ch=1 n=55 v=64
18320 On ch=1 n=54 v=80
18358 Off ch=1 n=54 v=64
18360 On ch=1 n=52 v=80
18456 Off ch=1 n=52 v=64
18480 On ch=1 n=54 v=80
18518 Off ch=1 n=54 v=64
18520 On ch=1 n=55 v=80
18558 Off ch=1 n=55 v=64
18560 On ch=1 n=54 v=80
18598 Off ch=1 n=54 v=64
18600 On ch=1 n=52 v=80
18696 Off ch=1 n=52 v=64
18720 On ch=1 n=54 v=80
18758 Off ch=1 n=54 v=64
18760 On ch=1 n=55 v=80
18798 Off ch=1 n=55 v=64
18800 On ch=1 n=54 v=80
18838 Off ch=1 n=54 v=64
18840 On ch=1 n=52 v=80
18936 Off ch=1 n=52 v=64
18960 On ch=1 n=54 v=80
18998 Off ch=1 n=54 v=64
19000 On ch=1 n=55 v=80
19038 Off ch=1 n=55 v=64
19040 On ch=1 n=54 v=80
19078 Off ch=1 n=54 v=64
19080 On ch=1 n=52 v=80
19176 Off ch=1 n=52 v=64
19200 On ch=1 n=54 v=80
19238 Off ch=1 n=54 v=64
19240 On ch=1 n=55 v=80
19278 Off ch=1 n=55 v=64
19280 On ch=1 n=54 v=80
19318 Off ch=1 n=54 v=64
19320 On ch=1 n=52 v=80
19416 Off ch=1 n=52 v=64
19440 On ch=1 n=54 v=80
20208 Off ch=1 n=54 v=64
20400 On ch=1 n=62 v=80
20400 On ch=1 n=74 v=80
20592 Off ch=1 n=74 v=64
20640 On ch=1 n=73 v=80
20736 Off ch=1 n=73 v=64
20760 On ch=1 n=71 v=80
20856 Off ch=1 n=71 v=64
20880 On ch=1 n=69 v=80
20976 Off ch=1 n=69 v=64
21000 On ch=1 n=68 v=80
21096 Off ch=1 n=68 v=64
21120 On ch=1 n=66 v=80
21168 Off ch=1 n=62 v=64
21312 Off ch=1 n=66 v=64
21360 On ch=1 n=74 v=80
21360 On ch=1 n=52 v=80
21552 Off ch=1 n=74 v=64
21600 On ch=1 n=73 v=80
21696 Off ch=1 n=73 v=64
21720 On ch=1 n=71 v=80
21816 Off ch=1 n=71 v=64
21840 On ch=1 n=69 v=80
21936 Off ch=1 n=69 v=64
21960 On ch=1 n=68 v=80
22056 Off ch=1 n=68 v=64
22080 On ch=1 n=66 v=80
22128 Off ch=1 n=52 v=64
22272 Off ch=1 n=66 v=64
22320 On ch=1 n=55 v=80
22320 On ch=1 n=74 v=80
22512 Off ch=1 n=74 v=64
22560 On ch=1 n=73 v=80
22656 Off ch=1 n=73 v=64
22680 On ch=1 n=71 v=80
22776 Off ch=1 n=71 v=64
22800 On ch=1 n=69 v=80
22896 Off ch=1 n=69 v=64
22920 On ch=1 n=67 v=80
23016 Off ch=1 n=67 v=64
23040 On ch=1 n=69 v=80
23088 Off ch=1 n=55 v=64
23136 Off ch=1 n=69 v=64
23160 On ch=1 n=71 v=80
23256 Off ch=1 n=71 v=64
23280 On ch=1 n=69 v=80
23472 Off ch=1 n=69 v=64
23520 On ch=1 n=62 v=80
23760 On ch=1 n=69 v=80
24096 Off ch=1 n=62 v=64
24144 Off ch=1 n=69 v=64
24240 On ch=1 n=71 v=80
24240 On ch=1 n=55 v=80
24240 On ch=1 n=67 v=80
24432 Off ch=1 n=67 v=64
24432 Off ch=1 n=71 v=64
24480 On ch=1 n=69 v=80
24576 Off ch=1 n=69 v=64
24600 On ch=1 n=67 v=80
24696 Off ch=1 n=67 v=64
24720 On ch=1 n=66 v=80
24816 Off ch=1 n=66 v=64
24840 On ch=1 n=64 v=80
24936 Off ch=1 n=64 v=64
24960 On ch=1 n=66 v=80
25008 Off ch=1 n=55 v=64
25056 Off ch=1 n=66 v=64
25080 On ch=1 n=67 v=80
25176 Off ch=1 n=67 v=64
25200 On ch=1 n=69 v=80
25238 Off ch=1 n=69 v=64
25240 On ch=1 n=71 v=80
25278 Off ch=1 n=71 v=64
25280 On ch=1 n=69 v=80
25318 Off ch=1 n=69 v=64
25320 On ch=1 n=67 v=80
25416 Off ch=1 n=67 v=64
25440 On ch=1 n=64 v=80
25478 Off ch=1 n=64 v=64
25480 On ch=1 n=66 v=80
25518 Off ch=1 n=66 v=64
25520 On ch=1 n=64 v=80
25558 Off ch=1 n=64 v=64
25560 On ch=1 n=62 v=80
25656 Off ch=1 n=62 v=64
25680 On ch=1 n=59 v=80
25920 On ch=1 n=71 v=80
25920 On ch=1 n=66 v=80
25920 On ch=1 n=78 v=80
25920 On ch=1 n=74 v=80
26064 Off ch=1 n=59 v=64
26112 Off ch=1 n=74 v=64
26112 Off ch=1 n=78 v=64
26112 Off ch=1 n=66 v=64
26112 Off ch=1 n=71 v=64
26160 On ch=1 n=74 v=80
26160 On ch=1 n=58 v=80
26352 Off ch=1 n=74 v=64
26400 On ch=1 n=73 v=80
26496 Off ch=1 n=73 v=64
26520 On ch=1 n=70 v=80
26616 Off ch=1 n=70 v=64
26640 On ch=1 n=69 v=80
26736 Off ch=1 n=69 v=64
26760 On ch=1 n=67 v=80
26856 Off ch=1 n=67 v=64
26880 On ch=1 n=62 v=80
26928 Off ch=1 n=58 v=64
27072 Off ch=1 n=62 v=64
27360 On ch=1 n=62 v=80
27360 On ch=1 n=58 v=80
27456 Off ch=1 n=58 v=64
27456 Off ch=1 n=62 v=64
27480 On ch=1 n=64 v=80
27480 On ch=1 n=61 v=80
27576 Off ch=1 n=61 v=64
27576 Off ch=1 n=64 v=64
27720 On ch=1 n=58 v=80
27720 On ch=1 n=62 v=80
27816 Off ch=1 n=62 v=64
27816 Off ch=1 n=58 v=64
27840 On ch=1 n=61 v=80
27840 On ch=1 n=64 v=80
28032 Off ch=1 n=64 v=64
28032 Off ch=1 n=61 v=64
28080 On ch=1 n=57 v=80
28080 On ch=1 n=74 v=80
28080 On ch=1 n=62 v=80
28272 Off ch=1 n=74 v=64
28320 On ch=1 n=73 v=80
28416 Off ch=1 n=73 v=64
28440 On ch=1 n=71 v=80
28536 Off ch=1 n=71 v=64
28560 On ch=1 n=69 v=80
28656 Off ch=1 n=69 v=64
28680 On ch=1 n=68 v=80
28755 Off ch=1 n=62 v=64
28755 Off ch=1 n=57 v=64
28776 Off ch=1 n=68 v=64
28800 On ch=1 n=66 v=80
28992 Off ch=1 n=66 v=64
29040 On ch=1 n=74 v=80
29040 On ch=1 n=64 v=80
29040 On ch=1 n=52 v=80
29040 On ch=1 n=67 v=80
29232 Off ch=1 n=74 v=64
29280 On ch=1 n=73 v=80
29376 Off ch=1 n=73 v=64
29400 On ch=1 n=71 v=80
29424 Off ch=1 n=67 v=64
29424 Off ch=1 n=52 v=64
29424 Off ch=1 n=64 v=64
29496 Off ch=1 n=71 v=64
29520 On ch=1 n=69 v=80
29616 Off ch=1 n=69 v=64
29640 On ch=1 n=68 v=80
29736 Off ch=1 n=68 v=64
29760 On ch=1 n=66 v=80
29952 Off ch=1 n=66 v=64
30000 On ch=1 n=74 v=80
30000 On ch=1 n=55 v=80
30000 On ch=1 n=62 v=80
30192 Off ch=1 n=74 v=64
30240 On ch=1 n=73 v=80
30336 Off ch=1 n=73 v=64
30360 On ch=1 n=71 v=80
30456 Off ch=1 n=71 v=64
30480 On ch=1 n=69 v=80
30576 Off ch=1 n=69 v=64
30576 Off ch=1 n=62 v=64
30576 Off ch=1 n=55 v=64
30600 On ch=1 n=67 v=80
30696 Off ch=1 n=67 v=64
30720 On ch=1 n=62 v=80
30720 On ch=1 n=69 v=80
30816 Off ch=1 n=69 v=64
30816 Off ch=1 n=62 v=64
30840 On ch=1 n=71 v=80
30840 On ch=1 n=67 v=80
30936 Off ch=1 n=67 v=64
30936 Off ch=1 n=71 v=64
30960 On ch=1 n=69 v=80
31152 Off ch=1 n=69 v=64
31200 On ch=1 n=62 v=80
31440 On ch=1 n=74 v=80
31776 Off ch=1 n=62 v=64
31824 Off ch=1 n=74 v=64
31920 On ch=1 n=71 v=80
32112 Off ch=1 n=71 v=64
32160 On ch=1 n=69 v=80
32256 Off ch=1 n=69 v=64
32280 On ch=1 n=67 v=80
32376 Off ch=1 n=67 v=64
32400 On ch=1 n=66 v=80
32438 Off ch=1 n=66 v=64
32440 On ch=1 n=67 v=80
32478 Off ch=1 n=67 v=64
32480 On ch=1 n=66 v=80
32518 Off ch=1 n=66 v=64
32520 On ch=1 n=64 v=80
32616 Off ch=1 n=64 v=64
32640 On ch=1 n=66 v=80
32736 Off ch=1 n=66 v=64
32760 On ch=1 n=67 v=80
32856 Off ch=1 n=67 v=64
32880 On ch=1 n=69 v=80
32918 Off ch=1 n=69 v=64
32920 On ch=1 n=71 v=80
32958 Off ch=1 n=71 v=64
32960 On ch=1 n=69 v=80
32998 Off ch=1 n=69 v=64
33000 On ch=1 n=67 v=80
33096 Off ch=1 n=67 v=64
33120 On ch=1 n=64 v=80
33158 Off ch=1 n=64 v=64
33160 On ch=1 n=66 v=80
33198 Off ch=1 n=66 v=64
33200 On ch=1 n=64 v=80
33238 Off ch=1 n=64 v=64
33240 On ch=1 n=62 v=80
33336 Off ch=1 n=62 v=64
33400 On ch=1 n=59 v=80
33600 On ch=1 n=78 v=80
33600 On ch=1 n=66 v=80
33600 On ch=1 n=71 v=80
33600 On ch=1 n=74 v=80
33784 Off ch=1 n=59 v=64
33792 Off ch=1 n=74 v=64
33792 Off ch=1 n=71 v=64
33792 Off ch=1 n=66 v=64
33792 Off ch=1 n=78 v=64
33840 On ch=1 n=58 v=80
33840 On ch=1 n=74 v=80
34032 Off ch=1 n=74 v=64
34080 On ch=1 n=73 v=80
34176 Off ch=1 n=73 v=64
34200 On ch=1 n=70 v=80
34296 Off ch=1 n=70 v=64
34320 On ch=1 n=69 v=80
34416 Off ch=1 n=69 v=64
34440 On ch=1 n=67 v=80
34536 Off ch=1 n=67 v=64
34560 On ch=1 n=62 v=80
34608 Off ch=1 n=58 v=64
34752 Off ch=1 n=62 v=64
34800 On ch=1 n=81 v=80
34896 Off ch=1 n=81 v=64
34920 On ch=1 n=79 v=80
35016 Off ch=1 n=79 v=64
35040 On ch=1 n=81 v=80
35136 Off ch=1 n=81 v=64
35160 On ch=1 n=79 v=80
35256 Off ch=1 n=79 v=64
35280 On ch=1 n=77 v=80
35376 Off ch=1 n=77 v=64
35400 On ch=1 n=76 v=80
35496 Off ch=1 n=76 v=64
35520 On ch=1 n=74 v=80
35616 Off ch=1 n=74 v=64
35640 On ch=1 n=73 v=80
35736 Off ch=1 n=73 v=64
35760 On ch=1 n=70 v=80
35856 Off ch=1 n=70 v=64
35880 On ch=1 n=69 v=80
35976 Off ch=1 n=69 v=64
36000 On ch=1 n=67 v=80
36096 Off ch=1 n=67 v=64
36120 On ch=1 n=65 v=80
36216 Off ch=1 n=65 v=64
36240 On ch=1 n=64 v=80
36336 Off ch=1 n=64 v=64
36360 On ch=1 n=62 v=80
36456 Off ch=1 n=62 v=64
36480 On ch=1 n=61 v=80
36576 Off ch=1 n=61 v=64
36600 On ch=1 n=58 v=80
36696 Off ch=1 n=58 v=64
36720 On ch=1 n=57 v=80
36816 Off ch=1 n=57 v=64
36840 On ch=1 n=55 v=80
36936 Off ch=1 n=55 v=64
36960 On ch=1 n=54 v=80
37298 Off ch=1 n=54 v=64
37440 On ch=1 n=78 v=80
37536 Off ch=1 n=78 v=64
37560 On ch=1 n=80 v=80
37656 Off ch=1 n=80 v=64
37680 On ch=1 n=64 v=80
37680 On ch=1 n=81 v=80
37776 Off ch=1 n=81 v=64
37800 On ch=1 n=80 v=80
37896 Off ch=1 n=80 v=64
37920 On ch=1 n=78 v=80
37968 Off ch=1 n=64 v=64
38016 Off ch=1 n=78 v=64
38040 On ch=1 n=78 v=80
38040 On ch=1 n=62 v=80
38136 Off ch=1 n=78 v=64
38160 On ch=1 n=76 v=80
38256 Off ch=1 n=76 v=64
38280 On ch=1 n=74 v=80
38328 Off ch=1 n=62 v=64
38376 Off ch=1 n=74 v=64
38400 On ch=1 n=73 v=80
38400 On ch=1 n=57 v=80
38496 Off ch=1 n=73 v=64
38520 On ch=1 n=74 v=80
38616 Off ch=1 n=74 v=64
38640 On ch=1 n=76 v=80
38688 Off ch=1 n=57 v=64
38736 Off ch=1 n=76 v=64
38760 On ch=1 n=74 v=80
38760 On ch=1 n=55 v=80
38856 Off ch=1 n=74 v=64
38880 On ch=1 n=73 v=80
38976 Off ch=1 n=73 v=64
39000 On ch=1 n=71 v=80
39048 Off ch=1 n=55 v=64
39096 Off ch=1 n=71 v=64
39120 On ch=1 n=54 v=80
39120 On ch=1 n=73 v=80
39216 Off ch=1 n=73 v=64
39240 On ch=1 n=74 v=80
39336 Off ch=1 n=74 v=64
39360 On ch=1 n=76 v=80
39408 Off ch=1 n=54 v=64
39456 Off ch=1 n=76 v=64
39480 On ch=1 n=74 v=80
39480 On ch=1 n=59 v=80
39576 Off ch=1 n=74 v=64
39600 On ch=1 n=73 v=80
39696 Off ch=1 n=73 v=64
39720 On ch=1 n=71 v=80
39768 Off ch=1 n=59 v=64
39816 Off ch=1 n=71 v=64
39840 On ch=1 n=73 v=80
39840 On ch=1 n=58 v=80
40032 Off ch=1 n=73 v=64
40128 Off ch=1 n=58 v=64
40200 On ch=1 n=78 v=80
40200 On ch=1 n=66 v=80
40296 Off ch=1 n=78 v=64
40320 On ch=1 n=80 v=80
40416 Off ch=1 n=80 v=64
40488 Off ch=1 n=66 v=64
40560 On ch=1 n=81 v=80
40560 On ch=1 n=64 v=80
40656 Off ch=1 n=81 v=64
40680 On ch=1 n=80 v=80
40776 Off ch=1 n=80 v=64
40800 On ch=1 n=78 v=80
40848 Off ch=1 n=64 v=64
40896 Off ch=1 n=78 v=64
40920 On ch=1 n=62 v=80
40920 On ch=1 n=78 v=80
41016 Off ch=1 n=78 v=64
41040 On ch=1 n=76 v=80
41136 Off ch=1 n=76 v=64
41160 On ch=1 n=74 v=80
41208 Off ch=1 n=62 v=64
41256 Off ch=1 n=74 v=64
41280 On ch=1 n=73 v=80
41280 On ch=1 n=57 v=80
41376 Off ch=1 n=73 v=64
41400 On ch=1 n=74 v=80
41496 Off ch=1 n=74 v=64
41520 On ch=1 n=76 v=80
41568 Off ch=1 n=57 v=64
41616 Off ch=1 n=76 v=64
41640 On ch=1 n=74 v=80
41640 On ch=1 n=55 v=80
41736 Off ch=1 n=74 v=64
41760 On ch=1 n=73 v=80
41856 Off ch=1 n=73 v=64
41880 On ch=1 n=71 v=80
41928 Off ch=1 n=55 v=64
41976 Off ch=1 n=71 v=64
42000 On ch=1 n=54 v=80
42000 On ch=1 n=73 v=80
42096 Off ch=1 n=73 v=64
42120 On ch=1 n=74 v=80
42216 Off ch=1 n=74 v=64
42240 On ch=1 n=76 v=80
42288 Off ch=1 n=54 v=64
42336 Off ch=1 n=76 v=64
42360 On ch=1 n=74 v=80
42360 On ch=1 n=59 v=80
42456 Off ch=1 n=74 v=64
42480 On ch=1 n=73 v=80
42576 Off ch=1 n=73 v=64
42600 On ch=1 n=71 v=80
42648 Off ch=1 n=59 v=64
42696 Off ch=1 n=71 v=64
42720 On ch=1 n=73 v=80
42720 On ch=1 n=58 v=80
42816 Off ch=1 n=73 v=64
42840 On ch=1 n=74 v=80
42936 Off ch=1 n=74 v=64
42960 On ch=1 n=76 v=80
43008 Off ch=1 n=58 v=64
43056 Off ch=1 n=76 v=64
43080 On ch=1 n=74 v=80
43080 On ch=1 n=66 v=80
43176 Off ch=1 n=74 v=64
43200 On ch=1 n=73 v=80
43296 Off ch=1 n=73 v=64
43320 On ch=1 n=71 v=80
43368 Off ch=1 n=66 v=64
43416 Off ch=1 n=71 v=64
43440 On ch=1 n=73 v=80
43440 On ch=1 n=64 v=80
43536 Off ch=1 n=73 v=64
43560 On ch=1 n=74 v=80
43656 Off ch=1 n=74 v=64
43680 On ch=1 n=76 v=80
43728 Off ch=1 n=64 v=64
43776 Off ch=1 n=76 v=64
43800 On ch=1 n=71 v=80
43800 On ch=1 n=74 v=80
43896 Off ch=1 n=74 v=64
43920 On ch=1 n=73 v=80
43992 Off ch=1 n=71 v=64
44016 Off ch=1 n=73 v=64
44040 On ch=1 n=70 v=80
44040 On ch=1 n=71 v=80
44136 Off ch=1 n=71 v=64
44160 On ch=1 n=73 v=80
44232 Off ch=1 n=70 v=64
44256 Off ch=1 n=73 v=64
44280 On ch=1 n=74 v=80
44376 Off ch=1 n=74 v=64
44400 On ch=1 n=62 v=80
44400 On ch=1 n=74 v=80
44400 On ch=1 n=76 v=80
44400 On ch=1 n=70 v=80
44496 Off ch=1 n=70 v=64
44496 Off ch=1 n=76 v=64
44496 Off ch=1 n=74 v=64
44496 Off ch=1 n=62 v=64
44520 On ch=1 n=57 v=80
44520 On ch=1 n=74 v=80
44520 On ch=1 n=54 v=80
44520 On ch=1 n=76 v=80
44520 On ch=1 n=62 v=80
44520 On ch=1 n=70 v=80
44616 Off ch=1 n=70 v=64
44616 Off ch=1 n=62 v=64
44616 Off ch=1 n=76 v=64
44616 Off ch=1 n=54 v=64
44616 Off ch=1 n=74 v=64
44616 Off ch=1 n=57 v=64
44640 On ch=1 n=78 v=80
44736 Off ch=1 n=78 v=64
44760 On ch=1 n=80 v=80
44856 Off ch=1 n=80 v=64
44880 On ch=1 n=64 v=80
44880 On ch=1 n=81 v=80
44976 Off ch=1 n=81 v=64
45000 On ch=1 n=80 v=80
45096 Off ch=1 n=80 v=64
45120 On ch=1 n=81 v=80
45168 Off ch=1 n=64 v=64
45216 Off ch=1 n=81 v=64
45240 On ch=1 n=83 v=80
45240 On ch=1 n=62 v=80
45336 Off ch=1 n=83 v=64
45360 On ch=1 n=81 v=80
45456 Off ch=1 n=81 v=64
45480 On ch=1 n=88 v=80
45528 Off ch=1 n=62 v=64
45576 Off ch=1 n=88 v=64
45600 On ch=1 n=61 v=80
45600 On ch=1 n=88 v=80
45888 Off ch=1 n=88 v=64
45888 Off ch=1 n=61 v=64
46080 On ch=1 n=86 v=80
46128 Off ch=1 n=86 v=64
46140 On ch=1 n=85 v=80
46284 Off ch=1 n=85 v=64
46320 On ch=1 n=62 v=80
46320 On ch=1 n=90 v=80
46464 Off ch=1 n=90 v=64
46500 On ch=1 n=88 v=80
46548 Off ch=1 n=88 v=64
46560 On ch=1 n=86 v=80
46608 Off ch=1 n=62 v=64
46656 Off ch=1 n=86 v=64
46680 On ch=1 n=86 v=80
46680 On ch=1 n=68 v=80
46776 Off ch=1 n=86 v=64
46800 On ch=1 n=85 v=80
46896 Off ch=1 n=85 v=64
46920 On ch=1 n=83 v=80
46968 Off ch=1 n=68 v=64
47016 Off ch=1 n=83 v=64
47040 On ch=1 n=69 v=80
47040 On ch=1 n=85 v=80
47088 Off ch=1 n=85 v=64
47160 On ch=1 n=83 v=80
47208 Off ch=1 n=83 v=64
47220 On ch=1 n=81 v=80
47316 Off ch=1 n=81 v=64
47328 Off ch=1 n=69 v=64
47340 On ch=1 n=83 v=80
47400 On ch=1 n=68 v=80
47430 Off ch=1 n=83 v=64
47460 On ch=1 n=81 v=80
47550 Off ch=1 n=81 v=64
47580 On ch=1 n=79 v=80
47670 Off ch=1 n=79 v=64
47688 Off ch=1 n=68 v=64
47760 On ch=1 n=81 v=80
47760 On ch=1 n=62 v=80
47856 Off ch=1 n=81 v=64
47880 On ch=1 n=80 v=80
47904 Off ch=1 n=80 v=64
47910 On ch=1 n=79 v=80
47934 Off ch=1 n=79 v=64
47940 On ch=1 n=78 v=80
48096 Off ch=1 n=78 v=64
48120 On ch=1 n=77 v=80
48168 Off ch=1 n=77 v=64
48180 On ch=1 n=76 v=80
48336 Off ch=1 n=76 v=64
48360 On ch=1 n=74 v=80
48456 Off ch=1 n=74 v=64
48480 On ch=1 n=69 v=80
48528 Off ch=1 n=62 v=64
48576 Off ch=1 n=69 v=64
48600 On ch=1 n=74 v=80
48696 Off ch=1 n=74 v=64
48720 On ch=1 n=81 v=80
48720 On ch=1 n=67 v=80
48816 Off ch=1 n=81 v=64
48840 On ch=1 n=80 v=80
48864 Off ch=1 n=80 v=64
48870 On ch=1 n=79 v=80
48894 Off ch=1 n=79 v=64
48900 On ch=1 n=78 v=80
49056 Off ch=1 n=78 v=64
49080 On ch=1 n=77 v=80
49128 Off ch=1 n=77 v=64
49140 On ch=1 n=76 v=80
49296 Off ch=1 n=76 v=64
49320 On ch=1 n=74 v=80
49416 Off ch=1 n=74 v=64
49440 On ch=1 n=71 v=80
49488 Off ch=1 n=71 v=64
49488 Off ch=1 n=67 v=64
49500 On ch=1 n=74 v=80
49548 Off ch=1 n=74 v=64
49560 On ch=1 n=71 v=80
49608 Off ch=1 n=71 v=64
49680 On ch=1 n=81 v=80
49680 On ch=1 n=62 v=80
49776 Off ch=1 n=81 v=64
49800 On ch=1 n=80 v=80
49824 Off ch=1 n=80 v=64
49830 On ch=1 n=79 v=80
49854 Off ch=1 n=79 v=64
49860 On ch=1 n=78 v=80
50016 Off ch=1 n=78 v=64
50040 On ch=1 n=77 v=80
50088 Off ch=1 n=77 v=64
50100 On ch=1 n=76 v=80
50256 Off ch=1 n=76 v=64
50280 On ch=1 n=74 v=80
50376 Off ch=1 n=74 v=64
50400 On ch=1 n=69 v=80
50448 Off ch=1 n=62 v=64
50496 Off ch=1 n=69 v=64
50520 On ch=1 n=74 v=80
50616 Off ch=1 n=74 v=64
50640 On ch=1 n=81 v=80
50640 On ch=1 n=67 v=80
50736 Off ch=1 n=81 v=64
50760 On ch=1 n=80 v=80
50784 Off ch=1 n=80 v=64
50790 On ch=1 n=79 v=80
50814 Off ch=1 n=79 v=64
50820 On ch=1 n=78 v=80
50976 Off ch=1 n=78 v=64
51000 On ch=1 n=77 v=80
51048 Off ch=1 n=77 v=64
51060 On ch=1 n=76 v=80
51216 Off ch=1 n=76 v=64
51240 On ch=1 n=74 v=80
51336 Off ch=1 n=74 v=64
51360 On ch=1 n=71 v=80
51408 Off ch=1 n=71 v=64
51408 Off ch=1 n=67 v=64
51420 On ch=1 n=74 v=80
51468 Off ch=1 n=74 v=64
51480 On ch=1 n=71 v=80
51528 Off ch=1 n=71 v=64
51600 On ch=1 n=81 v=80
51600 On ch=1 n=62 v=80
51696 Off ch=1 n=81 v=64
51720 On ch=1 n=80 v=80
51744 Off ch=1 n=80 v=64
51750 On ch=1 n=79 v=80
51774 Off ch=1 n=79 v=64
51780 On ch=1 n=78 v=80
51936 Off ch=1 n=78 v=64
51960 On ch=1 n=77 v=80
52008 Off ch=1 n=77 v=64
52020 On ch=1 n=76 v=80
52176 Off ch=1 n=76 v=64
52200 On ch=1 n=74 v=80
52296 Off ch=1 n=74 v=64
52320 On ch=1 n=69 v=80
52368 Off ch=1 n=62 v=64
52416 Off ch=1 n=69 v=64
52440 On ch=1 n=74 v=80
52536 Off ch=1 n=74 v=64
52560 On ch=1 n=81 v=80
52560 On ch=1 n=67 v=80
52656 Off ch=1 n=81 v=64
52680 On ch=1 n=80 v=80
52704 Off ch=1 n=80 v=64
52710 On ch=1 n=79 v=80
52734 Off ch=1 n=79 v=64
52740 On ch=1 n=78 v=80
52896 Off ch=1 n=78 v=64
52920 On ch=1 n=77 v=80
52968 Off ch=1 n=77 v=64
52980 On ch=1 n=76 v=80
53136 Off ch=1 n=76 v=64
53160 On ch=1 n=74 v=80
53256 Off ch=1 n=74 v=64
53280 On ch=1 n=71 v=80
53328 Off ch=1 n=71 v=64
53328 Off ch=1 n=67 v=64
53340 On ch=1 n=74 v=80
53388 Off ch=1 n=74 v=64
53400 On ch=1 n=71 v=80
53448 Off ch=1 n=71 v=64
53520 On ch=1 n=70 v=80
53520 On ch=1 n=73 v=80
53520 On ch=1 n=66 v=80
53520 On ch=1 n=76 v=80
53520 On ch=1 n=61 v=80
53520 On ch=1 n=54 v=80
53616 Off ch=1 n=54 v=64
53616 Off ch=1 n=61 v=64
53616 Off ch=1 n=76 v=64
53616 Off ch=1 n=66 v=64
53616 Off ch=1 n=73 v=64
53616 Off ch=1 n=70 v=64
53640 On ch=1 n=66 v=80
53640 On ch=1 n=73 v=80
53640 On ch=1 n=76 v=80
53640 On ch=1 n=70 v=80
53640 On ch=1 n=54 v=80
53640 On ch=1 n=61 v=80
53736 Off ch=1 n=61 v=64
53736 Off ch=1 n=54 v=64
53736 Off ch=1 n=70 v=64
53736 Off ch=1 n=76 v=64
53736 Off ch=1 n=73 v=64
53736 Off ch=1 n=66 v=64
53880 On ch=1 n=66 v=80
53880 On ch=1 n=73 v=80
53880 On ch=1 n=70 v=80
53880 On ch=1 n=76 v=80
53976 Off ch=1 n=76 v=64
53976 Off ch=1 n=70 v=64
53976 Off ch=1 n=73 v=64
53976 Off ch=1 n=66 v=64
54000 On ch=1 n=54 v=80
54000 On ch=1 n=61 v=80
54096 Off ch=1 n=61 v=64
54096 Off ch=1 n=54 v=64
54120 On ch=1 n=70 v=80
54120 On ch=1 n=66 v=80
54120 On ch=1 n=76 v=80
54120 On ch=1 n=54 v=80
54120 On ch=1 n=61 v=80
54120 On ch=1 n=73 v=80
54216 Off ch=1 n=73 v=64
54216 Off ch=1 n=61 v=64
54216 Off ch=1 n=54 v=64
54216 Off ch=1 n=76 v=64
54216 Off ch=1 n=66 v=64
54216 Off ch=1 n=70 v=64
54240 On ch=1 n=70 v=80
54240 On ch=1 n=73 v=80
54240 On ch=1 n=66 v=80
54240 On ch=1 n=76 v=80
54240 On ch=1 n=61 v=80
54240 On ch=1 n=54 v=80
54336 Off ch=1 n=54 v=64
54336 Off ch=1 n=61 v=64
54336 Off ch=1 n=76 v=64
54336 Off ch=1 n=66 v=64
54336 Off ch=1 n=73 v=64
54336 Off ch=1 n=70 v=64
54360 On ch=1 n=66 v=80
54360 On ch=1 n=73 v=80
54360 On ch=1 n=76 v=80
54360 On ch=1 n=70 v=80
54360 On ch=1 n=54 v=80
54360 On ch=1 n=61 v=80
54456 Off ch=1 n=61 v=64
54456 Off ch=1 n=54 v=64
54456 Off ch=1 n=70 v=64
54456 Off ch=1 n=76 v=64
54456 Off ch=1 n=73 v=64
54456 Off ch=1 n=66 v=64
54600 On ch=1 n=66 v=80
54600 On ch=1 n=73 v=80
54600 On ch=1 n=70 v=80
54600 On ch=1 n=76 v=80
54696 Off ch=1 n=76 v=64
54696 Off ch=1 n=70 v=64
54696 Off ch=1 n=73 v=64
54696 Off ch=1 n=66 v=64
54720 On ch=1 n=54 v=80
54720 On ch=1 n=61 v=80
54816 Off ch=1 n=61 v=64
54816 Off ch=1 n=54 v=64
54840 On ch=1 n=54 v=80
54840 On ch=1 n=61 v=80
54840 On ch=1 n=70 v=80
54840 On ch=1 n=66 v=80
54840 On ch=1 n=76 v=80
54840 On ch=1 n=73 v=80
54936 Off ch=1 n=73 v=64
54936 Off ch=1 n=76 v=64
54936 Off ch=1 n=66 v=64
54936 Off ch=1 n=70 v=64
54936 Off ch=1 n=61 v=64
54936 Off ch=1 n=54 v=64
54960 On ch=1 n=70 v=80
54960 On ch=1 n=73 v=80
54960 On ch=1 n=66 v=80
54960 On ch=1 n=76 v=80
54960 On ch=1 n=61 v=80
54960 On ch=1 n=54 v=80
55056 Off ch=1 n=54 v=64
55056 Off ch=1 n=61 v=64
55056 Off ch=1 n=76 v=64
55056 Off ch=1 n=66 v=64
55056 Off ch=1 n=73 v=64
55056 Off ch=1 n=70 v=64
55080 On ch=1 n=66 v=80
55080 On ch=1 n=73 v=80
55080 On ch=1 n=76 v=80
55080 On ch=1 n=70 v=80
55080 On ch=1 n=54 v=80
55080 On ch=1 n=61 v=80
55176 Off ch=1 n=61 v=64
55176 Off ch=1 n=54 v=64
55176 Off ch=1 n=70 v=64
55176 Off ch=1 n=76 v=64
55176 Off ch=1 n=73 v=64
55176 Off ch=1 n=66 v=64
55320 On ch=1 n=66 v=80
55320 On ch=1 n=73 v=80
55320 On ch=1 n=70 v=80
55320 On ch=1 n=76 v=80
55416 Off ch=1 n=76 v=64
55416 Off ch=1 n=70 v=64
55416 Off ch=1 n=73 v=64
55416 Off ch=1 n=66 v=64
55440 On ch=1 n=54 v=80
55440 On ch=1 n=61 v=80
55536 Off ch=1 n=61 v=64
55536 Off ch=1 n=54 v=64
55560 On ch=1 n=54 v=80
55560 On ch=1 n=61 v=80
55560 On ch=1 n=70 v=80
55560 On ch=1 n=66 v=80
55560 On ch=1 n=76 v=80
55560 On ch=1 n=73 v=80
55656 Off ch=1 n=73 v=64
55656 Off ch=1 n=76 v=64
55656 Off ch=1 n=66 v=64
55656 Off ch=1 n=70 v=64
55656 Off ch=1 n=61 v=64
55656 Off ch=1 n=54 v=64
55680 On ch=1 n=73 v=80
55680 On ch=1 n=66 v=80
55680 On ch=1 n=61 v=80
55680 On ch=1 n=54 v=80
55680 On ch=1 n=70 v=80
55680 On ch=1 n=78 v=80
55776 Off ch=1 n=78 v=64
55776 Off ch=1 n=70 v=64
55776 Off ch=1 n=54 v=64
55776 Off ch=1 n=61 v=64
55776 Off ch=1 n=66 v=64
55776 Off ch=1 n=73 v=64
55800 On ch=1 n=66 v=80
55800 On ch=1 n=54 v=80
55896 Off ch=1 n=54 v=64
55896 Off ch=1 n=66 v=64
55920 On ch=1 n=55 v=80
56016 Off ch=1 n=55 v=64
56040 On ch=1 n=58 v=80
56136 Off ch=1 n=58 v=64
56160 On ch=1 n=59 v=80
56256 Off ch=1 n=59 v=64
56280 On ch=1 n=61 v=80
56376 Off ch=1 n=61 v=64
56400 On ch=1 n=62 v=80
56496 Off ch=1 n=62 v=64
56520 On ch=1 n=64 v=80
56616 Off ch=1 n=64 v=64
56640 On ch=1 n=67 v=80
56736 Off ch=1 n=67 v=64
56760 On ch=1 n=70 v=80
56856 Off ch=1 n=70 v=64
56880 On ch=1 n=71 v=80
56976 Off ch=1 n=71 v=64
57000 On ch=1 n=73 v=80
57096 Off ch=1 n=73 v=64
57120 On ch=1 n=74 v=80
57216 Off ch=1 n=74 v=64
57240 On ch=1 n=79 v=80
57336 Off ch=1 n=79 v=64
57360 On ch=1 n=59 v=80
57360 On ch=1 n=66 v=80
57360 On ch=1 n=74 v=80
57360 On ch=1 n=78 v=80
57360 On ch=1 n=71 v=80
57456 Off ch=1 n=71 v=64
57456 Off ch=1 n=78 v=64
57456 Off ch=1 n=74 v=64
57456 Off ch=1 n=66 v=64
57456 Off ch=1 n=59 v=64
57480 On ch=1 n=74 v=80
57480 On ch=1 n=71 v=80
57480 On ch=1 n=59 v=80
57480 On ch=1 n=78 v=80
57480 On ch=1 n=66 v=80
57576 Off ch=1 n=66 v=64
57576 Off ch=1 n=78 v=64
57576 Off ch=1 n=59 v=64
57576 Off ch=1 n=71 v=64
57576 Off ch=1 n=74 v=64
57600 On ch=1 n=71 v=80
57600 On ch=1 n=66 v=80
57600 On ch=1 n=74 v=80
57600 On ch=1 n=59 v=80
57600 On ch=1 n=78 v=80
57696 Off ch=1 n=78 v=64
57696 Off ch=1 n=59 v=64
57696 Off ch=1 n=74 v=64
57696 Off ch=1 n=66 v=64
57696 Off ch=1 n=71 v=64
57720 On ch=1 n=66 v=80
57720 On ch=1 n=74 v=80
57720 On ch=1 n=71 v=80
57720 On ch=1 n=78 v=80
57720 On ch=1 n=59 v=80
57816 Off ch=1 n=59 v=64
57816 Off ch=1 n=78 v=64
57816 Off ch=1 n=71 v=64
57816 Off ch=1 n=74 v=64
57816 Off ch=1 n=66 v=64
57840 On ch=1 n=78 v=80
57840 On ch=1 n=66 v=80
57840 On ch=1 n=59 v=80
57840 On ch=1 n=71 v=80
57840 On ch=1 n=74 v=80
57936 Off ch=1 n=74 v=64
57936 Off ch=1 n=71 v=64
57936 Off ch=1 n=59 v=64
57936 Off ch=1 n=66 v=64
57936 Off ch=1 n=78 v=64
57960 On ch=1 n=78 v=80
57960 On ch=1 n=71 v=80
57960 On ch=1 n=74 v=80
57960 On ch=1 n=66 v=80
57960 On ch=1 n=59 v=80
58056 Off ch=1 n=59 v=64
58056 Off ch=1 n=66 v=64
58056 Off ch=1 n=74 v=64
58056 Off ch=1 n=71 v=64
58056 Off ch=1 n=78 v=64
58080 On ch=1 n=57 v=80
58080 On ch=1 n=73 v=80
58176 Off ch=1 n=73 v=64
58200 On ch=1 n=74 v=80
58296 Off ch=1 n=74 v=64
58320 On ch=1 n=76 v=80
58368 Off ch=1 n=76 v=64
58380 On ch=1 n=73 v=80
58428 Off ch=1 n=73 v=64
58440 On ch=1 n=74 v=80
58488 Off ch=1 n=74 v=64
58500 On ch=1 n=73 v=80
58548 Off ch=1 n=73 v=64
58560 On ch=1 n=71 v=80
58656 Off ch=1 n=71 v=64
58656 Off ch=1 n=57 v=64
58680 On ch=1 n=69 v=80
58776 Off ch=1 n=69 v=64
58800 On ch=1 n=74 v=80
58800 On ch=1 n=55 v=80
58896 Off ch=1 n=74 v=64
58920 On ch=1 n=73 v=80
59016 Off ch=1 n=73 v=64
59040 On ch=1 n=71 v=80
59088 Off ch=1 n=55 v=64
59136 Off ch=1 n=71 v=64
59160 On ch=1 n=54 v=80
59160 On ch=1 n=73 v=80
59256 Off ch=1 n=73 v=64
59280 On ch=1 n=74 v=80
59376 Off ch=1 n=74 v=64
59400 On ch=1 n=76 v=80
59448 Off ch=1 n=54 v=64
59496 Off ch=1 n=76 v=64
59520 On ch=1 n=74 v=80
59520 On ch=1 n=59 v=80
59616 Off ch=1 n=74 v=64
59640 On ch=1 n=73 v=80
59736 Off ch=1 n=73 v=64
59760 On ch=1 n=71 v=80
59808 Off ch=1 n=59 v=64
59856 Off ch=1 n=71 v=64
59880 On ch=1 n=58 v=80
59880 On ch=1 n=73 v=80
59976 Off ch=1 n=73 v=64
59976 Off ch=1 n=58 v=64
60120 On ch=1 n=66 v=80
60216 Off ch=1 n=66 v=64
60240 On ch=1 n=67 v=80
60336 Off ch=1 n=67 v=64
60360 On ch=1 n=70 v=80
60456 Off ch=1 n=70 v=64
60480 On ch=1 n=71 v=80
60576 Off ch=1 n=71 v=64
60600 On ch=1 n=73 v=80
60696 Off ch=1 n=73 v=64
60720 On ch=1 n=74 v=80
60816 Off ch=1 n=74 v=64
60840 On ch=1 n=79 v=80
60936 Off ch=1 n=79 v=64
60960 On ch=1 n=59 v=80
60960 On ch=1 n=66 v=80
60960 On ch=1 n=74 v=80
60960 On ch=1 n=78 v=80
60960 On ch=1 n=71 v=80
61056 Off ch=1 n=71 v=64
61056 Off ch=1 n=78 v=64
61056 Off ch=1 n=74 v=64
61056 Off ch=1 n=66 v=64
61056 Off ch=1 n=59 v=64
61080 On ch=1 n=74 v=80
61080 On ch=1 n=71 v=80
61080 On ch=1 n=59 v=80
61080 On ch=1 n=78 v=80
61080 On ch=1 n=66 v=80
61176 Off ch=1 n=66 v=64
61176 Off ch=1 n=78 v=64
61176 Off ch=1 n=59 v=64
61176 Off ch=1 n=71 v=64
61176 Off ch=1 n=74 v=64
61200 On ch=1 n=71 v=80
61200 On ch=1 n=66 v=80
61200 On ch=1 n=74 v=80
61200 On ch=1 n=59 v=80
61200 On ch=1 n=78 v=80
61296 Off ch=1 n=78 v=64
61296 Off ch=1 n=59 v=64
61296 Off ch=1 n=74 v=64
61296 Off ch=1 n=66 v=64
61296 Off ch=1 n=71 v=64
61320 On ch=1 n=66 v=80
61320 On ch=1 n=74 v=80
61320 On ch=1 n=71 v=80
61320 On ch=1 n=78 v=80
61320 On ch=1 n=59 v=80
61416 Off ch=1 n=59 v=64
61416 Off ch=1 n=78 v=64
61416 Off ch=1 n=71 v=64
61416 Off ch=1 n=74 v=64
61416 Off ch=1 n=66 v=64
61440 On ch=1 n=78 v=80
61440 On ch=1 n=66 v=80
61440 On ch=1 n=59 v=80
61440 On ch=1 n=71 v=80
61440 On ch=1 n=74 v=80
61536 Off ch=1 n=74 v=64
61536 Off ch=1 n=71 v=64
61536 Off ch=1 n=59 v=64
61536 Off ch=1 n=66 v=64
61536 Off ch=1 n=78 v=64
61560 On ch=1 n=78 v=80
61560 On ch=1 n=71 v=80
61560 On ch=1 n=74 v=80
61560 On ch=1 n=66 v=80
61560 On ch=1 n=59 v=80
61656 Off ch=1 n=59 v=64
61656 Off ch=1 n=66 v=64
61656 Off ch=1 n=74 v=64
61656 Off ch=1 n=71 v=64
61656 Off ch=1 n=78 v=64
61680 On ch=1 n=57 v=80
61680 On ch=1 n=79 v=80
61728 Off ch=1 n=79 v=64
61740 On ch=1 n=81 v=80
61788 Off ch=1 n=81 v=64
61800 On ch=1 n=79 v=80
61848 Off ch=1 n=79 v=64
61860 On ch=1 n=78 v=80
61908 Off ch=1 n=78 v=64
61920 On ch=1 n=76 v=80
61968 Off ch=1 n=76 v=64
61980 On ch=1 n=73 v=80
62028 Off ch=1 n=73 v=64
62040 On ch=1 n=74 v=80
62088 Off ch=1 n=74 v=64
62100 On ch=1 n=73 v=80
62148 Off ch=1 n=73 v=64
62160 On ch=1 n=71 v=80
62256 Off ch=1 n=71 v=64
62256 Off ch=1 n=57 v=64
62280 On ch=1 n=69 v=80
62376 Off ch=1 n=69 v=64
62400 On ch=1 n=74 v=80
62400 On ch=1 n=55 v=80
62496 Off ch=1 n=74 v=64
62520 On ch=1 n=73 v=80
62616 Off ch=1 n=73 v=64
62640 On ch=1 n=71 v=80
62688 Off ch=1 n=55 v=64
62736 Off ch=1 n=71 v=64
62760 On ch=1 n=54 v=80
62760 On ch=1 n=73 v=80
62856 Off ch=1 n=73 v=64
62880 On ch=1 n=74 v=80
62976 Off ch=1 n=74 v=64
63000 On ch=1 n=76 v=80
63048 Off ch=1 n=54 v=64
63096 Off ch=1 n=76 v=64
63120 On ch=1 n=74 v=80
63120 On ch=1 n=59 v=80
63216 Off ch=1 n=74 v=64
63240 On ch=1 n=73 v=80
63336 Off ch=1 n=73 v=64
63360 On ch=1 n=71 v=80
63408 Off ch=1 n=59 v=64
63456 Off ch=1 n=71 v=64
63480 On ch=1 n=58 v=80
63480 On ch=1 n=73 v=80
63576 Off ch=1 n=73 v=64
63576 Off ch=1 n=58 v=64
63720 On ch=1 n=66 v=80
63816 Off ch=1 n=66 v=64
63840 On ch=1 n=67 v=80
63936 Off ch=1 n=67 v=64
63960 On ch=1 n=70 v=80
64056 Off ch=1 n=70 v=64
64080 On ch=1 n=71 v=80
64176 Off ch=1 n=71 v=64
64200 On ch=1 n=73 v=80
64296 Off ch=1 n=73 v=64
64320 On ch=1 n=74 v=80
64416 Off ch=1 n=74 v=64
64440 On ch=1 n=79 v=80
64536 Off ch=1 n=79 v=64
64560 On ch=1 n=59 v=80
64560 On ch=1 n=66 v=80
64560 On ch=1 n=74 v=80
64560 On ch=1 n=78 v=80
64560 On ch=1 n=71 v=80
64656 Off ch=1 n=71 v=64
64656 Off ch=1 n=78 v=64
64656 Off ch=1 n=74 v=64
64656 Off ch=1 n=66 v=64
64656 Off ch=1 n=59 v=64
64680 On ch=1 n=74 v=80
64680 On ch=1 n=71 v=80
64680 On ch=1 n=59 v=80
64680 On ch=1 n=78 v=80
64680 On ch=1 n=66 v=80
64776 Off ch=1 n=66 v=64
64776 Off ch=1 n=78 v=64
64776 Off ch=1 n=59 v=64
64776 Off ch=1 n=71 v=64
64776 Off ch=1 n=74 v=64
64800 On ch=1 n=71 v=80
64800 On ch=1 n=66 v=80
64800 On ch=1 n=74 v=80
64800 On ch=1 n=59 v=80
64800 On ch=1 n=78 v=80
64896 Off ch=1 n=78 v=64
64896 Off ch=1 n=59 v=64
64896 Off ch=1 n=74 v=64
64896 Off ch=1 n=66 v=64
64896 Off ch=1 n=71 v=64
64920 On ch=1 n=66 v=80
64920 On ch=1 n=74 v=80
64920 On ch=1 n=71 v=80
64920 On ch=1 n=78 v=80
64920 On ch=1 n=59 v=80
65016 Off ch=1 n=59 v=64
65016 Off ch=1 n=78 v=64
65016 Off ch=1 n=71 v=64
65016 Off ch=1 n=74 v=64
65016 Off ch=1 n=66 v=64
65040 On ch=1 n=78 v=80
65040 On ch=1 n=66 v=80
65040 On ch=1 n=59 v=80
65040 On ch=1 n=71 v=80
65040 On ch=1 n=74 v=80
65136 Off ch=1 n=74 v=64
65136 Off ch=1 n=71 v=64
65136 Off ch=1 n=59 v=64
65136 Off ch=1 n=66 v=64
65136 Off ch=1 n=78 v=64
65160 On ch=1 n=78 v=80
65160 On ch=1 n=71 v=80
65160 On ch=1 n=74 v=80
65160 On ch=1 n=66 v=80
65160 On ch=1 n=59 v=80
65256 Off ch=1 n=59 v=64
65256 Off ch=1 n=66 v=64
65256 Off ch=1 n=74 v=64
65256 Off ch=1 n=71 v=64
65256 Off ch=1 n=78 v=64
65280 On ch=1 n=57 v=80
65280 On ch=1 n=78 v=80
65376 Off ch=1 n=78 v=64
65400 On ch=1 n=79 v=80
65496 Off ch=1 n=79 v=64
65520 On ch=1 n=81 v=80
65616 Off ch=1 n=81 v=64
65640 On ch=1 n=79 v=80
65688 Off ch=1 n=79 v=64
65700 On ch=1 n=78 v=80
65748 Off ch=1 n=78 v=64
65760 On ch=1 n=76 v=80
65856 Off ch=1 n=76 v=64
65880 On ch=1 n=74 v=80
65976 Off ch=1 n=74 v=64
66000 On ch=1 n=67 v=80
66000 On ch=1 n=79 v=80
66048 Off ch=1 n=57 v=64
66096 Off ch=1 n=79 v=64
66120 On ch=1 n=81 v=80
66216 Off ch=1 n=81 v=64
66240 On ch=1 n=83 v=80
66336 Off ch=1 n=83 v=64
66360 On ch=1 n=81 v=80
66456 Off ch=1 n=81 v=64
66480 On ch=1 n=79 v=80
66576 Off ch=1 n=79 v=64
66600 On ch=1 n=76 v=80
66696 Off ch=1 n=76 v=64
66720 On ch=1 n=55 v=80
66720 On ch=1 n=74 v=80
66768 Off ch=1 n=67 v=64
66816 Off ch=1 n=74 v=64
66840 On ch=1 n=73 v=80
66936 Off ch=1 n=73 v=64
66960 On ch=1 n=71 v=80
67008 Off ch=1 n=55 v=64
67056 Off ch=1 n=71 v=64
67080 On ch=1 n=54 v=80
67080 On ch=1 n=73 v=80
67176 Off ch=1 n=73 v=64
67200 On ch=1 n=74 v=80
67296 Off ch=1 n=74 v=64
67320 On ch=1 n=76 v=80
67368 Off ch=1 n=54 v=64
67416 Off ch=1 n=76 v=64
67440 On ch=1 n=59 v=80
67440 On ch=1 n=74 v=80
67536 Off ch=1 n=74 v=64
67560 On ch=1 n=73 v=80
67656 Off ch=1 n=73 v=64
67680 On ch=1 n=71 v=80
67728 Off ch=1 n=59 v=64
67776 Off ch=1 n=71 v=64
67800 On ch=1 n=73 v=80
67800 On ch=1 n=58 v=80
68016 Off ch=1 n=73 v=64
68016 Off ch=1 n=58 v=64
68040 On ch=1 n=66 v=80
68136 Off ch=1 n=66 v=64
68160 On ch=1 n=78 v=80
68256 Off ch=1 n=78 v=64
68280 On ch=1 n=80 v=80
68376 Off ch=1 n=80 v=64
68400 On ch=1 n=64 v=80
68400 On ch=1 n=81 v=80
68496 Off ch=1 n=81 v=64
68520 On ch=1 n=80 v=80
68616 Off ch=1 n=80 v=64
68640 On ch=1 n=78 v=80
68688 Off ch=1 n=64 v=64
68736 Off ch=1 n=78 v=64
68760 On ch=1 n=62 v=80
68760 On ch=1 n=78 v=80
68856 Off ch=1 n=78 v=64
68880 On ch=1 n=76 v=80
68976 Off ch=1 n=76 v=64
69000 On ch=1 n=74 v=80
69048 Off ch=1 n=62 v=64
69096 Off ch=1 n=74 v=64
69120 On ch=1 n=57 v=80
69120 On ch=1 n=73 v=80
69216 Off ch=1 n=73 v=64
69240 On ch=1 n=74 v=80
69336 Off ch=1 n=74 v=64
69360 On ch=1 n=76 v=80
69408 Off ch=1 n=57 v=64
69456 Off ch=1 n=76 v=64
69480 On ch=1 n=55 v=80
69480 On ch=1 n=74 v=80
69576 Off ch=1 n=74 v=64
69600 On ch=1 n=73 v=80
69696 Off ch=1 n=73 v=64
69720 On ch=1 n=71 v=80
69768 Off ch=1 n=55 v=64
69816 Off ch=1 n=71 v=64
69840 On ch=1 n=54 v=80
69840 On ch=1 n=73 v=80
69936 Off ch=1 n=73 v=64
69960 On ch=1 n=74 v=80
70056 Off ch=1 n=74 v=64
70080 On ch=1 n=76 v=80
70128 Off ch=1 n=54 v=64
70176 Off ch=1 n=76 v=64
70200 On ch=1 n=59 v=80
70200 On ch=1 n=74 v=80
70296 Off ch=1 n=74 v=64
70320 On ch=1 n=73 v=80
70416 Off ch=1 n=73 v=64
70440 On ch=1 n=71 v=80
70488 Off ch=1 n=59 v=64
70536 Off ch=1 n=71 v=64
70560 On ch=1 n=73 v=80
70560 On ch=1 n=58 v=80
70776 Off ch=1 n=73 v=64
70776 Off ch=1 n=58 v=64
70800 On ch=1 n=66 v=80
70896 Off ch=1 n=66 v=64
70920 On ch=1 n=78 v=80
71016 Off ch=1 n=78 v=64
71040 On ch=1 n=80 v=80
71136 Off ch=1 n=80 v=64
71160 On ch=1 n=64 v=80
71160 On ch=1 n=81 v=80
71256 Off ch=1 n=81 v=64
71280 On ch=1 n=80 v=80
71376 Off ch=1 n=80 v=64
71400 On ch=1 n=78 v=80
71448 Off ch=1 n=64 v=64
71496 Off ch=1 n=78 v=64
71520 On ch=1 n=62 v=80
71520 On ch=1 n=78 v=80
71616 Off ch=1 n=78 v=64
71640 On ch=1 n=76 v=80
71736 Off ch=1 n=76 v=64
71760 On ch=1 n=74 v=80
71808 Off ch=1 n=62 v=64
71856 Off ch=1 n=74 v=64
71880 On ch=1 n=57 v=80
71880 On ch=1 n=73 v=80
71976 Off ch=1 n=73 v=64
72000 On ch=1 n=74 v=80
72096 Off ch=1 n=74 v=64
72120 On ch=1 n=76 v=80
72168 Off ch=1 n=57 v=64
72216 Off ch=1 n=76 v=64
72240 On ch=1 n=55 v=80
72240 On ch=1 n=74 v=80
72336 Off ch=1 n=74 v=64
72360 On ch=1 n=73 v=80
72456 Off ch=1 n=73 v=64
72480 On ch=1 n=71 v=80
72528 Off ch=1 n=55 v=64
72576 Off ch=1 n=71 v=64
72600 On ch=1 n=54 v=80
72600 On ch=1 n=73 v=80
72696 Off ch=1 n=73 v=64
72720 On ch=1 n=74 v=80
72816 Off ch=1 n=74 v=64
72840 On ch=1 n=76 v=80
72888 Off ch=1 n=54 v=64
72936 Off ch=1 n=76 v=64
72960 On ch=1 n=59 v=80
72960 On ch=1 n=74 v=80
73056 Off ch=1 n=74 v=64
73080 On ch=1 n=73 v=80
73152 Off ch=1 n=59 v=64
73176 Off ch=1 n=73 v=64
73200 On ch=1 n=71 v=80
73296 Off ch=1 n=71 v=64
73320 On ch=1 n=73 v=80
73320 On ch=1 n=58 v=80
73416 Off ch=1 n=58 v=64
73416 Off ch=1 n=73 v=64
73440 On ch=1 n=66 v=80
73536 Off ch=1 n=66 v=64
73560 On ch=1 n=78 v=80
73656 Off ch=1 n=78 v=64
73680 On ch=1 n=80 v=80
73776 Off ch=1 n=80 v=64
73800 On ch=1 n=81 v=80
73800 On ch=1 n=64 v=80
73896 Off ch=1 n=81 v=64
73920 On ch=1 n=80 v=80
74016 Off ch=1 n=80 v=64
74040 On ch=1 n=81 v=80
74088 Off ch=1 n=64 v=64
74136 Off ch=1 n=81 v=64
74160 On ch=1 n=83 v=80
74160 On ch=1 n=62 v=80
74256 Off ch=1 n=83 v=64
74280 On ch=1 n=81 v=80
74376 Off ch=1 n=81 v=64
74400 On ch=1 n=88 v=80
74448 Off ch=1 n=88 v=64
74448 Off ch=1 n=62 v=64
74460 On ch=1 n=88 v=80
74508 Off ch=1 n=88 v=64
74520 On ch=1 n=88 v=80
74520 On ch=1 n=61 v=80
74808 Off ch=1 n=61 v=64
74976 Off ch=1 n=88 v=64
75000 On ch=1 n=86 v=80
75096 Off ch=1 n=86 v=64
75120 On ch=1 n=85 v=80
75216 Off ch=1 n=85 v=64
75240 On ch=1 n=90 v=80
75240 On ch=1 n=62 v=80
75384 Off ch=1 n=90 v=64
75420 On ch=1 n=88 v=80
75468 Off ch=1 n=88 v=64
75480 On ch=1 n=86 v=80
75528 Off ch=1 n=62 v=64
75593 Off ch=1 n=86 v=64
75600 On ch=1 n=86 v=80
75600 On ch=1 n=68 v=80
75696 Off ch=1 n=86 v=64
75720 On ch=1 n=85 v=80
75816 Off ch=1 n=85 v=64
75840 On ch=1 n=83 v=80
75888 Off ch=1 n=68 v=64
75936 Off ch=1 n=83 v=64
75960 On ch=1 n=85 v=80
75960 On ch=1 n=69 v=80
76104 Off ch=1 n=85 v=64
76140 On ch=1 n=83 v=80
76188 Off ch=1 n=83 v=64
76200 On ch=1 n=81 v=80
76248 Off ch=1 n=69 v=64
76296 Off ch=1 n=81 v=64
76320 On ch=1 n=83 v=80
76320 On ch=1 n=67 v=80
76416 Off ch=1 n=83 v=64
76440 On ch=1 n=81 v=80
76536 Off ch=1 n=81 v=64
76560 On ch=1 n=79 v=80
76608 Off ch=1 n=67 v=64
76656 Off ch=1 n=79 v=64
76680 On ch=1 n=81 v=80
76680 On ch=1 n=62 v=80
76776 Off ch=1 n=81 v=64
76800 On ch=1 n=80 v=80
76824 Off ch=1 n=80 v=64
76830 On ch=1 n=79 v=80
76854 Off ch=1 n=79 v=64
76860 On ch=1 n=78 v=80
77016 Off ch=1 n=78 v=64
77040 On ch=1 n=77 v=80
77088 Off ch=1 n=77 v=64
77100 On ch=1 n=76 v=80
77256 Off ch=1 n=76 v=64
77280 On ch=1 n=74 v=80
77376 Off ch=1 n=74 v=64
77400 On ch=1 n=69 v=80
77448 Off ch=1 n=62 v=64
77496 Off ch=1 n=69 v=64
77520 On ch=1 n=74 v=80
77616 Off ch=1 n=74 v=64
77640 On ch=1 n=81 v=80
77640 On ch=1 n=67 v=80
77736 Off ch=1 n=81 v=64
77760 On ch=1 n=80 v=80
77784 Off ch=1 n=80 v=64
77790 On ch=1 n=79 v=80
77814 Off ch=1 n=79 v=64
77820 On ch=1 n=78 v=80
77976 Off ch=1 n=78 v=64
78000 On ch=1 n=77 v=80
78048 Off ch=1 n=77 v=64
78060 On ch=1 n=76 v=80
78216 Off ch=1 n=76 v=64
78240 On ch=1 n=74 v=80
78336 Off ch=1 n=74 v=64
78360 On ch=1 n=71 v=80
78408 Off ch=1 n=71 v=64
78408 Off ch=1 n=67 v=64
78420 On ch=1 n=74 v=80
78468 Off ch=1 n=74 v=64
78480 On ch=1 n=71 v=80
78528 Off ch=1 n=71 v=64
78600 On ch=1 n=81 v=80
78600 On ch=1 n=62 v=80
78696 Off ch=1 n=81 v=64
78720 On ch=1 n=80 v=80
78744 Off ch=1 n=80 v=64
78750 On ch=1 n=79 v=80
78774 Off ch=1 n=79 v=64
78780 On ch=1 n=78 v=80
78936 Off ch=1 n=78 v=64
78960 On ch=1 n=77 v=80
79008 Off ch=1 n=77 v=64
79020 On ch=1 n=76 v=80
79176 Off ch=1 n=76 v=64
79200 On ch=1 n=74 v=80
79296 Off ch=1 n=74 v=64
79320 On ch=1 n=69 v=80
79368 Off ch=1 n=62 v=64
79416 Off ch=1 n=69 v=64
79440 On ch=1 n=74 v=80
79536 Off ch=1 n=74 v=64
79560 On ch=1 n=86 v=80
79560 On ch=1 n=67 v=80
79656 Off ch=1 n=86 v=64
79680 On ch=1 n=85 v=80
79704 Off ch=1 n=85 v=64
79710 On ch=1 n=85 v=80
79734 Off ch=1 n=85 v=64
79740 On ch=1 n=83 v=80
79896 Off ch=1 n=83 v=64
79920 On ch=1 n=79 v=80
79968 Off ch=1 n=79 v=64
79980 On ch=1 n=76 v=80
80136 Off ch=1 n=76 v=64
80160 On ch=1 n=79 v=80
80256 Off ch=1 n=79 v=64
80280 On ch=1 n=71 v=80
80328 Off ch=1 n=71 v=64
80328 Off ch=1 n=67 v=64
80340 On ch=1 n=74 v=80
80388 Off ch=1 n=74 v=64
80400 On ch=1 n=71 v=80
80448 Off ch=1 n=71 v=64
80520 On ch=1 n=81 v=80
80520 On ch=1 n=62 v=80
80616 Off ch=1 n=81 v=64
80640 On ch=1 n=80 v=80
80664 Off ch=1 n=80 v=64
80670 On ch=1 n=79 v=80
80694 Off ch=1 n=79 v=64
80700 On ch=1 n=78 v=80
80856 Off ch=1 n=78 v=64
80880 On ch=1 n=77 v=80
80928 Off ch=1 n=77 v=64
80940 On ch=1 n=76 v=80
81096 Off ch=1 n=76 v=64
81120 On ch=1 n=74 v=80
81216 Off ch=1 n=74 v=64
81240 On ch=1 n=69 v=80
81288 Off ch=1 n=62 v=64
81336 Off ch=1 n=69 v=64
81360 On ch=1 n=74 v=80
81456 Off ch=1 n=74 v=64
81480 On ch=1 n=81 v=80
81480 On ch=1 n=67 v=80
81576 Off ch=1 n=81 v=64
81600 On ch=1 n=80 v=80
81624 Off ch=1 n=80 v=64
81630 On ch=1 n=79 v=80
81654 Off ch=1 n=79 v=64
81660 On ch=1 n=78 v=80
81864 Off ch=1 n=67 v=64
81912 Off ch=1 n=78 v=64
81960 On ch=1 n=74 v=80
82008 Off ch=1 n=74 v=64
82020 On ch=1 n=73 v=80
82068 Off ch=1 n=73 v=64
82080 On ch=1 n=71 v=80
82368 Off ch=1 n=71 v=64
82440 On ch=1 n=71 v=80
82488 Off ch=1 n=71 v=64
82500 On ch=1 n=69 v=80
82548 Off ch=1 n=69 v=64
82560 On ch=1 n=67 v=80
82848 Off ch=1 n=67 v=64
82920 On ch=1 n=66 v=80
82968 Off ch=1 n=66 v=64
82980 On ch=1 n=64 v=80
83028 Off ch=1 n=64 v=64
83040 On ch=1 n=62 v=80
83160 On ch=1 n=59 v=80
83328 Off ch=1 n=62 v=64
83400 On ch=1 n=62 v=80
83640 On ch=1 n=69 v=80
83736 Off ch=1 n=59 v=64
83880 On ch=1 n=74 v=80
84264 Off ch=1 n=62 v=64
84264 Off ch=1 n=74 v=64
84264 Off ch=1 n=69 v=64
84360 On ch=1 n=54 v=80
84744 Off ch=1 n=54 v=64
84744 Meta TrkEnd
TrkEnd
