MFile 1 15 240
MTrk
0 TimeSig 4/4 24 8
0 Tempo 500000
0 Meta Text "All Good People-Your Move"
105720 Tempo 508475
105780 Tempo 517241
105840 Tempo 526316
105900 Tempo 535714
105960 Tempo 545455
106020 Tempo 555556
106080 Tempo 566038
106140 Tempo 571429
106200 Tempo 582524
106260 Tempo 594059
106320 Tempo 606061
106380 Tempo 618557
106440 Tempo 631579
106500 Tempo 645161
106560 Tempo 659341
106620 Tempo 666667
106680 Tempo 681818
106800 Tempo 697674
106860 Tempo 714286
106920 Tempo 731707
106980 Tempo 750000
107040 Tempo 769231
107100 Tempo 789474
107160 Tempo 800000
107220 Tempo 821918
107280 Tempo 845070
107340 Tempo 869565
107400 Tempo 895522
107460 Tempo 923077
107520 Tempo 952381
107580 Tempo 983607
107640 Tempo 1000000
107700 Tempo 1034483
107760 Tempo 1071429
107760 Meta TrkEnd
TrkEnd
MTrk
0 PrCh ch=1 p=0
0 Par ch=1 c=7 v=96
480 Par ch=1 c=0 v=0
485 Par ch=1 c=32 v=0
495 Par ch=1 c=1 v=0
505 Par ch=1 c=10 v=64
510 Par ch=1 c=11 v=127
515 Par ch=1 c=64 v=0
520 Par ch=1 c=91 v=64
525 Par ch=1 c=93 v=64
530 Pb ch=1 v=8192
530 Meta TrkEnd
TrkEnd
MTrk
0 Meta Text "Vocal 1"
0 PrCh ch=2 p=82
0 Par ch=2 c=7 v=109
480 Par ch=2 c=0 v=0
485 Par ch=2 c=32 v=0
495 Par ch=2 c=1 v=47
505 Par ch=2 c=10 v=64
510 Par ch=2 c=11 v=127
515 Par ch=2 c=64 v=0
520 Par ch=2 c=91 v=64
525 Par ch=2 c=93 v=127
530 Pb ch=2 v=8192
1080 On ch=2 n=76 v=63
1160 Off ch=2 n=76 v=64
1200 Par ch=2 c=7 v=109
1200 Par ch=2 c=93 v=127
1200 Par ch=2 c=1 v=47
1200 On ch=2 n=79 v=63
1280 Off ch=2 n=79 v=64
1320 On ch=2 n=80 v=63
1520 Off ch=2 n=80 v=64
1560 On ch=2 n=80 v=63
1760 Off ch=2 n=80 v=64
1800 On ch=2 n=80 v=63
1960 Off ch=2 n=80 v=64
1960 On ch=2 n=81 v=63
2000 Off ch=2 n=81 v=64
2000 On ch=2 n=80 v=63
2025 Off ch=2 n=80 v=64
2040 On ch=2 n=78 v=63
2240 Off ch=2 n=78 v=64
2280 On ch=2 n=78 v=63
2480 Off ch=2 n=78 v=64
2520 On ch=2 n=78 v=63
2720 Off ch=2 n=78 v=64
2760 On ch=2 n=78 v=63
2960 Off ch=2 n=78 v=64
3000 On ch=2 n=76 v=63
3200 Off ch=2 n=76 v=64
3240 On ch=2 n=76 v=63
3440 Off ch=2 n=76 v=64
3480 On ch=2 n=76 v=63
3680 Off ch=2 n=76 v=64
3720 On ch=2 n=78 v=63
3920 Off ch=2 n=78 v=64
3960 On ch=2 n=78 v=63
4160 Off ch=2 n=78 v=64
4200 On ch=2 n=78 v=63
4400 Off ch=2 n=78 v=64
4440 On ch=2 n=78 v=63
4640 Off ch=2 n=78 v=64
4680 On ch=2 n=76 v=63
4880 Off ch=2 n=76 v=64
4920 On ch=2 n=76 v=63
5120 Off ch=2 n=76 v=64
5160 On ch=2 n=76 v=63
5280 Par ch=2 c=1 v=0
5310 Par ch=2 c=1 v=4
5340 Par ch=2 c=1 v=8
5370 Par ch=2 c=1 v=12
5400 Par ch=2 c=1 v=16
5430 Par ch=2 c=1 v=20
5440 Off ch=2 n=76 v=64
5460 Par ch=2 c=1 v=24
5490 Par ch=2 c=1 v=28
5520 Par ch=2 c=1 v=0
5580 Par ch=2 c=1 v=0
6720 Pb ch=2 v=8192
6720 Par ch=2 c=1 v=0
6720 Par ch=2 c=64 v=0
6720 Par ch=2 c=11 v=127
6720 Par ch=2 c=91 v=64
6720 Par ch=2 c=93 v=64
6840 On ch=2 n=76 v=63
6920 Off ch=2 n=76 v=64
6960 On ch=2 n=79 v=63
7040 Off ch=2 n=79 v=64
7080 On ch=2 n=80 v=63
7280 Off ch=2 n=80 v=64
7320 On ch=2 n=80 v=63
7520 Off ch=2 n=80 v=64
7560 On ch=2 n=80 v=63
7720 Off ch=2 n=80 v=64
7720 On ch=2 n=81 v=63
7760 Off ch=2 n=81 v=64
7760 On ch=2 n=80 v=63
7785 Off ch=2 n=80 v=64
7800 On ch=2 n=78 v=63
8000 Off ch=2 n=78 v=64
8040 On ch=2 n=78 v=63
8240 Off ch=2 n=78 v=64
8280 On ch=2 n=78 v=63
8480 Off ch=2 n=78 v=64
8520 On ch=2 n=78 v=63
8720 Off ch=2 n=78 v=64
8760 On ch=2 n=76 v=63
8960 Off ch=2 n=76 v=64
9000 On ch=2 n=76 v=63
9200 Off ch=2 n=76 v=64
9240 On ch=2 n=76 v=63
9440 Off ch=2 n=76 v=64
9480 On ch=2 n=78 v=63
9680 Off ch=2 n=78 v=64
9720 On ch=2 n=78 v=63
9920 Off ch=2 n=78 v=64
9960 On ch=2 n=78 v=63
10160 Off ch=2 n=78 v=64
10200 On ch=2 n=78 v=63
10400 Off ch=2 n=78 v=64
10440 On ch=2 n=76 v=63
10640 Off ch=2 n=76 v=64
10680 On ch=2 n=76 v=63
10880 Off ch=2 n=76 v=64
10920 On ch=2 n=76 v=63
11040 Par ch=2 c=1 v=65
11200 Off ch=2 n=76 v=64
11280 Par ch=2 c=1 v=0
11340 Par ch=2 c=1 v=0
11340 Par ch=2 c=1 v=0
13560 On ch=2 n=76 v=79
13760 Off ch=2 n=76 v=64
13800 On ch=2 n=78 v=79
14000 Off ch=2 n=78 v=64
14040 On ch=2 n=78 v=79
14240 Off ch=2 n=78 v=64
14280 On ch=2 n=76 v=79
14480 Off ch=2 n=76 v=64
14520 On ch=2 n=76 v=79
14720 Off ch=2 n=76 v=64
14760 On ch=2 n=78 v=79
14840 Off ch=2 n=78 v=64
14880 On ch=2 n=76 v=79
15120 Off ch=2 n=76 v=64
15240 On ch=2 n=76 v=79
15280 Off ch=2 n=76 v=64
15300 On ch=2 n=76 v=79
15340 Off ch=2 n=76 v=64
15360 On ch=2 n=76 v=79
15520 Off ch=2 n=76 v=64
15600 On ch=2 n=78 v=79
15680 Off ch=2 n=78 v=64
15720 On ch=2 n=76 v=79
16000 Off ch=2 n=76 v=64
16080 On ch=2 n=73 v=79
16160 Off ch=2 n=73 v=64
16200 On ch=2 n=73 v=79
16440 Off ch=2 n=73 v=64
16440 On ch=2 n=71 v=79
16720 Off ch=2 n=71 v=64
17400 On ch=2 n=78 v=79
17600 Off ch=2 n=78 v=64
17640 On ch=2 n=78 v=79
17720 Off ch=2 n=78 v=64
17760 On ch=2 n=76 v=79
17920 Off ch=2 n=76 v=64
18000 On ch=2 n=78 v=79
18080 Off ch=2 n=78 v=64
18120 On ch=2 n=76 v=79
18320 Off ch=2 n=76 v=64
18360 On ch=2 n=78 v=79
18560 Off ch=2 n=78 v=64
18600 On ch=2 n=78 v=79
18880 Off ch=2 n=78 v=64
19560 On ch=2 n=73 v=79
19640 Off ch=2 n=73 v=64
19680 On ch=2 n=76 v=79
19760 Off ch=2 n=76 v=64
19800 On ch=2 n=73 v=79
19880 Off ch=2 n=73 v=64
19920 On ch=2 n=76 v=79
20080 Off ch=2 n=76 v=64
20160 On ch=2 n=80 v=79
20720 Off ch=2 n=80 v=64
20760 On ch=2 n=78 v=79
20840 Off ch=2 n=78 v=64
20880 On ch=2 n=76 v=79
20960 Off ch=2 n=76 v=64
21000 On ch=2 n=76 v=79
21120 Off ch=2 n=76 v=64
21120 On ch=2 n=73 v=79
21200 Off ch=2 n=73 v=64
21240 On ch=2 n=76 v=79
21480 Off ch=2 n=76 v=64
21480 On ch=2 n=73 v=79
21600 Off ch=2 n=73 v=64
21600 On ch=2 n=71 v=79
21960 Off ch=2 n=71 v=64
21960 On ch=2 n=73 v=79
22080 Off ch=2 n=73 v=64
22080 On ch=2 n=68 v=79
22715 Off ch=2 n=68 v=64
24960 On ch=2 n=80 v=79
25120 Off ch=2 n=80 v=64
25200 On ch=2 n=81 v=79
25280 Off ch=2 n=81 v=64
25320 On ch=2 n=80 v=79
25520 Off ch=2 n=80 v=64
25560 On ch=2 n=81 v=79
25640 Off ch=2 n=81 v=64
25680 On ch=2 n=80 v=79
25840 Off ch=2 n=80 v=64
25920 On ch=2 n=81 v=79
26000 Off ch=2 n=81 v=64
26040 On ch=2 n=80 v=79
26240 Off ch=2 n=80 v=64
26280 On ch=2 n=81 v=79
26360 Off ch=2 n=81 v=64
26400 On ch=2 n=80 v=79
26560 Off ch=2 n=80 v=64
26640 On ch=2 n=81 v=79
26720 Off ch=2 n=81 v=64
26760 On ch=2 n=80 v=79
26960 Off ch=2 n=80 v=64
27000 On ch=2 n=81 v=79
27080 Off ch=2 n=81 v=64
27120 On ch=2 n=80 v=79
27440 Off ch=2 n=80 v=64
27600 On ch=2 n=80 v=79
27760 Off ch=2 n=80 v=64
27840 On ch=2 n=81 v=79
28000 Off ch=2 n=81 v=64
28080 On ch=2 n=81 v=79
29435 Off ch=2 n=81 v=64
30000 On ch=2 n=81 v=79
30320 Off ch=2 n=81 v=64
30360 On ch=2 n=83 v=79
30560 Off ch=2 n=83 v=64
30600 On ch=2 n=80 v=79
30960 Off ch=2 n=80 v=64
31080 On ch=2 n=78 v=79
31160 Off ch=2 n=78 v=64
31200 On ch=2 n=76 v=79
31440 Off ch=2 n=76 v=64
31680 On ch=2 n=76 v=79
31840 Off ch=2 n=76 v=64
31920 On ch=2 n=78 v=79
32000 Off ch=2 n=78 v=64
32040 On ch=2 n=76 v=79
32320 Off ch=2 n=76 v=64
32400 On ch=2 n=78 v=79
32480 Off ch=2 n=78 v=64
32520 On ch=2 n=78 v=79
32720 Off ch=2 n=78 v=64
32760 On ch=2 n=76 v=79
32840 Off ch=2 n=76 v=64
32880 On ch=2 n=78 v=79
33040 Off ch=2 n=78 v=64
33120 On ch=2 n=78 v=79
33360 Off ch=2 n=78 v=64
33720 On ch=2 n=76 v=79
33920 Off ch=2 n=76 v=64
33960 On ch=2 n=78 v=79
34040 Off ch=2 n=78 v=64
34080 On ch=2 n=76 v=79
34160 Off ch=2 n=76 v=64
34200 On ch=2 n=73 v=79
34400 Off ch=2 n=73 v=64
34440 On ch=2 n=73 v=79
34680 Off ch=2 n=73 v=64
34680 On ch=2 n=71 v=79
34760 Off ch=2 n=71 v=64
34800 On ch=2 n=71 v=79
34960 Off ch=2 n=71 v=64
35040 On ch=2 n=71 v=79
35280 Off ch=2 n=71 v=64
35640 On ch=2 n=76 v=79
35840 Off ch=2 n=76 v=64
35880 On ch=2 n=78 v=79
35960 Off ch=2 n=78 v=64
36000 On ch=2 n=76 v=79
36160 Off ch=2 n=76 v=64
36240 On ch=2 n=78 v=79
36320 Off ch=2 n=78 v=64
36360 On ch=2 n=76 v=79
36560 Off ch=2 n=76 v=64
36600 On ch=2 n=78 v=79
36640 Off ch=2 n=78 v=64
36660 On ch=2 n=76 v=79
36720 Off ch=2 n=76 v=64
36720 On ch=2 n=78 v=79
37120 Off ch=2 n=78 v=64
37680 On ch=2 n=76 v=79
37760 Off ch=2 n=76 v=64
37800 On ch=2 n=78 v=79
37880 Off ch=2 n=78 v=64
37920 On ch=2 n=76 v=79
38080 Off ch=2 n=76 v=64
38160 On ch=2 n=78 v=79
38240 Off ch=2 n=78 v=64
38280 On ch=2 n=80 v=79
38480 Off ch=2 n=80 v=64
38520 On ch=2 n=78 v=79
38720 Off ch=2 n=78 v=64
39000 On ch=2 n=76 v=79
39080 Off ch=2 n=76 v=64
39120 On ch=2 n=73 v=79
39200 Off ch=2 n=73 v=64
39240 On ch=2 n=76 v=79
39600 Off ch=2 n=76 v=64
39600 On ch=2 n=73 v=79
39720 Off ch=2 n=73 v=64
39720 On ch=2 n=71 v=79
40000 Off ch=2 n=71 v=64
40320 On ch=2 n=76 v=79
40480 Off ch=2 n=76 v=64
40560 On ch=2 n=73 v=79
40640 Off ch=2 n=73 v=64
40680 On ch=2 n=71 v=79
40960 Off ch=2 n=71 v=64
41280 On ch=2 n=80 v=79
42000 Off ch=2 n=80 v=64
42120 On ch=2 n=81 v=79
42320 Off ch=2 n=81 v=64
42360 On ch=2 n=80 v=79
42560 Off ch=2 n=80 v=64
42600 On ch=2 n=76 v=79
42680 Off ch=2 n=76 v=64
43200 On ch=2 n=76 v=79
43360 Off ch=2 n=76 v=64
43440 On ch=2 n=78 v=79
43520 Off ch=2 n=78 v=64
43560 On ch=2 n=78 v=79
43680 Off ch=2 n=78 v=64
43680 On ch=2 n=76 v=79
43840 Off ch=2 n=76 v=64
43920 On ch=2 n=76 v=79
44000 Off ch=2 n=76 v=64
44040 On ch=2 n=76 v=79
44240 Off ch=2 n=76 v=64
44280 On ch=2 n=78 v=79
44360 Off ch=2 n=78 v=64
44400 On ch=2 n=78 v=79
44480 Off ch=2 n=78 v=64
44520 On ch=2 n=78 v=79
44640 Off ch=2 n=78 v=64
44640 On ch=2 n=76 v=79
44800 Off ch=2 n=76 v=64
45240 On ch=2 n=76 v=79
45320 Off ch=2 n=76 v=64
45360 On ch=2 n=78 v=79
45520 Off ch=2 n=78 v=64
45600 On ch=2 n=76 v=79
45680 Off ch=2 n=76 v=64
45720 On ch=2 n=73 v=79
45920 Off ch=2 n=73 v=64
45960 On ch=2 n=73 v=79
46715 Off ch=2 n=73 v=64
47160 On ch=2 n=76 v=79
47360 Off ch=2 n=76 v=64
47400 On ch=2 n=78 v=79
47480 Off ch=2 n=78 v=64
47520 On ch=2 n=76 v=79
47680 Off ch=2 n=76 v=64
47760 On ch=2 n=78 v=79
47840 Off ch=2 n=78 v=64
47880 On ch=2 n=76 v=79
48080 Off ch=2 n=76 v=64
48120 On ch=2 n=78 v=79
48200 Off ch=2 n=78 v=64
48240 On ch=2 n=78 v=79
48320 Off ch=2 n=78 v=64
48360 On ch=2 n=78 v=79
48795 Off ch=2 n=78 v=64
49320 On ch=2 n=73 v=79
49400 Off ch=2 n=73 v=64
49440 On ch=2 n=76 v=79
49520 Off ch=2 n=76 v=64
49560 On ch=2 n=76 v=79
49640 Off ch=2 n=76 v=64
49680 On ch=2 n=76 v=79
49835 Off ch=2 n=76 v=64
50160 On ch=2 n=76 v=79
50240 Off ch=2 n=76 v=64
50280 On ch=2 n=76 v=79
50360 Off ch=2 n=76 v=64
50400 On ch=2 n=76 v=79
50480 Off ch=2 n=76 v=64
50520 On ch=2 n=76 v=79
50800 Off ch=2 n=76 v=64
50880 On ch=2 n=80 v=79
52155 Off ch=2 n=80 v=64
52320 On ch=2 n=81 v=79
52480 Off ch=2 n=81 v=64
52560 On ch=2 n=83 v=79
53435 Off ch=2 n=83 v=64
54720 On ch=2 n=80 v=79
54880 Off ch=2 n=80 v=64
54960 On ch=2 n=81 v=79
55040 Off ch=2 n=81 v=64
55080 On ch=2 n=80 v=79
55280 Off ch=2 n=80 v=64
55320 On ch=2 n=81 v=79
55400 Off ch=2 n=81 v=64
55440 On ch=2 n=80 v=79
55600 Off ch=2 n=80 v=64
55680 On ch=2 n=81 v=79
55760 Off ch=2 n=81 v=64
55800 On ch=2 n=80 v=79
56000 Off ch=2 n=80 v=64
56040 On ch=2 n=81 v=79
56120 Off ch=2 n=81 v=64
56160 On ch=2 n=80 v=79
56320 Off ch=2 n=80 v=64
56400 On ch=2 n=81 v=79
56480 Off ch=2 n=81 v=64
56520 On ch=2 n=80 v=79
56720 Off ch=2 n=80 v=64
56760 On ch=2 n=81 v=79
56840 Off ch=2 n=81 v=64
56880 On ch=2 n=80 v=79
57200 Off ch=2 n=80 v=64
57360 On ch=2 n=80 v=79
57520 Off ch=2 n=80 v=64
57600 On ch=2 n=81 v=79
57760 Off ch=2 n=81 v=64
57840 On ch=2 n=81 v=79
59195 Off ch=2 n=81 v=64
59760 On ch=2 n=81 v=79
60080 Off ch=2 n=81 v=64
60120 On ch=2 n=83 v=79
60320 Off ch=2 n=83 v=64
60360 On ch=2 n=83 v=79
60635 Off ch=2 n=83 v=64
60720 On ch=2 n=83 v=79
60880 Off ch=2 n=83 v=64
60960 On ch=2 n=80 v=79
61020 Off ch=2 n=80 v=64
61020 On ch=2 n=78 v=79
61080 Off ch=2 n=78 v=64
61080 On ch=2 n=76 v=79
61360 Off ch=2 n=76 v=64
61440 On ch=2 n=83 v=79
61480 Off ch=2 n=83 v=64
61500 On ch=2 n=83 v=79
61540 Off ch=2 n=83 v=64
61680 On ch=2 n=80 v=79
61720 Off ch=2 n=80 v=64
61740 On ch=2 n=80 v=79
61780 Off ch=2 n=80 v=64
61920 On ch=2 n=81 v=79
61960 Off ch=2 n=81 v=64
61980 On ch=2 n=81 v=79
62020 Off ch=2 n=81 v=64
62160 On ch=2 n=78 v=79
62200 Off ch=2 n=78 v=64
62220 On ch=2 n=78 v=79
62260 Off ch=2 n=78 v=64
62400 On ch=2 n=80 v=79
62440 Off ch=2 n=80 v=64
62460 On ch=2 n=80 v=79
62500 Off ch=2 n=80 v=64
62640 On ch=2 n=76 v=79
62680 Off ch=2 n=76 v=64
62700 On ch=2 n=76 v=79
62740 Off ch=2 n=76 v=64
62880 On ch=2 n=78 v=79
62920 Off ch=2 n=78 v=64
62940 On ch=2 n=78 v=79
62980 Off ch=2 n=78 v=64
63120 On ch=2 n=73 v=79
63220 Off ch=2 n=73 v=64
63240 On ch=2 n=71 v=79
63280 Off ch=2 n=71 v=64
63360 On ch=2 n=75 v=79
63675 Off ch=2 n=75 v=64
63840 On ch=2 n=76 v=79
64000 Off ch=2 n=76 v=64
64080 On ch=2 n=80 v=79
64480 Off ch=2 n=80 v=64
64560 On ch=2 n=73 v=79
64960 Off ch=2 n=73 v=64
65280 On ch=2 n=83 v=79
65320 Off ch=2 n=83 v=64
65340 On ch=2 n=83 v=79
65380 Off ch=2 n=83 v=64
65520 On ch=2 n=80 v=79
65560 Off ch=2 n=80 v=64
65580 On ch=2 n=80 v=79
65620 Off ch=2 n=80 v=64
65760 On ch=2 n=81 v=79
65800 Off ch=2 n=81 v=64
65820 On ch=2 n=81 v=79
65860 Off ch=2 n=81 v=64
66000 On ch=2 n=78 v=79
66040 Off ch=2 n=78 v=64
66060 On ch=2 n=78 v=79
66100 Off ch=2 n=78 v=64
66240 On ch=2 n=80 v=79
66280 Off ch=2 n=80 v=64
66300 On ch=2 n=80 v=79
66340 Off ch=2 n=80 v=64
66480 On ch=2 n=76 v=79
66520 Off ch=2 n=76 v=64
66540 On ch=2 n=76 v=79
66580 Off ch=2 n=76 v=64
66720 On ch=2 n=78 v=79
66760 Off ch=2 n=78 v=64
66780 On ch=2 n=78 v=79
66820 Off ch=2 n=78 v=64
66960 On ch=2 n=73 v=79
67060 Off ch=2 n=73 v=64
67080 On ch=2 n=71 v=79
67120 Off ch=2 n=71 v=64
67200 On ch=2 n=75 v=79
67515 Off ch=2 n=75 v=64
67680 On ch=2 n=76 v=79
67840 Off ch=2 n=76 v=64
67920 On ch=2 n=80 v=79
68320 Off ch=2 n=80 v=64
68400 On ch=2 n=73 v=79
68800 Off ch=2 n=73 v=64
69120 On ch=2 n=76 v=79
69280 Off ch=2 n=76 v=64
69360 On ch=2 n=78 v=79
69440 Off ch=2 n=78 v=64
69480 On ch=2 n=78 v=79
69760 Off ch=2 n=78 v=64
69840 On ch=2 n=76 v=79
69920 Off ch=2 n=76 v=64
69960 On ch=2 n=76 v=79
70160 Off ch=2 n=76 v=64
70200 On ch=2 n=78 v=79
70280 Off ch=2 n=78 v=64
70320 On ch=2 n=78 v=79
70400 Off ch=2 n=78 v=64
70440 On ch=2 n=78 v=79
70680 Off ch=2 n=78 v=64
70680 On ch=2 n=80 v=79
70760 Off ch=2 n=80 v=64
71160 On ch=2 n=81 v=79
71240 Off ch=2 n=81 v=64
71280 On ch=2 n=81 v=79
71440 Off ch=2 n=81 v=64
71520 On ch=2 n=76 v=79
71680 Off ch=2 n=76 v=64
71760 On ch=2 n=73 v=79
71840 Off ch=2 n=73 v=64
71880 On ch=2 n=73 v=79
72120 Off ch=2 n=73 v=64
72120 On ch=2 n=71 v=79
72400 Off ch=2 n=71 v=64
73120 On ch=2 n=76 v=79
73225 Off ch=2 n=76 v=64
73280 On ch=2 n=78 v=79
73385 Off ch=2 n=78 v=64
73440 On ch=2 n=76 v=79
73545 Off ch=2 n=76 v=64
73600 On ch=2 n=78 v=79
73705 Off ch=2 n=78 v=64
73760 On ch=2 n=78 v=79
74000 Off ch=2 n=78 v=64
74040 On ch=2 n=78 v=79
74120 Off ch=2 n=78 v=64
74160 On ch=2 n=78 v=79
74240 Off ch=2 n=78 v=64
74280 On ch=2 n=78 v=79
74400 Off ch=2 n=78 v=64
74400 On ch=2 n=80 v=79
74640 Off ch=2 n=80 v=64
75240 On ch=2 n=80 v=79
75320 Off ch=2 n=80 v=64
75360 On ch=2 n=81 v=79
75440 Off ch=2 n=81 v=64
75480 On ch=2 n=81 v=79
75560 Off ch=2 n=81 v=64
75600 On ch=2 n=80 v=79
75760 Off ch=2 n=80 v=64
76080 On ch=2 n=80 v=79
76240 Off ch=2 n=80 v=64
76320 On ch=2 n=80 v=79
76440 Off ch=2 n=80 v=64
76440 On ch=2 n=78 v=79
76520 Off ch=2 n=78 v=64
76560 On ch=2 n=76 v=79
76720 Off ch=2 n=76 v=64
76800 On ch=2 n=83 v=79
78075 Off ch=2 n=83 v=64
78240 On ch=2 n=76 v=79
78395 Off ch=2 n=76 v=64
78480 On ch=2 n=83 v=79
79345 Off ch=2 n=83 v=64
80640 On ch=2 n=80 v=79
80800 Off ch=2 n=80 v=64
80880 On ch=2 n=81 v=79
80960 Off ch=2 n=81 v=64
81000 On ch=2 n=80 v=79
81200 Off ch=2 n=80 v=64
81240 On ch=2 n=81 v=79
81320 Off ch=2 n=81 v=64
81360 On ch=2 n=80 v=79
81520 Off ch=2 n=80 v=64
81600 On ch=2 n=81 v=79
81680 Off ch=2 n=81 v=64
81720 On ch=2 n=80 v=79
81920 Off ch=2 n=80 v=64
81960 On ch=2 n=81 v=79
82040 Off ch=2 n=81 v=64
82080 On ch=2 n=81 v=79
82240 Off ch=2 n=81 v=64
82320 On ch=2 n=81 v=79
82400 Off ch=2 n=81 v=64
82440 On ch=2 n=80 v=79
82640 Off ch=2 n=80 v=64
82680 On ch=2 n=81 v=79
82760 Off ch=2 n=81 v=64
82800 On ch=2 n=80 v=79
83120 Off ch=2 n=80 v=64
83280 On ch=2 n=80 v=79
83440 Off ch=2 n=80 v=64
83520 On ch=2 n=81 v=79
83680 Off ch=2 n=81 v=64
83760 On ch=2 n=81 v=79
85115 Off ch=2 n=81 v=64
85680 On ch=2 n=83 v=79
86080 Off ch=2 n=83 v=64
86160 On ch=2 n=80 v=79
86240 Off ch=2 n=80 v=64
86280 On ch=2 n=83 v=79
86560 Off ch=2 n=83 v=64
86640 On ch=2 n=85 v=79
86800 Off ch=2 n=85 v=64
86880 On ch=2 n=80 v=79
86940 Off ch=2 n=80 v=64
86940 On ch=2 n=78 v=79
87000 Off ch=2 n=78 v=64
87000 On ch=2 n=76 v=79
87280 Off ch=2 n=76 v=64
87360 On ch=2 n=83 v=95
87400 Off ch=2 n=83 v=64
87420 On ch=2 n=83 v=95
87460 Off ch=2 n=83 v=64
87600 On ch=2 n=80 v=95
87640 Off ch=2 n=80 v=64
87660 On ch=2 n=80 v=95
87700 Off ch=2 n=80 v=64
87840 On ch=2 n=81 v=95
87880 Off ch=2 n=81 v=64
87900 On ch=2 n=81 v=95
87940 Off ch=2 n=81 v=64
88080 On ch=2 n=78 v=95
88120 Off ch=2 n=78 v=64
88140 On ch=2 n=78 v=95
88180 Off ch=2 n=78 v=64
88320 On ch=2 n=80 v=95
88360 Off ch=2 n=80 v=64
88380 On ch=2 n=80 v=95
88420 Off ch=2 n=80 v=64
88560 On ch=2 n=76 v=95
88600 Off ch=2 n=76 v=64
88620 On ch=2 n=76 v=95
88660 Off ch=2 n=76 v=64
88800 On ch=2 n=78 v=95
88840 Off ch=2 n=78 v=64
88860 On ch=2 n=78 v=95
88900 Off ch=2 n=78 v=64
89040 On ch=2 n=75 v=95
89120 Off ch=2 n=75 v=64
89160 On ch=2 n=71 v=95
89240 Off ch=2 n=71 v=64
91200 On ch=2 n=83 v=95
91240 Off ch=2 n=83 v=64
91260 On ch=2 n=83 v=95
91300 Off ch=2 n=83 v=64
91440 On ch=2 n=80 v=95
91480 Off ch=2 n=80 v=64
91500 On ch=2 n=80 v=95
91540 Off ch=2 n=80 v=64
91680 On ch=2 n=81 v=95
91720 Off ch=2 n=81 v=64
91740 On ch=2 n=81 v=95
91780 Off ch=2 n=81 v=64
91920 On ch=2 n=78 v=95
91960 Off ch=2 n=78 v=64
91980 On ch=2 n=78 v=95
92020 Off ch=2 n=78 v=64
92160 On ch=2 n=80 v=95
92200 Off ch=2 n=80 v=64
92220 On ch=2 n=80 v=95
92260 Off ch=2 n=80 v=64
92400 On ch=2 n=76 v=95
92440 Off ch=2 n=76 v=64
92460 On ch=2 n=76 v=95
92500 Off ch=2 n=76 v=64
92640 On ch=2 n=78 v=95
92680 Off ch=2 n=78 v=64
92700 On ch=2 n=78 v=95
92740 Off ch=2 n=78 v=64
92880 On ch=2 n=73 v=95
92960 Off ch=2 n=73 v=64
93000 On ch=2 n=71 v=95
93080 Off ch=2 n=71 v=64
95040 On ch=2 n=83 v=111
95080 Off ch=2 n=83 v=64
95100 On ch=2 n=83 v=111
95140 Off ch=2 n=83 v=64
95280 On ch=2 n=80 v=111
95320 Off ch=2 n=80 v=64
95340 On ch=2 n=80 v=111
95380 Off ch=2 n=80 v=64
95520 On ch=2 n=81 v=111
95560 Off ch=2 n=81 v=64
95580 On ch=2 n=81 v=111
95620 Off ch=2 n=81 v=64
95760 On ch=2 n=78 v=111
95800 Off ch=2 n=78 v=64
95820 On ch=2 n=78 v=111
95860 Off ch=2 n=78 v=64
96000 On ch=2 n=80 v=111
96040 Off ch=2 n=80 v=64
96060 On ch=2 n=80 v=111
96100 Off ch=2 n=80 v=64
96240 On ch=2 n=76 v=111
96280 Off ch=2 n=76 v=64
96300 On ch=2 n=76 v=111
96340 Off ch=2 n=76 v=64
96480 On ch=2 n=78 v=111
96520 Off ch=2 n=78 v=64
96540 On ch=2 n=78 v=111
96580 Off ch=2 n=78 v=64
96720 On ch=2 n=75 v=111
96800 Off ch=2 n=75 v=64
96840 On ch=2 n=71 v=111
96920 Off ch=2 n=71 v=64
98880 On ch=2 n=83 v=111
98920 Off ch=2 n=83 v=64
98940 On ch=2 n=83 v=111
98980 Off ch=2 n=83 v=64
99120 On ch=2 n=80 v=111
99160 Off ch=2 n=80 v=64
99180 On ch=2 n=80 v=111
99220 Off ch=2 n=80 v=64
99360 On ch=2 n=81 v=111
99400 Off ch=2 n=81 v=64
99420 On ch=2 n=81 v=111
99460 Off ch=2 n=81 v=64
99600 On ch=2 n=78 v=111
99640 Off ch=2 n=78 v=64
99660 On ch=2 n=78 v=111
99700 Off ch=2 n=78 v=64
99840 On ch=2 n=80 v=111
99880 Off ch=2 n=80 v=64
99900 On ch=2 n=80 v=111
99940 Off ch=2 n=80 v=64
100080 On ch=2 n=76 v=111
100120 Off ch=2 n=76 v=64
100140 On ch=2 n=76 v=111
100180 Off ch=2 n=76 v=64
100320 On ch=2 n=78 v=111
100360 Off ch=2 n=78 v=64
100380 On ch=2 n=78 v=111
100420 Off ch=2 n=78 v=64
100560 On ch=2 n=73 v=111
100640 Off ch=2 n=73 v=64
100680 On ch=2 n=71 v=111
100760 Off ch=2 n=71 v=64
102720 On ch=2 n=80 v=127
102880 Off ch=2 n=80 v=64
102960 On ch=2 n=81 v=127
103040 Off ch=2 n=81 v=64
103080 On ch=2 n=80 v=127
103280 Off ch=2 n=80 v=64
103320 On ch=2 n=81 v=127
103400 Off ch=2 n=81 v=64
103440 On ch=2 n=80 v=127
103600 Off ch=2 n=80 v=64
103680 On ch=2 n=81 v=127
103760 Off ch=2 n=81 v=64
103800 On ch=2 n=80 v=127
104000 Off ch=2 n=80 v=64
104040 On ch=2 n=81 v=127
104120 Off ch=2 n=81 v=64
104160 On ch=2 n=80 v=127
104320 Off ch=2 n=80 v=64
104400 On ch=2 n=81 v=127
104480 Off ch=2 n=81 v=64
104520 On ch=2 n=80 v=127
104720 Off ch=2 n=80 v=64
104760 On ch=2 n=81 v=127
104840 Off ch=2 n=81 v=64
104880 On ch=2 n=80 v=127
105280 Off ch=2 n=80 v=64
105360 On ch=2 n=80 v=127
105520 Off ch=2 n=80 v=64
105600 On ch=2 n=81 v=127
105760 Off ch=2 n=81 v=64
105840 On ch=2 n=81 v=127
107680 Off ch=2 n=81 v=64
107680 Meta TrkEnd
TrkEnd
MTrk
0 Meta Text "Vocal 2"
0 PrCh ch=3 p=82
0 Par ch=3 c=7 v=108
480 Par ch=3 c=0 v=0
485 Par ch=3 c=32 v=0
495 Par ch=3 c=1 v=0
505 Par ch=3 c=10 v=64
510 Par ch=3 c=11 v=127
515 Par ch=3 c=64 v=0
520 Par ch=3 c=91 v=64
525 Par ch=3 c=93 v=64
530 Pb ch=3 v=8192
1080 On ch=3 n=76 v=63
1160 Off ch=3 n=76 v=64
1200 Par ch=3 c=7 v=108
1200 On ch=3 n=81 v=63
1280 Off ch=3 n=81 v=64
1320 On ch=3 n=83 v=63
1520 Off ch=3 n=83 v=64
1560 On ch=3 n=83 v=63
1760 Off ch=3 n=83 v=64
1800 On ch=3 n=83 v=63
1960 Off ch=3 n=83 v=64
1960 On ch=3 n=85 v=63
2000 Off ch=3 n=85 v=64
2000 On ch=3 n=83 v=63
2025 Off ch=3 n=83 v=64
2040 On ch=3 n=81 v=63
2240 Off ch=3 n=81 v=64
2280 On ch=3 n=81 v=63
2480 Off ch=3 n=81 v=64
2520 On ch=3 n=81 v=63
2720 Off ch=3 n=81 v=64
2760 On ch=3 n=81 v=63
2960 Off ch=3 n=81 v=64
3000 On ch=3 n=79 v=63
3200 Off ch=3 n=79 v=64
3240 On ch=3 n=79 v=63
3440 Off ch=3 n=79 v=64
3480 On ch=3 n=79 v=63
3680 Off ch=3 n=79 v=64
3720 On ch=3 n=83 v=63
3920 Off ch=3 n=83 v=64
3960 On ch=3 n=83 v=63
4160 Off ch=3 n=83 v=64
4200 On ch=3 n=83 v=63
4400 Off ch=3 n=83 v=64
4440 On ch=3 n=83 v=63
4640 Off ch=3 n=83 v=64
4680 On ch=3 n=81 v=63
4880 Off ch=3 n=81 v=64
4920 On ch=3 n=81 v=63
5120 Off ch=3 n=81 v=64
5160 On ch=3 n=81 v=63
5280 Par ch=3 c=1 v=57
5440 Off ch=3 n=81 v=64
5520 Par ch=3 c=1 v=0
5580 Par ch=3 c=1 v=0
6720 Pb ch=3 v=8192
6720 Par ch=3 c=1 v=0
6720 Par ch=3 c=64 v=0
6720 Par ch=3 c=11 v=127
6720 Par ch=3 c=91 v=64
6720 Par ch=3 c=93 v=64
6840 On ch=3 n=76 v=63
6920 Off ch=3 n=76 v=64
6960 On ch=3 n=81 v=63
7040 Off ch=3 n=81 v=64
7080 On ch=3 n=83 v=63
7280 Off ch=3 n=83 v=64
7320 On ch=3 n=83 v=63
7520 Off ch=3 n=83 v=64
7560 On ch=3 n=83 v=63
7720 Off ch=3 n=83 v=64
7720 On ch=3 n=85 v=63
7760 Off ch=3 n=85 v=64
7760 On ch=3 n=83 v=63
7785 Off ch=3 n=83 v=64
7800 On ch=3 n=81 v=63
8000 Off ch=3 n=81 v=64
8040 On ch=3 n=81 v=63
8240 Off ch=3 n=81 v=64
8280 On ch=3 n=81 v=63
8480 Off ch=3 n=81 v=64
8520 On ch=3 n=81 v=63
8720 Off ch=3 n=81 v=64
8760 On ch=3 n=79 v=63
8960 Off ch=3 n=79 v=64
9000 On ch=3 n=79 v=63
9200 Off ch=3 n=79 v=64
9240 On ch=3 n=79 v=63
9440 Off ch=3 n=79 v=64
9480 On ch=3 n=83 v=63
9680 Off ch=3 n=83 v=64
9720 On ch=3 n=83 v=63
9920 Off ch=3 n=83 v=64
9960 On ch=3 n=83 v=63
10160 Off ch=3 n=83 v=64
10200 On ch=3 n=83 v=63
10400 Off ch=3 n=83 v=64
10440 On ch=3 n=81 v=63
10640 Off ch=3 n=81 v=64
10680 On ch=3 n=81 v=63
10880 Off ch=3 n=81 v=64
10920 On ch=3 n=81 v=63
11040 Par ch=3 c=1 v=65
11200 Off ch=3 n=81 v=64
11280 Par ch=3 c=1 v=0
11340 Par ch=3 c=1 v=0
50880 On ch=3 n=71 v=79
51355 Off ch=3 n=71 v=64
51600 On ch=3 n=73 v=79
51680 Off ch=3 n=73 v=64
51720 On ch=3 n=71 v=79
52155 Off ch=3 n=71 v=64
52320 On ch=3 n=73 v=79
52480 Off ch=3 n=73 v=64
52560 On ch=3 n=75 v=79
53435 Off ch=3 n=75 v=64
61440 On ch=3 n=71 v=79
61680 Off ch=3 n=71 v=64
62160 On ch=3 n=73 v=79
62240 Off ch=3 n=73 v=64
62280 On ch=3 n=71 v=79
62640 Off ch=3 n=71 v=64
63120 On ch=3 n=73 v=79
63280 Off ch=3 n=73 v=64
63360 On ch=3 n=71 v=79
63675 Off ch=3 n=71 v=64
63840 On ch=3 n=71 v=79
64000 Off ch=3 n=71 v=64
64080 On ch=3 n=76 v=79
64480 Off ch=3 n=76 v=64
64560 On ch=3 n=69 v=79
64960 Off ch=3 n=69 v=64
65280 On ch=3 n=71 v=79
65520 Off ch=3 n=71 v=64
66000 On ch=3 n=73 v=79
66080 Off ch=3 n=73 v=64
66120 On ch=3 n=71 v=79
66480 Off ch=3 n=71 v=64
66960 On ch=3 n=73 v=79
67120 Off ch=3 n=73 v=64
67200 On ch=3 n=71 v=79
67515 Off ch=3 n=71 v=64
67680 On ch=3 n=71 v=79
67840 Off ch=3 n=71 v=64
67920 On ch=3 n=76 v=79
68320 Off ch=3 n=76 v=64
68400 On ch=3 n=69 v=79
68800 Off ch=3 n=69 v=64
69120 On ch=3 n=71 v=79
69360 Off ch=3 n=71 v=64
69840 On ch=3 n=73 v=79
69920 Off ch=3 n=73 v=64
69960 On ch=3 n=71 v=79
70395 Off ch=3 n=71 v=64
70560 On ch=3 n=68 v=79
70720 Off ch=3 n=68 v=64
70800 On ch=3 n=71 v=79
71200 Off ch=3 n=71 v=64
72960 On ch=3 n=71 v=79
73435 Off ch=3 n=71 v=64
73680 On ch=3 n=73 v=79
73760 Off ch=3 n=73 v=64
73800 On ch=3 n=71 v=79
74395 Off ch=3 n=71 v=64
74640 On ch=3 n=73 v=79
74800 Off ch=3 n=73 v=64
74880 On ch=3 n=71 v=79
75195 Off ch=3 n=71 v=64
75360 On ch=3 n=71 v=79
75520 Off ch=3 n=71 v=64
75600 On ch=3 n=64 v=79
75760 Off ch=3 n=64 v=64
76080 On ch=3 n=73 v=79
76080 On ch=3 n=76 v=79
76635 Off ch=3 n=76 v=64
76635 Off ch=3 n=73 v=64
76800 On ch=3 n=71 v=79
77275 Off ch=3 n=71 v=64
77520 On ch=3 n=73 v=79
77600 Off ch=3 n=73 v=64
77640 On ch=3 n=71 v=79
78075 Off ch=3 n=71 v=64
78240 On ch=3 n=73 v=79
78400 Off ch=3 n=73 v=64
78480 On ch=3 n=75 v=79
79355 Off ch=3 n=75 v=64
79355 Meta TrkEnd
TrkEnd
MTrk
0 Meta Text "Piano"
0 PrCh ch=4 p=1
0 Par ch=4 c=7 v=96
480 Par ch=4 c=0 v=0
485 Par ch=4 c=32 v=0
495 Par ch=4 c=1 v=0
505 Par ch=4 c=10 v=36
510 Par ch=4 c=11 v=127
515 Par ch=4 c=64 v=0
520 Par ch=4 c=91 v=64
525 Par ch=4 c=93 v=64
530 Pb ch=4 v=8192
1200 Par ch=4 c=7 v=96
6720 Pb ch=4 v=8192
6720 Par ch=4 c=1 v=0
6720 Par ch=4 c=64 v=0
6720 Par ch=4 c=11 v=127
6720 Par ch=4 c=91 v=64
6720 Par ch=4 c=93 v=64
11640 On ch=4 n=68 v=79
11640 On ch=4 n=71 v=79
11680 Off ch=4 n=71 v=64
11680 Off ch=4 n=68 v=64
11760 On ch=4 n=68 v=79
11760 On ch=4 n=71 v=79
11820 Off ch=4 n=71 v=64
11820 Off ch=4 n=68 v=64
11820 On ch=4 n=69 v=79
11820 On ch=4 n=73 v=79
11880 Off ch=4 n=73 v=64
11880 Off ch=4 n=69 v=64
11880 On ch=4 n=68 v=79
11880 On ch=4 n=71 v=79
11920 Off ch=4 n=71 v=64
11920 Off ch=4 n=68 v=64
12000 On ch=4 n=68 v=79
12000 On ch=4 n=71 v=79
12080 Off ch=4 n=71 v=64
12080 Off ch=4 n=68 v=64
12120 On ch=4 n=69 v=79
12120 On ch=4 n=73 v=79
12200 Off ch=4 n=73 v=64
12200 Off ch=4 n=69 v=64
12240 On ch=4 n=68 v=79
12240 On ch=4 n=71 v=79
12320 Off ch=4 n=71 v=64
12320 Off ch=4 n=68 v=64
12360 On ch=4 n=76 v=79
12360 On ch=4 n=73 v=79
12560 Off ch=4 n=73 v=64
12560 Off ch=4 n=76 v=64
12600 On ch=4 n=71 v=79
12600 On ch=4 n=75 v=79
12800 Off ch=4 n=75 v=64
12800 Off ch=4 n=71 v=64
12840 On ch=4 n=68 v=79
12840 On ch=4 n=71 v=79
13275 Off ch=4 n=71 v=64
13275 Off ch=4 n=68 v=64
13440 On ch=4 n=64 v=79
13440 On ch=4 n=68 v=79
13520 Off ch=4 n=68 v=64
13520 Off ch=4 n=64 v=64
13560 On ch=4 n=59 v=79
13640 Off ch=4 n=59 v=64
13680 On ch=4 n=64 v=79
13680 On ch=4 n=68 v=79
13760 Off ch=4 n=68 v=64
13760 Off ch=4 n=64 v=64
13800 On ch=4 n=64 v=79
13800 On ch=4 n=68 v=79
14000 Off ch=4 n=68 v=64
14000 Off ch=4 n=64 v=64
14040 On ch=4 n=59 v=79
14120 Off ch=4 n=59 v=64
14160 On ch=4 n=64 v=79
14160 On ch=4 n=68 v=79
14240 Off ch=4 n=68 v=64
14240 Off ch=4 n=64 v=64
14280 On ch=4 n=64 v=79
14280 On ch=4 n=68 v=79
14360 Off ch=4 n=68 v=64
14360 Off ch=4 n=64 v=64
14400 On ch=4 n=66 v=79
14400 On ch=4 n=69 v=79
14480 Off ch=4 n=69 v=64
14480 Off ch=4 n=66 v=64
14520 On ch=4 n=61 v=79
14600 Off ch=4 n=61 v=64
14640 On ch=4 n=66 v=79
14640 On ch=4 n=69 v=79
14720 Off ch=4 n=69 v=64
14720 Off ch=4 n=66 v=64
14760 On ch=4 n=66 v=79
14760 On ch=4 n=69 v=79
14960 Off ch=4 n=69 v=64
14960 Off ch=4 n=66 v=64
15000 On ch=4 n=61 v=79
15080 Off ch=4 n=61 v=64
15120 On ch=4 n=66 v=79
15120 On ch=4 n=69 v=79
15200 Off ch=4 n=69 v=64
15200 Off ch=4 n=66 v=64
15240 On ch=4 n=66 v=79
15240 On ch=4 n=69 v=79
15320 Off ch=4 n=69 v=64
15320 Off ch=4 n=66 v=64
15360 On ch=4 n=68 v=79
15360 On ch=4 n=71 v=79
15440 Off ch=4 n=71 v=64
15440 Off ch=4 n=68 v=64
15480 On ch=4 n=63 v=79
15560 Off ch=4 n=63 v=64
15600 On ch=4 n=68 v=79
15600 On ch=4 n=71 v=79
15680 Off ch=4 n=71 v=64
15680 Off ch=4 n=68 v=64
15720 On ch=4 n=68 v=79
15720 On ch=4 n=71 v=79
15920 Off ch=4 n=71 v=64
15920 Off ch=4 n=68 v=64
15960 On ch=4 n=63 v=79
16040 Off ch=4 n=63 v=64
16080 On ch=4 n=68 v=79
16080 On ch=4 n=71 v=79
16160 Off ch=4 n=71 v=64
16160 Off ch=4 n=68 v=64
16200 On ch=4 n=68 v=79
16200 On ch=4 n=71 v=79
16280 Off ch=4 n=71 v=64
16280 Off ch=4 n=68 v=64
16320 On ch=4 n=66 v=79
16320 On ch=4 n=69 v=79
16400 Off ch=4 n=69 v=64
16400 Off ch=4 n=66 v=64
16440 On ch=4 n=61 v=79
16520 Off ch=4 n=61 v=64
16560 On ch=4 n=66 v=79
16560 On ch=4 n=69 v=79
16640 Off ch=4 n=69 v=64
16640 Off ch=4 n=66 v=64
16680 On ch=4 n=66 v=79
16680 On ch=4 n=69 v=79
16880 Off ch=4 n=69 v=64
16880 Off ch=4 n=66 v=64
16920 On ch=4 n=61 v=79
17000 Off ch=4 n=61 v=64
17040 On ch=4 n=66 v=79
17040 On ch=4 n=69 v=79
17120 Off ch=4 n=69 v=64
17120 Off ch=4 n=66 v=64
17160 On ch=4 n=66 v=79
17160 On ch=4 n=69 v=79
17240 Off ch=4 n=69 v=64
17240 Off ch=4 n=66 v=64
17280 On ch=4 n=64 v=79
17280 On ch=4 n=68 v=79
17360 Off ch=4 n=68 v=64
17360 Off ch=4 n=64 v=64
17400 On ch=4 n=59 v=79
17480 Off ch=4 n=59 v=64
17520 On ch=4 n=64 v=79
17520 On ch=4 n=68 v=79
17600 Off ch=4 n=68 v=64
17600 Off ch=4 n=64 v=64
17640 On ch=4 n=64 v=79
17640 On ch=4 n=68 v=79
17840 Off ch=4 n=68 v=64
17840 Off ch=4 n=64 v=64
17880 On ch=4 n=59 v=79
17960 Off ch=4 n=59 v=64
18000 On ch=4 n=64 v=79
18000 On ch=4 n=68 v=79
18080 Off ch=4 n=68 v=64
18080 Off ch=4 n=64 v=64
18120 On ch=4 n=64 v=79
18120 On ch=4 n=68 v=79
18200 Off ch=4 n=68 v=64
18200 Off ch=4 n=64 v=64
18240 On ch=4 n=66 v=79
18240 On ch=4 n=69 v=79
18320 Off ch=4 n=69 v=64
18320 Off ch=4 n=66 v=64
18360 On ch=4 n=61 v=79
18440 Off ch=4 n=61 v=64
18480 On ch=4 n=66 v=79
18480 On ch=4 n=69 v=79
18560 Off ch=4 n=69 v=64
18560 Off ch=4 n=66 v=64
18600 On ch=4 n=66 v=79
18600 On ch=4 n=69 v=79
18800 Off ch=4 n=69 v=64
18800 Off ch=4 n=66 v=64
18840 On ch=4 n=61 v=79
18920 Off ch=4 n=61 v=64
18960 On ch=4 n=66 v=79
18960 On ch=4 n=69 v=79
19040 Off ch=4 n=69 v=64
19040 Off ch=4 n=66 v=64
19080 On ch=4 n=66 v=79
19080 On ch=4 n=69 v=79
19160 Off ch=4 n=69 v=64
19160 Off ch=4 n=66 v=64
19200 On ch=4 n=68 v=79
19200 On ch=4 n=71 v=79
19280 Off ch=4 n=71 v=64
19280 Off ch=4 n=68 v=64
19320 On ch=4 n=63 v=79
19400 Off ch=4 n=63 v=64
19440 On ch=4 n=68 v=79
19440 On ch=4 n=71 v=79
19520 Off ch=4 n=71 v=64
19520 Off ch=4 n=68 v=64
19560 On ch=4 n=68 v=79
19560 On ch=4 n=71 v=79
19760 Off ch=4 n=71 v=64
19760 Off ch=4 n=68 v=64
19800 On ch=4 n=63 v=79
19880 Off ch=4 n=63 v=64
19920 On ch=4 n=68 v=79
19920 On ch=4 n=71 v=79
20000 Off ch=4 n=71 v=64
20000 Off ch=4 n=68 v=64
20040 On ch=4 n=68 v=79
20040 On ch=4 n=71 v=79
20120 Off ch=4 n=71 v=64
20120 Off ch=4 n=68 v=64
20160 On ch=4 n=66 v=79
20160 On ch=4 n=69 v=79
20240 Off ch=4 n=69 v=64
20240 Off ch=4 n=66 v=64
20280 On ch=4 n=61 v=79
20360 Off ch=4 n=61 v=64
20400 On ch=4 n=66 v=79
20400 On ch=4 n=69 v=79
20480 Off ch=4 n=69 v=64
20480 Off ch=4 n=66 v=64
20520 On ch=4 n=66 v=79
20520 On ch=4 n=69 v=79
20720 Off ch=4 n=69 v=64
20720 Off ch=4 n=66 v=64
20760 On ch=4 n=61 v=79
20840 Off ch=4 n=61 v=64
20880 On ch=4 n=66 v=79
20880 On ch=4 n=69 v=79
20960 Off ch=4 n=69 v=64
20960 Off ch=4 n=66 v=64
21000 On ch=4 n=66 v=79
21000 On ch=4 n=69 v=79
21080 Off ch=4 n=69 v=64
21080 Off ch=4 n=66 v=64
21120 On ch=4 n=64 v=79
21120 On ch=4 n=68 v=79
21200 Off ch=4 n=68 v=64
21200 Off ch=4 n=64 v=64
21240 On ch=4 n=59 v=79
21320 Off ch=4 n=59 v=64
21360 On ch=4 n=64 v=79
21360 On ch=4 n=68 v=79
21440 Off ch=4 n=68 v=64
21440 Off ch=4 n=64 v=64
21480 On ch=4 n=64 v=79
21480 On ch=4 n=68 v=79
21680 Off ch=4 n=68 v=64
21680 Off ch=4 n=64 v=64
21720 On ch=4 n=59 v=79
21800 Off ch=4 n=59 v=64
21840 On ch=4 n=64 v=79
21840 On ch=4 n=68 v=79
21920 Off ch=4 n=68 v=64
21920 Off ch=4 n=64 v=64
21960 On ch=4 n=64 v=79
21960 On ch=4 n=68 v=79
22040 Off ch=4 n=68 v=64
22040 Off ch=4 n=64 v=64
22080 On ch=4 n=66 v=79
22080 On ch=4 n=69 v=79
22160 Off ch=4 n=69 v=64
22160 Off ch=4 n=66 v=64
22200 On ch=4 n=61 v=79
22280 Off ch=4 n=61 v=64
22320 On ch=4 n=66 v=79
22320 On ch=4 n=69 v=79
22400 Off ch=4 n=69 v=64
22400 Off ch=4 n=66 v=64
22440 On ch=4 n=66 v=79
22440 On ch=4 n=69 v=79
22640 Off ch=4 n=69 v=64
22640 Off ch=4 n=66 v=64
22680 On ch=4 n=61 v=79
22760 Off ch=4 n=61 v=64
22800 On ch=4 n=66 v=79
22800 On ch=4 n=69 v=79
22880 Off ch=4 n=69 v=64
22880 Off ch=4 n=66 v=64
22920 On ch=4 n=66 v=79
22920 On ch=4 n=69 v=79
23000 Off ch=4 n=69 v=64
23000 Off ch=4 n=66 v=64
23040 On ch=4 n=68 v=79
23040 On ch=4 n=71 v=79
23120 Off ch=4 n=71 v=64
23120 Off ch=4 n=68 v=64
23160 On ch=4 n=63 v=79
23240 Off ch=4 n=63 v=64
23280 On ch=4 n=68 v=79
23280 On ch=4 n=71 v=79
23360 Off ch=4 n=71 v=64
23360 Off ch=4 n=68 v=64
23400 On ch=4 n=68 v=79
23400 On ch=4 n=71 v=79
23600 Off ch=4 n=71 v=64
23600 Off ch=4 n=68 v=64
23640 On ch=4 n=63 v=79
23720 Off ch=4 n=63 v=64
23760 On ch=4 n=68 v=79
23760 On ch=4 n=71 v=79
23840 Off ch=4 n=71 v=64
23840 Off ch=4 n=68 v=64
23880 On ch=4 n=68 v=79
23880 On ch=4 n=71 v=79
23960 Off ch=4 n=71 v=64
23960 Off ch=4 n=68 v=64
24000 On ch=4 n=66 v=79
24000 On ch=4 n=69 v=79
24080 Off ch=4 n=69 v=64
24080 Off ch=4 n=66 v=64
24120 On ch=4 n=61 v=79
24200 Off ch=4 n=61 v=64
24240 On ch=4 n=66 v=79
24240 On ch=4 n=69 v=79
24320 Off ch=4 n=69 v=64
24320 Off ch=4 n=66 v=64
24360 On ch=4 n=66 v=79
24360 On ch=4 n=69 v=79
24560 Off ch=4 n=69 v=64
24560 Off ch=4 n=66 v=64
24600 On ch=4 n=61 v=79
24680 Off ch=4 n=61 v=64
24720 On ch=4 n=66 v=79
24720 On ch=4 n=69 v=79
24800 Off ch=4 n=69 v=64
24800 Off ch=4 n=66 v=64
24840 On ch=4 n=66 v=79
24840 On ch=4 n=69 v=79
24920 Off ch=4 n=69 v=64
24920 Off ch=4 n=66 v=64
24960 On ch=4 n=64 v=79
24960 On ch=4 n=68 v=79
25040 Off ch=4 n=68 v=64
25040 Off ch=4 n=64 v=64
25080 On ch=4 n=59 v=79
25160 Off ch=4 n=59 v=64
25200 On ch=4 n=64 v=79
25200 On ch=4 n=68 v=79
25280 Off ch=4 n=68 v=64
25280 Off ch=4 n=64 v=64
25320 On ch=4 n=64 v=79
25320 On ch=4 n=68 v=79
25520 Off ch=4 n=68 v=64
25520 Off ch=4 n=64 v=64
25560 On ch=4 n=59 v=79
25640 Off ch=4 n=59 v=64
25680 On ch=4 n=64 v=79
25680 On ch=4 n=68 v=79
25760 Off ch=4 n=68 v=64
25760 Off ch=4 n=64 v=64
25800 On ch=4 n=64 v=79
25800 On ch=4 n=68 v=79
25880 Off ch=4 n=68 v=64
25880 Off ch=4 n=64 v=64
25920 On ch=4 n=66 v=79
25920 On ch=4 n=69 v=79
26000 Off ch=4 n=69 v=64
26000 Off ch=4 n=66 v=64
26040 On ch=4 n=61 v=79
26120 Off ch=4 n=61 v=64
26160 On ch=4 n=66 v=79
26160 On ch=4 n=69 v=79
26240 Off ch=4 n=69 v=64
26240 Off ch=4 n=66 v=64
26280 On ch=4 n=66 v=79
26280 On ch=4 n=69 v=79
26480 Off ch=4 n=69 v=64
26480 Off ch=4 n=66 v=64
26520 On ch=4 n=61 v=79
26600 Off ch=4 n=61 v=64
26640 On ch=4 n=66 v=79
26640 On ch=4 n=69 v=79
26720 Off ch=4 n=69 v=64
26720 Off ch=4 n=66 v=64
26760 On ch=4 n=66 v=79
26760 On ch=4 n=69 v=79
26840 Off ch=4 n=69 v=64
26840 Off ch=4 n=66 v=64
26880 On ch=4 n=68 v=79
26880 On ch=4 n=71 v=79
26960 Off ch=4 n=71 v=64
26960 Off ch=4 n=68 v=64
27000 On ch=4 n=63 v=79
27080 Off ch=4 n=63 v=64
27120 On ch=4 n=68 v=79
27120 On ch=4 n=71 v=79
27200 Off ch=4 n=71 v=64
27200 Off ch=4 n=68 v=64
27240 On ch=4 n=68 v=79
27240 On ch=4 n=71 v=79
27440 Off ch=4 n=71 v=64
27440 Off ch=4 n=68 v=64
27480 On ch=4 n=63 v=79
27560 Off ch=4 n=63 v=64
27600 On ch=4 n=68 v=79
27600 On ch=4 n=71 v=79
27680 Off ch=4 n=71 v=64
27680 Off ch=4 n=68 v=64
27720 On ch=4 n=68 v=79
27720 On ch=4 n=71 v=79
27800 Off ch=4 n=71 v=64
27800 Off ch=4 n=68 v=64
27840 On ch=4 n=66 v=79
27840 On ch=4 n=69 v=79
27920 Off ch=4 n=69 v=64
27920 Off ch=4 n=66 v=64
27960 On ch=4 n=61 v=79
28040 Off ch=4 n=61 v=64
28080 On ch=4 n=66 v=79
28080 On ch=4 n=69 v=79
28160 Off ch=4 n=69 v=64
28160 Off ch=4 n=66 v=64
28200 On ch=4 n=66 v=79
28200 On ch=4 n=69 v=79
28400 Off ch=4 n=69 v=64
28400 Off ch=4 n=66 v=64
28440 On ch=4 n=61 v=79
28520 Off ch=4 n=61 v=64
28560 On ch=4 n=66 v=79
28560 On ch=4 n=69 v=79
28640 Off ch=4 n=69 v=64
28640 Off ch=4 n=66 v=64
28680 On ch=4 n=66 v=79
28680 On ch=4 n=69 v=79
28760 Off ch=4 n=69 v=64
28760 Off ch=4 n=66 v=64
28800 On ch=4 n=66 v=79
28800 On ch=4 n=69 v=79
28880 Off ch=4 n=69 v=64
28880 Off ch=4 n=66 v=64
28920 On ch=4 n=61 v=79
29000 Off ch=4 n=61 v=64
29040 On ch=4 n=66 v=79
29040 On ch=4 n=69 v=79
29120 Off ch=4 n=69 v=64
29120 Off ch=4 n=66 v=64
29160 On ch=4 n=66 v=79
29160 On ch=4 n=69 v=79
29360 Off ch=4 n=69 v=64
29360 Off ch=4 n=66 v=64
29400 On ch=4 n=61 v=79
29480 Off ch=4 n=61 v=64
29520 On ch=4 n=66 v=79
29520 On ch=4 n=69 v=79
29600 Off ch=4 n=69 v=64
29600 Off ch=4 n=66 v=64
29640 On ch=4 n=66 v=79
29640 On ch=4 n=69 v=79
29720 Off ch=4 n=69 v=64
29720 Off ch=4 n=66 v=64
29760 On ch=4 n=66 v=79
29760 On ch=4 n=69 v=79
29840 Off ch=4 n=69 v=64
29840 Off ch=4 n=66 v=64
29880 On ch=4 n=61 v=79
29960 Off ch=4 n=61 v=64
30000 On ch=4 n=66 v=79
30000 On ch=4 n=69 v=79
30080 Off ch=4 n=69 v=64
30080 Off ch=4 n=66 v=64
30120 On ch=4 n=66 v=79
30120 On ch=4 n=69 v=79
30320 Off ch=4 n=69 v=64
30320 Off ch=4 n=66 v=64
30360 On ch=4 n=61 v=79
30440 Off ch=4 n=61 v=64
30480 On ch=4 n=66 v=79
30480 On ch=4 n=69 v=79
30560 Off ch=4 n=69 v=64
30560 Off ch=4 n=66 v=64
30600 On ch=4 n=66 v=79
30600 On ch=4 n=69 v=79
30680 Off ch=4 n=69 v=64
30680 Off ch=4 n=66 v=64
30720 On ch=4 n=66 v=79
30720 On ch=4 n=69 v=79
30800 Off ch=4 n=69 v=64
30800 Off ch=4 n=66 v=64
30840 On ch=4 n=61 v=79
30920 Off ch=4 n=61 v=64
30960 On ch=4 n=66 v=79
30960 On ch=4 n=69 v=79
31040 Off ch=4 n=69 v=64
31040 Off ch=4 n=66 v=64
31080 On ch=4 n=66 v=79
31080 On ch=4 n=69 v=79
31280 Off ch=4 n=69 v=64
31280 Off ch=4 n=66 v=64
31320 On ch=4 n=61 v=79
31400 Off ch=4 n=61 v=64
31440 On ch=4 n=66 v=79
31440 On ch=4 n=69 v=79
31520 Off ch=4 n=69 v=64
31520 Off ch=4 n=66 v=64
31560 On ch=4 n=66 v=79
31560 On ch=4 n=69 v=79
31640 Off ch=4 n=69 v=64
31640 Off ch=4 n=66 v=64
31680 On ch=4 n=64 v=79
31680 On ch=4 n=68 v=79
31760 Off ch=4 n=68 v=64
31760 Off ch=4 n=64 v=64
31800 On ch=4 n=59 v=79
31880 Off ch=4 n=59 v=64
31920 On ch=4 n=64 v=79
31920 On ch=4 n=68 v=79
32000 Off ch=4 n=68 v=64
32000 Off ch=4 n=64 v=64
32040 On ch=4 n=64 v=79
32040 On ch=4 n=68 v=79
32240 Off ch=4 n=68 v=64
32240 Off ch=4 n=64 v=64
32280 On ch=4 n=59 v=79
32360 Off ch=4 n=59 v=64
32400 On ch=4 n=64 v=79
32400 On ch=4 n=68 v=79
32480 Off ch=4 n=68 v=64
32480 Off ch=4 n=64 v=64
32520 On ch=4 n=64 v=79
32520 On ch=4 n=68 v=79
32600 Off ch=4 n=68 v=64
32600 Off ch=4 n=64 v=64
32640 On ch=4 n=66 v=79
32640 On ch=4 n=69 v=79
32720 Off ch=4 n=69 v=64
32720 Off ch=4 n=66 v=64
32760 On ch=4 n=61 v=79
32840 Off ch=4 n=61 v=64
32880 On ch=4 n=66 v=79
32880 On ch=4 n=69 v=79
32960 Off ch=4 n=69 v=64
32960 Off ch=4 n=66 v=64
33000 On ch=4 n=66 v=79
33000 On ch=4 n=69 v=79
33200 Off ch=4 n=69 v=64
33200 Off ch=4 n=66 v=64
33240 On ch=4 n=61 v=79
33320 Off ch=4 n=61 v=64
33360 On ch=4 n=66 v=79
33360 On ch=4 n=69 v=79
33440 Off ch=4 n=69 v=64
33440 Off ch=4 n=66 v=64
33480 On ch=4 n=66 v=79
33480 On ch=4 n=69 v=79
33560 Off ch=4 n=69 v=64
33560 Off ch=4 n=66 v=64
33600 On ch=4 n=68 v=79
33600 On ch=4 n=71 v=79
33680 Off ch=4 n=71 v=64
33680 Off ch=4 n=68 v=64
33720 On ch=4 n=63 v=79
33800 Off ch=4 n=63 v=64
33840 On ch=4 n=68 v=79
33840 On ch=4 n=71 v=79
33920 Off ch=4 n=71 v=64
33920 Off ch=4 n=68 v=64
33960 On ch=4 n=68 v=79
33960 On ch=4 n=71 v=79
34040 Off ch=4 n=71 v=64
34040 Off ch=4 n=68 v=64
34080 On ch=4 n=68 v=79
34080 On ch=4 n=71 v=79
34160 Off ch=4 n=71 v=64
34160 Off ch=4 n=68 v=64
34200 On ch=4 n=63 v=79
34280 Off ch=4 n=63 v=64
34320 On ch=4 n=68 v=79
34320 On ch=4 n=71 v=79
34400 Off ch=4 n=71 v=64
34400 Off ch=4 n=68 v=64
34440 On ch=4 n=68 v=79
34440 On ch=4 n=71 v=79
34520 Off ch=4 n=71 v=64
34520 Off ch=4 n=68 v=64
34560 On ch=4 n=66 v=79
34560 On ch=4 n=69 v=79
34640 Off ch=4 n=69 v=64
34640 Off ch=4 n=66 v=64
34680 On ch=4 n=61 v=79
34760 Off ch=4 n=61 v=64
34800 On ch=4 n=66 v=79
34800 On ch=4 n=69 v=79
34880 Off ch=4 n=69 v=64
34880 Off ch=4 n=66 v=64
34920 On ch=4 n=66 v=79
34920 On ch=4 n=69 v=79
35120 Off ch=4 n=69 v=64
35120 Off ch=4 n=66 v=64
35160 On ch=4 n=61 v=79
35240 Off ch=4 n=61 v=64
35280 On ch=4 n=66 v=79
35280 On ch=4 n=69 v=79
35360 Off ch=4 n=69 v=64
35360 Off ch=4 n=66 v=64
35400 On ch=4 n=66 v=79
35400 On ch=4 n=69 v=79
35480 Off ch=4 n=69 v=64
35480 Off ch=4 n=66 v=64
35520 On ch=4 n=64 v=79
35520 On ch=4 n=68 v=79
35600 Off ch=4 n=68 v=64
35600 Off ch=4 n=64 v=64
35640 On ch=4 n=59 v=79
35720 Off ch=4 n=59 v=64
35760 On ch=4 n=64 v=79
35760 On ch=4 n=68 v=79
35840 Off ch=4 n=68 v=64
35840 Off ch=4 n=64 v=64
35880 On ch=4 n=64 v=79
35880 On ch=4 n=68 v=79
36080 Off ch=4 n=68 v=64
36080 Off ch=4 n=64 v=64
36120 On ch=4 n=59 v=79
36200 Off ch=4 n=59 v=64
36240 On ch=4 n=64 v=79
36240 On ch=4 n=68 v=79
36320 Off ch=4 n=68 v=64
36320 Off ch=4 n=64 v=64
36360 On ch=4 n=64 v=79
36360 On ch=4 n=68 v=79
36440 Off ch=4 n=68 v=64
36440 Off ch=4 n=64 v=64
36480 On ch=4 n=66 v=79
36480 On ch=4 n=69 v=79
36560 Off ch=4 n=69 v=64
36560 Off ch=4 n=66 v=64
36600 On ch=4 n=61 v=79
36680 Off ch=4 n=61 v=64
36720 On ch=4 n=66 v=79
36720 On ch=4 n=69 v=79
36800 Off ch=4 n=69 v=64
36800 Off ch=4 n=66 v=64
36840 On ch=4 n=66 v=79
36840 On ch=4 n=69 v=79
37040 Off ch=4 n=69 v=64
37040 Off ch=4 n=66 v=64
37080 On ch=4 n=61 v=79
37160 Off ch=4 n=61 v=64
37200 On ch=4 n=66 v=79
37200 On ch=4 n=69 v=79
37280 Off ch=4 n=69 v=64
37280 Off ch=4 n=66 v=64
37320 On ch=4 n=66 v=79
37320 On ch=4 n=69 v=79
37400 Off ch=4 n=69 v=64
37400 Off ch=4 n=66 v=64
37440 On ch=4 n=68 v=79
37440 On ch=4 n=71 v=79
37520 Off ch=4 n=71 v=64
37520 Off ch=4 n=68 v=64
37560 On ch=4 n=63 v=79
37640 Off ch=4 n=63 v=64
37680 On ch=4 n=68 v=79
37680 On ch=4 n=71 v=79
37760 Off ch=4 n=71 v=64
37760 Off ch=4 n=68 v=64
37800 On ch=4 n=68 v=79
37800 On ch=4 n=71 v=79
38000 Off ch=4 n=71 v=64
38000 Off ch=4 n=68 v=64
38040 On ch=4 n=63 v=79
38120 Off ch=4 n=63 v=64
38160 On ch=4 n=68 v=79
38160 On ch=4 n=71 v=79
38240 Off ch=4 n=71 v=64
38240 Off ch=4 n=68 v=64
38280 On ch=4 n=68 v=79
38280 On ch=4 n=71 v=79
38360 Off ch=4 n=71 v=64
38360 Off ch=4 n=68 v=64
38400 On ch=4 n=66 v=79
38400 On ch=4 n=69 v=79
38480 Off ch=4 n=69 v=64
38480 Off ch=4 n=66 v=64
38520 On ch=4 n=61 v=79
38600 Off ch=4 n=61 v=64
38640 On ch=4 n=66 v=79
38640 On ch=4 n=69 v=79
38720 Off ch=4 n=69 v=64
38720 Off ch=4 n=66 v=64
38760 On ch=4 n=66 v=79
38760 On ch=4 n=69 v=79
38960 Off ch=4 n=69 v=64
38960 Off ch=4 n=66 v=64
39000 On ch=4 n=61 v=79
39080 Off ch=4 n=61 v=64
39120 On ch=4 n=66 v=79
39120 On ch=4 n=69 v=79
39200 Off ch=4 n=69 v=64
39200 Off ch=4 n=66 v=64
39240 On ch=4 n=68 v=79
39240 On ch=4 n=69 v=79
39320 Off ch=4 n=69 v=64
39320 Off ch=4 n=68 v=64
39360 On ch=4 n=64 v=79
39360 On ch=4 n=68 v=79
39440 Off ch=4 n=68 v=64
39440 Off ch=4 n=64 v=64
39480 On ch=4 n=59 v=79
39560 Off ch=4 n=59 v=64
39600 On ch=4 n=64 v=79
39600 On ch=4 n=68 v=79
39680 Off ch=4 n=68 v=64
39680 Off ch=4 n=64 v=64
39720 On ch=4 n=64 v=79
39720 On ch=4 n=68 v=79
39920 Off ch=4 n=68 v=64
39920 Off ch=4 n=64 v=64
39960 On ch=4 n=59 v=79
40040 Off ch=4 n=59 v=64
40080 On ch=4 n=64 v=79
40080 On ch=4 n=68 v=79
40160 Off ch=4 n=68 v=64
40160 Off ch=4 n=64 v=64
40200 On ch=4 n=64 v=79
40200 On ch=4 n=68 v=79
40280 Off ch=4 n=68 v=64
40280 Off ch=4 n=64 v=64
40320 On ch=4 n=66 v=79
40320 On ch=4 n=69 v=79
40400 Off ch=4 n=69 v=64
40400 Off ch=4 n=66 v=64
40440 On ch=4 n=61 v=79
40520 Off ch=4 n=61 v=64
40560 On ch=4 n=66 v=79
40560 On ch=4 n=69 v=79
40640 Off ch=4 n=69 v=64
40640 Off ch=4 n=66 v=64
40680 On ch=4 n=66 v=79
40680 On ch=4 n=69 v=79
40880 Off ch=4 n=69 v=64
40880 Off ch=4 n=66 v=64
40920 On ch=4 n=61 v=79
41000 Off ch=4 n=61 v=64
41040 On ch=4 n=66 v=79
41040 On ch=4 n=69 v=79
41120 Off ch=4 n=69 v=64
41120 Off ch=4 n=66 v=64
41160 On ch=4 n=66 v=79
41160 On ch=4 n=69 v=79
41240 Off ch=4 n=69 v=64
41240 Off ch=4 n=66 v=64
41280 On ch=4 n=68 v=79
41280 On ch=4 n=71 v=79
41360 Off ch=4 n=71 v=64
41360 Off ch=4 n=68 v=64
41400 On ch=4 n=63 v=79
41480 Off ch=4 n=63 v=64
41520 On ch=4 n=68 v=79
41520 On ch=4 n=71 v=79
41600 Off ch=4 n=71 v=64
41600 Off ch=4 n=68 v=64
41640 On ch=4 n=68 v=79
41640 On ch=4 n=71 v=79
41840 Off ch=4 n=71 v=64
41840 Off ch=4 n=68 v=64
41880 On ch=4 n=63 v=79
41960 Off ch=4 n=63 v=64
42000 On ch=4 n=68 v=79
42000 On ch=4 n=71 v=79
42080 Off ch=4 n=71 v=64
42080 Off ch=4 n=68 v=64
42120 On ch=4 n=68 v=79
42120 On ch=4 n=71 v=79
42200 Off ch=4 n=71 v=64
42200 Off ch=4 n=68 v=64
42240 On ch=4 n=66 v=79
42240 On ch=4 n=69 v=79
42320 Off ch=4 n=69 v=64
42320 Off ch=4 n=66 v=64
42360 On ch=4 n=61 v=79
42440 Off ch=4 n=61 v=64
42480 On ch=4 n=66 v=79
42480 On ch=4 n=69 v=79
42560 Off ch=4 n=69 v=64
42560 Off ch=4 n=66 v=64
42600 On ch=4 n=66 v=79
42600 On ch=4 n=69 v=79
42800 Off ch=4 n=69 v=64
42800 Off ch=4 n=66 v=64
42840 On ch=4 n=61 v=79
42920 Off ch=4 n=61 v=64
42960 On ch=4 n=66 v=79
42960 On ch=4 n=69 v=79
43120 Off ch=4 n=69 v=64
43120 Off ch=4 n=66 v=64
43440 On ch=4 n=80 v=79
43440 On ch=4 n=76 v=79
43440 On ch=4 n=83 v=79
43995 Off ch=4 n=83 v=64
43995 Off ch=4 n=76 v=64
43995 Off ch=4 n=80 v=64
44400 On ch=4 n=78 v=79
44400 On ch=4 n=73 v=79
44400 On ch=4 n=81 v=79
44955 Off ch=4 n=81 v=64
44955 Off ch=4 n=73 v=64
44955 Off ch=4 n=78 v=64
45120 On ch=4 n=75 v=79
45120 On ch=4 n=71 v=79
45120 On ch=4 n=80 v=79
45755 Off ch=4 n=80 v=64
45755 Off ch=4 n=71 v=64
45755 Off ch=4 n=75 v=64
46320 On ch=4 n=78 v=79
46320 On ch=4 n=73 v=79
46320 On ch=4 n=81 v=79
46400 Off ch=4 n=73 v=64
46400 Off ch=4 n=78 v=64
46440 Off ch=4 n=81 v=64
46440 On ch=4 n=80 v=79
46520 Off ch=4 n=80 v=64
46560 On ch=4 n=78 v=79
46560 On ch=4 n=73 v=79
46560 On ch=4 n=81 v=79
46640 Off ch=4 n=81 v=64
46640 Off ch=4 n=73 v=64
46640 Off ch=4 n=78 v=64
46680 On ch=4 n=81 v=79
46680 On ch=4 n=76 v=79
46680 On ch=4 n=85 v=79
46960 Off ch=4 n=85 v=64
46960 Off ch=4 n=76 v=64
46960 Off ch=4 n=81 v=64
47280 On ch=4 n=80 v=79
47280 On ch=4 n=76 v=79
47280 On ch=4 n=83 v=79
47835 Off ch=4 n=83 v=64
47835 Off ch=4 n=76 v=64
47835 Off ch=4 n=80 v=64
48240 On ch=4 n=78 v=79
48240 On ch=4 n=73 v=79
48240 On ch=4 n=81 v=79
48795 Off ch=4 n=81 v=64
48795 Off ch=4 n=73 v=64
48795 Off ch=4 n=78 v=64
48960 On ch=4 n=75 v=79
48960 On ch=4 n=71 v=79
48960 On ch=4 n=80 v=79
49595 Off ch=4 n=80 v=64
49595 Off ch=4 n=71 v=64
49595 Off ch=4 n=75 v=64
50160 On ch=4 n=78 v=79
50160 On ch=4 n=73 v=79
50160 On ch=4 n=81 v=79
50240 Off ch=4 n=73 v=64
50240 Off ch=4 n=78 v=64
50280 Off ch=4 n=81 v=64
50280 On ch=4 n=80 v=79
50360 Off ch=4 n=80 v=64
50400 On ch=4 n=78 v=79
50400 On ch=4 n=73 v=79
50400 On ch=4 n=81 v=79
50480 Off ch=4 n=81 v=64
50480 Off ch=4 n=73 v=64
50480 Off ch=4 n=78 v=64
50520 On ch=4 n=81 v=79
50520 On ch=4 n=76 v=79
50520 On ch=4 n=85 v=79
50800 Off ch=4 n=85 v=64
50800 Off ch=4 n=76 v=64
50800 Off ch=4 n=81 v=64
51120 On ch=4 n=80 v=79
51120 On ch=4 n=76 v=79
51120 On ch=4 n=83 v=79
51675 Off ch=4 n=83 v=64
51675 Off ch=4 n=76 v=64
51675 Off ch=4 n=80 v=64
52080 On ch=4 n=78 v=79
52080 On ch=4 n=73 v=79
52080 On ch=4 n=81 v=79
52635 Off ch=4 n=81 v=64
52635 Off ch=4 n=73 v=64
52635 Off ch=4 n=78 v=64
52800 On ch=4 n=75 v=79
52800 On ch=4 n=71 v=79
52800 On ch=4 n=80 v=79
53435 Off ch=4 n=80 v=64
53435 Off ch=4 n=71 v=64
53435 Off ch=4 n=75 v=64
54000 On ch=4 n=78 v=79
54000 On ch=4 n=73 v=79
54000 On ch=4 n=81 v=79
54080 Off ch=4 n=73 v=64
54080 Off ch=4 n=78 v=64
54120 Off ch=4 n=81 v=64
54120 On ch=4 n=80 v=79
54200 Off ch=4 n=80 v=64
54240 On ch=4 n=78 v=79
54240 On ch=4 n=73 v=79
54240 On ch=4 n=81 v=79
54320 Off ch=4 n=81 v=64
54320 Off ch=4 n=73 v=64
54320 Off ch=4 n=78 v=64
54360 On ch=4 n=81 v=79
54360 On ch=4 n=76 v=79
54360 On ch=4 n=85 v=79
54640 Off ch=4 n=85 v=64
54640 Off ch=4 n=76 v=64
54640 Off ch=4 n=81 v=64
54960 On ch=4 n=80 v=79
54960 On ch=4 n=76 v=79
54960 On ch=4 n=83 v=79
55515 Off ch=4 n=83 v=64
55515 Off ch=4 n=76 v=64
55515 Off ch=4 n=80 v=64
55920 On ch=4 n=78 v=79
55920 On ch=4 n=73 v=79
55920 On ch=4 n=81 v=79
56475 Off ch=4 n=81 v=64
56475 Off ch=4 n=73 v=64
56475 Off ch=4 n=78 v=64
56640 On ch=4 n=75 v=79
56640 On ch=4 n=71 v=79
56640 On ch=4 n=80 v=79
57275 Off ch=4 n=80 v=64
57275 Off ch=4 n=71 v=64
57275 Off ch=4 n=75 v=64
57840 On ch=4 n=78 v=79
57840 On ch=4 n=73 v=79
57840 On ch=4 n=81 v=79
57920 Off ch=4 n=73 v=64
57920 Off ch=4 n=78 v=64
57960 Off ch=4 n=81 v=64
57960 On ch=4 n=80 v=79
58040 Off ch=4 n=80 v=64
58080 On ch=4 n=78 v=79
58080 On ch=4 n=73 v=79
58080 On ch=4 n=81 v=79
58160 Off ch=4 n=81 v=64
58160 Off ch=4 n=73 v=64
58160 Off ch=4 n=78 v=64
58200 On ch=4 n=81 v=79
58200 On ch=4 n=76 v=79
58200 On ch=4 n=85 v=79
58480 Off ch=4 n=85 v=64
58480 Off ch=4 n=76 v=64
58480 Off ch=4 n=81 v=64
58560 On ch=4 n=78 v=79
58560 On ch=4 n=73 v=79
58560 On ch=4 n=81 v=79
58640 Off ch=4 n=73 v=64
58640 Off ch=4 n=78 v=64
58680 Off ch=4 n=81 v=64
58680 On ch=4 n=80 v=79
58760 Off ch=4 n=80 v=64
58800 On ch=4 n=78 v=79
58800 On ch=4 n=73 v=79
58800 On ch=4 n=81 v=79
58880 Off ch=4 n=81 v=64
58880 Off ch=4 n=73 v=64
58880 Off ch=4 n=78 v=64
58920 On ch=4 n=81 v=79
58920 On ch=4 n=76 v=79
58920 On ch=4 n=85 v=79
59000 Off ch=4 n=76 v=64
59040 On ch=4 n=76 v=79
59355 Off ch=4 n=76 v=64
59355 Off ch=4 n=85 v=64
59355 Off ch=4 n=81 v=64
59520 On ch=4 n=66 v=79
59520 On ch=4 n=69 v=79
59600 Off ch=4 n=69 v=64
59600 Off ch=4 n=66 v=64
59640 On ch=4 n=61 v=79
59720 Off ch=4 n=61 v=64
59760 On ch=4 n=66 v=79
59760 On ch=4 n=69 v=79
59840 Off ch=4 n=69 v=64
59840 Off ch=4 n=66 v=64
59880 On ch=4 n=66 v=79
59880 On ch=4 n=69 v=79
60080 Off ch=4 n=69 v=64
60080 Off ch=4 n=66 v=64
60120 On ch=4 n=61 v=79
60200 Off ch=4 n=61 v=64
60240 On ch=4 n=66 v=79
60240 On ch=4 n=69 v=79
60320 Off ch=4 n=69 v=64
60320 Off ch=4 n=66 v=64
60360 On ch=4 n=66 v=79
60360 On ch=4 n=69 v=79
60440 Off ch=4 n=69 v=64
60440 Off ch=4 n=66 v=64
60480 On ch=4 n=66 v=79
60480 On ch=4 n=69 v=79
60560 Off ch=4 n=69 v=64
60560 Off ch=4 n=66 v=64
60600 On ch=4 n=61 v=79
60680 Off ch=4 n=61 v=64
60720 On ch=4 n=66 v=79
60720 On ch=4 n=69 v=79
60800 Off ch=4 n=69 v=64
60800 Off ch=4 n=66 v=64
60840 On ch=4 n=66 v=79
60840 On ch=4 n=69 v=79
61040 Off ch=4 n=69 v=64
61040 Off ch=4 n=66 v=64
61080 On ch=4 n=61 v=79
61160 Off ch=4 n=61 v=64
61200 On ch=4 n=66 v=79
61200 On ch=4 n=69 v=79
61280 Off ch=4 n=69 v=64
61280 Off ch=4 n=66 v=64
61320 On ch=4 n=66 v=79
61320 On ch=4 n=69 v=79
61400 Off ch=4 n=69 v=64
61400 Off ch=4 n=66 v=64
61440 On ch=4 n=64 v=79
61440 On ch=4 n=68 v=79
61520 Off ch=4 n=68 v=64
61520 Off ch=4 n=64 v=64
61560 On ch=4 n=59 v=79
61640 Off ch=4 n=59 v=64
61680 On ch=4 n=64 v=79
61680 On ch=4 n=68 v=79
61760 Off ch=4 n=68 v=64
61760 Off ch=4 n=64 v=64
61800 On ch=4 n=64 v=79
61800 On ch=4 n=68 v=79
62000 Off ch=4 n=68 v=64
62000 Off ch=4 n=64 v=64
62040 On ch=4 n=59 v=79
62120 Off ch=4 n=59 v=64
62160 On ch=4 n=64 v=79
62160 On ch=4 n=68 v=79
62240 Off ch=4 n=68 v=64
62240 Off ch=4 n=64 v=64
62280 On ch=4 n=64 v=79
62280 On ch=4 n=68 v=79
62360 Off ch=4 n=68 v=64
62360 Off ch=4 n=64 v=64
62400 On ch=4 n=66 v=79
62400 On ch=4 n=69 v=79
62480 Off ch=4 n=69 v=64
62480 Off ch=4 n=66 v=64
62520 On ch=4 n=61 v=79
62600 Off ch=4 n=61 v=64
62640 On ch=4 n=66 v=79
62640 On ch=4 n=69 v=79
62720 Off ch=4 n=69 v=64
62720 Off ch=4 n=66 v=64
62760 On ch=4 n=66 v=79
62760 On ch=4 n=69 v=79
62960 Off ch=4 n=69 v=64
62960 Off ch=4 n=66 v=64
63000 On ch=4 n=61 v=79
63080 Off ch=4 n=61 v=64
63120 On ch=4 n=66 v=79
63120 On ch=4 n=69 v=79
63200 Off ch=4 n=69 v=64
63200 Off ch=4 n=66 v=64
63240 On ch=4 n=66 v=79
63240 On ch=4 n=69 v=79
63320 Off ch=4 n=69 v=64
63320 Off ch=4 n=66 v=64
63360 On ch=4 n=68 v=79
63360 On ch=4 n=71 v=79
63440 Off ch=4 n=71 v=64
63440 Off ch=4 n=68 v=64
63480 On ch=4 n=64 v=79
63560 Off ch=4 n=64 v=64
63600 On ch=4 n=68 v=79
63600 On ch=4 n=71 v=79
63680 Off ch=4 n=71 v=64
63680 Off ch=4 n=68 v=64
63720 On ch=4 n=68 v=79
63720 On ch=4 n=71 v=79
63920 Off ch=4 n=71 v=64
63920 Off ch=4 n=68 v=64
63960 On ch=4 n=63 v=79
64040 Off ch=4 n=63 v=64
64080 On ch=4 n=68 v=79
64080 On ch=4 n=71 v=79
64160 Off ch=4 n=71 v=64
64160 Off ch=4 n=68 v=64
64200 On ch=4 n=68 v=79
64200 On ch=4 n=71 v=79
64280 Off ch=4 n=71 v=64
64280 Off ch=4 n=68 v=64
64320 On ch=4 n=66 v=79
64320 On ch=4 n=69 v=79
64400 Off ch=4 n=69 v=64
64400 Off ch=4 n=66 v=64
64440 On ch=4 n=61 v=79
64520 Off ch=4 n=61 v=64
64560 On ch=4 n=66 v=79
64560 On ch=4 n=69 v=79
64640 Off ch=4 n=69 v=64
64640 Off ch=4 n=66 v=64
64680 On ch=4 n=66 v=79
64680 On ch=4 n=69 v=79
64880 Off ch=4 n=69 v=64
64880 Off ch=4 n=66 v=64
64920 On ch=4 n=61 v=79
65000 Off ch=4 n=61 v=64
65040 On ch=4 n=66 v=79
65040 On ch=4 n=69 v=79
65200 Off ch=4 n=69 v=64
65200 Off ch=4 n=66 v=64
65280 On ch=4 n=64 v=79
65280 On ch=4 n=68 v=79
65360 Off ch=4 n=68 v=64
65360 Off ch=4 n=64 v=64
65400 On ch=4 n=59 v=79
65480 Off ch=4 n=59 v=64
65520 On ch=4 n=64 v=79
65520 On ch=4 n=68 v=79
65600 Off ch=4 n=68 v=64
65600 Off ch=4 n=64 v=64
65640 On ch=4 n=64 v=79
65640 On ch=4 n=68 v=79
65840 Off ch=4 n=68 v=64
65840 Off ch=4 n=64 v=64
65880 On ch=4 n=59 v=79
65960 Off ch=4 n=59 v=64
66000 On ch=4 n=64 v=79
66000 On ch=4 n=68 v=79
66080 Off ch=4 n=68 v=64
66080 Off ch=4 n=64 v=64
66120 On ch=4 n=64 v=79
66120 On ch=4 n=68 v=79
66200 Off ch=4 n=68 v=64
66200 Off ch=4 n=64 v=64
66240 On ch=4 n=66 v=79
66240 On ch=4 n=69 v=79
66320 Off ch=4 n=69 v=64
66320 Off ch=4 n=66 v=64
66360 On ch=4 n=61 v=79
66440 Off ch=4 n=61 v=64
66480 On ch=4 n=66 v=79
66480 On ch=4 n=69 v=79
66560 Off ch=4 n=69 v=64
66560 Off ch=4 n=66 v=64
66600 On ch=4 n=66 v=79
66600 On ch=4 n=69 v=79
66800 Off ch=4 n=69 v=64
66800 Off ch=4 n=66 v=64
66840 On ch=4 n=61 v=79
66920 Off ch=4 n=61 v=64
66960 On ch=4 n=66 v=79
66960 On ch=4 n=69 v=79
67040 Off ch=4 n=69 v=64
67040 Off ch=4 n=66 v=64
67080 On ch=4 n=66 v=79
67080 On ch=4 n=69 v=79
67160 Off ch=4 n=69 v=64
67160 Off ch=4 n=66 v=64
67200 On ch=4 n=68 v=79
67200 On ch=4 n=71 v=79
67280 Off ch=4 n=71 v=64
67280 Off ch=4 n=68 v=64
67320 On ch=4 n=64 v=79
67400 Off ch=4 n=64 v=64
67440 On ch=4 n=68 v=79
67440 On ch=4 n=71 v=79
67520 Off ch=4 n=71 v=64
67520 Off ch=4 n=68 v=64
67560 On ch=4 n=68 v=79
67560 On ch=4 n=71 v=79
67760 Off ch=4 n=71 v=64
67760 Off ch=4 n=68 v=64
67800 On ch=4 n=63 v=79
67880 Off ch=4 n=63 v=64
67920 On ch=4 n=68 v=79
67920 On ch=4 n=71 v=79
68000 Off ch=4 n=71 v=64
68000 Off ch=4 n=68 v=64
68040 On ch=4 n=68 v=79
68040 On ch=4 n=71 v=79
68120 Off ch=4 n=71 v=64
68120 Off ch=4 n=68 v=64
68160 On ch=4 n=66 v=79
68160 On ch=4 n=69 v=79
68240 Off ch=4 n=69 v=64
68240 Off ch=4 n=66 v=64
68280 On ch=4 n=61 v=79
68360 Off ch=4 n=61 v=64
68400 On ch=4 n=66 v=79
68400 On ch=4 n=69 v=79
68480 Off ch=4 n=69 v=64
68480 Off ch=4 n=66 v=64
68520 On ch=4 n=66 v=79
68520 On ch=4 n=69 v=79
68720 Off ch=4 n=69 v=64
68720 Off ch=4 n=66 v=64
68760 On ch=4 n=61 v=79
68840 Off ch=4 n=61 v=64
68880 On ch=4 n=66 v=79
68880 On ch=4 n=69 v=79
69040 Off ch=4 n=69 v=64
69040 Off ch=4 n=66 v=64
69360 On ch=4 n=80 v=79
69360 On ch=4 n=76 v=79
69360 On ch=4 n=83 v=79
69915 Off ch=4 n=83 v=64
69915 Off ch=4 n=76 v=64
69915 Off ch=4 n=80 v=64
70320 On ch=4 n=81 v=79
70320 On ch=4 n=73 v=79
70320 On ch=4 n=85 v=79
70875 Off ch=4 n=85 v=64
70875 Off ch=4 n=73 v=64
70875 Off ch=4 n=81 v=64
71040 On ch=4 n=71 v=79
71040 On ch=4 n=75 v=79
71040 On ch=4 n=80 v=79
71675 Off ch=4 n=80 v=64
71675 Off ch=4 n=75 v=64
71675 Off ch=4 n=71 v=64
72240 On ch=4 n=78 v=79
72240 On ch=4 n=73 v=79
72240 On ch=4 n=81 v=79
72320 Off ch=4 n=73 v=64
72320 Off ch=4 n=78 v=64
72360 Off ch=4 n=81 v=64
72360 On ch=4 n=80 v=79
72440 Off ch=4 n=80 v=64
72480 On ch=4 n=78 v=79
72480 On ch=4 n=73 v=79
72480 On ch=4 n=81 v=79
72560 Off ch=4 n=81 v=64
72560 Off ch=4 n=73 v=64
72560 Off ch=4 n=78 v=64
72600 On ch=4 n=81 v=79
72600 On ch=4 n=76 v=79
72600 On ch=4 n=85 v=79
72880 Off ch=4 n=85 v=64
72880 Off ch=4 n=76 v=64
72880 Off ch=4 n=81 v=64
73200 On ch=4 n=80 v=79
73200 On ch=4 n=76 v=79
73200 On ch=4 n=83 v=79
73755 Off ch=4 n=83 v=64
73755 Off ch=4 n=76 v=64
73755 Off ch=4 n=80 v=64
74160 On ch=4 n=80 v=79
74160 On ch=4 n=76 v=79
74160 On ch=4 n=83 v=79
74715 Off ch=4 n=83 v=64
74715 Off ch=4 n=76 v=64
74715 Off ch=4 n=80 v=64
74880 On ch=4 n=75 v=79
74880 On ch=4 n=71 v=79
74880 On ch=4 n=80 v=79
75515 Off ch=4 n=80 v=64
75515 Off ch=4 n=71 v=64
75515 Off ch=4 n=75 v=64
76080 On ch=4 n=78 v=79
76080 On ch=4 n=73 v=79
76080 On ch=4 n=81 v=79
76160 Off ch=4 n=73 v=64
76160 Off ch=4 n=78 v=64
76200 Off ch=4 n=81 v=64
76200 On ch=4 n=80 v=79
76280 Off ch=4 n=80 v=64
76320 On ch=4 n=78 v=79
76320 On ch=4 n=73 v=79
76320 On ch=4 n=81 v=79
76400 Off ch=4 n=81 v=64
76400 Off ch=4 n=73 v=64
76400 Off ch=4 n=78 v=64
76440 On ch=4 n=81 v=79
76440 On ch=4 n=76 v=79
76440 On ch=4 n=85 v=79
76720 Off ch=4 n=85 v=64
76720 Off ch=4 n=76 v=64
76720 Off ch=4 n=81 v=64
77040 On ch=4 n=80 v=79
77040 On ch=4 n=76 v=79
77040 On ch=4 n=83 v=79
77595 Off ch=4 n=83 v=64
77595 Off ch=4 n=76 v=64
77595 Off ch=4 n=80 v=64
78000 On ch=4 n=78 v=79
78000 On ch=4 n=73 v=79
78000 On ch=4 n=81 v=79
78475 Off ch=4 n=81 v=64
78475 Off ch=4 n=73 v=64
78475 Off ch=4 n=78 v=64
78720 On ch=4 n=75 v=79
78720 On ch=4 n=71 v=79
78720 On ch=4 n=80 v=79
79355 Off ch=4 n=80 v=64
79355 Off ch=4 n=71 v=64
79355 Off ch=4 n=75 v=64
79920 On ch=4 n=78 v=79
79920 On ch=4 n=73 v=79
79920 On ch=4 n=81 v=79
80000 Off ch=4 n=73 v=64
80000 Off ch=4 n=78 v=64
80040 Off ch=4 n=81 v=64
80040 On ch=4 n=80 v=79
80120 Off ch=4 n=80 v=64
80160 On ch=4 n=78 v=79
80160 On ch=4 n=73 v=79
80160 On ch=4 n=81 v=79
80240 Off ch=4 n=81 v=64
80240 Off ch=4 n=73 v=64
80240 Off ch=4 n=78 v=64
80280 On ch=4 n=81 v=79
80280 On ch=4 n=76 v=79
80280 On ch=4 n=85 v=79
80560 Off ch=4 n=85 v=64
80560 Off ch=4 n=76 v=64
80560 Off ch=4 n=81 v=64
80880 On ch=4 n=80 v=79
80880 On ch=4 n=76 v=79
80880 On ch=4 n=83 v=79
81355 Off ch=4 n=83 v=64
81355 Off ch=4 n=76 v=64
81355 Off ch=4 n=80 v=64
81840 On ch=4 n=78 v=79
81840 On ch=4 n=73 v=79
81840 On ch=4 n=81 v=79
82395 Off ch=4 n=81 v=64
82395 Off ch=4 n=73 v=64
82395 Off ch=4 n=78 v=64
82560 On ch=4 n=75 v=79
82560 On ch=4 n=71 v=79
82560 On ch=4 n=80 v=79
83195 Off ch=4 n=80 v=64
83195 Off ch=4 n=71 v=64
83195 Off ch=4 n=75 v=64
83760 On ch=4 n=78 v=79
83760 On ch=4 n=73 v=79
83760 On ch=4 n=81 v=79
83840 Off ch=4 n=73 v=64
83840 Off ch=4 n=78 v=64
83880 Off ch=4 n=81 v=64
83880 On ch=4 n=80 v=79
83960 Off ch=4 n=80 v=64
84000 On ch=4 n=78 v=79
84000 On ch=4 n=73 v=79
84000 On ch=4 n=81 v=79
84080 Off ch=4 n=81 v=64
84080 Off ch=4 n=73 v=64
84080 Off ch=4 n=78 v=64
84120 On ch=4 n=81 v=79
84120 On ch=4 n=76 v=79
84120 On ch=4 n=85 v=79
84400 Off ch=4 n=85 v=64
84400 Off ch=4 n=76 v=64
84400 Off ch=4 n=81 v=64
84480 On ch=4 n=78 v=79
84480 On ch=4 n=73 v=79
84480 On ch=4 n=81 v=79
84560 Off ch=4 n=73 v=64
84560 Off ch=4 n=78 v=64
84600 Off ch=4 n=81 v=64
84600 On ch=4 n=80 v=79
84680 Off ch=4 n=80 v=64
84720 On ch=4 n=78 v=79
84720 On ch=4 n=73 v=79
84720 On ch=4 n=81 v=79
84800 Off ch=4 n=81 v=64
84800 Off ch=4 n=73 v=64
84800 Off ch=4 n=78 v=64
84840 On ch=4 n=81 v=79
84840 On ch=4 n=76 v=79
84840 On ch=4 n=85 v=79
85275 Off ch=4 n=85 v=64
85275 Off ch=4 n=76 v=64
85275 Off ch=4 n=81 v=64
85440 On ch=4 n=69 v=79
85440 On ch=4 n=66 v=79
85520 Off ch=4 n=66 v=64
85520 Off ch=4 n=69 v=64
85560 On ch=4 n=61 v=79
85640 Off ch=4 n=61 v=64
85680 On ch=4 n=66 v=79
85680 On ch=4 n=69 v=79
85760 Off ch=4 n=69 v=64
85760 Off ch=4 n=66 v=64
85800 On ch=4 n=66 v=79
85800 On ch=4 n=69 v=79
85880 Off ch=4 n=69 v=64
85880 Off ch=4 n=66 v=64
85920 On ch=4 n=66 v=79
85920 On ch=4 n=69 v=79
86000 Off ch=4 n=69 v=64
86000 Off ch=4 n=66 v=64
86040 On ch=4 n=61 v=79
86120 Off ch=4 n=61 v=64
86160 On ch=4 n=66 v=79
86160 On ch=4 n=69 v=79
86240 Off ch=4 n=69 v=64
86240 Off ch=4 n=66 v=64
86280 On ch=4 n=66 v=79
86280 On ch=4 n=69 v=79
86360 Off ch=4 n=69 v=64
86360 Off ch=4 n=66 v=64
86400 On ch=4 n=66 v=79
86400 On ch=4 n=69 v=79
86480 Off ch=4 n=69 v=64
86480 Off ch=4 n=66 v=64
86520 On ch=4 n=61 v=79
86600 Off ch=4 n=61 v=64
86640 On ch=4 n=66 v=79
86640 On ch=4 n=69 v=79
86720 Off ch=4 n=69 v=64
86720 Off ch=4 n=66 v=64
86760 On ch=4 n=66 v=79
86760 On ch=4 n=69 v=79
86960 Off ch=4 n=69 v=64
86960 Off ch=4 n=66 v=64
87000 On ch=4 n=61 v=79
87080 Off ch=4 n=61 v=64
87120 On ch=4 n=66 v=79
87120 On ch=4 n=69 v=79
87280 Off ch=4 n=69 v=64
87280 Off ch=4 n=66 v=64
87360 On ch=4 n=80 v=95
87360 On ch=4 n=83 v=95
87995 Off ch=4 n=83 v=64
87995 Off ch=4 n=80 v=64
88320 On ch=4 n=76 v=95
88320 On ch=4 n=81 v=95
88955 Off ch=4 n=81 v=64
88955 Off ch=4 n=76 v=64
89280 On ch=4 n=80 v=95
89280 On ch=4 n=83 v=95
89915 Off ch=4 n=83 v=64
89915 Off ch=4 n=80 v=64
90240 On ch=4 n=76 v=95
90240 On ch=4 n=81 v=95
90875 Off ch=4 n=81 v=64
90875 Off ch=4 n=76 v=64
91200 On ch=4 n=80 v=95
91200 On ch=4 n=83 v=95
91835 Off ch=4 n=83 v=64
91835 Off ch=4 n=80 v=64
92160 On ch=4 n=78 v=95
92160 On ch=4 n=81 v=95
92795 Off ch=4 n=81 v=64
92795 Off ch=4 n=78 v=64
93120 On ch=4 n=80 v=95
93120 On ch=4 n=83 v=95
93755 Off ch=4 n=83 v=64
93755 Off ch=4 n=80 v=64
94080 On ch=4 n=81 v=95
94395 Off ch=4 n=81 v=64
94560 On ch=4 n=78 v=95
94560 On ch=4 n=83 v=95
94875 Off ch=4 n=83 v=64
94875 Off ch=4 n=78 v=64
95040 On ch=4 n=80 v=111
95040 On ch=4 n=83 v=111
95675 Off ch=4 n=83 v=64
95675 Off ch=4 n=80 v=64
96000 On ch=4 n=76 v=111
96000 On ch=4 n=81 v=111
96635 Off ch=4 n=81 v=64
96635 Off ch=4 n=76 v=64
96960 On ch=4 n=80 v=111
96960 On ch=4 n=83 v=111
97595 Off ch=4 n=83 v=64
97595 Off ch=4 n=80 v=64
97920 On ch=4 n=76 v=111
97920 On ch=4 n=81 v=111
98555 Off ch=4 n=81 v=64
98555 Off ch=4 n=76 v=64
98880 On ch=4 n=80 v=111
98880 On ch=4 n=83 v=111
99515 Off ch=4 n=83 v=64
99515 Off ch=4 n=80 v=64
99840 On ch=4 n=78 v=111
99840 On ch=4 n=81 v=111
100475 Off ch=4 n=81 v=64
100475 Off ch=4 n=78 v=64
100800 On ch=4 n=80 v=111
100800 On ch=4 n=83 v=111
101435 Off ch=4 n=83 v=64
101435 Off ch=4 n=80 v=64
101760 On ch=4 n=81 v=111
102075 Off ch=4 n=81 v=64
102240 On ch=4 n=78 v=111
102240 On ch=4 n=83 v=111
102555 Off ch=4 n=83 v=64
102555 Off ch=4 n=78 v=64
102720 On ch=4 n=80 v=127
102720 On ch=4 n=83 v=127
103355 Off ch=4 n=83 v=64
103355 Off ch=4 n=80 v=64
103680 On ch=4 n=76 v=127
103680 On ch=4 n=81 v=127
104315 Off ch=4 n=81 v=64
104315 Off ch=4 n=76 v=64
104640 On ch=4 n=80 v=127
104640 On ch=4 n=83 v=127
105275 Off ch=4 n=83 v=64
105275 Off ch=4 n=80 v=64
105600 On ch=4 n=76 v=127
105600 On ch=4 n=73 v=127
105600 On ch=4 n=81 v=127
106235 Off ch=4 n=81 v=64
106235 Off ch=4 n=73 v=64
106235 Off ch=4 n=76 v=64
106560 On ch=4 n=76 v=127
106560 On ch=4 n=73 v=127
106560 On ch=4 n=81 v=127
107195 Off ch=4 n=81 v=64
107195 Off ch=4 n=73 v=64
107195 Off ch=4 n=76 v=64
107520 On ch=4 n=76 v=127
107520 On ch=4 n=73 v=127
107520 On ch=4 n=81 v=127
107760 Off ch=4 n=81 v=64
107760 Off ch=4 n=73 v=64
107760 Off ch=4 n=76 v=64
107760 Meta TrkEnd
TrkEnd
MTrk
0 Meta Text "Bass"
0 PrCh ch=5 p=39
0 Par ch=5 c=7 v=96
480 Par ch=5 c=0 v=0
485 Par ch=5 c=32 v=0
495 Par ch=5 c=1 v=0
505 Par ch=5 c=10 v=90
510 Par ch=5 c=11 v=127
515 Par ch=5 c=64 v=0
520 Par ch=5 c=91 v=64
525 Par ch=5 c=93 v=64
530 Pb ch=5 v=8192
6720 Pb ch=5 v=8192
6720 Par ch=5 c=1 v=0
6720 Par ch=5 c=64 v=0
6720 Par ch=5 c=11 v=127
6720 Par ch=5 c=91 v=64
6720 Par ch=5 c=93 v=64
12000 On ch=5 n=59 v=79
12080 Off ch=5 n=59 v=64
12120 On ch=5 n=61 v=79
12200 Off ch=5 n=61 v=64
12240 On ch=5 n=59 v=79
12320 Off ch=5 n=59 v=64
12360 On ch=5 n=64 v=79
12560 Off ch=5 n=64 v=64
12600 On ch=5 n=63 v=79
12800 Off ch=5 n=63 v=64
12840 On ch=5 n=59 v=79
13120 Off ch=5 n=59 v=64
13200 On ch=5 n=47 v=79
13360 Off ch=5 n=47 v=64
13440 On ch=5 n=40 v=79
13440 On ch=5 n=52 v=79
14075 Off ch=5 n=52 v=64
14075 Off ch=5 n=40 v=64
14400 On ch=5 n=42 v=79
15035 Off ch=5 n=42 v=64
15360 On ch=5 n=40 v=79
15995 Off ch=5 n=40 v=64
16320 On ch=5 n=40 v=79
16955 Off ch=5 n=40 v=64
17280 On ch=5 n=40 v=79
17915 Off ch=5 n=40 v=64
18240 On ch=5 n=40 v=79
18875 Off ch=5 n=40 v=64
19200 On ch=5 n=40 v=79
19835 Off ch=5 n=40 v=64
20160 On ch=5 n=40 v=79
20795 Off ch=5 n=40 v=64
21120 On ch=5 n=40 v=79
21755 Off ch=5 n=40 v=64
22080 On ch=5 n=40 v=79
22715 Off ch=5 n=40 v=64
23040 On ch=5 n=40 v=79
23675 Off ch=5 n=40 v=64
24000 On ch=5 n=40 v=79
24635 Off ch=5 n=40 v=64
24960 On ch=5 n=40 v=79
25595 Off ch=5 n=40 v=64
25920 On ch=5 n=40 v=79
26555 Off ch=5 n=40 v=64
26880 On ch=5 n=40 v=79
27515 Off ch=5 n=40 v=64
27840 On ch=5 n=40 v=79
28475 Off ch=5 n=40 v=64
28800 On ch=5 n=40 v=79
29435 Off ch=5 n=40 v=64
29760 On ch=5 n=40 v=79
30395 Off ch=5 n=40 v=64
30720 On ch=5 n=40 v=79
31355 Off ch=5 n=40 v=64
31680 On ch=5 n=40 v=79
32315 Off ch=5 n=40 v=64
32640 On ch=5 n=40 v=79
33275 Off ch=5 n=40 v=64
33600 On ch=5 n=40 v=79
34235 Off ch=5 n=40 v=64
34560 On ch=5 n=40 v=79
35195 Off ch=5 n=40 v=64
35520 On ch=5 n=40 v=79
36155 Off ch=5 n=40 v=64
36480 On ch=5 n=40 v=79
37115 Off ch=5 n=40 v=64
37440 On ch=5 n=40 v=79
38075 Off ch=5 n=40 v=64
38400 On ch=5 n=40 v=79
39035 Off ch=5 n=40 v=64
39360 On ch=5 n=40 v=79
39995 Off ch=5 n=40 v=64
40320 On ch=5 n=40 v=79
40955 Off ch=5 n=40 v=64
41280 On ch=5 n=40 v=79
41915 Off ch=5 n=40 v=64
42240 On ch=5 n=40 v=79
42875 Off ch=5 n=40 v=64
43200 On ch=5 n=40 v=79
43835 Off ch=5 n=40 v=64
44160 On ch=5 n=40 v=79
44795 Off ch=5 n=40 v=64
45120 On ch=5 n=40 v=79
45755 Off ch=5 n=40 v=64
46080 On ch=5 n=40 v=79
46715 Off ch=5 n=40 v=64
47040 On ch=5 n=40 v=79
47675 Off ch=5 n=40 v=64
48000 On ch=5 n=40 v=79
48635 Off ch=5 n=40 v=64
48960 On ch=5 n=40 v=79
49595 Off ch=5 n=40 v=64
49920 On ch=5 n=40 v=79
50555 Off ch=5 n=40 v=64
50880 On ch=5 n=40 v=79
51515 Off ch=5 n=40 v=64
51840 On ch=5 n=40 v=79
52475 Off ch=5 n=40 v=64
52800 On ch=5 n=40 v=79
53435 Off ch=5 n=40 v=64
53760 On ch=5 n=40 v=79
54395 Off ch=5 n=40 v=64
54720 On ch=5 n=40 v=79
55355 Off ch=5 n=40 v=64
55680 On ch=5 n=40 v=79
56315 Off ch=5 n=40 v=64
56640 On ch=5 n=40 v=79
57275 Off ch=5 n=40 v=64
57600 On ch=5 n=40 v=79
58235 Off ch=5 n=40 v=64
58560 On ch=5 n=40 v=79
59195 Off ch=5 n=40 v=64
59520 On ch=5 n=40 v=79
60155 Off ch=5 n=40 v=64
60480 On ch=5 n=40 v=79
61115 Off ch=5 n=40 v=64
61440 On ch=5 n=40 v=79
62075 Off ch=5 n=40 v=64
62400 On ch=5 n=40 v=79
63035 Off ch=5 n=40 v=64
63360 On ch=5 n=40 v=79
63995 Off ch=5 n=40 v=64
64320 On ch=5 n=40 v=79
64955 Off ch=5 n=40 v=64
65280 On ch=5 n=40 v=79
65915 Off ch=5 n=40 v=64
66240 On ch=5 n=40 v=79
66875 Off ch=5 n=40 v=64
67200 On ch=5 n=40 v=79
67835 Off ch=5 n=40 v=64
68160 On ch=5 n=40 v=79
68795 Off ch=5 n=40 v=64
69120 On ch=5 n=40 v=79
69755 Off ch=5 n=40 v=64
70080 On ch=5 n=40 v=79
70715 Off ch=5 n=40 v=64
71040 On ch=5 n=40 v=79
71675 Off ch=5 n=40 v=64
72000 On ch=5 n=40 v=79
72635 Off ch=5 n=40 v=64
72960 On ch=5 n=40 v=79
73595 Off ch=5 n=40 v=64
73920 On ch=5 n=40 v=79
74555 Off ch=5 n=40 v=64
74880 On ch=5 n=40 v=79
75515 Off ch=5 n=40 v=64
75840 On ch=5 n=40 v=79
76475 Off ch=5 n=40 v=64
76800 On ch=5 n=40 v=79
77435 Off ch=5 n=40 v=64
77760 On ch=5 n=40 v=79
78395 Off ch=5 n=40 v=64
79680 On ch=5 n=40 v=79
80315 Off ch=5 n=40 v=64
80640 On ch=5 n=40 v=79
81275 Off ch=5 n=40 v=64
81600 On ch=5 n=40 v=79
82235 Off ch=5 n=40 v=64
82560 On ch=5 n=40 v=79
83195 Off ch=5 n=40 v=64
83520 On ch=5 n=40 v=79
84155 Off ch=5 n=40 v=64
84480 On ch=5 n=40 v=79
85115 Off ch=5 n=40 v=64
85440 On ch=5 n=40 v=79
86075 Off ch=5 n=40 v=64
86400 On ch=5 n=40 v=79
87035 Off ch=5 n=40 v=64
87360 On ch=5 n=47 v=95
87360 On ch=5 n=40 v=95
87360 On ch=5 n=52 v=95
87995 Off ch=5 n=52 v=64
87995 Off ch=5 n=40 v=64
87995 Off ch=5 n=47 v=64
88320 On ch=5 n=49 v=95
88320 On ch=5 n=52 v=95
88955 Off ch=5 n=52 v=64
88955 Off ch=5 n=49 v=64
89280 On ch=5 n=47 v=95
89280 On ch=5 n=52 v=95
89915 Off ch=5 n=52 v=64
89915 Off ch=5 n=47 v=64
90240 On ch=5 n=45 v=95
90240 On ch=5 n=49 v=95
90875 Off ch=5 n=49 v=64
90875 Off ch=5 n=45 v=64
91200 On ch=5 n=44 v=95
91835 Off ch=5 n=44 v=64
92160 On ch=5 n=42 v=95
92795 Off ch=5 n=42 v=64
93120 On ch=5 n=44 v=95
93755 Off ch=5 n=44 v=64
94080 On ch=5 n=45 v=95
94395 Off ch=5 n=45 v=64
94560 On ch=5 n=47 v=95
94875 Off ch=5 n=47 v=64
95040 On ch=5 n=47 v=111
95040 On ch=5 n=40 v=111
95040 On ch=5 n=52 v=111
95675 Off ch=5 n=52 v=64
95675 Off ch=5 n=40 v=64
95675 Off ch=5 n=47 v=64
96000 On ch=5 n=49 v=111
96000 On ch=5 n=52 v=111
96635 Off ch=5 n=52 v=64
96635 Off ch=5 n=49 v=64
96960 On ch=5 n=47 v=111
96960 On ch=5 n=52 v=111
97595 Off ch=5 n=52 v=64
97595 Off ch=5 n=47 v=64
97920 On ch=5 n=45 v=111
97920 On ch=5 n=49 v=111
98555 Off ch=5 n=49 v=64
98555 Off ch=5 n=45 v=64
98880 On ch=5 n=44 v=111
99515 Off ch=5 n=44 v=64
99840 On ch=5 n=42 v=111
100475 Off ch=5 n=42 v=64
100800 On ch=5 n=44 v=111
101435 Off ch=5 n=44 v=64
101760 On ch=5 n=45 v=111
102075 Off ch=5 n=45 v=64
102240 On ch=5 n=47 v=111
102555 Off ch=5 n=47 v=64
102720 On ch=5 n=40 v=127
103355 Off ch=5 n=40 v=64
103680 On ch=5 n=42 v=127
104315 Off ch=5 n=42 v=64
104640 On ch=5 n=44 v=127
105275 Off ch=5 n=44 v=64
105600 On ch=5 n=49 v=127
105600 On ch=5 n=45 v=127
105600 On ch=5 n=52 v=127
106235 Off ch=5 n=52 v=64
106235 Off ch=5 n=45 v=64
106235 Off ch=5 n=49 v=64
106560 On ch=5 n=49 v=127
106560 On ch=5 n=45 v=127
106560 On ch=5 n=52 v=127
107195 Off ch=5 n=52 v=64
107195 Off ch=5 n=45 v=64
107195 Off ch=5 n=49 v=64
107520 On ch=5 n=57 v=127
107760 Off ch=5 n=57 v=64
107760 Meta TrkEnd
TrkEnd
MTrk
0 Meta Text "Organ"
0 PrCh ch=6 p=16
0 Par ch=6 c=7 v=83
482 Par ch=6 c=0 v=0
487 Par ch=6 c=32 v=0
497 Par ch=6 c=1 v=0
507 Par ch=6 c=10 v=64
512 Par ch=6 c=11 v=127
517 Par ch=6 c=64 v=0
522 Par ch=6 c=91 v=64
527 Par ch=6 c=93 v=64
532 Pb ch=6 v=8192
532 Par ch=6 c=10 v=64
1200 Par ch=6 c=7 v=83
43320 On ch=6 n=47 v=79
43400 Off ch=6 n=47 v=64
43440 On ch=6 n=52 v=79
43520 Off ch=6 n=52 v=64
43560 On ch=6 n=47 v=79
43640 Off ch=6 n=47 v=64
43680 On ch=6 n=52 v=79
43760 Off ch=6 n=52 v=64
43800 On ch=6 n=47 v=79
43880 Off ch=6 n=47 v=64
43920 On ch=6 n=52 v=79
44000 Off ch=6 n=52 v=64
44040 On ch=6 n=47 v=79
44120 Off ch=6 n=47 v=64
44280 On ch=6 n=47 v=79
44360 Off ch=6 n=47 v=64
44400 On ch=6 n=52 v=79
44480 Off ch=6 n=52 v=64
44520 On ch=6 n=47 v=79
44600 Off ch=6 n=47 v=64
44640 On ch=6 n=52 v=79
44720 Off ch=6 n=52 v=64
44760 On ch=6 n=47 v=79
44840 Off ch=6 n=47 v=64
44880 On ch=6 n=52 v=79
44960 Off ch=6 n=52 v=64
45000 On ch=6 n=47 v=79
45080 Off ch=6 n=47 v=64
45240 On ch=6 n=47 v=79
45320 Off ch=6 n=47 v=64
45360 On ch=6 n=52 v=79
45440 Off ch=6 n=52 v=64
45480 On ch=6 n=47 v=79
45560 Off ch=6 n=47 v=64
45600 On ch=6 n=52 v=79
45680 Off ch=6 n=52 v=64
45720 On ch=6 n=47 v=79
45800 Off ch=6 n=47 v=64
45840 On ch=6 n=52 v=79
45920 Off ch=6 n=52 v=64
45960 On ch=6 n=47 v=79
46040 Off ch=6 n=47 v=64
46200 On ch=6 n=47 v=79
46280 Off ch=6 n=47 v=64
46320 On ch=6 n=52 v=79
46400 Off ch=6 n=52 v=64
46440 On ch=6 n=47 v=79
46520 Off ch=6 n=47 v=64
46560 On ch=6 n=52 v=79
46640 Off ch=6 n=52 v=64
46680 On ch=6 n=47 v=79
46760 Off ch=6 n=47 v=64
46800 On ch=6 n=52 v=79
46880 Off ch=6 n=52 v=64
46920 On ch=6 n=47 v=79
47000 Off ch=6 n=47 v=64
47160 On ch=6 n=47 v=79
47240 Off ch=6 n=47 v=64
47280 On ch=6 n=52 v=79
47360 Off ch=6 n=52 v=64
47400 On ch=6 n=47 v=79
47480 Off ch=6 n=47 v=64
47520 On ch=6 n=52 v=79
47600 Off ch=6 n=52 v=64
47640 On ch=6 n=47 v=79
47720 Off ch=6 n=47 v=64
47760 On ch=6 n=52 v=79
47840 Off ch=6 n=52 v=64
47880 On ch=6 n=47 v=79
47960 Off ch=6 n=47 v=64
48120 On ch=6 n=47 v=79
48200 Off ch=6 n=47 v=64
48240 On ch=6 n=52 v=79
48320 Off ch=6 n=52 v=64
48360 On ch=6 n=47 v=79
48440 Off ch=6 n=47 v=64
48480 On ch=6 n=52 v=79
48560 Off ch=6 n=52 v=64
48600 On ch=6 n=47 v=79
48680 Off ch=6 n=47 v=64
48720 On ch=6 n=52 v=79
48800 Off ch=6 n=52 v=64
48840 On ch=6 n=47 v=79
48920 Off ch=6 n=47 v=64
49080 On ch=6 n=47 v=79
49160 Off ch=6 n=47 v=64
49200 On ch=6 n=52 v=79
49280 Off ch=6 n=52 v=64
49320 On ch=6 n=47 v=79
49400 Off ch=6 n=47 v=64
49440 On ch=6 n=52 v=79
49520 Off ch=6 n=52 v=64
49560 On ch=6 n=47 v=79
49640 Off ch=6 n=47 v=64
49680 On ch=6 n=52 v=79
49760 Off ch=6 n=52 v=64
49800 On ch=6 n=47 v=79
49880 Off ch=6 n=47 v=64
50040 On ch=6 n=47 v=79
50120 Off ch=6 n=47 v=64
50160 On ch=6 n=52 v=79
50240 Off ch=6 n=52 v=64
50280 On ch=6 n=47 v=79
50360 Off ch=6 n=47 v=64
50400 On ch=6 n=52 v=79
50480 Off ch=6 n=52 v=64
50520 On ch=6 n=47 v=79
50600 Off ch=6 n=47 v=64
50640 On ch=6 n=52 v=79
50720 Off ch=6 n=52 v=64
50760 On ch=6 n=47 v=79
50840 Off ch=6 n=47 v=64
51000 On ch=6 n=47 v=79
51080 Off ch=6 n=47 v=64
51120 On ch=6 n=52 v=79
51200 Off ch=6 n=52 v=64
51240 On ch=6 n=47 v=79
51320 Off ch=6 n=47 v=64
51360 On ch=6 n=52 v=79
51440 Off ch=6 n=52 v=64
51480 On ch=6 n=47 v=79
51560 Off ch=6 n=47 v=64
51600 On ch=6 n=52 v=79
51680 Off ch=6 n=52 v=64
51720 On ch=6 n=47 v=79
51800 Off ch=6 n=47 v=64
51960 On ch=6 n=47 v=79
52040 Off ch=6 n=47 v=64
52080 On ch=6 n=52 v=79
52160 Off ch=6 n=52 v=64
52200 On ch=6 n=47 v=79
52280 Off ch=6 n=47 v=64
52320 On ch=6 n=52 v=79
52400 Off ch=6 n=52 v=64
52440 On ch=6 n=47 v=79
52520 Off ch=6 n=47 v=64
52560 On ch=6 n=52 v=79
52640 Off ch=6 n=52 v=64
52680 On ch=6 n=47 v=79
52760 Off ch=6 n=47 v=64
52920 On ch=6 n=47 v=79
53000 Off ch=6 n=47 v=64
53040 On ch=6 n=52 v=79
53120 Off ch=6 n=52 v=64
53160 On ch=6 n=47 v=79
53240 Off ch=6 n=47 v=64
53280 On ch=6 n=52 v=79
53360 Off ch=6 n=52 v=64
53400 On ch=6 n=47 v=79
53480 Off ch=6 n=47 v=64
53520 On ch=6 n=52 v=79
53600 Off ch=6 n=52 v=64
53640 On ch=6 n=47 v=79
53720 Off ch=6 n=47 v=64
53880 On ch=6 n=47 v=79
53960 Off ch=6 n=47 v=64
54000 On ch=6 n=52 v=79
54080 Off ch=6 n=52 v=64
54120 On ch=6 n=47 v=79
54200 Off ch=6 n=47 v=64
54240 On ch=6 n=52 v=79
54320 Off ch=6 n=52 v=64
54360 On ch=6 n=47 v=79
54440 Off ch=6 n=47 v=64
54480 On ch=6 n=52 v=79
54560 Off ch=6 n=52 v=64
54600 On ch=6 n=47 v=79
54680 Off ch=6 n=47 v=64
54840 On ch=6 n=47 v=79
54920 Off ch=6 n=47 v=64
54960 On ch=6 n=52 v=79
55040 Off ch=6 n=52 v=64
55080 On ch=6 n=47 v=79
55160 Off ch=6 n=47 v=64
55200 On ch=6 n=52 v=79
55280 Off ch=6 n=52 v=64
55320 On ch=6 n=47 v=79
55400 Off ch=6 n=47 v=64
55440 On ch=6 n=52 v=79
55520 Off ch=6 n=52 v=64
55560 On ch=6 n=47 v=79
55640 Off ch=6 n=47 v=64
55800 On ch=6 n=47 v=79
55880 Off ch=6 n=47 v=64
55920 On ch=6 n=52 v=79
56000 Off ch=6 n=52 v=64
56040 On ch=6 n=47 v=79
56120 Off ch=6 n=47 v=64
56160 On ch=6 n=52 v=79
56240 Off ch=6 n=52 v=64
56280 On ch=6 n=47 v=79
56360 Off ch=6 n=47 v=64
56400 On ch=6 n=52 v=79
56480 Off ch=6 n=52 v=64
56520 On ch=6 n=47 v=79
56600 Off ch=6 n=47 v=64
56760 On ch=6 n=47 v=79
56840 Off ch=6 n=47 v=64
56880 On ch=6 n=52 v=79
56960 Off ch=6 n=52 v=64
57000 On ch=6 n=47 v=79
57080 Off ch=6 n=47 v=64
57120 On ch=6 n=52 v=79
57200 Off ch=6 n=52 v=64
57240 On ch=6 n=47 v=79
57320 Off ch=6 n=47 v=64
57360 On ch=6 n=52 v=79
57440 Off ch=6 n=52 v=64
57480 On ch=6 n=47 v=79
57560 Off ch=6 n=47 v=64
57720 On ch=6 n=47 v=79
57800 Off ch=6 n=47 v=64
57840 On ch=6 n=52 v=79
57920 Off ch=6 n=52 v=64
57960 On ch=6 n=47 v=79
58040 Off ch=6 n=47 v=64
58080 On ch=6 n=52 v=79
58160 Off ch=6 n=52 v=64
58200 On ch=6 n=47 v=79
58280 Off ch=6 n=47 v=64
58320 On ch=6 n=52 v=79
58400 Off ch=6 n=52 v=64
58440 On ch=6 n=47 v=79
58520 Off ch=6 n=47 v=64
58680 On ch=6 n=47 v=79
58760 Off ch=6 n=47 v=64
58800 On ch=6 n=52 v=79
58880 Off ch=6 n=52 v=64
58920 On ch=6 n=47 v=79
59000 Off ch=6 n=47 v=64
59040 On ch=6 n=52 v=79
59120 Off ch=6 n=52 v=64
59160 On ch=6 n=47 v=79
59240 Off ch=6 n=47 v=64
59280 On ch=6 n=52 v=79
59360 Off ch=6 n=52 v=64
59400 On ch=6 n=47 v=79
59480 Off ch=6 n=47 v=64
69240 On ch=6 n=47 v=79
69320 Off ch=6 n=47 v=64
69360 On ch=6 n=52 v=79
69440 Off ch=6 n=52 v=64
69480 On ch=6 n=47 v=79
69560 Off ch=6 n=47 v=64
69600 On ch=6 n=52 v=79
69680 Off ch=6 n=52 v=64
69720 On ch=6 n=47 v=79
69800 Off ch=6 n=47 v=64
69840 On ch=6 n=52 v=79
69920 Off ch=6 n=52 v=64
69960 On ch=6 n=47 v=79
70040 Off ch=6 n=47 v=64
70200 On ch=6 n=47 v=79
70280 Off ch=6 n=47 v=64
70320 On ch=6 n=52 v=79
70400 Off ch=6 n=52 v=64
70440 On ch=6 n=47 v=79
70520 Off ch=6 n=47 v=64
70560 On ch=6 n=52 v=79
70640 Off ch=6 n=52 v=64
70680 On ch=6 n=47 v=79
70760 Off ch=6 n=47 v=64
70800 On ch=6 n=52 v=79
70880 Off ch=6 n=52 v=64
70920 On ch=6 n=47 v=79
71000 Off ch=6 n=47 v=64
71160 On ch=6 n=47 v=79
71240 Off ch=6 n=47 v=64
71280 On ch=6 n=52 v=79
71360 Off ch=6 n=52 v=64
71400 On ch=6 n=47 v=79
71480 Off ch=6 n=47 v=64
71520 On ch=6 n=52 v=79
71600 Off ch=6 n=52 v=64
71640 On ch=6 n=47 v=79
71720 Off ch=6 n=47 v=64
71760 On ch=6 n=52 v=79
71840 Off ch=6 n=52 v=64
71880 On ch=6 n=47 v=79
71960 Off ch=6 n=47 v=64
72120 On ch=6 n=47 v=79
72200 Off ch=6 n=47 v=64
72240 On ch=6 n=52 v=79
72320 Off ch=6 n=52 v=64
72360 On ch=6 n=47 v=79
72440 Off ch=6 n=47 v=64
72480 On ch=6 n=52 v=79
72560 Off ch=6 n=52 v=64
72600 On ch=6 n=47 v=79
72680 Off ch=6 n=47 v=64
72720 On ch=6 n=52 v=79
72800 Off ch=6 n=52 v=64
72840 On ch=6 n=47 v=79
72920 Off ch=6 n=47 v=64
73080 On ch=6 n=47 v=79
73160 Off ch=6 n=47 v=64
73200 On ch=6 n=52 v=79
73280 Off ch=6 n=52 v=64
73320 On ch=6 n=47 v=79
73400 Off ch=6 n=47 v=64
73440 On ch=6 n=52 v=79
73520 Off ch=6 n=52 v=64
73560 On ch=6 n=47 v=79
73640 Off ch=6 n=47 v=64
73680 On ch=6 n=52 v=79
73760 Off ch=6 n=52 v=64
73800 On ch=6 n=47 v=79
73880 Off ch=6 n=47 v=64
74040 On ch=6 n=47 v=79
74120 Off ch=6 n=47 v=64
74160 On ch=6 n=52 v=79
74240 Off ch=6 n=52 v=64
74280 On ch=6 n=47 v=79
74360 Off ch=6 n=47 v=64
74400 On ch=6 n=52 v=79
74480 Off ch=6 n=52 v=64
74520 On ch=6 n=47 v=79
74600 Off ch=6 n=47 v=64
74640 On ch=6 n=52 v=79
74720 Off ch=6 n=52 v=64
74760 On ch=6 n=47 v=79
74840 Off ch=6 n=47 v=64
75000 On ch=6 n=47 v=79
75080 Off ch=6 n=47 v=64
75120 On ch=6 n=52 v=79
75200 Off ch=6 n=52 v=64
75240 On ch=6 n=47 v=79
75320 Off ch=6 n=47 v=64
75360 On ch=6 n=52 v=79
75440 Off ch=6 n=52 v=64
75480 On ch=6 n=47 v=79
75560 Off ch=6 n=47 v=64
75600 On ch=6 n=52 v=79
75680 Off ch=6 n=52 v=64
75720 On ch=6 n=47 v=79
75800 Off ch=6 n=47 v=64
75960 On ch=6 n=47 v=79
76040 Off ch=6 n=47 v=64
76080 On ch=6 n=52 v=79
76160 Off ch=6 n=52 v=64
76200 On ch=6 n=47 v=79
76280 Off ch=6 n=47 v=64
76320 On ch=6 n=52 v=79
76400 Off ch=6 n=52 v=64
76440 On ch=6 n=47 v=79
76520 Off ch=6 n=47 v=64
76560 On ch=6 n=52 v=79
76640 Off ch=6 n=52 v=64
76680 On ch=6 n=47 v=79
76760 Off ch=6 n=47 v=64
76920 On ch=6 n=47 v=79
77000 Off ch=6 n=47 v=64
77040 On ch=6 n=52 v=79
77120 Off ch=6 n=52 v=64
77160 On ch=6 n=47 v=79
77240 Off ch=6 n=47 v=64
77280 On ch=6 n=52 v=79
77360 Off ch=6 n=52 v=64
77400 On ch=6 n=47 v=79
77480 Off ch=6 n=47 v=64
77520 On ch=6 n=52 v=79
77600 Off ch=6 n=52 v=64
77640 On ch=6 n=47 v=79
77720 Off ch=6 n=47 v=64
77880 On ch=6 n=47 v=79
77960 Off ch=6 n=47 v=64
78000 On ch=6 n=52 v=79
78080 Off ch=6 n=52 v=64
78120 On ch=6 n=47 v=79
78200 Off ch=6 n=47 v=64
78240 On ch=6 n=52 v=79
78320 Off ch=6 n=52 v=64
78360 On ch=6 n=47 v=79
78440 Off ch=6 n=47 v=64
78480 On ch=6 n=52 v=79
78560 Off ch=6 n=52 v=64
78600 On ch=6 n=47 v=79
78680 Off ch=6 n=47 v=64
78840 On ch=6 n=47 v=79
78920 Off ch=6 n=47 v=64
78960 On ch=6 n=52 v=79
79040 Off ch=6 n=52 v=64
79080 On ch=6 n=47 v=79
79160 Off ch=6 n=47 v=64
79200 On ch=6 n=52 v=79
79280 Off ch=6 n=52 v=64
79320 On ch=6 n=47 v=79
79400 Off ch=6 n=47 v=64
79440 On ch=6 n=52 v=79
79520 Off ch=6 n=52 v=64
79560 On ch=6 n=47 v=79
79640 Off ch=6 n=47 v=64
79800 On ch=6 n=47 v=79
79880 Off ch=6 n=47 v=64
79920 On ch=6 n=52 v=79
80000 Off ch=6 n=52 v=64
80040 On ch=6 n=47 v=79
80120 Off ch=6 n=47 v=64
80160 On ch=6 n=52 v=79
80240 Off ch=6 n=52 v=64
80280 On ch=6 n=47 v=79
80360 Off ch=6 n=47 v=64
80400 On ch=6 n=52 v=79
80480 Off ch=6 n=52 v=64
80520 On ch=6 n=47 v=79
80600 Off ch=6 n=47 v=64
80760 On ch=6 n=47 v=79
80840 Off ch=6 n=47 v=64
80880 On ch=6 n=52 v=79
80960 Off ch=6 n=52 v=64
81000 On ch=6 n=47 v=79
81080 Off ch=6 n=47 v=64
81120 On ch=6 n=52 v=79
81200 Off ch=6 n=52 v=64
81240 On ch=6 n=47 v=79
81320 Off ch=6 n=47 v=64
81360 On ch=6 n=52 v=79
81440 Off ch=6 n=52 v=64
81480 On ch=6 n=47 v=79
81560 Off ch=6 n=47 v=64
81720 On ch=6 n=47 v=79
81800 Off ch=6 n=47 v=64
81840 On ch=6 n=52 v=79
81920 Off ch=6 n=52 v=64
81960 On ch=6 n=47 v=79
82040 Off ch=6 n=47 v=64
82080 On ch=6 n=52 v=79
82160 Off ch=6 n=52 v=64
82200 On ch=6 n=47 v=79
82280 Off ch=6 n=47 v=64
82320 On ch=6 n=52 v=79
82400 Off ch=6 n=52 v=64
82440 On ch=6 n=47 v=79
82520 Off ch=6 n=47 v=64
82680 On ch=6 n=47 v=79
82760 Off ch=6 n=47 v=64
82800 On ch=6 n=52 v=79
82880 Off ch=6 n=52 v=64
82920 On ch=6 n=47 v=79
83000 Off ch=6 n=47 v=64
83040 On ch=6 n=52 v=79
83120 Off ch=6 n=52 v=64
83160 On ch=6 n=47 v=79
83240 Off ch=6 n=47 v=64
83280 On ch=6 n=52 v=79
83360 Off ch=6 n=52 v=64
83400 On ch=6 n=47 v=79
83480 Off ch=6 n=47 v=64
83640 On ch=6 n=47 v=79
83720 Off ch=6 n=47 v=64
83760 On ch=6 n=52 v=79
83840 Off ch=6 n=52 v=64
83880 On ch=6 n=47 v=79
83960 Off ch=6 n=47 v=64
84000 On ch=6 n=52 v=79
84080 Off ch=6 n=52 v=64
84120 On ch=6 n=47 v=79
84200 Off ch=6 n=47 v=64
84240 On ch=6 n=52 v=79
84320 Off ch=6 n=52 v=64
84360 On ch=6 n=47 v=79
84440 Off ch=6 n=47 v=64
84600 On ch=6 n=47 v=79
84680 Off ch=6 n=47 v=64
84720 On ch=6 n=52 v=79
84800 Off ch=6 n=52 v=64
84840 On ch=6 n=47 v=79
84920 Off ch=6 n=47 v=64
84960 On ch=6 n=52 v=79
85040 Off ch=6 n=52 v=64
85080 On ch=6 n=47 v=79
85160 Off ch=6 n=47 v=64
85200 On ch=6 n=52 v=79
85280 Off ch=6 n=52 v=64
85320 On ch=6 n=47 v=79
85400 Off ch=6 n=47 v=64
87480 On ch=6 n=56 v=95
87560 Off ch=6 n=56 v=64
87600 On ch=6 n=59 v=95
87680 Off ch=6 n=59 v=64
87720 On ch=6 n=56 v=95
87800 Off ch=6 n=56 v=64
87840 On ch=6 n=59 v=95
87920 Off ch=6 n=59 v=64
87960 On ch=6 n=56 v=95
88040 Off ch=6 n=56 v=64
88080 On ch=6 n=59 v=95
88160 Off ch=6 n=59 v=64
88200 On ch=6 n=56 v=95
88280 Off ch=6 n=56 v=64
88440 On ch=6 n=57 v=95
88520 Off ch=6 n=57 v=64
88560 On ch=6 n=61 v=95
88640 Off ch=6 n=61 v=64
88680 On ch=6 n=57 v=95
88760 Off ch=6 n=57 v=64
88800 On ch=6 n=61 v=95
88880 Off ch=6 n=61 v=64
88920 On ch=6 n=57 v=95
89000 Off ch=6 n=57 v=64
89040 On ch=6 n=61 v=95
89120 Off ch=6 n=61 v=64
89160 On ch=6 n=57 v=95
89240 Off ch=6 n=57 v=64
89400 On ch=6 n=56 v=95
89480 Off ch=6 n=56 v=64
89520 On ch=6 n=59 v=95
89600 Off ch=6 n=59 v=64
89640 On ch=6 n=56 v=95
89720 Off ch=6 n=56 v=64
89760 On ch=6 n=59 v=95
89840 Off ch=6 n=59 v=64
89880 On ch=6 n=56 v=95
89960 Off ch=6 n=56 v=64
90000 On ch=6 n=59 v=95
90080 Off ch=6 n=59 v=64
90120 On ch=6 n=56 v=95
90200 Off ch=6 n=56 v=64
90360 On ch=6 n=52 v=95
90440 Off ch=6 n=52 v=64
90480 On ch=6 n=57 v=95
90560 Off ch=6 n=57 v=64
90600 On ch=6 n=52 v=95
90680 Off ch=6 n=52 v=64
90720 On ch=6 n=57 v=95
90800 Off ch=6 n=57 v=64
90840 On ch=6 n=52 v=95
90920 Off ch=6 n=52 v=64
90960 On ch=6 n=57 v=95
91040 Off ch=6 n=57 v=64
91080 On ch=6 n=52 v=95
91160 Off ch=6 n=52 v=64
91200 On ch=6 n=56 v=95
91280 Off ch=6 n=56 v=64
91320 On ch=6 n=52 v=95
91400 Off ch=6 n=52 v=64
91440 On ch=6 n=56 v=95
91520 Off ch=6 n=56 v=64
91560 On ch=6 n=52 v=95
91640 Off ch=6 n=52 v=64
91680 On ch=6 n=56 v=95
91760 Off ch=6 n=56 v=64
91800 On ch=6 n=52 v=95
91880 Off ch=6 n=52 v=64
91920 On ch=6 n=56 v=95
92000 Off ch=6 n=56 v=64
92040 On ch=6 n=52 v=95
92120 Off ch=6 n=52 v=64
92160 On ch=6 n=54 v=95
92240 Off ch=6 n=54 v=64
92280 On ch=6 n=49 v=95
92360 Off ch=6 n=49 v=64
92400 On ch=6 n=52 v=95
92480 Off ch=6 n=52 v=64
92520 On ch=6 n=49 v=95
92600 Off ch=6 n=49 v=64
92640 On ch=6 n=52 v=95
92720 Off ch=6 n=52 v=64
92760 On ch=6 n=49 v=95
92840 Off ch=6 n=49 v=64
92880 On ch=6 n=52 v=95
92960 Off ch=6 n=52 v=64
93000 On ch=6 n=49 v=95
93080 Off ch=6 n=49 v=64
93120 On ch=6 n=56 v=95
93200 Off ch=6 n=56 v=64
93240 On ch=6 n=52 v=95
93320 Off ch=6 n=52 v=64
93360 On ch=6 n=56 v=95
93440 Off ch=6 n=56 v=64
93480 On ch=6 n=52 v=95
93560 Off ch=6 n=52 v=64
93600 On ch=6 n=56 v=95
93680 Off ch=6 n=56 v=64
93720 On ch=6 n=52 v=95
93800 Off ch=6 n=52 v=64
93840 On ch=6 n=56 v=95
93920 Off ch=6 n=56 v=64
93960 On ch=6 n=52 v=95
94040 Off ch=6 n=52 v=64
94080 On ch=6 n=57 v=95
94160 Off ch=6 n=57 v=64
94200 On ch=6 n=52 v=95
94280 Off ch=6 n=52 v=64
94320 On ch=6 n=59 v=95
94400 Off ch=6 n=59 v=64
94440 On ch=6 n=52 v=95
94520 Off ch=6 n=52 v=64
94560 On ch=6 n=59 v=95
94640 Off ch=6 n=59 v=64
94680 On ch=6 n=54 v=95
94760 Off ch=6 n=54 v=64
94800 On ch=6 n=59 v=95
94880 Off ch=6 n=59 v=64
94920 On ch=6 n=54 v=95
95000 Off ch=6 n=54 v=64
95160 On ch=6 n=56 v=111
95240 Off ch=6 n=56 v=64
95280 On ch=6 n=59 v=111
95360 Off ch=6 n=59 v=64
95400 On ch=6 n=56 v=111
95480 Off ch=6 n=56 v=64
95520 On ch=6 n=59 v=111
95600 Off ch=6 n=59 v=64
95640 On ch=6 n=56 v=111
95720 Off ch=6 n=56 v=64
95760 On ch=6 n=59 v=111
95840 Off ch=6 n=59 v=64
95880 On ch=6 n=56 v=111
95960 Off ch=6 n=56 v=64
96120 On ch=6 n=57 v=111
96200 Off ch=6 n=57 v=64
96240 On ch=6 n=61 v=111
96320 Off ch=6 n=61 v=64
96360 On ch=6 n=57 v=111
96440 Off ch=6 n=57 v=64
96480 On ch=6 n=61 v=111
96560 Off ch=6 n=61 v=64
96600 On ch=6 n=57 v=111
96680 Off ch=6 n=57 v=64
96720 On ch=6 n=61 v=111
96800 Off ch=6 n=61 v=64
96840 On ch=6 n=57 v=111
96920 Off ch=6 n=57 v=64
97080 On ch=6 n=56 v=111
97160 Off ch=6 n=56 v=64
97200 On ch=6 n=59 v=111
97280 Off ch=6 n=59 v=64
97320 On ch=6 n=56 v=111
97400 Off ch=6 n=56 v=64
97440 On ch=6 n=59 v=111
97520 Off ch=6 n=59 v=64
97560 On ch=6 n=56 v=111
97640 Off ch=6 n=56 v=64
97680 On ch=6 n=59 v=111
97760 Off ch=6 n=59 v=64
97800 On ch=6 n=56 v=111
97880 Off ch=6 n=56 v=64
98040 On ch=6 n=52 v=111
98120 Off ch=6 n=52 v=64
98160 On ch=6 n=57 v=111
98240 Off ch=6 n=57 v=64
98280 On ch=6 n=52 v=111
98360 Off ch=6 n=52 v=64
98400 On ch=6 n=57 v=111
98480 Off ch=6 n=57 v=64
98520 On ch=6 n=52 v=111
98600 Off ch=6 n=52 v=64
98640 On ch=6 n=57 v=111
98720 Off ch=6 n=57 v=64
98760 On ch=6 n=52 v=111
98840 Off ch=6 n=52 v=64
98880 On ch=6 n=56 v=111
98960 Off ch=6 n=56 v=64
99000 On ch=6 n=52 v=111
99080 Off ch=6 n=52 v=64
99120 On ch=6 n=56 v=111
99200 Off ch=6 n=56 v=64
99240 On ch=6 n=52 v=111
99320 Off ch=6 n=52 v=64
99360 On ch=6 n=56 v=111
99440 Off ch=6 n=56 v=64
99480 On ch=6 n=52 v=111
99560 Off ch=6 n=52 v=64
99600 On ch=6 n=56 v=111
99680 Off ch=6 n=56 v=64
99720 On ch=6 n=52 v=111
99800 Off ch=6 n=52 v=64
99840 On ch=6 n=54 v=111
99920 Off ch=6 n=54 v=64
99960 On ch=6 n=49 v=111
100040 Off ch=6 n=49 v=64
100080 On ch=6 n=52 v=111
100160 Off ch=6 n=52 v=64
100200 On ch=6 n=49 v=111
100280 Off ch=6 n=49 v=64
100320 On ch=6 n=52 v=111
100400 Off ch=6 n=52 v=64
100440 On ch=6 n=49 v=111
100520 Off ch=6 n=49 v=64
100560 On ch=6 n=52 v=111
100640 Off ch=6 n=52 v=64
100680 On ch=6 n=49 v=111
100760 Off ch=6 n=49 v=64
100800 On ch=6 n=56 v=111
100880 Off ch=6 n=56 v=64
100920 On ch=6 n=52 v=111
101000 Off ch=6 n=52 v=64
101040 On ch=6 n=56 v=111
101120 Off ch=6 n=56 v=64
101160 On ch=6 n=52 v=111
101240 Off ch=6 n=52 v=64
101280 On ch=6 n=56 v=111
101360 Off ch=6 n=56 v=64
101400 On ch=6 n=52 v=111
101480 Off ch=6 n=52 v=64
101520 On ch=6 n=56 v=111
101600 Off ch=6 n=56 v=64
101640 On ch=6 n=52 v=111
101720 Off ch=6 n=52 v=64
101760 On ch=6 n=57 v=111
101840 Off ch=6 n=57 v=64
101880 On ch=6 n=52 v=111
101960 Off ch=6 n=52 v=64
102000 On ch=6 n=59 v=111
102080 Off ch=6 n=59 v=64
102120 On ch=6 n=52 v=111
102200 Off ch=6 n=52 v=64
102240 On ch=6 n=59 v=111
102320 Off ch=6 n=59 v=64
102360 On ch=6 n=54 v=111
102440 Off ch=6 n=54 v=64
102480 On ch=6 n=59 v=111
102560 Off ch=6 n=59 v=64
102600 On ch=6 n=54 v=111
102680 Off ch=6 n=54 v=64
102720 On ch=6 n=52 v=127
102800 Off ch=6 n=52 v=64
102840 On ch=6 n=47 v=127
102920 Off ch=6 n=47 v=64
102960 On ch=6 n=52 v=127
103040 Off ch=6 n=52 v=64
103080 On ch=6 n=47 v=127
103160 Off ch=6 n=47 v=64
103200 On ch=6 n=52 v=127
103280 Off ch=6 n=52 v=64
103320 On ch=6 n=47 v=127
103400 Off ch=6 n=47 v=64
103440 On ch=6 n=52 v=127
103520 Off ch=6 n=52 v=64
103560 On ch=6 n=47 v=127
103640 Off ch=6 n=47 v=64
103680 On ch=6 n=52 v=127
103760 Off ch=6 n=52 v=64
103800 On ch=6 n=49 v=127
103880 Off ch=6 n=49 v=64
103920 On ch=6 n=52 v=127
104000 Off ch=6 n=52 v=64
104040 On ch=6 n=49 v=127
104120 Off ch=6 n=49 v=64
104160 On ch=6 n=52 v=127
104240 Off ch=6 n=52 v=64
104280 On ch=6 n=49 v=127
104360 Off ch=6 n=49 v=64
104400 On ch=6 n=52 v=127
104480 Off ch=6 n=52 v=64
104520 On ch=6 n=49 v=127
104600 Off ch=6 n=49 v=64
104640 On ch=6 n=56 v=127
104720 Off ch=6 n=56 v=64
104760 On ch=6 n=52 v=127
104840 Off ch=6 n=52 v=64
104880 On ch=6 n=56 v=127
104960 Off ch=6 n=56 v=64
105000 On ch=6 n=52 v=127
105080 Off ch=6 n=52 v=64
105120 On ch=6 n=56 v=127
105200 Off ch=6 n=56 v=64
105240 On ch=6 n=52 v=127
105320 Off ch=6 n=52 v=64
105360 On ch=6 n=56 v=127
105520 Off ch=6 n=56 v=64
105600 On ch=6 n=45 v=111
105915 Off ch=6 n=45 v=64
106080 On ch=6 n=49 v=111
106395 Off ch=6 n=49 v=64
106560 On ch=6 n=52 v=111
106875 Off ch=6 n=52 v=64
107040 On ch=6 n=57 v=111
107355 Off ch=6 n=57 v=64
107520 On ch=6 n=52 v=111
107520 On ch=6 n=49 v=111
107520 On ch=6 n=45 v=111
107520 On ch=6 n=57 v=127
107680 Off ch=6 n=45 v=64
107680 Off ch=6 n=49 v=64
107680 Off ch=6 n=52 v=64
107760 Off ch=6 n=57 v=64
107760 Meta TrkEnd
TrkEnd
MTrk
0 Meta Text "Brass"
0 PrCh ch=7 p=61
0 Par ch=7 c=7 v=90
482 Par ch=7 c=0 v=0
487 Par ch=7 c=32 v=0
497 Par ch=7 c=1 v=0
507 Par ch=7 c=10 v=90
512 Par ch=7 c=11 v=127
517 Par ch=7 c=64 v=0
522 Par ch=7 c=91 v=64
527 Par ch=7 c=93 v=64
532 Pb ch=7 v=8192
1200 Par ch=7 c=7 v=89
6720 Pb ch=7 v=8192
6720 Par ch=7 c=1 v=0
6720 Par ch=7 c=64 v=0
6720 Par ch=7 c=11 v=127
6720 Par ch=7 c=91 v=64
6720 Par ch=7 c=93 v=64
43440 On ch=7 n=80 v=79
43440 On ch=7 n=76 v=79
43440 On ch=7 n=83 v=79
43995 Off ch=7 n=83 v=64
43995 Off ch=7 n=76 v=64
43995 Off ch=7 n=80 v=64
44400 On ch=7 n=78 v=79
44400 On ch=7 n=73 v=79
44400 On ch=7 n=81 v=79
44955 Off ch=7 n=81 v=64
44955 Off ch=7 n=73 v=64
44955 Off ch=7 n=78 v=64
45120 On ch=7 n=75 v=79
45120 On ch=7 n=71 v=79
45120 On ch=7 n=80 v=79
45755 Off ch=7 n=80 v=64
45755 Off ch=7 n=71 v=64
45755 Off ch=7 n=75 v=64
46320 On ch=7 n=78 v=79
46320 On ch=7 n=73 v=79
46320 On ch=7 n=81 v=79
46400 Off ch=7 n=73 v=64
46400 Off ch=7 n=78 v=64
46440 Off ch=7 n=81 v=64
46440 On ch=7 n=80 v=79
46520 Off ch=7 n=80 v=64
46560 On ch=7 n=78 v=79
46560 On ch=7 n=73 v=79
46560 On ch=7 n=81 v=79
46640 Off ch=7 n=81 v=64
46640 Off ch=7 n=73 v=64
46640 Off ch=7 n=78 v=64
46680 On ch=7 n=81 v=79
46680 On ch=7 n=76 v=79
46680 On ch=7 n=85 v=79
46800 Off ch=7 n=85 v=64
46800 Off ch=7 n=76 v=64
46800 Off ch=7 n=81 v=64
46800 On ch=7 n=81 v=79
46800 On ch=7 n=76 v=79
46800 On ch=7 n=85 v=79
46960 Off ch=7 n=85 v=64
46960 Off ch=7 n=76 v=64
46960 Off ch=7 n=81 v=64
47280 On ch=7 n=80 v=79
47280 On ch=7 n=76 v=79
47280 On ch=7 n=83 v=79
47835 Off ch=7 n=83 v=64
47835 Off ch=7 n=76 v=64
47835 Off ch=7 n=80 v=64
48240 On ch=7 n=78 v=79
48240 On ch=7 n=73 v=79
48240 On ch=7 n=81 v=79
48795 Off ch=7 n=81 v=64
48795 Off ch=7 n=73 v=64
48795 Off ch=7 n=78 v=64
48960 On ch=7 n=75 v=79
48960 On ch=7 n=71 v=79
48960 On ch=7 n=80 v=79
49595 Off ch=7 n=80 v=64
49595 Off ch=7 n=71 v=64
49595 Off ch=7 n=75 v=64
50160 On ch=7 n=81 v=79
50280 Off ch=7 n=81 v=64
50280 On ch=7 n=80 v=79
50360 Off ch=7 n=80 v=64
50400 On ch=7 n=78 v=79
50480 Off ch=7 n=78 v=64
50520 On ch=7 n=85 v=79
50800 Off ch=7 n=85 v=64
51120 On ch=7 n=80 v=79
51120 On ch=7 n=76 v=79
51120 On ch=7 n=83 v=79
51675 Off ch=7 n=83 v=64
51675 Off ch=7 n=76 v=64
51675 Off ch=7 n=80 v=64
52080 On ch=7 n=78 v=79
52080 On ch=7 n=73 v=79
52080 On ch=7 n=81 v=79
52635 Off ch=7 n=81 v=64
52635 Off ch=7 n=73 v=64
52635 Off ch=7 n=78 v=64
52800 On ch=7 n=75 v=79
52800 On ch=7 n=71 v=79
52800 On ch=7 n=80 v=79
53435 Off ch=7 n=80 v=64
53435 Off ch=7 n=71 v=64
53435 Off ch=7 n=75 v=64
54000 On ch=7 n=78 v=79
54000 On ch=7 n=81 v=79
54080 Off ch=7 n=78 v=64
54120 Off ch=7 n=81 v=64
54120 On ch=7 n=80 v=79
54200 Off ch=7 n=80 v=64
54240 On ch=7 n=78 v=79
54240 On ch=7 n=81 v=79
54320 Off ch=7 n=81 v=64
54320 Off ch=7 n=78 v=64
54360 On ch=7 n=76 v=79
54360 On ch=7 n=85 v=79
54640 Off ch=7 n=85 v=64
54640 Off ch=7 n=76 v=64
54960 On ch=7 n=80 v=79
54960 On ch=7 n=76 v=79
54960 On ch=7 n=83 v=79
55515 Off ch=7 n=83 v=64
55515 Off ch=7 n=76 v=64
55515 Off ch=7 n=80 v=64
55920 On ch=7 n=78 v=79
55920 On ch=7 n=73 v=79
55920 On ch=7 n=81 v=79
56475 Off ch=7 n=81 v=64
56475 Off ch=7 n=73 v=64
56475 Off ch=7 n=78 v=64
56640 On ch=7 n=75 v=79
56640 On ch=7 n=71 v=79
56640 On ch=7 n=80 v=79
57275 Off ch=7 n=80 v=64
57275 Off ch=7 n=71 v=64
57275 Off ch=7 n=75 v=64
57840 On ch=7 n=81 v=79
57960 Off ch=7 n=81 v=64
57960 On ch=7 n=80 v=79
58040 Off ch=7 n=80 v=64
58080 On ch=7 n=81 v=79
58160 Off ch=7 n=81 v=64
58200 On ch=7 n=85 v=79
58480 Off ch=7 n=85 v=64
58560 On ch=7 n=81 v=79
58680 Off ch=7 n=81 v=64
58680 On ch=7 n=80 v=79
58760 Off ch=7 n=80 v=64
58800 On ch=7 n=81 v=79
58880 Off ch=7 n=81 v=64
58920 On ch=7 n=85 v=79
59355 Off ch=7 n=85 v=64
69360 On ch=7 n=80 v=79
69360 On ch=7 n=76 v=79
69360 On ch=7 n=83 v=79
69915 Off ch=7 n=83 v=64
69915 Off ch=7 n=76 v=64
69915 Off ch=7 n=80 v=64
70320 On ch=7 n=81 v=79
70320 On ch=7 n=73 v=79
70320 On ch=7 n=85 v=79
70875 Off ch=7 n=85 v=64
70875 Off ch=7 n=73 v=64
70875 Off ch=7 n=81 v=64
71040 On ch=7 n=71 v=79
71040 On ch=7 n=75 v=79
71040 On ch=7 n=80 v=79
71675 Off ch=7 n=80 v=64
71675 Off ch=7 n=75 v=64
71675 Off ch=7 n=71 v=64
72240 On ch=7 n=78 v=79
72240 On ch=7 n=73 v=79
72240 On ch=7 n=81 v=79
72320 Off ch=7 n=73 v=64
72320 Off ch=7 n=78 v=64
72360 Off ch=7 n=81 v=64
72360 On ch=7 n=80 v=79
72440 Off ch=7 n=80 v=64
72480 On ch=7 n=78 v=79
72480 On ch=7 n=73 v=79
72480 On ch=7 n=81 v=79
72560 Off ch=7 n=81 v=64
72560 Off ch=7 n=73 v=64
72560 Off ch=7 n=78 v=64
72600 On ch=7 n=81 v=79
72600 On ch=7 n=76 v=79
72600 On ch=7 n=85 v=79
72880 Off ch=7 n=85 v=64
72880 Off ch=7 n=76 v=64
72880 Off ch=7 n=81 v=64
73200 On ch=7 n=80 v=79
73200 On ch=7 n=76 v=79
73200 On ch=7 n=83 v=79
73755 Off ch=7 n=83 v=64
73755 Off ch=7 n=76 v=64
73755 Off ch=7 n=80 v=64
74160 On ch=7 n=80 v=79
74160 On ch=7 n=76 v=79
74160 On ch=7 n=83 v=79
74715 Off ch=7 n=83 v=64
74715 Off ch=7 n=76 v=64
74715 Off ch=7 n=80 v=64
74880 On ch=7 n=75 v=79
74880 On ch=7 n=71 v=79
74880 On ch=7 n=80 v=79
75515 Off ch=7 n=80 v=64
75515 Off ch=7 n=71 v=64
75515 Off ch=7 n=75 v=64
76080 On ch=7 n=78 v=79
76080 On ch=7 n=73 v=79
76080 On ch=7 n=81 v=79
76160 Off ch=7 n=73 v=64
76160 Off ch=7 n=78 v=64
76200 Off ch=7 n=81 v=64
76200 On ch=7 n=80 v=79
76280 Off ch=7 n=80 v=64
76320 On ch=7 n=78 v=79
76320 On ch=7 n=73 v=79
76320 On ch=7 n=81 v=79
76400 Off ch=7 n=81 v=64
76400 Off ch=7 n=73 v=64
76400 Off ch=7 n=78 v=64
76440 On ch=7 n=81 v=79
76440 On ch=7 n=76 v=79
76440 On ch=7 n=85 v=79
76720 Off ch=7 n=85 v=64
76720 Off ch=7 n=76 v=64
76720 Off ch=7 n=81 v=64
77040 On ch=7 n=80 v=79
77040 On ch=7 n=76 v=79
77040 On ch=7 n=83 v=79
77595 Off ch=7 n=83 v=64
77595 Off ch=7 n=76 v=64
77595 Off ch=7 n=80 v=64
78000 On ch=7 n=78 v=79
78000 On ch=7 n=73 v=79
78000 On ch=7 n=81 v=79
78475 Off ch=7 n=81 v=64
78475 Off ch=7 n=73 v=64
78475 Off ch=7 n=78 v=64
78720 On ch=7 n=75 v=79
78720 On ch=7 n=71 v=79
78720 On ch=7 n=80 v=79
79355 Off ch=7 n=80 v=64
79355 Off ch=7 n=71 v=64
79355 Off ch=7 n=75 v=64
79920 On ch=7 n=78 v=79
79920 On ch=7 n=73 v=79
79920 On ch=7 n=81 v=79
80000 Off ch=7 n=73 v=64
80000 Off ch=7 n=78 v=64
80040 Off ch=7 n=81 v=64
80040 On ch=7 n=80 v=79
80120 Off ch=7 n=80 v=64
80160 On ch=7 n=78 v=79
80160 On ch=7 n=73 v=79
80160 On ch=7 n=81 v=79
80240 Off ch=7 n=81 v=64
80240 Off ch=7 n=73 v=64
80240 Off ch=7 n=78 v=64
80280 On ch=7 n=81 v=79
80280 On ch=7 n=76 v=79
80280 On ch=7 n=85 v=79
80560 Off ch=7 n=85 v=64
80560 Off ch=7 n=76 v=64
80560 Off ch=7 n=81 v=64
80880 On ch=7 n=80 v=79
80880 On ch=7 n=76 v=79
80880 On ch=7 n=83 v=79
81355 Off ch=7 n=83 v=64
81355 Off ch=7 n=76 v=64
81355 Off ch=7 n=80 v=64
81840 On ch=7 n=78 v=79
81840 On ch=7 n=73 v=79
81840 On ch=7 n=81 v=79
82395 Off ch=7 n=81 v=64
82395 Off ch=7 n=73 v=64
82395 Off ch=7 n=78 v=64
82560 On ch=7 n=75 v=79
82560 On ch=7 n=71 v=79
82560 On ch=7 n=80 v=79
83195 Off ch=7 n=80 v=64
83195 Off ch=7 n=71 v=64
83195 Off ch=7 n=75 v=64
83760 On ch=7 n=78 v=79
83760 On ch=7 n=73 v=79
83760 On ch=7 n=81 v=79
83840 Off ch=7 n=73 v=64
83840 Off ch=7 n=78 v=64
83880 Off ch=7 n=81 v=64
83880 On ch=7 n=80 v=79
83960 Off ch=7 n=80 v=64
84000 On ch=7 n=78 v=79
84000 On ch=7 n=73 v=79
84000 On ch=7 n=81 v=79
84080 Off ch=7 n=81 v=64
84080 Off ch=7 n=73 v=64
84080 Off ch=7 n=78 v=64
84120 On ch=7 n=81 v=79
84120 On ch=7 n=76 v=79
84120 On ch=7 n=85 v=79
84400 Off ch=7 n=85 v=64
84400 Off ch=7 n=76 v=64
84400 Off ch=7 n=81 v=64
84480 On ch=7 n=78 v=79
84480 On ch=7 n=73 v=79
84480 On ch=7 n=81 v=79
84560 Off ch=7 n=73 v=64
84560 Off ch=7 n=78 v=64
84600 Off ch=7 n=81 v=64
84600 On ch=7 n=80 v=79
84680 Off ch=7 n=80 v=64
84720 On ch=7 n=78 v=79
84720 On ch=7 n=73 v=79
84720 On ch=7 n=81 v=79
84800 Off ch=7 n=81 v=64
84800 Off ch=7 n=73 v=64
84800 Off ch=7 n=78 v=64
84840 On ch=7 n=81 v=79
84840 On ch=7 n=76 v=79
84840 On ch=7 n=85 v=79
85275 Off ch=7 n=85 v=64
85275 Off ch=7 n=76 v=64
85275 Off ch=7 n=81 v=64
87480 On ch=7 n=76 v=95
87560 Off ch=7 n=76 v=64
87600 On ch=7 n=71 v=95
87680 Off ch=7 n=71 v=64
87720 On ch=7 n=76 v=95
87800 Off ch=7 n=76 v=64
87840 On ch=7 n=71 v=95
87920 Off ch=7 n=71 v=64
87960 On ch=7 n=78 v=95
88040 Off ch=7 n=78 v=64
88080 On ch=7 n=71 v=95
88160 Off ch=7 n=71 v=64
88200 On ch=7 n=76 v=95
88280 Off ch=7 n=76 v=64
88440 On ch=7 n=73 v=95
88520 Off ch=7 n=73 v=64
88560 On ch=7 n=69 v=95
88640 Off ch=7 n=69 v=64
88680 On ch=7 n=73 v=95
88760 Off ch=7 n=73 v=64
88800 On ch=7 n=69 v=95
88880 Off ch=7 n=69 v=64
88920 On ch=7 n=73 v=95
89000 Off ch=7 n=73 v=64
89040 On ch=7 n=69 v=95
89120 Off ch=7 n=69 v=64
89160 On ch=7 n=73 v=95
89240 Off ch=7 n=73 v=64
89400 On ch=7 n=76 v=95
89480 Off ch=7 n=76 v=64
89520 On ch=7 n=71 v=95
89600 Off ch=7 n=71 v=64
89640 On ch=7 n=76 v=95
89720 Off ch=7 n=76 v=64
89760 On ch=7 n=71 v=95
89840 Off ch=7 n=71 v=64
89880 On ch=7 n=76 v=95
89960 Off ch=7 n=76 v=64
90000 On ch=7 n=71 v=95
90080 Off ch=7 n=71 v=64
90120 On ch=7 n=76 v=95
90200 Off ch=7 n=76 v=64
90360 On ch=7 n=73 v=95
90440 Off ch=7 n=73 v=64
90480 On ch=7 n=69 v=95
90560 Off ch=7 n=69 v=64
90600 On ch=7 n=73 v=95
90680 Off ch=7 n=73 v=64
90720 On ch=7 n=69 v=95
90800 Off ch=7 n=69 v=64
90840 On ch=7 n=75 v=95
90920 Off ch=7 n=75 v=64
90960 On ch=7 n=69 v=95
91040 Off ch=7 n=69 v=64
91080 On ch=7 n=73 v=95
91160 Off ch=7 n=73 v=64
91200 On ch=7 n=71 v=95
91280 Off ch=7 n=71 v=64
91320 On ch=7 n=76 v=95
91400 Off ch=7 n=76 v=64
91440 On ch=7 n=71 v=95
91520 Off ch=7 n=71 v=64
91560 On ch=7 n=76 v=95
91640 Off ch=7 n=76 v=64
91680 On ch=7 n=71 v=95
91760 Off ch=7 n=71 v=64
91800 On ch=7 n=76 v=95
91880 Off ch=7 n=76 v=64
91920 On ch=7 n=71 v=95
92000 Off ch=7 n=71 v=64
92040 On ch=7 n=76 v=95
92120 Off ch=7 n=76 v=64
92160 On ch=7 n=69 v=95
92240 Off ch=7 n=69 v=64
92280 On ch=7 n=73 v=95
92360 Off ch=7 n=73 v=64
92400 On ch=7 n=69 v=95
92480 Off ch=7 n=69 v=64
92520 On ch=7 n=73 v=95
92600 Off ch=7 n=73 v=64
92640 On ch=7 n=69 v=95
92720 Off ch=7 n=69 v=64
92760 On ch=7 n=73 v=95
92840 Off ch=7 n=73 v=64
92880 On ch=7 n=69 v=95
92960 Off ch=7 n=69 v=64
93000 On ch=7 n=73 v=95
93080 Off ch=7 n=73 v=64
93120 On ch=7 n=71 v=95
93200 Off ch=7 n=71 v=64
93240 On ch=7 n=76 v=95
93320 Off ch=7 n=76 v=64
93360 On ch=7 n=71 v=95
93440 Off ch=7 n=71 v=64
93480 On ch=7 n=76 v=95
93560 Off ch=7 n=76 v=64
93600 On ch=7 n=71 v=95
93680 Off ch=7 n=71 v=64
93720 On ch=7 n=76 v=95
93800 Off ch=7 n=76 v=64
93840 On ch=7 n=71 v=95
93920 Off ch=7 n=71 v=64
93960 On ch=7 n=76 v=95
94040 Off ch=7 n=76 v=64
94080 On ch=7 n=73 v=95
94160 Off ch=7 n=73 v=64
94200 On ch=7 n=76 v=95
94280 Off ch=7 n=76 v=64
94320 On ch=7 n=73 v=95
94400 Off ch=7 n=73 v=64
94440 On ch=7 n=76 v=95
94520 Off ch=7 n=76 v=64
94560 On ch=7 n=71 v=95
94640 Off ch=7 n=71 v=64
94680 On ch=7 n=76 v=95
94760 Off ch=7 n=76 v=64
94800 On ch=7 n=71 v=95
94880 Off ch=7 n=71 v=64
94920 On ch=7 n=76 v=95
95000 Off ch=7 n=76 v=64
95160 On ch=7 n=76 v=111
95240 Off ch=7 n=76 v=64
95280 On ch=7 n=71 v=111
95360 Off ch=7 n=71 v=64
95400 On ch=7 n=76 v=111
95480 Off ch=7 n=76 v=64
95520 On ch=7 n=71 v=111
95600 Off ch=7 n=71 v=64
95640 On ch=7 n=78 v=111
95720 Off ch=7 n=78 v=64
95760 On ch=7 n=71 v=111
95840 Off ch=7 n=71 v=64
95880 On ch=7 n=76 v=111
95960 Off ch=7 n=76 v=64
96120 On ch=7 n=73 v=111
96200 Off ch=7 n=73 v=64
96240 On ch=7 n=69 v=111
96320 Off ch=7 n=69 v=64
96360 On ch=7 n=73 v=111
96440 Off ch=7 n=73 v=64
96480 On ch=7 n=69 v=111
96560 Off ch=7 n=69 v=64
96600 On ch=7 n=73 v=111
96680 Off ch=7 n=73 v=64
96720 On ch=7 n=69 v=111
96800 Off ch=7 n=69 v=64
96840 On ch=7 n=73 v=111
96920 Off ch=7 n=73 v=64
97080 On ch=7 n=76 v=111
97160 Off ch=7 n=76 v=64
97200 On ch=7 n=71 v=111
97280 Off ch=7 n=71 v=64
97320 On ch=7 n=76 v=111
97400 Off ch=7 n=76 v=64
97440 On ch=7 n=71 v=111
97520 Off ch=7 n=71 v=64
97560 On ch=7 n=76 v=111
97640 Off ch=7 n=76 v=64
97680 On ch=7 n=71 v=111
97760 Off ch=7 n=71 v=64
97800 On ch=7 n=76 v=111
97880 Off ch=7 n=76 v=64
98040 On ch=7 n=73 v=111
98120 Off ch=7 n=73 v=64
98160 On ch=7 n=69 v=111
98240 Off ch=7 n=69 v=64
98280 On ch=7 n=73 v=111
98360 Off ch=7 n=73 v=64
98400 On ch=7 n=69 v=111
98480 Off ch=7 n=69 v=64
98520 On ch=7 n=75 v=111
98600 Off ch=7 n=75 v=64
98640 On ch=7 n=69 v=111
98720 Off ch=7 n=69 v=64
98760 On ch=7 n=73 v=111
98840 Off ch=7 n=73 v=64
98880 On ch=7 n=71 v=111
98960 Off ch=7 n=71 v=64
99000 On ch=7 n=76 v=111
99080 Off ch=7 n=76 v=64
99120 On ch=7 n=71 v=111
99200 Off ch=7 n=71 v=64
99240 On ch=7 n=76 v=111
99320 Off ch=7 n=76 v=64
99360 On ch=7 n=71 v=111
99440 Off ch=7 n=71 v=64
99480 On ch=7 n=76 v=111
99560 Off ch=7 n=76 v=64
99600 On ch=7 n=71 v=111
99680 Off ch=7 n=71 v=64
99720 On ch=7 n=76 v=111
99800 Off ch=7 n=76 v=64
99840 On ch=7 n=69 v=111
99920 Off ch=7 n=69 v=64
99960 On ch=7 n=73 v=111
100040 Off ch=7 n=73 v=64
100080 On ch=7 n=69 v=111
100160 Off ch=7 n=69 v=64
100200 On ch=7 n=73 v=111
100280 Off ch=7 n=73 v=64
100320 On ch=7 n=69 v=111
100400 Off ch=7 n=69 v=64
100440 On ch=7 n=73 v=111
100520 Off ch=7 n=73 v=64
100560 On ch=7 n=69 v=111
100640 Off ch=7 n=69 v=64
100680 On ch=7 n=73 v=111
100760 Off ch=7 n=73 v=64
100800 On ch=7 n=71 v=111
100880 Off ch=7 n=71 v=64
100920 On ch=7 n=76 v=111
101000 Off ch=7 n=76 v=64
101040 On ch=7 n=71 v=111
101120 Off ch=7 n=71 v=64
101160 On ch=7 n=76 v=111
101240 Off ch=7 n=76 v=64
101280 On ch=7 n=71 v=111
101360 Off ch=7 n=71 v=64
101400 On ch=7 n=76 v=111
101480 Off ch=7 n=76 v=64
101520 On ch=7 n=71 v=111
101600 Off ch=7 n=71 v=64
101640 On ch=7 n=76 v=111
101720 Off ch=7 n=76 v=64
101760 On ch=7 n=73 v=111
101840 Off ch=7 n=73 v=64
101880 On ch=7 n=76 v=111
101960 Off ch=7 n=76 v=64
102000 On ch=7 n=73 v=111
102080 Off ch=7 n=73 v=64
102120 On ch=7 n=76 v=111
102200 Off ch=7 n=76 v=64
102240 On ch=7 n=71 v=111
102320 Off ch=7 n=71 v=64
102360 On ch=7 n=76 v=111
102440 Off ch=7 n=76 v=64
102480 On ch=7 n=71 v=111
102560 Off ch=7 n=71 v=64
102600 On ch=7 n=76 v=111
102680 Off ch=7 n=76 v=64
102720 On ch=7 n=71 v=127
102800 Off ch=7 n=71 v=64
102840 On ch=7 n=76 v=127
102920 Off ch=7 n=76 v=64
102960 On ch=7 n=71 v=127
103040 Off ch=7 n=71 v=64
103080 On ch=7 n=76 v=127
103160 Off ch=7 n=76 v=64
103200 On ch=7 n=71 v=127
103280 Off ch=7 n=71 v=64
103320 On ch=7 n=76 v=127
103400 Off ch=7 n=76 v=64
103440 On ch=7 n=71 v=127
103520 Off ch=7 n=71 v=64
103560 On ch=7 n=76 v=127
103640 Off ch=7 n=76 v=64
103680 On ch=7 n=69 v=127
103760 Off ch=7 n=69 v=64
103800 On ch=7 n=73 v=127
103880 Off ch=7 n=73 v=64
103920 On ch=7 n=69 v=127
104000 Off ch=7 n=69 v=64
104040 On ch=7 n=73 v=127
104120 Off ch=7 n=73 v=64
104160 On ch=7 n=69 v=127
104240 Off ch=7 n=69 v=64
104280 On ch=7 n=73 v=127
104360 Off ch=7 n=73 v=64
104400 On ch=7 n=69 v=127
104480 Off ch=7 n=69 v=64
104520 On ch=7 n=73 v=127
104600 Off ch=7 n=73 v=64
104640 On ch=7 n=71 v=127
104720 Off ch=7 n=71 v=64
104760 On ch=7 n=76 v=127
104840 Off ch=7 n=76 v=64
104880 On ch=7 n=71 v=127
104960 Off ch=7 n=71 v=64
105000 On ch=7 n=76 v=127
105080 Off ch=7 n=76 v=64
105120 On ch=7 n=71 v=127
105200 Off ch=7 n=71 v=64
105240 On ch=7 n=76 v=127
105320 Off ch=7 n=76 v=64
105360 On ch=7 n=71 v=127
105520 Off ch=7 n=71 v=64
105600 On ch=7 n=81 v=111
105630 Off ch=7 n=81 v=64
105630 On ch=7 n=81 v=111
105660 Off ch=7 n=81 v=64
105660 On ch=7 n=81 v=111
105690 Off ch=7 n=81 v=64
105690 On ch=7 n=81 v=111
105720 Off ch=7 n=81 v=64
105720 On ch=7 n=81 v=111
105750 Off ch=7 n=81 v=64
105750 On ch=7 n=81 v=111
105780 Off ch=7 n=81 v=64
105780 On ch=7 n=81 v=111
105810 Off ch=7 n=81 v=64
105810 On ch=7 n=81 v=111
105840 Off ch=7 n=81 v=64
105840 On ch=7 n=81 v=111
105870 Off ch=7 n=81 v=64
105870 On ch=7 n=81 v=111
105900 Off ch=7 n=81 v=64
105900 On ch=7 n=81 v=111
105930 Off ch=7 n=81 v=64
105930 On ch=7 n=81 v=111
105960 Off ch=7 n=81 v=64
105960 On ch=7 n=81 v=111
105990 Off ch=7 n=81 v=64
105990 On ch=7 n=81 v=111
106020 Off ch=7 n=81 v=64
106020 On ch=7 n=81 v=111
106050 Off ch=7 n=81 v=64
106050 On ch=7 n=81 v=111
106080 Off ch=7 n=81 v=64
106080 On ch=7 n=76 v=111
106110 Off ch=7 n=76 v=64
106110 On ch=7 n=76 v=111
106140 Off ch=7 n=76 v=64
106140 On ch=7 n=76 v=111
106170 Off ch=7 n=76 v=64
106170 On ch=7 n=76 v=111
106200 Off ch=7 n=76 v=64
106200 On ch=7 n=76 v=111
106230 Off ch=7 n=76 v=64
106230 On ch=7 n=76 v=111
106260 Off ch=7 n=76 v=64
106260 On ch=7 n=76 v=111
106290 Off ch=7 n=76 v=64
106290 On ch=7 n=76 v=111
106320 Off ch=7 n=76 v=64
106320 On ch=7 n=76 v=111
106350 Off ch=7 n=76 v=64
106350 On ch=7 n=76 v=111
106380 Off ch=7 n=76 v=64
106380 On ch=7 n=76 v=111
106410 Off ch=7 n=76 v=64
106410 On ch=7 n=76 v=111
106440 Off ch=7 n=76 v=64
106440 On ch=7 n=76 v=111
106470 Off ch=7 n=76 v=64
106470 On ch=7 n=76 v=111
106500 Off ch=7 n=76 v=64
106500 On ch=7 n=76 v=111
106530 Off ch=7 n=76 v=64
106530 On ch=7 n=76 v=111
106560 Off ch=7 n=76 v=64
106560 On ch=7 n=73 v=111
106590 Off ch=7 n=73 v=64
106590 On ch=7 n=73 v=111
106620 Off ch=7 n=73 v=64
106620 On ch=7 n=73 v=111
106650 Off ch=7 n=73 v=64
106650 On ch=7 n=73 v=111
106680 Off ch=7 n=73 v=64
106680 On ch=7 n=73 v=111
106710 Off ch=7 n=73 v=64
106710 On ch=7 n=73 v=111
106740 Off ch=7 n=73 v=64
106740 On ch=7 n=73 v=111
106770 Off ch=7 n=73 v=64
106770 On ch=7 n=73 v=111
106800 Off ch=7 n=73 v=64
106800 On ch=7 n=73 v=111
106830 Off ch=7 n=73 v=64
106830 On ch=7 n=73 v=111
106860 Off ch=7 n=73 v=64
106860 On ch=7 n=73 v=111
106890 Off ch=7 n=73 v=64
106890 On ch=7 n=73 v=111
106920 Off ch=7 n=73 v=64
106920 On ch=7 n=73 v=111
106950 Off ch=7 n=73 v=64
106950 On ch=7 n=73 v=111
106980 Off ch=7 n=73 v=64
106980 On ch=7 n=73 v=111
107010 Off ch=7 n=73 v=64
107010 On ch=7 n=73 v=111
107040 Off ch=7 n=73 v=64
107040 On ch=7 n=69 v=111
107070 Off ch=7 n=69 v=64
107070 On ch=7 n=69 v=111
107100 Off ch=7 n=69 v=64
107100 On ch=7 n=69 v=111
107130 Off ch=7 n=69 v=64
107130 On ch=7 n=69 v=111
107160 Off ch=7 n=69 v=64
107160 On ch=7 n=69 v=111
107190 Off ch=7 n=69 v=64
107190 On ch=7 n=69 v=111
107220 Off ch=7 n=69 v=64
107220 On ch=7 n=69 v=111
107250 Off ch=7 n=69 v=64
107250 On ch=7 n=69 v=111
107280 Off ch=7 n=69 v=64
107280 On ch=7 n=69 v=111
107310 Off ch=7 n=69 v=64
107310 On ch=7 n=69 v=111
107340 Off ch=7 n=69 v=64
107340 On ch=7 n=69 v=111
107370 Off ch=7 n=69 v=64
107370 On ch=7 n=69 v=111
107400 Off ch=7 n=69 v=64
107400 On ch=7 n=69 v=111
107430 Off ch=7 n=69 v=64
107430 On ch=7 n=69 v=111
107460 Off ch=7 n=69 v=64
107460 On ch=7 n=69 v=111
107490 Off ch=7 n=69 v=64
107490 On ch=7 n=69 v=111
107520 Off ch=7 n=69 v=64
107520 On ch=7 n=69 v=127
107680 Off ch=7 n=69 v=64
107680 Meta TrkEnd
TrkEnd
MTrk
0 PrCh ch=8 p=0
0 Par ch=8 c=7 v=96
482 Par ch=8 c=0 v=0
487 Par ch=8 c=32 v=0
497 Par ch=8 c=1 v=0
507 Par ch=8 c=10 v=64
512 Par ch=8 c=11 v=127
517 Par ch=8 c=64 v=0
522 Par ch=8 c=91 v=64
527 Par ch=8 c=93 v=64
532 Pb ch=8 v=8192
532 Meta TrkEnd
TrkEnd
MTrk
0 PrCh ch=9 p=0
0 Par ch=9 c=7 v=96
482 Par ch=9 c=0 v=0
487 Par ch=9 c=32 v=0
497 Par ch=9 c=1 v=0
507 Par ch=9 c=10 v=64
512 Par ch=9 c=11 v=127
517 Par ch=9 c=64 v=0
522 Par ch=9 c=91 v=64
527 Par ch=9 c=93 v=64
532 Pb ch=9 v=8192
532 Meta TrkEnd
TrkEnd
MTrk
0 Meta Text "Drums"
0 PrCh ch=10 p=0
0 Par ch=10 c=7 v=89
482 Par ch=10 c=0 v=0
487 Par ch=10 c=32 v=0
497 Par ch=10 c=1 v=0
507 Par ch=10 c=10 v=64
512 Par ch=10 c=11 v=127
517 Par ch=10 c=64 v=0
522 Par ch=10 c=91 v=64
527 Par ch=10 c=93 v=64
532 Pb ch=10 v=8192
1200 Par ch=10 c=7 v=90
6720 Pb ch=10 v=8192
6720 Par ch=10 c=1 v=0
6720 Par ch=10 c=0 v=0
6720 Par ch=10 c=32 v=0
6720 PrCh ch=10 p=0
6720 Par ch=10 c=64 v=0
6720 Par ch=10 c=10 v=64
6720 Par ch=10 c=11 v=127
6720 Par ch=10 c=91 v=64
6720 Par ch=10 c=93 v=64
13200 On ch=10 n=38 v=84
13320 On ch=10 n=43 v=84
13360 Off ch=10 n=38 v=64
13440 On ch=10 n=36 v=106
13440 On ch=10 n=49 v=63
13440 On ch=10 n=59 v=106
13445 Off ch=10 n=59 v=64
13445 Off ch=10 n=49 v=64
13445 Off ch=10 n=36 v=64
13480 Off ch=10 n=43 v=64
13560 On ch=10 n=59 v=106
13565 Off ch=10 n=59 v=64
13680 On ch=10 n=38 v=106
13680 On ch=10 n=59 v=106
13685 Off ch=10 n=59 v=64
13685 Off ch=10 n=38 v=64
13800 On ch=10 n=59 v=106
13805 Off ch=10 n=59 v=64
13920 On ch=10 n=36 v=106
13920 On ch=10 n=59 v=106
13925 Off ch=10 n=59 v=64
13925 Off ch=10 n=36 v=64
14040 On ch=10 n=59 v=106
14045 Off ch=10 n=59 v=64
14160 On ch=10 n=38 v=106
14160 On ch=10 n=59 v=106
14165 Off ch=10 n=59 v=64
14165 Off ch=10 n=38 v=64
14280 On ch=10 n=59 v=106
14285 Off ch=10 n=59 v=64
14400 On ch=10 n=36 v=106
14400 On ch=10 n=59 v=106
14405 Off ch=10 n=59 v=64
14405 Off ch=10 n=36 v=64
14520 On ch=10 n=59 v=106
14525 Off ch=10 n=59 v=64
14640 On ch=10 n=38 v=106
14640 On ch=10 n=59 v=106
14645 Off ch=10 n=59 v=64
14645 Off ch=10 n=38 v=64
14760 On ch=10 n=59 v=106
14765 Off ch=10 n=59 v=64
14880 On ch=10 n=36 v=106
14880 On ch=10 n=59 v=106
14885 Off ch=10 n=59 v=64
14885 Off ch=10 n=36 v=64
15000 On ch=10 n=59 v=106
15005 Off ch=10 n=59 v=64
15120 On ch=10 n=38 v=106
15120 On ch=10 n=59 v=106
15125 Off ch=10 n=59 v=64
15125 Off ch=10 n=38 v=64
15240 On ch=10 n=59 v=106
15245 Off ch=10 n=59 v=64
15360 On ch=10 n=36 v=106
15360 On ch=10 n=59 v=106
15365 Off ch=10 n=59 v=64
15365 Off ch=10 n=36 v=64
15480 On ch=10 n=59 v=106
15485 Off ch=10 n=59 v=64
15600 On ch=10 n=38 v=106
15600 On ch=10 n=59 v=106
15605 Off ch=10 n=59 v=64
15605 Off ch=10 n=38 v=64
15720 On ch=10 n=59 v=106
15725 Off ch=10 n=59 v=64
15840 On ch=10 n=36 v=106
15840 On ch=10 n=59 v=106
15845 Off ch=10 n=59 v=64
15845 Off ch=10 n=36 v=64
15960 On ch=10 n=59 v=106
15965 Off ch=10 n=59 v=64
16080 On ch=10 n=38 v=106
16080 On ch=10 n=59 v=106
16085 Off ch=10 n=59 v=64
16085 Off ch=10 n=38 v=64
16200 On ch=10 n=59 v=106
16205 Off ch=10 n=59 v=64
16320 On ch=10 n=36 v=106
16320 On ch=10 n=59 v=106
16325 Off ch=10 n=59 v=64
16325 Off ch=10 n=36 v=64
16440 On ch=10 n=59 v=106
16445 Off ch=10 n=59 v=64
16560 On ch=10 n=38 v=106
16560 On ch=10 n=59 v=106
16565 Off ch=10 n=59 v=64
16565 Off ch=10 n=38 v=64
16680 On ch=10 n=59 v=106
16685 Off ch=10 n=59 v=64
16800 On ch=10 n=36 v=106
16800 On ch=10 n=59 v=106
16805 Off ch=10 n=59 v=64
16805 Off ch=10 n=36 v=64
16920 On ch=10 n=59 v=106
16925 Off ch=10 n=59 v=64
17040 On ch=10 n=38 v=106
17040 On ch=10 n=59 v=106
17045 Off ch=10 n=59 v=64
17045 Off ch=10 n=38 v=64
17160 On ch=10 n=36 v=106
17160 On ch=10 n=59 v=106
17165 Off ch=10 n=59 v=64
17280 Off ch=10 n=36 v=64
17280 On ch=10 n=36 v=106
17280 On ch=10 n=49 v=84
17280 On ch=10 n=59 v=106
17285 Off ch=10 n=59 v=64
17285 Off ch=10 n=49 v=64
17285 Off ch=10 n=36 v=64
17400 On ch=10 n=59 v=106
17405 Off ch=10 n=59 v=64
17520 On ch=10 n=38 v=106
17520 On ch=10 n=59 v=106
17525 Off ch=10 n=59 v=64
17525 Off ch=10 n=38 v=64
17640 On ch=10 n=59 v=106
17645 Off ch=10 n=59 v=64
17760 On ch=10 n=36 v=106
17760 On ch=10 n=59 v=106
17765 Off ch=10 n=59 v=64
17765 Off ch=10 n=36 v=64
17880 On ch=10 n=59 v=106
17885 Off ch=10 n=59 v=64
18000 On ch=10 n=38 v=106
18000 On ch=10 n=59 v=106
18005 Off ch=10 n=59 v=64
18005 Off ch=10 n=38 v=64
18120 On ch=10 n=59 v=106
18125 Off ch=10 n=59 v=64
18240 On ch=10 n=36 v=106
18240 On ch=10 n=59 v=106
18245 Off ch=10 n=59 v=64
18245 Off ch=10 n=36 v=64
18360 On ch=10 n=59 v=106
18365 Off ch=10 n=59 v=64
18480 On ch=10 n=38 v=106
18480 On ch=10 n=59 v=106
18485 Off ch=10 n=59 v=64
18485 Off ch=10 n=38 v=64
18600 On ch=10 n=59 v=106
18605 Off ch=10 n=59 v=64
18720 On ch=10 n=36 v=106
18720 On ch=10 n=59 v=106
18725 Off ch=10 n=59 v=64
18725 Off ch=10 n=36 v=64
18840 On ch=10 n=59 v=106
18845 Off ch=10 n=59 v=64
18960 On ch=10 n=38 v=106
18960 On ch=10 n=59 v=106
18965 Off ch=10 n=59 v=64
18965 Off ch=10 n=38 v=64
19080 On ch=10 n=59 v=106
19085 Off ch=10 n=59 v=64
19200 On ch=10 n=36 v=106
19200 On ch=10 n=59 v=106
19205 Off ch=10 n=59 v=64
19205 Off ch=10 n=36 v=64
19320 On ch=10 n=59 v=106
19325 Off ch=10 n=59 v=64
19440 On ch=10 n=38 v=106
19440 On ch=10 n=59 v=106
19445 Off ch=10 n=59 v=64
19445 Off ch=10 n=38 v=64
19560 On ch=10 n=59 v=106
19565 Off ch=10 n=59 v=64
19680 On ch=10 n=36 v=106
19680 On ch=10 n=59 v=106
19685 Off ch=10 n=59 v=64
19685 Off ch=10 n=36 v=64
19800 On ch=10 n=59 v=106
19805 Off ch=10 n=59 v=64
19920 On ch=10 n=38 v=106
19920 On ch=10 n=59 v=106
19925 Off ch=10 n=59 v=64
19925 Off ch=10 n=38 v=64
20040 On ch=10 n=59 v=106
20045 Off ch=10 n=59 v=64
20160 On ch=10 n=36 v=106
20160 On ch=10 n=59 v=106
20165 Off ch=10 n=59 v=64
20165 Off ch=10 n=36 v=64
20280 On ch=10 n=59 v=106
20285 Off ch=10 n=59 v=64
20400 On ch=10 n=38 v=106
20400 On ch=10 n=59 v=106
20405 Off ch=10 n=59 v=64
20405 Off ch=10 n=38 v=64
20520 On ch=10 n=59 v=106
20525 Off ch=10 n=59 v=64
20640 On ch=10 n=36 v=106
20640 On ch=10 n=59 v=106
20645 Off ch=10 n=59 v=64
20645 Off ch=10 n=36 v=64
20760 On ch=10 n=59 v=106
20765 Off ch=10 n=59 v=64
20880 On ch=10 n=38 v=106
20880 On ch=10 n=59 v=106
20885 Off ch=10 n=59 v=64
20885 Off ch=10 n=38 v=64
21000 On ch=10 n=59 v=106
21005 Off ch=10 n=59 v=64
21120 On ch=10 n=36 v=106
21120 On ch=10 n=59 v=106
21125 Off ch=10 n=59 v=64
21125 Off ch=10 n=36 v=64
21240 On ch=10 n=59 v=106
21245 Off ch=10 n=59 v=64
21360 On ch=10 n=38 v=106
21360 On ch=10 n=59 v=106
21365 Off ch=10 n=59 v=64
21365 Off ch=10 n=38 v=64
21480 On ch=10 n=59 v=106
21485 Off ch=10 n=59 v=64
21600 On ch=10 n=36 v=106
21600 On ch=10 n=59 v=106
21605 Off ch=10 n=59 v=64
21605 Off ch=10 n=36 v=64
21720 On ch=10 n=59 v=106
21725 Off ch=10 n=59 v=64
21840 On ch=10 n=38 v=106
21840 On ch=10 n=59 v=106
21845 Off ch=10 n=59 v=64
21845 Off ch=10 n=38 v=64
21960 On ch=10 n=59 v=106
21965 Off ch=10 n=59 v=64
22080 On ch=10 n=36 v=106
22080 On ch=10 n=59 v=106
22085 Off ch=10 n=59 v=64
22085 Off ch=10 n=36 v=64
22200 On ch=10 n=59 v=106
22205 Off ch=10 n=59 v=64
22320 On ch=10 n=38 v=106
22320 On ch=10 n=59 v=106
22325 Off ch=10 n=59 v=64
22325 Off ch=10 n=38 v=64
22440 On ch=10 n=59 v=106
22445 Off ch=10 n=59 v=64
22560 On ch=10 n=36 v=106
22560 On ch=10 n=59 v=106
22565 Off ch=10 n=59 v=64
22565 Off ch=10 n=36 v=64
22680 On ch=10 n=59 v=106
22685 Off ch=10 n=59 v=64
22800 On ch=10 n=38 v=106
22800 On ch=10 n=59 v=106
22805 Off ch=10 n=59 v=64
22805 Off ch=10 n=38 v=64
22920 On ch=10 n=59 v=106
22925 Off ch=10 n=59 v=64
23040 On ch=10 n=36 v=106
23040 On ch=10 n=59 v=106
23045 Off ch=10 n=59 v=64
23045 Off ch=10 n=36 v=64
23160 On ch=10 n=59 v=106
23165 Off ch=10 n=59 v=64
23280 On ch=10 n=38 v=106
23280 On ch=10 n=59 v=106
23285 Off ch=10 n=59 v=64
23285 Off ch=10 n=38 v=64
23400 On ch=10 n=59 v=106
23405 Off ch=10 n=59 v=64
23520 On ch=10 n=36 v=106
23520 On ch=10 n=59 v=106
23525 Off ch=10 n=59 v=64
23525 Off ch=10 n=36 v=64
23640 On ch=10 n=59 v=106
23645 Off ch=10 n=59 v=64
23760 On ch=10 n=38 v=106
23760 On ch=10 n=59 v=106
23765 Off ch=10 n=59 v=64
23765 Off ch=10 n=38 v=64
23880 On ch=10 n=59 v=106
23885 Off ch=10 n=59 v=64
24000 On ch=10 n=36 v=106
24000 On ch=10 n=59 v=106
24005 Off ch=10 n=59 v=64
24005 Off ch=10 n=36 v=64
24120 On ch=10 n=59 v=106
24125 Off ch=10 n=59 v=64
24240 On ch=10 n=38 v=106
24240 On ch=10 n=59 v=106
24245 Off ch=10 n=59 v=64
24245 Off ch=10 n=38 v=64
24360 On ch=10 n=59 v=106
24365 Off ch=10 n=59 v=64
24480 On ch=10 n=36 v=106
24480 On ch=10 n=59 v=106
24485 Off ch=10 n=59 v=64
24485 Off ch=10 n=36 v=64
24600 On ch=10 n=59 v=106
24605 Off ch=10 n=59 v=64
24720 On ch=10 n=38 v=106
24720 On ch=10 n=59 v=106
24725 Off ch=10 n=59 v=64
24725 Off ch=10 n=38 v=64
24840 On ch=10 n=59 v=106
24840 On ch=10 n=36 v=106
24845 Off ch=10 n=36 v=64
24960 Off ch=10 n=59 v=64
24960 On ch=10 n=36 v=106
24960 On ch=10 n=49 v=84
24960 On ch=10 n=59 v=106
24965 Off ch=10 n=59 v=64
24965 Off ch=10 n=49 v=64
24965 Off ch=10 n=36 v=64
25080 On ch=10 n=59 v=106
25085 Off ch=10 n=59 v=64
25200 On ch=10 n=38 v=106
25200 On ch=10 n=59 v=106
25205 Off ch=10 n=59 v=64
25205 Off ch=10 n=38 v=64
25320 On ch=10 n=59 v=106
25325 Off ch=10 n=59 v=64
25440 On ch=10 n=36 v=106
25440 On ch=10 n=59 v=106
25445 Off ch=10 n=59 v=64
25445 Off ch=10 n=36 v=64
25560 On ch=10 n=59 v=106
25565 Off ch=10 n=59 v=64
25680 On ch=10 n=38 v=106
25680 On ch=10 n=59 v=106
25685 Off ch=10 n=59 v=64
25685 Off ch=10 n=38 v=64
25800 On ch=10 n=59 v=106
25805 Off ch=10 n=59 v=64
25920 On ch=10 n=36 v=106
25920 On ch=10 n=59 v=106
25925 Off ch=10 n=59 v=64
25925 Off ch=10 n=36 v=64
26040 On ch=10 n=59 v=106
26045 Off ch=10 n=59 v=64
26160 On ch=10 n=38 v=106
26160 On ch=10 n=59 v=106
26165 Off ch=10 n=59 v=64
26165 Off ch=10 n=38 v=64
26280 On ch=10 n=59 v=106
26285 Off ch=10 n=59 v=64
26400 On ch=10 n=36 v=106
26400 On ch=10 n=59 v=106
26405 Off ch=10 n=59 v=64
26405 Off ch=10 n=36 v=64
26520 On ch=10 n=59 v=106
26525 Off ch=10 n=59 v=64
26640 On ch=10 n=38 v=106
26640 On ch=10 n=59 v=106
26645 Off ch=10 n=59 v=64
26645 Off ch=10 n=38 v=64
26760 On ch=10 n=59 v=106
26765 Off ch=10 n=59 v=64
26880 On ch=10 n=36 v=106
26880 On ch=10 n=59 v=106
26885 Off ch=10 n=59 v=64
26885 Off ch=10 n=36 v=64
27000 On ch=10 n=59 v=106
27005 Off ch=10 n=59 v=64
27120 On ch=10 n=38 v=106
27120 On ch=10 n=59 v=106
27125 Off ch=10 n=59 v=64
27125 Off ch=10 n=38 v=64
27240 On ch=10 n=59 v=106
27245 Off ch=10 n=59 v=64
27360 On ch=10 n=36 v=106
27360 On ch=10 n=59 v=106
27365 Off ch=10 n=59 v=64
27365 Off ch=10 n=36 v=64
27480 On ch=10 n=59 v=106
27485 Off ch=10 n=59 v=64
27600 On ch=10 n=38 v=106
27600 On ch=10 n=59 v=106
27605 Off ch=10 n=59 v=64
27605 Off ch=10 n=38 v=64
27720 On ch=10 n=59 v=106
27725 Off ch=10 n=59 v=64
27840 On ch=10 n=36 v=106
27840 On ch=10 n=59 v=106
27845 Off ch=10 n=59 v=64
27845 Off ch=10 n=36 v=64
27960 On ch=10 n=59 v=106
27965 Off ch=10 n=59 v=64
28080 On ch=10 n=38 v=106
28080 On ch=10 n=59 v=106
28085 Off ch=10 n=59 v=64
28085 Off ch=10 n=38 v=64
28200 On ch=10 n=59 v=106
28205 Off ch=10 n=59 v=64
28320 On ch=10 n=36 v=106
28320 On ch=10 n=59 v=106
28325 Off ch=10 n=59 v=64
28325 Off ch=10 n=36 v=64
28440 On ch=10 n=59 v=106
28445 Off ch=10 n=59 v=64
28560 On ch=10 n=38 v=106
28560 On ch=10 n=59 v=106
28565 Off ch=10 n=59 v=64
28565 Off ch=10 n=38 v=64
28680 On ch=10 n=59 v=106
28685 Off ch=10 n=59 v=64
28800 On ch=10 n=36 v=106
28800 On ch=10 n=59 v=106
28805 Off ch=10 n=59 v=64
28805 Off ch=10 n=36 v=64
28920 On ch=10 n=59 v=106
28925 Off ch=10 n=59 v=64
29040 On ch=10 n=38 v=106
29040 On ch=10 n=59 v=106
29045 Off ch=10 n=59 v=64
29045 Off ch=10 n=38 v=64
29160 On ch=10 n=59 v=106
29165 Off ch=10 n=59 v=64
29280 On ch=10 n=36 v=106
29280 On ch=10 n=59 v=106
29285 Off ch=10 n=59 v=64
29285 Off ch=10 n=36 v=64
29400 On ch=10 n=59 v=106
29405 Off ch=10 n=59 v=64
29520 On ch=10 n=38 v=106
29520 On ch=10 n=59 v=106
29525 Off ch=10 n=59 v=64
29525 Off ch=10 n=38 v=64
29640 On ch=10 n=59 v=106
29645 Off ch=10 n=59 v=64
29760 On ch=10 n=36 v=106
29760 On ch=10 n=59 v=106
29765 Off ch=10 n=59 v=64
29765 Off ch=10 n=36 v=64
29880 On ch=10 n=59 v=106
29885 Off ch=10 n=59 v=64
30000 On ch=10 n=38 v=106
30000 On ch=10 n=59 v=106
30005 Off ch=10 n=59 v=64
30005 Off ch=10 n=38 v=64
30120 On ch=10 n=59 v=106
30125 Off ch=10 n=59 v=64
30240 On ch=10 n=36 v=106
30240 On ch=10 n=59 v=106
30245 Off ch=10 n=59 v=64
30245 Off ch=10 n=36 v=64
30360 On ch=10 n=59 v=106
30365 Off ch=10 n=59 v=64
30480 On ch=10 n=38 v=106
30480 On ch=10 n=59 v=106
30485 Off ch=10 n=59 v=64
30485 Off ch=10 n=38 v=64
30600 On ch=10 n=59 v=106
30605 Off ch=10 n=59 v=64
30720 On ch=10 n=36 v=106
30720 On ch=10 n=59 v=106
30725 Off ch=10 n=59 v=64
30725 Off ch=10 n=36 v=64
30840 On ch=10 n=59 v=106
30845 Off ch=10 n=59 v=64
30960 On ch=10 n=38 v=106
30960 On ch=10 n=59 v=106
30965 Off ch=10 n=59 v=64
30965 Off ch=10 n=38 v=64
31080 On ch=10 n=59 v=106
31085 Off ch=10 n=59 v=64
31200 On ch=10 n=36 v=106
31200 On ch=10 n=59 v=106
31205 Off ch=10 n=59 v=64
31205 Off ch=10 n=36 v=64
31320 On ch=10 n=59 v=106
31325 Off ch=10 n=59 v=64
31440 On ch=10 n=38 v=106
31440 On ch=10 n=59 v=106
31445 Off ch=10 n=59 v=64
31445 Off ch=10 n=38 v=64
31560 On ch=10 n=36 v=106
31560 On ch=10 n=59 v=106
31565 Off ch=10 n=59 v=64
31565 Off ch=10 n=36 v=64
31680 On ch=10 n=36 v=106
31680 On ch=10 n=49 v=84
31680 On ch=10 n=59 v=106
31685 Off ch=10 n=59 v=64
31685 Off ch=10 n=49 v=64
31685 Off ch=10 n=36 v=64
31800 On ch=10 n=59 v=106
31805 Off ch=10 n=59 v=64
31920 On ch=10 n=38 v=106
31920 On ch=10 n=59 v=106
31925 Off ch=10 n=59 v=64
31925 Off ch=10 n=38 v=64
32040 On ch=10 n=59 v=106
32045 Off ch=10 n=59 v=64
32160 On ch=10 n=36 v=106
32160 On ch=10 n=59 v=106
32165 Off ch=10 n=59 v=64
32165 Off ch=10 n=36 v=64
32280 On ch=10 n=59 v=106
32285 Off ch=10 n=59 v=64
32400 On ch=10 n=38 v=106
32400 On ch=10 n=59 v=106
32405 Off ch=10 n=59 v=64
32405 Off ch=10 n=38 v=64
32520 On ch=10 n=59 v=106
32525 Off ch=10 n=59 v=64
32640 On ch=10 n=36 v=106
32640 On ch=10 n=59 v=106
32645 Off ch=10 n=59 v=64
32645 Off ch=10 n=36 v=64
32760 On ch=10 n=59 v=106
32765 Off ch=10 n=59 v=64
32880 On ch=10 n=38 v=106
32880 On ch=10 n=59 v=106
32885 Off ch=10 n=59 v=64
32885 Off ch=10 n=38 v=64
33000 On ch=10 n=59 v=106
33005 Off ch=10 n=59 v=64
33120 On ch=10 n=36 v=106
33120 On ch=10 n=59 v=106
33125 Off ch=10 n=59 v=64
33125 Off ch=10 n=36 v=64
33240 On ch=10 n=59 v=106
33245 Off ch=10 n=59 v=64
33360 On ch=10 n=38 v=106
33360 On ch=10 n=59 v=106
33365 Off ch=10 n=59 v=64
33365 Off ch=10 n=38 v=64
33480 On ch=10 n=59 v=106
33485 Off ch=10 n=59 v=64
33600 On ch=10 n=36 v=106
33600 On ch=10 n=59 v=106
33605 Off ch=10 n=59 v=64
33605 Off ch=10 n=36 v=64
33720 On ch=10 n=59 v=106
33725 Off ch=10 n=59 v=64
33840 On ch=10 n=38 v=106
33840 On ch=10 n=59 v=106
33845 Off ch=10 n=59 v=64
33845 Off ch=10 n=38 v=64
33960 On ch=10 n=59 v=106
33965 Off ch=10 n=59 v=64
34080 On ch=10 n=36 v=106
34080 On ch=10 n=59 v=106
34085 Off ch=10 n=59 v=64
34085 Off ch=10 n=36 v=64
34200 On ch=10 n=59 v=106
34205 Off ch=10 n=59 v=64
34320 On ch=10 n=38 v=106
34320 On ch=10 n=59 v=106
34325 Off ch=10 n=59 v=64
34325 Off ch=10 n=38 v=64
34440 On ch=10 n=59 v=106
34445 Off ch=10 n=59 v=64
34560 On ch=10 n=36 v=106
34560 On ch=10 n=59 v=106
34565 Off ch=10 n=59 v=64
34565 Off ch=10 n=36 v=64
34680 On ch=10 n=59 v=106
34685 Off ch=10 n=59 v=64
34800 On ch=10 n=38 v=106
34800 On ch=10 n=59 v=106
34805 Off ch=10 n=59 v=64
34805 Off ch=10 n=38 v=64
34920 On ch=10 n=59 v=106
34925 Off ch=10 n=59 v=64
35040 On ch=10 n=36 v=106
35040 On ch=10 n=59 v=106
35045 Off ch=10 n=59 v=64
35045 Off ch=10 n=36 v=64
35160 On ch=10 n=59 v=106
35165 Off ch=10 n=59 v=64
35280 On ch=10 n=38 v=106
35280 On ch=10 n=59 v=106
35285 Off ch=10 n=59 v=64
35285 Off ch=10 n=38 v=64
35400 On ch=10 n=36 v=106
35400 On ch=10 n=59 v=106
35405 Off ch=10 n=59 v=64
35405 Off ch=10 n=36 v=64
35520 On ch=10 n=36 v=106
35520 On ch=10 n=49 v=84
35520 On ch=10 n=59 v=106
35525 Off ch=10 n=59 v=64
35525 Off ch=10 n=49 v=64
35525 Off ch=10 n=36 v=64
35640 On ch=10 n=59 v=106
35645 Off ch=10 n=59 v=64
35760 On ch=10 n=38 v=106
35760 On ch=10 n=59 v=106
35765 Off ch=10 n=59 v=64
35765 Off ch=10 n=38 v=64
35880 On ch=10 n=59 v=106
35885 Off ch=10 n=59 v=64
36000 On ch=10 n=36 v=106
36000 On ch=10 n=59 v=106
36005 Off ch=10 n=59 v=64
36005 Off ch=10 n=36 v=64
36120 On ch=10 n=59 v=106
36125 Off ch=10 n=59 v=64
36240 On ch=10 n=38 v=106
36240 On ch=10 n=59 v=106
36245 Off ch=10 n=59 v=64
36245 Off ch=10 n=38 v=64
36360 On ch=10 n=59 v=106
36365 Off ch=10 n=59 v=64
36480 On ch=10 n=36 v=106
36480 On ch=10 n=59 v=106
36485 Off ch=10 n=59 v=64
36485 Off ch=10 n=36 v=64
36600 On ch=10 n=59 v=106
36605 Off ch=10 n=59 v=64
36720 On ch=10 n=38 v=106
36720 On ch=10 n=59 v=106
36725 Off ch=10 n=59 v=64
36725 Off ch=10 n=38 v=64
36840 On ch=10 n=59 v=106
36845 Off ch=10 n=59 v=64
36960 On ch=10 n=36 v=106
36960 On ch=10 n=59 v=106
36965 Off ch=10 n=59 v=64
36965 Off ch=10 n=36 v=64
37080 On ch=10 n=59 v=106
37085 Off ch=10 n=59 v=64
37200 On ch=10 n=38 v=106
37200 On ch=10 n=59 v=106
37205 Off ch=10 n=59 v=64
37205 Off ch=10 n=38 v=64
37320 On ch=10 n=59 v=106
37325 Off ch=10 n=59 v=64
37440 On ch=10 n=36 v=106
37440 On ch=10 n=59 v=106
37445 Off ch=10 n=59 v=64
37445 Off ch=10 n=36 v=64
37560 On ch=10 n=59 v=106
37565 Off ch=10 n=59 v=64
37680 On ch=10 n=38 v=106
37680 On ch=10 n=59 v=106
37685 Off ch=10 n=59 v=64
37685 Off ch=10 n=38 v=64
37800 On ch=10 n=59 v=106
37805 Off ch=10 n=59 v=64
37920 On ch=10 n=36 v=106
37920 On ch=10 n=59 v=106
37925 Off ch=10 n=59 v=64
37925 Off ch=10 n=36 v=64
38040 On ch=10 n=59 v=106
38045 Off ch=10 n=59 v=64
38160 On ch=10 n=38 v=106
38160 On ch=10 n=59 v=106
38165 Off ch=10 n=59 v=64
38165 Off ch=10 n=38 v=64
38280 On ch=10 n=59 v=106
38285 Off ch=10 n=59 v=64
38400 On ch=10 n=36 v=106
38400 On ch=10 n=59 v=106
38405 Off ch=10 n=59 v=64
38405 Off ch=10 n=36 v=64
38520 On ch=10 n=59 v=106
38525 Off ch=10 n=59 v=64
38640 On ch=10 n=38 v=106
38640 On ch=10 n=59 v=106
38645 Off ch=10 n=59 v=64
38645 Off ch=10 n=38 v=64
38760 On ch=10 n=59 v=106
38765 Off ch=10 n=59 v=64
38880 On ch=10 n=36 v=106
38880 On ch=10 n=59 v=106
38885 Off ch=10 n=59 v=64
38885 Off ch=10 n=36 v=64
39000 On ch=10 n=59 v=106
39005 Off ch=10 n=59 v=64
39120 On ch=10 n=38 v=106
39120 On ch=10 n=59 v=106
39125 Off ch=10 n=59 v=64
39125 Off ch=10 n=38 v=64
39240 On ch=10 n=59 v=106
39245 Off ch=10 n=59 v=64
39360 On ch=10 n=36 v=106
39360 On ch=10 n=59 v=106
39365 Off ch=10 n=59 v=64
39365 Off ch=10 n=36 v=64
39480 On ch=10 n=59 v=106
39485 Off ch=10 n=59 v=64
39600 On ch=10 n=38 v=106
39600 On ch=10 n=59 v=106
39605 Off ch=10 n=59 v=64
39605 Off ch=10 n=38 v=64
39720 On ch=10 n=59 v=106
39725 Off ch=10 n=59 v=64
39840 On ch=10 n=36 v=106
39840 On ch=10 n=59 v=106
39845 Off ch=10 n=59 v=64
39845 Off ch=10 n=36 v=64
39960 On ch=10 n=59 v=106
39965 Off ch=10 n=59 v=64
40080 On ch=10 n=38 v=106
40080 On ch=10 n=59 v=106
40085 Off ch=10 n=59 v=64
40085 Off ch=10 n=38 v=64
40200 On ch=10 n=59 v=106
40205 Off ch=10 n=59 v=64
40320 On ch=10 n=36 v=106
40320 On ch=10 n=59 v=106
40325 Off ch=10 n=59 v=64
40325 Off ch=10 n=36 v=64
40440 On ch=10 n=59 v=106
40445 Off ch=10 n=59 v=64
40560 On ch=10 n=38 v=106
40560 On ch=10 n=59 v=106
40565 Off ch=10 n=59 v=64
40565 Off ch=10 n=38 v=64
40680 On ch=10 n=59 v=106
40685 Off ch=10 n=59 v=64
40800 On ch=10 n=36 v=106
40800 On ch=10 n=59 v=106
40805 Off ch=10 n=59 v=64
40805 Off ch=10 n=36 v=64
40920 On ch=10 n=59 v=106
40925 Off ch=10 n=59 v=64
41040 On ch=10 n=38 v=106
41040 On ch=10 n=59 v=106
41045 Off ch=10 n=59 v=64
41045 Off ch=10 n=38 v=64
41160 On ch=10 n=59 v=106
41165 Off ch=10 n=59 v=64
41280 On ch=10 n=36 v=106
41280 On ch=10 n=59 v=106
41285 Off ch=10 n=59 v=64
41285 Off ch=10 n=36 v=64
41400 On ch=10 n=59 v=106
41405 Off ch=10 n=59 v=64
41520 On ch=10 n=38 v=106
41520 On ch=10 n=59 v=106
41525 Off ch=10 n=59 v=64
41525 Off ch=10 n=38 v=64
41640 On ch=10 n=59 v=106
41645 Off ch=10 n=59 v=64
41760 On ch=10 n=36 v=106
41760 On ch=10 n=59 v=106
41765 Off ch=10 n=59 v=64
41765 Off ch=10 n=36 v=64
41880 On ch=10 n=59 v=106
41885 Off ch=10 n=59 v=64
42000 On ch=10 n=38 v=106
42000 On ch=10 n=59 v=106
42005 Off ch=10 n=59 v=64
42005 Off ch=10 n=38 v=64
42120 On ch=10 n=59 v=106
42125 Off ch=10 n=59 v=64
42240 On ch=10 n=36 v=106
42240 On ch=10 n=59 v=106
42245 Off ch=10 n=59 v=64
42245 Off ch=10 n=36 v=64
42360 On ch=10 n=59 v=106
42365 Off ch=10 n=59 v=64
42480 On ch=10 n=38 v=106
42480 On ch=10 n=59 v=106
42485 Off ch=10 n=59 v=64
42485 Off ch=10 n=38 v=64
42600 On ch=10 n=59 v=106
42605 Off ch=10 n=59 v=64
42720 On ch=10 n=36 v=106
42720 On ch=10 n=59 v=106
42725 Off ch=10 n=59 v=64
42725 Off ch=10 n=36 v=64
42840 On ch=10 n=59 v=106
42845 Off ch=10 n=59 v=64
42960 On ch=10 n=38 v=106
42960 On ch=10 n=59 v=106
42965 Off ch=10 n=59 v=64
42965 Off ch=10 n=38 v=64
43080 On ch=10 n=36 v=106
43080 On ch=10 n=59 v=106
43085 Off ch=10 n=59 v=64
43085 Off ch=10 n=36 v=64
43200 On ch=10 n=36 v=106
43200 On ch=10 n=49 v=84
43200 On ch=10 n=59 v=106
43205 Off ch=10 n=59 v=64
43205 Off ch=10 n=49 v=64
43205 Off ch=10 n=36 v=64
43320 On ch=10 n=59 v=106
43325 Off ch=10 n=59 v=64
43440 On ch=10 n=38 v=106
43440 On ch=10 n=59 v=106
43445 Off ch=10 n=59 v=64
43445 Off ch=10 n=38 v=64
43560 On ch=10 n=59 v=106
43565 Off ch=10 n=59 v=64
43680 On ch=10 n=36 v=106
43680 On ch=10 n=59 v=106
43685 Off ch=10 n=59 v=64
43685 Off ch=10 n=36 v=64
43800 On ch=10 n=59 v=106
43805 Off ch=10 n=59 v=64
43920 On ch=10 n=38 v=106
43920 On ch=10 n=59 v=106
43925 Off ch=10 n=59 v=64
43925 Off ch=10 n=38 v=64
44040 On ch=10 n=59 v=106
44045 Off ch=10 n=59 v=64
44160 On ch=10 n=36 v=106
44160 On ch=10 n=59 v=106
44165 Off ch=10 n=59 v=64
44165 Off ch=10 n=36 v=64
44280 On ch=10 n=59 v=106
44285 Off ch=10 n=59 v=64
44400 On ch=10 n=38 v=106
44400 On ch=10 n=59 v=106
44405 Off ch=10 n=59 v=64
44405 Off ch=10 n=38 v=64
44520 On ch=10 n=59 v=106
44525 Off ch=10 n=59 v=64
44640 On ch=10 n=36 v=106
44640 On ch=10 n=59 v=106
44645 Off ch=10 n=59 v=64
44645 Off ch=10 n=36 v=64
44760 On ch=10 n=59 v=106
44765 Off ch=10 n=59 v=64
44880 On ch=10 n=38 v=106
44880 On ch=10 n=59 v=106
44885 Off ch=10 n=59 v=64
44885 Off ch=10 n=38 v=64
45000 On ch=10 n=59 v=106
45005 Off ch=10 n=59 v=64
45120 On ch=10 n=36 v=106
45120 On ch=10 n=59 v=106
45125 Off ch=10 n=59 v=64
45125 Off ch=10 n=36 v=64
45240 On ch=10 n=59 v=106
45245 Off ch=10 n=59 v=64
45360 On ch=10 n=38 v=106
45360 On ch=10 n=59 v=106
45365 Off ch=10 n=59 v=64
45365 Off ch=10 n=38 v=64
45480 On ch=10 n=59 v=106
45485 Off ch=10 n=59 v=64
45600 On ch=10 n=36 v=106
45600 On ch=10 n=59 v=106
45605 Off ch=10 n=59 v=64
45605 Off ch=10 n=36 v=64
45720 On ch=10 n=59 v=106
45725 Off ch=10 n=59 v=64
45840 On ch=10 n=38 v=106
45840 On ch=10 n=59 v=106
45845 Off ch=10 n=59 v=64
45845 Off ch=10 n=38 v=64
45960 On ch=10 n=59 v=106
45965 Off ch=10 n=59 v=64
46080 On ch=10 n=36 v=106
46080 On ch=10 n=59 v=106
46085 Off ch=10 n=59 v=64
46085 Off ch=10 n=36 v=64
46200 On ch=10 n=59 v=106
46205 Off ch=10 n=59 v=64
46320 On ch=10 n=38 v=106
46320 On ch=10 n=59 v=106
46325 Off ch=10 n=59 v=64
46325 Off ch=10 n=38 v=64
46440 On ch=10 n=59 v=106
46445 Off ch=10 n=59 v=64
46560 On ch=10 n=36 v=106
46560 On ch=10 n=59 v=106
46565 Off ch=10 n=59 v=64
46565 Off ch=10 n=36 v=64
46680 On ch=10 n=59 v=106
46685 Off ch=10 n=59 v=64
46800 On ch=10 n=38 v=106
46800 On ch=10 n=59 v=106
46805 Off ch=10 n=59 v=64
46805 Off ch=10 n=38 v=64
46920 On ch=10 n=36 v=106
46920 On ch=10 n=59 v=106
46925 Off ch=10 n=59 v=64
46925 Off ch=10 n=36 v=64
47040 On ch=10 n=36 v=106
47040 On ch=10 n=49 v=84
47040 On ch=10 n=59 v=106
47045 Off ch=10 n=59 v=64
47045 Off ch=10 n=49 v=64
47045 Off ch=10 n=36 v=64
47160 On ch=10 n=59 v=106
47165 Off ch=10 n=59 v=64
47280 On ch=10 n=38 v=106
47280 On ch=10 n=59 v=106
47285 Off ch=10 n=59 v=64
47285 Off ch=10 n=38 v=64
47400 On ch=10 n=59 v=106
47405 Off ch=10 n=59 v=64
47520 On ch=10 n=36 v=106
47520 On ch=10 n=59 v=106
47525 Off ch=10 n=59 v=64
47525 Off ch=10 n=36 v=64
47640 On ch=10 n=59 v=106
47645 Off ch=10 n=59 v=64
47760 On ch=10 n=38 v=106
47760 On ch=10 n=59 v=106
47765 Off ch=10 n=59 v=64
47765 Off ch=10 n=38 v=64
47880 On ch=10 n=59 v=106
47885 Off ch=10 n=59 v=64
48000 On ch=10 n=36 v=106
48000 On ch=10 n=59 v=106
48005 Off ch=10 n=59 v=64
48005 Off ch=10 n=36 v=64
48120 On ch=10 n=59 v=106
48125 Off ch=10 n=59 v=64
48240 On ch=10 n=38 v=106
48240 On ch=10 n=59 v=106
48245 Off ch=10 n=59 v=64
48245 Off ch=10 n=38 v=64
48360 On ch=10 n=59 v=106
48365 Off ch=10 n=59 v=64
48480 On ch=10 n=36 v=106
48480 On ch=10 n=59 v=106
48485 Off ch=10 n=59 v=64
48485 Off ch=10 n=36 v=64
48600 On ch=10 n=59 v=106
48605 Off ch=10 n=59 v=64
48720 On ch=10 n=38 v=106
48720 On ch=10 n=59 v=106
48725 Off ch=10 n=59 v=64
48725 Off ch=10 n=38 v=64
48840 On ch=10 n=59 v=106
48845 Off ch=10 n=59 v=64
48960 On ch=10 n=36 v=106
48960 On ch=10 n=59 v=106
48965 Off ch=10 n=59 v=64
48965 Off ch=10 n=36 v=64
49080 On ch=10 n=59 v=106
49085 Off ch=10 n=59 v=64
49200 On ch=10 n=38 v=106
49200 On ch=10 n=59 v=106
49205 Off ch=10 n=59 v=64
49205 Off ch=10 n=38 v=64
49320 On ch=10 n=59 v=106
49325 Off ch=10 n=59 v=64
49440 On ch=10 n=36 v=106
49440 On ch=10 n=59 v=106
49445 Off ch=10 n=59 v=64
49445 Off ch=10 n=36 v=64
49560 On ch=10 n=59 v=106
49565 Off ch=10 n=59 v=64
49680 On ch=10 n=38 v=106
49680 On ch=10 n=59 v=106
49685 Off ch=10 n=59 v=64
49685 Off ch=10 n=38 v=64
49800 On ch=10 n=59 v=106
49805 Off ch=10 n=59 v=64
49920 On ch=10 n=36 v=106
49920 On ch=10 n=59 v=106
49925 Off ch=10 n=59 v=64
49925 Off ch=10 n=36 v=64
50040 On ch=10 n=59 v=106
50045 Off ch=10 n=59 v=64
50160 On ch=10 n=38 v=106
50160 On ch=10 n=59 v=106
50165 Off ch=10 n=59 v=64
50165 Off ch=10 n=38 v=64
50280 On ch=10 n=59 v=106
50285 Off ch=10 n=59 v=64
50400 On ch=10 n=36 v=106
50400 On ch=10 n=59 v=106
50405 Off ch=10 n=59 v=64
50405 Off ch=10 n=36 v=64
50520 On ch=10 n=59 v=106
50525 Off ch=10 n=59 v=64
50640 On ch=10 n=38 v=106
50640 On ch=10 n=59 v=106
50645 Off ch=10 n=59 v=64
50645 Off ch=10 n=38 v=64
50760 On ch=10 n=59 v=106
50765 Off ch=10 n=59 v=64
50880 On ch=10 n=36 v=106
50880 On ch=10 n=59 v=106
50885 Off ch=10 n=59 v=64
50885 Off ch=10 n=36 v=64
51000 On ch=10 n=59 v=106
51005 Off ch=10 n=59 v=64
51120 On ch=10 n=38 v=106
51120 On ch=10 n=59 v=106
51125 Off ch=10 n=59 v=64
51125 Off ch=10 n=38 v=64
51240 On ch=10 n=59 v=106
51245 Off ch=10 n=59 v=64
51360 On ch=10 n=36 v=106
51360 On ch=10 n=59 v=106
51365 Off ch=10 n=59 v=64
51365 Off ch=10 n=36 v=64
51480 On ch=10 n=59 v=106
51485 Off ch=10 n=59 v=64
51600 On ch=10 n=38 v=106
51600 On ch=10 n=59 v=106
51605 Off ch=10 n=59 v=64
51605 Off ch=10 n=38 v=64
51720 On ch=10 n=59 v=106
51725 Off ch=10 n=59 v=64
51840 On ch=10 n=36 v=106
51840 On ch=10 n=59 v=106
51845 Off ch=10 n=59 v=64
51845 Off ch=10 n=36 v=64
51960 On ch=10 n=59 v=106
51965 Off ch=10 n=59 v=64
52080 On ch=10 n=38 v=106
52080 On ch=10 n=59 v=106
52085 Off ch=10 n=59 v=64
52085 Off ch=10 n=38 v=64
52200 On ch=10 n=59 v=106
52205 Off ch=10 n=59 v=64
52320 On ch=10 n=36 v=106
52320 On ch=10 n=59 v=106
52325 Off ch=10 n=59 v=64
52325 Off ch=10 n=36 v=64
52440 On ch=10 n=59 v=106
52445 Off ch=10 n=59 v=64
52560 On ch=10 n=38 v=106
52560 On ch=10 n=59 v=106
52565 Off ch=10 n=59 v=64
52565 Off ch=10 n=38 v=64
52680 On ch=10 n=59 v=106
52685 Off ch=10 n=59 v=64
52800 On ch=10 n=36 v=106
52800 On ch=10 n=59 v=106
52805 Off ch=10 n=59 v=64
52805 Off ch=10 n=36 v=64
52920 On ch=10 n=59 v=106
52925 Off ch=10 n=59 v=64
53040 On ch=10 n=38 v=106
53040 On ch=10 n=59 v=106
53045 Off ch=10 n=59 v=64
53045 Off ch=10 n=38 v=64
53160 On ch=10 n=59 v=106
53165 Off ch=10 n=59 v=64
53280 On ch=10 n=36 v=106
53280 On ch=10 n=59 v=106
53285 Off ch=10 n=59 v=64
53285 Off ch=10 n=36 v=64
53400 On ch=10 n=59 v=106
53405 Off ch=10 n=59 v=64
53520 On ch=10 n=38 v=106
53520 On ch=10 n=59 v=106
53525 Off ch=10 n=59 v=64
53525 Off ch=10 n=38 v=64
53640 On ch=10 n=59 v=106
53645 Off ch=10 n=59 v=64
53760 On ch=10 n=36 v=106
53760 On ch=10 n=59 v=106
53765 Off ch=10 n=59 v=64
53765 Off ch=10 n=36 v=64
53880 On ch=10 n=59 v=106
53885 Off ch=10 n=59 v=64
54000 On ch=10 n=38 v=106
54000 On ch=10 n=59 v=106
54005 Off ch=10 n=59 v=64
54005 Off ch=10 n=38 v=64
54120 On ch=10 n=59 v=106
54125 Off ch=10 n=59 v=64
54240 On ch=10 n=36 v=106
54240 On ch=10 n=59 v=106
54245 Off ch=10 n=59 v=64
54245 Off ch=10 n=36 v=64
54360 On ch=10 n=59 v=106
54365 Off ch=10 n=59 v=64
54480 On ch=10 n=38 v=106
54480 On ch=10 n=59 v=106
54485 Off ch=10 n=59 v=64
54485 Off ch=10 n=38 v=64
54600 On ch=10 n=36 v=106
54600 On ch=10 n=59 v=106
54605 Off ch=10 n=59 v=64
54605 Off ch=10 n=36 v=64
54720 On ch=10 n=36 v=106
54720 On ch=10 n=49 v=84
54720 On ch=10 n=59 v=106
54725 Off ch=10 n=59 v=64
54725 Off ch=10 n=49 v=64
54725 Off ch=10 n=36 v=64
54840 On ch=10 n=59 v=106
54845 Off ch=10 n=59 v=64
54960 On ch=10 n=38 v=106
54960 On ch=10 n=59 v=106
54965 Off ch=10 n=59 v=64
54965 Off ch=10 n=38 v=64
55080 On ch=10 n=59 v=106
55085 Off ch=10 n=59 v=64
55200 On ch=10 n=36 v=106
55200 On ch=10 n=59 v=106
55205 Off ch=10 n=59 v=64
55205 Off ch=10 n=36 v=64
55320 On ch=10 n=59 v=106
55325 Off ch=10 n=59 v=64
55440 On ch=10 n=38 v=106
55440 On ch=10 n=59 v=106
55445 Off ch=10 n=59 v=64
55445 Off ch=10 n=38 v=64
55560 On ch=10 n=59 v=106
55565 Off ch=10 n=59 v=64
55680 On ch=10 n=36 v=106
55680 On ch=10 n=59 v=106
55685 Off ch=10 n=59 v=64
55685 Off ch=10 n=36 v=64
55800 On ch=10 n=59 v=106
55805 Off ch=10 n=59 v=64
55920 On ch=10 n=38 v=106
55920 On ch=10 n=59 v=106
55925 Off ch=10 n=59 v=64
55925 Off ch=10 n=38 v=64
56040 On ch=10 n=59 v=106
56045 Off ch=10 n=59 v=64
56160 On ch=10 n=36 v=106
56160 On ch=10 n=59 v=106
56165 Off ch=10 n=59 v=64
56165 Off ch=10 n=36 v=64
56280 On ch=10 n=59 v=106
56285 Off ch=10 n=59 v=64
56400 On ch=10 n=38 v=106
56400 On ch=10 n=59 v=106
56405 Off ch=10 n=59 v=64
56405 Off ch=10 n=38 v=64
56520 On ch=10 n=59 v=106
56525 Off ch=10 n=59 v=64
56640 On ch=10 n=36 v=106
56640 On ch=10 n=59 v=106
56645 Off ch=10 n=59 v=64
56645 Off ch=10 n=36 v=64
56760 On ch=10 n=59 v=106
56765 Off ch=10 n=59 v=64
56880 On ch=10 n=38 v=106
56880 On ch=10 n=59 v=106
56885 Off ch=10 n=59 v=64
56885 Off ch=10 n=38 v=64
57000 On ch=10 n=59 v=106
57005 Off ch=10 n=59 v=64
57120 On ch=10 n=36 v=106
57120 On ch=10 n=59 v=106
57125 Off ch=10 n=59 v=64
57125 Off ch=10 n=36 v=64
57240 On ch=10 n=59 v=106
57245 Off ch=10 n=59 v=64
57360 On ch=10 n=38 v=106
57360 On ch=10 n=59 v=106
57365 Off ch=10 n=59 v=64
57365 Off ch=10 n=38 v=64
57480 On ch=10 n=59 v=106
57485 Off ch=10 n=59 v=64
57600 On ch=10 n=36 v=106
57600 On ch=10 n=59 v=106
57605 Off ch=10 n=59 v=64
57605 Off ch=10 n=36 v=64
57720 On ch=10 n=59 v=106
57725 Off ch=10 n=59 v=64
57840 On ch=10 n=38 v=106
57840 On ch=10 n=59 v=106
57845 Off ch=10 n=59 v=64
57845 Off ch=10 n=38 v=64
57960 On ch=10 n=59 v=106
57965 Off ch=10 n=59 v=64
58080 On ch=10 n=36 v=106
58080 On ch=10 n=59 v=106
58085 Off ch=10 n=59 v=64
58085 Off ch=10 n=36 v=64
58200 On ch=10 n=59 v=106
58205 Off ch=10 n=59 v=64
58320 On ch=10 n=38 v=106
58320 On ch=10 n=59 v=106
58325 Off ch=10 n=59 v=64
58325 Off ch=10 n=38 v=64
58440 On ch=10 n=59 v=106
58445 Off ch=10 n=59 v=64
58560 On ch=10 n=36 v=106
58560 On ch=10 n=59 v=106
58565 Off ch=10 n=59 v=64
58565 Off ch=10 n=36 v=64
58680 On ch=10 n=59 v=106
58685 Off ch=10 n=59 v=64
58800 On ch=10 n=38 v=106
58800 On ch=10 n=59 v=106
58805 Off ch=10 n=59 v=64
58805 Off ch=10 n=38 v=64
58920 On ch=10 n=59 v=106
58925 Off ch=10 n=59 v=64
59040 On ch=10 n=36 v=106
59040 On ch=10 n=59 v=106
59045 Off ch=10 n=59 v=64
59045 Off ch=10 n=36 v=64
59160 On ch=10 n=59 v=106
59165 Off ch=10 n=59 v=64
59280 On ch=10 n=38 v=106
59280 On ch=10 n=59 v=106
59285 Off ch=10 n=59 v=64
59285 Off ch=10 n=38 v=64
59400 On ch=10 n=59 v=106
59405 Off ch=10 n=59 v=64
59520 On ch=10 n=36 v=106
59520 On ch=10 n=59 v=106
59525 Off ch=10 n=59 v=64
59525 Off ch=10 n=36 v=64
59640 On ch=10 n=59 v=106
59645 Off ch=10 n=59 v=64
59760 On ch=10 n=38 v=106
59760 On ch=10 n=59 v=106
59765 Off ch=10 n=59 v=64
59765 Off ch=10 n=38 v=64
59880 On ch=10 n=59 v=106
59885 Off ch=10 n=59 v=64
60000 On ch=10 n=36 v=106
60000 On ch=10 n=59 v=106
60005 Off ch=10 n=59 v=64
60005 Off ch=10 n=36 v=64
60120 On ch=10 n=59 v=106
60125 Off ch=10 n=59 v=64
60240 On ch=10 n=38 v=106
60240 On ch=10 n=59 v=106
60245 Off ch=10 n=59 v=64
60245 Off ch=10 n=38 v=64
60360 On ch=10 n=59 v=106
60365 Off ch=10 n=59 v=64
60480 On ch=10 n=36 v=106
60480 On ch=10 n=59 v=106
60485 Off ch=10 n=59 v=64
60485 Off ch=10 n=36 v=64
60600 On ch=10 n=59 v=106
60605 Off ch=10 n=59 v=64
60720 On ch=10 n=38 v=106
60720 On ch=10 n=59 v=106
60725 Off ch=10 n=59 v=64
60725 Off ch=10 n=38 v=64
60840 On ch=10 n=59 v=106
60845 Off ch=10 n=59 v=64
60960 On ch=10 n=36 v=106
60960 On ch=10 n=59 v=106
60965 Off ch=10 n=59 v=64
60965 Off ch=10 n=36 v=64
61080 On ch=10 n=59 v=106
61085 Off ch=10 n=59 v=64
61200 On ch=10 n=38 v=106
61200 On ch=10 n=59 v=106
61205 Off ch=10 n=59 v=64
61205 Off ch=10 n=38 v=64
61320 On ch=10 n=36 v=106
61320 On ch=10 n=59 v=106
61325 Off ch=10 n=59 v=64
61325 Off ch=10 n=36 v=64
61440 On ch=10 n=36 v=106
61440 On ch=10 n=49 v=84
61440 On ch=10 n=59 v=106
61445 Off ch=10 n=59 v=64
61445 Off ch=10 n=49 v=64
61445 Off ch=10 n=36 v=64
61560 On ch=10 n=59 v=106
61565 Off ch=10 n=59 v=64
61680 On ch=10 n=38 v=106
61680 On ch=10 n=59 v=106
61685 Off ch=10 n=59 v=64
61685 Off ch=10 n=38 v=64
61800 On ch=10 n=59 v=106
61805 Off ch=10 n=59 v=64
61920 On ch=10 n=36 v=106
61920 On ch=10 n=59 v=106
61925 Off ch=10 n=59 v=64
61925 Off ch=10 n=36 v=64
62040 On ch=10 n=59 v=106
62045 Off ch=10 n=59 v=64
62160 On ch=10 n=38 v=106
62160 On ch=10 n=59 v=106
62165 Off ch=10 n=59 v=64
62165 Off ch=10 n=38 v=64
62280 On ch=10 n=59 v=106
62285 Off ch=10 n=59 v=64
62400 On ch=10 n=36 v=106
62400 On ch=10 n=49 v=84
62400 On ch=10 n=59 v=106
62405 Off ch=10 n=59 v=64
62405 Off ch=10 n=49 v=64
62405 Off ch=10 n=36 v=64
62520 On ch=10 n=59 v=106
62525 Off ch=10 n=59 v=64
62640 On ch=10 n=38 v=106
62640 On ch=10 n=59 v=106
62645 Off ch=10 n=59 v=64
62645 Off ch=10 n=38 v=64
62760 On ch=10 n=59 v=106
62765 Off ch=10 n=59 v=64
62880 On ch=10 n=36 v=106
62880 On ch=10 n=59 v=106
62885 Off ch=10 n=59 v=64
62885 Off ch=10 n=36 v=64
63000 On ch=10 n=59 v=106
63005 Off ch=10 n=59 v=64
63120 On ch=10 n=38 v=106
63120 On ch=10 n=59 v=106
63125 Off ch=10 n=59 v=64
63125 Off ch=10 n=38 v=64
63240 On ch=10 n=59 v=106
63245 Off ch=10 n=59 v=64
63360 On ch=10 n=36 v=106
63360 On ch=10 n=59 v=106
63365 Off ch=10 n=59 v=64
63365 Off ch=10 n=36 v=64
63480 On ch=10 n=59 v=106
63485 Off ch=10 n=59 v=64
63600 On ch=10 n=38 v=106
63600 On ch=10 n=59 v=106
63605 Off ch=10 n=59 v=64
63605 Off ch=10 n=38 v=64
63720 On ch=10 n=59 v=106
63725 Off ch=10 n=59 v=64
63840 On ch=10 n=36 v=106
63840 On ch=10 n=59 v=106
63845 Off ch=10 n=59 v=64
63845 Off ch=10 n=36 v=64
63960 On ch=10 n=59 v=106
63965 Off ch=10 n=59 v=64
64080 On ch=10 n=38 v=106
64080 On ch=10 n=59 v=106
64085 Off ch=10 n=59 v=64
64085 Off ch=10 n=38 v=64
64200 On ch=10 n=59 v=106
64205 Off ch=10 n=59 v=64
64320 On ch=10 n=36 v=106
64320 On ch=10 n=59 v=106
64325 Off ch=10 n=59 v=64
64325 Off ch=10 n=36 v=64
64440 On ch=10 n=59 v=106
64445 Off ch=10 n=59 v=64
64560 On ch=10 n=38 v=106
64560 On ch=10 n=59 v=106
64565 Off ch=10 n=59 v=64
64565 Off ch=10 n=38 v=64
64680 On ch=10 n=59 v=106
64685 Off ch=10 n=59 v=64
64800 On ch=10 n=36 v=106
64800 On ch=10 n=59 v=106
64805 Off ch=10 n=59 v=64
64805 Off ch=10 n=36 v=64
64920 On ch=10 n=59 v=106
64925 Off ch=10 n=59 v=64
65040 On ch=10 n=38 v=106
65040 On ch=10 n=59 v=106
65045 Off ch=10 n=59 v=64
65045 Off ch=10 n=38 v=64
65160 On ch=10 n=36 v=106
65160 On ch=10 n=59 v=106
65165 Off ch=10 n=59 v=64
65165 Off ch=10 n=36 v=64
65280 On ch=10 n=36 v=106
65280 On ch=10 n=49 v=84
65280 On ch=10 n=59 v=106
65285 Off ch=10 n=59 v=64
65285 Off ch=10 n=49 v=64
65285 Off ch=10 n=36 v=64
65400 On ch=10 n=59 v=106
65405 Off ch=10 n=59 v=64
65520 On ch=10 n=38 v=106
65520 On ch=10 n=59 v=106
65525 Off ch=10 n=59 v=64
65525 Off ch=10 n=38 v=64
65640 On ch=10 n=59 v=106
65645 Off ch=10 n=59 v=64
65760 On ch=10 n=36 v=106
65760 On ch=10 n=59 v=106
65765 Off ch=10 n=59 v=64
65765 Off ch=10 n=36 v=64
65880 On ch=10 n=59 v=106
65885 Off ch=10 n=59 v=64
66000 On ch=10 n=38 v=106
66000 On ch=10 n=59 v=106
66005 Off ch=10 n=59 v=64
66005 Off ch=10 n=38 v=64
66120 On ch=10 n=59 v=106
66125 Off ch=10 n=59 v=64
66240 On ch=10 n=36 v=106
66240 On ch=10 n=49 v=84
66240 On ch=10 n=59 v=106
66245 Off ch=10 n=59 v=64
66245 Off ch=10 n=49 v=64
66245 Off ch=10 n=36 v=64
66360 On ch=10 n=59 v=106
66365 Off ch=10 n=59 v=64
66480 On ch=10 n=38 v=106
66480 On ch=10 n=59 v=106
66485 Off ch=10 n=59 v=64
66485 Off ch=10 n=38 v=64
66600 On ch=10 n=59 v=106
66605 Off ch=10 n=59 v=64
66720 On ch=10 n=36 v=106
66720 On ch=10 n=59 v=106
66725 Off ch=10 n=59 v=64
66725 Off ch=10 n=36 v=64
66840 On ch=10 n=59 v=106
66845 Off ch=10 n=59 v=64
66960 On ch=10 n=38 v=106
66960 On ch=10 n=59 v=106
66965 Off ch=10 n=59 v=64
66965 Off ch=10 n=38 v=64
67080 On ch=10 n=59 v=106
67085 Off ch=10 n=59 v=64
67200 On ch=10 n=36 v=106
67200 On ch=10 n=59 v=106
67205 Off ch=10 n=59 v=64
67205 Off ch=10 n=36 v=64
67320 On ch=10 n=59 v=106
67325 Off ch=10 n=59 v=64
67440 On ch=10 n=38 v=106
67440 On ch=10 n=59 v=106
67445 Off ch=10 n=59 v=64
67445 Off ch=10 n=38 v=64
67560 On ch=10 n=59 v=106
67565 Off ch=10 n=59 v=64
67680 On ch=10 n=36 v=106
67680 On ch=10 n=59 v=106
67685 Off ch=10 n=59 v=64
67685 Off ch=10 n=36 v=64
67800 On ch=10 n=59 v=106
67805 Off ch=10 n=59 v=64
67920 On ch=10 n=38 v=106
67920 On ch=10 n=59 v=106
67925 Off ch=10 n=59 v=64
67925 Off ch=10 n=38 v=64
68040 On ch=10 n=59 v=106
68045 Off ch=10 n=59 v=64
68160 On ch=10 n=36 v=106
68160 On ch=10 n=59 v=106
68165 Off ch=10 n=59 v=64
68165 Off ch=10 n=36 v=64
68280 On ch=10 n=59 v=106
68285 Off ch=10 n=59 v=64
68400 On ch=10 n=38 v=106
68400 On ch=10 n=59 v=106
68405 Off ch=10 n=59 v=64
68405 Off ch=10 n=38 v=64
68520 On ch=10 n=59 v=106
68525 Off ch=10 n=59 v=64
68640 On ch=10 n=36 v=106
68640 On ch=10 n=59 v=106
68645 Off ch=10 n=59 v=64
68645 Off ch=10 n=36 v=64
68760 On ch=10 n=59 v=106
68765 Off ch=10 n=59 v=64
68880 On ch=10 n=38 v=106
68880 On ch=10 n=59 v=106
68885 Off ch=10 n=59 v=64
68885 Off ch=10 n=38 v=64
69000 On ch=10 n=36 v=106
69000 On ch=10 n=59 v=106
69005 Off ch=10 n=59 v=64
69005 Off ch=10 n=36 v=64
69120 On ch=10 n=36 v=106
69120 On ch=10 n=49 v=84
69120 On ch=10 n=59 v=106
69125 Off ch=10 n=59 v=64
69125 Off ch=10 n=49 v=64
69125 Off ch=10 n=36 v=64
69240 On ch=10 n=59 v=106
69245 Off ch=10 n=59 v=64
69360 On ch=10 n=38 v=106
69360 On ch=10 n=59 v=106
69365 Off ch=10 n=59 v=64
69365 Off ch=10 n=38 v=64
69480 On ch=10 n=59 v=106
69485 Off ch=10 n=59 v=64
69600 On ch=10 n=36 v=106
69600 On ch=10 n=59 v=106
69605 Off ch=10 n=59 v=64
69605 Off ch=10 n=36 v=64
69720 On ch=10 n=59 v=106
69725 Off ch=10 n=59 v=64
69840 On ch=10 n=38 v=106
69840 On ch=10 n=59 v=106
69845 Off ch=10 n=59 v=64
69845 Off ch=10 n=38 v=64
69960 On ch=10 n=59 v=106
69965 Off ch=10 n=59 v=64
70080 On ch=10 n=36 v=106
70080 On ch=10 n=59 v=106
70085 Off ch=10 n=59 v=64
70085 Off ch=10 n=36 v=64
70200 On ch=10 n=59 v=106
70205 Off ch=10 n=59 v=64
70320 On ch=10 n=38 v=106
70320 On ch=10 n=59 v=106
70325 Off ch=10 n=59 v=64
70325 Off ch=10 n=38 v=64
70440 On ch=10 n=59 v=106
70445 Off ch=10 n=59 v=64
70560 On ch=10 n=36 v=106
70560 On ch=10 n=59 v=106
70565 Off ch=10 n=59 v=64
70565 Off ch=10 n=36 v=64
70680 On ch=10 n=59 v=106
70685 Off ch=10 n=59 v=64
70800 On ch=10 n=38 v=106
70800 On ch=10 n=59 v=106
70805 Off ch=10 n=59 v=64
70805 Off ch=10 n=38 v=64
70920 On ch=10 n=59 v=106
70925 Off ch=10 n=59 v=64
71040 On ch=10 n=36 v=106
71040 On ch=10 n=59 v=106
71045 Off ch=10 n=59 v=64
71045 Off ch=10 n=36 v=64
71160 On ch=10 n=59 v=106
71165 Off ch=10 n=59 v=64
71280 On ch=10 n=38 v=106
71280 On ch=10 n=59 v=106
71285 Off ch=10 n=59 v=64
71285 Off ch=10 n=38 v=64
71400 On ch=10 n=59 v=106
71405 Off ch=10 n=59 v=64
71520 On ch=10 n=36 v=106
71520 On ch=10 n=59 v=106
71525 Off ch=10 n=59 v=64
71525 Off ch=10 n=36 v=64
71640 On ch=10 n=59 v=106
71645 Off ch=10 n=59 v=64
71760 On ch=10 n=38 v=106
71760 On ch=10 n=59 v=106
71765 Off ch=10 n=59 v=64
71765 Off ch=10 n=38 v=64
71880 On ch=10 n=59 v=106
71885 Off ch=10 n=59 v=64
72000 On ch=10 n=36 v=106
72000 On ch=10 n=59 v=106
72005 Off ch=10 n=59 v=64
72005 Off ch=10 n=36 v=64
72120 On ch=10 n=59 v=106
72125 Off ch=10 n=59 v=64
72240 On ch=10 n=38 v=106
72240 On ch=10 n=59 v=106
72245 Off ch=10 n=59 v=64
72245 Off ch=10 n=38 v=64
72360 On ch=10 n=59 v=106
72365 Off ch=10 n=59 v=64
72480 On ch=10 n=36 v=106
72480 On ch=10 n=59 v=106
72485 Off ch=10 n=59 v=64
72485 Off ch=10 n=36 v=64
72600 On ch=10 n=59 v=106
72605 Off ch=10 n=59 v=64
72720 On ch=10 n=38 v=106
72720 On ch=10 n=59 v=106
72725 Off ch=10 n=59 v=64
72725 Off ch=10 n=38 v=64
72840 On ch=10 n=36 v=106
72840 On ch=10 n=59 v=106
72845 Off ch=10 n=59 v=64
72845 Off ch=10 n=36 v=64
72960 On ch=10 n=36 v=106
72960 On ch=10 n=49 v=84
72960 On ch=10 n=59 v=106
72965 Off ch=10 n=59 v=64
72965 Off ch=10 n=49 v=64
72965 Off ch=10 n=36 v=64
73080 On ch=10 n=59 v=106
73085 Off ch=10 n=59 v=64
73200 On ch=10 n=38 v=106
73200 On ch=10 n=59 v=106
73205 Off ch=10 n=59 v=64
73205 Off ch=10 n=38 v=64
73320 On ch=10 n=59 v=106
73325 Off ch=10 n=59 v=64
73440 On ch=10 n=36 v=106
73440 On ch=10 n=59 v=106
73445 Off ch=10 n=59 v=64
73445 Off ch=10 n=36 v=64
73560 On ch=10 n=59 v=106
73565 Off ch=10 n=59 v=64
73680 On ch=10 n=38 v=106
73680 On ch=10 n=59 v=106
73685 Off ch=10 n=59 v=64
73685 Off ch=10 n=38 v=64
73800 On ch=10 n=59 v=106
73805 Off ch=10 n=59 v=64
73920 On ch=10 n=36 v=106
73920 On ch=10 n=59 v=106
73925 Off ch=10 n=59 v=64
73925 Off ch=10 n=36 v=64
74040 On ch=10 n=59 v=106
74045 Off ch=10 n=59 v=64
74160 On ch=10 n=38 v=106
74160 On ch=10 n=59 v=106
74165 Off ch=10 n=59 v=64
74165 Off ch=10 n=38 v=64
74280 On ch=10 n=59 v=106
74285 Off ch=10 n=59 v=64
74400 On ch=10 n=36 v=106
74400 On ch=10 n=59 v=106
74405 Off ch=10 n=59 v=64
74405 Off ch=10 n=36 v=64
74520 On ch=10 n=59 v=106
74525 Off ch=10 n=59 v=64
74640 On ch=10 n=38 v=106
74640 On ch=10 n=59 v=106
74645 Off ch=10 n=59 v=64
74645 Off ch=10 n=38 v=64
74760 On ch=10 n=59 v=106
74765 Off ch=10 n=59 v=64
74880 On ch=10 n=36 v=106
74880 On ch=10 n=59 v=106
74885 Off ch=10 n=59 v=64
74885 Off ch=10 n=36 v=64
75000 On ch=10 n=59 v=106
75005 Off ch=10 n=59 v=64
75120 On ch=10 n=38 v=106
75120 On ch=10 n=59 v=106
75125 Off ch=10 n=59 v=64
75125 Off ch=10 n=38 v=64
75240 On ch=10 n=59 v=106
75245 Off ch=10 n=59 v=64
75360 On ch=10 n=36 v=106
75360 On ch=10 n=59 v=106
75365 Off ch=10 n=59 v=64
75365 Off ch=10 n=36 v=64
75480 On ch=10 n=59 v=106
75485 Off ch=10 n=59 v=64
75600 On ch=10 n=38 v=106
75600 On ch=10 n=59 v=106
75605 Off ch=10 n=59 v=64
75605 Off ch=10 n=38 v=64
75720 On ch=10 n=59 v=106
75725 Off ch=10 n=59 v=64
75840 On ch=10 n=36 v=106
75840 On ch=10 n=59 v=106
75845 Off ch=10 n=59 v=64
75845 Off ch=10 n=36 v=64
75960 On ch=10 n=59 v=106
75965 Off ch=10 n=59 v=64
76080 On ch=10 n=38 v=106
76080 On ch=10 n=59 v=106
76085 Off ch=10 n=59 v=64
76085 Off ch=10 n=38 v=64
76200 On ch=10 n=59 v=106
76205 Off ch=10 n=59 v=64
76320 On ch=10 n=36 v=106
76320 On ch=10 n=59 v=106
76325 Off ch=10 n=59 v=64
76325 Off ch=10 n=36 v=64
76440 On ch=10 n=59 v=106
76445 Off ch=10 n=59 v=64
76560 On ch=10 n=38 v=106
76560 On ch=10 n=59 v=106
76565 Off ch=10 n=59 v=64
76565 Off ch=10 n=38 v=64
76680 On ch=10 n=59 v=106
76685 Off ch=10 n=59 v=64
76800 On ch=10 n=36 v=106
76800 On ch=10 n=59 v=106
76805 Off ch=10 n=59 v=64
76805 Off ch=10 n=36 v=64
76920 On ch=10 n=59 v=106
76925 Off ch=10 n=59 v=64
77040 On ch=10 n=38 v=106
77040 On ch=10 n=59 v=106
77045 Off ch=10 n=59 v=64
77045 Off ch=10 n=38 v=64
77160 On ch=10 n=59 v=106
77165 Off ch=10 n=59 v=64
77280 On ch=10 n=36 v=106
77280 On ch=10 n=59 v=106
77285 Off ch=10 n=59 v=64
77285 Off ch=10 n=36 v=64
77400 On ch=10 n=59 v=106
77405 Off ch=10 n=59 v=64
77520 On ch=10 n=38 v=106
77520 On ch=10 n=59 v=106
77525 Off ch=10 n=59 v=64
77525 Off ch=10 n=38 v=64
77640 On ch=10 n=59 v=106
77645 Off ch=10 n=59 v=64
77760 On ch=10 n=36 v=106
77760 On ch=10 n=59 v=106
77765 Off ch=10 n=59 v=64
77765 Off ch=10 n=36 v=64
77880 On ch=10 n=59 v=106
77885 Off ch=10 n=59 v=64
78000 On ch=10 n=38 v=106
78000 On ch=10 n=59 v=106
78005 Off ch=10 n=59 v=64
78005 Off ch=10 n=38 v=64
78120 On ch=10 n=59 v=106
78125 Off ch=10 n=59 v=64
78240 On ch=10 n=36 v=106
78240 On ch=10 n=59 v=106
78245 Off ch=10 n=59 v=64
78245 Off ch=10 n=36 v=64
78360 On ch=10 n=59 v=106
78365 Off ch=10 n=59 v=64
78480 On ch=10 n=38 v=106
78480 On ch=10 n=59 v=106
78485 Off ch=10 n=59 v=64
78485 Off ch=10 n=38 v=64
78600 On ch=10 n=59 v=106
78605 Off ch=10 n=59 v=64
78720 On ch=10 n=36 v=106
78720 On ch=10 n=59 v=106
78725 Off ch=10 n=59 v=64
78725 Off ch=10 n=36 v=64
78840 On ch=10 n=59 v=106
78845 Off ch=10 n=59 v=64
78960 On ch=10 n=38 v=106
78960 On ch=10 n=59 v=106
78965 Off ch=10 n=59 v=64
78965 Off ch=10 n=38 v=64
79080 On ch=10 n=59 v=106
79085 Off ch=10 n=59 v=64
79200 On ch=10 n=36 v=106
79200 On ch=10 n=59 v=106
79205 Off ch=10 n=59 v=64
79205 Off ch=10 n=36 v=64
79320 On ch=10 n=59 v=106
79325 Off ch=10 n=59 v=64
79440 On ch=10 n=38 v=106
79440 On ch=10 n=59 v=106
79445 Off ch=10 n=59 v=64
79445 Off ch=10 n=38 v=64
79560 On ch=10 n=59 v=106
79565 Off ch=10 n=59 v=64
79680 On ch=10 n=36 v=106
79680 On ch=10 n=59 v=106
79685 Off ch=10 n=59 v=64
79685 Off ch=10 n=36 v=64
79800 On ch=10 n=59 v=106
79805 Off ch=10 n=59 v=64
79920 On ch=10 n=38 v=106
79920 On ch=10 n=59 v=106
79925 Off ch=10 n=59 v=64
79925 Off ch=10 n=38 v=64
80040 On ch=10 n=59 v=106
80045 Off ch=10 n=59 v=64
80160 On ch=10 n=36 v=106
80160 On ch=10 n=59 v=106
80165 Off ch=10 n=59 v=64
80165 Off ch=10 n=36 v=64
80280 On ch=10 n=59 v=106
80285 Off ch=10 n=59 v=64
80400 On ch=10 n=38 v=106
80400 On ch=10 n=59 v=106
80405 Off ch=10 n=59 v=64
80405 Off ch=10 n=38 v=64
80520 On ch=10 n=36 v=106
80520 On ch=10 n=59 v=106
80525 Off ch=10 n=59 v=64
80525 Off ch=10 n=36 v=64
80640 On ch=10 n=36 v=106
80640 On ch=10 n=49 v=84
80640 On ch=10 n=59 v=106
80645 Off ch=10 n=59 v=64
80645 Off ch=10 n=49 v=64
80645 Off ch=10 n=36 v=64
80760 On ch=10 n=59 v=106
80765 Off ch=10 n=59 v=64
80880 On ch=10 n=38 v=106
80880 On ch=10 n=59 v=106
80885 Off ch=10 n=59 v=64
80885 Off ch=10 n=38 v=64
81000 On ch=10 n=59 v=106
81005 Off ch=10 n=59 v=64
81120 On ch=10 n=36 v=106
81120 On ch=10 n=59 v=106
81125 Off ch=10 n=59 v=64
81125 Off ch=10 n=36 v=64
81240 On ch=10 n=59 v=106
81245 Off ch=10 n=59 v=64
81360 On ch=10 n=38 v=106
81360 On ch=10 n=59 v=106
81365 Off ch=10 n=59 v=64
81365 Off ch=10 n=38 v=64
81480 On ch=10 n=59 v=106
81485 Off ch=10 n=59 v=64
81600 On ch=10 n=36 v=106
81600 On ch=10 n=59 v=106
81605 Off ch=10 n=59 v=64
81605 Off ch=10 n=36 v=64
81720 On ch=10 n=59 v=106
81725 Off ch=10 n=59 v=64
81840 On ch=10 n=38 v=106
81840 On ch=10 n=59 v=106
81845 Off ch=10 n=59 v=64
81845 Off ch=10 n=38 v=64
81960 On ch=10 n=59 v=106
81965 Off ch=10 n=59 v=64
82080 On ch=10 n=36 v=106
82080 On ch=10 n=59 v=106
82085 Off ch=10 n=59 v=64
82085 Off ch=10 n=36 v=64
82200 On ch=10 n=59 v=106
82205 Off ch=10 n=59 v=64
82320 On ch=10 n=38 v=106
82320 On ch=10 n=59 v=106
82325 Off ch=10 n=59 v=64
82325 Off ch=10 n=38 v=64
82440 On ch=10 n=59 v=106
82445 Off ch=10 n=59 v=64
82560 On ch=10 n=36 v=106
82560 On ch=10 n=59 v=106
82565 Off ch=10 n=59 v=64
82565 Off ch=10 n=36 v=64
82680 On ch=10 n=59 v=106
82685 Off ch=10 n=59 v=64
82800 On ch=10 n=38 v=106
82800 On ch=10 n=59 v=106
82805 Off ch=10 n=59 v=64
82805 Off ch=10 n=38 v=64
82920 On ch=10 n=59 v=106
82925 Off ch=10 n=59 v=64
83040 On ch=10 n=36 v=106
83040 On ch=10 n=59 v=106
83045 Off ch=10 n=59 v=64
83045 Off ch=10 n=36 v=64
83160 On ch=10 n=59 v=106
83165 Off ch=10 n=59 v=64
83280 On ch=10 n=38 v=106
83280 On ch=10 n=59 v=106
83285 Off ch=10 n=59 v=64
83285 Off ch=10 n=38 v=64
83400 On ch=10 n=59 v=106
83405 Off ch=10 n=59 v=64
83520 On ch=10 n=36 v=106
83520 On ch=10 n=59 v=106
83525 Off ch=10 n=59 v=64
83525 Off ch=10 n=36 v=64
83640 On ch=10 n=59 v=106
83645 Off ch=10 n=59 v=64
83760 On ch=10 n=38 v=106
83760 On ch=10 n=59 v=106
83765 Off ch=10 n=59 v=64
83765 Off ch=10 n=38 v=64
83880 On ch=10 n=59 v=106
83885 Off ch=10 n=59 v=64
84000 On ch=10 n=36 v=106
84000 On ch=10 n=59 v=106
84005 Off ch=10 n=59 v=64
84005 Off ch=10 n=36 v=64
84120 On ch=10 n=59 v=106
84125 Off ch=10 n=59 v=64
84240 On ch=10 n=38 v=106
84240 On ch=10 n=59 v=106
84245 Off ch=10 n=59 v=64
84245 Off ch=10 n=38 v=64
84360 On ch=10 n=59 v=106
84365 Off ch=10 n=59 v=64
84480 On ch=10 n=36 v=106
84480 On ch=10 n=59 v=106
84485 Off ch=10 n=59 v=64
84485 Off ch=10 n=36 v=64
84600 On ch=10 n=59 v=106
84605 Off ch=10 n=59 v=64
84720 On ch=10 n=38 v=106
84720 On ch=10 n=59 v=106
84725 Off ch=10 n=59 v=64
84725 Off ch=10 n=38 v=64
84840 On ch=10 n=59 v=106
84845 Off ch=10 n=59 v=64
84960 On ch=10 n=36 v=106
84960 On ch=10 n=59 v=106
84965 Off ch=10 n=59 v=64
84965 Off ch=10 n=36 v=64
85080 On ch=10 n=59 v=106
85085 Off ch=10 n=59 v=64
85200 On ch=10 n=38 v=106
85200 On ch=10 n=59 v=106
85205 Off ch=10 n=59 v=64
85205 Off ch=10 n=38 v=64
85320 On ch=10 n=59 v=106
85325 Off ch=10 n=59 v=64
85440 On ch=10 n=36 v=106
85440 On ch=10 n=59 v=106
85445 Off ch=10 n=59 v=64
85445 Off ch=10 n=36 v=64
85560 On ch=10 n=59 v=106
85565 Off ch=10 n=59 v=64
85680 On ch=10 n=38 v=106
85680 On ch=10 n=59 v=106
85685 Off ch=10 n=59 v=64
85685 Off ch=10 n=38 v=64
85800 On ch=10 n=59 v=106
85805 Off ch=10 n=59 v=64
85920 On ch=10 n=36 v=106
85920 On ch=10 n=59 v=106
85925 Off ch=10 n=59 v=64
85925 Off ch=10 n=36 v=64
86040 On ch=10 n=59 v=106
86045 Off ch=10 n=59 v=64
86160 On ch=10 n=38 v=106
86160 On ch=10 n=59 v=106
86165 Off ch=10 n=59 v=64
86165 Off ch=10 n=38 v=64
86280 On ch=10 n=59 v=106
86285 Off ch=10 n=59 v=64
86400 On ch=10 n=36 v=106
86400 On ch=10 n=59 v=106
86405 Off ch=10 n=59 v=64
86405 Off ch=10 n=36 v=64
86520 On ch=10 n=59 v=106
86525 Off ch=10 n=59 v=64
86640 On ch=10 n=38 v=106
86640 On ch=10 n=59 v=106
86645 Off ch=10 n=59 v=64
86645 Off ch=10 n=38 v=64
86760 On ch=10 n=59 v=106
86765 Off ch=10 n=59 v=64
86880 On ch=10 n=47 v=106
86880 On ch=10 n=59 v=106
86885 Off ch=10 n=59 v=64
86885 Off ch=10 n=47 v=64
87000 On ch=10 n=47 v=106
87000 On ch=10 n=59 v=106
87005 Off ch=10 n=59 v=64
87005 Off ch=10 n=47 v=64
87060 On ch=10 n=47 v=106
87065 Off ch=10 n=47 v=64
87120 On ch=10 n=38 v=106
87120 On ch=10 n=59 v=106
87125 Off ch=10 n=59 v=64
87125 Off ch=10 n=38 v=64
87240 On ch=10 n=43 v=106
87240 On ch=10 n=59 v=106
87245 Off ch=10 n=59 v=64
87245 Off ch=10 n=43 v=64
87300 On ch=10 n=43 v=106
87305 Off ch=10 n=43 v=64
87360 Par ch=10 c=7 v=102
87360 On ch=10 n=36 v=95
87360 On ch=10 n=49 v=106
87360 On ch=10 n=59 v=95
87365 Off ch=10 n=59 v=64
87365 Off ch=10 n=49 v=64
87365 Off ch=10 n=36 v=64
87480 On ch=10 n=59 v=95
87485 Off ch=10 n=59 v=64
87600 Par ch=10 c=7 v=102
87600 On ch=10 n=38 v=95
87600 On ch=10 n=59 v=95
87605 Off ch=10 n=59 v=64
87605 Off ch=10 n=38 v=64
87720 On ch=10 n=59 v=95
87725 Off ch=10 n=59 v=64
87840 On ch=10 n=36 v=95
87840 On ch=10 n=59 v=95
87845 Off ch=10 n=59 v=64
87845 Off ch=10 n=36 v=64
87960 On ch=10 n=59 v=95
87965 Off ch=10 n=59 v=64
88080 On ch=10 n=38 v=95
88080 On ch=10 n=59 v=95
88085 Off ch=10 n=59 v=64
88085 Off ch=10 n=38 v=64
88200 On ch=10 n=59 v=95
88205 Off ch=10 n=59 v=64
88320 On ch=10 n=36 v=95
88320 On ch=10 n=49 v=84
88320 On ch=10 n=59 v=95
88325 Off ch=10 n=59 v=64
88325 Off ch=10 n=49 v=64
88325 Off ch=10 n=36 v=64
88440 On ch=10 n=59 v=95
88445 Off ch=10 n=59 v=64
88560 On ch=10 n=38 v=95
88560 On ch=10 n=59 v=95
88565 Off ch=10 n=59 v=64
88565 Off ch=10 n=38 v=64
88680 On ch=10 n=59 v=95
88685 Off ch=10 n=59 v=64
88800 On ch=10 n=36 v=95
88800 On ch=10 n=59 v=95
88805 Off ch=10 n=59 v=64
88805 Off ch=10 n=36 v=64
88920 On ch=10 n=59 v=95
88925 Off ch=10 n=59 v=64
89040 On ch=10 n=38 v=95
89040 On ch=10 n=59 v=95
89045 Off ch=10 n=59 v=64
89045 Off ch=10 n=38 v=64
89160 On ch=10 n=59 v=95
89165 Off ch=10 n=59 v=64
89280 On ch=10 n=36 v=95
89280 On ch=10 n=59 v=95
89285 Off ch=10 n=59 v=64
89285 Off ch=10 n=36 v=64
89400 On ch=10 n=59 v=95
89405 Off ch=10 n=59 v=64
89520 On ch=10 n=38 v=95
89520 On ch=10 n=59 v=95
89525 Off ch=10 n=59 v=64
89525 Off ch=10 n=38 v=64
89640 On ch=10 n=59 v=95
89645 Off ch=10 n=59 v=64
89760 On ch=10 n=36 v=95
89760 On ch=10 n=59 v=95
89765 Off ch=10 n=59 v=64
89765 Off ch=10 n=36 v=64
89880 On ch=10 n=59 v=95
89885 Off ch=10 n=59 v=64
90000 On ch=10 n=38 v=95
90000 On ch=10 n=59 v=95
90005 Off ch=10 n=59 v=64
90005 Off ch=10 n=38 v=64
90120 On ch=10 n=59 v=95
90125 Off ch=10 n=59 v=64
90240 On ch=10 n=36 v=95
90240 On ch=10 n=59 v=95
90245 Off ch=10 n=59 v=64
90245 Off ch=10 n=36 v=64
90360 On ch=10 n=59 v=95
90365 Off ch=10 n=59 v=64
90480 On ch=10 n=38 v=95
90480 On ch=10 n=59 v=95
90485 Off ch=10 n=59 v=64
90485 Off ch=10 n=38 v=64
90600 On ch=10 n=59 v=95
90605 Off ch=10 n=59 v=64
90720 On ch=10 n=38 v=106
90720 On ch=10 n=59 v=95
90725 Off ch=10 n=59 v=64
90725 Off ch=10 n=38 v=64
90840 On ch=10 n=47 v=106
90840 On ch=10 n=59 v=106
90845 Off ch=10 n=59 v=64
90845 Off ch=10 n=47 v=64
90900 On ch=10 n=47 v=106
90905 Off ch=10 n=47 v=64
90960 On ch=10 n=38 v=106
90960 On ch=10 n=59 v=106
90965 Off ch=10 n=59 v=64
90965 Off ch=10 n=38 v=64
91080 On ch=10 n=43 v=106
91080 On ch=10 n=59 v=106
91085 Off ch=10 n=59 v=64
91085 Off ch=10 n=43 v=64
91140 On ch=10 n=43 v=106
91145 Off ch=10 n=43 v=64
91200 On ch=10 n=36 v=95
91200 On ch=10 n=49 v=106
91200 On ch=10 n=59 v=95
91205 Off ch=10 n=59 v=64
91205 Off ch=10 n=49 v=64
91205 Off ch=10 n=36 v=64
91320 On ch=10 n=59 v=95
91325 Off ch=10 n=59 v=64
91440 On ch=10 n=38 v=95
91440 On ch=10 n=59 v=95
91445 Off ch=10 n=59 v=64
91445 Off ch=10 n=38 v=64
91560 On ch=10 n=59 v=95
91565 Off ch=10 n=59 v=64
91680 On ch=10 n=36 v=95
91680 On ch=10 n=59 v=95
91685 Off ch=10 n=59 v=64
91685 Off ch=10 n=36 v=64
91800 On ch=10 n=59 v=95
91805 Off ch=10 n=59 v=64
91920 On ch=10 n=38 v=95
91920 On ch=10 n=59 v=95
91925 Off ch=10 n=59 v=64
91925 Off ch=10 n=38 v=64
92040 On ch=10 n=59 v=95
92045 Off ch=10 n=59 v=64
92160 On ch=10 n=36 v=95
92160 On ch=10 n=49 v=84
92160 On ch=10 n=59 v=95
92165 Off ch=10 n=59 v=64
92165 Off ch=10 n=49 v=64
92165 Off ch=10 n=36 v=64
92280 On ch=10 n=59 v=95
92285 Off ch=10 n=59 v=64
92400 On ch=10 n=38 v=95
92400 On ch=10 n=59 v=95
92405 Off ch=10 n=59 v=64
92405 Off ch=10 n=38 v=64
92520 On ch=10 n=59 v=95
92525 Off ch=10 n=59 v=64
92640 On ch=10 n=36 v=95
92640 On ch=10 n=59 v=95
92645 Off ch=10 n=59 v=64
92645 Off ch=10 n=36 v=64
92760 On ch=10 n=59 v=95
92765 Off ch=10 n=59 v=64
92880 On ch=10 n=38 v=95
92880 On ch=10 n=59 v=95
92885 Off ch=10 n=59 v=64
92885 Off ch=10 n=38 v=64
93000 On ch=10 n=59 v=95
93005 Off ch=10 n=59 v=64
93120 On ch=10 n=36 v=95
93120 On ch=10 n=59 v=95
93125 Off ch=10 n=59 v=64
93125 Off ch=10 n=36 v=64
93240 On ch=10 n=59 v=95
93245 Off ch=10 n=59 v=64
93360 On ch=10 n=38 v=95
93360 On ch=10 n=59 v=95
93365 Off ch=10 n=59 v=64
93365 Off ch=10 n=38 v=64
93480 On ch=10 n=59 v=95
93485 Off ch=10 n=59 v=64
93600 On ch=10 n=36 v=95
93600 On ch=10 n=59 v=95
93605 Off ch=10 n=59 v=64
93605 Off ch=10 n=36 v=64
93720 On ch=10 n=59 v=95
93725 Off ch=10 n=59 v=64
93840 On ch=10 n=38 v=95
93840 On ch=10 n=59 v=95
93845 Off ch=10 n=59 v=64
93845 Off ch=10 n=38 v=64
93960 On ch=10 n=59 v=95
93965 Off ch=10 n=59 v=64
94080 On ch=10 n=36 v=95
94080 On ch=10 n=59 v=95
94085 Off ch=10 n=59 v=64
94085 Off ch=10 n=36 v=64
94200 On ch=10 n=59 v=95
94205 Off ch=10 n=59 v=64
94320 On ch=10 n=38 v=95
94320 On ch=10 n=59 v=95
94325 Off ch=10 n=59 v=64
94325 Off ch=10 n=38 v=64
94440 On ch=10 n=59 v=95
94445 Off ch=10 n=59 v=64
94560 On ch=10 n=38 v=95
94560 On ch=10 n=59 v=95
94565 Off ch=10 n=59 v=64
94565 Off ch=10 n=38 v=64
94680 On ch=10 n=38 v=106
94680 On ch=10 n=59 v=106
94685 Off ch=10 n=59 v=64
94685 Off ch=10 n=38 v=64
94740 On ch=10 n=38 v=106
94745 Off ch=10 n=38 v=64
94800 On ch=10 n=38 v=106
94800 On ch=10 n=59 v=106
94805 Off ch=10 n=59 v=64
94805 Off ch=10 n=38 v=64
94920 On ch=10 n=43 v=106
94920 On ch=10 n=59 v=106
94925 Off ch=10 n=59 v=64
94925 Off ch=10 n=43 v=64
94980 On ch=10 n=43 v=106
94985 Off ch=10 n=43 v=64
95040 Par ch=10 c=7 v=115
95040 On ch=10 n=36 v=95
95040 On ch=10 n=49 v=106
95040 On ch=10 n=59 v=95
95045 Off ch=10 n=59 v=64
95045 Off ch=10 n=49 v=64
95045 Off ch=10 n=36 v=64
95160 On ch=10 n=59 v=95
95165 Off ch=10 n=59 v=64
95280 Par ch=10 c=7 v=115
95280 On ch=10 n=38 v=95
95280 On ch=10 n=59 v=95
95285 Off ch=10 n=59 v=64
95285 Off ch=10 n=38 v=64
95400 On ch=10 n=59 v=95
95405 Off ch=10 n=59 v=64
95520 On ch=10 n=36 v=95
95520 On ch=10 n=59 v=95
95525 Off ch=10 n=59 v=64
95525 Off ch=10 n=36 v=64
95640 On ch=10 n=59 v=95
95645 Off ch=10 n=59 v=64
95760 On ch=10 n=38 v=95
95760 On ch=10 n=59 v=95
95765 Off ch=10 n=59 v=64
95765 Off ch=10 n=38 v=64
95880 On ch=10 n=59 v=95
95885 Off ch=10 n=59 v=64
96000 On ch=10 n=36 v=95
96000 On ch=10 n=49 v=84
96000 On ch=10 n=59 v=95
96005 Off ch=10 n=59 v=64
96005 Off ch=10 n=49 v=64
96005 Off ch=10 n=36 v=64
96120 On ch=10 n=59 v=95
96125 Off ch=10 n=59 v=64
96240 On ch=10 n=38 v=95
96240 On ch=10 n=59 v=95
96245 Off ch=10 n=59 v=64
96245 Off ch=10 n=38 v=64
96360 On ch=10 n=59 v=95
96365 Off ch=10 n=59 v=64
96480 On ch=10 n=36 v=95
96480 On ch=10 n=59 v=95
96485 Off ch=10 n=59 v=64
96485 Off ch=10 n=36 v=64
96600 On ch=10 n=59 v=95
96605 Off ch=10 n=59 v=64
96720 On ch=10 n=38 v=95
96720 On ch=10 n=59 v=95
96725 Off ch=10 n=59 v=64
96725 Off ch=10 n=38 v=64
96840 On ch=10 n=59 v=95
96845 Off ch=10 n=59 v=64
96960 On ch=10 n=36 v=95
96960 On ch=10 n=59 v=95
96965 Off ch=10 n=59 v=64
96965 Off ch=10 n=36 v=64
97080 On ch=10 n=59 v=95
97085 Off ch=10 n=59 v=64
97200 On ch=10 n=38 v=95
97200 On ch=10 n=59 v=95
97205 Off ch=10 n=59 v=64
97205 Off ch=10 n=38 v=64
97320 On ch=10 n=59 v=95
97325 Off ch=10 n=59 v=64
97440 On ch=10 n=36 v=95
97440 On ch=10 n=59 v=95
97445 Off ch=10 n=59 v=64
97445 Off ch=10 n=36 v=64
97560 On ch=10 n=59 v=95
97565 Off ch=10 n=59 v=64
97680 On ch=10 n=38 v=95
97680 On ch=10 n=59 v=95
97685 Off ch=10 n=59 v=64
97685 Off ch=10 n=38 v=64
97800 On ch=10 n=59 v=95
97805 Off ch=10 n=59 v=64
97920 On ch=10 n=36 v=95
97920 On ch=10 n=59 v=95
97925 Off ch=10 n=59 v=64
97925 Off ch=10 n=36 v=64
98040 On ch=10 n=59 v=95
98045 Off ch=10 n=59 v=64
98160 On ch=10 n=38 v=95
98160 On ch=10 n=59 v=95
98165 Off ch=10 n=59 v=64
98165 Off ch=10 n=38 v=64
98280 On ch=10 n=59 v=95
98285 Off ch=10 n=59 v=64
98400 On ch=10 n=38 v=106
98400 On ch=10 n=59 v=106
98405 Off ch=10 n=59 v=64
98405 Off ch=10 n=38 v=64
98520 On ch=10 n=47 v=106
98520 On ch=10 n=59 v=106
98525 Off ch=10 n=59 v=64
98525 Off ch=10 n=47 v=64
98580 On ch=10 n=47 v=106
98585 Off ch=10 n=47 v=64
98640 On ch=10 n=38 v=106
98640 On ch=10 n=59 v=106
98645 Off ch=10 n=59 v=64
98645 Off ch=10 n=38 v=64
98760 On ch=10 n=43 v=106
98760 On ch=10 n=59 v=106
98765 Off ch=10 n=59 v=64
98765 Off ch=10 n=43 v=64
98820 On ch=10 n=43 v=106
98825 Off ch=10 n=43 v=64
98880 On ch=10 n=36 v=95
98880 On ch=10 n=49 v=106
98880 On ch=10 n=59 v=95
98885 Off ch=10 n=59 v=64
98885 Off ch=10 n=49 v=64
98885 Off ch=10 n=36 v=64
99000 On ch=10 n=59 v=95
99005 Off ch=10 n=59 v=64
99120 On ch=10 n=38 v=95
99120 On ch=10 n=59 v=95
99125 Off ch=10 n=59 v=64
99125 Off ch=10 n=38 v=64
99240 On ch=10 n=59 v=95
99245 Off ch=10 n=59 v=64
99360 On ch=10 n=36 v=95
99360 On ch=10 n=59 v=95
99365 Off ch=10 n=59 v=64
99365 Off ch=10 n=36 v=64
99480 On ch=10 n=59 v=95
99485 Off ch=10 n=59 v=64
99600 On ch=10 n=38 v=95
99600 On ch=10 n=59 v=95
99605 Off ch=10 n=59 v=64
99605 Off ch=10 n=38 v=64
99720 On ch=10 n=59 v=95
99725 Off ch=10 n=59 v=64
99840 On ch=10 n=36 v=95
99840 On ch=10 n=49 v=84
99840 On ch=10 n=59 v=95
99845 Off ch=10 n=59 v=64
99845 Off ch=10 n=49 v=64
99845 Off ch=10 n=36 v=64
99960 On ch=10 n=59 v=95
99965 Off ch=10 n=59 v=64
100080 On ch=10 n=38 v=95
100080 On ch=10 n=59 v=95
100085 Off ch=10 n=59 v=64
100085 Off ch=10 n=38 v=64
100200 On ch=10 n=59 v=95
100205 Off ch=10 n=59 v=64
100320 On ch=10 n=36 v=95
100320 On ch=10 n=59 v=95
100325 Off ch=10 n=59 v=64
100325 Off ch=10 n=36 v=64
100440 On ch=10 n=59 v=95
100445 Off ch=10 n=59 v=64
100560 On ch=10 n=38 v=95
100560 On ch=10 n=59 v=95
100565 Off ch=10 n=59 v=64
100565 Off ch=10 n=38 v=64
100680 On ch=10 n=59 v=95
100685 Off ch=10 n=59 v=64
100800 On ch=10 n=36 v=95
100800 On ch=10 n=59 v=95
100805 Off ch=10 n=59 v=64
100805 Off ch=10 n=36 v=64
100920 On ch=10 n=59 v=95
100925 Off ch=10 n=59 v=64
101040 On ch=10 n=38 v=95
101040 On ch=10 n=59 v=95
101045 Off ch=10 n=59 v=64
101045 Off ch=10 n=38 v=64
101160 On ch=10 n=59 v=95
101165 Off ch=10 n=59 v=64
101280 On ch=10 n=36 v=95
101280 On ch=10 n=59 v=95
101285 Off ch=10 n=59 v=64
101285 Off ch=10 n=36 v=64
101400 On ch=10 n=59 v=95
101405 Off ch=10 n=59 v=64
101520 On ch=10 n=38 v=95
101520 On ch=10 n=59 v=95
101525 Off ch=10 n=59 v=64
101525 Off ch=10 n=38 v=64
101640 On ch=10 n=59 v=95
101645 Off ch=10 n=59 v=64
101760 On ch=10 n=36 v=95
101760 On ch=10 n=59 v=95
101765 Off ch=10 n=59 v=64
101765 Off ch=10 n=36 v=64
101880 On ch=10 n=59 v=95
101885 Off ch=10 n=59 v=64
102000 On ch=10 n=38 v=95
102000 On ch=10 n=59 v=95
102005 Off ch=10 n=59 v=64
102005 Off ch=10 n=38 v=64
102120 On ch=10 n=59 v=95
102125 Off ch=10 n=59 v=64
102240 On ch=10 n=38 v=95
102240 On ch=10 n=59 v=95
102245 Off ch=10 n=59 v=64
102245 Off ch=10 n=38 v=64
102360 On ch=10 n=47 v=106
102360 On ch=10 n=59 v=106
102365 Off ch=10 n=59 v=64
102365 Off ch=10 n=47 v=64
102420 On ch=10 n=47 v=106
102425 Off ch=10 n=47 v=64
102480 On ch=10 n=38 v=95
102480 On ch=10 n=59 v=95
102485 Off ch=10 n=59 v=64
102485 Off ch=10 n=38 v=64
102600 On ch=10 n=43 v=106
102600 On ch=10 n=59 v=106
102605 Off ch=10 n=59 v=64
102605 Off ch=10 n=43 v=64
102660 On ch=10 n=43 v=106
102665 Off ch=10 n=43 v=64
102720 Par ch=10 c=7 v=127
102720 On ch=10 n=36 v=95
102720 On ch=10 n=49 v=106
102720 On ch=10 n=59 v=95
102725 Off ch=10 n=59 v=64
102725 Off ch=10 n=49 v=64
102725 Off ch=10 n=36 v=64
102780 Par ch=10 c=7 v=127
102840 On ch=10 n=59 v=95
102845 Off ch=10 n=59 v=64
102960 On ch=10 n=38 v=95
102960 On ch=10 n=59 v=95
102965 Off ch=10 n=59 v=64
102965 Off ch=10 n=38 v=64
103080 On ch=10 n=59 v=95
103085 Off ch=10 n=59 v=64
103200 On ch=10 n=36 v=95
103200 On ch=10 n=59 v=95
103205 Off ch=10 n=59 v=64
103205 Off ch=10 n=36 v=64
103320 On ch=10 n=59 v=95
103325 Off ch=10 n=59 v=64
103440 On ch=10 n=38 v=95
103440 On ch=10 n=59 v=95
103445 Off ch=10 n=59 v=64
103445 Off ch=10 n=38 v=64
103560 On ch=10 n=59 v=95
103565 Off ch=10 n=59 v=64
103680 On ch=10 n=36 v=95
103680 On ch=10 n=49 v=106
103680 On ch=10 n=59 v=95
103685 Off ch=10 n=59 v=64
103685 Off ch=10 n=49 v=64
103685 Off ch=10 n=36 v=64
103800 On ch=10 n=59 v=95
103805 Off ch=10 n=59 v=64
103920 On ch=10 n=38 v=95
103920 On ch=10 n=59 v=95
103925 Off ch=10 n=59 v=64
103925 Off ch=10 n=38 v=64
104040 On ch=10 n=59 v=95
104045 Off ch=10 n=59 v=64
104160 On ch=10 n=36 v=95
104160 On ch=10 n=59 v=95
104165 Off ch=10 n=59 v=64
104165 Off ch=10 n=36 v=64
104280 On ch=10 n=59 v=95
104285 Off ch=10 n=59 v=64
104400 On ch=10 n=38 v=95
104400 On ch=10 n=59 v=95
104405 Off ch=10 n=59 v=64
104405 Off ch=10 n=38 v=64
104520 On ch=10 n=59 v=95
104525 Off ch=10 n=59 v=64
104640 On ch=10 n=36 v=95
104640 On ch=10 n=49 v=106
104640 On ch=10 n=59 v=95
104645 Off ch=10 n=59 v=64
104645 Off ch=10 n=49 v=64
104645 Off ch=10 n=36 v=64
104760 On ch=10 n=59 v=95
104765 Off ch=10 n=59 v=64
104880 On ch=10 n=38 v=95
104880 On ch=10 n=59 v=95
104885 Off ch=10 n=59 v=64
104885 Off ch=10 n=38 v=64
105000 On ch=10 n=36 v=106
105000 On ch=10 n=59 v=95
105005 Off ch=10 n=59 v=64
105030 Off ch=10 n=36 v=64
105120 On ch=10 n=36 v=95
105120 On ch=10 n=59 v=95
105125 Off ch=10 n=59 v=64
105125 Off ch=10 n=36 v=64
105240 On ch=10 n=38 v=84
105240 On ch=10 n=59 v=95
105245 Off ch=10 n=59 v=64
105270 Off ch=10 n=38 v=64
105300 On ch=10 n=38 v=84
105330 Off ch=10 n=38 v=64
105360 On ch=10 n=38 v=95
105360 On ch=10 n=59 v=95
105365 Off ch=10 n=59 v=64
105365 Off ch=10 n=38 v=64
105480 On ch=10 n=43 v=84
105480 On ch=10 n=59 v=95
105485 Off ch=10 n=59 v=64
105510 Off ch=10 n=43 v=64
105540 On ch=10 n=43 v=84
105570 Off ch=10 n=43 v=64
105600 On ch=10 n=36 v=106
105600 On ch=10 n=49 v=106
105600 On ch=10 n=59 v=106
105605 Off ch=10 n=59 v=64
105605 Off ch=10 n=36 v=64
105720 On ch=10 n=59 v=106
105725 Off ch=10 n=59 v=64
106235 Off ch=10 n=49 v=64
107520 On ch=10 n=36 v=106
107520 On ch=10 n=49 v=106
107680 Off ch=10 n=49 v=64
107680 Off ch=10 n=36 v=64
107680 Meta TrkEnd
TrkEnd
MTrk
0 Meta Text "I've Seen All Good People\""
0 Meta TrkEnd
TrkEnd
MTrk
0 Meta Text "by: Yes"
0 Meta TrkEnd
TrkEnd
MTrk
0 Meta Text "Sequenced by:"
0 Meta TrkEnd
TrkEnd
MTrk
0 Meta Text "Norma Williams"
0 Meta TrkEnd
TrkEnd
