MFile 1 12 480
MTrk
0 Meta SeqName "I'm Alive / ABWH-YES"
0 TimeSig 4/4 24 8
0 Tempo 800000
9600 Tempo 869565
57600 Tempo 857142
58080 Tempo 845070
58560 Tempo 833333
59040 Tempo 821917
59520 Tempo 810810
67680 Tempo 800000
77280 Tempo 1000000
78720 Meta TrkEnd
TrkEnd
MTrk
0 Meta TrkName "Anderson"
0 Meta 0x20 00
0 Meta InstrName "Anderson"
0 KeySig 0 major
10 Par ch=1 c=0 v=0
15 Par ch=1 c=32 v=0
20 PrCh ch=1 p=88
25 Par ch=1 c=7 v=127
30 Par ch=1 c=10 v=64
35 Par ch=1 c=91 v=40
40 Par ch=1 c=93 v=0
45 Par ch=1 c=101 v=0
45 Par ch=1 c=100 v=0
45 Par ch=1 c=6 v=2
50 Par ch=1 c=99 v=1
50 Par ch=1 c=98 v=8
50 Par ch=1 c=6 v=64
55 Par ch=1 c=99 v=1
55 Par ch=1 c=98 v=9
55 Par ch=1 c=6 v=64
60 Par ch=1 c=99 v=1
60 Par ch=1 c=98 v=10
60 Par ch=1 c=6 v=64
65 Par ch=1 c=99 v=1
65 Par ch=1 c=98 v=32
65 Par ch=1 c=6 v=64
70 Par ch=1 c=99 v=1
70 Par ch=1 c=98 v=33
70 Par ch=1 c=6 v=64
75 Par ch=1 c=99 v=1
75 Par ch=1 c=98 v=99
75 Par ch=1 c=6 v=64
80 Par ch=1 c=99 v=1
80 Par ch=1 c=98 v=100
80 Par ch=1 c=6 v=64
85 Par ch=1 c=99 v=1
85 Par ch=1 c=98 v=102
85 Par ch=1 c=6 v=64
90 SysEx f0 41 10 42 12 40 01 33 54 38 f7
95 SysEx f0 41 10 42 12 40 01 34 45 46 f7
100 SysEx f0 41 10 42 12 40 01 35 13 77 f7
10076 On ch=1 n=79 v=102
10170 Off ch=1 n=79 v=102
10198 On ch=1 n=79 v=75
10276 Off ch=1 n=79 v=75
10319 On ch=1 n=79 v=89
10410 Off ch=1 n=79 v=89
10434 On ch=1 n=79 v=81
10548 Off ch=1 n=79 v=81
10564 On ch=1 n=79 v=92
10663 Off ch=1 n=79 v=92
10797 On ch=1 n=79 v=88
10884 Off ch=1 n=79 v=88
10921 On ch=1 n=79 v=76
11028 Off ch=1 n=79 v=76
11043 On ch=1 n=76 v=78
11146 Off ch=1 n=76 v=78
11151 On ch=1 n=71 v=58
11257 Off ch=1 n=71 v=58
11281 On ch=1 n=74 v=87
12088 Off ch=1 n=74 v=87
12227 On ch=1 n=71 v=70
12338 Off ch=1 n=71 v=70
12343 On ch=1 n=74 v=78
12430 Off ch=1 n=74 v=78
12456 On ch=1 n=76 v=85
12698 Off ch=1 n=76 v=85
12710 On ch=1 n=79 v=78
12807 Off ch=1 n=79 v=78
12956 On ch=1 n=79 v=77
13188 Off ch=1 n=79 v=77
13204 On ch=1 n=83 v=83
13313 Off ch=1 n=83 v=83
13328 On ch=1 n=81 v=95
13984 Off ch=1 n=81 v=95
14148 On ch=1 n=79 v=91
14277 Off ch=1 n=79 v=91
14278 On ch=1 n=81 v=87
14370 Off ch=1 n=81 v=87
14389 On ch=1 n=83 v=87
14642 Off ch=1 n=83 v=87
14642 On ch=1 n=79 v=76
14722 Off ch=1 n=79 v=76
14870 On ch=1 n=79 v=80
14988 Off ch=1 n=79 v=80
15001 On ch=1 n=83 v=85
15177 Off ch=1 n=83 v=85
15366 On ch=1 n=81 v=80
15841 On ch=1 n=78 v=72
15865 Off ch=1 n=81 v=80
15899 On ch=1 n=76 v=45
15899 Off ch=1 n=78 v=72
15966 On ch=1 n=74 v=76
15970 Off ch=1 n=76 v=45
16641 Off ch=1 n=74 v=76
17763 On ch=1 n=79 v=92
17861 Off ch=1 n=79 v=92
17881 On ch=1 n=79 v=94
17979 Off ch=1 n=79 v=94
18008 On ch=1 n=79 v=80
18096 Off ch=1 n=79 v=80
18123 On ch=1 n=79 v=73
18235 Off ch=1 n=79 v=73
18254 On ch=1 n=79 v=81
18327 Off ch=1 n=79 v=81
18501 On ch=1 n=79 v=92
18589 Off ch=1 n=79 v=92
18612 On ch=1 n=79 v=87
18727 Off ch=1 n=79 v=87
18739 On ch=1 n=76 v=88
18839 Off ch=1 n=76 v=88
18848 On ch=1 n=71 v=69
18945 Off ch=1 n=71 v=69
18983 On ch=1 n=74 v=87
19743 Off ch=1 n=74 v=87
19921 On ch=1 n=71 v=75
19981 Off ch=1 n=71 v=75
20039 On ch=1 n=74 v=88
20143 Off ch=1 n=74 v=88
20167 On ch=1 n=76 v=90
20384 Off ch=1 n=76 v=90
20396 On ch=1 n=79 v=74
20507 Off ch=1 n=79 v=74
20654 On ch=1 n=79 v=83
20866 Off ch=1 n=79 v=83
20879 On ch=1 n=83 v=72
21011 On ch=1 n=81 v=95
21012 Off ch=1 n=83 v=72
21633 Off ch=1 n=81 v=95
21821 On ch=1 n=79 v=86
21927 Off ch=1 n=79 v=86
21933 On ch=1 n=81 v=76
22059 Off ch=1 n=81 v=76
22060 On ch=1 n=83 v=83
22321 On ch=1 n=79 v=78
22323 Off ch=1 n=83 v=83
22419 Off ch=1 n=79 v=78
22545 On ch=1 n=79 v=80
22671 Off ch=1 n=79 v=80
22671 On ch=1 n=83 v=59
22878 Off ch=1 n=83 v=59
23042 On ch=1 n=81 v=83
23398 Off ch=1 n=81 v=83
23401 On ch=1 n=78 v=72
23459 On ch=1 n=76 v=45
23459 Off ch=1 n=78 v=72
23530 Off ch=1 n=76 v=45
23535 On ch=1 n=74 v=94
24447 Off ch=1 n=74 v=94
25455 On ch=1 n=79 v=108
25677 Off ch=1 n=79 v=108
25677 On ch=1 n=81 v=102
25737 Off ch=1 n=81 v=102
25794 On ch=1 n=81 v=100
26149 Off ch=1 n=81 v=100
26163 On ch=1 n=79 v=91
26213 Off ch=1 n=79 v=91
26287 On ch=1 n=79 v=88
26620 Off ch=1 n=79 v=88
26637 On ch=1 n=81 v=86
26751 Off ch=1 n=81 v=86
26766 On ch=1 n=83 v=79
27106 Off ch=1 n=83 v=79
27116 On ch=1 n=79 v=97
27236 Off ch=1 n=79 v=97
27353 On ch=1 n=79 v=87
27512 Off ch=1 n=79 v=87
27601 On ch=1 n=83 v=84
27776 Off ch=1 n=83 v=84
27840 On ch=1 n=81 v=104
28012 Off ch=1 n=81 v=104
28073 On ch=1 n=81 v=91
28321 On ch=1 n=78 v=93
28333 Off ch=1 n=81 v=91
28536 Off ch=1 n=78 v=93
28556 On ch=1 n=74 v=90
28658 Off ch=1 n=74 v=90
28687 On ch=1 n=79 v=92
29151 Off ch=1 n=79 v=92
29272 On ch=1 n=79 v=95
29519 Off ch=1 n=79 v=95
29522 On ch=1 n=81 v=92
29645 Off ch=1 n=81 v=92
29761 On ch=1 n=81 v=104
29939 Off ch=1 n=81 v=104
30007 On ch=1 n=81 v=98
30122 On ch=1 n=79 v=98
30126 Off ch=1 n=81 v=98
30361 Off ch=1 n=79 v=98
30493 On ch=1 n=81 v=95
30647 Off ch=1 n=81 v=95
30728 On ch=1 n=83 v=90
30958 Off ch=1 n=83 v=90
30964 On ch=1 n=79 v=88
31026 Off ch=1 n=79 v=88
31079 On ch=1 n=79 v=90
31422 Off ch=1 n=79 v=90
31427 On ch=1 n=76 v=81
31651 Off ch=1 n=76 v=81
31669 On ch=1 n=74 v=97
31925 Off ch=1 n=74 v=97
31928 On ch=1 n=78 v=93
32159 Off ch=1 n=78 v=93
32174 On ch=1 n=81 v=98
32281 Off ch=1 n=81 v=98
32294 On ch=1 n=83 v=92
32624 Off ch=1 n=83 v=92
32631 On ch=1 n=79 v=100
32977 Off ch=1 n=79 v=100
33138 On ch=1 n=79 v=91
33352 Off ch=1 n=79 v=91
33352 On ch=1 n=81 v=92
33521 Off ch=1 n=81 v=92
33583 On ch=1 n=81 v=98
33843 Off ch=1 n=81 v=98
33849 On ch=1 n=79 v=92
33916 Off ch=1 n=79 v=92
33969 On ch=1 n=79 v=92
34197 Off ch=1 n=79 v=92
34207 On ch=1 n=81 v=98
34496 Off ch=1 n=81 v=98
34562 On ch=1 n=83 v=98
34804 Off ch=1 n=83 v=98
34816 On ch=1 n=79 v=97
34882 Off ch=1 n=79 v=97
34938 On ch=1 n=79 v=90
35243 Off ch=1 n=79 v=90
35290 On ch=1 n=83 v=97
35376 Off ch=1 n=83 v=97
35404 On ch=1 n=81 v=98
35847 Off ch=1 n=81 v=98
35868 On ch=1 n=74 v=100
35977 Off ch=1 n=74 v=100
35995 On ch=1 n=78 v=113
36230 Off ch=1 n=78 v=113
36247 On ch=1 n=79 v=104
36396 Off ch=1 n=79 v=104
36479 On ch=1 n=79 v=108
36837 Off ch=1 n=79 v=108
37201 On ch=1 n=81 v=108
37298 Off ch=1 n=81 v=108
37323 On ch=1 n=81 v=98
37392 Off ch=1 n=81 v=98
37444 On ch=1 n=81 v=110
37735 Off ch=1 n=81 v=110
37921 On ch=1 n=83 v=110
38027 Off ch=1 n=83 v=110
38044 On ch=1 n=81 v=104
38136 Off ch=1 n=81 v=104
38155 On ch=1 n=79 v=97
38225 Off ch=1 n=79 v=97
38271 On ch=1 n=79 v=104
39819 Off ch=1 n=79 v=104
40807 On ch=1 n=79 v=88
40899 Off ch=1 n=79 v=88
40925 On ch=1 n=79 v=80
41031 Off ch=1 n=79 v=80
41053 On ch=1 n=79 v=84
41147 Off ch=1 n=79 v=84
41168 On ch=1 n=79 v=74
41261 Off ch=1 n=79 v=74
41286 On ch=1 n=79 v=85
41379 Off ch=1 n=79 v=85
41521 On ch=1 n=79 v=86
41612 Off ch=1 n=79 v=86
41637 On ch=1 n=79 v=74
41739 Off ch=1 n=79 v=74
41766 On ch=1 n=76 v=79
41888 On ch=1 n=71 v=85
41892 Off ch=1 n=76 v=79
41998 Off ch=1 n=71 v=85
42021 On ch=1 n=74 v=80
42942 Off ch=1 n=74 v=80
42953 On ch=1 n=71 v=76
43056 Off ch=1 n=71 v=76
43067 On ch=1 n=74 v=80
43172 Off ch=1 n=74 v=80
43184 On ch=1 n=76 v=83
43424 Off ch=1 n=76 v=83
43429 On ch=1 n=79 v=85
43560 Off ch=1 n=79 v=85
43572 On ch=1 n=79 v=84
43796 Off ch=1 n=79 v=84
43914 On ch=1 n=83 v=84
44028 Off ch=1 n=83 v=84
44160 On ch=1 n=81 v=94
44801 Off ch=1 n=81 v=94
44869 On ch=1 n=79 v=83
44981 Off ch=1 n=79 v=83
44995 On ch=1 n=81 v=81
45116 On ch=1 n=83 v=81
45119 Off ch=1 n=81 v=81
45360 Off ch=1 n=83 v=81
45373 On ch=1 n=79 v=86
45468 Off ch=1 n=79 v=86
45490 On ch=1 n=79 v=87
45692 Off ch=1 n=79 v=87
45828 On ch=1 n=83 v=76
45991 Off ch=1 n=83 v=76
46083 On ch=1 n=81 v=97
46544 On ch=1 n=78 v=71
46553 Off ch=1 n=81 v=97
46590 Off ch=1 n=78 v=71
46604 On ch=1 n=76 v=70
46694 On ch=1 n=74 v=68
46702 Off ch=1 n=76 v=70
47791 Off ch=1 n=74 v=68
48495 On ch=1 n=79 v=92
48579 Off ch=1 n=79 v=92
48602 On ch=1 n=79 v=92
48705 Off ch=1 n=79 v=92
48726 On ch=1 n=79 v=85
48814 Off ch=1 n=79 v=85
48837 On ch=1 n=79 v=90
48938 Off ch=1 n=79 v=90
48957 On ch=1 n=79 v=81
49062 Off ch=1 n=79 v=81
49211 On ch=1 n=79 v=91
49300 Off ch=1 n=79 v=91
49321 On ch=1 n=79 v=84
49417 Off ch=1 n=79 v=84
49435 On ch=1 n=76 v=84
49606 Off ch=1 n=76 v=84
49685 On ch=1 n=71 v=67
49840 Off ch=1 n=71 v=67
49920 On ch=1 n=74 v=95
50556 Off ch=1 n=74 v=95
50635 On ch=1 n=71 v=95
50723 Off ch=1 n=71 v=95
50750 On ch=1 n=74 v=85
50854 Off ch=1 n=74 v=85
50876 On ch=1 n=76 v=80
51057 Off ch=1 n=76 v=80
51123 On ch=1 n=79 v=83
51266 Off ch=1 n=79 v=83
51280 On ch=1 n=79 v=102
51482 Off ch=1 n=79 v=102
51599 On ch=1 n=83 v=86
51734 Off ch=1 n=83 v=86
51838 On ch=1 n=81 v=97
52481 Off ch=1 n=81 v=97
52566 On ch=1 n=79 v=100
52655 Off ch=1 n=79 v=100
52673 On ch=1 n=81 v=92
52787 Off ch=1 n=81 v=92
52800 On ch=1 n=83 v=100
53031 Off ch=1 n=83 v=100
53050 On ch=1 n=79 v=98
53111 Off ch=1 n=79 v=98
53167 On ch=1 n=79 v=92
53434 Off ch=1 n=79 v=92
53514 On ch=1 n=83 v=91
53731 Off ch=1 n=83 v=91
53764 On ch=1 n=81 v=112
54335 Off ch=1 n=81 v=112
54487 On ch=1 n=79 v=110
54584 Off ch=1 n=79 v=110
54605 On ch=1 n=81 v=95
54719 Off ch=1 n=81 v=95
54735 On ch=1 n=83 v=106
54916 Off ch=1 n=83 v=106
54965 On ch=1 n=79 v=102
55039 Off ch=1 n=79 v=102
55104 On ch=1 n=79 v=102
55290 Off ch=1 n=79 v=102
55442 On ch=1 n=83 v=97
55658 Off ch=1 n=83 v=97
55704 On ch=1 n=81 v=110
57577 Off ch=1 n=81 v=110
78720 Meta TrkEnd
TrkEnd
MTrk
0 Meta TrkName "Levin1"
0 Meta 0x20 01
0 Meta InstrName "Levin1"
0 KeySig 0 major
105 Par ch=2 c=0 v=0
110 Par ch=2 c=32 v=0
115 PrCh ch=2 p=45
120 Par ch=2 c=7 v=90
125 Par ch=2 c=10 v=64
130 Par ch=2 c=91 v=103
135 Par ch=2 c=93 v=40
140 Par ch=2 c=101 v=0
140 Par ch=2 c=100 v=0
140 Par ch=2 c=6 v=2
145 Par ch=2 c=99 v=1
145 Par ch=2 c=98 v=8
145 Par ch=2 c=6 v=64
150 Par ch=2 c=99 v=1
150 Par ch=2 c=98 v=9
150 Par ch=2 c=6 v=64
155 Par ch=2 c=99 v=1
155 Par ch=2 c=98 v=10
155 Par ch=2 c=6 v=64
160 Par ch=2 c=99 v=1
160 Par ch=2 c=98 v=32
160 Par ch=2 c=6 v=64
165 Par ch=2 c=99 v=1
165 Par ch=2 c=98 v=33
165 Par ch=2 c=6 v=64
170 Par ch=2 c=99 v=1
170 Par ch=2 c=98 v=99
170 Par ch=2 c=6 v=64
175 Par ch=2 c=99 v=1
175 Par ch=2 c=98 v=100
175 Par ch=2 c=6 v=64
180 Par ch=2 c=99 v=1
180 Par ch=2 c=98 v=102
180 Par ch=2 c=6 v=64
10802 On ch=2 n=31 v=78
10803 On ch=2 n=43 v=73
10918 Off ch=2 n=43 v=73
10935 Off ch=2 n=31 v=78
11044 On ch=2 n=42 v=75
11045 On ch=2 n=30 v=87
11145 Off ch=2 n=42 v=75
11149 Off ch=2 n=30 v=87
11281 On ch=2 n=28 v=77
11282 On ch=2 n=40 v=70
11387 Off ch=2 n=40 v=70
11389 Off ch=2 n=28 v=77
11521 On ch=2 n=43 v=83
11521 On ch=2 n=31 v=73
11720 Off ch=2 n=43 v=83
11731 Off ch=2 n=31 v=73
12718 On ch=2 n=33 v=77
12720 On ch=2 n=45 v=73
12825 Off ch=2 n=45 v=73
12835 Off ch=2 n=33 v=77
12956 On ch=2 n=36 v=67
12957 On ch=2 n=48 v=77
13057 Off ch=2 n=48 v=77
13065 Off ch=2 n=36 v=67
13194 On ch=2 n=37 v=85
13194 On ch=2 n=49 v=60
13291 Off ch=2 n=37 v=85
13292 Off ch=2 n=49 v=60
13431 On ch=2 n=50 v=86
13431 On ch=2 n=38 v=79
13588 Off ch=2 n=50 v=86
13595 Off ch=2 n=38 v=79
14393 On ch=2 n=52 v=75
14394 On ch=2 n=40 v=87
14579 Off ch=2 n=40 v=87
14585 Off ch=2 n=52 v=75
15118 On ch=2 n=47 v=73
15118 On ch=2 n=35 v=73
15216 Off ch=2 n=47 v=73
15223 Off ch=2 n=35 v=73
15355 On ch=2 n=38 v=75
15356 On ch=2 n=50 v=68
15513 Off ch=2 n=50 v=68
15525 Off ch=2 n=38 v=75
17023 On ch=2 n=38 v=97
17025 On ch=2 n=50 v=92
17262 Off ch=2 n=50 v=92
17270 Off ch=2 n=38 v=97
17277 On ch=2 n=52 v=97
17278 On ch=2 n=40 v=112
17459 Off ch=2 n=40 v=112
17508 Off ch=2 n=52 v=97
18482 On ch=2 n=31 v=78
18483 On ch=2 n=43 v=73
18598 Off ch=2 n=43 v=73
18615 Off ch=2 n=31 v=78
18724 On ch=2 n=42 v=75
18725 On ch=2 n=30 v=87
18825 Off ch=2 n=42 v=75
18829 Off ch=2 n=30 v=87
18961 On ch=2 n=28 v=77
18962 On ch=2 n=40 v=70
19067 Off ch=2 n=40 v=70
19069 Off ch=2 n=28 v=77
19201 On ch=2 n=43 v=83
19201 On ch=2 n=31 v=73
19400 Off ch=2 n=43 v=83
19411 Off ch=2 n=31 v=73
20398 On ch=2 n=33 v=77
20400 On ch=2 n=45 v=73
20505 Off ch=2 n=45 v=73
20515 Off ch=2 n=33 v=77
20636 On ch=2 n=36 v=67
20637 On ch=2 n=48 v=77
20737 Off ch=2 n=48 v=77
20745 Off ch=2 n=36 v=67
20874 On ch=2 n=37 v=85
20874 On ch=2 n=49 v=60
20971 Off ch=2 n=37 v=85
20972 Off ch=2 n=49 v=60
21111 On ch=2 n=50 v=86
21111 On ch=2 n=38 v=79
21268 Off ch=2 n=50 v=86
21275 Off ch=2 n=38 v=79
22073 On ch=2 n=52 v=75
22074 On ch=2 n=40 v=87
22259 Off ch=2 n=40 v=87
22265 Off ch=2 n=52 v=75
22558 On ch=2 n=35 v=74
22558 On ch=2 n=47 v=73
22741 Off ch=2 n=47 v=73
22743 Off ch=2 n=35 v=74
23035 On ch=2 n=38 v=75
23036 On ch=2 n=50 v=68
23193 Off ch=2 n=50 v=68
23205 Off ch=2 n=38 v=75
24475 On ch=2 n=38 v=97
24475 On ch=2 n=50 v=92
24712 Off ch=2 n=50 v=92
24722 Off ch=2 n=38 v=97
32154 On ch=2 n=30 v=95
32158 On ch=2 n=42 v=104
32334 Off ch=2 n=42 v=104
32353 Off ch=2 n=30 v=95
32638 On ch=2 n=43 v=80
32641 On ch=2 n=31 v=84
32882 Off ch=2 n=31 v=84
32884 Off ch=2 n=43 v=80
33607 On ch=2 n=33 v=85
33608 On ch=2 n=45 v=91
33882 Off ch=2 n=45 v=91
33901 Off ch=2 n=33 v=85
34314 On ch=2 n=35 v=80
34314 On ch=2 n=47 v=76
34387 Off ch=2 n=47 v=76
34395 Off ch=2 n=35 v=80
34563 On ch=2 n=36 v=80
34563 On ch=2 n=48 v=87
35155 Off ch=2 n=48 v=87
35160 Off ch=2 n=36 v=80
35517 On ch=2 n=38 v=85
35517 On ch=2 n=50 v=72
35684 Off ch=2 n=50 v=72
35705 Off ch=2 n=38 v=85
35997 On ch=2 n=30 v=95
35997 On ch=2 n=42 v=85
36173 Off ch=2 n=42 v=85
36183 Off ch=2 n=30 v=95
36481 On ch=2 n=31 v=79
36481 On ch=2 n=43 v=85
37176 Off ch=2 n=31 v=79
37183 Off ch=2 n=43 v=85
37440 On ch=2 n=33 v=84
37442 On ch=2 n=45 v=86
38015 Off ch=2 n=45 v=86
38016 Off ch=2 n=33 v=84
38399 On ch=2 n=36 v=79
38400 On ch=2 n=48 v=84
39086 Off ch=2 n=36 v=79
39125 Off ch=2 n=48 v=84
40075 On ch=2 n=35 v=91
40075 On ch=2 n=47 v=81
40154 Off ch=2 n=47 v=81
40176 Off ch=2 n=35 v=91
40320 On ch=2 n=52 v=106
40320 On ch=2 n=40 v=114
40744 Off ch=2 n=40 v=114
40748 Off ch=2 n=52 v=106
41522 On ch=2 n=31 v=78
41523 On ch=2 n=43 v=73
41638 Off ch=2 n=43 v=73
41655 Off ch=2 n=31 v=78
41764 On ch=2 n=42 v=75
41765 On ch=2 n=30 v=87
41865 Off ch=2 n=42 v=75
41869 Off ch=2 n=30 v=87
42001 On ch=2 n=28 v=77
42002 On ch=2 n=40 v=70
42107 Off ch=2 n=40 v=70
42109 Off ch=2 n=28 v=77
42241 On ch=2 n=43 v=83
42241 On ch=2 n=31 v=73
42440 Off ch=2 n=43 v=83
42451 Off ch=2 n=31 v=73
43438 On ch=2 n=33 v=77
43440 On ch=2 n=45 v=73
43545 Off ch=2 n=45 v=73
43555 Off ch=2 n=33 v=77
43676 On ch=2 n=36 v=67
43677 On ch=2 n=48 v=77
43777 Off ch=2 n=48 v=77
43785 Off ch=2 n=36 v=67
43914 On ch=2 n=37 v=85
43914 On ch=2 n=49 v=60
44011 Off ch=2 n=37 v=85
44012 Off ch=2 n=49 v=60
44151 On ch=2 n=50 v=86
44151 On ch=2 n=38 v=79
44308 Off ch=2 n=50 v=86
44315 Off ch=2 n=38 v=79
45113 On ch=2 n=52 v=75
45114 On ch=2 n=40 v=87
45299 Off ch=2 n=40 v=87
45305 Off ch=2 n=52 v=75
45607 On ch=2 n=47 v=73
45607 On ch=2 n=35 v=73
45712 Off ch=2 n=35 v=73
45720 Off ch=2 n=47 v=73
46075 On ch=2 n=38 v=75
46076 On ch=2 n=50 v=68
46233 Off ch=2 n=50 v=68
46245 Off ch=2 n=38 v=75
78720 Meta TrkEnd
TrkEnd
MTrk
0 Meta TrkName "Piano(Wakeman1)"
0 Meta 0x20 02
0 Meta InstrName "Piano(Wakeman1)"
0 KeySig 0 major
185 Par ch=3 c=0 v=0
190 Par ch=3 c=32 v=0
195 PrCh ch=3 p=1
200 Par ch=3 c=7 v=90
205 Par ch=3 c=10 v=64
210 Par ch=3 c=91 v=79
215 Par ch=3 c=93 v=0
220 Par ch=3 c=101 v=0
220 Par ch=3 c=100 v=0
220 Par ch=3 c=6 v=2
225 Par ch=3 c=99 v=1
225 Par ch=3 c=98 v=8
225 Par ch=3 c=6 v=64
230 Par ch=3 c=99 v=1
230 Par ch=3 c=98 v=9
230 Par ch=3 c=6 v=64
235 Par ch=3 c=99 v=1
235 Par ch=3 c=98 v=10
235 Par ch=3 c=6 v=64
240 Par ch=3 c=99 v=1
240 Par ch=3 c=98 v=32
240 Par ch=3 c=6 v=64
245 Par ch=3 c=99 v=1
245 Par ch=3 c=98 v=33
245 Par ch=3 c=6 v=64
250 Par ch=3 c=99 v=1
250 Par ch=3 c=98 v=99
250 Par ch=3 c=6 v=64
255 Par ch=3 c=99 v=1
255 Par ch=3 c=98 v=100
255 Par ch=3 c=6 v=64
260 Par ch=3 c=99 v=1
260 Par ch=3 c=98 v=102
260 Par ch=3 c=6 v=64
1920 On ch=3 n=67 v=97
1923 On ch=3 n=93 v=98
2034 On ch=3 n=86 v=84
2052 Off ch=3 n=93 v=98
2159 On ch=3 n=83 v=91
2173 Off ch=3 n=86 v=84
2277 Off ch=3 n=67 v=97
2278 On ch=3 n=91 v=90
2286 On ch=3 n=74 v=102
2298 Off ch=3 n=83 v=91
2400 On ch=3 n=86 v=80
2422 Off ch=3 n=91 v=90
2518 On ch=3 n=83 v=92
2531 Off ch=3 n=86 v=80
2635 On ch=3 n=90 v=87
2637 Off ch=3 n=74 v=102
2638 On ch=3 n=78 v=104
2649 Off ch=3 n=83 v=92
2758 On ch=3 n=86 v=65
2760 Off ch=3 n=90 v=87
2879 On ch=3 n=83 v=71
2882 Off ch=3 n=86 v=65
2995 On ch=3 n=76 v=90
2996 Off ch=3 n=78 v=104
3003 On ch=3 n=88 v=84
3008 Off ch=3 n=83 v=71
3121 On ch=3 n=86 v=76
3134 Off ch=3 n=88 v=84
3247 On ch=3 n=83 v=64
3258 Off ch=3 n=86 v=76
3346 On ch=3 n=78 v=87
3353 Off ch=3 n=76 v=90
3356 On ch=3 n=90 v=78
3360 Off ch=3 n=83 v=64
3467 Off ch=3 n=90 v=78
3472 On ch=3 n=83 v=70
3570 Off ch=3 n=78 v=87
3585 On ch=3 n=79 v=97
3590 Off ch=3 n=83 v=70
3592 On ch=3 n=91 v=77
3688 Off ch=3 n=91 v=77
3721 On ch=3 n=83 v=55
3812 Off ch=3 n=79 v=97
3839 On ch=3 n=67 v=95
3840 Off ch=3 n=83 v=55
3840 On ch=3 n=93 v=91
3956 Off ch=3 n=93 v=91
3965 On ch=3 n=83 v=88
4079 On ch=3 n=86 v=94
4080 Off ch=3 n=83 v=88
4199 On ch=3 n=74 v=90
4200 On ch=3 n=91 v=104
4203 Off ch=3 n=86 v=94
4206 Off ch=3 n=67 v=95
4317 Off ch=3 n=91 v=104
4321 On ch=3 n=86 v=82
4433 Off ch=3 n=86 v=82
4443 On ch=3 n=86 v=81
4560 On ch=3 n=76 v=87
4562 Off ch=3 n=74 v=90
4562 Off ch=3 n=86 v=81
4562 On ch=3 n=90 v=67
4681 On ch=3 n=86 v=62
4695 Off ch=3 n=90 v=67
4800 On ch=3 n=86 v=64
4802 Off ch=3 n=86 v=62
4924 On ch=3 n=88 v=87
4930 Off ch=3 n=86 v=64
5161 On ch=3 n=86 v=86
5169 Off ch=3 n=88 v=87
5283 On ch=3 n=88 v=88
5293 Off ch=3 n=86 v=86
5395 Off ch=3 n=76 v=87
5400 On ch=3 n=74 v=80
5520 On ch=3 n=86 v=104
5524 Off ch=3 n=88 v=88
5581 On ch=3 n=88 v=93
5585 Off ch=3 n=86 v=104
5634 On ch=3 n=90 v=91
5641 Off ch=3 n=88 v=93
5693 On ch=3 n=91 v=94
5700 Off ch=3 n=90 v=91
5754 Off ch=3 n=91 v=94
5758 Off ch=3 n=74 v=80
5759 On ch=3 n=67 v=87
5760 On ch=3 n=93 v=97
5879 On ch=3 n=83 v=92
5883 Off ch=3 n=93 v=97
5998 Off ch=3 n=83 v=92
5998 On ch=3 n=86 v=87
6117 On ch=3 n=91 v=84
6124 Off ch=3 n=86 v=87
6128 On ch=3 n=74 v=91
6129 Off ch=3 n=67 v=87
6238 On ch=3 n=83 v=67
6249 Off ch=3 n=91 v=84
6357 On ch=3 n=86 v=71
6369 Off ch=3 n=83 v=67
6478 On ch=3 n=90 v=82
6480 On ch=3 n=78 v=91
6483 Off ch=3 n=74 v=91
6490 Off ch=3 n=86 v=71
6597 On ch=3 n=83 v=68
6599 Off ch=3 n=90 v=82
6719 On ch=3 n=86 v=69
6722 Off ch=3 n=83 v=68
6837 Off ch=3 n=86 v=69
6839 On ch=3 n=88 v=64
6843 Off ch=3 n=78 v=91
6847 On ch=3 n=76 v=80
6960 On ch=3 n=86 v=68
6962 Off ch=3 n=88 v=64
7078 On ch=3 n=83 v=64
7086 Off ch=3 n=86 v=68
7193 On ch=3 n=78 v=70
7198 Off ch=3 n=76 v=80
7199 On ch=3 n=90 v=87
7208 Off ch=3 n=83 v=64
7310 Off ch=3 n=90 v=87
7327 On ch=3 n=83 v=74
7422 Off ch=3 n=78 v=70
7428 On ch=3 n=79 v=92
7432 On ch=3 n=91 v=79
7443 Off ch=3 n=83 v=74
7541 Off ch=3 n=91 v=79
7555 On ch=3 n=83 v=80
7648 Off ch=3 n=79 v=92
7659 Off ch=3 n=83 v=80
7679 On ch=3 n=93 v=81
7683 On ch=3 n=67 v=64
7807 On ch=3 n=83 v=95
7810 Off ch=3 n=93 v=81
7919 On ch=3 n=86 v=86
7927 Off ch=3 n=83 v=95
8036 On ch=3 n=95 v=78
8046 Off ch=3 n=86 v=86
8100 Off ch=3 n=67 v=64
8159 On ch=3 n=74 v=89
8160 Off ch=3 n=95 v=78
8161 On ch=3 n=83 v=78
8279 On ch=3 n=86 v=74
8294 Off ch=3 n=83 v=78
8400 On ch=3 n=74 v=73
8401 On ch=3 n=79 v=98
8401 On ch=3 n=93 v=97
8402 Off ch=3 n=74 v=89
8402 Off ch=3 n=86 v=74
9598 Off ch=3 n=74 v=73
9600 Off ch=3 n=79 v=98
9600 Off ch=3 n=93 v=97
9600 Par ch=3 c=7 v=75
9600 On ch=3 n=64 v=78
9600 On ch=3 n=67 v=72
9600 On ch=3 n=66 v=65
9600 On ch=3 n=59 v=79
10553 Off ch=3 n=64 v=78
10554 Off ch=3 n=66 v=65
10554 Off ch=3 n=59 v=79
10557 Off ch=3 n=67 v=72
10560 On ch=3 n=67 v=64
10560 On ch=3 n=62 v=67
10562 On ch=3 n=60 v=65
10564 On ch=3 n=64 v=76
11503 Off ch=3 n=64 v=76
11504 Off ch=3 n=62 v=67
11506 Off ch=3 n=60 v=65
11516 Off ch=3 n=67 v=64
11520 On ch=3 n=67 v=70
11520 On ch=3 n=69 v=63
11520 On ch=3 n=62 v=68
11520 On ch=3 n=59 v=80
12470 Off ch=3 n=69 v=63
12472 Off ch=3 n=67 v=70
12472 Off ch=3 n=62 v=68
12473 Off ch=3 n=59 v=80
12479 On ch=3 n=60 v=82
12479 On ch=3 n=71 v=77
12482 On ch=3 n=69 v=79
12482 On ch=3 n=64 v=86
13428 Off ch=3 n=71 v=77
13431 Off ch=3 n=60 v=82
13431 Off ch=3 n=64 v=86
13432 Off ch=3 n=69 v=79
13440 On ch=3 n=69 v=85
13440 On ch=3 n=66 v=76
13440 On ch=3 n=62 v=78
13443 On ch=3 n=64 v=83
14391 Off ch=3 n=64 v=83
14392 Off ch=3 n=62 v=78
14396 Off ch=3 n=69 v=85
14397 Off ch=3 n=66 v=76
14398 On ch=3 n=64 v=100
14398 On ch=3 n=71 v=83
14399 On ch=3 n=67 v=85
15349 Off ch=3 n=67 v=85
15350 Off ch=3 n=64 v=100
15352 Off ch=3 n=71 v=83
15359 On ch=3 n=66 v=86
15361 On ch=3 n=62 v=77
15363 On ch=3 n=69 v=92
16788 Off ch=3 n=62 v=77
16788 Off ch=3 n=69 v=92
16793 Off ch=3 n=66 v=86
16805 On ch=3 n=72 v=105
16806 On ch=3 n=64 v=121
16809 On ch=3 n=67 v=108
16919 Off ch=3 n=67 v=108
16919 Off ch=3 n=64 v=121
16920 On ch=3 n=74 v=106
16921 On ch=3 n=66 v=127
16923 On ch=3 n=69 v=126
16926 Off ch=3 n=72 v=105
17266 Off ch=3 n=66 v=127
17274 Off ch=3 n=74 v=106
17275 Off ch=3 n=69 v=126
17280 On ch=3 n=64 v=78
17280 On ch=3 n=67 v=72
17280 On ch=3 n=66 v=65
17280 On ch=3 n=59 v=79
18233 Off ch=3 n=64 v=78
18234 Off ch=3 n=66 v=65
18234 Off ch=3 n=59 v=79
18237 Off ch=3 n=67 v=72
18240 On ch=3 n=67 v=64
18240 On ch=3 n=62 v=67
18242 On ch=3 n=60 v=65
18244 On ch=3 n=64 v=76
19183 Off ch=3 n=64 v=76
19184 Off ch=3 n=62 v=67
19186 Off ch=3 n=60 v=65
19196 Off ch=3 n=67 v=64
19200 On ch=3 n=67 v=70
19200 On ch=3 n=69 v=63
19200 On ch=3 n=62 v=68
19200 On ch=3 n=59 v=80
20150 Off ch=3 n=69 v=63
20152 Off ch=3 n=67 v=70
20152 Off ch=3 n=62 v=68
20153 Off ch=3 n=59 v=80
20159 On ch=3 n=60 v=82
20159 On ch=3 n=71 v=77
20162 On ch=3 n=69 v=79
20162 On ch=3 n=64 v=86
21108 Off ch=3 n=71 v=77
21111 Off ch=3 n=60 v=82
21111 Off ch=3 n=64 v=86
21112 Off ch=3 n=69 v=79
21120 On ch=3 n=69 v=85
21120 On ch=3 n=66 v=76
21120 On ch=3 n=62 v=78
21123 On ch=3 n=64 v=83
22071 Off ch=3 n=64 v=83
22072 Off ch=3 n=62 v=78
22076 Off ch=3 n=69 v=85
22077 Off ch=3 n=66 v=76
22078 On ch=3 n=64 v=100
22078 On ch=3 n=71 v=83
22079 On ch=3 n=67 v=85
23029 Off ch=3 n=67 v=85
23030 Off ch=3 n=64 v=100
23032 Off ch=3 n=71 v=83
23039 On ch=3 n=66 v=86
23041 On ch=3 n=62 v=77
23043 On ch=3 n=69 v=92
24468 Off ch=3 n=62 v=77
24468 Off ch=3 n=69 v=92
24473 Off ch=3 n=66 v=86
24485 On ch=3 n=72 v=105
24486 On ch=3 n=64 v=121
24489 On ch=3 n=67 v=108
24599 Off ch=3 n=67 v=108
24599 Off ch=3 n=64 v=121
24600 On ch=3 n=74 v=106
24601 On ch=3 n=66 v=127
24603 On ch=3 n=69 v=126
24606 Off ch=3 n=72 v=105
24946 Off ch=3 n=66 v=127
24954 Off ch=3 n=74 v=106
24955 Off ch=3 n=69 v=126
24960 On ch=3 n=67 v=70
24960 On ch=3 n=69 v=63
24960 On ch=3 n=62 v=68
24960 On ch=3 n=59 v=80
25910 Off ch=3 n=69 v=63
25912 Off ch=3 n=67 v=70
25912 Off ch=3 n=62 v=68
25913 Off ch=3 n=59 v=80
25919 On ch=3 n=60 v=82
25919 On ch=3 n=71 v=77
25922 On ch=3 n=69 v=79
25922 On ch=3 n=64 v=86
26868 Off ch=3 n=71 v=77
26871 Off ch=3 n=60 v=82
26871 Off ch=3 n=64 v=86
26872 Off ch=3 n=69 v=79
26880 On ch=3 n=67 v=64
26880 On ch=3 n=62 v=67
26882 On ch=3 n=60 v=65
26884 On ch=3 n=64 v=76
27823 Off ch=3 n=64 v=76
27824 Off ch=3 n=62 v=67
27826 Off ch=3 n=60 v=65
27836 Off ch=3 n=67 v=64
27840 On ch=3 n=69 v=85
27840 On ch=3 n=66 v=76
27840 On ch=3 n=62 v=78
27843 On ch=3 n=64 v=83
28791 Off ch=3 n=64 v=83
28792 Off ch=3 n=62 v=78
28796 Off ch=3 n=69 v=85
28797 Off ch=3 n=66 v=76
28800 On ch=3 n=67 v=70
28800 On ch=3 n=69 v=63
28800 On ch=3 n=62 v=68
28800 On ch=3 n=59 v=80
29750 Off ch=3 n=69 v=63
29752 Off ch=3 n=67 v=70
29752 Off ch=3 n=62 v=68
29753 Off ch=3 n=59 v=80
29759 On ch=3 n=60 v=82
29759 On ch=3 n=71 v=77
29762 On ch=3 n=69 v=79
29762 On ch=3 n=64 v=86
30708 Off ch=3 n=71 v=77
30711 Off ch=3 n=60 v=82
30711 Off ch=3 n=64 v=86
30712 Off ch=3 n=69 v=79
30720 On ch=3 n=67 v=64
30720 On ch=3 n=62 v=67
30722 On ch=3 n=60 v=65
30724 On ch=3 n=64 v=76
31663 Off ch=3 n=64 v=76
31664 Off ch=3 n=62 v=67
31666 Off ch=3 n=60 v=65
31676 Off ch=3 n=67 v=64
31680 On ch=3 n=69 v=85
31680 On ch=3 n=66 v=76
31680 On ch=3 n=62 v=78
31683 On ch=3 n=64 v=83
32631 Off ch=3 n=64 v=83
32632 Off ch=3 n=62 v=78
32636 Off ch=3 n=69 v=85
32637 Off ch=3 n=66 v=76
32640 On ch=3 n=67 v=70
32640 On ch=3 n=69 v=63
32640 On ch=3 n=62 v=68
32640 On ch=3 n=59 v=80
33590 Off ch=3 n=69 v=63
33592 Off ch=3 n=67 v=70
33592 Off ch=3 n=62 v=68
33593 Off ch=3 n=59 v=80
33599 On ch=3 n=60 v=82
33599 On ch=3 n=71 v=77
33602 On ch=3 n=69 v=79
33602 On ch=3 n=64 v=86
34548 Off ch=3 n=71 v=77
34551 Off ch=3 n=60 v=82
34551 Off ch=3 n=64 v=86
34552 Off ch=3 n=69 v=79
34560 On ch=3 n=67 v=64
34560 On ch=3 n=62 v=67
34562 On ch=3 n=60 v=65
34564 On ch=3 n=64 v=76
35503 Off ch=3 n=64 v=76
35504 Off ch=3 n=62 v=67
35506 Off ch=3 n=60 v=65
35516 Off ch=3 n=67 v=64
35520 On ch=3 n=69 v=85
35520 On ch=3 n=66 v=76
35520 On ch=3 n=62 v=78
35523 On ch=3 n=64 v=83
36471 Off ch=3 n=64 v=83
36472 Off ch=3 n=62 v=78
36476 Off ch=3 n=69 v=85
36477 Off ch=3 n=66 v=76
36480 On ch=3 n=67 v=70
36480 On ch=3 n=69 v=63
36480 On ch=3 n=62 v=68
36480 On ch=3 n=59 v=80
37430 Off ch=3 n=69 v=63
37432 Off ch=3 n=67 v=70
37432 Off ch=3 n=62 v=68
37433 Off ch=3 n=59 v=80
37439 On ch=3 n=60 v=82
37439 On ch=3 n=71 v=77
37442 On ch=3 n=69 v=79
37442 On ch=3 n=64 v=86
38388 Off ch=3 n=71 v=77
38391 Off ch=3 n=60 v=82
38391 Off ch=3 n=64 v=86
38392 Off ch=3 n=69 v=79
38400 On ch=3 n=67 v=66
38402 On ch=3 n=60 v=66
38404 On ch=3 n=64 v=77
40303 Off ch=3 n=64 v=77
40306 Off ch=3 n=60 v=66
40311 Off ch=3 n=67 v=66
40320 Par ch=3 c=7 v=75
40320 On ch=3 n=64 v=78
40320 On ch=3 n=67 v=72
40320 On ch=3 n=66 v=65
40320 On ch=3 n=59 v=79
41273 Off ch=3 n=64 v=78
41274 Off ch=3 n=66 v=65
41274 Off ch=3 n=59 v=79
41277 Off ch=3 n=67 v=72
41280 On ch=3 n=67 v=64
41280 On ch=3 n=62 v=67
41282 On ch=3 n=60 v=65
41284 On ch=3 n=64 v=76
42223 Off ch=3 n=64 v=76
42224 Off ch=3 n=62 v=67
42226 Off ch=3 n=60 v=65
42236 Off ch=3 n=67 v=64
42240 On ch=3 n=67 v=70
42240 On ch=3 n=69 v=63
42240 On ch=3 n=62 v=68
42240 On ch=3 n=59 v=80
43190 Off ch=3 n=69 v=63
43192 Off ch=3 n=67 v=70
43192 Off ch=3 n=62 v=68
43193 Off ch=3 n=59 v=80
43199 On ch=3 n=60 v=82
43199 On ch=3 n=71 v=77
43202 On ch=3 n=69 v=79
43202 On ch=3 n=64 v=86
44148 Off ch=3 n=71 v=77
44151 Off ch=3 n=60 v=82
44151 Off ch=3 n=64 v=86
44152 Off ch=3 n=69 v=79
44160 On ch=3 n=69 v=85
44160 On ch=3 n=66 v=76
44160 On ch=3 n=62 v=78
44163 On ch=3 n=64 v=83
45111 Off ch=3 n=64 v=83
45112 Off ch=3 n=62 v=78
45116 Off ch=3 n=69 v=85
45117 Off ch=3 n=66 v=76
45118 On ch=3 n=64 v=100
45118 On ch=3 n=71 v=83
45119 On ch=3 n=67 v=85
46069 Off ch=3 n=67 v=85
46070 Off ch=3 n=64 v=100
46072 Off ch=3 n=71 v=83
46079 On ch=3 n=66 v=86
46081 On ch=3 n=62 v=77
46083 On ch=3 n=69 v=92
47508 Off ch=3 n=62 v=77
47508 Off ch=3 n=69 v=92
47513 Off ch=3 n=66 v=86
47525 On ch=3 n=72 v=105
47526 On ch=3 n=64 v=121
47529 On ch=3 n=67 v=108
47533 Par ch=3 c=7 v=84
47639 Off ch=3 n=67 v=108
47639 Off ch=3 n=64 v=121
47640 On ch=3 n=74 v=106
47641 On ch=3 n=66 v=127
47643 On ch=3 n=69 v=126
47646 Off ch=3 n=72 v=105
47986 Off ch=3 n=66 v=127
47994 Off ch=3 n=74 v=106
47995 Off ch=3 n=69 v=126
48000 On ch=3 n=64 v=78
48000 On ch=3 n=67 v=72
48000 On ch=3 n=66 v=65
48000 On ch=3 n=59 v=79
48953 Off ch=3 n=64 v=78
48954 Off ch=3 n=66 v=65
48954 Off ch=3 n=59 v=79
48957 Off ch=3 n=67 v=72
48960 On ch=3 n=67 v=64
48960 On ch=3 n=62 v=67
48962 On ch=3 n=60 v=65
48964 On ch=3 n=64 v=76
49542 Par ch=3 c=7 v=87
49903 Off ch=3 n=64 v=76
49904 Off ch=3 n=62 v=67
49906 Off ch=3 n=60 v=65
49916 Off ch=3 n=67 v=64
49920 On ch=3 n=67 v=70
49920 On ch=3 n=69 v=63
49920 On ch=3 n=62 v=68
49920 On ch=3 n=59 v=80
50744 Par ch=3 c=7 v=89
50870 Off ch=3 n=69 v=63
50872 Off ch=3 n=67 v=70
50872 Off ch=3 n=62 v=68
50873 Off ch=3 n=59 v=80
50879 On ch=3 n=60 v=82
50879 On ch=3 n=71 v=77
50882 On ch=3 n=69 v=79
50882 On ch=3 n=64 v=86
51103 Par ch=3 c=7 v=92
51446 Par ch=3 c=7 v=94
51604 Par ch=3 c=7 v=97
51828 Off ch=3 n=71 v=77
51831 Off ch=3 n=60 v=82
51831 Off ch=3 n=64 v=86
51832 Off ch=3 n=69 v=79
51840 On ch=3 n=69 v=85
51840 On ch=3 n=66 v=76
51840 On ch=3 n=62 v=78
51843 On ch=3 n=64 v=83
52791 Off ch=3 n=64 v=83
52792 Off ch=3 n=62 v=78
52796 Off ch=3 n=69 v=85
52797 Off ch=3 n=66 v=76
52798 On ch=3 n=64 v=100
52798 On ch=3 n=71 v=83
52799 On ch=3 n=67 v=85
53749 Off ch=3 n=67 v=85
53750 Off ch=3 n=64 v=100
53752 Off ch=3 n=71 v=83
53759 On ch=3 n=66 v=88
53761 On ch=3 n=62 v=78
53763 On ch=3 n=69 v=94
53780 Par ch=3 c=7 v=99
54715 Off ch=3 n=66 v=88
54715 Off ch=3 n=69 v=94
54716 Off ch=3 n=62 v=78
54720 On ch=3 n=71 v=103
54721 On ch=3 n=62 v=98
54723 On ch=3 n=67 v=92
55668 Off ch=3 n=67 v=92
55672 Off ch=3 n=71 v=103
55674 Off ch=3 n=62 v=98
55680 KeySig 1 major
55680 On ch=3 n=69 v=117
55680 On ch=3 n=71 v=100
55680 On ch=3 n=64 v=108
56633 Off ch=3 n=71 v=100
56634 Off ch=3 n=69 v=117
56636 Off ch=3 n=64 v=108
56638 On ch=3 n=61 v=92
56640 On ch=3 n=66 v=85
57120 On ch=3 n=71 v=75
57238 Off ch=3 n=71 v=75
57240 On ch=3 n=69 v=81
57358 Off ch=3 n=69 v=81
57360 On ch=3 n=73 v=75
57478 Off ch=3 n=73 v=75
57480 On ch=3 n=69 v=83
57587 Off ch=3 n=61 v=92
57588 Off ch=3 n=66 v=85
57598 Off ch=3 n=69 v=83
57600 On ch=3 n=71 v=86
57604 On ch=3 n=62 v=98
57718 Off ch=3 n=71 v=86
57720 On ch=3 n=69 v=83
57838 Off ch=3 n=69 v=83
57840 On ch=3 n=73 v=67
57958 Off ch=3 n=73 v=67
57960 On ch=3 n=71 v=80
58073 Off ch=3 n=62 v=98
58078 Off ch=3 n=71 v=80
58080 On ch=3 n=69 v=86
58087 On ch=3 n=64 v=102
58198 Off ch=3 n=69 v=86
58200 On ch=3 n=71 v=91
58318 Off ch=3 n=71 v=91
58320 On ch=3 n=73 v=84
58438 Off ch=3 n=73 v=84
58440 On ch=3 n=69 v=82
58558 Off ch=3 n=69 v=82
58560 On ch=3 n=71 v=86
58564 On ch=3 n=66 v=113
58566 Off ch=3 n=64 v=102
58678 Off ch=3 n=71 v=86
58680 On ch=3 n=69 v=88
58798 Off ch=3 n=69 v=88
58800 On ch=3 n=71 v=91
58918 Off ch=3 n=71 v=91
58920 On ch=3 n=73 v=91
59038 Off ch=3 n=73 v=91
59040 On ch=3 n=74 v=90
59043 Off ch=3 n=66 v=113
59049 On ch=3 n=67 v=103
59158 Off ch=3 n=74 v=90
59160 On ch=3 n=76 v=96
59278 Off ch=3 n=76 v=96
59280 On ch=3 n=78 v=99
59398 Off ch=3 n=78 v=99
59400 On ch=3 n=79 v=104
59502 Off ch=3 n=67 v=103
59518 Off ch=3 n=79 v=104
59520 On ch=3 n=81 v=92
59521 On ch=3 n=69 v=91
59638 Off ch=3 n=81 v=92
59640 On ch=3 n=76 v=94
59758 Off ch=3 n=76 v=94
59760 On ch=3 n=78 v=94
59878 Off ch=3 n=78 v=94
59880 On ch=3 n=79 v=94
59998 Off ch=3 n=69 v=91
59998 Off ch=3 n=79 v=94
60000 On ch=3 n=81 v=101
60002 On ch=3 n=71 v=86
60118 Off ch=3 n=81 v=101
60120 On ch=3 n=83 v=91
60172 Par ch=3 c=7 v=98
60236 Off ch=3 n=71 v=86
60238 Off ch=3 n=83 v=91
60240 On ch=3 n=85 v=85
60244 On ch=3 n=73 v=94
60332 Par ch=3 c=7 v=100
60358 Off ch=3 n=85 v=85
60360 On ch=3 n=86 v=96
60478 Off ch=3 n=86 v=96
60480 On ch=3 n=88 v=101
60481 Off ch=3 n=73 v=94
60489 On ch=3 n=74 v=94
60598 Off ch=3 n=88 v=101
60600 On ch=3 n=90 v=101
60643 Par ch=3 c=7 v=103
60717 Off ch=3 n=74 v=94
60718 Off ch=3 n=90 v=101
60720 On ch=3 n=91 v=94
60721 On ch=3 n=76 v=95
60838 Off ch=3 n=91 v=94
60840 On ch=3 n=93 v=95
60956 Off ch=3 n=76 v=95
60958 Off ch=3 n=93 v=95
60959 On ch=3 n=78 v=104
60960 On ch=3 n=91 v=95
61009 Par ch=3 c=7 v=105
61078 Off ch=3 n=91 v=95
61080 On ch=3 n=90 v=97
61193 Off ch=3 n=78 v=104
61195 On ch=3 n=79 v=108
61198 Off ch=3 n=90 v=97
61200 On ch=3 n=88 v=101
61216 Par ch=3 c=7 v=108
61318 Off ch=3 n=88 v=101
61320 On ch=3 n=86 v=101
61368 Par ch=3 c=7 v=110
61438 Off ch=3 n=86 v=101
61440 Off ch=3 n=79 v=108
61440 On ch=3 n=93 v=112
61451 On ch=3 n=74 v=108
61558 Off ch=3 n=93 v=112
61560 On ch=3 n=91 v=99
61678 Off ch=3 n=91 v=99
61680 On ch=3 n=90 v=100
61798 Off ch=3 n=90 v=100
61800 On ch=3 n=88 v=115
61810 Par ch=3 c=7 v=113
61918 Off ch=3 n=88 v=115
61920 On ch=3 n=86 v=100
62038 Off ch=3 n=86 v=100
62040 On ch=3 n=81 v=98
62158 Off ch=3 n=81 v=98
62160 On ch=3 n=86 v=101
62278 Off ch=3 n=86 v=101
62280 On ch=3 n=83 v=94
62398 Off ch=3 n=83 v=94
62400 On ch=3 n=93 v=92
62421 Par ch=3 c=7 v=115
62518 Off ch=3 n=93 v=92
62520 On ch=3 n=91 v=83
62638 Off ch=3 n=91 v=83
62640 On ch=3 n=90 v=93
62758 Off ch=3 n=90 v=93
62760 On ch=3 n=86 v=85
62878 Off ch=3 n=86 v=85
62880 On ch=3 n=81 v=76
62998 Off ch=3 n=81 v=76
63000 On ch=3 n=86 v=76
63118 Off ch=3 n=86 v=76
63120 On ch=3 n=83 v=85
63238 Off ch=3 n=83 v=85
63240 On ch=3 n=86 v=84
63311 Off ch=3 n=74 v=108
63358 Off ch=3 n=86 v=84
63360 KeySig 0 major
63360 On ch=3 n=93 v=87
63478 Off ch=3 n=93 v=87
63480 On ch=3 n=83 v=52
63598 Off ch=3 n=83 v=52
63600 On ch=3 n=86 v=50
63718 Off ch=3 n=86 v=50
63720 On ch=3 n=91 v=73
63838 Off ch=3 n=91 v=73
63840 On ch=3 n=83 v=70
63899 Par ch=3 c=7 v=118
63958 Off ch=3 n=83 v=70
63960 On ch=3 n=86 v=80
64078 Off ch=3 n=86 v=80
64080 On ch=3 n=90 v=67
64198 Off ch=3 n=90 v=67
64200 On ch=3 n=88 v=66
64318 Off ch=3 n=88 v=66
64320 On ch=3 n=86 v=70
64438 Off ch=3 n=86 v=70
64440 On ch=3 n=81 v=67
64558 Off ch=3 n=81 v=67
64560 On ch=3 n=86 v=72
64678 Off ch=3 n=86 v=72
64680 On ch=3 n=90 v=71
64798 Off ch=3 n=90 v=71
64800 On ch=3 n=93 v=73
64918 Off ch=3 n=93 v=73
64920 On ch=3 n=86 v=70
65038 Off ch=3 n=86 v=70
65040 On ch=3 n=86 v=80
65098 Off ch=3 n=86 v=80
65100 On ch=3 n=88 v=65
65158 Off ch=3 n=88 v=65
65160 On ch=3 n=90 v=71
65218 Off ch=3 n=90 v=71
65220 On ch=3 n=91 v=78
65278 Off ch=3 n=91 v=78
65280 On ch=3 n=93 v=71
65398 Off ch=3 n=93 v=71
65400 On ch=3 n=83 v=71
65518 Off ch=3 n=83 v=71
65520 On ch=3 n=86 v=74
65638 Off ch=3 n=86 v=74
65640 On ch=3 n=91 v=81
65758 Off ch=3 n=91 v=81
65760 On ch=3 n=90 v=67
65878 Off ch=3 n=90 v=67
65880 On ch=3 n=86 v=80
65998 Off ch=3 n=86 v=80
66000 On ch=3 n=81 v=80
66118 Off ch=3 n=81 v=80
66120 On ch=3 n=86 v=80
66238 Off ch=3 n=86 v=80
66240 On ch=3 n=88 v=69
66358 Off ch=3 n=88 v=69
66360 On ch=3 n=90 v=70
66478 Off ch=3 n=90 v=70
66480 On ch=3 n=86 v=73
66598 Off ch=3 n=86 v=73
66600 On ch=3 n=81 v=66
66718 Off ch=3 n=81 v=66
66720 On ch=3 n=86 v=84
66838 Off ch=3 n=86 v=84
66840 On ch=3 n=88 v=75
66958 Off ch=3 n=88 v=75
66960 On ch=3 n=90 v=81
67078 Off ch=3 n=90 v=81
67080 On ch=3 n=91 v=73
67198 Off ch=3 n=91 v=73
67200 On ch=3 n=93 v=76
69057 Off ch=3 n=93 v=76
69120 On ch=3 n=67 v=83
69120 On ch=3 n=93 v=86
69238 Off ch=3 n=93 v=86
69240 On ch=3 n=83 v=77
69358 Off ch=3 n=83 v=77
69360 On ch=3 n=86 v=84
69478 Off ch=3 n=86 v=84
69480 On ch=3 n=74 v=83
69480 On ch=3 n=91 v=83
69492 Off ch=3 n=67 v=83
69598 Off ch=3 n=91 v=83
69600 On ch=3 n=83 v=75
69602 On ch=3 n=78 v=36
69718 Off ch=3 n=83 v=75
69720 On ch=3 n=86 v=81
69838 Off ch=3 n=86 v=81
69840 On ch=3 n=90 v=75
69958 Off ch=3 n=90 v=75
69960 On ch=3 n=81 v=96
70080 On ch=3 n=86 v=76
70083 Off ch=3 n=81 v=96
70088 Off ch=3 n=74 v=83
70198 Off ch=3 n=86 v=76
70200 On ch=3 n=88 v=77
70318 Off ch=3 n=88 v=77
70320 On ch=3 n=86 v=80
70327 Off ch=3 n=78 v=36
70327 On ch=3 n=74 v=78
70438 Off ch=3 n=86 v=80
70440 On ch=3 n=81 v=80
70558 Off ch=3 n=81 v=80
70559 On ch=3 n=76 v=74
70560 On ch=3 n=86 v=85
70565 Off ch=3 n=74 v=78
70678 Off ch=3 n=86 v=85
70680 On ch=3 n=88 v=80
70798 Off ch=3 n=88 v=80
70800 On ch=3 n=90 v=85
70803 On ch=3 n=78 v=59
70806 Off ch=3 n=76 v=74
70918 Off ch=3 n=90 v=85
70920 On ch=3 n=86 v=84
71038 Off ch=3 n=86 v=84
71040 Off ch=3 n=78 v=59
71040 On ch=3 n=93 v=91
71043 On ch=3 n=67 v=87
71158 Off ch=3 n=93 v=91
71160 On ch=3 n=83 v=80
71278 Off ch=3 n=83 v=80
71280 On ch=3 n=86 v=85
71398 Off ch=3 n=67 v=87
71398 Off ch=3 n=86 v=85
71400 On ch=3 n=91 v=79
71403 On ch=3 n=74 v=98
71518 Off ch=3 n=91 v=79
71520 On ch=3 n=90 v=71
71638 Off ch=3 n=90 v=71
71640 On ch=3 n=86 v=85
71758 Off ch=3 n=86 v=85
71760 On ch=3 n=81 v=83
71878 Off ch=3 n=81 v=83
71880 On ch=3 n=95 v=78
71998 Off ch=3 n=95 v=78
72000 On ch=3 n=81 v=71
72118 Off ch=3 n=81 v=71
72120 On ch=3 n=93 v=88
72226 Off ch=3 n=74 v=98
72238 Off ch=3 n=93 v=88
72240 On ch=3 n=74 v=75
72240 On ch=3 n=81 v=75
72358 Off ch=3 n=81 v=75
72360 On ch=3 n=86 v=76
72478 Off ch=3 n=86 v=76
72480 On ch=3 n=90 v=70
72598 Off ch=3 n=74 v=75
72598 Off ch=3 n=90 v=70
72600 On ch=3 n=78 v=74
72600 On ch=3 n=86 v=79
72718 Off ch=3 n=86 v=79
72720 On ch=3 n=88 v=78
72838 Off ch=3 n=88 v=78
72840 On ch=3 n=90 v=82
72958 Off ch=3 n=78 v=74
72958 Off ch=3 n=90 v=82
72960 On ch=3 n=67 v=83
72960 On ch=3 n=93 v=90
73078 Off ch=3 n=93 v=90
73080 On ch=3 n=83 v=79
73198 Off ch=3 n=83 v=79
73200 On ch=3 n=86 v=78
73318 Off ch=3 n=86 v=78
73320 On ch=3 n=74 v=80
73320 On ch=3 n=91 v=80
73332 Off ch=3 n=67 v=83
73438 Off ch=3 n=91 v=80
73440 On ch=3 n=86 v=80
73558 Off ch=3 n=86 v=80
73560 On ch=3 n=81 v=79
73673 On ch=3 n=79 v=86
73678 Off ch=3 n=81 v=79
73680 On ch=3 n=90 v=73
73681 Off ch=3 n=74 v=80
73798 Off ch=3 n=90 v=73
73800 On ch=3 n=86 v=80
73918 Off ch=3 n=86 v=80
73920 On ch=3 n=81 v=72
74038 Off ch=3 n=81 v=72
74040 On ch=3 n=88 v=74
74158 Off ch=3 n=88 v=74
74160 On ch=3 n=86 v=80
74278 Off ch=3 n=86 v=80
74279 On ch=3 n=76 v=78
74280 On ch=3 n=81 v=79
74287 Off ch=3 n=79 v=86
74398 Off ch=3 n=81 v=79
74400 On ch=3 n=86 v=77
74518 Off ch=3 n=86 v=77
74520 On ch=3 n=88 v=74
74638 Off ch=3 n=88 v=74
74640 On ch=3 n=90 v=74
74758 Off ch=3 n=90 v=74
74760 On ch=3 n=86 v=75
74858 Off ch=3 n=76 v=78
74878 Off ch=3 n=86 v=75
74880 On ch=3 n=67 v=83
74880 On ch=3 n=93 v=90
74998 Off ch=3 n=93 v=90
75000 On ch=3 n=83 v=73
75118 Off ch=3 n=83 v=73
75120 On ch=3 n=86 v=83
75238 Off ch=3 n=86 v=83
75240 On ch=3 n=74 v=80
75240 On ch=3 n=91 v=79
75252 Off ch=3 n=67 v=83
75358 Off ch=3 n=91 v=79
75360 On ch=3 n=83 v=79
75478 Off ch=3 n=83 v=79
75480 On ch=3 n=86 v=77
75515 On ch=3 n=90 v=47
75598 Off ch=3 n=86 v=77
75615 On ch=3 n=88 v=68
75633 Off ch=3 n=90 v=47
75725 On ch=3 n=86 v=82
75733 Off ch=3 n=88 v=68
75958 Off ch=3 n=74 v=80
75960 On ch=3 n=81 v=79
75963 Off ch=3 n=86 v=82
75963 On ch=3 n=76 v=78
76078 Off ch=3 n=81 v=79
76080 On ch=3 n=86 v=79
76198 Off ch=3 n=86 v=79
76200 On ch=3 n=88 v=65
76318 Off ch=3 n=88 v=65
76320 On ch=3 n=90 v=68
76437 On ch=3 n=79 v=86
76438 Off ch=3 n=90 v=68
76440 On ch=3 n=86 v=81
76447 Off ch=3 n=76 v=78
76558 Off ch=3 n=86 v=81
76560 On ch=3 n=91 v=74
76678 Off ch=3 n=91 v=74
76680 On ch=3 n=86 v=85
76798 Off ch=3 n=86 v=85
76799 Off ch=3 n=79 v=86
76800 On ch=3 n=67 v=87
76800 On ch=3 n=93 v=98
78688 Off ch=3 n=93 v=98
78693 Off ch=3 n=67 v=87
78720 Meta TrkEnd
TrkEnd
MTrk
0 Meta TrkName "Violin(W2)"
0 Meta 0x20 03
0 Meta InstrName "Violin(W2)"
0 KeySig 0 major
265 Par ch=4 c=0 v=0
270 Par ch=4 c=32 v=0
275 PrCh ch=4 p=40
280 Par ch=4 c=7 v=80
285 Par ch=4 c=10 v=64
290 Par ch=4 c=91 v=67
295 Par ch=4 c=93 v=0
300 Par ch=4 c=101 v=0
300 Par ch=4 c=100 v=0
300 Par ch=4 c=6 v=2
305 Par ch=4 c=99 v=1
305 Par ch=4 c=98 v=8
305 Par ch=4 c=6 v=64
310 Par ch=4 c=99 v=1
310 Par ch=4 c=98 v=9
310 Par ch=4 c=6 v=64
315 Par ch=4 c=99 v=1
315 Par ch=4 c=98 v=10
315 Par ch=4 c=6 v=64
320 Par ch=4 c=99 v=1
320 Par ch=4 c=98 v=32
320 Par ch=4 c=6 v=64
325 Par ch=4 c=99 v=1
325 Par ch=4 c=98 v=33
325 Par ch=4 c=6 v=64
330 Par ch=4 c=99 v=1
330 Par ch=4 c=98 v=99
330 Par ch=4 c=6 v=64
335 Par ch=4 c=99 v=1
335 Par ch=4 c=98 v=100
335 Par ch=4 c=6 v=64
340 Par ch=4 c=99 v=1
340 Par ch=4 c=98 v=102
340 Par ch=4 c=6 v=64
9580 Par ch=4 c=1 v=20
9846 On ch=4 n=83 v=91
10076 On ch=4 n=81 v=95
10080 Off ch=4 n=83 v=91
10314 Off ch=4 n=81 v=95
10317 On ch=4 n=79 v=84
10532 Off ch=4 n=79 v=84
10793 On ch=4 n=79 v=77
11039 On ch=4 n=78 v=74
11053 Off ch=4 n=79 v=77
11281 On ch=4 n=79 v=78
11288 Off ch=4 n=78 v=74
11505 Off ch=4 n=79 v=78
11518 On ch=4 n=74 v=87
11756 On ch=4 n=83 v=84
11761 Off ch=4 n=74 v=87
11992 On ch=4 n=84 v=91
11995 Off ch=4 n=83 v=84
12229 On ch=4 n=83 v=87
12233 Off ch=4 n=84 v=91
12376 Off ch=4 n=83 v=87
12478 On ch=4 n=83 v=102
12716 On ch=4 n=81 v=94
12722 Off ch=4 n=83 v=102
12866 Off ch=4 n=81 v=94
12955 On ch=4 n=81 v=94
13198 On ch=4 n=79 v=98
13206 Off ch=4 n=81 v=94
13338 Off ch=4 n=79 v=98
13675 On ch=4 n=78 v=93
13920 Off ch=4 n=78 v=93
13922 On ch=4 n=81 v=96
14158 On ch=4 n=79 v=98
14169 Off ch=4 n=81 v=96
14298 Off ch=4 n=79 v=98
14394 On ch=4 n=79 v=81
14634 On ch=4 n=78 v=84
14638 Off ch=4 n=79 v=81
14797 Off ch=4 n=78 v=84
14877 On ch=4 n=78 v=85
15116 Off ch=4 n=78 v=85
15118 On ch=4 n=76 v=79
15356 Off ch=4 n=76 v=79
15593 On ch=4 n=81 v=86
15836 On ch=4 n=79 v=73
15847 Off ch=4 n=81 v=86
16080 Off ch=4 n=79 v=73
16083 On ch=4 n=78 v=87
16236 Off ch=4 n=78 v=87
16314 On ch=4 n=78 v=94
16798 Off ch=4 n=78 v=94
16800 On ch=4 n=79 v=66
16916 On ch=4 n=81 v=61
16923 Off ch=4 n=79 v=66
17280 Off ch=4 n=81 v=61
17526 On ch=4 n=83 v=91
17756 On ch=4 n=81 v=95
17760 Off ch=4 n=83 v=91
17994 Off ch=4 n=81 v=95
17997 On ch=4 n=79 v=84
18212 Off ch=4 n=79 v=84
18473 On ch=4 n=84 v=77
18719 On ch=4 n=83 v=74
18733 Off ch=4 n=84 v=77
18961 On ch=4 n=81 v=78
18968 Off ch=4 n=83 v=74
19185 Off ch=4 n=81 v=78
19198 On ch=4 n=86 v=87
19436 On ch=4 n=79 v=84
19441 Off ch=4 n=86 v=87
19672 On ch=4 n=78 v=91
19675 Off ch=4 n=79 v=84
19913 Off ch=4 n=78 v=91
19914 On ch=4 n=76 v=87
20061 Off ch=4 n=76 v=87
20153 On ch=4 n=76 v=102
20396 On ch=4 n=83 v=94
20397 Off ch=4 n=76 v=102
20635 On ch=4 n=84 v=94
20636 Off ch=4 n=83 v=94
20878 On ch=4 n=86 v=98
20886 Off ch=4 n=84 v=94
21113 Off ch=4 n=86 v=98
21124 On ch=4 n=86 v=93
21600 Off ch=4 n=86 v=93
21602 On ch=4 n=84 v=96
21838 On ch=4 n=83 v=98
21849 Off ch=4 n=84 v=96
21978 Off ch=4 n=83 v=98
22074 On ch=4 n=83 v=81
22309 On ch=4 n=81 v=84
22318 Off ch=4 n=83 v=81
22472 Off ch=4 n=81 v=84
22557 On ch=4 n=81 v=85
22796 Off ch=4 n=81 v=85
22798 On ch=4 n=79 v=80
22961 Off ch=4 n=79 v=80
23047 On ch=4 n=81 v=88
24944 Off ch=4 n=81 v=88
48246 On ch=4 n=83 v=91
48476 On ch=4 n=81 v=95
48480 Off ch=4 n=83 v=91
48714 Off ch=4 n=81 v=95
48717 On ch=4 n=79 v=84
48932 Off ch=4 n=79 v=84
49193 On ch=4 n=84 v=77
49439 On ch=4 n=83 v=74
49453 Off ch=4 n=84 v=77
49681 On ch=4 n=81 v=78
49688 Off ch=4 n=83 v=74
49905 Off ch=4 n=81 v=78
49918 On ch=4 n=86 v=87
50101 Par ch=4 c=7 v=69
50136 Par ch=4 c=7 v=67
50156 On ch=4 n=79 v=84
50161 Off ch=4 n=86 v=87
50188 Par ch=4 c=7 v=64
50241 Par ch=4 c=7 v=62
50312 Par ch=4 c=7 v=59
50392 On ch=4 n=78 v=91
50395 Off ch=4 n=79 v=84
50399 Par ch=4 c=7 v=57
50460 Par ch=4 c=7 v=54
50633 Off ch=4 n=78 v=91
50634 On ch=4 n=76 v=87
50645 Par ch=4 c=7 v=52
50781 Off ch=4 n=76 v=87
50820 Par ch=4 c=7 v=49
50873 On ch=4 n=76 v=102
51116 On ch=4 n=83 v=94
51117 Off ch=4 n=76 v=102
51355 On ch=4 n=84 v=94
51356 Off ch=4 n=83 v=94
51373 Par ch=4 c=7 v=47
51598 On ch=4 n=86 v=98
51606 Off ch=4 n=84 v=94
51833 Off ch=4 n=86 v=98
51844 On ch=4 n=86 v=93
52268 Par ch=4 c=7 v=49
52320 Off ch=4 n=86 v=93
52322 On ch=4 n=84 v=96
52531 Par ch=4 c=7 v=52
52558 On ch=4 n=83 v=98
52569 Off ch=4 n=84 v=96
52602 Par ch=4 c=7 v=54
52698 Off ch=4 n=83 v=98
52707 Par ch=4 c=7 v=57
52794 On ch=4 n=83 v=81
52813 Par ch=4 c=7 v=59
52926 Par ch=4 c=7 v=62
53005 Par ch=4 c=7 v=64
53029 On ch=4 n=81 v=84
53038 Off ch=4 n=83 v=81
53041 Par ch=4 c=7 v=67
53093 Par ch=4 c=7 v=69
53190 Par ch=4 c=7 v=72
53192 Off ch=4 n=81 v=84
53277 On ch=4 n=81 v=85
53321 Par ch=4 c=7 v=74
53426 Par ch=4 c=7 v=77
53516 Off ch=4 n=81 v=85
53518 On ch=4 n=79 v=80
53585 Par ch=4 c=7 v=79
53681 Off ch=4 n=79 v=80
53767 On ch=4 n=81 v=88
55664 Off ch=4 n=81 v=88
78720 Meta TrkEnd
TrkEnd
MTrk
0 Meta TrkName "Strings(W3)"
0 Meta 0x20 04
0 Meta InstrName "Strings(W3)"
0 KeySig 0 major
345 Par ch=5 c=0 v=0
350 Par ch=5 c=32 v=0
355 PrCh ch=5 p=48
360 Par ch=5 c=7 v=80
365 Par ch=5 c=10 v=64
370 Par ch=5 c=91 v=40
375 Par ch=5 c=93 v=28
380 Par ch=5 c=101 v=0
380 Par ch=5 c=100 v=0
380 Par ch=5 c=6 v=2
385 Par ch=5 c=99 v=1
385 Par ch=5 c=98 v=8
385 Par ch=5 c=6 v=64
390 Par ch=5 c=99 v=1
390 Par ch=5 c=98 v=9
390 Par ch=5 c=6 v=64
395 Par ch=5 c=99 v=1
395 Par ch=5 c=98 v=10
395 Par ch=5 c=6 v=64
400 Par ch=5 c=99 v=1
400 Par ch=5 c=98 v=32
400 Par ch=5 c=6 v=64
405 Par ch=5 c=99 v=1
405 Par ch=5 c=98 v=33
405 Par ch=5 c=6 v=64
410 Par ch=5 c=99 v=1
410 Par ch=5 c=98 v=99
410 Par ch=5 c=6 v=64
415 Par ch=5 c=99 v=1
415 Par ch=5 c=98 v=100
415 Par ch=5 c=6 v=64
420 Par ch=5 c=99 v=1
420 Par ch=5 c=98 v=102
420 Par ch=5 c=6 v=64
1920 On ch=5 n=98 v=59
1921 On ch=5 n=93 v=94
2282 On ch=5 n=91 v=62
2619 On ch=5 n=90 v=82
2623 Off ch=5 n=91 v=62
3003 On ch=5 n=88 v=70
3006 Off ch=5 n=90 v=82
3359 On ch=5 n=90 v=73
3369 Off ch=5 n=88 v=70
3598 On ch=5 n=91 v=80
3612 Off ch=5 n=90 v=73
3840 Off ch=5 n=91 v=80
4201 On ch=5 n=91 v=70
4555 On ch=5 n=90 v=68
4557 Off ch=5 n=91 v=70
4921 Off ch=5 n=90 v=68
4922 On ch=5 n=88 v=62
5276 On ch=5 n=86 v=65
5286 Off ch=5 n=88 v=62
5520 On ch=5 n=91 v=60
5725 On ch=5 n=91 v=62
5751 Off ch=5 n=86 v=65
5758 Off ch=5 n=91 v=60
6477 Off ch=5 n=91 v=62
6478 On ch=5 n=90 v=50
6842 On ch=5 n=88 v=69
6851 Off ch=5 n=90 v=50
7201 On ch=5 n=90 v=78
7209 Off ch=5 n=88 v=69
7434 On ch=5 n=91 v=83
7440 Off ch=5 n=90 v=78
7680 Off ch=5 n=91 v=83
8036 On ch=5 n=95 v=80
8396 On ch=5 n=91 v=65
8398 Off ch=5 n=95 v=80
9593 Off ch=5 n=98 v=59
9595 Off ch=5 n=93 v=94
9596 Off ch=5 n=91 v=65
9600 Par ch=5 c=7 v=38
9602 On ch=5 n=79 v=98
9605 On ch=5 n=76 v=98
10555 On ch=5 n=72 v=81
10556 Off ch=5 n=76 v=98
10561 Off ch=5 n=79 v=98
10562 On ch=5 n=76 v=91
11519 On ch=5 n=79 v=81
11520 Off ch=5 n=76 v=91
11520 Off ch=5 n=72 v=81
11520 On ch=5 n=74 v=76
12480 Off ch=5 n=79 v=81
12481 Off ch=5 n=74 v=76
12482 On ch=5 n=79 v=95
12486 On ch=5 n=76 v=80
13439 On ch=5 n=78 v=89
13440 Off ch=5 n=79 v=95
13440 Off ch=5 n=76 v=80
13445 On ch=5 n=74 v=100
14391 On ch=5 n=76 v=87
14393 On ch=5 n=79 v=102
14395 Off ch=5 n=78 v=89
14400 Off ch=5 n=74 v=100
15360 Off ch=5 n=79 v=102
15360 Off ch=5 n=76 v=87
15364 On ch=5 n=78 v=92
15365 On ch=5 n=74 v=86
16791 Off ch=5 n=78 v=92
16796 Off ch=5 n=74 v=86
16798 On ch=5 n=79 v=98
16806 On ch=5 n=76 v=98
16914 On ch=5 n=78 v=101
16916 Off ch=5 n=76 v=98
16918 Off ch=5 n=79 v=98
16925 On ch=5 n=81 v=95
17274 Off ch=5 n=78 v=101
17278 Off ch=5 n=81 v=95
17280 Par ch=5 c=7 v=38
17282 On ch=5 n=79 v=98
17285 On ch=5 n=76 v=98
18235 On ch=5 n=72 v=81
18236 Off ch=5 n=76 v=98
18241 Off ch=5 n=79 v=98
18242 On ch=5 n=76 v=91
19199 On ch=5 n=79 v=81
19200 Off ch=5 n=76 v=91
19200 Off ch=5 n=72 v=81
19200 On ch=5 n=74 v=76
20160 Off ch=5 n=79 v=81
20161 Off ch=5 n=74 v=76
20162 On ch=5 n=79 v=95
20166 On ch=5 n=76 v=80
21119 On ch=5 n=78 v=89
21120 Off ch=5 n=79 v=95
21120 Off ch=5 n=76 v=80
21125 On ch=5 n=74 v=100
22071 On ch=5 n=76 v=87
22073 On ch=5 n=79 v=102
22075 Off ch=5 n=78 v=89
22080 Off ch=5 n=74 v=100
23040 Off ch=5 n=79 v=102
23040 Off ch=5 n=76 v=87
23044 On ch=5 n=78 v=92
23045 On ch=5 n=74 v=86
23271 Par ch=5 c=7 v=27
23362 Par ch=5 c=7 v=30
23461 Par ch=5 c=7 v=32
23551 Par ch=5 c=7 v=35
23614 Par ch=5 c=7 v=37
23695 Par ch=5 c=7 v=40
23759 Par ch=5 c=7 v=42
23867 Par ch=5 c=7 v=45
23993 Par ch=5 c=7 v=47
24111 Par ch=5 c=7 v=50
24229 Par ch=5 c=7 v=52
24301 Par ch=5 c=7 v=55
24364 Par ch=5 c=7 v=57
24409 Par ch=5 c=7 v=60
24471 Off ch=5 n=78 v=92
24476 Off ch=5 n=74 v=86
24478 On ch=5 n=79 v=98
24486 On ch=5 n=76 v=98
24518 Par ch=5 c=7 v=62
24594 On ch=5 n=78 v=101
24596 Off ch=5 n=76 v=98
24598 Off ch=5 n=79 v=98
24605 On ch=5 n=81 v=95
24761 Par ch=5 c=7 v=64
24954 Off ch=5 n=78 v=101
24958 Off ch=5 n=81 v=95
24960 On ch=5 n=83 v=107
25916 Off ch=5 n=83 v=107
25918 On ch=5 n=83 v=97
26402 On ch=5 n=81 v=104
26413 Off ch=5 n=83 v=97
26880 Off ch=5 n=81 v=104
26881 On ch=5 n=79 v=88
27361 Off ch=5 n=79 v=88
27361 On ch=5 n=81 v=92
27831 Off ch=5 n=81 v=92
27843 On ch=5 n=81 v=97
28798 Off ch=5 n=81 v=97
28802 On ch=5 n=83 v=100
29748 On ch=5 n=84 v=100
29759 Off ch=5 n=83 v=100
30238 On ch=5 n=83 v=90
30242 Off ch=5 n=84 v=100
30720 Off ch=5 n=83 v=90
30723 On ch=5 n=84 v=98
31204 On ch=5 n=86 v=91
31210 Off ch=5 n=84 v=98
31675 Off ch=5 n=86 v=91
31686 On ch=5 n=86 v=87
32613 On ch=5 n=86 v=104
32635 Off ch=5 n=86 v=87
33125 On ch=5 n=91 v=90
33128 Off ch=5 n=86 v=104
33598 On ch=5 n=86 v=85
33599 Off ch=5 n=91 v=90
34084 On ch=5 n=84 v=102
34092 Off ch=5 n=86 v=85
34549 On ch=5 n=83 v=100
34558 Off ch=5 n=84 v=102
35523 On ch=5 n=81 v=106
35529 Off ch=5 n=83 v=100
35994 Off ch=5 n=81 v=106
36006 On ch=5 n=78 v=101
36476 On ch=5 n=79 v=94
36479 Off ch=5 n=78 v=101
36967 On ch=5 n=83 v=95
36973 Off ch=5 n=79 v=94
37436 On ch=5 n=81 v=98
37441 Off ch=5 n=83 v=95
37919 On ch=5 n=79 v=102
37935 Off ch=5 n=81 v=98
38392 Off ch=5 n=79 v=102
38403 On ch=5 n=79 v=104
40315 Off ch=5 n=79 v=104
40320 Par ch=5 c=7 v=38
40322 On ch=5 n=79 v=98
40325 On ch=5 n=76 v=98
40566 On ch=5 n=71 v=119
40796 On ch=5 n=69 v=121
40800 Off ch=5 n=71 v=119
41034 Off ch=5 n=69 v=121
41037 On ch=5 n=67 v=116
41252 Off ch=5 n=67 v=116
41275 On ch=5 n=72 v=81
41276 Off ch=5 n=76 v=98
41281 Off ch=5 n=79 v=98
41282 On ch=5 n=76 v=91
41513 On ch=5 n=67 v=112
41759 On ch=5 n=66 v=111
41773 Off ch=5 n=67 v=112
42001 On ch=5 n=67 v=113
42008 Off ch=5 n=66 v=111
42225 Off ch=5 n=67 v=113
42238 On ch=5 n=62 v=117
42239 On ch=5 n=79 v=81
42240 Off ch=5 n=76 v=91
42240 Off ch=5 n=72 v=81
42240 On ch=5 n=74 v=76
42476 On ch=5 n=71 v=116
42481 Off ch=5 n=62 v=117
42712 On ch=5 n=72 v=119
42715 Off ch=5 n=71 v=116
42949 On ch=5 n=71 v=117
42953 Off ch=5 n=72 v=119
43096 Off ch=5 n=71 v=117
43198 On ch=5 n=71 v=125
43200 Off ch=5 n=79 v=81
43201 Off ch=5 n=74 v=76
43202 On ch=5 n=79 v=95
43206 On ch=5 n=76 v=80
43436 On ch=5 n=69 v=121
43442 Off ch=5 n=71 v=125
43586 Off ch=5 n=69 v=121
43675 On ch=5 n=69 v=121
43918 On ch=5 n=67 v=123
43926 Off ch=5 n=69 v=121
44058 Off ch=5 n=67 v=123
44159 On ch=5 n=78 v=89
44160 Off ch=5 n=79 v=95
44160 Off ch=5 n=76 v=80
44165 On ch=5 n=74 v=100
44395 On ch=5 n=66 v=120
44640 Off ch=5 n=66 v=120
44642 On ch=5 n=69 v=122
44878 On ch=5 n=67 v=123
44889 Off ch=5 n=69 v=122
45018 Off ch=5 n=67 v=123
45111 On ch=5 n=76 v=87
45113 On ch=5 n=79 v=102
45114 On ch=5 n=67 v=114
45115 Off ch=5 n=78 v=89
45120 Off ch=5 n=74 v=100
45354 On ch=5 n=66 v=116
45358 Off ch=5 n=67 v=114
45517 Off ch=5 n=66 v=116
45597 On ch=5 n=66 v=116
45836 Off ch=5 n=66 v=116
45838 On ch=5 n=67 v=112
45981 Off ch=5 n=67 v=112
46080 Off ch=5 n=79 v=102
46080 Off ch=5 n=76 v=87
46084 On ch=5 n=78 v=92
46085 On ch=5 n=74 v=86
46313 On ch=5 n=69 v=117
46556 On ch=5 n=67 v=110
46567 Off ch=5 n=69 v=117
46800 Off ch=5 n=67 v=110
46803 On ch=5 n=66 v=117
46956 Off ch=5 n=66 v=117
47034 On ch=5 n=66 v=121
47511 Off ch=5 n=78 v=92
47516 Off ch=5 n=74 v=86
47518 Off ch=5 n=66 v=121
47518 On ch=5 n=79 v=98
47520 On ch=5 n=64 v=107
47526 On ch=5 n=76 v=98
47634 On ch=5 n=78 v=101
47636 Off ch=5 n=76 v=98
47636 On ch=5 n=62 v=104
47638 Off ch=5 n=79 v=98
47643 Off ch=5 n=64 v=107
47645 On ch=5 n=81 v=95
47994 Off ch=5 n=78 v=101
47998 Off ch=5 n=81 v=95
48000 Off ch=5 n=62 v=104
48000 Par ch=5 c=7 v=38
48002 On ch=5 n=79 v=98
48005 On ch=5 n=76 v=98
48955 On ch=5 n=72 v=81
48956 Off ch=5 n=76 v=98
48961 Off ch=5 n=79 v=98
48962 On ch=5 n=76 v=91
49919 On ch=5 n=79 v=81
49920 Off ch=5 n=76 v=91
49920 Off ch=5 n=72 v=81
49920 On ch=5 n=74 v=76
50880 Off ch=5 n=79 v=81
50881 Off ch=5 n=74 v=76
50882 On ch=5 n=79 v=95
50886 On ch=5 n=76 v=80
51839 On ch=5 n=78 v=89
51840 Off ch=5 n=79 v=95
51840 Off ch=5 n=76 v=80
51845 On ch=5 n=74 v=100
52791 On ch=5 n=76 v=87
52793 On ch=5 n=79 v=102
52795 Off ch=5 n=78 v=89
52800 Off ch=5 n=74 v=100
53760 Off ch=5 n=79 v=102
53760 Off ch=5 n=76 v=87
53764 On ch=5 n=78 v=97
53765 On ch=5 n=74 v=88
53991 Par ch=5 c=7 v=27
54082 Par ch=5 c=7 v=30
54181 Par ch=5 c=7 v=32
54271 Par ch=5 c=7 v=35
54334 Par ch=5 c=7 v=37
54415 Par ch=5 c=7 v=40
54479 Par ch=5 c=7 v=42
54587 Par ch=5 c=7 v=45
54709 Off ch=5 n=78 v=97
54713 Par ch=5 c=7 v=47
54713 Off ch=5 n=74 v=88
54714 On ch=5 n=83 v=91
54722 On ch=5 n=79 v=85
54726 On ch=5 n=74 v=97
54831 Par ch=5 c=7 v=50
54949 Par ch=5 c=7 v=52
55021 Par ch=5 c=7 v=55
55084 Par ch=5 c=7 v=57
55129 Par ch=5 c=7 v=60
55194 Off ch=5 n=79 v=85
55200 On ch=5 n=79 v=114
55202 Off ch=5 n=83 v=91
55238 Par ch=5 c=7 v=62
55481 Par ch=5 c=7 v=64
55663 On ch=5 n=81 v=110
55669 Off ch=5 n=74 v=97
55674 Off ch=5 n=79 v=114
56627 Off ch=5 n=81 v=110
56628 On ch=5 n=83 v=117
57583 On ch=5 n=86 v=117
57588 Off ch=5 n=83 v=117
58545 On ch=5 n=88 v=85
59507 Off ch=5 n=88 v=85
59517 Off ch=5 n=86 v=117
59521 On ch=5 n=93 v=112
59525 On ch=5 n=86 v=97
61432 Off ch=5 n=93 v=112
61438 Off ch=5 n=86 v=97
61440 On ch=5 n=91 v=97
61442 On ch=5 n=93 v=83
63705 Off ch=5 n=91 v=97
63722 On ch=5 n=91 v=98
64080 On ch=5 n=90 v=71
64437 Off ch=5 n=90 v=71
64444 On ch=5 n=88 v=65
64794 Off ch=5 n=88 v=65
64802 On ch=5 n=90 v=65
65034 Off ch=5 n=91 v=98
65040 Off ch=5 n=90 v=65
65040 On ch=5 n=91 v=66
65278 Off ch=5 n=91 v=66
65280 Off ch=5 n=93 v=83
65280 On ch=5 n=91 v=66
65280 On ch=5 n=93 v=83
65633 Off ch=5 n=91 v=66
65642 On ch=5 n=91 v=97
66007 On ch=5 n=90 v=89
66358 Off ch=5 n=90 v=89
66369 On ch=5 n=88 v=72
66718 Off ch=5 n=88 v=72
66720 On ch=5 n=90 v=84
66720 On ch=5 n=79 v=36
66942 Off ch=5 n=79 v=36
66945 Off ch=5 n=90 v=84
66948 Off ch=5 n=91 v=97
66957 On ch=5 n=91 v=75
66960 On ch=5 n=79 v=47
67182 Off ch=5 n=91 v=75
67190 Off ch=5 n=93 v=83
67198 Off ch=5 n=79 v=47
67200 On ch=5 n=91 v=95
67200 On ch=5 n=93 v=84
67200 On ch=5 n=79 v=53
69045 Off ch=5 n=91 v=95
69048 Off ch=5 n=93 v=84
69063 Off ch=5 n=79 v=53
69120 On ch=5 n=98 v=59
69121 On ch=5 n=93 v=94
69482 On ch=5 n=91 v=62
69833 Off ch=5 n=91 v=62
69839 On ch=5 n=90 v=81
70327 Off ch=5 n=90 v=81
70329 On ch=5 n=86 v=71
70559 On ch=5 n=88 v=73
70564 Off ch=5 n=86 v=71
70798 On ch=5 n=90 v=80
70812 Off ch=5 n=88 v=73
71040 Off ch=5 n=90 v=80
71401 On ch=5 n=91 v=70
71878 Off ch=5 n=91 v=70
71881 On ch=5 n=95 v=70
71995 Off ch=5 n=93 v=94
72123 On ch=5 n=93 v=62
72126 Off ch=5 n=95 v=70
72365 On ch=5 n=86 v=66
72720 On ch=5 n=88 v=60
72729 Off ch=5 n=86 v=66
72945 Off ch=5 n=98 v=59
72954 Off ch=5 n=93 v=62
72958 Off ch=5 n=88 v=60
72960 On ch=5 n=98 v=59
72960 On ch=5 n=93 v=94
73322 On ch=5 n=91 v=62
73677 Off ch=5 n=91 v=62
73678 On ch=5 n=90 v=50
74042 On ch=5 n=88 v=69
74051 Off ch=5 n=90 v=50
74396 On ch=5 n=86 v=78
74409 Off ch=5 n=88 v=69
74634 On ch=5 n=90 v=83
74635 Off ch=5 n=86 v=78
74880 Off ch=5 n=93 v=94
74880 Off ch=5 n=90 v=83
74880 On ch=5 n=93 v=97
75242 On ch=5 n=91 v=62
75597 Off ch=5 n=91 v=62
75598 On ch=5 n=90 v=50
76083 On ch=5 n=86 v=69
76087 Off ch=5 n=90 v=50
76316 On ch=5 n=90 v=78
76329 Off ch=5 n=86 v=69
76555 Off ch=5 n=90 v=78
76559 On ch=5 n=91 v=83
76796 Off ch=5 n=91 v=83
76800 On ch=5 n=91 v=94
78693 Off ch=5 n=98 v=59
78700 Off ch=5 n=93 v=97
78700 Off ch=5 n=91 v=94
78720 Meta TrkEnd
TrkEnd
MTrk
0 Meta TrkName "Howe"
0 Meta 0x20 05
0 Meta InstrName "Howe"
0 KeySig 0 major
425 Par ch=6 c=0 v=0
430 Par ch=6 c=32 v=0
435 PrCh ch=6 p=24
440 Par ch=6 c=7 v=110
445 Par ch=6 c=10 v=64
450 Par ch=6 c=91 v=64
455 Par ch=6 c=93 v=0
460 Par ch=6 c=101 v=0
460 Par ch=6 c=100 v=0
460 Par ch=6 c=6 v=2
465 Par ch=6 c=99 v=1
465 Par ch=6 c=98 v=8
465 Par ch=6 c=6 v=64
470 Par ch=6 c=99 v=1
470 Par ch=6 c=98 v=9
470 Par ch=6 c=6 v=64
475 Par ch=6 c=99 v=1
475 Par ch=6 c=98 v=10
475 Par ch=6 c=6 v=64
480 Par ch=6 c=99 v=1
480 Par ch=6 c=98 v=32
480 Par ch=6 c=6 v=64
485 Par ch=6 c=99 v=1
485 Par ch=6 c=98 v=33
485 Par ch=6 c=6 v=64
490 Par ch=6 c=99 v=1
490 Par ch=6 c=98 v=99
490 Par ch=6 c=6 v=64
495 Par ch=6 c=99 v=1
495 Par ch=6 c=98 v=100
495 Par ch=6 c=6 v=64
500 Par ch=6 c=99 v=1
500 Par ch=6 c=98 v=102
500 Par ch=6 c=6 v=64
9838 On ch=6 n=52 v=62
10078 On ch=6 n=55 v=59
10085 Off ch=6 n=52 v=62
10316 Off ch=6 n=55 v=59
10319 On ch=6 n=59 v=55
10616 Off ch=6 n=59 v=55
11759 On ch=6 n=55 v=66
11979 Off ch=6 n=55 v=66
11998 On ch=6 n=59 v=55
12216 Off ch=6 n=59 v=55
12235 On ch=6 n=62 v=56
12525 Off ch=6 n=62 v=56
13678 On ch=6 n=50 v=56
13912 Off ch=6 n=50 v=56
13916 On ch=6 n=54 v=60
14153 On ch=6 n=57 v=55
14155 Off ch=6 n=54 v=60
14461 Off ch=6 n=57 v=55
14640 On ch=6 n=52 v=82
14885 On ch=6 n=55 v=78
14892 Off ch=6 n=52 v=82
15119 Off ch=6 n=55 v=78
15119 On ch=6 n=59 v=70
15360 Off ch=6 n=59 v=70
15604 On ch=6 n=50 v=68
15841 Off ch=6 n=50 v=68
15841 On ch=6 n=54 v=71
16077 On ch=6 n=57 v=88
16084 Off ch=6 n=54 v=71
16311 Off ch=6 n=57 v=88
16324 On ch=6 n=62 v=81
17004 Off ch=6 n=62 v=81
17518 On ch=6 n=64 v=62
17750 Off ch=6 n=64 v=62
17758 On ch=6 n=55 v=59
17986 Off ch=6 n=55 v=59
17999 On ch=6 n=59 v=53
18270 Off ch=6 n=59 v=53
19439 On ch=6 n=55 v=66
19659 Off ch=6 n=55 v=66
19678 On ch=6 n=59 v=55
19896 Off ch=6 n=59 v=55
19915 On ch=6 n=62 v=56
20205 Off ch=6 n=62 v=56
21358 On ch=6 n=50 v=56
21592 Off ch=6 n=50 v=56
21596 On ch=6 n=54 v=60
21833 On ch=6 n=57 v=55
21835 Off ch=6 n=54 v=60
22141 Off ch=6 n=57 v=55
22320 On ch=6 n=52 v=82
22565 On ch=6 n=55 v=78
22572 Off ch=6 n=52 v=82
22799 Off ch=6 n=55 v=78
22799 On ch=6 n=59 v=70
23040 Off ch=6 n=59 v=70
23284 On ch=6 n=50 v=68
23521 Off ch=6 n=50 v=68
23521 On ch=6 n=54 v=71
23757 On ch=6 n=55 v=89
23764 Off ch=6 n=54 v=71
23871 Off ch=6 n=55 v=89
23880 On ch=6 n=54 v=89
23983 Off ch=6 n=54 v=89
24000 On ch=6 n=57 v=88
24108 Off ch=6 n=57 v=88
24125 On ch=6 n=54 v=80
24478 Off ch=6 n=54 v=80
24480 Pb ch=6 v=0
24481 On ch=6 n=66 v=95
24483 On ch=6 n=69 v=84
24600 Pb ch=6 v=8192
24886 Off ch=6 n=66 v=95
24890 Off ch=6 n=69 v=84
24960 On ch=6 n=67 v=60
25049 Off ch=6 n=67 v=60
25078 On ch=6 n=62 v=57
25201 Off ch=6 n=62 v=57
25203 On ch=6 n=67 v=58
25297 Off ch=6 n=67 v=58
25322 On ch=6 n=62 v=56
25433 Off ch=6 n=62 v=56
25443 On ch=6 n=67 v=58
25549 Off ch=6 n=67 v=58
25556 On ch=6 n=62 v=56
25668 Off ch=6 n=62 v=56
25678 On ch=6 n=67 v=55
25774 Off ch=6 n=67 v=55
25799 On ch=6 n=62 v=59
25884 Off ch=6 n=62 v=59
25917 On ch=6 n=67 v=57
26016 Off ch=6 n=67 v=57
26036 On ch=6 n=64 v=53
26141 Off ch=6 n=64 v=53
26157 On ch=6 n=67 v=56
26267 Off ch=6 n=67 v=56
26282 On ch=6 n=64 v=56
26384 Off ch=6 n=64 v=56
26405 On ch=6 n=67 v=56
26500 Off ch=6 n=67 v=56
26521 On ch=6 n=64 v=53
26624 Off ch=6 n=64 v=53
26641 On ch=6 n=67 v=53
26742 Off ch=6 n=67 v=53
26758 On ch=6 n=64 v=57
26852 Off ch=6 n=64 v=57
26879 On ch=6 n=67 v=56
26974 Off ch=6 n=67 v=56
27001 On ch=6 n=64 v=55
27107 Off ch=6 n=64 v=55
27121 On ch=6 n=67 v=56
27213 Off ch=6 n=67 v=56
27249 On ch=6 n=64 v=50
27334 Off ch=6 n=64 v=50
27359 On ch=6 n=67 v=53
27461 Off ch=6 n=67 v=53
27487 On ch=6 n=64 v=51
27563 Off ch=6 n=64 v=51
27603 On ch=6 n=67 v=55
27688 Off ch=6 n=67 v=55
27715 On ch=6 n=64 v=58
27803 Off ch=6 n=64 v=58
27842 On ch=6 n=66 v=63
27934 Off ch=6 n=66 v=63
27951 On ch=6 n=62 v=59
28047 Off ch=6 n=62 v=59
28071 On ch=6 n=66 v=50
28168 Off ch=6 n=66 v=50
28191 On ch=6 n=62 v=55
28313 Off ch=6 n=62 v=55
28313 On ch=6 n=66 v=51
28409 Off ch=6 n=66 v=51
28436 On ch=6 n=62 v=50
28547 Off ch=6 n=62 v=50
28559 On ch=6 n=66 v=51
28800 Off ch=6 n=66 v=51
28811 On ch=6 n=67 v=65
29167 On ch=6 n=62 v=60
29169 Off ch=6 n=67 v=65
29284 Off ch=6 n=62 v=60
29287 On ch=6 n=67 v=64
29651 Off ch=6 n=67 v=64
29754 On ch=6 n=67 v=73
29891 On ch=6 n=64 v=59
29934 Off ch=6 n=67 v=73
30256 Off ch=6 n=64 v=59
30258 On ch=6 n=67 v=64
30597 Off ch=6 n=67 v=64
30722 On ch=6 n=64 v=65
30729 On ch=6 n=67 v=66
31115 Off ch=6 n=64 v=65
31147 Off ch=6 n=67 v=66
31173 On ch=6 n=64 v=74
31215 On ch=6 n=67 v=68
31658 Off ch=6 n=67 v=68
31672 On ch=6 n=66 v=54
31673 Off ch=6 n=64 v=74
31697 On ch=6 n=69 v=73
32389 Off ch=6 n=66 v=54
32476 Off ch=6 n=69 v=73
32634 On ch=6 n=62 v=70
32650 On ch=6 n=67 v=73
33475 Off ch=6 n=62 v=70
33487 Off ch=6 n=67 v=73
33597 On ch=6 n=60 v=75
33735 On ch=6 n=64 v=60
33764 Off ch=6 n=60 v=75
34070 Off ch=6 n=64 v=60
34074 On ch=6 n=67 v=64
34560 Off ch=6 n=67 v=64
34564 On ch=6 n=60 v=70
34683 Off ch=6 n=60 v=70
34683 On ch=6 n=67 v=66
34917 Off ch=6 n=67 v=66
34924 On ch=6 n=62 v=67
35042 On ch=6 n=64 v=66
35045 Off ch=6 n=62 v=67
35495 Off ch=6 n=64 v=66
35516 On ch=6 n=62 v=75
35876 Off ch=6 n=62 v=75
35881 On ch=6 n=62 v=73
36003 Off ch=6 n=62 v=73
36010 On ch=6 n=66 v=74
36240 Off ch=6 n=66 v=74
36242 On ch=6 n=69 v=72
36473 On ch=6 n=62 v=73
36480 Off ch=6 n=69 v=72
36488 On ch=6 n=67 v=68
36499 On ch=6 n=71 v=74
37411 Off ch=6 n=62 v=73
37413 Off ch=6 n=71 v=74
37414 Off ch=6 n=67 v=68
37421 On ch=6 n=64 v=61
37441 On ch=6 n=69 v=80
37459 On ch=6 n=72 v=73
38392 Off ch=6 n=72 v=73
38394 Off ch=6 n=64 v=61
38398 Off ch=6 n=69 v=80
38400 On ch=6 n=67 v=100
38400 On ch=6 n=76 v=87
38939 Off ch=6 n=67 v=100
38949 Off ch=6 n=76 v=87
39115 On ch=6 n=66 v=99
39123 On ch=6 n=74 v=84
39162 Off ch=6 n=66 v=99
39177 Off ch=6 n=74 v=84
39351 On ch=6 n=64 v=83
39354 On ch=6 n=72 v=85
39681 Off ch=6 n=64 v=83
39701 Off ch=6 n=72 v=85
39714 On ch=6 n=62 v=71
39719 On ch=6 n=71 v=74
39819 Off ch=6 n=71 v=74
39825 Off ch=6 n=62 v=71
39839 On ch=6 n=60 v=72
39839 On ch=6 n=69 v=66
40315 Off ch=6 n=60 v=72
40316 Off ch=6 n=69 v=66
40558 On ch=6 n=52 v=62
40798 On ch=6 n=55 v=59
40805 Off ch=6 n=52 v=62
41036 Off ch=6 n=55 v=59
41039 On ch=6 n=59 v=55
41336 Off ch=6 n=59 v=55
42479 On ch=6 n=55 v=66
42699 Off ch=6 n=55 v=66
42718 On ch=6 n=59 v=55
42936 Off ch=6 n=59 v=55
42955 On ch=6 n=62 v=56
43245 Off ch=6 n=62 v=56
44398 On ch=6 n=50 v=56
44632 Off ch=6 n=50 v=56
44636 On ch=6 n=54 v=60
44873 On ch=6 n=57 v=55
44875 Off ch=6 n=54 v=60
45181 Off ch=6 n=57 v=55
45360 On ch=6 n=52 v=82
45605 On ch=6 n=55 v=78
45612 Off ch=6 n=52 v=82
45839 Off ch=6 n=55 v=78
45839 On ch=6 n=59 v=70
46080 Off ch=6 n=59 v=70
46324 On ch=6 n=50 v=68
46561 Off ch=6 n=50 v=68
46561 On ch=6 n=54 v=71
46797 On ch=6 n=57 v=88
46804 Off ch=6 n=54 v=71
47031 Off ch=6 n=57 v=88
47044 On ch=6 n=62 v=81
47724 Off ch=6 n=62 v=81
48238 On ch=6 n=64 v=62
48470 Off ch=6 n=64 v=62
48478 On ch=6 n=55 v=59
48706 Off ch=6 n=55 v=59
48719 On ch=6 n=59 v=53
48990 Off ch=6 n=59 v=53
50159 On ch=6 n=55 v=66
50379 Off ch=6 n=55 v=66
50398 On ch=6 n=59 v=55
50616 Off ch=6 n=59 v=55
50635 On ch=6 n=62 v=56
50925 Off ch=6 n=62 v=56
52078 On ch=6 n=50 v=56
52312 Off ch=6 n=50 v=56
52316 On ch=6 n=54 v=60
52553 On ch=6 n=57 v=55
52555 Off ch=6 n=54 v=60
52861 Off ch=6 n=57 v=55
53040 On ch=6 n=52 v=82
53285 On ch=6 n=55 v=78
53292 Off ch=6 n=52 v=82
53519 Off ch=6 n=55 v=78
53519 On ch=6 n=59 v=70
53760 Off ch=6 n=59 v=70
54004 On ch=6 n=50 v=68
54241 Off ch=6 n=50 v=68
54241 On ch=6 n=54 v=70
54720 Off ch=6 n=54 v=70
54720 On ch=6 n=55 v=88
55677 Off ch=6 n=55 v=88
61440 On ch=6 n=86 v=93
61443 On ch=6 n=74 v=98
61639 Off ch=6 n=86 v=93
61646 Off ch=6 n=74 v=98
61802 On ch=6 n=79 v=94
61805 On ch=6 n=91 v=92
61863 Off ch=6 n=79 v=94
61880 Off ch=6 n=91 v=92
62161 On ch=6 n=91 v=94
62166 On ch=6 n=79 v=98
62221 Off ch=6 n=79 v=98
62222 Off ch=6 n=91 v=94
62398 On ch=6 n=86 v=101
62399 On ch=6 n=74 v=113
63315 Off ch=6 n=86 v=101
63331 Off ch=6 n=74 v=113
63360 On ch=6 n=81 v=81
63360 On ch=6 n=67 v=78
63505 Off ch=6 n=67 v=78
63620 On ch=6 n=67 v=64
63657 Off ch=6 n=81 v=81
63692 Off ch=6 n=67 v=64
63726 On ch=6 n=79 v=70
63740 On ch=6 n=67 v=71
63846 Off ch=6 n=67 v=71
63974 On ch=6 n=67 v=60
63978 Off ch=6 n=79 v=70
64044 Off ch=6 n=67 v=60
64100 On ch=6 n=67 v=65
64104 On ch=6 n=78 v=87
64358 Off ch=6 n=78 v=87
64469 On ch=6 n=76 v=73
64795 Off ch=6 n=67 v=65
65210 Off ch=6 n=76 v=73
65285 On ch=6 n=55 v=74
65286 On ch=6 n=71 v=73
65467 Off ch=6 n=71 v=73
65479 Off ch=6 n=55 v=74
65633 On ch=6 n=71 v=73
65634 On ch=6 n=55 v=71
65915 On ch=6 n=74 v=37
65930 On ch=6 n=75 v=33
65945 On ch=6 n=76 v=38
65953 Off ch=6 n=74 v=37
65960 On ch=6 n=77 v=53
65968 Off ch=6 n=75 v=33
65980 On ch=6 n=78 v=37
65983 Off ch=6 n=76 v=38
65998 Off ch=6 n=77 v=53
66000 On ch=6 n=79 v=67
66018 Off ch=6 n=78 v=37
66066 Off ch=6 n=71 v=73
66136 Off ch=6 n=55 v=71
66152 Off ch=6 n=79 v=67
66255 On ch=6 n=74 v=77
67176 Off ch=6 n=74 v=77
67200 On ch=6 n=74 v=77
69069 Off ch=6 n=74 v=77
78720 Meta TrkEnd
TrkEnd
MTrk
0 Meta TrkName "Trumpet(W4)"
0 Meta 0x20 06
0 Meta InstrName "Trumpet(W4)"
0 KeySig 0 major
505 Par ch=7 c=0 v=0
510 Par ch=7 c=32 v=0
515 PrCh ch=7 p=56
520 Par ch=7 c=7 v=90
525 Par ch=7 c=10 v=64
530 Par ch=7 c=91 v=40
535 Par ch=7 c=93 v=0
540 Par ch=7 c=101 v=0
540 Par ch=7 c=100 v=0
540 Par ch=7 c=6 v=2
545 Par ch=7 c=99 v=1
545 Par ch=7 c=98 v=8
545 Par ch=7 c=6 v=64
550 Par ch=7 c=99 v=1
550 Par ch=7 c=98 v=9
550 Par ch=7 c=6 v=64
555 Par ch=7 c=99 v=1
555 Par ch=7 c=98 v=10
555 Par ch=7 c=6 v=64
560 Par ch=7 c=99 v=1
560 Par ch=7 c=98 v=32
560 Par ch=7 c=6 v=64
565 Par ch=7 c=99 v=1
565 Par ch=7 c=98 v=33
565 Par ch=7 c=6 v=64
570 Par ch=7 c=99 v=1
570 Par ch=7 c=98 v=99
570 Par ch=7 c=6 v=64
575 Par ch=7 c=99 v=1
575 Par ch=7 c=98 v=100
575 Par ch=7 c=6 v=64
580 Par ch=7 c=99 v=1
580 Par ch=7 c=98 v=102
580 Par ch=7 c=6 v=64
33598 On ch=7 n=74 v=97
33662 Off ch=7 n=74 v=97
33717 On ch=7 n=74 v=89
33782 Off ch=7 n=74 v=89
33837 On ch=7 n=74 v=90
33907 Off ch=7 n=74 v=90
33960 On ch=7 n=74 v=90
34023 Off ch=7 n=74 v=90
34082 On ch=7 n=74 v=90
34164 Off ch=7 n=74 v=90
34204 On ch=7 n=76 v=91
34276 Off ch=7 n=76 v=91
34326 On ch=7 n=78 v=92
34396 Off ch=7 n=78 v=92
34450 On ch=7 n=79 v=89
34520 Off ch=7 n=79 v=89
34563 On ch=7 n=79 v=90
34622 Off ch=7 n=79 v=90
34685 On ch=7 n=79 v=90
34747 Off ch=7 n=79 v=90
34811 On ch=7 n=79 v=91
34880 Off ch=7 n=79 v=91
34933 On ch=7 n=79 v=88
34987 Off ch=7 n=79 v=88
35050 On ch=7 n=79 v=94
35127 Off ch=7 n=79 v=94
35161 On ch=7 n=81 v=95
35233 Off ch=7 n=81 v=95
35283 On ch=7 n=83 v=95
35354 Off ch=7 n=83 v=95
35411 On ch=7 n=84 v=95
35488 Off ch=7 n=84 v=95
35524 On ch=7 n=81 v=95
35596 Off ch=7 n=81 v=95
35648 On ch=7 n=81 v=90
35715 Off ch=7 n=81 v=90
35765 On ch=7 n=81 v=92
35825 Off ch=7 n=81 v=92
35881 On ch=7 n=81 v=99
35936 Off ch=7 n=81 v=99
36006 On ch=7 n=81 v=97
36080 Off ch=7 n=81 v=97
36126 On ch=7 n=83 v=87
36205 Off ch=7 n=83 v=87
36247 On ch=7 n=81 v=91
36314 Off ch=7 n=81 v=91
36361 On ch=7 n=79 v=91
36437 Off ch=7 n=79 v=91
36482 On ch=7 n=79 v=94
37584 Off ch=7 n=79 v=94
48962 On ch=7 n=74 v=83
49028 Off ch=7 n=74 v=83
49080 On ch=7 n=74 v=75
49135 Off ch=7 n=74 v=75
49200 On ch=7 n=74 v=78
49254 Off ch=7 n=74 v=78
49318 On ch=7 n=74 v=77
49368 Off ch=7 n=74 v=77
49443 On ch=7 n=74 v=77
49512 Off ch=7 n=74 v=77
49558 On ch=7 n=76 v=78
49622 Off ch=7 n=76 v=78
49678 On ch=7 n=78 v=78
49732 Off ch=7 n=78 v=78
49803 On ch=7 n=74 v=81
49865 Off ch=7 n=74 v=81
49922 On ch=7 n=79 v=78
49975 Off ch=7 n=79 v=78
50040 On ch=7 n=79 v=75
50098 Off ch=7 n=79 v=75
50160 On ch=7 n=79 v=77
50216 Off ch=7 n=79 v=77
50279 On ch=7 n=79 v=75
50334 Off ch=7 n=79 v=75
50402 On ch=7 n=79 v=76
50471 Off ch=7 n=79 v=76
50521 On ch=7 n=81 v=72
50571 Off ch=7 n=81 v=72
50640 On ch=7 n=83 v=78
50709 Off ch=7 n=83 v=78
50759 On ch=7 n=84 v=76
50823 Off ch=7 n=84 v=76
50880 On ch=7 n=76 v=75
50942 Off ch=7 n=76 v=75
51000 On ch=7 n=76 v=73
51066 Off ch=7 n=76 v=73
51122 On ch=7 n=78 v=73
51185 Off ch=7 n=78 v=73
51242 On ch=7 n=79 v=74
51304 Off ch=7 n=79 v=74
51359 On ch=7 n=81 v=74
51421 Off ch=7 n=81 v=74
51480 On ch=7 n=83 v=74
51544 Off ch=7 n=83 v=74
51600 On ch=7 n=84 v=75
51670 Off ch=7 n=84 v=75
51720 On ch=7 n=79 v=75
51784 Off ch=7 n=79 v=75
51840 On ch=7 n=78 v=95
52321 Off ch=7 n=78 v=95
52322 On ch=7 n=74 v=93
52794 Off ch=7 n=74 v=93
52799 On ch=7 n=76 v=88
53760 Off ch=7 n=76 v=88
53762 On ch=7 n=74 v=77
55195 Off ch=7 n=74 v=77
78720 Meta TrkEnd
TrkEnd
MTrk
0 Meta TrkName "Oboe(W5)"
0 Meta 0x20 07
0 Meta InstrName "Oboe(W5)"
0 KeySig 0 major
585 Par ch=8 c=0 v=0
590 Par ch=8 c=32 v=0
595 PrCh ch=8 p=68
600 Par ch=8 c=7 v=90
605 Par ch=8 c=10 v=64
610 Par ch=8 c=91 v=40
615 Par ch=8 c=93 v=0
620 Par ch=8 c=101 v=0
620 Par ch=8 c=100 v=0
620 Par ch=8 c=6 v=2
625 Par ch=8 c=99 v=1
625 Par ch=8 c=98 v=8
625 Par ch=8 c=6 v=64
630 Par ch=8 c=99 v=1
630 Par ch=8 c=98 v=9
630 Par ch=8 c=6 v=64
635 Par ch=8 c=99 v=1
635 Par ch=8 c=98 v=10
635 Par ch=8 c=6 v=64
640 Par ch=8 c=99 v=1
640 Par ch=8 c=98 v=32
640 Par ch=8 c=6 v=64
645 Par ch=8 c=99 v=1
645 Par ch=8 c=98 v=33
645 Par ch=8 c=6 v=64
650 Par ch=8 c=99 v=1
650 Par ch=8 c=98 v=99
650 Par ch=8 c=6 v=64
655 Par ch=8 c=99 v=1
655 Par ch=8 c=98 v=100
655 Par ch=8 c=6 v=64
660 Par ch=8 c=99 v=1
660 Par ch=8 c=98 v=102
660 Par ch=8 c=6 v=64
24930 Par ch=8 c=1 v=25
24960 On ch=8 n=79 v=73
25921 On ch=8 n=78 v=73
25942 Off ch=8 n=79 v=73
26401 Off ch=8 n=78 v=73
26407 On ch=8 n=76 v=72
26880 Off ch=8 n=76 v=72
26896 On ch=8 n=74 v=73
27345 On ch=8 n=76 v=73
27356 Off ch=8 n=74 v=73
27838 On ch=8 n=78 v=66
27841 Off ch=8 n=76 v=73
28777 Off ch=8 n=78 v=66
28784 On ch=8 n=74 v=72
29280 Off ch=8 n=74 v=72
29281 On ch=8 n=76 v=70
29514 Off ch=8 n=76 v=70
29525 On ch=8 n=74 v=69
29751 Off ch=8 n=74 v=69
29768 On ch=8 n=74 v=63
30000 Off ch=8 n=74 v=63
30007 On ch=8 n=72 v=74
30225 Off ch=8 n=72 v=74
30249 On ch=8 n=72 v=72
30475 On ch=8 n=76 v=72
30483 Off ch=8 n=72 v=72
30671 Off ch=8 n=76 v=72
30721 On ch=8 n=76 v=73
30966 On ch=8 n=74 v=74
30968 Off ch=8 n=76 v=73
31194 Off ch=8 n=74 v=74
31208 On ch=8 n=74 v=74
31439 Off ch=8 n=74 v=74
31443 On ch=8 n=76 v=71
31665 Off ch=8 n=76 v=71
31675 On ch=8 n=74 v=76
32635 Off ch=8 n=74 v=76
32640 On ch=8 n=74 v=81
34074 Off ch=8 n=74 v=81
55207 On ch=8 n=74 v=94
55680 Off ch=8 n=74 v=94
55680 On ch=8 n=76 v=95
56637 Off ch=8 n=76 v=95
78720 Meta TrkEnd
TrkEnd
MTrk
0 Meta TrkName "Levin2"
0 Meta 0x20 08
0 Meta InstrName "Levin2"
0 KeySig 0 major
665 Par ch=9 c=0 v=0
670 Par ch=9 c=32 v=0
675 PrCh ch=9 p=43
680 Par ch=9 c=7 v=100
685 Par ch=9 c=10 v=64
690 Par ch=9 c=91 v=40
695 Par ch=9 c=93 v=0
700 Par ch=9 c=101 v=0
700 Par ch=9 c=100 v=0
700 Par ch=9 c=6 v=2
705 Par ch=9 c=99 v=1
705 Par ch=9 c=98 v=8
705 Par ch=9 c=6 v=64
710 Par ch=9 c=99 v=1
710 Par ch=9 c=98 v=9
710 Par ch=9 c=6 v=64
715 Par ch=9 c=99 v=1
715 Par ch=9 c=98 v=10
715 Par ch=9 c=6 v=64
720 Par ch=9 c=99 v=1
720 Par ch=9 c=98 v=32
720 Par ch=9 c=6 v=64
725 Par ch=9 c=99 v=1
725 Par ch=9 c=98 v=33
725 Par ch=9 c=6 v=64
730 Par ch=9 c=99 v=1
730 Par ch=9 c=98 v=99
730 Par ch=9 c=6 v=64
735 Par ch=9 c=99 v=1
735 Par ch=9 c=98 v=100
735 Par ch=9 c=6 v=64
740 Par ch=9 c=99 v=1
740 Par ch=9 c=98 v=102
740 Par ch=9 c=6 v=64
24960 On ch=9 n=43 v=87
25906 Off ch=9 n=43 v=87
25912 On ch=9 n=45 v=86
26872 On ch=9 n=48 v=77
26874 Off ch=9 n=45 v=86
27834 On ch=9 n=50 v=69
27841 Off ch=9 n=48 v=77
28316 On ch=9 n=42 v=85
28327 Off ch=9 n=50 v=69
28800 Off ch=9 n=42 v=85
28802 On ch=9 n=43 v=87
29733 Off ch=9 n=43 v=87
29746 On ch=9 n=45 v=74
30717 On ch=9 n=40 v=77
30720 Off ch=9 n=45 v=74
31660 Off ch=9 n=40 v=77
31667 On ch=9 n=38 v=71
32157 On ch=9 n=42 v=81
32161 Off ch=9 n=38 v=71
32624 Off ch=9 n=42 v=81
32638 On ch=9 n=43 v=77
33575 Off ch=9 n=43 v=77
33589 On ch=9 n=45 v=86
34559 On ch=9 n=48 v=81
34560 Off ch=9 n=45 v=86
35504 Off ch=9 n=48 v=81
35509 On ch=9 n=50 v=77
35994 On ch=9 n=42 v=78
36012 Off ch=9 n=50 v=77
36476 Off ch=9 n=42 v=78
36479 On ch=9 n=43 v=73
37445 On ch=9 n=45 v=80
37465 Off ch=9 n=43 v=73
38368 Off ch=9 n=45 v=80
38390 On ch=9 n=48 v=90
40314 Off ch=9 n=48 v=90
47750 On ch=9 n=50 v=65
47997 On ch=9 n=52 v=86
48000 Off ch=9 n=50 v=65
48935 Off ch=9 n=52 v=86
48950 On ch=9 n=48 v=88
49430 Off ch=9 n=48 v=88
49430 On ch=9 n=50 v=86
49906 Off ch=9 n=50 v=86
49910 On ch=9 n=43 v=85
50861 Off ch=9 n=43 v=85
50869 On ch=9 n=45 v=97
51826 On ch=9 n=38 v=88
51834 On ch=9 n=50 v=86
51840 Off ch=9 n=45 v=97
52779 Off ch=9 n=50 v=86
52785 On ch=9 n=52 v=77
52786 On ch=9 n=40 v=80
52793 Off ch=9 n=38 v=88
53248 Off ch=9 n=40 v=80
53250 On ch=9 n=35 v=76
53276 On ch=9 n=47 v=80
53278 Off ch=9 n=52 v=77
53750 On ch=9 n=42 v=89
53751 Off ch=9 n=47 v=80
53753 On ch=9 n=54 v=84
53755 Off ch=9 n=35 v=76
54229 Off ch=9 n=54 v=84
54232 On ch=9 n=50 v=85
54239 On ch=9 n=38 v=98
54241 Off ch=9 n=42 v=89
54691 Off ch=9 n=38 v=98
54716 Off ch=9 n=50 v=85
54716 On ch=9 n=55 v=69
54718 On ch=9 n=43 v=71
55673 Off ch=9 n=43 v=71
55680 Off ch=9 n=55 v=69
55682 On ch=9 n=35 v=125
55686 On ch=9 n=47 v=106
56629 Off ch=9 n=35 v=125
56634 On ch=9 n=37 v=107
56638 On ch=9 n=49 v=97
56639 Off ch=9 n=47 v=106
57578 Off ch=9 n=37 v=107
57589 On ch=9 n=38 v=98
57600 Off ch=9 n=49 v=97
57606 On ch=9 n=50 v=92
58058 Off ch=9 n=50 v=92
58062 Off ch=9 n=38 v=98
58069 On ch=9 n=40 v=104
58073 On ch=9 n=52 v=90
58549 On ch=9 n=54 v=95
58561 On ch=9 n=42 v=116
58562 Off ch=9 n=40 v=104
58565 Off ch=9 n=52 v=90
59016 Off ch=9 n=42 v=116
59026 On ch=9 n=43 v=104
59037 On ch=9 n=55 v=87
59046 Off ch=9 n=54 v=95
59481 Off ch=9 n=43 v=104
59484 On ch=9 n=45 v=100
59514 Off ch=9 n=55 v=87
59517 On ch=9 n=57 v=80
59974 Off ch=9 n=45 v=100
59981 On ch=9 n=47 v=98
60004 On ch=9 n=59 v=85
60008 Off ch=9 n=57 v=80
60458 On ch=9 n=49 v=116
60463 Off ch=9 n=47 v=98
60472 On ch=9 n=61 v=85
60476 Off ch=9 n=59 v=85
60947 Off ch=9 n=49 v=116
60950 On ch=9 n=50 v=86
60968 On ch=9 n=62 v=95
60984 Off ch=9 n=61 v=85
61434 Off ch=9 n=50 v=86
61436 Off ch=9 n=62 v=95
61444 On ch=9 n=43 v=112
61445 On ch=9 n=55 v=94
63356 Off ch=9 n=55 v=94
63360 Off ch=9 n=43 v=112
78720 Meta TrkEnd
TrkEnd
MTrk
0 Meta TrkName "Bruford(Rest)"
0 Meta 0x20 09
0 Meta InstrName "Bruford(Rest)"
0 KeySig 0 major
745 Par ch=10 c=7 v=107
750 Par ch=10 c=10 v=64
755 Par ch=10 c=91 v=40
760 Par ch=10 c=93 v=0
765 Par ch=10 c=101 v=0
765 Par ch=10 c=100 v=0
765 Par ch=10 c=6 v=2
770 Par ch=10 c=99 v=1
770 Par ch=10 c=98 v=8
770 Par ch=10 c=6 v=64
775 Par ch=10 c=99 v=1
775 Par ch=10 c=98 v=9
775 Par ch=10 c=6 v=64
780 Par ch=10 c=99 v=1
780 Par ch=10 c=98 v=10
780 Par ch=10 c=6 v=64
785 Par ch=10 c=99 v=1
785 Par ch=10 c=98 v=32
785 Par ch=10 c=6 v=64
790 Par ch=10 c=99 v=1
790 Par ch=10 c=98 v=33
790 Par ch=10 c=6 v=64
795 Par ch=10 c=99 v=1
795 Par ch=10 c=98 v=99
795 Par ch=10 c=6 v=64
800 Par ch=10 c=99 v=1
800 Par ch=10 c=98 v=100
800 Par ch=10 c=6 v=64
805 Par ch=10 c=99 v=1
805 Par ch=10 c=98 v=102
805 Par ch=10 c=6 v=64
78720 Meta TrkEnd
TrkEnd
MTrk
0 Meta TrkName "-"
0 Meta 0x20 0a
0 Meta InstrName "-"
0 KeySig 0 major
810 Par ch=11 c=0 v=0
815 Par ch=11 c=32 v=0
820 PrCh ch=11 p=43
825 Par ch=11 c=7 v=100
830 Par ch=11 c=10 v=64
835 Par ch=11 c=91 v=40
840 Par ch=11 c=93 v=0
845 Par ch=11 c=101 v=0
845 Par ch=11 c=100 v=0
845 Par ch=11 c=6 v=2
850 Par ch=11 c=99 v=1
850 Par ch=11 c=98 v=8
850 Par ch=11 c=6 v=64
855 Par ch=11 c=99 v=1
855 Par ch=11 c=98 v=9
855 Par ch=11 c=6 v=64
860 Par ch=11 c=99 v=1
860 Par ch=11 c=98 v=10
860 Par ch=11 c=6 v=64
865 Par ch=11 c=99 v=1
865 Par ch=11 c=98 v=32
865 Par ch=11 c=6 v=64
870 Par ch=11 c=99 v=1
870 Par ch=11 c=98 v=33
870 Par ch=11 c=6 v=64
875 Par ch=11 c=99 v=1
875 Par ch=11 c=98 v=99
875 Par ch=11 c=6 v=64
880 Par ch=11 c=99 v=1
880 Par ch=11 c=98 v=100
880 Par ch=11 c=6 v=64
885 Par ch=11 c=99 v=1
885 Par ch=11 c=98 v=102
885 Par ch=11 c=6 v=64
78720 Meta TrkEnd
TrkEnd
