MFile 1 14 480
MTrk
0 TimeSig 4/4 24 8
0 KeySig 0 major
0 Tempo 416667
0 Meta Marker "I've Seen All Good People-YES"
22800 Tempo 454545
222960 Tempo 508475
223080 Tempo 517241
223200 Tempo 526316
223320 Tempo 535714
223440 Tempo 545455
223560 Tempo 555556
223680 Tempo 566038
223800 Tempo 571429
223920 Tempo 582524
224040 Tempo 594059
224160 Tempo 606061
224280 Tempo 618557
224400 Tempo 631579
224520 Tempo 645161
224640 Tempo 659341
224760 Tempo 666667
224880 Tempo 681818
225120 Tempo 697674
225240 Tempo 714286
225360 Tempo 731707
225480 Tempo 750000
225600 Tempo 769231
225720 Tempo 789474
225840 Tempo 800000
225960 Tempo 821918
226080 Tempo 845070
226200 Tempo 869565
226320 Tempo 895522
226440 Tempo 923077
226440 Meta TrkEnd
TrkEnd
MTrk
0 Meta 0x21 00
0 Meta TrkName "-"
0 Meta 0x21 00
5 SysEx f0 41 10 16 12 7f 00 00 00 01 f7
5 Meta 0x21 00
5 Meta 0x21 00
15 SysEx f0 41 10 42 12 40 00 7f 00 41 f7
15 Meta 0x21 00
15 Meta 0x21 00
25 SysEx f0 41 10 16 12 10 00 16 4b 0f f7
25 Meta 0x21 00
25 Meta 0x21 00
35 SysEx f0 41 10 16 12 52 00 10 4b 53 f7
35 Meta 0x21 00
35 Meta 0x21 00
45 SysEx f0 41 10 42 12 40 00 04 5f 5d f7
45 Meta 0x21 00
45 Meta 0x21 00
55 SysEx f0 41 10 16 12 10 00 00 40 30 f7
55 Meta 0x21 00
55 Meta 0x21 00
65 SysEx f0 41 10 16 12 52 00 00 38 40 f7
65 Meta 0x21 00
65 Meta 0x21 00
75 SysEx f0 41 10 42 12 40 00 00 00 04 00 00 3c f7
75 Meta 0x21 00
75 Meta 0x21 00
85 SysEx f0 41 10 42 12 40 11 02 00 2d f7
85 Meta 0x21 00
85 Meta 0x21 00
95 SysEx f0 41 10 16 12 10 00 0d 10 53 f7
95 Meta 0x21 00
95 Meta 0x21 00
105 SysEx f0 41 10 42 12 40 12 02 01 2b f7
105 Meta 0x21 00
105 Meta 0x21 00
115 SysEx f0 41 10 16 12 10 00 0e 10 52 f7
115 Meta 0x21 00
115 Meta 0x21 00
125 SysEx f0 41 10 42 12 40 13 02 02 29 f7
125 Meta 0x21 00
125 Meta 0x21 00
135 SysEx f0 41 10 16 12 10 00 0f 10 51 f7
135 Meta 0x21 00
135 Meta 0x21 00
145 SysEx f0 41 10 16 12 52 00 0f 10 0f f7
145 Meta 0x21 00
145 Meta 0x21 00
155 SysEx f0 41 10 42 12 40 14 02 03 27 f7
155 Meta 0x21 00
155 Meta 0x21 00
165 SysEx f0 41 10 16 12 10 00 10 10 50 f7
165 Meta 0x21 00
165 Meta 0x21 00
175 SysEx f0 41 10 16 12 52 00 0e 10 10 f7
175 Meta 0x21 00
175 Meta 0x21 00
185 SysEx f0 41 10 42 12 40 15 02 04 25 f7
185 Meta 0x21 00
185 Meta 0x21 00
195 SysEx f0 41 10 16 12 10 00 11 10 4f f7
195 Meta 0x21 00
195 Meta 0x21 00
205 SysEx f0 41 10 16 12 52 00 0d 10 11 f7
205 Meta 0x21 00
205 Meta 0x21 00
215 SysEx f0 41 10 42 12 40 16 02 05 23 f7
215 Meta 0x21 00
215 Meta 0x21 00
225 SysEx f0 41 10 16 12 10 00 12 10 4e f7
225 Meta 0x21 00
225 Meta 0x21 00
235 SysEx f0 41 10 16 12 52 00 0c 10 12 f7
235 Meta 0x21 00
235 Meta 0x21 00
245 SysEx f0 41 10 42 12 40 17 02 06 21 f7
245 Meta 0x21 00
245 Meta 0x21 00
255 SysEx f0 41 10 16 12 10 00 13 10 4d f7
255 Meta 0x21 00
255 Meta 0x21 00
265 SysEx f0 41 10 16 12 52 00 0b 10 13 f7
265 Meta 0x21 00
265 Meta 0x21 00
275 SysEx f0 41 10 42 12 40 18 02 07 1f f7
275 Meta 0x21 00
275 Meta 0x21 00
285 SysEx f0 41 10 16 12 10 00 14 10 4c f7
285 Meta 0x21 00
285 Meta 0x21 00
295 SysEx f0 41 10 16 12 52 00 0a 10 14 f7
295 Meta 0x21 00
295 Meta 0x21 00
305 SysEx f0 41 10 42 12 40 19 02 08 1d f7
305 Meta 0x21 00
305 Meta 0x21 00
315 SysEx f0 41 10 16 12 10 00 15 10 4b f7
315 Meta 0x21 00
315 Meta 0x21 00
325 SysEx f0 41 10 42 12 40 10 02 09 25 f7
325 Meta 0x21 00
325 Meta 0x21 00
335 SysEx f0 41 10 42 12 40 01 30 03 0c f7
335 Meta 0x21 00
335 Meta 0x21 00
345 SysEx f0 41 10 42 12 40 01 33 5a 32 f7
345 Meta 0x21 00
345 Meta 0x21 00
355 SysEx f0 41 10 42 12 40 01 34 36 55 f7
355 Meta 0x21 00
355 Meta 0x21 00
365 SysEx f0 41 10 42 12 40 01 38 00 07 f7
365 Meta 0x21 00
365 Meta 0x21 00
375 SysEx f0 41 10 42 12 40 01 3e 18 69 f7
375 Meta 0x21 00
375 Meta 0x21 00
385 SysEx f0 41 10 42 12 40 01 3d 03 7f f7
385 Meta 0x21 00
385 Meta 0x21 00
395 SysEx f0 41 10 16 12 10 00 01 00 6f f7
395 Meta 0x21 00
395 Meta 0x21 00
405 SysEx f0 41 10 16 12 10 00 03 05 68 f7
405 Meta 0x21 00
405 Meta 0x21 00
415 SysEx f0 41 10 16 12 10 00 02 03 6b f7
415 Meta 0x21 00
415 Meta 0x21 00
425 SysEx f0 41 10 16 12 52 00 01 00 2d f7
425 Meta 0x21 00
425 Meta 0x21 00
435 SysEx f0 41 10 16 12 52 00 03 05 26 f7
435 Meta 0x21 00
435 Meta 0x21 00
445 SysEx f0 41 10 16 12 52 00 02 03 29 f7
445 Meta 0x21 00
445 Meta 0x21 00
455 SysEx f0 41 10 42 12 40 20 10 4c 44 f7
455 Meta 0x21 00
455 Meta 0x21 00
465 SysEx f0 41 10 42 12 40 21 10 4c 43 f7
465 Meta 0x21 00
465 Meta 0x21 00
475 SysEx f0 41 10 42 12 40 22 10 4c 42 f7
475 Meta 0x21 00
475 Meta 0x21 00
485 SysEx f0 41 10 42 12 40 23 10 4c 41 f7
485 Meta 0x21 00
485 Meta 0x21 00
495 SysEx f0 41 10 42 12 40 24 10 4c 40 f7
495 Meta 0x21 00
495 Meta 0x21 00
505 SysEx f0 41 10 42 12 40 25 10 4c 3f f7
505 Meta 0x21 00
505 Meta 0x21 00
515 SysEx f0 41 10 42 12 40 26 10 4c 3e f7
515 Meta 0x21 00
515 Meta 0x21 00
525 SysEx f0 41 10 42 12 40 27 10 4c 3d f7
525 Meta 0x21 00
525 Meta 0x21 00
535 SysEx f0 41 10 42 12 40 28 10 4c 3c f7
535 Meta 0x21 00
535 Meta 0x21 00
545 SysEx f0 41 10 42 12 40 29 10 4c 3b f7
545 Meta 0x21 00
545 Meta 0x21 00
555 SysEx f0 41 10 42 12 40 2a 10 4c 3a f7
555 Meta 0x21 00
555 Meta 0x21 00
565 SysEx f0 41 10 42 12 40 2b 10 4c 39 f7
565 Meta 0x21 00
565 Meta 0x21 00
575 SysEx f0 41 10 42 12 40 2c 10 4c 38 f7
575 Meta 0x21 00
575 Meta 0x21 00
585 SysEx f0 41 10 42 12 40 2d 10 4c 37 f7
585 Meta 0x21 00
585 Meta 0x21 00
595 SysEx f0 41 10 42 12 40 2e 10 4c 36 f7
595 Meta 0x21 00
595 Meta 0x21 00
605 SysEx f0 41 10 42 12 40 2f 10 4c 35 f7
605 Meta 0x21 00
605 Meta 0x21 00
615 SysEx f0 41 10 16 12 03 00 06 01 76 f7
615 Meta 0x21 00
615 Meta 0x21 00
625 SysEx f0 41 10 16 12 03 00 16 01 66 f7
625 Meta 0x21 00
625 Meta 0x21 00
635 SysEx f0 41 10 16 12 03 00 26 01 56 f7
635 Meta 0x21 00
635 Meta 0x21 00
645 SysEx f0 41 10 16 12 03 00 36 01 46 f7
645 Meta 0x21 00
645 Meta 0x21 00
655 SysEx f0 41 10 16 12 03 00 46 01 36 f7
655 Meta 0x21 00
655 Meta 0x21 00
665 SysEx f0 41 10 16 12 03 00 56 01 26 f7
665 Meta 0x21 00
665 Meta 0x21 00
675 SysEx f0 41 10 16 12 03 00 66 01 16 f7
675 Meta 0x21 00
675 Meta 0x21 00
685 SysEx f0 41 10 16 12 03 00 76 01 06 f7
685 Meta 0x21 00
685 Meta 0x21 00
695 SysEx f0 41 10 16 12 03 01 10 7f 00 07 00 7f 00 07 00 7f 00 07 00 7f 00 07 00 7f 00 07 00 7f 00 07 00 7f 00 07 00 7f 00 07 00 7f 00 07 00 7f 00 07 00 7f 00 07 00 40 64 07 01 40 64 07 01 4a 64 06 01 41 64 07 01 4b 64 08 01 45 64 06 01 44 64 0b 01 46 64 06 01 44 64 0b 01 5d 64 06 01 43 64 08 01 47 64 06 01 43 64 08 01 42 64 03 01 48 64 06 01 42 64 03 01 49 64 08 01 7f 00 07 00 7f 00 07 00 56 64 09 01 7f 00 07 00 4c 64 07 01 7f 00 07 00 7f 00 07 00 7f 00 07 00 52 64 02 01 53 64 04 01 4d 64 08 01 4e 64 09 01 4f 64 0a 01 50 64 07 01 51 64 05 01 54 64 02 01 55 64 02 01 5b 64 09 01 58 64 04 01 5a 64 09 01 59 64 09 01 5c 64 0a 01 7f 00 07 00 57 64 0c 01 5e 64 07 01 5f 64 07 01 60 64 07 01 61 64 07 01 62 64 07 01 63 64 07 01 64 64 07 01 65 64 07 01 66 64 07 01 67 64 07 01 68 64 07 01 69 64 07 01 35 f7
695 Meta 0x21 00
695 Meta 0x21 00
705 SysEx f0 41 10 16 12 03 03 10 6a 64 07 01 6b 64 07 01 6c 64 07 01 6d 64 07 01 6e 64 07 01 6f 64 07 01 70 64 07 01 71 64 07 01 72 64 07 01 73 64 07 01 74 64 07 01 75 64 07 01 76 64 07 01 77 64 07 01 78 64 07 01 79 64 07 01 7a 64 07 01 7b 64 07 01 7c 64 07 01 7d 64 07 01 7e 64 07 01 0a f7
705 Meta 0x21 00
705 Meta 0x21 00
715 SysEx f0 41 10 16 12 50 00 71 01 3e f7
715 Meta 0x21 00
715 Meta 0x21 00
725 SysEx f0 41 10 16 12 50 00 5c 01 53 f7
725 Meta 0x21 00
725 Meta 0x21 00
735 SysEx f0 41 10 16 12 50 00 47 01 68 f7
735 Meta 0x21 00
735 Meta 0x21 00
745 SysEx f0 41 10 16 12 50 00 32 01 7d f7
745 Meta 0x21 00
745 Meta 0x21 00
755 SysEx f0 41 10 16 12 50 00 1d 01 12 f7
755 Meta 0x21 00
755 Meta 0x21 00
765 SysEx f0 41 10 16 12 50 00 08 01 27 f7
765 Meta 0x21 00
790 Par ch=1 c=0 v=0
790 Par ch=1 c=32 v=0
790 PrCh ch=1 p=82
795 Par ch=1 c=7 v=127
800 Par ch=1 c=10 v=64
805 Par ch=1 c=91 v=40
810 Par ch=1 c=93 v=0
815 Par ch=1 c=101 v=0
815 Par ch=1 c=100 v=0
815 Par ch=1 c=6 v=2
820 Par ch=1 c=99 v=1
820 Par ch=1 c=98 v=8
820 Par ch=1 c=6 v=64
825 Par ch=1 c=99 v=1
825 Par ch=1 c=98 v=9
825 Par ch=1 c=6 v=64
830 Par ch=1 c=99 v=1
830 Par ch=1 c=98 v=10
830 Par ch=1 c=6 v=64
835 Par ch=1 c=99 v=1
835 Par ch=1 c=98 v=32
835 Par ch=1 c=6 v=64
840 Par ch=1 c=99 v=1
840 Par ch=1 c=98 v=33
840 Par ch=1 c=6 v=64
845 Par ch=1 c=99 v=1
845 Par ch=1 c=98 v=99
845 Par ch=1 c=6 v=64
850 Par ch=1 c=99 v=1
850 Par ch=1 c=98 v=100
850 Par ch=1 c=6 v=64
855 Par ch=1 c=99 v=1
855 Par ch=1 c=98 v=102
855 Par ch=1 c=6 v=64
855 Meta TrkEnd
TrkEnd
MTrk
0 Meta 0x21 00
0 Meta TrkName "Anderson"
0 PrCh ch=2 p=73
0 Par ch=2 c=7 v=120
0 Par ch=2 c=10 v=70
885 Par ch=2 c=91 v=64
890 Par ch=2 c=93 v=127
895 Par ch=2 c=101 v=0
895 Par ch=2 c=100 v=0
895 Par ch=2 c=6 v=2
2286 On ch=2 n=76 v=112
2400 Par ch=2 c=93 v=127
2400 Par ch=2 c=1 v=47
2400 On ch=2 n=78 v=113
2405 On ch=2 n=76 v=0
2635 On ch=2 n=78 v=0
2640 On ch=2 n=80 v=113
3040 On ch=2 n=80 v=0
3120 On ch=2 n=80 v=113
3520 On ch=2 n=80 v=0
3600 On ch=2 n=80 v=113
3990 Pb ch=2 v=9544
4009 Pb ch=2 v=11592
4015 On ch=2 n=80 v=0
4028 Pb ch=2 v=12288
4067 Pb ch=2 v=11878
4080 On ch=2 n=78 v=113
4086 Pb ch=2 v=10117
4104 Pb ch=2 v=8192
4480 On ch=2 n=78 v=0
4560 On ch=2 n=78 v=113
4960 On ch=2 n=78 v=0
5040 On ch=2 n=78 v=113
5440 On ch=2 n=78 v=0
5520 On ch=2 n=78 v=113
5920 On ch=2 n=78 v=0
6000 On ch=2 n=76 v=113
6400 On ch=2 n=76 v=0
6480 On ch=2 n=76 v=113
6880 On ch=2 n=76 v=0
6960 On ch=2 n=76 v=113
7360 On ch=2 n=76 v=0
7440 On ch=2 n=80 v=113
7840 On ch=2 n=80 v=0
7920 On ch=2 n=80 v=113
8320 On ch=2 n=80 v=0
8400 On ch=2 n=80 v=113
8800 On ch=2 n=80 v=0
8880 On ch=2 n=80 v=113
9280 On ch=2 n=80 v=0
9360 On ch=2 n=78 v=113
9760 On ch=2 n=78 v=0
9840 On ch=2 n=78 v=113
10240 On ch=2 n=78 v=0
10302 Pb ch=2 v=2621
10320 On ch=2 n=76 v=113
10321 Pb ch=2 v=3318
10340 Pb ch=2 v=4447
10359 Pb ch=2 v=5851
10379 Pb ch=2 v=7489
10398 Pb ch=2 v=8192
10560 Par ch=2 c=1 v=0
10620 Par ch=2 c=1 v=4
10680 Par ch=2 c=1 v=8
10740 Par ch=2 c=1 v=12
10800 Par ch=2 c=1 v=16
10860 Par ch=2 c=1 v=20
10920 Par ch=2 c=1 v=24
10980 Par ch=2 c=1 v=28
11040 Par ch=2 c=1 v=0
11160 Par ch=2 c=1 v=0
11282 On ch=2 n=76 v=0
13796 On ch=2 n=76 v=114
13920 On ch=2 n=76 v=0
13920 On ch=2 n=81 v=127
14160 On ch=2 n=81 v=0
14160 On ch=2 n=83 v=127
14560 On ch=2 n=83 v=0
14640 On ch=2 n=83 v=123
15040 On ch=2 n=83 v=0
15120 On ch=2 n=83 v=123
15510 Pb ch=2 v=10883
15529 Pb ch=2 v=14978
15541 On ch=2 n=83 v=0
15548 Pb ch=2 v=16382
15587 Pb ch=2 v=15563
15600 On ch=2 n=81 v=123
15606 Pb ch=2 v=12170
15624 Pb ch=2 v=8192
16000 On ch=2 n=81 v=0
16080 On ch=2 n=81 v=123
16480 On ch=2 n=81 v=0
16560 On ch=2 n=81 v=123
16960 On ch=2 n=81 v=0
17040 On ch=2 n=81 v=123
17440 On ch=2 n=81 v=0
17520 On ch=2 n=79 v=123
17920 On ch=2 n=79 v=0
18000 On ch=2 n=79 v=123
18400 On ch=2 n=79 v=0
18480 On ch=2 n=79 v=123
18880 On ch=2 n=79 v=0
18960 On ch=2 n=83 v=123
19360 On ch=2 n=83 v=0
19440 On ch=2 n=83 v=123
19840 On ch=2 n=83 v=0
19920 On ch=2 n=83 v=123
20320 On ch=2 n=83 v=0
20400 On ch=2 n=83 v=123
20800 On ch=2 n=83 v=0
20880 On ch=2 n=81 v=123
21280 On ch=2 n=81 v=0
21360 On ch=2 n=81 v=123
21760 On ch=2 n=81 v=0
21822 Pb ch=2 v=2621
21840 On ch=2 n=81 v=122
21841 Pb ch=2 v=3318
21860 Pb ch=2 v=4447
21879 Pb ch=2 v=5851
21899 Pb ch=2 v=7489
21918 Pb ch=2 v=8192
22080 Par ch=2 c=1 v=57
22560 Par ch=2 c=1 v=0
22680 Par ch=2 c=1 v=0
22802 On ch=2 n=81 v=0
38640 On ch=2 n=76 v=119
39040 On ch=2 n=76 v=0
39120 On ch=2 n=78 v=119
39520 On ch=2 n=78 v=0
39600 On ch=2 n=78 v=119
40000 On ch=2 n=78 v=0
40080 On ch=2 n=76 v=119
40480 On ch=2 n=76 v=0
40560 On ch=2 n=76 v=119
40960 On ch=2 n=76 v=0
41040 On ch=2 n=78 v=119
41200 On ch=2 n=78 v=0
41280 On ch=2 n=76 v=119
41760 On ch=2 n=76 v=0
42000 On ch=2 n=76 v=119
42080 On ch=2 n=76 v=0
42120 On ch=2 n=76 v=119
42200 On ch=2 n=76 v=0
42240 On ch=2 n=76 v=119
42560 On ch=2 n=76 v=0
42720 On ch=2 n=78 v=119
42880 On ch=2 n=78 v=0
42960 On ch=2 n=76 v=119
43520 On ch=2 n=76 v=0
43680 On ch=2 n=73 v=119
43840 On ch=2 n=73 v=0
43920 On ch=2 n=73 v=119
44400 On ch=2 n=73 v=0
44400 On ch=2 n=71 v=119
45603 On ch=2 n=71 v=0
46320 On ch=2 n=78 v=119
46720 On ch=2 n=78 v=0
46800 On ch=2 n=78 v=119
46960 On ch=2 n=78 v=0
47040 On ch=2 n=76 v=119
47360 On ch=2 n=76 v=0
47520 On ch=2 n=78 v=119
47680 On ch=2 n=78 v=0
47760 On ch=2 n=76 v=119
48160 On ch=2 n=76 v=0
48240 On ch=2 n=78 v=119
48640 On ch=2 n=78 v=0
48720 On ch=2 n=78 v=119
49280 On ch=2 n=78 v=0
50640 On ch=2 n=73 v=119
50800 On ch=2 n=73 v=0
50880 On ch=2 n=76 v=119
51040 On ch=2 n=76 v=0
51120 On ch=2 n=73 v=119
51280 On ch=2 n=73 v=0
51360 On ch=2 n=76 v=119
51680 On ch=2 n=76 v=0
51840 On ch=2 n=80 v=119
52960 On ch=2 n=80 v=0
53040 On ch=2 n=78 v=119
53200 On ch=2 n=78 v=0
53280 On ch=2 n=76 v=119
53440 On ch=2 n=76 v=0
53520 On ch=2 n=76 v=119
53760 On ch=2 n=76 v=0
53760 On ch=2 n=73 v=119
53920 On ch=2 n=73 v=0
54000 On ch=2 n=76 v=119
54480 On ch=2 n=76 v=0
54480 On ch=2 n=73 v=119
54720 On ch=2 n=73 v=0
54720 On ch=2 n=71 v=119
55440 On ch=2 n=71 v=0
55440 On ch=2 n=73 v=119
55680 On ch=2 n=73 v=0
55680 On ch=2 n=68 v=119
56950 On ch=2 n=68 v=0
61440 On ch=2 n=80 v=119
61760 On ch=2 n=80 v=0
61920 On ch=2 n=81 v=119
62080 On ch=2 n=81 v=0
62160 On ch=2 n=80 v=119
62560 On ch=2 n=80 v=0
62640 On ch=2 n=81 v=119
62800 On ch=2 n=81 v=0
62880 On ch=2 n=80 v=119
63200 On ch=2 n=80 v=0
63360 On ch=2 n=81 v=119
63520 On ch=2 n=81 v=0
63600 On ch=2 n=80 v=119
64000 On ch=2 n=80 v=0
64080 On ch=2 n=81 v=119
64240 On ch=2 n=81 v=0
64320 On ch=2 n=80 v=119
64640 On ch=2 n=80 v=0
64800 On ch=2 n=81 v=119
64960 On ch=2 n=81 v=0
65040 On ch=2 n=80 v=119
65440 On ch=2 n=80 v=0
65520 On ch=2 n=81 v=119
65680 On ch=2 n=81 v=0
65760 On ch=2 n=80 v=119
66400 On ch=2 n=80 v=0
66720 On ch=2 n=80 v=119
67040 On ch=2 n=80 v=0
67200 On ch=2 n=81 v=119
67520 On ch=2 n=81 v=0
67680 On ch=2 n=81 v=117
71028 On ch=2 n=81 v=0
71520 On ch=2 n=81 v=119
72160 On ch=2 n=81 v=0
72240 On ch=2 n=83 v=119
72640 On ch=2 n=83 v=0
72720 On ch=2 n=80 v=119
73440 On ch=2 n=80 v=0
73680 On ch=2 n=78 v=119
73920 On ch=2 n=76 v=119
73925 On ch=2 n=78 v=0
74400 On ch=2 n=76 v=0
74880 On ch=2 n=76 v=119
75200 On ch=2 n=76 v=0
75360 On ch=2 n=78 v=119
75520 On ch=2 n=78 v=0
75600 On ch=2 n=76 v=119
76160 On ch=2 n=76 v=0
76320 On ch=2 n=78 v=119
76480 On ch=2 n=78 v=0
76560 On ch=2 n=78 v=119
76960 On ch=2 n=78 v=0
77040 On ch=2 n=76 v=119
77200 On ch=2 n=76 v=0
77280 On ch=2 n=78 v=119
77600 On ch=2 n=78 v=0
77760 On ch=2 n=78 v=119
78240 On ch=2 n=78 v=0
78960 On ch=2 n=76 v=119
79360 On ch=2 n=76 v=0
79440 On ch=2 n=78 v=119
79600 On ch=2 n=78 v=0
79680 On ch=2 n=76 v=119
79840 On ch=2 n=76 v=0
79920 On ch=2 n=73 v=119
80320 On ch=2 n=73 v=0
80400 On ch=2 n=73 v=119
80880 On ch=2 n=73 v=0
80880 On ch=2 n=71 v=119
81040 On ch=2 n=71 v=0
81120 On ch=2 n=71 v=119
81732 On ch=2 n=71 v=0
82800 On ch=2 n=76 v=119
83200 On ch=2 n=76 v=0
83280 On ch=2 n=78 v=119
83440 On ch=2 n=78 v=0
83520 On ch=2 n=76 v=119
83840 On ch=2 n=76 v=0
84000 On ch=2 n=78 v=119
84160 On ch=2 n=78 v=0
84240 On ch=2 n=76 v=119
84640 On ch=2 n=76 v=0
84720 On ch=2 n=78 v=119
84800 On ch=2 n=78 v=0
84840 On ch=2 n=76 v=119
84960 On ch=2 n=76 v=0
84960 On ch=2 n=78 v=119
85760 On ch=2 n=78 v=0
86880 On ch=2 n=76 v=119
87040 On ch=2 n=76 v=0
87120 On ch=2 n=78 v=119
87280 On ch=2 n=78 v=0
87360 On ch=2 n=76 v=119
87680 On ch=2 n=76 v=0
87840 On ch=2 n=78 v=119
88000 On ch=2 n=78 v=0
88080 On ch=2 n=80 v=119
88480 On ch=2 n=80 v=0
88560 On ch=2 n=78 v=119
88960 On ch=2 n=78 v=0
89520 On ch=2 n=76 v=119
89680 On ch=2 n=76 v=0
89760 On ch=2 n=73 v=119
89920 On ch=2 n=73 v=0
90000 On ch=2 n=76 v=119
90720 On ch=2 n=76 v=0
90720 On ch=2 n=73 v=119
90960 On ch=2 n=73 v=0
90960 On ch=2 n=71 v=119
91520 On ch=2 n=71 v=0
92160 On ch=2 n=76 v=119
92480 On ch=2 n=76 v=0
92640 On ch=2 n=73 v=119
92800 On ch=2 n=73 v=0
92880 On ch=2 n=71 v=119
93440 On ch=2 n=71 v=0
94080 On ch=2 n=80 v=119
95520 On ch=2 n=80 v=0
95760 On ch=2 n=81 v=119
96160 On ch=2 n=81 v=0
96240 On ch=2 n=80 v=119
96640 On ch=2 n=80 v=0
96720 On ch=2 n=76 v=119
97684 On ch=2 n=76 v=0
97920 On ch=2 n=76 v=119
98240 On ch=2 n=76 v=0
98400 On ch=2 n=78 v=119
98560 On ch=2 n=78 v=0
98640 On ch=2 n=78 v=119
98880 On ch=2 n=78 v=0
98880 On ch=2 n=76 v=119
99200 On ch=2 n=76 v=0
99360 On ch=2 n=76 v=119
99520 On ch=2 n=76 v=0
99600 On ch=2 n=76 v=119
100000 On ch=2 n=76 v=0
100080 On ch=2 n=78 v=119
100240 On ch=2 n=78 v=0
100320 On ch=2 n=78 v=119
100480 On ch=2 n=78 v=0
100560 On ch=2 n=78 v=119
100800 On ch=2 n=78 v=0
100800 On ch=2 n=76 v=119
101120 On ch=2 n=76 v=0
102000 On ch=2 n=76 v=119
102160 On ch=2 n=76 v=0
102240 On ch=2 n=78 v=119
102560 On ch=2 n=78 v=0
102720 On ch=2 n=76 v=119
102880 On ch=2 n=76 v=0
102960 On ch=2 n=73 v=119
103360 On ch=2 n=73 v=0
103440 On ch=2 n=73 v=119
104950 On ch=2 n=73 v=0
105840 On ch=2 n=76 v=119
106240 On ch=2 n=76 v=0
106320 On ch=2 n=78 v=119
106480 On ch=2 n=78 v=0
106560 On ch=2 n=76 v=119
106880 On ch=2 n=76 v=0
107040 On ch=2 n=78 v=119
107200 On ch=2 n=78 v=0
107280 On ch=2 n=76 v=119
107680 On ch=2 n=76 v=0
107760 On ch=2 n=78 v=119
107920 On ch=2 n=78 v=0
108000 On ch=2 n=78 v=119
108160 On ch=2 n=78 v=0
108240 On ch=2 n=78 v=119
109110 On ch=2 n=78 v=0
110160 On ch=2 n=73 v=119
110320 On ch=2 n=73 v=0
110400 On ch=2 n=76 v=119
110560 On ch=2 n=76 v=0
110640 On ch=2 n=76 v=119
110800 On ch=2 n=76 v=0
110880 On ch=2 n=76 v=119
111190 On ch=2 n=76 v=0
111840 On ch=2 n=76 v=119
112000 On ch=2 n=76 v=0
112080 On ch=2 n=76 v=119
112240 On ch=2 n=76 v=0
112320 On ch=2 n=76 v=119
112480 On ch=2 n=76 v=0
112560 On ch=2 n=76 v=119
113120 On ch=2 n=76 v=0
113280 On ch=2 n=80 v=119
116046 On ch=2 n=80 v=0
116160 On ch=2 n=81 v=119
116480 On ch=2 n=81 v=0
116640 On ch=2 n=83 v=115
119040 On ch=2 n=83 v=0
120960 On ch=2 n=80 v=119
121280 On ch=2 n=80 v=0
121440 On ch=2 n=81 v=119
121600 On ch=2 n=81 v=0
121680 On ch=2 n=80 v=119
122080 On ch=2 n=80 v=0
122160 On ch=2 n=81 v=119
122320 On ch=2 n=81 v=0
122400 On ch=2 n=80 v=119
122720 On ch=2 n=80 v=0
122880 On ch=2 n=81 v=119
123040 On ch=2 n=81 v=0
123120 On ch=2 n=80 v=119
123520 On ch=2 n=80 v=0
123600 On ch=2 n=81 v=119
123760 On ch=2 n=81 v=0
123840 On ch=2 n=80 v=119
124160 On ch=2 n=80 v=0
124320 On ch=2 n=81 v=119
124480 On ch=2 n=81 v=0
124560 On ch=2 n=80 v=119
124960 On ch=2 n=80 v=0
125040 On ch=2 n=81 v=119
125200 On ch=2 n=81 v=0
125280 On ch=2 n=80 v=119
125920 On ch=2 n=80 v=0
126240 On ch=2 n=80 v=119
126560 On ch=2 n=80 v=0
126720 On ch=2 n=81 v=119
127040 On ch=2 n=81 v=0
127200 On ch=2 n=81 v=117
130553 On ch=2 n=81 v=0
131040 On ch=2 n=81 v=119
131680 On ch=2 n=81 v=0
131760 On ch=2 n=83 v=119
132160 On ch=2 n=83 v=0
132240 On ch=2 n=83 v=119
132790 On ch=2 n=83 v=0
132960 On ch=2 n=83 v=119
133280 On ch=2 n=83 v=0
133440 On ch=2 n=80 v=119
133560 On ch=2 n=80 v=0
133560 On ch=2 n=78 v=119
133680 On ch=2 n=78 v=0
133680 On ch=2 n=76 v=119
134240 On ch=2 n=76 v=0
134400 On ch=2 n=83 v=119
134639 On ch=2 n=83 v=0
134880 On ch=2 n=80 v=119
135119 On ch=2 n=80 v=0
135360 On ch=2 n=81 v=119
135599 On ch=2 n=81 v=0
135840 On ch=2 n=78 v=119
136079 On ch=2 n=78 v=0
136320 On ch=2 n=80 v=119
136559 On ch=2 n=80 v=0
136800 On ch=2 n=76 v=119
137039 On ch=2 n=76 v=0
137280 On ch=2 n=78 v=119
137519 On ch=2 n=78 v=0
137760 On ch=2 n=73 v=121
137980 On ch=2 n=73 v=0
138000 On ch=2 n=71 v=119
138130 On ch=2 n=71 v=0
138240 On ch=2 n=75 v=119
138870 On ch=2 n=75 v=0
139200 On ch=2 n=76 v=119
139520 On ch=2 n=76 v=0
139680 On ch=2 n=80 v=119
140480 On ch=2 n=80 v=0
140640 On ch=2 n=73 v=119
141440 On ch=2 n=73 v=0
142080 On ch=2 n=83 v=119
142319 On ch=2 n=83 v=0
142560 On ch=2 n=80 v=119
142799 On ch=2 n=80 v=0
143040 On ch=2 n=81 v=119
143279 On ch=2 n=81 v=0
143520 On ch=2 n=78 v=119
143759 On ch=2 n=78 v=0
144000 On ch=2 n=80 v=119
144239 On ch=2 n=80 v=0
144480 On ch=2 n=76 v=119
144719 On ch=2 n=76 v=0
144960 On ch=2 n=78 v=119
145199 On ch=2 n=78 v=0
145440 On ch=2 n=73 v=121
145660 On ch=2 n=73 v=0
145680 On ch=2 n=71 v=119
145810 On ch=2 n=71 v=0
145920 On ch=2 n=75 v=119
146550 On ch=2 n=75 v=0
146880 On ch=2 n=76 v=119
147200 On ch=2 n=76 v=0
147360 On ch=2 n=80 v=119
148160 On ch=2 n=80 v=0
148320 On ch=2 n=73 v=119
149120 On ch=2 n=73 v=0
149760 On ch=2 n=76 v=119
150080 On ch=2 n=76 v=0
150240 On ch=2 n=78 v=119
150400 On ch=2 n=78 v=0
150480 On ch=2 n=78 v=119
151040 On ch=2 n=78 v=0
151200 On ch=2 n=76 v=119
151360 On ch=2 n=76 v=0
151440 On ch=2 n=76 v=119
151840 On ch=2 n=76 v=0
151920 On ch=2 n=78 v=119
152080 On ch=2 n=78 v=0
152160 On ch=2 n=78 v=119
152320 On ch=2 n=78 v=0
152400 On ch=2 n=78 v=119
152880 On ch=2 n=78 v=0
152880 On ch=2 n=80 v=119
153040 On ch=2 n=80 v=0
153840 On ch=2 n=81 v=119
154000 On ch=2 n=81 v=0
154080 On ch=2 n=81 v=119
154400 On ch=2 n=81 v=0
154560 On ch=2 n=76 v=119
154880 On ch=2 n=76 v=0
155040 On ch=2 n=73 v=119
155200 On ch=2 n=73 v=0
155280 On ch=2 n=73 v=119
155760 On ch=2 n=73 v=0
155760 On ch=2 n=71 v=119
156320 On ch=2 n=71 v=0
157760 On ch=2 n=76 v=119
157970 On ch=2 n=76 v=0
158080 On ch=2 n=78 v=119
158290 On ch=2 n=78 v=0
158400 On ch=2 n=76 v=119
158610 On ch=2 n=76 v=0
158720 On ch=2 n=78 v=119
158930 On ch=2 n=78 v=0
159040 On ch=2 n=78 v=119
159520 On ch=2 n=78 v=0
159600 On ch=2 n=78 v=119
159760 On ch=2 n=78 v=0
159840 On ch=2 n=78 v=119
160000 On ch=2 n=78 v=0
160080 On ch=2 n=78 v=119
160320 On ch=2 n=78 v=0
160320 On ch=2 n=80 v=119
160800 On ch=2 n=80 v=0
162000 On ch=2 n=80 v=119
162160 On ch=2 n=80 v=0
162240 On ch=2 n=81 v=119
162400 On ch=2 n=81 v=0
162480 On ch=2 n=81 v=119
162640 On ch=2 n=81 v=0
162720 On ch=2 n=80 v=119
163040 On ch=2 n=80 v=0
163680 On ch=2 n=80 v=119
164000 On ch=2 n=80 v=0
164160 On ch=2 n=80 v=119
164400 On ch=2 n=80 v=0
164400 On ch=2 n=78 v=119
164560 On ch=2 n=78 v=0
164640 On ch=2 n=76 v=119
164960 On ch=2 n=76 v=0
165120 On ch=2 n=83 v=119
167670 On ch=2 n=83 v=0
168000 On ch=2 n=76 v=119
168310 On ch=2 n=76 v=0
168480 On ch=2 n=83 v=121
171366 On ch=2 n=83 v=0
172800 On ch=2 n=80 v=119
173120 On ch=2 n=80 v=0
173280 On ch=2 n=81 v=119
173440 On ch=2 n=81 v=0
173520 On ch=2 n=80 v=119
173920 On ch=2 n=80 v=0
174000 On ch=2 n=81 v=119
174160 On ch=2 n=81 v=0
174240 On ch=2 n=80 v=119
174560 On ch=2 n=80 v=0
174720 On ch=2 n=81 v=119
174880 On ch=2 n=81 v=0
174960 On ch=2 n=80 v=119
175360 On ch=2 n=80 v=0
175440 On ch=2 n=81 v=119
175600 On ch=2 n=81 v=0
175680 On ch=2 n=80 v=119
176000 On ch=2 n=80 v=0
176160 On ch=2 n=81 v=119
176320 On ch=2 n=81 v=0
176400 On ch=2 n=80 v=119
176800 On ch=2 n=80 v=0
176880 On ch=2 n=81 v=119
177040 On ch=2 n=81 v=0
177120 On ch=2 n=80 v=119
177760 On ch=2 n=80 v=0
178080 On ch=2 n=80 v=119
178400 On ch=2 n=80 v=0
178560 On ch=2 n=81 v=119
178880 On ch=2 n=81 v=0
179040 On ch=2 n=81 v=119
181750 On ch=2 n=81 v=0
182880 On ch=2 n=83 v=119
183680 On ch=2 n=83 v=0
183840 On ch=2 n=80 v=119
184000 On ch=2 n=80 v=0
184080 On ch=2 n=83 v=119
184640 On ch=2 n=83 v=0
184800 On ch=2 n=85 v=119
185120 On ch=2 n=85 v=0
185280 On ch=2 n=80 v=119
185400 On ch=2 n=80 v=0
185400 On ch=2 n=78 v=119
185520 On ch=2 n=78 v=0
185520 On ch=2 n=76 v=119
186080 On ch=2 n=76 v=0
186240 On ch=2 n=83 v=119
186479 On ch=2 n=83 v=0
186720 On ch=2 n=80 v=119
186959 On ch=2 n=80 v=0
187200 On ch=2 n=81 v=119
187439 On ch=2 n=81 v=0
187680 On ch=2 n=78 v=119
187919 On ch=2 n=78 v=0
188160 On ch=2 n=80 v=119
188399 On ch=2 n=80 v=0
188640 On ch=2 n=76 v=119
188879 On ch=2 n=76 v=0
189120 On ch=2 n=78 v=119
189359 On ch=2 n=78 v=0
189600 On ch=2 n=73 v=121
189820 On ch=2 n=73 v=0
189840 On ch=2 n=71 v=119
189970 On ch=2 n=71 v=0
193920 On ch=2 n=83 v=119
194159 On ch=2 n=83 v=0
194400 On ch=2 n=80 v=119
194639 On ch=2 n=80 v=0
194880 On ch=2 n=81 v=119
195119 On ch=2 n=81 v=0
195360 On ch=2 n=78 v=119
195599 On ch=2 n=78 v=0
195840 On ch=2 n=80 v=119
196079 On ch=2 n=80 v=0
196320 On ch=2 n=76 v=119
196559 On ch=2 n=76 v=0
196800 On ch=2 n=78 v=119
197039 On ch=2 n=78 v=0
197280 On ch=2 n=73 v=121
197500 On ch=2 n=73 v=0
197520 On ch=2 n=71 v=119
197650 On ch=2 n=71 v=0
201600 On ch=2 n=83 v=119
201839 On ch=2 n=83 v=0
202080 On ch=2 n=80 v=119
202319 On ch=2 n=80 v=0
202560 On ch=2 n=81 v=119
202799 On ch=2 n=81 v=0
203040 On ch=2 n=78 v=119
203279 On ch=2 n=78 v=0
203520 On ch=2 n=80 v=119
203759 On ch=2 n=80 v=0
204000 On ch=2 n=76 v=119
204239 On ch=2 n=76 v=0
204480 On ch=2 n=78 v=119
204719 On ch=2 n=78 v=0
204960 On ch=2 n=73 v=121
205180 On ch=2 n=73 v=0
205200 On ch=2 n=71 v=119
205330 On ch=2 n=71 v=0
209280 On ch=2 n=83 v=119
209519 On ch=2 n=83 v=0
209760 On ch=2 n=80 v=119
209999 On ch=2 n=80 v=0
210240 On ch=2 n=81 v=119
210479 On ch=2 n=81 v=0
210720 On ch=2 n=78 v=119
210959 On ch=2 n=78 v=0
211200 On ch=2 n=80 v=119
211439 On ch=2 n=80 v=0
211680 On ch=2 n=76 v=119
211919 On ch=2 n=76 v=0
212160 On ch=2 n=78 v=119
212399 On ch=2 n=78 v=0
212640 On ch=2 n=73 v=121
212860 On ch=2 n=73 v=0
212880 On ch=2 n=71 v=119
213010 On ch=2 n=71 v=0
216960 On ch=2 n=80 v=127
217280 On ch=2 n=80 v=0
217440 On ch=2 n=81 v=127
217600 On ch=2 n=81 v=0
217680 On ch=2 n=80 v=127
218080 On ch=2 n=80 v=0
218160 On ch=2 n=81 v=127
218320 On ch=2 n=81 v=0
218400 On ch=2 n=80 v=127
218720 On ch=2 n=80 v=0
218880 On ch=2 n=81 v=127
219040 On ch=2 n=81 v=0
219120 On ch=2 n=80 v=127
219520 On ch=2 n=80 v=0
219600 On ch=2 n=81 v=127
219760 On ch=2 n=81 v=0
219840 On ch=2 n=80 v=127
220160 On ch=2 n=80 v=0
220320 On ch=2 n=81 v=127
220480 On ch=2 n=81 v=0
220560 On ch=2 n=80 v=127
220960 On ch=2 n=80 v=0
221040 On ch=2 n=81 v=127
221200 On ch=2 n=81 v=0
221280 On ch=2 n=80 v=127
222080 On ch=2 n=80 v=0
222240 On ch=2 n=80 v=127
222560 On ch=2 n=80 v=0
222720 On ch=2 n=81 v=127
223040 On ch=2 n=81 v=0
223200 On ch=2 n=81 v=127
226560 On ch=2 n=81 v=0
226560 Meta TrkEnd
TrkEnd
MTrk
0 Meta 0x21 00
0 Meta TrkName "Voc.Howe"
0 PrCh ch=3 p=75
0 Par ch=3 c=7 v=100
0 Par ch=3 c=10 v=1
925 Par ch=3 c=91 v=64
930 Par ch=3 c=93 v=64
935 Par ch=3 c=101 v=0
935 Par ch=3 c=100 v=0
935 Par ch=3 c=6 v=2
2281 On ch=3 n=71 v=58
2400 On ch=3 n=75 v=102
2413 On ch=3 n=71 v=0
2636 On ch=3 n=75 v=0
2640 On ch=3 n=76 v=125
3023 On ch=3 n=76 v=0
3120 On ch=3 n=76 v=119
3500 On ch=3 n=76 v=0
3600 On ch=3 n=76 v=121
3990 Pb ch=3 v=10883
4009 Pb ch=3 v=14978
4028 Pb ch=3 v=16382
4067 Pb ch=3 v=15563
4075 On ch=3 n=76 v=0
4080 On ch=3 n=74 v=110
4086 Pb ch=3 v=12170
4104 Pb ch=3 v=8192
4488 On ch=3 n=74 v=0
4560 On ch=3 n=74 v=111
4954 On ch=3 n=74 v=0
5040 On ch=3 n=74 v=113
5451 On ch=3 n=74 v=0
5520 On ch=3 n=74 v=116
5904 On ch=3 n=74 v=0
6000 On ch=3 n=72 v=115
6390 On ch=3 n=72 v=0
6480 On ch=3 n=72 v=110
6878 On ch=3 n=72 v=0
6960 On ch=3 n=72 v=107
7353 On ch=3 n=72 v=0
7440 On ch=3 n=71 v=109
7847 On ch=3 n=71 v=0
7920 On ch=3 n=71 v=103
8306 On ch=3 n=71 v=0
8400 On ch=3 n=71 v=109
8786 On ch=3 n=71 v=0
8880 On ch=3 n=71 v=101
9277 On ch=3 n=71 v=0
9360 On ch=3 n=73 v=103
9759 On ch=3 n=73 v=0
9840 On ch=3 n=73 v=112
10233 On ch=3 n=73 v=0
10302 Pb ch=3 v=2621
10320 On ch=3 n=73 v=118
10321 Pb ch=3 v=3318
10340 Pb ch=3 v=4447
10359 Pb ch=3 v=5851
10379 Pb ch=3 v=7489
10398 Pb ch=3 v=8192
11282 On ch=3 n=73 v=0
13806 On ch=3 n=76 v=112
13920 Par ch=3 c=93 v=127
13920 Par ch=3 c=1 v=47
13920 On ch=3 n=78 v=74
13925 On ch=3 n=76 v=0
14155 On ch=3 n=78 v=0
14160 On ch=3 n=80 v=113
14560 On ch=3 n=80 v=0
14640 On ch=3 n=80 v=113
15040 On ch=3 n=80 v=0
15120 On ch=3 n=80 v=113
15510 Pb ch=3 v=9544
15529 Pb ch=3 v=11592
15535 On ch=3 n=80 v=0
15548 Pb ch=3 v=12288
15587 Pb ch=3 v=11878
15600 On ch=3 n=78 v=113
15606 Pb ch=3 v=10117
15624 Pb ch=3 v=8192
16000 On ch=3 n=78 v=0
16080 On ch=3 n=78 v=113
16480 On ch=3 n=78 v=0
16560 On ch=3 n=78 v=113
16960 On ch=3 n=78 v=0
17040 On ch=3 n=78 v=113
17440 On ch=3 n=78 v=0
17520 On ch=3 n=76 v=113
17920 On ch=3 n=76 v=0
18000 On ch=3 n=76 v=113
18400 On ch=3 n=76 v=0
18480 On ch=3 n=76 v=113
18880 On ch=3 n=76 v=0
18960 On ch=3 n=74 v=113
19360 On ch=3 n=74 v=0
19440 On ch=3 n=74 v=113
19840 On ch=3 n=74 v=0
19920 On ch=3 n=74 v=113
20320 On ch=3 n=74 v=0
20400 On ch=3 n=74 v=113
20800 On ch=3 n=74 v=0
20880 On ch=3 n=76 v=113
21280 On ch=3 n=76 v=0
21360 On ch=3 n=76 v=113
21760 On ch=3 n=76 v=0
21822 Pb ch=3 v=2621
21840 On ch=3 n=76 v=113
21841 Pb ch=3 v=3318
21860 Pb ch=3 v=4447
21879 Pb ch=3 v=5851
21899 Pb ch=3 v=7489
21918 Pb ch=3 v=8192
22080 Par ch=3 c=1 v=0
22140 Par ch=3 c=1 v=4
22200 Par ch=3 c=1 v=8
22260 Par ch=3 c=1 v=12
22320 Par ch=3 c=1 v=16
22380 Par ch=3 c=1 v=20
22440 Par ch=3 c=1 v=24
22500 Par ch=3 c=1 v=28
22560 Par ch=3 c=1 v=0
22680 Par ch=3 c=1 v=0
22802 On ch=3 n=76 v=0
61459 On ch=3 n=76 v=104
61892 On ch=3 n=76 v=0
61919 On ch=3 n=78 v=101
62164 On ch=3 n=78 v=0
62205 On ch=3 n=76 v=102
62628 On ch=3 n=76 v=0
62653 On ch=3 n=78 v=99
62876 On ch=3 n=78 v=0
62924 On ch=3 n=76 v=100
63351 On ch=3 n=76 v=0
63369 On ch=3 n=78 v=107
63585 On ch=3 n=78 v=0
63621 On ch=3 n=76 v=90
64096 On ch=3 n=78 v=99
64100 On ch=3 n=76 v=0
64327 On ch=3 n=78 v=0
64361 On ch=3 n=76 v=94
64819 On ch=3 n=76 v=0
64821 On ch=3 n=78 v=99
65050 On ch=3 n=78 v=0
65085 On ch=3 n=76 v=94
65523 On ch=3 n=78 v=104
65525 On ch=3 n=76 v=0
65744 On ch=3 n=78 v=0
65774 On ch=3 n=75 v=99
66545 On ch=3 n=75 v=0
66745 On ch=3 n=75 v=95
67192 On ch=3 n=75 v=0
67221 On ch=3 n=76 v=98
67527 On ch=3 n=76 v=0
67690 On ch=3 n=76 v=95
71027 On ch=3 n=76 v=0
90240 On ch=3 n=76 v=81
91675 On ch=3 n=78 v=104
91692 On ch=3 n=76 v=0
91908 On ch=3 n=78 v=0
91930 On ch=3 n=76 v=81
93567 On ch=3 n=78 v=97
93582 On ch=3 n=76 v=0
94027 On ch=3 n=78 v=0
94061 On ch=3 n=76 v=81
94894 On ch=3 n=76 v=0
95057 On ch=3 n=76 v=90
95368 On ch=3 n=76 v=0
95510 On ch=3 n=80 v=102
96373 On ch=3 n=80 v=0
96441 On ch=3 n=76 v=102
97707 On ch=3 n=76 v=0
113296 On ch=3 n=76 v=92
114722 On ch=3 n=76 v=0
114728 On ch=3 n=78 v=91
114964 On ch=3 n=76 v=84
114967 On ch=3 n=78 v=0
116041 On ch=3 n=76 v=0
116159 On ch=3 n=78 v=93
116536 On ch=3 n=78 v=0
116642 On ch=3 n=80 v=101
119040 On ch=3 n=80 v=0
120961 On ch=3 n=76 v=104
121394 On ch=3 n=76 v=0
121440 On ch=3 n=78 v=101
121682 On ch=3 n=76 v=102
121685 On ch=3 n=78 v=0
122148 On ch=3 n=76 v=0
122161 On ch=3 n=78 v=99
122384 On ch=3 n=78 v=0
122402 On ch=3 n=76 v=100
122829 On ch=3 n=76 v=0
122880 On ch=3 n=78 v=107
123096 On ch=3 n=78 v=0
123121 On ch=3 n=76 v=90
123601 On ch=3 n=78 v=99
123620 On ch=3 n=76 v=0
123832 On ch=3 n=78 v=0
123842 On ch=3 n=76 v=94
124300 On ch=3 n=76 v=0
124321 On ch=3 n=78 v=99
124550 On ch=3 n=78 v=0
124562 On ch=3 n=76 v=94
125040 On ch=3 n=78 v=104
125045 On ch=3 n=76 v=0
125261 On ch=3 n=78 v=0
125281 On ch=3 n=75 v=99
126065 On ch=3 n=75 v=0
126241 On ch=3 n=75 v=95
126688 On ch=3 n=75 v=0
126721 On ch=3 n=76 v=98
127027 On ch=3 n=76 v=0
127201 On ch=3 n=76 v=98
130542 On ch=3 n=76 v=0
134400 On ch=3 n=83 v=124
134624 On ch=3 n=83 v=0
134880 On ch=3 n=83 v=106
135094 On ch=3 n=83 v=0
135360 On ch=3 n=83 v=114
135578 On ch=3 n=83 v=0
135840 On ch=3 n=83 v=111
136060 On ch=3 n=83 v=0
136320 On ch=3 n=83 v=115
136542 On ch=3 n=83 v=0
136800 On ch=3 n=83 v=115
137016 On ch=3 n=83 v=0
137280 On ch=3 n=83 v=124
137504 On ch=3 n=83 v=0
137760 On ch=3 n=80 v=127
137993 On ch=3 n=80 v=0
137999 On ch=3 n=83 v=123
138149 On ch=3 n=83 v=0
142083 On ch=3 n=76 v=104
143505 On ch=3 n=76 v=0
143512 On ch=3 n=78 v=93
143755 On ch=3 n=78 v=0
143771 On ch=3 n=76 v=90
145442 On ch=3 n=78 v=79
145445 On ch=3 n=76 v=0
145913 On ch=3 n=78 v=0
145918 On ch=3 n=76 v=97
146766 On ch=3 n=76 v=0
146883 On ch=3 n=76 v=95
147321 On ch=3 n=76 v=0
147351 On ch=3 n=80 v=104
148309 On ch=3 n=80 v=0
148334 On ch=3 n=76 v=97
149317 On ch=3 n=76 v=0
149783 On ch=3 n=76 v=88
151177 On ch=3 n=76 v=0
151187 On ch=3 n=78 v=84
151402 On ch=3 n=78 v=0
151445 On ch=3 n=76 v=80
152640 On ch=3 n=76 v=0
152647 On ch=3 n=78 v=89
153075 On ch=3 n=78 v=0
153108 On ch=3 n=76 v=84
156000 On ch=3 n=76 v=0
157443 On ch=3 n=76 v=104
158865 On ch=3 n=76 v=0
158872 On ch=3 n=78 v=93
159115 On ch=3 n=78 v=0
159131 On ch=3 n=76 v=90
160802 On ch=3 n=78 v=79
160805 On ch=3 n=76 v=0
161273 On ch=3 n=78 v=0
161278 On ch=3 n=76 v=97
162126 On ch=3 n=76 v=0
162243 On ch=3 n=76 v=95
162681 On ch=3 n=76 v=0
162711 On ch=3 n=80 v=104
163669 On ch=3 n=80 v=0
163694 On ch=3 n=76 v=97
164677 On ch=3 n=76 v=0
165143 On ch=3 n=76 v=88
166537 On ch=3 n=76 v=0
166547 On ch=3 n=78 v=84
166762 On ch=3 n=78 v=0
166805 On ch=3 n=76 v=80
168000 On ch=3 n=76 v=0
168007 On ch=3 n=78 v=89
168435 On ch=3 n=78 v=0
168468 On ch=3 n=80 v=84
171360 On ch=3 n=80 v=0
172801 On ch=3 n=76 v=104
173234 On ch=3 n=76 v=0
173280 On ch=3 n=78 v=101
173522 On ch=3 n=76 v=102
173525 On ch=3 n=78 v=0
173988 On ch=3 n=76 v=0
174001 On ch=3 n=78 v=99
174224 On ch=3 n=78 v=0
174242 On ch=3 n=76 v=100
174669 On ch=3 n=76 v=0
174720 On ch=3 n=78 v=107
174936 On ch=3 n=78 v=0
174961 On ch=3 n=76 v=90
175441 On ch=3 n=78 v=99
175460 On ch=3 n=76 v=0
175672 On ch=3 n=78 v=0
175682 On ch=3 n=76 v=94
176140 On ch=3 n=76 v=0
176161 On ch=3 n=78 v=99
176390 On ch=3 n=78 v=0
176402 On ch=3 n=76 v=94
176880 On ch=3 n=78 v=104
176885 On ch=3 n=76 v=0
177101 On ch=3 n=78 v=0
177121 On ch=3 n=75 v=99
177905 On ch=3 n=75 v=0
178081 On ch=3 n=75 v=95
178528 On ch=3 n=75 v=0
178561 On ch=3 n=76 v=98
178867 On ch=3 n=76 v=0
179041 On ch=3 n=76 v=95
182387 On ch=3 n=76 v=0
186240 On ch=3 n=83 v=124
186464 On ch=3 n=83 v=0
186720 On ch=3 n=83 v=106
186934 On ch=3 n=83 v=0
187200 On ch=3 n=83 v=114
187418 On ch=3 n=83 v=0
187680 On ch=3 n=83 v=111
187900 On ch=3 n=83 v=0
188160 On ch=3 n=83 v=115
188382 On ch=3 n=83 v=0
188640 On ch=3 n=83 v=115
188856 On ch=3 n=83 v=0
189120 On ch=3 n=83 v=124
189344 On ch=3 n=83 v=0
189600 On ch=3 n=80 v=127
189833 On ch=3 n=80 v=0
189839 On ch=3 n=83 v=123
189989 On ch=3 n=83 v=0
193920 On ch=3 n=83 v=124
194144 On ch=3 n=83 v=0
194400 On ch=3 n=83 v=106
194614 On ch=3 n=83 v=0
194880 On ch=3 n=83 v=114
195098 On ch=3 n=83 v=0
195360 On ch=3 n=83 v=111
195580 On ch=3 n=83 v=0
195840 On ch=3 n=83 v=115
196062 On ch=3 n=83 v=0
196320 On ch=3 n=83 v=115
196536 On ch=3 n=83 v=0
196800 On ch=3 n=83 v=124
197024 On ch=3 n=83 v=0
197280 On ch=3 n=80 v=127
197513 On ch=3 n=80 v=0
197519 On ch=3 n=83 v=123
197669 On ch=3 n=83 v=0
201600 On ch=3 n=83 v=124
201824 On ch=3 n=83 v=0
202080 On ch=3 n=83 v=106
202294 On ch=3 n=83 v=0
202560 On ch=3 n=83 v=114
202778 On ch=3 n=83 v=0
203040 On ch=3 n=83 v=111
203260 On ch=3 n=83 v=0
203520 On ch=3 n=83 v=115
203742 On ch=3 n=83 v=0
204000 On ch=3 n=83 v=115
204216 On ch=3 n=83 v=0
204480 On ch=3 n=83 v=124
204704 On ch=3 n=83 v=0
204960 On ch=3 n=80 v=127
205193 On ch=3 n=80 v=0
205199 On ch=3 n=83 v=123
205349 On ch=3 n=83 v=0
209280 On ch=3 n=83 v=124
209504 On ch=3 n=83 v=0
209760 On ch=3 n=83 v=106
209974 On ch=3 n=83 v=0
210240 On ch=3 n=83 v=114
210458 On ch=3 n=83 v=0
210720 On ch=3 n=83 v=111
210940 On ch=3 n=83 v=0
211200 On ch=3 n=83 v=115
211422 On ch=3 n=83 v=0
211680 On ch=3 n=83 v=115
211896 On ch=3 n=83 v=0
212160 On ch=3 n=83 v=124
212384 On ch=3 n=83 v=0
212640 On ch=3 n=80 v=127
212873 On ch=3 n=80 v=0
212879 On ch=3 n=83 v=123
213029 On ch=3 n=83 v=0
216961 On ch=3 n=76 v=104
217394 On ch=3 n=76 v=0
217440 On ch=3 n=78 v=101
217682 On ch=3 n=76 v=102
217685 On ch=3 n=78 v=0
218148 On ch=3 n=76 v=0
218161 On ch=3 n=78 v=99
218384 On ch=3 n=78 v=0
218402 On ch=3 n=76 v=100
218829 On ch=3 n=76 v=0
218880 On ch=3 n=78 v=107
219096 On ch=3 n=78 v=0
219121 On ch=3 n=76 v=90
219601 On ch=3 n=78 v=99
219620 On ch=3 n=76 v=0
219832 On ch=3 n=78 v=0
219842 On ch=3 n=76 v=94
220300 On ch=3 n=76 v=0
220321 On ch=3 n=78 v=99
220550 On ch=3 n=78 v=0
220562 On ch=3 n=76 v=94
221040 On ch=3 n=78 v=104
221045 On ch=3 n=76 v=0
221261 On ch=3 n=78 v=0
221281 On ch=3 n=75 v=99
222065 On ch=3 n=75 v=0
222241 On ch=3 n=75 v=95
222688 On ch=3 n=75 v=0
222721 On ch=3 n=76 v=98
223027 On ch=3 n=76 v=0
223201 On ch=3 n=76 v=95
226547 On ch=3 n=76 v=0
226547 Meta TrkEnd
TrkEnd
MTrk
0 Meta 0x21 00
0 Meta TrkName "Voc.Squire"
0 PrCh ch=4 p=76
0 Par ch=4 c=7 v=120
0 Par ch=4 c=10 v=120
965 Par ch=4 c=91 v=40
970 Par ch=4 c=93 v=0
975 Par ch=4 c=101 v=0
975 Par ch=4 c=100 v=0
975 Par ch=4 c=6 v=2
980 Par ch=4 c=99 v=1
980 Par ch=4 c=98 v=8
980 Par ch=4 c=6 v=64
985 Par ch=4 c=99 v=1
985 Par ch=4 c=98 v=9
985 Par ch=4 c=6 v=64
990 Par ch=4 c=99 v=1
990 Par ch=4 c=98 v=10
990 Par ch=4 c=6 v=64
995 Par ch=4 c=99 v=1
995 Par ch=4 c=98 v=32
995 Par ch=4 c=6 v=64
1000 Par ch=4 c=99 v=1
1000 Par ch=4 c=98 v=33
1000 Par ch=4 c=6 v=64
1005 Par ch=4 c=99 v=1
1005 Par ch=4 c=98 v=99
1005 Par ch=4 c=6 v=64
1010 Par ch=4 c=99 v=1
1010 Par ch=4 c=98 v=100
1010 Par ch=4 c=6 v=64
1015 Par ch=4 c=99 v=1
1015 Par ch=4 c=98 v=102
1015 Par ch=4 c=6 v=64
2280 On ch=4 n=68 v=90
2406 On ch=4 n=69 v=120
2410 On ch=4 n=68 v=0
2631 On ch=4 n=69 v=0
2638 On ch=4 n=71 v=105
3032 On ch=4 n=71 v=0
3128 On ch=4 n=71 v=96
3536 On ch=4 n=71 v=0
3602 On ch=4 n=71 v=94
3990 Pb ch=4 v=9544
4005 On ch=4 n=71 v=0
4009 Pb ch=4 v=11592
4028 Pb ch=4 v=12288
4067 Pb ch=4 v=11878
4080 On ch=4 n=69 v=102
4086 Pb ch=4 v=10117
4104 Pb ch=4 v=8192
4480 On ch=4 n=69 v=0
4564 On ch=4 n=69 v=87
4955 On ch=4 n=69 v=0
5048 On ch=4 n=69 v=86
5426 On ch=4 n=69 v=0
5519 On ch=4 n=69 v=85
5919 On ch=4 n=69 v=0
6003 On ch=4 n=67 v=87
6391 On ch=4 n=67 v=0
6485 On ch=4 n=67 v=79
6879 On ch=4 n=67 v=0
6963 On ch=4 n=67 v=79
7365 On ch=4 n=67 v=0
7440 On ch=4 n=71 v=94
7836 On ch=4 n=71 v=0
7923 On ch=4 n=71 v=91
8315 On ch=4 n=71 v=0
8404 On ch=4 n=71 v=86
8801 On ch=4 n=71 v=0
8887 On ch=4 n=71 v=89
9282 On ch=4 n=71 v=0
9360 On ch=4 n=69 v=103
9765 On ch=4 n=69 v=0
9845 On ch=4 n=69 v=90
10219 On ch=4 n=69 v=0
10302 Pb ch=4 v=2621
10321 Pb ch=4 v=3318
10322 On ch=4 n=69 v=98
10340 Pb ch=4 v=4447
10359 Pb ch=4 v=5851
10379 Pb ch=4 v=7489
10398 Pb ch=4 v=8192
11272 On ch=4 n=69 v=0
13801 On ch=4 n=71 v=58
13920 On ch=4 n=74 v=102
13933 On ch=4 n=71 v=0
14156 On ch=4 n=74 v=0
14160 On ch=4 n=76 v=125
14543 On ch=4 n=76 v=0
14640 On ch=4 n=76 v=119
15020 On ch=4 n=76 v=0
15120 On ch=4 n=76 v=121
15510 Pb ch=4 v=10883
15529 Pb ch=4 v=14978
15548 Pb ch=4 v=16382
15587 Pb ch=4 v=15563
15595 On ch=4 n=76 v=0
15600 On ch=4 n=74 v=110
15606 Pb ch=4 v=12170
15624 Pb ch=4 v=8192
16008 On ch=4 n=74 v=0
16080 On ch=4 n=74 v=111
16474 On ch=4 n=74 v=0
16560 On ch=4 n=74 v=113
16971 On ch=4 n=74 v=0
17040 On ch=4 n=74 v=116
17424 On ch=4 n=74 v=0
17520 On ch=4 n=72 v=115
17910 On ch=4 n=72 v=0
18000 On ch=4 n=72 v=110
18398 On ch=4 n=72 v=0
18480 On ch=4 n=72 v=107
18873 On ch=4 n=72 v=0
18960 On ch=4 n=71 v=109
19367 On ch=4 n=71 v=0
19440 On ch=4 n=71 v=103
19826 On ch=4 n=71 v=0
19920 On ch=4 n=71 v=109
20306 On ch=4 n=71 v=0
20400 On ch=4 n=71 v=101
20797 On ch=4 n=71 v=0
20880 On ch=4 n=73 v=103
21279 On ch=4 n=73 v=0
21360 On ch=4 n=73 v=112
21753 On ch=4 n=73 v=0
21822 Pb ch=4 v=2621
21840 On ch=4 n=73 v=118
21841 Pb ch=4 v=3318
21860 Pb ch=4 v=4447
21879 Pb ch=4 v=5851
21899 Pb ch=4 v=7489
21918 Pb ch=4 v=8192
22802 On ch=4 n=73 v=0
61464 On ch=4 n=71 v=106
61882 On ch=4 n=71 v=0
61932 On ch=4 n=73 v=99
62159 On ch=4 n=73 v=0
62210 On ch=4 n=71 v=98
62590 On ch=4 n=71 v=0
62656 On ch=4 n=73 v=85
62857 On ch=4 n=73 v=0
62905 On ch=4 n=71 v=94
63309 On ch=4 n=71 v=0
63352 On ch=4 n=73 v=97
63570 On ch=4 n=73 v=0
63625 On ch=4 n=71 v=92
64055 On ch=4 n=71 v=0
64083 On ch=4 n=73 v=95
64299 On ch=4 n=73 v=0
64352 On ch=4 n=71 v=91
64774 On ch=4 n=71 v=0
64799 On ch=4 n=73 v=91
65021 On ch=4 n=73 v=0
65072 On ch=4 n=71 v=88
65488 On ch=4 n=71 v=0
65513 On ch=4 n=73 v=87
65713 On ch=4 n=73 v=0
65765 On ch=4 n=71 v=90
66558 On ch=4 n=71 v=0
66739 On ch=4 n=71 v=88
67064 On ch=4 n=71 v=0
67213 On ch=4 n=73 v=95
67489 On ch=4 n=73 v=0
67674 On ch=4 n=73 v=97
71024 On ch=4 n=73 v=0
90240 On ch=4 n=71 v=91
91677 On ch=4 n=73 v=99
91690 On ch=4 n=71 v=0
91886 On ch=4 n=73 v=0
91922 On ch=4 n=71 v=65
93584 On ch=4 n=73 v=77
93618 On ch=4 n=71 v=0
94037 On ch=4 n=73 v=0
94072 On ch=4 n=71 v=75
94901 On ch=4 n=71 v=0
95054 On ch=4 n=71 v=79
95412 On ch=4 n=71 v=0
95508 On ch=4 n=76 v=97
96378 On ch=4 n=76 v=0
96452 On ch=4 n=71 v=79
97693 On ch=4 n=71 v=0
113280 On ch=4 n=71 v=109
114230 On ch=4 n=71 v=0
114720 On ch=4 n=73 v=110
114950 On ch=4 n=73 v=0
114960 On ch=4 n=71 v=108
116046 On ch=4 n=71 v=0
116160 On ch=4 n=73 v=109
116480 On ch=4 n=73 v=0
116640 On ch=4 n=75 v=105
119040 On ch=4 n=75 v=0
120961 On ch=4 n=71 v=106
121379 On ch=4 n=71 v=0
121441 On ch=4 n=73 v=99
121668 On ch=4 n=73 v=0
121683 On ch=4 n=71 v=98
122110 On ch=4 n=71 v=0
122161 On ch=4 n=73 v=85
122362 On ch=4 n=73 v=0
122401 On ch=4 n=71 v=94
122805 On ch=4 n=71 v=0
122880 On ch=4 n=73 v=97
123098 On ch=4 n=73 v=0
123121 On ch=4 n=71 v=92
123575 On ch=4 n=71 v=0
123600 On ch=4 n=73 v=95
123816 On ch=4 n=73 v=0
123842 On ch=4 n=71 v=91
124264 On ch=4 n=71 v=0
124320 On ch=4 n=73 v=91
124542 On ch=4 n=73 v=0
124562 On ch=4 n=71 v=88
125008 On ch=4 n=71 v=0
125040 On ch=4 n=73 v=87
125240 On ch=4 n=73 v=0
125280 On ch=4 n=71 v=90
126078 On ch=4 n=71 v=0
126241 On ch=4 n=71 v=88
126566 On ch=4 n=71 v=0
126721 On ch=4 n=73 v=95
126997 On ch=4 n=73 v=0
127200 On ch=4 n=73 v=102
130559 On ch=4 n=73 v=0
134400 On ch=4 n=80 v=127
134606 On ch=4 n=80 v=0
134880 On ch=4 n=76 v=122
135105 On ch=4 n=76 v=0
135360 On ch=4 n=78 v=127
135575 On ch=4 n=78 v=0
135840 On ch=4 n=75 v=127
136053 On ch=4 n=75 v=0
136320 On ch=4 n=76 v=127
136541 On ch=4 n=76 v=0
136800 On ch=4 n=73 v=127
137016 On ch=4 n=73 v=0
137280 On ch=4 n=75 v=127
137498 On ch=4 n=75 v=0
137760 On ch=4 n=68 v=127
137990 On ch=4 n=68 v=0
138000 On ch=4 n=71 v=119
138129 On ch=4 n=71 v=0
142093 On ch=4 n=71 v=95
143516 On ch=4 n=71 v=0
143519 On ch=4 n=73 v=110
143755 On ch=4 n=73 v=0
143776 On ch=4 n=71 v=100
145434 On ch=4 n=71 v=0
145441 On ch=4 n=73 v=107
145907 On ch=4 n=73 v=0
145920 On ch=4 n=71 v=95
146786 On ch=4 n=71 v=0
146880 On ch=4 n=71 v=102
147328 On ch=4 n=71 v=0
147353 On ch=4 n=76 v=102
148305 On ch=4 n=76 v=0
148318 On ch=4 n=73 v=104
149331 On ch=4 n=73 v=0
149790 On ch=4 n=71 v=98
151141 On ch=4 n=71 v=0
151181 On ch=4 n=73 v=89
151419 On ch=4 n=73 v=0
151444 On ch=4 n=71 v=87
152600 On ch=4 n=71 v=0
152630 On ch=4 n=73 v=89
153060 On ch=4 n=73 v=0
153110 On ch=4 n=71 v=92
156002 On ch=4 n=71 v=0
157453 On ch=4 n=71 v=95
158876 On ch=4 n=71 v=0
158879 On ch=4 n=73 v=110
159115 On ch=4 n=73 v=0
159136 On ch=4 n=71 v=100
160794 On ch=4 n=71 v=0
160801 On ch=4 n=73 v=107
161267 On ch=4 n=73 v=0
161280 On ch=4 n=71 v=95
162146 On ch=4 n=71 v=0
162240 On ch=4 n=71 v=102
162688 On ch=4 n=71 v=0
162713 On ch=4 n=76 v=102
163665 On ch=4 n=76 v=0
163678 On ch=4 n=73 v=104
164691 On ch=4 n=73 v=0
165150 On ch=4 n=71 v=98
166501 On ch=4 n=71 v=0
166541 On ch=4 n=73 v=89
166779 On ch=4 n=73 v=0
166804 On ch=4 n=71 v=87
167960 On ch=4 n=71 v=0
167990 On ch=4 n=73 v=89
168420 On ch=4 n=73 v=0
168470 On ch=4 n=71 v=92
171362 On ch=4 n=71 v=0
172801 On ch=4 n=71 v=106
173219 On ch=4 n=71 v=0
173281 On ch=4 n=73 v=99
173508 On ch=4 n=73 v=0
173523 On ch=4 n=71 v=98
173950 On ch=4 n=71 v=0
174001 On ch=4 n=73 v=85
174202 On ch=4 n=73 v=0
174241 On ch=4 n=71 v=94
174645 On ch=4 n=71 v=0
174720 On ch=4 n=73 v=97
174938 On ch=4 n=73 v=0
174961 On ch=4 n=71 v=92
175415 On ch=4 n=71 v=0
175440 On ch=4 n=73 v=95
175656 On ch=4 n=73 v=0
175682 On ch=4 n=71 v=91
176104 On ch=4 n=71 v=0
176160 On ch=4 n=73 v=91
176382 On ch=4 n=73 v=0
176402 On ch=4 n=71 v=88
176848 On ch=4 n=71 v=0
176880 On ch=4 n=73 v=87
177080 On ch=4 n=73 v=0
177120 On ch=4 n=71 v=90
177918 On ch=4 n=71 v=0
178081 On ch=4 n=71 v=88
178406 On ch=4 n=71 v=0
178561 On ch=4 n=73 v=95
178837 On ch=4 n=73 v=0
179040 On ch=4 n=73 v=97
182384 On ch=4 n=73 v=0
186240 On ch=4 n=80 v=127
186446 On ch=4 n=80 v=0
186720 On ch=4 n=76 v=122
186945 On ch=4 n=76 v=0
187200 On ch=4 n=78 v=127
187415 On ch=4 n=78 v=0
187680 On ch=4 n=75 v=127
187893 On ch=4 n=75 v=0
188160 On ch=4 n=76 v=127
188381 On ch=4 n=76 v=0
188640 On ch=4 n=73 v=127
188856 On ch=4 n=73 v=0
189120 On ch=4 n=75 v=127
189338 On ch=4 n=75 v=0
189600 On ch=4 n=68 v=127
189830 On ch=4 n=68 v=0
189840 On ch=4 n=71 v=119
189969 On ch=4 n=71 v=0
193920 On ch=4 n=80 v=127
194126 On ch=4 n=80 v=0
194400 On ch=4 n=76 v=122
194625 On ch=4 n=76 v=0
194880 On ch=4 n=78 v=127
195095 On ch=4 n=78 v=0
195360 On ch=4 n=75 v=127
195573 On ch=4 n=75 v=0
195840 On ch=4 n=76 v=127
196061 On ch=4 n=76 v=0
196320 On ch=4 n=73 v=127
196536 On ch=4 n=73 v=0
196800 On ch=4 n=75 v=127
197018 On ch=4 n=75 v=0
197280 On ch=4 n=68 v=127
197510 On ch=4 n=68 v=0
197520 On ch=4 n=71 v=119
197649 On ch=4 n=71 v=0
201600 On ch=4 n=80 v=127
201806 On ch=4 n=80 v=0
202080 On ch=4 n=76 v=122
202305 On ch=4 n=76 v=0
202560 On ch=4 n=78 v=127
202775 On ch=4 n=78 v=0
203040 On ch=4 n=75 v=127
203253 On ch=4 n=75 v=0
203520 On ch=4 n=76 v=127
203741 On ch=4 n=76 v=0
204000 On ch=4 n=73 v=127
204216 On ch=4 n=73 v=0
204480 On ch=4 n=75 v=127
204698 On ch=4 n=75 v=0
204960 On ch=4 n=68 v=127
205190 On ch=4 n=68 v=0
205200 On ch=4 n=71 v=119
205329 On ch=4 n=71 v=0
209280 On ch=4 n=80 v=127
209486 On ch=4 n=80 v=0
209760 On ch=4 n=76 v=122
209985 On ch=4 n=76 v=0
210240 On ch=4 n=78 v=127
210455 On ch=4 n=78 v=0
210720 On ch=4 n=75 v=127
210933 On ch=4 n=75 v=0
211200 On ch=4 n=76 v=127
211421 On ch=4 n=76 v=0
211680 On ch=4 n=73 v=127
211896 On ch=4 n=73 v=0
212160 On ch=4 n=75 v=127
212378 On ch=4 n=75 v=0
212640 On ch=4 n=68 v=127
212870 On ch=4 n=68 v=0
212880 On ch=4 n=71 v=119
213009 On ch=4 n=71 v=0
216961 On ch=4 n=71 v=106
217379 On ch=4 n=71 v=0
217441 On ch=4 n=73 v=99
217668 On ch=4 n=73 v=0
217683 On ch=4 n=71 v=98
218110 On ch=4 n=71 v=0
218161 On ch=4 n=73 v=85
218362 On ch=4 n=73 v=0
218401 On ch=4 n=71 v=94
218805 On ch=4 n=71 v=0
218880 On ch=4 n=73 v=97
219098 On ch=4 n=73 v=0
219121 On ch=4 n=71 v=92
219575 On ch=4 n=71 v=0
219600 On ch=4 n=73 v=95
219816 On ch=4 n=73 v=0
219842 On ch=4 n=71 v=91
220264 On ch=4 n=71 v=0
220320 On ch=4 n=73 v=91
220542 On ch=4 n=73 v=0
220562 On ch=4 n=71 v=88
221008 On ch=4 n=71 v=0
221040 On ch=4 n=73 v=87
221240 On ch=4 n=73 v=0
221280 On ch=4 n=71 v=90
222078 On ch=4 n=71 v=0
222241 On ch=4 n=71 v=88
222566 On ch=4 n=71 v=0
222721 On ch=4 n=73 v=95
222997 On ch=4 n=73 v=0
223200 On ch=4 n=73 v=97
226544 On ch=4 n=73 v=0
226544 Meta TrkEnd
TrkEnd
MTrk
0 Meta 0x21 00
0 Meta TrkName "Howe"
0 PrCh ch=5 p=25
0 Par ch=5 c=7 v=100
0 Par ch=5 c=10 v=50
1045 Par ch=5 c=91 v=100
1050 Par ch=5 c=93 v=80
1055 Par ch=5 c=101 v=0
1055 Par ch=5 c=100 v=0
1055 Par ch=5 c=6 v=2
1060 Par ch=5 c=99 v=1
1060 Par ch=5 c=98 v=8
1060 Par ch=5 c=6 v=64
1065 Par ch=5 c=99 v=1
1065 Par ch=5 c=98 v=9
1065 Par ch=5 c=6 v=64
1070 Par ch=5 c=99 v=1
1070 Par ch=5 c=98 v=10
1070 Par ch=5 c=6 v=64
1075 Par ch=5 c=99 v=1
1075 Par ch=5 c=98 v=32
1075 Par ch=5 c=6 v=64
1080 Par ch=5 c=99 v=1
1080 Par ch=5 c=98 v=33
1080 Par ch=5 c=6 v=64
1085 Par ch=5 c=99 v=1
1085 Par ch=5 c=98 v=99
1085 Par ch=5 c=6 v=64
1090 Par ch=5 c=99 v=1
1090 Par ch=5 c=98 v=100
1090 Par ch=5 c=6 v=64
1095 Par ch=5 c=99 v=1
1095 Par ch=5 c=98 v=102
1095 Par ch=5 c=6 v=64
13440 Pb ch=5 v=8192
13440 Par ch=5 c=1 v=0
13440 Par ch=5 c=64 v=0
13440 Par ch=5 c=11 v=127
13440 Par ch=5 c=91 v=64
13440 Par ch=5 c=93 v=64
23280 On ch=5 n=68 v=100
23280 On ch=5 n=71 v=99
23430 On ch=5 n=68 v=0
23435 On ch=5 n=71 v=0
23520 On ch=5 n=68 v=86
23520 On ch=5 n=71 v=89
23635 On ch=5 n=68 v=0
23640 On ch=5 n=69 v=119
23640 On ch=5 n=73 v=119
23645 On ch=5 n=71 v=0
23760 On ch=5 n=73 v=0
23760 On ch=5 n=69 v=0
23760 On ch=5 n=68 v=119
23760 On ch=5 n=71 v=118
23925 On ch=5 n=68 v=0
23930 On ch=5 n=71 v=0
24000 On ch=5 n=59 v=118
24000 On ch=5 n=68 v=119
24000 On ch=5 n=71 v=119
24215 On ch=5 n=71 v=0
24220 On ch=5 n=68 v=0
24220 On ch=5 n=59 v=0
24240 On ch=5 n=61 v=118
24240 On ch=5 n=69 v=119
24240 On ch=5 n=73 v=119
24465 On ch=5 n=73 v=0
24470 On ch=5 n=69 v=0
24470 On ch=5 n=61 v=0
24480 On ch=5 n=59 v=119
24480 On ch=5 n=71 v=120
24480 On ch=5 n=68 v=118
24640 On ch=5 n=59 v=0
24700 On ch=5 n=71 v=0
24705 On ch=5 n=68 v=0
24720 On ch=5 n=64 v=119
24720 On ch=5 n=73 v=116
24720 On ch=5 n=76 v=121
24871 On ch=5 n=73 v=0
24877 On ch=5 n=76 v=0
24892 On ch=5 n=64 v=0
25200 On ch=5 n=75 v=118
25200 On ch=5 n=71 v=120
25200 On ch=5 n=63 v=119
25368 On ch=5 n=63 v=0
25370 On ch=5 n=71 v=0
25374 On ch=5 n=75 v=0
25680 On ch=5 n=68 v=119
25680 On ch=5 n=71 v=120
25680 On ch=5 n=59 v=119
26158 On ch=5 n=64 v=103
26228 On ch=5 n=71 v=0
26228 On ch=5 n=68 v=0
26240 On ch=5 n=59 v=0
26406 On ch=5 n=59 v=120
26471 On ch=5 n=64 v=0
26643 On ch=5 n=52 v=101
26720 On ch=5 n=59 v=0
27120 On ch=5 n=68 v=100
27120 On ch=5 n=71 v=99
27270 On ch=5 n=68 v=0
27275 On ch=5 n=71 v=0
27360 On ch=5 n=68 v=86
27360 On ch=5 n=71 v=89
27475 On ch=5 n=68 v=0
27480 On ch=5 n=69 v=119
27480 On ch=5 n=73 v=119
27485 On ch=5 n=71 v=0
27600 On ch=5 n=73 v=0
27600 On ch=5 n=69 v=0
27600 On ch=5 n=68 v=119
27600 On ch=5 n=71 v=118
27765 On ch=5 n=68 v=0
27770 On ch=5 n=71 v=0
27840 On ch=5 n=68 v=119
27840 On ch=5 n=71 v=119
27846 On ch=5 n=52 v=0
28055 On ch=5 n=71 v=0
28060 On ch=5 n=68 v=0
28080 On ch=5 n=69 v=119
28080 On ch=5 n=73 v=119
28305 On ch=5 n=73 v=0
28310 On ch=5 n=69 v=0
28320 On ch=5 n=71 v=120
28320 On ch=5 n=68 v=118
28540 On ch=5 n=71 v=0
28545 On ch=5 n=68 v=0
28555 On ch=5 n=66 v=121
28555 On ch=5 n=54 v=119
28712 On ch=5 n=66 v=0
28727 On ch=5 n=54 v=0
29040 On ch=5 n=64 v=118
29040 On ch=5 n=52 v=119
29208 On ch=5 n=52 v=0
29214 On ch=5 n=64 v=0
29520 On ch=5 n=68 v=119
29520 On ch=5 n=59 v=119
30003 On ch=5 n=64 v=111
30068 On ch=5 n=68 v=0
30080 On ch=5 n=59 v=0
30240 On ch=5 n=61 v=120
30367 On ch=5 n=64 v=0
30477 On ch=5 n=56 v=75
30575 On ch=5 n=61 v=0
30960 On ch=5 n=68 v=100
30960 On ch=5 n=71 v=99
31110 On ch=5 n=68 v=0
31115 On ch=5 n=71 v=0
31200 On ch=5 n=68 v=86
31200 On ch=5 n=71 v=89
31315 On ch=5 n=68 v=0
31320 On ch=5 n=69 v=119
31320 On ch=5 n=73 v=119
31325 On ch=5 n=71 v=0
31440 On ch=5 n=73 v=0
31440 On ch=5 n=69 v=0
31440 On ch=5 n=68 v=119
31440 On ch=5 n=71 v=118
31594 On ch=5 n=56 v=0
31605 On ch=5 n=68 v=0
31610 On ch=5 n=71 v=0
31680 On ch=5 n=59 v=118
31680 On ch=5 n=68 v=119
31680 On ch=5 n=71 v=119
31895 On ch=5 n=71 v=0
31900 On ch=5 n=68 v=0
31900 On ch=5 n=59 v=0
31920 On ch=5 n=61 v=118
31920 On ch=5 n=69 v=119
31920 On ch=5 n=73 v=119
32145 On ch=5 n=73 v=0
32150 On ch=5 n=69 v=0
32150 On ch=5 n=61 v=0
32160 On ch=5 n=59 v=119
32160 On ch=5 n=71 v=120
32160 On ch=5 n=68 v=118
32320 On ch=5 n=59 v=0
32380 On ch=5 n=71 v=0
32385 On ch=5 n=68 v=0
32400 On ch=5 n=64 v=119
32400 On ch=5 n=73 v=116
32400 On ch=5 n=76 v=121
32551 On ch=5 n=73 v=0
32557 On ch=5 n=76 v=0
32572 On ch=5 n=64 v=0
32880 On ch=5 n=75 v=118
32880 On ch=5 n=71 v=120
32880 On ch=5 n=63 v=119
33048 On ch=5 n=63 v=0
33050 On ch=5 n=71 v=0
33054 On ch=5 n=75 v=0
33360 On ch=5 n=66 v=119
33360 On ch=5 n=75 v=116
33360 On ch=5 n=78 v=121
33511 On ch=5 n=75 v=0
33517 On ch=5 n=78 v=0
33532 On ch=5 n=66 v=0
33840 On ch=5 n=64 v=119
33840 On ch=5 n=76 v=118
33840 On ch=5 n=73 v=120
34008 On ch=5 n=64 v=0
34010 On ch=5 n=73 v=0
34014 On ch=5 n=76 v=0
34320 On ch=5 n=81 v=103
34756 On ch=5 n=78 v=116
34852 On ch=5 n=81 v=0
35041 On ch=5 n=64 v=93
35089 On ch=5 n=78 v=0
35286 On ch=5 n=81 v=105
35524 On ch=5 n=64 v=0
35524 On ch=5 n=78 v=104
35603 On ch=5 n=81 v=0
35760 On ch=5 n=64 v=89
35998 On ch=5 n=81 v=106
36044 On ch=5 n=78 v=0
36241 On ch=5 n=78 v=92
36244 On ch=5 n=64 v=0
36283 On ch=5 n=81 v=0
36485 On ch=5 n=64 v=91
36724 On ch=5 n=81 v=102
36784 On ch=5 n=78 v=0
36956 On ch=5 n=64 v=0
36961 On ch=5 n=80 v=94
37003 On ch=5 n=81 v=0
37200 On ch=5 n=64 v=84
37249 On ch=5 n=80 v=0
37439 On ch=5 n=81 v=104
37686 On ch=5 n=64 v=0
37686 On ch=5 n=78 v=103
37744 On ch=5 n=81 v=0
37924 On ch=5 n=64 v=78
38162 On ch=5 n=80 v=81
38226 On ch=5 n=78 v=0
38396 On ch=5 n=80 v=0
38396 On ch=5 n=64 v=0
38400 On ch=5 n=64 v=124
38440 On ch=5 n=68 v=110
38640 On ch=5 n=59 v=108
38856 On ch=5 n=64 v=0
38880 On ch=5 n=64 v=108
38891 On ch=5 n=68 v=0
38920 On ch=5 n=68 v=109
39085 On ch=5 n=64 v=0
39120 On ch=5 n=68 v=0
39120 On ch=5 n=64 v=106
39150 On ch=5 n=68 v=110
39358 On ch=5 n=59 v=0
39600 On ch=5 n=59 v=109
39806 On ch=5 n=64 v=0
39826 On ch=5 n=68 v=0
39840 On ch=5 n=64 v=109
39875 On ch=5 n=68 v=109
40060 On ch=5 n=64 v=0
40080 On ch=5 n=64 v=109
40090 On ch=5 n=68 v=0
40110 On ch=5 n=68 v=109
40293 On ch=5 n=59 v=0
40315 On ch=5 n=64 v=0
40320 On ch=5 n=68 v=0
40320 On ch=5 n=66 v=109
40360 On ch=5 n=69 v=110
40560 On ch=5 n=61 v=108
40776 On ch=5 n=66 v=0
40800 On ch=5 n=66 v=108
40811 On ch=5 n=69 v=0
40840 On ch=5 n=69 v=109
41005 On ch=5 n=66 v=0
41040 On ch=5 n=69 v=0
41040 On ch=5 n=66 v=106
41070 On ch=5 n=69 v=110
41278 On ch=5 n=61 v=0
41520 On ch=5 n=61 v=109
41726 On ch=5 n=66 v=0
41746 On ch=5 n=69 v=0
41760 On ch=5 n=66 v=109
41795 On ch=5 n=69 v=109
41980 On ch=5 n=66 v=0
42000 On ch=5 n=66 v=109
42010 On ch=5 n=69 v=0
42030 On ch=5 n=69 v=109
42213 On ch=5 n=61 v=0
42235 On ch=5 n=66 v=0
42240 On ch=5 n=69 v=0
42240 On ch=5 n=68 v=109
42280 On ch=5 n=71 v=110
42480 On ch=5 n=63 v=108
42696 On ch=5 n=68 v=0
42720 On ch=5 n=68 v=108
42731 On ch=5 n=71 v=0
42760 On ch=5 n=71 v=109
42925 On ch=5 n=68 v=0
42960 On ch=5 n=71 v=0
42960 On ch=5 n=68 v=106
42990 On ch=5 n=71 v=110
43198 On ch=5 n=63 v=0
43440 On ch=5 n=63 v=109
43646 On ch=5 n=68 v=0
43666 On ch=5 n=71 v=0
43680 On ch=5 n=68 v=109
43715 On ch=5 n=71 v=109
43900 On ch=5 n=68 v=0
43920 On ch=5 n=68 v=109
43930 On ch=5 n=71 v=0
43950 On ch=5 n=71 v=109
44133 On ch=5 n=63 v=0
44155 On ch=5 n=68 v=0
44160 On ch=5 n=71 v=0
44160 On ch=5 n=66 v=109
44200 On ch=5 n=69 v=110
44400 On ch=5 n=61 v=108
44616 On ch=5 n=66 v=0
44640 On ch=5 n=66 v=108
44651 On ch=5 n=69 v=0
44680 On ch=5 n=69 v=109
44845 On ch=5 n=66 v=0
44880 On ch=5 n=69 v=0
44880 On ch=5 n=66 v=106
44910 On ch=5 n=69 v=110
45118 On ch=5 n=61 v=0
45360 On ch=5 n=61 v=109
45566 On ch=5 n=66 v=0
45586 On ch=5 n=69 v=0
45600 On ch=5 n=66 v=109
45635 On ch=5 n=69 v=109
45820 On ch=5 n=66 v=0
45840 On ch=5 n=66 v=109
45850 On ch=5 n=69 v=0
45870 On ch=5 n=69 v=109
46053 On ch=5 n=61 v=0
46075 On ch=5 n=66 v=0
46080 On ch=5 n=69 v=0
46080 On ch=5 n=64 v=109
46120 On ch=5 n=68 v=110
46320 On ch=5 n=59 v=108
46536 On ch=5 n=64 v=0
46560 On ch=5 n=64 v=108
46571 On ch=5 n=68 v=0
46600 On ch=5 n=68 v=109
46765 On ch=5 n=64 v=0
46800 On ch=5 n=68 v=0
46800 On ch=5 n=64 v=106
46830 On ch=5 n=68 v=110
47038 On ch=5 n=59 v=0
47280 On ch=5 n=59 v=109
47486 On ch=5 n=64 v=0
47506 On ch=5 n=68 v=0
47520 On ch=5 n=64 v=109
47555 On ch=5 n=68 v=109
47740 On ch=5 n=64 v=0
47760 On ch=5 n=64 v=109
47770 On ch=5 n=68 v=0
47790 On ch=5 n=68 v=109
47973 On ch=5 n=59 v=0
47995 On ch=5 n=64 v=0
48000 On ch=5 n=68 v=0
48000 On ch=5 n=66 v=109
48040 On ch=5 n=69 v=110
48240 On ch=5 n=61 v=108
48456 On ch=5 n=66 v=0
48480 On ch=5 n=66 v=108
48491 On ch=5 n=69 v=0
48520 On ch=5 n=69 v=109
48685 On ch=5 n=66 v=0
48720 On ch=5 n=69 v=0
48720 On ch=5 n=66 v=106
48750 On ch=5 n=69 v=110
48958 On ch=5 n=61 v=0
49200 On ch=5 n=61 v=109
49406 On ch=5 n=66 v=0
49426 On ch=5 n=69 v=0
49440 On ch=5 n=66 v=109
49475 On ch=5 n=69 v=109
49660 On ch=5 n=66 v=0
49680 On ch=5 n=66 v=109
49690 On ch=5 n=69 v=0
49710 On ch=5 n=69 v=109
49893 On ch=5 n=61 v=0
49915 On ch=5 n=66 v=0
49920 On ch=5 n=69 v=0
49920 On ch=5 n=68 v=109
49960 On ch=5 n=71 v=110
50160 On ch=5 n=63 v=108
50376 On ch=5 n=68 v=0
50400 On ch=5 n=68 v=108
50411 On ch=5 n=71 v=0
50440 On ch=5 n=71 v=109
50605 On ch=5 n=68 v=0
50640 On ch=5 n=71 v=0
50640 On ch=5 n=68 v=106
50670 On ch=5 n=71 v=110
50878 On ch=5 n=63 v=0
51120 On ch=5 n=63 v=109
51326 On ch=5 n=68 v=0
51346 On ch=5 n=71 v=0
51360 On ch=5 n=68 v=109
51395 On ch=5 n=71 v=109
51580 On ch=5 n=68 v=0
51600 On ch=5 n=68 v=109
51610 On ch=5 n=71 v=0
51630 On ch=5 n=71 v=109
51813 On ch=5 n=63 v=0
51835 On ch=5 n=68 v=0
51840 On ch=5 n=71 v=0
51840 On ch=5 n=66 v=109
51880 On ch=5 n=69 v=110
52080 On ch=5 n=61 v=108
52296 On ch=5 n=66 v=0
52320 On ch=5 n=66 v=108
52331 On ch=5 n=69 v=0
52360 On ch=5 n=69 v=109
52525 On ch=5 n=66 v=0
52560 On ch=5 n=69 v=0
52560 On ch=5 n=66 v=106
52590 On ch=5 n=69 v=110
52798 On ch=5 n=61 v=0
53040 On ch=5 n=61 v=109
53246 On ch=5 n=66 v=0
53266 On ch=5 n=69 v=0
53280 On ch=5 n=66 v=109
53315 On ch=5 n=69 v=109
53500 On ch=5 n=66 v=0
53520 On ch=5 n=66 v=109
53530 On ch=5 n=69 v=0
53550 On ch=5 n=69 v=109
53733 On ch=5 n=61 v=0
53755 On ch=5 n=66 v=0
53760 On ch=5 n=69 v=0
53760 On ch=5 n=64 v=109
53800 On ch=5 n=68 v=110
54000 On ch=5 n=59 v=108
54216 On ch=5 n=64 v=0
54240 On ch=5 n=64 v=108
54251 On ch=5 n=68 v=0
54280 On ch=5 n=68 v=109
54445 On ch=5 n=64 v=0
54480 On ch=5 n=68 v=0
54480 On ch=5 n=64 v=106
54510 On ch=5 n=68 v=110
54718 On ch=5 n=59 v=0
54960 On ch=5 n=59 v=109
55166 On ch=5 n=64 v=0
55186 On ch=5 n=68 v=0
55200 On ch=5 n=64 v=109
55235 On ch=5 n=68 v=109
55420 On ch=5 n=64 v=0
55440 On ch=5 n=64 v=109
55450 On ch=5 n=68 v=0
55470 On ch=5 n=68 v=109
55653 On ch=5 n=59 v=0
55675 On ch=5 n=64 v=0
55680 On ch=5 n=68 v=0
55680 On ch=5 n=66 v=109
55720 On ch=5 n=69 v=110
55920 On ch=5 n=61 v=108
56136 On ch=5 n=66 v=0
56160 On ch=5 n=66 v=108
56171 On ch=5 n=69 v=0
56200 On ch=5 n=69 v=109
56365 On ch=5 n=66 v=0
56400 On ch=5 n=69 v=0
56400 On ch=5 n=66 v=106
56430 On ch=5 n=69 v=110
56638 On ch=5 n=61 v=0
56880 On ch=5 n=61 v=109
57086 On ch=5 n=66 v=0
57106 On ch=5 n=69 v=0
57120 On ch=5 n=66 v=109
57155 On ch=5 n=69 v=109
57340 On ch=5 n=66 v=0
57360 On ch=5 n=66 v=109
57370 On ch=5 n=69 v=0
57390 On ch=5 n=69 v=109
57573 On ch=5 n=61 v=0
57595 On ch=5 n=66 v=0
57600 On ch=5 n=69 v=0
57600 On ch=5 n=68 v=109
57640 On ch=5 n=71 v=110
57840 On ch=5 n=63 v=108
58056 On ch=5 n=68 v=0
58080 On ch=5 n=68 v=108
58091 On ch=5 n=71 v=0
58120 On ch=5 n=71 v=109
58285 On ch=5 n=68 v=0
58320 On ch=5 n=71 v=0
58320 On ch=5 n=68 v=106
58350 On ch=5 n=71 v=110
58558 On ch=5 n=63 v=0
58800 On ch=5 n=63 v=109
59006 On ch=5 n=68 v=0
59026 On ch=5 n=71 v=0
59040 On ch=5 n=68 v=109
59075 On ch=5 n=71 v=109
59260 On ch=5 n=68 v=0
59280 On ch=5 n=68 v=109
59290 On ch=5 n=71 v=0
59310 On ch=5 n=71 v=109
59493 On ch=5 n=63 v=0
59515 On ch=5 n=68 v=0
59520 On ch=5 n=71 v=0
59520 On ch=5 n=66 v=109
59560 On ch=5 n=69 v=110
59760 On ch=5 n=61 v=108
59976 On ch=5 n=66 v=0
60000 On ch=5 n=66 v=108
60011 On ch=5 n=69 v=0
60040 On ch=5 n=69 v=109
60205 On ch=5 n=66 v=0
60240 On ch=5 n=69 v=0
60240 On ch=5 n=66 v=106
60270 On ch=5 n=69 v=110
60478 On ch=5 n=61 v=0
60720 On ch=5 n=61 v=109
60926 On ch=5 n=66 v=0
60946 On ch=5 n=69 v=0
60960 On ch=5 n=66 v=109
60995 On ch=5 n=69 v=109
61180 On ch=5 n=66 v=0
61200 On ch=5 n=66 v=109
61210 On ch=5 n=69 v=0
61230 On ch=5 n=69 v=109
61413 On ch=5 n=61 v=0
61435 On ch=5 n=66 v=0
61440 On ch=5 n=69 v=0
61440 On ch=5 n=64 v=109
61480 On ch=5 n=68 v=110
61680 On ch=5 n=59 v=108
61896 On ch=5 n=64 v=0
61920 On ch=5 n=64 v=108
61931 On ch=5 n=68 v=0
61960 On ch=5 n=68 v=109
62125 On ch=5 n=64 v=0
62160 On ch=5 n=68 v=0
62160 On ch=5 n=64 v=106
62190 On ch=5 n=68 v=110
62398 On ch=5 n=59 v=0
62640 On ch=5 n=59 v=109
62846 On ch=5 n=64 v=0
62866 On ch=5 n=68 v=0
62880 On ch=5 n=64 v=109
62915 On ch=5 n=68 v=109
63100 On ch=5 n=64 v=0
63120 On ch=5 n=64 v=109
63130 On ch=5 n=68 v=0
63150 On ch=5 n=68 v=109
63333 On ch=5 n=59 v=0
63355 On ch=5 n=64 v=0
63360 On ch=5 n=68 v=0
63360 On ch=5 n=66 v=109
63400 On ch=5 n=69 v=110
63600 On ch=5 n=61 v=108
63816 On ch=5 n=66 v=0
63840 On ch=5 n=66 v=108
63851 On ch=5 n=69 v=0
63880 On ch=5 n=69 v=109
64045 On ch=5 n=66 v=0
64080 On ch=5 n=69 v=0
64080 On ch=5 n=66 v=106
64110 On ch=5 n=69 v=110
64318 On ch=5 n=61 v=0
64560 On ch=5 n=61 v=109
64766 On ch=5 n=66 v=0
64786 On ch=5 n=69 v=0
64800 On ch=5 n=66 v=109
64835 On ch=5 n=69 v=109
65020 On ch=5 n=66 v=0
65040 On ch=5 n=66 v=109
65050 On ch=5 n=69 v=0
65070 On ch=5 n=69 v=109
65253 On ch=5 n=61 v=0
65275 On ch=5 n=66 v=0
65280 On ch=5 n=69 v=0
65280 On ch=5 n=68 v=109
65320 On ch=5 n=71 v=110
65520 On ch=5 n=63 v=108
65736 On ch=5 n=68 v=0
65760 On ch=5 n=68 v=108
65771 On ch=5 n=71 v=0
65800 On ch=5 n=71 v=109
65965 On ch=5 n=68 v=0
66000 On ch=5 n=71 v=0
66000 On ch=5 n=68 v=106
66030 On ch=5 n=71 v=110
66238 On ch=5 n=63 v=0
66480 On ch=5 n=63 v=109
66686 On ch=5 n=68 v=0
66706 On ch=5 n=71 v=0
66720 On ch=5 n=68 v=109
66755 On ch=5 n=71 v=109
66940 On ch=5 n=68 v=0
66960 On ch=5 n=68 v=109
66970 On ch=5 n=71 v=0
66990 On ch=5 n=71 v=109
67173 On ch=5 n=63 v=0
67195 On ch=5 n=68 v=0
67200 On ch=5 n=71 v=0
67200 On ch=5 n=66 v=109
67240 On ch=5 n=69 v=110
67440 On ch=5 n=61 v=108
67656 On ch=5 n=66 v=0
67680 On ch=5 n=66 v=108
67691 On ch=5 n=69 v=0
67720 On ch=5 n=69 v=109
67885 On ch=5 n=66 v=0
67920 On ch=5 n=69 v=0
67920 On ch=5 n=66 v=106
67950 On ch=5 n=69 v=110
68158 On ch=5 n=61 v=0
68400 On ch=5 n=61 v=109
68606 On ch=5 n=66 v=0
68626 On ch=5 n=69 v=0
68640 On ch=5 n=66 v=109
68675 On ch=5 n=69 v=109
68860 On ch=5 n=66 v=0
68880 On ch=5 n=66 v=109
68890 On ch=5 n=69 v=0
68910 On ch=5 n=69 v=109
69093 On ch=5 n=61 v=0
69115 On ch=5 n=66 v=0
69120 On ch=5 n=69 v=0
69120 On ch=5 n=66 v=109
69160 On ch=5 n=69 v=110
69360 On ch=5 n=61 v=108
69576 On ch=5 n=66 v=0
69600 On ch=5 n=66 v=108
69611 On ch=5 n=69 v=0
69640 On ch=5 n=69 v=109
69805 On ch=5 n=66 v=0
69840 On ch=5 n=69 v=0
69840 On ch=5 n=66 v=106
69870 On ch=5 n=69 v=110
70078 On ch=5 n=61 v=0
70320 On ch=5 n=61 v=109
70526 On ch=5 n=66 v=0
70546 On ch=5 n=69 v=0
70560 On ch=5 n=66 v=109
70595 On ch=5 n=69 v=109
70780 On ch=5 n=66 v=0
70800 On ch=5 n=66 v=109
70810 On ch=5 n=69 v=0
70830 On ch=5 n=69 v=109
71013 On ch=5 n=61 v=0
71035 On ch=5 n=66 v=0
71040 On ch=5 n=69 v=0
71040 On ch=5 n=66 v=109
71080 On ch=5 n=69 v=110
71280 On ch=5 n=61 v=108
71496 On ch=5 n=66 v=0
71520 On ch=5 n=66 v=108
71531 On ch=5 n=69 v=0
71560 On ch=5 n=69 v=109
71725 On ch=5 n=66 v=0
71760 On ch=5 n=69 v=0
71760 On ch=5 n=66 v=106
71790 On ch=5 n=69 v=110
71998 On ch=5 n=61 v=0
72240 On ch=5 n=61 v=109
72446 On ch=5 n=66 v=0
72466 On ch=5 n=69 v=0
72480 On ch=5 n=66 v=109
72515 On ch=5 n=69 v=109
72700 On ch=5 n=66 v=0
72720 On ch=5 n=66 v=109
72730 On ch=5 n=69 v=0
72750 On ch=5 n=69 v=109
72933 On ch=5 n=61 v=0
72955 On ch=5 n=66 v=0
72960 On ch=5 n=69 v=0
72960 On ch=5 n=66 v=109
73000 On ch=5 n=69 v=110
73200 On ch=5 n=61 v=108
73416 On ch=5 n=66 v=0
73440 On ch=5 n=66 v=108
73451 On ch=5 n=69 v=0
73480 On ch=5 n=69 v=109
73645 On ch=5 n=66 v=0
73680 On ch=5 n=69 v=0
73680 On ch=5 n=66 v=106
73710 On ch=5 n=69 v=110
73918 On ch=5 n=61 v=0
74160 On ch=5 n=61 v=109
74366 On ch=5 n=66 v=0
74386 On ch=5 n=69 v=0
74400 On ch=5 n=66 v=109
74435 On ch=5 n=69 v=109
74620 On ch=5 n=66 v=0
74640 On ch=5 n=66 v=109
74650 On ch=5 n=69 v=0
74670 On ch=5 n=69 v=109
74853 On ch=5 n=61 v=0
74875 On ch=5 n=66 v=0
74880 On ch=5 n=69 v=0
74880 On ch=5 n=64 v=109
74920 On ch=5 n=68 v=110
75120 On ch=5 n=59 v=108
75336 On ch=5 n=64 v=0
75360 On ch=5 n=64 v=108
75371 On ch=5 n=68 v=0
75400 On ch=5 n=68 v=109
75565 On ch=5 n=64 v=0
75600 On ch=5 n=68 v=0
75600 On ch=5 n=64 v=106
75630 On ch=5 n=68 v=110
75838 On ch=5 n=59 v=0
76080 On ch=5 n=59 v=109
76286 On ch=5 n=64 v=0
76306 On ch=5 n=68 v=0
76320 On ch=5 n=64 v=109
76355 On ch=5 n=68 v=109
76540 On ch=5 n=64 v=0
76560 On ch=5 n=64 v=109
76570 On ch=5 n=68 v=0
76590 On ch=5 n=68 v=109
76773 On ch=5 n=59 v=0
76795 On ch=5 n=64 v=0
76800 On ch=5 n=68 v=0
76800 On ch=5 n=66 v=109
76840 On ch=5 n=69 v=110
77040 On ch=5 n=61 v=108
77256 On ch=5 n=66 v=0
77280 On ch=5 n=66 v=108
77291 On ch=5 n=69 v=0
77320 On ch=5 n=69 v=109
77485 On ch=5 n=66 v=0
77520 On ch=5 n=69 v=0
77520 On ch=5 n=66 v=106
77550 On ch=5 n=69 v=110
77758 On ch=5 n=61 v=0
78000 On ch=5 n=61 v=109
78206 On ch=5 n=66 v=0
78226 On ch=5 n=69 v=0
78240 On ch=5 n=66 v=109
78275 On ch=5 n=69 v=109
78460 On ch=5 n=66 v=0
78480 On ch=5 n=66 v=109
78490 On ch=5 n=69 v=0
78510 On ch=5 n=69 v=109
78693 On ch=5 n=61 v=0
78715 On ch=5 n=66 v=0
78720 On ch=5 n=69 v=0
78720 On ch=5 n=68 v=109
78760 On ch=5 n=71 v=110
78960 On ch=5 n=63 v=108
79176 On ch=5 n=68 v=0
79200 On ch=5 n=68 v=108
79211 On ch=5 n=71 v=0
79240 On ch=5 n=71 v=109
79405 On ch=5 n=68 v=0
79440 On ch=5 n=71 v=0
79440 On ch=5 n=68 v=106
79470 On ch=5 n=71 v=110
79678 On ch=5 n=63 v=0
79920 On ch=5 n=63 v=109
80126 On ch=5 n=68 v=0
80146 On ch=5 n=71 v=0
80160 On ch=5 n=68 v=109
80195 On ch=5 n=71 v=109
80380 On ch=5 n=68 v=0
80400 On ch=5 n=68 v=109
80410 On ch=5 n=71 v=0
80430 On ch=5 n=71 v=109
80613 On ch=5 n=63 v=0
80635 On ch=5 n=68 v=0
80640 On ch=5 n=71 v=0
80640 On ch=5 n=66 v=109
80680 On ch=5 n=69 v=110
80880 On ch=5 n=61 v=108
81096 On ch=5 n=66 v=0
81120 On ch=5 n=66 v=108
81131 On ch=5 n=69 v=0
81160 On ch=5 n=69 v=109
81325 On ch=5 n=66 v=0
81360 On ch=5 n=69 v=0
81360 On ch=5 n=66 v=106
81390 On ch=5 n=69 v=110
81598 On ch=5 n=61 v=0
81840 On ch=5 n=61 v=109
82046 On ch=5 n=66 v=0
82066 On ch=5 n=69 v=0
82080 On ch=5 n=66 v=109
82115 On ch=5 n=69 v=109
82300 On ch=5 n=66 v=0
82320 On ch=5 n=66 v=109
82330 On ch=5 n=69 v=0
82350 On ch=5 n=69 v=109
82533 On ch=5 n=61 v=0
82555 On ch=5 n=66 v=0
82560 On ch=5 n=69 v=0
82560 On ch=5 n=64 v=109
82600 On ch=5 n=68 v=110
82800 On ch=5 n=59 v=108
83016 On ch=5 n=64 v=0
83040 On ch=5 n=64 v=108
83051 On ch=5 n=68 v=0
83080 On ch=5 n=68 v=109
83245 On ch=5 n=64 v=0
83280 On ch=5 n=68 v=0
83280 On ch=5 n=64 v=106
83310 On ch=5 n=68 v=110
83518 On ch=5 n=59 v=0
83760 On ch=5 n=59 v=109
83966 On ch=5 n=64 v=0
83986 On ch=5 n=68 v=0
84000 On ch=5 n=64 v=109
84035 On ch=5 n=68 v=109
84220 On ch=5 n=64 v=0
84240 On ch=5 n=64 v=109
84250 On ch=5 n=68 v=0
84270 On ch=5 n=68 v=109
84453 On ch=5 n=59 v=0
84475 On ch=5 n=64 v=0
84480 On ch=5 n=68 v=0
84480 On ch=5 n=66 v=109
84520 On ch=5 n=69 v=110
84720 On ch=5 n=61 v=108
84936 On ch=5 n=66 v=0
84960 On ch=5 n=66 v=108
84971 On ch=5 n=69 v=0
85000 On ch=5 n=69 v=109
85165 On ch=5 n=66 v=0
85200 On ch=5 n=69 v=0
85200 On ch=5 n=66 v=106
85230 On ch=5 n=69 v=110
85438 On ch=5 n=61 v=0
85680 On ch=5 n=61 v=109
85886 On ch=5 n=66 v=0
85906 On ch=5 n=69 v=0
85920 On ch=5 n=66 v=109
85955 On ch=5 n=69 v=109
86140 On ch=5 n=66 v=0
86160 On ch=5 n=66 v=109
86170 On ch=5 n=69 v=0
86190 On ch=5 n=69 v=109
86373 On ch=5 n=61 v=0
86395 On ch=5 n=66 v=0
86400 On ch=5 n=69 v=0
86400 On ch=5 n=68 v=109
86440 On ch=5 n=71 v=110
86640 On ch=5 n=63 v=108
86856 On ch=5 n=68 v=0
86880 On ch=5 n=68 v=108
86891 On ch=5 n=71 v=0
86920 On ch=5 n=71 v=109
87085 On ch=5 n=68 v=0
87120 On ch=5 n=71 v=0
87120 On ch=5 n=68 v=106
87150 On ch=5 n=71 v=110
87358 On ch=5 n=63 v=0
87600 On ch=5 n=63 v=109
87806 On ch=5 n=68 v=0
87826 On ch=5 n=71 v=0
87840 On ch=5 n=68 v=109
87875 On ch=5 n=71 v=109
88060 On ch=5 n=68 v=0
88080 On ch=5 n=68 v=109
88090 On ch=5 n=71 v=0
88110 On ch=5 n=71 v=109
88293 On ch=5 n=63 v=0
88315 On ch=5 n=68 v=0
88320 On ch=5 n=71 v=0
88320 On ch=5 n=66 v=109
88360 On ch=5 n=69 v=110
88560 On ch=5 n=61 v=108
88776 On ch=5 n=66 v=0
88800 On ch=5 n=66 v=108
88811 On ch=5 n=69 v=0
88840 On ch=5 n=69 v=109
89005 On ch=5 n=66 v=0
89040 On ch=5 n=69 v=0
89040 On ch=5 n=66 v=106
89070 On ch=5 n=69 v=110
89278 On ch=5 n=61 v=0
89520 On ch=5 n=61 v=109
89726 On ch=5 n=66 v=0
89746 On ch=5 n=69 v=0
89760 On ch=5 n=66 v=109
89795 On ch=5 n=69 v=109
89980 On ch=5 n=66 v=0
90000 On ch=5 n=66 v=109
90010 On ch=5 n=69 v=0
90030 On ch=5 n=69 v=109
90213 On ch=5 n=61 v=0
90235 On ch=5 n=66 v=0
90240 On ch=5 n=69 v=0
90240 On ch=5 n=64 v=109
90280 On ch=5 n=68 v=110
90480 On ch=5 n=59 v=108
90696 On ch=5 n=64 v=0
90720 On ch=5 n=64 v=108
90731 On ch=5 n=68 v=0
90760 On ch=5 n=68 v=109
90925 On ch=5 n=64 v=0
90960 On ch=5 n=68 v=0
90960 On ch=5 n=64 v=106
90990 On ch=5 n=68 v=110
91198 On ch=5 n=59 v=0
91440 On ch=5 n=59 v=109
91646 On ch=5 n=64 v=0
91666 On ch=5 n=68 v=0
91680 On ch=5 n=64 v=109
91715 On ch=5 n=68 v=109
91900 On ch=5 n=64 v=0
91920 On ch=5 n=64 v=109
91930 On ch=5 n=68 v=0
91950 On ch=5 n=68 v=109
92133 On ch=5 n=59 v=0
92155 On ch=5 n=64 v=0
92160 On ch=5 n=68 v=0
92160 On ch=5 n=66 v=109
92200 On ch=5 n=69 v=110
92400 On ch=5 n=61 v=108
92616 On ch=5 n=66 v=0
92640 On ch=5 n=66 v=108
92651 On ch=5 n=69 v=0
92680 On ch=5 n=69 v=109
92845 On ch=5 n=66 v=0
92880 On ch=5 n=69 v=0
92880 On ch=5 n=66 v=106
92910 On ch=5 n=69 v=110
93118 On ch=5 n=61 v=0
93360 On ch=5 n=61 v=109
93566 On ch=5 n=66 v=0
93586 On ch=5 n=69 v=0
93600 On ch=5 n=66 v=109
93635 On ch=5 n=69 v=109
93820 On ch=5 n=66 v=0
93840 On ch=5 n=66 v=109
93850 On ch=5 n=69 v=0
93870 On ch=5 n=69 v=109
94053 On ch=5 n=61 v=0
94075 On ch=5 n=66 v=0
94080 On ch=5 n=69 v=0
94080 On ch=5 n=68 v=109
94120 On ch=5 n=71 v=110
94320 On ch=5 n=63 v=108
94536 On ch=5 n=68 v=0
94560 On ch=5 n=68 v=108
94571 On ch=5 n=71 v=0
94600 On ch=5 n=71 v=109
94765 On ch=5 n=68 v=0
94800 On ch=5 n=71 v=0
94800 On ch=5 n=68 v=106
94830 On ch=5 n=71 v=110
95038 On ch=5 n=63 v=0
95280 On ch=5 n=63 v=109
95486 On ch=5 n=68 v=0
95506 On ch=5 n=71 v=0
95520 On ch=5 n=68 v=109
95555 On ch=5 n=71 v=109
95740 On ch=5 n=68 v=0
95760 On ch=5 n=68 v=109
95770 On ch=5 n=71 v=0
95790 On ch=5 n=71 v=109
95973 On ch=5 n=63 v=0
95995 On ch=5 n=68 v=0
96000 On ch=5 n=71 v=0
96000 On ch=5 n=66 v=109
96040 On ch=5 n=69 v=110
96240 On ch=5 n=61 v=108
96456 On ch=5 n=66 v=0
96480 On ch=5 n=66 v=108
96491 On ch=5 n=69 v=0
96520 On ch=5 n=69 v=109
96685 On ch=5 n=66 v=0
96720 On ch=5 n=69 v=0
96720 On ch=5 n=66 v=106
96750 On ch=5 n=69 v=110
96958 On ch=5 n=61 v=0
97200 On ch=5 n=61 v=109
97406 On ch=5 n=66 v=0
97426 On ch=5 n=69 v=0
97440 On ch=5 n=66 v=109
97475 On ch=5 n=69 v=109
97660 On ch=5 n=66 v=0
97680 On ch=5 n=66 v=109
97690 On ch=5 n=69 v=0
97710 On ch=5 n=69 v=109
97893 On ch=5 n=61 v=0
97915 On ch=5 n=66 v=0
97920 On ch=5 n=69 v=0
97920 On ch=5 n=64 v=109
97960 On ch=5 n=68 v=110
98160 On ch=5 n=59 v=108
98376 On ch=5 n=64 v=0
98400 On ch=5 n=64 v=108
98411 On ch=5 n=68 v=0
98440 On ch=5 n=68 v=109
98605 On ch=5 n=64 v=0
98640 On ch=5 n=68 v=0
98640 On ch=5 n=64 v=106
98670 On ch=5 n=68 v=110
98878 On ch=5 n=59 v=0
99120 On ch=5 n=59 v=109
99326 On ch=5 n=64 v=0
99346 On ch=5 n=68 v=0
99360 On ch=5 n=64 v=109
99395 On ch=5 n=68 v=109
99580 On ch=5 n=64 v=0
99600 On ch=5 n=64 v=109
99610 On ch=5 n=68 v=0
99630 On ch=5 n=68 v=109
99813 On ch=5 n=59 v=0
99835 On ch=5 n=64 v=0
99840 On ch=5 n=68 v=0
99840 On ch=5 n=66 v=109
99880 On ch=5 n=69 v=110
100080 On ch=5 n=61 v=108
100296 On ch=5 n=66 v=0
100320 On ch=5 n=66 v=108
100331 On ch=5 n=69 v=0
100360 On ch=5 n=69 v=109
100525 On ch=5 n=66 v=0
100560 On ch=5 n=69 v=0
100560 On ch=5 n=66 v=106
100590 On ch=5 n=69 v=110
100798 On ch=5 n=61 v=0
101040 On ch=5 n=61 v=109
101246 On ch=5 n=66 v=0
101266 On ch=5 n=69 v=0
101280 On ch=5 n=66 v=109
101315 On ch=5 n=69 v=109
101500 On ch=5 n=66 v=0
101520 On ch=5 n=66 v=109
101530 On ch=5 n=69 v=0
101550 On ch=5 n=69 v=109
101733 On ch=5 n=61 v=0
101755 On ch=5 n=66 v=0
101760 On ch=5 n=69 v=0
101760 On ch=5 n=68 v=109
101800 On ch=5 n=71 v=110
102000 On ch=5 n=63 v=108
102216 On ch=5 n=68 v=0
102240 On ch=5 n=68 v=108
102251 On ch=5 n=71 v=0
102280 On ch=5 n=71 v=109
102445 On ch=5 n=68 v=0
102480 On ch=5 n=71 v=0
102480 On ch=5 n=68 v=106
102510 On ch=5 n=71 v=110
102718 On ch=5 n=63 v=0
102960 On ch=5 n=63 v=109
103166 On ch=5 n=68 v=0
103186 On ch=5 n=71 v=0
103200 On ch=5 n=68 v=109
103235 On ch=5 n=71 v=109
103420 On ch=5 n=68 v=0
103440 On ch=5 n=68 v=109
103450 On ch=5 n=71 v=0
103470 On ch=5 n=71 v=109
103653 On ch=5 n=63 v=0
103675 On ch=5 n=68 v=0
103680 On ch=5 n=71 v=0
103680 On ch=5 n=66 v=109
103720 On ch=5 n=69 v=110
103920 On ch=5 n=61 v=108
104136 On ch=5 n=66 v=0
104160 On ch=5 n=66 v=108
104171 On ch=5 n=69 v=0
104200 On ch=5 n=69 v=109
104365 On ch=5 n=66 v=0
104400 On ch=5 n=69 v=0
104400 On ch=5 n=66 v=106
104430 On ch=5 n=69 v=110
104638 On ch=5 n=61 v=0
104880 On ch=5 n=61 v=109
105086 On ch=5 n=66 v=0
105106 On ch=5 n=69 v=0
105120 On ch=5 n=66 v=109
105155 On ch=5 n=69 v=109
105340 On ch=5 n=66 v=0
105360 On ch=5 n=66 v=109
105370 On ch=5 n=69 v=0
105390 On ch=5 n=69 v=109
105573 On ch=5 n=61 v=0
105595 On ch=5 n=66 v=0
105600 On ch=5 n=69 v=0
105600 On ch=5 n=64 v=109
105640 On ch=5 n=68 v=110
105840 On ch=5 n=59 v=108
106056 On ch=5 n=64 v=0
106080 On ch=5 n=64 v=108
106091 On ch=5 n=68 v=0
106120 On ch=5 n=68 v=109
106285 On ch=5 n=64 v=0
106320 On ch=5 n=68 v=0
106320 On ch=5 n=64 v=106
106350 On ch=5 n=68 v=110
106558 On ch=5 n=59 v=0
106800 On ch=5 n=59 v=109
107006 On ch=5 n=64 v=0
107026 On ch=5 n=68 v=0
107040 On ch=5 n=64 v=109
107075 On ch=5 n=68 v=109
107260 On ch=5 n=64 v=0
107280 On ch=5 n=64 v=109
107290 On ch=5 n=68 v=0
107310 On ch=5 n=68 v=109
107493 On ch=5 n=59 v=0
107515 On ch=5 n=64 v=0
107520 On ch=5 n=68 v=0
107520 On ch=5 n=66 v=109
107560 On ch=5 n=69 v=110
107760 On ch=5 n=61 v=108
107976 On ch=5 n=66 v=0
108000 On ch=5 n=66 v=108
108011 On ch=5 n=69 v=0
108040 On ch=5 n=69 v=109
108205 On ch=5 n=66 v=0
108240 On ch=5 n=69 v=0
108240 On ch=5 n=66 v=106
108270 On ch=5 n=69 v=110
108478 On ch=5 n=61 v=0
108720 On ch=5 n=61 v=109
108926 On ch=5 n=66 v=0
108946 On ch=5 n=69 v=0
108960 On ch=5 n=66 v=109
108995 On ch=5 n=69 v=109
109180 On ch=5 n=66 v=0
109200 On ch=5 n=66 v=109
109210 On ch=5 n=69 v=0
109230 On ch=5 n=69 v=109
109413 On ch=5 n=61 v=0
109435 On ch=5 n=66 v=0
109440 On ch=5 n=69 v=0
109440 On ch=5 n=68 v=109
109480 On ch=5 n=71 v=110
109680 On ch=5 n=63 v=108
109896 On ch=5 n=68 v=0
109920 On ch=5 n=68 v=108
109931 On ch=5 n=71 v=0
109960 On ch=5 n=71 v=109
110125 On ch=5 n=68 v=0
110160 On ch=5 n=71 v=0
110160 On ch=5 n=68 v=106
110190 On ch=5 n=71 v=110
110398 On ch=5 n=63 v=0
110640 On ch=5 n=63 v=109
110846 On ch=5 n=68 v=0
110866 On ch=5 n=71 v=0
110880 On ch=5 n=68 v=109
110915 On ch=5 n=71 v=109
111100 On ch=5 n=68 v=0
111120 On ch=5 n=68 v=109
111130 On ch=5 n=71 v=0
111150 On ch=5 n=71 v=109
111333 On ch=5 n=63 v=0
111355 On ch=5 n=68 v=0
111360 On ch=5 n=71 v=0
111360 On ch=5 n=66 v=109
111400 On ch=5 n=69 v=110
111600 On ch=5 n=61 v=108
111816 On ch=5 n=66 v=0
111840 On ch=5 n=66 v=108
111851 On ch=5 n=69 v=0
111880 On ch=5 n=69 v=109
112045 On ch=5 n=66 v=0
112080 On ch=5 n=69 v=0
112080 On ch=5 n=66 v=106
112110 On ch=5 n=69 v=110
112318 On ch=5 n=61 v=0
112560 On ch=5 n=61 v=109
112766 On ch=5 n=66 v=0
112786 On ch=5 n=69 v=0
112800 On ch=5 n=66 v=109
112835 On ch=5 n=69 v=109
113020 On ch=5 n=66 v=0
113040 On ch=5 n=66 v=109
113050 On ch=5 n=69 v=0
113070 On ch=5 n=69 v=109
113253 On ch=5 n=61 v=0
113275 On ch=5 n=66 v=0
113280 On ch=5 n=69 v=0
113280 On ch=5 n=64 v=109
113320 On ch=5 n=68 v=110
113520 On ch=5 n=59 v=108
113736 On ch=5 n=64 v=0
113760 On ch=5 n=64 v=108
113771 On ch=5 n=68 v=0
113800 On ch=5 n=68 v=109
113965 On ch=5 n=64 v=0
114000 On ch=5 n=68 v=0
114000 On ch=5 n=64 v=106
114030 On ch=5 n=68 v=110
114238 On ch=5 n=59 v=0
114480 On ch=5 n=59 v=109
114686 On ch=5 n=64 v=0
114706 On ch=5 n=68 v=0
114720 On ch=5 n=64 v=109
114755 On ch=5 n=68 v=109
114940 On ch=5 n=64 v=0
114960 On ch=5 n=64 v=109
114970 On ch=5 n=68 v=0
114990 On ch=5 n=68 v=109
115173 On ch=5 n=59 v=0
115195 On ch=5 n=64 v=0
115200 On ch=5 n=68 v=0
115200 On ch=5 n=66 v=109
115240 On ch=5 n=69 v=110
115440 On ch=5 n=61 v=108
115656 On ch=5 n=66 v=0
115680 On ch=5 n=66 v=108
115691 On ch=5 n=69 v=0
115720 On ch=5 n=69 v=109
115885 On ch=5 n=66 v=0
115920 On ch=5 n=69 v=0
115920 On ch=5 n=66 v=106
115950 On ch=5 n=69 v=110
116158 On ch=5 n=61 v=0
116400 On ch=5 n=61 v=109
116606 On ch=5 n=66 v=0
116626 On ch=5 n=69 v=0
116640 On ch=5 n=66 v=109
116675 On ch=5 n=69 v=109
116860 On ch=5 n=66 v=0
116880 On ch=5 n=66 v=109
116890 On ch=5 n=69 v=0
116910 On ch=5 n=69 v=109
117093 On ch=5 n=61 v=0
117115 On ch=5 n=66 v=0
117120 On ch=5 n=69 v=0
117120 On ch=5 n=68 v=109
117160 On ch=5 n=71 v=110
117360 On ch=5 n=63 v=108
117576 On ch=5 n=68 v=0
117600 On ch=5 n=68 v=108
117611 On ch=5 n=71 v=0
117640 On ch=5 n=71 v=109
117805 On ch=5 n=68 v=0
117840 On ch=5 n=71 v=0
117840 On ch=5 n=68 v=106
117870 On ch=5 n=71 v=110
118078 On ch=5 n=63 v=0
118320 On ch=5 n=63 v=109
118526 On ch=5 n=68 v=0
118546 On ch=5 n=71 v=0
118560 On ch=5 n=68 v=109
118595 On ch=5 n=71 v=109
118780 On ch=5 n=68 v=0
118800 On ch=5 n=68 v=109
118810 On ch=5 n=71 v=0
118830 On ch=5 n=71 v=109
119013 On ch=5 n=63 v=0
119035 On ch=5 n=68 v=0
119040 On ch=5 n=71 v=0
119040 On ch=5 n=66 v=109
119080 On ch=5 n=69 v=110
119280 On ch=5 n=61 v=108
119496 On ch=5 n=66 v=0
119520 On ch=5 n=66 v=108
119531 On ch=5 n=69 v=0
119560 On ch=5 n=69 v=109
119725 On ch=5 n=66 v=0
119760 On ch=5 n=69 v=0
119760 On ch=5 n=66 v=106
119790 On ch=5 n=69 v=110
119998 On ch=5 n=61 v=0
120240 On ch=5 n=61 v=109
120446 On ch=5 n=66 v=0
120466 On ch=5 n=69 v=0
120480 On ch=5 n=66 v=109
120515 On ch=5 n=69 v=109
120700 On ch=5 n=66 v=0
120720 On ch=5 n=66 v=109
120730 On ch=5 n=69 v=0
120750 On ch=5 n=69 v=109
120933 On ch=5 n=61 v=0
120955 On ch=5 n=66 v=0
120960 On ch=5 n=69 v=0
120960 On ch=5 n=64 v=109
121000 On ch=5 n=68 v=110
121200 On ch=5 n=59 v=108
121416 On ch=5 n=64 v=0
121440 On ch=5 n=64 v=108
121451 On ch=5 n=68 v=0
121480 On ch=5 n=68 v=109
121645 On ch=5 n=64 v=0
121680 On ch=5 n=68 v=0
121680 On ch=5 n=64 v=106
121710 On ch=5 n=68 v=110
121918 On ch=5 n=59 v=0
122160 On ch=5 n=59 v=109
122366 On ch=5 n=64 v=0
122386 On ch=5 n=68 v=0
122400 On ch=5 n=64 v=109
122435 On ch=5 n=68 v=109
122620 On ch=5 n=64 v=0
122640 On ch=5 n=64 v=109
122650 On ch=5 n=68 v=0
122670 On ch=5 n=68 v=109
122853 On ch=5 n=59 v=0
122875 On ch=5 n=64 v=0
122880 On ch=5 n=68 v=0
122880 On ch=5 n=66 v=109
122920 On ch=5 n=69 v=110
123120 On ch=5 n=61 v=108
123336 On ch=5 n=66 v=0
123360 On ch=5 n=66 v=108
123371 On ch=5 n=69 v=0
123400 On ch=5 n=69 v=109
123565 On ch=5 n=66 v=0
123600 On ch=5 n=69 v=0
123600 On ch=5 n=66 v=106
123630 On ch=5 n=69 v=110
123838 On ch=5 n=61 v=0
124080 On ch=5 n=61 v=109
124286 On ch=5 n=66 v=0
124306 On ch=5 n=69 v=0
124320 On ch=5 n=66 v=109
124355 On ch=5 n=69 v=109
124540 On ch=5 n=66 v=0
124560 On ch=5 n=66 v=109
124570 On ch=5 n=69 v=0
124590 On ch=5 n=69 v=109
124773 On ch=5 n=61 v=0
124795 On ch=5 n=66 v=0
124800 On ch=5 n=69 v=0
124800 On ch=5 n=68 v=109
124840 On ch=5 n=71 v=110
125040 On ch=5 n=63 v=108
125256 On ch=5 n=68 v=0
125280 On ch=5 n=68 v=108
125291 On ch=5 n=71 v=0
125320 On ch=5 n=71 v=109
125485 On ch=5 n=68 v=0
125520 On ch=5 n=71 v=0
125520 On ch=5 n=68 v=106
125550 On ch=5 n=71 v=110
125758 On ch=5 n=63 v=0
126000 On ch=5 n=63 v=109
126206 On ch=5 n=68 v=0
126226 On ch=5 n=71 v=0
126240 On ch=5 n=68 v=109
126275 On ch=5 n=71 v=109
126460 On ch=5 n=68 v=0
126480 On ch=5 n=68 v=109
126490 On ch=5 n=71 v=0
126510 On ch=5 n=71 v=109
126693 On ch=5 n=63 v=0
126715 On ch=5 n=68 v=0
126720 On ch=5 n=71 v=0
126720 On ch=5 n=66 v=109
126760 On ch=5 n=69 v=110
126960 On ch=5 n=61 v=108
127176 On ch=5 n=66 v=0
127200 On ch=5 n=66 v=108
127211 On ch=5 n=69 v=0
127240 On ch=5 n=69 v=109
127405 On ch=5 n=66 v=0
127440 On ch=5 n=69 v=0
127440 On ch=5 n=66 v=106
127470 On ch=5 n=69 v=110
127678 On ch=5 n=61 v=0
127920 On ch=5 n=61 v=109
128126 On ch=5 n=66 v=0
128146 On ch=5 n=69 v=0
128160 On ch=5 n=66 v=109
128195 On ch=5 n=69 v=109
128380 On ch=5 n=66 v=0
128400 On ch=5 n=66 v=109
128410 On ch=5 n=69 v=0
128430 On ch=5 n=69 v=109
128613 On ch=5 n=61 v=0
128635 On ch=5 n=66 v=0
128640 On ch=5 n=69 v=0
128640 On ch=5 n=66 v=109
128680 On ch=5 n=69 v=110
128880 On ch=5 n=61 v=108
129096 On ch=5 n=66 v=0
129120 On ch=5 n=66 v=108
129131 On ch=5 n=69 v=0
129160 On ch=5 n=69 v=109
129325 On ch=5 n=66 v=0
129360 On ch=5 n=69 v=0
129360 On ch=5 n=66 v=106
129390 On ch=5 n=69 v=110
129598 On ch=5 n=61 v=0
129840 On ch=5 n=61 v=109
130046 On ch=5 n=66 v=0
130066 On ch=5 n=69 v=0
130080 On ch=5 n=66 v=109
130115 On ch=5 n=69 v=109
130300 On ch=5 n=66 v=0
130320 On ch=5 n=66 v=109
130330 On ch=5 n=69 v=0
130350 On ch=5 n=69 v=109
130533 On ch=5 n=61 v=0
130555 On ch=5 n=66 v=0
130560 On ch=5 n=69 v=0
130560 On ch=5 n=66 v=109
130600 On ch=5 n=69 v=110
130800 On ch=5 n=61 v=108
131016 On ch=5 n=66 v=0
131040 On ch=5 n=66 v=108
131051 On ch=5 n=69 v=0
131080 On ch=5 n=69 v=109
131245 On ch=5 n=66 v=0
131280 On ch=5 n=69 v=0
131280 On ch=5 n=66 v=106
131310 On ch=5 n=69 v=110
131518 On ch=5 n=61 v=0
131760 On ch=5 n=61 v=109
131966 On ch=5 n=66 v=0
131986 On ch=5 n=69 v=0
132000 On ch=5 n=66 v=109
132035 On ch=5 n=69 v=109
132220 On ch=5 n=66 v=0
132240 On ch=5 n=66 v=109
132250 On ch=5 n=69 v=0
132270 On ch=5 n=69 v=109
132453 On ch=5 n=61 v=0
132475 On ch=5 n=66 v=0
132480 On ch=5 n=69 v=0
132480 On ch=5 n=66 v=109
132520 On ch=5 n=69 v=110
132720 On ch=5 n=61 v=108
132936 On ch=5 n=66 v=0
132960 On ch=5 n=66 v=108
132971 On ch=5 n=69 v=0
133000 On ch=5 n=69 v=109
133165 On ch=5 n=66 v=0
133200 On ch=5 n=69 v=0
133200 On ch=5 n=66 v=106
133230 On ch=5 n=69 v=110
133438 On ch=5 n=61 v=0
133680 On ch=5 n=61 v=109
133886 On ch=5 n=66 v=0
133906 On ch=5 n=69 v=0
133920 On ch=5 n=66 v=109
133955 On ch=5 n=69 v=109
134140 On ch=5 n=66 v=0
134160 On ch=5 n=66 v=109
134170 On ch=5 n=69 v=0
134190 On ch=5 n=69 v=109
134373 On ch=5 n=61 v=0
134395 On ch=5 n=66 v=0
134400 On ch=5 n=69 v=0
134400 On ch=5 n=64 v=109
134440 On ch=5 n=68 v=110
134640 On ch=5 n=59 v=108
134856 On ch=5 n=64 v=0
134880 On ch=5 n=64 v=108
134891 On ch=5 n=68 v=0
134920 On ch=5 n=68 v=109
135085 On ch=5 n=64 v=0
135120 On ch=5 n=68 v=0
135120 On ch=5 n=64 v=106
135150 On ch=5 n=68 v=110
135358 On ch=5 n=59 v=0
135600 On ch=5 n=59 v=109
135806 On ch=5 n=64 v=0
135826 On ch=5 n=68 v=0
135840 On ch=5 n=64 v=109
135875 On ch=5 n=68 v=109
136060 On ch=5 n=64 v=0
136080 On ch=5 n=64 v=109
136090 On ch=5 n=68 v=0
136110 On ch=5 n=68 v=109
136293 On ch=5 n=59 v=0
136315 On ch=5 n=64 v=0
136320 On ch=5 n=68 v=0
136320 On ch=5 n=66 v=109
136360 On ch=5 n=69 v=110
136560 On ch=5 n=61 v=108
136776 On ch=5 n=66 v=0
136800 On ch=5 n=66 v=108
136811 On ch=5 n=69 v=0
136840 On ch=5 n=69 v=109
137005 On ch=5 n=66 v=0
137040 On ch=5 n=69 v=0
137040 On ch=5 n=66 v=106
137070 On ch=5 n=69 v=110
137278 On ch=5 n=61 v=0
137520 On ch=5 n=61 v=109
137726 On ch=5 n=66 v=0
137746 On ch=5 n=69 v=0
137760 On ch=5 n=66 v=109
137795 On ch=5 n=69 v=109
137980 On ch=5 n=66 v=0
138000 On ch=5 n=66 v=109
138010 On ch=5 n=69 v=0
138030 On ch=5 n=69 v=109
138213 On ch=5 n=61 v=0
138235 On ch=5 n=66 v=0
138240 On ch=5 n=69 v=0
138240 On ch=5 n=68 v=109
138280 On ch=5 n=71 v=110
138480 On ch=5 n=63 v=108
138696 On ch=5 n=68 v=0
138720 On ch=5 n=68 v=108
138731 On ch=5 n=71 v=0
138760 On ch=5 n=71 v=109
138925 On ch=5 n=68 v=0
138960 On ch=5 n=71 v=0
138960 On ch=5 n=68 v=106
138990 On ch=5 n=71 v=110
139198 On ch=5 n=63 v=0
139440 On ch=5 n=63 v=109
139646 On ch=5 n=68 v=0
139666 On ch=5 n=71 v=0
139680 On ch=5 n=68 v=109
139715 On ch=5 n=71 v=109
139900 On ch=5 n=68 v=0
139920 On ch=5 n=68 v=109
139930 On ch=5 n=71 v=0
139950 On ch=5 n=71 v=109
140133 On ch=5 n=63 v=0
140155 On ch=5 n=68 v=0
140160 On ch=5 n=71 v=0
140160 On ch=5 n=66 v=109
140200 On ch=5 n=69 v=110
140400 On ch=5 n=61 v=108
140616 On ch=5 n=66 v=0
140640 On ch=5 n=66 v=108
140651 On ch=5 n=69 v=0
140680 On ch=5 n=69 v=109
140845 On ch=5 n=66 v=0
140880 On ch=5 n=69 v=0
140880 On ch=5 n=66 v=106
140910 On ch=5 n=69 v=110
141118 On ch=5 n=61 v=0
141360 On ch=5 n=61 v=109
141566 On ch=5 n=66 v=0
141586 On ch=5 n=69 v=0
141600 On ch=5 n=66 v=109
141635 On ch=5 n=69 v=109
141820 On ch=5 n=66 v=0
141840 On ch=5 n=66 v=109
141850 On ch=5 n=69 v=0
141870 On ch=5 n=69 v=109
142053 On ch=5 n=61 v=0
142075 On ch=5 n=66 v=0
142080 On ch=5 n=69 v=0
142080 On ch=5 n=64 v=109
142120 On ch=5 n=68 v=110
142320 On ch=5 n=59 v=108
142536 On ch=5 n=64 v=0
142560 On ch=5 n=64 v=108
142571 On ch=5 n=68 v=0
142600 On ch=5 n=68 v=109
142765 On ch=5 n=64 v=0
142800 On ch=5 n=68 v=0
142800 On ch=5 n=64 v=106
142830 On ch=5 n=68 v=110
143038 On ch=5 n=59 v=0
143280 On ch=5 n=59 v=109
143486 On ch=5 n=64 v=0
143506 On ch=5 n=68 v=0
143520 On ch=5 n=64 v=109
143555 On ch=5 n=68 v=109
143740 On ch=5 n=64 v=0
143760 On ch=5 n=64 v=109
143770 On ch=5 n=68 v=0
143790 On ch=5 n=68 v=109
143973 On ch=5 n=59 v=0
143995 On ch=5 n=64 v=0
144000 On ch=5 n=68 v=0
144000 On ch=5 n=66 v=109
144040 On ch=5 n=69 v=110
144240 On ch=5 n=61 v=108
144456 On ch=5 n=66 v=0
144480 On ch=5 n=66 v=108
144491 On ch=5 n=69 v=0
144520 On ch=5 n=69 v=109
144685 On ch=5 n=66 v=0
144720 On ch=5 n=69 v=0
144720 On ch=5 n=66 v=106
144750 On ch=5 n=69 v=110
144958 On ch=5 n=61 v=0
145200 On ch=5 n=61 v=109
145406 On ch=5 n=66 v=0
145426 On ch=5 n=69 v=0
145440 On ch=5 n=66 v=109
145475 On ch=5 n=69 v=109
145660 On ch=5 n=66 v=0
145680 On ch=5 n=66 v=109
145690 On ch=5 n=69 v=0
145710 On ch=5 n=69 v=109
145893 On ch=5 n=61 v=0
145915 On ch=5 n=66 v=0
145920 On ch=5 n=69 v=0
145920 On ch=5 n=68 v=109
145960 On ch=5 n=71 v=110
146160 On ch=5 n=63 v=108
146376 On ch=5 n=68 v=0
146400 On ch=5 n=68 v=108
146411 On ch=5 n=71 v=0
146440 On ch=5 n=71 v=109
146605 On ch=5 n=68 v=0
146640 On ch=5 n=71 v=0
146640 On ch=5 n=68 v=106
146670 On ch=5 n=71 v=110
146878 On ch=5 n=63 v=0
147120 On ch=5 n=63 v=109
147326 On ch=5 n=68 v=0
147346 On ch=5 n=71 v=0
147360 On ch=5 n=68 v=109
147395 On ch=5 n=71 v=109
147580 On ch=5 n=68 v=0
147600 On ch=5 n=68 v=109
147610 On ch=5 n=71 v=0
147630 On ch=5 n=71 v=109
147813 On ch=5 n=63 v=0
147835 On ch=5 n=68 v=0
147840 On ch=5 n=71 v=0
147840 On ch=5 n=66 v=109
147880 On ch=5 n=69 v=110
148080 On ch=5 n=61 v=108
148296 On ch=5 n=66 v=0
148320 On ch=5 n=66 v=108
148331 On ch=5 n=69 v=0
148360 On ch=5 n=69 v=109
148525 On ch=5 n=66 v=0
148560 On ch=5 n=69 v=0
148560 On ch=5 n=66 v=106
148590 On ch=5 n=69 v=110
148798 On ch=5 n=61 v=0
149040 On ch=5 n=61 v=109
149246 On ch=5 n=66 v=0
149266 On ch=5 n=69 v=0
149280 On ch=5 n=66 v=109
149315 On ch=5 n=69 v=109
149500 On ch=5 n=66 v=0
149520 On ch=5 n=66 v=109
149530 On ch=5 n=69 v=0
149550 On ch=5 n=69 v=109
149733 On ch=5 n=61 v=0
149755 On ch=5 n=66 v=0
149760 On ch=5 n=69 v=0
149760 On ch=5 n=64 v=109
149800 On ch=5 n=68 v=110
150000 On ch=5 n=59 v=108
150216 On ch=5 n=64 v=0
150240 On ch=5 n=64 v=108
150251 On ch=5 n=68 v=0
150280 On ch=5 n=68 v=109
150445 On ch=5 n=64 v=0
150480 On ch=5 n=68 v=0
150480 On ch=5 n=64 v=106
150510 On ch=5 n=68 v=110
150718 On ch=5 n=59 v=0
150960 On ch=5 n=59 v=109
151166 On ch=5 n=64 v=0
151186 On ch=5 n=68 v=0
151200 On ch=5 n=64 v=109
151235 On ch=5 n=68 v=109
151420 On ch=5 n=64 v=0
151440 On ch=5 n=64 v=109
151450 On ch=5 n=68 v=0
151470 On ch=5 n=68 v=109
151653 On ch=5 n=59 v=0
151675 On ch=5 n=64 v=0
151680 On ch=5 n=68 v=0
151680 On ch=5 n=66 v=109
151720 On ch=5 n=69 v=110
151920 On ch=5 n=61 v=108
152136 On ch=5 n=66 v=0
152160 On ch=5 n=66 v=108
152171 On ch=5 n=69 v=0
152200 On ch=5 n=69 v=109
152365 On ch=5 n=66 v=0
152400 On ch=5 n=69 v=0
152400 On ch=5 n=66 v=106
152430 On ch=5 n=69 v=110
152638 On ch=5 n=61 v=0
152880 On ch=5 n=61 v=109
153086 On ch=5 n=66 v=0
153106 On ch=5 n=69 v=0
153120 On ch=5 n=66 v=109
153155 On ch=5 n=69 v=109
153340 On ch=5 n=66 v=0
153360 On ch=5 n=66 v=109
153370 On ch=5 n=69 v=0
153390 On ch=5 n=69 v=109
153573 On ch=5 n=61 v=0
153595 On ch=5 n=66 v=0
153600 On ch=5 n=69 v=0
153600 On ch=5 n=68 v=109
153640 On ch=5 n=71 v=110
153840 On ch=5 n=63 v=108
154056 On ch=5 n=68 v=0
154080 On ch=5 n=68 v=108
154091 On ch=5 n=71 v=0
154120 On ch=5 n=71 v=109
154285 On ch=5 n=68 v=0
154320 On ch=5 n=71 v=0
154320 On ch=5 n=68 v=106
154350 On ch=5 n=71 v=110
154558 On ch=5 n=63 v=0
154800 On ch=5 n=63 v=109
155006 On ch=5 n=68 v=0
155026 On ch=5 n=71 v=0
155040 On ch=5 n=68 v=109
155075 On ch=5 n=71 v=109
155260 On ch=5 n=68 v=0
155280 On ch=5 n=68 v=109
155290 On ch=5 n=71 v=0
155310 On ch=5 n=71 v=109
155493 On ch=5 n=63 v=0
155515 On ch=5 n=68 v=0
155520 On ch=5 n=71 v=0
155520 On ch=5 n=66 v=109
155560 On ch=5 n=69 v=110
155760 On ch=5 n=61 v=108
155976 On ch=5 n=66 v=0
156000 On ch=5 n=66 v=108
156011 On ch=5 n=69 v=0
156040 On ch=5 n=69 v=109
156205 On ch=5 n=66 v=0
156240 On ch=5 n=69 v=0
156240 On ch=5 n=66 v=106
156270 On ch=5 n=69 v=110
156478 On ch=5 n=61 v=0
156720 On ch=5 n=61 v=109
156926 On ch=5 n=66 v=0
156946 On ch=5 n=69 v=0
156960 On ch=5 n=66 v=109
156995 On ch=5 n=69 v=109
157180 On ch=5 n=66 v=0
157200 On ch=5 n=66 v=109
157210 On ch=5 n=69 v=0
157230 On ch=5 n=69 v=109
157413 On ch=5 n=61 v=0
157435 On ch=5 n=66 v=0
157440 On ch=5 n=69 v=0
157440 On ch=5 n=64 v=109
157480 On ch=5 n=68 v=110
157680 On ch=5 n=59 v=108
157896 On ch=5 n=64 v=0
157920 On ch=5 n=64 v=108
157931 On ch=5 n=68 v=0
157960 On ch=5 n=68 v=109
158125 On ch=5 n=64 v=0
158160 On ch=5 n=68 v=0
158160 On ch=5 n=64 v=106
158190 On ch=5 n=68 v=110
158398 On ch=5 n=59 v=0
158640 On ch=5 n=59 v=109
158846 On ch=5 n=64 v=0
158866 On ch=5 n=68 v=0
158880 On ch=5 n=64 v=109
158915 On ch=5 n=68 v=109
159100 On ch=5 n=64 v=0
159120 On ch=5 n=64 v=109
159130 On ch=5 n=68 v=0
159150 On ch=5 n=68 v=109
159333 On ch=5 n=59 v=0
159355 On ch=5 n=64 v=0
159360 On ch=5 n=68 v=0
159360 On ch=5 n=66 v=109
159400 On ch=5 n=69 v=110
159600 On ch=5 n=61 v=108
159816 On ch=5 n=66 v=0
159840 On ch=5 n=66 v=108
159851 On ch=5 n=69 v=0
159880 On ch=5 n=69 v=109
160045 On ch=5 n=66 v=0
160080 On ch=5 n=69 v=0
160080 On ch=5 n=66 v=106
160110 On ch=5 n=69 v=110
160318 On ch=5 n=61 v=0
160560 On ch=5 n=61 v=109
160766 On ch=5 n=66 v=0
160786 On ch=5 n=69 v=0
160800 On ch=5 n=66 v=109
160835 On ch=5 n=69 v=109
161020 On ch=5 n=66 v=0
161040 On ch=5 n=66 v=109
161050 On ch=5 n=69 v=0
161070 On ch=5 n=69 v=109
161253 On ch=5 n=61 v=0
161275 On ch=5 n=66 v=0
161280 On ch=5 n=69 v=0
161280 On ch=5 n=68 v=109
161320 On ch=5 n=71 v=110
161520 On ch=5 n=63 v=108
161736 On ch=5 n=68 v=0
161760 On ch=5 n=68 v=108
161771 On ch=5 n=71 v=0
161800 On ch=5 n=71 v=109
161965 On ch=5 n=68 v=0
162000 On ch=5 n=71 v=0
162000 On ch=5 n=68 v=106
162030 On ch=5 n=71 v=110
162238 On ch=5 n=63 v=0
162480 On ch=5 n=63 v=109
162686 On ch=5 n=68 v=0
162706 On ch=5 n=71 v=0
162720 On ch=5 n=68 v=109
162755 On ch=5 n=71 v=109
162940 On ch=5 n=68 v=0
162960 On ch=5 n=68 v=109
162970 On ch=5 n=71 v=0
162990 On ch=5 n=71 v=109
163173 On ch=5 n=63 v=0
163195 On ch=5 n=68 v=0
163200 On ch=5 n=71 v=0
163200 On ch=5 n=66 v=109
163240 On ch=5 n=69 v=110
163440 On ch=5 n=61 v=108
163656 On ch=5 n=66 v=0
163680 On ch=5 n=66 v=108
163691 On ch=5 n=69 v=0
163720 On ch=5 n=69 v=109
163885 On ch=5 n=66 v=0
163920 On ch=5 n=69 v=0
163920 On ch=5 n=66 v=106
163950 On ch=5 n=69 v=110
164158 On ch=5 n=61 v=0
164400 On ch=5 n=61 v=109
164606 On ch=5 n=66 v=0
164626 On ch=5 n=69 v=0
164640 On ch=5 n=66 v=109
164675 On ch=5 n=69 v=109
164860 On ch=5 n=66 v=0
164880 On ch=5 n=66 v=109
164890 On ch=5 n=69 v=0
164910 On ch=5 n=69 v=109
165093 On ch=5 n=61 v=0
165115 On ch=5 n=66 v=0
165120 On ch=5 n=69 v=0
165120 On ch=5 n=64 v=109
165160 On ch=5 n=68 v=110
165360 On ch=5 n=59 v=108
165576 On ch=5 n=64 v=0
165600 On ch=5 n=64 v=108
165611 On ch=5 n=68 v=0
165640 On ch=5 n=68 v=109
165805 On ch=5 n=64 v=0
165840 On ch=5 n=68 v=0
165840 On ch=5 n=64 v=106
165870 On ch=5 n=68 v=110
166078 On ch=5 n=59 v=0
166320 On ch=5 n=59 v=109
166526 On ch=5 n=64 v=0
166546 On ch=5 n=68 v=0
166560 On ch=5 n=64 v=109
166595 On ch=5 n=68 v=109
166780 On ch=5 n=64 v=0
166800 On ch=5 n=64 v=109
166810 On ch=5 n=68 v=0
166830 On ch=5 n=68 v=109
167013 On ch=5 n=59 v=0
167035 On ch=5 n=64 v=0
167040 On ch=5 n=68 v=0
167040 On ch=5 n=66 v=109
167080 On ch=5 n=69 v=110
167280 On ch=5 n=61 v=108
167496 On ch=5 n=66 v=0
167520 On ch=5 n=66 v=108
167531 On ch=5 n=69 v=0
167560 On ch=5 n=69 v=109
167725 On ch=5 n=66 v=0
167760 On ch=5 n=69 v=0
167760 On ch=5 n=66 v=106
167790 On ch=5 n=69 v=110
167998 On ch=5 n=61 v=0
168240 On ch=5 n=61 v=109
168446 On ch=5 n=66 v=0
168466 On ch=5 n=69 v=0
168480 On ch=5 n=66 v=109
168515 On ch=5 n=69 v=109
168700 On ch=5 n=66 v=0
168720 On ch=5 n=66 v=109
168730 On ch=5 n=69 v=0
168750 On ch=5 n=69 v=109
168933 On ch=5 n=61 v=0
168955 On ch=5 n=66 v=0
168960 On ch=5 n=69 v=0
168960 On ch=5 n=68 v=109
169000 On ch=5 n=71 v=110
169200 On ch=5 n=63 v=108
169416 On ch=5 n=68 v=0
169440 On ch=5 n=68 v=108
169451 On ch=5 n=71 v=0
169480 On ch=5 n=71 v=109
169645 On ch=5 n=68 v=0
169680 On ch=5 n=71 v=0
169680 On ch=5 n=68 v=106
169710 On ch=5 n=71 v=110
169918 On ch=5 n=63 v=0
170160 On ch=5 n=63 v=109
170366 On ch=5 n=68 v=0
170386 On ch=5 n=71 v=0
170400 On ch=5 n=68 v=109
170435 On ch=5 n=71 v=109
170620 On ch=5 n=68 v=0
170640 On ch=5 n=68 v=109
170650 On ch=5 n=71 v=0
170670 On ch=5 n=71 v=109
170853 On ch=5 n=63 v=0
170875 On ch=5 n=68 v=0
170880 On ch=5 n=71 v=0
170880 On ch=5 n=66 v=109
170920 On ch=5 n=69 v=110
171120 On ch=5 n=61 v=108
171336 On ch=5 n=66 v=0
171360 On ch=5 n=66 v=108
171371 On ch=5 n=69 v=0
171400 On ch=5 n=69 v=109
171565 On ch=5 n=66 v=0
171600 On ch=5 n=69 v=0
171600 On ch=5 n=66 v=106
171630 On ch=5 n=69 v=110
171838 On ch=5 n=61 v=0
172080 On ch=5 n=61 v=109
172286 On ch=5 n=66 v=0
172306 On ch=5 n=69 v=0
172320 On ch=5 n=66 v=109
172355 On ch=5 n=69 v=109
172540 On ch=5 n=66 v=0
172560 On ch=5 n=66 v=109
172570 On ch=5 n=69 v=0
172590 On ch=5 n=69 v=109
172773 On ch=5 n=61 v=0
172795 On ch=5 n=66 v=0
172800 On ch=5 n=69 v=0
172800 On ch=5 n=64 v=109
172840 On ch=5 n=68 v=110
173040 On ch=5 n=59 v=108
173256 On ch=5 n=64 v=0
173280 On ch=5 n=64 v=108
173291 On ch=5 n=68 v=0
173320 On ch=5 n=68 v=109
173485 On ch=5 n=64 v=0
173520 On ch=5 n=68 v=0
173520 On ch=5 n=64 v=106
173550 On ch=5 n=68 v=110
173758 On ch=5 n=59 v=0
174000 On ch=5 n=59 v=109
174206 On ch=5 n=64 v=0
174226 On ch=5 n=68 v=0
174240 On ch=5 n=64 v=109
174275 On ch=5 n=68 v=109
174460 On ch=5 n=64 v=0
174480 On ch=5 n=64 v=109
174490 On ch=5 n=68 v=0
174510 On ch=5 n=68 v=109
174693 On ch=5 n=59 v=0
174715 On ch=5 n=64 v=0
174720 On ch=5 n=68 v=0
174720 On ch=5 n=66 v=109
174760 On ch=5 n=69 v=110
174960 On ch=5 n=61 v=108
175176 On ch=5 n=66 v=0
175200 On ch=5 n=66 v=108
175211 On ch=5 n=69 v=0
175240 On ch=5 n=69 v=109
175405 On ch=5 n=66 v=0
175440 On ch=5 n=69 v=0
175440 On ch=5 n=66 v=106
175470 On ch=5 n=69 v=110
175678 On ch=5 n=61 v=0
175920 On ch=5 n=61 v=109
176126 On ch=5 n=66 v=0
176146 On ch=5 n=69 v=0
176160 On ch=5 n=66 v=109
176195 On ch=5 n=69 v=109
176380 On ch=5 n=66 v=0
176400 On ch=5 n=66 v=109
176410 On ch=5 n=69 v=0
176430 On ch=5 n=69 v=109
176613 On ch=5 n=61 v=0
176635 On ch=5 n=66 v=0
176640 On ch=5 n=69 v=0
176640 On ch=5 n=68 v=109
176680 On ch=5 n=71 v=110
176880 On ch=5 n=63 v=108
177096 On ch=5 n=68 v=0
177120 On ch=5 n=68 v=108
177131 On ch=5 n=71 v=0
177160 On ch=5 n=71 v=109
177325 On ch=5 n=68 v=0
177360 On ch=5 n=71 v=0
177360 On ch=5 n=68 v=106
177390 On ch=5 n=71 v=110
177598 On ch=5 n=63 v=0
177840 On ch=5 n=63 v=109
178046 On ch=5 n=68 v=0
178066 On ch=5 n=71 v=0
178080 On ch=5 n=68 v=109
178115 On ch=5 n=71 v=109
178300 On ch=5 n=68 v=0
178320 On ch=5 n=68 v=109
178330 On ch=5 n=71 v=0
178350 On ch=5 n=71 v=109
178533 On ch=5 n=63 v=0
178555 On ch=5 n=68 v=0
178560 On ch=5 n=71 v=0
178560 On ch=5 n=66 v=109
178600 On ch=5 n=69 v=110
178800 On ch=5 n=61 v=108
179016 On ch=5 n=66 v=0
179040 On ch=5 n=66 v=108
179051 On ch=5 n=69 v=0
179080 On ch=5 n=69 v=109
179245 On ch=5 n=66 v=0
179280 On ch=5 n=69 v=0
179280 On ch=5 n=66 v=106
179310 On ch=5 n=69 v=110
179518 On ch=5 n=61 v=0
179760 On ch=5 n=61 v=109
179966 On ch=5 n=66 v=0
179986 On ch=5 n=69 v=0
180000 On ch=5 n=66 v=109
180035 On ch=5 n=69 v=109
180220 On ch=5 n=66 v=0
180240 On ch=5 n=66 v=109
180250 On ch=5 n=69 v=0
180270 On ch=5 n=69 v=109
180453 On ch=5 n=61 v=0
180475 On ch=5 n=66 v=0
180480 On ch=5 n=69 v=0
180480 On ch=5 n=66 v=109
180520 On ch=5 n=69 v=110
180720 On ch=5 n=61 v=108
180936 On ch=5 n=66 v=0
180960 On ch=5 n=66 v=108
180971 On ch=5 n=69 v=0
181000 On ch=5 n=69 v=109
181165 On ch=5 n=66 v=0
181200 On ch=5 n=69 v=0
181200 On ch=5 n=66 v=106
181230 On ch=5 n=69 v=110
181438 On ch=5 n=61 v=0
181680 On ch=5 n=61 v=109
181886 On ch=5 n=66 v=0
181906 On ch=5 n=69 v=0
181920 On ch=5 n=66 v=109
181955 On ch=5 n=69 v=109
182140 On ch=5 n=66 v=0
182160 On ch=5 n=66 v=109
182170 On ch=5 n=69 v=0
182190 On ch=5 n=69 v=109
182373 On ch=5 n=61 v=0
182395 On ch=5 n=66 v=0
182400 On ch=5 n=69 v=0
182400 On ch=5 n=66 v=109
182440 On ch=5 n=69 v=110
182640 On ch=5 n=61 v=108
182856 On ch=5 n=66 v=0
182880 On ch=5 n=66 v=108
182891 On ch=5 n=69 v=0
182920 On ch=5 n=69 v=109
183085 On ch=5 n=66 v=0
183120 On ch=5 n=69 v=0
183120 On ch=5 n=66 v=106
183150 On ch=5 n=69 v=110
183358 On ch=5 n=61 v=0
183600 On ch=5 n=61 v=109
183806 On ch=5 n=66 v=0
183826 On ch=5 n=69 v=0
183840 On ch=5 n=66 v=109
183875 On ch=5 n=69 v=109
184060 On ch=5 n=66 v=0
184080 On ch=5 n=66 v=109
184090 On ch=5 n=69 v=0
184110 On ch=5 n=69 v=109
184293 On ch=5 n=61 v=0
184315 On ch=5 n=66 v=0
184320 On ch=5 n=69 v=0
184320 On ch=5 n=66 v=109
184360 On ch=5 n=69 v=110
184560 On ch=5 n=61 v=108
184776 On ch=5 n=66 v=0
184800 On ch=5 n=66 v=108
184811 On ch=5 n=69 v=0
184840 On ch=5 n=69 v=109
185005 On ch=5 n=66 v=0
185040 On ch=5 n=69 v=0
185040 On ch=5 n=66 v=106
185070 On ch=5 n=69 v=110
185278 On ch=5 n=61 v=0
185520 On ch=5 n=61 v=109
185726 On ch=5 n=66 v=0
185746 On ch=5 n=69 v=0
185760 On ch=5 n=66 v=109
185795 On ch=5 n=69 v=109
185980 On ch=5 n=66 v=0
186000 On ch=5 n=66 v=109
186010 On ch=5 n=69 v=0
186030 On ch=5 n=69 v=109
186213 On ch=5 n=61 v=0
186235 On ch=5 n=66 v=0
186240 On ch=5 n=69 v=0
186240 On ch=5 n=64 v=109
186280 On ch=5 n=68 v=110
186480 On ch=5 n=59 v=108
186696 On ch=5 n=64 v=0
186720 On ch=5 n=64 v=108
186731 On ch=5 n=68 v=0
186760 On ch=5 n=68 v=109
186925 On ch=5 n=64 v=0
186960 On ch=5 n=68 v=0
186960 On ch=5 n=64 v=106
186990 On ch=5 n=68 v=110
187198 On ch=5 n=59 v=0
187440 On ch=5 n=59 v=109
187646 On ch=5 n=64 v=0
187666 On ch=5 n=68 v=0
187680 On ch=5 n=64 v=109
187715 On ch=5 n=68 v=109
187900 On ch=5 n=64 v=0
187920 On ch=5 n=64 v=109
187930 On ch=5 n=68 v=0
187950 On ch=5 n=68 v=109
188133 On ch=5 n=59 v=0
188155 On ch=5 n=64 v=0
188160 On ch=5 n=68 v=0
188160 On ch=5 n=66 v=109
188200 On ch=5 n=69 v=110
188400 On ch=5 n=61 v=108
188616 On ch=5 n=66 v=0
188640 On ch=5 n=66 v=108
188651 On ch=5 n=69 v=0
188680 On ch=5 n=69 v=109
188845 On ch=5 n=66 v=0
188880 On ch=5 n=69 v=0
188880 On ch=5 n=66 v=106
188910 On ch=5 n=69 v=110
189118 On ch=5 n=61 v=0
189360 On ch=5 n=61 v=109
189566 On ch=5 n=66 v=0
189586 On ch=5 n=69 v=0
189600 On ch=5 n=66 v=109
189635 On ch=5 n=69 v=109
189820 On ch=5 n=66 v=0
189840 On ch=5 n=66 v=109
189850 On ch=5 n=69 v=0
189870 On ch=5 n=69 v=109
190053 On ch=5 n=61 v=0
190075 On ch=5 n=66 v=0
190080 On ch=5 n=69 v=0
190080 On ch=5 n=68 v=109
190120 On ch=5 n=71 v=110
190320 On ch=5 n=63 v=108
190536 On ch=5 n=68 v=0
190560 On ch=5 n=68 v=108
190571 On ch=5 n=71 v=0
190600 On ch=5 n=71 v=109
190765 On ch=5 n=68 v=0
190800 On ch=5 n=71 v=0
190800 On ch=5 n=68 v=106
190830 On ch=5 n=71 v=110
191038 On ch=5 n=63 v=0
191280 On ch=5 n=63 v=109
191486 On ch=5 n=68 v=0
191506 On ch=5 n=71 v=0
191520 On ch=5 n=68 v=109
191555 On ch=5 n=71 v=109
191740 On ch=5 n=68 v=0
191760 On ch=5 n=68 v=109
191770 On ch=5 n=71 v=0
191790 On ch=5 n=71 v=109
191973 On ch=5 n=63 v=0
191995 On ch=5 n=68 v=0
192000 On ch=5 n=71 v=0
192000 On ch=5 n=66 v=109
192040 On ch=5 n=69 v=110
192240 On ch=5 n=61 v=108
192456 On ch=5 n=66 v=0
192480 On ch=5 n=66 v=108
192491 On ch=5 n=69 v=0
192520 On ch=5 n=69 v=109
192685 On ch=5 n=66 v=0
192720 On ch=5 n=69 v=0
192720 On ch=5 n=66 v=106
192750 On ch=5 n=69 v=110
192958 On ch=5 n=61 v=0
193200 On ch=5 n=61 v=109
193406 On ch=5 n=66 v=0
193426 On ch=5 n=69 v=0
193440 On ch=5 n=66 v=109
193475 On ch=5 n=69 v=109
193660 On ch=5 n=66 v=0
193680 On ch=5 n=66 v=109
193690 On ch=5 n=69 v=0
193710 On ch=5 n=69 v=109
193893 On ch=5 n=61 v=0
193915 On ch=5 n=66 v=0
193920 On ch=5 n=69 v=0
193920 On ch=5 n=64 v=109
193960 On ch=5 n=68 v=110
194160 On ch=5 n=59 v=108
194376 On ch=5 n=64 v=0
194400 On ch=5 n=64 v=108
194411 On ch=5 n=68 v=0
194440 On ch=5 n=68 v=109
194605 On ch=5 n=64 v=0
194640 On ch=5 n=68 v=0
194640 On ch=5 n=64 v=106
194670 On ch=5 n=68 v=110
194878 On ch=5 n=59 v=0
195120 On ch=5 n=59 v=109
195326 On ch=5 n=64 v=0
195346 On ch=5 n=68 v=0
195360 On ch=5 n=64 v=109
195395 On ch=5 n=68 v=109
195580 On ch=5 n=64 v=0
195600 On ch=5 n=64 v=109
195610 On ch=5 n=68 v=0
195630 On ch=5 n=68 v=109
195813 On ch=5 n=59 v=0
195835 On ch=5 n=64 v=0
195840 On ch=5 n=68 v=0
195840 On ch=5 n=66 v=109
195880 On ch=5 n=69 v=110
196080 On ch=5 n=61 v=108
196296 On ch=5 n=66 v=0
196320 On ch=5 n=66 v=108
196331 On ch=5 n=69 v=0
196360 On ch=5 n=69 v=109
196525 On ch=5 n=66 v=0
196560 On ch=5 n=69 v=0
196560 On ch=5 n=66 v=106
196590 On ch=5 n=69 v=110
196798 On ch=5 n=61 v=0
197040 On ch=5 n=61 v=109
197246 On ch=5 n=66 v=0
197266 On ch=5 n=69 v=0
197280 On ch=5 n=66 v=109
197315 On ch=5 n=69 v=109
197500 On ch=5 n=66 v=0
197520 On ch=5 n=66 v=109
197530 On ch=5 n=69 v=0
197550 On ch=5 n=69 v=109
197733 On ch=5 n=61 v=0
197755 On ch=5 n=66 v=0
197760 On ch=5 n=69 v=0
197760 On ch=5 n=68 v=109
197800 On ch=5 n=71 v=110
198000 On ch=5 n=63 v=108
198216 On ch=5 n=68 v=0
198240 On ch=5 n=68 v=108
198251 On ch=5 n=71 v=0
198280 On ch=5 n=71 v=109
198445 On ch=5 n=68 v=0
198480 On ch=5 n=71 v=0
198480 On ch=5 n=68 v=106
198510 On ch=5 n=71 v=110
198718 On ch=5 n=63 v=0
198960 On ch=5 n=63 v=109
199166 On ch=5 n=68 v=0
199186 On ch=5 n=71 v=0
199200 On ch=5 n=68 v=109
199235 On ch=5 n=71 v=109
199420 On ch=5 n=68 v=0
199440 On ch=5 n=68 v=109
199450 On ch=5 n=71 v=0
199470 On ch=5 n=71 v=109
199653 On ch=5 n=63 v=0
199675 On ch=5 n=68 v=0
199680 On ch=5 n=71 v=0
199680 On ch=5 n=66 v=109
199720 On ch=5 n=69 v=110
199920 On ch=5 n=61 v=108
200136 On ch=5 n=66 v=0
200160 On ch=5 n=66 v=108
200171 On ch=5 n=69 v=0
200200 On ch=5 n=69 v=109
200365 On ch=5 n=66 v=0
200400 On ch=5 n=69 v=0
200400 On ch=5 n=66 v=106
200430 On ch=5 n=69 v=110
200638 On ch=5 n=61 v=0
200880 On ch=5 n=61 v=109
201086 On ch=5 n=66 v=0
201106 On ch=5 n=69 v=0
201120 On ch=5 n=66 v=109
201155 On ch=5 n=69 v=109
201340 On ch=5 n=66 v=0
201360 On ch=5 n=66 v=109
201370 On ch=5 n=69 v=0
201390 On ch=5 n=69 v=109
201573 On ch=5 n=61 v=0
201595 On ch=5 n=66 v=0
201600 On ch=5 n=69 v=0
201600 On ch=5 n=64 v=109
201640 On ch=5 n=68 v=110
201840 On ch=5 n=59 v=108
202056 On ch=5 n=64 v=0
202080 On ch=5 n=64 v=108
202091 On ch=5 n=68 v=0
202120 On ch=5 n=68 v=109
202285 On ch=5 n=64 v=0
202320 On ch=5 n=68 v=0
202320 On ch=5 n=64 v=106
202350 On ch=5 n=68 v=110
202558 On ch=5 n=59 v=0
202800 On ch=5 n=59 v=109
203006 On ch=5 n=64 v=0
203026 On ch=5 n=68 v=0
203040 On ch=5 n=64 v=109
203075 On ch=5 n=68 v=109
203260 On ch=5 n=64 v=0
203280 On ch=5 n=64 v=109
203290 On ch=5 n=68 v=0
203310 On ch=5 n=68 v=109
203493 On ch=5 n=59 v=0
203515 On ch=5 n=64 v=0
203520 On ch=5 n=68 v=0
203520 On ch=5 n=66 v=109
203560 On ch=5 n=69 v=110
203760 On ch=5 n=61 v=108
203976 On ch=5 n=66 v=0
204000 On ch=5 n=66 v=108
204011 On ch=5 n=69 v=0
204040 On ch=5 n=69 v=109
204205 On ch=5 n=66 v=0
204240 On ch=5 n=69 v=0
204240 On ch=5 n=66 v=106
204270 On ch=5 n=69 v=110
204478 On ch=5 n=61 v=0
204720 On ch=5 n=61 v=109
204926 On ch=5 n=66 v=0
204946 On ch=5 n=69 v=0
204960 On ch=5 n=66 v=109
204995 On ch=5 n=69 v=109
205180 On ch=5 n=66 v=0
205200 On ch=5 n=66 v=109
205210 On ch=5 n=69 v=0
205230 On ch=5 n=69 v=109
205413 On ch=5 n=61 v=0
205435 On ch=5 n=66 v=0
205440 On ch=5 n=69 v=0
205440 On ch=5 n=68 v=109
205480 On ch=5 n=71 v=110
205680 On ch=5 n=63 v=108
205896 On ch=5 n=68 v=0
205920 On ch=5 n=68 v=108
205931 On ch=5 n=71 v=0
205960 On ch=5 n=71 v=109
206125 On ch=5 n=68 v=0
206160 On ch=5 n=71 v=0
206160 On ch=5 n=68 v=106
206190 On ch=5 n=71 v=110
206398 On ch=5 n=63 v=0
206640 On ch=5 n=63 v=109
206846 On ch=5 n=68 v=0
206866 On ch=5 n=71 v=0
206880 On ch=5 n=68 v=109
206915 On ch=5 n=71 v=109
207100 On ch=5 n=68 v=0
207120 On ch=5 n=68 v=109
207130 On ch=5 n=71 v=0
207150 On ch=5 n=71 v=109
207333 On ch=5 n=63 v=0
207355 On ch=5 n=68 v=0
207360 On ch=5 n=71 v=0
207360 On ch=5 n=66 v=109
207400 On ch=5 n=69 v=110
207600 On ch=5 n=61 v=108
207816 On ch=5 n=66 v=0
207840 On ch=5 n=66 v=108
207851 On ch=5 n=69 v=0
207880 On ch=5 n=69 v=109
208045 On ch=5 n=66 v=0
208080 On ch=5 n=69 v=0
208080 On ch=5 n=66 v=106
208110 On ch=5 n=69 v=110
208318 On ch=5 n=61 v=0
208560 On ch=5 n=61 v=109
208766 On ch=5 n=66 v=0
208786 On ch=5 n=69 v=0
208800 On ch=5 n=66 v=109
208835 On ch=5 n=69 v=109
209020 On ch=5 n=66 v=0
209040 On ch=5 n=66 v=109
209050 On ch=5 n=69 v=0
209070 On ch=5 n=69 v=109
209253 On ch=5 n=61 v=0
209275 On ch=5 n=66 v=0
209280 On ch=5 n=69 v=0
209280 On ch=5 n=64 v=109
209320 On ch=5 n=68 v=110
209520 On ch=5 n=59 v=108
209736 On ch=5 n=64 v=0
209760 On ch=5 n=64 v=108
209771 On ch=5 n=68 v=0
209800 On ch=5 n=68 v=109
209965 On ch=5 n=64 v=0
210000 On ch=5 n=68 v=0
210000 On ch=5 n=64 v=106
210030 On ch=5 n=68 v=110
210238 On ch=5 n=59 v=0
210480 On ch=5 n=59 v=109
210686 On ch=5 n=64 v=0
210706 On ch=5 n=68 v=0
210720 On ch=5 n=64 v=109
210755 On ch=5 n=68 v=109
210940 On ch=5 n=64 v=0
210960 On ch=5 n=64 v=109
210970 On ch=5 n=68 v=0
210990 On ch=5 n=68 v=109
211173 On ch=5 n=59 v=0
211195 On ch=5 n=64 v=0
211200 On ch=5 n=68 v=0
211200 On ch=5 n=66 v=109
211240 On ch=5 n=69 v=110
211440 On ch=5 n=61 v=108
211656 On ch=5 n=66 v=0
211680 On ch=5 n=66 v=108
211691 On ch=5 n=69 v=0
211720 On ch=5 n=69 v=109
211885 On ch=5 n=66 v=0
211920 On ch=5 n=69 v=0
211920 On ch=5 n=66 v=106
211950 On ch=5 n=69 v=110
212158 On ch=5 n=61 v=0
212400 On ch=5 n=61 v=109
212606 On ch=5 n=66 v=0
212626 On ch=5 n=69 v=0
212640 On ch=5 n=66 v=109
212675 On ch=5 n=69 v=109
212860 On ch=5 n=66 v=0
212880 On ch=5 n=66 v=109
212890 On ch=5 n=69 v=0
212910 On ch=5 n=69 v=109
213093 On ch=5 n=61 v=0
213115 On ch=5 n=66 v=0
213120 On ch=5 n=69 v=0
213120 On ch=5 n=68 v=109
213160 On ch=5 n=71 v=110
213360 On ch=5 n=63 v=108
213576 On ch=5 n=68 v=0
213600 On ch=5 n=68 v=108
213611 On ch=5 n=71 v=0
213640 On ch=5 n=71 v=109
213805 On ch=5 n=68 v=0
213840 On ch=5 n=71 v=0
213840 On ch=5 n=68 v=106
213870 On ch=5 n=71 v=110
214078 On ch=5 n=63 v=0
214320 On ch=5 n=63 v=109
214526 On ch=5 n=68 v=0
214546 On ch=5 n=71 v=0
214560 On ch=5 n=68 v=109
214595 On ch=5 n=71 v=109
214780 On ch=5 n=68 v=0
214800 On ch=5 n=68 v=109
214810 On ch=5 n=71 v=0
214830 On ch=5 n=71 v=109
215013 On ch=5 n=63 v=0
215035 On ch=5 n=68 v=0
215040 On ch=5 n=71 v=0
215040 On ch=5 n=66 v=109
215080 On ch=5 n=69 v=110
215280 On ch=5 n=61 v=108
215496 On ch=5 n=66 v=0
215520 On ch=5 n=66 v=108
215531 On ch=5 n=69 v=0
215560 On ch=5 n=69 v=109
215725 On ch=5 n=66 v=0
215760 On ch=5 n=69 v=0
215760 On ch=5 n=66 v=106
215790 On ch=5 n=69 v=110
215998 On ch=5 n=61 v=0
216240 On ch=5 n=61 v=109
216446 On ch=5 n=66 v=0
216466 On ch=5 n=69 v=0
216480 On ch=5 n=66 v=109
216515 On ch=5 n=69 v=109
216700 On ch=5 n=66 v=0
216720 On ch=5 n=66 v=109
216730 On ch=5 n=69 v=0
216750 On ch=5 n=69 v=109
216933 On ch=5 n=61 v=0
216955 On ch=5 n=66 v=0
216960 On ch=5 n=69 v=0
216960 On ch=5 n=64 v=109
217000 On ch=5 n=68 v=110
217200 On ch=5 n=59 v=108
217416 On ch=5 n=64 v=0
217440 On ch=5 n=64 v=108
217451 On ch=5 n=68 v=0
217480 On ch=5 n=68 v=109
217645 On ch=5 n=64 v=0
217680 On ch=5 n=68 v=0
217680 On ch=5 n=64 v=106
217710 On ch=5 n=68 v=110
217918 On ch=5 n=59 v=0
218160 On ch=5 n=59 v=109
218366 On ch=5 n=64 v=0
218386 On ch=5 n=68 v=0
218400 On ch=5 n=64 v=109
218435 On ch=5 n=68 v=109
218620 On ch=5 n=64 v=0
218640 On ch=5 n=64 v=109
218650 On ch=5 n=68 v=0
218670 On ch=5 n=68 v=109
218853 On ch=5 n=59 v=0
218875 On ch=5 n=64 v=0
218880 On ch=5 n=68 v=0
218880 On ch=5 n=66 v=109
218920 On ch=5 n=69 v=110
219120 On ch=5 n=61 v=108
219336 On ch=5 n=66 v=0
219360 On ch=5 n=66 v=108
219371 On ch=5 n=69 v=0
219400 On ch=5 n=69 v=109
219565 On ch=5 n=66 v=0
219600 On ch=5 n=69 v=0
219600 On ch=5 n=66 v=106
219630 On ch=5 n=69 v=110
219838 On ch=5 n=61 v=0
220080 On ch=5 n=61 v=109
220286 On ch=5 n=66 v=0
220306 On ch=5 n=69 v=0
220320 On ch=5 n=66 v=109
220355 On ch=5 n=69 v=109
220540 On ch=5 n=66 v=0
220560 On ch=5 n=66 v=109
220570 On ch=5 n=69 v=0
220590 On ch=5 n=69 v=109
220773 On ch=5 n=61 v=0
220795 On ch=5 n=66 v=0
220800 On ch=5 n=69 v=0
220800 On ch=5 n=68 v=109
220840 On ch=5 n=71 v=110
221040 On ch=5 n=63 v=108
221256 On ch=5 n=68 v=0
221280 On ch=5 n=68 v=108
221291 On ch=5 n=71 v=0
221320 On ch=5 n=71 v=109
221485 On ch=5 n=68 v=0
221520 On ch=5 n=71 v=0
221520 On ch=5 n=68 v=106
221550 On ch=5 n=71 v=110
221758 On ch=5 n=63 v=0
222000 On ch=5 n=63 v=109
222206 On ch=5 n=68 v=0
222226 On ch=5 n=71 v=0
222240 On ch=5 n=68 v=109
222275 On ch=5 n=71 v=109
222460 On ch=5 n=68 v=0
222480 On ch=5 n=68 v=109
222490 On ch=5 n=71 v=0
222510 On ch=5 n=71 v=109
222693 On ch=5 n=63 v=0
222715 On ch=5 n=68 v=0
222720 On ch=5 n=71 v=0
222720 On ch=5 n=64 v=109
222760 On ch=5 n=69 v=110
222960 On ch=5 n=61 v=107
223176 On ch=5 n=64 v=0
223200 On ch=5 n=64 v=100
223211 On ch=5 n=69 v=0
223240 On ch=5 n=69 v=106
224908 On ch=5 n=64 v=0
224913 On ch=5 n=69 v=0
225196 On ch=5 n=61 v=0
225196 Meta TrkEnd
TrkEnd
MTrk
0 Meta 0x21 00
0 Meta TrkName "Squire"
0 PrCh ch=6 p=32
0 Par ch=6 c=7 v=100
0 Par ch=6 c=10 v=64
1125 Par ch=6 c=91 v=40
1130 Par ch=6 c=93 v=0
1135 Par ch=6 c=101 v=0
1135 Par ch=6 c=100 v=0
1135 Par ch=6 c=6 v=2
1140 Par ch=6 c=99 v=1
1140 Par ch=6 c=98 v=8
1140 Par ch=6 c=6 v=64
1145 Par ch=6 c=99 v=1
1145 Par ch=6 c=98 v=9
1145 Par ch=6 c=6 v=64
1150 Par ch=6 c=99 v=1
1150 Par ch=6 c=98 v=10
1150 Par ch=6 c=6 v=64
1155 Par ch=6 c=99 v=1
1155 Par ch=6 c=98 v=32
1155 Par ch=6 c=6 v=64
1160 Par ch=6 c=99 v=1
1160 Par ch=6 c=98 v=33
1160 Par ch=6 c=6 v=64
1165 Par ch=6 c=99 v=1
1165 Par ch=6 c=98 v=99
1165 Par ch=6 c=6 v=64
1170 Par ch=6 c=99 v=1
1170 Par ch=6 c=98 v=100
1170 Par ch=6 c=6 v=64
1175 Par ch=6 c=99 v=1
1175 Par ch=6 c=98 v=102
1175 Par ch=6 c=6 v=64
13440 Pb ch=6 v=8192
13440 Par ch=6 c=1 v=0
13440 Par ch=6 c=64 v=0
13440 Par ch=6 c=11 v=127
13440 Par ch=6 c=91 v=64
13440 Par ch=6 c=93 v=64
38400 On ch=6 n=40 v=127
38890 On ch=6 n=40 v=0
40320 On ch=6 n=40 v=127
40801 On ch=6 n=40 v=0
42240 On ch=6 n=40 v=127
42730 On ch=6 n=40 v=0
44160 On ch=6 n=40 v=127
44641 On ch=6 n=40 v=0
46080 On ch=6 n=40 v=127
46570 On ch=6 n=40 v=0
48000 On ch=6 n=40 v=127
48481 On ch=6 n=40 v=0
49920 On ch=6 n=40 v=127
50410 On ch=6 n=40 v=0
51840 On ch=6 n=40 v=127
52321 On ch=6 n=40 v=0
53760 On ch=6 n=40 v=127
54250 On ch=6 n=40 v=0
55680 On ch=6 n=40 v=127
56161 On ch=6 n=40 v=0
57600 On ch=6 n=40 v=127
58090 On ch=6 n=40 v=0
59520 On ch=6 n=40 v=127
60001 On ch=6 n=40 v=0
61440 On ch=6 n=40 v=127
61930 On ch=6 n=40 v=0
63360 On ch=6 n=40 v=127
63841 On ch=6 n=40 v=0
65280 On ch=6 n=40 v=127
65770 On ch=6 n=40 v=0
67200 On ch=6 n=40 v=127
67681 On ch=6 n=40 v=0
69120 On ch=6 n=40 v=127
69610 On ch=6 n=40 v=0
71040 On ch=6 n=40 v=127
71521 On ch=6 n=40 v=0
72960 On ch=6 n=40 v=127
73450 On ch=6 n=40 v=0
74880 On ch=6 n=40 v=127
75361 On ch=6 n=40 v=0
76800 On ch=6 n=40 v=127
77290 On ch=6 n=40 v=0
78720 On ch=6 n=40 v=127
79201 On ch=6 n=40 v=0
80640 On ch=6 n=40 v=127
81130 On ch=6 n=40 v=0
82560 On ch=6 n=40 v=127
83041 On ch=6 n=40 v=0
84480 On ch=6 n=40 v=127
84970 On ch=6 n=40 v=0
86400 On ch=6 n=40 v=127
86881 On ch=6 n=40 v=0
88320 On ch=6 n=40 v=127
88810 On ch=6 n=40 v=0
90240 On ch=6 n=40 v=127
90721 On ch=6 n=40 v=0
92160 On ch=6 n=40 v=127
92650 On ch=6 n=40 v=0
94080 On ch=6 n=40 v=127
94561 On ch=6 n=40 v=0
96000 On ch=6 n=40 v=127
96490 On ch=6 n=40 v=0
97920 On ch=6 n=40 v=127
98401 On ch=6 n=40 v=0
99840 On ch=6 n=40 v=127
100330 On ch=6 n=40 v=0
101760 On ch=6 n=40 v=127
102241 On ch=6 n=40 v=0
103680 On ch=6 n=40 v=127
104170 On ch=6 n=40 v=0
105600 On ch=6 n=40 v=127
106081 On ch=6 n=40 v=0
107520 On ch=6 n=40 v=127
108010 On ch=6 n=40 v=0
109440 On ch=6 n=40 v=127
109921 On ch=6 n=40 v=0
111360 On ch=6 n=40 v=127
111850 On ch=6 n=40 v=0
113280 On ch=6 n=40 v=127
113761 On ch=6 n=40 v=0
115200 On ch=6 n=40 v=127
115690 On ch=6 n=40 v=0
117120 On ch=6 n=40 v=127
117601 On ch=6 n=40 v=0
119040 On ch=6 n=40 v=127
119530 On ch=6 n=40 v=0
120960 On ch=6 n=40 v=127
121441 On ch=6 n=40 v=0
122880 On ch=6 n=40 v=127
123370 On ch=6 n=40 v=0
124800 On ch=6 n=40 v=127
125281 On ch=6 n=40 v=0
126720 On ch=6 n=40 v=127
127210 On ch=6 n=40 v=0
128640 On ch=6 n=40 v=127
129121 On ch=6 n=40 v=0
130560 On ch=6 n=40 v=127
131050 On ch=6 n=40 v=0
132480 On ch=6 n=40 v=127
132961 On ch=6 n=40 v=0
134400 On ch=6 n=40 v=127
134890 On ch=6 n=40 v=0
136320 On ch=6 n=40 v=127
136801 On ch=6 n=40 v=0
138240 On ch=6 n=40 v=127
138730 On ch=6 n=40 v=0
140160 On ch=6 n=40 v=127
140641 On ch=6 n=40 v=0
142080 On ch=6 n=40 v=127
142570 On ch=6 n=40 v=0
144000 On ch=6 n=40 v=127
144481 On ch=6 n=40 v=0
145920 On ch=6 n=40 v=127
146410 On ch=6 n=40 v=0
147840 On ch=6 n=40 v=127
148321 On ch=6 n=40 v=0
149760 On ch=6 n=40 v=127
150250 On ch=6 n=40 v=0
151680 On ch=6 n=40 v=127
152161 On ch=6 n=40 v=0
153600 On ch=6 n=40 v=127
154090 On ch=6 n=40 v=0
155520 On ch=6 n=40 v=127
156001 On ch=6 n=40 v=0
157440 On ch=6 n=40 v=127
157930 On ch=6 n=40 v=0
159360 On ch=6 n=40 v=127
159841 On ch=6 n=40 v=0
161280 On ch=6 n=40 v=127
161770 On ch=6 n=40 v=0
163200 On ch=6 n=40 v=127
163681 On ch=6 n=40 v=0
165120 On ch=6 n=40 v=127
165610 On ch=6 n=40 v=0
167040 On ch=6 n=40 v=127
167521 On ch=6 n=40 v=0
168960 On ch=6 n=40 v=127
169450 On ch=6 n=40 v=0
170880 On ch=6 n=40 v=127
171361 On ch=6 n=40 v=0
172800 On ch=6 n=40 v=127
173290 On ch=6 n=40 v=0
174720 On ch=6 n=40 v=127
175201 On ch=6 n=40 v=0
176640 On ch=6 n=40 v=127
177121 On ch=6 n=40 v=0
178560 On ch=6 n=40 v=127
179050 On ch=6 n=40 v=0
180480 On ch=6 n=40 v=127
180961 On ch=6 n=40 v=0
182400 On ch=6 n=40 v=127
182890 On ch=6 n=40 v=0
184320 On ch=6 n=40 v=127
184801 On ch=6 n=40 v=0
186258 On ch=6 n=40 v=117
188132 On ch=6 n=40 v=0
188167 On ch=6 n=37 v=113
190007 On ch=6 n=37 v=0
190099 On ch=6 n=35 v=120
192000 On ch=6 n=35 v=0
192030 On ch=6 n=33 v=117
193837 On ch=6 n=33 v=0
193955 On ch=6 n=32 v=113
195812 On ch=6 n=32 v=0
195889 On ch=6 n=30 v=127
197752 On ch=6 n=30 v=0
197786 On ch=6 n=32 v=127
199587 On ch=6 n=32 v=0
199700 On ch=6 n=33 v=117
201542 On ch=6 n=33 v=0
201618 On ch=6 n=40 v=127
203389 On ch=6 n=40 v=0
203536 On ch=6 n=37 v=116
205329 On ch=6 n=37 v=0
205438 On ch=6 n=35 v=125
207222 On ch=6 n=35 v=0
207378 On ch=6 n=33 v=127
209167 On ch=6 n=33 v=0
209295 On ch=6 n=32 v=116
211078 On ch=6 n=32 v=0
211221 On ch=6 n=30 v=127
212937 On ch=6 n=30 v=0
213142 On ch=6 n=32 v=119
214809 On ch=6 n=32 v=0
215072 On ch=6 n=33 v=127
215779 On ch=6 n=33 v=0
216029 On ch=6 n=35 v=125
216602 On ch=6 n=35 v=0
216980 On ch=6 n=28 v=120
218722 On ch=6 n=28 v=0
218882 On ch=6 n=30 v=127
220686 On ch=6 n=30 v=0
220809 On ch=6 n=32 v=123
222542 On ch=6 n=32 v=0
222727 On ch=6 n=33 v=89
226560 On ch=6 n=33 v=0
226560 Meta TrkEnd
TrkEnd
MTrk
0 Meta 0x21 00
0 Meta TrkName "Kaye Ocarina"
0 PrCh ch=7 p=79
0 Par ch=7 c=7 v=70
0 Par ch=7 c=10 v=100
1205 Par ch=7 c=91 v=40
1210 Par ch=7 c=93 v=0
1215 Par ch=7 c=101 v=0
1215 Par ch=7 c=100 v=0
1215 Par ch=7 c=6 v=2
1220 Par ch=7 c=99 v=1
1220 Par ch=7 c=98 v=8
1220 Par ch=7 c=6 v=64
1225 Par ch=7 c=99 v=1
1225 Par ch=7 c=98 v=9
1225 Par ch=7 c=6 v=64
1230 Par ch=7 c=99 v=1
1230 Par ch=7 c=98 v=10
1230 Par ch=7 c=6 v=64
1235 Par ch=7 c=99 v=1
1235 Par ch=7 c=98 v=32
1235 Par ch=7 c=6 v=64
1240 Par ch=7 c=99 v=1
1240 Par ch=7 c=98 v=33
1240 Par ch=7 c=6 v=64
1245 Par ch=7 c=99 v=1
1245 Par ch=7 c=98 v=99
1245 Par ch=7 c=6 v=64
1250 Par ch=7 c=99 v=1
1250 Par ch=7 c=98 v=100
1250 Par ch=7 c=6 v=64
1255 Par ch=7 c=99 v=1
1255 Par ch=7 c=98 v=102
1255 Par ch=7 c=6 v=64
13440 Pb ch=7 v=8192
13440 Par ch=7 c=1 v=0
13440 Par ch=7 c=64 v=0
13440 Par ch=7 c=11 v=127
13440 Par ch=7 c=91 v=64
13440 Par ch=7 c=93 v=64
98400 On ch=7 n=76 v=110
98400 On ch=7 n=80 v=106
98400 On ch=7 n=83 v=110
100244 On ch=7 n=76 v=0
100254 On ch=7 n=80 v=0
100269 On ch=7 n=83 v=0
100320 On ch=7 n=73 v=109
100320 On ch=7 n=78 v=108
100320 On ch=7 n=81 v=109
101747 On ch=7 n=81 v=0
101747 On ch=7 n=73 v=0
101752 On ch=7 n=78 v=0
101760 On ch=7 n=71 v=109
101760 On ch=7 n=80 v=102
101760 On ch=7 n=75 v=103
104030 On ch=7 n=75 v=0
104040 On ch=7 n=71 v=0
104045 On ch=7 n=80 v=0
104160 On ch=7 n=81 v=109
104160 On ch=7 n=78 v=109
104160 On ch=7 n=73 v=109
104320 On ch=7 n=73 v=0
104320 On ch=7 n=78 v=0
104400 On ch=7 n=81 v=0
104400 On ch=7 n=80 v=109
104560 On ch=7 n=80 v=0
104640 On ch=7 n=73 v=109
104640 On ch=7 n=78 v=109
104640 On ch=7 n=81 v=109
104750 On ch=7 n=81 v=0
104760 On ch=7 n=78 v=0
104765 On ch=7 n=73 v=0
104880 On ch=7 n=76 v=106
104880 On ch=7 n=81 v=107
104880 On ch=7 n=85 v=108
105587 On ch=7 n=76 v=0
105592 On ch=7 n=85 v=0
105592 On ch=7 n=81 v=0
106080 On ch=7 n=76 v=110
106080 On ch=7 n=80 v=106
106080 On ch=7 n=83 v=110
107924 On ch=7 n=76 v=0
107934 On ch=7 n=80 v=0
107949 On ch=7 n=83 v=0
108000 On ch=7 n=73 v=109
108000 On ch=7 n=78 v=108
108000 On ch=7 n=81 v=109
109427 On ch=7 n=81 v=0
109427 On ch=7 n=73 v=0
109432 On ch=7 n=78 v=0
109440 On ch=7 n=71 v=109
109440 On ch=7 n=80 v=102
109440 On ch=7 n=75 v=103
111710 On ch=7 n=75 v=0
111720 On ch=7 n=71 v=0
111725 On ch=7 n=80 v=0
111840 On ch=7 n=81 v=109
111840 On ch=7 n=78 v=109
111840 On ch=7 n=73 v=109
112000 On ch=7 n=73 v=0
112000 On ch=7 n=78 v=0
112080 On ch=7 n=81 v=0
112080 On ch=7 n=80 v=109
112240 On ch=7 n=80 v=0
112320 On ch=7 n=73 v=109
112320 On ch=7 n=78 v=109
112320 On ch=7 n=81 v=109
112430 On ch=7 n=81 v=0
112440 On ch=7 n=78 v=0
112445 On ch=7 n=73 v=0
112560 On ch=7 n=76 v=106
112560 On ch=7 n=81 v=107
112560 On ch=7 n=85 v=108
113267 On ch=7 n=76 v=0
113272 On ch=7 n=85 v=0
113272 On ch=7 n=81 v=0
113760 On ch=7 n=76 v=110
113760 On ch=7 n=80 v=106
113760 On ch=7 n=83 v=110
115604 On ch=7 n=76 v=0
115614 On ch=7 n=80 v=0
115629 On ch=7 n=83 v=0
115680 On ch=7 n=73 v=109
115680 On ch=7 n=78 v=108
115680 On ch=7 n=81 v=109
117107 On ch=7 n=81 v=0
117107 On ch=7 n=73 v=0
117112 On ch=7 n=78 v=0
117120 On ch=7 n=71 v=109
117120 On ch=7 n=80 v=102
117120 On ch=7 n=75 v=103
119390 On ch=7 n=75 v=0
119400 On ch=7 n=71 v=0
119405 On ch=7 n=80 v=0
119520 On ch=7 n=81 v=109
119520 On ch=7 n=78 v=109
119520 On ch=7 n=73 v=109
119680 On ch=7 n=73 v=0
119680 On ch=7 n=78 v=0
119760 On ch=7 n=81 v=0
119760 On ch=7 n=80 v=109
119920 On ch=7 n=80 v=0
120000 On ch=7 n=73 v=109
120000 On ch=7 n=78 v=109
120000 On ch=7 n=81 v=109
120110 On ch=7 n=81 v=0
120120 On ch=7 n=78 v=0
120125 On ch=7 n=73 v=0
120240 On ch=7 n=76 v=106
120240 On ch=7 n=81 v=107
120240 On ch=7 n=85 v=108
120947 On ch=7 n=76 v=0
120952 On ch=7 n=85 v=0
120952 On ch=7 n=81 v=0
121440 On ch=7 n=76 v=110
121440 On ch=7 n=80 v=106
121440 On ch=7 n=83 v=110
123284 On ch=7 n=76 v=0
123294 On ch=7 n=80 v=0
123309 On ch=7 n=83 v=0
123360 On ch=7 n=73 v=109
123360 On ch=7 n=78 v=108
123360 On ch=7 n=81 v=109
124787 On ch=7 n=81 v=0
124787 On ch=7 n=73 v=0
124792 On ch=7 n=78 v=0
124800 On ch=7 n=71 v=109
124800 On ch=7 n=80 v=102
124800 On ch=7 n=75 v=103
127070 On ch=7 n=75 v=0
127080 On ch=7 n=71 v=0
127085 On ch=7 n=80 v=0
127200 On ch=7 n=81 v=109
127200 On ch=7 n=78 v=109
127200 On ch=7 n=73 v=109
127360 On ch=7 n=73 v=0
127360 On ch=7 n=78 v=0
127440 On ch=7 n=81 v=0
127440 On ch=7 n=80 v=109
127600 On ch=7 n=80 v=0
127680 On ch=7 n=73 v=109
127680 On ch=7 n=78 v=109
127680 On ch=7 n=81 v=109
127790 On ch=7 n=81 v=0
127800 On ch=7 n=78 v=0
127805 On ch=7 n=73 v=0
127920 On ch=7 n=76 v=106
127920 On ch=7 n=81 v=107
127920 On ch=7 n=85 v=108
128627 On ch=7 n=76 v=0
128632 On ch=7 n=85 v=0
128632 On ch=7 n=81 v=0
128640 On ch=7 n=81 v=109
128640 On ch=7 n=78 v=109
128640 On ch=7 n=73 v=109
128800 On ch=7 n=73 v=0
128800 On ch=7 n=78 v=0
128880 On ch=7 n=81 v=0
128880 On ch=7 n=80 v=109
129040 On ch=7 n=80 v=0
129120 On ch=7 n=73 v=109
129120 On ch=7 n=78 v=109
129120 On ch=7 n=81 v=109
129230 On ch=7 n=81 v=0
129240 On ch=7 n=78 v=0
129245 On ch=7 n=73 v=0
129360 On ch=7 n=76 v=106
129360 On ch=7 n=81 v=107
129360 On ch=7 n=85 v=108
130067 On ch=7 n=76 v=0
130072 On ch=7 n=85 v=0
130072 On ch=7 n=81 v=0
150240 On ch=7 n=83 v=109
150240 On ch=7 n=80 v=109
150240 On ch=7 n=76 v=109
151350 On ch=7 n=76 v=0
151350 On ch=7 n=80 v=0
151350 On ch=7 n=83 v=0
152160 On ch=7 n=85 v=109
152160 On ch=7 n=81 v=109
152160 On ch=7 n=73 v=109
153270 On ch=7 n=73 v=0
153270 On ch=7 n=81 v=0
153270 On ch=7 n=85 v=0
153600 On ch=7 n=80 v=109
153600 On ch=7 n=75 v=109
153600 On ch=7 n=71 v=109
154870 On ch=7 n=71 v=0
154870 On ch=7 n=75 v=0
154870 On ch=7 n=80 v=0
156000 On ch=7 n=81 v=109
156000 On ch=7 n=78 v=109
156000 On ch=7 n=73 v=109
156160 On ch=7 n=73 v=0
156160 On ch=7 n=78 v=0
156240 On ch=7 n=81 v=0
156240 On ch=7 n=80 v=109
156400 On ch=7 n=80 v=0
156480 On ch=7 n=81 v=109
156480 On ch=7 n=78 v=109
156480 On ch=7 n=73 v=109
156640 On ch=7 n=73 v=0
156640 On ch=7 n=78 v=0
156640 On ch=7 n=81 v=0
156720 On ch=7 n=85 v=109
156720 On ch=7 n=81 v=109
156720 On ch=7 n=76 v=109
157280 On ch=7 n=76 v=0
157280 On ch=7 n=81 v=0
157280 On ch=7 n=85 v=0
157920 On ch=7 n=83 v=109
157920 On ch=7 n=80 v=109
157920 On ch=7 n=76 v=109
159030 On ch=7 n=76 v=0
159030 On ch=7 n=80 v=0
159030 On ch=7 n=83 v=0
159840 On ch=7 n=83 v=109
159840 On ch=7 n=80 v=109
159840 On ch=7 n=76 v=109
160950 On ch=7 n=76 v=0
160950 On ch=7 n=80 v=0
160950 On ch=7 n=83 v=0
161280 On ch=7 n=80 v=109
161280 On ch=7 n=75 v=109
161280 On ch=7 n=71 v=109
162550 On ch=7 n=71 v=0
162550 On ch=7 n=75 v=0
162550 On ch=7 n=80 v=0
163680 On ch=7 n=81 v=109
163680 On ch=7 n=78 v=109
163680 On ch=7 n=73 v=109
163840 On ch=7 n=73 v=0
163840 On ch=7 n=78 v=0
163920 On ch=7 n=81 v=0
163920 On ch=7 n=80 v=109
164080 On ch=7 n=80 v=0
164160 On ch=7 n=81 v=109
164160 On ch=7 n=78 v=109
164160 On ch=7 n=73 v=109
164320 On ch=7 n=73 v=0
164320 On ch=7 n=78 v=0
164320 On ch=7 n=81 v=0
164400 On ch=7 n=85 v=109
164400 On ch=7 n=81 v=109
164400 On ch=7 n=76 v=109
164960 On ch=7 n=76 v=0
164960 On ch=7 n=81 v=0
164960 On ch=7 n=85 v=0
165600 On ch=7 n=83 v=109
165600 On ch=7 n=80 v=109
165600 On ch=7 n=76 v=109
166710 On ch=7 n=76 v=0
166710 On ch=7 n=80 v=0
166710 On ch=7 n=83 v=0
167520 On ch=7 n=81 v=109
167520 On ch=7 n=78 v=109
167520 On ch=7 n=73 v=109
168470 On ch=7 n=73 v=0
168470 On ch=7 n=78 v=0
168470 On ch=7 n=81 v=0
168960 On ch=7 n=80 v=109
168960 On ch=7 n=75 v=109
168960 On ch=7 n=71 v=109
170230 On ch=7 n=71 v=0
170230 On ch=7 n=75 v=0
170230 On ch=7 n=80 v=0
171360 On ch=7 n=81 v=109
171360 On ch=7 n=78 v=109
171360 On ch=7 n=73 v=109
171520 On ch=7 n=73 v=0
171520 On ch=7 n=78 v=0
171600 On ch=7 n=81 v=0
171600 On ch=7 n=80 v=109
171760 On ch=7 n=80 v=0
171840 On ch=7 n=81 v=109
171840 On ch=7 n=78 v=109
171840 On ch=7 n=73 v=109
172000 On ch=7 n=73 v=0
172000 On ch=7 n=78 v=0
172000 On ch=7 n=81 v=0
172080 On ch=7 n=85 v=109
172080 On ch=7 n=81 v=109
172080 On ch=7 n=76 v=109
172640 On ch=7 n=76 v=0
172640 On ch=7 n=81 v=0
172640 On ch=7 n=85 v=0
173280 On ch=7 n=83 v=109
173280 On ch=7 n=80 v=109
173280 On ch=7 n=76 v=109
174230 On ch=7 n=76 v=0
174230 On ch=7 n=80 v=0
174230 On ch=7 n=83 v=0
175200 On ch=7 n=81 v=109
175200 On ch=7 n=78 v=109
175200 On ch=7 n=73 v=109
176310 On ch=7 n=73 v=0
176310 On ch=7 n=78 v=0
176310 On ch=7 n=81 v=0
176640 On ch=7 n=80 v=109
176640 On ch=7 n=75 v=109
176640 On ch=7 n=71 v=109
177910 On ch=7 n=71 v=0
177910 On ch=7 n=75 v=0
177910 On ch=7 n=80 v=0
179040 On ch=7 n=81 v=109
179040 On ch=7 n=78 v=109
179040 On ch=7 n=73 v=109
179200 On ch=7 n=73 v=0
179200 On ch=7 n=78 v=0
179280 On ch=7 n=81 v=0
179280 On ch=7 n=80 v=109
179440 On ch=7 n=80 v=0
179520 On ch=7 n=81 v=109
179520 On ch=7 n=78 v=109
179520 On ch=7 n=73 v=109
179680 On ch=7 n=73 v=0
179680 On ch=7 n=78 v=0
179680 On ch=7 n=81 v=0
179760 On ch=7 n=85 v=109
179760 On ch=7 n=81 v=109
179760 On ch=7 n=76 v=109
180320 On ch=7 n=76 v=0
180320 On ch=7 n=81 v=0
180320 On ch=7 n=85 v=0
180480 On ch=7 n=81 v=109
180480 On ch=7 n=78 v=109
180480 On ch=7 n=73 v=109
180640 On ch=7 n=73 v=0
180640 On ch=7 n=78 v=0
180720 On ch=7 n=81 v=0
180720 On ch=7 n=80 v=109
180880 On ch=7 n=80 v=0
180960 On ch=7 n=81 v=109
180960 On ch=7 n=78 v=109
180960 On ch=7 n=73 v=109
181120 On ch=7 n=73 v=0
181120 On ch=7 n=78 v=0
181120 On ch=7 n=81 v=0
181200 On ch=7 n=85 v=109
181200 On ch=7 n=81 v=109
181200 On ch=7 n=76 v=109
182070 On ch=7 n=76 v=0
182070 On ch=7 n=81 v=0
182070 On ch=7 n=85 v=0
186240 Par ch=7 c=7 v=64
186480 On ch=7 n=76 v=125
186640 On ch=7 n=76 v=0
186720 On ch=7 n=71 v=125
186880 On ch=7 n=71 v=0
186960 On ch=7 n=76 v=125
187120 On ch=7 n=76 v=0
187200 On ch=7 n=71 v=125
187360 On ch=7 n=71 v=0
187440 On ch=7 n=78 v=125
187600 On ch=7 n=78 v=0
187680 On ch=7 n=71 v=125
187840 On ch=7 n=71 v=0
187920 On ch=7 n=76 v=125
188080 On ch=7 n=76 v=0
188400 On ch=7 n=73 v=125
188560 On ch=7 n=73 v=0
188640 On ch=7 n=69 v=125
188800 On ch=7 n=69 v=0
188880 On ch=7 n=73 v=125
189040 On ch=7 n=73 v=0
189120 On ch=7 n=69 v=125
189280 On ch=7 n=69 v=0
189360 On ch=7 n=73 v=125
189520 On ch=7 n=73 v=0
189600 On ch=7 n=69 v=125
189760 On ch=7 n=69 v=0
189840 On ch=7 n=73 v=125
190000 On ch=7 n=73 v=0
190320 On ch=7 n=76 v=125
190480 On ch=7 n=76 v=0
190560 On ch=7 n=71 v=125
190720 On ch=7 n=71 v=0
190800 On ch=7 n=76 v=125
190960 On ch=7 n=76 v=0
191040 On ch=7 n=71 v=125
191200 On ch=7 n=71 v=0
191280 On ch=7 n=76 v=125
191440 On ch=7 n=76 v=0
191520 On ch=7 n=71 v=125
191680 On ch=7 n=71 v=0
191760 On ch=7 n=76 v=125
191920 On ch=7 n=76 v=0
192240 On ch=7 n=73 v=125
192400 On ch=7 n=73 v=0
192480 On ch=7 n=69 v=125
192640 On ch=7 n=69 v=0
192720 On ch=7 n=73 v=125
192880 On ch=7 n=73 v=0
192960 On ch=7 n=69 v=125
193120 On ch=7 n=69 v=0
193200 On ch=7 n=75 v=125
193360 On ch=7 n=75 v=0
193440 On ch=7 n=69 v=125
193600 On ch=7 n=69 v=0
193680 On ch=7 n=73 v=125
193840 On ch=7 n=73 v=0
193920 On ch=7 n=71 v=125
194080 On ch=7 n=71 v=0
194160 On ch=7 n=76 v=125
194320 On ch=7 n=76 v=0
194400 On ch=7 n=71 v=125
194560 On ch=7 n=71 v=0
194640 On ch=7 n=76 v=125
194800 On ch=7 n=76 v=0
194880 On ch=7 n=71 v=125
195040 On ch=7 n=71 v=0
195120 On ch=7 n=76 v=125
195280 On ch=7 n=76 v=0
195360 On ch=7 n=71 v=125
195520 On ch=7 n=71 v=0
195600 On ch=7 n=76 v=125
195760 On ch=7 n=76 v=0
195840 On ch=7 n=69 v=125
196000 On ch=7 n=69 v=0
196080 On ch=7 n=73 v=125
196240 On ch=7 n=73 v=0
196320 On ch=7 n=69 v=125
196480 On ch=7 n=69 v=0
196560 On ch=7 n=73 v=125
196720 On ch=7 n=73 v=0
196800 On ch=7 n=69 v=125
196960 On ch=7 n=69 v=0
197040 On ch=7 n=73 v=125
197200 On ch=7 n=73 v=0
197280 On ch=7 n=69 v=125
197440 On ch=7 n=69 v=0
197520 On ch=7 n=73 v=125
197680 On ch=7 n=73 v=0
197760 On ch=7 n=71 v=125
197920 On ch=7 n=71 v=0
198000 On ch=7 n=76 v=125
198160 On ch=7 n=76 v=0
198240 On ch=7 n=71 v=125
198400 On ch=7 n=71 v=0
198480 On ch=7 n=76 v=125
198640 On ch=7 n=76 v=0
198720 On ch=7 n=71 v=125
198880 On ch=7 n=71 v=0
198960 On ch=7 n=76 v=125
199120 On ch=7 n=76 v=0
199200 On ch=7 n=71 v=125
199360 On ch=7 n=71 v=0
199440 On ch=7 n=76 v=125
199600 On ch=7 n=76 v=0
199680 On ch=7 n=73 v=125
199840 On ch=7 n=73 v=0
199920 On ch=7 n=76 v=125
200080 On ch=7 n=76 v=0
200160 On ch=7 n=73 v=125
200320 On ch=7 n=73 v=0
200400 On ch=7 n=76 v=125
200560 On ch=7 n=76 v=0
200640 On ch=7 n=71 v=125
200800 On ch=7 n=71 v=0
200880 On ch=7 n=76 v=125
201040 On ch=7 n=76 v=0
201120 On ch=7 n=71 v=125
201280 On ch=7 n=71 v=0
201360 On ch=7 n=76 v=125
201520 On ch=7 n=76 v=0
201840 On ch=7 n=76 v=127
202000 On ch=7 n=76 v=0
202080 On ch=7 n=71 v=127
202240 On ch=7 n=71 v=0
202320 On ch=7 n=76 v=127
202480 On ch=7 n=76 v=0
202560 On ch=7 n=71 v=127
202720 On ch=7 n=71 v=0
202800 On ch=7 n=78 v=127
202960 On ch=7 n=78 v=0
203040 On ch=7 n=71 v=127
203200 On ch=7 n=71 v=0
203280 On ch=7 n=76 v=127
203440 On ch=7 n=76 v=0
203760 On ch=7 n=73 v=127
203920 On ch=7 n=73 v=0
204000 On ch=7 n=69 v=127
204160 On ch=7 n=69 v=0
204240 On ch=7 n=73 v=127
204400 On ch=7 n=73 v=0
204480 On ch=7 n=69 v=127
204640 On ch=7 n=69 v=0
204720 On ch=7 n=73 v=127
204880 On ch=7 n=73 v=0
204960 On ch=7 n=69 v=127
205120 On ch=7 n=69 v=0
205200 On ch=7 n=73 v=127
205360 On ch=7 n=73 v=0
205680 On ch=7 n=76 v=127
205840 On ch=7 n=76 v=0
205920 On ch=7 n=71 v=127
206080 On ch=7 n=71 v=0
206160 On ch=7 n=76 v=127
206320 On ch=7 n=76 v=0
206400 On ch=7 n=71 v=127
206560 On ch=7 n=71 v=0
206640 On ch=7 n=76 v=127
206800 On ch=7 n=76 v=0
206880 On ch=7 n=71 v=127
207040 On ch=7 n=71 v=0
207120 On ch=7 n=76 v=127
207280 On ch=7 n=76 v=0
207600 On ch=7 n=73 v=127
207760 On ch=7 n=73 v=0
207840 On ch=7 n=69 v=127
208000 On ch=7 n=69 v=0
208080 On ch=7 n=73 v=127
208240 On ch=7 n=73 v=0
208320 On ch=7 n=69 v=127
208480 On ch=7 n=69 v=0
208560 On ch=7 n=75 v=127
208720 On ch=7 n=75 v=0
208800 On ch=7 n=69 v=127
208960 On ch=7 n=69 v=0
209040 On ch=7 n=73 v=127
209200 On ch=7 n=73 v=0
209280 On ch=7 n=71 v=127
209440 On ch=7 n=71 v=0
209520 On ch=7 n=76 v=127
209680 On ch=7 n=76 v=0
209760 On ch=7 n=71 v=127
209920 On ch=7 n=71 v=0
210000 On ch=7 n=76 v=127
210160 On ch=7 n=76 v=0
210240 On ch=7 n=71 v=127
210400 On ch=7 n=71 v=0
210480 On ch=7 n=76 v=127
210640 On ch=7 n=76 v=0
210720 On ch=7 n=71 v=127
210880 On ch=7 n=71 v=0
210960 On ch=7 n=76 v=127
211120 On ch=7 n=76 v=0
211200 On ch=7 n=69 v=127
211360 On ch=7 n=69 v=0
211440 On ch=7 n=73 v=127
211600 On ch=7 n=73 v=0
211680 On ch=7 n=69 v=127
211840 On ch=7 n=69 v=0
211920 On ch=7 n=73 v=127
212080 On ch=7 n=73 v=0
212160 On ch=7 n=69 v=127
212320 On ch=7 n=69 v=0
212400 On ch=7 n=73 v=127
212560 On ch=7 n=73 v=0
212640 On ch=7 n=69 v=127
212800 On ch=7 n=69 v=0
212880 On ch=7 n=73 v=127
213040 On ch=7 n=73 v=0
213120 On ch=7 n=71 v=127
213280 On ch=7 n=71 v=0
213360 On ch=7 n=76 v=127
213520 On ch=7 n=76 v=0
213600 On ch=7 n=71 v=127
213760 On ch=7 n=71 v=0
213840 On ch=7 n=76 v=127
214000 On ch=7 n=76 v=0
214080 On ch=7 n=71 v=127
214240 On ch=7 n=71 v=0
214320 On ch=7 n=76 v=127
214480 On ch=7 n=76 v=0
214560 On ch=7 n=71 v=127
214720 On ch=7 n=71 v=0
214800 On ch=7 n=76 v=127
214960 On ch=7 n=76 v=0
215040 On ch=7 n=73 v=127
215200 On ch=7 n=73 v=0
215280 On ch=7 n=76 v=127
215440 On ch=7 n=76 v=0
215520 On ch=7 n=73 v=127
215680 On ch=7 n=73 v=0
215760 On ch=7 n=76 v=127
215920 On ch=7 n=76 v=0
216000 On ch=7 n=71 v=127
216160 On ch=7 n=71 v=0
216240 On ch=7 n=76 v=127
216400 On ch=7 n=76 v=0
216480 On ch=7 n=71 v=127
216640 On ch=7 n=71 v=0
216720 On ch=7 n=76 v=127
216880 On ch=7 n=76 v=0
216960 On ch=7 n=71 v=127
217120 On ch=7 n=71 v=0
217200 On ch=7 n=76 v=127
217360 On ch=7 n=76 v=0
217440 On ch=7 n=71 v=127
217600 On ch=7 n=71 v=0
217680 On ch=7 n=76 v=127
217840 On ch=7 n=76 v=0
217920 On ch=7 n=71 v=127
218080 On ch=7 n=71 v=0
218160 On ch=7 n=76 v=127
218320 On ch=7 n=76 v=0
218400 On ch=7 n=71 v=127
218560 On ch=7 n=71 v=0
218640 On ch=7 n=76 v=127
218800 On ch=7 n=76 v=0
218880 On ch=7 n=69 v=127
219040 On ch=7 n=69 v=0
219120 On ch=7 n=73 v=127
219280 On ch=7 n=73 v=0
219360 On ch=7 n=69 v=127
219520 On ch=7 n=69 v=0
219600 On ch=7 n=73 v=127
219760 On ch=7 n=73 v=0
219840 On ch=7 n=69 v=127
220000 On ch=7 n=69 v=0
220080 On ch=7 n=73 v=127
220240 On ch=7 n=73 v=0
220320 On ch=7 n=69 v=127
220480 On ch=7 n=69 v=0
220560 On ch=7 n=73 v=127
220720 On ch=7 n=73 v=0
220800 On ch=7 n=71 v=127
220960 On ch=7 n=71 v=0
221040 On ch=7 n=76 v=127
221200 On ch=7 n=76 v=0
221280 On ch=7 n=71 v=127
221440 On ch=7 n=71 v=0
221520 On ch=7 n=76 v=127
221680 On ch=7 n=76 v=0
221760 On ch=7 n=71 v=127
221920 On ch=7 n=71 v=0
222000 On ch=7 n=76 v=127
222160 On ch=7 n=76 v=0
222240 On ch=7 n=71 v=127
222560 On ch=7 n=71 v=0
222720 On ch=7 n=81 v=127
222780 On ch=7 n=81 v=0
222780 On ch=7 n=81 v=127
222840 On ch=7 n=81 v=0
222840 On ch=7 n=81 v=127
222900 On ch=7 n=81 v=0
222900 On ch=7 n=81 v=127
222960 On ch=7 n=81 v=0
222960 On ch=7 n=81 v=127
223020 On ch=7 n=81 v=0
223020 On ch=7 n=81 v=127
223080 On ch=7 n=81 v=0
223080 On ch=7 n=81 v=127
223140 On ch=7 n=81 v=0
223140 On ch=7 n=81 v=127
223200 On ch=7 n=81 v=0
223200 On ch=7 n=81 v=127
223260 On ch=7 n=81 v=0
223260 On ch=7 n=81 v=127
223320 On ch=7 n=81 v=0
223320 On ch=7 n=81 v=127
223380 On ch=7 n=81 v=0
223380 On ch=7 n=81 v=127
223440 On ch=7 n=81 v=0
223440 On ch=7 n=81 v=127
223500 On ch=7 n=81 v=0
223500 On ch=7 n=81 v=127
223560 On ch=7 n=81 v=0
223560 On ch=7 n=81 v=127
223620 On ch=7 n=81 v=0
223620 On ch=7 n=81 v=127
223680 On ch=7 n=81 v=0
223680 Meta TrkEnd
TrkEnd
MTrk
0 Meta 0x21 00
0 Meta TrkName "Kaye ChOrg."
0 PrCh ch=8 p=16
0 Par ch=8 c=7 v=120
0 Par ch=8 c=10 v=50
1285 Par ch=8 c=91 v=40
1290 Par ch=8 c=93 v=0
1295 Par ch=8 c=101 v=0
1295 Par ch=8 c=100 v=0
1295 Par ch=8 c=6 v=2
1300 Par ch=8 c=99 v=1
1300 Par ch=8 c=98 v=8
1300 Par ch=8 c=6 v=64
1305 Par ch=8 c=99 v=1
1305 Par ch=8 c=98 v=9
1305 Par ch=8 c=6 v=64
1310 Par ch=8 c=99 v=1
1310 Par ch=8 c=98 v=10
1310 Par ch=8 c=6 v=64
1315 Par ch=8 c=99 v=1
1315 Par ch=8 c=98 v=32
1315 Par ch=8 c=6 v=64
1320 Par ch=8 c=99 v=1
1320 Par ch=8 c=98 v=33
1320 Par ch=8 c=6 v=64
1325 Par ch=8 c=99 v=1
1325 Par ch=8 c=98 v=99
1325 Par ch=8 c=6 v=64
1330 Par ch=8 c=99 v=1
1330 Par ch=8 c=98 v=100
1330 Par ch=8 c=6 v=64
1335 Par ch=8 c=99 v=1
1335 Par ch=8 c=98 v=102
1335 Par ch=8 c=6 v=64
186240 On ch=8 n=68 v=113
186240 On ch=8 n=71 v=102
186240 On ch=8 n=64 v=122
186258 On ch=8 n=40 v=117
188132 On ch=8 n=40 v=0
188144 On ch=8 n=68 v=0
188145 On ch=8 n=71 v=0
188147 On ch=8 n=64 v=0
188159 On ch=8 n=64 v=102
188160 On ch=8 n=73 v=87
188161 On ch=8 n=69 v=98
188167 On ch=8 n=37 v=113
190007 On ch=8 n=37 v=0
190059 On ch=8 n=73 v=0
190063 On ch=8 n=69 v=0
190064 On ch=8 n=64 v=0
190078 On ch=8 n=75 v=99
190078 On ch=8 n=71 v=97
190079 On ch=8 n=64 v=102
190099 On ch=8 n=35 v=120
191981 On ch=8 n=75 v=0
191985 On ch=8 n=71 v=0
191985 On ch=8 n=64 v=0
191997 On ch=8 n=73 v=93
191999 On ch=8 n=69 v=106
192000 On ch=8 n=35 v=0
192000 On ch=8 n=64 v=104
192030 On ch=8 n=33 v=117
193837 On ch=8 n=33 v=0
193902 On ch=8 n=64 v=0
193904 On ch=8 n=73 v=0
193909 On ch=8 n=69 v=0
193921 On ch=8 n=64 v=94
193922 On ch=8 n=71 v=117
193923 On ch=8 n=68 v=101
193955 On ch=8 n=32 v=113
195812 On ch=8 n=32 v=0
195828 On ch=8 n=68 v=0
195832 On ch=8 n=64 v=0
195834 On ch=8 n=71 v=0
195847 On ch=8 n=66 v=107
195847 On ch=8 n=69 v=108
195848 On ch=8 n=64 v=86
195889 On ch=8 n=30 v=127
197742 On ch=8 n=66 v=0
197749 On ch=8 n=69 v=0
197749 On ch=8 n=64 v=0
197752 On ch=8 n=30 v=0
197760 On ch=8 n=71 v=112
197761 On ch=8 n=64 v=80
197762 On ch=8 n=68 v=113
197786 On ch=8 n=32 v=127
199587 On ch=8 n=32 v=0
199663 On ch=8 n=71 v=0
199665 On ch=8 n=68 v=0
199667 On ch=8 n=64 v=0
199679 On ch=8 n=73 v=101
199679 On ch=8 n=69 v=102
199679 On ch=8 n=64 v=87
199700 On ch=8 n=33 v=117
201542 On ch=8 n=33 v=0
201578 On ch=8 n=73 v=0
201580 On ch=8 n=69 v=0
201583 On ch=8 n=64 v=0
201598 On ch=8 n=71 v=114
201598 On ch=8 n=64 v=84
201600 On ch=8 n=68 v=104
201618 On ch=8 n=40 v=127
203389 On ch=8 n=40 v=0
203506 On ch=8 n=71 v=0
203508 On ch=8 n=68 v=0
203510 On ch=8 n=64 v=0
203521 On ch=8 n=73 v=104
203521 On ch=8 n=69 v=108
203522 On ch=8 n=64 v=86
203536 On ch=8 n=37 v=116
205329 On ch=8 n=37 v=0
205425 On ch=8 n=73 v=0
205429 On ch=8 n=69 v=0
205432 On ch=8 n=64 v=0
205438 On ch=8 n=35 v=125
205443 On ch=8 n=75 v=106
205444 On ch=8 n=71 v=102
205446 On ch=8 n=64 v=95
207222 On ch=8 n=35 v=0
207325 On ch=8 n=71 v=0
207328 On ch=8 n=75 v=0
207334 On ch=8 n=64 v=0
207352 On ch=8 n=73 v=89
207353 On ch=8 n=69 v=91
207355 On ch=8 n=64 v=85
207378 On ch=8 n=33 v=127
209167 On ch=8 n=33 v=0
209266 On ch=8 n=73 v=0
209269 On ch=8 n=64 v=0
209270 On ch=8 n=69 v=0
209284 On ch=8 n=68 v=107
209284 On ch=8 n=64 v=80
209285 On ch=8 n=71 v=102
209295 On ch=8 n=32 v=116
211078 On ch=8 n=32 v=0
211183 On ch=8 n=68 v=0
211188 On ch=8 n=64 v=0
211192 On ch=8 n=71 v=0
211204 On ch=8 n=69 v=97
211205 On ch=8 n=66 v=87
211205 On ch=8 n=64 v=76
211221 On ch=8 n=30 v=127
212937 On ch=8 n=30 v=0
213101 On ch=8 n=66 v=0
213105 On ch=8 n=64 v=0
213108 On ch=8 n=69 v=0
213123 On ch=8 n=71 v=112
213123 On ch=8 n=64 v=73
213124 On ch=8 n=68 v=95
213142 On ch=8 n=32 v=119
214809 On ch=8 n=32 v=0
215025 On ch=8 n=68 v=0
215031 On ch=8 n=64 v=0
215032 On ch=8 n=73 v=89
215033 On ch=8 n=71 v=0
215033 On ch=8 n=69 v=91
215035 On ch=8 n=64 v=85
215072 On ch=8 n=33 v=127
215779 On ch=8 n=33 v=0
216029 On ch=8 n=35 v=125
216602 On ch=8 n=35 v=0
216946 On ch=8 n=73 v=0
216949 On ch=8 n=64 v=0
216950 On ch=8 n=69 v=0
216965 On ch=8 n=68 v=119
216965 On ch=8 n=71 v=97
216967 On ch=8 n=64 v=114
216980 On ch=8 n=28 v=120
218722 On ch=8 n=28 v=0
218871 On ch=8 n=64 v=0
218871 On ch=8 n=71 v=0
218873 On ch=8 n=68 v=0
218882 On ch=8 n=30 v=127
218882 On ch=8 n=73 v=91
218883 On ch=8 n=69 v=94
218883 On ch=8 n=64 v=95
220686 On ch=8 n=30 v=0
220789 On ch=8 n=73 v=0
220792 On ch=8 n=64 v=0
220793 On ch=8 n=69 v=0
220804 On ch=8 n=75 v=107
220804 On ch=8 n=71 v=106
220806 On ch=8 n=64 v=98
220809 On ch=8 n=32 v=123
222542 On ch=8 n=32 v=0
222705 On ch=8 n=75 v=0
222711 On ch=8 n=64 v=0
222711 On ch=8 n=71 v=0
222726 On ch=8 n=73 v=101
222726 On ch=8 n=69 v=92
222727 On ch=8 n=33 v=89
222727 On ch=8 n=64 v=104
222727 On ch=8 n=76 v=102
223185 On ch=8 n=64 v=0
223187 On ch=8 n=73 v=0
223187 On ch=8 n=76 v=0
223188 On ch=8 n=69 v=0
223203 On ch=8 n=64 v=106
223203 On ch=8 n=73 v=101
223203 On ch=8 n=76 v=102
223204 On ch=8 n=69 v=90
226555 On ch=8 n=64 v=0
226556 On ch=8 n=76 v=0
226556 On ch=8 n=73 v=0
226557 On ch=8 n=69 v=0
226560 On ch=8 n=33 v=0
226560 Meta TrkEnd
TrkEnd
MTrk
0 Meta 0x21 00
0 Meta TrkName "Bruford BD"
0 PrCh ch=9 p=116
0 Par ch=9 c=7 v=127
0 Par ch=9 c=10 v=64
1365 Par ch=9 c=91 v=40
1370 Par ch=9 c=93 v=0
1375 Par ch=9 c=101 v=0
1375 Par ch=9 c=100 v=0
1375 Par ch=9 c=6 v=2
1380 Par ch=9 c=99 v=1
1380 Par ch=9 c=98 v=8
1380 Par ch=9 c=6 v=64
1385 Par ch=9 c=99 v=1
1385 Par ch=9 c=98 v=9
1385 Par ch=9 c=6 v=64
1390 Par ch=9 c=99 v=1
1390 Par ch=9 c=98 v=10
1390 Par ch=9 c=6 v=64
1395 Par ch=9 c=99 v=1
1395 Par ch=9 c=98 v=32
1395 Par ch=9 c=6 v=64
1400 Par ch=9 c=99 v=1
1400 Par ch=9 c=98 v=33
1400 Par ch=9 c=6 v=64
1405 Par ch=9 c=99 v=1
1405 Par ch=9 c=98 v=99
1405 Par ch=9 c=6 v=64
1410 Par ch=9 c=99 v=1
1410 Par ch=9 c=98 v=100
1410 Par ch=9 c=6 v=64
1415 Par ch=9 c=99 v=1
1415 Par ch=9 c=98 v=102
1415 Par ch=9 c=6 v=64
38401 On ch=9 n=45 v=127
39839 On ch=9 n=45 v=0
40320 On ch=9 n=45 v=127
41759 On ch=9 n=45 v=0
42242 On ch=9 n=45 v=127
43679 On ch=9 n=45 v=0
44161 On ch=9 n=45 v=127
45599 On ch=9 n=45 v=0
46080 On ch=9 n=45 v=127
47519 On ch=9 n=45 v=0
48001 On ch=9 n=45 v=127
49439 On ch=9 n=45 v=0
49921 On ch=9 n=45 v=127
51358 On ch=9 n=45 v=0
51840 On ch=9 n=45 v=127
53278 On ch=9 n=45 v=0
53760 On ch=9 n=45 v=127
55199 On ch=9 n=45 v=0
55681 On ch=9 n=45 v=126
57118 On ch=9 n=45 v=0
57600 On ch=9 n=45 v=127
59039 On ch=9 n=45 v=0
59521 On ch=9 n=45 v=127
60958 On ch=9 n=45 v=0
61441 On ch=9 n=45 v=127
62879 On ch=9 n=45 v=0
63360 On ch=9 n=45 v=127
64799 On ch=9 n=45 v=0
65282 On ch=9 n=45 v=127
66719 On ch=9 n=45 v=0
67201 On ch=9 n=45 v=127
68639 On ch=9 n=45 v=0
69120 On ch=9 n=45 v=127
70559 On ch=9 n=45 v=0
71041 On ch=9 n=45 v=127
72479 On ch=9 n=45 v=0
72961 On ch=9 n=45 v=127
74398 On ch=9 n=45 v=0
74880 On ch=9 n=45 v=127
76318 On ch=9 n=45 v=0
76800 On ch=9 n=45 v=127
78239 On ch=9 n=45 v=0
78721 On ch=9 n=45 v=126
80158 On ch=9 n=45 v=0
80640 On ch=9 n=45 v=127
82079 On ch=9 n=45 v=0
82561 On ch=9 n=45 v=127
83998 On ch=9 n=45 v=0
84481 On ch=9 n=45 v=127
85919 On ch=9 n=45 v=0
86400 On ch=9 n=45 v=127
87839 On ch=9 n=45 v=0
88322 On ch=9 n=45 v=127
89759 On ch=9 n=45 v=0
90241 On ch=9 n=45 v=127
91679 On ch=9 n=45 v=0
92160 On ch=9 n=45 v=127
93599 On ch=9 n=45 v=0
94081 On ch=9 n=45 v=127
95519 On ch=9 n=45 v=0
96001 On ch=9 n=45 v=127
97438 On ch=9 n=45 v=0
97920 On ch=9 n=45 v=127
99358 On ch=9 n=45 v=0
99840 On ch=9 n=45 v=127
101279 On ch=9 n=45 v=0
101761 On ch=9 n=45 v=126
103198 On ch=9 n=45 v=0
103680 On ch=9 n=45 v=127
105119 On ch=9 n=45 v=0
105601 On ch=9 n=45 v=127
107038 On ch=9 n=45 v=0
107521 On ch=9 n=45 v=127
108959 On ch=9 n=45 v=0
109440 On ch=9 n=45 v=127
110879 On ch=9 n=45 v=0
111362 On ch=9 n=45 v=127
112799 On ch=9 n=45 v=0
113281 On ch=9 n=45 v=127
114719 On ch=9 n=45 v=0
115200 On ch=9 n=45 v=127
116639 On ch=9 n=45 v=0
117121 On ch=9 n=45 v=127
118559 On ch=9 n=45 v=0
119041 On ch=9 n=45 v=127
120478 On ch=9 n=45 v=0
120960 On ch=9 n=45 v=127
122398 On ch=9 n=45 v=0
122880 On ch=9 n=45 v=127
124319 On ch=9 n=45 v=0
124801 On ch=9 n=45 v=126
126238 On ch=9 n=45 v=0
126720 On ch=9 n=45 v=127
128159 On ch=9 n=45 v=0
128641 On ch=9 n=45 v=127
130078 On ch=9 n=45 v=0
130561 On ch=9 n=45 v=127
131999 On ch=9 n=45 v=0
132480 On ch=9 n=45 v=127
133919 On ch=9 n=45 v=0
134402 On ch=9 n=45 v=127
135839 On ch=9 n=45 v=0
136321 On ch=9 n=45 v=127
137759 On ch=9 n=45 v=0
138240 On ch=9 n=45 v=127
139679 On ch=9 n=45 v=0
140161 On ch=9 n=45 v=127
141599 On ch=9 n=45 v=0
142081 On ch=9 n=45 v=127
143518 On ch=9 n=45 v=0
144000 On ch=9 n=45 v=127
145438 On ch=9 n=45 v=0
145920 On ch=9 n=45 v=127
147359 On ch=9 n=45 v=0
147841 On ch=9 n=45 v=126
149278 On ch=9 n=45 v=0
149760 On ch=9 n=45 v=127
151199 On ch=9 n=45 v=0
151681 On ch=9 n=45 v=127
153118 On ch=9 n=45 v=0
153601 On ch=9 n=45 v=127
155039 On ch=9 n=45 v=0
155520 On ch=9 n=45 v=127
156959 On ch=9 n=45 v=0
157442 On ch=9 n=45 v=127
158879 On ch=9 n=45 v=0
159361 On ch=9 n=45 v=127
160799 On ch=9 n=45 v=0
161280 On ch=9 n=45 v=127
162719 On ch=9 n=45 v=0
163201 On ch=9 n=45 v=127
164639 On ch=9 n=45 v=0
165121 On ch=9 n=45 v=127
166558 On ch=9 n=45 v=0
167040 On ch=9 n=45 v=127
168478 On ch=9 n=45 v=0
168960 On ch=9 n=45 v=127
170399 On ch=9 n=45 v=0
170881 On ch=9 n=45 v=126
172318 On ch=9 n=45 v=0
172800 On ch=9 n=45 v=127
174239 On ch=9 n=45 v=0
174721 On ch=9 n=45 v=127
176158 On ch=9 n=45 v=0
176640 On ch=9 n=45 v=127
178079 On ch=9 n=45 v=0
178561 On ch=9 n=45 v=126
179998 On ch=9 n=45 v=0
180480 On ch=9 n=45 v=127
181919 On ch=9 n=45 v=0
182401 On ch=9 n=45 v=127
183838 On ch=9 n=45 v=0
184320 On ch=9 n=45 v=127
185759 On ch=9 n=45 v=0
185759 Meta TrkEnd
TrkEnd
MTrk
0 Meta 0x21 00
0 Meta TrkName "Bruford"
1420 PrCh ch=10 p=0
1425 Par ch=10 c=7 v=80
1430 Par ch=10 c=10 v=64
1435 Par ch=10 c=91 v=40
1440 Par ch=10 c=93 v=0
1445 Par ch=10 c=101 v=0
1445 Par ch=10 c=100 v=0
1445 Par ch=10 c=6 v=2
1450 Par ch=10 c=99 v=1
1450 Par ch=10 c=98 v=8
1450 Par ch=10 c=6 v=64
1455 Par ch=10 c=99 v=1
1455 Par ch=10 c=98 v=9
1455 Par ch=10 c=6 v=64
1460 Par ch=10 c=99 v=1
1460 Par ch=10 c=98 v=10
1460 Par ch=10 c=6 v=64
1465 Par ch=10 c=99 v=1
1465 Par ch=10 c=98 v=32
1465 Par ch=10 c=6 v=64
1470 Par ch=10 c=99 v=1
1470 Par ch=10 c=98 v=33
1470 Par ch=10 c=6 v=64
1475 Par ch=10 c=99 v=1
1475 Par ch=10 c=98 v=99
1475 Par ch=10 c=6 v=64
1480 Par ch=10 c=99 v=1
1480 Par ch=10 c=98 v=100
1480 Par ch=10 c=6 v=64
1485 Par ch=10 c=99 v=1
1485 Par ch=10 c=98 v=102
1485 Par ch=10 c=6 v=64
2400 Par ch=10 c=7 v=90
13440 Pb ch=10 v=8192
13440 Par ch=10 c=1 v=0
13440 Par ch=10 c=0 v=0
13440 Par ch=10 c=32 v=0
13440 PrCh ch=10 p=0
13440 Par ch=10 c=64 v=0
13440 Par ch=10 c=10 v=64
13440 Par ch=10 c=11 v=127
13440 Par ch=10 c=91 v=64
13440 Par ch=10 c=93 v=64
74880 On ch=10 n=82 v=113
75077 On ch=10 n=82 v=0
75120 On ch=10 n=69 v=88
75247 On ch=10 n=69 v=0
75360 On ch=10 n=82 v=114
75564 On ch=10 n=82 v=0
75600 On ch=10 n=69 v=88
75724 On ch=10 n=69 v=0
75840 On ch=10 n=82 v=112
76062 On ch=10 n=82 v=0
76080 On ch=10 n=69 v=88
76204 On ch=10 n=69 v=0
76320 On ch=10 n=82 v=114
76526 On ch=10 n=82 v=0
76560 On ch=10 n=69 v=88
76698 On ch=10 n=69 v=0
76800 On ch=10 n=82 v=113
76997 On ch=10 n=82 v=0
77040 On ch=10 n=69 v=88
77167 On ch=10 n=69 v=0
77280 On ch=10 n=82 v=114
77484 On ch=10 n=82 v=0
77520 On ch=10 n=69 v=88
77644 On ch=10 n=69 v=0
77760 On ch=10 n=82 v=112
77982 On ch=10 n=82 v=0
78000 On ch=10 n=69 v=88
78124 On ch=10 n=69 v=0
78240 On ch=10 n=82 v=114
78446 On ch=10 n=82 v=0
78480 On ch=10 n=69 v=88
78618 On ch=10 n=69 v=0
78720 On ch=10 n=82 v=113
78917 On ch=10 n=82 v=0
78960 On ch=10 n=69 v=88
79087 On ch=10 n=69 v=0
79200 On ch=10 n=82 v=114
79404 On ch=10 n=82 v=0
79440 On ch=10 n=69 v=88
79564 On ch=10 n=69 v=0
79680 On ch=10 n=82 v=112
79902 On ch=10 n=82 v=0
79920 On ch=10 n=69 v=88
80044 On ch=10 n=69 v=0
80160 On ch=10 n=82 v=114
80366 On ch=10 n=82 v=0
80400 On ch=10 n=69 v=88
80538 On ch=10 n=69 v=0
80640 On ch=10 n=82 v=113
80837 On ch=10 n=82 v=0
80880 On ch=10 n=69 v=88
81007 On ch=10 n=69 v=0
81120 On ch=10 n=82 v=114
81324 On ch=10 n=82 v=0
81360 On ch=10 n=69 v=88
81484 On ch=10 n=69 v=0
81600 On ch=10 n=82 v=112
81822 On ch=10 n=82 v=0
81840 On ch=10 n=69 v=88
81964 On ch=10 n=69 v=0
82080 On ch=10 n=82 v=114
82286 On ch=10 n=82 v=0
82320 On ch=10 n=69 v=88
82458 On ch=10 n=69 v=0
82560 On ch=10 n=82 v=113
82757 On ch=10 n=82 v=0
82800 On ch=10 n=69 v=88
82927 On ch=10 n=69 v=0
83040 On ch=10 n=82 v=114
83244 On ch=10 n=82 v=0
83280 On ch=10 n=69 v=88
83404 On ch=10 n=69 v=0
83520 On ch=10 n=82 v=112
83742 On ch=10 n=82 v=0
83760 On ch=10 n=69 v=88
83884 On ch=10 n=69 v=0
84000 On ch=10 n=82 v=114
84206 On ch=10 n=82 v=0
84240 On ch=10 n=69 v=88
84378 On ch=10 n=69 v=0
84480 On ch=10 n=82 v=113
84677 On ch=10 n=82 v=0
84720 On ch=10 n=69 v=88
84847 On ch=10 n=69 v=0
84960 On ch=10 n=82 v=114
85164 On ch=10 n=82 v=0
85200 On ch=10 n=69 v=88
85324 On ch=10 n=69 v=0
85440 On ch=10 n=82 v=112
85662 On ch=10 n=82 v=0
85680 On ch=10 n=69 v=88
85804 On ch=10 n=69 v=0
85920 On ch=10 n=82 v=114
86126 On ch=10 n=82 v=0
86160 On ch=10 n=69 v=88
86298 On ch=10 n=69 v=0
86400 On ch=10 n=82 v=113
86597 On ch=10 n=82 v=0
86640 On ch=10 n=69 v=88
86767 On ch=10 n=69 v=0
86880 On ch=10 n=82 v=114
87084 On ch=10 n=82 v=0
87120 On ch=10 n=69 v=88
87244 On ch=10 n=69 v=0
87360 On ch=10 n=82 v=112
87582 On ch=10 n=82 v=0
87600 On ch=10 n=69 v=88
87724 On ch=10 n=69 v=0
87840 On ch=10 n=82 v=114
88046 On ch=10 n=82 v=0
88080 On ch=10 n=69 v=88
88218 On ch=10 n=69 v=0
88320 On ch=10 n=82 v=113
88517 On ch=10 n=82 v=0
88560 On ch=10 n=69 v=88
88687 On ch=10 n=69 v=0
88800 On ch=10 n=82 v=114
89004 On ch=10 n=82 v=0
89040 On ch=10 n=69 v=88
89164 On ch=10 n=69 v=0
89280 On ch=10 n=82 v=112
89502 On ch=10 n=82 v=0
89520 On ch=10 n=69 v=88
89644 On ch=10 n=69 v=0
89760 On ch=10 n=82 v=114
89966 On ch=10 n=82 v=0
90000 On ch=10 n=69 v=88
90138 On ch=10 n=69 v=0
90240 On ch=10 n=82 v=113
90437 On ch=10 n=82 v=0
90480 On ch=10 n=69 v=88
90607 On ch=10 n=69 v=0
90720 On ch=10 n=82 v=114
90924 On ch=10 n=82 v=0
90960 On ch=10 n=69 v=88
91084 On ch=10 n=69 v=0
91200 On ch=10 n=82 v=112
91422 On ch=10 n=82 v=0
91440 On ch=10 n=69 v=88
91564 On ch=10 n=69 v=0
91680 On ch=10 n=82 v=114
91886 On ch=10 n=82 v=0
91920 On ch=10 n=69 v=88
92058 On ch=10 n=69 v=0
92160 On ch=10 n=82 v=113
92357 On ch=10 n=82 v=0
92400 On ch=10 n=69 v=88
92527 On ch=10 n=69 v=0
92640 On ch=10 n=82 v=114
92844 On ch=10 n=82 v=0
92880 On ch=10 n=69 v=88
93004 On ch=10 n=69 v=0
93120 On ch=10 n=82 v=112
93342 On ch=10 n=82 v=0
93360 On ch=10 n=69 v=88
93484 On ch=10 n=69 v=0
93600 On ch=10 n=82 v=114
93806 On ch=10 n=82 v=0
93840 On ch=10 n=69 v=88
93978 On ch=10 n=69 v=0
94080 On ch=10 n=82 v=113
94277 On ch=10 n=82 v=0
94320 On ch=10 n=69 v=88
94447 On ch=10 n=69 v=0
94560 On ch=10 n=82 v=114
94764 On ch=10 n=82 v=0
94800 On ch=10 n=69 v=88
94924 On ch=10 n=69 v=0
95040 On ch=10 n=82 v=112
95262 On ch=10 n=82 v=0
95280 On ch=10 n=69 v=88
95404 On ch=10 n=69 v=0
95520 On ch=10 n=82 v=114
95726 On ch=10 n=82 v=0
95760 On ch=10 n=69 v=88
95898 On ch=10 n=69 v=0
96000 On ch=10 n=82 v=113
96197 On ch=10 n=82 v=0
96240 On ch=10 n=69 v=88
96367 On ch=10 n=69 v=0
96480 On ch=10 n=82 v=114
96684 On ch=10 n=82 v=0
96720 On ch=10 n=69 v=88
96844 On ch=10 n=69 v=0
96960 On ch=10 n=82 v=112
97182 On ch=10 n=82 v=0
97200 On ch=10 n=69 v=88
97324 On ch=10 n=69 v=0
97440 On ch=10 n=82 v=114
97646 On ch=10 n=82 v=0
97680 On ch=10 n=69 v=88
97818 On ch=10 n=69 v=0
97920 On ch=10 n=82 v=113
98117 On ch=10 n=82 v=0
98160 On ch=10 n=69 v=88
98287 On ch=10 n=69 v=0
98400 On ch=10 n=82 v=114
98604 On ch=10 n=82 v=0
98640 On ch=10 n=69 v=88
98764 On ch=10 n=69 v=0
98880 On ch=10 n=82 v=112
99102 On ch=10 n=82 v=0
99120 On ch=10 n=69 v=88
99244 On ch=10 n=69 v=0
99360 On ch=10 n=82 v=114
99566 On ch=10 n=82 v=0
99600 On ch=10 n=69 v=88
99738 On ch=10 n=69 v=0
99840 On ch=10 n=82 v=113
100037 On ch=10 n=82 v=0
100080 On ch=10 n=69 v=88
100207 On ch=10 n=69 v=0
100320 On ch=10 n=82 v=114
100524 On ch=10 n=82 v=0
100560 On ch=10 n=69 v=88
100684 On ch=10 n=69 v=0
100800 On ch=10 n=82 v=112
101022 On ch=10 n=82 v=0
101040 On ch=10 n=69 v=88
101164 On ch=10 n=69 v=0
101280 On ch=10 n=82 v=114
101486 On ch=10 n=82 v=0
101520 On ch=10 n=69 v=88
101658 On ch=10 n=69 v=0
101760 On ch=10 n=82 v=113
101957 On ch=10 n=82 v=0
102000 On ch=10 n=69 v=88
102127 On ch=10 n=69 v=0
102240 On ch=10 n=82 v=114
102444 On ch=10 n=82 v=0
102480 On ch=10 n=69 v=88
102604 On ch=10 n=69 v=0
102720 On ch=10 n=82 v=112
102942 On ch=10 n=82 v=0
102960 On ch=10 n=69 v=88
103084 On ch=10 n=69 v=0
103200 On ch=10 n=82 v=114
103406 On ch=10 n=82 v=0
103440 On ch=10 n=69 v=88
103578 On ch=10 n=69 v=0
103680 On ch=10 n=82 v=113
103877 On ch=10 n=82 v=0
103920 On ch=10 n=69 v=88
104047 On ch=10 n=69 v=0
104160 On ch=10 n=82 v=114
104364 On ch=10 n=82 v=0
104400 On ch=10 n=69 v=88
104524 On ch=10 n=69 v=0
104640 On ch=10 n=82 v=112
104862 On ch=10 n=82 v=0
104880 On ch=10 n=69 v=88
105004 On ch=10 n=69 v=0
105120 On ch=10 n=82 v=114
105326 On ch=10 n=82 v=0
105360 On ch=10 n=69 v=88
105498 On ch=10 n=69 v=0
105600 On ch=10 n=82 v=113
105797 On ch=10 n=82 v=0
105840 On ch=10 n=69 v=88
105967 On ch=10 n=69 v=0
106080 On ch=10 n=82 v=114
106284 On ch=10 n=82 v=0
106320 On ch=10 n=69 v=88
106444 On ch=10 n=69 v=0
106560 On ch=10 n=82 v=112
106782 On ch=10 n=82 v=0
106800 On ch=10 n=69 v=88
106924 On ch=10 n=69 v=0
107040 On ch=10 n=82 v=114
107246 On ch=10 n=82 v=0
107280 On ch=10 n=69 v=88
107418 On ch=10 n=69 v=0
107520 On ch=10 n=82 v=113
107717 On ch=10 n=82 v=0
107760 On ch=10 n=69 v=88
107887 On ch=10 n=69 v=0
108000 On ch=10 n=82 v=114
108204 On ch=10 n=82 v=0
108240 On ch=10 n=69 v=88
108364 On ch=10 n=69 v=0
108480 On ch=10 n=82 v=112
108702 On ch=10 n=82 v=0
108720 On ch=10 n=69 v=88
108844 On ch=10 n=69 v=0
108960 On ch=10 n=82 v=114
109166 On ch=10 n=82 v=0
109200 On ch=10 n=69 v=88
109338 On ch=10 n=69 v=0
109440 On ch=10 n=82 v=113
109637 On ch=10 n=82 v=0
109680 On ch=10 n=69 v=88
109807 On ch=10 n=69 v=0
109920 On ch=10 n=82 v=114
110124 On ch=10 n=82 v=0
110160 On ch=10 n=69 v=88
110284 On ch=10 n=69 v=0
110400 On ch=10 n=82 v=112
110622 On ch=10 n=82 v=0
110640 On ch=10 n=69 v=88
110764 On ch=10 n=69 v=0
110880 On ch=10 n=82 v=114
111086 On ch=10 n=82 v=0
111120 On ch=10 n=69 v=88
111258 On ch=10 n=69 v=0
111360 On ch=10 n=82 v=113
111557 On ch=10 n=82 v=0
111600 On ch=10 n=69 v=88
111727 On ch=10 n=69 v=0
111840 On ch=10 n=82 v=114
112044 On ch=10 n=82 v=0
112080 On ch=10 n=69 v=88
112204 On ch=10 n=69 v=0
112320 On ch=10 n=82 v=112
112542 On ch=10 n=82 v=0
112560 On ch=10 n=69 v=88
112684 On ch=10 n=69 v=0
112800 On ch=10 n=82 v=114
113006 On ch=10 n=82 v=0
113040 On ch=10 n=69 v=88
113178 On ch=10 n=69 v=0
113280 On ch=10 n=82 v=113
113477 On ch=10 n=82 v=0
113520 On ch=10 n=69 v=88
113647 On ch=10 n=69 v=0
113760 On ch=10 n=82 v=114
113964 On ch=10 n=82 v=0
114000 On ch=10 n=69 v=88
114124 On ch=10 n=69 v=0
114240 On ch=10 n=82 v=112
114462 On ch=10 n=82 v=0
114480 On ch=10 n=69 v=88
114604 On ch=10 n=69 v=0
114720 On ch=10 n=82 v=114
114926 On ch=10 n=82 v=0
114960 On ch=10 n=69 v=88
115098 On ch=10 n=69 v=0
115200 On ch=10 n=82 v=113
115397 On ch=10 n=82 v=0
115440 On ch=10 n=69 v=88
115567 On ch=10 n=69 v=0
115680 On ch=10 n=82 v=114
115884 On ch=10 n=82 v=0
115920 On ch=10 n=69 v=88
116044 On ch=10 n=69 v=0
116160 On ch=10 n=82 v=112
116382 On ch=10 n=82 v=0
116400 On ch=10 n=69 v=88
116524 On ch=10 n=69 v=0
116640 On ch=10 n=82 v=114
116846 On ch=10 n=82 v=0
116880 On ch=10 n=69 v=88
117018 On ch=10 n=69 v=0
117120 On ch=10 n=82 v=113
117317 On ch=10 n=82 v=0
117360 On ch=10 n=69 v=88
117487 On ch=10 n=69 v=0
117600 On ch=10 n=82 v=114
117804 On ch=10 n=82 v=0
117840 On ch=10 n=69 v=88
117964 On ch=10 n=69 v=0
118080 On ch=10 n=82 v=112
118302 On ch=10 n=82 v=0
118320 On ch=10 n=69 v=88
118444 On ch=10 n=69 v=0
118560 On ch=10 n=82 v=114
118766 On ch=10 n=82 v=0
118800 On ch=10 n=69 v=88
118938 On ch=10 n=69 v=0
119040 On ch=10 n=82 v=113
119237 On ch=10 n=82 v=0
119280 On ch=10 n=69 v=88
119407 On ch=10 n=69 v=0
119520 On ch=10 n=82 v=114
119724 On ch=10 n=82 v=0
119760 On ch=10 n=69 v=88
119884 On ch=10 n=69 v=0
120000 On ch=10 n=82 v=112
120222 On ch=10 n=82 v=0
120240 On ch=10 n=69 v=88
120364 On ch=10 n=69 v=0
120480 On ch=10 n=82 v=114
120686 On ch=10 n=82 v=0
120720 On ch=10 n=69 v=88
120858 On ch=10 n=69 v=0
120960 On ch=10 n=82 v=113
121157 On ch=10 n=82 v=0
121200 On ch=10 n=69 v=88
121327 On ch=10 n=69 v=0
121440 On ch=10 n=82 v=114
121644 On ch=10 n=82 v=0
121680 On ch=10 n=69 v=88
121804 On ch=10 n=69 v=0
121920 On ch=10 n=82 v=112
122142 On ch=10 n=82 v=0
122160 On ch=10 n=69 v=88
122284 On ch=10 n=69 v=0
122400 On ch=10 n=82 v=114
122606 On ch=10 n=82 v=0
122640 On ch=10 n=69 v=88
122778 On ch=10 n=69 v=0
122880 On ch=10 n=82 v=113
123077 On ch=10 n=82 v=0
123120 On ch=10 n=69 v=88
123247 On ch=10 n=69 v=0
123360 On ch=10 n=82 v=114
123564 On ch=10 n=82 v=0
123600 On ch=10 n=69 v=88
123724 On ch=10 n=69 v=0
123840 On ch=10 n=82 v=112
124062 On ch=10 n=82 v=0
124080 On ch=10 n=69 v=88
124204 On ch=10 n=69 v=0
124320 On ch=10 n=82 v=114
124526 On ch=10 n=82 v=0
124560 On ch=10 n=69 v=88
124698 On ch=10 n=69 v=0
124800 On ch=10 n=82 v=113
124997 On ch=10 n=82 v=0
125040 On ch=10 n=69 v=88
125167 On ch=10 n=69 v=0
125280 On ch=10 n=82 v=114
125484 On ch=10 n=82 v=0
125520 On ch=10 n=69 v=88
125644 On ch=10 n=69 v=0
125760 On ch=10 n=82 v=112
125982 On ch=10 n=82 v=0
126000 On ch=10 n=69 v=88
126124 On ch=10 n=69 v=0
126240 On ch=10 n=82 v=114
126446 On ch=10 n=82 v=0
126480 On ch=10 n=69 v=88
126618 On ch=10 n=69 v=0
126720 On ch=10 n=82 v=113
126917 On ch=10 n=82 v=0
126960 On ch=10 n=69 v=88
127087 On ch=10 n=69 v=0
127200 On ch=10 n=82 v=114
127404 On ch=10 n=82 v=0
127440 On ch=10 n=69 v=88
127564 On ch=10 n=69 v=0
127680 On ch=10 n=82 v=112
127902 On ch=10 n=82 v=0
127920 On ch=10 n=69 v=88
128044 On ch=10 n=69 v=0
128160 On ch=10 n=82 v=114
128366 On ch=10 n=82 v=0
128400 On ch=10 n=69 v=88
128538 On ch=10 n=69 v=0
128640 On ch=10 n=82 v=113
128837 On ch=10 n=82 v=0
128880 On ch=10 n=69 v=88
129007 On ch=10 n=69 v=0
129120 On ch=10 n=82 v=114
129324 On ch=10 n=82 v=0
129360 On ch=10 n=69 v=88
129484 On ch=10 n=69 v=0
129600 On ch=10 n=82 v=112
129822 On ch=10 n=82 v=0
129840 On ch=10 n=69 v=88
129964 On ch=10 n=69 v=0
130080 On ch=10 n=82 v=114
130286 On ch=10 n=82 v=0
130320 On ch=10 n=69 v=88
130458 On ch=10 n=69 v=0
130560 On ch=10 n=82 v=113
130757 On ch=10 n=82 v=0
130800 On ch=10 n=69 v=88
130927 On ch=10 n=69 v=0
131040 On ch=10 n=82 v=114
131244 On ch=10 n=82 v=0
131280 On ch=10 n=69 v=88
131404 On ch=10 n=69 v=0
131520 On ch=10 n=82 v=112
131742 On ch=10 n=82 v=0
131760 On ch=10 n=69 v=88
131884 On ch=10 n=69 v=0
132000 On ch=10 n=82 v=114
132206 On ch=10 n=82 v=0
132240 On ch=10 n=69 v=88
132378 On ch=10 n=69 v=0
132480 On ch=10 n=82 v=113
132677 On ch=10 n=82 v=0
132720 On ch=10 n=69 v=88
132847 On ch=10 n=69 v=0
132960 On ch=10 n=82 v=114
133164 On ch=10 n=82 v=0
133200 On ch=10 n=69 v=88
133324 On ch=10 n=69 v=0
133440 On ch=10 n=82 v=112
133662 On ch=10 n=82 v=0
133680 On ch=10 n=69 v=88
133804 On ch=10 n=69 v=0
133920 On ch=10 n=82 v=114
134126 On ch=10 n=82 v=0
134160 On ch=10 n=69 v=88
134298 On ch=10 n=69 v=0
134400 On ch=10 n=82 v=113
134597 On ch=10 n=82 v=0
134640 On ch=10 n=69 v=88
134767 On ch=10 n=69 v=0
134880 On ch=10 n=82 v=114
135084 On ch=10 n=82 v=0
135120 On ch=10 n=69 v=88
135244 On ch=10 n=69 v=0
135360 On ch=10 n=82 v=112
135582 On ch=10 n=82 v=0
135600 On ch=10 n=69 v=88
135724 On ch=10 n=69 v=0
135840 On ch=10 n=82 v=114
136046 On ch=10 n=82 v=0
136080 On ch=10 n=69 v=88
136218 On ch=10 n=69 v=0
136320 On ch=10 n=82 v=113
136517 On ch=10 n=82 v=0
136560 On ch=10 n=69 v=88
136687 On ch=10 n=69 v=0
136800 On ch=10 n=82 v=114
137004 On ch=10 n=82 v=0
137040 On ch=10 n=69 v=88
137164 On ch=10 n=69 v=0
137280 On ch=10 n=82 v=112
137502 On ch=10 n=82 v=0
137520 On ch=10 n=69 v=88
137644 On ch=10 n=69 v=0
137760 On ch=10 n=82 v=114
137966 On ch=10 n=82 v=0
138000 On ch=10 n=69 v=88
138138 On ch=10 n=69 v=0
138240 On ch=10 n=82 v=113
138437 On ch=10 n=82 v=0
138480 On ch=10 n=69 v=88
138607 On ch=10 n=69 v=0
138720 On ch=10 n=82 v=114
138924 On ch=10 n=82 v=0
138960 On ch=10 n=69 v=88
139084 On ch=10 n=69 v=0
139200 On ch=10 n=82 v=112
139422 On ch=10 n=82 v=0
139440 On ch=10 n=69 v=88
139564 On ch=10 n=69 v=0
139680 On ch=10 n=82 v=114
139886 On ch=10 n=82 v=0
139920 On ch=10 n=69 v=88
140058 On ch=10 n=69 v=0
140160 On ch=10 n=82 v=113
140357 On ch=10 n=82 v=0
140400 On ch=10 n=69 v=88
140527 On ch=10 n=69 v=0
140640 On ch=10 n=82 v=114
140844 On ch=10 n=82 v=0
140880 On ch=10 n=69 v=88
141004 On ch=10 n=69 v=0
141120 On ch=10 n=82 v=112
141342 On ch=10 n=82 v=0
141360 On ch=10 n=69 v=88
141484 On ch=10 n=69 v=0
141600 On ch=10 n=82 v=114
141806 On ch=10 n=82 v=0
141840 On ch=10 n=69 v=88
141978 On ch=10 n=69 v=0
142080 On ch=10 n=82 v=113
142277 On ch=10 n=82 v=0
142320 On ch=10 n=69 v=88
142447 On ch=10 n=69 v=0
142560 On ch=10 n=82 v=114
142764 On ch=10 n=82 v=0
142800 On ch=10 n=69 v=88
142924 On ch=10 n=69 v=0
143040 On ch=10 n=82 v=112
143262 On ch=10 n=82 v=0
143280 On ch=10 n=69 v=88
143404 On ch=10 n=69 v=0
143520 On ch=10 n=82 v=114
143726 On ch=10 n=82 v=0
143760 On ch=10 n=69 v=88
143898 On ch=10 n=69 v=0
144000 On ch=10 n=82 v=113
144197 On ch=10 n=82 v=0
144240 On ch=10 n=69 v=88
144367 On ch=10 n=69 v=0
144480 On ch=10 n=82 v=114
144684 On ch=10 n=82 v=0
144720 On ch=10 n=69 v=88
144844 On ch=10 n=69 v=0
144960 On ch=10 n=82 v=112
145182 On ch=10 n=82 v=0
145200 On ch=10 n=69 v=88
145324 On ch=10 n=69 v=0
145440 On ch=10 n=82 v=114
145646 On ch=10 n=82 v=0
145680 On ch=10 n=69 v=88
145818 On ch=10 n=69 v=0
145920 On ch=10 n=82 v=113
146117 On ch=10 n=82 v=0
146160 On ch=10 n=69 v=88
146287 On ch=10 n=69 v=0
146400 On ch=10 n=82 v=114
146604 On ch=10 n=82 v=0
146640 On ch=10 n=69 v=88
146764 On ch=10 n=69 v=0
146880 On ch=10 n=82 v=112
147102 On ch=10 n=82 v=0
147120 On ch=10 n=69 v=88
147244 On ch=10 n=69 v=0
147360 On ch=10 n=82 v=114
147566 On ch=10 n=82 v=0
147600 On ch=10 n=69 v=88
147738 On ch=10 n=69 v=0
147840 On ch=10 n=82 v=113
148037 On ch=10 n=82 v=0
148080 On ch=10 n=69 v=88
148207 On ch=10 n=69 v=0
148320 On ch=10 n=82 v=114
148524 On ch=10 n=82 v=0
148560 On ch=10 n=69 v=88
148684 On ch=10 n=69 v=0
148800 On ch=10 n=82 v=112
149022 On ch=10 n=82 v=0
149040 On ch=10 n=69 v=88
149164 On ch=10 n=69 v=0
149280 On ch=10 n=82 v=114
149486 On ch=10 n=82 v=0
149520 On ch=10 n=69 v=88
149658 On ch=10 n=69 v=0
149760 On ch=10 n=82 v=113
149957 On ch=10 n=82 v=0
150000 On ch=10 n=69 v=88
150127 On ch=10 n=69 v=0
150240 On ch=10 n=82 v=114
150444 On ch=10 n=82 v=0
150480 On ch=10 n=69 v=88
150604 On ch=10 n=69 v=0
150720 On ch=10 n=82 v=112
150942 On ch=10 n=82 v=0
150960 On ch=10 n=69 v=88
151084 On ch=10 n=69 v=0
151200 On ch=10 n=82 v=114
151406 On ch=10 n=82 v=0
151440 On ch=10 n=69 v=88
151578 On ch=10 n=69 v=0
151680 On ch=10 n=82 v=113
151877 On ch=10 n=82 v=0
151920 On ch=10 n=69 v=88
152047 On ch=10 n=69 v=0
152160 On ch=10 n=82 v=114
152364 On ch=10 n=82 v=0
152400 On ch=10 n=69 v=88
152524 On ch=10 n=69 v=0
152640 On ch=10 n=82 v=112
152862 On ch=10 n=82 v=0
152880 On ch=10 n=69 v=88
153004 On ch=10 n=69 v=0
153120 On ch=10 n=82 v=114
153326 On ch=10 n=82 v=0
153360 On ch=10 n=69 v=88
153498 On ch=10 n=69 v=0
153600 On ch=10 n=82 v=113
153797 On ch=10 n=82 v=0
153840 On ch=10 n=69 v=88
153967 On ch=10 n=69 v=0
154080 On ch=10 n=82 v=114
154284 On ch=10 n=82 v=0
154320 On ch=10 n=69 v=88
154444 On ch=10 n=69 v=0
154560 On ch=10 n=82 v=112
154782 On ch=10 n=82 v=0
154800 On ch=10 n=69 v=88
154924 On ch=10 n=69 v=0
155040 On ch=10 n=82 v=114
155246 On ch=10 n=82 v=0
155280 On ch=10 n=69 v=88
155418 On ch=10 n=69 v=0
155520 On ch=10 n=82 v=113
155717 On ch=10 n=82 v=0
155760 On ch=10 n=69 v=88
155887 On ch=10 n=69 v=0
156000 On ch=10 n=82 v=114
156204 On ch=10 n=82 v=0
156240 On ch=10 n=69 v=88
156364 On ch=10 n=69 v=0
156480 On ch=10 n=82 v=112
156702 On ch=10 n=82 v=0
156720 On ch=10 n=69 v=88
156844 On ch=10 n=69 v=0
156960 On ch=10 n=82 v=114
157166 On ch=10 n=82 v=0
157200 On ch=10 n=69 v=88
157338 On ch=10 n=69 v=0
157440 On ch=10 n=82 v=113
157637 On ch=10 n=82 v=0
157680 On ch=10 n=69 v=88
157807 On ch=10 n=69 v=0
157920 On ch=10 n=82 v=114
158124 On ch=10 n=82 v=0
158160 On ch=10 n=69 v=88
158284 On ch=10 n=69 v=0
158400 On ch=10 n=82 v=112
158622 On ch=10 n=82 v=0
158640 On ch=10 n=69 v=88
158764 On ch=10 n=69 v=0
158880 On ch=10 n=82 v=114
159086 On ch=10 n=82 v=0
159120 On ch=10 n=69 v=88
159258 On ch=10 n=69 v=0
159360 On ch=10 n=82 v=113
159557 On ch=10 n=82 v=0
159600 On ch=10 n=69 v=88
159727 On ch=10 n=69 v=0
159840 On ch=10 n=82 v=114
160044 On ch=10 n=82 v=0
160080 On ch=10 n=69 v=88
160204 On ch=10 n=69 v=0
160320 On ch=10 n=82 v=112
160542 On ch=10 n=82 v=0
160560 On ch=10 n=69 v=88
160684 On ch=10 n=69 v=0
160800 On ch=10 n=82 v=114
161006 On ch=10 n=82 v=0
161040 On ch=10 n=69 v=88
161178 On ch=10 n=69 v=0
161280 On ch=10 n=82 v=113
161477 On ch=10 n=82 v=0
161520 On ch=10 n=69 v=88
161647 On ch=10 n=69 v=0
161760 On ch=10 n=82 v=114
161964 On ch=10 n=82 v=0
162000 On ch=10 n=69 v=88
162124 On ch=10 n=69 v=0
162240 On ch=10 n=82 v=112
162462 On ch=10 n=82 v=0
162480 On ch=10 n=69 v=88
162604 On ch=10 n=69 v=0
162720 On ch=10 n=82 v=114
162926 On ch=10 n=82 v=0
162960 On ch=10 n=69 v=88
163098 On ch=10 n=69 v=0
163200 On ch=10 n=82 v=113
163397 On ch=10 n=82 v=0
163440 On ch=10 n=69 v=88
163567 On ch=10 n=69 v=0
163680 On ch=10 n=82 v=114
163884 On ch=10 n=82 v=0
163920 On ch=10 n=69 v=88
164044 On ch=10 n=69 v=0
164160 On ch=10 n=82 v=112
164382 On ch=10 n=82 v=0
164400 On ch=10 n=69 v=88
164524 On ch=10 n=69 v=0
164640 On ch=10 n=82 v=114
164846 On ch=10 n=82 v=0
164880 On ch=10 n=69 v=88
165018 On ch=10 n=69 v=0
165120 On ch=10 n=82 v=113
165317 On ch=10 n=82 v=0
165360 On ch=10 n=69 v=88
165487 On ch=10 n=69 v=0
165600 On ch=10 n=82 v=114
165804 On ch=10 n=82 v=0
165840 On ch=10 n=69 v=88
165964 On ch=10 n=69 v=0
166080 On ch=10 n=82 v=112
166302 On ch=10 n=82 v=0
166320 On ch=10 n=69 v=88
166444 On ch=10 n=69 v=0
166560 On ch=10 n=82 v=114
166766 On ch=10 n=82 v=0
166800 On ch=10 n=69 v=88
166938 On ch=10 n=69 v=0
167040 On ch=10 n=82 v=113
167237 On ch=10 n=82 v=0
167280 On ch=10 n=69 v=88
167407 On ch=10 n=69 v=0
167520 On ch=10 n=82 v=114
167724 On ch=10 n=82 v=0
167760 On ch=10 n=69 v=88
167884 On ch=10 n=69 v=0
168000 On ch=10 n=82 v=112
168222 On ch=10 n=82 v=0
168240 On ch=10 n=69 v=88
168364 On ch=10 n=69 v=0
168480 On ch=10 n=82 v=114
168686 On ch=10 n=82 v=0
168720 On ch=10 n=69 v=88
168858 On ch=10 n=69 v=0
168960 On ch=10 n=82 v=113
169157 On ch=10 n=82 v=0
169200 On ch=10 n=69 v=88
169327 On ch=10 n=69 v=0
169440 On ch=10 n=82 v=114
169644 On ch=10 n=82 v=0
169680 On ch=10 n=69 v=88
169804 On ch=10 n=69 v=0
169920 On ch=10 n=82 v=112
170142 On ch=10 n=82 v=0
170160 On ch=10 n=69 v=88
170284 On ch=10 n=69 v=0
170400 On ch=10 n=82 v=114
170606 On ch=10 n=82 v=0
170640 On ch=10 n=69 v=88
170778 On ch=10 n=69 v=0
170880 On ch=10 n=82 v=113
171077 On ch=10 n=82 v=0
171120 On ch=10 n=69 v=88
171247 On ch=10 n=69 v=0
171360 On ch=10 n=82 v=114
171564 On ch=10 n=82 v=0
171600 On ch=10 n=69 v=88
171724 On ch=10 n=69 v=0
171840 On ch=10 n=82 v=112
172062 On ch=10 n=82 v=0
172080 On ch=10 n=69 v=88
172204 On ch=10 n=69 v=0
172320 On ch=10 n=82 v=114
172526 On ch=10 n=82 v=0
172560 On ch=10 n=69 v=88
172698 On ch=10 n=69 v=0
172800 On ch=10 n=82 v=113
172997 On ch=10 n=82 v=0
173040 On ch=10 n=69 v=88
173167 On ch=10 n=69 v=0
173280 On ch=10 n=82 v=114
173484 On ch=10 n=82 v=0
173520 On ch=10 n=69 v=88
173644 On ch=10 n=69 v=0
173760 On ch=10 n=82 v=112
173982 On ch=10 n=82 v=0
174000 On ch=10 n=69 v=88
174124 On ch=10 n=69 v=0
174240 On ch=10 n=82 v=114
174446 On ch=10 n=82 v=0
174480 On ch=10 n=69 v=88
174618 On ch=10 n=69 v=0
174720 On ch=10 n=82 v=113
174917 On ch=10 n=82 v=0
174960 On ch=10 n=69 v=88
175087 On ch=10 n=69 v=0
175200 On ch=10 n=82 v=114
175404 On ch=10 n=82 v=0
175440 On ch=10 n=69 v=88
175564 On ch=10 n=69 v=0
175680 On ch=10 n=82 v=112
175902 On ch=10 n=82 v=0
175920 On ch=10 n=69 v=88
176044 On ch=10 n=69 v=0
176160 On ch=10 n=82 v=114
176366 On ch=10 n=82 v=0
176400 On ch=10 n=69 v=88
176538 On ch=10 n=69 v=0
176640 On ch=10 n=82 v=113
176837 On ch=10 n=82 v=0
176880 On ch=10 n=69 v=88
177007 On ch=10 n=69 v=0
177120 On ch=10 n=82 v=114
177324 On ch=10 n=82 v=0
177360 On ch=10 n=69 v=88
177484 On ch=10 n=69 v=0
177600 On ch=10 n=82 v=112
177822 On ch=10 n=82 v=0
177840 On ch=10 n=69 v=88
177964 On ch=10 n=69 v=0
178080 On ch=10 n=82 v=114
178286 On ch=10 n=82 v=0
178320 On ch=10 n=69 v=88
178458 On ch=10 n=69 v=0
178560 On ch=10 n=82 v=113
178757 On ch=10 n=82 v=0
178800 On ch=10 n=69 v=88
178927 On ch=10 n=69 v=0
179040 On ch=10 n=82 v=114
179244 On ch=10 n=82 v=0
179280 On ch=10 n=69 v=88
179404 On ch=10 n=69 v=0
179520 On ch=10 n=82 v=112
179742 On ch=10 n=82 v=0
179760 On ch=10 n=69 v=88
179884 On ch=10 n=69 v=0
180000 On ch=10 n=82 v=114
180206 On ch=10 n=82 v=0
180240 On ch=10 n=69 v=88
180378 On ch=10 n=69 v=0
180480 On ch=10 n=82 v=113
180677 On ch=10 n=82 v=0
180720 On ch=10 n=69 v=88
180847 On ch=10 n=69 v=0
180960 On ch=10 n=82 v=114
181164 On ch=10 n=82 v=0
181200 On ch=10 n=69 v=88
181324 On ch=10 n=69 v=0
181440 On ch=10 n=82 v=112
181662 On ch=10 n=82 v=0
181680 On ch=10 n=69 v=88
181804 On ch=10 n=69 v=0
181920 On ch=10 n=82 v=114
182126 On ch=10 n=82 v=0
182160 On ch=10 n=69 v=88
182298 On ch=10 n=69 v=0
182400 On ch=10 n=82 v=113
182597 On ch=10 n=82 v=0
182640 On ch=10 n=69 v=88
182767 On ch=10 n=69 v=0
182807 On ch=10 n=50 v=122
182872 On ch=10 n=50 v=0
182879 On ch=10 n=50 v=123
182880 On ch=10 n=82 v=114
183084 On ch=10 n=82 v=0
183120 On ch=10 n=69 v=88
183229 On ch=10 n=50 v=0
183244 On ch=10 n=69 v=0
183360 On ch=10 n=82 v=112
183542 On ch=10 n=48 v=123
183582 On ch=10 n=82 v=0
183597 On ch=10 n=48 v=0
183599 On ch=10 n=48 v=122
183600 On ch=10 n=69 v=88
183724 On ch=10 n=69 v=0
183840 On ch=10 n=82 v=114
183952 On ch=10 n=48 v=0
184046 On ch=10 n=82 v=0
184080 On ch=10 n=69 v=88
184218 On ch=10 n=69 v=0
184259 On ch=10 n=47 v=122
184312 On ch=10 n=47 v=0
184319 On ch=10 n=45 v=122
184320 On ch=10 n=82 v=113
184517 On ch=10 n=82 v=0
184560 On ch=10 n=69 v=88
184686 On ch=10 n=45 v=0
184687 On ch=10 n=69 v=0
184800 On ch=10 n=82 v=114
185004 On ch=10 n=82 v=0
185040 On ch=10 n=69 v=88
185043 On ch=10 n=43 v=123
185155 On ch=10 n=43 v=0
185159 On ch=10 n=43 v=122
185164 On ch=10 n=69 v=0
185274 On ch=10 n=43 v=0
185284 On ch=10 n=41 v=125
185462 On ch=10 n=41 v=0
185520 On ch=10 n=41 v=125
185723 On ch=10 n=41 v=0
185769 On ch=10 n=41 v=125
185957 On ch=10 n=41 v=0
186240 Par ch=10 c=7 v=102
186240 On ch=10 n=36 v=125
186240 On ch=10 n=49 v=127
186476 On ch=10 n=36 v=0
186486 On ch=10 n=49 v=0
186720 Par ch=10 c=7 v=102
186720 On ch=10 n=57 v=80
187200 On ch=10 n=49 v=65
187207 On ch=10 n=57 v=0
187682 On ch=10 n=49 v=0
187685 On ch=10 n=57 v=50
188157 On ch=10 n=57 v=0
188160 Par ch=10 c=7 v=102
188160 On ch=10 n=36 v=125
188160 On ch=10 n=49 v=127
188396 On ch=10 n=36 v=0
188406 On ch=10 n=49 v=0
188640 Par ch=10 c=7 v=102
188640 On ch=10 n=57 v=80
189120 On ch=10 n=49 v=65
189127 On ch=10 n=57 v=0
189602 On ch=10 n=49 v=0
189605 On ch=10 n=57 v=50
190077 On ch=10 n=57 v=0
190080 Par ch=10 c=7 v=102
190080 On ch=10 n=36 v=125
190080 On ch=10 n=49 v=127
190316 On ch=10 n=36 v=0
190326 On ch=10 n=49 v=0
190560 Par ch=10 c=7 v=102
190560 On ch=10 n=57 v=80
191040 On ch=10 n=49 v=65
191047 On ch=10 n=57 v=0
191522 On ch=10 n=49 v=0
191525 On ch=10 n=57 v=50
191997 On ch=10 n=57 v=0
192000 Par ch=10 c=7 v=102
192000 On ch=10 n=36 v=125
192000 On ch=10 n=49 v=127
192236 On ch=10 n=36 v=0
192246 On ch=10 n=49 v=0
192480 Par ch=10 c=7 v=102
192480 On ch=10 n=57 v=80
192960 On ch=10 n=49 v=65
192967 On ch=10 n=57 v=0
193442 On ch=10 n=49 v=0
193445 On ch=10 n=57 v=50
193917 On ch=10 n=57 v=0
193920 Par ch=10 c=7 v=102
193920 On ch=10 n=36 v=125
193920 On ch=10 n=49 v=127
194156 On ch=10 n=36 v=0
194166 On ch=10 n=49 v=0
194400 Par ch=10 c=7 v=102
194400 On ch=10 n=57 v=80
194880 On ch=10 n=49 v=65
194887 On ch=10 n=57 v=0
195362 On ch=10 n=49 v=0
195365 On ch=10 n=57 v=50
195837 On ch=10 n=57 v=0
195840 Par ch=10 c=7 v=102
195840 On ch=10 n=36 v=125
195840 On ch=10 n=49 v=127
196076 On ch=10 n=36 v=0
196086 On ch=10 n=49 v=0
196320 Par ch=10 c=7 v=102
196320 On ch=10 n=57 v=80
196800 On ch=10 n=49 v=65
196807 On ch=10 n=57 v=0
197282 On ch=10 n=49 v=0
197285 On ch=10 n=57 v=50
197757 On ch=10 n=57 v=0
197760 Par ch=10 c=7 v=102
197760 On ch=10 n=36 v=125
197760 On ch=10 n=49 v=127
197996 On ch=10 n=36 v=0
198006 On ch=10 n=49 v=0
198240 Par ch=10 c=7 v=102
198240 On ch=10 n=57 v=80
198720 On ch=10 n=49 v=65
198727 On ch=10 n=57 v=0
199202 On ch=10 n=49 v=0
199205 On ch=10 n=57 v=50
199677 On ch=10 n=57 v=0
199680 Par ch=10 c=7 v=102
199680 On ch=10 n=36 v=125
199680 On ch=10 n=49 v=127
199916 On ch=10 n=36 v=0
199926 On ch=10 n=49 v=0
200160 Par ch=10 c=7 v=102
200160 On ch=10 n=57 v=80
200640 On ch=10 n=49 v=65
200647 On ch=10 n=57 v=0
201122 On ch=10 n=49 v=0
201125 On ch=10 n=57 v=50
201597 On ch=10 n=57 v=0
201600 Par ch=10 c=7 v=102
201600 On ch=10 n=36 v=125
201600 On ch=10 n=49 v=127
201836 On ch=10 n=36 v=0
201846 On ch=10 n=49 v=0
202080 Par ch=10 c=7 v=102
202080 On ch=10 n=57 v=80
202560 On ch=10 n=49 v=65
202567 On ch=10 n=57 v=0
203042 On ch=10 n=49 v=0
203045 On ch=10 n=57 v=50
203517 On ch=10 n=57 v=0
203520 Par ch=10 c=7 v=102
203520 On ch=10 n=36 v=125
203520 On ch=10 n=49 v=127
203756 On ch=10 n=36 v=0
203766 On ch=10 n=49 v=0
204000 Par ch=10 c=7 v=102
204000 On ch=10 n=57 v=80
204480 On ch=10 n=49 v=65
204487 On ch=10 n=57 v=0
204962 On ch=10 n=49 v=0
204965 On ch=10 n=57 v=50
205437 On ch=10 n=57 v=0
205440 Par ch=10 c=7 v=102
205440 On ch=10 n=36 v=125
205440 On ch=10 n=49 v=127
205676 On ch=10 n=36 v=0
205686 On ch=10 n=49 v=0
205920 Par ch=10 c=7 v=102
205920 On ch=10 n=57 v=80
206400 On ch=10 n=49 v=65
206407 On ch=10 n=57 v=0
206882 On ch=10 n=49 v=0
206885 On ch=10 n=57 v=50
207357 On ch=10 n=57 v=0
207360 Par ch=10 c=7 v=102
207360 On ch=10 n=36 v=125
207360 On ch=10 n=49 v=127
207596 On ch=10 n=36 v=0
207606 On ch=10 n=49 v=0
207840 Par ch=10 c=7 v=102
207840 On ch=10 n=57 v=80
208320 On ch=10 n=49 v=65
208327 On ch=10 n=57 v=0
208560 On ch=10 n=45 v=100
208678 On ch=10 n=45 v=0
208680 On ch=10 n=45 v=98
208798 On ch=10 n=45 v=0
208800 On ch=10 n=43 v=98
208802 On ch=10 n=49 v=0
208805 On ch=10 n=57 v=50
209038 On ch=10 n=43 v=0
209277 On ch=10 n=57 v=0
209280 Par ch=10 c=7 v=102
209280 On ch=10 n=36 v=125
209280 On ch=10 n=49 v=127
209516 On ch=10 n=36 v=0
209526 On ch=10 n=49 v=0
209760 Par ch=10 c=7 v=102
209760 On ch=10 n=57 v=80
210240 On ch=10 n=49 v=65
210247 On ch=10 n=57 v=0
210722 On ch=10 n=49 v=0
210725 On ch=10 n=57 v=50
211197 On ch=10 n=57 v=0
211200 Par ch=10 c=7 v=102
211200 On ch=10 n=36 v=125
211200 On ch=10 n=49 v=127
211436 On ch=10 n=36 v=0
211446 On ch=10 n=49 v=0
211680 Par ch=10 c=7 v=102
211680 On ch=10 n=57 v=80
212160 On ch=10 n=49 v=65
212167 On ch=10 n=57 v=0
212642 On ch=10 n=49 v=0
212645 On ch=10 n=57 v=50
213117 On ch=10 n=57 v=0
213120 Par ch=10 c=7 v=102
213120 On ch=10 n=36 v=125
213120 On ch=10 n=49 v=127
213356 On ch=10 n=36 v=0
213366 On ch=10 n=49 v=0
213600 Par ch=10 c=7 v=102
213600 On ch=10 n=57 v=80
214080 On ch=10 n=49 v=65
214087 On ch=10 n=57 v=0
214320 On ch=10 n=45 v=100
214438 On ch=10 n=45 v=0
214440 On ch=10 n=45 v=98
214558 On ch=10 n=45 v=0
214560 On ch=10 n=43 v=98
214562 On ch=10 n=49 v=0
214565 On ch=10 n=57 v=50
214798 On ch=10 n=43 v=0
215037 On ch=10 n=57 v=0
215040 Par ch=10 c=7 v=102
215040 On ch=10 n=36 v=125
215040 On ch=10 n=49 v=127
215276 On ch=10 n=36 v=0
215286 On ch=10 n=49 v=0
215520 Par ch=10 c=7 v=102
215520 On ch=10 n=57 v=80
216000 On ch=10 n=36 v=106
216000 On ch=10 n=49 v=127
216007 On ch=10 n=57 v=0
216238 On ch=10 n=36 v=0
216241 On ch=10 n=49 v=0
216485 On ch=10 n=57 v=50
216957 On ch=10 n=57 v=0
216960 Par ch=10 c=7 v=102
216960 On ch=10 n=36 v=125
216960 On ch=10 n=49 v=127
217196 On ch=10 n=36 v=0
217206 On ch=10 n=49 v=0
217440 Par ch=10 c=7 v=102
217440 On ch=10 n=57 v=80
217920 On ch=10 n=49 v=65
217927 On ch=10 n=57 v=0
218402 On ch=10 n=49 v=0
218405 On ch=10 n=57 v=50
218877 On ch=10 n=57 v=0
218880 Par ch=10 c=7 v=102
218880 On ch=10 n=36 v=125
218880 On ch=10 n=49 v=127
219116 On ch=10 n=36 v=0
219126 On ch=10 n=49 v=0
219360 Par ch=10 c=7 v=102
219360 On ch=10 n=57 v=80
219840 On ch=10 n=49 v=65
219847 On ch=10 n=57 v=0
220322 On ch=10 n=49 v=0
220325 On ch=10 n=57 v=50
220797 On ch=10 n=57 v=0
220800 Par ch=10 c=7 v=102
220800 On ch=10 n=36 v=125
220800 On ch=10 n=49 v=127
221036 On ch=10 n=36 v=0
221046 On ch=10 n=49 v=0
221280 Par ch=10 c=7 v=102
221280 On ch=10 n=57 v=80
221760 On ch=10 n=49 v=65
221767 On ch=10 n=57 v=0
222000 On ch=10 n=45 v=100
222118 On ch=10 n=45 v=0
222120 On ch=10 n=45 v=98
222238 On ch=10 n=45 v=0
222240 On ch=10 n=43 v=98
222242 On ch=10 n=49 v=0
222245 On ch=10 n=57 v=50
222478 On ch=10 n=43 v=0
222717 On ch=10 n=57 v=0
222720 Par ch=10 c=7 v=102
222720 On ch=10 n=36 v=125
222720 On ch=10 n=49 v=127
222956 On ch=10 n=36 v=0
222966 On ch=10 n=49 v=0
223200 Par ch=10 c=7 v=102
223200 On ch=10 n=57 v=127
223203 On ch=10 n=36 v=106
223441 On ch=10 n=36 v=0
226551 On ch=10 n=57 v=0
226551 Meta TrkEnd
TrkEnd
MTrk
0 Meta 0x21 00
0 PrCh ch=11 p=16
0 Par ch=11 c=7 v=80
0 Par ch=11 c=10 v=20
192024 On ch=11 n=80 v=127
192742 On ch=11 n=80 v=0
192753 On ch=11 n=78 v=127
193452 On ch=11 n=78 v=0
193458 On ch=11 n=76 v=127
193939 On ch=11 n=76 v=0
193942 On ch=11 n=78 v=127
195840 On ch=11 n=78 v=0
195847 On ch=11 n=71 v=127
199129 On ch=11 n=71 v=0
199135 On ch=11 n=71 v=123
199646 On ch=11 n=71 v=0
199663 On ch=11 n=81 v=127
200440 On ch=11 n=81 v=0
200444 On ch=11 n=80 v=127
201163 On ch=11 n=78 v=127
201177 On ch=11 n=80 v=0
201568 On ch=11 n=78 v=0
201587 On ch=11 n=76 v=127
207336 On ch=11 n=76 v=0
207370 On ch=11 n=80 v=127
208079 On ch=11 n=80 v=0
208084 On ch=11 n=78 v=127
208795 On ch=11 n=76 v=127
208800 On ch=11 n=78 v=0
209260 On ch=11 n=76 v=0
209277 On ch=11 n=78 v=127
211228 On ch=11 n=78 v=0
211228 On ch=11 n=71 v=127
214565 On ch=11 n=71 v=0
214576 On ch=11 n=80 v=127
214614 On ch=11 n=83 v=127
215047 On ch=11 n=81 v=127
215056 On ch=11 n=83 v=0
215062 On ch=11 n=85 v=127
215081 On ch=11 n=80 v=0
215780 On ch=11 n=83 v=127
215803 On ch=11 n=85 v=0
215828 On ch=11 n=80 v=127
215841 On ch=11 n=81 v=0
216492 On ch=11 n=83 v=0
216496 On ch=11 n=81 v=127
216513 On ch=11 n=78 v=127
216557 On ch=11 n=80 v=0
216941 On ch=11 n=78 v=0
216948 On ch=11 n=76 v=127
216950 On ch=11 n=81 v=0
216961 On ch=11 n=80 v=127
220708 On ch=11 n=80 v=0
226662 On ch=11 n=76 v=0
226662 Meta TrkEnd
TrkEnd
MTrk
0 Meta 0x21 00
0 Meta TrkName "Bruford BD + delay"
0 PrCh ch=9 p=116
0 Par ch=9 c=7 v=127
0 Par ch=9 c=10 v=64
1365 Par ch=9 c=91 v=40
1370 Par ch=9 c=93 v=0
1375 Par ch=9 c=101 v=0
1375 Par ch=9 c=100 v=0
1375 Par ch=9 c=6 v=2
1380 Par ch=9 c=99 v=1
1380 Par ch=9 c=98 v=8
1380 Par ch=9 c=6 v=64
1385 Par ch=9 c=99 v=1
1385 Par ch=9 c=98 v=9
1385 Par ch=9 c=6 v=64
1390 Par ch=9 c=99 v=1
1390 Par ch=9 c=98 v=10
1390 Par ch=9 c=6 v=64
1395 Par ch=9 c=99 v=1
1395 Par ch=9 c=98 v=32
1395 Par ch=9 c=6 v=64
1400 Par ch=9 c=99 v=1
1400 Par ch=9 c=98 v=33
1400 Par ch=9 c=6 v=64
1405 Par ch=9 c=99 v=1
1405 Par ch=9 c=98 v=99
1405 Par ch=9 c=6 v=64
1410 Par ch=9 c=99 v=1
1410 Par ch=9 c=98 v=100
1410 Par ch=9 c=6 v=64
1415 Par ch=9 c=99 v=1
1415 Par ch=9 c=98 v=102
1415 Par ch=9 c=6 v=64
38411 On ch=9 n=45 v=127
39849 On ch=9 n=45 v=0
40330 On ch=9 n=45 v=127
41769 On ch=9 n=45 v=0
42252 On ch=9 n=45 v=127
43689 On ch=9 n=45 v=0
44171 On ch=9 n=45 v=127
45609 On ch=9 n=45 v=0
46090 On ch=9 n=45 v=127
47529 On ch=9 n=45 v=0
48011 On ch=9 n=45 v=127
49449 On ch=9 n=45 v=0
49931 On ch=9 n=45 v=127
51368 On ch=9 n=45 v=0
51850 On ch=9 n=45 v=127
53288 On ch=9 n=45 v=0
53770 On ch=9 n=45 v=127
55209 On ch=9 n=45 v=0
55691 On ch=9 n=45 v=126
57128 On ch=9 n=45 v=0
57610 On ch=9 n=45 v=127
59049 On ch=9 n=45 v=0
59531 On ch=9 n=45 v=127
60968 On ch=9 n=45 v=0
61451 On ch=9 n=45 v=127
62889 On ch=9 n=45 v=0
63370 On ch=9 n=45 v=127
64809 On ch=9 n=45 v=0
65292 On ch=9 n=45 v=127
66729 On ch=9 n=45 v=0
67211 On ch=9 n=45 v=127
68649 On ch=9 n=45 v=0
69130 On ch=9 n=45 v=127
70569 On ch=9 n=45 v=0
71051 On ch=9 n=45 v=127
72489 On ch=9 n=45 v=0
72971 On ch=9 n=45 v=127
74408 On ch=9 n=45 v=0
74890 On ch=9 n=45 v=127
76328 On ch=9 n=45 v=0
76810 On ch=9 n=45 v=127
78249 On ch=9 n=45 v=0
78731 On ch=9 n=45 v=126
80168 On ch=9 n=45 v=0
80650 On ch=9 n=45 v=127
82089 On ch=9 n=45 v=0
82571 On ch=9 n=45 v=127
84008 On ch=9 n=45 v=0
84491 On ch=9 n=45 v=127
85929 On ch=9 n=45 v=0
86410 On ch=9 n=45 v=127
87849 On ch=9 n=45 v=0
88332 On ch=9 n=45 v=127
89769 On ch=9 n=45 v=0
90251 On ch=9 n=45 v=127
91689 On ch=9 n=45 v=0
92170 On ch=9 n=45 v=127
93609 On ch=9 n=45 v=0
94091 On ch=9 n=45 v=127
95529 On ch=9 n=45 v=0
96011 On ch=9 n=45 v=127
97448 On ch=9 n=45 v=0
97930 On ch=9 n=45 v=127
99368 On ch=9 n=45 v=0
99850 On ch=9 n=45 v=127
101289 On ch=9 n=45 v=0
101771 On ch=9 n=45 v=126
103208 On ch=9 n=45 v=0
103690 On ch=9 n=45 v=127
105129 On ch=9 n=45 v=0
105611 On ch=9 n=45 v=127
107048 On ch=9 n=45 v=0
107531 On ch=9 n=45 v=127
108969 On ch=9 n=45 v=0
109450 On ch=9 n=45 v=127
110889 On ch=9 n=45 v=0
111372 On ch=9 n=45 v=127
112809 On ch=9 n=45 v=0
113291 On ch=9 n=45 v=127
114729 On ch=9 n=45 v=0
115210 On ch=9 n=45 v=127
116649 On ch=9 n=45 v=0
117131 On ch=9 n=45 v=127
118569 On ch=9 n=45 v=0
119051 On ch=9 n=45 v=127
120488 On ch=9 n=45 v=0
120970 On ch=9 n=45 v=127
122408 On ch=9 n=45 v=0
122890 On ch=9 n=45 v=127
124329 On ch=9 n=45 v=0
124811 On ch=9 n=45 v=126
126248 On ch=9 n=45 v=0
126730 On ch=9 n=45 v=127
128169 On ch=9 n=45 v=0
128651 On ch=9 n=45 v=127
130088 On ch=9 n=45 v=0
130571 On ch=9 n=45 v=127
132009 On ch=9 n=45 v=0
132490 On ch=9 n=45 v=127
133929 On ch=9 n=45 v=0
134412 On ch=9 n=45 v=127
135849 On ch=9 n=45 v=0
136331 On ch=9 n=45 v=127
137769 On ch=9 n=45 v=0
138250 On ch=9 n=45 v=127
139689 On ch=9 n=45 v=0
140171 On ch=9 n=45 v=127
141609 On ch=9 n=45 v=0
142091 On ch=9 n=45 v=127
143528 On ch=9 n=45 v=0
144010 On ch=9 n=45 v=127
145448 On ch=9 n=45 v=0
145930 On ch=9 n=45 v=127
147369 On ch=9 n=45 v=0
147851 On ch=9 n=45 v=126
149288 On ch=9 n=45 v=0
149770 On ch=9 n=45 v=127
151209 On ch=9 n=45 v=0
151691 On ch=9 n=45 v=127
153128 On ch=9 n=45 v=0
153611 On ch=9 n=45 v=127
155049 On ch=9 n=45 v=0
155530 On ch=9 n=45 v=127
156969 On ch=9 n=45 v=0
157452 On ch=9 n=45 v=127
158889 On ch=9 n=45 v=0
159371 On ch=9 n=45 v=127
160809 On ch=9 n=45 v=0
161290 On ch=9 n=45 v=127
162729 On ch=9 n=45 v=0
163211 On ch=9 n=45 v=127
164649 On ch=9 n=45 v=0
165131 On ch=9 n=45 v=127
166568 On ch=9 n=45 v=0
167050 On ch=9 n=45 v=127
168488 On ch=9 n=45 v=0
168970 On ch=9 n=45 v=127
170409 On ch=9 n=45 v=0
170891 On ch=9 n=45 v=126
172328 On ch=9 n=45 v=0
172810 On ch=9 n=45 v=127
174249 On ch=9 n=45 v=0
174731 On ch=9 n=45 v=127
176168 On ch=9 n=45 v=0
176650 On ch=9 n=45 v=127
178089 On ch=9 n=45 v=0
178571 On ch=9 n=45 v=126
180008 On ch=9 n=45 v=0
180490 On ch=9 n=45 v=127
181929 On ch=9 n=45 v=0
182411 On ch=9 n=45 v=127
183848 On ch=9 n=45 v=0
184330 On ch=9 n=45 v=127
185769 On ch=9 n=45 v=0
185769 Meta TrkEnd
TrkEnd
MTrk
0 Meta 0x21 00
0 PrCh ch=12 p=52
0 Par ch=12 c=10 v=127
74887 On ch=12 n=59 v=127
76349 On ch=12 n=59 v=0
76357 On ch=12 n=61 v=127
76564 On ch=12 n=59 v=127
76589 On ch=12 n=61 v=0
78245 On ch=12 n=61 v=127
78252 On ch=12 n=59 v=0
78693 On ch=12 n=59 v=127
78697 On ch=12 n=61 v=0
80161 On ch=12 n=61 v=127
80169 On ch=12 n=59 v=0
80577 On ch=12 n=61 v=0
80651 On ch=12 n=64 v=127
81401 On ch=12 n=64 v=0
81417 On ch=12 n=61 v=127
82484 On ch=12 n=61 v=0
82573 On ch=12 n=59 v=127
84017 On ch=12 n=59 v=0
84026 On ch=12 n=61 v=127
84267 On ch=12 n=61 v=0
84281 On ch=12 n=59 v=127
85931 On ch=12 n=61 v=127
85935 On ch=12 n=59 v=0
86360 On ch=12 n=59 v=127
86364 On ch=12 n=61 v=0
87874 On ch=12 n=59 v=0
87876 On ch=12 n=61 v=127
88372 On ch=12 n=64 v=127
88385 On ch=12 n=61 v=0
89354 On ch=12 n=64 v=0
89371 On ch=12 n=61 v=127
90277 On ch=12 n=61 v=0
90301 On ch=12 n=59 v=127
91673 On ch=12 n=59 v=0
91688 On ch=12 n=61 v=127
91923 On ch=12 n=61 v=0
91927 On ch=12 n=59 v=127
93612 On ch=12 n=59 v=0
93614 On ch=12 n=61 v=127
94024 On ch=12 n=59 v=127
94037 On ch=12 n=61 v=0
95507 On ch=12 n=59 v=0
95517 On ch=12 n=61 v=127
95961 On ch=12 n=61 v=0
95990 On ch=12 n=64 v=127
96770 On ch=12 n=64 v=0
96793 On ch=12 n=61 v=127
97885 On ch=12 n=61 v=0
97916 On ch=12 n=59 v=127
99365 On ch=12 n=59 v=0
99374 On ch=12 n=61 v=127
99617 On ch=12 n=59 v=127
99619 On ch=12 n=61 v=0
101294 On ch=12 n=59 v=0
101315 On ch=12 n=61 v=127
101733 On ch=12 n=59 v=127
101771 On ch=12 n=61 v=0
103224 On ch=12 n=59 v=0
103234 On ch=12 n=61 v=127
103695 On ch=12 n=61 v=0
103695 On ch=12 n=64 v=127
104447 On ch=12 n=64 v=0
104470 On ch=12 n=61 v=127
105585 On ch=12 n=61 v=0
105619 On ch=12 n=59 v=127
107074 On ch=12 n=59 v=0
107104 On ch=12 n=61 v=127
107347 On ch=12 n=61 v=0
107357 On ch=12 n=59 v=127
108918 On ch=12 n=59 v=0
108954 On ch=12 n=61 v=127
109410 On ch=12 n=59 v=127
109427 On ch=12 n=61 v=0
110903 On ch=12 n=59 v=0
110920 On ch=12 n=61 v=127
111366 On ch=12 n=61 v=0
111378 On ch=12 n=64 v=127
112115 On ch=12 n=64 v=0
112141 On ch=12 n=61 v=127
113300 On ch=12 n=61 v=0
113328 On ch=12 n=59 v=127
114698 On ch=12 n=61 v=127
114705 On ch=12 n=59 v=0
114931 On ch=12 n=61 v=0
114948 On ch=12 n=59 v=127
116190 On ch=12 n=61 v=127
116238 On ch=12 n=59 v=0
116620 On ch=12 n=61 v=0
116627 On ch=12 n=59 v=127
118500 On ch=12 n=59 v=0
118506 On ch=12 n=61 v=127
118979 On ch=12 n=61 v=0
119007 On ch=12 n=64 v=127
119799 On ch=12 n=64 v=0
119826 On ch=12 n=61 v=127
120956 On ch=12 n=61 v=0
120984 On ch=12 n=59 v=127
122367 On ch=12 n=61 v=127
122382 On ch=12 n=59 v=0
122623 On ch=12 n=61 v=0
122640 On ch=12 n=59 v=127
124331 On ch=12 n=61 v=127
124367 On ch=12 n=59 v=0
124783 On ch=12 n=61 v=0
124785 On ch=12 n=59 v=127
126283 On ch=12 n=61 v=127
126331 On ch=12 n=59 v=0
126731 On ch=12 n=61 v=0
126735 On ch=12 n=64 v=127
127542 On ch=12 n=64 v=0
127552 On ch=12 n=61 v=127
134327 On ch=12 n=61 v=0
134370 On ch=12 n=59 v=127
135859 On ch=12 n=61 v=127
135892 On ch=12 n=59 v=0
136080 On ch=12 n=61 v=0
136101 On ch=12 n=59 v=127
137772 On ch=12 n=59 v=0
137776 On ch=12 n=61 v=127
138226 On ch=12 n=61 v=0
138230 On ch=12 n=59 v=127
139662 On ch=12 n=61 v=127
139696 On ch=12 n=59 v=0
140123 On ch=12 n=61 v=0
140140 On ch=12 n=64 v=127
140875 On ch=12 n=64 v=0
140921 On ch=12 n=61 v=127
142059 On ch=12 n=61 v=0
142095 On ch=12 n=59 v=127
143515 On ch=12 n=59 v=0
143519 On ch=12 n=61 v=127
143776 On ch=12 n=59 v=127
143795 On ch=12 n=61 v=0
145447 On ch=12 n=61 v=127
145496 On ch=12 n=59 v=0
145907 On ch=12 n=61 v=0
145918 On ch=12 n=59 v=127
146934 On ch=12 n=61 v=127
146985 On ch=12 n=59 v=0
147350 On ch=12 n=64 v=127
147354 On ch=12 n=61 v=0
148273 On ch=12 n=64 v=0
148317 On ch=12 n=61 v=127
149680 On ch=12 n=61 v=0
149722 On ch=12 n=59 v=127
151230 On ch=12 n=61 v=127
151266 On ch=12 n=59 v=0
151409 On ch=12 n=61 v=0
151456 On ch=12 n=59 v=127
153071 On ch=12 n=61 v=127
153120 On ch=12 n=59 v=0
153591 On ch=12 n=61 v=0
153593 On ch=12 n=59 v=127
154622 On ch=12 n=61 v=127
154674 On ch=12 n=59 v=0
155055 On ch=12 n=61 v=0
155057 On ch=12 n=64 v=127
155978 On ch=12 n=64 v=0
156009 On ch=12 n=61 v=127
157384 On ch=12 n=61 v=0
157405 On ch=12 n=59 v=127
158846 On ch=12 n=61 v=127
158882 On ch=12 n=59 v=0
159116 On ch=12 n=59 v=127
159120 On ch=12 n=61 v=0
160782 On ch=12 n=61 v=127
160827 On ch=12 n=59 v=0
161270 On ch=12 n=61 v=0
161277 On ch=12 n=59 v=127
162271 On ch=12 n=61 v=127
162303 On ch=12 n=59 v=0
162713 On ch=12 n=61 v=0
162719 On ch=12 n=64 v=127
163680 On ch=12 n=64 v=0
163720 On ch=12 n=61 v=127
165093 On ch=12 n=61 v=0
165125 On ch=12 n=59 v=127
166527 On ch=12 n=61 v=127
166561 On ch=12 n=59 v=0
166785 On ch=12 n=59 v=127
166789 On ch=12 n=61 v=0
167961 On ch=12 n=61 v=127
167991 On ch=12 n=59 v=0
168455 On ch=12 n=61 v=0
168474 On ch=12 n=59 v=127
169917 On ch=12 n=61 v=127
169948 On ch=12 n=59 v=0
170364 On ch=12 n=61 v=0
170419 On ch=12 n=64 v=127
171353 On ch=12 n=64 v=0
171399 On ch=12 n=61 v=127
172736 On ch=12 n=61 v=0
172778 On ch=12 n=59 v=127
174198 On ch=12 n=61 v=127
174223 On ch=12 n=59 v=0
174424 On ch=12 n=61 v=0
174445 On ch=12 n=59 v=127
176172 On ch=12 n=61 v=127
176189 On ch=12 n=59 v=0
176633 On ch=12 n=59 v=127
176637 On ch=12 n=61 v=0
177583 On ch=12 n=61 v=127
177621 On ch=12 n=59 v=0
178039 On ch=12 n=64 v=127
178044 On ch=12 n=61 v=0
179019 On ch=12 n=64 v=0
179049 On ch=12 n=61 v=127
186228 On ch=12 n=61 v=0
191989 On ch=12 n=68 v=127
192683 On ch=12 n=68 v=0
192711 On ch=12 n=66 v=127
193368 On ch=12 n=66 v=0
193393 On ch=12 n=64 v=127
193906 On ch=12 n=66 v=127
193942 On ch=12 n=64 v=0
195769 On ch=12 n=66 v=0
195792 On ch=12 n=59 v=127
199076 On ch=12 n=59 v=0
199171 On ch=12 n=68 v=127
199678 On ch=12 n=68 v=0
199740 On ch=12 n=69 v=127
200386 On ch=12 n=68 v=127
200390 On ch=12 n=69 v=0
201091 On ch=12 n=68 v=0
201104 On ch=12 n=66 v=127
201562 On ch=12 n=66 v=0
201596 On ch=12 n=64 v=127
207290 On ch=12 n=64 v=0
207364 On ch=12 n=68 v=127
208002 On ch=12 n=68 v=0
208031 On ch=12 n=66 v=127
208716 On ch=12 n=66 v=0
208743 On ch=12 n=64 v=127
209269 On ch=12 n=66 v=127
209305 On ch=12 n=64 v=0
211170 On ch=12 n=66 v=0
211174 On ch=12 n=59 v=127
214481 On ch=12 n=59 v=0
214534 On ch=12 n=68 v=127
214570 On ch=12 n=71 v=127
214961 On ch=12 n=68 v=0
215013 On ch=12 n=71 v=0
215014 On ch=12 n=69 v=127
215028 On ch=12 n=73 v=127
215757 On ch=12 n=71 v=127
215769 On ch=12 n=73 v=0
215784 On ch=12 n=68 v=127
215808 On ch=12 n=69 v=0
216500 On ch=12 n=71 v=0
216500 On ch=12 n=66 v=123
216505 On ch=12 n=68 v=0
216513 On ch=12 n=69 v=127
216918 On ch=12 n=69 v=0
216922 On ch=12 n=68 v=127
216948 On ch=12 n=64 v=127
216961 On ch=12 n=66 v=0
222739 On ch=12 n=68 v=0
222766 On ch=12 n=69 v=127
226548 On ch=12 n=64 v=0
226694 On ch=12 n=69 v=0
226694 Meta TrkEnd
TrkEnd
