MFile 1 17 480
MTrk
0 Meta SeqName "SoundChaser/YES"
0 SMPTE 96 0 0 0 0
0 TimeSig 4/4 24 8
0 Tempo 166666
1920 Tempo 370370
1920 TimeSig 16/16 24 8
3840 TimeSig 18/16 24 8
6000 Tempo 555556
6720 TimeSig 16/16 24 8
7920 Tempo 370370
10080 TimeSig 18/16 24 8
12240 TimeSig 16/16 24 8
14160 TimeSig 12/16 24 8
17040 TimeSig 16/16 24 8
17040 Tempo 555557
18720 Tempo 370370
22800 TimeSig 18/16 24 8
24960 TimeSig 26/16 24 8
28080 TimeSig 18/16 24 8
30240 TimeSig 14/16 24 8
31920 TimeSig 13/16 24 8
33480 TimeSig 17/16 24 8
35400 TimeSig 24/16 24 8
35400 Tempo 500002
38280 Tempo 600000
38280 TimeSig 16/16 24 8
40200 TimeSig 8/16 24 8
40200 Tempo 769232
41160 Tempo 697675
42120 Tempo 731707
42600 Tempo 833333
45000 TimeSig 12/16 24 8
45600 Tempo 365855
46440 Tempo 555555
46440 TimeSig 8/16 24 8
47400 Tempo 535714
48360 Tempo 769231
48360 TimeSig 10/16 24 8
49560 TimeSig 16/16 24 8
50760 Tempo 526316
51240 Tempo 441179
51480 Tempo 508474
53400 TimeSig 8/16 24 8
54360 TimeSig 20/16 24 8
54360 Tempo 389610
66360 Tempo 384615
80760 TimeSig 16/16 24 8
82680 Tempo 384615
105720 TimeSig 8/16 24 8
106680 TimeSig 20/16 24 8
113880 TimeSig 16/16 24 8
138840 TimeSig 8/16 24 8
139800 TimeSig 20/16 24 8
154200 TimeSig 11/16 24 8
155520 TimeSig 21/16 24 8
158040 TimeSig 10/16 24 8
179640 Tempo 379748
208440 TimeSig 16/16 24 8
210360 Tempo 833338
211800 Tempo 882353
212760 Tempo 937500
213720 Tempo 1111112
214200 Tempo 1034483
216120 Tempo 1071428
217080 Tempo 937500
218040 Tempo 1034482
223800 Tempo 625000
231480 Tempo 380855
232200 Tempo 374508
232220 Tempo 373384
232900 Tempo 371195
232920 Tempo 366067
233600 Tempo 363222
233620 Tempo 358897
234280 Tempo 358545
234300 Tempo 351865
234960 Tempo 350147
234980 Tempo 344970
235320 Tempo 340909
236280 Tempo 348837
236760 Tempo 340909
237240 Tempo 333334
237720 Tempo 344827
238680 Tempo 333334
239160 Tempo 312500
245880 Tempo 454545
258360 Tempo 588237
258360 TimeSig 2/4 24 8
261240 TimeSig 3/4 24 8
261240 Tempo 468750
263480 Tempo 459601
263500 Tempo 422535
264120 Tempo 468750
266440 Tempo 429859
266460 Tempo 425531
269160 Tempo 418552
269180 Tempo 416666
271680 Tempo 414250
271700 Tempo 386604
271800 Tempo 384628
271820 Tempo 384615
277080 Tempo 1000000
277080 TimeSig 16/16 24 8
279000 Tempo 1111111
282360 Tempo 1666676
282600 Tempo 1111111
286680 Tempo 1000000
296280 Tempo 937500
302040 Tempo 1000000
305880 Tempo 1071428
312600 Tempo 625005
313320 Tempo 1071428
317640 Tempo 1000000
323160 Tempo 1071429
327000 Tempo 379747
330840 Tempo 569800
330840 TimeSig 18/16 24 8
332760 Tempo 379747
333000 TimeSig 16/16 24 8
334920 TimeSig 18/16 24 8
337080 TimeSig 16/16 24 8
337080 Tempo 379747
339000 TimeSig 20/16 24 8
341400 TimeSig 18/16 24 8
341400 Tempo 569801
343320 Tempo 379747
343560 TimeSig 16/16 24 8
345480 TimeSig 10/16 24 8
346200 Tempo 600001
346680 Tempo 600000
346680 TimeSig 20/16 24 8
356280 Tempo 576923
365880 Tempo 483871
375480 Tempo 416666
387480 TimeSig 18/16 24 8
389640 TimeSig 20/16 24 8
389640 Tempo 600000
406440 TimeSig 18/16 24 8
408600 TimeSig 20/16 24 8
408600 Tempo 333334
415800 TimeSig 16/16 24 8
417240 Tempo 405405
417720 TimeSig 24/16 24 8
475320 TimeSig 20/16 24 8
475320 Tempo 394785
475800 Tempo 389610
476400 Tempo 384616
477000 Tempo 379746
477720 Tempo 375000
477720 TimeSig 10/16 24 8
478920 TimeSig 20/16 24 8
510120 Tempo 319149
519720 Tempo 340909
519720 Meta TrkEnd
TrkEnd
MTrk
0 Meta TrkName "Vocal"
0 PrCh ch=1 p=85
0 Par ch=1 c=93 v=127
0 Par ch=1 c=91 v=127
0 Par ch=1 c=11 v=127
0 Par ch=1 c=10 v=64
0 Par ch=1 c=7 v=100
0 Par ch=1 c=1 v=0
82200 On ch=1 n=80 v=112
82200 On ch=1 n=77 v=112
82200 On ch=1 n=73 v=112
82440 Off ch=1 n=80 v=64
82440 Off ch=1 n=73 v=64
82440 Off ch=1 n=77 v=64
82440 On ch=1 n=80 v=112
82440 On ch=1 n=77 v=112
82440 On ch=1 n=73 v=112
82680 Off ch=1 n=80 v=64
82680 Off ch=1 n=73 v=64
82680 Off ch=1 n=77 v=64
82680 On ch=1 n=82 v=112
82680 On ch=1 n=78 v=112
82680 On ch=1 n=73 v=112
82920 Off ch=1 n=82 v=64
82920 Off ch=1 n=73 v=64
82920 Off ch=1 n=78 v=64
82920 On ch=1 n=82 v=112
82920 On ch=1 n=78 v=112
82920 On ch=1 n=73 v=112
83400 Off ch=1 n=82 v=64
83400 Off ch=1 n=73 v=64
83400 Off ch=1 n=78 v=64
83400 On ch=1 n=82 v=112
83400 On ch=1 n=78 v=112
83400 On ch=1 n=73 v=112
83640 Off ch=1 n=82 v=64
83640 Off ch=1 n=73 v=64
83640 Off ch=1 n=78 v=64
83880 On ch=1 n=82 v=112
83880 On ch=1 n=78 v=112
83880 On ch=1 n=73 v=112
84120 Off ch=1 n=82 v=64
84120 Off ch=1 n=73 v=64
84120 Off ch=1 n=78 v=64
84360 On ch=1 n=82 v=112
84360 On ch=1 n=78 v=112
84360 On ch=1 n=73 v=112
84840 Off ch=1 n=82 v=64
84840 Off ch=1 n=73 v=64
84840 Off ch=1 n=78 v=64
84840 On ch=1 n=83 v=112
84840 On ch=1 n=78 v=112
84840 On ch=1 n=73 v=112
85320 Off ch=1 n=83 v=64
85320 Off ch=1 n=73 v=64
85320 Off ch=1 n=78 v=64
85320 On ch=1 n=78 v=112
85320 On ch=1 n=73 v=112
85320 On ch=1 n=80 v=112
85800 Off ch=1 n=78 v=64
85800 Off ch=1 n=80 v=64
85800 Off ch=1 n=73 v=64
85800 On ch=1 n=78 v=112
85800 On ch=1 n=73 v=112
85800 On ch=1 n=80 v=112
86280 Off ch=1 n=78 v=64
86280 Off ch=1 n=80 v=64
86280 Off ch=1 n=73 v=64
86280 On ch=1 n=78 v=112
86280 On ch=1 n=73 v=112
86280 On ch=1 n=80 v=112
86760 Off ch=1 n=78 v=64
86760 Off ch=1 n=80 v=64
86760 Off ch=1 n=73 v=64
86760 On ch=1 n=75 v=112
86760 On ch=1 n=78 v=112
86760 On ch=1 n=82 v=112
87240 Off ch=1 n=75 v=64
87240 Off ch=1 n=82 v=64
87240 Off ch=1 n=78 v=64
87240 On ch=1 n=78 v=112
87240 On ch=1 n=75 v=112
87240 On ch=1 n=71 v=112
88440 Off ch=1 n=78 v=64
88440 Off ch=1 n=71 v=64
88440 Off ch=1 n=75 v=64
89880 On ch=1 n=78 v=112
89880 On ch=1 n=70 v=112
89880 On ch=1 n=73 v=112
90120 Off ch=1 n=78 v=64
90120 Off ch=1 n=73 v=64
90120 Off ch=1 n=70 v=64
90120 On ch=1 n=75 v=112
90120 On ch=1 n=71 v=112
90120 On ch=1 n=80 v=112
90360 Off ch=1 n=75 v=64
90360 Off ch=1 n=80 v=64
90360 Off ch=1 n=71 v=64
90360 On ch=1 n=78 v=112
90360 On ch=1 n=82 v=112
90360 On ch=1 n=73 v=112
90840 Off ch=1 n=78 v=64
90840 Off ch=1 n=73 v=64
90840 Off ch=1 n=82 v=64
90840 On ch=1 n=78 v=112
90840 On ch=1 n=73 v=112
90840 On ch=1 n=82 v=112
91080 Off ch=1 n=78 v=64
91080 Off ch=1 n=82 v=64
91080 Off ch=1 n=73 v=64
91080 On ch=1 n=78 v=112
91080 On ch=1 n=73 v=112
91080 On ch=1 n=82 v=112
91560 Off ch=1 n=78 v=64
91560 Off ch=1 n=82 v=64
91560 Off ch=1 n=73 v=64
91560 On ch=1 n=82 v=112
91560 On ch=1 n=73 v=112
91560 On ch=1 n=78 v=112
92040 Off ch=1 n=82 v=64
92040 Off ch=1 n=78 v=64
92040 Off ch=1 n=73 v=64
92040 On ch=1 n=73 v=112
92040 On ch=1 n=78 v=112
92040 On ch=1 n=82 v=112
92280 Off ch=1 n=73 v=64
92280 Off ch=1 n=82 v=64
92280 Off ch=1 n=78 v=64
92280 On ch=1 n=78 v=112
92280 On ch=1 n=82 v=112
92280 On ch=1 n=73 v=112
92760 Off ch=1 n=78 v=64
92760 Off ch=1 n=73 v=64
92760 Off ch=1 n=82 v=64
92760 On ch=1 n=83 v=112
92760 On ch=1 n=80 v=112
92760 On ch=1 n=75 v=112
93000 Off ch=1 n=83 v=64
93000 Off ch=1 n=75 v=64
93000 Off ch=1 n=80 v=64
93000 On ch=1 n=80 v=112
93000 On ch=1 n=75 v=112
93000 On ch=1 n=71 v=112
93720 Off ch=1 n=80 v=64
93720 Off ch=1 n=71 v=64
93720 Off ch=1 n=75 v=64
93720 On ch=1 n=68 v=112
93720 On ch=1 n=80 v=112
93720 On ch=1 n=73 v=112
94200 Off ch=1 n=68 v=64
94200 Off ch=1 n=73 v=64
94200 Off ch=1 n=80 v=64
94200 On ch=1 n=76 v=112
94200 On ch=1 n=73 v=112
94200 On ch=1 n=69 v=112
94920 Off ch=1 n=76 v=64
94920 Off ch=1 n=69 v=64
94920 Off ch=1 n=73 v=64
94920 On ch=1 n=76 v=112
94920 On ch=1 n=74 v=112
94920 On ch=1 n=69 v=112
95640 Off ch=1 n=76 v=64
95640 Off ch=1 n=69 v=64
95640 Off ch=1 n=74 v=64
95640 On ch=1 n=71 v=112
95640 On ch=1 n=68 v=112
95640 On ch=1 n=76 v=112
96360 Off ch=1 n=71 v=64
96360 Off ch=1 n=76 v=64
96360 Off ch=1 n=68 v=64
96360 On ch=1 n=80 v=112
96360 On ch=1 n=71 v=112
96360 On ch=1 n=68 v=112
97080 Off ch=1 n=80 v=64
97080 Off ch=1 n=68 v=64
97080 Off ch=1 n=71 v=64
97080 On ch=1 n=80 v=112
97080 On ch=1 n=76 v=112
97080 On ch=1 n=71 v=112
98040 Off ch=1 n=80 v=64
98040 Off ch=1 n=71 v=64
98040 Off ch=1 n=76 v=64
98040 On ch=1 n=76 v=112
98040 On ch=1 n=73 v=112
98040 On ch=1 n=69 v=112
98760 Off ch=1 n=76 v=64
98760 Off ch=1 n=69 v=64
98760 Off ch=1 n=73 v=64
98760 On ch=1 n=69 v=112
98760 On ch=1 n=74 v=112
98760 On ch=1 n=78 v=112
99480 Off ch=1 n=69 v=64
99480 Off ch=1 n=78 v=64
99480 Off ch=1 n=74 v=64
99480 On ch=1 n=80 v=112
99480 On ch=1 n=76 v=112
99480 On ch=1 n=71 v=112
100200 Off ch=1 n=80 v=64
100200 Off ch=1 n=71 v=64
100200 Off ch=1 n=76 v=64
100200 On ch=1 n=78 v=112
100200 On ch=1 n=76 v=112
100200 On ch=1 n=71 v=112
100920 Off ch=1 n=78 v=64
100920 Off ch=1 n=71 v=64
100920 Off ch=1 n=76 v=64
100920 On ch=1 n=71 v=112
100920 On ch=1 n=76 v=112
100920 On ch=1 n=80 v=112
101400 Off ch=1 n=71 v=64
101400 Off ch=1 n=80 v=64
101400 Off ch=1 n=76 v=64
101400 On ch=1 n=76 v=112
101400 On ch=1 n=71 v=112
101400 On ch=1 n=68 v=112
101880 Off ch=1 n=76 v=64
101880 Off ch=1 n=68 v=64
101880 Off ch=1 n=71 v=64
101880 On ch=1 n=78 v=112
101880 On ch=1 n=73 v=112
101880 On ch=1 n=70 v=112
102600 Off ch=1 n=78 v=64
102600 Off ch=1 n=70 v=64
102600 Off ch=1 n=73 v=64
102600 On ch=1 n=73 v=112
102600 On ch=1 n=78 v=112
102600 On ch=1 n=70 v=112
103320 Off ch=1 n=73 v=64
103320 Off ch=1 n=70 v=64
103320 Off ch=1 n=78 v=64
103320 On ch=1 n=77 v=112
103320 On ch=1 n=73 v=112
103320 On ch=1 n=68 v=112
103800 Off ch=1 n=77 v=64
103800 Off ch=1 n=68 v=64
103800 Off ch=1 n=73 v=64
104040 On ch=1 n=78 v=112
104040 On ch=1 n=73 v=112
104040 On ch=1 n=68 v=112
104520 Off ch=1 n=78 v=64
104520 Off ch=1 n=68 v=64
104520 Off ch=1 n=73 v=64
104760 On ch=1 n=68 v=112
104760 On ch=1 n=80 v=112
104760 On ch=1 n=73 v=112
105240 Off ch=1 n=68 v=64
105240 Off ch=1 n=73 v=64
105240 Off ch=1 n=80 v=64
105240 On ch=1 n=78 v=112
105240 On ch=1 n=73 v=112
105240 On ch=1 n=68 v=112
105720 Off ch=1 n=78 v=64
105720 Off ch=1 n=68 v=64
105720 Off ch=1 n=73 v=64
105720 On ch=1 n=83 v=112
105720 On ch=1 n=80 v=112
105720 On ch=1 n=76 v=112
106040 Off ch=1 n=83 v=64
106040 Off ch=1 n=76 v=64
106040 Off ch=1 n=80 v=64
106040 On ch=1 n=82 v=112
106040 On ch=1 n=78 v=112
106040 On ch=1 n=74 v=112
106360 Off ch=1 n=82 v=64
106360 Off ch=1 n=74 v=64
106360 Off ch=1 n=78 v=64
106360 On ch=1 n=80 v=112
106360 On ch=1 n=76 v=112
106360 On ch=1 n=73 v=112
106680 Off ch=1 n=80 v=64
106680 Off ch=1 n=73 v=64
106680 Off ch=1 n=76 v=64
106680 On ch=1 n=80 v=112
106680 On ch=1 n=76 v=112
106680 On ch=1 n=71 v=112
109080 Off ch=1 n=80 v=64
109080 Off ch=1 n=71 v=64
109080 Off ch=1 n=76 v=64
109080 On ch=1 n=81 v=112
109080 On ch=1 n=76 v=112
109080 On ch=1 n=73 v=112
109560 Off ch=1 n=81 v=64
109560 Off ch=1 n=73 v=64
109560 Off ch=1 n=76 v=64
109560 On ch=1 n=78 v=112
109560 On ch=1 n=75 v=112
109560 On ch=1 n=69 v=112
111480 Off ch=1 n=78 v=64
111480 Off ch=1 n=69 v=64
111480 Off ch=1 n=75 v=64
115320 On ch=1 n=80 v=112
115320 On ch=1 n=76 v=112
115320 On ch=1 n=71 v=112
115560 Off ch=1 n=80 v=64
115560 Off ch=1 n=71 v=64
115560 Off ch=1 n=76 v=64
115560 On ch=1 n=78 v=112
115560 On ch=1 n=76 v=112
115560 On ch=1 n=71 v=112
115800 Off ch=1 n=78 v=64
115800 Off ch=1 n=71 v=64
115800 Off ch=1 n=76 v=64
115800 On ch=1 n=80 v=112
115800 On ch=1 n=76 v=112
115800 On ch=1 n=71 v=112
116280 Off ch=1 n=80 v=64
116280 Off ch=1 n=71 v=64
116280 Off ch=1 n=76 v=64
116280 On ch=1 n=80 v=112
116280 On ch=1 n=76 v=112
116280 On ch=1 n=71 v=112
116520 Off ch=1 n=80 v=64
116520 Off ch=1 n=71 v=64
116520 Off ch=1 n=76 v=64
116520 On ch=1 n=76 v=112
116520 On ch=1 n=71 v=112
116520 On ch=1 n=80 v=112
117000 Off ch=1 n=76 v=64
117000 Off ch=1 n=80 v=64
117000 Off ch=1 n=71 v=64
117000 On ch=1 n=71 v=112
117000 On ch=1 n=76 v=112
117000 On ch=1 n=80 v=112
117480 Off ch=1 n=71 v=64
117480 Off ch=1 n=80 v=64
117480 Off ch=1 n=76 v=64
117480 On ch=1 n=75 v=112
117480 On ch=1 n=80 v=112
117480 On ch=1 n=83 v=112
117960 Off ch=1 n=75 v=64
117960 Off ch=1 n=83 v=64
117960 Off ch=1 n=80 v=64
117960 On ch=1 n=80 v=112
117960 On ch=1 n=75 v=112
117960 On ch=1 n=83 v=112
118440 Off ch=1 n=80 v=64
118440 Off ch=1 n=83 v=64
118440 Off ch=1 n=75 v=64
118440 On ch=1 n=80 v=112
118440 On ch=1 n=83 v=112
118440 On ch=1 n=75 v=112
118920 Off ch=1 n=80 v=64
118920 Off ch=1 n=75 v=64
118920 Off ch=1 n=83 v=64
118920 On ch=1 n=83 v=112
118920 On ch=1 n=80 v=112
118920 On ch=1 n=75 v=112
119400 Off ch=1 n=83 v=64
119400 Off ch=1 n=75 v=64
119400 Off ch=1 n=80 v=64
119400 On ch=1 n=78 v=112
119400 On ch=1 n=75 v=112
119400 On ch=1 n=81 v=112
119640 Off ch=1 n=78 v=64
119640 Off ch=1 n=81 v=64
119640 Off ch=1 n=75 v=64
119640 On ch=1 n=76 v=112
119640 On ch=1 n=83 v=112
119640 On ch=1 n=80 v=112
120120 Off ch=1 n=76 v=64
120120 Off ch=1 n=80 v=64
120120 Off ch=1 n=83 v=64
120120 On ch=1 n=81 v=112
120120 On ch=1 n=73 v=112
120120 On ch=1 n=76 v=112
120360 Off ch=1 n=81 v=64
120360 Off ch=1 n=76 v=64
120360 Off ch=1 n=73 v=64
120360 On ch=1 n=69 v=112
120360 On ch=1 n=76 v=112
120360 On ch=1 n=73 v=112
121080 Off ch=1 n=69 v=64
121080 Off ch=1 n=73 v=64
121080 Off ch=1 n=76 v=64
123000 On ch=1 n=68 v=112
123000 On ch=1 n=76 v=112
123000 On ch=1 n=83 v=112
123240 Off ch=1 n=68 v=64
123240 Off ch=1 n=83 v=64
123240 Off ch=1 n=76 v=64
123240 On ch=1 n=69 v=112
123240 On ch=1 n=78 v=112
123240 On ch=1 n=83 v=112
123480 Off ch=1 n=69 v=64
123480 Off ch=1 n=83 v=64
123480 Off ch=1 n=78 v=64
123480 On ch=1 n=71 v=112
123480 On ch=1 n=80 v=112
123480 On ch=1 n=83 v=112
123960 Off ch=1 n=71 v=64
123960 Off ch=1 n=83 v=64
123960 Off ch=1 n=80 v=64
123960 On ch=1 n=83 v=112
123960 On ch=1 n=71 v=112
123960 On ch=1 n=80 v=112
124200 Off ch=1 n=83 v=64
124200 Off ch=1 n=80 v=64
124200 Off ch=1 n=71 v=64
124200 On ch=1 n=73 v=112
124200 On ch=1 n=78 v=112
124200 On ch=1 n=81 v=112
124680 Off ch=1 n=73 v=64
124680 Off ch=1 n=81 v=64
124680 Off ch=1 n=78 v=64
124680 On ch=1 n=80 v=112
124680 On ch=1 n=76 v=112
124680 On ch=1 n=71 v=112
124920 Off ch=1 n=80 v=64
124920 Off ch=1 n=71 v=64
124920 Off ch=1 n=76 v=64
125160 On ch=1 n=83 v=112
125160 On ch=1 n=80 v=112
125160 On ch=1 n=73 v=112
125640 Off ch=1 n=83 v=64
125640 Off ch=1 n=73 v=64
125640 Off ch=1 n=80 v=64
125640 On ch=1 n=76 v=112
125640 On ch=1 n=71 v=112
125640 On ch=1 n=80 v=112
126120 Off ch=1 n=76 v=64
126120 Off ch=1 n=80 v=64
126120 Off ch=1 n=71 v=64
126120 On ch=1 n=73 v=112
126120 On ch=1 n=78 v=112
126120 On ch=1 n=81 v=112
126600 Off ch=1 n=73 v=64
126600 Off ch=1 n=81 v=64
126600 Off ch=1 n=78 v=64
126600 On ch=1 n=71 v=112
126600 On ch=1 n=76 v=112
126600 On ch=1 n=80 v=112
127080 Off ch=1 n=71 v=64
127080 Off ch=1 n=80 v=64
127080 Off ch=1 n=76 v=64
127320 On ch=1 n=81 v=112
127320 On ch=1 n=74 v=112
127320 On ch=1 n=71 v=112
128040 On ch=1 n=74 v=112
128040 On ch=1 n=72 v=112
128040 On ch=1 n=81 v=112
128760 Off ch=1 n=81 v=64
128760 Off ch=1 n=81 v=64
128760 Off ch=1 n=72 v=64
128760 Off ch=1 n=74 v=64
128760 Off ch=1 n=71 v=64
128760 Off ch=1 n=74 v=64
128760 On ch=1 n=81 v=112
128760 On ch=1 n=74 v=112
129720 Off ch=1 n=81 v=64
129720 Off ch=1 n=74 v=64
129720 On ch=1 n=76 v=112
129720 On ch=1 n=81 v=112
130200 Off ch=1 n=76 v=64
130200 Off ch=1 n=81 v=64
130200 On ch=1 n=75 v=112
130200 On ch=1 n=83 v=112
130680 Off ch=1 n=75 v=64
130680 Off ch=1 n=83 v=64
130680 On ch=1 n=75 v=112
130680 On ch=1 n=81 v=112
131160 Off ch=1 n=75 v=64
131160 Off ch=1 n=81 v=64
131400 On ch=1 n=83 v=112
131400 On ch=1 n=79 v=112
131400 On ch=1 n=71 v=112
131640 Off ch=1 n=83 v=64
131640 Off ch=1 n=71 v=64
131640 Off ch=1 n=79 v=64
131640 On ch=1 n=79 v=112
131640 On ch=1 n=83 v=112
131640 On ch=1 n=71 v=112
131880 Off ch=1 n=79 v=64
131880 Off ch=1 n=71 v=64
131880 Off ch=1 n=83 v=64
131880 On ch=1 n=79 v=112
131880 On ch=1 n=83 v=112
131880 On ch=1 n=71 v=112
132120 Off ch=1 n=79 v=64
132120 Off ch=1 n=71 v=64
132120 Off ch=1 n=83 v=64
132120 On ch=1 n=79 v=112
132120 On ch=1 n=84 v=112
132120 On ch=1 n=72 v=112
132360 Off ch=1 n=79 v=64
132360 Off ch=1 n=72 v=64
132360 Off ch=1 n=84 v=64
132360 On ch=1 n=78 v=112
132360 On ch=1 n=81 v=112
132360 On ch=1 n=72 v=112
132600 Off ch=1 n=78 v=64
132600 Off ch=1 n=72 v=64
132600 Off ch=1 n=81 v=64
132600 On ch=1 n=78 v=112
132600 On ch=1 n=81 v=112
132600 On ch=1 n=72 v=112
132840 Off ch=1 n=78 v=64
132840 Off ch=1 n=72 v=64
132840 Off ch=1 n=81 v=64
132840 On ch=1 n=78 v=112
132840 On ch=1 n=81 v=112
132840 On ch=1 n=74 v=112
133320 Off ch=1 n=78 v=64
133320 Off ch=1 n=74 v=64
133320 Off ch=1 n=81 v=64
133320 On ch=1 n=81 v=112
133320 On ch=1 n=78 v=112
133320 On ch=1 n=74 v=112
134520 Off ch=1 n=81 v=64
134520 Off ch=1 n=74 v=64
134520 Off ch=1 n=78 v=64
135240 On ch=1 n=76 v=112
135240 On ch=1 n=80 v=112
135240 On ch=1 n=83 v=112
135480 Off ch=1 n=76 v=64
135480 Off ch=1 n=83 v=64
135480 Off ch=1 n=80 v=64
135480 On ch=1 n=76 v=112
135480 On ch=1 n=80 v=112
135480 On ch=1 n=83 v=112
135720 Off ch=1 n=76 v=64
135720 Off ch=1 n=83 v=64
135720 Off ch=1 n=80 v=64
135720 On ch=1 n=83 v=112
135720 On ch=1 n=80 v=112
135720 On ch=1 n=76 v=112
135960 Off ch=1 n=83 v=64
135960 Off ch=1 n=76 v=64
135960 Off ch=1 n=80 v=64
135960 On ch=1 n=83 v=112
135960 On ch=1 n=80 v=112
135960 On ch=1 n=76 v=112
136200 Off ch=1 n=83 v=64
136200 Off ch=1 n=76 v=64
136200 Off ch=1 n=80 v=64
136200 On ch=1 n=76 v=112
136200 On ch=1 n=80 v=112
136200 On ch=1 n=71 v=112
136440 Off ch=1 n=76 v=64
136440 Off ch=1 n=71 v=64
136440 Off ch=1 n=80 v=64
136440 On ch=1 n=76 v=112
136440 On ch=1 n=71 v=112
136440 On ch=1 n=80 v=112
136680 Off ch=1 n=76 v=64
136680 Off ch=1 n=80 v=64
136680 Off ch=1 n=71 v=64
136680 On ch=1 n=73 v=112
136680 On ch=1 n=81 v=112
136680 On ch=1 n=78 v=112
136920 Off ch=1 n=73 v=64
136920 Off ch=1 n=78 v=64
136920 Off ch=1 n=81 v=64
136920 On ch=1 n=75 v=112
136920 On ch=1 n=78 v=112
136920 On ch=1 n=81 v=112
137160 Off ch=1 n=75 v=64
137160 Off ch=1 n=81 v=64
137160 Off ch=1 n=78 v=64
137160 On ch=1 n=81 v=112
137160 On ch=1 n=78 v=112
137160 On ch=1 n=75 v=112
137880 Off ch=1 n=81 v=64
137880 Off ch=1 n=75 v=64
137880 Off ch=1 n=78 v=64
137880 On ch=1 n=81 v=112
137880 On ch=1 n=78 v=112
137880 On ch=1 n=75 v=112
138360 Off ch=1 n=81 v=64
138360 Off ch=1 n=75 v=64
138360 Off ch=1 n=78 v=64
138360 On ch=1 n=81 v=112
138360 On ch=1 n=78 v=112
138360 On ch=1 n=75 v=112
138840 Off ch=1 n=81 v=64
138840 Off ch=1 n=75 v=64
138840 Off ch=1 n=78 v=64
138840 On ch=1 n=74 v=112
138840 On ch=1 n=79 v=112
138840 On ch=1 n=83 v=112
139160 Off ch=1 n=74 v=64
139160 Off ch=1 n=83 v=64
139160 Off ch=1 n=79 v=64
139160 On ch=1 n=81 v=112
139160 On ch=1 n=78 v=112
139160 On ch=1 n=74 v=112
139480 Off ch=1 n=81 v=64
139480 Off ch=1 n=74 v=64
139480 Off ch=1 n=78 v=64
139480 On ch=1 n=79 v=112
139480 On ch=1 n=74 v=112
139480 On ch=1 n=71 v=112
139800 Off ch=1 n=79 v=64
139800 Off ch=1 n=71 v=64
139800 Off ch=1 n=74 v=64
139800 On ch=1 n=69 v=112
139800 On ch=1 n=74 v=112
139800 On ch=1 n=78 v=112
142200 Off ch=1 n=69 v=64
142200 Off ch=1 n=78 v=64
142200 Off ch=1 n=74 v=64
142200 On ch=1 n=69 v=112
142200 On ch=1 n=74 v=112
142200 On ch=1 n=79 v=112
142680 Off ch=1 n=69 v=64
142680 Off ch=1 n=79 v=64
142680 Off ch=1 n=74 v=64
142680 On ch=1 n=67 v=112
142680 On ch=1 n=72 v=112
142680 On ch=1 n=76 v=112
144600 On ch=1 n=76 v=112
144600 On ch=1 n=73 v=112
144600 On ch=1 n=67 v=112
145080 Off ch=1 n=67 v=64
145080 Off ch=1 n=67 v=64
145080 Off ch=1 n=73 v=64
145080 Off ch=1 n=76 v=64
145080 Off ch=1 n=76 v=64
145080 Off ch=1 n=72 v=64
145080 On ch=1 n=78 v=112
145080 On ch=1 n=74 v=112
145080 On ch=1 n=67 v=112
145560 Off ch=1 n=78 v=64
145560 Off ch=1 n=67 v=64
145560 Off ch=1 n=74 v=64
145560 On ch=1 n=74 v=112
145560 On ch=1 n=71 v=112
145560 On ch=1 n=64 v=112
147000 Off ch=1 n=74 v=64
147000 Off ch=1 n=64 v=64
147000 Off ch=1 n=71 v=64
277080 PrCh ch=1 p=52
309480 On ch=1 n=70 v=96
309600 Off ch=1 n=70 v=64
309600 On ch=1 n=72 v=96
309720 Off ch=1 n=72 v=64
309720 On ch=1 n=74 v=96
309960 Off ch=1 n=74 v=64
309960 On ch=1 n=74 v=96
310200 Off ch=1 n=74 v=64
310200 On ch=1 n=74 v=96
310440 Off ch=1 n=74 v=64
310440 On ch=1 n=74 v=96
310680 Off ch=1 n=74 v=64
310680 On ch=1 n=74 v=96
310920 Off ch=1 n=74 v=64
310920 On ch=1 n=74 v=96
311040 Off ch=1 n=74 v=64
311040 On ch=1 n=74 v=96
311400 Off ch=1 n=74 v=64
311520 On ch=1 n=74 v=96
311640 Off ch=1 n=74 v=64
311640 On ch=1 n=74 v=96
311880 Off ch=1 n=74 v=64
311880 On ch=1 n=72 v=96
312000 Off ch=1 n=72 v=64
312000 On ch=1 n=67 v=96
312120 Off ch=1 n=67 v=64
312120 On ch=1 n=67 v=96
312480 Off ch=1 n=67 v=64
313320 On ch=1 n=70 v=96
313440 Off ch=1 n=70 v=64
313440 On ch=1 n=72 v=96
313560 Off ch=1 n=72 v=64
313560 On ch=1 n=74 v=96
313800 Off ch=1 n=74 v=64
313920 On ch=1 n=74 v=96
314280 Off ch=1 n=74 v=64
314280 On ch=1 n=74 v=96
314520 Off ch=1 n=74 v=64
314520 On ch=1 n=74 v=96
314760 Off ch=1 n=74 v=64
314760 On ch=1 n=74 v=96
314880 Off ch=1 n=74 v=64
314880 On ch=1 n=74 v=96
315240 Off ch=1 n=74 v=64
315240 On ch=1 n=74 v=96
315480 Off ch=1 n=74 v=64
315480 On ch=1 n=74 v=96
315720 Off ch=1 n=74 v=64
315720 On ch=1 n=72 v=96
315840 Off ch=1 n=72 v=64
315840 On ch=1 n=70 v=96
316080 Off ch=1 n=70 v=64
316080 On ch=1 n=68 v=96
316800 Off ch=1 n=68 v=64
317160 On ch=1 n=70 v=96
317280 Off ch=1 n=70 v=64
317280 On ch=1 n=72 v=96
317400 Off ch=1 n=72 v=64
317400 On ch=1 n=74 v=96
317640 Off ch=1 n=74 v=64
317640 On ch=1 n=74 v=96
317880 Off ch=1 n=74 v=64
317880 On ch=1 n=74 v=96
318000 Off ch=1 n=74 v=64
318040 On ch=1 n=74 v=96
318240 Off ch=1 n=74 v=64
318360 On ch=1 n=74 v=96
318600 Off ch=1 n=74 v=64
318600 On ch=1 n=75 v=96
318840 Off ch=1 n=75 v=64
318840 On ch=1 n=72 v=96
319080 Off ch=1 n=72 v=64
319080 On ch=1 n=70 v=96
319320 Off ch=1 n=70 v=64
319320 On ch=1 n=65 v=96
319560 Off ch=1 n=65 v=64
319680 On ch=1 n=70 v=96
320040 Off ch=1 n=70 v=64
320040 On ch=1 n=72 v=96
320400 Off ch=1 n=72 v=64
320400 On ch=1 n=72 v=96
320640 Off ch=1 n=72 v=64
320760 On ch=1 n=72 v=96
321120 Off ch=1 n=72 v=64
321360 On ch=1 n=77 v=96
321480 Off ch=1 n=77 v=64
321480 On ch=1 n=77 v=96
321600 Off ch=1 n=77 v=64
321600 On ch=1 n=77 v=96
321720 Off ch=1 n=77 v=64
321720 On ch=1 n=77 v=96
321840 Off ch=1 n=77 v=64
321840 On ch=1 n=75 v=96
321960 Off ch=1 n=75 v=64
321960 On ch=1 n=75 v=96
322080 Off ch=1 n=75 v=64
322080 On ch=1 n=75 v=96
322200 Off ch=1 n=75 v=64
322200 On ch=1 n=75 v=96
322320 Off ch=1 n=75 v=64
322320 On ch=1 n=72 v=96
323040 Off ch=1 n=72 v=64
323280 On ch=1 n=77 v=96
323400 Off ch=1 n=77 v=64
323400 On ch=1 n=77 v=96
323520 Off ch=1 n=77 v=64
323520 On ch=1 n=77 v=96
323640 Off ch=1 n=77 v=64
323640 On ch=1 n=77 v=96
324000 Off ch=1 n=77 v=64
324120 On ch=1 n=77 v=96
324240 Off ch=1 n=77 v=64
324240 On ch=1 n=77 v=96
324360 Off ch=1 n=77 v=64
324360 On ch=1 n=77 v=96
324480 Off ch=1 n=77 v=64
324480 On ch=1 n=77 v=96
324840 Off ch=1 n=77 v=64
324960 On ch=1 n=77 v=96
325080 Off ch=1 n=77 v=64
325080 On ch=1 n=77 v=96
325200 Off ch=1 n=77 v=64
325240 On ch=1 n=77 v=96
325320 Off ch=1 n=77 v=64
325400 On ch=1 n=77 v=96
325560 Off ch=1 n=77 v=64
325560 On ch=1 n=79 v=96
328440 Off ch=1 n=79 v=64
346680 Par ch=1 c=10 v=127
346680 Par ch=1 c=93 v=127
346680 PrCh ch=1 p=85
408600 On ch=1 n=81 v=112
408600 On ch=1 n=69 v=112
408840 Off ch=1 n=81 v=64
408840 Off ch=1 n=69 v=64
408960 On ch=1 n=84 v=112
408960 On ch=1 n=72 v=112
409320 Off ch=1 n=84 v=64
409320 Off ch=1 n=72 v=64
409320 On ch=1 n=81 v=112
409320 On ch=1 n=69 v=112
410040 Off ch=1 n=81 v=64
410040 Off ch=1 n=69 v=64
410040 On ch=1 n=67 v=112
410040 On ch=1 n=79 v=112
410280 Off ch=1 n=67 v=64
410280 Off ch=1 n=79 v=64
410280 On ch=1 n=78 v=112
410280 On ch=1 n=66 v=112
410520 Off ch=1 n=78 v=64
410520 Off ch=1 n=66 v=64
411000 On ch=1 n=81 v=112
411000 On ch=1 n=69 v=112
411240 Off ch=1 n=81 v=64
411240 Off ch=1 n=69 v=64
411360 On ch=1 n=84 v=112
411360 On ch=1 n=72 v=112
411720 Off ch=1 n=84 v=64
411720 Off ch=1 n=72 v=64
411720 On ch=1 n=81 v=112
411720 On ch=1 n=69 v=112
412440 Off ch=1 n=81 v=64
412440 Off ch=1 n=69 v=64
412440 On ch=1 n=79 v=112
412440 On ch=1 n=67 v=112
412680 Off ch=1 n=79 v=64
412680 Off ch=1 n=67 v=64
412680 On ch=1 n=78 v=112
412680 On ch=1 n=66 v=112
412920 Off ch=1 n=78 v=64
412920 Off ch=1 n=66 v=64
413400 On ch=1 n=81 v=112
413400 On ch=1 n=69 v=112
413640 Off ch=1 n=81 v=64
413640 Off ch=1 n=69 v=64
413760 On ch=1 n=84 v=112
413760 On ch=1 n=72 v=112
414120 Off ch=1 n=84 v=64
414120 Off ch=1 n=72 v=64
414120 On ch=1 n=81 v=112
414120 On ch=1 n=69 v=112
414840 Off ch=1 n=81 v=64
414840 Off ch=1 n=69 v=64
414840 On ch=1 n=79 v=112
414840 On ch=1 n=67 v=112
415080 Off ch=1 n=79 v=64
415080 Off ch=1 n=67 v=64
415080 On ch=1 n=78 v=112
415080 On ch=1 n=66 v=112
415320 Off ch=1 n=78 v=64
415320 Off ch=1 n=66 v=64
415800 On ch=1 n=81 v=112
415800 On ch=1 n=69 v=112
416040 Off ch=1 n=81 v=64
416040 Off ch=1 n=69 v=64
416160 On ch=1 n=84 v=112
416160 On ch=1 n=72 v=112
416520 On ch=1 n=81 v=112
416520 On ch=1 n=69 v=112
417000 Off ch=1 n=84 v=64
417000 Off ch=1 n=69 v=64
417000 Off ch=1 n=81 v=64
417000 Off ch=1 n=72 v=64
510120 On ch=1 n=67 v=112
510120 On ch=1 n=79 v=112
510480 Off ch=1 n=67 v=64
510480 Off ch=1 n=79 v=64
510480 On ch=1 n=69 v=112
510480 On ch=1 n=81 v=112
510840 Off ch=1 n=69 v=64
510840 Off ch=1 n=81 v=64
510840 On ch=1 n=67 v=112
510840 On ch=1 n=79 v=112
511560 Off ch=1 n=67 v=64
511560 Off ch=1 n=79 v=64
511560 On ch=1 n=72 v=112
511560 On ch=1 n=84 v=112
511920 Off ch=1 n=72 v=64
511920 Off ch=1 n=84 v=64
511920 On ch=1 n=71 v=112
511920 On ch=1 n=83 v=112
512280 Off ch=1 n=71 v=64
512280 Off ch=1 n=83 v=64
512520 On ch=1 n=67 v=112
512520 On ch=1 n=79 v=112
512880 Off ch=1 n=67 v=64
512880 Off ch=1 n=79 v=64
512880 On ch=1 n=69 v=112
512880 On ch=1 n=81 v=112
513240 Off ch=1 n=69 v=64
513240 Off ch=1 n=81 v=64
513240 On ch=1 n=67 v=112
513240 On ch=1 n=79 v=112
513960 Off ch=1 n=67 v=64
513960 Off ch=1 n=79 v=64
513960 On ch=1 n=72 v=112
513960 On ch=1 n=84 v=112
514320 Off ch=1 n=72 v=64
514320 Off ch=1 n=84 v=64
514320 On ch=1 n=71 v=112
514320 On ch=1 n=83 v=112
514680 Off ch=1 n=71 v=64
514680 Off ch=1 n=83 v=64
514920 On ch=1 n=67 v=112
514920 On ch=1 n=79 v=112
515280 Off ch=1 n=67 v=64
515280 Off ch=1 n=79 v=64
515280 On ch=1 n=69 v=112
515280 On ch=1 n=81 v=112
515640 Off ch=1 n=69 v=64
515640 Off ch=1 n=81 v=64
515640 On ch=1 n=67 v=112
515640 On ch=1 n=79 v=112
516360 Off ch=1 n=67 v=64
516360 Off ch=1 n=79 v=64
516360 On ch=1 n=72 v=112
516360 On ch=1 n=84 v=112
516720 Off ch=1 n=72 v=64
516720 Off ch=1 n=84 v=64
516720 On ch=1 n=71 v=112
516720 On ch=1 n=83 v=112
517080 Off ch=1 n=71 v=64
517080 Off ch=1 n=83 v=64
517320 On ch=1 n=67 v=112
517320 On ch=1 n=79 v=112
517680 Off ch=1 n=67 v=64
517680 Off ch=1 n=79 v=64
517680 On ch=1 n=69 v=112
517680 On ch=1 n=81 v=112
518040 Off ch=1 n=69 v=64
518040 Off ch=1 n=81 v=64
518040 On ch=1 n=67 v=112
518040 On ch=1 n=79 v=112
518760 Off ch=1 n=67 v=64
518760 Off ch=1 n=79 v=64
518760 On ch=1 n=72 v=112
518760 On ch=1 n=84 v=112
519120 Off ch=1 n=72 v=64
519120 Off ch=1 n=84 v=64
519120 On ch=1 n=71 v=112
519120 On ch=1 n=83 v=112
519480 Off ch=1 n=71 v=64
519480 Off ch=1 n=83 v=64
519480 Meta TrkEnd
TrkEnd
MTrk
0 Meta TrkName "Vocal SUB"
0 Par ch=2 c=1 v=0
0 Par ch=2 c=7 v=100
0 Par ch=2 c=10 v=0
0 Par ch=2 c=11 v=127
0 Par ch=2 c=91 v=127
0 Par ch=2 c=93 v=127
0 PrCh ch=2 p=85
408630 On ch=2 n=81 v=112
408630 On ch=2 n=69 v=112
408870 Off ch=2 n=81 v=64
408870 Off ch=2 n=69 v=64
408990 On ch=2 n=84 v=112
408990 On ch=2 n=72 v=112
409350 Off ch=2 n=84 v=64
409350 Off ch=2 n=72 v=64
409350 On ch=2 n=81 v=112
409350 On ch=2 n=69 v=112
410070 Off ch=2 n=81 v=64
410070 Off ch=2 n=69 v=64
410070 On ch=2 n=79 v=112
410070 On ch=2 n=67 v=112
410310 Off ch=2 n=79 v=64
410310 Off ch=2 n=67 v=64
410310 On ch=2 n=78 v=112
410310 On ch=2 n=66 v=112
410550 Off ch=2 n=78 v=64
410550 Off ch=2 n=66 v=64
411030 On ch=2 n=81 v=112
411030 On ch=2 n=69 v=112
411270 Off ch=2 n=81 v=64
411270 Off ch=2 n=69 v=64
411390 On ch=2 n=84 v=112
411390 On ch=2 n=72 v=112
411750 Off ch=2 n=84 v=64
411750 Off ch=2 n=72 v=64
411750 On ch=2 n=81 v=112
411750 On ch=2 n=69 v=112
412470 Off ch=2 n=81 v=64
412470 Off ch=2 n=69 v=64
412470 On ch=2 n=79 v=112
412470 On ch=2 n=67 v=112
412710 Off ch=2 n=79 v=64
412710 Off ch=2 n=67 v=64
412710 On ch=2 n=78 v=112
412710 On ch=2 n=66 v=112
412950 Off ch=2 n=78 v=64
412950 Off ch=2 n=66 v=64
413430 On ch=2 n=81 v=112
413430 On ch=2 n=69 v=112
413670 Off ch=2 n=81 v=64
413670 Off ch=2 n=69 v=64
413790 On ch=2 n=84 v=112
413790 On ch=2 n=72 v=112
414150 Off ch=2 n=84 v=64
414150 Off ch=2 n=72 v=64
414150 On ch=2 n=81 v=112
414150 On ch=2 n=69 v=112
414870 Off ch=2 n=81 v=64
414870 Off ch=2 n=69 v=64
414870 On ch=2 n=79 v=112
414870 On ch=2 n=67 v=112
415110 Off ch=2 n=79 v=64
415110 Off ch=2 n=67 v=64
415110 On ch=2 n=78 v=112
415110 On ch=2 n=66 v=112
415350 Off ch=2 n=78 v=64
415350 Off ch=2 n=66 v=64
415830 On ch=2 n=81 v=112
415830 On ch=2 n=69 v=112
416070 Off ch=2 n=81 v=64
416070 Off ch=2 n=69 v=64
416190 On ch=2 n=84 v=112
416190 On ch=2 n=72 v=112
416550 On ch=2 n=81 v=112
416550 On ch=2 n=69 v=112
417030 Off ch=2 n=84 v=64
417030 Off ch=2 n=69 v=64
417030 Off ch=2 n=81 v=64
417030 Off ch=2 n=72 v=64
510120 On ch=2 n=67 v=112
510120 On ch=2 n=79 v=112
510480 Off ch=2 n=67 v=64
510480 Off ch=2 n=79 v=64
510480 On ch=2 n=69 v=112
510480 On ch=2 n=81 v=112
510840 Off ch=2 n=69 v=64
510840 Off ch=2 n=81 v=64
510840 On ch=2 n=67 v=112
510840 On ch=2 n=79 v=112
511560 Off ch=2 n=67 v=64
511560 Off ch=2 n=79 v=64
511560 On ch=2 n=72 v=112
511560 On ch=2 n=84 v=112
511920 Off ch=2 n=72 v=64
511920 Off ch=2 n=84 v=64
511920 On ch=2 n=71 v=112
511920 On ch=2 n=83 v=112
512280 Off ch=2 n=71 v=64
512280 Off ch=2 n=83 v=64
512520 On ch=2 n=67 v=112
512520 On ch=2 n=79 v=112
512880 Off ch=2 n=67 v=64
512880 Off ch=2 n=79 v=64
512880 On ch=2 n=69 v=112
512880 On ch=2 n=81 v=112
513240 Off ch=2 n=69 v=64
513240 Off ch=2 n=81 v=64
513240 On ch=2 n=67 v=112
513240 On ch=2 n=79 v=112
513960 Off ch=2 n=67 v=64
513960 Off ch=2 n=79 v=64
513960 On ch=2 n=72 v=112
513960 On ch=2 n=84 v=112
514320 Off ch=2 n=72 v=64
514320 Off ch=2 n=84 v=64
514320 On ch=2 n=71 v=112
514320 On ch=2 n=83 v=112
514680 Off ch=2 n=71 v=64
514680 Off ch=2 n=83 v=64
514920 On ch=2 n=67 v=112
514920 On ch=2 n=79 v=112
515280 Off ch=2 n=67 v=64
515280 Off ch=2 n=79 v=64
515280 On ch=2 n=69 v=112
515280 On ch=2 n=81 v=112
515640 Off ch=2 n=69 v=64
515640 Off ch=2 n=81 v=64
515640 On ch=2 n=67 v=112
515640 On ch=2 n=79 v=112
516360 Off ch=2 n=67 v=64
516360 Off ch=2 n=79 v=64
516360 On ch=2 n=72 v=112
516360 On ch=2 n=84 v=112
516720 Off ch=2 n=72 v=64
516720 Off ch=2 n=84 v=64
516720 On ch=2 n=71 v=112
516720 On ch=2 n=83 v=112
517080 Off ch=2 n=71 v=64
517080 Off ch=2 n=83 v=64
517320 On ch=2 n=67 v=112
517320 On ch=2 n=79 v=112
517680 Off ch=2 n=67 v=64
517680 Off ch=2 n=79 v=64
517680 On ch=2 n=69 v=112
517680 On ch=2 n=81 v=112
518040 Off ch=2 n=69 v=64
518040 Off ch=2 n=81 v=64
518040 On ch=2 n=67 v=112
518040 On ch=2 n=79 v=112
518760 Off ch=2 n=67 v=64
518760 Off ch=2 n=79 v=64
518760 On ch=2 n=72 v=112
518760 On ch=2 n=84 v=112
519120 Off ch=2 n=72 v=64
519120 Off ch=2 n=84 v=64
519120 On ch=2 n=71 v=112
519120 On ch=2 n=83 v=112
519480 Off ch=2 n=71 v=64
519480 Off ch=2 n=83 v=64
519480 Meta TrkEnd
TrkEnd
MTrk
0 Meta TrkName "Guitar"
0 PrCh ch=3 p=29
0 Par ch=3 c=93 v=127
0 Par ch=3 c=91 v=127
0 Par ch=3 c=11 v=127
0 Par ch=3 c=10 v=64
0 Par ch=3 c=7 v=100
0 Par ch=3 c=1 v=0
71160 On ch=3 n=57 v=112
71280 Off ch=3 n=57 v=64
71280 On ch=3 n=50 v=108
71400 Off ch=3 n=50 v=64
71400 On ch=3 n=50 v=106
71520 Off ch=3 n=50 v=64
71520 On ch=3 n=60 v=100
71760 Off ch=3 n=60 v=64
71760 On ch=3 n=50 v=110
71880 Off ch=3 n=50 v=64
71880 On ch=3 n=57 v=108
72000 Off ch=3 n=57 v=64
72000 On ch=3 n=57 v=106
72120 Off ch=3 n=57 v=64
72120 On ch=3 n=50 v=98
72240 Off ch=3 n=50 v=64
72240 On ch=3 n=50 v=99
72360 Off ch=3 n=50 v=64
72360 On ch=3 n=50 v=102
72480 Off ch=3 n=50 v=64
72480 On ch=3 n=50 v=104
72600 Off ch=3 n=50 v=64
72600 On ch=3 n=67 v=103
72720 Off ch=3 n=67 v=64
72720 On ch=3 n=67 v=110
72840 Off ch=3 n=67 v=64
72840 On ch=3 n=50 v=114
72960 Off ch=3 n=50 v=64
72960 On ch=3 n=66 v=112
73200 Off ch=3 n=66 v=64
73200 On ch=3 n=50 v=106
73320 Off ch=3 n=50 v=64
73320 On ch=3 n=50 v=102
73440 Off ch=3 n=50 v=64
73440 On ch=3 n=50 v=108
73560 Off ch=3 n=50 v=64
73560 On ch=3 n=62 v=93
73680 Off ch=3 n=62 v=64
73680 On ch=3 n=50 v=104
73800 Off ch=3 n=50 v=64
73800 On ch=3 n=50 v=104
73920 Off ch=3 n=50 v=64
73920 On ch=3 n=65 v=102
74160 Off ch=3 n=65 v=64
74160 On ch=3 n=50 v=100
74280 Off ch=3 n=50 v=64
74280 On ch=3 n=62 v=99
74400 Off ch=3 n=62 v=64
74400 On ch=3 n=62 v=96
74520 Off ch=3 n=62 v=64
74520 On ch=3 n=50 v=110
74640 Off ch=3 n=50 v=64
74640 On ch=3 n=50 v=112
74760 Off ch=3 n=50 v=64
74760 On ch=3 n=50 v=100
74880 Off ch=3 n=50 v=64
74880 On ch=3 n=50 v=91
75000 Off ch=3 n=50 v=64
75000 On ch=3 n=71 v=89
75120 Off ch=3 n=71 v=64
75120 On ch=3 n=71 v=92
75240 Off ch=3 n=71 v=64
75240 On ch=3 n=59 v=105
75360 Off ch=3 n=59 v=64
75360 On ch=3 n=69 v=104
75600 Off ch=3 n=69 v=64
75600 On ch=3 n=50 v=100
75720 Off ch=3 n=50 v=64
75720 On ch=3 n=50 v=99
75840 Off ch=3 n=50 v=64
75840 On ch=3 n=50 v=89
75960 Off ch=3 n=50 v=64
75960 On ch=3 n=69 v=100
76080 Off ch=3 n=69 v=64
76080 On ch=3 n=69 v=102
76200 Off ch=3 n=69 v=64
76200 On ch=3 n=50 v=110
76320 Off ch=3 n=50 v=64
76320 On ch=3 n=71 v=108
76440 Off ch=3 n=71 v=64
76440 On ch=3 n=71 v=104
76560 Off ch=3 n=71 v=64
76560 On ch=3 n=50 v=102
76680 Off ch=3 n=50 v=64
76680 On ch=3 n=69 v=111
76800 Off ch=3 n=69 v=64
76800 On ch=3 n=69 v=109
76920 Off ch=3 n=69 v=64
76920 On ch=3 n=50 v=104
77040 Off ch=3 n=50 v=64
77040 On ch=3 n=50 v=105
77160 Off ch=3 n=50 v=64
77160 On ch=3 n=69 v=96
77280 Off ch=3 n=69 v=64
77280 On ch=3 n=69 v=89
77400 Off ch=3 n=69 v=64
77400 On ch=3 n=76 v=99
77520 Off ch=3 n=76 v=64
77520 On ch=3 n=76 v=104
77640 Off ch=3 n=76 v=64
77640 On ch=3 n=59 v=100
77760 Off ch=3 n=59 v=64
77760 On ch=3 n=74 v=104
78000 Off ch=3 n=74 v=64
78000 On ch=3 n=50 v=110
78120 Off ch=3 n=50 v=64
78120 On ch=3 n=50 v=107
78240 Off ch=3 n=50 v=64
78240 On ch=3 n=50 v=103
78360 Off ch=3 n=50 v=64
78360 On ch=3 n=74 v=100
78480 Off ch=3 n=74 v=64
78480 On ch=3 n=74 v=94
78600 Off ch=3 n=74 v=64
78600 On ch=3 n=50 v=99
78720 Off ch=3 n=50 v=64
78720 On ch=3 n=76 v=89
78840 Off ch=3 n=76 v=64
78840 On ch=3 n=76 v=87
78960 Off ch=3 n=76 v=64
78960 On ch=3 n=50 v=105
79080 Off ch=3 n=50 v=64
79080 On ch=3 n=74 v=102
79200 Off ch=3 n=74 v=64
79200 On ch=3 n=74 v=100
79320 Off ch=3 n=74 v=64
79320 On ch=3 n=50 v=95
79440 Off ch=3 n=50 v=64
79440 On ch=3 n=50 v=99
79560 Off ch=3 n=50 v=64
79560 On ch=3 n=50 v=102
79680 Off ch=3 n=50 v=64
79680 On ch=3 n=50 v=107
79800 Off ch=3 n=50 v=64
79800 On ch=3 n=71 v=102
79920 Off ch=3 n=71 v=64
79920 On ch=3 n=71 v=111
80040 Off ch=3 n=71 v=64
80040 On ch=3 n=71 v=107
80160 Off ch=3 n=71 v=64
80160 On ch=3 n=71 v=108
80280 Off ch=3 n=71 v=64
80280 On ch=3 n=69 v=112
80760 Off ch=3 n=69 v=64
80760 On ch=3 n=45 v=124
81000 Off ch=3 n=45 v=64
81000 On ch=3 n=47 v=120
81120 Off ch=3 n=47 v=64
81120 On ch=3 n=48 v=118
81240 Off ch=3 n=48 v=64
81240 On ch=3 n=49 v=125
81360 Off ch=3 n=49 v=64
81360 On ch=3 n=48 v=120
81480 Off ch=3 n=48 v=64
81480 On ch=3 n=47 v=118
81600 Off ch=3 n=47 v=64
81600 On ch=3 n=45 v=112
81720 Off ch=3 n=45 v=64
81720 On ch=3 n=45 v=116
81840 Off ch=3 n=45 v=64
81840 On ch=3 n=45 v=120
81960 Off ch=3 n=45 v=64
81960 On ch=3 n=48 v=123
82080 Off ch=3 n=48 v=64
82080 On ch=3 n=55 v=125
82200 Off ch=3 n=55 v=64
82680 On ch=3 n=66 v=95
83160 Off ch=3 n=66 v=64
83160 On ch=3 n=64 v=97
83400 Off ch=3 n=64 v=64
83400 On ch=3 n=68 v=92
83640 Off ch=3 n=68 v=64
83880 On ch=3 n=66 v=90
84600 Off ch=3 n=66 v=64
84600 On ch=3 n=66 v=96
84840 Off ch=3 n=66 v=64
84840 On ch=3 n=71 v=94
84960 Off ch=3 n=71 v=64
84960 On ch=3 n=70 v=103
85080 Off ch=3 n=70 v=64
85080 On ch=3 n=66 v=88
85200 Off ch=3 n=66 v=64
85200 On ch=3 n=71 v=99
85320 Off ch=3 n=71 v=64
85320 On ch=3 n=70 v=103
85440 Off ch=3 n=70 v=64
85440 On ch=3 n=66 v=103
85560 Off ch=3 n=66 v=64
85560 On ch=3 n=71 v=96
85680 Off ch=3 n=71 v=64
85680 On ch=3 n=66 v=89
85800 Off ch=3 n=66 v=64
85800 On ch=3 n=61 v=94
86040 Off ch=3 n=61 v=64
86040 On ch=3 n=66 v=100
86280 Off ch=3 n=66 v=64
86280 On ch=3 n=61 v=96
86520 Off ch=3 n=61 v=64
86520 On ch=3 n=59 v=102
86760 Off ch=3 n=59 v=64
86760 On ch=3 n=59 v=91
87000 Off ch=3 n=59 v=64
87000 On ch=3 n=56 v=97
87240 Off ch=3 n=56 v=64
87240 On ch=3 n=61 v=102
87480 Off ch=3 n=61 v=64
87720 On ch=3 n=59 v=101
87960 Off ch=3 n=59 v=64
87960 On ch=3 n=59 v=100
88320 Off ch=3 n=59 v=64
88440 On ch=3 n=59 v=93
88680 Off ch=3 n=59 v=64
88680 On ch=3 n=66 v=95
88800 Off ch=3 n=66 v=64
88800 On ch=3 n=61 v=96
88920 Off ch=3 n=61 v=64
88920 On ch=3 n=59 v=101
89040 Off ch=3 n=59 v=64
89040 On ch=3 n=64 v=101
89160 Off ch=3 n=64 v=64
89160 On ch=3 n=63 v=88
89280 Off ch=3 n=63 v=64
89280 On ch=3 n=59 v=101
89400 Off ch=3 n=59 v=64
89520 On ch=3 n=59 v=95
89640 Off ch=3 n=59 v=64
89640 On ch=3 n=56 v=89
89880 Off ch=3 n=56 v=64
89880 On ch=3 n=66 v=91
89880 On ch=3 n=58 v=91
90360 Off ch=3 n=66 v=64
90360 Off ch=3 n=58 v=64
90360 On ch=3 n=66 v=95
90840 Off ch=3 n=66 v=64
90840 On ch=3 n=63 v=96
91080 Off ch=3 n=63 v=64
91080 On ch=3 n=68 v=100
91320 Off ch=3 n=68 v=64
91440 On ch=3 n=66 v=100
91440 On ch=3 n=70 v=92
91560 Off ch=3 n=66 v=64
91560 Off ch=3 n=70 v=64
91560 On ch=3 n=70 v=93
91560 On ch=3 n=66 v=102
91800 Off ch=3 n=70 v=64
91800 Off ch=3 n=66 v=64
91920 On ch=3 n=66 v=88
91920 On ch=3 n=70 v=97
92160 Off ch=3 n=66 v=64
92160 Off ch=3 n=70 v=64
92280 On ch=3 n=70 v=92
92520 Off ch=3 n=70 v=64
92520 On ch=3 n=73 v=96
92640 Off ch=3 n=73 v=64
92640 On ch=3 n=70 v=98
92760 Off ch=3 n=70 v=64
92880 On ch=3 n=71 v=100
93000 Off ch=3 n=71 v=64
93000 On ch=3 n=68 v=88
93240 Off ch=3 n=68 v=64
93240 On ch=3 n=70 v=100
93480 Off ch=3 n=70 v=64
93480 On ch=3 n=61 v=99
93720 Off ch=3 n=61 v=64
93720 On ch=3 n=61 v=97
94200 Off ch=3 n=61 v=64
94200 On ch=3 n=76 v=101
94200 On ch=3 n=73 v=93
94200 On ch=3 n=69 v=100
94200 On ch=3 n=64 v=89
94200 On ch=3 n=57 v=96
94920 Off ch=3 n=76 v=64
94920 Off ch=3 n=57 v=64
94920 Off ch=3 n=64 v=64
94920 Off ch=3 n=69 v=64
94920 Off ch=3 n=73 v=64
94920 On ch=3 n=78 v=92
94920 On ch=3 n=74 v=99
94920 On ch=3 n=69 v=100
94920 On ch=3 n=62 v=97
95640 Off ch=3 n=78 v=64
95640 Off ch=3 n=62 v=64
95640 Off ch=3 n=69 v=64
95640 Off ch=3 n=74 v=64
95640 On ch=3 n=64 v=95
95640 On ch=3 n=80 v=94
95640 On ch=3 n=71 v=96
95640 On ch=3 n=76 v=90
96840 Off ch=3 n=64 v=64
96840 Off ch=3 n=76 v=64
96840 Off ch=3 n=71 v=64
96840 Off ch=3 n=80 v=64
97080 On ch=3 n=52 v=95
97200 Off ch=3 n=52 v=64
97200 On ch=3 n=56 v=103
97320 Off ch=3 n=56 v=64
97320 On ch=3 n=59 v=92
97440 Off ch=3 n=59 v=64
97440 On ch=3 n=54 v=89
97560 Off ch=3 n=54 v=64
97560 On ch=3 n=56 v=98
97680 Off ch=3 n=56 v=64
97680 On ch=3 n=59 v=89
97800 Off ch=3 n=59 v=64
97800 On ch=3 n=54 v=93
98040 Off ch=3 n=54 v=64
98040 On ch=3 n=76 v=91
98040 On ch=3 n=73 v=90
98040 On ch=3 n=69 v=93
98040 On ch=3 n=64 v=100
98040 On ch=3 n=57 v=91
98760 Off ch=3 n=76 v=64
98760 Off ch=3 n=57 v=64
98760 Off ch=3 n=64 v=64
98760 Off ch=3 n=69 v=64
98760 Off ch=3 n=73 v=64
98760 On ch=3 n=78 v=95
98760 On ch=3 n=74 v=103
98760 On ch=3 n=69 v=96
98760 On ch=3 n=62 v=88
99480 Off ch=3 n=78 v=64
99480 Off ch=3 n=62 v=64
99480 Off ch=3 n=69 v=64
99480 Off ch=3 n=74 v=64
99480 On ch=3 n=80 v=103
99480 On ch=3 n=76 v=94
99480 On ch=3 n=71 v=88
99480 On ch=3 n=64 v=95
101880 Off ch=3 n=80 v=64
101880 Off ch=3 n=64 v=64
101880 Off ch=3 n=71 v=64
101880 Off ch=3 n=76 v=64
101880 On ch=3 n=73 v=96
101880 On ch=3 n=70 v=101
101880 On ch=3 n=66 v=99
101880 On ch=3 n=61 v=91
101880 On ch=3 n=54 v=100
102600 Off ch=3 n=73 v=64
102600 Off ch=3 n=54 v=64
102600 Off ch=3 n=61 v=64
102600 Off ch=3 n=66 v=64
102600 Off ch=3 n=70 v=64
102600 On ch=3 n=66 v=97
102600 On ch=3 n=61 v=92
102600 On ch=3 n=54 v=99
103320 Off ch=3 n=66 v=64
103320 Off ch=3 n=54 v=64
103320 Off ch=3 n=61 v=64
103320 On ch=3 n=77 v=93
103320 On ch=3 n=73 v=97
103320 On ch=3 n=68 v=93
103320 On ch=3 n=61 v=94
104760 Off ch=3 n=77 v=64
104760 Off ch=3 n=61 v=64
104760 Off ch=3 n=68 v=64
104760 Off ch=3 n=73 v=64
104760 On ch=3 n=65 v=95
105000 Off ch=3 n=65 v=64
105000 On ch=3 n=68 v=96
105120 Off ch=3 n=68 v=64
105120 On ch=3 n=65 v=100
105240 Off ch=3 n=65 v=64
105240 On ch=3 n=65 v=96
105360 Off ch=3 n=65 v=64
105360 On ch=3 n=68 v=101
105480 Off ch=3 n=68 v=64
105480 On ch=3 n=65 v=97
105720 Off ch=3 n=65 v=64
105720 On ch=3 n=77 v=96
105720 On ch=3 n=73 v=95
105720 On ch=3 n=70 v=92
105720 On ch=3 n=65 v=99
105720 On ch=3 n=58 v=94
106680 Off ch=3 n=77 v=64
106680 Off ch=3 n=58 v=64
106680 Off ch=3 n=65 v=64
106680 Off ch=3 n=70 v=64
106680 Off ch=3 n=73 v=64
106680 On ch=3 n=52 v=98
106800 Off ch=3 n=52 v=64
106800 On ch=3 n=57 v=99
106920 Off ch=3 n=57 v=64
106920 On ch=3 n=59 v=99
107040 Off ch=3 n=59 v=64
107040 On ch=3 n=62 v=93
107280 Off ch=3 n=62 v=64
107280 On ch=3 n=59 v=97
107400 Off ch=3 n=59 v=64
107400 On ch=3 n=59 v=102
107640 Off ch=3 n=59 v=64
107640 On ch=3 n=52 v=100
107880 Off ch=3 n=52 v=64
107880 On ch=3 n=52 v=95
108000 Off ch=3 n=52 v=64
108000 On ch=3 n=52 v=103
108120 Off ch=3 n=52 v=64
108120 On ch=3 n=54 v=98
108240 Off ch=3 n=54 v=64
108240 On ch=3 n=57 v=89
108360 Off ch=3 n=57 v=64
108360 On ch=3 n=59 v=99
108480 Off ch=3 n=59 v=64
108480 On ch=3 n=62 v=98
108600 Off ch=3 n=62 v=64
108600 On ch=3 n=64 v=98
108720 Off ch=3 n=64 v=64
108720 On ch=3 n=66 v=94
108840 Off ch=3 n=66 v=64
108840 On ch=3 n=64 v=89
109080 Off ch=3 n=64 v=64
109080 On ch=3 n=52 v=88
109200 Off ch=3 n=52 v=64
109200 On ch=3 n=57 v=102
109320 Off ch=3 n=57 v=64
109320 On ch=3 n=59 v=97
109440 Off ch=3 n=59 v=64
109440 On ch=3 n=62 v=95
109680 Off ch=3 n=62 v=64
109680 On ch=3 n=59 v=103
109800 Off ch=3 n=59 v=64
109800 On ch=3 n=59 v=94
110040 Off ch=3 n=59 v=64
110040 On ch=3 n=52 v=96
110280 Off ch=3 n=52 v=64
110280 On ch=3 n=80 v=97
110520 Off ch=3 n=80 v=64
110520 On ch=3 n=80 v=91
110760 Off ch=3 n=80 v=64
110760 On ch=3 n=76 v=99
110880 Off ch=3 n=76 v=64
110880 On ch=3 n=76 v=99
111000 Off ch=3 n=76 v=64
111000 On ch=3 n=73 v=103
111120 Off ch=3 n=73 v=64
111120 On ch=3 n=71 v=90
111240 Off ch=3 n=71 v=64
111240 On ch=3 n=68 v=94
111480 Off ch=3 n=68 v=64
111480 On ch=3 n=59 v=97
111480 On ch=3 n=52 v=95
111840 Off ch=3 n=59 v=64
111840 Off ch=3 n=52 v=64
111840 On ch=3 n=62 v=92
111960 Off ch=3 n=62 v=64
112200 On ch=3 n=59 v=99
112320 Off ch=3 n=59 v=64
112320 On ch=3 n=59 v=97
112440 Off ch=3 n=59 v=64
112680 On ch=3 n=80 v=89
112760 Off ch=3 n=80 v=64
112760 On ch=3 n=83 v=88
112840 Off ch=3 n=83 v=64
112840 On ch=3 n=90 v=96
112920 Off ch=3 n=90 v=64
112920 On ch=3 n=90 v=101
113040 Off ch=3 n=90 v=64
113040 On ch=3 n=90 v=103
113160 Off ch=3 n=90 v=64
113160 On ch=3 n=90 v=99
113280 Off ch=3 n=90 v=64
113280 On ch=3 n=88 v=102
113400 Off ch=3 n=88 v=64
113400 On ch=3 n=92 v=93
113520 Off ch=3 n=92 v=64
113520 On ch=3 n=92 v=92
113880 Off ch=3 n=92 v=64
113880 On ch=3 n=52 v=90
113880 On ch=3 n=59 v=102
114240 Off ch=3 n=52 v=64
114240 Off ch=3 n=59 v=64
114240 On ch=3 n=62 v=88
114360 Off ch=3 n=62 v=64
114600 On ch=3 n=59 v=93
114720 Off ch=3 n=59 v=64
114720 On ch=3 n=59 v=96
114840 Off ch=3 n=59 v=64
114840 On ch=3 n=52 v=88
114960 Off ch=3 n=52 v=64
114960 On ch=3 n=52 v=98
115080 Off ch=3 n=52 v=64
115080 On ch=3 n=59 v=96
115320 Off ch=3 n=59 v=64
115320 On ch=3 n=62 v=91
115800 Off ch=3 n=62 v=64
115800 On ch=3 n=64 v=92
116280 Off ch=3 n=64 v=64
116280 On ch=3 n=64 v=93
116400 Off ch=3 n=64 v=64
116400 On ch=3 n=64 v=101
116520 Off ch=3 n=64 v=64
116520 On ch=3 n=66 v=100
116760 Off ch=3 n=66 v=64
116760 On ch=3 n=64 v=93
116880 Off ch=3 n=64 v=64
116880 On ch=3 n=64 v=101
117000 Off ch=3 n=64 v=64
117000 On ch=3 n=64 v=93
117240 Off ch=3 n=64 v=64
117240 On ch=3 n=64 v=94
117480 Off ch=3 n=64 v=64
117480 On ch=3 n=64 v=101
117600 Off ch=3 n=64 v=64
117600 On ch=3 n=64 v=92
117720 Off ch=3 n=64 v=64
117720 On ch=3 n=66 v=102
117840 Off ch=3 n=66 v=64
117840 On ch=3 n=68 v=101
117960 Off ch=3 n=68 v=64
117960 On ch=3 n=71 v=102
118080 Off ch=3 n=71 v=64
118080 On ch=3 n=68 v=95
118200 Off ch=3 n=68 v=64
118200 On ch=3 n=69 v=94
118320 Off ch=3 n=69 v=64
118320 On ch=3 n=73 v=97
118440 Off ch=3 n=73 v=64
118440 On ch=3 n=69 v=99
118680 Off ch=3 n=69 v=64
118680 On ch=3 n=68 v=90
118920 Off ch=3 n=68 v=64
118920 On ch=3 n=59 v=101
119160 Off ch=3 n=59 v=64
119160 On ch=3 n=59 v=101
119400 Off ch=3 n=59 v=64
119400 On ch=3 n=63 v=92
119520 Off ch=3 n=63 v=64
119520 On ch=3 n=64 v=92
119640 Off ch=3 n=64 v=64
119640 On ch=3 n=64 v=101
119880 Off ch=3 n=64 v=64
119880 On ch=3 n=67 v=96
120120 Off ch=3 n=67 v=64
120120 On ch=3 n=57 v=95
120360 Off ch=3 n=57 v=64
120360 On ch=3 n=57 v=99
120600 Off ch=3 n=57 v=64
120600 On ch=3 n=71 v=97
120720 Off ch=3 n=71 v=64
120840 On ch=3 n=69 v=90
120960 Off ch=3 n=69 v=64
120960 On ch=3 n=69 v=88
121080 Off ch=3 n=69 v=64
121080 On ch=3 n=66 v=98
121200 Off ch=3 n=66 v=64
121200 On ch=3 n=67 v=103
121320 Off ch=3 n=67 v=64
121320 On ch=3 n=57 v=88
121440 Off ch=3 n=57 v=64
121440 On ch=3 n=59 v=95
121560 Off ch=3 n=59 v=64
121560 On ch=3 n=59 v=93
121680 Off ch=3 n=59 v=64
121680 On ch=3 n=61 v=96
121800 Off ch=3 n=61 v=64
121800 On ch=3 n=64 v=90
121920 Off ch=3 n=64 v=64
121920 On ch=3 n=63 v=94
122040 Off ch=3 n=63 v=64
122040 On ch=3 n=61 v=91
122160 Off ch=3 n=61 v=64
122160 On ch=3 n=63 v=100
122280 Off ch=3 n=63 v=64
122280 On ch=3 n=61 v=95
122520 Off ch=3 n=61 v=64
122520 On ch=3 n=61 v=95
122640 Off ch=3 n=61 v=64
122640 On ch=3 n=57 v=90
122760 Off ch=3 n=57 v=64
122760 On ch=3 n=56 v=100
123000 Off ch=3 n=56 v=64
123000 On ch=3 n=63 v=100
123480 Off ch=3 n=63 v=64
123480 On ch=3 n=64 v=97
123960 Off ch=3 n=64 v=64
123960 On ch=3 n=64 v=92
124200 Off ch=3 n=64 v=64
124200 On ch=3 n=66 v=95
124440 Off ch=3 n=66 v=64
124440 On ch=3 n=64 v=93
124560 Off ch=3 n=64 v=64
124560 On ch=3 n=64 v=94
124680 Off ch=3 n=64 v=64
124680 On ch=3 n=64 v=101
124920 Off ch=3 n=64 v=64
124920 On ch=3 n=64 v=100
125040 Off ch=3 n=64 v=64
125040 On ch=3 n=62 v=102
125160 Off ch=3 n=62 v=64
125160 On ch=3 n=62 v=99
125280 Off ch=3 n=62 v=64
125280 On ch=3 n=62 v=100
125400 Off ch=3 n=62 v=64
125400 On ch=3 n=68 v=94
125640 Off ch=3 n=68 v=64
125640 On ch=3 n=71 v=98
125760 Off ch=3 n=71 v=64
125760 On ch=3 n=68 v=103
125880 Off ch=3 n=68 v=64
125880 On ch=3 n=66 v=95
126000 Off ch=3 n=66 v=64
126000 On ch=3 n=69 v=90
126120 Off ch=3 n=69 v=64
126120 On ch=3 n=66 v=102
126240 Off ch=3 n=66 v=64
126240 On ch=3 n=64 v=96
126360 Off ch=3 n=64 v=64
126360 On ch=3 n=59 v=95
127320 Off ch=3 n=59 v=64
127320 On ch=3 n=74 v=95
127320 On ch=3 n=71 v=101
127320 On ch=3 n=67 v=96
127320 On ch=3 n=62 v=98
127320 On ch=3 n=55 v=92
128040 Off ch=3 n=74 v=64
128040 Off ch=3 n=55 v=64
128040 Off ch=3 n=62 v=64
128040 Off ch=3 n=67 v=64
128040 Off ch=3 n=71 v=64
128040 On ch=3 n=72 v=99
128040 On ch=3 n=60 v=101
128040 On ch=3 n=76 v=103
128040 On ch=3 n=67 v=91
128760 Off ch=3 n=72 v=64
128760 Off ch=3 n=67 v=64
128760 Off ch=3 n=76 v=64
128760 Off ch=3 n=60 v=64
128760 On ch=3 n=62 v=93
128760 On ch=3 n=74 v=92
128760 On ch=3 n=69 v=100
128760 On ch=3 n=78 v=100
129240 Off ch=3 n=62 v=64
129240 Off ch=3 n=78 v=64
129240 Off ch=3 n=69 v=64
129240 Off ch=3 n=74 v=64
129240 On ch=3 n=67 v=98
129360 On ch=3 n=62 v=100
129600 Off ch=3 n=62 v=64
129600 On ch=3 n=62 v=98
129720 Off ch=3 n=62 v=64
129720 On ch=3 n=62 v=102
129840 Off ch=3 n=67 v=64
129840 Off ch=3 n=62 v=64
129840 On ch=3 n=62 v=89
129960 Off ch=3 n=62 v=64
129960 On ch=3 n=66 v=90
130080 Off ch=3 n=66 v=64
130080 On ch=3 n=69 v=88
130200 Off ch=3 n=69 v=64
130200 On ch=3 n=71 v=92
130320 Off ch=3 n=71 v=64
130320 On ch=3 n=71 v=94
130440 Off ch=3 n=71 v=64
130440 On ch=3 n=69 v=91
130560 Off ch=3 n=69 v=64
130560 On ch=3 n=66 v=88
130680 Off ch=3 n=66 v=64
130680 On ch=3 n=62 v=98
131160 Off ch=3 n=62 v=64
131160 On ch=3 n=74 v=103
131160 On ch=3 n=71 v=93
131160 On ch=3 n=67 v=100
131160 On ch=3 n=62 v=98
131160 On ch=3 n=55 v=97
131880 Off ch=3 n=74 v=64
131880 Off ch=3 n=55 v=64
131880 Off ch=3 n=62 v=64
131880 Off ch=3 n=67 v=64
131880 Off ch=3 n=71 v=64
131880 On ch=3 n=76 v=91
131880 On ch=3 n=72 v=93
131880 On ch=3 n=67 v=90
131880 On ch=3 n=60 v=98
132600 Off ch=3 n=76 v=64
132600 Off ch=3 n=60 v=64
132600 Off ch=3 n=67 v=64
132600 Off ch=3 n=72 v=64
132600 On ch=3 n=78 v=88
132600 On ch=3 n=74 v=102
132600 On ch=3 n=69 v=88
132600 On ch=3 n=62 v=94
133320 Off ch=3 n=78 v=64
133320 Off ch=3 n=62 v=64
133320 Off ch=3 n=69 v=64
133320 Off ch=3 n=74 v=64
133320 On ch=3 n=62 v=96
133320 On ch=3 n=69 v=93
133320 On ch=3 n=74 v=91
133320 On ch=3 n=78 v=89
133560 Off ch=3 n=62 v=64
133560 Off ch=3 n=78 v=64
133560 Off ch=3 n=74 v=64
133560 Off ch=3 n=69 v=64
133560 On ch=3 n=62 v=89
133560 On ch=3 n=69 v=94
133560 On ch=3 n=74 v=91
133560 On ch=3 n=78 v=93
133800 Off ch=3 n=62 v=64
133800 Off ch=3 n=78 v=64
133800 Off ch=3 n=74 v=64
133800 Off ch=3 n=69 v=64
133800 On ch=3 n=62 v=96
133800 On ch=3 n=69 v=103
133800 On ch=3 n=74 v=97
133800 On ch=3 n=78 v=90
134040 Off ch=3 n=62 v=64
134040 Off ch=3 n=78 v=64
134040 Off ch=3 n=74 v=64
134040 Off ch=3 n=69 v=64
134040 On ch=3 n=62 v=92
134040 On ch=3 n=69 v=97
134040 On ch=3 n=74 v=89
134040 On ch=3 n=78 v=88
134280 Off ch=3 n=62 v=64
134280 Off ch=3 n=78 v=64
134280 Off ch=3 n=74 v=64
134280 Off ch=3 n=69 v=64
134280 On ch=3 n=78 v=91
134280 On ch=3 n=74 v=88
134280 On ch=3 n=69 v=90
134280 On ch=3 n=62 v=91
134520 Off ch=3 n=78 v=64
134520 Off ch=3 n=62 v=64
134520 Off ch=3 n=69 v=64
134520 Off ch=3 n=74 v=64
134520 On ch=3 n=78 v=88
134520 On ch=3 n=74 v=90
134520 On ch=3 n=69 v=88
134520 On ch=3 n=62 v=100
134760 Off ch=3 n=78 v=64
134760 Off ch=3 n=62 v=64
134760 Off ch=3 n=69 v=64
134760 Off ch=3 n=74 v=64
134760 On ch=3 n=78 v=103
134760 On ch=3 n=74 v=97
134760 On ch=3 n=69 v=88
134760 On ch=3 n=62 v=88
135000 Off ch=3 n=78 v=64
135000 Off ch=3 n=62 v=64
135000 Off ch=3 n=69 v=64
135000 Off ch=3 n=74 v=64
135000 On ch=3 n=76 v=96
135000 On ch=3 n=71 v=99
135000 On ch=3 n=68 v=93
135000 On ch=3 n=64 v=93
135000 On ch=3 n=59 v=100
135000 On ch=3 n=52 v=89
136440 Off ch=3 n=76 v=64
136440 Off ch=3 n=52 v=64
136440 Off ch=3 n=59 v=64
136440 Off ch=3 n=64 v=64
136440 Off ch=3 n=68 v=64
136440 Off ch=3 n=71 v=64
136440 On ch=3 n=71 v=91
136440 On ch=3 n=66 v=98
136440 On ch=3 n=59 v=89
136920 Off ch=3 n=71 v=64
136920 Off ch=3 n=59 v=64
136920 Off ch=3 n=66 v=64
136920 On ch=3 n=66 v=89
137400 Off ch=3 n=66 v=64
137400 On ch=3 n=71 v=89
137880 Off ch=3 n=71 v=64
137880 On ch=3 n=76 v=97
137880 On ch=3 n=71 v=101
138360 Off ch=3 n=76 v=64
138360 Off ch=3 n=71 v=64
138360 On ch=3 n=75 v=93
138360 On ch=3 n=71 v=89
138840 Off ch=3 n=75 v=64
138840 Off ch=3 n=71 v=64
138840 On ch=3 n=71 v=97
138840 On ch=3 n=74 v=97
139320 Off ch=3 n=71 v=64
139320 Off ch=3 n=74 v=64
139320 On ch=3 n=74 v=101
139320 On ch=3 n=71 v=96
139800 Off ch=3 n=74 v=64
139800 Off ch=3 n=71 v=64
139800 On ch=3 n=69 v=100
139920 Off ch=3 n=69 v=64
139920 On ch=3 n=69 v=90
140040 Off ch=3 n=69 v=64
140040 On ch=3 n=62 v=94
140160 Off ch=3 n=62 v=64
140160 On ch=3 n=72 v=96
140280 Off ch=3 n=72 v=64
140280 On ch=3 n=72 v=96
140400 Off ch=3 n=72 v=64
140400 On ch=3 n=62 v=95
140520 Off ch=3 n=62 v=64
140520 On ch=3 n=69 v=100
140640 Off ch=3 n=69 v=64
140640 On ch=3 n=69 v=90
140760 Off ch=3 n=69 v=64
140760 On ch=3 n=62 v=96
140880 Off ch=3 n=62 v=64
140880 On ch=3 n=62 v=97
141000 Off ch=3 n=62 v=64
141000 On ch=3 n=62 v=89
141120 Off ch=3 n=62 v=64
141120 On ch=3 n=62 v=90
141240 Off ch=3 n=62 v=64
141240 On ch=3 n=79 v=101
141360 Off ch=3 n=79 v=64
141360 On ch=3 n=79 v=95
141480 Off ch=3 n=79 v=64
141480 On ch=3 n=62 v=91
141600 Off ch=3 n=62 v=64
141600 On ch=3 n=79 v=95
141840 Off ch=3 n=79 v=64
141840 On ch=3 n=62 v=89
141960 Off ch=3 n=62 v=64
141960 On ch=3 n=62 v=98
141960 On ch=3 n=62 v=99
141960 On ch=3 n=62 v=102
142080 Off ch=3 n=62 v=64
142080 Off ch=3 n=62 v=64
142080 Off ch=3 n=62 v=64
142080 On ch=3 n=62 v=88
142200 Off ch=3 n=62 v=64
142200 On ch=3 n=74 v=90
142320 Off ch=3 n=74 v=64
142320 On ch=3 n=74 v=94
142440 Off ch=3 n=74 v=64
142440 On ch=3 n=62 v=99
142560 Off ch=3 n=62 v=64
142560 On ch=3 n=77 v=92
142800 Off ch=3 n=77 v=64
142800 On ch=3 n=62 v=98
142920 Off ch=3 n=62 v=64
142920 On ch=3 n=74 v=89
143040 Off ch=3 n=74 v=64
143040 On ch=3 n=74 v=97
143160 Off ch=3 n=74 v=64
143160 On ch=3 n=62 v=90
143280 Off ch=3 n=62 v=64
143280 On ch=3 n=62 v=98
143400 Off ch=3 n=62 v=64
143400 On ch=3 n=62 v=99
143520 Off ch=3 n=62 v=64
143520 On ch=3 n=62 v=98
143640 Off ch=3 n=62 v=64
143640 On ch=3 n=83 v=103
143760 Off ch=3 n=83 v=64
143760 On ch=3 n=83 v=99
143880 Off ch=3 n=83 v=64
143880 On ch=3 n=62 v=88
144000 Off ch=3 n=62 v=64
144000 On ch=3 n=81 v=99
144240 Off ch=3 n=81 v=64
144240 On ch=3 n=62 v=100
144360 Off ch=3 n=62 v=64
144360 On ch=3 n=62 v=103
144480 Off ch=3 n=62 v=64
144480 On ch=3 n=62 v=103
144600 Off ch=3 n=62 v=64
144600 On ch=3 n=81 v=98
144720 Off ch=3 n=81 v=64
144720 On ch=3 n=81 v=91
144840 Off ch=3 n=81 v=64
144840 On ch=3 n=74 v=89
144960 Off ch=3 n=74 v=64
144960 On ch=3 n=83 v=93
145080 Off ch=3 n=83 v=64
145080 On ch=3 n=83 v=98
145200 Off ch=3 n=83 v=64
145200 On ch=3 n=74 v=97
145320 Off ch=3 n=74 v=64
145320 On ch=3 n=81 v=97
145440 Off ch=3 n=81 v=64
145440 On ch=3 n=81 v=93
145560 Off ch=3 n=81 v=64
145560 On ch=3 n=62 v=89
145800 Off ch=3 n=62 v=64
145800 On ch=3 n=95 v=98
145920 Off ch=3 n=95 v=64
145920 On ch=3 n=95 v=98
146040 Off ch=3 n=95 v=64
146040 On ch=3 n=95 v=96
146160 Off ch=3 n=95 v=64
146160 On ch=3 n=95 v=99
146280 Off ch=3 n=95 v=64
146280 On ch=3 n=95 v=88
146400 Off ch=3 n=95 v=64
146400 On ch=3 n=95 v=98
146520 Off ch=3 n=95 v=64
146520 On ch=3 n=93 v=103
147000 Off ch=3 n=93 v=64
147000 On ch=3 n=57 v=96
147120 Off ch=3 n=57 v=64
147120 On ch=3 n=57 v=93
147240 Off ch=3 n=57 v=64
147240 On ch=3 n=58 v=88
147360 Off ch=3 n=58 v=64
147360 On ch=3 n=59 v=103
147480 Off ch=3 n=59 v=64
147480 On ch=3 n=60 v=100
147600 Off ch=3 n=60 v=64
147600 On ch=3 n=59 v=93
147720 Off ch=3 n=59 v=64
147720 On ch=3 n=58 v=103
147840 Off ch=3 n=58 v=64
147840 On ch=3 n=57 v=96
147960 Off ch=3 n=57 v=64
147960 On ch=3 n=57 v=94
148080 Off ch=3 n=57 v=64
148080 On ch=3 n=60 v=90
148200 Off ch=3 n=60 v=64
148200 On ch=3 n=62 v=103
148320 Off ch=3 n=62 v=64
148320 On ch=3 n=67 v=98
148440 Off ch=3 n=67 v=64
148560 On ch=3 n=62 v=88
148680 Off ch=3 n=62 v=64
148680 On ch=3 n=64 v=102
148800 Off ch=3 n=64 v=64
148800 On ch=3 n=66 v=90
148920 Off ch=3 n=66 v=64
148920 On ch=3 n=66 v=100
149160 Off ch=3 n=66 v=64
149160 On ch=3 n=67 v=92
149400 Off ch=3 n=67 v=64
149400 On ch=3 n=57 v=103
149520 Off ch=3 n=57 v=64
149520 On ch=3 n=57 v=95
149640 Off ch=3 n=57 v=64
149640 On ch=3 n=58 v=93
149760 Off ch=3 n=58 v=64
149760 On ch=3 n=59 v=100
149880 Off ch=3 n=59 v=64
149880 On ch=3 n=60 v=102
150000 Off ch=3 n=60 v=64
150000 On ch=3 n=59 v=99
150120 Off ch=3 n=59 v=64
150120 On ch=3 n=58 v=97
150240 Off ch=3 n=58 v=64
150240 On ch=3 n=57 v=102
150360 Off ch=3 n=57 v=64
150360 On ch=3 n=57 v=101
150480 Off ch=3 n=57 v=64
150480 On ch=3 n=60 v=94
150600 Off ch=3 n=60 v=64
150600 On ch=3 n=62 v=100
150720 Off ch=3 n=62 v=64
150720 On ch=3 n=67 v=97
150840 Off ch=3 n=67 v=64
150960 On ch=3 n=62 v=99
151080 Off ch=3 n=62 v=64
151080 On ch=3 n=64 v=88
151200 Off ch=3 n=64 v=64
151200 On ch=3 n=66 v=88
151320 Off ch=3 n=66 v=64
151320 On ch=3 n=66 v=89
151560 Off ch=3 n=66 v=64
151560 On ch=3 n=67 v=95
151800 Off ch=3 n=67 v=64
151800 On ch=3 n=57 v=88
151920 Off ch=3 n=57 v=64
151920 On ch=3 n=57 v=88
152040 Off ch=3 n=57 v=64
152040 On ch=3 n=58 v=91
152160 Off ch=3 n=58 v=64
152160 On ch=3 n=59 v=102
152280 Off ch=3 n=59 v=64
152280 On ch=3 n=60 v=102
152400 Off ch=3 n=60 v=64
152400 On ch=3 n=59 v=92
152520 Off ch=3 n=59 v=64
152520 On ch=3 n=58 v=100
152640 Off ch=3 n=58 v=64
152640 On ch=3 n=57 v=88
152760 Off ch=3 n=57 v=64
152760 On ch=3 n=57 v=94
152880 Off ch=3 n=57 v=64
152880 On ch=3 n=60 v=100
153000 Off ch=3 n=60 v=64
153000 On ch=3 n=62 v=94
153120 Off ch=3 n=62 v=64
153120 On ch=3 n=67 v=91
153360 Off ch=3 n=67 v=64
153360 On ch=3 n=62 v=96
153480 Off ch=3 n=62 v=64
153480 On ch=3 n=64 v=96
153600 Off ch=3 n=64 v=64
153600 On ch=3 n=66 v=90
153720 Off ch=3 n=66 v=64
153720 On ch=3 n=66 v=96
153960 Off ch=3 n=66 v=64
153960 On ch=3 n=67 v=101
154200 Off ch=3 n=67 v=64
154200 On ch=3 n=88 v=98
154200 On ch=3 n=69 v=101
154320 Off ch=3 n=88 v=64
154320 Off ch=3 n=69 v=64
154320 On ch=3 n=87 v=88
154320 On ch=3 n=68 v=99
154440 Off ch=3 n=87 v=64
154440 Off ch=3 n=68 v=64
154440 On ch=3 n=86 v=103
154440 On ch=3 n=67 v=97
154560 Off ch=3 n=86 v=64
154560 Off ch=3 n=67 v=64
154560 On ch=3 n=85 v=97
154560 On ch=3 n=64 v=101
154680 Off ch=3 n=85 v=64
154680 Off ch=3 n=64 v=64
154680 On ch=3 n=85 v=100
154680 On ch=3 n=64 v=96
154800 Off ch=3 n=85 v=64
154800 Off ch=3 n=64 v=64
154800 On ch=3 n=83 v=92
154800 On ch=3 n=63 v=101
154920 Off ch=3 n=83 v=64
154920 Off ch=3 n=63 v=64
154920 On ch=3 n=82 v=98
154920 On ch=3 n=62 v=95
155040 Off ch=3 n=82 v=64
155040 Off ch=3 n=62 v=64
155040 On ch=3 n=81 v=88
155040 On ch=3 n=61 v=98
155160 Off ch=3 n=81 v=64
155160 Off ch=3 n=61 v=64
155160 On ch=3 n=80 v=97
155160 On ch=3 n=59 v=100
155280 Off ch=3 n=80 v=64
155280 Off ch=3 n=59 v=64
155280 On ch=3 n=79 v=98
155280 On ch=3 n=58 v=89
155400 Off ch=3 n=79 v=64
155400 Off ch=3 n=58 v=64
155400 On ch=3 n=78 v=98
155400 On ch=3 n=57 v=88
155520 Off ch=3 n=78 v=64
155520 Off ch=3 n=57 v=64
155520 On ch=3 n=55 v=91
155520 On ch=3 n=65 v=89
157440 Off ch=3 n=55 v=64
157440 Off ch=3 n=65 v=64
160440 On ch=3 n=75 v=83
160440 On ch=3 n=71 v=84
160440 On ch=3 n=65 v=81
160440 On ch=3 n=59 v=81
160440 On ch=3 n=55 v=81
165240 On ch=3 n=65 v=99
165240 On ch=3 n=58 v=89
165240 On ch=3 n=55 v=102
166440 Off ch=3 n=65 v=64
166440 Off ch=3 n=55 v=64
166440 Off ch=3 n=58 v=64
166440 On ch=3 n=75 v=88
166440 On ch=3 n=70 v=92
166440 On ch=3 n=65 v=102
170040 Off ch=3 n=65 v=64
170040 Off ch=3 n=55 v=64
170040 Off ch=3 n=59 v=64
170040 Off ch=3 n=71 v=64
170040 Off ch=3 n=75 v=64
171720 Off ch=3 n=65 v=64
171720 Off ch=3 n=70 v=64
171720 Off ch=3 n=75 v=64
171720 On ch=3 n=71 v=98
171720 On ch=3 n=65 v=94
171720 On ch=3 n=59 v=90
171720 On ch=3 n=55 v=101
173640 Off ch=3 n=71 v=64
173640 Off ch=3 n=55 v=64
173640 Off ch=3 n=59 v=64
173640 Off ch=3 n=65 v=64
173640 On ch=3 n=55 v=101
173640 On ch=3 n=58 v=100
173640 On ch=3 n=65 v=93
174840 Off ch=3 n=55 v=64
174840 Off ch=3 n=65 v=64
174840 Off ch=3 n=58 v=64
174840 On ch=3 n=60 v=93
174840 On ch=3 n=65 v=88
174840 On ch=3 n=70 v=102
174840 On ch=3 n=75 v=95
177000 Off ch=3 n=60 v=64
177000 Off ch=3 n=75 v=64
177000 Off ch=3 n=70 v=64
177000 Off ch=3 n=65 v=64
177240 On ch=3 n=74 v=92
177240 On ch=3 n=71 v=94
177240 On ch=3 n=65 v=89
177240 On ch=3 n=60 v=93
179640 Off ch=3 n=74 v=64
179640 Off ch=3 n=60 v=64
179640 Off ch=3 n=65 v=64
179640 Off ch=3 n=71 v=64
179640 On ch=3 n=57 v=96
179736 Off ch=3 n=57 v=64
179760 On ch=3 n=57 v=88
179856 Off ch=3 n=57 v=64
179880 On ch=3 n=64 v=96
179976 Off ch=3 n=64 v=64
180000 On ch=3 n=67 v=99
180096 Off ch=3 n=67 v=64
180120 On ch=3 n=67 v=92
180216 Off ch=3 n=67 v=64
180240 On ch=3 n=57 v=97
180336 Off ch=3 n=57 v=64
180360 On ch=3 n=64 v=88
180456 Off ch=3 n=64 v=64
180480 On ch=3 n=64 v=88
180576 Off ch=3 n=64 v=64
180600 On ch=3 n=64 v=98
180696 Off ch=3 n=64 v=64
180720 On ch=3 n=64 v=88
180816 Off ch=3 n=64 v=64
180840 On ch=3 n=57 v=96
180936 Off ch=3 n=57 v=64
180960 On ch=3 n=57 v=96
181056 Off ch=3 n=57 v=64
181080 On ch=3 n=74 v=88
181176 Off ch=3 n=74 v=64
181200 On ch=3 n=74 v=92
181296 Off ch=3 n=74 v=64
181320 On ch=3 n=57 v=92
181416 Off ch=3 n=57 v=64
181440 On ch=3 n=73 v=94
181536 Off ch=3 n=73 v=64
181560 On ch=3 n=73 v=93
181656 Off ch=3 n=73 v=64
181680 On ch=3 n=73 v=98
181776 Off ch=3 n=73 v=64
181800 On ch=3 n=64 v=96
181896 Off ch=3 n=64 v=64
181920 On ch=3 n=64 v=93
182016 Off ch=3 n=64 v=64
182040 On ch=3 n=69 v=88
182136 Off ch=3 n=69 v=64
182160 On ch=3 n=69 v=88
182256 Off ch=3 n=69 v=64
182280 On ch=3 n=64 v=92
182376 Off ch=3 n=64 v=64
182400 On ch=3 n=72 v=92
182496 Off ch=3 n=72 v=64
182520 On ch=3 n=72 v=88
182616 Off ch=3 n=72 v=64
182640 On ch=3 n=66 v=91
182736 Off ch=3 n=66 v=64
182760 On ch=3 n=69 v=89
182856 Off ch=3 n=69 v=64
182880 On ch=3 n=69 v=97
182976 Off ch=3 n=69 v=64
183000 On ch=3 n=66 v=96
183096 Off ch=3 n=66 v=64
183120 On ch=3 n=66 v=94
183216 Off ch=3 n=66 v=64
183240 On ch=3 n=57 v=89
183336 Off ch=3 n=57 v=64
183360 On ch=3 n=57 v=99
183456 Off ch=3 n=57 v=64
183480 On ch=3 n=57 v=97
183576 Off ch=3 n=57 v=64
183600 On ch=3 n=57 v=96
183696 Off ch=3 n=57 v=64
183720 On ch=3 n=78 v=92
183816 Off ch=3 n=78 v=64
183840 On ch=3 n=78 v=97
183936 Off ch=3 n=78 v=64
183960 On ch=3 n=74 v=98
184056 Off ch=3 n=74 v=64
184080 On ch=3 n=76 v=88
184176 Off ch=3 n=76 v=64
184200 On ch=3 n=64 v=91
184296 Off ch=3 n=64 v=64
184320 On ch=3 n=64 v=88
184416 Off ch=3 n=64 v=64
184440 On ch=3 n=76 v=89
184536 Off ch=3 n=76 v=64
184560 On ch=3 n=76 v=93
184656 Off ch=3 n=76 v=64
184680 On ch=3 n=76 v=96
184776 Off ch=3 n=76 v=64
184800 On ch=3 n=78 v=92
184896 Off ch=3 n=78 v=64
184920 On ch=3 n=78 v=97
185016 Off ch=3 n=78 v=64
185040 On ch=3 n=76 v=88
185136 Off ch=3 n=76 v=64
185160 On ch=3 n=76 v=96
185256 Off ch=3 n=76 v=64
185280 On ch=3 n=76 v=96
185376 Off ch=3 n=76 v=64
185400 On ch=3 n=71 v=93
185496 Off ch=3 n=71 v=64
185520 On ch=3 n=71 v=88
185616 Off ch=3 n=71 v=64
185640 On ch=3 n=71 v=88
185736 Off ch=3 n=71 v=64
185760 On ch=3 n=71 v=97
185856 Off ch=3 n=71 v=64
185880 On ch=3 n=85 v=95
186072 Off ch=3 n=85 v=64
186120 On ch=3 n=83 v=88
186216 Off ch=3 n=83 v=64
186240 On ch=3 n=81 v=95
186840 Off ch=3 n=81 v=64
186840 On ch=3 n=81 v=88
186936 Off ch=3 n=81 v=64
186960 On ch=3 n=81 v=97
187056 Off ch=3 n=81 v=64
187080 On ch=3 n=80 v=88
187176 Off ch=3 n=80 v=64
187200 On ch=3 n=83 v=92
187296 Off ch=3 n=83 v=64
187320 On ch=3 n=83 v=99
187416 Off ch=3 n=83 v=64
187440 On ch=3 n=80 v=95
187536 Off ch=3 n=80 v=64
187560 On ch=3 n=81 v=96
187656 Off ch=3 n=81 v=64
187680 On ch=3 n=81 v=88
187776 Off ch=3 n=81 v=64
187800 On ch=3 n=78 v=92
187896 Off ch=3 n=78 v=64
187920 On ch=3 n=78 v=88
188016 Off ch=3 n=78 v=64
188040 On ch=3 n=74 v=97
188136 Off ch=3 n=74 v=64
188160 On ch=3 n=74 v=94
188256 Off ch=3 n=74 v=64
188280 On ch=3 n=90 v=94
188472 Off ch=3 n=90 v=64
188520 On ch=3 n=90 v=91
188616 Off ch=3 n=90 v=64
188640 On ch=3 n=88 v=99
189240 Off ch=3 n=88 v=64
189240 On ch=3 n=62 v=93
189360 Off ch=3 n=62 v=64
189360 On ch=3 n=62 v=88
189480 Off ch=3 n=62 v=64
189480 On ch=3 n=67 v=88
189600 Off ch=3 n=67 v=64
189600 On ch=3 n=67 v=89
189720 Off ch=3 n=67 v=64
189720 On ch=3 n=62 v=88
189840 Off ch=3 n=62 v=64
189840 On ch=3 n=67 v=94
189960 Off ch=3 n=67 v=64
189960 On ch=3 n=67 v=88
190080 Off ch=3 n=67 v=64
190080 On ch=3 n=62 v=94
190200 Off ch=3 n=62 v=64
190200 On ch=3 n=68 v=88
190320 Off ch=3 n=68 v=64
190320 On ch=3 n=68 v=96
190440 Off ch=3 n=68 v=64
190440 On ch=3 n=62 v=94
190560 Off ch=3 n=62 v=64
190560 On ch=3 n=62 v=88
190680 Off ch=3 n=62 v=64
190680 On ch=3 n=69 v=89
190800 Off ch=3 n=69 v=64
190800 On ch=3 n=69 v=89
190920 Off ch=3 n=69 v=64
190920 On ch=3 n=62 v=93
191040 Off ch=3 n=62 v=64
191040 On ch=3 n=68 v=97
191160 Off ch=3 n=68 v=64
191160 On ch=3 n=68 v=88
191280 Off ch=3 n=68 v=64
191280 On ch=3 n=62 v=88
191400 Off ch=3 n=62 v=64
191400 On ch=3 n=67 v=97
191520 Off ch=3 n=67 v=64
191520 On ch=3 n=67 v=93
191640 Off ch=3 n=67 v=64
191640 On ch=3 n=62 v=99
191760 Off ch=3 n=62 v=64
191760 On ch=3 n=62 v=89
191880 Off ch=3 n=62 v=64
191880 On ch=3 n=67 v=88
192000 Off ch=3 n=67 v=64
192000 On ch=3 n=67 v=96
192120 Off ch=3 n=67 v=64
192120 On ch=3 n=62 v=90
192240 Off ch=3 n=62 v=64
192240 On ch=3 n=67 v=95
192360 Off ch=3 n=67 v=64
192360 On ch=3 n=67 v=95
192480 Off ch=3 n=67 v=64
192480 On ch=3 n=62 v=92
192600 Off ch=3 n=62 v=64
192600 On ch=3 n=68 v=98
192720 Off ch=3 n=68 v=64
192720 On ch=3 n=68 v=96
192840 Off ch=3 n=68 v=64
192840 On ch=3 n=62 v=93
192960 Off ch=3 n=62 v=64
192960 On ch=3 n=62 v=88
193080 Off ch=3 n=62 v=64
193080 On ch=3 n=69 v=88
193200 Off ch=3 n=69 v=64
193200 On ch=3 n=69 v=88
193320 Off ch=3 n=69 v=64
193320 On ch=3 n=62 v=92
193440 Off ch=3 n=62 v=64
193440 On ch=3 n=68 v=88
193560 Off ch=3 n=68 v=64
193560 On ch=3 n=68 v=88
193680 Off ch=3 n=68 v=64
193680 On ch=3 n=62 v=98
193800 Off ch=3 n=62 v=64
193800 On ch=3 n=67 v=89
193920 Off ch=3 n=67 v=64
193920 On ch=3 n=67 v=94
194040 Off ch=3 n=67 v=64
194040 On ch=3 n=67 v=88
194160 Off ch=3 n=67 v=64
194160 On ch=3 n=67 v=88
194280 Off ch=3 n=67 v=64
194280 On ch=3 n=70 v=97
194400 Off ch=3 n=70 v=64
194400 On ch=3 n=70 v=88
194520 Off ch=3 n=70 v=64
194520 On ch=3 n=67 v=90
194640 Off ch=3 n=67 v=64
194640 On ch=3 n=69 v=93
194760 Off ch=3 n=69 v=64
194760 On ch=3 n=69 v=90
194880 Off ch=3 n=69 v=64
194880 On ch=3 n=67 v=88
195000 Off ch=3 n=67 v=64
195000 On ch=3 n=70 v=93
195120 Off ch=3 n=70 v=64
195120 On ch=3 n=70 v=94
195240 Off ch=3 n=70 v=64
195240 On ch=3 n=67 v=88
195360 Off ch=3 n=67 v=64
195360 On ch=3 n=67 v=91
195480 Off ch=3 n=67 v=64
195480 On ch=3 n=74 v=93
195600 Off ch=3 n=74 v=64
195600 On ch=3 n=74 v=97
195720 Off ch=3 n=74 v=64
195720 On ch=3 n=67 v=92
195840 Off ch=3 n=67 v=64
195840 On ch=3 n=73 v=94
195960 Off ch=3 n=73 v=64
195960 On ch=3 n=73 v=90
196080 Off ch=3 n=73 v=64
196080 On ch=3 n=67 v=96
196200 Off ch=3 n=67 v=64
196200 On ch=3 n=72 v=88
196320 Off ch=3 n=72 v=64
196320 On ch=3 n=72 v=93
196440 Off ch=3 n=72 v=64
196440 On ch=3 n=67 v=99
196560 Off ch=3 n=67 v=64
196560 On ch=3 n=67 v=98
196680 Off ch=3 n=67 v=64
196680 On ch=3 n=70 v=88
196800 Off ch=3 n=70 v=64
196800 On ch=3 n=70 v=88
196920 Off ch=3 n=70 v=64
196920 On ch=3 n=67 v=90
197040 Off ch=3 n=67 v=64
197040 On ch=3 n=69 v=88
197160 Off ch=3 n=69 v=64
197160 On ch=3 n=69 v=88
197280 Off ch=3 n=69 v=64
197280 On ch=3 n=67 v=92
197400 Off ch=3 n=67 v=64
197400 On ch=3 n=70 v=99
197520 Off ch=3 n=70 v=64
197520 On ch=3 n=70 v=93
197640 Off ch=3 n=70 v=64
197640 On ch=3 n=67 v=97
197760 Off ch=3 n=67 v=64
197760 On ch=3 n=67 v=88
197880 Off ch=3 n=67 v=64
197880 On ch=3 n=74 v=88
198000 Off ch=3 n=74 v=64
198000 On ch=3 n=74 v=91
198120 Off ch=3 n=74 v=64
198120 On ch=3 n=67 v=99
198240 Off ch=3 n=67 v=64
198240 On ch=3 n=73 v=90
198360 Off ch=3 n=73 v=64
198360 On ch=3 n=73 v=93
198480 Off ch=3 n=73 v=64
198480 On ch=3 n=67 v=88
198600 Off ch=3 n=67 v=64
198600 On ch=3 n=72 v=89
198720 Off ch=3 n=72 v=64
198720 On ch=3 n=72 v=91
198840 Off ch=3 n=72 v=64
198840 On ch=3 n=62 v=88
199080 Off ch=3 n=62 v=64
199080 On ch=3 n=74 v=92
199200 Off ch=3 n=74 v=64
199200 On ch=3 n=74 v=88
199320 Off ch=3 n=74 v=64
199320 On ch=3 n=62 v=93
199440 Off ch=3 n=62 v=64
199440 On ch=3 n=79 v=91
199560 Off ch=3 n=79 v=64
199560 On ch=3 n=79 v=88
199680 Off ch=3 n=79 v=64
199680 On ch=3 n=62 v=91
199800 Off ch=3 n=62 v=64
199800 On ch=3 n=80 v=97
199920 Off ch=3 n=80 v=64
199920 On ch=3 n=80 v=88
200040 Off ch=3 n=80 v=64
200040 On ch=3 n=62 v=90
200280 Off ch=3 n=62 v=64
200280 On ch=3 n=81 v=96
200400 Off ch=3 n=81 v=64
200400 On ch=3 n=81 v=98
200520 Off ch=3 n=81 v=64
200520 On ch=3 n=62 v=93
200640 Off ch=3 n=62 v=64
200640 On ch=3 n=80 v=97
200760 Off ch=3 n=80 v=64
200760 On ch=3 n=80 v=88
200880 Off ch=3 n=80 v=64
200880 On ch=3 n=62 v=97
201000 Off ch=3 n=62 v=64
201000 On ch=3 n=79 v=88
201120 Off ch=3 n=79 v=64
201120 On ch=3 n=79 v=93
201240 Off ch=3 n=79 v=64
201240 On ch=3 n=62 v=97
201480 Off ch=3 n=62 v=64
201480 On ch=3 n=74 v=91
201600 Off ch=3 n=74 v=64
201600 On ch=3 n=74 v=88
201720 Off ch=3 n=74 v=64
201720 On ch=3 n=62 v=91
201840 Off ch=3 n=62 v=64
201840 On ch=3 n=79 v=88
201960 Off ch=3 n=79 v=64
201960 On ch=3 n=79 v=99
202080 Off ch=3 n=79 v=64
202080 On ch=3 n=62 v=94
202200 Off ch=3 n=62 v=64
202200 On ch=3 n=80 v=94
202320 Off ch=3 n=80 v=64
202320 On ch=3 n=80 v=96
202440 Off ch=3 n=80 v=64
202440 On ch=3 n=62 v=88
202680 Off ch=3 n=62 v=64
202680 On ch=3 n=81 v=96
202800 Off ch=3 n=81 v=64
202800 On ch=3 n=81 v=88
202920 Off ch=3 n=81 v=64
202920 On ch=3 n=62 v=97
203040 Off ch=3 n=62 v=64
203040 On ch=3 n=80 v=91
203160 Off ch=3 n=80 v=64
203160 On ch=3 n=80 v=92
203280 Off ch=3 n=80 v=64
203280 On ch=3 n=62 v=92
203400 Off ch=3 n=62 v=64
203400 On ch=3 n=79 v=88
203520 Off ch=3 n=79 v=64
203520 On ch=3 n=79 v=93
203640 Off ch=3 n=79 v=64
203640 On ch=3 n=62 v=88
203880 Off ch=3 n=62 v=64
203880 On ch=3 n=70 v=98
204000 Off ch=3 n=70 v=64
204000 On ch=3 n=70 v=90
204120 Off ch=3 n=70 v=64
204120 On ch=3 n=67 v=89
204240 Off ch=3 n=67 v=64
204240 On ch=3 n=84 v=88
204360 Off ch=3 n=84 v=64
204360 On ch=3 n=84 v=90
204480 Off ch=3 n=84 v=64
204480 On ch=3 n=67 v=91
204600 Off ch=3 n=67 v=64
204600 On ch=3 n=85 v=94
204720 Off ch=3 n=85 v=64
204720 On ch=3 n=85 v=88
204840 Off ch=3 n=85 v=64
204840 On ch=3 n=67 v=91
205080 Off ch=3 n=67 v=64
205080 On ch=3 n=86 v=88
205200 Off ch=3 n=86 v=64
205200 On ch=3 n=86 v=98
205320 Off ch=3 n=86 v=64
205320 On ch=3 n=67 v=92
205440 Off ch=3 n=67 v=64
205440 On ch=3 n=85 v=88
205560 Off ch=3 n=85 v=64
205560 On ch=3 n=85 v=88
205680 Off ch=3 n=85 v=64
205680 On ch=3 n=67 v=98
205800 Off ch=3 n=67 v=64
205800 On ch=3 n=84 v=94
205920 Off ch=3 n=84 v=64
205920 On ch=3 n=84 v=88
206040 Off ch=3 n=84 v=64
206040 On ch=3 n=67 v=90
206280 Off ch=3 n=67 v=64
206280 On ch=3 n=82 v=99
206400 Off ch=3 n=82 v=64
206400 On ch=3 n=82 v=88
206520 Off ch=3 n=82 v=64
206520 On ch=3 n=67 v=95
206640 Off ch=3 n=67 v=64
206640 On ch=3 n=84 v=99
206760 Off ch=3 n=84 v=64
206760 On ch=3 n=84 v=96
206880 Off ch=3 n=84 v=64
206880 On ch=3 n=67 v=93
207000 Off ch=3 n=67 v=64
207000 On ch=3 n=85 v=95
207120 Off ch=3 n=85 v=64
207120 On ch=3 n=85 v=99
207240 Off ch=3 n=85 v=64
207240 On ch=3 n=67 v=98
207360 Off ch=3 n=67 v=64
207360 On ch=3 n=67 v=88
207480 Off ch=3 n=67 v=64
207480 On ch=3 n=86 v=98
207600 Off ch=3 n=86 v=64
207600 On ch=3 n=86 v=91
207720 Off ch=3 n=86 v=64
207720 On ch=3 n=67 v=95
207840 Off ch=3 n=67 v=64
207840 On ch=3 n=85 v=89
207960 Off ch=3 n=85 v=64
207960 On ch=3 n=85 v=88
208080 Off ch=3 n=85 v=64
208080 On ch=3 n=67 v=88
208200 Off ch=3 n=67 v=64
208200 On ch=3 n=84 v=98
208320 Off ch=3 n=84 v=64
208320 On ch=3 n=84 v=94
208440 Off ch=3 n=84 v=64
208440 On ch=3 n=67 v=91
208560 Off ch=3 n=67 v=64
208560 On ch=3 n=86 v=97
208680 Off ch=3 n=86 v=64
208680 On ch=3 n=86 v=88
208800 Off ch=3 n=86 v=64
208800 On ch=3 n=67 v=98
208920 Off ch=3 n=67 v=64
208920 On ch=3 n=85 v=90
209040 Off ch=3 n=85 v=64
209040 On ch=3 n=85 v=99
209160 Off ch=3 n=85 v=64
209160 On ch=3 n=67 v=98
209280 Off ch=3 n=67 v=64
209280 On ch=3 n=84 v=91
209400 Off ch=3 n=84 v=64
209400 On ch=3 n=84 v=88
209520 Off ch=3 n=84 v=64
209520 On ch=3 n=67 v=90
209640 Off ch=3 n=67 v=64
209640 On ch=3 n=86 v=88
209760 Off ch=3 n=86 v=64
209760 On ch=3 n=86 v=88
209880 Off ch=3 n=86 v=64
209880 On ch=3 n=67 v=90
210000 Off ch=3 n=67 v=64
210000 On ch=3 n=85 v=88
210120 Off ch=3 n=85 v=64
210120 On ch=3 n=85 v=98
210240 Off ch=3 n=85 v=64
210240 On ch=3 n=67 v=88
210360 Off ch=3 n=67 v=64
210360 On ch=3 n=84 v=94
210480 Off ch=3 n=84 v=64
210480 On ch=3 n=67 v=95
210600 Off ch=3 n=67 v=64
210600 On ch=3 n=82 v=87
210720 Off ch=3 n=82 v=64
210720 On ch=3 n=81 v=90
210840 Off ch=3 n=81 v=64
210840 On ch=3 n=82 v=87
210960 Off ch=3 n=82 v=64
210960 On ch=3 n=81 v=83
211080 Off ch=3 n=81 v=64
211080 On ch=3 n=82 v=85
211200 Off ch=3 n=82 v=64
211200 On ch=3 n=81 v=70
211220 Off ch=3 n=81 v=64
211220 On ch=3 n=80 v=75
211240 Off ch=3 n=80 v=64
211240 On ch=3 n=79 v=70
211260 Off ch=3 n=79 v=64
211260 On ch=3 n=78 v=70
211280 Off ch=3 n=78 v=64
211280 On ch=3 n=77 v=70
211300 Off ch=3 n=77 v=64
211300 On ch=3 n=71 v=71
211320 Off ch=3 n=71 v=64
211320 On ch=3 n=69 v=77
211440 Off ch=3 n=69 v=64
211440 On ch=3 n=70 v=91
211560 Off ch=3 n=70 v=64
211560 On ch=3 n=69 v=93
211680 Off ch=3 n=69 v=64
211680 On ch=3 n=70 v=93
211800 Off ch=3 n=70 v=64
211800 On ch=3 n=69 v=91
211920 Off ch=3 n=69 v=64
211920 On ch=3 n=69 v=92
211980 Off ch=3 n=69 v=64
211980 On ch=3 n=70 v=85
212040 Off ch=3 n=70 v=64
212040 On ch=3 n=69 v=81
212100 Off ch=3 n=69 v=64
212100 On ch=3 n=67 v=86
212160 Off ch=3 n=67 v=64
212160 On ch=3 n=64 v=88
212280 Off ch=3 n=64 v=64
212280 On ch=3 n=61 v=84
212400 Off ch=3 n=61 v=64
212400 On ch=3 n=60 v=80
212520 Off ch=3 n=60 v=64
212520 On ch=3 n=58 v=84
212640 Off ch=3 n=58 v=64
212640 On ch=3 n=60 v=93
212700 Off ch=3 n=60 v=64
212700 On ch=3 n=61 v=85
212760 Off ch=3 n=61 v=64
212760 On ch=3 n=60 v=93
212820 Off ch=3 n=60 v=64
212820 On ch=3 n=58 v=71
212880 Off ch=3 n=58 v=64
212880 On ch=3 n=55 v=89
213000 Off ch=3 n=55 v=64
213000 On ch=3 n=52 v=89
213120 Off ch=3 n=52 v=64
213120 On ch=3 n=55 v=88
213240 Off ch=3 n=55 v=64
213240 On ch=3 n=58 v=94
213360 Off ch=3 n=58 v=64
213360 On ch=3 n=60 v=94
213420 Off ch=3 n=60 v=64
213420 On ch=3 n=61 v=91
213480 Off ch=3 n=61 v=64
213480 On ch=3 n=61 v=91
213540 Off ch=3 n=61 v=64
213540 On ch=3 n=61 v=91
213600 Off ch=3 n=61 v=64
213600 On ch=3 n=61 v=86
213660 Off ch=3 n=61 v=64
213660 On ch=3 n=60 v=88
213720 Off ch=3 n=60 v=64
213720 On ch=3 n=58 v=77
213780 Off ch=3 n=58 v=64
213780 On ch=3 n=52 v=92
213900 Off ch=3 n=52 v=64
213900 On ch=3 n=55 v=85
214020 Off ch=3 n=55 v=64
214020 On ch=3 n=60 v=84
214080 Off ch=3 n=60 v=64
214080 On ch=3 n=61 v=87
214140 Off ch=3 n=61 v=64
214140 On ch=3 n=60 v=95
214200 Off ch=3 n=60 v=64
214200 On ch=3 n=58 v=91
214260 Off ch=3 n=58 v=64
214260 On ch=3 n=55 v=86
214380 Off ch=3 n=55 v=64
214380 On ch=3 n=52 v=95
214500 Off ch=3 n=52 v=64
214500 On ch=3 n=55 v=95
214620 Off ch=3 n=55 v=64
214620 On ch=3 n=58 v=90
214740 Off ch=3 n=58 v=64
214740 On ch=3 n=60 v=89
214860 Off ch=3 n=60 v=64
214860 On ch=3 n=60 v=92
214920 Off ch=3 n=60 v=64
214920 On ch=3 n=61 v=90
214980 Off ch=3 n=61 v=64
214980 On ch=3 n=61 v=93
215040 Off ch=3 n=61 v=64
215040 On ch=3 n=61 v=88
215100 Off ch=3 n=61 v=64
215100 On ch=3 n=61 v=95
215160 Off ch=3 n=61 v=64
215160 On ch=3 n=91 v=93
215160 On ch=3 n=85 v=82
215160 On ch=3 n=79 v=89
215220 Off ch=3 n=91 v=64
215220 Off ch=3 n=79 v=64
215220 Off ch=3 n=85 v=64
215220 On ch=3 n=91 v=89
215220 On ch=3 n=85 v=74
215220 On ch=3 n=79 v=87
215280 Off ch=3 n=91 v=64
215280 Off ch=3 n=79 v=64
215280 Off ch=3 n=85 v=64
215280 On ch=3 n=79 v=88
215280 On ch=3 n=91 v=82
215280 On ch=3 n=85 v=92
215340 Off ch=3 n=79 v=64
215340 Off ch=3 n=85 v=64
215340 Off ch=3 n=91 v=64
215340 On ch=3 n=85 v=88
215340 On ch=3 n=91 v=92
215340 On ch=3 n=79 v=74
215400 Off ch=3 n=85 v=64
215400 Off ch=3 n=79 v=64
215400 Off ch=3 n=91 v=64
215400 On ch=3 n=91 v=91
215400 On ch=3 n=85 v=86
215400 On ch=3 n=79 v=82
215460 Off ch=3 n=91 v=64
215460 Off ch=3 n=79 v=64
215460 Off ch=3 n=85 v=64
215520 On ch=3 n=67 v=79
215580 Off ch=3 n=67 v=64
215580 On ch=3 n=70 v=91
215640 Off ch=3 n=70 v=64
215700 On ch=3 n=72 v=87
215760 Off ch=3 n=72 v=64
215760 On ch=3 n=73 v=94
215800 Off ch=3 n=73 v=64
215800 On ch=3 n=73 v=70
215880 Off ch=3 n=73 v=64
215880 On ch=3 n=73 v=92
215920 Off ch=3 n=73 v=64
215920 On ch=3 n=73 v=76
216000 Off ch=3 n=73 v=64
216000 On ch=3 n=73 v=94
216040 Off ch=3 n=73 v=64
216040 On ch=3 n=73 v=75
216120 Off ch=3 n=73 v=64
216120 On ch=3 n=73 v=83
216160 Off ch=3 n=73 v=64
216160 On ch=3 n=73 v=74
216240 Off ch=3 n=73 v=64
216240 On ch=3 n=73 v=78
216300 Off ch=3 n=73 v=64
216300 On ch=3 n=72 v=95
216360 Off ch=3 n=72 v=64
216360 On ch=3 n=70 v=81
216420 Off ch=3 n=70 v=64
216420 On ch=3 n=68 v=93
216480 Off ch=3 n=68 v=64
216480 On ch=3 n=82 v=86
216540 Off ch=3 n=82 v=64
216540 On ch=3 n=94 v=88
216540 On ch=3 n=88 v=86
216540 On ch=3 n=82 v=74
216600 Off ch=3 n=94 v=64
216600 Off ch=3 n=82 v=64
216600 Off ch=3 n=88 v=64
216600 On ch=3 n=94 v=86
216600 On ch=3 n=88 v=93
216660 Off ch=3 n=94 v=64
216660 Off ch=3 n=88 v=64
216660 On ch=3 n=94 v=89
216660 On ch=3 n=88 v=84
216720 Off ch=3 n=94 v=64
216720 Off ch=3 n=88 v=64
216720 On ch=3 n=94 v=73
216720 On ch=3 n=94 v=85
216780 Off ch=3 n=94 v=64
216780 Off ch=3 n=94 v=64
216780 On ch=3 n=94 v=87
216780 On ch=3 n=88 v=87
216840 Off ch=3 n=94 v=64
216840 Off ch=3 n=88 v=64
216840 On ch=3 n=94 v=88
216840 On ch=3 n=88 v=94
216900 Off ch=3 n=94 v=64
216900 Off ch=3 n=88 v=64
216900 On ch=3 n=94 v=86
216900 On ch=3 n=88 v=93
216960 Off ch=3 n=94 v=64
216960 Off ch=3 n=88 v=64
217020 On ch=3 n=79 v=94
217080 Off ch=3 n=79 v=64
217080 On ch=3 n=94 v=85
217140 Off ch=3 n=94 v=64
217140 On ch=3 n=81 v=95
217200 Off ch=3 n=81 v=64
217260 On ch=3 n=82 v=93
217380 Off ch=3 n=82 v=64
217380 On ch=3 n=82 v=93
217500 Off ch=3 n=82 v=64
217500 On ch=3 n=82 v=95
217620 Off ch=3 n=82 v=64
217620 On ch=3 n=82 v=83
217740 Off ch=3 n=82 v=64
217740 On ch=3 n=81 v=89
217980 Off ch=3 n=81 v=64
217980 On ch=3 n=79 v=88
218040 Off ch=3 n=79 v=64
218040 On ch=3 n=81 v=92
218100 Off ch=3 n=81 v=64
218100 On ch=3 n=79 v=79
218160 Off ch=3 n=79 v=64
218160 On ch=3 n=78 v=91
218220 Off ch=3 n=78 v=64
218220 On ch=3 n=76 v=83
218340 Off ch=3 n=76 v=64
218400 On ch=3 n=52 v=94
218400 On ch=3 n=58 v=82
218760 On ch=3 n=64 v=88
218820 Off ch=3 n=64 v=64
218880 On ch=3 n=67 v=82
218940 Off ch=3 n=67 v=64
219000 On ch=3 n=67 v=94
219060 Off ch=3 n=67 v=64
219060 On ch=3 n=67 v=78
219120 Off ch=3 n=52 v=64
219120 Off ch=3 n=67 v=64
219120 Off ch=3 n=58 v=64
219120 On ch=3 n=67 v=89
219180 Off ch=3 n=67 v=64
219180 On ch=3 n=66 v=82
219240 Off ch=3 n=66 v=64
219240 On ch=3 n=67 v=87
219300 Off ch=3 n=67 v=64
219300 On ch=3 n=67 v=94
219360 Off ch=3 n=67 v=64
219360 On ch=3 n=66 v=84
219420 Off ch=3 n=66 v=64
219420 On ch=3 n=67 v=89
219480 Off ch=3 n=67 v=64
219480 On ch=3 n=66 v=82
219540 Off ch=3 n=66 v=64
219540 On ch=3 n=66 v=85
219600 Off ch=3 n=66 v=64
219600 On ch=3 n=64 v=92
219660 Off ch=3 n=64 v=64
219660 On ch=3 n=60 v=88
219720 Off ch=3 n=60 v=64
219720 On ch=3 n=58 v=94
219780 Off ch=3 n=58 v=64
219840 On ch=3 n=58 v=95
219900 Off ch=3 n=58 v=64
219900 On ch=3 n=60 v=84
219960 Off ch=3 n=60 v=64
219960 On ch=3 n=61 v=87
220020 Off ch=3 n=61 v=64
220020 On ch=3 n=60 v=83
220080 Off ch=3 n=60 v=64
220080 On ch=3 n=58 v=93
220140 Off ch=3 n=58 v=64
220140 On ch=3 n=55 v=94
220200 Off ch=3 n=55 v=64
220200 On ch=3 n=52 v=89
220260 Off ch=3 n=52 v=64
220260 On ch=3 n=62 v=93
220380 Off ch=3 n=62 v=64
220380 On ch=3 n=66 v=94
220440 Off ch=3 n=66 v=64
220440 On ch=3 n=67 v=90
220500 Off ch=3 n=67 v=64
220500 On ch=3 n=66 v=86
220560 Off ch=3 n=66 v=64
220560 On ch=3 n=64 v=90
220620 Off ch=3 n=64 v=64
220620 On ch=3 n=61 v=94
220680 Off ch=3 n=61 v=64
220680 On ch=3 n=57 v=92
220800 Off ch=3 n=57 v=64
220800 On ch=3 n=69 v=93
220860 Off ch=3 n=69 v=64
220860 On ch=3 n=71 v=90
220920 Off ch=3 n=71 v=64
220920 On ch=3 n=73 v=82
220980 Off ch=3 n=73 v=64
220980 On ch=3 n=71 v=94
221040 Off ch=3 n=71 v=64
221040 On ch=3 n=69 v=74
221160 Off ch=3 n=69 v=64
221160 On ch=3 n=69 v=85
221220 Off ch=3 n=69 v=64
221220 On ch=3 n=70 v=90
221280 Off ch=3 n=70 v=64
221280 On ch=3 n=72 v=83
221340 Off ch=3 n=72 v=64
221340 On ch=3 n=70 v=79
221400 Off ch=3 n=70 v=64
221400 On ch=3 n=69 v=85
221520 Off ch=3 n=69 v=64
221520 On ch=3 n=73 v=89
221580 Off ch=3 n=73 v=64
221580 On ch=3 n=74 v=78
221640 Off ch=3 n=74 v=64
221640 On ch=3 n=76 v=85
221700 Off ch=3 n=76 v=64
221700 On ch=3 n=74 v=90
221760 Off ch=3 n=74 v=64
221760 On ch=3 n=73 v=84
221820 Off ch=3 n=73 v=64
221820 On ch=3 n=74 v=80
221880 Off ch=3 n=74 v=64
221940 On ch=3 n=78 v=95
222000 Off ch=3 n=78 v=64
222000 On ch=3 n=79 v=90
222060 Off ch=3 n=79 v=64
222060 On ch=3 n=82 v=77
222115 Pb ch=3 v=8274
222180 Off ch=3 n=82 v=64
222180 On ch=3 n=81 v=93
222240 Off ch=3 n=81 v=64
222240 On ch=3 n=79 v=82
222273 Pb ch=3 v=8192
222300 Off ch=3 n=79 v=64
222300 On ch=3 n=78 v=79
222390 On ch=3 n=82 v=75
222420 Off ch=3 n=78 v=64
222480 Off ch=3 n=82 v=64
222480 On ch=3 n=83 v=81
222540 On ch=3 n=83 v=90
222600 Off ch=3 n=83 v=64
222637 Pb ch=3 v=8357
222643 Pb ch=3 v=8688
222651 Pb ch=3 v=8936
222752 Pb ch=3 v=9102
222825 Pb ch=3 v=8936
222997 Pb ch=3 v=9102
223076 Pb ch=3 v=8936
223080 Off ch=3 n=83 v=64
223112 Pb ch=3 v=9102
223177 Pb ch=3 v=8853
223183 Pb ch=3 v=8688
223235 Pb ch=3 v=8853
223292 Pb ch=3 v=8688
223299 Pb ch=3 v=8522
223328 Pb ch=3 v=8688
223336 Pb ch=3 v=9102
223343 Pb ch=3 v=9433
223393 Pb ch=3 v=9184
223401 Pb ch=3 v=9019
223494 Pb ch=3 v=8853
223501 Pb ch=3 v=8688
223510 Pb ch=3 v=8357
223546 Pb ch=3 v=8522
223552 Pb ch=3 v=8853
223560 Pb ch=3 v=9019
223597 Pb ch=3 v=8853
223603 Pb ch=3 v=8440
223610 Pb ch=3 v=8192
223748 Pb ch=3 v=8274
223754 Pb ch=3 v=8522
223762 Pb ch=3 v=8688
223798 Pb ch=3 v=8440
223800 On ch=3 n=83 v=82
223809 Pb ch=3 v=8192
224040 Off ch=3 n=83 v=64
224040 On ch=3 n=85 v=94
224160 Off ch=3 n=85 v=64
224280 On ch=3 n=86 v=91
224400 Off ch=3 n=86 v=64
224520 On ch=3 n=86 v=72
224760 Off ch=3 n=86 v=64
225000 On ch=3 n=85 v=92
225240 Off ch=3 n=85 v=64
225480 On ch=3 n=83 v=92
225720 Off ch=3 n=83 v=64
225720 On ch=3 n=82 v=88
225759 Pb ch=3 v=8357
225782 Pb ch=3 v=8522
225960 Off ch=3 n=82 v=64
225960 On ch=3 n=85 v=91
226000 Pb ch=3 v=8357
226022 Pb ch=3 v=8192
226092 Pb ch=3 v=8274
226139 Pb ch=3 v=8522
226161 Pb ch=3 v=8688
226200 Off ch=3 n=85 v=64
226200 On ch=3 n=82 v=93
226218 Pb ch=3 v=8936
226324 Pb ch=3 v=8522
226335 Pb ch=3 v=8192
226394 Pb ch=3 v=8440
226404 Pb ch=3 v=8853
226418 Pb ch=3 v=9019
226440 Off ch=3 n=82 v=64
226440 On ch=3 n=83 v=88
226543 Pb ch=3 v=8688
226560 Off ch=3 n=83 v=64
226560 On ch=3 n=85 v=91
226680 Off ch=3 n=85 v=64
226680 On ch=3 n=83 v=87
226751 Pb ch=3 v=8522
226800 Off ch=3 n=83 v=64
226800 On ch=3 n=82 v=90
226820 Pb ch=3 v=8771
226920 Off ch=3 n=82 v=64
226920 On ch=3 n=85 v=70
226995 Pb ch=3 v=8936
227018 Pb ch=3 v=9102
227065 Pb ch=3 v=9350
227160 On ch=3 n=86 v=81
227280 Off ch=3 n=85 v=64
227283 Pb ch=3 v=9102
227295 Pb ch=3 v=8853
227306 Pb ch=3 v=8357
227320 Pb ch=3 v=8192
227400 Off ch=3 n=86 v=64
227457 Pb ch=3 v=8357
227467 Pb ch=3 v=8605
227479 Pb ch=3 v=8936
227583 Pb ch=3 v=8771
227595 Pb ch=3 v=8522
227640 On ch=3 n=85 v=93
227760 Off ch=3 n=85 v=64
227760 On ch=3 n=86 v=87
227828 Pb ch=3 v=8357
227850 Pb ch=3 v=8192
227880 Off ch=3 n=86 v=64
227880 On ch=3 n=85 v=95
227930 Pb ch=3 v=8357
227944 Pb ch=3 v=8522
227952 Pb ch=3 v=8688
227977 Pb ch=3 v=8853
228000 Off ch=3 n=85 v=64
228000 On ch=3 n=83 v=77
228048 Pb ch=3 v=9019
228058 Pb ch=3 v=9184
228071 Pb ch=3 v=9350
228120 Off ch=3 n=83 v=64
228209 Pb ch=3 v=9184
228219 Pb ch=3 v=8688
228232 Pb ch=3 v=8192
228240 On ch=3 n=85 v=94
228360 Off ch=3 n=85 v=64
228480 On ch=3 n=82 v=91
228579 Pb ch=3 v=8357
228589 Pb ch=3 v=8605
228600 Off ch=3 n=82 v=64
228601 Pb ch=3 v=8771
228693 Pb ch=3 v=8522
228705 Pb ch=3 v=8192
228720 On ch=3 n=83 v=86
228840 Off ch=3 n=83 v=64
228840 On ch=3 n=79 v=85
228960 Off ch=3 n=79 v=64
228960 On ch=3 n=81 v=94
229014 Off ch=3 n=81 v=64
229080 On ch=3 n=79 v=86
229200 Off ch=3 n=79 v=64
229200 On ch=3 n=78 v=91
229440 Off ch=3 n=78 v=64
229560 On ch=3 n=85 v=83
229680 Off ch=3 n=85 v=64
229680 On ch=3 n=86 v=90
229800 Off ch=3 n=86 v=64
229892 Pb ch=3 v=8274
229920 On ch=3 n=85 v=91
229939 Pb ch=3 v=8440
229951 Pb ch=3 v=8605
230040 Off ch=3 n=85 v=64
230040 On ch=3 n=86 v=78
230160 Off ch=3 n=86 v=64
230160 On ch=3 n=85 v=90
230280 Off ch=3 n=85 v=64
230280 On ch=3 n=83 v=85
230321 Pb ch=3 v=8274
230333 Pb ch=3 v=8192
230400 Off ch=3 n=83 v=64
230460 On ch=3 n=85 v=90
230520 Off ch=3 n=85 v=64
230640 On ch=3 n=82 v=90
230760 Off ch=3 n=82 v=64
230820 On ch=3 n=83 v=92
230880 Off ch=3 n=83 v=64
230945 Pb ch=3 v=8274
231000 On ch=3 n=79 v=94
231120 Off ch=3 n=79 v=64
231120 On ch=3 n=81 v=76
231240 Off ch=3 n=81 v=64
231240 On ch=3 n=79 v=92
231245 Pb ch=3 v=8192
231300 Off ch=3 n=79 v=64
231480 On ch=3 n=78 v=76
231840 Off ch=3 n=78 v=64
231960 On ch=3 n=78 v=75
232080 Off ch=3 n=78 v=64
232200 On ch=3 n=79 v=84
232320 Off ch=3 n=79 v=64
232440 On ch=3 n=78 v=80
232560 Off ch=3 n=78 v=64
232600 On ch=3 n=79 v=70
232720 Off ch=3 n=79 v=64
232760 On ch=3 n=78 v=92
232880 Off ch=3 n=78 v=64
232920 On ch=3 n=76 v=73
233040 Off ch=3 n=76 v=64
233160 On ch=3 n=78 v=90
233280 Off ch=3 n=78 v=64
233400 On ch=3 n=73 v=74
233520 Off ch=3 n=73 v=64
233640 On ch=3 n=74 v=91
233760 Off ch=3 n=74 v=64
233880 On ch=3 n=73 v=95
234000 Off ch=3 n=73 v=64
234040 On ch=3 n=74 v=70
234160 Off ch=3 n=74 v=64
234200 On ch=3 n=73 v=82
234320 Off ch=3 n=73 v=64
234360 On ch=3 n=71 v=83
234480 Off ch=3 n=71 v=64
234600 On ch=3 n=73 v=89
234840 Off ch=3 n=73 v=64
234840 On ch=3 n=69 v=92
234960 Off ch=3 n=69 v=64
235000 On ch=3 n=71 v=70
235120 Off ch=3 n=71 v=64
235160 On ch=3 n=69 v=89
235280 Off ch=3 n=69 v=64
235320 On ch=3 n=67 v=93
235440 Off ch=3 n=67 v=64
235560 On ch=3 n=69 v=87
235680 Off ch=3 n=69 v=64
235800 On ch=3 n=64 v=84
235920 On ch=3 n=65 v=70
236040 Off ch=3 n=64 v=64
236040 Off ch=3 n=65 v=64
236120 On ch=3 n=64 v=86
236240 Off ch=3 n=64 v=64
236280 On ch=3 n=62 v=88
236400 Off ch=3 n=62 v=64
236520 On ch=3 n=64 v=82
236640 Off ch=3 n=64 v=64
236760 On ch=3 n=59 v=93
236880 Off ch=3 n=59 v=64
236880 On ch=3 n=60 v=93
237000 Off ch=3 n=60 v=64
237080 On ch=3 n=59 v=92
237200 Off ch=3 n=59 v=64
237240 On ch=3 n=57 v=79
237360 Off ch=3 n=57 v=64
237480 On ch=3 n=59 v=93
237720 Off ch=3 n=59 v=64
237720 On ch=3 n=54 v=94
237840 Off ch=3 n=54 v=64
237840 On ch=3 n=55 v=83
237960 Off ch=3 n=55 v=64
237960 On ch=3 n=54 v=88
238080 Off ch=3 n=54 v=64
238080 On ch=3 n=52 v=87
238200 Off ch=3 n=52 v=64
238200 On ch=3 n=54 v=87
238320 Off ch=3 n=54 v=64
238320 On ch=3 n=55 v=82
238440 Off ch=3 n=55 v=64
238440 On ch=3 n=54 v=74
238560 Off ch=3 n=54 v=64
238560 On ch=3 n=52 v=89
238680 Off ch=3 n=52 v=64
238680 On ch=3 n=54 v=93
238800 Off ch=3 n=54 v=64
238800 On ch=3 n=55 v=87
238920 Off ch=3 n=55 v=64
238920 On ch=3 n=54 v=93
239040 Off ch=3 n=54 v=64
239040 On ch=3 n=52 v=88
239160 Off ch=3 n=52 v=64
239160 On ch=3 n=54 v=89
239280 Off ch=3 n=54 v=64
239280 On ch=3 n=55 v=93
239400 Off ch=3 n=55 v=64
239400 On ch=3 n=54 v=90
239520 Off ch=3 n=54 v=64
239520 On ch=3 n=52 v=78
239640 Off ch=3 n=52 v=64
239640 On ch=3 n=54 v=86
239760 Off ch=3 n=54 v=64
239760 On ch=3 n=55 v=91
239880 Off ch=3 n=55 v=64
239880 On ch=3 n=54 v=90
240000 Off ch=3 n=54 v=64
240000 On ch=3 n=52 v=93
240120 Off ch=3 n=52 v=64
240120 On ch=3 n=54 v=73
240240 Off ch=3 n=54 v=64
240240 On ch=3 n=55 v=90
240360 Off ch=3 n=55 v=64
240360 On ch=3 n=54 v=74
240480 Off ch=3 n=54 v=64
240480 On ch=3 n=52 v=91
240600 Off ch=3 n=52 v=64
240600 On ch=3 n=54 v=93
240720 Off ch=3 n=54 v=64
240720 On ch=3 n=55 v=90
240840 Off ch=3 n=55 v=64
240840 On ch=3 n=54 v=91
240960 Off ch=3 n=54 v=64
240960 On ch=3 n=52 v=91
241080 Off ch=3 n=52 v=64
241080 On ch=3 n=54 v=79
241200 Off ch=3 n=54 v=64
241200 On ch=3 n=55 v=94
241320 Off ch=3 n=55 v=64
241320 On ch=3 n=54 v=90
241440 Off ch=3 n=54 v=64
241440 On ch=3 n=52 v=87
241560 Off ch=3 n=52 v=64
241560 On ch=3 n=54 v=79
241680 Off ch=3 n=54 v=64
241680 On ch=3 n=55 v=82
241800 Off ch=3 n=55 v=64
241800 On ch=3 n=54 v=78
241920 Off ch=3 n=54 v=64
241920 On ch=3 n=52 v=94
242040 Off ch=3 n=52 v=64
242040 On ch=3 n=54 v=82
242160 Off ch=3 n=54 v=64
242160 On ch=3 n=55 v=87
242280 Off ch=3 n=55 v=64
242280 On ch=3 n=54 v=89
242400 Off ch=3 n=54 v=64
242400 On ch=3 n=52 v=94
242520 Off ch=3 n=52 v=64
242520 On ch=3 n=54 v=93
242640 Off ch=3 n=54 v=64
242640 On ch=3 n=55 v=95
242760 Off ch=3 n=55 v=64
242760 On ch=3 n=54 v=74
242880 Off ch=3 n=54 v=64
242880 On ch=3 n=52 v=94
243000 Off ch=3 n=52 v=64
243000 On ch=3 n=54 v=85
243120 Off ch=3 n=54 v=64
243120 On ch=3 n=55 v=93
243240 Off ch=3 n=55 v=64
243240 On ch=3 n=54 v=80
243360 Off ch=3 n=54 v=64
243360 On ch=3 n=52 v=91
243480 Off ch=3 n=52 v=64
243480 On ch=3 n=54 v=95
243600 Off ch=3 n=54 v=64
243600 On ch=3 n=55 v=79
243720 Off ch=3 n=55 v=64
243720 On ch=3 n=54 v=76
243840 Off ch=3 n=54 v=64
243840 On ch=3 n=52 v=92
243960 Off ch=3 n=52 v=64
243960 On ch=3 n=54 v=95
244080 Off ch=3 n=54 v=64
244080 On ch=3 n=55 v=77
244200 Off ch=3 n=55 v=64
244200 On ch=3 n=54 v=92
244320 Off ch=3 n=54 v=64
244320 On ch=3 n=52 v=85
244440 Off ch=3 n=52 v=64
244440 On ch=3 n=54 v=89
245880 Off ch=3 n=54 v=64
245880 On ch=3 n=68 v=88
246086 Pb ch=3 v=8274
246166 Pb ch=3 v=8440
246232 Pb ch=3 v=8688
246264 Pb ch=3 v=8853
246345 Pb ch=3 v=9102
246492 Pb ch=3 v=9267
246840 Off ch=3 n=68 v=64
246840 On ch=3 n=67 v=83
246987 Pb ch=3 v=9102
247168 Pb ch=3 v=8853
247183 Pb ch=3 v=8688
247200 Pb ch=3 v=8522
247217 Pb ch=3 v=8357
247320 Off ch=3 n=67 v=64
247320 On ch=3 n=65 v=95
247330 Pb ch=3 v=8192
247440 Off ch=3 n=65 v=64
247560 On ch=3 n=63 v=81
247800 Off ch=3 n=63 v=64
247800 On ch=3 n=62 v=83
248280 Off ch=3 n=62 v=64
248280 On ch=3 n=63 v=89
248520 Off ch=3 n=63 v=64
248520 On ch=3 n=65 v=78
248760 Off ch=3 n=65 v=64
248760 On ch=3 n=67 v=88
249240 Off ch=3 n=67 v=64
249240 On ch=3 n=65 v=81
249480 Off ch=3 n=65 v=64
249480 On ch=3 n=63 v=93
249720 Off ch=3 n=63 v=64
249720 On ch=3 n=62 v=93
249960 Off ch=3 n=62 v=64
249960 On ch=3 n=59 v=94
250200 Off ch=3 n=59 v=64
250200 On ch=3 n=53 v=94
251160 Off ch=3 n=53 v=64
251640 On ch=3 n=68 v=79
252600 Off ch=3 n=68 v=64
252600 On ch=3 n=67 v=91
252960 Off ch=3 n=67 v=64
253080 On ch=3 n=65 v=94
253320 Off ch=3 n=65 v=64
253320 On ch=3 n=63 v=90
253560 Off ch=3 n=63 v=64
253560 On ch=3 n=62 v=95
253800 Off ch=3 n=62 v=64
253800 On ch=3 n=63 v=85
254040 Off ch=3 n=63 v=64
254040 On ch=3 n=65 v=92
254160 Off ch=3 n=65 v=64
254280 On ch=3 n=67 v=85
254520 Off ch=3 n=67 v=64
254520 On ch=3 n=68 v=84
254760 Off ch=3 n=68 v=64
254760 On ch=3 n=70 v=82
254782 Off ch=3 n=70 v=64
255000 On ch=3 n=71 v=82
255240 Off ch=3 n=71 v=64
255240 On ch=3 n=72 v=80
255480 Off ch=3 n=72 v=64
255480 On ch=3 n=74 v=94
255720 Off ch=3 n=74 v=64
255720 On ch=3 n=75 v=87
255960 Off ch=3 n=75 v=64
255960 On ch=3 n=74 v=78
256200 On ch=3 n=77 v=76
256320 Off ch=3 n=74 v=64
256440 Off ch=3 n=77 v=64
256440 On ch=3 n=79 v=81
256514 Pb ch=3 v=8688
256531 Pb ch=3 v=8936
256727 Pb ch=3 v=8440
256742 Pb ch=3 v=8192
256920 Off ch=3 n=79 v=64
256920 On ch=3 n=79 v=93
257050 Pb ch=3 v=8936
257067 Pb ch=3 v=9846
257084 Pb ch=3 v=10343
257099 Pb ch=3 v=10756
257116 Pb ch=3 v=10922
257197 Pb ch=3 v=10591
257214 Pb ch=3 v=10094
257231 Pb ch=3 v=9763
257246 Pb ch=3 v=9515
257263 Pb ch=3 v=9019
257277 Pb ch=3 v=8688
257294 Pb ch=3 v=8274
257312 Pb ch=3 v=8192
257400 Off ch=3 n=79 v=64
257400 On ch=3 n=79 v=87
257476 Pb ch=3 v=8771
257490 Pb ch=3 v=9515
257505 Pb ch=3 v=10012
257522 Pb ch=3 v=10425
257536 Pb ch=3 v=10674
257652 Pb ch=3 v=10425
257669 Pb ch=3 v=10012
257683 Pb ch=3 v=9763
257701 Pb ch=3 v=9184
257718 Pb ch=3 v=8771
257732 Pb ch=3 v=8440
257880 Off ch=3 n=79 v=64
257880 On ch=3 n=79 v=95
257914 Pb ch=3 v=8936
257931 Pb ch=3 v=9763
257945 Pb ch=3 v=10425
257963 Pb ch=3 v=11004
257977 Pb ch=3 v=11666
257994 Pb ch=3 v=11997
258110 Pb ch=3 v=11584
258124 Pb ch=3 v=11253
258141 Pb ch=3 v=10674
258158 Pb ch=3 v=10177
258173 Pb ch=3 v=9598
258190 Pb ch=3 v=9019
258207 Pb ch=3 v=8605
258222 Pb ch=3 v=8357
258360 Off ch=3 n=79 v=64
258360 On ch=3 n=79 v=95
258403 Pb ch=3 v=8936
258418 Pb ch=3 v=9515
258435 Pb ch=3 v=9929
258449 Pb ch=3 v=10343
258467 Pb ch=3 v=11004
258484 Pb ch=3 v=11501
258498 Pb ch=3 v=11666
258631 Pb ch=3 v=11335
258645 Pb ch=3 v=10591
258662 Pb ch=3 v=9763
258677 Pb ch=3 v=9267
258726 Pb ch=3 v=9102
258840 Off ch=3 n=79 v=64
258840 On ch=3 n=79 v=82
258907 Pb ch=3 v=9763
258922 Pb ch=3 v=10591
258939 Pb ch=3 v=11335
258953 Pb ch=3 v=11832
258971 Pb ch=3 v=12080
259086 Pb ch=3 v=11832
259100 Pb ch=3 v=11584
259118 Pb ch=3 v=10922
259135 Pb ch=3 v=10425
259149 Pb ch=3 v=10177
259166 Pb ch=3 v=9846
259184 Pb ch=3 v=9681
259198 Pb ch=3 v=9267
259215 Pb ch=3 v=8936
259233 Pb ch=3 v=8688
259320 Off ch=3 n=79 v=64
259320 On ch=3 n=79 v=77
259380 Pb ch=3 v=8853
259394 Pb ch=3 v=9515
259411 Pb ch=3 v=10094
259426 Pb ch=3 v=10508
259443 Pb ch=3 v=10839
259460 Pb ch=3 v=11087
259475 Pb ch=3 v=11253
259506 Pb ch=3 v=11418
259639 Pb ch=3 v=11253
259653 Pb ch=3 v=11087
259670 Pb ch=3 v=10922
259685 Pb ch=3 v=10674
259702 Pb ch=3 v=10425
259800 Off ch=3 n=79 v=64
259800 On ch=3 n=79 v=81
259835 Pb ch=3 v=10260
259849 Pb ch=3 v=10012
259866 Pb ch=3 v=9846
259881 Pb ch=3 v=9681
259947 Pb ch=3 v=9515
260094 Pb ch=3 v=10012
260108 Pb ch=3 v=11004
260126 Pb ch=3 v=11749
260143 Pb ch=3 v=12080
260223 Pb ch=3 v=11915
260238 Pb ch=3 v=11418
260255 Pb ch=3 v=10839
260272 Pb ch=3 v=10508
260290 Pb ch=3 v=10260
260304 Pb ch=3 v=9846
260322 Pb ch=3 v=9515
260336 Pb ch=3 v=9102
260354 Pb ch=3 v=8936
260371 Pb ch=3 v=8688
260386 Pb ch=3 v=8522
260403 Pb ch=3 v=8274
260418 Pb ch=3 v=8192
261240 Off ch=3 n=79 v=64
261240 On ch=3 n=54 v=108
261360 Off ch=3 n=54 v=64
261360 On ch=3 n=55 v=96
261480 Off ch=3 n=55 v=64
261480 On ch=3 n=58 v=87
261600 Off ch=3 n=58 v=64
261600 On ch=3 n=59 v=78
261720 Off ch=3 n=59 v=64
261720 On ch=3 n=55 v=91
261840 Off ch=3 n=55 v=64
261840 On ch=3 n=58 v=95
261960 Off ch=3 n=58 v=64
261960 On ch=3 n=59 v=71
262080 Off ch=3 n=59 v=64
262080 On ch=3 n=61 v=91
262200 Off ch=3 n=61 v=64
262200 On ch=3 n=62 v=81
262320 Off ch=3 n=62 v=64
262320 On ch=3 n=64 v=95
262440 Off ch=3 n=64 v=64
262440 On ch=3 n=61 v=82
262560 Off ch=3 n=61 v=64
262560 On ch=3 n=62 v=92
262680 Off ch=3 n=62 v=64
262680 On ch=3 n=64 v=92
262800 Off ch=3 n=64 v=64
262800 On ch=3 n=66 v=81
262920 Off ch=3 n=66 v=64
262920 On ch=3 n=67 v=92
263040 Off ch=3 n=67 v=64
263040 On ch=3 n=70 v=79
263160 Off ch=3 n=70 v=64
263160 On ch=3 n=66 v=80
263280 Off ch=3 n=66 v=64
263280 On ch=3 n=67 v=74
263400 Off ch=3 n=67 v=64
263400 On ch=3 n=64 v=93
263520 Off ch=3 n=64 v=64
263520 On ch=3 n=66 v=82
263640 Off ch=3 n=66 v=64
263640 On ch=3 n=62 v=90
263760 Off ch=3 n=62 v=64
263760 On ch=3 n=64 v=93
263880 Off ch=3 n=64 v=64
263880 On ch=3 n=61 v=93
264000 Off ch=3 n=61 v=64
264000 On ch=3 n=62 v=88
264120 Off ch=3 n=62 v=64
264120 On ch=3 n=54 v=100
264240 Off ch=3 n=54 v=64
264240 On ch=3 n=55 v=97
264360 Off ch=3 n=55 v=64
264360 On ch=3 n=58 v=91
264480 Off ch=3 n=58 v=64
264480 On ch=3 n=59 v=95
264600 Off ch=3 n=59 v=64
264600 On ch=3 n=55 v=78
264720 Off ch=3 n=55 v=64
264720 On ch=3 n=58 v=89
264840 Off ch=3 n=58 v=64
264840 On ch=3 n=59 v=86
264960 Off ch=3 n=59 v=64
264960 On ch=3 n=61 v=94
265080 Off ch=3 n=61 v=64
265080 On ch=3 n=62 v=93
265200 Off ch=3 n=62 v=64
265200 On ch=3 n=64 v=84
265320 Off ch=3 n=64 v=64
265320 On ch=3 n=61 v=93
265440 Off ch=3 n=61 v=64
265440 On ch=3 n=62 v=85
265560 Off ch=3 n=62 v=64
265560 On ch=3 n=64 v=82
265680 Off ch=3 n=64 v=64
265680 On ch=3 n=66 v=95
265800 Off ch=3 n=66 v=64
265800 On ch=3 n=67 v=73
265920 Off ch=3 n=67 v=64
265920 On ch=3 n=70 v=89
266040 Off ch=3 n=70 v=64
266040 On ch=3 n=66 v=84
266160 Off ch=3 n=66 v=64
266160 On ch=3 n=67 v=91
266280 Off ch=3 n=67 v=64
266280 On ch=3 n=64 v=90
266400 Off ch=3 n=64 v=64
266400 On ch=3 n=66 v=82
266520 Off ch=3 n=66 v=64
266520 On ch=3 n=62 v=88
266640 Off ch=3 n=62 v=64
266640 On ch=3 n=64 v=88
266760 Off ch=3 n=64 v=64
266760 On ch=3 n=61 v=89
266880 Off ch=3 n=61 v=64
266880 On ch=3 n=62 v=95
267000 Off ch=3 n=62 v=64
267000 On ch=3 n=54 v=84
267120 Off ch=3 n=54 v=64
267120 On ch=3 n=55 v=86
267240 Off ch=3 n=55 v=64
267240 On ch=3 n=58 v=82
267360 Off ch=3 n=58 v=64
267360 On ch=3 n=59 v=83
267480 Off ch=3 n=59 v=64
267480 On ch=3 n=55 v=88
267600 Off ch=3 n=55 v=64
267600 On ch=3 n=58 v=94
267720 Off ch=3 n=58 v=64
267720 On ch=3 n=59 v=95
267840 Off ch=3 n=59 v=64
267840 On ch=3 n=61 v=94
267960 Off ch=3 n=61 v=64
267960 On ch=3 n=62 v=95
268080 Off ch=3 n=62 v=64
268080 On ch=3 n=64 v=89
268200 Off ch=3 n=64 v=64
268200 On ch=3 n=61 v=74
268320 Off ch=3 n=61 v=64
268320 On ch=3 n=62 v=93
268440 Off ch=3 n=62 v=64
268440 On ch=3 n=64 v=77
268560 Off ch=3 n=64 v=64
268560 On ch=3 n=66 v=84
268680 Off ch=3 n=66 v=64
268680 On ch=3 n=67 v=84
268800 Off ch=3 n=67 v=64
268800 On ch=3 n=70 v=95
268920 Off ch=3 n=70 v=64
268920 On ch=3 n=66 v=95
269040 Off ch=3 n=66 v=64
269040 On ch=3 n=67 v=93
269160 Off ch=3 n=67 v=64
269160 On ch=3 n=64 v=79
269280 Off ch=3 n=64 v=64
269280 On ch=3 n=66 v=78
269400 Off ch=3 n=66 v=64
269400 On ch=3 n=62 v=82
269520 Off ch=3 n=62 v=64
269520 On ch=3 n=64 v=82
269640 Off ch=3 n=64 v=64
269640 On ch=3 n=61 v=86
269760 Off ch=3 n=61 v=64
269760 On ch=3 n=62 v=86
269880 Off ch=3 n=62 v=64
269880 On ch=3 n=64 v=90
270000 Off ch=3 n=64 v=64
270000 On ch=3 n=66 v=93
270120 Off ch=3 n=66 v=64
270120 On ch=3 n=67 v=93
270240 Off ch=3 n=67 v=64
270240 On ch=3 n=70 v=74
270360 Off ch=3 n=70 v=64
270360 On ch=3 n=66 v=92
270480 Off ch=3 n=66 v=64
270480 On ch=3 n=67 v=93
270600 Off ch=3 n=67 v=64
270600 On ch=3 n=64 v=87
270720 Off ch=3 n=64 v=64
270720 On ch=3 n=66 v=75
270840 Off ch=3 n=66 v=64
270840 On ch=3 n=67 v=77
270960 Off ch=3 n=67 v=64
270960 On ch=3 n=70 v=94
271080 Off ch=3 n=70 v=64
271080 On ch=3 n=66 v=93
271200 Off ch=3 n=66 v=64
271200 On ch=3 n=67 v=85
271320 Off ch=3 n=67 v=64
271320 On ch=3 n=70 v=95
271440 Off ch=3 n=70 v=64
271440 On ch=3 n=71 v=89
271560 Off ch=3 n=71 v=64
271560 On ch=3 n=71 v=93
271680 Off ch=3 n=71 v=64
271680 On ch=3 n=73 v=93
271800 Off ch=3 n=73 v=64
271800 On ch=3 n=71 v=90
271920 Off ch=3 n=71 v=64
271920 On ch=3 n=71 v=90
272040 Off ch=3 n=71 v=64
272040 On ch=3 n=74 v=78
272160 Off ch=3 n=74 v=64
272160 On ch=3 n=71 v=88
272280 Off ch=3 n=71 v=64
272280 On ch=3 n=71 v=95
272400 Off ch=3 n=71 v=64
272400 On ch=3 n=76 v=87
272520 Off ch=3 n=76 v=64
272520 On ch=3 n=71 v=81
272640 Off ch=3 n=71 v=64
272640 On ch=3 n=71 v=84
272760 Off ch=3 n=71 v=64
272760 On ch=3 n=78 v=94
272880 Off ch=3 n=78 v=64
272880 On ch=3 n=71 v=89
273000 Off ch=3 n=71 v=64
273000 On ch=3 n=71 v=95
273120 Off ch=3 n=71 v=64
273120 On ch=3 n=79 v=76
273240 Off ch=3 n=79 v=64
273240 On ch=3 n=71 v=82
273360 Off ch=3 n=71 v=64
273360 On ch=3 n=71 v=88
273480 Off ch=3 n=71 v=64
273480 On ch=3 n=81 v=71
273600 Off ch=3 n=81 v=64
273600 On ch=3 n=71 v=91
273720 Off ch=3 n=71 v=64
273720 On ch=3 n=71 v=91
273840 Off ch=3 n=71 v=64
273840 On ch=3 n=83 v=95
273960 Off ch=3 n=83 v=64
273960 On ch=3 n=71 v=93
274080 Off ch=3 n=71 v=64
274080 On ch=3 n=71 v=95
274200 Off ch=3 n=71 v=64
274200 On ch=3 n=85 v=84
274320 Off ch=3 n=85 v=64
274320 On ch=3 n=71 v=80
274440 Off ch=3 n=71 v=64
274440 On ch=3 n=71 v=90
274560 Off ch=3 n=71 v=64
274560 On ch=3 n=86 v=84
274680 Off ch=3 n=86 v=64
274680 On ch=3 n=71 v=90
274800 Off ch=3 n=71 v=64
274800 On ch=3 n=71 v=88
274920 Off ch=3 n=71 v=64
274920 On ch=3 n=88 v=76
275519 Pb ch=3 v=8440
275535 Pb ch=3 v=8688
275553 Pb ch=3 v=8853
275606 Pb ch=3 v=9184
276240 On ch=3 n=91 v=74
276360 Off ch=3 n=88 v=64
276539 Pb ch=3 v=9350
276736 Pb ch=3 v=9184
276786 Pb ch=3 v=9019
277080 PrCh ch=3 p=29
277080 On ch=3 n=90 v=86
277200 Off ch=3 n=91 v=64
277200 Off ch=3 n=90 v=64
277200 On ch=3 n=91 v=80
277260 Off ch=3 n=91 v=64
277260 On ch=3 n=90 v=76
277320 Off ch=3 n=90 v=64
277320 On ch=3 n=88 v=87
277440 Off ch=3 n=88 v=64
277440 On ch=3 n=90 v=76
277560 Off ch=3 n=90 v=64
277560 On ch=3 n=86 v=76
277680 Off ch=3 n=86 v=64
277680 On ch=3 n=88 v=77
277800 Off ch=3 n=88 v=64
277800 On ch=3 n=85 v=83
277920 Off ch=3 n=85 v=64
277920 On ch=3 n=86 v=76
277980 Off ch=3 n=86 v=64
277980 On ch=3 n=85 v=76
278040 Off ch=3 n=85 v=64
278040 On ch=3 n=83 v=82
278760 Off ch=3 n=83 v=64
279480 Par ch=3 c=11 v=0
279480 On ch=3 n=61 v=76
279485 Par ch=3 c=11 v=32
279490 Par ch=3 c=11 v=64
279495 Par ch=3 c=11 v=96
279500 Par ch=3 c=11 v=127
279840 Off ch=3 n=61 v=64
279960 Par ch=3 c=11 v=0
279960 On ch=3 n=66 v=77
279965 Par ch=3 c=11 v=32
279970 Par ch=3 c=11 v=64
279975 Par ch=3 c=11 v=96
279980 Par ch=3 c=11 v=127
280200 Off ch=3 n=66 v=64
280200 Par ch=3 c=11 v=0
280200 On ch=3 n=68 v=85
280205 Par ch=3 c=11 v=32
280210 Par ch=3 c=11 v=64
280215 Par ch=3 c=11 v=96
280220 Par ch=3 c=11 v=127
280440 Off ch=3 n=68 v=64
280440 Par ch=3 c=11 v=0
280440 On ch=3 n=69 v=76
280445 Par ch=3 c=11 v=32
280450 Par ch=3 c=11 v=64
280455 Par ch=3 c=11 v=96
280460 Par ch=3 c=11 v=127
280680 Off ch=3 n=69 v=64
280680 Par ch=3 c=11 v=0
280680 On ch=3 n=78 v=76
280685 Par ch=3 c=11 v=32
280690 Par ch=3 c=11 v=64
280695 Par ch=3 c=11 v=96
280700 Par ch=3 c=11 v=127
280920 Off ch=3 n=78 v=64
280920 Par ch=3 c=11 v=0
280920 On ch=3 n=76 v=76
280925 Par ch=3 c=11 v=32
280930 Par ch=3 c=11 v=64
280935 Par ch=3 c=11 v=96
280940 Par ch=3 c=11 v=127
281640 Off ch=3 n=76 v=64
281880 Par ch=3 c=11 v=0
281880 On ch=3 n=80 v=76
281885 Par ch=3 c=11 v=32
281890 Par ch=3 c=11 v=64
281895 Par ch=3 c=11 v=96
281900 Par ch=3 c=11 v=127
282120 Off ch=3 n=80 v=64
282120 Par ch=3 c=11 v=0
282120 On ch=3 n=81 v=82
282125 Par ch=3 c=11 v=32
282130 Par ch=3 c=11 v=64
282135 Par ch=3 c=11 v=96
282140 Par ch=3 c=11 v=127
282360 Off ch=3 n=81 v=64
282360 Pb ch=3 v=8192
282360 Par ch=3 c=11 v=0
282360 On ch=3 n=83 v=84
282365 Par ch=3 c=11 v=32
282370 Par ch=3 c=11 v=64
282375 Par ch=3 c=11 v=96
282377 Pb ch=3 v=12825
282380 Par ch=3 c=11 v=127
282381 Pb ch=3 v=8274
282388 Pb ch=3 v=11335
282395 Pb ch=3 v=16134
282403 Pb ch=3 v=13192
282412 Pb ch=3 v=16134
282435 Pb ch=3 v=12825
282440 Pb ch=3 v=8192
282470 Pb ch=3 v=8274
282475 Pb ch=3 v=11335
282481 Pb ch=3 v=16383
282490 Pb ch=3 v=14192
282510 Pb ch=3 v=16134
282580 Pb ch=3 v=8192
282600 Par ch=3 c=11 v=0
282605 Par ch=3 c=11 v=32
282610 Par ch=3 c=11 v=64
282615 Par ch=3 c=11 v=96
282620 Par ch=3 c=11 v=127
282720 Off ch=3 n=83 v=64
282720 Par ch=3 c=11 v=0
282720 On ch=3 n=81 v=85
282725 Par ch=3 c=11 v=32
282730 Par ch=3 c=11 v=64
282735 Par ch=3 c=11 v=96
282740 Par ch=3 c=11 v=127
282840 Off ch=3 n=81 v=64
282840 Par ch=3 c=11 v=0
282840 On ch=3 n=92 v=76
282845 Par ch=3 c=11 v=32
282850 Par ch=3 c=11 v=64
282855 Par ch=3 c=11 v=96
282860 Par ch=3 c=11 v=127
283200 Off ch=3 n=92 v=64
283320 Par ch=3 c=11 v=0
283320 On ch=3 n=93 v=84
283325 Par ch=3 c=11 v=32
283330 Par ch=3 c=11 v=64
283335 Par ch=3 c=11 v=96
283340 Par ch=3 c=11 v=127
283680 Off ch=3 n=93 v=64
283800 Par ch=3 c=11 v=0
283800 On ch=3 n=97 v=84
283805 Par ch=3 c=11 v=32
283810 Par ch=3 c=11 v=64
283815 Par ch=3 c=11 v=96
283820 Par ch=3 c=11 v=127
284520 Off ch=3 n=97 v=64
284760 Par ch=3 c=11 v=0
284760 On ch=3 n=90 v=76
284765 Par ch=3 c=11 v=32
284770 Par ch=3 c=11 v=64
284775 Par ch=3 c=11 v=96
284780 Par ch=3 c=11 v=127
285000 Off ch=3 n=90 v=64
285000 Par ch=3 c=11 v=0
285000 On ch=3 n=88 v=83
285005 Par ch=3 c=11 v=32
285010 Par ch=3 c=11 v=64
285015 Par ch=3 c=11 v=96
285020 Par ch=3 c=11 v=127
285240 Off ch=3 n=88 v=64
285240 Par ch=3 c=11 v=0
285240 On ch=3 n=86 v=76
285245 Par ch=3 c=11 v=32
285250 Par ch=3 c=11 v=64
285255 Par ch=3 c=11 v=96
285260 Par ch=3 c=11 v=127
285360 Off ch=3 n=86 v=64
285360 Par ch=3 c=11 v=0
285360 On ch=3 n=83 v=85
285365 Par ch=3 c=11 v=32
285370 Par ch=3 c=11 v=64
285375 Par ch=3 c=11 v=96
285380 Par ch=3 c=11 v=127
285480 Off ch=3 n=83 v=64
285480 Par ch=3 c=11 v=0
285480 On ch=3 n=88 v=76
285485 Par ch=3 c=11 v=32
285490 Par ch=3 c=11 v=64
285495 Par ch=3 c=11 v=96
285500 Par ch=3 c=11 v=127
285600 Off ch=3 n=88 v=64
285600 Par ch=3 c=11 v=0
285600 On ch=3 n=86 v=76
285605 Par ch=3 c=11 v=32
285610 Par ch=3 c=11 v=64
285615 Par ch=3 c=11 v=96
285620 Par ch=3 c=11 v=127
285720 Off ch=3 n=86 v=64
285720 Par ch=3 c=11 v=0
285720 On ch=3 n=85 v=82
285725 Par ch=3 c=11 v=32
285730 Par ch=3 c=11 v=64
285735 Par ch=3 c=11 v=96
285740 Par ch=3 c=11 v=127
285960 Off ch=3 n=85 v=64
285960 Par ch=3 c=11 v=0
285960 On ch=3 n=81 v=82
285965 Par ch=3 c=11 v=32
285970 Par ch=3 c=11 v=64
285975 Par ch=3 c=11 v=96
285980 Par ch=3 c=11 v=127
286080 Off ch=3 n=81 v=64
286080 Par ch=3 c=11 v=0
286080 On ch=3 n=80 v=76
286085 Par ch=3 c=11 v=32
286090 Par ch=3 c=11 v=64
286095 Par ch=3 c=11 v=96
286100 Par ch=3 c=11 v=127
286200 Off ch=3 n=80 v=64
286200 Par ch=3 c=11 v=0
286200 On ch=3 n=76 v=82
286205 Par ch=3 c=11 v=32
286210 Par ch=3 c=11 v=64
286215 Par ch=3 c=11 v=96
286220 Par ch=3 c=11 v=127
286320 Off ch=3 n=76 v=64
286320 Par ch=3 c=11 v=0
286320 On ch=3 n=78 v=83
286325 Par ch=3 c=11 v=32
286330 Par ch=3 c=11 v=64
286335 Par ch=3 c=11 v=96
286340 Par ch=3 c=11 v=127
286440 Off ch=3 n=78 v=64
286680 Par ch=3 c=11 v=0
286680 On ch=3 n=54 v=83
286685 Par ch=3 c=11 v=32
286690 Par ch=3 c=11 v=64
286695 Par ch=3 c=11 v=96
286700 Par ch=3 c=11 v=127
287040 Off ch=3 n=54 v=64
287160 Par ch=3 c=11 v=0
287160 On ch=3 n=61 v=85
287165 Par ch=3 c=11 v=32
287170 Par ch=3 c=11 v=64
287175 Par ch=3 c=11 v=96
287180 Par ch=3 c=11 v=127
287520 Off ch=3 n=61 v=64
287640 Par ch=3 c=11 v=0
287640 On ch=3 n=66 v=82
287645 Par ch=3 c=11 v=32
287650 Par ch=3 c=11 v=64
287655 Par ch=3 c=11 v=96
287660 Par ch=3 c=11 v=127
288360 Off ch=3 n=66 v=64
288600 Par ch=3 c=11 v=0
288600 On ch=3 n=69 v=86
288605 Par ch=3 c=11 v=32
288610 Par ch=3 c=11 v=64
288615 Par ch=3 c=11 v=96
288620 Par ch=3 c=11 v=127
288960 Off ch=3 n=69 v=64
289080 Par ch=3 c=11 v=0
289080 On ch=3 n=68 v=76
289085 Par ch=3 c=11 v=32
289090 Par ch=3 c=11 v=64
289095 Par ch=3 c=11 v=96
289100 Par ch=3 c=11 v=127
289320 Off ch=3 n=68 v=64
289320 Par ch=3 c=11 v=0
289320 On ch=3 n=71 v=79
289325 Par ch=3 c=11 v=32
289330 Par ch=3 c=11 v=64
289335 Par ch=3 c=11 v=96
289340 Par ch=3 c=11 v=127
289560 Off ch=3 n=71 v=64
289560 Par ch=3 c=11 v=0
289560 On ch=3 n=73 v=86
289565 Par ch=3 c=11 v=32
289570 Par ch=3 c=11 v=64
289575 Par ch=3 c=11 v=96
289580 Par ch=3 c=11 v=127
289920 Off ch=3 n=73 v=64
290040 Par ch=3 c=11 v=0
290040 On ch=3 n=71 v=87
290045 Par ch=3 c=11 v=32
290050 Par ch=3 c=11 v=64
290055 Par ch=3 c=11 v=96
290060 Par ch=3 c=11 v=127
290400 Off ch=3 n=71 v=64
290760 Par ch=3 c=11 v=0
290760 On ch=3 n=73 v=85
290765 Par ch=3 c=11 v=32
290770 Par ch=3 c=11 v=64
290775 Par ch=3 c=11 v=96
290780 Par ch=3 c=11 v=127
291000 Off ch=3 n=73 v=64
291000 Par ch=3 c=11 v=0
291000 On ch=3 n=68 v=80
291005 Par ch=3 c=11 v=32
291010 Par ch=3 c=11 v=64
291015 Par ch=3 c=11 v=96
291020 Par ch=3 c=11 v=127
291240 Off ch=3 n=68 v=64
291240 Par ch=3 c=11 v=0
291240 On ch=3 n=69 v=76
291245 Par ch=3 c=11 v=32
291250 Par ch=3 c=11 v=64
291255 Par ch=3 c=11 v=96
291260 Par ch=3 c=11 v=127
291360 Off ch=3 n=69 v=64
291360 Par ch=3 c=11 v=0
291360 On ch=3 n=71 v=77
291365 Par ch=3 c=11 v=32
291370 Par ch=3 c=11 v=64
291375 Par ch=3 c=11 v=96
291380 Par ch=3 c=11 v=127
291480 Off ch=3 n=71 v=64
291480 Par ch=3 c=11 v=0
291480 On ch=3 n=73 v=83
291485 Par ch=3 c=11 v=32
291490 Par ch=3 c=11 v=64
291495 Par ch=3 c=11 v=96
291500 Par ch=3 c=11 v=127
291600 Off ch=3 n=73 v=64
291600 Par ch=3 c=11 v=0
291600 On ch=3 n=74 v=76
291605 Par ch=3 c=11 v=32
291610 Par ch=3 c=11 v=64
291615 Par ch=3 c=11 v=96
291620 Par ch=3 c=11 v=127
291720 Off ch=3 n=74 v=64
291720 Par ch=3 c=11 v=0
291720 On ch=3 n=76 v=79
291725 Par ch=3 c=11 v=32
291730 Par ch=3 c=11 v=64
291735 Par ch=3 c=11 v=96
291740 Par ch=3 c=11 v=127
291840 Off ch=3 n=76 v=64
291840 Par ch=3 c=11 v=0
291840 On ch=3 n=78 v=82
291845 Par ch=3 c=11 v=32
291850 Par ch=3 c=11 v=64
291855 Par ch=3 c=11 v=96
291860 Par ch=3 c=11 v=127
292200 Off ch=3 n=78 v=64
292200 Par ch=3 c=11 v=0
292200 On ch=3 n=76 v=76
292205 Par ch=3 c=11 v=32
292210 Par ch=3 c=11 v=64
292215 Par ch=3 c=11 v=96
292220 Par ch=3 c=11 v=127
292320 Off ch=3 n=76 v=64
292320 Par ch=3 c=11 v=0
292320 On ch=3 n=74 v=79
292325 Par ch=3 c=11 v=32
292330 Par ch=3 c=11 v=64
292335 Par ch=3 c=11 v=96
292340 Par ch=3 c=11 v=127
292440 Off ch=3 n=74 v=64
292680 Par ch=3 c=11 v=0
292680 On ch=3 n=76 v=83
292685 Par ch=3 c=11 v=32
292690 Par ch=3 c=11 v=64
292695 Par ch=3 c=11 v=96
292700 Par ch=3 c=11 v=127
292800 Off ch=3 n=76 v=64
292800 Par ch=3 c=11 v=0
292800 On ch=3 n=74 v=82
292805 Par ch=3 c=11 v=32
292810 Par ch=3 c=11 v=64
292815 Par ch=3 c=11 v=96
292820 Par ch=3 c=11 v=127
292920 Off ch=3 n=74 v=64
292920 Par ch=3 c=11 v=0
292920 On ch=3 n=78 v=82
292925 Par ch=3 c=11 v=32
292930 Par ch=3 c=11 v=64
292935 Par ch=3 c=11 v=96
292940 Par ch=3 c=11 v=127
293160 Off ch=3 n=78 v=64
293160 Par ch=3 c=11 v=0
293160 On ch=3 n=73 v=78
293165 Par ch=3 c=11 v=32
293170 Par ch=3 c=11 v=64
293175 Par ch=3 c=11 v=96
293180 Par ch=3 c=11 v=127
293400 Off ch=3 n=73 v=64
293640 Par ch=3 c=11 v=0
293640 On ch=3 n=90 v=87
293645 Par ch=3 c=11 v=32
293650 Par ch=3 c=11 v=64
293655 Par ch=3 c=11 v=96
293660 Par ch=3 c=11 v=127
293880 Off ch=3 n=90 v=64
294120 Par ch=3 c=11 v=0
294120 On ch=3 n=88 v=77
294125 Par ch=3 c=11 v=32
294130 Par ch=3 c=11 v=64
294135 Par ch=3 c=11 v=96
294140 Par ch=3 c=11 v=127
294240 Off ch=3 n=88 v=64
294240 Par ch=3 c=11 v=0
294240 On ch=3 n=86 v=81
294245 Par ch=3 c=11 v=32
294250 Par ch=3 c=11 v=64
294255 Par ch=3 c=11 v=96
294260 Par ch=3 c=11 v=127
294360 Off ch=3 n=86 v=64
294360 Par ch=3 c=11 v=0
294360 On ch=3 n=90 v=80
294365 Par ch=3 c=11 v=32
294370 Par ch=3 c=11 v=64
294375 Par ch=3 c=11 v=96
294380 Par ch=3 c=11 v=127
294600 Off ch=3 n=90 v=64
294600 Par ch=3 c=11 v=0
294600 On ch=3 n=88 v=76
294605 Par ch=3 c=11 v=32
294610 Par ch=3 c=11 v=64
294615 Par ch=3 c=11 v=96
294620 Par ch=3 c=11 v=127
294720 Off ch=3 n=88 v=64
294720 Par ch=3 c=11 v=0
294720 On ch=3 n=86 v=86
294725 Par ch=3 c=11 v=32
294730 Par ch=3 c=11 v=64
294735 Par ch=3 c=11 v=96
294740 Par ch=3 c=11 v=127
294840 Off ch=3 n=86 v=64
294840 Par ch=3 c=11 v=0
294840 On ch=3 n=97 v=84
294845 Par ch=3 c=11 v=32
294850 Par ch=3 c=11 v=64
294855 Par ch=3 c=11 v=96
294860 Par ch=3 c=11 v=127
295080 Off ch=3 n=97 v=64
295080 Par ch=3 c=11 v=0
295080 On ch=3 n=93 v=76
295085 Par ch=3 c=11 v=32
295090 Par ch=3 c=11 v=64
295095 Par ch=3 c=11 v=96
295100 Par ch=3 c=11 v=127
295200 Off ch=3 n=93 v=64
295200 Par ch=3 c=11 v=0
295200 On ch=3 n=95 v=76
295205 Par ch=3 c=11 v=32
295210 Par ch=3 c=11 v=64
295215 Par ch=3 c=11 v=96
295220 Par ch=3 c=11 v=127
295320 Off ch=3 n=95 v=64
295320 Par ch=3 c=11 v=0
295320 On ch=3 n=95 v=76
295325 Par ch=3 c=11 v=32
295330 Par ch=3 c=11 v=64
295335 Par ch=3 c=11 v=96
295340 Par ch=3 c=11 v=127
295440 Off ch=3 n=95 v=64
295440 Par ch=3 c=11 v=0
295440 On ch=3 n=93 v=81
295445 Par ch=3 c=11 v=32
295450 Par ch=3 c=11 v=64
295455 Par ch=3 c=11 v=96
295460 Par ch=3 c=11 v=127
295560 Off ch=3 n=93 v=64
295560 Par ch=3 c=11 v=0
295560 On ch=3 n=85 v=86
295565 Par ch=3 c=11 v=32
295570 Par ch=3 c=11 v=64
295575 Par ch=3 c=11 v=96
295580 Par ch=3 c=11 v=127
295680 Off ch=3 n=85 v=64
295680 Par ch=3 c=11 v=0
295680 On ch=3 n=88 v=85
295685 Par ch=3 c=11 v=32
295690 Par ch=3 c=11 v=64
295695 Par ch=3 c=11 v=96
295700 Par ch=3 c=11 v=127
295800 Off ch=3 n=88 v=64
295800 Par ch=3 c=11 v=0
295800 On ch=3 n=83 v=82
295805 Par ch=3 c=11 v=32
295810 Par ch=3 c=11 v=64
295815 Par ch=3 c=11 v=96
295820 Par ch=3 c=11 v=127
295920 Off ch=3 n=83 v=64
295920 Par ch=3 c=11 v=0
295920 On ch=3 n=85 v=82
295925 Par ch=3 c=11 v=32
295930 Par ch=3 c=11 v=64
295935 Par ch=3 c=11 v=96
295940 Par ch=3 c=11 v=127
296040 Off ch=3 n=85 v=64
296040 Par ch=3 c=11 v=0
296040 On ch=3 n=81 v=76
296045 Par ch=3 c=11 v=32
296050 Par ch=3 c=11 v=64
296055 Par ch=3 c=11 v=96
296060 Par ch=3 c=11 v=127
296160 Off ch=3 n=81 v=64
296160 Par ch=3 c=11 v=0
296160 On ch=3 n=83 v=76
296165 Par ch=3 c=11 v=32
296170 Par ch=3 c=11 v=64
296175 Par ch=3 c=11 v=96
296180 Par ch=3 c=11 v=127
296280 Off ch=3 n=83 v=64
296280 Par ch=3 c=11 v=0
296280 On ch=3 n=78 v=76
296285 Par ch=3 c=11 v=32
296290 Par ch=3 c=11 v=64
296295 Par ch=3 c=11 v=96
296300 Par ch=3 c=11 v=127
296640 Off ch=3 n=78 v=64
296760 Par ch=3 c=11 v=0
296760 On ch=3 n=78 v=78
296765 Par ch=3 c=11 v=32
296770 Par ch=3 c=11 v=64
296775 Par ch=3 c=11 v=96
296780 Par ch=3 c=11 v=127
296880 Off ch=3 n=78 v=64
296920 Par ch=3 c=11 v=0
296920 On ch=3 n=76 v=79
296925 Par ch=3 c=11 v=32
296930 Par ch=3 c=11 v=64
296935 Par ch=3 c=11 v=96
296940 Par ch=3 c=11 v=127
297000 Off ch=3 n=76 v=64
297080 Par ch=3 c=11 v=0
297080 On ch=3 n=74 v=82
297085 Par ch=3 c=11 v=32
297090 Par ch=3 c=11 v=64
297095 Par ch=3 c=11 v=96
297100 Par ch=3 c=11 v=127
297240 Off ch=3 n=74 v=64
297240 Par ch=3 c=11 v=0
297240 On ch=3 n=78 v=79
297245 Par ch=3 c=11 v=32
297250 Par ch=3 c=11 v=64
297255 Par ch=3 c=11 v=96
297260 Par ch=3 c=11 v=127
297360 Off ch=3 n=78 v=64
297360 Par ch=3 c=11 v=0
297360 On ch=3 n=76 v=76
297365 Par ch=3 c=11 v=32
297370 Par ch=3 c=11 v=64
297375 Par ch=3 c=11 v=96
297380 Par ch=3 c=11 v=127
297480 Off ch=3 n=76 v=64
297480 Par ch=3 c=11 v=0
297480 On ch=3 n=74 v=84
297485 Par ch=3 c=11 v=32
297490 Par ch=3 c=11 v=64
297495 Par ch=3 c=11 v=96
297500 Par ch=3 c=11 v=127
297600 Off ch=3 n=74 v=64
297600 Par ch=3 c=11 v=0
297600 On ch=3 n=76 v=76
297605 Par ch=3 c=11 v=32
297610 Par ch=3 c=11 v=64
297615 Par ch=3 c=11 v=96
297620 Par ch=3 c=11 v=127
297720 Off ch=3 n=76 v=64
298680 On ch=3 n=91 v=81
299160 Off ch=3 n=91 v=64
299160 On ch=3 n=86 v=76
299320 Off ch=3 n=86 v=64
299320 On ch=3 n=90 v=76
299400 Off ch=3 n=90 v=64
299400 On ch=3 n=83 v=76
299480 Off ch=3 n=83 v=64
299480 On ch=3 n=91 v=78
299560 Off ch=3 n=91 v=64
299560 On ch=3 n=86 v=85
299640 Off ch=3 n=86 v=64
299640 On ch=3 n=90 v=76
299720 Off ch=3 n=90 v=64
299720 On ch=3 n=83 v=78
299800 Off ch=3 n=83 v=64
299800 On ch=3 n=91 v=85
299880 Off ch=3 n=91 v=64
299880 On ch=3 n=86 v=78
299960 Off ch=3 n=86 v=64
299960 On ch=3 n=90 v=82
300040 Off ch=3 n=90 v=64
300040 On ch=3 n=79 v=82
300240 Off ch=3 n=79 v=64
300240 On ch=3 n=93 v=86
300480 Off ch=3 n=93 v=64
300600 On ch=3 n=90 v=76
300840 Off ch=3 n=90 v=64
300840 On ch=3 n=91 v=85
300960 Off ch=3 n=91 v=64
300960 On ch=3 n=85 v=76
301080 Off ch=3 n=85 v=64
301080 On ch=3 n=93 v=76
301200 Off ch=3 n=93 v=64
301200 On ch=3 n=90 v=76
301320 Off ch=3 n=90 v=64
301320 On ch=3 n=91 v=76
301440 Off ch=3 n=91 v=64
301440 On ch=3 n=85 v=83
301560 Off ch=3 n=85 v=64
301560 On ch=3 n=93 v=85
301680 Off ch=3 n=93 v=64
301680 On ch=3 n=90 v=76
301800 Off ch=3 n=90 v=64
301800 On ch=3 n=91 v=76
301920 Off ch=3 n=91 v=64
301920 On ch=3 n=81 v=76
302040 Off ch=3 n=81 v=64
302040 On ch=3 n=81 v=76
302280 Off ch=3 n=81 v=64
302280 On ch=3 n=83 v=77
302520 Off ch=3 n=83 v=64
302520 On ch=3 n=85 v=77
302760 Off ch=3 n=85 v=64
302760 On ch=3 n=86 v=78
303000 Off ch=3 n=86 v=64
303000 On ch=3 n=95 v=76
303240 Off ch=3 n=95 v=64
303240 On ch=3 n=92 v=79
303360 Off ch=3 n=92 v=64
303360 On ch=3 n=94 v=79
303600 Off ch=3 n=94 v=64
303720 On ch=3 n=86 v=83
303840 Off ch=3 n=86 v=64
303840 On ch=3 n=90 v=85
303960 On ch=3 n=97 v=87
304080 Off ch=3 n=90 v=64
304080 Off ch=3 n=97 v=64
304080 On ch=3 n=93 v=76
304200 Off ch=3 n=93 v=64
304200 On ch=3 n=95 v=76
304320 Off ch=3 n=95 v=64
304320 On ch=3 n=90 v=76
304440 Off ch=3 n=90 v=64
304440 On ch=3 n=97 v=82
304560 Off ch=3 n=97 v=64
304560 On ch=3 n=93 v=79
304680 Off ch=3 n=93 v=64
304680 On ch=3 n=95 v=76
304800 Off ch=3 n=95 v=64
304800 On ch=3 n=90 v=85
304920 Off ch=3 n=90 v=64
304920 On ch=3 n=89 v=84
305640 Off ch=3 n=89 v=64
305880 Par ch=3 c=11 v=0
305880 On ch=3 n=77 v=76
305885 Par ch=3 c=11 v=16
305890 Par ch=3 c=11 v=32
305895 Par ch=3 c=11 v=48
305900 Par ch=3 c=11 v=64
305905 Par ch=3 c=11 v=80
305910 Par ch=3 c=11 v=96
305915 Par ch=3 c=11 v=112
305920 Par ch=3 c=11 v=127
306120 Off ch=3 n=77 v=64
306120 Par ch=3 c=11 v=0
306120 On ch=3 n=81 v=86
306125 Par ch=3 c=11 v=16
306130 Par ch=3 c=11 v=32
306135 Par ch=3 c=11 v=48
306140 Par ch=3 c=11 v=64
306145 Par ch=3 c=11 v=80
306150 Par ch=3 c=11 v=96
306155 Par ch=3 c=11 v=112
306160 Par ch=3 c=11 v=127
306360 Off ch=3 n=81 v=64
306360 Par ch=3 c=11 v=0
306360 On ch=3 n=74 v=79
306365 Par ch=3 c=11 v=16
306370 Par ch=3 c=11 v=32
306375 Par ch=3 c=11 v=48
306380 Par ch=3 c=11 v=64
306385 Par ch=3 c=11 v=80
306390 Par ch=3 c=11 v=96
306395 Par ch=3 c=11 v=112
306400 Par ch=3 c=11 v=127
306600 Off ch=3 n=74 v=64
306600 Par ch=3 c=11 v=0
306600 On ch=3 n=77 v=76
306605 Par ch=3 c=11 v=16
306610 Par ch=3 c=11 v=32
306615 Par ch=3 c=11 v=48
306620 Par ch=3 c=11 v=64
306625 Par ch=3 c=11 v=80
306630 Par ch=3 c=11 v=96
306635 Par ch=3 c=11 v=112
306640 Par ch=3 c=11 v=127
306840 Off ch=3 n=77 v=64
306840 Par ch=3 c=11 v=0
306840 On ch=3 n=70 v=76
306845 Par ch=3 c=11 v=16
306850 Par ch=3 c=11 v=32
306855 Par ch=3 c=11 v=48
306860 Par ch=3 c=11 v=64
306865 Par ch=3 c=11 v=80
306870 Par ch=3 c=11 v=96
306875 Par ch=3 c=11 v=112
306880 Par ch=3 c=11 v=127
307080 Off ch=3 n=70 v=64
307080 Par ch=3 c=11 v=0
307080 On ch=3 n=72 v=86
307085 Par ch=3 c=11 v=16
307090 Par ch=3 c=11 v=32
307095 Par ch=3 c=11 v=48
307100 Par ch=3 c=11 v=64
307105 Par ch=3 c=11 v=80
307110 Par ch=3 c=11 v=96
307115 Par ch=3 c=11 v=112
307120 Par ch=3 c=11 v=127
307320 Off ch=3 n=72 v=64
307320 Par ch=3 c=11 v=0
307320 On ch=3 n=65 v=76
307325 Par ch=3 c=11 v=16
307330 Par ch=3 c=11 v=32
307335 Par ch=3 c=11 v=48
307340 Par ch=3 c=11 v=64
307345 Par ch=3 c=11 v=80
307350 Par ch=3 c=11 v=96
307355 Par ch=3 c=11 v=112
307360 Par ch=3 c=11 v=127
307560 Off ch=3 n=65 v=64
307560 Par ch=3 c=11 v=0
307560 On ch=3 n=67 v=76
307565 Par ch=3 c=11 v=16
307570 Par ch=3 c=11 v=32
307575 Par ch=3 c=11 v=48
307580 Par ch=3 c=11 v=64
307585 Par ch=3 c=11 v=80
307590 Par ch=3 c=11 v=96
307595 Par ch=3 c=11 v=112
307600 Par ch=3 c=11 v=127
307800 Off ch=3 n=67 v=64
307800 Par ch=3 c=11 v=0
307800 On ch=3 n=74 v=85
307805 Par ch=3 c=11 v=16
307810 Par ch=3 c=11 v=32
307815 Par ch=3 c=11 v=48
307820 Par ch=3 c=11 v=64
307825 Par ch=3 c=11 v=80
307830 Par ch=3 c=11 v=96
307835 Par ch=3 c=11 v=112
307840 Par ch=3 c=11 v=127
309720 Off ch=3 n=74 v=64
309720 Par ch=3 c=11 v=0
309720 On ch=3 n=81 v=86
309720 On ch=3 n=77 v=76
309720 On ch=3 n=74 v=81
309720 On ch=3 n=70 v=84
309725 Par ch=3 c=11 v=8
309730 Par ch=3 c=11 v=16
309735 Par ch=3 c=11 v=24
309740 Par ch=3 c=11 v=32
309745 Par ch=3 c=11 v=40
309750 Par ch=3 c=11 v=48
309755 Par ch=3 c=11 v=56
309760 Par ch=3 c=11 v=64
309765 Par ch=3 c=11 v=72
309770 Par ch=3 c=11 v=80
309775 Par ch=3 c=11 v=88
309780 Par ch=3 c=11 v=96
309785 Par ch=3 c=11 v=104
309790 Par ch=3 c=11 v=112
309795 Par ch=3 c=11 v=120
309800 Par ch=3 c=11 v=127
310680 Off ch=3 n=81 v=64
310680 Off ch=3 n=70 v=64
310680 Off ch=3 n=74 v=64
310680 Off ch=3 n=77 v=64
310680 Par ch=3 c=11 v=0
310680 On ch=3 n=81 v=87
310680 On ch=3 n=75 v=76
310680 On ch=3 n=74 v=80
310680 On ch=3 n=69 v=83
310685 Par ch=3 c=11 v=8
310690 Par ch=3 c=11 v=16
310695 Par ch=3 c=11 v=24
310700 Par ch=3 c=11 v=32
310705 Par ch=3 c=11 v=40
310710 Par ch=3 c=11 v=48
310715 Par ch=3 c=11 v=56
310720 Par ch=3 c=11 v=64
310725 Par ch=3 c=11 v=72
310730 Par ch=3 c=11 v=80
310735 Par ch=3 c=11 v=88
310740 Par ch=3 c=11 v=96
310745 Par ch=3 c=11 v=104
310750 Par ch=3 c=11 v=112
310755 Par ch=3 c=11 v=120
310760 Par ch=3 c=11 v=127
311640 Off ch=3 n=81 v=64
311640 Off ch=3 n=69 v=64
311640 Off ch=3 n=74 v=64
311640 Off ch=3 n=75 v=64
311640 Par ch=3 c=11 v=0
311640 On ch=3 n=86 v=80
311640 On ch=3 n=79 v=85
311640 On ch=3 n=75 v=78
311645 Par ch=3 c=11 v=8
311650 Par ch=3 c=11 v=16
311655 Par ch=3 c=11 v=24
311660 Par ch=3 c=11 v=32
311665 Par ch=3 c=11 v=40
311670 Par ch=3 c=11 v=48
311675 Par ch=3 c=11 v=56
311680 Par ch=3 c=11 v=64
311685 Par ch=3 c=11 v=72
311690 Par ch=3 c=11 v=80
311695 Par ch=3 c=11 v=88
311700 Par ch=3 c=11 v=96
311705 Par ch=3 c=11 v=104
311710 Par ch=3 c=11 v=112
311715 Par ch=3 c=11 v=120
311720 Par ch=3 c=11 v=127
312120 Off ch=3 n=86 v=64
312120 Off ch=3 n=75 v=64
312120 Off ch=3 n=79 v=64
312120 Par ch=3 c=11 v=0
312120 On ch=3 n=84 v=76
312120 On ch=3 n=75 v=80
312120 On ch=3 n=74 v=87
312125 Par ch=3 c=11 v=8
312130 Par ch=3 c=11 v=16
312135 Par ch=3 c=11 v=24
312140 Par ch=3 c=11 v=32
312145 Par ch=3 c=11 v=40
312150 Par ch=3 c=11 v=48
312155 Par ch=3 c=11 v=56
312160 Par ch=3 c=11 v=64
312165 Par ch=3 c=11 v=72
312170 Par ch=3 c=11 v=80
312175 Par ch=3 c=11 v=88
312180 Par ch=3 c=11 v=96
312185 Par ch=3 c=11 v=104
312190 Par ch=3 c=11 v=112
312195 Par ch=3 c=11 v=120
312200 Par ch=3 c=11 v=127
312480 Par ch=3 c=11 v=0
312485 Par ch=3 c=11 v=32
312490 Par ch=3 c=11 v=64
312495 Par ch=3 c=11 v=96
312500 Par ch=3 c=11 v=127
312600 Off ch=3 n=84 v=64
312600 Off ch=3 n=74 v=64
312600 Off ch=3 n=75 v=64
312600 On ch=3 n=67 v=88
312680 On ch=3 n=62 v=72
312760 On ch=3 n=55 v=64
312840 On ch=3 n=51 v=84
313440 Off ch=3 n=67 v=64
313440 Off ch=3 n=51 v=64
313440 Off ch=3 n=55 v=64
313440 Off ch=3 n=62 v=64
313560 Par ch=3 c=11 v=0
313560 On ch=3 n=82 v=85
313560 On ch=3 n=77 v=84
313560 On ch=3 n=75 v=85
313560 On ch=3 n=68 v=78
313560 On ch=3 n=65 v=76
313560 On ch=3 n=58 v=76
313565 Par ch=3 c=11 v=8
313570 Par ch=3 c=11 v=16
313575 Par ch=3 c=11 v=24
313580 Par ch=3 c=11 v=32
313585 Par ch=3 c=11 v=40
313590 Par ch=3 c=11 v=48
313595 Par ch=3 c=11 v=56
313600 Par ch=3 c=11 v=64
313605 Par ch=3 c=11 v=72
313610 Par ch=3 c=11 v=80
313615 Par ch=3 c=11 v=88
313620 Par ch=3 c=11 v=96
313625 Par ch=3 c=11 v=104
313630 Par ch=3 c=11 v=112
313635 Par ch=3 c=11 v=120
313640 Par ch=3 c=11 v=127
314520 Off ch=3 n=82 v=64
314520 Off ch=3 n=58 v=64
314520 Off ch=3 n=65 v=64
314520 Off ch=3 n=68 v=64
314520 Off ch=3 n=75 v=64
314520 Off ch=3 n=77 v=64
314520 Par ch=3 c=11 v=0
314520 On ch=3 n=86 v=85
314520 On ch=3 n=81 v=76
314520 On ch=3 n=79 v=76
314520 On ch=3 n=72 v=81
314520 On ch=3 n=68 v=76
314520 On ch=3 n=62 v=78
314525 Par ch=3 c=11 v=8
314530 Par ch=3 c=11 v=16
314535 Par ch=3 c=11 v=24
314540 Par ch=3 c=11 v=32
314545 Par ch=3 c=11 v=40
314550 Par ch=3 c=11 v=48
314555 Par ch=3 c=11 v=56
314560 Par ch=3 c=11 v=64
314565 Par ch=3 c=11 v=72
314570 Par ch=3 c=11 v=80
314575 Par ch=3 c=11 v=88
314580 Par ch=3 c=11 v=96
314585 Par ch=3 c=11 v=104
314590 Par ch=3 c=11 v=112
314595 Par ch=3 c=11 v=120
314600 Par ch=3 c=11 v=127
315480 Off ch=3 n=86 v=64
315480 Off ch=3 n=62 v=64
315480 Off ch=3 n=68 v=64
315480 Off ch=3 n=72 v=64
315480 Off ch=3 n=79 v=64
315480 Off ch=3 n=81 v=64
315480 Par ch=3 c=11 v=0
315480 On ch=3 n=84 v=80
315480 On ch=3 n=79 v=77
315480 On ch=3 n=77 v=79
315480 On ch=3 n=70 v=76
315480 On ch=3 n=67 v=79
315480 On ch=3 n=60 v=85
315485 Par ch=3 c=11 v=8
315490 Par ch=3 c=11 v=16
315495 Par ch=3 c=11 v=24
315500 Par ch=3 c=11 v=32
315505 Par ch=3 c=11 v=40
315510 Par ch=3 c=11 v=48
315515 Par ch=3 c=11 v=56
315520 Par ch=3 c=11 v=64
315525 Par ch=3 c=11 v=72
315530 Par ch=3 c=11 v=80
315535 Par ch=3 c=11 v=88
315540 Par ch=3 c=11 v=96
315545 Par ch=3 c=11 v=104
315550 Par ch=3 c=11 v=112
315555 Par ch=3 c=11 v=120
315560 Par ch=3 c=11 v=127
315960 Off ch=3 n=84 v=64
315960 Off ch=3 n=60 v=64
315960 Off ch=3 n=67 v=64
315960 Off ch=3 n=70 v=64
315960 Off ch=3 n=77 v=64
315960 Off ch=3 n=79 v=64
315960 Par ch=3 c=11 v=0
315960 On ch=3 n=87 v=76
315960 On ch=3 n=82 v=76
315960 On ch=3 n=81 v=82
315960 On ch=3 n=73 v=82
315960 On ch=3 n=70 v=76
315960 On ch=3 n=63 v=80
315965 Par ch=3 c=11 v=8
315970 Par ch=3 c=11 v=16
315975 Par ch=3 c=11 v=24
315980 Par ch=3 c=11 v=32
315985 Par ch=3 c=11 v=40
315990 Par ch=3 c=11 v=48
315995 Par ch=3 c=11 v=56
316000 Par ch=3 c=11 v=64
316005 Par ch=3 c=11 v=72
316010 Par ch=3 c=11 v=80
316015 Par ch=3 c=11 v=88
316020 Par ch=3 c=11 v=96
316025 Par ch=3 c=11 v=104
316030 Par ch=3 c=11 v=112
316035 Par ch=3 c=11 v=120
316040 Par ch=3 c=11 v=127
317400 Off ch=3 n=87 v=64
317400 Off ch=3 n=63 v=64
317400 Off ch=3 n=70 v=64
317400 Off ch=3 n=73 v=64
317400 Off ch=3 n=81 v=64
317400 Off ch=3 n=82 v=64
317400 Par ch=3 c=11 v=0
317400 On ch=3 n=82 v=80
317400 On ch=3 n=77 v=81
317400 On ch=3 n=75 v=76
317400 On ch=3 n=68 v=77
317400 On ch=3 n=65 v=80
317400 On ch=3 n=58 v=77
317405 Par ch=3 c=11 v=8
317410 Par ch=3 c=11 v=16
317415 Par ch=3 c=11 v=24
317420 Par ch=3 c=11 v=32
317425 Par ch=3 c=11 v=40
317430 Par ch=3 c=11 v=48
317435 Par ch=3 c=11 v=56
317440 Par ch=3 c=11 v=64
317445 Par ch=3 c=11 v=72
317450 Par ch=3 c=11 v=80
317455 Par ch=3 c=11 v=88
317460 Par ch=3 c=11 v=96
317465 Par ch=3 c=11 v=104
317470 Par ch=3 c=11 v=112
317475 Par ch=3 c=11 v=120
317480 Par ch=3 c=11 v=127
318360 Off ch=3 n=82 v=64
318360 Off ch=3 n=58 v=64
318360 Off ch=3 n=65 v=64
318360 Off ch=3 n=68 v=64
318360 Off ch=3 n=75 v=64
318360 Off ch=3 n=77 v=64
318360 Par ch=3 c=11 v=0
318360 On ch=3 n=86 v=77
318360 On ch=3 n=81 v=81
318360 On ch=3 n=79 v=76
318360 On ch=3 n=72 v=87
318360 On ch=3 n=68 v=78
318360 On ch=3 n=62 v=83
318365 Par ch=3 c=11 v=8
318370 Par ch=3 c=11 v=16
318375 Par ch=3 c=11 v=24
318380 Par ch=3 c=11 v=32
318385 Par ch=3 c=11 v=40
318390 Par ch=3 c=11 v=48
318395 Par ch=3 c=11 v=56
318400 Par ch=3 c=11 v=64
318405 Par ch=3 c=11 v=72
318410 Par ch=3 c=11 v=80
318415 Par ch=3 c=11 v=88
318420 Par ch=3 c=11 v=96
318425 Par ch=3 c=11 v=104
318430 Par ch=3 c=11 v=112
318435 Par ch=3 c=11 v=120
318440 Par ch=3 c=11 v=127
318600 Off ch=3 n=86 v=64
318600 Off ch=3 n=62 v=64
318600 Off ch=3 n=68 v=64
318600 Off ch=3 n=72 v=64
318600 Off ch=3 n=79 v=64
318600 Off ch=3 n=81 v=64
318600 Par ch=3 c=11 v=0
318600 On ch=3 n=81 v=76
318600 On ch=3 n=82 v=84
318600 On ch=3 n=87 v=78
318600 On ch=3 n=73 v=76
318600 On ch=3 n=70 v=83
318600 On ch=3 n=62 v=83
318605 Par ch=3 c=11 v=8
318610 Par ch=3 c=11 v=16
318615 Par ch=3 c=11 v=24
318620 Par ch=3 c=11 v=32
318625 Par ch=3 c=11 v=40
318630 Par ch=3 c=11 v=48
318635 Par ch=3 c=11 v=56
318640 Par ch=3 c=11 v=64
318645 Par ch=3 c=11 v=72
318650 Par ch=3 c=11 v=80
318655 Par ch=3 c=11 v=88
318660 Par ch=3 c=11 v=96
318665 Par ch=3 c=11 v=104
318670 Par ch=3 c=11 v=112
318675 Par ch=3 c=11 v=120
318680 Par ch=3 c=11 v=127
318840 Off ch=3 n=81 v=64
318840 Off ch=3 n=62 v=64
318840 Off ch=3 n=70 v=64
318840 Off ch=3 n=73 v=64
318840 Off ch=3 n=87 v=64
318840 Off ch=3 n=82 v=64
318840 Par ch=3 c=11 v=0
318840 On ch=3 n=77 v=87
318840 On ch=3 n=72 v=76
318840 On ch=3 n=70 v=81
318840 On ch=3 n=63 v=85
318840 On ch=3 n=60 v=78
318840 On ch=3 n=53 v=77
318845 Par ch=3 c=11 v=8
318850 Par ch=3 c=11 v=16
318855 Par ch=3 c=11 v=24
318860 Par ch=3 c=11 v=32
318865 Par ch=3 c=11 v=40
318870 Par ch=3 c=11 v=48
318875 Par ch=3 c=11 v=56
318880 Par ch=3 c=11 v=64
318885 Par ch=3 c=11 v=72
318890 Par ch=3 c=11 v=80
318895 Par ch=3 c=11 v=88
318900 Par ch=3 c=11 v=96
318905 Par ch=3 c=11 v=104
318910 Par ch=3 c=11 v=112
318915 Par ch=3 c=11 v=120
318920 Par ch=3 c=11 v=127
319320 Off ch=3 n=77 v=64
319320 Off ch=3 n=53 v=64
319320 Off ch=3 n=60 v=64
319320 Off ch=3 n=63 v=64
319320 Off ch=3 n=70 v=64
319320 Off ch=3 n=72 v=64
319320 Par ch=3 c=11 v=0
319320 On ch=3 n=68 v=85
319320 On ch=3 n=73 v=84
319320 On ch=3 n=77 v=81
319320 On ch=3 n=61 v=87
319325 Par ch=3 c=11 v=8
319330 Par ch=3 c=11 v=16
319335 Par ch=3 c=11 v=24
319340 Par ch=3 c=11 v=32
319345 Par ch=3 c=11 v=40
319350 Par ch=3 c=11 v=48
319355 Par ch=3 c=11 v=56
319360 Par ch=3 c=11 v=64
319365 Par ch=3 c=11 v=72
319370 Par ch=3 c=11 v=80
319375 Par ch=3 c=11 v=88
319380 Par ch=3 c=11 v=96
319385 Par ch=3 c=11 v=104
319390 Par ch=3 c=11 v=112
319395 Par ch=3 c=11 v=120
319400 Par ch=3 c=11 v=127
319680 Off ch=3 n=68 v=64
319680 Off ch=3 n=61 v=64
319680 Off ch=3 n=77 v=64
319680 Off ch=3 n=73 v=64
319680 Par ch=3 c=11 v=0
319680 On ch=3 n=54 v=80
319680 On ch=3 n=61 v=76
319680 On ch=3 n=66 v=79
319680 On ch=3 n=70 v=76
319680 On ch=3 n=73 v=86
319680 On ch=3 n=78 v=76
319685 Par ch=3 c=11 v=8
319690 Par ch=3 c=11 v=16
319695 Par ch=3 c=11 v=24
319700 Par ch=3 c=11 v=32
319705 Par ch=3 c=11 v=40
319710 Par ch=3 c=11 v=48
319715 Par ch=3 c=11 v=56
319720 Par ch=3 c=11 v=64
319725 Par ch=3 c=11 v=72
319730 Par ch=3 c=11 v=80
319735 Par ch=3 c=11 v=88
319740 Par ch=3 c=11 v=96
319745 Par ch=3 c=11 v=104
319750 Par ch=3 c=11 v=112
319755 Par ch=3 c=11 v=120
319760 Par ch=3 c=11 v=127
320040 Off ch=3 n=54 v=64
320040 Off ch=3 n=78 v=64
320040 Off ch=3 n=73 v=64
320040 Off ch=3 n=70 v=64
320040 Off ch=3 n=66 v=64
320040 Off ch=3 n=61 v=64
320040 Par ch=3 c=11 v=0
320040 On ch=3 n=80 v=76
320040 On ch=3 n=75 v=76
320040 On ch=3 n=72 v=76
320040 On ch=3 n=68 v=81
320040 On ch=3 n=63 v=83
320040 On ch=3 n=56 v=76
320045 Par ch=3 c=11 v=8
320050 Par ch=3 c=11 v=16
320055 Par ch=3 c=11 v=24
320060 Par ch=3 c=11 v=32
320065 Par ch=3 c=11 v=40
320070 Par ch=3 c=11 v=48
320075 Par ch=3 c=11 v=56
320080 Par ch=3 c=11 v=64
320085 Par ch=3 c=11 v=72
320090 Par ch=3 c=11 v=80
320095 Par ch=3 c=11 v=88
320100 Par ch=3 c=11 v=96
320105 Par ch=3 c=11 v=104
320110 Par ch=3 c=11 v=112
320115 Par ch=3 c=11 v=120
320120 Par ch=3 c=11 v=127
321240 Off ch=3 n=80 v=64
321240 Off ch=3 n=56 v=64
321240 Off ch=3 n=63 v=64
321240 Off ch=3 n=68 v=64
321240 Off ch=3 n=72 v=64
321240 Off ch=3 n=75 v=64
321240 Par ch=3 c=11 v=0
321240 On ch=3 n=77 v=76
321240 On ch=3 n=73 v=76
321240 On ch=3 n=68 v=84
321240 On ch=3 n=61 v=79
321245 Par ch=3 c=11 v=8
321250 Par ch=3 c=11 v=16
321255 Par ch=3 c=11 v=24
321260 Par ch=3 c=11 v=32
321265 Par ch=3 c=11 v=40
321270 Par ch=3 c=11 v=48
321275 Par ch=3 c=11 v=56
321280 Par ch=3 c=11 v=64
321285 Par ch=3 c=11 v=72
321290 Par ch=3 c=11 v=80
321295 Par ch=3 c=11 v=88
321300 Par ch=3 c=11 v=96
321305 Par ch=3 c=11 v=104
321310 Par ch=3 c=11 v=112
321315 Par ch=3 c=11 v=120
321320 Par ch=3 c=11 v=127
321600 Off ch=3 n=77 v=64
321600 Off ch=3 n=61 v=64
321600 Off ch=3 n=68 v=64
321600 Off ch=3 n=73 v=64
321600 Par ch=3 c=11 v=0
321600 On ch=3 n=54 v=77
321600 On ch=3 n=61 v=76
321600 On ch=3 n=66 v=78
321600 On ch=3 n=70 v=79
321600 On ch=3 n=73 v=78
321600 On ch=3 n=78 v=85
321605 Par ch=3 c=11 v=8
321610 Par ch=3 c=11 v=16
321615 Par ch=3 c=11 v=24
321620 Par ch=3 c=11 v=32
321625 Par ch=3 c=11 v=40
321630 Par ch=3 c=11 v=48
321635 Par ch=3 c=11 v=56
321640 Par ch=3 c=11 v=64
321645 Par ch=3 c=11 v=72
321650 Par ch=3 c=11 v=80
321655 Par ch=3 c=11 v=88
321660 Par ch=3 c=11 v=96
321665 Par ch=3 c=11 v=104
321670 Par ch=3 c=11 v=112
321675 Par ch=3 c=11 v=120
321680 Par ch=3 c=11 v=127
321960 Off ch=3 n=54 v=64
321960 Off ch=3 n=78 v=64
321960 Off ch=3 n=73 v=64
321960 Off ch=3 n=70 v=64
321960 Off ch=3 n=66 v=64
321960 Off ch=3 n=61 v=64
321960 Par ch=3 c=11 v=0
321960 On ch=3 n=80 v=76
321960 On ch=3 n=75 v=86
321960 On ch=3 n=72 v=76
321960 On ch=3 n=68 v=82
321960 On ch=3 n=63 v=76
321960 On ch=3 n=56 v=76
321965 Par ch=3 c=11 v=8
321970 Par ch=3 c=11 v=16
321975 Par ch=3 c=11 v=24
321980 Par ch=3 c=11 v=32
321985 Par ch=3 c=11 v=40
321990 Par ch=3 c=11 v=48
321995 Par ch=3 c=11 v=56
322000 Par ch=3 c=11 v=64
322005 Par ch=3 c=11 v=72
322010 Par ch=3 c=11 v=80
322015 Par ch=3 c=11 v=88
322020 Par ch=3 c=11 v=96
322025 Par ch=3 c=11 v=104
322030 Par ch=3 c=11 v=112
322035 Par ch=3 c=11 v=120
322040 Par ch=3 c=11 v=127
323160 Off ch=3 n=80 v=64
323160 Off ch=3 n=56 v=64
323160 Off ch=3 n=63 v=64
323160 Off ch=3 n=68 v=64
323160 Off ch=3 n=72 v=64
323160 Off ch=3 n=75 v=64
323160 Par ch=3 c=11 v=0
323160 On ch=3 n=58 v=78
323160 On ch=3 n=65 v=84
323160 On ch=3 n=68 v=87
323160 On ch=3 n=75 v=78
323160 On ch=3 n=77 v=87
323160 On ch=3 n=82 v=77
323165 Par ch=3 c=11 v=8
323170 Par ch=3 c=11 v=16
323175 Par ch=3 c=11 v=24
323180 Par ch=3 c=11 v=32
323185 Par ch=3 c=11 v=40
323190 Par ch=3 c=11 v=48
323195 Par ch=3 c=11 v=56
323200 Par ch=3 c=11 v=64
323205 Par ch=3 c=11 v=72
323210 Par ch=3 c=11 v=80
323215 Par ch=3 c=11 v=88
323220 Par ch=3 c=11 v=96
323225 Par ch=3 c=11 v=104
323230 Par ch=3 c=11 v=112
323235 Par ch=3 c=11 v=120
323240 Par ch=3 c=11 v=127
324120 Off ch=3 n=58 v=64
324120 Off ch=3 n=82 v=64
324120 Off ch=3 n=77 v=64
324120 Off ch=3 n=75 v=64
324120 Off ch=3 n=68 v=64
324120 Off ch=3 n=65 v=64
324120 Par ch=3 c=11 v=0
324120 On ch=3 n=58 v=76
324120 On ch=3 n=65 v=76
324120 On ch=3 n=68 v=84
324120 On ch=3 n=75 v=82
324120 On ch=3 n=77 v=77
324120 On ch=3 n=82 v=79
324125 Par ch=3 c=11 v=8
324130 Par ch=3 c=11 v=16
324135 Par ch=3 c=11 v=24
324140 Par ch=3 c=11 v=32
324145 Par ch=3 c=11 v=40
324150 Par ch=3 c=11 v=48
324155 Par ch=3 c=11 v=56
324160 Par ch=3 c=11 v=64
324165 Par ch=3 c=11 v=72
324170 Par ch=3 c=11 v=80
324175 Par ch=3 c=11 v=88
324180 Par ch=3 c=11 v=96
324185 Par ch=3 c=11 v=104
324190 Par ch=3 c=11 v=112
324195 Par ch=3 c=11 v=120
324200 Par ch=3 c=11 v=127
325080 Off ch=3 n=58 v=64
325080 Off ch=3 n=82 v=64
325080 Off ch=3 n=77 v=64
325080 Off ch=3 n=75 v=64
325080 Off ch=3 n=68 v=64
325080 Off ch=3 n=65 v=64
325080 Par ch=3 c=11 v=0
325080 On ch=3 n=61 v=83
325080 On ch=3 n=56 v=83
325080 On ch=3 n=77 v=79
325080 On ch=3 n=68 v=87
325080 On ch=3 n=73 v=85
325085 Par ch=3 c=11 v=8
325090 Par ch=3 c=11 v=16
325095 Par ch=3 c=11 v=24
325100 Par ch=3 c=11 v=32
325105 Par ch=3 c=11 v=40
325110 Par ch=3 c=11 v=48
325115 Par ch=3 c=11 v=56
325120 Par ch=3 c=11 v=64
325125 Par ch=3 c=11 v=72
325130 Par ch=3 c=11 v=80
325135 Par ch=3 c=11 v=88
325140 Par ch=3 c=11 v=96
325145 Par ch=3 c=11 v=104
325150 Par ch=3 c=11 v=112
325155 Par ch=3 c=11 v=120
325160 Par ch=3 c=11 v=127
325560 Off ch=3 n=61 v=64
325560 Off ch=3 n=73 v=64
325560 Off ch=3 n=68 v=64
325560 Off ch=3 n=77 v=64
325560 Off ch=3 n=56 v=64
325560 Par ch=3 c=11 v=0
325560 On ch=3 n=76 v=77
325560 On ch=3 n=72 v=79
325560 On ch=3 n=68 v=85
325560 On ch=3 n=64 v=78
325560 On ch=3 n=60 v=78
325565 Par ch=3 c=11 v=8
325570 Par ch=3 c=11 v=16
325575 Par ch=3 c=11 v=24
325580 Par ch=3 c=11 v=32
325585 Par ch=3 c=11 v=40
325590 Par ch=3 c=11 v=48
325595 Par ch=3 c=11 v=56
325600 Par ch=3 c=11 v=64
325605 Par ch=3 c=11 v=72
325610 Par ch=3 c=11 v=80
325615 Par ch=3 c=11 v=88
325620 Par ch=3 c=11 v=96
325625 Par ch=3 c=11 v=104
325630 Par ch=3 c=11 v=112
325635 Par ch=3 c=11 v=120
325640 Par ch=3 c=11 v=127
327000 Off ch=3 n=76 v=64
327000 Off ch=3 n=60 v=64
327000 Off ch=3 n=64 v=64
327000 Off ch=3 n=68 v=64
327000 Off ch=3 n=72 v=64
346320 On ch=3 n=76 v=96
346320 On ch=3 n=71 v=96
346320 On ch=3 n=67 v=96
346320 On ch=3 n=64 v=96
346320 On ch=3 n=59 v=96
346320 On ch=3 n=52 v=96
346440 Off ch=3 n=76 v=64
346440 Off ch=3 n=52 v=64
346440 Off ch=3 n=59 v=64
346440 Off ch=3 n=64 v=64
346440 Off ch=3 n=67 v=64
346440 Off ch=3 n=71 v=64
346440 On ch=3 n=76 v=96
346440 On ch=3 n=71 v=96
346440 On ch=3 n=67 v=96
346440 On ch=3 n=64 v=96
346440 On ch=3 n=59 v=96
346440 On ch=3 n=52 v=96
346560 Off ch=3 n=76 v=64
346560 Off ch=3 n=52 v=64
346560 Off ch=3 n=59 v=64
346560 Off ch=3 n=64 v=64
346560 Off ch=3 n=67 v=64
346560 Off ch=3 n=71 v=64
346560 On ch=3 n=76 v=96
346560 On ch=3 n=71 v=96
346560 On ch=3 n=67 v=96
346560 On ch=3 n=64 v=96
346560 On ch=3 n=59 v=96
346560 On ch=3 n=52 v=96
346680 Off ch=3 n=76 v=64
346680 Off ch=3 n=52 v=64
346680 Off ch=3 n=59 v=64
346680 Off ch=3 n=64 v=64
346680 Off ch=3 n=67 v=64
346680 Off ch=3 n=71 v=64
346680 Pb ch=3 v=8109
346680 Par ch=3 c=1 v=2
346680 On ch=3 n=76 v=102
346680 On ch=3 n=71 v=96
346680 On ch=3 n=68 v=99
346680 On ch=3 n=64 v=99
346680 On ch=3 n=59 v=92
346680 On ch=3 n=52 v=92
346702 Par ch=3 c=1 v=2
346702 Pb ch=3 v=7943
346710 Pb ch=3 v=8109
346724 Pb ch=3 v=7943
346724 Par ch=3 c=1 v=4
347009 Par ch=3 c=1 v=4
347040 Off ch=3 n=76 v=64
347040 Off ch=3 n=52 v=64
347040 Off ch=3 n=59 v=64
347040 Off ch=3 n=64 v=64
347040 Off ch=3 n=68 v=64
347040 Off ch=3 n=71 v=64
347040 On ch=3 n=79 v=98
347040 On ch=3 n=74 v=93
347040 On ch=3 n=69 v=100
347294 Par ch=3 c=1 v=4
347400 Off ch=3 n=79 v=64
347400 Off ch=3 n=69 v=64
347400 Off ch=3 n=74 v=64
347640 On ch=3 n=76 v=92
347640 On ch=3 n=71 v=88
347640 On ch=3 n=68 v=88
347640 On ch=3 n=64 v=91
347640 On ch=3 n=59 v=100
347640 On ch=3 n=52 v=93
347863 Par ch=3 c=1 v=2
348120 On ch=3 n=81 v=91
348120 On ch=3 n=76 v=91
348120 On ch=3 n=73 v=88
348148 Par ch=3 c=1 v=2
348240 Off ch=3 n=76 v=64
348240 Off ch=3 n=73 v=64
348240 Off ch=3 n=81 v=64
348360 Off ch=3 n=68 v=64
348360 Off ch=3 n=52 v=64
348360 Off ch=3 n=59 v=64
348360 Off ch=3 n=71 v=64
348360 Off ch=3 n=76 v=64
348360 Off ch=3 n=64 v=64
348360 On ch=3 n=76 v=95
348360 On ch=3 n=73 v=102
348360 On ch=3 n=68 v=95
348477 Par ch=3 c=1 v=4
348500 Pb ch=3 v=8109
348522 Pb ch=3 v=7943
348581 Pb ch=3 v=7778
348840 On ch=3 n=76 v=88
348840 On ch=3 n=73 v=90
348840 On ch=3 n=68 v=102
348841 Pb ch=3 v=7612
348960 Off ch=3 n=76 v=64
348960 Off ch=3 n=73 v=64
348960 Off ch=3 n=68 v=64
348960 On ch=3 n=76 v=88
348960 On ch=3 n=73 v=99
348960 On ch=3 n=68 v=90
349080 Off ch=3 n=76 v=64
349080 Off ch=3 n=68 v=64
349080 Off ch=3 n=73 v=64
349080 On ch=3 n=76 v=99
349080 On ch=3 n=71 v=96
349080 On ch=3 n=68 v=92
349080 On ch=3 n=64 v=94
349080 On ch=3 n=59 v=102
349080 On ch=3 n=52 v=101
349200 Off ch=3 n=76 v=64
349200 Off ch=3 n=68 v=64
349200 Off ch=3 n=73 v=64
349440 Off ch=3 n=64 v=64
349440 Off ch=3 n=68 v=64
349440 Off ch=3 n=71 v=64
349440 Off ch=3 n=76 v=64
349440 Off ch=3 n=59 v=64
349440 Off ch=3 n=52 v=64
349440 On ch=3 n=79 v=102
349440 On ch=3 n=74 v=100
349440 On ch=3 n=69 v=91
349652 Par ch=3 c=1 v=6
349685 Pb ch=3 v=7778
349720 Pb ch=3 v=7943
349720 Par ch=3 c=1 v=10
349745 Par ch=3 c=1 v=12
349768 Par ch=3 c=1 v=14
349779 Par ch=3 c=1 v=17
349800 Off ch=3 n=79 v=64
349800 Off ch=3 n=69 v=64
349800 Off ch=3 n=74 v=64
349814 Par ch=3 c=1 v=19
349862 Par ch=3 c=1 v=21
350039 Par ch=3 c=1 v=23
350040 On ch=3 n=76 v=90
350040 On ch=3 n=71 v=90
350040 On ch=3 n=68 v=95
350040 On ch=3 n=64 v=97
350040 On ch=3 n=59 v=90
350040 On ch=3 n=52 v=95
350380 Par ch=3 c=1 v=26
350401 Pb ch=3 v=8109
350403 Par ch=3 c=1 v=28
350413 Pb ch=3 v=8192
350438 Par ch=3 c=1 v=30
350461 Par ch=3 c=1 v=33
350520 On ch=3 n=81 v=97
350520 On ch=3 n=76 v=100
350520 On ch=3 n=73 v=88
350640 Off ch=3 n=76 v=64
350640 Off ch=3 n=73 v=64
350640 Off ch=3 n=81 v=64
350744 Par ch=3 c=1 v=30
350760 Off ch=3 n=68 v=64
350760 Off ch=3 n=52 v=64
350760 Off ch=3 n=59 v=64
350760 Off ch=3 n=71 v=64
350760 Off ch=3 n=76 v=64
350760 Off ch=3 n=64 v=64
350760 On ch=3 n=76 v=101
350760 On ch=3 n=73 v=92
350760 On ch=3 n=68 v=89
350779 Par ch=3 c=1 v=28
350860 Par ch=3 c=1 v=23
350931 Par ch=3 c=1 v=21
351060 Pb ch=3 v=8191
351083 Pb ch=3 v=8026
351108 Par ch=3 c=1 v=23
351139 Pb ch=3 v=7860
351214 Par ch=3 c=1 v=26
351237 Par ch=3 c=1 v=28
351240 On ch=3 n=76 v=101
351240 On ch=3 n=73 v=100
351240 On ch=3 n=68 v=97
351295 Par ch=3 c=1 v=30
351360 Off ch=3 n=76 v=64
351360 Off ch=3 n=73 v=64
351360 Off ch=3 n=68 v=64
351360 On ch=3 n=76 v=95
351360 On ch=3 n=73 v=102
351360 On ch=3 n=68 v=88
351366 Par ch=3 c=1 v=28
351376 Par ch=3 c=1 v=30
351376 Pb ch=3 v=8026
351434 Pb ch=3 v=8191
351457 Pb ch=3 v=8192
351480 Off ch=3 n=76 v=64
351480 Off ch=3 n=68 v=64
351480 Off ch=3 n=73 v=64
351480 On ch=3 n=64 v=102
351480 On ch=3 n=59 v=102
351480 On ch=3 n=52 v=99
351495 Par ch=3 c=1 v=28
351530 Par ch=3 c=1 v=25
351600 Off ch=3 n=76 v=64
351600 Off ch=3 n=68 v=64
351600 Off ch=3 n=73 v=64
351840 Off ch=3 n=64 v=64
351840 Off ch=3 n=59 v=64
351840 Off ch=3 n=52 v=64
351840 On ch=3 n=67 v=89
351840 On ch=3 n=62 v=101
351840 On ch=3 n=56 v=97
351857 Pb ch=3 v=8191
351894 Par ch=3 c=1 v=27
351940 Par ch=3 c=1 v=29
351988 Par ch=3 c=1 v=31
352069 Pb ch=3 v=8192
352200 Off ch=3 n=67 v=64
352200 Off ch=3 n=56 v=64
352200 Off ch=3 n=62 v=64
352200 On ch=3 n=64 v=100
352200 On ch=3 n=59 v=90
352200 On ch=3 n=52 v=96
352223 Par ch=3 c=1 v=34
352341 Par ch=3 c=1 v=36
352375 Par ch=3 c=1 v=38
352397 Par ch=3 c=1 v=41
352433 Par ch=3 c=1 v=43
352468 Par ch=3 c=1 v=45
352526 Par ch=3 c=1 v=47
352764 Par ch=3 c=1 v=50
352786 Par ch=3 c=1 v=47
352807 Pb ch=3 v=8109
352820 Pb ch=3 v=7943
352832 Par ch=3 c=1 v=50
352920 Off ch=3 n=64 v=64
352920 Off ch=3 n=52 v=64
352920 Off ch=3 n=59 v=64
352920 On ch=3 n=73 v=93
352920 On ch=3 n=76 v=100
352920 On ch=3 n=81 v=88
352949 Pb ch=3 v=8109
352972 Pb ch=3 v=8192
352974 Par ch=3 c=1 v=46
353040 Off ch=3 n=73 v=64
353040 Off ch=3 n=81 v=64
353040 Off ch=3 n=76 v=64
353040 On ch=3 n=76 v=93
353040 On ch=3 n=73 v=92
353040 On ch=3 n=68 v=96
353067 Par ch=3 c=1 v=44
353161 Par ch=3 c=1 v=42
353232 Par ch=3 c=1 v=39
353408 Par ch=3 c=1 v=37
353454 Par ch=3 c=1 v=35
353512 Par ch=3 c=1 v=30
353560 Par ch=3 c=1 v=28
353640 Off ch=3 n=76 v=64
353640 Off ch=3 n=68 v=64
353640 Off ch=3 n=73 v=64
353640 On ch=3 n=76 v=102
353640 On ch=3 n=73 v=101
353640 On ch=3 n=68 v=96
353689 Par ch=3 c=1 v=26
353760 Off ch=3 n=76 v=64
353760 Off ch=3 n=68 v=64
353760 Off ch=3 n=73 v=64
353760 On ch=3 n=76 v=94
353760 On ch=3 n=73 v=93
353760 On ch=3 n=68 v=100
353878 Par ch=3 c=1 v=28
353880 Off ch=3 n=76 v=64
353880 Off ch=3 n=68 v=64
353880 Off ch=3 n=73 v=64
353880 On ch=3 n=64 v=90
353880 On ch=3 n=59 v=99
353880 On ch=3 n=52 v=92
353891 Par ch=3 c=1 v=26
354240 Off ch=3 n=64 v=64
354240 Off ch=3 n=52 v=64
354240 Off ch=3 n=59 v=64
354240 On ch=3 n=67 v=97
354240 On ch=3 n=62 v=100
354240 On ch=3 n=56 v=99
354288 Par ch=3 c=1 v=28
354301 Par ch=3 c=1 v=26
354600 Off ch=3 n=67 v=64
354600 Off ch=3 n=56 v=64
354600 Off ch=3 n=62 v=64
354600 On ch=3 n=64 v=102
354600 On ch=3 n=59 v=89
354600 On ch=3 n=52 v=91
354710 Par ch=3 c=1 v=23
354723 Par ch=3 c=1 v=26
354852 Pb ch=3 v=8357
355074 Pb ch=3 v=8522
355120 Pb ch=3 v=8853
355122 Par ch=3 c=1 v=22
355133 Par ch=3 c=1 v=25
355133 Pb ch=3 v=9102
355145 Pb ch=3 v=9267
355156 Pb ch=3 v=9433
355193 Par ch=3 c=1 v=22
355228 Par ch=3 c=1 v=25
355274 Pb ch=3 v=9019
355284 Pb ch=3 v=8605
355297 Pb ch=3 v=8274
355309 Pb ch=3 v=8192
355320 Off ch=3 n=64 v=64
355320 Off ch=3 n=52 v=64
355320 Off ch=3 n=59 v=64
355320 On ch=3 n=73 v=102
355320 On ch=3 n=76 v=89
355320 On ch=3 n=81 v=90
355393 Par ch=3 c=1 v=27
355428 Par ch=3 c=1 v=29
355440 Off ch=3 n=73 v=64
355440 Off ch=3 n=81 v=64
355440 Off ch=3 n=76 v=64
355440 On ch=3 n=76 v=95
355440 On ch=3 n=73 v=96
355440 On ch=3 n=68 v=100
355499 Par ch=3 c=1 v=31
355509 Par ch=3 c=1 v=34
355567 Par ch=3 c=1 v=36
355580 Par ch=3 c=1 v=38
355615 Par ch=3 c=1 v=41
355638 Par ch=3 c=1 v=43
355686 Par ch=3 c=1 v=45
355709 Par ch=3 c=1 v=47
355838 Par ch=3 c=1 v=50
356040 Off ch=3 n=76 v=64
356040 Off ch=3 n=68 v=64
356040 Off ch=3 n=73 v=64
356040 On ch=3 n=76 v=96
356040 On ch=3 n=73 v=91
356040 On ch=3 n=68 v=94
356160 Off ch=3 n=76 v=64
356160 Off ch=3 n=68 v=64
356160 Off ch=3 n=73 v=64
356160 On ch=3 n=76 v=93
356160 On ch=3 n=73 v=91
356160 On ch=3 n=68 v=91
356280 Off ch=3 n=76 v=64
356280 Off ch=3 n=68 v=64
356280 Off ch=3 n=73 v=64
356280 On ch=3 n=88 v=98
356280 On ch=3 n=83 v=98
356343 Par ch=3 c=1 v=52
356356 Par ch=3 c=1 v=50
356401 Par ch=3 c=1 v=52
356555 Par ch=3 c=1 v=50
356589 Par ch=3 c=1 v=52
356640 Off ch=3 n=88 v=64
356640 Off ch=3 n=83 v=64
356640 On ch=3 n=91 v=95
356640 On ch=3 n=86 v=101
356990 Par ch=3 c=1 v=54
357000 Off ch=3 n=91 v=64
357000 Off ch=3 n=86 v=64
357000 On ch=3 n=83 v=88
357000 On ch=3 n=88 v=96
357119 Par ch=3 c=1 v=57
357448 Par ch=3 c=1 v=59
357554 Par ch=3 c=1 v=62
357575 Par ch=3 c=1 v=66
357587 Par ch=3 c=1 v=69
357600 Par ch=3 c=1 v=71
357624 Par ch=3 c=1 v=74
357720 Off ch=3 n=83 v=64
357720 Off ch=3 n=88 v=64
357720 On ch=3 n=81 v=88
357720 On ch=3 n=76 v=95
357720 On ch=3 n=73 v=98
357840 Off ch=3 n=81 v=64
357840 Off ch=3 n=73 v=64
357840 Off ch=3 n=76 v=64
357840 On ch=3 n=76 v=92
357840 On ch=3 n=73 v=93
357840 On ch=3 n=68 v=102
357976 Par ch=3 c=1 v=71
358047 Par ch=3 c=1 v=69
358057 Par ch=3 c=1 v=67
358092 Par ch=3 c=1 v=63
358115 Par ch=3 c=1 v=60
358151 Par ch=3 c=1 v=57
358176 Par ch=3 c=1 v=53
358186 Par ch=3 c=1 v=55
358196 Par ch=3 c=1 v=53
358200 Off ch=3 n=76 v=64
358200 Off ch=3 n=68 v=64
358200 Off ch=3 n=73 v=64
358200 On ch=3 n=76 v=101
358200 On ch=3 n=73 v=90
358200 On ch=3 n=68 v=98
358244 Par ch=3 c=1 v=51
358440 Off ch=3 n=76 v=64
358440 Off ch=3 n=68 v=64
358440 Off ch=3 n=73 v=64
358440 On ch=3 n=76 v=90
358440 On ch=3 n=73 v=95
358440 On ch=3 n=68 v=98
358504 Par ch=3 c=1 v=53
358527 Par ch=3 c=1 v=55
358550 Par ch=3 c=1 v=59
358560 Off ch=3 n=76 v=64
358560 Off ch=3 n=68 v=64
358560 Off ch=3 n=73 v=64
358560 On ch=3 n=76 v=97
358560 On ch=3 n=73 v=102
358560 On ch=3 n=68 v=100
358563 Par ch=3 c=1 v=61
358585 Par ch=3 c=1 v=63
358608 Par ch=3 c=1 v=66
358633 Par ch=3 c=1 v=68
358680 Off ch=3 n=76 v=64
358680 Off ch=3 n=68 v=64
358680 Off ch=3 n=73 v=64
358680 On ch=3 n=88 v=95
358680 On ch=3 n=83 v=95
358739 Par ch=3 c=1 v=70
358808 Par ch=3 c=1 v=73
358914 Par ch=3 c=1 v=75
358927 Par ch=3 c=1 v=77
358949 Par ch=3 c=1 v=79
358972 Par ch=3 c=1 v=82
359008 Par ch=3 c=1 v=84
359040 Off ch=3 n=88 v=64
359040 Off ch=3 n=83 v=64
359040 On ch=3 n=91 v=88
359040 On ch=3 n=86 v=93
359078 Par ch=3 c=1 v=86
359114 Par ch=3 c=1 v=84
359220 Par ch=3 c=1 v=86
359384 Par ch=3 c=1 v=84
359400 Off ch=3 n=91 v=64
359400 Off ch=3 n=86 v=64
359400 On ch=3 n=83 v=91
359400 On ch=3 n=88 v=91
359442 Par ch=3 c=1 v=82
359478 Par ch=3 c=1 v=79
359655 Par ch=3 c=1 v=77
359677 Par ch=3 c=1 v=75
359690 Par ch=3 c=1 v=71
359700 Par ch=3 c=1 v=69
359713 Par ch=3 c=1 v=67
359723 Par ch=3 c=1 v=65
359794 Par ch=3 c=1 v=67
359842 Par ch=3 c=1 v=65
360019 Par ch=3 c=1 v=62
360089 Par ch=3 c=1 v=59
360112 Par ch=3 c=1 v=55
360120 Off ch=3 n=83 v=64
360120 Off ch=3 n=88 v=64
360120 On ch=3 n=81 v=94
360120 On ch=3 n=76 v=97
360120 On ch=3 n=73 v=101
360148 Par ch=3 c=1 v=52
360170 Par ch=3 c=1 v=50
360240 Off ch=3 n=81 v=64
360240 Off ch=3 n=73 v=64
360240 Off ch=3 n=76 v=64
360240 On ch=3 n=76 v=97
360240 On ch=3 n=73 v=90
360240 On ch=3 n=68 v=90
360522 Par ch=3 c=1 v=52
360547 Par ch=3 c=1 v=54
360582 Par ch=3 c=1 v=57
360600 Off ch=3 n=76 v=64
360600 Off ch=3 n=68 v=64
360600 Off ch=3 n=73 v=64
360600 On ch=3 n=76 v=102
360600 On ch=3 n=73 v=99
360600 On ch=3 n=68 v=94
360840 Off ch=3 n=76 v=64
360840 Off ch=3 n=68 v=64
360840 Off ch=3 n=73 v=64
360840 On ch=3 n=76 v=88
360840 On ch=3 n=73 v=88
360840 On ch=3 n=68 v=89
360960 Off ch=3 n=76 v=64
360960 Off ch=3 n=68 v=64
360960 Off ch=3 n=73 v=64
360960 On ch=3 n=76 v=90
360960 On ch=3 n=73 v=102
360960 On ch=3 n=68 v=98
361080 Off ch=3 n=76 v=64
361080 Off ch=3 n=68 v=64
361080 Off ch=3 n=73 v=64
361080 On ch=3 n=88 v=102
361080 On ch=3 n=83 v=102
361133 Par ch=3 c=1 v=59
361217 Par ch=3 c=1 v=61
361273 Par ch=3 c=1 v=63
361298 Par ch=3 c=1 v=67
361308 Par ch=3 c=1 v=69
361344 Par ch=3 c=1 v=73
361379 Par ch=3 c=1 v=75
361440 Off ch=3 n=88 v=64
361440 Off ch=3 n=83 v=64
361440 On ch=3 n=91 v=91
361440 On ch=3 n=86 v=92
361568 Par ch=3 c=1 v=73
361800 Off ch=3 n=91 v=64
361800 Off ch=3 n=86 v=64
361800 On ch=3 n=83 v=95
361800 On ch=3 n=88 v=99
361945 Par ch=3 c=1 v=70
362072 Par ch=3 c=1 v=68
362142 Par ch=3 c=1 v=66
362379 Par ch=3 c=1 v=69
362448 Par ch=3 c=1 v=71
362520 Off ch=3 n=83 v=64
362520 Off ch=3 n=88 v=64
362520 On ch=3 n=81 v=95
362520 On ch=3 n=76 v=89
362520 On ch=3 n=73 v=100
362567 Par ch=3 c=1 v=67
362577 Par ch=3 c=1 v=70
362640 Off ch=3 n=81 v=64
362640 Off ch=3 n=73 v=64
362640 Off ch=3 n=76 v=64
362640 On ch=3 n=76 v=88
362640 On ch=3 n=73 v=92
362640 On ch=3 n=68 v=90
362789 Par ch=3 c=1 v=73
362847 Par ch=3 c=1 v=70
362918 Par ch=3 c=1 v=73
362989 Par ch=3 c=1 v=75
363000 Off ch=3 n=76 v=64
363000 Off ch=3 n=68 v=64
363000 Off ch=3 n=73 v=64
363000 On ch=3 n=76 v=93
363000 On ch=3 n=73 v=102
363000 On ch=3 n=68 v=94
363240 Off ch=3 n=76 v=64
363240 Off ch=3 n=68 v=64
363240 Off ch=3 n=73 v=64
363240 On ch=3 n=76 v=93
363240 On ch=3 n=73 v=99
363240 On ch=3 n=68 v=95
363360 Off ch=3 n=76 v=64
363360 Off ch=3 n=68 v=64
363360 Off ch=3 n=73 v=64
363360 On ch=3 n=76 v=91
363360 On ch=3 n=73 v=94
363360 On ch=3 n=68 v=92
363480 Off ch=3 n=76 v=64
363480 Off ch=3 n=68 v=64
363480 Off ch=3 n=73 v=64
363480 On ch=3 n=88 v=95
363480 On ch=3 n=83 v=98
363840 Off ch=3 n=88 v=64
363840 Off ch=3 n=83 v=64
363840 On ch=3 n=91 v=102
363840 On ch=3 n=86 v=97
364200 Off ch=3 n=91 v=64
364200 Off ch=3 n=86 v=64
364200 On ch=3 n=83 v=90
364200 On ch=3 n=88 v=91
364316 Par ch=3 c=1 v=73
364339 Par ch=3 c=1 v=75
364690 Par ch=3 c=1 v=77
364738 Par ch=3 c=1 v=79
364784 Par ch=3 c=1 v=82
364832 Par ch=3 c=1 v=84
364920 Off ch=3 n=83 v=64
364920 Off ch=3 n=88 v=64
364920 On ch=3 n=81 v=97
364920 On ch=3 n=76 v=100
364920 On ch=3 n=73 v=97
364986 Par ch=3 c=1 v=86
365040 Off ch=3 n=81 v=64
365040 Off ch=3 n=73 v=64
365040 Off ch=3 n=76 v=64
365040 On ch=3 n=76 v=97
365040 On ch=3 n=73 v=97
365040 On ch=3 n=68 v=99
365042 Par ch=3 c=1 v=88
365219 Par ch=3 c=1 v=85
365337 Par ch=3 c=1 v=83
365400 Off ch=3 n=76 v=64
365400 Off ch=3 n=68 v=64
365400 Off ch=3 n=73 v=64
365400 On ch=3 n=76 v=99
365400 On ch=3 n=73 v=98
365400 On ch=3 n=68 v=102
365466 Par ch=3 c=1 v=80
365549 Par ch=3 c=1 v=77
365570 Par ch=3 c=1 v=75
365593 Par ch=3 c=1 v=73
365618 Par ch=3 c=1 v=70
365640 Off ch=3 n=76 v=64
365640 Off ch=3 n=68 v=64
365640 Off ch=3 n=73 v=64
365640 On ch=3 n=76 v=91
365640 On ch=3 n=73 v=94
365640 On ch=3 n=68 v=95
365653 Par ch=3 c=1 v=67
365701 Par ch=3 c=1 v=65
365734 Par ch=3 c=1 v=61
365760 Off ch=3 n=76 v=64
365760 Off ch=3 n=68 v=64
365760 Off ch=3 n=73 v=64
365760 On ch=3 n=76 v=89
365760 On ch=3 n=73 v=91
365760 On ch=3 n=68 v=92
365770 Par ch=3 c=1 v=59
365795 Par ch=3 c=1 v=57
365876 Par ch=3 c=1 v=54
365880 Off ch=3 n=76 v=64
365880 Off ch=3 n=68 v=64
365880 Off ch=3 n=73 v=64
365880 On ch=3 n=81 v=102
365880 On ch=3 n=76 v=97
365880 On ch=3 n=73 v=93
366167 Par ch=3 c=1 v=57
366208 Par ch=3 c=1 v=54
366240 Off ch=3 n=81 v=64
366240 Off ch=3 n=73 v=64
366240 Off ch=3 n=76 v=64
366240 On ch=3 n=84 v=96
366240 On ch=3 n=79 v=102
366240 On ch=3 n=76 v=98
366251 Par ch=3 c=1 v=52
366310 Par ch=3 c=1 v=50
366600 Off ch=3 n=84 v=64
366600 Off ch=3 n=76 v=64
366600 Off ch=3 n=79 v=64
366600 On ch=3 n=81 v=98
366600 On ch=3 n=76 v=96
366600 On ch=3 n=73 v=102
366686 Par ch=3 c=1 v=47
366756 Par ch=3 c=1 v=50
366930 Par ch=3 c=1 v=47
367320 Off ch=3 n=81 v=64
367320 Off ch=3 n=73 v=64
367320 Off ch=3 n=76 v=64
367320 On ch=3 n=74 v=89
367320 On ch=3 n=79 v=102
367440 Off ch=3 n=74 v=64
367440 Off ch=3 n=79 v=64
367440 On ch=3 n=71 v=101
367440 On ch=3 n=76 v=91
367608 Par ch=3 c=1 v=50
367639 Par ch=3 c=1 v=52
367667 Par ch=3 c=1 v=55
367710 Par ch=3 c=1 v=59
367739 Par ch=3 c=1 v=61
367769 Par ch=3 c=1 v=65
367800 Off ch=3 n=71 v=64
367800 Off ch=3 n=76 v=64
367800 On ch=3 n=76 v=99
367800 On ch=3 n=71 v=102
367813 Par ch=3 c=1 v=68
367869 Par ch=3 c=1 v=70
367928 Par ch=3 c=1 v=73
367987 Par ch=3 c=1 v=75
368013 Par ch=3 c=1 v=77
368040 Off ch=3 n=76 v=64
368040 Off ch=3 n=71 v=64
368040 On ch=3 n=76 v=102
368040 On ch=3 n=71 v=93
368100 Par ch=3 c=1 v=79
368160 Off ch=3 n=76 v=64
368160 Off ch=3 n=71 v=64
368160 On ch=3 n=76 v=92
368160 On ch=3 n=71 v=90
368274 Par ch=3 c=1 v=75
368280 Off ch=3 n=76 v=64
368280 Off ch=3 n=71 v=64
368280 On ch=3 n=81 v=96
368280 On ch=3 n=76 v=89
368280 On ch=3 n=73 v=95
368302 Par ch=3 c=1 v=71
368333 Par ch=3 c=1 v=69
368376 Par ch=3 c=1 v=67
368420 Par ch=3 c=1 v=65
368448 Par ch=3 c=1 v=61
368476 Par ch=3 c=1 v=54
368491 Par ch=3 c=1 v=50
368507 Par ch=3 c=1 v=46
368519 Par ch=3 c=1 v=41
368535 Par ch=3 c=1 v=35
368548 Par ch=3 c=1 v=29
368563 Par ch=3 c=1 v=26
368578 Par ch=3 c=1 v=21
368591 Par ch=3 c=1 v=18
368606 Par ch=3 c=1 v=15
368637 Par ch=3 c=1 v=13
368640 Off ch=3 n=81 v=64
368640 Off ch=3 n=73 v=64
368640 Off ch=3 n=76 v=64
368640 On ch=3 n=84 v=88
368640 On ch=3 n=79 v=90
368640 On ch=3 n=76 v=100
368722 Par ch=3 c=1 v=15
368768 Par ch=3 c=1 v=18
368793 Par ch=3 c=1 v=20
368896 Par ch=3 c=1 v=18
368924 Par ch=3 c=1 v=20
369000 Off ch=3 n=84 v=64
369000 Off ch=3 n=76 v=64
369000 Off ch=3 n=79 v=64
369000 On ch=3 n=81 v=90
369000 On ch=3 n=76 v=102
369000 On ch=3 n=73 v=90
369113 Par ch=3 c=1 v=22
369185 Par ch=3 c=1 v=25
369213 Par ch=3 c=1 v=27
369229 Par ch=3 c=1 v=30
369241 Par ch=3 c=1 v=34
369257 Par ch=3 c=1 v=38
369272 Par ch=3 c=1 v=44
369285 Par ch=3 c=1 v=46
369300 Par ch=3 c=1 v=50
369313 Par ch=3 c=1 v=52
369328 Par ch=3 c=1 v=55
369490 Par ch=3 c=1 v=53
369515 Par ch=3 c=1 v=51
369546 Par ch=3 c=1 v=49
369559 Par ch=3 c=1 v=45
369574 Par ch=3 c=1 v=42
369590 Par ch=3 c=1 v=37
369602 Par ch=3 c=1 v=33
369618 Par ch=3 c=1 v=29
369633 Par ch=3 c=1 v=25
369646 Par ch=3 c=1 v=21
369661 Par ch=3 c=1 v=18
369677 Par ch=3 c=1 v=15
369689 Par ch=3 c=1 v=13
369720 Off ch=3 n=81 v=64
369720 Off ch=3 n=73 v=64
369720 Off ch=3 n=76 v=64
369720 On ch=3 n=74 v=101
369720 On ch=3 n=79 v=100
369733 Par ch=3 c=1 v=11
369820 Par ch=3 c=1 v=7
369835 Par ch=3 c=1 v=11
369840 Off ch=3 n=74 v=64
369840 Off ch=3 n=79 v=64
369840 On ch=3 n=71 v=92
369840 On ch=3 n=76 v=90
369892 Par ch=3 c=1 v=9
369920 Par ch=3 c=1 v=6
369950 Par ch=3 c=1 v=4
369963 Par ch=3 c=1 v=2
369994 Par ch=3 c=1 v=0
370200 Off ch=3 n=71 v=64
370200 Off ch=3 n=76 v=64
370200 On ch=3 n=76 v=98
370200 On ch=3 n=71 v=98
370440 Off ch=3 n=76 v=64
370440 Off ch=3 n=71 v=64
370440 On ch=3 n=76 v=99
370440 On ch=3 n=71 v=90
370560 Off ch=3 n=76 v=64
370560 Off ch=3 n=71 v=64
370560 On ch=3 n=76 v=92
370560 On ch=3 n=71 v=93
370680 Off ch=3 n=76 v=64
370680 Off ch=3 n=71 v=64
370680 On ch=3 n=81 v=102
370680 On ch=3 n=76 v=98
370680 On ch=3 n=73 v=90
371040 Off ch=3 n=81 v=64
371040 Off ch=3 n=73 v=64
371040 Off ch=3 n=76 v=64
371040 On ch=3 n=84 v=94
371040 On ch=3 n=79 v=88
371040 On ch=3 n=76 v=95
371400 Off ch=3 n=84 v=64
371400 Off ch=3 n=76 v=64
371400 Off ch=3 n=79 v=64
371400 On ch=3 n=81 v=88
371400 On ch=3 n=76 v=89
371400 On ch=3 n=73 v=88
372120 Off ch=3 n=81 v=64
372120 Off ch=3 n=73 v=64
372120 Off ch=3 n=76 v=64
372120 On ch=3 n=74 v=88
372120 On ch=3 n=79 v=102
372240 Off ch=3 n=74 v=64
372240 Off ch=3 n=79 v=64
372240 On ch=3 n=71 v=99
372240 On ch=3 n=76 v=90
372600 Off ch=3 n=71 v=64
372600 Off ch=3 n=76 v=64
372600 On ch=3 n=76 v=90
372600 On ch=3 n=71 v=100
372840 Off ch=3 n=76 v=64
372840 Off ch=3 n=71 v=64
372840 On ch=3 n=76 v=93
372840 On ch=3 n=71 v=100
372960 Off ch=3 n=76 v=64
372960 Off ch=3 n=71 v=64
372960 On ch=3 n=76 v=97
372960 On ch=3 n=71 v=100
373058 Par ch=3 c=1 v=1
373080 Off ch=3 n=76 v=64
373080 Off ch=3 n=71 v=64
373080 On ch=3 n=81 v=101
373080 On ch=3 n=76 v=101
373080 On ch=3 n=73 v=91
373143 Par ch=3 c=1 v=3
373202 Par ch=3 c=1 v=5
373289 Par ch=3 c=1 v=7
373419 Par ch=3 c=1 v=10
373440 Off ch=3 n=81 v=64
373440 Off ch=3 n=73 v=64
373440 Off ch=3 n=76 v=64
373440 On ch=3 n=84 v=100
373440 On ch=3 n=79 v=98
373440 On ch=3 n=76 v=102
373491 Par ch=3 c=1 v=12
373534 Par ch=3 c=1 v=14
373606 Par ch=3 c=1 v=11
373622 Par ch=3 c=1 v=13
373800 Off ch=3 n=84 v=64
373800 Off ch=3 n=76 v=64
373800 Off ch=3 n=79 v=64
373800 On ch=3 n=81 v=98
373800 On ch=3 n=76 v=100
373800 On ch=3 n=73 v=96
374141 Par ch=3 c=1 v=15
374213 Par ch=3 c=1 v=18
374272 Par ch=3 c=1 v=21
374300 Par ch=3 c=1 v=23
374328 Par ch=3 c=1 v=26
374359 Par ch=3 c=1 v=28
374520 Off ch=3 n=81 v=64
374520 Off ch=3 n=73 v=64
374520 Off ch=3 n=76 v=64
374520 On ch=3 n=74 v=95
374520 On ch=3 n=79 v=99
374640 Off ch=3 n=74 v=64
374640 Off ch=3 n=79 v=64
374640 On ch=3 n=71 v=90
374640 On ch=3 n=76 v=98
374761 Par ch=3 c=1 v=26
374776 Par ch=3 c=1 v=23
374835 Par ch=3 c=1 v=21
374891 Par ch=3 c=1 v=18
374922 Par ch=3 c=1 v=15
375000 Off ch=3 n=71 v=64
375000 Off ch=3 n=76 v=64
375000 On ch=3 n=76 v=90
375000 On ch=3 n=71 v=96
375211 Par ch=3 c=1 v=13
375240 Off ch=3 n=76 v=64
375240 Off ch=3 n=71 v=64
375240 On ch=3 n=76 v=90
375240 On ch=3 n=71 v=88
375252 Par ch=3 c=1 v=15
375268 Par ch=3 c=1 v=13
375360 Off ch=3 n=76 v=64
375360 Off ch=3 n=71 v=64
375360 On ch=3 n=76 v=92
375360 On ch=3 n=71 v=95
375480 Off ch=3 n=76 v=64
375480 Off ch=3 n=71 v=64
375480 On ch=3 n=90 v=102
375501 Par ch=3 c=1 v=11
376047 Par ch=3 c=1 v=14
376096 Par ch=3 c=1 v=17
376309 Par ch=3 c=1 v=14
376327 Par ch=3 c=1 v=17
376440 Off ch=3 n=90 v=64
376440 On ch=3 n=81 v=102
376788 Par ch=3 c=1 v=19
376853 Par ch=3 c=1 v=21
376902 Par ch=3 c=1 v=23
376934 Par ch=3 c=1 v=26
376952 Par ch=3 c=1 v=28
377001 Par ch=3 c=1 v=31
377034 Par ch=3 c=1 v=34
377069 Par ch=3 c=1 v=37
377150 Par ch=3 c=1 v=39
377200 Par ch=3 c=1 v=43
377215 Par ch=3 c=1 v=45
377232 Par ch=3 c=1 v=49
377250 Par ch=3 c=1 v=51
377264 Par ch=3 c=1 v=55
377282 Par ch=3 c=1 v=58
377299 Par ch=3 c=1 v=62
377364 Par ch=3 c=1 v=65
377400 Off ch=3 n=81 v=64
377400 On ch=3 n=87 v=102
377562 Par ch=3 c=1 v=62
377640 Off ch=3 n=87 v=64
377640 On ch=3 n=81 v=102
377676 Par ch=3 c=1 v=59
377694 Par ch=3 c=1 v=57
377726 Par ch=3 c=1 v=54
377743 Par ch=3 c=1 v=52
377793 Par ch=3 c=1 v=50
377842 Par ch=3 c=1 v=47
377880 Off ch=3 n=81 v=64
377880 On ch=3 n=93 v=102
378105 Par ch=3 c=1 v=50
378155 Par ch=3 c=1 v=52
378172 Par ch=3 c=1 v=55
378222 Par ch=3 c=1 v=59
378254 Par ch=3 c=1 v=62
378286 Par ch=3 c=1 v=66
378304 Par ch=3 c=1 v=69
378353 Par ch=3 c=1 v=73
378534 Par ch=3 c=1 v=75
378616 Par ch=3 c=1 v=77
378683 Par ch=3 c=1 v=79
378698 Par ch=3 c=1 v=82
378733 Par ch=3 c=1 v=85
378815 Par ch=3 c=1 v=87
378840 Off ch=3 n=93 v=64
378840 On ch=3 n=88 v=102
378914 Par ch=3 c=1 v=85
379358 Par ch=3 c=1 v=87
379800 Off ch=3 n=88 v=64
379800 On ch=3 n=95 v=102
380100 Par ch=3 c=1 v=85
380184 Par ch=3 c=1 v=83
380365 Par ch=3 c=1 v=80
380395 Par ch=3 c=1 v=78
380444 Par ch=3 c=1 v=76
380760 Off ch=3 n=95 v=64
380760 On ch=3 n=93 v=102
381008 Par ch=3 c=1 v=79
381022 Par ch=3 c=1 v=82
381040 Par ch=3 c=1 v=84
381089 Par ch=3 c=1 v=86
381338 Par ch=3 c=1 v=84
381370 Par ch=3 c=1 v=80
381419 Par ch=3 c=1 v=78
381650 Par ch=3 c=1 v=76
381700 Par ch=3 c=1 v=74
381720 Off ch=3 n=93 v=64
381720 On ch=3 n=100 v=102
381732 Par ch=3 c=1 v=71
381764 Par ch=3 c=1 v=67
381796 Par ch=3 c=1 v=65
381831 Par ch=3 c=1 v=62
381913 Par ch=3 c=1 v=60
382094 Par ch=3 c=1 v=62
382144 Par ch=3 c=1 v=65
382176 Par ch=3 c=1 v=67
382260 Par ch=3 c=1 v=69
382275 Par ch=3 c=1 v=67
382310 Par ch=3 c=1 v=69
382357 Par ch=3 c=1 v=71
382409 Par ch=3 c=1 v=74
382506 Par ch=3 c=1 v=76
382587 Par ch=3 c=1 v=78
382622 Par ch=3 c=1 v=80
382669 Par ch=3 c=1 v=83
382690 Par ch=3 c=1 v=85
382736 Par ch=3 c=1 v=87
383052 Par ch=3 c=1 v=85
383640 Off ch=3 n=100 v=64
383776 Par ch=3 c=1 v=83
383808 Par ch=3 c=1 v=80
383858 Par ch=3 c=1 v=78
383890 Par ch=3 c=1 v=76
383925 Par ch=3 c=1 v=74
383957 Par ch=3 c=1 v=71
383989 Par ch=3 c=1 v=69
384039 Par ch=3 c=1 v=66
384120 On ch=3 n=110 v=102
384123 Par ch=3 c=1 v=63
384170 Par ch=3 c=1 v=60
384202 Par ch=3 c=1 v=57
384237 Par ch=3 c=1 v=53
384252 Par ch=3 c=1 v=51
384287 Par ch=3 c=1 v=49
384369 Par ch=3 c=1 v=46
384418 Par ch=3 c=1 v=44
384450 Par ch=3 c=1 v=42
384485 Par ch=3 c=1 v=38
384518 Par ch=3 c=1 v=35
384550 Par ch=3 c=1 v=33
384567 Par ch=3 c=1 v=30
384599 Par ch=3 c=1 v=28
384634 Par ch=3 c=1 v=26
384666 Par ch=3 c=1 v=23
384798 Par ch=3 c=1 v=27
384880 Par ch=3 c=1 v=29
384947 Par ch=3 c=1 v=31
385029 Par ch=3 c=1 v=34
385080 Off ch=3 n=110 v=64
385080 On ch=3 n=107 v=102
385277 Par ch=3 c=1 v=31
385309 Par ch=3 c=1 v=34
385753 Par ch=3 c=1 v=36
385785 Par ch=3 c=1 v=38
385834 Par ch=3 c=1 v=42
385919 Par ch=3 c=1 v=44
385983 Par ch=3 c=1 v=46
386040 Off ch=3 n=107 v=64
386040 On ch=3 n=109 v=102
386083 Par ch=3 c=1 v=49
386132 Par ch=3 c=1 v=51
386164 Par ch=3 c=1 v=54
386199 Par ch=3 c=1 v=57
386249 Par ch=3 c=1 v=59
386725 Par ch=3 c=1 v=57
386792 Par ch=3 c=1 v=54
386824 Par ch=3 c=1 v=52
386892 Par ch=3 c=1 v=50
386938 Par ch=3 c=1 v=47
386973 Par ch=3 c=1 v=44
386988 Par ch=3 c=1 v=41
387000 Off ch=3 n=109 v=64
387000 On ch=3 n=105 v=102
387023 Par ch=3 c=1 v=37
387038 Par ch=3 c=1 v=33
387070 Par ch=3 c=1 v=30
387087 Par ch=3 c=1 v=28
387105 Par ch=3 c=1 v=26
387119 Par ch=3 c=1 v=23
387137 Par ch=3 c=1 v=21
387271 Par ch=3 c=1 v=25
387286 Par ch=3 c=1 v=28
387303 Par ch=3 c=1 v=30
387318 Par ch=3 c=1 v=33
387335 Par ch=3 c=1 v=38
387353 Par ch=3 c=1 v=42
387367 Par ch=3 c=1 v=44
387385 Par ch=3 c=1 v=49
387417 Par ch=3 c=1 v=51
387435 Par ch=3 c=1 v=53
387633 Par ch=3 c=1 v=51
387665 Par ch=3 c=1 v=49
387715 Par ch=3 c=1 v=45
387765 Par ch=3 c=1 v=43
387861 Par ch=3 c=1 v=45
387960 Off ch=3 n=105 v=64
387960 On ch=3 n=100 v=102
388243 Par ch=3 c=1 v=43
388258 Par ch=3 c=1 v=41
388308 Par ch=3 c=1 v=38
388357 Par ch=3 c=1 v=36
388425 Par ch=3 c=1 v=34
388471 Par ch=3 c=1 v=28
388524 Par ch=3 c=1 v=23
388538 Par ch=3 c=1 v=21
388553 Par ch=3 c=1 v=19
388571 Par ch=3 c=1 v=17
388620 Par ch=3 c=1 v=13
388638 Par ch=3 c=1 v=11
388670 Par ch=3 c=1 v=9
388702 Par ch=3 c=1 v=6
388900 Par ch=3 c=1 v=9
388920 Off ch=3 n=100 v=64
388936 Par ch=3 c=1 v=11
389049 Par ch=3 c=1 v=13
389400 On ch=3 n=90 v=101
389709 Par ch=3 c=1 v=17
389743 Par ch=3 c=1 v=19
389767 Par ch=3 c=1 v=21
389789 Par ch=3 c=1 v=23
389801 Par ch=3 c=1 v=27
389833 Par ch=3 c=1 v=29
389845 Par ch=3 c=1 v=31
389867 Par ch=3 c=1 v=34
389911 Par ch=3 c=1 v=36
389947 Par ch=3 c=1 v=38
390037 Par ch=3 c=1 v=41
390081 Par ch=3 c=1 v=44
390115 Par ch=3 c=1 v=46
390309 Par ch=3 c=1 v=49
390545 Par ch=3 c=1 v=51
390600 Off ch=3 n=90 v=64
390600 On ch=3 n=85 v=102
390623 Par ch=3 c=1 v=53
390681 Par ch=3 c=1 v=55
390749 Par ch=3 c=1 v=58
390793 Par ch=3 c=1 v=60
390975 Par ch=3 c=1 v=62
390985 Par ch=3 c=1 v=60
390995 Par ch=3 c=1 v=62
391449 Par ch=3 c=1 v=58
391471 Par ch=3 c=1 v=54
391481 Par ch=3 c=1 v=51
391505 Par ch=3 c=1 v=46
391527 Par ch=3 c=1 v=44
391549 Par ch=3 c=1 v=41
391571 Par ch=3 c=1 v=38
391595 Par ch=3 c=1 v=35
391617 Par ch=3 c=1 v=33
391639 Par ch=3 c=1 v=30
391685 Par ch=3 c=1 v=28
391731 Par ch=3 c=1 v=26
391741 Par ch=3 c=1 v=23
391775 Par ch=3 c=1 v=21
391797 Par ch=3 c=1 v=19
391821 Par ch=3 c=1 v=17
392001 Par ch=3 c=1 v=14
392023 Par ch=3 c=1 v=12
392035 Par ch=3 c=1 v=10
392040 Off ch=3 n=85 v=64
392040 On ch=3 n=76 v=97
392040 On ch=3 n=81 v=94
392045 Par ch=3 c=1 v=7
392069 Par ch=3 c=1 v=5
392079 Par ch=3 c=1 v=2
392160 Off ch=3 n=76 v=64
392160 Off ch=3 n=81 v=64
392249 Par ch=3 c=1 v=0
392400 On ch=3 n=79 v=99
392400 On ch=3 n=84 v=88
392760 Off ch=3 n=79 v=64
392760 Off ch=3 n=84 v=64
392760 On ch=3 n=76 v=92
392760 On ch=3 n=81 v=89
393000 Off ch=3 n=76 v=64
393000 Off ch=3 n=81 v=64
393480 On ch=3 n=74 v=93
393480 On ch=3 n=79 v=102
393600 Off ch=3 n=74 v=64
393600 Off ch=3 n=79 v=64
393600 On ch=3 n=71 v=95
393600 On ch=3 n=76 v=88
393960 Off ch=3 n=71 v=64
393960 Off ch=3 n=76 v=64
393960 On ch=3 n=76 v=88
393960 On ch=3 n=71 v=95
394200 Off ch=3 n=76 v=64
394200 Off ch=3 n=71 v=64
394200 On ch=3 n=76 v=96
394200 On ch=3 n=71 v=102
394320 Off ch=3 n=76 v=64
394320 Off ch=3 n=71 v=64
394320 On ch=3 n=76 v=95
394320 On ch=3 n=71 v=91
394440 Off ch=3 n=76 v=64
394440 Off ch=3 n=71 v=64
394440 On ch=3 n=76 v=89
394440 On ch=3 n=81 v=92
394560 Off ch=3 n=76 v=64
394560 Off ch=3 n=81 v=64
394800 On ch=3 n=79 v=89
394800 On ch=3 n=84 v=102
395160 Off ch=3 n=79 v=64
395160 Off ch=3 n=84 v=64
395160 On ch=3 n=76 v=92
395160 On ch=3 n=81 v=88
395400 Off ch=3 n=76 v=64
395400 Off ch=3 n=81 v=64
395880 On ch=3 n=74 v=95
395880 On ch=3 n=79 v=102
396000 Off ch=3 n=74 v=64
396000 Off ch=3 n=79 v=64
396000 On ch=3 n=71 v=88
396000 On ch=3 n=76 v=90
396360 Off ch=3 n=71 v=64
396360 Off ch=3 n=76 v=64
396360 On ch=3 n=76 v=102
396360 On ch=3 n=71 v=89
396600 Off ch=3 n=76 v=64
396600 Off ch=3 n=71 v=64
396600 On ch=3 n=76 v=90
396600 On ch=3 n=71 v=99
396720 Off ch=3 n=76 v=64
396720 Off ch=3 n=71 v=64
396720 On ch=3 n=76 v=102
396720 On ch=3 n=71 v=99
396840 Off ch=3 n=76 v=64
396840 Off ch=3 n=71 v=64
396840 On ch=3 n=76 v=91
396840 On ch=3 n=81 v=89
396960 Off ch=3 n=76 v=64
396960 Off ch=3 n=81 v=64
397035 Par ch=3 c=1 v=3
397200 On ch=3 n=79 v=101
397200 On ch=3 n=84 v=102
397285 Par ch=3 c=1 v=1
397307 Par ch=3 c=1 v=0
397560 Off ch=3 n=79 v=64
397560 Off ch=3 n=84 v=64
397560 On ch=3 n=76 v=92
397560 On ch=3 n=81 v=102
397800 Off ch=3 n=76 v=64
397800 Off ch=3 n=81 v=64
398280 On ch=3 n=74 v=88
398280 On ch=3 n=79 v=102
398400 Off ch=3 n=74 v=64
398400 Off ch=3 n=79 v=64
398400 On ch=3 n=71 v=101
398400 On ch=3 n=76 v=102
398760 Off ch=3 n=71 v=64
398760 Off ch=3 n=76 v=64
398760 On ch=3 n=76 v=100
398760 On ch=3 n=71 v=95
399000 Off ch=3 n=76 v=64
399000 Off ch=3 n=71 v=64
399000 On ch=3 n=76 v=101
399000 On ch=3 n=71 v=92
399120 Off ch=3 n=76 v=64
399120 Off ch=3 n=71 v=64
399120 On ch=3 n=76 v=96
399120 On ch=3 n=71 v=96
399240 Off ch=3 n=76 v=64
399240 Off ch=3 n=71 v=64
399240 On ch=3 n=76 v=97
399240 On ch=3 n=81 v=89
399360 Off ch=3 n=76 v=64
399360 Off ch=3 n=81 v=64
399600 On ch=3 n=79 v=93
399600 On ch=3 n=84 v=88
399960 Off ch=3 n=79 v=64
399960 Off ch=3 n=84 v=64
399960 On ch=3 n=76 v=100
399960 On ch=3 n=81 v=101
400200 Off ch=3 n=76 v=64
400200 Off ch=3 n=81 v=64
400680 On ch=3 n=74 v=93
400680 On ch=3 n=79 v=90
400800 Off ch=3 n=74 v=64
400800 Off ch=3 n=79 v=64
400800 On ch=3 n=71 v=102
400800 On ch=3 n=76 v=96
401160 Off ch=3 n=71 v=64
401160 Off ch=3 n=76 v=64
401160 On ch=3 n=76 v=98
401160 On ch=3 n=71 v=92
401400 Off ch=3 n=76 v=64
401400 Off ch=3 n=71 v=64
401400 On ch=3 n=76 v=96
401400 On ch=3 n=71 v=90
401520 Off ch=3 n=76 v=64
401520 Off ch=3 n=71 v=64
401520 On ch=3 n=76 v=102
401520 On ch=3 n=71 v=101
401640 Off ch=3 n=76 v=64
401640 Off ch=3 n=71 v=64
401640 On ch=3 n=93 v=98
401640 On ch=3 n=88 v=99
401760 Off ch=3 n=93 v=64
401760 Off ch=3 n=88 v=64
402000 On ch=3 n=91 v=101
402000 On ch=3 n=96 v=88
402360 Off ch=3 n=91 v=64
402360 Off ch=3 n=96 v=64
402360 On ch=3 n=88 v=102
402360 On ch=3 n=93 v=90
402840 Off ch=3 n=88 v=64
402840 Off ch=3 n=93 v=64
403080 On ch=3 n=86 v=91
403080 On ch=3 n=91 v=102
403200 Off ch=3 n=86 v=64
403200 Off ch=3 n=91 v=64
403200 On ch=3 n=83 v=102
403200 On ch=3 n=88 v=102
403440 Off ch=3 n=83 v=64
403440 Off ch=3 n=88 v=64
403440 On ch=3 n=90 v=101
403440 On ch=3 n=85 v=102
403800 Off ch=3 n=90 v=64
403800 Off ch=3 n=85 v=64
403800 On ch=3 n=88 v=92
403800 On ch=3 n=83 v=100
404040 Off ch=3 n=88 v=64
404040 Off ch=3 n=83 v=64
404040 On ch=3 n=93 v=90
404040 On ch=3 n=88 v=97
404160 Off ch=3 n=93 v=64
404160 Off ch=3 n=88 v=64
404400 On ch=3 n=91 v=102
404400 On ch=3 n=96 v=102
404760 Off ch=3 n=91 v=64
404760 Off ch=3 n=96 v=64
404760 On ch=3 n=88 v=101
404760 On ch=3 n=93 v=90
405240 Off ch=3 n=88 v=64
405240 Off ch=3 n=93 v=64
405480 On ch=3 n=86 v=89
405480 On ch=3 n=91 v=92
405600 Off ch=3 n=86 v=64
405600 Off ch=3 n=91 v=64
405600 On ch=3 n=83 v=96
405600 On ch=3 n=88 v=93
405840 Off ch=3 n=83 v=64
405840 Off ch=3 n=88 v=64
405840 On ch=3 n=90 v=88
405840 On ch=3 n=85 v=93
406200 Off ch=3 n=90 v=64
406200 Off ch=3 n=85 v=64
406200 On ch=3 n=88 v=97
406200 On ch=3 n=83 v=96
406440 Off ch=3 n=88 v=64
406440 Off ch=3 n=83 v=64
406440 On ch=3 n=93 v=94
406440 On ch=3 n=88 v=93
406560 Off ch=3 n=93 v=64
406560 Off ch=3 n=88 v=64
406800 On ch=3 n=91 v=99
406800 On ch=3 n=96 v=97
407160 Off ch=3 n=91 v=64
407160 Off ch=3 n=96 v=64
407160 On ch=3 n=88 v=93
407160 On ch=3 n=93 v=89
407880 Off ch=3 n=88 v=64
407880 Off ch=3 n=93 v=64
407880 On ch=3 n=91 v=102
407880 On ch=3 n=86 v=102
408240 Off ch=3 n=91 v=64
408240 Off ch=3 n=86 v=64
408240 On ch=3 n=90 v=102
408240 On ch=3 n=85 v=102
408360 Off ch=3 n=90 v=64
408360 Off ch=3 n=85 v=64
417720 On ch=3 n=65 v=88
417736 On ch=3 n=69 v=72
417752 On ch=3 n=75 v=72
417765 Off ch=3 n=65 v=64
417781 Off ch=3 n=69 v=64
417797 Off ch=3 n=75 v=64
417960 On ch=3 n=65 v=88
417976 On ch=3 n=69 v=72
417992 On ch=3 n=75 v=72
418005 Off ch=3 n=65 v=64
418021 Off ch=3 n=69 v=64
418037 Off ch=3 n=75 v=64
418080 On ch=3 n=65 v=88
418096 On ch=3 n=69 v=72
418112 On ch=3 n=75 v=72
418125 Off ch=3 n=65 v=64
418141 Off ch=3 n=69 v=64
418157 Off ch=3 n=75 v=64
418200 On ch=3 n=65 v=88
418216 On ch=3 n=69 v=72
418232 On ch=3 n=75 v=72
418245 Off ch=3 n=65 v=64
418261 Off ch=3 n=69 v=64
418277 Off ch=3 n=75 v=64
418440 On ch=3 n=65 v=88
418456 On ch=3 n=69 v=72
418472 On ch=3 n=75 v=72
418485 Off ch=3 n=65 v=64
418501 Off ch=3 n=69 v=64
418517 Off ch=3 n=75 v=64
418560 On ch=3 n=65 v=88
418576 On ch=3 n=69 v=72
418592 On ch=3 n=75 v=72
418605 Off ch=3 n=65 v=64
418621 Off ch=3 n=69 v=64
418637 Off ch=3 n=75 v=64
418680 On ch=3 n=65 v=88
418696 On ch=3 n=69 v=72
418712 On ch=3 n=75 v=72
418725 Off ch=3 n=65 v=64
418741 Off ch=3 n=69 v=64
418757 Off ch=3 n=75 v=64
418800 On ch=3 n=65 v=88
418816 On ch=3 n=69 v=72
418832 On ch=3 n=75 v=72
418845 Off ch=3 n=65 v=64
418861 Off ch=3 n=69 v=64
418877 Off ch=3 n=75 v=64
418920 On ch=3 n=65 v=88
418936 On ch=3 n=69 v=72
418952 On ch=3 n=75 v=72
418965 Off ch=3 n=65 v=64
418981 Off ch=3 n=69 v=64
418997 Off ch=3 n=75 v=64
419160 On ch=3 n=75 v=72
419280 Off ch=3 n=75 v=64
419280 On ch=3 n=75 v=72
419400 Off ch=3 n=75 v=64
419400 On ch=3 n=75 v=72
419520 Off ch=3 n=75 v=64
419520 On ch=3 n=75 v=72
419640 Off ch=3 n=75 v=64
419640 On ch=3 n=75 v=72
419880 Off ch=3 n=75 v=64
419880 On ch=3 n=65 v=88
419896 On ch=3 n=69 v=72
419912 On ch=3 n=75 v=72
419925 Off ch=3 n=65 v=64
419941 Off ch=3 n=69 v=64
419957 Off ch=3 n=75 v=64
420000 On ch=3 n=65 v=88
420016 On ch=3 n=69 v=72
420032 On ch=3 n=75 v=72
420045 Off ch=3 n=65 v=64
420061 Off ch=3 n=69 v=64
420077 Off ch=3 n=75 v=64
420120 On ch=3 n=75 v=72
420360 Off ch=3 n=75 v=64
420360 On ch=3 n=75 v=72
420600 Off ch=3 n=75 v=64
420600 On ch=3 n=65 v=88
420616 On ch=3 n=69 v=72
420632 On ch=3 n=75 v=72
420645 Off ch=3 n=65 v=64
420661 Off ch=3 n=69 v=64
420677 Off ch=3 n=75 v=64
420840 On ch=3 n=65 v=88
420856 On ch=3 n=69 v=72
420872 On ch=3 n=75 v=72
420885 Off ch=3 n=65 v=64
420901 Off ch=3 n=69 v=64
420917 Off ch=3 n=75 v=64
420960 On ch=3 n=65 v=88
420976 On ch=3 n=69 v=72
420992 On ch=3 n=75 v=72
421005 Off ch=3 n=65 v=64
421021 Off ch=3 n=69 v=64
421037 Off ch=3 n=75 v=64
421080 On ch=3 n=65 v=88
421096 On ch=3 n=69 v=72
421112 On ch=3 n=75 v=72
421125 Off ch=3 n=65 v=64
421141 Off ch=3 n=69 v=64
421157 Off ch=3 n=75 v=64
421200 On ch=3 n=65 v=88
421216 On ch=3 n=69 v=72
421232 On ch=3 n=75 v=72
421245 Off ch=3 n=65 v=64
421261 Off ch=3 n=69 v=64
421277 Off ch=3 n=75 v=64
421320 On ch=3 n=65 v=88
421336 On ch=3 n=69 v=72
421352 On ch=3 n=75 v=72
421365 Off ch=3 n=65 v=64
421381 Off ch=3 n=69 v=64
421397 Off ch=3 n=75 v=64
421440 On ch=3 n=65 v=88
421456 On ch=3 n=69 v=72
421472 On ch=3 n=75 v=72
421485 Off ch=3 n=65 v=64
421501 Off ch=3 n=69 v=64
421517 Off ch=3 n=75 v=64
421560 On ch=3 n=65 v=88
421576 On ch=3 n=69 v=72
421592 On ch=3 n=75 v=72
421605 Off ch=3 n=65 v=64
421621 Off ch=3 n=69 v=64
421637 Off ch=3 n=75 v=64
421680 On ch=3 n=65 v=88
421696 On ch=3 n=69 v=72
421712 On ch=3 n=75 v=72
421725 Off ch=3 n=65 v=64
421741 Off ch=3 n=69 v=64
421757 Off ch=3 n=75 v=64
421800 On ch=3 n=65 v=88
421816 On ch=3 n=69 v=72
421832 On ch=3 n=75 v=72
421845 Off ch=3 n=65 v=64
421861 Off ch=3 n=69 v=64
421877 Off ch=3 n=75 v=64
421920 On ch=3 n=65 v=88
421936 On ch=3 n=69 v=72
421952 On ch=3 n=75 v=72
421965 Off ch=3 n=65 v=64
421981 Off ch=3 n=69 v=64
421997 Off ch=3 n=75 v=64
422040 On ch=3 n=65 v=88
422056 On ch=3 n=69 v=72
422072 On ch=3 n=75 v=72
422085 Off ch=3 n=65 v=64
422101 Off ch=3 n=69 v=64
422117 Off ch=3 n=75 v=64
422160 On ch=3 n=65 v=88
422176 On ch=3 n=69 v=72
422192 On ch=3 n=75 v=72
422205 Off ch=3 n=65 v=64
422221 Off ch=3 n=69 v=64
422237 Off ch=3 n=75 v=64
422280 On ch=3 n=65 v=88
422296 On ch=3 n=69 v=72
422312 On ch=3 n=75 v=72
422325 Off ch=3 n=65 v=64
422341 Off ch=3 n=69 v=64
422357 Off ch=3 n=75 v=64
422400 On ch=3 n=65 v=88
422416 On ch=3 n=69 v=72
422432 On ch=3 n=75 v=72
422445 Off ch=3 n=65 v=64
422461 Off ch=3 n=69 v=64
422477 Off ch=3 n=75 v=64
422520 On ch=3 n=65 v=88
422536 On ch=3 n=69 v=72
422552 On ch=3 n=75 v=72
422565 Off ch=3 n=65 v=64
422581 Off ch=3 n=69 v=64
422597 Off ch=3 n=75 v=64
422640 On ch=3 n=65 v=88
422656 On ch=3 n=69 v=72
422672 On ch=3 n=75 v=72
422685 Off ch=3 n=65 v=64
422701 Off ch=3 n=69 v=64
422717 Off ch=3 n=75 v=64
422760 On ch=3 n=65 v=88
422776 On ch=3 n=69 v=72
422792 On ch=3 n=75 v=72
422805 Off ch=3 n=65 v=64
422821 Off ch=3 n=69 v=64
422837 Off ch=3 n=75 v=64
422880 On ch=3 n=65 v=88
422896 On ch=3 n=69 v=72
422912 On ch=3 n=75 v=72
422925 Off ch=3 n=65 v=64
422941 Off ch=3 n=69 v=64
422957 Off ch=3 n=75 v=64
423000 On ch=3 n=65 v=88
423016 On ch=3 n=69 v=72
423032 On ch=3 n=75 v=72
423045 Off ch=3 n=65 v=64
423061 Off ch=3 n=69 v=64
423077 Off ch=3 n=75 v=64
423120 On ch=3 n=65 v=88
423136 On ch=3 n=69 v=72
423152 On ch=3 n=75 v=72
423165 Off ch=3 n=65 v=64
423181 Off ch=3 n=69 v=64
423197 Off ch=3 n=75 v=64
423240 On ch=3 n=65 v=88
423256 On ch=3 n=69 v=72
423272 On ch=3 n=75 v=72
423285 Off ch=3 n=65 v=64
423301 Off ch=3 n=69 v=64
423317 Off ch=3 n=75 v=64
423360 On ch=3 n=65 v=88
423376 On ch=3 n=69 v=72
423392 On ch=3 n=75 v=72
423405 Off ch=3 n=65 v=64
423421 Off ch=3 n=69 v=64
423437 Off ch=3 n=75 v=64
423480 On ch=3 n=65 v=88
423496 On ch=3 n=69 v=72
423512 On ch=3 n=75 v=72
423525 Off ch=3 n=65 v=64
423541 Off ch=3 n=69 v=64
423557 Off ch=3 n=75 v=64
423720 On ch=3 n=65 v=88
423736 On ch=3 n=69 v=72
423752 On ch=3 n=75 v=72
423765 Off ch=3 n=65 v=64
423781 Off ch=3 n=69 v=64
423797 Off ch=3 n=75 v=64
423840 On ch=3 n=65 v=88
423856 On ch=3 n=69 v=72
423872 On ch=3 n=75 v=72
423885 Off ch=3 n=65 v=64
423901 Off ch=3 n=69 v=64
423917 Off ch=3 n=75 v=64
423960 On ch=3 n=75 v=74
424080 Off ch=3 n=75 v=64
424080 On ch=3 n=75 v=95
424200 Off ch=3 n=75 v=64
424200 On ch=3 n=75 v=90
424320 Off ch=3 n=75 v=64
424320 On ch=3 n=75 v=88
424440 Off ch=3 n=75 v=64
424440 On ch=3 n=65 v=88
424456 On ch=3 n=69 v=72
424472 On ch=3 n=75 v=72
424485 Off ch=3 n=65 v=64
424501 Off ch=3 n=69 v=64
424517 Off ch=3 n=75 v=64
424680 On ch=3 n=65 v=88
424696 On ch=3 n=69 v=72
424712 On ch=3 n=75 v=72
424725 Off ch=3 n=65 v=64
424741 Off ch=3 n=69 v=64
424757 Off ch=3 n=75 v=64
424800 On ch=3 n=65 v=88
424816 On ch=3 n=69 v=72
424832 On ch=3 n=75 v=72
424845 Off ch=3 n=65 v=64
424861 Off ch=3 n=69 v=64
424877 Off ch=3 n=75 v=64
424920 On ch=3 n=75 v=82
425040 Off ch=3 n=75 v=64
425040 On ch=3 n=75 v=82
425160 Off ch=3 n=75 v=64
425160 On ch=3 n=75 v=90
425280 Off ch=3 n=75 v=64
425280 On ch=3 n=75 v=88
425400 Off ch=3 n=75 v=64
425400 On ch=3 n=75 v=90
425640 Off ch=3 n=75 v=64
425640 On ch=3 n=75 v=71
425760 Off ch=3 n=75 v=64
425760 On ch=3 n=75 v=93
425880 Off ch=3 n=75 v=64
425880 On ch=3 n=75 v=70
426000 Off ch=3 n=75 v=64
426000 On ch=3 n=75 v=74
426120 Off ch=3 n=75 v=64
426120 On ch=3 n=75 v=82
426360 Off ch=3 n=75 v=64
426360 On ch=3 n=65 v=88
426376 On ch=3 n=69 v=72
426392 On ch=3 n=75 v=72
426405 Off ch=3 n=65 v=64
426421 Off ch=3 n=69 v=64
426437 Off ch=3 n=75 v=64
426600 On ch=3 n=65 v=88
426616 On ch=3 n=69 v=72
426632 On ch=3 n=75 v=72
426645 Off ch=3 n=65 v=64
426661 Off ch=3 n=69 v=64
426677 Off ch=3 n=75 v=64
426720 On ch=3 n=65 v=88
426736 On ch=3 n=69 v=72
426752 On ch=3 n=75 v=72
426765 Off ch=3 n=65 v=64
426781 Off ch=3 n=69 v=64
426797 Off ch=3 n=75 v=64
426840 On ch=3 n=75 v=74
426960 Off ch=3 n=75 v=64
426960 On ch=3 n=75 v=95
427080 Off ch=3 n=75 v=64
427080 On ch=3 n=75 v=90
427200 Off ch=3 n=75 v=64
427200 On ch=3 n=75 v=88
427320 Off ch=3 n=75 v=64
427320 On ch=3 n=65 v=88
427336 On ch=3 n=69 v=72
427352 On ch=3 n=75 v=72
427365 Off ch=3 n=65 v=64
427381 Off ch=3 n=69 v=64
427397 Off ch=3 n=75 v=64
427560 On ch=3 n=65 v=88
427576 On ch=3 n=69 v=72
427592 On ch=3 n=75 v=72
427605 Off ch=3 n=65 v=64
427621 Off ch=3 n=69 v=64
427637 Off ch=3 n=75 v=64
427680 On ch=3 n=65 v=88
427696 On ch=3 n=69 v=72
427712 On ch=3 n=75 v=72
427725 Off ch=3 n=65 v=64
427741 Off ch=3 n=69 v=64
427757 Off ch=3 n=75 v=64
427800 On ch=3 n=75 v=82
427920 Off ch=3 n=75 v=64
427920 On ch=3 n=75 v=82
428040 Off ch=3 n=75 v=64
428040 On ch=3 n=75 v=90
428160 Off ch=3 n=75 v=64
428160 On ch=3 n=75 v=88
428280 Off ch=3 n=75 v=64
428280 On ch=3 n=75 v=90
428520 Off ch=3 n=75 v=64
428520 On ch=3 n=75 v=71
428640 Off ch=3 n=75 v=64
428640 On ch=3 n=75 v=93
428760 Off ch=3 n=75 v=64
428760 On ch=3 n=75 v=70
428880 Off ch=3 n=75 v=64
428880 On ch=3 n=75 v=74
429000 Off ch=3 n=75 v=64
429000 On ch=3 n=75 v=82
429240 Off ch=3 n=75 v=64
429240 On ch=3 n=65 v=88
429256 On ch=3 n=69 v=72
429272 On ch=3 n=75 v=72
429285 Off ch=3 n=65 v=64
429301 Off ch=3 n=69 v=64
429317 Off ch=3 n=75 v=64
429480 On ch=3 n=65 v=88
429496 On ch=3 n=69 v=72
429512 On ch=3 n=75 v=72
429525 Off ch=3 n=65 v=64
429541 Off ch=3 n=69 v=64
429557 Off ch=3 n=75 v=64
429600 On ch=3 n=65 v=88
429616 On ch=3 n=69 v=72
429632 On ch=3 n=75 v=72
429645 Off ch=3 n=65 v=64
429661 Off ch=3 n=69 v=64
429677 Off ch=3 n=75 v=64
429720 On ch=3 n=75 v=74
429840 Off ch=3 n=75 v=64
429840 On ch=3 n=75 v=95
429960 Off ch=3 n=75 v=64
429960 On ch=3 n=75 v=90
430080 Off ch=3 n=75 v=64
430080 On ch=3 n=75 v=88
430200 Off ch=3 n=75 v=64
430200 On ch=3 n=65 v=88
430216 On ch=3 n=69 v=72
430232 On ch=3 n=75 v=72
430245 Off ch=3 n=65 v=64
430261 Off ch=3 n=69 v=64
430277 Off ch=3 n=75 v=64
430440 On ch=3 n=65 v=88
430456 On ch=3 n=69 v=72
430472 On ch=3 n=75 v=72
430485 Off ch=3 n=65 v=64
430501 Off ch=3 n=69 v=64
430517 Off ch=3 n=75 v=64
430560 On ch=3 n=65 v=88
430576 On ch=3 n=69 v=72
430592 On ch=3 n=75 v=72
430605 Off ch=3 n=65 v=64
430621 Off ch=3 n=69 v=64
430637 Off ch=3 n=75 v=64
430680 On ch=3 n=75 v=82
430800 Off ch=3 n=75 v=64
430800 On ch=3 n=75 v=82
430920 Off ch=3 n=75 v=64
430920 On ch=3 n=75 v=90
431040 Off ch=3 n=75 v=64
431040 On ch=3 n=75 v=88
431160 Off ch=3 n=75 v=64
431160 On ch=3 n=75 v=90
431400 Off ch=3 n=75 v=64
431400 On ch=3 n=75 v=71
431520 Off ch=3 n=75 v=64
431520 On ch=3 n=75 v=93
431640 Off ch=3 n=75 v=64
431640 On ch=3 n=75 v=70
431760 Off ch=3 n=75 v=64
431760 On ch=3 n=75 v=74
431880 Off ch=3 n=75 v=64
431880 On ch=3 n=75 v=82
432120 Off ch=3 n=75 v=64
432120 On ch=3 n=84 v=78
432120 On ch=3 n=79 v=79
432120 On ch=3 n=75 v=67
432120 On ch=3 n=69 v=66
432120 On ch=3 n=65 v=78
432360 Off ch=3 n=84 v=64
432360 Off ch=3 n=65 v=64
432360 Off ch=3 n=69 v=64
432360 Off ch=3 n=75 v=64
432360 Off ch=3 n=79 v=64
432360 On ch=3 n=84 v=66
432360 On ch=3 n=79 v=76
432360 On ch=3 n=75 v=75
432360 On ch=3 n=69 v=79
432360 On ch=3 n=65 v=75
432405 Off ch=3 n=84 v=64
432405 Off ch=3 n=65 v=64
432405 Off ch=3 n=69 v=64
432405 Off ch=3 n=75 v=64
432405 Off ch=3 n=79 v=64
432480 On ch=3 n=84 v=72
432480 On ch=3 n=79 v=68
432480 On ch=3 n=75 v=75
432480 On ch=3 n=69 v=71
432480 On ch=3 n=65 v=73
432525 Off ch=3 n=84 v=64
432525 Off ch=3 n=65 v=64
432525 Off ch=3 n=69 v=64
432525 Off ch=3 n=75 v=64
432525 Off ch=3 n=79 v=64
432600 On ch=3 n=84 v=67
432600 On ch=3 n=79 v=75
432600 On ch=3 n=75 v=70
432600 On ch=3 n=69 v=79
432600 On ch=3 n=65 v=79
432840 Off ch=3 n=84 v=64
432840 Off ch=3 n=65 v=64
432840 Off ch=3 n=69 v=64
432840 Off ch=3 n=75 v=64
432840 Off ch=3 n=79 v=64
433080 On ch=3 n=84 v=72
433080 On ch=3 n=79 v=77
433080 On ch=3 n=75 v=69
433080 On ch=3 n=69 v=70
433080 On ch=3 n=65 v=70
433125 Off ch=3 n=84 v=64
433125 Off ch=3 n=65 v=64
433125 Off ch=3 n=69 v=64
433125 Off ch=3 n=75 v=64
433125 Off ch=3 n=79 v=64
433320 On ch=3 n=84 v=75
433320 On ch=3 n=79 v=66
433320 On ch=3 n=75 v=66
433320 On ch=3 n=69 v=78
433320 On ch=3 n=65 v=74
433365 Off ch=3 n=84 v=64
433365 Off ch=3 n=65 v=64
433365 Off ch=3 n=69 v=64
433365 Off ch=3 n=75 v=64
433365 Off ch=3 n=79 v=64
433560 On ch=3 n=82 v=70
433560 On ch=3 n=77 v=71
433680 Off ch=3 n=82 v=64
433680 Off ch=3 n=77 v=64
433680 On ch=3 n=82 v=77
433680 On ch=3 n=77 v=66
433800 Off ch=3 n=82 v=64
433800 Off ch=3 n=77 v=64
434040 On ch=3 n=84 v=78
434040 On ch=3 n=79 v=69
434040 On ch=3 n=75 v=77
434040 On ch=3 n=69 v=69
434040 On ch=3 n=65 v=71
434280 Off ch=3 n=84 v=64
434280 Off ch=3 n=65 v=64
434280 Off ch=3 n=69 v=64
434280 Off ch=3 n=75 v=64
434280 Off ch=3 n=79 v=64
434280 On ch=3 n=84 v=74
434280 On ch=3 n=79 v=79
434280 On ch=3 n=75 v=74
434280 On ch=3 n=69 v=70
434280 On ch=3 n=65 v=76
434325 Off ch=3 n=84 v=64
434325 Off ch=3 n=65 v=64
434325 Off ch=3 n=69 v=64
434325 Off ch=3 n=75 v=64
434325 Off ch=3 n=79 v=64
434400 On ch=3 n=84 v=68
434400 On ch=3 n=79 v=72
434400 On ch=3 n=75 v=66
434400 On ch=3 n=69 v=75
434400 On ch=3 n=65 v=73
434445 Off ch=3 n=84 v=64
434445 Off ch=3 n=65 v=64
434445 Off ch=3 n=69 v=64
434445 Off ch=3 n=75 v=64
434445 Off ch=3 n=79 v=64
434520 On ch=3 n=84 v=68
434520 On ch=3 n=79 v=66
434520 On ch=3 n=75 v=76
434520 On ch=3 n=69 v=66
434520 On ch=3 n=65 v=75
434760 Off ch=3 n=84 v=64
434760 Off ch=3 n=65 v=64
434760 Off ch=3 n=69 v=64
434760 Off ch=3 n=75 v=64
434760 Off ch=3 n=79 v=64
434760 On ch=3 n=84 v=66
434760 On ch=3 n=79 v=72
434760 On ch=3 n=75 v=66
434760 On ch=3 n=69 v=70
434760 On ch=3 n=65 v=68
434880 Off ch=3 n=84 v=64
434880 Off ch=3 n=65 v=64
434880 Off ch=3 n=69 v=64
434880 Off ch=3 n=75 v=64
434880 Off ch=3 n=79 v=64
434880 On ch=3 n=84 v=76
434880 On ch=3 n=79 v=70
434880 On ch=3 n=75 v=71
434880 On ch=3 n=69 v=70
434880 On ch=3 n=65 v=75
435000 Off ch=3 n=84 v=64
435000 Off ch=3 n=65 v=64
435000 Off ch=3 n=69 v=64
435000 Off ch=3 n=75 v=64
435000 Off ch=3 n=79 v=64
435000 On ch=3 n=84 v=76
435000 On ch=3 n=79 v=66
435000 On ch=3 n=75 v=68
435000 On ch=3 n=69 v=77
435000 On ch=3 n=65 v=77
435240 Off ch=3 n=84 v=64
435240 Off ch=3 n=65 v=64
435240 Off ch=3 n=69 v=64
435240 Off ch=3 n=75 v=64
435240 Off ch=3 n=79 v=64
435240 On ch=3 n=84 v=66
435240 On ch=3 n=79 v=75
435240 On ch=3 n=75 v=76
435240 On ch=3 n=69 v=78
435240 On ch=3 n=65 v=66
435285 Off ch=3 n=84 v=64
435285 Off ch=3 n=65 v=64
435285 Off ch=3 n=69 v=64
435285 Off ch=3 n=75 v=64
435285 Off ch=3 n=79 v=64
435360 On ch=3 n=84 v=77
435360 On ch=3 n=79 v=76
435360 On ch=3 n=75 v=71
435360 On ch=3 n=69 v=77
435360 On ch=3 n=65 v=71
435405 Off ch=3 n=84 v=64
435405 Off ch=3 n=65 v=64
435405 Off ch=3 n=69 v=64
435405 Off ch=3 n=75 v=64
435405 Off ch=3 n=79 v=64
435480 On ch=3 n=84 v=68
435480 On ch=3 n=79 v=67
435480 On ch=3 n=75 v=67
435480 On ch=3 n=69 v=66
435480 On ch=3 n=65 v=66
435720 Off ch=3 n=84 v=64
435720 Off ch=3 n=65 v=64
435720 Off ch=3 n=69 v=64
435720 Off ch=3 n=75 v=64
435720 Off ch=3 n=79 v=64
435960 On ch=3 n=84 v=66
435960 On ch=3 n=79 v=70
435960 On ch=3 n=75 v=69
435960 On ch=3 n=69 v=71
435960 On ch=3 n=65 v=74
436005 Off ch=3 n=84 v=64
436005 Off ch=3 n=65 v=64
436005 Off ch=3 n=69 v=64
436005 Off ch=3 n=75 v=64
436005 Off ch=3 n=79 v=64
436200 On ch=3 n=84 v=73
436200 On ch=3 n=79 v=66
436200 On ch=3 n=75 v=66
436200 On ch=3 n=69 v=71
436200 On ch=3 n=65 v=74
436245 Off ch=3 n=84 v=64
436245 Off ch=3 n=65 v=64
436245 Off ch=3 n=69 v=64
436245 Off ch=3 n=75 v=64
436245 Off ch=3 n=79 v=64
436440 On ch=3 n=82 v=79
436440 On ch=3 n=77 v=77
436560 Off ch=3 n=82 v=64
436560 Off ch=3 n=77 v=64
436560 On ch=3 n=82 v=79
436560 On ch=3 n=77 v=67
436680 Off ch=3 n=82 v=64
436680 Off ch=3 n=77 v=64
436920 On ch=3 n=84 v=77
436920 On ch=3 n=79 v=79
436920 On ch=3 n=75 v=66
436920 On ch=3 n=69 v=78
436920 On ch=3 n=65 v=66
437160 Off ch=3 n=84 v=64
437160 Off ch=3 n=65 v=64
437160 Off ch=3 n=69 v=64
437160 Off ch=3 n=75 v=64
437160 Off ch=3 n=79 v=64
437160 On ch=3 n=84 v=72
437160 On ch=3 n=79 v=67
437160 On ch=3 n=75 v=77
437160 On ch=3 n=69 v=75
437160 On ch=3 n=65 v=70
437205 Off ch=3 n=84 v=64
437205 Off ch=3 n=65 v=64
437205 Off ch=3 n=69 v=64
437205 Off ch=3 n=75 v=64
437205 Off ch=3 n=79 v=64
437280 On ch=3 n=84 v=73
437280 On ch=3 n=79 v=67
437280 On ch=3 n=75 v=77
437280 On ch=3 n=69 v=75
437280 On ch=3 n=65 v=68
437325 Off ch=3 n=84 v=64
437325 Off ch=3 n=65 v=64
437325 Off ch=3 n=69 v=64
437325 Off ch=3 n=75 v=64
437325 Off ch=3 n=79 v=64
437400 On ch=3 n=84 v=75
437400 On ch=3 n=79 v=70
437400 On ch=3 n=75 v=72
437400 On ch=3 n=69 v=70
437400 On ch=3 n=65 v=77
437640 Off ch=3 n=84 v=64
437640 Off ch=3 n=65 v=64
437640 Off ch=3 n=69 v=64
437640 Off ch=3 n=75 v=64
437640 Off ch=3 n=79 v=64
437640 On ch=3 n=84 v=74
437640 On ch=3 n=79 v=67
437640 On ch=3 n=75 v=66
437640 On ch=3 n=69 v=79
437640 On ch=3 n=65 v=68
437760 Off ch=3 n=84 v=64
437760 Off ch=3 n=65 v=64
437760 Off ch=3 n=69 v=64
437760 Off ch=3 n=75 v=64
437760 Off ch=3 n=79 v=64
437760 On ch=3 n=84 v=71
437760 On ch=3 n=79 v=78
437760 On ch=3 n=75 v=75
437760 On ch=3 n=69 v=66
437760 On ch=3 n=65 v=71
437880 Off ch=3 n=84 v=64
437880 Off ch=3 n=65 v=64
437880 Off ch=3 n=69 v=64
437880 Off ch=3 n=75 v=64
437880 Off ch=3 n=79 v=64
437880 On ch=3 n=84 v=69
437880 On ch=3 n=79 v=68
437880 On ch=3 n=75 v=79
437880 On ch=3 n=69 v=66
437880 On ch=3 n=65 v=69
438120 Off ch=3 n=84 v=64
438120 Off ch=3 n=65 v=64
438120 Off ch=3 n=69 v=64
438120 Off ch=3 n=75 v=64
438120 Off ch=3 n=79 v=64
438120 On ch=3 n=84 v=76
438120 On ch=3 n=79 v=75
438120 On ch=3 n=75 v=71
438120 On ch=3 n=69 v=79
438120 On ch=3 n=65 v=71
438165 Off ch=3 n=84 v=64
438165 Off ch=3 n=65 v=64
438165 Off ch=3 n=69 v=64
438165 Off ch=3 n=75 v=64
438165 Off ch=3 n=79 v=64
438240 On ch=3 n=84 v=71
438240 On ch=3 n=79 v=72
438240 On ch=3 n=75 v=76
438240 On ch=3 n=69 v=75
438240 On ch=3 n=65 v=75
438285 Off ch=3 n=84 v=64
438285 Off ch=3 n=65 v=64
438285 Off ch=3 n=69 v=64
438285 Off ch=3 n=75 v=64
438285 Off ch=3 n=79 v=64
438360 On ch=3 n=84 v=74
438360 On ch=3 n=79 v=72
438360 On ch=3 n=75 v=74
438360 On ch=3 n=69 v=67
438360 On ch=3 n=65 v=72
438600 Off ch=3 n=84 v=64
438600 Off ch=3 n=65 v=64
438600 Off ch=3 n=69 v=64
438600 Off ch=3 n=75 v=64
438600 Off ch=3 n=79 v=64
438840 On ch=3 n=84 v=71
438840 On ch=3 n=79 v=76
438840 On ch=3 n=75 v=78
438840 On ch=3 n=69 v=67
438840 On ch=3 n=65 v=77
438885 Off ch=3 n=84 v=64
438885 Off ch=3 n=65 v=64
438885 Off ch=3 n=69 v=64
438885 Off ch=3 n=75 v=64
438885 Off ch=3 n=79 v=64
439080 On ch=3 n=84 v=71
439080 On ch=3 n=79 v=73
439080 On ch=3 n=75 v=74
439080 On ch=3 n=69 v=66
439080 On ch=3 n=65 v=72
439125 Off ch=3 n=84 v=64
439125 Off ch=3 n=65 v=64
439125 Off ch=3 n=69 v=64
439125 Off ch=3 n=75 v=64
439125 Off ch=3 n=79 v=64
439320 On ch=3 n=82 v=67
439320 On ch=3 n=77 v=69
439440 Off ch=3 n=82 v=64
439440 Off ch=3 n=77 v=64
439440 On ch=3 n=82 v=75
439440 On ch=3 n=77 v=77
439560 Off ch=3 n=82 v=64
439560 Off ch=3 n=77 v=64
439800 On ch=3 n=84 v=70
439800 On ch=3 n=79 v=66
439800 On ch=3 n=75 v=79
439800 On ch=3 n=69 v=77
439800 On ch=3 n=65 v=73
440040 Off ch=3 n=84 v=64
440040 Off ch=3 n=65 v=64
440040 Off ch=3 n=69 v=64
440040 Off ch=3 n=75 v=64
440040 Off ch=3 n=79 v=64
440040 On ch=3 n=84 v=75
440040 On ch=3 n=79 v=67
440040 On ch=3 n=75 v=66
440040 On ch=3 n=69 v=68
440040 On ch=3 n=65 v=74
440085 Off ch=3 n=84 v=64
440085 Off ch=3 n=65 v=64
440085 Off ch=3 n=69 v=64
440085 Off ch=3 n=75 v=64
440085 Off ch=3 n=79 v=64
440160 On ch=3 n=84 v=66
440160 On ch=3 n=79 v=69
440160 On ch=3 n=75 v=67
440160 On ch=3 n=69 v=67
440160 On ch=3 n=65 v=71
440205 Off ch=3 n=84 v=64
440205 Off ch=3 n=65 v=64
440205 Off ch=3 n=69 v=64
440205 Off ch=3 n=75 v=64
440205 Off ch=3 n=79 v=64
440280 On ch=3 n=84 v=76
440280 On ch=3 n=79 v=77
440280 On ch=3 n=75 v=68
440280 On ch=3 n=69 v=74
440280 On ch=3 n=65 v=66
440520 Off ch=3 n=84 v=64
440520 Off ch=3 n=65 v=64
440520 Off ch=3 n=69 v=64
440520 Off ch=3 n=75 v=64
440520 Off ch=3 n=79 v=64
440520 On ch=3 n=84 v=78
440520 On ch=3 n=79 v=76
440520 On ch=3 n=75 v=77
440520 On ch=3 n=69 v=75
440520 On ch=3 n=65 v=78
440640 Off ch=3 n=84 v=64
440640 Off ch=3 n=65 v=64
440640 Off ch=3 n=69 v=64
440640 Off ch=3 n=75 v=64
440640 Off ch=3 n=79 v=64
440640 On ch=3 n=84 v=66
440640 On ch=3 n=79 v=77
440640 On ch=3 n=75 v=68
440640 On ch=3 n=69 v=66
440640 On ch=3 n=65 v=79
440760 Off ch=3 n=84 v=64
440760 Off ch=3 n=65 v=64
440760 Off ch=3 n=69 v=64
440760 Off ch=3 n=75 v=64
440760 Off ch=3 n=79 v=64
440760 On ch=3 n=84 v=78
440760 On ch=3 n=79 v=77
440760 On ch=3 n=75 v=68
440760 On ch=3 n=69 v=78
440760 On ch=3 n=65 v=70
441000 Off ch=3 n=84 v=64
441000 Off ch=3 n=65 v=64
441000 Off ch=3 n=69 v=64
441000 Off ch=3 n=75 v=64
441000 Off ch=3 n=79 v=64
441000 On ch=3 n=84 v=77
441000 On ch=3 n=79 v=79
441000 On ch=3 n=75 v=68
441000 On ch=3 n=69 v=66
441000 On ch=3 n=65 v=66
441045 Off ch=3 n=84 v=64
441045 Off ch=3 n=65 v=64
441045 Off ch=3 n=69 v=64
441045 Off ch=3 n=75 v=64
441045 Off ch=3 n=79 v=64
441120 On ch=3 n=84 v=76
441120 On ch=3 n=79 v=79
441120 On ch=3 n=75 v=71
441120 On ch=3 n=69 v=73
441120 On ch=3 n=65 v=77
441165 Off ch=3 n=84 v=64
441165 Off ch=3 n=65 v=64
441165 Off ch=3 n=69 v=64
441165 Off ch=3 n=75 v=64
441165 Off ch=3 n=79 v=64
441240 On ch=3 n=84 v=79
441240 On ch=3 n=79 v=67
441240 On ch=3 n=75 v=66
441240 On ch=3 n=69 v=79
441240 On ch=3 n=65 v=66
441480 Off ch=3 n=84 v=64
441480 Off ch=3 n=65 v=64
441480 Off ch=3 n=69 v=64
441480 Off ch=3 n=75 v=64
441480 Off ch=3 n=79 v=64
441720 On ch=3 n=84 v=78
441720 On ch=3 n=79 v=72
441720 On ch=3 n=75 v=66
441720 On ch=3 n=69 v=66
441720 On ch=3 n=65 v=76
441765 Off ch=3 n=84 v=64
441765 Off ch=3 n=65 v=64
441765 Off ch=3 n=69 v=64
441765 Off ch=3 n=75 v=64
441765 Off ch=3 n=79 v=64
441960 On ch=3 n=84 v=74
441960 On ch=3 n=79 v=66
441960 On ch=3 n=75 v=73
441960 On ch=3 n=69 v=75
441960 On ch=3 n=65 v=66
442005 Off ch=3 n=84 v=64
442005 Off ch=3 n=65 v=64
442005 Off ch=3 n=69 v=64
442005 Off ch=3 n=75 v=64
442005 Off ch=3 n=79 v=64
442200 On ch=3 n=82 v=66
442200 On ch=3 n=77 v=78
442320 Off ch=3 n=82 v=64
442320 Off ch=3 n=77 v=64
442320 On ch=3 n=82 v=77
442320 On ch=3 n=77 v=74
442440 Off ch=3 n=82 v=64
442440 Off ch=3 n=77 v=64
442680 On ch=3 n=84 v=70
442680 On ch=3 n=79 v=77
442680 On ch=3 n=75 v=76
442680 On ch=3 n=69 v=79
442680 On ch=3 n=65 v=72
442920 Off ch=3 n=84 v=64
442920 Off ch=3 n=65 v=64
442920 Off ch=3 n=69 v=64
442920 Off ch=3 n=75 v=64
442920 Off ch=3 n=79 v=64
442920 On ch=3 n=84 v=76
442920 On ch=3 n=79 v=67
442920 On ch=3 n=75 v=66
442920 On ch=3 n=69 v=77
442920 On ch=3 n=65 v=66
442965 Off ch=3 n=84 v=64
442965 Off ch=3 n=65 v=64
442965 Off ch=3 n=69 v=64
442965 Off ch=3 n=75 v=64
442965 Off ch=3 n=79 v=64
443040 On ch=3 n=84 v=70
443040 On ch=3 n=79 v=68
443040 On ch=3 n=75 v=67
443040 On ch=3 n=69 v=70
443040 On ch=3 n=65 v=72
443085 Off ch=3 n=84 v=64
443085 Off ch=3 n=65 v=64
443085 Off ch=3 n=69 v=64
443085 Off ch=3 n=75 v=64
443085 Off ch=3 n=79 v=64
443160 On ch=3 n=84 v=72
443160 On ch=3 n=79 v=66
443160 On ch=3 n=75 v=72
443160 On ch=3 n=69 v=66
443160 On ch=3 n=65 v=66
443400 Off ch=3 n=84 v=64
443400 Off ch=3 n=65 v=64
443400 Off ch=3 n=69 v=64
443400 Off ch=3 n=75 v=64
443400 Off ch=3 n=79 v=64
443400 On ch=3 n=84 v=76
443400 On ch=3 n=79 v=67
443400 On ch=3 n=75 v=71
443400 On ch=3 n=69 v=75
443400 On ch=3 n=65 v=77
443520 Off ch=3 n=84 v=64
443520 Off ch=3 n=65 v=64
443520 Off ch=3 n=69 v=64
443520 Off ch=3 n=75 v=64
443520 Off ch=3 n=79 v=64
443520 On ch=3 n=84 v=78
443520 On ch=3 n=79 v=67
443520 On ch=3 n=75 v=66
443520 On ch=3 n=69 v=79
443520 On ch=3 n=65 v=74
443640 Off ch=3 n=84 v=64
443640 Off ch=3 n=65 v=64
443640 Off ch=3 n=69 v=64
443640 Off ch=3 n=75 v=64
443640 Off ch=3 n=79 v=64
443640 On ch=3 n=84 v=66
443640 On ch=3 n=79 v=73
443640 On ch=3 n=75 v=74
443640 On ch=3 n=69 v=71
443640 On ch=3 n=65 v=75
443880 Off ch=3 n=84 v=64
443880 Off ch=3 n=65 v=64
443880 Off ch=3 n=69 v=64
443880 Off ch=3 n=75 v=64
443880 Off ch=3 n=79 v=64
443880 On ch=3 n=84 v=74
443880 On ch=3 n=79 v=69
443880 On ch=3 n=75 v=72
443880 On ch=3 n=69 v=73
443880 On ch=3 n=65 v=79
443925 Off ch=3 n=84 v=64
443925 Off ch=3 n=65 v=64
443925 Off ch=3 n=69 v=64
443925 Off ch=3 n=75 v=64
443925 Off ch=3 n=79 v=64
444000 On ch=3 n=84 v=66
444000 On ch=3 n=79 v=76
444000 On ch=3 n=75 v=68
444000 On ch=3 n=69 v=66
444000 On ch=3 n=65 v=66
444045 Off ch=3 n=84 v=64
444045 Off ch=3 n=65 v=64
444045 Off ch=3 n=69 v=64
444045 Off ch=3 n=75 v=64
444045 Off ch=3 n=79 v=64
444120 On ch=3 n=84 v=69
444120 On ch=3 n=79 v=67
444120 On ch=3 n=75 v=71
444120 On ch=3 n=69 v=76
444120 On ch=3 n=65 v=68
444360 Off ch=3 n=84 v=64
444360 Off ch=3 n=65 v=64
444360 Off ch=3 n=69 v=64
444360 Off ch=3 n=75 v=64
444360 Off ch=3 n=79 v=64
444600 On ch=3 n=84 v=70
444600 On ch=3 n=79 v=66
444600 On ch=3 n=75 v=69
444600 On ch=3 n=69 v=74
444600 On ch=3 n=65 v=67
444645 Off ch=3 n=84 v=64
444645 Off ch=3 n=65 v=64
444645 Off ch=3 n=69 v=64
444645 Off ch=3 n=75 v=64
444645 Off ch=3 n=79 v=64
444840 On ch=3 n=84 v=71
444840 On ch=3 n=79 v=68
444840 On ch=3 n=75 v=73
444840 On ch=3 n=69 v=72
444840 On ch=3 n=65 v=66
444885 Off ch=3 n=84 v=64
444885 Off ch=3 n=65 v=64
444885 Off ch=3 n=69 v=64
444885 Off ch=3 n=75 v=64
444885 Off ch=3 n=79 v=64
445080 On ch=3 n=82 v=69
445080 On ch=3 n=77 v=70
445200 Off ch=3 n=82 v=64
445200 Off ch=3 n=77 v=64
445200 On ch=3 n=82 v=78
445200 On ch=3 n=77 v=79
445320 Off ch=3 n=82 v=64
445320 Off ch=3 n=77 v=64
445560 On ch=3 n=84 v=68
445560 On ch=3 n=79 v=74
445560 On ch=3 n=75 v=67
445560 On ch=3 n=69 v=71
445560 On ch=3 n=65 v=67
445800 Off ch=3 n=84 v=64
445800 Off ch=3 n=65 v=64
445800 Off ch=3 n=69 v=64
445800 Off ch=3 n=75 v=64
445800 Off ch=3 n=79 v=64
445800 On ch=3 n=84 v=66
445800 On ch=3 n=79 v=75
445800 On ch=3 n=75 v=74
445800 On ch=3 n=69 v=77
445800 On ch=3 n=65 v=66
445845 Off ch=3 n=84 v=64
445845 Off ch=3 n=65 v=64
445845 Off ch=3 n=69 v=64
445845 Off ch=3 n=75 v=64
445845 Off ch=3 n=79 v=64
445920 On ch=3 n=84 v=68
445920 On ch=3 n=79 v=73
445920 On ch=3 n=75 v=70
445920 On ch=3 n=69 v=72
445920 On ch=3 n=65 v=67
445965 Off ch=3 n=84 v=64
445965 Off ch=3 n=65 v=64
445965 Off ch=3 n=69 v=64
445965 Off ch=3 n=75 v=64
445965 Off ch=3 n=79 v=64
446040 On ch=3 n=84 v=76
446040 On ch=3 n=79 v=76
446040 On ch=3 n=75 v=70
446040 On ch=3 n=69 v=66
446040 On ch=3 n=65 v=69
446280 Off ch=3 n=84 v=64
446280 Off ch=3 n=65 v=64
446280 Off ch=3 n=69 v=64
446280 Off ch=3 n=75 v=64
446280 Off ch=3 n=79 v=64
446280 On ch=3 n=84 v=75
446280 On ch=3 n=79 v=78
446280 On ch=3 n=75 v=74
446280 On ch=3 n=69 v=66
446280 On ch=3 n=65 v=78
446400 Off ch=3 n=84 v=64
446400 Off ch=3 n=65 v=64
446400 Off ch=3 n=69 v=64
446400 Off ch=3 n=75 v=64
446400 Off ch=3 n=79 v=64
446400 On ch=3 n=84 v=72
446400 On ch=3 n=79 v=77
446400 On ch=3 n=75 v=66
446400 On ch=3 n=69 v=72
446400 On ch=3 n=65 v=77
446520 Off ch=3 n=84 v=64
446520 Off ch=3 n=65 v=64
446520 Off ch=3 n=69 v=64
446520 Off ch=3 n=75 v=64
446520 Off ch=3 n=79 v=64
446520 On ch=3 n=84 v=79
446520 On ch=3 n=79 v=68
446520 On ch=3 n=75 v=74
446520 On ch=3 n=69 v=69
446520 On ch=3 n=65 v=67
446760 Off ch=3 n=84 v=64
446760 Off ch=3 n=65 v=64
446760 Off ch=3 n=69 v=64
446760 Off ch=3 n=75 v=64
446760 Off ch=3 n=79 v=64
446760 On ch=3 n=84 v=73
446760 On ch=3 n=79 v=66
446760 On ch=3 n=75 v=69
446760 On ch=3 n=69 v=71
446760 On ch=3 n=65 v=73
446805 Off ch=3 n=84 v=64
446805 Off ch=3 n=65 v=64
446805 Off ch=3 n=69 v=64
446805 Off ch=3 n=75 v=64
446805 Off ch=3 n=79 v=64
446880 On ch=3 n=84 v=69
446880 On ch=3 n=79 v=70
446880 On ch=3 n=75 v=72
446880 On ch=3 n=69 v=77
446880 On ch=3 n=65 v=67
446925 Off ch=3 n=84 v=64
446925 Off ch=3 n=65 v=64
446925 Off ch=3 n=69 v=64
446925 Off ch=3 n=75 v=64
446925 Off ch=3 n=79 v=64
447000 On ch=3 n=84 v=77
447000 On ch=3 n=79 v=68
447000 On ch=3 n=75 v=76
447000 On ch=3 n=69 v=69
447000 On ch=3 n=65 v=78
447240 Off ch=3 n=84 v=64
447240 Off ch=3 n=65 v=64
447240 Off ch=3 n=69 v=64
447240 Off ch=3 n=75 v=64
447240 Off ch=3 n=79 v=64
447480 On ch=3 n=84 v=66
447480 On ch=3 n=79 v=66
447480 On ch=3 n=75 v=73
447480 On ch=3 n=69 v=77
447480 On ch=3 n=65 v=73
447525 Off ch=3 n=84 v=64
447525 Off ch=3 n=65 v=64
447525 Off ch=3 n=69 v=64
447525 Off ch=3 n=75 v=64
447525 Off ch=3 n=79 v=64
447720 On ch=3 n=84 v=77
447720 On ch=3 n=79 v=66
447720 On ch=3 n=75 v=68
447720 On ch=3 n=69 v=72
447720 On ch=3 n=65 v=78
447765 Off ch=3 n=84 v=64
447765 Off ch=3 n=65 v=64
447765 Off ch=3 n=69 v=64
447765 Off ch=3 n=75 v=64
447765 Off ch=3 n=79 v=64
447960 On ch=3 n=82 v=70
447960 On ch=3 n=77 v=75
448080 Off ch=3 n=82 v=64
448080 Off ch=3 n=77 v=64
448080 On ch=3 n=82 v=72
448080 On ch=3 n=77 v=73
448200 Off ch=3 n=82 v=64
448200 Off ch=3 n=77 v=64
448440 On ch=3 n=84 v=66
448440 On ch=3 n=79 v=72
448440 On ch=3 n=75 v=75
448440 On ch=3 n=69 v=73
448440 On ch=3 n=65 v=72
448680 Off ch=3 n=84 v=64
448680 Off ch=3 n=65 v=64
448680 Off ch=3 n=69 v=64
448680 Off ch=3 n=75 v=64
448680 Off ch=3 n=79 v=64
448680 On ch=3 n=84 v=66
448680 On ch=3 n=79 v=78
448680 On ch=3 n=75 v=79
448680 On ch=3 n=69 v=76
448680 On ch=3 n=65 v=76
448725 Off ch=3 n=84 v=64
448725 Off ch=3 n=65 v=64
448725 Off ch=3 n=69 v=64
448725 Off ch=3 n=75 v=64
448725 Off ch=3 n=79 v=64
448800 On ch=3 n=84 v=66
448800 On ch=3 n=79 v=66
448800 On ch=3 n=75 v=69
448800 On ch=3 n=69 v=68
448800 On ch=3 n=65 v=66
448845 Off ch=3 n=84 v=64
448845 Off ch=3 n=65 v=64
448845 Off ch=3 n=69 v=64
448845 Off ch=3 n=75 v=64
448845 Off ch=3 n=79 v=64
448920 On ch=3 n=84 v=66
448920 On ch=3 n=79 v=66
448920 On ch=3 n=75 v=66
448920 On ch=3 n=69 v=67
448920 On ch=3 n=65 v=67
449160 Off ch=3 n=84 v=64
449160 Off ch=3 n=65 v=64
449160 Off ch=3 n=69 v=64
449160 Off ch=3 n=75 v=64
449160 Off ch=3 n=79 v=64
449160 On ch=3 n=84 v=68
449160 On ch=3 n=79 v=68
449160 On ch=3 n=75 v=71
449160 On ch=3 n=69 v=66
449160 On ch=3 n=65 v=73
449280 Off ch=3 n=84 v=64
449280 Off ch=3 n=65 v=64
449280 Off ch=3 n=69 v=64
449280 Off ch=3 n=75 v=64
449280 Off ch=3 n=79 v=64
449280 On ch=3 n=84 v=71
449280 On ch=3 n=79 v=68
449280 On ch=3 n=75 v=79
449280 On ch=3 n=69 v=78
449280 On ch=3 n=65 v=68
449400 Off ch=3 n=84 v=64
449400 Off ch=3 n=65 v=64
449400 Off ch=3 n=69 v=64
449400 Off ch=3 n=75 v=64
449400 Off ch=3 n=79 v=64
449400 On ch=3 n=84 v=72
449400 On ch=3 n=79 v=66
449400 On ch=3 n=75 v=68
449400 On ch=3 n=69 v=75
449400 On ch=3 n=65 v=73
449640 Off ch=3 n=84 v=64
449640 Off ch=3 n=65 v=64
449640 Off ch=3 n=69 v=64
449640 Off ch=3 n=75 v=64
449640 Off ch=3 n=79 v=64
449640 On ch=3 n=84 v=77
449640 On ch=3 n=79 v=71
449640 On ch=3 n=75 v=66
449640 On ch=3 n=69 v=70
449640 On ch=3 n=65 v=66
449685 Off ch=3 n=84 v=64
449685 Off ch=3 n=65 v=64
449685 Off ch=3 n=69 v=64
449685 Off ch=3 n=75 v=64
449685 Off ch=3 n=79 v=64
449760 On ch=3 n=84 v=78
449760 On ch=3 n=79 v=72
449760 On ch=3 n=75 v=69
449760 On ch=3 n=69 v=66
449760 On ch=3 n=65 v=74
449805 Off ch=3 n=84 v=64
449805 Off ch=3 n=65 v=64
449805 Off ch=3 n=69 v=64
449805 Off ch=3 n=75 v=64
449805 Off ch=3 n=79 v=64
449880 On ch=3 n=84 v=69
449880 On ch=3 n=79 v=66
449880 On ch=3 n=75 v=73
449880 On ch=3 n=69 v=77
449880 On ch=3 n=65 v=74
450120 Off ch=3 n=84 v=64
450120 Off ch=3 n=65 v=64
450120 Off ch=3 n=69 v=64
450120 Off ch=3 n=75 v=64
450120 Off ch=3 n=79 v=64
450360 On ch=3 n=84 v=74
450360 On ch=3 n=79 v=79
450360 On ch=3 n=75 v=72
450360 On ch=3 n=69 v=73
450360 On ch=3 n=65 v=66
450405 Off ch=3 n=84 v=64
450405 Off ch=3 n=65 v=64
450405 Off ch=3 n=69 v=64
450405 Off ch=3 n=75 v=64
450405 Off ch=3 n=79 v=64
450600 On ch=3 n=84 v=70
450600 On ch=3 n=79 v=76
450600 On ch=3 n=75 v=66
450600 On ch=3 n=69 v=70
450600 On ch=3 n=65 v=66
450645 Off ch=3 n=84 v=64
450645 Off ch=3 n=65 v=64
450645 Off ch=3 n=69 v=64
450645 Off ch=3 n=75 v=64
450645 Off ch=3 n=79 v=64
450840 On ch=3 n=82 v=68
450840 On ch=3 n=77 v=70
450960 Off ch=3 n=82 v=64
450960 Off ch=3 n=77 v=64
450960 On ch=3 n=82 v=79
450960 On ch=3 n=77 v=76
451080 Off ch=3 n=82 v=64
451080 Off ch=3 n=77 v=64
451320 On ch=3 n=84 v=71
451320 On ch=3 n=79 v=70
451320 On ch=3 n=75 v=72
451320 On ch=3 n=69 v=78
451320 On ch=3 n=65 v=67
451560 Off ch=3 n=84 v=64
451560 Off ch=3 n=65 v=64
451560 Off ch=3 n=69 v=64
451560 Off ch=3 n=75 v=64
451560 Off ch=3 n=79 v=64
451560 On ch=3 n=84 v=72
451560 On ch=3 n=79 v=66
451560 On ch=3 n=75 v=74
451560 On ch=3 n=69 v=77
451560 On ch=3 n=65 v=68
451605 Off ch=3 n=84 v=64
451605 Off ch=3 n=65 v=64
451605 Off ch=3 n=69 v=64
451605 Off ch=3 n=75 v=64
451605 Off ch=3 n=79 v=64
451680 On ch=3 n=84 v=68
451680 On ch=3 n=79 v=68
451680 On ch=3 n=75 v=79
451680 On ch=3 n=69 v=66
451680 On ch=3 n=65 v=66
451725 Off ch=3 n=84 v=64
451725 Off ch=3 n=65 v=64
451725 Off ch=3 n=69 v=64
451725 Off ch=3 n=75 v=64
451725 Off ch=3 n=79 v=64
451800 On ch=3 n=84 v=66
451800 On ch=3 n=79 v=72
451800 On ch=3 n=75 v=79
451800 On ch=3 n=69 v=66
451800 On ch=3 n=65 v=66
452040 Off ch=3 n=84 v=64
452040 Off ch=3 n=65 v=64
452040 Off ch=3 n=69 v=64
452040 Off ch=3 n=75 v=64
452040 Off ch=3 n=79 v=64
452040 On ch=3 n=84 v=68
452040 On ch=3 n=79 v=66
452040 On ch=3 n=75 v=76
452040 On ch=3 n=69 v=70
452040 On ch=3 n=65 v=66
452160 Off ch=3 n=84 v=64
452160 Off ch=3 n=65 v=64
452160 Off ch=3 n=69 v=64
452160 Off ch=3 n=75 v=64
452160 Off ch=3 n=79 v=64
452160 On ch=3 n=84 v=66
452160 On ch=3 n=79 v=72
452160 On ch=3 n=75 v=76
452160 On ch=3 n=69 v=76
452160 On ch=3 n=65 v=73
452280 Off ch=3 n=84 v=64
452280 Off ch=3 n=65 v=64
452280 Off ch=3 n=69 v=64
452280 Off ch=3 n=75 v=64
452280 Off ch=3 n=79 v=64
452280 On ch=3 n=84 v=73
452280 On ch=3 n=79 v=76
452280 On ch=3 n=75 v=71
452280 On ch=3 n=69 v=74
452280 On ch=3 n=65 v=67
452520 Off ch=3 n=84 v=64
452520 Off ch=3 n=65 v=64
452520 Off ch=3 n=69 v=64
452520 Off ch=3 n=75 v=64
452520 Off ch=3 n=79 v=64
452520 On ch=3 n=84 v=78
452520 On ch=3 n=79 v=73
452520 On ch=3 n=75 v=69
452520 On ch=3 n=69 v=66
452520 On ch=3 n=65 v=77
452565 Off ch=3 n=84 v=64
452565 Off ch=3 n=65 v=64
452565 Off ch=3 n=69 v=64
452565 Off ch=3 n=75 v=64
452565 Off ch=3 n=79 v=64
452640 On ch=3 n=84 v=76
452640 On ch=3 n=79 v=77
452640 On ch=3 n=75 v=79
452640 On ch=3 n=69 v=77
452640 On ch=3 n=65 v=66
452685 Off ch=3 n=84 v=64
452685 Off ch=3 n=65 v=64
452685 Off ch=3 n=69 v=64
452685 Off ch=3 n=75 v=64
452685 Off ch=3 n=79 v=64
452760 On ch=3 n=84 v=69
452760 On ch=3 n=79 v=73
452760 On ch=3 n=75 v=79
452760 On ch=3 n=69 v=72
452760 On ch=3 n=65 v=77
453000 Off ch=3 n=84 v=64
453000 Off ch=3 n=65 v=64
453000 Off ch=3 n=69 v=64
453000 Off ch=3 n=75 v=64
453000 Off ch=3 n=79 v=64
453240 On ch=3 n=84 v=74
453240 On ch=3 n=79 v=73
453240 On ch=3 n=75 v=79
453240 On ch=3 n=69 v=66
453240 On ch=3 n=65 v=76
453285 Off ch=3 n=84 v=64
453285 Off ch=3 n=65 v=64
453285 Off ch=3 n=69 v=64
453285 Off ch=3 n=75 v=64
453285 Off ch=3 n=79 v=64
453480 On ch=3 n=84 v=77
453480 On ch=3 n=79 v=77
453480 On ch=3 n=75 v=76
453480 On ch=3 n=69 v=73
453480 On ch=3 n=65 v=74
453525 Off ch=3 n=84 v=64
453525 Off ch=3 n=65 v=64
453525 Off ch=3 n=69 v=64
453525 Off ch=3 n=75 v=64
453525 Off ch=3 n=79 v=64
453720 On ch=3 n=82 v=68
453720 On ch=3 n=77 v=68
453840 Off ch=3 n=82 v=64
453840 Off ch=3 n=77 v=64
453840 On ch=3 n=82 v=68
453840 On ch=3 n=77 v=79
453960 Off ch=3 n=82 v=64
453960 Off ch=3 n=77 v=64
454200 On ch=3 n=84 v=76
454200 On ch=3 n=79 v=75
454200 On ch=3 n=75 v=75
454200 On ch=3 n=69 v=77
454200 On ch=3 n=65 v=70
454440 Off ch=3 n=84 v=64
454440 Off ch=3 n=65 v=64
454440 Off ch=3 n=69 v=64
454440 Off ch=3 n=75 v=64
454440 Off ch=3 n=79 v=64
454440 On ch=3 n=84 v=72
454440 On ch=3 n=79 v=68
454440 On ch=3 n=75 v=79
454440 On ch=3 n=69 v=79
454440 On ch=3 n=65 v=75
454485 Off ch=3 n=84 v=64
454485 Off ch=3 n=65 v=64
454485 Off ch=3 n=69 v=64
454485 Off ch=3 n=75 v=64
454485 Off ch=3 n=79 v=64
454560 On ch=3 n=84 v=75
454560 On ch=3 n=79 v=72
454560 On ch=3 n=75 v=66
454560 On ch=3 n=69 v=67
454560 On ch=3 n=65 v=68
454605 Off ch=3 n=84 v=64
454605 Off ch=3 n=65 v=64
454605 Off ch=3 n=69 v=64
454605 Off ch=3 n=75 v=64
454605 Off ch=3 n=79 v=64
454680 On ch=3 n=84 v=72
454680 On ch=3 n=79 v=74
454680 On ch=3 n=75 v=78
454680 On ch=3 n=69 v=75
454680 On ch=3 n=65 v=74
454920 Off ch=3 n=84 v=64
454920 Off ch=3 n=65 v=64
454920 Off ch=3 n=69 v=64
454920 Off ch=3 n=75 v=64
454920 Off ch=3 n=79 v=64
454920 On ch=3 n=84 v=78
454920 On ch=3 n=79 v=76
454920 On ch=3 n=75 v=74
454920 On ch=3 n=69 v=69
454920 On ch=3 n=65 v=69
455040 Off ch=3 n=84 v=64
455040 Off ch=3 n=65 v=64
455040 Off ch=3 n=69 v=64
455040 Off ch=3 n=75 v=64
455040 Off ch=3 n=79 v=64
455040 On ch=3 n=84 v=77
455040 On ch=3 n=79 v=70
455040 On ch=3 n=75 v=66
455040 On ch=3 n=69 v=66
455040 On ch=3 n=65 v=79
455160 Off ch=3 n=84 v=64
455160 Off ch=3 n=65 v=64
455160 Off ch=3 n=69 v=64
455160 Off ch=3 n=75 v=64
455160 Off ch=3 n=79 v=64
455160 On ch=3 n=84 v=72
455160 On ch=3 n=79 v=66
455160 On ch=3 n=75 v=71
455160 On ch=3 n=69 v=76
455160 On ch=3 n=65 v=77
455400 Off ch=3 n=84 v=64
455400 Off ch=3 n=65 v=64
455400 Off ch=3 n=69 v=64
455400 Off ch=3 n=75 v=64
455400 Off ch=3 n=79 v=64
455400 On ch=3 n=84 v=68
455400 On ch=3 n=79 v=66
455400 On ch=3 n=75 v=69
455400 On ch=3 n=69 v=73
455400 On ch=3 n=65 v=66
455445 Off ch=3 n=84 v=64
455445 Off ch=3 n=65 v=64
455445 Off ch=3 n=69 v=64
455445 Off ch=3 n=75 v=64
455445 Off ch=3 n=79 v=64
455520 On ch=3 n=84 v=67
455520 On ch=3 n=79 v=69
455520 On ch=3 n=75 v=66
455520 On ch=3 n=69 v=78
455520 On ch=3 n=65 v=66
455565 Off ch=3 n=84 v=64
455565 Off ch=3 n=65 v=64
455565 Off ch=3 n=69 v=64
455565 Off ch=3 n=75 v=64
455565 Off ch=3 n=79 v=64
455640 On ch=3 n=84 v=68
455640 On ch=3 n=79 v=77
455640 On ch=3 n=75 v=68
455640 On ch=3 n=69 v=73
455640 On ch=3 n=65 v=68
455880 Off ch=3 n=84 v=64
455880 Off ch=3 n=65 v=64
455880 Off ch=3 n=69 v=64
455880 Off ch=3 n=75 v=64
455880 Off ch=3 n=79 v=64
456120 On ch=3 n=84 v=71
456120 On ch=3 n=79 v=72
456120 On ch=3 n=75 v=66
456120 On ch=3 n=69 v=68
456120 On ch=3 n=65 v=66
456165 Off ch=3 n=84 v=64
456165 Off ch=3 n=65 v=64
456165 Off ch=3 n=69 v=64
456165 Off ch=3 n=75 v=64
456165 Off ch=3 n=79 v=64
456360 On ch=3 n=84 v=72
456360 On ch=3 n=79 v=79
456360 On ch=3 n=75 v=66
456360 On ch=3 n=69 v=72
456360 On ch=3 n=65 v=67
456405 Off ch=3 n=84 v=64
456405 Off ch=3 n=65 v=64
456405 Off ch=3 n=69 v=64
456405 Off ch=3 n=75 v=64
456405 Off ch=3 n=79 v=64
456600 On ch=3 n=82 v=67
456600 On ch=3 n=77 v=74
456720 Off ch=3 n=82 v=64
456720 Off ch=3 n=77 v=64
456720 On ch=3 n=82 v=74
456720 On ch=3 n=77 v=72
456840 Off ch=3 n=82 v=64
456840 Off ch=3 n=77 v=64
457080 On ch=3 n=84 v=75
457080 On ch=3 n=79 v=73
457080 On ch=3 n=75 v=70
457080 On ch=3 n=69 v=71
457080 On ch=3 n=65 v=77
457320 Off ch=3 n=84 v=64
457320 Off ch=3 n=65 v=64
457320 Off ch=3 n=69 v=64
457320 Off ch=3 n=75 v=64
457320 Off ch=3 n=79 v=64
457320 On ch=3 n=84 v=73
457320 On ch=3 n=79 v=66
457320 On ch=3 n=75 v=79
457320 On ch=3 n=69 v=69
457320 On ch=3 n=65 v=70
457365 Off ch=3 n=84 v=64
457365 Off ch=3 n=65 v=64
457365 Off ch=3 n=69 v=64
457365 Off ch=3 n=75 v=64
457365 Off ch=3 n=79 v=64
457440 On ch=3 n=84 v=68
457440 On ch=3 n=79 v=67
457440 On ch=3 n=75 v=74
457440 On ch=3 n=69 v=75
457440 On ch=3 n=65 v=67
457485 Off ch=3 n=84 v=64
457485 Off ch=3 n=65 v=64
457485 Off ch=3 n=69 v=64
457485 Off ch=3 n=75 v=64
457485 Off ch=3 n=79 v=64
457560 On ch=3 n=84 v=71
457560 On ch=3 n=79 v=73
457560 On ch=3 n=75 v=77
457560 On ch=3 n=69 v=71
457560 On ch=3 n=65 v=75
457800 Off ch=3 n=84 v=64
457800 Off ch=3 n=65 v=64
457800 Off ch=3 n=69 v=64
457800 Off ch=3 n=75 v=64
457800 Off ch=3 n=79 v=64
457800 On ch=3 n=84 v=73
457800 On ch=3 n=79 v=78
457800 On ch=3 n=75 v=71
457800 On ch=3 n=69 v=66
457800 On ch=3 n=65 v=70
457920 Off ch=3 n=84 v=64
457920 Off ch=3 n=65 v=64
457920 Off ch=3 n=69 v=64
457920 Off ch=3 n=75 v=64
457920 Off ch=3 n=79 v=64
457920 On ch=3 n=84 v=70
457920 On ch=3 n=79 v=70
457920 On ch=3 n=75 v=79
457920 On ch=3 n=69 v=76
457920 On ch=3 n=65 v=77
458040 Off ch=3 n=84 v=64
458040 Off ch=3 n=65 v=64
458040 Off ch=3 n=69 v=64
458040 Off ch=3 n=75 v=64
458040 Off ch=3 n=79 v=64
458040 On ch=3 n=84 v=71
458040 On ch=3 n=79 v=71
458040 On ch=3 n=75 v=79
458040 On ch=3 n=69 v=66
458040 On ch=3 n=65 v=76
458280 Off ch=3 n=84 v=64
458280 Off ch=3 n=65 v=64
458280 Off ch=3 n=69 v=64
458280 Off ch=3 n=75 v=64
458280 Off ch=3 n=79 v=64
458280 On ch=3 n=84 v=75
458280 On ch=3 n=79 v=73
458280 On ch=3 n=75 v=75
458280 On ch=3 n=69 v=72
458280 On ch=3 n=65 v=70
458325 Off ch=3 n=84 v=64
458325 Off ch=3 n=65 v=64
458325 Off ch=3 n=69 v=64
458325 Off ch=3 n=75 v=64
458325 Off ch=3 n=79 v=64
458400 On ch=3 n=84 v=67
458400 On ch=3 n=79 v=68
458400 On ch=3 n=75 v=74
458400 On ch=3 n=69 v=66
458400 On ch=3 n=65 v=66
458445 Off ch=3 n=84 v=64
458445 Off ch=3 n=65 v=64
458445 Off ch=3 n=69 v=64
458445 Off ch=3 n=75 v=64
458445 Off ch=3 n=79 v=64
458520 On ch=3 n=84 v=66
458520 On ch=3 n=79 v=72
458520 On ch=3 n=75 v=68
458520 On ch=3 n=69 v=67
458520 On ch=3 n=65 v=73
458760 Off ch=3 n=84 v=64
458760 Off ch=3 n=65 v=64
458760 Off ch=3 n=69 v=64
458760 Off ch=3 n=75 v=64
458760 Off ch=3 n=79 v=64
459000 On ch=3 n=84 v=70
459000 On ch=3 n=79 v=66
459000 On ch=3 n=75 v=79
459000 On ch=3 n=69 v=71
459000 On ch=3 n=65 v=66
459045 Off ch=3 n=84 v=64
459045 Off ch=3 n=65 v=64
459045 Off ch=3 n=69 v=64
459045 Off ch=3 n=75 v=64
459045 Off ch=3 n=79 v=64
459240 On ch=3 n=84 v=79
459240 On ch=3 n=79 v=76
459240 On ch=3 n=75 v=66
459240 On ch=3 n=69 v=66
459240 On ch=3 n=65 v=67
459285 Off ch=3 n=84 v=64
459285 Off ch=3 n=65 v=64
459285 Off ch=3 n=69 v=64
459285 Off ch=3 n=75 v=64
459285 Off ch=3 n=79 v=64
459480 On ch=3 n=82 v=70
459480 On ch=3 n=77 v=71
459600 Off ch=3 n=82 v=64
459600 Off ch=3 n=77 v=64
459600 On ch=3 n=82 v=74
459600 On ch=3 n=77 v=69
459720 Off ch=3 n=82 v=64
459720 Off ch=3 n=77 v=64
459960 On ch=3 n=84 v=77
459960 On ch=3 n=79 v=78
459960 On ch=3 n=75 v=74
459960 On ch=3 n=69 v=68
459960 On ch=3 n=65 v=66
460200 Off ch=3 n=84 v=64
460200 Off ch=3 n=65 v=64
460200 Off ch=3 n=69 v=64
460200 Off ch=3 n=75 v=64
460200 Off ch=3 n=79 v=64
460200 On ch=3 n=84 v=78
460200 On ch=3 n=79 v=66
460200 On ch=3 n=75 v=70
460200 On ch=3 n=69 v=68
460200 On ch=3 n=65 v=74
460245 Off ch=3 n=84 v=64
460245 Off ch=3 n=65 v=64
460245 Off ch=3 n=69 v=64
460245 Off ch=3 n=75 v=64
460245 Off ch=3 n=79 v=64
460320 On ch=3 n=84 v=66
460320 On ch=3 n=79 v=74
460320 On ch=3 n=75 v=66
460320 On ch=3 n=69 v=66
460320 On ch=3 n=65 v=74
460365 Off ch=3 n=84 v=64
460365 Off ch=3 n=65 v=64
460365 Off ch=3 n=69 v=64
460365 Off ch=3 n=75 v=64
460365 Off ch=3 n=79 v=64
460440 On ch=3 n=84 v=69
460440 On ch=3 n=79 v=70
460440 On ch=3 n=75 v=73
460440 On ch=3 n=69 v=66
460440 On ch=3 n=65 v=73
460680 Off ch=3 n=84 v=64
460680 Off ch=3 n=65 v=64
460680 Off ch=3 n=69 v=64
460680 Off ch=3 n=75 v=64
460680 Off ch=3 n=79 v=64
460680 On ch=3 n=84 v=75
460680 On ch=3 n=79 v=66
460680 On ch=3 n=75 v=77
460680 On ch=3 n=69 v=66
460680 On ch=3 n=65 v=75
460800 Off ch=3 n=84 v=64
460800 Off ch=3 n=65 v=64
460800 Off ch=3 n=69 v=64
460800 Off ch=3 n=75 v=64
460800 Off ch=3 n=79 v=64
460800 On ch=3 n=84 v=66
460800 On ch=3 n=79 v=79
460800 On ch=3 n=75 v=72
460800 On ch=3 n=69 v=73
460800 On ch=3 n=65 v=71
460920 Off ch=3 n=84 v=64
460920 Off ch=3 n=65 v=64
460920 Off ch=3 n=69 v=64
460920 Off ch=3 n=75 v=64
460920 Off ch=3 n=79 v=64
460920 On ch=3 n=84 v=70
460920 On ch=3 n=79 v=73
460920 On ch=3 n=75 v=78
460920 On ch=3 n=69 v=78
460920 On ch=3 n=65 v=72
461160 Off ch=3 n=84 v=64
461160 Off ch=3 n=65 v=64
461160 Off ch=3 n=69 v=64
461160 Off ch=3 n=75 v=64
461160 Off ch=3 n=79 v=64
461160 On ch=3 n=84 v=74
461160 On ch=3 n=79 v=66
461160 On ch=3 n=75 v=72
461160 On ch=3 n=69 v=68
461160 On ch=3 n=65 v=74
461205 Off ch=3 n=84 v=64
461205 Off ch=3 n=65 v=64
461205 Off ch=3 n=69 v=64
461205 Off ch=3 n=75 v=64
461205 Off ch=3 n=79 v=64
461280 On ch=3 n=84 v=75
461280 On ch=3 n=79 v=79
461280 On ch=3 n=75 v=72
461280 On ch=3 n=69 v=68
461280 On ch=3 n=65 v=67
461325 Off ch=3 n=84 v=64
461325 Off ch=3 n=65 v=64
461325 Off ch=3 n=69 v=64
461325 Off ch=3 n=75 v=64
461325 Off ch=3 n=79 v=64
461400 On ch=3 n=84 v=74
461400 On ch=3 n=79 v=67
461400 On ch=3 n=75 v=66
461400 On ch=3 n=69 v=68
461400 On ch=3 n=65 v=68
461640 Off ch=3 n=84 v=64
461640 Off ch=3 n=65 v=64
461640 Off ch=3 n=69 v=64
461640 Off ch=3 n=75 v=64
461640 Off ch=3 n=79 v=64
461880 On ch=3 n=84 v=76
461880 On ch=3 n=79 v=68
461880 On ch=3 n=75 v=68
461880 On ch=3 n=69 v=77
461880 On ch=3 n=65 v=70
461925 Off ch=3 n=84 v=64
461925 Off ch=3 n=65 v=64
461925 Off ch=3 n=69 v=64
461925 Off ch=3 n=75 v=64
461925 Off ch=3 n=79 v=64
462120 On ch=3 n=84 v=66
462120 On ch=3 n=79 v=73
462120 On ch=3 n=75 v=75
462120 On ch=3 n=69 v=66
462120 On ch=3 n=65 v=71
462165 Off ch=3 n=84 v=64
462165 Off ch=3 n=65 v=64
462165 Off ch=3 n=69 v=64
462165 Off ch=3 n=75 v=64
462165 Off ch=3 n=79 v=64
462360 On ch=3 n=82 v=73
462360 On ch=3 n=77 v=68
462480 Off ch=3 n=82 v=64
462480 Off ch=3 n=77 v=64
462480 On ch=3 n=82 v=66
462480 On ch=3 n=77 v=67
462600 Off ch=3 n=82 v=64
462600 Off ch=3 n=77 v=64
462840 On ch=3 n=84 v=68
462840 On ch=3 n=79 v=78
462840 On ch=3 n=75 v=75
462840 On ch=3 n=69 v=72
462840 On ch=3 n=65 v=66
463080 Off ch=3 n=84 v=64
463080 Off ch=3 n=65 v=64
463080 Off ch=3 n=69 v=64
463080 Off ch=3 n=75 v=64
463080 Off ch=3 n=79 v=64
463080 On ch=3 n=84 v=70
463080 On ch=3 n=79 v=71
463080 On ch=3 n=75 v=72
463080 On ch=3 n=69 v=66
463080 On ch=3 n=65 v=77
463125 Off ch=3 n=84 v=64
463125 Off ch=3 n=65 v=64
463125 Off ch=3 n=69 v=64
463125 Off ch=3 n=75 v=64
463125 Off ch=3 n=79 v=64
463200 On ch=3 n=84 v=77
463200 On ch=3 n=79 v=66
463200 On ch=3 n=75 v=66
463200 On ch=3 n=69 v=66
463200 On ch=3 n=65 v=79
463245 Off ch=3 n=84 v=64
463245 Off ch=3 n=65 v=64
463245 Off ch=3 n=69 v=64
463245 Off ch=3 n=75 v=64
463245 Off ch=3 n=79 v=64
463320 On ch=3 n=84 v=68
463320 On ch=3 n=79 v=68
463320 On ch=3 n=75 v=74
463320 On ch=3 n=69 v=78
463320 On ch=3 n=65 v=69
463560 Off ch=3 n=84 v=64
463560 Off ch=3 n=65 v=64
463560 Off ch=3 n=69 v=64
463560 Off ch=3 n=75 v=64
463560 Off ch=3 n=79 v=64
463560 On ch=3 n=84 v=67
463560 On ch=3 n=79 v=68
463560 On ch=3 n=75 v=66
463560 On ch=3 n=69 v=66
463560 On ch=3 n=65 v=66
463680 Off ch=3 n=84 v=64
463680 Off ch=3 n=65 v=64
463680 Off ch=3 n=69 v=64
463680 Off ch=3 n=75 v=64
463680 Off ch=3 n=79 v=64
463680 On ch=3 n=84 v=66
463680 On ch=3 n=79 v=68
463680 On ch=3 n=75 v=77
463680 On ch=3 n=69 v=66
463680 On ch=3 n=65 v=74
463800 Off ch=3 n=84 v=64
463800 Off ch=3 n=65 v=64
463800 Off ch=3 n=69 v=64
463800 Off ch=3 n=75 v=64
463800 Off ch=3 n=79 v=64
463800 On ch=3 n=84 v=72
463800 On ch=3 n=79 v=72
463800 On ch=3 n=75 v=67
463800 On ch=3 n=69 v=78
463800 On ch=3 n=65 v=74
464040 Off ch=3 n=84 v=64
464040 Off ch=3 n=65 v=64
464040 Off ch=3 n=69 v=64
464040 Off ch=3 n=75 v=64
464040 Off ch=3 n=79 v=64
464040 On ch=3 n=84 v=66
464040 On ch=3 n=79 v=74
464040 On ch=3 n=75 v=76
464040 On ch=3 n=69 v=66
464040 On ch=3 n=65 v=66
464085 Off ch=3 n=84 v=64
464085 Off ch=3 n=65 v=64
464085 Off ch=3 n=69 v=64
464085 Off ch=3 n=75 v=64
464085 Off ch=3 n=79 v=64
464160 On ch=3 n=84 v=71
464160 On ch=3 n=79 v=70
464160 On ch=3 n=75 v=72
464160 On ch=3 n=69 v=70
464160 On ch=3 n=65 v=72
464205 Off ch=3 n=84 v=64
464205 Off ch=3 n=65 v=64
464205 Off ch=3 n=69 v=64
464205 Off ch=3 n=75 v=64
464205 Off ch=3 n=79 v=64
464280 On ch=3 n=84 v=72
464280 On ch=3 n=79 v=75
464280 On ch=3 n=75 v=74
464280 On ch=3 n=69 v=74
464280 On ch=3 n=65 v=68
464520 Off ch=3 n=84 v=64
464520 Off ch=3 n=65 v=64
464520 Off ch=3 n=69 v=64
464520 Off ch=3 n=75 v=64
464520 Off ch=3 n=79 v=64
464760 On ch=3 n=84 v=66
464760 On ch=3 n=79 v=67
464760 On ch=3 n=75 v=72
464760 On ch=3 n=69 v=76
464760 On ch=3 n=65 v=74
464805 Off ch=3 n=84 v=64
464805 Off ch=3 n=65 v=64
464805 Off ch=3 n=69 v=64
464805 Off ch=3 n=75 v=64
464805 Off ch=3 n=79 v=64
465000 On ch=3 n=84 v=66
465000 On ch=3 n=79 v=73
465000 On ch=3 n=75 v=67
465000 On ch=3 n=69 v=66
465000 On ch=3 n=65 v=69
465045 Off ch=3 n=84 v=64
465045 Off ch=3 n=65 v=64
465045 Off ch=3 n=69 v=64
465045 Off ch=3 n=75 v=64
465045 Off ch=3 n=79 v=64
465240 On ch=3 n=82 v=77
465240 On ch=3 n=77 v=78
465360 Off ch=3 n=82 v=64
465360 Off ch=3 n=77 v=64
465360 On ch=3 n=82 v=79
465360 On ch=3 n=77 v=66
465480 Off ch=3 n=82 v=64
465480 Off ch=3 n=77 v=64
465720 On ch=3 n=84 v=66
465720 On ch=3 n=79 v=66
465720 On ch=3 n=75 v=66
465720 On ch=3 n=69 v=66
465720 On ch=3 n=65 v=72
465960 Off ch=3 n=84 v=64
465960 Off ch=3 n=65 v=64
465960 Off ch=3 n=69 v=64
465960 Off ch=3 n=75 v=64
465960 Off ch=3 n=79 v=64
465960 On ch=3 n=84 v=66
465960 On ch=3 n=79 v=73
465960 On ch=3 n=75 v=75
465960 On ch=3 n=69 v=70
465960 On ch=3 n=65 v=71
466005 Off ch=3 n=84 v=64
466005 Off ch=3 n=65 v=64
466005 Off ch=3 n=69 v=64
466005 Off ch=3 n=75 v=64
466005 Off ch=3 n=79 v=64
466080 On ch=3 n=84 v=70
466080 On ch=3 n=79 v=79
466080 On ch=3 n=75 v=76
466080 On ch=3 n=69 v=68
466080 On ch=3 n=65 v=74
466125 Off ch=3 n=84 v=64
466125 Off ch=3 n=65 v=64
466125 Off ch=3 n=69 v=64
466125 Off ch=3 n=75 v=64
466125 Off ch=3 n=79 v=64
466200 On ch=3 n=84 v=66
466200 On ch=3 n=79 v=66
466200 On ch=3 n=75 v=75
466200 On ch=3 n=69 v=70
466200 On ch=3 n=65 v=67
466440 Off ch=3 n=84 v=64
466440 Off ch=3 n=65 v=64
466440 Off ch=3 n=69 v=64
466440 Off ch=3 n=75 v=64
466440 Off ch=3 n=79 v=64
466440 On ch=3 n=84 v=79
466440 On ch=3 n=79 v=79
466440 On ch=3 n=75 v=77
466440 On ch=3 n=69 v=73
466440 On ch=3 n=65 v=78
466560 Off ch=3 n=84 v=64
466560 Off ch=3 n=65 v=64
466560 Off ch=3 n=69 v=64
466560 Off ch=3 n=75 v=64
466560 Off ch=3 n=79 v=64
466560 On ch=3 n=84 v=79
466560 On ch=3 n=79 v=71
466560 On ch=3 n=75 v=76
466560 On ch=3 n=69 v=78
466560 On ch=3 n=65 v=71
466680 Off ch=3 n=84 v=64
466680 Off ch=3 n=65 v=64
466680 Off ch=3 n=69 v=64
466680 Off ch=3 n=75 v=64
466680 Off ch=3 n=79 v=64
466680 On ch=3 n=84 v=71
466680 On ch=3 n=79 v=79
466680 On ch=3 n=75 v=67
466680 On ch=3 n=69 v=68
466680 On ch=3 n=65 v=75
466920 Off ch=3 n=84 v=64
466920 Off ch=3 n=65 v=64
466920 Off ch=3 n=69 v=64
466920 Off ch=3 n=75 v=64
466920 Off ch=3 n=79 v=64
466920 On ch=3 n=84 v=78
466920 On ch=3 n=79 v=75
466920 On ch=3 n=75 v=66
466920 On ch=3 n=69 v=78
466920 On ch=3 n=65 v=72
466965 Off ch=3 n=84 v=64
466965 Off ch=3 n=65 v=64
466965 Off ch=3 n=69 v=64
466965 Off ch=3 n=75 v=64
466965 Off ch=3 n=79 v=64
467040 On ch=3 n=84 v=75
467040 On ch=3 n=79 v=67
467040 On ch=3 n=75 v=66
467040 On ch=3 n=69 v=66
467040 On ch=3 n=65 v=78
467085 Off ch=3 n=84 v=64
467085 Off ch=3 n=65 v=64
467085 Off ch=3 n=69 v=64
467085 Off ch=3 n=75 v=64
467085 Off ch=3 n=79 v=64
467160 On ch=3 n=84 v=73
467160 On ch=3 n=79 v=78
467160 On ch=3 n=75 v=79
467160 On ch=3 n=69 v=79
467160 On ch=3 n=65 v=66
467400 Off ch=3 n=84 v=64
467400 Off ch=3 n=65 v=64
467400 Off ch=3 n=69 v=64
467400 Off ch=3 n=75 v=64
467400 Off ch=3 n=79 v=64
467640 On ch=3 n=84 v=73
467640 On ch=3 n=79 v=66
467640 On ch=3 n=75 v=71
467640 On ch=3 n=69 v=79
467640 On ch=3 n=65 v=70
467685 Off ch=3 n=84 v=64
467685 Off ch=3 n=65 v=64
467685 Off ch=3 n=69 v=64
467685 Off ch=3 n=75 v=64
467685 Off ch=3 n=79 v=64
467880 On ch=3 n=84 v=73
467880 On ch=3 n=79 v=66
467880 On ch=3 n=75 v=72
467880 On ch=3 n=69 v=66
467880 On ch=3 n=65 v=72
467925 Off ch=3 n=84 v=64
467925 Off ch=3 n=65 v=64
467925 Off ch=3 n=69 v=64
467925 Off ch=3 n=75 v=64
467925 Off ch=3 n=79 v=64
468120 On ch=3 n=82 v=66
468120 On ch=3 n=77 v=67
468240 Off ch=3 n=82 v=64
468240 Off ch=3 n=77 v=64
468240 On ch=3 n=82 v=77
468240 On ch=3 n=77 v=79
468360 Off ch=3 n=82 v=64
468360 Off ch=3 n=77 v=64
468600 On ch=3 n=84 v=78
468600 On ch=3 n=79 v=66
468600 On ch=3 n=75 v=66
468600 On ch=3 n=69 v=75
468600 On ch=3 n=65 v=66
468840 Off ch=3 n=84 v=64
468840 Off ch=3 n=65 v=64
468840 Off ch=3 n=69 v=64
468840 Off ch=3 n=75 v=64
468840 Off ch=3 n=79 v=64
468840 On ch=3 n=84 v=67
468840 On ch=3 n=79 v=72
468840 On ch=3 n=75 v=66
468840 On ch=3 n=69 v=66
468840 On ch=3 n=65 v=69
468885 Off ch=3 n=84 v=64
468885 Off ch=3 n=65 v=64
468885 Off ch=3 n=69 v=64
468885 Off ch=3 n=75 v=64
468885 Off ch=3 n=79 v=64
468960 On ch=3 n=84 v=78
468960 On ch=3 n=79 v=66
468960 On ch=3 n=75 v=70
468960 On ch=3 n=69 v=72
468960 On ch=3 n=65 v=79
469005 Off ch=3 n=84 v=64
469005 Off ch=3 n=65 v=64
469005 Off ch=3 n=69 v=64
469005 Off ch=3 n=75 v=64
469005 Off ch=3 n=79 v=64
469080 On ch=3 n=84 v=70
469080 On ch=3 n=79 v=68
469080 On ch=3 n=75 v=76
469080 On ch=3 n=69 v=73
469080 On ch=3 n=65 v=76
469320 Off ch=3 n=84 v=64
469320 Off ch=3 n=65 v=64
469320 Off ch=3 n=69 v=64
469320 Off ch=3 n=75 v=64
469320 Off ch=3 n=79 v=64
469320 On ch=3 n=84 v=78
469320 On ch=3 n=79 v=71
469320 On ch=3 n=75 v=66
469320 On ch=3 n=69 v=79
469320 On ch=3 n=65 v=72
469440 Off ch=3 n=84 v=64
469440 Off ch=3 n=65 v=64
469440 Off ch=3 n=69 v=64
469440 Off ch=3 n=75 v=64
469440 Off ch=3 n=79 v=64
469440 On ch=3 n=84 v=73
469440 On ch=3 n=79 v=71
469440 On ch=3 n=75 v=76
469440 On ch=3 n=69 v=69
469440 On ch=3 n=65 v=68
469560 Off ch=3 n=84 v=64
469560 Off ch=3 n=65 v=64
469560 Off ch=3 n=69 v=64
469560 Off ch=3 n=75 v=64
469560 Off ch=3 n=79 v=64
469560 On ch=3 n=84 v=78
469560 On ch=3 n=79 v=72
469560 On ch=3 n=75 v=71
469560 On ch=3 n=69 v=74
469560 On ch=3 n=65 v=69
469800 Off ch=3 n=84 v=64
469800 Off ch=3 n=65 v=64
469800 Off ch=3 n=69 v=64
469800 Off ch=3 n=75 v=64
469800 Off ch=3 n=79 v=64
469800 On ch=3 n=84 v=66
469800 On ch=3 n=79 v=68
469800 On ch=3 n=75 v=66
469800 On ch=3 n=69 v=72
469800 On ch=3 n=65 v=70
469845 Off ch=3 n=84 v=64
469845 Off ch=3 n=65 v=64
469845 Off ch=3 n=69 v=64
469845 Off ch=3 n=75 v=64
469845 Off ch=3 n=79 v=64
469920 On ch=3 n=84 v=75
469920 On ch=3 n=79 v=67
469920 On ch=3 n=75 v=75
469920 On ch=3 n=69 v=78
469920 On ch=3 n=65 v=76
469965 Off ch=3 n=84 v=64
469965 Off ch=3 n=65 v=64
469965 Off ch=3 n=69 v=64
469965 Off ch=3 n=75 v=64
469965 Off ch=3 n=79 v=64
470040 On ch=3 n=84 v=66
470040 On ch=3 n=79 v=71
470040 On ch=3 n=75 v=66
470040 On ch=3 n=69 v=77
470040 On ch=3 n=65 v=67
470280 Off ch=3 n=84 v=64
470280 Off ch=3 n=65 v=64
470280 Off ch=3 n=69 v=64
470280 Off ch=3 n=75 v=64
470280 Off ch=3 n=79 v=64
470520 On ch=3 n=84 v=74
470520 On ch=3 n=79 v=66
470520 On ch=3 n=75 v=74
470520 On ch=3 n=69 v=69
470520 On ch=3 n=65 v=73
470565 Off ch=3 n=84 v=64
470565 Off ch=3 n=65 v=64
470565 Off ch=3 n=69 v=64
470565 Off ch=3 n=75 v=64
470565 Off ch=3 n=79 v=64
470760 On ch=3 n=84 v=70
470760 On ch=3 n=79 v=66
470760 On ch=3 n=75 v=77
470760 On ch=3 n=69 v=71
470760 On ch=3 n=65 v=75
470805 Off ch=3 n=84 v=64
470805 Off ch=3 n=65 v=64
470805 Off ch=3 n=69 v=64
470805 Off ch=3 n=75 v=64
470805 Off ch=3 n=79 v=64
471000 On ch=3 n=82 v=68
471000 On ch=3 n=77 v=76
471120 Off ch=3 n=82 v=64
471120 Off ch=3 n=77 v=64
471120 On ch=3 n=82 v=66
471120 On ch=3 n=77 v=66
471240 Off ch=3 n=82 v=64
471240 Off ch=3 n=77 v=64
471480 On ch=3 n=84 v=78
471480 On ch=3 n=79 v=70
471480 On ch=3 n=75 v=73
471480 On ch=3 n=69 v=75
471480 On ch=3 n=65 v=72
471720 Off ch=3 n=84 v=64
471720 Off ch=3 n=65 v=64
471720 Off ch=3 n=69 v=64
471720 Off ch=3 n=75 v=64
471720 Off ch=3 n=79 v=64
471720 On ch=3 n=84 v=66
471720 On ch=3 n=79 v=77
471720 On ch=3 n=75 v=78
471720 On ch=3 n=69 v=68
471720 On ch=3 n=65 v=70
471765 Off ch=3 n=84 v=64
471765 Off ch=3 n=65 v=64
471765 Off ch=3 n=69 v=64
471765 Off ch=3 n=75 v=64
471765 Off ch=3 n=79 v=64
471840 On ch=3 n=84 v=75
471840 On ch=3 n=79 v=66
471840 On ch=3 n=75 v=76
471840 On ch=3 n=69 v=71
471840 On ch=3 n=65 v=77
471885 Off ch=3 n=84 v=64
471885 Off ch=3 n=65 v=64
471885 Off ch=3 n=69 v=64
471885 Off ch=3 n=75 v=64
471885 Off ch=3 n=79 v=64
471960 On ch=3 n=84 v=71
471960 On ch=3 n=79 v=72
471960 On ch=3 n=75 v=78
471960 On ch=3 n=69 v=69
471960 On ch=3 n=65 v=71
472200 Off ch=3 n=84 v=64
472200 Off ch=3 n=65 v=64
472200 Off ch=3 n=69 v=64
472200 Off ch=3 n=75 v=64
472200 Off ch=3 n=79 v=64
472200 On ch=3 n=84 v=79
472200 On ch=3 n=79 v=66
472200 On ch=3 n=75 v=69
472200 On ch=3 n=69 v=66
472200 On ch=3 n=65 v=72
472320 Off ch=3 n=84 v=64
472320 Off ch=3 n=65 v=64
472320 Off ch=3 n=69 v=64
472320 Off ch=3 n=75 v=64
472320 Off ch=3 n=79 v=64
472320 On ch=3 n=84 v=73
472320 On ch=3 n=79 v=72
472320 On ch=3 n=75 v=70
472320 On ch=3 n=69 v=76
472320 On ch=3 n=65 v=66
472440 Off ch=3 n=84 v=64
472440 Off ch=3 n=65 v=64
472440 Off ch=3 n=69 v=64
472440 Off ch=3 n=75 v=64
472440 Off ch=3 n=79 v=64
472440 On ch=3 n=84 v=66
472440 On ch=3 n=79 v=79
472440 On ch=3 n=75 v=67
472440 On ch=3 n=69 v=77
472440 On ch=3 n=65 v=66
472680 Off ch=3 n=84 v=64
472680 Off ch=3 n=65 v=64
472680 Off ch=3 n=69 v=64
472680 Off ch=3 n=75 v=64
472680 Off ch=3 n=79 v=64
472680 On ch=3 n=84 v=69
472680 On ch=3 n=79 v=76
472680 On ch=3 n=75 v=76
472680 On ch=3 n=69 v=67
472680 On ch=3 n=65 v=76
472725 Off ch=3 n=84 v=64
472725 Off ch=3 n=65 v=64
472725 Off ch=3 n=69 v=64
472725 Off ch=3 n=75 v=64
472725 Off ch=3 n=79 v=64
472800 On ch=3 n=84 v=69
472800 On ch=3 n=79 v=67
472800 On ch=3 n=75 v=79
472800 On ch=3 n=69 v=77
472800 On ch=3 n=65 v=66
472845 Off ch=3 n=84 v=64
472845 Off ch=3 n=65 v=64
472845 Off ch=3 n=69 v=64
472845 Off ch=3 n=75 v=64
472845 Off ch=3 n=79 v=64
472920 On ch=3 n=84 v=78
472920 On ch=3 n=79 v=78
472920 On ch=3 n=75 v=79
472920 On ch=3 n=69 v=75
472920 On ch=3 n=65 v=75
473160 Off ch=3 n=84 v=64
473160 Off ch=3 n=65 v=64
473160 Off ch=3 n=69 v=64
473160 Off ch=3 n=75 v=64
473160 Off ch=3 n=79 v=64
473400 On ch=3 n=84 v=66
473400 On ch=3 n=79 v=73
473400 On ch=3 n=75 v=67
473400 On ch=3 n=69 v=75
473400 On ch=3 n=65 v=69
473445 Off ch=3 n=84 v=64
473445 Off ch=3 n=65 v=64
473445 Off ch=3 n=69 v=64
473445 Off ch=3 n=75 v=64
473445 Off ch=3 n=79 v=64
473640 On ch=3 n=84 v=72
473640 On ch=3 n=79 v=79
473640 On ch=3 n=75 v=67
473640 On ch=3 n=69 v=66
473640 On ch=3 n=65 v=72
473685 Off ch=3 n=84 v=64
473685 Off ch=3 n=65 v=64
473685 Off ch=3 n=69 v=64
473685 Off ch=3 n=75 v=64
473685 Off ch=3 n=79 v=64
473880 On ch=3 n=82 v=68
473880 On ch=3 n=77 v=67
474000 Off ch=3 n=82 v=64
474000 Off ch=3 n=77 v=64
474000 On ch=3 n=82 v=78
474000 On ch=3 n=77 v=79
474120 Off ch=3 n=82 v=64
474120 Off ch=3 n=77 v=64
474360 On ch=3 n=84 v=75
474360 On ch=3 n=79 v=77
474360 On ch=3 n=75 v=72
474360 On ch=3 n=69 v=76
474360 On ch=3 n=65 v=69
474600 Off ch=3 n=84 v=64
474600 Off ch=3 n=65 v=64
474600 Off ch=3 n=69 v=64
474600 Off ch=3 n=75 v=64
474600 Off ch=3 n=79 v=64
474600 On ch=3 n=84 v=68
474600 On ch=3 n=79 v=70
474600 On ch=3 n=75 v=75
474600 On ch=3 n=69 v=67
474600 On ch=3 n=65 v=78
474645 Off ch=3 n=84 v=64
474645 Off ch=3 n=65 v=64
474645 Off ch=3 n=69 v=64
474645 Off ch=3 n=75 v=64
474645 Off ch=3 n=79 v=64
474720 On ch=3 n=84 v=66
474720 On ch=3 n=79 v=73
474720 On ch=3 n=75 v=78
474720 On ch=3 n=69 v=67
474720 On ch=3 n=65 v=77
474765 Off ch=3 n=84 v=64
474765 Off ch=3 n=65 v=64
474765 Off ch=3 n=69 v=64
474765 Off ch=3 n=75 v=64
474765 Off ch=3 n=79 v=64
474840 On ch=3 n=84 v=70
474840 On ch=3 n=79 v=66
474840 On ch=3 n=75 v=67
474840 On ch=3 n=69 v=66
474840 On ch=3 n=65 v=75
475080 Off ch=3 n=84 v=64
475080 Off ch=3 n=65 v=64
475080 Off ch=3 n=69 v=64
475080 Off ch=3 n=75 v=64
475080 Off ch=3 n=79 v=64
475080 On ch=3 n=84 v=68
475080 On ch=3 n=79 v=79
475080 On ch=3 n=75 v=76
475080 On ch=3 n=69 v=66
475080 On ch=3 n=65 v=73
475200 Off ch=3 n=84 v=64
475200 Off ch=3 n=65 v=64
475200 Off ch=3 n=69 v=64
475200 Off ch=3 n=75 v=64
475200 Off ch=3 n=79 v=64
475200 On ch=3 n=84 v=77
475200 On ch=3 n=79 v=66
475200 On ch=3 n=75 v=77
475200 On ch=3 n=69 v=66
475200 On ch=3 n=65 v=79
475320 Off ch=3 n=84 v=64
475320 Off ch=3 n=65 v=64
475320 Off ch=3 n=69 v=64
475320 Off ch=3 n=75 v=64
475320 Off ch=3 n=79 v=64
475320 On ch=3 n=71 v=88
475440 Off ch=3 n=71 v=64
475440 On ch=3 n=70 v=88
475560 Off ch=3 n=70 v=64
475560 On ch=3 n=68 v=88
475680 Off ch=3 n=68 v=64
475680 On ch=3 n=65 v=88
475800 Off ch=3 n=65 v=64
475800 On ch=3 n=68 v=88
476040 Off ch=3 n=68 v=64
476040 On ch=3 n=83 v=88
476160 Off ch=3 n=83 v=64
476160 On ch=3 n=82 v=88
476280 Off ch=3 n=82 v=64
476280 On ch=3 n=80 v=88
476400 Off ch=3 n=80 v=64
476400 On ch=3 n=77 v=88
476520 Off ch=3 n=77 v=64
476520 On ch=3 n=80 v=88
476760 Off ch=3 n=80 v=64
476760 On ch=3 n=95 v=88
476880 Off ch=3 n=95 v=64
476880 On ch=3 n=94 v=88
477000 Off ch=3 n=94 v=64
477000 On ch=3 n=92 v=88
477120 Off ch=3 n=92 v=64
477120 On ch=3 n=89 v=88
477240 Off ch=3 n=89 v=64
477240 On ch=3 n=92 v=88
477480 Off ch=3 n=92 v=64
477720 On ch=3 n=57 v=88
477960 Off ch=3 n=57 v=64
477960 On ch=3 n=60 v=88
478200 Off ch=3 n=60 v=64
478200 On ch=3 n=57 v=88
478440 Off ch=3 n=57 v=64
478440 On ch=3 n=62 v=88
478560 Off ch=3 n=62 v=64
478560 On ch=3 n=59 v=88
478680 Off ch=3 n=59 v=64
478800 On ch=3 n=64 v=88
478920 Off ch=3 n=64 v=64
478920 On ch=3 n=74 v=83
479040 Off ch=3 n=74 v=64
479040 On ch=3 n=67 v=88
479160 Off ch=3 n=67 v=64
479160 On ch=3 n=67 v=82
479280 Off ch=3 n=67 v=64
479280 On ch=3 n=77 v=85
479400 Off ch=3 n=77 v=64
479400 On ch=3 n=77 v=88
479520 Off ch=3 n=77 v=64
479520 On ch=3 n=67 v=82
479640 Off ch=3 n=67 v=64
479640 On ch=3 n=74 v=82
479760 Off ch=3 n=74 v=64
479760 On ch=3 n=74 v=83
479880 Off ch=3 n=74 v=64
479880 On ch=3 n=67 v=85
480000 Off ch=3 n=67 v=64
480000 On ch=3 n=67 v=80
480120 Off ch=3 n=67 v=64
480120 On ch=3 n=67 v=85
480240 Off ch=3 n=67 v=64
480240 On ch=3 n=67 v=84
480360 Off ch=3 n=67 v=64
480360 On ch=3 n=84 v=88
480480 Off ch=3 n=84 v=64
480480 On ch=3 n=84 v=88
480600 Off ch=3 n=84 v=64
480600 On ch=3 n=67 v=83
480720 Off ch=3 n=67 v=64
480720 On ch=3 n=83 v=88
480840 Off ch=3 n=83 v=64
480840 On ch=3 n=83 v=88
480960 Off ch=3 n=83 v=64
480960 On ch=3 n=67 v=88
481080 Off ch=3 n=67 v=64
481080 On ch=3 n=67 v=88
481200 Off ch=3 n=67 v=64
481200 On ch=3 n=67 v=88
481320 Off ch=3 n=67 v=64
481320 On ch=3 n=74 v=88
481440 Off ch=3 n=74 v=64
481440 On ch=3 n=67 v=87
481560 Off ch=3 n=67 v=64
481560 On ch=3 n=67 v=82
481680 Off ch=3 n=67 v=64
481680 On ch=3 n=77 v=88
481800 Off ch=3 n=77 v=64
481800 On ch=3 n=77 v=88
481920 Off ch=3 n=77 v=64
481920 On ch=3 n=67 v=88
482040 Off ch=3 n=67 v=64
482040 On ch=3 n=74 v=88
482160 Off ch=3 n=74 v=64
482160 On ch=3 n=74 v=82
482280 Off ch=3 n=74 v=64
482280 On ch=3 n=67 v=88
482400 Off ch=3 n=67 v=64
482400 On ch=3 n=67 v=88
482520 Off ch=3 n=67 v=64
482520 On ch=3 n=67 v=83
482640 Off ch=3 n=67 v=64
482640 On ch=3 n=67 v=85
482760 Off ch=3 n=67 v=64
482760 On ch=3 n=84 v=81
482880 Off ch=3 n=84 v=64
482880 On ch=3 n=84 v=88
483000 Off ch=3 n=84 v=64
483000 On ch=3 n=67 v=88
483120 Off ch=3 n=67 v=64
483120 On ch=3 n=83 v=83
483240 Off ch=3 n=83 v=64
483240 On ch=3 n=83 v=88
483360 Off ch=3 n=83 v=64
483360 On ch=3 n=67 v=88
483480 Off ch=3 n=67 v=64
483480 On ch=3 n=67 v=87
483600 Off ch=3 n=67 v=64
483600 On ch=3 n=67 v=84
483720 Off ch=3 n=67 v=64
483720 On ch=3 n=74 v=86
483840 Off ch=3 n=74 v=64
483840 On ch=3 n=67 v=82
483960 Off ch=3 n=67 v=64
483960 On ch=3 n=67 v=88
484080 Off ch=3 n=67 v=64
484080 On ch=3 n=77 v=88
484200 Off ch=3 n=77 v=64
484200 On ch=3 n=77 v=88
484320 Off ch=3 n=77 v=64
484320 On ch=3 n=67 v=88
484440 Off ch=3 n=67 v=64
484440 On ch=3 n=74 v=88
484560 Off ch=3 n=74 v=64
484560 On ch=3 n=74 v=88
484680 Off ch=3 n=74 v=64
484680 On ch=3 n=67 v=88
484800 Off ch=3 n=67 v=64
484800 On ch=3 n=67 v=85
484920 Off ch=3 n=67 v=64
484920 On ch=3 n=67 v=85
485040 Off ch=3 n=67 v=64
485040 On ch=3 n=67 v=88
485160 Off ch=3 n=67 v=64
485160 On ch=3 n=84 v=82
485280 Off ch=3 n=84 v=64
485280 On ch=3 n=84 v=88
485400 Off ch=3 n=84 v=64
485400 On ch=3 n=67 v=84
485520 Off ch=3 n=67 v=64
485520 On ch=3 n=83 v=85
485640 Off ch=3 n=83 v=64
485640 On ch=3 n=83 v=88
485760 Off ch=3 n=83 v=64
485760 On ch=3 n=67 v=88
485880 Off ch=3 n=67 v=64
485880 On ch=3 n=67 v=88
486000 Off ch=3 n=67 v=64
486000 On ch=3 n=67 v=88
486120 Off ch=3 n=67 v=64
486120 On ch=3 n=74 v=88
486240 Off ch=3 n=74 v=64
486240 On ch=3 n=67 v=88
486360 Off ch=3 n=67 v=64
486360 On ch=3 n=67 v=87
486480 Off ch=3 n=67 v=64
486480 On ch=3 n=77 v=88
486600 Off ch=3 n=77 v=64
486600 On ch=3 n=77 v=82
486720 Off ch=3 n=77 v=64
486720 On ch=3 n=67 v=87
486840 Off ch=3 n=67 v=64
486840 On ch=3 n=74 v=88
486960 Off ch=3 n=74 v=64
486960 On ch=3 n=74 v=83
487080 Off ch=3 n=74 v=64
487080 On ch=3 n=67 v=84
487200 Off ch=3 n=67 v=64
487200 On ch=3 n=67 v=87
487320 Off ch=3 n=67 v=64
487320 On ch=3 n=67 v=84
487440 Off ch=3 n=67 v=64
487440 On ch=3 n=67 v=88
487560 Off ch=3 n=67 v=64
487560 On ch=3 n=84 v=86
487680 Off ch=3 n=84 v=64
487680 On ch=3 n=84 v=88
487800 Off ch=3 n=84 v=64
487800 On ch=3 n=67 v=83
487920 Off ch=3 n=67 v=64
487920 On ch=3 n=83 v=84
488040 Off ch=3 n=83 v=64
488040 On ch=3 n=83 v=88
488160 Off ch=3 n=83 v=64
488160 On ch=3 n=67 v=88
488280 Off ch=3 n=67 v=64
488280 On ch=3 n=67 v=85
488400 Off ch=3 n=67 v=64
488400 On ch=3 n=67 v=88
488520 Off ch=3 n=67 v=64
488520 On ch=3 n=74 v=88
488640 Off ch=3 n=74 v=64
488640 On ch=3 n=67 v=83
488760 Off ch=3 n=67 v=64
488760 On ch=3 n=67 v=88
488880 Off ch=3 n=67 v=64
488880 On ch=3 n=77 v=88
489000 Off ch=3 n=77 v=64
489000 On ch=3 n=77 v=88
489120 Off ch=3 n=77 v=64
489120 On ch=3 n=67 v=88
489240 Off ch=3 n=67 v=64
489240 On ch=3 n=74 v=88
489360 Off ch=3 n=74 v=64
489360 On ch=3 n=74 v=85
489480 Off ch=3 n=74 v=64
489480 On ch=3 n=67 v=88
489600 Off ch=3 n=67 v=64
489600 On ch=3 n=67 v=88
489720 Off ch=3 n=67 v=64
489720 On ch=3 n=67 v=88
489840 Off ch=3 n=67 v=64
489840 On ch=3 n=67 v=88
489960 Off ch=3 n=67 v=64
489960 On ch=3 n=84 v=87
490080 Off ch=3 n=84 v=64
490080 On ch=3 n=84 v=82
490200 Off ch=3 n=84 v=64
490200 On ch=3 n=67 v=88
490320 Off ch=3 n=67 v=64
490320 On ch=3 n=83 v=88
490440 Off ch=3 n=83 v=64
490440 On ch=3 n=83 v=88
490560 Off ch=3 n=83 v=64
490560 On ch=3 n=67 v=88
490680 Off ch=3 n=67 v=64
490680 On ch=3 n=67 v=80
490800 Off ch=3 n=67 v=64
490800 On ch=3 n=67 v=88
490920 Off ch=3 n=67 v=64
490920 On ch=3 n=74 v=82
491040 Off ch=3 n=74 v=64
491040 On ch=3 n=67 v=81
491160 Off ch=3 n=67 v=64
491160 On ch=3 n=67 v=88
491280 Off ch=3 n=67 v=64
491280 On ch=3 n=77 v=88
491400 Off ch=3 n=77 v=64
491400 On ch=3 n=77 v=88
491520 Off ch=3 n=77 v=64
491520 On ch=3 n=67 v=88
491640 Off ch=3 n=67 v=64
491640 On ch=3 n=74 v=88
491760 Off ch=3 n=74 v=64
491760 On ch=3 n=74 v=88
491880 Off ch=3 n=74 v=64
491880 On ch=3 n=67 v=88
492000 Off ch=3 n=67 v=64
492000 On ch=3 n=67 v=88
492120 Off ch=3 n=67 v=64
492120 On ch=3 n=67 v=80
492240 Off ch=3 n=67 v=64
492240 On ch=3 n=67 v=85
492360 Off ch=3 n=67 v=64
492360 On ch=3 n=84 v=88
492480 Off ch=3 n=84 v=64
492480 On ch=3 n=84 v=88
492600 Off ch=3 n=84 v=64
492600 On ch=3 n=67 v=85
492720 Off ch=3 n=67 v=64
492720 On ch=3 n=83 v=81
492840 Off ch=3 n=83 v=64
492840 On ch=3 n=83 v=80
492960 Off ch=3 n=83 v=64
492960 On ch=3 n=67 v=88
493080 Off ch=3 n=67 v=64
493080 On ch=3 n=67 v=82
493200 Off ch=3 n=67 v=64
493200 On ch=3 n=67 v=88
493320 Off ch=3 n=67 v=64
493320 On ch=3 n=74 v=84
493440 Off ch=3 n=74 v=64
493440 On ch=3 n=67 v=80
493560 Off ch=3 n=67 v=64
493560 On ch=3 n=67 v=88
493680 Off ch=3 n=67 v=64
493680 On ch=3 n=77 v=83
493800 Off ch=3 n=77 v=64
493800 On ch=3 n=77 v=88
493920 Off ch=3 n=77 v=64
493920 On ch=3 n=67 v=88
494040 Off ch=3 n=67 v=64
494040 On ch=3 n=74 v=82
494160 Off ch=3 n=74 v=64
494160 On ch=3 n=74 v=88
494280 Off ch=3 n=74 v=64
494280 On ch=3 n=67 v=88
494400 Off ch=3 n=67 v=64
494400 On ch=3 n=67 v=80
494520 Off ch=3 n=67 v=64
494520 On ch=3 n=67 v=88
494640 Off ch=3 n=67 v=64
494640 On ch=3 n=67 v=87
494760 Off ch=3 n=67 v=64
494760 On ch=3 n=84 v=87
494880 Off ch=3 n=84 v=64
494880 On ch=3 n=84 v=88
495000 Off ch=3 n=84 v=64
495000 On ch=3 n=67 v=81
495120 Off ch=3 n=67 v=64
495120 On ch=3 n=83 v=88
495240 Off ch=3 n=83 v=64
495240 On ch=3 n=83 v=88
495360 Off ch=3 n=83 v=64
495360 On ch=3 n=67 v=81
495480 Off ch=3 n=67 v=64
495480 On ch=3 n=67 v=88
495600 Off ch=3 n=67 v=64
495600 On ch=3 n=67 v=80
495720 Off ch=3 n=67 v=64
495720 On ch=3 n=74 v=88
495840 Off ch=3 n=74 v=64
495840 On ch=3 n=67 v=84
495960 Off ch=3 n=67 v=64
495960 On ch=3 n=67 v=80
496080 Off ch=3 n=67 v=64
496080 On ch=3 n=77 v=83
496200 Off ch=3 n=77 v=64
496200 On ch=3 n=77 v=88
496320 Off ch=3 n=77 v=64
496320 On ch=3 n=67 v=80
496440 Off ch=3 n=67 v=64
496440 On ch=3 n=74 v=88
496560 Off ch=3 n=74 v=64
496560 On ch=3 n=74 v=82
496680 Off ch=3 n=74 v=64
496680 On ch=3 n=67 v=88
496800 Off ch=3 n=67 v=64
496800 On ch=3 n=67 v=87
496920 Off ch=3 n=67 v=64
496920 On ch=3 n=67 v=88
497040 Off ch=3 n=67 v=64
497040 On ch=3 n=67 v=84
497160 Off ch=3 n=67 v=64
497160 On ch=3 n=84 v=88
497280 Off ch=3 n=84 v=64
497280 On ch=3 n=84 v=88
497400 Off ch=3 n=84 v=64
497400 On ch=3 n=67 v=85
497520 Off ch=3 n=67 v=64
497520 On ch=3 n=83 v=88
497640 Off ch=3 n=83 v=64
497640 On ch=3 n=83 v=88
497760 Off ch=3 n=83 v=64
497760 On ch=3 n=67 v=88
497880 Off ch=3 n=67 v=64
497880 On ch=3 n=67 v=81
498000 Off ch=3 n=67 v=64
498000 On ch=3 n=67 v=81
498120 Off ch=3 n=67 v=64
498120 On ch=3 n=74 v=88
498240 Off ch=3 n=74 v=64
498240 On ch=3 n=67 v=88
498360 Off ch=3 n=67 v=64
498360 On ch=3 n=67 v=88
498480 Off ch=3 n=67 v=64
498480 On ch=3 n=77 v=85
498600 Off ch=3 n=77 v=64
498600 On ch=3 n=77 v=88
498720 Off ch=3 n=77 v=64
498720 On ch=3 n=67 v=80
498840 Off ch=3 n=67 v=64
498840 On ch=3 n=74 v=83
498960 Off ch=3 n=74 v=64
498960 On ch=3 n=74 v=83
499080 Off ch=3 n=74 v=64
499080 On ch=3 n=67 v=88
499200 Off ch=3 n=67 v=64
499200 On ch=3 n=67 v=88
499320 Off ch=3 n=67 v=64
499320 On ch=3 n=67 v=82
499440 Off ch=3 n=67 v=64
499440 On ch=3 n=67 v=82
499560 Off ch=3 n=67 v=64
499560 On ch=3 n=84 v=88
499680 Off ch=3 n=84 v=64
499680 On ch=3 n=84 v=88
499800 Off ch=3 n=84 v=64
499800 On ch=3 n=67 v=88
499920 Off ch=3 n=67 v=64
499920 On ch=3 n=83 v=88
500040 Off ch=3 n=83 v=64
500040 On ch=3 n=83 v=81
500160 Off ch=3 n=83 v=64
500160 On ch=3 n=67 v=87
500280 Off ch=3 n=67 v=64
500280 On ch=3 n=67 v=80
500400 Off ch=3 n=67 v=64
500400 On ch=3 n=67 v=86
500520 Off ch=3 n=67 v=64
500520 On ch=3 n=83 v=87
500640 Off ch=3 n=83 v=64
500640 On ch=3 n=67 v=84
500760 Off ch=3 n=67 v=64
500760 On ch=3 n=67 v=88
500880 Off ch=3 n=67 v=64
500880 On ch=3 n=90 v=86
501000 Off ch=3 n=90 v=64
501000 On ch=3 n=90 v=88
501120 Off ch=3 n=90 v=64
501120 On ch=3 n=67 v=87
501240 Off ch=3 n=67 v=64
501240 On ch=3 n=86 v=88
501360 Off ch=3 n=86 v=64
501360 On ch=3 n=86 v=83
501480 Off ch=3 n=86 v=64
501480 On ch=3 n=67 v=88
501600 Off ch=3 n=67 v=64
501600 On ch=3 n=67 v=88
501720 Off ch=3 n=67 v=64
501720 On ch=3 n=67 v=88
501840 Off ch=3 n=67 v=64
501840 On ch=3 n=67 v=81
501960 Off ch=3 n=67 v=64
501960 On ch=3 n=96 v=88
502080 Off ch=3 n=96 v=64
502080 On ch=3 n=96 v=85
502200 Off ch=3 n=96 v=64
502200 On ch=3 n=79 v=80
502320 Off ch=3 n=79 v=64
502320 On ch=3 n=96 v=81
502440 Off ch=3 n=96 v=64
502440 On ch=3 n=67 v=85
502560 Off ch=3 n=67 v=64
502560 On ch=3 n=67 v=81
502680 Off ch=3 n=67 v=64
502680 On ch=3 n=67 v=88
502680 On ch=3 n=67 v=88
502800 Off ch=3 n=67 v=64
502800 Off ch=3 n=67 v=64
502800 On ch=3 n=67 v=85
502920 Off ch=3 n=67 v=64
502920 On ch=3 n=83 v=85
503040 Off ch=3 n=83 v=64
503040 On ch=3 n=67 v=84
503160 Off ch=3 n=67 v=64
503160 On ch=3 n=67 v=88
503280 Off ch=3 n=67 v=64
503280 On ch=3 n=90 v=80
503400 Off ch=3 n=90 v=64
503400 On ch=3 n=90 v=86
503520 Off ch=3 n=90 v=64
503520 On ch=3 n=67 v=84
503640 Off ch=3 n=67 v=64
503640 On ch=3 n=86 v=88
503760 Off ch=3 n=86 v=64
503760 On ch=3 n=86 v=85
503880 Off ch=3 n=86 v=64
503880 On ch=3 n=67 v=83
504000 Off ch=3 n=67 v=64
504000 On ch=3 n=67 v=87
504120 Off ch=3 n=67 v=64
504120 On ch=3 n=67 v=86
504240 Off ch=3 n=67 v=64
504240 On ch=3 n=67 v=83
504360 Off ch=3 n=67 v=64
504360 On ch=3 n=96 v=88
504480 Off ch=3 n=96 v=64
504480 On ch=3 n=96 v=83
504600 Off ch=3 n=96 v=64
504600 On ch=3 n=79 v=80
504720 Off ch=3 n=79 v=64
504720 On ch=3 n=96 v=85
504840 Off ch=3 n=96 v=64
504840 On ch=3 n=67 v=88
504960 Off ch=3 n=67 v=64
504960 On ch=3 n=67 v=80
505080 Off ch=3 n=67 v=64
505080 On ch=3 n=67 v=88
505080 On ch=3 n=67 v=88
505200 Off ch=3 n=67 v=64
505200 Off ch=3 n=67 v=64
505200 On ch=3 n=67 v=82
505320 Off ch=3 n=67 v=64
505320 On ch=3 n=83 v=87
505440 Off ch=3 n=83 v=64
505440 On ch=3 n=67 v=83
505560 Off ch=3 n=67 v=64
505560 On ch=3 n=67 v=88
505680 Off ch=3 n=67 v=64
505680 On ch=3 n=90 v=88
505800 Off ch=3 n=90 v=64
505800 On ch=3 n=90 v=88
505920 Off ch=3 n=90 v=64
505920 On ch=3 n=67 v=88
506040 Off ch=3 n=67 v=64
506040 On ch=3 n=86 v=88
506160 Off ch=3 n=86 v=64
506160 On ch=3 n=86 v=80
506280 Off ch=3 n=86 v=64
506280 On ch=3 n=67 v=80
506400 Off ch=3 n=67 v=64
506400 On ch=3 n=67 v=88
506520 Off ch=3 n=67 v=64
506520 On ch=3 n=67 v=83
506640 Off ch=3 n=67 v=64
506640 On ch=3 n=67 v=88
506760 Off ch=3 n=67 v=64
506760 On ch=3 n=96 v=88
506880 Off ch=3 n=96 v=64
506880 On ch=3 n=96 v=82
507000 Off ch=3 n=96 v=64
507000 On ch=3 n=79 v=88
507120 Off ch=3 n=79 v=64
507120 On ch=3 n=96 v=88
507240 Off ch=3 n=96 v=64
507240 On ch=3 n=67 v=88
507360 Off ch=3 n=67 v=64
507360 On ch=3 n=67 v=82
507480 Off ch=3 n=67 v=64
507480 On ch=3 n=67 v=88
507480 On ch=3 n=67 v=85
507600 Off ch=3 n=67 v=64
507600 Off ch=3 n=67 v=64
507600 On ch=3 n=67 v=88
507720 Off ch=3 n=67 v=64
507720 On ch=3 n=83 v=81
507840 Off ch=3 n=83 v=64
507840 On ch=3 n=67 v=88
507960 Off ch=3 n=67 v=64
507960 On ch=3 n=67 v=87
508080 Off ch=3 n=67 v=64
508080 On ch=3 n=90 v=88
508200 Off ch=3 n=90 v=64
508200 On ch=3 n=90 v=88
508320 Off ch=3 n=90 v=64
508320 On ch=3 n=67 v=88
508440 Off ch=3 n=67 v=64
508440 On ch=3 n=86 v=88
508560 Off ch=3 n=86 v=64
508560 On ch=3 n=86 v=84
508680 Off ch=3 n=86 v=64
508680 On ch=3 n=67 v=84
508800 Off ch=3 n=67 v=64
508800 On ch=3 n=67 v=88
508920 Off ch=3 n=67 v=64
508920 On ch=3 n=67 v=88
509040 Off ch=3 n=67 v=64
509040 On ch=3 n=67 v=88
509160 Off ch=3 n=67 v=64
509160 On ch=3 n=96 v=85
509280 Off ch=3 n=96 v=64
509280 On ch=3 n=96 v=88
509400 Off ch=3 n=96 v=64
509400 On ch=3 n=79 v=85
509520 Off ch=3 n=79 v=64
509520 On ch=3 n=96 v=84
509640 Off ch=3 n=96 v=64
519720 On ch=3 n=74 v=87
520080 Off ch=3 n=74 v=64
520080 On ch=3 n=77 v=85
520440 Off ch=3 n=77 v=64
520440 On ch=3 n=74 v=86
521160 Off ch=3 n=74 v=64
521160 On ch=3 n=84 v=88
521520 Off ch=3 n=84 v=64
521520 On ch=3 n=83 v=88
521880 Off ch=3 n=83 v=64
522120 On ch=3 n=74 v=88
522480 Off ch=3 n=74 v=64
522480 On ch=3 n=77 v=86
522840 Off ch=3 n=77 v=64
522840 On ch=3 n=74 v=87
523560 Off ch=3 n=74 v=64
523560 On ch=3 n=84 v=85
523920 Off ch=3 n=84 v=64
523920 On ch=3 n=83 v=106
524280 Off ch=3 n=83 v=64
524520 On ch=3 n=74 v=103
524640 Off ch=3 n=74 v=64
524640 On ch=3 n=74 v=100
524760 Off ch=3 n=74 v=64
524760 On ch=3 n=76 v=105
524880 Off ch=3 n=76 v=64
524880 On ch=3 n=77 v=100
525000 Off ch=3 n=77 v=64
525000 On ch=3 n=78 v=107
525120 Off ch=3 n=78 v=64
525120 On ch=3 n=78 v=101
525240 Off ch=3 n=78 v=64
525240 On ch=3 n=77 v=100
525360 Off ch=3 n=77 v=64
525360 On ch=3 n=76 v=94
525480 Off ch=3 n=76 v=64
525480 On ch=3 n=74 v=106
525600 Off ch=3 n=74 v=64
525600 On ch=3 n=77 v=89
525720 Off ch=3 n=77 v=64
525720 On ch=3 n=78 v=104
525840 Off ch=3 n=78 v=64
525840 On ch=3 n=84 v=98
525960 Off ch=3 n=84 v=64
526080 On ch=3 n=81 v=100
526200 Off ch=3 n=81 v=64
526200 On ch=3 n=83 v=108
529320 Off ch=3 n=83 v=64
529320 Meta TrkEnd
TrkEnd
MTrk
0 Meta TrkName "E.Piano"
0 Par ch=4 c=93 v=127
0 Par ch=4 c=1 v=0
0 Par ch=4 c=7 v=100
0 Par ch=4 c=11 v=127
0 Par ch=4 c=10 v=64
0 Par ch=4 c=91 v=127
0 PrCh ch=4 p=4
1920 On ch=4 n=63 v=68
2040 Off ch=4 n=63 v=64
2040 On ch=4 n=52 v=64
2160 Off ch=4 n=52 v=64
2160 On ch=4 n=58 v=64
2280 Off ch=4 n=58 v=64
2280 On ch=4 n=60 v=64
2400 Off ch=4 n=60 v=64
2400 On ch=4 n=64 v=64
2520 On ch=4 n=70 v=52
2640 Off ch=4 n=70 v=64
2640 On ch=4 n=75 v=52
2760 Off ch=4 n=75 v=64
2760 On ch=4 n=76 v=52
2880 Off ch=4 n=76 v=64
2880 On ch=4 n=82 v=52
3000 Off ch=4 n=82 v=64
3000 On ch=4 n=89 v=52
3120 Off ch=4 n=89 v=64
3120 On ch=4 n=87 v=52
3240 Off ch=4 n=87 v=64
3240 On ch=4 n=82 v=52
3360 Off ch=4 n=64 v=64
3360 Off ch=4 n=82 v=64
3360 On ch=4 n=77 v=52
3480 Off ch=4 n=77 v=64
3480 On ch=4 n=76 v=68
3600 Off ch=4 n=76 v=64
3720 On ch=4 n=70 v=52
3840 Off ch=4 n=70 v=64
3960 On ch=4 n=72 v=52
4080 Off ch=4 n=72 v=64
4200 On ch=4 n=65 v=52
4320 Off ch=4 n=65 v=64
4320 On ch=4 n=67 v=52
4440 Off ch=4 n=67 v=64
4440 On ch=4 n=65 v=52
4560 Off ch=4 n=65 v=64
4560 On ch=4 n=63 v=52
4680 Off ch=4 n=63 v=64
4680 On ch=4 n=60 v=52
4800 Off ch=4 n=60 v=64
4800 On ch=4 n=65 v=52
4920 Off ch=4 n=65 v=64
4920 On ch=4 n=63 v=52
5040 Off ch=4 n=63 v=64
5040 On ch=4 n=60 v=52
5160 Off ch=4 n=60 v=64
5160 On ch=4 n=58 v=52
5280 Off ch=4 n=58 v=64
5280 On ch=4 n=63 v=52
5400 Off ch=4 n=63 v=64
5400 On ch=4 n=60 v=52
5520 Off ch=4 n=60 v=64
5520 On ch=4 n=58 v=52
5640 Off ch=4 n=58 v=64
5640 On ch=4 n=53 v=52
5760 Off ch=4 n=53 v=64
5760 On ch=4 n=58 v=52
5880 Off ch=4 n=58 v=64
5880 On ch=4 n=53 v=52
6000 Off ch=4 n=53 v=64
6000 On ch=4 n=55 v=52
7920 Off ch=4 n=55 v=64
8160 On ch=4 n=60 v=120
8160 On ch=4 n=58 v=120
8160 On ch=4 n=52 v=120
8160 On ch=4 n=63 v=120
8400 Off ch=4 n=60 v=64
8400 Off ch=4 n=63 v=64
8400 Off ch=4 n=52 v=64
8400 Off ch=4 n=58 v=64
8640 On ch=4 n=58 v=120
8640 On ch=4 n=52 v=120
8640 On ch=4 n=60 v=120
8640 On ch=4 n=63 v=120
8880 Off ch=4 n=58 v=64
8880 Off ch=4 n=63 v=64
8880 Off ch=4 n=60 v=64
8880 Off ch=4 n=52 v=64
9120 On ch=4 n=60 v=120
9120 On ch=4 n=58 v=120
9120 On ch=4 n=52 v=120
9120 On ch=4 n=63 v=120
9360 Off ch=4 n=60 v=64
9360 Off ch=4 n=63 v=64
9360 Off ch=4 n=52 v=64
9360 Off ch=4 n=58 v=64
9360 On ch=4 n=60 v=120
9360 On ch=4 n=58 v=120
9360 On ch=4 n=52 v=120
9360 On ch=4 n=63 v=120
9600 Off ch=4 n=60 v=64
9600 Off ch=4 n=63 v=64
9600 Off ch=4 n=52 v=64
9600 Off ch=4 n=58 v=64
9840 On ch=4 n=60 v=120
9840 On ch=4 n=58 v=120
9840 On ch=4 n=52 v=120
9840 On ch=4 n=63 v=120
12000 Off ch=4 n=60 v=64
12000 Off ch=4 n=63 v=64
12000 Off ch=4 n=52 v=64
12000 Off ch=4 n=58 v=64
12240 On ch=4 n=69 v=80
12360 Off ch=4 n=69 v=64
12360 On ch=4 n=61 v=80
12480 Off ch=4 n=61 v=64
12480 On ch=4 n=69 v=80
12720 Off ch=4 n=69 v=64
12840 On ch=4 n=67 v=80
12960 Off ch=4 n=67 v=64
12960 On ch=4 n=73 v=80
13080 Off ch=4 n=73 v=64
13080 On ch=4 n=78 v=80
13200 Off ch=4 n=78 v=64
13200 On ch=4 n=79 v=80
13320 Off ch=4 n=79 v=64
13320 On ch=4 n=85 v=80
13440 Off ch=4 n=85 v=64
13440 On ch=4 n=93 v=80
13560 Off ch=4 n=93 v=64
13560 On ch=4 n=90 v=80
13680 Off ch=4 n=90 v=64
13680 On ch=4 n=93 v=80
13800 Off ch=4 n=93 v=64
13800 On ch=4 n=81 v=80
13920 Off ch=4 n=81 v=64
13920 On ch=4 n=78 v=80
14040 Off ch=4 n=78 v=64
14040 On ch=4 n=81 v=80
14160 Off ch=4 n=81 v=64
14160 On ch=4 n=78 v=80
14280 Off ch=4 n=78 v=64
14280 On ch=4 n=76 v=80
14400 Off ch=4 n=76 v=64
14400 On ch=4 n=73 v=80
14520 Off ch=4 n=73 v=64
14520 On ch=4 n=71 v=80
14640 Off ch=4 n=71 v=64
14640 On ch=4 n=76 v=80
14760 Off ch=4 n=76 v=64
14760 On ch=4 n=73 v=80
14880 Off ch=4 n=73 v=64
14880 On ch=4 n=71 v=80
15000 Off ch=4 n=71 v=64
15000 On ch=4 n=67 v=80
15120 Off ch=4 n=67 v=64
15120 On ch=4 n=72 v=80
15240 Off ch=4 n=72 v=64
15240 On ch=4 n=71 v=80
15360 Off ch=4 n=71 v=64
15360 On ch=4 n=67 v=80
15480 Off ch=4 n=67 v=64
15480 On ch=4 n=66 v=80
15600 Off ch=4 n=66 v=64
15600 On ch=4 n=67 v=80
15720 Off ch=4 n=67 v=64
15720 On ch=4 n=66 v=80
15840 Off ch=4 n=66 v=64
15840 On ch=4 n=64 v=80
15960 Off ch=4 n=64 v=64
15960 On ch=4 n=61 v=80
16080 Off ch=4 n=61 v=64
16080 On ch=4 n=64 v=96
16217 Off ch=4 n=64 v=64
16217 On ch=4 n=61 v=96
16354 Off ch=4 n=61 v=64
16354 On ch=4 n=59 v=96
16491 Off ch=4 n=59 v=64
16491 On ch=4 n=61 v=96
16628 Off ch=4 n=61 v=64
16628 On ch=4 n=59 v=96
16765 Off ch=4 n=59 v=64
16765 On ch=4 n=55 v=96
16902 Off ch=4 n=55 v=64
16902 On ch=4 n=53 v=96
17039 Off ch=4 n=53 v=64
17040 On ch=4 n=54 v=80
18480 Off ch=4 n=54 v=64
18960 On ch=4 n=52 v=120
18960 On ch=4 n=69 v=120
18960 On ch=4 n=67 v=120
18960 On ch=4 n=61 v=120
19200 Off ch=4 n=52 v=64
19200 Off ch=4 n=61 v=64
19200 Off ch=4 n=67 v=64
19200 Off ch=4 n=69 v=64
19440 On ch=4 n=52 v=120
19440 On ch=4 n=69 v=120
19440 On ch=4 n=61 v=120
19440 On ch=4 n=67 v=120
19680 Off ch=4 n=52 v=64
19680 Off ch=4 n=67 v=64
19680 Off ch=4 n=61 v=64
19680 Off ch=4 n=69 v=64
19920 On ch=4 n=52 v=120
19920 On ch=4 n=61 v=120
19920 On ch=4 n=67 v=120
19920 On ch=4 n=69 v=120
20160 Off ch=4 n=52 v=64
20160 Off ch=4 n=69 v=64
20160 Off ch=4 n=67 v=64
20160 Off ch=4 n=61 v=64
20160 On ch=4 n=52 v=120
20160 On ch=4 n=61 v=120
20160 On ch=4 n=67 v=120
20160 On ch=4 n=69 v=120
20400 Off ch=4 n=52 v=64
20400 Off ch=4 n=69 v=64
20400 Off ch=4 n=67 v=64
20400 Off ch=4 n=61 v=64
20640 On ch=4 n=52 v=120
20640 On ch=4 n=61 v=120
20640 On ch=4 n=67 v=120
20640 On ch=4 n=69 v=120
20880 Off ch=4 n=52 v=64
20880 Off ch=4 n=69 v=64
20880 Off ch=4 n=67 v=64
20880 Off ch=4 n=61 v=64
20880 On ch=4 n=52 v=120
20880 On ch=4 n=69 v=120
20880 On ch=4 n=61 v=120
20880 On ch=4 n=67 v=120
21120 Off ch=4 n=52 v=64
21120 Off ch=4 n=67 v=64
21120 Off ch=4 n=61 v=64
21120 Off ch=4 n=69 v=64
21120 On ch=4 n=52 v=120
21120 On ch=4 n=69 v=120
21120 On ch=4 n=61 v=120
21120 On ch=4 n=67 v=120
21360 Off ch=4 n=52 v=64
21360 Off ch=4 n=67 v=64
21360 Off ch=4 n=61 v=64
21360 Off ch=4 n=69 v=64
21360 On ch=4 n=41 v=120
21480 Off ch=4 n=41 v=64
21480 On ch=4 n=61 v=120
21480 On ch=4 n=67 v=120
21480 On ch=4 n=69 v=120
21720 Off ch=4 n=61 v=64
21720 Off ch=4 n=69 v=64
21720 Off ch=4 n=67 v=64
21720 On ch=4 n=41 v=120
21840 Off ch=4 n=41 v=64
21840 On ch=4 n=69 v=120
21840 On ch=4 n=67 v=120
21840 On ch=4 n=61 v=120
21960 Off ch=4 n=69 v=64
21960 Off ch=4 n=61 v=64
21960 Off ch=4 n=67 v=64
21960 On ch=4 n=41 v=120
22080 Off ch=4 n=41 v=64
22080 On ch=4 n=67 v=120
22080 On ch=4 n=69 v=120
22080 On ch=4 n=61 v=120
22200 Off ch=4 n=67 v=64
22200 Off ch=4 n=61 v=64
22200 Off ch=4 n=69 v=64
22200 On ch=4 n=69 v=120
22200 On ch=4 n=67 v=120
22200 On ch=4 n=61 v=120
22320 Off ch=4 n=69 v=64
22320 Off ch=4 n=61 v=64
22320 Off ch=4 n=67 v=64
22320 On ch=4 n=41 v=120
22440 Off ch=4 n=41 v=64
22440 On ch=4 n=67 v=120
22440 On ch=4 n=69 v=120
22440 On ch=4 n=61 v=120
22560 Off ch=4 n=67 v=64
22560 Off ch=4 n=61 v=64
22560 Off ch=4 n=69 v=64
22680 On ch=4 n=69 v=120
22680 On ch=4 n=67 v=120
22680 On ch=4 n=61 v=120
24960 Off ch=4 n=69 v=64
24960 Off ch=4 n=61 v=64
24960 Off ch=4 n=67 v=64
25080 On ch=4 n=77 v=80
25080 On ch=4 n=89 v=80
25200 Off ch=4 n=77 v=64
25200 Off ch=4 n=89 v=64
25200 On ch=4 n=75 v=80
25200 On ch=4 n=87 v=80
25320 Off ch=4 n=75 v=64
25320 Off ch=4 n=87 v=64
25320 On ch=4 n=71 v=80
25320 On ch=4 n=83 v=80
25440 Off ch=4 n=71 v=64
25440 Off ch=4 n=83 v=64
25440 On ch=4 n=72 v=80
25440 On ch=4 n=84 v=80
25560 Off ch=4 n=72 v=64
25560 Off ch=4 n=84 v=64
25560 On ch=4 n=71 v=80
25560 On ch=4 n=83 v=80
25680 Off ch=4 n=71 v=64
25680 Off ch=4 n=83 v=64
25680 On ch=4 n=72 v=80
25680 On ch=4 n=84 v=80
25800 Off ch=4 n=72 v=64
25800 Off ch=4 n=84 v=64
25800 On ch=4 n=70 v=80
25800 On ch=4 n=82 v=80
25920 Off ch=4 n=70 v=64
25920 Off ch=4 n=82 v=64
25920 On ch=4 n=71 v=80
25920 On ch=4 n=83 v=80
26160 Off ch=4 n=71 v=64
26160 Off ch=4 n=83 v=64
26160 On ch=4 n=70 v=80
26160 On ch=4 n=82 v=80
26240 Off ch=4 n=70 v=64
26240 Off ch=4 n=82 v=64
26240 On ch=4 n=68 v=80
26240 On ch=4 n=80 v=80
26320 Off ch=4 n=68 v=64
26320 Off ch=4 n=80 v=64
26320 On ch=4 n=65 v=80
26320 On ch=4 n=77 v=80
26400 Off ch=4 n=65 v=64
26400 Off ch=4 n=77 v=64
26400 On ch=4 n=71 v=80
26400 On ch=4 n=82 v=80
26520 Off ch=4 n=71 v=64
26520 Off ch=4 n=82 v=64
26520 On ch=4 n=69 v=80
26520 On ch=4 n=80 v=80
26640 Off ch=4 n=69 v=64
26640 Off ch=4 n=80 v=64
26640 On ch=4 n=65 v=80
26640 On ch=4 n=77 v=80
26760 Off ch=4 n=65 v=64
26760 Off ch=4 n=77 v=64
26760 On ch=4 n=64 v=80
26760 On ch=4 n=75 v=80
26880 Off ch=4 n=64 v=64
26880 Off ch=4 n=75 v=64
26880 On ch=4 n=69 v=80
26880 On ch=4 n=80 v=80
27000 Off ch=4 n=69 v=64
27000 Off ch=4 n=80 v=64
27000 On ch=4 n=64 v=80
27000 On ch=4 n=75 v=80
27120 Off ch=4 n=64 v=64
27120 Off ch=4 n=75 v=64
27120 On ch=4 n=60 v=80
27120 On ch=4 n=72 v=80
27240 Off ch=4 n=60 v=64
27240 Off ch=4 n=72 v=64
27240 On ch=4 n=64 v=80
27240 On ch=4 n=75 v=80
27360 Off ch=4 n=64 v=64
27360 Off ch=4 n=75 v=64
27360 On ch=4 n=64 v=80
27360 On ch=4 n=77 v=80
27480 Off ch=4 n=64 v=64
27480 Off ch=4 n=77 v=64
27480 On ch=4 n=58 v=80
27480 On ch=4 n=70 v=80
27600 Off ch=4 n=58 v=64
27600 Off ch=4 n=70 v=64
27600 On ch=4 n=56 v=80
27600 On ch=4 n=68 v=80
27720 Off ch=4 n=56 v=64
27720 Off ch=4 n=68 v=64
27720 On ch=4 n=53 v=80
27720 On ch=4 n=65 v=80
27840 Off ch=4 n=53 v=64
27840 Off ch=4 n=65 v=64
28080 On ch=4 n=60 v=80
28080 On ch=4 n=72 v=80
28320 Off ch=4 n=60 v=64
28320 Off ch=4 n=72 v=64
28320 On ch=4 n=58 v=80
28320 On ch=4 n=70 v=80
28400 Off ch=4 n=58 v=64
28400 Off ch=4 n=70 v=64
28400 On ch=4 n=56 v=80
28400 On ch=4 n=68 v=80
28480 Off ch=4 n=56 v=64
28480 Off ch=4 n=68 v=64
28480 On ch=4 n=53 v=80
28480 On ch=4 n=65 v=80
28560 Off ch=4 n=53 v=64
28560 Off ch=4 n=65 v=64
28560 On ch=4 n=58 v=80
28560 On ch=4 n=70 v=80
28800 Off ch=4 n=58 v=64
28800 Off ch=4 n=70 v=64
28800 On ch=4 n=56 v=80
28800 On ch=4 n=68 v=80
28880 Off ch=4 n=56 v=64
28880 Off ch=4 n=68 v=64
28880 On ch=4 n=53 v=80
28880 On ch=4 n=65 v=80
28960 Off ch=4 n=53 v=64
28960 Off ch=4 n=65 v=64
28960 On ch=4 n=51 v=80
28960 On ch=4 n=63 v=80
29040 Off ch=4 n=51 v=64
29040 Off ch=4 n=63 v=64
29040 On ch=4 n=56 v=80
29040 On ch=4 n=68 v=80
29160 Off ch=4 n=56 v=64
29160 Off ch=4 n=68 v=64
29160 On ch=4 n=51 v=80
29160 On ch=4 n=63 v=80
29280 Off ch=4 n=51 v=64
29280 Off ch=4 n=63 v=64
29280 On ch=4 n=48 v=80
29280 On ch=4 n=60 v=80
29400 Off ch=4 n=48 v=64
29400 Off ch=4 n=60 v=64
29400 On ch=4 n=51 v=80
29400 On ch=4 n=63 v=80
29520 Off ch=4 n=51 v=64
29520 Off ch=4 n=63 v=64
29520 On ch=4 n=53 v=80
29520 On ch=4 n=65 v=80
29640 Off ch=4 n=53 v=64
29640 Off ch=4 n=65 v=64
29640 On ch=4 n=48 v=80
29640 On ch=4 n=60 v=80
29760 Off ch=4 n=48 v=64
29760 Off ch=4 n=60 v=64
29760 On ch=4 n=51 v=80
29760 On ch=4 n=63 v=80
29880 Off ch=4 n=51 v=64
29880 Off ch=4 n=63 v=64
29880 On ch=4 n=48 v=80
29880 On ch=4 n=60 v=80
30000 Off ch=4 n=48 v=64
30000 Off ch=4 n=60 v=64
30000 On ch=4 n=46 v=80
30000 On ch=4 n=58 v=80
30120 Off ch=4 n=46 v=64
30120 Off ch=4 n=58 v=64
30120 On ch=4 n=41 v=80
30120 On ch=4 n=53 v=80
30240 Off ch=4 n=41 v=64
30240 Off ch=4 n=53 v=64
30240 On ch=4 n=44 v=80
30240 On ch=4 n=56 v=80
30600 Off ch=4 n=44 v=64
30600 Off ch=4 n=56 v=64
30600 On ch=4 n=46 v=80
30600 On ch=4 n=58 v=80
30960 Off ch=4 n=46 v=64
30960 Off ch=4 n=58 v=64
30960 On ch=4 n=47 v=80
30960 On ch=4 n=59 v=80
31200 Off ch=4 n=47 v=64
31200 Off ch=4 n=59 v=64
31200 On ch=4 n=46 v=80
31200 On ch=4 n=58 v=80
31320 Off ch=4 n=46 v=64
31320 Off ch=4 n=58 v=64
31320 On ch=4 n=44 v=80
31320 On ch=4 n=56 v=80
31440 Off ch=4 n=44 v=64
31440 Off ch=4 n=56 v=64
31440 On ch=4 n=41 v=80
31440 On ch=4 n=53 v=80
31560 Off ch=4 n=41 v=64
31560 Off ch=4 n=53 v=64
31560 On ch=4 n=46 v=80
31560 On ch=4 n=58 v=80
31680 Off ch=4 n=46 v=64
31680 Off ch=4 n=58 v=64
31680 On ch=4 n=44 v=80
31680 On ch=4 n=56 v=80
31800 Off ch=4 n=44 v=64
31800 Off ch=4 n=56 v=64
31800 On ch=4 n=41 v=80
31800 On ch=4 n=53 v=80
31920 Off ch=4 n=41 v=64
31920 Off ch=4 n=53 v=64
31920 On ch=4 n=43 v=80
31920 On ch=4 n=55 v=80
32160 Off ch=4 n=43 v=64
32160 Off ch=4 n=55 v=64
32160 On ch=4 n=48 v=80
32160 On ch=4 n=60 v=80
32280 Off ch=4 n=48 v=64
32280 Off ch=4 n=60 v=64
32400 On ch=4 n=45 v=80
32400 On ch=4 n=57 v=80
32520 Off ch=4 n=45 v=64
32520 Off ch=4 n=57 v=64
32640 On ch=4 n=50 v=80
32640 On ch=4 n=62 v=80
32760 Off ch=4 n=50 v=64
32760 Off ch=4 n=62 v=64
32760 On ch=4 n=47 v=80
32760 On ch=4 n=59 v=80
32880 Off ch=4 n=47 v=64
32880 Off ch=4 n=59 v=64
33000 On ch=4 n=52 v=80
33000 On ch=4 n=64 v=80
33120 Off ch=4 n=52 v=64
33120 Off ch=4 n=64 v=64
33120 On ch=4 n=48 v=80
33120 On ch=4 n=60 v=80
33240 Off ch=4 n=48 v=64
33240 Off ch=4 n=60 v=64
33360 On ch=4 n=53 v=80
33360 On ch=4 n=65 v=80
33480 Off ch=4 n=53 v=64
33480 Off ch=4 n=65 v=64
33480 On ch=4 n=62 v=80
33720 Off ch=4 n=62 v=64
33960 On ch=4 n=64 v=80
34080 Off ch=4 n=64 v=64
34080 On ch=4 n=70 v=80
34200 Off ch=4 n=70 v=64
34200 On ch=4 n=71 v=80
34320 Off ch=4 n=71 v=64
34320 On ch=4 n=76 v=80
34440 Off ch=4 n=76 v=64
34440 On ch=4 n=82 v=80
34560 Off ch=4 n=82 v=64
34560 On ch=4 n=83 v=80
34680 Off ch=4 n=83 v=64
34680 On ch=4 n=87 v=80
34800 Off ch=4 n=87 v=64
34800 On ch=4 n=94 v=80
34920 Off ch=4 n=94 v=64
34920 On ch=4 n=87 v=80
35040 Off ch=4 n=87 v=64
35040 On ch=4 n=89 v=80
35160 Off ch=4 n=89 v=64
35160 On ch=4 n=83 v=80
35280 Off ch=4 n=83 v=64
35280 On ch=4 n=79 v=80
35400 Off ch=4 n=79 v=64
35400 On ch=4 n=85 v=64
35400 On ch=4 n=94 v=64
35480 Off ch=4 n=85 v=64
35480 Off ch=4 n=94 v=64
35480 On ch=4 n=89 v=64
35480 On ch=4 n=92 v=64
35560 Off ch=4 n=89 v=64
35560 Off ch=4 n=92 v=64
35560 On ch=4 n=91 v=64
35560 On ch=4 n=90 v=64
35640 Off ch=4 n=91 v=64
35640 Off ch=4 n=90 v=64
35640 On ch=4 n=88 v=64
35640 On ch=4 n=94 v=64
35720 Off ch=4 n=88 v=64
35720 Off ch=4 n=94 v=64
35720 On ch=4 n=89 v=64
35720 On ch=4 n=92 v=64
35800 Off ch=4 n=89 v=64
35800 Off ch=4 n=92 v=64
35800 On ch=4 n=91 v=64
35800 On ch=4 n=90 v=64
35880 Off ch=4 n=91 v=64
35880 Off ch=4 n=90 v=64
35880 On ch=4 n=85 v=64
35880 On ch=4 n=94 v=64
35960 Off ch=4 n=85 v=64
35960 Off ch=4 n=94 v=64
35960 On ch=4 n=89 v=64
35960 On ch=4 n=92 v=64
36040 Off ch=4 n=89 v=64
36040 Off ch=4 n=92 v=64
36040 On ch=4 n=91 v=64
36040 On ch=4 n=90 v=64
36120 Off ch=4 n=91 v=64
36120 Off ch=4 n=90 v=64
36120 On ch=4 n=88 v=64
36120 On ch=4 n=94 v=64
36200 Off ch=4 n=88 v=64
36200 Off ch=4 n=94 v=64
36200 On ch=4 n=89 v=64
36200 On ch=4 n=92 v=64
36280 Off ch=4 n=89 v=64
36280 Off ch=4 n=92 v=64
36280 On ch=4 n=91 v=64
36280 On ch=4 n=90 v=64
36360 Off ch=4 n=91 v=64
36360 Off ch=4 n=90 v=64
36360 On ch=4 n=85 v=64
36360 On ch=4 n=94 v=64
36440 Off ch=4 n=85 v=64
36440 Off ch=4 n=94 v=64
36440 On ch=4 n=89 v=64
36440 On ch=4 n=92 v=64
36520 Off ch=4 n=89 v=64
36520 Off ch=4 n=92 v=64
36520 On ch=4 n=91 v=64
36520 On ch=4 n=90 v=64
36600 Off ch=4 n=91 v=64
36600 Off ch=4 n=90 v=64
36600 On ch=4 n=88 v=64
36600 On ch=4 n=94 v=64
36680 Off ch=4 n=88 v=64
36680 Off ch=4 n=94 v=64
36680 On ch=4 n=89 v=64
36680 On ch=4 n=92 v=64
36760 Off ch=4 n=89 v=64
36760 Off ch=4 n=92 v=64
36760 On ch=4 n=91 v=64
36760 On ch=4 n=90 v=64
36840 Off ch=4 n=91 v=64
36840 Off ch=4 n=90 v=64
36840 On ch=4 n=85 v=64
36840 On ch=4 n=94 v=64
36920 Off ch=4 n=85 v=64
36920 Off ch=4 n=94 v=64
36920 On ch=4 n=89 v=64
36920 On ch=4 n=92 v=64
37000 Off ch=4 n=89 v=64
37000 Off ch=4 n=92 v=64
37000 On ch=4 n=91 v=64
37000 On ch=4 n=90 v=64
37080 Off ch=4 n=91 v=64
37080 Off ch=4 n=90 v=64
37080 On ch=4 n=88 v=64
37080 On ch=4 n=94 v=64
37160 Off ch=4 n=88 v=64
37160 Off ch=4 n=94 v=64
37160 On ch=4 n=89 v=64
37160 On ch=4 n=92 v=64
37240 Off ch=4 n=89 v=64
37240 Off ch=4 n=92 v=64
37240 On ch=4 n=91 v=64
37240 On ch=4 n=90 v=64
37320 Off ch=4 n=91 v=64
37320 Off ch=4 n=90 v=64
37320 On ch=4 n=85 v=64
37320 On ch=4 n=94 v=64
37400 Off ch=4 n=85 v=64
37400 Off ch=4 n=94 v=64
37400 On ch=4 n=89 v=64
37400 On ch=4 n=92 v=64
37480 Off ch=4 n=89 v=64
37480 Off ch=4 n=92 v=64
37480 On ch=4 n=91 v=64
37480 On ch=4 n=90 v=64
37560 Off ch=4 n=91 v=64
37560 Off ch=4 n=90 v=64
37560 On ch=4 n=88 v=64
37560 On ch=4 n=94 v=64
37640 Off ch=4 n=88 v=64
37640 Off ch=4 n=94 v=64
37640 On ch=4 n=89 v=64
37640 On ch=4 n=92 v=64
37720 Off ch=4 n=89 v=64
37720 Off ch=4 n=92 v=64
37720 On ch=4 n=91 v=64
37720 On ch=4 n=90 v=64
37800 Off ch=4 n=91 v=64
37800 Off ch=4 n=90 v=64
37800 On ch=4 n=85 v=64
37800 On ch=4 n=94 v=64
37880 Off ch=4 n=85 v=64
37880 Off ch=4 n=94 v=64
37880 On ch=4 n=89 v=64
37880 On ch=4 n=92 v=64
37960 Off ch=4 n=89 v=64
37960 Off ch=4 n=92 v=64
37960 On ch=4 n=91 v=64
37960 On ch=4 n=90 v=64
38040 Off ch=4 n=91 v=64
38040 Off ch=4 n=90 v=64
38040 On ch=4 n=88 v=64
38040 On ch=4 n=94 v=64
38120 Off ch=4 n=88 v=64
38120 Off ch=4 n=94 v=64
38120 On ch=4 n=89 v=64
38120 On ch=4 n=92 v=64
38200 Off ch=4 n=89 v=64
38200 Off ch=4 n=92 v=64
38200 On ch=4 n=91 v=64
38200 On ch=4 n=90 v=64
38280 Off ch=4 n=91 v=64
38280 Off ch=4 n=90 v=64
38280 On ch=4 n=85 v=80
38320 On ch=4 n=86 v=64
38360 Off ch=4 n=86 v=64
38360 On ch=4 n=87 v=64
38400 Off ch=4 n=87 v=64
38400 On ch=4 n=88 v=64
38440 Off ch=4 n=85 v=64
38440 Off ch=4 n=88 v=64
38440 On ch=4 n=86 v=80
38500 On ch=4 n=87 v=64
38540 Off ch=4 n=87 v=64
38540 On ch=4 n=88 v=64
38580 Off ch=4 n=88 v=64
38580 On ch=4 n=89 v=64
38600 Off ch=4 n=86 v=64
38600 On ch=4 n=87 v=80
38620 Off ch=4 n=89 v=64
38660 On ch=4 n=88 v=64
38700 Off ch=4 n=88 v=64
38700 On ch=4 n=89 v=64
38740 Off ch=4 n=89 v=64
38740 On ch=4 n=90 v=64
38760 Off ch=4 n=87 v=64
38760 On ch=4 n=88 v=80
38780 Off ch=4 n=90 v=64
38820 On ch=4 n=89 v=64
38860 Off ch=4 n=89 v=64
38860 On ch=4 n=90 v=64
38900 Off ch=4 n=90 v=64
38900 On ch=4 n=91 v=64
38920 Off ch=4 n=88 v=64
38920 On ch=4 n=89 v=80
38940 Off ch=4 n=91 v=64
38980 On ch=4 n=90 v=64
39020 Off ch=4 n=90 v=64
39020 On ch=4 n=91 v=64
39060 Off ch=4 n=91 v=64
39060 On ch=4 n=92 v=64
39080 Off ch=4 n=89 v=64
39080 On ch=4 n=90 v=80
39100 Off ch=4 n=92 v=64
39160 On ch=4 n=91 v=64
39200 Off ch=4 n=91 v=64
39200 On ch=4 n=92 v=64
39240 Off ch=4 n=90 v=64
39240 Off ch=4 n=92 v=64
39240 On ch=4 n=79 v=80
39240 On ch=4 n=93 v=64
39280 Off ch=4 n=93 v=64
39320 On ch=4 n=92 v=64
39360 Off ch=4 n=92 v=64
39360 On ch=4 n=93 v=64
39400 Off ch=4 n=79 v=64
39400 Off ch=4 n=93 v=64
39400 On ch=4 n=80 v=80
39400 On ch=4 n=94 v=64
39440 Off ch=4 n=94 v=64
39480 On ch=4 n=93 v=64
39520 Off ch=4 n=93 v=64
39520 On ch=4 n=94 v=64
39560 Off ch=4 n=80 v=64
39560 Off ch=4 n=94 v=64
39560 On ch=4 n=81 v=80
39560 On ch=4 n=95 v=64
39600 Off ch=4 n=95 v=64
39640 On ch=4 n=94 v=64
39680 Off ch=4 n=94 v=64
39680 On ch=4 n=95 v=64
39720 Off ch=4 n=81 v=64
39720 Off ch=4 n=95 v=64
39720 On ch=4 n=82 v=80
39720 On ch=4 n=96 v=64
39760 Off ch=4 n=96 v=64
39800 On ch=4 n=95 v=64
39840 Off ch=4 n=95 v=64
39840 On ch=4 n=98 v=64
39880 Off ch=4 n=82 v=64
39880 Off ch=4 n=98 v=64
39880 On ch=4 n=83 v=80
39880 On ch=4 n=97 v=64
39920 Off ch=4 n=97 v=64
39960 On ch=4 n=96 v=64
40000 Off ch=4 n=96 v=64
40000 On ch=4 n=97 v=64
40040 Off ch=4 n=83 v=64
40040 Off ch=4 n=97 v=64
40040 On ch=4 n=85 v=80
40040 On ch=4 n=98 v=64
40080 Off ch=4 n=98 v=64
40120 On ch=4 n=97 v=64
40160 Off ch=4 n=97 v=64
40160 On ch=4 n=98 v=64
40200 Off ch=4 n=85 v=64
40200 Off ch=4 n=98 v=64
40200 On ch=4 n=84 v=64
40240 On ch=4 n=97 v=79
40280 Off ch=4 n=84 v=64
40280 Off ch=4 n=97 v=64
40280 On ch=4 n=84 v=64
40280 On ch=4 n=98 v=79
40320 Off ch=4 n=98 v=64
40320 On ch=4 n=99 v=80
40360 Off ch=4 n=84 v=64
40360 Off ch=4 n=99 v=64
40360 On ch=4 n=84 v=64
40400 On ch=4 n=97 v=85
40440 Off ch=4 n=84 v=64
40440 Off ch=4 n=97 v=64
40440 On ch=4 n=84 v=64
40440 On ch=4 n=98 v=72
40480 Off ch=4 n=98 v=64
40480 On ch=4 n=99 v=78
40520 Off ch=4 n=84 v=64
40520 Off ch=4 n=99 v=64
40520 On ch=4 n=84 v=64
40560 On ch=4 n=97 v=76
40600 Off ch=4 n=84 v=64
40600 Off ch=4 n=97 v=64
40600 On ch=4 n=84 v=64
40600 On ch=4 n=98 v=75
40640 Off ch=4 n=98 v=64
40640 On ch=4 n=99 v=83
40680 Off ch=4 n=84 v=64
40680 Off ch=4 n=99 v=64
40680 On ch=4 n=84 v=64
40720 On ch=4 n=97 v=82
40760 Off ch=4 n=84 v=64
40760 Off ch=4 n=97 v=64
40760 On ch=4 n=84 v=64
40760 On ch=4 n=98 v=73
40800 Off ch=4 n=98 v=64
40800 On ch=4 n=99 v=81
40840 Off ch=4 n=84 v=64
40840 Off ch=4 n=99 v=64
40840 On ch=4 n=84 v=64
40880 On ch=4 n=97 v=73
40920 Off ch=4 n=84 v=64
40920 Off ch=4 n=97 v=64
40920 On ch=4 n=84 v=64
40920 On ch=4 n=98 v=86
40960 Off ch=4 n=98 v=64
40960 On ch=4 n=99 v=84
41000 Off ch=4 n=84 v=64
41000 Off ch=4 n=99 v=64
41000 On ch=4 n=84 v=64
41040 On ch=4 n=97 v=84
41080 Off ch=4 n=84 v=64
41080 Off ch=4 n=97 v=64
41080 On ch=4 n=84 v=64
41080 On ch=4 n=98 v=79
41120 Off ch=4 n=98 v=64
41120 On ch=4 n=99 v=83
41160 Off ch=4 n=84 v=64
41160 Off ch=4 n=99 v=64
41160 On ch=4 n=84 v=64
41200 On ch=4 n=97 v=79
41240 Off ch=4 n=84 v=64
41240 Off ch=4 n=97 v=64
41240 On ch=4 n=84 v=64
41240 On ch=4 n=98 v=84
41280 Off ch=4 n=98 v=64
41280 On ch=4 n=99 v=72
41320 Off ch=4 n=84 v=64
41320 Off ch=4 n=99 v=64
41320 On ch=4 n=84 v=64
41360 On ch=4 n=97 v=73
41400 Off ch=4 n=84 v=64
41400 Off ch=4 n=97 v=64
41400 On ch=4 n=84 v=64
41400 On ch=4 n=98 v=75
41440 Off ch=4 n=98 v=64
41440 On ch=4 n=99 v=80
41480 Off ch=4 n=84 v=64
41480 Off ch=4 n=99 v=64
41480 On ch=4 n=84 v=64
41520 On ch=4 n=97 v=79
41560 Off ch=4 n=84 v=64
41560 Off ch=4 n=97 v=64
41560 On ch=4 n=84 v=64
41560 On ch=4 n=98 v=82
41600 Off ch=4 n=98 v=64
41600 On ch=4 n=99 v=82
41640 Off ch=4 n=84 v=64
41640 Off ch=4 n=99 v=64
41640 On ch=4 n=84 v=64
41680 On ch=4 n=97 v=73
41720 Off ch=4 n=84 v=64
41720 Off ch=4 n=97 v=64
41720 On ch=4 n=84 v=64
41720 On ch=4 n=98 v=75
41760 Off ch=4 n=98 v=64
41760 On ch=4 n=99 v=75
41800 Off ch=4 n=84 v=64
41800 Off ch=4 n=99 v=64
41800 On ch=4 n=84 v=64
41840 On ch=4 n=97 v=80
41880 Off ch=4 n=84 v=64
41880 Off ch=4 n=97 v=64
41880 On ch=4 n=84 v=64
41880 On ch=4 n=98 v=81
41920 Off ch=4 n=98 v=64
41920 On ch=4 n=99 v=73
41960 Off ch=4 n=84 v=64
41960 Off ch=4 n=99 v=64
41960 On ch=4 n=84 v=64
42000 On ch=4 n=97 v=83
42040 Off ch=4 n=84 v=64
42040 Off ch=4 n=97 v=64
42040 On ch=4 n=84 v=64
42040 On ch=4 n=98 v=84
42080 Off ch=4 n=98 v=64
42080 On ch=4 n=99 v=74
42120 Off ch=4 n=84 v=64
42120 Off ch=4 n=99 v=64
42120 On ch=4 n=84 v=64
42160 On ch=4 n=97 v=73
42200 Off ch=4 n=84 v=64
42200 Off ch=4 n=97 v=64
42200 On ch=4 n=84 v=64
42200 On ch=4 n=98 v=81
42240 Off ch=4 n=98 v=64
42240 On ch=4 n=99 v=82
42280 Off ch=4 n=84 v=64
42280 Off ch=4 n=99 v=64
42280 On ch=4 n=84 v=64
42320 On ch=4 n=97 v=84
42360 Off ch=4 n=84 v=64
42360 Off ch=4 n=97 v=64
42360 On ch=4 n=84 v=64
42360 On ch=4 n=98 v=81
42400 Off ch=4 n=98 v=64
42400 On ch=4 n=99 v=84
42440 Off ch=4 n=84 v=64
42440 Off ch=4 n=99 v=64
42440 On ch=4 n=84 v=64
42480 On ch=4 n=97 v=77
42520 Off ch=4 n=84 v=64
42520 Off ch=4 n=97 v=64
42520 On ch=4 n=84 v=64
42520 On ch=4 n=98 v=78
42560 Off ch=4 n=98 v=64
42560 On ch=4 n=99 v=80
42600 Off ch=4 n=84 v=64
42600 Off ch=4 n=99 v=64
42600 On ch=4 n=84 v=64
42640 On ch=4 n=97 v=73
42680 Off ch=4 n=84 v=64
42680 Off ch=4 n=97 v=64
42680 On ch=4 n=84 v=64
42680 On ch=4 n=98 v=83
42720 Off ch=4 n=98 v=64
42720 On ch=4 n=99 v=76
42760 Off ch=4 n=84 v=64
42760 Off ch=4 n=99 v=64
42760 On ch=4 n=84 v=64
42800 On ch=4 n=97 v=79
42840 Off ch=4 n=84 v=64
42840 Off ch=4 n=97 v=64
42840 On ch=4 n=84 v=64
42840 On ch=4 n=98 v=78
42880 Off ch=4 n=98 v=64
42880 On ch=4 n=99 v=87
42920 Off ch=4 n=84 v=64
42920 Off ch=4 n=99 v=64
42920 On ch=4 n=84 v=64
42960 On ch=4 n=97 v=79
43000 Off ch=4 n=84 v=64
43000 Off ch=4 n=97 v=64
43000 On ch=4 n=84 v=64
43000 On ch=4 n=98 v=82
43040 Off ch=4 n=98 v=64
43040 On ch=4 n=99 v=80
43080 Off ch=4 n=84 v=64
43080 Off ch=4 n=99 v=64
43080 On ch=4 n=84 v=64
43120 On ch=4 n=97 v=73
43160 Off ch=4 n=97 v=64
43160 On ch=4 n=98 v=76
43200 Off ch=4 n=98 v=64
43200 On ch=4 n=99 v=86
43240 Off ch=4 n=84 v=64
43240 Off ch=4 n=99 v=64
43240 On ch=4 n=83 v=64
43280 On ch=4 n=96 v=83
43320 Off ch=4 n=96 v=64
43320 On ch=4 n=97 v=72
43360 Off ch=4 n=97 v=64
43360 On ch=4 n=98 v=86
43400 Off ch=4 n=83 v=64
43400 Off ch=4 n=98 v=64
43400 On ch=4 n=82 v=64
43440 On ch=4 n=95 v=87
43480 Off ch=4 n=95 v=64
43480 On ch=4 n=96 v=85
43520 Off ch=4 n=96 v=64
43520 On ch=4 n=97 v=84
43560 Off ch=4 n=82 v=64
43560 Off ch=4 n=97 v=64
43560 On ch=4 n=81 v=64
43600 On ch=4 n=94 v=72
43640 Off ch=4 n=94 v=64
43640 On ch=4 n=95 v=84
43680 Off ch=4 n=95 v=64
43680 On ch=4 n=96 v=73
43720 Off ch=4 n=81 v=64
43720 Off ch=4 n=96 v=64
43720 On ch=4 n=81 v=64
43752 On ch=4 n=94 v=79
43784 Off ch=4 n=94 v=64
43784 On ch=4 n=95 v=78
43816 Off ch=4 n=95 v=64
43816 On ch=4 n=96 v=81
43848 Off ch=4 n=96 v=64
43848 On ch=4 n=97 v=84
43880 Off ch=4 n=81 v=64
43880 Off ch=4 n=97 v=64
43880 On ch=4 n=87 v=64
43912 On ch=4 n=97 v=72
43944 Off ch=4 n=97 v=64
43944 On ch=4 n=96 v=74
43976 Off ch=4 n=96 v=64
43976 On ch=4 n=95 v=84
44008 Off ch=4 n=95 v=64
44008 On ch=4 n=94 v=81
44040 Off ch=4 n=87 v=64
44040 Off ch=4 n=94 v=64
44040 On ch=4 n=84 v=64
44100 On ch=4 n=95 v=87
44160 Off ch=4 n=95 v=64
44160 On ch=4 n=94 v=73
44220 Off ch=4 n=94 v=64
44220 On ch=4 n=93 v=73
44280 Off ch=4 n=84 v=64
44280 Off ch=4 n=93 v=64
44280 On ch=4 n=82 v=64
44340 On ch=4 n=92 v=76
44400 Off ch=4 n=92 v=64
44400 On ch=4 n=91 v=72
44460 Off ch=4 n=91 v=64
44460 On ch=4 n=89 v=80
44520 Off ch=4 n=82 v=64
44520 Off ch=4 n=89 v=64
44520 On ch=4 n=88 v=77
44560 Off ch=4 n=88 v=64
44560 On ch=4 n=91 v=74
44600 Off ch=4 n=91 v=64
44600 On ch=4 n=94 v=79
44640 Off ch=4 n=94 v=64
44640 On ch=4 n=99 v=80
44680 Off ch=4 n=99 v=64
44680 On ch=4 n=97 v=80
44720 Off ch=4 n=97 v=64
44720 On ch=4 n=94 v=82
44760 Off ch=4 n=94 v=64
44760 On ch=4 n=91 v=78
44800 Off ch=4 n=91 v=64
44800 On ch=4 n=88 v=82
44840 Off ch=4 n=88 v=64
44840 On ch=4 n=85 v=75
44880 Off ch=4 n=85 v=64
44880 On ch=4 n=84 v=77
44920 Off ch=4 n=84 v=64
44920 On ch=4 n=82 v=82
44960 Off ch=4 n=82 v=64
44960 On ch=4 n=80 v=78
45000 Off ch=4 n=80 v=64
45000 On ch=4 n=76 v=77
45068 Off ch=4 n=76 v=64
45068 On ch=4 n=79 v=80
45136 Off ch=4 n=79 v=64
45136 On ch=4 n=87 v=80
45204 Off ch=4 n=87 v=64
45204 On ch=4 n=86 v=77
45272 Off ch=4 n=86 v=64
45272 On ch=4 n=84 v=81
45340 Off ch=4 n=84 v=64
45340 On ch=4 n=82 v=82
45408 Off ch=4 n=82 v=64
45408 On ch=4 n=80 v=87
45476 Off ch=4 n=80 v=64
45480 On ch=4 n=76 v=64
45533 On ch=4 n=79 v=86
45586 Off ch=4 n=79 v=64
45586 On ch=4 n=80 v=78
45639 Off ch=4 n=80 v=64
45640 Off ch=4 n=76 v=64
45640 On ch=4 n=77 v=64
45693 On ch=4 n=80 v=78
45746 Off ch=4 n=80 v=64
45746 On ch=4 n=81 v=87
45799 Off ch=4 n=81 v=64
45800 Off ch=4 n=77 v=64
45800 On ch=4 n=78 v=64
45853 On ch=4 n=81 v=78
45906 Off ch=4 n=81 v=64
45906 On ch=4 n=82 v=76
45959 Off ch=4 n=82 v=64
45960 Off ch=4 n=78 v=64
45960 On ch=4 n=79 v=64
46013 On ch=4 n=82 v=86
46066 Off ch=4 n=82 v=64
46066 On ch=4 n=83 v=73
46119 Off ch=4 n=83 v=64
46120 Off ch=4 n=79 v=64
46120 On ch=4 n=80 v=64
46173 On ch=4 n=83 v=80
46226 Off ch=4 n=83 v=64
46226 On ch=4 n=84 v=72
46279 Off ch=4 n=84 v=64
46280 Off ch=4 n=80 v=64
46280 On ch=4 n=81 v=64
46333 On ch=4 n=84 v=74
46386 Off ch=4 n=84 v=64
46386 On ch=4 n=85 v=82
46439 Off ch=4 n=85 v=64
46440 Off ch=4 n=81 v=64
46440 On ch=4 n=82 v=64
46493 On ch=4 n=85 v=74
46546 Off ch=4 n=85 v=64
46546 On ch=4 n=86 v=72
46599 Off ch=4 n=86 v=64
46600 Off ch=4 n=82 v=64
46600 On ch=4 n=83 v=64
46653 On ch=4 n=86 v=74
46706 Off ch=4 n=86 v=64
46706 On ch=4 n=87 v=78
46759 Off ch=4 n=87 v=64
46760 Off ch=4 n=83 v=64
46760 On ch=4 n=84 v=64
46813 On ch=4 n=87 v=77
46866 Off ch=4 n=87 v=64
46866 On ch=4 n=88 v=78
46919 Off ch=4 n=88 v=64
46920 Off ch=4 n=84 v=64
46920 On ch=4 n=85 v=64
46973 On ch=4 n=88 v=85
47026 Off ch=4 n=88 v=64
47026 On ch=4 n=89 v=72
47079 Off ch=4 n=89 v=64
47080 Off ch=4 n=85 v=64
47080 On ch=4 n=86 v=64
47133 On ch=4 n=89 v=72
47186 Off ch=4 n=89 v=64
47186 On ch=4 n=90 v=79
47239 Off ch=4 n=90 v=64
47240 Off ch=4 n=86 v=64
47240 On ch=4 n=87 v=64
47293 On ch=4 n=90 v=82
47346 Off ch=4 n=90 v=64
47346 On ch=4 n=91 v=76
47399 Off ch=4 n=91 v=64
47400 Off ch=4 n=87 v=64
47400 On ch=4 n=88 v=86
47434 Off ch=4 n=88 v=64
47434 On ch=4 n=91 v=78
47468 Off ch=4 n=91 v=64
47468 On ch=4 n=92 v=85
47502 Off ch=4 n=92 v=64
47503 On ch=4 n=91 v=77
47537 Off ch=4 n=91 v=64
47537 On ch=4 n=90 v=73
47571 Off ch=4 n=90 v=64
47572 On ch=4 n=89 v=80
47606 Off ch=4 n=89 v=64
47606 On ch=4 n=88 v=72
47640 Off ch=4 n=88 v=64
47640 On ch=4 n=92 v=78
47688 Off ch=4 n=92 v=64
47688 On ch=4 n=91 v=72
47736 Off ch=4 n=91 v=64
47736 On ch=4 n=90 v=73
47784 Off ch=4 n=90 v=64
47784 On ch=4 n=89 v=80
47832 Off ch=4 n=89 v=64
47832 On ch=4 n=88 v=81
47880 Off ch=4 n=88 v=64
47880 On ch=4 n=92 v=81
47928 Off ch=4 n=92 v=64
47928 On ch=4 n=91 v=75
47976 Off ch=4 n=91 v=64
47976 On ch=4 n=90 v=78
48024 Off ch=4 n=90 v=64
48024 On ch=4 n=89 v=85
48072 Off ch=4 n=89 v=64
48072 On ch=4 n=88 v=75
48120 Off ch=4 n=88 v=64
48120 On ch=4 n=92 v=78
48168 Off ch=4 n=92 v=64
48168 On ch=4 n=91 v=76
48216 Off ch=4 n=91 v=64
48216 On ch=4 n=90 v=83
48264 Off ch=4 n=90 v=64
48264 On ch=4 n=89 v=78
48312 Off ch=4 n=89 v=64
48312 On ch=4 n=88 v=81
48360 Off ch=4 n=88 v=64
48360 On ch=4 n=92 v=74
48408 Off ch=4 n=92 v=64
48408 On ch=4 n=91 v=82
48456 Off ch=4 n=91 v=64
48456 On ch=4 n=90 v=85
48504 Off ch=4 n=90 v=64
48504 On ch=4 n=89 v=78
48552 Off ch=4 n=89 v=64
48552 On ch=4 n=88 v=81
48600 Off ch=4 n=88 v=64
48600 On ch=4 n=83 v=64
48653 On ch=4 n=85 v=79
48706 Off ch=4 n=85 v=64
48706 On ch=4 n=84 v=81
48759 Off ch=4 n=84 v=64
48760 Off ch=4 n=83 v=64
48760 On ch=4 n=83 v=64
48813 On ch=4 n=85 v=86
48866 Off ch=4 n=85 v=64
48866 On ch=4 n=84 v=86
48919 Off ch=4 n=84 v=64
48920 Off ch=4 n=83 v=64
48920 On ch=4 n=83 v=64
48972 On ch=4 n=85 v=75
49025 Off ch=4 n=85 v=64
49025 On ch=4 n=84 v=75
49078 Off ch=4 n=84 v=64
49080 Off ch=4 n=83 v=64
49080 On ch=4 n=83 v=64
49133 On ch=4 n=85 v=74
49186 Off ch=4 n=85 v=64
49186 On ch=4 n=84 v=73
49239 Off ch=4 n=84 v=64
49240 Off ch=4 n=83 v=64
49240 On ch=4 n=83 v=64
49293 On ch=4 n=85 v=87
49346 Off ch=4 n=85 v=64
49346 On ch=4 n=84 v=73
49399 Off ch=4 n=84 v=64
49400 Off ch=4 n=83 v=64
49400 On ch=4 n=83 v=64
49452 On ch=4 n=85 v=87
49505 Off ch=4 n=85 v=64
49505 On ch=4 n=84 v=82
49558 Off ch=4 n=84 v=64
49560 Off ch=4 n=83 v=64
49560 On ch=4 n=83 v=64
49613 On ch=4 n=85 v=78
49666 Off ch=4 n=85 v=64
49666 On ch=4 n=84 v=76
49719 Off ch=4 n=84 v=64
49720 Off ch=4 n=83 v=64
49720 On ch=4 n=83 v=64
49773 On ch=4 n=85 v=72
49826 Off ch=4 n=85 v=64
49826 On ch=4 n=84 v=77
49879 Off ch=4 n=84 v=64
49880 Off ch=4 n=83 v=64
49880 On ch=4 n=83 v=64
49932 On ch=4 n=85 v=87
49985 Off ch=4 n=85 v=64
49985 On ch=4 n=84 v=87
50038 Off ch=4 n=84 v=64
50040 Off ch=4 n=83 v=64
50520 On ch=4 n=94 v=80
50616 Off ch=4 n=94 v=64
50616 On ch=4 n=85 v=83
50712 Off ch=4 n=85 v=64
50712 On ch=4 n=84 v=84
50808 Off ch=4 n=84 v=64
50808 On ch=4 n=85 v=82
50904 Off ch=4 n=85 v=64
50904 On ch=4 n=89 v=74
51000 Off ch=4 n=89 v=64
51000 On ch=4 n=94 v=77
51480 Off ch=4 n=94 v=64
51480 On ch=4 n=94 v=76
51576 Off ch=4 n=94 v=64
51576 On ch=4 n=85 v=79
51672 Off ch=4 n=85 v=64
51672 On ch=4 n=84 v=72
51768 Off ch=4 n=84 v=64
51768 On ch=4 n=85 v=82
51864 Off ch=4 n=85 v=64
51864 On ch=4 n=89 v=77
51960 Off ch=4 n=89 v=64
51960 On ch=4 n=94 v=85
52440 Off ch=4 n=94 v=64
52440 On ch=4 n=94 v=73
52504 Off ch=4 n=94 v=64
52504 On ch=4 n=85 v=74
52568 Off ch=4 n=85 v=64
52568 On ch=4 n=84 v=82
52632 Off ch=4 n=84 v=64
52632 On ch=4 n=85 v=81
52696 Off ch=4 n=85 v=64
52696 On ch=4 n=89 v=80
52760 Off ch=4 n=89 v=64
52760 On ch=4 n=94 v=73
52824 Off ch=4 n=94 v=64
52824 On ch=4 n=85 v=75
52888 Off ch=4 n=85 v=64
52888 On ch=4 n=84 v=82
52952 Off ch=4 n=84 v=64
52952 On ch=4 n=85 v=82
53016 Off ch=4 n=85 v=64
53016 On ch=4 n=89 v=78
53080 Off ch=4 n=89 v=64
53080 On ch=4 n=94 v=80
53144 Off ch=4 n=94 v=64
53144 On ch=4 n=85 v=75
53208 Off ch=4 n=85 v=64
53208 On ch=4 n=84 v=78
53272 Off ch=4 n=84 v=64
53272 On ch=4 n=85 v=74
53336 Off ch=4 n=85 v=64
53336 On ch=4 n=89 v=83
53400 Off ch=4 n=89 v=64
53400 On ch=4 n=94 v=86
53464 Off ch=4 n=94 v=64
53464 On ch=4 n=85 v=78
53528 Off ch=4 n=85 v=64
53528 On ch=4 n=84 v=80
53592 Off ch=4 n=84 v=64
53592 On ch=4 n=85 v=76
53656 Off ch=4 n=85 v=64
53656 On ch=4 n=89 v=75
53720 Off ch=4 n=89 v=64
53720 On ch=4 n=94 v=82
53784 Off ch=4 n=94 v=64
53784 On ch=4 n=85 v=79
53848 Off ch=4 n=85 v=64
53848 On ch=4 n=84 v=79
53912 Off ch=4 n=84 v=64
53912 On ch=4 n=85 v=87
53976 Off ch=4 n=85 v=64
53976 On ch=4 n=89 v=86
54040 Off ch=4 n=89 v=64
54040 On ch=4 n=94 v=76
54104 Off ch=4 n=94 v=64
54104 On ch=4 n=85 v=78
54168 Off ch=4 n=85 v=64
54168 On ch=4 n=84 v=76
54232 Off ch=4 n=84 v=64
54232 On ch=4 n=85 v=87
54296 Off ch=4 n=85 v=64
54296 On ch=4 n=89 v=73
54360 Off ch=4 n=89 v=64
54360 On ch=4 n=99 v=61
54360 On ch=4 n=94 v=70
54360 On ch=4 n=91 v=80
54360 On ch=4 n=88 v=65
54960 Off ch=4 n=99 v=64
54960 Off ch=4 n=88 v=64
54960 Off ch=4 n=91 v=64
54960 Off ch=4 n=94 v=64
55410 On ch=4 n=84 v=70
55560 Off ch=4 n=84 v=64
55560 On ch=4 n=94 v=75
55710 Off ch=4 n=94 v=64
55710 On ch=4 n=84 v=69
55860 Off ch=4 n=84 v=64
55860 On ch=4 n=82 v=82
56010 Off ch=4 n=82 v=64
56010 On ch=4 n=84 v=80
56160 Off ch=4 n=84 v=64
56160 On ch=4 n=94 v=78
56310 Off ch=4 n=94 v=64
56310 On ch=4 n=84 v=80
56460 Off ch=4 n=84 v=64
56460 On ch=4 n=82 v=80
56610 Off ch=4 n=82 v=64
56610 On ch=4 n=84 v=84
56760 Off ch=4 n=84 v=64
56760 On ch=4 n=94 v=76
56910 Off ch=4 n=94 v=64
56910 On ch=4 n=84 v=75
57060 Off ch=4 n=84 v=64
57060 On ch=4 n=85 v=80
57210 Off ch=4 n=85 v=64
57210 On ch=4 n=94 v=78
57360 Off ch=4 n=94 v=64
57360 On ch=4 n=85 v=78
57510 Off ch=4 n=85 v=64
57510 On ch=4 n=86 v=82
57660 Off ch=4 n=86 v=64
57660 On ch=4 n=94 v=88
57810 Off ch=4 n=94 v=64
57810 On ch=4 n=86 v=75
57960 Off ch=4 n=86 v=64
57960 On ch=4 n=88 v=92
58110 Off ch=4 n=88 v=64
58110 On ch=4 n=94 v=78
58560 Off ch=4 n=94 v=64
58560 On ch=4 n=94 v=80
58710 Off ch=4 n=94 v=64
58710 On ch=4 n=84 v=80
58860 Off ch=4 n=84 v=64
58860 On ch=4 n=82 v=78
59010 Off ch=4 n=82 v=64
59010 On ch=4 n=84 v=80
59160 Off ch=4 n=84 v=64
59160 On ch=4 n=94 v=78
59310 Off ch=4 n=94 v=64
59310 On ch=4 n=89 v=75
59460 Off ch=4 n=89 v=64
59460 On ch=4 n=84 v=82
59610 Off ch=4 n=84 v=64
59610 On ch=4 n=88 v=97
59760 Off ch=4 n=88 v=64
59760 On ch=4 n=82 v=76
60360 Off ch=4 n=82 v=64
60360 On ch=4 n=94 v=76
60510 Off ch=4 n=94 v=64
60510 On ch=4 n=84 v=76
60660 Off ch=4 n=84 v=64
60660 On ch=4 n=82 v=71
60810 Off ch=4 n=82 v=64
60810 On ch=4 n=84 v=84
60960 Off ch=4 n=84 v=64
60960 On ch=4 n=94 v=92
61110 Off ch=4 n=94 v=64
61110 On ch=4 n=85 v=86
61260 Off ch=4 n=85 v=64
61260 On ch=4 n=84 v=86
61410 Off ch=4 n=84 v=64
61410 On ch=4 n=85 v=94
61560 Off ch=4 n=85 v=64
61560 On ch=4 n=94 v=82
61710 Off ch=4 n=94 v=64
61710 On ch=4 n=85 v=90
61860 Off ch=4 n=85 v=64
61860 On ch=4 n=84 v=82
62010 Off ch=4 n=84 v=64
62010 On ch=4 n=85 v=92
62160 Off ch=4 n=85 v=64
62160 On ch=4 n=94 v=90
62310 Off ch=4 n=94 v=64
62310 On ch=4 n=85 v=90
62460 Off ch=4 n=85 v=64
62460 On ch=4 n=84 v=80
62610 Off ch=4 n=84 v=64
62610 On ch=4 n=85 v=78
62760 Off ch=4 n=85 v=64
62760 On ch=4 n=96 v=88
63960 Off ch=4 n=96 v=64
63960 On ch=4 n=94 v=76
64110 Off ch=4 n=94 v=64
64110 On ch=4 n=84 v=80
64260 Off ch=4 n=84 v=64
64260 On ch=4 n=82 v=78
64410 Off ch=4 n=82 v=64
64410 On ch=4 n=88 v=94
64560 Off ch=4 n=88 v=64
64560 On ch=4 n=94 v=78
64710 Off ch=4 n=94 v=64
64710 On ch=4 n=88 v=75
64860 Off ch=4 n=88 v=64
64860 On ch=4 n=84 v=80
65010 Off ch=4 n=84 v=64
65010 On ch=4 n=88 v=99
65160 Off ch=4 n=88 v=64
65160 On ch=4 n=94 v=78
65310 Off ch=4 n=94 v=64
65310 On ch=4 n=82 v=84
65610 Off ch=4 n=82 v=64
65610 On ch=4 n=94 v=75
66210 Off ch=4 n=94 v=64
66210 On ch=4 n=94 v=78
66360 Off ch=4 n=94 v=64
66360 On ch=4 n=82 v=80
66480 Off ch=4 n=82 v=64
66480 On ch=4 n=89 v=80
66600 Off ch=4 n=89 v=64
66600 On ch=4 n=94 v=78
66720 Off ch=4 n=94 v=64
66720 On ch=4 n=82 v=90
66840 Off ch=4 n=82 v=64
66840 On ch=4 n=89 v=84
66960 Off ch=4 n=89 v=64
66960 On ch=4 n=94 v=75
67080 Off ch=4 n=94 v=64
67080 On ch=4 n=82 v=75
67200 Off ch=4 n=82 v=64
67200 On ch=4 n=94 v=78
67320 Off ch=4 n=94 v=64
67320 On ch=4 n=89 v=73
67440 Off ch=4 n=89 v=64
67440 On ch=4 n=82 v=73
67560 Off ch=4 n=82 v=64
67560 On ch=4 n=94 v=76
67680 Off ch=4 n=94 v=64
67680 On ch=4 n=89 v=75
67920 Off ch=4 n=89 v=64
67920 On ch=4 n=94 v=75
68280 Off ch=4 n=94 v=64
70920 On ch=4 n=74 v=97
71160 Off ch=4 n=74 v=64
71160 On ch=4 n=74 v=98
71280 Off ch=4 n=74 v=64
71280 On ch=4 n=72 v=90
71400 Off ch=4 n=72 v=64
71400 On ch=4 n=69 v=94
71520 Off ch=4 n=69 v=64
71520 On ch=4 n=74 v=90
71640 Off ch=4 n=74 v=64
71640 On ch=4 n=72 v=92
71760 Off ch=4 n=72 v=64
71760 On ch=4 n=69 v=86
71880 Off ch=4 n=69 v=64
71880 On ch=4 n=74 v=81
72000 Off ch=4 n=74 v=64
72000 On ch=4 n=72 v=91
72120 Off ch=4 n=72 v=64
72120 On ch=4 n=69 v=96
72240 Off ch=4 n=69 v=64
72240 On ch=4 n=74 v=90
72360 Off ch=4 n=74 v=64
72360 On ch=4 n=72 v=94
72480 Off ch=4 n=72 v=64
73320 On ch=4 n=74 v=88
73560 Off ch=4 n=74 v=64
73560 On ch=4 n=74 v=92
73680 Off ch=4 n=74 v=64
73680 On ch=4 n=72 v=93
73800 Off ch=4 n=72 v=64
73800 On ch=4 n=69 v=86
73920 Off ch=4 n=69 v=64
73920 On ch=4 n=74 v=82
74040 Off ch=4 n=74 v=64
74040 On ch=4 n=72 v=98
74160 Off ch=4 n=72 v=64
74160 On ch=4 n=69 v=96
74280 Off ch=4 n=69 v=64
74280 On ch=4 n=74 v=92
74400 Off ch=4 n=74 v=64
74400 On ch=4 n=72 v=96
74520 Off ch=4 n=72 v=64
74520 On ch=4 n=69 v=94
74640 Off ch=4 n=69 v=64
74640 On ch=4 n=74 v=95
74760 Off ch=4 n=74 v=64
74760 On ch=4 n=72 v=88
74880 Off ch=4 n=72 v=64
75000 On ch=4 n=83 v=86
75120 Off ch=4 n=83 v=64
75360 On ch=4 n=81 v=96
75480 Off ch=4 n=81 v=64
75720 On ch=4 n=74 v=93
75960 Off ch=4 n=74 v=64
75960 On ch=4 n=74 v=91
76080 Off ch=4 n=74 v=64
76080 On ch=4 n=72 v=88
76200 Off ch=4 n=72 v=64
76200 On ch=4 n=69 v=86
76320 Off ch=4 n=69 v=64
76320 On ch=4 n=74 v=96
76440 Off ch=4 n=74 v=64
76440 On ch=4 n=72 v=92
76560 Off ch=4 n=72 v=64
76560 On ch=4 n=69 v=81
76680 Off ch=4 n=69 v=64
76680 On ch=4 n=74 v=86
76800 Off ch=4 n=74 v=64
76800 On ch=4 n=72 v=92
76920 Off ch=4 n=72 v=64
76920 On ch=4 n=69 v=88
77040 Off ch=4 n=69 v=64
77040 On ch=4 n=74 v=96
77160 Off ch=4 n=74 v=64
77160 On ch=4 n=72 v=88
77280 Off ch=4 n=72 v=64
77400 On ch=4 n=83 v=89
77520 Off ch=4 n=83 v=64
77760 On ch=4 n=81 v=92
77880 Off ch=4 n=81 v=64
78120 On ch=4 n=74 v=94
78360 Off ch=4 n=74 v=64
78360 On ch=4 n=74 v=80
78480 Off ch=4 n=74 v=64
78480 On ch=4 n=72 v=87
78600 Off ch=4 n=72 v=64
78600 On ch=4 n=69 v=94
78720 Off ch=4 n=69 v=64
78720 On ch=4 n=74 v=84
78840 Off ch=4 n=74 v=64
78840 On ch=4 n=72 v=92
78960 Off ch=4 n=72 v=64
78960 On ch=4 n=69 v=93
79080 Off ch=4 n=69 v=64
79080 On ch=4 n=74 v=96
79200 Off ch=4 n=74 v=64
79200 On ch=4 n=72 v=90
79320 Off ch=4 n=72 v=64
79320 On ch=4 n=69 v=98
79440 Off ch=4 n=69 v=64
79440 On ch=4 n=74 v=93
79560 Off ch=4 n=74 v=64
79560 On ch=4 n=72 v=92
79680 Off ch=4 n=72 v=64
79800 On ch=4 n=83 v=97
79920 Off ch=4 n=83 v=64
80160 On ch=4 n=81 v=95
80280 Off ch=4 n=81 v=64
80520 On ch=4 n=74 v=98
80760 Off ch=4 n=74 v=64
327000 On ch=4 n=63 v=80
327120 Off ch=4 n=63 v=64
327120 On ch=4 n=52 v=64
327240 Off ch=4 n=52 v=64
327240 On ch=4 n=58 v=64
327360 Off ch=4 n=58 v=64
327360 On ch=4 n=60 v=64
327480 Off ch=4 n=60 v=64
327480 On ch=4 n=64 v=80
327600 Off ch=4 n=64 v=64
327600 On ch=4 n=70 v=64
327720 Off ch=4 n=70 v=64
327720 On ch=4 n=75 v=64
327840 Off ch=4 n=75 v=64
327840 On ch=4 n=76 v=64
327960 Off ch=4 n=76 v=64
327960 On ch=4 n=82 v=64
328080 Off ch=4 n=82 v=64
328080 On ch=4 n=89 v=64
328200 Off ch=4 n=89 v=64
328200 On ch=4 n=87 v=64
328320 Off ch=4 n=87 v=64
328320 On ch=4 n=82 v=64
328440 Off ch=4 n=82 v=64
328440 On ch=4 n=77 v=64
328560 Off ch=4 n=77 v=64
328560 On ch=4 n=76 v=80
328680 Off ch=4 n=76 v=64
328800 On ch=4 n=70 v=64
328920 Off ch=4 n=70 v=64
329040 On ch=4 n=72 v=64
329160 Off ch=4 n=72 v=64
329280 On ch=4 n=65 v=64
329400 Off ch=4 n=65 v=64
329400 On ch=4 n=67 v=64
329520 Off ch=4 n=67 v=64
329520 On ch=4 n=65 v=64
329640 Off ch=4 n=65 v=64
329640 On ch=4 n=63 v=64
329760 Off ch=4 n=63 v=64
329760 On ch=4 n=60 v=64
329880 Off ch=4 n=60 v=64
329880 On ch=4 n=64 v=64
330000 Off ch=4 n=64 v=64
330000 On ch=4 n=60 v=64
330120 Off ch=4 n=60 v=64
330120 On ch=4 n=58 v=64
330240 Off ch=4 n=58 v=64
330240 On ch=4 n=60 v=64
330360 Off ch=4 n=60 v=64
330360 On ch=4 n=58 v=80
330440 Off ch=4 n=58 v=64
330440 On ch=4 n=56 v=80
330520 Off ch=4 n=56 v=64
330520 On ch=4 n=52 v=80
330600 Off ch=4 n=52 v=64
330600 On ch=4 n=58 v=64
330720 Off ch=4 n=58 v=64
330720 On ch=4 n=53 v=64
330840 Off ch=4 n=53 v=64
330840 On ch=4 n=55 v=72
332760 Off ch=4 n=55 v=64
333000 On ch=4 n=60 v=120
333000 On ch=4 n=58 v=120
333000 On ch=4 n=52 v=120
333000 On ch=4 n=63 v=80
333240 Off ch=4 n=60 v=64
333240 Off ch=4 n=63 v=64
333240 Off ch=4 n=52 v=64
333240 Off ch=4 n=58 v=64
333480 On ch=4 n=60 v=120
333480 On ch=4 n=58 v=120
333480 On ch=4 n=52 v=120
333480 On ch=4 n=63 v=80
333720 Off ch=4 n=60 v=64
333720 Off ch=4 n=63 v=64
333720 Off ch=4 n=52 v=64
333720 Off ch=4 n=58 v=64
333960 On ch=4 n=58 v=120
333960 On ch=4 n=52 v=120
333960 On ch=4 n=60 v=120
333960 On ch=4 n=63 v=64
334200 Off ch=4 n=58 v=64
334200 Off ch=4 n=63 v=64
334200 Off ch=4 n=60 v=64
334200 Off ch=4 n=52 v=64
334200 On ch=4 n=58 v=120
334200 On ch=4 n=52 v=120
334200 On ch=4 n=60 v=120
334200 On ch=4 n=63 v=64
334440 Off ch=4 n=58 v=64
334440 Off ch=4 n=63 v=64
334440 Off ch=4 n=60 v=64
334440 Off ch=4 n=52 v=64
334680 On ch=4 n=60 v=120
334680 On ch=4 n=58 v=120
334680 On ch=4 n=52 v=120
334680 On ch=4 n=63 v=64
336840 Off ch=4 n=60 v=64
336840 Off ch=4 n=63 v=64
336840 Off ch=4 n=52 v=64
336840 Off ch=4 n=58 v=64
337080 On ch=4 n=66 v=64
337200 Off ch=4 n=66 v=64
337200 On ch=4 n=54 v=64
337320 Off ch=4 n=54 v=64
337320 On ch=4 n=66 v=80
337440 Off ch=4 n=66 v=64
337560 On ch=4 n=67 v=64
337680 Off ch=4 n=67 v=64
337680 On ch=4 n=73 v=64
337800 Off ch=4 n=73 v=64
337800 On ch=4 n=78 v=64
337920 Off ch=4 n=78 v=64
337920 On ch=4 n=73 v=80
338040 Off ch=4 n=73 v=64
338040 On ch=4 n=85 v=64
338160 Off ch=4 n=85 v=64
338160 On ch=4 n=93 v=64
338280 Off ch=4 n=93 v=64
338280 On ch=4 n=90 v=64
338400 Off ch=4 n=90 v=64
338400 On ch=4 n=93 v=80
338520 Off ch=4 n=93 v=64
338520 On ch=4 n=81 v=64
338640 Off ch=4 n=81 v=64
338640 On ch=4 n=78 v=64
338760 Off ch=4 n=78 v=64
338760 On ch=4 n=81 v=64
338880 Off ch=4 n=81 v=64
338880 On ch=4 n=73 v=64
339000 Off ch=4 n=73 v=64
339000 On ch=4 n=78 v=64
339120 Off ch=4 n=78 v=64
339120 On ch=4 n=76 v=64
339240 Off ch=4 n=76 v=64
339240 On ch=4 n=73 v=64
339360 Off ch=4 n=73 v=64
339360 On ch=4 n=71 v=64
339480 Off ch=4 n=71 v=64
339480 On ch=4 n=76 v=64
339600 Off ch=4 n=76 v=64
339600 On ch=4 n=73 v=64
339720 Off ch=4 n=73 v=64
339720 On ch=4 n=71 v=64
339840 Off ch=4 n=71 v=64
339840 On ch=4 n=67 v=64
339960 Off ch=4 n=67 v=64
339960 On ch=4 n=65 v=64
340080 Off ch=4 n=65 v=64
340080 On ch=4 n=67 v=64
340200 Off ch=4 n=67 v=64
340200 On ch=4 n=65 v=64
340320 Off ch=4 n=65 v=64
340320 On ch=4 n=64 v=64
340440 Off ch=4 n=64 v=64
340440 On ch=4 n=60 v=64
340560 Off ch=4 n=60 v=64
340560 On ch=4 n=64 v=64
340680 Off ch=4 n=64 v=64
340680 On ch=4 n=60 v=64
340800 Off ch=4 n=60 v=64
340800 On ch=4 n=59 v=64
340920 Off ch=4 n=59 v=64
340920 On ch=4 n=60 v=64
341040 Off ch=4 n=60 v=64
341040 On ch=4 n=59 v=64
341160 Off ch=4 n=59 v=64
341280 On ch=4 n=55 v=64
341400 Off ch=4 n=55 v=64
341400 On ch=4 n=54 v=64
343320 Off ch=4 n=54 v=64
343560 On ch=4 n=52 v=80
343560 On ch=4 n=69 v=120
343560 On ch=4 n=67 v=120
343560 On ch=4 n=61 v=120
343800 Off ch=4 n=52 v=64
343800 Off ch=4 n=61 v=64
343800 Off ch=4 n=67 v=64
343800 Off ch=4 n=69 v=64
344040 On ch=4 n=52 v=80
344040 On ch=4 n=61 v=120
344040 On ch=4 n=67 v=120
344040 On ch=4 n=69 v=120
344280 Off ch=4 n=52 v=64
344280 Off ch=4 n=69 v=64
344280 Off ch=4 n=67 v=64
344280 Off ch=4 n=61 v=64
344520 On ch=4 n=52 v=80
344520 On ch=4 n=67 v=120
344520 On ch=4 n=69 v=120
344520 On ch=4 n=61 v=120
344760 Off ch=4 n=52 v=64
344760 Off ch=4 n=61 v=64
344760 Off ch=4 n=69 v=64
344760 Off ch=4 n=67 v=64
344760 On ch=4 n=52 v=80
344760 On ch=4 n=67 v=120
344760 On ch=4 n=69 v=120
344760 On ch=4 n=61 v=120
345000 Off ch=4 n=52 v=64
345000 Off ch=4 n=61 v=64
345000 Off ch=4 n=69 v=64
345000 Off ch=4 n=67 v=64
345240 On ch=4 n=41 v=80
345240 On ch=4 n=67 v=120
345240 On ch=4 n=69 v=120
345240 On ch=4 n=61 v=120
345480 Off ch=4 n=41 v=64
345480 Off ch=4 n=61 v=64
345480 Off ch=4 n=69 v=64
345480 Off ch=4 n=67 v=64
345480 On ch=4 n=69 v=120
345480 On ch=4 n=67 v=120
345480 On ch=4 n=61 v=120
345720 Off ch=4 n=69 v=64
345720 Off ch=4 n=61 v=64
345720 Off ch=4 n=67 v=64
345720 On ch=4 n=69 v=120
345720 On ch=4 n=67 v=120
345720 On ch=4 n=60 v=120
345840 Off ch=4 n=69 v=64
345840 Off ch=4 n=60 v=64
345840 Off ch=4 n=67 v=64
345840 On ch=4 n=60 v=120
345840 On ch=4 n=67 v=120
345840 On ch=4 n=69 v=120
345960 Off ch=4 n=60 v=64
345960 Off ch=4 n=69 v=64
345960 Off ch=4 n=67 v=64
345960 On ch=4 n=41 v=80
346080 Off ch=4 n=41 v=64
346080 On ch=4 n=69 v=120
346080 On ch=4 n=67 v=120
346080 On ch=4 n=60 v=120
346200 Off ch=4 n=69 v=64
346200 Off ch=4 n=60 v=64
346200 Off ch=4 n=67 v=64
346200 Meta TrkEnd
TrkEnd
MTrk
0 Meta TrkName "SynthStrings"
0 Par ch=5 c=11 v=127
0 PrCh ch=5 p=51
0 Par ch=5 c=93 v=127
0 Par ch=5 c=91 v=127
0 Par ch=5 c=10 v=64
0 Par ch=5 c=7 v=100
0 Par ch=5 c=1 v=0
48360 Par ch=5 c=11 v=56
48360 On ch=5 n=84 v=96
48360 On ch=5 n=72 v=112
48840 Par ch=5 c=11 v=64
49080 Par ch=5 c=11 v=72
49320 Par ch=5 c=11 v=80
49560 Par ch=5 c=11 v=96
50040 Off ch=5 n=84 v=64
50040 Off ch=5 n=72 v=64
50040 Par ch=5 c=11 v=112
50040 On ch=5 n=82 v=96
50040 On ch=5 n=70 v=112
53400 Par ch=5 c=11 v=127
53880 On ch=5 n=77 v=96
53880 On ch=5 n=65 v=112
54360 Off ch=5 n=82 v=64
54360 Off ch=5 n=70 v=64
56280 On ch=5 n=79 v=96
56280 On ch=5 n=67 v=112
57240 Off ch=5 n=77 v=64
57240 Off ch=5 n=65 v=64
61320 Off ch=5 n=79 v=64
61320 Off ch=5 n=67 v=64
61320 On ch=5 n=70 v=96
61320 On ch=5 n=58 v=112
63960 Off ch=5 n=70 v=64
63960 Off ch=5 n=58 v=64
63960 On ch=5 n=72 v=96
63960 On ch=5 n=60 v=112
71160 Off ch=5 n=72 v=64
71160 Off ch=5 n=60 v=64
80280 On ch=5 n=78 v=112
80280 On ch=5 n=66 v=120
82680 Off ch=5 n=78 v=64
82680 Off ch=5 n=66 v=64
106680 On ch=5 n=80 v=112
109080 Off ch=5 n=80 v=64
109080 On ch=5 n=81 v=112
109560 Off ch=5 n=81 v=64
109560 On ch=5 n=78 v=112
111960 Off ch=5 n=78 v=64
111960 On ch=5 n=80 v=112
112440 Off ch=5 n=80 v=64
112440 On ch=5 n=76 v=112
115320 Off ch=5 n=76 v=64
139800 On ch=5 n=78 v=112
142200 Off ch=5 n=78 v=64
142200 On ch=5 n=79 v=112
142680 Off ch=5 n=79 v=64
142680 On ch=5 n=76 v=112
145080 Off ch=5 n=76 v=64
145080 On ch=5 n=78 v=112
145560 Off ch=5 n=78 v=64
150360 On ch=5 n=78 v=112
151800 On ch=5 n=79 v=112
152280 Off ch=5 n=79 v=64
152280 On ch=5 n=76 v=112
154200 Off ch=5 n=78 v=64
154200 Off ch=5 n=76 v=64
154680 On ch=5 n=78 v=112
155520 Off ch=5 n=78 v=64
155520 On ch=5 n=77 v=112
155520 On ch=5 n=74 v=112
155520 On ch=5 n=72 v=112
155520 On ch=5 n=68 v=112
155520 On ch=5 n=65 v=112
166440 On ch=5 n=74 v=112
166440 On ch=5 n=69 v=112
166440 On ch=5 n=63 v=112
166440 On ch=5 n=62 v=112
171240 Off ch=5 n=74 v=64
171240 Off ch=5 n=63 v=64
171240 Off ch=5 n=62 v=64
171240 Off ch=5 n=69 v=64
171240 On ch=5 n=77 v=112
171240 On ch=5 n=74 v=112
171240 On ch=5 n=72 v=112
171240 On ch=5 n=69 v=112
171240 On ch=5 n=65 v=112
173640 Off ch=5 n=74 v=64
173640 Off ch=5 n=77 v=64
173640 Off ch=5 n=69 v=64
173640 Off ch=5 n=65 v=64
173640 Off ch=5 n=72 v=64
174840 Off ch=5 n=77 v=64
174840 Off ch=5 n=68 v=64
174840 Off ch=5 n=65 v=64
174840 Off ch=5 n=74 v=64
174840 Off ch=5 n=72 v=64
174840 On ch=5 n=74 v=112
174840 On ch=5 n=69 v=112
174840 On ch=5 n=63 v=112
174840 On ch=5 n=62 v=112
179640 Off ch=5 n=74 v=64
179640 Off ch=5 n=62 v=64
179640 Off ch=5 n=63 v=64
179640 Off ch=5 n=69 v=64
222840 On ch=5 n=66 v=80
222840 On ch=5 n=71 v=80
230520 Off ch=5 n=66 v=64
230520 Off ch=5 n=71 v=64
246840 On ch=5 n=67 v=80
246840 On ch=5 n=79 v=80
260280 Off ch=5 n=67 v=64
260280 Off ch=5 n=79 v=64
286560 On ch=5 n=78 v=80
292440 On ch=5 n=74 v=80
295320 Off ch=5 n=78 v=64
295320 Off ch=5 n=74 v=64
295320 On ch=5 n=66 v=80
295320 On ch=5 n=69 v=80
295320 On ch=5 n=73 v=80
296280 Off ch=5 n=66 v=64
296280 Off ch=5 n=73 v=64
296280 Off ch=5 n=69 v=64
298680 On ch=5 n=78 v=80
298680 On ch=5 n=74 v=80
298680 On ch=5 n=71 v=80
298680 On ch=5 n=70 v=80
299880 Off ch=5 n=78 v=64
299880 Off ch=5 n=70 v=64
299880 Off ch=5 n=71 v=64
299880 Off ch=5 n=74 v=64
300600 On ch=5 n=74 v=80
300600 On ch=5 n=78 v=80
300600 On ch=5 n=69 v=80
301800 Off ch=5 n=74 v=64
301800 Off ch=5 n=69 v=64
301800 Off ch=5 n=78 v=64
302520 On ch=5 n=74 v=80
302520 On ch=5 n=71 v=80
302520 On ch=5 n=78 v=80
302520 On ch=5 n=70 v=80
303720 Off ch=5 n=74 v=64
303720 Off ch=5 n=70 v=64
303720 Off ch=5 n=78 v=64
303720 Off ch=5 n=71 v=64
303960 On ch=5 n=78 v=80
303960 On ch=5 n=73 v=80
303960 On ch=5 n=69 v=80
304920 Off ch=5 n=78 v=64
304920 Off ch=5 n=69 v=64
304920 Off ch=5 n=73 v=64
304920 On ch=5 n=77 v=80
304920 On ch=5 n=72 v=80
304920 On ch=5 n=69 v=80
304920 On ch=5 n=65 v=80
306360 Off ch=5 n=77 v=64
306360 Off ch=5 n=65 v=64
306360 Off ch=5 n=69 v=64
306360 Off ch=5 n=72 v=64
306360 On ch=5 n=45 v=80
306360 On ch=5 n=57 v=80
309240 Off ch=5 n=45 v=64
309240 On ch=5 n=58 v=80
309720 Off ch=5 n=57 v=64
309720 Off ch=5 n=58 v=64
309720 On ch=5 n=77 v=80
309720 On ch=5 n=74 v=80
309720 On ch=5 n=69 v=80
310680 Off ch=5 n=77 v=64
310680 Off ch=5 n=69 v=64
310680 Off ch=5 n=74 v=64
310680 On ch=5 n=74 v=80
311640 Off ch=5 n=74 v=64
323160 On ch=5 n=65 v=80
323160 On ch=5 n=62 v=80
323160 On ch=5 n=58 v=80
324120 Off ch=5 n=65 v=64
324120 Off ch=5 n=58 v=64
324120 Off ch=5 n=62 v=64
324120 On ch=5 n=57 v=80
324120 On ch=5 n=60 v=80
324120 On ch=5 n=65 v=80
325080 Off ch=5 n=57 v=64
325080 Off ch=5 n=65 v=64
325080 Off ch=5 n=60 v=64
325080 On ch=5 n=65 v=80
325080 On ch=5 n=62 v=80
325080 On ch=5 n=58 v=80
325560 Off ch=5 n=65 v=64
325560 Off ch=5 n=58 v=64
325560 Off ch=5 n=62 v=64
325560 On ch=5 n=64 v=80
325560 On ch=5 n=60 v=80
325560 On ch=5 n=57 v=80
327000 Off ch=5 n=64 v=64
327000 Off ch=5 n=57 v=64
327000 Off ch=5 n=60 v=64
356280 On ch=5 n=80 v=120
358680 Off ch=5 n=80 v=64
358680 On ch=5 n=81 v=120
359640 Off ch=5 n=81 v=64
359640 On ch=5 n=78 v=120
362040 Off ch=5 n=78 v=64
362040 On ch=5 n=80 v=120
363000 Off ch=5 n=80 v=64
363000 On ch=5 n=76 v=120
363960 Off ch=5 n=76 v=64
364920 On ch=5 n=83 v=120
365040 Off ch=5 n=83 v=64
365040 On ch=5 n=76 v=120
365160 Off ch=5 n=76 v=64
365160 On ch=5 n=81 v=120
365280 Off ch=5 n=81 v=64
365280 On ch=5 n=88 v=120
365400 Off ch=5 n=88 v=64
365400 On ch=5 n=83 v=120
365520 Off ch=5 n=83 v=64
365520 On ch=5 n=88 v=120
365640 Off ch=5 n=88 v=64
365640 On ch=5 n=83 v=120
365760 Off ch=5 n=83 v=64
365760 On ch=5 n=88 v=120
365880 Off ch=5 n=88 v=64
365880 On ch=5 n=85 v=120
366360 Off ch=5 n=85 v=64
370680 On ch=5 n=85 v=120
372120 Off ch=5 n=85 v=64
372120 On ch=5 n=87 v=120
372840 Off ch=5 n=87 v=64
372840 On ch=5 n=81 v=120
374880 Off ch=5 n=81 v=64
374880 On ch=5 n=83 v=120
375000 Off ch=5 n=83 v=64
375000 On ch=5 n=81 v=120
375096 Off ch=5 n=81 v=64
375096 On ch=5 n=83 v=120
375192 Off ch=5 n=83 v=64
375192 On ch=5 n=81 v=120
375288 Off ch=5 n=81 v=64
375288 On ch=5 n=83 v=120
375384 Off ch=5 n=83 v=64
375384 On ch=5 n=81 v=120
375480 Off ch=5 n=81 v=64
375480 On ch=5 n=78 v=120
376440 Off ch=5 n=78 v=64
397080 On ch=5 n=81 v=120
397320 Off ch=5 n=81 v=64
397320 On ch=5 n=80 v=120
397560 Off ch=5 n=80 v=64
397560 On ch=5 n=75 v=120
397800 Off ch=5 n=75 v=64
397800 On ch=5 n=76 v=120
397960 Off ch=5 n=76 v=64
397960 On ch=5 n=72 v=120
398120 Off ch=5 n=72 v=64
398120 On ch=5 n=75 v=120
399480 Off ch=5 n=75 v=64
399480 On ch=5 n=76 v=120
399600 Off ch=5 n=76 v=64
399600 On ch=5 n=75 v=120
399720 Off ch=5 n=75 v=64
399720 On ch=5 n=48 v=120
399720 On ch=5 n=72 v=120
399840 Off ch=5 n=48 v=64
399840 Off ch=5 n=72 v=64
399840 On ch=5 n=45 v=120
399840 On ch=5 n=69 v=120
399960 Off ch=5 n=45 v=64
399960 Off ch=5 n=69 v=64
399960 On ch=5 n=43 v=120
399960 On ch=5 n=67 v=120
400080 Off ch=5 n=43 v=64
400080 Off ch=5 n=67 v=64
400080 On ch=5 n=40 v=120
400080 On ch=5 n=64 v=120
400200 Off ch=5 n=40 v=64
400200 Off ch=5 n=64 v=64
400200 On ch=5 n=45 v=120
400200 On ch=5 n=69 v=120
400320 Off ch=5 n=45 v=64
400320 Off ch=5 n=69 v=64
400320 On ch=5 n=43 v=120
400320 On ch=5 n=67 v=120
400440 Off ch=5 n=43 v=64
400440 Off ch=5 n=67 v=64
400440 On ch=5 n=40 v=120
400440 On ch=5 n=64 v=120
400560 Off ch=5 n=40 v=64
400560 Off ch=5 n=64 v=64
400560 On ch=5 n=43 v=120
400560 On ch=5 n=67 v=120
400680 Off ch=5 n=43 v=64
400680 Off ch=5 n=67 v=64
400680 On ch=5 n=39 v=120
400680 On ch=5 n=63 v=120
400800 Off ch=5 n=39 v=64
400800 Off ch=5 n=63 v=64
400800 On ch=5 n=40 v=120
400800 On ch=5 n=64 v=120
400920 Off ch=5 n=40 v=64
400920 Off ch=5 n=64 v=64
400920 On ch=5 n=45 v=120
400920 On ch=5 n=69 v=120
401040 Off ch=5 n=45 v=64
401040 Off ch=5 n=69 v=64
401040 On ch=5 n=43 v=120
401040 On ch=5 n=67 v=120
401160 Off ch=5 n=43 v=64
401160 Off ch=5 n=67 v=64
401160 On ch=5 n=40 v=120
401160 On ch=5 n=64 v=120
401280 Off ch=5 n=40 v=64
401280 Off ch=5 n=64 v=64
401280 On ch=5 n=43 v=120
401280 On ch=5 n=67 v=120
401880 Off ch=5 n=43 v=64
401880 Off ch=5 n=67 v=64
404040 On ch=5 n=81 v=120
404280 Off ch=5 n=81 v=64
404280 On ch=5 n=79 v=120
404440 Off ch=5 n=79 v=64
404440 On ch=5 n=75 v=120
404600 Off ch=5 n=75 v=64
404600 On ch=5 n=76 v=120
404760 Off ch=5 n=76 v=64
404760 On ch=5 n=72 v=120
404880 Off ch=5 n=72 v=64
404880 On ch=5 n=75 v=120
406440 Off ch=5 n=75 v=64
406680 On ch=5 n=79 v=120
406800 Off ch=5 n=79 v=64
406800 On ch=5 n=75 v=120
406920 Off ch=5 n=75 v=64
406920 On ch=5 n=81 v=120
407040 Off ch=5 n=81 v=64
407040 On ch=5 n=79 v=120
407160 Off ch=5 n=79 v=64
407160 On ch=5 n=76 v=120
407280 Off ch=5 n=76 v=64
407280 On ch=5 n=79 v=120
407520 Off ch=5 n=79 v=64
407520 On ch=5 n=76 v=120
407640 Off ch=5 n=76 v=64
407640 On ch=5 n=81 v=120
407760 Off ch=5 n=81 v=64
407760 On ch=5 n=79 v=120
407880 Off ch=5 n=79 v=64
407880 On ch=5 n=76 v=120
408000 Off ch=5 n=76 v=64
408000 On ch=5 n=79 v=120
408120 Off ch=5 n=79 v=64
408120 Meta TrkEnd
TrkEnd
MTrk
0 Meta TrkName "SynthLead"
0 PrCh ch=6 p=81
0 Par ch=6 c=93 v=127
0 Par ch=6 c=91 v=127
0 Par ch=6 c=11 v=127
0 Par ch=6 c=10 v=64
0 Par ch=6 c=7 v=100
0 Par ch=6 c=1 v=0
94200 On ch=6 n=93 v=102
94320 Off ch=6 n=93 v=64
94320 On ch=6 n=88 v=102
94380 Off ch=6 n=88 v=64
94380 On ch=6 n=85 v=102
94440 Off ch=6 n=85 v=64
94440 On ch=6 n=81 v=102
94560 Off ch=6 n=81 v=64
94560 On ch=6 n=93 v=102
94680 Off ch=6 n=93 v=64
94680 On ch=6 n=90 v=102
94800 Off ch=6 n=90 v=64
94800 On ch=6 n=86 v=102
94920 Off ch=6 n=86 v=64
94920 On ch=6 n=81 v=102
95040 Off ch=6 n=81 v=64
95040 On ch=6 n=78 v=102
95160 Off ch=6 n=78 v=64
95160 On ch=6 n=74 v=102
95280 Off ch=6 n=74 v=64
95280 On ch=6 n=81 v=102
95400 Off ch=6 n=81 v=64
95400 On ch=6 n=78 v=102
95520 Off ch=6 n=78 v=64
95520 On ch=6 n=74 v=102
95640 Off ch=6 n=74 v=64
95640 On ch=6 n=76 v=102
97080 Off ch=6 n=76 v=64
98040 On ch=6 n=93 v=102
98160 Off ch=6 n=93 v=64
98160 On ch=6 n=88 v=102
98220 Off ch=6 n=88 v=64
98220 On ch=6 n=85 v=102
98280 Off ch=6 n=85 v=64
98280 On ch=6 n=81 v=102
98400 Off ch=6 n=81 v=64
98400 On ch=6 n=93 v=102
98520 Off ch=6 n=93 v=64
98520 On ch=6 n=90 v=102
98640 Off ch=6 n=90 v=64
98640 On ch=6 n=86 v=102
98760 Off ch=6 n=86 v=64
98760 On ch=6 n=81 v=102
98880 Off ch=6 n=81 v=64
98880 On ch=6 n=78 v=102
99000 Off ch=6 n=78 v=64
99000 On ch=6 n=74 v=102
99120 Off ch=6 n=74 v=64
99120 On ch=6 n=81 v=102
99240 Off ch=6 n=81 v=64
99240 On ch=6 n=78 v=102
99360 Off ch=6 n=78 v=64
99360 On ch=6 n=74 v=102
99480 Off ch=6 n=74 v=64
99480 On ch=6 n=76 v=102
99960 Off ch=6 n=76 v=64
99960 On ch=6 n=76 v=102
101160 Off ch=6 n=76 v=64
101160 On ch=6 n=71 v=102
101880 Off ch=6 n=71 v=64
101880 On ch=6 n=90 v=102
102000 Off ch=6 n=90 v=64
102000 On ch=6 n=85 v=102
102060 Off ch=6 n=85 v=64
102060 On ch=6 n=82 v=102
102120 Off ch=6 n=82 v=64
102120 On ch=6 n=78 v=102
102240 Off ch=6 n=78 v=64
102240 On ch=6 n=90 v=102
102360 Off ch=6 n=90 v=64
102360 On ch=6 n=87 v=102
102480 Off ch=6 n=87 v=64
102480 On ch=6 n=83 v=102
102600 Off ch=6 n=83 v=64
102600 On ch=6 n=78 v=102
102720 Off ch=6 n=78 v=64
102720 On ch=6 n=75 v=102
102840 Off ch=6 n=75 v=64
102840 On ch=6 n=71 v=102
102960 Off ch=6 n=71 v=64
102960 On ch=6 n=78 v=102
103080 Off ch=6 n=78 v=64
103080 On ch=6 n=75 v=102
103200 Off ch=6 n=75 v=64
103200 On ch=6 n=71 v=102
103320 Off ch=6 n=71 v=64
103320 On ch=6 n=73 v=102
104760 Off ch=6 n=73 v=64
127320 On ch=6 n=91 v=102
127440 Off ch=6 n=91 v=64
127440 On ch=6 n=84 v=102
127500 Off ch=6 n=84 v=64
127500 On ch=6 n=81 v=102
127560 Off ch=6 n=81 v=64
127560 On ch=6 n=78 v=102
127680 Off ch=6 n=78 v=64
127680 On ch=6 n=91 v=102
127800 Off ch=6 n=91 v=64
127800 On ch=6 n=88 v=102
127920 Off ch=6 n=88 v=64
127920 On ch=6 n=84 v=102
128040 Off ch=6 n=84 v=64
128040 On ch=6 n=79 v=102
128160 Off ch=6 n=79 v=64
128160 On ch=6 n=76 v=102
128280 Off ch=6 n=76 v=64
128280 On ch=6 n=72 v=102
128400 Off ch=6 n=72 v=64
128400 On ch=6 n=79 v=102
128520 Off ch=6 n=79 v=64
128520 On ch=6 n=76 v=102
128640 Off ch=6 n=76 v=64
128640 On ch=6 n=72 v=102
128760 Off ch=6 n=72 v=64
128760 On ch=6 n=74 v=102
131160 Off ch=6 n=74 v=64
131160 On ch=6 n=91 v=102
131280 Off ch=6 n=91 v=64
131280 On ch=6 n=84 v=102
131340 Off ch=6 n=84 v=64
131340 On ch=6 n=81 v=102
131400 Off ch=6 n=81 v=64
131400 On ch=6 n=78 v=102
131520 Off ch=6 n=78 v=64
131520 On ch=6 n=91 v=102
131640 Off ch=6 n=91 v=64
131640 On ch=6 n=88 v=102
131760 Off ch=6 n=88 v=64
131760 On ch=6 n=84 v=102
131880 Off ch=6 n=84 v=64
131880 On ch=6 n=79 v=102
132000 Off ch=6 n=79 v=64
132000 On ch=6 n=76 v=102
132120 Off ch=6 n=76 v=64
132120 On ch=6 n=72 v=102
132240 Off ch=6 n=72 v=64
132240 On ch=6 n=79 v=102
132360 Off ch=6 n=79 v=64
132360 On ch=6 n=76 v=102
132480 Off ch=6 n=76 v=64
132480 On ch=6 n=72 v=102
132600 Off ch=6 n=72 v=64
132600 On ch=6 n=74 v=102
135000 Off ch=6 n=74 v=64
135000 On ch=6 n=88 v=102
135120 Off ch=6 n=88 v=64
135120 On ch=6 n=83 v=102
135168 Off ch=6 n=83 v=64
135180 On ch=6 n=80 v=102
135240 Off ch=6 n=80 v=64
135240 On ch=6 n=76 v=102
135360 Off ch=6 n=76 v=64
135360 On ch=6 n=88 v=102
135480 Off ch=6 n=88 v=64
135480 On ch=6 n=83 v=102
135600 Off ch=6 n=83 v=64
135600 On ch=6 n=80 v=102
135720 Off ch=6 n=80 v=64
135720 On ch=6 n=76 v=102
135840 Off ch=6 n=76 v=64
135840 On ch=6 n=71 v=102
135960 Off ch=6 n=71 v=64
135960 On ch=6 n=68 v=102
136080 Off ch=6 n=68 v=64
136080 On ch=6 n=76 v=102
136200 Off ch=6 n=76 v=64
136200 On ch=6 n=71 v=102
136320 Off ch=6 n=71 v=64
136320 On ch=6 n=68 v=102
136440 Off ch=6 n=68 v=64
136440 On ch=6 n=71 v=102
138840 Off ch=6 n=71 v=64
179880 On ch=6 n=73 v=80
182520 Off ch=6 n=73 v=64
182520 On ch=6 n=74 v=80
182760 Off ch=6 n=74 v=64
182760 On ch=6 n=71 v=80
185400 Off ch=6 n=71 v=64
185400 On ch=6 n=73 v=80
186120 Off ch=6 n=73 v=64
186120 On ch=6 n=93 v=80
186120 On ch=6 n=81 v=80
186840 Off ch=6 n=81 v=64
194520 Off ch=6 n=93 v=64
194520 On ch=6 n=67 v=80
196200 Off ch=6 n=67 v=64
196200 On ch=6 n=70 v=80
197640 Off ch=6 n=70 v=64
197880 On ch=6 n=73 v=80
199320 Off ch=6 n=73 v=64
199320 On ch=6 n=72 v=80
199320 On ch=6 n=75 v=80
203640 Off ch=6 n=72 v=64
203640 Off ch=6 n=75 v=64
203640 On ch=6 n=77 v=80
203640 On ch=6 n=72 v=80
203640 On ch=6 n=68 v=80
210360 Off ch=6 n=77 v=64
210360 Off ch=6 n=68 v=64
210360 Off ch=6 n=72 v=64
277080 PrCh ch=6 p=81
279000 On ch=6 n=42 v=56
279480 Off ch=6 n=42 v=64
280440 On ch=6 n=42 v=56
280920 Off ch=6 n=42 v=64
282840 On ch=6 n=42 v=56
283320 Off ch=6 n=42 v=64
284280 On ch=6 n=42 v=56
284760 Off ch=6 n=42 v=64
286680 On ch=6 n=42 v=56
287160 Off ch=6 n=42 v=64
293400 On ch=6 n=49 v=56
294360 Off ch=6 n=49 v=64
295320 On ch=6 n=49 v=56
296280 Off ch=6 n=49 v=64
298680 On ch=6 n=65 v=56
298680 On ch=6 n=68 v=56
300120 Off ch=6 n=65 v=64
300120 Off ch=6 n=68 v=64
300600 On ch=6 n=65 v=56
302040 Off ch=6 n=65 v=64
302520 On ch=6 n=68 v=56
302520 On ch=6 n=65 v=56
303960 Off ch=6 n=68 v=64
303960 Off ch=6 n=65 v=64
303960 On ch=6 n=66 v=56
304920 Off ch=6 n=66 v=64
306360 On ch=6 n=53 v=56
308280 Off ch=6 n=53 v=64
308280 On ch=6 n=58 v=56
308760 Off ch=6 n=58 v=64
308760 On ch=6 n=60 v=56
309240 Off ch=6 n=60 v=64
309240 On ch=6 n=62 v=56
309720 Off ch=6 n=62 v=64
417720 On ch=6 n=77 v=109
417748 Par ch=6 c=1 v=82
418119 Par ch=6 c=1 v=84
418128 Par ch=6 c=1 v=82
418334 Par ch=6 c=1 v=84
418380 Par ch=6 c=1 v=82
418436 Par ch=6 c=1 v=79
418460 Par ch=6 c=1 v=77
418475 Par ch=6 c=1 v=74
418483 Par ch=6 c=1 v=71
418490 Par ch=6 c=1 v=69
418507 Par ch=6 c=1 v=66
418514 Par ch=6 c=1 v=63
418538 Par ch=6 c=1 v=61
418553 Par ch=6 c=1 v=59
418594 Par ch=6 c=1 v=55
418640 Par ch=6 c=1 v=52
418657 Par ch=6 c=1 v=50
418712 Par ch=6 c=1 v=47
418751 Par ch=6 c=1 v=44
418768 Par ch=6 c=1 v=42
418783 Par ch=6 c=1 v=39
418798 Par ch=6 c=1 v=35
418822 Par ch=6 c=1 v=31
418854 Par ch=6 c=1 v=28
418863 Par ch=6 c=1 v=30
418941 Par ch=6 c=1 v=34
418948 Par ch=6 c=1 v=38
418958 Par ch=6 c=1 v=41
418965 Par ch=6 c=1 v=43
418972 Par ch=6 c=1 v=45
419035 Par ch=6 c=1 v=39
419045 Par ch=6 c=1 v=37
419052 Par ch=6 c=1 v=35
419059 Par ch=6 c=1 v=33
419067 Par ch=6 c=1 v=30
419106 Par ch=6 c=1 v=33
419115 Par ch=6 c=1 v=35
419123 Par ch=6 c=1 v=37
419130 Par ch=6 c=1 v=41
419186 Par ch=6 c=1 v=36
419195 Par ch=6 c=1 v=34
419202 Par ch=6 c=1 v=31
419210 Par ch=6 c=1 v=29
419218 Par ch=6 c=1 v=26
419234 Par ch=6 c=1 v=23
419258 Par ch=6 c=1 v=27
419265 Par ch=6 c=1 v=31
419273 Par ch=6 c=1 v=37
419281 Par ch=6 c=1 v=42
419288 Par ch=6 c=1 v=47
419321 Par ch=6 c=1 v=45
419328 Par ch=6 c=1 v=42
419336 Par ch=6 c=1 v=37
419344 Par ch=6 c=1 v=33
419351 Par ch=6 c=1 v=28
419360 Par ch=6 c=1 v=21
419367 Par ch=6 c=1 v=17
419375 Par ch=6 c=1 v=12
419384 Par ch=6 c=1 v=10
419416 Par ch=6 c=1 v=13
419423 Par ch=6 c=1 v=18
419431 Par ch=6 c=1 v=23
419438 Par ch=6 c=1 v=29
419447 Par ch=6 c=1 v=34
419470 Par ch=6 c=1 v=31
419479 Par ch=6 c=1 v=28
419486 Par ch=6 c=1 v=21
419494 Par ch=6 c=1 v=13
419503 Par ch=6 c=1 v=7
419510 Par ch=6 c=1 v=2
419518 Par ch=6 c=1 v=0
419550 Par ch=6 c=1 v=2
419557 Par ch=6 c=1 v=6
419566 Par ch=6 c=1 v=11
419574 Par ch=6 c=1 v=15
419581 Par ch=6 c=1 v=18
419622 Par ch=6 c=1 v=14
419629 Par ch=6 c=1 v=12
419637 Par ch=6 c=1 v=7
419640 Off ch=6 n=77 v=64
419661 Par ch=6 c=1 v=5
419668 Par ch=6 c=1 v=3
419685 Par ch=6 c=1 v=5
419731 Par ch=6 c=1 v=3
419763 Par ch=6 c=1 v=1
419787 Par ch=6 c=1 v=0
421800 On ch=6 n=82 v=109
421920 Off ch=6 n=82 v=64
421920 On ch=6 n=80 v=109
422040 Off ch=6 n=80 v=64
422040 On ch=6 n=77 v=109
422160 Off ch=6 n=77 v=64
422160 On ch=6 n=80 v=109
422280 Off ch=6 n=80 v=64
422280 On ch=6 n=82 v=109
422400 Off ch=6 n=82 v=64
422400 On ch=6 n=84 v=109
422520 Off ch=6 n=84 v=64
422520 On ch=6 n=82 v=109
422640 Off ch=6 n=82 v=64
422640 On ch=6 n=80 v=109
422760 Off ch=6 n=80 v=64
422760 On ch=6 n=77 v=109
422880 Off ch=6 n=77 v=64
422880 On ch=6 n=82 v=109
423000 Off ch=6 n=82 v=64
423000 On ch=6 n=80 v=109
423120 Off ch=6 n=80 v=64
423120 On ch=6 n=77 v=109
423240 Off ch=6 n=77 v=64
423240 On ch=6 n=75 v=109
423360 Off ch=6 n=75 v=64
423360 On ch=6 n=80 v=109
423480 Off ch=6 n=80 v=64
423480 On ch=6 n=77 v=109
423785 Par ch=6 c=1 v=1
423801 Par ch=6 c=1 v=3
423824 Par ch=6 c=1 v=5
423841 Par ch=6 c=1 v=7
423880 Par ch=6 c=1 v=10
423896 Par ch=6 c=1 v=12
423913 Par ch=6 c=1 v=14
423920 Par ch=6 c=1 v=17
423927 Par ch=6 c=1 v=19
423943 Par ch=6 c=1 v=21
423950 Par ch=6 c=1 v=25
423966 Par ch=6 c=1 v=28
423974 Par ch=6 c=1 v=33
423990 Par ch=6 c=1 v=37
423999 Par ch=6 c=1 v=41
424006 Par ch=6 c=1 v=43
424013 Par ch=6 c=1 v=46
424022 Par ch=6 c=1 v=49
424078 Par ch=6 c=1 v=51
424093 Par ch=6 c=1 v=55
424117 Par ch=6 c=1 v=58
424212 Par ch=6 c=1 v=55
424219 Par ch=6 c=1 v=53
424228 Par ch=6 c=1 v=51
424243 Par ch=6 c=1 v=49
424251 Par ch=6 c=1 v=46
424260 Par ch=6 c=1 v=44
424267 Par ch=6 c=1 v=41
424275 Par ch=6 c=1 v=38
424282 Par ch=6 c=1 v=35
424291 Par ch=6 c=1 v=31
424299 Par ch=6 c=1 v=28
424306 Par ch=6 c=1 v=26
424314 Par ch=6 c=1 v=23
424323 Par ch=6 c=1 v=20
424330 Par ch=6 c=1 v=18
424345 Par ch=6 c=1 v=14
424362 Par ch=6 c=1 v=10
424386 Par ch=6 c=1 v=7
424410 Par ch=6 c=1 v=4
424425 Par ch=6 c=1 v=2
424440 Par ch=6 c=1 v=0
425160 Off ch=6 n=77 v=64
425160 On ch=6 n=74 v=109
425240 Off ch=6 n=74 v=64
425240 On ch=6 n=70 v=109
425320 Off ch=6 n=70 v=64
425320 On ch=6 n=65 v=109
425400 Off ch=6 n=65 v=64
425400 On ch=6 n=77 v=109
426329 Pb ch=6 v=8191
426344 Pb ch=6 v=8026
426360 Pb ch=6 v=7860
426375 Pb ch=6 v=7695
426392 Pb ch=6 v=7529
426455 Pb ch=6 v=7281
426470 Pb ch=6 v=7116
426494 Pb ch=6 v=6950
426511 Pb ch=6 v=6785
426630 Pb ch=6 v=6619
426717 Pb ch=6 v=6454
426748 Pb ch=6 v=6288
426763 Pb ch=6 v=6040
426778 Pb ch=6 v=5874
426795 Pb ch=6 v=5709
426819 Pb ch=6 v=5543
426834 Pb ch=6 v=5378
426882 Pb ch=6 v=5213
426906 Pb ch=6 v=5047
426930 Pb ch=6 v=4882
426945 Pb ch=6 v=4716
427025 Pb ch=6 v=4551
427063 Pb ch=6 v=4385
427214 Pb ch=6 v=4220
427270 Pb ch=6 v=4054
427317 Pb ch=6 v=3806
427331 Pb ch=6 v=3640
427459 Pb ch=6 v=3475
427513 Pb ch=6 v=3309
427554 Pb ch=6 v=2978
427569 Pb ch=6 v=2813
427688 Pb ch=6 v=2647
427695 Pb ch=6 v=2482
427719 Pb ch=6 v=2316
427782 Pb ch=6 v=2068
427845 Pb ch=6 v=1903
427893 Pb ch=6 v=1737
427910 Pb ch=6 v=1572
427964 Pb ch=6 v=1406
427988 Pb ch=6 v=1241
428003 Pb ch=6 v=1075
428027 Pb ch=6 v=910
428131 Pb ch=6 v=744
428162 Pb ch=6 v=579
428177 Pb ch=6 v=413
428194 Pb ch=6 v=248
428209 Pb ch=6 v=82
428225 Pb ch=6 v=0
428760 Off ch=6 n=77 v=64
428760 On ch=6 n=74 v=109
428880 Off ch=6 n=74 v=64
428880 On ch=6 n=75 v=109
428953 Pb ch=6 v=579
428960 Pb ch=6 v=2068
428968 Pb ch=6 v=3889
428976 Pb ch=6 v=6371
428983 Pb ch=6 v=8192
429000 Off ch=6 n=75 v=64
429000 On ch=6 n=74 v=109
429120 Off ch=6 n=74 v=64
429120 On ch=6 n=73 v=109
429240 Off ch=6 n=73 v=64
429240 On ch=6 n=72 v=109
429360 Off ch=6 n=72 v=64
429360 On ch=6 n=70 v=109
429480 Off ch=6 n=70 v=64
429480 On ch=6 n=68 v=109
429600 Off ch=6 n=68 v=64
429600 On ch=6 n=69 v=109
429720 Off ch=6 n=69 v=64
429720 On ch=6 n=70 v=109
429840 Off ch=6 n=70 v=64
429840 On ch=6 n=69 v=109
429960 Off ch=6 n=69 v=64
429960 On ch=6 n=65 v=109
430080 Off ch=6 n=65 v=64
430080 On ch=6 n=60 v=109
430200 Off ch=6 n=60 v=64
430200 On ch=6 n=58 v=109
430320 Off ch=6 n=58 v=64
430320 On ch=6 n=56 v=109
430440 Off ch=6 n=56 v=64
430440 On ch=6 n=57 v=109
430560 Off ch=6 n=57 v=64
430560 On ch=6 n=62 v=109
430680 Off ch=6 n=62 v=64
430680 On ch=6 n=61 v=109
430800 Off ch=6 n=61 v=64
430800 On ch=6 n=59 v=109
430920 Off ch=6 n=59 v=64
430920 On ch=6 n=60 v=109
431040 Off ch=6 n=60 v=64
431040 On ch=6 n=58 v=109
431160 Off ch=6 n=58 v=64
431160 On ch=6 n=57 v=109
431400 Off ch=6 n=57 v=64
431640 On ch=6 n=70 v=109
431760 Off ch=6 n=70 v=64
431760 On ch=6 n=72 v=109
431880 Off ch=6 n=72 v=64
431880 On ch=6 n=75 v=109
432000 Off ch=6 n=75 v=64
432000 On ch=6 n=77 v=109
432120 Off ch=6 n=77 v=64
432120 On ch=6 n=72 v=109
432240 Off ch=6 n=72 v=64
432240 On ch=6 n=72 v=109
432360 Off ch=6 n=72 v=64
432360 On ch=6 n=75 v=109
432480 Off ch=6 n=75 v=64
432480 On ch=6 n=77 v=109
432600 Off ch=6 n=77 v=64
432600 On ch=6 n=72 v=109
432720 Off ch=6 n=72 v=64
432720 On ch=6 n=75 v=109
432840 Off ch=6 n=75 v=64
432840 On ch=6 n=70 v=109
433080 Off ch=6 n=70 v=64
433080 On ch=6 n=72 v=109
433200 Off ch=6 n=72 v=64
433200 On ch=6 n=75 v=109
433320 Off ch=6 n=75 v=64
433320 On ch=6 n=70 v=109
433440 Off ch=6 n=70 v=64
433440 On ch=6 n=72 v=109
433560 Off ch=6 n=72 v=64
433560 On ch=6 n=75 v=109
433680 Off ch=6 n=75 v=64
433680 On ch=6 n=75 v=109
433800 Off ch=6 n=75 v=64
433800 On ch=6 n=70 v=109
433920 Off ch=6 n=70 v=64
433920 On ch=6 n=72 v=109
434040 Off ch=6 n=72 v=64
434040 On ch=6 n=75 v=109
434160 Off ch=6 n=75 v=64
434160 On ch=6 n=77 v=109
434280 Off ch=6 n=77 v=64
434280 On ch=6 n=72 v=109
434400 Off ch=6 n=72 v=64
434400 On ch=6 n=75 v=109
434460 Pb ch=6 v=8440
434467 Pb ch=6 v=8605
434520 Off ch=6 n=75 v=64
434520 On ch=6 n=70 v=109
434634 Pb ch=6 v=8357
434753 Pb ch=6 v=8192
434760 Off ch=6 n=70 v=64
434760 On ch=6 n=75 v=109
434880 Off ch=6 n=75 v=64
434880 On ch=6 n=72 v=109
435000 Off ch=6 n=72 v=64
435000 On ch=6 n=75 v=109
435240 Off ch=6 n=75 v=64
435240 On ch=6 n=70 v=109
435360 Off ch=6 n=70 v=64
435360 On ch=6 n=75 v=109
435480 Off ch=6 n=75 v=64
435480 On ch=6 n=75 v=109
435720 Off ch=6 n=75 v=64
435720 On ch=6 n=70 v=109
435840 Off ch=6 n=70 v=64
435840 On ch=6 n=75 v=109
435960 Off ch=6 n=75 v=64
435960 On ch=6 n=75 v=109
436080 Off ch=6 n=75 v=64
436080 On ch=6 n=77 v=109
436200 Off ch=6 n=77 v=64
436200 On ch=6 n=72 v=109
436320 Off ch=6 n=72 v=64
436320 On ch=6 n=75 v=109
436440 Off ch=6 n=75 v=64
436440 On ch=6 n=70 v=109
436680 Off ch=6 n=70 v=64
436680 On ch=6 n=72 v=109
436800 Off ch=6 n=72 v=64
436800 On ch=6 n=75 v=109
436919 Par ch=6 c=1 v=3
436920 Off ch=6 n=75 v=64
436920 On ch=6 n=70 v=109
436927 Par ch=6 c=1 v=5
436934 Par ch=6 c=1 v=7
436942 Par ch=6 c=1 v=10
436951 Par ch=6 c=1 v=12
436966 Par ch=6 c=1 v=14
437040 Off ch=6 n=70 v=64
437040 On ch=6 n=72 v=109
437053 Par ch=6 c=1 v=12
437077 Par ch=6 c=1 v=10
437084 Par ch=6 c=1 v=7
437099 Par ch=6 c=1 v=3
437108 Par ch=6 c=1 v=0
437160 Off ch=6 n=72 v=64
437160 On ch=6 n=75 v=109
437280 Off ch=6 n=75 v=64
437280 On ch=6 n=72 v=109
437400 Off ch=6 n=72 v=64
437400 On ch=6 n=72 v=109
437520 Off ch=6 n=72 v=64
437520 On ch=6 n=75 v=109
437640 Off ch=6 n=75 v=64
437640 On ch=6 n=77 v=109
437760 Off ch=6 n=77 v=64
437760 On ch=6 n=72 v=109
437880 Off ch=6 n=72 v=64
437880 On ch=6 n=75 v=109
437938 Par ch=6 c=1 v=1
438000 Off ch=6 n=75 v=64
438000 On ch=6 n=70 v=109
438104 Par ch=6 c=1 v=0
438120 Off ch=6 n=70 v=64
438120 On ch=6 n=72 v=109
438360 Off ch=6 n=72 v=64
438360 On ch=6 n=75 v=109
438480 Off ch=6 n=75 v=64
438480 On ch=6 n=72 v=109
438720 Off ch=6 n=72 v=64
438720 On ch=6 n=77 v=109
438893 Pb ch=6 v=8357
438925 Pb ch=6 v=8522
438940 Pb ch=6 v=8688
438957 Pb ch=6 v=8853
439415 Pb ch=6 v=8688
439478 Pb ch=6 v=8522
439541 Pb ch=6 v=8357
439644 Pb ch=6 v=8192
439800 Off ch=6 n=77 v=64
439800 On ch=6 n=75 v=109
440040 Off ch=6 n=75 v=64
440040 On ch=6 n=72 v=109
440160 Off ch=6 n=72 v=64
440160 On ch=6 n=70 v=109
440280 Off ch=6 n=70 v=64
440280 On ch=6 n=72 v=109
440400 Off ch=6 n=72 v=64
440400 On ch=6 n=70 v=109
440520 Off ch=6 n=70 v=64
440520 On ch=6 n=68 v=109
440640 Off ch=6 n=68 v=64
440640 On ch=6 n=65 v=109
440760 Off ch=6 n=65 v=64
440760 On ch=6 n=72 v=109
440880 Off ch=6 n=72 v=64
440880 On ch=6 n=68 v=109
441000 Off ch=6 n=68 v=64
441000 On ch=6 n=65 v=109
441120 Off ch=6 n=65 v=64
441120 On ch=6 n=64 v=109
441240 Off ch=6 n=64 v=64
441240 On ch=6 n=69 v=109
441360 Off ch=6 n=69 v=64
441360 On ch=6 n=67 v=109
441480 Off ch=6 n=67 v=64
441480 On ch=6 n=60 v=109
441600 Off ch=6 n=60 v=64
441600 On ch=6 n=62 v=109
441720 Off ch=6 n=62 v=64
441720 On ch=6 n=64 v=109
441840 Off ch=6 n=64 v=64
441840 On ch=6 n=58 v=109
441960 Off ch=6 n=58 v=64
441960 On ch=6 n=64 v=109
442080 Off ch=6 n=64 v=64
442080 On ch=6 n=60 v=109
442200 Off ch=6 n=60 v=64
442200 On ch=6 n=56 v=109
442320 Off ch=6 n=56 v=64
442440 On ch=6 n=56 v=109
442680 Off ch=6 n=56 v=64
442680 On ch=6 n=53 v=109
442800 Off ch=6 n=53 v=64
442800 On ch=6 n=60 v=109
442920 Off ch=6 n=60 v=64
443040 On ch=6 n=53 v=109
443160 Off ch=6 n=53 v=64
443160 On ch=6 n=56 v=109
443400 Off ch=6 n=56 v=64
443400 On ch=6 n=53 v=109
443520 Off ch=6 n=53 v=64
443520 On ch=6 n=58 v=109
443640 Off ch=6 n=58 v=64
443760 On ch=6 n=53 v=109
443880 Off ch=6 n=53 v=64
443880 On ch=6 n=56 v=109
444120 Off ch=6 n=56 v=64
444120 On ch=6 n=53 v=109
444240 Off ch=6 n=53 v=64
444240 On ch=6 n=56 v=109
444480 Off ch=6 n=56 v=64
444480 On ch=6 n=53 v=109
444600 Off ch=6 n=53 v=64
444600 On ch=6 n=56 v=109
444720 Off ch=6 n=56 v=64
444720 On ch=6 n=53 v=109
444840 Off ch=6 n=53 v=64
444840 On ch=6 n=53 v=109
444960 Off ch=6 n=53 v=64
444960 On ch=6 n=53 v=109
445080 Off ch=6 n=53 v=64
445080 On ch=6 n=53 v=109
445200 Off ch=6 n=53 v=64
445200 On ch=6 n=53 v=109
445320 Off ch=6 n=53 v=64
445320 On ch=6 n=53 v=109
445440 Off ch=6 n=53 v=64
445440 On ch=6 n=53 v=109
445560 Off ch=6 n=53 v=64
445560 On ch=6 n=53 v=109
445680 Off ch=6 n=53 v=64
445680 On ch=6 n=53 v=109
445800 Off ch=6 n=53 v=64
445800 On ch=6 n=53 v=109
445920 Off ch=6 n=53 v=64
445920 On ch=6 n=53 v=109
446040 Off ch=6 n=53 v=64
446040 On ch=6 n=53 v=109
446160 Off ch=6 n=53 v=64
446160 On ch=6 n=53 v=109
446280 Off ch=6 n=53 v=64
446280 On ch=6 n=53 v=109
446400 Off ch=6 n=53 v=64
446400 On ch=6 n=53 v=109
446520 Off ch=6 n=53 v=64
446520 On ch=6 n=87 v=109
446678 Par ch=6 c=1 v=3
446726 Par ch=6 c=1 v=5
446765 Par ch=6 c=1 v=7
446780 Par ch=6 c=1 v=10
446796 Par ch=6 c=1 v=13
446812 Par ch=6 c=1 v=17
446828 Par ch=6 c=1 v=21
446836 Par ch=6 c=1 v=23
446845 Par ch=6 c=1 v=26
446860 Par ch=6 c=1 v=29
446875 Par ch=6 c=1 v=31
446955 Par ch=6 c=1 v=34
446994 Par ch=6 c=1 v=36
447034 Par ch=6 c=1 v=38
447216 Par ch=6 c=1 v=36
447342 Par ch=6 c=1 v=38
447445 Par ch=6 c=1 v=36
447508 Par ch=6 c=1 v=38
447578 Par ch=6 c=1 v=36
447729 Par ch=6 c=1 v=38
447762 Par ch=6 c=1 v=36
447847 Par ch=6 c=1 v=34
447934 Par ch=6 c=1 v=31
447966 Par ch=6 c=1 v=29
448029 Par ch=6 c=1 v=26
448046 Par ch=6 c=1 v=23
448077 Par ch=6 c=1 v=21
448417 Par ch=6 c=1 v=19
448440 Off ch=6 n=87 v=64
448440 On ch=6 n=86 v=109
448558 Par ch=6 c=1 v=17
448574 Par ch=6 c=1 v=14
448582 Par ch=6 c=1 v=12
448597 Par ch=6 c=1 v=7
448614 Par ch=6 c=1 v=4
448621 Par ch=6 c=1 v=1
448630 Par ch=6 c=1 v=0
448680 Off ch=6 n=86 v=64
448680 On ch=6 n=84 v=109
448760 Off ch=6 n=84 v=64
448760 On ch=6 n=82 v=109
448840 Off ch=6 n=82 v=64
448840 On ch=6 n=81 v=109
448920 Off ch=6 n=81 v=64
448920 On ch=6 n=79 v=109
449016 Off ch=6 n=79 v=64
449016 On ch=6 n=81 v=109
449112 Off ch=6 n=81 v=64
449112 On ch=6 n=79 v=109
449208 Off ch=6 n=79 v=64
449208 On ch=6 n=78 v=109
449304 Off ch=6 n=78 v=64
449304 On ch=6 n=77 v=109
449400 Off ch=6 n=77 v=64
449400 On ch=6 n=76 v=109
449480 Off ch=6 n=76 v=64
449480 On ch=6 n=75 v=109
449560 Off ch=6 n=75 v=64
449560 On ch=6 n=74 v=109
449640 Off ch=6 n=74 v=64
449640 On ch=6 n=75 v=109
449720 Off ch=6 n=75 v=64
449720 On ch=6 n=74 v=109
449800 Off ch=6 n=74 v=64
449800 On ch=6 n=72 v=109
449880 Off ch=6 n=72 v=64
449880 On ch=6 n=72 v=109
449940 Off ch=6 n=72 v=64
449940 On ch=6 n=71 v=109
450000 Off ch=6 n=71 v=64
450000 On ch=6 n=70 v=109
450060 Off ch=6 n=70 v=64
450060 On ch=6 n=69 v=109
450120 Off ch=6 n=69 v=64
450120 On ch=6 n=70 v=109
450180 Off ch=6 n=70 v=64
450180 On ch=6 n=69 v=109
450240 Off ch=6 n=69 v=64
450240 On ch=6 n=68 v=109
450300 Off ch=6 n=68 v=64
450300 On ch=6 n=67 v=109
450360 Off ch=6 n=67 v=64
450360 On ch=6 n=69 v=109
450420 Off ch=6 n=69 v=64
450420 On ch=6 n=67 v=109
450480 Off ch=6 n=67 v=64
450480 On ch=6 n=66 v=109
450540 Off ch=6 n=66 v=64
450540 On ch=6 n=65 v=109
450600 Off ch=6 n=65 v=64
450600 On ch=6 n=63 v=109
450660 Off ch=6 n=63 v=64
450660 On ch=6 n=64 v=109
450720 Off ch=6 n=64 v=64
450720 On ch=6 n=67 v=109
450780 Off ch=6 n=67 v=64
450780 On ch=6 n=70 v=109
450840 Off ch=6 n=70 v=64
450840 On ch=6 n=75 v=109
450900 Off ch=6 n=75 v=64
450900 On ch=6 n=74 v=109
450960 Off ch=6 n=74 v=64
450960 On ch=6 n=69 v=109
451020 Off ch=6 n=69 v=64
451260 On ch=6 n=63 v=109
451320 Off ch=6 n=63 v=64
451320 On ch=6 n=61 v=109
451380 Off ch=6 n=61 v=64
451380 On ch=6 n=60 v=109
451440 Off ch=6 n=60 v=64
451440 On ch=6 n=58 v=109
451500 Off ch=6 n=58 v=64
451500 On ch=6 n=56 v=109
451560 Off ch=6 n=56 v=64
451560 On ch=6 n=53 v=109
452670 Par ch=6 c=1 v=3
452685 Par ch=6 c=1 v=5
452702 Par ch=6 c=1 v=7
452718 Par ch=6 c=1 v=10
452726 Par ch=6 c=1 v=12
452733 Par ch=6 c=1 v=14
452741 Par ch=6 c=1 v=17
452774 Par ch=6 c=1 v=19
452797 Par ch=6 c=1 v=21
452893 Par ch=6 c=1 v=23
452915 Par ch=6 c=1 v=26
452939 Par ch=6 c=1 v=28
452963 Par ch=6 c=1 v=31
452971 Par ch=6 c=1 v=34
452978 Par ch=6 c=1 v=36
452986 Par ch=6 c=1 v=38
453002 Par ch=6 c=1 v=42
453017 Par ch=6 c=1 v=45
453026 Par ch=6 c=1 v=49
453153 Par ch=6 c=1 v=51
453216 Par ch=6 c=1 v=49
453238 Par ch=6 c=1 v=46
453247 Par ch=6 c=1 v=44
453255 Par ch=6 c=1 v=42
453264 Par ch=6 c=1 v=39
453271 Par ch=6 c=1 v=37
453286 Par ch=6 c=1 v=34
453303 Par ch=6 c=1 v=31
453318 Par ch=6 c=1 v=29
453342 Par ch=6 c=1 v=27
453349 Par ch=6 c=1 v=25
453366 Par ch=6 c=1 v=22
453373 Par ch=6 c=1 v=20
453381 Par ch=6 c=1 v=18
453398 Par ch=6 c=1 v=15
453413 Par ch=6 c=1 v=13
453429 Par ch=6 c=1 v=11
453476 Par ch=6 c=1 v=7
453480 Off ch=6 n=53 v=64
453480 On ch=6 n=60 v=109
453516 Par ch=6 c=1 v=5
453548 Par ch=6 c=1 v=3
453580 Par ch=6 c=1 v=1
453594 Par ch=6 c=1 v=0
453600 Off ch=6 n=60 v=64
453600 On ch=6 n=56 v=109
453720 Off ch=6 n=56 v=64
453720 On ch=6 n=53 v=109
453840 Off ch=6 n=53 v=64
453840 On ch=6 n=56 v=109
453960 Off ch=6 n=56 v=64
453960 On ch=6 n=58 v=109
454080 Off ch=6 n=58 v=64
454080 On ch=6 n=60 v=109
454200 Off ch=6 n=60 v=64
454200 On ch=6 n=63 v=109
454320 Off ch=6 n=63 v=64
454320 On ch=6 n=65 v=109
454440 Off ch=6 n=65 v=64
454440 On ch=6 n=68 v=109
454560 Off ch=6 n=68 v=64
454560 On ch=6 n=70 v=109
454680 Off ch=6 n=70 v=64
454680 On ch=6 n=65 v=109
454800 Off ch=6 n=65 v=64
454800 On ch=6 n=68 v=109
455400 Off ch=6 n=68 v=64
455400 On ch=6 n=65 v=109
455520 Off ch=6 n=65 v=64
455640 On ch=6 n=77 v=109
455880 Off ch=6 n=77 v=64
455880 On ch=6 n=76 v=109
456000 Off ch=6 n=76 v=64
456000 On ch=6 n=77 v=109
456120 Off ch=6 n=77 v=64
456360 On ch=6 n=76 v=109
456600 Off ch=6 n=76 v=64
456600 On ch=6 n=77 v=109
456840 Off ch=6 n=77 v=64
456840 On ch=6 n=76 v=109
457080 Off ch=6 n=76 v=64
457080 On ch=6 n=77 v=109
457261 Pb ch=6 v=10425
457317 Pb ch=6 v=10094
457332 Pb ch=6 v=9929
457347 Pb ch=6 v=9763
457363 Pb ch=6 v=9515
457371 Pb ch=6 v=9267
457378 Pb ch=6 v=9019
457387 Pb ch=6 v=8853
457395 Pb ch=6 v=8605
457402 Pb ch=6 v=8274
457410 Pb ch=6 v=8192
457800 Off ch=6 n=77 v=64
458040 On ch=6 n=77 v=109
458319 Pb ch=6 v=8688
458334 Pb ch=6 v=9184
458352 Pb ch=6 v=9350
458456 Pb ch=6 v=9184
458489 Pb ch=6 v=9019
458559 Pb ch=6 v=9433
458577 Pb ch=6 v=10094
458592 Pb ch=6 v=11501
458611 Pb ch=6 v=13073
458629 Pb ch=6 v=14645
458644 Pb ch=6 v=16217
458662 Pb ch=6 v=16383
463830 Par ch=6 c=1 v=1
463838 Par ch=6 c=1 v=3
463845 Par ch=6 c=1 v=5
463853 Par ch=6 c=1 v=7
463862 Par ch=6 c=1 v=10
463869 Par ch=6 c=1 v=12
463877 Par ch=6 c=1 v=15
463901 Par ch=6 c=1 v=18
464012 Par ch=6 c=1 v=15
464027 Par ch=6 c=1 v=19
464035 Par ch=6 c=1 v=21
464042 Par ch=6 c=1 v=23
464051 Par ch=6 c=1 v=26
464058 Par ch=6 c=1 v=28
464105 Par ch=6 c=1 v=22
464114 Par ch=6 c=1 v=20
464122 Par ch=6 c=1 v=15
464129 Par ch=6 c=1 v=12
464138 Par ch=6 c=1 v=9
464146 Par ch=6 c=1 v=6
464153 Par ch=6 c=1 v=3
464161 Par ch=6 c=1 v=1
464170 Par ch=6 c=1 v=3
464194 Par ch=6 c=1 v=5
464209 Par ch=6 c=1 v=7
464248 Par ch=6 c=1 v=4
464257 Par ch=6 c=1 v=1
464264 Par ch=6 c=1 v=0
464532 Par ch=6 c=1 v=1
464541 Par ch=6 c=1 v=3
464549 Par ch=6 c=1 v=5
464565 Par ch=6 c=1 v=7
464597 Par ch=6 c=1 v=10
464628 Par ch=6 c=1 v=12
464635 Par ch=6 c=1 v=14
464692 Par ch=6 c=1 v=17
464721 Par ch=6 c=1 v=19
464777 Par ch=6 c=1 v=21
465007 Par ch=6 c=1 v=19
465038 Par ch=6 c=1 v=17
465063 Par ch=6 c=1 v=14
465070 Par ch=6 c=1 v=11
465101 Par ch=6 c=1 v=9
465125 Par ch=6 c=1 v=6
465141 Par ch=6 c=1 v=4
465148 Par ch=6 c=1 v=2
465172 Par ch=6 c=1 v=0
465240 Pb ch=6 v=8192
465480 Off ch=6 n=77 v=64
465480 On ch=6 n=76 v=109
465600 Off ch=6 n=76 v=64
465720 On ch=6 n=77 v=109
465840 Off ch=6 n=77 v=64
465840 On ch=6 n=76 v=109
465960 Off ch=6 n=76 v=64
465960 On ch=6 n=74 v=109
466080 Off ch=6 n=74 v=64
466154 Par ch=6 c=1 v=1
466168 Par ch=6 c=1 v=3
466184 Par ch=6 c=1 v=5
466191 Par ch=6 c=1 v=9
466200 On ch=6 n=77 v=109
466215 Par ch=6 c=1 v=11
466232 Par ch=6 c=1 v=13
466287 Par ch=6 c=1 v=10
466295 Par ch=6 c=1 v=7
466310 Par ch=6 c=1 v=5
466319 Par ch=6 c=1 v=2
466334 Par ch=6 c=1 v=0
466440 Off ch=6 n=77 v=64
466440 On ch=6 n=75 v=109
466515 Par ch=6 c=1 v=0
466560 Off ch=6 n=75 v=64
466560 On ch=6 n=77 v=109
466800 Off ch=6 n=77 v=64
466800 On ch=6 n=75 v=109
466920 Off ch=6 n=75 v=64
466920 On ch=6 n=77 v=109
467160 Off ch=6 n=77 v=64
467160 On ch=6 n=75 v=109
467280 Off ch=6 n=75 v=64
467280 On ch=6 n=77 v=109
467520 Off ch=6 n=77 v=64
467520 On ch=6 n=75 v=109
467640 Off ch=6 n=75 v=64
467640 On ch=6 n=77 v=109
467760 Off ch=6 n=77 v=64
467760 On ch=6 n=75 v=109
467880 Off ch=6 n=75 v=64
467880 On ch=6 n=70 v=109
468000 Off ch=6 n=70 v=64
468120 On ch=6 n=77 v=109
468360 Off ch=6 n=77 v=64
468480 On ch=6 n=77 v=109
468720 Off ch=6 n=77 v=64
468720 On ch=6 n=77 v=109
468840 Off ch=6 n=77 v=64
468840 On ch=6 n=77 v=109
469080 Off ch=6 n=77 v=64
469080 On ch=6 n=75 v=109
469200 Off ch=6 n=75 v=64
469200 On ch=6 n=77 v=109
469440 Off ch=6 n=77 v=64
469440 On ch=6 n=75 v=109
469560 Off ch=6 n=75 v=64
469560 On ch=6 n=77 v=109
469680 Off ch=6 n=77 v=64
469680 On ch=6 n=75 v=109
469800 Off ch=6 n=75 v=64
469800 On ch=6 n=70 v=109
469920 Off ch=6 n=70 v=64
469920 On ch=6 n=65 v=109
470040 Off ch=6 n=65 v=64
470040 On ch=6 n=77 v=109
470280 Off ch=6 n=77 v=64
470280 On ch=6 n=75 v=109
470400 Off ch=6 n=75 v=64
470400 On ch=6 n=81 v=109
470640 Off ch=6 n=81 v=64
470640 On ch=6 n=75 v=109
470760 Off ch=6 n=75 v=64
470760 On ch=6 n=77 v=109
471000 Off ch=6 n=77 v=64
471000 On ch=6 n=75 v=109
471120 Off ch=6 n=75 v=64
471120 On ch=6 n=77 v=109
471360 Off ch=6 n=77 v=64
471360 On ch=6 n=77 v=109
471480 Off ch=6 n=77 v=64
471480 On ch=6 n=77 v=109
471560 Off ch=6 n=77 v=64
471560 On ch=6 n=77 v=109
471640 Off ch=6 n=77 v=64
471640 On ch=6 n=77 v=109
471720 Off ch=6 n=77 v=64
471720 On ch=6 n=77 v=109
471800 Off ch=6 n=77 v=64
471800 On ch=6 n=77 v=109
471880 Off ch=6 n=77 v=64
471880 On ch=6 n=77 v=109
471960 Off ch=6 n=77 v=64
471960 On ch=6 n=77 v=109
472040 Off ch=6 n=77 v=64
472040 On ch=6 n=77 v=109
472120 Off ch=6 n=77 v=64
472120 On ch=6 n=77 v=109
472200 Off ch=6 n=77 v=64
472200 On ch=6 n=77 v=109
472280 Off ch=6 n=77 v=64
472280 On ch=6 n=77 v=109
472360 Off ch=6 n=77 v=64
472360 On ch=6 n=77 v=109
472440 Off ch=6 n=77 v=64
472440 On ch=6 n=77 v=109
472680 Off ch=6 n=77 v=64
472680 On ch=6 n=77 v=109
472760 Off ch=6 n=77 v=64
472760 On ch=6 n=77 v=109
472840 Off ch=6 n=77 v=64
472840 On ch=6 n=77 v=109
472920 Off ch=6 n=77 v=64
472920 On ch=6 n=77 v=109
473000 Off ch=6 n=77 v=64
473000 On ch=6 n=77 v=109
473080 Off ch=6 n=77 v=64
473080 On ch=6 n=77 v=109
473160 Off ch=6 n=77 v=64
473160 On ch=6 n=77 v=109
473240 Off ch=6 n=77 v=64
473240 On ch=6 n=77 v=109
473320 Off ch=6 n=77 v=64
473320 On ch=6 n=77 v=109
473400 Off ch=6 n=77 v=64
473400 On ch=6 n=88 v=109
473720 Pb ch=6 v=7943
473734 Pb ch=6 v=7529
473745 Pb ch=6 v=7116
473758 Pb ch=6 v=6702
473771 Pb ch=6 v=6454
473783 Pb ch=6 v=6205
473796 Pb ch=6 v=5874
473807 Pb ch=6 v=5709
473831 Pb ch=6 v=5543
473869 Pb ch=6 v=5378
473883 Pb ch=6 v=5213
473920 Pb ch=6 v=5047
473934 Pb ch=6 v=4882
473945 Pb ch=6 v=4716
473958 Pb ch=6 v=4551
473983 Pb ch=6 v=4302
474009 Pb ch=6 v=4054
474034 Pb ch=6 v=3889
474058 Pb ch=6 v=3723
474285 Pb ch=6 v=3971
474296 Pb ch=6 v=4633
474309 Pb ch=6 v=5213
474323 Pb ch=6 v=6205
474334 Pb ch=6 v=6867
474347 Pb ch=6 v=7281
474360 Off ch=6 n=88 v=64
474360 Pb ch=6 v=7695
474360 On ch=6 n=79 v=109
474371 Pb ch=6 v=7943
474398 Pb ch=6 v=8109
474434 Pb ch=6 v=8192
474600 Off ch=6 n=79 v=64
474600 On ch=6 n=81 v=109
474720 Off ch=6 n=81 v=64
474720 On ch=6 n=79 v=109
474840 Off ch=6 n=79 v=64
474840 On ch=6 n=76 v=109
474960 Off ch=6 n=76 v=64
474960 On ch=6 n=74 v=109
475080 Off ch=6 n=74 v=64
475080 On ch=6 n=71 v=109
475200 Off ch=6 n=71 v=64
475200 On ch=6 n=69 v=109
475320 Off ch=6 n=69 v=64
475320 On ch=6 n=59 v=109
475440 Off ch=6 n=59 v=64
475440 On ch=6 n=58 v=109
475560 Off ch=6 n=58 v=64
475560 On ch=6 n=56 v=109
475680 Off ch=6 n=56 v=64
475680 On ch=6 n=53 v=109
475800 Off ch=6 n=53 v=64
475800 On ch=6 n=56 v=109
476040 Off ch=6 n=56 v=64
476040 On ch=6 n=71 v=109
476160 Off ch=6 n=71 v=64
476160 On ch=6 n=70 v=109
476280 Off ch=6 n=70 v=64
476280 On ch=6 n=68 v=109
476400 On ch=6 n=65 v=109
476520 Off ch=6 n=65 v=64
476520 On ch=6 n=68 v=109
476640 Off ch=6 n=68 v=64
476760 Off ch=6 n=68 v=64
476760 On ch=6 n=83 v=109
476880 Off ch=6 n=83 v=64
476880 On ch=6 n=82 v=109
477000 Off ch=6 n=82 v=64
477000 On ch=6 n=80 v=109
477120 Off ch=6 n=80 v=64
477120 On ch=6 n=77 v=109
477240 Off ch=6 n=77 v=64
477240 On ch=6 n=80 v=109
477480 Off ch=6 n=80 v=64
477720 On ch=6 n=67 v=109
477960 Off ch=6 n=67 v=64
477960 On ch=6 n=72 v=109
478080 Off ch=6 n=72 v=64
478200 On ch=6 n=69 v=109
478320 Off ch=6 n=69 v=64
478440 On ch=6 n=74 v=109
478560 Off ch=6 n=74 v=64
478560 On ch=6 n=71 v=109
478680 Off ch=6 n=71 v=64
478800 On ch=6 n=76 v=109
478920 Off ch=6 n=76 v=64
478920 On ch=6 n=79 v=109
479214 Par ch=6 c=1 v=2
479229 Par ch=6 c=1 v=4
479236 Par ch=6 c=1 v=6
479260 Par ch=6 c=1 v=10
479285 Par ch=6 c=1 v=13
479292 Par ch=6 c=1 v=15
479325 Par ch=6 c=1 v=18
479340 Par ch=6 c=1 v=21
479372 Par ch=6 c=1 v=23
479396 Par ch=6 c=1 v=26
479420 Par ch=6 c=1 v=28
479451 Par ch=6 c=1 v=30
479466 Par ch=6 c=1 v=33
479483 Par ch=6 c=1 v=35
479490 Par ch=6 c=1 v=37
479505 Par ch=6 c=1 v=39
479522 Par ch=6 c=1 v=43
479529 Par ch=6 c=1 v=45
479554 Par ch=6 c=1 v=49
479570 Par ch=6 c=1 v=51
479663 Par ch=6 c=1 v=53
479838 Par ch=6 c=1 v=55
479885 Par ch=6 c=1 v=58
479910 Par ch=6 c=1 v=55
479924 Par ch=6 c=1 v=58
480004 Par ch=6 c=1 v=60
480027 Par ch=6 c=1 v=63
480296 Par ch=6 c=1 v=66
480628 Par ch=6 c=1 v=68
480652 Par ch=6 c=1 v=66
480840 Off ch=6 n=79 v=64
481031 Par ch=6 c=1 v=63
481038 Par ch=6 c=1 v=60
481047 Par ch=6 c=1 v=55
481055 Par ch=6 c=1 v=50
481062 Par ch=6 c=1 v=42
481070 Par ch=6 c=1 v=28
481079 Par ch=6 c=1 v=5
481086 Par ch=6 c=1 v=0
486000 On ch=6 n=67 v=99
486060 Off ch=6 n=67 v=64
486060 On ch=6 n=69 v=99
486120 Off ch=6 n=69 v=64
486120 On ch=6 n=71 v=99
486720 Off ch=6 n=71 v=64
486720 On ch=6 n=71 v=99
486920 Off ch=6 n=71 v=64
486920 On ch=6 n=71 v=99
487520 Off ch=6 n=71 v=64
487520 On ch=6 n=71 v=99
487720 Off ch=6 n=71 v=64
487720 On ch=6 n=71 v=99
488320 Off ch=6 n=71 v=64
488320 On ch=6 n=72 v=99
488420 Off ch=6 n=72 v=64
488420 On ch=6 n=71 v=99
488520 Off ch=6 n=71 v=64
488520 On ch=6 n=69 v=99
489120 Off ch=6 n=69 v=64
489120 On ch=6 n=69 v=99
489320 Off ch=6 n=69 v=64
489320 On ch=6 n=69 v=99
489920 Off ch=6 n=69 v=64
489920 On ch=6 n=71 v=99
490020 Off ch=6 n=71 v=64
490020 On ch=6 n=69 v=99
490120 Off ch=6 n=69 v=64
490120 On ch=6 n=67 v=99
491520 Off ch=6 n=67 v=64
491520 On ch=6 n=67 v=99
491620 Off ch=6 n=67 v=64
491620 On ch=6 n=69 v=99
491720 Off ch=6 n=69 v=64
491720 On ch=6 n=71 v=99
492320 Off ch=6 n=71 v=64
492320 On ch=6 n=71 v=99
492520 Off ch=6 n=71 v=64
492520 On ch=6 n=71 v=99
493120 Off ch=6 n=71 v=64
493120 On ch=6 n=71 v=99
493320 Off ch=6 n=71 v=64
493320 On ch=6 n=72 v=99
493920 Off ch=6 n=72 v=64
493920 On ch=6 n=71 v=99
494120 Off ch=6 n=71 v=64
494120 On ch=6 n=69 v=99
494720 Off ch=6 n=69 v=64
494720 On ch=6 n=67 v=99
494920 Off ch=6 n=67 v=64
494920 On ch=6 n=62 v=99
495720 Off ch=6 n=62 v=64
495720 On ch=6 n=67 v=99
496520 Off ch=6 n=67 v=64
496520 On ch=6 n=66 v=99
497120 Off ch=6 n=66 v=64
497120 On ch=6 n=67 v=99
497320 Off ch=6 n=67 v=64
497320 On ch=6 n=69 v=99
497920 Off ch=6 n=69 v=64
497920 On ch=6 n=67 v=99
498120 Off ch=6 n=67 v=64
498120 On ch=6 n=62 v=99
498920 Off ch=6 n=62 v=64
498920 On ch=6 n=67 v=99
499720 Off ch=6 n=67 v=64
499720 On ch=6 n=66 v=99
500320 Off ch=6 n=66 v=64
500320 On ch=6 n=67 v=99
500520 Off ch=6 n=67 v=64
500520 On ch=6 n=69 v=99
501120 Off ch=6 n=69 v=64
501120 On ch=6 n=67 v=99
501320 Off ch=6 n=67 v=64
501320 On ch=6 n=72 v=99
501920 Off ch=6 n=72 v=64
501920 On ch=6 n=71 v=99
502120 Off ch=6 n=71 v=64
502120 On ch=6 n=69 v=99
505320 Off ch=6 n=69 v=64
505320 On ch=6 n=72 v=99
505920 Off ch=6 n=72 v=64
505920 On ch=6 n=71 v=99
506120 Off ch=6 n=71 v=64
506120 On ch=6 n=69 v=99
506720 Off ch=6 n=69 v=64
506720 On ch=6 n=74 v=99
506920 Off ch=6 n=74 v=64
506920 On ch=6 n=79 v=99
509640 Off ch=6 n=79 v=64
526200 On ch=6 n=67 v=80
526200 On ch=6 n=62 v=80
526440 Off ch=6 n=67 v=64
526440 Off ch=6 n=62 v=64
526440 On ch=6 n=67 v=80
526440 On ch=6 n=62 v=80
528360 Off ch=6 n=62 v=64
529320 Off ch=6 n=67 v=64
529320 Meta TrkEnd
TrkEnd
MTrk
0 Meta TrkName "SynthLead SUB"
0 Par ch=7 c=1 v=0
0 Par ch=7 c=7 v=100
0 Par ch=7 c=10 v=64
0 Par ch=7 c=11 v=127
0 Par ch=7 c=91 v=127
0 Par ch=7 c=93 v=127
0 PrCh ch=7 p=81
455880 On ch=7 n=77 v=109
463320 Off ch=7 n=77 v=64
480360 On ch=7 n=84 v=80
480600 Off ch=7 n=84 v=64
480720 On ch=7 n=83 v=80
480840 Off ch=7 n=83 v=64
482760 On ch=7 n=84 v=80
483000 Off ch=7 n=84 v=64
483120 On ch=7 n=83 v=80
483240 Off ch=7 n=83 v=64
485160 On ch=7 n=84 v=80
485400 Off ch=7 n=84 v=64
485520 On ch=7 n=83 v=80
485640 Off ch=7 n=83 v=64
487560 On ch=7 n=84 v=80
487800 Off ch=7 n=84 v=64
487920 On ch=7 n=83 v=80
488040 Off ch=7 n=83 v=64
489960 On ch=7 n=84 v=80
490200 Off ch=7 n=84 v=64
490320 On ch=7 n=83 v=80
490440 Off ch=7 n=83 v=64
492360 On ch=7 n=84 v=80
492600 Off ch=7 n=84 v=64
492720 On ch=7 n=83 v=80
492840 Off ch=7 n=83 v=64
494760 On ch=7 n=84 v=80
495000 Off ch=7 n=84 v=64
495120 On ch=7 n=83 v=80
495240 Off ch=7 n=83 v=64
497160 On ch=7 n=84 v=80
497400 Off ch=7 n=84 v=64
497520 On ch=7 n=83 v=80
497640 Off ch=7 n=83 v=64
499560 On ch=7 n=84 v=80
499800 Off ch=7 n=84 v=64
499920 On ch=7 n=83 v=80
500040 Off ch=7 n=83 v=64
501960 On ch=7 n=84 v=80
502200 Off ch=7 n=84 v=64
502320 On ch=7 n=83 v=80
502440 Off ch=7 n=83 v=64
504360 On ch=7 n=84 v=80
504600 Off ch=7 n=84 v=64
504720 On ch=7 n=83 v=80
504840 Off ch=7 n=83 v=64
506760 On ch=7 n=84 v=80
507000 Off ch=7 n=84 v=64
507120 On ch=7 n=83 v=80
507240 Off ch=7 n=83 v=64
509160 On ch=7 n=84 v=80
509400 Off ch=7 n=84 v=64
509520 On ch=7 n=83 v=80
509640 Off ch=7 n=83 v=64
521160 On ch=7 n=84 v=80
521400 Off ch=7 n=84 v=64
521520 On ch=7 n=83 v=80
521640 Off ch=7 n=83 v=64
523560 On ch=7 n=84 v=80
523800 Off ch=7 n=84 v=64
523920 On ch=7 n=83 v=80
524040 Off ch=7 n=83 v=64
526200 On ch=7 n=55 v=80
526200 On ch=7 n=43 v=80
529320 Off ch=7 n=55 v=64
529320 Off ch=7 n=43 v=64
529320 Meta TrkEnd
TrkEnd
MTrk
0 Meta TrkName "SynthSE"
0 PrCh ch=8 p=124
0 Par ch=8 c=93 v=127
0 Par ch=8 c=91 v=127
0 Par ch=8 c=11 v=127
0 Par ch=8 c=10 v=64
0 Par ch=8 c=7 v=100
0 Par ch=8 c=1 v=0
87720 On ch=8 n=81 v=112
87840 Off ch=8 n=81 v=64
87840 On ch=8 n=81 v=112
87960 Off ch=8 n=81 v=64
87960 On ch=8 n=81 v=112
88080 Off ch=8 n=81 v=64
88080 On ch=8 n=81 v=112
88200 Off ch=8 n=81 v=64
88200 On ch=8 n=81 v=112
88320 Off ch=8 n=81 v=64
88320 On ch=8 n=81 v=112
88440 Off ch=8 n=81 v=64
88440 On ch=8 n=81 v=112
88560 Off ch=8 n=81 v=64
88920 PrCh ch=8 p=38
89160 On ch=8 n=71 v=80
89280 Off ch=8 n=71 v=64
89280 On ch=8 n=71 v=80
89400 Off ch=8 n=71 v=64
89400 On ch=8 n=71 v=80
89640 Off ch=8 n=71 v=64
89640 On ch=8 n=71 v=80
89760 Off ch=8 n=71 v=64
89760 On ch=8 n=71 v=80
89880 Off ch=8 n=71 v=64
89880 On ch=8 n=71 v=80
90000 Off ch=8 n=71 v=64
90000 On ch=8 n=71 v=80
90120 Off ch=8 n=71 v=64
90120 On ch=8 n=71 v=80
90240 Off ch=8 n=71 v=64
90240 On ch=8 n=71 v=80
90360 Off ch=8 n=71 v=64
122160 On ch=8 n=57 v=96
122400 Off ch=8 n=57 v=64
122400 On ch=8 n=69 v=96
122520 Off ch=8 n=69 v=64
122520 On ch=8 n=69 v=96
122640 Off ch=8 n=69 v=64
122640 On ch=8 n=69 v=96
122760 Off ch=8 n=69 v=64
122760 On ch=8 n=69 v=96
122880 Off ch=8 n=69 v=64
122880 On ch=8 n=69 v=96
123000 Off ch=8 n=69 v=64
123000 On ch=8 n=69 v=96
123120 Off ch=8 n=69 v=64
123120 Meta TrkEnd
TrkEnd
MTrk
0 Meta TrkName "Bass"
0 Par ch=9 c=93 v=64
0 Par ch=9 c=91 v=127
0 Par ch=9 c=11 v=127
0 Par ch=9 c=10 v=64
0 Par ch=9 c=7 v=120
0 Par ch=9 c=1 v=0
0 PrCh ch=9 p=34
10080 On ch=9 n=43 v=124
10200 Off ch=9 n=43 v=64
10200 On ch=9 n=43 v=108
10320 Off ch=9 n=43 v=64
10320 On ch=9 n=46 v=116
10560 Off ch=9 n=46 v=64
10560 On ch=9 n=43 v=108
10680 Off ch=9 n=43 v=64
10680 On ch=9 n=48 v=124
10800 Off ch=9 n=48 v=64
10800 On ch=9 n=46 v=116
10920 Off ch=9 n=46 v=64
10920 On ch=9 n=43 v=108
11040 Off ch=9 n=43 v=64
11040 On ch=9 n=49 v=116
11160 Off ch=9 n=49 v=64
11160 On ch=9 n=42 v=124
11280 Off ch=9 n=42 v=64
11280 On ch=9 n=43 v=108
11400 Off ch=9 n=43 v=64
11400 On ch=9 n=50 v=116
11520 Off ch=9 n=50 v=64
11520 On ch=9 n=49 v=124
11640 Off ch=9 n=49 v=64
11640 On ch=9 n=43 v=108
11760 Off ch=9 n=43 v=64
11760 On ch=9 n=49 v=116
11880 Off ch=9 n=49 v=64
11880 On ch=9 n=48 v=124
12000 Off ch=9 n=48 v=64
12000 On ch=9 n=46 v=116
12120 Off ch=9 n=46 v=64
12120 On ch=9 n=41 v=124
12240 Off ch=9 n=41 v=64
12240 On ch=9 n=42 v=127
18480 Off ch=9 n=42 v=64
22800 On ch=9 n=38 v=127
22920 Off ch=9 n=38 v=64
22920 On ch=9 n=38 v=124
23040 Off ch=9 n=38 v=64
23040 On ch=9 n=41 v=124
23280 Off ch=9 n=41 v=64
23280 On ch=9 n=38 v=116
23400 Off ch=9 n=38 v=64
23400 On ch=9 n=40 v=124
23520 Off ch=9 n=40 v=64
23520 On ch=9 n=41 v=116
23640 Off ch=9 n=41 v=64
23640 On ch=9 n=40 v=124
23760 Off ch=9 n=40 v=64
23760 On ch=9 n=44 v=124
23880 Off ch=9 n=44 v=64
23880 On ch=9 n=37 v=124
24000 Off ch=9 n=37 v=64
24000 On ch=9 n=38 v=108
24120 Off ch=9 n=38 v=64
24120 On ch=9 n=45 v=116
24240 Off ch=9 n=45 v=64
24240 On ch=9 n=44 v=124
24360 Off ch=9 n=44 v=64
24360 On ch=9 n=38 v=108
24480 Off ch=9 n=38 v=64
24480 On ch=9 n=44 v=124
24600 Off ch=9 n=44 v=64
24600 On ch=9 n=43 v=116
24720 Off ch=9 n=43 v=64
24720 On ch=9 n=41 v=124
24840 Off ch=9 n=41 v=64
24840 On ch=9 n=36 v=116
24960 Off ch=9 n=36 v=64
24960 On ch=9 n=41 v=127
31920 Off ch=9 n=41 v=64
31920 On ch=9 n=31 v=124
32160 Off ch=9 n=31 v=64
32160 On ch=9 n=36 v=116
32280 Off ch=9 n=36 v=64
32400 On ch=9 n=33 v=124
32520 Off ch=9 n=33 v=64
32640 On ch=9 n=38 v=116
32760 Off ch=9 n=38 v=64
32760 On ch=9 n=35 v=124
32880 Off ch=9 n=35 v=64
33000 On ch=9 n=40 v=127
33120 Off ch=9 n=40 v=64
33120 On ch=9 n=37 v=124
33240 Off ch=9 n=37 v=64
33360 On ch=9 n=41 v=116
33480 Off ch=9 n=41 v=64
33480 On ch=9 n=48 v=114
40440 Off ch=9 n=48 v=64
71160 On ch=9 n=45 v=112
71280 Off ch=9 n=45 v=64
71280 On ch=9 n=45 v=100
71400 Off ch=9 n=45 v=64
71400 On ch=9 n=45 v=98
71520 Off ch=9 n=45 v=64
71520 On ch=9 n=49 v=106
71640 Off ch=9 n=49 v=64
71640 On ch=9 n=49 v=104
71760 Off ch=9 n=49 v=64
71760 On ch=9 n=49 v=102
71880 Off ch=9 n=49 v=64
71880 On ch=9 n=45 v=97
72000 Off ch=9 n=45 v=64
72000 On ch=9 n=45 v=100
72120 Off ch=9 n=45 v=64
72120 On ch=9 n=45 v=107
72240 Off ch=9 n=45 v=64
72240 On ch=9 n=38 v=100
72360 Off ch=9 n=38 v=64
72360 On ch=9 n=38 v=89
72480 Off ch=9 n=38 v=64
72480 On ch=9 n=38 v=92
72600 Off ch=9 n=38 v=64
72600 On ch=9 n=55 v=100
72720 Off ch=9 n=55 v=64
72720 On ch=9 n=55 v=99
72840 Off ch=9 n=55 v=64
72840 On ch=9 n=55 v=89
72960 Off ch=9 n=55 v=64
72960 On ch=9 n=54 v=102
73080 Off ch=9 n=54 v=64
73080 On ch=9 n=54 v=110
73200 Off ch=9 n=54 v=64
73200 On ch=9 n=54 v=101
73320 Off ch=9 n=54 v=64
73320 On ch=9 n=38 v=96
73440 Off ch=9 n=38 v=64
73440 On ch=9 n=38 v=89
73560 Off ch=9 n=38 v=64
73560 On ch=9 n=45 v=107
73680 Off ch=9 n=45 v=64
73680 On ch=9 n=45 v=102
73800 Off ch=9 n=45 v=64
73800 On ch=9 n=45 v=110
73920 Off ch=9 n=45 v=64
73920 On ch=9 n=49 v=108
74040 Off ch=9 n=49 v=64
74040 On ch=9 n=49 v=104
74160 Off ch=9 n=49 v=64
74160 On ch=9 n=49 v=102
74280 Off ch=9 n=49 v=64
74280 On ch=9 n=45 v=110
74400 Off ch=9 n=45 v=64
74400 On ch=9 n=45 v=107
74520 Off ch=9 n=45 v=64
74520 On ch=9 n=45 v=106
74640 Off ch=9 n=45 v=64
74640 On ch=9 n=38 v=104
74760 Off ch=9 n=38 v=64
74760 On ch=9 n=38 v=107
74880 Off ch=9 n=38 v=64
74880 On ch=9 n=38 v=100
75000 Off ch=9 n=38 v=64
75000 On ch=9 n=55 v=98
75120 Off ch=9 n=55 v=64
75120 On ch=9 n=55 v=94
75240 Off ch=9 n=55 v=64
75240 On ch=9 n=55 v=89
75360 Off ch=9 n=55 v=64
75360 On ch=9 n=54 v=105
75480 Off ch=9 n=54 v=64
75480 On ch=9 n=54 v=107
75600 Off ch=9 n=54 v=64
75600 On ch=9 n=54 v=107
75720 Off ch=9 n=54 v=64
75720 On ch=9 n=38 v=100
75840 Off ch=9 n=38 v=64
75840 On ch=9 n=38 v=102
75960 Off ch=9 n=38 v=64
75960 On ch=9 n=45 v=110
76080 Off ch=9 n=45 v=64
76080 On ch=9 n=45 v=105
76200 Off ch=9 n=45 v=64
76200 On ch=9 n=45 v=104
76320 Off ch=9 n=45 v=64
76320 On ch=9 n=49 v=109
76440 Off ch=9 n=49 v=64
76440 On ch=9 n=49 v=108
76560 Off ch=9 n=49 v=64
76560 On ch=9 n=49 v=110
76680 Off ch=9 n=49 v=64
76680 On ch=9 n=45 v=107
76800 Off ch=9 n=45 v=64
76800 On ch=9 n=45 v=108
76920 Off ch=9 n=45 v=64
76920 On ch=9 n=45 v=104
77040 Off ch=9 n=45 v=64
77040 On ch=9 n=38 v=106
77160 Off ch=9 n=38 v=64
77160 On ch=9 n=38 v=107
77280 Off ch=9 n=38 v=64
77280 On ch=9 n=38 v=100
77400 Off ch=9 n=38 v=64
77400 On ch=9 n=55 v=108
77520 Off ch=9 n=55 v=64
77520 On ch=9 n=55 v=107
77640 Off ch=9 n=55 v=64
77640 On ch=9 n=55 v=106
77760 Off ch=9 n=55 v=64
77760 On ch=9 n=54 v=110
77880 Off ch=9 n=54 v=64
77880 On ch=9 n=54 v=105
78000 Off ch=9 n=54 v=64
78000 On ch=9 n=54 v=107
78120 Off ch=9 n=54 v=64
78120 On ch=9 n=38 v=108
78240 Off ch=9 n=38 v=64
78240 On ch=9 n=38 v=107
78360 Off ch=9 n=38 v=64
78360 On ch=9 n=45 v=110
78480 Off ch=9 n=45 v=64
78480 On ch=9 n=45 v=108
78600 Off ch=9 n=45 v=64
78600 On ch=9 n=45 v=104
78720 Off ch=9 n=45 v=64
78720 On ch=9 n=49 v=99
78840 Off ch=9 n=49 v=64
78840 On ch=9 n=49 v=104
78960 Off ch=9 n=49 v=64
78960 On ch=9 n=49 v=105
79080 Off ch=9 n=49 v=64
79080 On ch=9 n=45 v=100
79200 Off ch=9 n=45 v=64
79200 On ch=9 n=45 v=99
79320 Off ch=9 n=45 v=64
79320 On ch=9 n=45 v=104
79440 Off ch=9 n=45 v=64
79440 On ch=9 n=38 v=100
79560 Off ch=9 n=38 v=64
79560 On ch=9 n=38 v=102
79680 Off ch=9 n=38 v=64
79680 On ch=9 n=38 v=104
79800 Off ch=9 n=38 v=64
79800 On ch=9 n=55 v=99
79920 Off ch=9 n=55 v=64
79920 On ch=9 n=55 v=107
80040 Off ch=9 n=55 v=64
80040 On ch=9 n=55 v=108
80160 Off ch=9 n=55 v=64
80160 On ch=9 n=54 v=98
80280 Off ch=9 n=54 v=64
80280 On ch=9 n=54 v=112
80640 Off ch=9 n=54 v=64
80760 On ch=9 n=33 v=121
81000 Off ch=9 n=33 v=64
81000 On ch=9 n=35 v=107
81120 Off ch=9 n=35 v=64
81120 On ch=9 n=36 v=112
81240 Off ch=9 n=36 v=64
81240 On ch=9 n=37 v=106
81360 Off ch=9 n=37 v=64
81360 On ch=9 n=36 v=114
81480 Off ch=9 n=36 v=64
81480 On ch=9 n=35 v=110
81600 Off ch=9 n=35 v=64
81600 On ch=9 n=33 v=108
81720 Off ch=9 n=33 v=64
81720 On ch=9 n=33 v=118
81840 Off ch=9 n=33 v=64
81840 On ch=9 n=33 v=104
81960 Off ch=9 n=33 v=64
81960 On ch=9 n=36 v=116
82140 Off ch=9 n=36 v=64
82140 On ch=9 n=43 v=101
82200 Off ch=9 n=43 v=64
82440 On ch=9 n=27 v=124
82680 Off ch=9 n=27 v=64
82680 On ch=9 n=30 v=112
83160 Off ch=9 n=30 v=64
83400 On ch=9 n=56 v=104
83640 Off ch=9 n=56 v=64
83880 On ch=9 n=54 v=103
84120 Off ch=9 n=54 v=64
84360 On ch=9 n=30 v=100
84480 Off ch=9 n=30 v=64
84480 On ch=9 n=32 v=102
84600 Off ch=9 n=32 v=64
84600 On ch=9 n=35 v=98
85080 Off ch=9 n=35 v=64
85320 On ch=9 n=54 v=105
85560 Off ch=9 n=54 v=64
85800 On ch=9 n=54 v=102
86040 Off ch=9 n=54 v=64
86280 On ch=9 n=34 v=107
86400 Off ch=9 n=34 v=64
86400 On ch=9 n=34 v=110
86520 Off ch=9 n=34 v=64
86520 On ch=9 n=35 v=108
87000 Off ch=9 n=35 v=64
87240 On ch=9 n=49 v=100
87480 Off ch=9 n=49 v=64
87720 On ch=9 n=47 v=98
87960 Off ch=9 n=47 v=64
88200 On ch=9 n=35 v=104
88320 Off ch=9 n=35 v=64
88320 On ch=9 n=35 v=107
88440 Off ch=9 n=35 v=64
88440 On ch=9 n=35 v=100
88920 Off ch=9 n=35 v=64
89160 On ch=9 n=47 v=103
89400 Off ch=9 n=47 v=64
89640 On ch=9 n=42 v=99
89880 Off ch=9 n=42 v=64
90120 On ch=9 n=35 v=95
90240 Off ch=9 n=35 v=64
90240 On ch=9 n=35 v=104
90360 Off ch=9 n=35 v=64
90360 On ch=9 n=30 v=97
91080 Off ch=9 n=30 v=64
91920 On ch=9 n=33 v=103
92280 Off ch=9 n=33 v=64
92280 On ch=9 n=34 v=100
92760 Off ch=9 n=34 v=64
92760 On ch=9 n=35 v=99
93240 Off ch=9 n=35 v=64
93240 On ch=9 n=37 v=102
93960 Off ch=9 n=37 v=64
94200 On ch=9 n=33 v=99
94920 Off ch=9 n=33 v=64
94920 On ch=9 n=38 v=97
95640 Off ch=9 n=38 v=64
95640 On ch=9 n=40 v=104
98040 Off ch=9 n=40 v=64
98040 On ch=9 n=33 v=96
98760 Off ch=9 n=33 v=64
98760 On ch=9 n=38 v=108
99480 Off ch=9 n=38 v=64
99480 On ch=9 n=40 v=100
100200 Off ch=9 n=40 v=64
100200 On ch=9 n=52 v=104
100320 Off ch=9 n=52 v=64
100320 On ch=9 n=52 v=110
100440 Off ch=9 n=52 v=64
100440 On ch=9 n=52 v=100
100680 Off ch=9 n=52 v=64
100680 On ch=9 n=52 v=97
100800 Off ch=9 n=52 v=64
100800 On ch=9 n=52 v=92
100920 Off ch=9 n=52 v=64
100920 On ch=9 n=54 v=89
101040 Off ch=9 n=54 v=64
101040 On ch=9 n=52 v=79
101160 Off ch=9 n=52 v=64
101160 On ch=9 n=52 v=94
101400 Off ch=9 n=52 v=64
101400 On ch=9 n=49 v=89
101520 Off ch=9 n=49 v=64
101520 On ch=9 n=47 v=99
101640 Off ch=9 n=47 v=64
101640 On ch=9 n=49 v=104
101880 Off ch=9 n=49 v=64
101880 On ch=9 n=30 v=107
102360 Off ch=9 n=30 v=64
102600 On ch=9 n=35 v=104
102600 On ch=9 n=32 v=100
103320 Off ch=9 n=35 v=64
103320 Off ch=9 n=32 v=64
103320 On ch=9 n=37 v=108
105720 Off ch=9 n=37 v=64
105720 On ch=9 n=34 v=110
105840 Off ch=9 n=34 v=64
105840 On ch=9 n=34 v=104
105960 Off ch=9 n=34 v=64
105960 On ch=9 n=34 v=98
106080 Off ch=9 n=34 v=64
106080 On ch=9 n=34 v=97
106200 Off ch=9 n=34 v=64
106200 On ch=9 n=34 v=104
106320 Off ch=9 n=34 v=64
106320 On ch=9 n=34 v=102
106440 Off ch=9 n=34 v=64
106440 On ch=9 n=34 v=110
106560 Off ch=9 n=34 v=64
106560 On ch=9 n=34 v=107
106680 Off ch=9 n=34 v=64
106680 On ch=9 n=28 v=108
106800 Off ch=9 n=28 v=64
106800 On ch=9 n=33 v=102
106920 Off ch=9 n=33 v=64
106920 On ch=9 n=35 v=106
107040 Off ch=9 n=35 v=64
107040 On ch=9 n=38 v=110
107280 Off ch=9 n=38 v=64
107280 On ch=9 n=35 v=107
107400 Off ch=9 n=35 v=64
107400 On ch=9 n=35 v=106
107640 Off ch=9 n=35 v=64
107640 On ch=9 n=28 v=102
107760 Off ch=9 n=28 v=64
107760 On ch=9 n=28 v=100
107880 Off ch=9 n=28 v=64
107880 On ch=9 n=32 v=108
108000 Off ch=9 n=32 v=64
108000 On ch=9 n=28 v=99
108120 Off ch=9 n=28 v=64
108120 On ch=9 n=33 v=96
108240 Off ch=9 n=33 v=64
108240 On ch=9 n=33 v=89
108360 Off ch=9 n=33 v=64
108360 On ch=9 n=32 v=84
108480 Off ch=9 n=32 v=64
108480 On ch=9 n=32 v=99
108600 Off ch=9 n=32 v=64
108600 On ch=9 n=30 v=108
108720 Off ch=9 n=30 v=64
108720 On ch=9 n=30 v=102
108840 Off ch=9 n=30 v=64
108840 On ch=9 n=30 v=100
108960 Off ch=9 n=30 v=64
109080 On ch=9 n=35 v=99
109320 Off ch=9 n=35 v=64
109320 On ch=9 n=28 v=97
109440 Off ch=9 n=28 v=64
109440 On ch=9 n=38 v=92
109680 Off ch=9 n=38 v=64
109680 On ch=9 n=35 v=102
109800 Off ch=9 n=35 v=64
109800 On ch=9 n=35 v=105
110040 Off ch=9 n=35 v=64
110040 On ch=9 n=28 v=100
110280 Off ch=9 n=28 v=64
110280 On ch=9 n=47 v=93
110520 Off ch=9 n=47 v=64
110520 On ch=9 n=47 v=97
110760 Off ch=9 n=47 v=64
110760 On ch=9 n=44 v=105
110880 Off ch=9 n=44 v=64
110880 On ch=9 n=44 v=102
111000 Off ch=9 n=44 v=64
111000 On ch=9 n=28 v=102
111120 Off ch=9 n=28 v=64
111120 On ch=9 n=28 v=107
111240 Off ch=9 n=28 v=64
111240 On ch=9 n=28 v=100
111360 Off ch=9 n=28 v=64
111360 On ch=9 n=28 v=98
111480 Off ch=9 n=28 v=64
111480 On ch=9 n=28 v=89
111720 Off ch=9 n=28 v=64
111840 On ch=9 n=38 v=76
112080 Off ch=9 n=38 v=64
112080 On ch=9 n=35 v=104
112200 Off ch=9 n=35 v=64
112200 On ch=9 n=35 v=89
112440 Off ch=9 n=35 v=64
112440 On ch=9 n=28 v=87
112680 Off ch=9 n=28 v=64
112800 On ch=9 n=45 v=94
112920 Off ch=9 n=45 v=64
112920 On ch=9 n=45 v=100
113040 Off ch=9 n=45 v=64
113040 On ch=9 n=45 v=104
113160 Off ch=9 n=45 v=64
113160 On ch=9 n=44 v=95
113280 Off ch=9 n=44 v=64
113280 On ch=9 n=44 v=98
113400 Off ch=9 n=44 v=64
113400 On ch=9 n=28 v=100
113520 Off ch=9 n=28 v=64
113520 On ch=9 n=28 v=104
113640 Off ch=9 n=28 v=64
113640 On ch=9 n=28 v=103
113760 Off ch=9 n=28 v=64
113760 On ch=9 n=28 v=98
113880 Off ch=9 n=28 v=64
113880 On ch=9 n=35 v=89
114000 Off ch=9 n=35 v=64
114000 On ch=9 n=35 v=106
114120 Off ch=9 n=35 v=64
114120 On ch=9 n=30 v=100
114240 Off ch=9 n=30 v=64
114240 On ch=9 n=39 v=89
114360 Off ch=9 n=39 v=64
114360 On ch=9 n=39 v=94
114480 Off ch=9 n=39 v=64
114480 On ch=9 n=35 v=93
114720 Off ch=9 n=35 v=64
114720 On ch=9 n=28 v=100
114960 Off ch=9 n=28 v=64
114960 On ch=9 n=32 v=104
115200 Off ch=9 n=32 v=64
115200 On ch=9 n=33 v=110
115440 Off ch=9 n=33 v=64
115440 On ch=9 n=32 v=107
115680 Off ch=9 n=32 v=64
115800 On ch=9 n=40 v=99
116040 Off ch=9 n=40 v=64
116040 On ch=9 n=40 v=104
116280 Off ch=9 n=40 v=64
116280 On ch=9 n=40 v=100
116520 Off ch=9 n=40 v=64
116520 On ch=9 n=68 v=98
116760 Off ch=9 n=68 v=64
117000 On ch=9 n=66 v=104
117240 Off ch=9 n=66 v=64
117480 On ch=9 n=40 v=93
117600 Off ch=9 n=40 v=64
117600 On ch=9 n=42 v=88
117720 Off ch=9 n=42 v=64
117720 On ch=9 n=44 v=84
117960 Off ch=9 n=44 v=64
117960 On ch=9 n=44 v=79
118200 Off ch=9 n=44 v=64
118200 On ch=9 n=44 v=94
118440 Off ch=9 n=44 v=64
118440 On ch=9 n=66 v=100
118560 Off ch=9 n=66 v=64
118560 On ch=9 n=64 v=89
118680 Off ch=9 n=64 v=64
118920 On ch=9 n=59 v=101
119280 Off ch=9 n=59 v=64
119400 On ch=9 n=44 v=96
119520 Off ch=9 n=44 v=64
119520 On ch=9 n=44 v=88
119640 Off ch=9 n=44 v=64
119640 On ch=9 n=45 v=104
119880 Off ch=9 n=45 v=64
119880 On ch=9 n=45 v=100
120120 Off ch=9 n=45 v=64
120120 On ch=9 n=57 v=92
120360 Off ch=9 n=57 v=64
120360 On ch=9 n=57 v=107
120600 Off ch=9 n=57 v=64
120840 On ch=9 n=57 v=103
121080 Off ch=9 n=57 v=64
121080 On ch=9 n=45 v=104
121320 Off ch=9 n=45 v=64
121320 On ch=9 n=45 v=99
121560 Off ch=9 n=45 v=64
121560 On ch=9 n=59 v=89
121680 Off ch=9 n=59 v=64
121680 On ch=9 n=61 v=76
121800 Off ch=9 n=61 v=64
121800 On ch=9 n=45 v=102
121920 Off ch=9 n=45 v=64
121920 On ch=9 n=61 v=101
122040 Off ch=9 n=61 v=64
122160 On ch=9 n=57 v=86
122280 Off ch=9 n=57 v=64
122280 On ch=9 n=59 v=88
122400 Off ch=9 n=59 v=64
122400 On ch=9 n=57 v=79
122520 Off ch=9 n=57 v=64
122520 On ch=9 n=57 v=92
122760 Off ch=9 n=57 v=64
122760 On ch=9 n=57 v=104
123000 Off ch=9 n=57 v=64
123000 On ch=9 n=45 v=101
123240 Off ch=9 n=45 v=64
123240 On ch=9 n=44 v=104
123480 Off ch=9 n=44 v=64
123480 On ch=9 n=40 v=98
123600 Off ch=9 n=40 v=64
123600 On ch=9 n=64 v=101
123720 Off ch=9 n=64 v=64
123720 On ch=9 n=64 v=99
123960 Off ch=9 n=64 v=64
123960 On ch=9 n=64 v=102
124200 Off ch=9 n=64 v=64
124200 On ch=9 n=66 v=94
124320 Off ch=9 n=66 v=64
124320 On ch=9 n=62 v=86
124560 Off ch=9 n=62 v=64
124560 On ch=9 n=64 v=88
124680 Off ch=9 n=64 v=64
124680 On ch=9 n=64 v=100
125040 On ch=9 n=40 v=104
125160 Off ch=9 n=64 v=64
125160 Off ch=9 n=40 v=64
125160 On ch=9 n=42 v=95
125400 Off ch=9 n=42 v=64
125400 On ch=9 n=44 v=106
125880 Off ch=9 n=44 v=64
125880 On ch=9 n=45 v=108
126360 Off ch=9 n=45 v=64
126360 On ch=9 n=47 v=100
127320 Off ch=9 n=47 v=64
127320 On ch=9 n=43 v=95
128040 Off ch=9 n=43 v=64
128040 On ch=9 n=48 v=102
128040 On ch=9 n=52 v=107
128760 Off ch=9 n=48 v=64
128760 Off ch=9 n=52 v=64
128760 On ch=9 n=50 v=104
131160 Off ch=9 n=50 v=64
131160 On ch=9 n=47 v=101
131160 On ch=9 n=43 v=106
131880 Off ch=9 n=47 v=64
131880 Off ch=9 n=43 v=64
131880 On ch=9 n=48 v=100
132600 Off ch=9 n=48 v=64
132600 On ch=9 n=50 v=101
133320 Off ch=9 n=50 v=64
133320 On ch=9 n=60 v=100
133560 Off ch=9 n=60 v=64
133560 On ch=9 n=62 v=98
133800 Off ch=9 n=62 v=64
133800 On ch=9 n=62 v=91
133920 Off ch=9 n=62 v=64
133920 On ch=9 n=64 v=88
134040 Off ch=9 n=64 v=64
134040 On ch=9 n=64 v=105
134160 Off ch=9 n=64 v=64
134160 On ch=9 n=62 v=100
134280 Off ch=9 n=62 v=64
134280 On ch=9 n=62 v=96
134520 Off ch=9 n=62 v=64
134520 On ch=9 n=59 v=89
134640 Off ch=9 n=59 v=64
134640 On ch=9 n=57 v=103
134760 Off ch=9 n=57 v=64
134760 On ch=9 n=59 v=100
134880 Off ch=9 n=59 v=64
134880 On ch=9 n=57 v=89
135000 Off ch=9 n=57 v=64
135000 On ch=9 n=52 v=101
135720 Off ch=9 n=52 v=64
135720 On ch=9 n=40 v=111
136440 Off ch=9 n=40 v=64
136440 On ch=9 n=47 v=105
138840 Off ch=9 n=47 v=64
138840 On ch=9 n=43 v=109
139320 Off ch=9 n=43 v=64
139320 On ch=9 n=44 v=107
139800 Off ch=9 n=44 v=64
139800 On ch=9 n=50 v=99
139920 Off ch=9 n=50 v=64
139920 On ch=9 n=50 v=102
140040 Off ch=9 n=50 v=64
140040 On ch=9 n=57 v=105
140160 Off ch=9 n=57 v=64
140160 On ch=9 n=60 v=100
140400 Off ch=9 n=60 v=64
140400 On ch=9 n=60 v=97
140520 Off ch=9 n=60 v=64
140520 On ch=9 n=57 v=95
140640 Off ch=9 n=57 v=64
140640 On ch=9 n=57 v=96
140760 Off ch=9 n=57 v=64
140760 On ch=9 n=50 v=100
140880 On ch=9 n=50 v=104
141000 Off ch=9 n=50 v=64
141000 On ch=9 n=50 v=107
141120 Off ch=9 n=50 v=64
141120 On ch=9 n=50 v=103
141240 Off ch=9 n=50 v=64
141240 On ch=9 n=67 v=100
141360 Off ch=9 n=50 v=64
141360 Off ch=9 n=67 v=64
141360 On ch=9 n=67 v=99
141480 Off ch=9 n=67 v=64
141480 On ch=9 n=67 v=93
141600 Off ch=9 n=67 v=64
141600 On ch=9 n=66 v=89
141720 Off ch=9 n=66 v=64
141720 On ch=9 n=66 v=107
141840 Off ch=9 n=66 v=64
141840 On ch=9 n=66 v=108
141960 Off ch=9 n=66 v=64
141960 On ch=9 n=62 v=110
142080 Off ch=9 n=62 v=64
142080 On ch=9 n=62 v=102
142200 Off ch=9 n=62 v=64
142200 On ch=9 n=50 v=77
142320 On ch=9 n=50 v=89
142440 Off ch=9 n=50 v=64
142440 Off ch=9 n=50 v=64
142440 On ch=9 n=57 v=100
142560 Off ch=9 n=57 v=64
142560 On ch=9 n=60 v=104
142800 Off ch=9 n=60 v=64
142800 On ch=9 n=60 v=101
142920 Off ch=9 n=60 v=64
142920 On ch=9 n=57 v=98
143040 Off ch=9 n=57 v=64
143040 On ch=9 n=57 v=110
143160 Off ch=9 n=57 v=64
143160 On ch=9 n=50 v=104
143280 On ch=9 n=50 v=102
143400 Off ch=9 n=50 v=64
143400 On ch=9 n=50 v=112
143520 Off ch=9 n=50 v=64
143520 On ch=9 n=50 v=103
143640 Off ch=9 n=50 v=64
143640 On ch=9 n=67 v=110
143760 Off ch=9 n=67 v=64
143760 On ch=9 n=67 v=101
143880 Off ch=9 n=67 v=64
143880 On ch=9 n=67 v=98
144000 Off ch=9 n=67 v=64
144000 On ch=9 n=66 v=91
144120 Off ch=9 n=66 v=64
144120 On ch=9 n=66 v=93
144240 Off ch=9 n=66 v=64
144240 On ch=9 n=66 v=89
144360 Off ch=9 n=66 v=64
144360 On ch=9 n=62 v=102
144480 Off ch=9 n=62 v=64
144480 On ch=9 n=62 v=101
144600 Off ch=9 n=62 v=64
144600 On ch=9 n=50 v=104
144720 Off ch=9 n=50 v=64
144720 Off ch=9 n=50 v=64
144720 On ch=9 n=50 v=111
144840 Off ch=9 n=50 v=64
144840 On ch=9 n=57 v=107
144960 Off ch=9 n=57 v=64
144960 On ch=9 n=60 v=100
145200 Off ch=9 n=60 v=64
145200 On ch=9 n=60 v=98
145320 Off ch=9 n=60 v=64
145320 On ch=9 n=57 v=89
145440 Off ch=9 n=57 v=64
145440 On ch=9 n=57 v=86
145560 Off ch=9 n=57 v=64
145560 On ch=9 n=50 v=106
145680 Off ch=9 n=50 v=64
145680 On ch=9 n=50 v=100
145800 Off ch=9 n=50 v=64
145800 On ch=9 n=50 v=110
145920 Off ch=9 n=50 v=64
145920 On ch=9 n=50 v=104
146040 Off ch=9 n=50 v=64
146040 On ch=9 n=67 v=98
146160 Off ch=9 n=67 v=64
146160 On ch=9 n=67 v=104
146280 Off ch=9 n=67 v=64
146280 On ch=9 n=67 v=100
146400 Off ch=9 n=67 v=64
146400 On ch=9 n=66 v=97
146520 Off ch=9 n=66 v=64
146520 On ch=9 n=66 v=102
146640 Off ch=9 n=66 v=64
146640 On ch=9 n=66 v=101
146760 Off ch=9 n=66 v=64
146760 On ch=9 n=62 v=104
146880 Off ch=9 n=62 v=64
146880 On ch=9 n=62 v=95
147000 Off ch=9 n=62 v=64
147000 On ch=9 n=45 v=110
147120 Off ch=9 n=45 v=64
147120 On ch=9 n=45 v=100
147240 Off ch=9 n=45 v=64
147240 On ch=9 n=46 v=95
147360 Off ch=9 n=46 v=64
147360 On ch=9 n=47 v=102
147480 Off ch=9 n=47 v=64
147480 On ch=9 n=48 v=98
147600 Off ch=9 n=48 v=64
147600 On ch=9 n=47 v=101
147720 Off ch=9 n=47 v=64
147720 On ch=9 n=46 v=102
147840 Off ch=9 n=46 v=64
147840 On ch=9 n=45 v=114
147960 Off ch=9 n=45 v=64
147960 On ch=9 n=45 v=97
148080 Off ch=9 n=45 v=64
148080 On ch=9 n=48 v=101
148200 Off ch=9 n=48 v=64
148200 On ch=9 n=50 v=97
148320 Off ch=9 n=50 v=64
148320 On ch=9 n=55 v=102
148440 On ch=9 n=55 v=100
148560 Off ch=9 n=55 v=64
148560 On ch=9 n=55 v=102
148680 Off ch=9 n=55 v=64
148680 Off ch=9 n=55 v=64
148680 On ch=9 n=54 v=106
148800 Off ch=9 n=54 v=64
148800 On ch=9 n=54 v=107
149160 Off ch=9 n=54 v=64
149160 On ch=9 n=38 v=100
149280 Off ch=9 n=38 v=64
149280 On ch=9 n=38 v=107
149400 Off ch=9 n=38 v=64
149400 On ch=9 n=45 v=108
149520 Off ch=9 n=45 v=64
149520 On ch=9 n=45 v=105
149640 Off ch=9 n=45 v=64
149640 On ch=9 n=46 v=105
149760 Off ch=9 n=46 v=64
149760 On ch=9 n=47 v=101
149880 Off ch=9 n=47 v=64
149880 On ch=9 n=48 v=108
150000 Off ch=9 n=48 v=64
150000 On ch=9 n=47 v=108
150120 Off ch=9 n=47 v=64
150120 On ch=9 n=46 v=102
150240 Off ch=9 n=46 v=64
150240 On ch=9 n=45 v=106
150360 Off ch=9 n=45 v=64
150360 On ch=9 n=45 v=102
150480 Off ch=9 n=45 v=64
150480 On ch=9 n=48 v=108
150600 Off ch=9 n=48 v=64
150600 On ch=9 n=50 v=98
150720 Off ch=9 n=50 v=64
150720 On ch=9 n=55 v=98
150840 On ch=9 n=55 v=107
150960 Off ch=9 n=55 v=64
150960 On ch=9 n=55 v=99
151080 Off ch=9 n=55 v=64
151080 Off ch=9 n=55 v=64
151080 On ch=9 n=54 v=105
151200 Off ch=9 n=54 v=64
151200 On ch=9 n=54 v=109
151560 Off ch=9 n=54 v=64
151560 On ch=9 n=38 v=102
151680 Off ch=9 n=38 v=64
151680 On ch=9 n=38 v=97
151800 Off ch=9 n=38 v=64
151800 On ch=9 n=45 v=107
151920 Off ch=9 n=45 v=64
151920 On ch=9 n=45 v=107
152040 Off ch=9 n=45 v=64
152040 On ch=9 n=46 v=111
152160 Off ch=9 n=46 v=64
152160 On ch=9 n=47 v=110
152280 Off ch=9 n=47 v=64
152280 On ch=9 n=48 v=106
152400 Off ch=9 n=48 v=64
152400 On ch=9 n=47 v=96
152520 Off ch=9 n=47 v=64
152520 On ch=9 n=46 v=104
152640 Off ch=9 n=46 v=64
152640 On ch=9 n=45 v=99
152760 Off ch=9 n=45 v=64
152760 On ch=9 n=45 v=106
152880 Off ch=9 n=45 v=64
152880 On ch=9 n=48 v=110
153000 Off ch=9 n=48 v=64
153000 On ch=9 n=50 v=106
153120 Off ch=9 n=50 v=64
153120 On ch=9 n=55 v=108
153240 On ch=9 n=55 v=110
153360 Off ch=9 n=55 v=64
153360 On ch=9 n=55 v=106
153480 Off ch=9 n=55 v=64
153480 Off ch=9 n=55 v=64
153480 On ch=9 n=54 v=108
153600 Off ch=9 n=54 v=64
153600 On ch=9 n=54 v=106
153960 Off ch=9 n=54 v=64
153960 On ch=9 n=38 v=98
154080 Off ch=9 n=38 v=64
154080 On ch=9 n=38 v=102
154200 Off ch=9 n=38 v=64
154200 On ch=9 n=40 v=106
154320 Off ch=9 n=40 v=64
154320 On ch=9 n=40 v=101
154440 Off ch=9 n=40 v=64
154440 On ch=9 n=40 v=108
154560 Off ch=9 n=40 v=64
154560 On ch=9 n=40 v=100
154680 Off ch=9 n=40 v=64
154680 On ch=9 n=43 v=96
154800 Off ch=9 n=43 v=64
154800 On ch=9 n=43 v=109
154920 Off ch=9 n=43 v=64
154920 On ch=9 n=43 v=100
155040 Off ch=9 n=43 v=64
155040 On ch=9 n=43 v=109
155160 Off ch=9 n=43 v=64
155160 On ch=9 n=38 v=111
155280 Off ch=9 n=38 v=64
155280 On ch=9 n=38 v=106
155400 Off ch=9 n=38 v=64
155400 On ch=9 n=38 v=107
155520 Off ch=9 n=38 v=64
155520 On ch=9 n=43 v=127
155640 Off ch=9 n=43 v=64
155640 On ch=9 n=43 v=122
155760 Off ch=9 n=43 v=64
155760 On ch=9 n=43 v=122
155880 Off ch=9 n=43 v=64
155880 On ch=9 n=43 v=124
156000 Off ch=9 n=43 v=64
156000 On ch=9 n=46 v=114
156120 Off ch=9 n=46 v=64
156120 On ch=9 n=46 v=118
156240 Off ch=9 n=46 v=64
156240 On ch=9 n=43 v=114
156360 Off ch=9 n=43 v=64
156360 On ch=9 n=48 v=120
156480 Off ch=9 n=48 v=64
156480 On ch=9 n=48 v=127
156600 Off ch=9 n=48 v=64
156600 On ch=9 n=43 v=107
156720 Off ch=9 n=43 v=64
156720 On ch=9 n=49 v=108
156840 Off ch=9 n=49 v=64
156840 On ch=9 n=49 v=110
156960 Off ch=9 n=49 v=64
156960 On ch=9 n=43 v=118
157080 Off ch=9 n=43 v=64
157080 On ch=9 n=50 v=104
157200 Off ch=9 n=50 v=64
157200 On ch=9 n=50 v=127
157320 Off ch=9 n=50 v=64
157320 On ch=9 n=43 v=120
157440 Off ch=9 n=43 v=64
157440 On ch=9 n=49 v=108
157560 Off ch=9 n=49 v=64
157560 On ch=9 n=49 v=114
157680 Off ch=9 n=49 v=64
157680 On ch=9 n=43 v=114
157800 Off ch=9 n=43 v=64
157800 On ch=9 n=48 v=120
157920 Off ch=9 n=48 v=64
157920 On ch=9 n=48 v=124
158040 Off ch=9 n=48 v=64
158040 On ch=9 n=43 v=107
158160 Off ch=9 n=43 v=64
158160 On ch=9 n=43 v=112
158280 Off ch=9 n=43 v=64
158280 On ch=9 n=46 v=101
158400 Off ch=9 n=46 v=64
158400 On ch=9 n=46 v=103
158520 Off ch=9 n=46 v=64
158520 On ch=9 n=43 v=118
158640 Off ch=9 n=43 v=64
158640 On ch=9 n=48 v=107
158760 Off ch=9 n=48 v=64
158760 On ch=9 n=48 v=101
158880 Off ch=9 n=48 v=64
158880 On ch=9 n=43 v=103
159000 Off ch=9 n=43 v=64
159000 On ch=9 n=49 v=112
159120 Off ch=9 n=49 v=64
159120 On ch=9 n=49 v=112
159240 Off ch=9 n=49 v=64
159240 On ch=9 n=43 v=103
159360 Off ch=9 n=43 v=64
159360 On ch=9 n=43 v=108
159480 Off ch=9 n=43 v=64
159480 On ch=9 n=50 v=101
159600 Off ch=9 n=50 v=64
159600 On ch=9 n=50 v=124
159720 Off ch=9 n=50 v=64
159720 On ch=9 n=43 v=112
159840 Off ch=9 n=43 v=64
159840 On ch=9 n=49 v=107
159960 Off ch=9 n=49 v=64
159960 On ch=9 n=49 v=107
160080 Off ch=9 n=49 v=64
160080 On ch=9 n=43 v=110
160200 Off ch=9 n=43 v=64
160200 On ch=9 n=48 v=116
160320 Off ch=9 n=48 v=64
160320 On ch=9 n=48 v=108
160440 Off ch=9 n=48 v=64
160440 On ch=9 n=43 v=107
160560 Off ch=9 n=43 v=64
160560 On ch=9 n=43 v=112
160680 Off ch=9 n=43 v=64
160680 On ch=9 n=46 v=101
160800 Off ch=9 n=46 v=64
160800 On ch=9 n=46 v=103
160920 Off ch=9 n=46 v=64
160920 On ch=9 n=43 v=118
161040 Off ch=9 n=43 v=64
161040 On ch=9 n=48 v=107
161160 Off ch=9 n=48 v=64
161160 On ch=9 n=48 v=101
161280 Off ch=9 n=48 v=64
161280 On ch=9 n=43 v=103
161400 Off ch=9 n=43 v=64
161400 On ch=9 n=49 v=112
161520 Off ch=9 n=49 v=64
161520 On ch=9 n=49 v=112
161640 Off ch=9 n=49 v=64
161640 On ch=9 n=43 v=103
161760 Off ch=9 n=43 v=64
161760 On ch=9 n=43 v=108
161880 Off ch=9 n=43 v=64
161880 On ch=9 n=50 v=101
162000 Off ch=9 n=50 v=64
162000 On ch=9 n=50 v=124
162120 Off ch=9 n=50 v=64
162120 On ch=9 n=43 v=112
162240 Off ch=9 n=43 v=64
162240 On ch=9 n=49 v=107
162360 Off ch=9 n=49 v=64
162360 On ch=9 n=49 v=107
162480 Off ch=9 n=49 v=64
162480 On ch=9 n=43 v=110
162600 Off ch=9 n=43 v=64
162600 On ch=9 n=48 v=116
162720 Off ch=9 n=48 v=64
162720 On ch=9 n=48 v=108
162840 Off ch=9 n=48 v=64
162840 On ch=9 n=43 v=107
162960 Off ch=9 n=43 v=64
162960 On ch=9 n=43 v=112
163080 Off ch=9 n=43 v=64
163080 On ch=9 n=46 v=101
163200 Off ch=9 n=46 v=64
163200 On ch=9 n=46 v=103
163320 Off ch=9 n=46 v=64
163320 On ch=9 n=43 v=118
163440 Off ch=9 n=43 v=64
163440 On ch=9 n=48 v=107
163560 Off ch=9 n=48 v=64
163560 On ch=9 n=48 v=101
163680 Off ch=9 n=48 v=64
163680 On ch=9 n=43 v=103
163800 Off ch=9 n=43 v=64
163800 On ch=9 n=49 v=112
163920 Off ch=9 n=49 v=64
163920 On ch=9 n=49 v=112
164040 Off ch=9 n=49 v=64
164040 On ch=9 n=43 v=103
164160 Off ch=9 n=43 v=64
164160 On ch=9 n=43 v=108
164280 Off ch=9 n=43 v=64
164280 On ch=9 n=50 v=101
164400 Off ch=9 n=50 v=64
164400 On ch=9 n=50 v=124
164520 Off ch=9 n=50 v=64
164520 On ch=9 n=43 v=112
164640 Off ch=9 n=43 v=64
164640 On ch=9 n=49 v=107
164760 Off ch=9 n=49 v=64
164760 On ch=9 n=49 v=107
164880 Off ch=9 n=49 v=64
164880 On ch=9 n=43 v=110
165000 Off ch=9 n=43 v=64
165000 On ch=9 n=48 v=116
165120 Off ch=9 n=48 v=64
165120 On ch=9 n=48 v=108
165240 Off ch=9 n=48 v=64
165240 On ch=9 n=43 v=104
165360 Off ch=9 n=43 v=64
165360 On ch=9 n=43 v=104
165480 Off ch=9 n=43 v=64
165480 On ch=9 n=46 v=104
165600 Off ch=9 n=46 v=64
165600 On ch=9 n=46 v=104
165720 Off ch=9 n=46 v=64
165720 On ch=9 n=43 v=104
165840 Off ch=9 n=43 v=64
165840 On ch=9 n=48 v=104
165960 Off ch=9 n=48 v=64
165960 On ch=9 n=48 v=104
166080 Off ch=9 n=48 v=64
166080 On ch=9 n=43 v=104
166200 Off ch=9 n=43 v=64
166200 On ch=9 n=49 v=104
166320 Off ch=9 n=49 v=64
166320 On ch=9 n=38 v=104
166440 Off ch=9 n=38 v=64
166440 On ch=9 n=34 v=104
166560 Off ch=9 n=34 v=64
166560 On ch=9 n=34 v=104
166680 Off ch=9 n=34 v=64
166680 On ch=9 n=41 v=104
166800 Off ch=9 n=41 v=64
166800 On ch=9 n=41 v=104
166920 Off ch=9 n=41 v=64
166920 On ch=9 n=38 v=104
167040 Off ch=9 n=38 v=64
167040 On ch=9 n=43 v=104
167160 Off ch=9 n=43 v=64
167160 On ch=9 n=43 v=104
167280 Off ch=9 n=43 v=64
167280 On ch=9 n=38 v=104
167400 Off ch=9 n=38 v=64
167400 On ch=9 n=44 v=104
167520 Off ch=9 n=44 v=64
167520 On ch=9 n=44 v=104
167640 Off ch=9 n=44 v=64
167640 On ch=9 n=34 v=104
167760 Off ch=9 n=34 v=64
167760 On ch=9 n=34 v=104
167880 Off ch=9 n=34 v=64
167880 On ch=9 n=45 v=104
168000 Off ch=9 n=45 v=64
168000 On ch=9 n=45 v=104
168120 Off ch=9 n=45 v=64
168120 On ch=9 n=38 v=104
168240 Off ch=9 n=38 v=64
168240 On ch=9 n=44 v=104
168360 Off ch=9 n=44 v=64
168360 On ch=9 n=44 v=104
168480 Off ch=9 n=44 v=64
168480 On ch=9 n=38 v=104
168600 Off ch=9 n=38 v=64
168600 On ch=9 n=43 v=104
168720 Off ch=9 n=43 v=64
168720 On ch=9 n=43 v=104
168840 Off ch=9 n=43 v=64
168840 On ch=9 n=34 v=104
168960 Off ch=9 n=34 v=64
168960 On ch=9 n=34 v=104
169080 Off ch=9 n=34 v=64
169080 On ch=9 n=41 v=104
169200 Off ch=9 n=41 v=64
169200 On ch=9 n=41 v=104
169320 Off ch=9 n=41 v=64
169320 On ch=9 n=38 v=104
169440 Off ch=9 n=38 v=64
169440 On ch=9 n=43 v=104
169560 Off ch=9 n=43 v=64
169560 On ch=9 n=43 v=104
169680 Off ch=9 n=43 v=64
169680 On ch=9 n=38 v=104
169800 Off ch=9 n=38 v=64
169800 On ch=9 n=44 v=104
169920 Off ch=9 n=44 v=64
169920 On ch=9 n=44 v=104
170040 Off ch=9 n=44 v=64
170040 On ch=9 n=34 v=104
170160 Off ch=9 n=34 v=64
170160 On ch=9 n=34 v=104
170280 Off ch=9 n=34 v=64
170280 On ch=9 n=45 v=104
170400 Off ch=9 n=45 v=64
170400 On ch=9 n=45 v=104
170520 Off ch=9 n=45 v=64
170520 On ch=9 n=38 v=104
170640 Off ch=9 n=38 v=64
170640 On ch=9 n=44 v=104
170760 Off ch=9 n=44 v=64
170760 On ch=9 n=44 v=104
170880 Off ch=9 n=44 v=64
170880 On ch=9 n=38 v=104
171000 Off ch=9 n=38 v=64
171000 On ch=9 n=43 v=104
171120 Off ch=9 n=43 v=64
171120 On ch=9 n=43 v=104
171240 Off ch=9 n=43 v=64
171240 On ch=9 n=43 v=104
171360 Off ch=9 n=43 v=64
171360 On ch=9 n=43 v=104
171480 Off ch=9 n=43 v=64
171480 On ch=9 n=46 v=104
171600 Off ch=9 n=46 v=64
171600 On ch=9 n=46 v=104
171720 Off ch=9 n=46 v=64
171720 On ch=9 n=43 v=104
171840 Off ch=9 n=43 v=64
171840 On ch=9 n=48 v=104
171960 Off ch=9 n=48 v=64
171960 On ch=9 n=48 v=104
172080 Off ch=9 n=48 v=64
172080 On ch=9 n=43 v=104
172200 Off ch=9 n=43 v=64
172200 On ch=9 n=49 v=104
172320 Off ch=9 n=49 v=64
172320 On ch=9 n=49 v=104
172440 Off ch=9 n=49 v=64
172440 On ch=9 n=43 v=104
172560 Off ch=9 n=43 v=64
172560 On ch=9 n=43 v=104
172680 Off ch=9 n=43 v=64
172680 On ch=9 n=50 v=104
172800 Off ch=9 n=50 v=64
172800 On ch=9 n=50 v=104
172920 Off ch=9 n=50 v=64
172920 On ch=9 n=43 v=104
173040 Off ch=9 n=43 v=64
173040 On ch=9 n=49 v=104
173160 Off ch=9 n=49 v=64
173160 On ch=9 n=49 v=104
173280 Off ch=9 n=49 v=64
173280 On ch=9 n=43 v=104
173400 Off ch=9 n=43 v=64
173400 On ch=9 n=48 v=104
173520 Off ch=9 n=48 v=64
173520 On ch=9 n=48 v=104
173640 Off ch=9 n=48 v=64
173640 On ch=9 n=43 v=104
173760 Off ch=9 n=43 v=64
173760 On ch=9 n=43 v=104
173880 Off ch=9 n=43 v=64
173880 On ch=9 n=46 v=104
174000 Off ch=9 n=46 v=64
174000 On ch=9 n=46 v=104
174120 Off ch=9 n=46 v=64
174120 On ch=9 n=43 v=104
174240 Off ch=9 n=43 v=64
174240 On ch=9 n=48 v=104
174360 Off ch=9 n=48 v=64
174360 On ch=9 n=48 v=104
174480 Off ch=9 n=48 v=64
174480 On ch=9 n=43 v=104
174600 Off ch=9 n=43 v=64
174600 On ch=9 n=49 v=104
174720 Off ch=9 n=49 v=64
174720 On ch=9 n=38 v=104
174840 Off ch=9 n=38 v=64
174840 On ch=9 n=34 v=104
174960 Off ch=9 n=34 v=64
174960 On ch=9 n=34 v=104
175080 Off ch=9 n=34 v=64
175080 On ch=9 n=41 v=104
175200 Off ch=9 n=41 v=64
175200 On ch=9 n=41 v=104
175320 Off ch=9 n=41 v=64
175320 On ch=9 n=38 v=104
175440 Off ch=9 n=38 v=64
175440 On ch=9 n=43 v=104
175560 Off ch=9 n=43 v=64
175560 On ch=9 n=43 v=104
175680 Off ch=9 n=43 v=64
175680 On ch=9 n=38 v=104
175800 Off ch=9 n=38 v=64
175800 On ch=9 n=44 v=104
175920 Off ch=9 n=44 v=64
175920 On ch=9 n=44 v=104
176040 Off ch=9 n=44 v=64
176040 On ch=9 n=34 v=104
176160 Off ch=9 n=34 v=64
176160 On ch=9 n=34 v=104
176280 Off ch=9 n=34 v=64
176280 On ch=9 n=45 v=104
176400 Off ch=9 n=45 v=64
176400 On ch=9 n=45 v=104
176520 Off ch=9 n=45 v=64
176520 On ch=9 n=38 v=104
176640 Off ch=9 n=38 v=64
176640 On ch=9 n=44 v=104
176760 Off ch=9 n=44 v=64
176760 On ch=9 n=44 v=104
176880 Off ch=9 n=44 v=64
176880 On ch=9 n=38 v=104
177000 Off ch=9 n=38 v=64
177000 On ch=9 n=43 v=104
177120 Off ch=9 n=43 v=64
177120 On ch=9 n=43 v=104
177240 Off ch=9 n=43 v=64
177240 On ch=9 n=34 v=104
177360 Off ch=9 n=34 v=64
177360 On ch=9 n=34 v=104
177480 Off ch=9 n=34 v=64
177480 On ch=9 n=41 v=104
177600 Off ch=9 n=41 v=64
177600 On ch=9 n=41 v=104
177720 Off ch=9 n=41 v=64
177720 On ch=9 n=38 v=104
177840 Off ch=9 n=38 v=64
177840 On ch=9 n=43 v=104
177960 Off ch=9 n=43 v=64
177960 On ch=9 n=43 v=104
178080 Off ch=9 n=43 v=64
178080 On ch=9 n=38 v=104
178200 Off ch=9 n=38 v=64
178200 On ch=9 n=44 v=104
178320 Off ch=9 n=44 v=64
178320 On ch=9 n=44 v=104
178440 Off ch=9 n=44 v=64
178440 On ch=9 n=34 v=104
178560 Off ch=9 n=34 v=64
178560 On ch=9 n=34 v=104
178680 Off ch=9 n=34 v=64
178680 On ch=9 n=45 v=104
178800 Off ch=9 n=45 v=64
178800 On ch=9 n=45 v=104
178920 Off ch=9 n=45 v=64
178920 On ch=9 n=38 v=104
179040 Off ch=9 n=38 v=64
179040 On ch=9 n=38 v=104
179160 Off ch=9 n=38 v=64
179160 On ch=9 n=44 v=104
179280 Off ch=9 n=44 v=64
179280 On ch=9 n=44 v=104
179400 Off ch=9 n=44 v=64
179400 On ch=9 n=43 v=104
179520 Off ch=9 n=43 v=64
179520 On ch=9 n=43 v=104
179640 Off ch=9 n=43 v=64
179640 On ch=9 n=33 v=99
179760 Off ch=9 n=33 v=64
179760 On ch=9 n=33 v=107
179880 Off ch=9 n=33 v=64
179880 On ch=9 n=40 v=103
180000 Off ch=9 n=40 v=64
180120 On ch=9 n=33 v=102
180240 Off ch=9 n=33 v=64
180240 On ch=9 n=43 v=106
180360 Off ch=9 n=43 v=64
180360 On ch=9 n=43 v=101
180480 Off ch=9 n=43 v=64
180600 On ch=9 n=40 v=99
180720 Off ch=9 n=40 v=64
180720 On ch=9 n=40 v=104
180840 Off ch=9 n=40 v=64
180840 On ch=9 n=33 v=109
180960 Off ch=9 n=33 v=64
180960 On ch=9 n=33 v=108
181080 Off ch=9 n=33 v=64
181080 On ch=9 n=50 v=100
181200 Off ch=9 n=50 v=64
181320 On ch=9 n=50 v=105
181440 Off ch=9 n=50 v=64
181560 On ch=9 n=49 v=108
181680 Off ch=9 n=49 v=64
181680 On ch=9 n=49 v=100
181800 Off ch=9 n=49 v=64
181800 On ch=9 n=33 v=106
181920 Off ch=9 n=33 v=64
181920 On ch=9 n=33 v=110
182040 Off ch=9 n=33 v=64
182040 On ch=9 n=33 v=97
182160 Off ch=9 n=33 v=64
182160 On ch=9 n=33 v=109
182280 Off ch=9 n=33 v=64
182280 On ch=9 n=40 v=98
182400 Off ch=9 n=40 v=64
182520 On ch=9 n=33 v=98
182640 Off ch=9 n=33 v=64
182640 On ch=9 n=43 v=96
182760 Off ch=9 n=43 v=64
182760 On ch=9 n=43 v=99
182880 Off ch=9 n=43 v=64
183000 On ch=9 n=40 v=105
183120 Off ch=9 n=40 v=64
183120 On ch=9 n=40 v=98
183240 Off ch=9 n=40 v=64
183240 On ch=9 n=33 v=110
183360 Off ch=9 n=33 v=64
183360 On ch=9 n=33 v=102
183480 Off ch=9 n=33 v=64
183480 On ch=9 n=35 v=109
183600 Off ch=9 n=35 v=64
183600 On ch=9 n=33 v=109
183720 Off ch=9 n=33 v=64
183720 On ch=9 n=50 v=100
183840 Off ch=9 n=50 v=64
183960 On ch=9 n=49 v=97
184080 Off ch=9 n=49 v=64
184080 On ch=9 n=49 v=100
184200 Off ch=9 n=49 v=64
184200 On ch=9 n=33 v=107
184320 Off ch=9 n=33 v=64
184320 On ch=9 n=33 v=99
184440 Off ch=9 n=33 v=64
184440 On ch=9 n=33 v=105
184560 Off ch=9 n=33 v=64
184560 On ch=9 n=33 v=106
184680 Off ch=9 n=33 v=64
184680 On ch=9 n=40 v=108
184800 Off ch=9 n=40 v=64
184920 On ch=9 n=33 v=102
185040 Off ch=9 n=33 v=64
185040 On ch=9 n=43 v=100
185160 Off ch=9 n=43 v=64
185160 On ch=9 n=44 v=108
185280 Off ch=9 n=44 v=64
185400 On ch=9 n=40 v=101
185520 Off ch=9 n=40 v=64
185520 On ch=9 n=40 v=106
185640 Off ch=9 n=40 v=64
185640 On ch=9 n=33 v=110
185760 Off ch=9 n=33 v=64
185760 On ch=9 n=33 v=108
185880 Off ch=9 n=33 v=64
185880 On ch=9 n=35 v=110
186000 Off ch=9 n=35 v=64
186000 On ch=9 n=33 v=110
186120 Off ch=9 n=33 v=64
186120 On ch=9 n=50 v=98
186240 Off ch=9 n=50 v=64
186360 On ch=9 n=49 v=96
186480 Off ch=9 n=49 v=64
186480 On ch=9 n=49 v=106
186600 Off ch=9 n=49 v=64
186600 On ch=9 n=33 v=99
186720 Off ch=9 n=33 v=64
186720 On ch=9 n=33 v=110
186840 Off ch=9 n=33 v=64
186840 On ch=9 n=33 v=102
186960 Off ch=9 n=33 v=64
186960 On ch=9 n=33 v=102
187080 Off ch=9 n=33 v=64
187080 On ch=9 n=40 v=97
187200 Off ch=9 n=40 v=64
187320 On ch=9 n=33 v=110
187440 Off ch=9 n=33 v=64
187440 On ch=9 n=43 v=96
187560 Off ch=9 n=43 v=64
187560 On ch=9 n=43 v=102
187680 Off ch=9 n=43 v=64
187800 On ch=9 n=40 v=97
187920 Off ch=9 n=40 v=64
187920 On ch=9 n=40 v=110
188040 Off ch=9 n=40 v=64
188040 On ch=9 n=33 v=110
188160 Off ch=9 n=33 v=64
188160 On ch=9 n=33 v=110
188280 Off ch=9 n=33 v=64
188280 On ch=9 n=33 v=104
188400 Off ch=9 n=33 v=64
188400 On ch=9 n=33 v=109
188520 Off ch=9 n=33 v=64
188520 On ch=9 n=50 v=104
188640 Off ch=9 n=50 v=64
188760 On ch=9 n=49 v=102
188880 Off ch=9 n=49 v=64
188880 On ch=9 n=49 v=106
189000 Off ch=9 n=49 v=64
189120 On ch=9 n=33 v=107
189240 Off ch=9 n=33 v=64
189240 On ch=9 n=38 v=97
189360 Off ch=9 n=38 v=64
189360 On ch=9 n=38 v=105
189480 Off ch=9 n=38 v=64
189480 On ch=9 n=41 v=104
189600 Off ch=9 n=41 v=64
189600 On ch=9 n=41 v=104
189720 Off ch=9 n=41 v=64
189720 On ch=9 n=38 v=105
189840 Off ch=9 n=38 v=64
189840 On ch=9 n=43 v=107
189960 Off ch=9 n=43 v=64
189960 On ch=9 n=43 v=107
190080 Off ch=9 n=43 v=64
190080 On ch=9 n=38 v=101
190200 Off ch=9 n=38 v=64
190200 On ch=9 n=44 v=108
190320 Off ch=9 n=44 v=64
190320 On ch=9 n=44 v=104
190440 Off ch=9 n=44 v=64
190440 On ch=9 n=38 v=105
190560 Off ch=9 n=38 v=64
190560 On ch=9 n=38 v=107
190680 Off ch=9 n=38 v=64
190680 On ch=9 n=45 v=99
190800 Off ch=9 n=45 v=64
190800 On ch=9 n=45 v=101
190920 Off ch=9 n=45 v=64
190920 On ch=9 n=38 v=110
191040 Off ch=9 n=38 v=64
191040 On ch=9 n=44 v=110
191160 Off ch=9 n=44 v=64
191160 On ch=9 n=44 v=106
191280 Off ch=9 n=44 v=64
191280 On ch=9 n=38 v=101
191400 Off ch=9 n=38 v=64
191400 On ch=9 n=43 v=104
191520 Off ch=9 n=43 v=64
191520 On ch=9 n=43 v=110
191640 Off ch=9 n=43 v=64
191640 On ch=9 n=38 v=108
191760 Off ch=9 n=38 v=64
191760 On ch=9 n=38 v=105
191880 Off ch=9 n=38 v=64
191880 On ch=9 n=41 v=101
192000 Off ch=9 n=41 v=64
192000 On ch=9 n=41 v=108
192120 Off ch=9 n=41 v=64
192120 On ch=9 n=38 v=109
192240 Off ch=9 n=38 v=64
192240 On ch=9 n=43 v=107
192360 Off ch=9 n=43 v=64
192360 On ch=9 n=43 v=105
192480 Off ch=9 n=43 v=64
192480 On ch=9 n=38 v=110
192600 Off ch=9 n=38 v=64
192600 On ch=9 n=44 v=101
192720 Off ch=9 n=44 v=64
192720 On ch=9 n=44 v=108
192840 Off ch=9 n=44 v=64
192840 On ch=9 n=38 v=99
192960 Off ch=9 n=38 v=64
192960 On ch=9 n=38 v=110
193080 Off ch=9 n=38 v=64
193080 On ch=9 n=45 v=104
193200 Off ch=9 n=45 v=64
193200 On ch=9 n=45 v=104
193320 Off ch=9 n=45 v=64
193320 On ch=9 n=38 v=105
193440 Off ch=9 n=38 v=64
193440 On ch=9 n=44 v=110
193560 Off ch=9 n=44 v=64
193560 On ch=9 n=44 v=100
193680 Off ch=9 n=44 v=64
193680 On ch=9 n=38 v=108
193800 Off ch=9 n=38 v=64
193800 On ch=9 n=43 v=106
193920 Off ch=9 n=43 v=64
193920 On ch=9 n=43 v=99
194040 Off ch=9 n=43 v=64
194040 On ch=9 n=43 v=106
194160 Off ch=9 n=43 v=64
194160 On ch=9 n=43 v=105
194280 Off ch=9 n=43 v=64
194280 On ch=9 n=46 v=110
194400 Off ch=9 n=46 v=64
194400 On ch=9 n=46 v=104
194520 Off ch=9 n=46 v=64
194520 On ch=9 n=43 v=99
194640 Off ch=9 n=43 v=64
194640 On ch=9 n=48 v=103
194760 Off ch=9 n=48 v=64
194760 On ch=9 n=48 v=102
194880 Off ch=9 n=48 v=64
194880 On ch=9 n=43 v=97
195000 Off ch=9 n=43 v=64
195000 On ch=9 n=49 v=103
195120 Off ch=9 n=49 v=64
195120 On ch=9 n=49 v=107
195240 Off ch=9 n=49 v=64
195240 On ch=9 n=43 v=100
195360 Off ch=9 n=43 v=64
195360 On ch=9 n=43 v=108
195480 Off ch=9 n=43 v=64
195480 On ch=9 n=50 v=97
195600 Off ch=9 n=50 v=64
195600 On ch=9 n=50 v=107
195720 Off ch=9 n=50 v=64
195720 On ch=9 n=43 v=102
195840 Off ch=9 n=43 v=64
195840 On ch=9 n=49 v=105
195960 Off ch=9 n=49 v=64
195960 On ch=9 n=49 v=100
196080 Off ch=9 n=49 v=64
196080 On ch=9 n=43 v=97
196200 Off ch=9 n=43 v=64
196200 On ch=9 n=48 v=99
196320 Off ch=9 n=48 v=64
196320 On ch=9 n=48 v=96
196440 Off ch=9 n=48 v=64
196440 On ch=9 n=43 v=104
196560 Off ch=9 n=43 v=64
196560 On ch=9 n=43 v=109
196680 Off ch=9 n=43 v=64
196680 On ch=9 n=46 v=107
196800 Off ch=9 n=46 v=64
196800 On ch=9 n=46 v=109
196920 Off ch=9 n=46 v=64
196920 On ch=9 n=43 v=104
197040 Off ch=9 n=43 v=64
197040 On ch=9 n=48 v=109
197160 Off ch=9 n=48 v=64
197160 On ch=9 n=48 v=107
197280 Off ch=9 n=48 v=64
197280 On ch=9 n=43 v=102
197400 Off ch=9 n=43 v=64
197400 On ch=9 n=49 v=102
197520 Off ch=9 n=49 v=64
197520 On ch=9 n=49 v=101
197640 Off ch=9 n=49 v=64
197640 On ch=9 n=43 v=108
197760 Off ch=9 n=43 v=64
197760 On ch=9 n=43 v=99
197880 Off ch=9 n=43 v=64
197880 On ch=9 n=50 v=106
198000 Off ch=9 n=50 v=64
198000 On ch=9 n=50 v=101
198120 Off ch=9 n=50 v=64
198120 On ch=9 n=43 v=107
198240 Off ch=9 n=43 v=64
198240 On ch=9 n=49 v=109
198360 Off ch=9 n=49 v=64
198360 On ch=9 n=49 v=99
198480 Off ch=9 n=49 v=64
198480 On ch=9 n=43 v=105
198600 Off ch=9 n=43 v=64
198600 On ch=9 n=48 v=103
198720 Off ch=9 n=48 v=64
198720 On ch=9 n=48 v=109
198840 Off ch=9 n=48 v=64
198840 On ch=9 n=38 v=110
199080 Off ch=9 n=38 v=64
199080 On ch=9 n=53 v=96
199200 Off ch=9 n=53 v=64
199200 On ch=9 n=53 v=96
199320 Off ch=9 n=53 v=64
199320 On ch=9 n=38 v=105
199440 Off ch=9 n=38 v=64
199440 On ch=9 n=55 v=105
199560 Off ch=9 n=55 v=64
199560 On ch=9 n=55 v=103
199680 Off ch=9 n=55 v=64
199680 On ch=9 n=38 v=105
199800 Off ch=9 n=38 v=64
199800 On ch=9 n=56 v=97
199920 Off ch=9 n=56 v=64
199920 On ch=9 n=56 v=101
200040 Off ch=9 n=56 v=64
200040 On ch=9 n=38 v=100
200280 Off ch=9 n=38 v=64
200280 On ch=9 n=57 v=97
200400 Off ch=9 n=57 v=64
200400 On ch=9 n=57 v=108
200520 Off ch=9 n=57 v=64
200520 On ch=9 n=38 v=104
200640 Off ch=9 n=38 v=64
200640 On ch=9 n=56 v=105
200760 Off ch=9 n=56 v=64
200760 On ch=9 n=56 v=110
200880 Off ch=9 n=56 v=64
200880 On ch=9 n=38 v=98
201000 Off ch=9 n=38 v=64
201000 On ch=9 n=55 v=101
201120 Off ch=9 n=55 v=64
201120 On ch=9 n=55 v=99
201240 Off ch=9 n=55 v=64
201240 On ch=9 n=38 v=96
201480 Off ch=9 n=38 v=64
201480 On ch=9 n=53 v=107
201600 Off ch=9 n=53 v=64
201600 On ch=9 n=53 v=110
201720 Off ch=9 n=53 v=64
201720 On ch=9 n=38 v=103
201840 Off ch=9 n=38 v=64
201840 On ch=9 n=55 v=103
201960 Off ch=9 n=55 v=64
201960 On ch=9 n=55 v=98
202080 Off ch=9 n=55 v=64
202080 On ch=9 n=38 v=106
202200 Off ch=9 n=38 v=64
202200 On ch=9 n=56 v=100
202320 Off ch=9 n=56 v=64
202320 On ch=9 n=56 v=106
202440 Off ch=9 n=56 v=64
202440 On ch=9 n=38 v=103
202680 Off ch=9 n=38 v=64
202680 On ch=9 n=57 v=97
202800 Off ch=9 n=57 v=64
202800 On ch=9 n=57 v=107
202920 Off ch=9 n=57 v=64
202920 On ch=9 n=38 v=105
203040 Off ch=9 n=38 v=64
203040 On ch=9 n=56 v=102
203160 Off ch=9 n=56 v=64
203160 On ch=9 n=56 v=102
203280 Off ch=9 n=56 v=64
203280 On ch=9 n=38 v=101
203400 Off ch=9 n=38 v=64
203400 On ch=9 n=55 v=110
203520 Off ch=9 n=55 v=64
203520 On ch=9 n=55 v=105
203640 Off ch=9 n=55 v=64
203640 On ch=9 n=38 v=106
203880 Off ch=9 n=38 v=64
203880 On ch=9 n=58 v=108
204000 Off ch=9 n=58 v=64
204000 On ch=9 n=58 v=103
204120 Off ch=9 n=58 v=64
204120 On ch=9 n=43 v=103
204240 Off ch=9 n=43 v=64
204240 On ch=9 n=60 v=98
204360 Off ch=9 n=60 v=64
204360 On ch=9 n=60 v=105
204480 Off ch=9 n=60 v=64
204480 On ch=9 n=43 v=103
204600 Off ch=9 n=43 v=64
204600 On ch=9 n=61 v=103
204720 Off ch=9 n=61 v=64
204720 On ch=9 n=61 v=106
204840 Off ch=9 n=61 v=64
204840 On ch=9 n=43 v=97
205080 Off ch=9 n=43 v=64
205080 On ch=9 n=62 v=103
205200 Off ch=9 n=62 v=64
205200 On ch=9 n=62 v=96
205320 Off ch=9 n=62 v=64
205320 On ch=9 n=43 v=97
205440 Off ch=9 n=43 v=64
205440 On ch=9 n=61 v=110
205560 Off ch=9 n=61 v=64
205560 On ch=9 n=61 v=99
205680 Off ch=9 n=61 v=64
205680 On ch=9 n=43 v=99
205800 Off ch=9 n=43 v=64
205800 On ch=9 n=60 v=110
205920 Off ch=9 n=60 v=64
205920 On ch=9 n=60 v=103
206040 Off ch=9 n=60 v=64
206040 On ch=9 n=43 v=110
206280 Off ch=9 n=43 v=64
206280 On ch=9 n=58 v=104
206400 Off ch=9 n=58 v=64
206400 On ch=9 n=58 v=97
206520 Off ch=9 n=58 v=64
206520 On ch=9 n=43 v=102
206640 Off ch=9 n=43 v=64
206640 On ch=9 n=60 v=110
206760 Off ch=9 n=60 v=64
206760 On ch=9 n=60 v=110
206880 Off ch=9 n=60 v=64
206880 On ch=9 n=43 v=98
207000 Off ch=9 n=43 v=64
207000 On ch=9 n=61 v=106
207120 Off ch=9 n=61 v=64
207120 On ch=9 n=61 v=101
207240 Off ch=9 n=61 v=64
207240 On ch=9 n=43 v=101
207360 Off ch=9 n=43 v=64
207360 On ch=9 n=43 v=96
207480 Off ch=9 n=43 v=64
207480 On ch=9 n=62 v=102
207600 Off ch=9 n=62 v=64
207600 On ch=9 n=62 v=99
207720 Off ch=9 n=62 v=64
207720 On ch=9 n=43 v=101
207840 Off ch=9 n=43 v=64
207840 On ch=9 n=61 v=101
207960 Off ch=9 n=61 v=64
207960 On ch=9 n=61 v=110
208080 Off ch=9 n=61 v=64
208080 On ch=9 n=43 v=100
208200 Off ch=9 n=43 v=64
208200 On ch=9 n=60 v=106
208320 Off ch=9 n=60 v=64
208320 On ch=9 n=60 v=105
208440 Off ch=9 n=60 v=64
208440 On ch=9 n=43 v=109
208560 Off ch=9 n=43 v=64
208560 On ch=9 n=62 v=99
208680 Off ch=9 n=62 v=64
208680 On ch=9 n=62 v=104
208800 Off ch=9 n=62 v=64
208800 On ch=9 n=43 v=105
208920 Off ch=9 n=43 v=64
208920 On ch=9 n=61 v=105
209040 Off ch=9 n=61 v=64
209040 On ch=9 n=61 v=110
209160 Off ch=9 n=61 v=64
209160 On ch=9 n=43 v=105
209280 Off ch=9 n=43 v=64
209280 On ch=9 n=60 v=98
209400 Off ch=9 n=60 v=64
209400 On ch=9 n=60 v=110
209520 Off ch=9 n=60 v=64
209520 On ch=9 n=43 v=109
209640 Off ch=9 n=43 v=64
209640 On ch=9 n=62 v=97
209760 Off ch=9 n=62 v=64
209760 On ch=9 n=62 v=105
209880 Off ch=9 n=62 v=64
209880 On ch=9 n=43 v=107
210000 Off ch=9 n=43 v=64
210000 On ch=9 n=61 v=110
210120 Off ch=9 n=61 v=64
210120 On ch=9 n=61 v=101
210240 Off ch=9 n=61 v=64
210240 On ch=9 n=43 v=105
210360 Off ch=9 n=43 v=64
210360 On ch=9 n=60 v=80
210600 Off ch=9 n=60 v=64
277080 PrCh ch=9 p=34
277080 On ch=9 n=30 v=83
277560 Off ch=9 n=30 v=64
277560 On ch=9 n=37 v=76
278040 Off ch=9 n=37 v=64
278040 On ch=9 n=42 v=79
278520 Off ch=9 n=42 v=64
279000 On ch=9 n=30 v=78
279480 Off ch=9 n=30 v=64
279480 On ch=9 n=37 v=79
279960 Off ch=9 n=37 v=64
279960 On ch=9 n=42 v=76
280440 Off ch=9 n=42 v=64
280920 On ch=9 n=57 v=78
281400 Off ch=9 n=57 v=64
281400 On ch=9 n=56 v=76
281640 Off ch=9 n=56 v=64
281640 On ch=9 n=54 v=78
281880 Off ch=9 n=54 v=64
281880 On ch=9 n=56 v=81
282360 Off ch=9 n=56 v=64
282360 On ch=9 n=52 v=86
282600 Off ch=9 n=52 v=64
282600 On ch=9 n=54 v=76
282840 Off ch=9 n=54 v=64
282840 On ch=9 n=30 v=82
283320 Off ch=9 n=30 v=64
283320 On ch=9 n=37 v=77
283800 Off ch=9 n=37 v=64
283800 On ch=9 n=42 v=81
284280 Off ch=9 n=42 v=64
284760 On ch=9 n=57 v=79
285240 Off ch=9 n=57 v=64
285240 On ch=9 n=56 v=87
285480 Off ch=9 n=56 v=64
285480 On ch=9 n=54 v=86
285720 Off ch=9 n=54 v=64
285720 On ch=9 n=56 v=81
286200 Off ch=9 n=56 v=64
286200 On ch=9 n=52 v=76
286440 Off ch=9 n=52 v=64
286440 On ch=9 n=54 v=82
286680 Off ch=9 n=54 v=64
286680 On ch=9 n=30 v=76
287160 Off ch=9 n=30 v=64
287160 On ch=9 n=37 v=77
287640 Off ch=9 n=37 v=64
287640 On ch=9 n=42 v=84
288120 Off ch=9 n=42 v=64
288600 On ch=9 n=57 v=83
289080 Off ch=9 n=57 v=64
289080 On ch=9 n=56 v=76
289320 Off ch=9 n=56 v=64
289320 On ch=9 n=54 v=76
289560 Off ch=9 n=54 v=64
289560 On ch=9 n=59 v=76
290040 Off ch=9 n=59 v=64
290040 On ch=9 n=52 v=87
290280 Off ch=9 n=52 v=64
290280 On ch=9 n=54 v=76
292440 Off ch=9 n=54 v=64
298080 On ch=9 n=30 v=83
298140 Off ch=9 n=30 v=64
298140 On ch=9 n=30 v=76
298200 Off ch=9 n=30 v=64
298200 On ch=9 n=30 v=82
298920 Off ch=9 n=30 v=64
300000 On ch=9 n=30 v=77
300060 Off ch=9 n=30 v=64
300060 On ch=9 n=30 v=80
300120 Off ch=9 n=30 v=64
300120 On ch=9 n=30 v=85
300840 Off ch=9 n=30 v=64
301920 On ch=9 n=30 v=81
301980 Off ch=9 n=30 v=64
301980 On ch=9 n=30 v=77
302040 Off ch=9 n=30 v=64
302040 On ch=9 n=30 v=83
302760 Off ch=9 n=30 v=64
334920 On ch=9 n=43 v=120
335040 Off ch=9 n=43 v=64
335040 On ch=9 n=43 v=112
335160 Off ch=9 n=43 v=64
335160 On ch=9 n=46 v=114
335400 Off ch=9 n=46 v=64
335400 On ch=9 n=43 v=108
335520 Off ch=9 n=43 v=64
335520 On ch=9 n=48 v=112
335640 Off ch=9 n=48 v=64
335640 On ch=9 n=46 v=106
335760 Off ch=9 n=46 v=64
335760 On ch=9 n=43 v=112
335880 Off ch=9 n=43 v=64
335880 On ch=9 n=49 v=110
336000 Off ch=9 n=49 v=64
336000 On ch=9 n=42 v=114
336120 Off ch=9 n=42 v=64
336120 On ch=9 n=43 v=112
336240 Off ch=9 n=43 v=64
336240 On ch=9 n=50 v=108
336360 Off ch=9 n=50 v=64
336360 On ch=9 n=49 v=112
336480 Off ch=9 n=49 v=64
336480 On ch=9 n=43 v=98
336600 Off ch=9 n=43 v=64
336600 On ch=9 n=49 v=112
336720 Off ch=9 n=49 v=64
336720 On ch=9 n=48 v=102
336840 Off ch=9 n=48 v=64
336840 On ch=9 n=46 v=112
336960 Off ch=9 n=46 v=64
336960 On ch=9 n=41 v=118
337080 Off ch=9 n=41 v=64
337080 On ch=9 n=42 v=120
343320 Off ch=9 n=42 v=64
346320 On ch=9 n=28 v=114
346440 Off ch=9 n=28 v=64
346440 On ch=9 n=28 v=96
346560 Off ch=9 n=28 v=64
346560 On ch=9 n=28 v=102
346680 Off ch=9 n=28 v=64
346680 On ch=9 n=35 v=110
346800 Off ch=9 n=35 v=64
346800 On ch=9 n=35 v=106
346920 Off ch=9 n=35 v=64
346920 On ch=9 n=35 v=106
347040 Off ch=9 n=35 v=64
347040 On ch=9 n=38 v=105
347160 Off ch=9 n=38 v=64
347160 On ch=9 n=38 v=111
347280 Off ch=9 n=38 v=64
347280 On ch=9 n=38 v=103
347400 Off ch=9 n=38 v=64
347400 On ch=9 n=35 v=100
347520 Off ch=9 n=35 v=64
347520 On ch=9 n=35 v=104
347640 Off ch=9 n=35 v=64
347640 On ch=9 n=28 v=107
347760 Off ch=9 n=28 v=64
347760 On ch=9 n=28 v=106
348120 Off ch=9 n=28 v=64
348120 On ch=9 n=45 v=109
348240 Off ch=9 n=45 v=64
348240 On ch=9 n=45 v=97
348360 Off ch=9 n=45 v=64
348480 On ch=9 n=44 v=107
348600 Off ch=9 n=44 v=64
348600 On ch=9 n=28 v=105
348720 Off ch=9 n=28 v=64
348720 On ch=9 n=28 v=106
348840 Off ch=9 n=28 v=64
348840 On ch=9 n=28 v=108
348960 Off ch=9 n=28 v=64
348960 On ch=9 n=28 v=106
349080 Off ch=9 n=28 v=64
349080 On ch=9 n=35 v=106
349200 Off ch=9 n=35 v=64
349200 On ch=9 n=35 v=108
349320 Off ch=9 n=35 v=64
349320 On ch=9 n=35 v=99
349440 Off ch=9 n=35 v=64
349440 On ch=9 n=38 v=103
349560 Off ch=9 n=38 v=64
349560 On ch=9 n=38 v=104
349680 Off ch=9 n=38 v=64
349680 On ch=9 n=38 v=110
349800 Off ch=9 n=38 v=64
349800 On ch=9 n=35 v=107
349920 Off ch=9 n=35 v=64
349920 On ch=9 n=35 v=111
350040 Off ch=9 n=35 v=64
350040 On ch=9 n=35 v=96
350160 Off ch=9 n=35 v=64
350160 On ch=9 n=28 v=102
350280 Off ch=9 n=28 v=64
350280 On ch=9 n=28 v=96
350400 Off ch=9 n=28 v=64
350400 On ch=9 n=28 v=110
350520 Off ch=9 n=28 v=64
350520 On ch=9 n=45 v=109
350640 Off ch=9 n=45 v=64
350640 On ch=9 n=45 v=100
350760 Off ch=9 n=45 v=64
350880 On ch=9 n=44 v=111
351000 Off ch=9 n=44 v=64
351000 On ch=9 n=44 v=108
351120 Off ch=9 n=44 v=64
351120 On ch=9 n=28 v=98
351240 Off ch=9 n=28 v=64
351240 On ch=9 n=28 v=105
351360 Off ch=9 n=28 v=64
351360 On ch=9 n=28 v=109
351480 Off ch=9 n=28 v=64
351480 On ch=9 n=35 v=103
351600 Off ch=9 n=35 v=64
351600 On ch=9 n=35 v=103
351720 Off ch=9 n=35 v=64
351720 On ch=9 n=35 v=104
351840 Off ch=9 n=35 v=64
351840 On ch=9 n=38 v=105
351960 Off ch=9 n=38 v=64
351960 On ch=9 n=38 v=110
352080 Off ch=9 n=38 v=64
352080 On ch=9 n=38 v=96
352200 Off ch=9 n=38 v=64
352200 On ch=9 n=35 v=109
352320 Off ch=9 n=35 v=64
352320 On ch=9 n=35 v=103
352440 Off ch=9 n=35 v=64
352440 On ch=9 n=35 v=105
352560 Off ch=9 n=35 v=64
352560 On ch=9 n=28 v=105
352680 Off ch=9 n=28 v=64
352680 On ch=9 n=28 v=100
352800 Off ch=9 n=28 v=64
352800 On ch=9 n=28 v=110
352920 Off ch=9 n=28 v=64
352920 On ch=9 n=45 v=96
353040 Off ch=9 n=45 v=64
353040 On ch=9 n=45 v=102
353160 Off ch=9 n=45 v=64
353280 On ch=9 n=44 v=108
353400 Off ch=9 n=44 v=64
353400 On ch=9 n=44 v=98
353520 Off ch=9 n=44 v=64
353520 On ch=9 n=28 v=108
353640 Off ch=9 n=28 v=64
353640 On ch=9 n=28 v=104
353760 Off ch=9 n=28 v=64
353760 On ch=9 n=28 v=100
353880 Off ch=9 n=28 v=64
353880 On ch=9 n=35 v=100
354000 Off ch=9 n=35 v=64
354000 On ch=9 n=35 v=110
354120 Off ch=9 n=35 v=64
354120 On ch=9 n=35 v=108
354240 Off ch=9 n=35 v=64
354240 On ch=9 n=38 v=101
354360 Off ch=9 n=38 v=64
354360 On ch=9 n=38 v=104
354480 Off ch=9 n=38 v=64
354480 On ch=9 n=38 v=111
354600 Off ch=9 n=38 v=64
354600 On ch=9 n=35 v=107
354720 Off ch=9 n=35 v=64
354720 On ch=9 n=35 v=106
354840 Off ch=9 n=35 v=64
354840 On ch=9 n=35 v=96
354960 Off ch=9 n=35 v=64
354960 On ch=9 n=28 v=96
355080 Off ch=9 n=28 v=64
355080 On ch=9 n=28 v=109
355200 Off ch=9 n=28 v=64
355200 On ch=9 n=28 v=97
355320 Off ch=9 n=28 v=64
355320 On ch=9 n=45 v=109
355440 Off ch=9 n=45 v=64
355440 On ch=9 n=45 v=96
355560 Off ch=9 n=45 v=64
355680 On ch=9 n=44 v=105
355800 Off ch=9 n=44 v=64
355800 On ch=9 n=44 v=104
355920 Off ch=9 n=44 v=64
355920 On ch=9 n=28 v=99
356040 Off ch=9 n=28 v=64
356040 On ch=9 n=28 v=98
356160 Off ch=9 n=28 v=64
356160 On ch=9 n=28 v=101
356280 Off ch=9 n=28 v=64
356280 On ch=9 n=35 v=102
356400 Off ch=9 n=35 v=64
356400 On ch=9 n=35 v=108
356520 Off ch=9 n=35 v=64
356520 On ch=9 n=35 v=101
356640 Off ch=9 n=35 v=64
356640 On ch=9 n=38 v=102
356760 Off ch=9 n=38 v=64
356760 On ch=9 n=38 v=108
356880 Off ch=9 n=38 v=64
356880 On ch=9 n=38 v=105
357000 Off ch=9 n=38 v=64
357000 On ch=9 n=35 v=105
357120 Off ch=9 n=35 v=64
357120 On ch=9 n=35 v=105
357240 Off ch=9 n=35 v=64
357240 On ch=9 n=35 v=102
357360 Off ch=9 n=35 v=64
357360 On ch=9 n=28 v=96
357480 Off ch=9 n=28 v=64
357480 On ch=9 n=28 v=108
357600 Off ch=9 n=28 v=64
357600 On ch=9 n=28 v=107
357720 Off ch=9 n=28 v=64
357720 On ch=9 n=45 v=99
357840 Off ch=9 n=45 v=64
357840 On ch=9 n=45 v=103
357960 Off ch=9 n=45 v=64
358080 On ch=9 n=44 v=102
358200 Off ch=9 n=44 v=64
358200 On ch=9 n=44 v=103
358320 Off ch=9 n=44 v=64
358320 On ch=9 n=28 v=102
358440 Off ch=9 n=28 v=64
358440 On ch=9 n=28 v=102
358560 Off ch=9 n=28 v=64
358560 On ch=9 n=28 v=104
358680 Off ch=9 n=28 v=64
358680 On ch=9 n=35 v=96
358800 Off ch=9 n=35 v=64
358800 On ch=9 n=35 v=111
358920 Off ch=9 n=35 v=64
358920 On ch=9 n=35 v=107
359040 Off ch=9 n=35 v=64
359040 On ch=9 n=38 v=99
359160 Off ch=9 n=38 v=64
359160 On ch=9 n=38 v=107
359280 Off ch=9 n=38 v=64
359280 On ch=9 n=38 v=102
359400 Off ch=9 n=38 v=64
359400 On ch=9 n=35 v=109
359520 Off ch=9 n=35 v=64
359520 On ch=9 n=35 v=97
359640 Off ch=9 n=35 v=64
359640 On ch=9 n=35 v=106
359760 Off ch=9 n=35 v=64
359760 On ch=9 n=28 v=96
359880 Off ch=9 n=28 v=64
359880 On ch=9 n=28 v=107
360000 Off ch=9 n=28 v=64
360000 On ch=9 n=28 v=107
360120 Off ch=9 n=28 v=64
360120 On ch=9 n=45 v=109
360240 Off ch=9 n=45 v=64
360240 On ch=9 n=45 v=104
360360 Off ch=9 n=45 v=64
360480 On ch=9 n=44 v=111
360600 Off ch=9 n=44 v=64
360600 On ch=9 n=44 v=109
360720 Off ch=9 n=44 v=64
360720 On ch=9 n=28 v=99
360840 Off ch=9 n=28 v=64
360840 On ch=9 n=28 v=99
360960 Off ch=9 n=28 v=64
360960 On ch=9 n=28 v=106
361080 Off ch=9 n=28 v=64
361080 On ch=9 n=35 v=103
361200 Off ch=9 n=35 v=64
361200 On ch=9 n=35 v=102
361320 Off ch=9 n=35 v=64
361320 On ch=9 n=35 v=111
361440 Off ch=9 n=35 v=64
361440 On ch=9 n=38 v=99
361560 Off ch=9 n=38 v=64
361560 On ch=9 n=38 v=109
361680 Off ch=9 n=38 v=64
361680 On ch=9 n=38 v=111
361800 Off ch=9 n=38 v=64
361800 On ch=9 n=35 v=98
361920 Off ch=9 n=35 v=64
361920 On ch=9 n=35 v=103
362040 Off ch=9 n=35 v=64
362040 On ch=9 n=35 v=104
362160 Off ch=9 n=35 v=64
362160 On ch=9 n=28 v=102
362280 Off ch=9 n=28 v=64
362280 On ch=9 n=28 v=100
362400 Off ch=9 n=28 v=64
362400 On ch=9 n=28 v=106
362520 Off ch=9 n=28 v=64
362520 On ch=9 n=45 v=101
362640 Off ch=9 n=45 v=64
362640 On ch=9 n=45 v=110
362760 Off ch=9 n=45 v=64
362880 On ch=9 n=44 v=105
363000 Off ch=9 n=44 v=64
363000 On ch=9 n=44 v=102
363120 Off ch=9 n=44 v=64
363120 On ch=9 n=28 v=106
363240 Off ch=9 n=28 v=64
363240 On ch=9 n=28 v=108
363360 Off ch=9 n=28 v=64
363360 On ch=9 n=28 v=105
363480 Off ch=9 n=28 v=64
363480 On ch=9 n=35 v=101
363600 Off ch=9 n=35 v=64
363600 On ch=9 n=35 v=100
363720 Off ch=9 n=35 v=64
363720 On ch=9 n=35 v=103
363840 Off ch=9 n=35 v=64
363840 On ch=9 n=38 v=102
363960 Off ch=9 n=38 v=64
363960 On ch=9 n=38 v=97
364080 Off ch=9 n=38 v=64
364080 On ch=9 n=38 v=97
364200 Off ch=9 n=38 v=64
364200 On ch=9 n=35 v=98
364320 Off ch=9 n=35 v=64
364320 On ch=9 n=35 v=105
364440 Off ch=9 n=35 v=64
364440 On ch=9 n=28 v=109
364560 Off ch=9 n=28 v=64
364560 On ch=9 n=28 v=102
364800 Off ch=9 n=28 v=64
364920 On ch=9 n=45 v=98
365040 Off ch=9 n=45 v=64
365040 On ch=9 n=45 v=109
365160 Off ch=9 n=45 v=64
365280 On ch=9 n=44 v=96
365400 Off ch=9 n=44 v=64
365400 On ch=9 n=44 v=98
365640 Off ch=9 n=44 v=64
365640 On ch=9 n=35 v=105
365760 Off ch=9 n=35 v=64
365760 On ch=9 n=40 v=111
365880 Off ch=9 n=40 v=64
365880 On ch=9 n=40 v=110
366000 Off ch=9 n=40 v=64
366000 On ch=9 n=40 v=98
366120 Off ch=9 n=40 v=64
366120 On ch=9 n=40 v=108
366240 Off ch=9 n=40 v=64
366240 On ch=9 n=43 v=110
366360 Off ch=9 n=43 v=64
366360 On ch=9 n=43 v=100
366480 Off ch=9 n=43 v=64
366480 On ch=9 n=43 v=97
366600 Off ch=9 n=43 v=64
366600 On ch=9 n=40 v=110
366720 Off ch=9 n=40 v=64
366720 On ch=9 n=40 v=111
366840 Off ch=9 n=40 v=64
366840 On ch=9 n=40 v=96
366960 Off ch=9 n=40 v=64
366960 On ch=9 n=33 v=98
367080 Off ch=9 n=33 v=64
367080 On ch=9 n=33 v=98
367200 Off ch=9 n=33 v=64
367200 On ch=9 n=33 v=98
367320 Off ch=9 n=33 v=64
367320 On ch=9 n=50 v=100
367440 Off ch=9 n=50 v=64
367440 On ch=9 n=50 v=106
367560 Off ch=9 n=50 v=64
367560 On ch=9 n=33 v=110
367680 Off ch=9 n=33 v=64
367680 On ch=9 n=49 v=98
367800 Off ch=9 n=49 v=64
367800 On ch=9 n=49 v=97
367920 Off ch=9 n=49 v=64
367920 On ch=9 n=33 v=108
368040 Off ch=9 n=33 v=64
368040 On ch=9 n=33 v=98
368160 Off ch=9 n=33 v=64
368160 On ch=9 n=33 v=111
368280 Off ch=9 n=33 v=64
368280 On ch=9 n=40 v=108
368400 Off ch=9 n=40 v=64
368400 On ch=9 n=40 v=109
368520 Off ch=9 n=40 v=64
368520 On ch=9 n=40 v=97
368640 Off ch=9 n=40 v=64
368640 On ch=9 n=43 v=102
368760 Off ch=9 n=43 v=64
368760 On ch=9 n=43 v=99
368880 Off ch=9 n=43 v=64
368880 On ch=9 n=43 v=99
369000 Off ch=9 n=43 v=64
369000 On ch=9 n=40 v=97
369120 Off ch=9 n=40 v=64
369120 On ch=9 n=40 v=108
369240 Off ch=9 n=40 v=64
369240 On ch=9 n=40 v=111
369360 Off ch=9 n=40 v=64
369360 On ch=9 n=33 v=111
369480 Off ch=9 n=33 v=64
369480 On ch=9 n=33 v=106
369600 Off ch=9 n=33 v=64
369600 On ch=9 n=33 v=100
369720 Off ch=9 n=33 v=64
369720 On ch=9 n=50 v=97
369840 Off ch=9 n=50 v=64
369840 On ch=9 n=50 v=111
369960 Off ch=9 n=50 v=64
369960 On ch=9 n=33 v=105
370080 Off ch=9 n=33 v=64
370080 On ch=9 n=49 v=105
370200 Off ch=9 n=49 v=64
370200 On ch=9 n=49 v=99
370320 Off ch=9 n=49 v=64
370320 On ch=9 n=33 v=111
370440 Off ch=9 n=33 v=64
370440 On ch=9 n=33 v=101
370560 Off ch=9 n=33 v=64
370560 On ch=9 n=33 v=111
370680 Off ch=9 n=33 v=64
370680 On ch=9 n=40 v=99
370800 Off ch=9 n=40 v=64
370800 On ch=9 n=40 v=96
370920 Off ch=9 n=40 v=64
370920 On ch=9 n=40 v=102
371040 Off ch=9 n=40 v=64
371040 On ch=9 n=43 v=101
371160 Off ch=9 n=43 v=64
371160 On ch=9 n=43 v=107
371280 Off ch=9 n=43 v=64
371280 On ch=9 n=43 v=102
371400 Off ch=9 n=43 v=64
371400 On ch=9 n=40 v=105
371520 Off ch=9 n=40 v=64
371520 On ch=9 n=40 v=105
371640 Off ch=9 n=40 v=64
371640 On ch=9 n=40 v=111
371760 Off ch=9 n=40 v=64
371760 On ch=9 n=33 v=101
371880 Off ch=9 n=33 v=64
371880 On ch=9 n=33 v=104
372000 Off ch=9 n=33 v=64
372000 On ch=9 n=33 v=100
372120 Off ch=9 n=33 v=64
372120 On ch=9 n=50 v=110
372240 Off ch=9 n=50 v=64
372240 On ch=9 n=50 v=106
372360 Off ch=9 n=50 v=64
372360 On ch=9 n=33 v=102
372480 Off ch=9 n=33 v=64
372480 On ch=9 n=49 v=103
372600 Off ch=9 n=49 v=64
372600 On ch=9 n=49 v=109
372720 Off ch=9 n=49 v=64
372720 On ch=9 n=33 v=106
372840 Off ch=9 n=33 v=64
372840 On ch=9 n=33 v=105
372960 Off ch=9 n=33 v=64
372960 On ch=9 n=33 v=97
373080 Off ch=9 n=33 v=64
373080 On ch=9 n=40 v=98
373200 Off ch=9 n=40 v=64
373200 On ch=9 n=40 v=100
373320 Off ch=9 n=40 v=64
373320 On ch=9 n=40 v=106
373440 Off ch=9 n=40 v=64
373440 On ch=9 n=43 v=110
373560 Off ch=9 n=43 v=64
373560 On ch=9 n=43 v=98
373680 Off ch=9 n=43 v=64
373680 On ch=9 n=43 v=105
373800 Off ch=9 n=43 v=64
373800 On ch=9 n=40 v=103
373920 Off ch=9 n=40 v=64
373920 On ch=9 n=40 v=109
374040 Off ch=9 n=40 v=64
374040 On ch=9 n=40 v=96
374160 Off ch=9 n=40 v=64
374160 On ch=9 n=33 v=104
374280 Off ch=9 n=33 v=64
374280 On ch=9 n=33 v=110
374400 Off ch=9 n=33 v=64
374400 On ch=9 n=33 v=104
374520 Off ch=9 n=33 v=64
374520 On ch=9 n=50 v=102
374640 Off ch=9 n=50 v=64
374640 On ch=9 n=50 v=99
374760 Off ch=9 n=50 v=64
374760 On ch=9 n=33 v=108
374880 Off ch=9 n=33 v=64
374880 On ch=9 n=49 v=104
375000 Off ch=9 n=49 v=64
375000 On ch=9 n=49 v=108
375120 Off ch=9 n=49 v=64
375120 On ch=9 n=33 v=104
375240 Off ch=9 n=33 v=64
375240 On ch=9 n=35 v=106
375360 Off ch=9 n=35 v=64
375360 On ch=9 n=35 v=106
375480 Off ch=9 n=35 v=64
375480 On ch=9 n=45 v=97
375600 Off ch=9 n=45 v=64
375600 On ch=9 n=45 v=101
375720 Off ch=9 n=45 v=64
375720 On ch=9 n=45 v=104
375840 Off ch=9 n=45 v=64
375840 On ch=9 n=48 v=106
375960 Off ch=9 n=48 v=64
375960 On ch=9 n=48 v=98
376080 Off ch=9 n=48 v=64
376080 On ch=9 n=48 v=99
376200 Off ch=9 n=48 v=64
376200 On ch=9 n=45 v=110
376320 Off ch=9 n=45 v=64
376320 On ch=9 n=45 v=98
376440 Off ch=9 n=45 v=64
376440 On ch=9 n=38 v=111
376560 Off ch=9 n=38 v=64
376560 On ch=9 n=38 v=98
376680 Off ch=9 n=38 v=64
376680 On ch=9 n=38 v=99
376800 Off ch=9 n=38 v=64
376800 On ch=9 n=38 v=99
376920 Off ch=9 n=38 v=64
376920 On ch=9 n=55 v=97
377040 Off ch=9 n=55 v=64
377040 On ch=9 n=38 v=99
377160 Off ch=9 n=38 v=64
377160 On ch=9 n=38 v=102
377280 Off ch=9 n=38 v=64
377280 On ch=9 n=54 v=97
377400 Off ch=9 n=54 v=64
377520 On ch=9 n=38 v=106
377640 Off ch=9 n=38 v=64
377640 On ch=9 n=38 v=111
377760 Off ch=9 n=38 v=64
377760 On ch=9 n=38 v=99
377880 Off ch=9 n=38 v=64
377880 On ch=9 n=45 v=100
378000 Off ch=9 n=45 v=64
378000 On ch=9 n=45 v=104
378120 Off ch=9 n=45 v=64
378120 On ch=9 n=45 v=109
378240 Off ch=9 n=45 v=64
378240 On ch=9 n=48 v=110
378360 Off ch=9 n=48 v=64
378360 On ch=9 n=48 v=100
378480 Off ch=9 n=48 v=64
378480 On ch=9 n=48 v=111
378600 Off ch=9 n=48 v=64
378600 On ch=9 n=45 v=110
378720 Off ch=9 n=45 v=64
378720 On ch=9 n=45 v=96
378840 Off ch=9 n=45 v=64
378840 On ch=9 n=38 v=106
378960 Off ch=9 n=38 v=64
378960 On ch=9 n=38 v=99
379080 Off ch=9 n=38 v=64
379080 On ch=9 n=38 v=100
379200 Off ch=9 n=38 v=64
379200 On ch=9 n=38 v=109
379320 Off ch=9 n=38 v=64
379320 On ch=9 n=55 v=100
379440 Off ch=9 n=55 v=64
379440 On ch=9 n=38 v=98
379560 Off ch=9 n=38 v=64
379560 On ch=9 n=38 v=100
379680 Off ch=9 n=38 v=64
379680 On ch=9 n=54 v=100
379800 Off ch=9 n=54 v=64
379920 On ch=9 n=38 v=106
380040 Off ch=9 n=38 v=64
380040 On ch=9 n=38 v=101
380160 Off ch=9 n=38 v=64
380160 On ch=9 n=38 v=99
380280 Off ch=9 n=38 v=64
380280 On ch=9 n=45 v=106
380400 Off ch=9 n=45 v=64
380400 On ch=9 n=45 v=111
380520 Off ch=9 n=45 v=64
380520 On ch=9 n=45 v=107
380640 Off ch=9 n=45 v=64
380640 On ch=9 n=48 v=102
380760 Off ch=9 n=48 v=64
380760 On ch=9 n=48 v=102
380880 Off ch=9 n=48 v=64
380880 On ch=9 n=48 v=96
381000 Off ch=9 n=48 v=64
381000 On ch=9 n=45 v=102
381120 Off ch=9 n=45 v=64
381120 On ch=9 n=45 v=107
381240 Off ch=9 n=45 v=64
381240 On ch=9 n=38 v=97
381360 Off ch=9 n=38 v=64
381360 On ch=9 n=38 v=109
381480 Off ch=9 n=38 v=64
381480 On ch=9 n=38 v=103
381600 Off ch=9 n=38 v=64
381600 On ch=9 n=38 v=106
381720 Off ch=9 n=38 v=64
381720 On ch=9 n=55 v=109
381840 Off ch=9 n=55 v=64
381840 On ch=9 n=38 v=101
381960 Off ch=9 n=38 v=64
381960 On ch=9 n=38 v=100
382080 Off ch=9 n=38 v=64
382080 On ch=9 n=54 v=103
382200 Off ch=9 n=54 v=64
382320 On ch=9 n=38 v=96
382440 Off ch=9 n=38 v=64
382440 On ch=9 n=38 v=98
382560 Off ch=9 n=38 v=64
382560 On ch=9 n=38 v=102
382680 Off ch=9 n=38 v=64
382680 On ch=9 n=45 v=101
382800 Off ch=9 n=45 v=64
382800 On ch=9 n=45 v=110
382920 Off ch=9 n=45 v=64
382920 On ch=9 n=45 v=97
383040 Off ch=9 n=45 v=64
383040 On ch=9 n=48 v=110
383160 Off ch=9 n=48 v=64
383160 On ch=9 n=48 v=109
383280 Off ch=9 n=48 v=64
383280 On ch=9 n=48 v=108
383400 Off ch=9 n=48 v=64
383400 On ch=9 n=45 v=103
383520 Off ch=9 n=45 v=64
383520 On ch=9 n=45 v=101
383640 Off ch=9 n=45 v=64
383640 On ch=9 n=38 v=105
383760 Off ch=9 n=38 v=64
383760 On ch=9 n=38 v=104
383880 Off ch=9 n=38 v=64
383880 On ch=9 n=38 v=109
384000 Off ch=9 n=38 v=64
384000 On ch=9 n=38 v=111
384120 Off ch=9 n=38 v=64
384120 On ch=9 n=55 v=104
384240 Off ch=9 n=55 v=64
384240 On ch=9 n=38 v=98
384360 Off ch=9 n=38 v=64
384360 On ch=9 n=38 v=104
384480 Off ch=9 n=38 v=64
384480 On ch=9 n=54 v=101
384600 Off ch=9 n=54 v=64
384720 On ch=9 n=38 v=108
384840 Off ch=9 n=38 v=64
384840 On ch=9 n=38 v=98
384960 Off ch=9 n=38 v=64
384960 On ch=9 n=38 v=98
385080 Off ch=9 n=38 v=64
385080 On ch=9 n=45 v=97
385200 Off ch=9 n=45 v=64
385200 On ch=9 n=45 v=103
385320 Off ch=9 n=45 v=64
385320 On ch=9 n=45 v=97
385440 Off ch=9 n=45 v=64
385440 On ch=9 n=48 v=110
385560 Off ch=9 n=48 v=64
385560 On ch=9 n=48 v=107
385680 Off ch=9 n=48 v=64
385680 On ch=9 n=48 v=103
385800 Off ch=9 n=48 v=64
385800 On ch=9 n=45 v=110
385920 Off ch=9 n=45 v=64
385920 On ch=9 n=45 v=106
386040 Off ch=9 n=45 v=64
386040 On ch=9 n=38 v=100
386160 Off ch=9 n=38 v=64
386160 On ch=9 n=38 v=109
386280 Off ch=9 n=38 v=64
386280 On ch=9 n=38 v=99
386400 Off ch=9 n=38 v=64
386400 On ch=9 n=38 v=108
386520 Off ch=9 n=38 v=64
386520 On ch=9 n=55 v=110
386640 Off ch=9 n=55 v=64
386640 On ch=9 n=38 v=103
386760 Off ch=9 n=38 v=64
386760 On ch=9 n=38 v=106
386880 Off ch=9 n=38 v=64
386880 On ch=9 n=54 v=109
387000 Off ch=9 n=54 v=64
387120 On ch=9 n=38 v=98
387240 Off ch=9 n=38 v=64
387240 On ch=9 n=38 v=101
387360 Off ch=9 n=38 v=64
387360 On ch=9 n=38 v=108
387480 Off ch=9 n=38 v=64
387480 On ch=9 n=45 v=99
387600 Off ch=9 n=45 v=64
387600 On ch=9 n=45 v=111
387720 Off ch=9 n=45 v=64
387720 On ch=9 n=45 v=99
387840 Off ch=9 n=45 v=64
387840 On ch=9 n=48 v=96
387960 Off ch=9 n=48 v=64
387960 On ch=9 n=48 v=105
388080 Off ch=9 n=48 v=64
388080 On ch=9 n=48 v=98
388200 Off ch=9 n=48 v=64
388200 On ch=9 n=45 v=101
388320 Off ch=9 n=45 v=64
388320 On ch=9 n=45 v=104
388440 Off ch=9 n=45 v=64
388440 On ch=9 n=38 v=101
388560 Off ch=9 n=38 v=64
388560 On ch=9 n=38 v=110
388680 Off ch=9 n=38 v=64
388680 On ch=9 n=38 v=106
388800 Off ch=9 n=38 v=64
388800 On ch=9 n=38 v=98
388920 Off ch=9 n=38 v=64
388920 On ch=9 n=55 v=98
389040 Off ch=9 n=55 v=64
389040 On ch=9 n=55 v=105
389160 Off ch=9 n=55 v=64
389160 On ch=9 n=55 v=103
389280 Off ch=9 n=55 v=64
389280 On ch=9 n=54 v=100
389640 Off ch=9 n=54 v=64
389640 On ch=9 n=32 v=96
389760 Off ch=9 n=32 v=64
389760 On ch=9 n=40 v=111
389880 Off ch=9 n=40 v=64
390000 On ch=9 n=33 v=101
390120 Off ch=9 n=33 v=64
390120 On ch=9 n=43 v=108
390240 Off ch=9 n=43 v=64
390240 On ch=9 n=43 v=102
390360 Off ch=9 n=43 v=64
390360 On ch=9 n=40 v=106
390480 Off ch=9 n=40 v=64
390480 On ch=9 n=40 v=99
390720 Off ch=9 n=40 v=64
390720 On ch=9 n=33 v=109
390840 Off ch=9 n=33 v=64
390840 On ch=9 n=33 v=97
390960 Off ch=9 n=33 v=64
390960 On ch=9 n=33 v=106
391080 Off ch=9 n=33 v=64
391080 On ch=9 n=50 v=103
391200 Off ch=9 n=50 v=64
391200 On ch=9 n=33 v=97
391320 Off ch=9 n=33 v=64
391320 On ch=9 n=33 v=107
391440 Off ch=9 n=33 v=64
391440 On ch=9 n=49 v=109
391560 Off ch=9 n=49 v=64
391680 On ch=9 n=33 v=105
391800 Off ch=9 n=33 v=64
391800 On ch=9 n=33 v=103
391920 Off ch=9 n=33 v=64
391920 On ch=9 n=33 v=106
392040 Off ch=9 n=33 v=64
392040 On ch=9 n=40 v=105
392160 Off ch=9 n=40 v=64
392160 On ch=9 n=33 v=107
392280 Off ch=9 n=33 v=64
392280 On ch=9 n=33 v=111
392400 Off ch=9 n=33 v=64
392400 On ch=9 n=43 v=107
392520 Off ch=9 n=43 v=64
392640 On ch=9 n=40 v=111
392760 Off ch=9 n=40 v=64
392760 On ch=9 n=40 v=110
392880 Off ch=9 n=40 v=64
392880 On ch=9 n=40 v=101
393000 Off ch=9 n=40 v=64
393000 On ch=9 n=33 v=105
393120 Off ch=9 n=33 v=64
393120 On ch=9 n=33 v=106
393240 Off ch=9 n=33 v=64
393240 On ch=9 n=33 v=103
393360 Off ch=9 n=33 v=64
393360 On ch=9 n=33 v=105
393480 Off ch=9 n=33 v=64
393480 On ch=9 n=50 v=99
393600 Off ch=9 n=50 v=64
393600 On ch=9 n=33 v=107
393720 Off ch=9 n=33 v=64
393720 On ch=9 n=33 v=100
393840 Off ch=9 n=33 v=64
393840 On ch=9 n=49 v=104
393960 Off ch=9 n=49 v=64
394080 On ch=9 n=33 v=96
394200 Off ch=9 n=33 v=64
394200 On ch=9 n=33 v=104
394320 Off ch=9 n=33 v=64
394320 On ch=9 n=33 v=98
394440 Off ch=9 n=33 v=64
394440 On ch=9 n=40 v=101
394560 Off ch=9 n=40 v=64
394560 On ch=9 n=33 v=103
394680 Off ch=9 n=33 v=64
394680 On ch=9 n=33 v=111
394800 Off ch=9 n=33 v=64
394800 On ch=9 n=43 v=109
394920 Off ch=9 n=43 v=64
395040 On ch=9 n=40 v=108
395160 Off ch=9 n=40 v=64
395160 On ch=9 n=40 v=102
395280 Off ch=9 n=40 v=64
395280 On ch=9 n=40 v=104
395400 Off ch=9 n=40 v=64
395400 On ch=9 n=33 v=102
395520 Off ch=9 n=33 v=64
395520 On ch=9 n=33 v=109
395640 Off ch=9 n=33 v=64
395640 On ch=9 n=33 v=109
395760 Off ch=9 n=33 v=64
395760 On ch=9 n=33 v=100
395880 Off ch=9 n=33 v=64
395880 On ch=9 n=50 v=103
396000 Off ch=9 n=50 v=64
396000 On ch=9 n=33 v=102
396120 Off ch=9 n=33 v=64
396120 On ch=9 n=33 v=106
396240 Off ch=9 n=33 v=64
396240 On ch=9 n=49 v=107
396360 Off ch=9 n=49 v=64
396480 On ch=9 n=33 v=107
396600 Off ch=9 n=33 v=64
396600 On ch=9 n=33 v=102
396720 Off ch=9 n=33 v=64
396720 On ch=9 n=33 v=111
396840 Off ch=9 n=33 v=64
396840 On ch=9 n=40 v=96
396960 Off ch=9 n=40 v=64
396960 On ch=9 n=33 v=97
397080 Off ch=9 n=33 v=64
397080 On ch=9 n=33 v=110
397200 Off ch=9 n=33 v=64
397200 On ch=9 n=43 v=98
397320 Off ch=9 n=43 v=64
397440 On ch=9 n=40 v=97
397560 Off ch=9 n=40 v=64
397560 On ch=9 n=40 v=103
397680 Off ch=9 n=40 v=64
397680 On ch=9 n=40 v=103
397800 Off ch=9 n=40 v=64
397800 On ch=9 n=33 v=108
397920 Off ch=9 n=33 v=64
397920 On ch=9 n=33 v=110
398040 Off ch=9 n=33 v=64
398040 On ch=9 n=33 v=110
398160 Off ch=9 n=33 v=64
398160 On ch=9 n=33 v=110
398280 Off ch=9 n=33 v=64
398280 On ch=9 n=50 v=103
398400 Off ch=9 n=50 v=64
398400 On ch=9 n=33 v=109
398520 Off ch=9 n=33 v=64
398520 On ch=9 n=33 v=101
398640 Off ch=9 n=33 v=64
398640 On ch=9 n=49 v=108
398760 Off ch=9 n=49 v=64
398880 On ch=9 n=33 v=107
399000 Off ch=9 n=33 v=64
399000 On ch=9 n=33 v=103
399120 Off ch=9 n=33 v=64
399120 On ch=9 n=33 v=99
399240 Off ch=9 n=33 v=64
399240 On ch=9 n=40 v=103
399360 Off ch=9 n=40 v=64
399360 On ch=9 n=33 v=110
399480 Off ch=9 n=33 v=64
399480 On ch=9 n=33 v=111
399600 Off ch=9 n=33 v=64
399600 On ch=9 n=43 v=103
399720 Off ch=9 n=43 v=64
399840 On ch=9 n=40 v=101
399960 Off ch=9 n=40 v=64
399960 On ch=9 n=40 v=106
400080 Off ch=9 n=40 v=64
400080 On ch=9 n=40 v=110
400200 Off ch=9 n=40 v=64
400200 On ch=9 n=33 v=106
400320 Off ch=9 n=33 v=64
400320 On ch=9 n=33 v=107
400440 Off ch=9 n=33 v=64
400440 On ch=9 n=33 v=107
400560 Off ch=9 n=33 v=64
400560 On ch=9 n=33 v=98
400680 Off ch=9 n=33 v=64
400680 On ch=9 n=50 v=101
400800 Off ch=9 n=50 v=64
400800 On ch=9 n=33 v=109
400920 Off ch=9 n=33 v=64
400920 On ch=9 n=33 v=98
401040 Off ch=9 n=33 v=64
401040 On ch=9 n=49 v=96
401160 Off ch=9 n=49 v=64
401280 On ch=9 n=33 v=100
401400 Off ch=9 n=33 v=64
401400 On ch=9 n=33 v=102
401520 Off ch=9 n=33 v=64
401520 On ch=9 n=33 v=110
401640 Off ch=9 n=33 v=64
401640 On ch=9 n=40 v=111
401760 Off ch=9 n=40 v=64
401760 On ch=9 n=33 v=111
401880 Off ch=9 n=33 v=64
401880 On ch=9 n=33 v=107
402000 Off ch=9 n=33 v=64
402000 On ch=9 n=43 v=109
402120 Off ch=9 n=43 v=64
402240 On ch=9 n=40 v=105
402360 Off ch=9 n=40 v=64
402360 On ch=9 n=40 v=108
402480 Off ch=9 n=40 v=64
402480 On ch=9 n=40 v=99
402600 Off ch=9 n=40 v=64
402600 On ch=9 n=33 v=98
402720 Off ch=9 n=33 v=64
402720 On ch=9 n=33 v=106
402840 Off ch=9 n=33 v=64
402840 On ch=9 n=33 v=108
402960 Off ch=9 n=33 v=64
402960 On ch=9 n=33 v=99
403080 Off ch=9 n=33 v=64
403080 On ch=9 n=50 v=111
403200 Off ch=9 n=50 v=64
403200 On ch=9 n=33 v=101
403320 Off ch=9 n=33 v=64
403320 On ch=9 n=33 v=107
403440 Off ch=9 n=33 v=64
403440 On ch=9 n=49 v=104
403560 Off ch=9 n=49 v=64
403680 On ch=9 n=33 v=98
403800 Off ch=9 n=33 v=64
403800 On ch=9 n=33 v=111
403920 Off ch=9 n=33 v=64
403920 On ch=9 n=33 v=110
404040 Off ch=9 n=33 v=64
404040 On ch=9 n=40 v=111
404160 Off ch=9 n=40 v=64
404160 On ch=9 n=33 v=99
404280 Off ch=9 n=33 v=64
404280 On ch=9 n=33 v=110
404400 Off ch=9 n=33 v=64
404400 On ch=9 n=43 v=108
404520 Off ch=9 n=43 v=64
404640 On ch=9 n=40 v=106
404760 Off ch=9 n=40 v=64
404760 On ch=9 n=40 v=103
404880 Off ch=9 n=40 v=64
404880 On ch=9 n=40 v=101
405000 Off ch=9 n=40 v=64
405000 On ch=9 n=33 v=100
405120 Off ch=9 n=33 v=64
405120 On ch=9 n=33 v=110
405240 Off ch=9 n=33 v=64
405240 On ch=9 n=33 v=100
405360 Off ch=9 n=33 v=64
405360 On ch=9 n=33 v=108
405480 Off ch=9 n=33 v=64
405480 On ch=9 n=50 v=97
405600 Off ch=9 n=50 v=64
405600 On ch=9 n=33 v=108
405720 Off ch=9 n=33 v=64
405720 On ch=9 n=33 v=104
405840 Off ch=9 n=33 v=64
405840 On ch=9 n=49 v=96
405960 Off ch=9 n=49 v=64
406080 On ch=9 n=33 v=105
406200 Off ch=9 n=33 v=64
406200 On ch=9 n=33 v=101
406320 Off ch=9 n=33 v=64
406320 On ch=9 n=33 v=106
406440 Off ch=9 n=33 v=64
406440 On ch=9 n=40 v=101
406560 Off ch=9 n=40 v=64
406560 On ch=9 n=33 v=110
406680 Off ch=9 n=33 v=64
406680 On ch=9 n=33 v=100
406800 Off ch=9 n=33 v=64
406800 On ch=9 n=43 v=103
406920 Off ch=9 n=43 v=64
407040 On ch=9 n=40 v=103
407160 Off ch=9 n=40 v=64
407160 On ch=9 n=40 v=106
407280 Off ch=9 n=40 v=64
407280 On ch=9 n=40 v=96
407400 Off ch=9 n=40 v=64
407400 On ch=9 n=33 v=99
407520 Off ch=9 n=33 v=64
407520 On ch=9 n=33 v=100
407640 Off ch=9 n=33 v=64
407640 On ch=9 n=33 v=99
407760 Off ch=9 n=33 v=64
407760 On ch=9 n=33 v=100
407880 Off ch=9 n=33 v=64
407880 On ch=9 n=50 v=118
408000 Off ch=9 n=50 v=64
408000 On ch=9 n=33 v=120
408120 Off ch=9 n=33 v=64
408120 On ch=9 n=33 v=121
408240 Off ch=9 n=33 v=64
408240 On ch=9 n=33 v=122
408360 Off ch=9 n=33 v=64
417000 On ch=9 n=33 v=105
417000 On ch=9 n=38 v=106
417240 Off ch=9 n=33 v=64
417240 Off ch=9 n=38 v=64
417240 On ch=9 n=39 v=118
417600 Off ch=9 n=39 v=64
417720 On ch=9 n=29 v=107
417960 Off ch=9 n=29 v=64
418080 On ch=9 n=36 v=110
418200 Off ch=9 n=36 v=64
418440 On ch=9 n=39 v=106
418680 Off ch=9 n=39 v=64
418800 On ch=9 n=36 v=113
418920 Off ch=9 n=36 v=64
419160 On ch=9 n=34 v=115
419400 Off ch=9 n=34 v=64
419520 On ch=9 n=33 v=111
419640 Off ch=9 n=33 v=64
419880 On ch=9 n=38 v=104
420120 Off ch=9 n=38 v=64
420120 On ch=9 n=39 v=116
420360 Off ch=9 n=39 v=64
420360 On ch=9 n=28 v=110
420600 Off ch=9 n=28 v=64
420600 On ch=9 n=29 v=113
420840 Off ch=9 n=29 v=64
420960 On ch=9 n=36 v=112
421080 Off ch=9 n=36 v=64
421320 On ch=9 n=39 v=118
421560 Off ch=9 n=39 v=64
421680 On ch=9 n=36 v=107
421800 Off ch=9 n=36 v=64
422040 On ch=9 n=34 v=112
422280 Off ch=9 n=34 v=64
422400 On ch=9 n=33 v=105
422520 Off ch=9 n=33 v=64
422760 On ch=9 n=38 v=106
423000 Off ch=9 n=38 v=64
423000 On ch=9 n=39 v=110
423240 Off ch=9 n=39 v=64
423240 On ch=9 n=28 v=117
423480 Off ch=9 n=28 v=64
423480 On ch=9 n=29 v=105
423720 Off ch=9 n=29 v=64
423840 On ch=9 n=36 v=118
423960 Off ch=9 n=36 v=64
424200 On ch=9 n=39 v=106
424440 Off ch=9 n=39 v=64
424560 On ch=9 n=36 v=114
424680 Off ch=9 n=36 v=64
424920 On ch=9 n=34 v=116
425160 Off ch=9 n=34 v=64
425280 On ch=9 n=33 v=113
425400 Off ch=9 n=33 v=64
425640 On ch=9 n=38 v=113
425880 Off ch=9 n=38 v=64
425880 On ch=9 n=39 v=107
426120 Off ch=9 n=39 v=64
426120 On ch=9 n=28 v=106
426360 Off ch=9 n=28 v=64
426360 On ch=9 n=29 v=115
426600 Off ch=9 n=29 v=64
426720 On ch=9 n=36 v=118
426840 Off ch=9 n=36 v=64
427080 On ch=9 n=39 v=107
427320 Off ch=9 n=39 v=64
427440 On ch=9 n=36 v=105
427560 Off ch=9 n=36 v=64
427800 On ch=9 n=34 v=117
428040 Off ch=9 n=34 v=64
428160 On ch=9 n=33 v=111
428280 Off ch=9 n=33 v=64
428520 On ch=9 n=38 v=114
428760 Off ch=9 n=38 v=64
428760 On ch=9 n=39 v=114
429000 Off ch=9 n=39 v=64
429000 On ch=9 n=28 v=117
429240 Off ch=9 n=28 v=64
429240 On ch=9 n=29 v=114
429480 Off ch=9 n=29 v=64
429600 On ch=9 n=36 v=112
429720 Off ch=9 n=36 v=64
429960 On ch=9 n=39 v=112
430200 Off ch=9 n=39 v=64
430320 On ch=9 n=36 v=117
430440 Off ch=9 n=36 v=64
430680 On ch=9 n=34 v=107
430920 Off ch=9 n=34 v=64
431040 On ch=9 n=33 v=107
431160 Off ch=9 n=33 v=64
431400 On ch=9 n=38 v=118
431640 Off ch=9 n=38 v=64
431640 On ch=9 n=39 v=110
431880 Off ch=9 n=39 v=64
431880 On ch=9 n=28 v=118
432120 Off ch=9 n=28 v=64
432120 On ch=9 n=29 v=105
432360 Off ch=9 n=29 v=64
432480 On ch=9 n=36 v=110
432600 Off ch=9 n=36 v=64
432840 On ch=9 n=39 v=110
433080 Off ch=9 n=39 v=64
433200 On ch=9 n=36 v=116
433320 Off ch=9 n=36 v=64
433560 On ch=9 n=34 v=114
433800 Off ch=9 n=34 v=64
433920 On ch=9 n=33 v=107
434040 Off ch=9 n=33 v=64
434280 On ch=9 n=38 v=110
434520 Off ch=9 n=38 v=64
434520 On ch=9 n=39 v=112
434760 Off ch=9 n=39 v=64
434760 On ch=9 n=28 v=111
435000 Off ch=9 n=28 v=64
435000 On ch=9 n=29 v=115
435240 Off ch=9 n=29 v=64
435360 On ch=9 n=36 v=108
435480 Off ch=9 n=36 v=64
435720 On ch=9 n=39 v=116
435960 Off ch=9 n=39 v=64
436080 On ch=9 n=36 v=107
436200 Off ch=9 n=36 v=64
436440 On ch=9 n=34 v=115
436680 Off ch=9 n=34 v=64
436800 On ch=9 n=33 v=109
436920 Off ch=9 n=33 v=64
437160 On ch=9 n=38 v=113
437400 Off ch=9 n=38 v=64
437400 On ch=9 n=39 v=104
437640 Off ch=9 n=39 v=64
437640 On ch=9 n=28 v=110
437880 Off ch=9 n=28 v=64
437880 On ch=9 n=29 v=109
438120 Off ch=9 n=29 v=64
438240 On ch=9 n=36 v=111
438360 Off ch=9 n=36 v=64
438600 On ch=9 n=39 v=107
438840 Off ch=9 n=39 v=64
438960 On ch=9 n=36 v=112
439080 Off ch=9 n=36 v=64
439320 On ch=9 n=34 v=114
439560 Off ch=9 n=34 v=64
439680 On ch=9 n=33 v=111
439800 Off ch=9 n=33 v=64
440040 On ch=9 n=38 v=113
440280 Off ch=9 n=38 v=64
440280 On ch=9 n=39 v=115
440520 Off ch=9 n=39 v=64
440520 On ch=9 n=28 v=116
440760 Off ch=9 n=28 v=64
440760 On ch=9 n=29 v=117
441000 Off ch=9 n=29 v=64
441120 On ch=9 n=36 v=107
441240 Off ch=9 n=36 v=64
441480 On ch=9 n=39 v=117
441720 Off ch=9 n=39 v=64
441840 On ch=9 n=36 v=116
441960 Off ch=9 n=36 v=64
442200 On ch=9 n=34 v=104
442440 Off ch=9 n=34 v=64
442560 On ch=9 n=33 v=108
442680 Off ch=9 n=33 v=64
442920 On ch=9 n=38 v=108
443160 Off ch=9 n=38 v=64
443160 On ch=9 n=39 v=109
443400 Off ch=9 n=39 v=64
443400 On ch=9 n=28 v=105
443640 Off ch=9 n=28 v=64
443640 On ch=9 n=29 v=116
443880 Off ch=9 n=29 v=64
444000 On ch=9 n=36 v=116
444120 Off ch=9 n=36 v=64
444360 On ch=9 n=39 v=112
444600 Off ch=9 n=39 v=64
444720 On ch=9 n=36 v=112
444840 Off ch=9 n=36 v=64
445080 On ch=9 n=34 v=114
445320 Off ch=9 n=34 v=64
445440 On ch=9 n=33 v=113
445560 Off ch=9 n=33 v=64
445800 On ch=9 n=38 v=118
446040 Off ch=9 n=38 v=64
446040 On ch=9 n=39 v=104
446280 Off ch=9 n=39 v=64
446280 On ch=9 n=28 v=115
446520 Off ch=9 n=28 v=64
446520 On ch=9 n=29 v=112
446760 Off ch=9 n=29 v=64
446880 On ch=9 n=36 v=117
447000 Off ch=9 n=36 v=64
447240 On ch=9 n=39 v=118
447480 Off ch=9 n=39 v=64
447600 On ch=9 n=36 v=105
447720 Off ch=9 n=36 v=64
447960 On ch=9 n=34 v=111
448200 Off ch=9 n=34 v=64
448320 On ch=9 n=33 v=111
448440 Off ch=9 n=33 v=64
448680 On ch=9 n=38 v=111
448920 Off ch=9 n=38 v=64
448920 On ch=9 n=39 v=113
449160 Off ch=9 n=39 v=64
449160 On ch=9 n=28 v=106
449400 Off ch=9 n=28 v=64
449400 On ch=9 n=29 v=118
449640 Off ch=9 n=29 v=64
449640 On ch=9 n=36 v=107
449760 Off ch=9 n=36 v=64
449760 On ch=9 n=36 v=115
449880 Off ch=9 n=36 v=64
449880 On ch=9 n=38 v=113
450000 Off ch=9 n=38 v=64
450000 On ch=9 n=38 v=109
450120 Off ch=9 n=38 v=64
450120 On ch=9 n=39 v=115
450360 Off ch=9 n=39 v=64
450360 On ch=9 n=33 v=104
450480 Off ch=9 n=33 v=64
450480 On ch=9 n=36 v=109
450600 Off ch=9 n=36 v=64
450600 On ch=9 n=36 v=106
450840 Off ch=9 n=36 v=64
450840 On ch=9 n=34 v=118
451080 Off ch=9 n=34 v=64
451080 On ch=9 n=33 v=107
451320 Off ch=9 n=33 v=64
451320 On ch=9 n=33 v=116
451440 Off ch=9 n=33 v=64
451440 On ch=9 n=33 v=108
451560 Off ch=9 n=33 v=64
451560 On ch=9 n=33 v=117
451800 Off ch=9 n=33 v=64
451800 On ch=9 n=36 v=113
452040 Off ch=9 n=36 v=64
452040 On ch=9 n=38 v=105
452280 Off ch=9 n=38 v=64
452280 On ch=9 n=29 v=111
452400 Off ch=9 n=29 v=64
452520 On ch=9 n=36 v=115
452640 Off ch=9 n=36 v=64
452640 On ch=9 n=36 v=104
452760 Off ch=9 n=36 v=64
452760 On ch=9 n=36 v=115
453000 Off ch=9 n=36 v=64
453000 On ch=9 n=39 v=109
453240 Off ch=9 n=39 v=64
453240 On ch=9 n=34 v=112
453360 Off ch=9 n=34 v=64
453360 On ch=9 n=36 v=112
453480 Off ch=9 n=36 v=64
453480 On ch=9 n=36 v=111
453720 Off ch=9 n=36 v=64
453720 On ch=9 n=36 v=118
453960 Off ch=9 n=36 v=64
453960 On ch=9 n=36 v=113
454080 Off ch=9 n=36 v=64
454080 On ch=9 n=36 v=114
454200 Off ch=9 n=36 v=64
454200 On ch=9 n=36 v=104
454440 Off ch=9 n=36 v=64
454440 On ch=9 n=36 v=110
454560 Off ch=9 n=36 v=64
454560 On ch=9 n=38 v=116
454680 Off ch=9 n=38 v=64
454680 On ch=9 n=39 v=116
454920 Off ch=9 n=39 v=64
454920 On ch=9 n=28 v=111
455160 Off ch=9 n=28 v=64
455160 On ch=9 n=29 v=112
455400 Off ch=9 n=29 v=64
455520 On ch=9 n=36 v=114
455640 Off ch=9 n=36 v=64
455640 On ch=9 n=36 v=105
455760 Off ch=9 n=36 v=64
455880 On ch=9 n=39 v=105
456120 Off ch=9 n=39 v=64
456120 On ch=9 n=34 v=109
456240 Off ch=9 n=34 v=64
456240 On ch=9 n=36 v=118
456360 Off ch=9 n=36 v=64
456360 On ch=9 n=36 v=113
456600 Off ch=9 n=36 v=64
456600 On ch=9 n=34 v=111
456840 Off ch=9 n=34 v=64
456840 On ch=9 n=33 v=113
457080 Off ch=9 n=33 v=64
457200 On ch=9 n=38 v=110
457440 Off ch=9 n=38 v=64
457560 On ch=9 n=39 v=107
457800 Off ch=9 n=39 v=64
457800 On ch=9 n=28 v=117
458040 Off ch=9 n=28 v=64
458040 On ch=9 n=29 v=106
458160 Off ch=9 n=29 v=64
458160 On ch=9 n=29 v=110
458280 Off ch=9 n=29 v=64
458280 On ch=9 n=36 v=109
458400 Off ch=9 n=36 v=64
458400 On ch=9 n=36 v=106
458520 Off ch=9 n=36 v=64
458520 On ch=9 n=36 v=118
458640 Off ch=9 n=36 v=64
458640 On ch=9 n=38 v=111
458760 Off ch=9 n=38 v=64
458760 On ch=9 n=39 v=108
458880 Off ch=9 n=39 v=64
458880 On ch=9 n=33 v=110
459000 Off ch=9 n=33 v=64
459000 On ch=9 n=36 v=118
459120 Off ch=9 n=36 v=64
459120 On ch=9 n=36 v=111
459240 Off ch=9 n=36 v=64
459240 On ch=9 n=36 v=108
459360 Off ch=9 n=36 v=64
459480 On ch=9 n=34 v=110
459600 Off ch=9 n=34 v=64
459600 On ch=9 n=34 v=107
459720 Off ch=9 n=34 v=64
459840 On ch=9 n=33 v=115
459960 Off ch=9 n=33 v=64
459960 On ch=9 n=38 v=118
460080 Off ch=9 n=38 v=64
460080 On ch=9 n=38 v=110
460320 Off ch=9 n=38 v=64
460320 On ch=9 n=39 v=118
460560 Off ch=9 n=39 v=64
460560 On ch=9 n=28 v=108
460800 Off ch=9 n=28 v=64
460920 On ch=9 n=29 v=113
461040 Off ch=9 n=29 v=64
461040 On ch=9 n=29 v=106
461160 Off ch=9 n=29 v=64
461160 On ch=9 n=36 v=114
461280 Off ch=9 n=36 v=64
461280 On ch=9 n=36 v=118
461400 Off ch=9 n=36 v=64
461400 On ch=9 n=36 v=117
461520 Off ch=9 n=36 v=64
461520 On ch=9 n=38 v=105
461640 Off ch=9 n=38 v=64
461640 On ch=9 n=39 v=116
461760 Off ch=9 n=39 v=64
461760 On ch=9 n=33 v=115
461880 Off ch=9 n=33 v=64
461880 On ch=9 n=36 v=113
462000 Off ch=9 n=36 v=64
462000 On ch=9 n=36 v=105
462120 Off ch=9 n=36 v=64
462120 On ch=9 n=36 v=114
462240 Off ch=9 n=36 v=64
462360 On ch=9 n=34 v=116
462480 Off ch=9 n=34 v=64
462480 On ch=9 n=34 v=116
462600 Off ch=9 n=34 v=64
462720 On ch=9 n=33 v=115
462840 Off ch=9 n=33 v=64
462840 On ch=9 n=38 v=108
462960 Off ch=9 n=38 v=64
462960 On ch=9 n=38 v=104
463200 Off ch=9 n=38 v=64
463200 On ch=9 n=39 v=115
463440 Off ch=9 n=39 v=64
463440 On ch=9 n=28 v=118
463680 Off ch=9 n=28 v=64
463800 On ch=9 n=29 v=112
463920 Off ch=9 n=29 v=64
463920 On ch=9 n=29 v=116
464040 Off ch=9 n=29 v=64
464040 On ch=9 n=36 v=118
464160 Off ch=9 n=36 v=64
464160 On ch=9 n=36 v=104
464280 Off ch=9 n=36 v=64
464280 On ch=9 n=36 v=104
464400 Off ch=9 n=36 v=64
464400 On ch=9 n=38 v=112
464520 Off ch=9 n=38 v=64
464520 On ch=9 n=39 v=110
464640 Off ch=9 n=39 v=64
464640 On ch=9 n=33 v=118
464760 Off ch=9 n=33 v=64
464760 On ch=9 n=36 v=115
464880 Off ch=9 n=36 v=64
464880 On ch=9 n=36 v=104
465000 Off ch=9 n=36 v=64
465000 On ch=9 n=36 v=115
465120 Off ch=9 n=36 v=64
465240 On ch=9 n=34 v=118
465360 Off ch=9 n=34 v=64
465360 On ch=9 n=34 v=108
465480 Off ch=9 n=34 v=64
465600 On ch=9 n=33 v=116
465720 Off ch=9 n=33 v=64
465720 On ch=9 n=38 v=115
465840 Off ch=9 n=38 v=64
465840 On ch=9 n=38 v=115
466080 Off ch=9 n=38 v=64
466080 On ch=9 n=39 v=107
466320 Off ch=9 n=39 v=64
466320 On ch=9 n=28 v=117
466560 Off ch=9 n=28 v=64
466680 On ch=9 n=29 v=105
466800 Off ch=9 n=29 v=64
466800 On ch=9 n=29 v=110
466920 Off ch=9 n=29 v=64
466920 On ch=9 n=36 v=112
467040 Off ch=9 n=36 v=64
467040 On ch=9 n=36 v=112
467160 Off ch=9 n=36 v=64
467160 On ch=9 n=36 v=108
467280 Off ch=9 n=36 v=64
467280 On ch=9 n=38 v=115
467400 Off ch=9 n=38 v=64
467400 On ch=9 n=39 v=118
467520 Off ch=9 n=39 v=64
467520 On ch=9 n=33 v=116
467640 Off ch=9 n=33 v=64
467640 On ch=9 n=36 v=117
467760 Off ch=9 n=36 v=64
467760 On ch=9 n=36 v=118
467880 Off ch=9 n=36 v=64
467880 On ch=9 n=36 v=110
468000 Off ch=9 n=36 v=64
468120 On ch=9 n=34 v=113
468240 Off ch=9 n=34 v=64
468240 On ch=9 n=34 v=115
468360 Off ch=9 n=34 v=64
468480 On ch=9 n=33 v=116
468600 Off ch=9 n=33 v=64
468600 On ch=9 n=38 v=112
468720 Off ch=9 n=38 v=64
468720 On ch=9 n=38 v=117
468960 Off ch=9 n=38 v=64
468960 On ch=9 n=39 v=114
469200 Off ch=9 n=39 v=64
469200 On ch=9 n=28 v=118
469440 Off ch=9 n=28 v=64
469560 On ch=9 n=29 v=115
469680 Off ch=9 n=29 v=64
469680 On ch=9 n=29 v=106
469800 Off ch=9 n=29 v=64
469800 On ch=9 n=36 v=111
469920 Off ch=9 n=36 v=64
469920 On ch=9 n=36 v=104
470040 Off ch=9 n=36 v=64
470040 On ch=9 n=36 v=114
470160 Off ch=9 n=36 v=64
470160 On ch=9 n=38 v=115
470280 Off ch=9 n=38 v=64
470280 On ch=9 n=39 v=104
470400 Off ch=9 n=39 v=64
470400 On ch=9 n=33 v=118
470520 Off ch=9 n=33 v=64
470520 On ch=9 n=36 v=112
470640 Off ch=9 n=36 v=64
470640 On ch=9 n=36 v=107
470760 Off ch=9 n=36 v=64
470760 On ch=9 n=36 v=118
470880 Off ch=9 n=36 v=64
471000 On ch=9 n=34 v=111
471120 Off ch=9 n=34 v=64
471120 On ch=9 n=34 v=117
471240 Off ch=9 n=34 v=64
471360 On ch=9 n=33 v=111
471480 Off ch=9 n=33 v=64
471480 On ch=9 n=38 v=112
471600 Off ch=9 n=38 v=64
471600 On ch=9 n=38 v=107
471840 Off ch=9 n=38 v=64
471840 On ch=9 n=39 v=118
472080 Off ch=9 n=39 v=64
472080 On ch=9 n=28 v=111
472320 Off ch=9 n=28 v=64
472440 On ch=9 n=29 v=110
472560 Off ch=9 n=29 v=64
472560 On ch=9 n=29 v=105
472680 Off ch=9 n=29 v=64
472680 On ch=9 n=36 v=107
472800 Off ch=9 n=36 v=64
472800 On ch=9 n=36 v=118
472920 Off ch=9 n=36 v=64
472920 On ch=9 n=36 v=105
473040 Off ch=9 n=36 v=64
473160 On ch=9 n=39 v=115
473400 Off ch=9 n=39 v=64
473520 On ch=9 n=36 v=118
473640 Off ch=9 n=36 v=64
473640 On ch=9 n=36 v=108
473880 Off ch=9 n=36 v=64
473880 On ch=9 n=34 v=104
474000 Off ch=9 n=34 v=64
474240 On ch=9 n=38 v=118
474360 Off ch=9 n=38 v=64
474600 On ch=9 n=39 v=106
474840 Off ch=9 n=39 v=64
474840 On ch=9 n=40 v=108
475200 Off ch=9 n=40 v=64
475320 On ch=9 n=47 v=118
475440 Off ch=9 n=47 v=64
475440 On ch=9 n=46 v=107
475560 Off ch=9 n=46 v=64
475560 On ch=9 n=44 v=111
475680 Off ch=9 n=44 v=64
475680 On ch=9 n=41 v=109
475800 Off ch=9 n=41 v=64
475800 On ch=9 n=44 v=118
476040 Off ch=9 n=44 v=64
476040 On ch=9 n=41 v=112
476160 Off ch=9 n=41 v=64
476160 On ch=9 n=40 v=106
476280 Off ch=9 n=40 v=64
476280 On ch=9 n=36 v=111
476400 Off ch=9 n=36 v=64
476400 On ch=9 n=36 v=117
476520 Off ch=9 n=36 v=64
476520 On ch=9 n=36 v=107
476760 Off ch=9 n=36 v=64
476760 On ch=9 n=35 v=113
476880 Off ch=9 n=35 v=64
476880 On ch=9 n=35 v=114
477000 Off ch=9 n=35 v=64
477000 On ch=9 n=34 v=105
477120 Off ch=9 n=34 v=64
477120 On ch=9 n=32 v=114
477240 Off ch=9 n=32 v=64
477240 On ch=9 n=29 v=109
477480 Off ch=9 n=29 v=64
477720 On ch=9 n=43 v=112
477720 On ch=9 n=36 v=112
477720 On ch=9 n=31 v=112
477960 Off ch=9 n=43 v=64
477960 Off ch=9 n=31 v=64
477960 Off ch=9 n=36 v=64
477960 On ch=9 n=43 v=117
477960 On ch=9 n=36 v=116
477960 On ch=9 n=31 v=118
478200 Off ch=9 n=43 v=64
478200 Off ch=9 n=31 v=64
478200 Off ch=9 n=36 v=64
478200 On ch=9 n=45 v=107
478200 On ch=9 n=38 v=118
478200 On ch=9 n=33 v=106
478440 Off ch=9 n=45 v=64
478440 Off ch=9 n=33 v=64
478440 Off ch=9 n=38 v=64
478440 On ch=9 n=38 v=112
478440 On ch=9 n=45 v=110
478560 Off ch=9 n=38 v=64
478560 Off ch=9 n=45 v=64
478560 On ch=9 n=35 v=118
478680 Off ch=9 n=35 v=64
478800 On ch=9 n=38 v=114
478800 On ch=9 n=31 v=108
478920 Off ch=9 n=38 v=64
478920 Off ch=9 n=31 v=64
478920 On ch=9 n=50 v=104
479160 Off ch=9 n=50 v=64
479160 On ch=9 n=52 v=108
479280 Off ch=9 n=52 v=64
479280 On ch=9 n=53 v=114
479400 Off ch=9 n=53 v=64
479400 On ch=9 n=53 v=118
479520 Off ch=9 n=53 v=64
479520 On ch=9 n=50 v=109
479640 Off ch=9 n=50 v=64
479640 On ch=9 n=50 v=109
479760 Off ch=9 n=50 v=64
479760 On ch=9 n=50 v=118
479880 Off ch=9 n=50 v=64
479880 On ch=9 n=43 v=111
480000 Off ch=9 n=43 v=64
480000 On ch=9 n=43 v=106
480120 Off ch=9 n=43 v=64
480120 On ch=9 n=43 v=109
480240 Off ch=9 n=43 v=64
480240 On ch=9 n=43 v=118
480360 Off ch=9 n=43 v=64
480360 On ch=9 n=60 v=109
480480 Off ch=9 n=60 v=64
480480 On ch=9 n=60 v=113
480600 Off ch=9 n=60 v=64
480600 On ch=9 n=43 v=109
480720 Off ch=9 n=43 v=64
480720 On ch=9 n=59 v=105
480840 Off ch=9 n=59 v=64
480840 On ch=9 n=59 v=106
480960 Off ch=9 n=59 v=64
480960 On ch=9 n=59 v=110
481080 Off ch=9 n=59 v=64
481080 On ch=9 n=43 v=108
481200 Off ch=9 n=43 v=64
481200 On ch=9 n=43 v=116
481320 Off ch=9 n=43 v=64
481320 On ch=9 n=50 v=107
481440 Off ch=9 n=50 v=64
481440 On ch=9 n=50 v=109
481560 Off ch=9 n=50 v=64
481560 On ch=9 n=43 v=108
481680 Off ch=9 n=43 v=64
481680 On ch=9 n=53 v=115
481800 Off ch=9 n=53 v=64
481800 On ch=9 n=53 v=111
481920 Off ch=9 n=53 v=64
481920 On ch=9 n=53 v=113
482040 Off ch=9 n=53 v=64
482040 On ch=9 n=50 v=111
482160 Off ch=9 n=50 v=64
482160 On ch=9 n=50 v=117
482280 Off ch=9 n=50 v=64
482280 On ch=9 n=43 v=112
482400 Off ch=9 n=43 v=64
482400 On ch=9 n=43 v=113
482520 Off ch=9 n=43 v=64
482520 On ch=9 n=43 v=109
482640 Off ch=9 n=43 v=64
482640 On ch=9 n=43 v=108
482760 Off ch=9 n=43 v=64
482760 On ch=9 n=60 v=107
482880 Off ch=9 n=60 v=64
482880 On ch=9 n=60 v=107
483000 Off ch=9 n=60 v=64
483000 On ch=9 n=43 v=105
483120 Off ch=9 n=43 v=64
483120 On ch=9 n=59 v=118
483240 Off ch=9 n=59 v=64
483240 On ch=9 n=43 v=110
483360 Off ch=9 n=43 v=64
483360 On ch=9 n=43 v=109
483480 Off ch=9 n=43 v=64
483480 On ch=9 n=43 v=105
483600 Off ch=9 n=43 v=64
483600 On ch=9 n=43 v=110
483720 Off ch=9 n=43 v=64
483720 On ch=9 n=50 v=106
483840 Off ch=9 n=50 v=64
483840 On ch=9 n=50 v=104
483960 Off ch=9 n=50 v=64
483960 On ch=9 n=43 v=106
484080 Off ch=9 n=43 v=64
484080 On ch=9 n=53 v=105
484200 Off ch=9 n=53 v=64
484200 On ch=9 n=53 v=104
484320 Off ch=9 n=53 v=64
484320 On ch=9 n=53 v=107
484440 Off ch=9 n=53 v=64
484440 On ch=9 n=50 v=118
484560 Off ch=9 n=50 v=64
484560 On ch=9 n=50 v=110
484680 Off ch=9 n=50 v=64
484680 On ch=9 n=43 v=117
484800 Off ch=9 n=43 v=64
484800 On ch=9 n=43 v=116
484920 Off ch=9 n=43 v=64
484920 On ch=9 n=43 v=111
485040 Off ch=9 n=43 v=64
485040 On ch=9 n=43 v=113
485160 Off ch=9 n=43 v=64
485160 On ch=9 n=60 v=110
485280 Off ch=9 n=60 v=64
485280 On ch=9 n=60 v=116
485400 Off ch=9 n=60 v=64
485400 On ch=9 n=43 v=114
485520 Off ch=9 n=43 v=64
485520 On ch=9 n=59 v=104
485640 Off ch=9 n=59 v=64
485640 On ch=9 n=43 v=117
485760 Off ch=9 n=43 v=64
485760 On ch=9 n=43 v=113
485880 Off ch=9 n=43 v=64
485880 On ch=9 n=43 v=111
486000 Off ch=9 n=43 v=64
486000 On ch=9 n=43 v=113
486120 Off ch=9 n=43 v=64
486120 On ch=9 n=50 v=105
486240 Off ch=9 n=50 v=64
486240 On ch=9 n=50 v=109
486360 Off ch=9 n=50 v=64
486360 On ch=9 n=43 v=108
486480 Off ch=9 n=43 v=64
486480 On ch=9 n=53 v=112
486600 Off ch=9 n=53 v=64
486600 On ch=9 n=53 v=118
486720 Off ch=9 n=53 v=64
486720 On ch=9 n=53 v=106
486840 Off ch=9 n=53 v=64
486840 On ch=9 n=50 v=111
486960 Off ch=9 n=50 v=64
486960 On ch=9 n=50 v=105
487080 Off ch=9 n=50 v=64
487080 On ch=9 n=43 v=118
487200 Off ch=9 n=43 v=64
487200 On ch=9 n=43 v=106
487320 Off ch=9 n=43 v=64
487320 On ch=9 n=43 v=104
487440 Off ch=9 n=43 v=64
487440 On ch=9 n=43 v=116
487560 Off ch=9 n=43 v=64
487560 On ch=9 n=60 v=104
487680 Off ch=9 n=60 v=64
487680 On ch=9 n=60 v=112
487800 Off ch=9 n=60 v=64
487800 On ch=9 n=43 v=109
487920 Off ch=9 n=43 v=64
487920 On ch=9 n=59 v=104
488040 Off ch=9 n=59 v=64
488040 On ch=9 n=43 v=113
488160 Off ch=9 n=43 v=64
488160 On ch=9 n=43 v=115
488280 Off ch=9 n=43 v=64
488280 On ch=9 n=43 v=106
488400 Off ch=9 n=43 v=64
488400 On ch=9 n=43 v=104
488520 Off ch=9 n=43 v=64
488520 On ch=9 n=50 v=117
488640 Off ch=9 n=50 v=64
488640 On ch=9 n=50 v=113
488760 Off ch=9 n=50 v=64
488760 On ch=9 n=43 v=116
488880 Off ch=9 n=43 v=64
488880 On ch=9 n=53 v=107
489000 Off ch=9 n=53 v=64
489000 On ch=9 n=53 v=105
489120 Off ch=9 n=53 v=64
489120 On ch=9 n=53 v=108
489240 Off ch=9 n=53 v=64
489240 On ch=9 n=50 v=116
489360 Off ch=9 n=50 v=64
489360 On ch=9 n=50 v=111
489480 Off ch=9 n=50 v=64
489480 On ch=9 n=43 v=105
489600 Off ch=9 n=43 v=64
489600 On ch=9 n=43 v=108
489720 Off ch=9 n=43 v=64
489720 On ch=9 n=43 v=106
489840 Off ch=9 n=43 v=64
489840 On ch=9 n=43 v=107
489960 Off ch=9 n=43 v=64
489960 On ch=9 n=60 v=107
490080 Off ch=9 n=60 v=64
490080 On ch=9 n=60 v=109
490200 Off ch=9 n=60 v=64
490200 On ch=9 n=43 v=108
490320 Off ch=9 n=43 v=64
490320 On ch=9 n=59 v=105
490440 Off ch=9 n=59 v=64
490440 On ch=9 n=43 v=113
490560 Off ch=9 n=43 v=64
490560 On ch=9 n=43 v=107
490680 Off ch=9 n=43 v=64
490680 On ch=9 n=43 v=118
490800 Off ch=9 n=43 v=64
490800 On ch=9 n=43 v=117
490920 Off ch=9 n=43 v=64
490920 On ch=9 n=50 v=118
491040 Off ch=9 n=50 v=64
491040 On ch=9 n=50 v=115
491160 Off ch=9 n=50 v=64
491160 On ch=9 n=43 v=118
491280 Off ch=9 n=43 v=64
491280 On ch=9 n=53 v=111
491400 Off ch=9 n=53 v=64
491400 On ch=9 n=53 v=112
491520 Off ch=9 n=53 v=64
491520 On ch=9 n=53 v=106
491640 Off ch=9 n=53 v=64
491640 On ch=9 n=50 v=112
491760 Off ch=9 n=50 v=64
491760 On ch=9 n=50 v=112
491880 Off ch=9 n=50 v=64
491880 On ch=9 n=43 v=115
492000 Off ch=9 n=43 v=64
492000 On ch=9 n=43 v=109
492120 Off ch=9 n=43 v=64
492120 On ch=9 n=43 v=108
492240 Off ch=9 n=43 v=64
492240 On ch=9 n=43 v=105
492360 Off ch=9 n=43 v=64
492360 On ch=9 n=60 v=110
492480 Off ch=9 n=60 v=64
492480 On ch=9 n=60 v=114
492600 Off ch=9 n=60 v=64
492600 On ch=9 n=43 v=115
492720 Off ch=9 n=43 v=64
492720 On ch=9 n=59 v=105
492840 Off ch=9 n=59 v=64
492840 On ch=9 n=43 v=105
492960 Off ch=9 n=43 v=64
492960 On ch=9 n=43 v=115
493080 Off ch=9 n=43 v=64
493080 On ch=9 n=43 v=117
493200 Off ch=9 n=43 v=64
493200 On ch=9 n=43 v=115
493320 Off ch=9 n=43 v=64
493320 On ch=9 n=50 v=105
493440 Off ch=9 n=50 v=64
493440 On ch=9 n=50 v=109
493560 Off ch=9 n=50 v=64
493560 On ch=9 n=43 v=116
493680 Off ch=9 n=43 v=64
493680 On ch=9 n=53 v=104
493800 Off ch=9 n=53 v=64
493800 On ch=9 n=53 v=104
493920 Off ch=9 n=53 v=64
493920 On ch=9 n=53 v=109
494040 Off ch=9 n=53 v=64
494040 On ch=9 n=50 v=106
494160 Off ch=9 n=50 v=64
494160 On ch=9 n=50 v=111
494280 Off ch=9 n=50 v=64
494280 On ch=9 n=43 v=104
494400 Off ch=9 n=43 v=64
494400 On ch=9 n=43 v=108
494520 Off ch=9 n=43 v=64
494520 On ch=9 n=43 v=105
494640 Off ch=9 n=43 v=64
494640 On ch=9 n=43 v=118
494760 Off ch=9 n=43 v=64
494760 On ch=9 n=60 v=117
494880 Off ch=9 n=60 v=64
494880 On ch=9 n=60 v=107
495000 Off ch=9 n=60 v=64
495000 On ch=9 n=43 v=105
495120 Off ch=9 n=43 v=64
495120 On ch=9 n=59 v=113
495240 Off ch=9 n=59 v=64
495240 On ch=9 n=43 v=107
495360 Off ch=9 n=43 v=64
495360 On ch=9 n=43 v=114
495480 Off ch=9 n=43 v=64
495480 On ch=9 n=43 v=107
495600 Off ch=9 n=43 v=64
495600 On ch=9 n=43 v=109
495720 Off ch=9 n=43 v=64
495720 On ch=9 n=50 v=114
495840 Off ch=9 n=50 v=64
495840 On ch=9 n=50 v=118
495960 Off ch=9 n=50 v=64
495960 On ch=9 n=43 v=105
496080 Off ch=9 n=43 v=64
496080 On ch=9 n=53 v=118
496200 Off ch=9 n=53 v=64
496200 On ch=9 n=53 v=107
496320 Off ch=9 n=53 v=64
496320 On ch=9 n=53 v=114
496440 Off ch=9 n=53 v=64
496440 On ch=9 n=50 v=105
496560 Off ch=9 n=50 v=64
496560 On ch=9 n=50 v=113
496680 Off ch=9 n=50 v=64
496680 On ch=9 n=43 v=114
496800 Off ch=9 n=43 v=64
496800 On ch=9 n=43 v=113
496920 Off ch=9 n=43 v=64
496920 On ch=9 n=43 v=117
497040 Off ch=9 n=43 v=64
497040 On ch=9 n=43 v=116
497160 Off ch=9 n=43 v=64
497160 On ch=9 n=60 v=109
497280 Off ch=9 n=60 v=64
497280 On ch=9 n=60 v=115
497400 Off ch=9 n=60 v=64
497400 On ch=9 n=43 v=110
497520 Off ch=9 n=43 v=64
497520 On ch=9 n=59 v=105
497640 Off ch=9 n=59 v=64
497640 On ch=9 n=43 v=115
497760 Off ch=9 n=43 v=64
497760 On ch=9 n=43 v=113
497880 Off ch=9 n=43 v=64
497880 On ch=9 n=43 v=105
498000 Off ch=9 n=43 v=64
498000 On ch=9 n=43 v=106
498120 Off ch=9 n=43 v=64
498120 On ch=9 n=50 v=113
498240 Off ch=9 n=50 v=64
498240 On ch=9 n=50 v=110
498360 Off ch=9 n=50 v=64
498360 On ch=9 n=43 v=105
498480 Off ch=9 n=43 v=64
498480 On ch=9 n=53 v=111
498600 Off ch=9 n=53 v=64
498600 On ch=9 n=53 v=106
498720 Off ch=9 n=53 v=64
498720 On ch=9 n=53 v=104
498840 Off ch=9 n=53 v=64
498840 On ch=9 n=50 v=115
498960 Off ch=9 n=50 v=64
498960 On ch=9 n=50 v=116
499080 Off ch=9 n=50 v=64
499080 On ch=9 n=43 v=106
499200 Off ch=9 n=43 v=64
499200 On ch=9 n=43 v=108
499320 Off ch=9 n=43 v=64
499320 On ch=9 n=43 v=114
499440 Off ch=9 n=43 v=64
499440 On ch=9 n=43 v=106
499560 Off ch=9 n=43 v=64
499560 On ch=9 n=60 v=112
499680 Off ch=9 n=60 v=64
499680 On ch=9 n=60 v=111
499800 Off ch=9 n=60 v=64
499800 On ch=9 n=43 v=116
499920 Off ch=9 n=43 v=64
499920 On ch=9 n=59 v=112
500040 Off ch=9 n=59 v=64
500040 On ch=9 n=43 v=110
500160 Off ch=9 n=43 v=64
500160 On ch=9 n=43 v=109
500280 Off ch=9 n=43 v=64
500280 On ch=9 n=43 v=114
500400 Off ch=9 n=43 v=64
500400 On ch=9 n=43 v=107
500520 Off ch=9 n=43 v=64
500520 On ch=9 n=50 v=113
500640 Off ch=9 n=50 v=64
500640 On ch=9 n=50 v=113
500760 Off ch=9 n=50 v=64
500760 On ch=9 n=43 v=106
500880 Off ch=9 n=43 v=64
500880 On ch=9 n=53 v=112
501000 Off ch=9 n=53 v=64
501000 On ch=9 n=53 v=108
501120 Off ch=9 n=53 v=64
501120 On ch=9 n=53 v=118
501240 Off ch=9 n=53 v=64
501240 On ch=9 n=50 v=109
501360 Off ch=9 n=50 v=64
501360 On ch=9 n=50 v=107
501480 Off ch=9 n=50 v=64
501480 On ch=9 n=43 v=118
501600 Off ch=9 n=43 v=64
501600 On ch=9 n=43 v=114
501720 Off ch=9 n=43 v=64
501720 On ch=9 n=43 v=108
501840 Off ch=9 n=43 v=64
501840 On ch=9 n=43 v=105
501960 Off ch=9 n=43 v=64
501960 On ch=9 n=60 v=118
502080 Off ch=9 n=60 v=64
502080 On ch=9 n=60 v=107
502200 Off ch=9 n=60 v=64
502200 On ch=9 n=43 v=105
502320 Off ch=9 n=43 v=64
502320 On ch=9 n=59 v=113
502440 Off ch=9 n=59 v=64
502440 On ch=9 n=43 v=109
502560 Off ch=9 n=43 v=64
502560 On ch=9 n=43 v=108
502680 Off ch=9 n=43 v=64
502680 On ch=9 n=43 v=115
502800 Off ch=9 n=43 v=64
502800 On ch=9 n=43 v=111
502920 Off ch=9 n=43 v=64
502920 On ch=9 n=50 v=105
503040 Off ch=9 n=50 v=64
503040 On ch=9 n=50 v=106
503160 Off ch=9 n=50 v=64
503160 On ch=9 n=43 v=111
503280 Off ch=9 n=43 v=64
503280 On ch=9 n=53 v=116
503400 Off ch=9 n=53 v=64
503400 On ch=9 n=53 v=117
503520 Off ch=9 n=53 v=64
503520 On ch=9 n=53 v=117
503640 Off ch=9 n=53 v=64
503640 On ch=9 n=50 v=118
503760 Off ch=9 n=50 v=64
503760 On ch=9 n=50 v=118
503880 Off ch=9 n=50 v=64
503880 On ch=9 n=43 v=109
504000 Off ch=9 n=43 v=64
504000 On ch=9 n=43 v=109
504120 Off ch=9 n=43 v=64
504120 On ch=9 n=43 v=114
504240 Off ch=9 n=43 v=64
504240 On ch=9 n=43 v=108
504360 Off ch=9 n=43 v=64
504360 On ch=9 n=60 v=116
504480 Off ch=9 n=60 v=64
504480 On ch=9 n=60 v=118
504600 Off ch=9 n=60 v=64
504600 On ch=9 n=43 v=109
504720 Off ch=9 n=43 v=64
504720 On ch=9 n=59 v=115
504840 Off ch=9 n=59 v=64
504840 On ch=9 n=43 v=110
504960 Off ch=9 n=43 v=64
504960 On ch=9 n=43 v=111
505080 Off ch=9 n=43 v=64
505080 On ch=9 n=43 v=117
505200 Off ch=9 n=43 v=64
505200 On ch=9 n=43 v=104
505320 Off ch=9 n=43 v=64
505320 On ch=9 n=50 v=104
505440 Off ch=9 n=50 v=64
505440 On ch=9 n=50 v=116
505560 Off ch=9 n=50 v=64
505560 On ch=9 n=43 v=112
505680 Off ch=9 n=43 v=64
505680 On ch=9 n=53 v=118
505800 Off ch=9 n=53 v=64
505800 On ch=9 n=53 v=108
505920 Off ch=9 n=53 v=64
505920 On ch=9 n=53 v=111
506040 Off ch=9 n=53 v=64
506040 On ch=9 n=50 v=107
506160 Off ch=9 n=50 v=64
506160 On ch=9 n=50 v=111
506280 Off ch=9 n=50 v=64
506280 On ch=9 n=43 v=108
506400 Off ch=9 n=43 v=64
506400 On ch=9 n=43 v=118
506520 Off ch=9 n=43 v=64
506520 On ch=9 n=43 v=117
506640 Off ch=9 n=43 v=64
506640 On ch=9 n=43 v=113
506760 Off ch=9 n=43 v=64
506760 On ch=9 n=60 v=108
506880 Off ch=9 n=60 v=64
506880 On ch=9 n=60 v=118
507000 Off ch=9 n=60 v=64
507000 On ch=9 n=43 v=116
507120 Off ch=9 n=43 v=64
507120 On ch=9 n=59 v=110
507240 Off ch=9 n=59 v=64
507240 On ch=9 n=43 v=110
507360 Off ch=9 n=43 v=64
507360 On ch=9 n=43 v=107
507480 Off ch=9 n=43 v=64
507480 On ch=9 n=43 v=115
507600 Off ch=9 n=43 v=64
507600 On ch=9 n=43 v=108
507720 Off ch=9 n=43 v=64
507720 On ch=9 n=50 v=112
507840 Off ch=9 n=50 v=64
507840 On ch=9 n=50 v=110
507960 Off ch=9 n=50 v=64
507960 On ch=9 n=43 v=112
508080 Off ch=9 n=43 v=64
508080 On ch=9 n=53 v=109
508200 Off ch=9 n=53 v=64
508200 On ch=9 n=53 v=118
508320 Off ch=9 n=53 v=64
508320 On ch=9 n=53 v=118
508440 Off ch=9 n=53 v=64
508440 On ch=9 n=50 v=108
508560 Off ch=9 n=50 v=64
508560 On ch=9 n=50 v=110
508680 Off ch=9 n=50 v=64
508680 On ch=9 n=43 v=107
508800 Off ch=9 n=43 v=64
508800 On ch=9 n=43 v=115
508920 Off ch=9 n=43 v=64
508920 On ch=9 n=43 v=113
509040 Off ch=9 n=43 v=64
509040 On ch=9 n=43 v=118
509160 Off ch=9 n=43 v=64
509160 On ch=9 n=60 v=115
509280 Off ch=9 n=60 v=64
509280 On ch=9 n=60 v=108
509400 Off ch=9 n=60 v=64
509400 On ch=9 n=43 v=115
509520 Off ch=9 n=43 v=64
509520 On ch=9 n=59 v=118
509640 Off ch=9 n=59 v=64
519720 On ch=9 n=50 v=113
519840 Off ch=9 n=50 v=64
519840 On ch=9 n=50 v=112
519960 Off ch=9 n=50 v=64
519960 On ch=9 n=43 v=107
520080 Off ch=9 n=43 v=64
520080 On ch=9 n=53 v=113
520200 Off ch=9 n=53 v=64
520200 On ch=9 n=53 v=113
520320 Off ch=9 n=53 v=64
520320 On ch=9 n=53 v=115
520440 Off ch=9 n=53 v=64
520440 On ch=9 n=50 v=118
520560 Off ch=9 n=50 v=64
520560 On ch=9 n=50 v=111
520680 Off ch=9 n=50 v=64
520680 On ch=9 n=43 v=118
520800 Off ch=9 n=43 v=64
520800 On ch=9 n=43 v=112
520920 Off ch=9 n=43 v=64
520920 On ch=9 n=43 v=114
521040 Off ch=9 n=43 v=64
521040 On ch=9 n=43 v=111
521160 Off ch=9 n=43 v=64
521160 On ch=9 n=60 v=111
521280 Off ch=9 n=60 v=64
521280 On ch=9 n=60 v=112
521400 Off ch=9 n=60 v=64
521400 On ch=9 n=43 v=116
521520 Off ch=9 n=43 v=64
521520 On ch=9 n=59 v=115
521640 Off ch=9 n=59 v=64
521640 On ch=9 n=43 v=105
521760 Off ch=9 n=43 v=64
521760 On ch=9 n=43 v=105
521880 Off ch=9 n=43 v=64
521880 On ch=9 n=43 v=108
522000 Off ch=9 n=43 v=64
522000 On ch=9 n=43 v=115
522120 Off ch=9 n=43 v=64
522120 On ch=9 n=50 v=114
522240 Off ch=9 n=50 v=64
522240 On ch=9 n=50 v=105
522360 Off ch=9 n=50 v=64
522360 On ch=9 n=43 v=115
522480 Off ch=9 n=43 v=64
522480 On ch=9 n=53 v=112
522600 Off ch=9 n=53 v=64
522600 On ch=9 n=53 v=116
522720 Off ch=9 n=53 v=64
522720 On ch=9 n=53 v=111
522840 Off ch=9 n=53 v=64
522840 On ch=9 n=50 v=110
522960 Off ch=9 n=50 v=64
522960 On ch=9 n=50 v=106
523080 Off ch=9 n=50 v=64
523080 On ch=9 n=43 v=112
523200 Off ch=9 n=43 v=64
523200 On ch=9 n=43 v=115
523320 Off ch=9 n=43 v=64
523320 On ch=9 n=43 v=111
523440 Off ch=9 n=43 v=64
523440 On ch=9 n=43 v=110
523560 Off ch=9 n=43 v=64
523560 On ch=9 n=60 v=109
523680 Off ch=9 n=60 v=64
523680 On ch=9 n=60 v=109
523800 Off ch=9 n=60 v=64
523800 On ch=9 n=43 v=116
523920 Off ch=9 n=43 v=64
523920 On ch=9 n=59 v=106
524040 Off ch=9 n=59 v=64
524040 On ch=9 n=43 v=111
524160 Off ch=9 n=43 v=64
524160 On ch=9 n=43 v=106
524280 Off ch=9 n=43 v=64
524280 On ch=9 n=43 v=117
524400 Off ch=9 n=43 v=64
524400 On ch=9 n=43 v=116
524520 Off ch=9 n=43 v=64
524520 On ch=9 n=38 v=127
524640 Off ch=9 n=38 v=64
524640 On ch=9 n=38 v=127
524760 Off ch=9 n=38 v=64
524760 On ch=9 n=40 v=127
524880 Off ch=9 n=40 v=64
524880 On ch=9 n=41 v=127
525000 Off ch=9 n=41 v=64
525000 On ch=9 n=42 v=127
525120 Off ch=9 n=42 v=64
525120 On ch=9 n=42 v=127
525240 Off ch=9 n=42 v=64
525240 On ch=9 n=41 v=127
525360 Off ch=9 n=41 v=64
525360 On ch=9 n=40 v=127
525480 Off ch=9 n=40 v=64
525480 On ch=9 n=38 v=127
525600 Off ch=9 n=38 v=64
525600 On ch=9 n=38 v=127
525720 Off ch=9 n=38 v=64
525720 On ch=9 n=42 v=127
525840 Off ch=9 n=42 v=64
525840 On ch=9 n=48 v=127
525960 Off ch=9 n=48 v=64
526080 On ch=9 n=45 v=127
526200 Off ch=9 n=45 v=64
526200 On ch=9 n=47 v=127
529320 Off ch=9 n=47 v=64
529320 Meta TrkEnd
TrkEnd
MTrk
0 Meta TrkName "Drums"
0 Par ch=10 c=93 v=0
0 Par ch=10 c=91 v=127
0 Par ch=10 c=11 v=127
0 Par ch=10 c=10 v=64
0 Par ch=10 c=1 v=0
0 PrCh ch=10 p=0
0 Par ch=10 c=7 v=100
1920 On ch=10 n=81 v=89
1920 On ch=10 n=52 v=52
2000 On ch=10 n=81 v=59
2080 On ch=10 n=81 v=93
2160 On ch=10 n=81 v=58
2240 On ch=10 n=81 v=78
2320 On ch=10 n=81 v=54
2400 Off ch=10 n=81 v=64
2400 Off ch=10 n=52 v=64
2400 On ch=10 n=81 v=79
2480 Off ch=10 n=81 v=64
2480 On ch=10 n=81 v=58
2560 Off ch=10 n=81 v=64
2560 On ch=10 n=81 v=96
2640 Off ch=10 n=81 v=64
2640 On ch=10 n=81 v=63
2720 Off ch=10 n=81 v=64
2720 On ch=10 n=81 v=97
2800 Off ch=10 n=81 v=64
2800 On ch=10 n=81 v=64
2880 Off ch=10 n=81 v=64
2880 On ch=10 n=81 v=82
2960 Off ch=10 n=81 v=64
2960 On ch=10 n=81 v=67
3040 Off ch=10 n=81 v=64
3040 On ch=10 n=81 v=83
3120 Off ch=10 n=81 v=64
3120 On ch=10 n=81 v=69
3200 Off ch=10 n=81 v=64
3200 On ch=10 n=81 v=95
3280 Off ch=10 n=81 v=64
3280 On ch=10 n=81 v=70
3360 Off ch=10 n=81 v=64
3360 On ch=10 n=81 v=96
3440 Off ch=10 n=81 v=64
3440 On ch=10 n=81 v=63
3520 Off ch=10 n=81 v=64
3520 On ch=10 n=81 v=94
3600 Off ch=10 n=81 v=64
3600 On ch=10 n=81 v=68
3680 Off ch=10 n=81 v=64
3680 On ch=10 n=81 v=93
3760 Off ch=10 n=81 v=64
3760 On ch=10 n=81 v=63
3840 Off ch=10 n=81 v=64
3840 On ch=10 n=55 v=64
3840 On ch=10 n=81 v=82
3920 Off ch=10 n=81 v=64
3960 On ch=10 n=81 v=56
4000 Off ch=10 n=81 v=64
4080 Off ch=10 n=81 v=64
4080 On ch=10 n=81 v=80
4160 Off ch=10 n=81 v=64
4200 On ch=10 n=81 v=55
4240 Off ch=10 n=81 v=64
4320 Off ch=10 n=55 v=64
4320 Off ch=10 n=81 v=64
4320 On ch=10 n=42 v=64
4320 On ch=10 n=81 v=97
4440 Off ch=10 n=81 v=64
4440 On ch=10 n=81 v=72
4560 Off ch=10 n=81 v=64
4560 On ch=10 n=81 v=90
4680 Off ch=10 n=81 v=64
4680 On ch=10 n=81 v=65
4800 Off ch=10 n=81 v=64
4800 Off ch=10 n=42 v=64
4800 On ch=10 n=81 v=97
4920 Off ch=10 n=81 v=64
4920 On ch=10 n=81 v=55
5040 Off ch=10 n=81 v=64
5040 On ch=10 n=81 v=81
5160 Off ch=10 n=81 v=64
5160 On ch=10 n=81 v=56
5280 Off ch=10 n=81 v=64
5280 On ch=10 n=81 v=97
5400 Off ch=10 n=81 v=64
5400 On ch=10 n=81 v=70
5520 Off ch=10 n=81 v=64
5520 On ch=10 n=81 v=85
5520 On ch=10 n=55 v=36
5640 Off ch=10 n=81 v=64
5640 On ch=10 n=81 v=69
5760 Off ch=10 n=81 v=64
5760 On ch=10 n=81 v=80
5880 Off ch=10 n=81 v=64
5880 On ch=10 n=81 v=95
6000 Off ch=10 n=55 v=64
6000 Off ch=10 n=81 v=64
6000 On ch=10 n=55 v=64
6120 Off ch=10 n=81 v=64
6240 Off ch=10 n=81 v=64
6360 Off ch=10 n=81 v=64
6480 Off ch=10 n=55 v=64
7680 Par ch=10 c=7 v=127
7680 Par ch=10 c=93 v=127
7920 On ch=10 n=47 v=127
8040 On ch=10 n=47 v=127
8160 On ch=10 n=36 v=127
8160 On ch=10 n=49 v=127
8400 Off ch=10 n=47 v=64
8400 On ch=10 n=47 v=127
8520 Off ch=10 n=47 v=64
8520 On ch=10 n=47 v=127
8640 Off ch=10 n=49 v=64
8640 Off ch=10 n=36 v=64
8640 On ch=10 n=36 v=106
8640 On ch=10 n=49 v=127
8880 Off ch=10 n=47 v=64
8880 On ch=10 n=47 v=126
9000 Off ch=10 n=47 v=64
9000 On ch=10 n=47 v=114
9120 Off ch=10 n=49 v=64
9120 Off ch=10 n=36 v=64
9120 On ch=10 n=47 v=127
9240 On ch=10 n=47 v=102
9360 Off ch=10 n=47 v=64
9360 On ch=10 n=36 v=109
9360 On ch=10 n=52 v=127
9480 Off ch=10 n=47 v=64
9600 Off ch=10 n=47 v=64
9600 On ch=10 n=47 v=127
9720 Off ch=10 n=47 v=64
9720 On ch=10 n=47 v=113
9840 Off ch=10 n=36 v=64
9840 Off ch=10 n=52 v=64
9840 On ch=10 n=52 v=127
9840 On ch=10 n=36 v=127
10080 Off ch=10 n=47 v=64
10080 On ch=10 n=46 v=117
10200 Off ch=10 n=47 v=64
10320 Off ch=10 n=36 v=64
10320 Off ch=10 n=52 v=64
10560 Off ch=10 n=46 v=64
12240 Par ch=10 c=7 v=100
12240 Par ch=10 c=93 v=0
12240 On ch=10 n=81 v=123
12360 On ch=10 n=81 v=95
12480 On ch=10 n=81 v=126
12600 On ch=10 n=81 v=57
12720 Off ch=10 n=81 v=64
12720 On ch=10 n=81 v=127
12840 Off ch=10 n=81 v=64
12840 On ch=10 n=81 v=104
12960 Off ch=10 n=81 v=64
12960 On ch=10 n=81 v=117
13080 Off ch=10 n=81 v=64
13080 On ch=10 n=81 v=55
13200 Off ch=10 n=81 v=64
13200 On ch=10 n=81 v=123
13320 Off ch=10 n=81 v=64
13320 On ch=10 n=81 v=91
13440 Off ch=10 n=81 v=64
13440 On ch=10 n=81 v=118
13560 Off ch=10 n=81 v=64
13560 On ch=10 n=81 v=105
13680 Off ch=10 n=81 v=64
13680 On ch=10 n=81 v=126
13800 Off ch=10 n=81 v=64
13800 On ch=10 n=81 v=106
13920 Off ch=10 n=81 v=64
13920 On ch=10 n=81 v=125
14040 Off ch=10 n=81 v=64
14040 On ch=10 n=81 v=95
14160 Off ch=10 n=81 v=64
14160 On ch=10 n=81 v=126
14280 Off ch=10 n=81 v=64
14280 On ch=10 n=81 v=82
14400 Off ch=10 n=81 v=64
14400 On ch=10 n=81 v=93
14520 Off ch=10 n=81 v=64
14520 On ch=10 n=81 v=76
14640 Off ch=10 n=81 v=64
14640 On ch=10 n=81 v=123
14760 Off ch=10 n=81 v=64
14760 On ch=10 n=81 v=56
14880 Off ch=10 n=81 v=64
14880 On ch=10 n=81 v=100
15000 Off ch=10 n=81 v=64
15000 On ch=10 n=81 v=105
15120 Off ch=10 n=81 v=64
15120 On ch=10 n=81 v=120
15240 Off ch=10 n=81 v=64
15240 On ch=10 n=81 v=66
15360 Off ch=10 n=81 v=64
15360 On ch=10 n=81 v=107
15480 Off ch=10 n=81 v=64
15480 On ch=10 n=81 v=43
15600 Off ch=10 n=81 v=64
15600 On ch=10 n=81 v=119
15720 Off ch=10 n=81 v=64
15720 On ch=10 n=81 v=69
15840 Off ch=10 n=81 v=64
15840 On ch=10 n=81 v=96
15960 Off ch=10 n=81 v=64
15960 On ch=10 n=81 v=48
16080 Off ch=10 n=81 v=64
16080 On ch=10 n=81 v=122
16200 Off ch=10 n=81 v=64
16200 On ch=10 n=81 v=73
16320 Off ch=10 n=81 v=64
16320 On ch=10 n=81 v=93
16440 Off ch=10 n=81 v=64
16440 On ch=10 n=81 v=94
16560 Off ch=10 n=81 v=64
16560 On ch=10 n=81 v=118
16680 Off ch=10 n=81 v=64
16800 Off ch=10 n=81 v=64
16920 Off ch=10 n=81 v=64
17040 Off ch=10 n=81 v=64
17040 On ch=10 n=55 v=48
17520 Off ch=10 n=55 v=64
18000 Par ch=10 c=7 v=127
18000 Par ch=10 c=93 v=127
18720 On ch=10 n=47 v=127
18840 On ch=10 n=47 v=127
18960 On ch=10 n=36 v=118
18960 On ch=10 n=49 v=126
19200 Off ch=10 n=47 v=64
19200 On ch=10 n=47 v=124
19320 Off ch=10 n=47 v=64
19320 On ch=10 n=47 v=121
19440 Off ch=10 n=49 v=64
19440 Off ch=10 n=36 v=64
19440 On ch=10 n=36 v=127
19440 On ch=10 n=49 v=126
19680 Off ch=10 n=47 v=64
19680 On ch=10 n=47 v=123
19800 Off ch=10 n=47 v=64
19800 On ch=10 n=47 v=105
19920 Off ch=10 n=49 v=64
19920 Off ch=10 n=36 v=64
19920 On ch=10 n=47 v=120
20040 On ch=10 n=47 v=109
20160 Off ch=10 n=47 v=64
20160 On ch=10 n=36 v=127
20160 On ch=10 n=49 v=119
20280 Off ch=10 n=47 v=64
20400 Off ch=10 n=47 v=64
20400 On ch=10 n=47 v=120
20520 Off ch=10 n=47 v=64
20520 On ch=10 n=47 v=124
20640 Off ch=10 n=36 v=64
20640 Off ch=10 n=49 v=64
20640 On ch=10 n=36 v=118
20640 On ch=10 n=49 v=126
20880 Off ch=10 n=47 v=64
20880 On ch=10 n=47 v=119
21000 Off ch=10 n=47 v=64
21120 Off ch=10 n=49 v=64
21120 Off ch=10 n=36 v=64
21120 On ch=10 n=47 v=106
21240 On ch=10 n=47 v=91
21360 Off ch=10 n=47 v=64
21360 On ch=10 n=47 v=107
21480 On ch=10 n=47 v=109
21600 Off ch=10 n=47 v=64
21600 On ch=10 n=45 v=99
21720 Off ch=10 n=47 v=64
21720 On ch=10 n=45 v=77
21840 Off ch=10 n=47 v=64
21840 On ch=10 n=45 v=90
21960 Off ch=10 n=47 v=64
21960 On ch=10 n=45 v=99
22080 Off ch=10 n=45 v=64
22080 On ch=10 n=45 v=92
22200 Off ch=10 n=45 v=64
22200 On ch=10 n=45 v=40
22320 Off ch=10 n=45 v=64
22320 On ch=10 n=47 v=104
22440 Off ch=10 n=45 v=64
22440 On ch=10 n=47 v=51
22560 Off ch=10 n=45 v=64
22560 On ch=10 n=47 v=103
22680 Off ch=10 n=45 v=64
22680 On ch=10 n=47 v=107
22800 Off ch=10 n=47 v=64
22800 On ch=10 n=36 v=122
22800 On ch=10 n=52 v=127
22920 Off ch=10 n=47 v=64
23040 Off ch=10 n=47 v=64
23160 Off ch=10 n=47 v=64
23280 Off ch=10 n=52 v=64
23280 Off ch=10 n=36 v=64
24480 On ch=10 n=44 v=119
24960 Off ch=10 n=44 v=64
24960 On ch=10 n=52 v=107
24960 On ch=10 n=36 v=120
25200 On ch=10 n=47 v=117
25320 On ch=10 n=47 v=127
25440 Off ch=10 n=52 v=64
25440 Off ch=10 n=36 v=64
25440 On ch=10 n=47 v=126
25560 On ch=10 n=47 v=123
25680 Off ch=10 n=47 v=64
25680 On ch=10 n=52 v=108
25680 On ch=10 n=36 v=121
25800 Off ch=10 n=47 v=64
25920 Off ch=10 n=47 v=64
25920 On ch=10 n=52 v=119
26040 Off ch=10 n=47 v=64
26160 Off ch=10 n=52 v=64
26160 Off ch=10 n=36 v=64
26160 On ch=10 n=47 v=122
26280 On ch=10 n=47 v=124
26400 Off ch=10 n=52 v=64
26400 On ch=10 n=47 v=119
26520 On ch=10 n=47 v=99
26640 Off ch=10 n=47 v=64
26640 On ch=10 n=47 v=96
26760 Off ch=10 n=47 v=64
26760 On ch=10 n=47 v=67
26880 Off ch=10 n=47 v=64
26880 On ch=10 n=47 v=120
27000 Off ch=10 n=47 v=64
27000 On ch=10 n=47 v=80
27120 Off ch=10 n=47 v=64
27120 On ch=10 n=47 v=92
27240 Off ch=10 n=47 v=64
27240 On ch=10 n=47 v=69
27360 Off ch=10 n=47 v=64
27360 On ch=10 n=47 v=126
27480 Off ch=10 n=47 v=64
27480 On ch=10 n=47 v=91
27600 Off ch=10 n=47 v=64
27600 On ch=10 n=47 v=101
27720 Off ch=10 n=47 v=64
27720 On ch=10 n=47 v=65
27840 Off ch=10 n=47 v=64
27840 On ch=10 n=47 v=127
27960 Off ch=10 n=47 v=64
27960 On ch=10 n=47 v=45
28080 Off ch=10 n=47 v=64
28080 On ch=10 n=47 v=122
28200 Off ch=10 n=47 v=64
28200 On ch=10 n=47 v=78
28320 Off ch=10 n=47 v=64
28320 On ch=10 n=47 v=121
28440 Off ch=10 n=47 v=64
28440 On ch=10 n=47 v=96
28560 Off ch=10 n=47 v=64
28560 On ch=10 n=45 v=119
28680 Off ch=10 n=47 v=64
28680 On ch=10 n=45 v=65
28800 Off ch=10 n=47 v=64
28800 On ch=10 n=45 v=122
28920 Off ch=10 n=47 v=64
28920 On ch=10 n=45 v=73
29040 Off ch=10 n=45 v=64
29040 On ch=10 n=43 v=120
29160 Off ch=10 n=45 v=64
29160 On ch=10 n=43 v=94
29280 Off ch=10 n=45 v=64
29280 On ch=10 n=43 v=121
29400 Off ch=10 n=45 v=64
29400 On ch=10 n=43 v=106
29520 Off ch=10 n=43 v=64
29520 On ch=10 n=41 v=121
29640 Off ch=10 n=43 v=64
29640 On ch=10 n=41 v=53
29760 Off ch=10 n=43 v=64
29760 On ch=10 n=41 v=120
29880 Off ch=10 n=43 v=64
29880 On ch=10 n=41 v=45
30000 Off ch=10 n=41 v=64
30000 On ch=10 n=41 v=125
30120 Off ch=10 n=41 v=64
30120 On ch=10 n=41 v=126
30240 Off ch=10 n=41 v=64
30240 On ch=10 n=52 v=90
30240 On ch=10 n=36 v=119
30360 Off ch=10 n=41 v=64
30480 Off ch=10 n=41 v=64
30480 On ch=10 n=47 v=119
30600 Off ch=10 n=41 v=64
30600 On ch=10 n=52 v=93
30600 On ch=10 n=36 v=121
30720 Off ch=10 n=52 v=64
30720 Off ch=10 n=36 v=64
30720 On ch=10 n=52 v=90
30840 On ch=10 n=47 v=126
30960 Off ch=10 n=47 v=64
30960 On ch=10 n=52 v=91
30960 On ch=10 n=36 v=120
31080 Off ch=10 n=52 v=64
31080 Off ch=10 n=36 v=64
31200 Off ch=10 n=52 v=64
31200 On ch=10 n=47 v=119
31320 Off ch=10 n=47 v=64
31320 On ch=10 n=47 v=77
31440 Off ch=10 n=52 v=64
31440 Off ch=10 n=36 v=64
31440 On ch=10 n=47 v=119
31560 On ch=10 n=47 v=58
31680 Off ch=10 n=47 v=64
31680 On ch=10 n=47 v=118
31800 Off ch=10 n=47 v=64
31800 On ch=10 n=47 v=79
31920 Off ch=10 n=47 v=64
31920 On ch=10 n=52 v=104
31920 On ch=10 n=36 v=127
32040 Off ch=10 n=47 v=64
32160 Off ch=10 n=47 v=64
32160 On ch=10 n=48 v=127
32280 Off ch=10 n=47 v=64
32280 On ch=10 n=36 v=127
32400 Off ch=10 n=52 v=64
32400 Off ch=10 n=36 v=64
32400 On ch=10 n=52 v=118
32640 Off ch=10 n=48 v=64
32640 On ch=10 n=47 v=127
32640 On ch=10 n=36 v=127
32760 Off ch=10 n=36 v=64
32760 On ch=10 n=46 v=127
32880 Off ch=10 n=52 v=64
33000 On ch=10 n=47 v=127
33000 On ch=10 n=36 v=127
33120 Off ch=10 n=36 v=64
33120 Off ch=10 n=47 v=64
33120 On ch=10 n=52 v=112
33240 Off ch=10 n=46 v=64
33360 On ch=10 n=47 v=127
33480 Off ch=10 n=47 v=64
33480 Off ch=10 n=36 v=64
33480 On ch=10 n=52 v=107
33480 On ch=10 n=36 v=127
33600 Off ch=10 n=52 v=64
33840 Off ch=10 n=47 v=64
33960 Off ch=10 n=52 v=64
33960 Off ch=10 n=36 v=64
35280 Par ch=10 c=7 v=100
35280 Par ch=10 c=93 v=0
35280 On ch=10 n=81 v=105
35320 On ch=10 n=81 v=100
35360 On ch=10 n=81 v=70
35400 On ch=10 n=81 v=43
35480 On ch=10 n=81 v=29
35560 On ch=10 n=81 v=37
35640 On ch=10 n=81 v=59
35720 On ch=10 n=81 v=66
35760 Off ch=10 n=81 v=64
35800 Off ch=10 n=81 v=64
35800 On ch=10 n=81 v=59
35840 Off ch=10 n=81 v=64
35880 Off ch=10 n=81 v=64
35880 On ch=10 n=81 v=28
35960 Off ch=10 n=81 v=64
35960 On ch=10 n=81 v=28
36040 Off ch=10 n=81 v=64
36040 On ch=10 n=81 v=36
36120 Off ch=10 n=81 v=64
36120 On ch=10 n=81 v=31
36200 Off ch=10 n=81 v=64
36200 On ch=10 n=81 v=43
36280 Off ch=10 n=81 v=64
36280 On ch=10 n=81 v=55
36360 Off ch=10 n=81 v=64
36360 On ch=10 n=81 v=82
36440 Off ch=10 n=81 v=64
36440 On ch=10 n=81 v=85
36520 Off ch=10 n=81 v=64
36520 On ch=10 n=81 v=41
36600 Off ch=10 n=81 v=64
36600 On ch=10 n=81 v=89
36680 Off ch=10 n=81 v=64
36680 On ch=10 n=81 v=37
36760 Off ch=10 n=81 v=64
36760 On ch=10 n=81 v=57
36840 Off ch=10 n=81 v=64
36840 On ch=10 n=81 v=59
36920 Off ch=10 n=81 v=64
36920 On ch=10 n=81 v=77
37000 Off ch=10 n=81 v=64
37000 On ch=10 n=81 v=61
37080 Off ch=10 n=81 v=64
37080 On ch=10 n=81 v=88
37160 Off ch=10 n=81 v=64
37160 On ch=10 n=81 v=29
37240 Off ch=10 n=81 v=64
37240 On ch=10 n=81 v=83
37320 Off ch=10 n=81 v=64
37320 On ch=10 n=81 v=38
37400 Off ch=10 n=81 v=64
37400 On ch=10 n=81 v=33
37480 Off ch=10 n=81 v=64
37480 On ch=10 n=81 v=65
37560 Off ch=10 n=81 v=64
37560 On ch=10 n=81 v=57
37640 Off ch=10 n=81 v=64
37640 On ch=10 n=81 v=58
37720 Off ch=10 n=81 v=64
37720 On ch=10 n=81 v=80
37800 Off ch=10 n=81 v=64
37800 On ch=10 n=81 v=56
37880 Off ch=10 n=81 v=64
37880 On ch=10 n=81 v=67
37960 Off ch=10 n=81 v=64
37960 On ch=10 n=81 v=76
38040 Off ch=10 n=81 v=64
38040 On ch=10 n=81 v=58
38120 Off ch=10 n=81 v=64
38120 On ch=10 n=81 v=58
38200 Off ch=10 n=81 v=64
38200 On ch=10 n=81 v=76
38280 Off ch=10 n=81 v=64
38280 On ch=10 n=81 v=59
38360 Off ch=10 n=81 v=64
38360 On ch=10 n=81 v=84
38440 Off ch=10 n=81 v=64
38440 On ch=10 n=81 v=26
38520 Off ch=10 n=81 v=64
38520 On ch=10 n=81 v=90
38600 Off ch=10 n=81 v=64
38600 On ch=10 n=81 v=77
38680 Off ch=10 n=81 v=64
38680 On ch=10 n=81 v=35
38760 Off ch=10 n=81 v=64
38760 On ch=10 n=81 v=67
38840 Off ch=10 n=81 v=64
38840 On ch=10 n=81 v=94
38920 Off ch=10 n=81 v=64
38920 On ch=10 n=81 v=63
39000 Off ch=10 n=81 v=64
39000 On ch=10 n=81 v=50
39080 Off ch=10 n=81 v=64
39080 On ch=10 n=81 v=94
39160 Off ch=10 n=81 v=64
39160 On ch=10 n=81 v=86
39240 Off ch=10 n=81 v=64
39240 On ch=10 n=81 v=63
39320 Off ch=10 n=81 v=64
39320 On ch=10 n=81 v=85
39400 Off ch=10 n=81 v=64
39400 On ch=10 n=81 v=40
39480 Off ch=10 n=81 v=64
39480 On ch=10 n=81 v=58
39560 Off ch=10 n=81 v=64
39560 On ch=10 n=81 v=62
39640 Off ch=10 n=81 v=64
39640 On ch=10 n=81 v=91
39720 Off ch=10 n=81 v=64
39720 On ch=10 n=81 v=66
39800 Off ch=10 n=81 v=64
39800 On ch=10 n=81 v=86
39880 Off ch=10 n=81 v=64
39880 On ch=10 n=81 v=60
39960 Off ch=10 n=81 v=64
39960 On ch=10 n=81 v=79
40040 Off ch=10 n=81 v=64
40040 On ch=10 n=81 v=78
40120 Off ch=10 n=81 v=64
40120 On ch=10 n=81 v=54
40200 Off ch=10 n=81 v=64
40200 Par ch=10 c=7 v=100
40200 Par ch=10 c=10 v=96
40200 Par ch=10 c=93 v=127
40200 On ch=10 n=48 v=120
40253 On ch=10 n=48 v=88
40280 Off ch=10 n=81 v=64
40306 On ch=10 n=48 v=94
40320 Par ch=10 c=10 v=80
40360 Off ch=10 n=81 v=64
40360 On ch=10 n=48 v=86
40413 On ch=10 n=48 v=97
40440 Off ch=10 n=81 v=64
40440 Par ch=10 c=10 v=64
40466 On ch=10 n=48 v=99
40520 Off ch=10 n=81 v=64
40520 On ch=10 n=48 v=102
40560 Par ch=10 c=10 v=48
40600 Off ch=10 n=81 v=64
40600 On ch=10 n=48 v=104
40680 Off ch=10 n=48 v=64
40680 Par ch=10 c=10 v=32
40680 On ch=10 n=47 v=94
40733 Off ch=10 n=48 v=64
40733 On ch=10 n=47 v=97
40786 Off ch=10 n=48 v=64
40786 On ch=10 n=47 v=100
40800 Par ch=10 c=10 v=48
40840 Off ch=10 n=48 v=64
40840 On ch=10 n=47 v=89
40893 Off ch=10 n=48 v=64
40893 On ch=10 n=47 v=97
40920 Par ch=10 c=10 v=64
40936 On ch=10 n=47 v=91
40946 Off ch=10 n=48 v=64
41000 Off ch=10 n=48 v=64
41000 On ch=10 n=47 v=105
41040 Par ch=10 c=10 v=80
41080 Off ch=10 n=48 v=64
41080 On ch=10 n=47 v=95
41160 Off ch=10 n=47 v=64
41160 Par ch=10 c=10 v=96
41160 On ch=10 n=45 v=120
41213 Off ch=10 n=47 v=64
41213 On ch=10 n=45 v=97
41266 Off ch=10 n=47 v=64
41266 On ch=10 n=45 v=97
41320 Off ch=10 n=47 v=64
41320 On ch=10 n=45 v=104
41373 Off ch=10 n=47 v=64
41373 On ch=10 n=45 v=89
41400 Par ch=10 c=10 v=80
41416 Off ch=10 n=47 v=64
41426 On ch=10 n=45 v=97
41480 Off ch=10 n=47 v=64
41480 On ch=10 n=45 v=110
41560 Off ch=10 n=47 v=64
41560 On ch=10 n=45 v=109
41640 Off ch=10 n=45 v=64
41640 Par ch=10 c=10 v=64
41640 On ch=10 n=43 v=120
41693 Off ch=10 n=45 v=64
41693 On ch=10 n=43 v=89
41746 Off ch=10 n=45 v=64
41746 On ch=10 n=43 v=97
41800 Off ch=10 n=45 v=64
41800 On ch=10 n=43 v=91
41853 Off ch=10 n=45 v=64
41853 On ch=10 n=43 v=87
41880 Par ch=10 c=10 v=48
41906 Off ch=10 n=45 v=64
41906 On ch=10 n=43 v=97
41960 Off ch=10 n=45 v=64
41960 On ch=10 n=43 v=101
42040 Off ch=10 n=45 v=64
42040 On ch=10 n=43 v=91
42120 Off ch=10 n=43 v=64
42120 Par ch=10 c=10 v=32
42120 On ch=10 n=43 v=105
42173 Off ch=10 n=43 v=64
42173 On ch=10 n=43 v=97
42226 Off ch=10 n=43 v=64
42226 On ch=10 n=43 v=99
42280 Off ch=10 n=43 v=64
42280 On ch=10 n=43 v=102
42333 Off ch=10 n=43 v=64
42333 On ch=10 n=43 v=97
42360 Par ch=10 c=10 v=48
42386 Off ch=10 n=43 v=64
42386 On ch=10 n=43 v=89
42440 Off ch=10 n=43 v=64
42440 On ch=10 n=43 v=114
42520 Off ch=10 n=43 v=64
42520 On ch=10 n=43 v=101
42600 Off ch=10 n=43 v=64
42600 Par ch=10 c=10 v=64
42600 On ch=10 n=43 v=120
42640 On ch=10 n=43 v=83
42653 Off ch=10 n=43 v=64
42680 On ch=10 n=43 v=89
42706 Off ch=10 n=43 v=64
42720 On ch=10 n=43 v=84
42760 Off ch=10 n=43 v=64
42760 On ch=10 n=36 v=120
42760 On ch=10 n=43 v=119
42800 On ch=10 n=43 v=117
42813 Off ch=10 n=43 v=64
42840 On ch=10 n=36 v=120
42840 On ch=10 n=45 v=92
42866 Off ch=10 n=43 v=64
42880 On ch=10 n=45 v=104
42920 Off ch=10 n=43 v=64
42920 On ch=10 n=36 v=120
42920 On ch=10 n=45 v=88
42960 On ch=10 n=45 v=83
43000 Off ch=10 n=43 v=64
43000 On ch=10 n=36 v=118
43000 On ch=10 n=45 v=120
43040 On ch=10 n=45 v=104
43080 Off ch=10 n=43 v=64
43080 On ch=10 n=47 v=120
43080 On ch=10 n=36 v=118
43120 Off ch=10 n=43 v=64
43120 On ch=10 n=47 v=120
43160 Off ch=10 n=43 v=64
43160 On ch=10 n=36 v=119
43160 On ch=10 n=47 v=101
43200 Off ch=10 n=43 v=64
43200 On ch=10 n=47 v=96
43240 Off ch=10 n=36 v=64
43240 Off ch=10 n=43 v=64
43240 On ch=10 n=36 v=119
43240 On ch=10 n=47 v=118
43280 Off ch=10 n=43 v=64
43280 On ch=10 n=47 v=108
43320 Off ch=10 n=45 v=64
43320 Off ch=10 n=36 v=64
43320 On ch=10 n=36 v=120
43320 On ch=10 n=48 v=118
43360 Off ch=10 n=45 v=64
43360 On ch=10 n=48 v=118
43400 Off ch=10 n=36 v=64
43400 Off ch=10 n=45 v=64
43400 On ch=10 n=36 v=121
43400 On ch=10 n=48 v=87
43440 Off ch=10 n=45 v=64
43440 On ch=10 n=48 v=67
43480 Off ch=10 n=36 v=64
43480 Off ch=10 n=45 v=64
43480 On ch=10 n=36 v=110
43480 On ch=10 n=48 v=84
43520 Off ch=10 n=45 v=64
43520 On ch=10 n=48 v=122
43560 Off ch=10 n=47 v=64
43560 Off ch=10 n=36 v=64
43560 On ch=10 n=36 v=120
43560 On ch=10 n=43 v=113
43600 Off ch=10 n=47 v=64
43600 On ch=10 n=48 v=109
43640 Off ch=10 n=47 v=64
43640 Off ch=10 n=36 v=64
43640 On ch=10 n=48 v=114
43680 Off ch=10 n=47 v=64
43680 On ch=10 n=36 v=117
43680 On ch=10 n=43 v=86
43720 Off ch=10 n=47 v=64
43720 Off ch=10 n=36 v=64
43720 On ch=10 n=48 v=83
43760 Off ch=10 n=47 v=64
43760 On ch=10 n=43 v=100
43800 Off ch=10 n=36 v=64
43800 Off ch=10 n=48 v=64
43800 On ch=10 n=48 v=112
43840 Off ch=10 n=48 v=64
43840 On ch=10 n=48 v=107
43880 Off ch=10 n=36 v=64
43880 Off ch=10 n=48 v=64
43880 On ch=10 n=48 v=114
43920 Off ch=10 n=48 v=64
43920 On ch=10 n=48 v=101
43960 Off ch=10 n=36 v=64
43960 Off ch=10 n=48 v=64
43960 On ch=10 n=48 v=117
44000 Off ch=10 n=48 v=64
44000 On ch=10 n=48 v=94
44040 Off ch=10 n=43 v=64
44040 Off ch=10 n=36 v=64
44040 On ch=10 n=47 v=100
44070 On ch=10 n=48 v=111
44080 Off ch=10 n=48 v=64
44100 On ch=10 n=48 v=102
44120 Off ch=10 n=48 v=64
44130 On ch=10 n=47 v=116
44160 Off ch=10 n=36 v=64
44160 Off ch=10 n=43 v=64
44160 On ch=10 n=48 v=110
44190 On ch=10 n=47 v=72
44200 Off ch=10 n=48 v=64
44220 On ch=10 n=48 v=112
44240 Off ch=10 n=43 v=64
44250 On ch=10 n=48 v=99
44280 Off ch=10 n=48 v=64
44280 On ch=10 n=47 v=108
44320 Off ch=10 n=48 v=64
44320 On ch=10 n=48 v=119
44360 Off ch=10 n=48 v=64
44360 On ch=10 n=48 v=60
44400 Off ch=10 n=48 v=64
44400 On ch=10 n=48 v=100
44440 Off ch=10 n=48 v=64
44440 On ch=10 n=48 v=68
44480 Off ch=10 n=48 v=64
44480 On ch=10 n=48 v=85
44520 Off ch=10 n=47 v=64
44520 On ch=10 n=47 v=100
44550 Off ch=10 n=48 v=64
44550 On ch=10 n=48 v=110
44580 Off ch=10 n=48 v=64
44580 On ch=10 n=48 v=67
44610 Off ch=10 n=47 v=64
44610 On ch=10 n=47 v=60
44640 Off ch=10 n=48 v=64
44640 On ch=10 n=48 v=116
44670 Off ch=10 n=47 v=64
44670 On ch=10 n=47 v=110
44700 Off ch=10 n=48 v=64
44700 On ch=10 n=48 v=115
44730 Off ch=10 n=48 v=64
44730 On ch=10 n=48 v=82
44760 Off ch=10 n=47 v=64
44760 On ch=10 n=47 v=114
44800 Off ch=10 n=48 v=64
44800 On ch=10 n=48 v=119
44840 Off ch=10 n=48 v=64
44840 On ch=10 n=48 v=115
44880 Off ch=10 n=48 v=64
44880 On ch=10 n=48 v=72
44920 Off ch=10 n=48 v=64
44920 On ch=10 n=48 v=97
44960 Off ch=10 n=48 v=64
44960 On ch=10 n=48 v=87
45000 Off ch=10 n=47 v=64
45000 On ch=10 n=48 v=109
45030 Off ch=10 n=48 v=64
45060 Off ch=10 n=48 v=64
45060 On ch=10 n=48 v=106
45090 Off ch=10 n=47 v=64
45120 Off ch=10 n=48 v=64
45120 On ch=10 n=48 v=107
45150 Off ch=10 n=47 v=64
45180 Off ch=10 n=48 v=64
45180 On ch=10 n=48 v=96
45210 Off ch=10 n=48 v=64
45240 Off ch=10 n=47 v=64
45240 On ch=10 n=47 v=110
45280 Off ch=10 n=48 v=64
45280 On ch=10 n=48 v=109
45320 Off ch=10 n=48 v=64
45320 On ch=10 n=48 v=93
45360 Off ch=10 n=48 v=64
45360 On ch=10 n=47 v=105
45400 Off ch=10 n=48 v=64
45400 On ch=10 n=48 v=102
45440 Off ch=10 n=48 v=64
45440 On ch=10 n=47 v=98
45480 Off ch=10 n=48 v=64
45480 On ch=10 n=48 v=109
45540 Off ch=10 n=48 v=64
45600 Off ch=10 n=48 v=64
45600 On ch=10 n=36 v=102
45660 Off ch=10 n=48 v=64
45720 Off ch=10 n=47 v=64
45760 Off ch=10 n=48 v=64
45800 Off ch=10 n=48 v=64
45840 Off ch=10 n=47 v=64
45880 Off ch=10 n=48 v=64
45920 Off ch=10 n=47 v=64
45960 Off ch=10 n=48 v=64
46080 Off ch=10 n=36 v=64
46440 On ch=10 n=48 v=116
46500 On ch=10 n=48 v=119
46560 On ch=10 n=48 v=85
46620 On ch=10 n=48 v=99
46680 On ch=10 n=47 v=113
46740 On ch=10 n=47 v=114
46800 On ch=10 n=47 v=69
46920 Off ch=10 n=48 v=64
46920 On ch=10 n=36 v=126
46920 On ch=10 n=45 v=108
46980 Off ch=10 n=48 v=64
46980 On ch=10 n=45 v=117
47040 Off ch=10 n=48 v=64
47040 On ch=10 n=45 v=122
47100 Off ch=10 n=48 v=64
47160 Off ch=10 n=47 v=64
47160 On ch=10 n=36 v=111
47160 On ch=10 n=43 v=120
47220 Off ch=10 n=47 v=64
47220 On ch=10 n=43 v=109
47280 Off ch=10 n=47 v=64
47280 On ch=10 n=43 v=121
47340 On ch=10 n=36 v=120
47400 Off ch=10 n=36 v=64
47400 Off ch=10 n=45 v=64
47400 On ch=10 n=41 v=118
47460 Off ch=10 n=45 v=64
47460 On ch=10 n=41 v=121
47520 Off ch=10 n=45 v=64
47520 On ch=10 n=41 v=93
47580 On ch=10 n=36 v=117
47640 Off ch=10 n=43 v=64
47640 Off ch=10 n=36 v=64
47640 On ch=10 n=43 v=112
47680 On ch=10 n=36 v=105
47700 Off ch=10 n=43 v=64
47720 On ch=10 n=43 v=95
47760 Off ch=10 n=43 v=64
47760 On ch=10 n=45 v=116
47820 Off ch=10 n=36 v=64
47840 On ch=10 n=47 v=112
47880 Off ch=10 n=41 v=64
47880 On ch=10 n=48 v=100
47940 Off ch=10 n=41 v=64
48000 Off ch=10 n=41 v=64
48000 On ch=10 n=48 v=119
48060 Off ch=10 n=36 v=64
48120 Off ch=10 n=43 v=64
48120 On ch=10 n=48 v=72
48160 Off ch=10 n=36 v=64
48200 Off ch=10 n=43 v=64
48240 Off ch=10 n=45 v=64
48240 On ch=10 n=48 v=117
48320 Off ch=10 n=47 v=64
48360 Off ch=10 n=48 v=64
48360 On ch=10 n=48 v=120
48410 On ch=10 n=48 v=115
48460 On ch=10 n=48 v=95
48480 Off ch=10 n=48 v=64
48510 On ch=10 n=48 v=106
48560 On ch=10 n=48 v=97
48600 Off ch=10 n=48 v=64
48610 On ch=10 n=48 v=103
48660 On ch=10 n=48 v=95
48710 On ch=10 n=48 v=86
48720 Off ch=10 n=48 v=64
48760 On ch=10 n=48 v=106
48810 On ch=10 n=48 v=108
48840 Off ch=10 n=48 v=64
48860 On ch=10 n=48 v=104
48890 Off ch=10 n=48 v=64
48910 On ch=10 n=48 v=96
48940 Off ch=10 n=48 v=64
48960 On ch=10 n=47 v=116
48990 Off ch=10 n=48 v=64
49010 On ch=10 n=47 v=114
49040 Off ch=10 n=48 v=64
49060 On ch=10 n=47 v=102
49090 Off ch=10 n=48 v=64
49110 On ch=10 n=47 v=104
49140 Off ch=10 n=48 v=64
49160 On ch=10 n=47 v=105
49190 Off ch=10 n=48 v=64
49210 On ch=10 n=47 v=103
49240 Off ch=10 n=48 v=64
49260 On ch=10 n=47 v=95
49290 Off ch=10 n=48 v=64
49310 On ch=10 n=47 v=106
49340 Off ch=10 n=48 v=64
49360 On ch=10 n=47 v=111
49390 Off ch=10 n=48 v=64
49410 On ch=10 n=47 v=115
49440 Off ch=10 n=47 v=64
49460 On ch=10 n=47 v=104
49490 Off ch=10 n=47 v=64
49510 On ch=10 n=47 v=96
49540 Off ch=10 n=47 v=64
49560 On ch=10 n=47 v=120
49590 Off ch=10 n=47 v=64
49640 Off ch=10 n=47 v=64
49640 On ch=10 n=47 v=119
49690 Off ch=10 n=47 v=64
49720 On ch=10 n=47 v=74
49740 Off ch=10 n=47 v=64
49790 Off ch=10 n=47 v=64
49800 On ch=10 n=47 v=97
49840 Off ch=10 n=47 v=64
49880 On ch=10 n=47 v=86
49890 Off ch=10 n=47 v=64
49940 Off ch=10 n=47 v=64
49960 On ch=10 n=47 v=82
49990 Off ch=10 n=47 v=64
50040 Off ch=10 n=47 v=64
50040 On ch=10 n=47 v=116
50100 On ch=10 n=36 v=107
50120 Off ch=10 n=47 v=64
50160 On ch=10 n=47 v=73
50200 Off ch=10 n=47 v=64
50220 On ch=10 n=47 v=97
50280 Off ch=10 n=47 v=64
50280 On ch=10 n=45 v=75
50340 On ch=10 n=45 v=60
50360 Off ch=10 n=47 v=64
50400 On ch=10 n=45 v=90
50440 Off ch=10 n=47 v=64
50460 On ch=10 n=36 v=87
50520 Off ch=10 n=47 v=64
50520 On ch=10 n=45 v=120
50580 Off ch=10 n=36 v=64
50580 On ch=10 n=45 v=118
50640 Off ch=10 n=47 v=64
50640 On ch=10 n=45 v=104
50700 Off ch=10 n=47 v=64
50700 On ch=10 n=36 v=90
50760 Off ch=10 n=45 v=64
50760 On ch=10 n=43 v=74
50820 Off ch=10 n=45 v=64
50820 On ch=10 n=43 v=121
50880 Off ch=10 n=45 v=64
50880 On ch=10 n=43 v=67
50940 Off ch=10 n=36 v=64
50940 On ch=10 n=36 v=88
51000 Off ch=10 n=45 v=64
51000 On ch=10 n=38 v=114
51060 Off ch=10 n=45 v=64
51120 Off ch=10 n=45 v=64
51180 Off ch=10 n=36 v=64
51240 Off ch=10 n=43 v=64
51300 Off ch=10 n=43 v=64
51360 Off ch=10 n=43 v=64
51420 Off ch=10 n=36 v=64
51480 Off ch=10 n=38 v=64
51480 On ch=10 n=36 v=118
51480 On ch=10 n=52 v=127
51600 On ch=10 n=47 v=111
51660 On ch=10 n=47 v=113
51720 On ch=10 n=47 v=114
51780 On ch=10 n=47 v=119
51840 On ch=10 n=47 v=112
51900 On ch=10 n=47 v=114
51960 Off ch=10 n=36 v=64
51960 Off ch=10 n=52 v=64
51960 On ch=10 n=47 v=105
52020 On ch=10 n=45 v=101
52080 Off ch=10 n=47 v=64
52080 On ch=10 n=45 v=118
52140 Off ch=10 n=47 v=64
52140 On ch=10 n=45 v=104
52200 Off ch=10 n=47 v=64
52200 On ch=10 n=45 v=114
52260 Off ch=10 n=47 v=64
52260 On ch=10 n=45 v=116
52320 Off ch=10 n=47 v=64
52320 On ch=10 n=45 v=120
52380 Off ch=10 n=47 v=64
52380 On ch=10 n=36 v=120
52440 Off ch=10 n=47 v=64
52440 On ch=10 n=45 v=118
52500 Off ch=10 n=45 v=64
52500 On ch=10 n=47 v=114
52560 Off ch=10 n=45 v=64
52560 On ch=10 n=45 v=73
52620 Off ch=10 n=45 v=64
52620 On ch=10 n=45 v=120
52680 Off ch=10 n=45 v=64
52680 On ch=10 n=45 v=111
52740 Off ch=10 n=45 v=64
52740 On ch=10 n=45 v=108
52800 Off ch=10 n=45 v=64
52800 On ch=10 n=45 v=67
52860 Off ch=10 n=36 v=64
52860 On ch=10 n=45 v=75
52920 Off ch=10 n=45 v=64
52920 On ch=10 n=48 v=119
52980 Off ch=10 n=47 v=64
52980 On ch=10 n=48 v=82
53040 Off ch=10 n=45 v=64
53040 On ch=10 n=48 v=72
53100 Off ch=10 n=45 v=64
53100 On ch=10 n=36 v=117
53160 Off ch=10 n=45 v=64
53160 On ch=10 n=45 v=111
53220 Off ch=10 n=45 v=64
53220 On ch=10 n=45 v=106
53280 Off ch=10 n=45 v=64
53280 On ch=10 n=45 v=94
53340 Off ch=10 n=45 v=64
53340 On ch=10 n=45 v=83
53400 Off ch=10 n=48 v=64
53400 On ch=10 n=48 v=116
53460 Off ch=10 n=48 v=64
53480 On ch=10 n=48 v=115
53520 Off ch=10 n=48 v=64
53560 On ch=10 n=48 v=84
53580 Off ch=10 n=36 v=64
53640 Off ch=10 n=45 v=64
53640 On ch=10 n=48 v=99
53700 Off ch=10 n=45 v=64
53720 On ch=10 n=48 v=64
53760 Off ch=10 n=45 v=64
53800 On ch=10 n=48 v=101
53820 Off ch=10 n=45 v=64
53880 Off ch=10 n=48 v=64
53880 On ch=10 n=48 v=120
53948 On ch=10 n=48 v=122
53960 Off ch=10 n=48 v=64
54016 On ch=10 n=48 v=69
54040 Off ch=10 n=48 v=64
54085 On ch=10 n=48 v=115
54120 Off ch=10 n=48 v=64
54152 On ch=10 n=48 v=113
54200 Off ch=10 n=48 v=64
54220 On ch=10 n=48 v=66
54280 Off ch=10 n=48 v=64
54288 On ch=10 n=52 v=127
54288 On ch=10 n=36 v=117
54360 Off ch=10 n=48 v=64
54360 Par ch=10 c=7 v=120
54360 On ch=10 n=52 v=127
54360 On ch=10 n=36 v=127
54428 Off ch=10 n=48 v=64
54496 Off ch=10 n=48 v=64
54565 Off ch=10 n=48 v=64
54632 Off ch=10 n=48 v=64
54700 Off ch=10 n=48 v=64
54720 On ch=10 n=47 v=109
54768 Off ch=10 n=52 v=64
54768 Off ch=10 n=36 v=64
54840 Off ch=10 n=52 v=64
54840 Off ch=10 n=36 v=64
54840 On ch=10 n=47 v=117
54960 On ch=10 n=47 v=80
55080 On ch=10 n=43 v=103
55200 Off ch=10 n=47 v=64
55200 On ch=10 n=47 v=78
55320 Off ch=10 n=47 v=64
55320 On ch=10 n=47 v=109
55440 Off ch=10 n=47 v=64
55440 On ch=10 n=47 v=107
55560 Off ch=10 n=43 v=64
55560 On ch=10 n=47 v=106
55680 Off ch=10 n=47 v=64
55680 On ch=10 n=47 v=105
55800 Off ch=10 n=47 v=64
55800 On ch=10 n=47 v=115
55920 Off ch=10 n=47 v=64
55920 On ch=10 n=47 v=63
56040 Off ch=10 n=47 v=64
56040 On ch=10 n=47 v=114
56160 Off ch=10 n=47 v=64
56160 On ch=10 n=47 v=83
56280 Off ch=10 n=47 v=64
56280 On ch=10 n=47 v=116
56400 Off ch=10 n=47 v=64
56400 On ch=10 n=47 v=67
56520 Off ch=10 n=47 v=64
56520 On ch=10 n=47 v=104
56640 Off ch=10 n=47 v=64
56640 On ch=10 n=47 v=78
56760 Off ch=10 n=47 v=64
56760 On ch=10 n=36 v=103
56760 On ch=10 n=46 v=127
56880 Off ch=10 n=47 v=64
56880 On ch=10 n=47 v=54
57000 Off ch=10 n=47 v=64
57000 On ch=10 n=47 v=100
57120 Off ch=10 n=47 v=64
57120 On ch=10 n=44 v=127
57240 Off ch=10 n=46 v=64
57240 Off ch=10 n=36 v=64
57240 On ch=10 n=47 v=60
57240 On ch=10 n=44 v=127
57360 Off ch=10 n=47 v=64
57360 On ch=10 n=47 v=67
57480 Off ch=10 n=47 v=64
57480 On ch=10 n=36 v=107
57480 On ch=10 n=44 v=127
57600 Off ch=10 n=44 v=64
57600 On ch=10 n=47 v=112
57720 Off ch=10 n=44 v=64
57720 Off ch=10 n=47 v=64
57720 On ch=10 n=47 v=98
57840 Off ch=10 n=47 v=64
57840 On ch=10 n=47 v=79
57960 Off ch=10 n=44 v=64
57960 Off ch=10 n=36 v=64
57960 On ch=10 n=47 v=117
58080 Off ch=10 n=47 v=64
58080 On ch=10 n=47 v=63
58200 Off ch=10 n=47 v=64
58200 On ch=10 n=47 v=108
58320 Off ch=10 n=47 v=64
58320 On ch=10 n=47 v=107
58440 Off ch=10 n=47 v=64
58440 On ch=10 n=47 v=106
58560 Off ch=10 n=47 v=64
58560 On ch=10 n=47 v=51
58680 Off ch=10 n=47 v=64
58680 On ch=10 n=47 v=112
58800 Off ch=10 n=47 v=64
58800 On ch=10 n=47 v=117
58920 Off ch=10 n=47 v=64
58920 On ch=10 n=47 v=60
59040 Off ch=10 n=47 v=64
59040 On ch=10 n=47 v=100
59160 Off ch=10 n=47 v=64
59160 On ch=10 n=36 v=104
59160 On ch=10 n=44 v=127
59280 Off ch=10 n=47 v=64
59280 On ch=10 n=47 v=100
59400 Off ch=10 n=47 v=64
59400 On ch=10 n=44 v=127
59520 Off ch=10 n=47 v=64
59520 On ch=10 n=47 v=109
59640 Off ch=10 n=44 v=64
59640 Off ch=10 n=36 v=64
59640 On ch=10 n=44 v=127
59760 Off ch=10 n=47 v=64
59760 On ch=10 n=47 v=104
59880 Off ch=10 n=44 v=64
59880 On ch=10 n=36 v=102
59880 On ch=10 n=44 v=127
60000 Off ch=10 n=47 v=64
60000 On ch=10 n=47 v=115
60120 Off ch=10 n=44 v=64
60120 On ch=10 n=44 v=127
60240 Off ch=10 n=47 v=64
60240 On ch=10 n=47 v=108
60360 Off ch=10 n=44 v=64
60360 Off ch=10 n=36 v=64
60360 On ch=10 n=44 v=127
60480 Off ch=10 n=47 v=64
60480 On ch=10 n=47 v=115
60600 Off ch=10 n=44 v=64
60600 On ch=10 n=47 v=106
60720 Off ch=10 n=47 v=64
60720 On ch=10 n=47 v=78
60840 Off ch=10 n=44 v=64
60840 On ch=10 n=47 v=49
60960 Off ch=10 n=47 v=64
60960 On ch=10 n=47 v=53
61080 Off ch=10 n=47 v=64
61080 On ch=10 n=47 v=116
61200 Off ch=10 n=47 v=64
61200 On ch=10 n=47 v=106
61320 Off ch=10 n=47 v=64
61320 On ch=10 n=47 v=87
61440 Off ch=10 n=47 v=64
61440 On ch=10 n=47 v=90
61560 Off ch=10 n=47 v=64
61560 On ch=10 n=44 v=127
61680 Off ch=10 n=47 v=64
61680 On ch=10 n=47 v=86
61800 Off ch=10 n=47 v=64
61800 On ch=10 n=44 v=127
61920 Off ch=10 n=47 v=64
61920 On ch=10 n=47 v=87
62040 Off ch=10 n=44 v=64
62040 On ch=10 n=47 v=85
62040 On ch=10 n=44 v=127
62160 Off ch=10 n=47 v=64
62160 On ch=10 n=47 v=81
62280 Off ch=10 n=44 v=64
62280 On ch=10 n=44 v=127
62400 Off ch=10 n=47 v=64
62400 On ch=10 n=47 v=79
62520 Off ch=10 n=44 v=64
62520 Off ch=10 n=47 v=64
62520 On ch=10 n=44 v=127
62640 Off ch=10 n=47 v=64
62640 On ch=10 n=47 v=76
62760 Off ch=10 n=44 v=64
62760 On ch=10 n=44 v=127
62880 Off ch=10 n=47 v=64
62880 On ch=10 n=47 v=83
63000 Off ch=10 n=44 v=64
63000 On ch=10 n=47 v=99
63120 Off ch=10 n=47 v=64
63120 On ch=10 n=47 v=90
63240 Off ch=10 n=44 v=64
63240 On ch=10 n=47 v=77
63360 Off ch=10 n=47 v=64
63360 On ch=10 n=47 v=103
63480 Off ch=10 n=47 v=64
63480 On ch=10 n=47 v=109
63600 Off ch=10 n=47 v=64
63600 On ch=10 n=47 v=57
63720 Off ch=10 n=47 v=64
63720 On ch=10 n=47 v=59
63840 Off ch=10 n=47 v=64
63840 On ch=10 n=47 v=83
63960 Off ch=10 n=47 v=64
63960 On ch=10 n=44 v=127
64080 Off ch=10 n=47 v=64
64080 On ch=10 n=47 v=86
64200 Off ch=10 n=47 v=64
64200 On ch=10 n=44 v=127
64320 Off ch=10 n=47 v=64
64320 On ch=10 n=47 v=85
64440 Off ch=10 n=44 v=64
64440 On ch=10 n=47 v=91
64440 On ch=10 n=44 v=127
64560 Off ch=10 n=47 v=64
64560 On ch=10 n=47 v=83
64680 Off ch=10 n=44 v=64
64680 On ch=10 n=44 v=127
64800 Off ch=10 n=47 v=64
64800 On ch=10 n=47 v=89
64920 Off ch=10 n=44 v=64
64920 Off ch=10 n=47 v=64
64920 On ch=10 n=44 v=127
65040 Off ch=10 n=47 v=64
65040 On ch=10 n=47 v=75
65160 Off ch=10 n=44 v=64
65160 On ch=10 n=44 v=127
65280 Off ch=10 n=47 v=64
65280 On ch=10 n=47 v=86
65400 Off ch=10 n=44 v=64
65400 On ch=10 n=47 v=103
65520 Off ch=10 n=47 v=64
65520 On ch=10 n=47 v=105
65640 Off ch=10 n=44 v=64
65640 On ch=10 n=47 v=115
65760 Off ch=10 n=47 v=64
65760 On ch=10 n=47 v=110
65880 Off ch=10 n=47 v=64
65880 On ch=10 n=47 v=104
66000 Off ch=10 n=47 v=64
66000 On ch=10 n=47 v=60
66120 Off ch=10 n=47 v=64
66120 On ch=10 n=47 v=81
66240 Off ch=10 n=47 v=64
66240 On ch=10 n=47 v=84
66360 Off ch=10 n=47 v=64
66360 On ch=10 n=44 v=127
66360 On ch=10 n=36 v=127
66480 Off ch=10 n=47 v=64
66480 On ch=10 n=44 v=119
66600 Off ch=10 n=47 v=64
66600 On ch=10 n=44 v=124
66720 Off ch=10 n=47 v=64
66720 On ch=10 n=44 v=113
66840 Off ch=10 n=36 v=64
66840 Off ch=10 n=44 v=64
66840 On ch=10 n=47 v=127
66960 Off ch=10 n=44 v=64
66960 On ch=10 n=44 v=124
67080 Off ch=10 n=44 v=64
67080 On ch=10 n=36 v=127
67080 On ch=10 n=44 v=120
67200 Off ch=10 n=44 v=64
67200 On ch=10 n=44 v=108
67320 Off ch=10 n=47 v=64
67320 On ch=10 n=44 v=112
67440 Off ch=10 n=44 v=64
67440 On ch=10 n=44 v=110
67560 Off ch=10 n=44 v=64
67560 Off ch=10 n=36 v=64
67560 On ch=10 n=44 v=115
67680 Off ch=10 n=44 v=64
67680 On ch=10 n=44 v=112
67800 Off ch=10 n=44 v=64
67800 On ch=10 n=44 v=108
67920 Off ch=10 n=44 v=64
67920 On ch=10 n=44 v=111
68040 Off ch=10 n=44 v=64
68040 On ch=10 n=44 v=120
68160 Off ch=10 n=44 v=64
68160 On ch=10 n=44 v=121
68280 Off ch=10 n=44 v=64
68280 On ch=10 n=44 v=127
68400 Off ch=10 n=44 v=64
68400 On ch=10 n=44 v=106
68520 Off ch=10 n=44 v=64
68520 On ch=10 n=47 v=127
68640 Off ch=10 n=44 v=64
68640 On ch=10 n=47 v=124
68760 Off ch=10 n=44 v=64
68760 On ch=10 n=36 v=127
68760 On ch=10 n=44 v=127
68880 Off ch=10 n=44 v=64
68880 On ch=10 n=44 v=118
69000 Off ch=10 n=47 v=64
69000 On ch=10 n=44 v=125
69120 Off ch=10 n=47 v=64
69120 On ch=10 n=44 v=118
69240 Off ch=10 n=44 v=64
69240 Off ch=10 n=36 v=64
69240 On ch=10 n=47 v=127
69360 Off ch=10 n=44 v=64
69360 On ch=10 n=44 v=123
69480 Off ch=10 n=44 v=64
69480 On ch=10 n=36 v=127
69480 On ch=10 n=44 v=124
69600 Off ch=10 n=44 v=64
69600 On ch=10 n=44 v=109
69720 Off ch=10 n=47 v=64
69720 On ch=10 n=44 v=127
69840 Off ch=10 n=44 v=64
69840 On ch=10 n=44 v=115
69960 Off ch=10 n=44 v=64
69960 Off ch=10 n=36 v=64
69960 On ch=10 n=44 v=123
70080 Off ch=10 n=44 v=64
70080 On ch=10 n=44 v=123
70200 Off ch=10 n=44 v=64
70200 On ch=10 n=47 v=127
70200 On ch=10 n=36 v=127
70320 Off ch=10 n=44 v=64
70320 On ch=10 n=47 v=104
70440 Off ch=10 n=44 v=64
70440 On ch=10 n=47 v=120
70560 Off ch=10 n=44 v=64
70560 On ch=10 n=47 v=110
70680 Off ch=10 n=36 v=64
70680 Off ch=10 n=47 v=64
70680 On ch=10 n=47 v=121
70800 Off ch=10 n=47 v=64
70800 On ch=10 n=47 v=114
70920 Off ch=10 n=47 v=64
71040 Off ch=10 n=47 v=64
71160 Off ch=10 n=47 v=64
71160 On ch=10 n=42 v=127
71160 On ch=10 n=36 v=127
71280 Off ch=10 n=47 v=64
71280 On ch=10 n=42 v=109
71400 On ch=10 n=42 v=114
71520 On ch=10 n=42 v=110
71640 Off ch=10 n=36 v=64
71640 Off ch=10 n=42 v=64
71640 On ch=10 n=47 v=118
71760 Off ch=10 n=42 v=64
71760 On ch=10 n=42 v=97
71880 Off ch=10 n=42 v=64
71880 On ch=10 n=36 v=127
71880 On ch=10 n=42 v=112
72000 Off ch=10 n=42 v=64
72000 On ch=10 n=42 v=81
72120 Off ch=10 n=47 v=64
72120 On ch=10 n=42 v=115
72240 Off ch=10 n=42 v=64
72240 On ch=10 n=42 v=88
72360 Off ch=10 n=42 v=64
72360 Off ch=10 n=36 v=64
72360 On ch=10 n=42 v=100
72480 Off ch=10 n=42 v=64
72480 On ch=10 n=42 v=106
72600 Off ch=10 n=42 v=64
72600 On ch=10 n=42 v=125
72720 Off ch=10 n=42 v=64
72720 On ch=10 n=42 v=71
72840 Off ch=10 n=42 v=64
72840 On ch=10 n=46 v=106
72960 Off ch=10 n=42 v=64
72960 On ch=10 n=46 v=110
73080 Off ch=10 n=42 v=64
73080 On ch=10 n=42 v=117
73200 Off ch=10 n=42 v=64
73200 On ch=10 n=42 v=110
73320 Off ch=10 n=46 v=64
73320 On ch=10 n=47 v=110
73440 Off ch=10 n=46 v=64
73440 On ch=10 n=47 v=108
73560 Off ch=10 n=42 v=64
73560 On ch=10 n=36 v=127
73560 On ch=10 n=42 v=127
73680 Off ch=10 n=42 v=64
73680 On ch=10 n=42 v=83
73800 Off ch=10 n=47 v=64
73800 On ch=10 n=42 v=108
73920 Off ch=10 n=47 v=64
73920 On ch=10 n=42 v=98
74040 Off ch=10 n=42 v=64
74040 Off ch=10 n=36 v=64
74040 On ch=10 n=47 v=118
74160 Off ch=10 n=42 v=64
74160 On ch=10 n=42 v=85
74280 Off ch=10 n=42 v=64
74280 On ch=10 n=36 v=127
74280 On ch=10 n=42 v=100
74400 Off ch=10 n=42 v=64
74400 On ch=10 n=42 v=95
74520 Off ch=10 n=47 v=64
74520 On ch=10 n=42 v=125
74640 Off ch=10 n=42 v=64
74640 On ch=10 n=42 v=89
74760 Off ch=10 n=42 v=64
74760 Off ch=10 n=36 v=64
74760 On ch=10 n=42 v=97
74880 Off ch=10 n=42 v=64
74880 On ch=10 n=42 v=112
75000 Off ch=10 n=42 v=64
75000 On ch=10 n=42 v=124
75120 Off ch=10 n=42 v=64
75120 On ch=10 n=42 v=120
75240 Off ch=10 n=42 v=64
75240 On ch=10 n=46 v=118
75360 Off ch=10 n=42 v=64
75360 On ch=10 n=46 v=122
75480 Off ch=10 n=42 v=64
75480 On ch=10 n=42 v=106
75600 Off ch=10 n=42 v=64
75600 On ch=10 n=42 v=110
75720 Off ch=10 n=46 v=64
75720 On ch=10 n=47 v=114
75840 Off ch=10 n=46 v=64
75840 On ch=10 n=47 v=112
75960 Off ch=10 n=42 v=64
75960 On ch=10 n=36 v=127
75960 On ch=10 n=42 v=127
76080 Off ch=10 n=42 v=64
76080 On ch=10 n=42 v=122
76200 Off ch=10 n=47 v=64
76200 On ch=10 n=42 v=120
76320 Off ch=10 n=47 v=64
76320 On ch=10 n=42 v=100
76440 Off ch=10 n=42 v=64
76440 Off ch=10 n=36 v=64
76440 On ch=10 n=47 v=118
76560 Off ch=10 n=42 v=64
76560 On ch=10 n=42 v=100
76680 Off ch=10 n=42 v=64
76680 On ch=10 n=36 v=127
76680 On ch=10 n=42 v=114
76800 Off ch=10 n=42 v=64
76800 On ch=10 n=42 v=66
76920 Off ch=10 n=47 v=64
76920 On ch=10 n=42 v=114
77040 Off ch=10 n=42 v=64
77040 On ch=10 n=42 v=65
77160 Off ch=10 n=42 v=64
77160 Off ch=10 n=36 v=64
77160 On ch=10 n=42 v=60
77280 Off ch=10 n=42 v=64
77280 On ch=10 n=42 v=73
77400 Off ch=10 n=42 v=64
77400 On ch=10 n=42 v=109
77520 Off ch=10 n=42 v=64
77520 On ch=10 n=42 v=62
77640 Off ch=10 n=42 v=64
77640 On ch=10 n=46 v=111
77760 Off ch=10 n=42 v=64
77760 On ch=10 n=46 v=125
77880 Off ch=10 n=42 v=64
77880 On ch=10 n=42 v=116
78000 Off ch=10 n=42 v=64
78000 On ch=10 n=42 v=115
78120 Off ch=10 n=46 v=64
78120 On ch=10 n=47 v=112
78240 Off ch=10 n=46 v=64
78240 On ch=10 n=47 v=112
78360 Off ch=10 n=42 v=64
78360 On ch=10 n=36 v=127
78360 On ch=10 n=42 v=127
78480 Off ch=10 n=42 v=64
78480 On ch=10 n=42 v=95
78600 Off ch=10 n=47 v=64
78600 On ch=10 n=42 v=110
78720 Off ch=10 n=47 v=64
78720 On ch=10 n=42 v=111
78840 Off ch=10 n=42 v=64
78840 Off ch=10 n=36 v=64
78840 On ch=10 n=47 v=116
78960 Off ch=10 n=42 v=64
78960 On ch=10 n=42 v=72
79080 Off ch=10 n=42 v=64
79080 On ch=10 n=36 v=127
79080 On ch=10 n=42 v=86
79200 Off ch=10 n=42 v=64
79200 On ch=10 n=42 v=88
79320 Off ch=10 n=47 v=64
79320 On ch=10 n=42 v=117
79440 Off ch=10 n=42 v=64
79440 On ch=10 n=42 v=93
79560 Off ch=10 n=42 v=64
79560 Off ch=10 n=36 v=64
79560 On ch=10 n=42 v=102
79680 Off ch=10 n=42 v=64
79680 On ch=10 n=42 v=98
79800 Off ch=10 n=42 v=64
79800 On ch=10 n=42 v=106
79920 Off ch=10 n=42 v=64
79920 On ch=10 n=42 v=106
80040 Off ch=10 n=42 v=64
80040 On ch=10 n=46 v=122
80160 Off ch=10 n=42 v=64
80160 On ch=10 n=46 v=117
80280 Off ch=10 n=42 v=64
80280 On ch=10 n=42 v=110
80400 Off ch=10 n=42 v=64
80400 On ch=10 n=42 v=122
80520 Off ch=10 n=46 v=64
80520 On ch=10 n=47 v=125
80640 Off ch=10 n=46 v=64
80640 On ch=10 n=47 v=112
80760 Off ch=10 n=42 v=64
80760 On ch=10 n=44 v=127
80760 On ch=10 n=36 v=127
80880 Off ch=10 n=42 v=64
80880 On ch=10 n=44 v=100
81000 Off ch=10 n=47 v=64
81000 On ch=10 n=44 v=115
81120 Off ch=10 n=47 v=64
81120 On ch=10 n=44 v=93
81240 Off ch=10 n=36 v=64
81240 Off ch=10 n=44 v=64
81240 On ch=10 n=47 v=106
81360 Off ch=10 n=44 v=64
81360 On ch=10 n=44 v=115
81480 Off ch=10 n=44 v=64
81480 On ch=10 n=36 v=108
81480 On ch=10 n=44 v=100
81600 Off ch=10 n=44 v=64
81600 On ch=10 n=44 v=110
81720 Off ch=10 n=47 v=64
81720 On ch=10 n=44 v=127
81840 Off ch=10 n=44 v=64
81840 On ch=10 n=44 v=119
81960 Off ch=10 n=44 v=64
81960 Off ch=10 n=36 v=64
81960 On ch=10 n=44 v=121
82080 Off ch=10 n=44 v=64
82080 On ch=10 n=44 v=100
82200 Off ch=10 n=44 v=64
82200 On ch=10 n=44 v=123
82320 Off ch=10 n=44 v=64
82440 Off ch=10 n=44 v=64
82440 On ch=10 n=43 v=121
82560 Off ch=10 n=44 v=64
82680 Off ch=10 n=44 v=64
82680 On ch=10 n=44 v=127
82680 On ch=10 n=36 v=113
82800 On ch=10 n=44 v=88
82920 Off ch=10 n=43 v=64
82920 On ch=10 n=44 v=65
83040 On ch=10 n=44 v=105
83160 Off ch=10 n=44 v=64
83160 Off ch=10 n=36 v=64
83160 On ch=10 n=47 v=106
83160 On ch=10 n=44 v=106
83280 Off ch=10 n=44 v=64
83280 On ch=10 n=44 v=49
83400 Off ch=10 n=44 v=64
83400 On ch=10 n=44 v=114
83520 Off ch=10 n=44 v=64
83520 On ch=10 n=44 v=112
83640 Off ch=10 n=44 v=64
83640 Off ch=10 n=47 v=64
83640 On ch=10 n=36 v=107
83640 On ch=10 n=44 v=125
83760 Off ch=10 n=44 v=64
83760 On ch=10 n=44 v=90
83880 Off ch=10 n=44 v=64
83880 On ch=10 n=44 v=67
84000 Off ch=10 n=44 v=64
84000 On ch=10 n=44 v=92
84120 Off ch=10 n=44 v=64
84120 Off ch=10 n=36 v=64
84120 On ch=10 n=44 v=113
84240 Off ch=10 n=44 v=64
84240 On ch=10 n=44 v=79
84360 Off ch=10 n=44 v=64
84360 On ch=10 n=44 v=87
84480 Off ch=10 n=44 v=64
84480 On ch=10 n=44 v=85
84600 Off ch=10 n=44 v=64
84600 On ch=10 n=44 v=127
84720 Off ch=10 n=44 v=64
84720 On ch=10 n=44 v=114
84840 Off ch=10 n=44 v=64
84840 On ch=10 n=44 v=67
84960 Off ch=10 n=44 v=64
84960 On ch=10 n=44 v=111
85080 Off ch=10 n=44 v=64
85080 On ch=10 n=36 v=105
85080 On ch=10 n=44 v=99
85200 Off ch=10 n=44 v=64
85200 On ch=10 n=44 v=90
85320 Off ch=10 n=44 v=64
85320 On ch=10 n=44 v=60
85440 Off ch=10 n=44 v=64
85440 On ch=10 n=44 v=117
85560 Off ch=10 n=44 v=64
85560 Off ch=10 n=36 v=64
85560 On ch=10 n=47 v=115
85560 On ch=10 n=44 v=127
85680 Off ch=10 n=44 v=64
85680 On ch=10 n=44 v=85
85800 Off ch=10 n=44 v=64
85800 On ch=10 n=44 v=102
85920 Off ch=10 n=44 v=64
85920 On ch=10 n=44 v=113
86040 Off ch=10 n=44 v=64
86040 Off ch=10 n=47 v=64
86040 On ch=10 n=36 v=102
86040 On ch=10 n=44 v=101
86160 Off ch=10 n=44 v=64
86160 On ch=10 n=44 v=81
86280 Off ch=10 n=44 v=64
86280 On ch=10 n=44 v=113
86400 Off ch=10 n=44 v=64
86400 On ch=10 n=44 v=86
86520 Off ch=10 n=44 v=64
86520 Off ch=10 n=36 v=64
86520 On ch=10 n=44 v=127
86640 Off ch=10 n=44 v=64
86640 On ch=10 n=44 v=61
86760 Off ch=10 n=44 v=64
86760 On ch=10 n=44 v=104
86880 Off ch=10 n=44 v=64
86880 On ch=10 n=44 v=59
87000 Off ch=10 n=44 v=64
87000 On ch=10 n=44 v=100
87120 Off ch=10 n=44 v=64
87120 On ch=10 n=44 v=114
87240 Off ch=10 n=44 v=64
87240 On ch=10 n=44 v=108
87360 Off ch=10 n=44 v=64
87360 On ch=10 n=44 v=115
87480 Off ch=10 n=44 v=64
87480 On ch=10 n=36 v=115
87480 On ch=10 n=44 v=127
87600 Off ch=10 n=44 v=64
87600 On ch=10 n=44 v=111
87720 Off ch=10 n=44 v=64
87720 On ch=10 n=44 v=100
87840 Off ch=10 n=44 v=64
87840 On ch=10 n=44 v=75
87960 Off ch=10 n=44 v=64
87960 Off ch=10 n=36 v=64
87960 On ch=10 n=44 v=117
88080 Off ch=10 n=44 v=64
88080 On ch=10 n=47 v=112
88080 On ch=10 n=44 v=87
88200 Off ch=10 n=44 v=64
88200 On ch=10 n=44 v=79
88320 Off ch=10 n=44 v=64
88320 On ch=10 n=44 v=60
88440 Off ch=10 n=44 v=64
88440 On ch=10 n=44 v=127
88560 Off ch=10 n=47 v=64
88560 Off ch=10 n=44 v=64
88560 On ch=10 n=44 v=55
88680 Off ch=10 n=44 v=64
88680 On ch=10 n=44 v=83
88800 Off ch=10 n=44 v=64
88800 On ch=10 n=44 v=61
88920 Off ch=10 n=44 v=64
88920 On ch=10 n=44 v=116
89040 Off ch=10 n=44 v=64
89040 On ch=10 n=44 v=54
89160 Off ch=10 n=44 v=64
89160 On ch=10 n=44 v=112
89280 Off ch=10 n=44 v=64
89280 On ch=10 n=44 v=80
89400 Off ch=10 n=44 v=64
89400 On ch=10 n=44 v=127
89520 Off ch=10 n=44 v=64
89520 On ch=10 n=44 v=112
89640 Off ch=10 n=44 v=64
89640 On ch=10 n=44 v=81
89760 Off ch=10 n=44 v=64
89760 On ch=10 n=44 v=110
89880 Off ch=10 n=44 v=64
89880 On ch=10 n=36 v=113
89880 On ch=10 n=44 v=103
90000 Off ch=10 n=44 v=64
90000 On ch=10 n=44 v=88
90120 Off ch=10 n=44 v=64
90120 On ch=10 n=44 v=113
90240 Off ch=10 n=44 v=64
90240 On ch=10 n=44 v=106
90360 Off ch=10 n=36 v=64
90360 Off ch=10 n=44 v=64
90360 On ch=10 n=47 v=105
90360 On ch=10 n=44 v=127
90480 Off ch=10 n=44 v=64
90480 On ch=10 n=44 v=73
90600 Off ch=10 n=44 v=64
90600 On ch=10 n=44 v=98
90720 Off ch=10 n=44 v=64
90720 On ch=10 n=44 v=103
90840 Off ch=10 n=44 v=64
90840 Off ch=10 n=47 v=64
90840 On ch=10 n=36 v=104
90840 On ch=10 n=44 v=116
90960 Off ch=10 n=44 v=64
90960 On ch=10 n=44 v=100
91080 Off ch=10 n=44 v=64
91080 On ch=10 n=44 v=108
91200 Off ch=10 n=44 v=64
91200 On ch=10 n=44 v=53
91320 Off ch=10 n=44 v=64
91320 Off ch=10 n=36 v=64
91320 On ch=10 n=44 v=127
91440 Off ch=10 n=44 v=64
91440 On ch=10 n=44 v=67
91560 Off ch=10 n=44 v=64
91560 On ch=10 n=44 v=51
91680 Off ch=10 n=44 v=64
91680 On ch=10 n=44 v=111
91800 Off ch=10 n=44 v=64
91800 On ch=10 n=44 v=108
91920 Off ch=10 n=44 v=64
91920 On ch=10 n=44 v=74
92040 Off ch=10 n=44 v=64
92040 On ch=10 n=44 v=51
92160 Off ch=10 n=44 v=64
92160 On ch=10 n=44 v=108
92280 Off ch=10 n=44 v=64
92280 On ch=10 n=36 v=104
92280 On ch=10 n=44 v=127
92400 Off ch=10 n=44 v=64
92400 On ch=10 n=44 v=115
92520 Off ch=10 n=44 v=64
92520 On ch=10 n=44 v=83
92640 Off ch=10 n=44 v=64
92640 On ch=10 n=44 v=76
92760 Off ch=10 n=44 v=64
92760 Off ch=10 n=36 v=64
92760 On ch=10 n=44 v=113
92760 On ch=10 n=48 v=105
92880 Off ch=10 n=44 v=64
92880 On ch=10 n=44 v=58
93000 Off ch=10 n=44 v=64
93000 On ch=10 n=44 v=108
93120 Off ch=10 n=44 v=64
93120 On ch=10 n=44 v=117
93240 Off ch=10 n=48 v=64
93240 Off ch=10 n=44 v=64
93240 On ch=10 n=36 v=101
93240 On ch=10 n=44 v=127
93360 Off ch=10 n=44 v=64
93360 On ch=10 n=44 v=81
93480 Off ch=10 n=44 v=64
93480 On ch=10 n=44 v=99
93600 Off ch=10 n=44 v=64
93600 On ch=10 n=44 v=57
93720 Off ch=10 n=44 v=64
93720 Off ch=10 n=36 v=64
93720 On ch=10 n=44 v=113
93840 Off ch=10 n=44 v=64
93840 On ch=10 n=44 v=105
93960 Off ch=10 n=44 v=64
93960 On ch=10 n=44 v=48
94080 Off ch=10 n=44 v=64
94080 On ch=10 n=44 v=113
94200 Off ch=10 n=44 v=64
94200 On ch=10 n=36 v=114
94200 On ch=10 n=44 v=127
94320 Off ch=10 n=44 v=64
94320 On ch=10 n=44 v=83
94440 Off ch=10 n=44 v=64
94440 On ch=10 n=44 v=113
94560 Off ch=10 n=44 v=64
94560 On ch=10 n=44 v=107
94680 Off ch=10 n=44 v=64
94680 Off ch=10 n=36 v=64
94680 On ch=10 n=47 v=106
94680 On ch=10 n=44 v=108
94800 Off ch=10 n=44 v=64
94800 On ch=10 n=44 v=61
94920 Off ch=10 n=44 v=64
94920 On ch=10 n=44 v=80
95040 Off ch=10 n=44 v=64
95040 On ch=10 n=44 v=74
95160 Off ch=10 n=44 v=64
95160 Off ch=10 n=47 v=64
95160 On ch=10 n=36 v=107
95160 On ch=10 n=44 v=126
95280 Off ch=10 n=44 v=64
95280 On ch=10 n=44 v=75
95400 Off ch=10 n=44 v=64
95400 On ch=10 n=44 v=67
95520 Off ch=10 n=44 v=64
95520 On ch=10 n=44 v=100
95640 Off ch=10 n=44 v=64
95640 Off ch=10 n=36 v=64
95640 On ch=10 n=44 v=110
95760 Off ch=10 n=44 v=64
95760 On ch=10 n=44 v=82
95880 Off ch=10 n=44 v=64
95880 On ch=10 n=44 v=48
96000 Off ch=10 n=44 v=64
96000 On ch=10 n=44 v=117
96120 Off ch=10 n=44 v=64
96120 On ch=10 n=44 v=127
96240 Off ch=10 n=44 v=64
96240 On ch=10 n=44 v=92
96360 Off ch=10 n=44 v=64
96360 On ch=10 n=44 v=57
96480 Off ch=10 n=44 v=64
96480 On ch=10 n=44 v=82
96600 Off ch=10 n=44 v=64
96600 On ch=10 n=36 v=112
96600 On ch=10 n=44 v=110
96720 Off ch=10 n=44 v=64
96720 On ch=10 n=44 v=83
96840 Off ch=10 n=44 v=64
96840 On ch=10 n=44 v=49
96960 Off ch=10 n=44 v=64
96960 On ch=10 n=44 v=90
97080 Off ch=10 n=44 v=64
97080 Off ch=10 n=36 v=64
97080 On ch=10 n=47 v=105
97080 On ch=10 n=44 v=127
97200 Off ch=10 n=44 v=64
97200 On ch=10 n=44 v=91
97320 Off ch=10 n=44 v=64
97320 On ch=10 n=44 v=52
97440 Off ch=10 n=44 v=64
97440 On ch=10 n=44 v=108
97560 Off ch=10 n=44 v=64
97560 Off ch=10 n=47 v=64
97560 On ch=10 n=36 v=98
97560 On ch=10 n=44 v=103
97680 Off ch=10 n=44 v=64
97680 On ch=10 n=44 v=85
97800 Off ch=10 n=44 v=64
97800 On ch=10 n=44 v=55
97920 Off ch=10 n=44 v=64
97920 On ch=10 n=44 v=110
98040 Off ch=10 n=44 v=64
98040 Off ch=10 n=36 v=64
98040 On ch=10 n=44 v=127
98160 Off ch=10 n=44 v=64
98160 On ch=10 n=44 v=100
98280 Off ch=10 n=44 v=64
98280 On ch=10 n=44 v=114
98400 Off ch=10 n=44 v=64
98400 On ch=10 n=44 v=75
98520 Off ch=10 n=44 v=64
98520 On ch=10 n=44 v=102
98640 Off ch=10 n=44 v=64
98640 On ch=10 n=44 v=105
98760 Off ch=10 n=44 v=64
98760 On ch=10 n=44 v=114
98880 Off ch=10 n=44 v=64
98880 On ch=10 n=44 v=91
99000 Off ch=10 n=44 v=64
99000 On ch=10 n=36 v=105
99000 On ch=10 n=44 v=127
99120 Off ch=10 n=44 v=64
99120 On ch=10 n=44 v=51
99240 Off ch=10 n=44 v=64
99240 On ch=10 n=44 v=99
99360 Off ch=10 n=44 v=64
99360 On ch=10 n=44 v=65
99480 Off ch=10 n=44 v=64
99480 Off ch=10 n=36 v=64
99480 On ch=10 n=47 v=106
99480 On ch=10 n=44 v=112
99600 Off ch=10 n=44 v=64
99600 On ch=10 n=44 v=50
99720 Off ch=10 n=44 v=64
99720 On ch=10 n=44 v=56
99840 Off ch=10 n=44 v=64
99840 On ch=10 n=44 v=117
99960 Off ch=10 n=44 v=64
99960 Off ch=10 n=47 v=64
99960 On ch=10 n=44 v=127
100080 Off ch=10 n=44 v=64
100080 On ch=10 n=44 v=109
100200 Off ch=10 n=44 v=64
100200 On ch=10 n=44 v=74
100320 Off ch=10 n=44 v=64
100320 On ch=10 n=44 v=110
100440 Off ch=10 n=44 v=64
100440 On ch=10 n=44 v=105
100560 Off ch=10 n=44 v=64
100560 On ch=10 n=44 v=60
100680 Off ch=10 n=44 v=64
100680 On ch=10 n=44 v=77
100800 Off ch=10 n=44 v=64
100800 On ch=10 n=44 v=114
100920 Off ch=10 n=44 v=64
100920 On ch=10 n=44 v=127
101040 Off ch=10 n=44 v=64
101040 On ch=10 n=44 v=117
101160 Off ch=10 n=44 v=64
101160 On ch=10 n=44 v=77
101280 Off ch=10 n=44 v=64
101280 On ch=10 n=44 v=52
101400 Off ch=10 n=44 v=64
101400 On ch=10 n=36 v=104
101400 On ch=10 n=44 v=105
101520 Off ch=10 n=44 v=64
101520 On ch=10 n=44 v=107
101640 Off ch=10 n=44 v=64
101640 On ch=10 n=44 v=110
101760 Off ch=10 n=44 v=64
101760 On ch=10 n=44 v=59
101880 Off ch=10 n=44 v=64
101880 Off ch=10 n=36 v=64
101880 On ch=10 n=47 v=127
102000 Off ch=10 n=44 v=64
102000 On ch=10 n=44 v=85
102120 Off ch=10 n=44 v=64
102120 On ch=10 n=44 v=103
102240 Off ch=10 n=44 v=64
102240 On ch=10 n=44 v=67
102360 Off ch=10 n=47 v=64
102360 On ch=10 n=36 v=127
102360 On ch=10 n=44 v=111
102480 Off ch=10 n=44 v=64
102480 On ch=10 n=44 v=61
102600 Off ch=10 n=44 v=64
102600 On ch=10 n=44 v=98
102720 Off ch=10 n=44 v=64
102720 On ch=10 n=44 v=59
102840 Off ch=10 n=44 v=64
102840 Off ch=10 n=36 v=64
102840 On ch=10 n=44 v=127
102960 Off ch=10 n=44 v=64
102960 On ch=10 n=44 v=109
103080 Off ch=10 n=44 v=64
103080 On ch=10 n=44 v=85
103200 Off ch=10 n=44 v=64
103200 On ch=10 n=44 v=74
103320 Off ch=10 n=44 v=64
103320 On ch=10 n=44 v=115
103440 Off ch=10 n=44 v=64
103440 On ch=10 n=44 v=65
103560 Off ch=10 n=44 v=64
103560 On ch=10 n=44 v=63
103680 Off ch=10 n=44 v=64
103680 On ch=10 n=44 v=59
103800 Off ch=10 n=44 v=64
103800 On ch=10 n=36 v=127
103800 On ch=10 n=44 v=127
103920 Off ch=10 n=44 v=64
103920 On ch=10 n=44 v=115
104040 Off ch=10 n=44 v=64
104040 On ch=10 n=44 v=103
104160 Off ch=10 n=44 v=64
104160 On ch=10 n=44 v=59
104280 Off ch=10 n=44 v=64
104280 Off ch=10 n=36 v=64
104280 On ch=10 n=47 v=127
104280 On ch=10 n=44 v=115
104400 Off ch=10 n=44 v=64
104400 On ch=10 n=44 v=113
104520 Off ch=10 n=44 v=64
104520 On ch=10 n=44 v=78
104640 Off ch=10 n=44 v=64
104640 On ch=10 n=44 v=104
104760 Off ch=10 n=44 v=64
104760 Off ch=10 n=47 v=64
104760 On ch=10 n=47 v=108
104880 Off ch=10 n=44 v=64
104880 On ch=10 n=47 v=56
105000 Off ch=10 n=44 v=64
105000 On ch=10 n=47 v=98
105120 Off ch=10 n=44 v=64
105120 On ch=10 n=47 v=72
105240 Off ch=10 n=47 v=64
105240 On ch=10 n=47 v=81
105360 Off ch=10 n=47 v=64
105360 On ch=10 n=47 v=96
105480 Off ch=10 n=47 v=64
105480 On ch=10 n=47 v=80
105600 Off ch=10 n=47 v=64
105600 On ch=10 n=47 v=105
105720 Off ch=10 n=47 v=64
105720 On ch=10 n=43 v=78
105840 Off ch=10 n=47 v=64
105840 On ch=10 n=43 v=61
105960 Off ch=10 n=47 v=64
105960 On ch=10 n=43 v=101
106080 Off ch=10 n=47 v=64
106080 On ch=10 n=43 v=105
106200 Off ch=10 n=43 v=64
106200 On ch=10 n=43 v=65
106320 Off ch=10 n=43 v=64
106320 On ch=10 n=43 v=108
106440 Off ch=10 n=43 v=64
106440 On ch=10 n=43 v=50
106560 Off ch=10 n=43 v=64
106560 On ch=10 n=43 v=52
106680 Off ch=10 n=43 v=64
106680 On ch=10 n=36 v=127
106680 On ch=10 n=46 v=127
106800 Off ch=10 n=43 v=64
106920 Off ch=10 n=43 v=64
107040 Off ch=10 n=43 v=64
107160 Off ch=10 n=36 v=64
107160 Off ch=10 n=46 v=64
107160 On ch=10 n=36 v=101
107160 On ch=10 n=44 v=115
107280 On ch=10 n=44 v=81
107400 On ch=10 n=44 v=76
107520 On ch=10 n=44 v=79
107640 Off ch=10 n=36 v=64
107640 Off ch=10 n=44 v=64
107640 On ch=10 n=36 v=116
107640 On ch=10 n=44 v=127
107760 Off ch=10 n=44 v=64
107760 On ch=10 n=44 v=66
107880 Off ch=10 n=44 v=64
107880 On ch=10 n=44 v=107
108000 Off ch=10 n=44 v=64
108000 On ch=10 n=44 v=78
108120 Off ch=10 n=44 v=64
108120 Off ch=10 n=36 v=64
108120 On ch=10 n=36 v=98
108120 On ch=10 n=44 v=109
108240 Off ch=10 n=44 v=64
108240 On ch=10 n=44 v=55
108360 Off ch=10 n=44 v=64
108360 On ch=10 n=44 v=85
108480 Off ch=10 n=44 v=64
108480 On ch=10 n=44 v=112
108600 Off ch=10 n=44 v=64
108600 Off ch=10 n=36 v=64
108600 On ch=10 n=44 v=127
108720 Off ch=10 n=44 v=64
108720 On ch=10 n=44 v=58
108840 Off ch=10 n=44 v=64
108840 On ch=10 n=47 v=65
108960 Off ch=10 n=44 v=64
108960 On ch=10 n=47 v=54
109080 Off ch=10 n=44 v=64
109080 On ch=10 n=36 v=126
109080 On ch=10 n=44 v=127
109200 Off ch=10 n=44 v=64
109200 On ch=10 n=44 v=63
109320 Off ch=10 n=47 v=64
109320 On ch=10 n=44 v=88
109440 Off ch=10 n=47 v=64
109440 On ch=10 n=44 v=57
109560 Off ch=10 n=44 v=64
109560 Off ch=10 n=36 v=64
109560 On ch=10 n=36 v=116
109560 On ch=10 n=47 v=108
109560 On ch=10 n=44 v=105
109680 Off ch=10 n=44 v=64
109680 On ch=10 n=44 v=105
109800 Off ch=10 n=44 v=64
109800 On ch=10 n=44 v=108
109920 Off ch=10 n=44 v=64
109920 On ch=10 n=44 v=66
110040 Off ch=10 n=44 v=64
110040 Off ch=10 n=36 v=64
110040 Off ch=10 n=47 v=64
110040 On ch=10 n=36 v=115
110040 On ch=10 n=44 v=127
110160 Off ch=10 n=44 v=64
110160 On ch=10 n=44 v=77
110280 Off ch=10 n=44 v=64
110280 On ch=10 n=44 v=75
110400 Off ch=10 n=44 v=64
110400 On ch=10 n=44 v=55
110520 Off ch=10 n=44 v=64
110520 Off ch=10 n=36 v=64
110520 On ch=10 n=36 v=100
110520 On ch=10 n=44 v=104
110640 Off ch=10 n=44 v=64
110640 On ch=10 n=44 v=57
110760 Off ch=10 n=44 v=64
110760 On ch=10 n=44 v=109
110880 Off ch=10 n=44 v=64
110880 On ch=10 n=44 v=107
111000 Off ch=10 n=44 v=64
111000 Off ch=10 n=36 v=64
111000 On ch=10 n=36 v=114
111000 On ch=10 n=44 v=125
111120 Off ch=10 n=44 v=64
111120 On ch=10 n=44 v=51
111240 Off ch=10 n=44 v=64
111240 On ch=10 n=47 v=62
111360 Off ch=10 n=44 v=64
111360 On ch=10 n=47 v=84
111480 Off ch=10 n=44 v=64
111480 Off ch=10 n=36 v=64
111480 On ch=10 n=36 v=127
111480 On ch=10 n=44 v=127
111600 Off ch=10 n=44 v=64
111600 On ch=10 n=44 v=101
111720 Off ch=10 n=47 v=64
111720 On ch=10 n=44 v=98
111840 Off ch=10 n=47 v=64
111840 On ch=10 n=44 v=80
111960 Off ch=10 n=44 v=64
111960 Off ch=10 n=36 v=64
111960 On ch=10 n=36 v=109
111960 On ch=10 n=47 v=100
111960 On ch=10 n=44 v=111
112080 Off ch=10 n=44 v=64
112080 On ch=10 n=44 v=79
112200 Off ch=10 n=44 v=64
112200 On ch=10 n=44 v=86
112320 Off ch=10 n=44 v=64
112320 On ch=10 n=44 v=82
112440 Off ch=10 n=44 v=64
112440 Off ch=10 n=36 v=64
112440 Off ch=10 n=47 v=64
112440 On ch=10 n=36 v=107
112440 On ch=10 n=44 v=127
112560 Off ch=10 n=44 v=64
112560 On ch=10 n=44 v=86
112680 Off ch=10 n=44 v=64
112680 On ch=10 n=44 v=57
112800 Off ch=10 n=44 v=64
112800 On ch=10 n=44 v=106
112920 Off ch=10 n=44 v=64
112920 Off ch=10 n=36 v=64
112920 On ch=10 n=36 v=102
112920 On ch=10 n=44 v=114
113040 Off ch=10 n=44 v=64
113040 On ch=10 n=44 v=75
113160 Off ch=10 n=44 v=64
113160 On ch=10 n=44 v=115
113280 Off ch=10 n=44 v=64
113280 On ch=10 n=44 v=101
113400 Off ch=10 n=44 v=64
113400 Off ch=10 n=36 v=64
113400 On ch=10 n=36 v=103
113400 On ch=10 n=44 v=126
113520 Off ch=10 n=44 v=64
113520 On ch=10 n=44 v=51
113640 Off ch=10 n=44 v=64
113640 On ch=10 n=47 v=89
113760 Off ch=10 n=44 v=64
113760 On ch=10 n=47 v=115
113880 Off ch=10 n=44 v=64
113880 Off ch=10 n=36 v=64
113880 On ch=10 n=36 v=127
113880 On ch=10 n=44 v=127
114000 Off ch=10 n=44 v=64
114000 On ch=10 n=44 v=89
114120 Off ch=10 n=47 v=64
114120 On ch=10 n=44 v=111
114240 Off ch=10 n=47 v=64
114240 On ch=10 n=44 v=81
114360 Off ch=10 n=44 v=64
114360 Off ch=10 n=36 v=64
114360 On ch=10 n=36 v=113
114360 On ch=10 n=44 v=101
114480 Off ch=10 n=44 v=64
114480 On ch=10 n=44 v=108
114600 Off ch=10 n=44 v=64
114600 On ch=10 n=44 v=65
114720 Off ch=10 n=44 v=64
114720 On ch=10 n=44 v=114
114840 Off ch=10 n=44 v=64
114840 Off ch=10 n=36 v=64
114840 On ch=10 n=36 v=127
114840 On ch=10 n=44 v=125
114960 Off ch=10 n=44 v=64
115080 Off ch=10 n=44 v=64
115080 On ch=10 n=43 v=80
115080 On ch=10 n=45 v=88
115200 Off ch=10 n=44 v=64
115320 Off ch=10 n=44 v=64
115320 Off ch=10 n=36 v=64
115320 On ch=10 n=43 v=92
115320 On ch=10 n=45 v=97
115560 Off ch=10 n=43 v=64
115560 Off ch=10 n=45 v=64
115560 On ch=10 n=43 v=105
115560 On ch=10 n=45 v=86
115800 Off ch=10 n=43 v=64
115800 Off ch=10 n=45 v=64
115800 On ch=10 n=36 v=127
115800 On ch=10 n=44 v=127
115920 On ch=10 n=44 v=88
116040 Off ch=10 n=43 v=64
116040 Off ch=10 n=45 v=64
116040 On ch=10 n=44 v=67
116160 On ch=10 n=44 v=74
116280 Off ch=10 n=44 v=64
116280 Off ch=10 n=36 v=64
116280 On ch=10 n=47 v=110
116280 On ch=10 n=44 v=100
116400 Off ch=10 n=44 v=64
116400 On ch=10 n=44 v=74
116520 Off ch=10 n=44 v=64
116520 On ch=10 n=44 v=50
116640 Off ch=10 n=44 v=64
116640 On ch=10 n=44 v=74
116760 Off ch=10 n=44 v=64
116760 Off ch=10 n=47 v=64
116760 On ch=10 n=36 v=127
116760 On ch=10 n=44 v=125
116880 Off ch=10 n=44 v=64
116880 On ch=10 n=44 v=91
117000 Off ch=10 n=44 v=64
117000 On ch=10 n=44 v=103
117120 Off ch=10 n=44 v=64
117120 On ch=10 n=44 v=89
117240 Off ch=10 n=44 v=64
117240 Off ch=10 n=36 v=64
117240 On ch=10 n=44 v=107
117360 Off ch=10 n=44 v=64
117360 On ch=10 n=44 v=102
117480 Off ch=10 n=44 v=64
117480 On ch=10 n=44 v=114
117600 Off ch=10 n=44 v=64
117600 On ch=10 n=44 v=52
117720 Off ch=10 n=44 v=64
117720 On ch=10 n=44 v=127
117840 Off ch=10 n=44 v=64
117840 On ch=10 n=44 v=64
117960 Off ch=10 n=44 v=64
117960 On ch=10 n=44 v=106
118080 Off ch=10 n=44 v=64
118080 On ch=10 n=44 v=64
118200 Off ch=10 n=44 v=64
118200 On ch=10 n=36 v=126
118200 On ch=10 n=44 v=115
118320 Off ch=10 n=44 v=64
118320 On ch=10 n=44 v=54
118440 Off ch=10 n=44 v=64
118440 On ch=10 n=44 v=100
118560 Off ch=10 n=44 v=64
118560 On ch=10 n=44 v=85
118680 Off ch=10 n=44 v=64
118680 Off ch=10 n=36 v=64
118680 On ch=10 n=47 v=107
118680 On ch=10 n=44 v=127
118800 Off ch=10 n=44 v=64
118800 On ch=10 n=44 v=61
118920 Off ch=10 n=44 v=64
118920 On ch=10 n=44 v=98
119040 Off ch=10 n=44 v=64
119040 On ch=10 n=44 v=115
119160 Off ch=10 n=44 v=64
119160 Off ch=10 n=47 v=64
119160 On ch=10 n=36 v=127
119160 On ch=10 n=44 v=105
119280 Off ch=10 n=44 v=64
119280 On ch=10 n=44 v=117
119400 Off ch=10 n=44 v=64
119400 On ch=10 n=44 v=113
119520 Off ch=10 n=44 v=64
119520 On ch=10 n=44 v=75
119640 Off ch=10 n=44 v=64
119640 Off ch=10 n=36 v=64
119640 On ch=10 n=44 v=127
119760 Off ch=10 n=44 v=64
119760 On ch=10 n=44 v=77
119880 Off ch=10 n=44 v=64
119880 On ch=10 n=44 v=103
120000 Off ch=10 n=44 v=64
120000 On ch=10 n=44 v=78
120120 Off ch=10 n=44 v=64
120120 On ch=10 n=44 v=112
120240 Off ch=10 n=44 v=64
120240 On ch=10 n=44 v=59
120360 Off ch=10 n=44 v=64
120360 On ch=10 n=44 v=51
120480 Off ch=10 n=44 v=64
120480 On ch=10 n=44 v=102
120600 Off ch=10 n=44 v=64
120600 On ch=10 n=36 v=101
120600 On ch=10 n=44 v=127
120720 Off ch=10 n=44 v=64
120720 On ch=10 n=44 v=114
120840 Off ch=10 n=44 v=64
120840 On ch=10 n=44 v=101
120960 Off ch=10 n=44 v=64
120960 On ch=10 n=44 v=106
121080 Off ch=10 n=44 v=64
121080 Off ch=10 n=36 v=64
121080 On ch=10 n=47 v=110
121200 Off ch=10 n=44 v=64
121200 On ch=10 n=44 v=63
121320 Off ch=10 n=44 v=64
121320 On ch=10 n=44 v=74
121440 Off ch=10 n=44 v=64
121440 On ch=10 n=44 v=87
121560 Off ch=10 n=47 v=64
121560 On ch=10 n=36 v=126
121560 On ch=10 n=44 v=127
121680 Off ch=10 n=44 v=64
121680 On ch=10 n=44 v=106
121800 Off ch=10 n=44 v=64
121800 On ch=10 n=44 v=114
121920 Off ch=10 n=44 v=64
121920 On ch=10 n=44 v=86
122040 Off ch=10 n=44 v=64
122040 Off ch=10 n=36 v=64
122040 On ch=10 n=44 v=104
122160 Off ch=10 n=44 v=64
122160 On ch=10 n=44 v=101
122280 Off ch=10 n=44 v=64
122280 On ch=10 n=44 v=63
122400 Off ch=10 n=44 v=64
122400 On ch=10 n=44 v=91
122520 Off ch=10 n=44 v=64
122520 On ch=10 n=44 v=126
122640 Off ch=10 n=44 v=64
122640 On ch=10 n=44 v=50
122760 Off ch=10 n=44 v=64
122760 On ch=10 n=44 v=104
122880 Off ch=10 n=44 v=64
122880 On ch=10 n=44 v=98
123000 Off ch=10 n=44 v=64
123000 On ch=10 n=36 v=115
123000 On ch=10 n=44 v=114
123120 Off ch=10 n=44 v=64
123120 On ch=10 n=44 v=102
123240 Off ch=10 n=44 v=64
123240 On ch=10 n=44 v=98
123360 Off ch=10 n=44 v=64
123360 On ch=10 n=44 v=61
123480 Off ch=10 n=44 v=64
123480 Off ch=10 n=36 v=64
123480 On ch=10 n=47 v=126
123600 Off ch=10 n=44 v=64
123600 On ch=10 n=44 v=89
123720 Off ch=10 n=44 v=64
123720 On ch=10 n=44 v=57
123840 Off ch=10 n=44 v=64
123840 On ch=10 n=44 v=51
123960 Off ch=10 n=47 v=64
123960 On ch=10 n=36 v=113
123960 On ch=10 n=44 v=101
124080 Off ch=10 n=44 v=64
124080 On ch=10 n=44 v=104
124200 Off ch=10 n=44 v=64
124200 On ch=10 n=44 v=54
124320 Off ch=10 n=44 v=64
124320 On ch=10 n=44 v=85
124440 Off ch=10 n=44 v=64
124440 Off ch=10 n=36 v=64
124440 On ch=10 n=44 v=127
124560 Off ch=10 n=44 v=64
124560 On ch=10 n=44 v=58
124680 Off ch=10 n=44 v=64
124680 On ch=10 n=44 v=87
124800 Off ch=10 n=44 v=64
124800 On ch=10 n=44 v=113
124920 Off ch=10 n=44 v=64
124920 On ch=10 n=44 v=107
125040 Off ch=10 n=44 v=64
125040 On ch=10 n=44 v=67
125160 Off ch=10 n=44 v=64
125160 On ch=10 n=44 v=117
125280 Off ch=10 n=44 v=64
125280 On ch=10 n=44 v=112
125400 Off ch=10 n=44 v=64
125400 On ch=10 n=36 v=126
125400 On ch=10 n=44 v=127
125520 Off ch=10 n=44 v=64
125520 On ch=10 n=44 v=103
125640 Off ch=10 n=44 v=64
125640 On ch=10 n=44 v=92
125760 Off ch=10 n=44 v=64
125760 On ch=10 n=44 v=113
125880 Off ch=10 n=44 v=64
125880 Off ch=10 n=36 v=64
125880 On ch=10 n=47 v=127
126000 Off ch=10 n=44 v=64
126000 On ch=10 n=44 v=103
126120 Off ch=10 n=44 v=64
126120 On ch=10 n=44 v=107
126240 Off ch=10 n=44 v=64
126240 On ch=10 n=44 v=101
126360 Off ch=10 n=47 v=64
126360 On ch=10 n=47 v=99
126440 On ch=10 n=47 v=54
126480 Off ch=10 n=44 v=64
126520 On ch=10 n=47 v=114
126600 Off ch=10 n=44 v=64
126600 On ch=10 n=47 v=113
126680 On ch=10 n=47 v=112
126720 Off ch=10 n=44 v=64
126760 On ch=10 n=47 v=109
126840 Off ch=10 n=47 v=64
126840 On ch=10 n=48 v=98
126920 Off ch=10 n=47 v=64
126920 On ch=10 n=48 v=88
127000 Off ch=10 n=47 v=64
127000 On ch=10 n=48 v=89
127080 Off ch=10 n=47 v=64
127080 On ch=10 n=48 v=106
127160 Off ch=10 n=47 v=64
127160 On ch=10 n=48 v=110
127240 Off ch=10 n=47 v=64
127240 On ch=10 n=48 v=88
127320 Off ch=10 n=48 v=64
127320 On ch=10 n=36 v=127
127320 On ch=10 n=46 v=127
127400 Off ch=10 n=48 v=64
127480 Off ch=10 n=48 v=64
127560 Off ch=10 n=48 v=64
127560 On ch=10 n=44 v=87
127640 Off ch=10 n=48 v=64
127680 On ch=10 n=44 v=117
127720 Off ch=10 n=48 v=64
127800 Off ch=10 n=46 v=64
127800 Off ch=10 n=36 v=64
127800 On ch=10 n=47 v=103
127800 On ch=10 n=44 v=113
127920 On ch=10 n=44 v=67
128040 Off ch=10 n=44 v=64
128040 On ch=10 n=44 v=77
128160 Off ch=10 n=44 v=64
128160 On ch=10 n=44 v=77
128280 Off ch=10 n=44 v=64
128280 Off ch=10 n=47 v=64
128280 On ch=10 n=36 v=127
128280 On ch=10 n=44 v=127
128400 Off ch=10 n=44 v=64
128400 On ch=10 n=44 v=89
128520 Off ch=10 n=44 v=64
128520 On ch=10 n=44 v=78
128640 Off ch=10 n=44 v=64
128640 On ch=10 n=44 v=79
128760 Off ch=10 n=44 v=64
128760 Off ch=10 n=36 v=64
128760 On ch=10 n=36 v=110
128760 On ch=10 n=44 v=115
128880 Off ch=10 n=44 v=64
128880 On ch=10 n=44 v=61
129000 Off ch=10 n=44 v=64
129000 On ch=10 n=44 v=67
129120 Off ch=10 n=44 v=64
129120 On ch=10 n=44 v=114
129240 Off ch=10 n=44 v=64
129240 Off ch=10 n=36 v=64
129240 On ch=10 n=44 v=127
129360 Off ch=10 n=44 v=64
129360 On ch=10 n=44 v=73
129480 Off ch=10 n=44 v=64
129480 On ch=10 n=44 v=58
129600 Off ch=10 n=44 v=64
129600 On ch=10 n=44 v=51
129720 Off ch=10 n=44 v=64
129720 On ch=10 n=36 v=98
129720 On ch=10 n=44 v=108
129840 Off ch=10 n=44 v=64
129840 On ch=10 n=44 v=78
129960 Off ch=10 n=44 v=64
129960 On ch=10 n=44 v=54
130080 Off ch=10 n=44 v=64
130080 On ch=10 n=44 v=86
130200 Off ch=10 n=44 v=64
130200 Off ch=10 n=36 v=64
130200 On ch=10 n=47 v=127
130200 On ch=10 n=44 v=127
130320 Off ch=10 n=44 v=64
130320 On ch=10 n=44 v=91
130440 Off ch=10 n=44 v=64
130440 On ch=10 n=44 v=74
130560 Off ch=10 n=44 v=64
130560 On ch=10 n=44 v=79
130680 Off ch=10 n=44 v=64
130680 Off ch=10 n=47 v=64
130680 On ch=10 n=47 v=106
130800 Off ch=10 n=44 v=64
130800 On ch=10 n=47 v=75
130920 Off ch=10 n=44 v=64
130920 On ch=10 n=47 v=102
131040 Off ch=10 n=44 v=64
131040 On ch=10 n=47 v=62
131160 Off ch=10 n=47 v=64
131160 On ch=10 n=36 v=127
131160 On ch=10 n=46 v=127
131280 Off ch=10 n=47 v=64
131400 Off ch=10 n=47 v=64
131400 On ch=10 n=44 v=112
131520 Off ch=10 n=47 v=64
131520 On ch=10 n=44 v=61
131640 Off ch=10 n=46 v=64
131640 Off ch=10 n=36 v=64
131640 On ch=10 n=47 v=98
131640 On ch=10 n=44 v=103
131760 On ch=10 n=44 v=77
131880 Off ch=10 n=44 v=64
131880 On ch=10 n=44 v=113
132000 Off ch=10 n=44 v=64
132000 On ch=10 n=44 v=82
132120 Off ch=10 n=44 v=64
132120 Off ch=10 n=47 v=64
132120 On ch=10 n=36 v=127
132120 On ch=10 n=44 v=127
132240 Off ch=10 n=44 v=64
132240 On ch=10 n=44 v=48
132360 Off ch=10 n=44 v=64
132360 On ch=10 n=44 v=52
132480 Off ch=10 n=44 v=64
132480 On ch=10 n=44 v=90
132600 Off ch=10 n=44 v=64
132600 Off ch=10 n=36 v=64
132600 On ch=10 n=44 v=103
132720 Off ch=10 n=44 v=64
132720 On ch=10 n=44 v=116
132840 Off ch=10 n=44 v=64
132840 On ch=10 n=44 v=91
132960 Off ch=10 n=44 v=64
132960 On ch=10 n=44 v=108
133080 Off ch=10 n=44 v=64
133080 On ch=10 n=44 v=127
133200 Off ch=10 n=44 v=64
133200 On ch=10 n=44 v=89
133320 Off ch=10 n=44 v=64
133320 On ch=10 n=44 v=89
133440 Off ch=10 n=44 v=64
133440 On ch=10 n=44 v=87
133560 Off ch=10 n=44 v=64
133560 On ch=10 n=36 v=99
133560 On ch=10 n=44 v=107
133680 Off ch=10 n=44 v=64
133680 On ch=10 n=44 v=51
133800 Off ch=10 n=44 v=64
133800 On ch=10 n=44 v=65
133920 Off ch=10 n=44 v=64
133920 On ch=10 n=44 v=103
134040 Off ch=10 n=44 v=64
134040 Off ch=10 n=36 v=64
134040 On ch=10 n=47 v=115
134160 Off ch=10 n=44 v=64
134160 On ch=10 n=47 v=73
134280 Off ch=10 n=44 v=64
134280 On ch=10 n=47 v=105
134400 Off ch=10 n=44 v=64
134400 On ch=10 n=47 v=58
134520 Off ch=10 n=47 v=64
134520 On ch=10 n=48 v=107
134640 Off ch=10 n=47 v=64
134640 On ch=10 n=48 v=96
134760 Off ch=10 n=47 v=64
134760 On ch=10 n=48 v=113
134880 Off ch=10 n=47 v=64
134880 On ch=10 n=48 v=80
135000 Off ch=10 n=48 v=64
135000 On ch=10 n=36 v=127
135000 On ch=10 n=46 v=127
135120 Off ch=10 n=48 v=64
135240 Off ch=10 n=48 v=64
135240 On ch=10 n=44 v=103
135360 Off ch=10 n=48 v=64
135360 On ch=10 n=44 v=115
135480 Off ch=10 n=46 v=64
135480 Off ch=10 n=36 v=64
135480 On ch=10 n=47 v=116
135480 On ch=10 n=44 v=117
135600 On ch=10 n=44 v=62
135720 Off ch=10 n=44 v=64
135720 On ch=10 n=44 v=101
135840 Off ch=10 n=44 v=64
135840 On ch=10 n=44 v=84
135960 Off ch=10 n=44 v=64
135960 Off ch=10 n=47 v=64
135960 On ch=10 n=36 v=127
135960 On ch=10 n=44 v=127
136080 Off ch=10 n=44 v=64
136080 On ch=10 n=44 v=98
136200 Off ch=10 n=44 v=64
136200 On ch=10 n=44 v=81
136320 Off ch=10 n=44 v=64
136320 On ch=10 n=44 v=63
136440 Off ch=10 n=44 v=64
136440 Off ch=10 n=36 v=64
136440 On ch=10 n=44 v=108
136560 Off ch=10 n=44 v=64
136560 On ch=10 n=44 v=75
136680 Off ch=10 n=44 v=64
136680 On ch=10 n=44 v=109
136800 Off ch=10 n=44 v=64
136800 On ch=10 n=44 v=79
136920 Off ch=10 n=44 v=64
136920 On ch=10 n=44 v=127
137040 Off ch=10 n=44 v=64
137040 On ch=10 n=44 v=103
137160 Off ch=10 n=44 v=64
137160 On ch=10 n=44 v=58
137280 Off ch=10 n=44 v=64
137280 On ch=10 n=44 v=103
137400 Off ch=10 n=44 v=64
137400 On ch=10 n=36 v=102
137400 On ch=10 n=44 v=109
137520 Off ch=10 n=44 v=64
137520 On ch=10 n=44 v=62
137640 Off ch=10 n=44 v=64
137640 On ch=10 n=44 v=88
137760 Off ch=10 n=44 v=64
137760 On ch=10 n=44 v=48
137880 Off ch=10 n=44 v=64
137880 Off ch=10 n=36 v=64
137880 On ch=10 n=47 v=112
138000 Off ch=10 n=44 v=64
138000 On ch=10 n=47 v=108
138120 Off ch=10 n=44 v=64
138120 On ch=10 n=47 v=100
138240 Off ch=10 n=44 v=64
138240 On ch=10 n=47 v=107
138360 Off ch=10 n=47 v=64
138360 On ch=10 n=47 v=109
138480 Off ch=10 n=47 v=64
138480 On ch=10 n=47 v=52
138600 Off ch=10 n=47 v=64
138600 On ch=10 n=47 v=102
138720 Off ch=10 n=47 v=64
138720 On ch=10 n=47 v=66
138840 Off ch=10 n=47 v=64
138840 On ch=10 n=36 v=127
138840 On ch=10 n=47 v=105
138920 On ch=10 n=47 v=89
138960 Off ch=10 n=47 v=64
139000 On ch=10 n=47 v=109
139080 Off ch=10 n=47 v=64
139080 On ch=10 n=47 v=91
139160 On ch=10 n=47 v=110
139200 Off ch=10 n=47 v=64
139240 On ch=10 n=47 v=91
139320 Off ch=10 n=36 v=64
139320 Off ch=10 n=47 v=64
139320 On ch=10 n=36 v=112
139320 On ch=10 n=48 v=98
139400 Off ch=10 n=47 v=64
139400 On ch=10 n=48 v=103
139480 Off ch=10 n=47 v=64
139480 On ch=10 n=48 v=110
139560 Off ch=10 n=47 v=64
139560 On ch=10 n=48 v=88
139640 Off ch=10 n=47 v=64
139640 On ch=10 n=48 v=100
139720 Off ch=10 n=47 v=64
139720 On ch=10 n=48 v=91
139800 Off ch=10 n=48 v=64
139800 Off ch=10 n=36 v=64
139800 On ch=10 n=36 v=127
139800 On ch=10 n=46 v=127
139880 Off ch=10 n=48 v=64
139960 Off ch=10 n=48 v=64
140040 Off ch=10 n=48 v=64
140040 On ch=10 n=44 v=80
140120 Off ch=10 n=48 v=64
140160 On ch=10 n=44 v=112
140200 Off ch=10 n=48 v=64
140280 Off ch=10 n=36 v=64
140280 Off ch=10 n=46 v=64
140280 On ch=10 n=47 v=116
140400 On ch=10 n=44 v=106
140520 Off ch=10 n=44 v=64
140520 On ch=10 n=36 v=110
140520 On ch=10 n=44 v=50
140640 Off ch=10 n=44 v=64
140640 On ch=10 n=44 v=82
140760 Off ch=10 n=47 v=64
140760 On ch=10 n=44 v=104
140880 Off ch=10 n=44 v=64
140880 On ch=10 n=44 v=66
141000 Off ch=10 n=36 v=64
141000 Off ch=10 n=44 v=64
141000 On ch=10 n=44 v=92
141120 Off ch=10 n=44 v=64
141120 On ch=10 n=44 v=55
141240 Off ch=10 n=44 v=64
141240 On ch=10 n=44 v=127
141360 Off ch=10 n=44 v=64
141360 On ch=10 n=44 v=54
141480 Off ch=10 n=44 v=64
141480 On ch=10 n=44 v=111
141600 Off ch=10 n=44 v=64
141600 On ch=10 n=44 v=67
141720 Off ch=10 n=44 v=64
141720 On ch=10 n=44 v=112
141840 Off ch=10 n=44 v=64
141840 On ch=10 n=44 v=58
141960 Off ch=10 n=44 v=64
141960 On ch=10 n=47 v=114
142080 Off ch=10 n=44 v=64
142080 On ch=10 n=47 v=79
142200 Off ch=10 n=44 v=64
142200 On ch=10 n=36 v=127
142200 On ch=10 n=44 v=127
142320 Off ch=10 n=44 v=64
142320 On ch=10 n=44 v=59
142440 Off ch=10 n=47 v=64
142440 On ch=10 n=44 v=98
142560 Off ch=10 n=47 v=64
142560 On ch=10 n=44 v=114
142680 Off ch=10 n=44 v=64
142680 Off ch=10 n=36 v=64
142680 On ch=10 n=47 v=105
142800 Off ch=10 n=44 v=64
142800 On ch=10 n=44 v=75
142920 Off ch=10 n=44 v=64
142920 On ch=10 n=36 v=99
142920 On ch=10 n=44 v=108
143040 Off ch=10 n=44 v=64
143040 On ch=10 n=44 v=102
143160 Off ch=10 n=47 v=64
143160 On ch=10 n=44 v=113
143280 Off ch=10 n=44 v=64
143280 On ch=10 n=44 v=114
143400 Off ch=10 n=44 v=64
143400 Off ch=10 n=36 v=64
143400 On ch=10 n=44 v=88
143520 Off ch=10 n=44 v=64
143520 On ch=10 n=44 v=85
143640 Off ch=10 n=44 v=64
143640 On ch=10 n=44 v=127
143760 Off ch=10 n=44 v=64
143760 On ch=10 n=44 v=86
143880 Off ch=10 n=44 v=64
143880 On ch=10 n=44 v=98
144000 Off ch=10 n=44 v=64
144000 On ch=10 n=44 v=83
144120 Off ch=10 n=44 v=64
144120 On ch=10 n=44 v=109
144240 Off ch=10 n=44 v=64
144240 On ch=10 n=44 v=114
144360 Off ch=10 n=44 v=64
144360 On ch=10 n=47 v=90
144480 Off ch=10 n=44 v=64
144480 On ch=10 n=47 v=65
144600 Off ch=10 n=44 v=64
144600 On ch=10 n=36 v=127
144600 On ch=10 n=44 v=127
144720 Off ch=10 n=44 v=64
144720 On ch=10 n=44 v=83
144840 Off ch=10 n=47 v=64
144840 On ch=10 n=44 v=50
144960 Off ch=10 n=47 v=64
144960 On ch=10 n=44 v=48
145080 Off ch=10 n=44 v=64
145080 Off ch=10 n=36 v=64
145080 On ch=10 n=47 v=101
145200 Off ch=10 n=44 v=64
145200 On ch=10 n=44 v=49
145320 Off ch=10 n=44 v=64
145320 On ch=10 n=36 v=113
145320 On ch=10 n=44 v=79
145440 Off ch=10 n=44 v=64
145440 On ch=10 n=44 v=73
145560 Off ch=10 n=47 v=64
145560 On ch=10 n=44 v=112
145680 Off ch=10 n=44 v=64
145680 On ch=10 n=44 v=83
145800 Off ch=10 n=44 v=64
145800 Off ch=10 n=36 v=64
145800 On ch=10 n=44 v=115
145920 Off ch=10 n=44 v=64
145920 On ch=10 n=44 v=102
146040 Off ch=10 n=44 v=64
146040 On ch=10 n=44 v=127
146160 Off ch=10 n=44 v=64
146160 On ch=10 n=44 v=115
146280 Off ch=10 n=44 v=64
146280 On ch=10 n=44 v=79
146400 Off ch=10 n=44 v=64
146400 On ch=10 n=44 v=48
146520 Off ch=10 n=44 v=64
146520 On ch=10 n=44 v=113
146640 Off ch=10 n=44 v=64
146640 On ch=10 n=44 v=57
146760 Off ch=10 n=44 v=64
146760 On ch=10 n=47 v=101
146880 Off ch=10 n=44 v=64
146880 On ch=10 n=47 v=62
147000 Off ch=10 n=44 v=64
147000 On ch=10 n=36 v=126
147000 On ch=10 n=44 v=127
147120 Off ch=10 n=44 v=64
147120 On ch=10 n=44 v=81
147240 Off ch=10 n=47 v=64
147240 On ch=10 n=44 v=55
147360 Off ch=10 n=47 v=64
147360 On ch=10 n=44 v=90
147480 Off ch=10 n=44 v=64
147480 Off ch=10 n=36 v=64
147480 On ch=10 n=47 v=105
147600 Off ch=10 n=44 v=64
147600 On ch=10 n=44 v=116
147720 Off ch=10 n=44 v=64
147720 On ch=10 n=36 v=103
147720 On ch=10 n=44 v=116
147840 Off ch=10 n=44 v=64
147840 On ch=10 n=44 v=117
147960 Off ch=10 n=47 v=64
147960 On ch=10 n=44 v=100
148080 Off ch=10 n=44 v=64
148080 On ch=10 n=44 v=101
148200 Off ch=10 n=44 v=64
148200 Off ch=10 n=36 v=64
148200 On ch=10 n=44 v=58
148320 Off ch=10 n=44 v=64
148320 On ch=10 n=44 v=89
148440 Off ch=10 n=44 v=64
148440 On ch=10 n=44 v=126
148560 Off ch=10 n=44 v=64
148560 On ch=10 n=44 v=88
148680 Off ch=10 n=44 v=64
148680 On ch=10 n=44 v=74
148800 Off ch=10 n=44 v=64
148800 On ch=10 n=44 v=61
148920 Off ch=10 n=44 v=64
148920 On ch=10 n=44 v=111
149040 Off ch=10 n=44 v=64
149040 On ch=10 n=44 v=115
149160 Off ch=10 n=44 v=64
149160 On ch=10 n=47 v=81
149280 Off ch=10 n=44 v=64
149280 On ch=10 n=47 v=62
149400 Off ch=10 n=44 v=64
149400 On ch=10 n=36 v=127
149400 On ch=10 n=44 v=127
149520 Off ch=10 n=44 v=64
149520 On ch=10 n=44 v=64
149640 Off ch=10 n=47 v=64
149640 On ch=10 n=44 v=49
149760 Off ch=10 n=47 v=64
149760 On ch=10 n=44 v=81
149880 Off ch=10 n=44 v=64
149880 Off ch=10 n=36 v=64
149880 On ch=10 n=47 v=110
150000 Off ch=10 n=44 v=64
150000 On ch=10 n=44 v=85
150120 Off ch=10 n=44 v=64
150120 On ch=10 n=36 v=116
150120 On ch=10 n=44 v=52
150240 Off ch=10 n=44 v=64
150240 On ch=10 n=44 v=57
150360 Off ch=10 n=47 v=64
150360 On ch=10 n=44 v=102
150480 Off ch=10 n=44 v=64
150480 On ch=10 n=44 v=58
150600 Off ch=10 n=44 v=64
150600 Off ch=10 n=36 v=64
150600 On ch=10 n=44 v=57
150720 Off ch=10 n=44 v=64
150720 On ch=10 n=44 v=54
150840 Off ch=10 n=44 v=64
150840 On ch=10 n=44 v=127
150960 Off ch=10 n=44 v=64
150960 On ch=10 n=44 v=64
151080 Off ch=10 n=44 v=64
151080 On ch=10 n=44 v=100
151200 Off ch=10 n=44 v=64
151200 On ch=10 n=44 v=62
151320 Off ch=10 n=44 v=64
151320 On ch=10 n=44 v=109
151440 Off ch=10 n=44 v=64
151440 On ch=10 n=44 v=81
151560 Off ch=10 n=44 v=64
151560 On ch=10 n=47 v=101
151680 Off ch=10 n=44 v=64
151680 On ch=10 n=47 v=64
151800 Off ch=10 n=44 v=64
151800 On ch=10 n=36 v=127
151800 On ch=10 n=44 v=127
151920 Off ch=10 n=44 v=64
151920 On ch=10 n=44 v=81
152040 Off ch=10 n=47 v=64
152040 On ch=10 n=44 v=112
152160 Off ch=10 n=47 v=64
152160 On ch=10 n=44 v=86
152280 Off ch=10 n=44 v=64
152280 Off ch=10 n=36 v=64
152280 On ch=10 n=47 v=115
152400 Off ch=10 n=44 v=64
152400 On ch=10 n=44 v=81
152520 Off ch=10 n=44 v=64
152520 On ch=10 n=36 v=115
152520 On ch=10 n=44 v=55
152640 Off ch=10 n=44 v=64
152640 On ch=10 n=44 v=51
152760 Off ch=10 n=47 v=64
152760 On ch=10 n=44 v=114
152880 Off ch=10 n=44 v=64
152880 On ch=10 n=44 v=80
153000 Off ch=10 n=44 v=64
153000 Off ch=10 n=36 v=64
153000 On ch=10 n=44 v=98
153120 Off ch=10 n=44 v=64
153120 On ch=10 n=44 v=110
153240 Off ch=10 n=44 v=64
153240 On ch=10 n=44 v=127
153360 Off ch=10 n=44 v=64
153360 On ch=10 n=44 v=105
153480 Off ch=10 n=44 v=64
153480 On ch=10 n=44 v=99
153600 Off ch=10 n=44 v=64
153600 On ch=10 n=44 v=54
153720 Off ch=10 n=44 v=64
153720 On ch=10 n=44 v=103
153840 Off ch=10 n=44 v=64
153840 On ch=10 n=44 v=53
153960 Off ch=10 n=44 v=64
153960 On ch=10 n=48 v=106
154080 Off ch=10 n=44 v=64
154200 Off ch=10 n=44 v=64
154200 On ch=10 n=47 v=127
154320 Off ch=10 n=44 v=64
154320 On ch=10 n=47 v=116
154440 Off ch=10 n=48 v=64
154440 On ch=10 n=47 v=108
154560 On ch=10 n=47 v=102
154680 Off ch=10 n=47 v=64
154680 On ch=10 n=48 v=101
154800 Off ch=10 n=47 v=64
154800 On ch=10 n=48 v=81
154920 Off ch=10 n=47 v=64
154920 On ch=10 n=48 v=111
155040 Off ch=10 n=47 v=64
155040 On ch=10 n=48 v=97
155160 Off ch=10 n=48 v=64
155160 On ch=10 n=43 v=100
155280 Off ch=10 n=48 v=64
155280 On ch=10 n=43 v=91
155400 Off ch=10 n=48 v=64
155400 On ch=10 n=43 v=92
155520 Off ch=10 n=48 v=64
155520 On ch=10 n=36 v=127
155520 On ch=10 n=49 v=127
155640 Off ch=10 n=43 v=64
155760 Off ch=10 n=43 v=64
155880 Off ch=10 n=43 v=64
156000 Off ch=10 n=36 v=64
156000 Off ch=10 n=49 v=64
156480 On ch=10 n=46 v=100
156600 On ch=10 n=46 v=53
156720 On ch=10 n=46 v=85
156840 On ch=10 n=46 v=106
156960 Off ch=10 n=46 v=64
156960 On ch=10 n=46 v=112
157080 Off ch=10 n=46 v=64
157080 On ch=10 n=46 v=105
157200 Off ch=10 n=46 v=64
157200 On ch=10 n=46 v=80
157320 Off ch=10 n=46 v=64
157320 On ch=10 n=46 v=103
157440 Off ch=10 n=46 v=64
157440 On ch=10 n=46 v=115
157560 Off ch=10 n=46 v=64
157560 On ch=10 n=46 v=86
157680 Off ch=10 n=46 v=64
157680 On ch=10 n=46 v=75
157800 Off ch=10 n=46 v=64
157800 On ch=10 n=46 v=79
157920 Off ch=10 n=46 v=64
157920 On ch=10 n=46 v=114
158040 Off ch=10 n=46 v=64
158040 On ch=10 n=46 v=127
158160 Off ch=10 n=46 v=64
158160 On ch=10 n=46 v=102
158280 Off ch=10 n=46 v=64
158280 On ch=10 n=46 v=108
158340 On ch=10 n=46 v=59
158400 Off ch=10 n=46 v=64
158400 On ch=10 n=46 v=90
158460 On ch=10 n=46 v=66
158520 Off ch=10 n=46 v=64
158520 On ch=10 n=46 v=98
158640 Off ch=10 n=46 v=64
158640 On ch=10 n=46 v=52
158760 Off ch=10 n=46 v=64
158760 On ch=10 n=46 v=79
158820 Off ch=10 n=46 v=64
158880 Off ch=10 n=46 v=64
158880 On ch=10 n=46 v=110
158940 Off ch=10 n=46 v=64
159000 Off ch=10 n=46 v=64
159000 On ch=10 n=46 v=73
159120 Off ch=10 n=46 v=64
159120 On ch=10 n=46 v=112
159240 Off ch=10 n=46 v=64
159240 On ch=10 n=46 v=98
159360 Off ch=10 n=46 v=64
159360 On ch=10 n=46 v=82
159480 Off ch=10 n=46 v=64
159480 On ch=10 n=46 v=81
159600 Off ch=10 n=46 v=64
159600 On ch=10 n=46 v=73
159720 Off ch=10 n=46 v=64
159720 On ch=10 n=46 v=117
159840 Off ch=10 n=46 v=64
159840 On ch=10 n=46 v=102
159960 Off ch=10 n=46 v=64
159960 On ch=10 n=46 v=78
160080 Off ch=10 n=46 v=64
160080 On ch=10 n=46 v=58
160200 Off ch=10 n=46 v=64
160200 On ch=10 n=46 v=84
160320 Off ch=10 n=46 v=64
160320 On ch=10 n=46 v=64
160440 Off ch=10 n=46 v=64
160440 On ch=10 n=46 v=126
160560 Off ch=10 n=46 v=64
160560 On ch=10 n=46 v=111
160680 Off ch=10 n=46 v=64
160680 On ch=10 n=46 v=109
160740 On ch=10 n=46 v=114
160800 Off ch=10 n=46 v=64
160800 On ch=10 n=46 v=82
160860 On ch=10 n=46 v=65
160920 Off ch=10 n=46 v=64
160920 On ch=10 n=46 v=114
161040 Off ch=10 n=46 v=64
161040 On ch=10 n=46 v=81
161160 Off ch=10 n=46 v=64
161160 On ch=10 n=46 v=76
161220 Off ch=10 n=46 v=64
161280 Off ch=10 n=46 v=64
161280 On ch=10 n=46 v=56
161340 Off ch=10 n=46 v=64
161400 Off ch=10 n=46 v=64
161400 On ch=10 n=46 v=85
161520 Off ch=10 n=46 v=64
161520 On ch=10 n=46 v=102
161640 Off ch=10 n=46 v=64
161640 On ch=10 n=46 v=99
161760 Off ch=10 n=46 v=64
161760 On ch=10 n=46 v=108
161880 Off ch=10 n=46 v=64
161880 On ch=10 n=46 v=91
162000 Off ch=10 n=46 v=64
162000 On ch=10 n=46 v=54
162120 Off ch=10 n=46 v=64
162120 On ch=10 n=46 v=100
162240 Off ch=10 n=46 v=64
162240 On ch=10 n=46 v=104
162360 Off ch=10 n=46 v=64
162360 On ch=10 n=46 v=90
162480 Off ch=10 n=46 v=64
162480 On ch=10 n=46 v=114
162600 Off ch=10 n=46 v=64
162600 On ch=10 n=46 v=74
162720 Off ch=10 n=46 v=64
162720 On ch=10 n=46 v=65
162840 Off ch=10 n=46 v=64
162840 On ch=10 n=46 v=127
162960 Off ch=10 n=46 v=64
162960 On ch=10 n=46 v=105
163080 Off ch=10 n=46 v=64
163080 On ch=10 n=46 v=111
163140 On ch=10 n=46 v=81
163200 Off ch=10 n=46 v=64
163200 On ch=10 n=46 v=78
163260 On ch=10 n=46 v=73
163320 Off ch=10 n=46 v=64
163320 On ch=10 n=46 v=114
163440 Off ch=10 n=46 v=64
163440 On ch=10 n=46 v=82
163560 Off ch=10 n=46 v=64
163560 On ch=10 n=46 v=88
163620 Off ch=10 n=46 v=64
163680 Off ch=10 n=46 v=64
163680 On ch=10 n=46 v=108
163740 Off ch=10 n=46 v=64
163800 Off ch=10 n=46 v=64
163800 On ch=10 n=46 v=76
163920 Off ch=10 n=46 v=64
163920 On ch=10 n=46 v=79
164040 Off ch=10 n=46 v=64
164040 On ch=10 n=46 v=112
164160 Off ch=10 n=46 v=64
164160 On ch=10 n=46 v=114
164280 Off ch=10 n=46 v=64
164280 On ch=10 n=46 v=87
164400 Off ch=10 n=46 v=64
164400 On ch=10 n=46 v=116
164520 Off ch=10 n=46 v=64
164520 On ch=10 n=46 v=113
164640 Off ch=10 n=46 v=64
164640 On ch=10 n=46 v=114
164760 Off ch=10 n=46 v=64
164760 On ch=10 n=46 v=80
164880 Off ch=10 n=46 v=64
164880 On ch=10 n=46 v=52
165000 Off ch=10 n=46 v=64
165000 On ch=10 n=46 v=80
165120 Off ch=10 n=46 v=64
165120 On ch=10 n=46 v=109
165240 Off ch=10 n=46 v=64
165240 On ch=10 n=46 v=127
165360 Off ch=10 n=46 v=64
165360 On ch=10 n=46 v=103
165480 Off ch=10 n=46 v=64
165480 On ch=10 n=46 v=104
165540 On ch=10 n=46 v=105
165600 Off ch=10 n=46 v=64
165600 On ch=10 n=46 v=83
165660 On ch=10 n=46 v=116
165720 Off ch=10 n=46 v=64
165720 On ch=10 n=46 v=105
165840 Off ch=10 n=46 v=64
165840 On ch=10 n=46 v=54
165960 Off ch=10 n=46 v=64
165960 On ch=10 n=46 v=78
166020 Off ch=10 n=46 v=64
166080 Off ch=10 n=46 v=64
166080 On ch=10 n=46 v=76
166140 Off ch=10 n=46 v=64
166200 Off ch=10 n=46 v=64
166200 On ch=10 n=46 v=90
166320 Off ch=10 n=46 v=64
166320 On ch=10 n=46 v=87
166440 Off ch=10 n=46 v=64
166440 On ch=10 n=46 v=125
166560 Off ch=10 n=46 v=64
166560 On ch=10 n=46 v=63
166680 Off ch=10 n=46 v=64
166680 On ch=10 n=46 v=87
166800 Off ch=10 n=46 v=64
166800 On ch=10 n=46 v=67
166920 Off ch=10 n=46 v=64
166920 On ch=10 n=46 v=113
167040 Off ch=10 n=46 v=64
167040 On ch=10 n=46 v=89
167160 Off ch=10 n=46 v=64
167160 On ch=10 n=46 v=85
167280 Off ch=10 n=46 v=64
167280 On ch=10 n=46 v=103
167400 Off ch=10 n=46 v=64
167400 On ch=10 n=46 v=82
167520 Off ch=10 n=46 v=64
167520 On ch=10 n=46 v=90
167640 Off ch=10 n=46 v=64
167640 On ch=10 n=46 v=127
167760 Off ch=10 n=46 v=64
167760 On ch=10 n=46 v=84
167880 Off ch=10 n=46 v=64
167880 On ch=10 n=46 v=87
168000 Off ch=10 n=46 v=64
168000 On ch=10 n=46 v=64
168120 Off ch=10 n=46 v=64
168120 On ch=10 n=46 v=108
168240 Off ch=10 n=46 v=64
168240 On ch=10 n=46 v=113
168360 Off ch=10 n=46 v=64
168360 On ch=10 n=46 v=76
168480 Off ch=10 n=46 v=64
168480 On ch=10 n=46 v=74
168600 Off ch=10 n=46 v=64
168600 On ch=10 n=46 v=90
168720 Off ch=10 n=46 v=64
168720 On ch=10 n=46 v=51
168840 Off ch=10 n=46 v=64
168840 On ch=10 n=46 v=127
168960 Off ch=10 n=46 v=64
168960 On ch=10 n=46 v=105
169080 Off ch=10 n=46 v=64
169080 On ch=10 n=46 v=102
169140 On ch=10 n=46 v=75
169200 Off ch=10 n=46 v=64
169200 On ch=10 n=46 v=81
169260 On ch=10 n=46 v=58
169320 Off ch=10 n=46 v=64
169320 On ch=10 n=46 v=106
169440 Off ch=10 n=46 v=64
169440 On ch=10 n=46 v=67
169560 Off ch=10 n=46 v=64
169560 On ch=10 n=46 v=77
169620 Off ch=10 n=46 v=64
169680 Off ch=10 n=46 v=64
169680 On ch=10 n=46 v=113
169740 Off ch=10 n=46 v=64
169800 Off ch=10 n=46 v=64
169800 On ch=10 n=46 v=74
169920 Off ch=10 n=46 v=64
169920 On ch=10 n=46 v=52
170040 Off ch=10 n=46 v=64
170040 On ch=10 n=46 v=127
170160 Off ch=10 n=46 v=64
170160 On ch=10 n=46 v=61
170280 Off ch=10 n=46 v=64
170280 On ch=10 n=46 v=80
170400 Off ch=10 n=46 v=64
170400 On ch=10 n=46 v=79
170520 Off ch=10 n=46 v=64
170520 On ch=10 n=46 v=113
170640 Off ch=10 n=46 v=64
170640 On ch=10 n=46 v=67
170760 Off ch=10 n=46 v=64
170760 On ch=10 n=46 v=80
170880 Off ch=10 n=46 v=64
170880 On ch=10 n=46 v=101
171000 Off ch=10 n=46 v=64
171000 On ch=10 n=46 v=74
171120 Off ch=10 n=46 v=64
171120 On ch=10 n=46 v=109
171240 Off ch=10 n=46 v=64
171240 On ch=10 n=46 v=127
171360 Off ch=10 n=46 v=64
171360 On ch=10 n=46 v=114
171480 Off ch=10 n=46 v=64
171480 On ch=10 n=46 v=99
171540 On ch=10 n=46 v=117
171600 Off ch=10 n=46 v=64
171600 On ch=10 n=46 v=82
171660 On ch=10 n=46 v=85
171720 Off ch=10 n=46 v=64
171720 On ch=10 n=46 v=98
171840 Off ch=10 n=46 v=64
171840 On ch=10 n=46 v=107
171960 Off ch=10 n=46 v=64
171960 On ch=10 n=46 v=75
172020 Off ch=10 n=46 v=64
172080 Off ch=10 n=46 v=64
172080 On ch=10 n=46 v=48
172140 Off ch=10 n=46 v=64
172200 Off ch=10 n=46 v=64
172200 On ch=10 n=46 v=87
172320 Off ch=10 n=46 v=64
172320 On ch=10 n=46 v=59
172440 Off ch=10 n=46 v=64
172440 On ch=10 n=46 v=127
172560 Off ch=10 n=46 v=64
172560 On ch=10 n=46 v=115
172680 Off ch=10 n=46 v=64
172680 On ch=10 n=46 v=88
172800 Off ch=10 n=46 v=64
172800 On ch=10 n=46 v=75
172920 Off ch=10 n=46 v=64
172920 On ch=10 n=46 v=115
173040 Off ch=10 n=46 v=64
173040 On ch=10 n=46 v=98
173160 Off ch=10 n=46 v=64
173160 On ch=10 n=46 v=83
173280 Off ch=10 n=46 v=64
173280 On ch=10 n=46 v=79
173400 Off ch=10 n=46 v=64
173400 On ch=10 n=46 v=77
173520 Off ch=10 n=46 v=64
173520 On ch=10 n=46 v=116
173640 Off ch=10 n=46 v=64
173640 On ch=10 n=46 v=127
173760 Off ch=10 n=46 v=64
173760 On ch=10 n=46 v=105
173880 Off ch=10 n=46 v=64
173880 On ch=10 n=46 v=100
173940 On ch=10 n=46 v=107
174000 Off ch=10 n=46 v=64
174000 On ch=10 n=46 v=79
174060 On ch=10 n=46 v=75
174120 Off ch=10 n=46 v=64
174120 On ch=10 n=46 v=101
174240 Off ch=10 n=46 v=64
174240 On ch=10 n=46 v=88
174360 Off ch=10 n=46 v=64
174360 On ch=10 n=46 v=75
174420 Off ch=10 n=46 v=64
174480 Off ch=10 n=46 v=64
174480 On ch=10 n=46 v=77
174540 Off ch=10 n=46 v=64
174600 Off ch=10 n=46 v=64
174600 On ch=10 n=46 v=82
174720 Off ch=10 n=46 v=64
174720 On ch=10 n=46 v=99
174840 Off ch=10 n=46 v=64
174840 On ch=10 n=46 v=127
174960 Off ch=10 n=46 v=64
174960 On ch=10 n=46 v=73
175080 Off ch=10 n=46 v=64
175080 On ch=10 n=46 v=83
175200 Off ch=10 n=46 v=64
175200 On ch=10 n=46 v=53
175320 Off ch=10 n=46 v=64
175320 On ch=10 n=46 v=103
175440 Off ch=10 n=46 v=64
175440 On ch=10 n=46 v=86
175560 Off ch=10 n=46 v=64
175560 On ch=10 n=46 v=89
175680 Off ch=10 n=46 v=64
175680 On ch=10 n=46 v=104
175800 Off ch=10 n=46 v=64
175800 On ch=10 n=46 v=91
175920 Off ch=10 n=46 v=64
175920 On ch=10 n=46 v=73
176040 Off ch=10 n=46 v=64
176040 On ch=10 n=46 v=127
176160 Off ch=10 n=46 v=64
176160 On ch=10 n=46 v=81
176280 Off ch=10 n=46 v=64
176280 On ch=10 n=46 v=90
176400 Off ch=10 n=46 v=64
176400 On ch=10 n=46 v=102
176520 Off ch=10 n=46 v=64
176520 On ch=10 n=46 v=114
176640 Off ch=10 n=46 v=64
176640 On ch=10 n=46 v=114
176760 Off ch=10 n=46 v=64
176760 On ch=10 n=46 v=77
176880 Off ch=10 n=46 v=64
176880 On ch=10 n=46 v=61
177000 Off ch=10 n=46 v=64
177000 On ch=10 n=46 v=76
177120 Off ch=10 n=46 v=64
177120 On ch=10 n=46 v=53
177240 Off ch=10 n=46 v=64
177240 On ch=10 n=46 v=127
177360 Off ch=10 n=46 v=64
177360 On ch=10 n=46 v=109
177480 Off ch=10 n=46 v=64
177480 On ch=10 n=46 v=100
177540 On ch=10 n=46 v=66
177600 Off ch=10 n=46 v=64
177600 On ch=10 n=46 v=89
177660 On ch=10 n=46 v=115
177720 Off ch=10 n=46 v=64
177720 On ch=10 n=46 v=109
177840 Off ch=10 n=46 v=64
177840 On ch=10 n=46 v=52
177960 Off ch=10 n=46 v=64
177960 On ch=10 n=46 v=75
178020 Off ch=10 n=46 v=64
178080 Off ch=10 n=46 v=64
178080 On ch=10 n=46 v=85
178140 Off ch=10 n=46 v=64
178200 Off ch=10 n=46 v=64
178200 On ch=10 n=46 v=91
178320 Off ch=10 n=46 v=64
178320 On ch=10 n=46 v=66
178440 Off ch=10 n=46 v=64
178440 On ch=10 n=46 v=126
178560 Off ch=10 n=46 v=64
178560 On ch=10 n=46 v=87
178680 Off ch=10 n=46 v=64
178680 On ch=10 n=46 v=91
178800 Off ch=10 n=46 v=64
178800 On ch=10 n=46 v=56
178920 Off ch=10 n=46 v=64
178920 On ch=10 n=46 v=91
179040 Off ch=10 n=46 v=64
179040 On ch=10 n=46 v=56
179160 Off ch=10 n=46 v=64
179160 On ch=10 n=46 v=98
179240 On ch=10 n=46 v=109
179280 Off ch=10 n=46 v=64
179320 On ch=10 n=46 v=89
179400 Off ch=10 n=46 v=64
179400 On ch=10 n=46 v=110
179480 On ch=10 n=46 v=63
179520 Off ch=10 n=46 v=64
179560 On ch=10 n=46 v=74
179640 Off ch=10 n=46 v=64
179640 On ch=10 n=46 v=127
179720 Off ch=10 n=46 v=64
179760 On ch=10 n=46 v=65
179800 Off ch=10 n=46 v=64
179880 Off ch=10 n=46 v=64
179880 On ch=10 n=46 v=86
179960 Off ch=10 n=46 v=64
180000 On ch=10 n=46 v=114
180040 Off ch=10 n=46 v=64
180120 Off ch=10 n=46 v=64
180120 On ch=10 n=46 v=106
180240 Off ch=10 n=46 v=64
180240 On ch=10 n=46 v=52
180360 Off ch=10 n=46 v=64
180360 On ch=10 n=46 v=92
180480 Off ch=10 n=46 v=64
180480 On ch=10 n=46 v=84
180600 Off ch=10 n=46 v=64
180600 On ch=10 n=46 v=80
180720 Off ch=10 n=46 v=64
180720 On ch=10 n=46 v=70
180840 Off ch=10 n=46 v=64
180840 On ch=10 n=46 v=127
180960 Off ch=10 n=46 v=64
180960 On ch=10 n=46 v=121
181080 Off ch=10 n=46 v=64
181080 On ch=10 n=46 v=90
181200 Off ch=10 n=46 v=64
181200 On ch=10 n=46 v=117
181320 Off ch=10 n=46 v=64
181320 On ch=10 n=46 v=127
181440 Off ch=10 n=46 v=64
181440 On ch=10 n=46 v=70
181560 Off ch=10 n=46 v=64
181560 On ch=10 n=46 v=119
181640 On ch=10 n=46 v=58
181680 Off ch=10 n=46 v=64
181720 On ch=10 n=46 v=86
181800 Off ch=10 n=46 v=64
181800 On ch=10 n=46 v=118
181880 On ch=10 n=46 v=70
181920 Off ch=10 n=46 v=64
181960 On ch=10 n=46 v=88
182040 Off ch=10 n=46 v=64
182040 On ch=10 n=46 v=127
182120 Off ch=10 n=46 v=64
182160 On ch=10 n=46 v=53
182200 Off ch=10 n=46 v=64
182280 Off ch=10 n=46 v=64
182280 On ch=10 n=46 v=84
182360 Off ch=10 n=46 v=64
182400 On ch=10 n=46 v=96
182440 Off ch=10 n=46 v=64
182520 Off ch=10 n=46 v=64
182520 On ch=10 n=46 v=119
182640 Off ch=10 n=46 v=64
182640 On ch=10 n=46 v=79
182760 Off ch=10 n=46 v=64
182760 On ch=10 n=46 v=95
182880 Off ch=10 n=46 v=64
182880 On ch=10 n=46 v=67
183000 Off ch=10 n=46 v=64
183000 On ch=10 n=46 v=79
183120 Off ch=10 n=46 v=64
183120 On ch=10 n=46 v=63
183240 Off ch=10 n=46 v=64
183240 On ch=10 n=46 v=127
183360 Off ch=10 n=46 v=64
183360 On ch=10 n=46 v=80
183480 Off ch=10 n=46 v=64
183480 On ch=10 n=46 v=82
183600 Off ch=10 n=46 v=64
183600 On ch=10 n=46 v=87
183720 Off ch=10 n=46 v=64
183720 On ch=10 n=46 v=102
183840 Off ch=10 n=46 v=64
183840 On ch=10 n=46 v=119
183960 Off ch=10 n=46 v=64
183960 On ch=10 n=47 v=108
184040 On ch=10 n=47 v=79
184080 Off ch=10 n=46 v=64
184120 On ch=10 n=47 v=89
184200 Off ch=10 n=46 v=64
184200 On ch=10 n=47 v=121
184280 On ch=10 n=47 v=79
184320 Off ch=10 n=46 v=64
184360 On ch=10 n=47 v=90
184440 Off ch=10 n=47 v=64
184440 On ch=10 n=47 v=122
184520 Off ch=10 n=47 v=64
184560 On ch=10 n=47 v=106
184600 Off ch=10 n=47 v=64
184680 Off ch=10 n=47 v=64
184680 On ch=10 n=47 v=108
184760 Off ch=10 n=47 v=64
184800 On ch=10 n=48 v=88
184840 Off ch=10 n=47 v=64
184920 Off ch=10 n=47 v=64
184920 On ch=10 n=47 v=127
185040 Off ch=10 n=47 v=64
185040 On ch=10 n=47 v=59
185160 Off ch=10 n=47 v=64
185160 On ch=10 n=43 v=114
185280 Off ch=10 n=48 v=64
185280 On ch=10 n=47 v=90
185400 Off ch=10 n=47 v=64
185400 On ch=10 n=47 v=127
185520 Off ch=10 n=47 v=64
185520 On ch=10 n=47 v=108
185640 Off ch=10 n=43 v=64
185640 On ch=10 n=47 v=125
185760 Off ch=10 n=47 v=64
185760 On ch=10 n=47 v=85
185880 Off ch=10 n=47 v=64
185880 On ch=10 n=36 v=127
185880 On ch=10 n=46 v=127
186000 Off ch=10 n=47 v=64
186120 Off ch=10 n=47 v=64
186120 On ch=10 n=46 v=104
186240 Off ch=10 n=47 v=64
186240 On ch=10 n=36 v=112
186240 On ch=10 n=46 v=108
186360 Off ch=10 n=46 v=64
186360 Off ch=10 n=36 v=64
186600 Off ch=10 n=46 v=64
186600 On ch=10 n=46 v=106
186720 Off ch=10 n=46 v=64
186720 Off ch=10 n=36 v=64
186840 On ch=10 n=47 v=116
186960 On ch=10 n=47 v=108
187080 Off ch=10 n=46 v=64
187080 On ch=10 n=47 v=114
187200 On ch=10 n=48 v=116
187320 Off ch=10 n=47 v=64
187320 On ch=10 n=47 v=112
187440 Off ch=10 n=47 v=64
187440 On ch=10 n=47 v=76
187560 Off ch=10 n=47 v=64
187560 On ch=10 n=43 v=114
187680 Off ch=10 n=48 v=64
187680 On ch=10 n=47 v=115
187800 Off ch=10 n=47 v=64
187800 On ch=10 n=47 v=117
187920 Off ch=10 n=47 v=64
187920 On ch=10 n=47 v=106
188040 Off ch=10 n=43 v=64
188040 On ch=10 n=47 v=127
188160 Off ch=10 n=47 v=64
188160 On ch=10 n=47 v=116
188280 Off ch=10 n=47 v=64
188280 On ch=10 n=36 v=127
188280 On ch=10 n=46 v=127
188400 Off ch=10 n=47 v=64
188520 Off ch=10 n=47 v=64
188520 On ch=10 n=46 v=108
188640 Off ch=10 n=47 v=64
188640 On ch=10 n=36 v=117
188640 On ch=10 n=46 v=117
188760 Off ch=10 n=36 v=64
188760 Off ch=10 n=46 v=64
189000 Off ch=10 n=46 v=64
189000 On ch=10 n=46 v=104
189120 Off ch=10 n=46 v=64
189120 Off ch=10 n=36 v=64
189240 On ch=10 n=46 v=127
189360 On ch=10 n=46 v=65
189480 Off ch=10 n=46 v=64
189480 On ch=10 n=46 v=89
189600 On ch=10 n=46 v=71
189720 Off ch=10 n=46 v=64
189720 On ch=10 n=46 v=119
189840 Off ch=10 n=46 v=64
189840 On ch=10 n=46 v=102
189960 Off ch=10 n=46 v=64
189960 On ch=10 n=46 v=79
190080 Off ch=10 n=46 v=64
190080 On ch=10 n=46 v=69
190200 Off ch=10 n=46 v=64
190200 On ch=10 n=46 v=90
190320 Off ch=10 n=46 v=64
190320 On ch=10 n=46 v=92
190440 Off ch=10 n=46 v=64
190440 On ch=10 n=46 v=127
190560 Off ch=10 n=46 v=64
190560 On ch=10 n=46 v=67
190680 Off ch=10 n=46 v=64
190680 On ch=10 n=46 v=77
190800 Off ch=10 n=46 v=64
190800 On ch=10 n=46 v=116
190920 Off ch=10 n=46 v=64
190920 On ch=10 n=46 v=127
191040 Off ch=10 n=46 v=64
191040 On ch=10 n=46 v=108
191160 Off ch=10 n=46 v=64
191160 On ch=10 n=46 v=115
191240 On ch=10 n=46 v=70
191280 Off ch=10 n=46 v=64
191320 On ch=10 n=46 v=83
191400 Off ch=10 n=46 v=64
191400 On ch=10 n=46 v=103
191480 On ch=10 n=46 v=53
191520 Off ch=10 n=46 v=64
191560 On ch=10 n=46 v=96
191640 Off ch=10 n=46 v=64
191640 On ch=10 n=46 v=127
191720 Off ch=10 n=46 v=64
191760 On ch=10 n=46 v=107
191800 Off ch=10 n=46 v=64
191880 Off ch=10 n=46 v=64
191880 On ch=10 n=46 v=79
191960 Off ch=10 n=46 v=64
192000 On ch=10 n=46 v=93
192040 Off ch=10 n=46 v=64
192120 Off ch=10 n=46 v=64
192120 On ch=10 n=46 v=108
192240 Off ch=10 n=46 v=64
192240 On ch=10 n=46 v=96
192360 Off ch=10 n=46 v=64
192360 On ch=10 n=46 v=88
192480 Off ch=10 n=46 v=64
192480 On ch=10 n=46 v=108
192600 Off ch=10 n=46 v=64
192600 On ch=10 n=46 v=89
192720 Off ch=10 n=46 v=64
192720 On ch=10 n=46 v=69
192840 Off ch=10 n=46 v=64
192840 On ch=10 n=46 v=127
192960 Off ch=10 n=46 v=64
192960 On ch=10 n=46 v=87
193080 Off ch=10 n=46 v=64
193080 On ch=10 n=46 v=90
193200 Off ch=10 n=46 v=64
193200 On ch=10 n=46 v=63
193320 Off ch=10 n=46 v=64
193320 On ch=10 n=46 v=127
193440 Off ch=10 n=46 v=64
193440 On ch=10 n=46 v=64
193560 Off ch=10 n=46 v=64
193560 On ch=10 n=46 v=115
193640 On ch=10 n=46 v=86
193680 Off ch=10 n=46 v=64
193720 On ch=10 n=46 v=87
193800 Off ch=10 n=46 v=64
193800 On ch=10 n=46 v=105
193880 On ch=10 n=46 v=92
193920 Off ch=10 n=46 v=64
193960 On ch=10 n=46 v=95
194040 Off ch=10 n=46 v=64
194040 On ch=10 n=46 v=127
194120 Off ch=10 n=46 v=64
194160 On ch=10 n=46 v=60
194200 Off ch=10 n=46 v=64
194280 Off ch=10 n=46 v=64
194280 On ch=10 n=46 v=88
194360 Off ch=10 n=46 v=64
194400 On ch=10 n=46 v=113
194440 Off ch=10 n=46 v=64
194520 Off ch=10 n=46 v=64
194520 On ch=10 n=46 v=109
194640 Off ch=10 n=46 v=64
194640 On ch=10 n=46 v=102
194760 Off ch=10 n=46 v=64
194760 On ch=10 n=46 v=82
194880 Off ch=10 n=46 v=64
194880 On ch=10 n=46 v=88
195000 Off ch=10 n=46 v=64
195000 On ch=10 n=46 v=96
195120 Off ch=10 n=46 v=64
195120 On ch=10 n=46 v=79
195240 Off ch=10 n=46 v=64
195240 On ch=10 n=46 v=127
195360 Off ch=10 n=46 v=64
195360 On ch=10 n=46 v=68
195480 Off ch=10 n=46 v=64
195480 On ch=10 n=46 v=80
195600 Off ch=10 n=46 v=64
195600 On ch=10 n=46 v=67
195720 Off ch=10 n=46 v=64
195720 On ch=10 n=46 v=127
195840 Off ch=10 n=46 v=64
195840 On ch=10 n=46 v=93
195960 Off ch=10 n=46 v=64
195960 On ch=10 n=46 v=119
196040 On ch=10 n=46 v=111
196080 Off ch=10 n=46 v=64
196120 On ch=10 n=46 v=93
196200 Off ch=10 n=46 v=64
196200 On ch=10 n=46 v=109
196280 On ch=10 n=46 v=117
196320 Off ch=10 n=46 v=64
196360 On ch=10 n=46 v=87
196440 Off ch=10 n=46 v=64
196440 On ch=10 n=46 v=127
196520 Off ch=10 n=46 v=64
196560 On ch=10 n=46 v=120
196600 Off ch=10 n=46 v=64
196680 Off ch=10 n=46 v=64
196680 On ch=10 n=46 v=90
196760 Off ch=10 n=46 v=64
196800 On ch=10 n=46 v=117
196840 Off ch=10 n=46 v=64
196920 Off ch=10 n=46 v=64
196920 On ch=10 n=46 v=114
197040 Off ch=10 n=46 v=64
197040 On ch=10 n=46 v=85
197160 Off ch=10 n=46 v=64
197160 On ch=10 n=46 v=92
197280 Off ch=10 n=46 v=64
197280 On ch=10 n=46 v=114
197400 Off ch=10 n=46 v=64
197400 On ch=10 n=46 v=81
197520 Off ch=10 n=46 v=64
197520 On ch=10 n=46 v=110
197640 Off ch=10 n=46 v=64
197640 On ch=10 n=46 v=127
197760 Off ch=10 n=46 v=64
197760 On ch=10 n=46 v=87
197880 Off ch=10 n=46 v=64
197880 On ch=10 n=46 v=92
198000 Off ch=10 n=46 v=64
198000 On ch=10 n=46 v=83
198120 Off ch=10 n=46 v=64
198120 On ch=10 n=46 v=127
198240 Off ch=10 n=46 v=64
198240 On ch=10 n=46 v=108
198360 Off ch=10 n=46 v=64
198360 On ch=10 n=46 v=115
198440 On ch=10 n=46 v=86
198480 Off ch=10 n=46 v=64
198520 On ch=10 n=46 v=87
198600 Off ch=10 n=46 v=64
198600 On ch=10 n=46 v=103
198680 On ch=10 n=46 v=93
198720 Off ch=10 n=46 v=64
198760 On ch=10 n=46 v=81
198840 Off ch=10 n=46 v=64
198840 On ch=10 n=36 v=127
198840 On ch=10 n=46 v=127
198920 Off ch=10 n=46 v=64
198960 On ch=10 n=46 v=88
199000 Off ch=10 n=46 v=64
199080 Off ch=10 n=46 v=64
199080 On ch=10 n=46 v=84
199160 Off ch=10 n=46 v=64
199200 On ch=10 n=46 v=106
199240 Off ch=10 n=46 v=64
199320 Off ch=10 n=36 v=64
199320 Off ch=10 n=46 v=64
199320 On ch=10 n=36 v=106
199320 On ch=10 n=46 v=110
199440 Off ch=10 n=46 v=64
199440 On ch=10 n=46 v=85
199560 Off ch=10 n=46 v=64
199560 On ch=10 n=46 v=89
199680 Off ch=10 n=46 v=64
199680 On ch=10 n=46 v=63
199800 Off ch=10 n=36 v=64
199800 Off ch=10 n=46 v=64
199800 On ch=10 n=36 v=127
199800 On ch=10 n=46 v=89
199920 Off ch=10 n=46 v=64
199920 On ch=10 n=46 v=84
200040 Off ch=10 n=46 v=64
200040 On ch=10 n=46 v=127
200160 Off ch=10 n=46 v=64
200160 On ch=10 n=46 v=105
200280 Off ch=10 n=46 v=64
200280 Off ch=10 n=36 v=64
200280 On ch=10 n=36 v=109
200280 On ch=10 n=46 v=86
200400 Off ch=10 n=46 v=64
200400 On ch=10 n=46 v=103
200520 Off ch=10 n=46 v=64
200520 On ch=10 n=36 v=127
200520 On ch=10 n=46 v=117
200640 Off ch=10 n=46 v=64
200640 On ch=10 n=46 v=60
200760 Off ch=10 n=46 v=64
200760 Off ch=10 n=36 v=64
200760 On ch=10 n=46 v=92
200880 Off ch=10 n=46 v=64
200880 On ch=10 n=46 v=94
201000 Off ch=10 n=46 v=64
201000 Off ch=10 n=36 v=64
201000 On ch=10 n=46 v=115
201080 On ch=10 n=46 v=95
201120 Off ch=10 n=46 v=64
201160 On ch=10 n=46 v=119
201240 Off ch=10 n=46 v=64
201240 On ch=10 n=36 v=127
201240 On ch=10 n=46 v=127
201360 Off ch=10 n=46 v=64
201360 On ch=10 n=46 v=53
201480 Off ch=10 n=46 v=64
201480 On ch=10 n=46 v=93
201560 Off ch=10 n=46 v=64
201600 On ch=10 n=46 v=120
201640 Off ch=10 n=46 v=64
201720 Off ch=10 n=46 v=64
201720 Off ch=10 n=36 v=64
201720 On ch=10 n=36 v=102
201720 On ch=10 n=46 v=104
201840 Off ch=10 n=46 v=64
201840 On ch=10 n=46 v=55
201960 Off ch=10 n=46 v=64
201960 On ch=10 n=46 v=91
202080 Off ch=10 n=46 v=64
202080 On ch=10 n=46 v=59
202200 Off ch=10 n=36 v=64
202200 Off ch=10 n=46 v=64
202200 On ch=10 n=36 v=127
202200 On ch=10 n=46 v=77
202320 Off ch=10 n=46 v=64
202320 On ch=10 n=46 v=86
202440 Off ch=10 n=46 v=64
202440 On ch=10 n=46 v=127
202560 Off ch=10 n=46 v=64
202560 On ch=10 n=46 v=60
202680 Off ch=10 n=46 v=64
202680 Off ch=10 n=36 v=64
202680 On ch=10 n=36 v=117
202680 On ch=10 n=46 v=79
202800 Off ch=10 n=46 v=64
202800 On ch=10 n=46 v=92
202920 Off ch=10 n=46 v=64
202920 On ch=10 n=36 v=127
202920 On ch=10 n=46 v=112
203040 Off ch=10 n=46 v=64
203040 On ch=10 n=46 v=114
203160 Off ch=10 n=46 v=64
203160 Off ch=10 n=36 v=64
203160 On ch=10 n=46 v=86
203280 Off ch=10 n=46 v=64
203280 On ch=10 n=46 v=105
203400 Off ch=10 n=46 v=64
203400 Off ch=10 n=36 v=64
203400 On ch=10 n=46 v=108
203480 On ch=10 n=46 v=85
203520 Off ch=10 n=46 v=64
203560 On ch=10 n=46 v=86
203640 Off ch=10 n=46 v=64
203640 On ch=10 n=36 v=127
203640 On ch=10 n=46 v=127
203760 Off ch=10 n=46 v=64
203760 On ch=10 n=46 v=88
203880 Off ch=10 n=46 v=64
203880 On ch=10 n=46 v=94
203960 Off ch=10 n=46 v=64
204000 On ch=10 n=46 v=53
204040 Off ch=10 n=46 v=64
204120 Off ch=10 n=46 v=64
204120 Off ch=10 n=36 v=64
204120 On ch=10 n=36 v=117
204120 On ch=10 n=46 v=104
204240 Off ch=10 n=46 v=64
204240 On ch=10 n=46 v=55
204360 Off ch=10 n=46 v=64
204360 On ch=10 n=46 v=88
204480 Off ch=10 n=46 v=64
204480 On ch=10 n=46 v=96
204600 Off ch=10 n=36 v=64
204600 Off ch=10 n=46 v=64
204600 On ch=10 n=36 v=127
204600 On ch=10 n=46 v=93
204720 Off ch=10 n=46 v=64
204720 On ch=10 n=46 v=91
204840 Off ch=10 n=46 v=64
204840 On ch=10 n=46 v=127
204960 Off ch=10 n=46 v=64
204960 On ch=10 n=46 v=87
205080 Off ch=10 n=46 v=64
205080 Off ch=10 n=36 v=64
205080 On ch=10 n=36 v=106
205080 On ch=10 n=46 v=93
205200 Off ch=10 n=46 v=64
205200 On ch=10 n=46 v=111
205320 Off ch=10 n=46 v=64
205320 On ch=10 n=36 v=127
205320 On ch=10 n=46 v=109
205440 Off ch=10 n=46 v=64
205440 On ch=10 n=46 v=95
205560 Off ch=10 n=46 v=64
205560 Off ch=10 n=36 v=64
205560 On ch=10 n=46 v=127
205640 On ch=10 n=46 v=84
205680 Off ch=10 n=46 v=64
205720 On ch=10 n=46 v=117
205800 Off ch=10 n=46 v=64
205800 Off ch=10 n=36 v=64
205800 On ch=10 n=46 v=112
205880 On ch=10 n=46 v=121
205920 Off ch=10 n=46 v=64
205960 On ch=10 n=46 v=105
206040 Off ch=10 n=46 v=64
206040 On ch=10 n=36 v=127
206040 On ch=10 n=46 v=127
206120 Off ch=10 n=46 v=64
206160 On ch=10 n=46 v=81
206200 Off ch=10 n=46 v=64
206280 Off ch=10 n=46 v=64
206280 On ch=10 n=46 v=94
206360 Off ch=10 n=46 v=64
206400 On ch=10 n=46 v=109
206440 Off ch=10 n=46 v=64
206520 Off ch=10 n=36 v=64
206520 Off ch=10 n=46 v=64
206520 On ch=10 n=36 v=112
206520 On ch=10 n=46 v=117
206640 Off ch=10 n=46 v=64
206640 On ch=10 n=46 v=64
206760 Off ch=10 n=46 v=64
206760 On ch=10 n=46 v=78
206880 Off ch=10 n=46 v=64
206880 On ch=10 n=46 v=84
207000 Off ch=10 n=36 v=64
207000 Off ch=10 n=46 v=64
207000 On ch=10 n=36 v=127
207000 On ch=10 n=46 v=92
207120 Off ch=10 n=46 v=64
207120 On ch=10 n=46 v=87
207240 Off ch=10 n=46 v=64
207240 On ch=10 n=46 v=127
207360 Off ch=10 n=46 v=64
207360 On ch=10 n=46 v=68
207480 Off ch=10 n=46 v=64
207480 Off ch=10 n=36 v=64
207480 On ch=10 n=36 v=106
207480 On ch=10 n=46 v=77
207600 Off ch=10 n=46 v=64
207600 On ch=10 n=46 v=103
207720 Off ch=10 n=46 v=64
207720 On ch=10 n=36 v=127
207720 On ch=10 n=46 v=106
207840 Off ch=10 n=46 v=64
207840 On ch=10 n=46 v=65
207960 Off ch=10 n=46 v=64
207960 Off ch=10 n=36 v=64
207960 On ch=10 n=46 v=127
208040 On ch=10 n=46 v=54
208080 Off ch=10 n=46 v=64
208120 On ch=10 n=46 v=120
208200 Off ch=10 n=46 v=64
208200 Off ch=10 n=36 v=64
208200 On ch=10 n=46 v=116
208280 On ch=10 n=46 v=92
208320 Off ch=10 n=46 v=64
208360 On ch=10 n=46 v=105
208440 Off ch=10 n=46 v=64
208440 On ch=10 n=36 v=127
208440 On ch=10 n=46 v=127
208520 Off ch=10 n=46 v=64
208560 On ch=10 n=46 v=70
208600 Off ch=10 n=46 v=64
208680 Off ch=10 n=46 v=64
208680 On ch=10 n=46 v=89
208760 Off ch=10 n=46 v=64
208800 On ch=10 n=46 v=88
208840 Off ch=10 n=46 v=64
208920 Off ch=10 n=36 v=64
208920 Off ch=10 n=46 v=64
208920 On ch=10 n=36 v=109
208920 On ch=10 n=46 v=118
209040 Off ch=10 n=46 v=64
209040 On ch=10 n=46 v=67
209160 Off ch=10 n=46 v=64
209160 On ch=10 n=46 v=84
209280 Off ch=10 n=46 v=64
209280 On ch=10 n=46 v=120
209400 Off ch=10 n=36 v=64
209400 Off ch=10 n=46 v=64
209400 On ch=10 n=36 v=127
209400 On ch=10 n=46 v=127
209520 Off ch=10 n=46 v=64
209520 On ch=10 n=46 v=102
209640 Off ch=10 n=46 v=64
209640 On ch=10 n=50 v=114
209760 Off ch=10 n=46 v=64
209760 On ch=10 n=50 v=82
209880 Off ch=10 n=46 v=64
209880 Off ch=10 n=36 v=64
209880 On ch=10 n=48 v=105
210000 Off ch=10 n=46 v=64
210000 On ch=10 n=48 v=57
210120 Off ch=10 n=50 v=64
210120 On ch=10 n=47 v=105
210240 Off ch=10 n=50 v=64
210240 On ch=10 n=47 v=78
210360 Off ch=10 n=48 v=64
210360 On ch=10 n=36 v=122
210360 On ch=10 n=46 v=126
210480 Off ch=10 n=48 v=64
210600 Off ch=10 n=47 v=64
210720 Off ch=10 n=47 v=64
210867 Off ch=10 n=36 v=64
210867 Off ch=10 n=46 v=64
327000 Par ch=10 c=7 v=100
327000 Par ch=10 c=93 v=0
327000 On ch=10 n=81 v=122
327060 On ch=10 n=81 v=75
327120 On ch=10 n=81 v=82
327180 On ch=10 n=81 v=74
327240 On ch=10 n=81 v=107
327300 On ch=10 n=81 v=46
327360 On ch=10 n=81 v=74
327420 On ch=10 n=81 v=73
327480 Off ch=10 n=81 v=64
327480 On ch=10 n=81 v=99
327540 Off ch=10 n=81 v=64
327540 On ch=10 n=81 v=107
327600 Off ch=10 n=81 v=64
327600 On ch=10 n=81 v=76
327660 Off ch=10 n=81 v=64
327660 On ch=10 n=81 v=90
327720 Off ch=10 n=81 v=64
327720 On ch=10 n=81 v=91
327780 Off ch=10 n=81 v=64
327780 On ch=10 n=81 v=92
327840 Off ch=10 n=81 v=64
327840 On ch=10 n=81 v=66
327900 Off ch=10 n=81 v=64
327900 On ch=10 n=81 v=51
327960 Off ch=10 n=81 v=64
327960 On ch=10 n=81 v=96
328020 Off ch=10 n=81 v=64
328020 On ch=10 n=81 v=97
328080 Off ch=10 n=81 v=64
328080 On ch=10 n=81 v=81
328140 Off ch=10 n=81 v=64
328140 On ch=10 n=81 v=79
328200 Off ch=10 n=81 v=64
328200 On ch=10 n=81 v=107
328260 Off ch=10 n=81 v=64
328260 On ch=10 n=81 v=75
328320 Off ch=10 n=81 v=64
328320 On ch=10 n=81 v=69
328380 Off ch=10 n=81 v=64
328380 On ch=10 n=81 v=105
328440 Off ch=10 n=81 v=64
328440 On ch=10 n=81 v=99
328500 Off ch=10 n=81 v=64
328500 On ch=10 n=81 v=97
328560 Off ch=10 n=81 v=64
328560 On ch=10 n=81 v=76
328620 Off ch=10 n=81 v=64
328620 On ch=10 n=81 v=95
328680 Off ch=10 n=81 v=64
328680 On ch=10 n=81 v=97
328740 Off ch=10 n=81 v=64
328740 On ch=10 n=81 v=80
328800 Off ch=10 n=81 v=64
328800 On ch=10 n=81 v=75
328860 Off ch=10 n=81 v=64
328860 On ch=10 n=81 v=109
328920 Off ch=10 n=81 v=64
328920 On ch=10 n=81 v=120
328980 Off ch=10 n=81 v=64
328980 On ch=10 n=81 v=55
329040 Off ch=10 n=81 v=64
329040 On ch=10 n=81 v=71
329100 Off ch=10 n=81 v=64
329100 On ch=10 n=81 v=57
329160 Off ch=10 n=81 v=64
329160 On ch=10 n=81 v=103
329220 Off ch=10 n=81 v=64
329220 On ch=10 n=81 v=75
329280 Off ch=10 n=81 v=64
329280 On ch=10 n=81 v=80
329340 Off ch=10 n=81 v=64
329340 On ch=10 n=81 v=52
329400 Off ch=10 n=81 v=64
329400 On ch=10 n=81 v=91
329460 Off ch=10 n=81 v=64
329460 On ch=10 n=81 v=72
329520 Off ch=10 n=81 v=64
329520 On ch=10 n=81 v=55
329580 Off ch=10 n=81 v=64
329580 On ch=10 n=81 v=75
329640 Off ch=10 n=81 v=64
329640 On ch=10 n=81 v=104
329700 Off ch=10 n=81 v=64
329700 On ch=10 n=81 v=56
329760 Off ch=10 n=81 v=64
329760 On ch=10 n=81 v=69
329820 Off ch=10 n=81 v=64
329820 On ch=10 n=81 v=58
329880 Off ch=10 n=81 v=64
329880 On ch=10 n=81 v=91
329940 Off ch=10 n=81 v=64
329940 On ch=10 n=81 v=94
330000 Off ch=10 n=81 v=64
330000 On ch=10 n=81 v=69
330060 Off ch=10 n=81 v=64
330060 On ch=10 n=81 v=100
330120 Off ch=10 n=81 v=64
330120 On ch=10 n=81 v=91
330180 Off ch=10 n=81 v=64
330180 On ch=10 n=81 v=58
330240 Off ch=10 n=81 v=64
330240 On ch=10 n=81 v=79
330300 Off ch=10 n=81 v=64
330300 On ch=10 n=81 v=80
330360 Off ch=10 n=81 v=64
330360 On ch=10 n=81 v=93
330420 Off ch=10 n=81 v=64
330420 On ch=10 n=81 v=102
330480 Off ch=10 n=81 v=64
330480 On ch=10 n=81 v=69
330540 Off ch=10 n=81 v=64
330540 On ch=10 n=81 v=102
330600 Off ch=10 n=81 v=64
330600 On ch=10 n=81 v=102
330660 Off ch=10 n=81 v=64
330660 On ch=10 n=81 v=72
330720 Off ch=10 n=81 v=64
330720 On ch=10 n=81 v=81
330780 Off ch=10 n=81 v=64
330780 On ch=10 n=81 v=55
330840 Off ch=10 n=81 v=64
330840 On ch=10 n=81 v=72
330900 Off ch=10 n=81 v=64
330960 Off ch=10 n=81 v=64
331020 Off ch=10 n=81 v=64
331080 Off ch=10 n=81 v=64
331140 Off ch=10 n=81 v=64
331200 Off ch=10 n=81 v=64
331260 Off ch=10 n=81 v=64
331320 Off ch=10 n=81 v=64
332280 Par ch=10 c=7 v=127
332280 Par ch=10 c=93 v=127
332760 On ch=10 n=38 v=127
332880 On ch=10 n=38 v=119
333000 On ch=10 n=36 v=125
333000 On ch=10 n=46 v=126
333240 Off ch=10 n=38 v=64
333240 On ch=10 n=38 v=127
333360 Off ch=10 n=38 v=64
333360 On ch=10 n=38 v=119
333480 Off ch=10 n=46 v=64
333480 Off ch=10 n=36 v=64
333480 On ch=10 n=36 v=120
333480 On ch=10 n=46 v=127
333720 Off ch=10 n=38 v=64
333720 On ch=10 n=38 v=127
333840 Off ch=10 n=38 v=64
333840 On ch=10 n=38 v=118
333960 Off ch=10 n=46 v=64
333960 Off ch=10 n=36 v=64
333960 On ch=10 n=36 v=124
333960 On ch=10 n=46 v=127
334200 Off ch=10 n=38 v=64
334200 On ch=10 n=36 v=123
334200 On ch=10 n=46 v=127
334320 Off ch=10 n=38 v=64
334440 Off ch=10 n=46 v=64
334440 Off ch=10 n=36 v=64
334440 On ch=10 n=38 v=126
334560 On ch=10 n=38 v=121
334680 Off ch=10 n=36 v=64
334680 Off ch=10 n=46 v=64
334680 On ch=10 n=36 v=125
334680 On ch=10 n=49 v=126
334920 Off ch=10 n=38 v=64
334920 On ch=10 n=46 v=127
335040 Off ch=10 n=38 v=64
335160 Off ch=10 n=49 v=64
335160 Off ch=10 n=36 v=64
335400 Off ch=10 n=46 v=64
335640 Par ch=10 c=7 v=100
335640 Par ch=10 c=93 v=0
337080 On ch=10 n=81 v=125
337140 On ch=10 n=81 v=49
337200 On ch=10 n=81 v=74
337260 On ch=10 n=81 v=92
337320 On ch=10 n=81 v=105
337380 On ch=10 n=81 v=72
337440 On ch=10 n=81 v=74
337500 On ch=10 n=81 v=109
337560 Off ch=10 n=81 v=64
337560 On ch=10 n=81 v=92
337620 Off ch=10 n=81 v=64
337620 On ch=10 n=81 v=49
337680 Off ch=10 n=81 v=64
337680 On ch=10 n=81 v=80
337740 Off ch=10 n=81 v=64
337740 On ch=10 n=81 v=96
337800 Off ch=10 n=81 v=64
337800 On ch=10 n=81 v=107
337860 Off ch=10 n=81 v=64
337860 On ch=10 n=81 v=102
337920 Off ch=10 n=81 v=64
337920 On ch=10 n=81 v=72
337980 Off ch=10 n=81 v=64
337980 On ch=10 n=81 v=97
338040 Off ch=10 n=81 v=64
338040 On ch=10 n=81 v=105
338100 Off ch=10 n=81 v=64
338100 On ch=10 n=81 v=91
338160 Off ch=10 n=81 v=64
338160 On ch=10 n=81 v=81
338220 Off ch=10 n=81 v=64
338220 On ch=10 n=81 v=77
338280 Off ch=10 n=81 v=64
338280 On ch=10 n=81 v=91
338340 Off ch=10 n=81 v=64
338340 On ch=10 n=81 v=108
338400 Off ch=10 n=81 v=64
338400 On ch=10 n=81 v=80
338460 Off ch=10 n=81 v=64
338460 On ch=10 n=81 v=109
338520 Off ch=10 n=81 v=64
338520 On ch=10 n=81 v=102
338580 Off ch=10 n=81 v=64
338580 On ch=10 n=81 v=55
338640 Off ch=10 n=81 v=64
338640 On ch=10 n=81 v=67
338700 Off ch=10 n=81 v=64
338700 On ch=10 n=81 v=45
338760 Off ch=10 n=81 v=64
338760 On ch=10 n=81 v=101
338820 Off ch=10 n=81 v=64
338820 On ch=10 n=81 v=101
338880 Off ch=10 n=81 v=64
338880 On ch=10 n=81 v=77
338940 Off ch=10 n=81 v=64
338940 On ch=10 n=81 v=97
339000 Off ch=10 n=81 v=64
339000 On ch=10 n=81 v=118
339060 Off ch=10 n=81 v=64
339060 On ch=10 n=81 v=68
339120 Off ch=10 n=81 v=64
339120 On ch=10 n=81 v=65
339180 Off ch=10 n=81 v=64
339180 On ch=10 n=81 v=40
339240 Off ch=10 n=81 v=64
339240 On ch=10 n=81 v=100
339300 Off ch=10 n=81 v=64
339300 On ch=10 n=81 v=95
339360 Off ch=10 n=81 v=64
339360 On ch=10 n=81 v=69
339420 Off ch=10 n=81 v=64
339420 On ch=10 n=81 v=73
339480 Off ch=10 n=81 v=64
339480 On ch=10 n=81 v=95
339540 Off ch=10 n=81 v=64
339540 On ch=10 n=81 v=107
339600 Off ch=10 n=81 v=64
339600 On ch=10 n=81 v=74
339660 Off ch=10 n=81 v=64
339660 On ch=10 n=81 v=43
339720 Off ch=10 n=81 v=64
339720 On ch=10 n=81 v=99
339780 Off ch=10 n=81 v=64
339780 On ch=10 n=81 v=48
339840 Off ch=10 n=81 v=64
339840 On ch=10 n=81 v=82
339900 Off ch=10 n=81 v=64
339900 On ch=10 n=81 v=47
339960 Off ch=10 n=81 v=64
339960 On ch=10 n=81 v=127
340020 Off ch=10 n=81 v=64
340020 On ch=10 n=81 v=50
340080 Off ch=10 n=81 v=64
340080 On ch=10 n=81 v=78
340140 Off ch=10 n=81 v=64
340140 On ch=10 n=81 v=96
340200 Off ch=10 n=81 v=64
340200 On ch=10 n=81 v=100
340260 Off ch=10 n=81 v=64
340260 On ch=10 n=81 v=79
340320 Off ch=10 n=81 v=64
340320 On ch=10 n=81 v=109
340380 Off ch=10 n=81 v=64
340380 On ch=10 n=81 v=77
340440 Off ch=10 n=81 v=64
340440 On ch=10 n=81 v=96
340500 Off ch=10 n=81 v=64
340500 On ch=10 n=81 v=101
340560 Off ch=10 n=81 v=64
340560 On ch=10 n=81 v=75
340620 Off ch=10 n=81 v=64
340620 On ch=10 n=81 v=90
340680 Off ch=10 n=81 v=64
340680 On ch=10 n=81 v=90
340740 Off ch=10 n=81 v=64
340740 On ch=10 n=81 v=97
340800 Off ch=10 n=81 v=64
340800 On ch=10 n=81 v=66
340860 Off ch=10 n=81 v=64
340860 On ch=10 n=81 v=93
340920 Off ch=10 n=81 v=64
340920 On ch=10 n=81 v=93
340980 Off ch=10 n=81 v=64
340980 On ch=10 n=81 v=68
341040 Off ch=10 n=81 v=64
341040 On ch=10 n=81 v=84
341100 Off ch=10 n=81 v=64
341100 On ch=10 n=81 v=50
341160 Off ch=10 n=81 v=64
341160 On ch=10 n=81 v=106
341220 Off ch=10 n=81 v=64
341220 On ch=10 n=81 v=108
341280 Off ch=10 n=81 v=64
341280 On ch=10 n=81 v=79
341340 Off ch=10 n=81 v=64
341340 On ch=10 n=81 v=104
341400 Off ch=10 n=81 v=64
341400 On ch=10 n=81 v=68
341460 Off ch=10 n=81 v=64
341520 Off ch=10 n=81 v=64
341580 Off ch=10 n=81 v=64
341640 Off ch=10 n=81 v=64
341700 Off ch=10 n=81 v=64
341760 Off ch=10 n=81 v=64
341820 Off ch=10 n=81 v=64
341880 Off ch=10 n=81 v=64
342840 Par ch=10 c=7 v=127
342840 Par ch=10 c=93 v=127
343320 On ch=10 n=38 v=127
343440 On ch=10 n=38 v=124
343560 On ch=10 n=36 v=127
343560 On ch=10 n=46 v=125
343800 Off ch=10 n=38 v=64
343800 On ch=10 n=38 v=124
343920 Off ch=10 n=38 v=64
343920 On ch=10 n=38 v=118
344040 Off ch=10 n=46 v=64
344040 Off ch=10 n=36 v=64
344040 On ch=10 n=36 v=127
344040 On ch=10 n=46 v=122
344280 Off ch=10 n=38 v=64
344280 On ch=10 n=38 v=120
344400 Off ch=10 n=38 v=64
344400 On ch=10 n=38 v=114
344520 Off ch=10 n=46 v=64
344520 Off ch=10 n=36 v=64
344520 On ch=10 n=36 v=124
344520 On ch=10 n=46 v=122
344760 Off ch=10 n=38 v=64
344760 On ch=10 n=36 v=122
344760 On ch=10 n=46 v=126
344880 Off ch=10 n=38 v=64
345000 Off ch=10 n=46 v=64
345000 Off ch=10 n=36 v=64
345000 On ch=10 n=38 v=119
345120 On ch=10 n=38 v=121
345240 Off ch=10 n=36 v=64
345240 Off ch=10 n=46 v=64
345240 On ch=10 n=36 v=121
345240 On ch=10 n=49 v=125
345480 Off ch=10 n=38 v=64
345480 Par ch=10 c=7 v=108
345480 Par ch=10 c=93 v=127
345480 On ch=10 n=38 v=119
345600 Off ch=10 n=38 v=64
345600 On ch=10 n=38 v=88
345720 Off ch=10 n=49 v=64
345720 Off ch=10 n=36 v=64
345720 On ch=10 n=38 v=108
345840 On ch=10 n=38 v=85
345960 Off ch=10 n=38 v=64
345960 On ch=10 n=38 v=115
346080 Off ch=10 n=38 v=64
346080 On ch=10 n=38 v=97
346200 Off ch=10 n=38 v=64
346200 On ch=10 n=38 v=107
346320 Off ch=10 n=38 v=64
346320 On ch=10 n=38 v=94
346440 Off ch=10 n=38 v=64
346440 On ch=10 n=38 v=121
346560 Off ch=10 n=38 v=64
346560 On ch=10 n=38 v=109
346680 Off ch=10 n=38 v=64
346680 On ch=10 n=42 v=127
346680 On ch=10 n=36 v=127
346800 Off ch=10 n=38 v=64
346800 On ch=10 n=42 v=97
346920 Off ch=10 n=38 v=64
346920 On ch=10 n=42 v=88
347040 Off ch=10 n=38 v=64
347040 On ch=10 n=42 v=59
347160 Off ch=10 n=42 v=64
347160 Off ch=10 n=36 v=64
347160 On ch=10 n=36 v=110
347160 On ch=10 n=38 v=127
347280 Off ch=10 n=42 v=64
347280 On ch=10 n=42 v=90
347400 Off ch=10 n=42 v=64
347400 On ch=10 n=42 v=81
347520 Off ch=10 n=42 v=64
347520 On ch=10 n=42 v=90
347640 Off ch=10 n=38 v=64
347640 Off ch=10 n=36 v=64
347640 On ch=10 n=36 v=127
347640 On ch=10 n=42 v=127
347760 Off ch=10 n=42 v=64
347760 On ch=10 n=42 v=87
347880 Off ch=10 n=42 v=64
347880 On ch=10 n=42 v=115
348000 Off ch=10 n=42 v=64
348000 On ch=10 n=42 v=113
348120 Off ch=10 n=42 v=64
348120 Off ch=10 n=36 v=64
348120 On ch=10 n=36 v=115
348120 On ch=10 n=46 v=117
348240 Off ch=10 n=42 v=64
348240 On ch=10 n=42 v=82
348360 Off ch=10 n=42 v=64
348360 On ch=10 n=46 v=123
348480 Off ch=10 n=42 v=64
348480 On ch=10 n=46 v=84
348600 Off ch=10 n=46 v=64
348600 Off ch=10 n=36 v=64
348600 On ch=10 n=36 v=108
348600 On ch=10 n=42 v=111
348720 Off ch=10 n=42 v=64
348720 On ch=10 n=46 v=98
348840 Off ch=10 n=46 v=64
348840 On ch=10 n=38 v=115
348960 Off ch=10 n=46 v=64
348960 On ch=10 n=38 v=121
349080 Off ch=10 n=42 v=64
349080 Off ch=10 n=36 v=64
349080 On ch=10 n=36 v=127
349080 On ch=10 n=42 v=127
349200 Off ch=10 n=46 v=64
349200 On ch=10 n=42 v=81
349320 Off ch=10 n=38 v=64
349320 On ch=10 n=42 v=69
349440 Off ch=10 n=38 v=64
349440 On ch=10 n=42 v=113
349560 Off ch=10 n=42 v=64
349560 Off ch=10 n=36 v=64
349560 On ch=10 n=36 v=117
349560 On ch=10 n=38 v=127
349680 Off ch=10 n=42 v=64
349680 On ch=10 n=42 v=90
349800 Off ch=10 n=42 v=64
349800 On ch=10 n=42 v=62
349920 Off ch=10 n=42 v=64
349920 On ch=10 n=42 v=99
350040 Off ch=10 n=38 v=64
350040 Off ch=10 n=36 v=64
350040 On ch=10 n=36 v=127
350040 On ch=10 n=42 v=127
350160 Off ch=10 n=42 v=64
350160 On ch=10 n=42 v=91
350280 Off ch=10 n=42 v=64
350280 On ch=10 n=42 v=118
350400 Off ch=10 n=42 v=64
350400 On ch=10 n=42 v=89
350520 Off ch=10 n=42 v=64
350520 Off ch=10 n=36 v=64
350520 On ch=10 n=36 v=124
350520 On ch=10 n=46 v=110
350640 Off ch=10 n=42 v=64
350640 On ch=10 n=42 v=89
350760 Off ch=10 n=42 v=64
350760 On ch=10 n=46 v=111
350880 Off ch=10 n=42 v=64
350880 On ch=10 n=46 v=123
351000 Off ch=10 n=46 v=64
351000 Off ch=10 n=36 v=64
351000 On ch=10 n=36 v=109
351000 On ch=10 n=42 v=121
351120 Off ch=10 n=42 v=64
351120 On ch=10 n=46 v=95
351240 Off ch=10 n=46 v=64
351240 On ch=10 n=38 v=108
351360 Off ch=10 n=46 v=64
351360 On ch=10 n=38 v=65
351480 Off ch=10 n=42 v=64
351480 Off ch=10 n=36 v=64
351480 On ch=10 n=36 v=127
351480 On ch=10 n=42 v=127
351600 Off ch=10 n=46 v=64
351600 On ch=10 n=42 v=85
351720 Off ch=10 n=38 v=64
351720 On ch=10 n=42 v=81
351840 Off ch=10 n=38 v=64
351840 On ch=10 n=42 v=110
351960 Off ch=10 n=42 v=64
351960 Off ch=10 n=36 v=64
351960 On ch=10 n=36 v=125
351960 On ch=10 n=38 v=127
352080 Off ch=10 n=42 v=64
352080 On ch=10 n=42 v=87
352200 Off ch=10 n=42 v=64
352200 On ch=10 n=42 v=123
352320 Off ch=10 n=42 v=64
352320 On ch=10 n=42 v=99
352440 Off ch=10 n=38 v=64
352440 Off ch=10 n=36 v=64
352440 On ch=10 n=36 v=127
352440 On ch=10 n=42 v=127
352560 Off ch=10 n=42 v=64
352560 On ch=10 n=42 v=96
352680 Off ch=10 n=42 v=64
352680 On ch=10 n=42 v=87
352800 Off ch=10 n=42 v=64
352800 On ch=10 n=42 v=58
352920 Off ch=10 n=42 v=64
352920 Off ch=10 n=36 v=64
352920 On ch=10 n=36 v=124
352920 On ch=10 n=46 v=110
353040 Off ch=10 n=42 v=64
353040 On ch=10 n=42 v=88
353160 Off ch=10 n=42 v=64
353160 On ch=10 n=46 v=115
353280 Off ch=10 n=42 v=64
353280 On ch=10 n=46 v=118
353400 Off ch=10 n=46 v=64
353400 Off ch=10 n=36 v=64
353400 On ch=10 n=36 v=109
353400 On ch=10 n=42 v=120
353520 Off ch=10 n=42 v=64
353520 On ch=10 n=46 v=86
353640 Off ch=10 n=46 v=64
353640 On ch=10 n=38 v=116
353760 Off ch=10 n=46 v=64
353760 On ch=10 n=38 v=124
353880 Off ch=10 n=42 v=64
353880 Off ch=10 n=36 v=64
353880 On ch=10 n=36 v=127
353880 On ch=10 n=42 v=127
354000 Off ch=10 n=46 v=64
354000 On ch=10 n=42 v=96
354120 Off ch=10 n=38 v=64
354120 On ch=10 n=42 v=58
354240 Off ch=10 n=38 v=64
354240 On ch=10 n=42 v=124
354360 Off ch=10 n=42 v=64
354360 Off ch=10 n=36 v=64
354360 On ch=10 n=36 v=121
354360 On ch=10 n=38 v=127
354480 Off ch=10 n=42 v=64
354480 On ch=10 n=42 v=98
354600 Off ch=10 n=42 v=64
354600 On ch=10 n=42 v=66
354720 Off ch=10 n=42 v=64
354720 On ch=10 n=42 v=73
354840 Off ch=10 n=38 v=64
354840 Off ch=10 n=36 v=64
354840 On ch=10 n=36 v=127
354840 On ch=10 n=42 v=127
354960 Off ch=10 n=42 v=64
354960 On ch=10 n=42 v=100
355080 Off ch=10 n=42 v=64
355080 On ch=10 n=42 v=108
355200 Off ch=10 n=42 v=64
355200 On ch=10 n=42 v=119
355320 Off ch=10 n=42 v=64
355320 Off ch=10 n=36 v=64
355320 On ch=10 n=36 v=117
355320 On ch=10 n=46 v=125
355440 Off ch=10 n=42 v=64
355440 On ch=10 n=42 v=92
355560 Off ch=10 n=42 v=64
355560 On ch=10 n=46 v=115
355680 Off ch=10 n=42 v=64
355680 On ch=10 n=46 v=83
355800 Off ch=10 n=46 v=64
355800 Off ch=10 n=36 v=64
355800 On ch=10 n=36 v=120
355800 On ch=10 n=42 v=113
355920 Off ch=10 n=42 v=64
355920 On ch=10 n=46 v=89
356040 Off ch=10 n=46 v=64
356040 On ch=10 n=38 v=116
356160 Off ch=10 n=46 v=64
356160 On ch=10 n=38 v=94
356280 Off ch=10 n=42 v=64
356280 Off ch=10 n=36 v=64
356280 On ch=10 n=36 v=127
356280 On ch=10 n=42 v=127
356400 Off ch=10 n=46 v=64
356400 On ch=10 n=42 v=93
356520 Off ch=10 n=38 v=64
356520 On ch=10 n=42 v=110
356640 Off ch=10 n=38 v=64
356640 On ch=10 n=42 v=96
356760 Off ch=10 n=42 v=64
356760 Off ch=10 n=36 v=64
356760 On ch=10 n=36 v=122
356760 On ch=10 n=38 v=127
356880 Off ch=10 n=42 v=64
356880 On ch=10 n=42 v=93
357000 Off ch=10 n=42 v=64
357000 On ch=10 n=42 v=113
357120 Off ch=10 n=42 v=64
357120 On ch=10 n=42 v=56
357240 Off ch=10 n=38 v=64
357240 Off ch=10 n=36 v=64
357240 On ch=10 n=36 v=127
357240 On ch=10 n=42 v=127
357360 Off ch=10 n=42 v=64
357360 On ch=10 n=42 v=99
357480 Off ch=10 n=42 v=64
357480 On ch=10 n=42 v=120
357600 Off ch=10 n=42 v=64
357600 On ch=10 n=42 v=67
357720 Off ch=10 n=42 v=64
357720 Off ch=10 n=36 v=64
357720 On ch=10 n=36 v=119
357720 On ch=10 n=46 v=106
357840 Off ch=10 n=42 v=64
357840 On ch=10 n=42 v=97
357960 Off ch=10 n=42 v=64
357960 On ch=10 n=46 v=124
358080 Off ch=10 n=42 v=64
358080 On ch=10 n=46 v=106
358200 Off ch=10 n=46 v=64
358200 Off ch=10 n=36 v=64
358200 On ch=10 n=36 v=118
358200 On ch=10 n=42 v=107
358320 Off ch=10 n=42 v=64
358320 On ch=10 n=46 v=90
358440 Off ch=10 n=46 v=64
358440 On ch=10 n=38 v=115
358560 Off ch=10 n=46 v=64
358560 On ch=10 n=38 v=111
358680 Off ch=10 n=42 v=64
358680 Off ch=10 n=36 v=64
358680 On ch=10 n=36 v=127
358680 On ch=10 n=42 v=127
358800 Off ch=10 n=46 v=64
358800 On ch=10 n=42 v=93
358920 Off ch=10 n=38 v=64
358920 On ch=10 n=42 v=110
359040 Off ch=10 n=38 v=64
359040 On ch=10 n=42 v=100
359160 Off ch=10 n=42 v=64
359160 Off ch=10 n=36 v=64
359160 On ch=10 n=36 v=116
359160 On ch=10 n=38 v=127
359280 Off ch=10 n=42 v=64
359280 On ch=10 n=42 v=86
359400 Off ch=10 n=42 v=64
359400 On ch=10 n=42 v=83
359520 Off ch=10 n=42 v=64
359520 On ch=10 n=42 v=87
359640 Off ch=10 n=38 v=64
359640 Off ch=10 n=36 v=64
359640 On ch=10 n=36 v=127
359640 On ch=10 n=42 v=127
359760 Off ch=10 n=42 v=64
359760 On ch=10 n=42 v=93
359880 Off ch=10 n=42 v=64
359880 On ch=10 n=42 v=88
360000 Off ch=10 n=42 v=64
360000 On ch=10 n=42 v=96
360120 Off ch=10 n=42 v=64
360120 Off ch=10 n=36 v=64
360120 On ch=10 n=36 v=107
360120 On ch=10 n=46 v=117
360240 Off ch=10 n=42 v=64
360240 On ch=10 n=42 v=93
360360 Off ch=10 n=42 v=64
360360 On ch=10 n=46 v=108
360480 Off ch=10 n=42 v=64
360480 On ch=10 n=46 v=125
360600 Off ch=10 n=46 v=64
360600 Off ch=10 n=36 v=64
360600 On ch=10 n=36 v=114
360600 On ch=10 n=42 v=111
360720 Off ch=10 n=42 v=64
360720 On ch=10 n=46 v=94
360840 Off ch=10 n=46 v=64
360840 On ch=10 n=38 v=120
360960 Off ch=10 n=46 v=64
360960 On ch=10 n=38 v=91
361080 Off ch=10 n=42 v=64
361080 Off ch=10 n=36 v=64
361080 On ch=10 n=36 v=127
361080 On ch=10 n=42 v=127
361200 Off ch=10 n=46 v=64
361200 On ch=10 n=42 v=99
361320 Off ch=10 n=38 v=64
361320 On ch=10 n=42 v=110
361440 Off ch=10 n=38 v=64
361440 On ch=10 n=42 v=72
361560 Off ch=10 n=42 v=64
361560 Off ch=10 n=36 v=64
361560 On ch=10 n=36 v=123
361560 On ch=10 n=38 v=127
361680 Off ch=10 n=42 v=64
361680 On ch=10 n=42 v=97
361800 Off ch=10 n=42 v=64
361800 On ch=10 n=42 v=87
361920 Off ch=10 n=42 v=64
361920 On ch=10 n=42 v=93
362040 Off ch=10 n=38 v=64
362040 Off ch=10 n=36 v=64
362040 On ch=10 n=36 v=127
362040 On ch=10 n=42 v=127
362160 Off ch=10 n=42 v=64
362160 On ch=10 n=42 v=87
362280 Off ch=10 n=42 v=64
362280 On ch=10 n=42 v=116
362400 Off ch=10 n=42 v=64
362400 On ch=10 n=42 v=95
362520 Off ch=10 n=42 v=64
362520 Off ch=10 n=36 v=64
362520 On ch=10 n=36 v=121
362520 On ch=10 n=46 v=111
362640 Off ch=10 n=42 v=64
362640 On ch=10 n=42 v=97
362760 Off ch=10 n=42 v=64
362760 On ch=10 n=46 v=121
362880 Off ch=10 n=42 v=64
362880 On ch=10 n=46 v=60
363000 Off ch=10 n=46 v=64
363000 Off ch=10 n=36 v=64
363000 On ch=10 n=36 v=125
363000 On ch=10 n=42 v=110
363120 Off ch=10 n=42 v=64
363120 On ch=10 n=46 v=88
363240 Off ch=10 n=46 v=64
363240 On ch=10 n=38 v=107
363360 Off ch=10 n=46 v=64
363360 On ch=10 n=38 v=100
363480 Off ch=10 n=42 v=64
363480 Off ch=10 n=36 v=64
363480 On ch=10 n=36 v=127
363480 On ch=10 n=42 v=127
363600 Off ch=10 n=46 v=64
363600 On ch=10 n=42 v=98
363720 Off ch=10 n=38 v=64
363720 On ch=10 n=42 v=123
363840 Off ch=10 n=38 v=64
363840 On ch=10 n=42 v=87
363960 Off ch=10 n=42 v=64
363960 Off ch=10 n=36 v=64
363960 On ch=10 n=36 v=107
363960 On ch=10 n=38 v=127
364080 Off ch=10 n=42 v=64
364080 On ch=10 n=42 v=92
364200 Off ch=10 n=42 v=64
364200 On ch=10 n=42 v=98
364320 Off ch=10 n=42 v=64
364320 On ch=10 n=42 v=92
364440 Off ch=10 n=38 v=64
364440 Off ch=10 n=36 v=64
364440 On ch=10 n=36 v=127
364440 On ch=10 n=42 v=127
364560 Off ch=10 n=42 v=64
364560 On ch=10 n=42 v=92
364680 Off ch=10 n=42 v=64
364680 On ch=10 n=42 v=89
364800 Off ch=10 n=42 v=64
364800 On ch=10 n=42 v=90
364920 Off ch=10 n=42 v=64
364920 Off ch=10 n=36 v=64
364920 On ch=10 n=36 v=117
364920 On ch=10 n=46 v=107
365040 Off ch=10 n=42 v=64
365040 On ch=10 n=42 v=83
365160 Off ch=10 n=42 v=64
365160 On ch=10 n=46 v=115
365280 Off ch=10 n=42 v=64
365280 On ch=10 n=46 v=87
365400 Off ch=10 n=46 v=64
365400 Off ch=10 n=36 v=64
365400 On ch=10 n=36 v=115
365400 On ch=10 n=42 v=108
365520 Off ch=10 n=42 v=64
365520 On ch=10 n=46 v=87
365640 Off ch=10 n=46 v=64
365640 On ch=10 n=38 v=123
365760 Off ch=10 n=46 v=64
365760 On ch=10 n=38 v=114
365880 Off ch=10 n=42 v=64
365880 Off ch=10 n=36 v=64
365880 On ch=10 n=36 v=127
365880 On ch=10 n=42 v=127
366000 Off ch=10 n=46 v=64
366000 On ch=10 n=42 v=100
366120 Off ch=10 n=38 v=64
366120 On ch=10 n=42 v=93
366240 Off ch=10 n=38 v=64
366240 On ch=10 n=42 v=74
366360 Off ch=10 n=42 v=64
366360 Off ch=10 n=36 v=64
366360 On ch=10 n=36 v=107
366360 On ch=10 n=38 v=127
366480 Off ch=10 n=42 v=64
366480 On ch=10 n=42 v=90
366600 Off ch=10 n=42 v=64
366600 On ch=10 n=42 v=122
366720 Off ch=10 n=42 v=64
366720 On ch=10 n=42 v=72
366840 Off ch=10 n=38 v=64
366840 Off ch=10 n=36 v=64
366840 On ch=10 n=36 v=127
366840 On ch=10 n=42 v=127
366960 Off ch=10 n=42 v=64
366960 On ch=10 n=42 v=96
367080 Off ch=10 n=42 v=64
367080 On ch=10 n=42 v=120
367200 Off ch=10 n=42 v=64
367200 On ch=10 n=42 v=62
367320 Off ch=10 n=42 v=64
367320 Off ch=10 n=36 v=64
367320 On ch=10 n=36 v=116
367320 On ch=10 n=44 v=127
367440 Off ch=10 n=42 v=64
367440 On ch=10 n=44 v=90
367560 Off ch=10 n=42 v=64
367560 On ch=10 n=44 v=115
367680 Off ch=10 n=42 v=64
367680 On ch=10 n=44 v=100
367800 Off ch=10 n=44 v=64
367800 Off ch=10 n=36 v=64
367800 On ch=10 n=36 v=118
367800 On ch=10 n=44 v=109
367920 Off ch=10 n=44 v=64
367920 On ch=10 n=44 v=91
368040 Off ch=10 n=44 v=64
368040 On ch=10 n=38 v=117
368160 Off ch=10 n=44 v=64
368160 On ch=10 n=38 v=100
368280 Off ch=10 n=44 v=64
368280 Off ch=10 n=36 v=64
368280 On ch=10 n=36 v=127
368280 On ch=10 n=42 v=127
368400 Off ch=10 n=44 v=64
368400 On ch=10 n=42 v=88
368520 Off ch=10 n=38 v=64
368520 On ch=10 n=42 v=69
368640 Off ch=10 n=38 v=64
368640 On ch=10 n=42 v=125
368760 Off ch=10 n=42 v=64
368760 Off ch=10 n=36 v=64
368760 On ch=10 n=36 v=116
368760 On ch=10 n=38 v=127
368880 Off ch=10 n=42 v=64
368880 On ch=10 n=42 v=86
369000 Off ch=10 n=42 v=64
369000 On ch=10 n=42 v=74
369120 Off ch=10 n=42 v=64
369120 On ch=10 n=42 v=60
369240 Off ch=10 n=38 v=64
369240 Off ch=10 n=36 v=64
369240 On ch=10 n=36 v=127
369240 On ch=10 n=42 v=127
369360 Off ch=10 n=42 v=64
369360 On ch=10 n=42 v=87
369480 Off ch=10 n=42 v=64
369480 On ch=10 n=42 v=87
369600 Off ch=10 n=42 v=64
369600 On ch=10 n=42 v=113
369720 Off ch=10 n=42 v=64
369720 Off ch=10 n=36 v=64
369720 On ch=10 n=36 v=115
369720 On ch=10 n=44 v=127
369840 Off ch=10 n=42 v=64
369840 On ch=10 n=44 v=84
369960 Off ch=10 n=42 v=64
369960 On ch=10 n=44 v=59
370080 Off ch=10 n=42 v=64
370080 On ch=10 n=44 v=67
370200 Off ch=10 n=44 v=64
370200 Off ch=10 n=36 v=64
370200 On ch=10 n=36 v=107
370200 On ch=10 n=44 v=112
370320 Off ch=10 n=44 v=64
370320 On ch=10 n=44 v=84
370440 Off ch=10 n=44 v=64
370440 On ch=10 n=38 v=124
370560 Off ch=10 n=44 v=64
370560 On ch=10 n=38 v=86
370680 Off ch=10 n=44 v=64
370680 Off ch=10 n=36 v=64
370680 On ch=10 n=36 v=127
370680 On ch=10 n=42 v=127
370800 Off ch=10 n=44 v=64
370800 On ch=10 n=42 v=94
370920 Off ch=10 n=38 v=64
370920 On ch=10 n=42 v=83
371040 Off ch=10 n=38 v=64
371040 On ch=10 n=42 v=124
371160 Off ch=10 n=42 v=64
371160 Off ch=10 n=36 v=64
371160 On ch=10 n=36 v=120
371160 On ch=10 n=38 v=127
371280 Off ch=10 n=42 v=64
371280 On ch=10 n=42 v=93
371400 Off ch=10 n=42 v=64
371400 On ch=10 n=42 v=88
371520 Off ch=10 n=42 v=64
371520 On ch=10 n=42 v=90
371640 Off ch=10 n=38 v=64
371640 Off ch=10 n=36 v=64
371640 On ch=10 n=36 v=127
371640 On ch=10 n=42 v=127
371760 Off ch=10 n=42 v=64
371760 On ch=10 n=42 v=88
371880 Off ch=10 n=42 v=64
371880 On ch=10 n=42 v=94
372000 Off ch=10 n=42 v=64
372000 On ch=10 n=42 v=109
372120 Off ch=10 n=42 v=64
372120 Off ch=10 n=36 v=64
372120 On ch=10 n=36 v=110
372120 On ch=10 n=44 v=127
372240 Off ch=10 n=42 v=64
372240 On ch=10 n=44 v=89
372360 Off ch=10 n=42 v=64
372360 On ch=10 n=44 v=69
372480 Off ch=10 n=42 v=64
372480 On ch=10 n=44 v=64
372600 Off ch=10 n=44 v=64
372600 Off ch=10 n=36 v=64
372600 On ch=10 n=36 v=118
372600 On ch=10 n=44 v=121
372720 Off ch=10 n=44 v=64
372720 On ch=10 n=44 v=91
372840 Off ch=10 n=44 v=64
372840 On ch=10 n=38 v=113
372960 Off ch=10 n=44 v=64
372960 On ch=10 n=38 v=89
373080 Off ch=10 n=44 v=64
373080 Off ch=10 n=36 v=64
373080 On ch=10 n=36 v=127
373080 On ch=10 n=42 v=127
373200 Off ch=10 n=44 v=64
373200 On ch=10 n=42 v=89
373320 Off ch=10 n=38 v=64
373320 On ch=10 n=42 v=92
373440 Off ch=10 n=38 v=64
373440 On ch=10 n=42 v=121
373560 Off ch=10 n=42 v=64
373560 Off ch=10 n=36 v=64
373560 On ch=10 n=36 v=107
373560 On ch=10 n=38 v=127
373680 Off ch=10 n=42 v=64
373680 On ch=10 n=42 v=89
373800 Off ch=10 n=42 v=64
373800 On ch=10 n=42 v=89
373920 Off ch=10 n=42 v=64
373920 On ch=10 n=42 v=107
374040 Off ch=10 n=38 v=64
374040 Off ch=10 n=36 v=64
374040 On ch=10 n=36 v=127
374040 On ch=10 n=42 v=127
374160 Off ch=10 n=42 v=64
374160 On ch=10 n=42 v=100
374280 Off ch=10 n=42 v=64
374280 On ch=10 n=42 v=83
374400 Off ch=10 n=42 v=64
374400 On ch=10 n=42 v=73
374520 Off ch=10 n=42 v=64
374520 Off ch=10 n=36 v=64
374520 On ch=10 n=36 v=121
374520 On ch=10 n=44 v=127
374640 Off ch=10 n=42 v=64
374640 On ch=10 n=44 v=83
374760 Off ch=10 n=42 v=64
374760 On ch=10 n=44 v=66
374880 Off ch=10 n=42 v=64
374880 On ch=10 n=44 v=98
375000 Off ch=10 n=44 v=64
375000 Off ch=10 n=36 v=64
375000 On ch=10 n=36 v=120
375000 On ch=10 n=44 v=125
375120 Off ch=10 n=44 v=64
375120 On ch=10 n=44 v=91
375240 Off ch=10 n=44 v=64
375240 On ch=10 n=38 v=119
375360 Off ch=10 n=44 v=64
375360 On ch=10 n=38 v=81
375480 Off ch=10 n=44 v=64
375480 Off ch=10 n=36 v=64
375480 On ch=10 n=36 v=127
375480 On ch=10 n=44 v=127
375600 Off ch=10 n=44 v=64
375600 On ch=10 n=44 v=98
375720 Off ch=10 n=38 v=64
375720 On ch=10 n=44 v=92
375840 Off ch=10 n=38 v=64
375840 On ch=10 n=44 v=122
375960 Off ch=10 n=44 v=64
375960 Off ch=10 n=36 v=64
375960 On ch=10 n=36 v=116
375960 On ch=10 n=38 v=127
376080 Off ch=10 n=44 v=64
376080 On ch=10 n=44 v=96
376200 Off ch=10 n=44 v=64
376200 On ch=10 n=44 v=89
376320 Off ch=10 n=44 v=64
376320 On ch=10 n=44 v=93
376440 Off ch=10 n=38 v=64
376440 Off ch=10 n=36 v=64
376440 On ch=10 n=36 v=127
376440 On ch=10 n=44 v=127
376560 Off ch=10 n=44 v=64
376560 On ch=10 n=44 v=89
376680 Off ch=10 n=44 v=64
376680 On ch=10 n=44 v=122
376800 Off ch=10 n=44 v=64
376800 On ch=10 n=44 v=92
376920 Off ch=10 n=44 v=64
376920 Off ch=10 n=36 v=64
376920 On ch=10 n=36 v=116
376920 On ch=10 n=44 v=123
377040 Off ch=10 n=44 v=64
377040 On ch=10 n=44 v=85
377160 Off ch=10 n=44 v=64
377160 On ch=10 n=44 v=109
377280 Off ch=10 n=44 v=64
377280 On ch=10 n=44 v=85
377400 Off ch=10 n=44 v=64
377400 Off ch=10 n=36 v=64
377400 On ch=10 n=36 v=106
377400 On ch=10 n=44 v=111
377520 Off ch=10 n=44 v=64
377520 On ch=10 n=44 v=56
377640 Off ch=10 n=44 v=64
377640 On ch=10 n=38 v=125
377760 Off ch=10 n=44 v=64
377760 On ch=10 n=38 v=62
377880 Off ch=10 n=44 v=64
377880 Off ch=10 n=36 v=64
377880 On ch=10 n=36 v=127
377880 On ch=10 n=44 v=127
378000 Off ch=10 n=44 v=64
378000 On ch=10 n=44 v=88
378120 Off ch=10 n=38 v=64
378120 On ch=10 n=44 v=67
378240 Off ch=10 n=38 v=64
378240 On ch=10 n=44 v=96
378360 Off ch=10 n=44 v=64
378360 Off ch=10 n=36 v=64
378360 On ch=10 n=36 v=111
378360 On ch=10 n=38 v=127
378480 Off ch=10 n=44 v=64
378480 On ch=10 n=44 v=82
378600 Off ch=10 n=44 v=64
378600 On ch=10 n=44 v=61
378720 Off ch=10 n=44 v=64
378720 On ch=10 n=44 v=116
378840 Off ch=10 n=38 v=64
378840 Off ch=10 n=36 v=64
378840 On ch=10 n=36 v=127
378840 On ch=10 n=44 v=127
378960 Off ch=10 n=44 v=64
378960 On ch=10 n=44 v=85
379080 Off ch=10 n=44 v=64
379080 On ch=10 n=44 v=111
379200 Off ch=10 n=44 v=64
379200 On ch=10 n=44 v=123
379320 Off ch=10 n=44 v=64
379320 Off ch=10 n=36 v=64
379320 On ch=10 n=36 v=123
379320 On ch=10 n=44 v=124
379440 Off ch=10 n=44 v=64
379440 On ch=10 n=44 v=91
379560 Off ch=10 n=44 v=64
379560 On ch=10 n=44 v=121
379680 Off ch=10 n=44 v=64
379680 On ch=10 n=44 v=116
379800 Off ch=10 n=44 v=64
379800 Off ch=10 n=36 v=64
379800 On ch=10 n=36 v=110
379800 On ch=10 n=44 v=109
379920 Off ch=10 n=44 v=64
379920 On ch=10 n=44 v=58
380040 Off ch=10 n=44 v=64
380040 On ch=10 n=38 v=127
380160 Off ch=10 n=44 v=64
380160 On ch=10 n=38 v=118
380280 Off ch=10 n=44 v=64
380280 Off ch=10 n=36 v=64
380280 On ch=10 n=36 v=127
380280 On ch=10 n=44 v=127
380400 Off ch=10 n=44 v=64
380400 On ch=10 n=44 v=83
380520 Off ch=10 n=38 v=64
380520 On ch=10 n=44 v=59
380640 Off ch=10 n=38 v=64
380640 On ch=10 n=44 v=123
380760 Off ch=10 n=44 v=64
380760 Off ch=10 n=36 v=64
380760 On ch=10 n=36 v=113
380760 On ch=10 n=38 v=127
380880 Off ch=10 n=44 v=64
380880 On ch=10 n=44 v=83
381000 Off ch=10 n=44 v=64
381000 On ch=10 n=44 v=109
381120 Off ch=10 n=44 v=64
381120 On ch=10 n=44 v=95
381240 Off ch=10 n=38 v=64
381240 Off ch=10 n=36 v=64
381240 On ch=10 n=36 v=127
381240 On ch=10 n=44 v=127
381360 Off ch=10 n=44 v=64
381360 On ch=10 n=44 v=89
381480 Off ch=10 n=44 v=64
381480 On ch=10 n=44 v=115
381600 Off ch=10 n=44 v=64
381600 On ch=10 n=44 v=98
381720 Off ch=10 n=44 v=64
381720 Off ch=10 n=36 v=64
381720 On ch=10 n=36 v=124
381720 On ch=10 n=44 v=111
381840 Off ch=10 n=44 v=64
381840 On ch=10 n=44 v=87
381960 Off ch=10 n=44 v=64
381960 On ch=10 n=44 v=113
382080 Off ch=10 n=44 v=64
382080 On ch=10 n=44 v=98
382200 Off ch=10 n=44 v=64
382200 Off ch=10 n=36 v=64
382200 On ch=10 n=36 v=124
382200 On ch=10 n=44 v=113
382320 Off ch=10 n=44 v=64
382320 On ch=10 n=44 v=62
382440 Off ch=10 n=44 v=64
382440 On ch=10 n=38 v=113
382560 Off ch=10 n=44 v=64
382560 On ch=10 n=38 v=84
382680 Off ch=10 n=44 v=64
382680 Off ch=10 n=36 v=64
382680 On ch=10 n=36 v=127
382680 On ch=10 n=44 v=127
382800 Off ch=10 n=44 v=64
382800 On ch=10 n=44 v=95
382920 Off ch=10 n=38 v=64
382920 On ch=10 n=44 v=61
383040 Off ch=10 n=38 v=64
383040 On ch=10 n=44 v=120
383160 Off ch=10 n=44 v=64
383160 Off ch=10 n=36 v=64
383160 On ch=10 n=36 v=107
383160 On ch=10 n=38 v=127
383280 Off ch=10 n=44 v=64
383280 On ch=10 n=44 v=96
383400 Off ch=10 n=44 v=64
383400 On ch=10 n=44 v=97
383520 Off ch=10 n=44 v=64
383520 On ch=10 n=44 v=100
383640 Off ch=10 n=38 v=64
383640 Off ch=10 n=36 v=64
383640 On ch=10 n=36 v=127
383640 On ch=10 n=44 v=127
383760 Off ch=10 n=44 v=64
383760 On ch=10 n=44 v=91
383880 Off ch=10 n=44 v=64
383880 On ch=10 n=44 v=109
384000 Off ch=10 n=44 v=64
384000 On ch=10 n=44 v=92
384120 Off ch=10 n=44 v=64
384120 Off ch=10 n=36 v=64
384120 On ch=10 n=36 v=120
384120 On ch=10 n=44 v=106
384240 Off ch=10 n=44 v=64
384240 On ch=10 n=44 v=97
384360 Off ch=10 n=44 v=64
384360 On ch=10 n=44 v=95
384480 Off ch=10 n=44 v=64
384480 On ch=10 n=44 v=109
384600 Off ch=10 n=44 v=64
384600 Off ch=10 n=36 v=64
384600 On ch=10 n=36 v=113
384600 On ch=10 n=44 v=107
384720 Off ch=10 n=44 v=64
384720 On ch=10 n=44 v=107
384840 Off ch=10 n=44 v=64
384840 On ch=10 n=38 v=111
384960 Off ch=10 n=44 v=64
384960 On ch=10 n=38 v=113
385080 Off ch=10 n=44 v=64
385080 Off ch=10 n=36 v=64
385080 On ch=10 n=36 v=127
385080 On ch=10 n=44 v=127
385200 Off ch=10 n=44 v=64
385200 On ch=10 n=44 v=83
385320 Off ch=10 n=38 v=64
385320 On ch=10 n=44 v=86
385440 Off ch=10 n=38 v=64
385440 On ch=10 n=44 v=89
385560 Off ch=10 n=44 v=64
385560 Off ch=10 n=36 v=64
385560 On ch=10 n=36 v=109
385560 On ch=10 n=38 v=127
385680 Off ch=10 n=44 v=64
385680 On ch=10 n=44 v=85
385800 Off ch=10 n=44 v=64
385800 On ch=10 n=44 v=121
385920 Off ch=10 n=44 v=64
385920 On ch=10 n=44 v=57
386040 Off ch=10 n=38 v=64
386040 Off ch=10 n=36 v=64
386040 On ch=10 n=36 v=127
386040 On ch=10 n=44 v=127
386160 Off ch=10 n=44 v=64
386160 On ch=10 n=44 v=82
386280 Off ch=10 n=44 v=64
386280 On ch=10 n=44 v=113
386400 Off ch=10 n=44 v=64
386400 On ch=10 n=44 v=87
386520 Off ch=10 n=44 v=64
386520 Off ch=10 n=36 v=64
386520 On ch=10 n=36 v=121
386520 On ch=10 n=44 v=109
386640 Off ch=10 n=44 v=64
386640 On ch=10 n=44 v=100
386760 Off ch=10 n=44 v=64
386760 On ch=10 n=44 v=99
386880 Off ch=10 n=44 v=64
386880 On ch=10 n=44 v=57
387000 Off ch=10 n=44 v=64
387000 Off ch=10 n=36 v=64
387000 On ch=10 n=36 v=124
387000 On ch=10 n=44 v=117
387120 Off ch=10 n=44 v=64
387120 On ch=10 n=44 v=72
387240 Off ch=10 n=44 v=64
387240 On ch=10 n=38 v=109
387360 Off ch=10 n=44 v=64
387360 On ch=10 n=38 v=125
387480 Off ch=10 n=44 v=64
387480 Off ch=10 n=36 v=64
387480 On ch=10 n=36 v=127
387480 On ch=10 n=44 v=127
387600 Off ch=10 n=44 v=64
387600 On ch=10 n=44 v=93
387720 Off ch=10 n=38 v=64
387720 On ch=10 n=44 v=71
387840 Off ch=10 n=38 v=64
387840 On ch=10 n=44 v=83
387960 Off ch=10 n=44 v=64
387960 Off ch=10 n=36 v=64
387960 On ch=10 n=36 v=111
387960 On ch=10 n=38 v=127
388080 Off ch=10 n=44 v=64
388080 On ch=10 n=44 v=95
388200 Off ch=10 n=44 v=64
388200 On ch=10 n=44 v=67
388320 Off ch=10 n=44 v=64
388320 On ch=10 n=44 v=119
388440 Off ch=10 n=38 v=64
388440 Off ch=10 n=36 v=64
388440 On ch=10 n=36 v=127
388440 On ch=10 n=44 v=127
388560 Off ch=10 n=44 v=64
388560 On ch=10 n=44 v=91
388680 Off ch=10 n=44 v=64
388680 On ch=10 n=44 v=73
388800 Off ch=10 n=44 v=64
388800 On ch=10 n=44 v=106
388920 Off ch=10 n=44 v=64
388920 Off ch=10 n=36 v=64
388920 On ch=10 n=36 v=116
388920 On ch=10 n=44 v=115
389040 Off ch=10 n=44 v=64
389040 On ch=10 n=44 v=87
389160 Off ch=10 n=44 v=64
389160 On ch=10 n=44 v=70
389280 Off ch=10 n=44 v=64
389280 On ch=10 n=44 v=121
389400 Off ch=10 n=44 v=64
389400 Off ch=10 n=36 v=64
389400 On ch=10 n=36 v=113
389400 On ch=10 n=44 v=108
389520 Off ch=10 n=44 v=64
389520 On ch=10 n=44 v=115
389640 Off ch=10 n=44 v=64
389640 On ch=10 n=36 v=127
389640 On ch=10 n=42 v=127
389760 Off ch=10 n=44 v=64
389760 On ch=10 n=42 v=83
389880 Off ch=10 n=44 v=64
389880 Off ch=10 n=36 v=64
389880 On ch=10 n=42 v=63
390000 Off ch=10 n=44 v=64
390000 On ch=10 n=42 v=108
390120 Off ch=10 n=42 v=64
390120 Off ch=10 n=36 v=64
390120 On ch=10 n=36 v=118
390120 On ch=10 n=38 v=127
390240 Off ch=10 n=42 v=64
390240 On ch=10 n=42 v=90
390360 Off ch=10 n=42 v=64
390360 On ch=10 n=42 v=107
390480 Off ch=10 n=42 v=64
390480 On ch=10 n=42 v=92
390600 Off ch=10 n=38 v=64
390600 Off ch=10 n=36 v=64
390600 On ch=10 n=36 v=127
390600 On ch=10 n=42 v=127
390720 Off ch=10 n=42 v=64
390720 On ch=10 n=42 v=82
390840 Off ch=10 n=42 v=64
390840 On ch=10 n=42 v=61
390960 Off ch=10 n=42 v=64
390960 On ch=10 n=42 v=94
391080 Off ch=10 n=42 v=64
391080 Off ch=10 n=36 v=64
391080 On ch=10 n=36 v=122
391080 On ch=10 n=44 v=127
391200 Off ch=10 n=42 v=64
391200 On ch=10 n=44 v=87
391320 Off ch=10 n=42 v=64
391320 On ch=10 n=44 v=114
391440 Off ch=10 n=42 v=64
391440 On ch=10 n=44 v=61
391560 Off ch=10 n=44 v=64
391560 Off ch=10 n=36 v=64
391560 On ch=10 n=36 v=117
391560 On ch=10 n=44 v=114
391680 Off ch=10 n=44 v=64
391680 On ch=10 n=44 v=98
391800 Off ch=10 n=44 v=64
391800 On ch=10 n=38 v=121
391920 Off ch=10 n=44 v=64
391920 On ch=10 n=38 v=72
392040 Off ch=10 n=44 v=64
392040 Off ch=10 n=36 v=64
392040 On ch=10 n=36 v=127
392040 On ch=10 n=42 v=127
392160 Off ch=10 n=44 v=64
392160 On ch=10 n=42 v=85
392280 Off ch=10 n=38 v=64
392280 On ch=10 n=42 v=69
392400 Off ch=10 n=38 v=64
392400 On ch=10 n=42 v=56
392520 Off ch=10 n=42 v=64
392520 Off ch=10 n=36 v=64
392520 On ch=10 n=36 v=111
392520 On ch=10 n=38 v=127
392640 Off ch=10 n=42 v=64
392640 On ch=10 n=42 v=92
392760 Off ch=10 n=42 v=64
392760 On ch=10 n=42 v=59
392880 Off ch=10 n=42 v=64
392880 On ch=10 n=42 v=122
393000 Off ch=10 n=38 v=64
393000 Off ch=10 n=36 v=64
393000 On ch=10 n=36 v=127
393000 On ch=10 n=42 v=127
393120 Off ch=10 n=42 v=64
393120 On ch=10 n=42 v=92
393240 Off ch=10 n=42 v=64
393240 On ch=10 n=42 v=60
393360 Off ch=10 n=42 v=64
393360 On ch=10 n=42 v=65
393480 Off ch=10 n=42 v=64
393480 Off ch=10 n=36 v=64
393480 On ch=10 n=36 v=118
393480 On ch=10 n=44 v=127
393600 Off ch=10 n=42 v=64
393600 On ch=10 n=44 v=84
393720 Off ch=10 n=42 v=64
393720 On ch=10 n=44 v=125
393840 Off ch=10 n=42 v=64
393840 On ch=10 n=44 v=95
393960 Off ch=10 n=44 v=64
393960 Off ch=10 n=36 v=64
393960 On ch=10 n=36 v=124
393960 On ch=10 n=44 v=107
394080 Off ch=10 n=44 v=64
394080 On ch=10 n=44 v=89
394200 Off ch=10 n=44 v=64
394200 On ch=10 n=38 v=114
394320 Off ch=10 n=44 v=64
394320 On ch=10 n=38 v=58
394440 Off ch=10 n=44 v=64
394440 Off ch=10 n=36 v=64
394440 On ch=10 n=36 v=127
394440 On ch=10 n=42 v=127
394560 Off ch=10 n=44 v=64
394560 On ch=10 n=42 v=81
394680 Off ch=10 n=38 v=64
394680 On ch=10 n=42 v=117
394800 Off ch=10 n=38 v=64
394800 On ch=10 n=42 v=118
394920 Off ch=10 n=42 v=64
394920 Off ch=10 n=36 v=64
394920 On ch=10 n=36 v=107
394920 On ch=10 n=38 v=127
395040 Off ch=10 n=42 v=64
395040 On ch=10 n=42 v=82
395160 Off ch=10 n=42 v=64
395160 On ch=10 n=42 v=107
395280 Off ch=10 n=42 v=64
395280 On ch=10 n=42 v=56
395400 Off ch=10 n=38 v=64
395400 Off ch=10 n=36 v=64
395400 On ch=10 n=36 v=127
395400 On ch=10 n=42 v=127
395520 Off ch=10 n=42 v=64
395520 On ch=10 n=42 v=97
395640 Off ch=10 n=42 v=64
395640 On ch=10 n=42 v=86
395760 Off ch=10 n=42 v=64
395760 On ch=10 n=42 v=66
395880 Off ch=10 n=42 v=64
395880 Off ch=10 n=36 v=64
395880 On ch=10 n=36 v=113
395880 On ch=10 n=44 v=127
396000 Off ch=10 n=42 v=64
396000 On ch=10 n=44 v=92
396120 Off ch=10 n=42 v=64
396120 On ch=10 n=44 v=121
396240 Off ch=10 n=42 v=64
396240 On ch=10 n=44 v=100
396360 Off ch=10 n=44 v=64
396360 Off ch=10 n=36 v=64
396360 On ch=10 n=36 v=125
396360 On ch=10 n=44 v=124
396480 Off ch=10 n=44 v=64
396480 On ch=10 n=44 v=100
396600 Off ch=10 n=44 v=64
396600 On ch=10 n=38 v=106
396720 Off ch=10 n=44 v=64
396720 On ch=10 n=38 v=90
396840 Off ch=10 n=44 v=64
396840 Off ch=10 n=36 v=64
396840 On ch=10 n=36 v=127
396840 On ch=10 n=42 v=127
396960 Off ch=10 n=44 v=64
396960 On ch=10 n=42 v=85
397080 Off ch=10 n=38 v=64
397080 On ch=10 n=42 v=121
397200 Off ch=10 n=38 v=64
397200 On ch=10 n=42 v=56
397320 Off ch=10 n=42 v=64
397320 Off ch=10 n=36 v=64
397320 On ch=10 n=36 v=115
397320 On ch=10 n=38 v=127
397440 Off ch=10 n=42 v=64
397440 On ch=10 n=42 v=95
397560 Off ch=10 n=42 v=64
397560 On ch=10 n=42 v=66
397680 Off ch=10 n=42 v=64
397680 On ch=10 n=42 v=113
397800 Off ch=10 n=38 v=64
397800 Off ch=10 n=36 v=64
397800 On ch=10 n=36 v=127
397800 On ch=10 n=42 v=127
397920 Off ch=10 n=42 v=64
397920 On ch=10 n=42 v=83
398040 Off ch=10 n=42 v=64
398040 On ch=10 n=42 v=112
398160 Off ch=10 n=42 v=64
398160 On ch=10 n=42 v=94
398280 Off ch=10 n=42 v=64
398280 Off ch=10 n=36 v=64
398280 On ch=10 n=36 v=123
398280 On ch=10 n=44 v=127
398400 Off ch=10 n=42 v=64
398400 On ch=10 n=44 v=97
398520 Off ch=10 n=42 v=64
398520 On ch=10 n=44 v=82
398640 Off ch=10 n=42 v=64
398640 On ch=10 n=44 v=72
398760 Off ch=10 n=44 v=64
398760 Off ch=10 n=36 v=64
398760 On ch=10 n=36 v=116
398760 On ch=10 n=44 v=118
398880 Off ch=10 n=44 v=64
398880 On ch=10 n=44 v=89
399000 Off ch=10 n=44 v=64
399000 On ch=10 n=38 v=122
399120 Off ch=10 n=44 v=64
399120 On ch=10 n=38 v=66
399240 Off ch=10 n=44 v=64
399240 Off ch=10 n=36 v=64
399240 On ch=10 n=36 v=127
399240 On ch=10 n=42 v=127
399360 Off ch=10 n=44 v=64
399360 On ch=10 n=42 v=95
399480 Off ch=10 n=38 v=64
399480 On ch=10 n=42 v=68
399600 Off ch=10 n=38 v=64
399600 On ch=10 n=42 v=99
399720 Off ch=10 n=42 v=64
399720 Off ch=10 n=36 v=64
399720 On ch=10 n=36 v=118
399720 On ch=10 n=38 v=127
399840 Off ch=10 n=42 v=64
399840 On ch=10 n=42 v=89
399960 Off ch=10 n=42 v=64
399960 On ch=10 n=42 v=81
400080 Off ch=10 n=42 v=64
400080 On ch=10 n=42 v=83
400200 Off ch=10 n=38 v=64
400200 Off ch=10 n=36 v=64
400200 On ch=10 n=36 v=127
400200 On ch=10 n=42 v=127
400320 Off ch=10 n=42 v=64
400320 On ch=10 n=42 v=98
400440 Off ch=10 n=42 v=64
400440 On ch=10 n=42 v=125
400560 Off ch=10 n=42 v=64
400560 On ch=10 n=42 v=107
400680 Off ch=10 n=42 v=64
400680 Off ch=10 n=36 v=64
400680 On ch=10 n=36 v=115
400680 On ch=10 n=44 v=127
400800 Off ch=10 n=42 v=64
400800 On ch=10 n=44 v=82
400920 Off ch=10 n=42 v=64
400920 On ch=10 n=44 v=115
401040 Off ch=10 n=42 v=64
401040 On ch=10 n=44 v=108
401160 Off ch=10 n=44 v=64
401160 Off ch=10 n=36 v=64
401160 On ch=10 n=36 v=123
401160 On ch=10 n=44 v=107
401280 Off ch=10 n=44 v=64
401280 On ch=10 n=44 v=89
401400 Off ch=10 n=44 v=64
401400 On ch=10 n=38 v=106
401520 Off ch=10 n=44 v=64
401520 On ch=10 n=38 v=86
401640 Off ch=10 n=44 v=64
401640 Off ch=10 n=36 v=64
401640 On ch=10 n=36 v=127
401640 On ch=10 n=42 v=127
401760 Off ch=10 n=44 v=64
401760 On ch=10 n=42 v=100
401880 Off ch=10 n=38 v=64
401880 On ch=10 n=42 v=57
402000 Off ch=10 n=38 v=64
402000 On ch=10 n=42 v=68
402120 Off ch=10 n=42 v=64
402120 Off ch=10 n=36 v=64
402120 On ch=10 n=36 v=110
402120 On ch=10 n=38 v=127
402240 Off ch=10 n=42 v=64
402240 On ch=10 n=42 v=83
402360 Off ch=10 n=42 v=64
402360 On ch=10 n=42 v=64
402480 Off ch=10 n=42 v=64
402480 On ch=10 n=42 v=95
402600 Off ch=10 n=38 v=64
402600 Off ch=10 n=36 v=64
402600 On ch=10 n=36 v=127
402600 On ch=10 n=42 v=127
402720 Off ch=10 n=42 v=64
402720 On ch=10 n=42 v=91
402840 Off ch=10 n=42 v=64
402840 On ch=10 n=42 v=58
402960 Off ch=10 n=42 v=64
402960 On ch=10 n=42 v=56
403080 Off ch=10 n=42 v=64
403080 Off ch=10 n=36 v=64
403080 On ch=10 n=36 v=108
403080 On ch=10 n=44 v=127
403200 Off ch=10 n=42 v=64
403200 On ch=10 n=44 v=97
403320 Off ch=10 n=42 v=64
403320 On ch=10 n=44 v=117
403440 Off ch=10 n=42 v=64
403440 On ch=10 n=44 v=108
403560 Off ch=10 n=44 v=64
403560 Off ch=10 n=36 v=64
403560 On ch=10 n=36 v=106
403560 On ch=10 n=44 v=110
403680 Off ch=10 n=44 v=64
403680 On ch=10 n=44 v=87
403800 Off ch=10 n=44 v=64
403800 On ch=10 n=38 v=121
403920 Off ch=10 n=44 v=64
403920 On ch=10 n=38 v=124
404040 Off ch=10 n=44 v=64
404040 Off ch=10 n=36 v=64
404040 On ch=10 n=36 v=127
404040 On ch=10 n=42 v=127
404160 Off ch=10 n=44 v=64
404160 On ch=10 n=42 v=81
404280 Off ch=10 n=38 v=64
404280 On ch=10 n=42 v=75
404400 Off ch=10 n=38 v=64
404400 On ch=10 n=42 v=110
404520 Off ch=10 n=42 v=64
404520 Off ch=10 n=36 v=64
404520 On ch=10 n=36 v=124
404520 On ch=10 n=38 v=127
404640 Off ch=10 n=42 v=64
404640 On ch=10 n=42 v=99
404760 Off ch=10 n=42 v=64
404760 On ch=10 n=42 v=100
404880 Off ch=10 n=42 v=64
404880 On ch=10 n=42 v=82
405000 Off ch=10 n=38 v=64
405000 Off ch=10 n=36 v=64
405000 On ch=10 n=36 v=127
405000 On ch=10 n=42 v=127
405120 Off ch=10 n=42 v=64
405120 On ch=10 n=42 v=98
405240 Off ch=10 n=42 v=64
405240 On ch=10 n=42 v=116
405360 Off ch=10 n=42 v=64
405360 On ch=10 n=42 v=71
405480 Off ch=10 n=42 v=64
405480 Off ch=10 n=36 v=64
405480 On ch=10 n=36 v=118
405480 On ch=10 n=44 v=127
405600 Off ch=10 n=42 v=64
405600 On ch=10 n=44 v=99
405720 Off ch=10 n=42 v=64
405720 On ch=10 n=44 v=113
405840 Off ch=10 n=42 v=64
405840 On ch=10 n=44 v=120
405960 Off ch=10 n=44 v=64
405960 Off ch=10 n=36 v=64
405960 On ch=10 n=36 v=119
405960 On ch=10 n=44 v=115
406080 Off ch=10 n=44 v=64
406080 On ch=10 n=44 v=96
406200 Off ch=10 n=44 v=64
406200 On ch=10 n=38 v=108
406320 Off ch=10 n=44 v=64
406320 On ch=10 n=38 v=68
406440 Off ch=10 n=44 v=64
406440 Off ch=10 n=36 v=64
406440 On ch=10 n=36 v=127
406440 On ch=10 n=44 v=127
406560 Off ch=10 n=44 v=64
406560 On ch=10 n=44 v=95
406680 Off ch=10 n=38 v=64
406680 On ch=10 n=44 v=70
406800 Off ch=10 n=38 v=64
406800 On ch=10 n=44 v=109
406920 Off ch=10 n=44 v=64
406920 Off ch=10 n=36 v=64
406920 On ch=10 n=36 v=123
406920 On ch=10 n=38 v=127
407040 Off ch=10 n=44 v=64
407040 On ch=10 n=44 v=81
407160 Off ch=10 n=44 v=64
407160 On ch=10 n=44 v=66
407280 Off ch=10 n=44 v=64
407280 On ch=10 n=44 v=116
407400 Off ch=10 n=38 v=64
407400 Off ch=10 n=36 v=64
407400 On ch=10 n=36 v=127
407400 On ch=10 n=44 v=127
407520 Off ch=10 n=44 v=64
407520 On ch=10 n=44 v=81
407640 Off ch=10 n=44 v=64
407640 On ch=10 n=44 v=97
407760 Off ch=10 n=44 v=64
407760 On ch=10 n=44 v=60
407880 Off ch=10 n=44 v=64
407880 Off ch=10 n=36 v=64
407880 On ch=10 n=36 v=127
407880 On ch=10 n=38 v=127
408000 Off ch=10 n=44 v=64
408120 Off ch=10 n=44 v=64
408240 Off ch=10 n=44 v=64
408240 On ch=10 n=36 v=127
408240 On ch=10 n=38 v=127
408360 Off ch=10 n=36 v=64
408360 Off ch=10 n=38 v=64
408720 Off ch=10 n=36 v=64
408720 Off ch=10 n=38 v=64
417240 On ch=10 n=38 v=127
417360 On ch=10 n=38 v=118
417480 On ch=10 n=38 v=120
417600 On ch=10 n=38 v=62
417720 Off ch=10 n=38 v=64
417720 On ch=10 n=36 v=127
417720 On ch=10 n=42 v=127
417840 Off ch=10 n=38 v=64
417840 On ch=10 n=42 v=92
417960 Off ch=10 n=38 v=64
417960 On ch=10 n=42 v=106
418080 Off ch=10 n=38 v=64
418080 On ch=10 n=42 v=98
418200 Off ch=10 n=36 v=64
418200 Off ch=10 n=42 v=64
418200 On ch=10 n=36 v=123
418200 On ch=10 n=38 v=127
418320 Off ch=10 n=42 v=64
418320 On ch=10 n=42 v=61
418440 Off ch=10 n=42 v=64
418440 On ch=10 n=42 v=66
418560 Off ch=10 n=42 v=64
418560 On ch=10 n=42 v=120
418680 Off ch=10 n=38 v=64
418680 Off ch=10 n=36 v=64
418680 On ch=10 n=36 v=127
418680 On ch=10 n=42 v=127
418800 Off ch=10 n=42 v=64
418800 On ch=10 n=42 v=98
418920 Off ch=10 n=42 v=64
418920 On ch=10 n=42 v=114
419040 Off ch=10 n=42 v=64
419040 On ch=10 n=42 v=88
419160 Off ch=10 n=42 v=64
419160 Off ch=10 n=36 v=64
419160 On ch=10 n=36 v=113
419160 On ch=10 n=42 v=123
419280 Off ch=10 n=42 v=64
419280 On ch=10 n=42 v=70
419400 Off ch=10 n=42 v=64
419400 On ch=10 n=42 v=72
419520 Off ch=10 n=42 v=64
419520 On ch=10 n=42 v=88
419640 Off ch=10 n=42 v=64
419640 Off ch=10 n=36 v=64
419640 On ch=10 n=36 v=127
419640 On ch=10 n=42 v=127
419760 Off ch=10 n=42 v=64
419760 On ch=10 n=42 v=85
419880 Off ch=10 n=42 v=64
419880 On ch=10 n=42 v=125
420000 Off ch=10 n=42 v=64
420000 On ch=10 n=42 v=90
420120 Off ch=10 n=42 v=64
420120 Off ch=10 n=36 v=64
420120 On ch=10 n=36 v=106
420120 On ch=10 n=42 v=116
420240 Off ch=10 n=42 v=64
420240 On ch=10 n=42 v=89
420360 Off ch=10 n=42 v=64
420360 On ch=10 n=42 v=120
420480 Off ch=10 n=42 v=64
420480 On ch=10 n=42 v=95
420600 Off ch=10 n=42 v=64
420600 Off ch=10 n=36 v=64
420600 On ch=10 n=36 v=127
420600 On ch=10 n=42 v=127
420720 Off ch=10 n=42 v=64
420720 On ch=10 n=42 v=88
420840 Off ch=10 n=42 v=64
420840 On ch=10 n=42 v=115
420960 Off ch=10 n=42 v=64
420960 On ch=10 n=42 v=92
421080 Off ch=10 n=42 v=64
421080 Off ch=10 n=36 v=64
421080 On ch=10 n=36 v=107
421080 On ch=10 n=38 v=127
421200 Off ch=10 n=42 v=64
421200 On ch=10 n=42 v=84
421320 Off ch=10 n=42 v=64
421320 On ch=10 n=42 v=61
421440 Off ch=10 n=42 v=64
421440 On ch=10 n=42 v=115
421560 Off ch=10 n=38 v=64
421560 Off ch=10 n=36 v=64
421560 On ch=10 n=36 v=127
421560 On ch=10 n=42 v=127
421680 Off ch=10 n=42 v=64
421680 On ch=10 n=42 v=81
421800 Off ch=10 n=42 v=64
421800 On ch=10 n=42 v=121
421920 Off ch=10 n=42 v=64
421920 On ch=10 n=42 v=81
422040 Off ch=10 n=42 v=64
422040 Off ch=10 n=36 v=64
422040 On ch=10 n=36 v=109
422040 On ch=10 n=42 v=119
422160 Off ch=10 n=42 v=64
422160 On ch=10 n=42 v=113
422280 Off ch=10 n=42 v=64
422280 On ch=10 n=42 v=95
422400 Off ch=10 n=42 v=64
422400 On ch=10 n=42 v=86
422520 Off ch=10 n=42 v=64
422520 Off ch=10 n=36 v=64
422520 On ch=10 n=36 v=127
422520 On ch=10 n=42 v=127
422640 Off ch=10 n=42 v=64
422640 On ch=10 n=42 v=99
422760 Off ch=10 n=42 v=64
422760 On ch=10 n=42 v=113
422880 Off ch=10 n=42 v=64
422880 On ch=10 n=42 v=91
423000 Off ch=10 n=42 v=64
423000 Off ch=10 n=36 v=64
423000 On ch=10 n=36 v=124
423000 On ch=10 n=42 v=118
423120 Off ch=10 n=42 v=64
423120 On ch=10 n=42 v=89
423240 Off ch=10 n=42 v=64
423240 On ch=10 n=42 v=124
423360 Off ch=10 n=42 v=64
423360 On ch=10 n=42 v=64
423480 Off ch=10 n=42 v=64
423480 Off ch=10 n=36 v=64
423480 On ch=10 n=36 v=127
423480 On ch=10 n=42 v=127
423600 Off ch=10 n=42 v=64
423600 On ch=10 n=42 v=98
423720 Off ch=10 n=42 v=64
423720 On ch=10 n=42 v=109
423840 Off ch=10 n=42 v=64
423840 On ch=10 n=42 v=96
423960 Off ch=10 n=42 v=64
423960 Off ch=10 n=36 v=64
423960 On ch=10 n=36 v=120
424080 Off ch=10 n=42 v=64
424080 On ch=10 n=42 v=57
424200 Off ch=10 n=42 v=64
424200 On ch=10 n=42 v=94
424320 Off ch=10 n=42 v=64
424320 On ch=10 n=42 v=60
424440 Off ch=10 n=36 v=64
424440 On ch=10 n=36 v=127
424440 On ch=10 n=42 v=127
424560 Off ch=10 n=42 v=64
424560 On ch=10 n=42 v=98
424680 Off ch=10 n=42 v=64
424680 On ch=10 n=42 v=110
424800 Off ch=10 n=42 v=64
424800 On ch=10 n=42 v=100
424920 Off ch=10 n=42 v=64
424920 Off ch=10 n=36 v=64
424920 On ch=10 n=36 v=106
424920 On ch=10 n=42 v=112
425040 Off ch=10 n=42 v=64
425040 On ch=10 n=42 v=70
425160 Off ch=10 n=42 v=64
425160 On ch=10 n=42 v=115
425280 Off ch=10 n=42 v=64
425280 On ch=10 n=42 v=112
425400 Off ch=10 n=42 v=64
425400 Off ch=10 n=36 v=64
425400 On ch=10 n=36 v=127
425400 On ch=10 n=42 v=127
425520 Off ch=10 n=42 v=64
425520 On ch=10 n=42 v=87
425640 Off ch=10 n=42 v=64
425640 On ch=10 n=42 v=107
425760 Off ch=10 n=42 v=64
425760 On ch=10 n=42 v=74
425880 Off ch=10 n=42 v=64
425880 Off ch=10 n=36 v=64
425880 On ch=10 n=36 v=110
425880 On ch=10 n=38 v=127
426000 Off ch=10 n=42 v=64
426000 On ch=10 n=38 v=115
426120 Off ch=10 n=42 v=64
426120 On ch=10 n=42 v=125
426240 Off ch=10 n=42 v=64
426360 Off ch=10 n=38 v=64
426360 Off ch=10 n=36 v=64
426360 On ch=10 n=36 v=127
426360 On ch=10 n=42 v=127
426480 Off ch=10 n=38 v=64
426480 On ch=10 n=42 v=95
426600 Off ch=10 n=42 v=64
426600 On ch=10 n=42 v=111
426720 On ch=10 n=42 v=91
426840 Off ch=10 n=42 v=64
426840 Off ch=10 n=36 v=64
426840 On ch=10 n=36 v=124
426840 On ch=10 n=38 v=127
426960 Off ch=10 n=42 v=64
426960 On ch=10 n=42 v=82
427080 Off ch=10 n=42 v=64
427080 On ch=10 n=42 v=109
427200 Off ch=10 n=42 v=64
427200 On ch=10 n=42 v=71
427320 Off ch=10 n=38 v=64
427320 Off ch=10 n=36 v=64
427320 On ch=10 n=36 v=127
427320 On ch=10 n=42 v=127
427440 Off ch=10 n=42 v=64
427440 On ch=10 n=42 v=81
427560 Off ch=10 n=42 v=64
427560 On ch=10 n=42 v=123
427680 Off ch=10 n=42 v=64
427680 On ch=10 n=42 v=84
427800 Off ch=10 n=42 v=64
427800 Off ch=10 n=36 v=64
427800 On ch=10 n=36 v=116
427800 On ch=10 n=42 v=107
427920 Off ch=10 n=42 v=64
427920 On ch=10 n=42 v=114
428040 Off ch=10 n=42 v=64
428040 On ch=10 n=42 v=125
428160 Off ch=10 n=42 v=64
428160 On ch=10 n=42 v=108
428280 Off ch=10 n=42 v=64
428280 Off ch=10 n=36 v=64
428280 On ch=10 n=36 v=123
428280 On ch=10 n=42 v=127
428400 Off ch=10 n=42 v=64
428400 On ch=10 n=42 v=92
428520 Off ch=10 n=42 v=64
428520 On ch=10 n=42 v=117
428640 Off ch=10 n=42 v=64
428640 On ch=10 n=42 v=93
428760 Off ch=10 n=42 v=64
428760 Off ch=10 n=36 v=64
428760 On ch=10 n=42 v=108
428880 Off ch=10 n=42 v=64
428880 On ch=10 n=42 v=113
429000 Off ch=10 n=42 v=64
429000 On ch=10 n=38 v=127
429120 Off ch=10 n=42 v=64
429120 On ch=10 n=38 v=116
429240 Off ch=10 n=42 v=64
429240 On ch=10 n=36 v=127
429240 On ch=10 n=42 v=127
429360 Off ch=10 n=42 v=64
429360 On ch=10 n=42 v=98
429480 Off ch=10 n=38 v=64
429480 On ch=10 n=42 v=123
429600 Off ch=10 n=38 v=64
429600 On ch=10 n=42 v=93
429720 Off ch=10 n=42 v=64
429720 Off ch=10 n=36 v=64
429720 On ch=10 n=36 v=125
429720 On ch=10 n=38 v=127
429840 Off ch=10 n=42 v=64
429840 On ch=10 n=42 v=96
429960 Off ch=10 n=42 v=64
429960 On ch=10 n=42 v=110
430080 Off ch=10 n=42 v=64
430080 On ch=10 n=42 v=96
430200 Off ch=10 n=38 v=64
430200 Off ch=10 n=36 v=64
430200 On ch=10 n=36 v=127
430200 On ch=10 n=42 v=127
430320 Off ch=10 n=42 v=64
430320 On ch=10 n=42 v=81
430440 Off ch=10 n=42 v=64
430440 On ch=10 n=42 v=124
430560 Off ch=10 n=42 v=64
430560 On ch=10 n=42 v=84
430680 Off ch=10 n=42 v=64
430680 Off ch=10 n=36 v=64
430680 On ch=10 n=36 v=124
430680 On ch=10 n=38 v=127
430680 On ch=10 n=42 v=120
430800 Off ch=10 n=42 v=64
430800 On ch=10 n=42 v=67
430920 Off ch=10 n=42 v=64
430920 On ch=10 n=42 v=106
431040 Off ch=10 n=42 v=64
431040 On ch=10 n=42 v=124
431160 Off ch=10 n=42 v=64
431160 Off ch=10 n=36 v=64
431160 Off ch=10 n=38 v=64
431160 On ch=10 n=36 v=124
431160 On ch=10 n=42 v=106
431280 Off ch=10 n=42 v=64
431280 On ch=10 n=42 v=93
431400 Off ch=10 n=42 v=64
431400 On ch=10 n=42 v=127
431520 Off ch=10 n=42 v=64
431520 On ch=10 n=42 v=127
431640 Off ch=10 n=42 v=64
431640 Off ch=10 n=36 v=64
431640 On ch=10 n=42 v=115
431760 Off ch=10 n=42 v=64
431760 On ch=10 n=42 v=127
431880 Off ch=10 n=42 v=64
431880 On ch=10 n=38 v=127
432000 Off ch=10 n=42 v=64
432000 On ch=10 n=38 v=117
432120 Off ch=10 n=42 v=64
432120 On ch=10 n=36 v=127
432120 On ch=10 n=42 v=127
432240 Off ch=10 n=42 v=64
432240 On ch=10 n=42 v=85
432360 Off ch=10 n=38 v=64
432360 On ch=10 n=42 v=115
432480 Off ch=10 n=38 v=64
432480 On ch=10 n=42 v=100
432600 Off ch=10 n=42 v=64
432600 Off ch=10 n=36 v=64
432600 On ch=10 n=36 v=116
432600 On ch=10 n=38 v=127
432720 Off ch=10 n=42 v=64
432720 On ch=10 n=42 v=67
432840 Off ch=10 n=42 v=64
432840 On ch=10 n=42 v=62
432960 Off ch=10 n=42 v=64
432960 On ch=10 n=42 v=90
433080 Off ch=10 n=38 v=64
433080 Off ch=10 n=36 v=64
433080 On ch=10 n=36 v=127
433080 On ch=10 n=42 v=127
433200 Off ch=10 n=42 v=64
433200 On ch=10 n=42 v=92
433320 Off ch=10 n=42 v=64
433320 On ch=10 n=42 v=113
433440 Off ch=10 n=42 v=64
433440 On ch=10 n=42 v=92
433560 Off ch=10 n=42 v=64
433560 Off ch=10 n=36 v=64
433560 On ch=10 n=36 v=121
433560 On ch=10 n=38 v=127
433560 On ch=10 n=42 v=117
433680 Off ch=10 n=42 v=64
433680 On ch=10 n=42 v=83
433800 Off ch=10 n=42 v=64
433800 On ch=10 n=42 v=125
433920 Off ch=10 n=42 v=64
433920 On ch=10 n=42 v=86
434040 Off ch=10 n=42 v=64
434040 Off ch=10 n=36 v=64
434040 Off ch=10 n=38 v=64
434040 On ch=10 n=36 v=119
434040 On ch=10 n=42 v=120
434160 Off ch=10 n=42 v=64
434160 On ch=10 n=42 v=92
434280 Off ch=10 n=42 v=64
434280 On ch=10 n=42 v=127
434400 Off ch=10 n=42 v=64
434400 On ch=10 n=42 v=127
434520 Off ch=10 n=42 v=64
434520 Off ch=10 n=36 v=64
434520 On ch=10 n=42 v=120
434640 Off ch=10 n=42 v=64
434640 On ch=10 n=42 v=127
434760 Off ch=10 n=42 v=64
434760 On ch=10 n=38 v=127
434880 Off ch=10 n=42 v=64
434880 On ch=10 n=38 v=57
435000 Off ch=10 n=42 v=64
435000 On ch=10 n=36 v=127
435000 On ch=10 n=38 v=127
435000 On ch=10 n=42 v=127
435120 Off ch=10 n=42 v=64
435120 On ch=10 n=42 v=97
435240 Off ch=10 n=38 v=64
435240 On ch=10 n=42 v=117
435360 Off ch=10 n=38 v=64
435360 On ch=10 n=42 v=87
435480 Off ch=10 n=42 v=64
435480 Off ch=10 n=36 v=64
435480 Off ch=10 n=38 v=64
435480 On ch=10 n=36 v=117
435600 Off ch=10 n=42 v=64
435600 On ch=10 n=42 v=86
435720 Off ch=10 n=42 v=64
435720 On ch=10 n=42 v=112
435840 Off ch=10 n=42 v=64
435840 On ch=10 n=42 v=116
435960 Off ch=10 n=36 v=64
435960 On ch=10 n=36 v=127
435960 On ch=10 n=42 v=127
436080 Off ch=10 n=42 v=64
436080 On ch=10 n=42 v=96
436200 Off ch=10 n=42 v=64
436200 On ch=10 n=42 v=111
436320 Off ch=10 n=42 v=64
436320 On ch=10 n=42 v=97
436440 Off ch=10 n=42 v=64
436440 Off ch=10 n=36 v=64
436440 On ch=10 n=36 v=121
436440 On ch=10 n=38 v=107
436440 On ch=10 n=42 v=110
436560 Off ch=10 n=42 v=64
436560 On ch=10 n=42 v=110
436680 Off ch=10 n=42 v=64
436680 On ch=10 n=42 v=82
436800 Off ch=10 n=42 v=64
436800 On ch=10 n=42 v=100
436920 Off ch=10 n=42 v=64
436920 Off ch=10 n=36 v=64
436920 Off ch=10 n=38 v=64
436920 On ch=10 n=36 v=107
436920 On ch=10 n=42 v=116
437040 Off ch=10 n=42 v=64
437040 On ch=10 n=42 v=120
437160 Off ch=10 n=42 v=64
437160 On ch=10 n=42 v=123
437280 Off ch=10 n=42 v=64
437280 On ch=10 n=42 v=87
437400 Off ch=10 n=42 v=64
437400 Off ch=10 n=36 v=64
437400 On ch=10 n=42 v=107
437520 Off ch=10 n=42 v=64
437520 On ch=10 n=42 v=117
437640 Off ch=10 n=42 v=64
437640 On ch=10 n=38 v=127
437760 Off ch=10 n=42 v=64
437760 On ch=10 n=38 v=117
437880 Off ch=10 n=42 v=64
437880 On ch=10 n=36 v=127
437880 On ch=10 n=38 v=127
437880 On ch=10 n=42 v=127
438000 Off ch=10 n=42 v=64
438000 On ch=10 n=42 v=92
438120 Off ch=10 n=38 v=64
438120 On ch=10 n=42 v=116
438240 Off ch=10 n=38 v=64
438240 On ch=10 n=42 v=89
438360 Off ch=10 n=42 v=64
438360 Off ch=10 n=36 v=64
438360 Off ch=10 n=38 v=64
438360 On ch=10 n=36 v=117
438480 Off ch=10 n=42 v=64
438480 On ch=10 n=42 v=92
438600 Off ch=10 n=42 v=64
438600 On ch=10 n=42 v=58
438720 Off ch=10 n=42 v=64
438720 On ch=10 n=42 v=91
438840 Off ch=10 n=36 v=64
438840 On ch=10 n=36 v=127
438840 On ch=10 n=42 v=127
438960 Off ch=10 n=42 v=64
438960 On ch=10 n=42 v=83
439080 Off ch=10 n=42 v=64
439080 On ch=10 n=42 v=112
439200 Off ch=10 n=42 v=64
439200 On ch=10 n=42 v=98
439320 Off ch=10 n=42 v=64
439320 Off ch=10 n=36 v=64
439320 On ch=10 n=36 v=124
439320 On ch=10 n=38 v=114
439320 On ch=10 n=42 v=106
439440 Off ch=10 n=42 v=64
439440 On ch=10 n=42 v=75
439560 Off ch=10 n=42 v=64
439560 On ch=10 n=42 v=93
439680 Off ch=10 n=42 v=64
439680 On ch=10 n=42 v=74
439800 Off ch=10 n=42 v=64
439800 Off ch=10 n=36 v=64
439800 Off ch=10 n=38 v=64
439800 On ch=10 n=36 v=107
439800 On ch=10 n=42 v=109
439920 Off ch=10 n=42 v=64
439920 On ch=10 n=42 v=96
440040 Off ch=10 n=42 v=64
440040 On ch=10 n=42 v=122
440160 Off ch=10 n=42 v=64
440160 On ch=10 n=42 v=72
440280 Off ch=10 n=42 v=64
440280 Off ch=10 n=36 v=64
440280 On ch=10 n=42 v=122
440400 Off ch=10 n=42 v=64
440400 On ch=10 n=42 v=96
440520 Off ch=10 n=42 v=64
440520 On ch=10 n=38 v=127
440640 Off ch=10 n=42 v=64
440640 On ch=10 n=38 v=107
440760 Off ch=10 n=42 v=64
440760 On ch=10 n=36 v=127
440760 On ch=10 n=38 v=127
440760 On ch=10 n=42 v=127
440880 Off ch=10 n=42 v=64
440880 On ch=10 n=42 v=90
441000 Off ch=10 n=38 v=64
441000 On ch=10 n=42 v=121
441120 Off ch=10 n=38 v=64
441120 On ch=10 n=42 v=90
441240 Off ch=10 n=42 v=64
441240 Off ch=10 n=36 v=64
441240 Off ch=10 n=38 v=64
441240 On ch=10 n=36 v=118
441360 Off ch=10 n=42 v=64
441360 On ch=10 n=42 v=118
441480 Off ch=10 n=42 v=64
441480 On ch=10 n=42 v=66
441600 Off ch=10 n=42 v=64
441600 On ch=10 n=42 v=92
441720 Off ch=10 n=36 v=64
441720 On ch=10 n=36 v=127
441720 On ch=10 n=42 v=127
441840 Off ch=10 n=42 v=64
441840 On ch=10 n=42 v=91
441960 Off ch=10 n=42 v=64
441960 On ch=10 n=42 v=113
442080 Off ch=10 n=42 v=64
442080 On ch=10 n=42 v=85
442200 Off ch=10 n=42 v=64
442200 Off ch=10 n=36 v=64
442200 On ch=10 n=36 v=119
442200 On ch=10 n=38 v=121
442200 On ch=10 n=42 v=125
442320 Off ch=10 n=42 v=64
442320 On ch=10 n=42 v=93
442440 Off ch=10 n=42 v=64
442440 On ch=10 n=42 v=56
442560 Off ch=10 n=42 v=64
442560 On ch=10 n=42 v=110
442680 Off ch=10 n=42 v=64
442680 Off ch=10 n=36 v=64
442680 Off ch=10 n=38 v=64
442680 On ch=10 n=36 v=110
442680 On ch=10 n=42 v=109
442800 Off ch=10 n=42 v=64
442800 On ch=10 n=42 v=87
442920 Off ch=10 n=42 v=64
442920 On ch=10 n=42 v=115
443040 Off ch=10 n=42 v=64
443040 On ch=10 n=42 v=97
443160 Off ch=10 n=42 v=64
443160 Off ch=10 n=36 v=64
443160 On ch=10 n=42 v=113
443280 Off ch=10 n=42 v=64
443280 On ch=10 n=42 v=84
443400 Off ch=10 n=42 v=64
443400 On ch=10 n=38 v=127
443520 Off ch=10 n=42 v=64
443520 On ch=10 n=38 v=59
443640 Off ch=10 n=42 v=64
443640 On ch=10 n=36 v=127
443640 On ch=10 n=38 v=127
443640 On ch=10 n=42 v=127
443760 Off ch=10 n=42 v=64
443760 On ch=10 n=42 v=87
443880 Off ch=10 n=38 v=64
443880 On ch=10 n=42 v=109
444000 Off ch=10 n=38 v=64
444000 On ch=10 n=42 v=99
444120 Off ch=10 n=42 v=64
444120 Off ch=10 n=36 v=64
444120 Off ch=10 n=38 v=64
444120 On ch=10 n=36 v=112
444240 Off ch=10 n=42 v=64
444240 On ch=10 n=42 v=69
444360 Off ch=10 n=42 v=64
444360 On ch=10 n=42 v=94
444480 Off ch=10 n=42 v=64
444480 On ch=10 n=42 v=83
444600 Off ch=10 n=36 v=64
444600 On ch=10 n=36 v=127
444600 On ch=10 n=42 v=127
444720 Off ch=10 n=42 v=64
444720 On ch=10 n=42 v=95
444840 Off ch=10 n=42 v=64
444840 On ch=10 n=42 v=109
444960 Off ch=10 n=42 v=64
444960 On ch=10 n=42 v=93
445080 Off ch=10 n=42 v=64
445080 Off ch=10 n=36 v=64
445080 On ch=10 n=36 v=115
445080 On ch=10 n=38 v=113
445080 On ch=10 n=42 v=112
445200 Off ch=10 n=42 v=64
445200 On ch=10 n=42 v=99
445320 Off ch=10 n=42 v=64
445320 On ch=10 n=42 v=63
445440 Off ch=10 n=42 v=64
445440 On ch=10 n=42 v=94
445560 Off ch=10 n=42 v=64
445560 Off ch=10 n=36 v=64
445560 Off ch=10 n=38 v=64
445560 On ch=10 n=36 v=119
445560 On ch=10 n=42 v=109
445680 Off ch=10 n=42 v=64
445680 On ch=10 n=42 v=71
445800 Off ch=10 n=42 v=64
445800 On ch=10 n=42 v=114
445920 Off ch=10 n=42 v=64
445920 On ch=10 n=42 v=69
446040 Off ch=10 n=42 v=64
446040 Off ch=10 n=36 v=64
446040 On ch=10 n=42 v=107
446160 Off ch=10 n=42 v=64
446160 On ch=10 n=42 v=93
446280 Off ch=10 n=42 v=64
446280 On ch=10 n=38 v=127
446400 Off ch=10 n=42 v=64
446400 On ch=10 n=38 v=88
446520 Off ch=10 n=42 v=64
446520 On ch=10 n=36 v=127
446520 On ch=10 n=38 v=127
446520 On ch=10 n=42 v=127
446640 Off ch=10 n=42 v=64
446640 On ch=10 n=42 v=86
446760 Off ch=10 n=38 v=64
446760 On ch=10 n=42 v=114
446880 Off ch=10 n=38 v=64
446880 On ch=10 n=42 v=87
447000 Off ch=10 n=42 v=64
447000 Off ch=10 n=36 v=64
447000 Off ch=10 n=38 v=64
447000 On ch=10 n=36 v=117
447120 Off ch=10 n=42 v=64
447120 On ch=10 n=42 v=121
447240 Off ch=10 n=42 v=64
447240 On ch=10 n=42 v=62
447360 Off ch=10 n=42 v=64
447360 On ch=10 n=42 v=93
447480 Off ch=10 n=36 v=64
447480 On ch=10 n=36 v=127
447480 On ch=10 n=42 v=127
447600 Off ch=10 n=42 v=64
447600 On ch=10 n=42 v=82
447720 Off ch=10 n=42 v=64
447720 On ch=10 n=42 v=117
447840 Off ch=10 n=42 v=64
447840 On ch=10 n=42 v=90
447960 Off ch=10 n=42 v=64
447960 Off ch=10 n=36 v=64
447960 On ch=10 n=36 v=125
447960 On ch=10 n=38 v=115
447960 On ch=10 n=42 v=108
448080 Off ch=10 n=42 v=64
448080 On ch=10 n=42 v=73
448200 Off ch=10 n=42 v=64
448200 On ch=10 n=42 v=123
448320 Off ch=10 n=42 v=64
448320 On ch=10 n=42 v=61
448440 Off ch=10 n=42 v=64
448440 Off ch=10 n=36 v=64
448440 Off ch=10 n=38 v=64
448440 On ch=10 n=36 v=116
448440 On ch=10 n=42 v=113
448560 Off ch=10 n=42 v=64
448560 On ch=10 n=42 v=120
448680 Off ch=10 n=42 v=64
448680 On ch=10 n=42 v=125
448800 Off ch=10 n=42 v=64
448800 On ch=10 n=42 v=94
448920 Off ch=10 n=42 v=64
448920 Off ch=10 n=36 v=64
448920 On ch=10 n=42 v=118
449040 Off ch=10 n=42 v=64
449040 On ch=10 n=42 v=71
449160 Off ch=10 n=42 v=64
449160 On ch=10 n=38 v=127
449280 Off ch=10 n=42 v=64
449280 On ch=10 n=38 v=117
449400 Off ch=10 n=42 v=64
449400 On ch=10 n=36 v=127
449400 On ch=10 n=38 v=127
449400 On ch=10 n=42 v=127
449520 Off ch=10 n=42 v=64
449520 On ch=10 n=42 v=91
449640 Off ch=10 n=38 v=64
449640 On ch=10 n=42 v=111
449760 Off ch=10 n=38 v=64
449760 On ch=10 n=42 v=96
449880 Off ch=10 n=42 v=64
449880 Off ch=10 n=36 v=64
449880 Off ch=10 n=38 v=64
449880 On ch=10 n=36 v=112
450000 Off ch=10 n=42 v=64
450000 On ch=10 n=42 v=88
450120 Off ch=10 n=42 v=64
450120 On ch=10 n=42 v=98
450240 Off ch=10 n=42 v=64
450240 On ch=10 n=42 v=114
450360 Off ch=10 n=36 v=64
450360 On ch=10 n=36 v=127
450360 On ch=10 n=42 v=127
450480 Off ch=10 n=42 v=64
450480 On ch=10 n=42 v=92
450600 Off ch=10 n=42 v=64
450600 On ch=10 n=42 v=117
450720 Off ch=10 n=42 v=64
450720 On ch=10 n=42 v=91
450840 Off ch=10 n=42 v=64
450840 Off ch=10 n=36 v=64
450840 On ch=10 n=36 v=123
450840 On ch=10 n=38 v=110
450840 On ch=10 n=42 v=122
450960 Off ch=10 n=42 v=64
450960 On ch=10 n=42 v=62
451080 Off ch=10 n=42 v=64
451080 On ch=10 n=42 v=56
451200 Off ch=10 n=42 v=64
451200 On ch=10 n=42 v=56
451320 Off ch=10 n=42 v=64
451320 Off ch=10 n=36 v=64
451320 Off ch=10 n=38 v=64
451320 On ch=10 n=36 v=106
451320 On ch=10 n=42 v=123
451440 Off ch=10 n=42 v=64
451440 On ch=10 n=42 v=62
451560 Off ch=10 n=42 v=64
451560 On ch=10 n=42 v=112
451680 Off ch=10 n=42 v=64
451680 On ch=10 n=42 v=113
451800 Off ch=10 n=42 v=64
451800 Off ch=10 n=36 v=64
451800 On ch=10 n=42 v=106
451920 Off ch=10 n=42 v=64
451920 On ch=10 n=42 v=87
452040 Off ch=10 n=42 v=64
452040 On ch=10 n=38 v=127
452160 Off ch=10 n=42 v=64
452160 On ch=10 n=38 v=56
452280 Off ch=10 n=42 v=64
452280 On ch=10 n=36 v=127
452280 On ch=10 n=38 v=127
452280 On ch=10 n=42 v=127
452400 Off ch=10 n=42 v=64
452400 On ch=10 n=42 v=99
452520 Off ch=10 n=38 v=64
452520 On ch=10 n=42 v=116
452640 Off ch=10 n=38 v=64
452640 On ch=10 n=42 v=100
452760 Off ch=10 n=42 v=64
452760 Off ch=10 n=36 v=64
452760 Off ch=10 n=38 v=64
452760 On ch=10 n=36 v=117
452880 Off ch=10 n=42 v=64
452880 On ch=10 n=42 v=70
453000 Off ch=10 n=42 v=64
453000 On ch=10 n=42 v=72
453120 Off ch=10 n=42 v=64
453120 On ch=10 n=42 v=123
453240 Off ch=10 n=36 v=64
453240 On ch=10 n=36 v=127
453240 On ch=10 n=42 v=127
453360 Off ch=10 n=42 v=64
453360 On ch=10 n=42 v=97
453480 Off ch=10 n=42 v=64
453480 On ch=10 n=42 v=121
453600 Off ch=10 n=42 v=64
453600 On ch=10 n=42 v=96
453720 Off ch=10 n=42 v=64
453720 Off ch=10 n=36 v=64
453720 On ch=10 n=36 v=116
453720 On ch=10 n=38 v=110
453720 On ch=10 n=42 v=109
453840 Off ch=10 n=42 v=64
453840 On ch=10 n=42 v=58
453960 Off ch=10 n=42 v=64
453960 On ch=10 n=42 v=125
454080 Off ch=10 n=42 v=64
454080 On ch=10 n=42 v=93
454200 Off ch=10 n=42 v=64
454200 Off ch=10 n=36 v=64
454200 Off ch=10 n=38 v=64
454200 On ch=10 n=36 v=125
454200 On ch=10 n=42 v=108
454320 Off ch=10 n=42 v=64
454320 On ch=10 n=42 v=59
454440 Off ch=10 n=42 v=64
454440 On ch=10 n=42 v=125
454560 Off ch=10 n=42 v=64
454560 On ch=10 n=42 v=113
454680 Off ch=10 n=42 v=64
454680 Off ch=10 n=36 v=64
454680 On ch=10 n=42 v=122
454800 Off ch=10 n=42 v=64
454800 On ch=10 n=42 v=73
454920 Off ch=10 n=42 v=64
454920 On ch=10 n=38 v=127
455040 Off ch=10 n=42 v=64
455040 On ch=10 n=38 v=95
455160 Off ch=10 n=42 v=64
455160 On ch=10 n=36 v=127
455160 On ch=10 n=38 v=127
455160 On ch=10 n=42 v=127
455280 Off ch=10 n=42 v=64
455280 On ch=10 n=42 v=99
455400 Off ch=10 n=38 v=64
455400 On ch=10 n=42 v=115
455520 Off ch=10 n=38 v=64
455520 On ch=10 n=42 v=92
455640 Off ch=10 n=42 v=64
455640 Off ch=10 n=36 v=64
455640 Off ch=10 n=38 v=64
455640 On ch=10 n=36 v=123
455760 Off ch=10 n=42 v=64
455760 On ch=10 n=42 v=111
455880 Off ch=10 n=42 v=64
455880 On ch=10 n=42 v=94
456000 Off ch=10 n=42 v=64
456000 On ch=10 n=42 v=91
456120 Off ch=10 n=36 v=64
456120 On ch=10 n=36 v=127
456120 On ch=10 n=42 v=127
456240 Off ch=10 n=42 v=64
456240 On ch=10 n=42 v=88
456360 Off ch=10 n=42 v=64
456360 On ch=10 n=42 v=106
456480 Off ch=10 n=42 v=64
456480 On ch=10 n=42 v=87
456600 Off ch=10 n=42 v=64
456600 Off ch=10 n=36 v=64
456600 On ch=10 n=36 v=111
456600 On ch=10 n=38 v=117
456600 On ch=10 n=42 v=109
456720 Off ch=10 n=42 v=64
456720 On ch=10 n=42 v=116
456840 Off ch=10 n=42 v=64
456840 On ch=10 n=42 v=106
456960 Off ch=10 n=42 v=64
456960 On ch=10 n=42 v=71
457080 Off ch=10 n=42 v=64
457080 Off ch=10 n=36 v=64
457080 Off ch=10 n=38 v=64
457080 On ch=10 n=36 v=120
457080 On ch=10 n=42 v=107
457200 Off ch=10 n=42 v=64
457200 On ch=10 n=42 v=121
457320 Off ch=10 n=42 v=64
457320 On ch=10 n=42 v=117
457440 Off ch=10 n=42 v=64
457440 On ch=10 n=42 v=118
457560 Off ch=10 n=42 v=64
457560 Off ch=10 n=36 v=64
457560 On ch=10 n=42 v=125
457680 Off ch=10 n=42 v=64
457680 On ch=10 n=42 v=65
457800 Off ch=10 n=42 v=64
457800 On ch=10 n=38 v=127
457920 Off ch=10 n=42 v=64
457920 On ch=10 n=38 v=109
458040 Off ch=10 n=42 v=64
458040 On ch=10 n=36 v=127
458040 On ch=10 n=38 v=127
458040 On ch=10 n=42 v=127
458160 Off ch=10 n=42 v=64
458160 On ch=10 n=42 v=81
458280 Off ch=10 n=38 v=64
458280 On ch=10 n=42 v=122
458400 Off ch=10 n=38 v=64
458400 On ch=10 n=42 v=91
458520 Off ch=10 n=42 v=64
458520 Off ch=10 n=36 v=64
458520 Off ch=10 n=38 v=64
458520 On ch=10 n=36 v=120
458640 Off ch=10 n=42 v=64
458640 On ch=10 n=42 v=109
458760 Off ch=10 n=42 v=64
458760 On ch=10 n=42 v=82
458880 Off ch=10 n=42 v=64
458880 On ch=10 n=42 v=107
459000 Off ch=10 n=36 v=64
459000 On ch=10 n=36 v=127
459000 On ch=10 n=42 v=127
459120 Off ch=10 n=42 v=64
459120 On ch=10 n=42 v=88
459240 Off ch=10 n=42 v=64
459240 On ch=10 n=42 v=110
459360 Off ch=10 n=42 v=64
459360 On ch=10 n=42 v=87
459480 Off ch=10 n=42 v=64
459480 Off ch=10 n=36 v=64
459480 On ch=10 n=36 v=108
459480 On ch=10 n=38 v=114
459480 On ch=10 n=42 v=111
459600 Off ch=10 n=42 v=64
459600 On ch=10 n=42 v=89
459720 Off ch=10 n=42 v=64
459720 On ch=10 n=42 v=75
459840 Off ch=10 n=42 v=64
459840 On ch=10 n=42 v=75
459960 Off ch=10 n=42 v=64
459960 Off ch=10 n=36 v=64
459960 Off ch=10 n=38 v=64
459960 On ch=10 n=36 v=121
459960 On ch=10 n=42 v=107
460080 Off ch=10 n=42 v=64
460080 On ch=10 n=42 v=60
460200 Off ch=10 n=42 v=64
460200 On ch=10 n=42 v=115
460320 Off ch=10 n=42 v=64
460320 On ch=10 n=42 v=69
460440 Off ch=10 n=42 v=64
460440 Off ch=10 n=36 v=64
460440 On ch=10 n=42 v=113
460560 Off ch=10 n=42 v=64
460560 On ch=10 n=42 v=87
460680 Off ch=10 n=42 v=64
460680 On ch=10 n=38 v=127
460800 Off ch=10 n=42 v=64
460800 On ch=10 n=38 v=75
460920 Off ch=10 n=42 v=64
460920 On ch=10 n=36 v=127
460920 On ch=10 n=38 v=127
460920 On ch=10 n=42 v=127
461040 Off ch=10 n=42 v=64
461040 On ch=10 n=42 v=82
461160 Off ch=10 n=38 v=64
461160 On ch=10 n=42 v=124
461280 Off ch=10 n=38 v=64
461280 On ch=10 n=42 v=92
461400 Off ch=10 n=42 v=64
461400 Off ch=10 n=36 v=64
461400 Off ch=10 n=38 v=64
461400 On ch=10 n=36 v=108
461520 Off ch=10 n=42 v=64
461520 On ch=10 n=42 v=107
461640 Off ch=10 n=42 v=64
461640 On ch=10 n=42 v=125
461760 Off ch=10 n=42 v=64
461760 On ch=10 n=42 v=92
461880 Off ch=10 n=36 v=64
461880 On ch=10 n=36 v=127
461880 On ch=10 n=42 v=127
462000 Off ch=10 n=42 v=64
462000 On ch=10 n=42 v=96
462120 Off ch=10 n=42 v=64
462120 On ch=10 n=42 v=115
462240 Off ch=10 n=42 v=64
462240 On ch=10 n=42 v=83
462360 Off ch=10 n=42 v=64
462360 Off ch=10 n=36 v=64
462360 On ch=10 n=36 v=111
462360 On ch=10 n=38 v=106
462360 On ch=10 n=42 v=120
462480 Off ch=10 n=42 v=64
462480 On ch=10 n=42 v=67
462600 Off ch=10 n=42 v=64
462600 On ch=10 n=42 v=119
462720 Off ch=10 n=42 v=64
462720 On ch=10 n=42 v=121
462840 Off ch=10 n=42 v=64
462840 Off ch=10 n=36 v=64
462840 Off ch=10 n=38 v=64
462840 On ch=10 n=36 v=116
462840 On ch=10 n=42 v=108
462960 Off ch=10 n=42 v=64
462960 On ch=10 n=42 v=121
463080 Off ch=10 n=42 v=64
463080 On ch=10 n=42 v=106
463200 Off ch=10 n=42 v=64
463200 On ch=10 n=42 v=90
463320 Off ch=10 n=42 v=64
463320 Off ch=10 n=36 v=64
463320 On ch=10 n=42 v=112
463440 Off ch=10 n=42 v=64
463440 On ch=10 n=42 v=70
463560 Off ch=10 n=42 v=64
463560 On ch=10 n=38 v=127
463680 Off ch=10 n=42 v=64
463680 On ch=10 n=38 v=113
463800 Off ch=10 n=42 v=64
463800 On ch=10 n=36 v=127
463800 On ch=10 n=38 v=127
463800 On ch=10 n=42 v=127
463920 Off ch=10 n=42 v=64
463920 On ch=10 n=42 v=87
464040 Off ch=10 n=38 v=64
464040 On ch=10 n=42 v=118
464160 Off ch=10 n=38 v=64
464160 On ch=10 n=42 v=83
464280 Off ch=10 n=42 v=64
464280 Off ch=10 n=36 v=64
464280 Off ch=10 n=38 v=64
464280 On ch=10 n=36 v=109
464400 Off ch=10 n=42 v=64
464400 On ch=10 n=42 v=96
464520 Off ch=10 n=42 v=64
464520 On ch=10 n=42 v=68
464640 Off ch=10 n=42 v=64
464640 On ch=10 n=42 v=65
464760 Off ch=10 n=36 v=64
464760 On ch=10 n=36 v=127
464760 On ch=10 n=42 v=127
464880 Off ch=10 n=42 v=64
464880 On ch=10 n=42 v=92
465000 Off ch=10 n=42 v=64
465000 On ch=10 n=42 v=117
465120 Off ch=10 n=42 v=64
465120 On ch=10 n=42 v=81
465240 Off ch=10 n=42 v=64
465240 Off ch=10 n=36 v=64
465240 On ch=10 n=36 v=116
465240 On ch=10 n=38 v=107
465240 On ch=10 n=42 v=111
465360 Off ch=10 n=42 v=64
465360 On ch=10 n=42 v=67
465480 Off ch=10 n=42 v=64
465480 On ch=10 n=42 v=122
465600 Off ch=10 n=42 v=64
465600 On ch=10 n=42 v=112
465720 Off ch=10 n=42 v=64
465720 Off ch=10 n=36 v=64
465720 Off ch=10 n=38 v=64
465720 On ch=10 n=36 v=124
465720 On ch=10 n=42 v=114
465840 Off ch=10 n=42 v=64
465840 On ch=10 n=42 v=61
465960 Off ch=10 n=42 v=64
465960 On ch=10 n=42 v=117
466080 Off ch=10 n=42 v=64
466080 On ch=10 n=42 v=98
466200 Off ch=10 n=42 v=64
466200 Off ch=10 n=36 v=64
466200 On ch=10 n=42 v=121
466320 Off ch=10 n=42 v=64
466320 On ch=10 n=42 v=72
466440 Off ch=10 n=42 v=64
466440 On ch=10 n=38 v=127
466560 Off ch=10 n=42 v=64
466560 On ch=10 n=38 v=110
466680 Off ch=10 n=42 v=64
466680 On ch=10 n=36 v=127
466680 On ch=10 n=38 v=127
466680 On ch=10 n=42 v=127
466800 Off ch=10 n=42 v=64
466800 On ch=10 n=42 v=81
466920 Off ch=10 n=38 v=64
466920 On ch=10 n=42 v=111
467040 Off ch=10 n=38 v=64
467040 On ch=10 n=42 v=93
467160 Off ch=10 n=42 v=64
467160 Off ch=10 n=36 v=64
467160 Off ch=10 n=38 v=64
467160 On ch=10 n=36 v=117
467280 Off ch=10 n=42 v=64
467280 On ch=10 n=42 v=59
467400 Off ch=10 n=42 v=64
467400 On ch=10 n=42 v=122
467520 Off ch=10 n=42 v=64
467520 On ch=10 n=42 v=123
467640 Off ch=10 n=36 v=64
467640 On ch=10 n=36 v=127
467640 On ch=10 n=42 v=127
467760 Off ch=10 n=42 v=64
467760 On ch=10 n=42 v=85
467880 Off ch=10 n=42 v=64
467880 On ch=10 n=42 v=108
468000 Off ch=10 n=42 v=64
468000 On ch=10 n=42 v=90
468120 Off ch=10 n=42 v=64
468120 Off ch=10 n=36 v=64
468120 On ch=10 n=36 v=118
468120 On ch=10 n=38 v=124
468120 On ch=10 n=42 v=109
468240 Off ch=10 n=42 v=64
468240 On ch=10 n=42 v=125
468360 Off ch=10 n=42 v=64
468360 On ch=10 n=42 v=95
468480 Off ch=10 n=42 v=64
468480 On ch=10 n=42 v=107
468600 Off ch=10 n=42 v=64
468600 Off ch=10 n=36 v=64
468600 Off ch=10 n=38 v=64
468600 On ch=10 n=36 v=114
468600 On ch=10 n=42 v=114
468720 Off ch=10 n=42 v=64
468720 On ch=10 n=42 v=58
468840 Off ch=10 n=42 v=64
468840 On ch=10 n=42 v=107
468960 Off ch=10 n=42 v=64
468960 On ch=10 n=42 v=106
469080 Off ch=10 n=42 v=64
469080 Off ch=10 n=36 v=64
469080 On ch=10 n=42 v=121
469200 Off ch=10 n=42 v=64
469200 On ch=10 n=42 v=97
469320 Off ch=10 n=42 v=64
469320 On ch=10 n=38 v=127
469440 Off ch=10 n=42 v=64
469440 On ch=10 n=38 v=71
469560 Off ch=10 n=42 v=64
469560 On ch=10 n=36 v=127
469560 On ch=10 n=38 v=127
469560 On ch=10 n=42 v=127
469680 Off ch=10 n=42 v=64
469680 On ch=10 n=42 v=84
469800 Off ch=10 n=38 v=64
469800 On ch=10 n=42 v=106
469920 Off ch=10 n=38 v=64
469920 On ch=10 n=42 v=83
470040 Off ch=10 n=42 v=64
470040 Off ch=10 n=36 v=64
470040 Off ch=10 n=38 v=64
470040 On ch=10 n=36 v=113
470160 Off ch=10 n=42 v=64
470160 On ch=10 n=42 v=114
470280 Off ch=10 n=42 v=64
470280 On ch=10 n=42 v=56
470400 Off ch=10 n=42 v=64
470400 On ch=10 n=42 v=88
470520 Off ch=10 n=36 v=64
470520 On ch=10 n=36 v=127
470520 On ch=10 n=42 v=127
470640 Off ch=10 n=42 v=64
470640 On ch=10 n=42 v=99
470760 Off ch=10 n=42 v=64
470760 On ch=10 n=42 v=121
470880 Off ch=10 n=42 v=64
470880 On ch=10 n=42 v=90
471000 Off ch=10 n=42 v=64
471000 Off ch=10 n=36 v=64
471000 On ch=10 n=36 v=125
471000 On ch=10 n=38 v=125
471000 On ch=10 n=42 v=124
471120 Off ch=10 n=42 v=64
471120 On ch=10 n=42 v=106
471240 Off ch=10 n=42 v=64
471240 On ch=10 n=42 v=90
471360 Off ch=10 n=42 v=64
471360 On ch=10 n=42 v=124
471480 Off ch=10 n=42 v=64
471480 Off ch=10 n=36 v=64
471480 Off ch=10 n=38 v=64
471480 On ch=10 n=36 v=110
471480 On ch=10 n=42 v=122
471600 Off ch=10 n=42 v=64
471600 On ch=10 n=42 v=107
471720 Off ch=10 n=42 v=64
471720 On ch=10 n=42 v=106
471840 Off ch=10 n=42 v=64
471840 On ch=10 n=42 v=85
471960 Off ch=10 n=42 v=64
471960 Off ch=10 n=36 v=64
471960 On ch=10 n=42 v=120
472080 Off ch=10 n=42 v=64
472080 On ch=10 n=42 v=66
472200 Off ch=10 n=42 v=64
472200 On ch=10 n=38 v=127
472320 Off ch=10 n=42 v=64
472320 On ch=10 n=38 v=98
472440 Off ch=10 n=42 v=64
472440 On ch=10 n=36 v=127
472440 On ch=10 n=38 v=127
472440 On ch=10 n=42 v=127
472560 Off ch=10 n=42 v=64
472560 On ch=10 n=42 v=87
472680 Off ch=10 n=38 v=64
472680 On ch=10 n=42 v=118
472800 Off ch=10 n=38 v=64
472800 On ch=10 n=42 v=94
472920 Off ch=10 n=42 v=64
472920 Off ch=10 n=36 v=64
472920 Off ch=10 n=38 v=64
472920 On ch=10 n=36 v=123
473040 Off ch=10 n=42 v=64
473040 On ch=10 n=42 v=122
473160 Off ch=10 n=42 v=64
473160 On ch=10 n=42 v=82
473280 Off ch=10 n=42 v=64
473280 On ch=10 n=42 v=72
473400 Off ch=10 n=36 v=64
473400 On ch=10 n=36 v=127
473400 On ch=10 n=42 v=127
473520 Off ch=10 n=42 v=64
473520 On ch=10 n=42 v=89
473640 Off ch=10 n=42 v=64
473640 On ch=10 n=42 v=122
473760 Off ch=10 n=42 v=64
473760 On ch=10 n=42 v=84
473880 Off ch=10 n=42 v=64
473880 Off ch=10 n=36 v=64
473880 On ch=10 n=36 v=116
473880 On ch=10 n=38 v=108
473880 On ch=10 n=42 v=124
474000 Off ch=10 n=42 v=64
474000 On ch=10 n=42 v=107
474120 Off ch=10 n=42 v=64
474120 On ch=10 n=42 v=92
474240 Off ch=10 n=42 v=64
474240 On ch=10 n=42 v=118
474360 Off ch=10 n=42 v=64
474360 Off ch=10 n=36 v=64
474360 Off ch=10 n=38 v=64
474360 On ch=10 n=36 v=116
474360 On ch=10 n=42 v=114
474480 Off ch=10 n=42 v=64
474480 On ch=10 n=42 v=81
474600 Off ch=10 n=42 v=64
474600 On ch=10 n=42 v=117
474720 Off ch=10 n=42 v=64
474720 On ch=10 n=42 v=60
474840 Off ch=10 n=42 v=64
474840 Off ch=10 n=36 v=64
474840 On ch=10 n=42 v=118
474960 Off ch=10 n=42 v=64
474960 On ch=10 n=42 v=123
475080 Off ch=10 n=42 v=64
475080 On ch=10 n=38 v=127
475200 Off ch=10 n=42 v=64
475200 On ch=10 n=38 v=107
475320 Off ch=10 n=42 v=64
475320 On ch=10 n=38 v=127
475440 Off ch=10 n=42 v=64
475440 On ch=10 n=38 v=57
475560 Off ch=10 n=38 v=64
475560 On ch=10 n=38 v=124
475680 Off ch=10 n=38 v=64
475680 On ch=10 n=38 v=98
475800 Off ch=10 n=38 v=64
475800 On ch=10 n=38 v=127
475920 Off ch=10 n=38 v=64
476040 Off ch=10 n=38 v=64
476040 On ch=10 n=38 v=123
476160 Off ch=10 n=38 v=64
476160 On ch=10 n=38 v=64
476280 Off ch=10 n=38 v=64
476280 On ch=10 n=38 v=127
476400 On ch=10 n=38 v=86
476520 Off ch=10 n=38 v=64
476520 On ch=10 n=38 v=114
476640 Off ch=10 n=38 v=64
476760 Off ch=10 n=38 v=64
476760 On ch=10 n=38 v=127
476880 Off ch=10 n=38 v=64
476880 On ch=10 n=38 v=106
477000 Off ch=10 n=38 v=64
477000 On ch=10 n=38 v=107
477120 On ch=10 n=38 v=68
477240 Off ch=10 n=38 v=64
477240 On ch=10 n=38 v=127
477360 Off ch=10 n=38 v=64
477480 Off ch=10 n=38 v=64
477600 Off ch=10 n=38 v=64
477720 Off ch=10 n=38 v=64
477720 On ch=10 n=36 v=127
477720 On ch=10 n=49 v=127
477960 On ch=10 n=38 v=109
478200 Off ch=10 n=36 v=64
478200 Off ch=10 n=49 v=64
478200 On ch=10 n=36 v=114
478200 On ch=10 n=49 v=127
478440 Off ch=10 n=38 v=64
478440 On ch=10 n=38 v=120
478560 On ch=10 n=36 v=127
478560 On ch=10 n=49 v=127
478680 Off ch=10 n=49 v=64
478680 Off ch=10 n=36 v=64
478800 On ch=10 n=38 v=127
478920 Off ch=10 n=38 v=64
478920 On ch=10 n=36 v=127
478920 On ch=10 n=49 v=127
479040 Off ch=10 n=49 v=64
479040 Off ch=10 n=36 v=64
479280 Off ch=10 n=38 v=64
479400 Off ch=10 n=49 v=64
479400 Off ch=10 n=36 v=64
479400 On ch=10 n=38 v=127
479880 Off ch=10 n=38 v=64
479880 On ch=10 n=42 v=127
480000 On ch=10 n=42 v=60
480120 On ch=10 n=42 v=122
480240 On ch=10 n=42 v=117
480360 Off ch=10 n=42 v=64
480360 On ch=10 n=42 v=127
480480 Off ch=10 n=42 v=64
480480 On ch=10 n=42 v=56
480600 Off ch=10 n=42 v=64
480600 On ch=10 n=42 v=110
480720 Off ch=10 n=42 v=64
480720 On ch=10 n=42 v=96
480840 Off ch=10 n=42 v=64
480840 On ch=10 n=42 v=122
480960 Off ch=10 n=42 v=64
480960 On ch=10 n=42 v=99
481080 Off ch=10 n=42 v=64
481080 On ch=10 n=38 v=127
481200 Off ch=10 n=42 v=64
481200 On ch=10 n=38 v=108
481320 Off ch=10 n=42 v=64
481320 On ch=10 n=36 v=127
481320 On ch=10 n=42 v=127
481440 Off ch=10 n=42 v=64
481440 On ch=10 n=42 v=121
481560 Off ch=10 n=38 v=64
481560 On ch=10 n=42 v=110
481680 Off ch=10 n=38 v=64
481680 On ch=10 n=42 v=113
481800 Off ch=10 n=36 v=64
481800 Off ch=10 n=42 v=64
481800 On ch=10 n=36 v=124
481800 On ch=10 n=38 v=127
481920 Off ch=10 n=42 v=64
482040 Off ch=10 n=42 v=64
482040 On ch=10 n=42 v=126
482160 Off ch=10 n=42 v=64
482160 On ch=10 n=42 v=82
482280 Off ch=10 n=38 v=64
482280 Off ch=10 n=36 v=64
482280 On ch=10 n=36 v=127
482280 On ch=10 n=42 v=111
482400 On ch=10 n=42 v=125
482520 Off ch=10 n=42 v=64
482520 On ch=10 n=42 v=116
482640 Off ch=10 n=42 v=64
482640 On ch=10 n=42 v=71
482760 Off ch=10 n=42 v=64
482760 Off ch=10 n=36 v=64
482760 On ch=10 n=36 v=118
482760 On ch=10 n=42 v=127
482880 Off ch=10 n=42 v=64
482880 On ch=10 n=42 v=121
483000 Off ch=10 n=42 v=64
483000 On ch=10 n=42 v=113
483120 Off ch=10 n=42 v=64
483120 On ch=10 n=42 v=120
483240 Off ch=10 n=42 v=64
483240 Off ch=10 n=36 v=64
483240 On ch=10 n=36 v=119
483240 On ch=10 n=42 v=127
483360 Off ch=10 n=42 v=64
483360 On ch=10 n=42 v=108
483480 Off ch=10 n=42 v=64
483480 On ch=10 n=38 v=110
483600 Off ch=10 n=42 v=64
483600 On ch=10 n=38 v=94
483720 Off ch=10 n=42 v=64
483720 Off ch=10 n=36 v=64
483720 On ch=10 n=36 v=127
483720 On ch=10 n=42 v=127
483840 Off ch=10 n=42 v=64
483840 On ch=10 n=42 v=70
483960 Off ch=10 n=38 v=64
483960 On ch=10 n=42 v=125
484080 Off ch=10 n=38 v=64
484080 On ch=10 n=42 v=73
484200 Off ch=10 n=42 v=64
484200 Off ch=10 n=36 v=64
484200 On ch=10 n=36 v=117
484200 On ch=10 n=38 v=127
484320 Off ch=10 n=42 v=64
484440 Off ch=10 n=42 v=64
484440 On ch=10 n=42 v=112
484560 Off ch=10 n=42 v=64
484560 On ch=10 n=42 v=99
484680 Off ch=10 n=38 v=64
484680 Off ch=10 n=36 v=64
484680 On ch=10 n=36 v=127
484680 On ch=10 n=42 v=112
484800 On ch=10 n=42 v=81
484920 Off ch=10 n=42 v=64
484920 On ch=10 n=42 v=114
485040 Off ch=10 n=42 v=64
485040 On ch=10 n=42 v=110
485160 Off ch=10 n=42 v=64
485160 Off ch=10 n=36 v=64
485160 On ch=10 n=36 v=110
485160 On ch=10 n=42 v=127
485280 Off ch=10 n=42 v=64
485280 On ch=10 n=42 v=113
485400 Off ch=10 n=42 v=64
485400 On ch=10 n=42 v=124
485520 Off ch=10 n=42 v=64
485520 On ch=10 n=42 v=68
485640 Off ch=10 n=42 v=64
485640 Off ch=10 n=36 v=64
485640 On ch=10 n=36 v=109
485640 On ch=10 n=42 v=127
485760 Off ch=10 n=42 v=64
485760 On ch=10 n=42 v=117
485880 Off ch=10 n=42 v=64
485880 On ch=10 n=38 v=113
486000 Off ch=10 n=42 v=64
486000 On ch=10 n=38 v=120
486120 Off ch=10 n=42 v=64
486120 Off ch=10 n=36 v=64
486120 On ch=10 n=36 v=127
486120 On ch=10 n=42 v=127
486240 Off ch=10 n=42 v=64
486240 On ch=10 n=42 v=81
486360 Off ch=10 n=38 v=64
486360 On ch=10 n=42 v=117
486480 Off ch=10 n=38 v=64
486480 On ch=10 n=42 v=114
486600 Off ch=10 n=42 v=64
486600 Off ch=10 n=36 v=64
486600 On ch=10 n=36 v=114
486600 On ch=10 n=38 v=127
486720 Off ch=10 n=42 v=64
486840 Off ch=10 n=42 v=64
486840 On ch=10 n=42 v=114
486960 Off ch=10 n=42 v=64
486960 On ch=10 n=42 v=116
487080 Off ch=10 n=38 v=64
487080 Off ch=10 n=36 v=64
487080 On ch=10 n=36 v=127
487080 On ch=10 n=42 v=125
487200 On ch=10 n=42 v=85
487320 Off ch=10 n=42 v=64
487320 On ch=10 n=42 v=120
487440 Off ch=10 n=42 v=64
487440 On ch=10 n=42 v=73
487560 Off ch=10 n=42 v=64
487560 Off ch=10 n=36 v=64
487560 On ch=10 n=36 v=106
487560 On ch=10 n=42 v=127
487680 Off ch=10 n=42 v=64
487680 On ch=10 n=42 v=60
487800 Off ch=10 n=42 v=64
487800 On ch=10 n=42 v=123
487920 Off ch=10 n=42 v=64
487920 On ch=10 n=42 v=89
488040 Off ch=10 n=42 v=64
488040 Off ch=10 n=36 v=64
488040 On ch=10 n=36 v=114
488040 On ch=10 n=42 v=127
488160 Off ch=10 n=42 v=64
488160 On ch=10 n=42 v=93
488280 Off ch=10 n=42 v=64
488280 On ch=10 n=38 v=111
488400 Off ch=10 n=42 v=64
488400 On ch=10 n=38 v=70
488520 Off ch=10 n=42 v=64
488520 Off ch=10 n=36 v=64
488520 On ch=10 n=36 v=127
488520 On ch=10 n=42 v=127
488640 Off ch=10 n=42 v=64
488640 On ch=10 n=42 v=111
488760 Off ch=10 n=38 v=64
488760 On ch=10 n=42 v=115
488880 Off ch=10 n=38 v=64
488880 On ch=10 n=42 v=88
489000 Off ch=10 n=42 v=64
489000 Off ch=10 n=36 v=64
489000 On ch=10 n=36 v=114
489000 On ch=10 n=38 v=127
489120 Off ch=10 n=42 v=64
489240 Off ch=10 n=42 v=64
489240 On ch=10 n=42 v=124
489360 Off ch=10 n=42 v=64
489360 On ch=10 n=42 v=125
489480 Off ch=10 n=38 v=64
489480 Off ch=10 n=36 v=64
489480 On ch=10 n=36 v=127
489480 On ch=10 n=42 v=115
489600 On ch=10 n=42 v=99
489720 Off ch=10 n=42 v=64
489720 On ch=10 n=42 v=123
489840 Off ch=10 n=42 v=64
489840 On ch=10 n=42 v=75
489960 Off ch=10 n=42 v=64
489960 Off ch=10 n=36 v=64
489960 On ch=10 n=36 v=123
489960 On ch=10 n=42 v=127
490080 Off ch=10 n=42 v=64
490080 On ch=10 n=42 v=95
490200 Off ch=10 n=42 v=64
490200 On ch=10 n=42 v=117
490320 Off ch=10 n=42 v=64
490320 On ch=10 n=42 v=62
490440 Off ch=10 n=42 v=64
490440 Off ch=10 n=36 v=64
490440 On ch=10 n=36 v=118
490440 On ch=10 n=42 v=127
490560 Off ch=10 n=42 v=64
490560 On ch=10 n=42 v=114
490680 Off ch=10 n=42 v=64
490680 On ch=10 n=38 v=111
490800 Off ch=10 n=42 v=64
490800 On ch=10 n=38 v=116
490920 Off ch=10 n=42 v=64
490920 Off ch=10 n=36 v=64
490920 On ch=10 n=36 v=127
490920 On ch=10 n=42 v=127
491040 Off ch=10 n=42 v=64
491040 On ch=10 n=42 v=115
491160 Off ch=10 n=38 v=64
491160 On ch=10 n=42 v=107
491280 Off ch=10 n=38 v=64
491280 On ch=10 n=42 v=119
491400 Off ch=10 n=42 v=64
491400 Off ch=10 n=36 v=64
491400 On ch=10 n=36 v=119
491400 On ch=10 n=38 v=127
491520 Off ch=10 n=42 v=64
491640 Off ch=10 n=42 v=64
491640 On ch=10 n=42 v=118
491760 Off ch=10 n=42 v=64
491760 On ch=10 n=42 v=107
491880 Off ch=10 n=38 v=64
491880 Off ch=10 n=36 v=64
491880 On ch=10 n=36 v=127
491880 On ch=10 n=42 v=114
492000 On ch=10 n=42 v=56
492120 Off ch=10 n=42 v=64
492120 On ch=10 n=42 v=118
492240 Off ch=10 n=42 v=64
492240 On ch=10 n=42 v=121
492360 Off ch=10 n=42 v=64
492360 Off ch=10 n=36 v=64
492360 On ch=10 n=36 v=123
492360 On ch=10 n=42 v=127
492480 Off ch=10 n=42 v=64
492480 On ch=10 n=42 v=86
492600 Off ch=10 n=42 v=64
492600 On ch=10 n=42 v=107
492720 Off ch=10 n=42 v=64
492720 On ch=10 n=42 v=64
492840 Off ch=10 n=42 v=64
492840 Off ch=10 n=36 v=64
492840 On ch=10 n=36 v=122
492840 On ch=10 n=42 v=127
492960 Off ch=10 n=42 v=64
492960 On ch=10 n=42 v=84
493080 Off ch=10 n=42 v=64
493080 On ch=10 n=38 v=117
493200 Off ch=10 n=42 v=64
493200 On ch=10 n=38 v=93
493320 Off ch=10 n=42 v=64
493320 Off ch=10 n=36 v=64
493320 On ch=10 n=36 v=127
493320 On ch=10 n=42 v=127
493440 Off ch=10 n=42 v=64
493440 On ch=10 n=42 v=73
493560 Off ch=10 n=38 v=64
493560 On ch=10 n=42 v=112
493680 Off ch=10 n=38 v=64
493680 On ch=10 n=42 v=95
493800 Off ch=10 n=42 v=64
493800 Off ch=10 n=36 v=64
493800 On ch=10 n=36 v=119
493800 On ch=10 n=38 v=127
493920 Off ch=10 n=42 v=64
494040 Off ch=10 n=42 v=64
494040 On ch=10 n=42 v=111
494160 Off ch=10 n=42 v=64
494160 On ch=10 n=42 v=89
494280 Off ch=10 n=38 v=64
494280 Off ch=10 n=36 v=64
494280 On ch=10 n=36 v=127
494280 On ch=10 n=42 v=124
494400 On ch=10 n=42 v=81
494520 Off ch=10 n=42 v=64
494520 On ch=10 n=42 v=110
494640 Off ch=10 n=42 v=64
494640 On ch=10 n=42 v=98
494760 Off ch=10 n=42 v=64
494760 Off ch=10 n=36 v=64
494760 On ch=10 n=36 v=110
494760 On ch=10 n=42 v=127
494880 Off ch=10 n=42 v=64
494880 On ch=10 n=42 v=97
495000 Off ch=10 n=42 v=64
495000 On ch=10 n=42 v=109
495120 Off ch=10 n=42 v=64
495120 On ch=10 n=42 v=71
495240 Off ch=10 n=42 v=64
495240 Off ch=10 n=36 v=64
495240 On ch=10 n=36 v=109
495240 On ch=10 n=42 v=127
495360 Off ch=10 n=42 v=64
495360 On ch=10 n=42 v=88
495480 Off ch=10 n=42 v=64
495480 On ch=10 n=38 v=120
495600 Off ch=10 n=42 v=64
495600 On ch=10 n=38 v=74
495720 Off ch=10 n=42 v=64
495720 Off ch=10 n=36 v=64
495720 On ch=10 n=36 v=127
495720 On ch=10 n=42 v=127
495840 Off ch=10 n=42 v=64
495840 On ch=10 n=42 v=123
495960 Off ch=10 n=38 v=64
495960 On ch=10 n=42 v=113
496080 Off ch=10 n=38 v=64
496080 On ch=10 n=42 v=99
496200 Off ch=10 n=42 v=64
496200 Off ch=10 n=36 v=64
496200 On ch=10 n=36 v=121
496200 On ch=10 n=38 v=127
496320 Off ch=10 n=42 v=64
496440 Off ch=10 n=42 v=64
496440 On ch=10 n=42 v=124
496560 Off ch=10 n=42 v=64
496560 On ch=10 n=42 v=63
496680 Off ch=10 n=38 v=64
496680 Off ch=10 n=36 v=64
496680 On ch=10 n=36 v=127
496680 On ch=10 n=42 v=122
496800 On ch=10 n=42 v=99
496920 Off ch=10 n=42 v=64
496920 On ch=10 n=42 v=115
497040 Off ch=10 n=42 v=64
497040 On ch=10 n=42 v=62
497160 Off ch=10 n=42 v=64
497160 Off ch=10 n=36 v=64
497160 On ch=10 n=36 v=110
497160 On ch=10 n=42 v=127
497280 Off ch=10 n=42 v=64
497280 On ch=10 n=42 v=64
497400 Off ch=10 n=42 v=64
497400 On ch=10 n=42 v=125
497520 Off ch=10 n=42 v=64
497520 On ch=10 n=42 v=108
497640 Off ch=10 n=42 v=64
497640 Off ch=10 n=36 v=64
497640 On ch=10 n=36 v=125
497640 On ch=10 n=42 v=127
497760 Off ch=10 n=42 v=64
497760 On ch=10 n=42 v=65
497880 Off ch=10 n=42 v=64
497880 On ch=10 n=38 v=117
498000 Off ch=10 n=42 v=64
498000 On ch=10 n=38 v=109
498120 Off ch=10 n=42 v=64
498120 Off ch=10 n=36 v=64
498120 On ch=10 n=36 v=127
498120 On ch=10 n=42 v=127
498240 Off ch=10 n=42 v=64
498240 On ch=10 n=42 v=122
498360 Off ch=10 n=38 v=64
498360 On ch=10 n=42 v=109
498480 Off ch=10 n=38 v=64
498480 On ch=10 n=42 v=119
498600 Off ch=10 n=42 v=64
498600 Off ch=10 n=36 v=64
498600 On ch=10 n=36 v=120
498600 On ch=10 n=38 v=127
498720 Off ch=10 n=42 v=64
498840 Off ch=10 n=42 v=64
498840 On ch=10 n=42 v=113
498960 Off ch=10 n=42 v=64
498960 On ch=10 n=42 v=125
499080 Off ch=10 n=38 v=64
499080 Off ch=10 n=36 v=64
499080 On ch=10 n=36 v=127
499080 On ch=10 n=42 v=109
499200 On ch=10 n=42 v=98
499320 Off ch=10 n=42 v=64
499320 On ch=10 n=42 v=117
499440 Off ch=10 n=42 v=64
499440 On ch=10 n=42 v=108
499560 Off ch=10 n=42 v=64
499560 Off ch=10 n=36 v=64
499560 On ch=10 n=36 v=117
499560 On ch=10 n=42 v=127
499680 Off ch=10 n=42 v=64
499680 On ch=10 n=42 v=59
499800 Off ch=10 n=42 v=64
499800 On ch=10 n=42 v=113
499920 Off ch=10 n=42 v=64
499920 On ch=10 n=42 v=97
500040 Off ch=10 n=42 v=64
500040 Off ch=10 n=36 v=64
500040 On ch=10 n=36 v=108
500040 On ch=10 n=42 v=127
500160 Off ch=10 n=42 v=64
500160 On ch=10 n=42 v=96
500280 Off ch=10 n=42 v=64
500280 On ch=10 n=38 v=117
500400 Off ch=10 n=42 v=64
500400 On ch=10 n=38 v=92
500520 Off ch=10 n=42 v=64
500520 Off ch=10 n=36 v=64
500520 On ch=10 n=36 v=127
500520 On ch=10 n=42 v=127
500640 Off ch=10 n=42 v=64
500640 On ch=10 n=42 v=121
500760 Off ch=10 n=38 v=64
500760 On ch=10 n=42 v=111
500880 Off ch=10 n=38 v=64
500880 On ch=10 n=42 v=88
501000 Off ch=10 n=42 v=64
501000 Off ch=10 n=36 v=64
501000 On ch=10 n=36 v=120
501000 On ch=10 n=38 v=127
501120 Off ch=10 n=42 v=64
501240 Off ch=10 n=42 v=64
501240 On ch=10 n=42 v=119
501360 Off ch=10 n=42 v=64
501360 On ch=10 n=42 v=100
501480 Off ch=10 n=38 v=64
501480 Off ch=10 n=36 v=64
501480 On ch=10 n=36 v=127
501480 On ch=10 n=42 v=115
501600 On ch=10 n=42 v=74
501720 Off ch=10 n=42 v=64
501720 On ch=10 n=42 v=120
501840 Off ch=10 n=42 v=64
501840 On ch=10 n=42 v=124
501960 Off ch=10 n=42 v=64
501960 Off ch=10 n=36 v=64
501960 On ch=10 n=36 v=124
501960 On ch=10 n=42 v=127
502080 Off ch=10 n=42 v=64
502080 On ch=10 n=42 v=56
502200 Off ch=10 n=42 v=64
502200 On ch=10 n=42 v=114
502320 Off ch=10 n=42 v=64
502320 On ch=10 n=42 v=108
502440 Off ch=10 n=42 v=64
502440 Off ch=10 n=36 v=64
502440 On ch=10 n=36 v=121
502440 On ch=10 n=42 v=127
502560 Off ch=10 n=42 v=64
502560 On ch=10 n=42 v=110
502680 Off ch=10 n=42 v=64
502680 On ch=10 n=38 v=108
502800 Off ch=10 n=42 v=64
502800 On ch=10 n=38 v=72
502920 Off ch=10 n=42 v=64
502920 Off ch=10 n=36 v=64
502920 On ch=10 n=36 v=127
502920 On ch=10 n=42 v=127
503040 Off ch=10 n=42 v=64
503040 On ch=10 n=42 v=114
503160 Off ch=10 n=38 v=64
503160 On ch=10 n=42 v=124
503280 Off ch=10 n=38 v=64
503280 On ch=10 n=42 v=61
503400 Off ch=10 n=42 v=64
503400 Off ch=10 n=36 v=64
503400 On ch=10 n=36 v=118
503400 On ch=10 n=38 v=127
503520 Off ch=10 n=42 v=64
503640 Off ch=10 n=42 v=64
503640 On ch=10 n=42 v=120
503760 Off ch=10 n=42 v=64
503760 On ch=10 n=42 v=60
503880 Off ch=10 n=38 v=64
503880 Off ch=10 n=36 v=64
503880 On ch=10 n=36 v=127
503880 On ch=10 n=42 v=125
504000 On ch=10 n=42 v=122
504120 Off ch=10 n=42 v=64
504120 On ch=10 n=42 v=121
504240 Off ch=10 n=42 v=64
504240 On ch=10 n=42 v=110
504360 Off ch=10 n=42 v=64
504360 Off ch=10 n=36 v=64
504360 On ch=10 n=36 v=117
504360 On ch=10 n=42 v=127
504480 Off ch=10 n=42 v=64
504480 On ch=10 n=42 v=120
504600 Off ch=10 n=42 v=64
504600 On ch=10 n=42 v=117
504720 Off ch=10 n=42 v=64
504720 On ch=10 n=42 v=122
504840 Off ch=10 n=42 v=64
504840 Off ch=10 n=36 v=64
504840 On ch=10 n=36 v=106
504840 On ch=10 n=42 v=127
504960 Off ch=10 n=42 v=64
504960 On ch=10 n=42 v=98
505080 Off ch=10 n=42 v=64
505080 On ch=10 n=38 v=109
505200 Off ch=10 n=42 v=64
505200 On ch=10 n=38 v=94
505320 Off ch=10 n=42 v=64
505320 Off ch=10 n=36 v=64
505320 On ch=10 n=36 v=127
505320 On ch=10 n=49 v=127
505440 Off ch=10 n=42 v=64
505560 Off ch=10 n=38 v=64
505680 Off ch=10 n=38 v=64
505800 Off ch=10 n=36 v=64
505800 Off ch=10 n=49 v=64
505800 On ch=10 n=36 v=109
506280 Off ch=10 n=36 v=64
506280 On ch=10 n=36 v=127
506280 On ch=10 n=38 v=118
506400 On ch=10 n=42 v=108
506520 On ch=10 n=42 v=121
506640 On ch=10 n=42 v=99
506760 Off ch=10 n=36 v=64
506760 Off ch=10 n=38 v=64
506760 On ch=10 n=36 v=111
506760 On ch=10 n=42 v=127
506880 Off ch=10 n=42 v=64
506880 On ch=10 n=42 v=69
507000 Off ch=10 n=42 v=64
507000 On ch=10 n=42 v=121
507120 Off ch=10 n=42 v=64
507120 On ch=10 n=42 v=110
507240 Off ch=10 n=42 v=64
507240 Off ch=10 n=36 v=64
507240 On ch=10 n=36 v=115
507240 On ch=10 n=42 v=120
507360 Off ch=10 n=42 v=64
507360 On ch=10 n=42 v=88
507480 Off ch=10 n=42 v=64
507480 On ch=10 n=38 v=127
507600 Off ch=10 n=42 v=64
507600 On ch=10 n=38 v=109
507720 Off ch=10 n=42 v=64
507720 Off ch=10 n=36 v=64
507720 On ch=10 n=36 v=127
507720 On ch=10 n=42 v=127
507840 Off ch=10 n=42 v=64
507840 On ch=10 n=42 v=84
507960 Off ch=10 n=38 v=64
507960 On ch=10 n=42 v=107
508080 Off ch=10 n=38 v=64
508080 On ch=10 n=42 v=61
508200 Off ch=10 n=42 v=64
508200 Off ch=10 n=36 v=64
508200 On ch=10 n=36 v=119
508200 On ch=10 n=38 v=117
508320 Off ch=10 n=42 v=64
508320 On ch=10 n=42 v=87
508440 Off ch=10 n=42 v=64
508440 On ch=10 n=42 v=125
508560 Off ch=10 n=42 v=64
508560 On ch=10 n=42 v=125
508680 Off ch=10 n=38 v=64
508680 Off ch=10 n=36 v=64
508680 On ch=10 n=36 v=127
508680 On ch=10 n=42 v=127
508800 Off ch=10 n=42 v=64
508800 On ch=10 n=42 v=72
508920 Off ch=10 n=42 v=64
508920 On ch=10 n=42 v=110
509040 Off ch=10 n=42 v=64
509040 On ch=10 n=42 v=89
509160 Off ch=10 n=42 v=64
509160 Off ch=10 n=36 v=64
509160 On ch=10 n=38 v=127
509280 Off ch=10 n=42 v=64
509280 On ch=10 n=38 v=118
509400 Off ch=10 n=42 v=64
509400 On ch=10 n=38 v=127
509520 Off ch=10 n=42 v=64
509520 On ch=10 n=38 v=124
509640 Off ch=10 n=38 v=64
509760 Off ch=10 n=38 v=64
509880 Off ch=10 n=38 v=64
510000 Off ch=10 n=38 v=64
519480 On ch=10 n=38 v=127
519600 On ch=10 n=38 v=113
519720 On ch=10 n=36 v=127
519720 On ch=10 n=42 v=127
519840 On ch=10 n=42 v=107
519960 Off ch=10 n=38 v=64
519960 On ch=10 n=42 v=122
520080 Off ch=10 n=38 v=64
520080 On ch=10 n=42 v=88
520200 Off ch=10 n=42 v=64
520200 Off ch=10 n=36 v=64
520200 On ch=10 n=36 v=106
520200 On ch=10 n=38 v=127
520320 Off ch=10 n=42 v=64
520440 Off ch=10 n=42 v=64
520440 On ch=10 n=42 v=111
520560 Off ch=10 n=42 v=64
520560 On ch=10 n=42 v=115
520680 Off ch=10 n=38 v=64
520680 Off ch=10 n=36 v=64
520680 On ch=10 n=36 v=127
520680 On ch=10 n=42 v=106
520800 On ch=10 n=42 v=90
520920 Off ch=10 n=42 v=64
520920 On ch=10 n=42 v=114
521040 Off ch=10 n=42 v=64
521040 On ch=10 n=42 v=112
521160 Off ch=10 n=42 v=64
521160 Off ch=10 n=36 v=64
521160 On ch=10 n=36 v=120
521160 On ch=10 n=42 v=127
521280 Off ch=10 n=42 v=64
521280 On ch=10 n=42 v=113
521400 Off ch=10 n=42 v=64
521400 On ch=10 n=42 v=115
521520 Off ch=10 n=42 v=64
521520 On ch=10 n=42 v=82
521640 Off ch=10 n=42 v=64
521640 Off ch=10 n=36 v=64
521640 On ch=10 n=36 v=123
521640 On ch=10 n=42 v=127
521760 Off ch=10 n=42 v=64
521760 On ch=10 n=42 v=58
521880 Off ch=10 n=42 v=64
521880 On ch=10 n=38 v=111
522000 Off ch=10 n=42 v=64
522000 On ch=10 n=38 v=115
522120 Off ch=10 n=42 v=64
522120 Off ch=10 n=36 v=64
522120 On ch=10 n=36 v=127
522120 On ch=10 n=42 v=127
522240 Off ch=10 n=42 v=64
522240 On ch=10 n=42 v=71
522360 Off ch=10 n=38 v=64
522360 On ch=10 n=42 v=106
522480 Off ch=10 n=38 v=64
522480 On ch=10 n=42 v=69
522600 Off ch=10 n=42 v=64
522600 Off ch=10 n=36 v=64
522600 On ch=10 n=36 v=121
522600 On ch=10 n=38 v=127
522720 Off ch=10 n=42 v=64
522720 On ch=10 n=42 v=92
522840 Off ch=10 n=42 v=64
522840 On ch=10 n=42 v=115
522960 Off ch=10 n=42 v=64
522960 On ch=10 n=42 v=62
523080 Off ch=10 n=38 v=64
523080 Off ch=10 n=36 v=64
523080 On ch=10 n=36 v=127
523080 On ch=10 n=42 v=127
523200 Off ch=10 n=42 v=64
523200 On ch=10 n=42 v=93
523320 Off ch=10 n=42 v=64
523320 On ch=10 n=42 v=116
523440 Off ch=10 n=42 v=64
523440 On ch=10 n=42 v=118
523560 Off ch=10 n=42 v=64
523560 Off ch=10 n=36 v=64
523560 On ch=10 n=36 v=113
523560 On ch=10 n=42 v=114
523680 Off ch=10 n=42 v=64
523680 On ch=10 n=42 v=110
523800 Off ch=10 n=42 v=64
523800 On ch=10 n=42 v=114
523920 Off ch=10 n=42 v=64
523920 On ch=10 n=42 v=74
524040 Off ch=10 n=42 v=64
524040 Off ch=10 n=36 v=64
524040 On ch=10 n=36 v=127
524040 On ch=10 n=42 v=127
524160 Off ch=10 n=42 v=64
524160 On ch=10 n=42 v=120
524280 Off ch=10 n=42 v=64
524280 On ch=10 n=42 v=108
524400 Off ch=10 n=42 v=64
524400 On ch=10 n=42 v=65
524520 Off ch=10 n=42 v=64
524520 Off ch=10 n=36 v=64
524520 On ch=10 n=38 v=127
524640 Off ch=10 n=42 v=64
524640 On ch=10 n=38 v=60
524760 Off ch=10 n=42 v=64
524760 On ch=10 n=38 v=113
524880 Off ch=10 n=42 v=64
524880 On ch=10 n=38 v=73
525000 Off ch=10 n=38 v=64
525000 On ch=10 n=38 v=127
525120 Off ch=10 n=38 v=64
525120 On ch=10 n=38 v=106
525240 Off ch=10 n=38 v=64
525240 On ch=10 n=38 v=112
525360 Off ch=10 n=38 v=64
525360 On ch=10 n=38 v=123
525480 Off ch=10 n=38 v=64
525480 On ch=10 n=38 v=127
525600 Off ch=10 n=38 v=64
525600 On ch=10 n=38 v=112
525720 Off ch=10 n=38 v=64
525720 On ch=10 n=38 v=112
525840 Off ch=10 n=38 v=64
525840 On ch=10 n=38 v=117
525960 Off ch=10 n=38 v=64
526080 Off ch=10 n=38 v=64
526080 On ch=10 n=38 v=127
526200 Off ch=10 n=38 v=64
526200 On ch=10 n=49 v=127
526200 On ch=10 n=36 v=127
526320 Off ch=10 n=38 v=64
526560 Off ch=10 n=38 v=64
526680 Off ch=10 n=49 v=64
526680 Off ch=10 n=36 v=64
526680 Meta TrkEnd
TrkEnd
MTrk
0 Meta TrkName "Timpani"
0 PrCh ch=11 p=47
0 Par ch=11 c=1 v=0
0 Par ch=11 c=7 v=100
0 Par ch=11 c=10 v=64
0 Par ch=11 c=11 v=127
0 Par ch=11 c=91 v=127
0 Par ch=11 c=93 v=127
298080 On ch=11 n=42 v=108
298140 Off ch=11 n=42 v=64
298140 On ch=11 n=42 v=94
298200 Off ch=11 n=42 v=64
298200 On ch=11 n=42 v=109
298920 Off ch=11 n=42 v=64
300000 On ch=11 n=42 v=103
300060 Off ch=11 n=42 v=64
300060 On ch=11 n=42 v=94
300120 Off ch=11 n=42 v=64
300120 On ch=11 n=42 v=103
300840 Off ch=11 n=42 v=64
301920 On ch=11 n=42 v=104
301980 Off ch=11 n=42 v=64
301980 On ch=11 n=42 v=95
302040 Off ch=11 n=42 v=64
302040 On ch=11 n=42 v=105
302760 Off ch=11 n=42 v=64
302760 Meta TrkEnd
TrkEnd
MTrk
0 Meta TrkName "Flute"
0 PrCh ch=12 p=73
0 Par ch=12 c=93 v=127
0 Par ch=12 c=91 v=127
0 Par ch=12 c=11 v=127
0 Par ch=12 c=10 v=64
0 Par ch=12 c=7 v=100
0 Par ch=12 c=1 v=0
40680 On ch=12 n=106 v=56
40800 Off ch=12 n=106 v=64
40800 On ch=12 n=100 v=56
40860 Off ch=12 n=100 v=64
41400 On ch=12 n=105 v=56
41460 Off ch=12 n=105 v=64
41520 On ch=12 n=106 v=56
41580 Off ch=12 n=106 v=64
42360 On ch=12 n=106 v=56
42420 Off ch=12 n=106 v=64
42480 On ch=12 n=105 v=56
42540 Off ch=12 n=105 v=64
42840 On ch=12 n=105 v=56
42900 Off ch=12 n=105 v=64
42960 On ch=12 n=106 v=56
43020 Off ch=12 n=106 v=64
43320 On ch=12 n=106 v=56
43440 Off ch=12 n=106 v=64
43440 On ch=12 n=100 v=56
43500 Off ch=12 n=100 v=64
45240 On ch=12 n=106 v=56
45360 Off ch=12 n=106 v=64
45360 On ch=12 n=100 v=56
45390 On ch=12 n=106 v=56
45420 Off ch=12 n=100 v=64
45510 Off ch=12 n=106 v=64
45510 On ch=12 n=100 v=56
45570 Off ch=12 n=100 v=64
45720 On ch=12 n=106 v=56
45840 Off ch=12 n=106 v=64
45840 On ch=12 n=100 v=56
45870 On ch=12 n=105 v=56
45900 Off ch=12 n=100 v=64
45930 Off ch=12 n=105 v=64
46200 On ch=12 n=106 v=56
46260 Off ch=12 n=106 v=64
46320 On ch=12 n=106 v=56
46440 Off ch=12 n=106 v=64
46440 On ch=12 n=100 v=56
46500 Off ch=12 n=100 v=64
46680 On ch=12 n=105 v=56
46740 Off ch=12 n=105 v=64
46800 On ch=12 n=106 v=56
46860 Off ch=12 n=106 v=64
48600 On ch=12 n=106 v=56
48660 Off ch=12 n=106 v=64
48660 On ch=12 n=105 v=56
48720 Off ch=12 n=105 v=64
48720 On ch=12 n=106 v=56
48840 Off ch=12 n=106 v=64
48840 On ch=12 n=100 v=56
48900 Off ch=12 n=100 v=64
49560 On ch=12 n=106 v=56
49620 Off ch=12 n=106 v=64
49680 On ch=12 n=105 v=56
49740 Off ch=12 n=105 v=64
49800 On ch=12 n=106 v=56
49860 Off ch=12 n=106 v=64
49920 On ch=12 n=105 v=56
49980 Off ch=12 n=105 v=64
50040 On ch=12 n=105 v=56
50100 Off ch=12 n=105 v=64
50160 On ch=12 n=106 v=56
50220 Off ch=12 n=106 v=64
50280 On ch=12 n=105 v=56
50340 Off ch=12 n=105 v=64
50400 On ch=12 n=106 v=56
50460 Off ch=12 n=106 v=64
50520 On ch=12 n=106 v=56
50580 Off ch=12 n=106 v=64
50640 On ch=12 n=105 v=56
50700 Off ch=12 n=105 v=64
51000 On ch=12 n=105 v=56
51060 Off ch=12 n=105 v=64
51120 On ch=12 n=106 v=56
51180 Off ch=12 n=106 v=64
51480 On ch=12 n=106 v=56
51540 Off ch=12 n=106 v=64
51600 On ch=12 n=105 v=56
51660 Off ch=12 n=105 v=64
51720 On ch=12 n=106 v=56
51780 Off ch=12 n=106 v=64
51780 On ch=12 n=106 v=56
51840 Off ch=12 n=106 v=64
51840 On ch=12 n=105 v=56
51870 On ch=12 n=105 v=56
51900 Off ch=12 n=105 v=64
51930 Off ch=12 n=105 v=64
51960 On ch=12 n=105 v=56
52020 Off ch=12 n=105 v=64
52080 On ch=12 n=106 v=56
52140 Off ch=12 n=106 v=64
52200 On ch=12 n=106 v=56
52320 Off ch=12 n=106 v=64
52320 On ch=12 n=100 v=56
52380 Off ch=12 n=100 v=64
52440 On ch=12 n=106 v=56
52500 Off ch=12 n=106 v=64
52560 On ch=12 n=105 v=56
52620 Off ch=12 n=105 v=64
52920 On ch=12 n=105 v=56
52980 Off ch=12 n=105 v=64
53040 On ch=12 n=106 v=56
53100 Off ch=12 n=106 v=64
53100 Meta TrkEnd
TrkEnd
MTrk
0 Meta TrkName "Choir1 R"
0 PrCh ch=13 p=91
0 Par ch=13 c=93 v=127
0 Par ch=13 c=10 v=127
0 Par ch=13 c=1 v=0
0 Par ch=13 c=7 v=100
0 Par ch=13 c=11 v=127
0 Par ch=13 c=91 v=127
408600 On ch=13 n=57 v=112
409560 Off ch=13 n=57 v=64
410520 On ch=13 n=57 v=112
411480 Off ch=13 n=57 v=64
412920 On ch=13 n=57 v=112
413880 Off ch=13 n=57 v=64
415320 On ch=13 n=57 v=112
416280 Off ch=13 n=57 v=64
510120 On ch=13 n=53 v=99
510600 Off ch=13 n=53 v=64
512040 On ch=13 n=53 v=99
513000 Off ch=13 n=53 v=64
514440 On ch=13 n=53 v=99
515400 Off ch=13 n=53 v=64
516840 On ch=13 n=53 v=99
517800 Off ch=13 n=53 v=64
517800 Meta TrkEnd
TrkEnd
MTrk
0 Meta TrkName "Choir1 L"
0 Par ch=14 c=93 v=127
0 PrCh ch=14 p=91
0 Par ch=14 c=10 v=0
0 Par ch=14 c=1 v=0
0 Par ch=14 c=7 v=100
0 Par ch=14 c=11 v=127
0 Par ch=14 c=91 v=127
408630 On ch=14 n=69 v=81
409590 Off ch=14 n=69 v=64
410550 On ch=14 n=69 v=81
411510 Off ch=14 n=69 v=64
412950 On ch=14 n=69 v=81
413910 Off ch=14 n=69 v=64
415350 On ch=14 n=69 v=81
416310 Off ch=14 n=69 v=64
510120 On ch=14 n=65 v=99
510600 Off ch=14 n=65 v=64
512040 On ch=14 n=65 v=99
513000 Off ch=14 n=65 v=64
514440 On ch=14 n=65 v=99
515400 Off ch=14 n=65 v=64
516840 On ch=14 n=65 v=99
517800 Off ch=14 n=65 v=64
517800 Meta TrkEnd
TrkEnd
MTrk
0 Meta TrkName "Choir2 R"
0 PrCh ch=15 p=85
0 Par ch=15 c=93 v=127
0 Par ch=15 c=10 v=127
0 Par ch=15 c=1 v=0
0 Par ch=15 c=7 v=100
0 Par ch=15 c=11 v=127
0 Par ch=15 c=91 v=127
413400 On ch=15 n=69 v=124
413520 Off ch=15 n=69 v=64
413520 On ch=15 n=69 v=124
413600 Off ch=15 n=69 v=64
413640 On ch=15 n=69 v=124
413720 Off ch=15 n=69 v=64
413760 On ch=15 n=69 v=124
413840 Off ch=15 n=69 v=64
413880 On ch=15 n=69 v=124
413960 Off ch=15 n=69 v=64
414000 On ch=15 n=69 v=124
414080 Off ch=15 n=69 v=64
414120 On ch=15 n=69 v=124
414200 Off ch=15 n=69 v=64
414240 On ch=15 n=69 v=124
414320 Off ch=15 n=69 v=64
414360 On ch=15 n=69 v=124
414440 Off ch=15 n=69 v=64
414480 On ch=15 n=69 v=124
414560 Off ch=15 n=69 v=64
414600 On ch=15 n=69 v=124
414680 Off ch=15 n=69 v=64
414720 On ch=15 n=69 v=124
414800 Off ch=15 n=69 v=64
414840 On ch=15 n=69 v=124
414920 Off ch=15 n=69 v=64
414960 On ch=15 n=69 v=124
415040 Off ch=15 n=69 v=64
415080 On ch=15 n=69 v=124
415160 Off ch=15 n=69 v=64
415200 On ch=15 n=69 v=124
415280 Off ch=15 n=69 v=64
415320 On ch=15 n=69 v=124
415400 Off ch=15 n=69 v=64
415680 On ch=15 n=69 v=124
415760 Off ch=15 n=69 v=64
514920 On ch=15 n=65 v=127
515040 Off ch=15 n=65 v=64
515040 On ch=15 n=65 v=127
515120 Off ch=15 n=65 v=64
515160 On ch=15 n=65 v=127
515240 Off ch=15 n=65 v=64
515280 On ch=15 n=65 v=127
515360 Off ch=15 n=65 v=64
515400 On ch=15 n=65 v=127
515480 Off ch=15 n=65 v=64
515520 On ch=15 n=65 v=127
515600 Off ch=15 n=65 v=64
515640 On ch=15 n=65 v=127
515720 Off ch=15 n=65 v=64
515760 On ch=15 n=65 v=127
515840 Off ch=15 n=65 v=64
515880 On ch=15 n=65 v=127
515960 Off ch=15 n=65 v=64
516000 On ch=15 n=65 v=127
516080 Off ch=15 n=65 v=64
516120 On ch=15 n=65 v=127
516200 Off ch=15 n=65 v=64
516240 On ch=15 n=65 v=127
516320 Off ch=15 n=65 v=64
516360 On ch=15 n=65 v=127
516440 Off ch=15 n=65 v=64
516480 On ch=15 n=65 v=127
516560 Off ch=15 n=65 v=64
516600 On ch=15 n=65 v=127
516680 Off ch=15 n=65 v=64
516720 On ch=15 n=65 v=127
516800 Off ch=15 n=65 v=64
516840 On ch=15 n=65 v=127
516920 Off ch=15 n=65 v=64
517200 On ch=15 n=65 v=127
517280 Off ch=15 n=65 v=64
517280 Meta TrkEnd
TrkEnd
MTrk
0 Meta TrkName "Choir2 L"
0 PrCh ch=16 p=85
0 Par ch=16 c=93 v=127
0 Par ch=16 c=10 v=0
0 Par ch=16 c=1 v=0
0 Par ch=16 c=7 v=100
0 Par ch=16 c=11 v=127
0 Par ch=16 c=91 v=127
413430 On ch=16 n=81 v=124
413550 Off ch=16 n=81 v=64
413550 On ch=16 n=81 v=124
413630 Off ch=16 n=81 v=64
413670 On ch=16 n=81 v=124
413750 Off ch=16 n=81 v=64
413790 On ch=16 n=81 v=124
413870 Off ch=16 n=81 v=64
413910 On ch=16 n=81 v=124
413990 Off ch=16 n=81 v=64
414030 On ch=16 n=81 v=124
414110 Off ch=16 n=81 v=64
414150 On ch=16 n=81 v=124
414230 Off ch=16 n=81 v=64
414270 On ch=16 n=81 v=124
414350 Off ch=16 n=81 v=64
414390 On ch=16 n=81 v=124
414470 Off ch=16 n=81 v=64
414510 On ch=16 n=81 v=124
414590 Off ch=16 n=81 v=64
414630 On ch=16 n=81 v=124
414710 Off ch=16 n=81 v=64
414750 On ch=16 n=81 v=124
414830 Off ch=16 n=81 v=64
414870 On ch=16 n=81 v=124
414950 Off ch=16 n=81 v=64
414990 On ch=16 n=81 v=124
415070 Off ch=16 n=81 v=64
415110 On ch=16 n=81 v=124
415190 Off ch=16 n=81 v=64
415230 On ch=16 n=81 v=124
415310 Off ch=16 n=81 v=64
415350 On ch=16 n=81 v=124
415430 Off ch=16 n=81 v=64
415710 On ch=16 n=81 v=124
415790 Off ch=16 n=81 v=64
514920 On ch=16 n=77 v=127
515040 Off ch=16 n=77 v=64
515040 On ch=16 n=77 v=127
515120 Off ch=16 n=77 v=64
515160 On ch=16 n=77 v=127
515240 Off ch=16 n=77 v=64
515280 On ch=16 n=77 v=127
515360 Off ch=16 n=77 v=64
515400 On ch=16 n=77 v=127
515480 Off ch=16 n=77 v=64
515520 On ch=16 n=77 v=127
515600 Off ch=16 n=77 v=64
515640 On ch=16 n=77 v=127
515720 Off ch=16 n=77 v=64
515760 On ch=16 n=77 v=127
515840 Off ch=16 n=77 v=64
515880 On ch=16 n=77 v=127
515960 Off ch=16 n=77 v=64
516000 On ch=16 n=77 v=127
516080 Off ch=16 n=77 v=64
516120 On ch=16 n=77 v=127
516200 Off ch=16 n=77 v=64
516240 On ch=16 n=77 v=127
516320 Off ch=16 n=77 v=64
516360 On ch=16 n=77 v=127
516440 Off ch=16 n=77 v=64
516480 On ch=16 n=77 v=127
516560 Off ch=16 n=77 v=64
516600 On ch=16 n=77 v=127
516680 Off ch=16 n=77 v=64
516720 On ch=16 n=77 v=127
516800 Off ch=16 n=77 v=64
516840 On ch=16 n=77 v=127
516920 Off ch=16 n=77 v=64
517200 On ch=16 n=77 v=127
517280 Off ch=16 n=77 v=64
517280 Meta TrkEnd
TrkEnd
