MFile 1 11 96
MTrk
0 Meta 0x21 00
0 SysEx f0 41 10 16 12 7f 00 00 00 01 f7
0 Meta 0x21 00
0 SysEx f0 41 10 42 12 40 00 7f 00 41 f7
0 Meta 0x21 00
0 TimeSig 4/4 24 8
0 KeySig 0 major
0 Tempo 535714
0 Meta Marker "Long Distance"
16128 TimeSig 2/4 24 8
16320 TimeSig 4/4 24 8
16320 Meta TrkEnd
TrkEnd
MTrk
0 Meta 0x21 00
0 Meta TrkName " "
196 Par ch=1 c=0 v=0
196 PrCh ch=1 p=0
198 Par ch=1 c=1 v=0
200 Par ch=1 c=7 v=96
202 Par ch=1 c=10 v=64
204 Par ch=1 c=11 v=127
206 Par ch=1 c=64 v=0
208 Par ch=1 c=91 v=0
210 Par ch=1 c=93 v=0
212 Pb ch=1 v=8192
212 Meta TrkEnd
TrkEnd
MTrk
0 Meta 0x21 00
0 Meta TrkName "Vocal"
0 Par ch=2 c=0 v=0
0 PrCh ch=2 p=81
0 Par ch=2 c=7 v=119
196 Par ch=2 c=0 v=0
196 PrCh ch=2 p=82
198 Par ch=2 c=1 v=0
200 Par ch=2 c=7 v=119
202 Par ch=2 c=10 v=64
204 Par ch=2 c=11 v=127
206 Par ch=2 c=64 v=0
208 Par ch=2 c=91 v=127
210 Par ch=2 c=93 v=39
212 Pb ch=2 v=8192
480 Par ch=2 c=93 v=39
480 Par ch=2 c=91 v=127
864 On ch=2 n=78 v=79
928 On ch=2 n=78 v=0
960 On ch=2 n=76 v=79
992 On ch=2 n=76 v=0
1008 On ch=2 n=71 v=79
1040 On ch=2 n=71 v=0
1152 On ch=2 n=68 v=79
1184 On ch=2 n=68 v=0
1200 On ch=2 n=71 v=79
1216 On ch=2 n=71 v=0
1224 Par ch=2 c=1 v=72
1224 On ch=2 n=73 v=79
1248 Par ch=2 c=1 v=74
1260 Par ch=2 c=1 v=75
1272 Par ch=2 c=1 v=78
1284 Par ch=2 c=1 v=80
1296 Par ch=2 c=1 v=83
1308 Par ch=2 c=1 v=86
1312 On ch=2 n=73 v=0
1320 Par ch=2 c=1 v=92
1332 Par ch=2 c=1 v=127
1344 Par ch=2 c=1 v=0
1368 Par ch=2 c=1 v=0
1632 On ch=2 n=78 v=79
1696 On ch=2 n=78 v=0
1728 On ch=2 n=76 v=79
1792 On ch=2 n=76 v=0
1920 On ch=2 n=78 v=79
1952 On ch=2 n=78 v=0
1968 On ch=2 n=80 v=79
2000 On ch=2 n=80 v=0
2064 On ch=2 n=80 v=79
2096 On ch=2 n=80 v=0
2112 On ch=2 n=81 v=79
2160 On ch=2 n=81 v=0
2160 On ch=2 n=80 v=79
2192 On ch=2 n=80 v=0
2208 On ch=2 n=78 v=79
2240 On ch=2 n=78 v=0
2256 On ch=2 n=80 v=79
2304 On ch=2 n=80 v=0
2304 On ch=2 n=78 v=79
2448 On ch=2 n=78 v=0
2448 On ch=2 n=74 v=79
2472 On ch=2 n=74 v=0
2472 Par ch=2 c=1 v=100
2472 On ch=2 n=73 v=79
2484 Par ch=2 c=1 v=99
2496 Par ch=2 c=1 v=96
2508 Par ch=2 c=1 v=93
2520 Par ch=2 c=1 v=89
2532 Par ch=2 c=1 v=86
2544 Par ch=2 c=1 v=79
2556 Par ch=2 c=1 v=74
2560 On ch=2 n=73 v=0
2568 Par ch=2 c=1 v=63
2580 Par ch=2 c=1 v=0
2592 Par ch=2 c=1 v=0
2592 Par ch=2 c=1 v=0
2736 On ch=2 n=71 v=79
2768 On ch=2 n=71 v=0
2784 On ch=2 n=71 v=79
2816 On ch=2 n=71 v=0
2832 On ch=2 n=71 v=79
2848 On ch=2 n=71 v=0
2856 On ch=2 n=71 v=79
2912 On ch=2 n=71 v=0
2928 On ch=2 n=73 v=79
2960 On ch=2 n=73 v=0
3024 On ch=2 n=74 v=79
3056 On ch=2 n=74 v=0
3072 On ch=2 n=78 v=79
3198 On ch=2 n=78 v=0
3264 On ch=2 n=71 v=79
3328 On ch=2 n=71 v=0
3504 On ch=2 n=71 v=79
3536 On ch=2 n=71 v=0
3552 On ch=2 n=71 v=79
3584 On ch=2 n=71 v=0
3600 On ch=2 n=71 v=79
3616 On ch=2 n=71 v=0
3624 On ch=2 n=71 v=79
3680 On ch=2 n=71 v=0
3696 On ch=2 n=72 v=79
3728 On ch=2 n=72 v=0
3792 On ch=2 n=74 v=79
3824 On ch=2 n=74 v=0
3840 On ch=2 n=81 v=79
3936 On ch=2 n=81 v=0
3984 On ch=2 n=79 v=79
4016 On ch=2 n=79 v=0
4032 On ch=2 n=79 v=79
4056 On ch=2 n=79 v=0
4056 On ch=2 n=76 v=79
4104 On ch=2 n=76 v=0
4128 On ch=2 n=76 v=79
4160 On ch=2 n=76 v=0
4176 On ch=2 n=76 v=79
4288 On ch=2 n=76 v=0
4416 On ch=2 n=76 v=79
4432 On ch=2 n=76 v=0
4440 On ch=2 n=76 v=79
4456 On ch=2 n=76 v=0
4464 On ch=2 n=76 v=79
4480 On ch=2 n=76 v=0
4488 On ch=2 n=76 v=79
4504 On ch=2 n=76 v=0
4512 On ch=2 n=76 v=79
4544 On ch=2 n=76 v=0
4560 On ch=2 n=79 v=79
4672 On ch=2 n=79 v=0
4800 On ch=2 n=76 v=79
4816 On ch=2 n=76 v=0
4824 On ch=2 n=76 v=79
4840 On ch=2 n=76 v=0
4848 On ch=2 n=76 v=79
4864 On ch=2 n=76 v=0
4872 On ch=2 n=76 v=79
4888 On ch=2 n=76 v=0
4896 On ch=2 n=76 v=79
4928 On ch=2 n=76 v=0
4944 On ch=2 n=81 v=79
5056 On ch=2 n=81 v=0
5184 On ch=2 n=76 v=79
5200 On ch=2 n=76 v=0
5208 On ch=2 n=76 v=79
5224 On ch=2 n=76 v=0
5232 On ch=2 n=76 v=79
5248 On ch=2 n=76 v=0
5256 On ch=2 n=76 v=79
5272 On ch=2 n=76 v=0
5280 On ch=2 n=76 v=79
5312 On ch=2 n=76 v=0
5328 On ch=2 n=82 v=79
5502 On ch=2 n=82 v=0
5568 On ch=2 n=81 v=79
5692 On ch=2 n=81 v=0
5760 On ch=2 n=79 v=79
5884 On ch=2 n=79 v=0
5952 On ch=2 n=77 v=79
6076 On ch=2 n=77 v=0
6240 On ch=2 n=78 v=79
6302 On ch=2 n=78 v=0
6336 On ch=2 n=76 v=79
6368 On ch=2 n=76 v=0
6384 On ch=2 n=71 v=79
6416 On ch=2 n=71 v=0
6528 On ch=2 n=71 v=79
6560 On ch=2 n=71 v=0
6576 On ch=2 n=71 v=79
6592 On ch=2 n=71 v=0
6600 On ch=2 n=73 v=79
6814 On ch=2 n=73 v=0
7008 On ch=2 n=78 v=79
7072 On ch=2 n=78 v=0
7104 On ch=2 n=76 v=79
7136 On ch=2 n=76 v=0
7152 On ch=2 n=76 v=79
7184 On ch=2 n=76 v=0
7296 On ch=2 n=78 v=79
7328 On ch=2 n=78 v=0
7344 On ch=2 n=80 v=79
7424 On ch=2 n=80 v=0
7440 On ch=2 n=80 v=79
7472 On ch=2 n=80 v=0
7488 On ch=2 n=81 v=79
7520 On ch=2 n=81 v=0
7536 On ch=2 n=80 v=79
7568 On ch=2 n=80 v=0
7584 On ch=2 n=78 v=79
7616 On ch=2 n=78 v=0
7632 On ch=2 n=80 v=79
7680 On ch=2 n=80 v=0
7680 On ch=2 n=78 v=79
7824 On ch=2 n=78 v=0
7824 On ch=2 n=74 v=79
7848 On ch=2 n=74 v=0
7848 On ch=2 n=73 v=79
7872 On ch=2 n=73 v=0
7872 On ch=2 n=71 v=79
7936 On ch=2 n=71 v=0
8112 On ch=2 n=71 v=79
8144 On ch=2 n=71 v=0
8160 On ch=2 n=71 v=79
8192 On ch=2 n=71 v=0
8208 On ch=2 n=71 v=79
8224 On ch=2 n=71 v=0
8232 On ch=2 n=71 v=79
8288 On ch=2 n=71 v=0
8304 On ch=2 n=73 v=79
8336 On ch=2 n=73 v=0
8400 On ch=2 n=74 v=79
8432 On ch=2 n=74 v=0
8448 On ch=2 n=78 v=79
8574 On ch=2 n=78 v=0
8640 On ch=2 n=71 v=79
8704 On ch=2 n=71 v=0
8880 On ch=2 n=71 v=79
8912 On ch=2 n=71 v=0
8928 On ch=2 n=71 v=79
8960 On ch=2 n=71 v=0
8976 On ch=2 n=71 v=79
8992 On ch=2 n=71 v=0
9000 On ch=2 n=71 v=79
9056 On ch=2 n=71 v=0
9072 On ch=2 n=72 v=79
9104 On ch=2 n=72 v=0
9168 On ch=2 n=74 v=79
9200 On ch=2 n=74 v=0
9216 On ch=2 n=81 v=79
9312 On ch=2 n=81 v=0
9360 On ch=2 n=79 v=79
9392 On ch=2 n=79 v=0
9408 On ch=2 n=77 v=79
9432 On ch=2 n=77 v=0
9432 On ch=2 n=76 v=79
9480 On ch=2 n=76 v=0
9504 On ch=2 n=74 v=79
9536 On ch=2 n=74 v=0
9552 On ch=2 n=76 v=79
9664 On ch=2 n=76 v=0
9792 On ch=2 n=76 v=79
9808 On ch=2 n=76 v=0
9816 On ch=2 n=76 v=79
9832 On ch=2 n=76 v=0
9840 On ch=2 n=76 v=79
9856 On ch=2 n=76 v=0
9864 On ch=2 n=76 v=79
9880 On ch=2 n=76 v=0
9888 On ch=2 n=76 v=79
9920 On ch=2 n=76 v=0
9936 On ch=2 n=79 v=79
10048 On ch=2 n=79 v=0
10176 On ch=2 n=76 v=79
10192 On ch=2 n=76 v=0
10200 On ch=2 n=76 v=79
10216 On ch=2 n=76 v=0
10224 On ch=2 n=76 v=79
10240 On ch=2 n=76 v=0
10248 On ch=2 n=76 v=79
10264 On ch=2 n=76 v=0
10272 On ch=2 n=76 v=79
10304 On ch=2 n=76 v=0
10320 On ch=2 n=81 v=79
10432 On ch=2 n=81 v=0
10560 On ch=2 n=76 v=79
10576 On ch=2 n=76 v=0
10584 On ch=2 n=76 v=79
10600 On ch=2 n=76 v=0
10608 On ch=2 n=76 v=79
10624 On ch=2 n=76 v=0
10632 On ch=2 n=76 v=79
10648 On ch=2 n=76 v=0
10656 On ch=2 n=76 v=79
10688 On ch=2 n=76 v=0
10704 On ch=2 n=82 v=79
10878 On ch=2 n=82 v=0
10944 On ch=2 n=81 v=79
11070 On ch=2 n=81 v=0
11136 On ch=2 n=79 v=79
11262 On ch=2 n=79 v=0
11328 On ch=2 n=77 v=79
11454 On ch=2 n=77 v=0
11616 On ch=2 n=78 v=79
11680 On ch=2 n=78 v=0
11712 On ch=2 n=74 v=79
11744 On ch=2 n=74 v=0
11760 On ch=2 n=71 v=79
11792 On ch=2 n=71 v=0
11904 On ch=2 n=68 v=79
11936 On ch=2 n=68 v=0
11952 On ch=2 n=71 v=79
11968 On ch=2 n=71 v=0
11976 On ch=2 n=73 v=79
12064 On ch=2 n=73 v=0
12384 On ch=2 n=78 v=79
12448 On ch=2 n=78 v=0
12480 On ch=2 n=76 v=79
12544 On ch=2 n=76 v=0
12672 On ch=2 n=78 v=79
12704 On ch=2 n=78 v=0
12720 On ch=2 n=80 v=79
12752 On ch=2 n=80 v=0
12816 On ch=2 n=80 v=79
12848 On ch=2 n=80 v=0
12864 On ch=2 n=81 v=79
12912 On ch=2 n=81 v=0
12912 On ch=2 n=80 v=79
12944 On ch=2 n=80 v=0
12960 On ch=2 n=78 v=79
12992 On ch=2 n=78 v=0
13008 On ch=2 n=80 v=79
13056 On ch=2 n=80 v=0
13056 On ch=2 n=78 v=79
13200 On ch=2 n=78 v=0
13200 On ch=2 n=74 v=79
13224 On ch=2 n=74 v=0
13224 On ch=2 n=73 v=79
13248 On ch=2 n=73 v=0
13248 On ch=2 n=71 v=79
13312 On ch=2 n=71 v=0
13488 On ch=2 n=71 v=79
13520 On ch=2 n=71 v=0
13536 On ch=2 n=71 v=79
13568 On ch=2 n=71 v=0
13584 On ch=2 n=71 v=79
13600 On ch=2 n=71 v=0
13608 On ch=2 n=71 v=79
13664 On ch=2 n=71 v=0
13680 On ch=2 n=73 v=79
13712 On ch=2 n=73 v=0
13776 On ch=2 n=74 v=79
13808 On ch=2 n=74 v=0
13824 On ch=2 n=78 v=79
13950 On ch=2 n=78 v=0
14016 On ch=2 n=71 v=79
14080 On ch=2 n=71 v=0
14256 On ch=2 n=71 v=79
14288 On ch=2 n=71 v=0
14304 On ch=2 n=71 v=79
14336 On ch=2 n=71 v=0
14352 On ch=2 n=71 v=79
14368 On ch=2 n=71 v=0
14376 On ch=2 n=71 v=79
14432 On ch=2 n=71 v=0
14448 On ch=2 n=72 v=79
14480 On ch=2 n=72 v=0
14544 On ch=2 n=74 v=79
14576 On ch=2 n=74 v=0
14592 On ch=2 n=81 v=79
14688 On ch=2 n=81 v=0
14736 On ch=2 n=79 v=79
14768 On ch=2 n=79 v=0
14784 On ch=2 n=76 v=79
14816 On ch=2 n=76 v=0
14832 On ch=2 n=74 v=79
14864 On ch=2 n=74 v=0
14880 On ch=2 n=74 v=79
14896 On ch=2 n=74 v=0
14896 On ch=2 n=76 v=79
14912 On ch=2 n=76 v=0
14912 On ch=2 n=74 v=79
14928 On ch=2 n=74 v=0
14928 On ch=2 n=72 v=79
14960 On ch=2 n=72 v=0
16416 On ch=2 n=78 v=79
16478 On ch=2 n=78 v=0
16512 On ch=2 n=76 v=79
16544 On ch=2 n=76 v=0
16560 On ch=2 n=71 v=79
16592 On ch=2 n=71 v=0
16704 On ch=2 n=71 v=79
16736 On ch=2 n=71 v=0
16752 On ch=2 n=71 v=79
16768 On ch=2 n=71 v=0
16776 On ch=2 n=73 v=79
16990 On ch=2 n=73 v=0
17184 On ch=2 n=78 v=79
17248 On ch=2 n=78 v=0
17280 On ch=2 n=76 v=79
17312 On ch=2 n=76 v=0
17328 On ch=2 n=76 v=79
17360 On ch=2 n=76 v=0
17472 On ch=2 n=78 v=79
17504 On ch=2 n=78 v=0
17520 On ch=2 n=80 v=79
17600 On ch=2 n=80 v=0
17616 On ch=2 n=80 v=79
17648 On ch=2 n=80 v=0
17664 On ch=2 n=81 v=79
17696 On ch=2 n=81 v=0
17712 On ch=2 n=80 v=79
17744 On ch=2 n=80 v=0
17760 On ch=2 n=78 v=79
17792 On ch=2 n=78 v=0
17808 On ch=2 n=80 v=79
17856 On ch=2 n=80 v=0
17856 On ch=2 n=78 v=79
18000 On ch=2 n=78 v=0
18000 On ch=2 n=74 v=79
18024 On ch=2 n=74 v=0
18024 On ch=2 n=73 v=79
18048 On ch=2 n=73 v=0
18048 On ch=2 n=71 v=79
18112 On ch=2 n=71 v=0
18288 On ch=2 n=71 v=79
18320 On ch=2 n=71 v=0
18336 On ch=2 n=71 v=79
18368 On ch=2 n=71 v=0
18384 On ch=2 n=71 v=79
18400 On ch=2 n=71 v=0
18408 On ch=2 n=71 v=79
18464 On ch=2 n=71 v=0
18480 On ch=2 n=73 v=79
18512 On ch=2 n=73 v=0
18576 On ch=2 n=74 v=79
18608 On ch=2 n=74 v=0
18624 On ch=2 n=78 v=79
18750 On ch=2 n=78 v=0
18816 On ch=2 n=71 v=79
18880 On ch=2 n=71 v=0
19056 On ch=2 n=71 v=79
19088 On ch=2 n=71 v=0
19104 On ch=2 n=71 v=79
19136 On ch=2 n=71 v=0
19152 On ch=2 n=71 v=79
19168 On ch=2 n=71 v=0
19176 On ch=2 n=71 v=79
19232 On ch=2 n=71 v=0
19248 On ch=2 n=72 v=79
19280 On ch=2 n=72 v=0
19344 On ch=2 n=74 v=79
19376 On ch=2 n=74 v=0
19392 On ch=2 n=81 v=79
19488 On ch=2 n=81 v=0
19536 On ch=2 n=79 v=79
19568 On ch=2 n=79 v=0
19584 On ch=2 n=77 v=79
19608 On ch=2 n=77 v=0
19608 On ch=2 n=76 v=79
19656 On ch=2 n=76 v=0
19680 On ch=2 n=74 v=79
19712 On ch=2 n=74 v=0
19728 On ch=2 n=76 v=79
19840 On ch=2 n=76 v=0
19968 On ch=2 n=76 v=79
19984 On ch=2 n=76 v=0
19992 On ch=2 n=76 v=79
20008 On ch=2 n=76 v=0
20016 On ch=2 n=76 v=79
20032 On ch=2 n=76 v=0
20040 On ch=2 n=76 v=79
20056 On ch=2 n=76 v=0
20064 On ch=2 n=76 v=79
20096 On ch=2 n=76 v=0
20112 On ch=2 n=79 v=79
20224 On ch=2 n=79 v=0
20352 On ch=2 n=76 v=79
20368 On ch=2 n=76 v=0
20376 On ch=2 n=76 v=79
20392 On ch=2 n=76 v=0
20400 On ch=2 n=76 v=79
20416 On ch=2 n=76 v=0
20424 On ch=2 n=76 v=79
20440 On ch=2 n=76 v=0
20448 On ch=2 n=76 v=79
20480 On ch=2 n=76 v=0
20496 On ch=2 n=81 v=79
20608 On ch=2 n=81 v=0
20736 On ch=2 n=76 v=79
20752 On ch=2 n=76 v=0
20760 On ch=2 n=76 v=79
20776 On ch=2 n=76 v=0
20784 On ch=2 n=76 v=79
20800 On ch=2 n=76 v=0
20808 On ch=2 n=76 v=79
20824 On ch=2 n=76 v=0
20832 On ch=2 n=76 v=79
20864 On ch=2 n=76 v=0
20880 On ch=2 n=82 v=79
21054 On ch=2 n=82 v=0
21120 On ch=2 n=81 v=79
21246 On ch=2 n=81 v=0
21312 On ch=2 n=79 v=79
21438 On ch=2 n=79 v=0
21504 On ch=2 n=77 v=79
21630 On ch=2 n=77 v=0
21792 On ch=2 n=76 v=79
21808 On ch=2 n=76 v=0
21816 On ch=2 n=76 v=79
21832 On ch=2 n=76 v=0
21840 On ch=2 n=76 v=79
21856 On ch=2 n=76 v=0
21864 On ch=2 n=76 v=79
21880 On ch=2 n=76 v=0
21888 On ch=2 n=76 v=79
21920 On ch=2 n=76 v=0
21936 On ch=2 n=80 v=79
22334 On ch=2 n=80 v=0
22334 Meta TrkEnd
TrkEnd
MTrk
0 Meta 0x21 00
0 Meta TrkName "ElecGtr"
0 Par ch=3 c=0 v=0
0 PrCh ch=3 p=29
0 Par ch=3 c=7 v=96
196 Par ch=3 c=0 v=0
196 PrCh ch=3 p=29
198 Par ch=3 c=1 v=0
200 Par ch=3 c=7 v=96
202 Par ch=3 c=10 v=36
204 Par ch=3 c=11 v=127
206 Par ch=3 c=64 v=0
208 Par ch=3 c=91 v=64
210 Par ch=3 c=93 v=0
212 Pb ch=3 v=8192
480 Par ch=3 c=91 v=64
768 On ch=3 n=62 v=79
768 On ch=3 n=59 v=79
768 On ch=3 n=56 v=79
768 On ch=3 n=66 v=79
784 On ch=3 n=66 v=0
784 On ch=3 n=62 v=0
784 On ch=3 n=59 v=0
784 On ch=3 n=56 v=0
816 On ch=3 n=62 v=79
816 On ch=3 n=59 v=79
816 On ch=3 n=56 v=79
816 On ch=3 n=66 v=79
832 On ch=3 n=66 v=0
832 On ch=3 n=62 v=0
832 On ch=3 n=59 v=0
832 On ch=3 n=56 v=0
864 On ch=3 n=62 v=79
864 On ch=3 n=59 v=79
864 On ch=3 n=56 v=79
864 On ch=3 n=66 v=79
880 On ch=3 n=66 v=0
880 On ch=3 n=62 v=0
880 On ch=3 n=59 v=0
880 On ch=3 n=56 v=0
912 On ch=3 n=62 v=79
912 On ch=3 n=59 v=79
912 On ch=3 n=56 v=79
912 On ch=3 n=66 v=79
928 On ch=3 n=66 v=0
928 On ch=3 n=62 v=0
928 On ch=3 n=59 v=0
928 On ch=3 n=56 v=0
960 On ch=3 n=62 v=79
960 On ch=3 n=59 v=79
960 On ch=3 n=56 v=79
960 On ch=3 n=66 v=79
976 On ch=3 n=66 v=0
976 On ch=3 n=62 v=0
976 On ch=3 n=59 v=0
976 On ch=3 n=56 v=0
1008 On ch=3 n=62 v=79
1008 On ch=3 n=59 v=79
1008 On ch=3 n=56 v=79
1008 On ch=3 n=66 v=79
1024 On ch=3 n=66 v=0
1024 On ch=3 n=62 v=0
1024 On ch=3 n=59 v=0
1024 On ch=3 n=56 v=0
1056 On ch=3 n=62 v=79
1056 On ch=3 n=59 v=79
1056 On ch=3 n=56 v=79
1056 On ch=3 n=66 v=79
1072 On ch=3 n=66 v=0
1072 On ch=3 n=62 v=0
1072 On ch=3 n=59 v=0
1072 On ch=3 n=56 v=0
1104 On ch=3 n=62 v=79
1104 On ch=3 n=59 v=79
1104 On ch=3 n=56 v=79
1104 On ch=3 n=66 v=79
1120 On ch=3 n=66 v=0
1120 On ch=3 n=62 v=0
1120 On ch=3 n=59 v=0
1120 On ch=3 n=56 v=0
1152 On ch=3 n=62 v=79
1152 On ch=3 n=59 v=79
1152 On ch=3 n=56 v=79
1152 On ch=3 n=66 v=79
1168 On ch=3 n=66 v=0
1168 On ch=3 n=62 v=0
1168 On ch=3 n=59 v=0
1168 On ch=3 n=56 v=0
1200 On ch=3 n=62 v=79
1200 On ch=3 n=59 v=79
1200 On ch=3 n=56 v=79
1200 On ch=3 n=66 v=79
1216 On ch=3 n=66 v=0
1216 On ch=3 n=62 v=0
1216 On ch=3 n=59 v=0
1216 On ch=3 n=56 v=0
1248 On ch=3 n=62 v=79
1248 On ch=3 n=59 v=79
1248 On ch=3 n=56 v=79
1248 On ch=3 n=66 v=79
1264 On ch=3 n=66 v=0
1264 On ch=3 n=62 v=0
1264 On ch=3 n=59 v=0
1264 On ch=3 n=56 v=0
1296 On ch=3 n=62 v=79
1296 On ch=3 n=59 v=79
1296 On ch=3 n=56 v=79
1296 On ch=3 n=66 v=79
1312 On ch=3 n=66 v=0
1312 On ch=3 n=62 v=0
1312 On ch=3 n=59 v=0
1312 On ch=3 n=56 v=0
1344 On ch=3 n=62 v=79
1344 On ch=3 n=59 v=79
1344 On ch=3 n=56 v=79
1344 On ch=3 n=66 v=79
1360 On ch=3 n=66 v=0
1360 On ch=3 n=62 v=0
1360 On ch=3 n=59 v=0
1360 On ch=3 n=56 v=0
1392 On ch=3 n=62 v=79
1392 On ch=3 n=59 v=79
1392 On ch=3 n=56 v=79
1392 On ch=3 n=66 v=79
1408 On ch=3 n=66 v=0
1408 On ch=3 n=62 v=0
1408 On ch=3 n=59 v=0
1408 On ch=3 n=56 v=0
1440 On ch=3 n=62 v=79
1440 On ch=3 n=59 v=79
1440 On ch=3 n=56 v=79
1440 On ch=3 n=66 v=79
1456 On ch=3 n=66 v=0
1456 On ch=3 n=62 v=0
1456 On ch=3 n=59 v=0
1456 On ch=3 n=56 v=0
1488 On ch=3 n=62 v=79
1488 On ch=3 n=59 v=79
1488 On ch=3 n=56 v=79
1488 On ch=3 n=66 v=79
1504 On ch=3 n=66 v=0
1504 On ch=3 n=62 v=0
1504 On ch=3 n=59 v=0
1504 On ch=3 n=56 v=0
1536 On ch=3 n=62 v=79
1536 On ch=3 n=59 v=79
1536 On ch=3 n=56 v=79
1536 On ch=3 n=66 v=79
1552 On ch=3 n=66 v=0
1552 On ch=3 n=62 v=0
1552 On ch=3 n=59 v=0
1552 On ch=3 n=56 v=0
1584 On ch=3 n=62 v=79
1584 On ch=3 n=59 v=79
1584 On ch=3 n=56 v=79
1584 On ch=3 n=66 v=79
1600 On ch=3 n=66 v=0
1600 On ch=3 n=62 v=0
1600 On ch=3 n=59 v=0
1600 On ch=3 n=56 v=0
1632 On ch=3 n=62 v=79
1632 On ch=3 n=59 v=79
1632 On ch=3 n=56 v=79
1632 On ch=3 n=66 v=79
1648 On ch=3 n=66 v=0
1648 On ch=3 n=62 v=0
1648 On ch=3 n=59 v=0
1648 On ch=3 n=56 v=0
1680 On ch=3 n=62 v=79
1680 On ch=3 n=59 v=79
1680 On ch=3 n=56 v=79
1680 On ch=3 n=66 v=79
1696 On ch=3 n=66 v=0
1696 On ch=3 n=62 v=0
1696 On ch=3 n=59 v=0
1696 On ch=3 n=56 v=0
1728 On ch=3 n=62 v=79
1728 On ch=3 n=59 v=79
1728 On ch=3 n=56 v=79
1728 On ch=3 n=66 v=79
1744 On ch=3 n=66 v=0
1744 On ch=3 n=62 v=0
1744 On ch=3 n=59 v=0
1744 On ch=3 n=56 v=0
1776 On ch=3 n=62 v=79
1776 On ch=3 n=59 v=79
1776 On ch=3 n=56 v=79
1776 On ch=3 n=66 v=79
1792 On ch=3 n=66 v=0
1792 On ch=3 n=62 v=0
1792 On ch=3 n=59 v=0
1792 On ch=3 n=56 v=0
1824 On ch=3 n=62 v=79
1824 On ch=3 n=59 v=79
1824 On ch=3 n=56 v=79
1824 On ch=3 n=66 v=79
1840 On ch=3 n=66 v=0
1840 On ch=3 n=62 v=0
1840 On ch=3 n=59 v=0
1840 On ch=3 n=56 v=0
1872 On ch=3 n=62 v=79
1872 On ch=3 n=59 v=79
1872 On ch=3 n=56 v=79
1872 On ch=3 n=66 v=79
1888 On ch=3 n=66 v=0
1888 On ch=3 n=62 v=0
1888 On ch=3 n=59 v=0
1888 On ch=3 n=56 v=0
1920 On ch=3 n=56 v=79
1920 On ch=3 n=59 v=79
1920 On ch=3 n=61 v=79
1920 On ch=3 n=66 v=79
1936 On ch=3 n=66 v=0
1936 On ch=3 n=56 v=0
1936 On ch=3 n=59 v=0
1936 On ch=3 n=61 v=0
1968 On ch=3 n=61 v=79
1968 On ch=3 n=56 v=79
1968 On ch=3 n=59 v=79
1968 On ch=3 n=66 v=79
1984 On ch=3 n=66 v=0
1984 On ch=3 n=61 v=0
1984 On ch=3 n=56 v=0
1984 On ch=3 n=59 v=0
2016 On ch=3 n=61 v=79
2016 On ch=3 n=56 v=79
2016 On ch=3 n=59 v=79
2016 On ch=3 n=66 v=79
2032 On ch=3 n=66 v=0
2032 On ch=3 n=61 v=0
2032 On ch=3 n=56 v=0
2032 On ch=3 n=59 v=0
2064 On ch=3 n=61 v=79
2064 On ch=3 n=56 v=79
2064 On ch=3 n=59 v=79
2064 On ch=3 n=66 v=79
2080 On ch=3 n=66 v=0
2080 On ch=3 n=61 v=0
2080 On ch=3 n=56 v=0
2080 On ch=3 n=59 v=0
2112 On ch=3 n=61 v=79
2112 On ch=3 n=56 v=79
2112 On ch=3 n=59 v=79
2112 On ch=3 n=66 v=79
2128 On ch=3 n=66 v=0
2128 On ch=3 n=61 v=0
2128 On ch=3 n=56 v=0
2128 On ch=3 n=59 v=0
2160 On ch=3 n=61 v=79
2160 On ch=3 n=56 v=79
2160 On ch=3 n=59 v=79
2160 On ch=3 n=66 v=79
2176 On ch=3 n=66 v=0
2176 On ch=3 n=61 v=0
2176 On ch=3 n=56 v=0
2176 On ch=3 n=59 v=0
2208 On ch=3 n=61 v=79
2208 On ch=3 n=56 v=79
2208 On ch=3 n=59 v=79
2208 On ch=3 n=66 v=79
2224 On ch=3 n=66 v=0
2224 On ch=3 n=61 v=0
2224 On ch=3 n=56 v=0
2224 On ch=3 n=59 v=0
2256 On ch=3 n=61 v=79
2256 On ch=3 n=56 v=79
2256 On ch=3 n=59 v=79
2256 On ch=3 n=66 v=79
2272 On ch=3 n=66 v=0
2272 On ch=3 n=61 v=0
2272 On ch=3 n=56 v=0
2272 On ch=3 n=59 v=0
2304 On ch=3 n=62 v=79
2304 On ch=3 n=59 v=79
2304 On ch=3 n=66 v=79
2320 On ch=3 n=66 v=0
2320 On ch=3 n=59 v=0
2320 On ch=3 n=62 v=0
2352 On ch=3 n=62 v=79
2352 On ch=3 n=59 v=79
2352 On ch=3 n=66 v=79
2368 On ch=3 n=66 v=0
2368 On ch=3 n=59 v=0
2368 On ch=3 n=62 v=0
2400 On ch=3 n=62 v=79
2400 On ch=3 n=59 v=79
2400 On ch=3 n=66 v=79
2416 On ch=3 n=66 v=0
2416 On ch=3 n=59 v=0
2416 On ch=3 n=62 v=0
2448 On ch=3 n=62 v=79
2448 On ch=3 n=59 v=79
2448 On ch=3 n=66 v=79
2464 On ch=3 n=66 v=0
2464 On ch=3 n=59 v=0
2464 On ch=3 n=62 v=0
2496 On ch=3 n=62 v=79
2496 On ch=3 n=59 v=79
2496 On ch=3 n=66 v=79
2512 On ch=3 n=66 v=0
2512 On ch=3 n=59 v=0
2512 On ch=3 n=62 v=0
2544 On ch=3 n=62 v=79
2544 On ch=3 n=59 v=79
2544 On ch=3 n=66 v=79
2560 On ch=3 n=66 v=0
2560 On ch=3 n=59 v=0
2560 On ch=3 n=62 v=0
2592 On ch=3 n=62 v=79
2592 On ch=3 n=59 v=79
2592 On ch=3 n=66 v=79
2608 On ch=3 n=66 v=0
2608 On ch=3 n=59 v=0
2608 On ch=3 n=62 v=0
2640 On ch=3 n=62 v=79
2640 On ch=3 n=59 v=79
2640 On ch=3 n=66 v=79
2656 On ch=3 n=66 v=0
2656 On ch=3 n=59 v=0
2656 On ch=3 n=62 v=0
2688 On ch=3 n=62 v=79
2688 On ch=3 n=59 v=79
2688 On ch=3 n=66 v=79
2704 On ch=3 n=66 v=0
2704 On ch=3 n=59 v=0
2704 On ch=3 n=62 v=0
2736 On ch=3 n=62 v=79
2736 On ch=3 n=59 v=79
2736 On ch=3 n=66 v=79
2752 On ch=3 n=66 v=0
2752 On ch=3 n=59 v=0
2752 On ch=3 n=62 v=0
2784 On ch=3 n=62 v=79
2784 On ch=3 n=59 v=79
2784 On ch=3 n=66 v=79
2800 On ch=3 n=66 v=0
2800 On ch=3 n=59 v=0
2800 On ch=3 n=62 v=0
2832 On ch=3 n=62 v=79
2832 On ch=3 n=59 v=79
2832 On ch=3 n=66 v=79
2848 On ch=3 n=66 v=0
2848 On ch=3 n=59 v=0
2848 On ch=3 n=62 v=0
2880 On ch=3 n=62 v=79
2880 On ch=3 n=59 v=79
2880 On ch=3 n=66 v=79
2896 On ch=3 n=66 v=0
2896 On ch=3 n=59 v=0
2896 On ch=3 n=62 v=0
2928 On ch=3 n=62 v=79
2928 On ch=3 n=59 v=79
2928 On ch=3 n=66 v=79
2944 On ch=3 n=66 v=0
2944 On ch=3 n=59 v=0
2944 On ch=3 n=62 v=0
2976 On ch=3 n=62 v=79
2976 On ch=3 n=59 v=79
2976 On ch=3 n=66 v=79
2992 On ch=3 n=66 v=0
2992 On ch=3 n=59 v=0
2992 On ch=3 n=62 v=0
3024 On ch=3 n=62 v=79
3024 On ch=3 n=59 v=79
3024 On ch=3 n=66 v=79
3040 On ch=3 n=66 v=0
3040 On ch=3 n=59 v=0
3040 On ch=3 n=62 v=0
3072 On ch=3 n=62 v=79
3072 On ch=3 n=59 v=79
3072 On ch=3 n=66 v=79
3088 On ch=3 n=66 v=0
3088 On ch=3 n=59 v=0
3088 On ch=3 n=62 v=0
3120 On ch=3 n=62 v=79
3120 On ch=3 n=59 v=79
3120 On ch=3 n=66 v=79
3136 On ch=3 n=66 v=0
3136 On ch=3 n=59 v=0
3136 On ch=3 n=62 v=0
3168 On ch=3 n=62 v=79
3168 On ch=3 n=59 v=79
3168 On ch=3 n=66 v=79
3184 On ch=3 n=66 v=0
3184 On ch=3 n=59 v=0
3184 On ch=3 n=62 v=0
3216 On ch=3 n=62 v=79
3216 On ch=3 n=59 v=79
3216 On ch=3 n=66 v=79
3232 On ch=3 n=66 v=0
3232 On ch=3 n=59 v=0
3232 On ch=3 n=62 v=0
3264 On ch=3 n=62 v=79
3264 On ch=3 n=59 v=79
3264 On ch=3 n=66 v=79
3280 On ch=3 n=66 v=0
3280 On ch=3 n=59 v=0
3280 On ch=3 n=62 v=0
3312 On ch=3 n=62 v=79
3312 On ch=3 n=59 v=79
3312 On ch=3 n=66 v=79
3328 On ch=3 n=66 v=0
3328 On ch=3 n=59 v=0
3328 On ch=3 n=62 v=0
3360 On ch=3 n=62 v=79
3360 On ch=3 n=59 v=79
3360 On ch=3 n=66 v=79
3376 On ch=3 n=66 v=0
3376 On ch=3 n=59 v=0
3376 On ch=3 n=62 v=0
3408 On ch=3 n=62 v=79
3408 On ch=3 n=59 v=79
3408 On ch=3 n=66 v=79
3424 On ch=3 n=66 v=0
3424 On ch=3 n=59 v=0
3424 On ch=3 n=62 v=0
3456 On ch=3 n=62 v=79
3456 On ch=3 n=59 v=79
3456 On ch=3 n=67 v=79
3472 On ch=3 n=67 v=0
3472 On ch=3 n=59 v=0
3472 On ch=3 n=62 v=0
3504 On ch=3 n=62 v=79
3504 On ch=3 n=59 v=79
3504 On ch=3 n=67 v=79
3520 On ch=3 n=67 v=0
3520 On ch=3 n=59 v=0
3520 On ch=3 n=62 v=0
3552 On ch=3 n=62 v=79
3552 On ch=3 n=59 v=79
3552 On ch=3 n=67 v=79
3568 On ch=3 n=67 v=0
3568 On ch=3 n=59 v=0
3568 On ch=3 n=62 v=0
3600 On ch=3 n=62 v=79
3600 On ch=3 n=59 v=79
3600 On ch=3 n=67 v=79
3616 On ch=3 n=67 v=0
3616 On ch=3 n=59 v=0
3616 On ch=3 n=62 v=0
3648 On ch=3 n=62 v=79
3648 On ch=3 n=59 v=79
3648 On ch=3 n=67 v=79
3664 On ch=3 n=67 v=0
3664 On ch=3 n=59 v=0
3664 On ch=3 n=62 v=0
3696 On ch=3 n=62 v=79
3696 On ch=3 n=59 v=79
3696 On ch=3 n=67 v=79
3712 On ch=3 n=67 v=0
3712 On ch=3 n=59 v=0
3712 On ch=3 n=62 v=0
3744 On ch=3 n=62 v=79
3744 On ch=3 n=59 v=79
3744 On ch=3 n=67 v=79
3760 On ch=3 n=67 v=0
3760 On ch=3 n=59 v=0
3760 On ch=3 n=62 v=0
3792 On ch=3 n=62 v=79
3792 On ch=3 n=59 v=79
3792 On ch=3 n=67 v=79
3808 On ch=3 n=67 v=0
3808 On ch=3 n=59 v=0
3808 On ch=3 n=62 v=0
3840 On ch=3 n=62 v=79
3840 On ch=3 n=59 v=79
3840 On ch=3 n=67 v=79
3856 On ch=3 n=67 v=0
3856 On ch=3 n=59 v=0
3856 On ch=3 n=62 v=0
3888 On ch=3 n=62 v=79
3888 On ch=3 n=59 v=79
3888 On ch=3 n=67 v=79
3904 On ch=3 n=67 v=0
3904 On ch=3 n=59 v=0
3904 On ch=3 n=62 v=0
3936 On ch=3 n=62 v=79
3936 On ch=3 n=59 v=79
3936 On ch=3 n=67 v=79
3952 On ch=3 n=67 v=0
3952 On ch=3 n=59 v=0
3952 On ch=3 n=62 v=0
3984 On ch=3 n=62 v=79
3984 On ch=3 n=59 v=79
3984 On ch=3 n=67 v=79
4000 On ch=3 n=67 v=0
4000 On ch=3 n=59 v=0
4000 On ch=3 n=62 v=0
4032 On ch=3 n=62 v=79
4032 On ch=3 n=59 v=79
4032 On ch=3 n=67 v=79
4048 On ch=3 n=67 v=0
4048 On ch=3 n=59 v=0
4048 On ch=3 n=62 v=0
4080 On ch=3 n=62 v=79
4080 On ch=3 n=59 v=79
4080 On ch=3 n=67 v=79
4096 On ch=3 n=67 v=0
4096 On ch=3 n=59 v=0
4096 On ch=3 n=62 v=0
4128 On ch=3 n=62 v=79
4128 On ch=3 n=59 v=79
4128 On ch=3 n=67 v=79
4144 On ch=3 n=67 v=0
4144 On ch=3 n=59 v=0
4144 On ch=3 n=62 v=0
4176 On ch=3 n=62 v=79
4176 On ch=3 n=59 v=79
4176 On ch=3 n=67 v=79
4192 On ch=3 n=67 v=0
4192 On ch=3 n=59 v=0
4192 On ch=3 n=62 v=0
4224 On ch=3 n=64 v=79
4224 On ch=3 n=60 v=79
4224 On ch=3 n=67 v=79
4240 On ch=3 n=67 v=0
4240 On ch=3 n=60 v=0
4240 On ch=3 n=64 v=0
4272 On ch=3 n=64 v=79
4272 On ch=3 n=60 v=79
4272 On ch=3 n=67 v=79
4288 On ch=3 n=67 v=0
4288 On ch=3 n=60 v=0
4288 On ch=3 n=64 v=0
4320 On ch=3 n=64 v=79
4320 On ch=3 n=60 v=79
4320 On ch=3 n=67 v=79
4336 On ch=3 n=67 v=0
4336 On ch=3 n=60 v=0
4336 On ch=3 n=64 v=0
4368 On ch=3 n=64 v=79
4368 On ch=3 n=60 v=79
4368 On ch=3 n=67 v=79
4384 On ch=3 n=67 v=0
4384 On ch=3 n=60 v=0
4384 On ch=3 n=64 v=0
4416 On ch=3 n=64 v=79
4416 On ch=3 n=59 v=79
4416 On ch=3 n=67 v=79
4432 On ch=3 n=67 v=0
4432 On ch=3 n=59 v=0
4432 On ch=3 n=64 v=0
4464 On ch=3 n=64 v=79
4464 On ch=3 n=59 v=79
4464 On ch=3 n=67 v=79
4480 On ch=3 n=67 v=0
4480 On ch=3 n=59 v=0
4480 On ch=3 n=64 v=0
4512 On ch=3 n=64 v=79
4512 On ch=3 n=59 v=79
4512 On ch=3 n=67 v=79
4528 On ch=3 n=67 v=0
4528 On ch=3 n=59 v=0
4528 On ch=3 n=64 v=0
4560 On ch=3 n=64 v=79
4560 On ch=3 n=60 v=79
4560 On ch=3 n=57 v=79
4560 On ch=3 n=67 v=79
4576 On ch=3 n=67 v=0
4576 On ch=3 n=64 v=0
4576 On ch=3 n=60 v=0
4576 On ch=3 n=57 v=0
4608 On ch=3 n=64 v=79
4608 On ch=3 n=60 v=79
4608 On ch=3 n=57 v=79
4608 On ch=3 n=67 v=79
4624 On ch=3 n=67 v=0
4624 On ch=3 n=64 v=0
4624 On ch=3 n=60 v=0
4624 On ch=3 n=57 v=0
4656 On ch=3 n=64 v=79
4656 On ch=3 n=60 v=79
4656 On ch=3 n=57 v=79
4656 On ch=3 n=67 v=79
4672 On ch=3 n=67 v=0
4672 On ch=3 n=64 v=0
4672 On ch=3 n=60 v=0
4672 On ch=3 n=57 v=0
4704 On ch=3 n=64 v=79
4704 On ch=3 n=60 v=79
4704 On ch=3 n=57 v=79
4704 On ch=3 n=67 v=79
4720 On ch=3 n=67 v=0
4720 On ch=3 n=64 v=0
4720 On ch=3 n=60 v=0
4720 On ch=3 n=57 v=0
4752 On ch=3 n=64 v=79
4752 On ch=3 n=60 v=79
4752 On ch=3 n=57 v=79
4752 On ch=3 n=67 v=79
4768 On ch=3 n=67 v=0
4768 On ch=3 n=64 v=0
4768 On ch=3 n=60 v=0
4768 On ch=3 n=57 v=0
4800 On ch=3 n=60 v=79
4800 On ch=3 n=55 v=79
4800 On ch=3 n=64 v=79
4816 On ch=3 n=64 v=0
4816 On ch=3 n=55 v=0
4816 On ch=3 n=60 v=0
4848 On ch=3 n=55 v=79
4848 On ch=3 n=60 v=79
4848 On ch=3 n=64 v=79
4864 On ch=3 n=64 v=0
4864 On ch=3 n=60 v=0
4864 On ch=3 n=55 v=0
4896 On ch=3 n=60 v=79
4896 On ch=3 n=55 v=79
4896 On ch=3 n=64 v=79
4912 On ch=3 n=64 v=0
4912 On ch=3 n=55 v=0
4912 On ch=3 n=60 v=0
4944 On ch=3 n=60 v=79
4944 On ch=3 n=57 v=79
4944 On ch=3 n=65 v=79
4960 On ch=3 n=65 v=0
4960 On ch=3 n=57 v=0
4960 On ch=3 n=60 v=0
4992 On ch=3 n=60 v=79
4992 On ch=3 n=57 v=79
4992 On ch=3 n=65 v=79
5008 On ch=3 n=65 v=0
5008 On ch=3 n=57 v=0
5008 On ch=3 n=60 v=0
5040 On ch=3 n=60 v=79
5040 On ch=3 n=57 v=79
5040 On ch=3 n=65 v=79
5056 On ch=3 n=65 v=0
5056 On ch=3 n=57 v=0
5056 On ch=3 n=60 v=0
5088 On ch=3 n=60 v=79
5088 On ch=3 n=57 v=79
5088 On ch=3 n=65 v=79
5104 On ch=3 n=65 v=0
5104 On ch=3 n=57 v=0
5104 On ch=3 n=60 v=0
5136 On ch=3 n=60 v=79
5136 On ch=3 n=57 v=79
5136 On ch=3 n=65 v=79
5152 On ch=3 n=65 v=0
5152 On ch=3 n=57 v=0
5152 On ch=3 n=60 v=0
5184 On ch=3 n=60 v=79
5184 On ch=3 n=55 v=79
5184 On ch=3 n=64 v=79
5200 On ch=3 n=64 v=0
5200 On ch=3 n=55 v=0
5200 On ch=3 n=60 v=0
5232 On ch=3 n=60 v=79
5232 On ch=3 n=55 v=79
5232 On ch=3 n=64 v=79
5248 On ch=3 n=64 v=0
5248 On ch=3 n=55 v=0
5248 On ch=3 n=60 v=0
5280 On ch=3 n=60 v=79
5280 On ch=3 n=55 v=79
5280 On ch=3 n=64 v=79
5304 On ch=3 n=64 v=0
5304 On ch=3 n=55 v=0
5304 On ch=3 n=60 v=0
5352 On ch=3 n=63 v=95
5376 On ch=3 n=63 v=0
5376 On ch=3 n=62 v=95
5400 On ch=3 n=62 v=0
5400 On ch=3 n=65 v=95
5424 On ch=3 n=65 v=0
5424 On ch=3 n=67 v=95
5448 On ch=3 n=67 v=0
5448 On ch=3 n=72 v=95
5472 On ch=3 n=72 v=0
5472 On ch=3 n=77 v=95
5488 On ch=3 n=77 v=0
5520 On ch=3 n=75 v=95
5544 On ch=3 n=75 v=0
5544 On ch=3 n=74 v=95
5568 On ch=3 n=74 v=0
5568 On ch=3 n=70 v=95
5592 On ch=3 n=70 v=0
5592 On ch=3 n=65 v=95
5640 On ch=3 n=65 v=0
5664 On ch=3 n=65 v=95
5680 On ch=3 n=65 v=0
5688 On ch=3 n=65 v=95
5720 On ch=3 n=65 v=0
5736 On ch=3 n=63 v=95
5760 On ch=3 n=63 v=0
5760 On ch=3 n=62 v=95
5784 On ch=3 n=62 v=0
5784 On ch=3 n=65 v=95
5808 On ch=3 n=65 v=0
5808 On ch=3 n=67 v=95
5832 On ch=3 n=67 v=0
5832 On ch=3 n=72 v=95
5856 On ch=3 n=72 v=0
5856 On ch=3 n=77 v=95
5872 On ch=3 n=77 v=0
5904 On ch=3 n=75 v=95
5928 On ch=3 n=75 v=0
5928 On ch=3 n=74 v=95
5952 On ch=3 n=74 v=0
5952 On ch=3 n=70 v=95
5976 On ch=3 n=70 v=0
5976 On ch=3 n=62 v=95
6000 On ch=3 n=62 v=0
6000 On ch=3 n=54 v=95
6024 On ch=3 n=54 v=0
6024 On ch=3 n=56 v=95
6048 On ch=3 n=56 v=0
6048 On ch=3 n=59 v=95
6080 On ch=3 n=59 v=0
6144 On ch=3 n=62 v=79
6144 On ch=3 n=59 v=79
6144 On ch=3 n=56 v=79
6144 On ch=3 n=66 v=79
6160 On ch=3 n=66 v=0
6160 On ch=3 n=62 v=0
6160 On ch=3 n=59 v=0
6160 On ch=3 n=56 v=0
6192 On ch=3 n=62 v=79
6192 On ch=3 n=59 v=79
6192 On ch=3 n=56 v=79
6192 On ch=3 n=66 v=79
6208 On ch=3 n=66 v=0
6208 On ch=3 n=62 v=0
6208 On ch=3 n=59 v=0
6208 On ch=3 n=56 v=0
6240 On ch=3 n=62 v=79
6240 On ch=3 n=59 v=79
6240 On ch=3 n=56 v=79
6240 On ch=3 n=66 v=79
6256 On ch=3 n=66 v=0
6256 On ch=3 n=62 v=0
6256 On ch=3 n=59 v=0
6256 On ch=3 n=56 v=0
6288 On ch=3 n=62 v=79
6288 On ch=3 n=59 v=79
6288 On ch=3 n=56 v=79
6288 On ch=3 n=66 v=79
6304 On ch=3 n=66 v=0
6304 On ch=3 n=62 v=0
6304 On ch=3 n=59 v=0
6304 On ch=3 n=56 v=0
6336 On ch=3 n=62 v=79
6336 On ch=3 n=59 v=79
6336 On ch=3 n=56 v=79
6336 On ch=3 n=66 v=79
6352 On ch=3 n=66 v=0
6352 On ch=3 n=62 v=0
6352 On ch=3 n=59 v=0
6352 On ch=3 n=56 v=0
6384 On ch=3 n=62 v=79
6384 On ch=3 n=59 v=79
6384 On ch=3 n=56 v=79
6384 On ch=3 n=66 v=79
6400 On ch=3 n=66 v=0
6400 On ch=3 n=62 v=0
6400 On ch=3 n=59 v=0
6400 On ch=3 n=56 v=0
6432 On ch=3 n=62 v=79
6432 On ch=3 n=59 v=79
6432 On ch=3 n=56 v=79
6432 On ch=3 n=66 v=79
6448 On ch=3 n=66 v=0
6448 On ch=3 n=62 v=0
6448 On ch=3 n=59 v=0
6448 On ch=3 n=56 v=0
6480 On ch=3 n=62 v=79
6480 On ch=3 n=59 v=79
6480 On ch=3 n=56 v=79
6480 On ch=3 n=66 v=79
6496 On ch=3 n=66 v=0
6496 On ch=3 n=62 v=0
6496 On ch=3 n=59 v=0
6496 On ch=3 n=56 v=0
6528 On ch=3 n=62 v=79
6528 On ch=3 n=59 v=79
6528 On ch=3 n=56 v=79
6528 On ch=3 n=66 v=79
6544 On ch=3 n=66 v=0
6544 On ch=3 n=62 v=0
6544 On ch=3 n=59 v=0
6544 On ch=3 n=56 v=0
6576 On ch=3 n=62 v=79
6576 On ch=3 n=59 v=79
6576 On ch=3 n=56 v=79
6576 On ch=3 n=66 v=79
6592 On ch=3 n=66 v=0
6592 On ch=3 n=62 v=0
6592 On ch=3 n=59 v=0
6592 On ch=3 n=56 v=0
6624 On ch=3 n=62 v=79
6624 On ch=3 n=59 v=79
6624 On ch=3 n=56 v=79
6624 On ch=3 n=66 v=79
6640 On ch=3 n=66 v=0
6640 On ch=3 n=62 v=0
6640 On ch=3 n=59 v=0
6640 On ch=3 n=56 v=0
6672 On ch=3 n=62 v=79
6672 On ch=3 n=59 v=79
6672 On ch=3 n=56 v=79
6672 On ch=3 n=66 v=79
6688 On ch=3 n=66 v=0
6688 On ch=3 n=62 v=0
6688 On ch=3 n=59 v=0
6688 On ch=3 n=56 v=0
6720 On ch=3 n=62 v=79
6720 On ch=3 n=59 v=79
6720 On ch=3 n=56 v=79
6720 On ch=3 n=66 v=79
6736 On ch=3 n=66 v=0
6736 On ch=3 n=62 v=0
6736 On ch=3 n=59 v=0
6736 On ch=3 n=56 v=0
6768 On ch=3 n=62 v=79
6768 On ch=3 n=59 v=79
6768 On ch=3 n=56 v=79
6768 On ch=3 n=66 v=79
6784 On ch=3 n=66 v=0
6784 On ch=3 n=62 v=0
6784 On ch=3 n=59 v=0
6784 On ch=3 n=56 v=0
6816 On ch=3 n=62 v=79
6816 On ch=3 n=59 v=79
6816 On ch=3 n=56 v=79
6816 On ch=3 n=66 v=79
6832 On ch=3 n=66 v=0
6832 On ch=3 n=62 v=0
6832 On ch=3 n=59 v=0
6832 On ch=3 n=56 v=0
6864 On ch=3 n=62 v=79
6864 On ch=3 n=59 v=79
6864 On ch=3 n=56 v=79
6864 On ch=3 n=66 v=79
6880 On ch=3 n=66 v=0
6880 On ch=3 n=62 v=0
6880 On ch=3 n=59 v=0
6880 On ch=3 n=56 v=0
6912 On ch=3 n=62 v=79
6912 On ch=3 n=59 v=79
6912 On ch=3 n=56 v=79
6912 On ch=3 n=66 v=79
6928 On ch=3 n=66 v=0
6928 On ch=3 n=62 v=0
6928 On ch=3 n=59 v=0
6928 On ch=3 n=56 v=0
6960 On ch=3 n=62 v=79
6960 On ch=3 n=59 v=79
6960 On ch=3 n=56 v=79
6960 On ch=3 n=66 v=79
6976 On ch=3 n=66 v=0
6976 On ch=3 n=62 v=0
6976 On ch=3 n=59 v=0
6976 On ch=3 n=56 v=0
7008 On ch=3 n=62 v=79
7008 On ch=3 n=59 v=79
7008 On ch=3 n=56 v=79
7008 On ch=3 n=66 v=79
7024 On ch=3 n=66 v=0
7024 On ch=3 n=62 v=0
7024 On ch=3 n=59 v=0
7024 On ch=3 n=56 v=0
7056 On ch=3 n=62 v=79
7056 On ch=3 n=59 v=79
7056 On ch=3 n=56 v=79
7056 On ch=3 n=66 v=79
7072 On ch=3 n=66 v=0
7072 On ch=3 n=62 v=0
7072 On ch=3 n=59 v=0
7072 On ch=3 n=56 v=0
7104 On ch=3 n=62 v=79
7104 On ch=3 n=59 v=79
7104 On ch=3 n=56 v=79
7104 On ch=3 n=66 v=79
7120 On ch=3 n=66 v=0
7120 On ch=3 n=62 v=0
7120 On ch=3 n=59 v=0
7120 On ch=3 n=56 v=0
7152 On ch=3 n=62 v=79
7152 On ch=3 n=59 v=79
7152 On ch=3 n=56 v=79
7152 On ch=3 n=66 v=79
7168 On ch=3 n=66 v=0
7168 On ch=3 n=62 v=0
7168 On ch=3 n=59 v=0
7168 On ch=3 n=56 v=0
7200 On ch=3 n=62 v=79
7200 On ch=3 n=59 v=79
7200 On ch=3 n=56 v=79
7200 On ch=3 n=66 v=79
7216 On ch=3 n=66 v=0
7216 On ch=3 n=62 v=0
7216 On ch=3 n=59 v=0
7216 On ch=3 n=56 v=0
7248 On ch=3 n=62 v=79
7248 On ch=3 n=59 v=79
7248 On ch=3 n=56 v=79
7248 On ch=3 n=66 v=79
7264 On ch=3 n=66 v=0
7264 On ch=3 n=62 v=0
7264 On ch=3 n=59 v=0
7264 On ch=3 n=56 v=0
7296 On ch=3 n=56 v=79
7296 On ch=3 n=61 v=79
7296 On ch=3 n=59 v=79
7296 On ch=3 n=66 v=79
7312 On ch=3 n=66 v=0
7312 On ch=3 n=56 v=0
7312 On ch=3 n=61 v=0
7312 On ch=3 n=59 v=0
7344 On ch=3 n=61 v=79
7344 On ch=3 n=56 v=79
7344 On ch=3 n=59 v=79
7344 On ch=3 n=66 v=79
7360 On ch=3 n=66 v=0
7360 On ch=3 n=61 v=0
7360 On ch=3 n=56 v=0
7360 On ch=3 n=59 v=0
7392 On ch=3 n=56 v=79
7392 On ch=3 n=61 v=79
7392 On ch=3 n=59 v=79
7392 On ch=3 n=66 v=79
7408 On ch=3 n=66 v=0
7408 On ch=3 n=56 v=0
7408 On ch=3 n=61 v=0
7408 On ch=3 n=59 v=0
7440 On ch=3 n=61 v=79
7440 On ch=3 n=56 v=79
7440 On ch=3 n=59 v=79
7440 On ch=3 n=66 v=79
7456 On ch=3 n=66 v=0
7456 On ch=3 n=61 v=0
7456 On ch=3 n=56 v=0
7456 On ch=3 n=59 v=0
7488 On ch=3 n=61 v=79
7488 On ch=3 n=56 v=79
7488 On ch=3 n=59 v=79
7488 On ch=3 n=66 v=79
7504 On ch=3 n=66 v=0
7504 On ch=3 n=61 v=0
7504 On ch=3 n=56 v=0
7504 On ch=3 n=59 v=0
7536 On ch=3 n=61 v=79
7536 On ch=3 n=56 v=79
7536 On ch=3 n=59 v=79
7536 On ch=3 n=66 v=79
7552 On ch=3 n=66 v=0
7552 On ch=3 n=61 v=0
7552 On ch=3 n=56 v=0
7552 On ch=3 n=59 v=0
7584 On ch=3 n=61 v=79
7584 On ch=3 n=56 v=79
7584 On ch=3 n=59 v=79
7584 On ch=3 n=66 v=79
7600 On ch=3 n=66 v=0
7600 On ch=3 n=61 v=0
7600 On ch=3 n=56 v=0
7600 On ch=3 n=59 v=0
7632 On ch=3 n=61 v=79
7632 On ch=3 n=56 v=79
7632 On ch=3 n=59 v=79
7632 On ch=3 n=66 v=79
7648 On ch=3 n=66 v=0
7648 On ch=3 n=61 v=0
7648 On ch=3 n=56 v=0
7648 On ch=3 n=59 v=0
7680 On ch=3 n=62 v=79
7680 On ch=3 n=59 v=79
7680 On ch=3 n=66 v=79
7696 On ch=3 n=66 v=0
7696 On ch=3 n=59 v=0
7696 On ch=3 n=62 v=0
7728 On ch=3 n=62 v=79
7728 On ch=3 n=59 v=79
7728 On ch=3 n=66 v=79
7744 On ch=3 n=66 v=0
7744 On ch=3 n=59 v=0
7744 On ch=3 n=62 v=0
7776 On ch=3 n=62 v=79
7776 On ch=3 n=59 v=79
7776 On ch=3 n=66 v=79
7792 On ch=3 n=66 v=0
7792 On ch=3 n=59 v=0
7792 On ch=3 n=62 v=0
7824 On ch=3 n=62 v=79
7824 On ch=3 n=59 v=79
7824 On ch=3 n=66 v=79
7840 On ch=3 n=66 v=0
7840 On ch=3 n=59 v=0
7840 On ch=3 n=62 v=0
7872 On ch=3 n=62 v=79
7872 On ch=3 n=59 v=79
7872 On ch=3 n=66 v=79
7888 On ch=3 n=66 v=0
7888 On ch=3 n=59 v=0
7888 On ch=3 n=62 v=0
7920 On ch=3 n=62 v=79
7920 On ch=3 n=59 v=79
7920 On ch=3 n=66 v=79
7936 On ch=3 n=66 v=0
7936 On ch=3 n=59 v=0
7936 On ch=3 n=62 v=0
7968 On ch=3 n=62 v=79
7968 On ch=3 n=59 v=79
7968 On ch=3 n=66 v=79
7984 On ch=3 n=66 v=0
7984 On ch=3 n=59 v=0
7984 On ch=3 n=62 v=0
8016 On ch=3 n=62 v=79
8016 On ch=3 n=59 v=79
8016 On ch=3 n=66 v=79
8032 On ch=3 n=66 v=0
8032 On ch=3 n=59 v=0
8032 On ch=3 n=62 v=0
8064 On ch=3 n=62 v=79
8064 On ch=3 n=59 v=79
8064 On ch=3 n=66 v=79
8080 On ch=3 n=66 v=0
8080 On ch=3 n=59 v=0
8080 On ch=3 n=62 v=0
8112 On ch=3 n=62 v=79
8112 On ch=3 n=59 v=79
8112 On ch=3 n=66 v=79
8128 On ch=3 n=66 v=0
8128 On ch=3 n=59 v=0
8128 On ch=3 n=62 v=0
8160 On ch=3 n=62 v=79
8160 On ch=3 n=59 v=79
8160 On ch=3 n=66 v=79
8176 On ch=3 n=66 v=0
8176 On ch=3 n=59 v=0
8176 On ch=3 n=62 v=0
8208 On ch=3 n=62 v=79
8208 On ch=3 n=59 v=79
8208 On ch=3 n=66 v=79
8224 On ch=3 n=66 v=0
8224 On ch=3 n=59 v=0
8224 On ch=3 n=62 v=0
8256 On ch=3 n=62 v=79
8256 On ch=3 n=59 v=79
8256 On ch=3 n=66 v=79
8272 On ch=3 n=66 v=0
8272 On ch=3 n=59 v=0
8272 On ch=3 n=62 v=0
8304 On ch=3 n=62 v=79
8304 On ch=3 n=59 v=79
8304 On ch=3 n=66 v=79
8320 On ch=3 n=66 v=0
8320 On ch=3 n=59 v=0
8320 On ch=3 n=62 v=0
8352 On ch=3 n=62 v=79
8352 On ch=3 n=59 v=79
8352 On ch=3 n=66 v=79
8368 On ch=3 n=66 v=0
8368 On ch=3 n=59 v=0
8368 On ch=3 n=62 v=0
8400 On ch=3 n=62 v=79
8400 On ch=3 n=59 v=79
8400 On ch=3 n=66 v=79
8416 On ch=3 n=66 v=0
8416 On ch=3 n=59 v=0
8416 On ch=3 n=62 v=0
8448 On ch=3 n=62 v=79
8448 On ch=3 n=59 v=79
8448 On ch=3 n=66 v=79
8464 On ch=3 n=66 v=0
8464 On ch=3 n=59 v=0
8464 On ch=3 n=62 v=0
8496 On ch=3 n=62 v=79
8496 On ch=3 n=59 v=79
8496 On ch=3 n=66 v=79
8512 On ch=3 n=66 v=0
8512 On ch=3 n=59 v=0
8512 On ch=3 n=62 v=0
8544 On ch=3 n=62 v=79
8544 On ch=3 n=59 v=79
8544 On ch=3 n=66 v=79
8560 On ch=3 n=66 v=0
8560 On ch=3 n=59 v=0
8560 On ch=3 n=62 v=0
8592 On ch=3 n=62 v=79
8592 On ch=3 n=59 v=79
8592 On ch=3 n=66 v=79
8608 On ch=3 n=66 v=0
8608 On ch=3 n=59 v=0
8608 On ch=3 n=62 v=0
8640 On ch=3 n=62 v=79
8640 On ch=3 n=59 v=79
8640 On ch=3 n=66 v=79
8656 On ch=3 n=66 v=0
8656 On ch=3 n=59 v=0
8656 On ch=3 n=62 v=0
8688 On ch=3 n=62 v=79
8688 On ch=3 n=59 v=79
8688 On ch=3 n=66 v=79
8704 On ch=3 n=66 v=0
8704 On ch=3 n=59 v=0
8704 On ch=3 n=62 v=0
8736 On ch=3 n=62 v=79
8736 On ch=3 n=59 v=79
8736 On ch=3 n=66 v=79
8752 On ch=3 n=66 v=0
8752 On ch=3 n=59 v=0
8752 On ch=3 n=62 v=0
8784 On ch=3 n=62 v=79
8784 On ch=3 n=59 v=79
8784 On ch=3 n=66 v=79
8800 On ch=3 n=66 v=0
8800 On ch=3 n=59 v=0
8800 On ch=3 n=62 v=0
8832 On ch=3 n=62 v=79
8832 On ch=3 n=59 v=79
8832 On ch=3 n=67 v=79
8848 On ch=3 n=67 v=0
8848 On ch=3 n=59 v=0
8848 On ch=3 n=62 v=0
8880 On ch=3 n=62 v=79
8880 On ch=3 n=59 v=79
8880 On ch=3 n=67 v=79
8896 On ch=3 n=67 v=0
8896 On ch=3 n=59 v=0
8896 On ch=3 n=62 v=0
8928 On ch=3 n=62 v=79
8928 On ch=3 n=59 v=79
8928 On ch=3 n=67 v=79
8944 On ch=3 n=67 v=0
8944 On ch=3 n=59 v=0
8944 On ch=3 n=62 v=0
8976 On ch=3 n=62 v=79
8976 On ch=3 n=59 v=79
8976 On ch=3 n=67 v=79
8992 On ch=3 n=67 v=0
8992 On ch=3 n=59 v=0
8992 On ch=3 n=62 v=0
9024 On ch=3 n=62 v=79
9024 On ch=3 n=59 v=79
9024 On ch=3 n=67 v=79
9040 On ch=3 n=67 v=0
9040 On ch=3 n=59 v=0
9040 On ch=3 n=62 v=0
9072 On ch=3 n=62 v=79
9072 On ch=3 n=59 v=79
9072 On ch=3 n=67 v=79
9088 On ch=3 n=67 v=0
9088 On ch=3 n=59 v=0
9088 On ch=3 n=62 v=0
9120 On ch=3 n=62 v=79
9120 On ch=3 n=59 v=79
9120 On ch=3 n=67 v=79
9136 On ch=3 n=67 v=0
9136 On ch=3 n=59 v=0
9136 On ch=3 n=62 v=0
9168 On ch=3 n=62 v=79
9168 On ch=3 n=59 v=79
9168 On ch=3 n=67 v=79
9184 On ch=3 n=67 v=0
9184 On ch=3 n=59 v=0
9184 On ch=3 n=62 v=0
9216 On ch=3 n=62 v=79
9216 On ch=3 n=59 v=79
9216 On ch=3 n=67 v=79
9232 On ch=3 n=67 v=0
9232 On ch=3 n=59 v=0
9232 On ch=3 n=62 v=0
9264 On ch=3 n=62 v=79
9264 On ch=3 n=59 v=79
9264 On ch=3 n=67 v=79
9280 On ch=3 n=67 v=0
9280 On ch=3 n=59 v=0
9280 On ch=3 n=62 v=0
9312 On ch=3 n=62 v=79
9312 On ch=3 n=59 v=79
9312 On ch=3 n=67 v=79
9328 On ch=3 n=67 v=0
9328 On ch=3 n=59 v=0
9328 On ch=3 n=62 v=0
9360 On ch=3 n=62 v=79
9360 On ch=3 n=59 v=79
9360 On ch=3 n=67 v=79
9376 On ch=3 n=67 v=0
9376 On ch=3 n=59 v=0
9376 On ch=3 n=62 v=0
9408 On ch=3 n=62 v=79
9408 On ch=3 n=59 v=79
9408 On ch=3 n=67 v=79
9424 On ch=3 n=67 v=0
9424 On ch=3 n=59 v=0
9424 On ch=3 n=62 v=0
9456 On ch=3 n=62 v=79
9456 On ch=3 n=59 v=79
9456 On ch=3 n=67 v=79
9472 On ch=3 n=67 v=0
9472 On ch=3 n=59 v=0
9472 On ch=3 n=62 v=0
9504 On ch=3 n=62 v=79
9504 On ch=3 n=59 v=79
9504 On ch=3 n=67 v=79
9528 On ch=3 n=67 v=0
9528 On ch=3 n=59 v=0
9528 On ch=3 n=62 v=0
9576 On ch=3 n=65 v=95
9600 On ch=3 n=65 v=0
9600 On ch=3 n=64 v=95
9624 On ch=3 n=64 v=0
9624 On ch=3 n=67 v=95
9648 On ch=3 n=67 v=0
9648 On ch=3 n=69 v=95
9672 On ch=3 n=69 v=0
9672 On ch=3 n=74 v=95
9696 On ch=3 n=74 v=0
9696 On ch=3 n=79 v=95
9712 On ch=3 n=79 v=0
9744 On ch=3 n=77 v=95
9768 On ch=3 n=77 v=0
9768 On ch=3 n=76 v=95
9792 On ch=3 n=76 v=0
9792 On ch=3 n=72 v=95
9816 On ch=3 n=72 v=0
9816 On ch=3 n=67 v=95
9936 On ch=3 n=67 v=0
9960 On ch=3 n=65 v=95
9984 On ch=3 n=65 v=0
9984 On ch=3 n=64 v=95
10008 On ch=3 n=64 v=0
10008 On ch=3 n=67 v=95
10032 On ch=3 n=67 v=0
10032 On ch=3 n=69 v=95
10056 On ch=3 n=69 v=0
10056 On ch=3 n=74 v=95
10080 On ch=3 n=74 v=0
10080 On ch=3 n=79 v=95
10096 On ch=3 n=79 v=0
10128 On ch=3 n=77 v=95
10152 On ch=3 n=77 v=0
10152 On ch=3 n=76 v=95
10176 On ch=3 n=76 v=0
10176 On ch=3 n=72 v=95
10200 On ch=3 n=72 v=0
10200 On ch=3 n=67 v=95
10320 On ch=3 n=67 v=0
10344 On ch=3 n=65 v=95
10368 On ch=3 n=65 v=0
10368 On ch=3 n=64 v=95
10392 On ch=3 n=64 v=0
10392 On ch=3 n=67 v=95
10416 On ch=3 n=67 v=0
10416 On ch=3 n=69 v=95
10440 On ch=3 n=69 v=0
10440 On ch=3 n=74 v=95
10464 On ch=3 n=74 v=0
10464 On ch=3 n=79 v=95
10480 On ch=3 n=79 v=0
10512 On ch=3 n=77 v=95
10536 On ch=3 n=77 v=0
10536 On ch=3 n=76 v=95
10560 On ch=3 n=76 v=0
10560 On ch=3 n=72 v=95
10584 On ch=3 n=72 v=0
10584 On ch=3 n=67 v=95
10704 On ch=3 n=67 v=0
10728 On ch=3 n=63 v=95
10752 On ch=3 n=63 v=0
10752 On ch=3 n=62 v=95
10776 On ch=3 n=62 v=0
10776 On ch=3 n=65 v=95
10800 On ch=3 n=65 v=0
10800 On ch=3 n=67 v=95
10824 On ch=3 n=67 v=0
10824 On ch=3 n=72 v=95
10848 On ch=3 n=72 v=0
10848 On ch=3 n=77 v=95
10864 On ch=3 n=77 v=0
10896 On ch=3 n=75 v=95
10920 On ch=3 n=75 v=0
10920 On ch=3 n=74 v=95
10944 On ch=3 n=74 v=0
10944 On ch=3 n=70 v=95
10968 On ch=3 n=70 v=0
10968 On ch=3 n=65 v=95
11016 On ch=3 n=65 v=0
11040 On ch=3 n=65 v=95
11056 On ch=3 n=65 v=0
11064 On ch=3 n=65 v=95
11096 On ch=3 n=65 v=0
11112 On ch=3 n=63 v=95
11136 On ch=3 n=63 v=0
11136 On ch=3 n=62 v=95
11160 On ch=3 n=62 v=0
11160 On ch=3 n=65 v=95
11184 On ch=3 n=65 v=0
11184 On ch=3 n=67 v=95
11208 On ch=3 n=67 v=0
11208 On ch=3 n=72 v=95
11232 On ch=3 n=72 v=0
11232 On ch=3 n=77 v=95
11248 On ch=3 n=77 v=0
11280 On ch=3 n=75 v=95
11304 On ch=3 n=75 v=0
11304 On ch=3 n=74 v=95
11328 On ch=3 n=74 v=0
11328 On ch=3 n=70 v=95
11352 On ch=3 n=70 v=0
11352 On ch=3 n=62 v=95
11376 On ch=3 n=62 v=0
11376 On ch=3 n=54 v=95
11400 On ch=3 n=54 v=0
11400 On ch=3 n=56 v=95
11424 On ch=3 n=56 v=0
11424 On ch=3 n=59 v=95
11456 On ch=3 n=59 v=0
11520 On ch=3 n=62 v=79
11520 On ch=3 n=59 v=79
11520 On ch=3 n=56 v=79
11520 On ch=3 n=66 v=79
11536 On ch=3 n=66 v=0
11536 On ch=3 n=62 v=0
11536 On ch=3 n=59 v=0
11536 On ch=3 n=56 v=0
11568 On ch=3 n=62 v=79
11568 On ch=3 n=59 v=79
11568 On ch=3 n=56 v=79
11568 On ch=3 n=66 v=79
11584 On ch=3 n=66 v=0
11584 On ch=3 n=62 v=0
11584 On ch=3 n=59 v=0
11584 On ch=3 n=56 v=0
11616 On ch=3 n=62 v=79
11616 On ch=3 n=59 v=79
11616 On ch=3 n=56 v=79
11616 On ch=3 n=66 v=79
11632 On ch=3 n=66 v=0
11632 On ch=3 n=62 v=0
11632 On ch=3 n=59 v=0
11632 On ch=3 n=56 v=0
11664 On ch=3 n=62 v=79
11664 On ch=3 n=59 v=79
11664 On ch=3 n=56 v=79
11664 On ch=3 n=66 v=79
11680 On ch=3 n=66 v=0
11680 On ch=3 n=62 v=0
11680 On ch=3 n=59 v=0
11680 On ch=3 n=56 v=0
11712 On ch=3 n=62 v=79
11712 On ch=3 n=59 v=79
11712 On ch=3 n=56 v=79
11712 On ch=3 n=66 v=79
11728 On ch=3 n=66 v=0
11728 On ch=3 n=62 v=0
11728 On ch=3 n=59 v=0
11728 On ch=3 n=56 v=0
11760 On ch=3 n=62 v=79
11760 On ch=3 n=59 v=79
11760 On ch=3 n=56 v=79
11760 On ch=3 n=66 v=79
11776 On ch=3 n=66 v=0
11776 On ch=3 n=62 v=0
11776 On ch=3 n=59 v=0
11776 On ch=3 n=56 v=0
11808 On ch=3 n=62 v=79
11808 On ch=3 n=59 v=79
11808 On ch=3 n=56 v=79
11808 On ch=3 n=66 v=79
11824 On ch=3 n=66 v=0
11824 On ch=3 n=62 v=0
11824 On ch=3 n=59 v=0
11824 On ch=3 n=56 v=0
11856 On ch=3 n=62 v=79
11856 On ch=3 n=59 v=79
11856 On ch=3 n=56 v=79
11856 On ch=3 n=66 v=79
11872 On ch=3 n=66 v=0
11872 On ch=3 n=62 v=0
11872 On ch=3 n=59 v=0
11872 On ch=3 n=56 v=0
11904 On ch=3 n=62 v=79
11904 On ch=3 n=59 v=79
11904 On ch=3 n=56 v=79
11904 On ch=3 n=66 v=79
11920 On ch=3 n=66 v=0
11920 On ch=3 n=62 v=0
11920 On ch=3 n=59 v=0
11920 On ch=3 n=56 v=0
11952 On ch=3 n=62 v=79
11952 On ch=3 n=59 v=79
11952 On ch=3 n=56 v=79
11952 On ch=3 n=66 v=79
11968 On ch=3 n=66 v=0
11968 On ch=3 n=62 v=0
11968 On ch=3 n=59 v=0
11968 On ch=3 n=56 v=0
12000 On ch=3 n=62 v=79
12000 On ch=3 n=59 v=79
12000 On ch=3 n=56 v=79
12000 On ch=3 n=66 v=79
12016 On ch=3 n=66 v=0
12016 On ch=3 n=62 v=0
12016 On ch=3 n=59 v=0
12016 On ch=3 n=56 v=0
12048 On ch=3 n=62 v=79
12048 On ch=3 n=59 v=79
12048 On ch=3 n=56 v=79
12048 On ch=3 n=66 v=79
12064 On ch=3 n=66 v=0
12064 On ch=3 n=62 v=0
12064 On ch=3 n=59 v=0
12064 On ch=3 n=56 v=0
12096 On ch=3 n=62 v=79
12096 On ch=3 n=59 v=79
12096 On ch=3 n=56 v=79
12096 On ch=3 n=66 v=79
12112 On ch=3 n=66 v=0
12112 On ch=3 n=62 v=0
12112 On ch=3 n=59 v=0
12112 On ch=3 n=56 v=0
12144 On ch=3 n=62 v=79
12144 On ch=3 n=59 v=79
12144 On ch=3 n=56 v=79
12144 On ch=3 n=66 v=79
12160 On ch=3 n=66 v=0
12160 On ch=3 n=62 v=0
12160 On ch=3 n=59 v=0
12160 On ch=3 n=56 v=0
12192 On ch=3 n=62 v=79
12192 On ch=3 n=59 v=79
12192 On ch=3 n=56 v=79
12192 On ch=3 n=66 v=79
12208 On ch=3 n=66 v=0
12208 On ch=3 n=62 v=0
12208 On ch=3 n=59 v=0
12208 On ch=3 n=56 v=0
12240 On ch=3 n=62 v=79
12240 On ch=3 n=59 v=79
12240 On ch=3 n=56 v=79
12240 On ch=3 n=66 v=79
12256 On ch=3 n=66 v=0
12256 On ch=3 n=62 v=0
12256 On ch=3 n=59 v=0
12256 On ch=3 n=56 v=0
12288 On ch=3 n=62 v=79
12288 On ch=3 n=59 v=79
12288 On ch=3 n=56 v=79
12288 On ch=3 n=66 v=79
12304 On ch=3 n=66 v=0
12304 On ch=3 n=62 v=0
12304 On ch=3 n=59 v=0
12304 On ch=3 n=56 v=0
12336 On ch=3 n=62 v=79
12336 On ch=3 n=59 v=79
12336 On ch=3 n=56 v=79
12336 On ch=3 n=66 v=79
12352 On ch=3 n=66 v=0
12352 On ch=3 n=62 v=0
12352 On ch=3 n=59 v=0
12352 On ch=3 n=56 v=0
12384 On ch=3 n=62 v=79
12384 On ch=3 n=59 v=79
12384 On ch=3 n=56 v=79
12384 On ch=3 n=66 v=79
12400 On ch=3 n=66 v=0
12400 On ch=3 n=62 v=0
12400 On ch=3 n=59 v=0
12400 On ch=3 n=56 v=0
12432 On ch=3 n=62 v=79
12432 On ch=3 n=59 v=79
12432 On ch=3 n=56 v=79
12432 On ch=3 n=66 v=79
12448 On ch=3 n=66 v=0
12448 On ch=3 n=62 v=0
12448 On ch=3 n=59 v=0
12448 On ch=3 n=56 v=0
12480 On ch=3 n=62 v=79
12480 On ch=3 n=59 v=79
12480 On ch=3 n=56 v=79
12480 On ch=3 n=66 v=79
12496 On ch=3 n=66 v=0
12496 On ch=3 n=62 v=0
12496 On ch=3 n=59 v=0
12496 On ch=3 n=56 v=0
12528 On ch=3 n=62 v=79
12528 On ch=3 n=59 v=79
12528 On ch=3 n=56 v=79
12528 On ch=3 n=66 v=79
12544 On ch=3 n=66 v=0
12544 On ch=3 n=62 v=0
12544 On ch=3 n=59 v=0
12544 On ch=3 n=56 v=0
12576 On ch=3 n=62 v=79
12576 On ch=3 n=59 v=79
12576 On ch=3 n=56 v=79
12576 On ch=3 n=66 v=79
12592 On ch=3 n=66 v=0
12592 On ch=3 n=62 v=0
12592 On ch=3 n=59 v=0
12592 On ch=3 n=56 v=0
12624 On ch=3 n=62 v=79
12624 On ch=3 n=59 v=79
12624 On ch=3 n=56 v=79
12624 On ch=3 n=66 v=79
12640 On ch=3 n=66 v=0
12640 On ch=3 n=62 v=0
12640 On ch=3 n=59 v=0
12640 On ch=3 n=56 v=0
12672 On ch=3 n=61 v=79
12672 On ch=3 n=59 v=79
12672 On ch=3 n=56 v=79
12672 On ch=3 n=66 v=79
12688 On ch=3 n=66 v=0
12688 On ch=3 n=61 v=0
12688 On ch=3 n=59 v=0
12688 On ch=3 n=56 v=0
12720 On ch=3 n=61 v=79
12720 On ch=3 n=59 v=79
12720 On ch=3 n=56 v=79
12720 On ch=3 n=66 v=79
12736 On ch=3 n=66 v=0
12736 On ch=3 n=61 v=0
12736 On ch=3 n=59 v=0
12736 On ch=3 n=56 v=0
12768 On ch=3 n=61 v=79
12768 On ch=3 n=59 v=79
12768 On ch=3 n=56 v=79
12768 On ch=3 n=66 v=79
12784 On ch=3 n=66 v=0
12784 On ch=3 n=61 v=0
12784 On ch=3 n=59 v=0
12784 On ch=3 n=56 v=0
12816 On ch=3 n=61 v=79
12816 On ch=3 n=59 v=79
12816 On ch=3 n=56 v=79
12816 On ch=3 n=66 v=79
12832 On ch=3 n=66 v=0
12832 On ch=3 n=61 v=0
12832 On ch=3 n=59 v=0
12832 On ch=3 n=56 v=0
12864 On ch=3 n=61 v=79
12864 On ch=3 n=59 v=79
12864 On ch=3 n=56 v=79
12864 On ch=3 n=66 v=79
12880 On ch=3 n=66 v=0
12880 On ch=3 n=61 v=0
12880 On ch=3 n=59 v=0
12880 On ch=3 n=56 v=0
12912 On ch=3 n=61 v=79
12912 On ch=3 n=59 v=79
12912 On ch=3 n=56 v=79
12912 On ch=3 n=66 v=79
12928 On ch=3 n=66 v=0
12928 On ch=3 n=61 v=0
12928 On ch=3 n=59 v=0
12928 On ch=3 n=56 v=0
12960 On ch=3 n=59 v=79
12960 On ch=3 n=61 v=79
12960 On ch=3 n=56 v=79
12960 On ch=3 n=66 v=79
12976 On ch=3 n=66 v=0
12976 On ch=3 n=59 v=0
12976 On ch=3 n=61 v=0
12976 On ch=3 n=56 v=0
13008 On ch=3 n=59 v=79
13008 On ch=3 n=61 v=79
13008 On ch=3 n=56 v=79
13008 On ch=3 n=66 v=79
13024 On ch=3 n=66 v=0
13024 On ch=3 n=59 v=0
13024 On ch=3 n=61 v=0
13024 On ch=3 n=56 v=0
13056 On ch=3 n=62 v=79
13056 On ch=3 n=59 v=79
13056 On ch=3 n=66 v=79
13072 On ch=3 n=66 v=0
13072 On ch=3 n=59 v=0
13072 On ch=3 n=62 v=0
13104 On ch=3 n=62 v=79
13104 On ch=3 n=59 v=79
13104 On ch=3 n=66 v=79
13120 On ch=3 n=66 v=0
13120 On ch=3 n=59 v=0
13120 On ch=3 n=62 v=0
13152 On ch=3 n=62 v=79
13152 On ch=3 n=59 v=79
13152 On ch=3 n=66 v=79
13168 On ch=3 n=66 v=0
13168 On ch=3 n=59 v=0
13168 On ch=3 n=62 v=0
13200 On ch=3 n=62 v=79
13200 On ch=3 n=59 v=79
13200 On ch=3 n=66 v=79
13216 On ch=3 n=66 v=0
13216 On ch=3 n=59 v=0
13216 On ch=3 n=62 v=0
13248 On ch=3 n=62 v=79
13248 On ch=3 n=59 v=79
13248 On ch=3 n=66 v=79
13264 On ch=3 n=66 v=0
13264 On ch=3 n=59 v=0
13264 On ch=3 n=62 v=0
13296 On ch=3 n=62 v=79
13296 On ch=3 n=59 v=79
13296 On ch=3 n=66 v=79
13312 On ch=3 n=66 v=0
13312 On ch=3 n=59 v=0
13312 On ch=3 n=62 v=0
13344 On ch=3 n=62 v=79
13344 On ch=3 n=59 v=79
13344 On ch=3 n=66 v=79
13360 On ch=3 n=66 v=0
13360 On ch=3 n=59 v=0
13360 On ch=3 n=62 v=0
13392 On ch=3 n=62 v=79
13392 On ch=3 n=59 v=79
13392 On ch=3 n=66 v=79
13408 On ch=3 n=66 v=0
13408 On ch=3 n=59 v=0
13408 On ch=3 n=62 v=0
13440 On ch=3 n=62 v=79
13440 On ch=3 n=59 v=79
13440 On ch=3 n=66 v=79
13456 On ch=3 n=66 v=0
13456 On ch=3 n=59 v=0
13456 On ch=3 n=62 v=0
13488 On ch=3 n=62 v=79
13488 On ch=3 n=59 v=79
13488 On ch=3 n=66 v=79
13504 On ch=3 n=66 v=0
13504 On ch=3 n=59 v=0
13504 On ch=3 n=62 v=0
13536 On ch=3 n=62 v=79
13536 On ch=3 n=59 v=79
13536 On ch=3 n=66 v=79
13552 On ch=3 n=66 v=0
13552 On ch=3 n=59 v=0
13552 On ch=3 n=62 v=0
13584 On ch=3 n=62 v=79
13584 On ch=3 n=59 v=79
13584 On ch=3 n=66 v=79
13600 On ch=3 n=66 v=0
13600 On ch=3 n=59 v=0
13600 On ch=3 n=62 v=0
13632 On ch=3 n=62 v=79
13632 On ch=3 n=59 v=79
13632 On ch=3 n=66 v=79
13648 On ch=3 n=66 v=0
13648 On ch=3 n=59 v=0
13648 On ch=3 n=62 v=0
13680 On ch=3 n=62 v=79
13680 On ch=3 n=59 v=79
13680 On ch=3 n=66 v=79
13696 On ch=3 n=66 v=0
13696 On ch=3 n=59 v=0
13696 On ch=3 n=62 v=0
13728 On ch=3 n=62 v=79
13728 On ch=3 n=59 v=79
13728 On ch=3 n=66 v=79
13744 On ch=3 n=66 v=0
13744 On ch=3 n=59 v=0
13744 On ch=3 n=62 v=0
13776 On ch=3 n=62 v=79
13776 On ch=3 n=59 v=79
13776 On ch=3 n=66 v=79
13792 On ch=3 n=66 v=0
13792 On ch=3 n=59 v=0
13792 On ch=3 n=62 v=0
13824 On ch=3 n=62 v=79
13824 On ch=3 n=59 v=79
13824 On ch=3 n=66 v=79
13840 On ch=3 n=66 v=0
13840 On ch=3 n=59 v=0
13840 On ch=3 n=62 v=0
13872 On ch=3 n=62 v=79
13872 On ch=3 n=59 v=79
13872 On ch=3 n=66 v=79
13888 On ch=3 n=66 v=0
13888 On ch=3 n=59 v=0
13888 On ch=3 n=62 v=0
13920 On ch=3 n=62 v=79
13920 On ch=3 n=59 v=79
13920 On ch=3 n=66 v=79
13936 On ch=3 n=66 v=0
13936 On ch=3 n=59 v=0
13936 On ch=3 n=62 v=0
13968 On ch=3 n=62 v=79
13968 On ch=3 n=59 v=79
13968 On ch=3 n=66 v=79
13984 On ch=3 n=66 v=0
13984 On ch=3 n=59 v=0
13984 On ch=3 n=62 v=0
14016 On ch=3 n=62 v=79
14016 On ch=3 n=59 v=79
14016 On ch=3 n=66 v=79
14032 On ch=3 n=66 v=0
14032 On ch=3 n=59 v=0
14032 On ch=3 n=62 v=0
14064 On ch=3 n=62 v=79
14064 On ch=3 n=59 v=79
14064 On ch=3 n=66 v=79
14080 On ch=3 n=66 v=0
14080 On ch=3 n=59 v=0
14080 On ch=3 n=62 v=0
14112 On ch=3 n=62 v=79
14112 On ch=3 n=59 v=79
14112 On ch=3 n=66 v=79
14128 On ch=3 n=66 v=0
14128 On ch=3 n=59 v=0
14128 On ch=3 n=62 v=0
14160 On ch=3 n=62 v=79
14160 On ch=3 n=59 v=79
14160 On ch=3 n=66 v=79
14176 On ch=3 n=66 v=0
14176 On ch=3 n=59 v=0
14176 On ch=3 n=62 v=0
14208 On ch=3 n=62 v=79
14208 On ch=3 n=59 v=79
14208 On ch=3 n=67 v=79
14224 On ch=3 n=67 v=0
14224 On ch=3 n=59 v=0
14224 On ch=3 n=62 v=0
14256 On ch=3 n=62 v=79
14256 On ch=3 n=59 v=79
14256 On ch=3 n=67 v=79
14272 On ch=3 n=67 v=0
14272 On ch=3 n=59 v=0
14272 On ch=3 n=62 v=0
14304 On ch=3 n=62 v=79
14304 On ch=3 n=59 v=79
14304 On ch=3 n=67 v=79
14320 On ch=3 n=67 v=0
14320 On ch=3 n=59 v=0
14320 On ch=3 n=62 v=0
14352 On ch=3 n=62 v=79
14352 On ch=3 n=59 v=79
14352 On ch=3 n=67 v=79
14368 On ch=3 n=67 v=0
14368 On ch=3 n=59 v=0
14368 On ch=3 n=62 v=0
14400 On ch=3 n=62 v=79
14400 On ch=3 n=59 v=79
14400 On ch=3 n=67 v=79
14416 On ch=3 n=67 v=0
14416 On ch=3 n=59 v=0
14416 On ch=3 n=62 v=0
14448 On ch=3 n=62 v=79
14448 On ch=3 n=59 v=79
14448 On ch=3 n=67 v=79
14464 On ch=3 n=67 v=0
14464 On ch=3 n=59 v=0
14464 On ch=3 n=62 v=0
14496 On ch=3 n=62 v=79
14496 On ch=3 n=59 v=79
14496 On ch=3 n=67 v=79
14512 On ch=3 n=67 v=0
14512 On ch=3 n=59 v=0
14512 On ch=3 n=62 v=0
14544 On ch=3 n=62 v=79
14544 On ch=3 n=59 v=79
14544 On ch=3 n=67 v=79
14560 On ch=3 n=67 v=0
14560 On ch=3 n=59 v=0
14560 On ch=3 n=62 v=0
14592 On ch=3 n=62 v=79
14592 On ch=3 n=59 v=79
14592 On ch=3 n=67 v=79
14608 On ch=3 n=67 v=0
14608 On ch=3 n=59 v=0
14608 On ch=3 n=62 v=0
14640 On ch=3 n=62 v=79
14640 On ch=3 n=59 v=79
14640 On ch=3 n=67 v=79
14656 On ch=3 n=67 v=0
14656 On ch=3 n=59 v=0
14656 On ch=3 n=62 v=0
14688 On ch=3 n=62 v=79
14688 On ch=3 n=59 v=79
14688 On ch=3 n=67 v=79
14704 On ch=3 n=67 v=0
14704 On ch=3 n=59 v=0
14704 On ch=3 n=62 v=0
14736 On ch=3 n=62 v=79
14736 On ch=3 n=59 v=79
14736 On ch=3 n=67 v=79
14752 On ch=3 n=67 v=0
14752 On ch=3 n=59 v=0
14752 On ch=3 n=62 v=0
14784 On ch=3 n=62 v=79
14784 On ch=3 n=59 v=79
14784 On ch=3 n=67 v=79
14800 On ch=3 n=67 v=0
14800 On ch=3 n=59 v=0
14800 On ch=3 n=62 v=0
14832 On ch=3 n=62 v=79
14832 On ch=3 n=59 v=79
14832 On ch=3 n=67 v=79
14848 On ch=3 n=67 v=0
14848 On ch=3 n=59 v=0
14848 On ch=3 n=62 v=0
14880 On ch=3 n=62 v=79
14880 On ch=3 n=59 v=79
14880 On ch=3 n=67 v=79
14904 On ch=3 n=67 v=0
14904 On ch=3 n=59 v=0
14904 On ch=3 n=62 v=0
14952 On ch=3 n=62 v=79
14952 On ch=3 n=65 v=79
14960 On ch=3 n=65 v=0
14960 On ch=3 n=62 v=0
14976 On ch=3 n=60 v=95
14976 On ch=3 n=64 v=95
15000 On ch=3 n=64 v=0
15000 On ch=3 n=60 v=0
15000 On ch=3 n=62 v=95
15000 On ch=3 n=67 v=95
15024 On ch=3 n=67 v=0
15024 On ch=3 n=62 v=0
15024 On ch=3 n=64 v=95
15024 On ch=3 n=69 v=95
15048 On ch=3 n=69 v=0
15048 On ch=3 n=64 v=0
15048 On ch=3 n=69 v=95
15048 On ch=3 n=74 v=95
15072 On ch=3 n=74 v=0
15072 On ch=3 n=69 v=0
15072 On ch=3 n=76 v=95
15072 On ch=3 n=79 v=95
15088 On ch=3 n=79 v=0
15088 On ch=3 n=76 v=0
15120 On ch=3 n=74 v=95
15120 On ch=3 n=77 v=95
15144 On ch=3 n=77 v=0
15144 On ch=3 n=74 v=0
15144 On ch=3 n=72 v=95
15144 On ch=3 n=76 v=95
15168 On ch=3 n=76 v=0
15168 On ch=3 n=72 v=0
15168 On ch=3 n=69 v=95
15168 On ch=3 n=72 v=95
15192 On ch=3 n=72 v=0
15192 On ch=3 n=69 v=0
15192 On ch=3 n=64 v=95
15192 On ch=3 n=67 v=95
15312 On ch=3 n=67 v=0
15312 On ch=3 n=64 v=0
15336 On ch=3 n=62 v=95
15336 On ch=3 n=65 v=95
15360 On ch=3 n=65 v=0
15360 On ch=3 n=62 v=0
15360 On ch=3 n=60 v=95
15360 On ch=3 n=64 v=95
15384 On ch=3 n=64 v=0
15384 On ch=3 n=60 v=0
15384 On ch=3 n=62 v=95
15384 On ch=3 n=67 v=95
15408 On ch=3 n=67 v=0
15408 On ch=3 n=62 v=0
15408 On ch=3 n=64 v=95
15408 On ch=3 n=69 v=95
15432 On ch=3 n=69 v=0
15432 On ch=3 n=64 v=0
15432 On ch=3 n=69 v=95
15432 On ch=3 n=74 v=95
15456 On ch=3 n=74 v=0
15456 On ch=3 n=69 v=0
15456 On ch=3 n=76 v=95
15456 On ch=3 n=79 v=95
15472 On ch=3 n=79 v=0
15472 On ch=3 n=76 v=0
15504 On ch=3 n=74 v=95
15504 On ch=3 n=77 v=95
15528 On ch=3 n=77 v=0
15528 On ch=3 n=74 v=0
15528 On ch=3 n=72 v=95
15528 On ch=3 n=76 v=95
15552 On ch=3 n=76 v=0
15552 On ch=3 n=72 v=0
15552 On ch=3 n=69 v=95
15552 On ch=3 n=72 v=95
15576 On ch=3 n=72 v=0
15576 On ch=3 n=69 v=0
15576 On ch=3 n=64 v=95
15576 On ch=3 n=67 v=95
15696 On ch=3 n=67 v=0
15696 On ch=3 n=64 v=0
15720 On ch=3 n=62 v=95
15720 On ch=3 n=65 v=95
15744 On ch=3 n=65 v=0
15744 On ch=3 n=62 v=0
15744 On ch=3 n=64 v=95
15744 On ch=3 n=67 v=95
15760 On ch=3 n=64 v=0
15768 On ch=3 n=67 v=0
15768 On ch=3 n=64 v=95
15792 On ch=3 n=64 v=0
15792 On ch=3 n=60 v=95
15816 On ch=3 n=60 v=0
15816 On ch=3 n=57 v=95
15840 On ch=3 n=57 v=0
15840 On ch=3 n=55 v=95
15856 On ch=3 n=55 v=0
15888 On ch=3 n=63 v=95
15912 On ch=3 n=63 v=0
15912 On ch=3 n=64 v=95
15928 On ch=3 n=64 v=0
15936 On ch=3 n=71 v=95
15960 On ch=3 n=71 v=0
15960 On ch=3 n=67 v=95
15984 On ch=3 n=67 v=0
15984 On ch=3 n=65 v=95
16000 On ch=3 n=65 v=0
16008 On ch=3 n=72 v=95
16032 On ch=3 n=72 v=0
16032 On ch=3 n=69 v=95
16056 On ch=3 n=69 v=0
16056 On ch=3 n=67 v=95
16072 On ch=3 n=67 v=0
16080 On ch=3 n=74 v=95
16104 On ch=3 n=74 v=0
16104 On ch=3 n=71 v=95
16128 On ch=3 n=71 v=0
16128 On ch=3 n=69 v=95
16144 On ch=3 n=69 v=0
16152 On ch=3 n=76 v=95
16176 On ch=3 n=76 v=0
16176 On ch=3 n=72 v=95
16200 On ch=3 n=72 v=0
16200 On ch=3 n=71 v=95
16216 On ch=3 n=71 v=0
16320 On ch=3 n=62 v=79
16320 On ch=3 n=59 v=79
16320 On ch=3 n=56 v=79
16320 On ch=3 n=66 v=79
16336 On ch=3 n=66 v=0
16336 On ch=3 n=62 v=0
16336 On ch=3 n=59 v=0
16336 On ch=3 n=56 v=0
16368 On ch=3 n=62 v=79
16368 On ch=3 n=59 v=79
16368 On ch=3 n=56 v=79
16368 On ch=3 n=66 v=79
16384 On ch=3 n=66 v=0
16384 On ch=3 n=62 v=0
16384 On ch=3 n=59 v=0
16384 On ch=3 n=56 v=0
16416 On ch=3 n=62 v=79
16416 On ch=3 n=59 v=79
16416 On ch=3 n=56 v=79
16416 On ch=3 n=66 v=79
16432 On ch=3 n=66 v=0
16432 On ch=3 n=62 v=0
16432 On ch=3 n=59 v=0
16432 On ch=3 n=56 v=0
16464 On ch=3 n=62 v=79
16464 On ch=3 n=59 v=79
16464 On ch=3 n=56 v=79
16464 On ch=3 n=66 v=79
16480 On ch=3 n=66 v=0
16480 On ch=3 n=62 v=0
16480 On ch=3 n=59 v=0
16480 On ch=3 n=56 v=0
16512 On ch=3 n=62 v=79
16512 On ch=3 n=59 v=79
16512 On ch=3 n=56 v=79
16512 On ch=3 n=66 v=79
16528 On ch=3 n=66 v=0
16528 On ch=3 n=62 v=0
16528 On ch=3 n=59 v=0
16528 On ch=3 n=56 v=0
16560 On ch=3 n=62 v=79
16560 On ch=3 n=59 v=79
16560 On ch=3 n=56 v=79
16560 On ch=3 n=66 v=79
16576 On ch=3 n=66 v=0
16576 On ch=3 n=62 v=0
16576 On ch=3 n=59 v=0
16576 On ch=3 n=56 v=0
16608 On ch=3 n=62 v=79
16608 On ch=3 n=59 v=79
16608 On ch=3 n=56 v=79
16608 On ch=3 n=66 v=79
16624 On ch=3 n=66 v=0
16624 On ch=3 n=62 v=0
16624 On ch=3 n=59 v=0
16624 On ch=3 n=56 v=0
16656 On ch=3 n=62 v=79
16656 On ch=3 n=59 v=79
16656 On ch=3 n=56 v=79
16656 On ch=3 n=66 v=79
16672 On ch=3 n=66 v=0
16672 On ch=3 n=62 v=0
16672 On ch=3 n=59 v=0
16672 On ch=3 n=56 v=0
16704 On ch=3 n=62 v=79
16704 On ch=3 n=59 v=79
16704 On ch=3 n=56 v=79
16704 On ch=3 n=66 v=79
16720 On ch=3 n=66 v=0
16720 On ch=3 n=62 v=0
16720 On ch=3 n=59 v=0
16720 On ch=3 n=56 v=0
16752 On ch=3 n=62 v=79
16752 On ch=3 n=59 v=79
16752 On ch=3 n=56 v=79
16752 On ch=3 n=66 v=79
16768 On ch=3 n=66 v=0
16768 On ch=3 n=62 v=0
16768 On ch=3 n=59 v=0
16768 On ch=3 n=56 v=0
16800 On ch=3 n=62 v=79
16800 On ch=3 n=59 v=79
16800 On ch=3 n=56 v=79
16800 On ch=3 n=66 v=79
16816 On ch=3 n=66 v=0
16816 On ch=3 n=62 v=0
16816 On ch=3 n=59 v=0
16816 On ch=3 n=56 v=0
16848 On ch=3 n=62 v=79
16848 On ch=3 n=59 v=79
16848 On ch=3 n=56 v=79
16848 On ch=3 n=66 v=79
16864 On ch=3 n=66 v=0
16864 On ch=3 n=62 v=0
16864 On ch=3 n=59 v=0
16864 On ch=3 n=56 v=0
16896 On ch=3 n=62 v=79
16896 On ch=3 n=59 v=79
16896 On ch=3 n=56 v=79
16896 On ch=3 n=66 v=79
16912 On ch=3 n=66 v=0
16912 On ch=3 n=62 v=0
16912 On ch=3 n=59 v=0
16912 On ch=3 n=56 v=0
16944 On ch=3 n=62 v=79
16944 On ch=3 n=59 v=79
16944 On ch=3 n=56 v=79
16944 On ch=3 n=66 v=79
16960 On ch=3 n=66 v=0
16960 On ch=3 n=62 v=0
16960 On ch=3 n=59 v=0
16960 On ch=3 n=56 v=0
16992 On ch=3 n=62 v=79
16992 On ch=3 n=59 v=79
16992 On ch=3 n=56 v=79
16992 On ch=3 n=66 v=79
17008 On ch=3 n=66 v=0
17008 On ch=3 n=62 v=0
17008 On ch=3 n=59 v=0
17008 On ch=3 n=56 v=0
17040 On ch=3 n=62 v=79
17040 On ch=3 n=59 v=79
17040 On ch=3 n=56 v=79
17040 On ch=3 n=66 v=79
17056 On ch=3 n=66 v=0
17056 On ch=3 n=62 v=0
17056 On ch=3 n=59 v=0
17056 On ch=3 n=56 v=0
17088 On ch=3 n=62 v=79
17088 On ch=3 n=59 v=79
17088 On ch=3 n=56 v=79
17088 On ch=3 n=66 v=79
17104 On ch=3 n=66 v=0
17104 On ch=3 n=62 v=0
17104 On ch=3 n=59 v=0
17104 On ch=3 n=56 v=0
17136 On ch=3 n=62 v=79
17136 On ch=3 n=59 v=79
17136 On ch=3 n=56 v=79
17136 On ch=3 n=66 v=79
17152 On ch=3 n=66 v=0
17152 On ch=3 n=62 v=0
17152 On ch=3 n=59 v=0
17152 On ch=3 n=56 v=0
17184 On ch=3 n=62 v=79
17184 On ch=3 n=59 v=79
17184 On ch=3 n=56 v=79
17184 On ch=3 n=66 v=79
17200 On ch=3 n=66 v=0
17200 On ch=3 n=62 v=0
17200 On ch=3 n=59 v=0
17200 On ch=3 n=56 v=0
17232 On ch=3 n=62 v=79
17232 On ch=3 n=59 v=79
17232 On ch=3 n=56 v=79
17232 On ch=3 n=66 v=79
17248 On ch=3 n=66 v=0
17248 On ch=3 n=62 v=0
17248 On ch=3 n=59 v=0
17248 On ch=3 n=56 v=0
17280 On ch=3 n=62 v=79
17280 On ch=3 n=59 v=79
17280 On ch=3 n=56 v=79
17280 On ch=3 n=66 v=79
17296 On ch=3 n=66 v=0
17296 On ch=3 n=62 v=0
17296 On ch=3 n=59 v=0
17296 On ch=3 n=56 v=0
17328 On ch=3 n=62 v=79
17328 On ch=3 n=59 v=79
17328 On ch=3 n=56 v=79
17328 On ch=3 n=66 v=79
17344 On ch=3 n=66 v=0
17344 On ch=3 n=62 v=0
17344 On ch=3 n=59 v=0
17344 On ch=3 n=56 v=0
17376 On ch=3 n=62 v=79
17376 On ch=3 n=59 v=79
17376 On ch=3 n=56 v=79
17376 On ch=3 n=66 v=79
17392 On ch=3 n=66 v=0
17392 On ch=3 n=62 v=0
17392 On ch=3 n=59 v=0
17392 On ch=3 n=56 v=0
17424 On ch=3 n=62 v=79
17424 On ch=3 n=59 v=79
17424 On ch=3 n=56 v=79
17424 On ch=3 n=66 v=79
17440 On ch=3 n=66 v=0
17440 On ch=3 n=62 v=0
17440 On ch=3 n=59 v=0
17440 On ch=3 n=56 v=0
17472 On ch=3 n=56 v=79
17472 On ch=3 n=61 v=79
17472 On ch=3 n=59 v=79
17472 On ch=3 n=66 v=79
17488 On ch=3 n=66 v=0
17488 On ch=3 n=56 v=0
17488 On ch=3 n=61 v=0
17488 On ch=3 n=59 v=0
17520 On ch=3 n=61 v=79
17520 On ch=3 n=56 v=79
17520 On ch=3 n=59 v=79
17520 On ch=3 n=66 v=79
17536 On ch=3 n=66 v=0
17536 On ch=3 n=61 v=0
17536 On ch=3 n=56 v=0
17536 On ch=3 n=59 v=0
17568 On ch=3 n=56 v=79
17568 On ch=3 n=61 v=79
17568 On ch=3 n=59 v=79
17568 On ch=3 n=66 v=79
17584 On ch=3 n=66 v=0
17584 On ch=3 n=56 v=0
17584 On ch=3 n=61 v=0
17584 On ch=3 n=59 v=0
17616 On ch=3 n=61 v=79
17616 On ch=3 n=56 v=79
17616 On ch=3 n=59 v=79
17616 On ch=3 n=66 v=79
17632 On ch=3 n=66 v=0
17632 On ch=3 n=61 v=0
17632 On ch=3 n=56 v=0
17632 On ch=3 n=59 v=0
17664 On ch=3 n=61 v=79
17664 On ch=3 n=56 v=79
17664 On ch=3 n=59 v=79
17664 On ch=3 n=66 v=79
17680 On ch=3 n=66 v=0
17680 On ch=3 n=61 v=0
17680 On ch=3 n=56 v=0
17680 On ch=3 n=59 v=0
17712 On ch=3 n=61 v=79
17712 On ch=3 n=56 v=79
17712 On ch=3 n=59 v=79
17712 On ch=3 n=66 v=79
17728 On ch=3 n=66 v=0
17728 On ch=3 n=61 v=0
17728 On ch=3 n=56 v=0
17728 On ch=3 n=59 v=0
17760 On ch=3 n=61 v=79
17760 On ch=3 n=56 v=79
17760 On ch=3 n=59 v=79
17760 On ch=3 n=66 v=79
17776 On ch=3 n=66 v=0
17776 On ch=3 n=61 v=0
17776 On ch=3 n=56 v=0
17776 On ch=3 n=59 v=0
17808 On ch=3 n=61 v=79
17808 On ch=3 n=56 v=79
17808 On ch=3 n=59 v=79
17808 On ch=3 n=66 v=79
17824 On ch=3 n=66 v=0
17824 On ch=3 n=61 v=0
17824 On ch=3 n=56 v=0
17824 On ch=3 n=59 v=0
17856 On ch=3 n=62 v=79
17856 On ch=3 n=59 v=79
17856 On ch=3 n=66 v=79
17872 On ch=3 n=66 v=0
17872 On ch=3 n=59 v=0
17872 On ch=3 n=62 v=0
17904 On ch=3 n=62 v=79
17904 On ch=3 n=59 v=79
17904 On ch=3 n=66 v=79
17920 On ch=3 n=66 v=0
17920 On ch=3 n=59 v=0
17920 On ch=3 n=62 v=0
17952 On ch=3 n=62 v=79
17952 On ch=3 n=59 v=79
17952 On ch=3 n=66 v=79
17968 On ch=3 n=66 v=0
17968 On ch=3 n=59 v=0
17968 On ch=3 n=62 v=0
18000 On ch=3 n=62 v=79
18000 On ch=3 n=59 v=79
18000 On ch=3 n=66 v=79
18016 On ch=3 n=66 v=0
18016 On ch=3 n=59 v=0
18016 On ch=3 n=62 v=0
18048 On ch=3 n=62 v=79
18048 On ch=3 n=59 v=79
18048 On ch=3 n=66 v=79
18064 On ch=3 n=66 v=0
18064 On ch=3 n=59 v=0
18064 On ch=3 n=62 v=0
18096 On ch=3 n=62 v=79
18096 On ch=3 n=59 v=79
18096 On ch=3 n=66 v=79
18112 On ch=3 n=66 v=0
18112 On ch=3 n=59 v=0
18112 On ch=3 n=62 v=0
18144 On ch=3 n=62 v=79
18144 On ch=3 n=59 v=79
18144 On ch=3 n=66 v=79
18160 On ch=3 n=66 v=0
18160 On ch=3 n=59 v=0
18160 On ch=3 n=62 v=0
18192 On ch=3 n=62 v=79
18192 On ch=3 n=59 v=79
18192 On ch=3 n=66 v=79
18208 On ch=3 n=66 v=0
18208 On ch=3 n=59 v=0
18208 On ch=3 n=62 v=0
18240 On ch=3 n=62 v=79
18240 On ch=3 n=59 v=79
18240 On ch=3 n=66 v=79
18256 On ch=3 n=66 v=0
18256 On ch=3 n=59 v=0
18256 On ch=3 n=62 v=0
18288 On ch=3 n=62 v=79
18288 On ch=3 n=59 v=79
18288 On ch=3 n=66 v=79
18304 On ch=3 n=66 v=0
18304 On ch=3 n=59 v=0
18304 On ch=3 n=62 v=0
18336 On ch=3 n=62 v=79
18336 On ch=3 n=59 v=79
18336 On ch=3 n=66 v=79
18352 On ch=3 n=66 v=0
18352 On ch=3 n=59 v=0
18352 On ch=3 n=62 v=0
18384 On ch=3 n=62 v=79
18384 On ch=3 n=59 v=79
18384 On ch=3 n=66 v=79
18400 On ch=3 n=66 v=0
18400 On ch=3 n=59 v=0
18400 On ch=3 n=62 v=0
18432 On ch=3 n=62 v=79
18432 On ch=3 n=59 v=79
18432 On ch=3 n=66 v=79
18448 On ch=3 n=66 v=0
18448 On ch=3 n=59 v=0
18448 On ch=3 n=62 v=0
18480 On ch=3 n=62 v=79
18480 On ch=3 n=59 v=79
18480 On ch=3 n=66 v=79
18496 On ch=3 n=66 v=0
18496 On ch=3 n=59 v=0
18496 On ch=3 n=62 v=0
18528 On ch=3 n=62 v=79
18528 On ch=3 n=59 v=79
18528 On ch=3 n=66 v=79
18544 On ch=3 n=66 v=0
18544 On ch=3 n=59 v=0
18544 On ch=3 n=62 v=0
18576 On ch=3 n=62 v=79
18576 On ch=3 n=59 v=79
18576 On ch=3 n=66 v=79
18592 On ch=3 n=66 v=0
18592 On ch=3 n=59 v=0
18592 On ch=3 n=62 v=0
18624 On ch=3 n=62 v=79
18624 On ch=3 n=59 v=79
18624 On ch=3 n=66 v=79
18640 On ch=3 n=66 v=0
18640 On ch=3 n=59 v=0
18640 On ch=3 n=62 v=0
18672 On ch=3 n=62 v=79
18672 On ch=3 n=59 v=79
18672 On ch=3 n=66 v=79
18688 On ch=3 n=66 v=0
18688 On ch=3 n=59 v=0
18688 On ch=3 n=62 v=0
18720 On ch=3 n=62 v=79
18720 On ch=3 n=59 v=79
18720 On ch=3 n=66 v=79
18736 On ch=3 n=66 v=0
18736 On ch=3 n=59 v=0
18736 On ch=3 n=62 v=0
18768 On ch=3 n=62 v=79
18768 On ch=3 n=59 v=79
18768 On ch=3 n=66 v=79
18784 On ch=3 n=66 v=0
18784 On ch=3 n=59 v=0
18784 On ch=3 n=62 v=0
18816 On ch=3 n=62 v=79
18816 On ch=3 n=59 v=79
18816 On ch=3 n=66 v=79
18832 On ch=3 n=66 v=0
18832 On ch=3 n=59 v=0
18832 On ch=3 n=62 v=0
18864 On ch=3 n=62 v=79
18864 On ch=3 n=59 v=79
18864 On ch=3 n=66 v=79
18880 On ch=3 n=66 v=0
18880 On ch=3 n=59 v=0
18880 On ch=3 n=62 v=0
18912 On ch=3 n=62 v=79
18912 On ch=3 n=59 v=79
18912 On ch=3 n=66 v=79
18928 On ch=3 n=66 v=0
18928 On ch=3 n=59 v=0
18928 On ch=3 n=62 v=0
18960 On ch=3 n=62 v=79
18960 On ch=3 n=59 v=79
18960 On ch=3 n=66 v=79
18976 On ch=3 n=66 v=0
18976 On ch=3 n=59 v=0
18976 On ch=3 n=62 v=0
19008 On ch=3 n=62 v=79
19008 On ch=3 n=59 v=79
19008 On ch=3 n=67 v=79
19024 On ch=3 n=67 v=0
19024 On ch=3 n=59 v=0
19024 On ch=3 n=62 v=0
19056 On ch=3 n=62 v=79
19056 On ch=3 n=59 v=79
19056 On ch=3 n=67 v=79
19072 On ch=3 n=67 v=0
19072 On ch=3 n=59 v=0
19072 On ch=3 n=62 v=0
19104 On ch=3 n=62 v=79
19104 On ch=3 n=59 v=79
19104 On ch=3 n=67 v=79
19120 On ch=3 n=67 v=0
19120 On ch=3 n=59 v=0
19120 On ch=3 n=62 v=0
19152 On ch=3 n=62 v=79
19152 On ch=3 n=59 v=79
19152 On ch=3 n=67 v=79
19168 On ch=3 n=67 v=0
19168 On ch=3 n=59 v=0
19168 On ch=3 n=62 v=0
19200 On ch=3 n=62 v=79
19200 On ch=3 n=59 v=79
19200 On ch=3 n=67 v=79
19216 On ch=3 n=67 v=0
19216 On ch=3 n=59 v=0
19216 On ch=3 n=62 v=0
19248 On ch=3 n=62 v=79
19248 On ch=3 n=59 v=79
19248 On ch=3 n=67 v=79
19264 On ch=3 n=67 v=0
19264 On ch=3 n=59 v=0
19264 On ch=3 n=62 v=0
19296 On ch=3 n=62 v=79
19296 On ch=3 n=59 v=79
19296 On ch=3 n=67 v=79
19312 On ch=3 n=67 v=0
19312 On ch=3 n=59 v=0
19312 On ch=3 n=62 v=0
19344 On ch=3 n=62 v=79
19344 On ch=3 n=59 v=79
19344 On ch=3 n=67 v=79
19360 On ch=3 n=67 v=0
19360 On ch=3 n=59 v=0
19360 On ch=3 n=62 v=0
19392 On ch=3 n=62 v=79
19392 On ch=3 n=59 v=79
19392 On ch=3 n=67 v=79
19408 On ch=3 n=67 v=0
19408 On ch=3 n=59 v=0
19408 On ch=3 n=62 v=0
19440 On ch=3 n=62 v=79
19440 On ch=3 n=59 v=79
19440 On ch=3 n=67 v=79
19456 On ch=3 n=67 v=0
19456 On ch=3 n=59 v=0
19456 On ch=3 n=62 v=0
19488 On ch=3 n=62 v=79
19488 On ch=3 n=59 v=79
19488 On ch=3 n=67 v=79
19504 On ch=3 n=67 v=0
19504 On ch=3 n=59 v=0
19504 On ch=3 n=62 v=0
19536 On ch=3 n=62 v=79
19536 On ch=3 n=59 v=79
19536 On ch=3 n=67 v=79
19552 On ch=3 n=67 v=0
19552 On ch=3 n=59 v=0
19552 On ch=3 n=62 v=0
19584 On ch=3 n=62 v=79
19584 On ch=3 n=59 v=79
19584 On ch=3 n=67 v=79
19600 On ch=3 n=67 v=0
19600 On ch=3 n=59 v=0
19600 On ch=3 n=62 v=0
19632 On ch=3 n=62 v=79
19632 On ch=3 n=59 v=79
19632 On ch=3 n=67 v=79
19648 On ch=3 n=67 v=0
19648 On ch=3 n=59 v=0
19648 On ch=3 n=62 v=0
19680 On ch=3 n=62 v=79
19680 On ch=3 n=59 v=79
19680 On ch=3 n=67 v=79
19704 On ch=3 n=67 v=0
19704 On ch=3 n=59 v=0
19704 On ch=3 n=62 v=0
19752 On ch=3 n=65 v=95
19776 On ch=3 n=65 v=0
19776 On ch=3 n=64 v=95
19800 On ch=3 n=64 v=0
19800 On ch=3 n=67 v=95
19824 On ch=3 n=67 v=0
19824 On ch=3 n=69 v=95
19848 On ch=3 n=69 v=0
19848 On ch=3 n=74 v=95
19872 On ch=3 n=74 v=0
19872 On ch=3 n=79 v=95
19888 On ch=3 n=79 v=0
19920 On ch=3 n=77 v=95
19944 On ch=3 n=77 v=0
19944 On ch=3 n=76 v=95
19968 On ch=3 n=76 v=0
19968 On ch=3 n=72 v=95
19992 On ch=3 n=72 v=0
19992 On ch=3 n=67 v=95
20112 On ch=3 n=67 v=0
20136 On ch=3 n=65 v=95
20160 On ch=3 n=65 v=0
20160 On ch=3 n=64 v=95
20184 On ch=3 n=64 v=0
20184 On ch=3 n=67 v=95
20208 On ch=3 n=67 v=0
20208 On ch=3 n=69 v=95
20232 On ch=3 n=69 v=0
20232 On ch=3 n=74 v=95
20256 On ch=3 n=74 v=0
20256 On ch=3 n=79 v=95
20272 On ch=3 n=79 v=0
20304 On ch=3 n=77 v=95
20328 On ch=3 n=77 v=0
20328 On ch=3 n=76 v=95
20352 On ch=3 n=76 v=0
20352 On ch=3 n=72 v=95
20376 On ch=3 n=72 v=0
20376 On ch=3 n=67 v=95
20496 On ch=3 n=67 v=0
20520 On ch=3 n=65 v=95
20544 On ch=3 n=65 v=0
20544 On ch=3 n=64 v=95
20568 On ch=3 n=64 v=0
20568 On ch=3 n=67 v=95
20592 On ch=3 n=67 v=0
20592 On ch=3 n=69 v=95
20616 On ch=3 n=69 v=0
20616 On ch=3 n=74 v=95
20640 On ch=3 n=74 v=0
20640 On ch=3 n=79 v=95
20656 On ch=3 n=79 v=0
20688 On ch=3 n=77 v=95
20712 On ch=3 n=77 v=0
20712 On ch=3 n=76 v=95
20736 On ch=3 n=76 v=0
20736 On ch=3 n=72 v=95
20760 On ch=3 n=72 v=0
20760 On ch=3 n=67 v=95
20880 On ch=3 n=67 v=0
20904 On ch=3 n=63 v=95
20928 On ch=3 n=63 v=0
20928 On ch=3 n=62 v=95
20952 On ch=3 n=62 v=0
20952 On ch=3 n=65 v=95
20976 On ch=3 n=65 v=0
20976 On ch=3 n=67 v=95
21000 On ch=3 n=67 v=0
21000 On ch=3 n=72 v=95
21024 On ch=3 n=72 v=0
21024 On ch=3 n=77 v=95
21040 On ch=3 n=77 v=0
21072 On ch=3 n=75 v=95
21096 On ch=3 n=75 v=0
21096 On ch=3 n=74 v=95
21120 On ch=3 n=74 v=0
21120 On ch=3 n=70 v=95
21144 On ch=3 n=70 v=0
21144 On ch=3 n=65 v=95
21192 On ch=3 n=65 v=0
21216 On ch=3 n=65 v=95
21232 On ch=3 n=65 v=0
21240 On ch=3 n=65 v=95
21272 On ch=3 n=65 v=0
21288 On ch=3 n=63 v=95
21312 On ch=3 n=63 v=0
21312 On ch=3 n=62 v=79
21336 On ch=3 n=62 v=0
21336 On ch=3 n=65 v=79
21360 On ch=3 n=65 v=0
21360 On ch=3 n=67 v=79
21384 On ch=3 n=67 v=0
21384 On ch=3 n=72 v=79
21408 On ch=3 n=72 v=0
21408 On ch=3 n=77 v=79
21424 On ch=3 n=77 v=0
21456 On ch=3 n=75 v=79
21480 On ch=3 n=75 v=0
21480 On ch=3 n=74 v=79
21504 On ch=3 n=74 v=0
21504 On ch=3 n=70 v=79
21528 On ch=3 n=70 v=0
21528 On ch=3 n=65 v=79
21648 On ch=3 n=65 v=0
21672 On ch=3 n=72 v=79
21696 On ch=3 n=72 v=0
21696 On ch=3 n=71 v=79
21720 On ch=3 n=71 v=0
21720 On ch=3 n=67 v=79
21744 On ch=3 n=67 v=0
21744 On ch=3 n=64 v=79
21760 On ch=3 n=64 v=0
21768 On ch=3 n=74 v=79
21792 On ch=3 n=74 v=0
21792 On ch=3 n=73 v=79
21816 On ch=3 n=73 v=0
21816 On ch=3 n=69 v=79
21840 On ch=3 n=69 v=0
21840 On ch=3 n=66 v=79
21856 On ch=3 n=66 v=0
21864 On ch=3 n=76 v=79
21888 On ch=3 n=76 v=0
21888 On ch=3 n=75 v=79
21912 On ch=3 n=75 v=0
21912 On ch=3 n=73 v=79
21928 On ch=3 n=73 v=0
21936 On ch=3 n=75 v=79
21968 On ch=3 n=75 v=0
21984 On ch=3 n=68 v=79
21984 On ch=3 n=71 v=79
21984 On ch=3 n=76 v=79
22334 On ch=3 n=76 v=0
22334 On ch=3 n=71 v=0
22334 On ch=3 n=68 v=0
22334 Meta TrkEnd
TrkEnd
MTrk
0 Meta 0x21 00
0 Meta TrkName "Bass"
0 Par ch=4 c=0 v=0
0 PrCh ch=4 p=33
0 Par ch=4 c=7 v=96
196 Par ch=4 c=0 v=0
196 PrCh ch=4 p=33
198 Par ch=4 c=1 v=0
200 Par ch=4 c=7 v=96
202 Par ch=4 c=10 v=64
204 Par ch=4 c=11 v=127
206 Par ch=4 c=64 v=0
208 Par ch=4 c=91 v=64
210 Par ch=4 c=93 v=0
212 Pb ch=4 v=8192
480 Par ch=4 c=91 v=64
672 On ch=4 n=40 v=79
696 On ch=4 n=40 v=0
696 On ch=4 n=42 v=79
720 On ch=4 n=42 v=0
720 On ch=4 n=45 v=79
744 On ch=4 n=45 v=0
744 On ch=4 n=47 v=79
760 On ch=4 n=47 v=0
768 On ch=4 n=40 v=79
832 On ch=4 n=40 v=0
1056 On ch=4 n=40 v=79
1080 On ch=4 n=40 v=0
1080 On ch=4 n=42 v=79
1104 On ch=4 n=42 v=0
1104 On ch=4 n=45 v=79
1128 On ch=4 n=45 v=0
1128 On ch=4 n=47 v=79
1144 On ch=4 n=47 v=0
1440 On ch=4 n=40 v=79
1464 On ch=4 n=40 v=0
1464 On ch=4 n=42 v=79
1488 On ch=4 n=42 v=0
1488 On ch=4 n=45 v=79
1512 On ch=4 n=45 v=0
1512 On ch=4 n=47 v=79
1528 On ch=4 n=47 v=0
1536 On ch=4 n=40 v=79
1600 On ch=4 n=40 v=0
1824 On ch=4 n=40 v=79
1848 On ch=4 n=40 v=0
1848 On ch=4 n=42 v=79
1872 On ch=4 n=42 v=0
1872 On ch=4 n=45 v=79
1896 On ch=4 n=45 v=0
1896 On ch=4 n=47 v=79
1912 On ch=4 n=47 v=0
2208 On ch=4 n=40 v=79
2232 On ch=4 n=40 v=0
2232 On ch=4 n=42 v=79
2256 On ch=4 n=42 v=0
2256 On ch=4 n=45 v=79
2280 On ch=4 n=45 v=0
2280 On ch=4 n=47 v=79
2296 On ch=4 n=47 v=0
2592 On ch=4 n=40 v=79
2616 On ch=4 n=40 v=0
2616 On ch=4 n=42 v=79
2640 On ch=4 n=42 v=0
2640 On ch=4 n=45 v=79
2664 On ch=4 n=45 v=0
2664 On ch=4 n=47 v=79
2680 On ch=4 n=47 v=0
2976 On ch=4 n=40 v=79
3000 On ch=4 n=40 v=0
3000 On ch=4 n=42 v=79
3024 On ch=4 n=42 v=0
3024 On ch=4 n=45 v=79
3048 On ch=4 n=45 v=0
3048 On ch=4 n=47 v=79
3064 On ch=4 n=47 v=0
3360 On ch=4 n=40 v=79
3384 On ch=4 n=40 v=0
3384 On ch=4 n=42 v=79
3408 On ch=4 n=42 v=0
3408 On ch=4 n=45 v=79
3432 On ch=4 n=45 v=0
3432 On ch=4 n=47 v=79
3448 On ch=4 n=47 v=0
3744 On ch=4 n=38 v=79
3768 On ch=4 n=38 v=0
3768 On ch=4 n=40 v=79
3792 On ch=4 n=40 v=0
3792 On ch=4 n=43 v=79
3824 On ch=4 n=43 v=0
4080 On ch=4 n=38 v=79
4104 On ch=4 n=38 v=0
4104 On ch=4 n=40 v=79
4128 On ch=4 n=40 v=0
4128 On ch=4 n=43 v=79
4152 On ch=4 n=43 v=0
4152 On ch=4 n=45 v=79
4176 On ch=4 n=45 v=0
4176 On ch=4 n=33 v=79
4200 On ch=4 n=33 v=0
4200 On ch=4 n=35 v=79
4216 On ch=4 n=35 v=0
4224 On ch=4 n=36 v=79
4256 On ch=4 n=36 v=0
4272 On ch=4 n=36 v=79
4304 On ch=4 n=36 v=0
4320 On ch=4 n=36 v=79
4352 On ch=4 n=36 v=0
4368 On ch=4 n=36 v=79
4400 On ch=4 n=36 v=0
4416 On ch=4 n=36 v=79
4448 On ch=4 n=36 v=0
4464 On ch=4 n=36 v=79
4496 On ch=4 n=36 v=0
4512 On ch=4 n=36 v=79
4544 On ch=4 n=36 v=0
4560 On ch=4 n=33 v=79
4704 On ch=4 n=33 v=0
4752 On ch=4 n=57 v=79
4784 On ch=4 n=57 v=0
4800 On ch=4 n=55 v=79
4832 On ch=4 n=55 v=0
4848 On ch=4 n=55 v=79
4880 On ch=4 n=55 v=0
4896 On ch=4 n=55 v=79
4928 On ch=4 n=55 v=0
4944 On ch=4 n=53 v=79
5118 On ch=4 n=53 v=0
5184 On ch=4 n=52 v=79
5216 On ch=4 n=52 v=0
5232 On ch=4 n=36 v=79
5312 On ch=4 n=36 v=0
5328 On ch=4 n=46 v=79
5502 On ch=4 n=46 v=0
5568 On ch=4 n=46 v=79
5584 On ch=4 n=46 v=0
5592 On ch=4 n=45 v=79
5608 On ch=4 n=45 v=0
5616 On ch=4 n=43 v=79
5632 On ch=4 n=43 v=0
5640 On ch=4 n=41 v=79
5656 On ch=4 n=41 v=0
5664 On ch=4 n=39 v=79
5680 On ch=4 n=39 v=0
5688 On ch=4 n=38 v=79
5704 On ch=4 n=38 v=0
5712 On ch=4 n=36 v=79
5728 On ch=4 n=36 v=0
5736 On ch=4 n=34 v=79
5984 On ch=4 n=34 v=0
6048 On ch=4 n=40 v=79
6072 On ch=4 n=42 v=79
6096 On ch=4 n=40 v=0
6096 On ch=4 n=45 v=79
6120 On ch=4 n=42 v=0
6120 On ch=4 n=47 v=79
6136 On ch=4 n=47 v=0
6144 On ch=4 n=45 v=0
6144 On ch=4 n=40 v=79
6208 On ch=4 n=40 v=0
6432 On ch=4 n=40 v=79
6456 On ch=4 n=40 v=0
6456 On ch=4 n=42 v=79
6480 On ch=4 n=42 v=0
6480 On ch=4 n=45 v=79
6504 On ch=4 n=45 v=0
6504 On ch=4 n=47 v=79
6520 On ch=4 n=47 v=0
6816 On ch=4 n=40 v=79
6840 On ch=4 n=40 v=0
6840 On ch=4 n=42 v=79
6864 On ch=4 n=42 v=0
6864 On ch=4 n=45 v=79
6888 On ch=4 n=45 v=0
6888 On ch=4 n=47 v=79
6904 On ch=4 n=47 v=0
7200 On ch=4 n=40 v=79
7224 On ch=4 n=40 v=0
7224 On ch=4 n=42 v=79
7248 On ch=4 n=42 v=0
7248 On ch=4 n=45 v=79
7272 On ch=4 n=45 v=0
7272 On ch=4 n=47 v=79
7288 On ch=4 n=47 v=0
7296 On ch=4 n=40 v=79
7360 On ch=4 n=40 v=0
7584 On ch=4 n=40 v=79
7608 On ch=4 n=40 v=0
7608 On ch=4 n=42 v=79
7632 On ch=4 n=42 v=0
7632 On ch=4 n=45 v=79
7656 On ch=4 n=45 v=0
7656 On ch=4 n=47 v=79
7672 On ch=4 n=47 v=0
7968 On ch=4 n=40 v=79
7992 On ch=4 n=40 v=0
7992 On ch=4 n=42 v=79
8016 On ch=4 n=42 v=0
8016 On ch=4 n=45 v=79
8040 On ch=4 n=45 v=0
8040 On ch=4 n=47 v=79
8056 On ch=4 n=47 v=0
8352 On ch=4 n=40 v=79
8376 On ch=4 n=40 v=0
8376 On ch=4 n=42 v=79
8400 On ch=4 n=42 v=0
8400 On ch=4 n=45 v=79
8424 On ch=4 n=45 v=0
8424 On ch=4 n=47 v=79
8440 On ch=4 n=47 v=0
8736 On ch=4 n=40 v=79
8760 On ch=4 n=40 v=0
8760 On ch=4 n=42 v=79
8784 On ch=4 n=42 v=0
8784 On ch=4 n=45 v=79
8808 On ch=4 n=45 v=0
8808 On ch=4 n=47 v=79
8824 On ch=4 n=47 v=0
9120 On ch=4 n=38 v=79
9144 On ch=4 n=38 v=0
9144 On ch=4 n=40 v=79
9168 On ch=4 n=40 v=0
9168 On ch=4 n=43 v=79
9200 On ch=4 n=43 v=0
9456 On ch=4 n=38 v=79
9480 On ch=4 n=38 v=0
9480 On ch=4 n=40 v=79
9504 On ch=4 n=40 v=0
9504 On ch=4 n=43 v=79
9528 On ch=4 n=43 v=0
9528 On ch=4 n=45 v=79
9552 On ch=4 n=45 v=0
9552 On ch=4 n=33 v=79
9576 On ch=4 n=33 v=0
9576 On ch=4 n=35 v=79
9592 On ch=4 n=35 v=0
9600 On ch=4 n=36 v=79
9632 On ch=4 n=36 v=0
9648 On ch=4 n=36 v=79
9680 On ch=4 n=36 v=0
9696 On ch=4 n=36 v=79
9728 On ch=4 n=36 v=0
9744 On ch=4 n=36 v=79
9776 On ch=4 n=36 v=0
9792 On ch=4 n=35 v=79
9824 On ch=4 n=35 v=0
9840 On ch=4 n=35 v=79
9872 On ch=4 n=35 v=0
9888 On ch=4 n=35 v=79
9920 On ch=4 n=35 v=0
9936 On ch=4 n=35 v=79
9968 On ch=4 n=35 v=0
9984 On ch=4 n=33 v=79
10016 On ch=4 n=33 v=0
10032 On ch=4 n=33 v=79
10064 On ch=4 n=33 v=0
10080 On ch=4 n=33 v=79
10112 On ch=4 n=33 v=0
10128 On ch=4 n=33 v=79
10160 On ch=4 n=33 v=0
10176 On ch=4 n=55 v=79
10208 On ch=4 n=55 v=0
10224 On ch=4 n=55 v=79
10256 On ch=4 n=55 v=0
10272 On ch=4 n=55 v=79
10304 On ch=4 n=55 v=0
10320 On ch=4 n=55 v=79
10352 On ch=4 n=55 v=0
10368 On ch=4 n=53 v=79
10400 On ch=4 n=53 v=0
10416 On ch=4 n=53 v=79
10448 On ch=4 n=53 v=0
10464 On ch=4 n=53 v=79
10496 On ch=4 n=53 v=0
10512 On ch=4 n=53 v=79
10544 On ch=4 n=53 v=0
10560 On ch=4 n=52 v=79
10592 On ch=4 n=52 v=0
10608 On ch=4 n=36 v=79
10640 On ch=4 n=36 v=0
10656 On ch=4 n=36 v=79
10688 On ch=4 n=36 v=0
10704 On ch=4 n=48 v=79
10736 On ch=4 n=48 v=0
10752 On ch=4 n=46 v=79
10878 On ch=4 n=46 v=0
10944 On ch=4 n=46 v=79
10960 On ch=4 n=46 v=0
10968 On ch=4 n=45 v=79
10984 On ch=4 n=45 v=0
10992 On ch=4 n=43 v=79
11008 On ch=4 n=43 v=0
11016 On ch=4 n=41 v=79
11032 On ch=4 n=41 v=0
11040 On ch=4 n=39 v=79
11056 On ch=4 n=39 v=0
11064 On ch=4 n=38 v=79
11080 On ch=4 n=38 v=0
11088 On ch=4 n=36 v=79
11104 On ch=4 n=36 v=0
11112 On ch=4 n=34 v=79
11360 On ch=4 n=34 v=0
11424 On ch=4 n=40 v=79
11448 On ch=4 n=40 v=0
11448 On ch=4 n=42 v=79
11472 On ch=4 n=42 v=0
11472 On ch=4 n=45 v=79
11496 On ch=4 n=45 v=0
11496 On ch=4 n=47 v=79
11512 On ch=4 n=47 v=0
11520 On ch=4 n=40 v=79
11584 On ch=4 n=40 v=0
11808 On ch=4 n=40 v=79
11832 On ch=4 n=40 v=0
11832 On ch=4 n=42 v=79
11856 On ch=4 n=42 v=0
11856 On ch=4 n=45 v=79
11880 On ch=4 n=45 v=0
11880 On ch=4 n=47 v=79
11896 On ch=4 n=47 v=0
12192 On ch=4 n=40 v=79
12216 On ch=4 n=40 v=0
12216 On ch=4 n=42 v=79
12240 On ch=4 n=42 v=0
12240 On ch=4 n=45 v=79
12264 On ch=4 n=45 v=0
12264 On ch=4 n=47 v=79
12280 On ch=4 n=47 v=0
12288 On ch=4 n=40 v=79
12352 On ch=4 n=40 v=0
12576 On ch=4 n=40 v=79
12600 On ch=4 n=40 v=0
12600 On ch=4 n=42 v=79
12624 On ch=4 n=42 v=0
12624 On ch=4 n=45 v=79
12648 On ch=4 n=45 v=0
12648 On ch=4 n=47 v=79
12664 On ch=4 n=47 v=0
12960 On ch=4 n=40 v=79
12984 On ch=4 n=40 v=0
12984 On ch=4 n=42 v=79
13008 On ch=4 n=42 v=0
13008 On ch=4 n=45 v=79
13032 On ch=4 n=45 v=0
13032 On ch=4 n=47 v=79
13048 On ch=4 n=47 v=0
13056 On ch=4 n=35 v=79
13168 On ch=4 n=35 v=0
13176 On ch=4 n=34 v=79
13192 On ch=4 n=34 v=0
13200 On ch=4 n=33 v=79
13216 On ch=4 n=33 v=0
13224 On ch=4 n=32 v=79
13240 On ch=4 n=32 v=0
13248 On ch=4 n=31 v=79
13312 On ch=4 n=31 v=0
13344 On ch=4 n=40 v=79
13368 On ch=4 n=40 v=0
13368 On ch=4 n=42 v=79
13392 On ch=4 n=42 v=0
13392 On ch=4 n=45 v=79
13416 On ch=4 n=45 v=0
13416 On ch=4 n=47 v=79
13432 On ch=4 n=47 v=0
13728 On ch=4 n=40 v=79
13752 On ch=4 n=40 v=0
13752 On ch=4 n=42 v=79
13776 On ch=4 n=42 v=0
13776 On ch=4 n=45 v=79
13800 On ch=4 n=45 v=0
13800 On ch=4 n=47 v=79
13816 On ch=4 n=47 v=0
14112 On ch=4 n=40 v=79
14136 On ch=4 n=40 v=0
14136 On ch=4 n=42 v=79
14160 On ch=4 n=42 v=0
14160 On ch=4 n=45 v=79
14184 On ch=4 n=45 v=0
14184 On ch=4 n=47 v=79
14200 On ch=4 n=47 v=0
14256 On ch=4 n=43 v=79
14288 On ch=4 n=43 v=0
14496 On ch=4 n=38 v=79
14520 On ch=4 n=38 v=0
14520 On ch=4 n=40 v=79
14544 On ch=4 n=40 v=0
14544 On ch=4 n=43 v=79
14576 On ch=4 n=43 v=0
14832 On ch=4 n=38 v=79
14856 On ch=4 n=38 v=0
14856 On ch=4 n=40 v=79
14880 On ch=4 n=40 v=0
14880 On ch=4 n=43 v=79
14904 On ch=4 n=43 v=0
14904 On ch=4 n=45 v=79
14928 On ch=4 n=45 v=0
14928 On ch=4 n=33 v=79
14952 On ch=4 n=33 v=0
14952 On ch=4 n=35 v=79
14968 On ch=4 n=35 v=0
14976 On ch=4 n=36 v=79
15000 On ch=4 n=36 v=0
15000 On ch=4 n=35 v=79
15024 On ch=4 n=35 v=0
15024 On ch=4 n=36 v=79
15048 On ch=4 n=36 v=0
15048 On ch=4 n=35 v=79
15064 On ch=4 n=35 v=0
15072 On ch=4 n=41 v=79
15096 On ch=4 n=41 v=0
15096 On ch=4 n=40 v=79
15120 On ch=4 n=40 v=0
15120 On ch=4 n=41 v=79
15144 On ch=4 n=41 v=0
15144 On ch=4 n=40 v=79
15160 On ch=4 n=40 v=0
15168 On ch=4 n=45 v=79
15192 On ch=4 n=45 v=0
15192 On ch=4 n=43 v=79
15216 On ch=4 n=43 v=0
15216 On ch=4 n=45 v=79
15240 On ch=4 n=45 v=0
15240 On ch=4 n=43 v=79
15256 On ch=4 n=43 v=0
15264 On ch=4 n=46 v=79
15288 On ch=4 n=46 v=0
15288 On ch=4 n=47 v=79
15312 On ch=4 n=47 v=0
15312 On ch=4 n=38 v=79
15312 On ch=4 n=48 v=79
15328 On ch=4 n=38 v=0
15336 On ch=4 n=48 v=0
15360 On ch=4 n=36 v=79
15384 On ch=4 n=36 v=0
15384 On ch=4 n=35 v=79
15408 On ch=4 n=35 v=0
15408 On ch=4 n=36 v=79
15432 On ch=4 n=36 v=0
15432 On ch=4 n=35 v=79
15448 On ch=4 n=35 v=0
15456 On ch=4 n=41 v=79
15480 On ch=4 n=41 v=0
15480 On ch=4 n=40 v=79
15504 On ch=4 n=40 v=0
15504 On ch=4 n=41 v=79
15528 On ch=4 n=41 v=0
15528 On ch=4 n=40 v=79
15544 On ch=4 n=40 v=0
15552 On ch=4 n=45 v=79
15576 On ch=4 n=45 v=0
15576 On ch=4 n=43 v=79
15600 On ch=4 n=43 v=0
15600 On ch=4 n=45 v=79
15624 On ch=4 n=45 v=0
15624 On ch=4 n=43 v=79
15640 On ch=4 n=43 v=0
15648 On ch=4 n=46 v=79
15672 On ch=4 n=46 v=0
15672 On ch=4 n=47 v=79
15696 On ch=4 n=47 v=0
15696 On ch=4 n=38 v=79
15696 On ch=4 n=48 v=79
15712 On ch=4 n=38 v=0
15720 On ch=4 n=48 v=0
15744 On ch=4 n=36 v=79
15768 On ch=4 n=36 v=0
15768 On ch=4 n=35 v=79
15792 On ch=4 n=35 v=0
15792 On ch=4 n=36 v=79
15816 On ch=4 n=36 v=0
15816 On ch=4 n=35 v=79
15832 On ch=4 n=35 v=0
15840 On ch=4 n=41 v=79
15864 On ch=4 n=41 v=0
15864 On ch=4 n=40 v=79
15888 On ch=4 n=40 v=0
15888 On ch=4 n=41 v=79
15912 On ch=4 n=41 v=0
15912 On ch=4 n=40 v=79
15928 On ch=4 n=40 v=0
15936 On ch=4 n=43 v=79
15984 On ch=4 n=43 v=0
16008 On ch=4 n=33 v=79
16064 On ch=4 n=33 v=0
16080 On ch=4 n=35 v=79
16144 On ch=4 n=35 v=0
16152 On ch=4 n=36 v=79
16200 On ch=4 n=36 v=0
16224 On ch=4 n=40 v=79
16248 On ch=4 n=40 v=0
16248 On ch=4 n=42 v=79
16272 On ch=4 n=42 v=0
16272 On ch=4 n=45 v=79
16296 On ch=4 n=45 v=0
16296 On ch=4 n=47 v=79
16312 On ch=4 n=47 v=0
16320 On ch=4 n=40 v=79
16384 On ch=4 n=40 v=0
16608 On ch=4 n=40 v=79
16632 On ch=4 n=40 v=0
16632 On ch=4 n=42 v=79
16656 On ch=4 n=42 v=0
16656 On ch=4 n=45 v=79
16680 On ch=4 n=45 v=0
16680 On ch=4 n=47 v=79
16696 On ch=4 n=47 v=0
16992 On ch=4 n=40 v=79
17016 On ch=4 n=40 v=0
17016 On ch=4 n=42 v=79
17040 On ch=4 n=42 v=0
17040 On ch=4 n=45 v=79
17064 On ch=4 n=45 v=0
17064 On ch=4 n=47 v=79
17080 On ch=4 n=47 v=0
17376 On ch=4 n=40 v=79
17400 On ch=4 n=40 v=0
17400 On ch=4 n=42 v=79
17424 On ch=4 n=42 v=0
17424 On ch=4 n=45 v=79
17448 On ch=4 n=45 v=0
17448 On ch=4 n=47 v=79
17464 On ch=4 n=47 v=0
17472 On ch=4 n=40 v=79
17536 On ch=4 n=40 v=0
17760 On ch=4 n=40 v=79
17784 On ch=4 n=40 v=0
17784 On ch=4 n=42 v=79
17808 On ch=4 n=42 v=0
17808 On ch=4 n=45 v=79
17832 On ch=4 n=45 v=0
17832 On ch=4 n=47 v=79
17848 On ch=4 n=47 v=0
18144 On ch=4 n=40 v=79
18168 On ch=4 n=40 v=0
18168 On ch=4 n=42 v=79
18192 On ch=4 n=42 v=0
18192 On ch=4 n=45 v=79
18216 On ch=4 n=45 v=0
18216 On ch=4 n=47 v=79
18232 On ch=4 n=47 v=0
18528 On ch=4 n=40 v=79
18552 On ch=4 n=40 v=0
18552 On ch=4 n=42 v=79
18576 On ch=4 n=42 v=0
18576 On ch=4 n=45 v=79
18600 On ch=4 n=45 v=0
18600 On ch=4 n=47 v=79
18616 On ch=4 n=47 v=0
18912 On ch=4 n=40 v=79
18936 On ch=4 n=40 v=0
18936 On ch=4 n=42 v=79
18960 On ch=4 n=42 v=0
18960 On ch=4 n=45 v=79
18984 On ch=4 n=45 v=0
18984 On ch=4 n=47 v=79
19000 On ch=4 n=47 v=0
19296 On ch=4 n=38 v=79
19320 On ch=4 n=38 v=0
19320 On ch=4 n=40 v=79
19344 On ch=4 n=40 v=0
19344 On ch=4 n=43 v=79
19376 On ch=4 n=43 v=0
19632 On ch=4 n=38 v=79
19656 On ch=4 n=38 v=0
19656 On ch=4 n=40 v=79
19680 On ch=4 n=40 v=0
19680 On ch=4 n=43 v=79
19704 On ch=4 n=43 v=0
19704 On ch=4 n=45 v=79
19728 On ch=4 n=45 v=0
19728 On ch=4 n=33 v=79
19752 On ch=4 n=33 v=0
19752 On ch=4 n=35 v=79
19768 On ch=4 n=35 v=0
19776 On ch=4 n=36 v=79
19808 On ch=4 n=36 v=0
19824 On ch=4 n=36 v=79
19856 On ch=4 n=36 v=0
19872 On ch=4 n=36 v=79
19904 On ch=4 n=36 v=0
19920 On ch=4 n=36 v=79
19952 On ch=4 n=36 v=0
19968 On ch=4 n=35 v=79
20000 On ch=4 n=35 v=0
20016 On ch=4 n=35 v=79
20048 On ch=4 n=35 v=0
20064 On ch=4 n=35 v=79
20096 On ch=4 n=35 v=0
20112 On ch=4 n=35 v=79
20144 On ch=4 n=35 v=0
20160 On ch=4 n=33 v=79
20192 On ch=4 n=33 v=0
20208 On ch=4 n=33 v=79
20240 On ch=4 n=33 v=0
20256 On ch=4 n=33 v=79
20288 On ch=4 n=33 v=0
20304 On ch=4 n=33 v=79
20336 On ch=4 n=33 v=0
20352 On ch=4 n=55 v=79
20384 On ch=4 n=55 v=0
20400 On ch=4 n=55 v=79
20432 On ch=4 n=55 v=0
20448 On ch=4 n=55 v=79
20480 On ch=4 n=55 v=0
20496 On ch=4 n=55 v=79
20528 On ch=4 n=55 v=0
20544 On ch=4 n=53 v=79
20576 On ch=4 n=53 v=0
20592 On ch=4 n=53 v=79
20624 On ch=4 n=53 v=0
20640 On ch=4 n=53 v=79
20672 On ch=4 n=53 v=0
20688 On ch=4 n=53 v=79
20720 On ch=4 n=53 v=0
20736 On ch=4 n=52 v=79
20768 On ch=4 n=52 v=0
20784 On ch=4 n=36 v=79
20816 On ch=4 n=36 v=0
20832 On ch=4 n=36 v=79
20864 On ch=4 n=36 v=0
20880 On ch=4 n=48 v=79
20912 On ch=4 n=48 v=0
20928 On ch=4 n=46 v=79
21054 On ch=4 n=46 v=0
21120 On ch=4 n=46 v=79
21136 On ch=4 n=46 v=0
21144 On ch=4 n=45 v=79
21160 On ch=4 n=45 v=0
21168 On ch=4 n=43 v=79
21184 On ch=4 n=43 v=0
21192 On ch=4 n=41 v=79
21208 On ch=4 n=41 v=0
21216 On ch=4 n=39 v=79
21232 On ch=4 n=39 v=0
21240 On ch=4 n=38 v=79
21256 On ch=4 n=38 v=0
21264 On ch=4 n=36 v=79
21280 On ch=4 n=36 v=0
21288 On ch=4 n=34 v=79
21438 On ch=4 n=34 v=0
21504 On ch=4 n=34 v=79
21536 On ch=4 n=34 v=0
21552 On ch=4 n=34 v=79
21584 On ch=4 n=34 v=0
21600 On ch=4 n=34 v=79
21632 On ch=4 n=34 v=0
21648 On ch=4 n=34 v=79
21680 On ch=4 n=34 v=0
21696 On ch=4 n=35 v=79
21728 On ch=4 n=35 v=0
21744 On ch=4 n=35 v=79
21776 On ch=4 n=35 v=0
21792 On ch=4 n=38 v=79
21824 On ch=4 n=38 v=0
21840 On ch=4 n=38 v=79
21872 On ch=4 n=38 v=0
21888 On ch=4 n=40 v=79
21920 On ch=4 n=40 v=0
21936 On ch=4 n=40 v=79
21968 On ch=4 n=40 v=0
21984 On ch=4 n=40 v=79
22032 On ch=4 n=52 v=79
22334 On ch=4 n=52 v=0
22334 On ch=4 n=40 v=0
22334 Meta TrkEnd
TrkEnd
MTrk
0 Meta 0x21 00
0 Meta TrkName "Saw Wave"
0 Par ch=5 c=0 v=0
0 PrCh ch=5 p=80
0 Par ch=5 c=7 v=96
196 Par ch=5 c=0 v=0
196 PrCh ch=5 p=81
198 Par ch=5 c=1 v=34
200 Par ch=5 c=7 v=80
202 Par ch=5 c=10 v=80
204 Par ch=5 c=11 v=127
206 Par ch=5 c=64 v=0
208 Par ch=5 c=91 v=127
210 Par ch=5 c=93 v=0
212 Pb ch=5 v=8192
408 Par ch=5 c=7 v=80
480 Par ch=5 c=1 v=34
480 Par ch=5 c=91 v=127
4224 On ch=5 n=72 v=79
4224 On ch=5 n=67 v=79
4224 On ch=5 n=76 v=79
4384 On ch=5 n=76 v=0
4384 On ch=5 n=67 v=0
4384 On ch=5 n=72 v=0
4416 On ch=5 n=71 v=79
4416 On ch=5 n=67 v=79
4416 On ch=5 n=76 v=79
4544 On ch=5 n=76 v=0
4544 On ch=5 n=67 v=0
4544 On ch=5 n=71 v=0
4560 On ch=5 n=72 v=79
4560 On ch=5 n=69 v=79
4560 On ch=5 n=67 v=79
4560 On ch=5 n=76 v=79
4734 On ch=5 n=76 v=0
4734 On ch=5 n=72 v=0
4734 On ch=5 n=69 v=0
4734 On ch=5 n=67 v=0
4800 On ch=5 n=72 v=79
4800 On ch=5 n=67 v=79
4800 On ch=5 n=76 v=79
4896 On ch=5 n=76 v=0
4896 On ch=5 n=67 v=0
4896 On ch=5 n=72 v=0
4944 On ch=5 n=72 v=79
4944 On ch=5 n=69 v=79
4944 On ch=5 n=77 v=79
5116 On ch=5 n=77 v=0
5116 On ch=5 n=69 v=0
5116 On ch=5 n=72 v=0
5184 On ch=5 n=72 v=79
5184 On ch=5 n=67 v=79
5184 On ch=5 n=76 v=79
5328 On ch=5 n=76 v=0
5328 On ch=5 n=67 v=0
5328 On ch=5 n=72 v=0
5328 On ch=5 n=74 v=79
5328 On ch=5 n=70 v=79
5328 On ch=5 n=77 v=79
5502 On ch=5 n=77 v=0
5502 On ch=5 n=70 v=0
5502 On ch=5 n=74 v=0
5568 On ch=5 n=70 v=79
5568 On ch=5 n=74 v=79
5568 On ch=5 n=77 v=79
5692 On ch=5 n=74 v=0
5694 On ch=5 n=77 v=0
5694 On ch=5 n=70 v=0
5760 On ch=5 n=74 v=79
5760 On ch=5 n=70 v=79
5760 On ch=5 n=77 v=79
6048 On ch=5 n=77 v=0
6048 On ch=5 n=70 v=0
6048 On ch=5 n=74 v=0
6048 On ch=5 n=70 v=79
6048 On ch=5 n=68 v=79
6048 On ch=5 n=76 v=79
6144 On ch=5 n=76 v=0
6144 On ch=5 n=68 v=0
6144 On ch=5 n=70 v=0
6144 On ch=5 n=68 v=79
6144 On ch=5 n=74 v=79
6144 On ch=5 n=71 v=79
6144 On ch=5 n=78 v=79
6782 On ch=5 n=78 v=0
6782 On ch=5 n=68 v=0
6782 On ch=5 n=74 v=0
6782 On ch=5 n=71 v=0
6816 On ch=5 n=64 v=95
6840 On ch=5 n=64 v=0
6840 On ch=5 n=66 v=95
6864 On ch=5 n=66 v=0
6864 On ch=5 n=69 v=95
6888 On ch=5 n=69 v=0
6888 On ch=5 n=71 v=95
6912 On ch=5 n=71 v=0
6912 On ch=5 n=68 v=79
6912 On ch=5 n=71 v=79
6912 On ch=5 n=74 v=79
6912 On ch=5 n=78 v=79
7296 On ch=5 n=78 v=0
7296 On ch=5 n=68 v=0
7296 On ch=5 n=71 v=0
7296 On ch=5 n=74 v=0
7296 On ch=5 n=73 v=79
7296 On ch=5 n=68 v=79
7296 On ch=5 n=71 v=79
7296 On ch=5 n=78 v=79
7546 On ch=5 n=78 v=0
7546 On ch=5 n=73 v=0
7546 On ch=5 n=68 v=0
7546 On ch=5 n=71 v=0
7680 On ch=5 n=74 v=79
7680 On ch=5 n=71 v=79
7680 On ch=5 n=78 v=79
7934 On ch=5 n=78 v=0
7934 On ch=5 n=71 v=0
7934 On ch=5 n=74 v=0
7968 On ch=5 n=64 v=95
7992 On ch=5 n=64 v=0
7992 On ch=5 n=66 v=95
8016 On ch=5 n=66 v=0
8016 On ch=5 n=69 v=95
8040 On ch=5 n=69 v=0
8040 On ch=5 n=71 v=95
8064 On ch=5 n=71 v=0
8064 On ch=5 n=74 v=79
8064 On ch=5 n=71 v=79
8064 On ch=5 n=78 v=79
8318 On ch=5 n=78 v=0
8318 On ch=5 n=71 v=0
8318 On ch=5 n=74 v=0
8448 On ch=5 n=74 v=79
8448 On ch=5 n=71 v=79
8448 On ch=5 n=78 v=79
8698 On ch=5 n=78 v=0
8698 On ch=5 n=71 v=0
8698 On ch=5 n=74 v=0
8832 On ch=5 n=71 v=79
8832 On ch=5 n=67 v=79
8832 On ch=5 n=74 v=79
9456 On ch=5 n=62 v=95
9466 On ch=5 n=74 v=0
9466 On ch=5 n=71 v=0
9466 On ch=5 n=67 v=0
9480 On ch=5 n=62 v=0
9480 On ch=5 n=64 v=95
9504 On ch=5 n=64 v=0
9504 On ch=5 n=67 v=95
9528 On ch=5 n=67 v=0
9528 On ch=5 n=69 v=95
9552 On ch=5 n=69 v=0
9552 On ch=5 n=57 v=95
9576 On ch=5 n=57 v=0
9576 On ch=5 n=59 v=95
9600 On ch=5 n=59 v=0
9600 On ch=5 n=67 v=79
9600 On ch=5 n=72 v=79
9600 On ch=5 n=76 v=79
9726 On ch=5 n=76 v=0
9726 On ch=5 n=72 v=0
9726 On ch=5 n=67 v=0
9792 On ch=5 n=71 v=79
9792 On ch=5 n=67 v=79
9792 On ch=5 n=76 v=79
9916 On ch=5 n=76 v=0
9916 On ch=5 n=67 v=0
9916 On ch=5 n=71 v=0
9984 On ch=5 n=69 v=79
9984 On ch=5 n=67 v=79
9984 On ch=5 n=76 v=79
10106 On ch=5 n=76 v=0
10106 On ch=5 n=67 v=0
10106 On ch=5 n=69 v=0
10176 On ch=5 n=67 v=79
10176 On ch=5 n=72 v=79
10176 On ch=5 n=76 v=79
10296 On ch=5 n=72 v=0
10298 On ch=5 n=76 v=0
10298 On ch=5 n=67 v=0
10368 On ch=5 n=72 v=79
10368 On ch=5 n=69 v=79
10368 On ch=5 n=77 v=79
10490 On ch=5 n=77 v=0
10490 On ch=5 n=69 v=0
10490 On ch=5 n=72 v=0
10560 On ch=5 n=72 v=79
10560 On ch=5 n=67 v=79
10560 On ch=5 n=76 v=79
10680 On ch=5 n=76 v=0
10680 On ch=5 n=67 v=0
10680 On ch=5 n=72 v=0
10752 On ch=5 n=74 v=79
10752 On ch=5 n=70 v=79
10752 On ch=5 n=77 v=79
10872 On ch=5 n=77 v=0
10872 On ch=5 n=70 v=0
10872 On ch=5 n=74 v=0
10944 On ch=5 n=74 v=79
10944 On ch=5 n=70 v=79
10944 On ch=5 n=77 v=79
11064 On ch=5 n=77 v=0
11064 On ch=5 n=70 v=0
11064 On ch=5 n=74 v=0
11136 On ch=5 n=70 v=79
11136 On ch=5 n=74 v=79
11136 On ch=5 n=77 v=79
11318 On ch=5 n=77 v=0
11318 On ch=5 n=74 v=0
11318 On ch=5 n=70 v=0
11424 On ch=5 n=76 v=79
11424 On ch=5 n=71 v=79
11424 On ch=5 n=80 v=79
11484 On ch=5 n=80 v=0
11484 On ch=5 n=71 v=0
11484 On ch=5 n=76 v=0
11520 On ch=5 n=68 v=79
11520 On ch=5 n=74 v=79
11520 On ch=5 n=71 v=79
11520 On ch=5 n=78 v=79
12158 On ch=5 n=78 v=0
12158 On ch=5 n=68 v=0
12158 On ch=5 n=74 v=0
12158 On ch=5 n=71 v=0
12192 On ch=5 n=64 v=95
12216 On ch=5 n=64 v=0
12216 On ch=5 n=66 v=95
12240 On ch=5 n=66 v=0
12240 On ch=5 n=69 v=95
12264 On ch=5 n=69 v=0
12264 On ch=5 n=71 v=95
12288 On ch=5 n=71 v=0
12288 On ch=5 n=68 v=79
12288 On ch=5 n=71 v=79
12288 On ch=5 n=74 v=79
12288 On ch=5 n=78 v=79
12672 On ch=5 n=78 v=0
12672 On ch=5 n=68 v=0
12672 On ch=5 n=71 v=0
12672 On ch=5 n=74 v=0
12672 On ch=5 n=73 v=79
12672 On ch=5 n=68 v=79
12672 On ch=5 n=71 v=79
12672 On ch=5 n=78 v=79
12922 On ch=5 n=78 v=0
12922 On ch=5 n=73 v=0
12922 On ch=5 n=68 v=0
12926 On ch=5 n=71 v=0
12960 On ch=5 n=64 v=95
12984 On ch=5 n=64 v=0
12984 On ch=5 n=66 v=95
13008 On ch=5 n=66 v=0
13008 On ch=5 n=69 v=95
13032 On ch=5 n=69 v=0
13032 On ch=5 n=71 v=95
13056 On ch=5 n=71 v=0
13056 On ch=5 n=74 v=79
13056 On ch=5 n=71 v=79
13056 On ch=5 n=78 v=79
13310 On ch=5 n=78 v=0
13310 On ch=5 n=71 v=0
13310 On ch=5 n=74 v=0
13440 On ch=5 n=74 v=79
13440 On ch=5 n=71 v=79
13440 On ch=5 n=78 v=79
14074 On ch=5 n=78 v=0
14074 On ch=5 n=71 v=0
14074 On ch=5 n=74 v=0
14112 On ch=5 n=64 v=95
14136 On ch=5 n=64 v=0
14136 On ch=5 n=66 v=95
14160 On ch=5 n=66 v=0
14160 On ch=5 n=69 v=95
14184 On ch=5 n=69 v=0
14184 On ch=5 n=71 v=95
14208 On ch=5 n=71 v=0
14208 On ch=5 n=71 v=79
14208 On ch=5 n=67 v=79
14208 On ch=5 n=74 v=79
14842 On ch=5 n=74 v=0
14842 On ch=5 n=67 v=0
14842 On ch=5 n=71 v=0
14976 On ch=5 n=67 v=79
14976 On ch=5 n=64 v=79
14976 On ch=5 n=72 v=79
15230 On ch=5 n=72 v=0
15230 On ch=5 n=64 v=0
15230 On ch=5 n=67 v=0
15360 On ch=5 n=67 v=79
15360 On ch=5 n=64 v=79
15360 On ch=5 n=72 v=79
15614 On ch=5 n=72 v=0
15614 On ch=5 n=64 v=0
15614 On ch=5 n=67 v=0
15744 On ch=5 n=67 v=79
15744 On ch=5 n=64 v=79
15744 On ch=5 n=72 v=79
15870 On ch=5 n=72 v=0
15870 On ch=5 n=64 v=0
15870 On ch=5 n=67 v=0
15936 On ch=5 n=71 v=95
15960 On ch=5 n=71 v=0
15960 On ch=5 n=67 v=95
15984 On ch=5 n=67 v=0
15984 On ch=5 n=65 v=95
16000 On ch=5 n=65 v=0
16008 On ch=5 n=72 v=95
16032 On ch=5 n=72 v=0
16032 On ch=5 n=69 v=95
16056 On ch=5 n=69 v=0
16056 On ch=5 n=67 v=95
16072 On ch=5 n=67 v=0
16080 On ch=5 n=74 v=95
16104 On ch=5 n=74 v=0
16104 On ch=5 n=71 v=95
16128 On ch=5 n=71 v=0
16128 On ch=5 n=74 v=79
16152 On ch=5 n=74 v=0
16152 On ch=5 n=74 v=79
16176 On ch=5 n=74 v=0
16176 On ch=5 n=72 v=79
16200 On ch=5 n=72 v=0
16200 On ch=5 n=71 v=79
16216 On ch=5 n=71 v=0
16224 On ch=5 n=64 v=79
16248 On ch=5 n=64 v=0
16248 On ch=5 n=66 v=79
16272 On ch=5 n=66 v=0
16272 On ch=5 n=69 v=79
16296 On ch=5 n=69 v=0
16296 On ch=5 n=71 v=79
16312 On ch=5 n=71 v=0
16320 On ch=5 n=68 v=79
16320 On ch=5 n=74 v=79
16320 On ch=5 n=71 v=79
16320 On ch=5 n=78 v=79
16958 On ch=5 n=78 v=0
16958 On ch=5 n=68 v=0
16958 On ch=5 n=74 v=0
16958 On ch=5 n=71 v=0
16992 On ch=5 n=64 v=95
17016 On ch=5 n=64 v=0
17016 On ch=5 n=66 v=95
17040 On ch=5 n=66 v=0
17040 On ch=5 n=69 v=95
17064 On ch=5 n=69 v=0
17064 On ch=5 n=71 v=95
17088 On ch=5 n=71 v=0
17088 On ch=5 n=68 v=79
17088 On ch=5 n=71 v=79
17088 On ch=5 n=74 v=79
17088 On ch=5 n=78 v=79
17472 On ch=5 n=78 v=0
17472 On ch=5 n=68 v=0
17472 On ch=5 n=71 v=0
17472 On ch=5 n=74 v=0
17472 On ch=5 n=73 v=79
17472 On ch=5 n=68 v=79
17472 On ch=5 n=71 v=79
17472 On ch=5 n=78 v=79
17722 On ch=5 n=78 v=0
17722 On ch=5 n=73 v=0
17722 On ch=5 n=68 v=0
17722 On ch=5 n=71 v=0
17856 On ch=5 n=74 v=79
17856 On ch=5 n=71 v=79
17856 On ch=5 n=78 v=79
18110 On ch=5 n=78 v=0
18110 On ch=5 n=71 v=0
18110 On ch=5 n=74 v=0
18144 On ch=5 n=64 v=95
18168 On ch=5 n=64 v=0
18168 On ch=5 n=66 v=95
18192 On ch=5 n=66 v=0
18192 On ch=5 n=69 v=95
18216 On ch=5 n=69 v=0
18216 On ch=5 n=71 v=95
18240 On ch=5 n=71 v=0
18240 On ch=5 n=74 v=79
18240 On ch=5 n=71 v=79
18240 On ch=5 n=78 v=79
18494 On ch=5 n=78 v=0
18494 On ch=5 n=71 v=0
18494 On ch=5 n=74 v=0
18624 On ch=5 n=74 v=79
18624 On ch=5 n=71 v=79
18624 On ch=5 n=78 v=79
18874 On ch=5 n=78 v=0
18874 On ch=5 n=71 v=0
18874 On ch=5 n=74 v=0
19008 On ch=5 n=71 v=79
19008 On ch=5 n=67 v=79
19008 On ch=5 n=74 v=79
19632 On ch=5 n=62 v=95
19642 On ch=5 n=74 v=0
19642 On ch=5 n=71 v=0
19642 On ch=5 n=67 v=0
19656 On ch=5 n=62 v=0
19656 On ch=5 n=64 v=95
19680 On ch=5 n=64 v=0
19680 On ch=5 n=67 v=95
19704 On ch=5 n=67 v=0
19704 On ch=5 n=69 v=95
19728 On ch=5 n=69 v=0
19728 On ch=5 n=57 v=95
19752 On ch=5 n=57 v=0
19752 On ch=5 n=59 v=95
19776 On ch=5 n=59 v=0
19776 On ch=5 n=67 v=79
19776 On ch=5 n=72 v=79
19776 On ch=5 n=76 v=79
19902 On ch=5 n=76 v=0
19902 On ch=5 n=72 v=0
19902 On ch=5 n=67 v=0
19968 On ch=5 n=71 v=79
19968 On ch=5 n=67 v=79
19968 On ch=5 n=76 v=79
20092 On ch=5 n=76 v=0
20092 On ch=5 n=67 v=0
20092 On ch=5 n=71 v=0
20160 On ch=5 n=69 v=79
20160 On ch=5 n=67 v=79
20160 On ch=5 n=76 v=79
20282 On ch=5 n=76 v=0
20282 On ch=5 n=67 v=0
20282 On ch=5 n=69 v=0
20352 On ch=5 n=67 v=79
20352 On ch=5 n=72 v=79
20352 On ch=5 n=76 v=79
20472 On ch=5 n=72 v=0
20474 On ch=5 n=76 v=0
20474 On ch=5 n=67 v=0
20544 On ch=5 n=72 v=79
20544 On ch=5 n=69 v=79
20544 On ch=5 n=77 v=79
20666 On ch=5 n=77 v=0
20666 On ch=5 n=69 v=0
20666 On ch=5 n=72 v=0
20736 On ch=5 n=72 v=79
20736 On ch=5 n=67 v=79
20736 On ch=5 n=76 v=79
20856 On ch=5 n=76 v=0
20856 On ch=5 n=67 v=0
20856 On ch=5 n=72 v=0
20928 On ch=5 n=74 v=79
20928 On ch=5 n=70 v=79
20928 On ch=5 n=77 v=79
21048 On ch=5 n=77 v=0
21048 On ch=5 n=70 v=0
21048 On ch=5 n=74 v=0
21120 On ch=5 n=74 v=79
21120 On ch=5 n=70 v=79
21120 On ch=5 n=77 v=79
21240 On ch=5 n=77 v=0
21240 On ch=5 n=70 v=0
21240 On ch=5 n=74 v=0
21312 On ch=5 n=74 v=79
21312 On ch=5 n=70 v=79
21312 On ch=5 n=77 v=79
21438 On ch=5 n=77 v=0
21438 On ch=5 n=70 v=0
21438 On ch=5 n=74 v=0
21504 On ch=5 n=70 v=79
21504 On ch=5 n=74 v=79
21504 On ch=5 n=77 v=79
21630 On ch=5 n=77 v=0
21630 On ch=5 n=74 v=0
21630 On ch=5 n=70 v=0
21696 On ch=5 n=71 v=79
21696 On ch=5 n=67 v=79
21696 On ch=5 n=76 v=79
21792 On ch=5 n=76 v=0
21792 On ch=5 n=67 v=0
21792 On ch=5 n=71 v=0
21792 On ch=5 n=73 v=79
21792 On ch=5 n=66 v=79
21792 On ch=5 n=69 v=79
21792 On ch=5 n=74 v=79
21888 On ch=5 n=74 v=0
21888 On ch=5 n=73 v=0
21888 On ch=5 n=66 v=0
21888 On ch=5 n=69 v=0
21888 On ch=5 n=68 v=79
21888 On ch=5 n=64 v=79
21888 On ch=5 n=71 v=79
21888 On ch=5 n=75 v=79
21984 On ch=5 n=75 v=0
21984 On ch=5 n=68 v=0
21984 On ch=5 n=64 v=0
21984 On ch=5 n=71 v=0
21984 On ch=5 n=71 v=79
21984 On ch=5 n=68 v=79
21984 On ch=5 n=76 v=79
22334 On ch=5 n=76 v=0
22334 On ch=5 n=68 v=0
22334 On ch=5 n=71 v=0
22334 Meta TrkEnd
TrkEnd
MTrk
0 Meta 0x21 00
0 Meta TrkName " "
197 Par ch=8 c=0 v=0
197 PrCh ch=8 p=0
199 Par ch=8 c=1 v=0
201 Par ch=8 c=7 v=96
203 Par ch=8 c=10 v=64
205 Par ch=8 c=11 v=127
207 Par ch=8 c=64 v=0
209 Par ch=8 c=91 v=0
211 Par ch=8 c=93 v=0
213 Pb ch=8 v=8192
213 Meta TrkEnd
TrkEnd
MTrk
0 Meta 0x21 00
0 Meta TrkName "Rhythm&SE"
0 PrCh ch=10 p=0
197 Par ch=10 c=0 v=0
197 Par ch=10 c=32 v=0
197 PrCh ch=10 p=0
199 Par ch=10 c=1 v=0
201 Par ch=10 c=7 v=96
203 Par ch=10 c=10 v=64
205 Par ch=10 c=11 v=127
207 Par ch=10 c=64 v=0
209 Par ch=10 c=91 v=0
211 Par ch=10 c=93 v=0
213 Pb ch=10 v=8192
672 On ch=10 n=38 v=106
696 On ch=10 n=38 v=0
696 On ch=10 n=38 v=106
720 On ch=10 n=38 v=0
720 On ch=10 n=38 v=106
744 On ch=10 n=38 v=0
744 On ch=10 n=38 v=106
768 On ch=10 n=36 v=106
768 On ch=10 n=42 v=106
768 On ch=10 n=49 v=106
778 On ch=10 n=49 v=0
778 On ch=10 n=36 v=0
816 On ch=10 n=42 v=0
864 On ch=10 n=42 v=106
912 On ch=10 n=42 v=0
960 On ch=10 n=42 v=106
1008 On ch=10 n=42 v=0
1056 On ch=10 n=42 v=106
1104 On ch=10 n=42 v=0
1128 On ch=10 n=38 v=0
1152 On ch=10 n=36 v=106
1152 On ch=10 n=42 v=106
1162 On ch=10 n=36 v=0
1200 On ch=10 n=42 v=0
1248 On ch=10 n=42 v=106
1296 On ch=10 n=42 v=0
1344 On ch=10 n=42 v=106
1392 On ch=10 n=42 v=0
1440 On ch=10 n=38 v=106
1450 On ch=10 n=38 v=0
1464 On ch=10 n=38 v=106
1488 On ch=10 n=38 v=0
1488 On ch=10 n=38 v=106
1512 On ch=10 n=38 v=0
1512 On ch=10 n=38 v=106
1536 On ch=10 n=36 v=106
1536 On ch=10 n=42 v=106
1536 On ch=10 n=49 v=106
1546 On ch=10 n=49 v=0
1546 On ch=10 n=36 v=0
1584 On ch=10 n=42 v=0
1632 On ch=10 n=42 v=106
1680 On ch=10 n=42 v=0
1728 On ch=10 n=42 v=106
1776 On ch=10 n=42 v=0
1824 On ch=10 n=42 v=106
1872 On ch=10 n=42 v=0
1896 On ch=10 n=38 v=0
1920 On ch=10 n=36 v=106
1920 On ch=10 n=42 v=106
1968 On ch=10 n=42 v=0
2016 On ch=10 n=36 v=0
2016 On ch=10 n=42 v=106
2064 On ch=10 n=42 v=0
2112 On ch=10 n=42 v=106
2160 On ch=10 n=42 v=0
2208 On ch=10 n=38 v=106
2232 On ch=10 n=38 v=0
2232 On ch=10 n=38 v=106
2256 On ch=10 n=38 v=0
2256 On ch=10 n=38 v=106
2280 On ch=10 n=38 v=0
2280 On ch=10 n=38 v=106
2304 On ch=10 n=36 v=106
2304 On ch=10 n=42 v=106
2304 On ch=10 n=49 v=106
2310 On ch=10 n=49 v=0
2310 On ch=10 n=36 v=0
2352 On ch=10 n=42 v=0
2400 On ch=10 n=42 v=106
2448 On ch=10 n=42 v=0
2496 On ch=10 n=42 v=106
2544 On ch=10 n=42 v=0
2592 On ch=10 n=42 v=91
2664 On ch=10 n=38 v=0
2688 On ch=10 n=42 v=0
2688 On ch=10 n=36 v=106
2688 On ch=10 n=42 v=106
2694 On ch=10 n=36 v=0
2736 On ch=10 n=42 v=0
2784 On ch=10 n=42 v=106
2832 On ch=10 n=42 v=0
2880 On ch=10 n=42 v=106
2928 On ch=10 n=42 v=0
2976 On ch=10 n=38 v=91
3000 On ch=10 n=38 v=0
3000 On ch=10 n=38 v=91
3024 On ch=10 n=38 v=0
3024 On ch=10 n=38 v=91
3048 On ch=10 n=38 v=0
3048 On ch=10 n=38 v=91
3072 On ch=10 n=36 v=106
3072 On ch=10 n=42 v=106
3072 On ch=10 n=49 v=106
3078 On ch=10 n=49 v=0
3078 On ch=10 n=36 v=0
3120 On ch=10 n=42 v=0
3168 On ch=10 n=42 v=106
3216 On ch=10 n=42 v=0
3240 On ch=10 n=38 v=0
3264 On ch=10 n=42 v=106
3312 On ch=10 n=42 v=0
3360 On ch=10 n=42 v=106
3392 On ch=10 n=42 v=0
3456 On ch=10 n=36 v=106
3456 On ch=10 n=42 v=106
3504 On ch=10 n=42 v=0
3504 On ch=10 n=36 v=0
3552 On ch=10 n=42 v=106
3600 On ch=10 n=42 v=0
3648 On ch=10 n=42 v=106
3696 On ch=10 n=42 v=0
3744 On ch=10 n=38 v=106
3768 On ch=10 n=38 v=0
3768 On ch=10 n=38 v=106
3792 On ch=10 n=38 v=0
3792 On ch=10 n=38 v=106
3816 On ch=10 n=38 v=0
3816 On ch=10 n=38 v=106
3840 On ch=10 n=36 v=106
3840 On ch=10 n=42 v=106
3840 On ch=10 n=49 v=106
3848 On ch=10 n=38 v=0
3936 On ch=10 n=42 v=0
3936 On ch=10 n=42 v=106
3964 On ch=10 n=36 v=0
3964 On ch=10 n=49 v=0
4032 On ch=10 n=42 v=0
4032 On ch=10 n=42 v=106
4080 On ch=10 n=47 v=106
4128 On ch=10 n=42 v=0
4128 On ch=10 n=38 v=106
4152 On ch=10 n=38 v=0
4152 On ch=10 n=38 v=106
4176 On ch=10 n=38 v=0
4176 On ch=10 n=47 v=0
4176 On ch=10 n=38 v=106
4200 On ch=10 n=38 v=0
4200 On ch=10 n=38 v=106
4224 On ch=10 n=36 v=106
4224 On ch=10 n=42 v=106
4224 On ch=10 n=49 v=106
4272 On ch=10 n=42 v=0
4272 On ch=10 n=42 v=106
4296 On ch=10 n=38 v=0
4320 On ch=10 n=42 v=0
4320 On ch=10 n=38 v=106
4320 On ch=10 n=42 v=106
4348 On ch=10 n=36 v=0
4368 On ch=10 n=42 v=0
4368 On ch=10 n=42 v=106
4416 On ch=10 n=42 v=0
4416 On ch=10 n=49 v=0
4416 On ch=10 n=36 v=106
4416 On ch=10 n=42 v=106
4446 On ch=10 n=38 v=0
4464 On ch=10 n=42 v=0
4464 On ch=10 n=36 v=0
4464 On ch=10 n=36 v=106
4464 On ch=10 n=42 v=106
4496 On ch=10 n=36 v=0
4512 On ch=10 n=42 v=0
4512 On ch=10 n=38 v=106
4512 On ch=10 n=42 v=106
4560 On ch=10 n=42 v=0
4560 On ch=10 n=42 v=106
4608 On ch=10 n=42 v=0
4608 On ch=10 n=36 v=106
4608 On ch=10 n=42 v=106
4638 On ch=10 n=38 v=0
4656 On ch=10 n=42 v=0
4656 On ch=10 n=42 v=106
4704 On ch=10 n=42 v=0
4704 On ch=10 n=38 v=106
4704 On ch=10 n=42 v=106
4732 On ch=10 n=36 v=0
4752 On ch=10 n=42 v=0
4752 On ch=10 n=42 v=106
4800 On ch=10 n=42 v=0
4800 On ch=10 n=36 v=106
4800 On ch=10 n=42 v=106
4830 On ch=10 n=38 v=0
4848 On ch=10 n=42 v=0
4848 On ch=10 n=36 v=0
4848 On ch=10 n=36 v=106
4848 On ch=10 n=42 v=106
4880 On ch=10 n=36 v=0
4896 On ch=10 n=42 v=0
4896 On ch=10 n=38 v=106
4896 On ch=10 n=42 v=106
4944 On ch=10 n=42 v=0
4944 On ch=10 n=42 v=106
4992 On ch=10 n=42 v=0
4992 On ch=10 n=36 v=106
4992 On ch=10 n=42 v=106
5022 On ch=10 n=38 v=0
5040 On ch=10 n=42 v=0
5040 On ch=10 n=42 v=106
5088 On ch=10 n=42 v=0
5088 On ch=10 n=38 v=106
5088 On ch=10 n=42 v=106
5116 On ch=10 n=36 v=0
5136 On ch=10 n=42 v=0
5136 On ch=10 n=42 v=106
5184 On ch=10 n=42 v=0
5184 On ch=10 n=36 v=106
5184 On ch=10 n=42 v=106
5214 On ch=10 n=38 v=0
5232 On ch=10 n=42 v=0
5232 On ch=10 n=36 v=0
5232 On ch=10 n=36 v=106
5232 On ch=10 n=42 v=106
5264 On ch=10 n=36 v=0
5280 On ch=10 n=42 v=0
5280 On ch=10 n=38 v=106
5280 On ch=10 n=42 v=106
5328 On ch=10 n=42 v=0
5328 On ch=10 n=42 v=106
5376 On ch=10 n=42 v=0
5376 On ch=10 n=36 v=106
5376 On ch=10 n=42 v=106
5376 On ch=10 n=49 v=106
5406 On ch=10 n=38 v=0
5472 On ch=10 n=42 v=0
5500 On ch=10 n=36 v=0
5500 On ch=10 n=49 v=0
5568 On ch=10 n=38 v=106
5592 On ch=10 n=38 v=0
5592 On ch=10 n=38 v=106
5616 On ch=10 n=50 v=106
5640 On ch=10 n=50 v=0
5640 On ch=10 n=38 v=0
5640 On ch=10 n=50 v=106
5664 On ch=10 n=47 v=106
5688 On ch=10 n=47 v=0
5688 On ch=10 n=50 v=0
5688 On ch=10 n=47 v=106
5712 On ch=10 n=43 v=106
5736 On ch=10 n=43 v=0
5736 On ch=10 n=47 v=0
5736 On ch=10 n=43 v=106
5760 On ch=10 n=36 v=106
5760 On ch=10 n=49 v=106
5784 On ch=10 n=43 v=0
5808 On ch=10 n=49 v=0
5808 On ch=10 n=36 v=0
6048 On ch=10 n=38 v=106
6072 On ch=10 n=38 v=0
6072 On ch=10 n=38 v=106
6096 On ch=10 n=38 v=0
6096 On ch=10 n=38 v=106
6120 On ch=10 n=38 v=0
6120 On ch=10 n=38 v=106
6144 On ch=10 n=36 v=106
6144 On ch=10 n=42 v=106
6144 On ch=10 n=49 v=106
6192 On ch=10 n=49 v=0
6192 On ch=10 n=36 v=0
6216 On ch=10 n=38 v=0
6240 On ch=10 n=42 v=0
6240 On ch=10 n=38 v=106
6240 On ch=10 n=42 v=106
6288 On ch=10 n=42 v=0
6288 On ch=10 n=38 v=0
6288 On ch=10 n=42 v=106
6336 On ch=10 n=42 v=0
6336 On ch=10 n=36 v=106
6336 On ch=10 n=42 v=106
6384 On ch=10 n=42 v=0
6384 On ch=10 n=36 v=0
6384 On ch=10 n=36 v=106
6384 On ch=10 n=42 v=106
6416 On ch=10 n=36 v=0
6432 On ch=10 n=42 v=0
6432 On ch=10 n=38 v=106
6432 On ch=10 n=42 v=106
6480 On ch=10 n=42 v=0
6480 On ch=10 n=38 v=0
6480 On ch=10 n=42 v=106
6528 On ch=10 n=42 v=0
6528 On ch=10 n=36 v=106
6528 On ch=10 n=42 v=106
6576 On ch=10 n=42 v=0
6576 On ch=10 n=36 v=0
6576 On ch=10 n=42 v=106
6624 On ch=10 n=42 v=0
6624 On ch=10 n=38 v=106
6624 On ch=10 n=42 v=106
6672 On ch=10 n=42 v=0
6672 On ch=10 n=38 v=0
6672 On ch=10 n=42 v=106
6720 On ch=10 n=42 v=0
6720 On ch=10 n=36 v=106
6720 On ch=10 n=42 v=106
6768 On ch=10 n=42 v=0
6768 On ch=10 n=36 v=0
6768 On ch=10 n=36 v=106
6768 On ch=10 n=42 v=106
6800 On ch=10 n=36 v=0
6816 On ch=10 n=42 v=0
6816 On ch=10 n=38 v=106
6816 On ch=10 n=42 v=106
6864 On ch=10 n=42 v=0
6864 On ch=10 n=38 v=0
6864 On ch=10 n=42 v=106
6912 On ch=10 n=42 v=0
6912 On ch=10 n=36 v=106
6912 On ch=10 n=42 v=106
6960 On ch=10 n=42 v=0
6960 On ch=10 n=36 v=0
6960 On ch=10 n=42 v=106
7008 On ch=10 n=42 v=0
7008 On ch=10 n=38 v=106
7008 On ch=10 n=42 v=106
7056 On ch=10 n=42 v=0
7056 On ch=10 n=38 v=0
7056 On ch=10 n=42 v=106
7104 On ch=10 n=42 v=0
7104 On ch=10 n=36 v=106
7104 On ch=10 n=42 v=106
7152 On ch=10 n=42 v=0
7152 On ch=10 n=36 v=0
7152 On ch=10 n=36 v=106
7152 On ch=10 n=42 v=106
7184 On ch=10 n=36 v=0
7200 On ch=10 n=42 v=0
7200 On ch=10 n=38 v=106
7200 On ch=10 n=42 v=106
7248 On ch=10 n=42 v=0
7248 On ch=10 n=38 v=0
7248 On ch=10 n=42 v=106
7296 On ch=10 n=42 v=0
7296 On ch=10 n=36 v=106
7296 On ch=10 n=42 v=106
7344 On ch=10 n=42 v=0
7344 On ch=10 n=36 v=0
7344 On ch=10 n=42 v=106
7392 On ch=10 n=42 v=0
7392 On ch=10 n=38 v=106
7392 On ch=10 n=42 v=106
7440 On ch=10 n=42 v=0
7440 On ch=10 n=38 v=0
7440 On ch=10 n=42 v=106
7488 On ch=10 n=42 v=0
7488 On ch=10 n=36 v=106
7488 On ch=10 n=42 v=106
7536 On ch=10 n=42 v=0
7536 On ch=10 n=36 v=0
7536 On ch=10 n=36 v=106
7536 On ch=10 n=42 v=106
7568 On ch=10 n=36 v=0
7584 On ch=10 n=42 v=0
7584 On ch=10 n=38 v=106
7584 On ch=10 n=42 v=106
7632 On ch=10 n=42 v=0
7632 On ch=10 n=38 v=0
7632 On ch=10 n=42 v=106
7680 On ch=10 n=42 v=0
7680 On ch=10 n=36 v=106
7680 On ch=10 n=42 v=106
7712 On ch=10 n=42 v=0
7728 On ch=10 n=36 v=0
7728 On ch=10 n=42 v=106
7760 On ch=10 n=42 v=0
7776 On ch=10 n=38 v=106
7776 On ch=10 n=42 v=106
7824 On ch=10 n=42 v=0
7824 On ch=10 n=38 v=0
7824 On ch=10 n=42 v=106
7872 On ch=10 n=42 v=0
7872 On ch=10 n=36 v=106
7872 On ch=10 n=42 v=106
7920 On ch=10 n=42 v=0
7920 On ch=10 n=36 v=0
7920 On ch=10 n=36 v=106
7920 On ch=10 n=42 v=106
7952 On ch=10 n=36 v=0
7968 On ch=10 n=42 v=0
7968 On ch=10 n=38 v=106
7968 On ch=10 n=42 v=106
8016 On ch=10 n=42 v=0
8016 On ch=10 n=38 v=0
8016 On ch=10 n=42 v=106
8064 On ch=10 n=42 v=0
8064 On ch=10 n=36 v=106
8064 On ch=10 n=42 v=106
8112 On ch=10 n=42 v=0
8112 On ch=10 n=36 v=0
8112 On ch=10 n=42 v=106
8160 On ch=10 n=42 v=0
8160 On ch=10 n=38 v=106
8160 On ch=10 n=42 v=106
8208 On ch=10 n=42 v=0
8208 On ch=10 n=38 v=0
8208 On ch=10 n=42 v=106
8256 On ch=10 n=42 v=0
8256 On ch=10 n=36 v=106
8256 On ch=10 n=42 v=106
8304 On ch=10 n=42 v=0
8304 On ch=10 n=36 v=0
8304 On ch=10 n=36 v=106
8304 On ch=10 n=42 v=106
8336 On ch=10 n=36 v=0
8352 On ch=10 n=42 v=0
8352 On ch=10 n=38 v=106
8352 On ch=10 n=42 v=106
8400 On ch=10 n=42 v=0
8400 On ch=10 n=38 v=0
8400 On ch=10 n=42 v=106
8448 On ch=10 n=42 v=0
8448 On ch=10 n=36 v=106
8448 On ch=10 n=42 v=106
8496 On ch=10 n=42 v=0
8496 On ch=10 n=36 v=0
8496 On ch=10 n=42 v=106
8544 On ch=10 n=42 v=0
8544 On ch=10 n=38 v=106
8544 On ch=10 n=42 v=106
8592 On ch=10 n=42 v=0
8592 On ch=10 n=38 v=0
8592 On ch=10 n=42 v=106
8640 On ch=10 n=42 v=0
8640 On ch=10 n=36 v=106
8640 On ch=10 n=42 v=106
8688 On ch=10 n=42 v=0
8688 On ch=10 n=36 v=0
8688 On ch=10 n=36 v=106
8688 On ch=10 n=42 v=106
8720 On ch=10 n=36 v=0
8736 On ch=10 n=42 v=0
8736 On ch=10 n=38 v=106
8736 On ch=10 n=42 v=106
8784 On ch=10 n=42 v=0
8784 On ch=10 n=38 v=0
8784 On ch=10 n=42 v=106
8832 On ch=10 n=42 v=0
8832 On ch=10 n=36 v=106
8832 On ch=10 n=42 v=106
8880 On ch=10 n=42 v=0
8880 On ch=10 n=36 v=0
8880 On ch=10 n=42 v=106
8928 On ch=10 n=42 v=0
8928 On ch=10 n=38 v=106
8928 On ch=10 n=42 v=106
8976 On ch=10 n=42 v=0
8976 On ch=10 n=38 v=0
8976 On ch=10 n=42 v=106
9024 On ch=10 n=42 v=0
9024 On ch=10 n=36 v=106
9024 On ch=10 n=42 v=106
9072 On ch=10 n=42 v=0
9072 On ch=10 n=36 v=0
9072 On ch=10 n=36 v=106
9072 On ch=10 n=42 v=106
9104 On ch=10 n=36 v=0
9120 On ch=10 n=42 v=0
9120 On ch=10 n=38 v=106
9120 On ch=10 n=42 v=106
9168 On ch=10 n=42 v=0
9168 On ch=10 n=38 v=0
9168 On ch=10 n=42 v=106
9216 On ch=10 n=42 v=0
9216 On ch=10 n=36 v=106
9216 On ch=10 n=42 v=106
9264 On ch=10 n=42 v=0
9264 On ch=10 n=36 v=0
9264 On ch=10 n=42 v=106
9312 On ch=10 n=42 v=0
9312 On ch=10 n=38 v=106
9312 On ch=10 n=42 v=106
9360 On ch=10 n=42 v=0
9360 On ch=10 n=38 v=0
9360 On ch=10 n=42 v=106
9408 On ch=10 n=42 v=0
9408 On ch=10 n=36 v=106
9408 On ch=10 n=42 v=106
9456 On ch=10 n=42 v=0
9456 On ch=10 n=36 v=0
9456 On ch=10 n=36 v=106
9456 On ch=10 n=42 v=106
9488 On ch=10 n=36 v=0
9504 On ch=10 n=42 v=0
9504 On ch=10 n=38 v=106
9504 On ch=10 n=42 v=106
9552 On ch=10 n=42 v=0
9552 On ch=10 n=38 v=0
9552 On ch=10 n=42 v=106
9600 On ch=10 n=42 v=0
9600 On ch=10 n=36 v=106
9600 On ch=10 n=42 v=106
9648 On ch=10 n=42 v=0
9648 On ch=10 n=36 v=0
9648 On ch=10 n=42 v=106
9696 On ch=10 n=42 v=0
9696 On ch=10 n=38 v=106
9696 On ch=10 n=42 v=106
9744 On ch=10 n=42 v=0
9744 On ch=10 n=38 v=0
9744 On ch=10 n=42 v=106
9792 On ch=10 n=42 v=0
9792 On ch=10 n=36 v=106
9792 On ch=10 n=42 v=106
9840 On ch=10 n=42 v=0
9840 On ch=10 n=36 v=0
9840 On ch=10 n=36 v=106
9840 On ch=10 n=42 v=106
9872 On ch=10 n=36 v=0
9888 On ch=10 n=42 v=0
9888 On ch=10 n=38 v=106
9888 On ch=10 n=42 v=106
9936 On ch=10 n=42 v=0
9936 On ch=10 n=38 v=0
9936 On ch=10 n=42 v=106
9984 On ch=10 n=42 v=0
9984 On ch=10 n=36 v=106
9984 On ch=10 n=42 v=106
10032 On ch=10 n=42 v=0
10032 On ch=10 n=36 v=0
10032 On ch=10 n=42 v=106
10080 On ch=10 n=42 v=0
10080 On ch=10 n=38 v=106
10080 On ch=10 n=42 v=106
10128 On ch=10 n=42 v=0
10128 On ch=10 n=38 v=0
10128 On ch=10 n=42 v=106
10176 On ch=10 n=42 v=0
10176 On ch=10 n=36 v=106
10176 On ch=10 n=42 v=106
10224 On ch=10 n=42 v=0
10224 On ch=10 n=36 v=0
10224 On ch=10 n=36 v=106
10224 On ch=10 n=42 v=106
10256 On ch=10 n=36 v=0
10272 On ch=10 n=42 v=0
10272 On ch=10 n=38 v=106
10272 On ch=10 n=42 v=106
10320 On ch=10 n=42 v=0
10320 On ch=10 n=38 v=0
10320 On ch=10 n=42 v=106
10368 On ch=10 n=42 v=0
10368 On ch=10 n=36 v=106
10368 On ch=10 n=42 v=106
10416 On ch=10 n=42 v=0
10416 On ch=10 n=36 v=0
10416 On ch=10 n=42 v=106
10464 On ch=10 n=42 v=0
10464 On ch=10 n=38 v=106
10464 On ch=10 n=42 v=106
10512 On ch=10 n=42 v=0
10512 On ch=10 n=38 v=0
10512 On ch=10 n=42 v=106
10560 On ch=10 n=42 v=0
10560 On ch=10 n=36 v=106
10560 On ch=10 n=42 v=106
10608 On ch=10 n=42 v=0
10608 On ch=10 n=36 v=0
10608 On ch=10 n=36 v=106
10608 On ch=10 n=42 v=106
10640 On ch=10 n=36 v=0
10656 On ch=10 n=42 v=0
10656 On ch=10 n=38 v=106
10656 On ch=10 n=42 v=106
10704 On ch=10 n=42 v=0
10704 On ch=10 n=38 v=0
10704 On ch=10 n=42 v=106
10752 On ch=10 n=42 v=0
10752 On ch=10 n=36 v=106
10752 On ch=10 n=42 v=106
10752 On ch=10 n=49 v=106
10800 On ch=10 n=42 v=0
10800 On ch=10 n=36 v=0
10848 On ch=10 n=49 v=0
11136 On ch=10 n=42 v=106
11136 On ch=10 n=36 v=106
11136 On ch=10 n=49 v=106
11232 On ch=10 n=49 v=0
11232 On ch=10 n=36 v=0
11232 On ch=10 n=42 v=0
11424 On ch=10 n=38 v=106
11448 On ch=10 n=38 v=0
11448 On ch=10 n=38 v=106
11520 On ch=10 n=36 v=106
11520 On ch=10 n=42 v=106
11520 On ch=10 n=49 v=106
11544 On ch=10 n=38 v=0
11568 On ch=10 n=36 v=0
11568 On ch=10 n=42 v=0
11568 On ch=10 n=42 v=106
11616 On ch=10 n=42 v=0
11616 On ch=10 n=38 v=106
11616 On ch=10 n=42 v=106
11664 On ch=10 n=42 v=0
11664 On ch=10 n=38 v=0
11664 On ch=10 n=42 v=106
11712 On ch=10 n=42 v=0
11712 On ch=10 n=36 v=106
11712 On ch=10 n=42 v=106
11760 On ch=10 n=42 v=0
11760 On ch=10 n=36 v=0
11760 On ch=10 n=36 v=106
11760 On ch=10 n=42 v=106
11792 On ch=10 n=36 v=0
11808 On ch=10 n=42 v=0
11808 On ch=10 n=38 v=106
11808 On ch=10 n=42 v=106
11856 On ch=10 n=42 v=0
11856 On ch=10 n=38 v=0
11856 On ch=10 n=42 v=106
11904 On ch=10 n=42 v=0
11904 On ch=10 n=49 v=0
11904 On ch=10 n=36 v=106
11904 On ch=10 n=42 v=106
11952 On ch=10 n=42 v=0
11952 On ch=10 n=36 v=0
11952 On ch=10 n=42 v=106
12000 On ch=10 n=42 v=0
12000 On ch=10 n=38 v=106
12000 On ch=10 n=42 v=106
12048 On ch=10 n=42 v=0
12048 On ch=10 n=38 v=0
12048 On ch=10 n=42 v=106
12096 On ch=10 n=42 v=0
12096 On ch=10 n=36 v=106
12096 On ch=10 n=42 v=106
12144 On ch=10 n=42 v=0
12144 On ch=10 n=36 v=0
12144 On ch=10 n=36 v=106
12144 On ch=10 n=42 v=106
12176 On ch=10 n=36 v=0
12192 On ch=10 n=42 v=0
12192 On ch=10 n=38 v=106
12192 On ch=10 n=42 v=106
12240 On ch=10 n=42 v=0
12240 On ch=10 n=38 v=0
12240 On ch=10 n=42 v=106
12288 On ch=10 n=42 v=0
12288 On ch=10 n=36 v=106
12288 On ch=10 n=42 v=106
12336 On ch=10 n=42 v=0
12336 On ch=10 n=36 v=0
12336 On ch=10 n=42 v=106
12384 On ch=10 n=42 v=0
12384 On ch=10 n=38 v=106
12384 On ch=10 n=42 v=106
12432 On ch=10 n=42 v=0
12432 On ch=10 n=38 v=0
12432 On ch=10 n=42 v=106
12480 On ch=10 n=42 v=0
12480 On ch=10 n=36 v=106
12480 On ch=10 n=42 v=106
12528 On ch=10 n=42 v=0
12528 On ch=10 n=36 v=0
12528 On ch=10 n=36 v=106
12528 On ch=10 n=42 v=106
12560 On ch=10 n=36 v=0
12576 On ch=10 n=42 v=0
12576 On ch=10 n=38 v=106
12576 On ch=10 n=42 v=106
12624 On ch=10 n=42 v=0
12624 On ch=10 n=38 v=0
12624 On ch=10 n=42 v=106
12672 On ch=10 n=42 v=0
12672 On ch=10 n=36 v=106
12672 On ch=10 n=42 v=106
12720 On ch=10 n=42 v=0
12720 On ch=10 n=36 v=0
12720 On ch=10 n=42 v=106
12768 On ch=10 n=42 v=0
12768 On ch=10 n=38 v=106
12768 On ch=10 n=42 v=106
12816 On ch=10 n=42 v=0
12816 On ch=10 n=38 v=0
12816 On ch=10 n=42 v=106
12864 On ch=10 n=42 v=0
12864 On ch=10 n=36 v=106
12864 On ch=10 n=42 v=106
12912 On ch=10 n=42 v=0
12912 On ch=10 n=36 v=0
12912 On ch=10 n=36 v=106
12912 On ch=10 n=42 v=106
12944 On ch=10 n=36 v=0
12960 On ch=10 n=42 v=0
12960 On ch=10 n=38 v=106
12960 On ch=10 n=42 v=106
13008 On ch=10 n=42 v=0
13008 On ch=10 n=38 v=0
13008 On ch=10 n=42 v=106
13056 On ch=10 n=42 v=0
13056 On ch=10 n=36 v=106
13056 On ch=10 n=42 v=106
13104 On ch=10 n=42 v=0
13104 On ch=10 n=36 v=0
13104 On ch=10 n=42 v=106
13152 On ch=10 n=42 v=0
13152 On ch=10 n=38 v=106
13152 On ch=10 n=42 v=106
13200 On ch=10 n=42 v=0
13200 On ch=10 n=38 v=0
13200 On ch=10 n=42 v=106
13248 On ch=10 n=42 v=0
13248 On ch=10 n=36 v=106
13248 On ch=10 n=42 v=106
13296 On ch=10 n=42 v=0
13296 On ch=10 n=36 v=0
13296 On ch=10 n=36 v=106
13296 On ch=10 n=42 v=106
13328 On ch=10 n=36 v=0
13344 On ch=10 n=42 v=0
13344 On ch=10 n=38 v=106
13344 On ch=10 n=42 v=106
13392 On ch=10 n=42 v=0
13392 On ch=10 n=38 v=0
13392 On ch=10 n=42 v=106
13440 On ch=10 n=42 v=0
13440 On ch=10 n=36 v=106
13440 On ch=10 n=42 v=106
13488 On ch=10 n=42 v=0
13488 On ch=10 n=36 v=0
13488 On ch=10 n=42 v=106
13536 On ch=10 n=42 v=0
13536 On ch=10 n=38 v=106
13536 On ch=10 n=42 v=106
13584 On ch=10 n=42 v=0
13584 On ch=10 n=38 v=0
13584 On ch=10 n=42 v=106
13632 On ch=10 n=42 v=0
13632 On ch=10 n=36 v=106
13632 On ch=10 n=42 v=106
13680 On ch=10 n=42 v=0
13680 On ch=10 n=36 v=0
13680 On ch=10 n=36 v=106
13680 On ch=10 n=42 v=106
13712 On ch=10 n=36 v=0
13728 On ch=10 n=42 v=0
13728 On ch=10 n=38 v=106
13728 On ch=10 n=42 v=106
13776 On ch=10 n=42 v=0
13776 On ch=10 n=38 v=0
13776 On ch=10 n=42 v=106
13824 On ch=10 n=42 v=0
13824 On ch=10 n=36 v=106
13824 On ch=10 n=42 v=106
13872 On ch=10 n=42 v=0
13872 On ch=10 n=36 v=0
13872 On ch=10 n=42 v=106
13920 On ch=10 n=42 v=0
13920 On ch=10 n=38 v=106
13920 On ch=10 n=42 v=106
13968 On ch=10 n=42 v=0
13968 On ch=10 n=38 v=0
13968 On ch=10 n=42 v=106
14016 On ch=10 n=42 v=0
14016 On ch=10 n=36 v=106
14016 On ch=10 n=42 v=106
14064 On ch=10 n=42 v=0
14064 On ch=10 n=36 v=0
14064 On ch=10 n=36 v=106
14064 On ch=10 n=42 v=106
14096 On ch=10 n=36 v=0
14112 On ch=10 n=42 v=0
14112 On ch=10 n=38 v=106
14112 On ch=10 n=42 v=106
14160 On ch=10 n=42 v=0
14160 On ch=10 n=38 v=0
14160 On ch=10 n=42 v=106
14208 On ch=10 n=42 v=0
14208 On ch=10 n=36 v=106
14208 On ch=10 n=42 v=106
14256 On ch=10 n=42 v=0
14256 On ch=10 n=36 v=0
14256 On ch=10 n=42 v=106
14304 On ch=10 n=42 v=0
14304 On ch=10 n=38 v=106
14304 On ch=10 n=42 v=106
14352 On ch=10 n=42 v=0
14352 On ch=10 n=38 v=0
14352 On ch=10 n=42 v=106
14400 On ch=10 n=42 v=0
14400 On ch=10 n=36 v=106
14400 On ch=10 n=42 v=106
14448 On ch=10 n=42 v=0
14448 On ch=10 n=36 v=0
14448 On ch=10 n=36 v=106
14448 On ch=10 n=42 v=106
14480 On ch=10 n=36 v=0
14496 On ch=10 n=42 v=0
14496 On ch=10 n=38 v=106
14496 On ch=10 n=42 v=106
14544 On ch=10 n=42 v=0
14544 On ch=10 n=38 v=0
14544 On ch=10 n=42 v=106
14592 On ch=10 n=42 v=0
14592 On ch=10 n=36 v=106
14592 On ch=10 n=42 v=106
14640 On ch=10 n=42 v=0
14640 On ch=10 n=36 v=0
14640 On ch=10 n=42 v=106
14688 On ch=10 n=42 v=0
14688 On ch=10 n=38 v=106
14688 On ch=10 n=42 v=106
14736 On ch=10 n=42 v=0
14736 On ch=10 n=38 v=0
14736 On ch=10 n=42 v=106
14784 On ch=10 n=42 v=0
14784 On ch=10 n=36 v=106
14784 On ch=10 n=42 v=106
14832 On ch=10 n=42 v=0
14832 On ch=10 n=36 v=0
14832 On ch=10 n=36 v=106
14832 On ch=10 n=42 v=106
14864 On ch=10 n=36 v=0
14880 On ch=10 n=42 v=0
14880 On ch=10 n=38 v=106
14880 On ch=10 n=42 v=106
14928 On ch=10 n=42 v=0
14928 On ch=10 n=38 v=0
14928 On ch=10 n=42 v=106
14976 On ch=10 n=42 v=0
14976 On ch=10 n=36 v=106
14976 On ch=10 n=42 v=106
15024 On ch=10 n=42 v=0
15024 On ch=10 n=36 v=0
15024 On ch=10 n=42 v=106
15072 On ch=10 n=42 v=0
15072 On ch=10 n=38 v=106
15072 On ch=10 n=42 v=106
15120 On ch=10 n=42 v=0
15120 On ch=10 n=38 v=0
15120 On ch=10 n=42 v=106
15168 On ch=10 n=42 v=0
15168 On ch=10 n=36 v=106
15168 On ch=10 n=42 v=106
15216 On ch=10 n=42 v=0
15216 On ch=10 n=36 v=0
15216 On ch=10 n=36 v=106
15216 On ch=10 n=42 v=106
15248 On ch=10 n=36 v=0
15264 On ch=10 n=42 v=0
15264 On ch=10 n=38 v=106
15264 On ch=10 n=42 v=106
15312 On ch=10 n=42 v=0
15312 On ch=10 n=38 v=0
15312 On ch=10 n=42 v=106
15360 On ch=10 n=42 v=0
15360 On ch=10 n=36 v=106
15360 On ch=10 n=42 v=106
15408 On ch=10 n=42 v=0
15408 On ch=10 n=36 v=0
15408 On ch=10 n=42 v=106
15456 On ch=10 n=42 v=0
15456 On ch=10 n=38 v=106
15456 On ch=10 n=42 v=106
15504 On ch=10 n=42 v=0
15504 On ch=10 n=38 v=0
15504 On ch=10 n=42 v=106
15552 On ch=10 n=42 v=0
15552 On ch=10 n=36 v=106
15552 On ch=10 n=42 v=106
15600 On ch=10 n=42 v=0
15600 On ch=10 n=36 v=0
15600 On ch=10 n=36 v=106
15600 On ch=10 n=42 v=106
15632 On ch=10 n=36 v=0
15648 On ch=10 n=42 v=0
15648 On ch=10 n=38 v=106
15648 On ch=10 n=42 v=106
15696 On ch=10 n=42 v=0
15696 On ch=10 n=38 v=0
15696 On ch=10 n=42 v=106
15744 On ch=10 n=42 v=0
15744 On ch=10 n=36 v=106
15744 On ch=10 n=42 v=106
15792 On ch=10 n=42 v=0
15792 On ch=10 n=36 v=0
15792 On ch=10 n=42 v=106
15840 On ch=10 n=42 v=0
15840 On ch=10 n=38 v=106
15840 On ch=10 n=42 v=106
15888 On ch=10 n=42 v=0
15888 On ch=10 n=38 v=0
15888 On ch=10 n=42 v=106
15936 On ch=10 n=42 v=0
15936 On ch=10 n=36 v=106
15936 On ch=10 n=42 v=106
16008 On ch=10 n=38 v=106
16056 On ch=10 n=36 v=0
16056 On ch=10 n=36 v=106
16080 On ch=10 n=38 v=0
16080 On ch=10 n=38 v=106
16128 On ch=10 n=36 v=0
16128 On ch=10 n=42 v=0
16128 On ch=10 n=42 v=106
16128 On ch=10 n=36 v=106
16128 On ch=10 n=49 v=106
16152 On ch=10 n=38 v=0
16152 On ch=10 n=38 v=106
16224 On ch=10 n=38 v=0
16224 On ch=10 n=38 v=106
16248 On ch=10 n=38 v=0
16248 On ch=10 n=38 v=106
16272 On ch=10 n=42 v=0
16272 On ch=10 n=49 v=0
16272 On ch=10 n=36 v=0
16272 On ch=10 n=42 v=106
16272 On ch=10 n=36 v=106
16272 On ch=10 n=49 v=106
16296 On ch=10 n=38 v=0
16296 On ch=10 n=38 v=106
16320 On ch=10 n=49 v=0
16320 On ch=10 n=36 v=0
16320 On ch=10 n=36 v=106
16320 On ch=10 n=49 v=106
16368 On ch=10 n=49 v=0
16368 On ch=10 n=36 v=0
16392 On ch=10 n=38 v=0
16416 On ch=10 n=42 v=0
16416 On ch=10 n=38 v=106
16416 On ch=10 n=42 v=106
16464 On ch=10 n=42 v=0
16464 On ch=10 n=38 v=0
16464 On ch=10 n=42 v=106
16512 On ch=10 n=42 v=0
16512 On ch=10 n=36 v=106
16512 On ch=10 n=42 v=106
16560 On ch=10 n=42 v=0
16560 On ch=10 n=36 v=0
16560 On ch=10 n=36 v=106
16560 On ch=10 n=42 v=106
16592 On ch=10 n=36 v=0
16608 On ch=10 n=42 v=0
16608 On ch=10 n=38 v=106
16608 On ch=10 n=42 v=106
16656 On ch=10 n=42 v=0
16656 On ch=10 n=38 v=0
16656 On ch=10 n=42 v=106
16704 On ch=10 n=42 v=0
16704 On ch=10 n=36 v=106
16704 On ch=10 n=42 v=106
16752 On ch=10 n=42 v=0
16752 On ch=10 n=36 v=0
16752 On ch=10 n=42 v=106
16800 On ch=10 n=42 v=0
16800 On ch=10 n=38 v=106
16800 On ch=10 n=42 v=106
16848 On ch=10 n=42 v=0
16848 On ch=10 n=38 v=0
16848 On ch=10 n=42 v=106
16896 On ch=10 n=42 v=0
16896 On ch=10 n=36 v=106
16896 On ch=10 n=42 v=106
16944 On ch=10 n=42 v=0
16944 On ch=10 n=36 v=0
16944 On ch=10 n=36 v=106
16944 On ch=10 n=42 v=106
16976 On ch=10 n=36 v=0
16992 On ch=10 n=42 v=0
16992 On ch=10 n=38 v=106
16992 On ch=10 n=42 v=106
17040 On ch=10 n=42 v=0
17040 On ch=10 n=38 v=0
17040 On ch=10 n=42 v=106
17088 On ch=10 n=42 v=0
17088 On ch=10 n=36 v=106
17088 On ch=10 n=42 v=106
17136 On ch=10 n=42 v=0
17136 On ch=10 n=36 v=0
17136 On ch=10 n=42 v=106
17184 On ch=10 n=42 v=0
17184 On ch=10 n=38 v=106
17184 On ch=10 n=42 v=106
17232 On ch=10 n=42 v=0
17232 On ch=10 n=38 v=0
17232 On ch=10 n=42 v=106
17280 On ch=10 n=42 v=0
17280 On ch=10 n=36 v=106
17280 On ch=10 n=42 v=106
17328 On ch=10 n=42 v=0
17328 On ch=10 n=36 v=0
17328 On ch=10 n=36 v=106
17328 On ch=10 n=42 v=106
17360 On ch=10 n=36 v=0
17376 On ch=10 n=42 v=0
17376 On ch=10 n=38 v=106
17376 On ch=10 n=42 v=106
17424 On ch=10 n=42 v=0
17424 On ch=10 n=38 v=0
17424 On ch=10 n=42 v=106
17472 On ch=10 n=42 v=0
17472 On ch=10 n=36 v=106
17472 On ch=10 n=42 v=106
17520 On ch=10 n=42 v=0
17520 On ch=10 n=36 v=0
17520 On ch=10 n=42 v=106
17568 On ch=10 n=42 v=0
17568 On ch=10 n=38 v=106
17568 On ch=10 n=42 v=106
17616 On ch=10 n=42 v=0
17616 On ch=10 n=38 v=0
17616 On ch=10 n=42 v=106
17664 On ch=10 n=42 v=0
17664 On ch=10 n=36 v=106
17664 On ch=10 n=42 v=106
17712 On ch=10 n=42 v=0
17712 On ch=10 n=36 v=0
17712 On ch=10 n=36 v=106
17712 On ch=10 n=42 v=106
17744 On ch=10 n=36 v=0
17760 On ch=10 n=42 v=0
17760 On ch=10 n=38 v=106
17760 On ch=10 n=42 v=106
17808 On ch=10 n=42 v=0
17808 On ch=10 n=38 v=0
17808 On ch=10 n=42 v=106
17856 On ch=10 n=42 v=0
17856 On ch=10 n=36 v=106
17856 On ch=10 n=42 v=106
17888 On ch=10 n=42 v=0
17904 On ch=10 n=36 v=0
17904 On ch=10 n=42 v=106
17936 On ch=10 n=42 v=0
17952 On ch=10 n=38 v=106
17952 On ch=10 n=42 v=106
18000 On ch=10 n=42 v=0
18000 On ch=10 n=38 v=0
18000 On ch=10 n=42 v=106
18048 On ch=10 n=42 v=0
18048 On ch=10 n=36 v=106
18048 On ch=10 n=42 v=106
18096 On ch=10 n=42 v=0
18096 On ch=10 n=36 v=0
18096 On ch=10 n=36 v=106
18096 On ch=10 n=42 v=106
18128 On ch=10 n=36 v=0
18144 On ch=10 n=42 v=0
18144 On ch=10 n=38 v=106
18144 On ch=10 n=42 v=106
18192 On ch=10 n=42 v=0
18192 On ch=10 n=38 v=0
18192 On ch=10 n=42 v=106
18240 On ch=10 n=42 v=0
18240 On ch=10 n=36 v=106
18240 On ch=10 n=42 v=106
18288 On ch=10 n=42 v=0
18288 On ch=10 n=36 v=0
18288 On ch=10 n=42 v=106
18336 On ch=10 n=42 v=0
18336 On ch=10 n=38 v=106
18336 On ch=10 n=42 v=106
18384 On ch=10 n=42 v=0
18384 On ch=10 n=38 v=0
18384 On ch=10 n=42 v=106
18432 On ch=10 n=42 v=0
18432 On ch=10 n=36 v=106
18432 On ch=10 n=42 v=106
18480 On ch=10 n=42 v=0
18480 On ch=10 n=36 v=0
18480 On ch=10 n=36 v=106
18480 On ch=10 n=42 v=106
18512 On ch=10 n=36 v=0
18528 On ch=10 n=42 v=0
18528 On ch=10 n=38 v=106
18528 On ch=10 n=42 v=106
18576 On ch=10 n=42 v=0
18576 On ch=10 n=38 v=0
18576 On ch=10 n=42 v=106
18624 On ch=10 n=42 v=0
18624 On ch=10 n=36 v=106
18624 On ch=10 n=42 v=106
18672 On ch=10 n=42 v=0
18672 On ch=10 n=36 v=0
18672 On ch=10 n=42 v=106
18720 On ch=10 n=42 v=0
18720 On ch=10 n=38 v=106
18720 On ch=10 n=42 v=106
18768 On ch=10 n=42 v=0
18768 On ch=10 n=38 v=0
18768 On ch=10 n=42 v=106
18816 On ch=10 n=42 v=0
18816 On ch=10 n=36 v=106
18816 On ch=10 n=42 v=106
18864 On ch=10 n=42 v=0
18864 On ch=10 n=36 v=0
18864 On ch=10 n=36 v=106
18864 On ch=10 n=42 v=106
18896 On ch=10 n=36 v=0
18912 On ch=10 n=42 v=0
18912 On ch=10 n=38 v=106
18912 On ch=10 n=42 v=106
18960 On ch=10 n=42 v=0
18960 On ch=10 n=38 v=0
18960 On ch=10 n=42 v=106
19008 On ch=10 n=42 v=0
19008 On ch=10 n=36 v=106
19008 On ch=10 n=42 v=106
19056 On ch=10 n=42 v=0
19056 On ch=10 n=36 v=0
19056 On ch=10 n=42 v=106
19104 On ch=10 n=42 v=0
19104 On ch=10 n=38 v=106
19104 On ch=10 n=42 v=106
19152 On ch=10 n=42 v=0
19152 On ch=10 n=38 v=0
19152 On ch=10 n=42 v=106
19200 On ch=10 n=42 v=0
19200 On ch=10 n=36 v=106
19200 On ch=10 n=42 v=106
19248 On ch=10 n=42 v=0
19248 On ch=10 n=36 v=0
19248 On ch=10 n=36 v=106
19248 On ch=10 n=42 v=106
19280 On ch=10 n=36 v=0
19296 On ch=10 n=42 v=0
19296 On ch=10 n=38 v=106
19296 On ch=10 n=42 v=106
19344 On ch=10 n=42 v=0
19344 On ch=10 n=38 v=0
19344 On ch=10 n=42 v=106
19392 On ch=10 n=42 v=0
19392 On ch=10 n=36 v=106
19392 On ch=10 n=42 v=106
19440 On ch=10 n=42 v=0
19440 On ch=10 n=36 v=0
19440 On ch=10 n=42 v=106
19488 On ch=10 n=42 v=0
19488 On ch=10 n=38 v=106
19488 On ch=10 n=42 v=106
19536 On ch=10 n=42 v=0
19536 On ch=10 n=38 v=0
19536 On ch=10 n=42 v=106
19584 On ch=10 n=42 v=0
19584 On ch=10 n=36 v=106
19584 On ch=10 n=42 v=106
19632 On ch=10 n=42 v=0
19632 On ch=10 n=36 v=0
19632 On ch=10 n=36 v=106
19632 On ch=10 n=42 v=106
19664 On ch=10 n=36 v=0
19680 On ch=10 n=42 v=0
19680 On ch=10 n=38 v=106
19680 On ch=10 n=42 v=106
19728 On ch=10 n=42 v=0
19728 On ch=10 n=38 v=0
19728 On ch=10 n=42 v=106
19776 On ch=10 n=42 v=0
19776 On ch=10 n=36 v=106
19776 On ch=10 n=42 v=106
19824 On ch=10 n=42 v=0
19824 On ch=10 n=36 v=0
19824 On ch=10 n=42 v=106
19872 On ch=10 n=42 v=0
19872 On ch=10 n=38 v=106
19872 On ch=10 n=42 v=106
19920 On ch=10 n=42 v=0
19920 On ch=10 n=38 v=0
19920 On ch=10 n=42 v=106
19968 On ch=10 n=42 v=0
19968 On ch=10 n=36 v=106
19968 On ch=10 n=42 v=106
20016 On ch=10 n=42 v=0
20016 On ch=10 n=36 v=0
20016 On ch=10 n=36 v=106
20016 On ch=10 n=42 v=106
20048 On ch=10 n=36 v=0
20064 On ch=10 n=42 v=0
20064 On ch=10 n=38 v=106
20064 On ch=10 n=42 v=106
20112 On ch=10 n=42 v=0
20112 On ch=10 n=38 v=0
20112 On ch=10 n=42 v=106
20160 On ch=10 n=42 v=0
20160 On ch=10 n=36 v=106
20160 On ch=10 n=42 v=106
20208 On ch=10 n=42 v=0
20208 On ch=10 n=36 v=0
20208 On ch=10 n=42 v=106
20256 On ch=10 n=42 v=0
20256 On ch=10 n=38 v=106
20256 On ch=10 n=42 v=106
20304 On ch=10 n=42 v=0
20304 On ch=10 n=38 v=0
20304 On ch=10 n=42 v=106
20352 On ch=10 n=42 v=0
20352 On ch=10 n=36 v=106
20352 On ch=10 n=42 v=106
20400 On ch=10 n=42 v=0
20400 On ch=10 n=36 v=0
20400 On ch=10 n=36 v=106
20400 On ch=10 n=42 v=106
20432 On ch=10 n=36 v=0
20448 On ch=10 n=42 v=0
20448 On ch=10 n=38 v=106
20448 On ch=10 n=42 v=106
20496 On ch=10 n=42 v=0
20496 On ch=10 n=38 v=0
20496 On ch=10 n=42 v=106
20544 On ch=10 n=42 v=0
20544 On ch=10 n=36 v=106
20544 On ch=10 n=42 v=106
20592 On ch=10 n=42 v=0
20592 On ch=10 n=36 v=0
20592 On ch=10 n=42 v=106
20640 On ch=10 n=42 v=0
20640 On ch=10 n=38 v=106
20640 On ch=10 n=42 v=106
20688 On ch=10 n=42 v=0
20688 On ch=10 n=38 v=0
20688 On ch=10 n=42 v=106
20736 On ch=10 n=42 v=0
20736 On ch=10 n=36 v=106
20736 On ch=10 n=42 v=106
20784 On ch=10 n=42 v=0
20784 On ch=10 n=36 v=0
20784 On ch=10 n=36 v=106
20784 On ch=10 n=42 v=106
20816 On ch=10 n=36 v=0
20832 On ch=10 n=42 v=0
20832 On ch=10 n=38 v=106
20832 On ch=10 n=42 v=106
20880 On ch=10 n=42 v=0
20880 On ch=10 n=38 v=0
20880 On ch=10 n=42 v=106
20928 On ch=10 n=42 v=0
20928 On ch=10 n=36 v=106
20928 On ch=10 n=42 v=106
20928 On ch=10 n=49 v=106
20976 On ch=10 n=42 v=0
20976 On ch=10 n=36 v=0
20992 On ch=10 n=49 v=0
21696 On ch=10 n=36 v=106
21696 On ch=10 n=42 v=106
21696 On ch=10 n=49 v=106
21744 On ch=10 n=42 v=0
21744 On ch=10 n=36 v=0
22080 On ch=10 n=49 v=0
22080 Meta TrkEnd
TrkEnd
MTrk
0 Meta 0x21 00
0 Meta TrkName "\"Long Distance Runaround\""
0 Meta TrkEnd
TrkEnd
MTrk
0 Meta 0x21 00
0 Meta TrkName "               by Yes"
0 Meta TrkEnd
TrkEnd
MTrk
0 Meta 0x21 00
0 Meta TrkName "   Seq. by Norma Williams"
0 Meta TrkEnd
TrkEnd
