MFile 1 12 480
MTrk
0 Meta SeqName "Our Song - YES"
0 TimeSig 4/4 24 8
0 Tempo 365853
3840 TimeSig 3/4 24 8
5280 TimeSig 4/4 24 8
7200 TimeSig 3/4 24 8
8640 TimeSig 4/4 24 8
10560 TimeSig 2/4 24 8
11520 TimeSig 3/4 24 8
12960 TimeSig 4/4 24 8
16800 TimeSig 3/4 24 8
18240 TimeSig 4/4 24 8
20160 TimeSig 3/4 24 8
21600 TimeSig 4/4 24 8
23520 TimeSig 2/4 24 8
24480 TimeSig 3/4 24 8
25920 TimeSig 2/4 24 8
26880 TimeSig 3/8 24 4
27600 TimeSig 4/4 24 8
29520 TimeSig 3/4 24 8
30960 TimeSig 4/4 24 8
32880 TimeSig 3/4 24 8
34320 TimeSig 4/4 24 8
36240 TimeSig 3/8 24 4
36960 TimeSig 3/4 24 8
38400 TimeSig 4/4 24 8
42240 TimeSig 3/4 24 8
43680 TimeSig 4/4 24 8
45600 TimeSig 3/4 24 8
47040 TimeSig 4/4 24 8
48960 TimeSig 2/4 24 8
49920 TimeSig 3/4 24 8
58560 TimeSig 4/4 24 8
60480 TimeSig 3/4 24 8
66240 TimeSig 4/4 24 8
68160 TimeSig 3/4 24 8
73920 TimeSig 4/4 24 8
75840 TimeSig 3/4 24 8
81600 TimeSig 4/4 24 8
83520 TimeSig 3/4 24 8
89280 TimeSig 4/4 24 8
91200 TimeSig 3/4 24 8
94080 TimeSig 4/4 24 8
140160 TimeSig 3/4 24 8
148800 TimeSig 4/4 24 8
150720 TimeSig 3/4 24 8
156480 TimeSig 4/4 24 8
158400 TimeSig 3/4 24 8
164160 TimeSig 4/4 24 8
166080 TimeSig 3/4 24 8
171840 TimeSig 4/4 24 8
173760 TimeSig 3/4 24 8
179520 TimeSig 4/4 24 8
181440 TimeSig 3/4 24 8
184320 TimeSig 4/4 24 8
203520 TimeSig 3/4 24 8
204960 TimeSig 4/4 24 8
206880 TimeSig 3/4 24 8
208320 TimeSig 4/4 24 8
210240 TimeSig 2/4 24 8
211200 TimeSig 3/4 24 8
212640 TimeSig 4/4 24 8
216480 TimeSig 3/4 24 8
217920 TimeSig 4/4 24 8
219840 TimeSig 3/4 24 8
221280 TimeSig 4/4 24 8
223200 TimeSig 2/4 24 8
224160 TimeSig 4/4 24 8
226080 TimeSig 2/4 24 8
227040 TimeSig 4/4 24 8
228960 TimeSig 2/4 24 8
229920 TimeSig 4/4 24 8
231840 TimeSig 2/4 24 8
232800 TimeSig 3/4 24 8
237120 TimeSig 4/4 24 8
296640 TimeSig 3/4 24 8
298080 TimeSig 4/4 24 8
300000 TimeSig 3/4 24 8
301440 TimeSig 4/4 24 8
303360 TimeSig 2/4 24 8
304320 TimeSig 3/4 24 8
305760 TimeSig 2/4 24 8
306720 TimeSig 3/8 24 4
307440 TimeSig 4/4 24 8
309360 TimeSig 3/4 24 8
310800 TimeSig 4/4 24 8
318480 TimeSig 3/4 24 8
321360 TimeSig 4/4 24 8
329040 Meta TrkEnd
TrkEnd
MTrk
0 Meta TrkName "Anderson"
0 Meta 0x20 00
0 Meta InstrName "Anderson"
0 KeySig 0 major
10 Par ch=1 c=0 v=0
15 Par ch=1 c=32 v=0
20 PrCh ch=1 p=17
25 Par ch=1 c=7 v=110
30 Par ch=1 c=10 v=64
35 Par ch=1 c=91 v=64
40 Par ch=1 c=93 v=0
45 Par ch=1 c=101 v=0
45 Par ch=1 c=100 v=0
45 Par ch=1 c=6 v=2
50 Par ch=1 c=99 v=1
50 Par ch=1 c=98 v=8
50 Par ch=1 c=6 v=64
55 Par ch=1 c=99 v=1
55 Par ch=1 c=98 v=9
55 Par ch=1 c=6 v=64
60 Par ch=1 c=99 v=1
60 Par ch=1 c=98 v=10
60 Par ch=1 c=6 v=64
65 Par ch=1 c=99 v=1
65 Par ch=1 c=98 v=32
65 Par ch=1 c=6 v=64
70 Par ch=1 c=99 v=1
70 Par ch=1 c=98 v=33
70 Par ch=1 c=6 v=64
75 Par ch=1 c=99 v=1
75 Par ch=1 c=98 v=99
75 Par ch=1 c=6 v=64
80 Par ch=1 c=99 v=1
80 Par ch=1 c=98 v=100
80 Par ch=1 c=6 v=64
85 Par ch=1 c=99 v=1
85 Par ch=1 c=98 v=102
85 Par ch=1 c=6 v=64
69840 On ch=1 n=78 v=126
70032 Off ch=1 n=78 v=126
70080 On ch=1 n=78 v=126
70272 Off ch=1 n=78 v=126
70320 On ch=1 n=79 v=126
70512 Off ch=1 n=79 v=126
70560 On ch=1 n=81 v=126
70944 Off ch=1 n=81 v=126
71040 On ch=1 n=81 v=126
71424 Off ch=1 n=81 v=126
71520 On ch=1 n=80 v=126
71712 Off ch=1 n=80 v=126
71760 On ch=1 n=80 v=126
72202 Off ch=1 n=80 v=126
72240 On ch=1 n=80 v=126
72432 Off ch=1 n=80 v=126
72480 On ch=1 n=81 v=126
72864 Off ch=1 n=81 v=126
72960 On ch=1 n=81 v=126
73344 Off ch=1 n=81 v=126
73440 On ch=1 n=79 v=126
73632 Off ch=1 n=79 v=126
73680 On ch=1 n=81 v=126
74112 Off ch=1 n=81 v=126
74160 On ch=1 n=78 v=126
74352 Off ch=1 n=78 v=126
74400 On ch=1 n=81 v=126
74784 Off ch=1 n=81 v=126
74880 On ch=1 n=81 v=126
75264 Off ch=1 n=81 v=126
75360 On ch=1 n=83 v=126
75744 Off ch=1 n=83 v=126
75840 On ch=1 n=81 v=126
76224 Off ch=1 n=81 v=126
77520 On ch=1 n=78 v=126
77712 Off ch=1 n=78 v=126
77760 On ch=1 n=78 v=126
77952 Off ch=1 n=78 v=126
78000 On ch=1 n=80 v=102
78192 Off ch=1 n=80 v=102
78240 On ch=1 n=81 v=126
78624 Off ch=1 n=81 v=126
78720 On ch=1 n=81 v=126
79104 Off ch=1 n=81 v=126
79200 On ch=1 n=80 v=126
79392 Off ch=1 n=80 v=126
79440 On ch=1 n=80 v=126
79882 Off ch=1 n=80 v=126
79920 On ch=1 n=80 v=126
80112 Off ch=1 n=80 v=126
80160 On ch=1 n=81 v=126
80544 Off ch=1 n=81 v=126
80640 On ch=1 n=81 v=126
80832 Off ch=1 n=81 v=126
80880 On ch=1 n=81 v=126
81341 Off ch=1 n=81 v=126
81360 On ch=1 n=76 v=126
81552 Off ch=1 n=76 v=126
81600 On ch=1 n=81 v=126
81792 Off ch=1 n=81 v=126
82080 On ch=1 n=78 v=126
82272 Off ch=1 n=78 v=126
82320 On ch=1 n=81 v=126
82800 Off ch=1 n=81 v=126
82800 On ch=1 n=81 v=126
82992 Off ch=1 n=81 v=126
83040 On ch=1 n=81 v=126
83232 Off ch=1 n=81 v=126
83280 On ch=1 n=83 v=126
83712 Off ch=1 n=83 v=126
83760 On ch=1 n=81 v=127
84885 Off ch=1 n=81 v=127
84960 On ch=1 n=81 v=126
85536 Off ch=1 n=81 v=126
85680 On ch=1 n=81 v=126
86400 Off ch=1 n=81 v=126
86400 On ch=1 n=80 v=126
86976 Off ch=1 n=80 v=126
87120 On ch=1 n=80 v=126
87840 Off ch=1 n=80 v=126
87840 On ch=1 n=79 v=126
88416 Off ch=1 n=79 v=126
88560 On ch=1 n=79 v=126
89280 Off ch=1 n=79 v=126
89280 On ch=1 n=81 v=126
89856 Off ch=1 n=81 v=126
90000 On ch=1 n=78 v=126
91200 Off ch=1 n=78 v=126
92640 On ch=1 n=81 v=126
93216 Off ch=1 n=81 v=126
93360 On ch=1 n=81 v=126
94080 Off ch=1 n=81 v=126
94080 On ch=1 n=80 v=126
94656 Off ch=1 n=80 v=126
94800 On ch=1 n=80 v=126
95520 Off ch=1 n=80 v=126
95520 On ch=1 n=81 v=126
95712 Off ch=1 n=81 v=126
95760 On ch=1 n=81 v=126
95952 Off ch=1 n=81 v=126
96000 On ch=1 n=81 v=126
96384 Off ch=1 n=81 v=126
96480 On ch=1 n=81 v=126
96672 Off ch=1 n=81 v=126
96720 On ch=1 n=83 v=126
97200 Off ch=1 n=83 v=126
97200 On ch=1 n=81 v=126
97584 Off ch=1 n=81 v=126
99600 On ch=1 n=83 v=126
99792 Off ch=1 n=83 v=126
99840 On ch=1 n=83 v=126
100032 Off ch=1 n=83 v=126
100080 On ch=1 n=83 v=126
100272 Off ch=1 n=83 v=126
100320 On ch=1 n=83 v=126
100512 Off ch=1 n=83 v=126
100560 On ch=1 n=83 v=126
100752 Off ch=1 n=83 v=126
100800 On ch=1 n=83 v=126
101184 Off ch=1 n=83 v=126
101280 On ch=1 n=81 v=126
101664 Off ch=1 n=81 v=126
103440 On ch=1 n=83 v=126
103632 Off ch=1 n=83 v=126
103680 On ch=1 n=83 v=126
103872 Off ch=1 n=83 v=126
103920 On ch=1 n=83 v=126
104112 Off ch=1 n=83 v=126
104160 On ch=1 n=83 v=126
104352 Off ch=1 n=83 v=126
104400 On ch=1 n=83 v=126
104592 Off ch=1 n=83 v=126
104640 On ch=1 n=83 v=126
104832 Off ch=1 n=83 v=126
104880 On ch=1 n=86 v=126
105264 Off ch=1 n=86 v=126
105360 On ch=1 n=81 v=126
105984 Off ch=1 n=81 v=126
107280 On ch=1 n=83 v=126
107472 Off ch=1 n=83 v=126
107520 On ch=1 n=83 v=126
107712 Off ch=1 n=83 v=126
107760 On ch=1 n=83 v=126
107952 Off ch=1 n=83 v=126
108000 On ch=1 n=83 v=126
108192 Off ch=1 n=83 v=126
108240 On ch=1 n=83 v=126
108432 Off ch=1 n=83 v=126
108480 On ch=1 n=83 v=126
108864 Off ch=1 n=83 v=126
108960 On ch=1 n=83 v=126
109152 Off ch=1 n=83 v=126
109200 On ch=1 n=86 v=126
109632 Off ch=1 n=86 v=126
109680 On ch=1 n=83 v=126
110064 Off ch=1 n=83 v=126
110160 On ch=1 n=81 v=126
110352 Off ch=1 n=81 v=126
110400 On ch=1 n=81 v=126
110592 Off ch=1 n=81 v=126
110880 On ch=1 n=81 v=126
111072 Off ch=1 n=81 v=126
111120 On ch=1 n=86 v=126
111552 Off ch=1 n=86 v=126
111600 On ch=1 n=83 v=126
111984 Off ch=1 n=83 v=126
112080 On ch=1 n=81 v=126
112560 Off ch=1 n=81 v=126
112560 On ch=1 n=83 v=126
113136 Off ch=1 n=83 v=126
114240 On ch=1 n=83 v=126
115008 Off ch=1 n=83 v=126
115200 On ch=1 n=81 v=127
116636 Off ch=1 n=81 v=127
118563 On ch=1 n=83 v=126
118972 Off ch=1 n=83 v=126
119040 On ch=1 n=84 v=126
119424 Off ch=1 n=84 v=126
119520 On ch=1 n=84 v=126
119904 Off ch=1 n=84 v=126
120000 On ch=1 n=83 v=126
120384 Off ch=1 n=83 v=126
120480 On ch=1 n=83 v=126
120864 Off ch=1 n=83 v=126
120960 On ch=1 n=81 v=126
121344 Off ch=1 n=81 v=126
121920 On ch=1 n=83 v=126
122688 Off ch=1 n=83 v=126
122880 On ch=1 n=81 v=126
124306 Off ch=1 n=81 v=126
126240 On ch=1 n=83 v=126
126624 Off ch=1 n=83 v=126
126720 On ch=1 n=86 v=126
127104 Off ch=1 n=86 v=126
127200 On ch=1 n=85 v=126
127584 Off ch=1 n=85 v=126
127680 On ch=1 n=83 v=126
128064 Off ch=1 n=83 v=126
128160 On ch=1 n=81 v=126
128256 Off ch=1 n=81 v=126
128280 On ch=1 n=83 v=126
128376 Off ch=1 n=83 v=126
128400 On ch=1 n=81 v=126
128592 Off ch=1 n=81 v=126
128640 On ch=1 n=79 v=125
129567 Off ch=1 n=79 v=125
130560 On ch=1 n=83 v=126
130944 Off ch=1 n=83 v=126
131040 On ch=1 n=81 v=126
131424 Off ch=1 n=81 v=126
132000 On ch=1 n=79 v=126
132384 Off ch=1 n=79 v=126
132480 On ch=1 n=83 v=126
132864 Off ch=1 n=83 v=126
132960 On ch=1 n=81 v=126
133344 Off ch=1 n=81 v=126
133920 On ch=1 n=83 v=126
134304 Off ch=1 n=83 v=126
134400 On ch=1 n=84 v=126
134784 Off ch=1 n=84 v=126
134880 On ch=1 n=83 v=126
135264 Off ch=1 n=83 v=126
135360 On ch=1 n=84 v=126
135744 Off ch=1 n=84 v=126
135840 On ch=1 n=83 v=126
136224 Off ch=1 n=83 v=126
136320 On ch=1 n=81 v=126
136416 Off ch=1 n=81 v=126
136440 On ch=1 n=83 v=126
136536 Off ch=1 n=83 v=126
136560 On ch=1 n=81 v=126
136752 Off ch=1 n=81 v=126
136800 On ch=1 n=79 v=126
137985 Off ch=1 n=79 v=126
160320 On ch=1 n=78 v=126
160512 Off ch=1 n=78 v=126
160560 On ch=1 n=80 v=126
160752 Off ch=1 n=80 v=126
160800 On ch=1 n=81 v=126
161184 Off ch=1 n=81 v=126
161280 On ch=1 n=81 v=126
161664 Off ch=1 n=81 v=126
161760 On ch=1 n=80 v=126
161952 Off ch=1 n=80 v=126
162000 On ch=1 n=80 v=126
162420 Off ch=1 n=80 v=126
162480 On ch=1 n=80 v=126
162672 Off ch=1 n=80 v=126
162720 On ch=1 n=81 v=126
163104 Off ch=1 n=81 v=126
163200 On ch=1 n=81 v=126
163584 Off ch=1 n=81 v=126
163686 On ch=1 n=81 v=126
164118 Off ch=1 n=81 v=126
164160 On ch=1 n=81 v=126
164544 Off ch=1 n=81 v=126
164640 On ch=1 n=81 v=126
165024 Off ch=1 n=81 v=126
165120 On ch=1 n=81 v=126
165504 Off ch=1 n=81 v=126
165599 On ch=1 n=79 v=126
165791 Off ch=1 n=79 v=126
165840 On ch=1 n=78 v=126
166032 Off ch=1 n=78 v=126
167760 On ch=1 n=78 v=126
167952 Off ch=1 n=78 v=126
168000 On ch=1 n=78 v=126
168192 Off ch=1 n=78 v=126
168240 On ch=1 n=80 v=126
168432 Off ch=1 n=80 v=126
168480 On ch=1 n=81 v=126
168864 Off ch=1 n=81 v=126
168960 On ch=1 n=81 v=126
169344 Off ch=1 n=81 v=126
169440 On ch=1 n=80 v=126
169632 Off ch=1 n=80 v=126
169680 On ch=1 n=80 v=126
170262 Off ch=1 n=80 v=126
170400 On ch=1 n=81 v=125
170618 Off ch=1 n=81 v=125
170642 On ch=1 n=81 v=126
170834 Off ch=1 n=81 v=126
170880 On ch=1 n=81 v=126
171242 Off ch=1 n=81 v=126
171365 On ch=1 n=81 v=126
171713 Off ch=1 n=81 v=126
171845 On ch=1 n=83 v=126
172183 Off ch=1 n=83 v=126
172320 On ch=1 n=86 v=126
172512 Off ch=1 n=86 v=126
172560 On ch=1 n=83 v=126
173020 Off ch=1 n=83 v=126
173040 On ch=1 n=81 v=126
173232 Off ch=1 n=81 v=126
173280 On ch=1 n=81 v=126
173472 Off ch=1 n=81 v=126
175200 On ch=1 n=81 v=126
175776 Off ch=1 n=81 v=126
175920 On ch=1 n=81 v=126
176640 Off ch=1 n=81 v=126
176640 On ch=1 n=83 v=126
177216 Off ch=1 n=83 v=126
177360 On ch=1 n=83 v=126
178080 Off ch=1 n=83 v=126
178080 On ch=1 n=84 v=126
178656 Off ch=1 n=84 v=126
178800 On ch=1 n=84 v=126
179520 Off ch=1 n=84 v=126
179520 On ch=1 n=83 v=126
180096 Off ch=1 n=83 v=126
180240 On ch=1 n=81 v=126
181440 Off ch=1 n=81 v=126
182880 On ch=1 n=81 v=126
183456 Off ch=1 n=81 v=126
183600 On ch=1 n=81 v=126
184320 Off ch=1 n=81 v=126
184320 On ch=1 n=83 v=126
184896 Off ch=1 n=83 v=126
185040 On ch=1 n=83 v=126
185541 Off ch=1 n=83 v=126
186240 On ch=1 n=83 v=126
186432 Off ch=1 n=83 v=126
186480 On ch=1 n=83 v=126
186672 Off ch=1 n=83 v=126
186720 On ch=1 n=83 v=126
186912 Off ch=1 n=83 v=126
186960 On ch=1 n=83 v=126
187152 Off ch=1 n=83 v=126
187200 On ch=1 n=83 v=126
187584 Off ch=1 n=83 v=126
187680 On ch=1 n=84 v=126
187872 Off ch=1 n=84 v=126
187920 On ch=1 n=81 v=126
188544 Off ch=1 n=81 v=126
189840 On ch=1 n=83 v=126
190032 Off ch=1 n=83 v=126
190080 On ch=1 n=83 v=126
190272 Off ch=1 n=83 v=126
190320 On ch=1 n=83 v=126
190512 Off ch=1 n=83 v=126
190560 On ch=1 n=83 v=126
190752 Off ch=1 n=83 v=126
190800 On ch=1 n=83 v=126
190992 Off ch=1 n=83 v=126
191040 On ch=1 n=83 v=126
191232 Off ch=1 n=83 v=126
191280 On ch=1 n=86 v=126
191664 Off ch=1 n=86 v=126
191760 On ch=1 n=81 v=126
192384 Off ch=1 n=81 v=126
193920 On ch=1 n=84 v=124
194137 Off ch=1 n=84 v=124
194160 On ch=1 n=84 v=126
194352 Off ch=1 n=84 v=126
194400 On ch=1 n=84 v=126
194592 Off ch=1 n=84 v=126
194640 On ch=1 n=83 v=126
194832 Off ch=1 n=83 v=126
194880 On ch=1 n=81 v=126
195264 Off ch=1 n=81 v=126
195360 On ch=1 n=83 v=126
195552 Off ch=1 n=83 v=126
195600 On ch=1 n=84 v=126
196032 Off ch=1 n=84 v=126
196080 On ch=1 n=84 v=126
196464 Off ch=1 n=84 v=126
196560 On ch=1 n=83 v=126
196752 Off ch=1 n=83 v=126
196800 On ch=1 n=81 v=126
197184 Off ch=1 n=81 v=126
197280 On ch=1 n=83 v=126
197472 Off ch=1 n=83 v=126
197520 On ch=1 n=83 v=126
197712 Off ch=1 n=83 v=126
197760 On ch=1 n=84 v=126
197952 Off ch=1 n=84 v=126
198000 On ch=1 n=84 v=126
198192 Off ch=1 n=84 v=126
198240 On ch=1 n=84 v=126
198432 Off ch=1 n=84 v=126
198480 On ch=1 n=83 v=126
198672 Off ch=1 n=83 v=126
198720 On ch=1 n=81 v=126
199104 Off ch=1 n=81 v=126
199200 On ch=1 n=83 v=126
199392 Off ch=1 n=83 v=126
199440 On ch=1 n=81 v=126
200064 Off ch=1 n=81 v=126
200640 On ch=1 n=83 v=126
201024 Off ch=1 n=83 v=126
201120 On ch=1 n=83 v=126
201504 Off ch=1 n=83 v=126
201600 On ch=1 n=85 v=126
203136 Off ch=1 n=85 v=126
238080 On ch=1 n=83 v=126
238848 Off ch=1 n=83 v=126
239040 On ch=1 n=81 v=124
240451 Off ch=1 n=81 v=124
242400 On ch=1 n=83 v=126
242784 Off ch=1 n=83 v=126
242880 On ch=1 n=84 v=126
243264 Off ch=1 n=84 v=126
243360 On ch=1 n=84 v=126
243744 Off ch=1 n=84 v=126
243840 On ch=1 n=83 v=126
244224 Off ch=1 n=83 v=126
244320 On ch=1 n=83 v=126
244704 Off ch=1 n=83 v=126
244800 On ch=1 n=81 v=126
245184 Off ch=1 n=81 v=126
245760 On ch=1 n=83 v=126
246528 Off ch=1 n=83 v=126
246720 On ch=1 n=81 v=123
248146 Off ch=1 n=81 v=123
250080 On ch=1 n=86 v=126
250464 Off ch=1 n=86 v=126
250560 On ch=1 n=86 v=126
250944 Off ch=1 n=86 v=126
251040 On ch=1 n=85 v=126
251424 Off ch=1 n=85 v=126
251520 On ch=1 n=83 v=126
251904 Off ch=1 n=83 v=126
252000 On ch=1 n=81 v=126
252096 Off ch=1 n=81 v=126
252120 On ch=1 n=83 v=126
252216 Off ch=1 n=83 v=126
252240 On ch=1 n=81 v=126
252432 Off ch=1 n=81 v=126
252480 On ch=1 n=79 v=127
253186 Off ch=1 n=79 v=127
254400 On ch=1 n=83 v=126
254784 Off ch=1 n=83 v=126
254880 On ch=1 n=81 v=126
255264 Off ch=1 n=81 v=126
255840 On ch=1 n=79 v=126
256224 Off ch=1 n=79 v=126
256320 On ch=1 n=83 v=126
256704 Off ch=1 n=83 v=126
256800 On ch=1 n=81 v=126
257184 Off ch=1 n=81 v=126
257760 On ch=1 n=83 v=126
258144 Off ch=1 n=83 v=126
258240 On ch=1 n=84 v=126
258624 Off ch=1 n=84 v=126
258720 On ch=1 n=84 v=126
259104 Off ch=1 n=84 v=126
259200 On ch=1 n=84 v=126
259584 Off ch=1 n=84 v=126
259680 On ch=1 n=83 v=126
260064 Off ch=1 n=83 v=126
260160 On ch=1 n=81 v=126
260256 Off ch=1 n=81 v=126
260280 On ch=1 n=83 v=126
260376 Off ch=1 n=83 v=126
260400 On ch=1 n=81 v=126
260592 Off ch=1 n=81 v=126
260640 On ch=1 n=79 v=126
261408 Off ch=1 n=79 v=126
264000 On ch=1 n=79 v=126
264192 Off ch=1 n=79 v=126
264240 On ch=1 n=79 v=126
264624 Off ch=1 n=79 v=126
264720 On ch=1 n=79 v=126
265437 Off ch=1 n=79 v=126
267840 On ch=1 n=79 v=126
268032 Off ch=1 n=79 v=126
268080 On ch=1 n=79 v=126
268464 Off ch=1 n=79 v=126
268560 On ch=1 n=79 v=126
269020 Off ch=1 n=79 v=126
269040 On ch=1 n=79 v=126
269424 Off ch=1 n=79 v=126
271440 On ch=1 n=81 v=126
271632 Off ch=1 n=81 v=126
271680 On ch=1 n=81 v=126
271872 Off ch=1 n=81 v=126
271920 On ch=1 n=81 v=126
272112 Off ch=1 n=81 v=126
272160 On ch=1 n=81 v=126
272352 Off ch=1 n=81 v=126
272400 On ch=1 n=81 v=126
272592 Off ch=1 n=81 v=126
272640 On ch=1 n=83 v=126
273024 Off ch=1 n=83 v=126
273120 On ch=1 n=81 v=126
273504 Off ch=1 n=81 v=126
275280 On ch=1 n=81 v=126
275472 Off ch=1 n=81 v=126
275520 On ch=1 n=81 v=126
275712 Off ch=1 n=81 v=126
275760 On ch=1 n=81 v=126
275952 Off ch=1 n=81 v=126
276000 On ch=1 n=81 v=126
276192 Off ch=1 n=81 v=126
276240 On ch=1 n=81 v=126
276432 Off ch=1 n=81 v=126
276480 On ch=1 n=83 v=126
276864 Off ch=1 n=83 v=126
276960 On ch=1 n=81 v=126
277344 Off ch=1 n=81 v=126
278640 On ch=1 n=84 v=126
278832 Off ch=1 n=84 v=126
278880 On ch=1 n=84 v=126
279264 Off ch=1 n=84 v=126
279360 On ch=1 n=84 v=126
279552 Off ch=1 n=84 v=126
279600 On ch=1 n=84 v=126
279792 Off ch=1 n=84 v=126
280560 On ch=1 n=84 v=126
280752 Off ch=1 n=84 v=126
280800 On ch=1 n=84 v=126
281184 Off ch=1 n=84 v=126
281280 On ch=1 n=84 v=126
281472 Off ch=1 n=84 v=126
281520 On ch=1 n=84 v=126
281712 Off ch=1 n=84 v=126
283200 On ch=1 n=84 v=126
283584 Off ch=1 n=84 v=126
283680 On ch=1 n=84 v=126
283872 Off ch=1 n=84 v=126
283920 On ch=1 n=84 v=126
284112 Off ch=1 n=84 v=126
284160 On ch=1 n=84 v=126
284544 Off ch=1 n=84 v=126
284640 On ch=1 n=84 v=126
284832 Off ch=1 n=84 v=126
284880 On ch=1 n=81 v=126
285072 Off ch=1 n=81 v=126
285120 On ch=1 n=84 v=126
285312 Off ch=1 n=84 v=126
285360 On ch=1 n=84 v=126
285552 Off ch=1 n=84 v=126
285600 On ch=1 n=84 v=126
285984 Off ch=1 n=84 v=126
286080 On ch=1 n=84 v=126
286464 Off ch=1 n=84 v=126
287040 On ch=1 n=84 v=126
287424 Off ch=1 n=84 v=126
287520 On ch=1 n=84 v=126
287904 Off ch=1 n=84 v=126
288720 On ch=1 n=86 v=126
289152 Off ch=1 n=86 v=126
289200 On ch=1 n=84 v=125
289573 Off ch=1 n=84 v=125
289676 On ch=1 n=84 v=126
290060 Off ch=1 n=84 v=126
290880 On ch=1 n=84 v=126
291264 Off ch=1 n=84 v=126
291360 On ch=1 n=84 v=126
291744 Off ch=1 n=84 v=126
292560 On ch=1 n=86 v=126
292992 Off ch=1 n=86 v=126
293040 On ch=1 n=84 v=125
293408 Off ch=1 n=84 v=125
293526 On ch=1 n=84 v=126
293910 Off ch=1 n=84 v=126
329040 Meta TrkEnd
TrkEnd
MTrk
0 Meta TrkName "Vocals"
0 Meta 0x20 01
0 Meta InstrName "Vocals"
0 KeySig 0 major
90 Par ch=2 c=0 v=0
95 Par ch=2 c=32 v=0
100 PrCh ch=2 p=17
105 Par ch=2 c=7 v=78
110 Par ch=2 c=10 v=64
115 Par ch=2 c=91 v=52
120 Par ch=2 c=93 v=0
125 Par ch=2 c=101 v=0
125 Par ch=2 c=100 v=0
125 Par ch=2 c=6 v=2
130 Par ch=2 c=99 v=1
130 Par ch=2 c=98 v=8
130 Par ch=2 c=6 v=64
135 Par ch=2 c=99 v=1
135 Par ch=2 c=98 v=9
135 Par ch=2 c=6 v=64
140 Par ch=2 c=99 v=1
140 Par ch=2 c=98 v=10
140 Par ch=2 c=6 v=64
145 Par ch=2 c=99 v=1
145 Par ch=2 c=98 v=32
145 Par ch=2 c=6 v=64
150 Par ch=2 c=99 v=1
150 Par ch=2 c=98 v=33
150 Par ch=2 c=6 v=64
155 Par ch=2 c=99 v=1
155 Par ch=2 c=98 v=99
155 Par ch=2 c=6 v=64
160 Par ch=2 c=99 v=1
160 Par ch=2 c=98 v=100
160 Par ch=2 c=6 v=64
165 Par ch=2 c=99 v=1
165 Par ch=2 c=98 v=102
165 Par ch=2 c=6 v=64
69853 On ch=2 n=74 v=97
70035 Off ch=2 n=74 v=97
70087 On ch=2 n=74 v=75
70304 Off ch=2 n=74 v=75
70333 On ch=2 n=76 v=73
70506 Off ch=2 n=76 v=73
70568 On ch=2 n=78 v=90
70863 Off ch=2 n=78 v=90
71041 On ch=2 n=78 v=95
71231 Off ch=2 n=78 v=95
71526 On ch=2 n=76 v=88
71666 Off ch=2 n=76 v=88
71771 On ch=2 n=76 v=73
72103 Off ch=2 n=76 v=73
72246 On ch=2 n=74 v=81
72425 Off ch=2 n=74 v=81
72479 On ch=2 n=76 v=83
72802 Off ch=2 n=76 v=83
72960 On ch=2 n=76 v=75
73262 Off ch=2 n=76 v=75
73446 On ch=2 n=76 v=76
73655 Off ch=2 n=76 v=76
73681 On ch=2 n=76 v=70
74139 Off ch=2 n=76 v=70
74172 On ch=2 n=78 v=83
74384 Off ch=2 n=78 v=83
74402 On ch=2 n=78 v=75
74716 Off ch=2 n=78 v=75
74879 On ch=2 n=78 v=78
75234 Off ch=2 n=78 v=78
75360 On ch=2 n=79 v=72
75686 Off ch=2 n=79 v=72
75801 On ch=2 n=78 v=68
76276 Off ch=2 n=78 v=68
77521 On ch=2 n=74 v=98
77721 Off ch=2 n=74 v=98
77767 On ch=2 n=74 v=75
77984 Off ch=2 n=74 v=75
78013 On ch=2 n=76 v=73
78186 Off ch=2 n=76 v=73
78248 On ch=2 n=78 v=90
78543 Off ch=2 n=78 v=90
78721 On ch=2 n=78 v=96
79032 Off ch=2 n=78 v=96
79206 On ch=2 n=76 v=88
79395 Off ch=2 n=76 v=88
79451 On ch=2 n=76 v=72
79851 Off ch=2 n=76 v=72
79926 On ch=2 n=74 v=81
80105 Off ch=2 n=74 v=81
80159 On ch=2 n=76 v=83
80482 Off ch=2 n=76 v=83
80640 On ch=2 n=76 v=75
80848 Off ch=2 n=76 v=75
80881 On ch=2 n=76 v=76
81305 Off ch=2 n=76 v=76
81361 On ch=2 n=76 v=66
81555 Off ch=2 n=76 v=66
81606 On ch=2 n=78 v=83
81818 Off ch=2 n=78 v=83
82082 On ch=2 n=78 v=75
82296 Off ch=2 n=78 v=75
82318 On ch=2 n=78 v=78
82748 Off ch=2 n=78 v=78
82800 On ch=2 n=78 v=99
82998 Off ch=2 n=78 v=99
83040 On ch=2 n=78 v=104
83227 Off ch=2 n=78 v=104
83271 On ch=2 n=79 v=72
83691 Off ch=2 n=79 v=72
83760 On ch=2 n=78 v=64
84879 Off ch=2 n=78 v=64
84960 On ch=2 n=78 v=104
84960 On ch=2 n=74 v=100
85589 Off ch=2 n=78 v=104
85595 Off ch=2 n=74 v=100
85680 On ch=2 n=78 v=107
85680 On ch=2 n=74 v=95
86279 Off ch=2 n=78 v=107
86302 Off ch=2 n=74 v=95
86400 On ch=2 n=76 v=90
86400 On ch=2 n=74 v=85
86400 On ch=2 n=71 v=86
87025 Off ch=2 n=71 v=86
87035 Off ch=2 n=74 v=85
87041 Off ch=2 n=76 v=90
87120 On ch=2 n=71 v=86
87120 On ch=2 n=74 v=94
87120 On ch=2 n=76 v=94
87714 Off ch=2 n=71 v=86
87723 Off ch=2 n=74 v=94
87727 Off ch=2 n=76 v=94
87840 On ch=2 n=72 v=94
87840 On ch=2 n=76 v=95
88472 Off ch=2 n=72 v=94
88479 Off ch=2 n=76 v=95
88560 On ch=2 n=76 v=100
88560 On ch=2 n=72 v=88
89150 Off ch=2 n=76 v=100
89157 Off ch=2 n=72 v=88
89280 On ch=2 n=78 v=116
89280 On ch=2 n=74 v=104
89935 Off ch=2 n=78 v=116
89937 Off ch=2 n=74 v=104
90000 On ch=2 n=69 v=80
90000 On ch=2 n=74 v=100
90707 Off ch=2 n=69 v=80
90713 Off ch=2 n=74 v=100
92640 On ch=2 n=78 v=83
92640 On ch=2 n=74 v=92
93262 Off ch=2 n=74 v=92
93269 Off ch=2 n=78 v=83
93359 On ch=2 n=74 v=87
93359 On ch=2 n=78 v=79
93860 Off ch=2 n=78 v=79
93862 Off ch=2 n=74 v=87
94080 On ch=2 n=76 v=91
94080 On ch=2 n=71 v=83
94080 On ch=2 n=74 v=86
94715 Off ch=2 n=76 v=91
94717 Off ch=2 n=71 v=83
94720 Off ch=2 n=74 v=86
94800 On ch=2 n=76 v=78
94800 On ch=2 n=74 v=70
94800 On ch=2 n=71 v=66
95491 Off ch=2 n=71 v=66
95494 Off ch=2 n=74 v=70
95502 Off ch=2 n=76 v=78
103680 KeySig -4 major
103680 On ch=2 n=76 v=126
103680 On ch=2 n=79 v=126
103872 Off ch=2 n=76 v=126
103872 Off ch=2 n=79 v=126
103920 On ch=2 n=76 v=126
103920 On ch=2 n=79 v=126
104112 Off ch=2 n=76 v=126
104112 Off ch=2 n=79 v=126
104160 On ch=2 n=76 v=126
104160 On ch=2 n=79 v=126
104352 Off ch=2 n=76 v=126
104352 Off ch=2 n=79 v=126
104400 On ch=2 n=76 v=126
104400 On ch=2 n=79 v=126
104592 Off ch=2 n=76 v=126
104592 Off ch=2 n=79 v=126
104640 On ch=2 n=76 v=126
104640 On ch=2 n=79 v=126
104832 Off ch=2 n=76 v=126
104832 Off ch=2 n=79 v=126
104880 On ch=2 n=76 v=126
104880 On ch=2 n=79 v=126
105264 Off ch=2 n=76 v=126
105264 Off ch=2 n=79 v=126
105360 On ch=2 n=74 v=126
105360 On ch=2 n=78 v=126
105984 Off ch=2 n=74 v=126
105984 Off ch=2 n=78 v=126
107280 On ch=2 n=76 v=126
107280 On ch=2 n=79 v=126
107472 Off ch=2 n=76 v=126
107472 Off ch=2 n=79 v=126
107520 On ch=2 n=76 v=126
107520 On ch=2 n=79 v=126
107712 Off ch=2 n=76 v=126
107712 Off ch=2 n=79 v=126
107760 On ch=2 n=76 v=126
107760 On ch=2 n=79 v=126
107952 Off ch=2 n=76 v=126
107952 Off ch=2 n=79 v=126
108000 On ch=2 n=76 v=126
108000 On ch=2 n=79 v=126
108192 Off ch=2 n=76 v=126
108192 Off ch=2 n=79 v=126
108240 On ch=2 n=76 v=126
108240 On ch=2 n=79 v=126
108432 Off ch=2 n=76 v=126
108432 Off ch=2 n=79 v=126
108480 On ch=2 n=76 v=126
108480 On ch=2 n=79 v=126
108864 Off ch=2 n=76 v=126
108864 Off ch=2 n=79 v=126
108960 On ch=2 n=76 v=126
108960 On ch=2 n=79 v=126
109152 Off ch=2 n=76 v=126
109152 Off ch=2 n=79 v=126
109200 On ch=2 n=76 v=126
109200 On ch=2 n=79 v=126
109632 Off ch=2 n=76 v=126
109632 Off ch=2 n=79 v=126
109680 On ch=2 n=76 v=126
109680 On ch=2 n=79 v=126
110064 Off ch=2 n=76 v=126
110064 Off ch=2 n=79 v=126
110160 On ch=2 n=74 v=126
110160 On ch=2 n=78 v=126
110352 Off ch=2 n=74 v=126
110352 Off ch=2 n=78 v=126
110400 On ch=2 n=74 v=126
110400 On ch=2 n=78 v=126
110592 Off ch=2 n=74 v=126
110592 Off ch=2 n=78 v=126
110880 On ch=2 n=74 v=126
110880 On ch=2 n=78 v=126
111072 Off ch=2 n=74 v=126
111072 Off ch=2 n=78 v=126
111120 On ch=2 n=79 v=126
111125 On ch=2 n=76 v=96
111552 Off ch=2 n=79 v=126
111557 Off ch=2 n=76 v=96
111600 On ch=2 n=76 v=126
111600 On ch=2 n=79 v=126
111984 Off ch=2 n=76 v=126
111984 Off ch=2 n=79 v=126
112080 On ch=2 n=74 v=126
112080 On ch=2 n=78 v=126
112560 Off ch=2 n=74 v=126
112560 Off ch=2 n=78 v=126
112560 On ch=2 n=76 v=126
112560 On ch=2 n=79 v=126
113136 Off ch=2 n=76 v=126
113136 Off ch=2 n=79 v=126
113280 KeySig 0 major
114240 On ch=2 n=79 v=100
114240 On ch=2 n=74 v=100
115008 Off ch=2 n=79 v=100
115008 Off ch=2 n=74 v=100
115200 On ch=2 n=74 v=82
115200 On ch=2 n=78 v=83
116627 Off ch=2 n=74 v=82
116632 Off ch=2 n=78 v=83
121920 On ch=2 n=79 v=100
121920 On ch=2 n=74 v=100
122688 Off ch=2 n=79 v=100
122688 Off ch=2 n=74 v=100
122880 On ch=2 n=74 v=82
122880 On ch=2 n=78 v=83
124307 Off ch=2 n=74 v=82
124312 Off ch=2 n=78 v=83
130560 KeySig -1 major
130565 On ch=2 n=79 v=126
130565 On ch=2 n=74 v=126
130949 Off ch=2 n=79 v=126
130949 Off ch=2 n=74 v=126
131040 On ch=2 n=78 v=126
131040 On ch=2 n=74 v=126
131424 Off ch=2 n=78 v=126
131424 Off ch=2 n=74 v=126
132000 On ch=2 n=78 v=126
132000 On ch=2 n=74 v=126
132384 Off ch=2 n=78 v=126
132384 Off ch=2 n=74 v=126
132480 On ch=2 n=79 v=126
132480 On ch=2 n=74 v=126
132864 Off ch=2 n=79 v=126
132864 Off ch=2 n=74 v=126
132960 On ch=2 n=78 v=126
132960 On ch=2 n=74 v=126
133344 Off ch=2 n=78 v=126
133344 Off ch=2 n=74 v=126
133920 On ch=2 n=74 v=126
133925 On ch=2 n=78 v=126
134304 Off ch=2 n=74 v=126
134309 Off ch=2 n=78 v=126
134400 On ch=2 n=74 v=117
134400 On ch=2 n=79 v=126
134784 Off ch=2 n=74 v=117
134784 Off ch=2 n=79 v=126
134880 On ch=2 n=74 v=114
134880 On ch=2 n=79 v=126
135264 Off ch=2 n=74 v=114
135264 Off ch=2 n=79 v=126
135360 On ch=2 n=74 v=114
135360 On ch=2 n=79 v=126
135744 Off ch=2 n=74 v=114
135744 Off ch=2 n=79 v=126
135840 On ch=2 n=78 v=126
135840 On ch=2 n=74 v=126
136224 Off ch=2 n=78 v=126
136224 Off ch=2 n=74 v=126
136320 On ch=2 n=76 v=126
136320 On ch=2 n=72 v=126
136713 Off ch=2 n=76 v=126
136713 Off ch=2 n=72 v=126
136800 On ch=2 n=72 v=127
136800 On ch=2 n=76 v=127
137990 Off ch=2 n=72 v=127
137990 Off ch=2 n=76 v=127
138240 KeySig 0 major
159840 KeySig -4 major
160320 On ch=2 n=74 v=126
160512 Off ch=2 n=74 v=126
160560 On ch=2 n=75 v=126
160752 Off ch=2 n=75 v=126
160800 On ch=2 n=78 v=126
161184 Off ch=2 n=78 v=126
161276 On ch=2 n=78 v=126
161660 Off ch=2 n=78 v=126
161760 On ch=2 n=76 v=126
161952 Off ch=2 n=76 v=126
162000 On ch=2 n=76 v=126
162420 Off ch=2 n=76 v=126
162480 On ch=2 n=76 v=126
162672 Off ch=2 n=76 v=126
162720 On ch=2 n=76 v=126
163104 Off ch=2 n=76 v=126
163200 On ch=2 n=76 v=126
163584 Off ch=2 n=76 v=126
163686 On ch=2 n=76 v=126
164118 Off ch=2 n=76 v=126
164160 On ch=2 n=78 v=126
164544 Off ch=2 n=78 v=126
164640 On ch=2 n=78 v=126
165024 Off ch=2 n=78 v=126
165120 On ch=2 n=78 v=126
165504 Off ch=2 n=78 v=126
165599 On ch=2 n=76 v=126
165791 Off ch=2 n=76 v=126
165840 On ch=2 n=74 v=126
166032 Off ch=2 n=74 v=126
167760 On ch=2 n=74 v=126
167952 Off ch=2 n=74 v=126
168000 On ch=2 n=74 v=126
168192 Off ch=2 n=74 v=126
168240 On ch=2 n=75 v=126
168432 Off ch=2 n=75 v=126
168480 On ch=2 n=78 v=126
168864 Off ch=2 n=78 v=126
168960 On ch=2 n=78 v=126
169344 Off ch=2 n=78 v=126
169440 On ch=2 n=76 v=126
169632 Off ch=2 n=76 v=126
169680 On ch=2 n=76 v=126
170262 Off ch=2 n=76 v=126
170400 On ch=2 n=76 v=125
170618 Off ch=2 n=76 v=125
170642 On ch=2 n=76 v=126
170834 Off ch=2 n=76 v=126
170880 On ch=2 n=76 v=126
171242 Off ch=2 n=76 v=126
171365 On ch=2 n=76 v=126
171713 Off ch=2 n=76 v=126
171845 On ch=2 n=79 v=126
172183 Off ch=2 n=79 v=126
172320 On ch=2 n=83 v=126
172512 Off ch=2 n=83 v=126
172560 On ch=2 n=79 v=126
173020 Off ch=2 n=79 v=126
173040 On ch=2 n=78 v=126
173232 Off ch=2 n=78 v=126
173280 On ch=2 n=78 v=126
173472 Off ch=2 n=78 v=126
175200 On ch=2 n=74 v=102
175200 On ch=2 n=78 v=126
175776 Off ch=2 n=78 v=126
175790 Off ch=2 n=74 v=102
175919 On ch=2 n=74 v=100
175924 On ch=2 n=78 v=126
176629 Off ch=2 n=78 v=126
176630 Off ch=2 n=74 v=100
176640 On ch=2 n=80 v=126
176646 On ch=2 n=76 v=100
177216 Off ch=2 n=80 v=126
177218 Off ch=2 n=76 v=100
177360 On ch=2 n=80 v=126
177368 On ch=2 n=76 v=100
178073 Off ch=2 n=76 v=100
178080 Off ch=2 n=80 v=126
178080 On ch=2 n=79 v=126
178085 On ch=2 n=76 v=106
178656 Off ch=2 n=79 v=126
178675 Off ch=2 n=76 v=106
178797 On ch=2 n=76 v=106
178800 On ch=2 n=79 v=126
179509 Off ch=2 n=79 v=126
179515 Off ch=2 n=76 v=106
179525 On ch=2 n=78 v=126
179525 On ch=2 n=74 v=103
180091 Off ch=2 n=74 v=103
180101 Off ch=2 n=78 v=126
180223 On ch=2 n=74 v=101
180240 On ch=2 n=78 v=126
181432 Off ch=2 n=74 v=101
181440 Off ch=2 n=78 v=126
181440 KeySig 0 major
182880 On ch=2 n=74 v=102
182880 On ch=2 n=78 v=126
183456 Off ch=2 n=78 v=126
183470 Off ch=2 n=74 v=102
183599 On ch=2 n=74 v=100
183604 On ch=2 n=78 v=126
184309 Off ch=2 n=78 v=126
184310 Off ch=2 n=74 v=100
184320 On ch=2 n=76 v=89
184323 On ch=2 n=80 v=107
184643 Off ch=2 n=80 v=107
184648 Off ch=2 n=76 v=89
185040 On ch=2 n=76 v=91
185042 On ch=2 n=80 v=110
185407 Off ch=2 n=80 v=110
185408 Off ch=2 n=76 v=91
186240 KeySig -4 major
186240 On ch=2 n=79 v=126
186432 Off ch=2 n=79 v=126
186480 On ch=2 n=79 v=126
186672 Off ch=2 n=79 v=126
186720 On ch=2 n=79 v=126
186912 Off ch=2 n=79 v=126
186960 On ch=2 n=79 v=126
187152 Off ch=2 n=79 v=126
187200 On ch=2 n=79 v=126
187584 Off ch=2 n=79 v=126
187685 On ch=2 n=79 v=126
187877 Off ch=2 n=79 v=126
187920 On ch=2 n=78 v=126
188544 Off ch=2 n=78 v=126
189840 On ch=2 n=79 v=126
190032 Off ch=2 n=79 v=126
190080 On ch=2 n=79 v=126
190272 Off ch=2 n=79 v=126
190320 On ch=2 n=79 v=126
190512 Off ch=2 n=79 v=126
190560 On ch=2 n=79 v=126
190752 Off ch=2 n=79 v=126
190800 On ch=2 n=79 v=126
190992 Off ch=2 n=79 v=126
191040 On ch=2 n=79 v=126
191232 Off ch=2 n=79 v=126
191280 On ch=2 n=83 v=126
191664 Off ch=2 n=83 v=126
191765 On ch=2 n=78 v=126
192389 Off ch=2 n=78 v=126
193919 On ch=2 n=79 v=126
193919 On ch=2 n=81 v=126
194126 Off ch=2 n=79 v=126
194126 Off ch=2 n=81 v=126
194160 On ch=2 n=79 v=126
194160 On ch=2 n=81 v=126
194352 Off ch=2 n=79 v=126
194352 Off ch=2 n=81 v=126
194400 On ch=2 n=79 v=126
194400 On ch=2 n=81 v=126
194592 Off ch=2 n=79 v=126
194592 Off ch=2 n=81 v=126
194640 On ch=2 n=79 v=126
194640 On ch=2 n=81 v=126
194832 Off ch=2 n=79 v=126
194832 Off ch=2 n=81 v=126
194880 On ch=2 n=79 v=126
194880 On ch=2 n=81 v=126
195264 Off ch=2 n=79 v=126
195264 Off ch=2 n=81 v=126
195360 On ch=2 n=79 v=126
195360 On ch=2 n=81 v=126
195552 Off ch=2 n=79 v=126
195552 Off ch=2 n=81 v=126
195600 On ch=2 n=78 v=126
195600 On ch=2 n=81 v=126
196032 Off ch=2 n=78 v=126
196032 Off ch=2 n=81 v=126
196080 On ch=2 n=78 v=126
196080 On ch=2 n=81 v=126
196464 Off ch=2 n=78 v=126
196464 Off ch=2 n=81 v=126
196560 On ch=2 n=78 v=126
196560 On ch=2 n=81 v=126
196752 Off ch=2 n=78 v=126
196752 Off ch=2 n=81 v=126
196800 On ch=2 n=78 v=126
196800 On ch=2 n=81 v=126
197184 Off ch=2 n=78 v=126
197184 Off ch=2 n=81 v=126
197280 On ch=2 n=78 v=126
197280 On ch=2 n=81 v=126
197472 Off ch=2 n=78 v=126
197472 Off ch=2 n=81 v=126
197520 On ch=2 n=78 v=126
197520 On ch=2 n=81 v=126
197712 Off ch=2 n=78 v=126
197712 Off ch=2 n=81 v=126
197755 On ch=2 n=79 v=126
197755 On ch=2 n=81 v=126
197947 Off ch=2 n=79 v=126
197947 Off ch=2 n=81 v=126
198000 On ch=2 n=79 v=126
198000 On ch=2 n=81 v=126
198192 Off ch=2 n=79 v=126
198192 Off ch=2 n=81 v=126
198245 On ch=2 n=79 v=126
198245 On ch=2 n=81 v=126
198437 Off ch=2 n=79 v=126
198437 Off ch=2 n=81 v=126
198480 On ch=2 n=79 v=126
198480 On ch=2 n=81 v=126
198672 Off ch=2 n=79 v=126
198672 Off ch=2 n=81 v=126
198720 On ch=2 n=79 v=126
198720 On ch=2 n=81 v=126
199104 Off ch=2 n=79 v=126
199104 Off ch=2 n=81 v=126
199200 On ch=2 n=79 v=126
199200 On ch=2 n=81 v=126
199392 Off ch=2 n=79 v=126
199392 Off ch=2 n=81 v=126
199440 On ch=2 n=78 v=126
199440 On ch=2 n=81 v=126
200064 Off ch=2 n=78 v=126
200064 Off ch=2 n=81 v=126
200640 On ch=2 n=76 v=126
200640 On ch=2 n=80 v=126
201024 Off ch=2 n=76 v=126
201024 Off ch=2 n=80 v=126
201120 On ch=2 n=76 v=126
201120 On ch=2 n=80 v=126
201504 Off ch=2 n=76 v=126
201504 Off ch=2 n=80 v=126
201600 On ch=2 n=76 v=126
201600 On ch=2 n=81 v=126
203136 Off ch=2 n=76 v=126
203136 Off ch=2 n=81 v=126
203520 KeySig 0 major
238080 On ch=2 n=79 v=100
238080 On ch=2 n=74 v=100
238848 Off ch=2 n=79 v=100
238848 Off ch=2 n=74 v=100
239040 On ch=2 n=74 v=82
239040 On ch=2 n=78 v=83
240467 Off ch=2 n=74 v=82
240472 Off ch=2 n=78 v=83
245760 On ch=2 n=79 v=100
245760 On ch=2 n=74 v=100
246528 Off ch=2 n=79 v=100
246528 Off ch=2 n=74 v=100
246720 On ch=2 n=74 v=82
246720 On ch=2 n=78 v=83
248147 Off ch=2 n=74 v=82
248152 Off ch=2 n=78 v=83
254405 On ch=2 n=79 v=126
254405 On ch=2 n=74 v=126
254789 Off ch=2 n=79 v=126
254789 Off ch=2 n=74 v=126
254880 On ch=2 n=78 v=126
254880 On ch=2 n=74 v=126
255264 Off ch=2 n=78 v=126
255264 Off ch=2 n=74 v=126
255840 On ch=2 n=78 v=126
255840 On ch=2 n=74 v=126
256224 Off ch=2 n=78 v=126
256224 Off ch=2 n=74 v=126
256320 On ch=2 n=79 v=126
256320 On ch=2 n=74 v=126
256704 Off ch=2 n=79 v=126
256704 Off ch=2 n=74 v=126
256800 On ch=2 n=78 v=126
256800 On ch=2 n=74 v=126
257184 Off ch=2 n=78 v=126
257184 Off ch=2 n=74 v=126
257760 On ch=2 n=74 v=126
257765 On ch=2 n=78 v=126
258144 Off ch=2 n=74 v=126
258149 Off ch=2 n=78 v=126
258240 On ch=2 n=74 v=117
258240 On ch=2 n=79 v=126
258624 Off ch=2 n=74 v=117
258624 Off ch=2 n=79 v=126
258720 On ch=2 n=74 v=114
258720 On ch=2 n=79 v=126
259104 Off ch=2 n=74 v=114
259104 Off ch=2 n=79 v=126
259200 On ch=2 n=74 v=114
259200 On ch=2 n=79 v=126
259584 Off ch=2 n=74 v=114
259584 Off ch=2 n=79 v=126
259680 On ch=2 n=78 v=126
259680 On ch=2 n=74 v=126
260064 Off ch=2 n=78 v=126
260064 Off ch=2 n=74 v=126
260160 On ch=2 n=76 v=126
260160 On ch=2 n=72 v=126
260553 Off ch=2 n=76 v=126
260553 Off ch=2 n=72 v=126
260640 On ch=2 n=76 v=126
260640 On ch=2 n=72 v=126
261408 Off ch=2 n=76 v=126
261408 Off ch=2 n=72 v=126
264000 KeySig 3 major
264000 On ch=2 n=72 v=126
264000 On ch=2 n=76 v=126
264192 Off ch=2 n=72 v=126
264192 Off ch=2 n=76 v=126
264240 On ch=2 n=72 v=126
264240 On ch=2 n=76 v=126
264624 Off ch=2 n=72 v=126
264624 Off ch=2 n=76 v=126
264720 On ch=2 n=72 v=126
264720 On ch=2 n=76 v=126
265437 Off ch=2 n=72 v=126
265437 Off ch=2 n=76 v=126
267840 On ch=2 n=72 v=126
267840 On ch=2 n=76 v=126
268032 Off ch=2 n=72 v=126
268032 Off ch=2 n=76 v=126
268080 On ch=2 n=72 v=126
268080 On ch=2 n=76 v=126
268464 Off ch=2 n=72 v=126
268464 Off ch=2 n=76 v=126
268560 On ch=2 n=72 v=126
268560 On ch=2 n=76 v=126
269020 Off ch=2 n=72 v=126
269020 Off ch=2 n=76 v=126
269040 On ch=2 n=72 v=126
269040 On ch=2 n=76 v=126
269424 Off ch=2 n=72 v=126
269424 Off ch=2 n=76 v=126
271440 On ch=2 n=74 v=126
271440 On ch=2 n=78 v=126
271632 Off ch=2 n=74 v=126
271632 Off ch=2 n=78 v=126
271680 On ch=2 n=74 v=126
271680 On ch=2 n=78 v=126
271872 Off ch=2 n=74 v=126
271872 Off ch=2 n=78 v=126
271920 On ch=2 n=74 v=126
271920 On ch=2 n=78 v=126
272112 Off ch=2 n=74 v=126
272112 Off ch=2 n=78 v=126
272160 On ch=2 n=74 v=126
272160 On ch=2 n=78 v=126
272352 Off ch=2 n=74 v=126
272352 Off ch=2 n=78 v=126
272400 On ch=2 n=74 v=126
272400 On ch=2 n=78 v=126
272592 Off ch=2 n=74 v=126
272592 Off ch=2 n=78 v=126
272640 On ch=2 n=76 v=126
272640 On ch=2 n=79 v=126
273024 Off ch=2 n=76 v=126
273024 Off ch=2 n=79 v=126
273120 On ch=2 n=74 v=126
273120 On ch=2 n=78 v=126
273504 Off ch=2 n=74 v=126
273504 Off ch=2 n=78 v=126
275280 On ch=2 n=74 v=126
275280 On ch=2 n=78 v=126
275472 Off ch=2 n=74 v=126
275472 Off ch=2 n=78 v=126
275520 On ch=2 n=74 v=126
275520 On ch=2 n=78 v=126
275712 Off ch=2 n=74 v=126
275712 Off ch=2 n=78 v=126
275760 On ch=2 n=74 v=126
275760 On ch=2 n=78 v=126
275952 Off ch=2 n=74 v=126
275952 Off ch=2 n=78 v=126
276000 On ch=2 n=74 v=126
276000 On ch=2 n=78 v=126
276192 Off ch=2 n=74 v=126
276192 Off ch=2 n=78 v=126
276240 On ch=2 n=74 v=126
276240 On ch=2 n=78 v=126
276432 Off ch=2 n=74 v=126
276432 Off ch=2 n=78 v=126
276480 On ch=2 n=76 v=126
276480 On ch=2 n=79 v=126
276864 Off ch=2 n=76 v=126
276864 Off ch=2 n=79 v=126
276960 On ch=2 n=74 v=126
276960 On ch=2 n=78 v=126
277344 Off ch=2 n=74 v=126
277344 Off ch=2 n=78 v=126
278640 On ch=2 n=81 v=126
278645 On ch=2 n=78 v=126
278832 Off ch=2 n=81 v=126
278837 Off ch=2 n=78 v=126
278880 On ch=2 n=78 v=126
278880 On ch=2 n=81 v=126
279264 Off ch=2 n=78 v=126
279264 Off ch=2 n=81 v=126
279360 On ch=2 n=78 v=126
279360 On ch=2 n=81 v=126
279552 Off ch=2 n=78 v=126
279552 Off ch=2 n=81 v=126
279600 On ch=2 n=78 v=126
279600 On ch=2 n=81 v=126
279792 Off ch=2 n=78 v=126
279792 Off ch=2 n=81 v=126
280560 On ch=2 n=78 v=126
280560 On ch=2 n=81 v=126
280752 Off ch=2 n=78 v=126
280752 Off ch=2 n=81 v=126
280800 On ch=2 n=78 v=126
280800 On ch=2 n=81 v=126
281184 Off ch=2 n=78 v=126
281184 Off ch=2 n=81 v=126
281280 On ch=2 n=79 v=126
281280 On ch=2 n=81 v=126
281472 Off ch=2 n=79 v=126
281472 Off ch=2 n=81 v=126
281520 On ch=2 n=79 v=126
281520 On ch=2 n=81 v=126
281712 Off ch=2 n=79 v=126
281712 Off ch=2 n=81 v=126
283200 On ch=2 n=79 v=126
283200 On ch=2 n=81 v=126
283584 Off ch=2 n=79 v=126
283584 Off ch=2 n=81 v=126
283680 On ch=2 n=79 v=126
283680 On ch=2 n=81 v=126
283872 Off ch=2 n=79 v=126
283872 Off ch=2 n=81 v=126
283920 On ch=2 n=79 v=126
283920 On ch=2 n=81 v=126
284112 Off ch=2 n=79 v=126
284112 Off ch=2 n=81 v=126
284160 On ch=2 n=79 v=126
284160 On ch=2 n=81 v=126
284544 Off ch=2 n=79 v=126
284544 Off ch=2 n=81 v=126
284640 On ch=2 n=79 v=126
284640 On ch=2 n=81 v=126
284832 Off ch=2 n=79 v=126
284832 Off ch=2 n=81 v=126
284880 On ch=2 n=74 v=126
284880 On ch=2 n=78 v=126
285072 Off ch=2 n=74 v=126
285072 Off ch=2 n=78 v=126
285120 On ch=2 n=78 v=126
285120 On ch=2 n=81 v=126
285312 Off ch=2 n=78 v=126
285312 Off ch=2 n=81 v=126
285360 On ch=2 n=78 v=126
285360 On ch=2 n=81 v=126
285552 Off ch=2 n=78 v=126
285552 Off ch=2 n=81 v=126
285600 On ch=2 n=78 v=126
285600 On ch=2 n=81 v=126
285984 Off ch=2 n=78 v=126
285984 Off ch=2 n=81 v=126
286080 On ch=2 n=78 v=126
286080 On ch=2 n=81 v=126
286464 Off ch=2 n=78 v=126
286464 Off ch=2 n=81 v=126
287040 On ch=2 n=79 v=126
287040 On ch=2 n=81 v=126
287424 Off ch=2 n=79 v=126
287424 Off ch=2 n=81 v=126
287520 On ch=2 n=79 v=126
287520 On ch=2 n=81 v=126
287904 Off ch=2 n=79 v=126
287904 Off ch=2 n=81 v=126
288720 On ch=2 n=79 v=126
288720 On ch=2 n=83 v=126
289152 Off ch=2 n=79 v=126
289152 Off ch=2 n=83 v=126
289200 On ch=2 n=79 v=125
289200 On ch=2 n=81 v=125
289573 Off ch=2 n=79 v=125
289573 Off ch=2 n=81 v=125
289676 On ch=2 n=79 v=126
289676 On ch=2 n=81 v=126
290060 Off ch=2 n=79 v=126
290060 Off ch=2 n=81 v=126
290880 On ch=2 n=81 v=126
290885 On ch=2 n=79 v=126
291264 Off ch=2 n=81 v=126
291269 Off ch=2 n=79 v=126
291360 On ch=2 n=79 v=126
291360 On ch=2 n=81 v=126
291744 Off ch=2 n=79 v=126
291744 Off ch=2 n=81 v=126
292560 On ch=2 n=79 v=126
292560 On ch=2 n=83 v=126
292992 Off ch=2 n=79 v=126
292992 Off ch=2 n=83 v=126
293040 On ch=2 n=79 v=125
293040 On ch=2 n=81 v=125
293408 Off ch=2 n=79 v=125
293408 Off ch=2 n=81 v=125
293526 On ch=2 n=79 v=126
293526 On ch=2 n=81 v=126
293910 Off ch=2 n=79 v=126
293910 Off ch=2 n=81 v=126
294720 KeySig 0 major
329040 Meta TrkEnd
TrkEnd
MTrk
0 Meta TrkName "Kaye1"
0 Meta 0x20 02
0 Meta InstrName "Kaye1"
0 KeySig 0 major
170 Par ch=3 c=0 v=8
175 Par ch=3 c=32 v=0
180 PrCh ch=3 p=50
185 Par ch=3 c=7 v=100
190 Par ch=3 c=10 v=64
195 Par ch=3 c=91 v=89
200 Par ch=3 c=93 v=0
205 Par ch=3 c=101 v=0
205 Par ch=3 c=100 v=0
205 Par ch=3 c=6 v=2
210 Par ch=3 c=99 v=1
210 Par ch=3 c=98 v=8
210 Par ch=3 c=6 v=64
215 Par ch=3 c=99 v=1
215 Par ch=3 c=98 v=9
215 Par ch=3 c=6 v=64
220 Par ch=3 c=99 v=1
220 Par ch=3 c=98 v=10
220 Par ch=3 c=6 v=64
225 Par ch=3 c=99 v=1
225 Par ch=3 c=98 v=32
225 Par ch=3 c=6 v=64
230 Par ch=3 c=99 v=1
230 Par ch=3 c=98 v=33
230 Par ch=3 c=6 v=64
235 Par ch=3 c=99 v=1
235 Par ch=3 c=98 v=99
235 Par ch=3 c=6 v=64
240 Par ch=3 c=99 v=1
240 Par ch=3 c=98 v=100
240 Par ch=3 c=6 v=64
245 Par ch=3 c=99 v=1
245 Par ch=3 c=98 v=102
245 Par ch=3 c=6 v=64
1920 Par ch=3 c=7 v=15
1920 On ch=3 n=85 v=80
1920 On ch=3 n=81 v=80
1920 On ch=3 n=76 v=80
2496 Off ch=3 n=85 v=80
2496 Off ch=3 n=81 v=80
2496 Off ch=3 n=76 v=80
2640 On ch=3 n=83 v=80
2640 On ch=3 n=80 v=80
2640 On ch=3 n=76 v=80
2832 Off ch=3 n=83 v=80
2832 Off ch=3 n=80 v=80
2832 Off ch=3 n=76 v=80
3120 On ch=3 n=85 v=80
3120 On ch=3 n=81 v=80
3120 On ch=3 n=76 v=80
3312 Off ch=3 n=85 v=80
3312 Off ch=3 n=81 v=80
3312 Off ch=3 n=76 v=80
3585 Par ch=3 c=7 v=17
3600 On ch=3 n=86 v=80
3600 On ch=3 n=81 v=80
3600 On ch=3 n=78 v=80
3792 Off ch=3 n=86 v=80
3792 Off ch=3 n=81 v=80
3792 Off ch=3 n=78 v=80
4064 Par ch=3 c=7 v=18
4080 On ch=3 n=85 v=80
4080 On ch=3 n=81 v=80
4080 On ch=3 n=76 v=80
4272 Off ch=3 n=85 v=80
4272 Off ch=3 n=81 v=80
4272 Off ch=3 n=76 v=80
4386 Par ch=3 c=7 v=20
4560 On ch=3 n=83 v=80
4560 On ch=3 n=80 v=80
4560 On ch=3 n=76 v=80
4644 Par ch=3 c=7 v=22
4752 Off ch=3 n=83 v=80
4752 Off ch=3 n=80 v=80
4752 Off ch=3 n=76 v=80
4800 On ch=3 n=85 v=80
4800 On ch=3 n=81 v=80
4800 On ch=3 n=76 v=80
4966 Par ch=3 c=7 v=25
4992 Off ch=3 n=85 v=80
4992 Off ch=3 n=81 v=80
4992 Off ch=3 n=76 v=80
5075 Par ch=3 c=7 v=28
5246 Par ch=3 c=7 v=30
5280 On ch=3 n=76 v=80
5280 On ch=3 n=81 v=80
5280 On ch=3 n=85 v=80
5525 Par ch=3 c=7 v=31
5848 Par ch=3 c=7 v=32
5856 Off ch=3 n=76 v=80
5856 Off ch=3 n=81 v=80
5856 Off ch=3 n=85 v=80
6000 On ch=3 n=76 v=80
6000 On ch=3 n=80 v=80
6000 On ch=3 n=83 v=80
6062 Par ch=3 c=7 v=35
6192 Off ch=3 n=76 v=80
6192 Off ch=3 n=80 v=80
6192 Off ch=3 n=83 v=80
6299 Par ch=3 c=7 v=37
6480 On ch=3 n=76 v=80
6480 On ch=3 n=81 v=80
6480 On ch=3 n=85 v=80
6515 Par ch=3 c=7 v=40
6672 Off ch=3 n=76 v=80
6672 Off ch=3 n=81 v=80
6672 Off ch=3 n=85 v=80
6960 On ch=3 n=78 v=80
6960 On ch=3 n=81 v=80
6960 On ch=3 n=86 v=80
7095 Par ch=3 c=7 v=42
7152 Off ch=3 n=78 v=80
7152 Off ch=3 n=81 v=80
7152 Off ch=3 n=86 v=80
7440 On ch=3 n=76 v=80
7440 On ch=3 n=81 v=80
7440 On ch=3 n=85 v=80
7632 Off ch=3 n=76 v=80
7632 Off ch=3 n=81 v=80
7632 Off ch=3 n=85 v=80
7633 Par ch=3 c=7 v=45
7920 On ch=3 n=76 v=80
7920 On ch=3 n=80 v=80
7920 On ch=3 n=83 v=80
8019 Par ch=3 c=7 v=47
8112 Off ch=3 n=76 v=80
8112 Off ch=3 n=80 v=80
8112 Off ch=3 n=83 v=80
8160 On ch=3 n=76 v=80
8160 On ch=3 n=81 v=80
8160 On ch=3 n=85 v=80
8352 Off ch=3 n=76 v=80
8352 Off ch=3 n=81 v=80
8352 Off ch=3 n=85 v=80
8513 Par ch=3 c=7 v=50
8640 On ch=3 n=85 v=80
8640 On ch=3 n=81 v=80
8640 On ch=3 n=76 v=80
8792 Par ch=3 c=7 v=52
9092 Par ch=3 c=7 v=55
9216 Off ch=3 n=85 v=80
9216 Off ch=3 n=81 v=80
9216 Off ch=3 n=76 v=80
9360 On ch=3 n=83 v=80
9360 On ch=3 n=80 v=80
9360 On ch=3 n=76 v=80
9393 Par ch=3 c=7 v=57
9545 Par ch=3 c=7 v=60
9552 Off ch=3 n=83 v=80
9552 Off ch=3 n=80 v=80
9552 Off ch=3 n=76 v=80
9611 Par ch=3 c=7 v=63
9673 Par ch=3 c=7 v=65
9840 On ch=3 n=85 v=80
9840 On ch=3 n=81 v=80
9840 On ch=3 n=76 v=80
9932 Par ch=3 c=7 v=68
10032 Off ch=3 n=85 v=80
10032 Off ch=3 n=81 v=80
10032 Off ch=3 n=76 v=80
10039 Par ch=3 c=7 v=70
10169 Par ch=3 c=7 v=73
10320 On ch=3 n=86 v=80
10320 On ch=3 n=81 v=80
10320 On ch=3 n=78 v=80
10340 Par ch=3 c=7 v=75
10404 Par ch=3 c=7 v=78
10512 Off ch=3 n=86 v=80
10512 Off ch=3 n=81 v=80
10512 Off ch=3 n=78 v=80
10726 Par ch=3 c=7 v=80
10800 On ch=3 n=85 v=80
10800 On ch=3 n=81 v=80
10800 On ch=3 n=76 v=80
10856 Par ch=3 c=7 v=83
10920 Par ch=3 c=7 v=85
10992 Off ch=3 n=85 v=80
10992 Off ch=3 n=81 v=80
10992 Off ch=3 n=76 v=80
11006 Par ch=3 c=7 v=88
11280 On ch=3 n=83 v=80
11280 On ch=3 n=80 v=80
11280 On ch=3 n=76 v=80
11306 Par ch=3 c=7 v=90
11436 Par ch=3 c=7 v=93
11472 Off ch=3 n=83 v=80
11472 Off ch=3 n=80 v=80
11472 Off ch=3 n=76 v=80
11516 On ch=3 n=81 v=80
11520 On ch=3 n=78 v=80
11520 On ch=3 n=74 v=80
11845 Par ch=3 c=7 v=95
11973 Par ch=3 c=7 v=98
12092 Off ch=3 n=81 v=80
12096 Off ch=3 n=78 v=80
12096 Off ch=3 n=74 v=80
12232 Par ch=3 c=7 v=100
12240 On ch=3 n=85 v=80
12240 On ch=3 n=81 v=80
12240 On ch=3 n=78 v=80
12317 Par ch=3 c=7 v=103
12511 Par ch=3 c=7 v=105
12960 Off ch=3 n=85 v=80
12960 Off ch=3 n=81 v=80
12960 Off ch=3 n=78 v=80
12960 On ch=3 n=83 v=80
12960 On ch=3 n=80 v=80
12960 On ch=3 n=76 v=80
13728 Off ch=3 n=83 v=80
13728 Off ch=3 n=80 v=80
13728 Off ch=3 n=76 v=80
13920 On ch=3 n=81 v=80
13920 On ch=3 n=78 v=80
13920 On ch=3 n=74 v=80
14112 Off ch=3 n=81 v=80
14112 Off ch=3 n=78 v=80
14112 Off ch=3 n=74 v=80
14160 On ch=3 n=74 v=80
14160 On ch=3 n=78 v=80
14160 On ch=3 n=81 v=80
14352 Off ch=3 n=74 v=80
14352 Off ch=3 n=78 v=80
14352 Off ch=3 n=81 v=80
14400 On ch=3 n=81 v=80
14400 On ch=3 n=78 v=80
14400 On ch=3 n=74 v=80
14592 Off ch=3 n=81 v=80
14592 Off ch=3 n=78 v=80
14592 Off ch=3 n=74 v=80
14880 On ch=3 n=76 v=80
14880 On ch=3 n=81 v=80
14880 On ch=3 n=85 v=80
15456 Off ch=3 n=76 v=80
15456 Off ch=3 n=81 v=80
15456 Off ch=3 n=85 v=80
15600 On ch=3 n=76 v=80
15600 On ch=3 n=80 v=80
15600 On ch=3 n=83 v=80
15792 Off ch=3 n=76 v=80
15792 Off ch=3 n=80 v=80
15792 Off ch=3 n=83 v=80
16080 On ch=3 n=76 v=80
16080 On ch=3 n=81 v=80
16080 On ch=3 n=85 v=80
16272 Off ch=3 n=76 v=80
16272 Off ch=3 n=81 v=80
16272 Off ch=3 n=85 v=80
16560 On ch=3 n=78 v=80
16560 On ch=3 n=81 v=80
16560 On ch=3 n=86 v=80
16752 Off ch=3 n=78 v=80
16752 Off ch=3 n=81 v=80
16752 Off ch=3 n=86 v=80
17040 On ch=3 n=76 v=80
17040 On ch=3 n=81 v=80
17040 On ch=3 n=85 v=80
17232 Off ch=3 n=76 v=80
17232 Off ch=3 n=81 v=80
17232 Off ch=3 n=85 v=80
17520 On ch=3 n=76 v=80
17520 On ch=3 n=80 v=80
17520 On ch=3 n=83 v=80
17712 Off ch=3 n=76 v=80
17712 Off ch=3 n=80 v=80
17712 Off ch=3 n=83 v=80
17760 On ch=3 n=76 v=80
17760 On ch=3 n=81 v=80
17760 On ch=3 n=85 v=80
17952 Off ch=3 n=76 v=80
17952 Off ch=3 n=81 v=80
17952 Off ch=3 n=85 v=80
18240 On ch=3 n=85 v=80
18240 On ch=3 n=81 v=80
18240 On ch=3 n=76 v=80
18816 Off ch=3 n=85 v=80
18816 Off ch=3 n=81 v=80
18816 Off ch=3 n=76 v=80
18960 On ch=3 n=83 v=80
18960 On ch=3 n=80 v=80
18960 On ch=3 n=76 v=80
19152 Off ch=3 n=83 v=80
19152 Off ch=3 n=80 v=80
19152 Off ch=3 n=76 v=80
19440 On ch=3 n=85 v=80
19440 On ch=3 n=81 v=80
19440 On ch=3 n=76 v=80
19632 Off ch=3 n=85 v=80
19632 Off ch=3 n=81 v=80
19632 Off ch=3 n=76 v=80
19920 On ch=3 n=86 v=80
19920 On ch=3 n=81 v=80
19920 On ch=3 n=78 v=80
20112 Off ch=3 n=86 v=80
20112 Off ch=3 n=81 v=80
20112 Off ch=3 n=78 v=80
20400 On ch=3 n=85 v=80
20400 On ch=3 n=81 v=80
20400 On ch=3 n=76 v=80
20592 Off ch=3 n=85 v=80
20592 Off ch=3 n=81 v=80
20592 Off ch=3 n=76 v=80
20880 On ch=3 n=83 v=80
20880 On ch=3 n=80 v=80
20880 On ch=3 n=76 v=80
21072 Off ch=3 n=83 v=80
21072 Off ch=3 n=80 v=80
21072 Off ch=3 n=76 v=80
21120 On ch=3 n=85 v=80
21120 On ch=3 n=81 v=80
21120 On ch=3 n=76 v=80
21312 Off ch=3 n=85 v=80
21312 Off ch=3 n=81 v=80
21312 Off ch=3 n=76 v=80
21600 On ch=3 n=76 v=80
21600 On ch=3 n=81 v=80
21600 On ch=3 n=85 v=80
22176 Off ch=3 n=76 v=80
22176 Off ch=3 n=81 v=80
22176 Off ch=3 n=85 v=80
22320 On ch=3 n=76 v=80
22320 On ch=3 n=80 v=80
22320 On ch=3 n=83 v=80
22512 Off ch=3 n=76 v=80
22512 Off ch=3 n=80 v=80
22512 Off ch=3 n=83 v=80
22800 On ch=3 n=76 v=80
22800 On ch=3 n=81 v=80
22800 On ch=3 n=85 v=80
22992 Off ch=3 n=76 v=80
22992 Off ch=3 n=81 v=80
22992 Off ch=3 n=85 v=80
23280 On ch=3 n=78 v=80
23280 On ch=3 n=81 v=80
23280 On ch=3 n=86 v=80
23472 Off ch=3 n=78 v=80
23472 Off ch=3 n=81 v=80
23472 Off ch=3 n=86 v=80
23760 On ch=3 n=76 v=80
23760 On ch=3 n=81 v=80
23760 On ch=3 n=85 v=80
23952 Off ch=3 n=76 v=80
23952 Off ch=3 n=81 v=80
23952 Off ch=3 n=85 v=80
24240 On ch=3 n=76 v=80
24240 On ch=3 n=80 v=80
24240 On ch=3 n=83 v=80
24432 Off ch=3 n=76 v=80
24432 Off ch=3 n=80 v=80
24432 Off ch=3 n=83 v=80
24480 On ch=3 n=86 v=80
24480 On ch=3 n=81 v=80
24480 On ch=3 n=78 v=80
25056 Off ch=3 n=86 v=80
25056 Off ch=3 n=81 v=80
25056 Off ch=3 n=78 v=80
25200 On ch=3 n=78 v=80
25200 On ch=3 n=81 v=80
25200 On ch=3 n=85 v=80
25920 Off ch=3 n=78 v=80
25920 Off ch=3 n=81 v=80
25920 Off ch=3 n=85 v=80
25920 On ch=3 n=76 v=80
25920 On ch=3 n=80 v=80
25920 On ch=3 n=83 v=80
26688 Off ch=3 n=76 v=80
26688 Off ch=3 n=80 v=80
26688 Off ch=3 n=83 v=80
26880 On ch=3 n=81 v=114
26880 On ch=3 n=78 v=114
26880 On ch=3 n=74 v=114
27022 Off ch=3 n=81 v=114
27022 Off ch=3 n=78 v=114
27022 Off ch=3 n=74 v=114
27119 On ch=3 n=81 v=113
27119 On ch=3 n=78 v=113
27119 On ch=3 n=74 v=113
27261 Off ch=3 n=81 v=113
27261 Off ch=3 n=78 v=113
27261 Off ch=3 n=74 v=113
27361 On ch=3 n=81 v=116
27361 On ch=3 n=78 v=116
27361 On ch=3 n=74 v=116
27493 Off ch=3 n=81 v=116
27493 Off ch=3 n=78 v=116
27493 Off ch=3 n=74 v=116
27840 On ch=3 n=85 v=85
27840 On ch=3 n=81 v=87
27840 On ch=3 n=76 v=83
27958 Off ch=3 n=85 v=85
27958 Off ch=3 n=81 v=87
27958 Off ch=3 n=76 v=83
28080 On ch=3 n=83 v=84
28080 On ch=3 n=80 v=82
28080 On ch=3 n=76 v=83
28198 Off ch=3 n=83 v=84
28198 Off ch=3 n=80 v=82
28198 Off ch=3 n=76 v=83
28320 On ch=3 n=80 v=83
28320 On ch=3 n=83 v=82
28320 On ch=3 n=76 v=81
28438 Off ch=3 n=80 v=83
28438 Off ch=3 n=83 v=82
28438 Off ch=3 n=76 v=81
28560 On ch=3 n=85 v=82
28560 On ch=3 n=76 v=82
28560 On ch=3 n=81 v=86
28678 Off ch=3 n=85 v=82
28678 Off ch=3 n=76 v=82
28678 Off ch=3 n=81 v=86
28800 On ch=3 n=85 v=83
28800 On ch=3 n=81 v=85
28800 On ch=3 n=76 v=82
28918 Off ch=3 n=85 v=83
28918 Off ch=3 n=81 v=85
28918 Off ch=3 n=76 v=82
29040 On ch=3 n=86 v=84
29040 On ch=3 n=78 v=83
29040 On ch=3 n=81 v=87
29158 Off ch=3 n=86 v=84
29158 Off ch=3 n=78 v=83
29158 Off ch=3 n=81 v=87
29280 On ch=3 n=86 v=82
29280 On ch=3 n=78 v=80
29280 On ch=3 n=81 v=85
29398 Off ch=3 n=86 v=82
29398 Off ch=3 n=78 v=80
29398 Off ch=3 n=81 v=85
29520 On ch=3 n=85 v=80
29520 On ch=3 n=81 v=85
29520 On ch=3 n=76 v=82
29638 Off ch=3 n=85 v=80
29638 Off ch=3 n=81 v=85
29638 Off ch=3 n=76 v=82
29760 On ch=3 n=85 v=82
29760 On ch=3 n=81 v=85
29760 On ch=3 n=76 v=81
29878 Off ch=3 n=85 v=82
29878 Off ch=3 n=81 v=85
29878 Off ch=3 n=76 v=81
30000 On ch=3 n=83 v=85
30000 On ch=3 n=80 v=82
30000 On ch=3 n=76 v=81
30118 Off ch=3 n=83 v=85
30118 Off ch=3 n=80 v=82
30118 Off ch=3 n=76 v=81
30240 On ch=3 n=85 v=82
30240 On ch=3 n=81 v=84
30240 On ch=3 n=76 v=80
30358 Off ch=3 n=85 v=82
30358 Off ch=3 n=81 v=84
30358 Off ch=3 n=76 v=80
30480 On ch=3 n=85 v=81
30480 On ch=3 n=76 v=82
30480 On ch=3 n=81 v=85
30598 Off ch=3 n=85 v=81
30598 Off ch=3 n=76 v=82
30598 Off ch=3 n=81 v=85
30720 On ch=3 n=85 v=81
30720 On ch=3 n=81 v=85
30720 On ch=3 n=76 v=81
30838 Off ch=3 n=85 v=81
30838 Off ch=3 n=81 v=85
30838 Off ch=3 n=76 v=81
30960 On ch=3 n=85 v=83
30960 On ch=3 n=81 v=87
30960 On ch=3 n=76 v=84
31078 Off ch=3 n=85 v=83
31078 Off ch=3 n=81 v=87
31078 Off ch=3 n=76 v=84
31200 On ch=3 n=81 v=87
31200 On ch=3 n=85 v=85
31200 On ch=3 n=76 v=83
31318 Off ch=3 n=81 v=87
31318 Off ch=3 n=85 v=85
31318 Off ch=3 n=76 v=83
31440 On ch=3 n=80 v=82
31440 On ch=3 n=76 v=83
31440 On ch=3 n=83 v=84
31558 Off ch=3 n=80 v=82
31558 Off ch=3 n=76 v=83
31558 Off ch=3 n=83 v=84
31680 On ch=3 n=80 v=83
31680 On ch=3 n=83 v=82
31680 On ch=3 n=76 v=81
31798 Off ch=3 n=80 v=83
31798 Off ch=3 n=83 v=82
31798 Off ch=3 n=76 v=81
31920 On ch=3 n=85 v=82
31920 On ch=3 n=76 v=82
31920 On ch=3 n=81 v=86
32038 Off ch=3 n=85 v=82
32038 Off ch=3 n=76 v=82
32038 Off ch=3 n=81 v=86
32160 On ch=3 n=85 v=83
32160 On ch=3 n=81 v=85
32160 On ch=3 n=76 v=82
32278 Off ch=3 n=85 v=83
32278 Off ch=3 n=81 v=85
32278 Off ch=3 n=76 v=82
32400 On ch=3 n=86 v=84
32400 On ch=3 n=78 v=83
32400 On ch=3 n=81 v=87
32518 Off ch=3 n=86 v=84
32518 Off ch=3 n=78 v=83
32518 Off ch=3 n=81 v=87
32640 On ch=3 n=86 v=82
32640 On ch=3 n=78 v=80
32640 On ch=3 n=81 v=85
32758 Off ch=3 n=86 v=82
32758 Off ch=3 n=78 v=80
32758 Off ch=3 n=81 v=85
32880 On ch=3 n=85 v=80
32880 On ch=3 n=81 v=85
32880 On ch=3 n=76 v=82
32998 Off ch=3 n=85 v=80
32998 Off ch=3 n=81 v=85
32998 Off ch=3 n=76 v=82
33120 On ch=3 n=85 v=82
33120 On ch=3 n=81 v=85
33120 On ch=3 n=76 v=81
33238 Off ch=3 n=85 v=82
33238 Off ch=3 n=81 v=85
33238 Off ch=3 n=76 v=81
33360 On ch=3 n=83 v=85
33360 On ch=3 n=80 v=82
33360 On ch=3 n=76 v=81
33478 Off ch=3 n=83 v=85
33478 Off ch=3 n=80 v=82
33478 Off ch=3 n=76 v=81
33600 On ch=3 n=85 v=82
33600 On ch=3 n=81 v=84
33600 On ch=3 n=76 v=80
33718 Off ch=3 n=85 v=82
33718 Off ch=3 n=81 v=84
33718 Off ch=3 n=76 v=80
33840 On ch=3 n=85 v=81
33840 On ch=3 n=76 v=82
33840 On ch=3 n=81 v=85
33958 Off ch=3 n=85 v=81
33958 Off ch=3 n=76 v=82
33958 Off ch=3 n=81 v=85
34080 On ch=3 n=85 v=81
34080 On ch=3 n=81 v=85
34080 On ch=3 n=76 v=81
34198 Off ch=3 n=85 v=81
34198 Off ch=3 n=81 v=85
34198 Off ch=3 n=76 v=81
34320 On ch=3 n=85 v=83
34320 On ch=3 n=81 v=87
34320 On ch=3 n=76 v=84
34438 Off ch=3 n=85 v=83
34438 Off ch=3 n=81 v=87
34438 Off ch=3 n=76 v=84
34560 On ch=3 n=85 v=85
34560 On ch=3 n=81 v=87
34560 On ch=3 n=76 v=83
34678 Off ch=3 n=85 v=85
34678 Off ch=3 n=81 v=87
34678 Off ch=3 n=76 v=83
34800 On ch=3 n=80 v=82
34800 On ch=3 n=76 v=83
34800 On ch=3 n=83 v=84
34918 Off ch=3 n=80 v=82
34918 Off ch=3 n=76 v=83
34918 Off ch=3 n=83 v=84
35040 On ch=3 n=80 v=83
35040 On ch=3 n=83 v=82
35040 On ch=3 n=76 v=81
35158 Off ch=3 n=80 v=83
35158 Off ch=3 n=83 v=82
35158 Off ch=3 n=76 v=81
35280 On ch=3 n=85 v=82
35280 On ch=3 n=76 v=82
35280 On ch=3 n=81 v=86
35398 Off ch=3 n=85 v=82
35398 Off ch=3 n=76 v=82
35398 Off ch=3 n=81 v=86
35520 On ch=3 n=85 v=83
35520 On ch=3 n=81 v=85
35520 On ch=3 n=76 v=82
35638 Off ch=3 n=85 v=83
35638 Off ch=3 n=81 v=85
35638 Off ch=3 n=76 v=82
35760 On ch=3 n=86 v=84
35760 On ch=3 n=78 v=83
35760 On ch=3 n=81 v=87
35878 Off ch=3 n=86 v=84
35878 Off ch=3 n=78 v=83
35878 Off ch=3 n=81 v=87
36000 On ch=3 n=86 v=82
36000 On ch=3 n=78 v=80
36000 On ch=3 n=81 v=85
36118 Off ch=3 n=86 v=82
36118 Off ch=3 n=78 v=80
36118 Off ch=3 n=81 v=85
36240 On ch=3 n=85 v=81
36240 On ch=3 n=81 v=80
36240 On ch=3 n=76 v=78
36358 Off ch=3 n=85 v=81
36358 Off ch=3 n=81 v=80
36358 Off ch=3 n=76 v=78
36480 On ch=3 n=85 v=79
36480 On ch=3 n=81 v=80
36480 On ch=3 n=76 v=80
36598 Off ch=3 n=85 v=79
36598 Off ch=3 n=81 v=80
36598 Off ch=3 n=76 v=80
36720 On ch=3 n=76 v=83
36720 On ch=3 n=80 v=81
36720 On ch=3 n=83 v=79
36838 Off ch=3 n=76 v=83
36838 Off ch=3 n=80 v=81
36838 Off ch=3 n=83 v=79
36960 On ch=3 n=78 v=81
36960 On ch=3 n=81 v=81
36960 On ch=3 n=86 v=80
37078 Off ch=3 n=78 v=81
37078 Off ch=3 n=81 v=81
37078 Off ch=3 n=86 v=80
37200 On ch=3 n=86 v=80
37200 On ch=3 n=81 v=80
37200 On ch=3 n=78 v=80
37318 Off ch=3 n=86 v=80
37318 Off ch=3 n=81 v=80
37318 Off ch=3 n=78 v=80
37440 On ch=3 n=78 v=80
37440 On ch=3 n=81 v=80
37440 On ch=3 n=86 v=81
37558 Off ch=3 n=78 v=80
37558 Off ch=3 n=81 v=80
37558 Off ch=3 n=86 v=81
37680 On ch=3 n=85 v=80
37680 On ch=3 n=81 v=80
37680 On ch=3 n=78 v=80
37798 Off ch=3 n=85 v=80
37798 Off ch=3 n=81 v=80
37798 Off ch=3 n=78 v=80
37920 On ch=3 n=81 v=81
37920 On ch=3 n=78 v=80
37920 On ch=3 n=85 v=80
38038 Off ch=3 n=81 v=81
38038 Off ch=3 n=78 v=80
38038 Off ch=3 n=85 v=80
38160 On ch=3 n=78 v=80
38160 On ch=3 n=81 v=80
38160 On ch=3 n=85 v=81
38278 Off ch=3 n=78 v=80
38278 Off ch=3 n=81 v=80
38278 Off ch=3 n=85 v=81
38400 On ch=3 n=80 v=80
38400 On ch=3 n=76 v=80
38400 On ch=3 n=83 v=80
38518 Off ch=3 n=80 v=80
38518 Off ch=3 n=76 v=80
38518 Off ch=3 n=83 v=80
38640 On ch=3 n=76 v=80
38640 On ch=3 n=80 v=80
38640 On ch=3 n=83 v=80
38758 Off ch=3 n=76 v=80
38758 Off ch=3 n=80 v=80
38758 Off ch=3 n=83 v=80
38880 On ch=3 n=80 v=80
38880 On ch=3 n=76 v=80
38880 On ch=3 n=83 v=80
38998 Off ch=3 n=80 v=80
38998 Off ch=3 n=76 v=80
38998 Off ch=3 n=83 v=80
39120 On ch=3 n=80 v=80
39120 On ch=3 n=76 v=80
39120 On ch=3 n=83 v=80
39238 Off ch=3 n=80 v=80
39238 Off ch=3 n=76 v=80
39238 Off ch=3 n=83 v=80
39360 On ch=3 n=74 v=80
39360 On ch=3 n=78 v=80
39360 On ch=3 n=81 v=80
39478 Off ch=3 n=74 v=80
39478 Off ch=3 n=78 v=80
39478 Off ch=3 n=81 v=80
39600 On ch=3 n=74 v=80
39600 On ch=3 n=78 v=80
39600 On ch=3 n=81 v=80
39718 Off ch=3 n=74 v=80
39718 Off ch=3 n=78 v=80
39718 Off ch=3 n=81 v=80
39840 On ch=3 n=74 v=80
39840 On ch=3 n=78 v=80
39840 On ch=3 n=81 v=80
39958 Off ch=3 n=74 v=80
39958 Off ch=3 n=78 v=80
39958 Off ch=3 n=81 v=80
40080 On ch=3 n=74 v=80
40080 On ch=3 n=78 v=81
40080 On ch=3 n=81 v=80
40198 Off ch=3 n=74 v=80
40198 Off ch=3 n=78 v=81
40198 Off ch=3 n=81 v=80
40320 On ch=3 n=85 v=80
40320 On ch=3 n=81 v=80
40896 Off ch=3 n=85 v=80
40896 Off ch=3 n=81 v=80
41040 On ch=3 n=83 v=80
41040 On ch=3 n=80 v=80
41232 Off ch=3 n=83 v=80
41232 Off ch=3 n=80 v=80
41520 On ch=3 n=85 v=80
41520 On ch=3 n=81 v=80
41712 Off ch=3 n=85 v=80
41712 Off ch=3 n=81 v=80
42000 On ch=3 n=86 v=80
42000 On ch=3 n=81 v=80
42432 Off ch=3 n=86 v=80
42432 Off ch=3 n=81 v=80
42480 On ch=3 n=85 v=80
42480 On ch=3 n=81 v=80
42864 Off ch=3 n=85 v=80
42864 Off ch=3 n=81 v=80
42960 On ch=3 n=83 v=80
42960 On ch=3 n=80 v=80
43152 Off ch=3 n=83 v=80
43152 Off ch=3 n=80 v=80
43200 On ch=3 n=81 v=80
43200 On ch=3 n=85 v=80
43392 Off ch=3 n=81 v=80
43392 Off ch=3 n=85 v=80
43680 On ch=3 n=81 v=80
43680 On ch=3 n=85 v=80
44256 Off ch=3 n=81 v=80
44256 Off ch=3 n=85 v=80
44400 On ch=3 n=80 v=80
44400 On ch=3 n=83 v=80
44592 Off ch=3 n=80 v=80
44592 Off ch=3 n=83 v=80
44880 On ch=3 n=81 v=80
44880 On ch=3 n=85 v=80
45072 Off ch=3 n=81 v=80
45072 Off ch=3 n=85 v=80
45360 On ch=3 n=81 v=80
45360 On ch=3 n=86 v=80
45792 Off ch=3 n=81 v=80
45792 Off ch=3 n=86 v=80
45840 On ch=3 n=85 v=80
45840 On ch=3 n=81 v=80
46224 Off ch=3 n=85 v=80
46224 Off ch=3 n=81 v=80
46320 On ch=3 n=80 v=80
46320 On ch=3 n=83 v=80
46512 Off ch=3 n=80 v=80
46512 Off ch=3 n=83 v=80
46560 On ch=3 n=81 v=80
46560 On ch=3 n=85 v=80
46752 Off ch=3 n=81 v=80
46752 Off ch=3 n=85 v=80
47040 On ch=3 n=81 v=80
47040 On ch=3 n=85 v=80
47616 Off ch=3 n=81 v=80
47616 Off ch=3 n=85 v=80
47760 On ch=3 n=80 v=80
47760 On ch=3 n=83 v=80
47952 Off ch=3 n=80 v=80
47952 Off ch=3 n=83 v=80
48240 On ch=3 n=81 v=80
48240 On ch=3 n=85 v=80
48432 Off ch=3 n=81 v=80
48432 Off ch=3 n=85 v=80
48720 On ch=3 n=81 v=80
48720 On ch=3 n=86 v=80
49152 Off ch=3 n=81 v=80
49152 Off ch=3 n=86 v=80
49200 On ch=3 n=81 v=80
49200 On ch=3 n=85 v=80
49584 Off ch=3 n=81 v=80
49584 Off ch=3 n=85 v=80
49680 On ch=3 n=80 v=80
49680 On ch=3 n=83 v=80
49872 Off ch=3 n=80 v=80
49872 Off ch=3 n=83 v=80
49920 On ch=3 n=86 v=80
49920 On ch=3 n=81 v=80
50496 Off ch=3 n=86 v=80
50496 Off ch=3 n=81 v=80
50640 On ch=3 n=81 v=80
50640 On ch=3 n=85 v=80
51360 Off ch=3 n=81 v=80
51360 Off ch=3 n=85 v=80
51360 On ch=3 n=83 v=80
51360 On ch=3 n=80 v=80
51936 Off ch=3 n=83 v=80
51936 Off ch=3 n=80 v=80
103680 KeySig 3 major
113280 KeySig 0 major
115680 On ch=3 n=74 v=80
116120 Off ch=3 n=74 v=80
116160 On ch=3 n=83 v=80
116600 Off ch=3 n=83 v=80
116640 On ch=3 n=79 v=80
117080 Off ch=3 n=79 v=80
117120 On ch=3 n=81 v=80
117560 Off ch=3 n=81 v=80
117600 On ch=3 n=74 v=80
118040 Off ch=3 n=74 v=80
118080 On ch=3 n=83 v=80
118520 Off ch=3 n=83 v=80
118560 On ch=3 n=79 v=80
119000 Off ch=3 n=79 v=80
119040 On ch=3 n=81 v=80
119480 Off ch=3 n=81 v=80
119520 On ch=3 n=74 v=80
119960 Off ch=3 n=74 v=80
120000 On ch=3 n=83 v=80
120440 Off ch=3 n=83 v=80
120480 On ch=3 n=79 v=80
120920 Off ch=3 n=79 v=80
120960 On ch=3 n=81 v=80
121400 Off ch=3 n=81 v=80
121440 On ch=3 n=74 v=80
121880 Off ch=3 n=74 v=80
121920 On ch=3 n=83 v=80
122360 Off ch=3 n=83 v=80
122400 On ch=3 n=79 v=80
122840 Off ch=3 n=79 v=80
122880 On ch=3 n=81 v=80
123320 Off ch=3 n=81 v=80
123360 On ch=3 n=74 v=80
123800 Off ch=3 n=74 v=80
123840 On ch=3 n=83 v=80
124280 Off ch=3 n=83 v=80
124320 On ch=3 n=79 v=80
124760 Off ch=3 n=79 v=80
124800 On ch=3 n=81 v=80
125240 Off ch=3 n=81 v=80
125280 On ch=3 n=74 v=80
125720 Off ch=3 n=74 v=80
125760 On ch=3 n=83 v=80
126200 Off ch=3 n=83 v=80
126240 On ch=3 n=79 v=80
126680 Off ch=3 n=79 v=80
126720 On ch=3 n=81 v=80
127160 Off ch=3 n=81 v=80
127200 On ch=3 n=74 v=80
127640 Off ch=3 n=74 v=80
127680 On ch=3 n=83 v=80
128120 Off ch=3 n=83 v=80
128160 On ch=3 n=79 v=80
128600 Off ch=3 n=79 v=80
128640 On ch=3 n=81 v=80
129080 Off ch=3 n=81 v=80
129120 On ch=3 n=74 v=80
129560 Off ch=3 n=74 v=80
129600 On ch=3 n=83 v=80
130040 Off ch=3 n=83 v=80
130080 On ch=3 n=79 v=80
130520 Off ch=3 n=79 v=80
130560 On ch=3 n=81 v=80
131000 Off ch=3 n=81 v=80
131040 On ch=3 n=74 v=80
131480 Off ch=3 n=74 v=80
131520 On ch=3 n=83 v=80
131960 Off ch=3 n=83 v=80
132000 On ch=3 n=79 v=80
132440 Off ch=3 n=79 v=80
132480 On ch=3 n=81 v=80
132920 Off ch=3 n=81 v=80
132960 On ch=3 n=74 v=80
133400 Off ch=3 n=74 v=80
133440 On ch=3 n=83 v=80
133880 Off ch=3 n=83 v=80
133920 On ch=3 n=79 v=80
134360 Off ch=3 n=79 v=80
134400 On ch=3 n=81 v=80
134840 Off ch=3 n=81 v=80
134880 On ch=3 n=74 v=80
135320 Off ch=3 n=74 v=80
135360 On ch=3 n=83 v=80
135800 Off ch=3 n=83 v=80
135840 On ch=3 n=79 v=80
136280 Off ch=3 n=79 v=80
136320 On ch=3 n=81 v=80
136760 Off ch=3 n=81 v=80
136800 On ch=3 n=74 v=80
137240 Off ch=3 n=74 v=80
137280 On ch=3 n=83 v=80
137720 Off ch=3 n=83 v=80
137760 On ch=3 n=79 v=80
138200 Off ch=3 n=79 v=80
138240 On ch=3 n=81 v=80
138240 On ch=3 n=76 v=80
138240 On ch=3 n=72 v=80
138624 Off ch=3 n=81 v=80
138624 Off ch=3 n=76 v=80
138624 Off ch=3 n=72 v=80
138720 On ch=3 n=76 v=80
139104 Off ch=3 n=76 v=80
139200 On ch=3 n=69 v=80
139200 On ch=3 n=74 v=80
139200 On ch=3 n=78 v=80
139584 Off ch=3 n=69 v=80
139584 Off ch=3 n=74 v=80
139584 Off ch=3 n=78 v=80
139680 On ch=3 n=74 v=80
140064 Off ch=3 n=74 v=80
140160 On ch=3 n=69 v=80
140160 On ch=3 n=76 v=80
140160 On ch=3 n=71 v=80
140160 On ch=3 n=67 v=80
142176 Off ch=3 n=69 v=80
142176 Off ch=3 n=76 v=80
142176 Off ch=3 n=71 v=80
142176 Off ch=3 n=67 v=80
201600 On ch=3 n=81 v=80
201600 On ch=3 n=85 v=80
202176 Off ch=3 n=81 v=80
202176 Off ch=3 n=85 v=80
202320 On ch=3 n=80 v=80
202320 On ch=3 n=83 v=80
202512 Off ch=3 n=80 v=80
202512 Off ch=3 n=83 v=80
202800 On ch=3 n=81 v=80
202800 On ch=3 n=85 v=80
202992 Off ch=3 n=81 v=80
202992 Off ch=3 n=85 v=80
203280 On ch=3 n=81 v=80
203280 On ch=3 n=86 v=80
203712 Off ch=3 n=81 v=80
203712 Off ch=3 n=86 v=80
203760 On ch=3 n=81 v=80
203760 On ch=3 n=85 v=80
204144 Off ch=3 n=81 v=80
204144 Off ch=3 n=85 v=80
204240 On ch=3 n=80 v=80
204240 On ch=3 n=83 v=80
204432 Off ch=3 n=80 v=80
204432 Off ch=3 n=83 v=80
204480 On ch=3 n=85 v=80
204480 On ch=3 n=81 v=80
204672 Off ch=3 n=85 v=80
204672 Off ch=3 n=81 v=80
204960 On ch=3 n=85 v=80
204960 On ch=3 n=81 v=80
205536 Off ch=3 n=85 v=80
205536 Off ch=3 n=81 v=80
205680 On ch=3 n=83 v=80
205680 On ch=3 n=80 v=80
205872 Off ch=3 n=83 v=80
205872 Off ch=3 n=80 v=80
206160 On ch=3 n=85 v=80
206160 On ch=3 n=81 v=80
206352 Off ch=3 n=85 v=80
206352 Off ch=3 n=81 v=80
206640 On ch=3 n=86 v=80
206640 On ch=3 n=81 v=80
207072 Off ch=3 n=86 v=80
207072 Off ch=3 n=81 v=80
207120 On ch=3 n=81 v=80
207120 On ch=3 n=85 v=80
207504 Off ch=3 n=81 v=80
207504 Off ch=3 n=85 v=80
207600 On ch=3 n=83 v=80
207600 On ch=3 n=80 v=80
207792 Off ch=3 n=83 v=80
207792 Off ch=3 n=80 v=80
207840 On ch=3 n=85 v=80
207840 On ch=3 n=81 v=80
208032 Off ch=3 n=85 v=80
208032 Off ch=3 n=81 v=80
208320 On ch=3 n=85 v=80
208320 On ch=3 n=81 v=80
208896 Off ch=3 n=85 v=80
208896 Off ch=3 n=81 v=80
209040 On ch=3 n=83 v=80
209040 On ch=3 n=80 v=80
209232 Off ch=3 n=83 v=80
209232 Off ch=3 n=80 v=80
209520 On ch=3 n=85 v=80
209520 On ch=3 n=81 v=80
209712 Off ch=3 n=85 v=80
209712 Off ch=3 n=81 v=80
210000 On ch=3 n=86 v=80
210000 On ch=3 n=81 v=80
210432 Off ch=3 n=86 v=80
210432 Off ch=3 n=81 v=80
210480 On ch=3 n=85 v=80
210480 On ch=3 n=81 v=80
210864 Off ch=3 n=85 v=80
210864 Off ch=3 n=81 v=80
210960 On ch=3 n=83 v=80
210960 On ch=3 n=80 v=80
211152 Off ch=3 n=83 v=80
211152 Off ch=3 n=80 v=80
211200 On ch=3 n=86 v=80
211200 On ch=3 n=81 v=80
211776 Off ch=3 n=86 v=80
211776 Off ch=3 n=81 v=80
211920 On ch=3 n=81 v=80
211920 On ch=3 n=85 v=80
212640 Off ch=3 n=81 v=80
212640 Off ch=3 n=85 v=80
212640 On ch=3 n=83 v=80
212640 On ch=3 n=80 v=80
213216 Off ch=3 n=83 v=80
213216 Off ch=3 n=80 v=80
213360 On ch=3 n=74 v=80
213552 Off ch=3 n=74 v=80
213600 On ch=3 n=76 v=80
213792 Off ch=3 n=76 v=80
213840 On ch=3 n=78 v=80
214032 Off ch=3 n=78 v=80
214080 On ch=3 n=81 v=80
214272 Off ch=3 n=81 v=80
214320 On ch=3 n=86 v=80
214512 Off ch=3 n=86 v=80
214560 On ch=3 n=85 v=80
214560 On ch=3 n=81 v=80
215136 Off ch=3 n=85 v=80
215136 Off ch=3 n=81 v=80
215280 On ch=3 n=83 v=80
215280 On ch=3 n=80 v=80
215472 Off ch=3 n=83 v=80
215472 Off ch=3 n=80 v=80
215760 On ch=3 n=85 v=80
215760 On ch=3 n=81 v=80
215952 Off ch=3 n=85 v=80
215952 Off ch=3 n=81 v=80
216240 On ch=3 n=86 v=80
216240 On ch=3 n=81 v=80
216672 Off ch=3 n=86 v=80
216672 Off ch=3 n=81 v=80
216720 On ch=3 n=85 v=80
216720 On ch=3 n=81 v=80
217104 Off ch=3 n=85 v=80
217104 Off ch=3 n=81 v=80
217200 On ch=3 n=83 v=80
217200 On ch=3 n=80 v=80
217392 Off ch=3 n=83 v=80
217392 Off ch=3 n=80 v=80
217440 On ch=3 n=81 v=80
217440 On ch=3 n=85 v=80
217632 Off ch=3 n=81 v=80
217632 Off ch=3 n=85 v=80
217920 On ch=3 n=81 v=80
217920 On ch=3 n=85 v=80
218496 Off ch=3 n=81 v=80
218496 Off ch=3 n=85 v=80
218640 On ch=3 n=80 v=80
218640 On ch=3 n=83 v=80
218832 Off ch=3 n=80 v=80
218832 Off ch=3 n=83 v=80
219120 On ch=3 n=81 v=80
219120 On ch=3 n=85 v=80
219312 Off ch=3 n=81 v=80
219312 Off ch=3 n=85 v=80
219600 On ch=3 n=81 v=80
219600 On ch=3 n=86 v=80
220032 Off ch=3 n=81 v=80
220032 Off ch=3 n=86 v=80
220080 On ch=3 n=85 v=80
220080 On ch=3 n=81 v=80
220464 Off ch=3 n=85 v=80
220464 Off ch=3 n=81 v=80
220560 On ch=3 n=80 v=80
220560 On ch=3 n=83 v=80
220752 Off ch=3 n=80 v=80
220752 Off ch=3 n=83 v=80
220800 On ch=3 n=81 v=80
220800 On ch=3 n=85 v=80
220992 Off ch=3 n=81 v=80
220992 Off ch=3 n=85 v=80
221280 On ch=3 n=81 v=80
221280 On ch=3 n=85 v=80
221856 Off ch=3 n=81 v=80
221856 Off ch=3 n=85 v=80
222000 On ch=3 n=80 v=80
222000 On ch=3 n=83 v=80
222192 Off ch=3 n=80 v=80
222192 Off ch=3 n=83 v=80
222480 On ch=3 n=81 v=80
222480 On ch=3 n=85 v=80
222672 Off ch=3 n=81 v=80
222672 Off ch=3 n=85 v=80
222960 On ch=3 n=81 v=80
222960 On ch=3 n=86 v=80
223392 Off ch=3 n=81 v=80
223392 Off ch=3 n=86 v=80
223440 On ch=3 n=81 v=80
223440 On ch=3 n=85 v=80
223824 Off ch=3 n=81 v=80
223824 Off ch=3 n=85 v=80
223920 On ch=3 n=80 v=80
223920 On ch=3 n=83 v=80
224112 Off ch=3 n=80 v=80
224112 Off ch=3 n=83 v=80
224160 On ch=3 n=90 v=80
224160 On ch=3 n=86 v=80
224736 Off ch=3 n=90 v=80
224736 Off ch=3 n=86 v=80
224880 On ch=3 n=88 v=80
224880 On ch=3 n=85 v=80
225072 Off ch=3 n=88 v=80
225072 Off ch=3 n=85 v=80
225360 On ch=3 n=86 v=80
225360 On ch=3 n=90 v=80
225552 Off ch=3 n=86 v=80
225552 Off ch=3 n=90 v=80
225840 On ch=3 n=91 v=80
225840 On ch=3 n=86 v=80
226272 Off ch=3 n=91 v=80
226272 Off ch=3 n=86 v=80
226320 On ch=3 n=90 v=80
226320 On ch=3 n=86 v=80
226704 Off ch=3 n=90 v=80
226704 Off ch=3 n=86 v=80
226800 On ch=3 n=88 v=80
226800 On ch=3 n=85 v=80
226992 Off ch=3 n=88 v=80
226992 Off ch=3 n=85 v=80
227040 On ch=3 n=86 v=80
227040 On ch=3 n=90 v=80
227616 Off ch=3 n=86 v=80
227616 Off ch=3 n=90 v=80
227760 On ch=3 n=85 v=80
227760 On ch=3 n=88 v=80
227952 Off ch=3 n=85 v=80
227952 Off ch=3 n=88 v=80
228240 On ch=3 n=90 v=80
228240 On ch=3 n=86 v=80
228432 Off ch=3 n=90 v=80
228432 Off ch=3 n=86 v=80
228720 On ch=3 n=86 v=80
228720 On ch=3 n=91 v=80
229152 Off ch=3 n=86 v=80
229152 Off ch=3 n=91 v=80
229200 On ch=3 n=86 v=80
229200 On ch=3 n=90 v=80
229584 Off ch=3 n=86 v=80
229584 Off ch=3 n=90 v=80
229680 On ch=3 n=85 v=80
229680 On ch=3 n=88 v=80
229872 Off ch=3 n=85 v=80
229872 Off ch=3 n=88 v=80
229920 On ch=3 n=78 v=80
229920 On ch=3 n=81 v=80
229920 On ch=3 n=86 v=80
230038 Off ch=3 n=78 v=80
230038 Off ch=3 n=81 v=80
230038 Off ch=3 n=86 v=80
230160 On ch=3 n=86 v=80
230160 On ch=3 n=81 v=80
230160 On ch=3 n=78 v=80
230278 Off ch=3 n=86 v=80
230278 Off ch=3 n=81 v=80
230278 Off ch=3 n=78 v=80
230400 On ch=3 n=86 v=80
230400 On ch=3 n=81 v=80
230400 On ch=3 n=78 v=80
230518 Off ch=3 n=86 v=80
230518 Off ch=3 n=81 v=80
230518 Off ch=3 n=78 v=80
230640 On ch=3 n=86 v=80
230640 On ch=3 n=81 v=80
230640 On ch=3 n=76 v=80
230758 Off ch=3 n=86 v=80
230758 Off ch=3 n=81 v=80
230758 Off ch=3 n=76 v=80
230880 On ch=3 n=86 v=80
230880 On ch=3 n=81 v=80
230880 On ch=3 n=76 v=80
230998 Off ch=3 n=86 v=80
230998 Off ch=3 n=81 v=80
230998 Off ch=3 n=76 v=80
231120 On ch=3 n=86 v=80
231120 On ch=3 n=81 v=80
231120 On ch=3 n=78 v=81
231238 Off ch=3 n=86 v=80
231238 Off ch=3 n=81 v=80
231238 Off ch=3 n=78 v=81
231360 On ch=3 n=86 v=81
231360 On ch=3 n=81 v=80
231360 On ch=3 n=78 v=81
231478 Off ch=3 n=86 v=81
231478 Off ch=3 n=81 v=80
231478 Off ch=3 n=78 v=81
231600 On ch=3 n=86 v=80
231600 On ch=3 n=81 v=80
231600 On ch=3 n=79 v=80
231718 Off ch=3 n=86 v=80
231718 Off ch=3 n=81 v=80
231718 Off ch=3 n=79 v=80
231840 On ch=3 n=86 v=81
231840 On ch=3 n=81 v=80
231840 On ch=3 n=79 v=82
231958 Off ch=3 n=86 v=81
231958 Off ch=3 n=81 v=80
231958 Off ch=3 n=79 v=82
232080 On ch=3 n=79 v=80
232080 On ch=3 n=81 v=80
232080 On ch=3 n=86 v=81
232198 Off ch=3 n=79 v=80
232198 Off ch=3 n=81 v=80
232198 Off ch=3 n=86 v=81
232320 On ch=3 n=79 v=80
232320 On ch=3 n=86 v=80
232320 On ch=3 n=81 v=80
232438 Off ch=3 n=79 v=80
232438 Off ch=3 n=86 v=80
232438 Off ch=3 n=81 v=80
232560 On ch=3 n=79 v=80
232560 On ch=3 n=81 v=79
232560 On ch=3 n=86 v=80
232678 Off ch=3 n=79 v=80
232678 Off ch=3 n=81 v=79
232678 Off ch=3 n=86 v=80
237120 On ch=3 n=69 v=80
237312 Off ch=3 n=69 v=80
239040 On ch=3 n=81 v=80
239424 Off ch=3 n=81 v=80
239520 On ch=3 n=74 v=80
239904 Off ch=3 n=74 v=80
240000 On ch=3 n=83 v=80
240384 Off ch=3 n=83 v=80
240480 On ch=3 n=79 v=80
240864 Off ch=3 n=79 v=80
240960 On ch=3 n=81 v=80
241344 Off ch=3 n=81 v=80
241440 On ch=3 n=74 v=80
241824 Off ch=3 n=74 v=80
241920 On ch=3 n=83 v=80
242304 Off ch=3 n=83 v=80
242400 On ch=3 n=79 v=80
242784 Off ch=3 n=79 v=80
242880 On ch=3 n=81 v=80
243264 Off ch=3 n=81 v=80
243360 On ch=3 n=74 v=80
243744 Off ch=3 n=74 v=80
243840 On ch=3 n=83 v=80
244224 Off ch=3 n=83 v=80
244320 On ch=3 n=79 v=80
244704 Off ch=3 n=79 v=80
244800 On ch=3 n=81 v=80
245184 Off ch=3 n=81 v=80
245280 On ch=3 n=74 v=80
245664 Off ch=3 n=74 v=80
245760 On ch=3 n=83 v=80
246144 Off ch=3 n=83 v=80
246240 On ch=3 n=79 v=80
246624 Off ch=3 n=79 v=80
246720 On ch=3 n=81 v=80
247104 Off ch=3 n=81 v=80
247200 On ch=3 n=74 v=80
247584 Off ch=3 n=74 v=80
247680 On ch=3 n=83 v=80
248064 Off ch=3 n=83 v=80
248160 On ch=3 n=79 v=80
248544 Off ch=3 n=79 v=80
248640 On ch=3 n=81 v=80
249024 Off ch=3 n=81 v=80
249120 On ch=3 n=74 v=80
249504 Off ch=3 n=74 v=80
249600 On ch=3 n=83 v=80
249984 Off ch=3 n=83 v=80
250080 On ch=3 n=79 v=80
250464 Off ch=3 n=79 v=80
250560 On ch=3 n=81 v=80
250944 Off ch=3 n=81 v=80
251040 On ch=3 n=74 v=80
251424 Off ch=3 n=74 v=80
251520 On ch=3 n=83 v=80
251904 Off ch=3 n=83 v=80
252000 On ch=3 n=78 v=80
252384 Off ch=3 n=78 v=80
252480 On ch=3 n=79 v=80
252864 Off ch=3 n=79 v=80
252960 On ch=3 n=74 v=80
253344 Off ch=3 n=74 v=80
253440 On ch=3 n=83 v=80
253824 Off ch=3 n=83 v=80
253920 On ch=3 n=79 v=80
254304 Off ch=3 n=79 v=80
254400 On ch=3 n=81 v=80
254784 Off ch=3 n=81 v=80
254880 On ch=3 n=74 v=80
255264 Off ch=3 n=74 v=80
255360 On ch=3 n=83 v=80
255744 Off ch=3 n=83 v=80
255840 On ch=3 n=79 v=80
256224 Off ch=3 n=79 v=80
256320 On ch=3 n=81 v=80
256704 Off ch=3 n=81 v=80
256800 On ch=3 n=74 v=80
257184 Off ch=3 n=74 v=80
257280 On ch=3 n=83 v=80
257664 Off ch=3 n=83 v=80
257760 On ch=3 n=79 v=80
258144 Off ch=3 n=79 v=80
258240 On ch=3 n=81 v=80
258624 Off ch=3 n=81 v=80
258720 On ch=3 n=74 v=80
259104 Off ch=3 n=74 v=80
259200 On ch=3 n=83 v=80
259584 Off ch=3 n=83 v=80
259680 On ch=3 n=79 v=80
260064 Off ch=3 n=79 v=80
260160 On ch=3 n=81 v=80
260544 Off ch=3 n=81 v=80
260640 On ch=3 n=74 v=80
261024 Off ch=3 n=74 v=80
261120 On ch=3 n=83 v=80
261504 Off ch=3 n=83 v=80
261600 On ch=3 n=79 v=80
261984 Off ch=3 n=79 v=80
262080 On ch=3 n=81 v=80
262080 On ch=3 n=76 v=80
262080 On ch=3 n=72 v=80
262080 On ch=3 n=81 v=80
262464 Off ch=3 n=81 v=80
262560 On ch=3 n=74 v=80
262848 Off ch=3 n=81 v=80
262848 Off ch=3 n=76 v=80
262848 Off ch=3 n=72 v=80
262944 Off ch=3 n=74 v=80
263040 On ch=3 n=81 v=80
263040 On ch=3 n=78 v=80
263040 On ch=3 n=74 v=80
263040 On ch=3 n=83 v=80
263424 Off ch=3 n=83 v=80
263520 On ch=3 n=79 v=80
263808 Off ch=3 n=81 v=80
263808 Off ch=3 n=78 v=80
263808 Off ch=3 n=74 v=80
263904 Off ch=3 n=79 v=80
264000 On ch=3 n=71 v=80
264000 On ch=3 n=76 v=80
264000 On ch=3 n=72 v=80
265536 Off ch=3 n=71 v=80
265536 Off ch=3 n=76 v=80
265536 Off ch=3 n=72 v=80
265920 On ch=3 n=69 v=80
265920 On ch=3 n=74 v=80
265920 On ch=3 n=78 v=80
267456 Off ch=3 n=69 v=80
267456 Off ch=3 n=74 v=80
267456 Off ch=3 n=78 v=80
267840 On ch=3 n=72 v=80
267840 On ch=3 n=76 v=80
267840 On ch=3 n=71 v=80
269376 Off ch=3 n=72 v=80
269376 Off ch=3 n=76 v=80
269376 Off ch=3 n=71 v=80
269760 On ch=3 n=78 v=80
269760 On ch=3 n=74 v=80
269760 On ch=3 n=69 v=80
271296 Off ch=3 n=78 v=80
271296 Off ch=3 n=74 v=80
271296 Off ch=3 n=69 v=80
271680 On ch=3 n=72 v=80
271680 On ch=3 n=76 v=80
271680 On ch=3 n=71 v=80
273216 Off ch=3 n=72 v=80
273216 Off ch=3 n=76 v=80
273216 Off ch=3 n=71 v=80
273600 On ch=3 n=78 v=80
273600 On ch=3 n=74 v=80
273600 On ch=3 n=69 v=80
275136 Off ch=3 n=78 v=80
275136 Off ch=3 n=74 v=80
275136 Off ch=3 n=69 v=80
275520 On ch=3 n=71 v=80
275520 On ch=3 n=76 v=80
275520 On ch=3 n=72 v=80
277056 Off ch=3 n=71 v=80
277056 Off ch=3 n=76 v=80
277056 Off ch=3 n=72 v=80
277440 On ch=3 n=69 v=80
277440 On ch=3 n=74 v=80
277440 On ch=3 n=78 v=80
278976 Off ch=3 n=69 v=80
278976 Off ch=3 n=74 v=80
278976 Off ch=3 n=78 v=80
279360 On ch=3 n=71 v=80
279360 On ch=3 n=76 v=80
279360 On ch=3 n=72 v=80
280896 Off ch=3 n=71 v=80
280896 Off ch=3 n=76 v=80
280896 Off ch=3 n=72 v=80
281280 On ch=3 n=69 v=80
281280 On ch=3 n=74 v=80
281280 On ch=3 n=78 v=80
282816 Off ch=3 n=69 v=80
282816 Off ch=3 n=74 v=80
282816 Off ch=3 n=78 v=80
283200 On ch=3 n=72 v=80
283200 On ch=3 n=76 v=80
283200 On ch=3 n=71 v=80
284736 Off ch=3 n=72 v=80
284736 Off ch=3 n=76 v=80
284736 Off ch=3 n=71 v=80
285120 On ch=3 n=78 v=80
285120 On ch=3 n=74 v=80
285120 On ch=3 n=69 v=80
286656 Off ch=3 n=78 v=80
286656 Off ch=3 n=74 v=80
286656 Off ch=3 n=69 v=80
287040 On ch=3 n=71 v=80
287040 On ch=3 n=76 v=80
287040 On ch=3 n=72 v=80
288576 Off ch=3 n=71 v=80
288576 Off ch=3 n=76 v=80
288576 Off ch=3 n=72 v=80
288960 On ch=3 n=69 v=80
288960 On ch=3 n=74 v=80
288960 On ch=3 n=78 v=80
290496 Off ch=3 n=69 v=80
290496 Off ch=3 n=74 v=80
290496 Off ch=3 n=78 v=80
290880 On ch=3 n=72 v=80
290880 On ch=3 n=76 v=80
290880 On ch=3 n=71 v=80
292416 Off ch=3 n=72 v=80
292416 Off ch=3 n=76 v=80
292416 Off ch=3 n=71 v=80
292800 On ch=3 n=78 v=80
292800 On ch=3 n=74 v=80
292800 On ch=3 n=69 v=80
294336 Off ch=3 n=78 v=80
294336 Off ch=3 n=74 v=80
294336 Off ch=3 n=69 v=80
294720 On ch=3 n=81 v=80
294720 On ch=3 n=85 v=80
295296 Off ch=3 n=81 v=80
295296 Off ch=3 n=85 v=80
295440 On ch=3 n=80 v=80
295440 On ch=3 n=83 v=80
295632 Off ch=3 n=80 v=80
295632 Off ch=3 n=83 v=80
295920 On ch=3 n=81 v=80
295920 On ch=3 n=85 v=80
296112 Off ch=3 n=81 v=80
296112 Off ch=3 n=85 v=80
296400 On ch=3 n=81 v=80
296400 On ch=3 n=86 v=80
296832 Off ch=3 n=81 v=80
296832 Off ch=3 n=86 v=80
296880 On ch=3 n=81 v=80
296880 On ch=3 n=85 v=80
297264 Off ch=3 n=81 v=80
297264 Off ch=3 n=85 v=80
297360 On ch=3 n=80 v=80
297360 On ch=3 n=83 v=80
297552 Off ch=3 n=80 v=80
297552 Off ch=3 n=83 v=80
297600 On ch=3 n=85 v=80
297600 On ch=3 n=81 v=80
297792 Off ch=3 n=85 v=80
297792 Off ch=3 n=81 v=80
298080 On ch=3 n=85 v=80
298080 On ch=3 n=81 v=80
298656 Off ch=3 n=85 v=80
298656 Off ch=3 n=81 v=80
298800 On ch=3 n=83 v=80
298800 On ch=3 n=80 v=80
298992 Off ch=3 n=83 v=80
298992 Off ch=3 n=80 v=80
299280 On ch=3 n=85 v=80
299280 On ch=3 n=81 v=80
299472 Off ch=3 n=85 v=80
299472 Off ch=3 n=81 v=80
299760 On ch=3 n=86 v=80
299760 On ch=3 n=81 v=80
300192 Off ch=3 n=86 v=80
300192 Off ch=3 n=81 v=80
300240 On ch=3 n=81 v=80
300240 On ch=3 n=85 v=80
300624 Off ch=3 n=81 v=80
300624 Off ch=3 n=85 v=80
300720 On ch=3 n=83 v=80
300720 On ch=3 n=80 v=80
300912 Off ch=3 n=83 v=80
300912 Off ch=3 n=80 v=80
300960 On ch=3 n=85 v=80
300960 On ch=3 n=81 v=80
301152 Off ch=3 n=85 v=80
301152 Off ch=3 n=81 v=80
301440 On ch=3 n=85 v=80
301440 On ch=3 n=81 v=80
302016 Off ch=3 n=85 v=80
302016 Off ch=3 n=81 v=80
302160 On ch=3 n=83 v=80
302160 On ch=3 n=80 v=80
302352 Off ch=3 n=83 v=80
302352 Off ch=3 n=80 v=80
302640 On ch=3 n=85 v=80
302640 On ch=3 n=81 v=80
302832 Off ch=3 n=85 v=80
302832 Off ch=3 n=81 v=80
303120 On ch=3 n=86 v=80
303120 On ch=3 n=81 v=80
303552 Off ch=3 n=86 v=80
303552 Off ch=3 n=81 v=80
303600 On ch=3 n=85 v=80
303600 On ch=3 n=81 v=80
303984 Off ch=3 n=85 v=80
303984 Off ch=3 n=81 v=80
304080 On ch=3 n=83 v=80
304080 On ch=3 n=80 v=80
304272 Off ch=3 n=83 v=80
304272 Off ch=3 n=80 v=80
304320 On ch=3 n=86 v=80
304320 On ch=3 n=81 v=80
304896 Off ch=3 n=86 v=80
304896 Off ch=3 n=81 v=80
305040 On ch=3 n=81 v=80
305040 On ch=3 n=85 v=80
305760 Off ch=3 n=81 v=80
305760 Off ch=3 n=85 v=80
305760 On ch=3 n=76 v=80
305760 On ch=3 n=80 v=80
305760 On ch=3 n=83 v=80
306528 Off ch=3 n=76 v=80
306528 Off ch=3 n=80 v=80
306528 Off ch=3 n=83 v=80
306720 On ch=3 n=81 v=114
306720 On ch=3 n=78 v=114
306720 On ch=3 n=74 v=114
306862 Off ch=3 n=81 v=114
306862 Off ch=3 n=78 v=114
306862 Off ch=3 n=74 v=114
306959 On ch=3 n=81 v=113
306959 On ch=3 n=78 v=113
306959 On ch=3 n=74 v=113
307101 Off ch=3 n=81 v=113
307101 Off ch=3 n=78 v=113
307101 Off ch=3 n=74 v=113
307201 On ch=3 n=81 v=116
307201 On ch=3 n=78 v=116
307201 On ch=3 n=74 v=116
307333 Off ch=3 n=81 v=116
307333 Off ch=3 n=78 v=116
307333 Off ch=3 n=74 v=116
307680 On ch=3 n=85 v=85
307680 On ch=3 n=81 v=87
307680 On ch=3 n=76 v=83
307798 Off ch=3 n=85 v=85
307798 Off ch=3 n=81 v=87
307798 Off ch=3 n=76 v=83
307920 On ch=3 n=83 v=84
307920 On ch=3 n=80 v=82
307920 On ch=3 n=76 v=83
308038 Off ch=3 n=83 v=84
308038 Off ch=3 n=80 v=82
308038 Off ch=3 n=76 v=83
308160 On ch=3 n=80 v=83
308160 On ch=3 n=83 v=82
308160 On ch=3 n=76 v=81
308278 Off ch=3 n=80 v=83
308278 Off ch=3 n=83 v=82
308278 Off ch=3 n=76 v=81
308400 On ch=3 n=85 v=82
308400 On ch=3 n=76 v=82
308400 On ch=3 n=81 v=86
308518 Off ch=3 n=85 v=82
308518 Off ch=3 n=76 v=82
308518 Off ch=3 n=81 v=86
308640 On ch=3 n=85 v=83
308640 On ch=3 n=81 v=85
308640 On ch=3 n=76 v=82
308758 Off ch=3 n=85 v=83
308758 Off ch=3 n=81 v=85
308758 Off ch=3 n=76 v=82
308880 On ch=3 n=86 v=84
308880 On ch=3 n=78 v=83
308880 On ch=3 n=81 v=87
308998 Off ch=3 n=86 v=84
308998 Off ch=3 n=78 v=83
308998 Off ch=3 n=81 v=87
309120 On ch=3 n=86 v=82
309120 On ch=3 n=78 v=80
309120 On ch=3 n=81 v=85
309238 Off ch=3 n=86 v=82
309238 Off ch=3 n=78 v=80
309238 Off ch=3 n=81 v=85
309360 On ch=3 n=85 v=80
309360 On ch=3 n=81 v=85
309360 On ch=3 n=76 v=82
309478 Off ch=3 n=85 v=80
309478 Off ch=3 n=81 v=85
309478 Off ch=3 n=76 v=82
309600 On ch=3 n=85 v=82
309600 On ch=3 n=81 v=85
309600 On ch=3 n=76 v=81
309718 Off ch=3 n=85 v=82
309718 Off ch=3 n=81 v=85
309718 Off ch=3 n=76 v=81
309840 On ch=3 n=83 v=85
309840 On ch=3 n=80 v=82
309840 On ch=3 n=76 v=81
309958 Off ch=3 n=83 v=85
309958 Off ch=3 n=80 v=82
309958 Off ch=3 n=76 v=81
310080 On ch=3 n=85 v=82
310080 On ch=3 n=81 v=84
310080 On ch=3 n=76 v=80
310198 Off ch=3 n=85 v=82
310198 Off ch=3 n=81 v=84
310198 Off ch=3 n=76 v=80
310320 On ch=3 n=85 v=81
310320 On ch=3 n=76 v=82
310320 On ch=3 n=81 v=85
310438 Off ch=3 n=85 v=81
310438 Off ch=3 n=76 v=82
310438 Off ch=3 n=81 v=85
310560 On ch=3 n=85 v=81
310560 On ch=3 n=81 v=85
310560 On ch=3 n=76 v=81
310678 Off ch=3 n=85 v=81
310678 Off ch=3 n=81 v=85
310678 Off ch=3 n=76 v=81
310800 On ch=3 n=85 v=83
310800 On ch=3 n=81 v=87
310800 On ch=3 n=76 v=84
310918 Off ch=3 n=85 v=83
310918 Off ch=3 n=81 v=87
310918 Off ch=3 n=76 v=84
311040 On ch=3 n=81 v=87
311040 On ch=3 n=85 v=85
311040 On ch=3 n=76 v=83
311158 Off ch=3 n=81 v=87
311158 Off ch=3 n=85 v=85
311158 Off ch=3 n=76 v=83
311280 On ch=3 n=80 v=82
311280 On ch=3 n=76 v=83
311280 On ch=3 n=83 v=84
311398 Off ch=3 n=80 v=82
311398 Off ch=3 n=76 v=83
311398 Off ch=3 n=83 v=84
311520 On ch=3 n=80 v=83
311520 On ch=3 n=83 v=82
311520 On ch=3 n=76 v=81
311638 Off ch=3 n=80 v=83
311638 Off ch=3 n=83 v=82
311638 Off ch=3 n=76 v=81
311760 On ch=3 n=85 v=82
311760 On ch=3 n=76 v=82
311760 On ch=3 n=81 v=86
311878 Off ch=3 n=85 v=82
311878 Off ch=3 n=76 v=82
311878 Off ch=3 n=81 v=86
312000 On ch=3 n=85 v=83
312000 On ch=3 n=81 v=85
312000 On ch=3 n=76 v=82
312118 Off ch=3 n=85 v=83
312118 Off ch=3 n=81 v=85
312118 Off ch=3 n=76 v=82
312240 On ch=3 n=86 v=84
312240 On ch=3 n=78 v=83
312240 On ch=3 n=81 v=87
312358 Off ch=3 n=86 v=84
312358 Off ch=3 n=78 v=83
312358 Off ch=3 n=81 v=87
312480 On ch=3 n=86 v=82
312480 On ch=3 n=78 v=80
312480 On ch=3 n=81 v=85
312598 Off ch=3 n=86 v=82
312598 Off ch=3 n=78 v=80
312598 Off ch=3 n=81 v=85
312720 On ch=3 n=85 v=78
312720 On ch=3 n=81 v=83
312720 On ch=3 n=76 v=73
312838 Off ch=3 n=85 v=78
312838 Off ch=3 n=81 v=83
312838 Off ch=3 n=76 v=73
312960 On ch=3 n=85 v=72
312960 On ch=3 n=81 v=80
312960 On ch=3 n=76 v=66
313078 Off ch=3 n=85 v=72
313078 Off ch=3 n=81 v=80
313078 Off ch=3 n=76 v=66
313200 On ch=3 n=83 v=80
313200 On ch=3 n=80 v=75
313200 On ch=3 n=76 v=68
313318 Off ch=3 n=83 v=80
313318 Off ch=3 n=80 v=75
313318 Off ch=3 n=76 v=68
313440 On ch=3 n=85 v=73
313440 On ch=3 n=81 v=81
313440 On ch=3 n=76 v=69
313558 Off ch=3 n=85 v=73
313558 Off ch=3 n=81 v=81
313558 Off ch=3 n=76 v=69
313680 On ch=3 n=85 v=70
313680 On ch=3 n=76 v=70
313680 On ch=3 n=81 v=80
313798 Off ch=3 n=85 v=70
313798 Off ch=3 n=76 v=70
313798 Off ch=3 n=81 v=80
313920 On ch=3 n=85 v=75
313920 On ch=3 n=81 v=78
313920 On ch=3 n=76 v=66
314038 Off ch=3 n=85 v=75
314038 Off ch=3 n=81 v=78
314038 Off ch=3 n=76 v=66
329040 Meta TrkEnd
TrkEnd
MTrk
0 Meta TrkName "Squire"
0 Meta 0x20 03
0 Meta InstrName "Squire"
0 KeySig 0 major
250 Par ch=4 c=0 v=0
255 Par ch=4 c=32 v=0
260 PrCh ch=4 p=39
265 Par ch=4 c=7 v=120
270 Par ch=4 c=10 v=64
275 Par ch=4 c=91 v=71
280 Par ch=4 c=93 v=0
285 Par ch=4 c=101 v=0
285 Par ch=4 c=100 v=0
285 Par ch=4 c=6 v=2
290 Par ch=4 c=99 v=1
290 Par ch=4 c=98 v=8
290 Par ch=4 c=6 v=64
295 Par ch=4 c=99 v=1
295 Par ch=4 c=98 v=9
295 Par ch=4 c=6 v=64
300 Par ch=4 c=99 v=1
300 Par ch=4 c=98 v=10
300 Par ch=4 c=6 v=64
305 Par ch=4 c=99 v=1
305 Par ch=4 c=98 v=32
305 Par ch=4 c=6 v=64
310 Par ch=4 c=99 v=1
310 Par ch=4 c=98 v=33
310 Par ch=4 c=6 v=64
315 Par ch=4 c=99 v=1
315 Par ch=4 c=98 v=99
315 Par ch=4 c=6 v=64
320 Par ch=4 c=99 v=1
320 Par ch=4 c=98 v=100
320 Par ch=4 c=6 v=64
325 Par ch=4 c=99 v=1
325 Par ch=4 c=98 v=102
325 Par ch=4 c=6 v=64
16560 On ch=4 n=33 v=119
16752 Off ch=4 n=33 v=119
16800 On ch=4 n=37 v=119
16992 Off ch=4 n=37 v=119
17040 On ch=4 n=35 v=119
17232 Off ch=4 n=35 v=119
17280 On ch=4 n=38 v=119
17472 Off ch=4 n=38 v=119
17520 On ch=4 n=37 v=119
17712 Off ch=4 n=37 v=119
17764 On ch=4 n=40 v=119
17956 Off ch=4 n=40 v=119
18004 On ch=4 n=37 v=119
18196 Off ch=4 n=37 v=119
18245 On ch=4 n=42 v=119
18437 Off ch=4 n=42 v=119
20160 On ch=4 n=42 v=119
20352 Off ch=4 n=42 v=119
20400 On ch=4 n=37 v=119
20592 Off ch=4 n=37 v=119
20640 On ch=4 n=40 v=119
20832 Off ch=4 n=40 v=119
20880 On ch=4 n=33 v=119
21072 Off ch=4 n=33 v=119
21124 On ch=4 n=38 v=119
21316 Off ch=4 n=38 v=119
21360 On ch=4 n=33 v=119
21552 Off ch=4 n=33 v=119
21600 On ch=4 n=28 v=119
23904 Off ch=4 n=28 v=119
24000 On ch=4 n=28 v=119
24192 Off ch=4 n=28 v=119
24243 On ch=4 n=35 v=119
24435 Off ch=4 n=35 v=119
24484 On ch=4 n=38 v=119
25060 Off ch=4 n=38 v=119
25204 On ch=4 n=42 v=120
25916 Off ch=4 n=42 v=119
25920 On ch=4 n=40 v=119
26688 Off ch=4 n=40 v=119
26880 On ch=4 n=38 v=119
27022 Off ch=4 n=38 v=119
27119 On ch=4 n=38 v=118
27261 Off ch=4 n=38 v=118
27361 On ch=4 n=38 v=121
27493 Off ch=4 n=38 v=121
27600 On ch=4 n=32 v=73
27758 Off ch=4 n=32 v=73
27841 On ch=4 n=33 v=119
28033 Off ch=4 n=33 v=119
29520 On ch=4 n=33 v=119
29712 Off ch=4 n=33 v=119
29764 On ch=4 n=37 v=119
29956 Off ch=4 n=37 v=119
30000 On ch=4 n=35 v=119
30192 Off ch=4 n=35 v=119
30244 On ch=4 n=38 v=119
30436 Off ch=4 n=38 v=119
30480 On ch=4 n=37 v=119
30672 Off ch=4 n=37 v=119
30724 On ch=4 n=40 v=119
30916 Off ch=4 n=40 v=119
30960 On ch=4 n=37 v=119
31152 Off ch=4 n=37 v=119
31205 On ch=4 n=42 v=119
31397 Off ch=4 n=42 v=119
32880 On ch=4 n=42 v=119
33312 Off ch=4 n=42 v=119
33360 On ch=4 n=37 v=119
33552 Off ch=4 n=37 v=119
33604 On ch=4 n=40 v=119
33796 Off ch=4 n=40 v=119
33840 On ch=4 n=33 v=119
34032 Off ch=4 n=33 v=119
34084 On ch=4 n=38 v=119
34276 Off ch=4 n=38 v=119
34320 On ch=4 n=33 v=119
34512 Off ch=4 n=33 v=119
34560 On ch=4 n=28 v=122
36407 Off ch=4 n=28 v=122
36482 On ch=4 n=28 v=121
36626 Off ch=4 n=28 v=121
36722 On ch=4 n=35 v=119
36870 Off ch=4 n=35 v=119
36964 On ch=4 n=38 v=119
37540 Off ch=4 n=38 v=119
37684 On ch=4 n=42 v=119
38400 Off ch=4 n=42 v=119
38400 On ch=4 n=40 v=119
39168 Off ch=4 n=40 v=119
39360 On ch=4 n=38 v=119
39552 Off ch=4 n=38 v=119
39605 On ch=4 n=38 v=119
39797 Off ch=4 n=38 v=119
39840 On ch=4 n=38 v=119
40032 Off ch=4 n=38 v=119
40085 On ch=4 n=38 v=115
40273 Off ch=4 n=38 v=115
40325 On ch=4 n=45 v=119
40517 Off ch=4 n=45 v=119
40560 On ch=4 n=45 v=119
40752 Off ch=4 n=45 v=119
40800 On ch=4 n=45 v=119
40992 Off ch=4 n=45 v=119
41040 On ch=4 n=45 v=119
41232 Off ch=4 n=45 v=119
41280 On ch=4 n=45 v=119
41904 Off ch=4 n=45 v=119
42000 On ch=4 n=49 v=119
42432 Off ch=4 n=49 v=119
42480 On ch=4 n=52 v=119
42864 Off ch=4 n=52 v=119
42960 On ch=4 n=49 v=119
43152 Off ch=4 n=49 v=119
43200 On ch=4 n=45 v=119
43392 Off ch=4 n=45 v=119
43440 On ch=4 n=44 v=119
43632 Off ch=4 n=44 v=119
43680 On ch=4 n=42 v=119
43872 Off ch=4 n=42 v=119
43920 On ch=4 n=42 v=119
44112 Off ch=4 n=42 v=119
44160 On ch=4 n=42 v=119
44352 Off ch=4 n=42 v=119
44400 On ch=4 n=45 v=119
44880 Off ch=4 n=45 v=119
44880 On ch=4 n=49 v=119
45264 Off ch=4 n=49 v=119
45360 On ch=4 n=49 v=119
45792 Off ch=4 n=49 v=119
45840 On ch=4 n=45 v=119
46224 Off ch=4 n=45 v=119
46320 On ch=4 n=44 v=119
46512 Off ch=4 n=44 v=119
46560 On ch=4 n=42 v=119
46752 Off ch=4 n=42 v=119
46800 On ch=4 n=42 v=119
46992 Off ch=4 n=42 v=119
47040 On ch=4 n=40 v=119
47232 Off ch=4 n=40 v=119
47280 On ch=4 n=40 v=119
47472 Off ch=4 n=40 v=119
47520 On ch=4 n=40 v=119
47712 Off ch=4 n=40 v=119
47760 On ch=4 n=47 v=119
47952 Off ch=4 n=47 v=119
48000 On ch=4 n=40 v=119
48192 Off ch=4 n=40 v=119
48240 On ch=4 n=40 v=119
48432 Off ch=4 n=40 v=119
48480 On ch=4 n=40 v=119
48672 Off ch=4 n=40 v=119
48720 On ch=4 n=47 v=119
48912 Off ch=4 n=47 v=119
48960 On ch=4 n=40 v=119
49152 Off ch=4 n=40 v=119
49200 On ch=4 n=40 v=119
49392 Off ch=4 n=40 v=119
49440 On ch=4 n=47 v=119
49632 Off ch=4 n=47 v=119
49680 On ch=4 n=40 v=119
49872 Off ch=4 n=40 v=119
49920 On ch=4 n=38 v=119
50602 Off ch=4 n=38 v=119
50644 On ch=4 n=42 v=119
51360 Off ch=4 n=42 v=119
51360 On ch=4 n=40 v=119
51936 Off ch=4 n=40 v=119
52080 On ch=4 n=43 v=119
52272 Off ch=4 n=43 v=119
52320 On ch=4 n=45 v=119
52512 Off ch=4 n=45 v=119
52560 On ch=4 n=48 v=119
52752 Off ch=4 n=48 v=119
52800 On ch=4 n=53 v=119
52992 Off ch=4 n=53 v=119
53040 On ch=4 n=48 v=119
53232 Off ch=4 n=48 v=119
53280 On ch=4 n=50 v=119
53472 Off ch=4 n=50 v=119
53520 On ch=4 n=38 v=119
53520 On ch=4 n=50 v=119
59712 Off ch=4 n=38 v=119
59712 Off ch=4 n=50 v=119
59760 On ch=4 n=43 v=119
59952 Off ch=4 n=43 v=119
60000 On ch=4 n=45 v=119
60192 Off ch=4 n=45 v=119
60240 On ch=4 n=48 v=119
60432 Off ch=4 n=48 v=119
60480 On ch=4 n=53 v=119
60672 Off ch=4 n=53 v=119
60720 On ch=4 n=48 v=119
60912 Off ch=4 n=48 v=119
60960 On ch=4 n=50 v=119
61152 Off ch=4 n=50 v=119
61200 On ch=4 n=50 v=119
61200 On ch=4 n=38 v=119
61920 Off ch=4 n=50 v=119
61920 Off ch=4 n=38 v=119
61920 On ch=4 n=38 v=119
62496 Off ch=4 n=38 v=119
62640 On ch=4 n=38 v=119
63360 Off ch=4 n=38 v=119
63360 On ch=4 n=50 v=119
63936 Off ch=4 n=50 v=119
64080 On ch=4 n=50 v=119
64800 Off ch=4 n=50 v=119
64800 On ch=4 n=38 v=119
65376 Off ch=4 n=38 v=119
65520 On ch=4 n=38 v=119
66240 Off ch=4 n=38 v=119
66240 On ch=4 n=50 v=119
66816 Off ch=4 n=50 v=119
66960 On ch=4 n=50 v=119
67440 Off ch=4 n=50 v=119
67440 On ch=4 n=43 v=119
67632 Off ch=4 n=43 v=119
67680 On ch=4 n=45 v=119
67872 Off ch=4 n=45 v=119
67920 On ch=4 n=48 v=119
68112 Off ch=4 n=48 v=119
68160 On ch=4 n=53 v=119
68352 Off ch=4 n=53 v=119
68400 On ch=4 n=48 v=119
68592 Off ch=4 n=48 v=119
68640 On ch=4 n=50 v=119
68832 Off ch=4 n=50 v=119
68880 On ch=4 n=38 v=119
68880 On ch=4 n=50 v=119
69600 Off ch=4 n=38 v=119
69600 Off ch=4 n=50 v=119
69600 On ch=4 n=38 v=119
70176 Off ch=4 n=38 v=119
70320 On ch=4 n=38 v=119
71040 Off ch=4 n=38 v=119
71040 On ch=4 n=50 v=119
71616 Off ch=4 n=50 v=119
71760 On ch=4 n=50 v=119
72480 Off ch=4 n=50 v=119
72480 On ch=4 n=38 v=119
73056 Off ch=4 n=38 v=119
73200 On ch=4 n=38 v=119
73920 Off ch=4 n=38 v=119
73920 On ch=4 n=50 v=119
74496 Off ch=4 n=50 v=119
74640 On ch=4 n=50 v=119
75120 Off ch=4 n=50 v=119
75120 On ch=4 n=43 v=119
75312 Off ch=4 n=43 v=119
75360 On ch=4 n=45 v=119
75552 Off ch=4 n=45 v=119
75600 On ch=4 n=48 v=119
75792 Off ch=4 n=48 v=119
75840 On ch=4 n=53 v=119
76032 Off ch=4 n=53 v=119
76080 On ch=4 n=48 v=119
76272 Off ch=4 n=48 v=119
76320 On ch=4 n=50 v=119
76512 Off ch=4 n=50 v=119
76560 On ch=4 n=50 v=119
76560 On ch=4 n=38 v=119
77280 Off ch=4 n=50 v=119
77280 Off ch=4 n=38 v=119
77280 On ch=4 n=38 v=119
77856 Off ch=4 n=38 v=119
78000 On ch=4 n=38 v=119
78720 Off ch=4 n=38 v=119
78720 On ch=4 n=50 v=119
79296 Off ch=4 n=50 v=119
79440 On ch=4 n=50 v=119
80160 Off ch=4 n=50 v=119
80160 On ch=4 n=38 v=119
80736 Off ch=4 n=38 v=119
80880 On ch=4 n=38 v=119
81600 Off ch=4 n=38 v=119
81600 On ch=4 n=50 v=119
82176 Off ch=4 n=50 v=119
82320 On ch=4 n=50 v=119
82800 Off ch=4 n=50 v=119
82800 On ch=4 n=43 v=119
82992 Off ch=4 n=43 v=119
83040 On ch=4 n=45 v=119
83232 Off ch=4 n=45 v=119
83280 On ch=4 n=48 v=119
83472 Off ch=4 n=48 v=119
83520 On ch=4 n=53 v=119
83712 Off ch=4 n=53 v=119
83760 On ch=4 n=48 v=119
83952 Off ch=4 n=48 v=119
84000 On ch=4 n=50 v=119
84192 Off ch=4 n=50 v=119
84240 On ch=4 n=50 v=119
84240 On ch=4 n=38 v=119
84960 Off ch=4 n=50 v=119
84960 Off ch=4 n=38 v=119
84960 On ch=4 n=38 v=119
85536 Off ch=4 n=38 v=119
85680 On ch=4 n=38 v=119
86400 Off ch=4 n=38 v=119
86400 On ch=4 n=50 v=119
86976 Off ch=4 n=50 v=119
87120 On ch=4 n=50 v=119
87840 Off ch=4 n=50 v=119
87840 On ch=4 n=38 v=119
88416 Off ch=4 n=38 v=119
88560 On ch=4 n=38 v=119
89280 Off ch=4 n=38 v=119
89280 On ch=4 n=50 v=119
89856 Off ch=4 n=50 v=119
90000 On ch=4 n=50 v=119
90480 Off ch=4 n=50 v=119
90480 On ch=4 n=43 v=119
90672 Off ch=4 n=43 v=119
90720 On ch=4 n=45 v=119
90912 Off ch=4 n=45 v=119
90960 On ch=4 n=48 v=119
91152 Off ch=4 n=48 v=119
91200 On ch=4 n=53 v=119
91392 Off ch=4 n=53 v=119
91440 On ch=4 n=48 v=119
91632 Off ch=4 n=48 v=119
91680 On ch=4 n=50 v=119
91872 Off ch=4 n=50 v=119
91920 On ch=4 n=50 v=118
91920 On ch=4 n=38 v=119
92610 Off ch=4 n=50 v=118
92617 Off ch=4 n=38 v=119
92640 On ch=4 n=38 v=119
93216 Off ch=4 n=38 v=119
93360 On ch=4 n=38 v=119
94080 Off ch=4 n=38 v=119
94080 On ch=4 n=50 v=119
94272 Off ch=4 n=50 v=119
94320 On ch=4 n=50 v=119
94512 Off ch=4 n=50 v=119
94560 On ch=4 n=50 v=119
94752 Off ch=4 n=50 v=119
94800 On ch=4 n=50 v=119
95280 Off ch=4 n=50 v=119
95280 On ch=4 n=50 v=119
95856 Off ch=4 n=50 v=119
96000 On ch=4 n=36 v=119
96192 Off ch=4 n=36 v=119
96240 On ch=4 n=36 v=119
96432 Off ch=4 n=36 v=119
96720 On ch=4 n=36 v=119
96912 Off ch=4 n=36 v=119
96960 On ch=4 n=36 v=119
97152 Off ch=4 n=36 v=119
97200 On ch=4 n=36 v=119
97392 Off ch=4 n=36 v=119
97680 On ch=4 n=36 v=119
97872 Off ch=4 n=36 v=119
97920 On ch=4 n=36 v=119
98112 Off ch=4 n=36 v=119
98160 On ch=4 n=36 v=119
98352 Off ch=4 n=36 v=119
98640 On ch=4 n=36 v=119
98832 Off ch=4 n=36 v=119
98880 On ch=4 n=36 v=119
99072 Off ch=4 n=36 v=119
99120 On ch=4 n=36 v=119
99312 Off ch=4 n=36 v=119
99600 On ch=4 n=36 v=119
99792 Off ch=4 n=36 v=119
99840 On ch=4 n=36 v=119
100032 Off ch=4 n=36 v=119
100080 On ch=4 n=36 v=119
100272 Off ch=4 n=36 v=119
100560 On ch=4 n=36 v=119
100752 Off ch=4 n=36 v=119
100800 On ch=4 n=36 v=119
100992 Off ch=4 n=36 v=119
101040 On ch=4 n=36 v=119
101232 Off ch=4 n=36 v=119
101520 On ch=4 n=36 v=119
101712 Off ch=4 n=36 v=119
101760 On ch=4 n=36 v=119
101952 Off ch=4 n=36 v=119
102000 On ch=4 n=36 v=119
102192 Off ch=4 n=36 v=119
102480 On ch=4 n=36 v=119
102672 Off ch=4 n=36 v=119
102720 On ch=4 n=36 v=119
102912 Off ch=4 n=36 v=119
102960 On ch=4 n=36 v=119
103152 Off ch=4 n=36 v=119
103200 On ch=4 n=36 v=119
103392 Off ch=4 n=36 v=119
103440 On ch=4 n=36 v=119
103632 Off ch=4 n=36 v=119
103680 On ch=4 n=38 v=119
103872 Off ch=4 n=38 v=119
103920 On ch=4 n=38 v=119
104112 Off ch=4 n=38 v=119
104400 On ch=4 n=38 v=119
104592 Off ch=4 n=38 v=119
104640 On ch=4 n=38 v=119
104832 Off ch=4 n=38 v=119
104880 On ch=4 n=38 v=119
105072 Off ch=4 n=38 v=119
105360 On ch=4 n=38 v=119
105552 Off ch=4 n=38 v=119
105600 On ch=4 n=38 v=119
105792 Off ch=4 n=38 v=119
105840 On ch=4 n=38 v=119
106032 Off ch=4 n=38 v=119
106080 On ch=4 n=38 v=119
106272 Off ch=4 n=38 v=119
106320 On ch=4 n=38 v=119
106512 Off ch=4 n=38 v=119
106560 On ch=4 n=38 v=119
106752 Off ch=4 n=38 v=119
106800 On ch=4 n=38 v=119
106992 Off ch=4 n=38 v=119
107040 On ch=4 n=38 v=119
107232 Off ch=4 n=38 v=119
107280 On ch=4 n=38 v=119
107472 Off ch=4 n=38 v=119
107520 On ch=4 n=38 v=119
107712 Off ch=4 n=38 v=119
107760 On ch=4 n=38 v=119
107952 Off ch=4 n=38 v=119
108000 On ch=4 n=38 v=119
108192 Off ch=4 n=38 v=119
108240 On ch=4 n=38 v=119
108432 Off ch=4 n=38 v=119
108480 On ch=4 n=38 v=119
108672 Off ch=4 n=38 v=119
108720 On ch=4 n=38 v=119
108912 Off ch=4 n=38 v=119
108960 On ch=4 n=38 v=119
109152 Off ch=4 n=38 v=119
109200 On ch=4 n=38 v=119
109392 Off ch=4 n=38 v=119
109440 On ch=4 n=38 v=119
109632 Off ch=4 n=38 v=119
109680 On ch=4 n=38 v=119
109872 Off ch=4 n=38 v=119
109920 On ch=4 n=38 v=119
110112 Off ch=4 n=38 v=119
110160 On ch=4 n=38 v=119
110352 Off ch=4 n=38 v=119
110400 On ch=4 n=38 v=119
110592 Off ch=4 n=38 v=119
110640 On ch=4 n=38 v=119
110832 Off ch=4 n=38 v=119
110880 On ch=4 n=38 v=119
111072 Off ch=4 n=38 v=119
111120 On ch=4 n=38 v=119
111312 Off ch=4 n=38 v=119
111360 On ch=4 n=40 v=119
111552 Off ch=4 n=40 v=119
111600 On ch=4 n=40 v=119
111792 Off ch=4 n=40 v=119
111840 On ch=4 n=40 v=119
112032 Off ch=4 n=40 v=119
112080 On ch=4 n=40 v=119
112272 Off ch=4 n=40 v=119
112320 On ch=4 n=40 v=119
112512 Off ch=4 n=40 v=119
112560 On ch=4 n=40 v=119
112752 Off ch=4 n=40 v=119
112800 On ch=4 n=40 v=119
112992 Off ch=4 n=40 v=119
113040 On ch=4 n=40 v=119
113232 Off ch=4 n=40 v=119
113280 On ch=4 n=40 v=120
113623 Off ch=4 n=40 v=120
115200 On ch=4 n=38 v=118
119018 Off ch=4 n=38 v=118
119040 On ch=4 n=33 v=121
120403 Off ch=4 n=33 v=121
120480 On ch=4 n=35 v=118
120929 Off ch=4 n=35 v=118
120960 On ch=4 n=36 v=119
122122 Off ch=4 n=36 v=119
122160 On ch=4 n=35 v=119
122594 Off ch=4 n=35 v=119
122640 On ch=4 n=31 v=119
122874 Off ch=4 n=31 v=119
122880 On ch=4 n=38 v=118
126703 Off ch=4 n=38 v=118
126720 On ch=4 n=28 v=118
128103 Off ch=4 n=28 v=118
128160 On ch=4 n=30 v=119
128599 Off ch=4 n=30 v=119
128640 On ch=4 n=31 v=119
129792 Off ch=4 n=31 v=119
129840 On ch=4 n=35 v=119
130279 Off ch=4 n=35 v=119
130320 On ch=4 n=36 v=119
130552 Off ch=4 n=36 v=119
130560 On ch=4 n=38 v=118
132438 Off ch=4 n=38 v=118
132480 On ch=4 n=38 v=118
134378 Off ch=4 n=38 v=118
134400 On ch=4 n=33 v=119
135818 Off ch=4 n=33 v=119
135840 On ch=4 n=35 v=118
136304 Off ch=4 n=35 v=118
136320 On ch=4 n=36 v=118
138188 Off ch=4 n=36 v=118
138240 On ch=4 n=36 v=119
138624 Off ch=4 n=36 v=119
139200 On ch=4 n=38 v=119
139584 Off ch=4 n=38 v=119
140160 On ch=4 n=40 v=126
142190 Off ch=4 n=40 v=126
142320 On ch=4 n=43 v=119
142512 Off ch=4 n=43 v=119
142560 On ch=4 n=45 v=119
142752 Off ch=4 n=45 v=119
142800 On ch=4 n=48 v=119
142992 Off ch=4 n=48 v=119
143040 On ch=4 n=53 v=119
143232 Off ch=4 n=53 v=119
143280 On ch=4 n=48 v=119
143472 Off ch=4 n=48 v=119
143520 On ch=4 n=50 v=119
143712 Off ch=4 n=50 v=119
143760 On ch=4 n=50 v=126
143760 On ch=4 n=38 v=125
149913 Off ch=4 n=50 v=126
149928 Off ch=4 n=38 v=125
150000 On ch=4 n=43 v=119
150192 Off ch=4 n=43 v=119
150240 On ch=4 n=45 v=119
150432 Off ch=4 n=45 v=119
150480 On ch=4 n=48 v=119
150672 Off ch=4 n=48 v=119
150720 On ch=4 n=53 v=119
150912 Off ch=4 n=53 v=119
150960 On ch=4 n=48 v=119
151152 Off ch=4 n=48 v=119
151200 On ch=4 n=50 v=119
151392 Off ch=4 n=50 v=119
151440 On ch=4 n=38 v=90
151440 On ch=4 n=50 v=73
152158 Off ch=4 n=38 v=90
152158 Off ch=4 n=50 v=73
152160 On ch=4 n=38 v=119
152736 Off ch=4 n=38 v=119
152880 On ch=4 n=38 v=119
153600 Off ch=4 n=38 v=119
153600 On ch=4 n=50 v=119
154176 Off ch=4 n=50 v=119
154320 On ch=4 n=50 v=119
155040 Off ch=4 n=50 v=119
155040 On ch=4 n=38 v=119
155616 Off ch=4 n=38 v=119
155760 On ch=4 n=38 v=119
156480 Off ch=4 n=38 v=119
156480 On ch=4 n=50 v=119
157056 Off ch=4 n=50 v=119
157200 On ch=4 n=50 v=119
157680 Off ch=4 n=50 v=119
157680 On ch=4 n=43 v=119
157872 Off ch=4 n=43 v=119
157920 On ch=4 n=45 v=119
158112 Off ch=4 n=45 v=119
158160 On ch=4 n=48 v=119
158352 Off ch=4 n=48 v=119
158400 On ch=4 n=53 v=119
158592 Off ch=4 n=53 v=119
158640 On ch=4 n=48 v=119
158832 Off ch=4 n=48 v=119
158880 On ch=4 n=50 v=119
159072 Off ch=4 n=50 v=119
159120 On ch=4 n=38 v=119
159120 On ch=4 n=50 v=119
159840 Off ch=4 n=38 v=119
159840 Off ch=4 n=50 v=119
159840 On ch=4 n=38 v=119
160416 Off ch=4 n=38 v=119
160560 On ch=4 n=38 v=119
161280 Off ch=4 n=38 v=119
161280 On ch=4 n=50 v=119
161856 Off ch=4 n=50 v=119
162000 On ch=4 n=50 v=119
162720 Off ch=4 n=50 v=119
162720 On ch=4 n=38 v=119
163296 Off ch=4 n=38 v=119
163440 On ch=4 n=38 v=119
164160 Off ch=4 n=38 v=119
164160 On ch=4 n=50 v=119
164736 Off ch=4 n=50 v=119
164880 On ch=4 n=50 v=119
165360 Off ch=4 n=50 v=119
165360 On ch=4 n=43 v=119
165552 Off ch=4 n=43 v=119
165600 On ch=4 n=45 v=119
165792 Off ch=4 n=45 v=119
165840 On ch=4 n=48 v=119
166032 Off ch=4 n=48 v=119
166080 On ch=4 n=53 v=119
166272 Off ch=4 n=53 v=119
166320 On ch=4 n=48 v=119
166512 Off ch=4 n=48 v=119
166560 On ch=4 n=50 v=119
166752 Off ch=4 n=50 v=119
166800 On ch=4 n=38 v=119
166800 On ch=4 n=50 v=119
167520 Off ch=4 n=38 v=119
167520 Off ch=4 n=50 v=119
167520 On ch=4 n=38 v=119
168096 Off ch=4 n=38 v=119
168240 On ch=4 n=38 v=119
168960 Off ch=4 n=38 v=119
168960 On ch=4 n=50 v=119
169536 Off ch=4 n=50 v=119
169680 On ch=4 n=50 v=119
170400 Off ch=4 n=50 v=119
170400 On ch=4 n=38 v=119
170976 Off ch=4 n=38 v=119
171120 On ch=4 n=38 v=119
171840 Off ch=4 n=38 v=119
171840 On ch=4 n=50 v=119
172416 Off ch=4 n=50 v=119
172560 On ch=4 n=50 v=119
173040 Off ch=4 n=50 v=119
173040 On ch=4 n=43 v=119
173232 Off ch=4 n=43 v=119
173280 On ch=4 n=45 v=119
173472 Off ch=4 n=45 v=119
173520 On ch=4 n=48 v=119
173712 Off ch=4 n=48 v=119
173760 On ch=4 n=53 v=119
173952 Off ch=4 n=53 v=119
174000 On ch=4 n=48 v=119
174192 Off ch=4 n=48 v=119
174240 On ch=4 n=50 v=119
174432 Off ch=4 n=50 v=119
174480 On ch=4 n=38 v=93
175200 Off ch=4 n=38 v=93
175200 On ch=4 n=38 v=119
175776 Off ch=4 n=38 v=119
175920 On ch=4 n=38 v=119
176640 Off ch=4 n=38 v=119
176640 On ch=4 n=50 v=119
177216 Off ch=4 n=50 v=119
177360 On ch=4 n=50 v=119
178080 Off ch=4 n=50 v=119
178080 On ch=4 n=38 v=119
178656 Off ch=4 n=38 v=119
178800 On ch=4 n=38 v=119
179520 Off ch=4 n=38 v=119
179520 On ch=4 n=50 v=119
180096 Off ch=4 n=50 v=119
180240 On ch=4 n=50 v=119
180720 Off ch=4 n=50 v=119
180720 On ch=4 n=43 v=119
180912 Off ch=4 n=43 v=119
180960 On ch=4 n=45 v=119
181152 Off ch=4 n=45 v=119
181200 On ch=4 n=48 v=119
181392 Off ch=4 n=48 v=119
181440 On ch=4 n=53 v=119
181632 Off ch=4 n=53 v=119
181680 On ch=4 n=48 v=119
181872 Off ch=4 n=48 v=119
181920 On ch=4 n=50 v=119
182112 Off ch=4 n=50 v=119
182160 On ch=4 n=50 v=117
182160 On ch=4 n=38 v=119
182858 Off ch=4 n=50 v=117
182861 Off ch=4 n=38 v=119
182880 On ch=4 n=38 v=119
183456 Off ch=4 n=38 v=119
183600 On ch=4 n=38 v=120
184282 Off ch=4 n=38 v=120
184320 On ch=4 n=50 v=119
184512 Off ch=4 n=50 v=119
184560 On ch=4 n=50 v=119
184752 Off ch=4 n=50 v=119
184800 On ch=4 n=50 v=119
184992 Off ch=4 n=50 v=119
185040 On ch=4 n=50 v=119
185520 Off ch=4 n=50 v=119
185520 On ch=4 n=50 v=119
186096 Off ch=4 n=50 v=119
186240 On ch=4 n=36 v=119
186432 Off ch=4 n=36 v=119
186480 On ch=4 n=36 v=119
186672 Off ch=4 n=36 v=119
186960 On ch=4 n=36 v=119
187152 Off ch=4 n=36 v=119
187200 On ch=4 n=36 v=119
187392 Off ch=4 n=36 v=119
187440 On ch=4 n=36 v=119
187632 Off ch=4 n=36 v=119
187920 On ch=4 n=36 v=119
188112 Off ch=4 n=36 v=119
188160 On ch=4 n=36 v=119
188352 Off ch=4 n=36 v=119
188400 On ch=4 n=36 v=119
188592 Off ch=4 n=36 v=119
188880 On ch=4 n=36 v=119
189072 Off ch=4 n=36 v=119
189120 On ch=4 n=36 v=119
189312 Off ch=4 n=36 v=119
189360 On ch=4 n=36 v=119
189552 Off ch=4 n=36 v=119
189840 On ch=4 n=36 v=119
190032 Off ch=4 n=36 v=119
190080 On ch=4 n=36 v=119
190272 Off ch=4 n=36 v=119
190320 On ch=4 n=36 v=119
190512 Off ch=4 n=36 v=119
190800 On ch=4 n=36 v=119
190992 Off ch=4 n=36 v=119
191040 On ch=4 n=36 v=119
191232 Off ch=4 n=36 v=119
191280 On ch=4 n=36 v=119
191472 Off ch=4 n=36 v=119
191760 On ch=4 n=36 v=119
191952 Off ch=4 n=36 v=119
192000 On ch=4 n=36 v=119
192192 Off ch=4 n=36 v=119
192240 On ch=4 n=36 v=119
192432 Off ch=4 n=36 v=119
192480 On ch=4 n=36 v=119
192672 Off ch=4 n=36 v=119
192720 On ch=4 n=36 v=119
192912 Off ch=4 n=36 v=119
192960 On ch=4 n=36 v=119
193152 Off ch=4 n=36 v=119
193200 On ch=4 n=35 v=119
193392 Off ch=4 n=35 v=119
193440 On ch=4 n=36 v=119
193632 Off ch=4 n=36 v=119
193680 On ch=4 n=38 v=119
194112 Off ch=4 n=38 v=119
194160 On ch=4 n=38 v=119
194352 Off ch=4 n=38 v=119
194400 On ch=4 n=38 v=119
194592 Off ch=4 n=38 v=119
194640 On ch=4 n=38 v=119
194832 Off ch=4 n=38 v=119
194880 On ch=4 n=38 v=119
195072 Off ch=4 n=38 v=119
195120 On ch=4 n=38 v=119
195312 Off ch=4 n=38 v=119
195360 On ch=4 n=38 v=119
195552 Off ch=4 n=38 v=119
195600 On ch=4 n=38 v=119
195792 Off ch=4 n=38 v=119
195840 On ch=4 n=38 v=119
196032 Off ch=4 n=38 v=119
196080 On ch=4 n=38 v=119
196272 Off ch=4 n=38 v=119
196320 On ch=4 n=38 v=119
196512 Off ch=4 n=38 v=119
196560 On ch=4 n=38 v=119
196752 Off ch=4 n=38 v=119
196800 On ch=4 n=38 v=119
196992 Off ch=4 n=38 v=119
197040 On ch=4 n=38 v=119
197232 Off ch=4 n=38 v=119
197280 On ch=4 n=38 v=119
197472 Off ch=4 n=38 v=119
197520 On ch=4 n=38 v=119
197712 Off ch=4 n=38 v=119
197760 On ch=4 n=38 v=119
197952 Off ch=4 n=38 v=119
198000 On ch=4 n=38 v=119
198192 Off ch=4 n=38 v=119
198240 On ch=4 n=38 v=119
198432 Off ch=4 n=38 v=119
198480 On ch=4 n=38 v=119
198672 Off ch=4 n=38 v=119
198720 On ch=4 n=38 v=119
198912 Off ch=4 n=38 v=119
198960 On ch=4 n=38 v=119
199152 Off ch=4 n=38 v=119
199200 On ch=4 n=38 v=119
199392 Off ch=4 n=38 v=119
199440 On ch=4 n=38 v=119
199632 Off ch=4 n=38 v=119
199680 On ch=4 n=40 v=119
199872 Off ch=4 n=40 v=119
199920 On ch=4 n=40 v=119
200112 Off ch=4 n=40 v=119
200160 On ch=4 n=40 v=119
200352 Off ch=4 n=40 v=119
200400 On ch=4 n=40 v=119
200592 Off ch=4 n=40 v=119
200640 On ch=4 n=40 v=119
200832 Off ch=4 n=40 v=119
200880 On ch=4 n=40 v=119
201072 Off ch=4 n=40 v=119
201120 On ch=4 n=40 v=119
201312 Off ch=4 n=40 v=119
201360 On ch=4 n=40 v=119
201552 Off ch=4 n=40 v=119
201600 On ch=4 n=45 v=119
201792 Off ch=4 n=45 v=119
201840 On ch=4 n=45 v=119
202032 Off ch=4 n=45 v=119
202080 On ch=4 n=45 v=119
202272 Off ch=4 n=45 v=119
202320 On ch=4 n=45 v=119
202512 Off ch=4 n=45 v=119
202560 On ch=4 n=45 v=119
203184 Off ch=4 n=45 v=119
203280 On ch=4 n=49 v=119
203712 Off ch=4 n=49 v=119
203760 On ch=4 n=52 v=119
204144 Off ch=4 n=52 v=119
204240 On ch=4 n=49 v=119
204432 Off ch=4 n=49 v=119
204480 On ch=4 n=45 v=119
204672 Off ch=4 n=45 v=119
204720 On ch=4 n=44 v=119
204912 Off ch=4 n=44 v=119
204960 On ch=4 n=42 v=119
205152 Off ch=4 n=42 v=119
205200 On ch=4 n=42 v=119
205392 Off ch=4 n=42 v=119
205440 On ch=4 n=42 v=119
205632 Off ch=4 n=42 v=119
205680 On ch=4 n=45 v=119
206160 Off ch=4 n=45 v=119
206160 On ch=4 n=49 v=119
206544 Off ch=4 n=49 v=119
206640 On ch=4 n=49 v=119
207072 Off ch=4 n=49 v=119
207120 On ch=4 n=45 v=119
207504 Off ch=4 n=45 v=119
207600 On ch=4 n=44 v=119
207792 Off ch=4 n=44 v=119
207840 On ch=4 n=42 v=119
208032 Off ch=4 n=42 v=119
208080 On ch=4 n=42 v=119
208272 Off ch=4 n=42 v=119
208320 On ch=4 n=40 v=119
208512 Off ch=4 n=40 v=119
208560 On ch=4 n=40 v=119
208752 Off ch=4 n=40 v=119
208800 On ch=4 n=40 v=119
208992 Off ch=4 n=40 v=119
209040 On ch=4 n=47 v=119
209232 Off ch=4 n=47 v=119
209280 On ch=4 n=40 v=119
209472 Off ch=4 n=40 v=119
209520 On ch=4 n=40 v=119
209712 Off ch=4 n=40 v=119
209760 On ch=4 n=40 v=119
209952 Off ch=4 n=40 v=119
210000 On ch=4 n=47 v=119
210192 Off ch=4 n=47 v=119
210240 On ch=4 n=40 v=119
210432 Off ch=4 n=40 v=119
210480 On ch=4 n=40 v=119
210672 Off ch=4 n=40 v=119
210720 On ch=4 n=47 v=119
210912 Off ch=4 n=47 v=119
210960 On ch=4 n=40 v=119
211152 Off ch=4 n=40 v=119
211200 On ch=4 n=38 v=119
211776 Off ch=4 n=38 v=119
211920 On ch=4 n=42 v=119
212640 Off ch=4 n=42 v=119
212640 On ch=4 n=40 v=119
213216 Off ch=4 n=40 v=119
213360 On ch=4 n=50 v=119
214080 Off ch=4 n=50 v=119
214080 On ch=4 n=42 v=119
214272 Off ch=4 n=42 v=119
214320 On ch=4 n=44 v=119
214512 Off ch=4 n=44 v=119
214560 On ch=4 n=45 v=119
214752 Off ch=4 n=45 v=119
214800 On ch=4 n=45 v=119
214992 Off ch=4 n=45 v=119
215040 On ch=4 n=45 v=119
215232 Off ch=4 n=45 v=119
215280 On ch=4 n=52 v=119
215472 Off ch=4 n=52 v=119
215520 On ch=4 n=52 v=119
215712 Off ch=4 n=52 v=119
215760 On ch=4 n=52 v=119
215952 Off ch=4 n=52 v=119
216000 On ch=4 n=52 v=119
216192 Off ch=4 n=52 v=119
216240 On ch=4 n=50 v=119
216432 Off ch=4 n=50 v=119
216480 On ch=4 n=50 v=119
216672 Off ch=4 n=50 v=119
216720 On ch=4 n=49 v=119
216912 Off ch=4 n=49 v=119
216960 On ch=4 n=49 v=119
217152 Off ch=4 n=49 v=119
217200 On ch=4 n=47 v=119
217392 Off ch=4 n=47 v=119
217440 On ch=4 n=45 v=119
217632 Off ch=4 n=45 v=119
217680 On ch=4 n=44 v=119
217872 Off ch=4 n=44 v=119
217920 On ch=4 n=42 v=119
218112 Off ch=4 n=42 v=119
218160 On ch=4 n=42 v=119
218352 Off ch=4 n=42 v=119
218400 On ch=4 n=42 v=119
218592 Off ch=4 n=42 v=119
218640 On ch=4 n=45 v=119
218832 Off ch=4 n=45 v=119
218880 On ch=4 n=45 v=119
219072 Off ch=4 n=45 v=119
219120 On ch=4 n=49 v=119
219504 Off ch=4 n=49 v=119
219600 On ch=4 n=49 v=119
220032 Off ch=4 n=49 v=119
220080 On ch=4 n=45 v=119
220464 Off ch=4 n=45 v=119
220560 On ch=4 n=44 v=119
220752 Off ch=4 n=44 v=119
220800 On ch=4 n=42 v=119
220992 Off ch=4 n=42 v=119
221040 On ch=4 n=42 v=119
221232 Off ch=4 n=42 v=119
221280 On ch=4 n=40 v=119
221472 Off ch=4 n=40 v=119
221520 On ch=4 n=40 v=119
221712 Off ch=4 n=40 v=119
221760 On ch=4 n=40 v=119
221952 Off ch=4 n=40 v=119
222000 On ch=4 n=47 v=119
222192 Off ch=4 n=47 v=119
222240 On ch=4 n=40 v=119
222432 Off ch=4 n=40 v=119
222480 On ch=4 n=40 v=119
222672 Off ch=4 n=40 v=119
222720 On ch=4 n=40 v=119
222912 Off ch=4 n=40 v=119
222960 On ch=4 n=47 v=119
223152 Off ch=4 n=47 v=119
223200 On ch=4 n=40 v=119
223392 Off ch=4 n=40 v=119
223440 On ch=4 n=40 v=119
223632 Off ch=4 n=40 v=119
223680 On ch=4 n=47 v=119
223872 Off ch=4 n=47 v=119
223920 On ch=4 n=45 v=119
224112 Off ch=4 n=45 v=119
224160 On ch=4 n=38 v=119
226272 Off ch=4 n=38 v=119
226320 On ch=4 n=38 v=119
226512 Off ch=4 n=38 v=119
226560 On ch=4 n=37 v=119
226752 Off ch=4 n=37 v=119
226800 On ch=4 n=35 v=119
229152 Off ch=4 n=35 v=119
229200 On ch=4 n=35 v=119
229392 Off ch=4 n=35 v=119
229680 On ch=4 n=33 v=119
232608 Off ch=4 n=33 v=119
232800 On ch=4 n=31 v=119
233376 Off ch=4 n=31 v=119
233520 On ch=4 n=35 v=119
234240 Off ch=4 n=35 v=119
234240 On ch=4 n=33 v=119
234816 Off ch=4 n=33 v=119
234960 On ch=4 n=47 v=119
235680 Off ch=4 n=47 v=119
235680 On ch=4 n=45 v=119
236256 Off ch=4 n=45 v=119
236400 On ch=4 n=54 v=119
237120 Off ch=4 n=54 v=119
237120 On ch=4 n=57 v=119
237120 On ch=4 n=52 v=119
237463 Off ch=4 n=57 v=119
237473 Off ch=4 n=52 v=119
239040 On ch=4 n=38 v=119
242496 Off ch=4 n=38 v=119
242880 On ch=4 n=33 v=119
244032 Off ch=4 n=33 v=119
244320 On ch=4 n=35 v=119
244704 Off ch=4 n=35 v=119
244800 On ch=4 n=36 v=119
245952 Off ch=4 n=36 v=119
246000 On ch=4 n=35 v=119
246384 Off ch=4 n=35 v=119
246480 On ch=4 n=31 v=119
246672 Off ch=4 n=31 v=119
246720 On ch=4 n=38 v=119
250176 Off ch=4 n=38 v=119
250560 On ch=4 n=28 v=119
251712 Off ch=4 n=28 v=119
252000 On ch=4 n=30 v=119
252384 Off ch=4 n=30 v=119
252480 On ch=4 n=31 v=119
253632 Off ch=4 n=31 v=119
253680 On ch=4 n=35 v=119
254064 Off ch=4 n=35 v=119
254160 On ch=4 n=36 v=119
254352 Off ch=4 n=36 v=119
254400 On ch=4 n=38 v=119
257856 Off ch=4 n=38 v=119
258240 On ch=4 n=33 v=119
259392 Off ch=4 n=33 v=119
259680 On ch=4 n=35 v=119
260064 Off ch=4 n=35 v=119
260160 On ch=4 n=36 v=119
261696 Off ch=4 n=36 v=119
262080 On ch=4 n=36 v=119
262848 Off ch=4 n=36 v=119
263040 On ch=4 n=38 v=119
263808 Off ch=4 n=38 v=119
264000 On ch=4 n=36 v=119
264192 Off ch=4 n=36 v=119
264240 On ch=4 n=36 v=119
264432 Off ch=4 n=36 v=119
264720 On ch=4 n=36 v=119
264912 Off ch=4 n=36 v=119
264960 On ch=4 n=36 v=119
265152 Off ch=4 n=36 v=119
265200 On ch=4 n=36 v=119
265392 Off ch=4 n=36 v=119
265680 On ch=4 n=36 v=119
265872 Off ch=4 n=36 v=119
265920 On ch=4 n=36 v=119
266112 Off ch=4 n=36 v=119
266160 On ch=4 n=36 v=119
266352 Off ch=4 n=36 v=119
266640 On ch=4 n=36 v=119
266832 Off ch=4 n=36 v=119
266880 On ch=4 n=36 v=119
267072 Off ch=4 n=36 v=119
267120 On ch=4 n=36 v=119
267312 Off ch=4 n=36 v=119
267600 On ch=4 n=36 v=119
267792 Off ch=4 n=36 v=119
267845 On ch=4 n=36 v=119
268037 Off ch=4 n=36 v=119
268080 On ch=4 n=36 v=119
268272 Off ch=4 n=36 v=119
268560 On ch=4 n=36 v=119
268752 Off ch=4 n=36 v=119
268800 On ch=4 n=36 v=119
268992 Off ch=4 n=36 v=119
269040 On ch=4 n=36 v=119
269232 Off ch=4 n=36 v=119
269520 On ch=4 n=36 v=119
269712 Off ch=4 n=36 v=119
269760 On ch=4 n=36 v=119
269952 Off ch=4 n=36 v=119
270000 On ch=4 n=36 v=119
270192 Off ch=4 n=36 v=119
270480 On ch=4 n=36 v=119
270672 Off ch=4 n=36 v=119
270720 On ch=4 n=36 v=119
270912 Off ch=4 n=36 v=119
270960 On ch=4 n=36 v=119
271152 Off ch=4 n=36 v=119
271440 On ch=4 n=36 v=127
271874 Off ch=4 n=36 v=127
271920 On ch=4 n=38 v=119
272112 Off ch=4 n=38 v=119
272400 On ch=4 n=38 v=119
272592 Off ch=4 n=38 v=119
272640 On ch=4 n=38 v=119
272832 Off ch=4 n=38 v=119
272880 On ch=4 n=38 v=119
273072 Off ch=4 n=38 v=119
273360 On ch=4 n=38 v=119
273552 Off ch=4 n=38 v=119
273600 On ch=4 n=38 v=119
273792 Off ch=4 n=38 v=119
273840 On ch=4 n=38 v=119
274032 Off ch=4 n=38 v=119
274320 On ch=4 n=38 v=119
274512 Off ch=4 n=38 v=119
274560 On ch=4 n=38 v=119
274752 Off ch=4 n=38 v=119
274800 On ch=4 n=38 v=119
274992 Off ch=4 n=38 v=119
275280 On ch=4 n=38 v=119
275472 Off ch=4 n=38 v=119
275525 On ch=4 n=38 v=119
275717 Off ch=4 n=38 v=119
275760 On ch=4 n=38 v=119
275952 Off ch=4 n=38 v=119
276240 On ch=4 n=38 v=119
276432 Off ch=4 n=38 v=119
276480 On ch=4 n=38 v=119
276672 Off ch=4 n=38 v=119
276720 On ch=4 n=38 v=119
276912 Off ch=4 n=38 v=119
277200 On ch=4 n=38 v=119
277392 Off ch=4 n=38 v=119
277440 On ch=4 n=40 v=119
277632 Off ch=4 n=40 v=119
277680 On ch=4 n=40 v=119
277872 Off ch=4 n=40 v=119
278160 On ch=4 n=40 v=119
278352 Off ch=4 n=40 v=119
278400 On ch=4 n=40 v=119
278592 Off ch=4 n=40 v=119
278640 On ch=4 n=40 v=119
278832 Off ch=4 n=40 v=119
279120 On ch=4 n=40 v=119
279312 Off ch=4 n=40 v=119
279360 On ch=4 n=42 v=119
279552 Off ch=4 n=42 v=119
279600 On ch=4 n=42 v=119
279792 Off ch=4 n=42 v=119
280080 On ch=4 n=42 v=119
280272 Off ch=4 n=42 v=119
280320 On ch=4 n=42 v=119
280512 Off ch=4 n=42 v=119
280560 On ch=4 n=42 v=119
280752 Off ch=4 n=42 v=119
280800 On ch=4 n=42 v=119
280992 Off ch=4 n=42 v=119
281040 On ch=4 n=42 v=119
281232 Off ch=4 n=42 v=119
281280 On ch=4 n=43 v=119
281472 Off ch=4 n=43 v=119
281520 On ch=4 n=43 v=119
281712 Off ch=4 n=43 v=119
282000 On ch=4 n=43 v=119
282192 Off ch=4 n=43 v=119
282240 On ch=4 n=43 v=119
282432 Off ch=4 n=43 v=119
282480 On ch=4 n=43 v=119
282672 Off ch=4 n=43 v=119
282720 On ch=4 n=43 v=119
282912 Off ch=4 n=43 v=119
282960 On ch=4 n=43 v=119
283152 Off ch=4 n=43 v=119
283200 On ch=4 n=45 v=119
283392 Off ch=4 n=45 v=119
283440 On ch=4 n=45 v=119
283632 Off ch=4 n=45 v=119
283920 On ch=4 n=45 v=119
284112 Off ch=4 n=45 v=119
284160 On ch=4 n=45 v=119
284352 Off ch=4 n=45 v=119
284400 On ch=4 n=45 v=119
284592 Off ch=4 n=45 v=119
284640 On ch=4 n=45 v=119
284832 Off ch=4 n=45 v=119
284880 On ch=4 n=45 v=119
285072 Off ch=4 n=45 v=119
285120 On ch=4 n=47 v=119
285312 Off ch=4 n=47 v=119
285360 On ch=4 n=47 v=119
285552 Off ch=4 n=47 v=119
285600 On ch=4 n=47 v=119
285792 Off ch=4 n=47 v=119
285840 On ch=4 n=47 v=119
286032 Off ch=4 n=47 v=119
286080 On ch=4 n=47 v=119
286272 Off ch=4 n=47 v=119
286320 On ch=4 n=47 v=119
286512 Off ch=4 n=47 v=119
286560 On ch=4 n=47 v=119
286752 Off ch=4 n=47 v=119
286800 On ch=4 n=47 v=119
286992 Off ch=4 n=47 v=119
287040 On ch=4 n=48 v=119
287232 Off ch=4 n=48 v=119
287280 On ch=4 n=48 v=119
287472 Off ch=4 n=48 v=119
287520 On ch=4 n=48 v=119
287712 Off ch=4 n=48 v=119
287760 On ch=4 n=48 v=119
287952 Off ch=4 n=48 v=119
288000 On ch=4 n=48 v=119
288192 Off ch=4 n=48 v=119
288240 On ch=4 n=48 v=119
288432 Off ch=4 n=48 v=119
288480 On ch=4 n=48 v=119
288672 Off ch=4 n=48 v=119
288720 On ch=4 n=48 v=119
288912 Off ch=4 n=48 v=119
288960 On ch=4 n=50 v=119
289152 Off ch=4 n=50 v=119
289200 On ch=4 n=50 v=119
289392 Off ch=4 n=50 v=119
289440 On ch=4 n=50 v=119
289632 Off ch=4 n=50 v=119
289680 On ch=4 n=50 v=119
289872 Off ch=4 n=50 v=119
289920 On ch=4 n=50 v=119
290112 Off ch=4 n=50 v=119
290160 On ch=4 n=50 v=119
290352 Off ch=4 n=50 v=119
290400 On ch=4 n=50 v=119
290592 Off ch=4 n=50 v=119
290640 On ch=4 n=50 v=119
290832 Off ch=4 n=50 v=119
290880 On ch=4 n=50 v=119
291072 Off ch=4 n=50 v=119
291120 On ch=4 n=50 v=119
291312 Off ch=4 n=50 v=119
291360 On ch=4 n=50 v=119
291552 Off ch=4 n=50 v=119
291600 On ch=4 n=50 v=119
291792 Off ch=4 n=50 v=119
291840 On ch=4 n=50 v=119
292032 Off ch=4 n=50 v=119
292080 On ch=4 n=50 v=119
292272 Off ch=4 n=50 v=119
292320 On ch=4 n=50 v=119
292512 Off ch=4 n=50 v=119
292560 On ch=4 n=50 v=119
292752 Off ch=4 n=50 v=119
292800 On ch=4 n=50 v=119
292992 Off ch=4 n=50 v=119
293040 On ch=4 n=50 v=119
293232 Off ch=4 n=50 v=119
293280 On ch=4 n=50 v=119
293472 Off ch=4 n=50 v=119
293520 On ch=4 n=50 v=119
293712 Off ch=4 n=50 v=119
293760 On ch=4 n=50 v=119
293952 Off ch=4 n=50 v=119
294000 On ch=4 n=50 v=119
294192 Off ch=4 n=50 v=119
294240 On ch=4 n=50 v=119
294432 Off ch=4 n=50 v=119
294480 On ch=4 n=50 v=119
294672 Off ch=4 n=50 v=119
294720 On ch=4 n=45 v=119
294912 Off ch=4 n=45 v=119
294960 On ch=4 n=45 v=119
295152 Off ch=4 n=45 v=119
295200 On ch=4 n=45 v=119
295392 Off ch=4 n=45 v=119
295440 On ch=4 n=45 v=119
295632 Off ch=4 n=45 v=119
295680 On ch=4 n=45 v=119
296304 Off ch=4 n=45 v=119
296400 On ch=4 n=49 v=119
296832 Off ch=4 n=49 v=119
296880 On ch=4 n=52 v=119
297264 Off ch=4 n=52 v=119
297360 On ch=4 n=49 v=119
297552 Off ch=4 n=49 v=119
297600 On ch=4 n=45 v=119
297792 Off ch=4 n=45 v=119
297840 On ch=4 n=44 v=119
298032 Off ch=4 n=44 v=119
298080 On ch=4 n=42 v=119
298272 Off ch=4 n=42 v=119
298320 On ch=4 n=42 v=119
298512 Off ch=4 n=42 v=119
298560 On ch=4 n=42 v=119
298752 Off ch=4 n=42 v=119
298800 On ch=4 n=45 v=119
299280 Off ch=4 n=45 v=119
299280 On ch=4 n=49 v=119
299664 Off ch=4 n=49 v=119
299760 On ch=4 n=49 v=119
300192 Off ch=4 n=49 v=119
300240 On ch=4 n=45 v=119
300624 Off ch=4 n=45 v=119
300720 On ch=4 n=44 v=119
300912 Off ch=4 n=44 v=119
300960 On ch=4 n=42 v=119
301152 Off ch=4 n=42 v=119
301200 On ch=4 n=42 v=119
301392 Off ch=4 n=42 v=119
301440 On ch=4 n=40 v=119
301632 Off ch=4 n=40 v=119
301680 On ch=4 n=40 v=119
301872 Off ch=4 n=40 v=119
301920 On ch=4 n=40 v=119
302112 Off ch=4 n=40 v=119
302160 On ch=4 n=47 v=119
302352 Off ch=4 n=47 v=119
302400 On ch=4 n=40 v=119
302592 Off ch=4 n=40 v=119
302640 On ch=4 n=40 v=119
302832 Off ch=4 n=40 v=119
302880 On ch=4 n=40 v=119
303072 Off ch=4 n=40 v=119
303120 On ch=4 n=47 v=119
303312 Off ch=4 n=47 v=119
303360 On ch=4 n=40 v=119
303552 Off ch=4 n=40 v=119
303600 On ch=4 n=40 v=119
303792 Off ch=4 n=40 v=119
303840 On ch=4 n=47 v=119
304032 Off ch=4 n=47 v=119
304080 On ch=4 n=40 v=119
304272 Off ch=4 n=40 v=119
304320 On ch=4 n=38 v=119
304896 Off ch=4 n=38 v=119
305040 On ch=4 n=42 v=119
305760 Off ch=4 n=42 v=119
305760 On ch=4 n=40 v=119
306528 Off ch=4 n=40 v=119
306720 On ch=4 n=38 v=119
306862 Off ch=4 n=38 v=119
306959 On ch=4 n=38 v=118
307101 Off ch=4 n=38 v=118
307201 On ch=4 n=38 v=121
307333 Off ch=4 n=38 v=121
307440 On ch=4 n=32 v=73
307598 Off ch=4 n=32 v=73
307681 On ch=4 n=33 v=119
307873 Off ch=4 n=33 v=119
309360 On ch=4 n=33 v=119
309552 Off ch=4 n=33 v=119
309600 On ch=4 n=37 v=119
309792 Off ch=4 n=37 v=119
309840 On ch=4 n=35 v=119
310032 Off ch=4 n=35 v=119
310084 On ch=4 n=38 v=119
310276 Off ch=4 n=38 v=119
310320 On ch=4 n=37 v=119
310512 Off ch=4 n=37 v=119
310564 On ch=4 n=40 v=119
310756 Off ch=4 n=40 v=119
310800 On ch=4 n=37 v=119
310992 Off ch=4 n=37 v=119
311045 On ch=4 n=42 v=119
311237 Off ch=4 n=42 v=119
312720 On ch=4 n=42 v=117
313163 Off ch=4 n=42 v=117
313200 On ch=4 n=37 v=119
313392 Off ch=4 n=37 v=119
313445 On ch=4 n=40 v=119
313637 Off ch=4 n=40 v=119
313680 On ch=4 n=33 v=119
313872 Off ch=4 n=33 v=119
313925 On ch=4 n=38 v=119
314117 Off ch=4 n=38 v=119
314160 On ch=4 n=33 v=119
314352 Off ch=4 n=33 v=119
314640 On ch=4 n=28 v=119
317712 Off ch=4 n=28 v=119
318000 On ch=4 n=28 v=119
318192 Off ch=4 n=28 v=119
318240 On ch=4 n=35 v=119
318432 Off ch=4 n=35 v=119
318480 On ch=4 n=38 v=119
319056 Off ch=4 n=38 v=119
319200 On ch=4 n=42 v=119
319920 Off ch=4 n=42 v=119
319920 On ch=4 n=40 v=119
320496 Off ch=4 n=40 v=119
320640 On ch=4 n=54 v=119
321360 Off ch=4 n=54 v=119
321360 On ch=4 n=52 v=119
321936 Off ch=4 n=52 v=119
322080 On ch=4 n=61 v=119
322800 Off ch=4 n=61 v=119
322800 On ch=4 n=64 v=119
322800 On ch=4 n=59 v=119
322992 Off ch=4 n=64 v=119
322992 Off ch=4 n=59 v=119
323040 On ch=4 n=40 v=119
323040 On ch=4 n=28 v=119
326736 Off ch=4 n=28 v=119
327606 Off ch=4 n=40 v=119
329040 Meta TrkEnd
TrkEnd
MTrk
0 Meta TrkName "Kaye2"
0 Meta 0x20 04
0 Meta InstrName "Kaye2"
0 KeySig 0 major
330 Par ch=5 c=0 v=0
335 Par ch=5 c=32 v=0
340 PrCh ch=5 p=2
345 Par ch=5 c=7 v=100
350 Par ch=5 c=10 v=64
355 Par ch=5 c=91 v=81
360 Par ch=5 c=93 v=0
365 Par ch=5 c=101 v=0
365 Par ch=5 c=100 v=0
365 Par ch=5 c=6 v=2
370 Par ch=5 c=99 v=1
370 Par ch=5 c=98 v=8
370 Par ch=5 c=6 v=64
375 Par ch=5 c=99 v=1
375 Par ch=5 c=98 v=9
375 Par ch=5 c=6 v=64
380 Par ch=5 c=99 v=1
380 Par ch=5 c=98 v=10
380 Par ch=5 c=6 v=64
385 Par ch=5 c=99 v=1
385 Par ch=5 c=98 v=32
385 Par ch=5 c=6 v=64
390 Par ch=5 c=99 v=1
390 Par ch=5 c=98 v=33
390 Par ch=5 c=6 v=64
395 Par ch=5 c=99 v=1
395 Par ch=5 c=98 v=99
395 Par ch=5 c=6 v=64
400 Par ch=5 c=99 v=1
400 Par ch=5 c=98 v=100
400 Par ch=5 c=6 v=64
405 Par ch=5 c=99 v=1
405 Par ch=5 c=98 v=102
405 Par ch=5 c=6 v=64
16560 On ch=5 n=33 v=80
16752 Off ch=5 n=33 v=80
16800 On ch=5 n=37 v=80
16992 Off ch=5 n=37 v=80
17040 On ch=5 n=35 v=80
17232 Off ch=5 n=35 v=80
17280 On ch=5 n=38 v=80
17472 Off ch=5 n=38 v=80
17520 On ch=5 n=37 v=80
17712 Off ch=5 n=37 v=80
17760 On ch=5 n=40 v=80
17952 Off ch=5 n=40 v=80
18000 On ch=5 n=37 v=80
18192 Off ch=5 n=37 v=80
18240 On ch=5 n=42 v=80
18432 Off ch=5 n=42 v=80
20160 On ch=5 n=42 v=80
20352 Off ch=5 n=42 v=80
20400 On ch=5 n=37 v=80
20592 Off ch=5 n=37 v=80
20640 On ch=5 n=40 v=80
20832 Off ch=5 n=40 v=80
20880 On ch=5 n=33 v=80
21072 Off ch=5 n=33 v=80
21120 On ch=5 n=38 v=80
21312 Off ch=5 n=38 v=80
21360 On ch=5 n=33 v=80
21552 Off ch=5 n=33 v=80
21600 On ch=5 n=28 v=80
23904 Off ch=5 n=28 v=80
24000 On ch=5 n=28 v=80
24192 Off ch=5 n=28 v=80
24240 On ch=5 n=35 v=80
24432 Off ch=5 n=35 v=80
24480 On ch=5 n=38 v=80
25056 Off ch=5 n=38 v=80
25200 On ch=5 n=42 v=80
25920 Off ch=5 n=42 v=80
25920 On ch=5 n=40 v=80
26688 Off ch=5 n=40 v=80
26880 On ch=5 n=38 v=114
27022 Off ch=5 n=38 v=114
27119 On ch=5 n=38 v=113
27261 Off ch=5 n=38 v=113
27361 On ch=5 n=38 v=116
27493 Off ch=5 n=38 v=116
27600 On ch=5 n=32 v=58
27718 Off ch=5 n=32 v=58
27846 On ch=5 n=33 v=80
28038 Off ch=5 n=33 v=80
29520 On ch=5 n=33 v=80
29712 Off ch=5 n=33 v=80
29760 On ch=5 n=37 v=80
29952 Off ch=5 n=37 v=80
30000 On ch=5 n=35 v=80
30192 Off ch=5 n=35 v=80
30240 On ch=5 n=38 v=80
30432 Off ch=5 n=38 v=80
30480 On ch=5 n=37 v=80
30672 Off ch=5 n=37 v=80
30720 On ch=5 n=40 v=80
30912 Off ch=5 n=40 v=80
30960 On ch=5 n=37 v=80
31152 Off ch=5 n=37 v=80
31200 On ch=5 n=42 v=80
31392 Off ch=5 n=42 v=80
32880 On ch=5 n=42 v=80
33312 Off ch=5 n=42 v=80
33360 On ch=5 n=37 v=80
33552 Off ch=5 n=37 v=80
33600 On ch=5 n=40 v=80
33792 Off ch=5 n=40 v=80
33840 On ch=5 n=33 v=80
34032 Off ch=5 n=33 v=80
34080 On ch=5 n=38 v=80
34272 Off ch=5 n=38 v=80
34320 On ch=5 n=33 v=80
34512 Off ch=5 n=33 v=80
34560 On ch=5 n=28 v=80
36393 Off ch=5 n=28 v=80
36480 On ch=5 n=28 v=79
36620 Off ch=5 n=28 v=79
36720 On ch=5 n=35 v=81
36866 Off ch=5 n=35 v=81
36960 On ch=5 n=38 v=80
37536 Off ch=5 n=38 v=80
37680 On ch=5 n=42 v=80
38400 Off ch=5 n=42 v=80
38400 On ch=5 n=40 v=80
39168 Off ch=5 n=40 v=80
39360 On ch=5 n=38 v=80
39552 Off ch=5 n=38 v=80
39600 On ch=5 n=38 v=80
39792 Off ch=5 n=38 v=80
39840 On ch=5 n=38 v=80
40032 Off ch=5 n=38 v=80
40320 On ch=5 n=45 v=80
40512 Off ch=5 n=45 v=80
40560 On ch=5 n=45 v=80
40752 Off ch=5 n=45 v=80
40800 On ch=5 n=45 v=80
40992 Off ch=5 n=45 v=80
41040 On ch=5 n=45 v=80
41232 Off ch=5 n=45 v=80
41280 On ch=5 n=45 v=80
41904 Off ch=5 n=45 v=80
42000 On ch=5 n=49 v=80
42432 Off ch=5 n=49 v=80
42480 On ch=5 n=52 v=80
42864 Off ch=5 n=52 v=80
42960 On ch=5 n=49 v=80
43152 Off ch=5 n=49 v=80
43200 On ch=5 n=45 v=80
43392 Off ch=5 n=45 v=80
43440 On ch=5 n=44 v=80
43632 Off ch=5 n=44 v=80
43680 On ch=5 n=42 v=80
43872 Off ch=5 n=42 v=80
43920 On ch=5 n=42 v=80
44112 Off ch=5 n=42 v=80
44160 On ch=5 n=42 v=80
44352 Off ch=5 n=42 v=80
44400 On ch=5 n=45 v=80
44880 Off ch=5 n=45 v=80
44880 On ch=5 n=49 v=80
45264 Off ch=5 n=49 v=80
45360 On ch=5 n=49 v=80
45792 Off ch=5 n=49 v=80
45840 On ch=5 n=45 v=80
46224 Off ch=5 n=45 v=80
46320 On ch=5 n=44 v=80
46512 Off ch=5 n=44 v=80
46560 On ch=5 n=42 v=80
46752 Off ch=5 n=42 v=80
46800 On ch=5 n=42 v=80
46992 Off ch=5 n=42 v=80
47040 On ch=5 n=40 v=80
47232 Off ch=5 n=40 v=80
47280 On ch=5 n=40 v=80
47472 Off ch=5 n=40 v=80
47520 On ch=5 n=40 v=80
47712 Off ch=5 n=40 v=80
47760 On ch=5 n=47 v=80
47952 Off ch=5 n=47 v=80
48000 On ch=5 n=40 v=80
48192 Off ch=5 n=40 v=80
48240 On ch=5 n=40 v=80
48432 Off ch=5 n=40 v=80
48480 On ch=5 n=40 v=80
48672 Off ch=5 n=40 v=80
48720 On ch=5 n=47 v=80
48912 Off ch=5 n=47 v=80
48960 On ch=5 n=40 v=80
49152 Off ch=5 n=40 v=80
49200 On ch=5 n=40 v=80
49392 Off ch=5 n=40 v=80
49440 On ch=5 n=47 v=80
49632 Off ch=5 n=47 v=80
49680 On ch=5 n=40 v=80
49872 Off ch=5 n=40 v=80
49920 On ch=5 n=38 v=80
50496 Off ch=5 n=38 v=80
50640 On ch=5 n=42 v=80
51360 Off ch=5 n=42 v=80
51360 On ch=5 n=40 v=80
51936 Off ch=5 n=40 v=80
53880 Par ch=5 c=91 v=127
54240 On ch=5 n=78 v=100
54240 On ch=5 n=81 v=100
54240 On ch=5 n=86 v=100
54240 On ch=5 n=90 v=100
55649 Off ch=5 n=78 v=100
55649 Off ch=5 n=81 v=100
55649 Off ch=5 n=86 v=100
55649 Off ch=5 n=90 v=100
55680 On ch=5 n=80 v=100
55680 On ch=5 n=83 v=100
55680 On ch=5 n=88 v=100
55680 On ch=5 n=92 v=100
57089 Off ch=5 n=80 v=100
57089 Off ch=5 n=83 v=100
57089 Off ch=5 n=88 v=100
57089 Off ch=5 n=92 v=100
57120 On ch=5 n=79 v=100
57120 On ch=5 n=84 v=100
57120 On ch=5 n=88 v=100
57120 On ch=5 n=91 v=100
58529 Off ch=5 n=79 v=100
58529 Off ch=5 n=84 v=100
58529 Off ch=5 n=88 v=100
58529 Off ch=5 n=91 v=100
58560 On ch=5 n=90 v=100
58560 On ch=5 n=86 v=100
58560 On ch=5 n=81 v=100
58560 On ch=5 n=78 v=100
61889 Off ch=5 n=78 v=100
61889 Off ch=5 n=81 v=100
61889 Off ch=5 n=86 v=100
61889 Off ch=5 n=90 v=100
61920 On ch=5 n=78 v=100
61920 On ch=5 n=81 v=100
61920 On ch=5 n=86 v=100
61920 On ch=5 n=90 v=100
63329 Off ch=5 n=78 v=100
63329 Off ch=5 n=81 v=100
63329 Off ch=5 n=86 v=100
63329 Off ch=5 n=90 v=100
63360 On ch=5 n=92 v=100
63360 On ch=5 n=88 v=100
63360 On ch=5 n=83 v=100
63360 On ch=5 n=80 v=100
64769 Off ch=5 n=92 v=100
64769 Off ch=5 n=88 v=100
64769 Off ch=5 n=83 v=100
64769 Off ch=5 n=80 v=100
64800 On ch=5 n=91 v=100
64800 On ch=5 n=88 v=100
64800 On ch=5 n=84 v=100
64800 On ch=5 n=79 v=100
66209 Off ch=5 n=91 v=100
66209 Off ch=5 n=88 v=100
66209 Off ch=5 n=84 v=100
66209 Off ch=5 n=79 v=100
66240 On ch=5 n=78 v=100
66240 On ch=5 n=81 v=100
66240 On ch=5 n=86 v=100
66240 On ch=5 n=90 v=100
69569 Off ch=5 n=90 v=100
69569 Off ch=5 n=86 v=100
69569 Off ch=5 n=81 v=100
69569 Off ch=5 n=78 v=100
69600 On ch=5 n=78 v=100
69600 On ch=5 n=81 v=100
69600 On ch=5 n=86 v=100
69600 On ch=5 n=90 v=100
70895 Off ch=5 n=81 v=100
70895 Off ch=5 n=86 v=100
70895 Off ch=5 n=90 v=100
70895 Off ch=5 n=78 v=100
71040 On ch=5 n=80 v=100
71040 On ch=5 n=83 v=100
71040 On ch=5 n=88 v=100
71040 On ch=5 n=92 v=100
72335 Off ch=5 n=80 v=100
72335 Off ch=5 n=83 v=100
72335 Off ch=5 n=88 v=100
72335 Off ch=5 n=92 v=100
72480 On ch=5 n=79 v=100
72480 On ch=5 n=84 v=100
72480 On ch=5 n=88 v=100
72480 On ch=5 n=91 v=100
73775 Off ch=5 n=79 v=100
73775 Off ch=5 n=84 v=100
73775 Off ch=5 n=88 v=100
73775 Off ch=5 n=91 v=100
73920 On ch=5 n=81 v=100
73920 On ch=5 n=86 v=100
73920 On ch=5 n=90 v=100
73920 On ch=5 n=78 v=100
77280 Off ch=5 n=81 v=100
77280 Off ch=5 n=86 v=100
77280 Off ch=5 n=90 v=100
77280 Off ch=5 n=78 v=100
77280 On ch=5 n=78 v=100
77280 On ch=5 n=81 v=100
77280 On ch=5 n=86 v=100
77280 On ch=5 n=90 v=100
78575 Off ch=5 n=81 v=100
78575 Off ch=5 n=86 v=100
78575 Off ch=5 n=90 v=100
78575 Off ch=5 n=78 v=100
78720 On ch=5 n=80 v=100
78720 On ch=5 n=83 v=100
78720 On ch=5 n=88 v=100
78720 On ch=5 n=92 v=100
80015 Off ch=5 n=80 v=100
80015 Off ch=5 n=83 v=100
80015 Off ch=5 n=88 v=100
80015 Off ch=5 n=92 v=100
80160 On ch=5 n=79 v=100
80160 On ch=5 n=84 v=100
80160 On ch=5 n=88 v=100
80160 On ch=5 n=91 v=100
81455 Off ch=5 n=79 v=100
81455 Off ch=5 n=84 v=100
81455 Off ch=5 n=88 v=100
81455 Off ch=5 n=91 v=100
81600 On ch=5 n=81 v=100
81600 On ch=5 n=86 v=100
81600 On ch=5 n=90 v=100
81600 On ch=5 n=78 v=100
84960 Off ch=5 n=81 v=100
84960 Off ch=5 n=86 v=100
84960 Off ch=5 n=90 v=100
84960 Off ch=5 n=78 v=100
84960 On ch=5 n=78 v=100
84960 On ch=5 n=81 v=100
84960 On ch=5 n=86 v=100
84960 On ch=5 n=90 v=100
86255 Off ch=5 n=81 v=100
86255 Off ch=5 n=86 v=100
86255 Off ch=5 n=90 v=100
86255 Off ch=5 n=78 v=100
86400 On ch=5 n=92 v=100
86400 On ch=5 n=88 v=100
86400 On ch=5 n=83 v=100
86400 On ch=5 n=80 v=100
87695 Off ch=5 n=92 v=100
87695 Off ch=5 n=88 v=100
87695 Off ch=5 n=83 v=100
87695 Off ch=5 n=80 v=100
87840 On ch=5 n=91 v=100
87840 On ch=5 n=88 v=100
87840 On ch=5 n=84 v=100
87840 On ch=5 n=79 v=100
89135 Off ch=5 n=91 v=100
89135 Off ch=5 n=88 v=100
89135 Off ch=5 n=84 v=100
89135 Off ch=5 n=79 v=100
89280 On ch=5 n=90 v=100
89280 On ch=5 n=86 v=100
89280 On ch=5 n=81 v=100
89280 On ch=5 n=78 v=100
92640 Off ch=5 n=90 v=100
92640 Off ch=5 n=86 v=100
92640 Off ch=5 n=81 v=100
92640 Off ch=5 n=78 v=100
92640 On ch=5 n=81 v=100
92640 On ch=5 n=86 v=100
92640 On ch=5 n=90 v=100
92640 On ch=5 n=93 v=100
93935 Off ch=5 n=81 v=100
93935 Off ch=5 n=86 v=100
93935 Off ch=5 n=90 v=100
93935 Off ch=5 n=93 v=100
94080 On ch=5 n=80 v=100
94080 On ch=5 n=83 v=100
94080 On ch=5 n=88 v=100
94080 On ch=5 n=92 v=100
95375 Off ch=5 n=80 v=100
95375 Off ch=5 n=83 v=100
95375 Off ch=5 n=88 v=100
95375 Off ch=5 n=92 v=100
96000 On ch=5 n=84 v=100
96000 On ch=5 n=88 v=100
96000 On ch=5 n=91 v=100
96000 On ch=5 n=95 v=100
97880 Off ch=5 n=84 v=100
97880 Off ch=5 n=88 v=100
97880 Off ch=5 n=91 v=100
97880 Off ch=5 n=95 v=100
97920 On ch=5 n=86 v=100
97920 On ch=5 n=90 v=100
97920 On ch=5 n=93 v=100
97920 On ch=5 n=98 v=100
99800 Off ch=5 n=86 v=100
99800 Off ch=5 n=90 v=100
99800 Off ch=5 n=93 v=100
99800 Off ch=5 n=98 v=100
99840 On ch=5 n=84 v=100
99840 On ch=5 n=88 v=100
99840 On ch=5 n=91 v=100
99840 On ch=5 n=95 v=100
101720 Off ch=5 n=84 v=100
101720 Off ch=5 n=88 v=100
101720 Off ch=5 n=91 v=100
101720 Off ch=5 n=95 v=100
101760 On ch=5 n=86 v=100
101760 On ch=5 n=90 v=100
101760 On ch=5 n=93 v=100
101760 On ch=5 n=98 v=100
103640 Off ch=5 n=86 v=100
103640 Off ch=5 n=90 v=100
103640 Off ch=5 n=93 v=100
103640 Off ch=5 n=98 v=100
103680 On ch=5 n=84 v=100
103680 On ch=5 n=88 v=100
103680 On ch=5 n=91 v=100
103680 On ch=5 n=95 v=100
105560 Off ch=5 n=84 v=100
105560 Off ch=5 n=88 v=100
105560 Off ch=5 n=91 v=100
105560 Off ch=5 n=95 v=100
105600 On ch=5 n=86 v=100
105600 On ch=5 n=90 v=100
105600 On ch=5 n=93 v=100
105600 On ch=5 n=98 v=100
107480 Off ch=5 n=86 v=100
107480 Off ch=5 n=90 v=100
107480 Off ch=5 n=93 v=100
107480 Off ch=5 n=98 v=100
107520 On ch=5 n=84 v=100
107520 On ch=5 n=88 v=100
107520 On ch=5 n=91 v=100
107520 On ch=5 n=95 v=100
109400 Off ch=5 n=84 v=100
109400 Off ch=5 n=88 v=100
109400 Off ch=5 n=91 v=100
109400 Off ch=5 n=95 v=100
109440 On ch=5 n=86 v=100
109440 On ch=5 n=90 v=100
109440 On ch=5 n=93 v=100
109440 On ch=5 n=98 v=100
111320 Off ch=5 n=86 v=100
111320 Off ch=5 n=90 v=100
111320 Off ch=5 n=93 v=100
111320 Off ch=5 n=98 v=100
111360 On ch=5 n=86 v=100
111360 On ch=5 n=90 v=100
111360 On ch=5 n=93 v=100
111360 On ch=5 n=98 v=100
113240 Off ch=5 n=86 v=100
113240 Off ch=5 n=90 v=100
113240 Off ch=5 n=93 v=100
113240 Off ch=5 n=98 v=100
113280 On ch=5 n=93 v=103
113280 On ch=5 n=88 v=101
113666 Off ch=5 n=93 v=103
113676 Off ch=5 n=88 v=101
130560 KeySig 4 major
138240 KeySig 0 major
144480 On ch=5 n=78 v=100
144480 On ch=5 n=81 v=100
144480 On ch=5 n=86 v=100
144480 On ch=5 n=90 v=100
145889 Off ch=5 n=78 v=100
145889 Off ch=5 n=81 v=100
145889 Off ch=5 n=86 v=100
145889 Off ch=5 n=90 v=100
145920 On ch=5 n=80 v=100
145920 On ch=5 n=83 v=100
145920 On ch=5 n=88 v=100
145920 On ch=5 n=92 v=100
147329 Off ch=5 n=80 v=100
147329 Off ch=5 n=83 v=100
147329 Off ch=5 n=88 v=100
147329 Off ch=5 n=92 v=100
147360 On ch=5 n=79 v=100
147360 On ch=5 n=84 v=100
147360 On ch=5 n=88 v=100
147360 On ch=5 n=91 v=100
148769 Off ch=5 n=79 v=100
148769 Off ch=5 n=84 v=100
148769 Off ch=5 n=88 v=100
148769 Off ch=5 n=91 v=100
148800 On ch=5 n=90 v=100
148800 On ch=5 n=86 v=100
148800 On ch=5 n=81 v=100
148800 On ch=5 n=78 v=100
152129 Off ch=5 n=90 v=100
152129 Off ch=5 n=86 v=100
152129 Off ch=5 n=81 v=100
152129 Off ch=5 n=78 v=100
152160 On ch=5 n=78 v=100
152160 On ch=5 n=81 v=100
152160 On ch=5 n=86 v=100
152160 On ch=5 n=90 v=100
153569 Off ch=5 n=78 v=100
153569 Off ch=5 n=81 v=100
153569 Off ch=5 n=86 v=100
153569 Off ch=5 n=90 v=100
153600 On ch=5 n=80 v=100
153600 On ch=5 n=83 v=100
153600 On ch=5 n=88 v=100
153600 On ch=5 n=92 v=100
155009 Off ch=5 n=80 v=100
155009 Off ch=5 n=83 v=100
155009 Off ch=5 n=88 v=100
155009 Off ch=5 n=92 v=100
155040 On ch=5 n=79 v=100
155040 On ch=5 n=84 v=100
155040 On ch=5 n=88 v=100
155040 On ch=5 n=91 v=100
156449 Off ch=5 n=79 v=100
156449 Off ch=5 n=84 v=100
156449 Off ch=5 n=88 v=100
156449 Off ch=5 n=91 v=100
156480 On ch=5 n=90 v=100
156480 On ch=5 n=86 v=100
156480 On ch=5 n=81 v=100
156480 On ch=5 n=78 v=100
159120 On ch=5 n=38 v=126
159121 On ch=5 n=26 v=127
159809 Off ch=5 n=90 v=100
159809 Off ch=5 n=86 v=100
159809 Off ch=5 n=81 v=100
159809 Off ch=5 n=78 v=100
159840 On ch=5 n=78 v=100
159840 On ch=5 n=81 v=100
159840 On ch=5 n=86 v=100
159840 On ch=5 n=90 v=100
160886 Off ch=5 n=38 v=126
160894 Off ch=5 n=26 v=127
161249 Off ch=5 n=78 v=100
161249 Off ch=5 n=81 v=100
161249 Off ch=5 n=86 v=100
161249 Off ch=5 n=90 v=100
161280 On ch=5 n=80 v=100
161280 On ch=5 n=83 v=100
161280 On ch=5 n=88 v=100
161280 On ch=5 n=92 v=100
162689 Off ch=5 n=80 v=100
162689 Off ch=5 n=83 v=100
162689 Off ch=5 n=88 v=100
162689 Off ch=5 n=92 v=100
162720 On ch=5 n=79 v=100
162720 On ch=5 n=84 v=100
162720 On ch=5 n=88 v=100
162720 On ch=5 n=91 v=100
164129 Off ch=5 n=79 v=100
164129 Off ch=5 n=84 v=100
164129 Off ch=5 n=88 v=100
164129 Off ch=5 n=91 v=100
164160 On ch=5 n=90 v=100
164160 On ch=5 n=86 v=100
164160 On ch=5 n=81 v=100
164160 On ch=5 n=78 v=100
167489 Off ch=5 n=90 v=100
167489 Off ch=5 n=86 v=100
167489 Off ch=5 n=81 v=100
167489 Off ch=5 n=78 v=100
167520 On ch=5 n=78 v=100
167520 On ch=5 n=81 v=100
167520 On ch=5 n=86 v=100
167520 On ch=5 n=90 v=100
168929 Off ch=5 n=78 v=100
168929 Off ch=5 n=81 v=100
168929 Off ch=5 n=86 v=100
168929 Off ch=5 n=90 v=100
168960 On ch=5 n=80 v=100
168960 On ch=5 n=83 v=100
168960 On ch=5 n=88 v=100
168960 On ch=5 n=92 v=100
170369 Off ch=5 n=80 v=100
170369 Off ch=5 n=83 v=100
170369 Off ch=5 n=88 v=100
170369 Off ch=5 n=92 v=100
170400 On ch=5 n=79 v=100
170400 On ch=5 n=84 v=100
170400 On ch=5 n=88 v=100
170400 On ch=5 n=91 v=100
171809 Off ch=5 n=79 v=100
171809 Off ch=5 n=84 v=100
171809 Off ch=5 n=88 v=100
171809 Off ch=5 n=91 v=100
171840 On ch=5 n=90 v=100
171840 On ch=5 n=86 v=100
171840 On ch=5 n=81 v=100
171840 On ch=5 n=78 v=100
174240 Par ch=5 c=7 v=127
174480 On ch=5 n=26 v=114
174480 On ch=5 n=38 v=127
175169 Off ch=5 n=90 v=100
175169 Off ch=5 n=86 v=100
175169 Off ch=5 n=81 v=100
175169 Off ch=5 n=78 v=100
175200 On ch=5 n=78 v=100
175200 On ch=5 n=81 v=100
175200 On ch=5 n=86 v=100
175200 On ch=5 n=90 v=100
176107 Off ch=5 n=26 v=114
176136 Off ch=5 n=38 v=127
176609 Off ch=5 n=78 v=100
176609 Off ch=5 n=81 v=100
176609 Off ch=5 n=86 v=100
176609 Off ch=5 n=90 v=100
176640 On ch=5 n=80 v=100
176640 On ch=5 n=83 v=100
176640 On ch=5 n=88 v=100
176640 On ch=5 n=92 v=100
178049 Off ch=5 n=80 v=100
178049 Off ch=5 n=83 v=100
178049 Off ch=5 n=88 v=100
178049 Off ch=5 n=92 v=100
178080 On ch=5 n=79 v=100
178080 On ch=5 n=84 v=100
178080 On ch=5 n=88 v=100
178080 On ch=5 n=91 v=100
179489 Off ch=5 n=79 v=100
179489 Off ch=5 n=84 v=100
179489 Off ch=5 n=88 v=100
179489 Off ch=5 n=91 v=100
179520 On ch=5 n=90 v=100
179520 On ch=5 n=86 v=100
179520 On ch=5 n=81 v=100
179520 On ch=5 n=78 v=100
182849 Off ch=5 n=90 v=100
182849 Off ch=5 n=86 v=100
182849 Off ch=5 n=81 v=100
182849 Off ch=5 n=78 v=100
182880 On ch=5 n=81 v=100
182880 On ch=5 n=86 v=100
182880 On ch=5 n=90 v=100
182880 On ch=5 n=93 v=100
184175 Off ch=5 n=81 v=100
184175 Off ch=5 n=86 v=100
184175 Off ch=5 n=90 v=100
184175 Off ch=5 n=93 v=100
184320 On ch=5 n=80 v=100
184320 On ch=5 n=83 v=100
184320 On ch=5 n=88 v=100
184320 On ch=5 n=92 v=100
185615 Off ch=5 n=80 v=100
185615 Off ch=5 n=83 v=100
185615 Off ch=5 n=88 v=100
185615 Off ch=5 n=92 v=100
186240 On ch=5 n=84 v=100
186240 On ch=5 n=88 v=100
186240 On ch=5 n=91 v=100
186240 On ch=5 n=95 v=100
188120 Off ch=5 n=84 v=100
188120 Off ch=5 n=88 v=100
188120 Off ch=5 n=91 v=100
188120 Off ch=5 n=95 v=100
188160 On ch=5 n=86 v=100
188160 On ch=5 n=90 v=100
188160 On ch=5 n=93 v=100
188160 On ch=5 n=98 v=100
190040 Off ch=5 n=86 v=100
190040 Off ch=5 n=90 v=100
190040 Off ch=5 n=93 v=100
190040 Off ch=5 n=98 v=100
190080 On ch=5 n=84 v=100
190080 On ch=5 n=88 v=100
190080 On ch=5 n=91 v=100
190080 On ch=5 n=95 v=100
191960 Off ch=5 n=84 v=100
191960 Off ch=5 n=88 v=100
191960 Off ch=5 n=91 v=100
191960 Off ch=5 n=95 v=100
192000 On ch=5 n=86 v=99
192000 On ch=5 n=90 v=100
192000 On ch=5 n=93 v=100
192000 On ch=5 n=98 v=100
193639 Off ch=5 n=93 v=100
193649 Off ch=5 n=86 v=99
193649 Off ch=5 n=98 v=100
193659 Off ch=5 n=90 v=100
193680 On ch=5 n=95 v=100
193680 On ch=5 n=91 v=100
193680 On ch=5 n=88 v=100
193680 On ch=5 n=84 v=100
195560 Off ch=5 n=95 v=100
195560 Off ch=5 n=91 v=100
195560 Off ch=5 n=88 v=100
195560 Off ch=5 n=84 v=100
195840 On ch=5 n=86 v=100
195840 On ch=5 n=90 v=100
195840 On ch=5 n=93 v=100
195840 On ch=5 n=98 v=100
197720 Off ch=5 n=86 v=100
197720 Off ch=5 n=90 v=100
197720 Off ch=5 n=93 v=100
197720 Off ch=5 n=98 v=100
197760 On ch=5 n=84 v=100
197760 On ch=5 n=88 v=100
197760 On ch=5 n=91 v=100
197760 On ch=5 n=95 v=100
199640 Off ch=5 n=84 v=100
199640 Off ch=5 n=88 v=100
199640 Off ch=5 n=91 v=100
199640 Off ch=5 n=95 v=100
199680 On ch=5 n=86 v=100
199680 On ch=5 n=90 v=100
199680 On ch=5 n=93 v=100
199680 On ch=5 n=98 v=100
201560 Off ch=5 n=86 v=100
201560 Off ch=5 n=90 v=100
201560 Off ch=5 n=93 v=100
201560 Off ch=5 n=98 v=100
264000 On ch=5 n=93 v=110
264384 Off ch=5 n=93 v=110
264480 On ch=5 n=86 v=110
264672 Off ch=5 n=86 v=110
264720 On ch=5 n=95 v=110
264912 Off ch=5 n=95 v=110
264960 On ch=5 n=91 v=110
265152 Off ch=5 n=91 v=110
265200 On ch=5 n=93 v=110
265584 Off ch=5 n=93 v=110
265680 On ch=5 n=86 v=110
265872 Off ch=5 n=86 v=110
265920 On ch=5 n=95 v=110
266112 Off ch=5 n=95 v=110
266160 On ch=5 n=91 v=110
266352 Off ch=5 n=91 v=110
266400 On ch=5 n=93 v=110
266784 Off ch=5 n=93 v=110
266880 On ch=5 n=86 v=110
267072 Off ch=5 n=86 v=110
267120 On ch=5 n=95 v=110
267312 Off ch=5 n=95 v=110
267360 On ch=5 n=91 v=110
267552 Off ch=5 n=91 v=110
267600 On ch=5 n=93 v=110
268032 Off ch=5 n=93 v=110
268080 On ch=5 n=86 v=110
268272 Off ch=5 n=86 v=110
268320 On ch=5 n=95 v=110
268512 Off ch=5 n=95 v=110
268560 On ch=5 n=91 v=110
268752 Off ch=5 n=91 v=110
268800 On ch=5 n=93 v=110
269184 Off ch=5 n=93 v=110
269280 On ch=5 n=86 v=110
269472 Off ch=5 n=86 v=110
269520 On ch=5 n=95 v=110
269712 Off ch=5 n=95 v=110
269760 On ch=5 n=91 v=110
269952 Off ch=5 n=91 v=110
270000 On ch=5 n=93 v=110
270384 Off ch=5 n=93 v=110
270480 On ch=5 n=86 v=110
270672 Off ch=5 n=86 v=110
270720 On ch=5 n=95 v=110
270912 Off ch=5 n=95 v=110
270960 On ch=5 n=91 v=110
271152 Off ch=5 n=91 v=110
271200 On ch=5 n=93 v=110
271584 Off ch=5 n=93 v=110
271680 On ch=5 n=86 v=110
271872 Off ch=5 n=86 v=110
271920 On ch=5 n=95 v=110
272112 Off ch=5 n=95 v=110
272160 On ch=5 n=91 v=110
272352 Off ch=5 n=91 v=110
272400 On ch=5 n=93 v=110
272880 Off ch=5 n=93 v=110
272880 On ch=5 n=86 v=110
273072 Off ch=5 n=86 v=110
273120 On ch=5 n=95 v=110
273312 Off ch=5 n=95 v=110
273360 On ch=5 n=91 v=110
273552 Off ch=5 n=91 v=110
273600 On ch=5 n=93 v=110
273984 Off ch=5 n=93 v=110
274080 On ch=5 n=86 v=110
274272 Off ch=5 n=86 v=110
274320 On ch=5 n=95 v=110
274512 Off ch=5 n=95 v=110
274560 On ch=5 n=91 v=110
274752 Off ch=5 n=91 v=110
274800 On ch=5 n=93 v=110
275184 Off ch=5 n=93 v=110
275280 On ch=5 n=86 v=110
275472 Off ch=5 n=86 v=110
275520 On ch=5 n=95 v=110
275712 Off ch=5 n=95 v=110
275760 On ch=5 n=91 v=110
275952 Off ch=5 n=91 v=110
276000 On ch=5 n=93 v=110
276384 Off ch=5 n=93 v=110
276480 On ch=5 n=86 v=110
276672 Off ch=5 n=86 v=110
276720 On ch=5 n=95 v=110
276912 Off ch=5 n=95 v=110
276960 On ch=5 n=91 v=110
277152 Off ch=5 n=91 v=110
277200 On ch=5 n=93 v=110
277632 Off ch=5 n=93 v=110
277680 On ch=5 n=86 v=110
277872 Off ch=5 n=86 v=110
277920 On ch=5 n=95 v=110
278112 Off ch=5 n=95 v=110
278160 On ch=5 n=91 v=110
278352 Off ch=5 n=91 v=110
278400 On ch=5 n=93 v=110
278784 Off ch=5 n=93 v=110
278880 On ch=5 n=86 v=110
279072 Off ch=5 n=86 v=110
279120 On ch=5 n=95 v=110
279312 Off ch=5 n=95 v=110
279360 On ch=5 n=91 v=110
279552 Off ch=5 n=91 v=110
279600 On ch=5 n=93 v=110
279984 Off ch=5 n=93 v=110
280080 On ch=5 n=86 v=110
280272 Off ch=5 n=86 v=110
280320 On ch=5 n=95 v=110
280512 Off ch=5 n=95 v=110
280560 On ch=5 n=91 v=110
280752 Off ch=5 n=91 v=110
280800 On ch=5 n=93 v=110
281184 Off ch=5 n=93 v=110
281280 On ch=5 n=86 v=110
281472 Off ch=5 n=86 v=110
281520 On ch=5 n=95 v=110
281712 Off ch=5 n=95 v=110
281760 On ch=5 n=91 v=110
281952 Off ch=5 n=91 v=110
282000 On ch=5 n=93 v=110
282480 Off ch=5 n=93 v=110
282480 On ch=5 n=86 v=110
282672 Off ch=5 n=86 v=110
282720 On ch=5 n=95 v=110
282912 Off ch=5 n=95 v=110
282960 On ch=5 n=91 v=110
283152 Off ch=5 n=91 v=110
283200 On ch=5 n=93 v=110
283584 Off ch=5 n=93 v=110
283680 On ch=5 n=86 v=110
283872 Off ch=5 n=86 v=110
283920 On ch=5 n=95 v=110
284112 Off ch=5 n=95 v=110
284160 On ch=5 n=91 v=110
284352 Off ch=5 n=91 v=110
284400 On ch=5 n=93 v=110
284784 Off ch=5 n=93 v=110
284880 On ch=5 n=86 v=110
285072 Off ch=5 n=86 v=110
285120 On ch=5 n=95 v=110
285312 Off ch=5 n=95 v=110
285360 On ch=5 n=91 v=110
285552 Off ch=5 n=91 v=110
285600 On ch=5 n=93 v=110
285984 Off ch=5 n=93 v=110
286080 On ch=5 n=86 v=110
286272 Off ch=5 n=86 v=110
286320 On ch=5 n=95 v=110
286512 Off ch=5 n=95 v=110
286560 On ch=5 n=91 v=110
286752 Off ch=5 n=91 v=110
286800 On ch=5 n=93 v=110
287232 Off ch=5 n=93 v=110
287280 On ch=5 n=86 v=110
287472 Off ch=5 n=86 v=110
287520 On ch=5 n=95 v=110
287712 Off ch=5 n=95 v=110
287760 On ch=5 n=91 v=110
287952 Off ch=5 n=91 v=110
288000 On ch=5 n=93 v=110
288384 Off ch=5 n=93 v=110
288480 On ch=5 n=86 v=110
288672 Off ch=5 n=86 v=110
288720 On ch=5 n=95 v=110
288912 Off ch=5 n=95 v=110
288960 On ch=5 n=91 v=110
289152 Off ch=5 n=91 v=110
289200 On ch=5 n=93 v=110
289584 Off ch=5 n=93 v=110
289680 On ch=5 n=86 v=110
289872 Off ch=5 n=86 v=110
289920 On ch=5 n=95 v=110
290112 Off ch=5 n=95 v=110
290160 On ch=5 n=91 v=110
290352 Off ch=5 n=91 v=110
290400 On ch=5 n=93 v=110
290784 Off ch=5 n=93 v=110
290880 On ch=5 n=86 v=110
291072 Off ch=5 n=86 v=110
291120 On ch=5 n=95 v=110
291312 Off ch=5 n=95 v=110
291360 On ch=5 n=91 v=110
291552 Off ch=5 n=91 v=110
291600 On ch=5 n=93 v=110
292080 Off ch=5 n=93 v=110
292080 On ch=5 n=86 v=110
292272 Off ch=5 n=86 v=110
292320 On ch=5 n=95 v=110
292512 Off ch=5 n=95 v=110
292560 On ch=5 n=91 v=110
292752 Off ch=5 n=91 v=110
292800 On ch=5 n=93 v=110
293184 Off ch=5 n=93 v=110
293280 On ch=5 n=86 v=110
293472 Off ch=5 n=86 v=110
293520 On ch=5 n=95 v=110
293712 Off ch=5 n=95 v=110
293760 On ch=5 n=91 v=110
293952 Off ch=5 n=91 v=110
294000 On ch=5 n=93 v=110
294576 Off ch=5 n=93 v=110
294722 On ch=5 n=33 v=127
297694 Off ch=5 n=33 v=127
298082 On ch=5 n=30 v=127
301090 Off ch=5 n=30 v=127
301444 On ch=5 n=28 v=127
303953 Off ch=5 n=28 v=127
304321 On ch=5 n=26 v=127
304958 Off ch=5 n=26 v=127
305044 On ch=5 n=30 v=123
305361 Off ch=5 n=30 v=123
305760 On ch=5 n=28 v=125
306561 Off ch=5 n=28 v=125
306720 On ch=5 n=38 v=119
306862 Off ch=5 n=38 v=119
306959 On ch=5 n=38 v=118
307101 Off ch=5 n=38 v=118
307201 On ch=5 n=38 v=121
307333 Off ch=5 n=38 v=121
307440 On ch=5 n=32 v=73
307598 Off ch=5 n=32 v=73
307681 On ch=5 n=33 v=119
307873 Off ch=5 n=33 v=119
309360 On ch=5 n=33 v=119
309552 Off ch=5 n=33 v=119
309600 On ch=5 n=37 v=119
309792 Off ch=5 n=37 v=119
309840 On ch=5 n=35 v=119
310032 Off ch=5 n=35 v=119
310084 On ch=5 n=38 v=119
310276 Off ch=5 n=38 v=119
310320 On ch=5 n=37 v=119
310512 Off ch=5 n=37 v=119
310564 On ch=5 n=40 v=119
310756 Off ch=5 n=40 v=119
310800 On ch=5 n=37 v=119
310992 Off ch=5 n=37 v=119
311045 On ch=5 n=42 v=119
311237 Off ch=5 n=42 v=119
312720 On ch=5 n=42 v=117
313163 Off ch=5 n=42 v=117
313200 On ch=5 n=37 v=119
313392 Off ch=5 n=37 v=119
313445 On ch=5 n=40 v=119
313637 Off ch=5 n=40 v=119
313680 On ch=5 n=33 v=119
313872 Off ch=5 n=33 v=119
313925 On ch=5 n=38 v=119
314117 Off ch=5 n=38 v=119
314160 On ch=5 n=33 v=119
314352 Off ch=5 n=33 v=119
314640 On ch=5 n=28 v=119
317712 Off ch=5 n=28 v=119
318000 On ch=5 n=28 v=119
318192 Off ch=5 n=28 v=119
318240 On ch=5 n=35 v=119
318432 Off ch=5 n=35 v=119
318720 On ch=5 n=57 v=80
318912 Off ch=5 n=57 v=80
318960 On ch=5 n=62 v=80
319152 Off ch=5 n=62 v=80
319200 On ch=5 n=54 v=80
319392 Off ch=5 n=54 v=80
319440 On ch=5 n=61 v=80
319632 Off ch=5 n=61 v=80
319680 On ch=5 n=66 v=80
319872 Off ch=5 n=66 v=80
319920 On ch=5 n=52 v=80
320112 Off ch=5 n=52 v=80
320160 On ch=5 n=59 v=80
320352 Off ch=5 n=59 v=80
320400 On ch=5 n=64 v=80
320592 Off ch=5 n=64 v=80
320640 On ch=5 n=66 v=80
320832 Off ch=5 n=66 v=80
320880 On ch=5 n=73 v=80
321072 Off ch=5 n=73 v=80
321120 On ch=5 n=78 v=80
321312 Off ch=5 n=78 v=80
321360 On ch=5 n=64 v=80
321552 Off ch=5 n=64 v=80
321600 On ch=5 n=71 v=80
321792 Off ch=5 n=71 v=80
321840 On ch=5 n=76 v=80
322032 Off ch=5 n=76 v=80
322080 On ch=5 n=66 v=80
322272 Off ch=5 n=66 v=80
322320 On ch=5 n=73 v=80
322512 Off ch=5 n=73 v=80
322560 On ch=5 n=78 v=80
322752 Off ch=5 n=78 v=80
322800 On ch=5 n=76 v=80
322992 Off ch=5 n=76 v=80
323040 On ch=5 n=28 v=112
323040 On ch=5 n=40 v=113
327605 Off ch=5 n=28 v=112
327610 Off ch=5 n=40 v=113
329040 Meta TrkEnd
TrkEnd
MTrk
0 Meta TrkName "Rabin1"
0 Meta 0x20 05
0 Meta InstrName "Rabin1"
0 KeySig 0 major
410 Par ch=6 c=0 v=0
415 Par ch=6 c=32 v=0
420 PrCh ch=6 p=30
425 Par ch=6 c=7 v=100
430 Par ch=6 c=10 v=64
435 Par ch=6 c=91 v=64
440 Par ch=6 c=93 v=0
445 Par ch=6 c=101 v=0
445 Par ch=6 c=100 v=0
445 Par ch=6 c=6 v=2
450 Par ch=6 c=99 v=1
450 Par ch=6 c=98 v=8
450 Par ch=6 c=6 v=64
455 Par ch=6 c=99 v=1
455 Par ch=6 c=98 v=9
455 Par ch=6 c=6 v=64
460 Par ch=6 c=99 v=1
460 Par ch=6 c=98 v=10
460 Par ch=6 c=6 v=64
465 Par ch=6 c=99 v=1
465 Par ch=6 c=98 v=32
465 Par ch=6 c=6 v=64
470 Par ch=6 c=99 v=1
470 Par ch=6 c=98 v=33
470 Par ch=6 c=6 v=64
475 Par ch=6 c=99 v=1
475 Par ch=6 c=98 v=99
475 Par ch=6 c=6 v=64
480 Par ch=6 c=99 v=1
480 Par ch=6 c=98 v=100
480 Par ch=6 c=6 v=64
485 Par ch=6 c=99 v=1
485 Par ch=6 c=98 v=102
485 Par ch=6 c=6 v=64
16560 On ch=6 n=45 v=114
16793 Off ch=6 n=45 v=114
16800 On ch=6 n=49 v=114
17020 Off ch=6 n=49 v=114
17040 On ch=6 n=47 v=114
17260 Off ch=6 n=47 v=114
17280 On ch=6 n=50 v=114
17500 Off ch=6 n=50 v=114
17520 On ch=6 n=49 v=114
17740 Off ch=6 n=49 v=114
17760 On ch=6 n=52 v=114
17980 Off ch=6 n=52 v=114
18000 On ch=6 n=49 v=114
18220 Off ch=6 n=49 v=114
18240 On ch=6 n=54 v=115
18508 Pb ch=6 v=6670
18528 Pb ch=6 v=4564
18548 Pb ch=6 v=2341
18563 Off ch=6 n=54 v=115
18568 Pb ch=6 v=820
18590 Pb ch=6 v=0
18720 Pb ch=6 v=8192
20160 On ch=6 n=54 v=114
20380 Off ch=6 n=54 v=114
20400 On ch=6 n=49 v=114
20620 Off ch=6 n=49 v=114
20640 On ch=6 n=52 v=114
20860 Off ch=6 n=52 v=114
20880 On ch=6 n=45 v=114
21100 Off ch=6 n=45 v=114
21120 On ch=6 n=50 v=114
21340 Off ch=6 n=50 v=114
21360 On ch=6 n=45 v=114
21580 Off ch=6 n=45 v=114
21600 On ch=6 n=40 v=114
23927 Off ch=6 n=40 v=114
24000 On ch=6 n=40 v=114
24203 Off ch=6 n=40 v=114
24240 On ch=6 n=47 v=114
24443 Off ch=6 n=47 v=114
24480 On ch=6 n=57 v=113
24480 On ch=6 n=50 v=114
25193 Off ch=6 n=50 v=114
25197 Off ch=6 n=57 v=113
25200 On ch=6 n=54 v=113
25200 On ch=6 n=61 v=116
25558 Off ch=6 n=61 v=116
25570 Off ch=6 n=54 v=113
25920 On ch=6 n=59 v=114
25920 On ch=6 n=52 v=114
26735 Off ch=6 n=59 v=114
26735 Off ch=6 n=52 v=114
26880 On ch=6 n=50 v=114
27046 Off ch=6 n=50 v=114
27119 On ch=6 n=50 v=113
27285 Off ch=6 n=50 v=113
27361 On ch=6 n=50 v=116
27519 Off ch=6 n=50 v=116
27600 On ch=6 n=44 v=68
27818 Off ch=6 n=44 v=68
27841 On ch=6 n=45 v=117
28117 Pb ch=6 v=7723
28137 Pb ch=6 v=6436
28157 Pb ch=6 v=4798
28178 Pb ch=6 v=2926
28189 Off ch=6 n=45 v=117
28198 Pb ch=6 v=1288
28219 Pb ch=6 v=0
28560 Pb ch=6 v=8192
29520 On ch=6 n=45 v=114
29740 Off ch=6 n=45 v=114
29760 On ch=6 n=49 v=114
29980 Off ch=6 n=49 v=114
30000 On ch=6 n=47 v=114
30220 Off ch=6 n=47 v=114
30240 On ch=6 n=50 v=114
30460 Off ch=6 n=50 v=114
30480 On ch=6 n=49 v=114
30700 Off ch=6 n=49 v=114
30720 On ch=6 n=52 v=114
30940 Off ch=6 n=52 v=114
30960 On ch=6 n=49 v=114
31178 Off ch=6 n=49 v=114
31200 On ch=6 n=54 v=114
31477 Pb ch=6 v=7723
31497 Pb ch=6 v=6436
31517 Pb ch=6 v=4798
31538 Pb ch=6 v=2926
31549 Off ch=6 n=54 v=114
31558 Pb ch=6 v=1288
31579 Pb ch=6 v=0
31920 Pb ch=6 v=8192
32880 On ch=6 n=54 v=114
33340 Off ch=6 n=54 v=114
33360 On ch=6 n=49 v=114
33580 Off ch=6 n=49 v=114
33600 On ch=6 n=52 v=114
33820 Off ch=6 n=52 v=114
33840 On ch=6 n=45 v=114
34060 Off ch=6 n=45 v=114
34080 On ch=6 n=50 v=114
34300 Off ch=6 n=50 v=114
34320 On ch=6 n=45 v=114
34523 Off ch=6 n=45 v=114
34560 On ch=6 n=40 v=117
36425 Off ch=6 n=40 v=117
36480 On ch=6 n=40 v=116
36647 Off ch=6 n=40 v=116
36720 On ch=6 n=47 v=114
36890 Off ch=6 n=47 v=114
36960 On ch=6 n=50 v=113
36960 On ch=6 n=57 v=98
37655 Off ch=6 n=57 v=98
37658 Off ch=6 n=50 v=113
37680 On ch=6 n=61 v=84
37680 On ch=6 n=54 v=114
38140 Off ch=6 n=54 v=114
38158 Off ch=6 n=61 v=84
38400 On ch=6 n=59 v=91
38400 On ch=6 n=52 v=114
39203 Off ch=6 n=59 v=91
39215 Off ch=6 n=52 v=114
39360 On ch=6 n=50 v=114
39563 Off ch=6 n=50 v=114
39600 On ch=6 n=50 v=96
39803 Off ch=6 n=50 v=96
39840 On ch=6 n=50 v=83
40053 Off ch=6 n=50 v=83
40080 On ch=6 n=52 v=75
40258 Off ch=6 n=52 v=75
40320 On ch=6 n=69 v=107
40320 On ch=6 n=73 v=108
41036 Off ch=6 n=73 v=108
41040 On ch=6 n=71 v=101
41040 On ch=6 n=68 v=101
41041 Off ch=6 n=69 v=107
41259 Off ch=6 n=71 v=101
41259 Off ch=6 n=68 v=101
41517 On ch=6 n=73 v=95
41517 On ch=6 n=69 v=95
41762 Off ch=6 n=73 v=95
41762 Off ch=6 n=69 v=95
42002 On ch=6 n=69 v=100
42002 On ch=6 n=74 v=101
42474 Off ch=6 n=69 v=100
42479 Off ch=6 n=74 v=101
42481 On ch=6 n=73 v=102
42481 On ch=6 n=69 v=102
42688 Off ch=6 n=73 v=102
42688 Off ch=6 n=69 v=102
42951 On ch=6 n=71 v=101
42955 On ch=6 n=68 v=101
43181 Off ch=6 n=71 v=101
43185 Off ch=6 n=68 v=101
43193 On ch=6 n=73 v=98
43193 On ch=6 n=69 v=98
43541 Off ch=6 n=73 v=98
43541 Off ch=6 n=69 v=98
43680 On ch=6 n=69 v=107
43680 On ch=6 n=73 v=108
44396 Off ch=6 n=73 v=108
44400 On ch=6 n=71 v=101
44400 On ch=6 n=68 v=101
44401 Off ch=6 n=69 v=107
44619 Off ch=6 n=71 v=101
44619 Off ch=6 n=68 v=101
44877 On ch=6 n=73 v=95
44877 On ch=6 n=69 v=95
45122 Off ch=6 n=73 v=95
45122 Off ch=6 n=69 v=95
45362 On ch=6 n=69 v=100
45362 On ch=6 n=74 v=101
45834 Off ch=6 n=69 v=100
45839 Off ch=6 n=74 v=101
45841 On ch=6 n=73 v=102
45841 On ch=6 n=69 v=102
46048 Off ch=6 n=73 v=102
46048 Off ch=6 n=69 v=102
46311 On ch=6 n=71 v=101
46315 On ch=6 n=68 v=101
46541 Off ch=6 n=71 v=101
46545 Off ch=6 n=68 v=101
46553 On ch=6 n=73 v=98
46553 On ch=6 n=69 v=98
46901 Off ch=6 n=73 v=98
46901 Off ch=6 n=69 v=98
47040 On ch=6 n=69 v=107
47040 On ch=6 n=73 v=108
47756 Off ch=6 n=73 v=108
47760 On ch=6 n=71 v=101
47760 On ch=6 n=68 v=101
47761 Off ch=6 n=69 v=107
47979 Off ch=6 n=71 v=101
47979 Off ch=6 n=68 v=101
48237 On ch=6 n=73 v=95
48237 On ch=6 n=69 v=95
48482 Off ch=6 n=73 v=95
48482 Off ch=6 n=69 v=95
48722 On ch=6 n=74 v=102
48722 On ch=6 n=69 v=99
49187 Off ch=6 n=69 v=99
49201 Off ch=6 n=74 v=102
49202 On ch=6 n=73 v=94
49202 On ch=6 n=69 v=94
49427 Off ch=6 n=73 v=94
49427 Off ch=6 n=69 v=94
49676 On ch=6 n=71 v=89
49676 On ch=6 n=68 v=89
49917 Off ch=6 n=71 v=89
49917 Off ch=6 n=68 v=89
49917 On ch=6 n=69 v=102
49917 On ch=6 n=74 v=102
50632 Off ch=6 n=69 v=102
50635 Off ch=6 n=74 v=102
50642 On ch=6 n=73 v=94
50642 On ch=6 n=69 v=94
51351 Off ch=6 n=73 v=94
51351 Off ch=6 n=69 v=94
51360 On ch=6 n=71 v=101
51360 On ch=6 n=68 v=101
52046 Pb ch=6 v=7723
52069 Pb ch=6 v=6904
52091 Pb ch=6 v=5617
52112 Pb ch=6 v=4213
52133 Pb ch=6 v=2575
52155 Pb ch=6 v=1288
52176 Pb ch=6 v=1
52199 Pb ch=6 v=0
52256 Off ch=6 n=71 v=101
52258 Off ch=6 n=68 v=101
52433 Pb ch=6 v=8192
59760 On ch=6 n=43 v=114
59975 Off ch=6 n=43 v=114
60000 On ch=6 n=45 v=114
60215 Off ch=6 n=45 v=114
60240 On ch=6 n=48 v=114
60455 Off ch=6 n=48 v=114
60480 On ch=6 n=53 v=114
60695 Off ch=6 n=53 v=114
60720 On ch=6 n=48 v=114
60935 Off ch=6 n=48 v=114
60960 On ch=6 n=50 v=114
61175 Off ch=6 n=50 v=114
61200 On ch=6 n=50 v=115
62049 Pb ch=6 v=7840
62069 Pb ch=6 v=5500
62092 Pb ch=6 v=3043
62113 Pb ch=6 v=586
62135 Pb ch=6 v=0
62135 Off ch=6 n=50 v=115
62400 Pb ch=6 v=8192
67440 On ch=6 n=43 v=114
67655 Off ch=6 n=43 v=114
67680 On ch=6 n=45 v=114
67895 Off ch=6 n=45 v=114
67920 On ch=6 n=48 v=114
68135 Off ch=6 n=48 v=114
68160 On ch=6 n=53 v=114
68375 Off ch=6 n=53 v=114
68400 On ch=6 n=48 v=114
68615 Off ch=6 n=48 v=114
68640 On ch=6 n=50 v=114
68855 Off ch=6 n=50 v=114
68880 On ch=6 n=50 v=115
69729 Pb ch=6 v=7840
69749 Pb ch=6 v=5500
69772 Pb ch=6 v=3043
69793 Pb ch=6 v=586
69815 Pb ch=6 v=0
69815 Off ch=6 n=50 v=115
70080 Pb ch=6 v=8192
75120 On ch=6 n=43 v=114
75335 Off ch=6 n=43 v=114
75360 On ch=6 n=45 v=114
75575 Off ch=6 n=45 v=114
75600 On ch=6 n=48 v=114
75815 Off ch=6 n=48 v=114
75840 On ch=6 n=53 v=114
76055 Off ch=6 n=53 v=114
76080 On ch=6 n=48 v=114
76295 Off ch=6 n=48 v=114
76320 On ch=6 n=50 v=114
76535 Off ch=6 n=50 v=114
76560 On ch=6 n=50 v=115
77409 Pb ch=6 v=7840
77429 Pb ch=6 v=5500
77452 Pb ch=6 v=3043
77473 Pb ch=6 v=586
77495 Pb ch=6 v=0
77495 Off ch=6 n=50 v=115
77760 Pb ch=6 v=8192
82800 On ch=6 n=43 v=114
83015 Off ch=6 n=43 v=114
83040 On ch=6 n=45 v=114
83255 Off ch=6 n=45 v=114
83280 On ch=6 n=48 v=114
83495 Off ch=6 n=48 v=114
83520 On ch=6 n=53 v=114
83735 Off ch=6 n=53 v=114
83760 On ch=6 n=48 v=114
83975 Off ch=6 n=48 v=114
84000 On ch=6 n=50 v=114
84215 Off ch=6 n=50 v=114
84240 On ch=6 n=50 v=115
85089 Pb ch=6 v=7840
85109 Pb ch=6 v=5500
85132 Pb ch=6 v=3043
85153 Pb ch=6 v=586
85175 Pb ch=6 v=0
85175 Off ch=6 n=50 v=115
85440 Pb ch=6 v=8192
90480 On ch=6 n=43 v=114
90695 Off ch=6 n=43 v=114
90720 On ch=6 n=45 v=114
90935 Off ch=6 n=45 v=114
90960 On ch=6 n=48 v=114
91175 Off ch=6 n=48 v=114
91200 On ch=6 n=53 v=114
91415 Off ch=6 n=53 v=114
91440 On ch=6 n=48 v=114
91655 Off ch=6 n=48 v=114
91680 On ch=6 n=50 v=114
91895 Off ch=6 n=50 v=114
91920 On ch=6 n=50 v=115
92769 Pb ch=6 v=7840
92789 Pb ch=6 v=5500
92812 Pb ch=6 v=3043
92833 Pb ch=6 v=586
92855 Pb ch=6 v=0
92855 Off ch=6 n=50 v=115
93120 Pb ch=6 v=8192
142320 On ch=6 n=43 v=118
142536 Off ch=6 n=43 v=118
142560 On ch=6 n=45 v=106
142757 Off ch=6 n=45 v=106
142800 On ch=6 n=48 v=102
143008 Off ch=6 n=48 v=102
143040 On ch=6 n=53 v=114
143255 Off ch=6 n=53 v=114
143280 On ch=6 n=48 v=114
143495 Off ch=6 n=48 v=114
143520 On ch=6 n=50 v=114
143735 Off ch=6 n=50 v=114
143760 On ch=6 n=50 v=115
144609 Pb ch=6 v=7840
144629 Pb ch=6 v=5500
144652 Pb ch=6 v=3043
144673 Pb ch=6 v=586
144695 Pb ch=6 v=0
144695 Off ch=6 n=50 v=115
144960 Pb ch=6 v=8192
150000 On ch=6 n=43 v=114
150215 Off ch=6 n=43 v=114
150240 On ch=6 n=45 v=114
150455 Off ch=6 n=45 v=114
150480 On ch=6 n=48 v=114
150695 Off ch=6 n=48 v=114
150720 On ch=6 n=53 v=114
150935 Off ch=6 n=53 v=114
150960 On ch=6 n=48 v=114
151175 Off ch=6 n=48 v=114
151200 On ch=6 n=50 v=114
151415 Off ch=6 n=50 v=114
151440 On ch=6 n=50 v=115
152289 Pb ch=6 v=7840
152309 Pb ch=6 v=5500
152332 Pb ch=6 v=3043
152353 Pb ch=6 v=586
152375 Pb ch=6 v=0
152375 Off ch=6 n=50 v=115
152640 Pb ch=6 v=8192
157680 On ch=6 n=43 v=114
157895 Off ch=6 n=43 v=114
157920 On ch=6 n=45 v=114
158135 Off ch=6 n=45 v=114
158160 On ch=6 n=48 v=114
158375 Off ch=6 n=48 v=114
158400 On ch=6 n=53 v=114
158615 Off ch=6 n=53 v=114
158640 On ch=6 n=48 v=114
158855 Off ch=6 n=48 v=114
158880 On ch=6 n=50 v=114
159095 Off ch=6 n=50 v=114
159120 On ch=6 n=50 v=115
159969 Pb ch=6 v=7840
159989 Pb ch=6 v=5500
160012 Pb ch=6 v=3043
160033 Pb ch=6 v=586
160055 Pb ch=6 v=0
160055 Off ch=6 n=50 v=115
160320 Pb ch=6 v=8192
165360 On ch=6 n=43 v=114
165575 Off ch=6 n=43 v=114
165600 On ch=6 n=45 v=114
165815 Off ch=6 n=45 v=114
165840 On ch=6 n=48 v=114
166055 Off ch=6 n=48 v=114
166080 On ch=6 n=53 v=114
166295 Off ch=6 n=53 v=114
166320 On ch=6 n=48 v=114
166535 Off ch=6 n=48 v=114
166560 On ch=6 n=50 v=114
166775 Off ch=6 n=50 v=114
166800 On ch=6 n=50 v=115
167649 Pb ch=6 v=7840
167669 Pb ch=6 v=5500
167692 Pb ch=6 v=3043
167713 Pb ch=6 v=586
167735 Pb ch=6 v=0
167735 Off ch=6 n=50 v=115
168000 Pb ch=6 v=8192
173040 On ch=6 n=43 v=114
173255 Off ch=6 n=43 v=114
173280 On ch=6 n=45 v=114
173495 Off ch=6 n=45 v=114
173520 On ch=6 n=48 v=114
173735 Off ch=6 n=48 v=114
173760 On ch=6 n=53 v=114
173975 Off ch=6 n=53 v=114
174000 On ch=6 n=48 v=114
174215 Off ch=6 n=48 v=114
174240 On ch=6 n=50 v=114
174455 Off ch=6 n=50 v=114
174480 On ch=6 n=50 v=115
175329 Pb ch=6 v=7840
175349 Pb ch=6 v=5500
175372 Pb ch=6 v=3043
175393 Pb ch=6 v=586
175415 Pb ch=6 v=0
175415 Off ch=6 n=50 v=115
175680 Pb ch=6 v=8192
180720 On ch=6 n=43 v=114
180935 Off ch=6 n=43 v=114
180960 On ch=6 n=45 v=114
181175 Off ch=6 n=45 v=114
181200 On ch=6 n=48 v=114
181415 Off ch=6 n=48 v=114
181440 On ch=6 n=53 v=114
181655 Off ch=6 n=53 v=114
181680 On ch=6 n=48 v=114
181895 Off ch=6 n=48 v=114
181920 On ch=6 n=50 v=114
182135 Off ch=6 n=50 v=114
182160 On ch=6 n=50 v=115
183009 Pb ch=6 v=7840
183029 Pb ch=6 v=5500
183052 Pb ch=6 v=3043
183073 Pb ch=6 v=586
183095 Pb ch=6 v=0
183095 Off ch=6 n=50 v=115
183360 Pb ch=6 v=8192
193920 KeySig -2 major
201600 On ch=6 n=69 v=107
201600 On ch=6 n=73 v=108
202316 Off ch=6 n=73 v=108
202320 On ch=6 n=71 v=101
202320 On ch=6 n=68 v=101
202321 Off ch=6 n=69 v=107
202539 Off ch=6 n=71 v=101
202539 Off ch=6 n=68 v=101
202797 On ch=6 n=73 v=95
202797 On ch=6 n=69 v=95
203042 Off ch=6 n=73 v=95
203042 Off ch=6 n=69 v=95
203282 On ch=6 n=69 v=100
203282 On ch=6 n=74 v=101
203520 KeySig 0 major
203754 Off ch=6 n=69 v=100
203759 Off ch=6 n=74 v=101
203761 On ch=6 n=73 v=102
203761 On ch=6 n=69 v=102
203968 Off ch=6 n=73 v=102
203968 Off ch=6 n=69 v=102
204231 On ch=6 n=71 v=101
204235 On ch=6 n=68 v=101
204461 Off ch=6 n=71 v=101
204465 Off ch=6 n=68 v=101
204473 On ch=6 n=73 v=98
204473 On ch=6 n=69 v=98
204821 Off ch=6 n=73 v=98
204821 Off ch=6 n=69 v=98
204960 On ch=6 n=69 v=107
204960 On ch=6 n=73 v=108
205676 Off ch=6 n=73 v=108
205680 On ch=6 n=71 v=101
205680 On ch=6 n=68 v=101
205681 Off ch=6 n=69 v=107
205899 Off ch=6 n=71 v=101
205899 Off ch=6 n=68 v=101
206157 On ch=6 n=73 v=95
206157 On ch=6 n=69 v=95
206402 Off ch=6 n=73 v=95
206402 Off ch=6 n=69 v=95
206642 On ch=6 n=69 v=100
206642 On ch=6 n=74 v=101
207114 Off ch=6 n=69 v=100
207119 Off ch=6 n=74 v=101
207121 On ch=6 n=73 v=102
207121 On ch=6 n=69 v=102
207328 Off ch=6 n=73 v=102
207328 Off ch=6 n=69 v=102
207591 On ch=6 n=71 v=101
207595 On ch=6 n=68 v=101
207821 Off ch=6 n=71 v=101
207825 Off ch=6 n=68 v=101
207833 On ch=6 n=73 v=98
207833 On ch=6 n=69 v=98
208181 Off ch=6 n=73 v=98
208181 Off ch=6 n=69 v=98
208320 On ch=6 n=69 v=107
208320 On ch=6 n=73 v=108
209036 Off ch=6 n=73 v=108
209040 On ch=6 n=71 v=101
209040 On ch=6 n=68 v=101
209041 Off ch=6 n=69 v=107
209259 Off ch=6 n=71 v=101
209259 Off ch=6 n=68 v=101
209517 On ch=6 n=73 v=95
209517 On ch=6 n=69 v=95
209762 Off ch=6 n=73 v=95
209762 Off ch=6 n=69 v=95
210002 On ch=6 n=74 v=102
210002 On ch=6 n=69 v=99
210467 Off ch=6 n=69 v=99
210481 Off ch=6 n=74 v=102
210482 On ch=6 n=73 v=94
210482 On ch=6 n=69 v=94
210707 Off ch=6 n=73 v=94
210707 Off ch=6 n=69 v=94
210956 On ch=6 n=71 v=89
210956 On ch=6 n=68 v=89
211197 Off ch=6 n=71 v=89
211197 Off ch=6 n=68 v=89
211197 On ch=6 n=69 v=102
211197 On ch=6 n=74 v=102
211912 Off ch=6 n=69 v=102
211915 Off ch=6 n=74 v=102
211922 On ch=6 n=73 v=94
211922 On ch=6 n=69 v=94
212631 Off ch=6 n=73 v=94
212631 Off ch=6 n=69 v=94
212640 On ch=6 n=68 v=91
212640 On ch=6 n=71 v=86
213358 Off ch=6 n=68 v=91
213358 Off ch=6 n=71 v=86
213360 On ch=6 n=62 v=80
213552 Off ch=6 n=62 v=80
213600 On ch=6 n=64 v=80
213792 Off ch=6 n=64 v=80
213840 On ch=6 n=66 v=80
214032 Off ch=6 n=66 v=80
214080 On ch=6 n=69 v=80
214272 Off ch=6 n=69 v=80
214320 On ch=6 n=74 v=80
214512 Off ch=6 n=74 v=80
214560 On ch=6 n=69 v=107
214560 On ch=6 n=73 v=108
215276 Off ch=6 n=73 v=108
215280 On ch=6 n=71 v=101
215280 On ch=6 n=68 v=101
215281 Off ch=6 n=69 v=107
215499 Off ch=6 n=71 v=101
215499 Off ch=6 n=68 v=101
215757 On ch=6 n=73 v=95
215757 On ch=6 n=69 v=95
216002 Off ch=6 n=73 v=95
216002 Off ch=6 n=69 v=95
216242 On ch=6 n=69 v=100
216242 On ch=6 n=74 v=101
216714 Off ch=6 n=69 v=100
216719 Off ch=6 n=74 v=101
216721 On ch=6 n=73 v=102
216721 On ch=6 n=69 v=102
216928 Off ch=6 n=73 v=102
216928 Off ch=6 n=69 v=102
217191 On ch=6 n=71 v=101
217195 On ch=6 n=68 v=101
217421 Off ch=6 n=71 v=101
217425 Off ch=6 n=68 v=101
217433 On ch=6 n=73 v=98
217433 On ch=6 n=69 v=98
217781 Off ch=6 n=73 v=98
217781 Off ch=6 n=69 v=98
217920 On ch=6 n=69 v=107
217920 On ch=6 n=73 v=108
218636 Off ch=6 n=73 v=108
218640 On ch=6 n=71 v=101
218640 On ch=6 n=68 v=101
218641 Off ch=6 n=69 v=107
218859 Off ch=6 n=71 v=101
218859 Off ch=6 n=68 v=101
219117 On ch=6 n=73 v=95
219117 On ch=6 n=69 v=95
219362 Off ch=6 n=73 v=95
219362 Off ch=6 n=69 v=95
219602 On ch=6 n=69 v=100
219602 On ch=6 n=74 v=101
220074 Off ch=6 n=69 v=100
220079 Off ch=6 n=74 v=101
220081 On ch=6 n=73 v=102
220081 On ch=6 n=69 v=102
220288 Off ch=6 n=73 v=102
220288 Off ch=6 n=69 v=102
220551 On ch=6 n=71 v=101
220555 On ch=6 n=68 v=101
220781 Off ch=6 n=71 v=101
220785 Off ch=6 n=68 v=101
220793 On ch=6 n=73 v=98
220793 On ch=6 n=69 v=98
221141 Off ch=6 n=73 v=98
221141 Off ch=6 n=69 v=98
221280 On ch=6 n=69 v=107
221280 On ch=6 n=73 v=108
221996 Off ch=6 n=73 v=108
222000 On ch=6 n=71 v=101
222000 On ch=6 n=68 v=101
222001 Off ch=6 n=69 v=107
222219 Off ch=6 n=71 v=101
222219 Off ch=6 n=68 v=101
222477 On ch=6 n=73 v=95
222477 On ch=6 n=69 v=95
222722 Off ch=6 n=73 v=95
222722 Off ch=6 n=69 v=95
222962 On ch=6 n=69 v=97
222962 On ch=6 n=74 v=102
223433 Off ch=6 n=69 v=97
223443 On ch=6 n=69 v=86
223444 Off ch=6 n=74 v=102
223445 On ch=6 n=73 v=83
223676 Off ch=6 n=69 v=86
223679 Off ch=6 n=73 v=83
223924 On ch=6 n=71 v=101
223925 On ch=6 n=69 v=102
224110 Off ch=6 n=71 v=101
224112 Off ch=6 n=69 v=102
224160 On ch=6 n=78 v=106
224160 On ch=6 n=74 v=114
224853 Off ch=6 n=74 v=114
224866 Off ch=6 n=78 v=106
224887 On ch=6 n=74 v=108
224896 On ch=6 n=76 v=99
225108 Off ch=6 n=74 v=108
225110 Off ch=6 n=76 v=99
225372 On ch=6 n=78 v=101
225373 On ch=6 n=74 v=110
225587 Off ch=6 n=78 v=101
225594 Off ch=6 n=74 v=110
225840 On ch=6 n=74 v=110
225841 On ch=6 n=79 v=105
226317 Off ch=6 n=79 v=105
226318 Off ch=6 n=74 v=110
226325 On ch=6 n=78 v=107
226327 On ch=6 n=74 v=106
226553 Off ch=6 n=74 v=106
226557 Off ch=6 n=78 v=107
226802 On ch=6 n=76 v=97
226807 On ch=6 n=74 v=112
227032 Off ch=6 n=76 v=97
227035 Off ch=6 n=74 v=112
227042 On ch=6 n=78 v=107
227047 On ch=6 n=74 v=100
227746 Off ch=6 n=74 v=100
227750 Off ch=6 n=78 v=107
227763 On ch=6 n=76 v=92
227764 On ch=6 n=74 v=104
227996 Off ch=6 n=74 v=104
228003 Off ch=6 n=76 v=92
228250 On ch=6 n=78 v=104
228251 On ch=6 n=74 v=102
228470 Off ch=6 n=78 v=104
228492 Off ch=6 n=74 v=102
228721 On ch=6 n=79 v=100
228722 On ch=6 n=74 v=109
229195 Off ch=6 n=74 v=109
229196 Off ch=6 n=79 v=100
229200 On ch=6 n=74 v=100
229203 On ch=6 n=78 v=104
229432 Off ch=6 n=78 v=104
229432 Off ch=6 n=74 v=100
229682 On ch=6 n=74 v=104
229683 On ch=6 n=76 v=104
229892 Off ch=6 n=74 v=104
229894 Off ch=6 n=76 v=104
229922 On ch=6 n=78 v=80
229927 On ch=6 n=74 v=73
230626 Off ch=6 n=74 v=73
230630 Off ch=6 n=78 v=80
230643 On ch=6 n=76 v=65
230644 On ch=6 n=74 v=77
230876 Off ch=6 n=74 v=77
230883 Off ch=6 n=76 v=65
231130 On ch=6 n=78 v=77
231131 On ch=6 n=74 v=75
231350 Off ch=6 n=78 v=77
231372 Off ch=6 n=74 v=75
231601 On ch=6 n=79 v=73
231602 On ch=6 n=74 v=82
232075 Off ch=6 n=74 v=82
232076 Off ch=6 n=79 v=73
232080 On ch=6 n=74 v=73
232083 On ch=6 n=78 v=77
232312 Off ch=6 n=78 v=77
232312 Off ch=6 n=74 v=73
232562 On ch=6 n=74 v=77
232563 On ch=6 n=76 v=77
232772 Off ch=6 n=74 v=77
232774 Off ch=6 n=76 v=77
233040 On ch=6 n=50 v=80
233232 Off ch=6 n=50 v=80
233280 On ch=6 n=55 v=80
233472 Off ch=6 n=55 v=80
233520 On ch=6 n=47 v=80
233712 Off ch=6 n=47 v=80
233760 On ch=6 n=54 v=80
233952 Off ch=6 n=54 v=80
234000 On ch=6 n=59 v=80
234192 Off ch=6 n=59 v=80
234240 On ch=6 n=45 v=80
234432 Off ch=6 n=45 v=80
234480 On ch=6 n=52 v=80
234672 Off ch=6 n=52 v=80
234720 On ch=6 n=57 v=80
234912 Off ch=6 n=57 v=80
234960 On ch=6 n=59 v=80
235152 Off ch=6 n=59 v=80
235200 On ch=6 n=66 v=80
235392 Off ch=6 n=66 v=80
235440 On ch=6 n=71 v=80
235632 Off ch=6 n=71 v=80
235680 On ch=6 n=57 v=80
235872 Off ch=6 n=57 v=80
235920 On ch=6 n=64 v=80
236112 Off ch=6 n=64 v=80
236160 On ch=6 n=69 v=80
236352 Off ch=6 n=69 v=80
236400 On ch=6 n=59 v=80
236592 Off ch=6 n=59 v=80
236640 On ch=6 n=66 v=80
236832 Off ch=6 n=66 v=80
236880 On ch=6 n=71 v=80
237072 Off ch=6 n=71 v=80
237120 On ch=6 n=69 v=82
237458 Off ch=6 n=69 v=82
294720 On ch=6 n=69 v=107
294720 On ch=6 n=73 v=108
295436 Off ch=6 n=73 v=108
295440 On ch=6 n=71 v=101
295440 On ch=6 n=68 v=101
295441 Off ch=6 n=69 v=107
295659 Off ch=6 n=71 v=101
295659 Off ch=6 n=68 v=101
295917 On ch=6 n=73 v=95
295917 On ch=6 n=69 v=95
296162 Off ch=6 n=73 v=95
296162 Off ch=6 n=69 v=95
296402 On ch=6 n=69 v=100
296402 On ch=6 n=74 v=101
296874 Off ch=6 n=69 v=100
296879 Off ch=6 n=74 v=101
296881 On ch=6 n=73 v=102
296881 On ch=6 n=69 v=102
297088 Off ch=6 n=73 v=102
297088 Off ch=6 n=69 v=102
297351 On ch=6 n=71 v=101
297355 On ch=6 n=68 v=101
297581 Off ch=6 n=71 v=101
297585 Off ch=6 n=68 v=101
297593 On ch=6 n=73 v=98
297593 On ch=6 n=69 v=98
297941 Off ch=6 n=73 v=98
297941 Off ch=6 n=69 v=98
298080 On ch=6 n=69 v=107
298080 On ch=6 n=73 v=108
298796 Off ch=6 n=73 v=108
298800 On ch=6 n=71 v=101
298800 On ch=6 n=68 v=101
298801 Off ch=6 n=69 v=107
299019 Off ch=6 n=71 v=101
299019 Off ch=6 n=68 v=101
299277 On ch=6 n=73 v=95
299277 On ch=6 n=69 v=95
299522 Off ch=6 n=73 v=95
299522 Off ch=6 n=69 v=95
299762 On ch=6 n=69 v=100
299762 On ch=6 n=74 v=101
300234 Off ch=6 n=69 v=100
300239 Off ch=6 n=74 v=101
300241 On ch=6 n=73 v=102
300241 On ch=6 n=69 v=102
300448 Off ch=6 n=73 v=102
300448 Off ch=6 n=69 v=102
300711 On ch=6 n=71 v=101
300715 On ch=6 n=68 v=101
300941 Off ch=6 n=71 v=101
300945 Off ch=6 n=68 v=101
300953 On ch=6 n=73 v=98
300953 On ch=6 n=69 v=98
301301 Off ch=6 n=73 v=98
301301 Off ch=6 n=69 v=98
301440 On ch=6 n=69 v=107
301440 On ch=6 n=73 v=108
302156 Off ch=6 n=73 v=108
302160 On ch=6 n=71 v=101
302160 On ch=6 n=68 v=101
302161 Off ch=6 n=69 v=107
302379 Off ch=6 n=71 v=101
302379 Off ch=6 n=68 v=101
302637 On ch=6 n=73 v=95
302637 On ch=6 n=69 v=95
302882 Off ch=6 n=73 v=95
302882 Off ch=6 n=69 v=95
303122 On ch=6 n=74 v=102
303122 On ch=6 n=69 v=99
303587 Off ch=6 n=69 v=99
303601 Off ch=6 n=74 v=102
303602 On ch=6 n=73 v=94
303602 On ch=6 n=69 v=94
303827 Off ch=6 n=73 v=94
303827 Off ch=6 n=69 v=94
304076 On ch=6 n=71 v=89
304076 On ch=6 n=68 v=89
304317 Off ch=6 n=71 v=89
304317 Off ch=6 n=68 v=89
304317 On ch=6 n=69 v=102
304317 On ch=6 n=74 v=102
305032 Off ch=6 n=69 v=102
305035 Off ch=6 n=74 v=102
305042 On ch=6 n=73 v=94
305042 On ch=6 n=69 v=94
305751 Off ch=6 n=73 v=94
305751 Off ch=6 n=69 v=94
305760 On ch=6 n=59 v=114
305760 On ch=6 n=52 v=114
306575 Off ch=6 n=59 v=114
306575 Off ch=6 n=52 v=114
306720 On ch=6 n=50 v=114
306886 Off ch=6 n=50 v=114
306959 On ch=6 n=50 v=113
307125 Off ch=6 n=50 v=113
307201 On ch=6 n=50 v=116
307359 Off ch=6 n=50 v=116
307440 On ch=6 n=44 v=68
307658 Off ch=6 n=44 v=68
307681 On ch=6 n=45 v=117
307957 Pb ch=6 v=7723
307977 Pb ch=6 v=6436
307997 Pb ch=6 v=4798
308018 Pb ch=6 v=2926
308029 Off ch=6 n=45 v=117
308038 Pb ch=6 v=1288
308059 Pb ch=6 v=0
308400 Pb ch=6 v=8192
309360 On ch=6 n=45 v=114
309580 Off ch=6 n=45 v=114
309600 On ch=6 n=49 v=114
309820 Off ch=6 n=49 v=114
309840 On ch=6 n=47 v=114
310060 Off ch=6 n=47 v=114
310080 On ch=6 n=50 v=114
310300 Off ch=6 n=50 v=114
310320 On ch=6 n=49 v=114
310540 Off ch=6 n=49 v=114
310560 On ch=6 n=52 v=114
310780 Off ch=6 n=52 v=114
310800 On ch=6 n=49 v=114
311018 Off ch=6 n=49 v=114
311040 On ch=6 n=54 v=114
311317 Pb ch=6 v=7723
311337 Pb ch=6 v=6436
311357 Pb ch=6 v=4798
311378 Pb ch=6 v=2926
311389 Off ch=6 n=54 v=114
311398 Pb ch=6 v=1288
311419 Pb ch=6 v=0
311760 Pb ch=6 v=8192
312720 On ch=6 n=54 v=112
313180 Off ch=6 n=54 v=112
313200 On ch=6 n=49 v=114
313415 Off ch=6 n=49 v=114
313440 On ch=6 n=52 v=114
313655 Off ch=6 n=52 v=114
313680 On ch=6 n=45 v=114
313895 Off ch=6 n=45 v=114
313920 On ch=6 n=50 v=114
314135 Off ch=6 n=50 v=114
314160 On ch=6 n=45 v=114
314375 Off ch=6 n=45 v=114
314640 On ch=6 n=40 v=114
317712 Off ch=6 n=40 v=114
318000 On ch=6 n=40 v=114
318192 Off ch=6 n=40 v=114
318240 On ch=6 n=47 v=114
318432 Off ch=6 n=47 v=114
318480 On ch=6 n=50 v=100
318665 Off ch=6 n=50 v=100
318720 On ch=6 n=57 v=80
318912 Off ch=6 n=57 v=80
318960 On ch=6 n=62 v=80
319152 Off ch=6 n=62 v=80
319200 On ch=6 n=54 v=80
319392 Off ch=6 n=54 v=80
319440 On ch=6 n=61 v=80
319632 Off ch=6 n=61 v=80
319680 On ch=6 n=66 v=80
319872 Off ch=6 n=66 v=80
319920 On ch=6 n=52 v=80
320112 Off ch=6 n=52 v=80
320160 On ch=6 n=59 v=80
320352 Off ch=6 n=59 v=80
320400 On ch=6 n=64 v=80
320592 Off ch=6 n=64 v=80
320640 On ch=6 n=66 v=80
320832 Off ch=6 n=66 v=80
320880 On ch=6 n=73 v=80
321072 Off ch=6 n=73 v=80
321120 On ch=6 n=78 v=80
321312 Off ch=6 n=78 v=80
321360 On ch=6 n=64 v=80
321552 Off ch=6 n=64 v=80
321600 On ch=6 n=71 v=80
321792 Off ch=6 n=71 v=80
321840 On ch=6 n=76 v=80
322032 Off ch=6 n=76 v=80
322080 On ch=6 n=66 v=80
322272 Off ch=6 n=66 v=80
322320 On ch=6 n=73 v=80
322512 Off ch=6 n=73 v=80
322560 On ch=6 n=78 v=80
322752 Off ch=6 n=78 v=80
322800 On ch=6 n=76 v=80
322992 Off ch=6 n=76 v=80
329040 Meta TrkEnd
TrkEnd
MTrk
0 Meta TrkName "Rabin2"
0 Meta 0x20 06
0 Meta InstrName "Rabin2"
0 KeySig 0 major
490 Par ch=7 c=0 v=0
495 Par ch=7 c=32 v=0
500 PrCh ch=7 p=26
505 Par ch=7 c=7 v=127
510 Par ch=7 c=10 v=64
515 Par ch=7 c=91 v=99
520 Par ch=7 c=93 v=0
525 Par ch=7 c=101 v=0
525 Par ch=7 c=100 v=0
525 Par ch=7 c=6 v=2
530 Par ch=7 c=99 v=1
530 Par ch=7 c=98 v=8
530 Par ch=7 c=6 v=64
535 Par ch=7 c=99 v=1
535 Par ch=7 c=98 v=9
535 Par ch=7 c=6 v=64
540 Par ch=7 c=99 v=1
540 Par ch=7 c=98 v=10
540 Par ch=7 c=6 v=64
545 Par ch=7 c=99 v=1
545 Par ch=7 c=98 v=32
545 Par ch=7 c=6 v=64
550 Par ch=7 c=99 v=1
550 Par ch=7 c=98 v=33
550 Par ch=7 c=6 v=64
555 Par ch=7 c=99 v=1
555 Par ch=7 c=98 v=99
555 Par ch=7 c=6 v=64
560 Par ch=7 c=99 v=1
560 Par ch=7 c=98 v=100
560 Par ch=7 c=6 v=64
565 Par ch=7 c=99 v=1
565 Par ch=7 c=98 v=102
565 Par ch=7 c=6 v=64
24480 KeySig 1 major
26880 KeySig 0 major
40320 KeySig 4 major
52800 KeySig 0 major
144299 On ch=7 n=54 v=103
144461 Off ch=7 n=54 v=103
144482 On ch=7 n=66 v=114
144556 Off ch=7 n=66 v=114
144558 On ch=7 n=64 v=77
144640 On ch=7 n=62 v=105
144652 Off ch=7 n=64 v=77
144740 Off ch=7 n=62 v=105
144745 On ch=7 n=59 v=100
144951 Off ch=7 n=59 v=100
144954 On ch=7 n=57 v=98
145203 On ch=7 n=54 v=87
145208 Off ch=7 n=57 v=98
145440 On ch=7 n=57 v=98
145443 Off ch=7 n=54 v=87
145670 Off ch=7 n=57 v=98
145675 On ch=7 n=54 v=107
145917 Off ch=7 n=54 v=107
145926 On ch=7 n=56 v=113
146164 On ch=7 n=59 v=94
146167 Off ch=7 n=56 v=113
146374 Off ch=7 n=59 v=94
146386 On ch=7 n=64 v=90
146400 On ch=7 n=68 v=97
146600 Off ch=7 n=64 v=90
146610 Off ch=7 n=68 v=97
146648 On ch=7 n=64 v=86
146653 On ch=7 n=68 v=91
147172 Off ch=7 n=64 v=86
147188 Off ch=7 n=68 v=91
147240 On ch=7 n=52 v=97
147358 Off ch=7 n=52 v=97
147360 On ch=7 n=62 v=115
147451 On ch=7 n=60 v=110
147454 Off ch=7 n=62 v=115
147566 On ch=7 n=57 v=104
147568 Off ch=7 n=60 v=110
148617 Off ch=7 n=57 v=104
148800 Pb ch=7 v=1475
148804 On ch=7 n=74 v=72
148806 On ch=7 n=66 v=113
148871 Pb ch=7 v=4751
148936 Pb ch=7 v=8192
149014 Off ch=7 n=74 v=72
149021 Off ch=7 n=66 v=113
149046 On ch=7 n=69 v=97
149052 On ch=7 n=74 v=74
149260 Off ch=7 n=69 v=97
149264 Off ch=7 n=74 v=74
149282 On ch=7 n=74 v=98
149283 On ch=7 n=69 v=85
149502 Off ch=7 n=74 v=98
149510 Off ch=7 n=69 v=85
149532 On ch=7 n=74 v=114
149533 On ch=7 n=69 v=90
149941 Pb ch=7 v=6085
149963 Pb ch=7 v=4096
149983 Pb ch=7 v=2458
150003 Pb ch=7 v=1639
150024 Pb ch=7 v=1054
150066 Pb ch=7 v=820
150087 Pb ch=7 v=352
150108 Pb ch=7 v=1
150130 Pb ch=7 v=0
150143 Off ch=7 n=74 v=114
150148 Pb ch=7 v=235
150149 Off ch=7 n=69 v=90
150240 Pb ch=7 v=8192
152159 On ch=7 n=66 v=117
152268 Off ch=7 n=66 v=117
152285 On ch=7 n=66 v=105
152391 Off ch=7 n=66 v=105
152402 On ch=7 n=67 v=110
152503 Off ch=7 n=67 v=110
152521 On ch=7 n=66 v=109
152627 Off ch=7 n=66 v=109
152642 On ch=7 n=64 v=107
152742 Off ch=7 n=64 v=107
152761 On ch=7 n=64 v=110
152871 Off ch=7 n=64 v=110
152882 On ch=7 n=66 v=109
152989 Off ch=7 n=66 v=109
152999 On ch=7 n=64 v=104
153098 Off ch=7 n=64 v=104
153118 On ch=7 n=62 v=104
153357 Off ch=7 n=62 v=104
153357 On ch=7 n=54 v=109
153600 Off ch=7 n=54 v=109
153604 On ch=7 n=56 v=111
153838 Off ch=7 n=56 v=111
153847 On ch=7 n=59 v=106
154064 Off ch=7 n=59 v=106
154086 On ch=7 n=64 v=106
154305 Off ch=7 n=64 v=106
154319 On ch=7 n=59 v=109
154549 Off ch=7 n=59 v=109
154561 On ch=7 n=64 v=112
154797 Off ch=7 n=64 v=112
154799 On ch=7 n=67 v=106
155040 Off ch=7 n=67 v=106
155043 On ch=7 n=64 v=110
155271 Off ch=7 n=64 v=110
155280 On ch=7 n=60 v=111
155509 Off ch=7 n=60 v=111
155522 On ch=7 n=64 v=108
155758 Off ch=7 n=64 v=108
155759 On ch=7 n=67 v=108
155996 On ch=7 n=72 v=113
155999 Off ch=7 n=67 v=108
156239 On ch=7 n=67 v=110
156247 Off ch=7 n=72 v=113
156463 Off ch=7 n=67 v=110
156485 On ch=7 n=74 v=114
156701 Off ch=7 n=74 v=114
156720 On ch=7 n=67 v=110
156944 Off ch=7 n=67 v=110
156961 On ch=7 n=76 v=110
157175 Off ch=7 n=76 v=110
157196 On ch=7 n=74 v=114
157204 On ch=7 n=67 v=95
157898 Off ch=7 n=74 v=114
157922 Off ch=7 n=67 v=95
158147 Pb ch=7 v=1106
158158 On ch=7 n=77 v=114
158168 Pb ch=7 v=3973
158197 Pb ch=7 v=6758
158224 Pb ch=7 v=8192
158541 Off ch=7 n=77 v=114
158617 Pb ch=7 v=1802
158639 On ch=7 n=79 v=110
158651 Pb ch=7 v=4260
158686 Pb ch=7 v=6349
158724 Pb ch=7 v=8192
159003 Off ch=7 n=79 v=110
159119 On ch=7 n=81 v=117
159510 Pb ch=7 v=6085
159530 Pb ch=7 v=3628
159551 Pb ch=7 v=2107
159572 Pb ch=7 v=1054
159594 Pb ch=7 v=469
159613 Off ch=7 n=81 v=117
159614 Pb ch=7 v=1
159636 Pb ch=7 v=0
159720 Pb ch=7 v=8192
216189 Pb ch=7 v=8074
216211 Pb ch=7 v=7489
216232 Pb ch=7 v=7021
216246 On ch=7 n=76 v=104
216252 Pb ch=7 v=6787
216315 Pb ch=7 v=7021
216336 Pb ch=7 v=7489
216356 Pb ch=7 v=8074
216377 Pb ch=7 v=8192
216718 On ch=7 n=73 v=90
216721 Off ch=7 n=76 v=104
216841 Off ch=7 n=73 v=90
216841 On ch=7 n=71 v=110
216952 Off ch=7 n=71 v=110
216957 On ch=7 n=69 v=102
217202 On ch=7 n=71 v=74
217205 Off ch=7 n=69 v=102
217434 Off ch=7 n=71 v=74
217440 On ch=7 n=69 v=102
217659 Off ch=7 n=69 v=102
217680 On ch=7 n=71 v=91
217917 Off ch=7 n=71 v=91
217923 On ch=7 n=72 v=66
218159 Off ch=7 n=72 v=66
218161 On ch=7 n=73 v=87
219366 Off ch=7 n=73 v=87
264000 KeySig -4 major
294720 KeySig 0 major
329040 Meta TrkEnd
TrkEnd
MTrk
0 Meta TrkName "Rabin3"
0 Meta 0x20 07
0 Meta InstrName "Rabin3"
0 KeySig 0 major
570 Par ch=8 c=0 v=0
575 Par ch=8 c=32 v=0
580 PrCh ch=8 p=28
585 Par ch=8 c=7 v=100
590 Par ch=8 c=10 v=64
595 Par ch=8 c=91 v=95
600 Par ch=8 c=93 v=0
605 Par ch=8 c=101 v=0
605 Par ch=8 c=100 v=0
605 Par ch=8 c=6 v=2
610 Par ch=8 c=99 v=1
610 Par ch=8 c=98 v=8
610 Par ch=8 c=6 v=64
615 Par ch=8 c=99 v=1
615 Par ch=8 c=98 v=9
615 Par ch=8 c=6 v=64
620 Par ch=8 c=99 v=1
620 Par ch=8 c=98 v=10
620 Par ch=8 c=6 v=64
625 Par ch=8 c=99 v=1
625 Par ch=8 c=98 v=32
625 Par ch=8 c=6 v=64
630 Par ch=8 c=99 v=1
630 Par ch=8 c=98 v=33
630 Par ch=8 c=6 v=64
635 Par ch=8 c=99 v=1
635 Par ch=8 c=98 v=99
635 Par ch=8 c=6 v=64
640 Par ch=8 c=99 v=1
640 Par ch=8 c=98 v=100
640 Par ch=8 c=6 v=64
645 Par ch=8 c=99 v=1
645 Par ch=8 c=98 v=102
645 Par ch=8 c=6 v=64
115204 On ch=8 n=57 v=92
115368 Off ch=8 n=57 v=92
115445 On ch=8 n=62 v=88
115600 Off ch=8 n=62 v=88
115687 On ch=8 n=66 v=63
115859 Off ch=8 n=66 v=63
115921 On ch=8 n=69 v=80
116099 Off ch=8 n=69 v=80
116156 On ch=8 n=67 v=76
116322 Off ch=8 n=67 v=76
116400 On ch=8 n=66 v=87
116572 Off ch=8 n=66 v=87
116640 On ch=8 n=64 v=77
116795 Off ch=8 n=64 v=77
116872 On ch=8 n=62 v=78
117039 Off ch=8 n=62 v=78
117124 On ch=8 n=57 v=92
117288 Off ch=8 n=57 v=92
117365 On ch=8 n=62 v=88
117520 Off ch=8 n=62 v=88
117607 On ch=8 n=66 v=63
117779 Off ch=8 n=66 v=63
117841 On ch=8 n=69 v=80
118019 Off ch=8 n=69 v=80
118076 On ch=8 n=67 v=76
118242 Off ch=8 n=67 v=76
118320 On ch=8 n=66 v=87
118492 Off ch=8 n=66 v=87
118560 On ch=8 n=64 v=77
118715 Off ch=8 n=64 v=77
118792 On ch=8 n=62 v=78
118959 Off ch=8 n=62 v=78
119044 On ch=8 n=57 v=92
119208 Off ch=8 n=57 v=92
119285 On ch=8 n=62 v=88
119440 Off ch=8 n=62 v=88
119527 On ch=8 n=66 v=63
119699 Off ch=8 n=66 v=63
119761 On ch=8 n=69 v=80
119939 Off ch=8 n=69 v=80
120001 On ch=8 n=74 v=76
120167 Off ch=8 n=74 v=76
120240 On ch=8 n=71 v=87
120412 Off ch=8 n=71 v=87
120480 On ch=8 n=67 v=77
120635 Off ch=8 n=67 v=77
120712 On ch=8 n=62 v=78
120879 Off ch=8 n=62 v=78
120964 On ch=8 n=60 v=92
121128 Off ch=8 n=60 v=92
121200 On ch=8 n=67 v=88
121355 Off ch=8 n=67 v=88
121447 On ch=8 n=64 v=63
121619 Off ch=8 n=64 v=63
121681 On ch=8 n=60 v=80
121859 Off ch=8 n=60 v=80
121916 On ch=8 n=67 v=76
122082 Off ch=8 n=67 v=76
122160 On ch=8 n=64 v=87
122332 Off ch=8 n=64 v=87
122400 On ch=8 n=60 v=77
122555 Off ch=8 n=60 v=77
122632 On ch=8 n=55 v=78
122799 Off ch=8 n=55 v=78
122884 On ch=8 n=57 v=92
123048 Off ch=8 n=57 v=92
123125 On ch=8 n=62 v=88
123280 Off ch=8 n=62 v=88
123367 On ch=8 n=66 v=63
123539 Off ch=8 n=66 v=63
123601 On ch=8 n=69 v=80
123779 Off ch=8 n=69 v=80
123836 On ch=8 n=67 v=76
124002 Off ch=8 n=67 v=76
124080 On ch=8 n=66 v=87
124252 Off ch=8 n=66 v=87
124320 On ch=8 n=64 v=77
124475 Off ch=8 n=64 v=77
124552 On ch=8 n=62 v=78
124719 Off ch=8 n=62 v=78
124804 On ch=8 n=57 v=92
124968 Off ch=8 n=57 v=92
125045 On ch=8 n=62 v=88
125200 Off ch=8 n=62 v=88
125287 On ch=8 n=66 v=63
125459 Off ch=8 n=66 v=63
125521 On ch=8 n=69 v=80
125699 Off ch=8 n=69 v=80
125756 On ch=8 n=67 v=76
125922 Off ch=8 n=67 v=76
126000 On ch=8 n=66 v=87
126172 Off ch=8 n=66 v=87
126240 On ch=8 n=64 v=77
126395 Off ch=8 n=64 v=77
126472 On ch=8 n=62 v=78
126639 Off ch=8 n=62 v=78
126729 On ch=8 n=62 v=92
126893 Off ch=8 n=62 v=92
126965 On ch=8 n=64 v=88
127120 Off ch=8 n=64 v=88
127207 On ch=8 n=66 v=63
127379 Off ch=8 n=66 v=63
127441 On ch=8 n=67 v=80
127619 Off ch=8 n=67 v=80
127676 On ch=8 n=74 v=76
127842 Off ch=8 n=74 v=76
127920 On ch=8 n=69 v=87
128092 Off ch=8 n=69 v=87
128160 On ch=8 n=67 v=77
128315 Off ch=8 n=67 v=77
128387 On ch=8 n=60 v=78
128554 Off ch=8 n=60 v=78
128644 On ch=8 n=59 v=92
128808 Off ch=8 n=59 v=92
128885 On ch=8 n=62 v=88
129040 Off ch=8 n=62 v=88
129127 On ch=8 n=69 v=63
129299 Off ch=8 n=69 v=63
129361 On ch=8 n=62 v=80
129539 Off ch=8 n=62 v=80
129596 On ch=8 n=67 v=76
129762 Off ch=8 n=67 v=76
129840 On ch=8 n=66 v=68
129898 Off ch=8 n=66 v=68
129900 On ch=8 n=67 v=80
129958 Off ch=8 n=67 v=80
129961 On ch=8 n=66 v=87
130073 Off ch=8 n=66 v=87
130075 On ch=8 n=64 v=77
130230 Off ch=8 n=64 v=77
130312 On ch=8 n=62 v=78
130479 Off ch=8 n=62 v=78
130564 On ch=8 n=57 v=92
130728 Off ch=8 n=57 v=92
130805 On ch=8 n=62 v=88
130960 Off ch=8 n=62 v=88
131047 On ch=8 n=66 v=63
131219 Off ch=8 n=66 v=63
131281 On ch=8 n=69 v=80
131459 Off ch=8 n=69 v=80
131516 On ch=8 n=67 v=76
131682 Off ch=8 n=67 v=76
131760 On ch=8 n=66 v=87
131932 Off ch=8 n=66 v=87
132000 On ch=8 n=64 v=77
132155 Off ch=8 n=64 v=77
132232 On ch=8 n=62 v=78
132399 Off ch=8 n=62 v=78
132484 On ch=8 n=57 v=92
132648 Off ch=8 n=57 v=92
132725 On ch=8 n=62 v=88
132880 Off ch=8 n=62 v=88
132967 On ch=8 n=66 v=63
133139 Off ch=8 n=66 v=63
133201 On ch=8 n=69 v=80
133379 Off ch=8 n=69 v=80
133436 On ch=8 n=67 v=76
133602 Off ch=8 n=67 v=76
133680 On ch=8 n=66 v=68
133738 Off ch=8 n=66 v=68
133740 On ch=8 n=67 v=80
133798 Off ch=8 n=67 v=80
133801 On ch=8 n=66 v=87
133913 Off ch=8 n=66 v=87
133920 On ch=8 n=64 v=77
134075 Off ch=8 n=64 v=77
134152 On ch=8 n=62 v=78
134319 Off ch=8 n=62 v=78
134404 On ch=8 n=57 v=92
134568 Off ch=8 n=57 v=92
134645 On ch=8 n=62 v=88
134800 Off ch=8 n=62 v=88
134887 On ch=8 n=66 v=63
135059 Off ch=8 n=66 v=63
135121 On ch=8 n=69 v=80
135299 Off ch=8 n=69 v=80
135361 On ch=8 n=66 v=76
135527 Off ch=8 n=66 v=76
135600 On ch=8 n=69 v=87
135772 Off ch=8 n=69 v=87
135840 On ch=8 n=69 v=77
135995 Off ch=8 n=69 v=77
136072 On ch=8 n=66 v=78
136239 Off ch=8 n=66 v=78
136324 On ch=8 n=57 v=92
136488 Off ch=8 n=57 v=92
136565 On ch=8 n=62 v=88
136720 Off ch=8 n=62 v=88
136807 On ch=8 n=66 v=63
136979 Off ch=8 n=66 v=63
137041 On ch=8 n=69 v=80
137219 Off ch=8 n=69 v=80
137276 On ch=8 n=67 v=76
137442 Off ch=8 n=67 v=76
137520 On ch=8 n=64 v=87
137692 Off ch=8 n=64 v=87
137760 On ch=8 n=60 v=77
137915 Off ch=8 n=60 v=77
137992 On ch=8 n=55 v=78
138159 Off ch=8 n=55 v=78
138240 On ch=8 n=52 v=105
138446 Off ch=8 n=52 v=105
138482 On ch=8 n=54 v=107
138698 Off ch=8 n=54 v=107
138724 On ch=8 n=55 v=100
138940 Off ch=8 n=55 v=100
138965 On ch=8 n=57 v=108
139118 Off ch=8 n=57 v=108
139204 On ch=8 n=54 v=127
139419 Off ch=8 n=54 v=127
139444 On ch=8 n=55 v=98
139632 Off ch=8 n=55 v=98
139684 On ch=8 n=57 v=112
139892 Off ch=8 n=57 v=112
139924 On ch=8 n=59 v=125
140100 Off ch=8 n=59 v=125
140163 On ch=8 n=59 v=118
142167 Off ch=8 n=59 v=118
239044 On ch=8 n=57 v=92
239208 Off ch=8 n=57 v=92
239285 On ch=8 n=62 v=88
239440 Off ch=8 n=62 v=88
239527 On ch=8 n=66 v=63
239699 Off ch=8 n=66 v=63
239761 On ch=8 n=69 v=80
239939 Off ch=8 n=69 v=80
239996 On ch=8 n=67 v=76
240162 Off ch=8 n=67 v=76
240240 On ch=8 n=66 v=87
240412 Off ch=8 n=66 v=87
240480 On ch=8 n=64 v=77
240635 Off ch=8 n=64 v=77
240712 On ch=8 n=62 v=78
240879 Off ch=8 n=62 v=78
240964 On ch=8 n=57 v=92
241128 Off ch=8 n=57 v=92
241205 On ch=8 n=62 v=88
241360 Off ch=8 n=62 v=88
241447 On ch=8 n=66 v=63
241619 Off ch=8 n=66 v=63
241681 On ch=8 n=69 v=80
241859 Off ch=8 n=69 v=80
241916 On ch=8 n=67 v=76
242082 Off ch=8 n=67 v=76
242160 On ch=8 n=66 v=87
242332 Off ch=8 n=66 v=87
242400 On ch=8 n=64 v=77
242555 Off ch=8 n=64 v=77
242632 On ch=8 n=62 v=78
242799 Off ch=8 n=62 v=78
242884 On ch=8 n=57 v=92
243048 Off ch=8 n=57 v=92
243125 On ch=8 n=62 v=88
243280 Off ch=8 n=62 v=88
243367 On ch=8 n=66 v=63
243539 Off ch=8 n=66 v=63
243601 On ch=8 n=69 v=80
243779 Off ch=8 n=69 v=80
243841 On ch=8 n=74 v=76
244007 Off ch=8 n=74 v=76
244080 On ch=8 n=71 v=87
244252 Off ch=8 n=71 v=87
244320 On ch=8 n=67 v=77
244475 Off ch=8 n=67 v=77
244552 On ch=8 n=62 v=78
244719 Off ch=8 n=62 v=78
244804 On ch=8 n=60 v=92
244968 Off ch=8 n=60 v=92
245040 On ch=8 n=67 v=88
245195 Off ch=8 n=67 v=88
245287 On ch=8 n=64 v=63
245459 Off ch=8 n=64 v=63
245521 On ch=8 n=60 v=80
245699 Off ch=8 n=60 v=80
245756 On ch=8 n=67 v=76
245922 Off ch=8 n=67 v=76
246000 On ch=8 n=64 v=87
246172 Off ch=8 n=64 v=87
246240 On ch=8 n=60 v=77
246395 Off ch=8 n=60 v=77
246472 On ch=8 n=55 v=78
246639 Off ch=8 n=55 v=78
246724 On ch=8 n=57 v=92
246888 Off ch=8 n=57 v=92
246965 On ch=8 n=62 v=88
247120 Off ch=8 n=62 v=88
247207 On ch=8 n=66 v=63
247379 Off ch=8 n=66 v=63
247441 On ch=8 n=69 v=80
247619 Off ch=8 n=69 v=80
247676 On ch=8 n=67 v=76
247842 Off ch=8 n=67 v=76
247920 On ch=8 n=66 v=87
248092 Off ch=8 n=66 v=87
248160 On ch=8 n=64 v=77
248315 Off ch=8 n=64 v=77
248392 On ch=8 n=62 v=78
248559 Off ch=8 n=62 v=78
248644 On ch=8 n=57 v=92
248808 Off ch=8 n=57 v=92
248885 On ch=8 n=62 v=88
249040 Off ch=8 n=62 v=88
249127 On ch=8 n=66 v=63
249299 Off ch=8 n=66 v=63
249361 On ch=8 n=69 v=80
249539 Off ch=8 n=69 v=80
249596 On ch=8 n=67 v=76
249762 Off ch=8 n=67 v=76
249840 On ch=8 n=66 v=87
250012 Off ch=8 n=66 v=87
250080 On ch=8 n=64 v=77
250235 Off ch=8 n=64 v=77
250312 On ch=8 n=62 v=78
250479 Off ch=8 n=62 v=78
250569 On ch=8 n=62 v=92
250733 Off ch=8 n=62 v=92
250805 On ch=8 n=64 v=88
250960 Off ch=8 n=64 v=88
251047 On ch=8 n=66 v=63
251219 Off ch=8 n=66 v=63
251281 On ch=8 n=67 v=80
251459 Off ch=8 n=67 v=80
251516 On ch=8 n=74 v=76
251682 Off ch=8 n=74 v=76
251760 On ch=8 n=69 v=87
251932 Off ch=8 n=69 v=87
252000 On ch=8 n=67 v=77
252155 Off ch=8 n=67 v=77
252227 On ch=8 n=60 v=78
252394 Off ch=8 n=60 v=78
252484 On ch=8 n=59 v=92
252648 Off ch=8 n=59 v=92
252725 On ch=8 n=62 v=88
252880 Off ch=8 n=62 v=88
252967 On ch=8 n=69 v=63
253139 Off ch=8 n=69 v=63
253201 On ch=8 n=62 v=80
253379 Off ch=8 n=62 v=80
253436 On ch=8 n=67 v=76
253602 Off ch=8 n=67 v=76
253680 On ch=8 n=66 v=68
253738 Off ch=8 n=66 v=68
253740 On ch=8 n=67 v=80
253798 Off ch=8 n=67 v=80
253801 On ch=8 n=66 v=87
253913 Off ch=8 n=66 v=87
253915 On ch=8 n=64 v=77
254070 Off ch=8 n=64 v=77
254152 On ch=8 n=62 v=78
254319 Off ch=8 n=62 v=78
254404 On ch=8 n=57 v=92
254568 Off ch=8 n=57 v=92
254645 On ch=8 n=62 v=88
254800 Off ch=8 n=62 v=88
254887 On ch=8 n=66 v=63
255059 Off ch=8 n=66 v=63
255121 On ch=8 n=69 v=80
255299 Off ch=8 n=69 v=80
255356 On ch=8 n=67 v=76
255522 Off ch=8 n=67 v=76
255600 On ch=8 n=66 v=87
255772 Off ch=8 n=66 v=87
255840 On ch=8 n=64 v=77
255995 Off ch=8 n=64 v=77
256072 On ch=8 n=62 v=78
256239 Off ch=8 n=62 v=78
256324 On ch=8 n=57 v=92
256488 Off ch=8 n=57 v=92
256565 On ch=8 n=62 v=88
256720 Off ch=8 n=62 v=88
256807 On ch=8 n=66 v=63
256979 Off ch=8 n=66 v=63
257041 On ch=8 n=69 v=80
257219 Off ch=8 n=69 v=80
257276 On ch=8 n=67 v=76
257442 Off ch=8 n=67 v=76
257520 On ch=8 n=66 v=68
257578 Off ch=8 n=66 v=68
257580 On ch=8 n=67 v=80
257638 Off ch=8 n=67 v=80
257641 On ch=8 n=66 v=87
257753 Off ch=8 n=66 v=87
257760 On ch=8 n=64 v=77
257915 Off ch=8 n=64 v=77
257992 On ch=8 n=62 v=78
258159 Off ch=8 n=62 v=78
258244 On ch=8 n=57 v=92
258408 Off ch=8 n=57 v=92
258485 On ch=8 n=62 v=88
258640 Off ch=8 n=62 v=88
258727 On ch=8 n=66 v=63
258899 Off ch=8 n=66 v=63
258961 On ch=8 n=69 v=80
259139 Off ch=8 n=69 v=80
259201 On ch=8 n=66 v=76
259367 Off ch=8 n=66 v=76
259440 On ch=8 n=69 v=87
259612 Off ch=8 n=69 v=87
259680 On ch=8 n=69 v=77
259835 Off ch=8 n=69 v=77
259912 On ch=8 n=66 v=78
260079 Off ch=8 n=66 v=78
260164 On ch=8 n=57 v=92
260328 Off ch=8 n=57 v=92
260405 On ch=8 n=62 v=88
260560 Off ch=8 n=62 v=88
260647 On ch=8 n=66 v=63
260819 Off ch=8 n=66 v=63
260881 On ch=8 n=69 v=80
261059 Off ch=8 n=69 v=80
261116 On ch=8 n=67 v=76
261282 Off ch=8 n=67 v=76
261360 On ch=8 n=64 v=87
261532 Off ch=8 n=64 v=87
261600 On ch=8 n=60 v=77
261755 Off ch=8 n=60 v=77
261832 On ch=8 n=55 v=78
261999 Off ch=8 n=55 v=78
262080 On ch=8 n=52 v=105
262286 Off ch=8 n=52 v=105
262322 On ch=8 n=54 v=107
262538 Off ch=8 n=54 v=107
262564 On ch=8 n=55 v=100
262780 Off ch=8 n=55 v=100
262805 On ch=8 n=57 v=108
262958 Off ch=8 n=57 v=108
263044 On ch=8 n=54 v=127
263259 Off ch=8 n=54 v=127
263284 On ch=8 n=55 v=98
263472 Off ch=8 n=55 v=98
263524 On ch=8 n=57 v=112
263732 Off ch=8 n=57 v=112
263764 On ch=8 n=59 v=125
263940 Off ch=8 n=59 v=125
329040 Meta TrkEnd
TrkEnd
MTrk
0 Meta TrkName "Kaye3"
0 Meta 0x20 08
0 Meta InstrName "Kaye3"
0 KeySig 0 major
650 Par ch=9 c=0 v=0
655 Par ch=9 c=32 v=0
660 PrCh ch=9 p=96
665 Par ch=9 c=7 v=100
670 Par ch=9 c=10 v=64
675 Par ch=9 c=91 v=40
680 Par ch=9 c=93 v=0
685 Par ch=9 c=101 v=0
685 Par ch=9 c=100 v=0
685 Par ch=9 c=6 v=2
690 Par ch=9 c=99 v=1
690 Par ch=9 c=98 v=8
690 Par ch=9 c=6 v=64
695 Par ch=9 c=99 v=1
695 Par ch=9 c=98 v=9
695 Par ch=9 c=6 v=64
700 Par ch=9 c=99 v=1
700 Par ch=9 c=98 v=10
700 Par ch=9 c=6 v=64
705 Par ch=9 c=99 v=1
705 Par ch=9 c=98 v=32
705 Par ch=9 c=6 v=64
710 Par ch=9 c=99 v=1
710 Par ch=9 c=98 v=33
710 Par ch=9 c=6 v=64
715 Par ch=9 c=99 v=1
715 Par ch=9 c=98 v=99
715 Par ch=9 c=6 v=64
720 Par ch=9 c=99 v=1
720 Par ch=9 c=98 v=100
720 Par ch=9 c=6 v=64
725 Par ch=9 c=99 v=1
725 Par ch=9 c=98 v=102
725 Par ch=9 c=6 v=64
95880 Par ch=9 c=7 v=64
96000 On ch=9 n=48 v=86
96078 Off ch=9 n=48 v=86
96080 On ch=9 n=50 v=97
96158 Off ch=9 n=50 v=97
96160 On ch=9 n=52 v=91
96238 Off ch=9 n=52 v=91
96240 On ch=9 n=53 v=98
96318 Off ch=9 n=53 v=98
96320 On ch=9 n=55 v=70
96398 Off ch=9 n=55 v=70
96400 On ch=9 n=57 v=92
96478 Off ch=9 n=57 v=92
96480 On ch=9 n=59 v=81
96558 Off ch=9 n=59 v=81
96560 On ch=9 n=60 v=91
96638 Off ch=9 n=60 v=91
96640 On ch=9 n=62 v=87
96718 Off ch=9 n=62 v=87
96720 On ch=9 n=64 v=88
96798 Off ch=9 n=64 v=88
96800 On ch=9 n=65 v=84
96878 Off ch=9 n=65 v=84
96880 On ch=9 n=67 v=83
96958 Off ch=9 n=67 v=83
96960 On ch=9 n=69 v=83
97038 Off ch=9 n=69 v=83
97040 On ch=9 n=71 v=90
97118 Off ch=9 n=71 v=90
97120 On ch=9 n=72 v=81
97198 Off ch=9 n=72 v=81
97200 On ch=9 n=74 v=91
97278 Off ch=9 n=74 v=91
97280 On ch=9 n=76 v=87
97358 Off ch=9 n=76 v=87
97360 On ch=9 n=77 v=98
97438 Off ch=9 n=77 v=98
97440 On ch=9 n=79 v=90
97518 Off ch=9 n=79 v=90
97520 On ch=9 n=81 v=95
97598 Off ch=9 n=81 v=95
97600 On ch=9 n=83 v=87
97678 Off ch=9 n=83 v=87
97680 On ch=9 n=84 v=97
97758 Off ch=9 n=84 v=97
97760 On ch=9 n=86 v=90
97838 Off ch=9 n=86 v=90
97840 On ch=9 n=88 v=92
97918 Off ch=9 n=88 v=92
97920 On ch=9 n=48 v=46
97920 On ch=9 n=89 v=84
97998 Off ch=9 n=48 v=46
97998 Off ch=9 n=89 v=84
98000 On ch=9 n=50 v=57
98000 On ch=9 n=91 v=81
98078 Off ch=9 n=50 v=57
98078 Off ch=9 n=91 v=81
98080 On ch=9 n=52 v=51
98080 On ch=9 n=93 v=80
98158 Off ch=9 n=52 v=51
98158 Off ch=9 n=93 v=80
98160 On ch=9 n=53 v=68
98160 On ch=9 n=95 v=74
98238 Off ch=9 n=53 v=68
98238 Off ch=9 n=95 v=74
98240 On ch=9 n=55 v=40
98240 On ch=9 n=96 v=83
98318 Off ch=9 n=55 v=40
98318 Off ch=9 n=96 v=83
98320 On ch=9 n=57 v=62
98320 On ch=9 n=98 v=90
98398 Off ch=9 n=57 v=62
98398 Off ch=9 n=98 v=90
98400 On ch=9 n=59 v=61
98400 On ch=9 n=96 v=83
98478 Off ch=9 n=59 v=61
98478 Off ch=9 n=96 v=83
98480 On ch=9 n=60 v=71
98480 On ch=9 n=95 v=80
98558 Off ch=9 n=60 v=71
98558 Off ch=9 n=95 v=80
98560 On ch=9 n=62 v=67
98560 On ch=9 n=93 v=83
98638 Off ch=9 n=62 v=67
98638 Off ch=9 n=93 v=83
98640 On ch=9 n=64 v=78
98640 On ch=9 n=91 v=81
98718 Off ch=9 n=64 v=78
98718 Off ch=9 n=91 v=81
98720 On ch=9 n=65 v=74
98720 On ch=9 n=89 v=76
98798 Off ch=9 n=65 v=74
98798 Off ch=9 n=89 v=76
98800 On ch=9 n=67 v=73
98800 On ch=9 n=88 v=81
98878 Off ch=9 n=67 v=73
98878 Off ch=9 n=88 v=81
98880 On ch=9 n=69 v=78
98880 On ch=9 n=86 v=90
98958 Off ch=9 n=69 v=78
98958 Off ch=9 n=86 v=90
98960 On ch=9 n=71 v=85
98960 On ch=9 n=84 v=95
99038 Off ch=9 n=71 v=85
99038 Off ch=9 n=84 v=95
99040 On ch=9 n=72 v=76
99040 On ch=9 n=83 v=88
99118 Off ch=9 n=72 v=76
99118 Off ch=9 n=83 v=88
99120 On ch=9 n=74 v=91
99120 On ch=9 n=81 v=88
99198 Off ch=9 n=74 v=91
99198 Off ch=9 n=81 v=88
99200 On ch=9 n=76 v=87
99200 On ch=9 n=79 v=84
99278 Off ch=9 n=76 v=87
99278 Off ch=9 n=79 v=84
99280 On ch=9 n=77 v=86
99358 Off ch=9 n=77 v=86
99360 On ch=9 n=79 v=90
99360 On ch=9 n=76 v=81
99438 Off ch=9 n=79 v=90
99438 Off ch=9 n=76 v=81
99440 On ch=9 n=81 v=95
99440 On ch=9 n=74 v=94
99518 Off ch=9 n=81 v=95
99518 Off ch=9 n=74 v=94
99520 On ch=9 n=83 v=87
99520 On ch=9 n=72 v=91
99598 Off ch=9 n=83 v=87
99598 Off ch=9 n=72 v=91
99600 On ch=9 n=84 v=97
99600 On ch=9 n=71 v=80
99678 Off ch=9 n=84 v=97
99678 Off ch=9 n=71 v=80
99680 On ch=9 n=86 v=90
99680 On ch=9 n=69 v=75
99758 Off ch=9 n=86 v=90
99758 Off ch=9 n=69 v=75
99760 On ch=9 n=88 v=92
99760 On ch=9 n=67 v=84
99838 Off ch=9 n=88 v=92
99838 Off ch=9 n=67 v=84
99840 On ch=9 n=48 v=46
99840 On ch=9 n=89 v=84
99918 Off ch=9 n=48 v=46
99918 Off ch=9 n=89 v=84
99920 On ch=9 n=50 v=57
99920 On ch=9 n=91 v=81
99998 Off ch=9 n=50 v=57
99998 Off ch=9 n=91 v=81
100000 On ch=9 n=52 v=51
100000 On ch=9 n=93 v=80
100078 Off ch=9 n=52 v=51
100078 Off ch=9 n=93 v=80
100080 On ch=9 n=53 v=68
100080 On ch=9 n=95 v=74
100158 Off ch=9 n=53 v=68
100158 Off ch=9 n=95 v=74
100160 On ch=9 n=55 v=40
100160 On ch=9 n=96 v=83
100238 Off ch=9 n=55 v=40
100238 Off ch=9 n=96 v=83
100240 On ch=9 n=57 v=62
100240 On ch=9 n=98 v=90
100318 Off ch=9 n=57 v=62
100318 Off ch=9 n=98 v=90
100320 On ch=9 n=59 v=61
100320 On ch=9 n=96 v=83
100398 Off ch=9 n=59 v=61
100398 Off ch=9 n=96 v=83
100400 On ch=9 n=60 v=71
100400 On ch=9 n=95 v=80
100478 Off ch=9 n=60 v=71
100478 Off ch=9 n=95 v=80
100480 On ch=9 n=62 v=67
100480 On ch=9 n=93 v=83
100558 Off ch=9 n=62 v=67
100558 Off ch=9 n=93 v=83
100560 On ch=9 n=64 v=78
100560 On ch=9 n=91 v=81
100638 Off ch=9 n=64 v=78
100638 Off ch=9 n=91 v=81
100640 On ch=9 n=65 v=74
100640 On ch=9 n=89 v=76
100718 Off ch=9 n=65 v=74
100718 Off ch=9 n=89 v=76
100720 On ch=9 n=67 v=73
100720 On ch=9 n=88 v=81
100798 Off ch=9 n=67 v=73
100798 Off ch=9 n=88 v=81
100800 On ch=9 n=69 v=78
100800 On ch=9 n=86 v=90
100878 Off ch=9 n=69 v=78
100878 Off ch=9 n=86 v=90
100880 On ch=9 n=71 v=85
100880 On ch=9 n=84 v=95
100958 Off ch=9 n=71 v=85
100958 Off ch=9 n=84 v=95
100960 On ch=9 n=72 v=76
100960 On ch=9 n=83 v=88
101038 Off ch=9 n=72 v=76
101038 Off ch=9 n=83 v=88
101040 On ch=9 n=74 v=91
101040 On ch=9 n=81 v=88
101118 Off ch=9 n=74 v=91
101118 Off ch=9 n=81 v=88
101120 On ch=9 n=76 v=87
101120 On ch=9 n=79 v=84
101198 Off ch=9 n=76 v=87
101198 Off ch=9 n=79 v=84
101200 On ch=9 n=77 v=86
101278 Off ch=9 n=77 v=86
101280 On ch=9 n=79 v=90
101280 On ch=9 n=76 v=81
101358 Off ch=9 n=79 v=90
101358 Off ch=9 n=76 v=81
101360 On ch=9 n=81 v=95
101360 On ch=9 n=74 v=94
101438 Off ch=9 n=81 v=95
101438 Off ch=9 n=74 v=94
101440 On ch=9 n=83 v=87
101440 On ch=9 n=72 v=91
101518 Off ch=9 n=83 v=87
101518 Off ch=9 n=72 v=91
101520 On ch=9 n=84 v=97
101520 On ch=9 n=71 v=80
101598 Off ch=9 n=84 v=97
101598 Off ch=9 n=71 v=80
101600 On ch=9 n=86 v=90
101600 On ch=9 n=69 v=75
101678 Off ch=9 n=86 v=90
101678 Off ch=9 n=69 v=75
101680 On ch=9 n=88 v=92
101680 On ch=9 n=67 v=84
101758 Off ch=9 n=88 v=92
101758 Off ch=9 n=67 v=84
101760 On ch=9 n=48 v=46
101760 On ch=9 n=89 v=84
101838 Off ch=9 n=48 v=46
101838 Off ch=9 n=89 v=84
101840 On ch=9 n=50 v=57
101840 On ch=9 n=91 v=81
101918 Off ch=9 n=50 v=57
101918 Off ch=9 n=91 v=81
101920 On ch=9 n=52 v=51
101920 On ch=9 n=93 v=80
101998 Off ch=9 n=52 v=51
101998 Off ch=9 n=93 v=80
102000 On ch=9 n=53 v=68
102000 On ch=9 n=95 v=74
102078 Off ch=9 n=53 v=68
102078 Off ch=9 n=95 v=74
102080 On ch=9 n=55 v=40
102080 On ch=9 n=96 v=83
102158 Off ch=9 n=55 v=40
102158 Off ch=9 n=96 v=83
102160 On ch=9 n=57 v=62
102160 On ch=9 n=98 v=90
102238 Off ch=9 n=57 v=62
102238 Off ch=9 n=98 v=90
102240 On ch=9 n=59 v=61
102240 On ch=9 n=96 v=83
102318 Off ch=9 n=59 v=61
102318 Off ch=9 n=96 v=83
102320 On ch=9 n=60 v=71
102320 On ch=9 n=95 v=80
102398 Off ch=9 n=60 v=71
102398 Off ch=9 n=95 v=80
102400 On ch=9 n=62 v=67
102400 On ch=9 n=93 v=83
102478 Off ch=9 n=62 v=67
102478 Off ch=9 n=93 v=83
102480 On ch=9 n=64 v=78
102480 On ch=9 n=91 v=81
102558 Off ch=9 n=64 v=78
102558 Off ch=9 n=91 v=81
102560 On ch=9 n=65 v=74
102560 On ch=9 n=89 v=76
102638 Off ch=9 n=65 v=74
102638 Off ch=9 n=89 v=76
102640 On ch=9 n=67 v=73
102640 On ch=9 n=88 v=81
102718 Off ch=9 n=67 v=73
102718 Off ch=9 n=88 v=81
102720 On ch=9 n=69 v=78
102720 On ch=9 n=86 v=90
102798 Off ch=9 n=69 v=78
102798 Off ch=9 n=86 v=90
102800 On ch=9 n=71 v=85
102800 On ch=9 n=84 v=95
102878 Off ch=9 n=71 v=85
102878 Off ch=9 n=84 v=95
102880 On ch=9 n=72 v=76
102880 On ch=9 n=83 v=88
102958 Off ch=9 n=72 v=76
102958 Off ch=9 n=83 v=88
102960 On ch=9 n=74 v=91
102960 On ch=9 n=81 v=88
103038 Off ch=9 n=74 v=91
103038 Off ch=9 n=81 v=88
103040 On ch=9 n=76 v=87
103040 On ch=9 n=79 v=84
103118 Off ch=9 n=76 v=87
103118 Off ch=9 n=79 v=84
103120 On ch=9 n=77 v=86
103198 Off ch=9 n=77 v=86
103200 On ch=9 n=79 v=90
103200 On ch=9 n=76 v=81
103278 Off ch=9 n=79 v=90
103278 Off ch=9 n=76 v=81
103280 On ch=9 n=81 v=95
103280 On ch=9 n=74 v=94
103358 Off ch=9 n=81 v=95
103358 Off ch=9 n=74 v=94
103360 On ch=9 n=83 v=87
103360 On ch=9 n=72 v=91
103438 Off ch=9 n=83 v=87
103438 Off ch=9 n=72 v=91
103440 On ch=9 n=84 v=97
103440 On ch=9 n=71 v=80
103518 Off ch=9 n=84 v=97
103518 Off ch=9 n=71 v=80
103520 On ch=9 n=86 v=90
103520 On ch=9 n=69 v=75
103598 Off ch=9 n=86 v=90
103598 Off ch=9 n=69 v=75
103600 On ch=9 n=88 v=92
103600 On ch=9 n=67 v=84
103678 Off ch=9 n=88 v=92
103678 Off ch=9 n=67 v=84
103680 On ch=9 n=48 v=46
103680 On ch=9 n=89 v=84
103758 Off ch=9 n=48 v=46
103758 Off ch=9 n=89 v=84
103760 On ch=9 n=50 v=57
103760 On ch=9 n=91 v=81
103838 Off ch=9 n=50 v=57
103838 Off ch=9 n=91 v=81
103840 On ch=9 n=52 v=51
103840 On ch=9 n=93 v=80
103918 Off ch=9 n=52 v=51
103918 Off ch=9 n=93 v=80
103920 On ch=9 n=53 v=68
103920 On ch=9 n=95 v=74
103998 Off ch=9 n=53 v=68
103998 Off ch=9 n=95 v=74
104000 On ch=9 n=55 v=40
104000 On ch=9 n=96 v=83
104078 Off ch=9 n=55 v=40
104078 Off ch=9 n=96 v=83
104080 On ch=9 n=57 v=62
104080 On ch=9 n=98 v=90
104158 Off ch=9 n=57 v=62
104158 Off ch=9 n=98 v=90
104160 On ch=9 n=59 v=61
104160 On ch=9 n=96 v=83
104238 Off ch=9 n=59 v=61
104238 Off ch=9 n=96 v=83
104240 On ch=9 n=60 v=71
104240 On ch=9 n=95 v=80
104318 Off ch=9 n=60 v=71
104318 Off ch=9 n=95 v=80
104320 On ch=9 n=62 v=67
104320 On ch=9 n=93 v=83
104398 Off ch=9 n=62 v=67
104398 Off ch=9 n=93 v=83
104400 On ch=9 n=64 v=78
104400 On ch=9 n=91 v=81
104478 Off ch=9 n=64 v=78
104478 Off ch=9 n=91 v=81
104480 On ch=9 n=65 v=74
104480 On ch=9 n=89 v=76
104558 Off ch=9 n=65 v=74
104558 Off ch=9 n=89 v=76
104560 On ch=9 n=67 v=73
104560 On ch=9 n=88 v=81
104638 Off ch=9 n=67 v=73
104638 Off ch=9 n=88 v=81
104640 On ch=9 n=69 v=78
104640 On ch=9 n=86 v=90
104718 Off ch=9 n=69 v=78
104718 Off ch=9 n=86 v=90
104720 On ch=9 n=71 v=85
104720 On ch=9 n=84 v=95
104798 Off ch=9 n=71 v=85
104798 Off ch=9 n=84 v=95
104800 On ch=9 n=72 v=76
104800 On ch=9 n=83 v=88
104878 Off ch=9 n=72 v=76
104878 Off ch=9 n=83 v=88
104880 On ch=9 n=74 v=91
104880 On ch=9 n=81 v=88
104958 Off ch=9 n=74 v=91
104958 Off ch=9 n=81 v=88
104960 On ch=9 n=76 v=87
104960 On ch=9 n=79 v=84
105038 Off ch=9 n=76 v=87
105038 Off ch=9 n=79 v=84
105040 On ch=9 n=77 v=86
105118 Off ch=9 n=77 v=86
105120 On ch=9 n=79 v=90
105120 On ch=9 n=76 v=81
105198 Off ch=9 n=79 v=90
105198 Off ch=9 n=76 v=81
105200 On ch=9 n=81 v=95
105200 On ch=9 n=74 v=94
105278 Off ch=9 n=81 v=95
105278 Off ch=9 n=74 v=94
105280 On ch=9 n=83 v=87
105280 On ch=9 n=72 v=91
105358 Off ch=9 n=83 v=87
105358 Off ch=9 n=72 v=91
105360 On ch=9 n=84 v=97
105360 On ch=9 n=71 v=80
105438 Off ch=9 n=84 v=97
105438 Off ch=9 n=71 v=80
105440 On ch=9 n=86 v=90
105440 On ch=9 n=69 v=75
105518 Off ch=9 n=86 v=90
105518 Off ch=9 n=69 v=75
105520 On ch=9 n=88 v=92
105520 On ch=9 n=67 v=84
105598 Off ch=9 n=88 v=92
105598 Off ch=9 n=67 v=84
105600 On ch=9 n=48 v=46
105600 On ch=9 n=89 v=84
105678 Off ch=9 n=48 v=46
105678 Off ch=9 n=89 v=84
105680 On ch=9 n=50 v=57
105680 On ch=9 n=91 v=81
105758 Off ch=9 n=50 v=57
105758 Off ch=9 n=91 v=81
105760 On ch=9 n=52 v=51
105760 On ch=9 n=93 v=80
105838 Off ch=9 n=52 v=51
105838 Off ch=9 n=93 v=80
105840 On ch=9 n=53 v=68
105840 On ch=9 n=95 v=74
105918 Off ch=9 n=53 v=68
105918 Off ch=9 n=95 v=74
105920 On ch=9 n=55 v=40
105920 On ch=9 n=96 v=83
105998 Off ch=9 n=55 v=40
105998 Off ch=9 n=96 v=83
106000 On ch=9 n=57 v=62
106000 On ch=9 n=98 v=90
106078 Off ch=9 n=57 v=62
106078 Off ch=9 n=98 v=90
106080 On ch=9 n=59 v=61
106080 On ch=9 n=96 v=83
106158 Off ch=9 n=59 v=61
106158 Off ch=9 n=96 v=83
106160 On ch=9 n=60 v=71
106160 On ch=9 n=95 v=80
106238 Off ch=9 n=60 v=71
106238 Off ch=9 n=95 v=80
106240 On ch=9 n=62 v=67
106240 On ch=9 n=93 v=83
106318 Off ch=9 n=62 v=67
106318 Off ch=9 n=93 v=83
106320 On ch=9 n=64 v=78
106320 On ch=9 n=91 v=81
106398 Off ch=9 n=64 v=78
106398 Off ch=9 n=91 v=81
106400 On ch=9 n=65 v=74
106400 On ch=9 n=89 v=76
106478 Off ch=9 n=65 v=74
106478 Off ch=9 n=89 v=76
106480 On ch=9 n=67 v=73
106480 On ch=9 n=88 v=81
106558 Off ch=9 n=67 v=73
106558 Off ch=9 n=88 v=81
106560 On ch=9 n=69 v=78
106560 On ch=9 n=86 v=90
106638 Off ch=9 n=69 v=78
106638 Off ch=9 n=86 v=90
106640 On ch=9 n=71 v=85
106640 On ch=9 n=84 v=95
106718 Off ch=9 n=71 v=85
106718 Off ch=9 n=84 v=95
106720 On ch=9 n=72 v=76
106720 On ch=9 n=83 v=88
106729 Par ch=9 c=7 v=62
106798 Off ch=9 n=72 v=76
106798 Off ch=9 n=83 v=88
106800 On ch=9 n=74 v=91
106800 On ch=9 n=81 v=88
106878 Off ch=9 n=74 v=91
106878 Off ch=9 n=81 v=88
106880 On ch=9 n=76 v=87
106880 On ch=9 n=79 v=84
106903 Par ch=9 c=7 v=60
106958 Off ch=9 n=76 v=87
106958 Off ch=9 n=79 v=84
106960 On ch=9 n=77 v=86
106988 Par ch=9 c=7 v=57
107038 Off ch=9 n=77 v=86
107040 On ch=9 n=79 v=90
107040 On ch=9 n=76 v=81
107118 Off ch=9 n=79 v=90
107118 Off ch=9 n=76 v=81
107120 On ch=9 n=81 v=95
107120 On ch=9 n=74 v=94
107139 Par ch=9 c=7 v=55
107198 Off ch=9 n=81 v=95
107198 Off ch=9 n=74 v=94
107200 On ch=9 n=83 v=87
107200 On ch=9 n=72 v=91
107267 Par ch=9 c=7 v=52
107278 Off ch=9 n=83 v=87
107278 Off ch=9 n=72 v=91
107280 On ch=9 n=84 v=97
107280 On ch=9 n=71 v=80
107358 Off ch=9 n=84 v=97
107358 Off ch=9 n=71 v=80
107360 On ch=9 n=86 v=90
107360 On ch=9 n=69 v=75
107438 Off ch=9 n=86 v=90
107438 Off ch=9 n=69 v=75
107440 On ch=9 n=88 v=92
107440 On ch=9 n=67 v=84
107518 Off ch=9 n=88 v=92
107518 Off ch=9 n=67 v=84
107520 On ch=9 n=48 v=46
107520 On ch=9 n=89 v=84
107568 Par ch=9 c=7 v=50
107598 Off ch=9 n=48 v=46
107598 Off ch=9 n=89 v=84
107600 On ch=9 n=50 v=57
107600 On ch=9 n=91 v=81
107675 Par ch=9 c=7 v=47
107678 Off ch=9 n=50 v=57
107678 Off ch=9 n=91 v=81
107680 On ch=9 n=52 v=51
107680 On ch=9 n=93 v=80
107758 Off ch=9 n=52 v=51
107758 Off ch=9 n=93 v=80
107760 On ch=9 n=53 v=68
107760 On ch=9 n=95 v=74
107804 Par ch=9 c=7 v=45
107838 Off ch=9 n=53 v=68
107838 Off ch=9 n=95 v=74
107840 On ch=9 n=55 v=40
107840 On ch=9 n=96 v=83
107918 Off ch=9 n=55 v=40
107918 Off ch=9 n=96 v=83
107920 On ch=9 n=57 v=62
107920 On ch=9 n=98 v=90
107933 Par ch=9 c=7 v=42
107998 Off ch=9 n=57 v=62
107998 Off ch=9 n=98 v=90
108000 On ch=9 n=59 v=61
108000 On ch=9 n=96 v=83
108078 Off ch=9 n=59 v=61
108078 Off ch=9 n=96 v=83
108080 On ch=9 n=60 v=71
108080 On ch=9 n=95 v=80
108158 Off ch=9 n=60 v=71
108158 Off ch=9 n=95 v=80
108160 On ch=9 n=62 v=67
108160 On ch=9 n=93 v=83
108171 Par ch=9 c=7 v=40
108238 Off ch=9 n=62 v=67
108238 Off ch=9 n=93 v=83
108240 On ch=9 n=64 v=78
108240 On ch=9 n=91 v=81
108318 Off ch=9 n=64 v=78
108318 Off ch=9 n=91 v=81
108320 On ch=9 n=65 v=74
108320 On ch=9 n=89 v=76
108398 Off ch=9 n=65 v=74
108398 Off ch=9 n=89 v=76
108400 On ch=9 n=67 v=73
108400 On ch=9 n=88 v=81
108478 Off ch=9 n=67 v=73
108478 Off ch=9 n=88 v=81
108480 On ch=9 n=69 v=78
108480 On ch=9 n=86 v=90
108536 Par ch=9 c=7 v=37
108558 Off ch=9 n=69 v=78
108558 Off ch=9 n=86 v=90
108560 On ch=9 n=71 v=85
108560 On ch=9 n=84 v=95
108638 Off ch=9 n=71 v=85
108638 Off ch=9 n=84 v=95
108640 On ch=9 n=72 v=76
108640 On ch=9 n=83 v=88
108718 Off ch=9 n=72 v=76
108718 Off ch=9 n=83 v=88
108720 On ch=9 n=74 v=91
108720 On ch=9 n=81 v=88
108798 Off ch=9 n=74 v=91
108798 Off ch=9 n=81 v=88
108800 On ch=9 n=76 v=87
108800 On ch=9 n=79 v=84
108878 Off ch=9 n=76 v=87
108878 Off ch=9 n=79 v=84
108879 Par ch=9 c=7 v=35
108880 On ch=9 n=77 v=86
108958 Off ch=9 n=77 v=86
108960 On ch=9 n=79 v=90
108960 On ch=9 n=76 v=81
109038 Off ch=9 n=79 v=90
109038 Off ch=9 n=76 v=81
109040 On ch=9 n=81 v=95
109040 On ch=9 n=74 v=94
109118 Off ch=9 n=81 v=95
109118 Off ch=9 n=74 v=94
109120 On ch=9 n=83 v=87
109120 On ch=9 n=72 v=91
109198 Off ch=9 n=83 v=87
109198 Off ch=9 n=72 v=91
109200 On ch=9 n=84 v=97
109200 On ch=9 n=71 v=80
109278 Off ch=9 n=84 v=97
109278 Off ch=9 n=71 v=80
109280 On ch=9 n=86 v=90
109280 On ch=9 n=69 v=75
109331 Par ch=9 c=7 v=32
109358 Off ch=9 n=86 v=90
109358 Off ch=9 n=69 v=75
109360 On ch=9 n=88 v=92
109360 On ch=9 n=67 v=84
109438 Off ch=9 n=88 v=92
109438 Off ch=9 n=67 v=84
109440 On ch=9 n=48 v=46
109440 On ch=9 n=89 v=84
109518 Off ch=9 n=48 v=46
109518 Off ch=9 n=89 v=84
109520 On ch=9 n=50 v=57
109520 On ch=9 n=91 v=81
109598 Off ch=9 n=50 v=57
109598 Off ch=9 n=91 v=81
109600 On ch=9 n=52 v=51
109600 On ch=9 n=93 v=80
109678 Off ch=9 n=52 v=51
109678 Off ch=9 n=93 v=80
109680 On ch=9 n=53 v=68
109680 On ch=9 n=95 v=74
109758 Off ch=9 n=53 v=68
109758 Off ch=9 n=95 v=74
109760 On ch=9 n=55 v=40
109760 On ch=9 n=96 v=83
109838 Off ch=9 n=55 v=40
109838 Off ch=9 n=96 v=83
109840 On ch=9 n=57 v=62
109840 On ch=9 n=98 v=90
109918 Off ch=9 n=57 v=62
109918 Off ch=9 n=98 v=90
109920 On ch=9 n=59 v=61
109920 On ch=9 n=96 v=83
109998 Off ch=9 n=59 v=61
109998 Off ch=9 n=96 v=83
110000 On ch=9 n=60 v=71
110000 On ch=9 n=95 v=80
110078 Off ch=9 n=60 v=71
110078 Off ch=9 n=95 v=80
110080 On ch=9 n=62 v=67
110080 On ch=9 n=93 v=83
110158 Off ch=9 n=62 v=67
110158 Off ch=9 n=93 v=83
110160 On ch=9 n=64 v=78
110160 On ch=9 n=91 v=81
110238 Off ch=9 n=64 v=78
110238 Off ch=9 n=91 v=81
110240 On ch=9 n=65 v=74
110240 On ch=9 n=89 v=76
110318 Off ch=9 n=65 v=74
110318 Off ch=9 n=89 v=76
110320 On ch=9 n=67 v=73
110320 On ch=9 n=88 v=81
110398 Off ch=9 n=67 v=73
110398 Off ch=9 n=88 v=81
110400 On ch=9 n=69 v=78
110400 On ch=9 n=86 v=90
110478 Off ch=9 n=69 v=78
110478 Off ch=9 n=86 v=90
110480 On ch=9 n=71 v=85
110480 On ch=9 n=84 v=95
110558 Off ch=9 n=71 v=85
110558 Off ch=9 n=84 v=95
110560 On ch=9 n=72 v=76
110560 On ch=9 n=83 v=88
110638 Off ch=9 n=72 v=76
110638 Off ch=9 n=83 v=88
110640 On ch=9 n=74 v=91
110640 On ch=9 n=81 v=88
110718 Off ch=9 n=74 v=91
110718 Off ch=9 n=81 v=88
110720 On ch=9 n=76 v=87
110720 On ch=9 n=79 v=84
110798 Off ch=9 n=76 v=87
110798 Off ch=9 n=79 v=84
110800 On ch=9 n=77 v=86
110878 Off ch=9 n=77 v=86
110880 On ch=9 n=79 v=90
110880 On ch=9 n=76 v=81
110958 Off ch=9 n=79 v=90
110958 Off ch=9 n=76 v=81
110960 On ch=9 n=81 v=95
110960 On ch=9 n=74 v=94
111038 Off ch=9 n=81 v=95
111038 Off ch=9 n=74 v=94
111040 On ch=9 n=83 v=87
111040 On ch=9 n=72 v=91
111118 Off ch=9 n=83 v=87
111118 Off ch=9 n=72 v=91
111120 On ch=9 n=84 v=97
111120 On ch=9 n=71 v=80
111198 Off ch=9 n=84 v=97
111198 Off ch=9 n=71 v=80
111200 On ch=9 n=86 v=90
111200 On ch=9 n=69 v=75
111278 Off ch=9 n=86 v=90
111278 Off ch=9 n=69 v=75
111280 On ch=9 n=88 v=92
111280 On ch=9 n=67 v=84
111358 Off ch=9 n=88 v=92
111358 Off ch=9 n=67 v=84
111360 On ch=9 n=48 v=46
111360 On ch=9 n=89 v=84
111438 Off ch=9 n=48 v=46
111438 Off ch=9 n=89 v=84
111440 On ch=9 n=50 v=57
111440 On ch=9 n=91 v=81
111518 Off ch=9 n=50 v=57
111518 Off ch=9 n=91 v=81
111520 On ch=9 n=52 v=51
111520 On ch=9 n=93 v=80
111598 Off ch=9 n=52 v=51
111598 Off ch=9 n=93 v=80
111600 On ch=9 n=53 v=68
111600 On ch=9 n=95 v=74
111678 Off ch=9 n=53 v=68
111678 Off ch=9 n=95 v=74
111680 On ch=9 n=55 v=40
111680 On ch=9 n=96 v=83
111758 Off ch=9 n=55 v=40
111758 Off ch=9 n=96 v=83
111760 On ch=9 n=57 v=62
111760 On ch=9 n=98 v=90
111838 Off ch=9 n=57 v=62
111838 Off ch=9 n=98 v=90
111840 On ch=9 n=59 v=61
111840 On ch=9 n=96 v=83
111918 Off ch=9 n=59 v=61
111918 Off ch=9 n=96 v=83
111920 On ch=9 n=60 v=71
111920 On ch=9 n=95 v=80
111998 Off ch=9 n=60 v=71
111998 Off ch=9 n=95 v=80
112000 On ch=9 n=62 v=67
112000 On ch=9 n=93 v=83
112078 Off ch=9 n=62 v=67
112078 Off ch=9 n=93 v=83
112080 On ch=9 n=64 v=78
112080 On ch=9 n=91 v=81
112158 Off ch=9 n=64 v=78
112158 Off ch=9 n=91 v=81
112160 On ch=9 n=65 v=74
112160 On ch=9 n=89 v=76
112238 Off ch=9 n=65 v=74
112238 Off ch=9 n=89 v=76
112240 On ch=9 n=67 v=73
112240 On ch=9 n=88 v=81
112318 Off ch=9 n=67 v=73
112318 Off ch=9 n=88 v=81
112320 On ch=9 n=69 v=78
112320 On ch=9 n=86 v=90
112398 Off ch=9 n=69 v=78
112398 Off ch=9 n=86 v=90
112400 On ch=9 n=72 v=85
112400 On ch=9 n=84 v=95
112478 Off ch=9 n=72 v=85
112478 Off ch=9 n=84 v=95
112480 On ch=9 n=74 v=76
112480 On ch=9 n=83 v=88
112512 Par ch=9 c=7 v=39
112558 Off ch=9 n=74 v=76
112558 Off ch=9 n=83 v=88
112560 On ch=9 n=76 v=91
112560 On ch=9 n=81 v=88
112638 Off ch=9 n=76 v=91
112638 Off ch=9 n=81 v=88
112640 On ch=9 n=79 v=84
112662 Par ch=9 c=7 v=47
112718 Off ch=9 n=79 v=84
112720 On ch=9 n=81 v=86
112790 Par ch=9 c=7 v=55
112798 Off ch=9 n=81 v=86
112800 On ch=9 n=83 v=90
112878 Off ch=9 n=83 v=90
112880 On ch=9 n=86 v=95
112958 Off ch=9 n=86 v=95
112960 On ch=9 n=88 v=87
113027 Par ch=9 c=7 v=64
113038 Off ch=9 n=88 v=87
113040 On ch=9 n=91 v=97
113118 Off ch=9 n=91 v=97
113120 On ch=9 n=93 v=90
113198 Off ch=9 n=93 v=90
113200 On ch=9 n=95 v=92
113278 Off ch=9 n=95 v=92
113280 On ch=9 n=98 v=100
113630 Off ch=9 n=98 v=100
186240 On ch=9 n=48 v=86
186318 Off ch=9 n=48 v=86
186320 On ch=9 n=50 v=97
186398 Off ch=9 n=50 v=97
186400 On ch=9 n=52 v=91
186478 Off ch=9 n=52 v=91
186480 On ch=9 n=53 v=98
186558 Off ch=9 n=53 v=98
186560 On ch=9 n=55 v=70
186638 Off ch=9 n=55 v=70
186640 On ch=9 n=57 v=92
186718 Off ch=9 n=57 v=92
186720 On ch=9 n=59 v=81
186798 Off ch=9 n=59 v=81
186800 On ch=9 n=60 v=91
186878 Off ch=9 n=60 v=91
186880 On ch=9 n=62 v=87
186958 Off ch=9 n=62 v=87
186960 On ch=9 n=64 v=88
187038 Off ch=9 n=64 v=88
187040 On ch=9 n=65 v=84
187118 Off ch=9 n=65 v=84
187120 On ch=9 n=67 v=83
187198 Off ch=9 n=67 v=83
187200 On ch=9 n=69 v=83
187278 Off ch=9 n=69 v=83
187280 On ch=9 n=71 v=90
187358 Off ch=9 n=71 v=90
187360 On ch=9 n=72 v=81
187438 Off ch=9 n=72 v=81
187440 On ch=9 n=74 v=91
187518 Off ch=9 n=74 v=91
187520 On ch=9 n=76 v=87
187598 Off ch=9 n=76 v=87
187600 On ch=9 n=77 v=98
187678 Off ch=9 n=77 v=98
187680 On ch=9 n=79 v=90
187758 Off ch=9 n=79 v=90
187760 On ch=9 n=81 v=95
187838 Off ch=9 n=81 v=95
187840 On ch=9 n=83 v=87
187918 Off ch=9 n=83 v=87
187920 On ch=9 n=84 v=97
187998 Off ch=9 n=84 v=97
188000 On ch=9 n=86 v=90
188078 Off ch=9 n=86 v=90
188080 On ch=9 n=88 v=92
188158 Off ch=9 n=88 v=92
188160 On ch=9 n=48 v=46
188160 On ch=9 n=89 v=84
188238 Off ch=9 n=48 v=46
188238 Off ch=9 n=89 v=84
188240 On ch=9 n=50 v=57
188240 On ch=9 n=91 v=81
188318 Off ch=9 n=50 v=57
188318 Off ch=9 n=91 v=81
188320 On ch=9 n=52 v=51
188320 On ch=9 n=93 v=80
188398 Off ch=9 n=52 v=51
188398 Off ch=9 n=93 v=80
188400 On ch=9 n=53 v=68
188400 On ch=9 n=95 v=74
188478 Off ch=9 n=53 v=68
188478 Off ch=9 n=95 v=74
188480 On ch=9 n=55 v=40
188480 On ch=9 n=96 v=83
188558 Off ch=9 n=55 v=40
188558 Off ch=9 n=96 v=83
188560 On ch=9 n=57 v=62
188560 On ch=9 n=98 v=90
188638 Off ch=9 n=57 v=62
188638 Off ch=9 n=98 v=90
188640 On ch=9 n=59 v=61
188640 On ch=9 n=96 v=83
188718 Off ch=9 n=59 v=61
188718 Off ch=9 n=96 v=83
188720 On ch=9 n=60 v=71
188720 On ch=9 n=95 v=80
188798 Off ch=9 n=60 v=71
188798 Off ch=9 n=95 v=80
188800 On ch=9 n=62 v=67
188800 On ch=9 n=93 v=83
188878 Off ch=9 n=62 v=67
188878 Off ch=9 n=93 v=83
188880 On ch=9 n=64 v=78
188880 On ch=9 n=91 v=81
188958 Off ch=9 n=64 v=78
188958 Off ch=9 n=91 v=81
188960 On ch=9 n=65 v=74
188960 On ch=9 n=89 v=76
189038 Off ch=9 n=65 v=74
189038 Off ch=9 n=89 v=76
189040 On ch=9 n=67 v=73
189040 On ch=9 n=88 v=81
189118 Off ch=9 n=67 v=73
189118 Off ch=9 n=88 v=81
189120 On ch=9 n=69 v=78
189120 On ch=9 n=86 v=90
189198 Off ch=9 n=69 v=78
189198 Off ch=9 n=86 v=90
189200 On ch=9 n=71 v=85
189200 On ch=9 n=84 v=95
189278 Off ch=9 n=71 v=85
189278 Off ch=9 n=84 v=95
189280 On ch=9 n=72 v=76
189280 On ch=9 n=83 v=88
189358 Off ch=9 n=72 v=76
189358 Off ch=9 n=83 v=88
189360 On ch=9 n=74 v=91
189360 On ch=9 n=81 v=88
189438 Off ch=9 n=74 v=91
189438 Off ch=9 n=81 v=88
189440 On ch=9 n=76 v=87
189440 On ch=9 n=79 v=84
189518 Off ch=9 n=76 v=87
189518 Off ch=9 n=79 v=84
189520 On ch=9 n=77 v=86
189598 Off ch=9 n=77 v=86
189600 On ch=9 n=79 v=90
189600 On ch=9 n=76 v=81
189678 Off ch=9 n=79 v=90
189678 Off ch=9 n=76 v=81
189680 On ch=9 n=81 v=95
189680 On ch=9 n=74 v=94
189758 Off ch=9 n=81 v=95
189758 Off ch=9 n=74 v=94
189760 On ch=9 n=83 v=87
189760 On ch=9 n=72 v=91
189838 Off ch=9 n=83 v=87
189838 Off ch=9 n=72 v=91
189840 On ch=9 n=84 v=97
189840 On ch=9 n=71 v=80
189918 Off ch=9 n=84 v=97
189918 Off ch=9 n=71 v=80
189920 On ch=9 n=86 v=90
189920 On ch=9 n=69 v=75
189998 Off ch=9 n=86 v=90
189998 Off ch=9 n=69 v=75
190000 On ch=9 n=88 v=92
190000 On ch=9 n=67 v=84
190078 Off ch=9 n=88 v=92
190078 Off ch=9 n=67 v=84
190080 On ch=9 n=48 v=46
190080 On ch=9 n=89 v=84
190158 Off ch=9 n=48 v=46
190158 Off ch=9 n=89 v=84
190160 On ch=9 n=50 v=57
190160 On ch=9 n=91 v=81
190238 Off ch=9 n=50 v=57
190238 Off ch=9 n=91 v=81
190240 On ch=9 n=52 v=51
190240 On ch=9 n=93 v=80
190318 Off ch=9 n=52 v=51
190318 Off ch=9 n=93 v=80
190320 On ch=9 n=53 v=68
190320 On ch=9 n=95 v=74
190398 Off ch=9 n=53 v=68
190398 Off ch=9 n=95 v=74
190400 On ch=9 n=55 v=40
190400 On ch=9 n=96 v=83
190478 Off ch=9 n=55 v=40
190478 Off ch=9 n=96 v=83
190480 On ch=9 n=57 v=62
190480 On ch=9 n=98 v=90
190558 Off ch=9 n=57 v=62
190558 Off ch=9 n=98 v=90
190560 On ch=9 n=59 v=61
190560 On ch=9 n=96 v=83
190638 Off ch=9 n=59 v=61
190638 Off ch=9 n=96 v=83
190640 On ch=9 n=60 v=71
190640 On ch=9 n=95 v=80
190718 Off ch=9 n=60 v=71
190718 Off ch=9 n=95 v=80
190720 On ch=9 n=62 v=67
190720 On ch=9 n=93 v=83
190798 Off ch=9 n=62 v=67
190798 Off ch=9 n=93 v=83
190800 On ch=9 n=64 v=78
190800 On ch=9 n=91 v=81
190878 Off ch=9 n=64 v=78
190878 Off ch=9 n=91 v=81
190880 On ch=9 n=65 v=74
190880 On ch=9 n=89 v=76
190958 Off ch=9 n=65 v=74
190958 Off ch=9 n=89 v=76
190960 On ch=9 n=67 v=73
190960 On ch=9 n=88 v=81
191038 Off ch=9 n=67 v=73
191038 Off ch=9 n=88 v=81
191040 On ch=9 n=69 v=78
191040 On ch=9 n=86 v=90
191118 Off ch=9 n=69 v=78
191118 Off ch=9 n=86 v=90
191120 On ch=9 n=71 v=85
191120 On ch=9 n=84 v=95
191198 Off ch=9 n=71 v=85
191198 Off ch=9 n=84 v=95
191200 On ch=9 n=72 v=76
191200 On ch=9 n=83 v=88
191278 Off ch=9 n=72 v=76
191278 Off ch=9 n=83 v=88
191280 On ch=9 n=74 v=91
191280 On ch=9 n=81 v=88
191358 Off ch=9 n=74 v=91
191358 Off ch=9 n=81 v=88
191360 On ch=9 n=76 v=87
191360 On ch=9 n=79 v=84
191438 Off ch=9 n=76 v=87
191438 Off ch=9 n=79 v=84
191440 On ch=9 n=77 v=86
191518 Off ch=9 n=77 v=86
191520 On ch=9 n=79 v=90
191520 On ch=9 n=76 v=81
191598 Off ch=9 n=79 v=90
191598 Off ch=9 n=76 v=81
191600 On ch=9 n=81 v=95
191600 On ch=9 n=74 v=94
191678 Off ch=9 n=81 v=95
191678 Off ch=9 n=74 v=94
191680 On ch=9 n=83 v=87
191680 On ch=9 n=72 v=91
191758 Off ch=9 n=83 v=87
191758 Off ch=9 n=72 v=91
191760 On ch=9 n=84 v=97
191760 On ch=9 n=71 v=80
191838 Off ch=9 n=84 v=97
191838 Off ch=9 n=71 v=80
191840 On ch=9 n=86 v=90
191840 On ch=9 n=69 v=75
191918 Off ch=9 n=86 v=90
191918 Off ch=9 n=69 v=75
191920 On ch=9 n=88 v=92
191920 On ch=9 n=67 v=84
191998 Off ch=9 n=88 v=92
191998 Off ch=9 n=67 v=84
192000 On ch=9 n=48 v=46
192000 On ch=9 n=89 v=84
192078 Off ch=9 n=48 v=46
192078 Off ch=9 n=89 v=84
192080 On ch=9 n=50 v=57
192080 On ch=9 n=91 v=81
192158 Off ch=9 n=50 v=57
192158 Off ch=9 n=91 v=81
192160 On ch=9 n=52 v=51
192160 On ch=9 n=93 v=80
192238 Off ch=9 n=52 v=51
192238 Off ch=9 n=93 v=80
192240 On ch=9 n=53 v=68
192240 On ch=9 n=95 v=74
192318 Off ch=9 n=53 v=68
192318 Off ch=9 n=95 v=74
192320 On ch=9 n=55 v=40
192320 On ch=9 n=96 v=83
192398 Off ch=9 n=55 v=40
192398 Off ch=9 n=96 v=83
192400 On ch=9 n=57 v=62
192400 On ch=9 n=98 v=90
192478 Off ch=9 n=57 v=62
192478 Off ch=9 n=98 v=90
192480 On ch=9 n=59 v=61
192480 On ch=9 n=96 v=83
192558 Off ch=9 n=59 v=61
192558 Off ch=9 n=96 v=83
192560 On ch=9 n=60 v=71
192560 On ch=9 n=95 v=80
192638 Off ch=9 n=60 v=71
192638 Off ch=9 n=95 v=80
192640 On ch=9 n=62 v=67
192640 On ch=9 n=93 v=83
192718 Off ch=9 n=62 v=67
192718 Off ch=9 n=93 v=83
192720 On ch=9 n=64 v=78
192720 On ch=9 n=91 v=81
192798 Off ch=9 n=64 v=78
192798 Off ch=9 n=91 v=81
192800 On ch=9 n=65 v=74
192800 On ch=9 n=89 v=76
192878 Off ch=9 n=65 v=74
192878 Off ch=9 n=89 v=76
192880 On ch=9 n=67 v=73
192880 On ch=9 n=88 v=81
192958 Off ch=9 n=67 v=73
192958 Off ch=9 n=88 v=81
192960 On ch=9 n=69 v=78
192960 On ch=9 n=86 v=90
193038 Off ch=9 n=69 v=78
193038 Off ch=9 n=86 v=90
193040 On ch=9 n=71 v=85
193040 On ch=9 n=84 v=95
193118 Off ch=9 n=71 v=85
193118 Off ch=9 n=84 v=95
193120 On ch=9 n=72 v=76
193120 On ch=9 n=83 v=88
193198 Off ch=9 n=72 v=76
193198 Off ch=9 n=83 v=88
193200 On ch=9 n=74 v=91
193200 On ch=9 n=81 v=88
193278 Off ch=9 n=74 v=91
193278 Off ch=9 n=81 v=88
193280 On ch=9 n=76 v=87
193280 On ch=9 n=79 v=84
193358 Off ch=9 n=76 v=87
193358 Off ch=9 n=79 v=84
193360 On ch=9 n=77 v=86
193438 Off ch=9 n=77 v=86
193440 On ch=9 n=79 v=90
193440 On ch=9 n=76 v=81
193518 Off ch=9 n=79 v=90
193518 Off ch=9 n=76 v=81
193520 On ch=9 n=81 v=95
193520 On ch=9 n=74 v=94
193598 Off ch=9 n=81 v=95
193598 Off ch=9 n=74 v=94
193600 On ch=9 n=83 v=87
193600 On ch=9 n=72 v=91
193678 Off ch=9 n=83 v=87
193678 Off ch=9 n=72 v=91
193680 On ch=9 n=84 v=97
193680 On ch=9 n=71 v=80
193758 Off ch=9 n=84 v=97
193758 Off ch=9 n=71 v=80
193760 On ch=9 n=86 v=90
193760 On ch=9 n=69 v=75
193838 Off ch=9 n=86 v=90
193838 Off ch=9 n=69 v=75
193840 On ch=9 n=88 v=92
193840 On ch=9 n=67 v=84
193918 Off ch=9 n=88 v=92
193918 Off ch=9 n=67 v=84
193920 On ch=9 n=48 v=46
193920 On ch=9 n=89 v=84
193998 Off ch=9 n=48 v=46
193998 Off ch=9 n=89 v=84
194000 On ch=9 n=50 v=57
194000 On ch=9 n=91 v=81
194078 Off ch=9 n=50 v=57
194078 Off ch=9 n=91 v=81
194080 On ch=9 n=52 v=51
194080 On ch=9 n=93 v=80
194158 Off ch=9 n=52 v=51
194158 Off ch=9 n=93 v=80
194160 On ch=9 n=53 v=68
194160 On ch=9 n=95 v=74
194238 Off ch=9 n=53 v=68
194238 Off ch=9 n=95 v=74
194240 On ch=9 n=55 v=40
194240 On ch=9 n=96 v=83
194318 Off ch=9 n=55 v=40
194318 Off ch=9 n=96 v=83
194320 On ch=9 n=57 v=62
194320 On ch=9 n=98 v=90
194398 Off ch=9 n=57 v=62
194398 Off ch=9 n=98 v=90
194400 On ch=9 n=59 v=61
194400 On ch=9 n=96 v=83
194478 Off ch=9 n=59 v=61
194478 Off ch=9 n=96 v=83
194480 On ch=9 n=60 v=71
194480 On ch=9 n=95 v=80
194558 Off ch=9 n=60 v=71
194558 Off ch=9 n=95 v=80
194560 On ch=9 n=62 v=67
194560 On ch=9 n=93 v=83
194638 Off ch=9 n=62 v=67
194638 Off ch=9 n=93 v=83
194640 On ch=9 n=64 v=78
194640 On ch=9 n=91 v=81
194718 Off ch=9 n=64 v=78
194718 Off ch=9 n=91 v=81
194720 On ch=9 n=65 v=74
194720 On ch=9 n=89 v=76
194798 Off ch=9 n=65 v=74
194798 Off ch=9 n=89 v=76
194800 On ch=9 n=67 v=73
194800 On ch=9 n=88 v=81
194878 Off ch=9 n=67 v=73
194878 Off ch=9 n=88 v=81
194880 On ch=9 n=69 v=78
194880 On ch=9 n=86 v=90
194958 Off ch=9 n=69 v=78
194958 Off ch=9 n=86 v=90
194960 On ch=9 n=71 v=85
194960 On ch=9 n=84 v=95
195038 Off ch=9 n=71 v=85
195038 Off ch=9 n=84 v=95
195040 On ch=9 n=72 v=76
195040 On ch=9 n=83 v=88
195118 Off ch=9 n=72 v=76
195118 Off ch=9 n=83 v=88
195120 On ch=9 n=74 v=91
195120 On ch=9 n=81 v=88
195198 Off ch=9 n=74 v=91
195198 Off ch=9 n=81 v=88
195200 On ch=9 n=76 v=87
195200 On ch=9 n=79 v=84
195278 Off ch=9 n=76 v=87
195278 Off ch=9 n=79 v=84
195280 On ch=9 n=77 v=86
195358 Off ch=9 n=77 v=86
195360 On ch=9 n=79 v=90
195360 On ch=9 n=76 v=81
195438 Off ch=9 n=79 v=90
195438 Off ch=9 n=76 v=81
195440 On ch=9 n=81 v=95
195440 On ch=9 n=74 v=94
195518 Off ch=9 n=81 v=95
195518 Off ch=9 n=74 v=94
195520 On ch=9 n=83 v=87
195520 On ch=9 n=72 v=91
195598 Off ch=9 n=83 v=87
195598 Off ch=9 n=72 v=91
195600 On ch=9 n=84 v=97
195600 On ch=9 n=71 v=80
195678 Off ch=9 n=84 v=97
195678 Off ch=9 n=71 v=80
195680 On ch=9 n=86 v=90
195680 On ch=9 n=69 v=75
195758 Off ch=9 n=86 v=90
195758 Off ch=9 n=69 v=75
195760 On ch=9 n=88 v=92
195760 On ch=9 n=67 v=84
195838 Off ch=9 n=88 v=92
195838 Off ch=9 n=67 v=84
195840 On ch=9 n=89 v=84
195918 Off ch=9 n=89 v=84
195920 On ch=9 n=91 v=81
195998 Off ch=9 n=91 v=81
196000 On ch=9 n=93 v=80
196078 Off ch=9 n=93 v=80
196080 On ch=9 n=95 v=74
196158 Off ch=9 n=95 v=74
196160 On ch=9 n=96 v=83
196238 Off ch=9 n=96 v=83
196240 On ch=9 n=98 v=90
196318 Off ch=9 n=98 v=90
196320 On ch=9 n=96 v=83
196398 Off ch=9 n=96 v=83
196400 On ch=9 n=95 v=80
196478 Off ch=9 n=95 v=80
196480 On ch=9 n=93 v=83
196558 Off ch=9 n=93 v=83
196560 On ch=9 n=91 v=81
196638 Off ch=9 n=91 v=81
196640 On ch=9 n=89 v=76
196718 Off ch=9 n=89 v=76
196720 On ch=9 n=88 v=81
196798 Off ch=9 n=88 v=81
196800 On ch=9 n=86 v=90
196878 Off ch=9 n=86 v=90
196880 On ch=9 n=84 v=95
196958 Off ch=9 n=84 v=95
196960 On ch=9 n=83 v=88
197038 Off ch=9 n=83 v=88
197040 On ch=9 n=81 v=88
197118 Off ch=9 n=81 v=88
197120 On ch=9 n=79 v=84
197198 Off ch=9 n=79 v=84
197200 On ch=9 n=77 v=86
197278 Off ch=9 n=77 v=86
197280 On ch=9 n=76 v=81
197358 Off ch=9 n=76 v=81
197360 On ch=9 n=74 v=94
197438 Off ch=9 n=74 v=94
197440 On ch=9 n=72 v=91
197518 Off ch=9 n=72 v=91
197520 On ch=9 n=71 v=80
197598 Off ch=9 n=71 v=80
197600 On ch=9 n=69 v=75
197678 Off ch=9 n=69 v=75
197680 On ch=9 n=67 v=84
197758 Off ch=9 n=67 v=84
264000 On ch=9 n=48 v=86
264078 Off ch=9 n=48 v=86
264080 On ch=9 n=50 v=97
264158 Off ch=9 n=50 v=97
264160 On ch=9 n=52 v=91
264238 Off ch=9 n=52 v=91
264240 On ch=9 n=53 v=98
264318 Off ch=9 n=53 v=98
264320 On ch=9 n=55 v=70
264398 Off ch=9 n=55 v=70
264400 On ch=9 n=57 v=92
264478 Off ch=9 n=57 v=92
264480 On ch=9 n=59 v=81
264558 Off ch=9 n=59 v=81
264560 On ch=9 n=60 v=91
264638 Off ch=9 n=60 v=91
264640 On ch=9 n=62 v=87
264718 Off ch=9 n=62 v=87
264720 On ch=9 n=64 v=88
264798 Off ch=9 n=64 v=88
264800 On ch=9 n=65 v=84
264878 Off ch=9 n=65 v=84
264880 On ch=9 n=67 v=83
264958 Off ch=9 n=67 v=83
264960 On ch=9 n=69 v=83
265038 Off ch=9 n=69 v=83
265040 On ch=9 n=71 v=90
265118 Off ch=9 n=71 v=90
265120 On ch=9 n=72 v=81
265198 Off ch=9 n=72 v=81
265200 On ch=9 n=74 v=91
265278 Off ch=9 n=74 v=91
265280 On ch=9 n=76 v=87
265358 Off ch=9 n=76 v=87
265360 On ch=9 n=77 v=98
265438 Off ch=9 n=77 v=98
265440 On ch=9 n=79 v=90
265518 Off ch=9 n=79 v=90
265520 On ch=9 n=81 v=95
265598 Off ch=9 n=81 v=95
265600 On ch=9 n=83 v=87
265678 Off ch=9 n=83 v=87
265680 On ch=9 n=84 v=97
265758 Off ch=9 n=84 v=97
265760 On ch=9 n=86 v=90
265838 Off ch=9 n=86 v=90
265840 On ch=9 n=88 v=92
265918 Off ch=9 n=88 v=92
265920 On ch=9 n=48 v=46
265920 On ch=9 n=89 v=84
265998 Off ch=9 n=48 v=46
265998 Off ch=9 n=89 v=84
266000 On ch=9 n=50 v=57
266000 On ch=9 n=91 v=81
266078 Off ch=9 n=50 v=57
266078 Off ch=9 n=91 v=81
266080 On ch=9 n=52 v=51
266080 On ch=9 n=93 v=80
266158 Off ch=9 n=52 v=51
266158 Off ch=9 n=93 v=80
266160 On ch=9 n=53 v=68
266160 On ch=9 n=95 v=74
266238 Off ch=9 n=53 v=68
266238 Off ch=9 n=95 v=74
266240 On ch=9 n=55 v=40
266240 On ch=9 n=96 v=83
266318 Off ch=9 n=55 v=40
266318 Off ch=9 n=96 v=83
266320 On ch=9 n=57 v=62
266320 On ch=9 n=98 v=90
266398 Off ch=9 n=57 v=62
266398 Off ch=9 n=98 v=90
266400 On ch=9 n=59 v=61
266400 On ch=9 n=96 v=83
266478 Off ch=9 n=59 v=61
266478 Off ch=9 n=96 v=83
266480 On ch=9 n=60 v=71
266480 On ch=9 n=95 v=80
266558 Off ch=9 n=60 v=71
266558 Off ch=9 n=95 v=80
266560 On ch=9 n=62 v=67
266560 On ch=9 n=93 v=83
266638 Off ch=9 n=62 v=67
266638 Off ch=9 n=93 v=83
266640 On ch=9 n=64 v=78
266640 On ch=9 n=91 v=81
266718 Off ch=9 n=64 v=78
266718 Off ch=9 n=91 v=81
266720 On ch=9 n=65 v=74
266720 On ch=9 n=89 v=76
266798 Off ch=9 n=65 v=74
266798 Off ch=9 n=89 v=76
266800 On ch=9 n=67 v=73
266800 On ch=9 n=88 v=81
266878 Off ch=9 n=67 v=73
266878 Off ch=9 n=88 v=81
266880 On ch=9 n=69 v=78
266880 On ch=9 n=86 v=90
266958 Off ch=9 n=69 v=78
266958 Off ch=9 n=86 v=90
266960 On ch=9 n=71 v=85
266960 On ch=9 n=84 v=95
267038 Off ch=9 n=71 v=85
267038 Off ch=9 n=84 v=95
267040 On ch=9 n=72 v=76
267040 On ch=9 n=83 v=88
267118 Off ch=9 n=72 v=76
267118 Off ch=9 n=83 v=88
267120 On ch=9 n=74 v=91
267120 On ch=9 n=81 v=88
267198 Off ch=9 n=74 v=91
267198 Off ch=9 n=81 v=88
267200 On ch=9 n=76 v=87
267200 On ch=9 n=79 v=84
267278 Off ch=9 n=76 v=87
267278 Off ch=9 n=79 v=84
267280 On ch=9 n=77 v=86
267358 Off ch=9 n=77 v=86
267360 On ch=9 n=79 v=90
267360 On ch=9 n=76 v=81
267438 Off ch=9 n=79 v=90
267438 Off ch=9 n=76 v=81
267440 On ch=9 n=81 v=95
267440 On ch=9 n=74 v=94
267518 Off ch=9 n=81 v=95
267518 Off ch=9 n=74 v=94
267520 On ch=9 n=83 v=87
267520 On ch=9 n=72 v=91
267598 Off ch=9 n=83 v=87
267598 Off ch=9 n=72 v=91
267600 On ch=9 n=84 v=97
267600 On ch=9 n=71 v=80
267678 Off ch=9 n=84 v=97
267678 Off ch=9 n=71 v=80
267680 On ch=9 n=86 v=90
267680 On ch=9 n=69 v=75
267758 Off ch=9 n=86 v=90
267758 Off ch=9 n=69 v=75
267760 On ch=9 n=88 v=92
267760 On ch=9 n=67 v=84
267838 Off ch=9 n=88 v=92
267838 Off ch=9 n=67 v=84
267840 On ch=9 n=48 v=46
267840 On ch=9 n=89 v=84
267918 Off ch=9 n=48 v=46
267918 Off ch=9 n=89 v=84
267920 On ch=9 n=50 v=57
267920 On ch=9 n=91 v=81
267998 Off ch=9 n=50 v=57
267998 Off ch=9 n=91 v=81
268000 On ch=9 n=52 v=51
268000 On ch=9 n=93 v=80
268078 Off ch=9 n=52 v=51
268078 Off ch=9 n=93 v=80
268080 On ch=9 n=53 v=68
268080 On ch=9 n=95 v=74
268158 Off ch=9 n=53 v=68
268158 Off ch=9 n=95 v=74
268160 On ch=9 n=55 v=40
268160 On ch=9 n=96 v=83
268238 Off ch=9 n=55 v=40
268238 Off ch=9 n=96 v=83
268240 On ch=9 n=57 v=62
268240 On ch=9 n=98 v=90
268318 Off ch=9 n=57 v=62
268318 Off ch=9 n=98 v=90
268320 On ch=9 n=59 v=61
268320 On ch=9 n=96 v=83
268398 Off ch=9 n=59 v=61
268398 Off ch=9 n=96 v=83
268400 On ch=9 n=60 v=71
268400 On ch=9 n=95 v=80
268478 Off ch=9 n=60 v=71
268478 Off ch=9 n=95 v=80
268480 On ch=9 n=62 v=67
268480 On ch=9 n=93 v=83
268558 Off ch=9 n=62 v=67
268558 Off ch=9 n=93 v=83
268560 On ch=9 n=64 v=78
268560 On ch=9 n=91 v=81
268638 Off ch=9 n=64 v=78
268638 Off ch=9 n=91 v=81
268640 On ch=9 n=65 v=74
268640 On ch=9 n=89 v=76
268718 Off ch=9 n=65 v=74
268718 Off ch=9 n=89 v=76
268720 On ch=9 n=67 v=73
268720 On ch=9 n=88 v=81
268798 Off ch=9 n=67 v=73
268798 Off ch=9 n=88 v=81
268800 On ch=9 n=69 v=78
268800 On ch=9 n=86 v=90
268878 Off ch=9 n=69 v=78
268878 Off ch=9 n=86 v=90
268880 On ch=9 n=71 v=85
268880 On ch=9 n=84 v=95
268958 Off ch=9 n=71 v=85
268958 Off ch=9 n=84 v=95
268960 On ch=9 n=72 v=76
268960 On ch=9 n=83 v=88
269038 Off ch=9 n=72 v=76
269038 Off ch=9 n=83 v=88
269040 On ch=9 n=74 v=91
269040 On ch=9 n=81 v=88
269118 Off ch=9 n=74 v=91
269118 Off ch=9 n=81 v=88
269120 On ch=9 n=76 v=87
269120 On ch=9 n=79 v=84
269198 Off ch=9 n=76 v=87
269198 Off ch=9 n=79 v=84
269200 On ch=9 n=77 v=86
269278 Off ch=9 n=77 v=86
269280 On ch=9 n=79 v=90
269280 On ch=9 n=76 v=81
269358 Off ch=9 n=79 v=90
269358 Off ch=9 n=76 v=81
269360 On ch=9 n=81 v=95
269360 On ch=9 n=74 v=94
269438 Off ch=9 n=81 v=95
269438 Off ch=9 n=74 v=94
269440 On ch=9 n=83 v=87
269440 On ch=9 n=72 v=91
269518 Off ch=9 n=83 v=87
269518 Off ch=9 n=72 v=91
269520 On ch=9 n=84 v=97
269520 On ch=9 n=71 v=80
269598 Off ch=9 n=84 v=97
269598 Off ch=9 n=71 v=80
269600 On ch=9 n=86 v=90
269600 On ch=9 n=69 v=75
269678 Off ch=9 n=86 v=90
269678 Off ch=9 n=69 v=75
269680 On ch=9 n=88 v=92
269680 On ch=9 n=67 v=84
269758 Off ch=9 n=88 v=92
269758 Off ch=9 n=67 v=84
269760 On ch=9 n=48 v=46
269760 On ch=9 n=89 v=84
269838 Off ch=9 n=48 v=46
269838 Off ch=9 n=89 v=84
269840 On ch=9 n=50 v=57
269840 On ch=9 n=91 v=81
269918 Off ch=9 n=50 v=57
269918 Off ch=9 n=91 v=81
269920 On ch=9 n=52 v=51
269920 On ch=9 n=93 v=80
269998 Off ch=9 n=52 v=51
269998 Off ch=9 n=93 v=80
270000 On ch=9 n=53 v=68
270000 On ch=9 n=95 v=74
270078 Off ch=9 n=53 v=68
270078 Off ch=9 n=95 v=74
270080 On ch=9 n=55 v=40
270080 On ch=9 n=96 v=83
270158 Off ch=9 n=55 v=40
270158 Off ch=9 n=96 v=83
270160 On ch=9 n=57 v=62
270160 On ch=9 n=98 v=90
270238 Off ch=9 n=57 v=62
270238 Off ch=9 n=98 v=90
270240 On ch=9 n=59 v=61
270240 On ch=9 n=96 v=83
270318 Off ch=9 n=59 v=61
270318 Off ch=9 n=96 v=83
270320 On ch=9 n=60 v=71
270320 On ch=9 n=95 v=80
270398 Off ch=9 n=60 v=71
270398 Off ch=9 n=95 v=80
270400 On ch=9 n=62 v=67
270400 On ch=9 n=93 v=83
270478 Off ch=9 n=62 v=67
270478 Off ch=9 n=93 v=83
270480 On ch=9 n=64 v=78
270480 On ch=9 n=91 v=81
270558 Off ch=9 n=64 v=78
270558 Off ch=9 n=91 v=81
270560 On ch=9 n=65 v=74
270560 On ch=9 n=89 v=76
270638 Off ch=9 n=65 v=74
270638 Off ch=9 n=89 v=76
270640 On ch=9 n=67 v=73
270640 On ch=9 n=88 v=81
270718 Off ch=9 n=67 v=73
270718 Off ch=9 n=88 v=81
270720 On ch=9 n=69 v=78
270720 On ch=9 n=86 v=90
270798 Off ch=9 n=69 v=78
270798 Off ch=9 n=86 v=90
270800 On ch=9 n=71 v=85
270800 On ch=9 n=84 v=95
270878 Off ch=9 n=71 v=85
270878 Off ch=9 n=84 v=95
270880 On ch=9 n=72 v=76
270880 On ch=9 n=83 v=88
270958 Off ch=9 n=72 v=76
270958 Off ch=9 n=83 v=88
270960 On ch=9 n=74 v=91
270960 On ch=9 n=81 v=88
271038 Off ch=9 n=74 v=91
271038 Off ch=9 n=81 v=88
271040 On ch=9 n=76 v=87
271040 On ch=9 n=79 v=84
271118 Off ch=9 n=76 v=87
271118 Off ch=9 n=79 v=84
271120 On ch=9 n=77 v=86
271198 Off ch=9 n=77 v=86
271200 On ch=9 n=79 v=90
271200 On ch=9 n=76 v=81
271278 Off ch=9 n=79 v=90
271278 Off ch=9 n=76 v=81
271280 On ch=9 n=81 v=95
271280 On ch=9 n=74 v=94
271358 Off ch=9 n=81 v=95
271358 Off ch=9 n=74 v=94
271360 On ch=9 n=83 v=87
271360 On ch=9 n=72 v=91
271438 Off ch=9 n=83 v=87
271438 Off ch=9 n=72 v=91
271440 On ch=9 n=84 v=97
271440 On ch=9 n=71 v=80
271518 Off ch=9 n=84 v=97
271518 Off ch=9 n=71 v=80
271520 On ch=9 n=86 v=90
271520 On ch=9 n=69 v=75
271598 Off ch=9 n=86 v=90
271598 Off ch=9 n=69 v=75
271600 On ch=9 n=88 v=92
271600 On ch=9 n=67 v=84
271678 Off ch=9 n=88 v=92
271678 Off ch=9 n=67 v=84
271680 On ch=9 n=48 v=46
271680 On ch=9 n=89 v=84
271758 Off ch=9 n=48 v=46
271758 Off ch=9 n=89 v=84
271760 On ch=9 n=50 v=57
271760 On ch=9 n=91 v=81
271838 Off ch=9 n=50 v=57
271838 Off ch=9 n=91 v=81
271840 On ch=9 n=52 v=51
271840 On ch=9 n=93 v=80
271918 Off ch=9 n=52 v=51
271918 Off ch=9 n=93 v=80
271920 On ch=9 n=53 v=68
271920 On ch=9 n=95 v=74
271998 Off ch=9 n=53 v=68
271998 Off ch=9 n=95 v=74
272000 On ch=9 n=55 v=40
272000 On ch=9 n=96 v=83
272078 Off ch=9 n=55 v=40
272078 Off ch=9 n=96 v=83
272080 On ch=9 n=57 v=62
272080 On ch=9 n=98 v=90
272158 Off ch=9 n=57 v=62
272158 Off ch=9 n=98 v=90
272160 On ch=9 n=59 v=61
272160 On ch=9 n=96 v=83
272238 Off ch=9 n=59 v=61
272238 Off ch=9 n=96 v=83
272240 On ch=9 n=60 v=71
272240 On ch=9 n=95 v=80
272318 Off ch=9 n=60 v=71
272318 Off ch=9 n=95 v=80
272320 On ch=9 n=62 v=67
272320 On ch=9 n=93 v=83
272398 Off ch=9 n=62 v=67
272398 Off ch=9 n=93 v=83
272400 On ch=9 n=64 v=78
272400 On ch=9 n=91 v=81
272478 Off ch=9 n=64 v=78
272478 Off ch=9 n=91 v=81
272480 On ch=9 n=65 v=74
272480 On ch=9 n=89 v=76
272558 Off ch=9 n=65 v=74
272558 Off ch=9 n=89 v=76
272560 On ch=9 n=67 v=73
272560 On ch=9 n=88 v=81
272638 Off ch=9 n=67 v=73
272638 Off ch=9 n=88 v=81
272640 On ch=9 n=69 v=78
272640 On ch=9 n=86 v=90
272718 Off ch=9 n=69 v=78
272718 Off ch=9 n=86 v=90
272720 On ch=9 n=71 v=85
272720 On ch=9 n=84 v=95
272798 Off ch=9 n=71 v=85
272798 Off ch=9 n=84 v=95
272800 On ch=9 n=72 v=76
272800 On ch=9 n=83 v=88
272878 Off ch=9 n=72 v=76
272878 Off ch=9 n=83 v=88
272880 On ch=9 n=74 v=91
272880 On ch=9 n=81 v=88
272958 Off ch=9 n=74 v=91
272958 Off ch=9 n=81 v=88
272960 On ch=9 n=76 v=87
272960 On ch=9 n=79 v=84
273038 Off ch=9 n=76 v=87
273038 Off ch=9 n=79 v=84
273040 On ch=9 n=77 v=86
273118 Off ch=9 n=77 v=86
273120 On ch=9 n=79 v=90
273120 On ch=9 n=76 v=81
273198 Off ch=9 n=79 v=90
273198 Off ch=9 n=76 v=81
273200 On ch=9 n=81 v=95
273200 On ch=9 n=74 v=94
273278 Off ch=9 n=81 v=95
273278 Off ch=9 n=74 v=94
273280 On ch=9 n=83 v=87
273280 On ch=9 n=72 v=91
273358 Off ch=9 n=83 v=87
273358 Off ch=9 n=72 v=91
273360 On ch=9 n=84 v=97
273360 On ch=9 n=71 v=80
273438 Off ch=9 n=84 v=97
273438 Off ch=9 n=71 v=80
273440 On ch=9 n=86 v=90
273440 On ch=9 n=69 v=75
273518 Off ch=9 n=86 v=90
273518 Off ch=9 n=69 v=75
273520 On ch=9 n=88 v=92
273520 On ch=9 n=67 v=84
273598 Off ch=9 n=88 v=92
273598 Off ch=9 n=67 v=84
273600 On ch=9 n=89 v=84
273678 Off ch=9 n=89 v=84
273680 On ch=9 n=91 v=81
273758 Off ch=9 n=91 v=81
273760 On ch=9 n=93 v=80
273838 Off ch=9 n=93 v=80
273840 On ch=9 n=95 v=74
273918 Off ch=9 n=95 v=74
273920 On ch=9 n=96 v=83
273998 Off ch=9 n=96 v=83
274000 On ch=9 n=98 v=90
274078 Off ch=9 n=98 v=90
274080 On ch=9 n=96 v=83
274158 Off ch=9 n=96 v=83
274160 On ch=9 n=95 v=80
274238 Off ch=9 n=95 v=80
274240 On ch=9 n=93 v=83
274318 Off ch=9 n=93 v=83
274320 On ch=9 n=91 v=81
274398 Off ch=9 n=91 v=81
274400 On ch=9 n=89 v=76
274478 Off ch=9 n=89 v=76
274480 On ch=9 n=88 v=81
274558 Off ch=9 n=88 v=81
274560 On ch=9 n=86 v=90
274638 Off ch=9 n=86 v=90
274640 On ch=9 n=84 v=95
274718 Off ch=9 n=84 v=95
274720 On ch=9 n=83 v=88
274798 Off ch=9 n=83 v=88
274800 On ch=9 n=81 v=88
274878 Off ch=9 n=81 v=88
274880 On ch=9 n=79 v=84
274958 Off ch=9 n=79 v=84
274960 On ch=9 n=77 v=86
275038 Off ch=9 n=77 v=86
275040 On ch=9 n=76 v=81
275118 Off ch=9 n=76 v=81
275120 On ch=9 n=74 v=94
275198 Off ch=9 n=74 v=94
275200 On ch=9 n=72 v=91
275278 Off ch=9 n=72 v=91
275280 On ch=9 n=71 v=80
275358 Off ch=9 n=71 v=80
275360 On ch=9 n=69 v=75
275438 Off ch=9 n=69 v=75
275440 On ch=9 n=67 v=84
275518 Off ch=9 n=67 v=84
329040 Meta TrkEnd
TrkEnd
MTrk
0 Meta TrkName "White"
0 Meta 0x20 09
0 Meta InstrName "White"
0 KeySig 0 major
730 PrCh ch=10 p=0
735 Par ch=10 c=7 v=100
740 Par ch=10 c=10 v=64
745 Par ch=10 c=91 v=73
750 Par ch=10 c=93 v=0
755 Par ch=10 c=101 v=0
755 Par ch=10 c=100 v=0
755 Par ch=10 c=6 v=2
760 Par ch=10 c=99 v=1
760 Par ch=10 c=98 v=8
760 Par ch=10 c=6 v=64
765 Par ch=10 c=99 v=1
765 Par ch=10 c=98 v=9
765 Par ch=10 c=6 v=64
770 Par ch=10 c=99 v=1
770 Par ch=10 c=98 v=10
770 Par ch=10 c=6 v=64
775 Par ch=10 c=99 v=1
775 Par ch=10 c=98 v=32
775 Par ch=10 c=6 v=64
780 Par ch=10 c=99 v=1
780 Par ch=10 c=98 v=33
780 Par ch=10 c=6 v=64
785 Par ch=10 c=99 v=1
785 Par ch=10 c=98 v=99
785 Par ch=10 c=6 v=64
790 Par ch=10 c=99 v=1
790 Par ch=10 c=98 v=100
790 Par ch=10 c=6 v=64
795 Par ch=10 c=99 v=1
795 Par ch=10 c=98 v=102
795 Par ch=10 c=6 v=64
800 Par ch=10 c=99 v=24
800 Par ch=10 c=98 v=36
800 Par ch=10 c=6 v=72
805 Par ch=10 c=99 v=24
805 Par ch=10 c=98 v=38
805 Par ch=10 c=6 v=68
810 Par ch=10 c=99 v=29
810 Par ch=10 c=98 v=38
810 Par ch=10 c=6 v=99
815 Par ch=10 c=99 v=29
815 Par ch=10 c=98 v=42
815 Par ch=10 c=6 v=92
820 Par ch=10 c=99 v=29
820 Par ch=10 c=98 v=44
820 Par ch=10 c=6 v=83
825 Par ch=10 c=99 v=24
825 Par ch=10 c=98 v=57
825 Par ch=10 c=6 v=63
16554 On ch=10 n=48 v=120
16705 Off ch=10 n=48 v=120
16801 On ch=10 n=48 v=122
16949 Off ch=10 n=48 v=122
17041 On ch=10 n=47 v=102
17194 Off ch=10 n=47 v=102
17280 On ch=10 n=47 v=120
17451 Off ch=10 n=47 v=120
17515 On ch=10 n=45 v=90
17719 Off ch=10 n=45 v=90
17752 On ch=10 n=45 v=122
17948 Off ch=10 n=45 v=122
18001 On ch=10 n=45 v=127
18168 Off ch=10 n=45 v=127
18240 On ch=10 n=36 v=95
18245 On ch=10 n=49 v=122
18329 Off ch=10 n=49 v=122
18358 Off ch=10 n=36 v=95
18604 Par ch=10 c=7 v=100
18661 Par ch=10 c=7 v=82
18720 Par ch=10 c=7 v=64
18781 Par ch=10 c=7 v=32
18840 Par ch=10 c=7 v=0
19920 Par ch=10 c=7 v=100
20160 On ch=10 n=47 v=106
20284 Off ch=10 n=47 v=106
20402 On ch=10 n=47 v=110
20534 Off ch=10 n=47 v=110
20638 On ch=10 n=45 v=98
20773 Off ch=10 n=45 v=98
20883 On ch=10 n=45 v=110
21017 Off ch=10 n=45 v=110
21120 On ch=10 n=43 v=92
21255 Off ch=10 n=43 v=92
21361 On ch=10 n=43 v=86
21492 Off ch=10 n=43 v=86
21600 On ch=10 n=36 v=102
21600 On ch=10 n=49 v=119
21718 Off ch=10 n=36 v=102
21718 Off ch=10 n=49 v=119
23999 On ch=10 n=38 v=100
24155 Off ch=10 n=38 v=100
24240 On ch=10 n=38 v=86
24389 Off ch=10 n=38 v=86
24479 On ch=10 n=36 v=127
24483 On ch=10 n=49 v=107
24725 Off ch=10 n=36 v=127
24885 Off ch=10 n=49 v=107
24962 On ch=10 n=38 v=102
25082 Off ch=10 n=38 v=102
25198 On ch=10 n=57 v=88
25203 On ch=10 n=36 v=117
25427 Off ch=10 n=57 v=88
25536 Off ch=10 n=36 v=117
25681 On ch=10 n=38 v=104
25799 Off ch=10 n=38 v=104
25920 On ch=10 n=49 v=105
25930 On ch=10 n=36 v=112
26209 Off ch=10 n=36 v=112
26214 Off ch=10 n=49 v=105
26880 On ch=10 n=38 v=110
26938 Off ch=10 n=38 v=110
27120 On ch=10 n=38 v=108
27178 Off ch=10 n=38 v=108
27360 On ch=10 n=38 v=110
27418 Off ch=10 n=38 v=110
27600 On ch=10 n=42 v=97
27718 Off ch=10 n=42 v=97
27840 On ch=10 n=42 v=110
27922 Off ch=10 n=42 v=110
28077 On ch=10 n=42 v=91
28080 On ch=10 n=38 v=98
28175 Off ch=10 n=42 v=91
28198 Off ch=10 n=38 v=98
28319 On ch=10 n=42 v=99
28411 Off ch=10 n=42 v=99
28560 On ch=10 n=36 v=108
28566 On ch=10 n=42 v=99
28652 Off ch=10 n=42 v=99
28678 Off ch=10 n=36 v=108
28800 On ch=10 n=36 v=70
28805 On ch=10 n=42 v=101
28894 Off ch=10 n=42 v=101
28918 Off ch=10 n=36 v=70
29040 On ch=10 n=38 v=100
29045 On ch=10 n=42 v=84
29105 Off ch=10 n=42 v=84
29158 Off ch=10 n=38 v=100
29281 On ch=10 n=42 v=93
29359 Off ch=10 n=42 v=93
29517 On ch=10 n=42 v=89
29520 On ch=10 n=36 v=120
29590 Off ch=10 n=42 v=89
29638 Off ch=10 n=36 v=120
29751 On ch=10 n=42 v=87
29760 On ch=10 n=36 v=108
29833 Off ch=10 n=42 v=87
29878 Off ch=10 n=36 v=108
29986 On ch=10 n=42 v=91
30000 On ch=10 n=38 v=106
30073 Off ch=10 n=42 v=91
30118 Off ch=10 n=38 v=106
30226 On ch=10 n=42 v=97
30320 Off ch=10 n=42 v=97
30473 On ch=10 n=42 v=95
30480 On ch=10 n=36 v=108
30570 Off ch=10 n=42 v=95
30598 Off ch=10 n=36 v=108
30720 On ch=10 n=36 v=92
30721 On ch=10 n=42 v=97
30822 Off ch=10 n=42 v=97
30838 Off ch=10 n=36 v=92
30960 On ch=10 n=38 v=102
30968 On ch=10 n=42 v=93
31051 Off ch=10 n=42 v=93
31078 Off ch=10 n=38 v=102
31210 On ch=10 n=42 v=97
31301 Off ch=10 n=42 v=97
31440 On ch=10 n=36 v=106
31452 On ch=10 n=42 v=91
31535 Off ch=10 n=42 v=91
31558 Off ch=10 n=36 v=106
31680 On ch=10 n=36 v=97
31693 On ch=10 n=42 v=99
31789 Off ch=10 n=42 v=99
31798 Off ch=10 n=36 v=97
31920 On ch=10 n=38 v=91
31925 On ch=10 n=42 v=91
32009 Off ch=10 n=42 v=91
32038 Off ch=10 n=38 v=91
32170 On ch=10 n=42 v=99
32259 Off ch=10 n=42 v=99
32400 On ch=10 n=36 v=102
32413 On ch=10 n=42 v=89
32492 Off ch=10 n=42 v=89
32518 Off ch=10 n=36 v=102
32640 On ch=10 n=36 v=85
32648 On ch=10 n=42 v=97
32734 Off ch=10 n=42 v=97
32758 Off ch=10 n=36 v=85
32880 On ch=10 n=38 v=98
32884 On ch=10 n=42 v=91
32972 Off ch=10 n=42 v=91
32998 Off ch=10 n=38 v=98
33122 On ch=10 n=42 v=93
33214 Off ch=10 n=42 v=93
33359 On ch=10 n=42 v=93
33360 On ch=10 n=36 v=106
33448 Off ch=10 n=42 v=93
33478 Off ch=10 n=36 v=106
33598 On ch=10 n=42 v=91
33600 On ch=10 n=36 v=106
33688 Off ch=10 n=42 v=91
33718 Off ch=10 n=36 v=106
33839 On ch=10 n=42 v=93
33840 On ch=10 n=38 v=106
33932 Off ch=10 n=42 v=93
33958 Off ch=10 n=38 v=106
34080 On ch=10 n=42 v=93
34167 Off ch=10 n=42 v=93
34320 On ch=10 n=36 v=104
34323 On ch=10 n=42 v=63
34371 Off ch=10 n=42 v=63
34438 Off ch=10 n=36 v=104
34558 On ch=10 n=42 v=71
34560 On ch=10 n=36 v=106
34626 Off ch=10 n=42 v=71
34678 Off ch=10 n=36 v=106
34792 On ch=10 n=42 v=78
34800 On ch=10 n=38 v=106
34892 Off ch=10 n=42 v=78
34918 Off ch=10 n=38 v=106
35037 On ch=10 n=42 v=95
35138 Off ch=10 n=42 v=95
35280 On ch=10 n=36 v=104
35283 On ch=10 n=42 v=95
35392 Off ch=10 n=42 v=95
35398 Off ch=10 n=36 v=104
35520 On ch=10 n=36 v=97
35529 On ch=10 n=42 v=91
35626 Off ch=10 n=42 v=91
35638 Off ch=10 n=36 v=97
35760 On ch=10 n=38 v=104
35769 On ch=10 n=42 v=91
35868 Off ch=10 n=42 v=91
35878 Off ch=10 n=38 v=104
36008 On ch=10 n=42 v=84
36098 Off ch=10 n=42 v=84
36240 On ch=10 n=38 v=95
36243 On ch=10 n=42 v=82
36264 Off ch=10 n=42 v=82
36298 Off ch=10 n=38 v=95
36478 On ch=10 n=42 v=78
36480 On ch=10 n=38 v=85
36504 Off ch=10 n=42 v=78
36538 Off ch=10 n=38 v=85
36718 On ch=10 n=42 v=81
36719 On ch=10 n=38 v=104
36753 Off ch=10 n=42 v=81
36777 Off ch=10 n=38 v=104
36960 On ch=10 n=36 v=110
36961 On ch=10 n=49 v=79
37078 Off ch=10 n=36 v=110
37130 Off ch=10 n=49 v=79
37440 On ch=10 n=38 v=95
37573 Off ch=10 n=38 v=95
37681 On ch=10 n=36 v=100
37681 On ch=10 n=57 v=84
37799 Off ch=10 n=36 v=100
37923 Off ch=10 n=57 v=84
38154 On ch=10 n=38 v=91
38294 Off ch=10 n=38 v=91
38397 On ch=10 n=36 v=117
38401 On ch=10 n=49 v=89
38515 Off ch=10 n=36 v=117
38594 Off ch=10 n=49 v=89
39356 On ch=10 n=38 v=99
39369 On ch=10 n=42 v=75
39469 Off ch=10 n=42 v=75
39473 Off ch=10 n=38 v=99
39601 On ch=10 n=38 v=87
39610 On ch=10 n=42 v=81
39716 Off ch=10 n=42 v=81
39723 Off ch=10 n=38 v=87
39840 On ch=10 n=38 v=98
39852 On ch=10 n=42 v=87
39956 Off ch=10 n=42 v=87
39958 Off ch=10 n=38 v=98
40080 On ch=10 n=38 v=95
40082 On ch=10 n=42 v=67
40155 Off ch=10 n=42 v=67
40198 Off ch=10 n=38 v=95
40320 On ch=10 n=36 v=106
40328 On ch=10 n=42 v=93
40411 Off ch=10 n=42 v=93
40438 Off ch=10 n=36 v=106
40560 On ch=10 n=36 v=97
40570 On ch=10 n=42 v=97
40661 Off ch=10 n=42 v=97
40678 Off ch=10 n=36 v=97
40800 On ch=10 n=38 v=91
40812 On ch=10 n=42 v=91
40895 Off ch=10 n=42 v=91
40918 Off ch=10 n=38 v=91
41053 On ch=10 n=42 v=99
41149 Off ch=10 n=42 v=99
41280 On ch=10 n=36 v=102
41285 On ch=10 n=42 v=91
41369 Off ch=10 n=42 v=91
41398 Off ch=10 n=36 v=102
41520 On ch=10 n=36 v=85
41530 On ch=10 n=42 v=99
41619 Off ch=10 n=42 v=99
41638 Off ch=10 n=36 v=85
41760 On ch=10 n=38 v=102
41773 On ch=10 n=42 v=89
41852 Off ch=10 n=42 v=89
41878 Off ch=10 n=38 v=102
42008 On ch=10 n=42 v=97
42094 Off ch=10 n=42 v=97
42240 On ch=10 n=36 v=106
42244 On ch=10 n=42 v=91
42332 Off ch=10 n=42 v=91
42358 Off ch=10 n=36 v=106
42480 On ch=10 n=36 v=106
42482 On ch=10 n=42 v=93
42574 Off ch=10 n=42 v=93
42598 Off ch=10 n=36 v=106
42719 On ch=10 n=42 v=93
42720 On ch=10 n=38 v=98
42808 Off ch=10 n=42 v=93
42838 Off ch=10 n=38 v=98
42958 On ch=10 n=42 v=91
43048 Off ch=10 n=42 v=91
43200 On ch=10 n=36 v=106
43208 On ch=10 n=42 v=93
43291 Off ch=10 n=42 v=93
43318 Off ch=10 n=36 v=106
43440 On ch=10 n=36 v=97
43450 On ch=10 n=42 v=97
43541 Off ch=10 n=42 v=97
43558 Off ch=10 n=36 v=97
43680 On ch=10 n=38 v=91
43692 On ch=10 n=42 v=91
43775 Off ch=10 n=42 v=91
43798 Off ch=10 n=38 v=91
43933 On ch=10 n=42 v=99
44029 Off ch=10 n=42 v=99
44160 On ch=10 n=36 v=102
44165 On ch=10 n=42 v=91
44249 Off ch=10 n=42 v=91
44278 Off ch=10 n=36 v=102
44400 On ch=10 n=36 v=85
44410 On ch=10 n=42 v=99
44499 Off ch=10 n=42 v=99
44518 Off ch=10 n=36 v=85
44640 On ch=10 n=38 v=102
44653 On ch=10 n=42 v=89
44732 Off ch=10 n=42 v=89
44758 Off ch=10 n=38 v=102
44888 On ch=10 n=42 v=97
44974 Off ch=10 n=42 v=97
45120 On ch=10 n=36 v=106
45124 On ch=10 n=42 v=91
45212 Off ch=10 n=42 v=91
45238 Off ch=10 n=36 v=106
45360 On ch=10 n=36 v=106
45362 On ch=10 n=42 v=93
45454 Off ch=10 n=42 v=93
45478 Off ch=10 n=36 v=106
45599 On ch=10 n=42 v=93
45600 On ch=10 n=38 v=98
45688 Off ch=10 n=42 v=93
45718 Off ch=10 n=38 v=98
45838 On ch=10 n=42 v=91
45928 Off ch=10 n=42 v=91
46077 On ch=10 n=36 v=106
46079 On ch=10 n=42 v=93
46172 Off ch=10 n=42 v=93
46195 Off ch=10 n=36 v=106
46320 On ch=10 n=42 v=93
46321 On ch=10 n=36 v=97
46407 Off ch=10 n=42 v=93
46439 Off ch=10 n=36 v=97
46562 On ch=10 n=38 v=106
46568 On ch=10 n=42 v=93
46651 Off ch=10 n=42 v=93
46680 Off ch=10 n=38 v=106
46810 On ch=10 n=42 v=97
46901 Off ch=10 n=42 v=97
47040 On ch=10 n=36 v=104
47043 On ch=10 n=42 v=63
47091 Off ch=10 n=42 v=63
47158 Off ch=10 n=36 v=104
47278 On ch=10 n=42 v=71
47280 On ch=10 n=36 v=106
47346 Off ch=10 n=42 v=71
47398 Off ch=10 n=36 v=106
47512 On ch=10 n=42 v=78
47520 On ch=10 n=38 v=106
47612 Off ch=10 n=42 v=78
47638 Off ch=10 n=38 v=106
47757 On ch=10 n=42 v=95
47858 Off ch=10 n=42 v=95
48000 On ch=10 n=36 v=104
48003 On ch=10 n=42 v=95
48112 Off ch=10 n=42 v=95
48118 Off ch=10 n=36 v=104
48240 On ch=10 n=36 v=97
48249 On ch=10 n=42 v=91
48346 Off ch=10 n=42 v=91
48358 Off ch=10 n=36 v=97
48480 On ch=10 n=38 v=104
48489 On ch=10 n=42 v=91
48588 Off ch=10 n=42 v=91
48598 Off ch=10 n=38 v=104
48728 On ch=10 n=42 v=84
48818 Off ch=10 n=42 v=84
48960 On ch=10 n=36 v=91
48965 On ch=10 n=42 v=85
49047 Off ch=10 n=42 v=85
49078 Off ch=10 n=36 v=91
49200 On ch=10 n=38 v=95
49203 On ch=10 n=42 v=82
49284 Off ch=10 n=42 v=82
49318 Off ch=10 n=38 v=95
49438 On ch=10 n=42 v=81
49439 On ch=10 n=38 v=104
49533 Off ch=10 n=42 v=81
49557 Off ch=10 n=38 v=104
49678 On ch=10 n=42 v=78
49680 On ch=10 n=38 v=85
49764 Off ch=10 n=42 v=78
49798 Off ch=10 n=38 v=85
49920 On ch=10 n=36 v=110
49921 On ch=10 n=49 v=79
50038 Off ch=10 n=36 v=110
50090 Off ch=10 n=49 v=79
50400 On ch=10 n=38 v=95
50533 Off ch=10 n=38 v=95
50641 On ch=10 n=36 v=100
50641 On ch=10 n=57 v=84
50759 Off ch=10 n=36 v=100
50883 Off ch=10 n=57 v=84
51114 On ch=10 n=38 v=91
51254 Off ch=10 n=38 v=91
51360 On ch=10 n=49 v=89
51360 On ch=10 n=36 v=84
51478 Off ch=10 n=49 v=89
51478 Off ch=10 n=36 v=84
52080 On ch=10 n=46 v=101
52198 Off ch=10 n=46 v=101
52320 On ch=10 n=44 v=107
52438 Off ch=10 n=44 v=107
52560 On ch=10 n=36 v=105
52682 Off ch=10 n=36 v=105
52800 On ch=10 n=38 v=115
52914 Off ch=10 n=38 v=115
53040 On ch=10 n=36 v=112
53158 Off ch=10 n=36 v=112
53280 On ch=10 n=36 v=117
53398 Off ch=10 n=36 v=117
53520 On ch=10 n=36 v=100
53520 On ch=10 n=49 v=99
53638 Off ch=10 n=36 v=100
53642 Off ch=10 n=49 v=99
53760 On ch=10 n=44 v=97
53878 Off ch=10 n=44 v=97
54000 On ch=10 n=42 v=45
54118 Off ch=10 n=42 v=45
54240 On ch=10 n=44 v=99
54358 Off ch=10 n=44 v=99
54480 On ch=10 n=42 v=41
54598 Off ch=10 n=42 v=41
54720 On ch=10 n=44 v=97
54838 Off ch=10 n=44 v=97
54960 On ch=10 n=42 v=42
55078 Off ch=10 n=42 v=42
55200 On ch=10 n=44 v=98
55318 Off ch=10 n=44 v=98
55440 On ch=10 n=42 v=42
55558 Off ch=10 n=42 v=42
55680 On ch=10 n=44 v=99
55798 Off ch=10 n=44 v=99
55920 On ch=10 n=42 v=41
56038 Off ch=10 n=42 v=41
56160 On ch=10 n=44 v=97
56278 Off ch=10 n=44 v=97
56400 On ch=10 n=42 v=42
56518 Off ch=10 n=42 v=42
56640 On ch=10 n=44 v=98
56758 Off ch=10 n=44 v=98
56880 On ch=10 n=42 v=42
56998 Off ch=10 n=42 v=42
57120 On ch=10 n=44 v=99
57238 Off ch=10 n=44 v=99
57360 On ch=10 n=42 v=41
57478 Off ch=10 n=42 v=41
57600 On ch=10 n=44 v=97
57718 Off ch=10 n=44 v=97
57840 On ch=10 n=42 v=42
57958 Off ch=10 n=42 v=42
58080 On ch=10 n=44 v=98
58198 Off ch=10 n=44 v=98
58320 On ch=10 n=42 v=42
58438 Off ch=10 n=42 v=42
58560 On ch=10 n=44 v=98
58678 Off ch=10 n=44 v=98
58800 On ch=10 n=42 v=42
58918 Off ch=10 n=42 v=42
59040 On ch=10 n=44 v=98
59158 Off ch=10 n=44 v=98
59280 On ch=10 n=42 v=42
59398 Off ch=10 n=42 v=42
59520 On ch=10 n=44 v=98
59638 Off ch=10 n=44 v=98
59760 On ch=10 n=46 v=75
59878 Off ch=10 n=46 v=75
60000 On ch=10 n=44 v=87
60118 Off ch=10 n=44 v=87
60240 On ch=10 n=36 v=114
60358 Off ch=10 n=36 v=114
60480 On ch=10 n=38 v=112
60598 Off ch=10 n=38 v=112
60720 On ch=10 n=36 v=106
60838 Off ch=10 n=36 v=106
60960 On ch=10 n=36 v=114
61078 Off ch=10 n=36 v=114
61200 On ch=10 n=36 v=104
61200 On ch=10 n=49 v=108
61318 Off ch=10 n=36 v=104
61318 Off ch=10 n=49 v=108
61440 On ch=10 n=44 v=97
61558 Off ch=10 n=44 v=97
61680 On ch=10 n=42 v=45
61798 Off ch=10 n=42 v=45
61920 On ch=10 n=36 v=113
61920 On ch=10 n=44 v=99
62038 Off ch=10 n=36 v=113
62038 Off ch=10 n=44 v=99
62160 On ch=10 n=42 v=41
62278 Off ch=10 n=42 v=41
62400 On ch=10 n=44 v=97
62518 Off ch=10 n=44 v=97
62640 On ch=10 n=42 v=42
62641 On ch=10 n=36 v=104
62758 Off ch=10 n=42 v=42
62759 Off ch=10 n=36 v=104
62879 On ch=10 n=38 v=115
62880 On ch=10 n=44 v=98
62997 Off ch=10 n=38 v=115
62998 Off ch=10 n=44 v=98
63120 On ch=10 n=42 v=42
63238 Off ch=10 n=42 v=42
63360 On ch=10 n=36 v=104
63360 On ch=10 n=44 v=99
63478 Off ch=10 n=36 v=104
63478 Off ch=10 n=44 v=99
63600 On ch=10 n=42 v=41
63718 Off ch=10 n=42 v=41
63840 On ch=10 n=38 v=103
63840 On ch=10 n=44 v=97
63958 Off ch=10 n=38 v=103
63958 Off ch=10 n=44 v=97
64079 On ch=10 n=36 v=111
64080 On ch=10 n=42 v=42
64197 Off ch=10 n=36 v=111
64198 Off ch=10 n=42 v=42
64320 On ch=10 n=44 v=98
64438 Off ch=10 n=44 v=98
64560 On ch=10 n=42 v=42
64678 Off ch=10 n=42 v=42
64800 On ch=10 n=38 v=102
64800 On ch=10 n=36 v=108
64800 On ch=10 n=44 v=99
64918 Off ch=10 n=38 v=102
64918 Off ch=10 n=36 v=108
64918 Off ch=10 n=44 v=99
65040 On ch=10 n=42 v=41
65158 Off ch=10 n=42 v=41
65280 On ch=10 n=44 v=97
65398 Off ch=10 n=44 v=97
65520 On ch=10 n=36 v=120
65520 On ch=10 n=42 v=42
65638 Off ch=10 n=36 v=120
65638 Off ch=10 n=42 v=42
65760 On ch=10 n=38 v=108
65760 On ch=10 n=44 v=98
65878 Off ch=10 n=38 v=108
65878 Off ch=10 n=44 v=98
66000 On ch=10 n=42 v=42
66118 Off ch=10 n=42 v=42
66240 On ch=10 n=44 v=98
66240 On ch=10 n=36 v=108
66358 Off ch=10 n=44 v=98
66358 Off ch=10 n=36 v=108
66480 On ch=10 n=42 v=41
66598 Off ch=10 n=42 v=41
66720 On ch=10 n=44 v=101
66720 On ch=10 n=38 v=97
66838 Off ch=10 n=44 v=101
66838 Off ch=10 n=38 v=97
66960 On ch=10 n=42 v=42
66960 On ch=10 n=36 v=112
67078 Off ch=10 n=36 v=112
67083 Off ch=10 n=42 v=42
67200 On ch=10 n=44 v=101
67318 Off ch=10 n=44 v=101
67440 On ch=10 n=42 v=43
67558 Off ch=10 n=42 v=43
67680 On ch=10 n=38 v=112
67680 On ch=10 n=44 v=98
67798 Off ch=10 n=38 v=112
67798 Off ch=10 n=44 v=98
67920 On ch=10 n=38 v=127
67920 On ch=10 n=42 v=42
68038 Off ch=10 n=38 v=127
68038 Off ch=10 n=42 v=42
68160 On ch=10 n=36 v=120
68278 Off ch=10 n=36 v=120
68400 On ch=10 n=38 v=114
68518 Off ch=10 n=38 v=114
68640 On ch=10 n=38 v=117
68758 Off ch=10 n=38 v=117
68880 On ch=10 n=36 v=104
68998 Off ch=10 n=36 v=104
69120 On ch=10 n=44 v=97
69238 Off ch=10 n=44 v=97
69360 On ch=10 n=42 v=45
69478 Off ch=10 n=42 v=45
69600 On ch=10 n=36 v=113
69600 On ch=10 n=44 v=99
69718 Off ch=10 n=36 v=113
69718 Off ch=10 n=44 v=99
69840 On ch=10 n=42 v=41
69958 Off ch=10 n=42 v=41
70080 On ch=10 n=44 v=97
70198 Off ch=10 n=44 v=97
70320 On ch=10 n=42 v=42
70321 On ch=10 n=36 v=104
70438 Off ch=10 n=42 v=42
70439 Off ch=10 n=36 v=104
70559 On ch=10 n=38 v=115
70560 On ch=10 n=44 v=98
70677 Off ch=10 n=38 v=115
70678 Off ch=10 n=44 v=98
70800 On ch=10 n=42 v=42
70918 Off ch=10 n=42 v=42
71040 On ch=10 n=36 v=104
71040 On ch=10 n=44 v=99
71158 Off ch=10 n=36 v=104
71158 Off ch=10 n=44 v=99
71280 On ch=10 n=42 v=41
71398 Off ch=10 n=42 v=41
71520 On ch=10 n=38 v=103
71520 On ch=10 n=44 v=97
71638 Off ch=10 n=38 v=103
71638 Off ch=10 n=44 v=97
71759 On ch=10 n=36 v=111
71760 On ch=10 n=42 v=42
71877 Off ch=10 n=36 v=111
71878 Off ch=10 n=42 v=42
72000 On ch=10 n=44 v=98
72118 Off ch=10 n=44 v=98
72240 On ch=10 n=42 v=42
72358 Off ch=10 n=42 v=42
72480 On ch=10 n=38 v=102
72480 On ch=10 n=36 v=108
72480 On ch=10 n=44 v=99
72598 Off ch=10 n=38 v=102
72598 Off ch=10 n=36 v=108
72598 Off ch=10 n=44 v=99
72720 On ch=10 n=42 v=41
72838 Off ch=10 n=42 v=41
72960 On ch=10 n=44 v=97
73078 Off ch=10 n=44 v=97
73200 On ch=10 n=36 v=120
73200 On ch=10 n=42 v=42
73318 Off ch=10 n=36 v=120
73318 Off ch=10 n=42 v=42
73440 On ch=10 n=38 v=108
73440 On ch=10 n=44 v=98
73558 Off ch=10 n=38 v=108
73558 Off ch=10 n=44 v=98
73680 On ch=10 n=42 v=42
73798 Off ch=10 n=42 v=42
73920 On ch=10 n=44 v=98
74038 Off ch=10 n=44 v=98
74160 On ch=10 n=36 v=108
74160 On ch=10 n=42 v=41
74278 Off ch=10 n=36 v=108
74278 Off ch=10 n=42 v=41
74400 On ch=10 n=44 v=101
74400 On ch=10 n=38 v=97
74518 Off ch=10 n=44 v=101
74518 Off ch=10 n=38 v=97
74640 On ch=10 n=38 v=102
74640 On ch=10 n=42 v=42
74758 Off ch=10 n=38 v=102
74763 Off ch=10 n=42 v=42
74880 On ch=10 n=44 v=101
74998 Off ch=10 n=44 v=101
75120 On ch=10 n=36 v=97
75120 On ch=10 n=42 v=43
75238 Off ch=10 n=36 v=97
75238 Off ch=10 n=42 v=43
75360 On ch=10 n=38 v=112
75360 On ch=10 n=44 v=98
75478 Off ch=10 n=38 v=112
75478 Off ch=10 n=44 v=98
75600 On ch=10 n=38 v=127
75600 On ch=10 n=42 v=42
75718 Off ch=10 n=38 v=127
75718 Off ch=10 n=42 v=42
76080 On ch=10 n=36 v=114
76198 Off ch=10 n=36 v=114
76320 On ch=10 n=38 v=117
76438 Off ch=10 n=38 v=117
76560 On ch=10 n=36 v=104
76560 On ch=10 n=49 v=108
76678 Off ch=10 n=36 v=104
76678 Off ch=10 n=49 v=108
76800 On ch=10 n=44 v=97
76918 Off ch=10 n=44 v=97
77040 On ch=10 n=42 v=45
77158 Off ch=10 n=42 v=45
77280 On ch=10 n=36 v=113
77280 On ch=10 n=44 v=99
77398 Off ch=10 n=36 v=113
77398 Off ch=10 n=44 v=99
77520 On ch=10 n=42 v=41
77638 Off ch=10 n=42 v=41
77760 On ch=10 n=44 v=97
77878 Off ch=10 n=44 v=97
78000 On ch=10 n=42 v=42
78001 On ch=10 n=36 v=104
78118 Off ch=10 n=42 v=42
78119 Off ch=10 n=36 v=104
78239 On ch=10 n=38 v=115
78240 On ch=10 n=44 v=98
78357 Off ch=10 n=38 v=115
78358 Off ch=10 n=44 v=98
78480 On ch=10 n=42 v=42
78598 Off ch=10 n=42 v=42
78720 On ch=10 n=36 v=104
78720 On ch=10 n=44 v=99
78838 Off ch=10 n=36 v=104
78838 Off ch=10 n=44 v=99
78960 On ch=10 n=42 v=41
79078 Off ch=10 n=42 v=41
79200 On ch=10 n=38 v=103
79200 On ch=10 n=44 v=97
79318 Off ch=10 n=38 v=103
79318 Off ch=10 n=44 v=97
79439 On ch=10 n=36 v=111
79440 On ch=10 n=42 v=42
79557 Off ch=10 n=36 v=111
79558 Off ch=10 n=42 v=42
79680 On ch=10 n=44 v=98
79798 Off ch=10 n=44 v=98
79920 On ch=10 n=42 v=42
80038 Off ch=10 n=42 v=42
80160 On ch=10 n=38 v=102
80160 On ch=10 n=36 v=108
80160 On ch=10 n=44 v=99
80278 Off ch=10 n=38 v=102
80278 Off ch=10 n=36 v=108
80278 Off ch=10 n=44 v=99
80400 On ch=10 n=42 v=41
80518 Off ch=10 n=42 v=41
80640 On ch=10 n=44 v=97
80758 Off ch=10 n=44 v=97
80880 On ch=10 n=36 v=120
80880 On ch=10 n=42 v=42
80998 Off ch=10 n=36 v=120
80998 Off ch=10 n=42 v=42
81120 On ch=10 n=38 v=108
81120 On ch=10 n=44 v=98
81238 Off ch=10 n=38 v=108
81238 Off ch=10 n=44 v=98
81360 On ch=10 n=42 v=42
81478 Off ch=10 n=42 v=42
81600 On ch=10 n=44 v=98
81600 On ch=10 n=36 v=108
81718 Off ch=10 n=44 v=98
81718 Off ch=10 n=36 v=108
81840 On ch=10 n=42 v=41
81958 Off ch=10 n=42 v=41
82080 On ch=10 n=44 v=101
82080 On ch=10 n=38 v=97
82198 Off ch=10 n=44 v=101
82198 Off ch=10 n=38 v=97
82320 On ch=10 n=42 v=42
82320 On ch=10 n=36 v=112
82438 Off ch=10 n=36 v=112
82443 Off ch=10 n=42 v=42
82560 On ch=10 n=44 v=101
82678 Off ch=10 n=44 v=101
82800 On ch=10 n=42 v=43
82918 Off ch=10 n=42 v=43
83040 On ch=10 n=38 v=112
83040 On ch=10 n=44 v=98
83158 Off ch=10 n=38 v=112
83158 Off ch=10 n=44 v=98
83280 On ch=10 n=38 v=127
83280 On ch=10 n=42 v=42
83398 Off ch=10 n=38 v=127
83398 Off ch=10 n=42 v=42
83520 On ch=10 n=36 v=120
83638 Off ch=10 n=36 v=120
83760 On ch=10 n=36 v=114
83878 Off ch=10 n=36 v=114
84000 On ch=10 n=38 v=117
84118 Off ch=10 n=38 v=117
84240 On ch=10 n=36 v=104
84240 On ch=10 n=49 v=108
84358 Off ch=10 n=36 v=104
84358 Off ch=10 n=49 v=108
84480 On ch=10 n=44 v=97
84598 Off ch=10 n=44 v=97
84720 On ch=10 n=42 v=45
84838 Off ch=10 n=42 v=45
84960 On ch=10 n=36 v=113
84960 On ch=10 n=44 v=99
85078 Off ch=10 n=36 v=113
85078 Off ch=10 n=44 v=99
85200 On ch=10 n=42 v=41
85318 Off ch=10 n=42 v=41
85440 On ch=10 n=44 v=97
85558 Off ch=10 n=44 v=97
85680 On ch=10 n=42 v=42
85681 On ch=10 n=36 v=104
85798 Off ch=10 n=42 v=42
85799 Off ch=10 n=36 v=104
85919 On ch=10 n=38 v=115
85920 On ch=10 n=44 v=98
86037 Off ch=10 n=38 v=115
86038 Off ch=10 n=44 v=98
86160 On ch=10 n=42 v=42
86278 Off ch=10 n=42 v=42
86400 On ch=10 n=36 v=104
86400 On ch=10 n=44 v=99
86518 Off ch=10 n=36 v=104
86518 Off ch=10 n=44 v=99
86640 On ch=10 n=42 v=41
86758 Off ch=10 n=42 v=41
86880 On ch=10 n=38 v=103
86880 On ch=10 n=44 v=97
86998 Off ch=10 n=38 v=103
86998 Off ch=10 n=44 v=97
87119 On ch=10 n=36 v=111
87120 On ch=10 n=42 v=42
87237 Off ch=10 n=36 v=111
87238 Off ch=10 n=42 v=42
87360 On ch=10 n=44 v=98
87478 Off ch=10 n=44 v=98
87600 On ch=10 n=42 v=42
87718 Off ch=10 n=42 v=42
87840 On ch=10 n=38 v=102
87840 On ch=10 n=36 v=108
87840 On ch=10 n=44 v=99
87958 Off ch=10 n=38 v=102
87958 Off ch=10 n=36 v=108
87958 Off ch=10 n=44 v=99
88080 On ch=10 n=42 v=41
88198 Off ch=10 n=42 v=41
88320 On ch=10 n=44 v=97
88438 Off ch=10 n=44 v=97
88560 On ch=10 n=36 v=120
88560 On ch=10 n=42 v=42
88678 Off ch=10 n=36 v=120
88678 Off ch=10 n=42 v=42
88800 On ch=10 n=38 v=108
88800 On ch=10 n=44 v=98
88918 Off ch=10 n=38 v=108
88918 Off ch=10 n=44 v=98
89040 On ch=10 n=42 v=42
89158 Off ch=10 n=42 v=42
89280 On ch=10 n=44 v=98
89280 On ch=10 n=36 v=108
89398 Off ch=10 n=44 v=98
89398 Off ch=10 n=36 v=108
89520 On ch=10 n=42 v=41
89638 Off ch=10 n=42 v=41
89760 On ch=10 n=44 v=101
89760 On ch=10 n=38 v=97
89878 Off ch=10 n=44 v=101
89878 Off ch=10 n=38 v=97
90000 On ch=10 n=42 v=42
90000 On ch=10 n=36 v=112
90118 Off ch=10 n=36 v=112
90123 Off ch=10 n=42 v=42
90240 On ch=10 n=44 v=101
90358 Off ch=10 n=44 v=101
90480 On ch=10 n=42 v=43
90598 Off ch=10 n=42 v=43
90720 On ch=10 n=38 v=112
90720 On ch=10 n=44 v=98
90838 Off ch=10 n=38 v=112
90838 Off ch=10 n=44 v=98
90960 On ch=10 n=38 v=127
90960 On ch=10 n=42 v=42
91078 Off ch=10 n=38 v=127
91078 Off ch=10 n=42 v=42
91200 On ch=10 n=36 v=120
91318 Off ch=10 n=36 v=120
91440 On ch=10 n=36 v=114
91558 Off ch=10 n=36 v=114
91680 On ch=10 n=38 v=117
91798 Off ch=10 n=38 v=117
91920 On ch=10 n=36 v=104
91920 On ch=10 n=49 v=108
92038 Off ch=10 n=36 v=104
92038 Off ch=10 n=49 v=108
92160 On ch=10 n=44 v=97
92278 Off ch=10 n=44 v=97
92400 On ch=10 n=42 v=45
92518 Off ch=10 n=42 v=45
92640 On ch=10 n=36 v=113
92640 On ch=10 n=44 v=99
92758 Off ch=10 n=36 v=113
92758 Off ch=10 n=44 v=99
92880 On ch=10 n=42 v=41
92998 Off ch=10 n=42 v=41
93120 On ch=10 n=44 v=97
93238 Off ch=10 n=44 v=97
93360 On ch=10 n=42 v=42
93361 On ch=10 n=36 v=104
93478 Off ch=10 n=42 v=42
93479 Off ch=10 n=36 v=104
93599 On ch=10 n=38 v=115
93600 On ch=10 n=44 v=98
93717 Off ch=10 n=38 v=115
93718 Off ch=10 n=44 v=98
93840 On ch=10 n=42 v=42
93958 Off ch=10 n=42 v=42
94080 On ch=10 n=36 v=125
94080 On ch=10 n=44 v=98
94192 Off ch=10 n=44 v=98
94198 Off ch=10 n=36 v=125
94320 On ch=10 n=42 v=44
94438 Off ch=10 n=42 v=44
94560 On ch=10 n=38 v=106
94560 On ch=10 n=44 v=98
94678 Off ch=10 n=38 v=106
94678 Off ch=10 n=44 v=98
94800 On ch=10 n=36 v=114
94800 On ch=10 n=42 v=41
94918 Off ch=10 n=36 v=114
94918 Off ch=10 n=42 v=41
95040 On ch=10 n=44 v=98
95158 Off ch=10 n=44 v=98
95280 On ch=10 n=42 v=42
95398 Off ch=10 n=42 v=42
95520 On ch=10 n=38 v=114
95520 On ch=10 n=44 v=98
95638 Off ch=10 n=38 v=114
95638 Off ch=10 n=44 v=98
95760 On ch=10 n=42 v=45
95884 Off ch=10 n=42 v=45
96000 On ch=10 n=49 v=98
96000 On ch=10 n=36 v=125
96112 Off ch=10 n=49 v=98
96118 Off ch=10 n=36 v=125
96240 On ch=10 n=36 v=112
96358 Off ch=10 n=36 v=112
96480 On ch=10 n=38 v=92
96480 On ch=10 n=44 v=98
96598 Off ch=10 n=38 v=92
96598 Off ch=10 n=44 v=98
96720 On ch=10 n=42 v=41
96838 Off ch=10 n=42 v=41
96960 On ch=10 n=36 v=110
96960 On ch=10 n=44 v=98
97078 Off ch=10 n=36 v=110
97078 Off ch=10 n=44 v=98
97200 On ch=10 n=36 v=117
97200 On ch=10 n=42 v=42
97318 Off ch=10 n=36 v=117
97318 Off ch=10 n=42 v=42
97440 On ch=10 n=38 v=110
97440 On ch=10 n=44 v=98
97558 Off ch=10 n=38 v=110
97558 Off ch=10 n=44 v=98
97680 On ch=10 n=42 v=45
97804 Off ch=10 n=42 v=45
97920 On ch=10 n=36 v=125
97920 On ch=10 n=44 v=98
98032 Off ch=10 n=44 v=98
98038 Off ch=10 n=36 v=125
98160 On ch=10 n=36 v=106
98160 On ch=10 n=42 v=44
98278 Off ch=10 n=36 v=106
98278 Off ch=10 n=42 v=44
98400 On ch=10 n=38 v=106
98400 On ch=10 n=44 v=98
98518 Off ch=10 n=38 v=106
98518 Off ch=10 n=44 v=98
98640 On ch=10 n=42 v=41
98758 Off ch=10 n=42 v=41
98880 On ch=10 n=36 v=98
98880 On ch=10 n=44 v=98
98998 Off ch=10 n=36 v=98
98998 Off ch=10 n=44 v=98
99120 On ch=10 n=36 v=114
99120 On ch=10 n=42 v=42
99238 Off ch=10 n=36 v=114
99238 Off ch=10 n=42 v=42
99360 On ch=10 n=38 v=112
99360 On ch=10 n=44 v=98
99478 Off ch=10 n=38 v=112
99478 Off ch=10 n=44 v=98
99600 On ch=10 n=42 v=45
99724 Off ch=10 n=42 v=45
99840 On ch=10 n=36 v=125
99840 On ch=10 n=44 v=98
99952 Off ch=10 n=44 v=98
99958 Off ch=10 n=36 v=125
100080 On ch=10 n=36 v=106
100080 On ch=10 n=42 v=44
100198 Off ch=10 n=36 v=106
100198 Off ch=10 n=42 v=44
100320 On ch=10 n=38 v=106
100320 On ch=10 n=44 v=98
100438 Off ch=10 n=38 v=106
100438 Off ch=10 n=44 v=98
100560 On ch=10 n=42 v=41
100678 Off ch=10 n=42 v=41
100800 On ch=10 n=36 v=98
100800 On ch=10 n=44 v=98
100918 Off ch=10 n=36 v=98
100918 Off ch=10 n=44 v=98
101040 On ch=10 n=36 v=114
101040 On ch=10 n=42 v=42
101158 Off ch=10 n=36 v=114
101158 Off ch=10 n=42 v=42
101280 On ch=10 n=38 v=112
101280 On ch=10 n=44 v=98
101398 Off ch=10 n=38 v=112
101398 Off ch=10 n=44 v=98
101520 On ch=10 n=42 v=45
101644 Off ch=10 n=42 v=45
101760 On ch=10 n=36 v=125
101760 On ch=10 n=44 v=98
101872 Off ch=10 n=44 v=98
101878 Off ch=10 n=36 v=125
102000 On ch=10 n=36 v=106
102000 On ch=10 n=42 v=44
102118 Off ch=10 n=36 v=106
102118 Off ch=10 n=42 v=44
102240 On ch=10 n=38 v=106
102240 On ch=10 n=44 v=98
102358 Off ch=10 n=38 v=106
102358 Off ch=10 n=44 v=98
102480 On ch=10 n=42 v=41
102598 Off ch=10 n=42 v=41
102720 On ch=10 n=36 v=98
102720 On ch=10 n=44 v=98
102838 Off ch=10 n=36 v=98
102838 Off ch=10 n=44 v=98
102960 On ch=10 n=36 v=114
102960 On ch=10 n=42 v=42
103078 Off ch=10 n=36 v=114
103078 Off ch=10 n=42 v=42
103200 On ch=10 n=38 v=112
103200 On ch=10 n=44 v=98
103318 Off ch=10 n=38 v=112
103318 Off ch=10 n=44 v=98
103440 On ch=10 n=42 v=45
103564 Off ch=10 n=42 v=45
103680 On ch=10 n=36 v=125
103680 On ch=10 n=44 v=98
103792 Off ch=10 n=44 v=98
103798 Off ch=10 n=36 v=125
103920 On ch=10 n=36 v=106
103920 On ch=10 n=42 v=44
104038 Off ch=10 n=36 v=106
104038 Off ch=10 n=42 v=44
104160 On ch=10 n=38 v=106
104160 On ch=10 n=44 v=98
104278 Off ch=10 n=38 v=106
104278 Off ch=10 n=44 v=98
104400 On ch=10 n=42 v=41
104518 Off ch=10 n=42 v=41
104640 On ch=10 n=36 v=98
104640 On ch=10 n=44 v=98
104758 Off ch=10 n=36 v=98
104758 Off ch=10 n=44 v=98
104880 On ch=10 n=36 v=114
104880 On ch=10 n=42 v=42
104998 Off ch=10 n=36 v=114
104998 Off ch=10 n=42 v=42
105120 On ch=10 n=38 v=112
105120 On ch=10 n=44 v=98
105238 Off ch=10 n=38 v=112
105238 Off ch=10 n=44 v=98
105360 On ch=10 n=42 v=45
105484 Off ch=10 n=42 v=45
105600 On ch=10 n=36 v=125
105600 On ch=10 n=44 v=98
105712 Off ch=10 n=44 v=98
105718 Off ch=10 n=36 v=125
105840 On ch=10 n=36 v=106
105840 On ch=10 n=42 v=44
105958 Off ch=10 n=36 v=106
105958 Off ch=10 n=42 v=44
106080 On ch=10 n=38 v=106
106080 On ch=10 n=44 v=98
106198 Off ch=10 n=38 v=106
106198 Off ch=10 n=44 v=98
106320 On ch=10 n=42 v=41
106438 Off ch=10 n=42 v=41
106560 On ch=10 n=36 v=98
106560 On ch=10 n=44 v=98
106678 Off ch=10 n=36 v=98
106678 Off ch=10 n=44 v=98
106800 On ch=10 n=36 v=114
106800 On ch=10 n=42 v=42
106918 Off ch=10 n=36 v=114
106918 Off ch=10 n=42 v=42
107040 On ch=10 n=38 v=112
107040 On ch=10 n=44 v=98
107158 Off ch=10 n=38 v=112
107158 Off ch=10 n=44 v=98
107280 On ch=10 n=42 v=45
107404 Off ch=10 n=42 v=45
107520 On ch=10 n=36 v=125
107520 On ch=10 n=44 v=98
107632 Off ch=10 n=44 v=98
107638 Off ch=10 n=36 v=125
107760 On ch=10 n=36 v=106
107760 On ch=10 n=42 v=44
107878 Off ch=10 n=36 v=106
107878 Off ch=10 n=42 v=44
108000 On ch=10 n=46 v=68
108000 On ch=10 n=38 v=106
108118 Off ch=10 n=46 v=68
108118 Off ch=10 n=38 v=106
108480 On ch=10 n=36 v=98
108480 On ch=10 n=44 v=98
108598 Off ch=10 n=36 v=98
108598 Off ch=10 n=44 v=98
108720 On ch=10 n=36 v=114
108720 On ch=10 n=42 v=42
108838 Off ch=10 n=36 v=114
108838 Off ch=10 n=42 v=42
108960 On ch=10 n=38 v=112
108960 On ch=10 n=44 v=98
109078 Off ch=10 n=38 v=112
109078 Off ch=10 n=44 v=98
109200 On ch=10 n=42 v=45
109324 Off ch=10 n=42 v=45
109440 On ch=10 n=36 v=125
109440 On ch=10 n=44 v=98
109552 Off ch=10 n=44 v=98
109558 Off ch=10 n=36 v=125
109680 On ch=10 n=36 v=106
109680 On ch=10 n=42 v=44
109798 Off ch=10 n=36 v=106
109798 Off ch=10 n=42 v=44
109920 On ch=10 n=38 v=106
109920 On ch=10 n=44 v=98
110038 Off ch=10 n=38 v=106
110038 Off ch=10 n=44 v=98
110160 On ch=10 n=42 v=41
110278 Off ch=10 n=42 v=41
110400 On ch=10 n=36 v=98
110400 On ch=10 n=44 v=98
110518 Off ch=10 n=36 v=98
110518 Off ch=10 n=44 v=98
110640 On ch=10 n=36 v=114
110640 On ch=10 n=42 v=42
110758 Off ch=10 n=36 v=114
110758 Off ch=10 n=42 v=42
110880 On ch=10 n=38 v=112
110880 On ch=10 n=44 v=98
110998 Off ch=10 n=38 v=112
110998 Off ch=10 n=44 v=98
111120 On ch=10 n=42 v=45
111244 Off ch=10 n=42 v=45
111360 On ch=10 n=36 v=125
111360 On ch=10 n=44 v=98
111472 Off ch=10 n=44 v=98
111478 Off ch=10 n=36 v=125
111600 On ch=10 n=36 v=106
111600 On ch=10 n=42 v=44
111718 Off ch=10 n=36 v=106
111718 Off ch=10 n=42 v=44
111840 On ch=10 n=49 v=65
111840 On ch=10 n=38 v=106
111958 Off ch=10 n=49 v=65
111958 Off ch=10 n=38 v=106
112320 On ch=10 n=36 v=98
112320 On ch=10 n=44 v=98
112438 Off ch=10 n=36 v=98
112438 Off ch=10 n=44 v=98
112560 On ch=10 n=36 v=114
112560 On ch=10 n=42 v=42
112678 Off ch=10 n=36 v=114
112678 Off ch=10 n=42 v=42
112800 On ch=10 n=38 v=112
112800 On ch=10 n=44 v=98
112918 Off ch=10 n=38 v=112
112918 Off ch=10 n=44 v=98
113040 On ch=10 n=42 v=45
113164 Off ch=10 n=42 v=45
113280 On ch=10 n=57 v=86
113280 On ch=10 n=38 v=95
113364 Off ch=10 n=57 v=86
113398 Off ch=10 n=38 v=95
113444 Par ch=10 c=7 v=100
113501 Par ch=10 c=7 v=82
113560 Par ch=10 c=7 v=64
113621 Par ch=10 c=7 v=32
113680 Par ch=10 c=7 v=0
114960 Par ch=10 c=7 v=100
115200 On ch=10 n=36 v=88
115200 On ch=10 n=49 v=79
115318 Off ch=10 n=36 v=88
115348 Off ch=10 n=49 v=79
115680 On ch=10 n=51 v=77
115898 Off ch=10 n=51 v=77
116160 On ch=10 n=38 v=85
116162 On ch=10 n=51 v=77
116278 Off ch=10 n=38 v=85
116361 Off ch=10 n=51 v=77
116640 On ch=10 n=51 v=77
116820 Off ch=10 n=51 v=77
116880 On ch=10 n=36 v=98
116998 Off ch=10 n=36 v=98
117120 On ch=10 n=51 v=78
117120 On ch=10 n=36 v=106
117238 Off ch=10 n=36 v=106
117311 Off ch=10 n=51 v=78
117599 On ch=10 n=36 v=98
117600 On ch=10 n=51 v=76
117717 Off ch=10 n=36 v=98
117786 Off ch=10 n=51 v=76
118080 On ch=10 n=51 v=77
118080 On ch=10 n=38 v=78
118198 Off ch=10 n=38 v=78
118273 Off ch=10 n=51 v=77
118560 On ch=10 n=51 v=79
118738 Off ch=10 n=51 v=79
118800 On ch=10 n=36 v=100
118918 Off ch=10 n=36 v=100
119040 On ch=10 n=51 v=77
119040 On ch=10 n=36 v=90
119158 Off ch=10 n=36 v=90
119235 Off ch=10 n=51 v=77
119520 On ch=10 n=51 v=76
119520 On ch=10 n=36 v=100
119638 Off ch=10 n=36 v=100
119704 Off ch=10 n=51 v=76
120000 On ch=10 n=51 v=78
120000 On ch=10 n=38 v=77
120118 Off ch=10 n=38 v=77
120201 Off ch=10 n=51 v=78
120480 On ch=10 n=51 v=78
120672 Off ch=10 n=51 v=78
120720 On ch=10 n=36 v=98
120838 Off ch=10 n=36 v=98
120960 On ch=10 n=51 v=77
120960 On ch=10 n=36 v=95
121078 Off ch=10 n=36 v=95
121165 Off ch=10 n=51 v=77
121440 On ch=10 n=51 v=78
121620 Off ch=10 n=51 v=78
121680 On ch=10 n=36 v=106
121798 Off ch=10 n=36 v=106
121800 On ch=10 n=36 v=95
121918 Off ch=10 n=36 v=95
121920 On ch=10 n=51 v=75
121920 On ch=10 n=38 v=92
122038 Off ch=10 n=38 v=92
122126 Off ch=10 n=51 v=75
122160 On ch=10 n=36 v=90
122278 Off ch=10 n=36 v=90
122400 On ch=10 n=51 v=77
122605 Off ch=10 n=51 v=77
122640 On ch=10 n=36 v=97
122758 Off ch=10 n=36 v=97
122880 On ch=10 n=51 v=77
122880 On ch=10 n=36 v=90
122998 Off ch=10 n=36 v=90
123075 Off ch=10 n=51 v=77
123360 On ch=10 n=51 v=76
123360 On ch=10 n=36 v=100
123478 Off ch=10 n=36 v=100
123544 Off ch=10 n=51 v=76
123840 On ch=10 n=51 v=78
123840 On ch=10 n=38 v=77
123958 Off ch=10 n=38 v=77
124041 Off ch=10 n=51 v=78
124320 On ch=10 n=51 v=78
124512 Off ch=10 n=51 v=78
124560 On ch=10 n=36 v=98
124678 Off ch=10 n=36 v=98
124800 On ch=10 n=51 v=77
124800 On ch=10 n=36 v=95
124918 Off ch=10 n=36 v=95
125005 Off ch=10 n=51 v=77
125280 On ch=10 n=51 v=78
125460 Off ch=10 n=51 v=78
125520 On ch=10 n=36 v=106
125638 Off ch=10 n=36 v=106
125640 On ch=10 n=36 v=95
125758 Off ch=10 n=36 v=95
125760 On ch=10 n=51 v=75
125760 On ch=10 n=38 v=92
125878 Off ch=10 n=38 v=92
125966 Off ch=10 n=51 v=75
126000 On ch=10 n=36 v=90
126118 Off ch=10 n=36 v=90
126240 On ch=10 n=51 v=77
126445 Off ch=10 n=51 v=77
126480 On ch=10 n=36 v=97
126598 Off ch=10 n=36 v=97
126720 On ch=10 n=51 v=77
126720 On ch=10 n=36 v=90
126838 Off ch=10 n=36 v=90
126915 Off ch=10 n=51 v=77
127200 On ch=10 n=51 v=76
127200 On ch=10 n=36 v=100
127318 Off ch=10 n=36 v=100
127384 Off ch=10 n=51 v=76
127680 On ch=10 n=51 v=78
127680 On ch=10 n=38 v=77
127798 Off ch=10 n=38 v=77
127881 Off ch=10 n=51 v=78
128160 On ch=10 n=51 v=78
128352 Off ch=10 n=51 v=78
128400 On ch=10 n=36 v=98
128518 Off ch=10 n=36 v=98
128640 On ch=10 n=51 v=77
128640 On ch=10 n=36 v=95
128758 Off ch=10 n=36 v=95
128845 Off ch=10 n=51 v=77
129120 On ch=10 n=51 v=78
129300 Off ch=10 n=51 v=78
129360 On ch=10 n=36 v=106
129478 Off ch=10 n=36 v=106
129480 On ch=10 n=36 v=95
129598 Off ch=10 n=36 v=95
129600 On ch=10 n=51 v=75
129600 On ch=10 n=38 v=92
129718 Off ch=10 n=38 v=92
129806 Off ch=10 n=51 v=75
129840 On ch=10 n=36 v=90
129958 Off ch=10 n=36 v=90
130080 On ch=10 n=51 v=77
130285 Off ch=10 n=51 v=77
130320 On ch=10 n=36 v=97
130438 Off ch=10 n=36 v=97
130560 On ch=10 n=51 v=77
130560 On ch=10 n=36 v=90
130678 Off ch=10 n=36 v=90
130755 Off ch=10 n=51 v=77
131040 On ch=10 n=51 v=76
131040 On ch=10 n=36 v=100
131158 Off ch=10 n=36 v=100
131224 Off ch=10 n=51 v=76
131520 On ch=10 n=51 v=78
131520 On ch=10 n=38 v=77
131638 Off ch=10 n=38 v=77
131721 Off ch=10 n=51 v=78
132000 On ch=10 n=51 v=78
132192 Off ch=10 n=51 v=78
132240 On ch=10 n=36 v=98
132358 Off ch=10 n=36 v=98
132480 On ch=10 n=51 v=77
132480 On ch=10 n=36 v=95
132598 Off ch=10 n=36 v=95
132685 Off ch=10 n=51 v=77
132960 On ch=10 n=51 v=78
133140 Off ch=10 n=51 v=78
133200 On ch=10 n=36 v=106
133318 Off ch=10 n=36 v=106
133440 On ch=10 n=51 v=75
133440 On ch=10 n=38 v=92
133558 Off ch=10 n=38 v=92
133646 Off ch=10 n=51 v=75
133680 On ch=10 n=36 v=90
133798 Off ch=10 n=36 v=90
133920 On ch=10 n=51 v=77
134125 Off ch=10 n=51 v=77
134160 On ch=10 n=36 v=97
134278 Off ch=10 n=36 v=97
134400 On ch=10 n=36 v=100
134400 On ch=10 n=51 v=61
134518 Off ch=10 n=36 v=100
134580 Off ch=10 n=51 v=61
134880 On ch=10 n=36 v=114
134880 On ch=10 n=51 v=56
134998 Off ch=10 n=36 v=114
135063 Off ch=10 n=51 v=56
135360 On ch=10 n=38 v=100
135360 On ch=10 n=51 v=58
135478 Off ch=10 n=38 v=100
135552 Off ch=10 n=51 v=58
135840 On ch=10 n=51 v=61
136032 Off ch=10 n=51 v=61
136080 On ch=10 n=36 v=87
136198 Off ch=10 n=36 v=87
136320 On ch=10 n=36 v=94
136320 On ch=10 n=51 v=62
136438 Off ch=10 n=36 v=94
136513 Off ch=10 n=51 v=62
136800 On ch=10 n=51 v=59
136986 Off ch=10 n=51 v=59
137040 On ch=10 n=36 v=92
137158 Off ch=10 n=36 v=92
137280 On ch=10 n=38 v=75
137280 On ch=10 n=51 v=59
137398 Off ch=10 n=38 v=75
137457 Off ch=10 n=51 v=59
137520 On ch=10 n=36 v=104
137520 On ch=10 n=51 v=66
137638 Off ch=10 n=36 v=104
137638 Off ch=10 n=51 v=66
137760 On ch=10 n=51 v=64
137956 Off ch=10 n=51 v=64
138000 On ch=10 n=36 v=90
138000 On ch=10 n=51 v=85
138118 Off ch=10 n=36 v=90
138118 Off ch=10 n=51 v=85
138240 On ch=10 n=36 v=100
138240 On ch=10 n=51 v=65
138358 Off ch=10 n=36 v=100
138447 Off ch=10 n=51 v=65
138720 On ch=10 n=51 v=67
138838 Off ch=10 n=51 v=67
139200 On ch=10 n=38 v=88
139200 On ch=10 n=51 v=70
139318 Off ch=10 n=38 v=88
139429 Off ch=10 n=51 v=70
139440 On ch=10 n=51 v=60
139558 Off ch=10 n=51 v=60
139680 On ch=10 n=51 v=61
139798 Off ch=10 n=51 v=61
139920 On ch=10 n=51 v=56
140038 Off ch=10 n=51 v=56
140160 On ch=10 n=36 v=110
140160 On ch=10 n=49 v=63
140278 Off ch=10 n=36 v=110
140387 Off ch=10 n=49 v=63
142320 On ch=10 n=46 v=101
142438 Off ch=10 n=46 v=101
142560 On ch=10 n=44 v=107
142678 Off ch=10 n=44 v=107
142800 On ch=10 n=36 v=105
142922 Off ch=10 n=36 v=105
143040 On ch=10 n=38 v=112
143158 Off ch=10 n=38 v=112
143280 On ch=10 n=36 v=106
143398 Off ch=10 n=36 v=106
143520 On ch=10 n=36 v=114
143638 Off ch=10 n=36 v=114
143760 On ch=10 n=36 v=104
143760 On ch=10 n=49 v=108
143878 Off ch=10 n=36 v=104
143878 Off ch=10 n=49 v=108
144000 On ch=10 n=44 v=97
144118 Off ch=10 n=44 v=97
144240 On ch=10 n=42 v=45
144358 Off ch=10 n=42 v=45
144480 On ch=10 n=36 v=113
144480 On ch=10 n=44 v=99
144598 Off ch=10 n=36 v=113
144598 Off ch=10 n=44 v=99
144720 On ch=10 n=42 v=41
144838 Off ch=10 n=42 v=41
144960 On ch=10 n=44 v=97
145078 Off ch=10 n=44 v=97
145200 On ch=10 n=42 v=42
145201 On ch=10 n=36 v=104
145318 Off ch=10 n=42 v=42
145319 Off ch=10 n=36 v=104
145439 On ch=10 n=38 v=115
145440 On ch=10 n=44 v=98
145557 Off ch=10 n=38 v=115
145558 Off ch=10 n=44 v=98
145680 On ch=10 n=42 v=42
145798 Off ch=10 n=42 v=42
145920 On ch=10 n=36 v=104
145920 On ch=10 n=44 v=99
146038 Off ch=10 n=36 v=104
146038 Off ch=10 n=44 v=99
146160 On ch=10 n=42 v=41
146278 Off ch=10 n=42 v=41
146400 On ch=10 n=38 v=103
146400 On ch=10 n=44 v=97
146518 Off ch=10 n=38 v=103
146518 Off ch=10 n=44 v=97
146639 On ch=10 n=36 v=111
146640 On ch=10 n=42 v=42
146757 Off ch=10 n=36 v=111
146758 Off ch=10 n=42 v=42
146880 On ch=10 n=44 v=98
146998 Off ch=10 n=44 v=98
147120 On ch=10 n=42 v=42
147238 Off ch=10 n=42 v=42
147360 On ch=10 n=38 v=102
147360 On ch=10 n=36 v=108
147360 On ch=10 n=44 v=99
147478 Off ch=10 n=38 v=102
147478 Off ch=10 n=36 v=108
147478 Off ch=10 n=44 v=99
147600 On ch=10 n=42 v=41
147718 Off ch=10 n=42 v=41
147840 On ch=10 n=44 v=97
147958 Off ch=10 n=44 v=97
148080 On ch=10 n=36 v=120
148080 On ch=10 n=42 v=42
148198 Off ch=10 n=36 v=120
148198 Off ch=10 n=42 v=42
148320 On ch=10 n=38 v=108
148320 On ch=10 n=44 v=98
148438 Off ch=10 n=38 v=108
148438 Off ch=10 n=44 v=98
148560 On ch=10 n=42 v=42
148678 Off ch=10 n=42 v=42
148800 On ch=10 n=44 v=98
148800 On ch=10 n=36 v=108
148918 Off ch=10 n=44 v=98
148918 Off ch=10 n=36 v=108
149040 On ch=10 n=42 v=41
149158 Off ch=10 n=42 v=41
149280 On ch=10 n=44 v=101
149280 On ch=10 n=38 v=97
149398 Off ch=10 n=44 v=101
149398 Off ch=10 n=38 v=97
149520 On ch=10 n=42 v=42
149520 On ch=10 n=36 v=112
149638 Off ch=10 n=36 v=112
149643 Off ch=10 n=42 v=42
149760 On ch=10 n=44 v=101
149878 Off ch=10 n=44 v=101
150000 On ch=10 n=42 v=43
150118 Off ch=10 n=42 v=43
150240 On ch=10 n=38 v=112
150240 On ch=10 n=44 v=98
150358 Off ch=10 n=38 v=112
150358 Off ch=10 n=44 v=98
150480 On ch=10 n=38 v=127
150480 On ch=10 n=42 v=42
150598 Off ch=10 n=38 v=127
150598 Off ch=10 n=42 v=42
150720 On ch=10 n=36 v=120
150838 Off ch=10 n=36 v=120
150960 On ch=10 n=36 v=114
151078 Off ch=10 n=36 v=114
151200 On ch=10 n=38 v=123
151318 Off ch=10 n=38 v=123
151440 On ch=10 n=36 v=104
151440 On ch=10 n=49 v=108
151558 Off ch=10 n=36 v=104
151558 Off ch=10 n=49 v=108
151680 On ch=10 n=44 v=97
151798 Off ch=10 n=44 v=97
151920 On ch=10 n=42 v=45
152038 Off ch=10 n=42 v=45
152160 On ch=10 n=36 v=113
152160 On ch=10 n=44 v=99
152278 Off ch=10 n=36 v=113
152278 Off ch=10 n=44 v=99
152400 On ch=10 n=42 v=41
152518 Off ch=10 n=42 v=41
152640 On ch=10 n=44 v=97
152758 Off ch=10 n=44 v=97
152880 On ch=10 n=42 v=42
152881 On ch=10 n=36 v=104
152998 Off ch=10 n=42 v=42
152999 Off ch=10 n=36 v=104
153119 On ch=10 n=38 v=115
153120 On ch=10 n=44 v=98
153237 Off ch=10 n=38 v=115
153238 Off ch=10 n=44 v=98
153360 On ch=10 n=42 v=42
153478 Off ch=10 n=42 v=42
153600 On ch=10 n=36 v=104
153600 On ch=10 n=44 v=99
153718 Off ch=10 n=36 v=104
153718 Off ch=10 n=44 v=99
153840 On ch=10 n=42 v=41
153958 Off ch=10 n=42 v=41
154080 On ch=10 n=38 v=103
154080 On ch=10 n=44 v=97
154198 Off ch=10 n=38 v=103
154198 Off ch=10 n=44 v=97
154319 On ch=10 n=36 v=111
154320 On ch=10 n=42 v=42
154437 Off ch=10 n=36 v=111
154438 Off ch=10 n=42 v=42
154560 On ch=10 n=44 v=98
154678 Off ch=10 n=44 v=98
154800 On ch=10 n=44 v=66
154918 Off ch=10 n=44 v=66
155040 On ch=10 n=44 v=99
155040 On ch=10 n=38 v=102
155040 On ch=10 n=36 v=108
155158 Off ch=10 n=44 v=99
155158 Off ch=10 n=38 v=102
155158 Off ch=10 n=36 v=108
155280 On ch=10 n=44 v=74
155398 Off ch=10 n=44 v=74
155520 On ch=10 n=44 v=97
155638 Off ch=10 n=44 v=97
155760 On ch=10 n=36 v=120
155760 On ch=10 n=46 v=73
155878 Off ch=10 n=36 v=120
155878 Off ch=10 n=46 v=73
156000 On ch=10 n=44 v=98
156000 On ch=10 n=38 v=108
156118 Off ch=10 n=44 v=98
156118 Off ch=10 n=38 v=108
156240 On ch=10 n=46 v=78
156358 Off ch=10 n=46 v=78
156480 On ch=10 n=44 v=98
156598 Off ch=10 n=44 v=98
156720 On ch=10 n=46 v=90
156721 On ch=10 n=36 v=117
156833 Off ch=10 n=46 v=90
156839 Off ch=10 n=36 v=117
156960 On ch=10 n=44 v=101
157078 Off ch=10 n=44 v=101
157200 On ch=10 n=36 v=121
157200 On ch=10 n=46 v=96
157318 Off ch=10 n=36 v=121
157323 Off ch=10 n=46 v=96
157440 On ch=10 n=44 v=101
157558 Off ch=10 n=44 v=101
157675 On ch=10 n=46 v=98
157679 On ch=10 n=36 v=115
157793 Off ch=10 n=46 v=98
157797 Off ch=10 n=36 v=115
157920 On ch=10 n=38 v=118
157920 On ch=10 n=44 v=98
158038 Off ch=10 n=38 v=118
158038 Off ch=10 n=44 v=98
158155 On ch=10 n=49 v=100
158160 On ch=10 n=36 v=124
158273 Off ch=10 n=49 v=100
158278 Off ch=10 n=36 v=124
158400 On ch=10 n=38 v=120
158518 Off ch=10 n=38 v=120
158640 On ch=10 n=36 v=114
158640 On ch=10 n=57 v=88
158758 Off ch=10 n=36 v=114
158758 Off ch=10 n=57 v=88
158880 On ch=10 n=38 v=117
158998 Off ch=10 n=38 v=117
159120 On ch=10 n=36 v=119
159120 On ch=10 n=49 v=108
159238 Off ch=10 n=36 v=119
159238 Off ch=10 n=49 v=108
159360 On ch=10 n=44 v=97
159478 Off ch=10 n=44 v=97
159600 On ch=10 n=42 v=45
159718 Off ch=10 n=42 v=45
159840 On ch=10 n=36 v=113
159840 On ch=10 n=44 v=99
159958 Off ch=10 n=36 v=113
159958 Off ch=10 n=44 v=99
160080 On ch=10 n=42 v=41
160198 Off ch=10 n=42 v=41
160320 On ch=10 n=44 v=97
160438 Off ch=10 n=44 v=97
160560 On ch=10 n=42 v=42
160561 On ch=10 n=36 v=104
160678 Off ch=10 n=42 v=42
160679 Off ch=10 n=36 v=104
160799 On ch=10 n=38 v=115
160800 On ch=10 n=44 v=98
160917 Off ch=10 n=38 v=115
160918 Off ch=10 n=44 v=98
161040 On ch=10 n=42 v=42
161158 Off ch=10 n=42 v=42
161280 On ch=10 n=36 v=104
161280 On ch=10 n=44 v=99
161398 Off ch=10 n=36 v=104
161398 Off ch=10 n=44 v=99
161520 On ch=10 n=42 v=41
161638 Off ch=10 n=42 v=41
161760 On ch=10 n=38 v=103
161760 On ch=10 n=44 v=97
161878 Off ch=10 n=38 v=103
161878 Off ch=10 n=44 v=97
161999 On ch=10 n=36 v=111
162000 On ch=10 n=42 v=42
162117 Off ch=10 n=36 v=111
162118 Off ch=10 n=42 v=42
162240 On ch=10 n=44 v=98
162358 Off ch=10 n=44 v=98
162480 On ch=10 n=42 v=42
162598 Off ch=10 n=42 v=42
162720 On ch=10 n=38 v=102
162720 On ch=10 n=36 v=108
162720 On ch=10 n=44 v=99
162838 Off ch=10 n=38 v=102
162838 Off ch=10 n=36 v=108
162838 Off ch=10 n=44 v=99
162960 On ch=10 n=42 v=41
163078 Off ch=10 n=42 v=41
163200 On ch=10 n=44 v=97
163318 Off ch=10 n=44 v=97
163440 On ch=10 n=36 v=120
163440 On ch=10 n=42 v=42
163558 Off ch=10 n=36 v=120
163558 Off ch=10 n=42 v=42
163680 On ch=10 n=38 v=108
163680 On ch=10 n=44 v=98
163798 Off ch=10 n=38 v=108
163798 Off ch=10 n=44 v=98
163920 On ch=10 n=42 v=42
164038 Off ch=10 n=42 v=42
164160 On ch=10 n=44 v=98
164160 On ch=10 n=36 v=108
164278 Off ch=10 n=44 v=98
164278 Off ch=10 n=36 v=108
164400 On ch=10 n=42 v=41
164518 Off ch=10 n=42 v=41
164640 On ch=10 n=44 v=101
164640 On ch=10 n=38 v=97
164758 Off ch=10 n=44 v=101
164758 Off ch=10 n=38 v=97
164880 On ch=10 n=42 v=42
164880 On ch=10 n=36 v=112
164998 Off ch=10 n=36 v=112
165003 Off ch=10 n=42 v=42
165120 On ch=10 n=44 v=101
165238 Off ch=10 n=44 v=101
165360 On ch=10 n=42 v=43
165478 Off ch=10 n=42 v=43
165600 On ch=10 n=38 v=112
165600 On ch=10 n=44 v=98
165718 Off ch=10 n=38 v=112
165718 Off ch=10 n=44 v=98
165840 On ch=10 n=38 v=127
165840 On ch=10 n=42 v=42
165958 Off ch=10 n=38 v=127
165958 Off ch=10 n=42 v=42
166080 On ch=10 n=36 v=120
166198 Off ch=10 n=36 v=120
166320 On ch=10 n=38 v=114
166438 Off ch=10 n=38 v=114
166560 On ch=10 n=38 v=117
166678 Off ch=10 n=38 v=117
166800 On ch=10 n=36 v=104
166800 On ch=10 n=49 v=108
166918 Off ch=10 n=36 v=104
166918 Off ch=10 n=49 v=108
167040 On ch=10 n=44 v=97
167158 Off ch=10 n=44 v=97
167280 On ch=10 n=42 v=45
167398 Off ch=10 n=42 v=45
167520 On ch=10 n=36 v=113
167520 On ch=10 n=44 v=99
167638 Off ch=10 n=36 v=113
167638 Off ch=10 n=44 v=99
167760 On ch=10 n=42 v=41
167878 Off ch=10 n=42 v=41
168000 On ch=10 n=44 v=97
168118 Off ch=10 n=44 v=97
168240 On ch=10 n=42 v=42
168241 On ch=10 n=36 v=104
168358 Off ch=10 n=42 v=42
168359 Off ch=10 n=36 v=104
168479 On ch=10 n=38 v=115
168480 On ch=10 n=44 v=98
168597 Off ch=10 n=38 v=115
168598 Off ch=10 n=44 v=98
168720 On ch=10 n=42 v=42
168838 Off ch=10 n=42 v=42
168960 On ch=10 n=36 v=104
168960 On ch=10 n=44 v=99
169078 Off ch=10 n=36 v=104
169078 Off ch=10 n=44 v=99
169200 On ch=10 n=42 v=41
169318 Off ch=10 n=42 v=41
169440 On ch=10 n=38 v=103
169440 On ch=10 n=44 v=97
169558 Off ch=10 n=38 v=103
169558 Off ch=10 n=44 v=97
169679 On ch=10 n=36 v=111
169680 On ch=10 n=42 v=42
169797 Off ch=10 n=36 v=111
169798 Off ch=10 n=42 v=42
169920 On ch=10 n=44 v=98
170038 Off ch=10 n=44 v=98
170160 On ch=10 n=42 v=42
170278 Off ch=10 n=42 v=42
170400 On ch=10 n=38 v=102
170400 On ch=10 n=36 v=108
170400 On ch=10 n=44 v=99
170518 Off ch=10 n=38 v=102
170518 Off ch=10 n=36 v=108
170518 Off ch=10 n=44 v=99
170640 On ch=10 n=42 v=41
170758 Off ch=10 n=42 v=41
170880 On ch=10 n=44 v=97
170998 Off ch=10 n=44 v=97
171120 On ch=10 n=36 v=120
171120 On ch=10 n=42 v=42
171238 Off ch=10 n=36 v=120
171238 Off ch=10 n=42 v=42
171360 On ch=10 n=38 v=108
171360 On ch=10 n=44 v=98
171478 Off ch=10 n=38 v=108
171478 Off ch=10 n=44 v=98
171600 On ch=10 n=42 v=42
171718 Off ch=10 n=42 v=42
171840 On ch=10 n=44 v=98
171840 On ch=10 n=36 v=108
171958 Off ch=10 n=44 v=98
171958 Off ch=10 n=36 v=108
172080 On ch=10 n=42 v=41
172198 Off ch=10 n=42 v=41
172320 On ch=10 n=44 v=101
172320 On ch=10 n=38 v=97
172438 Off ch=10 n=44 v=101
172438 Off ch=10 n=38 v=97
172560 On ch=10 n=42 v=42
172560 On ch=10 n=36 v=112
172678 Off ch=10 n=36 v=112
172683 Off ch=10 n=42 v=42
172800 On ch=10 n=44 v=101
172918 Off ch=10 n=44 v=101
173040 On ch=10 n=42 v=43
173158 Off ch=10 n=42 v=43
173280 On ch=10 n=38 v=112
173280 On ch=10 n=44 v=98
173398 Off ch=10 n=38 v=112
173398 Off ch=10 n=44 v=98
173520 On ch=10 n=38 v=127
173520 On ch=10 n=42 v=42
173638 Off ch=10 n=38 v=127
173638 Off ch=10 n=42 v=42
173760 On ch=10 n=36 v=120
173878 Off ch=10 n=36 v=120
174000 On ch=10 n=38 v=114
174118 Off ch=10 n=38 v=114
174240 On ch=10 n=38 v=117
174358 Off ch=10 n=38 v=117
174480 On ch=10 n=36 v=104
174480 On ch=10 n=49 v=108
174598 Off ch=10 n=36 v=104
174598 Off ch=10 n=49 v=108
174720 On ch=10 n=44 v=97
174838 Off ch=10 n=44 v=97
174960 On ch=10 n=42 v=45
175078 Off ch=10 n=42 v=45
175200 On ch=10 n=36 v=113
175200 On ch=10 n=44 v=99
175318 Off ch=10 n=36 v=113
175318 Off ch=10 n=44 v=99
175440 On ch=10 n=42 v=41
175558 Off ch=10 n=42 v=41
175680 On ch=10 n=44 v=97
175798 Off ch=10 n=44 v=97
175920 On ch=10 n=42 v=42
175921 On ch=10 n=36 v=104
176038 Off ch=10 n=42 v=42
176039 Off ch=10 n=36 v=104
176159 On ch=10 n=38 v=115
176160 On ch=10 n=44 v=98
176277 Off ch=10 n=38 v=115
176278 Off ch=10 n=44 v=98
176400 On ch=10 n=42 v=42
176518 Off ch=10 n=42 v=42
176640 On ch=10 n=36 v=104
176640 On ch=10 n=44 v=99
176758 Off ch=10 n=36 v=104
176758 Off ch=10 n=44 v=99
176880 On ch=10 n=42 v=41
176998 Off ch=10 n=42 v=41
177120 On ch=10 n=38 v=103
177120 On ch=10 n=44 v=97
177238 Off ch=10 n=38 v=103
177238 Off ch=10 n=44 v=97
177359 On ch=10 n=36 v=111
177360 On ch=10 n=42 v=42
177477 Off ch=10 n=36 v=111
177478 Off ch=10 n=42 v=42
177600 On ch=10 n=44 v=98
177718 Off ch=10 n=44 v=98
177840 On ch=10 n=42 v=42
177958 Off ch=10 n=42 v=42
178080 On ch=10 n=38 v=102
178080 On ch=10 n=36 v=108
178080 On ch=10 n=44 v=99
178198 Off ch=10 n=38 v=102
178198 Off ch=10 n=36 v=108
178198 Off ch=10 n=44 v=99
178320 On ch=10 n=42 v=41
178438 Off ch=10 n=42 v=41
178560 On ch=10 n=44 v=97
178678 Off ch=10 n=44 v=97
178800 On ch=10 n=36 v=120
178800 On ch=10 n=42 v=42
178918 Off ch=10 n=36 v=120
178918 Off ch=10 n=42 v=42
179040 On ch=10 n=38 v=108
179040 On ch=10 n=44 v=98
179158 Off ch=10 n=38 v=108
179158 Off ch=10 n=44 v=98
179280 On ch=10 n=42 v=42
179398 Off ch=10 n=42 v=42
179520 On ch=10 n=44 v=98
179520 On ch=10 n=36 v=108
179638 Off ch=10 n=44 v=98
179638 Off ch=10 n=36 v=108
179760 On ch=10 n=42 v=41
179878 Off ch=10 n=42 v=41
180000 On ch=10 n=44 v=101
180000 On ch=10 n=38 v=97
180118 Off ch=10 n=44 v=101
180118 Off ch=10 n=38 v=97
180240 On ch=10 n=42 v=42
180240 On ch=10 n=36 v=112
180358 Off ch=10 n=36 v=112
180363 Off ch=10 n=42 v=42
180480 On ch=10 n=44 v=101
180598 Off ch=10 n=44 v=101
180720 On ch=10 n=42 v=43
180838 Off ch=10 n=42 v=43
180960 On ch=10 n=38 v=112
180960 On ch=10 n=44 v=98
181078 Off ch=10 n=38 v=112
181078 Off ch=10 n=44 v=98
181200 On ch=10 n=38 v=127
181200 On ch=10 n=42 v=42
181318 Off ch=10 n=38 v=127
181318 Off ch=10 n=42 v=42
181440 On ch=10 n=36 v=120
181558 Off ch=10 n=36 v=120
181680 On ch=10 n=38 v=114
181798 Off ch=10 n=38 v=114
181920 On ch=10 n=38 v=117
182038 Off ch=10 n=38 v=117
182160 On ch=10 n=36 v=104
182160 On ch=10 n=49 v=108
182278 Off ch=10 n=36 v=104
182278 Off ch=10 n=49 v=108
182400 On ch=10 n=44 v=97
182518 Off ch=10 n=44 v=97
182640 On ch=10 n=42 v=45
182758 Off ch=10 n=42 v=45
182880 On ch=10 n=36 v=113
182880 On ch=10 n=44 v=99
182998 Off ch=10 n=36 v=113
182998 Off ch=10 n=44 v=99
183120 On ch=10 n=42 v=41
183238 Off ch=10 n=42 v=41
183360 On ch=10 n=44 v=97
183478 Off ch=10 n=44 v=97
183600 On ch=10 n=42 v=42
183601 On ch=10 n=36 v=104
183718 Off ch=10 n=42 v=42
183719 Off ch=10 n=36 v=104
183839 On ch=10 n=38 v=115
183840 On ch=10 n=44 v=98
183957 Off ch=10 n=38 v=115
183958 Off ch=10 n=44 v=98
184080 On ch=10 n=42 v=42
184198 Off ch=10 n=42 v=42
184320 On ch=10 n=36 v=125
184320 On ch=10 n=44 v=98
184432 Off ch=10 n=44 v=98
184438 Off ch=10 n=36 v=125
184560 On ch=10 n=42 v=44
184678 Off ch=10 n=42 v=44
184800 On ch=10 n=38 v=106
184800 On ch=10 n=44 v=98
184918 Off ch=10 n=38 v=106
184918 Off ch=10 n=44 v=98
185040 On ch=10 n=36 v=114
185040 On ch=10 n=42 v=41
185158 Off ch=10 n=36 v=114
185158 Off ch=10 n=42 v=41
185280 On ch=10 n=44 v=98
185398 Off ch=10 n=44 v=98
185520 On ch=10 n=42 v=42
185638 Off ch=10 n=42 v=42
185760 On ch=10 n=38 v=114
185760 On ch=10 n=44 v=98
185878 Off ch=10 n=38 v=114
185878 Off ch=10 n=44 v=98
186000 On ch=10 n=42 v=45
186124 Off ch=10 n=42 v=45
186240 On ch=10 n=49 v=98
186240 On ch=10 n=36 v=125
186352 Off ch=10 n=49 v=98
186358 Off ch=10 n=36 v=125
186480 On ch=10 n=36 v=112
186598 Off ch=10 n=36 v=112
186720 On ch=10 n=38 v=92
186720 On ch=10 n=44 v=98
186838 Off ch=10 n=38 v=92
186838 Off ch=10 n=44 v=98
186960 On ch=10 n=42 v=41
187078 Off ch=10 n=42 v=41
187200 On ch=10 n=36 v=110
187200 On ch=10 n=44 v=98
187318 Off ch=10 n=36 v=110
187318 Off ch=10 n=44 v=98
187440 On ch=10 n=36 v=117
187440 On ch=10 n=42 v=42
187558 Off ch=10 n=36 v=117
187558 Off ch=10 n=42 v=42
187680 On ch=10 n=38 v=110
187680 On ch=10 n=44 v=98
187798 Off ch=10 n=38 v=110
187798 Off ch=10 n=44 v=98
187920 On ch=10 n=42 v=45
188044 Off ch=10 n=42 v=45
188160 On ch=10 n=36 v=125
188160 On ch=10 n=44 v=98
188272 Off ch=10 n=44 v=98
188278 Off ch=10 n=36 v=125
188400 On ch=10 n=36 v=106
188400 On ch=10 n=42 v=44
188518 Off ch=10 n=36 v=106
188518 Off ch=10 n=42 v=44
188640 On ch=10 n=38 v=106
188640 On ch=10 n=44 v=98
188758 Off ch=10 n=38 v=106
188758 Off ch=10 n=44 v=98
188880 On ch=10 n=42 v=41
188998 Off ch=10 n=42 v=41
189120 On ch=10 n=36 v=98
189120 On ch=10 n=44 v=98
189238 Off ch=10 n=36 v=98
189238 Off ch=10 n=44 v=98
189360 On ch=10 n=36 v=114
189360 On ch=10 n=42 v=42
189478 Off ch=10 n=36 v=114
189478 Off ch=10 n=42 v=42
189600 On ch=10 n=38 v=112
189600 On ch=10 n=44 v=98
189718 Off ch=10 n=38 v=112
189718 Off ch=10 n=44 v=98
189840 On ch=10 n=42 v=45
189964 Off ch=10 n=42 v=45
190080 On ch=10 n=36 v=125
190080 On ch=10 n=44 v=98
190192 Off ch=10 n=44 v=98
190198 Off ch=10 n=36 v=125
190320 On ch=10 n=36 v=106
190320 On ch=10 n=42 v=44
190438 Off ch=10 n=36 v=106
190438 Off ch=10 n=42 v=44
190560 On ch=10 n=38 v=106
190560 On ch=10 n=44 v=98
190678 Off ch=10 n=38 v=106
190678 Off ch=10 n=44 v=98
190800 On ch=10 n=42 v=41
190918 Off ch=10 n=42 v=41
191040 On ch=10 n=36 v=98
191040 On ch=10 n=44 v=98
191158 Off ch=10 n=36 v=98
191158 Off ch=10 n=44 v=98
191280 On ch=10 n=36 v=114
191280 On ch=10 n=42 v=42
191398 Off ch=10 n=36 v=114
191398 Off ch=10 n=42 v=42
191520 On ch=10 n=38 v=112
191520 On ch=10 n=44 v=98
191638 Off ch=10 n=38 v=112
191638 Off ch=10 n=44 v=98
191760 On ch=10 n=42 v=45
191884 Off ch=10 n=42 v=45
192000 On ch=10 n=36 v=125
192000 On ch=10 n=44 v=98
192112 Off ch=10 n=44 v=98
192118 Off ch=10 n=36 v=125
192240 On ch=10 n=36 v=106
192240 On ch=10 n=42 v=44
192358 Off ch=10 n=36 v=106
192358 Off ch=10 n=42 v=44
192480 On ch=10 n=38 v=106
192480 On ch=10 n=44 v=98
192598 Off ch=10 n=38 v=106
192598 Off ch=10 n=44 v=98
192720 On ch=10 n=42 v=41
192838 Off ch=10 n=42 v=41
192960 On ch=10 n=36 v=98
192960 On ch=10 n=44 v=98
193078 Off ch=10 n=36 v=98
193078 Off ch=10 n=44 v=98
193200 On ch=10 n=36 v=114
193200 On ch=10 n=42 v=42
193318 Off ch=10 n=36 v=114
193318 Off ch=10 n=42 v=42
193440 On ch=10 n=36 v=112
193440 On ch=10 n=44 v=98
193558 Off ch=10 n=36 v=112
193558 Off ch=10 n=44 v=98
193679 On ch=10 n=38 v=127
193680 On ch=10 n=49 v=96
193797 Off ch=10 n=38 v=127
193804 Off ch=10 n=49 v=96
194160 On ch=10 n=42 v=44
194278 Off ch=10 n=42 v=44
194400 On ch=10 n=38 v=106
194400 On ch=10 n=44 v=98
194518 Off ch=10 n=38 v=106
194518 Off ch=10 n=44 v=98
194640 On ch=10 n=42 v=41
194758 Off ch=10 n=42 v=41
194880 On ch=10 n=36 v=98
194880 On ch=10 n=44 v=98
194998 Off ch=10 n=36 v=98
194998 Off ch=10 n=44 v=98
195120 On ch=10 n=36 v=114
195120 On ch=10 n=42 v=42
195238 Off ch=10 n=36 v=114
195238 Off ch=10 n=42 v=42
195360 On ch=10 n=38 v=112
195360 On ch=10 n=44 v=98
195478 Off ch=10 n=38 v=112
195478 Off ch=10 n=44 v=98
195600 On ch=10 n=42 v=45
195724 Off ch=10 n=42 v=45
195840 On ch=10 n=36 v=125
195840 On ch=10 n=44 v=98
195952 Off ch=10 n=44 v=98
195958 Off ch=10 n=36 v=125
196080 On ch=10 n=36 v=106
196080 On ch=10 n=42 v=44
196198 Off ch=10 n=36 v=106
196198 Off ch=10 n=42 v=44
196320 On ch=10 n=38 v=106
196320 On ch=10 n=44 v=98
196438 Off ch=10 n=38 v=106
196438 Off ch=10 n=44 v=98
196560 On ch=10 n=42 v=41
196678 Off ch=10 n=42 v=41
196800 On ch=10 n=36 v=98
196800 On ch=10 n=44 v=98
196918 Off ch=10 n=36 v=98
196918 Off ch=10 n=44 v=98
197040 On ch=10 n=36 v=114
197040 On ch=10 n=42 v=42
197158 Off ch=10 n=36 v=114
197158 Off ch=10 n=42 v=42
197280 On ch=10 n=38 v=112
197280 On ch=10 n=44 v=98
197398 Off ch=10 n=38 v=112
197398 Off ch=10 n=44 v=98
197520 On ch=10 n=42 v=45
197644 Off ch=10 n=42 v=45
197760 On ch=10 n=36 v=125
197760 On ch=10 n=44 v=98
197872 Off ch=10 n=44 v=98
197878 Off ch=10 n=36 v=125
198000 On ch=10 n=36 v=106
198000 On ch=10 n=42 v=44
198118 Off ch=10 n=36 v=106
198118 Off ch=10 n=42 v=44
198235 On ch=10 n=44 v=68
198240 On ch=10 n=38 v=106
198353 Off ch=10 n=44 v=68
198358 Off ch=10 n=38 v=106
198475 On ch=10 n=42 v=45
198593 Off ch=10 n=42 v=45
198720 On ch=10 n=36 v=98
198720 On ch=10 n=44 v=98
198838 Off ch=10 n=36 v=98
198838 Off ch=10 n=44 v=98
198960 On ch=10 n=36 v=114
198960 On ch=10 n=42 v=42
199078 Off ch=10 n=36 v=114
199078 Off ch=10 n=42 v=42
199200 On ch=10 n=38 v=112
199200 On ch=10 n=44 v=98
199318 Off ch=10 n=38 v=112
199318 Off ch=10 n=44 v=98
199440 On ch=10 n=42 v=45
199564 Off ch=10 n=42 v=45
199680 On ch=10 n=46 v=45
199680 On ch=10 n=36 v=125
199792 Off ch=10 n=46 v=45
199798 Off ch=10 n=36 v=125
199920 On ch=10 n=46 v=50
199920 On ch=10 n=36 v=106
200038 Off ch=10 n=46 v=50
200038 Off ch=10 n=36 v=106
200160 On ch=10 n=46 v=62
200160 On ch=10 n=38 v=106
200278 Off ch=10 n=38 v=106
200283 Off ch=10 n=46 v=62
200400 On ch=10 n=46 v=74
200518 Off ch=10 n=46 v=74
200640 On ch=10 n=46 v=86
200640 On ch=10 n=36 v=98
200758 Off ch=10 n=46 v=86
200758 Off ch=10 n=36 v=98
200875 On ch=10 n=46 v=96
200880 On ch=10 n=36 v=114
200998 Off ch=10 n=46 v=96
200998 Off ch=10 n=36 v=114
201105 On ch=10 n=38 v=107
201120 On ch=10 n=44 v=1
201125 On ch=10 n=38 v=124
201163 Off ch=10 n=38 v=107
201243 Off ch=10 n=38 v=124
201243 Off ch=10 n=44 v=1
201600 On ch=10 n=36 v=106
201608 On ch=10 n=49 v=93
201691 Off ch=10 n=49 v=93
201718 Off ch=10 n=36 v=106
201840 On ch=10 n=36 v=97
201850 On ch=10 n=51 v=97
201941 Off ch=10 n=51 v=97
201958 Off ch=10 n=36 v=97
202080 On ch=10 n=38 v=91
202092 On ch=10 n=51 v=91
202175 Off ch=10 n=51 v=91
202198 Off ch=10 n=38 v=91
202333 On ch=10 n=51 v=99
202429 Off ch=10 n=51 v=99
202560 On ch=10 n=36 v=102
202565 On ch=10 n=51 v=91
202649 Off ch=10 n=51 v=91
202678 Off ch=10 n=36 v=102
202800 On ch=10 n=36 v=85
202810 On ch=10 n=51 v=99
202899 Off ch=10 n=51 v=99
202918 Off ch=10 n=36 v=85
203040 On ch=10 n=38 v=102
203053 On ch=10 n=51 v=89
203132 Off ch=10 n=51 v=89
203158 Off ch=10 n=38 v=102
203288 On ch=10 n=51 v=97
203374 Off ch=10 n=51 v=97
203520 On ch=10 n=36 v=106
203524 On ch=10 n=51 v=91
203612 Off ch=10 n=51 v=91
203638 Off ch=10 n=36 v=106
203760 On ch=10 n=36 v=106
203762 On ch=10 n=51 v=93
203854 Off ch=10 n=51 v=93
203878 Off ch=10 n=36 v=106
203999 On ch=10 n=51 v=93
204000 On ch=10 n=38 v=98
204088 Off ch=10 n=51 v=93
204118 Off ch=10 n=38 v=98
204238 On ch=10 n=51 v=91
204328 Off ch=10 n=51 v=91
204480 On ch=10 n=36 v=106
204488 On ch=10 n=51 v=93
204571 Off ch=10 n=51 v=93
204598 Off ch=10 n=36 v=106
204720 On ch=10 n=36 v=97
204730 On ch=10 n=51 v=97
204821 Off ch=10 n=51 v=97
204838 Off ch=10 n=36 v=97
204960 On ch=10 n=38 v=91
204972 On ch=10 n=51 v=91
205055 Off ch=10 n=51 v=91
205078 Off ch=10 n=38 v=91
205213 On ch=10 n=51 v=99
205309 Off ch=10 n=51 v=99
205440 On ch=10 n=36 v=102
205445 On ch=10 n=51 v=91
205529 Off ch=10 n=51 v=91
205558 Off ch=10 n=36 v=102
205680 On ch=10 n=36 v=85
205690 On ch=10 n=51 v=99
205779 Off ch=10 n=51 v=99
205798 Off ch=10 n=36 v=85
205920 On ch=10 n=38 v=102
205933 On ch=10 n=51 v=89
206012 Off ch=10 n=51 v=89
206038 Off ch=10 n=38 v=102
206168 On ch=10 n=51 v=97
206254 Off ch=10 n=51 v=97
206400 On ch=10 n=36 v=106
206404 On ch=10 n=51 v=91
206492 Off ch=10 n=51 v=91
206518 Off ch=10 n=36 v=106
206640 On ch=10 n=36 v=106
206642 On ch=10 n=51 v=93
206734 Off ch=10 n=51 v=93
206758 Off ch=10 n=36 v=106
206879 On ch=10 n=51 v=93
206880 On ch=10 n=38 v=98
206968 Off ch=10 n=51 v=93
206998 Off ch=10 n=38 v=98
207118 On ch=10 n=51 v=91
207208 Off ch=10 n=51 v=91
207357 On ch=10 n=36 v=106
207359 On ch=10 n=51 v=93
207452 Off ch=10 n=51 v=93
207475 Off ch=10 n=36 v=106
207600 On ch=10 n=51 v=93
207601 On ch=10 n=36 v=97
207687 Off ch=10 n=51 v=93
207719 Off ch=10 n=36 v=97
207842 On ch=10 n=38 v=106
207848 On ch=10 n=51 v=93
207931 Off ch=10 n=51 v=93
207960 Off ch=10 n=38 v=106
208090 On ch=10 n=51 v=97
208181 Off ch=10 n=51 v=97
208320 On ch=10 n=36 v=104
208323 On ch=10 n=51 v=63
208371 Off ch=10 n=51 v=63
208438 Off ch=10 n=36 v=104
208558 On ch=10 n=51 v=71
208560 On ch=10 n=36 v=106
208626 Off ch=10 n=51 v=71
208678 Off ch=10 n=36 v=106
208792 On ch=10 n=51 v=78
208800 On ch=10 n=38 v=106
208892 Off ch=10 n=51 v=78
208918 Off ch=10 n=38 v=106
209037 On ch=10 n=51 v=95
209138 Off ch=10 n=51 v=95
209280 On ch=10 n=36 v=104
209283 On ch=10 n=51 v=95
209392 Off ch=10 n=51 v=95
209398 Off ch=10 n=36 v=104
209520 On ch=10 n=36 v=97
209529 On ch=10 n=51 v=91
209626 Off ch=10 n=51 v=91
209638 Off ch=10 n=36 v=97
209760 On ch=10 n=38 v=104
209769 On ch=10 n=51 v=91
209868 Off ch=10 n=51 v=91
209878 Off ch=10 n=38 v=104
210008 On ch=10 n=51 v=84
210098 Off ch=10 n=51 v=84
210240 On ch=10 n=36 v=91
210245 On ch=10 n=51 v=85
210327 Off ch=10 n=51 v=85
210358 Off ch=10 n=36 v=91
210480 On ch=10 n=36 v=95
210483 On ch=10 n=51 v=82
210564 Off ch=10 n=51 v=82
210598 Off ch=10 n=36 v=95
210718 On ch=10 n=51 v=81
210719 On ch=10 n=38 v=104
210813 Off ch=10 n=51 v=81
210837 Off ch=10 n=38 v=104
210958 On ch=10 n=51 v=78
211044 Off ch=10 n=51 v=78
211200 On ch=10 n=36 v=106
211204 On ch=10 n=51 v=91
211292 Off ch=10 n=51 v=91
211318 Off ch=10 n=36 v=106
211440 On ch=10 n=36 v=106
211442 On ch=10 n=51 v=93
211534 Off ch=10 n=51 v=93
211558 Off ch=10 n=36 v=106
211679 On ch=10 n=51 v=93
211680 On ch=10 n=38 v=98
211768 Off ch=10 n=51 v=93
211798 Off ch=10 n=38 v=98
211918 On ch=10 n=51 v=91
212008 Off ch=10 n=51 v=91
212160 On ch=10 n=36 v=106
212168 On ch=10 n=51 v=93
212251 Off ch=10 n=51 v=93
212278 Off ch=10 n=36 v=106
212400 On ch=10 n=36 v=97
212410 On ch=10 n=51 v=97
212501 Off ch=10 n=51 v=97
212518 Off ch=10 n=36 v=97
212640 On ch=10 n=38 v=91
212652 On ch=10 n=51 v=91
212735 Off ch=10 n=51 v=91
212758 Off ch=10 n=38 v=91
212893 On ch=10 n=51 v=99
212989 Off ch=10 n=51 v=99
213120 On ch=10 n=36 v=102
213125 On ch=10 n=51 v=91
213209 Off ch=10 n=51 v=91
213238 Off ch=10 n=36 v=102
213360 On ch=10 n=36 v=85
213370 On ch=10 n=51 v=99
213459 Off ch=10 n=51 v=99
213478 Off ch=10 n=36 v=85
213600 On ch=10 n=38 v=102
213613 On ch=10 n=51 v=89
213692 Off ch=10 n=51 v=89
213718 Off ch=10 n=38 v=102
213839 On ch=10 n=36 v=96
213848 On ch=10 n=51 v=97
213931 Off ch=10 n=36 v=96
213934 Off ch=10 n=51 v=97
214080 On ch=10 n=38 v=106
214084 On ch=10 n=51 v=91
214172 Off ch=10 n=51 v=91
214198 Off ch=10 n=38 v=106
214320 On ch=10 n=38 v=106
214438 Off ch=10 n=38 v=106
214560 On ch=10 n=36 v=106
214568 On ch=10 n=51 v=93
214651 Off ch=10 n=51 v=93
214678 Off ch=10 n=36 v=106
214800 On ch=10 n=36 v=97
214810 On ch=10 n=51 v=97
214901 Off ch=10 n=51 v=97
214918 Off ch=10 n=36 v=97
215040 On ch=10 n=38 v=91
215052 On ch=10 n=51 v=91
215135 Off ch=10 n=51 v=91
215158 Off ch=10 n=38 v=91
215293 On ch=10 n=51 v=99
215389 Off ch=10 n=51 v=99
215520 On ch=10 n=36 v=102
215525 On ch=10 n=51 v=91
215609 Off ch=10 n=51 v=91
215638 Off ch=10 n=36 v=102
215760 On ch=10 n=36 v=85
215770 On ch=10 n=51 v=99
215859 Off ch=10 n=51 v=99
215878 Off ch=10 n=36 v=85
216000 On ch=10 n=38 v=102
216013 On ch=10 n=51 v=89
216092 Off ch=10 n=51 v=89
216118 Off ch=10 n=38 v=102
216248 On ch=10 n=51 v=97
216334 Off ch=10 n=51 v=97
216480 On ch=10 n=36 v=106
216484 On ch=10 n=51 v=91
216572 Off ch=10 n=51 v=91
216598 Off ch=10 n=36 v=106
216720 On ch=10 n=36 v=106
216722 On ch=10 n=51 v=93
216814 Off ch=10 n=51 v=93
216838 Off ch=10 n=36 v=106
216959 On ch=10 n=51 v=93
216960 On ch=10 n=38 v=98
217048 Off ch=10 n=51 v=93
217078 Off ch=10 n=38 v=98
217198 On ch=10 n=51 v=91
217288 Off ch=10 n=51 v=91
217440 On ch=10 n=36 v=106
217448 On ch=10 n=51 v=93
217531 Off ch=10 n=51 v=93
217558 Off ch=10 n=36 v=106
217680 On ch=10 n=36 v=97
217690 On ch=10 n=51 v=97
217781 Off ch=10 n=51 v=97
217798 Off ch=10 n=36 v=97
217920 On ch=10 n=38 v=91
217932 On ch=10 n=51 v=91
218015 Off ch=10 n=51 v=91
218038 Off ch=10 n=38 v=91
218173 On ch=10 n=51 v=99
218269 Off ch=10 n=51 v=99
218400 On ch=10 n=36 v=102
218405 On ch=10 n=51 v=91
218489 Off ch=10 n=51 v=91
218518 Off ch=10 n=36 v=102
218640 On ch=10 n=36 v=85
218650 On ch=10 n=51 v=99
218739 Off ch=10 n=51 v=99
218758 Off ch=10 n=36 v=85
218880 On ch=10 n=38 v=102
218893 On ch=10 n=51 v=89
218972 Off ch=10 n=51 v=89
218998 Off ch=10 n=38 v=102
219128 On ch=10 n=51 v=97
219214 Off ch=10 n=51 v=97
219360 On ch=10 n=36 v=106
219364 On ch=10 n=51 v=91
219452 Off ch=10 n=51 v=91
219478 Off ch=10 n=36 v=106
219600 On ch=10 n=36 v=106
219602 On ch=10 n=51 v=93
219694 Off ch=10 n=51 v=93
219718 Off ch=10 n=36 v=106
219839 On ch=10 n=51 v=93
219840 On ch=10 n=38 v=98
219928 Off ch=10 n=51 v=93
219958 Off ch=10 n=38 v=98
220078 On ch=10 n=51 v=91
220168 Off ch=10 n=51 v=91
220317 On ch=10 n=36 v=106
220319 On ch=10 n=51 v=93
220412 Off ch=10 n=51 v=93
220435 Off ch=10 n=36 v=106
220560 On ch=10 n=51 v=93
220561 On ch=10 n=36 v=97
220647 Off ch=10 n=51 v=93
220679 Off ch=10 n=36 v=97
220802 On ch=10 n=38 v=106
220808 On ch=10 n=51 v=93
220891 Off ch=10 n=51 v=93
220920 Off ch=10 n=38 v=106
221050 On ch=10 n=51 v=97
221141 Off ch=10 n=51 v=97
221280 On ch=10 n=36 v=104
221283 On ch=10 n=51 v=63
221331 Off ch=10 n=51 v=63
221398 Off ch=10 n=36 v=104
221518 On ch=10 n=51 v=71
221520 On ch=10 n=36 v=106
221586 Off ch=10 n=51 v=71
221638 Off ch=10 n=36 v=106
221752 On ch=10 n=51 v=78
221760 On ch=10 n=38 v=106
221852 Off ch=10 n=51 v=78
221878 Off ch=10 n=38 v=106
221997 On ch=10 n=51 v=95
222098 Off ch=10 n=51 v=95
222240 On ch=10 n=36 v=104
222243 On ch=10 n=51 v=95
222352 Off ch=10 n=51 v=95
222358 Off ch=10 n=36 v=104
222480 On ch=10 n=36 v=97
222489 On ch=10 n=51 v=91
222586 Off ch=10 n=51 v=91
222598 Off ch=10 n=36 v=97
222720 On ch=10 n=38 v=104
222729 On ch=10 n=51 v=91
222828 Off ch=10 n=51 v=91
222838 Off ch=10 n=38 v=104
222968 On ch=10 n=51 v=84
223058 Off ch=10 n=51 v=84
223200 On ch=10 n=36 v=91
223206 On ch=10 n=51 v=81
223296 Off ch=10 n=51 v=81
223318 Off ch=10 n=36 v=91
223440 On ch=10 n=36 v=95
223443 On ch=10 n=51 v=82
223524 Off ch=10 n=51 v=82
223558 Off ch=10 n=36 v=95
223678 On ch=10 n=51 v=81
223679 On ch=10 n=38 v=104
223773 Off ch=10 n=51 v=81
223797 Off ch=10 n=38 v=104
223918 On ch=10 n=51 v=78
224004 Off ch=10 n=51 v=78
224160 On ch=10 n=36 v=104
224163 On ch=10 n=49 v=63
224211 Off ch=10 n=49 v=63
224278 Off ch=10 n=36 v=104
224398 On ch=10 n=51 v=71
224400 On ch=10 n=36 v=106
224466 Off ch=10 n=51 v=71
224518 Off ch=10 n=36 v=106
224632 On ch=10 n=51 v=78
224640 On ch=10 n=38 v=106
224732 Off ch=10 n=51 v=78
224758 Off ch=10 n=38 v=106
224877 On ch=10 n=51 v=95
224978 Off ch=10 n=51 v=95
225120 On ch=10 n=36 v=104
225123 On ch=10 n=51 v=95
225232 Off ch=10 n=51 v=95
225238 Off ch=10 n=36 v=104
225360 On ch=10 n=36 v=97
225369 On ch=10 n=51 v=91
225466 Off ch=10 n=51 v=91
225478 Off ch=10 n=36 v=97
225600 On ch=10 n=38 v=104
225609 On ch=10 n=51 v=91
225708 Off ch=10 n=51 v=91
225718 Off ch=10 n=38 v=104
225848 On ch=10 n=51 v=84
225938 Off ch=10 n=51 v=84
225961 On ch=10 n=51 v=95
226069 Off ch=10 n=51 v=95
226080 On ch=10 n=36 v=91
226085 On ch=10 n=51 v=85
226167 Off ch=10 n=51 v=85
226198 Off ch=10 n=36 v=91
226323 On ch=10 n=51 v=82
226404 Off ch=10 n=51 v=82
226558 On ch=10 n=51 v=81
226559 On ch=10 n=38 v=104
226653 Off ch=10 n=51 v=81
226677 Off ch=10 n=38 v=104
226800 On ch=10 n=49 v=66
226800 On ch=10 n=36 v=91
226890 Off ch=10 n=49 v=66
226921 Off ch=10 n=36 v=91
227278 On ch=10 n=51 v=71
227280 On ch=10 n=36 v=106
227346 Off ch=10 n=51 v=71
227398 Off ch=10 n=36 v=106
227512 On ch=10 n=51 v=78
227520 On ch=10 n=38 v=106
227612 Off ch=10 n=51 v=78
227638 Off ch=10 n=38 v=106
227757 On ch=10 n=51 v=95
227858 Off ch=10 n=51 v=95
228000 On ch=10 n=36 v=104
228003 On ch=10 n=51 v=95
228112 Off ch=10 n=51 v=95
228118 Off ch=10 n=36 v=104
228240 On ch=10 n=36 v=97
228249 On ch=10 n=51 v=91
228346 Off ch=10 n=51 v=91
228358 Off ch=10 n=36 v=97
228480 On ch=10 n=38 v=104
228489 On ch=10 n=51 v=91
228588 Off ch=10 n=51 v=91
228598 Off ch=10 n=38 v=104
228728 On ch=10 n=51 v=84
228818 Off ch=10 n=51 v=84
228960 On ch=10 n=36 v=91
228965 On ch=10 n=51 v=85
229047 Off ch=10 n=51 v=85
229078 Off ch=10 n=36 v=91
229203 On ch=10 n=51 v=82
229284 Off ch=10 n=51 v=82
229424 On ch=10 n=38 v=106
229439 On ch=10 n=38 v=116
229482 Off ch=10 n=38 v=106
229557 Off ch=10 n=38 v=116
229678 On ch=10 n=49 v=78
229680 On ch=10 n=36 v=85
229764 Off ch=10 n=49 v=78
229798 Off ch=10 n=36 v=85
230158 On ch=10 n=51 v=71
230160 On ch=10 n=36 v=106
230226 Off ch=10 n=51 v=71
230278 Off ch=10 n=36 v=106
230392 On ch=10 n=51 v=78
230400 On ch=10 n=38 v=106
230492 Off ch=10 n=51 v=78
230518 Off ch=10 n=38 v=106
230637 On ch=10 n=51 v=47
230733 Off ch=10 n=51 v=47
230880 On ch=10 n=36 v=104
230883 On ch=10 n=51 v=95
230992 Off ch=10 n=51 v=95
230998 Off ch=10 n=36 v=104
231120 On ch=10 n=36 v=97
231129 On ch=10 n=51 v=91
231226 Off ch=10 n=51 v=91
231238 Off ch=10 n=36 v=97
231360 On ch=10 n=38 v=104
231369 On ch=10 n=51 v=91
231468 Off ch=10 n=51 v=91
231478 Off ch=10 n=38 v=104
231608 On ch=10 n=51 v=84
231698 Off ch=10 n=51 v=84
231840 On ch=10 n=36 v=91
231845 On ch=10 n=51 v=85
231927 Off ch=10 n=51 v=85
231958 Off ch=10 n=36 v=91
232083 On ch=10 n=51 v=82
232164 Off ch=10 n=51 v=82
232318 On ch=10 n=51 v=81
232319 On ch=10 n=38 v=104
232413 Off ch=10 n=51 v=81
232437 Off ch=10 n=38 v=104
232558 On ch=10 n=51 v=78
232560 On ch=10 n=38 v=85
232644 Off ch=10 n=51 v=78
232678 Off ch=10 n=38 v=85
232800 On ch=10 n=49 v=91
232800 On ch=10 n=36 v=106
232918 Off ch=10 n=49 v=91
232918 Off ch=10 n=36 v=106
233280 On ch=10 n=38 v=95
233398 Off ch=10 n=38 v=95
233520 On ch=10 n=57 v=97
233520 On ch=10 n=36 v=76
233638 Off ch=10 n=57 v=97
233638 Off ch=10 n=36 v=76
234000 On ch=10 n=38 v=94
234118 Off ch=10 n=38 v=94
234240 On ch=10 n=49 v=84
234240 On ch=10 n=36 v=112
234358 Off ch=10 n=49 v=84
234358 Off ch=10 n=36 v=112
234480 On ch=10 n=38 v=104
234598 Off ch=10 n=38 v=104
234720 On ch=10 n=38 v=95
234838 Off ch=10 n=38 v=95
234960 On ch=10 n=57 v=70
234960 On ch=10 n=36 v=106
235078 Off ch=10 n=57 v=70
235078 Off ch=10 n=36 v=106
235440 On ch=10 n=38 v=90
235558 Off ch=10 n=38 v=90
235680 On ch=10 n=36 v=100
235680 On ch=10 n=45 v=106
235798 Off ch=10 n=36 v=100
235798 Off ch=10 n=45 v=106
235920 On ch=10 n=45 v=94
236038 Off ch=10 n=45 v=94
236160 On ch=10 n=45 v=97
236278 Off ch=10 n=45 v=97
236400 On ch=10 n=36 v=108
236400 On ch=10 n=43 v=106
236518 Off ch=10 n=36 v=108
236518 Off ch=10 n=43 v=106
236640 On ch=10 n=43 v=112
236758 Off ch=10 n=43 v=112
237120 On ch=10 n=57 v=86
237120 On ch=10 n=38 v=95
237204 Off ch=10 n=57 v=86
237238 Off ch=10 n=38 v=95
237284 Par ch=10 c=7 v=100
237341 Par ch=10 c=7 v=82
237400 Par ch=10 c=7 v=64
237461 Par ch=10 c=7 v=32
237520 Par ch=10 c=7 v=0
238800 Par ch=10 c=7 v=100
239040 On ch=10 n=36 v=88
239040 On ch=10 n=49 v=79
239158 Off ch=10 n=36 v=88
239188 Off ch=10 n=49 v=79
239520 On ch=10 n=51 v=77
239738 Off ch=10 n=51 v=77
240000 On ch=10 n=38 v=85
240002 On ch=10 n=51 v=77
240118 Off ch=10 n=38 v=85
240201 Off ch=10 n=51 v=77
240480 On ch=10 n=51 v=77
240660 Off ch=10 n=51 v=77
240720 On ch=10 n=36 v=98
240838 Off ch=10 n=36 v=98
240960 On ch=10 n=51 v=78
240960 On ch=10 n=36 v=106
241078 Off ch=10 n=36 v=106
241151 Off ch=10 n=51 v=78
241439 On ch=10 n=36 v=98
241440 On ch=10 n=51 v=76
241557 Off ch=10 n=36 v=98
241626 Off ch=10 n=51 v=76
241920 On ch=10 n=51 v=77
241920 On ch=10 n=38 v=78
242038 Off ch=10 n=38 v=78
242113 Off ch=10 n=51 v=77
242400 On ch=10 n=51 v=79
242578 Off ch=10 n=51 v=79
242640 On ch=10 n=36 v=100
242758 Off ch=10 n=36 v=100
242880 On ch=10 n=51 v=77
242880 On ch=10 n=36 v=90
242998 Off ch=10 n=36 v=90
243075 Off ch=10 n=51 v=77
243360 On ch=10 n=51 v=76
243360 On ch=10 n=36 v=100
243478 Off ch=10 n=36 v=100
243544 Off ch=10 n=51 v=76
243840 On ch=10 n=51 v=78
243840 On ch=10 n=38 v=77
243958 Off ch=10 n=38 v=77
244041 Off ch=10 n=51 v=78
244320 On ch=10 n=51 v=78
244512 Off ch=10 n=51 v=78
244560 On ch=10 n=36 v=98
244678 Off ch=10 n=36 v=98
244800 On ch=10 n=51 v=77
244800 On ch=10 n=36 v=95
244918 Off ch=10 n=36 v=95
245005 Off ch=10 n=51 v=77
245280 On ch=10 n=51 v=78
245460 Off ch=10 n=51 v=78
245520 On ch=10 n=36 v=106
245638 Off ch=10 n=36 v=106
245640 On ch=10 n=36 v=95
245758 Off ch=10 n=36 v=95
245760 On ch=10 n=51 v=75
245760 On ch=10 n=38 v=92
245878 Off ch=10 n=38 v=92
245966 Off ch=10 n=51 v=75
246000 On ch=10 n=36 v=90
246118 Off ch=10 n=36 v=90
246240 On ch=10 n=51 v=77
246445 Off ch=10 n=51 v=77
246480 On ch=10 n=36 v=97
246598 Off ch=10 n=36 v=97
246720 On ch=10 n=51 v=77
246720 On ch=10 n=36 v=90
246838 Off ch=10 n=36 v=90
246915 Off ch=10 n=51 v=77
247200 On ch=10 n=51 v=76
247200 On ch=10 n=36 v=100
247318 Off ch=10 n=36 v=100
247384 Off ch=10 n=51 v=76
247680 On ch=10 n=51 v=78
247680 On ch=10 n=38 v=77
247798 Off ch=10 n=38 v=77
247881 Off ch=10 n=51 v=78
248160 On ch=10 n=51 v=78
248352 Off ch=10 n=51 v=78
248400 On ch=10 n=36 v=98
248518 Off ch=10 n=36 v=98
248640 On ch=10 n=51 v=77
248640 On ch=10 n=36 v=95
248758 Off ch=10 n=36 v=95
248845 Off ch=10 n=51 v=77
249120 On ch=10 n=51 v=78
249300 Off ch=10 n=51 v=78
249360 On ch=10 n=36 v=106
249478 Off ch=10 n=36 v=106
249480 On ch=10 n=36 v=95
249598 Off ch=10 n=36 v=95
249600 On ch=10 n=51 v=75
249600 On ch=10 n=38 v=92
249718 Off ch=10 n=38 v=92
249806 Off ch=10 n=51 v=75
249840 On ch=10 n=36 v=90
249958 Off ch=10 n=36 v=90
250080 On ch=10 n=51 v=77
250285 Off ch=10 n=51 v=77
250320 On ch=10 n=36 v=97
250438 Off ch=10 n=36 v=97
250560 On ch=10 n=51 v=77
250560 On ch=10 n=36 v=90
250678 Off ch=10 n=36 v=90
250755 Off ch=10 n=51 v=77
251040 On ch=10 n=51 v=76
251040 On ch=10 n=36 v=100
251158 Off ch=10 n=36 v=100
251224 Off ch=10 n=51 v=76
251520 On ch=10 n=51 v=78
251520 On ch=10 n=38 v=77
251638 Off ch=10 n=38 v=77
251721 Off ch=10 n=51 v=78
252000 On ch=10 n=51 v=78
252192 Off ch=10 n=51 v=78
252240 On ch=10 n=36 v=98
252358 Off ch=10 n=36 v=98
252480 On ch=10 n=51 v=77
252480 On ch=10 n=36 v=95
252598 Off ch=10 n=36 v=95
252685 Off ch=10 n=51 v=77
252960 On ch=10 n=51 v=78
253140 Off ch=10 n=51 v=78
253200 On ch=10 n=36 v=106
253318 Off ch=10 n=36 v=106
253320 On ch=10 n=36 v=95
253438 Off ch=10 n=36 v=95
253440 On ch=10 n=51 v=75
253440 On ch=10 n=38 v=92
253558 Off ch=10 n=38 v=92
253646 Off ch=10 n=51 v=75
253680 On ch=10 n=36 v=90
253798 Off ch=10 n=36 v=90
253915 On ch=10 n=49 v=77
254120 Off ch=10 n=49 v=77
254160 On ch=10 n=36 v=97
254278 Off ch=10 n=36 v=97
254400 On ch=10 n=57 v=77
254400 On ch=10 n=36 v=90
254518 Off ch=10 n=36 v=90
254595 Off ch=10 n=57 v=77
254880 On ch=10 n=36 v=100
254998 Off ch=10 n=36 v=100
255360 On ch=10 n=51 v=78
255360 On ch=10 n=38 v=77
255478 Off ch=10 n=38 v=77
255561 Off ch=10 n=51 v=78
255840 On ch=10 n=51 v=78
256032 Off ch=10 n=51 v=78
256080 On ch=10 n=36 v=98
256198 Off ch=10 n=36 v=98
256320 On ch=10 n=51 v=77
256320 On ch=10 n=36 v=95
256438 Off ch=10 n=36 v=95
256525 Off ch=10 n=51 v=77
256800 On ch=10 n=51 v=78
256980 Off ch=10 n=51 v=78
257040 On ch=10 n=36 v=106
257158 Off ch=10 n=36 v=106
257280 On ch=10 n=51 v=75
257280 On ch=10 n=38 v=92
257398 Off ch=10 n=38 v=92
257486 Off ch=10 n=51 v=75
257520 On ch=10 n=36 v=90
257638 Off ch=10 n=36 v=90
257760 On ch=10 n=51 v=77
257965 Off ch=10 n=51 v=77
258000 On ch=10 n=36 v=97
258118 Off ch=10 n=36 v=97
258240 On ch=10 n=49 v=49
258240 On ch=10 n=36 v=100
258358 Off ch=10 n=36 v=100
258420 Off ch=10 n=49 v=49
258720 On ch=10 n=36 v=114
258720 On ch=10 n=51 v=56
258838 Off ch=10 n=36 v=114
258903 Off ch=10 n=51 v=56
259200 On ch=10 n=38 v=100
259200 On ch=10 n=51 v=58
259318 Off ch=10 n=38 v=100
259392 Off ch=10 n=51 v=58
259680 On ch=10 n=51 v=61
259872 Off ch=10 n=51 v=61
259920 On ch=10 n=36 v=87
260038 Off ch=10 n=36 v=87
260160 On ch=10 n=36 v=94
260160 On ch=10 n=51 v=62
260278 Off ch=10 n=36 v=94
260353 Off ch=10 n=51 v=62
260640 On ch=10 n=51 v=59
260826 Off ch=10 n=51 v=59
261120 On ch=10 n=38 v=75
261120 On ch=10 n=51 v=59
261238 Off ch=10 n=38 v=75
261297 Off ch=10 n=51 v=59
261360 On ch=10 n=51 v=66
261478 Off ch=10 n=51 v=66
261600 On ch=10 n=51 v=64
261601 On ch=10 n=38 v=104
261719 Off ch=10 n=38 v=104
261796 Off ch=10 n=51 v=64
261840 On ch=10 n=38 v=90
261840 On ch=10 n=51 v=85
261958 Off ch=10 n=38 v=90
261958 Off ch=10 n=51 v=85
262080 On ch=10 n=49 v=53
262080 On ch=10 n=36 v=100
262198 Off ch=10 n=36 v=100
262287 Off ch=10 n=49 v=53
262560 On ch=10 n=51 v=67
262678 Off ch=10 n=51 v=67
263040 On ch=10 n=38 v=88
263040 On ch=10 n=51 v=70
263158 Off ch=10 n=38 v=88
263269 Off ch=10 n=51 v=70
263280 On ch=10 n=51 v=60
263398 Off ch=10 n=51 v=60
263520 On ch=10 n=38 v=95
263520 On ch=10 n=51 v=61
263638 Off ch=10 n=38 v=95
263638 Off ch=10 n=51 v=61
263760 On ch=10 n=38 v=114
263878 Off ch=10 n=38 v=114
264000 On ch=10 n=49 v=98
264000 On ch=10 n=36 v=125
264112 Off ch=10 n=49 v=98
264118 Off ch=10 n=36 v=125
264240 On ch=10 n=36 v=112
264358 Off ch=10 n=36 v=112
264480 On ch=10 n=38 v=92
264480 On ch=10 n=44 v=98
264598 Off ch=10 n=38 v=92
264598 Off ch=10 n=44 v=98
264720 On ch=10 n=42 v=41
264838 Off ch=10 n=42 v=41
264960 On ch=10 n=36 v=110
264960 On ch=10 n=44 v=98
265078 Off ch=10 n=36 v=110
265078 Off ch=10 n=44 v=98
265200 On ch=10 n=36 v=117
265200 On ch=10 n=42 v=42
265318 Off ch=10 n=36 v=117
265318 Off ch=10 n=42 v=42
265440 On ch=10 n=38 v=110
265440 On ch=10 n=44 v=98
265558 Off ch=10 n=38 v=110
265558 Off ch=10 n=44 v=98
265680 On ch=10 n=42 v=45
265804 Off ch=10 n=42 v=45
265920 On ch=10 n=36 v=125
265920 On ch=10 n=44 v=98
266032 Off ch=10 n=44 v=98
266038 Off ch=10 n=36 v=125
266160 On ch=10 n=36 v=106
266160 On ch=10 n=42 v=44
266278 Off ch=10 n=36 v=106
266278 Off ch=10 n=42 v=44
266400 On ch=10 n=38 v=106
266400 On ch=10 n=44 v=98
266518 Off ch=10 n=38 v=106
266518 Off ch=10 n=44 v=98
266640 On ch=10 n=42 v=41
266758 Off ch=10 n=42 v=41
266880 On ch=10 n=36 v=98
266880 On ch=10 n=44 v=98
266998 Off ch=10 n=36 v=98
266998 Off ch=10 n=44 v=98
267120 On ch=10 n=36 v=114
267120 On ch=10 n=42 v=42
267238 Off ch=10 n=36 v=114
267238 Off ch=10 n=42 v=42
267360 On ch=10 n=38 v=112
267360 On ch=10 n=44 v=98
267478 Off ch=10 n=38 v=112
267478 Off ch=10 n=44 v=98
267600 On ch=10 n=42 v=45
267724 Off ch=10 n=42 v=45
267840 On ch=10 n=36 v=125
267840 On ch=10 n=44 v=98
267952 Off ch=10 n=44 v=98
267958 Off ch=10 n=36 v=125
268080 On ch=10 n=36 v=106
268080 On ch=10 n=42 v=44
268198 Off ch=10 n=36 v=106
268198 Off ch=10 n=42 v=44
268320 On ch=10 n=38 v=106
268320 On ch=10 n=44 v=98
268438 Off ch=10 n=38 v=106
268438 Off ch=10 n=44 v=98
268560 On ch=10 n=42 v=41
268678 Off ch=10 n=42 v=41
268800 On ch=10 n=36 v=98
268800 On ch=10 n=44 v=98
268918 Off ch=10 n=36 v=98
268918 Off ch=10 n=44 v=98
269040 On ch=10 n=36 v=114
269040 On ch=10 n=42 v=42
269158 Off ch=10 n=36 v=114
269158 Off ch=10 n=42 v=42
269280 On ch=10 n=38 v=112
269280 On ch=10 n=44 v=98
269398 Off ch=10 n=38 v=112
269398 Off ch=10 n=44 v=98
269520 On ch=10 n=42 v=45
269644 Off ch=10 n=42 v=45
269760 On ch=10 n=36 v=125
269760 On ch=10 n=44 v=98
269872 Off ch=10 n=44 v=98
269878 Off ch=10 n=36 v=125
270000 On ch=10 n=36 v=106
270000 On ch=10 n=42 v=44
270118 Off ch=10 n=36 v=106
270118 Off ch=10 n=42 v=44
270240 On ch=10 n=38 v=106
270240 On ch=10 n=44 v=98
270358 Off ch=10 n=38 v=106
270358 Off ch=10 n=44 v=98
270480 On ch=10 n=42 v=41
270598 Off ch=10 n=42 v=41
270720 On ch=10 n=36 v=98
270720 On ch=10 n=44 v=98
270838 Off ch=10 n=36 v=98
270838 Off ch=10 n=44 v=98
270960 On ch=10 n=36 v=114
270960 On ch=10 n=42 v=42
271078 Off ch=10 n=36 v=114
271078 Off ch=10 n=42 v=42
271200 On ch=10 n=38 v=112
271200 On ch=10 n=44 v=98
271318 Off ch=10 n=38 v=112
271318 Off ch=10 n=44 v=98
271439 On ch=10 n=38 v=127
271440 On ch=10 n=49 v=96
271557 Off ch=10 n=38 v=127
271564 Off ch=10 n=49 v=96
271920 On ch=10 n=36 v=106
271920 On ch=10 n=42 v=44
272038 Off ch=10 n=36 v=106
272038 Off ch=10 n=42 v=44
272160 On ch=10 n=38 v=106
272160 On ch=10 n=44 v=98
272278 Off ch=10 n=38 v=106
272278 Off ch=10 n=44 v=98
272400 On ch=10 n=42 v=41
272518 Off ch=10 n=42 v=41
272640 On ch=10 n=36 v=98
272640 On ch=10 n=44 v=98
272758 Off ch=10 n=36 v=98
272758 Off ch=10 n=44 v=98
272880 On ch=10 n=36 v=114
272880 On ch=10 n=42 v=42
272998 Off ch=10 n=36 v=114
272998 Off ch=10 n=42 v=42
273120 On ch=10 n=38 v=112
273120 On ch=10 n=44 v=98
273238 Off ch=10 n=38 v=112
273238 Off ch=10 n=44 v=98
273360 On ch=10 n=42 v=45
273484 Off ch=10 n=42 v=45
273600 On ch=10 n=36 v=125
273600 On ch=10 n=44 v=98
273712 Off ch=10 n=44 v=98
273718 Off ch=10 n=36 v=125
273840 On ch=10 n=36 v=106
273840 On ch=10 n=42 v=44
273958 Off ch=10 n=36 v=106
273958 Off ch=10 n=42 v=44
274080 On ch=10 n=38 v=106
274080 On ch=10 n=44 v=98
274198 Off ch=10 n=38 v=106
274198 Off ch=10 n=44 v=98
274320 On ch=10 n=42 v=41
274438 Off ch=10 n=42 v=41
274560 On ch=10 n=36 v=98
274560 On ch=10 n=44 v=98
274678 Off ch=10 n=36 v=98
274678 Off ch=10 n=44 v=98
274800 On ch=10 n=36 v=114
274800 On ch=10 n=42 v=42
274918 Off ch=10 n=36 v=114
274918 Off ch=10 n=42 v=42
275040 On ch=10 n=38 v=112
275040 On ch=10 n=44 v=98
275158 Off ch=10 n=38 v=112
275158 Off ch=10 n=44 v=98
275280 On ch=10 n=42 v=45
275404 Off ch=10 n=42 v=45
275520 On ch=10 n=36 v=125
275520 On ch=10 n=44 v=98
275632 Off ch=10 n=44 v=98
275638 Off ch=10 n=36 v=125
275760 On ch=10 n=36 v=106
275760 On ch=10 n=42 v=44
275878 Off ch=10 n=36 v=106
275878 Off ch=10 n=42 v=44
276000 On ch=10 n=38 v=106
276000 On ch=10 n=44 v=98
276118 Off ch=10 n=38 v=106
276118 Off ch=10 n=44 v=98
276240 On ch=10 n=42 v=41
276358 Off ch=10 n=42 v=41
276480 On ch=10 n=36 v=98
276480 On ch=10 n=44 v=98
276598 Off ch=10 n=36 v=98
276598 Off ch=10 n=44 v=98
276720 On ch=10 n=36 v=114
276720 On ch=10 n=42 v=42
276838 Off ch=10 n=36 v=114
276838 Off ch=10 n=42 v=42
276960 On ch=10 n=38 v=112
276960 On ch=10 n=44 v=98
277078 Off ch=10 n=38 v=112
277078 Off ch=10 n=44 v=98
277200 On ch=10 n=42 v=45
277324 Off ch=10 n=42 v=45
277440 On ch=10 n=36 v=125
277440 On ch=10 n=44 v=98
277552 Off ch=10 n=44 v=98
277558 Off ch=10 n=36 v=125
277680 On ch=10 n=36 v=106
277680 On ch=10 n=42 v=44
277798 Off ch=10 n=36 v=106
277798 Off ch=10 n=42 v=44
277920 On ch=10 n=38 v=106
277920 On ch=10 n=44 v=98
278038 Off ch=10 n=38 v=106
278038 Off ch=10 n=44 v=98
278160 On ch=10 n=42 v=41
278278 Off ch=10 n=42 v=41
278400 On ch=10 n=36 v=98
278400 On ch=10 n=44 v=98
278518 Off ch=10 n=36 v=98
278518 Off ch=10 n=44 v=98
278640 On ch=10 n=36 v=114
278640 On ch=10 n=42 v=42
278758 Off ch=10 n=36 v=114
278758 Off ch=10 n=42 v=42
278880 On ch=10 n=38 v=112
278880 On ch=10 n=44 v=98
278998 Off ch=10 n=38 v=112
278998 Off ch=10 n=44 v=98
279120 On ch=10 n=36 v=100
279120 On ch=10 n=42 v=45
279238 Off ch=10 n=36 v=100
279240 On ch=10 n=36 v=98
279244 Off ch=10 n=42 v=45
279358 Off ch=10 n=36 v=98
279360 On ch=10 n=36 v=125
279360 On ch=10 n=44 v=98
279472 Off ch=10 n=44 v=98
279478 Off ch=10 n=36 v=125
279600 On ch=10 n=36 v=106
279600 On ch=10 n=42 v=44
279718 Off ch=10 n=36 v=106
279718 Off ch=10 n=42 v=44
279840 On ch=10 n=38 v=106
279840 On ch=10 n=44 v=98
279958 Off ch=10 n=38 v=106
279958 Off ch=10 n=44 v=98
280080 On ch=10 n=42 v=41
280198 Off ch=10 n=42 v=41
280320 On ch=10 n=36 v=98
280320 On ch=10 n=44 v=98
280438 Off ch=10 n=36 v=98
280438 Off ch=10 n=44 v=98
280560 On ch=10 n=36 v=114
280560 On ch=10 n=42 v=42
280678 Off ch=10 n=36 v=114
280678 Off ch=10 n=42 v=42
280800 On ch=10 n=38 v=112
280800 On ch=10 n=44 v=98
280918 Off ch=10 n=38 v=112
280918 Off ch=10 n=44 v=98
281040 On ch=10 n=42 v=45
281164 Off ch=10 n=42 v=45
281280 On ch=10 n=36 v=125
281280 On ch=10 n=44 v=98
281392 Off ch=10 n=44 v=98
281398 Off ch=10 n=36 v=125
281520 On ch=10 n=36 v=106
281520 On ch=10 n=42 v=44
281638 Off ch=10 n=36 v=106
281638 Off ch=10 n=42 v=44
281760 On ch=10 n=38 v=106
281760 On ch=10 n=44 v=98
281878 Off ch=10 n=38 v=106
281878 Off ch=10 n=44 v=98
282000 On ch=10 n=38 v=102
282000 On ch=10 n=42 v=41
282118 Off ch=10 n=38 v=102
282118 Off ch=10 n=42 v=41
282120 On ch=10 n=38 v=95
282238 Off ch=10 n=38 v=95
282240 On ch=10 n=36 v=98
282240 On ch=10 n=44 v=98
282358 Off ch=10 n=36 v=98
282358 Off ch=10 n=44 v=98
282480 On ch=10 n=38 v=114
282480 On ch=10 n=42 v=42
282598 Off ch=10 n=38 v=114
282598 Off ch=10 n=42 v=42
282720 On ch=10 n=38 v=112
282720 On ch=10 n=44 v=98
282838 Off ch=10 n=38 v=112
282838 Off ch=10 n=44 v=98
282960 On ch=10 n=38 v=104
282960 On ch=10 n=42 v=45
283078 Off ch=10 n=38 v=104
283080 On ch=10 n=38 v=100
283084 Off ch=10 n=42 v=45
283198 Off ch=10 n=38 v=100
283200 On ch=10 n=36 v=125
283200 On ch=10 n=44 v=98
283312 Off ch=10 n=44 v=98
283318 Off ch=10 n=36 v=125
283440 On ch=10 n=36 v=106
283440 On ch=10 n=42 v=44
283558 Off ch=10 n=36 v=106
283558 Off ch=10 n=42 v=44
283680 On ch=10 n=38 v=106
283680 On ch=10 n=44 v=98
283798 Off ch=10 n=38 v=106
283798 Off ch=10 n=44 v=98
283920 On ch=10 n=42 v=41
283924 On ch=10 n=36 v=98
284038 Off ch=10 n=42 v=41
284042 Off ch=10 n=36 v=98
284160 On ch=10 n=44 v=98
284278 Off ch=10 n=44 v=98
284400 On ch=10 n=36 v=114
284400 On ch=10 n=42 v=42
284518 Off ch=10 n=36 v=114
284518 Off ch=10 n=42 v=42
284640 On ch=10 n=38 v=112
284640 On ch=10 n=44 v=98
284758 Off ch=10 n=38 v=112
284758 Off ch=10 n=44 v=98
284880 On ch=10 n=38 v=97
284880 On ch=10 n=42 v=45
284998 Off ch=10 n=38 v=97
285000 On ch=10 n=38 v=92
285004 Off ch=10 n=42 v=45
285118 Off ch=10 n=38 v=92
285120 On ch=10 n=36 v=125
285120 On ch=10 n=44 v=98
285232 Off ch=10 n=44 v=98
285238 Off ch=10 n=36 v=125
285360 On ch=10 n=36 v=106
285360 On ch=10 n=42 v=44
285478 Off ch=10 n=36 v=106
285478 Off ch=10 n=42 v=44
285600 On ch=10 n=38 v=106
285600 On ch=10 n=44 v=98
285718 Off ch=10 n=38 v=106
285718 Off ch=10 n=44 v=98
285840 On ch=10 n=42 v=41
285958 Off ch=10 n=42 v=41
286080 On ch=10 n=36 v=98
286080 On ch=10 n=44 v=98
286198 Off ch=10 n=36 v=98
286198 Off ch=10 n=44 v=98
286320 On ch=10 n=36 v=114
286320 On ch=10 n=42 v=42
286438 Off ch=10 n=36 v=114
286438 Off ch=10 n=42 v=42
286560 On ch=10 n=38 v=112
286560 On ch=10 n=44 v=98
286678 Off ch=10 n=38 v=112
286678 Off ch=10 n=44 v=98
286800 On ch=10 n=36 v=104
286800 On ch=10 n=42 v=45
286918 Off ch=10 n=36 v=104
286920 On ch=10 n=36 v=102
286924 Off ch=10 n=42 v=45
287038 Off ch=10 n=36 v=102
287040 On ch=10 n=36 v=125
287040 On ch=10 n=44 v=98
287152 Off ch=10 n=44 v=98
287158 Off ch=10 n=36 v=125
287280 On ch=10 n=36 v=106
287280 On ch=10 n=42 v=44
287398 Off ch=10 n=36 v=106
287398 Off ch=10 n=42 v=44
287520 On ch=10 n=38 v=106
287520 On ch=10 n=44 v=98
287638 Off ch=10 n=38 v=106
287638 Off ch=10 n=44 v=98
287760 On ch=10 n=38 v=92
287760 On ch=10 n=42 v=41
287878 Off ch=10 n=38 v=92
287878 Off ch=10 n=42 v=41
287880 On ch=10 n=38 v=100
287998 Off ch=10 n=38 v=100
288000 On ch=10 n=44 v=98
288118 Off ch=10 n=44 v=98
288240 On ch=10 n=38 v=114
288240 On ch=10 n=42 v=42
288358 Off ch=10 n=38 v=114
288358 Off ch=10 n=42 v=42
288480 On ch=10 n=38 v=112
288480 On ch=10 n=44 v=98
288598 Off ch=10 n=38 v=112
288598 Off ch=10 n=44 v=98
288604 On ch=10 n=38 v=106
288720 On ch=10 n=42 v=45
288722 Off ch=10 n=38 v=106
288844 Off ch=10 n=42 v=45
288960 On ch=10 n=38 v=125
288960 On ch=10 n=44 v=98
289072 Off ch=10 n=44 v=98
289078 Off ch=10 n=38 v=125
289200 On ch=10 n=38 v=106
289200 On ch=10 n=42 v=44
289318 Off ch=10 n=38 v=106
289318 Off ch=10 n=42 v=44
289324 On ch=10 n=38 v=106
289440 On ch=10 n=44 v=98
289442 Off ch=10 n=38 v=106
289558 Off ch=10 n=44 v=98
289680 On ch=10 n=42 v=41
289798 Off ch=10 n=42 v=41
289920 On ch=10 n=36 v=98
289920 On ch=10 n=44 v=98
290038 Off ch=10 n=36 v=98
290038 Off ch=10 n=44 v=98
290160 On ch=10 n=36 v=114
290160 On ch=10 n=42 v=42
290278 Off ch=10 n=36 v=114
290278 Off ch=10 n=42 v=42
290400 On ch=10 n=38 v=112
290400 On ch=10 n=44 v=98
290518 Off ch=10 n=38 v=112
290518 Off ch=10 n=44 v=98
290640 On ch=10 n=36 v=94
290640 On ch=10 n=42 v=45
290758 Off ch=10 n=36 v=94
290760 On ch=10 n=36 v=100
290764 Off ch=10 n=42 v=45
290878 Off ch=10 n=36 v=100
290880 On ch=10 n=36 v=125
290880 On ch=10 n=44 v=98
290992 Off ch=10 n=44 v=98
290998 Off ch=10 n=36 v=125
291120 On ch=10 n=36 v=106
291120 On ch=10 n=42 v=44
291238 Off ch=10 n=36 v=106
291238 Off ch=10 n=42 v=44
291360 On ch=10 n=38 v=106
291360 On ch=10 n=44 v=98
291478 Off ch=10 n=38 v=106
291478 Off ch=10 n=44 v=98
291600 On ch=10 n=42 v=41
291718 Off ch=10 n=42 v=41
291840 On ch=10 n=36 v=98
291840 On ch=10 n=44 v=98
291958 Off ch=10 n=36 v=98
291958 Off ch=10 n=44 v=98
292080 On ch=10 n=36 v=114
292080 On ch=10 n=42 v=42
292198 Off ch=10 n=36 v=114
292198 Off ch=10 n=42 v=42
292320 On ch=10 n=38 v=112
292320 On ch=10 n=44 v=98
292438 Off ch=10 n=38 v=112
292438 Off ch=10 n=44 v=98
292560 On ch=10 n=36 v=98
292560 On ch=10 n=42 v=45
292678 Off ch=10 n=36 v=98
292680 On ch=10 n=36 v=97
292684 Off ch=10 n=42 v=45
292798 Off ch=10 n=36 v=97
292800 On ch=10 n=36 v=125
292800 On ch=10 n=44 v=98
292912 Off ch=10 n=44 v=98
292918 Off ch=10 n=36 v=125
293040 On ch=10 n=36 v=106
293040 On ch=10 n=42 v=44
293158 Off ch=10 n=36 v=106
293158 Off ch=10 n=42 v=44
293280 On ch=10 n=38 v=106
293280 On ch=10 n=44 v=98
293398 Off ch=10 n=38 v=106
293398 Off ch=10 n=44 v=98
293520 On ch=10 n=36 v=92
293520 On ch=10 n=42 v=41
293638 Off ch=10 n=36 v=92
293638 Off ch=10 n=42 v=41
293640 On ch=10 n=36 v=100
293758 Off ch=10 n=36 v=100
293760 On ch=10 n=36 v=98
293760 On ch=10 n=44 v=98
293878 Off ch=10 n=36 v=98
293878 Off ch=10 n=44 v=98
294000 On ch=10 n=36 v=114
294000 On ch=10 n=42 v=42
294118 Off ch=10 n=36 v=114
294118 Off ch=10 n=42 v=42
294240 On ch=10 n=38 v=112
294240 On ch=10 n=44 v=98
294358 Off ch=10 n=38 v=112
294358 Off ch=10 n=44 v=98
294480 On ch=10 n=38 v=100
294480 On ch=10 n=42 v=45
294598 Off ch=10 n=38 v=100
294600 On ch=10 n=38 v=97
294604 Off ch=10 n=42 v=45
294718 Off ch=10 n=38 v=97
294720 On ch=10 n=36 v=106
294728 On ch=10 n=49 v=93
294811 Off ch=10 n=49 v=93
294838 Off ch=10 n=36 v=106
294960 On ch=10 n=36 v=97
294970 On ch=10 n=51 v=97
295061 Off ch=10 n=51 v=97
295078 Off ch=10 n=36 v=97
295200 On ch=10 n=38 v=91
295212 On ch=10 n=51 v=91
295295 Off ch=10 n=51 v=91
295318 Off ch=10 n=38 v=91
295453 On ch=10 n=51 v=99
295549 Off ch=10 n=51 v=99
295680 On ch=10 n=36 v=102
295685 On ch=10 n=51 v=91
295769 Off ch=10 n=51 v=91
295798 Off ch=10 n=36 v=102
295920 On ch=10 n=36 v=85
295930 On ch=10 n=51 v=99
296019 Off ch=10 n=51 v=99
296038 Off ch=10 n=36 v=85
296160 On ch=10 n=38 v=102
296173 On ch=10 n=51 v=89
296252 Off ch=10 n=51 v=89
296278 Off ch=10 n=38 v=102
296408 On ch=10 n=51 v=97
296494 Off ch=10 n=51 v=97
296640 On ch=10 n=36 v=106
296644 On ch=10 n=51 v=91
296732 Off ch=10 n=51 v=91
296758 Off ch=10 n=36 v=106
296880 On ch=10 n=36 v=106
296882 On ch=10 n=51 v=93
296974 Off ch=10 n=51 v=93
296998 Off ch=10 n=36 v=106
297119 On ch=10 n=51 v=93
297120 On ch=10 n=38 v=98
297208 Off ch=10 n=51 v=93
297238 Off ch=10 n=38 v=98
297358 On ch=10 n=51 v=91
297448 Off ch=10 n=51 v=91
297600 On ch=10 n=36 v=106
297608 On ch=10 n=51 v=93
297691 Off ch=10 n=51 v=93
297718 Off ch=10 n=36 v=106
297840 On ch=10 n=36 v=97
297850 On ch=10 n=51 v=97
297941 Off ch=10 n=51 v=97
297958 Off ch=10 n=36 v=97
298080 On ch=10 n=38 v=91
298092 On ch=10 n=51 v=91
298175 Off ch=10 n=51 v=91
298198 Off ch=10 n=38 v=91
298333 On ch=10 n=51 v=99
298429 Off ch=10 n=51 v=99
298560 On ch=10 n=36 v=102
298565 On ch=10 n=51 v=91
298649 Off ch=10 n=51 v=91
298678 Off ch=10 n=36 v=102
298800 On ch=10 n=36 v=85
298810 On ch=10 n=51 v=99
298899 Off ch=10 n=51 v=99
298918 Off ch=10 n=36 v=85
299040 On ch=10 n=38 v=102
299053 On ch=10 n=51 v=89
299132 Off ch=10 n=51 v=89
299158 Off ch=10 n=38 v=102
299288 On ch=10 n=51 v=97
299374 Off ch=10 n=51 v=97
299520 On ch=10 n=36 v=106
299524 On ch=10 n=51 v=91
299612 Off ch=10 n=51 v=91
299638 Off ch=10 n=36 v=106
299760 On ch=10 n=36 v=106
299762 On ch=10 n=51 v=93
299854 Off ch=10 n=51 v=93
299878 Off ch=10 n=36 v=106
299999 On ch=10 n=51 v=93
300000 On ch=10 n=38 v=98
300088 Off ch=10 n=51 v=93
300118 Off ch=10 n=38 v=98
300238 On ch=10 n=51 v=91
300328 Off ch=10 n=51 v=91
300477 On ch=10 n=36 v=106
300479 On ch=10 n=51 v=93
300572 Off ch=10 n=51 v=93
300595 Off ch=10 n=36 v=106
300720 On ch=10 n=51 v=93
300721 On ch=10 n=36 v=97
300807 Off ch=10 n=51 v=93
300839 Off ch=10 n=36 v=97
300962 On ch=10 n=38 v=106
300968 On ch=10 n=51 v=93
301051 Off ch=10 n=51 v=93
301080 Off ch=10 n=38 v=106
301210 On ch=10 n=51 v=97
301301 Off ch=10 n=51 v=97
301440 On ch=10 n=36 v=104
301443 On ch=10 n=51 v=63
301491 Off ch=10 n=51 v=63
301558 Off ch=10 n=36 v=104
301678 On ch=10 n=51 v=71
301680 On ch=10 n=36 v=106
301746 Off ch=10 n=51 v=71
301798 Off ch=10 n=36 v=106
301912 On ch=10 n=51 v=78
301920 On ch=10 n=38 v=106
302012 Off ch=10 n=51 v=78
302038 Off ch=10 n=38 v=106
302157 On ch=10 n=51 v=95
302258 Off ch=10 n=51 v=95
302400 On ch=10 n=36 v=104
302403 On ch=10 n=51 v=95
302512 Off ch=10 n=51 v=95
302518 Off ch=10 n=36 v=104
302640 On ch=10 n=36 v=97
302649 On ch=10 n=51 v=91
302746 Off ch=10 n=51 v=91
302758 Off ch=10 n=36 v=97
302880 On ch=10 n=38 v=104
302889 On ch=10 n=51 v=91
302988 Off ch=10 n=51 v=91
302998 Off ch=10 n=38 v=104
303128 On ch=10 n=51 v=84
303218 Off ch=10 n=51 v=84
303360 On ch=10 n=36 v=91
303365 On ch=10 n=51 v=85
303447 Off ch=10 n=51 v=85
303478 Off ch=10 n=36 v=91
303600 On ch=10 n=36 v=95
303603 On ch=10 n=51 v=82
303684 Off ch=10 n=51 v=82
303718 Off ch=10 n=36 v=95
303838 On ch=10 n=51 v=81
303839 On ch=10 n=38 v=104
303933 Off ch=10 n=51 v=81
303957 Off ch=10 n=38 v=104
304078 On ch=10 n=51 v=78
304164 Off ch=10 n=51 v=78
304320 On ch=10 n=36 v=106
304324 On ch=10 n=49 v=61
304412 Off ch=10 n=49 v=61
304438 Off ch=10 n=36 v=106
304560 On ch=10 n=36 v=106
304562 On ch=10 n=51 v=93
304654 Off ch=10 n=51 v=93
304678 Off ch=10 n=36 v=106
304799 On ch=10 n=51 v=93
304800 On ch=10 n=38 v=98
304888 Off ch=10 n=51 v=93
304918 Off ch=10 n=38 v=98
305038 On ch=10 n=51 v=91
305128 Off ch=10 n=51 v=91
305280 On ch=10 n=36 v=106
305288 On ch=10 n=51 v=93
305371 Off ch=10 n=51 v=93
305398 Off ch=10 n=36 v=106
305520 On ch=10 n=36 v=97
305530 On ch=10 n=51 v=97
305621 Off ch=10 n=51 v=97
305638 Off ch=10 n=36 v=97
305760 On ch=10 n=51 v=67
305762 On ch=10 n=38 v=113
305878 Off ch=10 n=51 v=67
305881 Off ch=10 n=38 v=113
306000 On ch=10 n=51 v=84
306118 Off ch=10 n=51 v=84
306240 On ch=10 n=51 v=82
306240 On ch=10 n=36 v=97
306358 Off ch=10 n=51 v=82
306358 Off ch=10 n=36 v=97
306480 On ch=10 n=51 v=93
306480 On ch=10 n=36 v=117
306598 Off ch=10 n=51 v=93
306598 Off ch=10 n=36 v=117
306720 On ch=10 n=38 v=110
306778 Off ch=10 n=38 v=110
306960 On ch=10 n=38 v=108
307018 Off ch=10 n=38 v=108
307200 On ch=10 n=38 v=110
307258 Off ch=10 n=38 v=110
307440 On ch=10 n=44 v=85
307558 Off ch=10 n=44 v=85
307680 On ch=10 n=44 v=72
307798 Off ch=10 n=44 v=72
307917 On ch=10 n=49 v=91
307920 On ch=10 n=38 v=98
308015 Off ch=10 n=49 v=91
308038 Off ch=10 n=38 v=98
308400 On ch=10 n=36 v=108
308518 Off ch=10 n=36 v=108
308640 On ch=10 n=36 v=70
308758 Off ch=10 n=36 v=70
308880 On ch=10 n=38 v=100
308885 On ch=10 n=49 v=84
308945 Off ch=10 n=49 v=84
308998 Off ch=10 n=38 v=100
309360 On ch=10 n=36 v=120
309478 Off ch=10 n=36 v=120
309600 On ch=10 n=36 v=108
309718 Off ch=10 n=36 v=108
309840 On ch=10 n=38 v=106
309841 On ch=10 n=49 v=91
309928 Off ch=10 n=49 v=91
309958 Off ch=10 n=38 v=106
310320 On ch=10 n=36 v=108
310438 Off ch=10 n=36 v=108
310560 On ch=10 n=36 v=92
310678 Off ch=10 n=36 v=92
310800 On ch=10 n=38 v=102
310808 On ch=10 n=49 v=93
310891 Off ch=10 n=49 v=93
310918 Off ch=10 n=38 v=102
311280 On ch=10 n=36 v=106
311398 Off ch=10 n=36 v=106
311520 On ch=10 n=36 v=97
311638 Off ch=10 n=36 v=97
311760 On ch=10 n=38 v=91
311765 On ch=10 n=49 v=91
311849 Off ch=10 n=49 v=91
311878 Off ch=10 n=38 v=91
312240 On ch=10 n=36 v=102
312358 Off ch=10 n=36 v=102
312480 On ch=10 n=36 v=85
312598 Off ch=10 n=36 v=85
312717 On ch=10 n=49 v=91
312720 On ch=10 n=38 v=98
312815 Off ch=10 n=49 v=91
312838 Off ch=10 n=38 v=98
313440 On ch=10 n=38 v=70
313444 On ch=10 n=57 v=84
313504 Off ch=10 n=57 v=84
313558 Off ch=10 n=38 v=70
313920 On ch=10 n=49 v=81
313926 On ch=10 n=38 v=100
314038 Off ch=10 n=49 v=81
314044 Off ch=10 n=38 v=100
314400 On ch=10 n=38 v=79
314518 Off ch=10 n=38 v=79
314640 On ch=10 n=36 v=92
314640 On ch=10 n=49 v=101
314758 Off ch=10 n=36 v=92
314758 Off ch=10 n=49 v=101
315103 On ch=10 n=43 v=64
315157 Off ch=10 n=43 v=64
315215 On ch=10 n=43 v=66
315279 Off ch=10 n=43 v=66
315344 On ch=10 n=43 v=64
315397 Off ch=10 n=43 v=64
315475 On ch=10 n=43 v=61
315527 Off ch=10 n=43 v=61
315588 On ch=10 n=43 v=63
315643 Off ch=10 n=43 v=63
315712 On ch=10 n=43 v=62
315757 Off ch=10 n=43 v=62
315839 On ch=10 n=45 v=70
315856 On ch=10 n=45 v=110
315924 Off ch=10 n=45 v=110
315942 Off ch=10 n=45 v=70
315960 On ch=10 n=45 v=72
316037 Off ch=10 n=45 v=72
316053 On ch=10 n=45 v=81
316133 Off ch=10 n=45 v=81
316155 On ch=10 n=45 v=77
316235 Off ch=10 n=45 v=77
316252 On ch=10 n=45 v=69
316337 Off ch=10 n=45 v=69
316355 On ch=10 n=45 v=74
316458 Off ch=10 n=45 v=74
316560 On ch=10 n=47 v=95
316678 Off ch=10 n=47 v=95
316800 On ch=10 n=47 v=88
316918 Off ch=10 n=47 v=88
317040 On ch=10 n=45 v=110
317158 Off ch=10 n=45 v=110
317280 On ch=10 n=45 v=104
317398 Off ch=10 n=45 v=104
317520 On ch=10 n=43 v=102
317638 Off ch=10 n=43 v=102
318000 On ch=10 n=38 v=94
318118 Off ch=10 n=38 v=94
318240 On ch=10 n=38 v=108
318358 Off ch=10 n=38 v=108
318480 On ch=10 n=49 v=91
318480 On ch=10 n=36 v=106
318598 Off ch=10 n=49 v=91
318598 Off ch=10 n=36 v=106
318720 On ch=10 n=38 v=79
318838 Off ch=10 n=38 v=79
318960 On ch=10 n=38 v=95
319078 Off ch=10 n=38 v=95
319200 On ch=10 n=57 v=97
319200 On ch=10 n=36 v=76
319318 Off ch=10 n=57 v=97
319318 Off ch=10 n=36 v=76
319440 On ch=10 n=38 v=78
319558 Off ch=10 n=38 v=78
319680 On ch=10 n=38 v=94
319798 Off ch=10 n=38 v=94
319920 On ch=10 n=49 v=84
319920 On ch=10 n=36 v=112
320038 Off ch=10 n=49 v=84
320038 Off ch=10 n=36 v=112
320884 On ch=10 n=47 v=104
321002 Off ch=10 n=47 v=104
321120 On ch=10 n=47 v=90
321238 Off ch=10 n=47 v=90
321360 On ch=10 n=45 v=100
321478 Off ch=10 n=45 v=100
321600 On ch=10 n=45 v=108
321718 Off ch=10 n=45 v=108
321840 On ch=10 n=45 v=102
321958 Off ch=10 n=45 v=102
322080 On ch=10 n=36 v=92
322198 Off ch=10 n=36 v=92
322320 On ch=10 n=38 v=118
322330 On ch=10 n=38 v=111
322438 Off ch=10 n=38 v=118
322448 Off ch=10 n=38 v=111
322560 On ch=10 n=36 v=117
322678 Off ch=10 n=36 v=117
322800 On ch=10 n=38 v=111
322825 On ch=10 n=38 v=126
322918 Off ch=10 n=38 v=111
322943 Off ch=10 n=38 v=126
323040 On ch=10 n=36 v=97
323040 On ch=10 n=49 v=101
323158 Off ch=10 n=36 v=97
323158 Off ch=10 n=49 v=101
329040 Meta TrkEnd
TrkEnd
MTrk
0 Meta TrkName "Kaye4"
0 Meta 0x20 0a
0 Meta InstrName "Kaye4"
0 KeySig 0 major
830 Par ch=11 c=0 v=0
835 Par ch=11 c=32 v=0
840 PrCh ch=11 p=27
845 Par ch=11 c=7 v=100
850 Par ch=11 c=10 v=64
855 Par ch=11 c=91 v=40
860 Par ch=11 c=93 v=0
865 Par ch=11 c=101 v=0
865 Par ch=11 c=100 v=0
865 Par ch=11 c=6 v=2
870 Par ch=11 c=99 v=1
870 Par ch=11 c=98 v=8
870 Par ch=11 c=6 v=64
875 Par ch=11 c=99 v=1
875 Par ch=11 c=98 v=9
875 Par ch=11 c=6 v=64
880 Par ch=11 c=99 v=1
880 Par ch=11 c=98 v=10
880 Par ch=11 c=6 v=64
885 Par ch=11 c=99 v=1
885 Par ch=11 c=98 v=32
885 Par ch=11 c=6 v=64
890 Par ch=11 c=99 v=1
890 Par ch=11 c=98 v=33
890 Par ch=11 c=6 v=64
895 Par ch=11 c=99 v=1
895 Par ch=11 c=98 v=99
895 Par ch=11 c=6 v=64
900 Par ch=11 c=99 v=1
900 Par ch=11 c=98 v=100
900 Par ch=11 c=6 v=64
905 Par ch=11 c=99 v=1
905 Par ch=11 c=98 v=102
905 Par ch=11 c=6 v=64
54240 On ch=11 n=69 v=80
54240 On ch=11 n=74 v=80
54240 On ch=11 n=78 v=80
55678 Off ch=11 n=69 v=80
55678 Off ch=11 n=74 v=80
55678 Off ch=11 n=78 v=80
55680 On ch=11 n=80 v=80
55680 On ch=11 n=71 v=80
55680 On ch=11 n=76 v=80
57118 Off ch=11 n=80 v=80
57118 Off ch=11 n=71 v=80
57118 Off ch=11 n=76 v=80
57120 On ch=11 n=79 v=80
57120 On ch=11 n=72 v=80
57120 On ch=11 n=76 v=80
58558 Off ch=11 n=79 v=80
58558 Off ch=11 n=72 v=80
58558 Off ch=11 n=76 v=80
58560 On ch=11 n=78 v=80
58560 On ch=11 n=74 v=80
58560 On ch=11 n=69 v=80
61918 Off ch=11 n=78 v=80
61918 Off ch=11 n=74 v=80
61918 Off ch=11 n=69 v=80
61920 On ch=11 n=78 v=80
61920 On ch=11 n=74 v=80
61920 On ch=11 n=69 v=80
63358 Off ch=11 n=78 v=80
63358 Off ch=11 n=74 v=80
63358 Off ch=11 n=69 v=80
63360 On ch=11 n=80 v=80
63360 On ch=11 n=71 v=80
63360 On ch=11 n=76 v=80
64798 Off ch=11 n=80 v=80
64798 Off ch=11 n=71 v=80
64798 Off ch=11 n=76 v=80
64800 On ch=11 n=79 v=80
64800 On ch=11 n=72 v=80
64800 On ch=11 n=76 v=80
66238 Off ch=11 n=79 v=80
66238 Off ch=11 n=72 v=80
66238 Off ch=11 n=76 v=80
66240 On ch=11 n=78 v=80
66240 On ch=11 n=74 v=80
66240 On ch=11 n=69 v=80
69598 Off ch=11 n=78 v=80
69598 Off ch=11 n=74 v=80
69598 Off ch=11 n=69 v=80
329040 Meta TrkEnd
TrkEnd
