MFile 1 11 192
MTrk
0 Tempo 480000
0 TimeSig 4/4 24 8
0 Meta SeqName "Rhythm Of Love"
0 SeqSpec 53 45 51 31 00 00 00 00 00 00 00 00 00 84 00 00 00 00 00 01 52 68 79 74 68 6d 20 4f 66 20 4c 6f 76 65 00 00 00 00 00 00 00 00 00 00 00 00 00 00 00 00 00 00 00 00 00 00 00 00 00 00 20 20 62 79 20 59 65 73 00 00 00 00 00 00 00 00 00 00 00 00 00 00 00 00 00 00 00 00 00 00 00 00 00 00 00 00 00 00 00 00 00 00 00 00 00 00 00 00 00 00 00 00 00 00 00 00 00 00 00 00 00 00 00 00 00 00 00 00 00 00 00 00 00 00 00 00 00 00 00 00 00 00 00 00 00 00 00 00 00 00 00 00 00 00 00 00 00 00 00 00 00 00 00 00 00 00 00 00 00 00 00 00 00 00 00 00 00 00 00 00 00 00 00 00 00 00 00 00 00 00 00 00 00 00 00 00 00 00 00 00 00 00 00 00 00 00 00 00 00 00 00 00 00 00 00 00 00 00 00 00 00 00 00 00 00 00 00 00 00 00 00 00 00 00 00 00 00 00 00 00 00 00 00 00 00 00 00 00 00 00 00 00 00 00 00 00 00 00 00 00 00 00 00 00 00 00 00 00 00 00 00 00 00 00 00 00 00 00 00 00 00 00 00 00 00 00 00 00 00 00 00 00 00 00 00 00 00 00 00 00 00 00 00 00 00 00 00 00 00 00 00 00 00 00 00 00 00 00 00 00 00 00 00 00 00 00 00 00 00 00 00 00 00 00 00 00 00 00 00 00 00 01 00 01 00 00 00 00 00 04 00 08 00 04 00 09 00 2a 00 7d 00 00 00 01 00 01 00 00 00 04 00 00 00 00 00 00 00 00 00 00 00 00 00 00 00 00 00 00 00 00 00 00 00 00 00 00 00 00 00 00 00 00 00 5f 00 24 00 06 00 0d 00 03 00 40 00 64 00 60 00 60 00 06 00 00 00 00 00 00 00 00 00 0e 00 16 01 01 0b
0 SeqSpec 41 4d 53 49 00 01 00 03
768 Tempo 645161
2304 Tempo 530973
3072 Tempo 550458
3456 Tempo 594059
6528 Tempo 480000
6528 Meta TrkEnd
TrkEnd
MTrk
0 Meta TrkName "RHYTHM OF LOVE  "
0 Par ch=1 c=121 v=0
0 Meta TrkEnd
TrkEnd
MTrk
0 Meta TrkName "RHYTHM OF LOVE  "
192 Par ch=5 c=12 v=0
196 Par ch=5 c=100 v=0
200 Par ch=5 c=101 v=0
204 Par ch=5 c=6 v=12
208 Par ch=5 c=7 v=115
212 Par ch=5 c=11 v=120
216 Par ch=5 c=10 v=70
384 Par ch=5 c=0 v=0
388 Par ch=5 c=32 v=0
392 PrCh ch=5 p=52
396 Par ch=5 c=91 v=95
400 Par ch=5 c=127 v=0
6912 On ch=5 n=69 v=60
6912 On ch=5 n=66 v=60
7680 On ch=5 n=71 v=65
7680 On ch=5 n=64 v=65
7684 On ch=5 n=69 v=0
7684 On ch=5 n=66 v=0
7872 On ch=5 n=69 v=65
7876 On ch=5 n=71 v=0
8448 On ch=5 n=71 v=70
8452 On ch=5 n=69 v=0
8832 On ch=5 n=69 v=75
8836 On ch=5 n=71 v=0
9212 Pb ch=5 v=7424
9216 On ch=5 n=72 v=70
9220 On ch=5 n=69 v=0
9220 On ch=5 n=64 v=0
9220 Pb ch=5 v=7552
9228 Pb ch=5 v=7680
9236 Pb ch=5 v=7808
9244 Pb ch=5 v=7936
9256 Pb ch=5 v=8064
9280 Pb ch=5 v=8192
9408 On ch=5 n=71 v=70
9412 On ch=5 n=72 v=0
9600 On ch=5 n=67 v=70
9604 On ch=5 n=71 v=0
9796 On ch=5 n=67 v=0
9984 On ch=5 n=74 v=70
9984 On ch=5 n=69 v=70
9984 On ch=5 n=66 v=70
10752 On ch=5 n=73 v=70
10752 On ch=5 n=64 v=70
10756 On ch=5 n=74 v=0
10756 On ch=5 n=66 v=0
11520 On ch=5 n=72 v=70
11524 On ch=5 n=73 v=0
12192 On ch=5 n=71 v=70
12192 On ch=5 n=67 v=70
12192 On ch=5 n=62 v=70
12196 On ch=5 n=72 v=0
12196 On ch=5 n=69 v=0
12196 On ch=5 n=64 v=0
12300 Par ch=5 c=11 v=119
12308 Par ch=5 c=11 v=118
12320 Par ch=5 c=11 v=117
12328 Par ch=5 c=11 v=116
12336 Par ch=5 c=11 v=115
12348 Par ch=5 c=11 v=114
12356 Par ch=5 c=11 v=113
12368 Par ch=5 c=11 v=112
12376 Par ch=5 c=11 v=111
12384 Par ch=5 c=11 v=110
12396 Par ch=5 c=11 v=109
12404 Par ch=5 c=11 v=108
12416 Par ch=5 c=11 v=107
12424 Par ch=5 c=11 v=106
12432 Par ch=5 c=11 v=105
12444 Par ch=5 c=11 v=104
12452 Par ch=5 c=11 v=103
12464 Par ch=5 c=11 v=102
12472 Par ch=5 c=11 v=101
12480 Par ch=5 c=11 v=100
12492 Par ch=5 c=11 v=99
12500 Par ch=5 c=11 v=98
12512 Par ch=5 c=11 v=97
12520 Par ch=5 c=11 v=96
12528 Par ch=5 c=11 v=95
12540 Par ch=5 c=11 v=94
12548 Par ch=5 c=11 v=93
12556 Par ch=5 c=11 v=92
12568 Par ch=5 c=11 v=91
12576 Par ch=5 c=11 v=90
12588 Par ch=5 c=11 v=89
12596 Par ch=5 c=11 v=88
12604 Par ch=5 c=11 v=87
12616 Par ch=5 c=11 v=86
12624 Par ch=5 c=11 v=85
12636 Par ch=5 c=11 v=84
12644 Par ch=5 c=11 v=83
12652 Par ch=5 c=11 v=82
12664 Par ch=5 c=11 v=81
12672 Par ch=5 c=11 v=80
12684 Par ch=5 c=11 v=79
12692 Par ch=5 c=11 v=78
12700 Par ch=5 c=11 v=77
12712 Par ch=5 c=11 v=76
12720 Par ch=5 c=11 v=75
12732 Par ch=5 c=11 v=74
12740 Par ch=5 c=11 v=73
12748 Par ch=5 c=11 v=72
12760 Par ch=5 c=11 v=71
12768 Par ch=5 c=11 v=70
12776 Par ch=5 c=11 v=69
12788 Par ch=5 c=11 v=68
12796 Par ch=5 c=11 v=67
12808 Par ch=5 c=11 v=66
12816 Par ch=5 c=11 v=65
12824 Par ch=5 c=11 v=64
12836 Par ch=5 c=11 v=63
12844 Par ch=5 c=11 v=62
12856 Par ch=5 c=11 v=61
12864 Par ch=5 c=11 v=60
12872 Par ch=5 c=11 v=59
12884 Par ch=5 c=11 v=58
12892 Par ch=5 c=11 v=57
12904 Par ch=5 c=11 v=56
12912 Par ch=5 c=11 v=55
12920 Par ch=5 c=11 v=54
12932 Par ch=5 c=11 v=53
12940 Par ch=5 c=11 v=52
12952 Par ch=5 c=11 v=51
12960 Par ch=5 c=11 v=50
12968 Par ch=5 c=11 v=49
12980 Par ch=5 c=11 v=48
12988 Par ch=5 c=11 v=47
12996 Par ch=5 c=11 v=46
13008 Par ch=5 c=11 v=45
13016 Par ch=5 c=11 v=44
13028 Par ch=5 c=11 v=43
13036 Par ch=5 c=11 v=42
13044 Par ch=5 c=11 v=41
13060 Par ch=5 c=11 v=40
13064 Par ch=5 c=11 v=39
13076 Par ch=5 c=11 v=38
13084 Par ch=5 c=11 v=37
13092 Par ch=5 c=11 v=36
13104 Par ch=5 c=11 v=35
13112 Par ch=5 c=11 v=34
13124 Par ch=5 c=11 v=33
13132 Par ch=5 c=11 v=32
13140 Par ch=5 c=11 v=31
13152 Par ch=5 c=11 v=30
13160 Par ch=5 c=11 v=29
13172 Par ch=5 c=11 v=28
13180 Par ch=5 c=11 v=27
13188 Par ch=5 c=11 v=26
13200 Par ch=5 c=11 v=25
13208 Par ch=5 c=11 v=24
13216 Par ch=5 c=11 v=23
13228 Par ch=5 c=11 v=22
13236 Par ch=5 c=11 v=21
13248 Par ch=5 c=11 v=20
13256 Par ch=5 c=11 v=19
13264 Par ch=5 c=11 v=18
13276 Par ch=5 c=11 v=17
13284 Par ch=5 c=11 v=16
13296 Par ch=5 c=11 v=15
13304 Par ch=5 c=11 v=14
13312 Par ch=5 c=11 v=13
13324 Par ch=5 c=11 v=12
13332 Par ch=5 c=11 v=11
13344 Par ch=5 c=11 v=10
13352 Par ch=5 c=11 v=9
13360 Par ch=5 c=11 v=8
13372 Par ch=5 c=11 v=7
13380 Par ch=5 c=11 v=6
13392 Par ch=5 c=11 v=5
13400 Par ch=5 c=11 v=4
13408 Par ch=5 c=11 v=3
13420 Par ch=5 c=11 v=2
13428 Par ch=5 c=11 v=1
13436 Par ch=5 c=11 v=0
13440 On ch=5 n=71 v=0
13440 On ch=5 n=67 v=0
13440 On ch=5 n=62 v=0
13532 Par ch=5 c=11 v=120
26784 On ch=5 n=64 v=70
26784 On ch=5 n=67 v=70
27456 On ch=5 n=64 v=0
27456 On ch=5 n=67 v=0
27456 On ch=5 n=65 v=70
27456 On ch=5 n=69 v=70
27552 On ch=5 n=65 v=0
27552 On ch=5 n=69 v=0
27552 On ch=5 n=69 v=70
27552 On ch=5 n=62 v=70
27648 On ch=5 n=69 v=0
27648 On ch=5 n=62 v=0
29952 On ch=5 n=69 v=80
30144 On ch=5 n=69 v=0
30144 On ch=5 n=65 v=80
30144 On ch=5 n=62 v=80
30272 On ch=5 n=65 v=0
30336 On ch=5 n=65 v=80
30432 On ch=5 n=62 v=0
30528 On ch=5 n=65 v=0
30528 On ch=5 n=64 v=80
30624 On ch=5 n=64 v=0
30624 On ch=5 n=65 v=80
30912 On ch=5 n=64 v=80
31040 On ch=5 n=64 v=0
31104 On ch=5 n=62 v=80
31296 On ch=5 n=65 v=0
31296 On ch=5 n=62 v=0
31296 On ch=5 n=60 v=80
31336 On ch=5 n=57 v=80
31344 On ch=5 n=60 v=0
31488 On ch=5 n=74 v=70
31488 On ch=5 n=69 v=70
32064 On ch=5 n=57 v=0
32256 On ch=5 n=74 v=0
32256 On ch=5 n=69 v=0
32256 On ch=5 n=73 v=70
32256 On ch=5 n=69 v=70
32448 On ch=5 n=57 v=75
32640 On ch=5 n=57 v=0
32640 On ch=5 n=64 v=105
32832 On ch=5 n=73 v=0
32832 On ch=5 n=69 v=0
32832 On ch=5 n=64 v=0
32832 On ch=5 n=61 v=85
33024 On ch=5 n=61 v=0
33024 On ch=5 n=72 v=70
33024 On ch=5 n=69 v=70
33024 On ch=5 n=57 v=80
33600 On ch=5 n=57 v=0
33600 On ch=5 n=60 v=80
33792 On ch=5 n=72 v=0
33792 On ch=5 n=69 v=0
33792 On ch=5 n=60 v=0
33792 On ch=5 n=60 v=70
33792 On ch=5 n=72 v=70
33792 On ch=5 n=69 v=80
33984 On ch=5 n=60 v=0
33984 On ch=5 n=72 v=0
33984 On ch=5 n=69 v=0
33984 On ch=5 n=59 v=70
33984 On ch=5 n=71 v=70
33984 On ch=5 n=67 v=80
34176 On ch=5 n=59 v=0
34176 On ch=5 n=71 v=0
34176 On ch=5 n=67 v=0
34176 On ch=5 n=62 v=70
34176 On ch=5 n=67 v=70
34560 On ch=5 n=67 v=0
34560 On ch=5 n=62 v=0
34560 On ch=5 n=74 v=70
34560 On ch=5 n=69 v=70
35328 On ch=5 n=74 v=0
35328 On ch=5 n=69 v=0
35328 On ch=5 n=73 v=70
35328 On ch=5 n=69 v=70
35520 On ch=5 n=57 v=75
35712 On ch=5 n=57 v=0
35712 On ch=5 n=64 v=105
35904 On ch=5 n=64 v=0
35904 On ch=5 n=61 v=85
36096 On ch=5 n=73 v=0
36096 On ch=5 n=69 v=0
36096 On ch=5 n=61 v=0
36096 On ch=5 n=72 v=70
36096 On ch=5 n=69 v=70
36096 On ch=5 n=57 v=70
36320 Par ch=5 c=11 v=119
36404 Par ch=5 c=11 v=118
36452 Par ch=5 c=11 v=117
36496 Par ch=5 c=11 v=116
36524 Par ch=5 c=11 v=115
36548 Par ch=5 c=11 v=114
36568 Par ch=5 c=11 v=113
36592 Par ch=5 c=11 v=112
36604 Par ch=5 c=11 v=111
36616 Par ch=5 c=11 v=110
36628 Par ch=5 c=11 v=109
36644 Par ch=5 c=11 v=108
36652 Par ch=5 c=11 v=107
36664 Par ch=5 c=11 v=106
36672 Par ch=5 c=11 v=105
36684 Par ch=5 c=11 v=104
36692 Par ch=5 c=11 v=103
36696 Par ch=5 c=11 v=102
36708 Par ch=5 c=11 v=101
36712 Par ch=5 c=11 v=100
36720 Par ch=5 c=11 v=99
36724 Par ch=5 c=11 v=98
36732 Par ch=5 c=11 v=97
36736 Par ch=5 c=11 v=96
36744 Par ch=5 c=11 v=95
36748 Par ch=5 c=11 v=94
36756 Par ch=5 c=11 v=93
36760 Par ch=5 c=11 v=92
36764 Par ch=5 c=11 v=91
36768 Par ch=5 c=11 v=90
36772 Par ch=5 c=11 v=89
36780 Par ch=5 c=11 v=87
36788 Par ch=5 c=11 v=86
36792 Par ch=5 c=11 v=84
36796 Par ch=5 c=11 v=83
36800 Par ch=5 c=11 v=81
36804 Par ch=5 c=11 v=80
36808 Par ch=5 c=11 v=79
36812 Par ch=5 c=11 v=77
36816 Par ch=5 c=11 v=76
36820 Par ch=5 c=11 v=75
36824 Par ch=5 c=11 v=73
36828 Par ch=5 c=11 v=72
36832 Par ch=5 c=11 v=71
36836 Par ch=5 c=11 v=69
36840 Par ch=5 c=11 v=68
36844 Par ch=5 c=11 v=67
36848 Par ch=5 c=11 v=64
36852 Par ch=5 c=11 v=63
36856 Par ch=5 c=11 v=60
36860 Par ch=5 c=11 v=120
36864 On ch=5 n=72 v=0
36864 On ch=5 n=69 v=0
36864 On ch=5 n=57 v=0
43008 On ch=5 n=60 v=90
43008 On ch=5 n=65 v=90
43488 On ch=5 n=69 v=95
43872 On ch=5 n=72 v=100
44016 Par ch=5 c=11 v=99
44088 Par ch=5 c=11 v=98
44124 Par ch=5 c=11 v=97
44156 Par ch=5 c=11 v=96
44176 Par ch=5 c=11 v=95
44192 Par ch=5 c=11 v=94
44212 Par ch=5 c=11 v=93
44228 Par ch=5 c=11 v=92
44236 Par ch=5 c=11 v=91
44248 Par ch=5 c=11 v=90
44260 Par ch=5 c=11 v=89
44264 Par ch=5 c=11 v=88
44272 Par ch=5 c=11 v=87
44284 Par ch=5 c=11 v=86
44288 Par ch=5 c=11 v=85
44296 Par ch=5 c=11 v=84
44304 Par ch=5 c=11 v=83
44308 Par ch=5 c=11 v=82
44316 Par ch=5 c=11 v=81
44320 Par ch=5 c=11 v=80
44324 Par ch=5 c=11 v=79
44328 Par ch=5 c=11 v=78
44336 Par ch=5 c=11 v=76
44340 Par ch=5 c=11 v=75
44344 Par ch=5 c=11 v=74
44348 Par ch=5 c=11 v=73
44352 Par ch=5 c=11 v=72
44356 Par ch=5 c=11 v=71
44360 Par ch=5 c=11 v=70
44364 Par ch=5 c=11 v=69
44368 Par ch=5 c=11 v=68
44372 Par ch=5 c=11 v=66
44376 Par ch=5 c=11 v=65
44380 Par ch=5 c=11 v=63
44384 Par ch=5 c=11 v=62
44388 Par ch=5 c=11 v=61
44392 Par ch=5 c=11 v=59
44396 Par ch=5 c=11 v=57
44400 On ch=5 n=65 v=0
44400 On ch=5 n=60 v=0
44400 On ch=5 n=69 v=0
44400 On ch=5 n=72 v=0
44400 Par ch=5 c=11 v=55
44404 Par ch=5 c=11 v=53
44408 Par ch=5 c=11 v=52
44412 Par ch=5 c=11 v=50
44416 Par ch=5 c=11 v=48
44420 Par ch=5 c=11 v=46
44424 Par ch=5 c=11 v=43
44428 Par ch=5 c=11 v=42
44432 Par ch=5 c=11 v=39
44436 Par ch=5 c=11 v=37
44440 Par ch=5 c=11 v=34
44444 Par ch=5 c=11 v=30
44448 Par ch=5 c=11 v=120
49052 Par ch=5 c=11 v=80
49056 On ch=5 n=67 v=110
49056 On ch=5 n=64 v=110
49076 Par ch=5 c=11 v=81
49092 Par ch=5 c=11 v=82
49108 Par ch=5 c=11 v=83
49124 Par ch=5 c=11 v=84
49140 Par ch=5 c=11 v=85
49160 Par ch=5 c=11 v=86
49176 Par ch=5 c=11 v=87
49192 Par ch=5 c=11 v=88
49208 Par ch=5 c=11 v=89
49224 Par ch=5 c=11 v=90
49240 Par ch=5 c=11 v=91
49260 Par ch=5 c=11 v=92
49276 Par ch=5 c=11 v=93
49292 Par ch=5 c=11 v=94
49308 Par ch=5 c=11 v=95
49324 Par ch=5 c=11 v=96
49340 Par ch=5 c=11 v=97
49360 Par ch=5 c=11 v=98
49376 Par ch=5 c=11 v=99
49392 Par ch=5 c=11 v=100
49408 Par ch=5 c=11 v=101
49424 Par ch=5 c=11 v=102
49444 Par ch=5 c=11 v=103
49460 Par ch=5 c=11 v=104
49476 Par ch=5 c=11 v=105
49492 Par ch=5 c=11 v=106
49508 Par ch=5 c=11 v=107
49524 Par ch=5 c=11 v=108
49544 Par ch=5 c=11 v=109
49560 Par ch=5 c=11 v=110
49576 Par ch=5 c=11 v=111
49592 Par ch=5 c=11 v=112
49608 Par ch=5 c=11 v=113
49624 Par ch=5 c=11 v=114
49644 Par ch=5 c=11 v=115
49660 Par ch=5 c=11 v=116
49676 Par ch=5 c=11 v=117
49692 Par ch=5 c=11 v=118
49708 Par ch=5 c=11 v=119
49724 Par ch=5 c=11 v=120
49728 On ch=5 n=67 v=0
49728 On ch=5 n=64 v=0
49728 On ch=5 n=69 v=100
49728 On ch=5 n=65 v=100
49808 On ch=5 n=69 v=0
49808 On ch=5 n=65 v=0
49824 On ch=5 n=69 v=100
49824 On ch=5 n=65 v=100
49944 On ch=5 n=69 v=0
49944 On ch=5 n=65 v=0
53952 On ch=5 n=74 v=70
53952 On ch=5 n=69 v=90
53952 On ch=5 n=57 v=30
54048 On ch=5 n=74 v=0
54048 On ch=5 n=69 v=0
54048 On ch=5 n=57 v=0
54048 On ch=5 n=74 v=70
54048 On ch=5 n=69 v=90
54048 On ch=5 n=57 v=30
54076 Par ch=5 c=11 v=119
54088 Par ch=5 c=11 v=118
54092 Par ch=5 c=11 v=117
54096 Par ch=5 c=11 v=115
54100 Par ch=5 c=11 v=114
54104 Par ch=5 c=11 v=112
54108 Par ch=5 c=11 v=109
54112 Par ch=5 c=11 v=107
54116 Par ch=5 c=11 v=103
54120 Par ch=5 c=11 v=98
54124 Par ch=5 c=11 v=92
54128 Par ch=5 c=11 v=84
54132 Par ch=5 c=11 v=74
54136 Par ch=5 c=11 v=60
54140 Par ch=5 c=11 v=120
54144 On ch=5 n=74 v=0
54144 On ch=5 n=69 v=0
54144 On ch=5 n=57 v=0
54144 On ch=5 n=72 v=70
54144 On ch=5 n=67 v=90
54144 On ch=5 n=55 v=30
54240 On ch=5 n=67 v=0
54240 On ch=5 n=55 v=0
54240 On ch=5 n=65 v=90
54240 On ch=5 n=53 v=30
54304 On ch=5 n=65 v=0
54304 On ch=5 n=53 v=0
54336 On ch=5 n=72 v=0
54336 On ch=5 n=69 v=70
54336 On ch=5 n=62 v=90
54336 On ch=5 n=50 v=30
54432 On ch=5 n=69 v=0
54432 On ch=5 n=62 v=0
54432 On ch=5 n=50 v=0
55200 On ch=5 n=69 v=90
55488 On ch=5 n=69 v=0
55488 On ch=5 n=65 v=100
55568 On ch=5 n=65 v=0
55584 On ch=5 n=65 v=100
55872 On ch=5 n=65 v=0
55872 On ch=5 n=64 v=100
55952 On ch=5 n=64 v=0
55968 On ch=5 n=65 v=90
55968 On ch=5 n=62 v=80
56256 On ch=5 n=64 v=100
56328 On ch=5 n=64 v=0
56544 On ch=5 n=60 v=100
56640 On ch=5 n=62 v=0
56640 Pb ch=5 v=6192
56732 Pb ch=5 v=8192
56736 On ch=5 n=65 v=0
56736 On ch=5 n=60 v=0
56736 On ch=5 n=57 v=100
57216 On ch=5 n=57 v=0
57216 On ch=5 n=66 v=80
57216 On ch=5 n=57 v=60
57404 Pb ch=5 v=7040
57408 On ch=5 n=71 v=90
57412 Pb ch=5 v=7296
57416 On ch=5 n=66 v=0
57416 On ch=5 n=57 v=0
57420 Pb ch=5 v=7424
57424 Pb ch=5 v=7552
57428 Pb ch=5 v=7680
57436 Pb ch=5 v=7808
57448 Pb ch=5 v=7936
57460 Pb ch=5 v=8064
57484 Pb ch=5 v=8192
57600 On ch=5 n=69 v=90
57608 On ch=5 n=71 v=0
57792 On ch=5 n=64 v=80
57800 On ch=5 n=69 v=0
57984 On ch=5 n=61 v=70
57992 On ch=5 n=64 v=0
58176 On ch=5 n=57 v=60
58184 On ch=5 n=61 v=0
58368 On ch=5 n=57 v=0
58368 On ch=5 n=71 v=80
58368 On ch=5 n=57 v=55
58560 On ch=5 n=69 v=75
58576 On ch=5 n=71 v=0
58752 On ch=5 n=64 v=65
58760 On ch=5 n=69 v=0
59132 Pb ch=5 v=7040
59136 On ch=5 n=57 v=0
59136 On ch=5 n=64 v=0
59136 On ch=5 n=81 v=100
59136 On ch=5 n=69 v=80
59140 Pb ch=5 v=7296
59148 Pb ch=5 v=7424
59152 Pb ch=5 v=7552
59156 Pb ch=5 v=7680
59164 Pb ch=5 v=7808
59176 Pb ch=5 v=7936
59188 Pb ch=5 v=8064
59212 Pb ch=5 v=8192
59328 On ch=5 n=79 v=85
59328 On ch=5 n=67 v=75
59336 On ch=5 n=81 v=0
59336 On ch=5 n=69 v=0
59520 On ch=5 n=74 v=60
59520 On ch=5 n=62 v=60
59528 On ch=5 n=79 v=0
59528 On ch=5 n=67 v=0
59528 Par ch=5 c=11 v=119
59536 Par ch=5 c=11 v=118
59540 Par ch=5 c=11 v=117
59548 Par ch=5 c=11 v=116
59552 Par ch=5 c=11 v=115
59560 Par ch=5 c=11 v=114
59568 Par ch=5 c=11 v=113
59572 Par ch=5 c=11 v=112
59580 Par ch=5 c=11 v=111
59584 Par ch=5 c=11 v=110
59592 Par ch=5 c=11 v=109
59596 Par ch=5 c=11 v=108
59604 Par ch=5 c=11 v=107
59612 Par ch=5 c=11 v=106
59616 Par ch=5 c=11 v=105
59624 Par ch=5 c=11 v=104
59628 Par ch=5 c=11 v=103
59636 Par ch=5 c=11 v=102
59644 Par ch=5 c=11 v=101
59648 Par ch=5 c=11 v=100
59656 Par ch=5 c=11 v=99
59660 Par ch=5 c=11 v=98
59668 Par ch=5 c=11 v=97
59672 Par ch=5 c=11 v=96
59680 Par ch=5 c=11 v=95
59688 Par ch=5 c=11 v=94
59692 Par ch=5 c=11 v=93
59700 Par ch=5 c=11 v=92
59704 Par ch=5 c=11 v=91
59712 Par ch=5 c=11 v=90
59720 Par ch=5 c=11 v=89
59724 Par ch=5 c=11 v=88
59732 Par ch=5 c=11 v=87
59736 Par ch=5 c=11 v=86
59744 Par ch=5 c=11 v=85
59748 Par ch=5 c=11 v=84
59756 Par ch=5 c=11 v=83
59764 Par ch=5 c=11 v=82
59768 Par ch=5 c=11 v=81
59776 Par ch=5 c=11 v=80
59780 Par ch=5 c=11 v=79
59788 Par ch=5 c=11 v=78
59796 Par ch=5 c=11 v=77
59800 Par ch=5 c=11 v=76
59808 Par ch=5 c=11 v=75
59812 Par ch=5 c=11 v=74
59820 Par ch=5 c=11 v=73
59824 Par ch=5 c=11 v=72
59832 Par ch=5 c=11 v=71
59840 Par ch=5 c=11 v=70
59844 Par ch=5 c=11 v=69
59852 Par ch=5 c=11 v=68
59856 Par ch=5 c=11 v=67
59864 Par ch=5 c=11 v=66
59872 Par ch=5 c=11 v=65
59876 Par ch=5 c=11 v=64
59884 Par ch=5 c=11 v=63
59888 Par ch=5 c=11 v=62
59892 Par ch=5 c=11 v=61
59896 Par ch=5 c=11 v=60
59900 Par ch=5 c=11 v=120
59904 On ch=5 n=74 v=0
59904 On ch=5 n=62 v=0
60096 On ch=5 n=57 v=60
60288 On ch=5 n=66 v=70
60296 On ch=5 n=57 v=0
60476 Pb ch=5 v=7296
60480 On ch=5 n=71 v=90
60484 Pb ch=5 v=7424
60488 On ch=5 n=66 v=0
60488 Pb ch=5 v=7552
60492 Pb ch=5 v=7680
60500 Pb ch=5 v=7808
60508 Pb ch=5 v=7936
60524 Pb ch=5 v=8064
60548 Pb ch=5 v=8192
60672 On ch=5 n=69 v=90
60680 On ch=5 n=71 v=0
60864 On ch=5 n=64 v=75
60872 On ch=5 n=69 v=0
61056 On ch=5 n=61 v=60
61064 On ch=5 n=64 v=0
61248 On ch=5 n=57 v=60
61256 On ch=5 n=61 v=0
61436 Pb ch=5 v=7296
61440 On ch=5 n=71 v=90
61444 Pb ch=5 v=7424
61448 On ch=5 n=57 v=0
61448 Pb ch=5 v=7552
61452 Pb ch=5 v=7680
61460 Pb ch=5 v=7808
61468 Pb ch=5 v=7936
61484 Pb ch=5 v=8064
61508 Pb ch=5 v=8192
61632 On ch=5 n=69 v=70
61640 On ch=5 n=71 v=0
61824 On ch=5 n=64 v=60
61832 On ch=5 n=69 v=0
62016 On ch=5 n=69 v=60
62024 On ch=5 n=64 v=0
62208 On ch=5 n=67 v=60
62216 On ch=5 n=69 v=0
62220 Par ch=5 c=11 v=119
62228 Par ch=5 c=11 v=118
62240 Par ch=5 c=11 v=117
62248 Par ch=5 c=11 v=116
62256 Par ch=5 c=11 v=115
62268 Par ch=5 c=11 v=114
62276 Par ch=5 c=11 v=113
62288 Par ch=5 c=11 v=112
62296 Par ch=5 c=11 v=111
62304 Par ch=5 c=11 v=110
62316 Par ch=5 c=11 v=109
62324 Par ch=5 c=11 v=108
62336 Par ch=5 c=11 v=107
62344 Par ch=5 c=11 v=106
62352 Par ch=5 c=11 v=105
62364 Par ch=5 c=11 v=104
62372 Par ch=5 c=11 v=103
62380 Par ch=5 c=11 v=102
62392 Par ch=5 c=11 v=101
62400 Par ch=5 c=11 v=100
62412 Par ch=5 c=11 v=99
62420 Par ch=5 c=11 v=98
62428 Par ch=5 c=11 v=97
62440 Par ch=5 c=11 v=96
62448 Par ch=5 c=11 v=95
62460 Par ch=5 c=11 v=94
62468 Par ch=5 c=11 v=93
62476 Par ch=5 c=11 v=92
62488 Par ch=5 c=11 v=91
62496 Par ch=5 c=11 v=90
62508 Par ch=5 c=11 v=89
62516 Par ch=5 c=11 v=88
62524 Par ch=5 c=11 v=87
62536 Par ch=5 c=11 v=86
62544 Par ch=5 c=11 v=85
62552 Par ch=5 c=11 v=84
62564 Par ch=5 c=11 v=83
62572 Par ch=5 c=11 v=82
62584 Par ch=5 c=11 v=81
62592 Par ch=5 c=11 v=80
62600 Par ch=5 c=11 v=79
62612 Par ch=5 c=11 v=78
62620 Par ch=5 c=11 v=77
62632 Par ch=5 c=11 v=76
62640 Par ch=5 c=11 v=75
62648 Par ch=5 c=11 v=74
62660 Par ch=5 c=11 v=73
62668 Par ch=5 c=11 v=72
62680 Par ch=5 c=11 v=71
62688 Par ch=5 c=11 v=70
62696 Par ch=5 c=11 v=69
62708 Par ch=5 c=11 v=68
62716 Par ch=5 c=11 v=67
62724 Par ch=5 c=11 v=66
62736 Par ch=5 c=11 v=65
62744 Par ch=5 c=11 v=64
62756 Par ch=5 c=11 v=63
62764 Par ch=5 c=11 v=62
62772 Par ch=5 c=11 v=61
62784 Par ch=5 c=11 v=60
62792 Par ch=5 c=11 v=59
62804 Par ch=5 c=11 v=58
62812 Par ch=5 c=11 v=57
62820 Par ch=5 c=11 v=56
62832 Par ch=5 c=11 v=55
62840 Par ch=5 c=11 v=54
62852 Par ch=5 c=11 v=53
62860 Par ch=5 c=11 v=52
62868 Par ch=5 c=11 v=51
62880 Par ch=5 c=11 v=50
62888 Par ch=5 c=11 v=49
62896 Par ch=5 c=11 v=48
62908 Par ch=5 c=11 v=47
62916 Par ch=5 c=11 v=46
62928 Par ch=5 c=11 v=45
62936 Par ch=5 c=11 v=44
62944 Par ch=5 c=11 v=43
62956 Par ch=5 c=11 v=42
62964 Par ch=5 c=11 v=41
62980 Par ch=5 c=11 v=40
62984 Par ch=5 c=11 v=39
62992 Par ch=5 c=11 v=38
63004 Par ch=5 c=11 v=37
63012 Par ch=5 c=11 v=36
63024 Par ch=5 c=11 v=35
63032 Par ch=5 c=11 v=34
63040 Par ch=5 c=11 v=33
63052 Par ch=5 c=11 v=32
63060 Par ch=5 c=11 v=31
63064 Par ch=5 c=11 v=30
63068 Par ch=5 c=11 v=120
63072 On ch=5 n=67 v=0
63264 On ch=5 n=74 v=85
63336 On ch=5 n=74 v=0
63360 On ch=5 n=74 v=80
63456 On ch=5 n=74 v=0
63456 On ch=5 n=74 v=80
63552 On ch=5 n=74 v=0
63552 On ch=5 n=74 v=80
63648 On ch=5 n=74 v=0
63648 On ch=5 n=72 v=75
63796 Pb ch=5 v=8064
63808 Pb ch=5 v=7936
63816 Pb ch=5 v=7808
63820 Pb ch=5 v=7680
63824 Pb ch=5 v=7552
63828 Pb ch=5 v=7296
63832 Pb ch=5 v=7040
63836 Pb ch=5 v=6656
63840 On ch=5 n=72 v=0
63840 Pb ch=5 v=8192
66240 On ch=5 n=71 v=80
66320 On ch=5 n=71 v=0
66336 On ch=5 n=71 v=80
66400 On ch=5 n=71 v=0
66432 On ch=5 n=71 v=80
66528 On ch=5 n=71 v=0
66528 On ch=5 n=72 v=80
66624 On ch=5 n=72 v=0
66624 On ch=5 n=71 v=80
66720 On ch=5 n=71 v=0
66720 On ch=5 n=72 v=80
66844 Pb ch=5 v=8064
66852 Pb ch=5 v=7808
66856 Pb ch=5 v=7552
66860 Pb ch=5 v=7040
66864 On ch=5 n=72 v=0
66864 Pb ch=5 v=8192
67872 On ch=5 n=72 v=75
67952 On ch=5 n=72 v=0
67968 On ch=5 n=72 v=75
68064 On ch=5 n=72 v=0
68064 On ch=5 n=71 v=75
68160 On ch=5 n=71 v=0
68160 On ch=5 n=69 v=75
68240 On ch=5 n=69 v=0
68256 On ch=5 n=72 v=75
69120 On ch=5 n=72 v=0
69312 On ch=5 n=74 v=75
69408 On ch=5 n=74 v=0
69408 On ch=5 n=74 v=75
69472 On ch=5 n=74 v=0
69504 On ch=5 n=74 v=75
69600 On ch=5 n=74 v=0
69600 On ch=5 n=74 v=75
69696 On ch=5 n=74 v=0
69696 On ch=5 n=74 v=75
69792 On ch=5 n=74 v=0
69792 On ch=5 n=72 v=75
69888 On ch=5 n=72 v=0
69888 On ch=5 n=72 v=75
69924 Pb ch=5 v=8064
69932 Pb ch=5 v=7936
69936 Pb ch=5 v=7680
69940 Pb ch=5 v=7296
69944 On ch=5 n=72 v=0
69944 Pb ch=5 v=8192
71040 On ch=5 n=72 v=75
71136 On ch=5 n=72 v=0
71136 On ch=5 n=71 v=75
71232 On ch=5 n=71 v=0
71232 On ch=5 n=69 v=75
71360 On ch=5 n=69 v=0
71424 On ch=5 n=72 v=80
73044 Par ch=5 c=11 v=91
73124 Par ch=5 c=11 v=92
73204 Par ch=5 c=11 v=93
73284 Par ch=5 c=11 v=94
73364 Par ch=5 c=11 v=95
73444 Par ch=5 c=11 v=96
73528 Par ch=5 c=11 v=97
73608 Par ch=5 c=11 v=98
73688 Par ch=5 c=11 v=99
73768 Par ch=5 c=11 v=100
73848 Par ch=5 c=11 v=101
73928 Par ch=5 c=11 v=102
74012 Par ch=5 c=11 v=103
74092 Par ch=5 c=11 v=104
74172 Par ch=5 c=11 v=105
74252 Par ch=5 c=11 v=106
74332 Par ch=5 c=11 v=107
74412 Par ch=5 c=11 v=108
74500 Par ch=5 c=11 v=109
74576 Par ch=5 c=11 v=110
74656 Par ch=5 c=11 v=111
74736 Par ch=5 c=11 v=112
74816 Par ch=5 c=11 v=113
74896 Par ch=5 c=11 v=114
74980 Par ch=5 c=11 v=115
75060 Par ch=5 c=11 v=116
75140 Par ch=5 c=11 v=117
75220 Par ch=5 c=11 v=118
75300 Par ch=5 c=11 v=119
75380 Par ch=5 c=11 v=120
75464 Par ch=5 c=11 v=121
75544 Par ch=5 c=11 v=122
75624 Par ch=5 c=11 v=123
75704 Par ch=5 c=11 v=124
75784 Par ch=5 c=11 v=125
75864 Par ch=5 c=11 v=126
75944 Par ch=5 c=11 v=127
76036 On ch=5 n=72 v=0
78624 On ch=5 n=38 v=105
78704 On ch=5 n=38 v=0
78720 On ch=5 n=41 v=105
78816 On ch=5 n=41 v=0
78816 On ch=5 n=41 v=105
78880 On ch=5 n=41 v=0
78912 On ch=5 n=41 v=105
78992 On ch=5 n=41 v=0
79008 On ch=5 n=38 v=105
79120 Pb ch=5 v=8064
79144 Pb ch=5 v=7936
79156 Pb ch=5 v=7808
79168 Pb ch=5 v=7680
79176 Pb ch=5 v=7552
79180 Pb ch=5 v=7424
79188 Pb ch=5 v=7296
79192 Pb ch=5 v=7168
79196 Pb ch=5 v=6912
79200 On ch=5 n=38 v=0
79200 Pb ch=5 v=8192
79200 Meta TrkEnd
TrkEnd
MTrk
0 Meta TrkName "RHYTHM OF LOVE  "
192 Par ch=6 c=121 v=0
196 Par ch=6 c=100 v=0
200 Par ch=6 c=101 v=0
204 Par ch=6 c=6 v=12
208 Par ch=6 c=7 v=97
212 Par ch=6 c=10 v=27
216 Par ch=6 c=11 v=0
384 Par ch=6 c=0 v=0
388 Par ch=6 c=32 v=0
392 PrCh ch=6 p=42
396 Par ch=6 c=91 v=100
400 Par ch=6 c=127 v=0
768 On ch=6 n=66 v=80
784 Par ch=6 c=11 v=1
796 Par ch=6 c=11 v=2
812 Par ch=6 c=11 v=3
824 Par ch=6 c=11 v=4
840 Par ch=6 c=11 v=5
852 Par ch=6 c=11 v=6
868 Par ch=6 c=11 v=7
880 Par ch=6 c=11 v=8
896 Par ch=6 c=11 v=9
908 Par ch=6 c=11 v=10
924 Par ch=6 c=11 v=11
936 Par ch=6 c=11 v=12
952 Par ch=6 c=11 v=13
964 Par ch=6 c=11 v=14
980 Par ch=6 c=11 v=15
992 Par ch=6 c=11 v=16
1008 Par ch=6 c=11 v=17
1020 Par ch=6 c=11 v=18
1036 Par ch=6 c=11 v=19
1048 Par ch=6 c=11 v=20
1064 Par ch=6 c=11 v=21
1076 Par ch=6 c=11 v=22
1092 Par ch=6 c=11 v=23
1104 Par ch=6 c=11 v=24
1120 Par ch=6 c=11 v=25
1132 Par ch=6 c=11 v=26
1148 Par ch=6 c=11 v=27
1160 Par ch=6 c=11 v=28
1172 Par ch=6 c=11 v=29
1188 Par ch=6 c=11 v=30
1200 Par ch=6 c=11 v=31
1216 Par ch=6 c=11 v=32
1228 Par ch=6 c=11 v=33
1244 Par ch=6 c=11 v=34
1256 Par ch=6 c=11 v=35
1272 Par ch=6 c=11 v=36
1284 Par ch=6 c=11 v=37
1300 Par ch=6 c=11 v=38
1312 Par ch=6 c=11 v=39
1328 Par ch=6 c=11 v=40
1340 Par ch=6 c=11 v=41
1356 Par ch=6 c=11 v=42
1368 Par ch=6 c=11 v=43
1384 Par ch=6 c=11 v=44
1396 Par ch=6 c=11 v=45
1412 Par ch=6 c=11 v=46
1424 Par ch=6 c=11 v=47
1440 Par ch=6 c=11 v=48
1452 Par ch=6 c=11 v=49
1468 Par ch=6 c=11 v=50
1480 Par ch=6 c=11 v=51
1496 Par ch=6 c=11 v=52
1508 Par ch=6 c=11 v=53
1524 Par ch=6 c=11 v=54
1540 Par ch=6 c=11 v=55
1548 Par ch=6 c=11 v=56
1564 Par ch=6 c=11 v=57
1576 Par ch=6 c=11 v=58
1592 Par ch=6 c=11 v=59
1604 Par ch=6 c=11 v=60
1620 Par ch=6 c=11 v=61
1632 Par ch=6 c=11 v=62
1648 Par ch=6 c=11 v=63
1660 Par ch=6 c=11 v=64
1676 Par ch=6 c=11 v=65
1688 Par ch=6 c=11 v=66
1704 Par ch=6 c=11 v=67
1716 Par ch=6 c=11 v=68
1732 Par ch=6 c=11 v=69
1744 Par ch=6 c=11 v=70
1760 Par ch=6 c=11 v=71
1772 Par ch=6 c=11 v=72
1788 Par ch=6 c=11 v=73
1800 Par ch=6 c=11 v=74
1816 Par ch=6 c=11 v=75
1828 Par ch=6 c=11 v=76
1844 Par ch=6 c=11 v=77
1856 Par ch=6 c=11 v=78
1872 Par ch=6 c=11 v=79
1884 Par ch=6 c=11 v=80
1900 Par ch=6 c=11 v=81
1912 Par ch=6 c=11 v=82
1924 Par ch=6 c=11 v=83
1940 Par ch=6 c=11 v=84
1952 Par ch=6 c=11 v=85
1968 Par ch=6 c=11 v=86
1980 Par ch=6 c=11 v=87
1996 Par ch=6 c=11 v=88
2008 Par ch=6 c=11 v=89
2024 Par ch=6 c=11 v=90
2036 Par ch=6 c=11 v=91
2052 Par ch=6 c=11 v=92
2064 Par ch=6 c=11 v=93
2080 Par ch=6 c=11 v=94
2092 Par ch=6 c=11 v=95
2108 Par ch=6 c=11 v=96
2120 Par ch=6 c=11 v=97
2136 Par ch=6 c=11 v=98
2148 Par ch=6 c=11 v=99
2164 Par ch=6 c=11 v=100
2176 Par ch=6 c=11 v=101
2192 Par ch=6 c=11 v=102
2204 Par ch=6 c=11 v=103
2220 Par ch=6 c=11 v=104
2232 Par ch=6 c=11 v=105
2248 Par ch=6 c=11 v=106
2260 Par ch=6 c=11 v=107
2276 Par ch=6 c=11 v=108
2288 Par ch=6 c=11 v=109
2300 Par ch=6 c=11 v=110
3224 Par ch=6 c=11 v=109
3272 Par ch=6 c=11 v=108
3300 Par ch=6 c=11 v=107
3320 Par ch=6 c=11 v=106
3332 Par ch=6 c=11 v=105
3344 Par ch=6 c=11 v=104
3356 Par ch=6 c=11 v=103
3364 Par ch=6 c=11 v=102
3372 Par ch=6 c=11 v=101
3380 Par ch=6 c=11 v=100
3384 Par ch=6 c=11 v=99
3392 Par ch=6 c=11 v=98
3396 Par ch=6 c=11 v=97
3404 Par ch=6 c=11 v=96
3408 Par ch=6 c=11 v=95
3412 Par ch=6 c=11 v=94
3416 Par ch=6 c=11 v=93
3420 Par ch=6 c=11 v=92
3424 Par ch=6 c=11 v=91
3428 Par ch=6 c=11 v=90
3432 Par ch=6 c=11 v=88
3436 Par ch=6 c=11 v=87
3440 Par ch=6 c=11 v=86
3444 Par ch=6 c=11 v=84
3448 Par ch=6 c=11 v=82
3452 Par ch=6 c=11 v=80
3456 On ch=6 n=64 v=70
3460 On ch=6 n=66 v=0
3480 Par ch=6 c=11 v=81
3500 Par ch=6 c=11 v=82
3520 Par ch=6 c=11 v=83
3544 Par ch=6 c=11 v=84
3564 Par ch=6 c=11 v=85
3584 Par ch=6 c=11 v=86
3608 Par ch=6 c=11 v=87
3628 Par ch=6 c=11 v=88
3648 Par ch=6 c=11 v=89
3672 Par ch=6 c=11 v=90
3692 Par ch=6 c=11 v=91
3712 Par ch=6 c=11 v=92
3736 Par ch=6 c=11 v=93
3756 Par ch=6 c=11 v=94
3776 Par ch=6 c=11 v=95
3800 Par ch=6 c=11 v=96
3820 Par ch=6 c=11 v=97
3840 Par ch=6 c=11 v=98
3864 Par ch=6 c=11 v=99
3884 Par ch=6 c=11 v=100
3904 Par ch=6 c=11 v=101
3928 Par ch=6 c=11 v=102
3948 Par ch=6 c=11 v=103
3968 Par ch=6 c=11 v=104
3992 Par ch=6 c=11 v=105
4012 Par ch=6 c=11 v=106
4032 Par ch=6 c=11 v=107
4056 Par ch=6 c=11 v=108
4076 Par ch=6 c=11 v=109
4096 Par ch=6 c=11 v=110
4376 Par ch=6 c=11 v=109
4424 Par ch=6 c=11 v=108
4452 Par ch=6 c=11 v=107
4472 Par ch=6 c=11 v=106
4484 Par ch=6 c=11 v=105
4496 Par ch=6 c=11 v=104
4508 Par ch=6 c=11 v=103
4516 Par ch=6 c=11 v=102
4524 Par ch=6 c=11 v=101
4532 Par ch=6 c=11 v=100
4536 Par ch=6 c=11 v=99
4544 Par ch=6 c=11 v=98
4548 Par ch=6 c=11 v=97
4556 Par ch=6 c=11 v=96
4560 Par ch=6 c=11 v=95
4564 Par ch=6 c=11 v=94
4568 Par ch=6 c=11 v=93
4572 Par ch=6 c=11 v=92
4576 Par ch=6 c=11 v=91
4580 Par ch=6 c=11 v=90
4584 Par ch=6 c=11 v=88
4588 Par ch=6 c=11 v=87
4592 Par ch=6 c=11 v=86
4596 Par ch=6 c=11 v=84
4600 Par ch=6 c=11 v=82
4604 Par ch=6 c=11 v=80
4608 On ch=6 n=66 v=70
4612 On ch=6 n=64 v=0
4632 Par ch=6 c=11 v=81
4652 Par ch=6 c=11 v=82
4672 Par ch=6 c=11 v=83
4696 Par ch=6 c=11 v=84
4716 Par ch=6 c=11 v=85
4736 Par ch=6 c=11 v=86
4760 Par ch=6 c=11 v=87
4780 Par ch=6 c=11 v=88
4800 Par ch=6 c=11 v=89
4824 Par ch=6 c=11 v=90
4844 Par ch=6 c=11 v=91
4864 Par ch=6 c=11 v=92
4888 Par ch=6 c=11 v=93
4908 Par ch=6 c=11 v=94
4928 Par ch=6 c=11 v=95
4952 Par ch=6 c=11 v=96
4972 Par ch=6 c=11 v=97
4992 Par ch=6 c=11 v=98
5016 Par ch=6 c=11 v=99
5036 Par ch=6 c=11 v=100
5056 Par ch=6 c=11 v=101
5080 Par ch=6 c=11 v=102
5100 Par ch=6 c=11 v=103
5120 Par ch=6 c=11 v=104
5144 Par ch=6 c=11 v=105
5164 Par ch=6 c=11 v=106
5184 Par ch=6 c=11 v=107
5208 Par ch=6 c=11 v=108
5228 Par ch=6 c=11 v=109
5248 Par ch=6 c=11 v=110
5528 Par ch=6 c=11 v=109
5576 Par ch=6 c=11 v=108
5604 Par ch=6 c=11 v=107
5624 Par ch=6 c=11 v=106
5636 Par ch=6 c=11 v=105
5648 Par ch=6 c=11 v=104
5660 Par ch=6 c=11 v=103
5668 Par ch=6 c=11 v=102
5676 Par ch=6 c=11 v=101
5684 Par ch=6 c=11 v=100
5688 Par ch=6 c=11 v=99
5696 Par ch=6 c=11 v=98
5700 Par ch=6 c=11 v=97
5708 Par ch=6 c=11 v=96
5712 Par ch=6 c=11 v=95
5716 Par ch=6 c=11 v=94
5720 Par ch=6 c=11 v=93
5724 Par ch=6 c=11 v=92
5728 Par ch=6 c=11 v=91
5732 Par ch=6 c=11 v=90
5736 Par ch=6 c=11 v=88
5740 Par ch=6 c=11 v=87
5744 Par ch=6 c=11 v=86
5748 Par ch=6 c=11 v=84
5752 Par ch=6 c=11 v=82
5756 Par ch=6 c=11 v=80
5760 Par ch=6 c=11 v=60
5764 On ch=6 n=66 v=0
5764 On ch=6 n=64 v=70
5772 Par ch=6 c=11 v=61
5780 Par ch=6 c=11 v=62
5792 Par ch=6 c=11 v=63
5800 Par ch=6 c=11 v=64
5808 Par ch=6 c=11 v=65
5820 Par ch=6 c=11 v=66
5828 Par ch=6 c=11 v=67
5836 Par ch=6 c=11 v=68
5848 Par ch=6 c=11 v=69
5856 Par ch=6 c=11 v=70
5868 Par ch=6 c=11 v=71
5876 Par ch=6 c=11 v=72
5884 Par ch=6 c=11 v=73
5896 Par ch=6 c=11 v=74
5904 Par ch=6 c=11 v=75
5912 Par ch=6 c=11 v=76
5924 Par ch=6 c=11 v=77
5932 Par ch=6 c=11 v=78
5944 Par ch=6 c=11 v=79
5952 Par ch=6 c=11 v=80
5960 Par ch=6 c=11 v=81
5972 Par ch=6 c=11 v=82
5980 Par ch=6 c=11 v=83
5988 Par ch=6 c=11 v=84
6000 Par ch=6 c=11 v=85
6008 Par ch=6 c=11 v=86
6020 Par ch=6 c=11 v=87
6028 Par ch=6 c=11 v=88
6036 Par ch=6 c=11 v=89
6048 Par ch=6 c=11 v=90
6056 Par ch=6 c=11 v=91
6064 Par ch=6 c=11 v=92
6076 Par ch=6 c=11 v=93
6084 Par ch=6 c=11 v=94
6096 Par ch=6 c=11 v=95
6104 Par ch=6 c=11 v=96
6112 Par ch=6 c=11 v=97
6124 Par ch=6 c=11 v=98
6132 Par ch=6 c=11 v=99
6140 Par ch=6 c=11 v=100
6344 Par ch=6 c=11 v=99
6352 Par ch=6 c=11 v=98
6360 Par ch=6 c=11 v=97
6368 Par ch=6 c=11 v=96
6376 Par ch=6 c=11 v=95
6384 Par ch=6 c=11 v=94
6392 Par ch=6 c=11 v=93
6400 Par ch=6 c=11 v=92
6408 Par ch=6 c=11 v=91
6416 Par ch=6 c=11 v=90
6424 Par ch=6 c=11 v=89
6428 Par ch=6 c=11 v=88
6436 Par ch=6 c=11 v=87
6444 Par ch=6 c=11 v=86
6452 Par ch=6 c=11 v=85
6460 Par ch=6 c=11 v=84
6468 Par ch=6 c=11 v=83
6476 Par ch=6 c=11 v=82
6484 Par ch=6 c=11 v=81
6492 Par ch=6 c=11 v=80
6500 Par ch=6 c=11 v=79
6508 Par ch=6 c=11 v=78
6512 Par ch=6 c=11 v=77
6520 Par ch=6 c=11 v=76
6544 Par ch=6 c=11 v=75
6556 Par ch=6 c=11 v=74
6568 Par ch=6 c=11 v=73
6580 Par ch=6 c=11 v=72
6592 Par ch=6 c=11 v=71
6604 Par ch=6 c=11 v=70
6620 Par ch=6 c=11 v=69
6632 Par ch=6 c=11 v=68
6644 Par ch=6 c=11 v=67
6656 Par ch=6 c=11 v=66
6668 Par ch=6 c=11 v=65
6680 Par ch=6 c=11 v=64
6692 Par ch=6 c=11 v=63
6708 Par ch=6 c=11 v=62
6720 Par ch=6 c=11 v=61
6732 Par ch=6 c=11 v=60
6744 Par ch=6 c=11 v=59
6756 Par ch=6 c=11 v=58
6768 Par ch=6 c=11 v=57
6780 Par ch=6 c=11 v=56
6796 Par ch=6 c=11 v=55
6808 Par ch=6 c=11 v=54
6820 Par ch=6 c=11 v=53
6832 Par ch=6 c=11 v=52
6844 Par ch=6 c=11 v=51
6856 Par ch=6 c=11 v=50
6868 Par ch=6 c=11 v=49
6884 Par ch=6 c=11 v=48
6896 Par ch=6 c=11 v=47
6908 Par ch=6 c=11 v=46
6920 Par ch=6 c=11 v=45
6932 Par ch=6 c=11 v=44
6944 Par ch=6 c=11 v=43
6956 Par ch=6 c=11 v=42
6972 Par ch=6 c=11 v=41
6984 Par ch=6 c=11 v=40
6996 Par ch=6 c=11 v=39
7008 Par ch=6 c=11 v=38
7020 Par ch=6 c=11 v=37
7032 Par ch=6 c=11 v=36
7044 Par ch=6 c=11 v=35
7060 Par ch=6 c=11 v=34
7072 Par ch=6 c=11 v=33
7084 Par ch=6 c=11 v=32
7096 Par ch=6 c=11 v=31
7108 Par ch=6 c=11 v=30
7120 Par ch=6 c=11 v=29
7132 Par ch=6 c=11 v=28
7148 Par ch=6 c=11 v=27
7160 Par ch=6 c=11 v=26
7172 Par ch=6 c=11 v=25
7184 Par ch=6 c=11 v=24
7196 Par ch=6 c=11 v=23
7208 Par ch=6 c=11 v=22
7220 Par ch=6 c=11 v=21
7236 Par ch=6 c=11 v=20
7248 Par ch=6 c=11 v=19
7260 Par ch=6 c=11 v=18
7272 Par ch=6 c=11 v=17
7284 Par ch=6 c=11 v=16
7296 Par ch=6 c=11 v=15
7308 Par ch=6 c=11 v=14
7324 Par ch=6 c=11 v=13
7336 Par ch=6 c=11 v=12
7348 Par ch=6 c=11 v=11
7360 Par ch=6 c=11 v=10
7372 Par ch=6 c=11 v=9
7384 Par ch=6 c=11 v=8
7396 Par ch=6 c=11 v=7
7412 Par ch=6 c=11 v=6
7424 Par ch=6 c=11 v=5
7436 Par ch=6 c=11 v=4
7448 Par ch=6 c=11 v=3
7460 Par ch=6 c=11 v=2
7472 Par ch=6 c=11 v=1
7484 Par ch=6 c=11 v=0
7488 On ch=6 n=64 v=0
7676 Par ch=6 c=11 v=100
9216 Par ch=6 c=91 v=95
9600 PrCh ch=6 p=53
9984 On ch=6 n=86 v=120
9984 On ch=6 n=81 v=120
10176 On ch=6 n=86 v=0
10176 On ch=6 n=81 v=0
10176 On ch=6 n=86 v=120
10176 On ch=6 n=81 v=120
10368 On ch=6 n=86 v=0
10368 On ch=6 n=81 v=0
10368 On ch=6 n=86 v=120
10368 On ch=6 n=81 v=120
10560 On ch=6 n=86 v=0
10560 On ch=6 n=81 v=0
10560 On ch=6 n=86 v=120
10560 On ch=6 n=81 v=120
10752 On ch=6 n=86 v=0
10752 On ch=6 n=81 v=0
10752 On ch=6 n=85 v=120
10752 On ch=6 n=81 v=120
10944 On ch=6 n=85 v=0
10944 On ch=6 n=81 v=0
10944 On ch=6 n=85 v=120
10944 On ch=6 n=81 v=120
11136 On ch=6 n=85 v=0
11136 On ch=6 n=81 v=0
11136 On ch=6 n=85 v=120
11136 On ch=6 n=81 v=120
11328 On ch=6 n=85 v=0
11328 On ch=6 n=81 v=0
11328 On ch=6 n=85 v=120
11328 On ch=6 n=81 v=120
11520 On ch=6 n=85 v=0
11520 On ch=6 n=81 v=0
11520 On ch=6 n=84 v=120
11520 On ch=6 n=81 v=120
11712 On ch=6 n=84 v=0
11712 On ch=6 n=81 v=0
11712 On ch=6 n=84 v=120
11712 On ch=6 n=81 v=120
11904 On ch=6 n=84 v=0
11904 On ch=6 n=81 v=0
11904 On ch=6 n=84 v=110
11904 On ch=6 n=81 v=110
12096 On ch=6 n=84 v=0
12096 On ch=6 n=81 v=0
12096 On ch=6 n=84 v=100
12096 On ch=6 n=81 v=100
12192 On ch=6 n=84 v=0
12192 On ch=6 n=81 v=0
12288 PrCh ch=6 p=29
13248 On ch=6 n=69 v=90
13248 On ch=6 n=67 v=86
13248 On ch=6 n=65 v=82
13248 On ch=6 n=62 v=78
13248 On ch=6 n=57 v=74
13268 Par ch=6 c=11 v=99
13288 Par ch=6 c=11 v=98
13308 Par ch=6 c=11 v=97
13328 Par ch=6 c=11 v=96
13344 Par ch=6 c=11 v=95
13364 Par ch=6 c=11 v=94
13384 Par ch=6 c=11 v=93
13404 Par ch=6 c=11 v=92
13424 Par ch=6 c=11 v=91
13440 Par ch=6 c=11 v=90
13460 Par ch=6 c=11 v=89
13480 Par ch=6 c=11 v=88
13500 Par ch=6 c=11 v=87
13516 Par ch=6 c=11 v=86
13536 Par ch=6 c=11 v=85
13556 Par ch=6 c=11 v=84
13576 Par ch=6 c=11 v=83
13596 Par ch=6 c=11 v=82
13612 Par ch=6 c=11 v=81
13632 Par ch=6 c=11 v=80
13652 Par ch=6 c=11 v=79
13672 Par ch=6 c=11 v=78
13692 Par ch=6 c=11 v=77
13708 Par ch=6 c=11 v=76
13728 Par ch=6 c=11 v=75
13748 Par ch=6 c=11 v=74
13768 Par ch=6 c=11 v=73
13784 Par ch=6 c=11 v=72
13804 Par ch=6 c=11 v=71
13824 Par ch=6 c=11 v=64
13844 Par ch=6 c=11 v=69
13864 Par ch=6 c=11 v=68
13880 Par ch=6 c=11 v=67
13900 Par ch=6 c=11 v=66
13920 Par ch=6 c=11 v=65
13940 Par ch=6 c=11 v=64
13960 Par ch=6 c=11 v=63
13976 Par ch=6 c=11 v=62
13996 Par ch=6 c=11 v=61
14016 Par ch=6 c=11 v=60
14036 Par ch=6 c=11 v=59
14052 Par ch=6 c=11 v=58
14072 Par ch=6 c=11 v=57
14092 Par ch=6 c=11 v=56
14112 Par ch=6 c=11 v=55
14132 Par ch=6 c=11 v=54
14148 Par ch=6 c=11 v=53
14168 Par ch=6 c=11 v=52
14188 Par ch=6 c=11 v=51
14208 Par ch=6 c=11 v=50
14228 Par ch=6 c=11 v=49
14244 Par ch=6 c=11 v=48
14264 Par ch=6 c=11 v=47
14284 Par ch=6 c=11 v=46
14304 Par ch=6 c=11 v=45
14320 Par ch=6 c=11 v=44
14340 Par ch=6 c=11 v=43
14360 Par ch=6 c=11 v=42
14380 Par ch=6 c=11 v=41
14400 Par ch=6 c=11 v=40
14416 Par ch=6 c=11 v=39
14436 Par ch=6 c=11 v=38
14456 Par ch=6 c=11 v=37
14476 Par ch=6 c=11 v=36
14496 Par ch=6 c=11 v=35
14512 Par ch=6 c=11 v=34
14532 Par ch=6 c=11 v=33
14552 Par ch=6 c=11 v=32
14572 Par ch=6 c=11 v=31
14588 Par ch=6 c=11 v=30
14592 Par ch=6 c=11 v=60
14596 On ch=6 n=69 v=0
14596 On ch=6 n=67 v=0
14596 On ch=6 n=65 v=0
14596 On ch=6 n=62 v=0
14596 On ch=6 n=57 v=0
14596 On ch=6 n=67 v=90
14644 Par ch=6 c=11 v=59
14696 Par ch=6 c=11 v=58
14748 Par ch=6 c=11 v=57
14800 Par ch=6 c=11 v=56
14848 Par ch=6 c=11 v=55
14900 Par ch=6 c=11 v=54
14952 Par ch=6 c=11 v=53
15004 Par ch=6 c=11 v=52
15052 Par ch=6 c=11 v=51
15104 Par ch=6 c=11 v=50
15156 Par ch=6 c=11 v=49
15208 Par ch=6 c=11 v=48
15256 Par ch=6 c=11 v=47
15308 Par ch=6 c=11 v=46
15364 Par ch=6 c=11 v=45
15412 Par ch=6 c=11 v=44
15464 Par ch=6 c=11 v=43
15512 Par ch=6 c=11 v=42
15564 Par ch=6 c=11 v=41
15616 Par ch=6 c=11 v=40
15668 Par ch=6 c=11 v=39
15716 Par ch=6 c=11 v=38
15768 Par ch=6 c=11 v=37
15820 Par ch=6 c=11 v=36
15872 Par ch=6 c=11 v=35
15920 Par ch=6 c=11 v=34
15972 Par ch=6 c=11 v=33
16024 Par ch=6 c=11 v=32
16076 Par ch=6 c=11 v=31
16120 On ch=6 n=67 v=0
16124 Par ch=6 c=11 v=30
16316 Par ch=6 c=11 v=100
16320 On ch=6 n=69 v=90
16320 On ch=6 n=67 v=86
16320 On ch=6 n=65 v=82
16320 On ch=6 n=62 v=78
16320 On ch=6 n=57 v=74
16340 Par ch=6 c=11 v=99
16360 Par ch=6 c=11 v=98
16380 Par ch=6 c=11 v=97
16400 Par ch=6 c=11 v=96
16416 Par ch=6 c=11 v=95
16436 Par ch=6 c=11 v=94
16456 Par ch=6 c=11 v=93
16476 Par ch=6 c=11 v=92
16496 Par ch=6 c=11 v=91
16512 Par ch=6 c=11 v=90
16532 Par ch=6 c=11 v=89
16552 Par ch=6 c=11 v=88
16572 Par ch=6 c=11 v=87
16588 Par ch=6 c=11 v=86
16608 Par ch=6 c=11 v=85
16628 Par ch=6 c=11 v=84
16648 Par ch=6 c=11 v=83
16668 Par ch=6 c=11 v=82
16684 Par ch=6 c=11 v=81
16704 Par ch=6 c=11 v=80
16724 Par ch=6 c=11 v=79
16744 Par ch=6 c=11 v=78
16764 Par ch=6 c=11 v=77
16780 Par ch=6 c=11 v=76
16800 Par ch=6 c=11 v=75
16820 Par ch=6 c=11 v=74
16840 Par ch=6 c=11 v=73
16856 Par ch=6 c=11 v=72
16876 Par ch=6 c=11 v=71
16900 Par ch=6 c=11 v=70
16916 Par ch=6 c=11 v=69
16936 Par ch=6 c=11 v=68
16952 Par ch=6 c=11 v=67
16972 Par ch=6 c=11 v=66
16992 Par ch=6 c=11 v=65
17012 Par ch=6 c=11 v=64
17032 Par ch=6 c=11 v=63
17048 Par ch=6 c=11 v=62
17068 Par ch=6 c=11 v=61
17088 Par ch=6 c=11 v=60
17108 Par ch=6 c=11 v=59
17124 Par ch=6 c=11 v=58
17144 Par ch=6 c=11 v=57
17164 Par ch=6 c=11 v=56
17184 Par ch=6 c=11 v=55
17204 Par ch=6 c=11 v=54
17220 Par ch=6 c=11 v=53
17240 Par ch=6 c=11 v=52
17260 Par ch=6 c=11 v=51
17280 Par ch=6 c=11 v=50
17300 Par ch=6 c=11 v=49
17316 Par ch=6 c=11 v=48
17336 Par ch=6 c=11 v=47
17356 Par ch=6 c=11 v=46
17376 Par ch=6 c=11 v=45
17392 Par ch=6 c=11 v=44
17412 Par ch=6 c=11 v=43
17432 Par ch=6 c=11 v=42
17452 Par ch=6 c=11 v=41
17472 Par ch=6 c=11 v=40
17488 Par ch=6 c=11 v=39
17508 Par ch=6 c=11 v=38
17528 Par ch=6 c=11 v=37
17548 Par ch=6 c=11 v=36
17568 Par ch=6 c=11 v=35
17584 Par ch=6 c=11 v=34
17604 Par ch=6 c=11 v=33
17624 Par ch=6 c=11 v=32
17644 Par ch=6 c=11 v=31
17660 Par ch=6 c=11 v=30
17664 Par ch=6 c=11 v=60
17668 On ch=6 n=69 v=0
17668 On ch=6 n=67 v=0
17668 On ch=6 n=65 v=0
17668 On ch=6 n=62 v=0
17668 On ch=6 n=57 v=0
17668 On ch=6 n=67 v=90
17716 Par ch=6 c=11 v=59
17768 Par ch=6 c=11 v=58
17820 Par ch=6 c=11 v=57
17872 Par ch=6 c=11 v=56
17920 Par ch=6 c=11 v=55
17972 Par ch=6 c=11 v=54
18024 Par ch=6 c=11 v=53
18076 Par ch=6 c=11 v=52
18124 Par ch=6 c=11 v=51
18176 Par ch=6 c=11 v=50
18228 Par ch=6 c=11 v=49
18280 Par ch=6 c=11 v=48
18328 Par ch=6 c=11 v=47
18380 Par ch=6 c=11 v=46
18436 Par ch=6 c=11 v=45
18484 Par ch=6 c=11 v=44
18536 Par ch=6 c=11 v=43
18584 Par ch=6 c=11 v=42
18636 Par ch=6 c=11 v=41
18688 Par ch=6 c=11 v=40
18740 Par ch=6 c=11 v=39
18788 Par ch=6 c=11 v=38
18840 Par ch=6 c=11 v=37
18892 Par ch=6 c=11 v=36
18944 Par ch=6 c=11 v=35
18992 Par ch=6 c=11 v=34
19044 Par ch=6 c=11 v=33
19096 Par ch=6 c=11 v=32
19148 Par ch=6 c=11 v=31
19192 On ch=6 n=67 v=0
19192 Par ch=6 c=11 v=30
19196 Par ch=6 c=11 v=125
33792 PrCh ch=6 p=53
34560 On ch=6 n=74 v=127
34560 On ch=6 n=62 v=80
34656 On ch=6 n=74 v=0
34656 On ch=6 n=62 v=0
34752 On ch=6 n=74 v=127
34752 On ch=6 n=62 v=80
34848 On ch=6 n=74 v=0
34848 On ch=6 n=62 v=0
34944 On ch=6 n=74 v=127
34944 On ch=6 n=62 v=80
35040 On ch=6 n=74 v=0
35040 On ch=6 n=62 v=0
35136 On ch=6 n=74 v=127
35136 On ch=6 n=62 v=80
35232 On ch=6 n=74 v=0
35232 On ch=6 n=62 v=0
35328 On ch=6 n=73 v=127
35328 On ch=6 n=61 v=80
35424 On ch=6 n=73 v=0
35424 On ch=6 n=61 v=0
35520 On ch=6 n=73 v=127
35520 On ch=6 n=61 v=80
35616 On ch=6 n=73 v=0
35616 On ch=6 n=61 v=0
35712 On ch=6 n=73 v=127
35712 On ch=6 n=61 v=80
35808 On ch=6 n=73 v=0
35808 On ch=6 n=61 v=0
35904 On ch=6 n=73 v=127
35904 On ch=6 n=61 v=80
36000 On ch=6 n=73 v=0
36000 On ch=6 n=61 v=0
36096 On ch=6 n=72 v=110
36096 On ch=6 n=60 v=70
36192 On ch=6 n=72 v=0
36192 On ch=6 n=60 v=0
36288 On ch=6 n=72 v=110
36288 On ch=6 n=60 v=70
36384 On ch=6 n=72 v=0
36384 On ch=6 n=60 v=0
36480 On ch=6 n=72 v=110
36480 On ch=6 n=60 v=70
36576 On ch=6 n=72 v=0
36576 On ch=6 n=60 v=0
36672 On ch=6 n=72 v=110
36672 On ch=6 n=60 v=70
36768 On ch=6 n=72 v=0
36768 On ch=6 n=60 v=0
58368 On ch=6 n=72 v=115
58368 On ch=6 n=60 v=50
58440 On ch=6 n=72 v=0
58440 On ch=6 n=60 v=0
58560 On ch=6 n=72 v=115
58560 On ch=6 n=60 v=50
58632 On ch=6 n=72 v=0
58632 On ch=6 n=60 v=0
58752 On ch=6 n=72 v=115
58752 On ch=6 n=60 v=50
58824 On ch=6 n=72 v=0
58824 On ch=6 n=60 v=0
58944 On ch=6 n=72 v=115
58944 On ch=6 n=60 v=50
59016 On ch=6 n=72 v=0
59016 On ch=6 n=60 v=0
59136 On ch=6 n=71 v=115
59136 On ch=6 n=59 v=50
59208 On ch=6 n=71 v=0
59208 On ch=6 n=59 v=0
59328 On ch=6 n=71 v=115
59328 On ch=6 n=59 v=50
59400 On ch=6 n=71 v=0
59400 On ch=6 n=59 v=0
59520 On ch=6 n=71 v=115
59520 On ch=6 n=59 v=50
59592 On ch=6 n=71 v=0
59592 On ch=6 n=59 v=0
59712 On ch=6 n=71 v=115
59712 On ch=6 n=59 v=50
59784 On ch=6 n=71 v=0
59784 On ch=6 n=59 v=0
59904 On ch=6 n=74 v=127
59904 On ch=6 n=62 v=70
59976 On ch=6 n=74 v=0
59976 On ch=6 n=62 v=0
60096 On ch=6 n=74 v=127
60096 On ch=6 n=62 v=70
60168 On ch=6 n=74 v=0
60168 On ch=6 n=62 v=0
60288 On ch=6 n=74 v=127
60288 On ch=6 n=62 v=70
60360 On ch=6 n=74 v=0
60360 On ch=6 n=62 v=0
60480 On ch=6 n=74 v=127
60480 On ch=6 n=62 v=70
60552 On ch=6 n=74 v=0
60552 On ch=6 n=62 v=0
60672 On ch=6 n=73 v=127
60672 On ch=6 n=61 v=70
60744 On ch=6 n=73 v=0
60744 On ch=6 n=61 v=0
60864 On ch=6 n=73 v=127
60864 On ch=6 n=61 v=70
60936 On ch=6 n=73 v=0
60936 On ch=6 n=61 v=0
61056 On ch=6 n=73 v=127
61056 On ch=6 n=61 v=70
61128 On ch=6 n=73 v=0
61128 On ch=6 n=61 v=0
61248 On ch=6 n=73 v=127
61248 On ch=6 n=61 v=70
61320 On ch=6 n=73 v=0
61320 On ch=6 n=61 v=0
61440 On ch=6 n=72 v=115
61440 On ch=6 n=60 v=70
61512 On ch=6 n=72 v=0
61512 On ch=6 n=60 v=0
61632 On ch=6 n=72 v=115
61632 On ch=6 n=60 v=70
61704 On ch=6 n=72 v=0
61704 On ch=6 n=60 v=0
61824 On ch=6 n=72 v=115
61824 On ch=6 n=60 v=70
61896 On ch=6 n=72 v=0
61896 On ch=6 n=60 v=0
62016 On ch=6 n=72 v=115
62016 On ch=6 n=60 v=70
62088 On ch=6 n=72 v=0
62088 On ch=6 n=60 v=0
62208 On ch=6 n=71 v=120
62208 On ch=6 n=59 v=75
62256 On ch=6 n=71 v=0
62256 On ch=6 n=59 v=0
62496 On ch=6 n=71 v=120
62496 On ch=6 n=59 v=75
62560 On ch=6 n=71 v=0
62560 On ch=6 n=59 v=0
62688 On ch=6 n=71 v=110
62688 On ch=6 n=59 v=65
62736 On ch=6 n=71 v=0
62736 On ch=6 n=59 v=0
62784 On ch=6 n=71 v=100
62784 On ch=6 n=59 v=55
62832 On ch=6 n=71 v=0
62832 On ch=6 n=59 v=0
62880 On ch=6 n=71 v=95
62880 On ch=6 n=59 v=50
62928 On ch=6 n=71 v=0
62928 On ch=6 n=59 v=0
66816 Par ch=6 c=11 v=100
66912 PrCh ch=6 p=29
67004 On ch=6 n=69 v=115
67004 On ch=6 n=67 v=100
67004 On ch=6 n=65 v=90
67004 On ch=6 n=62 v=90
68300 Par ch=6 c=11 v=99
68376 Par ch=6 c=11 v=98
68428 Par ch=6 c=11 v=97
68460 Par ch=6 c=11 v=96
68484 Par ch=6 c=11 v=95
68508 Par ch=6 c=11 v=94
68524 Par ch=6 c=11 v=93
68544 Par ch=6 c=11 v=92
68556 Par ch=6 c=11 v=91
68568 Par ch=6 c=11 v=90
68580 Par ch=6 c=11 v=89
68592 Par ch=6 c=11 v=88
68600 Par ch=6 c=11 v=87
68608 Par ch=6 c=11 v=86
68616 Par ch=6 c=11 v=85
68624 Par ch=6 c=11 v=84
68632 Par ch=6 c=11 v=83
68640 Par ch=6 c=11 v=82
68644 Par ch=6 c=11 v=81
68652 Par ch=6 c=11 v=80
68660 Par ch=6 c=11 v=79
68664 Par ch=6 c=11 v=78
68668 Par ch=6 c=11 v=77
68672 Par ch=6 c=11 v=76
68680 Par ch=6 c=11 v=75
68684 Par ch=6 c=11 v=74
68688 Par ch=6 c=11 v=73
68692 Par ch=6 c=11 v=72
68696 Par ch=6 c=11 v=71
68700 Par ch=6 c=11 v=70
68704 Par ch=6 c=11 v=69
68708 Par ch=6 c=11 v=68
68712 Par ch=6 c=11 v=67
68716 Par ch=6 c=11 v=66
68720 Par ch=6 c=11 v=65
68724 Par ch=6 c=11 v=64
68728 On ch=6 n=69 v=0
68728 On ch=6 n=67 v=0
68728 On ch=6 n=65 v=0
68728 On ch=6 n=62 v=0
68728 Par ch=6 c=11 v=62
68732 Par ch=6 c=11 v=60
68736 Par ch=6 c=11 v=127
72960 PrCh ch=6 p=20
73728 On ch=6 n=53 v=127
73728 On ch=6 n=48 v=127
73728 On ch=6 n=41 v=127
73732 Par ch=6 c=11 v=80
73768 Pb ch=6 v=8320
73800 Pb ch=6 v=8448
73832 Par ch=6 c=11 v=81
73836 Pb ch=6 v=8576
73868 Pb ch=6 v=8704
73900 Par ch=6 c=11 v=82
73904 Pb ch=6 v=8832
73936 Pb ch=6 v=8960
73968 Par ch=6 c=11 v=83
73972 Pb ch=6 v=9088
74008 Pb ch=6 v=9216
74040 Par ch=6 c=11 v=84
74044 Pb ch=6 v=9344
74076 Pb ch=6 v=9472
74108 Par ch=6 c=11 v=85
74116 Pb ch=6 v=9600
74148 Pb ch=6 v=9728
74180 Par ch=6 c=11 v=86
74188 Pb ch=6 v=9856
74220 Pb ch=6 v=9984
74252 Par ch=6 c=11 v=87
74260 Pb ch=6 v=10112
74296 Pb ch=6 v=10240
74332 Par ch=6 c=11 v=88
74340 Pb ch=6 v=10368
74376 Pb ch=6 v=10496
74412 Par ch=6 c=11 v=89
74420 Pb ch=6 v=10624
74456 Pb ch=6 v=10752
74500 Par ch=6 c=11 v=90
74504 Pb ch=6 v=10880
74528 Pb ch=6 v=11008
74560 Par ch=6 c=11 v=91
74564 Pb ch=6 v=11136
74600 Pb ch=6 v=11264
74632 Par ch=6 c=11 v=92
74636 Pb ch=6 v=11392
74668 Pb ch=6 v=11520
74700 Par ch=6 c=11 v=93
74704 Pb ch=6 v=11648
74736 Pb ch=6 v=11776
74768 Par ch=6 c=11 v=94
74772 Pb ch=6 v=11904
74804 Pb ch=6 v=12032
74836 Par ch=6 c=11 v=95
74840 Pb ch=6 v=12192
74872 Pb ch=6 v=12288
74904 Par ch=6 c=11 v=96
74912 Pb ch=6 v=12416
74944 Pb ch=6 v=12544
74980 Par ch=6 c=11 v=97
74988 Pb ch=6 v=12672
75024 Pb ch=6 v=12800
75060 Par ch=6 c=11 v=98
75068 Pb ch=6 v=12928
75104 Pb ch=6 v=13056
75140 Par ch=6 c=11 v=99
75148 Pb ch=6 v=13184
75184 Pb ch=6 v=13312
75220 Par ch=6 c=11 v=100
75228 Pb ch=6 v=13440
75268 Par ch=6 c=11 v=101
75272 Pb ch=6 v=13568
75296 Par ch=6 c=11 v=102
75300 Pb ch=6 v=13696
75332 Par ch=6 c=11 v=103
75336 Pb ch=6 v=13824
75368 Par ch=6 c=11 v=104
75372 Pb ch=6 v=13952
75404 Par ch=6 c=11 v=105
75408 Pb ch=6 v=14080
75440 Par ch=6 c=11 v=106
75444 Pb ch=6 v=14208
75480 Par ch=6 c=11 v=107
75484 Pb ch=6 v=14336
75516 Par ch=6 c=11 v=108
75520 Pb ch=6 v=14464
75552 Par ch=6 c=11 v=109
75556 Pb ch=6 v=14592
75588 Par ch=6 c=11 v=110
75592 Pb ch=6 v=14720
75624 Par ch=6 c=11 v=111
75628 Pb ch=6 v=14892
75660 Par ch=6 c=11 v=112
75664 Pb ch=6 v=14976
75696 Par ch=6 c=11 v=113
75700 Pb ch=6 v=15104
75732 Par ch=6 c=11 v=114
75736 Pb ch=6 v=15232
75772 Par ch=6 c=11 v=115
75776 Pb ch=6 v=15360
75808 Par ch=6 c=11 v=116
75812 Pb ch=6 v=15488
75844 Par ch=6 c=11 v=117
75848 Pb ch=6 v=15616
75880 Par ch=6 c=11 v=118
75884 Pb ch=6 v=15744
75916 Par ch=6 c=11 v=119
75920 Pb ch=6 v=15872
75952 Par ch=6 c=11 v=120
75956 Pb ch=6 v=16000
75992 Pb ch=6 v=16192
76028 Pb ch=6 v=16383
76032 On ch=6 n=53 v=0
76032 On ch=6 n=48 v=0
76032 On ch=6 n=41 v=0
76032 Pb ch=6 v=8192
82944 PrCh ch=6 p=56
84092 Par ch=6 c=11 v=60
84096 On ch=6 n=81 v=100
84164 Par ch=6 c=11 v=61
84188 Par ch=6 c=11 v=62
84204 Par ch=6 c=11 v=63
84216 Par ch=6 c=11 v=64
84224 Par ch=6 c=11 v=65
84232 Par ch=6 c=11 v=66
84236 Par ch=6 c=11 v=67
84244 Par ch=6 c=11 v=68
84248 Par ch=6 c=11 v=69
84252 Par ch=6 c=11 v=71
84260 Par ch=6 c=11 v=73
84264 Par ch=6 c=11 v=75
84268 Par ch=6 c=11 v=76
84272 Par ch=6 c=11 v=78
84276 Par ch=6 c=11 v=79
84280 Par ch=6 c=11 v=82
84284 Par ch=6 c=11 v=84
84288 Par ch=6 c=11 v=86
84292 Par ch=6 c=11 v=90
84296 Par ch=6 c=11 v=92
84300 Par ch=6 c=11 v=96
84304 Par ch=6 c=11 v=99
84308 Par ch=6 c=11 v=104
84312 Par ch=6 c=11 v=108
84316 Par ch=6 c=11 v=113
84320 Par ch=6 c=11 v=120
84416 On ch=6 n=81 v=0
84416 On ch=6 n=79 v=100
84476 Par ch=6 c=11 v=120
84480 On ch=6 n=79 v=0
84480 On ch=6 n=81 v=100
84636 Par ch=6 c=11 v=119
84728 Par ch=6 c=11 v=118
84788 Par ch=6 c=11 v=117
84824 Par ch=6 c=11 v=116
84860 Par ch=6 c=11 v=115
84880 Par ch=6 c=11 v=114
84896 Par ch=6 c=11 v=113
84916 Par ch=6 c=11 v=112
84932 Par ch=6 c=11 v=111
84948 Par ch=6 c=11 v=110
84960 Par ch=6 c=11 v=109
84976 Par ch=6 c=11 v=108
84980 Par ch=6 c=11 v=107
84992 Par ch=6 c=11 v=106
85000 Par ch=6 c=11 v=105
85012 Par ch=6 c=11 v=104
85020 Par ch=6 c=11 v=103
85028 Par ch=6 c=11 v=102
85036 Par ch=6 c=11 v=101
85040 Par ch=6 c=11 v=100
85048 Par ch=6 c=11 v=99
85056 Par ch=6 c=11 v=98
85060 Par ch=6 c=11 v=97
85068 Par ch=6 c=11 v=96
85072 Par ch=6 c=11 v=95
85076 Par ch=6 c=11 v=94
85080 Par ch=6 c=11 v=93
85088 Par ch=6 c=11 v=92
85092 Par ch=6 c=11 v=91
85096 Par ch=6 c=11 v=90
85104 Par ch=6 c=11 v=88
85108 Par ch=6 c=11 v=87
85116 Par ch=6 c=11 v=85
85120 Par ch=6 c=11 v=84
85124 Par ch=6 c=11 v=82
85128 Par ch=6 c=11 v=81
85132 Par ch=6 c=11 v=80
85136 Par ch=6 c=11 v=79
85140 Par ch=6 c=11 v=78
85144 Par ch=6 c=11 v=77
85148 Par ch=6 c=11 v=75
85152 Par ch=6 c=11 v=74
85156 Par ch=6 c=11 v=73
85160 Par ch=6 c=11 v=71
85164 Par ch=6 c=11 v=70
85168 Par ch=6 c=11 v=68
85172 Par ch=6 c=11 v=66
85176 Par ch=6 c=11 v=65
85180 Par ch=6 c=11 v=64
85184 Par ch=6 c=11 v=61
85188 Par ch=6 c=11 v=60
85192 Par ch=6 c=11 v=58
85196 Par ch=6 c=11 v=56
85200 Par ch=6 c=11 v=54
85204 Par ch=6 c=11 v=53
85208 Par ch=6 c=11 v=50
85212 Par ch=6 c=11 v=48
85216 Par ch=6 c=11 v=47
85220 Par ch=6 c=11 v=44
85224 Par ch=6 c=11 v=42
85228 Par ch=6 c=11 v=40
85232 Par ch=6 c=11 v=36
85236 Par ch=6 c=11 v=34
85240 Par ch=6 c=11 v=30
85244 Par ch=6 c=11 v=100
85248 On ch=6 n=81 v=0
85248 Meta TrkEnd
TrkEnd
MTrk
0 Meta TrkName "RHYTHM OF LOVE  "
192 Par ch=7 c=121 v=0
196 Par ch=7 c=100 v=0
200 Par ch=7 c=101 v=0
204 Par ch=7 c=6 v=12
208 Par ch=7 c=7 v=97
212 Par ch=7 c=11 v=100
216 Par ch=7 c=10 v=50
384 Par ch=7 c=0 v=0
388 Par ch=7 c=32 v=0
392 PrCh ch=7 p=49
396 Par ch=7 c=91 v=100
400 Par ch=7 c=127 v=0
768 Par ch=7 c=11 v=0
772 On ch=7 n=83 v=80
772 On ch=7 n=71 v=80
772 On ch=7 n=66 v=70
772 On ch=7 n=62 v=60
772 On ch=7 n=59 v=50
772 On ch=7 n=42 v=50
780 Par ch=7 c=11 v=1
792 Par ch=7 c=11 v=2
800 Par ch=7 c=11 v=3
812 Par ch=7 c=11 v=4
824 Par ch=7 c=11 v=5
832 Par ch=7 c=11 v=6
844 Par ch=7 c=11 v=7
856 Par ch=7 c=11 v=8
864 Par ch=7 c=11 v=9
876 Par ch=7 c=11 v=10
888 Par ch=7 c=11 v=11
896 Par ch=7 c=11 v=12
908 Par ch=7 c=11 v=13
920 Par ch=7 c=11 v=14
928 Par ch=7 c=11 v=15
940 Par ch=7 c=11 v=16
952 Par ch=7 c=11 v=17
960 Par ch=7 c=11 v=18
972 Par ch=7 c=11 v=19
984 Par ch=7 c=11 v=20
992 Par ch=7 c=11 v=21
1004 Par ch=7 c=11 v=22
1016 Par ch=7 c=11 v=23
1024 Par ch=7 c=11 v=24
1036 Par ch=7 c=11 v=25
1048 Par ch=7 c=11 v=26
1056 Par ch=7 c=11 v=27
1068 Par ch=7 c=11 v=28
1080 Par ch=7 c=11 v=29
1088 Par ch=7 c=11 v=30
1100 Par ch=7 c=11 v=31
1112 Par ch=7 c=11 v=32
1120 Par ch=7 c=11 v=33
1132 Par ch=7 c=11 v=34
1144 Par ch=7 c=11 v=35
1152 Par ch=7 c=11 v=36
1164 Par ch=7 c=11 v=37
1176 Par ch=7 c=11 v=38
1184 Par ch=7 c=11 v=39
1196 Par ch=7 c=11 v=40
1208 Par ch=7 c=11 v=41
1216 Par ch=7 c=11 v=42
1228 Par ch=7 c=11 v=43
1240 Par ch=7 c=11 v=44
1248 Par ch=7 c=11 v=45
1260 Par ch=7 c=11 v=46
1272 Par ch=7 c=11 v=47
1280 Par ch=7 c=11 v=48
1292 Par ch=7 c=11 v=49
1304 Par ch=7 c=11 v=50
1312 Par ch=7 c=11 v=51
1324 Par ch=7 c=11 v=52
1336 Par ch=7 c=11 v=53
1344 Par ch=7 c=11 v=54
1356 Par ch=7 c=11 v=55
1368 Par ch=7 c=11 v=56
1376 Par ch=7 c=11 v=57
1388 Par ch=7 c=11 v=58
1400 Par ch=7 c=11 v=59
1408 Par ch=7 c=11 v=60
1420 Par ch=7 c=11 v=61
1432 Par ch=7 c=11 v=62
1440 Par ch=7 c=11 v=63
1452 Par ch=7 c=11 v=64
1464 Par ch=7 c=11 v=65
1472 Par ch=7 c=11 v=66
1484 Par ch=7 c=11 v=67
1496 Par ch=7 c=11 v=68
1504 Par ch=7 c=11 v=69
1516 Par ch=7 c=11 v=70
1528 Par ch=7 c=11 v=71
1540 Par ch=7 c=11 v=72
1548 Par ch=7 c=11 v=73
1560 Par ch=7 c=11 v=74
1568 Par ch=7 c=11 v=75
1580 Par ch=7 c=11 v=76
1592 Par ch=7 c=11 v=77
1600 Par ch=7 c=11 v=78
1612 Par ch=7 c=11 v=79
1624 Par ch=7 c=11 v=80
1632 Par ch=7 c=11 v=81
1644 Par ch=7 c=11 v=82
1656 Par ch=7 c=11 v=83
1664 Par ch=7 c=11 v=84
1676 Par ch=7 c=11 v=85
1688 Par ch=7 c=11 v=86
1696 Par ch=7 c=11 v=87
1708 Par ch=7 c=11 v=88
1720 Par ch=7 c=11 v=89
1728 Par ch=7 c=11 v=90
1740 Par ch=7 c=11 v=91
1752 Par ch=7 c=11 v=92
1760 Par ch=7 c=11 v=93
1772 Par ch=7 c=11 v=94
1784 Par ch=7 c=11 v=95
1792 Par ch=7 c=11 v=96
1804 Par ch=7 c=11 v=97
1816 Par ch=7 c=11 v=98
1824 Par ch=7 c=11 v=99
1836 Par ch=7 c=11 v=100
1848 Par ch=7 c=11 v=101
1856 Par ch=7 c=11 v=102
1868 Par ch=7 c=11 v=103
1880 Par ch=7 c=11 v=104
1888 Par ch=7 c=11 v=105
1900 Par ch=7 c=11 v=106
1912 Par ch=7 c=11 v=107
1920 Par ch=7 c=11 v=108
1932 Par ch=7 c=11 v=109
1944 Par ch=7 c=11 v=110
1952 Par ch=7 c=11 v=111
1964 Par ch=7 c=11 v=112
1976 Par ch=7 c=11 v=113
1984 Par ch=7 c=11 v=114
1996 Par ch=7 c=11 v=115
2008 Par ch=7 c=11 v=116
2016 Par ch=7 c=11 v=117
2028 Par ch=7 c=11 v=118
2040 Par ch=7 c=11 v=119
2048 Par ch=7 c=11 v=120
2180 Par ch=7 c=11 v=119
2200 Par ch=7 c=11 v=118
2216 Par ch=7 c=11 v=117
2224 Par ch=7 c=11 v=116
2232 Par ch=7 c=11 v=115
2240 Par ch=7 c=11 v=114
2244 Par ch=7 c=11 v=113
2248 Par ch=7 c=11 v=112
2252 Par ch=7 c=11 v=111
2256 Par ch=7 c=11 v=110
2260 Par ch=7 c=11 v=108
2264 Par ch=7 c=11 v=107
2268 Par ch=7 c=11 v=105
2272 Par ch=7 c=11 v=103
2276 Par ch=7 c=11 v=101
2280 Par ch=7 c=11 v=99
2284 Par ch=7 c=11 v=96
2288 Par ch=7 c=11 v=93
2292 Par ch=7 c=11 v=89
2296 Par ch=7 c=11 v=85
2300 Par ch=7 c=11 v=80
2304 On ch=7 n=81 v=80
2304 On ch=7 n=69 v=80
2304 On ch=7 n=57 v=50
2308 On ch=7 n=83 v=0
2308 On ch=7 n=71 v=0
2308 On ch=7 n=59 v=0
2324 Par ch=7 c=11 v=81
2340 Par ch=7 c=11 v=82
2360 Par ch=7 c=11 v=83
2376 Par ch=7 c=11 v=84
2392 Par ch=7 c=11 v=85
2412 Par ch=7 c=11 v=86
2428 Par ch=7 c=11 v=87
2448 Par ch=7 c=11 v=88
2464 Par ch=7 c=11 v=89
2480 Par ch=7 c=11 v=90
2500 Par ch=7 c=11 v=91
2516 Par ch=7 c=11 v=92
2536 Par ch=7 c=11 v=93
2552 Par ch=7 c=11 v=94
2568 Par ch=7 c=11 v=95
2588 Par ch=7 c=11 v=96
2604 Par ch=7 c=11 v=97
2624 Par ch=7 c=11 v=98
2640 Par ch=7 c=11 v=99
2656 Par ch=7 c=11 v=100
2676 Par ch=7 c=11 v=101
2692 Par ch=7 c=11 v=102
2712 Par ch=7 c=11 v=103
2728 Par ch=7 c=11 v=104
2744 Par ch=7 c=11 v=105
2764 Par ch=7 c=11 v=106
2780 Par ch=7 c=11 v=107
2800 Par ch=7 c=11 v=108
2816 Par ch=7 c=11 v=109
2832 Par ch=7 c=11 v=110
3112 Par ch=7 c=11 v=109
3148 Par ch=7 c=11 v=108
3188 Par ch=7 c=11 v=107
3224 Par ch=7 c=11 v=106
3264 Par ch=7 c=11 v=105
3300 Par ch=7 c=11 v=104
3340 Par ch=7 c=11 v=103
3376 Par ch=7 c=11 v=102
3416 Par ch=7 c=11 v=101
3452 Par ch=7 c=11 v=100
3456 Par ch=7 c=11 v=80
3460 On ch=7 n=81 v=0
3460 On ch=7 n=69 v=0
3460 On ch=7 n=66 v=0
3460 On ch=7 n=62 v=0
3460 On ch=7 n=57 v=0
3460 On ch=7 n=42 v=0
3460 On ch=7 n=83 v=80
3460 On ch=7 n=71 v=80
3460 On ch=7 n=64 v=80
3460 On ch=7 n=61 v=60
3460 On ch=7 n=49 v=50
3460 On ch=7 n=45 v=30
3460 On ch=7 n=40 v=40
3468 Par ch=7 c=11 v=81
3476 Par ch=7 c=11 v=82
3488 Par ch=7 c=11 v=83
3496 Par ch=7 c=11 v=84
3504 Par ch=7 c=11 v=85
3516 Par ch=7 c=11 v=86
3524 Par ch=7 c=11 v=87
3532 Par ch=7 c=11 v=88
3544 Par ch=7 c=11 v=89
3552 Par ch=7 c=11 v=90
3560 Par ch=7 c=11 v=91
3572 Par ch=7 c=11 v=92
3580 Par ch=7 c=11 v=93
3588 Par ch=7 c=11 v=94
3600 Par ch=7 c=11 v=95
3608 Par ch=7 c=11 v=96
3616 Par ch=7 c=11 v=97
3628 Par ch=7 c=11 v=98
3636 Par ch=7 c=11 v=99
3644 Par ch=7 c=11 v=100
3840 On ch=7 n=81 v=80
3840 On ch=7 n=69 v=80
3844 On ch=7 n=83 v=0
3844 On ch=7 n=71 v=0
3852 Par ch=7 c=11 v=81
3860 Par ch=7 c=11 v=82
3872 Par ch=7 c=11 v=83
3880 Par ch=7 c=11 v=84
3888 Par ch=7 c=11 v=85
3900 Par ch=7 c=11 v=86
3908 Par ch=7 c=11 v=87
3920 Par ch=7 c=11 v=88
3928 Par ch=7 c=11 v=89
3936 Par ch=7 c=11 v=90
3948 Par ch=7 c=11 v=91
3956 Par ch=7 c=11 v=92
3968 Par ch=7 c=11 v=93
3976 Par ch=7 c=11 v=94
3984 Par ch=7 c=11 v=95
3996 Par ch=7 c=11 v=96
4004 Par ch=7 c=11 v=97
4016 Par ch=7 c=11 v=98
4024 Par ch=7 c=11 v=99
4032 Par ch=7 c=11 v=100
4044 Par ch=7 c=11 v=101
4052 Par ch=7 c=11 v=102
4064 Par ch=7 c=11 v=103
4072 Par ch=7 c=11 v=104
4080 Par ch=7 c=11 v=105
4092 Par ch=7 c=11 v=106
4100 Par ch=7 c=11 v=107
4112 Par ch=7 c=11 v=108
4120 Par ch=7 c=11 v=109
4128 Par ch=7 c=11 v=110
4140 Par ch=7 c=11 v=111
4148 Par ch=7 c=11 v=112
4160 Par ch=7 c=11 v=113
4168 Par ch=7 c=11 v=114
4176 Par ch=7 c=11 v=115
4188 Par ch=7 c=11 v=116
4196 Par ch=7 c=11 v=117
4208 Par ch=7 c=11 v=118
4216 Par ch=7 c=11 v=119
4360 Par ch=7 c=11 v=118
4408 Par ch=7 c=11 v=117
4432 Par ch=7 c=11 v=116
4452 Par ch=7 c=11 v=115
4468 Par ch=7 c=11 v=114
4480 Par ch=7 c=11 v=113
4488 Par ch=7 c=11 v=112
4500 Par ch=7 c=11 v=111
4508 Par ch=7 c=11 v=110
4512 Par ch=7 c=11 v=109
4520 Par ch=7 c=11 v=108
4524 Par ch=7 c=11 v=107
4532 Par ch=7 c=11 v=106
4536 Par ch=7 c=11 v=105
4544 Par ch=7 c=11 v=104
4548 Par ch=7 c=11 v=102
4556 Par ch=7 c=11 v=100
4560 Par ch=7 c=11 v=99
4564 Par ch=7 c=11 v=98
4568 Par ch=7 c=11 v=97
4572 Par ch=7 c=11 v=95
4576 Par ch=7 c=11 v=94
4580 Par ch=7 c=11 v=93
4584 Par ch=7 c=11 v=91
4588 Par ch=7 c=11 v=89
4592 Par ch=7 c=11 v=88
4596 Par ch=7 c=11 v=85
4600 Par ch=7 c=11 v=83
4604 Par ch=7 c=11 v=80
4608 On ch=7 n=83 v=75
4608 On ch=7 n=71 v=75
4608 On ch=7 n=66 v=75
4608 On ch=7 n=62 v=35
4608 On ch=7 n=50 v=35
4608 On ch=7 n=47 v=30
4612 On ch=7 n=81 v=0
4612 On ch=7 n=69 v=0
4616 On ch=7 n=64 v=0
4616 On ch=7 n=61 v=0
4616 On ch=7 n=49 v=0
4616 On ch=7 n=45 v=0
4616 On ch=7 n=40 v=0
4632 Par ch=7 c=11 v=81
4656 Par ch=7 c=11 v=82
4680 Par ch=7 c=11 v=83
4704 Par ch=7 c=11 v=84
4728 Par ch=7 c=11 v=85
4752 Par ch=7 c=11 v=86
4776 Par ch=7 c=11 v=87
4800 Par ch=7 c=11 v=88
4824 Par ch=7 c=11 v=89
4832 On ch=7 n=83 v=0
4832 On ch=7 n=71 v=0
4832 On ch=7 n=81 v=75
4832 On ch=7 n=69 v=75
4848 Par ch=7 c=11 v=90
4872 Par ch=7 c=11 v=91
4896 Par ch=7 c=11 v=92
4920 Par ch=7 c=11 v=93
4944 Par ch=7 c=11 v=94
4968 Par ch=7 c=11 v=95
4992 Par ch=7 c=11 v=96
5016 Par ch=7 c=11 v=97
5040 Par ch=7 c=11 v=98
5064 Par ch=7 c=11 v=99
5088 Par ch=7 c=11 v=100
5112 Par ch=7 c=11 v=101
5136 Par ch=7 c=11 v=102
5160 Par ch=7 c=11 v=103
5184 Par ch=7 c=11 v=104
5208 Par ch=7 c=11 v=105
5232 Par ch=7 c=11 v=106
5256 Par ch=7 c=11 v=107
5280 Par ch=7 c=11 v=108
5304 Par ch=7 c=11 v=109
5328 Par ch=7 c=11 v=110
5352 Par ch=7 c=11 v=111
5380 Par ch=7 c=11 v=112
5400 Par ch=7 c=11 v=113
5424 Par ch=7 c=11 v=114
5448 Par ch=7 c=11 v=115
5472 Par ch=7 c=11 v=116
5496 Par ch=7 c=11 v=117
5520 Par ch=7 c=11 v=118
5544 Par ch=7 c=11 v=119
5568 Par ch=7 c=11 v=120
5760 Par ch=7 c=11 v=90
5764 On ch=7 n=81 v=0
5764 On ch=7 n=69 v=0
5764 On ch=7 n=66 v=0
5764 On ch=7 n=62 v=0
5764 On ch=7 n=50 v=0
5764 On ch=7 n=47 v=0
5764 On ch=7 n=83 v=80
5764 On ch=7 n=71 v=80
5764 On ch=7 n=64 v=80
5764 On ch=7 n=61 v=80
5764 On ch=7 n=52 v=50
5764 On ch=7 n=40 v=50
5772 Par ch=7 c=11 v=91
5784 Par ch=7 c=11 v=92
5796 Par ch=7 c=11 v=93
5804 Par ch=7 c=11 v=94
5816 Par ch=7 c=11 v=95
5828 Par ch=7 c=11 v=96
5836 Par ch=7 c=11 v=97
5848 Par ch=7 c=11 v=98
5860 Par ch=7 c=11 v=99
5868 Par ch=7 c=11 v=100
5880 Par ch=7 c=11 v=101
5892 Par ch=7 c=11 v=102
5904 Par ch=7 c=11 v=103
5912 Par ch=7 c=11 v=104
5924 Par ch=7 c=11 v=105
5936 Par ch=7 c=11 v=106
5944 Par ch=7 c=11 v=107
5956 Par ch=7 c=11 v=108
5968 Par ch=7 c=11 v=109
5976 Par ch=7 c=11 v=110
5996 Par ch=7 c=11 v=109
6008 Par ch=7 c=11 v=108
6020 Par ch=7 c=11 v=107
6036 Par ch=7 c=11 v=106
6048 Par ch=7 c=11 v=105
6060 Par ch=7 c=11 v=104
6072 Par ch=7 c=11 v=103
6088 Par ch=7 c=11 v=102
6100 Par ch=7 c=11 v=101
6112 Par ch=7 c=11 v=100
6124 Par ch=7 c=11 v=99
6140 Par ch=7 c=11 v=98
6152 Par ch=7 c=11 v=97
6164 Par ch=7 c=11 v=96
6176 Par ch=7 c=11 v=95
6180 On ch=7 n=81 v=80
6180 On ch=7 n=69 v=80
6212 On ch=7 n=83 v=0
6212 On ch=7 n=71 v=0
6216 Par ch=7 c=11 v=91
6252 Par ch=7 c=11 v=92
6284 Par ch=7 c=11 v=93
6320 Par ch=7 c=11 v=94
6352 Par ch=7 c=11 v=95
6388 Par ch=7 c=11 v=96
6424 Par ch=7 c=11 v=97
6456 Par ch=7 c=11 v=98
6492 Par ch=7 c=11 v=99
6524 Par ch=7 c=11 v=100
6540 Par ch=7 c=11 v=99
6548 Par ch=7 c=11 v=98
6556 On ch=7 n=52 v=0
6556 On ch=7 n=40 v=0
6560 Par ch=7 c=11 v=97
6568 Par ch=7 c=11 v=96
6576 Par ch=7 c=11 v=95
6588 Par ch=7 c=11 v=94
6596 Par ch=7 c=11 v=93
6608 Par ch=7 c=11 v=92
6616 Par ch=7 c=11 v=91
6624 Par ch=7 c=11 v=90
6636 Par ch=7 c=11 v=89
6644 Par ch=7 c=11 v=88
6656 Par ch=7 c=11 v=87
6664 Par ch=7 c=11 v=86
6672 Par ch=7 c=11 v=85
6684 Par ch=7 c=11 v=84
6692 Par ch=7 c=11 v=83
6704 Par ch=7 c=11 v=82
6712 Par ch=7 c=11 v=81
6720 Par ch=7 c=11 v=80
6732 Par ch=7 c=11 v=79
6740 Par ch=7 c=11 v=78
6748 Par ch=7 c=11 v=77
6760 Par ch=7 c=11 v=76
6768 Par ch=7 c=11 v=75
6780 Par ch=7 c=11 v=74
6788 Par ch=7 c=11 v=73
6796 Par ch=7 c=11 v=72
6808 Par ch=7 c=11 v=71
6816 Par ch=7 c=11 v=70
6828 Par ch=7 c=11 v=69
6836 Par ch=7 c=11 v=68
6844 Par ch=7 c=11 v=67
6856 Par ch=7 c=11 v=66
6864 Par ch=7 c=11 v=65
6876 Par ch=7 c=11 v=64
6884 Par ch=7 c=11 v=63
6892 Par ch=7 c=11 v=62
6904 Par ch=7 c=11 v=61
6916 Par ch=7 c=11 v=60
6920 Par ch=7 c=11 v=59
6932 Par ch=7 c=11 v=58
6940 Par ch=7 c=11 v=57
6952 Par ch=7 c=11 v=56
6960 Par ch=7 c=11 v=55
6968 Par ch=7 c=11 v=54
6980 Par ch=7 c=11 v=53
6988 Par ch=7 c=11 v=52
7000 Par ch=7 c=11 v=51
7008 Par ch=7 c=11 v=50
7016 Par ch=7 c=11 v=49
7028 Par ch=7 c=11 v=48
7036 Par ch=7 c=11 v=47
7048 Par ch=7 c=11 v=46
7056 Par ch=7 c=11 v=45
7064 Par ch=7 c=11 v=44
7076 Par ch=7 c=11 v=43
7084 Par ch=7 c=11 v=42
7096 Par ch=7 c=11 v=41
7104 Par ch=7 c=11 v=40
7112 Par ch=7 c=11 v=39
7124 Par ch=7 c=11 v=38
7132 Par ch=7 c=11 v=37
7140 Par ch=7 c=11 v=36
7152 Par ch=7 c=11 v=35
7160 Par ch=7 c=11 v=34
7172 Par ch=7 c=11 v=33
7180 Par ch=7 c=11 v=32
7188 Par ch=7 c=11 v=31
7200 Par ch=7 c=11 v=30
7208 Par ch=7 c=11 v=29
7220 Par ch=7 c=11 v=28
7228 Par ch=7 c=11 v=27
7236 Par ch=7 c=11 v=26
7248 Par ch=7 c=11 v=25
7256 Par ch=7 c=11 v=24
7268 Par ch=7 c=11 v=23
7276 Par ch=7 c=11 v=22
7284 Par ch=7 c=11 v=21
7296 Par ch=7 c=11 v=20
7304 Par ch=7 c=11 v=19
7312 Par ch=7 c=11 v=18
7324 Par ch=7 c=11 v=17
7332 Par ch=7 c=11 v=16
7344 Par ch=7 c=11 v=15
7352 Par ch=7 c=11 v=14
7360 Par ch=7 c=11 v=13
7372 Par ch=7 c=11 v=12
7380 Par ch=7 c=11 v=11
7392 Par ch=7 c=11 v=10
7400 Par ch=7 c=11 v=9
7408 Par ch=7 c=11 v=8
7420 Par ch=7 c=11 v=7
7428 Par ch=7 c=11 v=6
7440 Par ch=7 c=11 v=5
7448 Par ch=7 c=11 v=4
7456 Par ch=7 c=11 v=3
7468 Par ch=7 c=11 v=2
7476 Par ch=7 c=11 v=1
7484 Par ch=7 c=11 v=0
7488 On ch=7 n=81 v=0
7488 On ch=7 n=69 v=0
7488 On ch=7 n=64 v=0
7488 On ch=7 n=61 v=0
7676 Par ch=7 c=11 v=127
17664 Par ch=7 c=91 v=110
17856 Par ch=7 c=0 v=0
18048 PrCh ch=7 p=55
19104 On ch=7 n=74 v=127
19104 On ch=7 n=62 v=127
19104 On ch=7 n=50 v=127
19192 On ch=7 n=74 v=0
19192 On ch=7 n=62 v=0
19192 On ch=7 n=50 v=0
19200 Par ch=7 c=7 v=120
20736 Par ch=7 c=91 v=100
20928 Par ch=7 c=0 v=0
21120 PrCh ch=7 p=18
22176 On ch=7 n=69 v=90
22176 On ch=7 n=67 v=90
22176 On ch=7 n=62 v=90
22192 Par ch=7 c=11 v=81
22204 Par ch=7 c=11 v=82
22220 Par ch=7 c=11 v=83
22232 Par ch=7 c=11 v=84
22244 Par ch=7 c=11 v=85
22260 Par ch=7 c=11 v=86
22276 Par ch=7 c=11 v=87
22284 Par ch=7 c=11 v=88
22296 Par ch=7 c=11 v=89
22308 Par ch=7 c=11 v=90
22316 Par ch=7 c=11 v=91
22328 Par ch=7 c=11 v=92
22344 Par ch=7 c=11 v=93
22356 Par ch=7 c=11 v=94
22368 Par ch=7 c=11 v=95
22380 Par ch=7 c=11 v=96
22388 Par ch=7 c=11 v=97
22400 Par ch=7 c=11 v=98
22408 Par ch=7 c=11 v=99
22416 Par ch=7 c=11 v=100
22424 Par ch=7 c=11 v=99
22432 Par ch=7 c=11 v=98
22444 Par ch=7 c=11 v=97
22456 Par ch=7 c=11 v=96
22468 Par ch=7 c=11 v=95
22480 Par ch=7 c=11 v=94
22492 Par ch=7 c=11 v=93
22500 Par ch=7 c=11 v=92
22508 Par ch=7 c=11 v=91
22512 On ch=7 n=69 v=0
22512 On ch=7 n=67 v=0
22512 On ch=7 n=62 v=0
22516 Par ch=7 c=11 v=90
23036 Par ch=7 c=11 v=60
23328 On ch=7 n=81 v=70
23328 On ch=7 n=79 v=70
23336 Par ch=7 c=11 v=61
23340 Par ch=7 c=11 v=62
23344 Par ch=7 c=11 v=63
23348 Par ch=7 c=11 v=64
23352 Par ch=7 c=11 v=65
23360 Par ch=7 c=11 v=66
23364 Par ch=7 c=11 v=67
23368 Par ch=7 c=11 v=68
23372 Par ch=7 c=11 v=69
23376 Par ch=7 c=11 v=70
23380 Par ch=7 c=11 v=71
23388 Par ch=7 c=11 v=72
23392 Par ch=7 c=11 v=73
23396 Par ch=7 c=11 v=74
23400 Par ch=7 c=11 v=75
23404 Par ch=7 c=11 v=76
23408 Par ch=7 c=11 v=77
23416 Par ch=7 c=11 v=78
23420 Par ch=7 c=11 v=79
23424 Par ch=7 c=11 v=80
23428 Par ch=7 c=11 v=81
23432 Par ch=7 c=11 v=82
23440 Par ch=7 c=11 v=83
23444 Par ch=7 c=11 v=84
23448 Par ch=7 c=11 v=85
23452 Par ch=7 c=11 v=86
23456 Par ch=7 c=11 v=87
23460 Par ch=7 c=11 v=88
23468 Par ch=7 c=11 v=89
23472 Par ch=7 c=11 v=90
23476 Par ch=7 c=11 v=91
23480 Par ch=7 c=11 v=92
23484 Par ch=7 c=11 v=93
23488 Par ch=7 c=11 v=94
23496 Par ch=7 c=11 v=95
23500 Par ch=7 c=11 v=96
23504 Par ch=7 c=11 v=97
23508 Par ch=7 c=11 v=98
23512 Par ch=7 c=11 v=99
23516 Par ch=7 c=11 v=100
23520 On ch=7 n=69 v=70
23524 On ch=7 n=81 v=0
23524 On ch=7 n=79 v=0
23596 Par ch=7 c=11 v=99
23620 Par ch=7 c=11 v=98
23632 Par ch=7 c=11 v=97
23644 Par ch=7 c=11 v=96
23648 Par ch=7 c=11 v=95
23652 Par ch=7 c=11 v=94
23656 Par ch=7 c=11 v=93
23660 Par ch=7 c=11 v=92
23664 Par ch=7 c=11 v=91
23668 Par ch=7 c=11 v=90
23672 Par ch=7 c=11 v=89
23676 Par ch=7 c=11 v=88
23680 Par ch=7 c=11 v=86
23684 Par ch=7 c=11 v=84
23688 Par ch=7 c=11 v=82
23692 Par ch=7 c=11 v=80
23696 Par ch=7 c=11 v=77
23700 Par ch=7 c=11 v=74
23704 Par ch=7 c=11 v=70
23708 Par ch=7 c=1 v=60
23712 On ch=7 n=84 v=100
23712 On ch=7 n=81 v=100
23712 On ch=7 n=79 v=100
23716 On ch=7 n=69 v=0
24068 Par ch=7 c=11 v=69
24088 Par ch=7 c=11 v=68
24104 Par ch=7 c=11 v=67
24112 Par ch=7 c=11 v=66
24120 Par ch=7 c=11 v=65
24128 Par ch=7 c=11 v=64
24132 Par ch=7 c=11 v=63
24136 Par ch=7 c=11 v=62
24140 Par ch=7 c=11 v=61
24144 Par ch=7 c=11 v=60
24148 Par ch=7 c=11 v=58
24152 Par ch=7 c=11 v=57
24156 Par ch=7 c=11 v=55
24160 Par ch=7 c=11 v=53
24164 Par ch=7 c=11 v=51
24168 Par ch=7 c=11 v=49
24172 Par ch=7 c=11 v=46
24176 Par ch=7 c=11 v=43
24180 Par ch=7 c=11 v=39
24184 Par ch=7 c=11 v=35
24188 Par ch=7 c=11 v=30
24192 On ch=7 n=84 v=0
24192 On ch=7 n=81 v=0
24192 On ch=7 n=79 v=0
24568 Par ch=7 c=11 v=40
24572 Par ch=7 c=1 v=0
28272 On ch=7 n=81 v=100
28272 On ch=7 n=79 v=100
28272 On ch=7 n=74 v=100
28280 Par ch=7 c=11 v=41
28284 Par ch=7 c=11 v=42
28288 Par ch=7 c=11 v=43
28292 Par ch=7 c=11 v=44
28296 Par ch=7 c=11 v=45
28300 Par ch=7 c=11 v=46
28308 Par ch=7 c=11 v=47
28312 Par ch=7 c=11 v=48
28316 Par ch=7 c=11 v=49
28320 Par ch=7 c=11 v=50
28324 Par ch=7 c=11 v=51
28328 Par ch=7 c=11 v=52
28336 Par ch=7 c=11 v=53
28340 Par ch=7 c=11 v=54
28344 Par ch=7 c=11 v=55
28348 Par ch=7 c=11 v=56
28352 Par ch=7 c=11 v=57
28356 Par ch=7 c=11 v=58
28364 Par ch=7 c=11 v=59
28368 Par ch=7 c=11 v=60
28372 Par ch=7 c=11 v=61
28376 Par ch=7 c=11 v=62
28380 Par ch=7 c=11 v=63
28384 Par ch=7 c=11 v=64
28392 Par ch=7 c=11 v=65
28396 Par ch=7 c=11 v=66
28400 Par ch=7 c=11 v=67
28404 Par ch=7 c=11 v=68
28408 Par ch=7 c=11 v=69
28412 Par ch=7 c=11 v=70
28528 Par ch=7 c=11 v=69
28556 Par ch=7 c=11 v=68
28576 Par ch=7 c=11 v=67
28588 Par ch=7 c=11 v=66
28596 Par ch=7 c=11 v=65
28604 Par ch=7 c=11 v=64
28608 Par ch=7 c=11 v=63
28616 Par ch=7 c=11 v=62
28620 Par ch=7 c=11 v=61
28624 Par ch=7 c=11 v=60
28628 Par ch=7 c=11 v=59
28632 Par ch=7 c=11 v=58
28636 Par ch=7 c=11 v=57
28640 Par ch=7 c=11 v=56
28644 Par ch=7 c=11 v=54
28648 Par ch=7 c=11 v=53
28652 Par ch=7 c=11 v=50
28656 On ch=7 n=81 v=0
28656 On ch=7 n=79 v=0
28656 On ch=7 n=74 v=0
29180 Par ch=7 c=11 v=30
29376 On ch=7 n=81 v=100
29376 On ch=7 n=79 v=100
29392 Par ch=7 c=11 v=31
29404 Par ch=7 c=11 v=32
29416 Par ch=7 c=11 v=33
29428 Par ch=7 c=11 v=34
29440 Par ch=7 c=11 v=35
29452 Par ch=7 c=11 v=36
29468 Par ch=7 c=11 v=37
29480 Par ch=7 c=11 v=38
29492 Par ch=7 c=11 v=39
29504 Par ch=7 c=11 v=40
29516 Par ch=7 c=11 v=41
29528 Par ch=7 c=11 v=42
29544 Par ch=7 c=11 v=43
29556 Par ch=7 c=11 v=44
29568 Par ch=7 c=11 v=45
29580 Par ch=7 c=11 v=46
29592 Par ch=7 c=11 v=47
29604 Par ch=7 c=11 v=48
29620 Par ch=7 c=11 v=49
29632 Par ch=7 c=11 v=50
29644 Par ch=7 c=11 v=51
29656 Par ch=7 c=11 v=52
29668 Par ch=7 c=11 v=53
29680 Par ch=7 c=11 v=54
29696 Par ch=7 c=11 v=55
29708 Par ch=7 c=11 v=56
29720 Par ch=7 c=11 v=57
29732 Par ch=7 c=11 v=58
29744 Par ch=7 c=11 v=59
29756 Par ch=7 c=11 v=60
29760 On ch=7 n=81 v=0
29760 On ch=7 n=79 v=0
29760 On ch=7 n=74 v=100
29948 Par ch=7 c=1 v=80
29952 On ch=7 n=74 v=0
29952 On ch=7 n=79 v=100
29952 On ch=7 n=74 v=100
29952 On ch=7 n=67 v=100
29972 Par ch=7 c=11 v=61
29992 Par ch=7 c=11 v=62
30012 Par ch=7 c=11 v=63
30032 Par ch=7 c=11 v=64
30048 Par ch=7 c=11 v=65
30068 Par ch=7 c=11 v=66
30088 Par ch=7 c=11 v=67
30108 Par ch=7 c=11 v=68
30124 Par ch=7 c=11 v=69
30144 Par ch=7 c=11 v=70
30164 Par ch=7 c=11 v=71
30184 Par ch=7 c=11 v=72
30204 Par ch=7 c=11 v=73
30220 Par ch=7 c=11 v=74
30240 Par ch=7 c=11 v=75
30260 Par ch=7 c=11 v=76
30280 Par ch=7 c=11 v=77
30296 Par ch=7 c=11 v=78
30316 Par ch=7 c=11 v=79
30336 Par ch=7 c=11 v=80
30356 Par ch=7 c=11 v=81
30376 Par ch=7 c=11 v=82
30392 Par ch=7 c=11 v=83
30412 Par ch=7 c=11 v=84
30432 Par ch=7 c=11 v=85
30452 Par ch=7 c=11 v=86
30468 Par ch=7 c=11 v=87
30488 Par ch=7 c=11 v=88
30508 Par ch=7 c=11 v=89
30528 Par ch=7 c=11 v=90
30548 Par ch=7 c=11 v=91
30564 Par ch=7 c=11 v=92
30584 Par ch=7 c=11 v=93
30604 Par ch=7 c=11 v=94
30624 Par ch=7 c=11 v=95
30640 Par ch=7 c=11 v=96
30660 Par ch=7 c=11 v=97
30680 Par ch=7 c=11 v=98
30700 Par ch=7 c=11 v=99
30716 Par ch=7 c=11 v=100
30748 Par ch=7 c=11 v=99
30772 Par ch=7 c=11 v=98
30800 Par ch=7 c=11 v=97
30824 Par ch=7 c=11 v=96
30848 Par ch=7 c=11 v=95
30876 Par ch=7 c=11 v=94
30900 Par ch=7 c=11 v=93
30924 Par ch=7 c=11 v=92
30952 Par ch=7 c=11 v=91
30976 Par ch=7 c=11 v=90
31004 Par ch=7 c=11 v=89
31028 Par ch=7 c=11 v=88
31052 Par ch=7 c=11 v=87
31080 Par ch=7 c=11 v=86
31104 Par ch=7 c=11 v=85
31128 Par ch=7 c=11 v=84
31156 Par ch=7 c=11 v=83
31180 Par ch=7 c=11 v=82
31204 Par ch=7 c=11 v=81
31232 Par ch=7 c=11 v=80
31256 Par ch=7 c=11 v=79
31284 Par ch=7 c=11 v=78
31308 Par ch=7 c=11 v=77
31332 Par ch=7 c=11 v=76
31360 Par ch=7 c=11 v=75
31384 Par ch=7 c=11 v=74
31408 Par ch=7 c=11 v=73
31436 Par ch=7 c=11 v=72
31456 Par ch=7 c=11 v=71
31464 On ch=7 n=79 v=0
31464 On ch=7 n=74 v=0
31464 On ch=7 n=67 v=0
31476 Par ch=7 c=11 v=70
31480 Par ch=7 c=11 v=127
31484 Par ch=7 c=1 v=0
43008 Par ch=7 c=0 v=0
43392 PrCh ch=7 p=55
43768 Par ch=7 c=7 v=125
43772 Par ch=7 c=11 v=127
44448 On ch=7 n=74 v=127
44448 On ch=7 n=62 v=127
44544 Par ch=7 c=11 v=100
44576 On ch=7 n=74 v=0
44576 On ch=7 n=62 v=0
44928 PrCh ch=7 p=18
45600 On ch=7 n=72 v=127
45600 On ch=7 n=67 v=90
45600 On ch=7 n=57 v=55
45600 On ch=7 n=55 v=40
45696 On ch=7 n=72 v=0
45696 On ch=7 n=67 v=0
45696 On ch=7 n=57 v=0
45696 On ch=7 n=55 v=0
45696 On ch=7 n=72 v=127
45696 On ch=7 n=67 v=90
45696 On ch=7 n=57 v=55
45696 On ch=7 n=55 v=40
45788 Pb ch=7 v=6656
45792 On ch=7 n=57 v=0
45792 On ch=7 n=55 v=0
45792 On ch=7 n=57 v=120
45792 On ch=7 n=55 v=60
45792 On ch=7 n=50 v=45
45792 On ch=7 n=69 v=30
45796 Pb ch=7 v=7040
45800 On ch=7 n=72 v=0
45800 On ch=7 n=67 v=0
45800 Pb ch=7 v=7296
45804 Pb ch=7 v=7552
45808 Pb ch=7 v=7680
45812 Pb ch=7 v=7808
45816 Pb ch=7 v=7936
45824 Pb ch=7 v=8064
45836 Pb ch=7 v=8192
45888 On ch=7 n=57 v=0
45888 On ch=7 n=55 v=0
45888 On ch=7 n=50 v=0
45888 On ch=7 n=69 v=0
49152 Par ch=7 c=0 v=0
49536 PrCh ch=7 p=100
50204 Par ch=7 c=11 v=30
50208 On ch=7 n=74 v=127
50208 On ch=7 n=72 v=100
50208 On ch=7 n=69 v=90
50208 On ch=7 n=65 v=80
50212 Par ch=7 c=11 v=35
50216 Par ch=7 c=11 v=38
50220 Par ch=7 c=11 v=41
50224 Par ch=7 c=11 v=43
50228 Par ch=7 c=11 v=46
50232 Par ch=7 c=11 v=48
50236 Par ch=7 c=11 v=51
50240 Par ch=7 c=11 v=53
50244 Par ch=7 c=11 v=55
50248 Par ch=7 c=11 v=57
50252 Par ch=7 c=11 v=59
50256 Par ch=7 c=11 v=61
50260 Par ch=7 c=11 v=62
50264 Par ch=7 c=11 v=65
50268 Par ch=7 c=11 v=66
50272 Par ch=7 c=11 v=68
50276 Par ch=7 c=11 v=69
50280 Par ch=7 c=11 v=71
50284 Par ch=7 c=11 v=72
50288 Par ch=7 c=11 v=74
50292 Par ch=7 c=11 v=75
50296 Par ch=7 c=11 v=76
50300 Par ch=7 c=11 v=77
50304 Par ch=7 c=11 v=78
50308 Par ch=7 c=11 v=79
50312 Par ch=7 c=11 v=80
50316 Par ch=7 c=11 v=81
50320 Par ch=7 c=11 v=82
50324 Par ch=7 c=11 v=83
50328 Par ch=7 c=11 v=84
50336 Par ch=7 c=11 v=85
50340 Par ch=7 c=11 v=86
50344 Par ch=7 c=11 v=87
50352 Par ch=7 c=11 v=88
50360 Par ch=7 c=11 v=89
50368 Par ch=7 c=11 v=90
50376 Par ch=7 c=11 v=91
50384 Par ch=7 c=11 v=92
50392 Par ch=7 c=11 v=93
50404 Par ch=7 c=11 v=94
50420 Par ch=7 c=11 v=95
50432 Par ch=7 c=11 v=96
50452 Par ch=7 c=11 v=97
50480 Par ch=7 c=11 v=98
50508 Par ch=7 c=11 v=99
50568 Par ch=7 c=11 v=100
50688 Par ch=7 c=11 v=100
50720 PrCh ch=7 p=51
50724 On ch=7 n=62 v=95
50724 On ch=7 n=57 v=95
50724 On ch=7 n=53 v=95
50724 On ch=7 n=50 v=95
50728 Par ch=7 c=11 v=14
50732 Par ch=7 c=11 v=15
50736 Par ch=7 c=11 v=18
50740 Par ch=7 c=11 v=19
50744 Par ch=7 c=11 v=22
50748 Par ch=7 c=11 v=23
50752 Par ch=7 c=11 v=24
50756 Par ch=7 c=11 v=27
50760 Par ch=7 c=11 v=28
50764 Par ch=7 c=11 v=30
50768 Par ch=7 c=11 v=31
50772 Par ch=7 c=11 v=32
50776 Par ch=7 c=11 v=34
50780 Par ch=7 c=11 v=35
50784 Par ch=7 c=11 v=37
50788 Par ch=7 c=11 v=38
50792 Par ch=7 c=11 v=39
50796 Par ch=7 c=11 v=41
50800 Par ch=7 c=11 v=42
50804 Par ch=7 c=11 v=43
50808 Par ch=7 c=11 v=44
50812 Par ch=7 c=11 v=45
50816 Par ch=7 c=11 v=46
50820 Par ch=7 c=11 v=47
50824 Par ch=7 c=11 v=49
50832 Par ch=7 c=11 v=50
50836 Par ch=7 c=11 v=51
50840 Par ch=7 c=11 v=52
50844 Par ch=7 c=11 v=53
50848 Par ch=7 c=11 v=54
50852 Par ch=7 c=11 v=55
50860 Par ch=7 c=11 v=56
50864 Par ch=7 c=11 v=57
50868 Par ch=7 c=11 v=58
50876 Par ch=7 c=11 v=59
50884 Par ch=7 c=11 v=60
50888 Par ch=7 c=11 v=61
50892 Par ch=7 c=11 v=62
50904 Par ch=7 c=11 v=63
50908 Par ch=7 c=11 v=64
50916 Par ch=7 c=11 v=65
50924 Par ch=7 c=11 v=66
50932 Par ch=7 c=11 v=67
50944 Par ch=7 c=11 v=68
50956 Par ch=7 c=11 v=69
50964 Par ch=7 c=11 v=70
50976 On ch=7 n=74 v=0
50976 On ch=7 n=72 v=0
50976 On ch=7 n=65 v=0
50980 Par ch=7 c=11 v=71
50992 Par ch=7 c=11 v=72
51004 Par ch=7 c=11 v=73
51024 Par ch=7 c=11 v=74
51048 Par ch=7 c=11 v=75
51068 Par ch=7 c=11 v=76
51096 Par ch=7 c=11 v=77
51140 Par ch=7 c=11 v=78
51180 Par ch=7 c=11 v=79
51272 Par ch=7 c=11 v=80
51456 On ch=7 n=65 v=95
51496 Par ch=7 c=11 v=81
51536 Par ch=7 c=11 v=82
51572 Par ch=7 c=11 v=83
51612 Par ch=7 c=11 v=84
51648 Par ch=7 c=11 v=85
51688 Par ch=7 c=11 v=86
51724 Par ch=7 c=11 v=87
51764 Par ch=7 c=11 v=88
51800 Par ch=7 c=11 v=89
51840 Par ch=7 c=11 v=90
51880 Par ch=7 c=11 v=91
51916 Par ch=7 c=11 v=92
51956 Par ch=7 c=11 v=93
51992 Par ch=7 c=11 v=94
52032 Par ch=7 c=11 v=95
52068 Par ch=7 c=11 v=96
52108 Par ch=7 c=11 v=97
52144 Par ch=7 c=11 v=98
52184 Par ch=7 c=11 v=99
52220 Par ch=7 c=11 v=100
52224 On ch=7 n=67 v=95
52228 On ch=7 n=69 v=0
53184 On ch=7 n=67 v=0
53184 On ch=7 n=65 v=0
53184 On ch=7 n=62 v=0
53184 On ch=7 n=57 v=0
53184 On ch=7 n=53 v=0
53184 On ch=7 n=50 v=0
54528 Par ch=7 c=11 v=30
55296 On ch=7 n=55 v=95
55300 Par ch=7 c=11 v=34
55304 Par ch=7 c=11 v=35
55308 Par ch=7 c=11 v=38
55312 Par ch=7 c=11 v=39
55316 Par ch=7 c=11 v=41
55320 Par ch=7 c=11 v=43
55324 Par ch=7 c=11 v=44
55328 Par ch=7 c=11 v=46
55332 Par ch=7 c=11 v=48
55336 Par ch=7 c=11 v=49
55340 Par ch=7 c=11 v=50
55344 Par ch=7 c=11 v=52
55348 Par ch=7 c=11 v=53
55352 Par ch=7 c=11 v=54
55356 Par ch=7 c=11 v=56
55360 Par ch=7 c=11 v=57
55364 Par ch=7 c=11 v=58
55368 Par ch=7 c=11 v=60
55372 Par ch=7 c=11 v=61
55376 Par ch=7 c=11 v=62
55380 Par ch=7 c=11 v=63
55384 Par ch=7 c=11 v=64
55388 Par ch=7 c=11 v=65
55392 Par ch=7 c=11 v=66
55396 Par ch=7 c=11 v=67
55400 Par ch=7 c=11 v=68
55404 Par ch=7 c=11 v=69
55408 Par ch=7 c=11 v=70
55412 Par ch=7 c=11 v=71
55416 Par ch=7 c=11 v=72
55424 Par ch=7 c=11 v=73
55428 Par ch=7 c=11 v=74
55432 Par ch=7 c=11 v=75
55440 Par ch=7 c=11 v=76
55444 Par ch=7 c=11 v=77
55448 Par ch=7 c=11 v=78
55456 Par ch=7 c=11 v=79
55464 Par ch=7 c=11 v=80
55468 Par ch=7 c=11 v=81
55476 Par ch=7 c=11 v=82
55484 Par ch=7 c=11 v=83
55488 Par ch=7 c=11 v=84
55496 Par ch=7 c=11 v=85
55508 Par ch=7 c=11 v=86
55516 Par ch=7 c=11 v=87
55528 Par ch=7 c=11 v=88
55540 Par ch=7 c=11 v=89
55548 Par ch=7 c=11 v=90
55564 Par ch=7 c=11 v=91
55580 Par ch=7 c=11 v=92
55592 Par ch=7 c=11 v=93
55612 Par ch=7 c=11 v=94
55636 Par ch=7 c=11 v=95
55656 Par ch=7 c=11 v=96
55684 Par ch=7 c=11 v=97
55732 Par ch=7 c=11 v=98
55776 Par ch=7 c=11 v=99
55872 Par ch=7 c=11 v=100
56828 PrCh ch=7 p=48
56832 On ch=7 n=50 v=80
56836 On ch=7 n=55 v=0
57408 On ch=7 n=50 v=0
57600 On ch=7 n=49 v=80
58176 On ch=7 n=49 v=0
58368 On ch=7 n=48 v=80
58944 On ch=7 n=48 v=0
59136 On ch=7 n=47 v=80
59712 On ch=7 n=47 v=0
59904 On ch=7 n=50 v=85
60384 On ch=7 n=50 v=0
60672 On ch=7 n=49 v=85
61152 On ch=7 n=49 v=0
61440 On ch=7 n=48 v=85
61920 On ch=7 n=48 v=0
62208 On ch=7 n=47 v=85
62688 On ch=7 n=47 v=0
70656 On ch=7 n=55 v=85
71040 On ch=7 n=55 v=0
71040 On ch=7 n=57 v=85
71424 On ch=7 n=57 v=0
71424 On ch=7 n=55 v=85
71504 On ch=7 n=55 v=0
71520 On ch=7 n=55 v=85
71600 On ch=7 n=55 v=0
71616 On ch=7 n=55 v=85
71696 On ch=7 n=55 v=0
71712 On ch=7 n=55 v=85
71792 On ch=7 n=55 v=0
71808 On ch=7 n=55 v=85
71888 On ch=7 n=55 v=0
71904 On ch=7 n=55 v=85
71984 On ch=7 n=55 v=0
72000 On ch=7 n=55 v=60
72080 On ch=7 n=55 v=0
72096 On ch=7 n=55 v=70
72176 On ch=7 n=55 v=0
72192 On ch=7 n=55 v=70
72272 On ch=7 n=55 v=0
72288 On ch=7 n=55 v=72
72368 On ch=7 n=55 v=0
72384 On ch=7 n=55 v=74
72464 On ch=7 n=55 v=0
72480 On ch=7 n=55 v=76
72560 On ch=7 n=55 v=0
72576 On ch=7 n=55 v=78
72656 On ch=7 n=55 v=0
72672 On ch=7 n=55 v=80
72752 On ch=7 n=55 v=0
72768 On ch=7 n=55 v=82
72848 On ch=7 n=55 v=0
72864 On ch=7 n=57 v=70
73344 On ch=7 n=57 v=0
73720 Par ch=7 c=0 v=0
73724 PrCh ch=7 p=16
73920 On ch=7 n=77 v=99
73920 On ch=7 n=72 v=99
74016 On ch=7 n=77 v=0
74016 On ch=7 n=72 v=0
74112 On ch=7 n=77 v=99
74112 On ch=7 n=72 v=99
74208 On ch=7 n=77 v=0
74208 On ch=7 n=72 v=0
74208 On ch=7 n=75 v=99
74208 On ch=7 n=70 v=99
74304 On ch=7 n=75 v=0
74304 On ch=7 n=70 v=0
74400 On ch=7 n=77 v=99
74400 On ch=7 n=72 v=99
74488 On ch=7 n=72 v=0
74496 On ch=7 n=77 v=0
74592 On ch=7 n=80 v=99
74592 On ch=7 n=75 v=99
74688 On ch=7 n=80 v=0
74688 On ch=7 n=75 v=0
74688 On ch=7 n=82 v=99
74688 On ch=7 n=77 v=99
74784 On ch=7 n=82 v=0
74784 On ch=7 n=77 v=0
74784 On ch=7 n=84 v=99
74784 On ch=7 n=80 v=99
74880 On ch=7 n=84 v=0
74880 On ch=7 n=80 v=0
74976 On ch=7 n=87 v=99
74976 On ch=7 n=82 v=99
75072 On ch=7 n=87 v=0
75072 On ch=7 n=82 v=0
75168 On ch=7 n=89 v=99
75168 On ch=7 n=84 v=99
75264 On ch=7 n=89 v=0
75264 On ch=7 n=84 v=0
75264 On ch=7 n=89 v=99
75264 On ch=7 n=84 v=99
75360 On ch=7 n=89 v=0
75360 On ch=7 n=84 v=0
75360 On ch=7 n=92 v=99
75360 On ch=7 n=87 v=99
75456 On ch=7 n=92 v=0
75456 On ch=7 n=87 v=0
75552 On ch=7 n=94 v=99
75552 On ch=7 n=89 v=99
75648 On ch=7 n=94 v=0
75648 On ch=7 n=89 v=0
75744 On ch=7 n=96 v=99
75744 On ch=7 n=92 v=99
75840 On ch=7 n=96 v=0
75840 On ch=7 n=92 v=0
78336 Par ch=7 c=11 v=120
78720 Par ch=7 c=0 v=0
78912 PrCh ch=7 p=100
79392 On ch=7 n=69 v=45
79392 On ch=7 n=57 v=35
79440 On ch=7 n=69 v=0
79440 On ch=7 n=57 v=0
79488 On ch=7 n=74 v=60
79488 On ch=7 n=62 v=50
79536 On ch=7 n=74 v=0
79536 On ch=7 n=62 v=0
79584 On ch=7 n=77 v=75
79584 On ch=7 n=65 v=65
79776 On ch=7 n=77 v=0
79776 On ch=7 n=65 v=0
79776 On ch=7 n=76 v=75
79776 On ch=7 n=64 v=65
79968 On ch=7 n=76 v=0
79968 On ch=7 n=64 v=0
79968 On ch=7 n=69 v=55
79968 On ch=7 n=57 v=45
80148 On ch=7 n=69 v=0
80148 On ch=7 n=57 v=0
80160 On ch=7 n=81 v=85
80160 On ch=7 n=69 v=75
80640 On ch=7 n=81 v=0
80640 On ch=7 n=69 v=0
80928 On ch=7 n=69 v=50
80928 On ch=7 n=57 v=40
80984 On ch=7 n=69 v=0
80984 On ch=7 n=57 v=0
81024 On ch=7 n=74 v=65
81024 On ch=7 n=62 v=55
81088 On ch=7 n=74 v=0
81088 On ch=7 n=62 v=0
81120 On ch=7 n=77 v=80
81120 On ch=7 n=65 v=70
81312 On ch=7 n=77 v=0
81312 On ch=7 n=65 v=0
81312 On ch=7 n=84 v=90
81312 On ch=7 n=72 v=80
81408 On ch=7 n=84 v=0
81408 On ch=7 n=72 v=0
81504 On ch=7 n=83 v=90
81504 On ch=7 n=71 v=80
81568 On ch=7 n=83 v=0
81568 On ch=7 n=71 v=0
81696 On ch=7 n=79 v=90
81696 On ch=7 n=67 v=80
82172 PrCh ch=7 p=48
82176 On ch=7 n=79 v=0
82176 On ch=7 n=67 v=0
82176 On ch=7 n=86 v=40
82176 On ch=7 n=81 v=35
82176 On ch=7 n=74 v=30
82944 On ch=7 n=86 v=0
82944 On ch=7 n=81 v=0
82944 On ch=7 n=74 v=0
82944 On ch=7 n=84 v=40
82944 On ch=7 n=79 v=35
82944 On ch=7 n=72 v=30
83712 On ch=7 n=84 v=0
83712 On ch=7 n=79 v=0
83712 On ch=7 n=72 v=0
83712 On ch=7 n=83 v=40
83712 On ch=7 n=76 v=35
83712 On ch=7 n=69 v=30
84096 On ch=7 n=83 v=0
84096 On ch=7 n=81 v=40
84416 On ch=7 n=81 v=0
84416 On ch=7 n=79 v=40
84480 On ch=7 n=76 v=0
84480 On ch=7 n=69 v=0
84480 On ch=7 n=79 v=0
84480 On ch=7 n=81 v=40
84480 On ch=7 n=76 v=35
84480 On ch=7 n=69 v=30
84752 Par ch=7 c=11 v=99
84836 Par ch=7 c=11 v=98
84896 Par ch=7 c=11 v=97
84932 Par ch=7 c=11 v=96
84960 Par ch=7 c=11 v=95
84988 Par ch=7 c=11 v=94
85008 Par ch=7 c=11 v=93
85028 Par ch=7 c=11 v=92
85044 Par ch=7 c=11 v=91
85056 Par ch=7 c=11 v=90
85068 Par ch=7 c=11 v=89
85080 Par ch=7 c=11 v=88
85092 Par ch=7 c=11 v=87
85104 Par ch=7 c=11 v=86
85112 Par ch=7 c=11 v=85
85120 Par ch=7 c=11 v=84
85128 Par ch=7 c=11 v=83
85140 Par ch=7 c=11 v=82
85144 Par ch=7 c=11 v=81
85152 Par ch=7 c=11 v=80
85160 Par ch=7 c=11 v=79
85164 Par ch=7 c=11 v=78
85172 Par ch=7 c=11 v=77
85176 Par ch=7 c=11 v=76
85184 Par ch=7 c=11 v=75
85188 Par ch=7 c=11 v=74
85192 Par ch=7 c=11 v=73
85200 Par ch=7 c=11 v=72
85204 Par ch=7 c=11 v=71
85208 Par ch=7 c=11 v=70
85212 Par ch=7 c=11 v=69
85216 Par ch=7 c=11 v=68
85224 Par ch=7 c=11 v=66
85228 Par ch=7 c=11 v=65
85236 Par ch=7 c=11 v=63
85240 Par ch=7 c=11 v=62
85244 Par ch=7 c=11 v=60
85248 On ch=7 n=81 v=0
85248 On ch=7 n=76 v=0
85248 On ch=7 n=69 v=0
85248 On ch=7 n=86 v=40
85248 On ch=7 n=81 v=35
85248 On ch=7 n=74 v=30
85264 Par ch=7 c=11 v=61
85280 Par ch=7 c=11 v=62
85292 Par ch=7 c=11 v=63
85308 Par ch=7 c=11 v=64
85320 Par ch=7 c=11 v=65
85336 Par ch=7 c=11 v=66
85352 Par ch=7 c=11 v=67
85364 Par ch=7 c=11 v=68
85380 Par ch=7 c=11 v=69
85392 Par ch=7 c=11 v=70
85408 Par ch=7 c=11 v=71
85424 Par ch=7 c=11 v=72
85436 Par ch=7 c=11 v=73
85452 Par ch=7 c=11 v=74
85464 Par ch=7 c=11 v=75
85480 Par ch=7 c=11 v=76
85496 Par ch=7 c=11 v=77
85508 Par ch=7 c=11 v=78
85524 Par ch=7 c=11 v=79
85536 Par ch=7 c=11 v=80
85552 Par ch=7 c=11 v=81
85568 Par ch=7 c=11 v=82
85580 Par ch=7 c=11 v=83
85596 Par ch=7 c=11 v=84
85608 Par ch=7 c=11 v=85
85624 Par ch=7 c=11 v=86
85640 Par ch=7 c=11 v=87
85652 Par ch=7 c=11 v=88
85668 Par ch=7 c=11 v=89
85680 Par ch=7 c=11 v=90
85696 Par ch=7 c=11 v=91
85712 Par ch=7 c=11 v=92
85724 Par ch=7 c=11 v=93
85740 Par ch=7 c=11 v=94
85752 Par ch=7 c=11 v=95
85768 Par ch=7 c=11 v=96
85784 Par ch=7 c=11 v=97
85796 Par ch=7 c=11 v=98
85812 Par ch=7 c=11 v=99
85824 Par ch=7 c=11 v=100
86016 On ch=7 n=86 v=0
86016 On ch=7 n=81 v=0
86016 On ch=7 n=74 v=0
86016 On ch=7 n=84 v=40
86016 On ch=7 n=79 v=35
86016 On ch=7 n=72 v=30
86880 On ch=7 n=81 v=40
86880 On ch=7 n=76 v=35
86880 On ch=7 n=69 v=30
86884 On ch=7 n=84 v=0
86884 On ch=7 n=79 v=0
86884 On ch=7 n=72 v=0
88324 On ch=7 n=81 v=0
88324 On ch=7 n=76 v=0
88324 On ch=7 n=69 v=0
88324 Meta TrkEnd
TrkEnd
MTrk
0 Meta TrkName "RHYTHM OF LOVE  "
192 Par ch=9 c=121 v=0
196 Par ch=9 c=100 v=0
200 Par ch=9 c=101 v=0
204 Par ch=9 c=6 v=12
208 Par ch=9 c=7 v=120
212 Par ch=9 c=11 v=120
216 Par ch=9 c=10 v=100
384 Par ch=9 c=0 v=0
388 Par ch=9 c=32 v=0
392 PrCh ch=9 p=46
396 Par ch=9 c=91 v=110
400 Par ch=9 c=127 v=0
3456 On ch=9 n=40 v=50
3504 On ch=9 n=45 v=52
3536 On ch=9 n=40 v=0
3548 On ch=9 n=52 v=54
3576 On ch=9 n=45 v=0
3592 On ch=9 n=57 v=56
3604 On ch=9 n=52 v=0
3632 On ch=9 n=61 v=58
3640 On ch=9 n=57 v=0
3672 On ch=9 n=64 v=60
3680 On ch=9 n=61 v=0
3712 On ch=9 n=69 v=62
3720 On ch=9 n=64 v=0
3752 On ch=9 n=73 v=64
3760 On ch=9 n=69 v=0
3792 On ch=9 n=76 v=66
3800 On ch=9 n=73 v=0
3832 On ch=9 n=81 v=68
3840 On ch=9 n=76 v=0
3872 On ch=9 n=85 v=70
3880 On ch=9 n=81 v=0
3912 On ch=9 n=88 v=72
3920 On ch=9 n=85 v=0
3952 On ch=9 n=90 v=74
3960 On ch=9 n=88 v=0
3992 On ch=9 n=88 v=72
4000 On ch=9 n=90 v=0
4032 On ch=9 n=85 v=70
4040 On ch=9 n=88 v=0
4072 On ch=9 n=81 v=68
4080 On ch=9 n=85 v=0
4108 On ch=9 n=73 v=66
4120 On ch=9 n=81 v=0
4144 On ch=9 n=69 v=64
4156 On ch=9 n=73 v=0
4180 On ch=9 n=61 v=62
4192 On ch=9 n=69 v=0
4212 On ch=9 n=57 v=60
4228 On ch=9 n=61 v=0
4244 On ch=9 n=49 v=60
4260 On ch=9 n=57 v=0
4304 On ch=9 n=45 v=60
4324 On ch=9 n=49 v=0
4352 On ch=9 n=45 v=0
4608 On ch=9 n=35 v=45
4704 On ch=9 n=38 v=47
4712 On ch=9 n=35 v=0
4784 On ch=9 n=42 v=49
4788 On ch=9 n=38 v=0
4828 On ch=9 n=47 v=50
4832 On ch=9 n=42 v=0
4868 On ch=9 n=49 v=52
4876 On ch=9 n=47 v=0
4908 On ch=9 n=50 v=54
4916 On ch=9 n=49 v=0
4948 On ch=9 n=52 v=56
4956 On ch=9 n=50 v=0
4988 On ch=9 n=54 v=58
4996 On ch=9 n=52 v=0
5028 On ch=9 n=57 v=60
5036 On ch=9 n=54 v=0
5068 On ch=9 n=59 v=62
5076 On ch=9 n=57 v=0
5108 On ch=9 n=61 v=64
5116 On ch=9 n=59 v=0
5148 On ch=9 n=62 v=66
5156 On ch=9 n=61 v=0
5188 On ch=9 n=64 v=68
5196 On ch=9 n=62 v=0
5228 On ch=9 n=66 v=70
5236 On ch=9 n=64 v=0
5268 On ch=9 n=69 v=72
5276 On ch=9 n=66 v=0
5304 On ch=9 n=71 v=74
5316 On ch=9 n=69 v=0
5340 On ch=9 n=73 v=76
5352 On ch=9 n=71 v=0
5376 On ch=9 n=74 v=78
5388 On ch=9 n=73 v=0
5412 On ch=9 n=76 v=80
5424 On ch=9 n=74 v=0
5448 On ch=9 n=78 v=82
5460 On ch=9 n=76 v=0
5484 On ch=9 n=76 v=80
5496 On ch=9 n=78 v=0
5516 On ch=9 n=74 v=78
5532 On ch=9 n=76 v=0
5548 On ch=9 n=69 v=76
5564 On ch=9 n=74 v=0
5580 On ch=9 n=66 v=74
5596 On ch=9 n=69 v=0
5608 On ch=9 n=62 v=72
5628 On ch=9 n=66 v=0
5636 On ch=9 n=57 v=70
5656 On ch=9 n=62 v=0
5684 On ch=9 n=57 v=0
5760 On ch=9 n=45 v=55
5856 On ch=9 n=49 v=55
5864 On ch=9 n=45 v=0
5928 On ch=9 n=52 v=60
5944 On ch=9 n=49 v=0
5976 On ch=9 n=54 v=62
5992 On ch=9 n=52 v=0
6016 On ch=9 n=57 v=64
6024 On ch=9 n=54 v=0
6056 On ch=9 n=59 v=66
6064 On ch=9 n=57 v=0
6096 On ch=9 n=61 v=68
6104 On ch=9 n=59 v=0
6132 On ch=9 n=64 v=70
6144 On ch=9 n=61 v=0
6168 On ch=9 n=69 v=72
6180 On ch=9 n=64 v=0
6204 On ch=9 n=71 v=74
6216 On ch=9 n=69 v=0
6236 On ch=9 n=73 v=76
6252 On ch=9 n=71 v=0
6268 On ch=9 n=76 v=78
6284 On ch=9 n=73 v=0
6300 On ch=9 n=78 v=80
6316 On ch=9 n=76 v=0
6332 On ch=9 n=76 v=78
6348 On ch=9 n=78 v=0
6364 On ch=9 n=73 v=76
6380 On ch=9 n=76 v=0
6396 On ch=9 n=69 v=74
6412 On ch=9 n=73 v=0
6428 On ch=9 n=64 v=72
6444 On ch=9 n=69 v=0
6460 On ch=9 n=61 v=70
6476 On ch=9 n=64 v=0
6492 On ch=9 n=57 v=68
6508 On ch=9 n=61 v=0
6528 On ch=9 n=52 v=65
6540 On ch=9 n=57 v=0
6564 On ch=9 n=49 v=60
6576 On ch=9 n=52 v=0
6600 On ch=9 n=45 v=60
6612 On ch=9 n=49 v=0
6640 On ch=9 n=40 v=65
6648 On ch=9 n=45 v=0
6688 On ch=9 n=40 v=0
6824 Par ch=9 c=91 v=100
6872 PrCh ch=9 p=53
7104 On ch=9 n=62 v=90
7296 On ch=9 n=62 v=0
7296 On ch=9 n=66 v=110
7484 On ch=9 n=66 v=0
7484 Pb ch=9 v=7424
7488 On ch=9 n=71 v=112
7504 Pb ch=9 v=7552
7516 Pb ch=9 v=7680
7528 Pb ch=9 v=7808
7544 Pb ch=9 v=7936
7556 Pb ch=9 v=8064
7568 Pb ch=9 v=8192
7680 On ch=9 n=71 v=0
7680 On ch=9 n=69 v=112
7872 On ch=9 n=69 v=0
7872 On ch=9 n=64 v=100
8064 On ch=9 n=64 v=0
8064 On ch=9 n=61 v=80
8256 On ch=9 n=61 v=0
8256 On ch=9 n=57 v=60
8444 Pb ch=9 v=7424
8448 On ch=9 n=57 v=0
8448 On ch=9 n=71 v=80
8464 Pb ch=9 v=7552
8476 Pb ch=9 v=7680
8488 Pb ch=9 v=7808
8504 Pb ch=9 v=7936
8516 Pb ch=9 v=8064
8528 Pb ch=9 v=8192
8640 On ch=9 n=71 v=0
8640 On ch=9 n=69 v=70
8832 On ch=9 n=69 v=0
8832 On ch=9 n=64 v=60
9212 Pb ch=9 v=7492
9216 On ch=9 n=64 v=0
9216 On ch=9 n=72 v=110
9224 Pb ch=9 v=7552
9232 Pb ch=9 v=7680
9240 Pb ch=9 v=7808
9248 Pb ch=9 v=7936
9260 Pb ch=9 v=8064
9272 Pb ch=9 v=8192
9408 On ch=9 n=72 v=0
9408 On ch=9 n=71 v=100
9600 On ch=9 n=71 v=0
9600 On ch=9 n=67 v=90
9792 On ch=9 n=67 v=0
9792 On ch=9 n=62 v=80
9984 On ch=9 n=62 v=0
10176 On ch=9 n=62 v=90
10368 On ch=9 n=62 v=0
10368 On ch=9 n=66 v=100
10560 On ch=9 n=66 v=0
10560 On ch=9 n=71 v=120
10564 Pb ch=9 v=7424
10572 Pb ch=9 v=7552
10580 Pb ch=9 v=7680
10588 Pb ch=9 v=7808
10596 Pb ch=9 v=7936
10612 Pb ch=9 v=8064
10628 Pb ch=9 v=8192
10752 On ch=9 n=71 v=0
10752 On ch=9 n=69 v=110
10944 On ch=9 n=69 v=0
10944 On ch=9 n=64 v=90
11136 On ch=9 n=64 v=0
11136 On ch=9 n=61 v=80
11328 On ch=9 n=61 v=0
11328 On ch=9 n=57 v=70
11516 Pb ch=9 v=7296
11520 On ch=9 n=57 v=0
11520 On ch=9 n=71 v=112
11524 Pb ch=9 v=7424
11532 Pb ch=9 v=7552
11540 Pb ch=9 v=7680
11548 Pb ch=9 v=7808
11556 Pb ch=9 v=7936
11568 Pb ch=9 v=8064
11588 Pb ch=9 v=8192
11712 On ch=9 n=71 v=0
11712 On ch=9 n=69 v=100
11904 On ch=9 n=69 v=0
11904 On ch=9 n=64 v=90
12176 On ch=9 n=64 v=0
12192 On ch=9 n=62 v=80
12284 Par ch=9 c=11 v=120
12300 Par ch=9 c=11 v=119
12308 Par ch=9 c=11 v=118
12320 Par ch=9 c=11 v=117
12328 Par ch=9 c=11 v=116
12336 Par ch=9 c=11 v=115
12348 Par ch=9 c=11 v=114
12356 Par ch=9 c=11 v=113
12368 Par ch=9 c=11 v=112
12376 Par ch=9 c=11 v=111
12384 Par ch=9 c=11 v=110
12396 Par ch=9 c=11 v=109
12404 Par ch=9 c=11 v=108
12416 Par ch=9 c=11 v=107
12424 Par ch=9 c=11 v=106
12432 Par ch=9 c=11 v=105
12444 Par ch=9 c=11 v=104
12452 Par ch=9 c=11 v=103
12464 Par ch=9 c=11 v=102
12472 Par ch=9 c=11 v=101
12480 Par ch=9 c=11 v=100
12492 Par ch=9 c=11 v=99
12500 Par ch=9 c=11 v=98
12512 Par ch=9 c=11 v=97
12520 Par ch=9 c=11 v=96
12528 Par ch=9 c=11 v=95
12540 Par ch=9 c=11 v=94
12548 Par ch=9 c=11 v=93
12556 Par ch=9 c=11 v=92
12568 Par ch=9 c=11 v=91
12576 Par ch=9 c=11 v=90
12588 Par ch=9 c=11 v=89
12596 Par ch=9 c=11 v=88
12604 Par ch=9 c=11 v=87
12616 Par ch=9 c=11 v=86
12624 Par ch=9 c=11 v=85
12636 Par ch=9 c=11 v=84
12644 Par ch=9 c=11 v=83
12652 Par ch=9 c=11 v=82
12664 Par ch=9 c=11 v=81
12672 Par ch=9 c=11 v=80
12684 Par ch=9 c=11 v=79
12692 Par ch=9 c=11 v=78
12700 Par ch=9 c=11 v=77
12712 Par ch=9 c=11 v=76
12720 Par ch=9 c=11 v=75
12732 Par ch=9 c=11 v=74
12740 Par ch=9 c=11 v=73
12748 Par ch=9 c=11 v=72
12760 Par ch=9 c=11 v=71
12768 Par ch=9 c=11 v=70
12776 Par ch=9 c=11 v=69
12788 Par ch=9 c=11 v=68
12796 Par ch=9 c=11 v=67
12808 Par ch=9 c=11 v=66
12816 Par ch=9 c=11 v=65
12824 Par ch=9 c=11 v=64
12836 Par ch=9 c=11 v=63
12844 Par ch=9 c=11 v=62
12856 Par ch=9 c=11 v=61
12864 Par ch=9 c=11 v=60
12872 Par ch=9 c=11 v=59
12884 Par ch=9 c=11 v=58
12892 Par ch=9 c=11 v=57
12904 Par ch=9 c=11 v=56
12912 Par ch=9 c=11 v=55
12920 Par ch=9 c=11 v=54
12932 Par ch=9 c=11 v=53
12940 Par ch=9 c=11 v=52
12952 Par ch=9 c=11 v=51
12960 Par ch=9 c=11 v=50
12968 Par ch=9 c=11 v=49
12980 Par ch=9 c=11 v=48
12988 Par ch=9 c=11 v=47
12996 Par ch=9 c=11 v=46
13008 Par ch=9 c=11 v=45
13016 Par ch=9 c=11 v=44
13028 Par ch=9 c=11 v=43
13036 Par ch=9 c=11 v=42
13044 Par ch=9 c=11 v=41
13060 Par ch=9 c=11 v=40
13064 Par ch=9 c=11 v=39
13076 Par ch=9 c=11 v=38
13084 Par ch=9 c=11 v=37
13092 Par ch=9 c=11 v=36
13104 Par ch=9 c=11 v=35
13112 Par ch=9 c=11 v=34
13124 Par ch=9 c=11 v=33
13132 Par ch=9 c=11 v=32
13140 Par ch=9 c=11 v=31
13152 Par ch=9 c=11 v=30
13160 Par ch=9 c=11 v=29
13172 Par ch=9 c=11 v=28
13180 Par ch=9 c=11 v=27
13188 Par ch=9 c=11 v=26
13200 Par ch=9 c=11 v=25
13208 Par ch=9 c=11 v=24
13216 Par ch=9 c=11 v=23
13228 Par ch=9 c=11 v=22
13236 Par ch=9 c=11 v=21
13248 Par ch=9 c=11 v=20
13256 Par ch=9 c=11 v=19
13264 Par ch=9 c=11 v=18
13276 Par ch=9 c=11 v=17
13284 Par ch=9 c=11 v=16
13296 Par ch=9 c=11 v=15
13304 Par ch=9 c=11 v=14
13312 Par ch=9 c=11 v=13
13324 Par ch=9 c=11 v=12
13332 Par ch=9 c=11 v=11
13344 Par ch=9 c=11 v=10
13352 Par ch=9 c=11 v=9
13360 Par ch=9 c=11 v=8
13372 Par ch=9 c=11 v=7
13380 Par ch=9 c=11 v=6
13392 Par ch=9 c=11 v=5
13400 Par ch=9 c=11 v=4
13408 Par ch=9 c=11 v=3
13420 Par ch=9 c=11 v=2
13428 Par ch=9 c=11 v=1
13436 Par ch=9 c=11 v=0
13440 On ch=9 n=62 v=0
13820 Par ch=9 c=11 v=120
31680 On ch=9 n=62 v=55
31872 On ch=9 n=62 v=0
31872 On ch=9 n=66 v=85
32060 Pb ch=9 v=7552
32064 On ch=9 n=66 v=0
32064 On ch=9 n=71 v=95
32068 Pb ch=9 v=7680
32072 Pb ch=9 v=7808
32084 Pb ch=9 v=7936
32096 Pb ch=9 v=8064
32120 Pb ch=9 v=8192
32256 On ch=9 n=71 v=0
32256 On ch=9 n=69 v=95
32448 On ch=9 n=69 v=0
32448 On ch=9 n=64 v=75
32640 On ch=9 n=64 v=0
32640 On ch=9 n=61 v=65
32832 On ch=9 n=61 v=0
32832 On ch=9 n=57 v=55
33020 Pb ch=9 v=7552
33024 On ch=9 n=57 v=0
33024 On ch=9 n=71 v=85
33028 Pb ch=9 v=7680
33032 Pb ch=9 v=7808
33044 Pb ch=9 v=7936
33056 Pb ch=9 v=8064
33080 Pb ch=9 v=8192
33216 On ch=9 n=71 v=0
33216 On ch=9 n=69 v=75
33408 On ch=9 n=69 v=0
33408 On ch=9 n=64 v=65
33788 Pb ch=9 v=7680
33792 On ch=9 n=64 v=0
33792 On ch=9 n=69 v=85
33796 Pb ch=9 v=7808
33804 Pb ch=9 v=7936
33816 Pb ch=9 v=8064
33840 Pb ch=9 v=8192
33984 On ch=9 n=69 v=0
33984 On ch=9 n=67 v=75
34176 On ch=9 n=67 v=0
34176 On ch=9 n=62 v=65
34560 On ch=9 n=62 v=0
34752 On ch=9 n=62 v=55
34944 On ch=9 n=62 v=0
34944 On ch=9 n=66 v=85
35132 Pb ch=9 v=7552
35136 On ch=9 n=66 v=0
35136 On ch=9 n=71 v=95
35140 Pb ch=9 v=7680
35144 Pb ch=9 v=7808
35156 Pb ch=9 v=7936
35168 Pb ch=9 v=8064
35192 Pb ch=9 v=8192
35328 On ch=9 n=71 v=0
35328 On ch=9 n=69 v=95
35520 On ch=9 n=69 v=0
35520 On ch=9 n=64 v=75
35712 On ch=9 n=64 v=0
35712 On ch=9 n=61 v=65
35904 On ch=9 n=61 v=0
35904 On ch=9 n=57 v=55
36096 On ch=9 n=57 v=0
36096 On ch=9 n=57 v=55
36288 On ch=9 n=57 v=0
36864 PrCh ch=9 p=31
37148 Pb ch=9 v=8192
37152 On ch=9 n=74 v=100
37176 Pb ch=9 v=8064
37180 Pb ch=9 v=7936
37184 Pb ch=9 v=7680
37188 Pb ch=9 v=7168
37192 On ch=9 n=74 v=0
37192 Pb ch=9 v=8192
37632 PrCh ch=9 p=29
38400 Par ch=9 c=1 v=30
38496 Par ch=9 c=11 v=120
38592 On ch=9 n=65 v=90
38592 On ch=9 n=60 v=90
38616 Par ch=9 c=11 v=119
38620 Par ch=9 c=11 v=118
38624 Par ch=9 c=11 v=117
38628 Par ch=9 c=11 v=116
38632 Par ch=9 c=11 v=115
38636 Par ch=9 c=11 v=114
38640 Par ch=9 c=11 v=113
38644 Par ch=9 c=11 v=112
38648 Par ch=9 c=11 v=111
38652 Par ch=9 c=11 v=110
38656 Par ch=9 c=11 v=109
38660 Par ch=9 c=11 v=108
38664 Par ch=9 c=11 v=107
38668 Par ch=9 c=11 v=106
38672 Par ch=9 c=11 v=105
38676 Par ch=9 c=11 v=104
38680 Par ch=9 c=11 v=103
38684 Par ch=9 c=11 v=102
38688 Par ch=9 c=11 v=101
38692 Par ch=9 c=11 v=100
38696 Par ch=9 c=11 v=99
38700 Par ch=9 c=11 v=98
38704 Par ch=9 c=11 v=97
38708 Par ch=9 c=11 v=96
38712 Par ch=9 c=11 v=95
38716 Par ch=9 c=11 v=94
38720 Par ch=9 c=11 v=93
38724 Par ch=9 c=11 v=92
38728 Par ch=9 c=11 v=91
38732 Par ch=9 c=11 v=90
38736 Par ch=9 c=11 v=89
38740 Par ch=9 c=11 v=88
38744 Par ch=9 c=11 v=87
38748 Par ch=9 c=11 v=86
38752 Par ch=9 c=11 v=85
38756 Par ch=9 c=11 v=84
38760 Par ch=9 c=11 v=83
38764 Par ch=9 c=11 v=82
38768 Par ch=9 c=11 v=81
38772 Par ch=9 c=11 v=80
38776 Par ch=9 c=11 v=120
38780 Pb ch=9 v=8192
38784 On ch=9 n=65 v=0
38784 On ch=9 n=60 v=0
38784 On ch=9 n=65 v=90
38784 On ch=9 n=60 v=90
38876 Pb ch=9 v=8320
38892 Pb ch=9 v=8576
38896 Pb ch=9 v=8832
38900 Pb ch=9 v=9088
38904 Pb ch=9 v=9392
38908 Pb ch=9 v=9600
38964 Pb ch=9 v=9600
38976 Pb ch=9 v=9472
38980 Pb ch=9 v=9344
38984 Pb ch=9 v=9088
38988 Par ch=9 c=11 v=80
38992 Pb ch=9 v=8704
38996 Par ch=9 c=11 v=70
39000 On ch=9 n=65 v=0
39000 On ch=9 n=60 v=0
39000 Pb ch=9 v=7808
39160 Pb ch=9 v=8192
39164 Par ch=9 c=11 v=120
39168 On ch=9 n=60 v=90
39168 On ch=9 n=55 v=90
39180 Par ch=9 c=11 v=119
39188 Par ch=9 c=11 v=118
39200 Par ch=9 c=11 v=117
39208 Par ch=9 c=11 v=116
39216 Par ch=9 c=11 v=115
39228 Par ch=9 c=11 v=114
39236 Par ch=9 c=11 v=113
39244 Par ch=9 c=11 v=112
39256 Par ch=9 c=11 v=111
39264 Par ch=9 c=11 v=110
39272 Par ch=9 c=11 v=109
39284 Par ch=9 c=11 v=108
39292 Par ch=9 c=11 v=107
39300 Par ch=9 c=11 v=106
39312 Par ch=9 c=11 v=105
39320 Par ch=9 c=11 v=104
39328 Par ch=9 c=11 v=103
39340 Par ch=9 c=11 v=102
39344 Par ch=9 c=11 v=101
39348 Par ch=9 c=11 v=100
39352 Par ch=9 c=11 v=120
39356 Pb ch=9 v=8192
39360 On ch=9 n=60 v=0
39360 On ch=9 n=55 v=0
39360 On ch=9 n=60 v=90
39360 On ch=9 n=55 v=90
39456 Pb ch=9 v=8320
39464 Pb ch=9 v=8576
39468 Pb ch=9 v=8832
39472 Pb ch=9 v=9088
39476 Pb ch=9 v=9344
39480 Pb ch=9 v=9652
39484 Par ch=9 c=1 v=80
39884 Pb ch=9 v=9728
39900 Pb ch=9 v=9792
39904 Pb ch=9 v=10192
39908 Pb ch=9 v=10692
39912 Pb ch=9 v=11692
39920 On ch=9 n=60 v=0
39920 On ch=9 n=55 v=0
39920 Pb ch=9 v=8192
39936 PrCh ch=9 p=29
39984 Par ch=9 c=1 v=30
40032 Par ch=9 c=11 v=120
40128 On ch=9 n=65 v=90
40128 On ch=9 n=60 v=90
40140 Par ch=9 c=11 v=119
40148 Par ch=9 c=11 v=118
40160 Par ch=9 c=11 v=117
40168 Par ch=9 c=11 v=116
40176 Par ch=9 c=11 v=115
40188 Par ch=9 c=11 v=114
40196 Par ch=9 c=11 v=113
40204 Par ch=9 c=11 v=112
40216 Par ch=9 c=11 v=111
40224 Par ch=9 c=11 v=110
40232 Par ch=9 c=11 v=109
40244 Par ch=9 c=11 v=108
40252 Par ch=9 c=11 v=107
40260 Par ch=9 c=11 v=106
40272 Par ch=9 c=11 v=105
40280 Par ch=9 c=11 v=104
40288 Par ch=9 c=11 v=103
40300 Par ch=9 c=11 v=102
40304 Par ch=9 c=11 v=101
40308 Par ch=9 c=11 v=100
40312 Par ch=9 c=11 v=120
40316 Pb ch=9 v=8192
40320 On ch=9 n=65 v=0
40320 On ch=9 n=60 v=0
40320 On ch=9 n=65 v=90
40320 On ch=9 n=60 v=90
40416 Pb ch=9 v=8320
40424 Pb ch=9 v=8448
40432 Pb ch=9 v=8576
40436 Pb ch=9 v=8704
40440 Pb ch=9 v=8832
40444 Pb ch=9 v=8960
40448 Pb ch=9 v=9216
40452 Pb ch=9 v=9600
40516 Pb ch=9 v=9600
40536 Pb ch=9 v=9486
40540 Pb ch=9 v=9216
40544 Pb ch=9 v=8960
40548 Par ch=9 c=11 v=100
40552 Pb ch=9 v=8448
40556 Par ch=9 c=11 v=80
40560 Pb ch=9 v=7808
40564 Par ch=9 c=11 v=50
40568 Pb ch=9 v=8192
40576 On ch=9 n=65 v=0
40576 On ch=9 n=60 v=0
40700 Par ch=9 c=11 v=120
40704 On ch=9 n=65 v=90
40704 On ch=9 n=60 v=90
40800 Pb ch=9 v=9572
40856 Pb ch=9 v=9572
40860 Par ch=9 c=11 v=119
40880 Par ch=9 c=11 v=118
40892 Par ch=9 c=11 v=117
40900 Par ch=9 c=11 v=116
40904 Par ch=9 c=11 v=115
40908 Par ch=9 c=11 v=114
40912 Par ch=9 c=11 v=113
40916 Par ch=9 c=11 v=112
40920 Par ch=9 c=11 v=110
40924 Par ch=9 c=11 v=109
40928 Par ch=9 c=11 v=108
40932 Par ch=9 c=11 v=106
40936 Par ch=9 c=11 v=104
40940 Par ch=9 c=11 v=102
40944 Par ch=9 c=11 v=100
40948 Par ch=9 c=11 v=98
40952 Par ch=9 c=11 v=95
40956 Par ch=9 c=11 v=91
40960 Par ch=9 c=11 v=88
40964 Par ch=9 c=11 v=83
40968 Par ch=9 c=11 v=79
40972 Par ch=9 c=11 v=73
40976 Par ch=9 c=11 v=68
40980 Par ch=9 c=11 v=60
40984 On ch=9 n=65 v=0
40984 On ch=9 n=60 v=0
40984 Par ch=9 c=11 v=120
40988 Par ch=9 c=1 v=90
40992 Pb ch=9 v=8192
40996 On ch=9 n=65 v=90
40996 On ch=9 n=60 v=90
41008 Par ch=9 c=1 v=11
41016 Par ch=9 c=1 v=12
41028 Par ch=9 c=1 v=13
41036 Par ch=9 c=1 v=14
41044 Par ch=9 c=1 v=15
41056 Par ch=9 c=1 v=16
41064 Par ch=9 c=1 v=17
41076 Par ch=9 c=1 v=18
41084 Par ch=9 c=1 v=19
41092 Par ch=9 c=1 v=20
41104 Par ch=9 c=1 v=21
41112 Par ch=9 c=1 v=22
41120 Par ch=9 c=1 v=23
41132 Par ch=9 c=1 v=24
41140 Par ch=9 c=1 v=25
41152 Par ch=9 c=1 v=26
41160 Par ch=9 c=1 v=27
41168 Par ch=9 c=1 v=28
41180 Par ch=9 c=1 v=29
41188 Par ch=9 c=1 v=30
41196 Par ch=9 c=1 v=31
41208 Par ch=9 c=1 v=32
41216 Par ch=9 c=1 v=33
41228 Par ch=9 c=1 v=34
41236 Par ch=9 c=1 v=35
41244 Par ch=9 c=1 v=36
41256 Par ch=9 c=1 v=37
41264 Par ch=9 c=1 v=38
41276 Par ch=9 c=1 v=39
41284 Par ch=9 c=1 v=40
41292 Par ch=9 c=1 v=41
41304 Par ch=9 c=1 v=42
41312 Par ch=9 c=1 v=43
41320 Par ch=9 c=1 v=44
41332 Par ch=9 c=1 v=45
41340 Par ch=9 c=1 v=46
41352 Par ch=9 c=1 v=47
41360 Par ch=9 c=1 v=48
41368 Par ch=9 c=11 v=110
41372 Par ch=9 c=1 v=49
41380 Par ch=9 c=11 v=100
41384 Par ch=9 c=1 v=50
41388 Par ch=9 c=11 v=90
41392 Par ch=9 c=1 v=51
41396 Par ch=9 c=11 v=80
41400 Par ch=9 c=1 v=52
41408 Par ch=9 c=11 v=70
41412 Par ch=9 c=1 v=53
41416 Par ch=9 c=11 v=70
41420 Par ch=9 c=1 v=54
41424 Par ch=9 c=11 v=60
41428 Par ch=9 c=1 v=55
41432 Par ch=9 c=11 v=50
41436 Par ch=9 c=1 v=56
41440 Par ch=9 c=11 v=40
41444 Par ch=9 c=1 v=57
41448 Par ch=9 c=11 v=30
41452 Par ch=9 c=1 v=58
41456 Par ch=9 c=11 v=20
41460 Par ch=9 c=1 v=59
41464 Par ch=9 c=1 v=60
41468 PrCh ch=9 p=29
41472 Par ch=9 c=1 v=30
41476 On ch=9 n=65 v=0
41476 On ch=9 n=60 v=0
41520 Par ch=9 c=11 v=120
41568 Par ch=9 c=11 v=120
41664 On ch=9 n=65 v=90
41664 On ch=9 n=60 v=90
41676 Par ch=9 c=11 v=119
41684 Par ch=9 c=11 v=118
41696 Par ch=9 c=11 v=117
41704 Par ch=9 c=11 v=116
41712 Par ch=9 c=11 v=115
41724 Par ch=9 c=11 v=114
41732 Par ch=9 c=11 v=113
41740 Par ch=9 c=11 v=112
41752 Par ch=9 c=11 v=111
41760 Par ch=9 c=11 v=110
41768 Par ch=9 c=11 v=109
41780 Par ch=9 c=11 v=108
41788 Par ch=9 c=11 v=107
41796 Par ch=9 c=11 v=106
41808 Par ch=9 c=11 v=105
41816 Par ch=9 c=11 v=104
41824 Par ch=9 c=11 v=103
41836 Par ch=9 c=11 v=102
41840 Par ch=9 c=11 v=101
41844 Par ch=9 c=11 v=100
41848 Par ch=9 c=11 v=120
41852 Pb ch=9 v=8192
41856 On ch=9 n=65 v=0
41856 On ch=9 n=60 v=0
41856 On ch=9 n=65 v=90
41856 On ch=9 n=60 v=90
41936 Pb ch=9 v=8320
41944 Pb ch=9 v=8448
41952 Pb ch=9 v=8576
41956 Pb ch=9 v=8704
41960 Pb ch=9 v=8832
41964 Pb ch=9 v=8960
41968 Pb ch=9 v=9216
41972 Pb ch=9 v=9600
42032 Pb ch=9 v=9600
42040 Pb ch=9 v=9472
42044 Pb ch=9 v=9216
42048 Pb ch=9 v=8960
42052 Pb ch=9 v=8192
42056 On ch=9 n=65 v=0
42056 On ch=9 n=60 v=0
42056 Par ch=9 c=1 v=40
42152 Par ch=9 c=11 v=120
42240 On ch=9 n=60 v=90
42240 On ch=9 n=55 v=90
42256 Par ch=9 c=11 v=119
42268 Par ch=9 c=11 v=118
42280 Par ch=9 c=11 v=117
42292 Par ch=9 c=11 v=116
42304 Par ch=9 c=11 v=115
42316 Par ch=9 c=11 v=114
42328 Par ch=9 c=11 v=113
42344 Par ch=9 c=11 v=112
42356 Par ch=9 c=11 v=111
42368 Par ch=9 c=11 v=110
42380 Par ch=9 c=11 v=109
42392 Par ch=9 c=11 v=108
42404 Par ch=9 c=11 v=107
42412 Par ch=9 c=11 v=106
42420 Par ch=9 c=11 v=105
42424 Par ch=9 c=11 v=120
42428 Pb ch=9 v=8192
42432 On ch=9 n=60 v=0
42432 On ch=9 n=55 v=0
42432 On ch=9 n=60 v=90
42432 On ch=9 n=55 v=90
42520 Pb ch=9 v=8320
42528 Pb ch=9 v=8448
42536 Pb ch=9 v=8576
42540 Pb ch=9 v=8704
42544 Pb ch=9 v=8832
42548 Pb ch=9 v=8960
42552 Pb ch=9 v=9216
42556 Pb ch=9 v=9600
42564 Par ch=9 c=1 v=17
42568 Par ch=9 c=1 v=18
42572 Par ch=9 c=1 v=19
42576 Par ch=9 c=1 v=20
42580 Par ch=9 c=1 v=21
42584 Par ch=9 c=1 v=22
42588 Par ch=9 c=1 v=23
42592 Par ch=9 c=1 v=24
42596 Par ch=9 c=1 v=25
42600 Par ch=9 c=1 v=26
42604 Par ch=9 c=1 v=27
42608 Par ch=9 c=1 v=28
42612 Par ch=9 c=1 v=29
42616 Par ch=9 c=1 v=30
42620 Par ch=9 c=1 v=31
42624 Par ch=9 c=1 v=32
42628 Par ch=9 c=1 v=33
42632 Par ch=9 c=1 v=34
42636 Par ch=9 c=1 v=35
42640 Par ch=9 c=1 v=36
42644 Par ch=9 c=1 v=37
42648 Par ch=9 c=1 v=38
42652 Par ch=9 c=1 v=39
42656 Par ch=9 c=1 v=40
42660 Par ch=9 c=1 v=41
42664 Par ch=9 c=1 v=42
42668 Par ch=9 c=1 v=43
42672 Par ch=9 c=1 v=44
42676 Par ch=9 c=1 v=45
42680 Par ch=9 c=1 v=46
42684 Par ch=9 c=1 v=47
42688 Par ch=9 c=1 v=48
42692 Par ch=9 c=1 v=49
42696 Par ch=9 c=1 v=50
42700 Par ch=9 c=1 v=51
42704 Par ch=9 c=1 v=52
42708 Par ch=9 c=1 v=53
42712 Par ch=9 c=1 v=54
42716 Par ch=9 c=1 v=55
42720 Par ch=9 c=1 v=56
42724 Par ch=9 c=1 v=57
42728 Par ch=9 c=1 v=58
42732 Par ch=9 c=1 v=59
42736 Par ch=9 c=1 v=60
42740 Par ch=9 c=1 v=61
42744 Par ch=9 c=1 v=62
42748 Par ch=9 c=1 v=63
42752 Par ch=9 c=1 v=64
42756 Par ch=9 c=1 v=65
42760 Par ch=9 c=1 v=66
42764 Par ch=9 c=1 v=67
42768 Par ch=9 c=1 v=68
42772 Par ch=9 c=1 v=69
42776 Par ch=9 c=1 v=70
42780 Par ch=9 c=1 v=71
42784 Par ch=9 c=1 v=72
42788 Par ch=9 c=1 v=73
42792 Par ch=9 c=1 v=74
42796 Par ch=9 c=1 v=75
42800 Par ch=9 c=1 v=76
42804 Par ch=9 c=1 v=77
42808 Par ch=9 c=1 v=78
42812 Par ch=9 c=1 v=79
42816 Par ch=9 c=1 v=80
42820 Par ch=9 c=1 v=81
42824 Par ch=9 c=1 v=82
42828 Par ch=9 c=1 v=83
42832 Par ch=9 c=1 v=84
42836 Par ch=9 c=1 v=85
42840 Par ch=9 c=1 v=86
42844 Par ch=9 c=1 v=87
42848 Par ch=9 c=1 v=88
42852 Par ch=9 c=1 v=89
42856 Par ch=9 c=1 v=90
42860 Par ch=9 c=1 v=91
42864 Par ch=9 c=1 v=92
42868 Par ch=9 c=1 v=93
42872 Par ch=9 c=1 v=94
42876 Par ch=9 c=1 v=95
42880 Par ch=9 c=1 v=96
42884 Par ch=9 c=1 v=97
42888 Par ch=9 c=1 v=98
42892 Par ch=9 c=1 v=99
42896 Par ch=9 c=1 v=100
42900 Par ch=9 c=1 v=101
42904 Par ch=9 c=1 v=102
42908 Par ch=9 c=1 v=103
42912 Par ch=9 c=1 v=104
42916 Par ch=9 c=1 v=105
42920 Par ch=9 c=1 v=106
42924 Par ch=9 c=1 v=107
42928 Par ch=9 c=1 v=108
42932 Par ch=9 c=1 v=109
42936 Par ch=9 c=1 v=110
42940 Par ch=9 c=1 v=111
42944 Par ch=9 c=1 v=112
42948 Par ch=9 c=1 v=113
42952 Par ch=9 c=11 v=115
42956 Par ch=9 c=1 v=114
42960 Par ch=9 c=11 v=110
42964 Par ch=9 c=1 v=115
42968 Par ch=9 c=11 v=100
42972 Par ch=9 c=1 v=116
42976 Par ch=9 c=11 v=90
42980 Par ch=9 c=1 v=117
42984 Par ch=9 c=11 v=80
42988 Par ch=9 c=1 v=118
42992 Par ch=9 c=11 v=70
42996 Par ch=9 c=11 v=60
43000 On ch=9 n=60 v=0
43000 On ch=9 n=55 v=0
43000 Par ch=9 c=1 v=120
43004 Pb ch=9 v=8192
43008 PrCh ch=9 p=29
43192 Par ch=9 c=1 v=30
43196 Par ch=9 c=11 v=120
43200 On ch=9 n=65 v=90
43200 On ch=9 n=60 v=90
43224 Par ch=9 c=11 v=119
43228 Par ch=9 c=11 v=118
43232 Par ch=9 c=11 v=117
43236 Par ch=9 c=11 v=116
43240 Par ch=9 c=11 v=115
43244 Par ch=9 c=11 v=114
43248 Par ch=9 c=11 v=113
43252 Par ch=9 c=11 v=112
43256 Par ch=9 c=11 v=111
43260 Par ch=9 c=11 v=110
43264 Par ch=9 c=11 v=109
43268 Par ch=9 c=11 v=108
43272 Par ch=9 c=11 v=107
43276 Par ch=9 c=11 v=106
43280 Par ch=9 c=11 v=105
43284 Par ch=9 c=11 v=104
43288 Par ch=9 c=11 v=103
43292 Par ch=9 c=11 v=102
43296 Par ch=9 c=11 v=101
43300 Par ch=9 c=11 v=100
43304 Par ch=9 c=11 v=99
43308 Par ch=9 c=11 v=98
43312 Par ch=9 c=11 v=97
43316 Par ch=9 c=11 v=96
43320 Par ch=9 c=11 v=95
43324 Par ch=9 c=11 v=94
43328 Par ch=9 c=11 v=93
43332 Par ch=9 c=11 v=92
43336 Par ch=9 c=11 v=91
43340 Par ch=9 c=11 v=90
43344 Par ch=9 c=11 v=89
43348 Par ch=9 c=11 v=88
43352 Par ch=9 c=11 v=87
43356 Par ch=9 c=11 v=86
43360 Par ch=9 c=11 v=85
43364 Par ch=9 c=11 v=84
43368 Par ch=9 c=11 v=83
43372 Par ch=9 c=11 v=82
43376 Par ch=9 c=11 v=81
43380 Par ch=9 c=11 v=80
43384 Par ch=9 c=11 v=120
43388 Pb ch=9 v=8192
43392 On ch=9 n=65 v=0
43392 On ch=9 n=60 v=0
43392 On ch=9 n=65 v=90
43392 On ch=9 n=60 v=90
43488 Pb ch=9 v=9601
43552 Pb ch=9 v=9600
43580 Pb ch=9 v=9472
43584 Par ch=9 c=11 v=110
43588 Pb ch=9 v=9216
43592 Par ch=9 c=11 v=90
43596 On ch=9 n=65 v=0
43596 On ch=9 n=60 v=0
43596 Pb ch=9 v=8960
43600 Par ch=9 c=11 v=60
43604 Pb ch=9 v=8192
43608 Par ch=9 c=11 v=120
43696 Par ch=9 c=1 v=30
43776 On ch=9 n=65 v=90
43776 On ch=9 n=60 v=90
43852 Pb ch=9 v=9600
43856 Par ch=9 c=11 v=119
43872 Par ch=9 c=11 v=118
43884 Par ch=9 c=11 v=117
43896 Par ch=9 c=11 v=116
43908 Par ch=9 c=11 v=115
43912 Par ch=9 c=11 v=114
43916 Par ch=9 c=11 v=113
43920 Par ch=9 c=11 v=112
43924 Par ch=9 c=11 v=110
43928 Par ch=9 c=11 v=109
43932 Par ch=9 c=11 v=106
43936 Par ch=9 c=11 v=104
43940 Par ch=9 c=11 v=101
43944 Par ch=9 c=11 v=98
43948 Par ch=9 c=11 v=94
43952 Par ch=9 c=11 v=89
43956 Par ch=9 c=11 v=83
43960 Par ch=9 c=11 v=77
43964 Par ch=9 c=11 v=70
43968 Par ch=9 c=11 v=60
44020 On ch=9 n=65 v=0
44020 On ch=9 n=60 v=0
44052 Par ch=9 c=11 v=120
44056 Pb ch=9 v=8192
44060 Par ch=9 c=1 v=20
44064 On ch=9 n=65 v=90
44064 On ch=9 n=60 v=90
44068 Par ch=9 c=1 v=23
44072 Par ch=9 c=1 v=25
44076 Par ch=9 c=1 v=26
44080 Par ch=9 c=1 v=28
44084 Par ch=9 c=1 v=29
44088 Par ch=9 c=1 v=30
44092 Par ch=9 c=1 v=32
44096 Par ch=9 c=1 v=33
44100 Par ch=9 c=1 v=35
44104 Par ch=9 c=1 v=36
44108 Par ch=9 c=1 v=37
44112 Par ch=9 c=1 v=38
44116 Par ch=9 c=1 v=39
44120 Par ch=9 c=1 v=40
44124 Par ch=9 c=1 v=41
44128 Par ch=9 c=1 v=42
44132 Par ch=9 c=1 v=43
44140 Par ch=9 c=1 v=44
44144 Par ch=9 c=1 v=45
44148 Par ch=9 c=1 v=46
44156 Par ch=9 c=1 v=47
44160 Par ch=9 c=1 v=48
44168 Par ch=9 c=1 v=49
44176 Par ch=9 c=1 v=50
44184 Par ch=9 c=1 v=51
44192 Par ch=9 c=1 v=52
44200 Par ch=9 c=1 v=53
44216 Par ch=9 c=1 v=54
44224 Par ch=9 c=1 v=55
44244 Par ch=9 c=1 v=56
44260 Par ch=9 c=1 v=57
44284 Par ch=9 c=1 v=58
44320 Par ch=9 c=1 v=59
44376 Par ch=9 c=1 v=60
44540 Par ch=9 c=1 v=0
44544 On ch=9 n=65 v=0
44544 On ch=9 n=60 v=0
56832 PrCh ch=9 p=54
57792 On ch=9 n=57 v=55
57980 Pb ch=9 v=7296
57984 On ch=9 n=76 v=112
57988 Pb ch=9 v=7424
57992 On ch=9 n=57 v=0
57992 Pb ch=9 v=7552
57996 Pb ch=9 v=7680
58004 Pb ch=9 v=7808
58012 Pb ch=9 v=7936
58028 Pb ch=9 v=8064
58052 Pb ch=9 v=8192
58176 On ch=9 n=73 v=95
58184 On ch=9 n=76 v=0
58364 Par ch=9 c=11 v=120
58368 On ch=9 n=69 v=85
58368 On ch=9 n=59 v=45
58376 On ch=9 n=73 v=0
58560 On ch=9 n=57 v=40
58568 On ch=9 n=59 v=0
58752 On ch=9 n=52 v=35
58760 On ch=9 n=57 v=0
58944 On ch=9 n=69 v=0
58944 Par ch=9 c=11 v=119
58952 On ch=9 n=52 v=0
58952 Par ch=9 c=11 v=118
58956 Par ch=9 c=11 v=117
58960 Par ch=9 c=11 v=116
58964 Par ch=9 c=11 v=115
58972 Par ch=9 c=11 v=114
58976 Par ch=9 c=11 v=113
58980 Par ch=9 c=11 v=112
58984 Par ch=9 c=11 v=111
58988 Par ch=9 c=11 v=110
58992 Par ch=9 c=11 v=109
58996 Par ch=9 c=11 v=108
59000 Par ch=9 c=11 v=107
59004 Par ch=9 c=11 v=106
59008 Par ch=9 c=11 v=105
59012 Par ch=9 c=11 v=104
59016 Par ch=9 c=11 v=103
59020 Par ch=9 c=11 v=102
59024 Par ch=9 c=11 v=101
59028 Par ch=9 c=11 v=100
59032 Par ch=9 c=11 v=99
59036 Par ch=9 c=11 v=98
59040 Par ch=9 c=11 v=97
59044 Par ch=9 c=11 v=96
59048 Par ch=9 c=11 v=95
59052 Par ch=9 c=11 v=94
59056 Par ch=9 c=11 v=93
59060 Par ch=9 c=11 v=91
59064 Par ch=9 c=11 v=90
59068 Par ch=9 c=11 v=89
59072 Par ch=9 c=11 v=87
59076 Par ch=9 c=11 v=85
59080 Par ch=9 c=11 v=83
59084 Par ch=9 c=11 v=82
59088 Par ch=9 c=11 v=80
59092 Par ch=9 c=11 v=79
59096 Par ch=9 c=11 v=77
59100 Par ch=9 c=11 v=75
59104 Par ch=9 c=11 v=73
59108 Par ch=9 c=11 v=71
59112 Par ch=9 c=11 v=70
59116 Par ch=9 c=11 v=68
59120 Par ch=9 c=11 v=66
59124 Par ch=9 c=11 v=63
59128 Par ch=9 c=11 v=60
59132 Par ch=9 c=11 v=120
59136 On ch=9 n=57 v=65
59520 On ch=9 n=55 v=65
59528 On ch=9 n=57 v=0
59904 PrCh ch=9 p=54
59912 On ch=9 n=55 v=0
60864 On ch=9 n=57 v=55
61052 Pb ch=9 v=7296
61056 On ch=9 n=57 v=0
61056 On ch=9 n=76 v=112
61060 Pb ch=9 v=7424
61064 Pb ch=9 v=7552
61068 Pb ch=9 v=7680
61076 Pb ch=9 v=7808
61084 Pb ch=9 v=7936
61100 Pb ch=9 v=8064
61124 Pb ch=9 v=8192
61248 On ch=9 n=76 v=0
61248 On ch=9 n=73 v=95
61440 On ch=9 n=73 v=0
61440 On ch=9 n=69 v=85
62112 On ch=9 n=69 v=0
62112 On ch=9 n=67 v=85
62204 Par ch=9 c=11 v=120
62224 Par ch=9 c=11 v=119
62240 Par ch=9 c=11 v=118
62252 Par ch=9 c=11 v=117
62268 Par ch=9 c=11 v=116
62280 Par ch=9 c=11 v=115
62296 Par ch=9 c=11 v=114
62312 Par ch=9 c=11 v=113
62324 Par ch=9 c=11 v=112
62340 Par ch=9 c=11 v=111
62352 Par ch=9 c=11 v=110
62368 Par ch=9 c=11 v=109
62380 Par ch=9 c=11 v=108
62396 Par ch=9 c=11 v=107
62412 Par ch=9 c=11 v=106
62424 Par ch=9 c=11 v=105
62440 Par ch=9 c=11 v=104
62452 Par ch=9 c=11 v=103
62468 Par ch=9 c=11 v=102
62484 Par ch=9 c=11 v=101
62496 Par ch=9 c=11 v=100
62512 Par ch=9 c=11 v=99
62524 Par ch=9 c=11 v=98
62540 Par ch=9 c=11 v=97
62552 Par ch=9 c=11 v=96
62568 Par ch=9 c=11 v=95
62584 Par ch=9 c=11 v=94
62596 Par ch=9 c=11 v=93
62612 Par ch=9 c=11 v=92
62624 Par ch=9 c=11 v=91
62640 Par ch=9 c=11 v=90
62656 Par ch=9 c=11 v=89
62668 Par ch=9 c=11 v=88
62684 Par ch=9 c=11 v=87
62696 Par ch=9 c=11 v=86
62712 Par ch=9 c=11 v=85
62724 Par ch=9 c=11 v=84
62740 Par ch=9 c=11 v=83
62756 Par ch=9 c=11 v=82
62768 Par ch=9 c=11 v=81
62784 Par ch=9 c=11 v=80
62796 Par ch=9 c=11 v=79
62812 Par ch=9 c=11 v=78
62828 Par ch=9 c=11 v=77
62840 Par ch=9 c=11 v=76
62856 Par ch=9 c=11 v=75
62868 Par ch=9 c=11 v=74
62884 Par ch=9 c=11 v=73
62896 Par ch=9 c=11 v=72
62912 Par ch=9 c=11 v=71
62928 Par ch=9 c=11 v=70
62940 Par ch=9 c=11 v=69
62956 Par ch=9 c=11 v=68
62968 Par ch=9 c=11 v=67
62984 Par ch=9 c=11 v=66
63000 Par ch=9 c=11 v=65
63012 Par ch=9 c=11 v=64
63028 Par ch=9 c=11 v=63
63040 Par ch=9 c=11 v=62
63056 Par ch=9 c=11 v=61
63068 Par ch=9 c=11 v=60
63072 On ch=9 n=67 v=0
63736 Par ch=9 c=11 v=120
63740 PrCh ch=9 p=29
63928 Par ch=9 c=1 v=30
63932 Par ch=9 c=11 v=120
63936 On ch=9 n=65 v=90
63936 On ch=9 n=60 v=90
63960 Par ch=9 c=11 v=119
63964 Par ch=9 c=11 v=118
63968 Par ch=9 c=11 v=117
63972 Par ch=9 c=11 v=116
63976 Par ch=9 c=11 v=115
63980 Par ch=9 c=11 v=114
63984 Par ch=9 c=11 v=113
63988 Par ch=9 c=11 v=112
63992 Par ch=9 c=11 v=111
63996 Par ch=9 c=11 v=110
64000 Par ch=9 c=11 v=109
64004 Par ch=9 c=11 v=108
64008 Par ch=9 c=11 v=107
64012 Par ch=9 c=11 v=106
64016 Par ch=9 c=11 v=105
64020 Par ch=9 c=11 v=104
64024 Par ch=9 c=11 v=103
64028 Par ch=9 c=11 v=102
64032 Par ch=9 c=11 v=101
64036 Par ch=9 c=11 v=100
64040 Par ch=9 c=11 v=99
64044 Par ch=9 c=11 v=98
64048 Par ch=9 c=11 v=97
64052 Par ch=9 c=11 v=96
64056 Par ch=9 c=11 v=95
64060 Par ch=9 c=11 v=94
64064 Par ch=9 c=11 v=93
64068 Par ch=9 c=11 v=92
64072 Par ch=9 c=11 v=91
64076 Par ch=9 c=11 v=90
64080 Par ch=9 c=11 v=89
64084 Par ch=9 c=11 v=88
64088 Par ch=9 c=11 v=87
64092 Par ch=9 c=11 v=86
64096 Par ch=9 c=11 v=85
64100 Par ch=9 c=11 v=84
64104 Par ch=9 c=11 v=83
64108 Par ch=9 c=11 v=82
64112 Par ch=9 c=11 v=81
64116 Par ch=9 c=11 v=80
64120 Par ch=9 c=11 v=120
64124 Pb ch=9 v=8192
64128 On ch=9 n=65 v=0
64128 On ch=9 n=60 v=0
64128 On ch=9 n=65 v=90
64128 On ch=9 n=60 v=90
64224 Pb ch=9 v=8320
64228 Pb ch=9 v=8576
64232 Pb ch=9 v=8704
64236 Pb ch=9 v=8832
64240 Pb ch=9 v=8960
64244 Pb ch=9 v=9216
64248 Pb ch=9 v=9600
64312 Pb ch=9 v=9600
64324 Pb ch=9 v=9472
64328 Pb ch=9 v=9088
64332 Pb ch=9 v=8592
64336 Par ch=9 c=11 v=100
64340 On ch=9 n=65 v=0
64340 On ch=9 n=60 v=0
64340 Pb ch=9 v=8320
64344 Par ch=9 c=11 v=30
64348 Pb ch=9 v=8192
64352 Par ch=9 c=11 v=120
64512 On ch=9 n=60 v=90
64512 On ch=9 n=55 v=90
64524 Par ch=9 c=11 v=119
64532 Par ch=9 c=11 v=118
64544 Par ch=9 c=11 v=117
64552 Par ch=9 c=11 v=116
64560 Par ch=9 c=11 v=115
64572 Par ch=9 c=11 v=114
64580 Par ch=9 c=11 v=113
64588 Par ch=9 c=11 v=112
64600 Par ch=9 c=11 v=111
64608 Par ch=9 c=11 v=110
64616 Par ch=9 c=11 v=109
64628 Par ch=9 c=11 v=108
64636 Par ch=9 c=11 v=107
64644 Par ch=9 c=11 v=106
64656 Par ch=9 c=11 v=105
64664 Par ch=9 c=11 v=104
64672 Par ch=9 c=11 v=103
64680 Par ch=9 c=11 v=102
64684 Par ch=9 c=11 v=101
64688 Par ch=9 c=11 v=100
64692 Par ch=9 c=11 v=120
64696 Par ch=9 c=1 v=80
64700 Pb ch=9 v=8192
64704 On ch=9 n=60 v=0
64704 On ch=9 n=55 v=0
64704 On ch=9 n=60 v=90
64704 On ch=9 n=55 v=90
64768 Pb ch=9 v=8320
64776 Pb ch=9 v=8448
64784 Pb ch=9 v=8576
64788 Pb ch=9 v=8704
64792 Pb ch=9 v=8832
64796 Pb ch=9 v=8960
64800 Pb ch=9 v=9216
64804 Pb ch=9 v=9600
64808 On ch=9 n=60 v=0
64808 On ch=9 n=55 v=0
64808 On ch=9 n=60 v=85
64808 On ch=9 n=55 v=85
65124 Pb ch=9 v=9600
65232 Pb ch=9 v=9792
65236 Pb ch=9 v=9088
65240 Par ch=9 c=11 v=110
65244 Pb ch=9 v=10192
65248 Par ch=9 c=11 v=100
65252 Pb ch=9 v=10692
65256 Par ch=9 c=11 v=90
65260 Pb ch=9 v=11192
65264 Pb ch=9 v=8192
65268 On ch=9 n=60 v=0
65268 On ch=9 n=55 v=0
65280 PrCh ch=9 p=29
65464 Par ch=9 c=1 v=30
65468 Par ch=9 c=11 v=120
65472 On ch=9 n=65 v=90
65472 On ch=9 n=60 v=90
65484 Par ch=9 c=11 v=119
65492 Par ch=9 c=11 v=118
65504 Par ch=9 c=11 v=117
65512 Par ch=9 c=11 v=116
65520 Par ch=9 c=11 v=115
65532 Par ch=9 c=11 v=114
65540 Par ch=9 c=11 v=113
65548 Par ch=9 c=11 v=112
65560 Par ch=9 c=11 v=111
65568 Par ch=9 c=11 v=110
65576 Par ch=9 c=11 v=109
65588 Par ch=9 c=11 v=108
65596 Par ch=9 c=11 v=107
65604 Par ch=9 c=11 v=106
65616 Par ch=9 c=11 v=105
65624 Par ch=9 c=11 v=104
65632 Par ch=9 c=11 v=103
65640 Par ch=9 c=11 v=102
65648 Par ch=9 c=11 v=101
65652 Par ch=9 c=11 v=100
65656 Par ch=9 c=11 v=120
65660 Pb ch=9 v=8192
65664 On ch=9 n=65 v=0
65664 On ch=9 n=60 v=0
65664 On ch=9 n=65 v=90
65664 On ch=9 n=60 v=90
65752 Pb ch=9 v=8320
65756 Pb ch=9 v=8448
65760 Pb ch=9 v=8576
65764 Pb ch=9 v=8704
65768 Pb ch=9 v=8832
65772 Pb ch=9 v=8960
65776 Pb ch=9 v=9216
65780 Pb ch=9 v=9600
65852 Pb ch=9 v=9600
65860 Pb ch=9 v=9472
65864 Pb ch=9 v=8992
65868 Pb ch=9 v=8192
65872 On ch=9 n=65 v=0
65872 On ch=9 n=60 v=0
66040 Par ch=9 c=1 v=40
66044 Pb ch=9 v=8192
66048 On ch=9 n=65 v=90
66048 On ch=9 n=60 v=90
66088 Pb ch=9 v=8320
66100 Pb ch=9 v=8448
66104 Pb ch=9 v=8576
66108 Pb ch=9 v=8704
66112 Pb ch=9 v=8960
66116 Pb ch=9 v=9216
66120 Pb ch=9 v=9600
66124 Par ch=9 c=11 v=119
66152 Par ch=9 c=11 v=118
66172 Par ch=9 c=11 v=117
66184 Par ch=9 c=11 v=116
66196 Par ch=9 c=11 v=115
66204 Par ch=9 c=11 v=114
66208 Par ch=9 c=11 v=113
66216 Par ch=9 c=11 v=112
66220 Par ch=9 c=11 v=111
66224 Par ch=9 c=11 v=110
66228 Par ch=9 c=11 v=109
66232 Par ch=9 c=11 v=107
66240 Par ch=9 c=11 v=106
66244 Par ch=9 c=11 v=105
66252 Par ch=9 c=11 v=103
66256 Par ch=9 c=11 v=101
66264 Par ch=9 c=11 v=99
66268 Par ch=9 c=11 v=97
66276 Par ch=9 c=11 v=94
66280 Par ch=9 c=11 v=92
66284 Par ch=9 c=11 v=88
66288 Par ch=9 c=11 v=84
66292 Par ch=9 c=11 v=81
66296 Par ch=9 c=11 v=77
66300 Par ch=9 c=11 v=72
66304 Par ch=9 c=11 v=67
66308 Par ch=9 c=11 v=61
66312 Par ch=9 c=11 v=54
66316 Par ch=9 c=11 v=48
66320 Par ch=9 c=11 v=40
66324 Par ch=9 c=11 v=30
66328 Par ch=9 c=11 v=120
66332 Pb ch=9 v=8192
66336 On ch=9 n=65 v=0
66336 On ch=9 n=60 v=0
66336 On ch=9 n=65 v=90
66336 On ch=9 n=60 v=90
66348 Par ch=9 c=1 v=11
66356 Par ch=9 c=1 v=12
66368 Par ch=9 c=1 v=13
66376 Par ch=9 c=1 v=14
66384 Par ch=9 c=1 v=15
66396 Par ch=9 c=1 v=16
66408 Par ch=9 c=1 v=17
66420 Par ch=9 c=1 v=18
66428 Par ch=9 c=1 v=19
66440 Par ch=9 c=1 v=20
66452 Par ch=9 c=1 v=21
66460 Par ch=9 c=1 v=22
66468 Par ch=9 c=1 v=23
66480 Par ch=9 c=1 v=24
66488 Par ch=9 c=1 v=25
66500 Par ch=9 c=1 v=26
66508 Par ch=9 c=1 v=27
66520 Par ch=9 c=1 v=28
66532 Par ch=9 c=1 v=29
66540 Par ch=9 c=1 v=30
66552 Par ch=9 c=1 v=31
66564 Par ch=9 c=1 v=32
66572 Par ch=9 c=1 v=33
66584 Par ch=9 c=1 v=34
66592 Par ch=9 c=1 v=35
66600 Par ch=9 c=1 v=36
66612 Par ch=9 c=1 v=37
66620 Par ch=9 c=1 v=38
66632 Par ch=9 c=1 v=39
66640 Par ch=9 c=1 v=40
66648 Par ch=9 c=1 v=41
66660 Par ch=9 c=1 v=42
66668 Par ch=9 c=1 v=43
66676 Par ch=9 c=1 v=44
66688 Par ch=9 c=1 v=45
66696 Par ch=9 c=1 v=46
66708 Par ch=9 c=1 v=47
66716 Par ch=9 c=1 v=48
66724 Par ch=9 c=1 v=49
66728 Par ch=9 c=11 v=110
66732 Par ch=9 c=1 v=50
66736 Par ch=9 c=11 v=105
66740 Par ch=9 c=1 v=51
66744 Par ch=9 c=11 v=95
66748 Par ch=9 c=1 v=52
66752 Par ch=9 c=11 v=95
66756 Par ch=9 c=1 v=53
66760 Par ch=9 c=11 v=90
66764 Par ch=9 c=1 v=54
66768 Par ch=9 c=11 v=85
66772 Par ch=9 c=1 v=55
66776 Par ch=9 c=11 v=80
66780 Par ch=9 c=1 v=56
66784 Par ch=9 c=11 v=75
66788 Par ch=9 c=1 v=57
66792 Par ch=9 c=11 v=70
66796 Par ch=9 c=1 v=58
66800 Par ch=9 c=11 v=65
66804 Par ch=9 c=1 v=59
66808 Par ch=9 c=1 v=60
66812 PrCh ch=9 p=29
66816 On ch=9 n=65 v=0
66816 On ch=9 n=60 v=0
66996 Par ch=9 c=1 v=30
67000 Par ch=9 c=11 v=120
67004 Par ch=9 c=11 v=120
67008 On ch=9 n=65 v=90
67008 On ch=9 n=60 v=90
67020 Par ch=9 c=11 v=119
67028 Par ch=9 c=11 v=118
67040 Par ch=9 c=11 v=117
67048 Par ch=9 c=11 v=116
67056 Par ch=9 c=11 v=115
67068 Par ch=9 c=11 v=114
67076 Par ch=9 c=11 v=113
67084 Par ch=9 c=11 v=112
67096 Par ch=9 c=11 v=111
67104 Par ch=9 c=11 v=110
67112 Par ch=9 c=11 v=109
67124 Par ch=9 c=11 v=108
67132 Par ch=9 c=11 v=107
67140 Par ch=9 c=11 v=106
67152 Par ch=9 c=11 v=105
67160 Par ch=9 c=11 v=104
67168 Par ch=9 c=11 v=103
67176 Par ch=9 c=11 v=102
67184 Par ch=9 c=11 v=101
67188 Par ch=9 c=11 v=100
67192 Par ch=9 c=11 v=120
67196 Pb ch=9 v=8192
67200 On ch=9 n=65 v=0
67200 On ch=9 n=60 v=0
67200 On ch=9 n=65 v=90
67200 On ch=9 n=60 v=90
67284 Pb ch=9 v=8320
67292 Pb ch=9 v=8448
67300 Pb ch=9 v=8576
67308 Pb ch=9 v=8704
67312 Pb ch=9 v=8832
67316 Pb ch=9 v=8960
67320 Pb ch=9 v=9088
67324 Pb ch=9 v=9344
67328 Pb ch=9 v=9600
67364 On ch=9 n=65 v=0
67364 On ch=9 n=60 v=0
67572 Pb ch=9 v=8192
67576 Par ch=9 c=1 v=50
67580 Par ch=9 c=11 v=120
67584 On ch=9 n=60 v=90
67584 On ch=9 n=55 v=90
67600 Par ch=9 c=11 v=119
67612 Par ch=9 c=11 v=118
67624 Par ch=9 c=11 v=117
67636 Par ch=9 c=11 v=116
67648 Par ch=9 c=11 v=115
67660 Par ch=9 c=11 v=114
67672 Par ch=9 c=11 v=113
67688 Par ch=9 c=11 v=112
67700 Par ch=9 c=11 v=111
67712 Par ch=9 c=11 v=110
67724 Par ch=9 c=11 v=109
67736 Par ch=9 c=11 v=108
67748 Par ch=9 c=11 v=107
67756 Par ch=9 c=11 v=106
67764 Par ch=9 c=11 v=105
67768 Par ch=9 c=11 v=120
67772 Pb ch=9 v=8192
67776 On ch=9 n=60 v=0
67776 On ch=9 n=55 v=0
67776 On ch=9 n=60 v=90
67776 On ch=9 n=55 v=90
67856 Pb ch=9 v=8320
67860 Pb ch=9 v=8448
67864 Pb ch=9 v=8576
67868 Pb ch=9 v=8704
67872 Pb ch=9 v=8832
67876 Pb ch=9 v=8960
67880 Pb ch=9 v=9216
67884 Pb ch=9 v=9600
67888 Par ch=9 c=1 v=30
67892 Par ch=9 c=11 v=120
67896 On ch=9 n=60 v=0
67896 On ch=9 n=55 v=0
67896 On ch=9 n=60 v=90
67896 On ch=9 n=55 v=90
67960 Par ch=9 c=11 v=119
68004 Par ch=9 c=11 v=118
68032 Par ch=9 c=11 v=117
68056 Par ch=9 c=11 v=116
68072 Par ch=9 c=11 v=115
68088 Par ch=9 c=11 v=114
68100 Par ch=9 c=11 v=113
68116 Par ch=9 c=11 v=112
68124 Par ch=9 c=11 v=111
68132 Par ch=9 c=11 v=110
68140 Par ch=9 c=11 v=109
68148 Par ch=9 c=11 v=108
68152 Par ch=9 c=11 v=107
68160 Par ch=9 c=11 v=106
68164 Par ch=9 c=11 v=105
68172 Par ch=9 c=11 v=104
68176 Par ch=9 c=11 v=103
68180 Par ch=9 c=11 v=101
68184 Par ch=9 c=11 v=100
68188 Par ch=9 c=11 v=99
68192 Par ch=9 c=11 v=98
68196 Par ch=9 c=11 v=97
68200 Par ch=9 c=11 v=95
68204 Par ch=9 c=11 v=94
68208 Par ch=9 c=11 v=93
68212 Par ch=9 c=11 v=91
68216 Par ch=9 c=11 v=90
68220 Par ch=9 c=11 v=89
68224 Par ch=9 c=11 v=87
68228 Par ch=9 c=11 v=85
68232 Par ch=9 c=11 v=83
68236 Par ch=9 c=11 v=82
68240 Par ch=9 c=11 v=80
68244 Par ch=9 c=11 v=78
68248 Par ch=9 c=11 v=76
68252 Par ch=9 c=11 v=75
68256 Par ch=9 c=11 v=71
68260 Par ch=9 c=11 v=69
68264 Par ch=9 c=11 v=67
68268 Par ch=9 c=11 v=65
68272 Par ch=9 c=11 v=62
68276 Par ch=9 c=11 v=60
68280 Par ch=9 c=11 v=55
68284 Par ch=9 c=11 v=53
68288 Par ch=9 c=11 v=49
68292 Par ch=9 c=11 v=46
68296 Par ch=9 c=11 v=43
68300 Par ch=9 c=11 v=39
68304 Par ch=9 c=11 v=36
68308 Par ch=9 c=11 v=30
68312 Par ch=9 c=11 v=26
68316 Par ch=9 c=11 v=22
68320 Par ch=9 c=11 v=18
68324 Par ch=9 c=11 v=13
68328 Par ch=9 c=11 v=8
68332 Par ch=9 c=11 v=0
68336 Pb ch=9 v=8192
68340 PrCh ch=9 p=29
68352 Par ch=9 c=1 v=30
68376 On ch=9 n=60 v=0
68376 On ch=9 n=55 v=0
68448 Par ch=9 c=11 v=120
68544 On ch=9 n=65 v=90
68544 On ch=9 n=60 v=90
68568 Par ch=9 c=11 v=119
68572 Par ch=9 c=11 v=118
68576 Par ch=9 c=11 v=117
68580 Par ch=9 c=11 v=116
68584 Par ch=9 c=11 v=115
68588 Par ch=9 c=11 v=114
68592 Par ch=9 c=11 v=113
68596 Par ch=9 c=11 v=112
68600 Par ch=9 c=11 v=111
68604 Par ch=9 c=11 v=110
68608 Par ch=9 c=11 v=109
68612 Par ch=9 c=11 v=108
68616 Par ch=9 c=11 v=107
68620 Par ch=9 c=11 v=106
68624 Par ch=9 c=11 v=105
68628 Par ch=9 c=11 v=104
68632 Par ch=9 c=11 v=103
68636 Par ch=9 c=11 v=102
68640 Par ch=9 c=11 v=101
68644 Par ch=9 c=11 v=100
68648 Par ch=9 c=11 v=99
68652 Par ch=9 c=11 v=98
68656 Par ch=9 c=11 v=97
68660 Par ch=9 c=11 v=96
68664 Par ch=9 c=11 v=95
68668 Par ch=9 c=11 v=94
68672 Par ch=9 c=11 v=93
68676 Par ch=9 c=11 v=92
68680 Par ch=9 c=11 v=91
68684 Par ch=9 c=11 v=90
68688 Par ch=9 c=11 v=89
68692 Par ch=9 c=11 v=88
68696 Par ch=9 c=11 v=87
68700 Par ch=9 c=11 v=86
68704 Par ch=9 c=11 v=85
68708 Par ch=9 c=11 v=84
68712 Par ch=9 c=11 v=83
68716 Par ch=9 c=11 v=82
68720 Par ch=9 c=11 v=81
68724 Par ch=9 c=11 v=80
68728 Par ch=9 c=11 v=120
68732 Pb ch=9 v=8192
68736 On ch=9 n=65 v=0
68736 On ch=9 n=60 v=0
68736 On ch=9 n=65 v=90
68736 On ch=9 n=60 v=90
68820 Pb ch=9 v=8320
68828 Pb ch=9 v=8448
68832 Pb ch=9 v=8576
68836 Pb ch=9 v=8704
68840 Pb ch=9 v=8832
68844 Pb ch=9 v=8960
68848 Pb ch=9 v=9088
68852 Pb ch=9 v=9344
68856 Pb ch=9 v=9600
68860 Pb ch=9 v=9600
68880 Pb ch=9 v=9492
68888 Pb ch=9 v=9292
68896 On ch=9 n=65 v=0
68896 On ch=9 n=60 v=0
69108 Pb ch=9 v=8192
69112 Par ch=9 c=1 v=40
69116 Pb ch=9 v=8192
69120 On ch=9 n=65 v=105
69120 On ch=9 n=60 v=90
69140 Pb ch=9 v=8320
69144 Pb ch=9 v=8448
69148 Pb ch=9 v=8576
69152 Pb ch=9 v=8960
69156 Pb ch=9 v=9600
69160 Par ch=9 c=11 v=120
69244 Par ch=9 c=11 v=119
69256 Par ch=9 c=11 v=118
69268 Par ch=9 c=11 v=117
69276 Par ch=9 c=11 v=116
69288 Par ch=9 c=11 v=115
69296 Par ch=9 c=11 v=114
69300 Par ch=9 c=11 v=113
69308 Par ch=9 c=11 v=112
69312 Par ch=9 c=11 v=110
69320 Par ch=9 c=11 v=109
69328 Par ch=9 c=11 v=106
69336 Par ch=9 c=11 v=104
69344 Par ch=9 c=11 v=101
69352 Par ch=9 c=11 v=98
69360 Par ch=9 c=11 v=94
69368 Par ch=9 c=11 v=89
69376 Par ch=9 c=11 v=83
69384 Par ch=9 c=11 v=77
69388 Par ch=9 c=11 v=70
69392 Par ch=9 c=11 v=60
69396 Pb ch=9 v=8192
69400 Par ch=9 c=11 v=120
69404 Par ch=9 c=1 v=20
69408 On ch=9 n=65 v=0
69408 On ch=9 n=60 v=0
69408 On ch=9 n=65 v=105
69408 On ch=9 n=60 v=90
69412 Par ch=9 c=1 v=23
69416 Par ch=9 c=1 v=25
69420 Par ch=9 c=1 v=26
69424 Par ch=9 c=1 v=28
69428 Par ch=9 c=1 v=29
69432 Par ch=9 c=1 v=30
69436 Par ch=9 c=1 v=32
69440 Par ch=9 c=1 v=33
69444 Par ch=9 c=1 v=35
69448 Par ch=9 c=1 v=36
69452 Par ch=9 c=1 v=37
69456 Par ch=9 c=1 v=38
69460 Par ch=9 c=1 v=39
69464 Par ch=9 c=1 v=40
69468 Par ch=9 c=1 v=41
69472 Par ch=9 c=1 v=42
69476 Par ch=9 c=1 v=43
69484 Par ch=9 c=1 v=44
69488 Par ch=9 c=1 v=45
69492 Par ch=9 c=1 v=46
69500 Par ch=9 c=1 v=47
69504 Par ch=9 c=1 v=48
69512 Par ch=9 c=1 v=49
69520 Par ch=9 c=1 v=50
69528 Par ch=9 c=1 v=51
69536 Par ch=9 c=1 v=52
69544 Par ch=9 c=1 v=53
69560 Par ch=9 c=1 v=54
69568 Par ch=9 c=1 v=55
69588 Par ch=9 c=1 v=56
69604 Par ch=9 c=1 v=57
69628 Par ch=9 c=1 v=58
69664 Par ch=9 c=1 v=59
69720 Par ch=9 c=1 v=60
69884 Par ch=9 c=1 v=0
69888 On ch=9 n=65 v=0
69888 On ch=9 n=60 v=0
69888 Meta TrkEnd
TrkEnd
MTrk
0 Meta TrkName "RHYTHM OF LOVE  "
192 Par ch=2 c=121 v=0
196 Par ch=2 c=100 v=0
200 Par ch=2 c=101 v=0
204 Par ch=2 c=6 v=12
208 Par ch=2 c=7 v=122
212 Par ch=2 c=11 v=120
216 Par ch=2 c=10 v=40
384 Par ch=2 c=0 v=0
388 Par ch=2 c=32 v=0
392 PrCh ch=2 p=38
396 Par ch=2 c=91 v=20
400 Par ch=2 c=127 v=0
12672 On ch=2 n=23 v=120
13056 On ch=2 n=23 v=0
13056 On ch=2 n=26 v=112
13128 On ch=2 n=26 v=0
13152 On ch=2 n=26 v=102
13224 On ch=2 n=26 v=0
13248 On ch=2 n=26 v=117
13320 On ch=2 n=26 v=0
13344 On ch=2 n=26 v=102
13416 On ch=2 n=26 v=0
13440 On ch=2 n=26 v=112
13512 On ch=2 n=26 v=0
13536 On ch=2 n=26 v=102
13608 On ch=2 n=26 v=0
13632 On ch=2 n=26 v=117
13704 On ch=2 n=26 v=0
13728 On ch=2 n=26 v=112
13800 On ch=2 n=26 v=0
13824 On ch=2 n=26 v=112
13896 On ch=2 n=26 v=0
13920 On ch=2 n=26 v=102
13992 On ch=2 n=26 v=0
14016 On ch=2 n=26 v=122
14088 On ch=2 n=26 v=0
14112 On ch=2 n=26 v=102
14184 On ch=2 n=26 v=0
14208 On ch=2 n=26 v=112
14280 On ch=2 n=26 v=0
14304 On ch=2 n=26 v=102
14376 On ch=2 n=26 v=0
14400 On ch=2 n=26 v=117
14472 On ch=2 n=26 v=0
14496 On ch=2 n=26 v=112
14568 On ch=2 n=26 v=0
14592 On ch=2 n=31 v=112
14664 On ch=2 n=31 v=0
14688 On ch=2 n=31 v=102
14760 On ch=2 n=31 v=0
14784 On ch=2 n=31 v=117
14856 On ch=2 n=31 v=0
14880 On ch=2 n=31 v=102
14952 On ch=2 n=31 v=0
14976 On ch=2 n=31 v=112
15048 On ch=2 n=31 v=0
15072 On ch=2 n=31 v=102
15144 On ch=2 n=31 v=0
15168 On ch=2 n=31 v=117
15240 On ch=2 n=31 v=0
15264 On ch=2 n=31 v=112
15336 On ch=2 n=31 v=0
15360 On ch=2 n=31 v=112
15432 On ch=2 n=31 v=0
15456 On ch=2 n=31 v=102
15528 On ch=2 n=31 v=0
15552 On ch=2 n=31 v=122
15624 On ch=2 n=31 v=0
15648 On ch=2 n=31 v=102
15720 On ch=2 n=31 v=0
15744 On ch=2 n=31 v=112
15816 On ch=2 n=31 v=0
15840 On ch=2 n=31 v=102
15912 On ch=2 n=31 v=0
15936 On ch=2 n=31 v=117
16008 On ch=2 n=31 v=0
16032 On ch=2 n=31 v=112
16104 On ch=2 n=31 v=0
16128 On ch=2 n=26 v=112
16200 On ch=2 n=26 v=0
16224 On ch=2 n=26 v=102
16296 On ch=2 n=26 v=0
16320 On ch=2 n=26 v=117
16392 On ch=2 n=26 v=0
16416 On ch=2 n=26 v=102
16488 On ch=2 n=26 v=0
16512 On ch=2 n=26 v=112
16584 On ch=2 n=26 v=0
16608 On ch=2 n=26 v=102
16680 On ch=2 n=26 v=0
16704 On ch=2 n=26 v=117
16776 On ch=2 n=26 v=0
16800 On ch=2 n=26 v=112
16872 On ch=2 n=26 v=0
16896 On ch=2 n=26 v=112
16968 On ch=2 n=26 v=0
16992 On ch=2 n=26 v=102
17064 On ch=2 n=26 v=0
17088 On ch=2 n=26 v=122
17160 On ch=2 n=26 v=0
17184 On ch=2 n=26 v=102
17256 On ch=2 n=26 v=0
17280 On ch=2 n=26 v=112
17352 On ch=2 n=26 v=0
17376 On ch=2 n=26 v=102
17448 On ch=2 n=26 v=0
17472 On ch=2 n=26 v=117
17544 On ch=2 n=26 v=0
17568 On ch=2 n=26 v=112
17640 On ch=2 n=26 v=0
17664 On ch=2 n=31 v=112
17736 On ch=2 n=31 v=0
17760 On ch=2 n=31 v=102
17832 On ch=2 n=31 v=0
17856 On ch=2 n=31 v=112
17928 On ch=2 n=31 v=0
17952 On ch=2 n=31 v=102
18024 On ch=2 n=31 v=0
18048 On ch=2 n=31 v=112
18120 On ch=2 n=31 v=0
18144 On ch=2 n=43 v=97
18240 On ch=2 n=43 v=0
18240 On ch=2 n=44 v=102
18312 On ch=2 n=44 v=0
18336 On ch=2 n=45 v=107
18408 On ch=2 n=45 v=0
18432 On ch=2 n=36 v=112
18504 On ch=2 n=36 v=0
18528 On ch=2 n=37 v=102
18600 On ch=2 n=37 v=0
18624 On ch=2 n=38 v=112
18696 On ch=2 n=38 v=0
18720 On ch=2 n=29 v=102
18792 On ch=2 n=29 v=0
18816 On ch=2 n=30 v=112
18888 On ch=2 n=30 v=0
18912 On ch=2 n=31 v=112
18948 Pb ch=2 v=8064
18960 Pb ch=2 v=7936
18968 Pb ch=2 v=7808
18972 Pb ch=2 v=7680
18976 Pb ch=2 v=7552
18980 Pb ch=2 v=7424
18984 Pb ch=2 v=7296
18988 Pb ch=2 v=7168
18992 Pb ch=2 v=7040
18996 Pb ch=2 v=6912
19000 Pb ch=2 v=6784
19004 On ch=2 n=31 v=0
19004 Pb ch=2 v=8192
19008 On ch=2 n=24 v=117
19080 On ch=2 n=24 v=0
19104 On ch=2 n=26 v=112
19176 On ch=2 n=26 v=0
19200 On ch=2 n=26 v=112
19272 On ch=2 n=26 v=0
19296 On ch=2 n=26 v=102
19368 On ch=2 n=26 v=0
19392 On ch=2 n=33 v=112
19464 On ch=2 n=33 v=0
19488 On ch=2 n=26 v=102
19560 On ch=2 n=26 v=0
19584 On ch=2 n=36 v=112
19656 On ch=2 n=36 v=0
19680 On ch=2 n=26 v=102
19840 On ch=2 n=26 v=0
19872 On ch=2 n=38 v=117
19968 On ch=2 n=26 v=112
19972 On ch=2 n=38 v=0
20048 On ch=2 n=26 v=0
20064 On ch=2 n=36 v=102
20136 On ch=2 n=36 v=0
20160 On ch=2 n=26 v=102
20232 On ch=2 n=26 v=0
20256 On ch=2 n=38 v=107
20328 On ch=2 n=38 v=0
20352 On ch=2 n=38 v=112
20424 On ch=2 n=38 v=0
20448 On ch=2 n=28 v=102
20544 On ch=2 n=28 v=0
20544 On ch=2 n=38 v=107
20616 On ch=2 n=38 v=0
20640 On ch=2 n=43 v=107
20712 On ch=2 n=43 v=0
20736 On ch=2 n=43 v=112
20808 On ch=2 n=43 v=0
20832 On ch=2 n=43 v=107
20912 On ch=2 n=43 v=0
20928 On ch=2 n=31 v=102
21024 On ch=2 n=31 v=0
21024 On ch=2 n=43 v=107
21096 On ch=2 n=43 v=0
21120 On ch=2 n=41 v=117
21216 On ch=2 n=41 v=0
21216 On ch=2 n=43 v=107
21344 On ch=2 n=43 v=0
21408 On ch=2 n=43 v=112
21480 On ch=2 n=43 v=0
21504 On ch=2 n=43 v=112
21600 On ch=2 n=43 v=0
21600 On ch=2 n=38 v=112
21696 On ch=2 n=38 v=0
21792 On ch=2 n=41 v=102
21872 On ch=2 n=41 v=0
21888 On ch=2 n=41 v=112
21968 On ch=2 n=41 v=0
21984 On ch=2 n=43 v=107
22064 On ch=2 n=43 v=0
22080 On ch=2 n=43 v=112
22160 On ch=2 n=43 v=0
22176 On ch=2 n=38 v=102
22256 On ch=2 n=38 v=0
22272 On ch=2 n=26 v=112
22344 On ch=2 n=26 v=0
22368 On ch=2 n=26 v=102
22440 On ch=2 n=26 v=0
22464 On ch=2 n=33 v=112
22560 On ch=2 n=33 v=0
22560 On ch=2 n=26 v=102
22632 On ch=2 n=26 v=0
22656 On ch=2 n=36 v=112
22752 On ch=2 n=36 v=0
22752 On ch=2 n=26 v=102
22880 On ch=2 n=26 v=0
22944 On ch=2 n=38 v=117
23136 On ch=2 n=38 v=0
23136 On ch=2 n=26 v=102
23232 On ch=2 n=26 v=0
23328 On ch=2 n=36 v=107
23408 On ch=2 n=36 v=0
23424 On ch=2 n=36 v=112
23504 On ch=2 n=36 v=0
23520 On ch=2 n=26 v=102
23600 On ch=2 n=26 v=0
23616 On ch=2 n=36 v=107
23696 On ch=2 n=36 v=0
23712 On ch=2 n=43 v=107
23792 On ch=2 n=43 v=0
23808 On ch=2 n=43 v=117
23888 On ch=2 n=43 v=0
23904 On ch=2 n=43 v=102
24000 On ch=2 n=43 v=0
24000 On ch=2 n=31 v=102
24080 On ch=2 n=31 v=0
24096 On ch=2 n=43 v=107
24176 On ch=2 n=43 v=0
24192 On ch=2 n=41 v=117
24288 On ch=2 n=41 v=0
24288 On ch=2 n=43 v=107
24416 On ch=2 n=43 v=0
24480 On ch=2 n=43 v=112
24560 On ch=2 n=43 v=0
24576 On ch=2 n=43 v=112
24656 On ch=2 n=43 v=0
24672 On ch=2 n=38 v=112
24768 On ch=2 n=38 v=0
24864 On ch=2 n=41 v=102
24944 On ch=2 n=41 v=0
24960 On ch=2 n=41 v=112
25048 On ch=2 n=41 v=0
25056 On ch=2 n=43 v=107
25144 On ch=2 n=43 v=0
25152 On ch=2 n=43 v=112
25232 On ch=2 n=43 v=0
25248 On ch=2 n=38 v=102
25328 On ch=2 n=38 v=0
25344 On ch=2 n=26 v=114
25424 On ch=2 n=26 v=0
25440 On ch=2 n=26 v=104
25520 On ch=2 n=26 v=0
25536 On ch=2 n=33 v=114
25616 On ch=2 n=33 v=0
25632 On ch=2 n=26 v=104
25712 On ch=2 n=26 v=0
25728 On ch=2 n=36 v=114
25808 On ch=2 n=36 v=0
25824 On ch=2 n=26 v=104
25968 On ch=2 n=26 v=0
26016 On ch=2 n=38 v=119
26192 On ch=2 n=38 v=0
26208 On ch=2 n=26 v=104
26288 On ch=2 n=26 v=0
26304 On ch=2 n=26 v=104
26384 On ch=2 n=26 v=0
26400 On ch=2 n=36 v=109
26480 On ch=2 n=36 v=0
26496 On ch=2 n=36 v=114
26576 On ch=2 n=36 v=0
26592 On ch=2 n=26 v=104
26672 On ch=2 n=26 v=0
26688 On ch=2 n=36 v=109
26768 On ch=2 n=36 v=0
26784 On ch=2 n=43 v=109
26864 On ch=2 n=43 v=0
26880 On ch=2 n=43 v=114
26960 On ch=2 n=43 v=0
26976 On ch=2 n=43 v=109
27056 On ch=2 n=43 v=0
27072 On ch=2 n=31 v=104
27152 On ch=2 n=31 v=0
27168 On ch=2 n=43 v=109
27248 On ch=2 n=43 v=0
27264 On ch=2 n=41 v=119
27360 On ch=2 n=41 v=0
27360 On ch=2 n=43 v=109
27488 On ch=2 n=43 v=0
27552 On ch=2 n=43 v=114
27632 On ch=2 n=43 v=0
27744 On ch=2 n=38 v=114
27840 On ch=2 n=38 v=0
27936 On ch=2 n=41 v=104
28016 On ch=2 n=41 v=0
28032 On ch=2 n=41 v=114
28128 On ch=2 n=41 v=0
28128 On ch=2 n=43 v=109
28212 On ch=2 n=43 v=0
28224 On ch=2 n=43 v=114
28320 On ch=2 n=43 v=0
28320 On ch=2 n=38 v=104
28400 On ch=2 n=38 v=0
28416 On ch=2 n=26 v=114
28496 On ch=2 n=26 v=0
28512 On ch=2 n=26 v=104
28592 On ch=2 n=26 v=0
28608 On ch=2 n=33 v=114
28688 On ch=2 n=33 v=0
28704 On ch=2 n=26 v=104
28784 On ch=2 n=26 v=0
28800 On ch=2 n=36 v=114
28880 On ch=2 n=36 v=0
28896 On ch=2 n=26 v=104
29024 On ch=2 n=26 v=0
29088 On ch=2 n=38 v=119
29184 On ch=2 n=26 v=114
29188 On ch=2 n=38 v=0
29272 On ch=2 n=26 v=0
29280 On ch=2 n=33 v=104
29360 On ch=2 n=33 v=0
29472 On ch=2 n=36 v=109
29552 On ch=2 n=36 v=0
29568 On ch=2 n=36 v=114
29648 On ch=2 n=36 v=0
29664 On ch=2 n=26 v=104
29744 On ch=2 n=26 v=0
29760 On ch=2 n=36 v=109
29840 On ch=2 n=36 v=0
29856 On ch=2 n=43 v=109
29936 On ch=2 n=43 v=0
29952 On ch=2 n=43 v=114
30040 On ch=2 n=43 v=0
30048 On ch=2 n=43 v=109
30136 On ch=2 n=43 v=0
30144 On ch=2 n=43 v=115
30232 On ch=2 n=43 v=0
30240 On ch=2 n=43 v=109
30328 On ch=2 n=43 v=0
30336 On ch=2 n=41 v=119
30424 On ch=2 n=41 v=0
30432 On ch=2 n=43 v=109
30560 On ch=2 n=43 v=0
30624 On ch=2 n=43 v=114
30696 Pb ch=2 v=8064
30724 Pb ch=2 v=7936
30732 Pb ch=2 v=7808
30740 Pb ch=2 v=7680
30748 Pb ch=2 v=7552
30752 Pb ch=2 v=7424
30756 Pb ch=2 v=7296
30760 Pb ch=2 v=7168
30764 Pb ch=2 v=7040
30768 Pb ch=2 v=6912
30772 Pb ch=2 v=6656
30776 Pb ch=2 v=6528
30780 Pb ch=2 v=6272
30784 Pb ch=2 v=6016
30788 Pb ch=2 v=5760
30792 Pb ch=2 v=5376
30796 Pb ch=2 v=5120
30800 Pb ch=2 v=4608
30804 Pb ch=2 v=4224
30808 Pb ch=2 v=3584
30812 On ch=2 n=43 v=0
30812 Pb ch=2 v=8192
30816 On ch=2 n=43 v=107
30912 On ch=2 n=43 v=0
30912 On ch=2 n=45 v=107
30968 On ch=2 n=45 v=0
31008 On ch=2 n=36 v=112
31104 On ch=2 n=36 v=0
31104 On ch=2 n=37 v=107
31200 On ch=2 n=37 v=0
31200 On ch=2 n=38 v=107
31296 On ch=2 n=38 v=0
31296 On ch=2 n=31 v=107
31392 On ch=2 n=31 v=0
31392 On ch=2 n=32 v=107
31488 On ch=2 n=32 v=0
31488 On ch=2 n=33 v=117
33024 On ch=2 n=33 v=0
33024 Pb ch=2 v=7509
33024 On ch=2 n=52 v=117
33028 Pb ch=2 v=7509
33040 Pb ch=2 v=8192
33792 On ch=2 n=52 v=0
33792 On ch=2 n=45 v=117
33808 On ch=2 n=45 v=0
33808 On ch=2 n=47 v=92
34068 On ch=2 n=47 v=0
34080 On ch=2 n=43 v=117
34216 Pb ch=2 v=8064
34244 Pb ch=2 v=7936
34264 Pb ch=2 v=7680
34284 Pb ch=2 v=7424
34300 Pb ch=2 v=7168
34312 Pb ch=2 v=6912
34320 Pb ch=2 v=6656
34324 Par ch=2 c=11 v=110
34328 Par ch=2 c=11 v=100
34332 Pb ch=2 v=6272
34336 Par ch=2 c=11 v=80
34340 Par ch=2 c=11 v=70
34344 Pb ch=2 v=6016
34348 Par ch=2 c=11 v=60
34352 Par ch=2 c=11 v=50
34356 Pb ch=2 v=5504
34360 Pb ch=2 v=8192
34364 Par ch=2 c=11 v=120
34368 On ch=2 n=38 v=117
34372 On ch=2 n=43 v=0
34456 Pb ch=2 v=8064
34472 Pb ch=2 v=7936
34484 Pb ch=2 v=7808
34496 Pb ch=2 v=7680
34504 Pb ch=2 v=7552
34508 Pb ch=2 v=7424
34516 Pb ch=2 v=7296
34520 Pb ch=2 v=7168
34524 Pb ch=2 v=7040
34528 Pb ch=2 v=6784
34532 Pb ch=2 v=6656
34536 Pb ch=2 v=6400
34540 Pb ch=2 v=6272
34544 Pb ch=2 v=5888
34548 Pb ch=2 v=5632
34552 Pb ch=2 v=5248
34556 On ch=2 n=38 v=0
34556 Pb ch=2 v=8192
34560 On ch=2 n=33 v=117
34840 On ch=2 n=33 v=0
34848 On ch=2 n=33 v=112
34944 On ch=2 n=33 v=0
34944 On ch=2 n=33 v=117
35184 On ch=2 n=33 v=0
35328 On ch=2 n=33 v=122
35608 On ch=2 n=33 v=0
35616 On ch=2 n=33 v=112
35712 On ch=2 n=33 v=0
35712 On ch=2 n=33 v=117
35952 On ch=2 n=33 v=0
36096 On ch=2 n=33 v=117
36376 On ch=2 n=33 v=0
36384 On ch=2 n=33 v=112
36480 On ch=2 n=33 v=0
36480 On ch=2 n=33 v=117
36672 On ch=2 n=33 v=0
36768 On ch=2 n=33 v=117
36864 Pb ch=2 v=9792
36956 Pb ch=2 v=8192
36960 On ch=2 n=33 v=0
36960 On ch=2 n=35 v=117
37020 Pb ch=2 v=8292
37052 Pb ch=2 v=8392
37064 Pb ch=2 v=8792
37072 Pb ch=2 v=8892
37080 Pb ch=2 v=8992
37084 Pb ch=2 v=9592
37092 Pb ch=2 v=9992
37096 Pb ch=2 v=10292
37148 Pb ch=2 v=8192
37152 On ch=2 n=35 v=0
37152 On ch=2 n=38 v=117
37344 On ch=2 n=38 v=0
37344 On ch=2 n=43 v=117
37496 Pb ch=2 v=8392
37500 Pb ch=2 v=8592
37504 Pb ch=2 v=8792
37508 Pb ch=2 v=8992
37512 Pb ch=2 v=9192
37516 Pb ch=2 v=9392
37520 Pb ch=2 v=9592
37524 Pb ch=2 v=9792
37528 Pb ch=2 v=10192
37532 Pb ch=2 v=10492
37536 Pb ch=2 v=10892
37628 Pb ch=2 v=8192
37632 On ch=2 n=43 v=0
37632 On ch=2 n=50 v=117
37728 On ch=2 n=50 v=0
38400 On ch=2 n=26 v=117
38592 On ch=2 n=26 v=0
38688 On ch=2 n=24 v=112
38776 On ch=2 n=24 v=0
38784 On ch=2 n=26 v=117
39008 On ch=2 n=26 v=0
39072 On ch=2 n=26 v=112
39160 On ch=2 n=26 v=0
39168 On ch=2 n=26 v=117
39360 On ch=2 n=26 v=0
39456 On ch=2 n=24 v=112
39544 On ch=2 n=24 v=0
39552 On ch=2 n=26 v=117
39640 On ch=2 n=26 v=0
39648 On ch=2 n=26 v=117
39744 On ch=2 n=26 v=0
39840 On ch=2 n=26 v=112
39912 On ch=2 n=26 v=0
39936 On ch=2 n=31 v=117
40176 On ch=2 n=31 v=0
40224 On ch=2 n=31 v=112
40320 On ch=2 n=31 v=0
40416 On ch=2 n=31 v=117
40496 On ch=2 n=31 v=0
40512 On ch=2 n=35 v=117
40692 On ch=2 n=35 v=0
40800 On ch=2 n=35 v=117
40888 On ch=2 n=35 v=0
40992 On ch=2 n=36 v=117
41080 On ch=2 n=36 v=0
41088 On ch=2 n=36 v=117
41184 On ch=2 n=36 v=0
41280 On ch=2 n=37 v=117
41376 On ch=2 n=37 v=0
41472 On ch=2 n=38 v=117
41568 On ch=2 n=38 v=0
41568 On ch=2 n=36 v=112
41664 On ch=2 n=36 v=0
41664 On ch=2 n=33 v=117
41704 On ch=2 n=33 v=0
41760 On ch=2 n=26 v=122
41856 On ch=2 n=26 v=0
41856 On ch=2 n=26 v=112
42048 On ch=2 n=26 v=0
42144 On ch=2 n=26 v=112
42232 On ch=2 n=26 v=0
42240 On ch=2 n=38 v=112
42480 On ch=2 n=38 v=0
42528 On ch=2 n=36 v=112
42624 On ch=2 n=36 v=0
42624 On ch=2 n=36 v=117
42704 On ch=2 n=36 v=0
42720 On ch=2 n=38 v=112
42912 On ch=2 n=38 v=0
42912 On ch=2 n=38 v=102
42976 On ch=2 n=38 v=0
43008 On ch=2 n=31 v=117
43088 On ch=2 n=31 v=0
43104 On ch=2 n=31 v=112
43176 On ch=2 n=31 v=0
43200 On ch=2 n=31 v=122
43280 On ch=2 n=31 v=0
43296 On ch=2 n=31 v=112
43368 On ch=2 n=31 v=0
43392 On ch=2 n=31 v=117
43472 On ch=2 n=31 v=0
43488 On ch=2 n=31 v=112
43560 On ch=2 n=31 v=0
43584 On ch=2 n=31 v=122
43664 On ch=2 n=31 v=0
43680 On ch=2 n=31 v=112
43752 On ch=2 n=31 v=0
43776 On ch=2 n=31 v=117
43856 On ch=2 n=31 v=0
43872 On ch=2 n=31 v=112
43944 On ch=2 n=31 v=0
43968 On ch=2 n=23 v=122
44160 On ch=2 n=24 v=112
44168 On ch=2 n=23 v=0
44352 On ch=2 n=25 v=112
44360 On ch=2 n=24 v=0
44544 On ch=2 n=26 v=112
44552 On ch=2 n=25 v=0
44608 On ch=2 n=26 v=0
44640 On ch=2 n=26 v=102
44704 On ch=2 n=26 v=0
44736 On ch=2 n=26 v=112
44800 On ch=2 n=26 v=0
44832 On ch=2 n=26 v=102
44896 On ch=2 n=26 v=0
44928 On ch=2 n=26 v=112
44992 On ch=2 n=26 v=0
45024 On ch=2 n=26 v=102
45088 On ch=2 n=26 v=0
45120 On ch=2 n=26 v=102
45184 On ch=2 n=26 v=0
45216 On ch=2 n=26 v=117
45280 On ch=2 n=26 v=0
45312 On ch=2 n=26 v=102
45376 On ch=2 n=26 v=0
45408 On ch=2 n=26 v=102
45472 On ch=2 n=26 v=0
45504 On ch=2 n=26 v=102
45568 On ch=2 n=26 v=0
45600 On ch=2 n=26 v=102
45664 On ch=2 n=26 v=0
45696 On ch=2 n=26 v=112
45760 On ch=2 n=26 v=0
45792 On ch=2 n=26 v=102
45856 On ch=2 n=26 v=0
45888 On ch=2 n=26 v=102
45952 On ch=2 n=26 v=0
45984 On ch=2 n=30 v=102
46072 On ch=2 n=30 v=0
46080 On ch=2 n=31 v=112
46144 On ch=2 n=31 v=0
46176 On ch=2 n=31 v=102
46240 On ch=2 n=31 v=0
46272 On ch=2 n=31 v=102
46336 On ch=2 n=31 v=0
46368 On ch=2 n=31 v=102
46432 On ch=2 n=31 v=0
46464 On ch=2 n=31 v=112
46528 On ch=2 n=31 v=0
46560 On ch=2 n=31 v=102
46624 On ch=2 n=31 v=0
46656 On ch=2 n=31 v=102
46720 On ch=2 n=31 v=0
46752 On ch=2 n=31 v=102
46816 On ch=2 n=31 v=0
46848 On ch=2 n=31 v=112
46912 On ch=2 n=31 v=0
46944 On ch=2 n=31 v=102
47008 On ch=2 n=31 v=0
47040 On ch=2 n=31 v=102
47104 On ch=2 n=31 v=0
47136 On ch=2 n=31 v=102
47200 On ch=2 n=31 v=0
47232 On ch=2 n=31 v=112
47296 On ch=2 n=31 v=0
47328 On ch=2 n=31 v=102
47392 On ch=2 n=31 v=0
47424 On ch=2 n=31 v=102
47488 On ch=2 n=31 v=0
47520 On ch=2 n=26 v=112
47608 On ch=2 n=26 v=0
47616 On ch=2 n=26 v=112
47680 On ch=2 n=26 v=0
47712 On ch=2 n=26 v=102
47776 On ch=2 n=26 v=0
47808 On ch=2 n=26 v=102
47872 On ch=2 n=26 v=0
47904 On ch=2 n=26 v=102
47968 On ch=2 n=26 v=0
48000 On ch=2 n=26 v=102
48064 On ch=2 n=26 v=0
48096 On ch=2 n=26 v=102
48160 On ch=2 n=26 v=0
48192 On ch=2 n=26 v=102
48256 On ch=2 n=26 v=0
48288 On ch=2 n=26 v=102
48352 On ch=2 n=26 v=0
48384 On ch=2 n=26 v=112
48448 On ch=2 n=26 v=0
48480 On ch=2 n=26 v=102
48544 On ch=2 n=26 v=0
48576 On ch=2 n=26 v=102
48640 On ch=2 n=26 v=0
48672 On ch=2 n=26 v=102
48736 On ch=2 n=26 v=0
48768 On ch=2 n=26 v=112
48832 On ch=2 n=26 v=0
48864 On ch=2 n=26 v=102
48928 On ch=2 n=26 v=0
48960 On ch=2 n=26 v=102
49024 On ch=2 n=26 v=0
49056 On ch=2 n=31 v=102
49144 On ch=2 n=31 v=0
49152 On ch=2 n=31 v=112
49216 On ch=2 n=31 v=0
49248 On ch=2 n=31 v=102
49312 On ch=2 n=31 v=0
49344 On ch=2 n=31 v=102
49408 On ch=2 n=31 v=0
49440 On ch=2 n=31 v=102
49504 On ch=2 n=31 v=0
49536 On ch=2 n=42 v=112
49600 On ch=2 n=42 v=0
49632 On ch=2 n=43 v=102
49696 On ch=2 n=43 v=0
49728 On ch=2 n=44 v=102
49792 On ch=2 n=44 v=0
49824 On ch=2 n=45 v=102
49888 On ch=2 n=45 v=0
49920 On ch=2 n=36 v=112
49984 On ch=2 n=36 v=0
50016 On ch=2 n=37 v=102
50080 On ch=2 n=37 v=0
50112 On ch=2 n=38 v=102
50176 On ch=2 n=38 v=0
50208 On ch=2 n=31 v=112
50272 On ch=2 n=31 v=0
50304 On ch=2 n=32 v=102
50368 On ch=2 n=32 v=0
50400 On ch=2 n=33 v=102
50496 On ch=2 n=33 v=0
50496 On ch=2 n=24 v=112
50576 On ch=2 n=24 v=0
50592 On ch=2 n=26 v=112
50672 On ch=2 n=26 v=0
50688 On ch=2 n=26 v=112
50784 On ch=2 n=26 v=0
50784 On ch=2 n=26 v=107
50880 On ch=2 n=26 v=0
50880 On ch=2 n=33 v=107
50976 On ch=2 n=33 v=0
50976 On ch=2 n=26 v=107
51072 On ch=2 n=26 v=0
51072 On ch=2 n=36 v=89
51168 On ch=2 n=36 v=0
51168 On ch=2 n=26 v=107
51360 On ch=2 n=26 v=0
51360 On ch=2 n=38 v=112
51456 On ch=2 n=26 v=112
51460 On ch=2 n=38 v=0
51544 On ch=2 n=26 v=0
51552 On ch=2 n=26 v=107
51640 On ch=2 n=26 v=0
51648 On ch=2 n=26 v=107
51736 On ch=2 n=26 v=0
51744 On ch=2 n=36 v=107
51832 On ch=2 n=36 v=0
51840 On ch=2 n=36 v=107
51928 On ch=2 n=36 v=0
51936 On ch=2 n=26 v=107
52024 On ch=2 n=26 v=0
52032 On ch=2 n=36 v=107
52120 On ch=2 n=36 v=0
52128 On ch=2 n=43 v=107
52216 On ch=2 n=43 v=0
52224 On ch=2 n=43 v=112
52320 On ch=2 n=43 v=0
52320 On ch=2 n=43 v=107
52416 On ch=2 n=43 v=0
52416 On ch=2 n=31 v=107
52504 On ch=2 n=31 v=0
52512 On ch=2 n=43 v=107
52600 On ch=2 n=43 v=0
52608 On ch=2 n=41 v=112
52696 On ch=2 n=41 v=0
52704 On ch=2 n=43 v=107
52888 On ch=2 n=43 v=0
52896 On ch=2 n=43 v=107
52984 On ch=2 n=43 v=0
53088 On ch=2 n=43 v=102
53184 On ch=2 n=43 v=0
53280 On ch=2 n=31 v=117
53376 On ch=2 n=31 v=0
53376 On ch=2 n=32 v=107
53472 On ch=2 n=32 v=0
53472 On ch=2 n=33 v=107
53552 On ch=2 n=33 v=0
53568 On ch=2 n=24 v=117
53664 On ch=2 n=24 v=0
53664 On ch=2 n=26 v=102
53824 On ch=2 n=26 v=0
53856 On ch=2 n=26 v=102
53920 On ch=2 n=26 v=0
53952 On ch=2 n=26 v=102
54016 On ch=2 n=26 v=0
54048 On ch=2 n=26 v=102
54112 On ch=2 n=26 v=0
54144 On ch=2 n=26 v=112
54208 On ch=2 n=26 v=0
54240 On ch=2 n=26 v=102
54304 On ch=2 n=26 v=0
54336 On ch=2 n=26 v=102
54400 On ch=2 n=26 v=0
54432 On ch=2 n=26 v=107
54496 On ch=2 n=26 v=0
54528 On ch=2 n=26 v=112
54592 On ch=2 n=26 v=0
54624 On ch=2 n=26 v=102
54688 On ch=2 n=26 v=0
54720 On ch=2 n=26 v=102
54784 On ch=2 n=26 v=0
54816 On ch=2 n=26 v=102
54880 On ch=2 n=26 v=0
54912 On ch=2 n=26 v=102
54976 On ch=2 n=26 v=0
55008 On ch=2 n=26 v=102
55072 On ch=2 n=26 v=0
55104 On ch=2 n=26 v=102
55168 On ch=2 n=26 v=0
55200 On ch=2 n=26 v=92
55264 On ch=2 n=26 v=0
55296 On ch=2 n=31 v=102
55376 On ch=2 n=31 v=0
55392 On ch=2 n=31 v=102
55472 On ch=2 n=31 v=0
55488 On ch=2 n=31 v=102
55568 On ch=2 n=31 v=0
55584 On ch=2 n=31 v=102
55664 On ch=2 n=31 v=0
55680 On ch=2 n=31 v=102
55760 On ch=2 n=31 v=0
55776 On ch=2 n=31 v=112
55880 On ch=2 n=31 v=0
55968 On ch=2 n=31 v=114
56064 On ch=2 n=43 v=92
56068 On ch=2 n=31 v=0
56160 On ch=2 n=43 v=0
56160 On ch=2 n=44 v=94
56256 On ch=2 n=44 v=0
56256 On ch=2 n=45 v=96
56312 On ch=2 n=45 v=0
56352 On ch=2 n=36 v=98
56448 On ch=2 n=36 v=0
56448 On ch=2 n=37 v=100
56544 On ch=2 n=37 v=0
56544 On ch=2 n=38 v=102
56640 On ch=2 n=38 v=0
56640 On ch=2 n=31 v=104
56736 On ch=2 n=31 v=0
56736 On ch=2 n=32 v=106
56832 On ch=2 n=32 v=0
56832 On ch=2 n=33 v=112
57600 On ch=2 n=33 v=0
57600 On ch=2 n=33 v=112
57888 On ch=2 n=33 v=0
57888 On ch=2 n=40 v=107
57976 On ch=2 n=40 v=0
57984 On ch=2 n=33 v=112
58360 On ch=2 n=33 v=0
58368 On ch=2 n=33 v=112
58656 On ch=2 n=33 v=0
58656 On ch=2 n=33 v=102
58752 On ch=2 n=33 v=0
58752 On ch=2 n=33 v=112
59044 Pb ch=2 v=8320
59060 Pb ch=2 v=8448
59068 Pb ch=2 v=8576
59076 Pb ch=2 v=8704
59080 Pb ch=2 v=8832
59088 Pb ch=2 v=8960
59092 Pb ch=2 v=9216
59096 Pb ch=2 v=9344
59100 Pb ch=2 v=9472
59104 Pb ch=2 v=9856
59108 Pb ch=2 v=10112
59112 Pb ch=2 v=10368
59116 Pb ch=2 v=10752
59120 Pb ch=2 v=11264
59124 Pb ch=2 v=11776
59128 Pb ch=2 v=12544
59132 On ch=2 n=33 v=0
59132 Pb ch=2 v=8192
59136 On ch=2 n=45 v=117
59288 Pb ch=2 v=8064
59320 Pb ch=2 v=7936
59340 Pb ch=2 v=7808
59352 Pb ch=2 v=7680
59364 Pb ch=2 v=7552
59372 Pb ch=2 v=7424
59380 Pb ch=2 v=7296
59388 On ch=2 n=45 v=0
59388 Pb ch=2 v=7168
59392 Pb ch=2 v=7040
59396 Pb ch=2 v=6912
59400 Pb ch=2 v=6656
59404 Pb ch=2 v=8192
59408 On ch=2 n=43 v=117
59536 Pb ch=2 v=8064
59568 Pb ch=2 v=7936
59588 Pb ch=2 v=7680
59608 Pb ch=2 v=7424
59624 Pb ch=2 v=7168
59636 Pb ch=2 v=6912
59644 Pb ch=2 v=6656
59648 On ch=2 n=43 v=0
59648 Par ch=2 c=11 v=110
59652 Par ch=2 c=11 v=100
59656 Pb ch=2 v=6272
59660 Par ch=2 c=11 v=80
59664 Par ch=2 c=11 v=70
59668 Pb ch=2 v=6016
59672 Par ch=2 c=11 v=60
59676 Par ch=2 c=11 v=50
59680 Pb ch=2 v=5504
59684 Pb ch=2 v=8192
59688 Par ch=2 c=11 v=120
59692 Pb ch=2 v=8192
59696 On ch=2 n=38 v=117
59800 Pb ch=2 v=8064
59820 Pb ch=2 v=7936
59832 Pb ch=2 v=7808
59844 Pb ch=2 v=7680
59852 Pb ch=2 v=7552
59856 Pb ch=2 v=7424
59860 Pb ch=2 v=7296
59864 Pb ch=2 v=7168
59868 Pb ch=2 v=7040
59872 Pb ch=2 v=6784
59876 Pb ch=2 v=6656
59880 Pb ch=2 v=6400
59884 On ch=2 n=38 v=0
59884 Pb ch=2 v=6272
59888 Pb ch=2 v=5888
59892 Pb ch=2 v=5632
59896 Pb ch=2 v=5248
59900 Pb ch=2 v=8192
59904 On ch=2 n=33 v=117
60160 On ch=2 n=33 v=0
60192 On ch=2 n=33 v=112
60272 On ch=2 n=33 v=0
60288 On ch=2 n=33 v=117
60632 On ch=2 n=33 v=0
60672 On ch=2 n=33 v=122
60952 On ch=2 n=33 v=0
60960 On ch=2 n=33 v=112
61048 On ch=2 n=33 v=0
61056 On ch=2 n=33 v=117
61280 On ch=2 n=33 v=0
61440 On ch=2 n=33 v=117
61712 On ch=2 n=33 v=0
61728 On ch=2 n=33 v=102
61816 On ch=2 n=33 v=0
61824 On ch=2 n=33 v=117
62064 On ch=2 n=33 v=0
62112 On ch=2 n=33 v=92
62208 On ch=2 n=35 v=117
62212 On ch=2 n=33 v=0
62364 Pb ch=2 v=8292
62396 Pb ch=2 v=8392
62408 Pb ch=2 v=8792
62416 Pb ch=2 v=8892
62424 Pb ch=2 v=8992
62428 Pb ch=2 v=9592
62436 Pb ch=2 v=9992
62440 Pb ch=2 v=10292
62484 On ch=2 n=35 v=0
62492 Pb ch=2 v=8192
62496 On ch=2 n=38 v=117
62688 On ch=2 n=38 v=0
62688 On ch=2 n=43 v=117
62776 Pb ch=2 v=8392
62780 Pb ch=2 v=8592
62784 Pb ch=2 v=8792
62788 Pb ch=2 v=8992
62792 Pb ch=2 v=9192
62796 Pb ch=2 v=9392
62800 Pb ch=2 v=9592
62804 Pb ch=2 v=9792
62808 Pb ch=2 v=10192
62812 Pb ch=2 v=10492
62816 Pb ch=2 v=10892
62972 Pb ch=2 v=8192
62976 On ch=2 n=43 v=0
63744 On ch=2 n=26 v=117
63832 On ch=2 n=26 v=0
63840 On ch=2 n=26 v=112
63960 On ch=2 n=26 v=0
64032 On ch=2 n=24 v=102
64128 On ch=2 n=24 v=0
64128 On ch=2 n=26 v=117
64216 On ch=2 n=26 v=0
64224 On ch=2 n=26 v=112
64336 On ch=2 n=26 v=0
64416 On ch=2 n=24 v=102
64504 On ch=2 n=24 v=0
64512 On ch=2 n=26 v=117
64720 On ch=2 n=26 v=0
64800 On ch=2 n=24 v=107
64888 On ch=2 n=24 v=0
64896 On ch=2 n=26 v=117
64992 On ch=2 n=26 v=0
65088 On ch=2 n=24 v=107
65176 On ch=2 n=24 v=0
65184 On ch=2 n=26 v=107
65272 On ch=2 n=26 v=0
65280 On ch=2 n=31 v=112
65504 On ch=2 n=31 v=0
65568 On ch=2 n=31 v=112
65688 On ch=2 n=31 v=0
65760 On ch=2 n=31 v=112
65856 On ch=2 n=31 v=0
65856 On ch=2 n=35 v=112
66036 On ch=2 n=35 v=0
66144 On ch=2 n=35 v=112
66432 On ch=2 n=35 v=0
66432 On ch=2 n=36 v=112
66528 On ch=2 n=36 v=0
66624 On ch=2 n=38 v=112
66816 On ch=2 n=38 v=0
66816 On ch=2 n=38 v=117
66912 On ch=2 n=38 v=0
66912 On ch=2 n=36 v=112
67008 On ch=2 n=36 v=0
67008 On ch=2 n=33 v=112
67072 On ch=2 n=33 v=0
67104 On ch=2 n=26 v=112
67200 On ch=2 n=26 v=0
67200 On ch=2 n=26 v=112
67400 On ch=2 n=26 v=0
67488 On ch=2 n=26 v=112
67576 On ch=2 n=26 v=0
67584 On ch=2 n=26 v=112
67752 On ch=2 n=26 v=0
67872 On ch=2 n=24 v=112
67960 On ch=2 n=24 v=0
67968 On ch=2 n=26 v=117
68064 On ch=2 n=26 v=0
68064 On ch=2 n=26 v=112
68256 On ch=2 n=26 v=0
68256 On ch=2 n=26 v=102
68344 On ch=2 n=26 v=0
68352 On ch=2 n=31 v=112
68432 On ch=2 n=31 v=0
68448 On ch=2 n=31 v=112
68528 On ch=2 n=31 v=0
68544 On ch=2 n=31 v=112
68624 On ch=2 n=31 v=0
68640 On ch=2 n=31 v=112
68720 On ch=2 n=31 v=0
68832 On ch=2 n=31 v=112
68912 On ch=2 n=31 v=0
68928 On ch=2 n=35 v=112
69008 On ch=2 n=35 v=0
69024 On ch=2 n=35 v=112
69104 On ch=2 n=35 v=0
69120 On ch=2 n=36 v=113
69200 On ch=2 n=36 v=0
69216 On ch=2 n=36 v=108
69296 On ch=2 n=36 v=0
69308 Pb ch=2 v=8592
69312 On ch=2 n=36 v=114
69392 On ch=2 n=36 v=0
69408 On ch=2 n=36 v=109
69488 On ch=2 n=36 v=0
69500 Pb ch=2 v=8592
69504 On ch=2 n=37 v=115
69584 On ch=2 n=37 v=0
69600 On ch=2 n=37 v=110
69680 On ch=2 n=37 v=0
69692 Pb ch=2 v=8192
69696 On ch=2 n=38 v=116
69776 On ch=2 n=38 v=0
69792 On ch=2 n=38 v=111
69872 On ch=2 n=38 v=0
69888 On ch=2 n=38 v=112
69984 On ch=2 n=38 v=0
69984 On ch=2 n=36 v=107
70080 On ch=2 n=36 v=0
70080 On ch=2 n=33 v=107
70128 On ch=2 n=33 v=0
70176 On ch=2 n=26 v=117
70272 On ch=2 n=26 v=0
70272 On ch=2 n=26 v=112
70360 On ch=2 n=26 v=0
70368 On ch=2 n=26 v=117
70536 On ch=2 n=26 v=0
70560 On ch=2 n=24 v=102
70656 On ch=2 n=24 v=0
70656 On ch=2 n=26 v=112
70728 On ch=2 n=26 v=0
70752 On ch=2 n=26 v=117
70920 On ch=2 n=26 v=0
70944 On ch=2 n=24 v=102
71040 On ch=2 n=24 v=0
71040 On ch=2 n=26 v=112
71112 On ch=2 n=26 v=0
71136 On ch=2 n=26 v=117
71304 On ch=2 n=26 v=0
71328 On ch=2 n=26 v=102
71424 On ch=2 n=26 v=0
71424 On ch=2 n=31 v=112
71488 On ch=2 n=31 v=0
71520 On ch=2 n=31 v=112
71584 On ch=2 n=31 v=0
71616 On ch=2 n=31 v=112
71680 On ch=2 n=31 v=0
71712 On ch=2 n=31 v=112
71776 On ch=2 n=31 v=0
71904 On ch=2 n=31 v=112
71968 On ch=2 n=31 v=0
72000 On ch=2 n=35 v=112
72064 On ch=2 n=35 v=0
72096 On ch=2 n=35 v=112
72160 On ch=2 n=35 v=0
72192 On ch=2 n=36 v=113
72264 On ch=2 n=36 v=0
72288 On ch=2 n=36 v=108
72360 On ch=2 n=36 v=0
72380 Pb ch=2 v=8392
72384 On ch=2 n=36 v=114
72456 On ch=2 n=36 v=0
72480 On ch=2 n=36 v=109
72552 On ch=2 n=36 v=0
72572 Pb ch=2 v=8392
72576 On ch=2 n=37 v=115
72644 On ch=2 n=37 v=0
72672 On ch=2 n=37 v=110
72740 On ch=2 n=37 v=0
72764 Pb ch=2 v=7692
72768 On ch=2 n=38 v=116
72832 On ch=2 n=38 v=0
72860 Pb ch=2 v=8192
72864 On ch=2 n=38 v=117
73056 On ch=2 n=38 v=0
73056 On ch=2 n=36 v=107
73152 On ch=2 n=36 v=0
73152 On ch=2 n=33 v=107
73200 On ch=2 n=33 v=0
73248 On ch=2 n=26 v=117
73344 On ch=2 n=26 v=0
73344 On ch=2 n=26 v=112
73432 On ch=2 n=26 v=0
73440 On ch=2 n=26 v=117
73608 On ch=2 n=26 v=0
73632 On ch=2 n=24 v=102
73728 On ch=2 n=24 v=0
73728 On ch=2 n=26 v=112
73800 On ch=2 n=26 v=0
73824 On ch=2 n=26 v=117
73984 On ch=2 n=26 v=0
74016 On ch=2 n=24 v=102
74112 On ch=2 n=24 v=0
74112 On ch=2 n=26 v=112
74184 On ch=2 n=26 v=0
74208 On ch=2 n=26 v=117
74376 On ch=2 n=26 v=0
74400 On ch=2 n=26 v=102
74496 On ch=2 n=26 v=0
74496 On ch=2 n=31 v=112
74560 On ch=2 n=31 v=0
74592 On ch=2 n=31 v=112
74656 On ch=2 n=31 v=0
74688 On ch=2 n=31 v=112
74752 On ch=2 n=31 v=0
74784 On ch=2 n=31 v=112
74848 On ch=2 n=31 v=0
74976 On ch=2 n=31 v=112
75040 On ch=2 n=31 v=0
75072 On ch=2 n=31 v=112
75136 On ch=2 n=31 v=0
75168 On ch=2 n=31 v=112
75232 On ch=2 n=31 v=0
75264 On ch=2 n=31 v=112
75336 On ch=2 n=31 v=0
75360 On ch=2 n=31 v=112
75440 On ch=2 n=31 v=0
75456 On ch=2 n=35 v=112
75552 On ch=2 n=35 v=0
75552 On ch=2 n=35 v=112
75648 On ch=2 n=35 v=0
75648 On ch=2 n=36 v=112
75744 On ch=2 n=36 v=0
75744 On ch=2 n=36 v=112
75840 On ch=2 n=36 v=0
75840 On ch=2 n=37 v=112
75936 On ch=2 n=37 v=0
75936 On ch=2 n=38 v=112
75968 On ch=2 n=38 v=0
78624 On ch=2 n=26 v=112
78720 Pb ch=2 v=10472
79100 Pb ch=2 v=8192
79104 On ch=2 n=26 v=0
79296 On ch=2 n=26 v=112
79496 On ch=2 n=26 v=0
80064 On ch=2 n=26 v=112
80160 On ch=2 n=24 v=112
80168 On ch=2 n=26 v=0
80448 On ch=2 n=26 v=112
80456 On ch=2 n=24 v=0
80592 On ch=2 n=26 v=0
81696 On ch=2 n=31 v=112
81792 Pb ch=2 v=6528
81984 Pb ch=2 v=6400
82032 Pb ch=2 v=6272
82056 Pb ch=2 v=6144
82076 Pb ch=2 v=6016
82092 Pb ch=2 v=5888
82104 Pb ch=2 v=5760
82116 Pb ch=2 v=5632
82124 Pb ch=2 v=5504
82132 Pb ch=2 v=5376
82140 Pb ch=2 v=5248
82144 Pb ch=2 v=5120
82148 Pb ch=2 v=4992
82152 Pb ch=2 v=4864
82156 Pb ch=2 v=4736
82160 Pb ch=2 v=4608
82164 Pb ch=2 v=4352
82168 Pb ch=2 v=8192
82172 Par ch=2 c=11 v=30
82176 On ch=2 n=31 v=0
82176 On ch=2 n=26 v=127
82184 Par ch=2 c=11 v=34
82188 Par ch=2 c=11 v=35
82192 Par ch=2 c=11 v=38
82196 Par ch=2 c=11 v=39
82200 Par ch=2 c=11 v=41
82204 Par ch=2 c=11 v=43
82208 Par ch=2 c=11 v=44
82212 Par ch=2 c=11 v=46
82216 Par ch=2 c=11 v=48
82220 Par ch=2 c=11 v=49
82224 Par ch=2 c=11 v=50
82228 Par ch=2 c=11 v=52
82232 Par ch=2 c=11 v=53
82236 Par ch=2 c=11 v=54
82240 Par ch=2 c=11 v=56
82244 Par ch=2 c=11 v=57
82248 Par ch=2 c=11 v=58
82252 Par ch=2 c=11 v=60
82256 Par ch=2 c=11 v=61
82260 Par ch=2 c=11 v=62
82264 Par ch=2 c=11 v=63
82268 Par ch=2 c=11 v=64
82272 Par ch=2 c=11 v=65
82276 Par ch=2 c=11 v=66
82280 Par ch=2 c=11 v=67
82284 Par ch=2 c=11 v=68
82288 Par ch=2 c=11 v=69
82292 Par ch=2 c=11 v=70
82296 Par ch=2 c=11 v=71
82300 Par ch=2 c=11 v=72
82308 Par ch=2 c=11 v=73
82312 Par ch=2 c=11 v=74
82316 Par ch=2 c=11 v=75
82324 Par ch=2 c=11 v=76
82328 Par ch=2 c=11 v=77
82332 Par ch=2 c=11 v=78
82340 Par ch=2 c=11 v=79
82348 Par ch=2 c=11 v=80
82352 Par ch=2 c=11 v=81
82360 Par ch=2 c=11 v=82
82368 Par ch=2 c=11 v=83
82372 Par ch=2 c=11 v=84
82380 Par ch=2 c=11 v=85
82392 Par ch=2 c=11 v=86
82400 Par ch=2 c=11 v=87
82412 Par ch=2 c=11 v=88
82424 Par ch=2 c=11 v=89
82432 Par ch=2 c=11 v=90
82448 Par ch=2 c=11 v=91
82464 Par ch=2 c=11 v=92
82476 Par ch=2 c=11 v=93
82496 Par ch=2 c=11 v=94
82520 Par ch=2 c=11 v=95
82540 Par ch=2 c=11 v=96
82568 Par ch=2 c=11 v=97
82616 Par ch=2 c=11 v=98
82660 Par ch=2 c=11 v=99
82756 Par ch=2 c=11 v=100
82944 On ch=2 n=26 v=0
82944 On ch=2 n=24 v=127
83608 Pb ch=2 v=8064
83628 Pb ch=2 v=7936
83640 Pb ch=2 v=7808
83652 Pb ch=2 v=7680
83660 Pb ch=2 v=7552
83664 Pb ch=2 v=7424
83668 Pb ch=2 v=7296
83672 Pb ch=2 v=7168
83676 Pb ch=2 v=7040
83680 Pb ch=2 v=6784
83684 Pb ch=2 v=6656
83688 Pb ch=2 v=6400
83692 Pb ch=2 v=6272
83696 Pb ch=2 v=5888
83700 Pb ch=2 v=5632
83704 Pb ch=2 v=5248
83708 Pb ch=2 v=8192
83712 On ch=2 n=24 v=0
83712 On ch=2 n=33 v=122
84404 Pb ch=2 v=8064
84428 Pb ch=2 v=7936
84440 Pb ch=2 v=7808
84452 Pb ch=2 v=7680
84456 Pb ch=2 v=7552
84460 Pb ch=2 v=7424
84464 Pb ch=2 v=7296
84468 Pb ch=2 v=7040
84472 Pb ch=2 v=8192
84476 Par ch=2 c=11 v=100
84480 On ch=2 n=33 v=0
84480 On ch=2 n=31 v=102
84640 Par ch=2 c=11 v=99
84720 Par ch=2 c=11 v=98
84756 Par ch=2 c=11 v=97
84796 Par ch=2 c=11 v=96
84820 Par ch=2 c=11 v=95
84836 Par ch=2 c=11 v=94
84856 Par ch=2 c=11 v=93
84876 Par ch=2 c=11 v=92
84884 Par ch=2 c=11 v=91
84896 Par ch=2 c=11 v=90
84908 Par ch=2 c=11 v=89
84916 Par ch=2 c=11 v=88
84928 Par ch=2 c=11 v=87
84936 Par ch=2 c=11 v=86
84944 Par ch=2 c=11 v=85
84952 Par ch=2 c=11 v=84
84960 Par ch=2 c=11 v=83
84964 Par ch=2 c=11 v=82
84972 Par ch=2 c=11 v=81
84976 Par ch=2 c=11 v=80
84980 Par ch=2 c=11 v=79
84988 Par ch=2 c=11 v=78
84992 Par ch=2 c=11 v=77
84996 Par ch=2 c=11 v=76
85000 Par ch=2 c=11 v=75
85008 Par ch=2 c=11 v=74
85012 Par ch=2 c=11 v=72
85020 Par ch=2 c=11 v=71
85024 Par ch=2 c=11 v=70
85028 Par ch=2 c=11 v=69
85032 Par ch=2 c=11 v=67
85036 Par ch=2 c=11 v=66
85040 Par ch=2 c=11 v=65
85044 Par ch=2 c=11 v=63
85048 Par ch=2 c=11 v=62
85052 Par ch=2 c=11 v=61
85056 Par ch=2 c=11 v=60
85060 Par ch=2 c=11 v=58
85064 Par ch=2 c=11 v=56
85068 Par ch=2 c=11 v=55
85072 Par ch=2 c=11 v=53
85076 Par ch=2 c=11 v=52
85080 Par ch=2 c=11 v=50
85084 Par ch=2 c=11 v=48
85088 Par ch=2 c=11 v=47
85092 Par ch=2 c=11 v=44
85096 Par ch=2 c=11 v=43
85100 Par ch=2 c=11 v=41
85104 Par ch=2 c=11 v=38
85108 Par ch=2 c=11 v=37
85112 Par ch=2 c=11 v=34
85116 Par ch=2 c=11 v=30
85120 On ch=2 n=31 v=0
85244 Par ch=2 c=11 v=60
85248 On ch=2 n=38 v=127
85252 Par ch=2 c=11 v=62
85256 Par ch=2 c=11 v=63
85260 Par ch=2 c=11 v=65
85268 Par ch=2 c=11 v=66
85272 Par ch=2 c=11 v=68
85280 Par ch=2 c=11 v=69
85284 Par ch=2 c=11 v=70
85288 Par ch=2 c=11 v=71
85292 Par ch=2 c=11 v=72
85296 Par ch=2 c=11 v=73
85304 Par ch=2 c=11 v=74
85308 Par ch=2 c=11 v=75
85312 Par ch=2 c=11 v=76
85320 Par ch=2 c=11 v=77
85324 Par ch=2 c=11 v=78
85332 Par ch=2 c=11 v=79
85336 Par ch=2 c=11 v=80
85344 Par ch=2 c=11 v=81
85352 Par ch=2 c=11 v=82
85356 Par ch=2 c=11 v=83
85368 Par ch=2 c=11 v=84
85376 Par ch=2 c=11 v=85
85384 Par ch=2 c=11 v=86
85392 Par ch=2 c=11 v=87
85404 Par ch=2 c=11 v=88
85416 Par ch=2 c=11 v=89
85428 Par ch=2 c=11 v=90
85440 Par ch=2 c=11 v=91
85452 Par ch=2 c=11 v=92
85468 Par ch=2 c=11 v=93
85488 Par ch=2 c=11 v=94
85508 Par ch=2 c=11 v=95
85536 Par ch=2 c=11 v=96
85564 Par ch=2 c=11 v=97
85600 Par ch=2 c=11 v=98
85660 Par ch=2 c=11 v=99
85744 Par ch=2 c=10 v=100
85932 Pb ch=2 v=8064
85956 Pb ch=2 v=7936
85972 Pb ch=2 v=7808
85980 Pb ch=2 v=7680
85988 Pb ch=2 v=7552
85996 Pb ch=2 v=7424
86004 Pb ch=2 v=7296
86008 Pb ch=2 v=7168
86012 Pb ch=2 v=8192
86016 On ch=2 n=38 v=0
86016 On ch=2 n=40 v=127
87552 On ch=2 n=40 v=0
87552 On ch=2 n=43 v=90
88176 On ch=2 n=43 v=0
88224 On ch=2 n=24 v=90
88320 On ch=2 n=24 v=0
88320 On ch=2 n=26 v=117
88512 On ch=2 n=26 v=0
88608 On ch=2 n=24 v=102
88704 On ch=2 n=24 v=0
88704 On ch=2 n=26 v=117
88800 On ch=2 n=26 v=0
88800 On ch=2 n=26 v=112
88896 On ch=2 n=26 v=0
88992 On ch=2 n=24 v=102
89080 On ch=2 n=24 v=0
89088 On ch=2 n=26 v=117
89296 On ch=2 n=26 v=0
89376 On ch=2 n=24 v=107
89464 On ch=2 n=24 v=0
89472 On ch=2 n=26 v=117
89568 On ch=2 n=26 v=0
89568 On ch=2 n=26 v=117
89680 On ch=2 n=26 v=0
89760 On ch=2 n=24 v=107
89848 On ch=2 n=24 v=0
89856 On ch=2 n=31 v=112
89944 On ch=2 n=31 v=0
89952 On ch=2 n=31 v=112
90048 On ch=2 n=31 v=0
90144 On ch=2 n=31 v=112
90240 On ch=2 n=31 v=0
90336 On ch=2 n=31 v=112
90416 On ch=2 n=31 v=0
90432 On ch=2 n=35 v=112
90612 On ch=2 n=35 v=0
90720 On ch=2 n=35 v=112
90816 On ch=2 n=35 v=0
90816 On ch=2 n=36 v=112
91008 On ch=2 n=36 v=0
91008 On ch=2 n=37 v=112
91080 On ch=2 n=37 v=0
91200 On ch=2 n=38 v=112
91392 On ch=2 n=38 v=0
91392 On ch=2 n=38 v=117
91488 On ch=2 n=38 v=0
91488 On ch=2 n=36 v=112
91536 On ch=2 n=36 v=0
91584 On ch=2 n=33 v=112
91632 On ch=2 n=33 v=0
91680 On ch=2 n=26 v=112
91984 On ch=2 n=26 v=0
92064 On ch=2 n=24 v=112
92152 On ch=2 n=24 v=0
92160 On ch=2 n=26 v=112
92384 On ch=2 n=26 v=0
92448 On ch=2 n=24 v=112
92536 On ch=2 n=24 v=0
92544 On ch=2 n=26 v=117
92600 On ch=2 n=26 v=0
92640 On ch=2 n=26 v=112
92696 On ch=2 n=26 v=0
92736 On ch=2 n=26 v=112
92792 On ch=2 n=26 v=0
92832 On ch=2 n=26 v=102
92888 On ch=2 n=26 v=0
92928 On ch=2 n=31 v=112
92992 On ch=2 n=31 v=0
93024 On ch=2 n=31 v=112
93088 On ch=2 n=31 v=0
93120 On ch=2 n=31 v=112
93184 On ch=2 n=31 v=0
93216 On ch=2 n=31 v=112
93296 On ch=2 n=31 v=0
93408 On ch=2 n=31 v=112
93472 On ch=2 n=31 v=0
93504 On ch=2 n=35 v=112
93568 On ch=2 n=35 v=0
93600 On ch=2 n=35 v=112
93664 On ch=2 n=35 v=0
93692 Pb ch=2 v=7692
93696 On ch=2 n=36 v=113
93760 On ch=2 n=36 v=0
93792 On ch=2 n=36 v=108
93856 On ch=2 n=36 v=0
93884 Pb ch=2 v=8192
93888 On ch=2 n=36 v=114
93948 On ch=2 n=36 v=0
93984 On ch=2 n=36 v=109
94044 On ch=2 n=36 v=0
94076 Pb ch=2 v=8342
94080 On ch=2 n=37 v=115
94136 On ch=2 n=37 v=0
94176 On ch=2 n=37 v=110
94232 On ch=2 n=37 v=0
94268 Pb ch=2 v=8192
94272 On ch=2 n=38 v=116
94328 On ch=2 n=38 v=0
94368 On ch=2 n=38 v=111
94424 On ch=2 n=38 v=0
94460 Par ch=2 c=7 v=120
94464 On ch=2 n=38 v=117
94516 Par ch=2 c=7 v=119
94520 On ch=2 n=38 v=0
94560 On ch=2 n=36 v=114
94568 Par ch=2 c=7 v=118
94616 On ch=2 n=36 v=0
94620 Par ch=2 c=7 v=117
94656 On ch=2 n=33 v=112
94672 Par ch=2 c=7 v=116
94720 Par ch=2 c=7 v=115
94744 On ch=2 n=33 v=0
94752 On ch=2 n=26 v=112
94772 Par ch=2 c=7 v=114
94824 Par ch=2 c=7 v=113
94832 On ch=2 n=26 v=0
94848 On ch=2 n=26 v=116
94876 Par ch=2 c=7 v=112
94904 On ch=2 n=26 v=0
94928 Par ch=2 c=7 v=111
94944 On ch=2 n=26 v=114
94976 Par ch=2 c=7 v=110
95000 On ch=2 n=26 v=0
95028 Par ch=2 c=7 v=109
95040 On ch=2 n=26 v=112
95080 Par ch=2 c=7 v=108
95128 On ch=2 n=26 v=0
95132 Par ch=2 c=7 v=107
95136 On ch=2 n=26 v=112
95184 Par ch=2 c=7 v=106
95216 On ch=2 n=26 v=0
95232 On ch=2 n=26 v=117
95236 Par ch=2 c=7 v=105
95284 Par ch=2 c=7 v=104
95288 On ch=2 n=26 v=0
95328 On ch=2 n=26 v=114
95336 Par ch=2 c=7 v=103
95384 On ch=2 n=26 v=0
95388 Par ch=2 c=7 v=102
95424 On ch=2 n=26 v=112
95440 Par ch=2 c=7 v=101
95488 Par ch=2 c=7 v=100
95512 On ch=2 n=26 v=0
95520 On ch=2 n=26 v=112
95540 Par ch=2 c=7 v=99
95592 Par ch=2 c=7 v=98
95600 On ch=2 n=26 v=0
95616 On ch=2 n=26 v=116
95644 Par ch=2 c=7 v=97
95672 On ch=2 n=26 v=0
95692 Par ch=2 c=7 v=96
95712 On ch=2 n=26 v=114
95744 Par ch=2 c=7 v=95
95768 On ch=2 n=26 v=0
95796 Par ch=2 c=7 v=94
95808 On ch=2 n=26 v=112
95848 Par ch=2 c=7 v=93
95896 On ch=2 n=26 v=0
95900 Par ch=2 c=7 v=92
95904 On ch=2 n=26 v=112
95948 Par ch=2 c=7 v=91
95984 On ch=2 n=26 v=0
96000 On ch=2 n=31 v=112
96004 Par ch=2 c=7 v=90
96052 Par ch=2 c=7 v=89
96056 On ch=2 n=31 v=0
96096 On ch=2 n=31 v=112
96104 Par ch=2 c=7 v=88
96152 On ch=2 n=31 v=0
96156 Par ch=2 c=7 v=87
96192 On ch=2 n=31 v=112
96204 Par ch=2 c=7 v=86
96248 On ch=2 n=31 v=0
96256 Par ch=2 c=7 v=85
96288 On ch=2 n=31 v=112
96308 Par ch=2 c=7 v=84
96360 Par ch=2 c=7 v=83
96368 On ch=2 n=31 v=0
96412 Par ch=2 c=7 v=82
96460 Par ch=2 c=7 v=81
96480 On ch=2 n=31 v=112
96512 Par ch=2 c=7 v=80
96536 On ch=2 n=31 v=0
96564 Par ch=2 c=7 v=79
96576 On ch=2 n=35 v=112
96616 Par ch=2 c=7 v=78
96632 On ch=2 n=35 v=0
96668 Par ch=2 c=7 v=77
96672 On ch=2 n=35 v=112
96716 Par ch=2 c=7 v=76
96728 On ch=2 n=35 v=0
96764 Pb ch=2 v=8592
96768 On ch=2 n=35 v=112
96772 Par ch=2 c=7 v=75
96824 Par ch=2 c=7 v=74
96832 On ch=2 n=35 v=0
96868 On ch=2 n=35 v=117
96876 Par ch=2 c=7 v=73
96924 Par ch=2 c=7 v=72
96976 Par ch=2 c=7 v=71
97028 Par ch=2 c=7 v=70
97036 On ch=2 n=35 v=0
97060 On ch=2 n=35 v=112
97080 Par ch=2 c=7 v=69
97132 Par ch=2 c=7 v=68
97152 Pb ch=2 v=8192
97156 On ch=2 n=35 v=0
97156 On ch=2 n=36 v=112
97180 Par ch=2 c=7 v=67
97212 On ch=2 n=36 v=0
97232 Par ch=2 c=7 v=66
97252 On ch=2 n=36 v=112
97284 Par ch=2 c=7 v=65
97336 Par ch=2 c=7 v=64
97348 On ch=2 n=36 v=0
97348 On ch=2 n=37 v=112
97388 Par ch=2 c=7 v=63
97436 Par ch=2 c=7 v=62
97440 Pb ch=2 v=8542
97444 On ch=2 n=37 v=0
97444 On ch=2 n=37 v=112
97488 Par ch=2 c=7 v=61
97532 Pb ch=2 v=8192
97536 On ch=2 n=38 v=112
97540 On ch=2 n=37 v=0
97540 Par ch=2 c=7 v=60
97588 Par ch=2 c=7 v=59
97632 On ch=2 n=38 v=0
97632 On ch=2 n=36 v=112
97640 Par ch=2 c=7 v=58
97688 On ch=2 n=36 v=0
97688 Par ch=2 c=7 v=57
97728 On ch=2 n=33 v=112
97740 Par ch=2 c=7 v=56
97784 On ch=2 n=33 v=0
97792 Par ch=2 c=7 v=55
97824 On ch=2 n=26 v=112
97844 Par ch=2 c=7 v=54
97880 On ch=2 n=26 v=0
97896 Par ch=2 c=7 v=53
97920 On ch=2 n=26 v=116
97944 Par ch=2 c=7 v=52
97976 On ch=2 n=26 v=0
97996 Par ch=2 c=7 v=51
98016 On ch=2 n=26 v=114
98048 Par ch=2 c=7 v=50
98072 On ch=2 n=26 v=0
98100 Par ch=2 c=7 v=49
98112 On ch=2 n=26 v=112
98148 Par ch=2 c=7 v=48
98168 On ch=2 n=26 v=0
98200 Par ch=2 c=7 v=47
98208 On ch=2 n=26 v=117
98252 Par ch=2 c=7 v=46
98264 On ch=2 n=26 v=0
98304 On ch=2 n=26 v=117
98308 Par ch=2 c=7 v=45
98356 Par ch=2 c=7 v=44
98360 On ch=2 n=26 v=0
98400 On ch=2 n=26 v=114
98404 Par ch=2 c=7 v=43
98456 On ch=2 n=26 v=0
98456 Par ch=2 c=7 v=42
98496 On ch=2 n=26 v=112
98508 Par ch=2 c=7 v=41
98560 Par ch=2 c=7 v=40
98576 On ch=2 n=26 v=0
98592 On ch=2 n=26 v=112
98612 Par ch=2 c=7 v=39
98660 Par ch=2 c=7 v=38
98664 On ch=2 n=26 v=0
98688 On ch=2 n=26 v=116
98712 Par ch=2 c=7 v=37
98744 On ch=2 n=26 v=0
98764 Par ch=2 c=7 v=36
98784 On ch=2 n=26 v=114
98816 Par ch=2 c=7 v=35
98840 On ch=2 n=26 v=0
98868 Par ch=2 c=7 v=34
98880 On ch=2 n=26 v=112
98916 Par ch=2 c=7 v=33
98936 On ch=2 n=26 v=0
98968 Par ch=2 c=7 v=32
98976 On ch=2 n=26 v=112
99020 Par ch=2 c=7 v=31
99032 On ch=2 n=26 v=0
99072 On ch=2 n=31 v=112
99076 Par ch=2 c=7 v=30
99124 Par ch=2 c=7 v=29
99128 On ch=2 n=31 v=0
99168 On ch=2 n=31 v=112
99172 Par ch=2 c=7 v=28
99224 On ch=2 n=31 v=0
99224 Par ch=2 c=7 v=27
99264 On ch=2 n=31 v=112
99276 Par ch=2 c=7 v=26
99320 On ch=2 n=31 v=0
99328 Par ch=2 c=7 v=25
99360 On ch=2 n=31 v=112
99376 Par ch=2 c=7 v=24
99416 On ch=2 n=31 v=0
99428 Par ch=2 c=7 v=23
99480 Par ch=2 c=7 v=22
99532 Par ch=2 c=7 v=21
99552 On ch=2 n=31 v=112
99584 Par ch=2 c=7 v=20
99608 On ch=2 n=31 v=0
99632 Par ch=2 c=7 v=19
99648 On ch=2 n=35 v=112
99684 Par ch=2 c=7 v=18
99704 On ch=2 n=35 v=0
99736 Par ch=2 c=7 v=17
99744 On ch=2 n=35 v=112
99788 Par ch=2 c=7 v=16
99800 On ch=2 n=35 v=0
99840 On ch=2 n=35 v=112
99844 Par ch=2 c=7 v=15
99888 Par ch=2 c=7 v=14
99896 On ch=2 n=35 v=0
99936 On ch=2 n=35 v=112
99940 Par ch=2 c=7 v=13
99992 On ch=2 n=35 v=0
99992 Par ch=2 c=7 v=12
100028 Pb ch=2 v=8592
100032 On ch=2 n=35 v=112
100044 Par ch=2 c=7 v=11
100092 On ch=2 n=35 v=0
100096 Par ch=2 c=7 v=10
100128 On ch=2 n=35 v=112
100144 Par ch=2 c=7 v=9
100188 On ch=2 n=35 v=0
100196 Par ch=2 c=7 v=8
100220 Pb ch=2 v=8192
100224 On ch=2 n=36 v=112
100248 Par ch=2 c=7 v=7
100296 On ch=2 n=36 v=0
100300 Par ch=2 c=7 v=6
100320 On ch=2 n=36 v=112
100352 Par ch=2 c=7 v=5
100384 On ch=2 n=36 v=0
100400 Par ch=2 c=7 v=4
100416 On ch=2 n=37 v=112
100452 Par ch=2 c=7 v=3
100504 Par ch=2 c=7 v=2
100508 Pb ch=2 v=8542
100512 On ch=2 n=37 v=0
100512 On ch=2 n=37 v=112
100556 Par ch=2 c=7 v=1
100600 Par ch=2 c=7 v=0
100604 Pb ch=2 v=8192
100608 On ch=2 n=37 v=0
100608 Meta TrkEnd
TrkEnd
MTrk
0 Meta TrkName "RHYTHM OF LOVE  "
192 Par ch=3 c=121 v=0
196 Par ch=3 c=100 v=0
200 Par ch=3 c=101 v=0
204 Par ch=3 c=6 v=12
208 Par ch=3 c=7 v=96
212 Par ch=3 c=11 v=100
216 Par ch=3 c=10 v=80
384 Par ch=3 c=0 v=0
388 Par ch=3 c=32 v=0
392 PrCh ch=3 p=28
396 Par ch=3 c=91 v=90
400 Par ch=3 c=127 v=0
13056 On ch=3 n=62 v=100
13056 On ch=3 n=50 v=100
13128 On ch=3 n=62 v=0
13136 On ch=3 n=50 v=0
13152 On ch=3 n=62 v=80
13152 On ch=3 n=50 v=80
13224 On ch=3 n=62 v=0
13232 On ch=3 n=50 v=0
13248 On ch=3 n=62 v=100
13248 On ch=3 n=50 v=100
13320 On ch=3 n=62 v=0
13328 On ch=3 n=50 v=0
13344 On ch=3 n=62 v=80
13344 On ch=3 n=50 v=80
13416 On ch=3 n=62 v=0
13424 On ch=3 n=50 v=0
13440 On ch=3 n=62 v=100
13440 On ch=3 n=50 v=100
13512 On ch=3 n=62 v=0
13520 On ch=3 n=50 v=0
13536 On ch=3 n=62 v=80
13536 On ch=3 n=50 v=80
13608 On ch=3 n=62 v=0
13616 On ch=3 n=50 v=0
13632 On ch=3 n=62 v=80
13632 On ch=3 n=50 v=80
13704 On ch=3 n=62 v=0
13712 On ch=3 n=50 v=0
13728 On ch=3 n=62 v=100
13728 On ch=3 n=50 v=100
13816 On ch=3 n=62 v=0
13816 On ch=3 n=50 v=0
13824 On ch=3 n=62 v=80
13824 On ch=3 n=50 v=80
13896 On ch=3 n=62 v=0
13904 On ch=3 n=50 v=0
13920 On ch=3 n=62 v=80
13920 On ch=3 n=50 v=80
13992 On ch=3 n=62 v=0
14000 On ch=3 n=50 v=0
14016 On ch=3 n=62 v=80
14016 On ch=3 n=50 v=80
14088 On ch=3 n=62 v=0
14096 On ch=3 n=50 v=0
14112 On ch=3 n=62 v=80
14112 On ch=3 n=50 v=80
14184 On ch=3 n=62 v=0
14192 On ch=3 n=50 v=0
14208 On ch=3 n=62 v=100
14208 On ch=3 n=50 v=100
14280 On ch=3 n=62 v=0
14288 On ch=3 n=50 v=0
14304 On ch=3 n=62 v=80
14304 On ch=3 n=50 v=80
14376 On ch=3 n=62 v=0
14384 On ch=3 n=50 v=0
14400 On ch=3 n=62 v=80
14400 On ch=3 n=50 v=80
14472 On ch=3 n=62 v=0
14480 On ch=3 n=50 v=0
14496 On ch=3 n=67 v=90
14496 On ch=3 n=55 v=90
14584 On ch=3 n=67 v=0
14584 On ch=3 n=55 v=0
14592 On ch=3 n=67 v=90
14592 On ch=3 n=55 v=90
14664 On ch=3 n=67 v=0
14672 On ch=3 n=55 v=0
14688 On ch=3 n=67 v=80
14688 On ch=3 n=55 v=80
14760 On ch=3 n=67 v=0
14768 On ch=3 n=55 v=0
14784 On ch=3 n=67 v=85
14784 On ch=3 n=55 v=85
14856 On ch=3 n=67 v=0
14864 On ch=3 n=55 v=0
14880 On ch=3 n=67 v=80
14880 On ch=3 n=55 v=80
14952 On ch=3 n=67 v=0
14960 On ch=3 n=55 v=0
14976 On ch=3 n=67 v=80
14976 On ch=3 n=55 v=80
15048 On ch=3 n=67 v=0
15056 On ch=3 n=55 v=0
15072 On ch=3 n=67 v=80
15072 On ch=3 n=55 v=80
15144 On ch=3 n=67 v=0
15152 On ch=3 n=55 v=0
15168 On ch=3 n=67 v=85
15168 On ch=3 n=55 v=85
15240 On ch=3 n=67 v=0
15248 On ch=3 n=55 v=0
15264 On ch=3 n=67 v=100
15264 On ch=3 n=55 v=100
15352 On ch=3 n=67 v=0
15352 On ch=3 n=55 v=0
15360 On ch=3 n=67 v=80
15360 On ch=3 n=55 v=80
15432 On ch=3 n=67 v=0
15440 On ch=3 n=55 v=0
15456 On ch=3 n=67 v=80
15456 On ch=3 n=55 v=80
15528 On ch=3 n=67 v=0
15536 On ch=3 n=55 v=0
15552 On ch=3 n=67 v=80
15552 On ch=3 n=55 v=80
15624 On ch=3 n=67 v=0
15632 On ch=3 n=55 v=0
15648 On ch=3 n=67 v=80
15648 On ch=3 n=55 v=80
15720 On ch=3 n=67 v=0
15728 On ch=3 n=55 v=0
15744 On ch=3 n=67 v=80
15744 On ch=3 n=55 v=80
15816 On ch=3 n=67 v=0
15824 On ch=3 n=55 v=0
15840 On ch=3 n=67 v=80
15840 On ch=3 n=55 v=80
15912 On ch=3 n=67 v=0
15920 On ch=3 n=55 v=0
15936 On ch=3 n=67 v=90
15936 On ch=3 n=55 v=90
16008 On ch=3 n=67 v=0
16016 On ch=3 n=55 v=0
16032 On ch=3 n=62 v=90
16032 On ch=3 n=50 v=90
16120 On ch=3 n=62 v=0
16120 On ch=3 n=50 v=0
16128 On ch=3 n=62 v=90
16128 On ch=3 n=50 v=90
16200 On ch=3 n=62 v=0
16208 On ch=3 n=50 v=0
16224 On ch=3 n=62 v=80
16224 On ch=3 n=50 v=80
16296 On ch=3 n=62 v=0
16304 On ch=3 n=50 v=0
16320 On ch=3 n=62 v=85
16320 On ch=3 n=50 v=85
16392 On ch=3 n=62 v=0
16400 On ch=3 n=50 v=0
16416 On ch=3 n=62 v=80
16416 On ch=3 n=50 v=80
16488 On ch=3 n=62 v=0
16496 On ch=3 n=50 v=0
16512 On ch=3 n=62 v=80
16512 On ch=3 n=50 v=80
16584 On ch=3 n=62 v=0
16592 On ch=3 n=50 v=0
16608 On ch=3 n=62 v=80
16608 On ch=3 n=50 v=80
16680 On ch=3 n=62 v=0
16688 On ch=3 n=50 v=0
16704 On ch=3 n=62 v=80
16704 On ch=3 n=50 v=80
16776 On ch=3 n=62 v=0
16784 On ch=3 n=50 v=0
16800 On ch=3 n=62 v=100
16800 On ch=3 n=50 v=100
16896 On ch=3 n=62 v=0
16896 On ch=3 n=50 v=0
16896 On ch=3 n=62 v=80
16896 On ch=3 n=50 v=80
16968 On ch=3 n=62 v=0
16976 On ch=3 n=50 v=0
16992 On ch=3 n=62 v=80
16992 On ch=3 n=50 v=80
17064 On ch=3 n=62 v=0
17072 On ch=3 n=50 v=0
17088 On ch=3 n=62 v=85
17088 On ch=3 n=50 v=85
17160 On ch=3 n=62 v=0
17168 On ch=3 n=50 v=0
17184 On ch=3 n=62 v=80
17184 On ch=3 n=50 v=80
17256 On ch=3 n=62 v=0
17264 On ch=3 n=50 v=0
17280 On ch=3 n=62 v=80
17280 On ch=3 n=50 v=80
17352 On ch=3 n=62 v=0
17360 On ch=3 n=50 v=0
17376 On ch=3 n=62 v=80
17376 On ch=3 n=50 v=80
17448 On ch=3 n=62 v=0
17456 On ch=3 n=50 v=0
17472 On ch=3 n=62 v=80
17472 On ch=3 n=50 v=80
17544 On ch=3 n=62 v=0
17552 On ch=3 n=50 v=0
17568 On ch=3 n=67 v=100
17568 On ch=3 n=55 v=100
17656 On ch=3 n=67 v=0
17656 On ch=3 n=55 v=0
17664 On ch=3 n=67 v=80
17664 On ch=3 n=55 v=80
17736 On ch=3 n=67 v=0
17744 On ch=3 n=55 v=0
17760 On ch=3 n=67 v=80
17760 On ch=3 n=55 v=80
17832 On ch=3 n=67 v=0
17840 On ch=3 n=55 v=0
17856 On ch=3 n=67 v=85
17856 On ch=3 n=55 v=85
17928 On ch=3 n=67 v=0
17936 On ch=3 n=55 v=0
17952 On ch=3 n=67 v=80
17952 On ch=3 n=55 v=80
18024 On ch=3 n=67 v=0
18032 On ch=3 n=55 v=0
18048 On ch=3 n=67 v=80
18048 On ch=3 n=55 v=80
18120 On ch=3 n=67 v=0
18128 On ch=3 n=55 v=0
18144 On ch=3 n=67 v=80
18144 On ch=3 n=55 v=80
18216 On ch=3 n=67 v=0
18224 On ch=3 n=55 v=0
18240 On ch=3 n=67 v=85
18240 On ch=3 n=55 v=85
18312 On ch=3 n=67 v=0
18320 On ch=3 n=55 v=0
18336 On ch=3 n=67 v=100
18336 On ch=3 n=55 v=100
18424 On ch=3 n=67 v=0
18424 On ch=3 n=55 v=0
18432 On ch=3 n=67 v=80
18432 On ch=3 n=55 v=80
18504 On ch=3 n=67 v=0
18512 On ch=3 n=55 v=0
18528 On ch=3 n=67 v=80
18528 On ch=3 n=55 v=80
18600 On ch=3 n=67 v=0
18608 On ch=3 n=55 v=0
18624 On ch=3 n=67 v=90
18624 On ch=3 n=55 v=90
18696 On ch=3 n=67 v=0
18704 On ch=3 n=55 v=0
18720 On ch=3 n=67 v=80
18720 On ch=3 n=55 v=80
18792 On ch=3 n=67 v=0
18800 On ch=3 n=55 v=0
18816 On ch=3 n=67 v=95
18816 On ch=3 n=55 v=95
18888 On ch=3 n=67 v=0
18896 On ch=3 n=55 v=0
18912 On ch=3 n=67 v=80
18912 On ch=3 n=55 v=80
18984 On ch=3 n=67 v=0
18992 On ch=3 n=55 v=0
19008 On ch=3 n=67 v=90
19008 On ch=3 n=55 v=90
19080 On ch=3 n=67 v=0
19088 On ch=3 n=55 v=0
19104 On ch=3 n=62 v=100
19104 On ch=3 n=50 v=100
19192 On ch=3 n=62 v=0
19192 On ch=3 n=50 v=0
19200 On ch=3 n=62 v=85
19200 On ch=3 n=50 v=80
19272 On ch=3 n=62 v=0
19280 On ch=3 n=50 v=0
19296 On ch=3 n=62 v=80
19296 On ch=3 n=50 v=80
19368 On ch=3 n=62 v=0
19376 On ch=3 n=50 v=0
19392 On ch=3 n=62 v=80
19392 On ch=3 n=57 v=85
19392 On ch=3 n=50 v=80
19464 On ch=3 n=62 v=0
19464 On ch=3 n=57 v=0
19472 On ch=3 n=50 v=0
19488 On ch=3 n=62 v=85
19488 On ch=3 n=50 v=85
19560 On ch=3 n=62 v=0
19568 On ch=3 n=50 v=0
19584 On ch=3 n=62 v=80
19584 On ch=3 n=60 v=85
19584 On ch=3 n=50 v=80
19640 On ch=3 n=60 v=0
19656 On ch=3 n=62 v=0
19664 On ch=3 n=50 v=0
19680 On ch=3 n=62 v=80
19680 On ch=3 n=50 v=80
19752 On ch=3 n=62 v=0
19760 On ch=3 n=50 v=0
19776 On ch=3 n=62 v=80
19776 On ch=3 n=57 v=85
19776 On ch=3 n=50 v=80
19840 On ch=3 n=57 v=0
19848 On ch=3 n=62 v=0
19856 On ch=3 n=50 v=0
19872 On ch=3 n=62 v=100
19872 On ch=3 n=50 v=90
19944 On ch=3 n=62 v=0
19952 On ch=3 n=50 v=0
19968 On ch=3 n=62 v=75
19968 On ch=3 n=50 v=80
20040 On ch=3 n=62 v=0
20048 On ch=3 n=50 v=0
20064 On ch=3 n=62 v=85
20064 On ch=3 n=57 v=80
20064 On ch=3 n=50 v=80
20136 On ch=3 n=62 v=0
20136 On ch=3 n=57 v=0
20144 On ch=3 n=50 v=0
20160 On ch=3 n=62 v=80
20160 On ch=3 n=50 v=80
20232 On ch=3 n=62 v=0
20240 On ch=3 n=50 v=0
20256 On ch=3 n=62 v=80
20256 On ch=3 n=60 v=82
20256 On ch=3 n=50 v=80
20328 On ch=3 n=62 v=0
20328 On ch=3 n=60 v=0
20336 On ch=3 n=50 v=0
20352 On ch=3 n=62 v=80
20352 On ch=3 n=60 v=90
20352 On ch=3 n=50 v=80
20416 On ch=3 n=60 v=0
20424 On ch=3 n=62 v=0
20432 On ch=3 n=50 v=0
20448 On ch=3 n=62 v=80
20448 On ch=3 n=50 v=80
20520 On ch=3 n=62 v=0
20528 On ch=3 n=50 v=0
20544 On ch=3 n=62 v=80
20544 On ch=3 n=57 v=80
20544 On ch=3 n=50 v=80
20616 On ch=3 n=62 v=0
20616 On ch=3 n=57 v=0
20624 On ch=3 n=50 v=0
20640 On ch=3 n=67 v=90
20640 On ch=3 n=55 v=90
20712 On ch=3 n=67 v=0
20720 On ch=3 n=55 v=0
20736 On ch=3 n=67 v=90
20736 On ch=3 n=55 v=90
20808 On ch=3 n=67 v=0
20816 On ch=3 n=55 v=0
20832 On ch=3 n=67 v=90
20832 On ch=3 n=55 v=90
20904 On ch=3 n=67 v=0
20912 On ch=3 n=55 v=0
20928 On ch=3 n=67 v=85
20928 On ch=3 n=62 v=80
20928 On ch=3 n=55 v=85
21000 On ch=3 n=67 v=0
21000 On ch=3 n=62 v=0
21008 On ch=3 n=55 v=0
21024 On ch=3 n=67 v=80
21024 On ch=3 n=55 v=80
21096 On ch=3 n=67 v=0
21104 On ch=3 n=55 v=0
21120 On ch=3 n=67 v=80
21120 On ch=3 n=65 v=90
21120 On ch=3 n=55 v=80
21192 On ch=3 n=67 v=0
21200 On ch=3 n=55 v=0
21208 On ch=3 n=65 v=0
21216 On ch=3 n=67 v=80
21216 On ch=3 n=55 v=80
21288 On ch=3 n=67 v=0
21296 On ch=3 n=55 v=0
21312 On ch=3 n=67 v=85
21312 On ch=3 n=62 v=85
21312 On ch=3 n=55 v=85
21384 On ch=3 n=67 v=0
21392 On ch=3 n=62 v=0
21392 On ch=3 n=55 v=0
21408 On ch=3 n=67 v=85
21408 On ch=3 n=55 v=100
21496 On ch=3 n=67 v=0
21496 On ch=3 n=55 v=0
21504 On ch=3 n=67 v=85
21504 On ch=3 n=55 v=85
21576 On ch=3 n=67 v=0
21584 On ch=3 n=55 v=0
21600 On ch=3 n=67 v=85
21600 On ch=3 n=62 v=90
21600 On ch=3 n=55 v=85
21672 On ch=3 n=67 v=0
21672 On ch=3 n=62 v=0
21680 On ch=3 n=55 v=0
21696 On ch=3 n=67 v=85
21696 On ch=3 n=55 v=85
21768 On ch=3 n=67 v=0
21776 On ch=3 n=55 v=0
21792 On ch=3 n=67 v=85
21792 On ch=3 n=65 v=85
21792 On ch=3 n=55 v=85
21864 On ch=3 n=67 v=0
21872 On ch=3 n=55 v=0
21880 On ch=3 n=65 v=0
21888 On ch=3 n=67 v=85
21888 On ch=3 n=65 v=95
21888 On ch=3 n=55 v=85
21960 On ch=3 n=67 v=0
21960 On ch=3 n=65 v=0
21968 On ch=3 n=55 v=0
21984 On ch=3 n=67 v=85
21984 On ch=3 n=55 v=85
22056 On ch=3 n=67 v=0
22064 On ch=3 n=55 v=0
22080 On ch=3 n=67 v=85
22080 On ch=3 n=62 v=85
22080 On ch=3 n=55 v=85
22152 On ch=3 n=67 v=0
22152 On ch=3 n=62 v=0
22160 On ch=3 n=55 v=0
22176 On ch=3 n=62 v=90
22176 On ch=3 n=50 v=90
22264 On ch=3 n=62 v=0
22264 On ch=3 n=50 v=0
22272 On ch=3 n=62 v=80
22272 On ch=3 n=50 v=80
22344 On ch=3 n=62 v=0
22352 On ch=3 n=50 v=0
22368 On ch=3 n=62 v=95
22368 On ch=3 n=50 v=80
22448 On ch=3 n=50 v=0
22456 On ch=3 n=62 v=0
22464 On ch=3 n=62 v=80
22464 On ch=3 n=57 v=90
22464 On ch=3 n=50 v=80
22536 On ch=3 n=62 v=0
22544 On ch=3 n=50 v=0
22552 On ch=3 n=57 v=0
22560 On ch=3 n=62 v=90
22560 On ch=3 n=50 v=90
22632 On ch=3 n=62 v=0
22640 On ch=3 n=50 v=0
22656 On ch=3 n=62 v=80
22656 On ch=3 n=60 v=85
22656 On ch=3 n=50 v=80
22720 On ch=3 n=60 v=0
22728 On ch=3 n=62 v=0
22736 On ch=3 n=50 v=0
22752 On ch=3 n=62 v=85
22752 On ch=3 n=50 v=80
22824 On ch=3 n=62 v=0
22832 On ch=3 n=50 v=0
22848 On ch=3 n=62 v=80
22848 On ch=3 n=57 v=80
22848 On ch=3 n=50 v=80
22920 On ch=3 n=62 v=0
22920 On ch=3 n=57 v=0
22928 On ch=3 n=50 v=0
22944 On ch=3 n=62 v=95
22944 On ch=3 n=50 v=95
23016 On ch=3 n=62 v=0
23024 On ch=3 n=50 v=0
23040 On ch=3 n=62 v=80
23040 On ch=3 n=50 v=80
23112 On ch=3 n=62 v=0
23120 On ch=3 n=50 v=0
23136 On ch=3 n=62 v=80
23136 On ch=3 n=57 v=80
23136 On ch=3 n=50 v=80
23208 On ch=3 n=62 v=0
23208 On ch=3 n=57 v=0
23216 On ch=3 n=50 v=0
23232 On ch=3 n=62 v=80
23232 On ch=3 n=50 v=80
23304 On ch=3 n=62 v=0
23312 On ch=3 n=50 v=0
23328 On ch=3 n=62 v=80
23328 On ch=3 n=60 v=85
23328 On ch=3 n=50 v=80
23400 On ch=3 n=62 v=0
23408 On ch=3 n=60 v=0
23408 On ch=3 n=50 v=0
23424 On ch=3 n=62 v=80
23424 On ch=3 n=60 v=90
23424 On ch=3 n=50 v=80
23496 On ch=3 n=62 v=0
23496 On ch=3 n=60 v=0
23504 On ch=3 n=50 v=0
23520 On ch=3 n=62 v=80
23520 On ch=3 n=57 v=80
23520 On ch=3 n=50 v=80
23592 On ch=3 n=62 v=0
23592 On ch=3 n=57 v=0
23600 On ch=3 n=50 v=0
23616 On ch=3 n=62 v=80
23616 On ch=3 n=60 v=80
23616 On ch=3 n=50 v=80
23688 On ch=3 n=62 v=0
23688 On ch=3 n=60 v=0
23696 On ch=3 n=50 v=0
23712 On ch=3 n=67 v=95
23712 On ch=3 n=55 v=95
23784 On ch=3 n=67 v=0
23792 On ch=3 n=55 v=0
23808 On ch=3 n=67 v=90
23808 On ch=3 n=55 v=90
23880 On ch=3 n=67 v=0
23888 On ch=3 n=55 v=0
23904 On ch=3 n=67 v=80
23904 On ch=3 n=55 v=80
23976 On ch=3 n=67 v=0
23984 On ch=3 n=55 v=0
24000 On ch=3 n=67 v=90
24000 On ch=3 n=55 v=90
24072 On ch=3 n=67 v=0
24080 On ch=3 n=55 v=0
24096 On ch=3 n=67 v=80
24096 On ch=3 n=55 v=80
24168 On ch=3 n=67 v=0
24176 On ch=3 n=55 v=0
24192 On ch=3 n=65 v=95
24192 On ch=3 n=55 v=90
24272 On ch=3 n=55 v=0
24280 On ch=3 n=65 v=0
24288 On ch=3 n=67 v=80
24288 On ch=3 n=55 v=80
24360 On ch=3 n=67 v=0
24368 On ch=3 n=55 v=0
24384 On ch=3 n=67 v=90
24384 On ch=3 n=55 v=90
24456 On ch=3 n=67 v=0
24464 On ch=3 n=55 v=0
24480 On ch=3 n=67 v=90
24480 On ch=3 n=55 v=90
24568 On ch=3 n=67 v=0
24568 On ch=3 n=55 v=0
24576 On ch=3 n=67 v=90
24576 On ch=3 n=55 v=90
24648 On ch=3 n=67 v=0
24656 On ch=3 n=55 v=0
24672 On ch=3 n=67 v=80
24672 On ch=3 n=62 v=80
24672 On ch=3 n=55 v=80
24744 On ch=3 n=67 v=0
24744 On ch=3 n=62 v=0
24752 On ch=3 n=55 v=0
24768 On ch=3 n=67 v=80
24768 On ch=3 n=55 v=80
24840 On ch=3 n=67 v=0
24848 On ch=3 n=55 v=0
24864 On ch=3 n=67 v=85
24864 On ch=3 n=65 v=85
24864 On ch=3 n=55 v=85
24936 On ch=3 n=67 v=0
24944 On ch=3 n=65 v=0
24944 On ch=3 n=55 v=0
24960 On ch=3 n=67 v=90
24960 On ch=3 n=65 v=90
24960 On ch=3 n=55 v=90
25032 On ch=3 n=67 v=0
25032 On ch=3 n=65 v=0
25040 On ch=3 n=55 v=0
25056 On ch=3 n=67 v=90
25056 On ch=3 n=55 v=90
25128 On ch=3 n=67 v=0
25136 On ch=3 n=55 v=0
25152 On ch=3 n=67 v=90
25152 On ch=3 n=55 v=80
25224 On ch=3 n=67 v=0
25232 On ch=3 n=55 v=0
25248 On ch=3 n=62 v=90
25248 On ch=3 n=50 v=90
25336 On ch=3 n=62 v=0
25336 On ch=3 n=50 v=0
25344 On ch=3 n=62 v=80
25344 On ch=3 n=50 v=80
25416 On ch=3 n=62 v=0
25424 On ch=3 n=50 v=0
25440 On ch=3 n=62 v=80
25440 On ch=3 n=50 v=80
25512 On ch=3 n=62 v=0
25520 On ch=3 n=50 v=0
25536 On ch=3 n=62 v=90
25536 On ch=3 n=57 v=95
25536 On ch=3 n=50 v=90
25608 On ch=3 n=62 v=0
25616 On ch=3 n=57 v=0
25616 On ch=3 n=50 v=0
25632 On ch=3 n=62 v=80
25632 On ch=3 n=50 v=80
25704 On ch=3 n=62 v=0
25712 On ch=3 n=50 v=0
25728 On ch=3 n=62 v=80
25728 On ch=3 n=60 v=80
25728 On ch=3 n=50 v=90
25800 On ch=3 n=62 v=0
25808 On ch=3 n=60 v=0
25808 On ch=3 n=50 v=0
25824 On ch=3 n=62 v=90
25824 On ch=3 n=50 v=90
25896 On ch=3 n=62 v=0
25904 On ch=3 n=50 v=0
25920 On ch=3 n=62 v=80
25920 On ch=3 n=57 v=80
25920 On ch=3 n=50 v=80
25984 On ch=3 n=57 v=0
25992 On ch=3 n=62 v=0
26000 On ch=3 n=50 v=0
26016 On ch=3 n=62 v=100
26016 On ch=3 n=50 v=95
26088 On ch=3 n=62 v=0
26096 On ch=3 n=50 v=0
26112 On ch=3 n=62 v=80
26112 On ch=3 n=50 v=80
26184 On ch=3 n=62 v=0
26192 On ch=3 n=50 v=0
26208 On ch=3 n=62 v=95
26208 On ch=3 n=57 v=95
26208 On ch=3 n=50 v=95
26280 On ch=3 n=62 v=0
26288 On ch=3 n=50 v=0
26296 On ch=3 n=57 v=0
26304 On ch=3 n=62 v=80
26304 On ch=3 n=50 v=80
26376 On ch=3 n=62 v=0
26384 On ch=3 n=50 v=0
26400 On ch=3 n=62 v=90
26400 On ch=3 n=60 v=90
26400 On ch=3 n=50 v=90
26472 On ch=3 n=62 v=0
26472 On ch=3 n=60 v=0
26480 On ch=3 n=50 v=0
26496 On ch=3 n=62 v=85
26496 On ch=3 n=60 v=95
26496 On ch=3 n=50 v=85
26568 On ch=3 n=62 v=0
26568 On ch=3 n=60 v=0
26576 On ch=3 n=50 v=0
26592 On ch=3 n=62 v=95
26592 On ch=3 n=50 v=95
26664 On ch=3 n=62 v=0
26672 On ch=3 n=50 v=0
26688 On ch=3 n=62 v=80
26688 On ch=3 n=57 v=80
26688 On ch=3 n=50 v=80
26760 On ch=3 n=62 v=0
26760 On ch=3 n=57 v=0
26768 On ch=3 n=50 v=0
26784 On ch=3 n=67 v=100
26784 On ch=3 n=55 v=100
26856 On ch=3 n=67 v=0
26864 On ch=3 n=55 v=0
26880 On ch=3 n=67 v=90
26880 On ch=3 n=55 v=84
26952 On ch=3 n=67 v=0
26960 On ch=3 n=55 v=0
26976 On ch=3 n=67 v=91
26976 On ch=3 n=55 v=85
27048 On ch=3 n=67 v=0
27056 On ch=3 n=55 v=0
27072 On ch=3 n=67 v=92
27072 On ch=3 n=55 v=86
27144 On ch=3 n=67 v=0
27152 On ch=3 n=55 v=0
27168 On ch=3 n=67 v=93
27168 On ch=3 n=55 v=87
27240 On ch=3 n=67 v=0
27248 On ch=3 n=55 v=0
27264 On ch=3 n=67 v=94
27264 On ch=3 n=65 v=88
27264 On ch=3 n=55 v=88
27336 On ch=3 n=67 v=0
27336 On ch=3 n=65 v=0
27344 On ch=3 n=55 v=0
27360 On ch=3 n=67 v=95
27360 On ch=3 n=55 v=89
27432 On ch=3 n=67 v=0
27440 On ch=3 n=55 v=0
27456 On ch=3 n=67 v=99
27456 On ch=3 n=55 v=90
27528 On ch=3 n=67 v=0
27536 On ch=3 n=55 v=0
27552 On ch=3 n=67 v=90
27552 On ch=3 n=55 v=90
27640 On ch=3 n=67 v=0
27640 On ch=3 n=55 v=0
27648 On ch=3 n=67 v=95
27648 On ch=3 n=55 v=95
27720 On ch=3 n=67 v=0
27728 On ch=3 n=55 v=0
27744 On ch=3 n=67 v=90
27744 On ch=3 n=62 v=90
27744 On ch=3 n=55 v=90
27816 On ch=3 n=67 v=0
27824 On ch=3 n=55 v=0
27832 On ch=3 n=62 v=0
27840 On ch=3 n=67 v=85
27840 On ch=3 n=55 v=85
27912 On ch=3 n=67 v=0
27920 On ch=3 n=55 v=0
27936 On ch=3 n=67 v=90
27936 On ch=3 n=65 v=95
27936 On ch=3 n=55 v=90
28008 On ch=3 n=67 v=0
28016 On ch=3 n=65 v=0
28016 On ch=3 n=55 v=0
28032 On ch=3 n=67 v=90
28032 On ch=3 n=65 v=100
28032 On ch=3 n=55 v=90
28104 On ch=3 n=67 v=0
28112 On ch=3 n=55 v=0
28120 On ch=3 n=65 v=0
28128 On ch=3 n=67 v=70
28128 On ch=3 n=55 v=85
28200 On ch=3 n=67 v=0
28208 On ch=3 n=55 v=0
28224 On ch=3 n=67 v=95
28224 On ch=3 n=55 v=90
28296 On ch=3 n=67 v=0
28304 On ch=3 n=55 v=0
28320 On ch=3 n=62 v=95
28320 On ch=3 n=50 v=95
28408 On ch=3 n=62 v=0
28408 On ch=3 n=50 v=0
28416 On ch=3 n=62 v=80
28416 On ch=3 n=50 v=80
28488 On ch=3 n=62 v=0
28496 On ch=3 n=50 v=0
28512 On ch=3 n=62 v=80
28512 On ch=3 n=50 v=80
28584 On ch=3 n=62 v=0
28592 On ch=3 n=50 v=0
28608 On ch=3 n=62 v=90
28608 On ch=3 n=57 v=95
28608 On ch=3 n=50 v=90
28680 On ch=3 n=62 v=0
28688 On ch=3 n=50 v=0
28696 On ch=3 n=57 v=0
28704 On ch=3 n=62 v=80
28704 On ch=3 n=50 v=80
28776 On ch=3 n=62 v=0
28784 On ch=3 n=50 v=0
28800 On ch=3 n=62 v=80
28800 On ch=3 n=60 v=95
28800 On ch=3 n=50 v=80
28872 On ch=3 n=62 v=0
28880 On ch=3 n=60 v=0
28880 On ch=3 n=50 v=0
28896 On ch=3 n=62 v=80
28896 On ch=3 n=50 v=80
28968 On ch=3 n=62 v=0
28976 On ch=3 n=50 v=0
28992 On ch=3 n=62 v=90
28992 On ch=3 n=57 v=90
28992 On ch=3 n=50 v=90
29064 On ch=3 n=62 v=0
29064 On ch=3 n=57 v=0
29072 On ch=3 n=50 v=0
29088 On ch=3 n=62 v=95
29088 On ch=3 n=50 v=95
29160 On ch=3 n=62 v=0
29168 On ch=3 n=50 v=0
29184 On ch=3 n=62 v=80
29184 On ch=3 n=50 v=80
29256 On ch=3 n=62 v=0
29264 On ch=3 n=50 v=0
29280 On ch=3 n=62 v=80
29280 On ch=3 n=57 v=80
29280 On ch=3 n=50 v=80
29352 On ch=3 n=62 v=0
29352 On ch=3 n=57 v=0
29360 On ch=3 n=50 v=0
29376 On ch=3 n=62 v=90
29376 On ch=3 n=50 v=90
29448 On ch=3 n=62 v=0
29456 On ch=3 n=50 v=0
29472 On ch=3 n=62 v=80
29472 On ch=3 n=60 v=85
29472 On ch=3 n=50 v=80
29544 On ch=3 n=62 v=0
29544 On ch=3 n=60 v=0
29552 On ch=3 n=50 v=0
29568 On ch=3 n=62 v=90
29568 On ch=3 n=60 v=90
29568 On ch=3 n=50 v=90
29640 On ch=3 n=62 v=0
29640 On ch=3 n=60 v=0
29648 On ch=3 n=50 v=0
29664 On ch=3 n=62 v=80
29664 On ch=3 n=50 v=80
29736 On ch=3 n=62 v=0
29744 On ch=3 n=50 v=0
29760 On ch=3 n=62 v=90
29760 On ch=3 n=57 v=90
29760 On ch=3 n=50 v=90
29832 On ch=3 n=62 v=0
29832 On ch=3 n=57 v=0
29840 On ch=3 n=50 v=0
29856 On ch=3 n=67 v=100
29856 On ch=3 n=60 v=80
29856 On ch=3 n=55 v=100
29944 On ch=3 n=67 v=0
29944 On ch=3 n=55 v=0
29952 On ch=3 n=67 v=85
29952 On ch=3 n=55 v=85
30048 On ch=3 n=67 v=0
30048 On ch=3 n=55 v=0
30048 On ch=3 n=67 v=85
30048 On ch=3 n=55 v=85
30144 On ch=3 n=67 v=0
30144 On ch=3 n=55 v=0
30144 On ch=3 n=67 v=85
30144 On ch=3 n=55 v=85
30240 On ch=3 n=67 v=0
30240 On ch=3 n=55 v=0
30240 On ch=3 n=67 v=95
30240 On ch=3 n=55 v=95
30336 On ch=3 n=67 v=0
30336 On ch=3 n=55 v=0
30336 On ch=3 n=67 v=85
30336 On ch=3 n=55 v=85
30432 On ch=3 n=67 v=0
30432 On ch=3 n=55 v=0
30432 On ch=3 n=67 v=85
30432 On ch=3 n=55 v=85
30504 On ch=3 n=60 v=0
30528 On ch=3 n=67 v=0
30528 On ch=3 n=55 v=0
30528 On ch=3 n=67 v=85
30528 On ch=3 n=55 v=85
30624 On ch=3 n=67 v=0
30624 On ch=3 n=55 v=0
30624 On ch=3 n=67 v=80
30624 On ch=3 n=55 v=80
30720 On ch=3 n=67 v=0
30720 On ch=3 n=55 v=0
30720 On ch=3 n=67 v=85
30720 On ch=3 n=55 v=85
30816 On ch=3 n=67 v=0
30816 On ch=3 n=55 v=0
30816 On ch=3 n=67 v=90
30816 On ch=3 n=55 v=90
30912 On ch=3 n=67 v=0
30912 On ch=3 n=55 v=0
30912 On ch=3 n=67 v=82
30912 On ch=3 n=55 v=82
31008 On ch=3 n=67 v=0
31008 On ch=3 n=55 v=0
31008 On ch=3 n=67 v=90
31008 On ch=3 n=55 v=90
31104 On ch=3 n=67 v=0
31104 On ch=3 n=55 v=0
31104 On ch=3 n=67 v=95
31104 On ch=3 n=55 v=95
31200 On ch=3 n=67 v=0
31200 On ch=3 n=55 v=0
31200 On ch=3 n=67 v=76
31200 On ch=3 n=55 v=76
31296 On ch=3 n=67 v=0
31296 On ch=3 n=55 v=0
31296 On ch=3 n=67 v=74
31296 On ch=3 n=55 v=74
31392 On ch=3 n=67 v=0
31392 On ch=3 n=55 v=0
31392 On ch=3 n=67 v=72
31392 On ch=3 n=55 v=36
31488 On ch=3 n=67 v=0
31488 On ch=3 n=55 v=0
33792 On ch=3 n=71 v=90
33792 On ch=3 n=59 v=90
33888 On ch=3 n=71 v=0
33888 On ch=3 n=59 v=0
33888 On ch=3 n=71 v=80
33888 On ch=3 n=59 v=80
33976 On ch=3 n=71 v=0
33976 On ch=3 n=59 v=0
33984 On ch=3 n=71 v=80
33984 On ch=3 n=59 v=80
34064 On ch=3 n=71 v=0
34064 On ch=3 n=59 v=0
34080 On ch=3 n=71 v=90
34080 On ch=3 n=59 v=90
34152 On ch=3 n=71 v=0
34152 On ch=3 n=59 v=0
34176 On ch=3 n=71 v=80
34176 On ch=3 n=59 v=80
34248 On ch=3 n=71 v=0
34248 On ch=3 n=59 v=0
34272 On ch=3 n=71 v=80
34272 On ch=3 n=59 v=80
34344 On ch=3 n=71 v=0
34344 On ch=3 n=59 v=0
34368 On ch=3 n=71 v=90
34368 On ch=3 n=59 v=90
34448 On ch=3 n=71 v=0
34448 On ch=3 n=59 v=0
34464 On ch=3 n=71 v=80
34464 On ch=3 n=59 v=80
34544 On ch=3 n=71 v=0
34544 On ch=3 n=59 v=0
34560 On ch=3 n=69 v=85
34560 On ch=3 n=57 v=85
34640 On ch=3 n=69 v=0
34640 On ch=3 n=57 v=0
34656 On ch=3 n=69 v=80
34656 On ch=3 n=57 v=80
34736 On ch=3 n=69 v=0
34736 On ch=3 n=57 v=0
34752 On ch=3 n=69 v=80
34752 On ch=3 n=57 v=80
34832 On ch=3 n=69 v=0
34832 On ch=3 n=57 v=0
34848 On ch=3 n=69 v=90
34848 On ch=3 n=57 v=90
34928 On ch=3 n=69 v=0
34928 On ch=3 n=57 v=0
34944 On ch=3 n=69 v=80
34944 On ch=3 n=57 v=80
35024 On ch=3 n=69 v=0
35024 On ch=3 n=57 v=0
35040 On ch=3 n=69 v=80
35040 On ch=3 n=57 v=80
35120 On ch=3 n=69 v=0
35120 On ch=3 n=57 v=0
35136 On ch=3 n=69 v=80
35136 On ch=3 n=57 v=80
35216 On ch=3 n=69 v=0
35216 On ch=3 n=57 v=0
35232 On ch=3 n=69 v=80
35232 On ch=3 n=57 v=80
35312 On ch=3 n=69 v=0
35312 On ch=3 n=57 v=0
35328 On ch=3 n=69 v=85
35328 On ch=3 n=57 v=85
35400 On ch=3 n=69 v=0
35400 On ch=3 n=57 v=0
35424 On ch=3 n=69 v=80
35424 On ch=3 n=57 v=80
35496 On ch=3 n=69 v=0
35496 On ch=3 n=57 v=0
35520 On ch=3 n=69 v=80
35520 On ch=3 n=57 v=80
35592 On ch=3 n=69 v=0
35592 On ch=3 n=57 v=0
35616 On ch=3 n=69 v=90
35616 On ch=3 n=57 v=90
35688 On ch=3 n=69 v=0
35688 On ch=3 n=57 v=0
35712 On ch=3 n=69 v=80
35712 On ch=3 n=57 v=80
35784 On ch=3 n=69 v=0
35784 On ch=3 n=57 v=0
35808 On ch=3 n=69 v=80
35808 On ch=3 n=57 v=80
35880 On ch=3 n=69 v=0
35880 On ch=3 n=57 v=0
35904 On ch=3 n=69 v=80
35904 On ch=3 n=57 v=80
35976 On ch=3 n=69 v=0
35976 On ch=3 n=57 v=0
36000 On ch=3 n=69 v=80
36000 On ch=3 n=57 v=80
36072 On ch=3 n=69 v=0
36072 On ch=3 n=57 v=0
36096 On ch=3 n=69 v=85
36096 On ch=3 n=57 v=85
36168 On ch=3 n=69 v=0
36168 On ch=3 n=57 v=0
36192 On ch=3 n=69 v=80
36192 On ch=3 n=57 v=80
36264 On ch=3 n=69 v=0
36264 On ch=3 n=57 v=0
36288 On ch=3 n=69 v=80
36288 On ch=3 n=57 v=80
36360 On ch=3 n=69 v=0
36360 On ch=3 n=57 v=0
36384 On ch=3 n=69 v=90
36384 On ch=3 n=57 v=90
36456 On ch=3 n=69 v=0
36456 On ch=3 n=57 v=0
36480 On ch=3 n=69 v=80
36480 On ch=3 n=57 v=80
36552 On ch=3 n=69 v=0
36552 On ch=3 n=57 v=0
36576 On ch=3 n=69 v=80
36576 On ch=3 n=57 v=80
36648 On ch=3 n=69 v=0
36648 On ch=3 n=57 v=0
36672 On ch=3 n=69 v=80
36672 On ch=3 n=57 v=80
36744 On ch=3 n=69 v=0
36744 On ch=3 n=57 v=0
36768 On ch=3 n=69 v=80
36768 On ch=3 n=57 v=80
36840 On ch=3 n=69 v=0
36840 On ch=3 n=57 v=0
36864 On ch=3 n=71 v=80
36864 On ch=3 n=59 v=80
36936 On ch=3 n=71 v=0
36936 On ch=3 n=59 v=0
36960 On ch=3 n=71 v=90
36960 On ch=3 n=59 v=90
37032 On ch=3 n=71 v=0
37032 On ch=3 n=59 v=0
37152 On ch=3 n=71 v=95
37152 On ch=3 n=59 v=95
37224 On ch=3 n=71 v=0
37224 On ch=3 n=59 v=0
37344 On ch=3 n=71 v=90
37344 On ch=3 n=59 v=90
37416 On ch=3 n=71 v=0
37416 On ch=3 n=59 v=0
37536 On ch=3 n=71 v=80
37536 On ch=3 n=59 v=80
37608 On ch=3 n=71 v=0
37608 On ch=3 n=59 v=0
44544 On ch=3 n=62 v=85
44544 On ch=3 n=50 v=80
44616 On ch=3 n=62 v=0
44624 On ch=3 n=50 v=0
44640 On ch=3 n=62 v=80
44640 On ch=3 n=50 v=80
44712 On ch=3 n=62 v=0
44720 On ch=3 n=50 v=0
44736 On ch=3 n=62 v=80
44736 On ch=3 n=57 v=85
44736 On ch=3 n=50 v=80
44808 On ch=3 n=62 v=0
44808 On ch=3 n=57 v=0
44816 On ch=3 n=50 v=0
44832 On ch=3 n=62 v=85
44832 On ch=3 n=50 v=85
44904 On ch=3 n=62 v=0
44912 On ch=3 n=50 v=0
44928 On ch=3 n=62 v=80
44928 On ch=3 n=60 v=85
44928 On ch=3 n=50 v=80
44984 On ch=3 n=60 v=0
45000 On ch=3 n=62 v=0
45008 On ch=3 n=50 v=0
45024 On ch=3 n=62 v=80
45024 On ch=3 n=50 v=80
45096 On ch=3 n=62 v=0
45104 On ch=3 n=50 v=0
45120 On ch=3 n=62 v=80
45120 On ch=3 n=57 v=85
45120 On ch=3 n=50 v=80
45184 On ch=3 n=57 v=0
45192 On ch=3 n=62 v=0
45200 On ch=3 n=50 v=0
45216 On ch=3 n=62 v=100
45216 On ch=3 n=50 v=90
45288 On ch=3 n=62 v=0
45296 On ch=3 n=50 v=0
45312 On ch=3 n=62 v=75
45312 On ch=3 n=50 v=80
45384 On ch=3 n=62 v=0
45392 On ch=3 n=50 v=0
45408 On ch=3 n=62 v=85
45408 On ch=3 n=57 v=80
45408 On ch=3 n=50 v=80
45480 On ch=3 n=62 v=0
45480 On ch=3 n=57 v=0
45488 On ch=3 n=50 v=0
45504 On ch=3 n=62 v=80
45504 On ch=3 n=50 v=80
45576 On ch=3 n=62 v=0
45584 On ch=3 n=50 v=0
45600 On ch=3 n=62 v=80
45600 On ch=3 n=60 v=82
45600 On ch=3 n=50 v=80
45672 On ch=3 n=62 v=0
45672 On ch=3 n=60 v=0
45680 On ch=3 n=50 v=0
45696 On ch=3 n=62 v=80
45696 On ch=3 n=60 v=90
45696 On ch=3 n=50 v=80
45760 On ch=3 n=60 v=0
45768 On ch=3 n=62 v=0
45776 On ch=3 n=50 v=0
45792 On ch=3 n=62 v=80
45792 On ch=3 n=50 v=80
45864 On ch=3 n=62 v=0
45872 On ch=3 n=50 v=0
45888 On ch=3 n=62 v=80
45888 On ch=3 n=57 v=80
45888 On ch=3 n=50 v=80
45960 On ch=3 n=62 v=0
45960 On ch=3 n=57 v=0
45968 On ch=3 n=50 v=0
45984 On ch=3 n=67 v=90
45984 On ch=3 n=55 v=90
46056 On ch=3 n=67 v=0
46064 On ch=3 n=55 v=0
46080 On ch=3 n=67 v=90
46080 On ch=3 n=55 v=90
46152 On ch=3 n=67 v=0
46160 On ch=3 n=55 v=0
46176 On ch=3 n=67 v=90
46176 On ch=3 n=55 v=90
46248 On ch=3 n=67 v=0
46256 On ch=3 n=55 v=0
46272 On ch=3 n=67 v=85
46272 On ch=3 n=62 v=80
46272 On ch=3 n=55 v=85
46344 On ch=3 n=67 v=0
46344 On ch=3 n=62 v=0
46352 On ch=3 n=55 v=0
46368 On ch=3 n=67 v=80
46368 On ch=3 n=55 v=80
46440 On ch=3 n=67 v=0
46448 On ch=3 n=55 v=0
46464 On ch=3 n=67 v=80
46464 On ch=3 n=65 v=90
46464 On ch=3 n=55 v=80
46536 On ch=3 n=67 v=0
46544 On ch=3 n=55 v=0
46552 On ch=3 n=65 v=0
46560 On ch=3 n=67 v=80
46560 On ch=3 n=55 v=80
46632 On ch=3 n=67 v=0
46640 On ch=3 n=55 v=0
46656 On ch=3 n=67 v=85
46656 On ch=3 n=62 v=85
46656 On ch=3 n=55 v=85
46728 On ch=3 n=67 v=0
46736 On ch=3 n=62 v=0
46736 On ch=3 n=55 v=0
46752 On ch=3 n=67 v=85
46752 On ch=3 n=55 v=100
46840 On ch=3 n=67 v=0
46840 On ch=3 n=55 v=0
46848 On ch=3 n=67 v=85
46848 On ch=3 n=55 v=85
46920 On ch=3 n=67 v=0
46928 On ch=3 n=55 v=0
46944 On ch=3 n=67 v=85
46944 On ch=3 n=62 v=90
46944 On ch=3 n=55 v=85
47016 On ch=3 n=67 v=0
47016 On ch=3 n=62 v=0
47024 On ch=3 n=55 v=0
47040 On ch=3 n=67 v=85
47040 On ch=3 n=55 v=85
47112 On ch=3 n=67 v=0
47120 On ch=3 n=55 v=0
47136 On ch=3 n=67 v=85
47136 On ch=3 n=65 v=85
47136 On ch=3 n=55 v=85
47208 On ch=3 n=67 v=0
47216 On ch=3 n=55 v=0
47224 On ch=3 n=65 v=0
47232 On ch=3 n=67 v=85
47232 On ch=3 n=65 v=95
47232 On ch=3 n=55 v=85
47304 On ch=3 n=67 v=0
47304 On ch=3 n=65 v=0
47312 On ch=3 n=55 v=0
47328 On ch=3 n=67 v=85
47328 On ch=3 n=55 v=85
47400 On ch=3 n=67 v=0
47408 On ch=3 n=55 v=0
47424 On ch=3 n=67 v=85
47424 On ch=3 n=62 v=85
47424 On ch=3 n=55 v=85
47496 On ch=3 n=67 v=0
47496 On ch=3 n=62 v=0
47504 On ch=3 n=55 v=0
47520 On ch=3 n=62 v=90
47520 On ch=3 n=50 v=90
47608 On ch=3 n=62 v=0
47608 On ch=3 n=50 v=0
47616 On ch=3 n=62 v=80
47616 On ch=3 n=50 v=80
47688 On ch=3 n=62 v=0
47696 On ch=3 n=50 v=0
47712 On ch=3 n=62 v=95
47712 On ch=3 n=50 v=80
47792 On ch=3 n=50 v=0
47800 On ch=3 n=62 v=0
47808 On ch=3 n=62 v=80
47808 On ch=3 n=57 v=90
47808 On ch=3 n=50 v=80
47880 On ch=3 n=62 v=0
47888 On ch=3 n=50 v=0
47896 On ch=3 n=57 v=0
47904 On ch=3 n=62 v=90
47904 On ch=3 n=50 v=90
47976 On ch=3 n=62 v=0
47984 On ch=3 n=50 v=0
48000 On ch=3 n=62 v=80
48000 On ch=3 n=60 v=85
48000 On ch=3 n=50 v=80
48064 On ch=3 n=60 v=0
48072 On ch=3 n=62 v=0
48080 On ch=3 n=50 v=0
48096 On ch=3 n=62 v=85
48096 On ch=3 n=50 v=80
48168 On ch=3 n=62 v=0
48176 On ch=3 n=50 v=0
48192 On ch=3 n=62 v=80
48192 On ch=3 n=57 v=80
48192 On ch=3 n=50 v=80
48264 On ch=3 n=62 v=0
48264 On ch=3 n=57 v=0
48272 On ch=3 n=50 v=0
48288 On ch=3 n=62 v=95
48288 On ch=3 n=50 v=95
48360 On ch=3 n=62 v=0
48368 On ch=3 n=50 v=0
48384 On ch=3 n=62 v=80
48384 On ch=3 n=50 v=80
48456 On ch=3 n=62 v=0
48464 On ch=3 n=50 v=0
48480 On ch=3 n=62 v=80
48480 On ch=3 n=57 v=80
48480 On ch=3 n=50 v=80
48552 On ch=3 n=62 v=0
48552 On ch=3 n=57 v=0
48560 On ch=3 n=50 v=0
48576 On ch=3 n=62 v=80
48576 On ch=3 n=50 v=80
48648 On ch=3 n=62 v=0
48656 On ch=3 n=50 v=0
48672 On ch=3 n=62 v=80
48672 On ch=3 n=60 v=85
48672 On ch=3 n=50 v=80
48744 On ch=3 n=62 v=0
48752 On ch=3 n=60 v=0
48752 On ch=3 n=50 v=0
48768 On ch=3 n=62 v=80
48768 On ch=3 n=60 v=90
48768 On ch=3 n=50 v=80
48840 On ch=3 n=62 v=0
48840 On ch=3 n=60 v=0
48848 On ch=3 n=50 v=0
48864 On ch=3 n=62 v=80
48864 On ch=3 n=57 v=80
48864 On ch=3 n=50 v=80
48936 On ch=3 n=62 v=0
48936 On ch=3 n=57 v=0
48944 On ch=3 n=50 v=0
48960 On ch=3 n=62 v=80
48960 On ch=3 n=60 v=80
48960 On ch=3 n=50 v=80
49032 On ch=3 n=62 v=0
49032 On ch=3 n=60 v=0
49040 On ch=3 n=50 v=0
49056 On ch=3 n=67 v=95
49056 On ch=3 n=55 v=95
49128 On ch=3 n=67 v=0
49136 On ch=3 n=55 v=0
49152 On ch=3 n=67 v=90
49152 On ch=3 n=55 v=90
49224 On ch=3 n=67 v=0
49232 On ch=3 n=55 v=0
49248 On ch=3 n=67 v=80
49248 On ch=3 n=55 v=80
49320 On ch=3 n=67 v=0
49328 On ch=3 n=55 v=0
49344 On ch=3 n=67 v=90
49344 On ch=3 n=55 v=90
49416 On ch=3 n=67 v=0
49424 On ch=3 n=55 v=0
49440 On ch=3 n=67 v=80
49440 On ch=3 n=55 v=80
49512 On ch=3 n=67 v=0
49520 On ch=3 n=55 v=0
49536 On ch=3 n=65 v=95
49536 On ch=3 n=55 v=90
49616 On ch=3 n=55 v=0
49624 On ch=3 n=65 v=0
49632 On ch=3 n=67 v=80
49632 On ch=3 n=55 v=80
49704 On ch=3 n=67 v=0
49712 On ch=3 n=55 v=0
49728 On ch=3 n=67 v=90
49728 On ch=3 n=55 v=90
49800 On ch=3 n=67 v=0
49808 On ch=3 n=55 v=0
49824 On ch=3 n=67 v=90
49824 On ch=3 n=55 v=90
49912 On ch=3 n=67 v=0
49912 On ch=3 n=55 v=0
49920 On ch=3 n=67 v=90
49920 On ch=3 n=55 v=90
49992 On ch=3 n=67 v=0
50000 On ch=3 n=55 v=0
50016 On ch=3 n=67 v=80
50016 On ch=3 n=62 v=80
50016 On ch=3 n=55 v=80
50088 On ch=3 n=67 v=0
50088 On ch=3 n=62 v=0
50096 On ch=3 n=55 v=0
50112 On ch=3 n=67 v=80
50112 On ch=3 n=55 v=80
50184 On ch=3 n=67 v=0
50192 On ch=3 n=55 v=0
50208 On ch=3 n=67 v=85
50208 On ch=3 n=65 v=85
50208 On ch=3 n=55 v=85
50280 On ch=3 n=67 v=0
50288 On ch=3 n=65 v=0
50288 On ch=3 n=55 v=0
50304 On ch=3 n=67 v=90
50304 On ch=3 n=65 v=90
50304 On ch=3 n=55 v=90
50376 On ch=3 n=67 v=0
50376 On ch=3 n=65 v=0
50384 On ch=3 n=55 v=0
50400 On ch=3 n=67 v=90
50400 On ch=3 n=55 v=90
50472 On ch=3 n=67 v=0
50480 On ch=3 n=55 v=0
50496 On ch=3 n=67 v=90
50496 On ch=3 n=55 v=80
50568 On ch=3 n=67 v=0
50576 On ch=3 n=55 v=0
50592 On ch=3 n=62 v=90
50592 On ch=3 n=50 v=90
50680 On ch=3 n=62 v=0
50680 On ch=3 n=50 v=0
50688 On ch=3 n=62 v=80
50688 On ch=3 n=50 v=80
50760 On ch=3 n=62 v=0
50768 On ch=3 n=50 v=0
50784 On ch=3 n=62 v=80
50784 On ch=3 n=50 v=80
50856 On ch=3 n=62 v=0
50864 On ch=3 n=50 v=0
50880 On ch=3 n=62 v=90
50880 On ch=3 n=57 v=95
50880 On ch=3 n=50 v=90
50952 On ch=3 n=62 v=0
50960 On ch=3 n=57 v=0
50960 On ch=3 n=50 v=0
50976 On ch=3 n=62 v=80
50976 On ch=3 n=50 v=80
51048 On ch=3 n=62 v=0
51056 On ch=3 n=50 v=0
51072 On ch=3 n=62 v=80
51072 On ch=3 n=60 v=80
51072 On ch=3 n=50 v=90
51144 On ch=3 n=62 v=0
51152 On ch=3 n=60 v=0
51152 On ch=3 n=50 v=0
51168 On ch=3 n=62 v=90
51168 On ch=3 n=50 v=90
51240 On ch=3 n=62 v=0
51248 On ch=3 n=50 v=0
51264 On ch=3 n=62 v=80
51264 On ch=3 n=57 v=80
51264 On ch=3 n=50 v=80
51328 On ch=3 n=57 v=0
51336 On ch=3 n=62 v=0
51344 On ch=3 n=50 v=0
51360 On ch=3 n=62 v=100
51360 On ch=3 n=50 v=95
51432 On ch=3 n=62 v=0
51440 On ch=3 n=50 v=0
51456 On ch=3 n=62 v=80
51456 On ch=3 n=50 v=80
51528 On ch=3 n=62 v=0
51536 On ch=3 n=50 v=0
51552 On ch=3 n=62 v=95
51552 On ch=3 n=57 v=95
51552 On ch=3 n=50 v=95
51624 On ch=3 n=62 v=0
51632 On ch=3 n=50 v=0
51640 On ch=3 n=57 v=0
51648 On ch=3 n=62 v=80
51648 On ch=3 n=50 v=80
51720 On ch=3 n=62 v=0
51728 On ch=3 n=50 v=0
51744 On ch=3 n=62 v=90
51744 On ch=3 n=60 v=90
51744 On ch=3 n=50 v=90
51816 On ch=3 n=62 v=0
51816 On ch=3 n=60 v=0
51824 On ch=3 n=50 v=0
51840 On ch=3 n=62 v=85
51840 On ch=3 n=60 v=95
51840 On ch=3 n=50 v=85
51912 On ch=3 n=62 v=0
51912 On ch=3 n=60 v=0
51920 On ch=3 n=50 v=0
51936 On ch=3 n=62 v=95
51936 On ch=3 n=50 v=95
52008 On ch=3 n=62 v=0
52016 On ch=3 n=50 v=0
52032 On ch=3 n=62 v=80
52032 On ch=3 n=57 v=80
52032 On ch=3 n=50 v=80
52104 On ch=3 n=62 v=0
52104 On ch=3 n=57 v=0
52112 On ch=3 n=50 v=0
52128 On ch=3 n=67 v=100
52128 On ch=3 n=55 v=100
52200 On ch=3 n=67 v=0
52208 On ch=3 n=55 v=0
52224 On ch=3 n=67 v=90
52224 On ch=3 n=55 v=84
52296 On ch=3 n=67 v=0
52304 On ch=3 n=55 v=0
52320 On ch=3 n=67 v=91
52320 On ch=3 n=55 v=85
52392 On ch=3 n=67 v=0
52400 On ch=3 n=55 v=0
52416 On ch=3 n=67 v=92
52416 On ch=3 n=55 v=86
52488 On ch=3 n=67 v=0
52496 On ch=3 n=55 v=0
52512 On ch=3 n=67 v=93
52512 On ch=3 n=55 v=87
52584 On ch=3 n=67 v=0
52592 On ch=3 n=55 v=0
52608 On ch=3 n=67 v=94
52608 On ch=3 n=65 v=88
52608 On ch=3 n=55 v=88
52680 On ch=3 n=67 v=0
52680 On ch=3 n=65 v=0
52688 On ch=3 n=55 v=0
52704 On ch=3 n=67 v=95
52704 On ch=3 n=55 v=89
52776 On ch=3 n=67 v=0
52784 On ch=3 n=55 v=0
52800 On ch=3 n=67 v=99
52800 On ch=3 n=55 v=90
52872 On ch=3 n=67 v=0
52880 On ch=3 n=55 v=0
52896 On ch=3 n=67 v=90
52896 On ch=3 n=55 v=90
52984 On ch=3 n=67 v=0
52984 On ch=3 n=55 v=0
52992 On ch=3 n=67 v=95
52992 On ch=3 n=55 v=95
53064 On ch=3 n=67 v=0
53072 On ch=3 n=55 v=0
53088 On ch=3 n=67 v=90
53088 On ch=3 n=62 v=90
53088 On ch=3 n=55 v=90
53160 On ch=3 n=67 v=0
53168 On ch=3 n=55 v=0
53176 On ch=3 n=62 v=0
53184 On ch=3 n=67 v=85
53184 On ch=3 n=55 v=85
53256 On ch=3 n=67 v=0
53264 On ch=3 n=55 v=0
53280 On ch=3 n=67 v=90
53280 On ch=3 n=65 v=95
53280 On ch=3 n=55 v=90
53352 On ch=3 n=67 v=0
53360 On ch=3 n=65 v=0
53360 On ch=3 n=55 v=0
53376 On ch=3 n=67 v=90
53376 On ch=3 n=65 v=100
53376 On ch=3 n=55 v=90
53448 On ch=3 n=67 v=0
53456 On ch=3 n=55 v=0
53464 On ch=3 n=65 v=0
53472 On ch=3 n=67 v=70
53472 On ch=3 n=55 v=85
53544 On ch=3 n=67 v=0
53552 On ch=3 n=55 v=0
53568 On ch=3 n=67 v=95
53568 On ch=3 n=55 v=90
53640 On ch=3 n=67 v=0
53648 On ch=3 n=55 v=0
53664 On ch=3 n=62 v=95
53664 On ch=3 n=50 v=95
53752 On ch=3 n=62 v=0
53752 On ch=3 n=50 v=0
53760 On ch=3 n=62 v=80
53760 On ch=3 n=50 v=80
53832 On ch=3 n=62 v=0
53840 On ch=3 n=50 v=0
53856 On ch=3 n=62 v=80
53856 On ch=3 n=50 v=80
53928 On ch=3 n=62 v=0
53936 On ch=3 n=50 v=0
53952 On ch=3 n=62 v=90
53952 On ch=3 n=57 v=95
53952 On ch=3 n=50 v=90
54024 On ch=3 n=62 v=0
54032 On ch=3 n=50 v=0
54040 On ch=3 n=57 v=0
54048 On ch=3 n=62 v=80
54048 On ch=3 n=50 v=80
54120 On ch=3 n=62 v=0
54128 On ch=3 n=50 v=0
54144 On ch=3 n=62 v=80
54144 On ch=3 n=60 v=95
54144 On ch=3 n=50 v=80
54216 On ch=3 n=62 v=0
54224 On ch=3 n=60 v=0
54224 On ch=3 n=50 v=0
54240 On ch=3 n=62 v=80
54240 On ch=3 n=50 v=80
54312 On ch=3 n=62 v=0
54320 On ch=3 n=50 v=0
54336 On ch=3 n=62 v=90
54336 On ch=3 n=57 v=90
54336 On ch=3 n=50 v=90
54408 On ch=3 n=62 v=0
54408 On ch=3 n=57 v=0
54416 On ch=3 n=50 v=0
54432 On ch=3 n=62 v=95
54432 On ch=3 n=50 v=95
54504 On ch=3 n=62 v=0
54512 On ch=3 n=50 v=0
54528 On ch=3 n=62 v=80
54528 On ch=3 n=50 v=80
54600 On ch=3 n=62 v=0
54608 On ch=3 n=50 v=0
54624 On ch=3 n=62 v=80
54624 On ch=3 n=57 v=80
54624 On ch=3 n=50 v=80
54696 On ch=3 n=62 v=0
54696 On ch=3 n=57 v=0
54704 On ch=3 n=50 v=0
54720 On ch=3 n=62 v=90
54720 On ch=3 n=50 v=90
54792 On ch=3 n=62 v=0
54800 On ch=3 n=50 v=0
54816 On ch=3 n=62 v=80
54816 On ch=3 n=60 v=85
54816 On ch=3 n=50 v=80
54888 On ch=3 n=62 v=0
54888 On ch=3 n=60 v=0
54896 On ch=3 n=50 v=0
54912 On ch=3 n=62 v=90
54912 On ch=3 n=60 v=90
54912 On ch=3 n=50 v=90
54984 On ch=3 n=62 v=0
54984 On ch=3 n=60 v=0
54992 On ch=3 n=50 v=0
55008 On ch=3 n=62 v=80
55008 On ch=3 n=50 v=80
55080 On ch=3 n=62 v=0
55088 On ch=3 n=50 v=0
55104 On ch=3 n=62 v=90
55104 On ch=3 n=57 v=90
55104 On ch=3 n=50 v=90
55176 On ch=3 n=62 v=0
55176 On ch=3 n=57 v=0
55184 On ch=3 n=50 v=0
55200 On ch=3 n=67 v=100
55200 On ch=3 n=60 v=80
55200 On ch=3 n=55 v=100
55288 On ch=3 n=67 v=0
55288 On ch=3 n=55 v=0
55296 On ch=3 n=67 v=85
55296 On ch=3 n=55 v=85
55392 On ch=3 n=67 v=0
55392 On ch=3 n=55 v=0
55392 On ch=3 n=67 v=85
55392 On ch=3 n=55 v=85
55488 On ch=3 n=67 v=0
55488 On ch=3 n=55 v=0
55488 On ch=3 n=67 v=85
55488 On ch=3 n=55 v=85
55584 On ch=3 n=67 v=0
55584 On ch=3 n=55 v=0
55584 On ch=3 n=67 v=95
55584 On ch=3 n=55 v=95
55680 On ch=3 n=67 v=0
55680 On ch=3 n=55 v=0
55680 On ch=3 n=67 v=85
55680 On ch=3 n=55 v=85
55776 On ch=3 n=67 v=0
55776 On ch=3 n=55 v=0
55776 On ch=3 n=67 v=85
55776 On ch=3 n=55 v=85
55848 On ch=3 n=60 v=0
55872 On ch=3 n=67 v=0
55872 On ch=3 n=55 v=0
55872 On ch=3 n=67 v=85
55872 On ch=3 n=55 v=85
55968 On ch=3 n=67 v=0
55968 On ch=3 n=55 v=0
55968 On ch=3 n=67 v=80
55968 On ch=3 n=55 v=80
56064 On ch=3 n=67 v=0
56064 On ch=3 n=55 v=0
56064 On ch=3 n=67 v=85
56064 On ch=3 n=55 v=85
56160 On ch=3 n=67 v=0
56160 On ch=3 n=55 v=0
56160 On ch=3 n=67 v=90
56160 On ch=3 n=55 v=90
56256 On ch=3 n=67 v=0
56256 On ch=3 n=55 v=0
56256 On ch=3 n=67 v=82
56256 On ch=3 n=55 v=82
56352 On ch=3 n=67 v=0
56352 On ch=3 n=55 v=0
56352 On ch=3 n=67 v=90
56352 On ch=3 n=55 v=90
56448 On ch=3 n=67 v=0
56448 On ch=3 n=55 v=0
56448 On ch=3 n=67 v=95
56448 On ch=3 n=55 v=95
56544 On ch=3 n=67 v=0
56544 On ch=3 n=55 v=0
56544 On ch=3 n=67 v=76
56544 On ch=3 n=55 v=76
56640 On ch=3 n=67 v=0
56640 On ch=3 n=55 v=0
56640 On ch=3 n=67 v=74
56640 On ch=3 n=55 v=74
56736 On ch=3 n=67 v=0
56736 On ch=3 n=55 v=0
56736 On ch=3 n=67 v=72
56736 On ch=3 n=55 v=36
56832 On ch=3 n=67 v=0
56832 On ch=3 n=55 v=0
59136 On ch=3 n=71 v=90
59136 On ch=3 n=59 v=90
59232 On ch=3 n=71 v=0
59232 On ch=3 n=59 v=0
59232 On ch=3 n=71 v=80
59232 On ch=3 n=59 v=80
59320 On ch=3 n=71 v=0
59320 On ch=3 n=59 v=0
59328 On ch=3 n=71 v=80
59328 On ch=3 n=59 v=80
59408 On ch=3 n=71 v=0
59408 On ch=3 n=59 v=0
59424 On ch=3 n=71 v=90
59424 On ch=3 n=59 v=90
59496 On ch=3 n=71 v=0
59496 On ch=3 n=59 v=0
59520 On ch=3 n=71 v=80
59520 On ch=3 n=59 v=80
59592 On ch=3 n=71 v=0
59592 On ch=3 n=59 v=0
59616 On ch=3 n=71 v=80
59616 On ch=3 n=59 v=80
59688 On ch=3 n=71 v=0
59688 On ch=3 n=59 v=0
59712 On ch=3 n=71 v=90
59712 On ch=3 n=59 v=90
59792 On ch=3 n=71 v=0
59792 On ch=3 n=59 v=0
59808 On ch=3 n=71 v=80
59808 On ch=3 n=59 v=80
59888 On ch=3 n=71 v=0
59888 On ch=3 n=59 v=0
59904 On ch=3 n=69 v=85
59904 On ch=3 n=57 v=85
59984 On ch=3 n=69 v=0
59984 On ch=3 n=57 v=0
60000 On ch=3 n=69 v=80
60000 On ch=3 n=57 v=80
60080 On ch=3 n=69 v=0
60080 On ch=3 n=57 v=0
60096 On ch=3 n=69 v=80
60096 On ch=3 n=57 v=80
60176 On ch=3 n=69 v=0
60176 On ch=3 n=57 v=0
60192 On ch=3 n=69 v=90
60192 On ch=3 n=57 v=90
60272 On ch=3 n=69 v=0
60272 On ch=3 n=57 v=0
60288 On ch=3 n=69 v=80
60288 On ch=3 n=57 v=80
60368 On ch=3 n=69 v=0
60368 On ch=3 n=57 v=0
60384 On ch=3 n=69 v=80
60384 On ch=3 n=57 v=80
60464 On ch=3 n=69 v=0
60464 On ch=3 n=57 v=0
60480 On ch=3 n=69 v=80
60480 On ch=3 n=57 v=80
60560 On ch=3 n=69 v=0
60560 On ch=3 n=57 v=0
60576 On ch=3 n=69 v=80
60576 On ch=3 n=57 v=80
60656 On ch=3 n=69 v=0
60656 On ch=3 n=57 v=0
60672 On ch=3 n=69 v=85
60672 On ch=3 n=57 v=85
60744 On ch=3 n=69 v=0
60744 On ch=3 n=57 v=0
60768 On ch=3 n=69 v=80
60768 On ch=3 n=57 v=80
60840 On ch=3 n=69 v=0
60840 On ch=3 n=57 v=0
60864 On ch=3 n=69 v=80
60864 On ch=3 n=57 v=80
60936 On ch=3 n=69 v=0
60936 On ch=3 n=57 v=0
60960 On ch=3 n=69 v=90
60960 On ch=3 n=57 v=90
61032 On ch=3 n=69 v=0
61032 On ch=3 n=57 v=0
61056 On ch=3 n=69 v=80
61056 On ch=3 n=57 v=80
61128 On ch=3 n=69 v=0
61128 On ch=3 n=57 v=0
61152 On ch=3 n=69 v=80
61152 On ch=3 n=57 v=80
61224 On ch=3 n=69 v=0
61224 On ch=3 n=57 v=0
61248 On ch=3 n=69 v=80
61248 On ch=3 n=57 v=80
61320 On ch=3 n=69 v=0
61320 On ch=3 n=57 v=0
61344 On ch=3 n=69 v=80
61344 On ch=3 n=57 v=80
61416 On ch=3 n=69 v=0
61416 On ch=3 n=57 v=0
61440 On ch=3 n=69 v=85
61440 On ch=3 n=57 v=85
61512 On ch=3 n=69 v=0
61512 On ch=3 n=57 v=0
61536 On ch=3 n=69 v=80
61536 On ch=3 n=57 v=80
61608 On ch=3 n=69 v=0
61608 On ch=3 n=57 v=0
61632 On ch=3 n=69 v=80
61632 On ch=3 n=57 v=80
61704 On ch=3 n=69 v=0
61704 On ch=3 n=57 v=0
61728 On ch=3 n=69 v=90
61728 On ch=3 n=57 v=90
61800 On ch=3 n=69 v=0
61800 On ch=3 n=57 v=0
61824 On ch=3 n=69 v=80
61824 On ch=3 n=57 v=80
61896 On ch=3 n=69 v=0
61896 On ch=3 n=57 v=0
61920 On ch=3 n=69 v=80
61920 On ch=3 n=57 v=80
61992 On ch=3 n=69 v=0
61992 On ch=3 n=57 v=0
62016 On ch=3 n=69 v=80
62016 On ch=3 n=57 v=80
62088 On ch=3 n=69 v=0
62088 On ch=3 n=57 v=0
62112 On ch=3 n=69 v=80
62112 On ch=3 n=57 v=80
62184 On ch=3 n=69 v=0
62184 On ch=3 n=57 v=0
62208 On ch=3 n=71 v=90
62208 On ch=3 n=59 v=90
62280 On ch=3 n=71 v=0
62280 On ch=3 n=59 v=0
62304 On ch=3 n=71 v=90
62304 On ch=3 n=59 v=90
62376 On ch=3 n=71 v=0
62376 On ch=3 n=59 v=0
62400 On ch=3 n=71 v=90
62400 On ch=3 n=59 v=90
62472 On ch=3 n=71 v=0
62472 On ch=3 n=59 v=0
62496 On ch=3 n=71 v=100
62496 On ch=3 n=59 v=100
62568 On ch=3 n=71 v=0
62568 On ch=3 n=59 v=0
62688 On ch=3 n=71 v=105
62688 On ch=3 n=59 v=105
62760 On ch=3 n=71 v=0
62760 On ch=3 n=59 v=0
62784 On ch=3 n=71 v=105
62784 On ch=3 n=59 v=105
62856 On ch=3 n=71 v=0
62856 On ch=3 n=59 v=0
62880 On ch=3 n=71 v=105
62880 On ch=3 n=59 v=105
62952 On ch=3 n=71 v=0
62952 On ch=3 n=59 v=0
76032 On ch=3 n=50 v=90
76104 On ch=3 n=50 v=0
76128 On ch=3 n=50 v=90
76200 On ch=3 n=50 v=0
76224 On ch=3 n=50 v=95
76296 On ch=3 n=50 v=0
76320 On ch=3 n=50 v=90
76392 On ch=3 n=50 v=0
76416 On ch=3 n=50 v=95
76488 On ch=3 n=50 v=0
76512 On ch=3 n=50 v=85
76584 On ch=3 n=50 v=0
76608 On ch=3 n=50 v=90
76680 On ch=3 n=50 v=0
76704 On ch=3 n=50 v=95
76776 On ch=3 n=50 v=0
76800 On ch=3 n=50 v=90
76872 On ch=3 n=50 v=0
76896 On ch=3 n=50 v=95
76968 On ch=3 n=50 v=0
76992 On ch=3 n=50 v=90
77064 On ch=3 n=50 v=0
77088 On ch=3 n=50 v=95
77160 On ch=3 n=50 v=0
77184 On ch=3 n=50 v=95
77256 On ch=3 n=50 v=0
77280 On ch=3 n=50 v=90
77352 On ch=3 n=50 v=0
77376 On ch=3 n=50 v=90
77448 On ch=3 n=50 v=0
77472 On ch=3 n=55 v=90
77544 On ch=3 n=55 v=0
77568 On ch=3 n=55 v=90
77640 On ch=3 n=55 v=0
77664 On ch=3 n=55 v=90
77736 On ch=3 n=55 v=0
77760 On ch=3 n=55 v=95
77832 On ch=3 n=55 v=0
77856 On ch=3 n=55 v=90
77928 On ch=3 n=55 v=0
77952 On ch=3 n=55 v=95
78024 On ch=3 n=55 v=0
78048 On ch=3 n=55 v=85
78120 On ch=3 n=55 v=0
78144 On ch=3 n=55 v=90
78216 On ch=3 n=55 v=0
78240 On ch=3 n=55 v=95
78312 On ch=3 n=55 v=0
78336 On ch=3 n=55 v=90
78408 On ch=3 n=55 v=0
78432 On ch=3 n=55 v=95
78504 On ch=3 n=55 v=0
78528 On ch=3 n=55 v=90
78600 On ch=3 n=55 v=0
78624 On ch=3 n=55 v=95
78696 On ch=3 n=55 v=0
78720 On ch=3 n=55 v=95
78792 On ch=3 n=55 v=0
78816 On ch=3 n=55 v=90
78888 On ch=3 n=55 v=0
78912 On ch=3 n=55 v=90
78984 On ch=3 n=55 v=0
79008 On ch=3 n=50 v=90
79080 On ch=3 n=50 v=0
79104 On ch=3 n=50 v=90
79176 On ch=3 n=50 v=0
79200 On ch=3 n=50 v=90
79272 On ch=3 n=50 v=0
79296 On ch=3 n=50 v=95
79368 On ch=3 n=50 v=0
79392 On ch=3 n=50 v=90
79464 On ch=3 n=50 v=0
79488 On ch=3 n=50 v=95
79560 On ch=3 n=50 v=0
79584 On ch=3 n=50 v=85
79656 On ch=3 n=50 v=0
79680 On ch=3 n=50 v=90
79752 On ch=3 n=50 v=0
79776 On ch=3 n=50 v=95
79848 On ch=3 n=50 v=0
79872 On ch=3 n=50 v=90
79944 On ch=3 n=50 v=0
79968 On ch=3 n=50 v=95
80040 On ch=3 n=50 v=0
80064 On ch=3 n=50 v=90
80136 On ch=3 n=50 v=0
80160 On ch=3 n=50 v=95
80232 On ch=3 n=50 v=0
80256 On ch=3 n=50 v=95
80328 On ch=3 n=50 v=0
80352 On ch=3 n=50 v=90
80424 On ch=3 n=50 v=0
80448 On ch=3 n=50 v=90
80520 On ch=3 n=50 v=0
80544 On ch=3 n=55 v=90
80616 On ch=3 n=55 v=0
80640 On ch=3 n=55 v=90
80712 On ch=3 n=55 v=0
80736 On ch=3 n=55 v=90
80808 On ch=3 n=55 v=0
80832 On ch=3 n=55 v=95
80904 On ch=3 n=55 v=0
80928 On ch=3 n=55 v=90
81000 On ch=3 n=55 v=0
81024 On ch=3 n=55 v=95
81096 On ch=3 n=55 v=0
81120 On ch=3 n=55 v=85
81192 On ch=3 n=55 v=0
81216 On ch=3 n=55 v=90
81288 On ch=3 n=55 v=0
81312 On ch=3 n=55 v=95
81384 On ch=3 n=55 v=0
81408 On ch=3 n=55 v=90
81480 On ch=3 n=55 v=0
81504 On ch=3 n=55 v=95
81576 On ch=3 n=55 v=0
81600 On ch=3 n=55 v=90
81672 On ch=3 n=55 v=0
81696 On ch=3 n=55 v=95
81768 On ch=3 n=55 v=0
81792 On ch=3 n=53 v=95
81864 On ch=3 n=53 v=0
81888 On ch=3 n=53 v=80
81960 On ch=3 n=53 v=0
81984 On ch=3 n=53 v=70
82056 On ch=3 n=53 v=0
94272 On ch=3 n=45 v=100
94336 On ch=3 n=45 v=0
94368 On ch=3 n=45 v=100
94432 On ch=3 n=45 v=0
94460 Par ch=3 c=7 v=100
94464 On ch=3 n=50 v=110
94512 On ch=3 n=50 v=0
94528 Par ch=3 c=7 v=99
94560 On ch=3 n=50 v=105
94588 Par ch=3 c=7 v=98
94608 On ch=3 n=50 v=0
94652 Par ch=3 c=7 v=97
94656 On ch=3 n=50 v=100
94704 On ch=3 n=50 v=0
94712 Par ch=3 c=7 v=96
94752 On ch=3 n=50 v=100
94772 Par ch=3 c=7 v=95
94800 On ch=3 n=50 v=0
94836 Par ch=3 c=7 v=94
94848 On ch=3 n=50 v=110
94896 On ch=3 n=50 v=0
94896 Par ch=3 c=7 v=93
94944 On ch=3 n=50 v=105
94956 Par ch=3 c=7 v=92
94992 On ch=3 n=50 v=0
95020 Par ch=3 c=7 v=91
95040 On ch=3 n=50 v=100
95080 Par ch=3 c=7 v=90
95088 On ch=3 n=50 v=0
95136 On ch=3 n=50 v=100
95140 Par ch=3 c=7 v=89
95188 On ch=3 n=50 v=0
95204 Par ch=3 c=7 v=88
95232 On ch=3 n=50 v=110
95264 Par ch=3 c=7 v=87
95280 On ch=3 n=50 v=0
95324 Par ch=3 c=7 v=86
95328 On ch=3 n=50 v=105
95376 On ch=3 n=50 v=0
95388 Par ch=3 c=7 v=85
95424 On ch=3 n=50 v=100
95448 Par ch=3 c=7 v=84
95472 On ch=3 n=50 v=0
95508 Par ch=3 c=7 v=83
95520 On ch=3 n=50 v=100
95568 On ch=3 n=50 v=0
95572 Par ch=3 c=7 v=82
95616 On ch=3 n=50 v=110
95632 Par ch=3 c=7 v=81
95664 On ch=3 n=50 v=0
95692 Par ch=3 c=7 v=80
95712 On ch=3 n=50 v=105
95756 Par ch=3 c=7 v=79
95760 On ch=3 n=50 v=0
95808 On ch=3 n=50 v=100
95816 Par ch=3 c=7 v=78
95856 On ch=3 n=50 v=0
95880 Par ch=3 c=7 v=77
95904 On ch=3 n=50 v=100
95940 Par ch=3 c=7 v=76
95956 On ch=3 n=50 v=0
96000 On ch=3 n=55 v=100
96004 Par ch=3 c=7 v=75
96032 On ch=3 n=55 v=0
96064 Par ch=3 c=7 v=74
96096 On ch=3 n=55 v=100
96124 Par ch=3 c=7 v=73
96128 On ch=3 n=55 v=0
96184 Par ch=3 c=7 v=72
96192 On ch=3 n=55 v=90
96212 On ch=3 n=55 v=0
96248 Par ch=3 c=7 v=71
96288 On ch=3 n=55 v=100
96308 Par ch=3 c=7 v=70
96320 On ch=3 n=55 v=0
96368 Par ch=3 c=7 v=69
96432 Par ch=3 c=7 v=68
96480 On ch=3 n=55 v=100
96492 Par ch=3 c=7 v=67
96552 Par ch=3 c=7 v=66
96608 On ch=3 n=55 v=0
96616 Par ch=3 c=7 v=65
96676 Par ch=3 c=7 v=64
96736 Par ch=3 c=7 v=63
96768 On ch=3 n=55 v=100
96800 Par ch=3 c=7 v=62
96860 Par ch=3 c=7 v=61
96896 On ch=3 n=55 v=0
96920 Par ch=3 c=7 v=60
96960 On ch=3 n=55 v=100
96984 Par ch=3 c=7 v=59
97044 Par ch=3 c=7 v=58
97088 On ch=3 n=55 v=0
97108 Par ch=3 c=7 v=57
97152 On ch=3 n=55 v=100
97168 Par ch=3 c=7 v=56
97228 Par ch=3 c=7 v=55
97292 Par ch=3 c=7 v=54
97352 Par ch=3 c=7 v=53
97408 On ch=3 n=55 v=0
97412 Par ch=3 c=7 v=52
97440 On ch=3 n=50 v=100
97476 Par ch=3 c=7 v=51
97540 Par ch=3 c=7 v=50
97584 On ch=3 n=50 v=0
97596 Par ch=3 c=7 v=49
97632 On ch=3 n=50 v=100
97660 Par ch=3 c=7 v=48
97680 On ch=3 n=50 v=0
97720 Par ch=3 c=7 v=47
97728 On ch=3 n=50 v=100
97776 On ch=3 n=50 v=0
97780 Par ch=3 c=7 v=46
97824 On ch=3 n=50 v=100
97844 Par ch=3 c=7 v=45
97872 On ch=3 n=50 v=0
97904 Par ch=3 c=7 v=44
97964 Par ch=3 c=7 v=43
98016 On ch=3 n=50 v=100
98028 Par ch=3 c=7 v=42
98088 Par ch=3 c=7 v=41
98112 On ch=3 n=50 v=0
98112 On ch=3 n=50 v=85
98148 Par ch=3 c=7 v=40
98208 On ch=3 n=50 v=0
98208 On ch=3 n=50 v=100
98212 Par ch=3 c=7 v=39
98272 Par ch=3 c=7 v=38
98304 On ch=3 n=50 v=0
98304 On ch=3 n=50 v=85
98336 Par ch=3 c=7 v=37
98396 Par ch=3 c=7 v=36
98400 On ch=3 n=50 v=0
98400 On ch=3 n=50 v=100
98456 Par ch=3 c=7 v=35
98496 On ch=3 n=50 v=0
98496 On ch=3 n=50 v=85
98520 Par ch=3 c=7 v=34
98580 Par ch=3 c=7 v=33
98592 On ch=3 n=50 v=0
98592 On ch=3 n=50 v=100
98640 Par ch=3 c=7 v=32
98688 On ch=3 n=50 v=0
98688 On ch=3 n=50 v=85
98704 Par ch=3 c=7 v=31
98764 Par ch=3 c=7 v=30
98784 On ch=3 n=50 v=0
98784 On ch=3 n=50 v=100
98824 Par ch=3 c=7 v=29
98880 On ch=3 n=50 v=0
98880 On ch=3 n=50 v=85
98888 Par ch=3 c=7 v=28
98948 Par ch=3 c=7 v=27
98976 On ch=3 n=50 v=0
98976 On ch=3 n=55 v=100
99008 Par ch=3 c=7 v=26
99072 On ch=3 n=55 v=0
99072 On ch=3 n=55 v=100
99076 Par ch=3 c=7 v=25
99104 On ch=3 n=55 v=0
99132 Par ch=3 c=7 v=24
99168 On ch=3 n=67 v=95
99168 On ch=3 n=55 v=100
99188 On ch=3 n=67 v=0
99192 Par ch=3 c=7 v=23
99200 On ch=3 n=55 v=0
99256 Par ch=3 c=7 v=22
99264 On ch=3 n=55 v=90
99264 On ch=3 n=67 v=100
99284 On ch=3 n=55 v=0
99296 On ch=3 n=67 v=0
99316 Par ch=3 c=7 v=21
99360 On ch=3 n=67 v=95
99360 On ch=3 n=55 v=100
99376 Par ch=3 c=7 v=20
99380 On ch=3 n=67 v=0
99392 On ch=3 n=55 v=0
99440 Par ch=3 c=7 v=19
99456 On ch=3 n=65 v=110
99500 Par ch=3 c=7 v=18
99544 On ch=3 n=65 v=0
99552 On ch=3 n=67 v=95
99552 On ch=3 n=55 v=100
99564 Par ch=3 c=7 v=17
99616 On ch=3 n=67 v=0
99624 Par ch=3 c=7 v=16
99648 On ch=3 n=55 v=0
99684 Par ch=3 c=7 v=15
99744 On ch=3 n=67 v=100
99744 On ch=3 n=55 v=100
99748 Par ch=3 c=7 v=14
99776 On ch=3 n=67 v=0
99808 Par ch=3 c=7 v=13
99840 On ch=3 n=55 v=0
99840 On ch=3 n=55 v=100
99868 Par ch=3 c=7 v=12
99920 On ch=3 n=55 v=0
99932 Par ch=3 c=7 v=11
99992 Par ch=3 c=7 v=10
100032 On ch=3 n=55 v=100
100052 Par ch=3 c=7 v=9
100112 On ch=3 n=55 v=0
100116 Par ch=3 c=7 v=8
100176 Par ch=3 c=7 v=7
100224 On ch=3 n=55 v=80
100236 Par ch=3 c=7 v=6
100300 Par ch=3 c=7 v=5
100304 On ch=3 n=55 v=0
100360 Par ch=3 c=7 v=4
100416 On ch=3 n=50 v=100
100420 Par ch=3 c=7 v=3
100484 Par ch=3 c=7 v=2
100512 On ch=3 n=50 v=0
100512 On ch=3 n=50 v=100
100544 Par ch=3 c=7 v=1
100604 Par ch=3 c=7 v=0
100608 On ch=3 n=50 v=0
100608 Meta TrkEnd
TrkEnd
MTrk
0 Meta TrkName "RHYTHM OF LOVE  "
192 Par ch=4 c=121 v=0
196 Par ch=4 c=100 v=0
200 Par ch=4 c=101 v=0
204 Par ch=4 c=6 v=12
208 Par ch=4 c=7 v=115
212 Par ch=4 c=11 v=100
216 Par ch=4 c=10 v=60
384 Par ch=4 c=0 v=0
388 Par ch=4 c=32 v=0
392 PrCh ch=4 p=0
396 Par ch=4 c=91 v=107
400 Par ch=4 c=127 v=0
6528 PrCh ch=4 p=52
6912 On ch=4 n=69 v=80
7104 On ch=4 n=57 v=70
7108 On ch=4 n=69 v=0
7344 Par ch=4 c=11 v=101
7408 Par ch=4 c=11 v=102
7456 Par ch=4 c=11 v=103
7480 Par ch=4 c=11 v=104
7504 Par ch=4 c=11 v=105
7524 Par ch=4 c=11 v=106
7540 Par ch=4 c=11 v=107
7552 Par ch=4 c=11 v=108
7568 Par ch=4 c=11 v=109
7576 Par ch=4 c=11 v=110
7588 Par ch=4 c=11 v=111
7596 Par ch=4 c=11 v=112
7604 Par ch=4 c=11 v=113
7612 Par ch=4 c=11 v=114
7620 Par ch=4 c=11 v=115
7624 Par ch=4 c=11 v=116
7632 Par ch=4 c=11 v=117
7636 Par ch=4 c=11 v=118
7644 Par ch=4 c=11 v=119
7648 Par ch=4 c=11 v=120
7652 Par ch=4 c=11 v=121
7656 Par ch=4 c=11 v=122
7664 Par ch=4 c=11 v=123
7668 Par ch=4 c=11 v=124
7672 Par ch=4 c=11 v=125
7676 Par ch=4 c=11 v=127
7680 On ch=4 n=59 v=60
7684 On ch=4 n=57 v=0
7872 On ch=4 n=59 v=0
7872 On ch=4 n=69 v=80
7872 On ch=4 n=57 v=90
8064 On ch=4 n=69 v=0
8064 On ch=4 n=57 v=0
8064 On ch=4 n=76 v=85
8064 On ch=4 n=64 v=90
8068 Pb ch=4 v=7296
8072 Pb ch=4 v=7424
8080 Pb ch=4 v=7552
8088 Pb ch=4 v=7680
8096 Pb ch=4 v=7808
8108 Pb ch=4 v=7936
8120 Pb ch=4 v=8064
8136 Pb ch=4 v=8192
8256 On ch=4 n=76 v=0
8256 On ch=4 n=64 v=0
8256 On ch=4 n=73 v=80
8256 On ch=4 n=61 v=90
8448 On ch=4 n=73 v=0
8448 On ch=4 n=61 v=0
8448 On ch=4 n=69 v=80
8448 On ch=4 n=57 v=90
9024 On ch=4 n=72 v=80
9024 On ch=4 n=60 v=80
9028 On ch=4 n=69 v=0
9028 On ch=4 n=57 v=0
9216 On ch=4 n=55 v=80
9216 Pb ch=4 v=7168
9220 On ch=4 n=72 v=0
9220 On ch=4 n=60 v=0
9220 On ch=4 n=72 v=80
9220 On ch=4 n=69 v=95
9224 Pb ch=4 v=7296
9228 Pb ch=4 v=7424
9232 Pb ch=4 v=7552
9240 Pb ch=4 v=7680
9248 Pb ch=4 v=7808
9260 Pb ch=4 v=7936
9272 Pb ch=4 v=8064
9288 Pb ch=4 v=8192
9408 On ch=4 n=71 v=85
9408 On ch=4 n=67 v=98
9416 On ch=4 n=72 v=0
9416 On ch=4 n=69 v=0
9600 On ch=4 n=62 v=80
9604 On ch=4 n=71 v=0
9984 On ch=4 n=59 v=80
9988 On ch=4 n=55 v=0
9988 On ch=4 n=67 v=0
9988 On ch=4 n=62 v=0
10176 On ch=4 n=62 v=80
10176 On ch=4 n=57 v=80
10180 On ch=4 n=59 v=0
10752 On ch=4 n=59 v=80
10756 On ch=4 n=62 v=0
10756 On ch=4 n=57 v=0
10944 On ch=4 n=69 v=80
10944 On ch=4 n=57 v=80
10948 On ch=4 n=59 v=0
11132 Pb ch=4 v=7040
11136 On ch=4 n=76 v=90
11136 On ch=4 n=64 v=90
11140 On ch=4 n=69 v=0
11140 On ch=4 n=57 v=0
11140 Pb ch=4 v=7296
11148 Pb ch=4 v=7424
11156 Pb ch=4 v=7552
11164 Pb ch=4 v=7680
11172 Pb ch=4 v=7808
11184 Pb ch=4 v=7936
11196 Pb ch=4 v=8064
11212 Pb ch=4 v=8192
11328 On ch=4 n=73 v=85
11328 On ch=4 n=61 v=85
11332 On ch=4 n=76 v=0
11332 On ch=4 n=64 v=0
11520 On ch=4 n=69 v=94
11520 On ch=4 n=64 v=80
11520 On ch=4 n=57 v=80
11524 On ch=4 n=73 v=0
11524 On ch=4 n=61 v=0
12188 On ch=4 n=69 v=0
12188 On ch=4 n=64 v=0
12188 On ch=4 n=57 v=0
12192 On ch=4 n=67 v=94
12192 On ch=4 n=62 v=80
12192 On ch=4 n=55 v=80
12300 Par ch=4 c=11 v=126
12308 Par ch=4 c=11 v=125
12316 Par ch=4 c=11 v=124
12328 Par ch=4 c=11 v=123
12336 Par ch=4 c=11 v=122
12344 Par ch=4 c=11 v=121
12352 Par ch=4 c=11 v=120
12364 Par ch=4 c=11 v=119
12372 Par ch=4 c=11 v=118
12380 Par ch=4 c=11 v=117
12388 Par ch=4 c=11 v=116
12400 Par ch=4 c=11 v=115
12408 Par ch=4 c=11 v=114
12416 Par ch=4 c=11 v=113
12424 Par ch=4 c=11 v=112
12436 Par ch=4 c=11 v=111
12444 Par ch=4 c=11 v=110
12452 Par ch=4 c=11 v=109
12460 Par ch=4 c=11 v=108
12472 Par ch=4 c=11 v=107
12480 Par ch=4 c=11 v=106
12488 Par ch=4 c=11 v=105
12496 Par ch=4 c=11 v=104
12508 Par ch=4 c=11 v=103
12516 Par ch=4 c=11 v=102
12524 Par ch=4 c=11 v=101
12536 Par ch=4 c=11 v=100
12544 Par ch=4 c=11 v=99
12552 Par ch=4 c=11 v=98
12560 Par ch=4 c=11 v=97
12572 Par ch=4 c=11 v=96
12580 Par ch=4 c=11 v=95
12588 Par ch=4 c=11 v=94
12596 Par ch=4 c=11 v=93
12608 Par ch=4 c=11 v=92
12616 Par ch=4 c=11 v=91
12624 Par ch=4 c=11 v=90
12632 Par ch=4 c=11 v=89
12644 Par ch=4 c=11 v=88
12652 Par ch=4 c=11 v=87
12660 Par ch=4 c=11 v=86
12668 Par ch=4 c=11 v=85
12680 Par ch=4 c=11 v=84
12688 Par ch=4 c=11 v=83
12696 Par ch=4 c=11 v=82
12704 Par ch=4 c=11 v=81
12716 Par ch=4 c=11 v=80
12724 Par ch=4 c=11 v=79
12732 Par ch=4 c=11 v=78
12740 Par ch=4 c=11 v=77
12752 Par ch=4 c=11 v=76
12760 Par ch=4 c=11 v=75
12768 Par ch=4 c=11 v=74
12780 Par ch=4 c=11 v=73
12788 Par ch=4 c=11 v=72
12796 Par ch=4 c=11 v=71
12804 Par ch=4 c=11 v=70
12816 Par ch=4 c=11 v=69
12824 Par ch=4 c=11 v=68
12832 Par ch=4 c=11 v=67
12840 Par ch=4 c=11 v=66
12852 Par ch=4 c=11 v=65
12860 Par ch=4 c=11 v=64
12868 Par ch=4 c=11 v=63
12876 Par ch=4 c=11 v=62
12888 Par ch=4 c=11 v=61
12896 Par ch=4 c=11 v=60
12904 Par ch=4 c=11 v=59
12912 Par ch=4 c=11 v=58
12924 Par ch=4 c=11 v=57
12932 Par ch=4 c=11 v=56
12940 Par ch=4 c=11 v=55
12948 Par ch=4 c=11 v=54
12960 Par ch=4 c=11 v=53
12968 Par ch=4 c=11 v=52
12976 Par ch=4 c=11 v=51
12988 Par ch=4 c=11 v=50
12996 Par ch=4 c=11 v=49
13004 Par ch=4 c=11 v=48
13012 Par ch=4 c=11 v=47
13024 Par ch=4 c=11 v=46
13032 Par ch=4 c=11 v=45
13040 Par ch=4 c=11 v=44
13048 Par ch=4 c=11 v=43
13060 Par ch=4 c=11 v=42
13068 Par ch=4 c=11 v=41
13076 Par ch=4 c=11 v=40
13084 Par ch=4 c=11 v=39
13096 Par ch=4 c=11 v=38
13104 Par ch=4 c=11 v=37
13112 Par ch=4 c=11 v=36
13120 Par ch=4 c=11 v=35
13132 Par ch=4 c=11 v=34
13140 Par ch=4 c=11 v=33
13148 Par ch=4 c=11 v=32
13156 Par ch=4 c=11 v=31
13168 Par ch=4 c=11 v=30
13176 Par ch=4 c=11 v=29
13184 Par ch=4 c=11 v=28
13192 Par ch=4 c=11 v=27
13204 Par ch=4 c=11 v=26
13212 Par ch=4 c=11 v=25
13220 Par ch=4 c=11 v=24
13232 Par ch=4 c=11 v=23
13240 Par ch=4 c=11 v=22
13248 Par ch=4 c=11 v=21
13256 Par ch=4 c=11 v=20
13268 Par ch=4 c=11 v=19
13276 Par ch=4 c=11 v=18
13284 Par ch=4 c=11 v=17
13292 Par ch=4 c=11 v=16
13304 Par ch=4 c=11 v=15
13312 Par ch=4 c=11 v=14
13320 Par ch=4 c=11 v=13
13328 Par ch=4 c=11 v=12
13340 Par ch=4 c=11 v=11
13348 Par ch=4 c=11 v=10
13356 Par ch=4 c=11 v=9
13364 Par ch=4 c=11 v=8
13376 Par ch=4 c=11 v=7
13384 Par ch=4 c=11 v=6
13392 Par ch=4 c=11 v=5
13400 Par ch=4 c=11 v=4
13412 Par ch=4 c=11 v=3
13420 Par ch=4 c=11 v=2
13428 Par ch=4 c=11 v=1
13436 Par ch=4 c=11 v=0
13440 On ch=4 n=67 v=0
13440 On ch=4 n=62 v=0
13440 On ch=4 n=55 v=0
13820 Par ch=4 c=11 v=100
18432 PrCh ch=4 p=80
19200 On ch=4 n=69 v=105
19296 On ch=4 n=69 v=0
19296 On ch=4 n=62 v=105
19424 On ch=4 n=62 v=0
19488 On ch=4 n=67 v=105
19584 On ch=4 n=67 v=0
19680 On ch=4 n=60 v=105
19776 On ch=4 n=60 v=0
19872 On ch=4 n=62 v=110
20064 On ch=4 n=62 v=0
20064 On ch=4 n=67 v=105
20160 On ch=4 n=67 v=0
20640 On ch=4 n=69 v=110
20832 On ch=4 n=69 v=0
20832 On ch=4 n=62 v=105
20960 On ch=4 n=62 v=0
21024 On ch=4 n=67 v=108
21152 On ch=4 n=67 v=0
21216 Par ch=4 c=1 v=30
21220 On ch=4 n=60 v=105
21348 On ch=4 n=60 v=0
21404 Par ch=4 c=1 v=0
21408 On ch=4 n=65 v=110
21504 On ch=4 n=65 v=0
22176 On ch=4 n=69 v=105
22276 On ch=4 n=69 v=0
22368 On ch=4 n=62 v=107
22560 On ch=4 n=62 v=0
22560 On ch=4 n=67 v=105
22656 On ch=4 n=67 v=0
22748 Par ch=4 c=1 v=30
22752 On ch=4 n=60 v=105
22940 Par ch=4 c=1 v=0
22944 On ch=4 n=60 v=0
22944 On ch=4 n=62 v=110
23132 Par ch=4 c=1 v=50
23136 On ch=4 n=62 v=0
23136 On ch=4 n=67 v=105
23232 On ch=4 n=67 v=0
23708 Par ch=4 c=1 v=0
23712 On ch=4 n=69 v=110
23900 Par ch=4 c=1 v=40
23904 On ch=4 n=69 v=0
23904 On ch=4 n=65 v=105
23972 Par ch=4 c=11 v=98
23992 Par ch=4 c=11 v=95
24008 Par ch=4 c=11 v=90
24016 Par ch=4 c=11 v=85
24024 Par ch=4 c=11 v=80
24032 Par ch=4 c=11 v=75
24036 Par ch=4 c=11 v=70
24040 Par ch=4 c=11 v=65
24044 Par ch=4 c=11 v=60
24048 Par ch=4 c=11 v=0
24088 On ch=4 n=65 v=0
24088 Par ch=4 c=11 v=100
24092 Par ch=4 c=1 v=0
24096 On ch=4 n=67 v=105
24224 On ch=4 n=67 v=0
24288 On ch=4 n=60 v=105
24416 On ch=4 n=60 v=0
24476 Par ch=4 c=1 v=45
24480 On ch=4 n=62 v=110
24640 On ch=4 n=62 v=0
25148 Par ch=4 c=1 v=0
25152 On ch=4 n=65 v=110
25248 On ch=4 n=65 v=0
25248 On ch=4 n=72 v=118
25436 Par ch=4 c=1 v=42
25440 On ch=4 n=72 v=0
25440 On ch=4 n=65 v=107
25508 Par ch=4 c=11 v=98
25528 Par ch=4 c=11 v=95
25544 Par ch=4 c=11 v=90
25552 Par ch=4 c=11 v=85
25560 Par ch=4 c=11 v=80
25568 Par ch=4 c=11 v=75
25572 Par ch=4 c=11 v=70
25576 Par ch=4 c=11 v=65
25580 Par ch=4 c=11 v=60
25584 Par ch=4 c=11 v=0
25624 On ch=4 n=65 v=0
25624 Par ch=4 c=11 v=100
25628 Par ch=4 c=1 v=0
25632 On ch=4 n=69 v=115
25824 On ch=4 n=69 v=0
25824 On ch=4 n=65 v=110
25892 Par ch=4 c=11 v=98
25912 Par ch=4 c=11 v=95
25928 Par ch=4 c=11 v=90
25936 Par ch=4 c=11 v=85
25944 Par ch=4 c=11 v=80
25952 On ch=4 n=65 v=0
25952 Par ch=4 c=11 v=75
25956 Par ch=4 c=11 v=70
25960 Par ch=4 c=11 v=65
25964 Par ch=4 c=11 v=60
25968 Par ch=4 c=11 v=0
26012 Par ch=4 c=11 v=100
26016 On ch=4 n=67 v=120
26128 On ch=4 n=67 v=0
26304 On ch=4 n=65 v=110
26352 On ch=4 n=65 v=0
26400 On ch=4 n=64 v=115
26456 Par ch=4 c=11 v=98
26516 Par ch=4 c=11 v=95
26564 Par ch=4 c=11 v=90
26596 Par ch=4 c=11 v=85
26616 Par ch=4 c=11 v=80
26628 Par ch=4 c=11 v=75
26640 Par ch=4 c=11 v=70
26652 Par ch=4 c=11 v=65
26664 Par ch=4 c=11 v=60
26676 Par ch=4 c=11 v=0
26684 Par ch=4 c=11 v=100
26688 On ch=4 n=64 v=0
26688 On ch=4 n=65 v=110
26736 On ch=4 n=65 v=0
26784 On ch=4 n=64 v=112
26788 Pb ch=4 v=7192
26800 Pb ch=4 v=7792
26812 Pb ch=4 v=7992
26816 Pb ch=4 v=8192
26876 Par ch=4 c=1 v=30
27452 Par ch=4 c=1 v=0
27456 On ch=4 n=64 v=0
27456 On ch=4 n=65 v=117
27548 Pb ch=4 v=8192
27552 On ch=4 n=65 v=0
27552 On ch=4 n=62 v=110
27608 Pb ch=4 v=8064
27616 Pb ch=4 v=7936
27624 Pb ch=4 v=7808
27628 Pb ch=4 v=7680
27632 Pb ch=4 v=7424
27636 Pb ch=4 v=7296
27640 Pb ch=4 v=6912
27644 Pb ch=4 v=8192
27648 On ch=4 n=62 v=0
28128 On ch=4 n=72 v=113
28224 On ch=4 n=72 v=0
28224 On ch=4 n=69 v=111
28320 On ch=4 n=69 v=0
28320 On ch=4 n=72 v=124
28472 On ch=4 n=72 v=0
28488 On ch=4 n=69 v=116
28492 Pb ch=4 v=7192
28496 Pb ch=4 v=7292
28500 Pb ch=4 v=7392
28504 Pb ch=4 v=7492
28508 Pb ch=4 v=7592
28512 Pb ch=4 v=7692
28516 Pb ch=4 v=7792
28520 Pb ch=4 v=7892
28524 Pb ch=4 v=7992
28528 Pb ch=4 v=8092
28536 Pb ch=4 v=8192
28584 Pb ch=4 v=7992
28592 Pb ch=4 v=7792
28600 Pb ch=4 v=7592
28608 Pb ch=4 v=7392
28616 Pb ch=4 v=7192
28624 On ch=4 n=69 v=0
29180 Pb ch=4 v=8192
29184 On ch=4 n=72 v=112
29376 On ch=4 n=72 v=0
29376 On ch=4 n=71 v=107
29416 Par ch=4 c=11 v=99
29436 Par ch=4 c=11 v=97
29456 Par ch=4 c=11 v=95
29472 Par ch=4 c=11 v=93
29480 Par ch=4 c=11 v=90
29492 Par ch=4 c=11 v=87
29500 Par ch=4 c=11 v=84
29508 Par ch=4 c=11 v=81
29512 Par ch=4 c=11 v=77
29516 Par ch=4 c=11 v=70
29524 Par ch=4 c=11 v=65
29528 Par ch=4 c=11 v=60
29532 Par ch=4 c=11 v=0
29536 On ch=4 n=71 v=0
29560 Par ch=4 c=11 v=100
29564 Par ch=4 c=1 v=40
29568 On ch=4 n=69 v=105
29756 On ch=4 n=69 v=0
29756 Par ch=4 c=1 v=0
29760 On ch=4 n=67 v=108
29824 On ch=4 n=67 v=0
29856 On ch=4 n=69 v=105
29952 On ch=4 n=69 v=0
29952 On ch=4 n=65 v=115
30044 Par ch=4 c=1 v=40
30048 On ch=4 n=65 v=0
30048 On ch=4 n=62 v=110
30088 Par ch=4 c=11 v=98
30208 Par ch=4 c=11 v=95
30308 Par ch=4 c=11 v=90
30368 Par ch=4 c=11 v=85
30408 Par ch=4 c=11 v=80
30428 Par ch=4 c=11 v=75
30448 Par ch=4 c=11 v=70
30464 Par ch=4 c=11 v=65
30480 Par ch=4 c=11 v=60
30492 Par ch=4 c=11 v=55
30504 Par ch=4 c=11 v=50
30512 Par ch=4 c=11 v=45
30520 Par ch=4 c=11 v=30
30528 On ch=4 n=62 v=0
30528 Par ch=4 c=11 v=0
30716 Par ch=4 c=11 v=100
31484 PrCh ch=4 p=82
31488 On ch=4 n=71 v=117
31492 Pb ch=4 v=7792
31504 Pb ch=4 v=7992
31512 Pb ch=4 v=8192
31772 Par ch=4 c=1 v=30
31776 On ch=4 n=71 v=0
31776 On ch=4 n=69 v=115
32160 On ch=4 n=69 v=0
32252 Par ch=4 c=1 v=0
32256 On ch=4 n=71 v=118
32260 Pb ch=4 v=7392
32280 Pb ch=4 v=7892
32292 Pb ch=4 v=8192
32544 On ch=4 n=71 v=0
32544 On ch=4 n=69 v=115
32928 On ch=4 n=69 v=0
33020 Par ch=4 c=1 v=0
33024 On ch=4 n=71 v=119
33312 On ch=4 n=71 v=0
33312 On ch=4 n=69 v=117
33480 On ch=4 n=69 v=0
33504 On ch=4 n=74 v=120
33624 On ch=4 n=71 v=115
33632 On ch=4 n=74 v=0
33784 On ch=4 n=71 v=0
33792 On ch=4 n=69 v=117
33984 Pb ch=4 v=6792
34072 Pb ch=4 v=8192
34076 Par ch=4 c=1 v=30
34080 On ch=4 n=69 v=0
34080 On ch=4 n=67 v=115
34500 On ch=4 n=67 v=0
34556 Par ch=4 c=1 v=0
34560 On ch=4 n=71 v=117
34564 Pb ch=4 v=7792
34584 Pb ch=4 v=8052
34600 Pb ch=4 v=8192
34836 Par ch=4 c=1 v=30
34840 On ch=4 n=71 v=0
34840 On ch=4 n=69 v=115
35224 On ch=4 n=69 v=0
35324 Par ch=4 c=1 v=0
35328 On ch=4 n=71 v=117
35612 Par ch=4 c=1 v=30
35616 On ch=4 n=71 v=0
35616 On ch=4 n=69 v=115
36000 On ch=4 n=69 v=0
36092 Par ch=4 c=1 v=0
36096 On ch=4 n=71 v=117
36100 Pb ch=4 v=7392
36120 Pb ch=4 v=7892
36144 Pb ch=4 v=8092
36172 Pb ch=4 v=8192
36376 On ch=4 n=71 v=0
36384 On ch=4 n=69 v=117
36512 On ch=4 n=69 v=0
36576 On ch=4 n=74 v=118
36704 On ch=4 n=74 v=0
36720 On ch=4 n=71 v=115
36860 On ch=4 n=71 v=0
36864 On ch=4 n=69 v=120
36868 Pb ch=4 v=8792
36872 Pb ch=4 v=8592
36876 Pb ch=4 v=8392
36880 Pb ch=4 v=8192
37144 On ch=4 n=69 v=0
37156 Par ch=4 c=1 v=30
37160 On ch=4 n=67 v=117
37164 Pb ch=4 v=9192
37176 Pb ch=4 v=8442
37180 Pb ch=4 v=8392
37184 Pb ch=4 v=8342
37188 Pb ch=4 v=8292
37192 Pb ch=4 v=8192
37628 Par ch=4 c=1 v=0
37640 On ch=4 n=67 v=0
37820 PrCh ch=4 p=80
37824 On ch=4 n=71 v=127
37824 On ch=4 n=67 v=117
37824 On ch=4 n=62 v=117
37920 On ch=4 n=71 v=0
37920 On ch=4 n=67 v=0
37920 On ch=4 n=62 v=0
37920 On ch=4 n=71 v=117
37920 On ch=4 n=67 v=117
37920 On ch=4 n=62 v=117
37936 Par ch=4 c=11 v=99
37948 Par ch=4 c=11 v=98
37952 Par ch=4 c=11 v=97
37956 Par ch=4 c=11 v=96
37960 Par ch=4 c=11 v=95
37964 Par ch=4 c=11 v=94
37968 Par ch=4 c=11 v=92
37972 Par ch=4 c=11 v=90
37976 Par ch=4 c=11 v=88
37980 Par ch=4 c=11 v=86
37984 Par ch=4 c=11 v=84
37988 Par ch=4 c=11 v=80
37992 Par ch=4 c=11 v=76
37996 Par ch=4 c=11 v=72
38000 Par ch=4 c=11 v=64
38004 Par ch=4 c=11 v=60
38008 Par ch=4 c=11 v=0
38012 On ch=4 n=71 v=0
38012 On ch=4 n=67 v=0
38012 On ch=4 n=62 v=0
38012 Par ch=4 c=11 v=100
38016 On ch=4 n=71 v=127
38016 On ch=4 n=67 v=117
38016 On ch=4 n=62 v=117
38112 On ch=4 n=71 v=0
38112 On ch=4 n=67 v=0
38112 On ch=4 n=62 v=0
38112 On ch=4 n=72 v=127
38112 On ch=4 n=67 v=117
38112 On ch=4 n=62 v=117
38208 On ch=4 n=72 v=0
38208 On ch=4 n=67 v=0
38208 On ch=4 n=62 v=0
38208 On ch=4 n=62 v=127
38208 On ch=4 n=67 v=117
38208 On ch=4 n=71 v=117
38304 On ch=4 n=62 v=0
38304 On ch=4 n=67 v=0
38304 On ch=4 n=71 v=0
38304 On ch=4 n=60 v=127
38304 On ch=4 n=69 v=117
38304 On ch=4 n=65 v=117
38396 Pb ch=4 v=8192
38428 Pb ch=4 v=8064
38432 Pb ch=4 v=7808
38436 Pb ch=4 v=7552
38440 Pb ch=4 v=7296
38444 Pb ch=4 v=7040
38448 Pb ch=4 v=6784
38452 Pb ch=4 v=6400
38456 Pb ch=4 v=5888
38460 Par ch=4 c=11 v=90
38464 Pb ch=4 v=5248
38468 Par ch=4 c=11 v=60
38472 Pb ch=4 v=4480
38476 Par ch=4 c=11 v=30
38480 Pb ch=4 v=3328
38484 Par ch=4 c=11 v=10
38488 Pb ch=4 v=8192
38492 Par ch=4 c=11 v=100
38496 On ch=4 n=69 v=0
38496 On ch=4 n=65 v=0
38496 On ch=4 n=60 v=0
38496 On ch=4 n=69 v=122
38496 On ch=4 n=65 v=102
38496 On ch=4 n=60 v=102
38620 Pb ch=4 v=8064
38624 Pb ch=4 v=7808
38628 Pb ch=4 v=7552
38632 Pb ch=4 v=7296
38636 Pb ch=4 v=7040
38640 Pb ch=4 v=6784
38644 Pb ch=4 v=6400
38648 Pb ch=4 v=5888
38652 Par ch=4 c=11 v=90
38656 Pb ch=4 v=5248
38660 Par ch=4 c=11 v=60
38664 Pb ch=4 v=4480
38668 Par ch=4 c=11 v=30
38672 Pb ch=4 v=3328
38676 Par ch=4 c=11 v=10
38680 Pb ch=4 v=8192
38684 Par ch=4 c=11 v=100
38688 On ch=4 n=69 v=0
38688 On ch=4 n=65 v=0
38688 On ch=4 n=60 v=0
38688 On ch=4 n=69 v=107
38688 On ch=4 n=65 v=87
38688 On ch=4 n=60 v=87
38820 Pb ch=4 v=8064
38824 Pb ch=4 v=7808
38828 Pb ch=4 v=7552
38832 Pb ch=4 v=7296
38836 Pb ch=4 v=7040
38840 Pb ch=4 v=6784
38844 Pb ch=4 v=6400
38848 Pb ch=4 v=5888
38852 Par ch=4 c=11 v=90
38856 Pb ch=4 v=5248
38860 Par ch=4 c=11 v=60
38864 Pb ch=4 v=4480
38868 Par ch=4 c=11 v=30
38872 Pb ch=4 v=3328
38876 Par ch=4 c=11 v=10
38880 On ch=4 n=69 v=0
38880 On ch=4 n=65 v=0
38880 On ch=4 n=60 v=0
38880 Pb ch=4 v=8192
38884 Par ch=4 c=11 v=100
38888 On ch=4 n=69 v=87
38888 On ch=4 n=65 v=67
38888 On ch=4 n=60 v=67
39028 Pb ch=4 v=8064
39032 Pb ch=4 v=7808
39036 Pb ch=4 v=7552
39040 Pb ch=4 v=7296
39044 Pb ch=4 v=7040
39048 Pb ch=4 v=6784
39052 Pb ch=4 v=6400
39056 Pb ch=4 v=5888
39060 Par ch=4 c=11 v=90
39064 Pb ch=4 v=5248
39068 Par ch=4 c=11 v=60
39072 Pb ch=4 v=4480
39076 Par ch=4 c=11 v=30
39080 On ch=4 n=69 v=0
39080 On ch=4 n=65 v=0
39080 On ch=4 n=60 v=0
39080 Pb ch=4 v=3328
39084 Par ch=4 c=11 v=10
39088 Pb ch=4 v=8192
39092 Par ch=4 c=11 v=100
39096 On ch=4 n=69 v=67
39096 On ch=4 n=65 v=47
39096 On ch=4 n=60 v=47
39240 Pb ch=4 v=8064
39244 Pb ch=4 v=7808
39248 Pb ch=4 v=7552
39252 Pb ch=4 v=7296
39256 Pb ch=4 v=7040
39260 Pb ch=4 v=6784
39264 Pb ch=4 v=6400
39268 Pb ch=4 v=5888
39272 Par ch=4 c=11 v=90
39276 Pb ch=4 v=5248
39280 Par ch=4 c=11 v=60
39284 Pb ch=4 v=4480
39288 Par ch=4 c=11 v=30
39292 Pb ch=4 v=3328
39296 Par ch=4 c=11 v=10
39300 Pb ch=4 v=8192
39304 Par ch=4 c=11 v=100
39360 On ch=4 n=69 v=0
39360 On ch=4 n=65 v=0
39360 On ch=4 n=60 v=0
40896 On ch=4 n=71 v=127
40896 On ch=4 n=65 v=117
40896 On ch=4 n=62 v=117
40992 On ch=4 n=71 v=0
40992 On ch=4 n=65 v=0
40992 On ch=4 n=62 v=0
40992 On ch=4 n=71 v=127
40992 On ch=4 n=65 v=117
40992 On ch=4 n=62 v=117
41012 Par ch=4 c=11 v=98
41028 Par ch=4 c=11 v=95
41040 Par ch=4 c=11 v=90
41052 Par ch=4 c=11 v=85
41060 Par ch=4 c=11 v=80
41064 Par ch=4 c=11 v=75
41068 Par ch=4 c=11 v=70
41072 Par ch=4 c=11 v=65
41076 Par ch=4 c=11 v=60
41080 Par ch=4 c=11 v=0
41084 Par ch=4 c=11 v=100
41088 On ch=4 n=71 v=0
41088 On ch=4 n=65 v=0
41088 On ch=4 n=62 v=0
41088 On ch=4 n=71 v=127
41088 On ch=4 n=65 v=117
41088 On ch=4 n=62 v=117
41184 On ch=4 n=71 v=0
41184 On ch=4 n=65 v=0
41184 On ch=4 n=62 v=0
41184 On ch=4 n=72 v=127
41184 On ch=4 n=67 v=117
41184 On ch=4 n=64 v=117
41280 On ch=4 n=72 v=0
41280 On ch=4 n=67 v=0
41280 On ch=4 n=64 v=0
41280 On ch=4 n=71 v=127
41280 On ch=4 n=69 v=117
41280 On ch=4 n=65 v=117
41280 On ch=4 n=62 v=117
41376 On ch=4 n=71 v=0
41376 On ch=4 n=69 v=0
41376 On ch=4 n=65 v=0
41376 On ch=4 n=62 v=0
41376 On ch=4 n=72 v=127
41376 On ch=4 n=69 v=117
41376 On ch=4 n=65 v=117
41376 On ch=4 n=62 v=117
41468 Pb ch=4 v=8192
41500 Pb ch=4 v=8064
41504 Pb ch=4 v=7808
41508 Pb ch=4 v=7552
41512 Pb ch=4 v=7296
41516 Pb ch=4 v=7040
41520 Pb ch=4 v=6784
41524 Pb ch=4 v=6400
41528 Pb ch=4 v=5888
41532 Par ch=4 c=11 v=90
41536 Pb ch=4 v=5248
41540 Par ch=4 c=11 v=60
41544 Pb ch=4 v=4480
41548 Par ch=4 c=11 v=30
41552 Pb ch=4 v=3328
41556 Par ch=4 c=11 v=10
41560 Pb ch=4 v=8192
41564 Par ch=4 c=11 v=100
41568 On ch=4 n=72 v=0
41568 On ch=4 n=69 v=0
41568 On ch=4 n=65 v=0
41568 On ch=4 n=62 v=0
41568 On ch=4 n=72 v=122
41568 On ch=4 n=69 v=102
41568 On ch=4 n=65 v=102
41568 On ch=4 n=62 v=102
41692 Pb ch=4 v=8064
41696 Pb ch=4 v=7808
41700 Pb ch=4 v=7552
41704 Pb ch=4 v=7296
41708 Pb ch=4 v=7040
41712 Pb ch=4 v=6784
41716 Pb ch=4 v=6400
41720 Pb ch=4 v=5888
41724 Par ch=4 c=11 v=90
41728 Pb ch=4 v=5248
41732 Par ch=4 c=11 v=60
41736 Pb ch=4 v=4480
41740 Par ch=4 c=11 v=30
41744 Pb ch=4 v=3328
41748 Par ch=4 c=11 v=10
41752 Pb ch=4 v=8192
41756 Par ch=4 c=11 v=100
41760 On ch=4 n=72 v=0
41760 On ch=4 n=69 v=0
41760 On ch=4 n=65 v=0
41760 On ch=4 n=62 v=0
41760 On ch=4 n=72 v=107
41760 On ch=4 n=69 v=87
41760 On ch=4 n=65 v=87
41760 On ch=4 n=62 v=87
41892 Pb ch=4 v=8064
41896 Pb ch=4 v=7808
41900 Pb ch=4 v=7552
41904 Pb ch=4 v=7296
41908 Pb ch=4 v=7040
41912 Pb ch=4 v=6784
41916 Pb ch=4 v=6400
41920 Pb ch=4 v=5888
41924 Par ch=4 c=11 v=90
41928 Pb ch=4 v=5248
41932 Par ch=4 c=11 v=60
41936 Pb ch=4 v=4480
41940 Par ch=4 c=11 v=30
41944 Pb ch=4 v=3328
41948 Par ch=4 c=11 v=10
41952 On ch=4 n=72 v=0
41952 On ch=4 n=69 v=0
41952 On ch=4 n=65 v=0
41952 On ch=4 n=62 v=0
41952 Pb ch=4 v=8192
41956 Par ch=4 c=11 v=100
41960 On ch=4 n=72 v=87
41960 On ch=4 n=69 v=67
41960 On ch=4 n=65 v=67
41960 On ch=4 n=62 v=67
42100 Pb ch=4 v=8064
42104 Pb ch=4 v=7808
42108 Pb ch=4 v=7552
42112 Pb ch=4 v=7296
42116 Pb ch=4 v=7040
42120 Pb ch=4 v=6784
42124 Pb ch=4 v=6400
42128 Pb ch=4 v=5888
42132 Par ch=4 c=11 v=90
42136 Pb ch=4 v=5248
42140 Par ch=4 c=11 v=60
42144 Pb ch=4 v=4480
42148 Par ch=4 c=11 v=30
42152 On ch=4 n=72 v=0
42152 On ch=4 n=69 v=0
42152 On ch=4 n=65 v=0
42152 On ch=4 n=62 v=0
42152 Pb ch=4 v=3328
42156 Par ch=4 c=11 v=10
42160 Pb ch=4 v=8192
42164 Par ch=4 c=11 v=100
42168 On ch=4 n=72 v=67
42168 On ch=4 n=69 v=47
42168 On ch=4 n=65 v=47
42168 On ch=4 n=62 v=47
42312 Pb ch=4 v=8064
42316 Pb ch=4 v=7808
42320 Pb ch=4 v=7552
42324 Pb ch=4 v=7296
42328 Pb ch=4 v=7040
42332 Pb ch=4 v=6784
42336 Pb ch=4 v=6400
42340 Pb ch=4 v=5888
42344 Par ch=4 c=11 v=90
42348 Pb ch=4 v=5248
42352 Par ch=4 c=11 v=60
42356 Pb ch=4 v=4480
42360 Par ch=4 c=11 v=30
42364 Pb ch=4 v=3328
42368 Par ch=4 c=11 v=10
42372 Pb ch=4 v=8192
42432 On ch=4 n=72 v=0
42432 On ch=4 n=69 v=0
42432 On ch=4 n=65 v=0
42432 On ch=4 n=62 v=0
42524 Par ch=4 c=11 v=100
42528 On ch=4 n=71 v=127
42528 On ch=4 n=67 v=117
42528 On ch=4 n=62 v=117
42616 On ch=4 n=71 v=0
42616 On ch=4 n=67 v=0
42616 On ch=4 n=62 v=0
42624 On ch=4 n=71 v=127
42624 On ch=4 n=67 v=117
42624 On ch=4 n=62 v=117
42712 On ch=4 n=71 v=0
42712 On ch=4 n=67 v=0
42712 On ch=4 n=62 v=0
42720 On ch=4 n=71 v=127
42720 On ch=4 n=67 v=117
42720 On ch=4 n=62 v=117
42808 On ch=4 n=71 v=0
42808 On ch=4 n=67 v=0
42808 On ch=4 n=62 v=0
42816 On ch=4 n=71 v=127
42816 On ch=4 n=67 v=117
42816 On ch=4 n=62 v=117
42944 On ch=4 n=71 v=0
42944 On ch=4 n=67 v=0
42944 On ch=4 n=62 v=0
43004 Par ch=4 c=1 v=40
43008 On ch=4 n=72 v=127
43008 On ch=4 n=69 v=120
43008 On ch=4 n=65 v=115
43008 On ch=4 n=60 v=105
44200 Par ch=4 c=11 v=98
44240 Par ch=4 c=11 v=95
44276 Par ch=4 c=11 v=90
44308 Par ch=4 c=11 v=85
44336 Par ch=4 c=11 v=80
44360 Par ch=4 c=11 v=75
44380 Par ch=4 c=11 v=70
44396 Par ch=4 c=11 v=65
44408 Par ch=4 c=11 v=60
44412 Par ch=4 c=11 v=55
44420 Par ch=4 c=11 v=50
44424 Par ch=4 c=11 v=45
44428 Par ch=4 c=11 v=40
44432 Par ch=4 c=11 v=35
44436 Par ch=4 c=11 v=30
44440 Par ch=4 c=11 v=0
44444 Par ch=4 c=11 v=100
44448 On ch=4 n=72 v=0
44448 On ch=4 n=69 v=0
44448 On ch=4 n=65 v=0
44448 On ch=4 n=60 v=0
44448 Par ch=4 c=1 v=0
44452 On ch=4 n=69 v=122
44640 On ch=4 n=69 v=0
44640 On ch=4 n=62 v=105
44728 On ch=4 n=62 v=0
44832 On ch=4 n=67 v=115
45024 On ch=4 n=67 v=0
45024 On ch=4 n=60 v=110
45064 Par ch=4 c=11 v=98
45100 Par ch=4 c=11 v=95
45132 Par ch=4 c=11 v=90
45156 Par ch=4 c=11 v=85
45172 Par ch=4 c=11 v=80
45184 Par ch=4 c=11 v=75
45192 Par ch=4 c=11 v=70
45200 Par ch=4 c=11 v=65
45204 Par ch=4 c=11 v=60
45208 Par ch=4 c=11 v=0
45212 Par ch=4 c=11 v=100
45216 On ch=4 n=60 v=0
45216 On ch=4 n=62 v=118
45404 Par ch=4 c=1 v=40
45408 On ch=4 n=62 v=0
45408 On ch=4 n=67 v=110
45728 On ch=4 n=67 v=0
45980 Par ch=4 c=1 v=0
45984 On ch=4 n=69 v=118
46176 On ch=4 n=69 v=0
46176 On ch=4 n=62 v=110
46216 Par ch=4 c=11 v=98
46248 Par ch=4 c=11 v=95
46280 Par ch=4 c=11 v=90
46312 Par ch=4 c=11 v=85
46328 Par ch=4 c=11 v=80
46336 On ch=4 n=62 v=0
46340 Par ch=4 c=11 v=75
46348 Par ch=4 c=11 v=70
46352 Par ch=4 c=11 v=65
46356 Par ch=4 c=11 v=60
46360 Par ch=4 c=11 v=0
46364 Par ch=4 c=11 v=100
46368 On ch=4 n=67 v=114
46464 On ch=4 n=67 v=0
46560 On ch=4 n=60 v=112
46656 On ch=4 n=60 v=0
46752 On ch=4 n=65 v=115
46844 Par ch=4 c=1 v=40
47136 On ch=4 n=65 v=0
47516 Par ch=4 c=1 v=0
47520 On ch=4 n=72 v=122
47712 On ch=4 n=72 v=0
47712 On ch=4 n=65 v=115
47760 Par ch=4 c=11 v=98
47792 Par ch=4 c=11 v=95
47808 Par ch=4 c=11 v=90
47828 Par ch=4 c=11 v=85
47844 Par ch=4 c=11 v=80
47852 Par ch=4 c=11 v=75
47860 Par ch=4 c=11 v=70
47868 Par ch=4 c=11 v=65
47872 On ch=4 n=65 v=0
47872 Par ch=4 c=11 v=60
47880 Par ch=4 c=11 v=55
47884 Par ch=4 c=11 v=50
47888 Par ch=4 c=11 v=45
47892 Par ch=4 c=11 v=40
47896 Par ch=4 c=11 v=0
47900 Par ch=4 c=11 v=100
47904 On ch=4 n=69 v=112
47976 On ch=4 n=69 v=0
48092 Par ch=4 c=1 v=30
48096 On ch=4 n=65 v=112
48284 Par ch=4 c=1 v=0
48288 On ch=4 n=65 v=0
48288 On ch=4 n=67 v=118
48292 Pb ch=4 v=7192
48300 Pb ch=4 v=7492
48312 Pb ch=4 v=7692
48324 Pb ch=4 v=7942
48380 Pb ch=4 v=8192
48480 On ch=4 n=67 v=0
48480 On ch=4 n=65 v=115
48560 On ch=4 n=65 v=0
48672 On ch=4 n=64 v=110
48760 On ch=4 n=64 v=0
48864 On ch=4 n=65 v=115
48952 On ch=4 n=65 v=0
49056 On ch=4 n=64 v=118
49728 On ch=4 n=64 v=0
49728 On ch=4 n=65 v=115
49824 On ch=4 n=65 v=0
49824 On ch=4 n=65 v=110
49884 Pb ch=4 v=8064
49896 Pb ch=4 v=7936
49900 Pb ch=4 v=7808
49904 Pb ch=4 v=7680
49908 Pb ch=4 v=7424
49912 Pb ch=4 v=7168
49916 Pb ch=4 v=8192
49920 On ch=4 n=65 v=0
50592 On ch=4 n=72 v=127
50784 On ch=4 n=72 v=0
50784 On ch=4 n=72 v=122
50820 Par ch=4 c=11 v=98
50832 Par ch=4 c=11 v=95
50840 Par ch=4 c=11 v=90
50848 Par ch=4 c=11 v=85
50852 Par ch=4 c=11 v=80
50856 Par ch=4 c=11 v=75
50860 Par ch=4 c=11 v=70
50864 Par ch=4 c=11 v=65
50868 Par ch=4 c=11 v=60
50872 Par ch=4 c=11 v=0
50876 Par ch=4 c=11 v=100
50880 On ch=4 n=72 v=0
50880 On ch=4 n=72 v=122
50976 On ch=4 n=72 v=0
50976 On ch=4 n=71 v=117
51056 On ch=4 n=71 v=0
51068 Par ch=4 c=1 v=35
51072 On ch=4 n=69 v=115
51264 On ch=4 n=69 v=0
51356 Par ch=4 c=1 v=0
51360 On ch=4 n=72 v=127
51552 On ch=4 n=72 v=0
51552 On ch=4 n=72 v=127
51648 On ch=4 n=72 v=0
51648 On ch=4 n=72 v=120
51744 On ch=4 n=72 v=0
51744 On ch=4 n=71 v=117
51836 Par ch=4 c=1 v=30
51840 On ch=4 n=71 v=0
51840 On ch=4 n=69 v=115
51936 On ch=4 n=69 v=0
52028 Par ch=4 c=1 v=0
52032 On ch=4 n=69 v=117
52128 On ch=4 n=69 v=0
52128 On ch=4 n=69 v=117
52224 On ch=4 n=69 v=0
52224 On ch=4 n=69 v=117
52320 On ch=4 n=69 v=0
52320 On ch=4 n=71 v=120
52416 On ch=4 n=71 v=0
52416 On ch=4 n=72 v=122
52512 On ch=4 n=72 v=0
52512 On ch=4 n=71 v=125
52704 On ch=4 n=71 v=0
52704 On ch=4 n=72 v=125
52784 On ch=4 n=72 v=0
52896 On ch=4 n=71 v=127
52944 Pb ch=4 v=8892
52984 Pb ch=4 v=8192
52988 Par ch=4 c=1 v=30
53376 On ch=4 n=71 v=0
53564 Par ch=4 c=1 v=0
53568 On ch=4 n=72 v=115
53664 On ch=4 n=72 v=0
53664 On ch=4 n=72 v=107
53856 On ch=4 n=72 v=0
53856 On ch=4 n=69 v=115
53872 Pb ch=4 v=7680
53880 Pb ch=4 v=7808
53892 Pb ch=4 v=7936
53904 Pb ch=4 v=8064
53928 Pb ch=4 v=8192
53952 On ch=4 n=57 v=102
53956 On ch=4 n=69 v=0
54048 On ch=4 n=57 v=0
54048 On ch=4 n=57 v=102
54112 On ch=4 n=57 v=0
54144 On ch=4 n=55 v=102
54240 On ch=4 n=55 v=0
54240 On ch=4 n=53 v=102
54336 On ch=4 n=53 v=0
54336 On ch=4 n=50 v=82
54336 On ch=4 n=69 v=110
54432 On ch=4 n=69 v=0
54432 On ch=4 n=71 v=105
54488 On ch=4 n=71 v=0
54528 On ch=4 n=50 v=0
54528 On ch=4 n=72 v=115
54716 Par ch=4 c=1 v=30
54720 On ch=4 n=72 v=0
54720 On ch=4 n=71 v=107
54784 On ch=4 n=71 v=0
54816 On ch=4 n=69 v=107
55104 On ch=4 n=69 v=0
55104 On ch=4 n=67 v=107
55200 On ch=4 n=67 v=0
55200 On ch=4 n=69 v=107
55296 On ch=4 n=69 v=0
55296 On ch=4 n=65 v=118
55388 Par ch=4 c=1 v=30
55392 On ch=4 n=65 v=0
55392 On ch=4 n=62 v=110
55504 Par ch=4 c=11 v=99
55540 Par ch=4 c=11 v=98
55564 Par ch=4 c=11 v=97
55580 Par ch=4 c=11 v=96
55592 Par ch=4 c=11 v=95
55604 Par ch=4 c=11 v=94
55612 Par ch=4 c=11 v=93
55620 Par ch=4 c=11 v=92
55628 Par ch=4 c=11 v=91
55632 Par ch=4 c=11 v=90
55636 Par ch=4 c=11 v=89
55644 Par ch=4 c=11 v=88
55648 Par ch=4 c=11 v=87
55652 Par ch=4 c=11 v=86
55656 Par ch=4 c=11 v=85
55660 Par ch=4 c=11 v=83
55664 Par ch=4 c=11 v=82
55668 Par ch=4 c=11 v=81
55672 Par ch=4 c=11 v=80
55676 Par ch=4 c=11 v=78
55680 Par ch=4 c=11 v=76
55684 Par ch=4 c=11 v=75
55688 Par ch=4 c=11 v=73
55692 Par ch=4 c=11 v=70
55696 Par ch=4 c=11 v=68
55700 Par ch=4 c=11 v=66
55704 Par ch=4 c=11 v=64
55708 Par ch=4 c=11 v=60
55712 On ch=4 n=62 v=0
56056 Par ch=4 c=11 v=100
56060 Par ch=4 c=1 v=0
56828 PrCh ch=4 p=82
56832 On ch=4 n=71 v=118
56836 Pb ch=4 v=7792
56848 Pb ch=4 v=7992
56856 Pb ch=4 v=8192
57112 On ch=4 n=71 v=0
57116 Par ch=4 c=1 v=30
57120 On ch=4 n=69 v=110
57504 On ch=4 n=69 v=0
57596 Par ch=4 c=1 v=0
57600 On ch=4 n=71 v=118
57884 Par ch=4 c=1 v=40
57888 On ch=4 n=71 v=0
57888 On ch=4 n=69 v=110
58272 On ch=4 n=69 v=0
58364 Par ch=4 c=1 v=0
58368 On ch=4 n=71 v=118
58656 On ch=4 n=71 v=0
58656 On ch=4 n=69 v=115
58776 On ch=4 n=69 v=0
58848 On ch=4 n=74 v=122
58992 On ch=4 n=74 v=0
58992 On ch=4 n=71 v=115
59132 On ch=4 n=71 v=0
59136 On ch=4 n=69 v=117
59340 Pb ch=4 v=8064
59376 Pb ch=4 v=7936
59392 Pb ch=4 v=7808
59404 Pb ch=4 v=7680
59412 Pb ch=4 v=7552
59416 Pb ch=4 v=8192
59420 Par ch=4 c=1 v=40
59424 On ch=4 n=69 v=0
59424 On ch=4 n=67 v=115
59844 On ch=4 n=67 v=0
59900 Par ch=4 c=1 v=0
59904 On ch=4 n=71 v=120
60184 On ch=4 n=71 v=0
60188 Par ch=4 c=1 v=40
60192 On ch=4 n=69 v=115
60576 On ch=4 n=69 v=0
60668 Par ch=4 c=1 v=0
60672 On ch=4 n=71 v=120
60956 Par ch=4 c=1 v=30
60960 On ch=4 n=71 v=0
60960 On ch=4 n=69 v=115
61344 On ch=4 n=69 v=0
61436 Par ch=4 c=1 v=0
61440 On ch=4 n=71 v=120
61444 Pb ch=4 v=7892
61468 Pb ch=4 v=8092
61496 Pb ch=4 v=8192
61728 On ch=4 n=71 v=0
61728 On ch=4 n=69 v=115
61848 On ch=4 n=69 v=0
61920 On ch=4 n=74 v=122
62048 On ch=4 n=74 v=0
62064 On ch=4 n=71 v=120
62208 On ch=4 n=69 v=118
62212 Pb ch=4 v=8792
62216 Pb ch=4 v=8592
62220 Pb ch=4 v=8392
62224 On ch=4 n=71 v=0
62224 Pb ch=4 v=8192
62448 On ch=4 n=69 v=0
62492 Par ch=4 c=1 v=40
62496 On ch=4 n=67 v=115
62500 Pb ch=4 v=9192
62508 Pb ch=4 v=8992
62516 Pb ch=4 v=8792
62524 Pb ch=4 v=8592
62532 Pb ch=4 v=8392
62536 Pb ch=4 v=8192
62972 Par ch=4 c=1 v=0
62976 On ch=4 n=67 v=0
63260 PrCh ch=4 p=80
63264 On ch=4 n=74 v=110
63264 On ch=4 n=71 v=110
63264 On ch=4 n=67 v=110
63264 On ch=4 n=62 v=115
63296 Par ch=4 c=11 v=98
63308 Par ch=4 c=11 v=95
63320 Par ch=4 c=11 v=90
63328 Par ch=4 c=11 v=85
63332 Par ch=4 c=11 v=80
63336 Par ch=4 c=11 v=75
63340 Par ch=4 c=11 v=70
63344 Par ch=4 c=11 v=65
63348 Par ch=4 c=11 v=60
63352 Par ch=4 c=11 v=0
63356 Par ch=4 c=11 v=100
63360 On ch=4 n=74 v=0
63360 On ch=4 n=71 v=0
63360 On ch=4 n=67 v=0
63360 On ch=4 n=62 v=0
63360 On ch=4 n=74 v=110
63360 On ch=4 n=71 v=110
63360 On ch=4 n=67 v=110
63360 On ch=4 n=62 v=115
63456 On ch=4 n=74 v=0
63456 On ch=4 n=71 v=0
63456 On ch=4 n=67 v=0
63456 On ch=4 n=62 v=0
63456 On ch=4 n=74 v=110
63456 On ch=4 n=71 v=110
63456 On ch=4 n=67 v=110
63456 On ch=4 n=62 v=115
63552 On ch=4 n=74 v=0
63552 On ch=4 n=71 v=0
63552 On ch=4 n=67 v=0
63552 On ch=4 n=62 v=0
63552 On ch=4 n=74 v=110
63552 On ch=4 n=71 v=110
63552 On ch=4 n=67 v=110
63552 On ch=4 n=62 v=115
63648 On ch=4 n=74 v=0
63648 On ch=4 n=71 v=0
63648 On ch=4 n=67 v=0
63648 On ch=4 n=62 v=0
63648 On ch=4 n=72 v=110
63648 On ch=4 n=69 v=110
63648 On ch=4 n=65 v=110
63648 On ch=4 n=60 v=115
63796 Pb ch=4 v=8064
63808 Pb ch=4 v=7936
63816 Pb ch=4 v=7808
63820 Pb ch=4 v=7680
63824 Pb ch=4 v=7424
63828 Pb ch=4 v=7296
63832 Pb ch=4 v=6912
63836 Pb ch=4 v=6528
63840 On ch=4 n=72 v=0
63840 On ch=4 n=69 v=0
63840 On ch=4 n=65 v=0
63840 On ch=4 n=60 v=0
63840 Pb ch=4 v=8192
66240 On ch=4 n=71 v=115
66240 On ch=4 n=65 v=115
66240 On ch=4 n=62 v=115
66336 On ch=4 n=71 v=0
66336 On ch=4 n=65 v=0
66336 On ch=4 n=62 v=0
66336 On ch=4 n=71 v=115
66336 On ch=4 n=65 v=115
66336 On ch=4 n=62 v=115
66364 Par ch=4 c=11 v=98
66376 Par ch=4 c=11 v=95
66388 Par ch=4 c=11 v=90
66396 Par ch=4 c=11 v=85
66404 Par ch=4 c=11 v=80
66408 Par ch=4 c=11 v=75
66412 Par ch=4 c=11 v=70
66416 Par ch=4 c=11 v=65
66420 Par ch=4 c=11 v=60
66424 Par ch=4 c=11 v=0
66428 Par ch=4 c=11 v=100
66432 On ch=4 n=71 v=0
66432 On ch=4 n=65 v=0
66432 On ch=4 n=62 v=0
66432 On ch=4 n=71 v=115
66432 On ch=4 n=65 v=120
66432 On ch=4 n=62 v=115
66528 On ch=4 n=71 v=0
66528 On ch=4 n=65 v=0
66528 On ch=4 n=62 v=0
66528 On ch=4 n=72 v=115
66528 On ch=4 n=67 v=125
66528 On ch=4 n=64 v=115
66624 On ch=4 n=72 v=0
66624 On ch=4 n=67 v=0
66624 On ch=4 n=64 v=0
66624 On ch=4 n=71 v=115
66624 On ch=4 n=69 v=125
66624 On ch=4 n=65 v=115
66624 On ch=4 n=62 v=115
66720 On ch=4 n=71 v=0
66720 On ch=4 n=69 v=0
66720 On ch=4 n=65 v=0
66720 On ch=4 n=62 v=0
66720 On ch=4 n=72 v=115
66720 On ch=4 n=69 v=125
66720 On ch=4 n=65 v=115
66720 On ch=4 n=62 v=115
66840 Pb ch=4 v=8064
66844 Pb ch=4 v=7936
66848 Pb ch=4 v=7680
66852 Par ch=4 c=11 v=100
66856 Pb ch=4 v=7296
66860 Par ch=4 c=11 v=90
66864 On ch=4 n=72 v=0
66864 On ch=4 n=69 v=0
66864 On ch=4 n=65 v=0
66864 On ch=4 n=62 v=0
66864 Pb ch=4 v=6784
66868 Par ch=4 c=11 v=80
66872 Pb ch=4 v=5632
66876 Pb ch=4 v=8192
67580 Par ch=4 c=11 v=100
67872 On ch=4 n=72 v=115
67872 On ch=4 n=69 v=115
67872 On ch=4 n=65 v=115
67900 Par ch=4 c=11 v=98
67916 Par ch=4 c=11 v=95
67928 Par ch=4 c=11 v=90
67936 Par ch=4 c=11 v=85
67940 Par ch=4 c=11 v=80
67944 Par ch=4 c=11 v=75
67948 Par ch=4 c=11 v=70
67952 Par ch=4 c=11 v=65
67956 Par ch=4 c=11 v=60
67960 On ch=4 n=72 v=0
67960 On ch=4 n=69 v=0
67960 On ch=4 n=65 v=0
67960 Par ch=4 c=11 v=0
67964 Par ch=4 c=11 v=100
67968 On ch=4 n=72 v=115
67968 On ch=4 n=69 v=115
67968 On ch=4 n=65 v=115
68064 On ch=4 n=72 v=0
68064 On ch=4 n=69 v=0
68064 On ch=4 n=65 v=0
68064 On ch=4 n=71 v=115
68064 On ch=4 n=67 v=115
68064 On ch=4 n=64 v=115
68160 On ch=4 n=71 v=0
68160 On ch=4 n=67 v=0
68160 On ch=4 n=64 v=0
68160 On ch=4 n=69 v=115
68160 On ch=4 n=65 v=115
68160 On ch=4 n=62 v=115
68196 Par ch=4 c=11 v=98
68212 Par ch=4 c=11 v=95
68220 Par ch=4 c=11 v=90
68224 Par ch=4 c=11 v=85
68228 Par ch=4 c=11 v=80
68232 Par ch=4 c=11 v=75
68236 Par ch=4 c=11 v=70
68240 Par ch=4 c=11 v=65
68244 Par ch=4 c=11 v=60
68248 Par ch=4 c=11 v=0
68252 Par ch=4 c=11 v=100
68256 On ch=4 n=69 v=0
68256 On ch=4 n=65 v=0
68256 On ch=4 n=62 v=0
68256 On ch=4 n=72 v=115
68256 On ch=4 n=69 v=115
68256 On ch=4 n=65 v=115
69120 On ch=4 n=72 v=0
69120 On ch=4 n=69 v=0
69120 On ch=4 n=65 v=0
69312 On ch=4 n=74 v=115
69312 On ch=4 n=71 v=115
69312 On ch=4 n=67 v=115
69312 On ch=4 n=62 v=115
69408 On ch=4 n=74 v=0
69408 On ch=4 n=71 v=0
69408 On ch=4 n=67 v=0
69408 On ch=4 n=62 v=0
69408 On ch=4 n=74 v=115
69408 On ch=4 n=71 v=115
69408 On ch=4 n=67 v=115
69408 On ch=4 n=62 v=115
69436 Par ch=4 c=11 v=98
69452 Par ch=4 c=11 v=95
69464 Par ch=4 c=11 v=90
69472 Par ch=4 c=11 v=85
69476 Par ch=4 c=11 v=80
69480 Par ch=4 c=11 v=75
69484 Par ch=4 c=11 v=70
69488 Par ch=4 c=11 v=65
69492 Par ch=4 c=11 v=60
69496 Par ch=4 c=11 v=0
69500 Par ch=4 c=11 v=100
69504 On ch=4 n=74 v=0
69504 On ch=4 n=71 v=0
69504 On ch=4 n=67 v=0
69504 On ch=4 n=62 v=0
69504 On ch=4 n=72 v=115
69504 On ch=4 n=69 v=115
69504 On ch=4 n=65 v=115
69504 On ch=4 n=60 v=115
69600 On ch=4 n=72 v=0
69600 On ch=4 n=69 v=0
69600 On ch=4 n=65 v=0
69600 On ch=4 n=60 v=0
69600 On ch=4 n=74 v=115
69600 On ch=4 n=71 v=115
69600 On ch=4 n=67 v=115
69600 On ch=4 n=62 v=115
69696 On ch=4 n=74 v=0
69696 On ch=4 n=71 v=0
69696 On ch=4 n=67 v=0
69696 On ch=4 n=62 v=0
69696 On ch=4 n=74 v=115
69696 On ch=4 n=71 v=115
69696 On ch=4 n=67 v=115
69696 On ch=4 n=62 v=115
69728 Par ch=4 c=11 v=98
69744 Par ch=4 c=11 v=95
69756 Par ch=4 c=11 v=90
69764 Par ch=4 c=11 v=85
69768 Par ch=4 c=11 v=80
69772 Par ch=4 c=11 v=75
69776 Par ch=4 c=11 v=70
69780 Par ch=4 c=11 v=65
69784 Par ch=4 c=11 v=60
69788 Par ch=4 c=11 v=100
69792 On ch=4 n=74 v=0
69792 On ch=4 n=71 v=0
69792 On ch=4 n=67 v=0
69792 On ch=4 n=62 v=0
69792 On ch=4 n=72 v=115
69792 On ch=4 n=69 v=115
69792 On ch=4 n=65 v=115
69792 On ch=4 n=60 v=115
69900 Pb ch=4 v=8064
69912 Pb ch=4 v=7936
69920 Pb ch=4 v=7808
69924 Pb ch=4 v=7680
69928 Pb ch=4 v=7424
69932 Par ch=4 c=11 v=80
69936 Pb ch=4 v=7296
69940 Par ch=4 c=11 v=60
69944 On ch=4 n=72 v=0
69944 On ch=4 n=69 v=0
69944 On ch=4 n=65 v=0
69944 On ch=4 n=60 v=0
69944 Pb ch=4 v=6912
69948 Par ch=4 c=11 v=40
69952 Pb ch=4 v=6528
69956 Pb ch=4 v=8192
70076 Par ch=4 c=11 v=100
70080 On ch=4 n=69 v=95
70080 On ch=4 n=65 v=125
70080 On ch=4 n=60 v=100
70080 On ch=4 n=57 v=55
70368 On ch=4 n=69 v=0
70368 On ch=4 n=65 v=0
70368 On ch=4 n=60 v=0
70368 On ch=4 n=57 v=0
70368 On ch=4 n=71 v=95
70368 On ch=4 n=67 v=125
70368 On ch=4 n=62 v=100
70368 On ch=4 n=59 v=55
70416 Par ch=4 c=11 v=98
70448 Par ch=4 c=11 v=95
70472 Par ch=4 c=11 v=90
70488 Par ch=4 c=11 v=85
70500 Par ch=4 c=11 v=80
70508 Par ch=4 c=11 v=75
70516 Par ch=4 c=11 v=70
70524 Par ch=4 c=11 v=65
70528 Par ch=4 c=11 v=60
70532 Par ch=4 c=11 v=55
70536 Par ch=4 c=11 v=50
70540 Par ch=4 c=11 v=45
70544 Par ch=4 c=11 v=40
70548 Par ch=4 c=11 v=35
70552 Par ch=4 c=11 v=30
70556 Par ch=4 c=11 v=0
70560 On ch=4 n=71 v=0
70560 On ch=4 n=67 v=0
70560 On ch=4 n=62 v=0
70560 On ch=4 n=59 v=0
70560 Par ch=4 c=11 v=100
70656 On ch=4 n=65 v=95
70656 On ch=4 n=60 v=125
70656 On ch=4 n=55 v=100
70944 On ch=4 n=65 v=0
70944 On ch=4 n=60 v=0
70944 On ch=4 n=55 v=0
70944 On ch=4 n=67 v=95
70944 On ch=4 n=62 v=125
70944 On ch=4 n=57 v=100
71040 On ch=4 n=72 v=110
71040 On ch=4 n=69 v=95
71040 On ch=4 n=65 v=95
71136 On ch=4 n=67 v=0
71136 On ch=4 n=72 v=0
71136 On ch=4 n=69 v=0
71136 On ch=4 n=65 v=0
71136 On ch=4 n=71 v=110
71136 On ch=4 n=67 v=95
71136 On ch=4 n=64 v=95
71216 On ch=4 n=62 v=0
71216 On ch=4 n=57 v=0
71232 On ch=4 n=71 v=0
71232 On ch=4 n=67 v=0
71232 On ch=4 n=64 v=0
71232 On ch=4 n=69 v=110
71232 On ch=4 n=65 v=95
71232 On ch=4 n=62 v=95
71280 Par ch=4 c=11 v=99
71304 Par ch=4 c=11 v=98
71316 Par ch=4 c=11 v=97
71328 Par ch=4 c=11 v=96
71332 Par ch=4 c=11 v=95
71340 Par ch=4 c=11 v=94
71344 Par ch=4 c=11 v=93
71348 Par ch=4 c=11 v=91
71352 Par ch=4 c=11 v=90
71356 Par ch=4 c=11 v=89
71360 Par ch=4 c=11 v=87
71364 Par ch=4 c=11 v=86
71368 Par ch=4 c=11 v=84
71372 Par ch=4 c=11 v=82
71376 Par ch=4 c=11 v=79
71380 Par ch=4 c=11 v=77
71384 Par ch=4 c=11 v=74
71388 Par ch=4 c=11 v=71
71392 Par ch=4 c=11 v=66
71396 Par ch=4 c=11 v=62
71400 Par ch=4 c=11 v=57
71404 Par ch=4 c=11 v=52
71408 Par ch=4 c=11 v=46
71412 Par ch=4 c=11 v=39
71416 Par ch=4 c=11 v=30
71420 Par ch=4 c=11 v=100
71424 On ch=4 n=69 v=0
71424 On ch=4 n=65 v=0
71424 On ch=4 n=62 v=0
71424 On ch=4 n=72 v=95
71424 On ch=4 n=69 v=95
71424 On ch=4 n=65 v=105
71424 On ch=4 n=60 v=95
71616 On ch=4 n=69 v=0
71616 On ch=4 n=65 v=0
71616 On ch=4 n=60 v=0
71616 On ch=4 n=69 v=110
71616 On ch=4 n=65 v=95
71616 On ch=4 n=60 v=90
71616 On ch=4 n=57 v=85
71904 On ch=4 n=57 v=0
71904 On ch=4 n=71 v=110
71904 On ch=4 n=67 v=95
71904 On ch=4 n=62 v=90
71976 Par ch=4 c=11 v=98
72016 Par ch=4 c=11 v=95
72056 Par ch=4 c=11 v=90
72092 Par ch=4 c=11 v=85
72124 Par ch=4 c=11 v=80
72140 Par ch=4 c=11 v=75
72164 Par ch=4 c=11 v=70
72176 Par ch=4 c=11 v=65
72180 Par ch=4 c=11 v=60
72184 Par ch=4 c=11 v=0
72188 Par ch=4 c=11 v=100
72192 On ch=4 n=72 v=0
72192 On ch=4 n=69 v=0
72192 On ch=4 n=65 v=0
72192 On ch=4 n=60 v=0
72192 On ch=4 n=71 v=0
72192 On ch=4 n=67 v=0
72192 On ch=4 n=62 v=0
72192 On ch=4 n=72 v=100
72192 On ch=4 n=69 v=65
72192 On ch=4 n=67 v=115
72192 On ch=4 n=65 v=65
72192 On ch=4 n=60 v=65
72480 On ch=4 n=67 v=0
72480 On ch=4 n=65 v=0
72480 On ch=4 n=71 v=105
72480 On ch=4 n=65 v=115
72552 Par ch=4 c=11 v=98
72584 Par ch=4 c=11 v=95
72616 Par ch=4 c=11 v=90
72644 Par ch=4 c=11 v=85
72668 Par ch=4 c=11 v=80
72688 Par ch=4 c=11 v=75
72704 Par ch=4 c=11 v=70
72716 Par ch=4 c=11 v=65
72724 Par ch=4 c=11 v=60
72732 Par ch=4 c=11 v=55
72740 Par ch=4 c=11 v=50
72748 Par ch=4 c=11 v=45
72752 Par ch=4 c=11 v=40
72756 Par ch=4 c=11 v=35
72760 Par ch=4 c=11 v=30
72764 Par ch=4 c=11 v=0
72768 On ch=4 n=72 v=0
72768 On ch=4 n=69 v=0
72768 On ch=4 n=60 v=0
72768 On ch=4 n=71 v=0
72768 On ch=4 n=65 v=0
72768 Par ch=4 c=11 v=100
73152 On ch=4 n=69 v=110
73152 On ch=4 n=65 v=120
73152 On ch=4 n=60 v=90
73440 On ch=4 n=69 v=0
73440 On ch=4 n=65 v=0
73440 On ch=4 n=60 v=0
73440 On ch=4 n=71 v=110
73440 On ch=4 n=67 v=118
73440 On ch=4 n=62 v=90
73488 Par ch=4 c=11 v=98
73520 Par ch=4 c=11 v=95
73548 Par ch=4 c=11 v=90
73572 Par ch=4 c=11 v=85
73588 Par ch=4 c=11 v=80
73600 Par ch=4 c=11 v=75
73608 Par ch=4 c=11 v=70
73616 Par ch=4 c=11 v=65
73624 Par ch=4 c=11 v=60
73628 Par ch=4 c=11 v=0
73632 On ch=4 n=71 v=0
73632 On ch=4 n=67 v=0
73632 On ch=4 n=62 v=0
73632 Par ch=4 c=11 v=100
73728 On ch=4 n=65 v=110
73728 On ch=4 n=60 v=120
73728 On ch=4 n=55 v=95
74016 On ch=4 n=65 v=0
74016 On ch=4 n=60 v=0
74016 On ch=4 n=55 v=0
74016 On ch=4 n=67 v=110
74016 On ch=4 n=62 v=118
74016 On ch=4 n=57 v=95
74096 Par ch=4 c=11 v=98
74132 Par ch=4 c=11 v=95
74164 Par ch=4 c=11 v=90
74196 Par ch=4 c=11 v=85
74224 Par ch=4 c=11 v=80
74248 Par ch=4 c=11 v=75
74268 Par ch=4 c=11 v=70
74284 Par ch=4 c=11 v=65
74296 Par ch=4 c=11 v=60
74304 Par ch=4 c=11 v=55
74312 Par ch=4 c=11 v=50
74316 Par ch=4 c=11 v=45
74320 Par ch=4 c=11 v=40
74324 Par ch=4 c=11 v=35
74328 Par ch=4 c=11 v=30
74332 Par ch=4 c=11 v=0
74336 On ch=4 n=67 v=0
74336 On ch=4 n=62 v=0
74336 On ch=4 n=57 v=0
74336 Par ch=4 c=11 v=100
74688 On ch=4 n=69 v=115
74688 On ch=4 n=65 v=120
74688 On ch=4 n=60 v=90
74788 Par ch=4 c=11 v=98
74824 Par ch=4 c=11 v=95
74856 Par ch=4 c=11 v=90
74884 Par ch=4 c=11 v=85
74908 Par ch=4 c=11 v=80
74928 Par ch=4 c=11 v=75
74944 Par ch=4 c=11 v=70
74956 Par ch=4 c=11 v=65
74964 Par ch=4 c=11 v=60
74968 Par ch=4 c=11 v=0
74972 Par ch=4 c=11 v=100
74976 On ch=4 n=69 v=0
74976 On ch=4 n=65 v=0
74976 On ch=4 n=60 v=0
74976 On ch=4 n=71 v=115
74976 On ch=4 n=67 v=120
74976 On ch=4 n=62 v=90
75144 On ch=4 n=71 v=0
75144 On ch=4 n=67 v=0
75144 On ch=4 n=62 v=0
75264 On ch=4 n=72 v=115
75264 On ch=4 n=67 v=120
75264 On ch=4 n=62 v=110
75524 On ch=4 n=72 v=0
75524 On ch=4 n=67 v=0
75524 On ch=4 n=62 v=0
75552 On ch=4 n=71 v=115
75552 On ch=4 n=69 v=120
75552 On ch=4 n=62 v=90
75648 On ch=4 n=69 v=0
75648 On ch=4 n=67 v=110
75652 Pb ch=4 v=8992
75656 Pb ch=4 v=8892
75660 Pb ch=4 v=8792
75664 Pb ch=4 v=8692
75668 Pb ch=4 v=8592
75672 Pb ch=4 v=8492
75676 Pb ch=4 v=8392
75684 Pb ch=4 v=8292
75692 Pb ch=4 v=8192
75744 On ch=4 n=67 v=0
75744 On ch=4 n=65 v=112
76036 Par ch=4 c=11 v=99
76040 Par ch=4 c=11 v=98
76044 Par ch=4 c=11 v=96
76048 Par ch=4 c=11 v=95
76052 Par ch=4 c=11 v=93
76056 Par ch=4 c=11 v=92
76060 Par ch=4 c=11 v=91
76064 Par ch=4 c=11 v=89
76068 Par ch=4 c=11 v=88
76072 Par ch=4 c=11 v=86
76076 Par ch=4 c=11 v=85
76080 Par ch=4 c=11 v=84
76084 Par ch=4 c=11 v=82
76088 Par ch=4 c=11 v=81
76092 Par ch=4 c=11 v=79
76096 Par ch=4 c=11 v=78
76100 Par ch=4 c=11 v=77
76104 Par ch=4 c=11 v=75
76108 Par ch=4 c=11 v=74
76112 Par ch=4 c=11 v=72
76116 Par ch=4 c=11 v=71
76120 Par ch=4 c=11 v=70
76124 Par ch=4 c=11 v=68
76128 Par ch=4 c=11 v=67
76132 Par ch=4 c=11 v=65
76136 Par ch=4 c=11 v=64
76140 Par ch=4 c=11 v=62
76144 Par ch=4 c=11 v=61
76148 Par ch=4 c=11 v=60
76152 Par ch=4 c=11 v=58
76156 Par ch=4 c=11 v=57
76160 Par ch=4 c=11 v=55
76164 Par ch=4 c=11 v=54
76168 Par ch=4 c=11 v=53
76172 Par ch=4 c=11 v=51
76176 Par ch=4 c=11 v=50
76180 Par ch=4 c=11 v=48
76184 Par ch=4 c=11 v=47
76188 Par ch=4 c=11 v=46
76192 Par ch=4 c=11 v=44
76196 Par ch=4 c=11 v=43
76200 Par ch=4 c=11 v=41
76204 Par ch=4 c=11 v=40
76208 Par ch=4 c=11 v=39
76212 Par ch=4 c=11 v=37
76216 Par ch=4 c=11 v=36
76220 Par ch=4 c=11 v=34
76224 Par ch=4 c=11 v=33
76228 Par ch=4 c=11 v=31
76232 Par ch=4 c=11 v=30
76236 Par ch=4 c=11 v=29
76240 Par ch=4 c=11 v=27
76244 Par ch=4 c=11 v=26
76248 Par ch=4 c=11 v=24
76252 Par ch=4 c=11 v=23
76256 Par ch=4 c=11 v=22
76260 Par ch=4 c=11 v=20
76264 Par ch=4 c=11 v=19
76268 Par ch=4 c=11 v=17
76272 Par ch=4 c=11 v=16
76276 Par ch=4 c=11 v=15
76280 Par ch=4 c=11 v=13
76284 Par ch=4 c=11 v=12
76288 Par ch=4 c=11 v=10
76292 Par ch=4 c=11 v=9
76296 Par ch=4 c=11 v=8
76300 Par ch=4 c=11 v=6
76304 Par ch=4 c=11 v=5
76308 Par ch=4 c=11 v=3
76312 Par ch=4 c=11 v=2
76316 Par ch=4 c=11 v=0
76320 On ch=4 n=62 v=0
76320 On ch=4 n=71 v=0
76320 On ch=4 n=65 v=0
76320 Par ch=4 c=11 v=100
82176 On ch=4 n=62 v=107
82268 Pb ch=4 v=7296
82272 On ch=4 n=62 v=0
82272 On ch=4 n=69 v=117
82276 Pb ch=4 v=7424
82280 Pb ch=4 v=7552
82284 Pb ch=4 v=7680
82292 Pb ch=4 v=7808
82300 Pb ch=4 v=7936
82316 Pb ch=4 v=8064
82340 Pb ch=4 v=8192
82464 On ch=4 n=69 v=0
82464 On ch=4 n=67 v=112
82656 On ch=4 n=67 v=0
82656 On ch=4 n=66 v=112
82848 On ch=4 n=66 v=0
82848 On ch=4 n=60 v=112
83036 Pb ch=4 v=7424
83040 On ch=4 n=60 v=0
83040 On ch=4 n=67 v=117
83044 Pb ch=4 v=7552
83048 Pb ch=4 v=7680
83056 Pb ch=4 v=7808
83064 Pb ch=4 v=7936
83080 Pb ch=4 v=8064
83104 Pb ch=4 v=8192
83232 On ch=4 n=67 v=0
83232 On ch=4 n=66 v=112
83424 On ch=4 n=66 v=0
83424 On ch=4 n=62 v=112
83616 On ch=4 n=62 v=0
83616 On ch=4 n=64 v=117
83840 On ch=4 n=64 v=0
83840 On ch=4 n=62 v=117
83840 On ch=4 n=59 v=105
83904 On ch=4 n=59 v=0
83904 On ch=4 n=57 v=100
84000 On ch=4 n=62 v=0
84032 On ch=4 n=57 v=0
84032 On ch=4 n=61 v=117
84032 On ch=4 n=57 v=100
84096 On ch=4 n=57 v=0
84096 On ch=4 n=59 v=95
84224 On ch=4 n=61 v=0
84224 On ch=4 n=64 v=120
84224 On ch=4 n=57 v=98
84288 On ch=4 n=59 v=0
84376 On ch=4 n=64 v=0
84412 Pb ch=4 v=6528
84416 On ch=4 n=57 v=0
84416 On ch=4 n=67 v=125
84420 Pb ch=4 v=7168
84424 Pb ch=4 v=7424
84428 Pb ch=4 v=7680
84432 Pb ch=4 v=7936
84436 Pb ch=4 v=8064
84444 Pb ch=4 v=8192
84608 On ch=4 n=67 v=0
84608 On ch=4 n=66 v=120
84800 On ch=4 n=66 v=0
84800 On ch=4 n=62 v=115
84992 On ch=4 n=62 v=0
84992 On ch=4 n=64 v=110
85120 On ch=4 n=64 v=0
85184 On ch=4 n=62 v=107
85248 On ch=4 n=66 v=117
85248 On ch=4 n=67 v=72
85252 On ch=4 n=62 v=0
85376 On ch=4 n=66 v=0
85376 On ch=4 n=67 v=0
85376 On ch=4 n=67 v=122
85376 On ch=4 n=66 v=72
85536 On ch=4 n=67 v=0
85536 On ch=4 n=66 v=0
85568 On ch=4 n=69 v=127
85568 On ch=4 n=62 v=72
85696 On ch=4 n=69 v=0
85760 On ch=4 n=62 v=0
85760 On ch=4 n=62 v=120
85760 On ch=4 n=57 v=62
85952 On ch=4 n=62 v=0
85952 On ch=4 n=72 v=127
86016 On ch=4 n=57 v=0
86144 On ch=4 n=72 v=0
86144 On ch=4 n=71 v=117
86304 On ch=4 n=71 v=0
86336 On ch=4 n=69 v=117
86528 On ch=4 n=69 v=0
86528 On ch=4 n=67 v=112
86656 On ch=4 n=67 v=0
86700 Pb ch=4 v=8392
86704 On ch=4 n=69 v=117
86876 Pb ch=4 v=8192
86880 On ch=4 n=71 v=122
86896 On ch=4 n=69 v=0
86968 On ch=4 n=71 v=0
87072 On ch=4 n=71 v=122
87264 On ch=4 n=71 v=0
87264 On ch=4 n=72 v=122
87312 Pb ch=4 v=7592
87356 Pb ch=4 v=8192
87360 On ch=4 n=72 v=0
87360 On ch=4 n=69 v=117
87552 On ch=4 n=69 v=0
87744 On ch=4 n=77 v=110
87744 On ch=4 n=72 v=110
87836 Par ch=4 c=11 v=100
87840 On ch=4 n=77 v=0
87840 On ch=4 n=72 v=0
87840 On ch=4 n=77 v=110
87840 On ch=4 n=72 v=110
87876 Par ch=4 c=11 v=98
87888 Par ch=4 c=11 v=95
87896 Par ch=4 c=11 v=90
87904 Par ch=4 c=11 v=85
87908 Par ch=4 c=11 v=80
87912 Par ch=4 c=11 v=75
87916 Par ch=4 c=11 v=70
87920 Par ch=4 c=11 v=65
87924 Par ch=4 c=11 v=60
87928 Par ch=4 c=11 v=0
87932 Par ch=4 c=11 v=100
87936 On ch=4 n=77 v=0
87936 On ch=4 n=72 v=0
87936 On ch=4 n=77 v=110
87936 On ch=4 n=72 v=110
88032 On ch=4 n=77 v=0
88032 On ch=4 n=72 v=0
88032 On ch=4 n=77 v=110
88032 On ch=4 n=72 v=110
88128 On ch=4 n=77 v=0
88128 On ch=4 n=72 v=0
88128 On ch=4 n=77 v=110
88128 On ch=4 n=72 v=110
88320 On ch=4 n=77 v=0
88320 On ch=4 n=72 v=0
93696 Par ch=4 c=7 v=120
94516 Par ch=4 c=7 v=119
94568 Par ch=4 c=7 v=118
94620 Par ch=4 c=7 v=117
94656 On ch=4 n=69 v=100
94656 On ch=4 n=65 v=110
94656 On ch=4 n=60 v=90
94656 On ch=4 n=57 v=80
94672 Par ch=4 c=7 v=116
94720 Par ch=4 c=7 v=115
94772 Par ch=4 c=7 v=114
94824 Par ch=4 c=7 v=113
94876 Par ch=4 c=7 v=112
94928 Par ch=4 c=7 v=111
94944 On ch=4 n=69 v=0
94944 On ch=4 n=65 v=0
94944 On ch=4 n=60 v=0
94944 On ch=4 n=57 v=0
94944 On ch=4 n=71 v=100
94944 On ch=4 n=67 v=110
94944 On ch=4 n=62 v=90
94944 On ch=4 n=59 v=80
94976 Par ch=4 c=7 v=110
95028 Par ch=4 c=7 v=109
95072 On ch=4 n=71 v=0
95072 On ch=4 n=67 v=0
95072 On ch=4 n=62 v=0
95072 On ch=4 n=59 v=0
95080 Par ch=4 c=7 v=108
95132 Par ch=4 c=7 v=107
95184 Par ch=4 c=7 v=106
95232 On ch=4 n=65 v=100
95232 On ch=4 n=60 v=110
95232 On ch=4 n=55 v=90
95232 Par ch=4 c=7 v=105
95284 Par ch=4 c=7 v=104
95336 Par ch=4 c=7 v=103
95388 Par ch=4 c=7 v=102
95440 Par ch=4 c=7 v=101
95488 Par ch=4 c=7 v=100
95516 Par ch=4 c=11 v=100
95520 On ch=4 n=65 v=0
95520 On ch=4 n=60 v=0
95520 On ch=4 n=55 v=0
95520 On ch=4 n=67 v=100
95520 On ch=4 n=62 v=110
95520 On ch=4 n=57 v=90
95540 Par ch=4 c=7 v=99
95592 Par ch=4 c=7 v=98
95616 Par ch=4 c=11 v=98
95644 Par ch=4 c=7 v=97
95692 Par ch=4 c=7 v=96
95696 Par ch=4 c=11 v=95
95736 Par ch=4 c=11 v=90
95744 Par ch=4 c=7 v=95
95776 Par ch=4 c=11 v=85
95796 Par ch=4 c=7 v=94
95808 Par ch=4 c=11 v=80
95836 Par ch=4 c=11 v=75
95848 Par ch=4 c=7 v=93
95860 Par ch=4 c=11 v=70
95880 Par ch=4 c=11 v=65
95896 Par ch=4 c=11 v=60
95900 Par ch=4 c=7 v=92
95908 Par ch=4 c=11 v=55
95916 Par ch=4 c=11 v=50
95920 Par ch=4 c=11 v=0
95948 Par ch=4 c=7 v=91
95996 Par ch=4 c=11 v=100
96000 On ch=4 n=67 v=0
96000 On ch=4 n=62 v=0
96000 On ch=4 n=57 v=0
96000 Par ch=4 c=7 v=90
96052 Par ch=4 c=7 v=89
96104 Par ch=4 c=7 v=88
96156 Par ch=4 c=7 v=87
96192 On ch=4 n=69 v=100
96192 On ch=4 n=65 v=110
96192 On ch=4 n=60 v=90
96204 Par ch=4 c=7 v=86
96256 Par ch=4 c=7 v=85
96308 Par ch=4 c=7 v=84
96360 Par ch=4 c=7 v=83
96412 Par ch=4 c=7 v=82
96460 Par ch=4 c=7 v=81
96480 On ch=4 n=69 v=0
96480 On ch=4 n=65 v=0
96480 On ch=4 n=60 v=0
96480 On ch=4 n=71 v=100
96480 On ch=4 n=67 v=110
96480 On ch=4 n=65 v=90
96512 Par ch=4 c=7 v=80
96564 Par ch=4 c=7 v=79
96608 On ch=4 n=71 v=0
96608 On ch=4 n=67 v=0
96608 On ch=4 n=65 v=0
96616 Par ch=4 c=7 v=78
96668 Par ch=4 c=7 v=77
96716 Par ch=4 c=7 v=76
96768 On ch=4 n=72 v=100
96768 On ch=4 n=67 v=110
96768 On ch=4 n=65 v=90
96772 Par ch=4 c=7 v=75
96820 Par ch=4 c=7 v=74
96872 Par ch=4 c=7 v=73
96920 Par ch=4 c=7 v=72
96972 Par ch=4 c=7 v=71
97024 Par ch=4 c=7 v=70
97056 On ch=4 n=72 v=0
97056 On ch=4 n=67 v=0
97056 On ch=4 n=65 v=0
97056 On ch=4 n=71 v=100
97056 On ch=4 n=67 v=110
97056 On ch=4 n=65 v=90
97076 Par ch=4 c=7 v=69
97128 Par ch=4 c=7 v=68
97152 On ch=4 n=65 v=0
97152 On ch=4 n=69 v=105
97152 On ch=4 n=65 v=95
97152 On ch=4 n=62 v=85
97176 Par ch=4 c=7 v=67
97228 Par ch=4 c=7 v=66
97240 On ch=4 n=69 v=0
97240 On ch=4 n=62 v=0
97248 On ch=4 n=67 v=0
97248 On ch=4 n=72 v=110
97248 On ch=4 n=67 v=100
97280 Par ch=4 c=7 v=65
97332 Par ch=4 c=7 v=64
97336 On ch=4 n=72 v=0
97344 On ch=4 n=65 v=0
97344 On ch=4 n=74 v=110
97344 On ch=4 n=69 v=100
97344 On ch=4 n=65 v=90
97384 Par ch=4 c=7 v=63
97428 Par ch=4 c=7 v=62
97432 On ch=4 n=74 v=0
97432 On ch=4 n=69 v=0
97432 On ch=4 n=65 v=0
97432 Pb ch=4 v=8192
97436 Pb ch=4 v=8192
97440 On ch=4 n=74 v=115
97440 On ch=4 n=69 v=105
97440 On ch=4 n=65 v=95
97484 Par ch=4 c=7 v=61
97512 Pb ch=4 v=8064
97524 Pb ch=4 v=7936
97532 Pb ch=4 v=7808
97536 On ch=4 n=71 v=0
97536 On ch=4 n=67 v=0
97536 Pb ch=4 v=7680
97540 Par ch=4 c=7 v=60
97544 Pb ch=4 v=7424
97548 Pb ch=4 v=7296
97552 Pb ch=4 v=6912
97556 Pb ch=4 v=6528
97560 On ch=4 n=74 v=0
97560 On ch=4 n=69 v=0
97560 On ch=4 n=65 v=0
97560 Pb ch=4 v=8192
97588 Par ch=4 c=7 v=59
97640 Par ch=4 c=7 v=58
97688 Par ch=4 c=7 v=57
97728 On ch=4 n=69 v=100
97728 On ch=4 n=65 v=110
97728 On ch=4 n=60 v=90
97740 Par ch=4 c=7 v=56
97792 Par ch=4 c=7 v=55
97844 Par ch=4 c=7 v=54
97896 Par ch=4 c=7 v=53
97944 Par ch=4 c=7 v=52
97996 Par ch=4 c=7 v=51
98016 On ch=4 n=69 v=0
98016 On ch=4 n=65 v=0
98016 On ch=4 n=60 v=0
98016 On ch=4 n=71 v=100
98016 On ch=4 n=67 v=110
98016 On ch=4 n=62 v=90
98048 Par ch=4 c=7 v=50
98100 Par ch=4 c=7 v=49
98136 On ch=4 n=71 v=0
98136 On ch=4 n=67 v=0
98136 On ch=4 n=62 v=0
98148 Par ch=4 c=7 v=48
98200 Par ch=4 c=7 v=47
98252 Par ch=4 c=7 v=46
98304 On ch=4 n=65 v=100
98304 On ch=4 n=60 v=110
98304 On ch=4 n=55 v=90
98304 Par ch=4 c=7 v=45
98356 Par ch=4 c=7 v=44
98404 Par ch=4 c=7 v=43
98456 Par ch=4 c=7 v=42
98508 Par ch=4 c=7 v=41
98560 Par ch=4 c=7 v=40
98588 Par ch=4 c=11 v=100
98592 On ch=4 n=65 v=0
98592 On ch=4 n=60 v=0
98592 On ch=4 n=55 v=0
98592 On ch=4 n=67 v=100
98592 On ch=4 n=62 v=110
98592 On ch=4 n=57 v=90
98612 Par ch=4 c=7 v=39
98632 Par ch=4 c=11 v=98
98660 Par ch=4 c=7 v=38
98708 Par ch=4 c=11 v=95
98712 Par ch=4 c=7 v=37
98752 Par ch=4 c=11 v=90
98764 Par ch=4 c=7 v=36
98792 Par ch=4 c=11 v=85
98816 Par ch=4 c=7 v=35
98824 Par ch=4 c=11 v=80
98852 Par ch=4 c=11 v=75
98868 Par ch=4 c=7 v=34
98876 Par ch=4 c=11 v=70
98896 Par ch=4 c=11 v=65
98912 Par ch=4 c=11 v=60
98916 Par ch=4 c=7 v=33
98924 Par ch=4 c=11 v=55
98932 Par ch=4 c=11 v=50
98936 Par ch=4 c=11 v=0
98968 Par ch=4 c=7 v=32
99020 Par ch=4 c=7 v=31
99068 Par ch=4 c=11 v=100
99072 On ch=4 n=67 v=0
99072 On ch=4 n=62 v=0
99072 On ch=4 n=57 v=0
99072 Par ch=4 c=7 v=30
99124 Par ch=4 c=7 v=29
99172 Par ch=4 c=7 v=28
99224 Par ch=4 c=7 v=27
99264 On ch=4 n=69 v=105
99264 On ch=4 n=65 v=105
99264 On ch=4 n=60 v=90
99276 Par ch=4 c=7 v=26
99328 Par ch=4 c=7 v=25
99376 Par ch=4 c=7 v=24
99428 Par ch=4 c=7 v=23
99480 Par ch=4 c=7 v=22
99532 Par ch=4 c=7 v=21
99552 On ch=4 n=69 v=0
99552 On ch=4 n=65 v=0
99552 On ch=4 n=60 v=0
99552 On ch=4 n=71 v=105
99552 On ch=4 n=67 v=105
99552 On ch=4 n=65 v=90
99584 Par ch=4 c=7 v=20
99632 Par ch=4 c=7 v=19
99680 On ch=4 n=71 v=0
99680 On ch=4 n=67 v=0
99680 On ch=4 n=65 v=0
99684 Par ch=4 c=7 v=18
99736 Par ch=4 c=7 v=17
99788 Par ch=4 c=7 v=16
99840 On ch=4 n=72 v=105
99840 On ch=4 n=67 v=105
99840 On ch=4 n=65 v=90
99844 Par ch=4 c=7 v=15
99888 Par ch=4 c=7 v=14
99940 Par ch=4 c=7 v=13
99992 Par ch=4 c=7 v=12
100044 Par ch=4 c=7 v=11
100096 Par ch=4 c=7 v=10
100128 On ch=4 n=72 v=0
100128 On ch=4 n=67 v=0
100128 On ch=4 n=65 v=0
100128 On ch=4 n=71 v=105
100128 On ch=4 n=67 v=105
100128 On ch=4 n=65 v=90
100144 Par ch=4 c=7 v=9
100196 Par ch=4 c=7 v=8
100224 On ch=4 n=65 v=0
100224 On ch=4 n=69 v=105
100224 On ch=4 n=65 v=95
100224 On ch=4 n=62 v=85
100248 Par ch=4 c=7 v=7
100300 Par ch=4 c=7 v=6
100312 On ch=4 n=69 v=0
100312 On ch=4 n=62 v=0
100320 On ch=4 n=67 v=0
100320 On ch=4 n=72 v=110
100320 On ch=4 n=67 v=100
100352 Par ch=4 c=7 v=5
100400 Par ch=4 c=7 v=4
100408 On ch=4 n=72 v=0
100416 On ch=4 n=65 v=0
100416 On ch=4 n=74 v=110
100416 On ch=4 n=69 v=100
100416 On ch=4 n=65 v=90
100452 Par ch=4 c=7 v=3
100504 On ch=4 n=74 v=0
100504 On ch=4 n=69 v=0
100504 On ch=4 n=65 v=0
100504 Par ch=4 c=7 v=2
100508 Pb ch=4 v=6692
100512 On ch=4 n=74 v=120
100512 On ch=4 n=69 v=110
100512 On ch=4 n=65 v=100
100516 Pb ch=4 v=6992
100520 Pb ch=4 v=7040
100528 Pb ch=4 v=7296
100536 Pb ch=4 v=7424
100544 Pb ch=4 v=7680
100552 Pb ch=4 v=7808
100556 Par ch=4 c=7 v=1
100564 Pb ch=4 v=7936
100580 Pb ch=4 v=8064
100600 Par ch=4 c=7 v=0
100604 Pb ch=4 v=8192
100608 On ch=4 n=71 v=0
100608 On ch=4 n=67 v=0
100612 On ch=4 n=74 v=0
100612 On ch=4 n=69 v=0
100612 On ch=4 n=65 v=0
100612 Meta TrkEnd
TrkEnd
MTrk
0 Meta TrkName "RHYTHM OF LOVE  "
192 Par ch=10 c=121 v=0
196 Par ch=10 c=7 v=124
200 Par ch=10 c=11 v=127
384 Par ch=10 c=0 v=0
388 Par ch=10 c=32 v=0
392 PrCh ch=10 p=16
396 Par ch=10 c=91 v=90
400 Par ch=10 c=127 v=0
12624 On ch=10 n=40 v=106
12628 On ch=10 n=40 v=0
12672 On ch=10 n=40 v=78
12676 On ch=10 n=40 v=0
13056 On ch=10 n=35 v=78
13056 On ch=10 n=46 v=61
13060 On ch=10 n=35 v=0
13060 On ch=10 n=46 v=0
13152 On ch=10 n=35 v=64
13152 On ch=10 n=46 v=47
13156 On ch=10 n=35 v=0
13156 On ch=10 n=46 v=0
13248 On ch=10 n=40 v=116
13248 On ch=10 n=46 v=61
13252 On ch=10 n=40 v=0
13252 On ch=10 n=46 v=0
13344 On ch=10 n=35 v=50
13344 On ch=10 n=46 v=47
13348 On ch=10 n=35 v=0
13348 On ch=10 n=46 v=0
13440 On ch=10 n=35 v=78
13440 On ch=10 n=46 v=61
13444 On ch=10 n=35 v=0
13444 On ch=10 n=46 v=0
13536 On ch=10 n=35 v=64
13536 On ch=10 n=46 v=47
13540 On ch=10 n=35 v=0
13540 On ch=10 n=46 v=0
13632 On ch=10 n=40 v=116
13632 On ch=10 n=46 v=61
13636 On ch=10 n=40 v=0
13636 On ch=10 n=46 v=0
13728 On ch=10 n=35 v=50
13728 On ch=10 n=46 v=47
13732 On ch=10 n=35 v=0
13732 On ch=10 n=46 v=0
13824 On ch=10 n=35 v=78
13824 On ch=10 n=46 v=61
13828 On ch=10 n=35 v=0
13828 On ch=10 n=46 v=0
13920 On ch=10 n=35 v=64
13920 On ch=10 n=46 v=47
13924 On ch=10 n=35 v=0
13924 On ch=10 n=46 v=0
14016 On ch=10 n=40 v=116
14016 On ch=10 n=46 v=61
14020 On ch=10 n=40 v=0
14020 On ch=10 n=46 v=0
14112 On ch=10 n=35 v=50
14112 On ch=10 n=46 v=47
14116 On ch=10 n=35 v=0
14116 On ch=10 n=46 v=0
14208 On ch=10 n=35 v=78
14208 On ch=10 n=46 v=61
14212 On ch=10 n=35 v=0
14212 On ch=10 n=46 v=0
14304 On ch=10 n=35 v=64
14304 On ch=10 n=46 v=47
14308 On ch=10 n=35 v=0
14308 On ch=10 n=46 v=0
14400 On ch=10 n=40 v=116
14400 On ch=10 n=46 v=61
14404 On ch=10 n=40 v=0
14404 On ch=10 n=46 v=0
14496 On ch=10 n=35 v=50
14496 On ch=10 n=46 v=47
14500 On ch=10 n=35 v=0
14500 On ch=10 n=46 v=0
14592 On ch=10 n=35 v=78
14592 On ch=10 n=46 v=61
14596 On ch=10 n=35 v=0
14596 On ch=10 n=46 v=0
14688 On ch=10 n=35 v=64
14688 On ch=10 n=46 v=47
14692 On ch=10 n=35 v=0
14692 On ch=10 n=46 v=0
14784 On ch=10 n=40 v=116
14784 On ch=10 n=46 v=61
14788 On ch=10 n=40 v=0
14788 On ch=10 n=46 v=0
14880 On ch=10 n=35 v=50
14880 On ch=10 n=46 v=47
14884 On ch=10 n=35 v=0
14884 On ch=10 n=46 v=0
14976 On ch=10 n=35 v=78
14976 On ch=10 n=46 v=61
14980 On ch=10 n=35 v=0
14980 On ch=10 n=46 v=0
15072 On ch=10 n=35 v=64
15072 On ch=10 n=46 v=47
15076 On ch=10 n=35 v=0
15076 On ch=10 n=46 v=0
15168 On ch=10 n=40 v=116
15168 On ch=10 n=46 v=61
15172 On ch=10 n=40 v=0
15172 On ch=10 n=46 v=0
15264 On ch=10 n=35 v=50
15264 On ch=10 n=46 v=47
15268 On ch=10 n=35 v=0
15268 On ch=10 n=46 v=0
15360 On ch=10 n=35 v=78
15360 On ch=10 n=46 v=61
15364 On ch=10 n=35 v=0
15364 On ch=10 n=46 v=0
15456 On ch=10 n=35 v=64
15456 On ch=10 n=46 v=47
15460 On ch=10 n=35 v=0
15460 On ch=10 n=46 v=0
15552 On ch=10 n=40 v=116
15552 On ch=10 n=46 v=61
15556 On ch=10 n=40 v=0
15556 On ch=10 n=46 v=0
15648 On ch=10 n=35 v=50
15648 On ch=10 n=46 v=47
15652 On ch=10 n=35 v=0
15652 On ch=10 n=46 v=0
15744 On ch=10 n=35 v=78
15744 On ch=10 n=46 v=61
15748 On ch=10 n=35 v=0
15748 On ch=10 n=46 v=0
15840 On ch=10 n=35 v=64
15840 On ch=10 n=46 v=47
15844 On ch=10 n=35 v=0
15844 On ch=10 n=46 v=0
15936 On ch=10 n=40 v=116
15936 On ch=10 n=46 v=61
15940 On ch=10 n=40 v=0
15940 On ch=10 n=46 v=0
16032 On ch=10 n=35 v=50
16032 On ch=10 n=46 v=47
16036 On ch=10 n=35 v=0
16036 On ch=10 n=46 v=0
16128 On ch=10 n=35 v=78
16128 On ch=10 n=46 v=61
16132 On ch=10 n=35 v=0
16132 On ch=10 n=46 v=0
16224 On ch=10 n=35 v=64
16224 On ch=10 n=46 v=47
16228 On ch=10 n=35 v=0
16228 On ch=10 n=46 v=0
16320 On ch=10 n=40 v=116
16320 On ch=10 n=46 v=61
16324 On ch=10 n=40 v=0
16324 On ch=10 n=46 v=0
16416 On ch=10 n=35 v=50
16416 On ch=10 n=46 v=47
16420 On ch=10 n=35 v=0
16420 On ch=10 n=46 v=0
16512 On ch=10 n=35 v=78
16512 On ch=10 n=46 v=61
16516 On ch=10 n=35 v=0
16516 On ch=10 n=46 v=0
16608 On ch=10 n=35 v=64
16608 On ch=10 n=46 v=47
16612 On ch=10 n=35 v=0
16612 On ch=10 n=46 v=0
16704 On ch=10 n=40 v=116
16704 On ch=10 n=46 v=61
16708 On ch=10 n=40 v=0
16708 On ch=10 n=46 v=0
16800 On ch=10 n=35 v=50
16800 On ch=10 n=46 v=47
16804 On ch=10 n=35 v=0
16804 On ch=10 n=46 v=0
16896 On ch=10 n=35 v=78
16896 On ch=10 n=46 v=61
16900 On ch=10 n=35 v=0
16900 On ch=10 n=46 v=0
16992 On ch=10 n=35 v=64
16992 On ch=10 n=46 v=47
16996 On ch=10 n=35 v=0
16996 On ch=10 n=46 v=0
17088 On ch=10 n=40 v=116
17088 On ch=10 n=46 v=61
17092 On ch=10 n=40 v=0
17092 On ch=10 n=46 v=0
17184 On ch=10 n=35 v=50
17184 On ch=10 n=46 v=47
17188 On ch=10 n=35 v=0
17188 On ch=10 n=46 v=0
17280 On ch=10 n=35 v=78
17280 On ch=10 n=46 v=61
17284 On ch=10 n=35 v=0
17284 On ch=10 n=46 v=0
17376 On ch=10 n=35 v=64
17376 On ch=10 n=46 v=47
17380 On ch=10 n=35 v=0
17380 On ch=10 n=46 v=0
17472 On ch=10 n=40 v=116
17472 On ch=10 n=46 v=61
17476 On ch=10 n=40 v=0
17476 On ch=10 n=46 v=0
17568 On ch=10 n=35 v=50
17568 On ch=10 n=46 v=47
17572 On ch=10 n=35 v=0
17572 On ch=10 n=46 v=0
17664 On ch=10 n=35 v=78
17664 On ch=10 n=46 v=61
17668 On ch=10 n=35 v=0
17668 On ch=10 n=46 v=0
17760 On ch=10 n=35 v=64
17760 On ch=10 n=46 v=47
17764 On ch=10 n=35 v=0
17764 On ch=10 n=46 v=0
17856 On ch=10 n=40 v=116
17856 On ch=10 n=46 v=61
17860 On ch=10 n=40 v=0
17860 On ch=10 n=46 v=0
17952 On ch=10 n=35 v=50
17952 On ch=10 n=46 v=47
17956 On ch=10 n=35 v=0
17956 On ch=10 n=46 v=0
18048 On ch=10 n=35 v=78
18048 On ch=10 n=46 v=61
18052 On ch=10 n=35 v=0
18052 On ch=10 n=46 v=0
18144 On ch=10 n=35 v=64
18144 On ch=10 n=46 v=47
18148 On ch=10 n=35 v=0
18148 On ch=10 n=46 v=0
18240 On ch=10 n=40 v=116
18240 On ch=10 n=46 v=61
18244 On ch=10 n=40 v=0
18244 On ch=10 n=46 v=0
18336 On ch=10 n=35 v=50
18336 On ch=10 n=46 v=47
18340 On ch=10 n=35 v=0
18340 On ch=10 n=46 v=0
18432 On ch=10 n=35 v=78
18432 On ch=10 n=46 v=61
18436 On ch=10 n=35 v=0
18436 On ch=10 n=46 v=0
18528 On ch=10 n=35 v=64
18528 On ch=10 n=46 v=47
18532 On ch=10 n=35 v=0
18532 On ch=10 n=46 v=0
18624 On ch=10 n=40 v=116
18624 On ch=10 n=46 v=61
18628 On ch=10 n=40 v=0
18628 On ch=10 n=46 v=0
18720 On ch=10 n=35 v=50
18720 On ch=10 n=46 v=47
18724 On ch=10 n=35 v=0
18724 On ch=10 n=46 v=0
18816 On ch=10 n=35 v=78
18816 On ch=10 n=46 v=61
18820 On ch=10 n=35 v=0
18820 On ch=10 n=46 v=0
18912 On ch=10 n=35 v=64
18912 On ch=10 n=46 v=47
18916 On ch=10 n=35 v=0
18916 On ch=10 n=46 v=0
19008 On ch=10 n=40 v=116
19008 On ch=10 n=46 v=61
19012 On ch=10 n=40 v=0
19012 On ch=10 n=46 v=0
19104 On ch=10 n=35 v=50
19104 On ch=10 n=46 v=47
19108 On ch=10 n=35 v=0
19108 On ch=10 n=46 v=0
19200 On ch=10 n=42 v=74
19200 On ch=10 n=35 v=78
19204 On ch=10 n=42 v=0
19204 On ch=10 n=35 v=0
19296 On ch=10 n=42 v=60
19296 On ch=10 n=35 v=64
19300 On ch=10 n=42 v=0
19300 On ch=10 n=35 v=0
19392 On ch=10 n=42 v=46
19392 On ch=10 n=40 v=116
19396 On ch=10 n=42 v=0
19396 On ch=10 n=40 v=0
19488 On ch=10 n=42 v=60
19488 On ch=10 n=35 v=50
19492 On ch=10 n=42 v=0
19492 On ch=10 n=35 v=0
19584 On ch=10 n=42 v=74
19584 On ch=10 n=35 v=78
19588 On ch=10 n=42 v=0
19588 On ch=10 n=35 v=0
19680 On ch=10 n=42 v=60
19680 On ch=10 n=35 v=64
19684 On ch=10 n=42 v=0
19684 On ch=10 n=35 v=0
19776 On ch=10 n=42 v=46
19776 On ch=10 n=40 v=116
19780 On ch=10 n=42 v=0
19780 On ch=10 n=40 v=0
19872 On ch=10 n=42 v=60
19872 On ch=10 n=35 v=50
19876 On ch=10 n=42 v=0
19876 On ch=10 n=35 v=0
19968 On ch=10 n=42 v=74
19968 On ch=10 n=35 v=78
19972 On ch=10 n=42 v=0
19972 On ch=10 n=35 v=0
20064 On ch=10 n=42 v=60
20064 On ch=10 n=35 v=64
20068 On ch=10 n=42 v=0
20068 On ch=10 n=35 v=0
20160 On ch=10 n=42 v=46
20160 On ch=10 n=40 v=116
20164 On ch=10 n=42 v=0
20164 On ch=10 n=40 v=0
20256 On ch=10 n=42 v=60
20256 On ch=10 n=35 v=50
20260 On ch=10 n=42 v=0
20260 On ch=10 n=35 v=0
20352 On ch=10 n=42 v=74
20352 On ch=10 n=35 v=78
20356 On ch=10 n=42 v=0
20356 On ch=10 n=35 v=0
20448 On ch=10 n=42 v=60
20448 On ch=10 n=35 v=64
20452 On ch=10 n=42 v=0
20452 On ch=10 n=35 v=0
20544 On ch=10 n=42 v=46
20544 On ch=10 n=40 v=116
20548 On ch=10 n=42 v=0
20548 On ch=10 n=40 v=0
20640 On ch=10 n=42 v=60
20640 On ch=10 n=35 v=50
20644 On ch=10 n=42 v=0
20644 On ch=10 n=35 v=0
20736 On ch=10 n=42 v=74
20736 On ch=10 n=35 v=78
20740 On ch=10 n=42 v=0
20740 On ch=10 n=35 v=0
20832 On ch=10 n=42 v=60
20832 On ch=10 n=35 v=64
20836 On ch=10 n=42 v=0
20836 On ch=10 n=35 v=0
20928 On ch=10 n=42 v=46
20928 On ch=10 n=40 v=116
20932 On ch=10 n=42 v=0
20932 On ch=10 n=40 v=0
21024 On ch=10 n=42 v=60
21024 On ch=10 n=35 v=50
21028 On ch=10 n=42 v=0
21028 On ch=10 n=35 v=0
21120 On ch=10 n=42 v=74
21120 On ch=10 n=35 v=78
21124 On ch=10 n=42 v=0
21124 On ch=10 n=35 v=0
21216 On ch=10 n=42 v=60
21216 On ch=10 n=35 v=64
21220 On ch=10 n=42 v=0
21220 On ch=10 n=35 v=0
21312 On ch=10 n=42 v=46
21312 On ch=10 n=40 v=116
21316 On ch=10 n=42 v=0
21316 On ch=10 n=40 v=0
21408 On ch=10 n=42 v=60
21408 On ch=10 n=35 v=50
21412 On ch=10 n=42 v=0
21412 On ch=10 n=35 v=0
21504 On ch=10 n=42 v=74
21504 On ch=10 n=35 v=78
21508 On ch=10 n=42 v=0
21508 On ch=10 n=35 v=0
21600 On ch=10 n=42 v=60
21600 On ch=10 n=35 v=64
21604 On ch=10 n=42 v=0
21604 On ch=10 n=35 v=0
21696 On ch=10 n=42 v=46
21696 On ch=10 n=40 v=116
21700 On ch=10 n=42 v=0
21700 On ch=10 n=40 v=0
21792 On ch=10 n=42 v=60
21792 On ch=10 n=35 v=50
21796 On ch=10 n=42 v=0
21796 On ch=10 n=35 v=0
21888 On ch=10 n=42 v=74
21888 On ch=10 n=35 v=78
21892 On ch=10 n=42 v=0
21892 On ch=10 n=35 v=0
21984 On ch=10 n=42 v=60
21984 On ch=10 n=35 v=64
21988 On ch=10 n=42 v=0
21988 On ch=10 n=35 v=0
22080 On ch=10 n=42 v=46
22080 On ch=10 n=40 v=116
22084 On ch=10 n=42 v=0
22084 On ch=10 n=40 v=0
22176 On ch=10 n=42 v=60
22176 On ch=10 n=35 v=50
22180 On ch=10 n=42 v=0
22180 On ch=10 n=35 v=0
22272 On ch=10 n=42 v=74
22272 On ch=10 n=35 v=78
22276 On ch=10 n=42 v=0
22276 On ch=10 n=35 v=0
22368 On ch=10 n=42 v=60
22368 On ch=10 n=35 v=64
22372 On ch=10 n=42 v=0
22372 On ch=10 n=35 v=0
22464 On ch=10 n=42 v=46
22464 On ch=10 n=40 v=116
22468 On ch=10 n=42 v=0
22468 On ch=10 n=40 v=0
22560 On ch=10 n=42 v=60
22560 On ch=10 n=35 v=50
22564 On ch=10 n=42 v=0
22564 On ch=10 n=35 v=0
22656 On ch=10 n=42 v=74
22656 On ch=10 n=35 v=78
22660 On ch=10 n=42 v=0
22660 On ch=10 n=35 v=0
22752 On ch=10 n=42 v=60
22752 On ch=10 n=35 v=64
22756 On ch=10 n=42 v=0
22756 On ch=10 n=35 v=0
22848 On ch=10 n=42 v=46
22848 On ch=10 n=40 v=116
22852 On ch=10 n=42 v=0
22852 On ch=10 n=40 v=0
22944 On ch=10 n=42 v=60
22944 On ch=10 n=35 v=50
22948 On ch=10 n=42 v=0
22948 On ch=10 n=35 v=0
23040 On ch=10 n=42 v=74
23040 On ch=10 n=35 v=78
23044 On ch=10 n=42 v=0
23044 On ch=10 n=35 v=0
23136 On ch=10 n=42 v=60
23136 On ch=10 n=35 v=64
23140 On ch=10 n=42 v=0
23140 On ch=10 n=35 v=0
23232 On ch=10 n=42 v=46
23232 On ch=10 n=40 v=116
23236 On ch=10 n=42 v=0
23236 On ch=10 n=40 v=0
23328 On ch=10 n=42 v=60
23328 On ch=10 n=35 v=50
23332 On ch=10 n=42 v=0
23332 On ch=10 n=35 v=0
23424 On ch=10 n=42 v=74
23424 On ch=10 n=35 v=78
23428 On ch=10 n=42 v=0
23428 On ch=10 n=35 v=0
23520 On ch=10 n=42 v=60
23520 On ch=10 n=35 v=64
23524 On ch=10 n=42 v=0
23524 On ch=10 n=35 v=0
23616 On ch=10 n=42 v=46
23616 On ch=10 n=40 v=116
23620 On ch=10 n=42 v=0
23620 On ch=10 n=40 v=0
23712 On ch=10 n=42 v=60
23712 On ch=10 n=35 v=50
23716 On ch=10 n=42 v=0
23716 On ch=10 n=35 v=0
23808 On ch=10 n=42 v=74
23808 On ch=10 n=35 v=78
23812 On ch=10 n=42 v=0
23812 On ch=10 n=35 v=0
23904 On ch=10 n=42 v=60
23904 On ch=10 n=35 v=64
23908 On ch=10 n=42 v=0
23908 On ch=10 n=35 v=0
24000 On ch=10 n=42 v=46
24000 On ch=10 n=40 v=116
24004 On ch=10 n=42 v=0
24004 On ch=10 n=40 v=0
24096 On ch=10 n=42 v=60
24096 On ch=10 n=35 v=50
24100 On ch=10 n=42 v=0
24100 On ch=10 n=35 v=0
24192 On ch=10 n=42 v=74
24192 On ch=10 n=35 v=78
24196 On ch=10 n=42 v=0
24196 On ch=10 n=35 v=0
24288 On ch=10 n=42 v=60
24288 On ch=10 n=35 v=64
24292 On ch=10 n=42 v=0
24292 On ch=10 n=35 v=0
24384 On ch=10 n=42 v=46
24384 On ch=10 n=40 v=116
24388 On ch=10 n=42 v=0
24388 On ch=10 n=40 v=0
24480 On ch=10 n=42 v=60
24480 On ch=10 n=35 v=50
24484 On ch=10 n=42 v=0
24484 On ch=10 n=35 v=0
24576 On ch=10 n=42 v=74
24576 On ch=10 n=35 v=78
24580 On ch=10 n=42 v=0
24580 On ch=10 n=35 v=0
24672 On ch=10 n=42 v=60
24672 On ch=10 n=35 v=64
24676 On ch=10 n=42 v=0
24676 On ch=10 n=35 v=0
24768 On ch=10 n=42 v=46
24768 On ch=10 n=40 v=116
24772 On ch=10 n=42 v=0
24772 On ch=10 n=40 v=0
24864 On ch=10 n=42 v=60
24864 On ch=10 n=35 v=50
24868 On ch=10 n=42 v=0
24868 On ch=10 n=35 v=0
24960 On ch=10 n=42 v=74
24960 On ch=10 n=35 v=78
24964 On ch=10 n=42 v=0
24964 On ch=10 n=35 v=0
25056 On ch=10 n=42 v=60
25056 On ch=10 n=35 v=64
25060 On ch=10 n=42 v=0
25060 On ch=10 n=35 v=0
25152 On ch=10 n=42 v=46
25152 On ch=10 n=40 v=116
25156 On ch=10 n=42 v=0
25156 On ch=10 n=40 v=0
25248 On ch=10 n=42 v=60
25248 On ch=10 n=35 v=50
25252 On ch=10 n=42 v=0
25252 On ch=10 n=35 v=0
25344 On ch=10 n=42 v=74
25344 On ch=10 n=35 v=78
25348 On ch=10 n=42 v=0
25348 On ch=10 n=35 v=0
25440 On ch=10 n=42 v=60
25440 On ch=10 n=35 v=64
25444 On ch=10 n=42 v=0
25444 On ch=10 n=35 v=0
25536 On ch=10 n=42 v=46
25536 On ch=10 n=40 v=116
25540 On ch=10 n=42 v=0
25540 On ch=10 n=40 v=0
25632 On ch=10 n=42 v=60
25632 On ch=10 n=35 v=50
25636 On ch=10 n=42 v=0
25636 On ch=10 n=35 v=0
25728 On ch=10 n=42 v=74
25728 On ch=10 n=35 v=78
25732 On ch=10 n=42 v=0
25732 On ch=10 n=35 v=0
25824 On ch=10 n=42 v=60
25824 On ch=10 n=35 v=64
25828 On ch=10 n=42 v=0
25828 On ch=10 n=35 v=0
25920 On ch=10 n=42 v=46
25920 On ch=10 n=40 v=116
25924 On ch=10 n=42 v=0
25924 On ch=10 n=40 v=0
26016 On ch=10 n=42 v=60
26016 On ch=10 n=35 v=50
26020 On ch=10 n=42 v=0
26020 On ch=10 n=35 v=0
26112 On ch=10 n=42 v=74
26112 On ch=10 n=35 v=78
26116 On ch=10 n=42 v=0
26116 On ch=10 n=35 v=0
26208 On ch=10 n=42 v=60
26208 On ch=10 n=35 v=64
26212 On ch=10 n=42 v=0
26212 On ch=10 n=35 v=0
26304 On ch=10 n=42 v=46
26304 On ch=10 n=40 v=116
26308 On ch=10 n=42 v=0
26308 On ch=10 n=40 v=0
26400 On ch=10 n=42 v=60
26400 On ch=10 n=35 v=50
26404 On ch=10 n=42 v=0
26404 On ch=10 n=35 v=0
26496 On ch=10 n=42 v=74
26496 On ch=10 n=35 v=78
26500 On ch=10 n=42 v=0
26500 On ch=10 n=35 v=0
26592 On ch=10 n=42 v=60
26592 On ch=10 n=35 v=64
26596 On ch=10 n=42 v=0
26596 On ch=10 n=35 v=0
26688 On ch=10 n=42 v=46
26688 On ch=10 n=40 v=116
26692 On ch=10 n=42 v=0
26692 On ch=10 n=40 v=0
26784 On ch=10 n=42 v=60
26784 On ch=10 n=35 v=50
26788 On ch=10 n=42 v=0
26788 On ch=10 n=35 v=0
26880 On ch=10 n=42 v=74
26880 On ch=10 n=35 v=78
26884 On ch=10 n=42 v=0
26884 On ch=10 n=35 v=0
26976 On ch=10 n=42 v=60
26976 On ch=10 n=35 v=64
26980 On ch=10 n=42 v=0
26980 On ch=10 n=35 v=0
27072 On ch=10 n=42 v=46
27072 On ch=10 n=40 v=116
27076 On ch=10 n=42 v=0
27076 On ch=10 n=40 v=0
27168 On ch=10 n=42 v=60
27168 On ch=10 n=35 v=50
27172 On ch=10 n=42 v=0
27172 On ch=10 n=35 v=0
27264 On ch=10 n=42 v=74
27264 On ch=10 n=35 v=78
27268 On ch=10 n=42 v=0
27268 On ch=10 n=35 v=0
27360 On ch=10 n=42 v=60
27360 On ch=10 n=35 v=64
27364 On ch=10 n=42 v=0
27364 On ch=10 n=35 v=0
27456 On ch=10 n=42 v=46
27456 On ch=10 n=40 v=116
27460 On ch=10 n=42 v=0
27460 On ch=10 n=40 v=0
27552 On ch=10 n=42 v=60
27552 On ch=10 n=35 v=50
27556 On ch=10 n=42 v=0
27556 On ch=10 n=35 v=0
27648 On ch=10 n=42 v=74
27648 On ch=10 n=35 v=78
27652 On ch=10 n=42 v=0
27652 On ch=10 n=35 v=0
27744 On ch=10 n=42 v=60
27744 On ch=10 n=35 v=64
27748 On ch=10 n=42 v=0
27748 On ch=10 n=35 v=0
27840 On ch=10 n=42 v=46
27840 On ch=10 n=40 v=116
27844 On ch=10 n=42 v=0
27844 On ch=10 n=40 v=0
27936 On ch=10 n=42 v=60
27936 On ch=10 n=35 v=50
27940 On ch=10 n=42 v=0
27940 On ch=10 n=35 v=0
28032 On ch=10 n=42 v=74
28032 On ch=10 n=35 v=78
28036 On ch=10 n=42 v=0
28036 On ch=10 n=35 v=0
28128 On ch=10 n=42 v=60
28128 On ch=10 n=35 v=64
28132 On ch=10 n=42 v=0
28132 On ch=10 n=35 v=0
28224 On ch=10 n=42 v=46
28224 On ch=10 n=40 v=116
28228 On ch=10 n=42 v=0
28228 On ch=10 n=40 v=0
28320 On ch=10 n=42 v=60
28320 On ch=10 n=35 v=50
28324 On ch=10 n=42 v=0
28324 On ch=10 n=35 v=0
28416 On ch=10 n=42 v=74
28416 On ch=10 n=35 v=78
28420 On ch=10 n=42 v=0
28420 On ch=10 n=35 v=0
28512 On ch=10 n=42 v=60
28512 On ch=10 n=35 v=64
28516 On ch=10 n=42 v=0
28516 On ch=10 n=35 v=0
28608 On ch=10 n=42 v=46
28608 On ch=10 n=40 v=116
28612 On ch=10 n=42 v=0
28612 On ch=10 n=40 v=0
28704 On ch=10 n=42 v=60
28704 On ch=10 n=35 v=50
28708 On ch=10 n=42 v=0
28708 On ch=10 n=35 v=0
28800 On ch=10 n=42 v=74
28800 On ch=10 n=35 v=78
28804 On ch=10 n=42 v=0
28804 On ch=10 n=35 v=0
28896 On ch=10 n=42 v=60
28896 On ch=10 n=35 v=64
28900 On ch=10 n=42 v=0
28900 On ch=10 n=35 v=0
28992 On ch=10 n=42 v=46
28992 On ch=10 n=40 v=116
28996 On ch=10 n=42 v=0
28996 On ch=10 n=40 v=0
29088 On ch=10 n=42 v=60
29088 On ch=10 n=35 v=50
29092 On ch=10 n=42 v=0
29092 On ch=10 n=35 v=0
29184 On ch=10 n=42 v=74
29184 On ch=10 n=35 v=78
29188 On ch=10 n=42 v=0
29188 On ch=10 n=35 v=0
29280 On ch=10 n=42 v=60
29280 On ch=10 n=35 v=64
29284 On ch=10 n=42 v=0
29284 On ch=10 n=35 v=0
29376 On ch=10 n=42 v=46
29376 On ch=10 n=40 v=116
29380 On ch=10 n=42 v=0
29380 On ch=10 n=40 v=0
29472 On ch=10 n=42 v=60
29472 On ch=10 n=35 v=50
29476 On ch=10 n=42 v=0
29476 On ch=10 n=35 v=0
29568 On ch=10 n=42 v=74
29568 On ch=10 n=35 v=78
29572 On ch=10 n=42 v=0
29572 On ch=10 n=35 v=0
29664 On ch=10 n=42 v=60
29664 On ch=10 n=35 v=64
29668 On ch=10 n=42 v=0
29668 On ch=10 n=35 v=0
29760 On ch=10 n=42 v=46
29760 On ch=10 n=40 v=116
29764 On ch=10 n=42 v=0
29764 On ch=10 n=40 v=0
29856 On ch=10 n=42 v=60
29856 On ch=10 n=35 v=50
29860 On ch=10 n=42 v=0
29860 On ch=10 n=35 v=0
29952 On ch=10 n=42 v=74
29952 On ch=10 n=35 v=78
29956 On ch=10 n=42 v=0
29956 On ch=10 n=35 v=0
30048 On ch=10 n=42 v=60
30048 On ch=10 n=35 v=64
30052 On ch=10 n=42 v=0
30052 On ch=10 n=35 v=0
30144 On ch=10 n=42 v=46
30144 On ch=10 n=40 v=116
30148 On ch=10 n=42 v=0
30148 On ch=10 n=40 v=0
30240 On ch=10 n=42 v=60
30240 On ch=10 n=35 v=50
30244 On ch=10 n=42 v=0
30244 On ch=10 n=35 v=0
30336 On ch=10 n=42 v=74
30336 On ch=10 n=35 v=78
30340 On ch=10 n=42 v=0
30340 On ch=10 n=35 v=0
30432 On ch=10 n=42 v=60
30432 On ch=10 n=35 v=64
30436 On ch=10 n=42 v=0
30436 On ch=10 n=35 v=0
30528 On ch=10 n=42 v=46
30532 On ch=10 n=42 v=0
30624 On ch=10 n=42 v=60
30624 On ch=10 n=40 v=127
30628 On ch=10 n=42 v=0
30628 On ch=10 n=40 v=0
30720 On ch=10 n=42 v=74
30724 On ch=10 n=42 v=0
30816 On ch=10 n=42 v=60
30816 On ch=10 n=35 v=64
30820 On ch=10 n=42 v=0
30820 On ch=10 n=35 v=0
30912 On ch=10 n=42 v=46
30912 On ch=10 n=40 v=110
30916 On ch=10 n=42 v=0
30916 On ch=10 n=40 v=0
31008 On ch=10 n=42 v=60
31012 On ch=10 n=42 v=0
31104 On ch=10 n=42 v=74
31104 On ch=10 n=35 v=78
31108 On ch=10 n=42 v=0
31108 On ch=10 n=35 v=0
31200 On ch=10 n=42 v=60
31200 On ch=10 n=35 v=64
31204 On ch=10 n=42 v=0
31204 On ch=10 n=35 v=0
31296 On ch=10 n=42 v=46
31296 On ch=10 n=40 v=116
31300 On ch=10 n=42 v=0
31300 On ch=10 n=40 v=0
31392 On ch=10 n=42 v=60
31396 On ch=10 n=42 v=0
31488 On ch=10 n=49 v=64
31492 On ch=10 n=49 v=0
32064 On ch=10 n=51 v=50
32068 On ch=10 n=51 v=0
32256 On ch=10 n=51 v=35
32260 On ch=10 n=51 v=0
32448 On ch=10 n=51 v=45
32452 On ch=10 n=51 v=0
32640 On ch=10 n=51 v=55
32644 On ch=10 n=51 v=0
32832 On ch=10 n=51 v=45
32836 On ch=10 n=51 v=0
33024 On ch=10 n=51 v=35
33028 On ch=10 n=51 v=0
33216 On ch=10 n=51 v=35
33220 On ch=10 n=51 v=0
33264 On ch=10 n=51 v=30
33268 On ch=10 n=51 v=0
33408 On ch=10 n=51 v=50
33412 On ch=10 n=51 v=0
33600 On ch=10 n=51 v=45
33604 On ch=10 n=51 v=0
33792 On ch=10 n=51 v=36
33796 On ch=10 n=51 v=0
33984 On ch=10 n=51 v=36
33988 On ch=10 n=51 v=0
34176 On ch=10 n=51 v=50
34180 On ch=10 n=51 v=0
34272 On ch=10 n=51 v=36
34276 On ch=10 n=51 v=0
34368 On ch=10 n=51 v=50
34372 On ch=10 n=51 v=0
34464 On ch=10 n=51 v=36
34468 On ch=10 n=51 v=0
34560 On ch=10 n=51 v=36
34564 On ch=10 n=51 v=0
34752 On ch=10 n=51 v=50
34756 On ch=10 n=51 v=0
34848 On ch=10 n=51 v=36
34852 On ch=10 n=51 v=0
34944 On ch=10 n=51 v=36
34948 On ch=10 n=51 v=0
35136 On ch=10 n=51 v=36
35140 On ch=10 n=51 v=0
35232 On ch=10 n=51 v=22
35236 On ch=10 n=51 v=0
35328 On ch=10 n=51 v=36
35332 On ch=10 n=51 v=0
35520 On ch=10 n=51 v=50
35524 On ch=10 n=51 v=0
35616 On ch=10 n=51 v=36
35620 On ch=10 n=51 v=0
35712 On ch=10 n=51 v=50
35716 On ch=10 n=51 v=0
35808 On ch=10 n=51 v=36
35812 On ch=10 n=51 v=0
35904 On ch=10 n=51 v=50
35908 On ch=10 n=51 v=0
36000 On ch=10 n=51 v=36
36004 On ch=10 n=51 v=0
36096 On ch=10 n=51 v=36
36100 On ch=10 n=51 v=0
36288 On ch=10 n=51 v=50
36292 On ch=10 n=51 v=0
36384 On ch=10 n=51 v=36
36388 On ch=10 n=51 v=0
36480 On ch=10 n=51 v=36
36484 On ch=10 n=51 v=0
36672 On ch=10 n=51 v=50
36676 On ch=10 n=51 v=0
36768 On ch=10 n=51 v=36
36772 On ch=10 n=51 v=0
36864 On ch=10 n=51 v=45
36868 On ch=10 n=51 v=0
36960 On ch=10 n=51 v=55
36964 On ch=10 n=51 v=0
37056 On ch=10 n=51 v=50
37060 On ch=10 n=51 v=0
37152 On ch=10 n=51 v=60
37156 On ch=10 n=51 v=0
37248 On ch=10 n=51 v=55
37252 On ch=10 n=51 v=0
37344 On ch=10 n=51 v=65
37348 On ch=10 n=51 v=0
37440 On ch=10 n=51 v=60
37444 On ch=10 n=51 v=0
37536 On ch=10 n=51 v=70
37540 On ch=10 n=51 v=0
37632 On ch=10 n=51 v=70
37636 On ch=10 n=51 v=0
38400 On ch=10 n=35 v=78
38400 On ch=10 n=46 v=61
38400 On ch=10 n=49 v=64
38404 On ch=10 n=35 v=0
38404 On ch=10 n=46 v=0
38404 On ch=10 n=49 v=0
38592 On ch=10 n=40 v=116
38592 On ch=10 n=46 v=61
38596 On ch=10 n=40 v=0
38596 On ch=10 n=46 v=0
38688 On ch=10 n=35 v=50
38688 On ch=10 n=46 v=47
38692 On ch=10 n=35 v=0
38692 On ch=10 n=46 v=0
38784 On ch=10 n=35 v=78
38784 On ch=10 n=46 v=61
38788 On ch=10 n=35 v=0
38788 On ch=10 n=46 v=0
38880 On ch=10 n=46 v=47
38884 On ch=10 n=46 v=0
38976 On ch=10 n=40 v=116
38976 On ch=10 n=46 v=61
38980 On ch=10 n=40 v=0
38980 On ch=10 n=46 v=0
39072 On ch=10 n=35 v=50
39076 On ch=10 n=35 v=0
39168 On ch=10 n=35 v=78
39168 On ch=10 n=46 v=61
39172 On ch=10 n=35 v=0
39172 On ch=10 n=46 v=0
39264 On ch=10 n=46 v=47
39268 On ch=10 n=46 v=0
39360 On ch=10 n=40 v=116
39360 On ch=10 n=46 v=61
39364 On ch=10 n=40 v=0
39364 On ch=10 n=46 v=0
39456 On ch=10 n=35 v=50
39460 On ch=10 n=35 v=0
39552 On ch=10 n=35 v=78
39552 On ch=10 n=46 v=61
39556 On ch=10 n=35 v=0
39556 On ch=10 n=46 v=0
39648 On ch=10 n=35 v=64
39648 On ch=10 n=46 v=47
39652 On ch=10 n=35 v=0
39652 On ch=10 n=46 v=0
39744 On ch=10 n=40 v=116
39744 On ch=10 n=46 v=61
39748 On ch=10 n=40 v=0
39748 On ch=10 n=46 v=0
39840 On ch=10 n=35 v=50
39840 On ch=10 n=46 v=47
39844 On ch=10 n=35 v=0
39844 On ch=10 n=46 v=0
39936 On ch=10 n=35 v=78
39936 On ch=10 n=46 v=61
39940 On ch=10 n=35 v=0
39940 On ch=10 n=46 v=0
40032 On ch=10 n=46 v=47
40036 On ch=10 n=46 v=0
40128 On ch=10 n=40 v=116
40128 On ch=10 n=46 v=61
40132 On ch=10 n=40 v=0
40132 On ch=10 n=46 v=0
40224 On ch=10 n=35 v=50
40228 On ch=10 n=35 v=0
40320 On ch=10 n=35 v=78
40320 On ch=10 n=46 v=61
40324 On ch=10 n=35 v=0
40324 On ch=10 n=46 v=0
40416 On ch=10 n=46 v=47
40420 On ch=10 n=46 v=0
40512 On ch=10 n=40 v=116
40512 On ch=10 n=46 v=61
40516 On ch=10 n=40 v=0
40516 On ch=10 n=46 v=0
40608 On ch=10 n=46 v=47
40612 On ch=10 n=46 v=0
40704 On ch=10 n=35 v=78
40704 On ch=10 n=46 v=61
40708 On ch=10 n=35 v=0
40708 On ch=10 n=46 v=0
40800 On ch=10 n=46 v=47
40804 On ch=10 n=46 v=0
40896 On ch=10 n=40 v=116
40896 On ch=10 n=46 v=61
40900 On ch=10 n=40 v=0
40900 On ch=10 n=46 v=0
41088 On ch=10 n=35 v=78
41088 On ch=10 n=46 v=61
41092 On ch=10 n=35 v=0
41092 On ch=10 n=46 v=0
41184 On ch=10 n=35 v=64
41184 On ch=10 n=46 v=47
41188 On ch=10 n=35 v=0
41188 On ch=10 n=46 v=0
41280 On ch=10 n=40 v=116
41280 On ch=10 n=46 v=61
41284 On ch=10 n=40 v=0
41284 On ch=10 n=46 v=0
41376 On ch=10 n=35 v=50
41376 On ch=10 n=46 v=47
41380 On ch=10 n=35 v=0
41380 On ch=10 n=46 v=0
41472 On ch=10 n=35 v=78
41472 On ch=10 n=46 v=61
41476 On ch=10 n=35 v=0
41476 On ch=10 n=46 v=0
41568 On ch=10 n=35 v=64
41568 On ch=10 n=46 v=47
41572 On ch=10 n=35 v=0
41572 On ch=10 n=46 v=0
41664 On ch=10 n=40 v=116
41664 On ch=10 n=46 v=61
41668 On ch=10 n=40 v=0
41668 On ch=10 n=46 v=0
41760 On ch=10 n=35 v=50
41760 On ch=10 n=46 v=33
41764 On ch=10 n=35 v=0
41764 On ch=10 n=46 v=0
41856 On ch=10 n=35 v=78
41856 On ch=10 n=46 v=61
41860 On ch=10 n=35 v=0
41860 On ch=10 n=46 v=0
41952 On ch=10 n=46 v=47
41956 On ch=10 n=46 v=0
42048 On ch=10 n=40 v=116
42048 On ch=10 n=46 v=61
42052 On ch=10 n=40 v=0
42052 On ch=10 n=46 v=0
42144 On ch=10 n=35 v=50
42144 On ch=10 n=46 v=47
42148 On ch=10 n=35 v=0
42148 On ch=10 n=46 v=0
42240 On ch=10 n=35 v=78
42240 On ch=10 n=46 v=61
42244 On ch=10 n=35 v=0
42244 On ch=10 n=46 v=0
42336 On ch=10 n=46 v=47
42340 On ch=10 n=46 v=0
42432 On ch=10 n=40 v=116
42432 On ch=10 n=46 v=61
42436 On ch=10 n=40 v=0
42436 On ch=10 n=46 v=0
42528 On ch=10 n=35 v=50
42528 On ch=10 n=46 v=33
42532 On ch=10 n=35 v=0
42532 On ch=10 n=46 v=0
42624 On ch=10 n=35 v=78
42624 On ch=10 n=46 v=61
42628 On ch=10 n=35 v=0
42628 On ch=10 n=46 v=0
42720 On ch=10 n=35 v=64
42720 On ch=10 n=46 v=47
42724 On ch=10 n=35 v=0
42724 On ch=10 n=46 v=0
42816 On ch=10 n=40 v=116
42816 On ch=10 n=46 v=61
42820 On ch=10 n=40 v=0
42820 On ch=10 n=46 v=0
42912 On ch=10 n=35 v=40
42912 On ch=10 n=44 v=50
42916 On ch=10 n=35 v=0
42916 On ch=10 n=44 v=0
43008 On ch=10 n=35 v=78
43008 On ch=10 n=44 v=50
43012 On ch=10 n=35 v=0
43012 On ch=10 n=44 v=0
43104 On ch=10 n=35 v=64
43104 On ch=10 n=44 v=64
43108 On ch=10 n=35 v=0
43108 On ch=10 n=44 v=0
43200 On ch=10 n=40 v=116
43200 On ch=10 n=44 v=78
43204 On ch=10 n=40 v=0
43204 On ch=10 n=44 v=0
43296 On ch=10 n=35 v=50
43296 On ch=10 n=44 v=50
43300 On ch=10 n=35 v=0
43300 On ch=10 n=44 v=0
43392 On ch=10 n=35 v=78
43392 On ch=10 n=44 v=78
43396 On ch=10 n=35 v=0
43396 On ch=10 n=44 v=0
43488 On ch=10 n=35 v=64
43488 On ch=10 n=44 v=50
43492 On ch=10 n=35 v=0
43492 On ch=10 n=44 v=0
43584 On ch=10 n=40 v=116
43584 On ch=10 n=44 v=64
43588 On ch=10 n=40 v=0
43588 On ch=10 n=44 v=0
43680 On ch=10 n=35 v=40
43680 On ch=10 n=44 v=50
43684 On ch=10 n=35 v=0
43684 On ch=10 n=44 v=0
43776 On ch=10 n=35 v=78
43776 On ch=10 n=44 v=78
43780 On ch=10 n=35 v=0
43780 On ch=10 n=44 v=0
43872 On ch=10 n=35 v=64
43872 On ch=10 n=44 v=50
43876 On ch=10 n=35 v=0
43876 On ch=10 n=44 v=0
43968 On ch=10 n=40 v=116
43972 On ch=10 n=40 v=0
44016 On ch=10 n=46 v=19
44020 On ch=10 n=46 v=0
44040 On ch=10 n=46 v=33
44044 On ch=10 n=46 v=0
44064 On ch=10 n=35 v=50
44064 On ch=10 n=46 v=47
44068 On ch=10 n=35 v=0
44068 On ch=10 n=46 v=0
44088 On ch=10 n=46 v=61
44092 On ch=10 n=46 v=0
44112 On ch=10 n=46 v=75
44116 On ch=10 n=46 v=0
44136 On ch=10 n=46 v=89
44140 On ch=10 n=46 v=0
44160 On ch=10 n=44 v=78
44160 On ch=10 n=46 v=103
44160 On ch=10 n=49 v=8
44164 On ch=10 n=44 v=0
44164 On ch=10 n=46 v=0
44164 On ch=10 n=49 v=0
44184 On ch=10 n=46 v=117
44184 On ch=10 n=49 v=36
44188 On ch=10 n=46 v=0
44188 On ch=10 n=49 v=0
44208 On ch=10 n=46 v=117
44208 On ch=10 n=49 v=64
44212 On ch=10 n=46 v=0
44212 On ch=10 n=49 v=0
44232 On ch=10 n=46 v=117
44232 On ch=10 n=49 v=92
44236 On ch=10 n=46 v=0
44236 On ch=10 n=49 v=0
44256 On ch=10 n=35 v=64
44256 On ch=10 n=44 v=50
44256 On ch=10 n=46 v=117
44256 On ch=10 n=49 v=120
44260 On ch=10 n=35 v=0
44260 On ch=10 n=44 v=0
44260 On ch=10 n=46 v=0
44260 On ch=10 n=49 v=0
44352 On ch=10 n=40 v=102
44356 On ch=10 n=40 v=0
44400 On ch=10 n=40 v=60
44404 On ch=10 n=40 v=0
44448 On ch=10 n=35 v=70
44448 On ch=10 n=40 v=88
44452 On ch=10 n=35 v=0
44452 On ch=10 n=40 v=0
44496 On ch=10 n=40 v=102
44500 On ch=10 n=40 v=0
44544 On ch=10 n=42 v=74
44544 On ch=10 n=35 v=78
44548 On ch=10 n=42 v=0
44548 On ch=10 n=35 v=0
44640 On ch=10 n=42 v=60
44640 On ch=10 n=35 v=64
44644 On ch=10 n=42 v=0
44644 On ch=10 n=35 v=0
44736 On ch=10 n=42 v=46
44736 On ch=10 n=40 v=116
44740 On ch=10 n=42 v=0
44740 On ch=10 n=40 v=0
44832 On ch=10 n=42 v=60
44832 On ch=10 n=35 v=50
44836 On ch=10 n=42 v=0
44836 On ch=10 n=35 v=0
44928 On ch=10 n=42 v=74
44928 On ch=10 n=35 v=78
44932 On ch=10 n=42 v=0
44932 On ch=10 n=35 v=0
45024 On ch=10 n=42 v=60
45024 On ch=10 n=35 v=64
45028 On ch=10 n=42 v=0
45028 On ch=10 n=35 v=0
45120 On ch=10 n=42 v=46
45120 On ch=10 n=40 v=116
45124 On ch=10 n=42 v=0
45124 On ch=10 n=40 v=0
45216 On ch=10 n=42 v=60
45216 On ch=10 n=35 v=50
45220 On ch=10 n=42 v=0
45220 On ch=10 n=35 v=0
45312 On ch=10 n=42 v=74
45312 On ch=10 n=35 v=78
45316 On ch=10 n=42 v=0
45316 On ch=10 n=35 v=0
45408 On ch=10 n=42 v=60
45408 On ch=10 n=35 v=64
45412 On ch=10 n=42 v=0
45412 On ch=10 n=35 v=0
45504 On ch=10 n=42 v=46
45504 On ch=10 n=40 v=116
45508 On ch=10 n=42 v=0
45508 On ch=10 n=40 v=0
45600 On ch=10 n=42 v=60
45600 On ch=10 n=35 v=50
45604 On ch=10 n=42 v=0
45604 On ch=10 n=35 v=0
45696 On ch=10 n=42 v=74
45696 On ch=10 n=35 v=78
45700 On ch=10 n=42 v=0
45700 On ch=10 n=35 v=0
45792 On ch=10 n=42 v=60
45792 On ch=10 n=35 v=64
45796 On ch=10 n=42 v=0
45796 On ch=10 n=35 v=0
45888 On ch=10 n=42 v=46
45888 On ch=10 n=40 v=116
45892 On ch=10 n=42 v=0
45892 On ch=10 n=40 v=0
45984 On ch=10 n=42 v=60
45984 On ch=10 n=35 v=50
45988 On ch=10 n=42 v=0
45988 On ch=10 n=35 v=0
46080 On ch=10 n=42 v=74
46080 On ch=10 n=35 v=78
46084 On ch=10 n=42 v=0
46084 On ch=10 n=35 v=0
46176 On ch=10 n=42 v=60
46176 On ch=10 n=35 v=64
46180 On ch=10 n=42 v=0
46180 On ch=10 n=35 v=0
46272 On ch=10 n=42 v=46
46272 On ch=10 n=40 v=116
46276 On ch=10 n=42 v=0
46276 On ch=10 n=40 v=0
46368 On ch=10 n=42 v=60
46368 On ch=10 n=35 v=50
46372 On ch=10 n=42 v=0
46372 On ch=10 n=35 v=0
46464 On ch=10 n=42 v=74
46464 On ch=10 n=35 v=78
46468 On ch=10 n=42 v=0
46468 On ch=10 n=35 v=0
46560 On ch=10 n=42 v=60
46560 On ch=10 n=35 v=64
46564 On ch=10 n=42 v=0
46564 On ch=10 n=35 v=0
46656 On ch=10 n=42 v=46
46656 On ch=10 n=40 v=116
46660 On ch=10 n=42 v=0
46660 On ch=10 n=40 v=0
46752 On ch=10 n=42 v=60
46752 On ch=10 n=35 v=50
46756 On ch=10 n=42 v=0
46756 On ch=10 n=35 v=0
46848 On ch=10 n=42 v=74
46848 On ch=10 n=35 v=78
46852 On ch=10 n=42 v=0
46852 On ch=10 n=35 v=0
46944 On ch=10 n=42 v=60
46944 On ch=10 n=35 v=64
46948 On ch=10 n=42 v=0
46948 On ch=10 n=35 v=0
47040 On ch=10 n=42 v=46
47040 On ch=10 n=40 v=116
47044 On ch=10 n=42 v=0
47044 On ch=10 n=40 v=0
47136 On ch=10 n=42 v=60
47136 On ch=10 n=35 v=50
47140 On ch=10 n=42 v=0
47140 On ch=10 n=35 v=0
47232 On ch=10 n=42 v=74
47232 On ch=10 n=35 v=78
47236 On ch=10 n=42 v=0
47236 On ch=10 n=35 v=0
47328 On ch=10 n=42 v=60
47328 On ch=10 n=35 v=64
47332 On ch=10 n=42 v=0
47332 On ch=10 n=35 v=0
47424 On ch=10 n=42 v=46
47424 On ch=10 n=40 v=116
47428 On ch=10 n=42 v=0
47428 On ch=10 n=40 v=0
47520 On ch=10 n=42 v=60
47520 On ch=10 n=35 v=50
47524 On ch=10 n=42 v=0
47524 On ch=10 n=35 v=0
47616 On ch=10 n=42 v=74
47616 On ch=10 n=35 v=78
47620 On ch=10 n=42 v=0
47620 On ch=10 n=35 v=0
47712 On ch=10 n=42 v=60
47712 On ch=10 n=35 v=64
47716 On ch=10 n=42 v=0
47716 On ch=10 n=35 v=0
47808 On ch=10 n=42 v=46
47808 On ch=10 n=40 v=116
47812 On ch=10 n=42 v=0
47812 On ch=10 n=40 v=0
47904 On ch=10 n=42 v=60
47904 On ch=10 n=35 v=50
47908 On ch=10 n=42 v=0
47908 On ch=10 n=35 v=0
48000 On ch=10 n=42 v=74
48000 On ch=10 n=35 v=78
48004 On ch=10 n=42 v=0
48004 On ch=10 n=35 v=0
48096 On ch=10 n=42 v=60
48096 On ch=10 n=35 v=64
48100 On ch=10 n=42 v=0
48100 On ch=10 n=35 v=0
48192 On ch=10 n=42 v=46
48192 On ch=10 n=40 v=116
48196 On ch=10 n=42 v=0
48196 On ch=10 n=40 v=0
48288 On ch=10 n=42 v=60
48288 On ch=10 n=35 v=50
48292 On ch=10 n=42 v=0
48292 On ch=10 n=35 v=0
48384 On ch=10 n=42 v=74
48384 On ch=10 n=35 v=78
48388 On ch=10 n=42 v=0
48388 On ch=10 n=35 v=0
48480 On ch=10 n=42 v=60
48480 On ch=10 n=35 v=64
48484 On ch=10 n=42 v=0
48484 On ch=10 n=35 v=0
48576 On ch=10 n=42 v=46
48576 On ch=10 n=40 v=116
48580 On ch=10 n=42 v=0
48580 On ch=10 n=40 v=0
48672 On ch=10 n=42 v=60
48672 On ch=10 n=35 v=50
48676 On ch=10 n=42 v=0
48676 On ch=10 n=35 v=0
48768 On ch=10 n=42 v=74
48768 On ch=10 n=35 v=78
48772 On ch=10 n=42 v=0
48772 On ch=10 n=35 v=0
48864 On ch=10 n=42 v=60
48864 On ch=10 n=35 v=64
48868 On ch=10 n=42 v=0
48868 On ch=10 n=35 v=0
48960 On ch=10 n=42 v=46
48960 On ch=10 n=40 v=116
48964 On ch=10 n=42 v=0
48964 On ch=10 n=40 v=0
49056 On ch=10 n=42 v=60
49056 On ch=10 n=35 v=50
49060 On ch=10 n=42 v=0
49060 On ch=10 n=35 v=0
49152 On ch=10 n=42 v=74
49152 On ch=10 n=35 v=78
49156 On ch=10 n=42 v=0
49156 On ch=10 n=35 v=0
49248 On ch=10 n=42 v=60
49248 On ch=10 n=35 v=64
49252 On ch=10 n=42 v=0
49252 On ch=10 n=35 v=0
49344 On ch=10 n=42 v=46
49344 On ch=10 n=40 v=116
49348 On ch=10 n=42 v=0
49348 On ch=10 n=40 v=0
49440 On ch=10 n=42 v=60
49440 On ch=10 n=35 v=50
49444 On ch=10 n=42 v=0
49444 On ch=10 n=35 v=0
49536 On ch=10 n=42 v=74
49536 On ch=10 n=35 v=78
49540 On ch=10 n=42 v=0
49540 On ch=10 n=35 v=0
49632 On ch=10 n=42 v=60
49632 On ch=10 n=35 v=64
49636 On ch=10 n=42 v=0
49636 On ch=10 n=35 v=0
49728 On ch=10 n=42 v=46
49728 On ch=10 n=40 v=116
49732 On ch=10 n=42 v=0
49732 On ch=10 n=40 v=0
49824 On ch=10 n=42 v=60
49824 On ch=10 n=35 v=50
49828 On ch=10 n=42 v=0
49828 On ch=10 n=35 v=0
49920 On ch=10 n=42 v=74
49920 On ch=10 n=35 v=78
49924 On ch=10 n=42 v=0
49924 On ch=10 n=35 v=0
50016 On ch=10 n=42 v=60
50016 On ch=10 n=35 v=64
50020 On ch=10 n=42 v=0
50020 On ch=10 n=35 v=0
50112 On ch=10 n=42 v=46
50112 On ch=10 n=40 v=116
50116 On ch=10 n=42 v=0
50116 On ch=10 n=40 v=0
50208 On ch=10 n=42 v=60
50208 On ch=10 n=35 v=50
50212 On ch=10 n=42 v=0
50212 On ch=10 n=35 v=0
50304 On ch=10 n=42 v=74
50304 On ch=10 n=35 v=78
50308 On ch=10 n=42 v=0
50308 On ch=10 n=35 v=0
50400 On ch=10 n=42 v=60
50400 On ch=10 n=35 v=64
50404 On ch=10 n=42 v=0
50404 On ch=10 n=35 v=0
50496 On ch=10 n=42 v=46
50496 On ch=10 n=40 v=116
50500 On ch=10 n=42 v=0
50500 On ch=10 n=40 v=0
50592 On ch=10 n=42 v=60
50592 On ch=10 n=35 v=50
50596 On ch=10 n=42 v=0
50596 On ch=10 n=35 v=0
50688 On ch=10 n=42 v=74
50688 On ch=10 n=35 v=78
50692 On ch=10 n=42 v=0
50692 On ch=10 n=35 v=0
50784 On ch=10 n=42 v=60
50784 On ch=10 n=35 v=64
50788 On ch=10 n=42 v=0
50788 On ch=10 n=35 v=0
50880 On ch=10 n=42 v=46
50880 On ch=10 n=40 v=116
50884 On ch=10 n=42 v=0
50884 On ch=10 n=40 v=0
50976 On ch=10 n=42 v=60
50976 On ch=10 n=35 v=50
50980 On ch=10 n=42 v=0
50980 On ch=10 n=35 v=0
51072 On ch=10 n=42 v=74
51072 On ch=10 n=35 v=78
51076 On ch=10 n=42 v=0
51076 On ch=10 n=35 v=0
51168 On ch=10 n=42 v=60
51168 On ch=10 n=35 v=64
51172 On ch=10 n=42 v=0
51172 On ch=10 n=35 v=0
51264 On ch=10 n=42 v=46
51264 On ch=10 n=40 v=116
51268 On ch=10 n=42 v=0
51268 On ch=10 n=40 v=0
51360 On ch=10 n=42 v=60
51360 On ch=10 n=35 v=50
51364 On ch=10 n=42 v=0
51364 On ch=10 n=35 v=0
51456 On ch=10 n=42 v=74
51456 On ch=10 n=35 v=78
51460 On ch=10 n=42 v=0
51460 On ch=10 n=35 v=0
51552 On ch=10 n=42 v=60
51552 On ch=10 n=35 v=64
51556 On ch=10 n=42 v=0
51556 On ch=10 n=35 v=0
51648 On ch=10 n=42 v=46
51648 On ch=10 n=40 v=116
51652 On ch=10 n=42 v=0
51652 On ch=10 n=40 v=0
51744 On ch=10 n=42 v=60
51744 On ch=10 n=35 v=50
51748 On ch=10 n=42 v=0
51748 On ch=10 n=35 v=0
51840 On ch=10 n=42 v=74
51840 On ch=10 n=35 v=78
51844 On ch=10 n=42 v=0
51844 On ch=10 n=35 v=0
51936 On ch=10 n=42 v=60
51936 On ch=10 n=35 v=64
51940 On ch=10 n=42 v=0
51940 On ch=10 n=35 v=0
52032 On ch=10 n=42 v=46
52032 On ch=10 n=40 v=116
52036 On ch=10 n=42 v=0
52036 On ch=10 n=40 v=0
52128 On ch=10 n=42 v=60
52128 On ch=10 n=35 v=50
52132 On ch=10 n=42 v=0
52132 On ch=10 n=35 v=0
52224 On ch=10 n=42 v=74
52224 On ch=10 n=35 v=78
52228 On ch=10 n=42 v=0
52228 On ch=10 n=35 v=0
52320 On ch=10 n=42 v=60
52320 On ch=10 n=35 v=64
52324 On ch=10 n=42 v=0
52324 On ch=10 n=35 v=0
52416 On ch=10 n=42 v=46
52416 On ch=10 n=40 v=116
52420 On ch=10 n=42 v=0
52420 On ch=10 n=40 v=0
52512 On ch=10 n=42 v=60
52512 On ch=10 n=35 v=50
52516 On ch=10 n=42 v=0
52516 On ch=10 n=35 v=0
52608 On ch=10 n=42 v=74
52608 On ch=10 n=35 v=85
52612 On ch=10 n=42 v=0
52612 On ch=10 n=35 v=0
52704 On ch=10 n=42 v=60
52704 On ch=10 n=35 v=90
52704 On ch=10 n=40 v=116
52704 On ch=10 n=49 v=64
52708 On ch=10 n=42 v=0
52708 On ch=10 n=35 v=0
52708 On ch=10 n=40 v=0
52708 On ch=10 n=49 v=0
52800 On ch=10 n=42 v=46
52804 On ch=10 n=42 v=0
52896 On ch=10 n=42 v=60
52896 On ch=10 n=35 v=85
52900 On ch=10 n=42 v=0
52900 On ch=10 n=35 v=0
52992 On ch=10 n=42 v=74
52992 On ch=10 n=35 v=85
52992 On ch=10 n=40 v=116
52996 On ch=10 n=42 v=0
52996 On ch=10 n=35 v=0
52996 On ch=10 n=40 v=0
53088 On ch=10 n=42 v=60
53092 On ch=10 n=42 v=0
53184 On ch=10 n=42 v=46
53188 On ch=10 n=42 v=0
53280 On ch=10 n=42 v=60
53280 On ch=10 n=35 v=85
53284 On ch=10 n=42 v=0
53284 On ch=10 n=35 v=0
53376 On ch=10 n=42 v=74
53376 On ch=10 n=40 v=116
53380 On ch=10 n=42 v=0
53380 On ch=10 n=40 v=0
53472 On ch=10 n=42 v=60
53476 On ch=10 n=42 v=0
53568 On ch=10 n=42 v=46
53572 On ch=10 n=42 v=0
53664 On ch=10 n=42 v=60
53664 On ch=10 n=35 v=90
53664 On ch=10 n=49 v=92
53668 On ch=10 n=42 v=0
53668 On ch=10 n=35 v=0
53668 On ch=10 n=49 v=0
53760 On ch=10 n=42 v=74
53760 On ch=10 n=35 v=78
53764 On ch=10 n=42 v=0
53764 On ch=10 n=35 v=0
53856 On ch=10 n=42 v=60
53856 On ch=10 n=35 v=64
53860 On ch=10 n=42 v=0
53860 On ch=10 n=35 v=0
53952 On ch=10 n=42 v=46
53952 On ch=10 n=40 v=116
53956 On ch=10 n=42 v=0
53956 On ch=10 n=40 v=0
54048 On ch=10 n=42 v=60
54048 On ch=10 n=35 v=50
54052 On ch=10 n=42 v=0
54052 On ch=10 n=35 v=0
54144 On ch=10 n=42 v=74
54144 On ch=10 n=35 v=78
54148 On ch=10 n=42 v=0
54148 On ch=10 n=35 v=0
54240 On ch=10 n=42 v=60
54240 On ch=10 n=35 v=64
54244 On ch=10 n=42 v=0
54244 On ch=10 n=35 v=0
54336 On ch=10 n=42 v=46
54336 On ch=10 n=40 v=116
54340 On ch=10 n=42 v=0
54340 On ch=10 n=40 v=0
54432 On ch=10 n=42 v=60
54432 On ch=10 n=35 v=50
54436 On ch=10 n=42 v=0
54436 On ch=10 n=35 v=0
54528 On ch=10 n=42 v=74
54528 On ch=10 n=35 v=78
54532 On ch=10 n=42 v=0
54532 On ch=10 n=35 v=0
54624 On ch=10 n=42 v=60
54624 On ch=10 n=35 v=64
54628 On ch=10 n=42 v=0
54628 On ch=10 n=35 v=0
54720 On ch=10 n=42 v=46
54720 On ch=10 n=40 v=116
54724 On ch=10 n=42 v=0
54724 On ch=10 n=40 v=0
54816 On ch=10 n=42 v=60
54816 On ch=10 n=35 v=50
54820 On ch=10 n=42 v=0
54820 On ch=10 n=35 v=0
54912 On ch=10 n=42 v=74
54912 On ch=10 n=35 v=78
54916 On ch=10 n=42 v=0
54916 On ch=10 n=35 v=0
55008 On ch=10 n=42 v=60
55008 On ch=10 n=35 v=64
55012 On ch=10 n=42 v=0
55012 On ch=10 n=35 v=0
55104 On ch=10 n=42 v=46
55104 On ch=10 n=40 v=116
55108 On ch=10 n=42 v=0
55108 On ch=10 n=40 v=0
55200 On ch=10 n=42 v=60
55200 On ch=10 n=35 v=50
55204 On ch=10 n=42 v=0
55204 On ch=10 n=35 v=0
55296 On ch=10 n=42 v=74
55296 On ch=10 n=35 v=78
55300 On ch=10 n=42 v=0
55300 On ch=10 n=35 v=0
55392 On ch=10 n=42 v=60
55392 On ch=10 n=35 v=64
55396 On ch=10 n=42 v=0
55396 On ch=10 n=35 v=0
55488 On ch=10 n=42 v=46
55488 On ch=10 n=40 v=116
55492 On ch=10 n=42 v=0
55492 On ch=10 n=40 v=0
55584 On ch=10 n=42 v=60
55584 On ch=10 n=35 v=50
55588 On ch=10 n=42 v=0
55588 On ch=10 n=35 v=0
55680 On ch=10 n=42 v=74
55680 On ch=10 n=35 v=85
55684 On ch=10 n=42 v=0
55684 On ch=10 n=35 v=0
55776 On ch=10 n=42 v=60
55776 On ch=10 n=35 v=90
55776 On ch=10 n=40 v=116
55776 On ch=10 n=49 v=64
55780 On ch=10 n=42 v=0
55780 On ch=10 n=35 v=0
55780 On ch=10 n=40 v=0
55780 On ch=10 n=49 v=0
55872 On ch=10 n=42 v=46
55876 On ch=10 n=42 v=0
55968 On ch=10 n=42 v=60
55968 On ch=10 n=35 v=85
55972 On ch=10 n=42 v=0
55972 On ch=10 n=35 v=0
56064 On ch=10 n=42 v=74
56064 On ch=10 n=40 v=116
56068 On ch=10 n=42 v=0
56068 On ch=10 n=40 v=0
56160 On ch=10 n=42 v=60
56164 On ch=10 n=42 v=0
56256 On ch=10 n=42 v=46
56260 On ch=10 n=42 v=0
56352 On ch=10 n=42 v=60
56352 On ch=10 n=35 v=85
56356 On ch=10 n=42 v=0
56356 On ch=10 n=35 v=0
56448 On ch=10 n=42 v=74
56448 On ch=10 n=40 v=116
56452 On ch=10 n=42 v=0
56452 On ch=10 n=40 v=0
56544 On ch=10 n=42 v=60
56548 On ch=10 n=42 v=0
56640 On ch=10 n=42 v=46
56644 On ch=10 n=42 v=0
56736 On ch=10 n=42 v=60
56740 On ch=10 n=42 v=0
56832 On ch=10 n=35 v=80
56832 On ch=10 n=51 v=55
56836 On ch=10 n=35 v=0
56836 On ch=10 n=51 v=0
56928 On ch=10 n=51 v=36
56932 On ch=10 n=51 v=0
57024 On ch=10 n=51 v=50
57028 On ch=10 n=51 v=0
57120 On ch=10 n=51 v=36
57124 On ch=10 n=51 v=0
57216 On ch=10 n=51 v=50
57220 On ch=10 n=51 v=0
57312 On ch=10 n=51 v=36
57316 On ch=10 n=51 v=0
57408 On ch=10 n=51 v=50
57412 On ch=10 n=51 v=0
57504 On ch=10 n=51 v=36
57508 On ch=10 n=51 v=0
57600 On ch=10 n=51 v=55
57600 On ch=10 n=35 v=78
57604 On ch=10 n=51 v=0
57604 On ch=10 n=35 v=0
57696 On ch=10 n=51 v=36
57700 On ch=10 n=51 v=0
57792 On ch=10 n=51 v=50
57796 On ch=10 n=51 v=0
57888 On ch=10 n=51 v=36
57888 On ch=10 n=35 v=90
57892 On ch=10 n=51 v=0
57892 On ch=10 n=35 v=0
57984 On ch=10 n=51 v=50
57984 On ch=10 n=35 v=78
57988 On ch=10 n=51 v=0
57988 On ch=10 n=35 v=0
58080 On ch=10 n=51 v=36
58084 On ch=10 n=51 v=0
58176 On ch=10 n=51 v=50
58180 On ch=10 n=51 v=0
58272 On ch=10 n=51 v=36
58276 On ch=10 n=51 v=0
58368 On ch=10 n=51 v=55
58368 On ch=10 n=35 v=78
58372 On ch=10 n=51 v=0
58372 On ch=10 n=35 v=0
58464 On ch=10 n=51 v=36
58468 On ch=10 n=51 v=0
58560 On ch=10 n=51 v=50
58564 On ch=10 n=51 v=0
58656 On ch=10 n=51 v=36
58656 On ch=10 n=35 v=90
58660 On ch=10 n=51 v=0
58660 On ch=10 n=35 v=0
58752 On ch=10 n=51 v=50
58752 On ch=10 n=35 v=78
58756 On ch=10 n=51 v=0
58756 On ch=10 n=35 v=0
58848 On ch=10 n=51 v=36
58852 On ch=10 n=51 v=0
58944 On ch=10 n=51 v=50
58948 On ch=10 n=51 v=0
59040 On ch=10 n=51 v=36
59044 On ch=10 n=51 v=0
59136 On ch=10 n=51 v=55
59136 On ch=10 n=35 v=78
59140 On ch=10 n=51 v=0
59140 On ch=10 n=35 v=0
59232 On ch=10 n=51 v=36
59236 On ch=10 n=51 v=0
59328 On ch=10 n=51 v=50
59332 On ch=10 n=51 v=0
59424 On ch=10 n=51 v=36
59424 On ch=10 n=35 v=90
59428 On ch=10 n=51 v=0
59428 On ch=10 n=35 v=0
59520 On ch=10 n=51 v=50
59520 On ch=10 n=35 v=78
59524 On ch=10 n=51 v=0
59524 On ch=10 n=35 v=0
59616 On ch=10 n=51 v=36
59620 On ch=10 n=51 v=0
59712 On ch=10 n=51 v=50
59716 On ch=10 n=51 v=0
59808 On ch=10 n=51 v=36
59812 On ch=10 n=51 v=0
59904 On ch=10 n=51 v=55
59904 On ch=10 n=35 v=78
59908 On ch=10 n=51 v=0
59908 On ch=10 n=35 v=0
60000 On ch=10 n=51 v=36
60004 On ch=10 n=51 v=0
60096 On ch=10 n=51 v=50
60100 On ch=10 n=51 v=0
60192 On ch=10 n=51 v=36
60192 On ch=10 n=35 v=90
60196 On ch=10 n=51 v=0
60196 On ch=10 n=35 v=0
60288 On ch=10 n=51 v=50
60288 On ch=10 n=35 v=78
60292 On ch=10 n=51 v=0
60292 On ch=10 n=35 v=0
60384 On ch=10 n=51 v=36
60388 On ch=10 n=51 v=0
60480 On ch=10 n=51 v=50
60484 On ch=10 n=51 v=0
60576 On ch=10 n=51 v=36
60580 On ch=10 n=51 v=0
60672 On ch=10 n=51 v=55
60672 On ch=10 n=35 v=78
60676 On ch=10 n=51 v=0
60676 On ch=10 n=35 v=0
60768 On ch=10 n=51 v=36
60772 On ch=10 n=51 v=0
60864 On ch=10 n=51 v=50
60868 On ch=10 n=51 v=0
60960 On ch=10 n=51 v=36
60960 On ch=10 n=35 v=90
60964 On ch=10 n=51 v=0
60964 On ch=10 n=35 v=0
61056 On ch=10 n=51 v=50
61056 On ch=10 n=35 v=78
61060 On ch=10 n=51 v=0
61060 On ch=10 n=35 v=0
61152 On ch=10 n=51 v=36
61156 On ch=10 n=51 v=0
61248 On ch=10 n=51 v=50
61252 On ch=10 n=51 v=0
61344 On ch=10 n=51 v=36
61348 On ch=10 n=51 v=0
61440 On ch=10 n=51 v=57
61440 On ch=10 n=35 v=78
61444 On ch=10 n=51 v=0
61444 On ch=10 n=35 v=0
61536 On ch=10 n=51 v=40
61540 On ch=10 n=51 v=0
61632 On ch=10 n=51 v=57
61636 On ch=10 n=51 v=0
61728 On ch=10 n=51 v=40
61728 On ch=10 n=35 v=90
61732 On ch=10 n=51 v=0
61732 On ch=10 n=35 v=0
61824 On ch=10 n=51 v=57
61824 On ch=10 n=35 v=78
61828 On ch=10 n=51 v=0
61828 On ch=10 n=35 v=0
61920 On ch=10 n=51 v=40
61920 On ch=10 n=40 v=116
61924 On ch=10 n=51 v=0
61924 On ch=10 n=40 v=0
61968 On ch=10 n=40 v=102
61972 On ch=10 n=40 v=0
62016 On ch=10 n=51 v=57
62020 On ch=10 n=51 v=0
62112 On ch=10 n=51 v=40
62116 On ch=10 n=51 v=0
62208 On ch=10 n=51 v=60
62208 On ch=10 n=35 v=78
62212 On ch=10 n=51 v=0
62212 On ch=10 n=35 v=0
62304 On ch=10 n=51 v=44
62304 On ch=10 n=40 v=127
62308 On ch=10 n=51 v=0
62308 On ch=10 n=40 v=0
62352 On ch=10 n=40 v=116
62356 On ch=10 n=40 v=0
62400 On ch=10 n=51 v=60
62404 On ch=10 n=51 v=0
62496 On ch=10 n=51 v=44
62496 On ch=10 n=35 v=90
62500 On ch=10 n=51 v=0
62500 On ch=10 n=35 v=0
62592 On ch=10 n=51 v=60
62592 On ch=10 n=35 v=78
62592 On ch=10 n=40 v=127
62596 On ch=10 n=51 v=0
62596 On ch=10 n=35 v=0
62596 On ch=10 n=40 v=0
62688 On ch=10 n=51 v=44
62692 On ch=10 n=51 v=0
62736 On ch=10 n=40 v=74
62740 On ch=10 n=40 v=0
62784 On ch=10 n=51 v=60
62784 On ch=10 n=40 v=127
62788 On ch=10 n=51 v=0
62788 On ch=10 n=40 v=0
62832 On ch=10 n=40 v=88
62836 On ch=10 n=40 v=0
62880 On ch=10 n=51 v=44
62880 On ch=10 n=40 v=60
62884 On ch=10 n=51 v=0
62884 On ch=10 n=40 v=0
62976 On ch=10 n=40 v=116
62976 On ch=10 n=51 v=64
62980 On ch=10 n=40 v=0
62980 On ch=10 n=51 v=0
63744 On ch=10 n=35 v=83
63744 On ch=10 n=46 v=66
63744 On ch=10 n=49 v=92
63748 On ch=10 n=35 v=0
63748 On ch=10 n=46 v=0
63748 On ch=10 n=49 v=0
63840 On ch=10 n=35 v=69
63840 On ch=10 n=46 v=52
63844 On ch=10 n=35 v=0
63844 On ch=10 n=46 v=0
63936 On ch=10 n=40 v=121
63936 On ch=10 n=46 v=66
63940 On ch=10 n=40 v=0
63940 On ch=10 n=46 v=0
64032 On ch=10 n=35 v=55
64032 On ch=10 n=46 v=52
64036 On ch=10 n=35 v=0
64036 On ch=10 n=46 v=0
64128 On ch=10 n=35 v=83
64128 On ch=10 n=46 v=66
64132 On ch=10 n=35 v=0
64132 On ch=10 n=46 v=0
64224 On ch=10 n=35 v=69
64224 On ch=10 n=46 v=52
64228 On ch=10 n=35 v=0
64228 On ch=10 n=46 v=0
64320 On ch=10 n=40 v=121
64320 On ch=10 n=46 v=66
64324 On ch=10 n=40 v=0
64324 On ch=10 n=46 v=0
64416 On ch=10 n=35 v=55
64416 On ch=10 n=46 v=52
64420 On ch=10 n=35 v=0
64420 On ch=10 n=46 v=0
64512 On ch=10 n=35 v=83
64512 On ch=10 n=46 v=66
64516 On ch=10 n=35 v=0
64516 On ch=10 n=46 v=0
64608 On ch=10 n=35 v=69
64608 On ch=10 n=46 v=52
64612 On ch=10 n=35 v=0
64612 On ch=10 n=46 v=0
64704 On ch=10 n=40 v=121
64704 On ch=10 n=46 v=66
64708 On ch=10 n=40 v=0
64708 On ch=10 n=46 v=0
64800 On ch=10 n=35 v=55
64800 On ch=10 n=46 v=52
64804 On ch=10 n=35 v=0
64804 On ch=10 n=46 v=0
64896 On ch=10 n=35 v=83
64896 On ch=10 n=46 v=66
64900 On ch=10 n=35 v=0
64900 On ch=10 n=46 v=0
64992 On ch=10 n=35 v=69
64992 On ch=10 n=46 v=52
64996 On ch=10 n=35 v=0
64996 On ch=10 n=46 v=0
65088 On ch=10 n=40 v=121
65088 On ch=10 n=46 v=66
65092 On ch=10 n=40 v=0
65092 On ch=10 n=46 v=0
65184 On ch=10 n=35 v=55
65184 On ch=10 n=46 v=52
65188 On ch=10 n=35 v=0
65188 On ch=10 n=46 v=0
65280 On ch=10 n=35 v=83
65280 On ch=10 n=46 v=66
65284 On ch=10 n=35 v=0
65284 On ch=10 n=46 v=0
65376 On ch=10 n=35 v=69
65376 On ch=10 n=46 v=52
65380 On ch=10 n=35 v=0
65380 On ch=10 n=46 v=0
65472 On ch=10 n=40 v=121
65472 On ch=10 n=46 v=66
65476 On ch=10 n=40 v=0
65476 On ch=10 n=46 v=0
65568 On ch=10 n=35 v=55
65568 On ch=10 n=46 v=52
65572 On ch=10 n=35 v=0
65572 On ch=10 n=46 v=0
65664 On ch=10 n=35 v=83
65664 On ch=10 n=46 v=66
65668 On ch=10 n=35 v=0
65668 On ch=10 n=46 v=0
65760 On ch=10 n=35 v=69
65760 On ch=10 n=46 v=52
65764 On ch=10 n=35 v=0
65764 On ch=10 n=46 v=0
65856 On ch=10 n=40 v=121
65856 On ch=10 n=46 v=66
65860 On ch=10 n=40 v=0
65860 On ch=10 n=46 v=0
65952 On ch=10 n=35 v=55
65952 On ch=10 n=46 v=52
65956 On ch=10 n=35 v=0
65956 On ch=10 n=46 v=0
66048 On ch=10 n=35 v=83
66048 On ch=10 n=46 v=66
66052 On ch=10 n=35 v=0
66052 On ch=10 n=46 v=0
66144 On ch=10 n=35 v=69
66144 On ch=10 n=46 v=52
66148 On ch=10 n=35 v=0
66148 On ch=10 n=46 v=0
66240 On ch=10 n=40 v=121
66240 On ch=10 n=46 v=66
66244 On ch=10 n=40 v=0
66244 On ch=10 n=46 v=0
66336 On ch=10 n=35 v=55
66336 On ch=10 n=46 v=52
66340 On ch=10 n=35 v=0
66340 On ch=10 n=46 v=0
66432 On ch=10 n=35 v=83
66432 On ch=10 n=46 v=66
66436 On ch=10 n=35 v=0
66436 On ch=10 n=46 v=0
66528 On ch=10 n=35 v=69
66528 On ch=10 n=46 v=52
66532 On ch=10 n=35 v=0
66532 On ch=10 n=46 v=0
66624 On ch=10 n=40 v=121
66624 On ch=10 n=46 v=66
66628 On ch=10 n=40 v=0
66628 On ch=10 n=46 v=0
66720 On ch=10 n=35 v=55
66720 On ch=10 n=46 v=52
66724 On ch=10 n=35 v=0
66724 On ch=10 n=46 v=0
66816 On ch=10 n=35 v=83
66816 On ch=10 n=46 v=66
66820 On ch=10 n=35 v=0
66820 On ch=10 n=46 v=0
66912 On ch=10 n=35 v=69
66912 On ch=10 n=46 v=52
66916 On ch=10 n=35 v=0
66916 On ch=10 n=46 v=0
67008 On ch=10 n=40 v=121
67008 On ch=10 n=46 v=66
67012 On ch=10 n=40 v=0
67012 On ch=10 n=46 v=0
67104 On ch=10 n=35 v=55
67104 On ch=10 n=46 v=52
67108 On ch=10 n=35 v=0
67108 On ch=10 n=46 v=0
67200 On ch=10 n=35 v=83
67200 On ch=10 n=46 v=66
67204 On ch=10 n=35 v=0
67204 On ch=10 n=46 v=0
67296 On ch=10 n=35 v=69
67296 On ch=10 n=46 v=52
67300 On ch=10 n=35 v=0
67300 On ch=10 n=46 v=0
67392 On ch=10 n=40 v=121
67392 On ch=10 n=46 v=66
67396 On ch=10 n=40 v=0
67396 On ch=10 n=46 v=0
67488 On ch=10 n=35 v=55
67488 On ch=10 n=46 v=52
67492 On ch=10 n=35 v=0
67492 On ch=10 n=46 v=0
67584 On ch=10 n=35 v=83
67584 On ch=10 n=46 v=66
67588 On ch=10 n=35 v=0
67588 On ch=10 n=46 v=0
67680 On ch=10 n=35 v=69
67680 On ch=10 n=46 v=52
67684 On ch=10 n=35 v=0
67684 On ch=10 n=46 v=0
67776 On ch=10 n=40 v=121
67776 On ch=10 n=46 v=66
67780 On ch=10 n=40 v=0
67780 On ch=10 n=46 v=0
67872 On ch=10 n=35 v=55
67872 On ch=10 n=46 v=52
67876 On ch=10 n=35 v=0
67876 On ch=10 n=46 v=0
67968 On ch=10 n=35 v=83
67968 On ch=10 n=46 v=66
67972 On ch=10 n=35 v=0
67972 On ch=10 n=46 v=0
68064 On ch=10 n=35 v=69
68064 On ch=10 n=46 v=52
68068 On ch=10 n=35 v=0
68068 On ch=10 n=46 v=0
68160 On ch=10 n=40 v=121
68160 On ch=10 n=46 v=66
68164 On ch=10 n=40 v=0
68164 On ch=10 n=46 v=0
68256 On ch=10 n=35 v=55
68256 On ch=10 n=46 v=52
68260 On ch=10 n=35 v=0
68260 On ch=10 n=46 v=0
68352 On ch=10 n=35 v=83
68352 On ch=10 n=46 v=66
68356 On ch=10 n=35 v=0
68356 On ch=10 n=46 v=0
68448 On ch=10 n=35 v=69
68448 On ch=10 n=46 v=52
68452 On ch=10 n=35 v=0
68452 On ch=10 n=46 v=0
68544 On ch=10 n=40 v=121
68544 On ch=10 n=46 v=66
68548 On ch=10 n=40 v=0
68548 On ch=10 n=46 v=0
68640 On ch=10 n=35 v=55
68640 On ch=10 n=46 v=52
68644 On ch=10 n=35 v=0
68644 On ch=10 n=46 v=0
68736 On ch=10 n=35 v=83
68736 On ch=10 n=46 v=66
68740 On ch=10 n=35 v=0
68740 On ch=10 n=46 v=0
68832 On ch=10 n=35 v=69
68832 On ch=10 n=46 v=52
68836 On ch=10 n=35 v=0
68836 On ch=10 n=46 v=0
68928 On ch=10 n=40 v=121
68928 On ch=10 n=46 v=66
68932 On ch=10 n=40 v=0
68932 On ch=10 n=46 v=0
69024 On ch=10 n=35 v=55
69024 On ch=10 n=46 v=52
69028 On ch=10 n=35 v=0
69028 On ch=10 n=46 v=0
69120 On ch=10 n=35 v=83
69120 On ch=10 n=46 v=52
69124 On ch=10 n=35 v=0
69124 On ch=10 n=46 v=0
69216 On ch=10 n=35 v=85
69216 On ch=10 n=46 v=57
69220 On ch=10 n=35 v=0
69220 On ch=10 n=46 v=0
69312 On ch=10 n=46 v=62
69316 On ch=10 n=46 v=0
69408 On ch=10 n=35 v=90
69408 On ch=10 n=46 v=67
69408 On ch=10 n=40 v=127
69412 On ch=10 n=35 v=0
69412 On ch=10 n=46 v=0
69412 On ch=10 n=40 v=0
69504 On ch=10 n=46 v=72
69508 On ch=10 n=46 v=0
69600 On ch=10 n=35 v=95
69600 On ch=10 n=46 v=77
69604 On ch=10 n=35 v=0
69604 On ch=10 n=46 v=0
69696 On ch=10 n=40 v=121
69696 On ch=10 n=46 v=82
69700 On ch=10 n=40 v=0
69700 On ch=10 n=46 v=0
69792 On ch=10 n=35 v=60
69792 On ch=10 n=46 v=87
69796 On ch=10 n=35 v=0
69796 On ch=10 n=46 v=0
69888 On ch=10 n=42 v=74
69888 On ch=10 n=35 v=90
69888 On ch=10 n=49 v=78
69892 On ch=10 n=42 v=0
69892 On ch=10 n=35 v=0
69892 On ch=10 n=49 v=0
69984 On ch=10 n=42 v=60
69984 On ch=10 n=35 v=64
69988 On ch=10 n=42 v=0
69988 On ch=10 n=35 v=0
70080 On ch=10 n=42 v=46
70080 On ch=10 n=40 v=116
70084 On ch=10 n=42 v=0
70084 On ch=10 n=40 v=0
70176 On ch=10 n=42 v=60
70176 On ch=10 n=35 v=50
70180 On ch=10 n=42 v=0
70180 On ch=10 n=35 v=0
70272 On ch=10 n=42 v=74
70272 On ch=10 n=35 v=78
70276 On ch=10 n=42 v=0
70276 On ch=10 n=35 v=0
70368 On ch=10 n=42 v=60
70368 On ch=10 n=35 v=64
70372 On ch=10 n=42 v=0
70372 On ch=10 n=35 v=0
70464 On ch=10 n=42 v=46
70464 On ch=10 n=40 v=116
70468 On ch=10 n=42 v=0
70468 On ch=10 n=40 v=0
70560 On ch=10 n=42 v=60
70560 On ch=10 n=35 v=50
70564 On ch=10 n=42 v=0
70564 On ch=10 n=35 v=0
70656 On ch=10 n=42 v=74
70656 On ch=10 n=35 v=78
70660 On ch=10 n=42 v=0
70660 On ch=10 n=35 v=0
70752 On ch=10 n=42 v=60
70752 On ch=10 n=35 v=64
70756 On ch=10 n=42 v=0
70756 On ch=10 n=35 v=0
70848 On ch=10 n=42 v=46
70848 On ch=10 n=40 v=116
70852 On ch=10 n=42 v=0
70852 On ch=10 n=40 v=0
70944 On ch=10 n=42 v=60
70944 On ch=10 n=35 v=50
70948 On ch=10 n=42 v=0
70948 On ch=10 n=35 v=0
71040 On ch=10 n=42 v=74
71040 On ch=10 n=35 v=78
71044 On ch=10 n=42 v=0
71044 On ch=10 n=35 v=0
71136 On ch=10 n=42 v=60
71136 On ch=10 n=35 v=64
71140 On ch=10 n=42 v=0
71140 On ch=10 n=35 v=0
71232 On ch=10 n=42 v=46
71232 On ch=10 n=40 v=116
71236 On ch=10 n=42 v=0
71236 On ch=10 n=40 v=0
71328 On ch=10 n=42 v=60
71328 On ch=10 n=35 v=50
71332 On ch=10 n=42 v=0
71332 On ch=10 n=35 v=0
71424 On ch=10 n=42 v=74
71424 On ch=10 n=35 v=78
71428 On ch=10 n=42 v=0
71428 On ch=10 n=35 v=0
71520 On ch=10 n=42 v=60
71520 On ch=10 n=35 v=64
71524 On ch=10 n=42 v=0
71524 On ch=10 n=35 v=0
71616 On ch=10 n=42 v=46
71616 On ch=10 n=40 v=116
71620 On ch=10 n=42 v=0
71620 On ch=10 n=40 v=0
71712 On ch=10 n=42 v=60
71712 On ch=10 n=35 v=50
71716 On ch=10 n=42 v=0
71716 On ch=10 n=35 v=0
71808 On ch=10 n=42 v=74
71808 On ch=10 n=35 v=78
71812 On ch=10 n=42 v=0
71812 On ch=10 n=35 v=0
71904 On ch=10 n=42 v=60
71904 On ch=10 n=35 v=64
71908 On ch=10 n=42 v=0
71908 On ch=10 n=35 v=0
72000 On ch=10 n=42 v=46
72000 On ch=10 n=40 v=116
72004 On ch=10 n=42 v=0
72004 On ch=10 n=40 v=0
72096 On ch=10 n=42 v=60
72096 On ch=10 n=35 v=50
72100 On ch=10 n=42 v=0
72100 On ch=10 n=35 v=0
72192 On ch=10 n=42 v=74
72192 On ch=10 n=35 v=78
72196 On ch=10 n=42 v=0
72196 On ch=10 n=35 v=0
72288 On ch=10 n=42 v=60
72288 On ch=10 n=35 v=64
72292 On ch=10 n=42 v=0
72292 On ch=10 n=35 v=0
72384 On ch=10 n=42 v=46
72384 On ch=10 n=40 v=116
72388 On ch=10 n=42 v=0
72388 On ch=10 n=40 v=0
72480 On ch=10 n=42 v=60
72480 On ch=10 n=35 v=50
72484 On ch=10 n=42 v=0
72484 On ch=10 n=35 v=0
72576 On ch=10 n=42 v=74
72576 On ch=10 n=35 v=78
72580 On ch=10 n=42 v=0
72580 On ch=10 n=35 v=0
72672 On ch=10 n=42 v=60
72672 On ch=10 n=35 v=64
72676 On ch=10 n=42 v=0
72676 On ch=10 n=35 v=0
72768 On ch=10 n=42 v=46
72768 On ch=10 n=40 v=116
72772 On ch=10 n=42 v=0
72772 On ch=10 n=40 v=0
72864 On ch=10 n=42 v=60
72864 On ch=10 n=35 v=50
72868 On ch=10 n=42 v=0
72868 On ch=10 n=35 v=0
72960 On ch=10 n=42 v=74
72960 On ch=10 n=35 v=78
72964 On ch=10 n=42 v=0
72964 On ch=10 n=35 v=0
73056 On ch=10 n=42 v=60
73056 On ch=10 n=35 v=64
73060 On ch=10 n=42 v=0
73060 On ch=10 n=35 v=0
73152 On ch=10 n=42 v=46
73152 On ch=10 n=40 v=116
73156 On ch=10 n=42 v=0
73156 On ch=10 n=40 v=0
73248 On ch=10 n=42 v=60
73248 On ch=10 n=35 v=50
73252 On ch=10 n=42 v=0
73252 On ch=10 n=35 v=0
73344 On ch=10 n=42 v=74
73344 On ch=10 n=35 v=78
73348 On ch=10 n=42 v=0
73348 On ch=10 n=35 v=0
73440 On ch=10 n=42 v=60
73440 On ch=10 n=35 v=64
73444 On ch=10 n=42 v=0
73444 On ch=10 n=35 v=0
73536 On ch=10 n=42 v=46
73536 On ch=10 n=40 v=116
73540 On ch=10 n=42 v=0
73540 On ch=10 n=40 v=0
73632 On ch=10 n=42 v=60
73632 On ch=10 n=35 v=50
73636 On ch=10 n=42 v=0
73636 On ch=10 n=35 v=0
73728 On ch=10 n=42 v=74
73728 On ch=10 n=35 v=78
73732 On ch=10 n=42 v=0
73732 On ch=10 n=35 v=0
73824 On ch=10 n=42 v=60
73824 On ch=10 n=35 v=64
73828 On ch=10 n=42 v=0
73828 On ch=10 n=35 v=0
73920 On ch=10 n=42 v=46
73920 On ch=10 n=40 v=116
73924 On ch=10 n=42 v=0
73924 On ch=10 n=40 v=0
74016 On ch=10 n=42 v=60
74016 On ch=10 n=35 v=50
74020 On ch=10 n=42 v=0
74020 On ch=10 n=35 v=0
74112 On ch=10 n=42 v=74
74112 On ch=10 n=35 v=78
74116 On ch=10 n=42 v=0
74116 On ch=10 n=35 v=0
74208 On ch=10 n=42 v=60
74208 On ch=10 n=35 v=64
74212 On ch=10 n=42 v=0
74212 On ch=10 n=35 v=0
74304 On ch=10 n=42 v=46
74304 On ch=10 n=40 v=116
74308 On ch=10 n=42 v=0
74308 On ch=10 n=40 v=0
74400 On ch=10 n=42 v=60
74400 On ch=10 n=35 v=50
74404 On ch=10 n=42 v=0
74404 On ch=10 n=35 v=0
74496 On ch=10 n=42 v=74
74496 On ch=10 n=35 v=78
74500 On ch=10 n=42 v=0
74500 On ch=10 n=35 v=0
74592 On ch=10 n=42 v=60
74592 On ch=10 n=35 v=64
74596 On ch=10 n=42 v=0
74596 On ch=10 n=35 v=0
74688 On ch=10 n=42 v=46
74688 On ch=10 n=40 v=116
74692 On ch=10 n=42 v=0
74692 On ch=10 n=40 v=0
74784 On ch=10 n=42 v=60
74784 On ch=10 n=35 v=50
74788 On ch=10 n=42 v=0
74788 On ch=10 n=35 v=0
74880 On ch=10 n=42 v=74
74880 On ch=10 n=35 v=78
74884 On ch=10 n=42 v=0
74884 On ch=10 n=35 v=0
74976 On ch=10 n=42 v=60
74976 On ch=10 n=35 v=64
74980 On ch=10 n=42 v=0
74980 On ch=10 n=35 v=0
75072 On ch=10 n=42 v=46
75072 On ch=10 n=40 v=116
75076 On ch=10 n=42 v=0
75076 On ch=10 n=40 v=0
75168 On ch=10 n=42 v=60
75168 On ch=10 n=35 v=50
75172 On ch=10 n=42 v=0
75172 On ch=10 n=35 v=0
75264 On ch=10 n=42 v=74
75264 On ch=10 n=35 v=78
75268 On ch=10 n=42 v=0
75268 On ch=10 n=35 v=0
75360 On ch=10 n=42 v=60
75360 On ch=10 n=35 v=64
75364 On ch=10 n=42 v=0
75364 On ch=10 n=35 v=0
75456 On ch=10 n=42 v=46
75456 On ch=10 n=40 v=116
75460 On ch=10 n=42 v=0
75460 On ch=10 n=40 v=0
75552 On ch=10 n=42 v=60
75552 On ch=10 n=35 v=50
75556 On ch=10 n=42 v=0
75556 On ch=10 n=35 v=0
75648 On ch=10 n=42 v=74
75648 On ch=10 n=35 v=78
75652 On ch=10 n=42 v=0
75652 On ch=10 n=35 v=0
75744 On ch=10 n=42 v=60
75744 On ch=10 n=35 v=64
75748 On ch=10 n=42 v=0
75748 On ch=10 n=35 v=0
75840 On ch=10 n=42 v=46
75840 On ch=10 n=40 v=127
75844 On ch=10 n=42 v=0
75844 On ch=10 n=40 v=0
75888 On ch=10 n=40 v=88
75892 On ch=10 n=40 v=0
75936 On ch=10 n=42 v=60
75936 On ch=10 n=40 v=60
75936 On ch=10 n=49 v=106
75940 On ch=10 n=42 v=0
75940 On ch=10 n=40 v=0
75940 On ch=10 n=49 v=0
76032 On ch=10 n=42 v=88
76036 On ch=10 n=42 v=0
76128 On ch=10 n=42 v=46
76132 On ch=10 n=42 v=0
76224 On ch=10 n=42 v=74
76224 On ch=10 n=40 v=102
76228 On ch=10 n=42 v=0
76228 On ch=10 n=40 v=0
76320 On ch=10 n=42 v=46
76324 On ch=10 n=42 v=0
76416 On ch=10 n=42 v=88
76420 On ch=10 n=42 v=0
76512 On ch=10 n=42 v=46
76516 On ch=10 n=42 v=0
76608 On ch=10 n=42 v=74
76608 On ch=10 n=40 v=116
76612 On ch=10 n=42 v=0
76612 On ch=10 n=40 v=0
76704 On ch=10 n=42 v=46
76708 On ch=10 n=42 v=0
76800 On ch=10 n=42 v=88
76804 On ch=10 n=42 v=0
76896 On ch=10 n=42 v=46
76900 On ch=10 n=42 v=0
76992 On ch=10 n=42 v=74
76992 On ch=10 n=40 v=116
76996 On ch=10 n=42 v=0
76996 On ch=10 n=40 v=0
77088 On ch=10 n=42 v=46
77092 On ch=10 n=42 v=0
77184 On ch=10 n=42 v=88
77188 On ch=10 n=42 v=0
77280 On ch=10 n=42 v=46
77284 On ch=10 n=42 v=0
77376 On ch=10 n=42 v=74
77376 On ch=10 n=40 v=116
77380 On ch=10 n=42 v=0
77380 On ch=10 n=40 v=0
77472 On ch=10 n=42 v=46
77472 On ch=10 n=35 v=92
77476 On ch=10 n=42 v=0
77476 On ch=10 n=35 v=0
77568 On ch=10 n=42 v=88
77572 On ch=10 n=42 v=0
77664 On ch=10 n=42 v=46
77668 On ch=10 n=42 v=0
77760 On ch=10 n=42 v=74
77760 On ch=10 n=40 v=116
77764 On ch=10 n=42 v=0
77764 On ch=10 n=40 v=0
77856 On ch=10 n=42 v=46
77860 On ch=10 n=42 v=0
77952 On ch=10 n=42 v=88
77956 On ch=10 n=42 v=0
78048 On ch=10 n=42 v=46
78052 On ch=10 n=42 v=0
78144 On ch=10 n=42 v=74
78144 On ch=10 n=40 v=116
78148 On ch=10 n=42 v=0
78148 On ch=10 n=40 v=0
78240 On ch=10 n=42 v=46
78244 On ch=10 n=42 v=0
78336 On ch=10 n=42 v=88
78340 On ch=10 n=42 v=0
78432 On ch=10 n=42 v=46
78436 On ch=10 n=42 v=0
78528 On ch=10 n=42 v=74
78528 On ch=10 n=40 v=116
78532 On ch=10 n=42 v=0
78532 On ch=10 n=40 v=0
78624 On ch=10 n=42 v=46
78628 On ch=10 n=42 v=0
78720 On ch=10 n=42 v=88
78724 On ch=10 n=42 v=0
78816 On ch=10 n=42 v=46
78816 On ch=10 n=35 v=92
78820 On ch=10 n=42 v=0
78820 On ch=10 n=35 v=0
78912 On ch=10 n=42 v=74
78912 On ch=10 n=40 v=116
78916 On ch=10 n=42 v=0
78916 On ch=10 n=40 v=0
79008 On ch=10 n=42 v=46
79012 On ch=10 n=42 v=0
79104 On ch=10 n=42 v=88
79108 On ch=10 n=42 v=0
79200 On ch=10 n=42 v=46
79204 On ch=10 n=42 v=0
79296 On ch=10 n=42 v=74
79296 On ch=10 n=40 v=116
79296 On ch=10 n=35 v=92
79300 On ch=10 n=42 v=0
79300 On ch=10 n=40 v=0
79300 On ch=10 n=35 v=0
79392 On ch=10 n=42 v=46
79396 On ch=10 n=42 v=0
79488 On ch=10 n=42 v=88
79492 On ch=10 n=42 v=0
79584 On ch=10 n=42 v=46
79588 On ch=10 n=42 v=0
79680 On ch=10 n=42 v=74
79680 On ch=10 n=40 v=116
79684 On ch=10 n=42 v=0
79684 On ch=10 n=40 v=0
79776 On ch=10 n=42 v=46
79780 On ch=10 n=42 v=0
79872 On ch=10 n=42 v=88
79876 On ch=10 n=42 v=0
79968 On ch=10 n=42 v=46
79972 On ch=10 n=42 v=0
80064 On ch=10 n=42 v=74
80064 On ch=10 n=40 v=116
80064 On ch=10 n=35 v=92
80068 On ch=10 n=42 v=0
80068 On ch=10 n=40 v=0
80068 On ch=10 n=35 v=0
80160 On ch=10 n=42 v=46
80164 On ch=10 n=42 v=0
80256 On ch=10 n=42 v=88
80260 On ch=10 n=42 v=0
80352 On ch=10 n=42 v=46
80356 On ch=10 n=42 v=0
80448 On ch=10 n=42 v=74
80448 On ch=10 n=40 v=116
80448 On ch=10 n=35 v=106
80452 On ch=10 n=42 v=0
80452 On ch=10 n=40 v=0
80452 On ch=10 n=35 v=0
80544 On ch=10 n=42 v=46
80548 On ch=10 n=42 v=0
80640 On ch=10 n=42 v=88
80644 On ch=10 n=42 v=0
80736 On ch=10 n=42 v=46
80740 On ch=10 n=42 v=0
80832 On ch=10 n=42 v=74
80832 On ch=10 n=40 v=116
80836 On ch=10 n=42 v=0
80836 On ch=10 n=40 v=0
80928 On ch=10 n=42 v=46
80932 On ch=10 n=42 v=0
81024 On ch=10 n=42 v=88
81028 On ch=10 n=42 v=0
81120 On ch=10 n=42 v=46
81124 On ch=10 n=42 v=0
81216 On ch=10 n=42 v=74
81216 On ch=10 n=40 v=116
81220 On ch=10 n=42 v=0
81220 On ch=10 n=40 v=0
81312 On ch=10 n=42 v=46
81316 On ch=10 n=42 v=0
81408 On ch=10 n=42 v=88
81412 On ch=10 n=42 v=0
81504 On ch=10 n=42 v=46
81508 On ch=10 n=42 v=0
81600 On ch=10 n=42 v=74
81600 On ch=10 n=40 v=116
81604 On ch=10 n=42 v=0
81604 On ch=10 n=40 v=0
81696 On ch=10 n=42 v=46
81700 On ch=10 n=42 v=0
81792 On ch=10 n=42 v=88
81796 On ch=10 n=42 v=0
81888 On ch=10 n=42 v=46
81888 On ch=10 n=35 v=92
81892 On ch=10 n=42 v=0
81892 On ch=10 n=35 v=0
81984 On ch=10 n=42 v=74
81984 On ch=10 n=40 v=116
81988 On ch=10 n=42 v=0
81988 On ch=10 n=40 v=0
82080 On ch=10 n=42 v=74
82084 On ch=10 n=42 v=0
82176 On ch=10 n=35 v=92
82176 On ch=10 n=49 v=64
82180 On ch=10 n=35 v=0
82180 On ch=10 n=49 v=0
86880 On ch=10 n=35 v=92
86880 On ch=10 n=49 v=78
86880 On ch=10 n=46 v=5
86884 On ch=10 n=35 v=0
86884 On ch=10 n=49 v=0
86884 On ch=10 n=46 v=0
86976 On ch=10 n=46 v=19
86980 On ch=10 n=46 v=0
87072 On ch=10 n=46 v=33
87076 On ch=10 n=46 v=0
87168 On ch=10 n=46 v=47
87172 On ch=10 n=46 v=0
87264 On ch=10 n=46 v=61
87264 On ch=10 n=40 v=116
87268 On ch=10 n=46 v=0
87268 On ch=10 n=40 v=0
87360 On ch=10 n=46 v=75
87364 On ch=10 n=46 v=0
87456 On ch=10 n=46 v=47
87460 On ch=10 n=46 v=0
87552 On ch=10 n=46 v=61
87552 On ch=10 n=40 v=88
87556 On ch=10 n=46 v=0
87556 On ch=10 n=40 v=0
87648 On ch=10 n=40 v=102
87648 On ch=10 n=46 v=61
87652 On ch=10 n=40 v=0
87652 On ch=10 n=46 v=0
87744 On ch=10 n=40 v=116
87744 On ch=10 n=46 v=61
87748 On ch=10 n=40 v=0
87748 On ch=10 n=46 v=0
87936 On ch=10 n=40 v=116
87940 On ch=10 n=40 v=0
88032 On ch=10 n=40 v=60
88036 On ch=10 n=40 v=0
88080 On ch=10 n=40 v=60
88084 On ch=10 n=40 v=0
88128 On ch=10 n=40 v=116
88132 On ch=10 n=40 v=0
88224 On ch=10 n=35 v=92
88228 On ch=10 n=35 v=0
88320 On ch=10 n=42 v=127
88320 On ch=10 n=35 v=78
88320 On ch=10 n=49 v=78
88324 On ch=10 n=42 v=0
88324 On ch=10 n=35 v=0
88324 On ch=10 n=49 v=0
88416 On ch=10 n=42 v=74
88420 On ch=10 n=42 v=0
88512 On ch=10 n=42 v=102
88512 On ch=10 n=40 v=116
88516 On ch=10 n=42 v=0
88516 On ch=10 n=40 v=0
88608 On ch=10 n=42 v=74
88608 On ch=10 n=35 v=50
88612 On ch=10 n=42 v=0
88612 On ch=10 n=35 v=0
88704 On ch=10 n=42 v=116
88704 On ch=10 n=35 v=78
88708 On ch=10 n=42 v=0
88708 On ch=10 n=35 v=0
88800 On ch=10 n=42 v=74
88800 On ch=10 n=35 v=64
88804 On ch=10 n=42 v=0
88804 On ch=10 n=35 v=0
88896 On ch=10 n=42 v=102
88896 On ch=10 n=40 v=116
88900 On ch=10 n=42 v=0
88900 On ch=10 n=40 v=0
88992 On ch=10 n=42 v=74
88992 On ch=10 n=35 v=50
88996 On ch=10 n=42 v=0
88996 On ch=10 n=35 v=0
89088 On ch=10 n=42 v=127
89088 On ch=10 n=35 v=78
89092 On ch=10 n=42 v=0
89092 On ch=10 n=35 v=0
89184 On ch=10 n=42 v=74
89188 On ch=10 n=42 v=0
89280 On ch=10 n=42 v=102
89280 On ch=10 n=40 v=116
89284 On ch=10 n=42 v=0
89284 On ch=10 n=40 v=0
89376 On ch=10 n=42 v=74
89376 On ch=10 n=35 v=50
89380 On ch=10 n=42 v=0
89380 On ch=10 n=35 v=0
89472 On ch=10 n=42 v=116
89472 On ch=10 n=35 v=78
89476 On ch=10 n=42 v=0
89476 On ch=10 n=35 v=0
89568 On ch=10 n=42 v=74
89568 On ch=10 n=35 v=64
89572 On ch=10 n=42 v=0
89572 On ch=10 n=35 v=0
89664 On ch=10 n=42 v=102
89664 On ch=10 n=40 v=116
89668 On ch=10 n=42 v=0
89668 On ch=10 n=40 v=0
89760 On ch=10 n=42 v=74
89760 On ch=10 n=35 v=50
89764 On ch=10 n=42 v=0
89764 On ch=10 n=35 v=0
89856 On ch=10 n=42 v=127
89856 On ch=10 n=35 v=78
89860 On ch=10 n=42 v=0
89860 On ch=10 n=35 v=0
89952 On ch=10 n=42 v=74
89956 On ch=10 n=42 v=0
90048 On ch=10 n=42 v=102
90048 On ch=10 n=40 v=116
90052 On ch=10 n=42 v=0
90052 On ch=10 n=40 v=0
90144 On ch=10 n=42 v=74
90148 On ch=10 n=42 v=0
90240 On ch=10 n=42 v=116
90240 On ch=10 n=35 v=78
90244 On ch=10 n=42 v=0
90244 On ch=10 n=35 v=0
90336 On ch=10 n=42 v=74
90336 On ch=10 n=35 v=64
90340 On ch=10 n=42 v=0
90340 On ch=10 n=35 v=0
90432 On ch=10 n=42 v=102
90432 On ch=10 n=40 v=116
90436 On ch=10 n=42 v=0
90436 On ch=10 n=40 v=0
90528 On ch=10 n=42 v=74
90528 On ch=10 n=35 v=50
90532 On ch=10 n=42 v=0
90532 On ch=10 n=35 v=0
90624 On ch=10 n=42 v=127
90624 On ch=10 n=35 v=78
90628 On ch=10 n=42 v=0
90628 On ch=10 n=35 v=0
90720 On ch=10 n=42 v=74
90720 On ch=10 n=35 v=64
90724 On ch=10 n=42 v=0
90724 On ch=10 n=35 v=0
90816 On ch=10 n=42 v=102
90816 On ch=10 n=40 v=116
90820 On ch=10 n=42 v=0
90820 On ch=10 n=40 v=0
90912 On ch=10 n=42 v=74
90912 On ch=10 n=35 v=50
90916 On ch=10 n=42 v=0
90916 On ch=10 n=35 v=0
91008 On ch=10 n=42 v=116
91008 On ch=10 n=35 v=78
91012 On ch=10 n=42 v=0
91012 On ch=10 n=35 v=0
91104 On ch=10 n=42 v=74
91104 On ch=10 n=35 v=64
91108 On ch=10 n=42 v=0
91108 On ch=10 n=35 v=0
91200 On ch=10 n=42 v=102
91200 On ch=10 n=40 v=116
91204 On ch=10 n=42 v=0
91204 On ch=10 n=40 v=0
91296 On ch=10 n=42 v=74
91296 On ch=10 n=35 v=50
91300 On ch=10 n=42 v=0
91300 On ch=10 n=35 v=0
91392 On ch=10 n=42 v=127
91392 On ch=10 n=35 v=78
91396 On ch=10 n=42 v=0
91396 On ch=10 n=35 v=0
91488 On ch=10 n=42 v=74
91492 On ch=10 n=42 v=0
91584 On ch=10 n=42 v=102
91584 On ch=10 n=40 v=116
91588 On ch=10 n=42 v=0
91588 On ch=10 n=40 v=0
91680 On ch=10 n=42 v=74
91684 On ch=10 n=42 v=0
91776 On ch=10 n=42 v=116
91776 On ch=10 n=35 v=78
91780 On ch=10 n=42 v=0
91780 On ch=10 n=35 v=0
91872 On ch=10 n=42 v=74
91872 On ch=10 n=35 v=64
91876 On ch=10 n=42 v=0
91876 On ch=10 n=35 v=0
91968 On ch=10 n=42 v=102
91968 On ch=10 n=40 v=116
91972 On ch=10 n=42 v=0
91972 On ch=10 n=40 v=0
92064 On ch=10 n=42 v=74
92064 On ch=10 n=35 v=50
92068 On ch=10 n=42 v=0
92068 On ch=10 n=35 v=0
92160 On ch=10 n=42 v=127
92160 On ch=10 n=35 v=78
92164 On ch=10 n=42 v=0
92164 On ch=10 n=35 v=0
92256 On ch=10 n=42 v=74
92260 On ch=10 n=42 v=0
92352 On ch=10 n=42 v=102
92352 On ch=10 n=40 v=116
92356 On ch=10 n=42 v=0
92356 On ch=10 n=40 v=0
92448 On ch=10 n=42 v=74
92448 On ch=10 n=35 v=50
92452 On ch=10 n=42 v=0
92452 On ch=10 n=35 v=0
92544 On ch=10 n=42 v=116
92544 On ch=10 n=35 v=78
92548 On ch=10 n=42 v=0
92548 On ch=10 n=35 v=0
92640 On ch=10 n=42 v=74
92640 On ch=10 n=35 v=64
92644 On ch=10 n=42 v=0
92644 On ch=10 n=35 v=0
92736 On ch=10 n=42 v=102
92736 On ch=10 n=40 v=116
92740 On ch=10 n=42 v=0
92740 On ch=10 n=40 v=0
92832 On ch=10 n=42 v=74
92832 On ch=10 n=35 v=50
92836 On ch=10 n=42 v=0
92836 On ch=10 n=35 v=0
92928 On ch=10 n=42 v=127
92928 On ch=10 n=35 v=78
92932 On ch=10 n=42 v=0
92932 On ch=10 n=35 v=0
93024 On ch=10 n=42 v=74
93024 On ch=10 n=35 v=64
93028 On ch=10 n=42 v=0
93028 On ch=10 n=35 v=0
93120 On ch=10 n=42 v=102
93120 On ch=10 n=40 v=116
93124 On ch=10 n=42 v=0
93124 On ch=10 n=40 v=0
93216 On ch=10 n=42 v=74
93220 On ch=10 n=42 v=0
93312 On ch=10 n=42 v=118
93312 On ch=10 n=35 v=80
93316 On ch=10 n=42 v=0
93316 On ch=10 n=35 v=0
93408 On ch=10 n=42 v=76
93408 On ch=10 n=35 v=66
93412 On ch=10 n=42 v=0
93412 On ch=10 n=35 v=0
93504 On ch=10 n=42 v=104
93504 On ch=10 n=40 v=118
93508 On ch=10 n=42 v=0
93508 On ch=10 n=40 v=0
93600 On ch=10 n=42 v=76
93600 On ch=10 n=35 v=52
93604 On ch=10 n=42 v=0
93604 On ch=10 n=35 v=0
93696 On ch=10 n=42 v=127
93696 On ch=10 n=35 v=82
93700 On ch=10 n=42 v=0
93700 On ch=10 n=35 v=0
93792 On ch=10 n=42 v=78
93792 On ch=10 n=35 v=68
93796 On ch=10 n=42 v=0
93796 On ch=10 n=35 v=0
93888 On ch=10 n=42 v=106
93888 On ch=10 n=40 v=100
93892 On ch=10 n=42 v=0
93892 On ch=10 n=40 v=0
93984 On ch=10 n=42 v=78
93984 On ch=10 n=35 v=68
93988 On ch=10 n=42 v=0
93988 On ch=10 n=35 v=0
94080 On ch=10 n=42 v=122
94080 On ch=10 n=40 v=110
94084 On ch=10 n=42 v=0
94084 On ch=10 n=40 v=0
94176 On ch=10 n=42 v=88
94176 On ch=10 n=35 v=70
94180 On ch=10 n=42 v=0
94180 On ch=10 n=35 v=0
94272 On ch=10 n=42 v=127
94272 On ch=10 n=40 v=120
94276 On ch=10 n=42 v=0
94276 On ch=10 n=40 v=0
94368 On ch=10 n=42 v=102
94368 On ch=10 n=35 v=56
94372 On ch=10 n=42 v=0
94372 On ch=10 n=35 v=0
94460 Par ch=10 c=7 v=127
94464 On ch=10 n=42 v=88
94464 On ch=10 n=35 v=78
94464 On ch=10 n=49 v=64
94468 On ch=10 n=42 v=0
94468 On ch=10 n=35 v=0
94468 On ch=10 n=49 v=0
94516 Par ch=10 c=7 v=126
94560 On ch=10 n=42 v=74
94560 On ch=10 n=35 v=64
94564 On ch=10 n=42 v=0
94564 On ch=10 n=35 v=0
94564 Par ch=10 c=7 v=125
94612 Par ch=10 c=7 v=124
94656 On ch=10 n=42 v=60
94656 On ch=10 n=40 v=116
94660 On ch=10 n=42 v=0
94660 On ch=10 n=40 v=0
94660 Par ch=10 c=7 v=123
94708 Par ch=10 c=7 v=122
94752 On ch=10 n=42 v=74
94752 On ch=10 n=35 v=50
94756 On ch=10 n=42 v=0
94756 On ch=10 n=35 v=0
94756 Par ch=10 c=7 v=121
94804 Par ch=10 c=7 v=120
94848 On ch=10 n=42 v=88
94848 On ch=10 n=35 v=78
94852 On ch=10 n=42 v=0
94852 On ch=10 n=35 v=0
94852 Par ch=10 c=7 v=119
94900 Par ch=10 c=7 v=118
94944 On ch=10 n=42 v=74
94944 On ch=10 n=35 v=64
94948 On ch=10 n=42 v=0
94948 On ch=10 n=35 v=0
94948 Par ch=10 c=7 v=117
94996 Par ch=10 c=7 v=116
95040 On ch=10 n=42 v=60
95040 On ch=10 n=40 v=116
95044 On ch=10 n=42 v=0
95044 On ch=10 n=40 v=0
95048 Par ch=10 c=7 v=115
95096 Par ch=10 c=7 v=114
95136 On ch=10 n=42 v=74
95136 On ch=10 n=35 v=50
95140 On ch=10 n=42 v=0
95140 On ch=10 n=35 v=0
95144 Par ch=10 c=7 v=113
95192 Par ch=10 c=7 v=112
95232 On ch=10 n=42 v=88
95232 On ch=10 n=35 v=78
95236 On ch=10 n=42 v=0
95236 On ch=10 n=35 v=0
95240 Par ch=10 c=7 v=111
95288 Par ch=10 c=7 v=110
95328 On ch=10 n=42 v=74
95328 On ch=10 n=35 v=64
95332 On ch=10 n=42 v=0
95332 On ch=10 n=35 v=0
95336 Par ch=10 c=7 v=109
95384 Par ch=10 c=7 v=108
95424 On ch=10 n=42 v=60
95424 On ch=10 n=40 v=116
95428 On ch=10 n=42 v=0
95428 On ch=10 n=40 v=0
95432 Par ch=10 c=7 v=107
95480 Par ch=10 c=7 v=106
95520 On ch=10 n=42 v=74
95520 On ch=10 n=35 v=50
95524 On ch=10 n=42 v=0
95524 On ch=10 n=35 v=0
95528 Par ch=10 c=7 v=105
95576 Par ch=10 c=7 v=104
95616 On ch=10 n=42 v=88
95616 On ch=10 n=35 v=78
95620 On ch=10 n=42 v=0
95620 On ch=10 n=35 v=0
95628 Par ch=10 c=7 v=103
95676 Par ch=10 c=7 v=102
95712 On ch=10 n=42 v=74
95712 On ch=10 n=35 v=64
95716 On ch=10 n=42 v=0
95716 On ch=10 n=35 v=0
95724 Par ch=10 c=7 v=101
95772 Par ch=10 c=7 v=100
95808 On ch=10 n=42 v=60
95808 On ch=10 n=40 v=116
95812 On ch=10 n=42 v=0
95812 On ch=10 n=40 v=0
95820 Par ch=10 c=7 v=99
95868 Par ch=10 c=7 v=98
95904 On ch=10 n=42 v=74
95904 On ch=10 n=35 v=50
95908 On ch=10 n=42 v=0
95908 On ch=10 n=35 v=0
95916 Par ch=10 c=7 v=97
95964 Par ch=10 c=7 v=96
96000 On ch=10 n=42 v=88
96000 On ch=10 n=35 v=78
96004 On ch=10 n=42 v=0
96004 On ch=10 n=35 v=0
96012 Par ch=10 c=7 v=95
96060 Par ch=10 c=7 v=94
96096 On ch=10 n=42 v=74
96096 On ch=10 n=35 v=64
96100 On ch=10 n=42 v=0
96100 On ch=10 n=35 v=0
96108 Par ch=10 c=7 v=93
96160 Par ch=10 c=7 v=92
96192 On ch=10 n=42 v=60
96192 On ch=10 n=40 v=116
96196 On ch=10 n=42 v=0
96196 On ch=10 n=40 v=0
96208 Par ch=10 c=7 v=91
96256 Par ch=10 c=7 v=90
96288 On ch=10 n=42 v=74
96288 On ch=10 n=35 v=50
96292 On ch=10 n=42 v=0
96292 On ch=10 n=35 v=0
96304 Par ch=10 c=7 v=89
96352 Par ch=10 c=7 v=88
96384 On ch=10 n=42 v=88
96384 On ch=10 n=35 v=78
96388 On ch=10 n=42 v=0
96388 On ch=10 n=35 v=0
96400 Par ch=10 c=7 v=87
96448 Par ch=10 c=7 v=86
96480 On ch=10 n=42 v=74
96480 On ch=10 n=35 v=64
96484 On ch=10 n=42 v=0
96484 On ch=10 n=35 v=0
96496 Par ch=10 c=7 v=85
96544 Par ch=10 c=7 v=84
96576 On ch=10 n=42 v=60
96576 On ch=10 n=40 v=116
96580 On ch=10 n=42 v=0
96580 On ch=10 n=40 v=0
96592 Par ch=10 c=7 v=83
96640 Par ch=10 c=7 v=82
96672 On ch=10 n=42 v=74
96672 On ch=10 n=35 v=50
96676 On ch=10 n=42 v=0
96676 On ch=10 n=35 v=0
96688 Par ch=10 c=7 v=81
96740 Par ch=10 c=7 v=80
96768 On ch=10 n=42 v=88
96768 On ch=10 n=35 v=78
96772 On ch=10 n=42 v=0
96772 On ch=10 n=35 v=0
96788 Par ch=10 c=7 v=79
96836 Par ch=10 c=7 v=78
96864 On ch=10 n=42 v=74
96864 On ch=10 n=35 v=64
96868 On ch=10 n=42 v=0
96868 On ch=10 n=35 v=0
96884 Par ch=10 c=7 v=77
96932 Par ch=10 c=7 v=76
96960 On ch=10 n=42 v=60
96960 On ch=10 n=40 v=116
96964 On ch=10 n=42 v=0
96964 On ch=10 n=40 v=0
96980 Par ch=10 c=7 v=75
97028 Par ch=10 c=7 v=74
97056 On ch=10 n=42 v=74
97056 On ch=10 n=35 v=50
97060 On ch=10 n=42 v=0
97060 On ch=10 n=35 v=0
97076 Par ch=10 c=7 v=73
97124 Par ch=10 c=7 v=72
97152 On ch=10 n=42 v=88
97152 On ch=10 n=35 v=78
97156 On ch=10 n=42 v=0
97156 On ch=10 n=35 v=0
97172 Par ch=10 c=7 v=71
97220 Par ch=10 c=7 v=70
97248 On ch=10 n=42 v=74
97248 On ch=10 n=35 v=64
97252 On ch=10 n=42 v=0
97252 On ch=10 n=35 v=0
97272 Par ch=10 c=7 v=69
97320 Par ch=10 c=7 v=68
97344 On ch=10 n=42 v=60
97344 On ch=10 n=40 v=116
97348 On ch=10 n=42 v=0
97348 On ch=10 n=40 v=0
97368 Par ch=10 c=7 v=67
97416 Par ch=10 c=7 v=66
97440 On ch=10 n=42 v=74
97440 On ch=10 n=35 v=50
97444 On ch=10 n=42 v=0
97444 On ch=10 n=35 v=0
97464 Par ch=10 c=7 v=65
97512 Par ch=10 c=7 v=64
97536 On ch=10 n=42 v=88
97536 On ch=10 n=35 v=78
97540 On ch=10 n=42 v=0
97540 On ch=10 n=35 v=0
97560 Par ch=10 c=7 v=63
97608 Par ch=10 c=7 v=62
97632 On ch=10 n=42 v=74
97632 On ch=10 n=35 v=64
97636 On ch=10 n=42 v=0
97636 On ch=10 n=35 v=0
97656 Par ch=10 c=7 v=61
97704 Par ch=10 c=7 v=60
97728 On ch=10 n=42 v=60
97728 On ch=10 n=40 v=116
97732 On ch=10 n=42 v=0
97732 On ch=10 n=40 v=0
97752 Par ch=10 c=7 v=59
97800 Par ch=10 c=7 v=58
97824 On ch=10 n=42 v=74
97824 On ch=10 n=35 v=50
97828 On ch=10 n=42 v=0
97828 On ch=10 n=35 v=0
97852 Par ch=10 c=7 v=57
97900 Par ch=10 c=7 v=56
97920 On ch=10 n=42 v=88
97920 On ch=10 n=35 v=78
97924 On ch=10 n=42 v=0
97924 On ch=10 n=35 v=0
97948 Par ch=10 c=7 v=55
97996 Par ch=10 c=7 v=54
98016 On ch=10 n=42 v=74
98016 On ch=10 n=35 v=64
98020 On ch=10 n=42 v=0
98020 On ch=10 n=35 v=0
98044 Par ch=10 c=7 v=53
98092 Par ch=10 c=7 v=52
98112 On ch=10 n=42 v=60
98112 On ch=10 n=40 v=116
98116 On ch=10 n=42 v=0
98116 On ch=10 n=40 v=0
98140 Par ch=10 c=7 v=51
98188 Par ch=10 c=7 v=50
98208 On ch=10 n=42 v=74
98208 On ch=10 n=35 v=50
98212 On ch=10 n=42 v=0
98212 On ch=10 n=35 v=0
98236 Par ch=10 c=7 v=49
98284 Par ch=10 c=7 v=48
98304 On ch=10 n=42 v=88
98304 On ch=10 n=35 v=78
98308 On ch=10 n=42 v=0
98308 On ch=10 n=35 v=0
98332 Par ch=10 c=7 v=47
98384 Par ch=10 c=7 v=46
98400 On ch=10 n=42 v=74
98400 On ch=10 n=35 v=64
98404 On ch=10 n=42 v=0
98404 On ch=10 n=35 v=0
98432 Par ch=10 c=7 v=45
98480 Par ch=10 c=7 v=44
98496 On ch=10 n=42 v=60
98496 On ch=10 n=40 v=116
98500 On ch=10 n=42 v=0
98500 On ch=10 n=40 v=0
98528 Par ch=10 c=7 v=43
98576 Par ch=10 c=7 v=42
98592 On ch=10 n=42 v=74
98592 On ch=10 n=35 v=50
98596 On ch=10 n=42 v=0
98596 On ch=10 n=35 v=0
98624 Par ch=10 c=7 v=41
98672 Par ch=10 c=7 v=40
98688 On ch=10 n=42 v=88
98688 On ch=10 n=35 v=78
98692 On ch=10 n=42 v=0
98692 On ch=10 n=35 v=0
98720 Par ch=10 c=7 v=39
98768 Par ch=10 c=7 v=38
98784 On ch=10 n=42 v=74
98784 On ch=10 n=35 v=64
98788 On ch=10 n=42 v=0
98788 On ch=10 n=35 v=0
98816 Par ch=10 c=7 v=37
98864 Par ch=10 c=7 v=36
98880 On ch=10 n=42 v=60
98880 On ch=10 n=40 v=116
98884 On ch=10 n=42 v=0
98884 On ch=10 n=40 v=0
98912 Par ch=10 c=7 v=35
98964 Par ch=10 c=7 v=34
98976 On ch=10 n=42 v=74
98976 On ch=10 n=35 v=50
98980 On ch=10 n=42 v=0
98980 On ch=10 n=35 v=0
99012 Par ch=10 c=7 v=33
99060 Par ch=10 c=7 v=32
99072 On ch=10 n=42 v=88
99072 On ch=10 n=35 v=78
99076 On ch=10 n=42 v=0
99076 On ch=10 n=35 v=0
99108 Par ch=10 c=7 v=31
99156 Par ch=10 c=7 v=30
99168 On ch=10 n=42 v=74
99168 On ch=10 n=35 v=64
99172 On ch=10 n=42 v=0
99172 On ch=10 n=35 v=0
99204 Par ch=10 c=7 v=29
99252 Par ch=10 c=7 v=28
99264 On ch=10 n=42 v=60
99264 On ch=10 n=40 v=116
99268 On ch=10 n=42 v=0
99268 On ch=10 n=40 v=0
99300 Par ch=10 c=7 v=27
99348 Par ch=10 c=7 v=26
99360 On ch=10 n=42 v=74
99360 On ch=10 n=35 v=50
99364 On ch=10 n=42 v=0
99364 On ch=10 n=35 v=0
99396 Par ch=10 c=7 v=25
99444 Par ch=10 c=7 v=24
99456 On ch=10 n=42 v=88
99456 On ch=10 n=35 v=78
99460 On ch=10 n=42 v=0
99460 On ch=10 n=35 v=0
99496 Par ch=10 c=7 v=23
99544 Par ch=10 c=7 v=22
99552 On ch=10 n=42 v=74
99552 On ch=10 n=35 v=64
99556 On ch=10 n=42 v=0
99556 On ch=10 n=35 v=0
99592 Par ch=10 c=7 v=21
99640 Par ch=10 c=7 v=20
99648 On ch=10 n=42 v=60
99648 On ch=10 n=40 v=116
99652 On ch=10 n=42 v=0
99652 On ch=10 n=40 v=0
99688 Par ch=10 c=7 v=19
99736 Par ch=10 c=7 v=18
99744 On ch=10 n=42 v=74
99744 On ch=10 n=35 v=50
99748 On ch=10 n=42 v=0
99748 On ch=10 n=35 v=0
99784 Par ch=10 c=7 v=17
99832 Par ch=10 c=7 v=16
99840 On ch=10 n=42 v=88
99840 On ch=10 n=35 v=78
99844 On ch=10 n=42 v=0
99844 On ch=10 n=35 v=0
99880 Par ch=10 c=7 v=15
99928 Par ch=10 c=7 v=14
99936 On ch=10 n=42 v=74
99936 On ch=10 n=35 v=64
99940 On ch=10 n=42 v=0
99940 On ch=10 n=35 v=0
99976 Par ch=10 c=7 v=13
100024 Par ch=10 c=7 v=12
100032 On ch=10 n=42 v=60
100032 On ch=10 n=40 v=116
100036 On ch=10 n=42 v=0
100036 On ch=10 n=40 v=0
100076 Par ch=10 c=7 v=11
100124 Par ch=10 c=7 v=10
100128 On ch=10 n=42 v=74
100128 On ch=10 n=35 v=70
100132 On ch=10 n=42 v=0
100132 On ch=10 n=35 v=0
100172 Par ch=10 c=7 v=9
100220 Par ch=10 c=7 v=8
100224 On ch=10 n=42 v=88
100228 On ch=10 n=42 v=0
100268 Par ch=10 c=7 v=7
100316 Par ch=10 c=7 v=6
100320 On ch=10 n=42 v=74
100320 On ch=10 n=35 v=80
100324 On ch=10 n=42 v=0
100324 On ch=10 n=35 v=0
100364 Par ch=10 c=7 v=5
100412 Par ch=10 c=7 v=4
100416 On ch=10 n=40 v=116
100420 On ch=10 n=40 v=0
100460 Par ch=10 c=7 v=3
100508 Par ch=10 c=7 v=2
100512 On ch=10 n=35 v=50
100512 On ch=10 n=49 v=92
100516 On ch=10 n=35 v=0
100516 On ch=10 n=49 v=0
100556 Par ch=10 c=7 v=1
100604 Par ch=10 c=7 v=0
100604 Meta TrkEnd
TrkEnd
MTrk
0 Meta TrkName "RHYTHM OF LOVE  "
192 Par ch=8 c=121 v=0
196 Par ch=8 c=100 v=0
200 Par ch=8 c=101 v=0
204 Par ch=8 c=6 v=12
208 Par ch=8 c=7 v=97
212 Par ch=8 c=11 v=100
216 Par ch=8 c=10 v=20
384 Par ch=8 c=0 v=0
388 Par ch=8 c=32 v=0
392 PrCh ch=8 p=73
396 Par ch=8 c=91 v=90
400 Par ch=8 c=127 v=0
3936 On ch=8 n=90 v=85
3964 On ch=8 n=90 v=0
3964 On ch=8 n=91 v=80
3992 On ch=8 n=91 v=0
3992 On ch=8 n=90 v=85
4020 On ch=8 n=90 v=0
4020 On ch=8 n=91 v=80
4048 On ch=8 n=91 v=0
4048 On ch=8 n=90 v=85
4076 On ch=8 n=90 v=0
4076 On ch=8 n=91 v=80
4104 On ch=8 n=91 v=0
4104 On ch=8 n=90 v=85
4132 On ch=8 n=90 v=0
4132 On ch=8 n=91 v=80
4160 On ch=8 n=91 v=0
4160 On ch=8 n=90 v=85
4188 On ch=8 n=90 v=0
4188 On ch=8 n=91 v=80
4216 On ch=8 n=91 v=0
4216 On ch=8 n=90 v=85
4244 On ch=8 n=90 v=0
4244 On ch=8 n=91 v=80
4272 On ch=8 n=91 v=0
4272 On ch=8 n=90 v=85
4300 On ch=8 n=90 v=0
4300 On ch=8 n=91 v=80
4328 On ch=8 n=91 v=0
4328 On ch=8 n=90 v=85
4356 On ch=8 n=90 v=0
4356 On ch=8 n=91 v=80
4384 On ch=8 n=91 v=0
4384 On ch=8 n=90 v=85
4412 On ch=8 n=90 v=0
4412 On ch=8 n=91 v=80
4440 On ch=8 n=91 v=0
4440 On ch=8 n=90 v=85
4468 On ch=8 n=90 v=0
4468 On ch=8 n=91 v=80
4496 On ch=8 n=91 v=0
4496 On ch=8 n=90 v=77
4524 On ch=8 n=90 v=0
4524 On ch=8 n=91 v=82
4552 On ch=8 n=91 v=0
4552 On ch=8 n=90 v=75
4580 On ch=8 n=90 v=0
4580 On ch=8 n=91 v=70
4608 On ch=8 n=91 v=0
4608 On ch=8 n=90 v=65
4636 On ch=8 n=90 v=0
4636 On ch=8 n=91 v=60
4664 On ch=8 n=91 v=0
4664 On ch=8 n=90 v=55
4692 On ch=8 n=90 v=0
4692 On ch=8 n=91 v=50
4720 On ch=8 n=91 v=0
4720 On ch=8 n=90 v=45
4748 On ch=8 n=90 v=0
4748 On ch=8 n=91 v=40
4776 On ch=8 n=91 v=0
4776 On ch=8 n=90 v=35
4804 On ch=8 n=90 v=0
4804 On ch=8 n=91 v=30
4832 On ch=8 n=91 v=0
4832 On ch=8 n=90 v=20
4860 On ch=8 n=90 v=0
4860 On ch=8 n=91 v=10
4888 On ch=8 n=91 v=0
5336 On ch=8 n=83 v=60
5368 On ch=8 n=83 v=0
5368 On ch=8 n=85 v=60
5400 On ch=8 n=85 v=0
5400 On ch=8 n=83 v=60
5432 On ch=8 n=83 v=0
5432 On ch=8 n=85 v=60
5464 On ch=8 n=85 v=0
5464 On ch=8 n=83 v=60
5496 On ch=8 n=83 v=0
5496 On ch=8 n=85 v=60
5528 On ch=8 n=85 v=0
5528 On ch=8 n=83 v=60
5560 On ch=8 n=83 v=0
5560 On ch=8 n=85 v=60
5592 On ch=8 n=85 v=0
5592 On ch=8 n=83 v=60
5624 On ch=8 n=83 v=0
5624 On ch=8 n=85 v=60
5656 On ch=8 n=85 v=0
5656 On ch=8 n=83 v=60
5688 On ch=8 n=83 v=0
5688 On ch=8 n=85 v=60
5720 On ch=8 n=85 v=0
5720 On ch=8 n=83 v=58
5752 On ch=8 n=83 v=0
5752 On ch=8 n=85 v=54
5784 On ch=8 n=85 v=0
5784 On ch=8 n=83 v=50
5816 On ch=8 n=83 v=0
5816 On ch=8 n=85 v=45
5848 On ch=8 n=85 v=0
5848 On ch=8 n=83 v=40
5880 On ch=8 n=83 v=0
5880 On ch=8 n=85 v=35
5912 On ch=8 n=85 v=0
5912 On ch=8 n=83 v=30
5944 On ch=8 n=83 v=0
5944 On ch=8 n=85 v=25
5976 On ch=8 n=85 v=0
5976 On ch=8 n=83 v=20
6008 On ch=8 n=83 v=0
6008 On ch=8 n=85 v=15
6040 On ch=8 n=85 v=0
6040 On ch=8 n=83 v=10
6072 On ch=8 n=83 v=0
6072 On ch=8 n=85 v=5
6104 On ch=8 n=85 v=0
6240 On ch=8 n=90 v=85
6268 On ch=8 n=90 v=0
6268 On ch=8 n=91 v=80
6296 On ch=8 n=91 v=0
6296 On ch=8 n=90 v=85
6324 On ch=8 n=90 v=0
6324 On ch=8 n=91 v=80
6352 On ch=8 n=91 v=0
6352 On ch=8 n=90 v=85
6380 On ch=8 n=90 v=0
6380 On ch=8 n=91 v=80
6408 On ch=8 n=91 v=0
6408 On ch=8 n=90 v=85
6436 On ch=8 n=90 v=0
6436 On ch=8 n=91 v=80
6464 On ch=8 n=91 v=0
6464 On ch=8 n=90 v=85
6492 On ch=8 n=90 v=0
6492 On ch=8 n=91 v=80
6520 On ch=8 n=91 v=0
6520 On ch=8 n=90 v=82
6548 On ch=8 n=90 v=0
6548 On ch=8 n=91 v=77
6576 On ch=8 n=91 v=0
6576 On ch=8 n=90 v=78
6604 On ch=8 n=90 v=0
6604 On ch=8 n=91 v=73
6632 On ch=8 n=91 v=0
6632 On ch=8 n=90 v=74
6660 On ch=8 n=90 v=0
6660 On ch=8 n=91 v=69
6688 On ch=8 n=91 v=0
6688 On ch=8 n=90 v=70
6716 On ch=8 n=90 v=0
6716 On ch=8 n=91 v=65
6744 On ch=8 n=91 v=0
6744 On ch=8 n=90 v=66
6772 On ch=8 n=90 v=0
6772 On ch=8 n=91 v=61
6800 On ch=8 n=91 v=0
6800 On ch=8 n=90 v=62
6828 On ch=8 n=90 v=0
6828 On ch=8 n=91 v=57
6856 On ch=8 n=91 v=0
6856 On ch=8 n=90 v=58
6884 On ch=8 n=90 v=0
6884 On ch=8 n=91 v=53
6912 On ch=8 n=91 v=0
6912 On ch=8 n=90 v=54
6940 On ch=8 n=90 v=0
6940 On ch=8 n=91 v=49
6968 On ch=8 n=91 v=0
6968 On ch=8 n=90 v=50
6996 On ch=8 n=90 v=0
6996 On ch=8 n=91 v=45
7024 On ch=8 n=91 v=0
7024 On ch=8 n=90 v=46
7052 On ch=8 n=90 v=0
7052 On ch=8 n=91 v=41
7080 On ch=8 n=91 v=0
7080 On ch=8 n=90 v=42
7108 On ch=8 n=90 v=0
7108 On ch=8 n=91 v=37
7136 On ch=8 n=91 v=0
7136 On ch=8 n=90 v=38
7164 On ch=8 n=90 v=0
7164 On ch=8 n=91 v=33
7192 On ch=8 n=91 v=0
7192 On ch=8 n=90 v=34
7220 On ch=8 n=90 v=0
7220 On ch=8 n=91 v=29
7248 On ch=8 n=91 v=0
7248 On ch=8 n=90 v=30
7276 On ch=8 n=90 v=0
7276 On ch=8 n=91 v=24
7304 On ch=8 n=91 v=0
7304 On ch=8 n=90 v=26
7332 On ch=8 n=90 v=0
7332 On ch=8 n=91 v=21
7360 On ch=8 n=91 v=0
7360 On ch=8 n=90 v=22
7388 On ch=8 n=90 v=0
7388 On ch=8 n=91 v=17
7416 On ch=8 n=91 v=0
7416 On ch=8 n=90 v=18
7444 On ch=8 n=90 v=0
7444 On ch=8 n=91 v=13
7472 On ch=8 n=91 v=0
12288 Par ch=8 c=91 v=100
12672 PrCh ch=8 p=29
13056 On ch=8 n=62 v=95
13056 On ch=8 n=50 v=85
13104 On ch=8 n=50 v=0
13144 On ch=8 n=62 v=0
13152 On ch=8 n=50 v=75
13200 On ch=8 n=50 v=0
13248 On ch=8 n=57 v=75
13248 On ch=8 n=50 v=85
13296 On ch=8 n=50 v=0
13336 On ch=8 n=57 v=0
13344 On ch=8 n=50 v=75
13392 On ch=8 n=50 v=0
13440 On ch=8 n=60 v=85
13440 On ch=8 n=50 v=85
13488 On ch=8 n=50 v=0
13528 On ch=8 n=60 v=0
13536 On ch=8 n=50 v=75
13584 On ch=8 n=50 v=0
13632 On ch=8 n=57 v=75
13632 On ch=8 n=50 v=75
13680 On ch=8 n=50 v=0
13712 On ch=8 n=57 v=0
13728 On ch=8 n=62 v=90
13728 On ch=8 n=50 v=85
13776 On ch=8 n=50 v=0
13816 On ch=8 n=62 v=0
13824 On ch=8 n=50 v=75
13872 On ch=8 n=50 v=0
13920 On ch=8 n=57 v=75
13920 On ch=8 n=50 v=75
13968 On ch=8 n=50 v=0
14008 On ch=8 n=57 v=0
14016 On ch=8 n=50 v=75
14064 On ch=8 n=50 v=0
14112 On ch=8 n=60 v=80
14112 On ch=8 n=50 v=75
14160 On ch=8 n=50 v=0
14200 On ch=8 n=60 v=0
14208 On ch=8 n=60 v=90
14208 On ch=8 n=50 v=75
14256 On ch=8 n=50 v=0
14304 On ch=8 n=60 v=0
14304 On ch=8 n=50 v=75
14352 On ch=8 n=50 v=0
14400 On ch=8 n=57 v=75
14400 On ch=8 n=50 v=75
14448 On ch=8 n=50 v=0
14480 On ch=8 n=57 v=0
14496 On ch=8 n=67 v=95
14496 On ch=8 n=55 v=85
14584 On ch=8 n=67 v=0
14584 On ch=8 n=55 v=0
14592 On ch=8 n=55 v=75
14640 On ch=8 n=55 v=0
14688 On ch=8 n=55 v=75
14736 On ch=8 n=55 v=0
14784 On ch=8 n=62 v=80
14784 On ch=8 n=55 v=80
14832 On ch=8 n=55 v=0
14872 On ch=8 n=62 v=0
14880 On ch=8 n=55 v=75
14928 On ch=8 n=55 v=0
14976 On ch=8 n=65 v=85
14976 On ch=8 n=55 v=75
15024 On ch=8 n=55 v=0
15056 On ch=8 n=65 v=0
15072 On ch=8 n=55 v=75
15120 On ch=8 n=55 v=0
15168 On ch=8 n=62 v=75
15168 On ch=8 n=55 v=80
15216 On ch=8 n=55 v=0
15248 On ch=8 n=62 v=0
15264 On ch=8 n=67 v=95
15264 On ch=8 n=55 v=85
15312 On ch=8 n=55 v=0
15352 On ch=8 n=67 v=0
15360 On ch=8 n=55 v=75
15408 On ch=8 n=55 v=0
15456 On ch=8 n=62 v=75
15456 On ch=8 n=55 v=75
15504 On ch=8 n=55 v=0
15544 On ch=8 n=62 v=0
15552 On ch=8 n=55 v=75
15600 On ch=8 n=55 v=0
15648 On ch=8 n=65 v=80
15648 On ch=8 n=55 v=75
15696 On ch=8 n=55 v=0
15728 On ch=8 n=65 v=0
15744 On ch=8 n=65 v=100
15744 On ch=8 n=55 v=75
15792 On ch=8 n=55 v=0
15824 On ch=8 n=65 v=0
15840 On ch=8 n=55 v=75
15888 On ch=8 n=55 v=0
15936 On ch=8 n=62 v=65
15936 On ch=8 n=55 v=85
15984 On ch=8 n=55 v=0
16016 On ch=8 n=62 v=0
16032 On ch=8 n=62 v=85
16032 On ch=8 n=50 v=85
16080 On ch=8 n=50 v=0
16120 On ch=8 n=62 v=0
16128 On ch=8 n=50 v=85
16176 On ch=8 n=50 v=0
16224 On ch=8 n=50 v=75
16272 On ch=8 n=50 v=0
16320 On ch=8 n=57 v=80
16320 On ch=8 n=50 v=80
16368 On ch=8 n=50 v=0
16400 On ch=8 n=57 v=0
16416 On ch=8 n=50 v=75
16464 On ch=8 n=50 v=0
16512 On ch=8 n=60 v=80
16512 On ch=8 n=50 v=75
16560 On ch=8 n=50 v=0
16592 On ch=8 n=60 v=0
16608 On ch=8 n=50 v=75
16656 On ch=8 n=50 v=0
16704 On ch=8 n=57 v=80
16704 On ch=8 n=50 v=75
16752 On ch=8 n=50 v=0
16776 On ch=8 n=57 v=0
16800 On ch=8 n=62 v=90
16800 On ch=8 n=50 v=85
16848 On ch=8 n=50 v=0
16888 On ch=8 n=62 v=0
16896 On ch=8 n=50 v=75
16944 On ch=8 n=50 v=0
16992 On ch=8 n=57 v=75
16992 On ch=8 n=50 v=75
17040 On ch=8 n=50 v=0
17080 On ch=8 n=57 v=0
17088 On ch=8 n=50 v=80
17136 On ch=8 n=50 v=0
17184 On ch=8 n=60 v=80
17184 On ch=8 n=50 v=75
17232 On ch=8 n=50 v=0
17272 On ch=8 n=60 v=0
17280 On ch=8 n=60 v=80
17280 On ch=8 n=50 v=75
17328 On ch=8 n=50 v=0
17344 On ch=8 n=60 v=0
17376 On ch=8 n=50 v=75
17424 On ch=8 n=50 v=0
17472 On ch=8 n=57 v=75
17472 On ch=8 n=50 v=75
17520 On ch=8 n=50 v=0
17560 On ch=8 n=57 v=0
17568 On ch=8 n=67 v=90
17568 On ch=8 n=55 v=85
17664 On ch=8 n=67 v=0
17664 On ch=8 n=55 v=0
17664 On ch=8 n=55 v=75
17712 On ch=8 n=55 v=0
17760 On ch=8 n=55 v=75
17808 On ch=8 n=55 v=0
17856 On ch=8 n=62 v=80
17856 On ch=8 n=55 v=80
17904 On ch=8 n=55 v=0
17936 On ch=8 n=62 v=0
17952 On ch=8 n=55 v=75
18000 On ch=8 n=55 v=0
18048 On ch=8 n=65 v=85
18048 On ch=8 n=55 v=75
18096 On ch=8 n=55 v=0
18128 On ch=8 n=65 v=0
18144 On ch=8 n=55 v=75
18192 On ch=8 n=55 v=0
18240 On ch=8 n=62 v=70
18240 On ch=8 n=55 v=75
18288 On ch=8 n=55 v=0
18328 On ch=8 n=62 v=0
18336 On ch=8 n=67 v=90
18336 On ch=8 n=55 v=85
18384 On ch=8 n=55 v=0
18424 On ch=8 n=67 v=0
18432 On ch=8 n=55 v=75
18480 On ch=8 n=55 v=0
18528 On ch=8 n=62 v=80
18528 On ch=8 n=55 v=75
18576 On ch=8 n=55 v=0
18624 On ch=8 n=62 v=0
18624 On ch=8 n=55 v=80
18672 On ch=8 n=55 v=0
18720 On ch=8 n=65 v=85
18720 On ch=8 n=55 v=75
18768 On ch=8 n=55 v=0
18808 On ch=8 n=65 v=0
18816 On ch=8 n=65 v=95
18816 On ch=8 n=55 v=85
18864 On ch=8 n=55 v=0
18904 On ch=8 n=65 v=0
18912 On ch=8 n=55 v=75
18960 On ch=8 n=55 v=0
19008 On ch=8 n=62 v=65
19008 On ch=8 n=55 v=80
19056 On ch=8 n=55 v=0
19096 On ch=8 n=62 v=0
19104 On ch=8 n=62 v=75
19104 On ch=8 n=50 v=85
19184 On ch=8 n=62 v=0
19184 On ch=8 n=50 v=0
19200 On ch=8 n=62 v=55
19200 On ch=8 n=50 v=75
19248 On ch=8 n=50 v=0
19272 On ch=8 n=62 v=0
19296 On ch=8 n=50 v=75
19344 On ch=8 n=50 v=0
19392 On ch=8 n=57 v=55
19392 On ch=8 n=50 v=75
19440 On ch=8 n=50 v=0
19464 On ch=8 n=57 v=0
19488 On ch=8 n=50 v=80
19536 On ch=8 n=50 v=0
19584 On ch=8 n=60 v=55
19584 On ch=8 n=50 v=75
19632 On ch=8 n=50 v=0
19640 On ch=8 n=60 v=0
19680 On ch=8 n=50 v=75
19728 On ch=8 n=50 v=0
19776 On ch=8 n=57 v=55
19776 On ch=8 n=50 v=75
19824 On ch=8 n=50 v=0
19840 On ch=8 n=57 v=0
19872 On ch=8 n=62 v=70
19872 On ch=8 n=50 v=85
19920 On ch=8 n=50 v=0
19944 On ch=8 n=62 v=0
19968 On ch=8 n=50 v=75
20016 On ch=8 n=50 v=0
20064 On ch=8 n=57 v=50
20064 On ch=8 n=50 v=75
20112 On ch=8 n=50 v=0
20136 On ch=8 n=57 v=0
20160 On ch=8 n=50 v=75
20208 On ch=8 n=50 v=0
20256 On ch=8 n=60 v=52
20256 On ch=8 n=50 v=75
20304 On ch=8 n=50 v=0
20328 On ch=8 n=60 v=0
20352 On ch=8 n=60 v=60
20352 On ch=8 n=50 v=75
20400 On ch=8 n=50 v=0
20416 On ch=8 n=60 v=0
20448 On ch=8 n=50 v=75
20496 On ch=8 n=50 v=0
20544 On ch=8 n=57 v=50
20544 On ch=8 n=50 v=75
20592 On ch=8 n=50 v=0
20616 On ch=8 n=57 v=0
20640 On ch=8 n=67 v=60
20640 On ch=8 n=55 v=85
20712 On ch=8 n=67 v=0
20712 On ch=8 n=55 v=0
20736 On ch=8 n=67 v=60
20736 On ch=8 n=55 v=85
20784 On ch=8 n=55 v=0
20808 On ch=8 n=67 v=0
20832 On ch=8 n=67 v=60
20832 On ch=8 n=55 v=80
20880 On ch=8 n=55 v=0
20904 On ch=8 n=67 v=0
20928 On ch=8 n=62 v=50
20928 On ch=8 n=55 v=75
20976 On ch=8 n=55 v=0
21000 On ch=8 n=62 v=0
21024 On ch=8 n=55 v=75
21072 On ch=8 n=55 v=0
21120 On ch=8 n=65 v=60
21120 On ch=8 n=55 v=75
21168 On ch=8 n=55 v=0
21208 On ch=8 n=65 v=0
21216 On ch=8 n=55 v=75
21264 On ch=8 n=55 v=0
21312 On ch=8 n=62 v=55
21312 On ch=8 n=55 v=80
21360 On ch=8 n=55 v=0
21392 On ch=8 n=62 v=0
21408 On ch=8 n=67 v=55
21408 On ch=8 n=55 v=85
21456 On ch=8 n=55 v=0
21496 On ch=8 n=67 v=0
21504 On ch=8 n=55 v=75
21552 On ch=8 n=55 v=0
21600 On ch=8 n=62 v=60
21600 On ch=8 n=55 v=75
21672 On ch=8 n=62 v=0
21672 On ch=8 n=55 v=0
21696 On ch=8 n=55 v=75
21744 On ch=8 n=55 v=0
21792 On ch=8 n=65 v=55
21792 On ch=8 n=55 v=75
21840 On ch=8 n=55 v=0
21880 On ch=8 n=65 v=0
21888 On ch=8 n=65 v=65
21888 On ch=8 n=55 v=75
21936 On ch=8 n=55 v=0
21960 On ch=8 n=65 v=0
21984 On ch=8 n=55 v=75
22032 On ch=8 n=55 v=0
22080 On ch=8 n=62 v=55
22080 On ch=8 n=55 v=75
22128 On ch=8 n=55 v=0
22152 On ch=8 n=62 v=0
22176 On ch=8 n=62 v=60
22176 On ch=8 n=50 v=85
22264 On ch=8 n=62 v=0
22264 On ch=8 n=50 v=0
22272 On ch=8 n=50 v=75
22320 On ch=8 n=50 v=0
22368 On ch=8 n=50 v=75
22416 On ch=8 n=50 v=0
22464 On ch=8 n=57 v=60
22464 On ch=8 n=50 v=75
22512 On ch=8 n=50 v=0
22552 On ch=8 n=57 v=0
22560 On ch=8 n=50 v=80
22608 On ch=8 n=50 v=0
22656 On ch=8 n=60 v=55
22656 On ch=8 n=50 v=75
22704 On ch=8 n=50 v=0
22720 On ch=8 n=60 v=0
22752 On ch=8 n=50 v=75
22800 On ch=8 n=50 v=0
22848 On ch=8 n=57 v=50
22848 On ch=8 n=50 v=75
22896 On ch=8 n=50 v=0
22920 On ch=8 n=57 v=0
22944 On ch=8 n=62 v=65
22944 On ch=8 n=50 v=85
22992 On ch=8 n=50 v=0
23016 On ch=8 n=62 v=0
23040 On ch=8 n=50 v=75
23088 On ch=8 n=50 v=0
23136 On ch=8 n=57 v=50
23136 On ch=8 n=50 v=75
23184 On ch=8 n=50 v=0
23208 On ch=8 n=57 v=0
23232 On ch=8 n=50 v=75
23280 On ch=8 n=50 v=0
23328 On ch=8 n=60 v=55
23328 On ch=8 n=50 v=75
23376 On ch=8 n=50 v=0
23408 On ch=8 n=60 v=0
23424 On ch=8 n=60 v=60
23424 On ch=8 n=50 v=75
23472 On ch=8 n=50 v=0
23504 On ch=8 n=60 v=0
23520 On ch=8 n=57 v=50
23520 On ch=8 n=50 v=75
23568 On ch=8 n=50 v=0
23600 On ch=8 n=57 v=0
23616 On ch=8 n=50 v=75
23664 On ch=8 n=50 v=0
23712 On ch=8 n=67 v=65
23712 On ch=8 n=55 v=80
23760 On ch=8 n=55 v=0
23808 On ch=8 n=67 v=0
23808 On ch=8 n=55 v=85
23856 On ch=8 n=55 v=0
23904 On ch=8 n=67 v=55
23904 On ch=8 n=55 v=75
23952 On ch=8 n=55 v=0
23976 On ch=8 n=67 v=0
24000 On ch=8 n=55 v=85
24048 On ch=8 n=55 v=0
24096 On ch=8 n=67 v=55
24096 On ch=8 n=55 v=75
24144 On ch=8 n=55 v=0
24168 On ch=8 n=67 v=0
24192 On ch=8 n=65 v=70
24192 On ch=8 n=55 v=85
24240 On ch=8 n=55 v=0
24280 On ch=8 n=65 v=0
24288 On ch=8 n=67 v=55
24288 On ch=8 n=55 v=75
24336 On ch=8 n=55 v=0
24360 On ch=8 n=67 v=0
24384 On ch=8 n=55 v=80
24432 On ch=8 n=55 v=0
24480 On ch=8 n=67 v=65
24480 On ch=8 n=55 v=85
24528 On ch=8 n=55 v=0
24568 On ch=8 n=67 v=0
24576 On ch=8 n=55 v=80
24624 On ch=8 n=55 v=0
24672 On ch=8 n=62 v=55
24672 On ch=8 n=55 v=75
24720 On ch=8 n=55 v=0
24744 On ch=8 n=62 v=0
24768 On ch=8 n=55 v=75
24816 On ch=8 n=55 v=0
24864 On ch=8 n=65 v=60
24864 On ch=8 n=55 v=80
24912 On ch=8 n=55 v=0
24944 On ch=8 n=65 v=0
24960 On ch=8 n=65 v=65
24960 On ch=8 n=55 v=85
25008 On ch=8 n=55 v=0
25032 On ch=8 n=65 v=0
25056 On ch=8 n=55 v=80
25104 On ch=8 n=55 v=0
25152 On ch=8 n=67 v=65
25152 On ch=8 n=55 v=75
25200 On ch=8 n=55 v=0
25224 On ch=8 n=67 v=0
25248 On ch=8 n=62 v=65
25248 On ch=8 n=50 v=85
25296 On ch=8 n=50 v=0
25336 On ch=8 n=62 v=0
25344 On ch=8 n=50 v=75
25392 On ch=8 n=50 v=0
25440 On ch=8 n=50 v=75
25488 On ch=8 n=50 v=0
25536 On ch=8 n=57 v=70
25536 On ch=8 n=50 v=85
25584 On ch=8 n=50 v=0
25616 On ch=8 n=57 v=0
25632 On ch=8 n=50 v=75
25680 On ch=8 n=50 v=0
25728 On ch=8 n=60 v=55
25728 On ch=8 n=50 v=85
25776 On ch=8 n=50 v=0
25808 On ch=8 n=60 v=0
25824 On ch=8 n=50 v=85
25872 On ch=8 n=50 v=0
25920 On ch=8 n=57 v=55
25920 On ch=8 n=50 v=75
25968 On ch=8 n=50 v=0
25984 On ch=8 n=57 v=0
26016 On ch=8 n=62 v=75
26016 On ch=8 n=50 v=85
26064 On ch=8 n=50 v=0
26088 On ch=8 n=62 v=0
26112 On ch=8 n=50 v=75
26160 On ch=8 n=50 v=0
26208 On ch=8 n=57 v=70
26208 On ch=8 n=50 v=85
26256 On ch=8 n=50 v=0
26296 On ch=8 n=57 v=0
26304 On ch=8 n=50 v=75
26352 On ch=8 n=50 v=0
26400 On ch=8 n=60 v=65
26400 On ch=8 n=50 v=80
26448 On ch=8 n=50 v=0
26472 On ch=8 n=60 v=0
26496 On ch=8 n=60 v=70
26496 On ch=8 n=50 v=75
26544 On ch=8 n=50 v=0
26568 On ch=8 n=60 v=0
26592 On ch=8 n=50 v=80
26640 On ch=8 n=50 v=0
26688 On ch=8 n=57 v=55
26688 On ch=8 n=50 v=75
26736 On ch=8 n=50 v=0
26760 On ch=8 n=57 v=0
26784 On ch=8 n=67 v=80
26784 On ch=8 n=55 v=85
26856 On ch=8 n=67 v=0
26856 On ch=8 n=55 v=0
26880 On ch=8 n=67 v=70
26880 On ch=8 n=55 v=75
26928 On ch=8 n=55 v=0
26952 On ch=8 n=67 v=0
26976 On ch=8 n=67 v=71
26976 On ch=8 n=55 v=76
27024 On ch=8 n=55 v=0
27048 On ch=8 n=67 v=0
27072 On ch=8 n=67 v=72
27072 On ch=8 n=55 v=77
27120 On ch=8 n=55 v=0
27144 On ch=8 n=67 v=0
27168 On ch=8 n=67 v=73
27168 On ch=8 n=55 v=78
27216 On ch=8 n=55 v=0
27240 On ch=8 n=67 v=0
27264 On ch=8 n=65 v=68
27264 On ch=8 n=53 v=73
27312 On ch=8 n=53 v=0
27336 On ch=8 n=65 v=0
27360 On ch=8 n=67 v=75
27360 On ch=8 n=55 v=80
27408 On ch=8 n=55 v=0
27432 On ch=8 n=67 v=0
27456 On ch=8 n=55 v=75
27504 On ch=8 n=55 v=0
27552 On ch=8 n=67 v=70
27552 On ch=8 n=55 v=75
27600 On ch=8 n=55 v=0
27640 On ch=8 n=67 v=0
27648 On ch=8 n=55 v=85
27696 On ch=8 n=55 v=0
27744 On ch=8 n=62 v=70
27744 On ch=8 n=55 v=80
27792 On ch=8 n=55 v=0
27832 On ch=8 n=62 v=0
27840 On ch=8 n=55 v=75
27888 On ch=8 n=55 v=0
27936 On ch=8 n=65 v=75
27936 On ch=8 n=55 v=80
27984 On ch=8 n=55 v=0
28016 On ch=8 n=65 v=0
28032 On ch=8 n=65 v=85
28032 On ch=8 n=55 v=80
28080 On ch=8 n=55 v=0
28120 On ch=8 n=65 v=0
28128 On ch=8 n=55 v=75
28176 On ch=8 n=55 v=0
28224 On ch=8 n=67 v=75
28224 On ch=8 n=55 v=80
28272 On ch=8 n=55 v=0
28296 On ch=8 n=67 v=0
28320 On ch=8 n=62 v=75
28320 On ch=8 n=50 v=85
28368 On ch=8 n=50 v=0
28408 On ch=8 n=62 v=0
28416 On ch=8 n=50 v=75
28464 On ch=8 n=50 v=0
28512 On ch=8 n=50 v=75
28560 On ch=8 n=50 v=0
28608 On ch=8 n=57 v=75
28608 On ch=8 n=50 v=80
28656 On ch=8 n=50 v=0
28696 On ch=8 n=57 v=0
28704 On ch=8 n=50 v=75
28752 On ch=8 n=50 v=0
28800 On ch=8 n=60 v=75
28800 On ch=8 n=50 v=75
28848 On ch=8 n=50 v=0
28880 On ch=8 n=60 v=0
28896 On ch=8 n=50 v=75
28944 On ch=8 n=50 v=0
28992 On ch=8 n=57 v=70
28992 On ch=8 n=50 v=80
29040 On ch=8 n=50 v=0
29064 On ch=8 n=57 v=0
29088 On ch=8 n=62 v=75
29088 On ch=8 n=50 v=85
29136 On ch=8 n=50 v=0
29160 On ch=8 n=62 v=0
29184 On ch=8 n=50 v=75
29232 On ch=8 n=50 v=0
29280 On ch=8 n=57 v=60
29280 On ch=8 n=50 v=75
29328 On ch=8 n=50 v=0
29352 On ch=8 n=57 v=0
29376 On ch=8 n=50 v=85
29424 On ch=8 n=50 v=0
29472 On ch=8 n=60 v=65
29472 On ch=8 n=50 v=75
29520 On ch=8 n=50 v=0
29544 On ch=8 n=60 v=0
29568 On ch=8 n=60 v=70
29568 On ch=8 n=50 v=85
29616 On ch=8 n=50 v=0
29640 On ch=8 n=60 v=0
29664 On ch=8 n=50 v=75
29712 On ch=8 n=50 v=0
29760 On ch=8 n=57 v=70
29760 On ch=8 n=50 v=80
29808 On ch=8 n=50 v=0
29832 On ch=8 n=57 v=0
29856 On ch=8 n=67 v=80
29856 On ch=8 n=55 v=85
29904 On ch=8 n=55 v=0
29944 On ch=8 n=67 v=0
29952 On ch=8 n=67 v=67
29952 On ch=8 n=55 v=67
30048 On ch=8 n=67 v=0
30048 On ch=8 n=55 v=0
30048 On ch=8 n=67 v=67
30048 On ch=8 n=55 v=67
30144 On ch=8 n=67 v=0
30144 On ch=8 n=55 v=0
30144 On ch=8 n=67 v=67
30144 On ch=8 n=55 v=67
30240 On ch=8 n=67 v=0
30240 On ch=8 n=55 v=0
30240 On ch=8 n=67 v=77
30240 On ch=8 n=55 v=77
30336 On ch=8 n=67 v=0
30336 On ch=8 n=55 v=0
30336 On ch=8 n=67 v=67
30336 On ch=8 n=55 v=67
30432 On ch=8 n=67 v=0
30432 On ch=8 n=55 v=0
30432 On ch=8 n=67 v=67
30432 On ch=8 n=55 v=67
30528 On ch=8 n=67 v=0
30528 On ch=8 n=55 v=0
30528 On ch=8 n=67 v=67
30528 On ch=8 n=55 v=67
30624 On ch=8 n=67 v=0
30624 On ch=8 n=55 v=0
30624 On ch=8 n=67 v=70
30624 On ch=8 n=55 v=70
30720 On ch=8 n=67 v=0
30720 On ch=8 n=55 v=0
30720 On ch=8 n=67 v=71
30720 On ch=8 n=55 v=71
30816 On ch=8 n=67 v=0
30816 On ch=8 n=55 v=0
30816 On ch=8 n=67 v=73
30816 On ch=8 n=55 v=73
30912 On ch=8 n=67 v=0
30912 On ch=8 n=55 v=0
30912 On ch=8 n=67 v=75
30912 On ch=8 n=55 v=75
31008 On ch=8 n=67 v=0
31008 On ch=8 n=55 v=0
31008 On ch=8 n=67 v=77
31008 On ch=8 n=55 v=77
31104 On ch=8 n=67 v=0
31104 On ch=8 n=55 v=0
31104 On ch=8 n=67 v=79
31104 On ch=8 n=55 v=79
31200 On ch=8 n=67 v=0
31200 On ch=8 n=55 v=0
31200 On ch=8 n=67 v=75
31200 On ch=8 n=55 v=75
31296 On ch=8 n=67 v=0
31296 On ch=8 n=55 v=0
31296 On ch=8 n=67 v=72
31296 On ch=8 n=55 v=72
31392 On ch=8 n=67 v=0
31392 On ch=8 n=55 v=0
31392 On ch=8 n=67 v=54
31392 On ch=8 n=55 v=18
31488 On ch=8 n=67 v=0
31488 On ch=8 n=55 v=0
33792 On ch=8 n=71 v=85
33792 On ch=8 n=59 v=85
33816 On ch=8 n=71 v=0
33816 On ch=8 n=59 v=0
33888 On ch=8 n=71 v=75
33888 On ch=8 n=59 v=75
33912 On ch=8 n=71 v=0
33912 On ch=8 n=59 v=0
33984 On ch=8 n=71 v=75
33984 On ch=8 n=59 v=75
34008 On ch=8 n=71 v=0
34008 On ch=8 n=59 v=0
34080 On ch=8 n=71 v=85
34080 On ch=8 n=59 v=85
34104 On ch=8 n=71 v=0
34104 On ch=8 n=59 v=0
34176 On ch=8 n=71 v=75
34176 On ch=8 n=59 v=75
34200 On ch=8 n=71 v=0
34200 On ch=8 n=59 v=0
34272 On ch=8 n=71 v=75
34272 On ch=8 n=59 v=75
34296 On ch=8 n=71 v=0
34296 On ch=8 n=59 v=0
34368 On ch=8 n=71 v=85
34368 On ch=8 n=59 v=85
34392 On ch=8 n=71 v=0
34392 On ch=8 n=59 v=0
34464 On ch=8 n=71 v=75
34464 On ch=8 n=59 v=75
34488 On ch=8 n=71 v=0
34488 On ch=8 n=59 v=0
34560 On ch=8 n=69 v=80
34560 On ch=8 n=57 v=80
34584 On ch=8 n=69 v=0
34584 On ch=8 n=57 v=0
34656 On ch=8 n=69 v=75
34656 On ch=8 n=57 v=75
34680 On ch=8 n=69 v=0
34680 On ch=8 n=57 v=0
34752 On ch=8 n=69 v=75
34752 On ch=8 n=57 v=75
34776 On ch=8 n=69 v=0
34776 On ch=8 n=57 v=0
34848 On ch=8 n=69 v=85
34848 On ch=8 n=57 v=85
34872 On ch=8 n=69 v=0
34872 On ch=8 n=57 v=0
34944 On ch=8 n=69 v=75
34944 On ch=8 n=57 v=75
34968 On ch=8 n=69 v=0
34968 On ch=8 n=57 v=0
35040 On ch=8 n=69 v=75
35040 On ch=8 n=57 v=75
35064 On ch=8 n=69 v=0
35064 On ch=8 n=57 v=0
35136 On ch=8 n=69 v=75
35136 On ch=8 n=57 v=75
35160 On ch=8 n=69 v=0
35160 On ch=8 n=57 v=0
35232 On ch=8 n=69 v=75
35232 On ch=8 n=57 v=75
35256 On ch=8 n=69 v=0
35256 On ch=8 n=57 v=0
35328 On ch=8 n=69 v=80
35328 On ch=8 n=57 v=80
35352 On ch=8 n=69 v=0
35352 On ch=8 n=57 v=0
35424 On ch=8 n=69 v=75
35424 On ch=8 n=57 v=75
35448 On ch=8 n=69 v=0
35448 On ch=8 n=57 v=0
35520 On ch=8 n=69 v=75
35520 On ch=8 n=57 v=75
35544 On ch=8 n=69 v=0
35544 On ch=8 n=57 v=0
35616 On ch=8 n=69 v=85
35616 On ch=8 n=57 v=85
35640 On ch=8 n=69 v=0
35640 On ch=8 n=57 v=0
35712 On ch=8 n=69 v=75
35712 On ch=8 n=57 v=75
35736 On ch=8 n=69 v=0
35736 On ch=8 n=57 v=0
35808 On ch=8 n=69 v=75
35808 On ch=8 n=57 v=75
35832 On ch=8 n=69 v=0
35832 On ch=8 n=57 v=0
35904 On ch=8 n=69 v=75
35904 On ch=8 n=57 v=75
35928 On ch=8 n=69 v=0
35928 On ch=8 n=57 v=0
36000 On ch=8 n=69 v=75
36000 On ch=8 n=57 v=75
36024 On ch=8 n=69 v=0
36024 On ch=8 n=57 v=0
36096 On ch=8 n=69 v=80
36096 On ch=8 n=57 v=80
36120 On ch=8 n=69 v=0
36120 On ch=8 n=57 v=0
36192 On ch=8 n=69 v=75
36192 On ch=8 n=57 v=75
36216 On ch=8 n=69 v=0
36216 On ch=8 n=57 v=0
36288 On ch=8 n=69 v=75
36288 On ch=8 n=57 v=75
36312 On ch=8 n=69 v=0
36312 On ch=8 n=57 v=0
36384 On ch=8 n=69 v=85
36384 On ch=8 n=57 v=85
36408 On ch=8 n=69 v=0
36408 On ch=8 n=57 v=0
36480 On ch=8 n=69 v=75
36480 On ch=8 n=57 v=75
36504 On ch=8 n=69 v=0
36504 On ch=8 n=57 v=0
36576 On ch=8 n=69 v=75
36576 On ch=8 n=57 v=75
36600 On ch=8 n=69 v=0
36600 On ch=8 n=57 v=0
36672 On ch=8 n=69 v=75
36672 On ch=8 n=57 v=75
36696 On ch=8 n=69 v=0
36696 On ch=8 n=57 v=0
36768 On ch=8 n=55 v=115
36768 On ch=8 n=50 v=115
36768 On ch=8 n=47 v=115
36768 On ch=8 n=43 v=115
36888 Pb ch=8 v=8064
36924 Pb ch=8 v=7936
36948 Pb ch=8 v=7808
36964 Pb ch=8 v=7680
36976 Pb ch=8 v=7552
36988 Pb ch=8 v=7424
36996 Pb ch=8 v=7296
37004 Pb ch=8 v=7168
37012 Pb ch=8 v=7040
37016 Pb ch=8 v=6912
37020 Pb ch=8 v=6784
37024 Pb ch=8 v=6656
37028 Pb ch=8 v=6528
37032 Pb ch=8 v=6400
37036 Pb ch=8 v=6272
37040 Pb ch=8 v=6144
37044 Pb ch=8 v=6016
37048 Pb ch=8 v=5888
37052 Pb ch=8 v=5632
37056 Pb ch=8 v=5504
37060 Pb ch=8 v=5376
37064 Pb ch=8 v=5120
37068 Pb ch=8 v=4992
37072 Pb ch=8 v=4736
37076 Pb ch=8 v=4480
37080 Pb ch=8 v=4224
37084 Pb ch=8 v=3968
37088 Pb ch=8 v=3712
37092 Pb ch=8 v=3328
37096 Pb ch=8 v=2816
37100 Pb ch=8 v=3192
37104 Pb ch=8 v=3692
37108 Pb ch=8 v=4192
37112 Pb ch=8 v=4692
37116 Pb ch=8 v=5192
37120 Pb ch=8 v=5692
37124 Pb ch=8 v=6192
37128 Pb ch=8 v=6692
37132 Pb ch=8 v=7192
37136 Pb ch=8 v=7936
37140 On ch=8 n=62 v=127
37140 On ch=8 n=59 v=127
37152 On ch=8 n=47 v=0
37152 On ch=8 n=43 v=0
37152 Pb ch=8 v=7808
37160 Pb ch=8 v=7680
37172 Pb ch=8 v=7552
37180 Pb ch=8 v=7424
37188 Pb ch=8 v=7296
37200 Pb ch=8 v=7168
37208 Pb ch=8 v=7040
37216 Pb ch=8 v=6912
37228 Pb ch=8 v=6784
37236 Pb ch=8 v=6656
37244 Pb ch=8 v=6528
37256 Pb ch=8 v=6400
37264 Pb ch=8 v=6272
37272 Pb ch=8 v=6144
37284 Pb ch=8 v=6016
37292 Pb ch=8 v=5888
37304 Pb ch=8 v=5760
37312 Pb ch=8 v=5632
37320 Pb ch=8 v=5504
37332 Pb ch=8 v=5376
37340 Pb ch=8 v=5248
37348 Pb ch=8 v=5120
37360 Pb ch=8 v=4992
37368 Pb ch=8 v=4864
37376 Pb ch=8 v=4736
37388 Pb ch=8 v=4608
37396 Pb ch=8 v=4480
37404 Pb ch=8 v=4352
37416 Pb ch=8 v=4224
37424 Pb ch=8 v=4096
37432 Pb ch=8 v=3968
37444 Pb ch=8 v=3840
37452 Pb ch=8 v=3712
37464 Pb ch=8 v=3584
37472 Pb ch=8 v=3456
37480 Pb ch=8 v=3328
37492 Pb ch=8 v=3200
37500 Pb ch=8 v=3072
37508 Pb ch=8 v=2944
37520 Pb ch=8 v=2816
37528 Pb ch=8 v=2688
37536 Pb ch=8 v=2560
37548 Pb ch=8 v=2432
37556 Pb ch=8 v=2304
37564 Pb ch=8 v=2176
37576 Pb ch=8 v=2048
37584 Pb ch=8 v=1920
37596 Pb ch=8 v=1792
37604 Pb ch=8 v=1664
37612 Pb ch=8 v=1536
37624 Pb ch=8 v=1408
37636 Pb ch=8 v=1152
37640 Pb ch=8 v=896
37644 Pb ch=8 v=640
37648 Pb ch=8 v=384
37652 Pb ch=8 v=0
37656 On ch=8 n=62 v=0
37656 On ch=8 n=59 v=0
37656 On ch=8 n=55 v=0
37656 On ch=8 n=50 v=0
38396 Pb ch=8 v=8192
38400 On ch=8 n=62 v=85
38400 On ch=8 n=50 v=85
38496 On ch=8 n=62 v=0
38496 On ch=8 n=50 v=0
38688 On ch=8 n=62 v=75
38688 On ch=8 n=50 v=75
38776 On ch=8 n=62 v=0
38776 On ch=8 n=50 v=0
38784 On ch=8 n=60 v=75
38784 On ch=8 n=48 v=75
38880 On ch=8 n=60 v=0
38880 On ch=8 n=48 v=0
38880 On ch=8 n=62 v=80
38880 On ch=8 n=50 v=80
38976 On ch=8 n=62 v=0
38976 On ch=8 n=50 v=0
39072 On ch=8 n=62 v=85
39072 On ch=8 n=50 v=85
39152 On ch=8 n=62 v=0
39152 On ch=8 n=50 v=0
39264 On ch=8 n=62 v=85
39264 On ch=8 n=50 v=85
39360 On ch=8 n=62 v=0
39360 On ch=8 n=50 v=0
39456 On ch=8 n=62 v=75
39456 On ch=8 n=50 v=75
39552 On ch=8 n=62 v=0
39552 On ch=8 n=50 v=0
39552 On ch=8 n=60 v=75
39552 On ch=8 n=48 v=75
39648 On ch=8 n=60 v=0
39648 On ch=8 n=48 v=0
39648 On ch=8 n=62 v=85
39648 On ch=8 n=50 v=85
39728 On ch=8 n=62 v=0
39744 On ch=8 n=50 v=0
39840 On ch=8 n=67 v=85
39840 On ch=8 n=55 v=85
39960 On ch=8 n=67 v=0
39960 On ch=8 n=55 v=0
40032 On ch=8 n=67 v=70
40032 On ch=8 n=55 v=70
40112 On ch=8 n=67 v=0
40112 On ch=8 n=55 v=0
40128 On ch=8 n=67 v=80
40128 On ch=8 n=55 v=80
40200 On ch=8 n=67 v=0
40200 On ch=8 n=55 v=0
40224 On ch=8 n=67 v=70
40224 On ch=8 n=55 v=70
40304 On ch=8 n=67 v=0
40304 On ch=8 n=55 v=0
40320 On ch=8 n=65 v=85
40320 On ch=8 n=53 v=85
40416 On ch=8 n=65 v=0
40416 On ch=8 n=53 v=0
40416 On ch=8 n=67 v=75
40416 On ch=8 n=55 v=75
40512 On ch=8 n=67 v=0
40512 On ch=8 n=55 v=0
40608 On ch=8 n=67 v=75
40608 On ch=8 n=55 v=75
40688 On ch=8 n=67 v=0
40688 On ch=8 n=55 v=0
40800 On ch=8 n=67 v=75
40800 On ch=8 n=55 v=75
40896 On ch=8 n=67 v=0
40896 On ch=8 n=55 v=0
40992 On ch=8 n=67 v=75
40992 On ch=8 n=55 v=75
41080 On ch=8 n=67 v=0
41080 On ch=8 n=55 v=0
41088 On ch=8 n=65 v=75
41088 On ch=8 n=53 v=75
41168 On ch=8 n=65 v=0
41168 On ch=8 n=53 v=0
41184 On ch=8 n=65 v=80
41184 On ch=8 n=53 v=80
41264 On ch=8 n=65 v=0
41264 On ch=8 n=53 v=0
41280 On ch=8 n=67 v=75
41280 On ch=8 n=55 v=75
41360 On ch=8 n=67 v=0
41360 On ch=8 n=55 v=0
41376 On ch=8 n=67 v=65
41376 On ch=8 n=55 v=65
41448 On ch=8 n=67 v=0
41448 On ch=8 n=55 v=0
41568 On ch=8 n=62 v=75
41568 On ch=8 n=50 v=75
41656 On ch=8 n=62 v=0
41656 On ch=8 n=50 v=0
41760 On ch=8 n=62 v=75
41760 On ch=8 n=50 v=75
41856 On ch=8 n=60 v=75
41856 On ch=8 n=48 v=75
41888 On ch=8 n=62 v=0
41888 On ch=8 n=50 v=0
41952 On ch=8 n=60 v=0
41952 On ch=8 n=48 v=0
41952 On ch=8 n=62 v=75
41952 On ch=8 n=50 v=75
42048 On ch=8 n=62 v=0
42048 On ch=8 n=50 v=0
42144 On ch=8 n=62 v=80
42144 On ch=8 n=50 v=80
42232 On ch=8 n=62 v=0
42232 On ch=8 n=50 v=0
42336 On ch=8 n=62 v=85
42336 On ch=8 n=50 v=85
42424 On ch=8 n=62 v=0
42424 On ch=8 n=50 v=0
42528 On ch=8 n=62 v=85
42528 On ch=8 n=50 v=85
42616 On ch=8 n=62 v=0
42616 On ch=8 n=50 v=0
42720 On ch=8 n=62 v=75
42720 On ch=8 n=50 v=75
42816 On ch=8 n=62 v=0
42816 On ch=8 n=50 v=0
42912 On ch=8 n=62 v=75
42912 On ch=8 n=50 v=85
43000 On ch=8 n=62 v=0
43000 On ch=8 n=50 v=0
43008 On ch=8 n=67 v=85
43008 On ch=8 n=55 v=85
43088 On ch=8 n=67 v=0
43088 On ch=8 n=55 v=0
43104 On ch=8 n=67 v=75
43104 On ch=8 n=55 v=75
43184 On ch=8 n=67 v=0
43184 On ch=8 n=55 v=0
43200 On ch=8 n=67 v=85
43200 On ch=8 n=55 v=85
43280 On ch=8 n=67 v=0
43280 On ch=8 n=55 v=0
43296 On ch=8 n=67 v=75
43296 On ch=8 n=55 v=75
43376 On ch=8 n=67 v=0
43376 On ch=8 n=55 v=0
43392 On ch=8 n=65 v=85
43392 On ch=8 n=53 v=85
43480 On ch=8 n=65 v=0
43480 On ch=8 n=53 v=0
43488 On ch=8 n=67 v=85
43488 On ch=8 n=55 v=85
43584 On ch=8 n=67 v=0
43584 On ch=8 n=55 v=0
43776 On ch=8 n=67 v=85
43776 On ch=8 n=55 v=85
43968 On ch=8 n=67 v=0
43968 On ch=8 n=55 v=0
44064 On ch=8 n=65 v=90
44064 On ch=8 n=53 v=90
44256 On ch=8 n=65 v=0
44256 On ch=8 n=53 v=0
44256 On ch=8 n=67 v=75
44256 On ch=8 n=55 v=75
44352 On ch=8 n=67 v=0
44352 On ch=8 n=55 v=0
44448 On ch=8 n=62 v=65
44448 On ch=8 n=50 v=65
44592 On ch=8 n=50 v=0
44616 On ch=8 n=62 v=0
44640 On ch=8 n=50 v=75
44688 On ch=8 n=50 v=0
44736 On ch=8 n=57 v=70
44736 On ch=8 n=50 v=75
44784 On ch=8 n=50 v=0
44808 On ch=8 n=57 v=0
44832 On ch=8 n=50 v=80
44880 On ch=8 n=50 v=0
44928 On ch=8 n=60 v=75
44928 On ch=8 n=50 v=75
44976 On ch=8 n=50 v=0
44984 On ch=8 n=60 v=0
45024 On ch=8 n=50 v=75
45072 On ch=8 n=50 v=0
45120 On ch=8 n=57 v=75
45120 On ch=8 n=50 v=75
45168 On ch=8 n=50 v=0
45184 On ch=8 n=57 v=0
45216 On ch=8 n=62 v=80
45216 On ch=8 n=50 v=85
45264 On ch=8 n=50 v=0
45288 On ch=8 n=62 v=0
45312 On ch=8 n=50 v=75
45360 On ch=8 n=50 v=0
45408 On ch=8 n=57 v=70
45408 On ch=8 n=50 v=75
45456 On ch=8 n=50 v=0
45480 On ch=8 n=57 v=0
45504 On ch=8 n=50 v=75
45552 On ch=8 n=50 v=0
45600 On ch=8 n=60 v=72
45600 On ch=8 n=50 v=75
45648 On ch=8 n=50 v=0
45680 On ch=8 n=60 v=0
45696 On ch=8 n=60 v=80
45696 On ch=8 n=50 v=75
45744 On ch=8 n=50 v=0
45760 On ch=8 n=60 v=0
45792 On ch=8 n=50 v=75
45840 On ch=8 n=50 v=0
45888 On ch=8 n=57 v=70
45888 On ch=8 n=50 v=75
45936 On ch=8 n=50 v=0
45960 On ch=8 n=57 v=0
45984 On ch=8 n=67 v=80
45984 On ch=8 n=55 v=85
46080 On ch=8 n=67 v=0
46080 On ch=8 n=55 v=0
46080 On ch=8 n=55 v=85
46128 On ch=8 n=55 v=0
46176 On ch=8 n=67 v=80
46176 On ch=8 n=55 v=80
46224 On ch=8 n=55 v=0
46248 On ch=8 n=67 v=0
46272 On ch=8 n=67 v=70
46272 On ch=8 n=55 v=75
46320 On ch=8 n=55 v=0
46344 On ch=8 n=67 v=0
46368 On ch=8 n=67 v=95
46368 On ch=8 n=55 v=75
46416 On ch=8 n=67 v=0
46416 On ch=8 n=55 v=0
46464 On ch=8 n=65 v=80
46464 On ch=8 n=55 v=75
46512 On ch=8 n=55 v=0
46552 On ch=8 n=65 v=0
46560 On ch=8 n=67 v=95
46560 On ch=8 n=55 v=75
46608 On ch=8 n=55 v=0
46632 On ch=8 n=67 v=0
46656 On ch=8 n=55 v=80
46704 On ch=8 n=55 v=0
46752 On ch=8 n=67 v=75
46752 On ch=8 n=55 v=85
46800 On ch=8 n=55 v=0
46840 On ch=8 n=67 v=0
46848 On ch=8 n=55 v=75
46896 On ch=8 n=55 v=0
46944 On ch=8 n=62 v=80
46944 On ch=8 n=55 v=75
47016 On ch=8 n=62 v=0
47016 On ch=8 n=55 v=0
47040 On ch=8 n=55 v=75
47088 On ch=8 n=55 v=0
47136 On ch=8 n=65 v=80
47136 On ch=8 n=55 v=75
47184 On ch=8 n=55 v=0
47224 On ch=8 n=65 v=0
47232 On ch=8 n=65 v=85
47232 On ch=8 n=55 v=75
47280 On ch=8 n=55 v=0
47304 On ch=8 n=65 v=0
47328 On ch=8 n=55 v=75
47376 On ch=8 n=55 v=0
47424 On ch=8 n=62 v=75
47424 On ch=8 n=55 v=75
47472 On ch=8 n=55 v=0
47496 On ch=8 n=62 v=0
47520 On ch=8 n=62 v=80
47520 On ch=8 n=50 v=85
47608 On ch=8 n=62 v=0
47608 On ch=8 n=50 v=0
47616 On ch=8 n=50 v=75
47664 On ch=8 n=50 v=0
47712 On ch=8 n=50 v=75
47760 On ch=8 n=50 v=0
47808 On ch=8 n=57 v=80
47808 On ch=8 n=50 v=75
47856 On ch=8 n=50 v=0
47896 On ch=8 n=57 v=0
47904 On ch=8 n=50 v=80
47952 On ch=8 n=50 v=0
48000 On ch=8 n=60 v=75
48000 On ch=8 n=50 v=75
48048 On ch=8 n=50 v=0
48064 On ch=8 n=60 v=0
48096 On ch=8 n=50 v=75
48144 On ch=8 n=50 v=0
48192 On ch=8 n=57 v=70
48192 On ch=8 n=50 v=75
48240 On ch=8 n=50 v=0
48264 On ch=8 n=57 v=0
48288 On ch=8 n=62 v=75
48288 On ch=8 n=50 v=85
48336 On ch=8 n=50 v=0
48360 On ch=8 n=62 v=0
48384 On ch=8 n=50 v=75
48432 On ch=8 n=50 v=0
48480 On ch=8 n=57 v=70
48480 On ch=8 n=50 v=75
48528 On ch=8 n=50 v=0
48552 On ch=8 n=57 v=0
48576 On ch=8 n=50 v=75
48624 On ch=8 n=50 v=0
48672 On ch=8 n=60 v=75
48672 On ch=8 n=50 v=75
48720 On ch=8 n=50 v=0
48760 On ch=8 n=60 v=0
48768 On ch=8 n=60 v=80
48768 On ch=8 n=50 v=75
48816 On ch=8 n=50 v=0
48856 On ch=8 n=60 v=0
48864 On ch=8 n=62 v=70
48864 On ch=8 n=50 v=75
48912 On ch=8 n=50 v=0
48936 On ch=8 n=62 v=0
48960 On ch=8 n=50 v=75
49008 On ch=8 n=50 v=0
49056 On ch=8 n=67 v=85
49056 On ch=8 n=55 v=80
49104 On ch=8 n=55 v=0
49152 On ch=8 n=67 v=0
49152 On ch=8 n=55 v=85
49200 On ch=8 n=55 v=0
49248 On ch=8 n=67 v=75
49248 On ch=8 n=55 v=75
49296 On ch=8 n=55 v=0
49320 On ch=8 n=67 v=0
49344 On ch=8 n=55 v=85
49392 On ch=8 n=55 v=0
49440 On ch=8 n=67 v=75
49440 On ch=8 n=55 v=75
49488 On ch=8 n=55 v=0
49512 On ch=8 n=67 v=0
49536 On ch=8 n=65 v=90
49536 On ch=8 n=55 v=85
49584 On ch=8 n=55 v=0
49624 On ch=8 n=65 v=0
49632 On ch=8 n=67 v=75
49632 On ch=8 n=55 v=75
49680 On ch=8 n=55 v=0
49704 On ch=8 n=67 v=0
49728 On ch=8 n=55 v=80
49776 On ch=8 n=55 v=0
49824 On ch=8 n=67 v=85
49824 On ch=8 n=55 v=85
49872 On ch=8 n=55 v=0
49912 On ch=8 n=67 v=0
49920 On ch=8 n=55 v=80
49968 On ch=8 n=55 v=0
50016 On ch=8 n=62 v=75
50016 On ch=8 n=55 v=75
50064 On ch=8 n=55 v=0
50088 On ch=8 n=62 v=0
50112 On ch=8 n=55 v=75
50160 On ch=8 n=55 v=0
50208 On ch=8 n=65 v=80
50208 On ch=8 n=55 v=80
50256 On ch=8 n=55 v=0
50288 On ch=8 n=65 v=0
50304 On ch=8 n=65 v=85
50304 On ch=8 n=55 v=85
50352 On ch=8 n=55 v=0
50376 On ch=8 n=65 v=0
50400 On ch=8 n=55 v=80
50448 On ch=8 n=55 v=0
50496 On ch=8 n=67 v=85
50496 On ch=8 n=55 v=75
50544 On ch=8 n=55 v=0
50576 On ch=8 n=67 v=0
50592 On ch=8 n=62 v=85
50592 On ch=8 n=50 v=85
50640 On ch=8 n=50 v=0
50688 On ch=8 n=50 v=75
50736 On ch=8 n=50 v=0
50752 On ch=8 n=62 v=0
50784 On ch=8 n=50 v=75
50832 On ch=8 n=50 v=0
50880 On ch=8 n=57 v=70
50880 On ch=8 n=50 v=85
50928 On ch=8 n=50 v=0
50960 On ch=8 n=57 v=0
50976 On ch=8 n=50 v=75
51024 On ch=8 n=50 v=0
51072 On ch=8 n=60 v=75
51072 On ch=8 n=50 v=85
51120 On ch=8 n=50 v=0
51152 On ch=8 n=60 v=0
51168 On ch=8 n=50 v=85
51216 On ch=8 n=50 v=0
51264 On ch=8 n=57 v=75
51264 On ch=8 n=50 v=75
51312 On ch=8 n=50 v=0
51328 On ch=8 n=57 v=0
51360 On ch=8 n=62 v=95
51360 On ch=8 n=50 v=85
51408 On ch=8 n=50 v=0
51432 On ch=8 n=62 v=0
51456 On ch=8 n=50 v=75
51504 On ch=8 n=50 v=0
51552 On ch=8 n=57 v=75
51552 On ch=8 n=50 v=85
51600 On ch=8 n=50 v=0
51640 On ch=8 n=57 v=0
51648 On ch=8 n=50 v=75
51696 On ch=8 n=50 v=0
51744 On ch=8 n=60 v=80
51744 On ch=8 n=50 v=80
51792 On ch=8 n=50 v=0
51824 On ch=8 n=60 v=0
51840 On ch=8 n=60 v=85
51840 On ch=8 n=50 v=75
51888 On ch=8 n=50 v=0
51912 On ch=8 n=60 v=0
51936 On ch=8 n=50 v=80
51984 On ch=8 n=50 v=0
52032 On ch=8 n=57 v=75
52032 On ch=8 n=50 v=75
52080 On ch=8 n=50 v=0
52104 On ch=8 n=57 v=0
52128 On ch=8 n=67 v=80
52128 On ch=8 n=55 v=85
52200 On ch=8 n=67 v=0
52200 On ch=8 n=55 v=0
52224 On ch=8 n=67 v=70
52224 On ch=8 n=55 v=75
52272 On ch=8 n=55 v=0
52312 On ch=8 n=67 v=0
52320 On ch=8 n=67 v=71
52320 On ch=8 n=55 v=76
52368 On ch=8 n=55 v=0
52384 On ch=8 n=67 v=0
52416 On ch=8 n=67 v=72
52416 On ch=8 n=55 v=77
52464 On ch=8 n=55 v=0
52504 On ch=8 n=67 v=0
52512 On ch=8 n=67 v=73
52512 On ch=8 n=55 v=78
52560 On ch=8 n=55 v=0
52576 On ch=8 n=67 v=0
52608 On ch=8 n=65 v=68
52608 On ch=8 n=53 v=73
52656 On ch=8 n=53 v=0
52696 On ch=8 n=65 v=0
52704 On ch=8 n=67 v=75
52704 On ch=8 n=55 v=80
52752 On ch=8 n=55 v=0
52776 On ch=8 n=67 v=0
52800 On ch=8 n=55 v=75
52848 On ch=8 n=55 v=0
52896 On ch=8 n=67 v=70
52896 On ch=8 n=55 v=75
52944 On ch=8 n=55 v=0
52984 On ch=8 n=67 v=0
52992 On ch=8 n=55 v=85
53040 On ch=8 n=55 v=0
53088 On ch=8 n=67 v=80
53088 On ch=8 n=55 v=80
53136 On ch=8 n=55 v=0
53184 On ch=8 n=67 v=0
53184 On ch=8 n=55 v=75
53232 On ch=8 n=55 v=0
53280 On ch=8 n=65 v=85
53280 On ch=8 n=55 v=80
53328 On ch=8 n=55 v=0
53376 On ch=8 n=65 v=0
53376 On ch=8 n=55 v=80
53424 On ch=8 n=55 v=0
53472 On ch=8 n=67 v=85
53472 On ch=8 n=55 v=75
53520 On ch=8 n=55 v=0
53568 On ch=8 n=67 v=0
53568 On ch=8 n=55 v=80
53616 On ch=8 n=55 v=0
53664 On ch=8 n=62 v=75
53664 On ch=8 n=50 v=85
53712 On ch=8 n=50 v=0
53752 On ch=8 n=62 v=0
53760 On ch=8 n=50 v=75
53808 On ch=8 n=50 v=0
53856 On ch=8 n=50 v=75
53904 On ch=8 n=50 v=0
53952 On ch=8 n=57 v=75
53952 On ch=8 n=50 v=80
54000 On ch=8 n=50 v=0
54040 On ch=8 n=57 v=0
54048 On ch=8 n=50 v=75
54096 On ch=8 n=50 v=0
54144 On ch=8 n=60 v=75
54144 On ch=8 n=50 v=75
54192 On ch=8 n=50 v=0
54224 On ch=8 n=60 v=0
54240 On ch=8 n=50 v=75
54288 On ch=8 n=50 v=0
54336 On ch=8 n=57 v=70
54336 On ch=8 n=50 v=80
54384 On ch=8 n=50 v=0
54408 On ch=8 n=57 v=0
54432 On ch=8 n=62 v=75
54432 On ch=8 n=50 v=85
54480 On ch=8 n=50 v=0
54504 On ch=8 n=62 v=0
54528 On ch=8 n=50 v=75
54576 On ch=8 n=50 v=0
54624 On ch=8 n=57 v=85
54624 On ch=8 n=50 v=75
54672 On ch=8 n=50 v=0
54696 On ch=8 n=57 v=0
54720 On ch=8 n=50 v=85
54768 On ch=8 n=50 v=0
54816 On ch=8 n=60 v=85
54816 On ch=8 n=50 v=75
54864 On ch=8 n=50 v=0
54888 On ch=8 n=60 v=0
54912 On ch=8 n=60 v=90
54912 On ch=8 n=50 v=85
54960 On ch=8 n=50 v=0
54984 On ch=8 n=60 v=0
55008 On ch=8 n=50 v=75
55056 On ch=8 n=50 v=0
55104 On ch=8 n=57 v=90
55104 On ch=8 n=50 v=80
55152 On ch=8 n=50 v=0
55176 On ch=8 n=57 v=0
55200 On ch=8 n=67 v=80
55200 On ch=8 n=55 v=90
55248 On ch=8 n=55 v=0
55296 On ch=8 n=55 v=65
55300 On ch=8 n=67 v=0
55392 On ch=8 n=55 v=0
55392 On ch=8 n=67 v=86
55392 On ch=8 n=55 v=70
55472 On ch=8 n=67 v=0
55488 On ch=8 n=55 v=0
55488 On ch=8 n=67 v=88
55488 On ch=8 n=55 v=71
55568 On ch=8 n=67 v=0
55584 On ch=8 n=55 v=0
55584 On ch=8 n=67 v=90
55584 On ch=8 n=55 v=72
55664 On ch=8 n=67 v=0
55680 On ch=8 n=55 v=0
55680 On ch=8 n=65 v=92
55680 On ch=8 n=53 v=73
55760 On ch=8 n=65 v=0
55776 On ch=8 n=53 v=0
55776 On ch=8 n=67 v=94
55776 On ch=8 n=55 v=74
55872 On ch=8 n=55 v=0
55896 On ch=8 n=67 v=0
55968 On ch=8 n=67 v=96
55968 On ch=8 n=55 v=75
56048 On ch=8 n=67 v=0
56064 On ch=8 n=55 v=0
56160 On ch=8 n=62 v=98
56160 On ch=8 n=50 v=70
56256 On ch=8 n=62 v=0
56256 On ch=8 n=50 v=0
56352 On ch=8 n=65 v=115
56352 On ch=8 n=53 v=70
56444 Par ch=8 c=1 v=60
56448 On ch=8 n=65 v=0
56448 On ch=8 n=53 v=0
56448 On ch=8 n=65 v=127
56448 On ch=8 n=53 v=70
56792 On ch=8 n=65 v=0
56792 On ch=8 n=53 v=0
56828 Par ch=8 c=1 v=0
56832 On ch=8 n=66 v=80
56832 On ch=8 n=54 v=70
56856 On ch=8 n=66 v=0
56856 On ch=8 n=54 v=0
56928 On ch=8 n=66 v=70
56928 On ch=8 n=54 v=70
56952 On ch=8 n=66 v=0
56952 On ch=8 n=54 v=0
57024 On ch=8 n=66 v=70
57024 On ch=8 n=54 v=70
57048 On ch=8 n=66 v=0
57048 On ch=8 n=54 v=0
57120 On ch=8 n=66 v=70
57120 On ch=8 n=54 v=70
57144 On ch=8 n=66 v=0
57144 On ch=8 n=54 v=0
57216 On ch=8 n=66 v=70
57216 On ch=8 n=54 v=70
57240 On ch=8 n=66 v=0
57240 On ch=8 n=54 v=0
57312 On ch=8 n=66 v=70
57312 On ch=8 n=54 v=70
57336 On ch=8 n=66 v=0
57336 On ch=8 n=54 v=0
57408 On ch=8 n=66 v=70
57408 On ch=8 n=54 v=70
57432 On ch=8 n=66 v=0
57432 On ch=8 n=54 v=0
57504 On ch=8 n=66 v=70
57504 On ch=8 n=54 v=70
57528 On ch=8 n=66 v=0
57528 On ch=8 n=54 v=0
57600 On ch=8 n=64 v=80
57600 On ch=8 n=52 v=70
57624 On ch=8 n=64 v=0
57624 On ch=8 n=52 v=0
57696 On ch=8 n=64 v=70
57696 On ch=8 n=52 v=70
57720 On ch=8 n=64 v=0
57720 On ch=8 n=52 v=0
57792 On ch=8 n=64 v=70
57792 On ch=8 n=52 v=70
57816 On ch=8 n=64 v=0
57816 On ch=8 n=52 v=0
57888 On ch=8 n=64 v=70
57888 On ch=8 n=52 v=70
57912 On ch=8 n=64 v=0
57912 On ch=8 n=52 v=0
57984 On ch=8 n=64 v=70
57984 On ch=8 n=52 v=70
58008 On ch=8 n=64 v=0
58008 On ch=8 n=52 v=0
58080 On ch=8 n=64 v=70
58080 On ch=8 n=52 v=70
58104 On ch=8 n=64 v=0
58104 On ch=8 n=52 v=0
58176 On ch=8 n=64 v=70
58176 On ch=8 n=52 v=70
58200 On ch=8 n=64 v=0
58200 On ch=8 n=52 v=0
58272 On ch=8 n=64 v=70
58272 On ch=8 n=52 v=70
58296 On ch=8 n=64 v=0
58296 On ch=8 n=52 v=0
58368 On ch=8 n=64 v=80
58368 On ch=8 n=52 v=70
58392 On ch=8 n=64 v=0
58392 On ch=8 n=52 v=0
58464 On ch=8 n=64 v=70
58464 On ch=8 n=52 v=70
58488 On ch=8 n=64 v=0
58488 On ch=8 n=52 v=0
58560 On ch=8 n=64 v=70
58560 On ch=8 n=52 v=70
58584 On ch=8 n=64 v=0
58584 On ch=8 n=52 v=0
58656 On ch=8 n=64 v=70
58656 On ch=8 n=52 v=70
58680 On ch=8 n=64 v=0
58680 On ch=8 n=52 v=0
58752 On ch=8 n=64 v=70
58752 On ch=8 n=52 v=70
58776 On ch=8 n=64 v=0
58776 On ch=8 n=52 v=0
58848 On ch=8 n=64 v=70
58848 On ch=8 n=52 v=70
58872 On ch=8 n=64 v=0
58872 On ch=8 n=52 v=0
58944 On ch=8 n=64 v=70
58944 On ch=8 n=52 v=70
58968 On ch=8 n=64 v=0
58968 On ch=8 n=52 v=0
59040 On ch=8 n=64 v=70
59040 On ch=8 n=52 v=70
59064 On ch=8 n=64 v=0
59064 On ch=8 n=52 v=0
59136 On ch=8 n=64 v=80
59136 On ch=8 n=52 v=70
59160 On ch=8 n=64 v=0
59160 On ch=8 n=52 v=0
59232 On ch=8 n=64 v=70
59232 On ch=8 n=52 v=70
59256 On ch=8 n=64 v=0
59256 On ch=8 n=52 v=0
59328 On ch=8 n=64 v=70
59328 On ch=8 n=52 v=70
59352 On ch=8 n=64 v=0
59352 On ch=8 n=52 v=0
59424 On ch=8 n=62 v=70
59424 On ch=8 n=50 v=70
59448 On ch=8 n=62 v=0
59448 On ch=8 n=50 v=0
59520 On ch=8 n=62 v=70
59520 On ch=8 n=50 v=70
59544 On ch=8 n=62 v=0
59544 On ch=8 n=50 v=0
59616 On ch=8 n=62 v=70
59616 On ch=8 n=50 v=70
59640 On ch=8 n=62 v=0
59640 On ch=8 n=50 v=0
59712 On ch=8 n=62 v=70
59712 On ch=8 n=50 v=70
59736 On ch=8 n=62 v=0
59736 On ch=8 n=50 v=0
59808 On ch=8 n=62 v=70
59808 On ch=8 n=50 v=70
59832 On ch=8 n=62 v=0
59832 On ch=8 n=50 v=0
59904 On ch=8 n=66 v=80
59904 On ch=8 n=54 v=80
59928 On ch=8 n=66 v=0
59928 On ch=8 n=54 v=0
60000 On ch=8 n=66 v=70
60000 On ch=8 n=54 v=70
60024 On ch=8 n=66 v=0
60024 On ch=8 n=54 v=0
60096 On ch=8 n=66 v=70
60096 On ch=8 n=54 v=70
60120 On ch=8 n=66 v=0
60120 On ch=8 n=54 v=0
60192 On ch=8 n=66 v=75
60192 On ch=8 n=54 v=75
60216 On ch=8 n=66 v=0
60216 On ch=8 n=54 v=0
60288 On ch=8 n=66 v=80
60288 On ch=8 n=54 v=80
60312 On ch=8 n=66 v=0
60312 On ch=8 n=54 v=0
60384 On ch=8 n=66 v=70
60384 On ch=8 n=54 v=70
60408 On ch=8 n=66 v=0
60408 On ch=8 n=54 v=0
60480 On ch=8 n=66 v=70
60480 On ch=8 n=54 v=70
60504 On ch=8 n=66 v=0
60504 On ch=8 n=54 v=0
60576 On ch=8 n=66 v=70
60576 On ch=8 n=54 v=70
60600 On ch=8 n=66 v=0
60600 On ch=8 n=54 v=0
60672 On ch=8 n=64 v=80
60672 On ch=8 n=52 v=80
60696 On ch=8 n=64 v=0
60696 On ch=8 n=52 v=0
60768 On ch=8 n=64 v=70
60768 On ch=8 n=52 v=70
60792 On ch=8 n=64 v=0
60792 On ch=8 n=52 v=0
60864 On ch=8 n=64 v=70
60864 On ch=8 n=52 v=70
60888 On ch=8 n=64 v=0
60888 On ch=8 n=52 v=0
60960 On ch=8 n=64 v=75
60960 On ch=8 n=52 v=75
60984 On ch=8 n=64 v=0
60984 On ch=8 n=52 v=0
61056 On ch=8 n=64 v=80
61056 On ch=8 n=52 v=80
61080 On ch=8 n=64 v=0
61080 On ch=8 n=52 v=0
61152 On ch=8 n=64 v=70
61152 On ch=8 n=52 v=70
61176 On ch=8 n=64 v=0
61176 On ch=8 n=52 v=0
61248 On ch=8 n=64 v=70
61248 On ch=8 n=52 v=70
61272 On ch=8 n=64 v=0
61272 On ch=8 n=52 v=0
61344 On ch=8 n=64 v=70
61344 On ch=8 n=52 v=70
61368 On ch=8 n=64 v=0
61368 On ch=8 n=52 v=0
61440 On ch=8 n=64 v=80
61440 On ch=8 n=52 v=80
61464 On ch=8 n=64 v=0
61464 On ch=8 n=52 v=0
61536 On ch=8 n=64 v=70
61536 On ch=8 n=52 v=70
61560 On ch=8 n=64 v=0
61560 On ch=8 n=52 v=0
61632 On ch=8 n=64 v=70
61632 On ch=8 n=52 v=70
61656 On ch=8 n=64 v=0
61656 On ch=8 n=52 v=0
61728 On ch=8 n=64 v=75
61728 On ch=8 n=52 v=75
61752 On ch=8 n=64 v=0
61752 On ch=8 n=52 v=0
61824 On ch=8 n=64 v=80
61824 On ch=8 n=52 v=80
61848 On ch=8 n=64 v=0
61848 On ch=8 n=52 v=0
61920 On ch=8 n=64 v=70
61920 On ch=8 n=52 v=70
61944 On ch=8 n=64 v=0
61944 On ch=8 n=52 v=0
62016 On ch=8 n=64 v=70
62016 On ch=8 n=52 v=70
62040 On ch=8 n=64 v=0
62040 On ch=8 n=52 v=0
62112 On ch=8 n=64 v=70
62112 On ch=8 n=52 v=70
62136 On ch=8 n=64 v=0
62136 On ch=8 n=52 v=0
62208 On ch=8 n=62 v=80
62208 On ch=8 n=50 v=80
62232 On ch=8 n=62 v=0
62232 On ch=8 n=50 v=0
62304 On ch=8 n=62 v=70
62304 On ch=8 n=50 v=70
62328 On ch=8 n=62 v=0
62328 On ch=8 n=50 v=0
62400 On ch=8 n=62 v=70
62400 On ch=8 n=50 v=70
62424 On ch=8 n=62 v=0
62424 On ch=8 n=50 v=0
62496 On ch=8 n=62 v=75
62496 On ch=8 n=50 v=75
62520 On ch=8 n=62 v=0
62520 On ch=8 n=50 v=0
62592 On ch=8 n=62 v=80
62592 On ch=8 n=50 v=80
62616 On ch=8 n=62 v=0
62616 On ch=8 n=50 v=0
62688 On ch=8 n=62 v=90
62688 On ch=8 n=50 v=90
62712 On ch=8 n=62 v=0
62712 On ch=8 n=50 v=0
62784 On ch=8 n=62 v=90
62784 On ch=8 n=50 v=90
62808 On ch=8 n=62 v=0
62808 On ch=8 n=50 v=0
62880 On ch=8 n=62 v=90
62880 On ch=8 n=50 v=90
62904 On ch=8 n=62 v=0
62904 On ch=8 n=50 v=0
63744 On ch=8 n=62 v=85
63744 On ch=8 n=50 v=85
63840 On ch=8 n=62 v=0
63840 On ch=8 n=50 v=0
63840 On ch=8 n=50 v=85
63936 On ch=8 n=50 v=0
63936 On ch=8 n=50 v=75
63936 On ch=8 n=62 v=75
64024 On ch=8 n=50 v=0
64024 On ch=8 n=62 v=0
64032 On ch=8 n=50 v=75
64120 On ch=8 n=50 v=0
64128 On ch=8 n=60 v=75
64128 On ch=8 n=48 v=75
64224 On ch=8 n=60 v=0
64224 On ch=8 n=48 v=0
64224 On ch=8 n=62 v=80
64224 On ch=8 n=50 v=80
64320 On ch=8 n=62 v=0
64320 On ch=8 n=50 v=0
64320 On ch=8 n=50 v=80
64416 On ch=8 n=50 v=0
64416 On ch=8 n=74 v=70
64416 On ch=8 n=62 v=85
64416 On ch=8 n=50 v=85
64496 On ch=8 n=62 v=0
64496 On ch=8 n=50 v=0
64512 On ch=8 n=74 v=0
64512 On ch=8 n=50 v=85
64608 On ch=8 n=50 v=0
64608 On ch=8 n=73 v=70
64608 On ch=8 n=62 v=85
64608 On ch=8 n=50 v=85
64672 On ch=8 n=73 v=0
64704 On ch=8 n=62 v=0
64704 On ch=8 n=50 v=0
64704 On ch=8 n=50 v=85
64800 On ch=8 n=50 v=0
64800 On ch=8 n=67 v=70
64800 On ch=8 n=62 v=75
64800 On ch=8 n=50 v=75
64892 Par ch=8 c=1 v=30
64896 On ch=8 n=67 v=0
64896 On ch=8 n=62 v=0
64896 On ch=8 n=50 v=0
64896 On ch=8 n=69 v=75
64896 On ch=8 n=60 v=75
64896 On ch=8 n=48 v=75
64992 On ch=8 n=60 v=0
64992 On ch=8 n=48 v=0
64992 On ch=8 n=50 v=85
65088 On ch=8 n=50 v=0
65088 On ch=8 n=50 v=70
65088 On ch=8 n=62 v=85
65180 Par ch=8 c=1 v=0
65184 On ch=8 n=50 v=0
65184 On ch=8 n=62 v=0
65184 On ch=8 n=74 v=70
65184 On ch=8 n=67 v=85
65184 On ch=8 n=55 v=85
65280 On ch=8 n=69 v=0
65280 On ch=8 n=74 v=0
65304 On ch=8 n=55 v=0
65376 On ch=8 n=67 v=0
65376 On ch=8 n=67 v=70
65376 On ch=8 n=55 v=70
65456 On ch=8 n=67 v=0
65456 On ch=8 n=55 v=0
65472 On ch=8 n=74 v=75
65472 On ch=8 n=67 v=80
65472 On ch=8 n=55 v=80
65544 On ch=8 n=67 v=0
65544 On ch=8 n=55 v=0
65552 On ch=8 n=74 v=0
65568 On ch=8 n=67 v=70
65568 On ch=8 n=55 v=70
65648 On ch=8 n=67 v=0
65648 On ch=8 n=55 v=0
65664 On ch=8 n=74 v=75
65664 On ch=8 n=65 v=85
65664 On ch=8 n=53 v=85
65744 On ch=8 n=74 v=0
65760 On ch=8 n=65 v=0
65760 On ch=8 n=53 v=0
65760 On ch=8 n=67 v=75
65760 On ch=8 n=55 v=75
65856 On ch=8 n=67 v=0
65856 On ch=8 n=55 v=0
65952 On ch=8 n=67 v=75
65952 On ch=8 n=55 v=75
66032 On ch=8 n=67 v=0
66032 On ch=8 n=55 v=0
66048 On ch=8 n=74 v=75
66048 On ch=8 n=55 v=90
66144 On ch=8 n=55 v=0
66144 On ch=8 n=67 v=75
66144 On ch=8 n=55 v=75
66240 On ch=8 n=74 v=0
66240 On ch=8 n=67 v=0
66240 On ch=8 n=55 v=0
66336 On ch=8 n=74 v=75
66336 On ch=8 n=67 v=75
66336 On ch=8 n=55 v=75
66424 On ch=8 n=67 v=0
66424 On ch=8 n=55 v=0
66428 Par ch=8 c=1 v=50
66432 On ch=8 n=65 v=75
66432 On ch=8 n=53 v=75
66720 On ch=8 n=74 v=0
66812 Par ch=8 c=1 v=0
66816 On ch=8 n=65 v=0
66816 On ch=8 n=53 v=0
66816 On ch=8 n=57 v=80
66912 On ch=8 n=57 v=0
66912 On ch=8 n=50 v=80
66980 Pb ch=8 v=8320
66992 Pb ch=8 v=8448
66996 Pb ch=8 v=8576
67000 Pb ch=8 v=8832
67004 Pb ch=8 v=8192
67008 On ch=8 n=50 v=0
67008 On ch=8 n=53 v=80
67104 On ch=8 n=53 v=0
67104 On ch=8 n=50 v=80
67156 Pb ch=8 v=8320
67168 Pb ch=8 v=8448
67176 Pb ch=8 v=8576
67180 Pb ch=8 v=8704
67184 Pb ch=8 v=8960
67188 Pb ch=8 v=9088
67192 Pb ch=8 v=9472
67196 Pb ch=8 v=8192
67200 On ch=8 n=50 v=0
67200 On ch=8 n=60 v=80
67272 Pb ch=8 v=8320
67280 Pb ch=8 v=8448
67284 Pb ch=8 v=8576
67288 Pb ch=8 v=8704
67292 Pb ch=8 v=8192
67296 On ch=8 n=60 v=0
67296 On ch=8 n=62 v=80
67364 Pb ch=8 v=8064
67376 Pb ch=8 v=7936
67380 Pb ch=8 v=7808
67384 Pb ch=8 v=7552
67388 Pb ch=8 v=8192
67392 On ch=8 n=62 v=0
67392 On ch=8 n=57 v=80
67460 Pb ch=8 v=8064
67472 Pb ch=8 v=7936
67476 Pb ch=8 v=7808
67480 Pb ch=8 v=7552
67484 Pb ch=8 v=8192
67488 On ch=8 n=57 v=0
67488 On ch=8 n=50 v=80
67584 On ch=8 n=50 v=0
67584 On ch=8 n=55 v=80
67652 Pb ch=8 v=8320
67664 Pb ch=8 v=8448
67668 Pb ch=8 v=8576
67672 Pb ch=8 v=8832
67676 Pb ch=8 v=8192
67680 On ch=8 n=55 v=0
67680 On ch=8 n=57 v=80
67752 Pb ch=8 v=8064
67760 Pb ch=8 v=7936
67764 Pb ch=8 v=7808
67768 Pb ch=8 v=7680
67772 Pb ch=8 v=8192
67776 On ch=8 n=57 v=0
67776 On ch=8 n=55 v=80
67848 Pb ch=8 v=8320
67856 Pb ch=8 v=8448
67860 Pb ch=8 v=8576
67864 Pb ch=8 v=8704
67868 Pb ch=8 v=8192
67872 On ch=8 n=55 v=0
67872 On ch=8 n=57 v=80
67968 On ch=8 n=57 v=0
67968 On ch=8 n=57 v=80
68040 Pb ch=8 v=8064
68048 Pb ch=8 v=7936
68052 Pb ch=8 v=7808
68056 Pb ch=8 v=7680
68060 Pb ch=8 v=8192
68064 On ch=8 n=57 v=0
68064 On ch=8 n=55 v=80
68136 Pb ch=8 v=8064
68148 Pb ch=8 v=7936
68152 Pb ch=8 v=7808
68156 Pb ch=8 v=8192
68160 On ch=8 n=55 v=0
68160 On ch=8 n=53 v=80
68232 Pb ch=8 v=8320
68240 Pb ch=8 v=8448
68244 Pb ch=8 v=8576
68248 Pb ch=8 v=8704
68252 Pb ch=8 v=8192
68256 On ch=8 n=53 v=0
68256 On ch=8 n=55 v=80
68352 On ch=8 n=55 v=0
68352 On ch=8 n=67 v=85
68352 On ch=8 n=55 v=85
68440 On ch=8 n=67 v=0
68440 On ch=8 n=55 v=0
68448 On ch=8 n=67 v=80
68448 On ch=8 n=55 v=80
68536 On ch=8 n=67 v=0
68536 On ch=8 n=55 v=0
68544 On ch=8 n=67 v=80
68544 On ch=8 n=55 v=80
68632 On ch=8 n=67 v=0
68632 On ch=8 n=55 v=0
68640 On ch=8 n=67 v=80
68640 On ch=8 n=55 v=70
68728 On ch=8 n=67 v=0
68728 On ch=8 n=55 v=0
68832 On ch=8 n=67 v=85
68832 On ch=8 n=55 v=85
68920 On ch=8 n=67 v=0
68920 On ch=8 n=55 v=0
68928 On ch=8 n=67 v=80
68928 On ch=8 n=55 v=80
69016 On ch=8 n=67 v=0
69016 On ch=8 n=55 v=0
69120 On ch=8 n=67 v=80
69120 On ch=8 n=55 v=80
69208 On ch=8 n=67 v=0
69208 On ch=8 n=55 v=0
69312 On ch=8 n=67 v=80
69312 On ch=8 n=55 v=80
69400 On ch=8 n=67 v=0
69400 On ch=8 n=55 v=0
69504 On ch=8 n=67 v=80
69504 On ch=8 n=55 v=80
69592 On ch=8 n=67 v=0
69592 On ch=8 n=55 v=0
69696 On ch=8 n=67 v=80
69696 On ch=8 n=55 v=80
69784 On ch=8 n=67 v=0
69784 On ch=8 n=55 v=0
69888 On ch=8 n=62 v=80
69976 On ch=8 n=62 v=0
69984 On ch=8 n=60 v=80
70072 On ch=8 n=60 v=0
70080 On ch=8 n=57 v=80
70168 On ch=8 n=57 v=0
70176 On ch=8 n=50 v=80
70264 On ch=8 n=50 v=0
70368 On ch=8 n=50 v=60
70368 On ch=8 n=62 v=80
70456 On ch=8 n=50 v=0
70456 On ch=8 n=62 v=0
70560 On ch=8 n=50 v=60
70560 On ch=8 n=62 v=80
70648 On ch=8 n=50 v=0
70648 On ch=8 n=62 v=0
70752 On ch=8 n=57 v=80
70752 On ch=8 n=45 v=50
70840 On ch=8 n=57 v=0
70840 On ch=8 n=45 v=0
70944 On ch=8 n=62 v=80
70944 On ch=8 n=50 v=50
71032 On ch=8 n=62 v=0
71032 On ch=8 n=50 v=0
71136 On ch=8 n=57 v=80
71136 On ch=8 n=45 v=50
71224 On ch=8 n=57 v=0
71224 On ch=8 n=45 v=0
71328 On ch=8 n=57 v=80
71328 On ch=8 n=45 v=50
71416 On ch=8 n=57 v=0
71416 On ch=8 n=45 v=0
71520 On ch=8 n=62 v=80
71520 On ch=8 n=50 v=50
71608 On ch=8 n=62 v=0
71608 On ch=8 n=50 v=0
71712 On ch=8 n=57 v=80
71712 On ch=8 n=45 v=50
71800 On ch=8 n=57 v=0
71800 On ch=8 n=45 v=0
71904 On ch=8 n=62 v=80
71904 On ch=8 n=50 v=50
71992 On ch=8 n=62 v=0
71992 On ch=8 n=50 v=0
72096 On ch=8 n=62 v=80
72096 On ch=8 n=50 v=50
72184 On ch=8 n=62 v=0
72184 On ch=8 n=50 v=0
72288 On ch=8 n=62 v=80
72288 On ch=8 n=50 v=50
72376 On ch=8 n=62 v=0
72376 On ch=8 n=50 v=0
72480 On ch=8 n=62 v=80
72480 On ch=8 n=50 v=50
72568 On ch=8 n=62 v=0
72568 On ch=8 n=50 v=0
72672 On ch=8 n=62 v=80
72672 On ch=8 n=50 v=50
72760 On ch=8 n=62 v=0
72760 On ch=8 n=50 v=0
72864 On ch=8 n=62 v=80
72864 On ch=8 n=50 v=50
73120 On ch=8 n=62 v=0
73120 On ch=8 n=50 v=0
73152 On ch=8 n=57 v=80
73152 On ch=8 n=45 v=50
73272 On ch=8 n=57 v=0
73272 On ch=8 n=45 v=0
73344 On ch=8 n=62 v=80
73344 On ch=8 n=50 v=50
73464 On ch=8 n=62 v=0
73464 On ch=8 n=50 v=0
73536 On ch=8 n=62 v=80
73536 On ch=8 n=50 v=50
73624 On ch=8 n=62 v=0
73624 On ch=8 n=50 v=0
73632 On ch=8 n=62 v=80
73632 On ch=8 n=50 v=50
73720 On ch=8 n=62 v=0
73720 On ch=8 n=50 v=0
73824 On ch=8 n=62 v=80
73824 On ch=8 n=50 v=50
73920 On ch=8 n=62 v=0
73920 On ch=8 n=50 v=0
74016 On ch=8 n=62 v=80
74016 On ch=8 n=50 v=50
74112 On ch=8 n=62 v=0
74112 On ch=8 n=50 v=0
74208 On ch=8 n=62 v=80
74208 On ch=8 n=50 v=50
74304 On ch=8 n=62 v=0
74304 On ch=8 n=50 v=0
74400 On ch=8 n=62 v=80
74400 On ch=8 n=50 v=50
74496 On ch=8 n=62 v=0
74496 On ch=8 n=50 v=0
74592 On ch=8 n=62 v=85
74592 On ch=8 n=50 v=55
74688 On ch=8 n=62 v=0
74688 On ch=8 n=50 v=0
74784 On ch=8 n=62 v=90
74784 On ch=8 n=50 v=60
74880 On ch=8 n=62 v=0
74880 On ch=8 n=50 v=0
74976 On ch=8 n=62 v=95
74976 On ch=8 n=50 v=65
75072 On ch=8 n=62 v=0
75072 On ch=8 n=50 v=0
75168 On ch=8 n=62 v=100
75168 On ch=8 n=50 v=70
75264 On ch=8 n=62 v=0
75264 On ch=8 n=50 v=0
75360 On ch=8 n=62 v=105
75360 On ch=8 n=50 v=75
75456 On ch=8 n=62 v=0
75456 On ch=8 n=50 v=0
75552 On ch=8 n=62 v=110
75552 On ch=8 n=50 v=80
75648 On ch=8 n=62 v=0
75648 On ch=8 n=50 v=0
75744 On ch=8 n=62 v=115
75744 On ch=8 n=50 v=85
75840 On ch=8 n=62 v=0
75840 On ch=8 n=50 v=0
75936 On ch=8 n=62 v=120
75936 On ch=8 n=50 v=100
76032 On ch=8 n=62 v=0
76032 On ch=8 n=50 v=0
76032 On ch=8 n=50 v=105
76080 On ch=8 n=50 v=0
76128 On ch=8 n=50 v=105
76176 On ch=8 n=50 v=0
76224 On ch=8 n=57 v=110
76224 On ch=8 n=50 v=110
76272 On ch=8 n=50 v=0
76296 On ch=8 n=57 v=0
76320 On ch=8 n=50 v=105
76368 On ch=8 n=50 v=0
76416 On ch=8 n=60 v=120
76416 On ch=8 n=50 v=110
76464 On ch=8 n=50 v=0
76488 On ch=8 n=60 v=0
76512 On ch=8 n=50 v=100
76560 On ch=8 n=50 v=0
76608 On ch=8 n=57 v=100
76608 On ch=8 n=50 v=105
76656 On ch=8 n=50 v=0
76688 On ch=8 n=57 v=0
76704 On ch=8 n=62 v=120
76704 On ch=8 n=50 v=110
76752 On ch=8 n=50 v=0
76800 On ch=8 n=62 v=0
76800 On ch=8 n=50 v=105
76848 On ch=8 n=50 v=0
76896 On ch=8 n=57 v=100
76896 On ch=8 n=50 v=110
76944 On ch=8 n=50 v=0
76968 On ch=8 n=57 v=0
76992 On ch=8 n=50 v=105
77040 On ch=8 n=50 v=0
77088 On ch=8 n=60 v=115
77088 On ch=8 n=50 v=110
77136 On ch=8 n=50 v=0
77176 On ch=8 n=60 v=0
77184 On ch=8 n=60 v=120
77184 On ch=8 n=50 v=110
77232 On ch=8 n=50 v=0
77256 On ch=8 n=60 v=0
77280 On ch=8 n=50 v=105
77328 On ch=8 n=50 v=0
77376 On ch=8 n=57 v=100
77376 On ch=8 n=50 v=105
77424 On ch=8 n=50 v=0
77448 On ch=8 n=57 v=0
77472 On ch=8 n=67 v=120
77472 On ch=8 n=55 v=105
77520 On ch=8 n=55 v=0
77544 On ch=8 n=67 v=0
77568 On ch=8 n=55 v=105
77616 On ch=8 n=55 v=0
77664 On ch=8 n=55 v=105
77712 On ch=8 n=55 v=0
77760 On ch=8 n=62 v=110
77760 On ch=8 n=55 v=110
77808 On ch=8 n=55 v=0
77832 On ch=8 n=62 v=0
77856 On ch=8 n=55 v=105
77904 On ch=8 n=55 v=0
77952 On ch=8 n=65 v=120
77952 On ch=8 n=55 v=110
78000 On ch=8 n=55 v=0
78024 On ch=8 n=65 v=0
78048 On ch=8 n=55 v=100
78096 On ch=8 n=55 v=0
78144 On ch=8 n=62 v=95
78144 On ch=8 n=55 v=105
78192 On ch=8 n=55 v=0
78208 On ch=8 n=62 v=0
78240 On ch=8 n=67 v=120
78240 On ch=8 n=55 v=110
78288 On ch=8 n=55 v=0
78336 On ch=8 n=67 v=0
78336 On ch=8 n=55 v=105
78384 On ch=8 n=55 v=0
78432 On ch=8 n=62 v=110
78432 On ch=8 n=55 v=110
78480 On ch=8 n=55 v=0
78504 On ch=8 n=62 v=0
78528 On ch=8 n=55 v=105
78576 On ch=8 n=55 v=0
78624 On ch=8 n=65 v=115
78624 On ch=8 n=55 v=110
78672 On ch=8 n=55 v=0
78712 On ch=8 n=65 v=0
78720 On ch=8 n=65 v=120
78720 On ch=8 n=55 v=110
78768 On ch=8 n=55 v=0
78792 On ch=8 n=65 v=0
78816 On ch=8 n=55 v=105
78864 On ch=8 n=55 v=0
78912 On ch=8 n=62 v=50
78912 On ch=8 n=55 v=105
78960 On ch=8 n=55 v=0
78984 On ch=8 n=62 v=0
79008 On ch=8 n=62 v=60
79008 On ch=8 n=50 v=105
79056 On ch=8 n=50 v=0
79080 On ch=8 n=62 v=0
79104 On ch=8 n=50 v=105
79152 On ch=8 n=50 v=0
79200 On ch=8 n=50 v=105
79248 On ch=8 n=50 v=0
79296 On ch=8 n=57 v=110
79296 On ch=8 n=50 v=110
79344 On ch=8 n=50 v=0
79368 On ch=8 n=57 v=0
79392 On ch=8 n=50 v=105
79440 On ch=8 n=50 v=0
79488 On ch=8 n=60 v=120
79488 On ch=8 n=50 v=110
79536 On ch=8 n=50 v=0
79560 On ch=8 n=60 v=0
79584 On ch=8 n=50 v=100
79632 On ch=8 n=50 v=0
79680 On ch=8 n=57 v=95
79680 On ch=8 n=50 v=105
79728 On ch=8 n=50 v=0
79760 On ch=8 n=57 v=0
79776 On ch=8 n=62 v=120
79776 On ch=8 n=50 v=110
79824 On ch=8 n=50 v=0
79872 On ch=8 n=62 v=0
79872 On ch=8 n=50 v=105
79920 On ch=8 n=50 v=0
79968 On ch=8 n=57 v=100
79968 On ch=8 n=50 v=110
80016 On ch=8 n=50 v=0
80040 On ch=8 n=57 v=0
80064 On ch=8 n=50 v=105
80112 On ch=8 n=50 v=0
80160 On ch=8 n=60 v=115
80160 On ch=8 n=50 v=110
80208 On ch=8 n=50 v=0
80248 On ch=8 n=60 v=0
80256 On ch=8 n=60 v=120
80256 On ch=8 n=50 v=110
80304 On ch=8 n=50 v=0
80328 On ch=8 n=60 v=0
80352 On ch=8 n=50 v=105
80400 On ch=8 n=50 v=0
80448 On ch=8 n=57 v=100
80448 On ch=8 n=50 v=105
80496 On ch=8 n=50 v=0
80520 On ch=8 n=57 v=0
80544 On ch=8 n=67 v=125
80544 On ch=8 n=55 v=105
80592 On ch=8 n=55 v=0
80616 On ch=8 n=67 v=0
80640 On ch=8 n=55 v=105
80688 On ch=8 n=55 v=0
80736 On ch=8 n=55 v=105
80784 On ch=8 n=55 v=0
80832 On ch=8 n=67 v=116
80832 On ch=8 n=55 v=110
80880 On ch=8 n=55 v=0
80912 On ch=8 n=67 v=0
80928 On ch=8 n=55 v=105
80976 On ch=8 n=55 v=0
81024 On ch=8 n=67 v=120
81024 On ch=8 n=55 v=110
81072 On ch=8 n=55 v=0
81120 On ch=8 n=67 v=0
81120 On ch=8 n=55 v=100
81168 On ch=8 n=55 v=0
81216 On ch=8 n=55 v=105
81264 On ch=8 n=55 v=0
81312 On ch=8 n=67 v=120
81312 On ch=8 n=55 v=110
81360 On ch=8 n=55 v=0
81408 On ch=8 n=67 v=0
81408 On ch=8 n=55 v=105
81456 On ch=8 n=55 v=0
81504 On ch=8 n=67 v=122
81504 On ch=8 n=55 v=110
81552 On ch=8 n=55 v=0
81576 On ch=8 n=67 v=0
81600 On ch=8 n=55 v=105
81648 On ch=8 n=55 v=0
81696 On ch=8 n=67 v=125
81696 On ch=8 n=55 v=110
81744 On ch=8 n=55 v=0
81788 Par ch=8 c=1 v=65
81792 On ch=8 n=67 v=0
81792 On ch=8 n=65 v=127
81792 On ch=8 n=53 v=110
81840 On ch=8 n=53 v=0
81888 On ch=8 n=53 v=95
81936 On ch=8 n=53 v=0
81984 On ch=8 n=53 v=85
82032 On ch=8 n=53 v=0
82164 Par ch=8 c=1 v=0
82172 Par ch=8 c=11 v=30
82176 On ch=8 n=65 v=0
82176 On ch=8 n=38 v=125
82180 Par ch=8 c=11 v=34
82184 Par ch=8 c=11 v=35
82188 Par ch=8 c=11 v=38
82192 Par ch=8 c=11 v=39
82196 Par ch=8 c=11 v=41
82200 Par ch=8 c=11 v=43
82204 Par ch=8 c=11 v=44
82208 Par ch=8 c=11 v=46
82212 Par ch=8 c=11 v=48
82216 Par ch=8 c=11 v=49
82220 Par ch=8 c=11 v=50
82224 Par ch=8 c=11 v=52
82228 Par ch=8 c=11 v=53
82232 Par ch=8 c=11 v=54
82236 Par ch=8 c=11 v=56
82240 Par ch=8 c=11 v=57
82244 Par ch=8 c=11 v=58
82248 Par ch=8 c=11 v=60
82252 Par ch=8 c=11 v=61
82256 Par ch=8 c=11 v=62
82260 Par ch=8 c=11 v=63
82264 Par ch=8 c=11 v=64
82268 Par ch=8 c=11 v=65
82272 Par ch=8 c=11 v=66
82276 Par ch=8 c=11 v=67
82280 Par ch=8 c=11 v=68
82284 Par ch=8 c=11 v=69
82288 Par ch=8 c=11 v=70
82292 Par ch=8 c=11 v=71
82296 Par ch=8 c=11 v=72
82304 Par ch=8 c=11 v=73
82308 Par ch=8 c=11 v=74
82312 Par ch=8 c=11 v=75
82320 Par ch=8 c=11 v=76
82324 Par ch=8 c=11 v=77
82328 Par ch=8 c=11 v=78
82336 Par ch=8 c=11 v=79
82344 Par ch=8 c=11 v=80
82348 Par ch=8 c=11 v=81
82356 Par ch=8 c=11 v=82
82364 Par ch=8 c=11 v=83
82368 Par ch=8 c=11 v=84
82376 Par ch=8 c=11 v=85
82388 Par ch=8 c=11 v=86
82396 Par ch=8 c=11 v=87
82408 Par ch=8 c=11 v=88
82420 Par ch=8 c=11 v=89
82428 Par ch=8 c=11 v=90
82444 Par ch=8 c=11 v=91
82460 Par ch=8 c=11 v=92
82472 Par ch=8 c=11 v=93
82492 Par ch=8 c=11 v=94
82516 Par ch=8 c=11 v=95
82536 Par ch=8 c=11 v=96
82564 Par ch=8 c=11 v=97
82612 Par ch=8 c=11 v=98
82656 Par ch=8 c=11 v=99
82752 Par ch=8 c=11 v=100
82944 On ch=8 n=38 v=0
82944 On ch=8 n=36 v=115
83608 Pb ch=8 v=8064
83628 Pb ch=8 v=7936
83640 Pb ch=8 v=7808
83652 Pb ch=8 v=7680
83660 Pb ch=8 v=7552
83664 Pb ch=8 v=7424
83668 Pb ch=8 v=7296
83672 Pb ch=8 v=7168
83676 Pb ch=8 v=7040
83680 Pb ch=8 v=6784
83684 Pb ch=8 v=6656
83688 Pb ch=8 v=6400
83692 Pb ch=8 v=6272
83696 Pb ch=8 v=5888
83700 Pb ch=8 v=5632
83704 Pb ch=8 v=5248
83708 Pb ch=8 v=8192
83712 On ch=8 n=36 v=0
83712 On ch=8 n=33 v=95
84404 Pb ch=8 v=8064
84428 Pb ch=8 v=7936
84440 Pb ch=8 v=7808
84452 Pb ch=8 v=7680
84460 Pb ch=8 v=7552
84464 Pb ch=8 v=7424
84468 Pb ch=8 v=7296
84472 Pb ch=8 v=7040
84476 Pb ch=8 v=8192
84480 On ch=8 n=33 v=0
84480 On ch=8 n=31 v=75
84640 Par ch=8 c=11 v=99
84720 Par ch=8 c=11 v=98
84756 Par ch=8 c=11 v=97
84796 Par ch=8 c=11 v=96
84820 Par ch=8 c=11 v=95
84836 Par ch=8 c=11 v=94
84856 Par ch=8 c=11 v=93
84876 Par ch=8 c=11 v=92
84884 Par ch=8 c=11 v=91
84896 Par ch=8 c=11 v=90
84908 Par ch=8 c=11 v=89
84916 Par ch=8 c=11 v=88
84928 Par ch=8 c=11 v=87
84936 Par ch=8 c=11 v=86
84944 Par ch=8 c=11 v=85
84952 Par ch=8 c=11 v=84
84960 Par ch=8 c=11 v=83
84964 Par ch=8 c=11 v=82
84972 Par ch=8 c=11 v=81
84976 Par ch=8 c=11 v=80
84980 Par ch=8 c=11 v=79
84988 Par ch=8 c=11 v=78
84992 Par ch=8 c=11 v=77
84996 Par ch=8 c=11 v=76
85000 Par ch=8 c=11 v=75
85008 Par ch=8 c=11 v=74
85012 Par ch=8 c=11 v=72
85020 Par ch=8 c=11 v=71
85024 Par ch=8 c=11 v=70
85028 Par ch=8 c=11 v=69
85032 Par ch=8 c=11 v=67
85036 Par ch=8 c=11 v=66
85040 Par ch=8 c=11 v=65
85044 Par ch=8 c=11 v=63
85048 Par ch=8 c=11 v=62
85052 Par ch=8 c=11 v=61
85056 Par ch=8 c=11 v=60
85060 Par ch=8 c=11 v=58
85064 Par ch=8 c=11 v=56
85068 Par ch=8 c=11 v=55
85072 Par ch=8 c=11 v=53
85076 Par ch=8 c=11 v=52
85080 Par ch=8 c=11 v=50
85084 Par ch=8 c=11 v=48
85088 Par ch=8 c=11 v=47
85092 Par ch=8 c=11 v=44
85096 Par ch=8 c=11 v=43
85100 Par ch=8 c=11 v=41
85104 Par ch=8 c=11 v=38
85108 Par ch=8 c=11 v=37
85112 Par ch=8 c=11 v=34
85116 Par ch=8 c=11 v=30
85120 On ch=8 n=31 v=0
85120 Par ch=8 c=11 v=60
85248 On ch=8 n=38 v=125
85252 Par ch=8 c=11 v=62
85256 Par ch=8 c=11 v=63
85260 Par ch=8 c=11 v=65
85268 Par ch=8 c=11 v=66
85272 Par ch=8 c=11 v=68
85280 Par ch=8 c=11 v=69
85284 Par ch=8 c=11 v=70
85288 Par ch=8 c=11 v=71
85292 Par ch=8 c=11 v=72
85296 Par ch=8 c=11 v=73
85304 Par ch=8 c=11 v=74
85308 Par ch=8 c=11 v=75
85312 Par ch=8 c=11 v=76
85320 Par ch=8 c=11 v=77
85324 Par ch=8 c=11 v=78
85332 Par ch=8 c=11 v=79
85336 Par ch=8 c=11 v=80
85344 Par ch=8 c=11 v=81
85352 Par ch=8 c=11 v=82
85356 Par ch=8 c=11 v=83
85368 Par ch=8 c=11 v=84
85376 Par ch=8 c=11 v=85
85384 Par ch=8 c=11 v=86
85392 Par ch=8 c=11 v=87
85404 Par ch=8 c=11 v=88
85416 Par ch=8 c=11 v=89
85428 Par ch=8 c=11 v=90
85440 Par ch=8 c=11 v=91
85452 Par ch=8 c=11 v=92
85468 Par ch=8 c=11 v=93
85488 Par ch=8 c=11 v=94
85508 Par ch=8 c=11 v=95
85536 Par ch=8 c=11 v=96
85564 Par ch=8 c=11 v=97
85600 Par ch=8 c=11 v=98
85660 Par ch=8 c=11 v=99
85744 Par ch=8 c=11 v=100
85936 Pb ch=8 v=8064
85960 Pb ch=8 v=7936
85976 Pb ch=8 v=7808
85984 Pb ch=8 v=7680
85992 Pb ch=8 v=7552
86000 Pb ch=8 v=7424
86004 Pb ch=8 v=7296
86008 Pb ch=8 v=7168
86012 Pb ch=8 v=8192
86016 On ch=8 n=38 v=0
86016 On ch=8 n=36 v=100
86760 Pb ch=8 v=8064
86788 Pb ch=8 v=7936
86804 Pb ch=8 v=7808
86816 Pb ch=8 v=7680
86828 Pb ch=8 v=7552
86836 Pb ch=8 v=7424
86840 Pb ch=8 v=7296
86844 Pb ch=8 v=7168
86848 Pb ch=8 v=7040
86852 Pb ch=8 v=6912
86856 Pb ch=8 v=6784
86860 Pb ch=8 v=6656
86864 Pb ch=8 v=6528
86868 Pb ch=8 v=6272
86872 Pb ch=8 v=6016
86876 Pb ch=8 v=8192
86880 On ch=8 n=36 v=0
86880 On ch=8 n=33 v=80
87488 Pb ch=8 v=8064
87512 Pb ch=8 v=7936
87528 Pb ch=8 v=7808
87536 Pb ch=8 v=7680
87540 Pb ch=8 v=7552
87544 Pb ch=8 v=7424
87548 Pb ch=8 v=8192
87552 On ch=8 n=33 v=0
87552 On ch=8 n=31 v=63
88216 Pb ch=8 v=0
88220 Par ch=8 c=11 v=60
88224 On ch=8 n=77 v=115
88224 On ch=8 n=74 v=115
88252 Par ch=8 c=11 v=70
88256 Pb ch=8 v=128
88268 Par ch=8 c=11 v=80
88272 Pb ch=8 v=256
88276 Par ch=8 c=11 v=90
88280 Pb ch=8 v=384
88284 Par ch=8 c=11 v=100
88288 Pb ch=8 v=512
88292 Pb ch=8 v=640
88296 Pb ch=8 v=768
88300 Pb ch=8 v=896
88304 Pb ch=8 v=1024
88308 Pb ch=8 v=1280
88312 Pb ch=8 v=1536
88316 Pb ch=8 v=1792
88320 Pb ch=8 v=2304
88324 On ch=8 n=31 v=0
88324 Pb ch=8 v=2688
88328 Pb ch=8 v=3200
88332 Pb ch=8 v=3840
88336 Pb ch=8 v=4736
88340 Pb ch=8 v=5632
88344 Pb ch=8 v=6656
88348 Pb ch=8 v=8192
88352 On ch=8 n=77 v=0
88352 On ch=8 n=74 v=0
88352 On ch=8 n=72 v=115
88352 On ch=8 n=69 v=115
88384 On ch=8 n=72 v=0
88384 On ch=8 n=69 v=0
88384 On ch=8 n=77 v=115
88384 On ch=8 n=72 v=115
88416 On ch=8 n=77 v=0
88416 On ch=8 n=72 v=0
88416 On ch=8 n=72 v=115
88416 On ch=8 n=69 v=115
88448 On ch=8 n=72 v=0
88448 On ch=8 n=69 v=0
88448 On ch=8 n=74 v=115
88448 On ch=8 n=69 v=115
88480 On ch=8 n=74 v=0
88480 On ch=8 n=69 v=0
88480 On ch=8 n=69 v=115
88512 On ch=8 n=69 v=0
88512 On ch=8 n=77 v=115
88512 On ch=8 n=72 v=115
88544 On ch=8 n=77 v=0
88544 On ch=8 n=72 v=0
88544 On ch=8 n=74 v=115
88544 On ch=8 n=69 v=115
88576 On ch=8 n=74 v=0
88576 On ch=8 n=69 v=0
88576 On ch=8 n=77 v=115
88576 On ch=8 n=72 v=115
88608 On ch=8 n=77 v=0
88608 On ch=8 n=72 v=0
88608 On ch=8 n=74 v=115
88608 On ch=8 n=69 v=115
88640 On ch=8 n=74 v=0
88640 On ch=8 n=69 v=0
88640 On ch=8 n=77 v=115
88640 On ch=8 n=72 v=115
88672 On ch=8 n=77 v=0
88672 On ch=8 n=72 v=0
88672 On ch=8 n=74 v=115
88672 On ch=8 n=69 v=115
88704 On ch=8 n=74 v=0
88704 On ch=8 n=69 v=0
88704 On ch=8 n=77 v=115
88704 On ch=8 n=72 v=115
88736 On ch=8 n=77 v=0
88736 On ch=8 n=72 v=0
88736 On ch=8 n=74 v=115
88736 On ch=8 n=69 v=115
88768 On ch=8 n=74 v=0
88768 On ch=8 n=69 v=0
88768 On ch=8 n=77 v=115
88768 On ch=8 n=72 v=115
88800 On ch=8 n=77 v=0
88800 On ch=8 n=72 v=0
88800 On ch=8 n=72 v=115
88800 On ch=8 n=69 v=115
88832 On ch=8 n=72 v=0
88832 On ch=8 n=69 v=0
88832 On ch=8 n=77 v=115
88832 On ch=8 n=74 v=115
88864 On ch=8 n=77 v=0
88864 On ch=8 n=74 v=0
88864 On ch=8 n=72 v=115
88864 On ch=8 n=69 v=115
88896 On ch=8 n=72 v=0
88896 On ch=8 n=69 v=0
88896 On ch=8 n=77 v=115
88896 On ch=8 n=74 v=115
88928 On ch=8 n=77 v=0
88928 On ch=8 n=74 v=0
88928 On ch=8 n=72 v=115
88928 On ch=8 n=69 v=115
88960 On ch=8 n=72 v=0
88960 On ch=8 n=69 v=0
88960 On ch=8 n=77 v=115
88960 On ch=8 n=74 v=115
88992 On ch=8 n=77 v=0
88992 On ch=8 n=74 v=0
88992 On ch=8 n=72 v=115
88992 On ch=8 n=69 v=115
89024 On ch=8 n=72 v=0
89024 On ch=8 n=69 v=0
89024 On ch=8 n=77 v=115
89024 On ch=8 n=74 v=115
89056 On ch=8 n=77 v=0
89056 On ch=8 n=74 v=0
89056 On ch=8 n=72 v=115
89056 On ch=8 n=69 v=115
89088 On ch=8 n=72 v=0
89088 On ch=8 n=69 v=0
89088 On ch=8 n=77 v=115
89088 On ch=8 n=74 v=115
89120 On ch=8 n=77 v=0
89120 On ch=8 n=74 v=0
89120 On ch=8 n=72 v=115
89120 On ch=8 n=69 v=115
89152 On ch=8 n=72 v=0
89152 On ch=8 n=69 v=0
89152 On ch=8 n=77 v=115
89152 On ch=8 n=74 v=115
89184 On ch=8 n=77 v=0
89184 On ch=8 n=74 v=0
89184 On ch=8 n=72 v=115
89184 On ch=8 n=69 v=115
89216 On ch=8 n=72 v=0
89216 On ch=8 n=69 v=0
89216 On ch=8 n=77 v=115
89216 On ch=8 n=74 v=115
89248 On ch=8 n=77 v=0
89248 On ch=8 n=74 v=0
89248 On ch=8 n=72 v=115
89248 On ch=8 n=69 v=115
89280 On ch=8 n=72 v=0
89280 On ch=8 n=69 v=0
89280 On ch=8 n=77 v=115
89280 On ch=8 n=74 v=115
89312 On ch=8 n=77 v=0
89312 On ch=8 n=74 v=0
89312 On ch=8 n=72 v=115
89312 On ch=8 n=69 v=115
89344 On ch=8 n=72 v=0
89344 On ch=8 n=69 v=0
89344 On ch=8 n=77 v=115
89344 On ch=8 n=74 v=115
89376 On ch=8 n=77 v=0
89376 On ch=8 n=74 v=0
89376 On ch=8 n=72 v=115
89376 On ch=8 n=69 v=115
89408 On ch=8 n=72 v=0
89408 On ch=8 n=69 v=0
89408 On ch=8 n=77 v=115
89408 On ch=8 n=74 v=115
89440 On ch=8 n=77 v=0
89440 On ch=8 n=74 v=0
89440 On ch=8 n=72 v=115
89440 On ch=8 n=69 v=115
89472 On ch=8 n=72 v=0
89472 On ch=8 n=69 v=0
89472 On ch=8 n=77 v=115
89472 On ch=8 n=74 v=115
89504 On ch=8 n=77 v=0
89504 On ch=8 n=74 v=0
89504 On ch=8 n=72 v=115
89504 On ch=8 n=69 v=115
89536 On ch=8 n=72 v=0
89536 On ch=8 n=69 v=0
89536 On ch=8 n=77 v=115
89536 On ch=8 n=74 v=115
89568 On ch=8 n=77 v=0
89568 On ch=8 n=74 v=0
89568 On ch=8 n=72 v=115
89568 On ch=8 n=69 v=115
89600 On ch=8 n=72 v=0
89600 On ch=8 n=69 v=0
89600 On ch=8 n=77 v=115
89600 On ch=8 n=74 v=115
89632 On ch=8 n=77 v=0
89632 On ch=8 n=74 v=0
89632 On ch=8 n=72 v=115
89632 On ch=8 n=69 v=115
89664 On ch=8 n=72 v=0
89664 On ch=8 n=69 v=0
89664 On ch=8 n=77 v=115
89664 On ch=8 n=74 v=115
89696 On ch=8 n=77 v=0
89696 On ch=8 n=74 v=0
89696 On ch=8 n=72 v=115
89696 On ch=8 n=69 v=115
89728 On ch=8 n=72 v=0
89728 On ch=8 n=69 v=0
89728 On ch=8 n=77 v=115
89728 On ch=8 n=74 v=115
89760 On ch=8 n=77 v=0
89760 On ch=8 n=74 v=0
89760 On ch=8 n=72 v=115
89760 On ch=8 n=69 v=115
89792 On ch=8 n=72 v=0
89792 On ch=8 n=69 v=0
89792 On ch=8 n=77 v=115
89792 On ch=8 n=74 v=115
89824 On ch=8 n=77 v=0
89824 On ch=8 n=74 v=0
89824 On ch=8 n=72 v=115
89824 On ch=8 n=69 v=115
89856 On ch=8 n=72 v=0
89856 On ch=8 n=69 v=0
89856 On ch=8 n=76 v=115
89856 On ch=8 n=71 v=115
89888 On ch=8 n=76 v=0
89888 On ch=8 n=71 v=0
89888 On ch=8 n=72 v=115
89888 On ch=8 n=67 v=115
89920 On ch=8 n=72 v=0
89920 On ch=8 n=67 v=0
89920 On ch=8 n=76 v=115
89920 On ch=8 n=71 v=115
89952 On ch=8 n=76 v=0
89952 On ch=8 n=71 v=0
89952 On ch=8 n=72 v=115
89952 On ch=8 n=67 v=115
89984 On ch=8 n=72 v=0
89984 On ch=8 n=67 v=0
89984 On ch=8 n=76 v=115
89984 On ch=8 n=71 v=115
90016 On ch=8 n=76 v=0
90016 On ch=8 n=71 v=0
90016 On ch=8 n=72 v=115
90016 On ch=8 n=67 v=115
90048 On ch=8 n=72 v=0
90048 On ch=8 n=67 v=0
90048 On ch=8 n=77 v=115
90048 On ch=8 n=74 v=115
90080 On ch=8 n=77 v=0
90080 On ch=8 n=74 v=0
90080 On ch=8 n=72 v=115
90080 On ch=8 n=69 v=115
90112 On ch=8 n=72 v=0
90112 On ch=8 n=69 v=0
90112 On ch=8 n=77 v=115
90112 On ch=8 n=72 v=115
90144 On ch=8 n=77 v=0
90144 On ch=8 n=72 v=0
90144 On ch=8 n=74 v=115
90144 On ch=8 n=69 v=115
90176 On ch=8 n=74 v=0
90176 On ch=8 n=69 v=0
90176 On ch=8 n=77 v=115
90176 On ch=8 n=72 v=115
90208 On ch=8 n=77 v=0
90208 On ch=8 n=72 v=0
90208 On ch=8 n=74 v=115
90208 On ch=8 n=69 v=115
90240 On ch=8 n=74 v=0
90240 On ch=8 n=69 v=0
90240 On ch=8 n=76 v=115
90240 On ch=8 n=71 v=115
90272 On ch=8 n=76 v=0
90272 On ch=8 n=71 v=0
90272 On ch=8 n=72 v=115
90272 On ch=8 n=67 v=115
90304 On ch=8 n=72 v=0
90304 On ch=8 n=67 v=0
90304 On ch=8 n=76 v=115
90304 On ch=8 n=71 v=115
90336 On ch=8 n=76 v=0
90336 On ch=8 n=71 v=0
90336 On ch=8 n=72 v=115
90336 On ch=8 n=67 v=115
90368 On ch=8 n=72 v=0
90368 On ch=8 n=67 v=0
90368 On ch=8 n=76 v=115
90368 On ch=8 n=71 v=115
90400 On ch=8 n=76 v=0
90400 On ch=8 n=71 v=0
90400 On ch=8 n=72 v=115
90400 On ch=8 n=67 v=115
90432 On ch=8 n=72 v=0
90432 On ch=8 n=67 v=0
90432 On ch=8 n=74 v=115
90432 On ch=8 n=71 v=115
90464 On ch=8 n=74 v=0
90464 On ch=8 n=71 v=0
90464 On ch=8 n=72 v=115
90464 On ch=8 n=65 v=115
90496 On ch=8 n=72 v=0
90496 On ch=8 n=65 v=0
90496 On ch=8 n=74 v=115
90496 On ch=8 n=71 v=115
90528 On ch=8 n=74 v=0
90528 On ch=8 n=71 v=0
90528 On ch=8 n=72 v=115
90528 On ch=8 n=65 v=115
90560 On ch=8 n=72 v=0
90560 On ch=8 n=65 v=0
90560 On ch=8 n=74 v=115
90560 On ch=8 n=71 v=115
90592 On ch=8 n=74 v=0
90592 On ch=8 n=71 v=0
90592 On ch=8 n=72 v=115
90592 On ch=8 n=65 v=115
90624 On ch=8 n=72 v=0
90624 On ch=8 n=65 v=0
90624 On ch=8 n=72 v=115
90624 On ch=8 n=69 v=115
90656 On ch=8 n=72 v=0
90656 On ch=8 n=69 v=0
90656 On ch=8 n=69 v=115
90656 On ch=8 n=65 v=115
90688 On ch=8 n=69 v=0
90688 On ch=8 n=65 v=0
90688 On ch=8 n=72 v=115
90688 On ch=8 n=69 v=115
90720 On ch=8 n=72 v=0
90720 On ch=8 n=69 v=0
90720 On ch=8 n=69 v=115
90720 On ch=8 n=65 v=115
90752 On ch=8 n=69 v=0
90752 On ch=8 n=65 v=0
90752 On ch=8 n=72 v=115
90752 On ch=8 n=69 v=115
90784 On ch=8 n=72 v=0
90784 On ch=8 n=69 v=0
90784 On ch=8 n=69 v=115
90784 On ch=8 n=65 v=115
90816 On ch=8 n=69 v=0
90816 On ch=8 n=65 v=0
90816 On ch=8 n=72 v=115
90816 On ch=8 n=69 v=115
90848 On ch=8 n=72 v=0
90848 On ch=8 n=69 v=0
90848 On ch=8 n=69 v=115
90848 On ch=8 n=65 v=115
90880 On ch=8 n=69 v=0
90880 On ch=8 n=65 v=0
90880 On ch=8 n=72 v=115
90880 On ch=8 n=69 v=115
90912 On ch=8 n=72 v=0
90912 On ch=8 n=69 v=0
90912 On ch=8 n=69 v=115
90912 On ch=8 n=65 v=115
90944 On ch=8 n=69 v=0
90944 On ch=8 n=65 v=0
90944 On ch=8 n=72 v=115
90944 On ch=8 n=69 v=115
90976 On ch=8 n=72 v=0
90976 On ch=8 n=69 v=0
90976 On ch=8 n=69 v=115
90976 On ch=8 n=65 v=115
91008 On ch=8 n=69 v=0
91008 On ch=8 n=65 v=0
91008 On ch=8 n=72 v=115
91008 On ch=8 n=69 v=115
91040 On ch=8 n=72 v=0
91040 On ch=8 n=69 v=0
91040 On ch=8 n=69 v=115
91040 On ch=8 n=65 v=115
91072 On ch=8 n=69 v=0
91072 On ch=8 n=65 v=0
91072 On ch=8 n=72 v=115
91072 On ch=8 n=69 v=115
91104 On ch=8 n=72 v=0
91104 On ch=8 n=69 v=0
91104 On ch=8 n=69 v=115
91104 On ch=8 n=65 v=115
91136 On ch=8 n=69 v=0
91136 On ch=8 n=65 v=0
91136 On ch=8 n=72 v=115
91136 On ch=8 n=69 v=115
91168 On ch=8 n=72 v=0
91168 On ch=8 n=69 v=0
91168 On ch=8 n=69 v=115
91168 On ch=8 n=65 v=115
91200 On ch=8 n=69 v=0
91200 On ch=8 n=65 v=0
91200 On ch=8 n=72 v=115
91200 On ch=8 n=69 v=115
91232 On ch=8 n=72 v=0
91232 On ch=8 n=69 v=0
91232 On ch=8 n=69 v=115
91232 On ch=8 n=65 v=115
91248 Pb ch=8 v=8064
91256 Pb ch=8 v=7936
91260 Pb ch=8 v=7808
91264 Pb ch=8 v=7680
91268 Pb ch=8 v=7424
91272 Pb ch=8 v=7040
91276 Pb ch=8 v=6400
91280 Pb ch=8 v=5632
91284 Pb ch=8 v=4480
91288 Pb ch=8 v=2688
91292 Pb ch=8 v=0
91296 On ch=8 n=69 v=0
91296 On ch=8 n=65 v=0
91296 On ch=8 n=69 v=115
91296 On ch=8 n=62 v=105
91296 On ch=8 n=57 v=95
91296 On ch=8 n=50 v=85
91328 Pb ch=8 v=128
91344 Pb ch=8 v=256
91352 Pb ch=8 v=384
91356 Pb ch=8 v=512
91364 Pb ch=8 v=640
91368 Pb ch=8 v=768
91372 Pb ch=8 v=1024
91376 Pb ch=8 v=1152
91380 Pb ch=8 v=1536
91384 Pb ch=8 v=1792
91388 Pb ch=8 v=2176
91396 Pb ch=8 v=2560
91400 Pb ch=8 v=3200
91404 Pb ch=8 v=3712
91408 Pb ch=8 v=4608
91412 Pb ch=8 v=5504
91416 Pb ch=8 v=6656
91420 Pb ch=8 v=8192
91488 On ch=8 n=69 v=0
91488 On ch=8 n=62 v=0
91488 On ch=8 n=57 v=0
91488 On ch=8 n=50 v=0
91488 On ch=8 n=67 v=115
91488 On ch=8 n=60 v=105
91488 On ch=8 n=55 v=95
91488 On ch=8 n=48 v=85
91536 On ch=8 n=67 v=0
91536 On ch=8 n=60 v=0
91536 On ch=8 n=55 v=0
91536 On ch=8 n=48 v=0
91584 On ch=8 n=65 v=115
91584 On ch=8 n=57 v=105
91584 On ch=8 n=53 v=95
91584 On ch=8 n=45 v=85
91616 Pb ch=8 v=9692
91648 Pb ch=8 v=8192
91680 On ch=8 n=65 v=0
91680 On ch=8 n=57 v=0
91680 On ch=8 n=53 v=0
91680 On ch=8 n=45 v=0
91680 On ch=8 n=57 v=105
91680 On ch=8 n=50 v=95
91680 On ch=8 n=45 v=85
91704 Par ch=8 c=11 v=99
91716 Par ch=8 c=11 v=98
91720 Par ch=8 c=11 v=96
91724 Par ch=8 c=11 v=94
91728 Par ch=8 c=11 v=92
91732 Par ch=8 c=11 v=90
91736 Par ch=8 c=11 v=86
91740 Par ch=8 c=11 v=82
91744 Par ch=8 c=11 v=78
91748 Par ch=8 c=11 v=74
91752 Par ch=8 c=11 v=70
91756 Par ch=8 c=11 v=60
91760 Par ch=8 c=11 v=50
91764 Par ch=8 c=11 v=40
91768 Par ch=8 c=11 v=30
91772 Par ch=8 c=11 v=100
91776 On ch=8 n=57 v=0
91776 On ch=8 n=50 v=0
91776 On ch=8 n=45 v=0
91776 On ch=8 n=65 v=115
91776 On ch=8 n=60 v=105
91776 On ch=8 n=48 v=95
91776 On ch=8 n=41 v=85
91824 On ch=8 n=65 v=0
91824 On ch=8 n=60 v=0
91824 On ch=8 n=48 v=0
91824 On ch=8 n=41 v=0
91872 On ch=8 n=65 v=115
91872 On ch=8 n=60 v=105
91872 On ch=8 n=48 v=95
91872 On ch=8 n=41 v=85
92052 On ch=8 n=65 v=0
92052 On ch=8 n=60 v=0
92052 On ch=8 n=48 v=0
92052 On ch=8 n=41 v=0
92064 On ch=8 n=65 v=115
92064 On ch=8 n=60 v=105
92064 On ch=8 n=48 v=95
92064 On ch=8 n=41 v=85
92128 On ch=8 n=65 v=0
92128 On ch=8 n=60 v=0
92128 On ch=8 n=48 v=0
92128 On ch=8 n=41 v=0
92160 On ch=8 n=65 v=115
92160 On ch=8 n=60 v=105
92160 On ch=8 n=48 v=95
92160 On ch=8 n=41 v=85
92208 On ch=8 n=65 v=0
92208 On ch=8 n=60 v=0
92208 On ch=8 n=48 v=0
92208 On ch=8 n=41 v=0
92256 On ch=8 n=65 v=115
92256 On ch=8 n=60 v=105
92256 On ch=8 n=48 v=95
92256 On ch=8 n=41 v=85
92304 On ch=8 n=65 v=0
92304 On ch=8 n=60 v=0
92304 On ch=8 n=48 v=0
92304 On ch=8 n=41 v=0
92352 On ch=8 n=65 v=115
92352 On ch=8 n=60 v=105
92352 On ch=8 n=48 v=95
92352 On ch=8 n=41 v=85
92448 Pb ch=8 v=8064
92472 Pb ch=8 v=7936
92484 Pb ch=8 v=7808
92492 Pb ch=8 v=7680
92500 Pb ch=8 v=7552
92504 Pb ch=8 v=7424
92508 Pb ch=8 v=7296
92512 Pb ch=8 v=7168
92516 Pb ch=8 v=7040
92520 Pb ch=8 v=6912
92524 Pb ch=8 v=6784
92528 Pb ch=8 v=6528
92532 Pb ch=8 v=6400
92536 Pb ch=8 v=6016
92540 Pb ch=8 v=8192
92544 On ch=8 n=65 v=0
92544 On ch=8 n=60 v=0
92544 On ch=8 n=48 v=0
92544 On ch=8 n=41 v=0
92544 On ch=8 n=62 v=110
92544 On ch=8 n=57 v=100
92544 On ch=8 n=45 v=90
92544 On ch=8 n=38 v=80
92592 On ch=8 n=62 v=0
92592 On ch=8 n=57 v=0
92592 On ch=8 n=45 v=0
92592 On ch=8 n=38 v=0
92640 On ch=8 n=62 v=110
92640 On ch=8 n=57 v=100
92640 On ch=8 n=45 v=90
92640 On ch=8 n=38 v=80
92728 On ch=8 n=62 v=0
92728 On ch=8 n=57 v=0
92728 On ch=8 n=45 v=0
92728 On ch=8 n=38 v=0
92736 On ch=8 n=60 v=105
92736 On ch=8 n=48 v=95
92736 On ch=8 n=41 v=85
92784 On ch=8 n=65 v=115
92808 On ch=8 n=60 v=0
92808 On ch=8 n=48 v=0
92808 On ch=8 n=41 v=0
92832 On ch=8 n=65 v=0
92832 On ch=8 n=60 v=105
92832 On ch=8 n=48 v=95
92832 On ch=8 n=41 v=85
92880 On ch=8 n=65 v=115
92904 On ch=8 n=60 v=0
92904 On ch=8 n=48 v=0
92904 On ch=8 n=41 v=0
92924 Par ch=8 c=1 v=30
92928 On ch=8 n=65 v=0
92928 On ch=8 n=71 v=115
92960 Pb ch=8 v=8902
92988 Pb ch=8 v=8192
92992 On ch=8 n=71 v=0
92992 On ch=8 n=74 v=115
93024 Pb ch=8 v=6872
93052 Pb ch=8 v=8192
93056 On ch=8 n=74 v=0
93056 On ch=8 n=71 v=115
93120 On ch=8 n=71 v=0
93120 On ch=8 n=72 v=115
93152 Pb ch=8 v=7542
93184 Pb ch=8 v=8192
93216 Pb ch=8 v=7542
93248 Pb ch=8 v=8192
93280 Pb ch=8 v=9467
93308 Pb ch=8 v=8192
93312 On ch=8 n=72 v=0
93312 On ch=8 n=76 v=117
93344 On ch=8 n=76 v=0
93344 On ch=8 n=77 v=119
93376 On ch=8 n=77 v=0
93376 On ch=8 n=79 v=121
93408 Pb ch=8 v=6942
93436 Pb ch=8 v=8192
93440 On ch=8 n=79 v=0
93440 On ch=8 n=76 v=123
93504 On ch=8 n=76 v=0
93504 On ch=8 n=74 v=125
93552 Pb ch=8 v=9442
93600 Pb ch=8 v=8192
93616 Pb ch=8 v=9442
93628 Pb ch=8 v=8192
93632 On ch=8 n=74 v=0
93632 On ch=8 n=74 v=125
93664 On ch=8 n=74 v=0
93664 On ch=8 n=72 v=125
93696 On ch=8 n=72 v=0
93696 On ch=8 n=71 v=125
93712 Pb ch=8 v=9192
93716 Pb ch=8 v=10792
93724 Par ch=8 c=11 v=90
93728 Pb ch=8 v=12392
93748 Pb ch=8 v=13392
93752 Pb ch=8 v=13842
93772 Pb ch=8 v=14192
93776 On ch=8 n=71 v=0
93776 Par ch=8 c=11 v=100
93780 Pb ch=8 v=14692
93784 Pb ch=8 v=8192
93788 Par ch=8 c=1 v=20
93792 On ch=8 n=81 v=127
93976 On ch=8 n=81 v=0
93980 Par ch=8 c=1 v=80
93984 On ch=8 n=81 v=127
94180 Pb ch=8 v=8064
94188 Pb ch=8 v=7936
94196 Pb ch=8 v=7808
94200 Pb ch=8 v=7680
94204 Pb ch=8 v=7552
94208 Pb ch=8 v=7424
94212 Pb ch=8 v=7296
94216 Pb ch=8 v=7168
94220 Pb ch=8 v=6912
94224 Pb ch=8 v=6656
94228 Pb ch=8 v=6400
94232 Pb ch=8 v=5888
94236 Pb ch=8 v=5504
94240 Pb ch=8 v=4992
94244 Pb ch=8 v=4352
94248 Pb ch=8 v=3456
94252 Pb ch=8 v=2560
94256 On ch=8 n=81 v=0
94256 Pb ch=8 v=1536
94260 Pb ch=8 v=0
94264 Pb ch=8 v=8192
94268 Par ch=8 c=1 v=0
94272 On ch=8 n=45 v=120
94312 On ch=8 n=45 v=0
94368 On ch=8 n=45 v=120
94408 On ch=8 n=45 v=0
94460 Par ch=8 c=7 v=100
94464 On ch=8 n=50 v=80
94504 On ch=8 n=50 v=0
94528 Par ch=8 c=7 v=99
94560 On ch=8 n=50 v=70
94588 Par ch=8 c=7 v=98
94600 On ch=8 n=50 v=0
94652 Par ch=8 c=7 v=97
94656 On ch=8 n=57 v=115
94656 On ch=8 n=50 v=70
94704 On ch=8 n=57 v=0
94704 On ch=8 n=50 v=0
94712 Par ch=8 c=7 v=96
94752 On ch=8 n=50 v=70
94772 Par ch=8 c=7 v=95
94800 On ch=8 n=50 v=0
94836 Par ch=8 c=7 v=94
94848 On ch=8 n=62 v=110
94896 On ch=8 n=62 v=0
94896 Par ch=8 c=7 v=93
94944 On ch=8 n=50 v=70
94956 Par ch=8 c=7 v=92
95020 Par ch=8 c=7 v=91
95040 On ch=8 n=50 v=0
95040 On ch=8 n=50 v=70
95080 Par ch=8 c=7 v=90
95136 On ch=8 n=50 v=0
95136 On ch=8 n=62 v=115
95136 On ch=8 n=50 v=70
95140 Par ch=8 c=7 v=89
95200 On ch=8 n=62 v=0
95204 Par ch=8 c=7 v=88
95232 On ch=8 n=50 v=0
95232 On ch=8 n=50 v=75
95264 On ch=8 n=50 v=0
95264 Par ch=8 c=7 v=87
95324 Par ch=8 c=7 v=86
95328 On ch=8 n=57 v=100
95328 On ch=8 n=50 v=75
95360 On ch=8 n=50 v=0
95384 On ch=8 n=57 v=0
95388 Par ch=8 c=7 v=85
95424 On ch=8 n=50 v=75
95448 Par ch=8 c=7 v=84
95508 Par ch=8 c=7 v=83
95520 On ch=8 n=50 v=0
95520 On ch=8 n=62 v=105
95572 Par ch=8 c=7 v=82
95608 On ch=8 n=62 v=0
95616 On ch=8 n=62 v=105
95616 On ch=8 n=50 v=75
95632 Par ch=8 c=7 v=81
95648 On ch=8 n=50 v=0
95692 Par ch=8 c=7 v=80
95712 On ch=8 n=50 v=75
95744 On ch=8 n=50 v=0
95756 Par ch=8 c=7 v=79
95808 On ch=8 n=50 v=75
95816 Par ch=8 c=7 v=78
95880 Par ch=8 c=7 v=77
95896 On ch=8 n=62 v=0
95904 On ch=8 n=50 v=0
95904 On ch=8 n=67 v=105
95940 Par ch=8 c=7 v=76
96000 On ch=8 n=67 v=0
96000 On ch=8 n=55 v=75
96004 Par ch=8 c=7 v=75
96032 On ch=8 n=55 v=0
96064 Par ch=8 c=7 v=74
96096 On ch=8 n=67 v=100
96096 On ch=8 n=55 v=75
96116 On ch=8 n=67 v=0
96124 Par ch=8 c=7 v=73
96128 On ch=8 n=55 v=0
96184 Par ch=8 c=7 v=72
96192 On ch=8 n=55 v=95
96192 On ch=8 n=67 v=75
96212 On ch=8 n=55 v=0
96224 On ch=8 n=67 v=0
96248 Par ch=8 c=7 v=71
96288 On ch=8 n=67 v=100
96288 On ch=8 n=55 v=75
96308 On ch=8 n=67 v=0
96308 Par ch=8 c=7 v=70
96320 On ch=8 n=55 v=0
96368 Par ch=8 c=7 v=69
96384 On ch=8 n=65 v=110
96432 Par ch=8 c=7 v=68
96472 On ch=8 n=65 v=0
96480 On ch=8 n=67 v=55
96480 On ch=8 n=55 v=75
96492 Par ch=8 c=7 v=67
96552 Par ch=8 c=7 v=66
96576 On ch=8 n=67 v=0
96608 On ch=8 n=55 v=0
96616 Par ch=8 c=7 v=65
96672 On ch=8 n=67 v=105
96676 Par ch=8 c=7 v=64
96736 Par ch=8 c=7 v=63
96768 On ch=8 n=67 v=0
96768 On ch=8 n=55 v=75
96800 Par ch=8 c=7 v=62
96860 Par ch=8 c=7 v=61
96864 On ch=8 n=62 v=105
96896 On ch=8 n=55 v=0
96920 Par ch=8 c=7 v=60
96960 On ch=8 n=62 v=0
96960 On ch=8 n=65 v=105
96960 On ch=8 n=55 v=75
96984 Par ch=8 c=7 v=59
97044 Par ch=8 c=7 v=58
97048 On ch=8 n=65 v=0
97052 Par ch=8 c=1 v=80
97056 On ch=8 n=65 v=105
97088 On ch=8 n=55 v=0
97108 Par ch=8 c=7 v=57
97152 On ch=8 n=55 v=75
97168 Par ch=8 c=7 v=56
97228 Par ch=8 c=7 v=55
97292 Par ch=8 c=7 v=54
97352 Par ch=8 c=7 v=53
97408 On ch=8 n=55 v=0
97412 Par ch=8 c=7 v=52
97440 On ch=8 n=65 v=0
97440 On ch=8 n=50 v=75
97476 Par ch=8 c=7 v=51
97536 Par ch=8 c=1 v=0
97540 On ch=8 n=50 v=0
97540 On ch=8 n=50 v=75
97544 Par ch=8 c=7 v=50
97588 On ch=8 n=50 v=0
97596 Par ch=8 c=7 v=49
97632 On ch=8 n=50 v=75
97660 Par ch=8 c=7 v=48
97680 On ch=8 n=50 v=0
97720 Par ch=8 c=7 v=47
97728 On ch=8 n=57 v=105
97728 On ch=8 n=50 v=75
97776 On ch=8 n=57 v=0
97776 On ch=8 n=50 v=0
97780 Par ch=8 c=7 v=46
97824 On ch=8 n=50 v=75
97844 Par ch=8 c=7 v=45
97872 On ch=8 n=50 v=0
97904 Par ch=8 c=7 v=44
97920 On ch=8 n=60 v=90
97964 Par ch=8 c=7 v=43
98000 On ch=8 n=60 v=0
98016 On ch=8 n=50 v=75
98028 Par ch=8 c=7 v=42
98088 Par ch=8 c=7 v=41
98112 On ch=8 n=50 v=0
98112 On ch=8 n=50 v=60
98148 Par ch=8 c=7 v=40
98208 On ch=8 n=50 v=0
98208 On ch=8 n=62 v=105
98208 On ch=8 n=50 v=75
98212 Par ch=8 c=7 v=39
98272 Par ch=8 c=7 v=38
98288 On ch=8 n=62 v=0
98304 On ch=8 n=50 v=0
98304 On ch=8 n=50 v=60
98336 Par ch=8 c=7 v=37
98396 Par ch=8 c=7 v=36
98400 On ch=8 n=50 v=0
98400 On ch=8 n=57 v=100
98400 On ch=8 n=50 v=75
98456 Par ch=8 c=7 v=35
98496 On ch=8 n=57 v=0
98496 On ch=8 n=50 v=0
98496 On ch=8 n=50 v=60
98520 Par ch=8 c=7 v=34
98580 Par ch=8 c=7 v=33
98592 On ch=8 n=50 v=0
98592 On ch=8 n=60 v=100
98592 On ch=8 n=50 v=75
98640 Par ch=8 c=7 v=32
98684 Par ch=8 c=1 v=80
98688 On ch=8 n=60 v=0
98688 On ch=8 n=50 v=0
98688 On ch=8 n=62 v=105
98688 On ch=8 n=50 v=60
98704 Par ch=8 c=7 v=31
98764 Par ch=8 c=7 v=30
98784 On ch=8 n=50 v=0
98784 On ch=8 n=50 v=75
98824 Par ch=8 c=7 v=29
98880 On ch=8 n=50 v=0
98880 On ch=8 n=50 v=60
98888 Par ch=8 c=7 v=28
98948 Par ch=8 c=7 v=27
98968 On ch=8 n=67 v=105
98972 Par ch=8 c=1 v=0
98976 On ch=8 n=62 v=0
98976 On ch=8 n=50 v=0
98976 On ch=8 n=55 v=75
99008 Par ch=8 c=7 v=26
99064 On ch=8 n=67 v=0
99072 On ch=8 n=55 v=0
99072 On ch=8 n=55 v=75
99076 Par ch=8 c=7 v=25
99104 On ch=8 n=55 v=0
99132 Par ch=8 c=7 v=24
99168 On ch=8 n=67 v=100
99168 On ch=8 n=55 v=75
99188 On ch=8 n=67 v=0
99192 Par ch=8 c=7 v=23
99200 On ch=8 n=55 v=0
99256 Par ch=8 c=7 v=22
99264 On ch=8 n=55 v=95
99264 On ch=8 n=67 v=75
99284 On ch=8 n=55 v=0
99296 On ch=8 n=67 v=0
99316 Par ch=8 c=7 v=21
99360 On ch=8 n=67 v=100
99360 On ch=8 n=55 v=75
99376 Par ch=8 c=7 v=20
99380 On ch=8 n=67 v=0
99392 On ch=8 n=55 v=0
99440 Par ch=8 c=7 v=19
99456 On ch=8 n=65 v=105
99500 Par ch=8 c=7 v=18
99544 On ch=8 n=65 v=0
99552 On ch=8 n=67 v=100
99552 On ch=8 n=55 v=75
99564 Par ch=8 c=7 v=17
99616 On ch=8 n=67 v=0
99624 Par ch=8 c=7 v=16
99648 On ch=8 n=55 v=0
99684 Par ch=8 c=7 v=15
99744 On ch=8 n=67 v=105
99744 On ch=8 n=55 v=75
99748 Par ch=8 c=7 v=14
99776 On ch=8 n=67 v=0
99808 Par ch=8 c=7 v=13
99840 On ch=8 n=55 v=0
99840 On ch=8 n=55 v=75
99868 Par ch=8 c=7 v=12
99920 On ch=8 n=55 v=0
99932 Par ch=8 c=7 v=11
99936 On ch=8 n=62 v=105
99992 Par ch=8 c=7 v=10
100032 On ch=8 n=55 v=75
100052 Par ch=8 c=7 v=9
100064 On ch=8 n=62 v=0
100112 On ch=8 n=55 v=0
100116 Par ch=8 c=7 v=8
100128 On ch=8 n=65 v=90
100176 Par ch=8 c=7 v=7
100216 On ch=8 n=65 v=0
100220 Par ch=8 c=1 v=80
100224 On ch=8 n=65 v=105
100224 On ch=8 n=55 v=55
100236 Par ch=8 c=7 v=6
100300 Par ch=8 c=7 v=5
100304 On ch=8 n=55 v=0
100360 Par ch=8 c=7 v=4
100416 On ch=8 n=50 v=75
100420 Par ch=8 c=7 v=3
100484 Par ch=8 c=7 v=2
100512 On ch=8 n=50 v=0
100512 On ch=8 n=50 v=75
100544 Par ch=8 c=7 v=1
100604 Par ch=8 c=7 v=0
100608 On ch=8 n=65 v=0
100608 On ch=8 n=50 v=0
100608 Meta TrkEnd
TrkEnd
