MFile 1 10 480
MTrk
0 Meta SeqName "Excerpt from 'Six Wives Of Henry VIII'"
0 TimeSig 4/4 24 8
0 Tempo 526315
51231 Tempo 606060
53760 Tempo 335195
73560 Tempo 500000
84360 Tempo 1875000
84480 Tempo 594059
91440 Tempo 275229
104880 Tempo 500000
208320 Tempo 1176470
208800 Tempo 705882
216480 Tempo 508474
231840 Tempo 461538
270240 Tempo 500000
351360 Meta TrkEnd
TrkEnd
MTrk
0 Meta TrkName "Piano 1"
0 Meta 0x20 00
0 Meta InstrName "Piano 1"
0 KeySig 0 major
10 Par ch=1 c=0 v=0
15 Par ch=1 c=32 v=0
20 PrCh ch=1 p=0
25 Par ch=1 c=7 v=110
30 Par ch=1 c=10 v=64
35 Par ch=1 c=91 v=64
40 Par ch=1 c=93 v=0
45 Par ch=1 c=101 v=0
45 Par ch=1 c=100 v=0
45 Par ch=1 c=6 v=2
50 Par ch=1 c=99 v=1
50 Par ch=1 c=98 v=8
50 Par ch=1 c=6 v=64
55 Par ch=1 c=99 v=1
55 Par ch=1 c=98 v=9
55 Par ch=1 c=6 v=64
60 Par ch=1 c=99 v=1
60 Par ch=1 c=98 v=10
60 Par ch=1 c=6 v=64
65 Par ch=1 c=99 v=1
65 Par ch=1 c=98 v=32
65 Par ch=1 c=6 v=64
70 Par ch=1 c=99 v=1
70 Par ch=1 c=98 v=33
70 Par ch=1 c=6 v=64
75 Par ch=1 c=99 v=1
75 Par ch=1 c=98 v=99
75 Par ch=1 c=6 v=64
80 Par ch=1 c=99 v=1
80 Par ch=1 c=98 v=100
80 Par ch=1 c=6 v=64
85 Par ch=1 c=99 v=1
85 Par ch=1 c=98 v=102
85 Par ch=1 c=6 v=64
53760 On ch=1 n=62 v=94
53760 On ch=1 n=50 v=99
53760 On ch=1 n=38 v=99
53880 On ch=1 n=67 v=94
53996 Off ch=1 n=67 v=94
54000 On ch=1 n=69 v=94
54116 Off ch=1 n=69 v=94
54120 On ch=1 n=74 v=94
54236 Off ch=1 n=74 v=94
54240 On ch=1 n=77 v=94
54356 Off ch=1 n=77 v=94
54360 On ch=1 n=81 v=94
54476 Off ch=1 n=81 v=94
54480 On ch=1 n=86 v=94
54596 Off ch=1 n=86 v=94
54600 On ch=1 n=81 v=94
54716 Off ch=1 n=81 v=94
54720 On ch=1 n=79 v=94
54836 Off ch=1 n=79 v=94
54840 On ch=1 n=74 v=94
54956 Off ch=1 n=74 v=94
54960 On ch=1 n=69 v=94
55076 Off ch=1 n=69 v=94
55080 On ch=1 n=67 v=94
55196 Off ch=1 n=67 v=94
55200 On ch=1 n=62 v=94
55316 Off ch=1 n=62 v=94
55320 On ch=1 n=67 v=94
55436 Off ch=1 n=67 v=94
55440 On ch=1 n=69 v=94
55556 Off ch=1 n=69 v=94
55560 On ch=1 n=74 v=94
55676 Off ch=1 n=74 v=94
55680 On ch=1 n=69 v=94
55796 Off ch=1 n=69 v=94
55800 On ch=1 n=67 v=94
55916 Off ch=1 n=67 v=94
55920 On ch=1 n=62 v=94
56036 Off ch=1 n=62 v=94
56040 On ch=1 n=67 v=94
56156 Off ch=1 n=67 v=94
56160 On ch=1 n=69 v=94
56276 Off ch=1 n=69 v=94
56276 Off ch=1 n=50 v=99
56276 Off ch=1 n=38 v=99
56280 On ch=1 n=74 v=94
56280 On ch=1 n=45 v=99
56396 Off ch=1 n=74 v=94
56400 On ch=1 n=69 v=94
56516 Off ch=1 n=69 v=94
56520 On ch=1 n=67 v=94
56636 Off ch=1 n=62 v=94
56636 Off ch=1 n=45 v=99
56636 Off ch=1 n=67 v=94
56640 On ch=1 n=65 v=94
56640 On ch=1 n=50 v=94
56640 On ch=1 n=38 v=94
56760 On ch=1 n=70 v=94
56876 Off ch=1 n=70 v=94
56880 On ch=1 n=72 v=94
56996 Off ch=1 n=72 v=94
57000 On ch=1 n=77 v=94
57116 Off ch=1 n=77 v=94
57120 On ch=1 n=82 v=94
57236 Off ch=1 n=82 v=94
57240 On ch=1 n=84 v=94
57356 Off ch=1 n=84 v=94
57360 On ch=1 n=86 v=94
57476 Off ch=1 n=86 v=94
57480 On ch=1 n=84 v=94
57596 Off ch=1 n=84 v=94
57600 On ch=1 n=82 v=94
57716 Off ch=1 n=82 v=94
57716 Off ch=1 n=50 v=94
57716 Off ch=1 n=38 v=94
57720 On ch=1 n=77 v=94
57720 On ch=1 n=50 v=99
57720 On ch=1 n=38 v=99
57836 Off ch=1 n=77 v=94
57840 On ch=1 n=72 v=94
57956 Off ch=1 n=72 v=94
57960 On ch=1 n=69 v=94
58076 Off ch=1 n=69 v=94
58080 On ch=1 n=65 v=94
58196 Off ch=1 n=65 v=94
58200 On ch=1 n=70 v=94
58316 Off ch=1 n=70 v=94
58320 On ch=1 n=72 v=94
58436 Off ch=1 n=72 v=94
58440 On ch=1 n=77 v=94
58556 Off ch=1 n=77 v=94
58560 On ch=1 n=72 v=94
58676 Off ch=1 n=72 v=94
58680 On ch=1 n=70 v=94
58796 Off ch=1 n=70 v=94
58800 On ch=1 n=65 v=94
58916 Off ch=1 n=65 v=94
58920 On ch=1 n=70 v=94
59036 Off ch=1 n=70 v=94
59040 On ch=1 n=72 v=94
59156 Off ch=1 n=72 v=94
59160 On ch=1 n=77 v=94
59160 On ch=1 n=45 v=99
59276 Off ch=1 n=77 v=94
59280 On ch=1 n=72 v=94
59396 Off ch=1 n=72 v=94
59400 On ch=1 n=70 v=94
59516 Off ch=1 n=65 v=94
59516 Off ch=1 n=45 v=99
59516 Off ch=1 n=70 v=94
59520 On ch=1 n=69 v=94
59520 On ch=1 n=50 v=99
59520 On ch=1 n=38 v=99
59521 Off ch=1 n=50 v=99
59521 Off ch=1 n=38 v=99
59640 On ch=1 n=72 v=94
59756 Off ch=1 n=72 v=94
59760 On ch=1 n=74 v=94
59876 Off ch=1 n=74 v=94
59880 On ch=1 n=79 v=94
59996 Off ch=1 n=79 v=94
60000 On ch=1 n=84 v=94
60116 Off ch=1 n=84 v=94
60120 On ch=1 n=86 v=94
60236 Off ch=1 n=86 v=94
60240 On ch=1 n=91 v=94
60356 Off ch=1 n=91 v=94
60360 On ch=1 n=86 v=94
60476 Off ch=1 n=86 v=94
60480 On ch=1 n=84 v=94
60596 Off ch=1 n=84 v=94
60600 On ch=1 n=79 v=94
60716 Off ch=1 n=79 v=94
60720 On ch=1 n=74 v=94
60836 Off ch=1 n=74 v=94
60840 On ch=1 n=69 v=94
60956 Off ch=1 n=69 v=94
60960 On ch=1 n=67 v=94
61076 Off ch=1 n=67 v=94
61080 On ch=1 n=72 v=94
61196 Off ch=1 n=72 v=94
61200 On ch=1 n=74 v=94
61316 Off ch=1 n=74 v=94
61320 On ch=1 n=79 v=94
61436 Off ch=1 n=79 v=94
61440 On ch=1 n=74 v=94
61556 Off ch=1 n=74 v=94
61560 On ch=1 n=72 v=94
61676 Off ch=1 n=72 v=94
61680 On ch=1 n=67 v=94
61796 Off ch=1 n=67 v=94
61800 On ch=1 n=72 v=94
61916 Off ch=1 n=72 v=94
61920 On ch=1 n=74 v=94
62036 Off ch=1 n=74 v=94
62036 Off ch=1 n=50 v=99
62036 Off ch=1 n=38 v=99
62040 On ch=1 n=79 v=94
62040 On ch=1 n=45 v=99
62156 Off ch=1 n=79 v=94
62160 On ch=1 n=74 v=94
62276 Off ch=1 n=74 v=94
62280 On ch=1 n=72 v=94
62396 Off ch=1 n=69 v=94
62396 Off ch=1 n=45 v=99
62396 Off ch=1 n=72 v=94
62400 On ch=1 n=69 v=94
62400 On ch=1 n=50 v=99
62400 On ch=1 n=38 v=99
62520 On ch=1 n=74 v=94
62636 Off ch=1 n=74 v=94
62640 On ch=1 n=76 v=94
62756 Off ch=1 n=76 v=94
62760 On ch=1 n=81 v=94
62876 Off ch=1 n=81 v=94
62880 On ch=1 n=86 v=94
62996 Off ch=1 n=86 v=94
63000 On ch=1 n=88 v=94
63116 Off ch=1 n=88 v=94
63120 On ch=1 n=93 v=94
63236 Off ch=1 n=93 v=94
63240 On ch=1 n=88 v=94
63356 Off ch=1 n=88 v=94
63360 On ch=1 n=86 v=94
63476 Off ch=1 n=86 v=94
63480 On ch=1 n=81 v=94
63596 Off ch=1 n=81 v=94
63600 On ch=1 n=76 v=94
63716 Off ch=1 n=76 v=94
63720 On ch=1 n=74 v=94
63836 Off ch=1 n=74 v=94
63840 On ch=1 n=69 v=94
63956 Off ch=1 n=69 v=94
63960 On ch=1 n=74 v=94
64076 Off ch=1 n=74 v=94
64080 On ch=1 n=76 v=94
64196 Off ch=1 n=76 v=94
64200 On ch=1 n=81 v=94
64316 Off ch=1 n=81 v=94
64320 On ch=1 n=76 v=94
64436 Off ch=1 n=76 v=94
64440 On ch=1 n=74 v=94
64556 Off ch=1 n=74 v=94
64560 On ch=1 n=69 v=94
64676 Off ch=1 n=69 v=94
64680 On ch=1 n=74 v=94
64796 Off ch=1 n=74 v=94
64800 On ch=1 n=76 v=94
64916 Off ch=1 n=76 v=94
64920 On ch=1 n=81 v=94
64920 On ch=1 n=45 v=99
65036 Off ch=1 n=81 v=94
65040 On ch=1 n=76 v=94
65156 Off ch=1 n=76 v=94
65160 On ch=1 n=74 v=94
65276 Off ch=1 n=69 v=94
65276 Off ch=1 n=45 v=99
65276 Off ch=1 n=74 v=94
65280 On ch=1 n=72 v=94
65280 On ch=1 n=50 v=99
65280 On ch=1 n=38 v=99
65281 Off ch=1 n=50 v=99
65281 Off ch=1 n=38 v=99
65400 On ch=1 n=77 v=94
65516 Off ch=1 n=77 v=94
65520 On ch=1 n=79 v=94
65636 Off ch=1 n=79 v=94
65640 On ch=1 n=84 v=94
65756 Off ch=1 n=84 v=94
65760 On ch=1 n=89 v=94
65876 Off ch=1 n=89 v=94
65880 On ch=1 n=91 v=94
65996 Off ch=1 n=91 v=94
66000 On ch=1 n=96 v=94
66116 Off ch=1 n=96 v=94
66120 On ch=1 n=91 v=94
66236 Off ch=1 n=91 v=94
66240 On ch=1 n=89 v=94
66356 Off ch=1 n=89 v=94
66360 On ch=1 n=84 v=94
66476 Off ch=1 n=84 v=94
66480 On ch=1 n=79 v=94
66596 Off ch=1 n=79 v=94
66600 On ch=1 n=77 v=94
66716 Off ch=1 n=77 v=94
66720 On ch=1 n=72 v=94
66836 Off ch=1 n=72 v=94
66840 On ch=1 n=77 v=94
66956 Off ch=1 n=77 v=94
66960 On ch=1 n=79 v=94
67076 Off ch=1 n=79 v=94
67080 On ch=1 n=84 v=94
67196 Off ch=1 n=84 v=94
67200 On ch=1 n=79 v=94
67316 Off ch=1 n=79 v=94
67320 On ch=1 n=77 v=94
67436 Off ch=1 n=77 v=94
67440 On ch=1 n=72 v=94
67556 Off ch=1 n=72 v=94
67560 On ch=1 n=77 v=94
67676 Off ch=1 n=77 v=94
67680 On ch=1 n=79 v=94
67796 Off ch=1 n=79 v=94
67796 Off ch=1 n=50 v=99
67796 Off ch=1 n=38 v=99
67800 On ch=1 n=84 v=94
67800 On ch=1 n=45 v=99
67916 Off ch=1 n=84 v=94
67920 On ch=1 n=79 v=94
68036 Off ch=1 n=79 v=94
68040 On ch=1 n=77 v=94
68156 Off ch=1 n=72 v=94
68156 Off ch=1 n=45 v=99
68156 Off ch=1 n=77 v=94
68160 On ch=1 n=74 v=94
68160 On ch=1 n=50 v=104
68160 On ch=1 n=38 v=99
68280 On ch=1 n=79 v=94
68396 Off ch=1 n=79 v=94
68400 On ch=1 n=81 v=94
68516 Off ch=1 n=81 v=94
68520 On ch=1 n=86 v=94
68636 Off ch=1 n=86 v=94
68640 On ch=1 n=91 v=94
68756 Off ch=1 n=91 v=94
68760 On ch=1 n=93 v=94
68876 Off ch=1 n=93 v=94
68880 On ch=1 n=98 v=94
68996 Off ch=1 n=98 v=94
69000 On ch=1 n=93 v=94
69116 Off ch=1 n=93 v=94
69120 On ch=1 n=91 v=94
69236 Off ch=1 n=91 v=94
69240 On ch=1 n=86 v=94
69356 Off ch=1 n=86 v=94
69360 On ch=1 n=81 v=94
69476 Off ch=1 n=81 v=94
69480 On ch=1 n=79 v=94
69596 Off ch=1 n=79 v=94
69600 On ch=1 n=74 v=94
69720 On ch=1 n=79 v=94
69836 Off ch=1 n=79 v=94
69840 On ch=1 n=81 v=94
69956 Off ch=1 n=81 v=94
69960 On ch=1 n=86 v=94
70076 Off ch=1 n=86 v=94
70080 On ch=1 n=81 v=94
70196 Off ch=1 n=81 v=94
70200 On ch=1 n=79 v=94
70316 Off ch=1 n=79 v=94
70320 On ch=1 n=74 v=94
70436 Off ch=1 n=74 v=94
70440 On ch=1 n=69 v=94
70556 Off ch=1 n=69 v=94
70560 On ch=1 n=67 v=94
70676 Off ch=1 n=67 v=94
70680 On ch=1 n=62 v=94
70796 Off ch=1 n=62 v=94
70800 On ch=1 n=67 v=94
70916 Off ch=1 n=67 v=94
70920 On ch=1 n=69 v=94
71036 Off ch=1 n=74 v=94
71036 Off ch=1 n=50 v=104
71036 Off ch=1 n=69 v=94
71040 On ch=1 n=74 v=94
71156 Off ch=1 n=74 v=94
71160 On ch=1 n=69 v=94
71276 Off ch=1 n=69 v=94
71280 On ch=1 n=67 v=94
71396 Off ch=1 n=67 v=94
71400 On ch=1 n=62 v=94
71516 Off ch=1 n=62 v=94
71520 On ch=1 n=57 v=94
71636 Off ch=1 n=57 v=94
71640 On ch=1 n=55 v=94
71756 Off ch=1 n=55 v=94
71760 On ch=1 n=50 v=94
71876 Off ch=1 n=50 v=94
71880 On ch=1 n=55 v=94
71996 Off ch=1 n=55 v=94
72000 On ch=1 n=57 v=94
72116 Off ch=1 n=57 v=94
72120 On ch=1 n=62 v=94
72236 Off ch=1 n=62 v=94
72240 On ch=1 n=57 v=94
72356 Off ch=1 n=57 v=94
72360 On ch=1 n=55 v=94
72476 Off ch=1 n=55 v=94
72480 On ch=1 n=50 v=94
72596 Off ch=1 n=50 v=94
72600 On ch=1 n=55 v=94
72716 Off ch=1 n=55 v=94
72720 On ch=1 n=57 v=94
72836 Off ch=1 n=57 v=94
72840 On ch=1 n=62 v=94
72956 Off ch=1 n=62 v=94
72960 On ch=1 n=57 v=94
73076 Off ch=1 n=57 v=94
73080 On ch=1 n=55 v=94
73196 Off ch=1 n=55 v=94
73200 On ch=1 n=55 v=94
73316 Off ch=1 n=55 v=94
73320 On ch=1 n=50 v=94
73436 Off ch=1 n=50 v=94
73440 On ch=1 n=55 v=94
73556 Off ch=1 n=55 v=94
73556 Off ch=1 n=38 v=99
73560 On ch=1 n=50 v=94
73560 On ch=1 n=43 v=94
73800 On ch=1 n=55 v=94
73920 On ch=1 n=60 v=94
74156 Off ch=1 n=60 v=94
74160 On ch=1 n=67 v=94
74276 Off ch=1 n=74 v=94
74276 Off ch=1 n=67 v=94
74280 On ch=1 n=72 v=94
74396 Off ch=1 n=72 v=94
74400 On ch=1 n=74 v=94
74516 Off ch=1 n=74 v=94
74520 On ch=1 n=67 v=94
74636 Off ch=1 n=67 v=94
74640 On ch=1 n=72 v=94
74756 Off ch=1 n=72 v=94
74760 On ch=1 n=74 v=94
74876 Off ch=1 n=74 v=94
74880 On ch=1 n=67 v=94
74996 Off ch=1 n=67 v=94
74996 Off ch=1 n=55 v=94
74996 Off ch=1 n=50 v=94
74996 Off ch=1 n=43 v=94
75000 On ch=1 n=50 v=94
75000 On ch=1 n=43 v=94
75240 On ch=1 n=79 v=94
75360 On ch=1 n=84 v=94
75476 Off ch=1 n=84 v=94
75480 On ch=1 n=86 v=94
75596 Off ch=1 n=86 v=94
75600 On ch=1 n=91 v=94
75716 Off ch=1 n=91 v=94
75720 On ch=1 n=86 v=94
75836 Off ch=1 n=86 v=94
75840 On ch=1 n=84 v=94
75956 Off ch=1 n=84 v=94
75960 On ch=1 n=79 v=94
76076 Off ch=1 n=79 v=94
76080 On ch=1 n=74 v=94
76196 Off ch=1 n=74 v=94
76200 On ch=1 n=72 v=94
76316 Off ch=1 n=72 v=94
76320 On ch=1 n=67 v=94
76436 Off ch=1 n=67 v=94
76440 On ch=1 n=72 v=94
76440 On ch=1 n=50 v=94
76440 On ch=1 n=43 v=94
76560 On ch=1 n=74 v=94
76796 Off ch=1 n=74 v=94
76800 On ch=1 n=72 v=94
76801 Off ch=1 n=79 v=94
76801 Off ch=1 n=50 v=94
76801 Off ch=1 n=43 v=94
77036 Off ch=1 n=72 v=94
77040 On ch=1 n=79 v=94
77156 Off ch=1 n=79 v=94
77160 On ch=1 n=74 v=94
77276 Off ch=1 n=74 v=94
77280 On ch=1 n=72 v=94
77396 Off ch=1 n=72 v=94
77400 On ch=1 n=67 v=94
77516 Off ch=1 n=72 v=94
77516 Off ch=1 n=50 v=94
77516 Off ch=1 n=43 v=94
77516 Off ch=1 n=67 v=94
77520 On ch=1 n=71 v=94
77520 On ch=1 n=55 v=94
77520 On ch=1 n=43 v=94
77640 On ch=1 n=62 v=94
77756 Off ch=1 n=62 v=94
77760 On ch=1 n=67 v=94
77876 Off ch=1 n=67 v=94
77880 On ch=1 n=71 v=94
77996 Off ch=1 n=71 v=94
78000 On ch=1 n=74 v=94
78116 Off ch=1 n=71 v=94
78116 Off ch=1 n=74 v=94
78120 On ch=1 n=74 v=94
78240 On ch=1 n=77 v=94
78356 Off ch=1 n=77 v=94
78360 On ch=1 n=79 v=94
78476 Off ch=1 n=79 v=94
78480 On ch=1 n=74 v=94
78600 On ch=1 n=77 v=94
78716 Off ch=1 n=77 v=94
78720 On ch=1 n=79 v=94
78721 Off ch=1 n=74 v=94
78836 Off ch=1 n=79 v=94
78836 Off ch=1 n=74 v=94
78840 On ch=1 n=79 v=94
78960 On ch=1 n=83 v=94
79076 Off ch=1 n=83 v=94
79080 On ch=1 n=86 v=94
79196 Off ch=1 n=79 v=94
79196 Off ch=1 n=86 v=94
79200 On ch=1 n=79 v=94
79320 On ch=1 n=83 v=94
79436 Off ch=1 n=83 v=94
79440 On ch=1 n=86 v=94
79556 Off ch=1 n=79 v=94
79556 Off ch=1 n=86 v=94
79560 On ch=1 n=86 v=94
79680 On ch=1 n=89 v=94
79796 Off ch=1 n=89 v=94
79800 On ch=1 n=91 v=94
79916 Off ch=1 n=86 v=94
79916 Off ch=1 n=91 v=94
79920 On ch=1 n=86 v=94
80040 On ch=1 n=89 v=94
80156 Off ch=1 n=89 v=94
80160 On ch=1 n=91 v=94
80276 Off ch=1 n=91 v=94
80280 On ch=1 n=91 v=94
80400 On ch=1 n=95 v=94
80516 Off ch=1 n=95 v=94
80520 On ch=1 n=98 v=94
80636 Off ch=1 n=91 v=94
80636 Off ch=1 n=98 v=94
80640 On ch=1 n=91 v=94
80641 Off ch=1 n=86 v=94
80760 On ch=1 n=95 v=94
80876 Off ch=1 n=95 v=94
80880 On ch=1 n=98 v=94
80996 Off ch=1 n=91 v=94
80996 Off ch=1 n=98 v=94
81000 On ch=1 n=91 v=94
81120 On ch=1 n=95 v=94
81236 Off ch=1 n=95 v=94
81240 On ch=1 n=98 v=94
81356 Off ch=1 n=91 v=94
81356 Off ch=1 n=98 v=94
81360 On ch=1 n=103 v=94
82796 Off ch=1 n=103 v=94
82800 On ch=1 n=86 v=94
83036 Off ch=1 n=86 v=94
83040 On ch=1 n=88 v=89
83156 Off ch=1 n=88 v=89
83160 On ch=1 n=86 v=87
83276 Off ch=1 n=86 v=87
83280 On ch=1 n=85 v=84
83516 Off ch=1 n=85 v=84
83520 On ch=1 n=86 v=79
83756 Off ch=1 n=86 v=79
83760 On ch=1 n=93 v=73
83786 Off ch=1 n=93 v=73
83800 On ch=1 n=91 v=73
83826 Off ch=1 n=91 v=73
83840 On ch=1 n=93 v=72
83866 Off ch=1 n=93 v=72
83880 On ch=1 n=91 v=71
83906 Off ch=1 n=91 v=71
83920 On ch=1 n=93 v=70
83946 Off ch=1 n=93 v=70
83960 On ch=1 n=91 v=69
83986 Off ch=1 n=91 v=69
84000 On ch=1 n=93 v=68
84026 Off ch=1 n=93 v=68
84040 On ch=1 n=91 v=67
84066 Off ch=1 n=91 v=67
84080 On ch=1 n=93 v=67
84106 Off ch=1 n=93 v=67
84120 On ch=1 n=91 v=66
84146 Off ch=1 n=91 v=66
84160 On ch=1 n=93 v=65
84186 Off ch=1 n=93 v=65
84200 On ch=1 n=91 v=64
84226 Off ch=1 n=91 v=64
84240 On ch=1 n=91 v=64
84480 Off ch=1 n=43 v=94
84480 Off ch=1 n=55 v=94
84480 Off ch=1 n=91 v=64
84480 On ch=1 n=75 v=84
84480 On ch=1 n=36 v=84
84480 On ch=1 n=48 v=84
84520 On ch=1 n=79 v=84
84536 Off ch=1 n=75 v=84
84540 On ch=1 n=75 v=84
84546 Off ch=1 n=79 v=84
84600 On ch=1 n=79 v=84
84656 Off ch=1 n=79 v=84
84656 Off ch=1 n=75 v=84
84660 On ch=1 n=75 v=84
84720 On ch=1 n=79 v=84
84776 Off ch=1 n=79 v=84
84776 Off ch=1 n=75 v=84
84780 On ch=1 n=75 v=84
84840 On ch=1 n=79 v=84
84896 Off ch=1 n=75 v=84
84900 On ch=1 n=75 v=84
84956 Off ch=1 n=36 v=84
84956 Off ch=1 n=48 v=84
84956 Off ch=1 n=79 v=84
84956 Off ch=1 n=75 v=84
84960 On ch=1 n=75 v=84
84960 On ch=1 n=63 v=84
84960 On ch=1 n=60 v=84
84960 On ch=1 n=55 v=84
85000 On ch=1 n=87 v=84
85016 Off ch=1 n=75 v=84
85020 On ch=1 n=75 v=84
85076 Off ch=1 n=75 v=84
85080 Off ch=1 n=87 v=84
85080 On ch=1 n=87 v=84
85140 On ch=1 n=75 v=84
85196 Off ch=1 n=87 v=84
85196 Off ch=1 n=75 v=84
85200 On ch=1 n=87 v=84
85260 On ch=1 n=75 v=84
85316 Off ch=1 n=87 v=84
85316 Off ch=1 n=75 v=84
85320 On ch=1 n=87 v=84
85380 On ch=1 n=75 v=84
85436 Off ch=1 n=63 v=84
85436 Off ch=1 n=60 v=84
85436 Off ch=1 n=55 v=84
85436 Off ch=1 n=87 v=84
85436 Off ch=1 n=75 v=84
85440 On ch=1 n=75 v=84
85440 On ch=1 n=32 v=84
85440 On ch=1 n=44 v=84
85480 On ch=1 n=86 v=84
85496 Off ch=1 n=75 v=84
85500 On ch=1 n=77 v=84
85556 Off ch=1 n=77 v=84
85560 Off ch=1 n=86 v=84
85560 On ch=1 n=86 v=84
85620 On ch=1 n=77 v=84
85676 Off ch=1 n=86 v=84
85676 Off ch=1 n=77 v=84
85680 On ch=1 n=86 v=84
85740 On ch=1 n=77 v=84
85796 Off ch=1 n=86 v=84
85796 Off ch=1 n=77 v=84
85800 On ch=1 n=86 v=84
85860 On ch=1 n=77 v=84
85916 Off ch=1 n=32 v=84
85916 Off ch=1 n=44 v=84
85916 Off ch=1 n=86 v=84
85920 On ch=1 n=62 v=84
85920 On ch=1 n=56 v=84
85920 On ch=1 n=53 v=84
86156 Off ch=1 n=77 v=84
86160 On ch=1 n=87 v=84
86280 On ch=1 n=74 v=84
86396 Off ch=1 n=62 v=84
86396 Off ch=1 n=56 v=84
86396 Off ch=1 n=53 v=84
86396 Off ch=1 n=87 v=84
86396 Off ch=1 n=74 v=84
86400 On ch=1 n=82 v=84
86400 On ch=1 n=34 v=84
86400 On ch=1 n=46 v=84
86460 On ch=1 n=74 v=84
86516 Off ch=1 n=82 v=84
86516 Off ch=1 n=74 v=84
86520 On ch=1 n=82 v=84
86580 On ch=1 n=74 v=84
86636 Off ch=1 n=82 v=84
86636 Off ch=1 n=74 v=84
86640 On ch=1 n=82 v=84
86700 On ch=1 n=74 v=84
86756 Off ch=1 n=82 v=84
86756 Off ch=1 n=74 v=84
86760 On ch=1 n=82 v=84
86820 On ch=1 n=74 v=84
86876 Off ch=1 n=34 v=84
86876 Off ch=1 n=46 v=84
86876 Off ch=1 n=82 v=84
86876 Off ch=1 n=74 v=84
86880 On ch=1 n=77 v=84
86880 On ch=1 n=62 v=84
86880 On ch=1 n=56 v=84
86880 On ch=1 n=53 v=84
86940 On ch=1 n=74 v=84
86996 Off ch=1 n=77 v=84
86996 Off ch=1 n=74 v=84
87000 On ch=1 n=77 v=84
87060 On ch=1 n=74 v=84
87116 Off ch=1 n=77 v=84
87116 Off ch=1 n=74 v=84
87120 On ch=1 n=78 v=84
87356 Off ch=1 n=62 v=84
87356 Off ch=1 n=56 v=84
87356 Off ch=1 n=53 v=84
87356 Off ch=1 n=78 v=84
87360 On ch=1 n=70 v=84
87360 On ch=1 n=39 v=84
87360 On ch=1 n=51 v=84
87400 On ch=1 n=79 v=84
87416 Off ch=1 n=70 v=84
87420 On ch=1 n=70 v=84
87476 Off ch=1 n=70 v=84
87480 Off ch=1 n=79 v=84
87480 On ch=1 n=79 v=84
87540 On ch=1 n=70 v=84
87596 Off ch=1 n=79 v=84
87596 Off ch=1 n=70 v=84
87600 On ch=1 n=79 v=84
87660 On ch=1 n=70 v=84
87716 Off ch=1 n=79 v=84
87716 Off ch=1 n=70 v=84
87720 On ch=1 n=79 v=84
87780 On ch=1 n=70 v=84
87836 Off ch=1 n=39 v=84
87836 Off ch=1 n=51 v=84
87840 On ch=1 n=63 v=84
87840 On ch=1 n=58 v=84
87840 On ch=1 n=55 v=84
88076 Off ch=1 n=70 v=84
88076 Off ch=1 n=79 v=84
88080 On ch=1 n=75 v=84
88160 On ch=1 n=84 v=84
88240 On ch=1 n=75 v=84
88276 Off ch=1 n=84 v=84
88316 Off ch=1 n=63 v=84
88316 Off ch=1 n=58 v=84
88316 Off ch=1 n=55 v=84
88316 Off ch=1 n=75 v=84
88320 Off ch=1 n=75 v=84
88320 On ch=1 n=84 v=84
88320 On ch=1 n=39 v=84
88320 On ch=1 n=51 v=84
88380 On ch=1 n=75 v=84
88436 Off ch=1 n=75 v=84
88440 On ch=1 n=84 v=84
88496 Off ch=1 n=84 v=84
88500 On ch=1 n=75 v=84
88556 Off ch=1 n=75 v=84
88560 On ch=1 n=82 v=84
88796 Off ch=1 n=39 v=84
88796 Off ch=1 n=51 v=84
88800 On ch=1 n=63 v=84
88800 On ch=1 n=58 v=84
88800 On ch=1 n=55 v=84
89036 Off ch=1 n=82 v=84
89036 Off ch=1 n=84 v=84
89040 On ch=1 n=70 v=84
89120 On ch=1 n=75 v=84
89200 On ch=1 n=70 v=84
89236 Off ch=1 n=75 v=84
89276 Off ch=1 n=63 v=84
89276 Off ch=1 n=58 v=84
89276 Off ch=1 n=55 v=84
89276 Off ch=1 n=70 v=84
89280 On ch=1 n=75 v=84
89280 On ch=1 n=39 v=84
89280 On ch=1 n=51 v=84
89316 Off ch=1 n=70 v=84
89360 On ch=1 n=67 v=84
89440 On ch=1 n=75 v=84
89476 Off ch=1 n=67 v=84
89496 Off ch=1 n=75 v=84
89516 Off ch=1 n=75 v=84
89520 On ch=1 n=77 v=84
89520 On ch=1 n=70 v=84
89520 On ch=1 n=67 v=84
89756 Off ch=1 n=39 v=84
89756 Off ch=1 n=51 v=84
89756 Off ch=1 n=77 v=84
89756 Off ch=1 n=70 v=84
89756 Off ch=1 n=67 v=84
89760 On ch=1 n=62 v=84
89760 On ch=1 n=59 v=84
89760 On ch=1 n=56 v=84
89760 On ch=1 n=47 v=84
89760 On ch=1 n=41 v=84
89816 Off ch=1 n=62 v=84
89816 Off ch=1 n=59 v=84
89816 Off ch=1 n=56 v=84
89820 On ch=1 n=53 v=84
89876 Off ch=1 n=53 v=84
89880 On ch=1 n=62 v=84
89880 On ch=1 n=59 v=84
89880 On ch=1 n=56 v=84
89936 Off ch=1 n=62 v=84
89936 Off ch=1 n=59 v=84
89936 Off ch=1 n=56 v=84
89940 On ch=1 n=53 v=84
89996 Off ch=1 n=53 v=84
90000 On ch=1 n=62 v=84
90000 On ch=1 n=59 v=84
90000 On ch=1 n=56 v=84
90056 Off ch=1 n=62 v=84
90056 Off ch=1 n=59 v=84
90056 Off ch=1 n=56 v=84
90060 On ch=1 n=53 v=84
90116 Off ch=1 n=53 v=84
90120 On ch=1 n=62 v=84
90120 On ch=1 n=59 v=84
90120 On ch=1 n=56 v=84
90176 Off ch=1 n=62 v=84
90176 Off ch=1 n=59 v=84
90176 Off ch=1 n=56 v=84
90180 On ch=1 n=53 v=84
90236 Off ch=1 n=47 v=84
90236 Off ch=1 n=41 v=84
90240 Off ch=1 n=53 v=84
90240 On ch=1 n=63 v=84
90240 On ch=1 n=60 v=84
90240 On ch=1 n=57 v=84
90240 On ch=1 n=42 v=84
90240 On ch=1 n=48 v=84
90296 Off ch=1 n=63 v=84
90296 Off ch=1 n=60 v=84
90296 Off ch=1 n=57 v=84
90300 On ch=1 n=54 v=84
90356 Off ch=1 n=54 v=84
90360 On ch=1 n=63 v=84
90360 On ch=1 n=60 v=84
90360 On ch=1 n=57 v=84
90416 Off ch=1 n=63 v=84
90416 Off ch=1 n=60 v=84
90416 Off ch=1 n=57 v=84
90420 On ch=1 n=54 v=84
90476 Off ch=1 n=54 v=84
90480 On ch=1 n=63 v=84
90480 On ch=1 n=60 v=84
90480 On ch=1 n=57 v=84
90536 Off ch=1 n=63 v=84
90536 Off ch=1 n=60 v=84
90536 Off ch=1 n=57 v=84
90540 On ch=1 n=54 v=84
90596 Off ch=1 n=54 v=84
90600 On ch=1 n=63 v=84
90600 On ch=1 n=60 v=84
90600 On ch=1 n=57 v=84
90656 Off ch=1 n=63 v=84
90656 Off ch=1 n=60 v=84
90656 Off ch=1 n=57 v=84
90660 On ch=1 n=54 v=84
90716 Off ch=1 n=42 v=84
90716 Off ch=1 n=48 v=84
90716 Off ch=1 n=54 v=84
90720 On ch=1 n=64 v=84
90720 On ch=1 n=61 v=84
90720 On ch=1 n=58 v=84
90720 On ch=1 n=49 v=84
90720 On ch=1 n=43 v=84
90776 Off ch=1 n=64 v=84
90776 Off ch=1 n=61 v=84
90776 Off ch=1 n=58 v=84
90780 On ch=1 n=55 v=84
90836 Off ch=1 n=55 v=84
90840 On ch=1 n=64 v=84
90840 On ch=1 n=61 v=84
90840 On ch=1 n=58 v=84
90896 Off ch=1 n=64 v=84
90896 Off ch=1 n=61 v=84
90896 Off ch=1 n=58 v=84
90900 On ch=1 n=55 v=84
90956 Off ch=1 n=55 v=84
90960 On ch=1 n=64 v=84
90960 On ch=1 n=61 v=84
90960 On ch=1 n=58 v=84
91016 Off ch=1 n=64 v=84
91016 Off ch=1 n=61 v=84
91016 Off ch=1 n=58 v=84
91020 On ch=1 n=55 v=84
91076 Off ch=1 n=55 v=84
91080 On ch=1 n=64 v=84
91080 On ch=1 n=61 v=84
91080 On ch=1 n=58 v=84
91136 Off ch=1 n=64 v=84
91136 Off ch=1 n=61 v=84
91136 Off ch=1 n=58 v=84
91140 On ch=1 n=55 v=84
91196 Off ch=1 n=49 v=84
91196 Off ch=1 n=43 v=84
91196 Off ch=1 n=55 v=84
91440 On ch=1 n=60 v=104
91440 On ch=1 n=36 v=104
91560 On ch=1 n=62 v=104
91676 Off ch=1 n=36 v=104
91676 Off ch=1 n=62 v=104
91680 On ch=1 n=63 v=104
91796 Off ch=1 n=63 v=104
91800 On ch=1 n=62 v=104
91916 Off ch=1 n=60 v=104
91916 Off ch=1 n=62 v=104
91920 On ch=1 n=60 v=104
91920 On ch=1 n=43 v=104
92156 Off ch=1 n=60 v=104
92156 Off ch=1 n=43 v=104
92400 On ch=1 n=36 v=104
92400 On ch=1 n=60 v=104
92520 On ch=1 n=62 v=104
92636 Off ch=1 n=36 v=104
92636 Off ch=1 n=62 v=104
92640 On ch=1 n=63 v=104
92756 Off ch=1 n=63 v=104
92760 On ch=1 n=62 v=104
92876 Off ch=1 n=62 v=104
92880 On ch=1 n=43 v=104
92880 On ch=1 n=60 v=104
93116 Off ch=1 n=60 v=104
93116 Off ch=1 n=43 v=104
93116 Off ch=1 n=60 v=104
93360 On ch=1 n=36 v=104
93360 On ch=1 n=43 v=104
93360 On ch=1 n=60 v=104
93596 Off ch=1 n=36 v=104
93596 Off ch=1 n=43 v=104
93596 Off ch=1 n=60 v=104
93600 On ch=1 n=60 v=104
93600 On ch=1 n=67 v=104
93836 Off ch=1 n=60 v=104
93836 Off ch=1 n=67 v=104
93840 On ch=1 n=36 v=104
93840 On ch=1 n=43 v=104
93840 On ch=1 n=60 v=104
93840 On ch=1 n=66 v=104
94076 Off ch=1 n=36 v=104
94076 Off ch=1 n=43 v=104
94076 Off ch=1 n=60 v=104
94076 Off ch=1 n=66 v=104
94080 On ch=1 n=60 v=104
94080 On ch=1 n=67 v=104
94316 Off ch=1 n=60 v=104
94316 Off ch=1 n=67 v=104
94320 On ch=1 n=36 v=104
94320 On ch=1 n=43 v=104
94320 On ch=1 n=60 v=104
94320 On ch=1 n=68 v=104
94556 Off ch=1 n=36 v=104
94556 Off ch=1 n=43 v=104
94556 Off ch=1 n=60 v=104
94556 Off ch=1 n=68 v=104
94560 On ch=1 n=60 v=104
94560 On ch=1 n=67 v=104
94796 Off ch=1 n=60 v=104
94796 Off ch=1 n=67 v=104
94800 On ch=1 n=36 v=104
94800 On ch=1 n=43 v=104
94800 On ch=1 n=60 v=104
94800 On ch=1 n=63 v=104
95036 Off ch=1 n=36 v=104
95036 Off ch=1 n=43 v=104
95036 Off ch=1 n=60 v=104
95036 Off ch=1 n=63 v=104
95040 On ch=1 n=60 v=104
95276 Off ch=1 n=60 v=104
95280 On ch=1 n=43 v=104
95280 On ch=1 n=59 v=104
95400 On ch=1 n=63 v=104
95516 Off ch=1 n=43 v=104
95516 Off ch=1 n=63 v=104
95520 On ch=1 n=65 v=104
95636 Off ch=1 n=65 v=104
95640 On ch=1 n=63 v=104
95756 Off ch=1 n=63 v=104
95760 On ch=1 n=38 v=104
95760 On ch=1 n=62 v=104
95996 Off ch=1 n=59 v=104
95996 Off ch=1 n=38 v=104
95996 Off ch=1 n=62 v=104
96240 On ch=1 n=43 v=104
96240 On ch=1 n=59 v=104
96360 On ch=1 n=63 v=104
96476 Off ch=1 n=43 v=104
96476 Off ch=1 n=63 v=104
96480 On ch=1 n=65 v=104
96596 Off ch=1 n=65 v=104
96600 On ch=1 n=63 v=104
96716 Off ch=1 n=63 v=104
96720 On ch=1 n=38 v=104
96720 On ch=1 n=62 v=104
96956 Off ch=1 n=59 v=104
96956 Off ch=1 n=38 v=104
96956 Off ch=1 n=62 v=104
97200 On ch=1 n=38 v=104
97200 On ch=1 n=43 v=104
97200 On ch=1 n=59 v=104
97200 On ch=1 n=62 v=104
97436 Off ch=1 n=38 v=104
97436 Off ch=1 n=43 v=104
97436 Off ch=1 n=59 v=104
97436 Off ch=1 n=62 v=104
97440 On ch=1 n=59 v=104
97440 On ch=1 n=67 v=104
97676 Off ch=1 n=59 v=104
97676 Off ch=1 n=67 v=104
97680 On ch=1 n=38 v=104
97680 On ch=1 n=43 v=104
97680 On ch=1 n=59 v=104
97680 On ch=1 n=66 v=104
97916 Off ch=1 n=38 v=104
97916 Off ch=1 n=43 v=104
97916 Off ch=1 n=59 v=104
97916 Off ch=1 n=66 v=104
97920 On ch=1 n=59 v=104
97920 On ch=1 n=67 v=104
98156 Off ch=1 n=59 v=104
98156 Off ch=1 n=67 v=104
98160 On ch=1 n=38 v=104
98160 On ch=1 n=43 v=104
98160 On ch=1 n=59 v=104
98160 On ch=1 n=68 v=104
98396 Off ch=1 n=38 v=104
98396 Off ch=1 n=43 v=104
98396 Off ch=1 n=59 v=104
98396 Off ch=1 n=68 v=104
98400 On ch=1 n=59 v=104
98400 On ch=1 n=67 v=104
98636 Off ch=1 n=59 v=104
98636 Off ch=1 n=67 v=104
98640 On ch=1 n=38 v=104
98640 On ch=1 n=43 v=104
98640 On ch=1 n=59 v=104
98640 On ch=1 n=63 v=104
98876 Off ch=1 n=38 v=104
98876 Off ch=1 n=43 v=104
98876 Off ch=1 n=59 v=104
98876 Off ch=1 n=63 v=104
98880 On ch=1 n=59 v=104
98880 On ch=1 n=62 v=104
99116 Off ch=1 n=59 v=104
99116 Off ch=1 n=62 v=104
99120 On ch=1 n=36 v=104
99120 On ch=1 n=60 v=104
99240 On ch=1 n=62 v=104
99356 Off ch=1 n=36 v=104
99356 Off ch=1 n=62 v=104
99360 On ch=1 n=63 v=104
99476 Off ch=1 n=63 v=104
99480 On ch=1 n=62 v=104
99596 Off ch=1 n=62 v=104
99600 On ch=1 n=43 v=104
99600 On ch=1 n=60 v=104
99836 Off ch=1 n=60 v=104
99836 Off ch=1 n=43 v=104
99836 Off ch=1 n=60 v=104
100080 On ch=1 n=36 v=104
100080 On ch=1 n=60 v=104
100200 On ch=1 n=62 v=104
100316 Off ch=1 n=36 v=104
100316 Off ch=1 n=62 v=104
100320 On ch=1 n=63 v=104
100436 Off ch=1 n=63 v=104
100440 On ch=1 n=62 v=104
100556 Off ch=1 n=62 v=104
100560 On ch=1 n=43 v=104
100560 On ch=1 n=60 v=104
100796 Off ch=1 n=60 v=104
100796 Off ch=1 n=43 v=104
100796 Off ch=1 n=60 v=104
101040 On ch=1 n=36 v=104
101040 On ch=1 n=43 v=104
101040 On ch=1 n=60 v=104
101276 Off ch=1 n=36 v=104
101276 Off ch=1 n=43 v=104
101276 Off ch=1 n=60 v=104
101280 On ch=1 n=60 v=104
101280 On ch=1 n=67 v=104
101516 Off ch=1 n=60 v=104
101516 Off ch=1 n=67 v=104
101520 On ch=1 n=36 v=104
101520 On ch=1 n=43 v=104
101520 On ch=1 n=60 v=104
101520 On ch=1 n=66 v=104
101756 Off ch=1 n=36 v=104
101756 Off ch=1 n=43 v=104
101756 Off ch=1 n=60 v=104
101756 Off ch=1 n=66 v=104
101760 On ch=1 n=60 v=104
101760 On ch=1 n=67 v=104
101996 Off ch=1 n=60 v=104
101996 Off ch=1 n=67 v=104
102000 On ch=1 n=36 v=104
102000 On ch=1 n=43 v=104
102000 On ch=1 n=60 v=104
102000 On ch=1 n=68 v=104
102236 Off ch=1 n=36 v=104
102236 Off ch=1 n=43 v=104
102236 Off ch=1 n=60 v=104
102236 Off ch=1 n=68 v=104
102240 On ch=1 n=60 v=104
102240 On ch=1 n=67 v=104
102476 Off ch=1 n=60 v=104
102476 Off ch=1 n=67 v=104
102480 On ch=1 n=36 v=104
102480 On ch=1 n=43 v=104
102480 On ch=1 n=60 v=104
102480 On ch=1 n=63 v=104
102716 Off ch=1 n=36 v=104
102716 Off ch=1 n=43 v=104
102716 Off ch=1 n=60 v=104
102716 Off ch=1 n=63 v=104
102720 On ch=1 n=59 v=104
102956 Off ch=1 n=59 v=104
102960 On ch=1 n=43 v=104
102960 On ch=1 n=59 v=104
102960 On ch=1 n=62 v=104
103196 Off ch=1 n=43 v=104
103196 Off ch=1 n=59 v=104
103196 Off ch=1 n=62 v=104
103200 On ch=1 n=59 v=104
103200 On ch=1 n=63 v=104
103436 Off ch=1 n=59 v=104
103436 Off ch=1 n=63 v=104
103440 On ch=1 n=38 v=104
103440 On ch=1 n=59 v=104
103440 On ch=1 n=65 v=104
103676 Off ch=1 n=38 v=104
103676 Off ch=1 n=59 v=104
103676 Off ch=1 n=65 v=104
103680 On ch=1 n=59 v=104
103680 On ch=1 n=63 v=104
103916 Off ch=1 n=59 v=104
103916 Off ch=1 n=63 v=104
103920 On ch=1 n=43 v=104
103920 On ch=1 n=59 v=104
103920 On ch=1 n=67 v=104
104156 Off ch=1 n=43 v=104
104156 Off ch=1 n=59 v=104
104156 Off ch=1 n=67 v=104
104160 On ch=1 n=59 v=104
104160 On ch=1 n=65 v=104
104396 Off ch=1 n=59 v=104
104396 Off ch=1 n=65 v=104
104400 On ch=1 n=43 v=104
104400 On ch=1 n=59 v=104
104400 On ch=1 n=63 v=104
104636 Off ch=1 n=43 v=104
104636 Off ch=1 n=59 v=104
104636 Off ch=1 n=63 v=104
104640 On ch=1 n=59 v=104
104640 On ch=1 n=62 v=104
104876 Off ch=1 n=59 v=104
104876 Off ch=1 n=62 v=104
104880 On ch=1 n=36 v=104
104880 On ch=1 n=48 v=104
104880 On ch=1 n=60 v=104
105000 On ch=1 n=63 v=104
105116 Off ch=1 n=63 v=104
105120 On ch=1 n=68 v=104
105236 Off ch=1 n=68 v=104
105240 On ch=1 n=60 v=104
105356 Off ch=1 n=60 v=104
105360 On ch=1 n=72 v=104
105476 Off ch=1 n=72 v=104
105480 On ch=1 n=67 v=104
105596 Off ch=1 n=67 v=104
105600 On ch=1 n=63 v=104
105656 Off ch=1 n=63 v=104
105660 On ch=1 n=67 v=104
105716 Off ch=1 n=67 v=104
105720 On ch=1 n=63 v=104
105776 Off ch=1 n=63 v=104
105780 On ch=1 n=60 v=104
105836 Off ch=1 n=36 v=104
105836 Off ch=1 n=48 v=104
105836 Off ch=1 n=60 v=104
105836 Off ch=1 n=60 v=104
105840 On ch=1 n=36 v=104
105840 On ch=1 n=48 v=104
105840 On ch=1 n=63 v=104
105960 On ch=1 n=60 v=104
106076 Off ch=1 n=60 v=104
106080 On ch=1 n=62 v=104
106196 Off ch=1 n=62 v=104
106200 On ch=1 n=63 v=104
106316 Off ch=1 n=63 v=104
106320 On ch=1 n=65 v=104
106436 Off ch=1 n=65 v=104
106440 On ch=1 n=67 v=104
106556 Off ch=1 n=67 v=104
106560 On ch=1 n=65 v=104
106676 Off ch=1 n=65 v=104
106680 On ch=1 n=63 v=104
106796 Off ch=1 n=36 v=104
106796 Off ch=1 n=48 v=104
106796 Off ch=1 n=63 v=104
106796 Off ch=1 n=63 v=104
106800 On ch=1 n=33 v=104
106800 On ch=1 n=45 v=104
106800 On ch=1 n=65 v=104
107040 On ch=1 n=62 v=104
107156 Off ch=1 n=62 v=104
107160 On ch=1 n=57 v=104
107276 Off ch=1 n=57 v=104
107280 On ch=1 n=62 v=104
107396 Off ch=1 n=62 v=104
107400 On ch=1 n=64 v=104
107516 Off ch=1 n=64 v=104
107520 On ch=1 n=69 v=104
107636 Off ch=1 n=69 v=104
107640 On ch=1 n=64 v=104
107756 Off ch=1 n=65 v=104
107756 Off ch=1 n=64 v=104
107760 On ch=1 n=62 v=104
107880 On ch=1 n=57 v=104
107996 Off ch=1 n=57 v=104
108000 On ch=1 n=62 v=104
108116 Off ch=1 n=62 v=104
108120 On ch=1 n=64 v=104
108236 Off ch=1 n=64 v=104
108240 On ch=1 n=72 v=104
108356 Off ch=1 n=72 v=104
108360 On ch=1 n=64 v=104
108476 Off ch=1 n=64 v=104
108480 On ch=1 n=62 v=104
108596 Off ch=1 n=62 v=104
108600 On ch=1 n=57 v=104
108716 Off ch=1 n=33 v=104
108716 Off ch=1 n=45 v=104
108716 Off ch=1 n=62 v=104
108716 Off ch=1 n=57 v=104
108720 On ch=1 n=38 v=104
108720 On ch=1 n=50 v=104
108720 On ch=1 n=62 v=104
108840 On ch=1 n=62 v=104
108956 Off ch=1 n=62 v=104
108960 On ch=1 n=74 v=104
109076 Off ch=1 n=74 v=104
109080 On ch=1 n=69 v=104
109196 Off ch=1 n=69 v=104
109200 On ch=1 n=67 v=104
109256 Off ch=1 n=67 v=104
109260 On ch=1 n=69 v=104
109316 Off ch=1 n=69 v=104
109320 On ch=1 n=67 v=104
109376 Off ch=1 n=67 v=104
109380 On ch=1 n=62 v=104
109440 On ch=1 n=67 v=104
109440 Off ch=1 n=62 v=104
109556 Off ch=1 n=67 v=104
109560 On ch=1 n=69 v=104
109676 Off ch=1 n=38 v=104
109676 Off ch=1 n=50 v=104
109676 Off ch=1 n=62 v=104
109676 Off ch=1 n=69 v=104
109680 On ch=1 n=48 v=104
109680 On ch=1 n=36 v=104
109680 On ch=1 n=74 v=104
109800 On ch=1 n=67 v=104
109916 Off ch=1 n=67 v=104
109920 On ch=1 n=69 v=104
110036 Off ch=1 n=69 v=104
110040 On ch=1 n=62 v=104
110156 Off ch=1 n=74 v=104
110156 Off ch=1 n=62 v=104
110160 On ch=1 n=74 v=104
110280 On ch=1 n=72 v=104
110396 Off ch=1 n=48 v=104
110396 Off ch=1 n=36 v=104
110396 Off ch=1 n=72 v=104
110400 On ch=1 n=36 v=104
110400 On ch=1 n=48 v=104
110400 On ch=1 n=72 v=104
110516 Off ch=1 n=72 v=104
110520 On ch=1 n=62 v=104
110636 Off ch=1 n=36 v=104
110636 Off ch=1 n=48 v=104
110636 Off ch=1 n=74 v=104
110636 Off ch=1 n=62 v=104
110640 On ch=1 n=35 v=104
110640 On ch=1 n=47 v=104
110760 On ch=1 n=59 v=104
110880 On ch=1 n=64 v=104
110996 Off ch=1 n=64 v=104
111000 On ch=1 n=66 v=104
111116 Off ch=1 n=59 v=104
111116 Off ch=1 n=66 v=104
111120 On ch=1 n=71 v=104
111240 On ch=1 n=66 v=104
111356 Off ch=1 n=66 v=104
111360 On ch=1 n=64 v=104
111476 Off ch=1 n=64 v=104
111480 On ch=1 n=59 v=104
111596 Off ch=1 n=71 v=104
111596 Off ch=1 n=59 v=104
111600 On ch=1 n=71 v=104
111720 On ch=1 n=66 v=104
111836 Off ch=1 n=66 v=104
111840 On ch=1 n=64 v=104
111956 Off ch=1 n=64 v=104
111960 On ch=1 n=59 v=104
112076 Off ch=1 n=71 v=104
112076 Off ch=1 n=59 v=104
112080 On ch=1 n=66 v=104
112200 On ch=1 n=64 v=104
112316 Off ch=1 n=64 v=104
112320 On ch=1 n=59 v=104
112556 Off ch=1 n=35 v=104
112556 Off ch=1 n=47 v=104
112556 Off ch=1 n=66 v=104
112556 Off ch=1 n=59 v=104
112560 On ch=1 n=40 v=84
112560 On ch=1 n=76 v=84
112640 On ch=1 n=71 v=84
112676 Off ch=1 n=40 v=84
112676 Off ch=1 n=76 v=84
112720 On ch=1 n=67 v=84
112756 Off ch=1 n=71 v=84
112800 On ch=1 n=35 v=84
112800 On ch=1 n=47 v=84
112800 On ch=1 n=74 v=84
112836 Off ch=1 n=67 v=84
112880 On ch=1 n=69 v=84
112916 Off ch=1 n=35 v=84
112916 Off ch=1 n=47 v=84
112916 Off ch=1 n=74 v=84
112960 On ch=1 n=66 v=84
112996 Off ch=1 n=69 v=84
113040 On ch=1 n=36 v=84
113040 On ch=1 n=48 v=84
113040 On ch=1 n=72 v=84
113076 Off ch=1 n=66 v=84
113096 Off ch=1 n=72 v=84
113100 On ch=1 n=67 v=84
113156 Off ch=1 n=36 v=84
113156 Off ch=1 n=48 v=84
113156 Off ch=1 n=67 v=84
113160 On ch=1 n=64 v=84
113216 Off ch=1 n=64 v=84
113220 On ch=1 n=67 v=84
113280 On ch=1 n=31 v=84
113280 On ch=1 n=43 v=84
113280 On ch=1 n=71 v=84
113280 Off ch=1 n=67 v=84
113360 On ch=1 n=67 v=84
113396 Off ch=1 n=31 v=84
113396 Off ch=1 n=43 v=84
113396 Off ch=1 n=71 v=84
113440 On ch=1 n=62 v=84
113476 Off ch=1 n=67 v=84
113520 On ch=1 n=33 v=84
113520 On ch=1 n=45 v=84
113520 On ch=1 n=69 v=84
113556 Off ch=1 n=62 v=84
113600 On ch=1 n=64 v=84
113636 Off ch=1 n=33 v=84
113636 Off ch=1 n=45 v=84
113636 Off ch=1 n=69 v=84
113680 On ch=1 n=60 v=84
113716 Off ch=1 n=64 v=84
113760 On ch=1 n=35 v=84
113760 On ch=1 n=47 v=84
113760 On ch=1 n=67 v=84
113796 Off ch=1 n=60 v=84
113840 On ch=1 n=62 v=84
113876 Off ch=1 n=35 v=84
113876 Off ch=1 n=47 v=84
113876 Off ch=1 n=67 v=84
113920 On ch=1 n=59 v=84
113956 Off ch=1 n=62 v=84
114000 On ch=1 n=36 v=84
114000 On ch=1 n=48 v=84
114000 On ch=1 n=67 v=84
114036 Off ch=1 n=59 v=84
114080 On ch=1 n=64 v=84
114116 Off ch=1 n=36 v=84
114116 Off ch=1 n=48 v=84
114116 Off ch=1 n=67 v=84
114160 On ch=1 n=60 v=84
114196 Off ch=1 n=64 v=84
114240 On ch=1 n=38 v=84
114240 On ch=1 n=50 v=84
114240 On ch=1 n=66 v=84
114276 Off ch=1 n=60 v=84
114320 On ch=1 n=62 v=84
114356 Off ch=1 n=38 v=84
114356 Off ch=1 n=50 v=84
114356 Off ch=1 n=66 v=84
114400 On ch=1 n=57 v=84
114436 Off ch=1 n=62 v=84
114480 On ch=1 n=40 v=89
114516 Off ch=1 n=57 v=84
114600 On ch=1 n=47 v=84
114716 Off ch=1 n=47 v=84
114720 On ch=1 n=52 v=84
114836 Off ch=1 n=52 v=84
114840 On ch=1 n=55 v=84
114956 Off ch=1 n=55 v=84
114960 On ch=1 n=59 v=84
115076 Off ch=1 n=59 v=84
115080 On ch=1 n=60 v=84
115196 Off ch=1 n=60 v=84
115200 On ch=1 n=64 v=84
115316 Off ch=1 n=64 v=84
115320 On ch=1 n=60 v=84
115436 Off ch=1 n=60 v=84
115440 On ch=1 n=59 v=84
115556 Off ch=1 n=59 v=84
115560 On ch=1 n=55 v=84
115676 Off ch=1 n=55 v=84
115680 On ch=1 n=52 v=84
115796 Off ch=1 n=52 v=84
115800 On ch=1 n=55 v=84
115916 Off ch=1 n=55 v=84
115920 On ch=1 n=52 v=84
116036 Off ch=1 n=52 v=84
116040 On ch=1 n=55 v=84
116156 Off ch=1 n=55 v=84
116160 On ch=1 n=54 v=84
116276 Off ch=1 n=54 v=84
116280 On ch=1 n=50 v=84
116396 Off ch=1 n=40 v=89
116396 Off ch=1 n=50 v=84
116400 On ch=1 n=40 v=84
116400 On ch=1 n=76 v=84
116456 Off ch=1 n=76 v=84
116460 On ch=1 n=71 v=84
116516 Off ch=1 n=40 v=84
116516 Off ch=1 n=71 v=84
116520 On ch=1 n=67 v=84
116576 Off ch=1 n=67 v=84
116580 On ch=1 n=64 v=84
116636 Off ch=1 n=64 v=84
116640 On ch=1 n=35 v=84
116640 On ch=1 n=47 v=84
116640 On ch=1 n=74 v=84
116696 Off ch=1 n=74 v=84
116700 On ch=1 n=69 v=84
116756 Off ch=1 n=35 v=84
116756 Off ch=1 n=47 v=84
116756 Off ch=1 n=69 v=84
116760 On ch=1 n=66 v=84
116816 Off ch=1 n=66 v=84
116820 On ch=1 n=62 v=84
116876 Off ch=1 n=62 v=84
116880 On ch=1 n=36 v=84
116880 On ch=1 n=48 v=84
116880 On ch=1 n=72 v=84
116936 Off ch=1 n=72 v=84
116940 On ch=1 n=67 v=84
116996 Off ch=1 n=36 v=84
116996 Off ch=1 n=48 v=84
116996 Off ch=1 n=67 v=84
117000 On ch=1 n=64 v=84
117056 Off ch=1 n=64 v=84
117060 On ch=1 n=67 v=84
117120 On ch=1 n=31 v=84
117120 On ch=1 n=43 v=84
117120 On ch=1 n=71 v=84
117120 Off ch=1 n=67 v=84
117176 Off ch=1 n=71 v=84
117180 On ch=1 n=67 v=84
117236 Off ch=1 n=31 v=84
117236 Off ch=1 n=43 v=84
117236 Off ch=1 n=67 v=84
117240 On ch=1 n=62 v=84
117296 Off ch=1 n=62 v=84
117300 On ch=1 n=67 v=84
117356 Off ch=1 n=67 v=84
117360 On ch=1 n=33 v=84
117360 On ch=1 n=45 v=84
117360 On ch=1 n=69 v=84
117416 Off ch=1 n=69 v=84
117420 On ch=1 n=64 v=84
117476 Off ch=1 n=33 v=84
117476 Off ch=1 n=45 v=84
117476 Off ch=1 n=64 v=84
117480 On ch=1 n=60 v=84
117536 Off ch=1 n=60 v=84
117540 On ch=1 n=64 v=84
117596 Off ch=1 n=64 v=84
117600 On ch=1 n=35 v=84
117600 On ch=1 n=47 v=84
117600 On ch=1 n=67 v=84
117656 Off ch=1 n=67 v=84
117660 On ch=1 n=62 v=84
117716 Off ch=1 n=35 v=84
117716 Off ch=1 n=47 v=84
117716 Off ch=1 n=62 v=84
117720 On ch=1 n=59 v=84
117776 Off ch=1 n=59 v=84
117780 On ch=1 n=62 v=84
117836 Off ch=1 n=62 v=84
117840 On ch=1 n=36 v=84
117840 On ch=1 n=48 v=84
117840 On ch=1 n=67 v=84
117896 Off ch=1 n=67 v=84
117900 On ch=1 n=64 v=84
117956 Off ch=1 n=36 v=84
117956 Off ch=1 n=48 v=84
117956 Off ch=1 n=64 v=84
117960 On ch=1 n=60 v=84
118016 Off ch=1 n=60 v=84
118020 On ch=1 n=64 v=84
118076 Off ch=1 n=64 v=84
118080 On ch=1 n=38 v=84
118080 On ch=1 n=50 v=84
118080 On ch=1 n=66 v=84
118136 Off ch=1 n=66 v=84
118140 On ch=1 n=62 v=84
118196 Off ch=1 n=38 v=84
118196 Off ch=1 n=50 v=84
118196 Off ch=1 n=62 v=84
118200 On ch=1 n=57 v=84
118256 Off ch=1 n=57 v=84
118260 On ch=1 n=62 v=84
118316 Off ch=1 n=62 v=84
118320 On ch=1 n=40 v=84
118440 On ch=1 n=47 v=84
118556 Off ch=1 n=47 v=84
118560 On ch=1 n=52 v=84
118676 Off ch=1 n=52 v=84
118680 On ch=1 n=55 v=84
118796 Off ch=1 n=55 v=84
118800 On ch=1 n=59 v=84
118916 Off ch=1 n=59 v=84
118920 On ch=1 n=64 v=84
119036 Off ch=1 n=64 v=84
119040 On ch=1 n=60 v=84
119156 Off ch=1 n=60 v=84
119160 On ch=1 n=59 v=84
119276 Off ch=1 n=40 v=84
119276 Off ch=1 n=59 v=84
119280 On ch=1 n=38 v=84
119280 On ch=1 n=50 v=84
119280 On ch=1 n=57 v=84
119396 Off ch=1 n=57 v=84
119400 On ch=1 n=60 v=84
119516 Off ch=1 n=60 v=84
119520 On ch=1 n=59 v=84
119636 Off ch=1 n=59 v=84
119640 On ch=1 n=55 v=84
119756 Off ch=1 n=55 v=84
119760 On ch=1 n=60 v=84
119876 Off ch=1 n=60 v=84
119880 On ch=1 n=59 v=84
119996 Off ch=1 n=59 v=84
120000 On ch=1 n=55 v=84
120116 Off ch=1 n=55 v=84
120120 On ch=1 n=57 v=84
120236 Off ch=1 n=38 v=84
120236 Off ch=1 n=50 v=84
120236 Off ch=1 n=57 v=84
120240 On ch=1 n=36 v=99
120240 On ch=1 n=48 v=99
120360 On ch=1 n=60 v=94
120480 On ch=1 n=65 v=94
120596 Off ch=1 n=65 v=94
120600 On ch=1 n=67 v=94
120716 Off ch=1 n=67 v=94
120720 On ch=1 n=72 v=94
120836 Off ch=1 n=72 v=94
120840 On ch=1 n=67 v=94
120956 Off ch=1 n=67 v=94
120960 On ch=1 n=65 v=94
121076 Off ch=1 n=65 v=94
121080 On ch=1 n=60 v=94
121196 Off ch=1 n=36 v=99
121196 Off ch=1 n=48 v=99
121196 Off ch=1 n=60 v=94
121196 Off ch=1 n=60 v=94
121200 On ch=1 n=33 v=99
121200 On ch=1 n=45 v=99
121200 On ch=1 n=62 v=94
121320 On ch=1 n=57 v=94
121436 Off ch=1 n=57 v=94
121440 On ch=1 n=62 v=94
121556 Off ch=1 n=62 v=94
121560 On ch=1 n=64 v=94
121676 Off ch=1 n=64 v=94
121680 On ch=1 n=57 v=94
121796 Off ch=1 n=57 v=94
121800 On ch=1 n=62 v=94
121916 Off ch=1 n=62 v=94
121920 On ch=1 n=64 v=94
122036 Off ch=1 n=64 v=94
122040 On ch=1 n=69 v=99
122040 On ch=1 n=57 v=99
122276 Off ch=1 n=69 v=99
122276 Off ch=1 n=57 v=99
122280 On ch=1 n=64 v=94
122396 Off ch=1 n=64 v=94
122400 On ch=1 n=62 v=94
122516 Off ch=1 n=62 v=94
122520 On ch=1 n=57 v=94
122636 Off ch=1 n=57 v=94
122640 On ch=1 n=62 v=94
122756 Off ch=1 n=62 v=94
122760 On ch=1 n=64 v=94
122876 Off ch=1 n=64 v=94
122880 On ch=1 n=57 v=94
122996 Off ch=1 n=33 v=99
122996 Off ch=1 n=45 v=99
122996 Off ch=1 n=57 v=94
122996 Off ch=1 n=62 v=94
123000 On ch=1 n=45 v=94
123000 On ch=1 n=62 v=94
123116 Off ch=1 n=62 v=94
123120 On ch=1 n=33 v=99
123240 On ch=1 n=57 v=94
123356 Off ch=1 n=57 v=94
123360 On ch=1 n=62 v=94
123476 Off ch=1 n=62 v=94
123480 On ch=1 n=64 v=94
123596 Off ch=1 n=64 v=94
123600 On ch=1 n=57 v=94
123716 Off ch=1 n=57 v=94
123720 On ch=1 n=62 v=94
123836 Off ch=1 n=62 v=94
123840 On ch=1 n=64 v=94
123956 Off ch=1 n=64 v=94
123960 On ch=1 n=69 v=99
123960 On ch=1 n=57 v=99
124196 Off ch=1 n=69 v=99
124196 Off ch=1 n=57 v=99
124200 On ch=1 n=64 v=94
124316 Off ch=1 n=64 v=94
124320 On ch=1 n=62 v=94
124436 Off ch=1 n=62 v=94
124440 On ch=1 n=57 v=94
124556 Off ch=1 n=57 v=94
124560 On ch=1 n=64 v=94
124676 Off ch=1 n=64 v=94
124680 On ch=1 n=62 v=94
124796 Off ch=1 n=62 v=94
124800 On ch=1 n=57 v=94
125036 Off ch=1 n=33 v=99
125036 Off ch=1 n=45 v=94
125036 Off ch=1 n=57 v=94
125040 On ch=1 n=38 v=94
125040 On ch=1 n=50 v=94
125040 On ch=1 n=67 v=94
125040 On ch=1 n=74 v=94
125156 Off ch=1 n=67 v=94
125156 Off ch=1 n=74 v=94
125160 On ch=1 n=69 v=94
125276 Off ch=1 n=69 v=94
125280 On ch=1 n=62 v=94
125396 Off ch=1 n=38 v=94
125400 On ch=1 n=38 v=94
125516 Off ch=1 n=50 v=94
125516 Off ch=1 n=62 v=94
125520 On ch=1 n=50 v=94
125640 On ch=1 n=60 v=94
125756 Off ch=1 n=38 v=94
125756 Off ch=1 n=50 v=94
125756 Off ch=1 n=60 v=94
125760 On ch=1 n=38 v=94
125760 On ch=1 n=50 v=94
125760 On ch=1 n=65 v=94
125760 On ch=1 n=72 v=94
125876 Off ch=1 n=65 v=94
125876 Off ch=1 n=72 v=94
125880 On ch=1 n=67 v=94
125996 Off ch=1 n=38 v=94
125996 Off ch=1 n=50 v=94
125996 Off ch=1 n=67 v=94
126000 On ch=1 n=38 v=94
126000 On ch=1 n=50 v=94
126000 On ch=1 n=60 v=94
126236 Off ch=1 n=38 v=94
126236 Off ch=1 n=50 v=94
126236 Off ch=1 n=60 v=94
126240 On ch=1 n=38 v=94
126240 On ch=1 n=50 v=94
126360 On ch=1 n=57 v=94
126476 Off ch=1 n=38 v=94
126476 Off ch=1 n=50 v=94
126476 Off ch=1 n=57 v=94
126480 On ch=1 n=38 v=94
126480 On ch=1 n=50 v=94
126480 On ch=1 n=62 v=94
126480 On ch=1 n=69 v=94
126596 Off ch=1 n=62 v=94
126596 Off ch=1 n=69 v=94
126600 On ch=1 n=64 v=94
126716 Off ch=1 n=38 v=94
126716 Off ch=1 n=50 v=94
126716 Off ch=1 n=64 v=94
126720 On ch=1 n=50 v=94
126720 On ch=1 n=57 v=94
126836 Off ch=1 n=50 v=94
126840 On ch=1 n=38 v=94
126956 Off ch=1 n=57 v=94
126960 On ch=1 n=50 v=94
126960 On ch=1 n=60 v=94
126960 On ch=1 n=67 v=94
127076 Off ch=1 n=60 v=94
127076 Off ch=1 n=67 v=94
127080 On ch=1 n=62 v=94
127196 Off ch=1 n=38 v=94
127196 Off ch=1 n=50 v=94
127196 Off ch=1 n=62 v=94
127200 On ch=1 n=50 v=94
127200 On ch=1 n=55 v=94
127316 Off ch=1 n=50 v=94
127320 On ch=1 n=38 v=94
127436 Off ch=1 n=55 v=94
127440 On ch=1 n=50 v=94
127440 On ch=1 n=58 v=94
127440 On ch=1 n=67 v=94
127556 Off ch=1 n=58 v=94
127556 Off ch=1 n=67 v=94
127560 On ch=1 n=60 v=94
127676 Off ch=1 n=38 v=94
127676 Off ch=1 n=50 v=94
127676 Off ch=1 n=60 v=94
127680 On ch=1 n=50 v=94
127680 On ch=1 n=53 v=94
127796 Off ch=1 n=50 v=94
127800 On ch=1 n=38 v=94
127916 Off ch=1 n=53 v=94
127920 On ch=1 n=55 v=94
127920 On ch=1 n=62 v=94
128036 Off ch=1 n=55 v=94
128036 Off ch=1 n=62 v=94
128040 On ch=1 n=57 v=94
128156 Off ch=1 n=38 v=94
128156 Off ch=1 n=57 v=94
128160 On ch=1 n=50 v=94
128276 Off ch=1 n=50 v=94
128280 On ch=1 n=38 v=94
128400 On ch=1 n=50 v=94
128636 Off ch=1 n=38 v=94
128636 Off ch=1 n=50 v=94
128640 On ch=1 n=38 v=94
128640 On ch=1 n=50 v=94
128760 On ch=1 n=41 v=94
128876 Off ch=1 n=38 v=94
128876 Off ch=1 n=50 v=94
128876 Off ch=1 n=41 v=94
128880 On ch=1 n=38 v=94
128880 On ch=1 n=50 v=94
128880 On ch=1 n=67 v=94
128880 On ch=1 n=74 v=94
128996 Off ch=1 n=67 v=94
128996 Off ch=1 n=74 v=94
129000 On ch=1 n=69 v=94
129116 Off ch=1 n=69 v=94
129120 On ch=1 n=62 v=94
129236 Off ch=1 n=38 v=94
129240 On ch=1 n=38 v=94
129356 Off ch=1 n=50 v=94
129356 Off ch=1 n=62 v=94
129360 On ch=1 n=50 v=94
129480 On ch=1 n=60 v=94
129596 Off ch=1 n=38 v=94
129596 Off ch=1 n=50 v=94
129596 Off ch=1 n=60 v=94
129600 On ch=1 n=38 v=94
129600 On ch=1 n=50 v=94
129600 On ch=1 n=65 v=94
129600 On ch=1 n=72 v=94
129716 Off ch=1 n=65 v=94
129716 Off ch=1 n=72 v=94
129720 On ch=1 n=67 v=94
129836 Off ch=1 n=38 v=94
129836 Off ch=1 n=50 v=94
129836 Off ch=1 n=67 v=94
129840 On ch=1 n=38 v=94
129840 On ch=1 n=50 v=94
129840 On ch=1 n=60 v=94
130076 Off ch=1 n=38 v=94
130076 Off ch=1 n=50 v=94
130076 Off ch=1 n=60 v=94
130080 On ch=1 n=38 v=94
130080 On ch=1 n=50 v=94
130200 On ch=1 n=57 v=94
130316 Off ch=1 n=38 v=94
130316 Off ch=1 n=50 v=94
130316 Off ch=1 n=57 v=94
130320 On ch=1 n=38 v=94
130320 On ch=1 n=50 v=94
130320 On ch=1 n=62 v=94
130320 On ch=1 n=69 v=94
130436 Off ch=1 n=62 v=94
130436 Off ch=1 n=69 v=94
130440 On ch=1 n=64 v=94
130556 Off ch=1 n=38 v=94
130556 Off ch=1 n=50 v=94
130556 Off ch=1 n=64 v=94
130560 On ch=1 n=50 v=94
130560 On ch=1 n=57 v=94
130676 Off ch=1 n=50 v=94
130680 On ch=1 n=38 v=94
130796 Off ch=1 n=57 v=94
130800 On ch=1 n=50 v=94
130920 On ch=1 n=55 v=94
131036 Off ch=1 n=38 v=94
131036 Off ch=1 n=50 v=94
131036 Off ch=1 n=55 v=94
131040 On ch=1 n=38 v=94
131040 On ch=1 n=50 v=94
131040 On ch=1 n=60 v=94
131040 On ch=1 n=67 v=94
131156 Off ch=1 n=60 v=94
131156 Off ch=1 n=67 v=94
131160 On ch=1 n=62 v=94
131276 Off ch=1 n=38 v=94
131276 Off ch=1 n=50 v=94
131276 Off ch=1 n=62 v=94
131280 On ch=1 n=50 v=94
131280 On ch=1 n=55 v=94
131396 Off ch=1 n=50 v=94
131400 On ch=1 n=38 v=94
131516 Off ch=1 n=55 v=94
131520 On ch=1 n=50 v=94
131520 On ch=1 n=58 v=94
131520 On ch=1 n=65 v=94
131636 Off ch=1 n=58 v=94
131636 Off ch=1 n=65 v=94
131640 On ch=1 n=60 v=94
131756 Off ch=1 n=38 v=94
131756 Off ch=1 n=50 v=94
131756 Off ch=1 n=60 v=94
131760 On ch=1 n=50 v=94
131760 On ch=1 n=53 v=94
131876 Off ch=1 n=50 v=94
131880 On ch=1 n=38 v=94
131996 Off ch=1 n=53 v=94
132000 On ch=1 n=55 v=94
132000 On ch=1 n=62 v=94
132116 Off ch=1 n=55 v=94
132116 Off ch=1 n=62 v=94
132120 On ch=1 n=57 v=94
132236 Off ch=1 n=38 v=94
132236 Off ch=1 n=57 v=94
132240 On ch=1 n=50 v=94
132356 Off ch=1 n=50 v=94
132360 On ch=1 n=38 v=94
132600 On ch=1 n=62 v=94
132656 Off ch=1 n=62 v=94
132720 On ch=1 n=65 v=94
132776 Off ch=1 n=65 v=94
132840 On ch=1 n=62 v=94
132896 Off ch=1 n=62 v=94
132956 Off ch=1 n=38 v=94
132960 On ch=1 n=46 v=99
132960 On ch=1 n=69 v=99
132960 On ch=1 n=74 v=99
133076 Off ch=1 n=69 v=99
133076 Off ch=1 n=74 v=99
133080 On ch=1 n=70 v=94
133136 Off ch=1 n=70 v=94
133140 On ch=1 n=69 v=94
133196 Off ch=1 n=69 v=94
133200 On ch=1 n=65 v=94
133316 Off ch=1 n=46 v=99
133316 Off ch=1 n=65 v=94
133320 On ch=1 n=45 v=99
133320 On ch=1 n=67 v=99
133320 On ch=1 n=72 v=99
133556 Off ch=1 n=67 v=99
133556 Off ch=1 n=72 v=99
133560 On ch=1 n=64 v=94
133676 Off ch=1 n=45 v=99
133676 Off ch=1 n=64 v=94
133680 On ch=1 n=67 v=94
133796 Off ch=1 n=67 v=94
133800 On ch=1 n=69 v=94
133916 Off ch=1 n=69 v=94
133920 On ch=1 n=67 v=94
133960 On ch=1 n=69 v=94
133976 Off ch=1 n=67 v=94
134000 On ch=1 n=67 v=94
134016 Off ch=1 n=69 v=94
134040 On ch=1 n=64 v=94
134056 Off ch=1 n=67 v=94
134156 Off ch=1 n=64 v=94
134160 On ch=1 n=62 v=94
134276 Off ch=1 n=62 v=94
134280 On ch=1 n=64 v=94
134396 Off ch=1 n=64 v=94
134400 On ch=1 n=62 v=94
134440 On ch=1 n=64 v=94
134456 Off ch=1 n=62 v=94
134480 On ch=1 n=62 v=94
134496 Off ch=1 n=64 v=94
134520 On ch=1 n=60 v=94
134536 Off ch=1 n=62 v=94
134636 Off ch=1 n=60 v=94
134640 On ch=1 n=57 v=94
134756 Off ch=1 n=57 v=94
134760 On ch=1 n=55 v=94
134876 Off ch=1 n=55 v=94
134880 On ch=1 n=46 v=99
134880 On ch=1 n=69 v=99
134880 On ch=1 n=74 v=99
134996 Off ch=1 n=69 v=99
134996 Off ch=1 n=74 v=99
135000 On ch=1 n=70 v=94
135056 Off ch=1 n=70 v=94
135060 On ch=1 n=69 v=94
135116 Off ch=1 n=69 v=94
135120 On ch=1 n=65 v=94
135236 Off ch=1 n=46 v=99
135236 Off ch=1 n=65 v=94
135240 On ch=1 n=45 v=99
135240 On ch=1 n=67 v=99
135240 On ch=1 n=72 v=99
135476 Off ch=1 n=67 v=99
135476 Off ch=1 n=72 v=99
135480 On ch=1 n=64 v=94
135596 Off ch=1 n=45 v=99
135596 Off ch=1 n=64 v=94
135600 On ch=1 n=67 v=94
135716 Off ch=1 n=67 v=94
135720 On ch=1 n=69 v=94
135836 Off ch=1 n=69 v=94
135840 On ch=1 n=69 v=94
135896 Off ch=1 n=69 v=94
135900 On ch=1 n=67 v=94
135956 Off ch=1 n=67 v=94
135960 On ch=1 n=64 v=94
136076 Off ch=1 n=64 v=94
136080 On ch=1 n=62 v=94
136196 Off ch=1 n=62 v=94
136200 On ch=1 n=64 v=94
136316 Off ch=1 n=64 v=94
136320 On ch=1 n=69 v=94
136376 Off ch=1 n=69 v=94
136380 On ch=1 n=67 v=94
136436 Off ch=1 n=67 v=94
136440 On ch=1 n=64 v=94
136496 Off ch=1 n=64 v=94
136500 On ch=1 n=60 v=94
136556 Off ch=1 n=60 v=94
136560 On ch=1 n=57 v=94
136676 Off ch=1 n=57 v=94
136680 On ch=1 n=55 v=94
136796 Off ch=1 n=55 v=94
136800 On ch=1 n=46 v=99
136800 On ch=1 n=69 v=99
136800 On ch=1 n=74 v=99
136916 Off ch=1 n=69 v=99
136916 Off ch=1 n=74 v=99
136920 On ch=1 n=70 v=94
136976 Off ch=1 n=70 v=94
136980 On ch=1 n=69 v=94
137036 Off ch=1 n=69 v=94
137040 On ch=1 n=65 v=94
137156 Off ch=1 n=46 v=99
137156 Off ch=1 n=65 v=94
137160 On ch=1 n=67 v=99
137160 On ch=1 n=72 v=99
137280 On ch=1 n=45 v=99
137396 Off ch=1 n=67 v=99
137396 Off ch=1 n=72 v=99
137400 On ch=1 n=64 v=94
137516 Off ch=1 n=45 v=99
137516 Off ch=1 n=64 v=94
137520 On ch=1 n=67 v=94
137580 On ch=1 n=69 v=94
137636 Off ch=1 n=69 v=94
137700 On ch=1 n=64 v=94
137756 Off ch=1 n=67 v=94
137756 Off ch=1 n=64 v=94
137760 On ch=1 n=45 v=99
137760 On ch=1 n=65 v=99
137760 On ch=1 n=70 v=99
137876 Off ch=1 n=65 v=99
137876 Off ch=1 n=70 v=99
137880 On ch=1 n=67 v=94
137936 Off ch=1 n=67 v=94
137940 On ch=1 n=65 v=94
137996 Off ch=1 n=45 v=99
137996 Off ch=1 n=65 v=94
138000 On ch=1 n=64 v=94
138116 Off ch=1 n=64 v=94
138120 On ch=1 n=43 v=99
138120 On ch=1 n=64 v=99
138120 On ch=1 n=69 v=99
138476 Off ch=1 n=43 v=99
138476 Off ch=1 n=64 v=99
138476 Off ch=1 n=69 v=99
138480 On ch=1 n=52 v=94
138480 On ch=1 n=64 v=94
138560 On ch=1 n=55 v=94
138560 On ch=1 n=67 v=94
138596 Off ch=1 n=52 v=94
138596 Off ch=1 n=64 v=94
138640 On ch=1 n=58 v=94
138640 On ch=1 n=70 v=94
138676 Off ch=1 n=55 v=94
138676 Off ch=1 n=67 v=94
138720 On ch=1 n=62 v=94
138720 On ch=1 n=74 v=94
138756 Off ch=1 n=58 v=94
138756 Off ch=1 n=70 v=94
138836 Off ch=1 n=62 v=94
138836 Off ch=1 n=74 v=94
138840 On ch=1 n=58 v=94
138840 On ch=1 n=70 v=94
138956 Off ch=1 n=58 v=94
138956 Off ch=1 n=70 v=94
138960 On ch=1 n=55 v=94
138960 On ch=1 n=67 v=94
139076 Off ch=1 n=55 v=94
139076 Off ch=1 n=67 v=94
139080 On ch=1 n=52 v=94
139080 On ch=1 n=64 v=94
139316 Off ch=1 n=52 v=94
139316 Off ch=1 n=64 v=94
139320 On ch=1 n=50 v=94
139320 On ch=1 n=62 v=94
139436 Off ch=1 n=50 v=94
139436 Off ch=1 n=62 v=94
139440 On ch=1 n=46 v=94
139440 On ch=1 n=58 v=94
139676 Off ch=1 n=46 v=94
139676 Off ch=1 n=58 v=94
139680 On ch=1 n=43 v=94
139680 On ch=1 n=55 v=94
139916 Off ch=1 n=43 v=94
139916 Off ch=1 n=55 v=94
139920 On ch=1 n=40 v=94
139920 On ch=1 n=52 v=94
140156 Off ch=1 n=40 v=94
140156 Off ch=1 n=52 v=94
140160 On ch=1 n=33 v=99
140160 On ch=1 n=45 v=94
140160 On ch=1 n=64 v=99
140160 On ch=1 n=61 v=99
140160 On ch=1 n=57 v=99
140516 Off ch=1 n=61 v=99
140516 Off ch=1 n=57 v=99
140520 On ch=1 n=57 v=94
140636 Off ch=1 n=57 v=94
140640 On ch=1 n=55 v=94
140756 Off ch=1 n=55 v=94
140760 On ch=1 n=61 v=94
140876 Off ch=1 n=61 v=94
140880 On ch=1 n=58 v=94
140996 Off ch=1 n=58 v=94
141000 On ch=1 n=55 v=94
141116 Off ch=1 n=55 v=94
141120 On ch=1 n=64 v=94
141236 Off ch=1 n=64 v=94
141240 On ch=1 n=61 v=94
141356 Off ch=1 n=61 v=94
141360 On ch=1 n=58 v=94
141476 Off ch=1 n=58 v=94
141480 On ch=1 n=55 v=94
141596 Off ch=1 n=55 v=94
141600 On ch=1 n=61 v=94
141716 Off ch=1 n=61 v=94
141720 On ch=1 n=58 v=94
141836 Off ch=1 n=58 v=94
141840 On ch=1 n=55 v=94
141956 Off ch=1 n=55 v=94
141960 On ch=1 n=52 v=94
142076 Off ch=1 n=52 v=94
142080 On ch=1 n=61 v=94
142196 Off ch=1 n=61 v=94
142200 On ch=1 n=58 v=94
142316 Off ch=1 n=58 v=94
142320 On ch=1 n=55 v=94
142436 Off ch=1 n=55 v=94
142440 On ch=1 n=52 v=94
142556 Off ch=1 n=52 v=94
142560 On ch=1 n=58 v=94
142676 Off ch=1 n=58 v=94
142680 On ch=1 n=55 v=94
142796 Off ch=1 n=55 v=94
142800 On ch=1 n=61 v=94
142916 Off ch=1 n=61 v=94
142920 On ch=1 n=64 v=94
143036 Off ch=1 n=64 v=94
143040 On ch=1 n=61 v=94
143156 Off ch=1 n=61 v=94
143160 On ch=1 n=58 v=94
143276 Off ch=1 n=58 v=94
143280 On ch=1 n=55 v=94
143396 Off ch=1 n=55 v=94
143400 On ch=1 n=58 v=94
143516 Off ch=1 n=58 v=94
143520 On ch=1 n=55 v=94
143636 Off ch=1 n=55 v=94
143640 On ch=1 n=58 v=94
143756 Off ch=1 n=58 v=94
143760 On ch=1 n=61 v=94
143876 Off ch=1 n=61 v=94
143880 On ch=1 n=55 v=94
143996 Off ch=1 n=55 v=94
144000 On ch=1 n=57 v=94
144056 Off ch=1 n=57 v=94
144060 On ch=1 n=58 v=94
144116 Off ch=1 n=58 v=94
144120 On ch=1 n=57 v=94
144176 Off ch=1 n=57 v=94
144180 On ch=1 n=55 v=94
144236 Off ch=1 n=55 v=94
144240 On ch=1 n=57 v=94
144296 Off ch=1 n=57 v=94
144300 On ch=1 n=58 v=94
144356 Off ch=1 n=58 v=94
144360 On ch=1 n=57 v=94
144416 Off ch=1 n=57 v=94
144420 On ch=1 n=55 v=94
144476 Off ch=1 n=55 v=94
144480 On ch=1 n=57 v=99
145436 Off ch=1 n=33 v=99
145436 Off ch=1 n=45 v=94
145436 Off ch=1 n=64 v=99
145436 Off ch=1 n=57 v=99
351360 Meta TrkEnd
TrkEnd
MTrk
0 Meta TrkName "Bass&Lead"
0 Meta 0x20 01
0 Meta InstrName "Bass&Lead"
0 KeySig 0 major
90 Par ch=2 c=0 v=0
95 Par ch=2 c=32 v=0
100 PrCh ch=2 p=87
105 Par ch=2 c=7 v=100
110 Par ch=2 c=10 v=64
115 Par ch=2 c=91 v=53
120 Par ch=2 c=93 v=0
125 Par ch=2 c=65 v=127
130 Par ch=2 c=101 v=0
130 Par ch=2 c=100 v=0
130 Par ch=2 c=6 v=2
135 Par ch=2 c=99 v=1
135 Par ch=2 c=98 v=8
135 Par ch=2 c=6 v=64
140 Par ch=2 c=99 v=1
140 Par ch=2 c=98 v=9
140 Par ch=2 c=6 v=64
145 Par ch=2 c=99 v=1
145 Par ch=2 c=98 v=10
145 Par ch=2 c=6 v=64
150 Par ch=2 c=99 v=1
150 Par ch=2 c=98 v=32
150 Par ch=2 c=6 v=64
155 Par ch=2 c=99 v=1
155 Par ch=2 c=98 v=33
155 Par ch=2 c=6 v=64
160 Par ch=2 c=99 v=1
160 Par ch=2 c=98 v=99
160 Par ch=2 c=6 v=64
165 Par ch=2 c=99 v=1
165 Par ch=2 c=98 v=100
165 Par ch=2 c=6 v=64
170 Par ch=2 c=99 v=1
170 Par ch=2 c=98 v=102
170 Par ch=2 c=6 v=64
145440 Par ch=2 c=5 v=0
145440 On ch=2 n=38 v=126
145440 On ch=2 n=50 v=99
145490 Par ch=2 c=5 v=10
146400 Off ch=2 n=50 v=99
146400 On ch=2 n=52 v=94
146400 On ch=2 n=40 v=94
146411 Off ch=2 n=38 v=126
146876 Off ch=2 n=52 v=94
146876 Off ch=2 n=40 v=94
146880 On ch=2 n=54 v=94
146880 On ch=2 n=42 v=94
147356 Off ch=2 n=54 v=94
147356 Off ch=2 n=42 v=94
147360 On ch=2 n=55 v=94
147365 On ch=2 n=42 v=94
147591 Off ch=2 n=42 v=94
147596 Off ch=2 n=55 v=94
147600 On ch=2 n=31 v=94
147600 On ch=2 n=43 v=94
147836 Off ch=2 n=31 v=94
147836 Off ch=2 n=43 v=94
147840 On ch=2 n=55 v=94
147840 On ch=2 n=43 v=94
148796 Off ch=2 n=55 v=94
148796 Off ch=2 n=43 v=94
148800 On ch=2 n=54 v=94
148800 On ch=2 n=42 v=94
149276 Off ch=2 n=54 v=94
149276 Off ch=2 n=42 v=94
149280 On ch=2 n=40 v=94
149280 On ch=2 n=52 v=94
150236 Off ch=2 n=40 v=94
150236 Off ch=2 n=52 v=94
150240 On ch=2 n=38 v=94
150240 On ch=2 n=50 v=94
153116 Off ch=2 n=38 v=94
153116 Off ch=2 n=50 v=94
155040 On ch=2 n=50 v=97
155040 On ch=2 n=38 v=124
156000 On ch=2 n=52 v=94
156000 On ch=2 n=40 v=94
156006 Off ch=2 n=50 v=97
156006 Off ch=2 n=38 v=124
156476 Off ch=2 n=52 v=94
156476 Off ch=2 n=40 v=94
156480 On ch=2 n=54 v=94
156480 On ch=2 n=42 v=94
156956 Off ch=2 n=54 v=94
156956 Off ch=2 n=42 v=94
156960 On ch=2 n=42 v=94
156960 On ch=2 n=55 v=94
157196 Off ch=2 n=42 v=94
157196 Off ch=2 n=55 v=94
157200 On ch=2 n=31 v=94
157200 On ch=2 n=43 v=94
157436 Off ch=2 n=31 v=94
157436 Off ch=2 n=43 v=94
157440 On ch=2 n=55 v=94
157440 On ch=2 n=43 v=94
158396 Off ch=2 n=55 v=94
158396 Off ch=2 n=43 v=94
158400 On ch=2 n=54 v=94
158400 On ch=2 n=42 v=94
158876 Off ch=2 n=54 v=94
158876 Off ch=2 n=42 v=94
158880 On ch=2 n=40 v=94
158880 On ch=2 n=52 v=94
159836 Off ch=2 n=40 v=94
159836 Off ch=2 n=52 v=94
159840 On ch=2 n=38 v=94
159840 On ch=2 n=50 v=94
162716 Off ch=2 n=38 v=94
162716 Off ch=2 n=50 v=94
164640 On ch=2 n=38 v=104
164640 On ch=2 n=45 v=104
164640 On ch=2 n=50 v=104
165356 Off ch=2 n=38 v=104
165356 Off ch=2 n=45 v=104
165356 Off ch=2 n=50 v=104
165360 On ch=2 n=38 v=104
165360 On ch=2 n=45 v=104
165596 Off ch=2 n=38 v=104
165596 Off ch=2 n=45 v=104
165600 On ch=2 n=43 v=104
165600 On ch=2 n=47 v=104
165836 Off ch=2 n=43 v=104
165836 Off ch=2 n=47 v=104
165840 On ch=2 n=38 v=104
165840 On ch=2 n=45 v=104
166076 Off ch=2 n=38 v=104
166076 Off ch=2 n=45 v=104
166560 On ch=2 n=38 v=104
166560 On ch=2 n=45 v=104
166560 On ch=2 n=50 v=104
167276 Off ch=2 n=38 v=104
167276 Off ch=2 n=45 v=104
167276 Off ch=2 n=50 v=104
167280 On ch=2 n=38 v=104
167280 On ch=2 n=45 v=104
167516 Off ch=2 n=38 v=104
167516 Off ch=2 n=45 v=104
167520 On ch=2 n=43 v=104
167520 On ch=2 n=47 v=104
167756 Off ch=2 n=43 v=104
167756 Off ch=2 n=47 v=104
167760 On ch=2 n=38 v=104
167760 On ch=2 n=45 v=104
167996 Off ch=2 n=38 v=104
167996 Off ch=2 n=45 v=104
168240 On ch=2 n=38 v=104
168240 On ch=2 n=45 v=104
168356 Off ch=2 n=38 v=104
168356 Off ch=2 n=45 v=104
168360 On ch=2 n=38 v=104
168360 On ch=2 n=45 v=104
168476 Off ch=2 n=38 v=104
168476 Off ch=2 n=45 v=104
168480 On ch=2 n=43 v=104
168480 On ch=2 n=47 v=104
168716 Off ch=2 n=43 v=104
168716 Off ch=2 n=47 v=104
168720 On ch=2 n=38 v=104
168720 On ch=2 n=45 v=104
168956 Off ch=2 n=38 v=104
168956 Off ch=2 n=45 v=104
169200 On ch=2 n=38 v=104
169200 On ch=2 n=45 v=104
169316 Off ch=2 n=38 v=104
169316 Off ch=2 n=45 v=104
169320 On ch=2 n=38 v=104
169320 On ch=2 n=45 v=104
169436 Off ch=2 n=38 v=104
169436 Off ch=2 n=45 v=104
169440 On ch=2 n=43 v=104
169440 On ch=2 n=47 v=104
169676 Off ch=2 n=43 v=104
169676 Off ch=2 n=47 v=104
169680 On ch=2 n=38 v=104
169680 On ch=2 n=45 v=104
169916 Off ch=2 n=38 v=104
169916 Off ch=2 n=45 v=104
170160 On ch=2 n=38 v=104
170160 On ch=2 n=50 v=104
170396 Off ch=2 n=38 v=104
170396 Off ch=2 n=50 v=104
170400 On ch=2 n=43 v=104
170400 On ch=2 n=50 v=104
170876 Off ch=2 n=50 v=104
170880 On ch=2 n=45 v=104
171356 Off ch=2 n=45 v=104
171360 On ch=2 n=38 v=104
171360 On ch=2 n=50 v=104
172316 Off ch=2 n=43 v=104
172316 Off ch=2 n=38 v=104
172316 Off ch=2 n=50 v=104
172320 On ch=2 n=38 v=104
172320 On ch=2 n=45 v=104
172320 On ch=2 n=50 v=104
173036 Off ch=2 n=38 v=104
173036 Off ch=2 n=45 v=104
173036 Off ch=2 n=50 v=104
173040 On ch=2 n=38 v=104
173040 On ch=2 n=45 v=104
173276 Off ch=2 n=38 v=104
173276 Off ch=2 n=45 v=104
173280 On ch=2 n=43 v=104
173280 On ch=2 n=47 v=104
173516 Off ch=2 n=43 v=104
173516 Off ch=2 n=47 v=104
173520 On ch=2 n=38 v=104
173520 On ch=2 n=45 v=104
173756 Off ch=2 n=38 v=104
173756 Off ch=2 n=45 v=104
174240 On ch=2 n=38 v=104
174240 On ch=2 n=45 v=104
174240 On ch=2 n=50 v=104
174956 Off ch=2 n=38 v=104
174956 Off ch=2 n=45 v=104
174956 Off ch=2 n=50 v=104
174960 On ch=2 n=38 v=104
174960 On ch=2 n=45 v=104
175196 Off ch=2 n=38 v=104
175196 Off ch=2 n=45 v=104
175200 On ch=2 n=43 v=104
175200 On ch=2 n=47 v=104
175436 Off ch=2 n=43 v=104
175436 Off ch=2 n=47 v=104
175440 On ch=2 n=38 v=104
175440 On ch=2 n=45 v=104
175676 Off ch=2 n=38 v=104
175676 Off ch=2 n=45 v=104
175920 On ch=2 n=38 v=104
175920 On ch=2 n=45 v=104
176036 Off ch=2 n=38 v=104
176036 Off ch=2 n=45 v=104
176040 On ch=2 n=38 v=104
176040 On ch=2 n=45 v=104
176156 Off ch=2 n=38 v=104
176156 Off ch=2 n=45 v=104
176160 On ch=2 n=43 v=104
176160 On ch=2 n=47 v=104
176396 Off ch=2 n=43 v=104
176396 Off ch=2 n=47 v=104
176400 On ch=2 n=38 v=104
176400 On ch=2 n=45 v=104
176636 Off ch=2 n=38 v=104
176636 Off ch=2 n=45 v=104
176880 On ch=2 n=38 v=104
176880 On ch=2 n=45 v=104
176996 Off ch=2 n=38 v=104
176996 Off ch=2 n=45 v=104
177000 On ch=2 n=38 v=104
177000 On ch=2 n=45 v=104
177116 Off ch=2 n=38 v=104
177116 Off ch=2 n=45 v=104
177120 On ch=2 n=43 v=104
177120 On ch=2 n=47 v=104
177356 Off ch=2 n=43 v=104
177356 Off ch=2 n=47 v=104
177360 On ch=2 n=38 v=104
177360 On ch=2 n=45 v=104
177596 Off ch=2 n=38 v=104
177596 Off ch=2 n=45 v=104
177840 On ch=2 n=38 v=104
177840 On ch=2 n=50 v=104
178076 Off ch=2 n=38 v=104
178076 Off ch=2 n=50 v=104
178080 On ch=2 n=43 v=107
178080 On ch=2 n=50 v=104
178556 Off ch=2 n=50 v=104
178560 Off ch=2 n=43 v=107
178560 On ch=2 n=45 v=104
179036 Off ch=2 n=45 v=104
179040 On ch=2 n=38 v=104
179040 On ch=2 n=50 v=104
179880 Par ch=2 c=5 v=0
179996 Off ch=2 n=38 v=104
179996 Off ch=2 n=50 v=104
180000 On ch=2 n=42 v=90
180960 On ch=2 n=40 v=94
180963 Off ch=2 n=42 v=90
181436 Off ch=2 n=40 v=94
181440 On ch=2 n=42 v=94
181916 Off ch=2 n=42 v=94
181920 On ch=2 n=43 v=94
182156 Off ch=2 n=43 v=94
182160 On ch=2 n=31 v=94
182396 Off ch=2 n=31 v=94
182400 On ch=2 n=43 v=94
183356 Off ch=2 n=43 v=94
183360 On ch=2 n=42 v=94
183836 Off ch=2 n=42 v=94
183840 On ch=2 n=40 v=94
184796 Off ch=2 n=40 v=94
184800 On ch=2 n=38 v=94
185516 Off ch=2 n=38 v=94
185520 On ch=2 n=38 v=104
185520 On ch=2 n=45 v=104
185636 Off ch=2 n=38 v=104
185636 Off ch=2 n=45 v=104
185640 On ch=2 n=38 v=104
185640 On ch=2 n=45 v=104
185756 Off ch=2 n=38 v=104
185756 Off ch=2 n=45 v=104
185760 On ch=2 n=43 v=104
185760 On ch=2 n=47 v=104
185996 Off ch=2 n=43 v=104
185996 Off ch=2 n=47 v=104
186000 On ch=2 n=38 v=104
186000 On ch=2 n=45 v=104
186236 Off ch=2 n=38 v=104
186236 Off ch=2 n=45 v=104
186480 On ch=2 n=38 v=104
186480 On ch=2 n=45 v=104
186596 Off ch=2 n=38 v=104
186596 Off ch=2 n=45 v=104
186600 On ch=2 n=38 v=104
186600 On ch=2 n=45 v=104
186716 Off ch=2 n=38 v=104
186716 Off ch=2 n=45 v=104
186720 On ch=2 n=43 v=104
186720 On ch=2 n=47 v=104
186956 Off ch=2 n=43 v=104
186956 Off ch=2 n=47 v=104
186960 On ch=2 n=38 v=104
186960 On ch=2 n=45 v=104
187196 Off ch=2 n=38 v=104
187196 Off ch=2 n=45 v=104
187440 On ch=2 n=38 v=104
187440 On ch=2 n=45 v=104
187556 Off ch=2 n=38 v=104
187556 Off ch=2 n=45 v=104
187560 On ch=2 n=38 v=104
187560 On ch=2 n=45 v=104
187676 Off ch=2 n=38 v=104
187676 Off ch=2 n=45 v=104
187680 On ch=2 n=43 v=104
187680 On ch=2 n=43 v=94
187680 On ch=2 n=47 v=104
187916 Off ch=2 n=43 v=104
187916 Off ch=2 n=43 v=94
187916 Off ch=2 n=47 v=104
187920 On ch=2 n=38 v=104
187920 On ch=2 n=45 v=104
188156 Off ch=2 n=38 v=104
188156 Off ch=2 n=45 v=104
188400 On ch=2 n=38 v=104
188400 On ch=2 n=45 v=104
188516 Off ch=2 n=38 v=104
188516 Off ch=2 n=45 v=104
188520 On ch=2 n=38 v=104
188520 On ch=2 n=45 v=104
188636 Off ch=2 n=38 v=104
188636 Off ch=2 n=45 v=104
188640 On ch=2 n=43 v=104
188640 On ch=2 n=47 v=104
188876 Off ch=2 n=43 v=104
188876 Off ch=2 n=47 v=104
188880 On ch=2 n=38 v=104
188880 On ch=2 n=45 v=104
189116 Off ch=2 n=38 v=104
189116 Off ch=2 n=45 v=104
189600 On ch=2 n=40 v=97
190558 Off ch=2 n=40 v=97
190560 On ch=2 n=42 v=94
191036 Off ch=2 n=42 v=94
191040 On ch=2 n=44 v=94
191516 Off ch=2 n=44 v=94
191520 On ch=2 n=45 v=94
191756 Off ch=2 n=45 v=94
191760 On ch=2 n=33 v=94
191996 Off ch=2 n=33 v=94
192000 On ch=2 n=45 v=94
192956 Off ch=2 n=45 v=94
192960 On ch=2 n=44 v=94
193436 Off ch=2 n=44 v=94
193440 On ch=2 n=42 v=94
194396 Off ch=2 n=42 v=94
194400 On ch=2 n=40 v=94
195116 Off ch=2 n=40 v=94
195120 On ch=2 n=40 v=104
195120 On ch=2 n=47 v=104
195236 Off ch=2 n=40 v=104
195236 Off ch=2 n=47 v=104
195240 On ch=2 n=40 v=104
195240 On ch=2 n=47 v=104
195356 Off ch=2 n=40 v=104
195356 Off ch=2 n=47 v=104
195360 On ch=2 n=45 v=104
195360 On ch=2 n=49 v=104
195596 Off ch=2 n=45 v=104
195596 Off ch=2 n=49 v=104
195600 On ch=2 n=40 v=104
195600 On ch=2 n=47 v=104
195836 Off ch=2 n=40 v=104
195836 Off ch=2 n=47 v=104
196080 On ch=2 n=40 v=104
196080 On ch=2 n=47 v=104
196196 Off ch=2 n=40 v=104
196196 Off ch=2 n=47 v=104
196200 On ch=2 n=40 v=104
196200 On ch=2 n=47 v=104
196316 Off ch=2 n=40 v=104
196316 Off ch=2 n=47 v=104
196320 On ch=2 n=45 v=104
196320 On ch=2 n=49 v=104
196556 Off ch=2 n=45 v=104
196556 Off ch=2 n=49 v=104
196560 On ch=2 n=40 v=104
196560 On ch=2 n=47 v=104
196796 Off ch=2 n=40 v=104
196796 Off ch=2 n=47 v=104
197040 On ch=2 n=41 v=104
197040 On ch=2 n=48 v=104
197156 Off ch=2 n=41 v=104
197156 Off ch=2 n=48 v=104
197160 On ch=2 n=41 v=104
197160 On ch=2 n=48 v=104
197276 Off ch=2 n=41 v=104
197276 Off ch=2 n=48 v=104
197280 On ch=2 n=46 v=104
197280 On ch=2 n=50 v=104
197516 Off ch=2 n=46 v=104
197516 Off ch=2 n=50 v=104
197520 On ch=2 n=41 v=104
197520 On ch=2 n=48 v=104
197756 Off ch=2 n=41 v=104
197756 Off ch=2 n=48 v=104
198000 On ch=2 n=41 v=104
198000 On ch=2 n=48 v=104
198116 Off ch=2 n=41 v=104
198116 Off ch=2 n=48 v=104
198120 On ch=2 n=41 v=104
198120 On ch=2 n=48 v=104
198236 Off ch=2 n=41 v=104
198236 Off ch=2 n=48 v=104
198240 On ch=2 n=46 v=104
198240 On ch=2 n=50 v=104
198476 Off ch=2 n=46 v=104
198476 Off ch=2 n=50 v=104
198480 On ch=2 n=41 v=104
198480 On ch=2 n=48 v=104
198716 Off ch=2 n=41 v=104
198716 Off ch=2 n=48 v=104
198960 On ch=2 n=43 v=104
198960 On ch=2 n=50 v=104
199076 Off ch=2 n=43 v=104
199076 Off ch=2 n=50 v=104
199080 On ch=2 n=43 v=104
199080 On ch=2 n=50 v=104
199196 Off ch=2 n=43 v=104
199196 Off ch=2 n=50 v=104
199200 On ch=2 n=48 v=104
199200 On ch=2 n=52 v=104
199436 Off ch=2 n=48 v=104
199436 Off ch=2 n=52 v=104
199440 On ch=2 n=43 v=104
199440 On ch=2 n=50 v=104
199676 Off ch=2 n=43 v=104
199676 Off ch=2 n=50 v=104
199920 On ch=2 n=43 v=104
199920 On ch=2 n=47 v=104
200036 Off ch=2 n=43 v=104
200036 Off ch=2 n=47 v=104
200040 On ch=2 n=43 v=104
200040 On ch=2 n=47 v=104
200156 Off ch=2 n=43 v=104
200156 Off ch=2 n=47 v=104
200160 On ch=2 n=48 v=104
200160 On ch=2 n=52 v=104
200396 Off ch=2 n=48 v=104
200396 Off ch=2 n=52 v=104
200400 On ch=2 n=43 v=104
200400 On ch=2 n=50 v=104
200636 Off ch=2 n=43 v=104
200636 Off ch=2 n=50 v=104
200880 On ch=2 n=45 v=104
200880 On ch=2 n=52 v=104
200996 Off ch=2 n=45 v=104
200996 Off ch=2 n=52 v=104
201000 On ch=2 n=45 v=104
201000 On ch=2 n=52 v=104
201116 Off ch=2 n=45 v=104
201116 Off ch=2 n=52 v=104
201120 On ch=2 n=50 v=104
201120 On ch=2 n=54 v=104
201356 Off ch=2 n=50 v=104
201356 Off ch=2 n=54 v=104
201360 On ch=2 n=45 v=104
201360 On ch=2 n=52 v=104
201596 Off ch=2 n=45 v=104
201596 Off ch=2 n=52 v=104
201840 On ch=2 n=45 v=104
201840 On ch=2 n=52 v=104
201956 Off ch=2 n=45 v=104
201956 Off ch=2 n=52 v=104
201960 On ch=2 n=45 v=104
201960 On ch=2 n=52 v=104
202076 Off ch=2 n=45 v=104
202076 Off ch=2 n=52 v=104
202080 On ch=2 n=50 v=104
202080 On ch=2 n=54 v=104
202316 Off ch=2 n=50 v=104
202316 Off ch=2 n=54 v=104
202320 On ch=2 n=45 v=104
202320 On ch=2 n=52 v=104
202556 Off ch=2 n=45 v=104
202556 Off ch=2 n=52 v=104
202800 On ch=2 n=45 v=104
202800 On ch=2 n=52 v=104
202916 Off ch=2 n=45 v=104
202916 Off ch=2 n=52 v=104
202920 On ch=2 n=45 v=104
202920 On ch=2 n=52 v=104
203036 Off ch=2 n=45 v=104
203036 Off ch=2 n=52 v=104
203040 On ch=2 n=50 v=104
203040 On ch=2 n=54 v=104
203276 Off ch=2 n=50 v=104
203276 Off ch=2 n=54 v=104
203280 On ch=2 n=45 v=104
203280 On ch=2 n=52 v=104
203516 Off ch=2 n=45 v=104
203516 Off ch=2 n=52 v=104
203760 On ch=2 n=45 v=104
203760 On ch=2 n=52 v=104
203760 On ch=2 n=57 v=104
203876 Off ch=2 n=45 v=104
203876 Off ch=2 n=52 v=104
203876 Off ch=2 n=57 v=104
203880 On ch=2 n=45 v=104
203880 On ch=2 n=52 v=104
203880 On ch=2 n=57 v=104
203996 Off ch=2 n=45 v=104
203996 Off ch=2 n=52 v=104
203996 Off ch=2 n=57 v=104
204000 On ch=2 n=45 v=104
204000 On ch=2 n=52 v=104
204000 On ch=2 n=57 v=104
204236 Off ch=2 n=45 v=104
204236 Off ch=2 n=52 v=104
204236 Off ch=2 n=57 v=104
204240 On ch=2 n=45 v=104
204240 On ch=2 n=52 v=104
204240 On ch=2 n=57 v=104
204476 Off ch=2 n=45 v=104
204476 Off ch=2 n=52 v=104
204476 Off ch=2 n=57 v=104
204720 On ch=2 n=45 v=104
204720 On ch=2 n=52 v=104
204720 On ch=2 n=57 v=104
204836 Off ch=2 n=45 v=104
204836 Off ch=2 n=52 v=104
204836 Off ch=2 n=57 v=104
204840 On ch=2 n=45 v=104
204840 On ch=2 n=52 v=104
204840 On ch=2 n=57 v=104
204956 Off ch=2 n=45 v=104
204956 Off ch=2 n=52 v=104
204956 Off ch=2 n=57 v=104
204960 On ch=2 n=45 v=104
204960 On ch=2 n=52 v=104
204960 On ch=2 n=57 v=104
205196 Off ch=2 n=45 v=104
205196 Off ch=2 n=52 v=104
205196 Off ch=2 n=57 v=104
205200 On ch=2 n=45 v=104
205200 On ch=2 n=52 v=104
205200 On ch=2 n=57 v=104
205436 Off ch=2 n=45 v=104
205436 Off ch=2 n=52 v=104
205436 Off ch=2 n=57 v=104
205680 On ch=2 n=45 v=104
205680 On ch=2 n=52 v=104
205680 On ch=2 n=57 v=104
205796 Off ch=2 n=45 v=104
205796 Off ch=2 n=52 v=104
205796 Off ch=2 n=57 v=104
205800 On ch=2 n=45 v=104
205800 On ch=2 n=52 v=104
205800 On ch=2 n=57 v=104
205916 Off ch=2 n=45 v=104
205916 Off ch=2 n=52 v=104
205916 Off ch=2 n=57 v=104
205920 On ch=2 n=45 v=104
205920 On ch=2 n=52 v=104
205920 On ch=2 n=57 v=104
206156 Off ch=2 n=45 v=104
206156 Off ch=2 n=52 v=104
206156 Off ch=2 n=57 v=104
206160 On ch=2 n=45 v=104
206160 On ch=2 n=52 v=104
206160 On ch=2 n=57 v=104
206396 Off ch=2 n=45 v=104
206396 Off ch=2 n=52 v=104
206396 Off ch=2 n=57 v=104
206640 On ch=2 n=45 v=104
206640 On ch=2 n=52 v=104
206640 On ch=2 n=57 v=104
206756 Off ch=2 n=45 v=104
206756 Off ch=2 n=52 v=104
206756 Off ch=2 n=57 v=104
206760 On ch=2 n=45 v=104
206760 On ch=2 n=52 v=104
206760 On ch=2 n=57 v=104
206876 Off ch=2 n=45 v=104
206876 Off ch=2 n=52 v=104
206876 Off ch=2 n=57 v=104
206880 On ch=2 n=45 v=104
206880 On ch=2 n=52 v=104
206880 On ch=2 n=57 v=104
207116 Off ch=2 n=45 v=104
207116 Off ch=2 n=52 v=104
207116 Off ch=2 n=57 v=104
207120 On ch=2 n=45 v=104
207120 On ch=2 n=52 v=104
207120 On ch=2 n=57 v=104
207356 Off ch=2 n=45 v=104
207356 Off ch=2 n=52 v=104
207356 Off ch=2 n=57 v=104
207600 On ch=2 n=45 v=104
207600 On ch=2 n=52 v=104
207600 On ch=2 n=57 v=104
207716 Off ch=2 n=45 v=104
207716 Off ch=2 n=52 v=104
207716 Off ch=2 n=57 v=104
207720 On ch=2 n=45 v=104
207720 On ch=2 n=52 v=104
207720 On ch=2 n=57 v=104
207836 Off ch=2 n=45 v=104
207836 Off ch=2 n=52 v=104
207836 Off ch=2 n=57 v=104
207840 On ch=2 n=45 v=104
207840 On ch=2 n=52 v=104
207840 On ch=2 n=57 v=104
208076 Off ch=2 n=45 v=104
208076 Off ch=2 n=52 v=104
208076 Off ch=2 n=57 v=104
208080 On ch=2 n=45 v=104
208080 On ch=2 n=52 v=104
208080 On ch=2 n=57 v=104
208796 Off ch=2 n=45 v=104
208796 Off ch=2 n=52 v=104
208796 Off ch=2 n=57 v=104
208800 On ch=2 n=38 v=104
208800 On ch=2 n=45 v=104
208800 On ch=2 n=50 v=104
209516 Off ch=2 n=38 v=104
209516 Off ch=2 n=45 v=104
209516 Off ch=2 n=50 v=104
209520 On ch=2 n=38 v=104
209520 On ch=2 n=45 v=104
209756 Off ch=2 n=38 v=104
209756 Off ch=2 n=45 v=104
209760 On ch=2 n=43 v=104
209760 On ch=2 n=47 v=104
209996 Off ch=2 n=43 v=104
209996 Off ch=2 n=47 v=104
210000 On ch=2 n=38 v=104
210000 On ch=2 n=45 v=104
210236 Off ch=2 n=38 v=104
210236 Off ch=2 n=45 v=104
210720 On ch=2 n=38 v=104
210720 On ch=2 n=45 v=104
210720 On ch=2 n=50 v=104
211436 Off ch=2 n=38 v=104
211436 Off ch=2 n=45 v=104
211436 Off ch=2 n=50 v=104
211440 On ch=2 n=38 v=104
211440 On ch=2 n=45 v=104
211676 Off ch=2 n=38 v=104
211676 Off ch=2 n=45 v=104
211680 On ch=2 n=43 v=104
211680 On ch=2 n=47 v=104
211916 Off ch=2 n=43 v=104
211916 Off ch=2 n=47 v=104
211920 On ch=2 n=38 v=104
211920 On ch=2 n=45 v=104
212156 Off ch=2 n=38 v=104
212156 Off ch=2 n=45 v=104
212400 On ch=2 n=38 v=104
212400 On ch=2 n=45 v=104
212516 Off ch=2 n=38 v=104
212516 Off ch=2 n=45 v=104
212520 On ch=2 n=38 v=104
212520 On ch=2 n=45 v=104
212636 Off ch=2 n=38 v=104
212636 Off ch=2 n=45 v=104
212640 On ch=2 n=43 v=104
212640 On ch=2 n=47 v=104
212876 Off ch=2 n=43 v=104
212876 Off ch=2 n=47 v=104
212880 On ch=2 n=38 v=104
212880 On ch=2 n=45 v=104
213116 Off ch=2 n=38 v=104
213116 Off ch=2 n=45 v=104
213360 On ch=2 n=38 v=104
213360 On ch=2 n=45 v=104
213476 Off ch=2 n=38 v=104
213476 Off ch=2 n=45 v=104
213480 On ch=2 n=38 v=104
213480 On ch=2 n=45 v=104
213596 Off ch=2 n=38 v=104
213596 Off ch=2 n=45 v=104
213600 On ch=2 n=43 v=104
213600 On ch=2 n=47 v=104
213836 Off ch=2 n=43 v=104
213836 Off ch=2 n=47 v=104
213840 On ch=2 n=38 v=104
213840 On ch=2 n=45 v=104
214076 Off ch=2 n=38 v=104
214076 Off ch=2 n=45 v=104
214320 On ch=2 n=38 v=104
214320 On ch=2 n=50 v=104
214556 Off ch=2 n=38 v=104
214556 Off ch=2 n=50 v=104
214560 On ch=2 n=43 v=102
214560 On ch=2 n=50 v=104
215036 Off ch=2 n=50 v=104
215040 On ch=2 n=50 v=104
215040 On ch=2 n=43 v=104
215506 Off ch=2 n=43 v=102
215516 Off ch=2 n=50 v=104
215516 Off ch=2 n=43 v=104
215520 On ch=2 n=45 v=98
215996 Off ch=2 n=45 v=98
216000 On ch=2 n=33 v=108
216000 On ch=2 n=45 v=96
216476 Off ch=2 n=33 v=108
216476 Off ch=2 n=45 v=96
216480 On ch=2 n=38 v=90
216480 On ch=2 n=50 v=84
217914 Off ch=2 n=38 v=90
217916 Off ch=2 n=50 v=84
217920 On ch=2 n=50 v=84
218036 Off ch=2 n=50 v=84
218040 On ch=2 n=46 v=84
218156 Off ch=2 n=46 v=84
218160 On ch=2 n=45 v=84
218396 Off ch=2 n=45 v=84
218400 On ch=2 n=43 v=84
219836 Off ch=2 n=43 v=84
219840 On ch=2 n=43 v=84
220076 Off ch=2 n=43 v=84
220080 On ch=2 n=45 v=84
220316 Off ch=2 n=45 v=84
220320 On ch=2 n=46 v=84
221756 Off ch=2 n=46 v=84
221760 On ch=2 n=46 v=84
221876 Off ch=2 n=46 v=84
221880 On ch=2 n=48 v=84
221996 Off ch=2 n=48 v=84
222000 On ch=2 n=46 v=84
222236 Off ch=2 n=46 v=84
222240 On ch=2 n=45 v=84
223196 Off ch=2 n=45 v=84
223200 On ch=2 n=45 v=84
224156 Off ch=2 n=45 v=84
224160 On ch=2 n=50 v=100
224870 Off ch=2 n=50 v=100
224880 On ch=2 n=50 v=84
225116 Off ch=2 n=50 v=84
225120 On ch=2 n=48 v=84
225836 Off ch=2 n=48 v=84
225840 On ch=2 n=48 v=84
226076 Off ch=2 n=48 v=84
226080 On ch=2 n=46 v=84
227516 Off ch=2 n=46 v=84
227520 On ch=2 n=46 v=84
227636 Off ch=2 n=46 v=84
227640 On ch=2 n=45 v=84
227756 Off ch=2 n=45 v=84
227760 On ch=2 n=43 v=84
227996 Off ch=2 n=43 v=84
228000 On ch=2 n=45 v=84
229676 Off ch=2 n=45 v=84
229680 On ch=2 n=45 v=84
229916 Off ch=2 n=45 v=84
229920 On ch=2 n=45 v=84
231720 Par ch=2 c=5 v=64
231836 Off ch=2 n=45 v=109
231838 Par ch=2 c=10 v=0
231845 On ch=2 n=82 v=123
232090 Par ch=2 c=10 v=1
232138 Par ch=2 c=10 v=4
232155 Par ch=2 c=10 v=7
232172 Par ch=2 c=10 v=9
232189 Par ch=2 c=10 v=11
232204 Par ch=2 c=10 v=13
232221 Par ch=2 c=10 v=15
232237 Par ch=2 c=10 v=17
232254 Par ch=2 c=10 v=19
232271 Par ch=2 c=10 v=21
232288 Par ch=2 c=10 v=23
232303 Par ch=2 c=10 v=24
232320 Par ch=2 c=10 v=26
232337 Par ch=2 c=10 v=27
232371 Par ch=2 c=10 v=30
232402 Par ch=2 c=10 v=32
232419 Par ch=2 c=10 v=34
232436 Par ch=2 c=10 v=35
232453 Par ch=2 c=10 v=37
232469 Par ch=2 c=10 v=39
232485 Par ch=2 c=10 v=40
232502 Par ch=2 c=10 v=42
232519 Par ch=2 c=10 v=43
232536 Par ch=2 c=10 v=45
232569 Par ch=2 c=10 v=48
232618 Par ch=2 c=10 v=51
232668 Par ch=2 c=10 v=54
232718 Par ch=2 c=10 v=58
232734 Par ch=2 c=10 v=59
232750 Par ch=2 c=10 v=61
232766 Par ch=2 c=10 v=63
232783 Par ch=2 c=10 v=65
232800 Par ch=2 c=10 v=67
232817 Par ch=2 c=10 v=70
232833 Par ch=2 c=10 v=73
232850 Par ch=2 c=10 v=75
232866 Par ch=2 c=10 v=78
232882 Par ch=2 c=10 v=81
232899 Par ch=2 c=10 v=84
232915 Par ch=2 c=10 v=87
232932 Par ch=2 c=10 v=89
232949 Par ch=2 c=10 v=91
232965 Par ch=2 c=10 v=94
232981 Par ch=2 c=10 v=96
232998 Par ch=2 c=10 v=98
233015 Par ch=2 c=10 v=100
233031 Par ch=2 c=10 v=102
233048 Par ch=2 c=10 v=104
233064 Par ch=2 c=10 v=106
233080 Par ch=2 c=10 v=108
233097 Par ch=2 c=10 v=110
233114 Par ch=2 c=10 v=112
233131 Par ch=2 c=10 v=114
233148 Par ch=2 c=10 v=116
233163 Par ch=2 c=10 v=118
233180 Par ch=2 c=10 v=120
233197 Par ch=2 c=10 v=122
233214 Par ch=2 c=10 v=123
233231 Par ch=2 c=10 v=125
234840 Par ch=2 c=5 v=15
234952 Off ch=2 n=82 v=123
234960 On ch=2 n=84 v=109
235436 Off ch=2 n=84 v=109
235440 On ch=2 n=82 v=109
235676 Off ch=2 n=82 v=109
235680 On ch=2 n=81 v=121
237430 Par ch=2 c=10 v=122
237446 Par ch=2 c=10 v=117
237462 Par ch=2 c=10 v=111
237479 Par ch=2 c=10 v=104
237496 Par ch=2 c=10 v=96
237512 Par ch=2 c=10 v=85
237529 Par ch=2 c=10 v=75
237545 Par ch=2 c=10 v=63
237562 Par ch=2 c=10 v=50
237578 Par ch=2 c=10 v=35
237594 Par ch=2 c=10 v=18
237596 Off ch=2 n=81 v=121
237600 On ch=2 n=45 v=121
237611 Par ch=2 c=10 v=1
239400 Par ch=2 c=5 v=64
239516 Off ch=2 n=45 v=121
239520 On ch=2 n=82 v=123
239645 Par ch=2 c=10 v=3
239661 Par ch=2 c=10 v=6
239678 Par ch=2 c=10 v=8
239695 Par ch=2 c=10 v=10
239712 Par ch=2 c=10 v=13
239729 Par ch=2 c=10 v=15
239744 Par ch=2 c=10 v=18
239761 Par ch=2 c=10 v=20
239777 Par ch=2 c=10 v=23
239794 Par ch=2 c=10 v=24
239828 Par ch=2 c=10 v=27
239877 Par ch=2 c=10 v=30
239894 Par ch=2 c=10 v=31
239925 Par ch=2 c=10 v=34
239959 Par ch=2 c=10 v=36
239976 Par ch=2 c=10 v=38
240025 Par ch=2 c=10 v=41
240041 Par ch=2 c=10 v=42
240058 Par ch=2 c=10 v=44
240075 Par ch=2 c=10 v=46
240092 Par ch=2 c=10 v=47
240108 Par ch=2 c=10 v=49
240124 Par ch=2 c=10 v=50
240141 Par ch=2 c=10 v=52
240158 Par ch=2 c=10 v=54
240174 Par ch=2 c=10 v=56
240190 Par ch=2 c=10 v=58
240206 Par ch=2 c=10 v=60
240243 Par ch=2 c=10 v=61
240243 Par ch=2 c=10 v=63
240257 Par ch=2 c=10 v=65
240273 Par ch=2 c=10 v=67
240290 Par ch=2 c=10 v=69
240306 Par ch=2 c=10 v=71
240323 Par ch=2 c=10 v=73
240340 Par ch=2 c=10 v=75
240357 Par ch=2 c=10 v=76
240373 Par ch=2 c=10 v=78
240390 Par ch=2 c=10 v=80
240406 Par ch=2 c=10 v=81
240423 Par ch=2 c=10 v=83
240438 Par ch=2 c=10 v=85
240455 Par ch=2 c=10 v=86
240472 Par ch=2 c=10 v=88
240489 Par ch=2 c=10 v=90
240505 Par ch=2 c=10 v=91
240555 Par ch=2 c=10 v=94
240604 Par ch=2 c=10 v=98
240671 Par ch=2 c=10 v=100
240720 Par ch=2 c=10 v=103
240770 Par ch=2 c=10 v=107
240785 Par ch=2 c=10 v=108
240802 Par ch=2 c=10 v=110
240819 Par ch=2 c=10 v=112
240853 Par ch=2 c=10 v=114
240869 Par ch=2 c=10 v=116
240884 Par ch=2 c=10 v=117
240901 Par ch=2 c=10 v=119
240984 Par ch=2 c=10 v=121
241035 Par ch=2 c=10 v=125
241118 Par ch=2 c=10 v=127
242520 Par ch=2 c=5 v=15
242632 Off ch=2 n=82 v=123
242640 On ch=2 n=84 v=109
243116 Off ch=2 n=84 v=109
243120 On ch=2 n=82 v=109
243356 Off ch=2 n=82 v=109
243360 On ch=2 n=81 v=109
245250 Par ch=2 c=10 v=124
245267 Par ch=2 c=10 v=118
245276 Off ch=2 n=81 v=109
245280 On ch=2 n=45 v=109
245283 Par ch=2 c=10 v=111
245300 Par ch=2 c=10 v=102
245316 Par ch=2 c=10 v=92
245333 Par ch=2 c=10 v=79
245350 Par ch=2 c=10 v=64
245366 Par ch=2 c=10 v=43
245382 Par ch=2 c=10 v=13
245398 Par ch=2 c=10 v=0
247080 Par ch=2 c=5 v=0
247196 Off ch=2 n=45 v=84
247200 Par ch=2 c=10 v=64
247200 On ch=2 n=50 v=84
248156 Off ch=2 n=50 v=84
248160 On ch=2 n=48 v=85
249116 Off ch=2 n=48 v=85
249120 On ch=2 n=46 v=86
251036 Off ch=2 n=46 v=86
251040 On ch=2 n=50 v=90
251996 Off ch=2 n=50 v=90
252000 On ch=2 n=52 v=92
252956 Off ch=2 n=52 v=92
252965 On ch=2 n=54 v=94
254160 On ch=2 n=49 v=94
254161 Off ch=2 n=54 v=94
254400 On ch=2 n=46 v=94
254409 Off ch=2 n=49 v=94
254636 Off ch=2 n=46 v=94
254640 On ch=2 n=42 v=94
254876 Off ch=2 n=42 v=94
254880 On ch=2 n=47 v=97
255841 Off ch=2 n=47 v=97
255843 On ch=2 n=45 v=98
256800 On ch=2 n=43 v=94
256812 Off ch=2 n=45 v=98
258236 Off ch=2 n=43 v=94
258240 On ch=2 n=43 v=94
258476 Off ch=2 n=43 v=94
258480 On ch=2 n=44 v=94
258716 Off ch=2 n=44 v=94
258720 On ch=2 n=45 v=90
260636 Off ch=2 n=45 v=90
260640 On ch=2 n=45 v=88
262556 Off ch=2 n=45 v=88
262560 On ch=2 n=62 v=91
262660 On ch=2 n=60 v=83
262696 Off ch=2 n=62 v=91
262781 On ch=2 n=62 v=87
262811 Off ch=2 n=60 v=83
269956 Off ch=2 n=62 v=87
270120 Par ch=2 c=5 v=12
270120 Par ch=2 c=5 v=12
270120 On ch=2 n=50 v=2
270143 Off ch=2 n=50 v=2
270240 On ch=2 n=62 v=84
270356 Off ch=2 n=62 v=84
270360 On ch=2 n=77 v=84
270476 Off ch=2 n=77 v=84
270480 On ch=2 n=76 v=84
270596 Off ch=2 n=76 v=84
270600 On ch=2 n=72 v=84
270716 Off ch=2 n=72 v=84
270720 On ch=2 n=74 v=84
270896 Off ch=2 n=74 v=84
270900 On ch=2 n=69 v=84
271196 Off ch=2 n=69 v=84
271200 On ch=2 n=65 v=84
271316 Off ch=2 n=65 v=84
271320 On ch=2 n=77 v=84
271436 Off ch=2 n=77 v=84
271440 On ch=2 n=76 v=84
271556 Off ch=2 n=76 v=84
271560 On ch=2 n=71 v=84
271676 Off ch=2 n=71 v=84
271680 On ch=2 n=74 v=84
271856 Off ch=2 n=74 v=84
271860 On ch=2 n=67 v=84
272156 Off ch=2 n=67 v=84
272160 On ch=2 n=65 v=84
272276 Off ch=2 n=65 v=84
272280 On ch=2 n=77 v=84
272396 Off ch=2 n=77 v=84
272400 On ch=2 n=76 v=84
272516 Off ch=2 n=76 v=84
272520 On ch=2 n=72 v=84
272636 Off ch=2 n=72 v=84
272640 On ch=2 n=74 v=84
272756 Off ch=2 n=74 v=84
272760 On ch=2 n=65 v=84
272996 Off ch=2 n=65 v=84
273000 On ch=2 n=72 v=84
273116 Off ch=2 n=72 v=84
273120 On ch=2 n=64 v=84
273356 Off ch=2 n=64 v=84
273360 On ch=2 n=71 v=84
273476 Off ch=2 n=71 v=84
273480 On ch=2 n=62 v=84
273716 Off ch=2 n=62 v=84
273720 On ch=2 n=69 v=84
273836 Off ch=2 n=69 v=84
273840 On ch=2 n=60 v=84
274076 Off ch=2 n=60 v=84
274080 On ch=2 n=62 v=84
274196 Off ch=2 n=62 v=84
274200 On ch=2 n=77 v=84
274316 Off ch=2 n=77 v=84
274320 On ch=2 n=76 v=84
274436 Off ch=2 n=76 v=84
274440 On ch=2 n=72 v=84
274556 Off ch=2 n=72 v=84
274560 On ch=2 n=74 v=84
274736 Off ch=2 n=74 v=84
274740 On ch=2 n=69 v=84
275036 Off ch=2 n=69 v=84
275040 On ch=2 n=65 v=84
275156 Off ch=2 n=65 v=84
275160 On ch=2 n=77 v=84
275276 Off ch=2 n=77 v=84
275280 On ch=2 n=76 v=84
275396 Off ch=2 n=76 v=84
275400 On ch=2 n=71 v=84
275516 Off ch=2 n=71 v=84
275520 On ch=2 n=74 v=84
275696 Off ch=2 n=74 v=84
275700 On ch=2 n=67 v=84
275996 Off ch=2 n=67 v=84
276000 On ch=2 n=62 v=84
276116 Off ch=2 n=62 v=84
276120 On ch=2 n=77 v=84
276236 Off ch=2 n=77 v=84
276240 On ch=2 n=76 v=84
276356 Off ch=2 n=76 v=84
276360 On ch=2 n=72 v=84
276476 Off ch=2 n=72 v=84
276480 On ch=2 n=74 v=84
276596 Off ch=2 n=74 v=84
276600 On ch=2 n=65 v=84
276836 Off ch=2 n=65 v=84
276840 On ch=2 n=72 v=84
276956 Off ch=2 n=72 v=84
276960 On ch=2 n=64 v=84
277196 Off ch=2 n=64 v=84
277200 On ch=2 n=71 v=84
277316 Off ch=2 n=71 v=84
277320 On ch=2 n=62 v=84
277556 Off ch=2 n=62 v=84
277560 On ch=2 n=69 v=84
277676 Off ch=2 n=69 v=84
277680 On ch=2 n=59 v=84
278036 Off ch=2 n=59 v=84
278040 On ch=2 n=81 v=84
278156 Off ch=2 n=81 v=84
278160 On ch=2 n=79 v=84
278276 Off ch=2 n=79 v=84
278280 On ch=2 n=76 v=84
278396 Off ch=2 n=76 v=84
278400 On ch=2 n=77 v=84
278576 Off ch=2 n=77 v=84
278580 On ch=2 n=74 v=84
278876 Off ch=2 n=74 v=84
278880 On ch=2 n=57 v=84
278996 Off ch=2 n=57 v=84
279000 On ch=2 n=81 v=84
279116 Off ch=2 n=81 v=84
279120 On ch=2 n=79 v=84
279236 Off ch=2 n=79 v=84
279240 On ch=2 n=76 v=84
279356 Off ch=2 n=76 v=84
279360 On ch=2 n=77 v=84
279536 Off ch=2 n=77 v=84
279540 On ch=2 n=72 v=84
279836 Off ch=2 n=72 v=84
279840 On ch=2 n=55 v=84
279956 Off ch=2 n=55 v=84
279960 On ch=2 n=81 v=84
280076 Off ch=2 n=81 v=84
280080 On ch=2 n=79 v=84
280196 Off ch=2 n=79 v=84
280200 On ch=2 n=76 v=84
280316 Off ch=2 n=76 v=84
280320 On ch=2 n=77 v=84
280436 Off ch=2 n=77 v=84
280440 On ch=2 n=74 v=84
280676 Off ch=2 n=74 v=84
280680 On ch=2 n=76 v=84
280796 Off ch=2 n=76 v=84
280800 On ch=2 n=72 v=84
281036 Off ch=2 n=72 v=84
281040 On ch=2 n=74 v=84
281156 Off ch=2 n=74 v=84
281160 On ch=2 n=71 v=84
281396 Off ch=2 n=71 v=84
281400 On ch=2 n=72 v=84
281516 Off ch=2 n=72 v=84
281520 On ch=2 n=69 v=84
281756 Off ch=2 n=69 v=84
281760 On ch=2 n=64 v=84
281876 Off ch=2 n=64 v=84
281880 On ch=2 n=84 v=84
281996 Off ch=2 n=84 v=84
282000 On ch=2 n=83 v=84
282116 Off ch=2 n=83 v=84
282120 On ch=2 n=79 v=84
282236 Off ch=2 n=79 v=84
282240 On ch=2 n=81 v=84
282356 Off ch=2 n=81 v=84
282360 On ch=2 n=76 v=84
282716 Off ch=2 n=76 v=84
282720 On ch=2 n=84 v=84
282836 Off ch=2 n=84 v=84
282840 On ch=2 n=83 v=84
282956 Off ch=2 n=83 v=84
282960 On ch=2 n=79 v=84
283076 Off ch=2 n=79 v=84
283080 On ch=2 n=81 v=84
283196 Off ch=2 n=81 v=84
283200 On ch=2 n=74 v=84
283556 Off ch=2 n=74 v=84
283560 On ch=2 n=84 v=84
283676 Off ch=2 n=84 v=84
283680 On ch=2 n=83 v=84
283796 Off ch=2 n=83 v=84
283800 On ch=2 n=79 v=84
283916 Off ch=2 n=79 v=84
283920 On ch=2 n=81 v=84
284036 Off ch=2 n=81 v=84
284040 On ch=2 n=77 v=84
284396 Off ch=2 n=77 v=84
284400 On ch=2 n=79 v=84
284516 Off ch=2 n=79 v=84
284520 On ch=2 n=76 v=84
284756 Off ch=2 n=76 v=84
284760 On ch=2 n=77 v=84
284876 Off ch=2 n=77 v=84
284880 On ch=2 n=74 v=84
285236 Off ch=2 n=74 v=84
285240 On ch=2 n=76 v=84
285356 Off ch=2 n=76 v=84
285360 On ch=2 n=72 v=84
285596 Off ch=2 n=72 v=84
285600 On ch=2 n=74 v=84
285716 Off ch=2 n=74 v=84
285720 On ch=2 n=57 v=84
285956 Off ch=2 n=57 v=84
285960 On ch=2 n=81 v=84
286316 Off ch=2 n=81 v=84
286500 On ch=2 n=74 v=84
286560 On ch=2 n=76 v=84
286616 Off ch=2 n=74 v=84
286650 Off ch=2 n=76 v=84
286654 On ch=2 n=72 v=84
286744 Off ch=2 n=72 v=84
286752 On ch=2 n=75 v=84
286842 Off ch=2 n=75 v=84
286846 On ch=2 n=74 v=84
286936 Off ch=2 n=74 v=84
286944 On ch=2 n=73 v=84
287034 Off ch=2 n=73 v=84
287040 On ch=2 n=74 v=84
287156 Off ch=2 n=74 v=84
287160 On ch=2 n=73 v=84
287276 Off ch=2 n=73 v=84
287280 On ch=2 n=74 v=84
287396 Off ch=2 n=74 v=84
287400 On ch=2 n=76 v=84
287516 Off ch=2 n=76 v=84
287520 On ch=2 n=77 v=84
287636 Off ch=2 n=77 v=84
287640 On ch=2 n=79 v=84
287756 Off ch=2 n=79 v=84
287760 On ch=2 n=81 v=84
287876 Off ch=2 n=81 v=84
287880 On ch=2 n=79 v=84
287996 Off ch=2 n=79 v=84
288000 On ch=2 n=77 v=84
288116 Off ch=2 n=77 v=84
288120 On ch=2 n=76 v=84
288236 Off ch=2 n=76 v=84
288240 On ch=2 n=77 v=84
288356 Off ch=2 n=77 v=84
288360 On ch=2 n=76 v=84
288476 Off ch=2 n=76 v=84
288480 On ch=2 n=74 v=84
288596 Off ch=2 n=74 v=84
288600 On ch=2 n=76 v=84
288716 Off ch=2 n=76 v=84
288720 On ch=2 n=77 v=84
288836 Off ch=2 n=77 v=84
288840 On ch=2 n=81 v=84
288956 Off ch=2 n=81 v=84
288960 On ch=2 n=79 v=84
289076 Off ch=2 n=79 v=84
289080 On ch=2 n=76 v=84
289196 Off ch=2 n=76 v=84
289200 On ch=2 n=77 v=84
289316 Off ch=2 n=77 v=84
289320 On ch=2 n=76 v=84
289436 Off ch=2 n=76 v=84
289440 On ch=2 n=74 v=84
289556 Off ch=2 n=74 v=84
289560 On ch=2 n=76 v=84
289676 Off ch=2 n=76 v=84
289680 On ch=2 n=74 v=84
290276 Off ch=2 n=74 v=84
290280 On ch=2 n=76 v=84
290396 Off ch=2 n=76 v=84
290400 On ch=2 n=77 v=84
290516 Off ch=2 n=77 v=84
290520 On ch=2 n=79 v=84
290636 Off ch=2 n=79 v=84
290640 On ch=2 n=81 v=84
290876 Off ch=2 n=81 v=84
290880 On ch=2 n=79 v=84
290996 Off ch=2 n=79 v=84
291000 On ch=2 n=77 v=84
291116 Off ch=2 n=77 v=84
291120 On ch=2 n=79 v=84
291356 Off ch=2 n=79 v=84
291360 On ch=2 n=77 v=84
291476 Off ch=2 n=77 v=84
291480 On ch=2 n=76 v=84
291596 Off ch=2 n=76 v=84
291600 On ch=2 n=77 v=84
291836 Off ch=2 n=77 v=84
291840 On ch=2 n=76 v=84
291956 Off ch=2 n=76 v=84
291960 On ch=2 n=74 v=84
292076 Off ch=2 n=74 v=84
292080 On ch=2 n=76 v=84
292316 Off ch=2 n=76 v=84
292320 On ch=2 n=74 v=84
292436 Off ch=2 n=74 v=84
292440 On ch=2 n=76 v=84
292556 Off ch=2 n=76 v=84
292560 On ch=2 n=79 v=84
292796 Off ch=2 n=79 v=84
292800 On ch=2 n=77 v=84
292916 Off ch=2 n=77 v=84
292920 On ch=2 n=76 v=84
293036 Off ch=2 n=76 v=84
293040 On ch=2 n=77 v=84
293276 Off ch=2 n=77 v=84
293280 On ch=2 n=76 v=84
293396 Off ch=2 n=76 v=84
293400 On ch=2 n=74 v=84
293516 Off ch=2 n=74 v=84
293520 On ch=2 n=73 v=84
293636 Off ch=2 n=73 v=84
293640 On ch=2 n=67 v=84
293756 Off ch=2 n=67 v=84
293760 On ch=2 n=70 v=84
293876 Off ch=2 n=70 v=84
293880 On ch=2 n=73 v=84
293996 Off ch=2 n=73 v=84
294000 On ch=2 n=76 v=84
294116 Off ch=2 n=76 v=84
294120 On ch=2 n=73 v=84
294236 Off ch=2 n=73 v=84
294240 On ch=2 n=70 v=84
294356 Off ch=2 n=70 v=84
294360 On ch=2 n=67 v=84
294476 Off ch=2 n=67 v=84
294480 On ch=2 n=74 v=84
294716 Off ch=2 n=74 v=84
294720 On ch=2 n=69 v=84
294836 Off ch=2 n=69 v=84
294840 On ch=2 n=70 v=84
294956 Off ch=2 n=70 v=84
294960 On ch=2 n=69 v=84
295076 Off ch=2 n=69 v=84
295080 On ch=2 n=67 v=84
295196 Off ch=2 n=67 v=84
295200 On ch=2 n=64 v=84
295316 Off ch=2 n=64 v=84
295320 On ch=2 n=62 v=84
295376 Off ch=2 n=62 v=84
295380 On ch=2 n=64 v=84
295436 Off ch=2 n=64 v=84
295440 On ch=2 n=65 v=84
295556 Off ch=2 n=65 v=84
295560 On ch=2 n=69 v=84
295676 Off ch=2 n=69 v=84
295680 On ch=2 n=64 v=84
295796 Off ch=2 n=64 v=84
295800 On ch=2 n=69 v=84
295916 Off ch=2 n=69 v=84
295920 On ch=2 n=62 v=84
296036 Off ch=2 n=62 v=84
296040 On ch=2 n=69 v=84
296156 Off ch=2 n=69 v=84
296160 On ch=2 n=61 v=84
296276 Off ch=2 n=61 v=84
296280 On ch=2 n=69 v=84
296396 Off ch=2 n=69 v=84
296400 On ch=2 n=62 v=84
296516 Off ch=2 n=62 v=84
296520 On ch=2 n=69 v=84
296636 Off ch=2 n=69 v=84
296640 On ch=2 n=64 v=84
296756 Off ch=2 n=64 v=84
296760 On ch=2 n=62 v=84
296876 Off ch=2 n=62 v=84
296880 On ch=2 n=65 v=84
296996 Off ch=2 n=65 v=84
297000 On ch=2 n=62 v=84
297116 Off ch=2 n=62 v=84
297120 On ch=2 n=64 v=84
297236 Off ch=2 n=64 v=84
297240 On ch=2 n=65 v=84
297356 Off ch=2 n=65 v=84
297360 On ch=2 n=69 v=84
297956 Off ch=2 n=69 v=84
297960 On ch=2 n=62 v=84
298076 Off ch=2 n=62 v=84
298080 On ch=2 n=67 v=84
298196 Off ch=2 n=67 v=84
298200 On ch=2 n=65 v=84
298316 Off ch=2 n=65 v=84
298320 On ch=2 n=67 v=84
298556 Off ch=2 n=67 v=84
298560 On ch=2 n=65 v=84
298676 Off ch=2 n=65 v=84
298680 On ch=2 n=64 v=84
298796 Off ch=2 n=64 v=84
298800 On ch=2 n=65 v=84
299036 Off ch=2 n=65 v=84
299040 On ch=2 n=64 v=84
299156 Off ch=2 n=64 v=84
299160 On ch=2 n=62 v=84
299276 Off ch=2 n=62 v=84
299280 On ch=2 n=64 v=84
299516 Off ch=2 n=64 v=84
299520 On ch=2 n=65 v=84
299636 Off ch=2 n=65 v=84
299640 On ch=2 n=67 v=84
299756 Off ch=2 n=67 v=84
299760 On ch=2 n=69 v=84
299920 On ch=2 n=67 v=84
299996 Off ch=2 n=69 v=84
300080 On ch=2 n=65 v=84
300156 Off ch=2 n=67 v=84
300240 On ch=2 n=67 v=84
300316 Off ch=2 n=65 v=84
300476 Off ch=2 n=67 v=84
300480 On ch=2 n=65 v=84
300596 Off ch=2 n=65 v=84
300600 On ch=2 n=64 v=84
300716 Off ch=2 n=64 v=84
300720 On ch=2 n=65 v=84
300956 Off ch=2 n=65 v=84
300960 On ch=2 n=64 v=84
301076 Off ch=2 n=64 v=84
301080 On ch=2 n=62 v=84
301196 Off ch=2 n=62 v=84
301200 On ch=2 n=61 v=84
301316 Off ch=2 n=61 v=84
301320 On ch=2 n=55 v=84
301436 Off ch=2 n=55 v=84
301440 On ch=2 n=58 v=84
301556 Off ch=2 n=58 v=84
301560 On ch=2 n=61 v=84
301676 Off ch=2 n=61 v=84
301680 On ch=2 n=64 v=84
301796 Off ch=2 n=64 v=84
301800 On ch=2 n=61 v=84
301916 Off ch=2 n=61 v=84
301920 On ch=2 n=58 v=84
302036 Off ch=2 n=58 v=84
302040 On ch=2 n=55 v=84
302100 On ch=2 n=58 v=84
302156 Off ch=2 n=55 v=84
302156 Off ch=2 n=58 v=84
302160 On ch=2 n=74 v=84
303476 Off ch=2 n=74 v=84
303480 On ch=2 n=73 v=84
303596 Off ch=2 n=73 v=84
303600 On ch=2 n=74 v=84
303716 Off ch=2 n=74 v=84
303720 On ch=2 n=76 v=84
303836 Off ch=2 n=76 v=84
303840 On ch=2 n=77 v=84
303956 Off ch=2 n=77 v=84
303960 On ch=2 n=79 v=84
304076 Off ch=2 n=79 v=84
304080 On ch=2 n=81 v=84
304196 Off ch=2 n=81 v=84
304200 On ch=2 n=79 v=84
304316 Off ch=2 n=79 v=84
304320 On ch=2 n=77 v=84
304436 Off ch=2 n=77 v=84
304440 On ch=2 n=76 v=84
304556 Off ch=2 n=76 v=84
304560 On ch=2 n=79 v=84
304676 Off ch=2 n=79 v=84
304680 On ch=2 n=77 v=84
304796 Off ch=2 n=77 v=84
304800 On ch=2 n=76 v=84
304916 Off ch=2 n=76 v=84
304920 On ch=2 n=74 v=84
305036 Off ch=2 n=74 v=84
305040 On ch=2 n=76 v=84
305096 Off ch=2 n=76 v=84
305100 On ch=2 n=77 v=84
305156 Off ch=2 n=77 v=84
305160 On ch=2 n=74 v=84
305276 Off ch=2 n=74 v=84
305280 On ch=2 n=74 v=84
305336 Off ch=2 n=74 v=84
305340 On ch=2 n=76 v=84
305396 Off ch=2 n=76 v=84
305400 On ch=2 n=74 v=84
305460 On ch=2 n=70 v=84
305516 Off ch=2 n=74 v=84
305520 On ch=2 n=81 v=84
305576 Off ch=2 n=81 v=84
305576 Off ch=2 n=70 v=84
305680 On ch=2 n=79 v=84
305796 Off ch=2 n=79 v=84
305840 On ch=2 n=76 v=84
305956 Off ch=2 n=76 v=84
306000 On ch=2 n=74 v=84
306476 Off ch=2 n=74 v=84
306480 On ch=2 n=79 v=84
306536 Off ch=2 n=79 v=84
306540 On ch=2 n=81 v=84
306596 Off ch=2 n=81 v=84
306600 On ch=2 n=80 v=84
306716 Off ch=2 n=80 v=84
306720 On ch=2 n=77 v=84
306800 On ch=2 n=80 v=84
306836 Off ch=2 n=77 v=84
306880 On ch=2 n=77 v=84
306916 Off ch=2 n=80 v=84
306960 On ch=2 n=74 v=84
306996 Off ch=2 n=77 v=84
307076 Off ch=2 n=74 v=84
307080 On ch=2 n=72 v=84
307196 Off ch=2 n=72 v=84
307200 On ch=2 n=69 v=84
307436 Off ch=2 n=69 v=84
307440 On ch=2 n=77 v=84
307496 Off ch=2 n=77 v=84
307500 On ch=2 n=76 v=84
307556 Off ch=2 n=76 v=84
307560 On ch=2 n=74 v=84
307676 Off ch=2 n=74 v=84
307680 On ch=2 n=72 v=84
307796 Off ch=2 n=72 v=84
307800 On ch=2 n=69 v=84
307916 Off ch=2 n=69 v=84
307920 On ch=2 n=76 v=84
308000 On ch=2 n=74 v=84
308036 Off ch=2 n=76 v=84
308080 On ch=2 n=72 v=84
308116 Off ch=2 n=74 v=84
308160 On ch=2 n=69 v=84
308196 Off ch=2 n=72 v=84
308276 Off ch=2 n=69 v=84
308280 On ch=2 n=68 v=84
308396 Off ch=2 n=68 v=84
308400 On ch=2 n=67 v=84
308516 Off ch=2 n=67 v=84
308520 On ch=2 n=65 v=84
308636 Off ch=2 n=65 v=84
308640 On ch=2 n=68 v=84
308756 Off ch=2 n=68 v=84
308760 On ch=2 n=69 v=84
308816 Off ch=2 n=69 v=84
308820 On ch=2 n=68 v=84
308876 Off ch=2 n=68 v=84
308880 On ch=2 n=67 v=84
308996 Off ch=2 n=67 v=84
309000 On ch=2 n=65 v=84
309116 Off ch=2 n=65 v=84
309120 On ch=2 n=62 v=84
309236 Off ch=2 n=62 v=84
309240 On ch=2 n=60 v=84
309356 Off ch=2 n=60 v=84
309360 On ch=2 n=57 v=84
309476 Off ch=2 n=57 v=84
309480 On ch=2 n=60 v=84
309596 Off ch=2 n=60 v=84
309600 On ch=2 n=57 v=84
309716 Off ch=2 n=57 v=84
309720 On ch=2 n=60 v=84
309776 Off ch=2 n=60 v=84
309780 On ch=2 n=62 v=84
309836 Off ch=2 n=62 v=84
309840 On ch=2 n=57 v=84
309956 Off ch=2 n=57 v=84
309960 On ch=2 n=65 v=84
310076 Off ch=2 n=65 v=84
310080 On ch=2 n=57 v=84
310196 Off ch=2 n=57 v=84
310200 On ch=2 n=64 v=84
310316 Off ch=2 n=64 v=84
310320 On ch=2 n=57 v=84
310436 Off ch=2 n=57 v=84
310440 On ch=2 n=60 v=84
310556 Off ch=2 n=60 v=84
310560 On ch=2 n=57 v=84
310676 Off ch=2 n=57 v=84
310680 On ch=2 n=60 v=84
310736 Off ch=2 n=60 v=84
310740 On ch=2 n=62 v=84
310796 Off ch=2 n=62 v=84
310800 On ch=2 n=57 v=84
310916 Off ch=2 n=57 v=84
310920 On ch=2 n=65 v=84
311036 Off ch=2 n=65 v=84
311040 On ch=2 n=57 v=84
311156 Off ch=2 n=57 v=84
311160 On ch=2 n=64 v=84
311276 Off ch=2 n=64 v=84
311280 On ch=2 n=57 v=84
311396 Off ch=2 n=57 v=84
311400 On ch=2 n=60 v=84
311516 Off ch=2 n=60 v=84
311520 On ch=2 n=57 v=84
311636 Off ch=2 n=57 v=84
311640 On ch=2 n=60 v=84
311696 Off ch=2 n=60 v=84
311700 On ch=2 n=62 v=84
311756 Off ch=2 n=62 v=84
311760 On ch=2 n=57 v=84
311876 Off ch=2 n=57 v=84
311880 On ch=2 n=65 v=84
311996 Off ch=2 n=65 v=84
312000 On ch=2 n=57 v=84
312116 Off ch=2 n=57 v=84
312120 On ch=2 n=62 v=84
312176 Off ch=2 n=62 v=84
312180 On ch=2 n=64 v=84
312236 Off ch=2 n=64 v=84
312240 On ch=2 n=57 v=84
312356 Off ch=2 n=57 v=84
312360 On ch=2 n=60 v=84
312476 Off ch=2 n=60 v=84
312480 On ch=2 n=57 v=84
312596 Off ch=2 n=57 v=84
312600 On ch=2 n=60 v=84
312656 Off ch=2 n=60 v=84
312660 On ch=2 n=62 v=84
312716 Off ch=2 n=62 v=84
312720 On ch=2 n=57 v=84
312836 Off ch=2 n=57 v=84
312840 On ch=2 n=65 v=84
312956 Off ch=2 n=65 v=84
312960 On ch=2 n=57 v=84
313076 Off ch=2 n=57 v=84
313080 On ch=2 n=64 v=84
313196 Off ch=2 n=64 v=84
313200 On ch=2 n=57 v=84
313316 Off ch=2 n=57 v=84
313320 On ch=2 n=60 v=84
313436 Off ch=2 n=60 v=84
313440 On ch=2 n=57 v=84
313556 Off ch=2 n=57 v=84
313560 On ch=2 n=62 v=84
313676 Off ch=2 n=62 v=84
313680 On ch=2 n=57 v=84
313796 Off ch=2 n=57 v=84
313800 On ch=2 n=65 v=84
313916 Off ch=2 n=65 v=84
313920 On ch=2 n=57 v=84
314036 Off ch=2 n=57 v=84
314040 On ch=2 n=64 v=84
314156 Off ch=2 n=64 v=84
314160 On ch=2 n=57 v=84
314276 Off ch=2 n=57 v=84
314280 On ch=2 n=60 v=84
314396 Off ch=2 n=60 v=84
314400 On ch=2 n=57 v=84
314516 Off ch=2 n=57 v=84
314520 On ch=2 n=62 v=84
314636 Off ch=2 n=62 v=84
314640 On ch=2 n=57 v=84
314756 Off ch=2 n=57 v=84
314760 On ch=2 n=65 v=84
314876 Off ch=2 n=65 v=84
314880 On ch=2 n=57 v=84
314996 Off ch=2 n=57 v=84
315000 On ch=2 n=64 v=84
315116 Off ch=2 n=64 v=84
315120 On ch=2 n=57 v=84
315236 Off ch=2 n=57 v=84
315240 On ch=2 n=60 v=84
315356 Off ch=2 n=60 v=84
315360 On ch=2 n=57 v=84
315476 Off ch=2 n=57 v=84
315480 On ch=2 n=62 v=84
315596 Off ch=2 n=62 v=84
315600 On ch=2 n=57 v=84
315716 Off ch=2 n=57 v=84
315720 On ch=2 n=65 v=84
315836 Off ch=2 n=65 v=84
315840 On ch=2 n=57 v=84
315956 Off ch=2 n=57 v=84
315960 On ch=2 n=64 v=84
316076 Off ch=2 n=64 v=84
316080 On ch=2 n=57 v=84
316160 On ch=2 n=62 v=84
316196 Off ch=2 n=57 v=84
316240 On ch=2 n=55 v=84
316276 Off ch=2 n=62 v=84
316320 On ch=2 n=58 v=84
316356 Off ch=2 n=55 v=84
316400 On ch=2 n=61 v=84
316436 Off ch=2 n=58 v=84
316440 On ch=2 n=52 v=84
316480 On ch=2 n=55 v=84
316496 Off ch=2 n=52 v=84
316516 Off ch=2 n=61 v=84
316536 Off ch=2 n=55 v=84
316560 On ch=2 n=58 v=84
316594 On ch=2 n=61 v=84
316606 Off ch=2 n=58 v=84
316626 On ch=2 n=55 v=84
316652 Off ch=2 n=61 v=84
316662 On ch=2 n=58 v=84
316667 Off ch=2 n=55 v=84
316696 On ch=2 n=61 v=84
316705 Off ch=2 n=58 v=84
316732 On ch=2 n=64 v=84
316739 Off ch=2 n=61 v=84
316764 On ch=2 n=67 v=84
316778 Off ch=2 n=64 v=84
316800 On ch=2 n=70 v=84
316800 Off ch=2 n=67 v=84
316916 Off ch=2 n=70 v=84
316920 On ch=2 n=73 v=84
317036 Off ch=2 n=73 v=84
317040 On ch=2 n=76 v=84
317156 Off ch=2 n=76 v=84
317160 On ch=2 n=73 v=84
317276 Off ch=2 n=73 v=84
317280 On ch=2 n=70 v=84
317396 Off ch=2 n=70 v=84
317400 On ch=2 n=67 v=84
317516 Off ch=2 n=67 v=84
317520 On ch=2 n=64 v=84
317636 Off ch=2 n=64 v=84
317640 On ch=2 n=61 v=84
317756 Off ch=2 n=61 v=84
317760 On ch=2 n=58 v=84
317876 Off ch=2 n=58 v=84
317880 On ch=2 n=55 v=84
317996 Off ch=2 n=55 v=84
318000 On ch=2 n=58 v=84
318116 Off ch=2 n=58 v=84
318120 On ch=2 n=61 v=84
318236 Off ch=2 n=61 v=84
318240 On ch=2 n=64 v=84
318356 Off ch=2 n=64 v=84
318360 On ch=2 n=67 v=84
318476 Off ch=2 n=67 v=84
318480 On ch=2 n=70 v=84
318596 Off ch=2 n=70 v=84
318600 On ch=2 n=73 v=84
318716 Off ch=2 n=73 v=84
318720 On ch=2 n=76 v=84
318836 Off ch=2 n=76 v=84
318840 On ch=2 n=73 v=84
318956 Off ch=2 n=73 v=84
318960 On ch=2 n=70 v=84
319196 Off ch=2 n=70 v=84
319200 On ch=2 n=64 v=84
319316 Off ch=2 n=64 v=84
319320 On ch=2 n=61 v=84
319436 Off ch=2 n=61 v=84
319440 On ch=2 n=58 v=84
319556 Off ch=2 n=58 v=84
319560 On ch=2 n=55 v=84
319676 Off ch=2 n=55 v=84
319680 On ch=2 n=58 v=84
319796 Off ch=2 n=58 v=84
319800 On ch=2 n=61 v=84
319916 Off ch=2 n=61 v=84
319920 On ch=2 n=64 v=84
320036 Off ch=2 n=64 v=84
320040 On ch=2 n=61 v=84
320156 Off ch=2 n=61 v=84
320160 On ch=2 n=58 v=84
320276 Off ch=2 n=58 v=84
320280 On ch=2 n=55 v=84
320396 Off ch=2 n=55 v=84
320400 On ch=2 n=52 v=84
320516 Off ch=2 n=52 v=84
320520 On ch=2 n=49 v=84
320636 Off ch=2 n=49 v=84
320640 On ch=2 n=46 v=84
320756 Off ch=2 n=46 v=84
320760 On ch=2 n=43 v=84
320876 Off ch=2 n=43 v=84
320880 On ch=2 n=46 v=84
320960 On ch=2 n=45 v=84
320996 Off ch=2 n=46 v=84
321040 On ch=2 n=46 v=84
321076 Off ch=2 n=45 v=84
321120 On ch=2 n=45 v=84
321156 Off ch=2 n=46 v=84
321200 On ch=2 n=46 v=84
321236 Off ch=2 n=45 v=84
321280 On ch=2 n=45 v=84
321316 Off ch=2 n=46 v=84
321360 On ch=2 n=46 v=84
321396 Off ch=2 n=45 v=84
321440 On ch=2 n=45 v=84
321476 Off ch=2 n=46 v=84
321520 On ch=2 n=46 v=84
321556 Off ch=2 n=45 v=84
321600 On ch=2 n=45 v=84
321636 Off ch=2 n=46 v=84
321680 On ch=2 n=46 v=84
321716 Off ch=2 n=45 v=84
321760 On ch=2 n=45 v=84
321796 Off ch=2 n=46 v=84
321840 On ch=2 n=46 v=84
321876 Off ch=2 n=45 v=84
321920 On ch=2 n=45 v=84
321956 Off ch=2 n=46 v=84
322000 On ch=2 n=46 v=84
322036 Off ch=2 n=45 v=84
322080 On ch=2 n=45 v=84
322116 Off ch=2 n=46 v=84
322160 On ch=2 n=46 v=84
322196 Off ch=2 n=45 v=84
322240 On ch=2 n=45 v=84
322276 Off ch=2 n=46 v=84
322320 On ch=2 n=46 v=84
322356 Off ch=2 n=45 v=84
322400 On ch=2 n=45 v=84
322436 Off ch=2 n=46 v=84
322480 On ch=2 n=46 v=84
322516 Off ch=2 n=45 v=84
322560 Off ch=2 n=46 v=84
322560 On ch=2 n=45 v=84
322660 On ch=2 n=46 v=84
322676 Off ch=2 n=45 v=84
322693 On ch=2 n=45 v=127
325099 Off ch=2 n=46 v=84
325784 Off ch=2 n=45 v=127
332172 PrCh ch=2 p=44
332761 On ch=2 n=65 v=2
332794 Off ch=2 n=65 v=2
333120 Par ch=2 c=5 v=88
334596 On ch=2 n=94 v=127
339195 Par ch=2 c=99 v=1
339195 Par ch=2 c=98 v=9
339195 Par ch=2 c=6 v=127
339195 Par ch=2 c=38 v=0
339329 Par ch=2 c=99 v=1
339329 Par ch=2 c=98 v=8
339329 Par ch=2 c=6 v=127
339329 Par ch=2 c=38 v=0
343200 Par ch=2 c=5 v=93
343205 On ch=2 n=36 v=93
343228 Off ch=2 n=94 v=127
350403 Off ch=2 n=36 v=93
351000 Par ch=2 c=65 v=0
351120 Par ch=2 c=99 v=1
351120 Par ch=2 c=98 v=8
351120 Par ch=2 c=6 v=0
351120 Par ch=2 c=38 v=0
351240 Par ch=2 c=99 v=1
351240 Par ch=2 c=98 v=9
351240 Par ch=2 c=6 v=0
351240 Par ch=2 c=38 v=0
351360 Meta TrkEnd
TrkEnd
MTrk
0 Meta TrkName "Choir Aahs"
0 Meta 0x20 02
0 Meta InstrName "Choir Aahs"
0 KeySig 0 major
175 Par ch=3 c=0 v=0
180 Par ch=3 c=32 v=0
185 PrCh ch=3 p=52
190 Par ch=3 c=7 v=125
195 Par ch=3 c=10 v=64
200 Par ch=3 c=91 v=72
205 Par ch=3 c=93 v=79
210 Par ch=3 c=101 v=0
210 Par ch=3 c=100 v=0
210 Par ch=3 c=6 v=2
215 Par ch=3 c=99 v=1
215 Par ch=3 c=98 v=8
215 Par ch=3 c=6 v=64
220 Par ch=3 c=99 v=1
220 Par ch=3 c=98 v=9
220 Par ch=3 c=6 v=64
225 Par ch=3 c=99 v=1
225 Par ch=3 c=98 v=10
225 Par ch=3 c=6 v=64
230 Par ch=3 c=99 v=1
230 Par ch=3 c=98 v=32
230 Par ch=3 c=6 v=64
235 Par ch=3 c=99 v=1
235 Par ch=3 c=98 v=33
235 Par ch=3 c=6 v=64
240 Par ch=3 c=99 v=1
240 Par ch=3 c=98 v=99
240 Par ch=3 c=6 v=64
245 Par ch=3 c=99 v=1
245 Par ch=3 c=98 v=100
245 Par ch=3 c=6 v=64
250 Par ch=3 c=99 v=1
250 Par ch=3 c=98 v=102
250 Par ch=3 c=6 v=64
150961 On ch=3 n=69 v=94
150963 On ch=3 n=66 v=106
150966 On ch=3 n=62 v=98
151010 Off ch=3 n=62 v=98
151012 Off ch=3 n=66 v=106
151015 Off ch=3 n=69 v=94
151063 On ch=3 n=69 v=83
151064 On ch=3 n=66 v=84
151068 On ch=3 n=62 v=76
151118 Off ch=3 n=62 v=76
151125 Off ch=3 n=69 v=83
151128 Off ch=3 n=66 v=84
151193 On ch=3 n=62 v=78
151198 On ch=3 n=71 v=98
151199 On ch=3 n=67 v=97
151368 Off ch=3 n=62 v=78
151369 Off ch=3 n=71 v=98
151370 Off ch=3 n=67 v=97
151429 On ch=3 n=62 v=83
151432 On ch=3 n=66 v=91
151433 On ch=3 n=69 v=84
151586 Off ch=3 n=62 v=83
151598 Off ch=3 n=66 v=91
151599 Off ch=3 n=69 v=84
151926 On ch=3 n=66 v=92
151927 On ch=3 n=69 v=88
151931 On ch=3 n=62 v=86
151979 Off ch=3 n=62 v=86
151983 Off ch=3 n=66 v=92
151988 Off ch=3 n=69 v=88
152028 On ch=3 n=69 v=77
152031 On ch=3 n=62 v=80
152032 On ch=3 n=66 v=87
152090 Off ch=3 n=62 v=80
152093 Off ch=3 n=66 v=87
152120 Off ch=3 n=69 v=77
152175 On ch=3 n=67 v=98
152175 On ch=3 n=71 v=102
152176 On ch=3 n=62 v=88
152358 Off ch=3 n=71 v=102
152360 Off ch=3 n=67 v=98
152409 On ch=3 n=66 v=80
152413 On ch=3 n=69 v=72
152567 Off ch=3 n=62 v=88
152578 Off ch=3 n=69 v=72
152579 Off ch=3 n=66 v=80
152878 On ch=3 n=69 v=97
152879 On ch=3 n=66 v=106
152882 On ch=3 n=62 v=97
152919 Off ch=3 n=62 v=97
152923 Off ch=3 n=66 v=106
152927 Off ch=3 n=69 v=97
152973 On ch=3 n=62 v=78
152974 On ch=3 n=66 v=87
152975 On ch=3 n=69 v=80
153035 Off ch=3 n=62 v=78
153039 Off ch=3 n=69 v=80
153043 Off ch=3 n=66 v=87
153118 On ch=3 n=62 v=84
153119 On ch=3 n=67 v=95
153121 On ch=3 n=71 v=102
153289 Off ch=3 n=71 v=102
153296 Off ch=3 n=62 v=84
153297 Off ch=3 n=67 v=95
153346 On ch=3 n=62 v=68
153348 On ch=3 n=66 v=86
153352 On ch=3 n=69 v=84
153492 Off ch=3 n=62 v=68
153501 Off ch=3 n=69 v=84
153505 Off ch=3 n=66 v=86
153832 On ch=3 n=69 v=90
153832 On ch=3 n=66 v=95
153837 On ch=3 n=62 v=85
153880 Off ch=3 n=62 v=85
153887 Off ch=3 n=66 v=95
153889 Off ch=3 n=69 v=90
153930 On ch=3 n=69 v=68
153932 On ch=3 n=66 v=80
153934 On ch=3 n=62 v=77
153993 Off ch=3 n=62 v=77
153998 Off ch=3 n=66 v=80
154004 Off ch=3 n=69 v=68
154066 On ch=3 n=67 v=92
154067 On ch=3 n=62 v=74
154067 On ch=3 n=71 v=102
154226 Off ch=3 n=71 v=102
154232 Off ch=3 n=67 v=92
154238 Off ch=3 n=62 v=74
154293 On ch=3 n=62 v=78
154297 On ch=3 n=66 v=95
154298 On ch=3 n=69 v=87
154793 Off ch=3 n=62 v=78
154826 Off ch=3 n=66 v=95
154835 Off ch=3 n=69 v=87
160550 On ch=3 n=69 v=90
160551 On ch=3 n=62 v=94
160551 On ch=3 n=66 v=102
160605 Off ch=3 n=66 v=102
160608 Off ch=3 n=62 v=94
160610 Off ch=3 n=69 v=90
160660 On ch=3 n=69 v=80
160662 On ch=3 n=62 v=84
160663 On ch=3 n=66 v=86
160726 Off ch=3 n=62 v=84
160732 Off ch=3 n=66 v=86
160739 Off ch=3 n=69 v=80
160788 On ch=3 n=62 v=81
160789 On ch=3 n=67 v=104
160790 On ch=3 n=71 v=110
160962 Off ch=3 n=71 v=110
160968 Off ch=3 n=67 v=104
160971 Off ch=3 n=62 v=81
161026 On ch=3 n=62 v=80
161028 On ch=3 n=66 v=97
161028 On ch=3 n=69 v=91
161246 Off ch=3 n=62 v=80
161252 Off ch=3 n=69 v=91
161262 Off ch=3 n=66 v=97
161500 On ch=3 n=69 v=90
161501 On ch=3 n=66 v=100
161504 On ch=3 n=62 v=94
161546 Off ch=3 n=62 v=94
161552 Off ch=3 n=66 v=100
161553 Off ch=3 n=69 v=90
161629 On ch=3 n=69 v=84
161629 On ch=3 n=66 v=86
161629 On ch=3 n=62 v=79
161705 Off ch=3 n=62 v=79
161708 Off ch=3 n=66 v=86
161710 Off ch=3 n=69 v=84
161759 On ch=3 n=62 v=83
161762 On ch=3 n=67 v=104
161762 On ch=3 n=71 v=108
161942 Off ch=3 n=71 v=108
161948 Off ch=3 n=67 v=104
161951 Off ch=3 n=62 v=83
162015 On ch=3 n=62 v=85
162016 On ch=3 n=66 v=104
162017 On ch=3 n=69 v=102
162222 Off ch=3 n=62 v=85
162229 Off ch=3 n=69 v=102
162230 Off ch=3 n=66 v=104
162489 On ch=3 n=66 v=108
162490 On ch=3 n=69 v=95
162492 On ch=3 n=62 v=100
162538 Off ch=3 n=62 v=100
162542 Off ch=3 n=66 v=108
162544 Off ch=3 n=69 v=95
162610 On ch=3 n=69 v=87
162610 On ch=3 n=66 v=88
162611 On ch=3 n=62 v=80
162675 Off ch=3 n=62 v=80
162676 Off ch=3 n=66 v=88
162682 Off ch=3 n=69 v=87
162735 On ch=3 n=62 v=78
162741 On ch=3 n=71 v=104
162742 On ch=3 n=67 v=100
162890 Off ch=3 n=71 v=104
162895 Off ch=3 n=62 v=78
162899 Off ch=3 n=67 v=100
162976 On ch=3 n=62 v=92
162977 On ch=3 n=69 v=102
162977 On ch=3 n=66 v=102
163198 Off ch=3 n=62 v=92
163200 Off ch=3 n=69 v=102
163200 Off ch=3 n=66 v=102
163446 On ch=3 n=66 v=102
163449 On ch=3 n=69 v=84
163449 On ch=3 n=62 v=95
163483 Off ch=3 n=62 v=95
163486 Off ch=3 n=69 v=84
163488 Off ch=3 n=66 v=102
163550 On ch=3 n=69 v=87
163551 On ch=3 n=62 v=83
163552 On ch=3 n=66 v=91
163622 Off ch=3 n=66 v=91
163622 Off ch=3 n=62 v=83
163630 Off ch=3 n=69 v=87
163674 On ch=3 n=62 v=76
163678 On ch=3 n=67 v=97
163679 On ch=3 n=71 v=106
163845 Off ch=3 n=71 v=106
163858 Off ch=3 n=67 v=97
163865 Off ch=3 n=62 v=76
163932 On ch=3 n=69 v=97
163932 On ch=3 n=66 v=108
163932 On ch=3 n=62 v=92
164213 Off ch=3 n=62 v=92
164221 Off ch=3 n=66 v=108
164222 Off ch=3 n=69 v=97
164678 On ch=3 n=69 v=106
164679 On ch=3 n=66 v=102
164682 On ch=3 n=74 v=108
165120 Off ch=3 n=74 v=108
165120 Off ch=3 n=69 v=106
165120 Off ch=3 n=66 v=102
165352 On ch=3 n=69 v=102
165352 On ch=3 n=66 v=117
165353 On ch=3 n=62 v=104
165382 Off ch=3 n=62 v=104
165397 Off ch=3 n=66 v=117
165402 Off ch=3 n=69 v=102
165467 On ch=3 n=66 v=97
165467 On ch=3 n=69 v=91
165467 On ch=3 n=62 v=92
165536 Off ch=3 n=62 v=92
165541 Off ch=3 n=69 v=91
165543 Off ch=3 n=66 v=97
165589 On ch=3 n=62 v=78
165591 On ch=3 n=67 v=94
165591 On ch=3 n=71 v=97
165772 Off ch=3 n=71 v=97
165775 Off ch=3 n=67 v=94
165784 Off ch=3 n=62 v=78
165834 On ch=3 n=66 v=102
165834 On ch=3 n=62 v=87
165835 On ch=3 n=69 v=98
166078 Off ch=3 n=62 v=87
166084 Off ch=3 n=66 v=102
166090 Off ch=3 n=69 v=98
166554 On ch=3 n=69 v=120
166554 On ch=3 n=66 v=106
166556 On ch=3 n=74 v=85
167100 Off ch=3 n=69 v=120
167100 Off ch=3 n=66 v=106
167100 Off ch=3 n=74 v=85
167271 On ch=3 n=69 v=94
167271 On ch=3 n=66 v=110
167272 On ch=3 n=62 v=100
167302 Off ch=3 n=62 v=100
167317 Off ch=3 n=69 v=94
167317 Off ch=3 n=66 v=110
167386 On ch=3 n=66 v=86
167386 On ch=3 n=69 v=80
167387 On ch=3 n=62 v=78
167462 Off ch=3 n=62 v=78
167465 Off ch=3 n=69 v=80
167467 Off ch=3 n=66 v=86
167508 On ch=3 n=62 v=79
167510 On ch=3 n=67 v=92
167511 On ch=3 n=71 v=94
167675 Off ch=3 n=71 v=94
167692 Off ch=3 n=67 v=92
167695 Off ch=3 n=62 v=79
167753 On ch=3 n=66 v=98
167753 On ch=3 n=69 v=98
167753 On ch=3 n=62 v=86
167925 Off ch=3 n=62 v=86
167937 Off ch=3 n=69 v=98
167944 Off ch=3 n=66 v=98
168234 On ch=3 n=66 v=100
168235 On ch=3 n=69 v=94
168235 On ch=3 n=62 v=94
168279 Off ch=3 n=62 v=94
168284 Off ch=3 n=69 v=94
168288 Off ch=3 n=66 v=100
168349 On ch=3 n=62 v=83
168350 On ch=3 n=69 v=88
168350 On ch=3 n=66 v=91
168418 Off ch=3 n=66 v=91
168422 Off ch=3 n=69 v=88
168422 Off ch=3 n=62 v=83
168469 On ch=3 n=62 v=73
168471 On ch=3 n=67 v=86
168472 On ch=3 n=71 v=94
168651 Off ch=3 n=71 v=94
168663 Off ch=3 n=67 v=86
168668 Off ch=3 n=62 v=73
168714 On ch=3 n=66 v=104
168714 On ch=3 n=69 v=102
168714 On ch=3 n=62 v=91
168902 Off ch=3 n=62 v=91
168922 Off ch=3 n=69 v=102
168931 Off ch=3 n=66 v=104
169190 On ch=3 n=69 v=94
169190 On ch=3 n=62 v=98
169191 On ch=3 n=66 v=94
169244 Off ch=3 n=66 v=94
169245 Off ch=3 n=62 v=98
169246 Off ch=3 n=69 v=94
169303 On ch=3 n=62 v=90
169306 On ch=3 n=69 v=84
169307 On ch=3 n=66 v=88
169365 Off ch=3 n=66 v=88
169366 Off ch=3 n=69 v=84
169371 Off ch=3 n=62 v=90
169418 On ch=3 n=62 v=69
169424 On ch=3 n=67 v=86
169424 On ch=3 n=71 v=100
169599 Off ch=3 n=71 v=100
169609 Off ch=3 n=67 v=86
169622 Off ch=3 n=62 v=69
169659 On ch=3 n=62 v=73
169661 On ch=3 n=66 v=88
169661 On ch=3 n=69 v=85
169885 Off ch=3 n=62 v=73
169895 Off ch=3 n=69 v=85
169899 Off ch=3 n=66 v=88
170149 On ch=3 n=66 v=102
170149 On ch=3 n=69 v=95
170151 On ch=3 n=62 v=98
170234 Off ch=3 n=69 v=95
170245 Off ch=3 n=66 v=102
170247 Off ch=3 n=62 v=98
170397 On ch=3 n=67 v=91
170401 On ch=3 n=62 v=106
170403 On ch=3 n=59 v=104
170653 On ch=3 n=66 v=98
170658 Off ch=3 n=67 v=91
170835 Off ch=3 n=62 v=106
170835 Off ch=3 n=66 v=98
170847 Off ch=3 n=59 v=104
170886 On ch=3 n=64 v=102
170890 On ch=3 n=57 v=106
170896 On ch=3 n=61 v=95
171281 Off ch=3 n=57 v=106
171284 Off ch=3 n=64 v=102
171286 Off ch=3 n=61 v=95
171377 On ch=3 n=66 v=106
171382 On ch=3 n=57 v=114
171384 On ch=3 n=62 v=102
172183 Off ch=3 n=66 v=106
172200 Off ch=3 n=57 v=114
172218 Off ch=3 n=62 v=102
172358 On ch=3 n=69 v=106
172359 On ch=3 n=66 v=102
172362 On ch=3 n=74 v=108
172800 Off ch=3 n=74 v=108
172800 Off ch=3 n=69 v=106
172800 Off ch=3 n=66 v=102
173032 On ch=3 n=69 v=102
173032 On ch=3 n=66 v=117
173033 On ch=3 n=62 v=104
173062 Off ch=3 n=62 v=104
173077 Off ch=3 n=66 v=117
173082 Off ch=3 n=69 v=102
173147 On ch=3 n=66 v=97
173147 On ch=3 n=69 v=91
173147 On ch=3 n=62 v=92
173216 Off ch=3 n=62 v=92
173221 Off ch=3 n=69 v=91
173223 Off ch=3 n=66 v=97
173269 On ch=3 n=62 v=78
173271 On ch=3 n=67 v=94
173271 On ch=3 n=71 v=97
173452 Off ch=3 n=71 v=97
173455 Off ch=3 n=67 v=94
173464 Off ch=3 n=62 v=78
173514 On ch=3 n=66 v=102
173514 On ch=3 n=62 v=87
173515 On ch=3 n=69 v=98
173758 Off ch=3 n=62 v=87
173764 Off ch=3 n=66 v=102
173770 Off ch=3 n=69 v=98
174234 On ch=3 n=69 v=120
174234 On ch=3 n=66 v=106
174236 On ch=3 n=74 v=85
174780 Off ch=3 n=69 v=120
174780 Off ch=3 n=66 v=106
174780 Off ch=3 n=74 v=85
174951 On ch=3 n=69 v=94
174951 On ch=3 n=66 v=110
174952 On ch=3 n=62 v=100
174982 Off ch=3 n=62 v=100
174997 Off ch=3 n=69 v=94
174997 Off ch=3 n=66 v=110
175066 On ch=3 n=66 v=86
175066 On ch=3 n=69 v=80
175067 On ch=3 n=62 v=78
175142 Off ch=3 n=62 v=78
175145 Off ch=3 n=69 v=80
175147 Off ch=3 n=66 v=86
175188 On ch=3 n=62 v=79
175190 On ch=3 n=67 v=92
175191 On ch=3 n=71 v=94
175355 Off ch=3 n=71 v=94
175372 Off ch=3 n=67 v=92
175375 Off ch=3 n=62 v=79
175433 On ch=3 n=66 v=98
175433 On ch=3 n=69 v=98
175433 On ch=3 n=62 v=86
175605 Off ch=3 n=62 v=86
175617 Off ch=3 n=69 v=98
175624 Off ch=3 n=66 v=98
175914 On ch=3 n=66 v=100
175915 On ch=3 n=69 v=94
175915 On ch=3 n=62 v=94
175959 Off ch=3 n=62 v=94
175964 Off ch=3 n=69 v=94
175968 Off ch=3 n=66 v=100
176029 On ch=3 n=62 v=83
176030 On ch=3 n=69 v=88
176030 On ch=3 n=66 v=91
176098 Off ch=3 n=66 v=91
176102 Off ch=3 n=69 v=88
176102 Off ch=3 n=62 v=83
176149 On ch=3 n=62 v=73
176151 On ch=3 n=67 v=86
176152 On ch=3 n=71 v=94
176331 Off ch=3 n=71 v=94
176343 Off ch=3 n=67 v=86
176348 Off ch=3 n=62 v=73
176394 On ch=3 n=66 v=104
176394 On ch=3 n=69 v=102
176394 On ch=3 n=62 v=91
176582 Off ch=3 n=62 v=91
176602 Off ch=3 n=69 v=102
176611 Off ch=3 n=66 v=104
176870 On ch=3 n=69 v=94
176870 On ch=3 n=62 v=98
176871 On ch=3 n=66 v=94
176924 Off ch=3 n=66 v=94
176925 Off ch=3 n=62 v=98
176926 Off ch=3 n=69 v=94
176983 On ch=3 n=62 v=90
176986 On ch=3 n=69 v=84
176987 On ch=3 n=66 v=88
177045 Off ch=3 n=66 v=88
177046 Off ch=3 n=69 v=84
177051 Off ch=3 n=62 v=90
177098 On ch=3 n=62 v=69
177104 On ch=3 n=67 v=86
177104 On ch=3 n=71 v=100
177279 Off ch=3 n=71 v=100
177289 Off ch=3 n=67 v=86
177302 Off ch=3 n=62 v=69
177339 On ch=3 n=62 v=73
177341 On ch=3 n=66 v=88
177341 On ch=3 n=69 v=85
177565 Off ch=3 n=62 v=73
177575 Off ch=3 n=69 v=85
177579 Off ch=3 n=66 v=88
177829 On ch=3 n=66 v=102
177829 On ch=3 n=69 v=95
177831 On ch=3 n=62 v=98
177914 Off ch=3 n=69 v=95
177925 Off ch=3 n=66 v=102
177927 Off ch=3 n=62 v=98
178077 On ch=3 n=67 v=91
178081 On ch=3 n=62 v=106
178083 On ch=3 n=59 v=104
178333 On ch=3 n=66 v=98
178338 Off ch=3 n=67 v=91
178515 Off ch=3 n=62 v=106
178515 Off ch=3 n=66 v=98
178527 Off ch=3 n=59 v=104
178566 On ch=3 n=64 v=102
178570 On ch=3 n=57 v=106
178576 On ch=3 n=61 v=95
178961 Off ch=3 n=57 v=106
178964 Off ch=3 n=64 v=102
178966 Off ch=3 n=61 v=95
179062 On ch=3 n=66 v=106
179062 On ch=3 n=57 v=114
179064 On ch=3 n=62 v=102
179868 Off ch=3 n=66 v=106
179880 Off ch=3 n=57 v=114
179898 Off ch=3 n=62 v=102
180005 On ch=3 n=62 v=119
180960 On ch=3 n=64 v=94
180973 Off ch=3 n=62 v=119
181436 Off ch=3 n=64 v=94
181440 On ch=3 n=66 v=94
181916 Off ch=3 n=66 v=94
181920 On ch=3 n=67 v=94
182156 Off ch=3 n=67 v=94
182160 On ch=3 n=55 v=94
182396 Off ch=3 n=55 v=94
182400 On ch=3 n=67 v=94
183356 Off ch=3 n=67 v=94
183360 On ch=3 n=66 v=94
183836 Off ch=3 n=66 v=94
183840 On ch=3 n=64 v=94
184796 Off ch=3 n=64 v=94
184800 On ch=3 n=62 v=93
185446 Off ch=3 n=62 v=93
185540 On ch=3 n=69 v=94
185541 On ch=3 n=66 v=104
185544 On ch=3 n=62 v=102
185588 Off ch=3 n=62 v=102
185590 Off ch=3 n=66 v=104
185595 Off ch=3 n=69 v=94
185652 On ch=3 n=62 v=88
185656 On ch=3 n=69 v=87
185656 On ch=3 n=66 v=97
185708 Off ch=3 n=66 v=97
185709 Off ch=3 n=69 v=87
185712 Off ch=3 n=62 v=88
185769 On ch=3 n=62 v=94
185776 On ch=3 n=71 v=104
185777 On ch=3 n=67 v=102
185915 Off ch=3 n=71 v=104
185928 Off ch=3 n=67 v=102
185929 Off ch=3 n=62 v=94
185983 On ch=3 n=62 v=81
185986 On ch=3 n=66 v=91
185990 On ch=3 n=69 v=80
186188 Off ch=3 n=62 v=81
186194 Off ch=3 n=69 v=80
186196 Off ch=3 n=66 v=91
186433 On ch=3 n=66 v=110
186433 On ch=3 n=69 v=95
186438 On ch=3 n=62 v=98
186480 Off ch=3 n=62 v=98
186491 Off ch=3 n=69 v=95
186492 Off ch=3 n=66 v=110
186545 On ch=3 n=62 v=87
186546 On ch=3 n=66 v=87
186548 On ch=3 n=69 v=85
186604 Off ch=3 n=69 v=85
186610 Off ch=3 n=66 v=87
186610 Off ch=3 n=62 v=87
186670 On ch=3 n=62 v=95
186675 On ch=3 n=67 v=102
186677 On ch=3 n=71 v=112
186872 Off ch=3 n=62 v=95
186872 Off ch=3 n=71 v=112
186880 Off ch=3 n=67 v=102
186945 On ch=3 n=62 v=85
186948 On ch=3 n=66 v=100
186950 On ch=3 n=69 v=94
187127 Off ch=3 n=62 v=85
187154 Off ch=3 n=69 v=94
187157 Off ch=3 n=66 v=100
187419 On ch=3 n=66 v=125
187422 On ch=3 n=69 v=98
187428 On ch=3 n=62 v=95
187463 Off ch=3 n=62 v=95
187476 Off ch=3 n=66 v=125
187477 Off ch=3 n=69 v=98
187528 On ch=3 n=69 v=78
187528 On ch=3 n=66 v=87
187530 On ch=3 n=62 v=85
187581 Off ch=3 n=66 v=87
187582 Off ch=3 n=69 v=78
187583 Off ch=3 n=62 v=85
187648 On ch=3 n=62 v=90
187650 On ch=3 n=67 v=100
187655 On ch=3 n=71 v=110
187811 Off ch=3 n=71 v=110
187818 Off ch=3 n=62 v=90
187820 Off ch=3 n=67 v=100
187889 On ch=3 n=62 v=83
187892 On ch=3 n=66 v=98
187896 On ch=3 n=69 v=98
188160 Off ch=3 n=66 v=98
188160 Off ch=3 n=62 v=83
188160 Off ch=3 n=69 v=98
188389 On ch=3 n=69 v=98
188389 On ch=3 n=66 v=110
188393 On ch=3 n=62 v=97
188445 Off ch=3 n=62 v=97
188448 Off ch=3 n=66 v=110
188452 Off ch=3 n=69 v=98
188500 On ch=3 n=69 v=81
188501 On ch=3 n=62 v=90
188504 On ch=3 n=66 v=95
188563 Off ch=3 n=66 v=95
188567 Off ch=3 n=69 v=81
188569 Off ch=3 n=62 v=90
188621 On ch=3 n=62 v=84
188627 On ch=3 n=71 v=104
188628 On ch=3 n=67 v=102
188765 Off ch=3 n=71 v=104
188776 Off ch=3 n=67 v=102
188777 Off ch=3 n=62 v=84
188863 On ch=3 n=62 v=83
188863 On ch=3 n=66 v=97
188865 On ch=3 n=69 v=103
189359 Off ch=3 n=62 v=83
189359 Off ch=3 n=69 v=103
189360 Off ch=3 n=66 v=97
189600 On ch=3 n=64 v=124
190560 On ch=3 n=66 v=94
190563 Off ch=3 n=64 v=124
191036 Off ch=3 n=66 v=94
191040 On ch=3 n=68 v=94
191516 Off ch=3 n=68 v=94
191520 On ch=3 n=69 v=94
191756 Off ch=3 n=69 v=94
191760 On ch=3 n=57 v=94
191996 Off ch=3 n=57 v=94
192000 On ch=3 n=69 v=94
192956 Off ch=3 n=69 v=94
192960 On ch=3 n=68 v=94
193436 Off ch=3 n=68 v=94
193440 On ch=3 n=66 v=96
194400 On ch=3 n=64 v=94
194403 Off ch=3 n=66 v=96
195056 Off ch=3 n=64 v=94
195130 On ch=3 n=71 v=106
195131 On ch=3 n=64 v=91
195132 On ch=3 n=68 v=119
195181 Off ch=3 n=64 v=91
195203 Off ch=3 n=71 v=106
195203 Off ch=3 n=68 v=119
195248 On ch=3 n=71 v=87
195251 On ch=3 n=68 v=95
195254 On ch=3 n=64 v=95
195301 Off ch=3 n=68 v=95
195302 Off ch=3 n=64 v=95
195305 Off ch=3 n=71 v=87
195365 On ch=3 n=64 v=94
195368 On ch=3 n=73 v=122
195372 On ch=3 n=69 v=110
195491 Off ch=3 n=64 v=94
195503 Off ch=3 n=69 v=110
195503 Off ch=3 n=73 v=122
195585 On ch=3 n=68 v=110
195588 On ch=3 n=71 v=104
195595 On ch=3 n=64 v=100
195771 Off ch=3 n=68 v=110
195773 Off ch=3 n=64 v=100
195786 Off ch=3 n=71 v=104
196051 On ch=3 n=71 v=94
196051 On ch=3 n=68 v=113
196056 On ch=3 n=64 v=92
196099 Off ch=3 n=64 v=92
196103 Off ch=3 n=68 v=113
196108 Off ch=3 n=71 v=94
196160 On ch=3 n=68 v=84
196166 On ch=3 n=71 v=81
196167 On ch=3 n=64 v=78
196218 Off ch=3 n=64 v=78
196219 Off ch=3 n=71 v=81
196221 Off ch=3 n=68 v=84
196285 On ch=3 n=64 v=76
196291 On ch=3 n=69 v=108
196292 On ch=3 n=73 v=112
196441 Off ch=3 n=64 v=76
196442 Off ch=3 n=73 v=112
196442 Off ch=3 n=69 v=108
196558 On ch=3 n=64 v=78
196558 On ch=3 n=68 v=110
196558 On ch=3 n=71 v=106
196742 Off ch=3 n=71 v=106
196746 Off ch=3 n=68 v=110
196751 Off ch=3 n=64 v=78
197017 On ch=3 n=72 v=95
197018 On ch=3 n=65 v=99
197023 On ch=3 n=69 v=95
197078 Off ch=3 n=65 v=99
197088 Off ch=3 n=69 v=95
197097 Off ch=3 n=72 v=95
197136 On ch=3 n=72 v=79
197139 On ch=3 n=65 v=77
197144 On ch=3 n=69 v=85
197191 Off ch=3 n=69 v=85
197195 Off ch=3 n=65 v=77
197209 Off ch=3 n=72 v=79
197265 On ch=3 n=65 v=74
197280 On ch=3 n=70 v=107
197290 On ch=3 n=74 v=108
197422 Off ch=3 n=70 v=107
197443 Off ch=3 n=74 v=108
197449 Off ch=3 n=65 v=74
197505 On ch=3 n=65 v=79
197523 On ch=3 n=69 v=90
197528 On ch=3 n=72 v=71
197717 Off ch=3 n=72 v=71
197721 Off ch=3 n=65 v=79
197724 Off ch=3 n=69 v=90
197971 On ch=3 n=72 v=79
197978 On ch=3 n=69 v=81
197979 On ch=3 n=65 v=74
198010 Off ch=3 n=65 v=74
198020 Off ch=3 n=69 v=81
198028 Off ch=3 n=72 v=79
198093 On ch=3 n=72 v=85
198099 On ch=3 n=65 v=84
198101 On ch=3 n=69 v=92
198160 Off ch=3 n=65 v=84
198161 Off ch=3 n=69 v=92
198168 Off ch=3 n=72 v=85
198233 On ch=3 n=65 v=61
198246 On ch=3 n=70 v=104
198251 On ch=3 n=74 v=95
198376 Off ch=3 n=74 v=95
198407 Off ch=3 n=65 v=61
198409 Off ch=3 n=70 v=104
198486 On ch=3 n=65 v=79
198504 On ch=3 n=69 v=108
198508 On ch=3 n=72 v=113
198633 Off ch=3 n=65 v=79
198656 Off ch=3 n=72 v=113
198665 Off ch=3 n=69 v=108
198951 On ch=3 n=71 v=100
198952 On ch=3 n=74 v=94
198957 On ch=3 n=67 v=77
199001 Off ch=3 n=67 v=77
199010 Off ch=3 n=71 v=100
199012 Off ch=3 n=74 v=94
199065 On ch=3 n=67 v=76
199066 On ch=3 n=74 v=85
199073 On ch=3 n=71 v=88
199124 Off ch=3 n=71 v=88
199129 Off ch=3 n=74 v=85
199142 Off ch=3 n=67 v=76
199190 On ch=3 n=72 v=101
199191 On ch=3 n=67 v=70
199204 On ch=3 n=76 v=110
199329 Off ch=3 n=76 v=110
199330 Off ch=3 n=72 v=101
199340 Off ch=3 n=67 v=70
199419 On ch=3 n=67 v=72
199420 On ch=3 n=71 v=104
199421 On ch=3 n=74 v=106
199586 Off ch=3 n=67 v=72
199614 Off ch=3 n=71 v=104
199616 Off ch=3 n=74 v=106
199900 On ch=3 n=74 v=94
199900 On ch=3 n=71 v=100
199905 On ch=3 n=67 v=80
199955 Off ch=3 n=67 v=80
199960 Off ch=3 n=71 v=100
199967 Off ch=3 n=74 v=94
200024 On ch=3 n=74 v=94
200024 On ch=3 n=71 v=102
200025 On ch=3 n=67 v=84
200089 Off ch=3 n=71 v=102
200101 Off ch=3 n=74 v=94
200117 Off ch=3 n=67 v=84
200161 On ch=3 n=67 v=55
200166 On ch=3 n=72 v=101
200179 On ch=3 n=76 v=92
200293 Off ch=3 n=76 v=92
200296 Off ch=3 n=72 v=101
200322 Off ch=3 n=67 v=55
200398 On ch=3 n=67 v=76
200401 On ch=3 n=71 v=100
200402 On ch=3 n=74 v=100
200608 Off ch=3 n=67 v=76
200616 Off ch=3 n=74 v=100
200624 Off ch=3 n=71 v=100
200862 On ch=3 n=73 v=106
200863 On ch=3 n=69 v=91
200864 On ch=3 n=76 v=84
200918 Off ch=3 n=76 v=84
200922 Off ch=3 n=69 v=91
200923 Off ch=3 n=73 v=106
200982 On ch=3 n=73 v=90
200985 On ch=3 n=69 v=78
200995 On ch=3 n=76 v=76
201058 Off ch=3 n=76 v=76
201058 Off ch=3 n=69 v=78
201060 Off ch=3 n=73 v=90
201152 On ch=3 n=69 v=78
201166 On ch=3 n=78 v=79
201166 On ch=3 n=74 v=80
201288 Off ch=3 n=74 v=80
201304 Off ch=3 n=69 v=78
201306 Off ch=3 n=78 v=79
201381 On ch=3 n=69 v=70
201386 On ch=3 n=73 v=88
201397 On ch=3 n=76 v=88
201527 Off ch=3 n=69 v=70
201548 Off ch=3 n=73 v=88
201550 Off ch=3 n=76 v=88
201813 On ch=3 n=76 v=102
201814 On ch=3 n=73 v=104
201819 On ch=3 n=69 v=83
201860 Off ch=3 n=69 v=83
201869 Off ch=3 n=73 v=104
201875 Off ch=3 n=76 v=102
201926 On ch=3 n=69 v=80
201926 On ch=3 n=76 v=86
201929 On ch=3 n=73 v=87
201991 Off ch=3 n=76 v=86
201995 Off ch=3 n=73 v=87
201998 Off ch=3 n=69 v=80
202055 On ch=3 n=69 v=67
202060 On ch=3 n=78 v=102
202061 On ch=3 n=74 v=97
202175 Off ch=3 n=74 v=97
202177 Off ch=3 n=69 v=67
202177 Off ch=3 n=78 v=102
202290 On ch=3 n=73 v=97
202290 On ch=3 n=76 v=106
202298 On ch=3 n=69 v=77
202531 Off ch=3 n=69 v=77
202563 Off ch=3 n=76 v=106
202568 Off ch=3 n=73 v=97
202807 On ch=3 n=73 v=112
202808 On ch=3 n=76 v=106
202810 On ch=3 n=69 v=94
202859 Off ch=3 n=69 v=94
202864 Off ch=3 n=73 v=112
202867 Off ch=3 n=76 v=106
202932 On ch=3 n=73 v=97
202933 On ch=3 n=69 v=80
202934 On ch=3 n=76 v=102
203005 Off ch=3 n=73 v=97
203008 Off ch=3 n=76 v=102
203008 Off ch=3 n=69 v=80
203072 On ch=3 n=69 v=70
203078 On ch=3 n=74 v=98
203082 On ch=3 n=78 v=100
203191 Off ch=3 n=78 v=100
203195 Off ch=3 n=74 v=98
203198 Off ch=3 n=69 v=70
203300 On ch=3 n=73 v=94
203301 On ch=3 n=69 v=77
203304 On ch=3 n=76 v=100
203494 Off ch=3 n=69 v=77
203513 Off ch=3 n=73 v=94
203514 Off ch=3 n=76 v=100
203791 On ch=3 n=73 v=106
203792 On ch=3 n=76 v=97
203795 On ch=3 n=69 v=94
203840 Off ch=3 n=69 v=94
203847 Off ch=3 n=73 v=106
203852 Off ch=3 n=76 v=97
203920 On ch=3 n=76 v=98
203927 On ch=3 n=69 v=80
203928 On ch=3 n=73 v=94
203983 Off ch=3 n=73 v=94
203986 Off ch=3 n=69 v=80
203991 Off ch=3 n=76 v=98
204030 On ch=3 n=78 v=90
204032 On ch=3 n=69 v=86
204033 On ch=3 n=74 v=87
204128 Off ch=3 n=69 v=86
204136 Off ch=3 n=74 v=87
204140 Off ch=3 n=78 v=90
204256 On ch=3 n=76 v=104
204259 On ch=3 n=73 v=106
204261 On ch=3 n=69 v=91
204431 Off ch=3 n=69 v=91
204433 Off ch=3 n=73 v=106
204436 Off ch=3 n=76 v=104
204701 On ch=3 n=76 v=92
204702 On ch=3 n=73 v=104
204705 On ch=3 n=69 v=91
204748 Off ch=3 n=69 v=91
204755 Off ch=3 n=73 v=104
204758 Off ch=3 n=76 v=92
204843 On ch=3 n=76 v=95
204844 On ch=3 n=73 v=100
204848 On ch=3 n=69 v=79
204892 Off ch=3 n=69 v=79
204898 Off ch=3 n=73 v=100
204899 Off ch=3 n=76 v=95
204955 On ch=3 n=69 v=85
204957 On ch=3 n=76 v=98
204957 On ch=3 n=73 v=97
205075 Off ch=3 n=69 v=85
205079 Off ch=3 n=73 v=97
205086 Off ch=3 n=76 v=98
205193 On ch=3 n=76 v=106
205196 On ch=3 n=73 v=106
205199 On ch=3 n=69 v=97
205394 Off ch=3 n=69 v=97
205411 Off ch=3 n=73 v=106
205415 Off ch=3 n=76 v=106
205660 On ch=3 n=73 v=110
205661 On ch=3 n=64 v=98
205665 On ch=3 n=69 v=94
205706 Off ch=3 n=69 v=94
205715 Off ch=3 n=73 v=110
205716 Off ch=3 n=64 v=98
205805 On ch=3 n=64 v=100
205806 On ch=3 n=73 v=104
205808 On ch=3 n=69 v=85
205858 Off ch=3 n=69 v=85
205859 Off ch=3 n=73 v=104
205862 Off ch=3 n=64 v=100
205928 On ch=3 n=64 v=106
205930 On ch=3 n=73 v=106
205933 On ch=3 n=69 v=97
206036 Off ch=3 n=73 v=106
206038 Off ch=3 n=69 v=97
206045 Off ch=3 n=64 v=106
206168 On ch=3 n=64 v=112
206169 On ch=3 n=73 v=120
206171 On ch=3 n=69 v=108
206385 Off ch=3 n=69 v=108
206406 Off ch=3 n=73 v=120
206408 Off ch=3 n=64 v=112
206648 On ch=3 n=76 v=112
206648 On ch=3 n=73 v=117
206650 On ch=3 n=69 v=97
206703 Off ch=3 n=69 v=97
206708 Off ch=3 n=73 v=117
206710 Off ch=3 n=76 v=112
206787 On ch=3 n=76 v=100
206790 On ch=3 n=73 v=100
206796 On ch=3 n=69 v=80
206837 Off ch=3 n=69 v=80
206848 Off ch=3 n=73 v=100
206851 Off ch=3 n=76 v=100
206909 On ch=3 n=69 v=83
206910 On ch=3 n=73 v=102
206911 On ch=3 n=76 v=108
206996 Off ch=3 n=69 v=83
207008 Off ch=3 n=73 v=102
207016 Off ch=3 n=76 v=108
207133 On ch=3 n=76 v=114
207133 On ch=3 n=73 v=122
207135 On ch=3 n=69 v=102
207343 Off ch=3 n=69 v=102
207360 Off ch=3 n=76 v=114
207360 Off ch=3 n=73 v=122
207607 On ch=3 n=64 v=106
207607 On ch=3 n=73 v=117
207609 On ch=3 n=69 v=100
207670 Off ch=3 n=73 v=117
207670 Off ch=3 n=69 v=100
207672 Off ch=3 n=64 v=106
207747 On ch=3 n=69 v=78
207748 On ch=3 n=64 v=92
207748 On ch=3 n=73 v=91
207807 Off ch=3 n=69 v=78
207808 Off ch=3 n=64 v=92
207808 Off ch=3 n=73 v=91
207866 On ch=3 n=64 v=104
207866 On ch=3 n=69 v=86
207868 On ch=3 n=73 v=97
207966 Off ch=3 n=69 v=86
207979 Off ch=3 n=73 v=97
207981 Off ch=3 n=64 v=104
208107 On ch=3 n=64 v=112
208108 On ch=3 n=73 v=114
208108 On ch=3 n=69 v=96
208709 Off ch=3 n=69 v=96
208710 Off ch=3 n=73 v=114
208716 Off ch=3 n=64 v=112
208815 On ch=3 n=74 v=116
208816 On ch=3 n=66 v=114
208817 On ch=3 n=69 v=120
209394 Off ch=3 n=69 v=120
209409 Off ch=3 n=66 v=114
209418 Off ch=3 n=74 v=116
209514 On ch=3 n=66 v=122
209517 On ch=3 n=62 v=108
209520 On ch=3 n=69 v=100
209573 Off ch=3 n=69 v=100
209578 Off ch=3 n=66 v=122
209581 Off ch=3 n=62 v=108
209639 On ch=3 n=62 v=91
209639 On ch=3 n=66 v=92
209639 On ch=3 n=69 v=80
209701 Off ch=3 n=69 v=80
209704 Off ch=3 n=66 v=92
209712 Off ch=3 n=62 v=91
209757 On ch=3 n=62 v=86
209764 On ch=3 n=67 v=104
209765 On ch=3 n=71 v=120
209888 Off ch=3 n=71 v=120
209907 Off ch=3 n=67 v=104
209912 Off ch=3 n=62 v=86
209984 On ch=3 n=62 v=81
209986 On ch=3 n=66 v=100
209988 On ch=3 n=69 v=112
210186 Off ch=3 n=62 v=81
210196 Off ch=3 n=66 v=100
210205 Off ch=3 n=69 v=112
210707 On ch=3 n=69 v=122
210707 On ch=3 n=74 v=108
210708 On ch=3 n=66 v=117
211200 Off ch=3 n=69 v=122
211200 Off ch=3 n=74 v=108
211200 Off ch=3 n=66 v=117
211426 On ch=3 n=66 v=122
211428 On ch=3 n=69 v=110
211429 On ch=3 n=62 v=110
211486 Off ch=3 n=62 v=110
211487 Off ch=3 n=69 v=110
211488 Off ch=3 n=66 v=122
211538 On ch=3 n=69 v=78
211540 On ch=3 n=62 v=90
211547 On ch=3 n=66 v=100
211612 Off ch=3 n=66 v=100
211615 Off ch=3 n=69 v=78
211617 Off ch=3 n=62 v=90
211671 On ch=3 n=62 v=80
211679 On ch=3 n=71 v=117
211680 On ch=3 n=67 v=104
211799 Off ch=3 n=71 v=117
211816 Off ch=3 n=67 v=104
211822 Off ch=3 n=62 v=80
211901 On ch=3 n=62 v=81
211903 On ch=3 n=66 v=97
211904 On ch=3 n=69 v=100
212092 Off ch=3 n=62 v=81
212102 Off ch=3 n=69 v=100
212108 Off ch=3 n=66 v=97
212386 On ch=3 n=69 v=106
212386 On ch=3 n=66 v=114
212386 On ch=3 n=62 v=102
212441 Off ch=3 n=62 v=102
212443 Off ch=3 n=66 v=114
212450 Off ch=3 n=69 v=106
212502 On ch=3 n=69 v=75
212506 On ch=3 n=62 v=88
212506 On ch=3 n=66 v=95
212556 Off ch=3 n=66 v=95
212559 Off ch=3 n=69 v=75
212560 Off ch=3 n=62 v=88
212628 On ch=3 n=71 v=114
212629 On ch=3 n=67 v=98
212630 On ch=3 n=62 v=87
212756 Off ch=3 n=71 v=114
212768 Off ch=3 n=62 v=87
212768 Off ch=3 n=67 v=98
212863 On ch=3 n=62 v=81
212864 On ch=3 n=66 v=97
212866 On ch=3 n=69 v=106
213086 Off ch=3 n=62 v=81
213100 Off ch=3 n=69 v=106
213114 Off ch=3 n=66 v=97
213315 On ch=3 n=66 v=104
213316 On ch=3 n=62 v=94
213318 On ch=3 n=69 v=100
213371 Off ch=3 n=62 v=94
213375 Off ch=3 n=69 v=100
213376 Off ch=3 n=66 v=104
213431 On ch=3 n=69 v=98
213435 On ch=3 n=62 v=88
213437 On ch=3 n=66 v=98
213495 Off ch=3 n=66 v=98
213498 Off ch=3 n=69 v=98
213502 Off ch=3 n=62 v=88
213568 On ch=3 n=62 v=80
213569 On ch=3 n=71 v=117
213571 On ch=3 n=67 v=100
213693 Off ch=3 n=71 v=117
213710 Off ch=3 n=67 v=100
213726 Off ch=3 n=62 v=80
213802 On ch=3 n=62 v=78
213808 On ch=3 n=66 v=98
213811 On ch=3 n=69 v=106
214019 Off ch=3 n=69 v=106
214025 Off ch=3 n=62 v=78
214027 Off ch=3 n=66 v=98
214311 On ch=3 n=69 v=97
214313 On ch=3 n=66 v=92
214316 On ch=3 n=62 v=90
214406 Off ch=3 n=62 v=90
214409 Off ch=3 n=69 v=97
214411 Off ch=3 n=66 v=92
214554 On ch=3 n=59 v=102
214555 On ch=3 n=62 v=117
214557 On ch=3 n=67 v=104
215009 On ch=3 n=66 v=106
215024 Off ch=3 n=67 v=104
215355 Off ch=3 n=66 v=106
215360 Off ch=3 n=59 v=102
215393 Off ch=3 n=62 v=117
215510 On ch=3 n=64 v=95
215515 On ch=3 n=62 v=112
215520 On ch=3 n=57 v=112
216012 On ch=3 n=61 v=94
216062 Off ch=3 n=62 v=112
216428 Off ch=3 n=57 v=112
216447 Off ch=3 n=64 v=95
216451 Off ch=3 n=61 v=94
351360 Meta TrkEnd
TrkEnd
MTrk
0 Meta TrkName "Clav."
0 Meta 0x20 03
0 Meta InstrName "Clav."
0 KeySig 0 major
255 Par ch=4 c=0 v=0
260 Par ch=4 c=32 v=0
265 PrCh ch=4 p=7
270 Par ch=4 c=7 v=110
275 Par ch=4 c=10 v=64
280 Par ch=4 c=91 v=40
285 Par ch=4 c=93 v=0
290 Par ch=4 c=101 v=0
290 Par ch=4 c=100 v=0
290 Par ch=4 c=6 v=2
295 Par ch=4 c=99 v=1
295 Par ch=4 c=98 v=8
295 Par ch=4 c=6 v=64
300 Par ch=4 c=99 v=1
300 Par ch=4 c=98 v=9
300 Par ch=4 c=6 v=64
305 Par ch=4 c=99 v=1
305 Par ch=4 c=98 v=10
305 Par ch=4 c=6 v=64
310 Par ch=4 c=99 v=1
310 Par ch=4 c=98 v=32
310 Par ch=4 c=6 v=64
315 Par ch=4 c=99 v=1
315 Par ch=4 c=98 v=33
315 Par ch=4 c=6 v=64
320 Par ch=4 c=99 v=1
320 Par ch=4 c=98 v=99
320 Par ch=4 c=6 v=64
325 Par ch=4 c=99 v=1
325 Par ch=4 c=98 v=100
325 Par ch=4 c=6 v=64
330 Par ch=4 c=99 v=1
330 Par ch=4 c=98 v=102
330 Par ch=4 c=6 v=64
1920 On ch=4 n=38 v=74
1920 On ch=4 n=50 v=74
3840 On ch=4 n=74 v=84
3840 On ch=4 n=67 v=84
3956 Off ch=4 n=67 v=84
3960 On ch=4 n=69 v=84
4076 Off ch=4 n=69 v=84
4080 On ch=4 n=62 v=84
4436 Off ch=4 n=62 v=84
4436 Off ch=4 n=74 v=84
4440 On ch=4 n=60 v=84
4556 Off ch=4 n=60 v=84
4560 On ch=4 n=72 v=84
4560 On ch=4 n=65 v=84
4676 Off ch=4 n=65 v=84
4680 On ch=4 n=67 v=84
4796 Off ch=4 n=67 v=84
4800 On ch=4 n=60 v=84
5156 Off ch=4 n=60 v=84
5156 Off ch=4 n=72 v=84
5160 On ch=4 n=57 v=84
5276 Off ch=4 n=57 v=84
5280 On ch=4 n=69 v=84
5280 On ch=4 n=62 v=84
5396 Off ch=4 n=62 v=84
5400 On ch=4 n=67 v=84
5516 Off ch=4 n=67 v=84
5520 On ch=4 n=57 v=84
5636 Off ch=4 n=69 v=84
5636 Off ch=4 n=57 v=84
5640 On ch=4 n=55 v=84
5756 Off ch=4 n=55 v=84
5760 On ch=4 n=67 v=84
5760 On ch=4 n=60 v=84
5876 Off ch=4 n=60 v=84
5880 On ch=4 n=62 v=84
5996 Off ch=4 n=62 v=84
6000 On ch=4 n=55 v=84
6116 Off ch=4 n=67 v=84
6116 Off ch=4 n=55 v=84
6120 On ch=4 n=53 v=84
6236 Off ch=4 n=53 v=84
6240 On ch=4 n=65 v=84
6240 On ch=4 n=58 v=84
6356 Off ch=4 n=58 v=84
6360 On ch=4 n=60 v=84
6476 Off ch=4 n=60 v=84
6480 On ch=4 n=53 v=84
6596 Off ch=4 n=38 v=74
6596 Off ch=4 n=50 v=74
6596 Off ch=4 n=53 v=84
6600 On ch=4 n=50 v=74
6716 Off ch=4 n=65 v=84
6716 Off ch=4 n=50 v=74
6720 On ch=4 n=55 v=84
6720 On ch=4 n=62 v=84
6836 Off ch=4 n=55 v=84
6840 On ch=4 n=57 v=84
6956 Off ch=4 n=57 v=84
6960 On ch=4 n=53 v=84
7556 Off ch=4 n=62 v=84
7560 On ch=4 n=62 v=84
7676 Off ch=4 n=53 v=84
7676 Off ch=4 n=62 v=84
7680 On ch=4 n=38 v=84
7680 On ch=4 n=50 v=84
7680 On ch=4 n=67 v=84
7680 On ch=4 n=74 v=84
7796 Off ch=4 n=67 v=84
7800 On ch=4 n=69 v=84
7916 Off ch=4 n=69 v=84
7920 On ch=4 n=62 v=84
8276 Off ch=4 n=62 v=84
8276 Off ch=4 n=74 v=84
8280 On ch=4 n=60 v=84
8396 Off ch=4 n=60 v=84
8400 On ch=4 n=65 v=84
8400 On ch=4 n=72 v=84
8516 Off ch=4 n=65 v=84
8520 On ch=4 n=67 v=84
8636 Off ch=4 n=67 v=84
8640 On ch=4 n=60 v=84
8996 Off ch=4 n=60 v=84
8996 Off ch=4 n=72 v=84
9000 On ch=4 n=57 v=84
9116 Off ch=4 n=57 v=84
9120 On ch=4 n=62 v=84
9120 On ch=4 n=69 v=84
9236 Off ch=4 n=62 v=84
9240 On ch=4 n=64 v=84
9356 Off ch=4 n=64 v=84
9360 On ch=4 n=57 v=84
9716 Off ch=4 n=57 v=84
9716 Off ch=4 n=69 v=84
9720 On ch=4 n=55 v=84
9836 Off ch=4 n=55 v=84
9840 On ch=4 n=60 v=84
9840 On ch=4 n=67 v=84
9956 Off ch=4 n=60 v=84
9960 On ch=4 n=62 v=84
10076 Off ch=4 n=62 v=84
10080 On ch=4 n=55 v=84
10196 Off ch=4 n=55 v=84
10196 Off ch=4 n=67 v=84
10200 On ch=4 n=53 v=84
10316 Off ch=4 n=53 v=84
10320 On ch=4 n=58 v=84
10436 Off ch=4 n=58 v=84
10440 On ch=4 n=60 v=84
10556 Off ch=4 n=60 v=84
10560 On ch=4 n=53 v=84
10676 Off ch=4 n=53 v=84
10676 Off ch=4 n=38 v=84
10676 Off ch=4 n=50 v=84
10680 On ch=4 n=53 v=84
10796 Off ch=4 n=53 v=84
10800 On ch=4 n=55 v=84
10800 On ch=4 n=62 v=84
10916 Off ch=4 n=55 v=84
10920 On ch=4 n=57 v=84
11036 Off ch=4 n=57 v=84
11040 On ch=4 n=50 v=84
11396 Off ch=4 n=62 v=84
11400 On ch=4 n=62 v=84
11456 Off ch=4 n=62 v=84
11520 On ch=4 n=65 v=84
11576 Off ch=4 n=65 v=84
11640 On ch=4 n=62 v=84
11696 Off ch=4 n=62 v=84
11756 Off ch=4 n=50 v=84
11760 On ch=4 n=46 v=89
11760 On ch=4 n=69 v=89
11760 On ch=4 n=74 v=89
11876 Off ch=4 n=69 v=89
11876 Off ch=4 n=74 v=89
11880 On ch=4 n=70 v=84
11936 Off ch=4 n=70 v=84
11940 On ch=4 n=69 v=84
11996 Off ch=4 n=69 v=84
12000 On ch=4 n=65 v=84
12116 Off ch=4 n=65 v=84
12116 Off ch=4 n=46 v=89
12120 On ch=4 n=45 v=89
12120 On ch=4 n=72 v=89
12120 On ch=4 n=67 v=89
12356 Off ch=4 n=72 v=89
12356 Off ch=4 n=67 v=89
12360 On ch=4 n=64 v=84
12476 Off ch=4 n=45 v=89
12476 Off ch=4 n=64 v=84
12480 On ch=4 n=67 v=84
12596 Off ch=4 n=67 v=84
12600 On ch=4 n=69 v=84
12716 Off ch=4 n=69 v=84
12720 On ch=4 n=67 v=84
12760 On ch=4 n=69 v=84
12776 Off ch=4 n=67 v=84
12800 On ch=4 n=67 v=84
12816 Off ch=4 n=69 v=84
12840 On ch=4 n=64 v=84
12856 Off ch=4 n=67 v=84
12956 Off ch=4 n=64 v=84
12960 On ch=4 n=62 v=84
13076 Off ch=4 n=62 v=84
13080 On ch=4 n=64 v=84
13196 Off ch=4 n=64 v=84
13200 On ch=4 n=62 v=84
13240 On ch=4 n=64 v=84
13256 Off ch=4 n=62 v=84
13280 On ch=4 n=62 v=84
13296 Off ch=4 n=64 v=84
13320 On ch=4 n=60 v=84
13336 Off ch=4 n=62 v=84
13436 Off ch=4 n=60 v=84
13440 On ch=4 n=57 v=84
13556 Off ch=4 n=57 v=84
13560 On ch=4 n=55 v=84
13676 Off ch=4 n=55 v=84
13680 On ch=4 n=46 v=89
13680 On ch=4 n=69 v=89
13680 On ch=4 n=74 v=89
13796 Off ch=4 n=69 v=89
13796 Off ch=4 n=74 v=89
13800 On ch=4 n=70 v=84
13856 Off ch=4 n=70 v=84
13860 On ch=4 n=69 v=84
13916 Off ch=4 n=69 v=84
13920 On ch=4 n=65 v=84
14036 Off ch=4 n=65 v=84
14036 Off ch=4 n=46 v=89
14040 On ch=4 n=45 v=89
14040 On ch=4 n=72 v=89
14040 On ch=4 n=67 v=89
14276 Off ch=4 n=72 v=89
14276 Off ch=4 n=67 v=89
14280 On ch=4 n=64 v=84
14396 Off ch=4 n=45 v=89
14396 Off ch=4 n=64 v=84
14400 On ch=4 n=67 v=84
14516 Off ch=4 n=67 v=84
14520 On ch=4 n=69 v=84
14636 Off ch=4 n=69 v=84
14640 On ch=4 n=69 v=84
14696 Off ch=4 n=69 v=84
14700 On ch=4 n=67 v=84
14756 Off ch=4 n=67 v=84
14760 On ch=4 n=64 v=84
14876 Off ch=4 n=64 v=84
14880 On ch=4 n=62 v=84
14996 Off ch=4 n=62 v=84
15000 On ch=4 n=64 v=84
15116 Off ch=4 n=64 v=84
15120 On ch=4 n=69 v=84
15176 Off ch=4 n=69 v=84
15180 On ch=4 n=67 v=84
15236 Off ch=4 n=67 v=84
15240 On ch=4 n=64 v=84
15296 Off ch=4 n=64 v=84
15300 On ch=4 n=60 v=84
15360 On ch=4 n=57 v=84
15360 Off ch=4 n=60 v=84
15476 Off ch=4 n=57 v=84
15480 On ch=4 n=55 v=84
15596 Off ch=4 n=55 v=84
15600 On ch=4 n=46 v=89
15600 On ch=4 n=69 v=89
15600 On ch=4 n=74 v=89
15716 Off ch=4 n=69 v=89
15716 Off ch=4 n=74 v=89
15720 On ch=4 n=70 v=84
15776 Off ch=4 n=70 v=84
15780 On ch=4 n=69 v=84
15836 Off ch=4 n=69 v=84
15840 On ch=4 n=65 v=84
15956 Off ch=4 n=65 v=84
15956 Off ch=4 n=46 v=89
15960 On ch=4 n=72 v=89
15960 On ch=4 n=67 v=89
16080 On ch=4 n=45 v=89
16196 Off ch=4 n=72 v=89
16196 Off ch=4 n=67 v=89
16200 On ch=4 n=64 v=84
16316 Off ch=4 n=45 v=89
16316 Off ch=4 n=64 v=84
16320 On ch=4 n=67 v=83
16380 On ch=4 n=69 v=84
16436 Off ch=4 n=69 v=84
16440 On ch=4 n=67 v=84
16496 Off ch=4 n=67 v=84
16500 On ch=4 n=64 v=84
16556 Off ch=4 n=67 v=83
16556 Off ch=4 n=64 v=84
16560 On ch=4 n=43 v=89
16560 On ch=4 n=65 v=89
16560 On ch=4 n=70 v=89
16676 Off ch=4 n=65 v=89
16676 Off ch=4 n=70 v=89
16680 On ch=4 n=67 v=84
16736 Off ch=4 n=67 v=84
16740 On ch=4 n=65 v=84
16796 Off ch=4 n=65 v=84
16800 On ch=4 n=64 v=84
16916 Off ch=4 n=64 v=84
16916 Off ch=4 n=43 v=89
16920 On ch=4 n=69 v=89
16920 On ch=4 n=64 v=89
17040 On ch=4 n=41 v=89
17156 Off ch=4 n=69 v=89
17156 Off ch=4 n=64 v=89
17160 On ch=4 n=62 v=84
17220 On ch=4 n=64 v=84
17276 Off ch=4 n=41 v=89
17280 On ch=4 n=65 v=84
17280 Off ch=4 n=64 v=84
17336 Off ch=4 n=65 v=84
17340 On ch=4 n=64 v=84
17396 Off ch=4 n=64 v=84
17460 On ch=4 n=62 v=84
17516 Off ch=4 n=62 v=84
17516 Off ch=4 n=62 v=84
17520 On ch=4 n=58 v=84
17520 On ch=4 n=70 v=84
17636 Off ch=4 n=58 v=84
17636 Off ch=4 n=70 v=84
17640 On ch=4 n=55 v=84
17640 On ch=4 n=67 v=84
17756 Off ch=4 n=55 v=84
17756 Off ch=4 n=67 v=84
17760 On ch=4 n=52 v=84
17760 On ch=4 n=64 v=84
17996 Off ch=4 n=52 v=84
17996 Off ch=4 n=64 v=84
18000 On ch=4 n=50 v=84
18000 On ch=4 n=62 v=84
18116 Off ch=4 n=50 v=84
18116 Off ch=4 n=62 v=84
18120 On ch=4 n=46 v=84
18120 On ch=4 n=58 v=84
18356 Off ch=4 n=46 v=84
18356 Off ch=4 n=58 v=84
18360 On ch=4 n=43 v=84
18360 On ch=4 n=55 v=84
18416 Off ch=4 n=43 v=84
18416 Off ch=4 n=55 v=84
18420 On ch=4 n=46 v=84
18420 On ch=4 n=58 v=84
18476 Off ch=4 n=46 v=84
18476 Off ch=4 n=58 v=84
18480 On ch=4 n=43 v=84
18480 On ch=4 n=55 v=84
18596 Off ch=4 n=43 v=84
18596 Off ch=4 n=55 v=84
18600 On ch=4 n=40 v=84
18600 On ch=4 n=52 v=84
18716 Off ch=4 n=40 v=84
18716 Off ch=4 n=52 v=84
18840 On ch=4 n=45 v=84
18900 On ch=4 n=52 v=84
18960 On ch=4 n=57 v=84
19020 On ch=4 n=61 v=84
19080 On ch=4 n=64 v=84
19140 On ch=4 n=69 v=84
19916 Off ch=4 n=69 v=84
19916 Off ch=4 n=64 v=84
19916 Off ch=4 n=61 v=84
19916 Off ch=4 n=52 v=84
19916 Off ch=4 n=57 v=84
19916 Off ch=4 n=45 v=84
19920 On ch=4 n=38 v=84
19920 On ch=4 n=53 v=84
20036 Off ch=4 n=53 v=84
20040 On ch=4 n=62 v=84
20156 Off ch=4 n=62 v=84
20160 On ch=4 n=57 v=84
20276 Off ch=4 n=57 v=84
20280 On ch=4 n=62 v=84
20396 Off ch=4 n=62 v=84
20400 On ch=4 n=58 v=84
20516 Off ch=4 n=58 v=84
20520 On ch=4 n=62 v=84
20636 Off ch=4 n=62 v=84
20640 On ch=4 n=55 v=84
20756 Off ch=4 n=55 v=84
20760 On ch=4 n=62 v=84
20876 Off ch=4 n=62 v=84
20880 On ch=4 n=57 v=84
20996 Off ch=4 n=57 v=84
21000 On ch=4 n=62 v=84
21116 Off ch=4 n=62 v=84
21120 On ch=4 n=53 v=84
21236 Off ch=4 n=53 v=84
21240 On ch=4 n=62 v=84
21356 Off ch=4 n=62 v=84
21360 On ch=4 n=55 v=84
21476 Off ch=4 n=55 v=84
21480 On ch=4 n=62 v=84
21596 Off ch=4 n=38 v=84
21596 Off ch=4 n=62 v=84
21600 On ch=4 n=53 v=84
21600 On ch=4 n=52 v=84
21716 Off ch=4 n=52 v=84
21720 On ch=4 n=62 v=84
21836 Off ch=4 n=53 v=84
21836 Off ch=4 n=62 v=84
21840 On ch=4 n=38 v=84
21840 On ch=4 n=53 v=84
21956 Off ch=4 n=53 v=84
21960 On ch=4 n=62 v=84
22076 Off ch=4 n=62 v=84
22080 On ch=4 n=57 v=84
22196 Off ch=4 n=57 v=84
22200 On ch=4 n=62 v=84
22316 Off ch=4 n=62 v=84
22320 On ch=4 n=58 v=84
22436 Off ch=4 n=58 v=84
22440 On ch=4 n=62 v=84
22556 Off ch=4 n=62 v=84
22560 On ch=4 n=55 v=84
22676 Off ch=4 n=55 v=84
22680 On ch=4 n=62 v=84
22796 Off ch=4 n=62 v=84
22800 On ch=4 n=57 v=84
22916 Off ch=4 n=57 v=84
22920 On ch=4 n=62 v=84
23036 Off ch=4 n=62 v=84
23040 On ch=4 n=53 v=84
23156 Off ch=4 n=53 v=84
23160 On ch=4 n=62 v=84
23276 Off ch=4 n=62 v=84
23280 On ch=4 n=55 v=84
23396 Off ch=4 n=55 v=84
23400 On ch=4 n=62 v=84
23516 Off ch=4 n=38 v=84
23516 Off ch=4 n=62 v=84
23520 On ch=4 n=53 v=84
23520 On ch=4 n=53 v=84
23520 On ch=4 n=52 v=84
23636 Off ch=4 n=52 v=84
23640 On ch=4 n=62 v=84
23756 Off ch=4 n=53 v=84
23756 Off ch=4 n=53 v=84
23756 Off ch=4 n=62 v=84
23760 On ch=4 n=38 v=84
24000 On ch=4 n=64 v=84
24116 Off ch=4 n=64 v=84
24120 On ch=4 n=69 v=84
24236 Off ch=4 n=69 v=84
24240 On ch=4 n=65 v=84
24356 Off ch=4 n=65 v=84
24360 On ch=4 n=69 v=84
24476 Off ch=4 n=69 v=84
24480 On ch=4 n=62 v=84
24596 Off ch=4 n=62 v=84
24600 On ch=4 n=69 v=84
24716 Off ch=4 n=69 v=84
24720 On ch=4 n=64 v=84
24836 Off ch=4 n=64 v=84
24840 On ch=4 n=69 v=84
24956 Off ch=4 n=69 v=84
24960 On ch=4 n=60 v=84
25076 Off ch=4 n=60 v=84
25080 On ch=4 n=64 v=84
25196 Off ch=4 n=64 v=84
25200 On ch=4 n=62 v=84
25316 Off ch=4 n=62 v=84
25320 On ch=4 n=69 v=84
25436 Off ch=4 n=38 v=84
25436 Off ch=4 n=69 v=84
25440 On ch=4 n=50 v=84
25440 On ch=4 n=58 v=84
25556 Off ch=4 n=58 v=84
25560 On ch=4 n=69 v=84
25676 Off ch=4 n=50 v=84
25676 Off ch=4 n=69 v=84
25680 On ch=4 n=38 v=84
25680 On ch=4 n=57 v=84
25796 Off ch=4 n=57 v=84
25800 On ch=4 n=69 v=84
25916 Off ch=4 n=69 v=84
25920 On ch=4 n=64 v=84
26036 Off ch=4 n=64 v=84
26040 On ch=4 n=69 v=84
26156 Off ch=4 n=69 v=84
26160 On ch=4 n=65 v=84
26276 Off ch=4 n=65 v=84
26280 On ch=4 n=69 v=84
26396 Off ch=4 n=69 v=84
26400 On ch=4 n=62 v=84
26516 Off ch=4 n=62 v=84
26520 On ch=4 n=69 v=84
26636 Off ch=4 n=69 v=84
26640 On ch=4 n=64 v=84
26756 Off ch=4 n=64 v=84
26760 On ch=4 n=69 v=84
26876 Off ch=4 n=69 v=84
26880 On ch=4 n=60 v=84
26996 Off ch=4 n=60 v=84
27000 On ch=4 n=69 v=84
27116 Off ch=4 n=69 v=84
27120 On ch=4 n=62 v=84
27356 Off ch=4 n=38 v=84
27360 On ch=4 n=45 v=84
27596 Off ch=4 n=62 v=84
27600 On ch=4 n=38 v=84
27600 On ch=4 n=74 v=84
27720 On ch=4 n=65 v=84
27836 Off ch=4 n=65 v=84
27840 On ch=4 n=69 v=84
27956 Off ch=4 n=69 v=84
27956 Off ch=4 n=74 v=84
27960 On ch=4 n=76 v=84
28080 On ch=4 n=65 v=84
28196 Off ch=4 n=65 v=84
28200 On ch=4 n=69 v=84
28316 Off ch=4 n=76 v=84
28316 Off ch=4 n=69 v=84
28320 On ch=4 n=77 v=84
28440 On ch=4 n=65 v=84
28556 Off ch=4 n=65 v=84
28560 On ch=4 n=69 v=84
28676 Off ch=4 n=77 v=84
28676 Off ch=4 n=69 v=84
28680 On ch=4 n=76 v=84
28800 On ch=4 n=65 v=84
28916 Off ch=4 n=65 v=84
28920 On ch=4 n=69 v=84
29036 Off ch=4 n=76 v=84
29036 Off ch=4 n=69 v=84
29040 On ch=4 n=74 v=84
29160 On ch=4 n=65 v=84
29276 Off ch=4 n=65 v=84
29280 On ch=4 n=69 v=84
29396 Off ch=4 n=69 v=84
29400 On ch=4 n=65 v=84
29516 Off ch=4 n=74 v=84
29516 Off ch=4 n=65 v=84
29520 On ch=4 n=72 v=84
29640 On ch=4 n=69 v=84
29756 Off ch=4 n=69 v=84
29760 On ch=4 n=65 v=84
29876 Off ch=4 n=65 v=84
29880 On ch=4 n=69 v=84
29996 Off ch=4 n=72 v=84
29996 Off ch=4 n=38 v=84
29996 Off ch=4 n=45 v=84
29996 Off ch=4 n=69 v=84
30000 On ch=4 n=43 v=84
30000 On ch=4 n=70 v=84
30116 Off ch=4 n=70 v=84
30120 On ch=4 n=62 v=84
30236 Off ch=4 n=62 v=84
30240 On ch=4 n=67 v=84
30356 Off ch=4 n=67 v=84
30360 On ch=4 n=70 v=84
30476 Off ch=4 n=70 v=84
30480 On ch=4 n=74 v=84
30596 Off ch=4 n=74 v=84
30600 On ch=4 n=70 v=84
30716 Off ch=4 n=70 v=84
30720 On ch=4 n=67 v=84
30776 Off ch=4 n=67 v=84
30780 On ch=4 n=70 v=84
30836 Off ch=4 n=70 v=84
30840 On ch=4 n=67 v=84
30896 Off ch=4 n=67 v=84
30900 On ch=4 n=62 v=84
30956 Off ch=4 n=62 v=84
30960 On ch=4 n=70 v=84
31076 Off ch=4 n=70 v=84
31080 On ch=4 n=67 v=84
31196 Off ch=4 n=67 v=84
31200 On ch=4 n=63 v=84
31316 Off ch=4 n=63 v=84
31320 On ch=4 n=75 v=84
31436 Off ch=4 n=75 v=84
31440 On ch=4 n=63 v=84
31556 Off ch=4 n=63 v=84
31560 On ch=4 n=67 v=84
31676 Off ch=4 n=67 v=84
31680 On ch=4 n=70 v=84
31796 Off ch=4 n=70 v=84
31800 On ch=4 n=63 v=84
31916 Off ch=4 n=43 v=84
31916 Off ch=4 n=63 v=84
31920 On ch=4 n=44 v=84
31920 On ch=4 n=72 v=84
32036 Off ch=4 n=72 v=84
32040 On ch=4 n=60 v=84
32156 Off ch=4 n=60 v=84
32160 On ch=4 n=63 v=84
32276 Off ch=4 n=63 v=84
32280 On ch=4 n=68 v=84
32396 Off ch=4 n=68 v=84
32400 On ch=4 n=63 v=84
32456 Off ch=4 n=63 v=84
32460 On ch=4 n=68 v=84
32516 Off ch=4 n=68 v=84
32520 On ch=4 n=63 v=84
32576 Off ch=4 n=63 v=84
32580 On ch=4 n=60 v=84
32640 On ch=4 n=63 v=84
32640 Off ch=4 n=60 v=84
32756 Off ch=4 n=63 v=84
32760 On ch=4 n=68 v=84
32876 Off ch=4 n=44 v=84
32876 Off ch=4 n=68 v=84
32880 On ch=4 n=37 v=84
32880 On ch=4 n=49 v=84
32880 On ch=4 n=65 v=84
32996 Off ch=4 n=65 v=84
33000 On ch=4 n=68 v=84
33116 Off ch=4 n=68 v=84
33120 On ch=4 n=73 v=84
33236 Off ch=4 n=73 v=84
33240 On ch=4 n=77 v=84
33416 Off ch=4 n=77 v=84
33420 On ch=4 n=73 v=84
33536 Off ch=4 n=73 v=84
33540 On ch=4 n=73 v=84
33596 Off ch=4 n=73 v=84
33600 On ch=4 n=68 v=84
33656 Off ch=4 n=68 v=84
33660 On ch=4 n=65 v=84
33716 Off ch=4 n=37 v=84
33716 Off ch=4 n=49 v=84
33716 Off ch=4 n=65 v=84
33720 On ch=4 n=45 v=84
33720 On ch=4 n=57 v=84
33720 On ch=4 n=74 v=84
33836 Off ch=4 n=74 v=84
33840 On ch=4 n=64 v=84
33956 Off ch=4 n=64 v=84
33960 On ch=4 n=67 v=84
34076 Off ch=4 n=67 v=84
34080 On ch=4 n=69 v=84
34196 Off ch=4 n=69 v=84
34200 On ch=4 n=67 v=84
34316 Off ch=4 n=67 v=84
34320 On ch=4 n=69 v=84
34436 Off ch=4 n=69 v=84
34440 On ch=4 n=73 v=84
34556 Off ch=4 n=73 v=84
34560 On ch=4 n=67 v=84
34676 Off ch=4 n=67 v=84
34680 On ch=4 n=69 v=84
34796 Off ch=4 n=69 v=84
34800 On ch=4 n=74 v=84
34916 Off ch=4 n=74 v=84
34920 On ch=4 n=67 v=84
35036 Off ch=4 n=67 v=84
35040 On ch=4 n=69 v=84
35156 Off ch=4 n=69 v=84
35160 On ch=4 n=76 v=84
35276 Off ch=4 n=76 v=84
35280 On ch=4 n=67 v=84
35396 Off ch=4 n=67 v=84
35400 On ch=4 n=69 v=84
35516 Off ch=4 n=69 v=84
35520 On ch=4 n=65 v=84
35636 Off ch=4 n=45 v=84
35636 Off ch=4 n=57 v=84
35640 On ch=4 n=38 v=84
35640 On ch=4 n=50 v=84
35640 On ch=4 n=77 v=84
35756 Off ch=4 n=77 v=84
35760 On ch=4 n=69 v=84
35996 Off ch=4 n=65 v=84
35996 Off ch=4 n=69 v=84
36000 On ch=4 n=79 v=84
36120 On ch=4 n=69 v=84
36236 Off ch=4 n=69 v=84
36240 On ch=4 n=65 v=84
36356 Off ch=4 n=79 v=84
36356 Off ch=4 n=65 v=84
36360 On ch=4 n=77 v=84
36480 On ch=4 n=69 v=84
36596 Off ch=4 n=69 v=84
36600 On ch=4 n=65 v=84
36716 Off ch=4 n=77 v=84
36716 Off ch=4 n=65 v=84
36720 On ch=4 n=76 v=84
36840 On ch=4 n=69 v=84
36956 Off ch=4 n=69 v=84
36960 On ch=4 n=65 v=84
37076 Off ch=4 n=65 v=84
37076 Off ch=4 n=76 v=84
37080 On ch=4 n=74 v=84
37200 On ch=4 n=69 v=84
37316 Off ch=4 n=69 v=84
37320 On ch=4 n=65 v=84
37436 Off ch=4 n=65 v=84
37440 On ch=4 n=69 v=84
37556 Off ch=4 n=69 v=84
37556 Off ch=4 n=74 v=84
37560 On ch=4 n=72 v=84
37680 On ch=4 n=69 v=84
37796 Off ch=4 n=69 v=84
37800 On ch=4 n=65 v=84
37916 Off ch=4 n=65 v=84
37920 On ch=4 n=69 v=84
38036 Off ch=4 n=69 v=84
38036 Off ch=4 n=72 v=84
38036 Off ch=4 n=38 v=84
38036 Off ch=4 n=50 v=84
38040 On ch=4 n=43 v=84
38040 On ch=4 n=70 v=84
38156 Off ch=4 n=70 v=84
38160 On ch=4 n=62 v=84
38276 Off ch=4 n=62 v=84
38280 On ch=4 n=67 v=84
38396 Off ch=4 n=67 v=84
38400 On ch=4 n=70 v=84
38516 Off ch=4 n=70 v=84
38520 On ch=4 n=74 v=84
38636 Off ch=4 n=74 v=84
38640 On ch=4 n=70 v=84
38756 Off ch=4 n=70 v=84
38760 On ch=4 n=67 v=84
38816 Off ch=4 n=67 v=84
38820 On ch=4 n=70 v=84
38876 Off ch=4 n=70 v=84
38880 On ch=4 n=67 v=84
38936 Off ch=4 n=67 v=84
38940 On ch=4 n=62 v=84
38996 Off ch=4 n=62 v=84
39000 On ch=4 n=70 v=84
39116 Off ch=4 n=70 v=84
39120 On ch=4 n=67 v=84
39236 Off ch=4 n=67 v=84
39240 On ch=4 n=63 v=84
39356 Off ch=4 n=63 v=84
39360 On ch=4 n=75 v=84
39476 Off ch=4 n=75 v=84
39480 On ch=4 n=63 v=84
39596 Off ch=4 n=63 v=84
39600 On ch=4 n=67 v=84
39716 Off ch=4 n=67 v=84
39720 On ch=4 n=70 v=84
39836 Off ch=4 n=70 v=84
39840 On ch=4 n=63 v=84
39956 Off ch=4 n=63 v=84
39956 Off ch=4 n=43 v=84
39960 On ch=4 n=44 v=84
39960 On ch=4 n=72 v=84
40076 Off ch=4 n=72 v=84
40080 On ch=4 n=60 v=84
40196 Off ch=4 n=60 v=84
40200 On ch=4 n=63 v=84
40316 Off ch=4 n=63 v=84
40320 On ch=4 n=68 v=84
40436 Off ch=4 n=68 v=84
40440 On ch=4 n=63 v=84
40496 Off ch=4 n=63 v=84
40500 On ch=4 n=68 v=84
40556 Off ch=4 n=68 v=84
40560 On ch=4 n=63 v=84
40616 Off ch=4 n=63 v=84
40620 On ch=4 n=60 v=84
40676 Off ch=4 n=60 v=84
40680 On ch=4 n=63 v=84
40796 Off ch=4 n=63 v=84
40800 On ch=4 n=68 v=84
40916 Off ch=4 n=68 v=84
40916 Off ch=4 n=44 v=84
40920 On ch=4 n=37 v=84
40920 On ch=4 n=49 v=84
40920 On ch=4 n=65 v=84
41036 Off ch=4 n=65 v=84
41040 On ch=4 n=68 v=84
41156 Off ch=4 n=68 v=84
41160 On ch=4 n=73 v=84
41276 Off ch=4 n=73 v=84
41280 On ch=4 n=77 v=84
41456 Off ch=4 n=77 v=84
41460 On ch=4 n=73 v=84
41576 Off ch=4 n=73 v=84
41580 On ch=4 n=73 v=84
41636 Off ch=4 n=73 v=84
41640 On ch=4 n=68 v=84
41696 Off ch=4 n=68 v=84
41700 On ch=4 n=65 v=84
41756 Off ch=4 n=37 v=84
41756 Off ch=4 n=49 v=84
41756 Off ch=4 n=65 v=84
41760 On ch=4 n=45 v=84
41760 On ch=4 n=57 v=84
41760 On ch=4 n=74 v=84
41876 Off ch=4 n=74 v=84
41880 On ch=4 n=64 v=84
41996 Off ch=4 n=64 v=84
42000 On ch=4 n=67 v=84
42116 Off ch=4 n=67 v=84
42120 On ch=4 n=69 v=84
42236 Off ch=4 n=69 v=84
42240 On ch=4 n=67 v=84
42356 Off ch=4 n=67 v=84
42360 On ch=4 n=69 v=84
42476 Off ch=4 n=69 v=84
42480 On ch=4 n=73 v=84
42596 Off ch=4 n=73 v=84
42600 On ch=4 n=67 v=84
42716 Off ch=4 n=67 v=84
42720 On ch=4 n=69 v=84
42836 Off ch=4 n=69 v=84
42840 On ch=4 n=67 v=84
42956 Off ch=4 n=67 v=84
42960 On ch=4 n=74 v=84
43076 Off ch=4 n=74 v=84
43080 On ch=4 n=67 v=84
43196 Off ch=4 n=67 v=84
43200 On ch=4 n=76 v=84
43316 Off ch=4 n=76 v=84
43320 On ch=4 n=67 v=84
43436 Off ch=4 n=45 v=84
43436 Off ch=4 n=57 v=84
43436 Off ch=4 n=67 v=84
43440 On ch=4 n=45 v=84
43440 On ch=4 n=57 v=84
43440 On ch=4 n=73 v=84
43556 Off ch=4 n=73 v=84
43560 On ch=4 n=65 v=84
43676 Off ch=4 n=45 v=84
43676 Off ch=4 n=57 v=84
43676 Off ch=4 n=65 v=84
43680 On ch=4 n=46 v=89
43680 On ch=4 n=69 v=89
43680 On ch=4 n=74 v=89
43796 Off ch=4 n=69 v=89
43796 Off ch=4 n=74 v=89
43800 On ch=4 n=70 v=84
43856 Off ch=4 n=70 v=84
43860 On ch=4 n=69 v=84
43916 Off ch=4 n=69 v=84
43920 On ch=4 n=65 v=84
44036 Off ch=4 n=46 v=89
44036 Off ch=4 n=65 v=84
44040 On ch=4 n=45 v=89
44040 On ch=4 n=67 v=89
44040 On ch=4 n=72 v=89
44276 Off ch=4 n=67 v=89
44276 Off ch=4 n=72 v=89
44280 On ch=4 n=64 v=84
44396 Off ch=4 n=45 v=89
44396 Off ch=4 n=64 v=84
44400 On ch=4 n=67 v=84
44516 Off ch=4 n=67 v=84
44520 On ch=4 n=69 v=84
44636 Off ch=4 n=69 v=84
44640 On ch=4 n=67 v=84
44680 On ch=4 n=69 v=84
44696 Off ch=4 n=67 v=84
44720 On ch=4 n=67 v=84
44736 Off ch=4 n=69 v=84
44760 On ch=4 n=64 v=84
44776 Off ch=4 n=67 v=84
44876 Off ch=4 n=64 v=84
44880 On ch=4 n=62 v=84
44996 Off ch=4 n=62 v=84
45000 On ch=4 n=64 v=84
45116 Off ch=4 n=64 v=84
45120 On ch=4 n=62 v=84
45160 On ch=4 n=64 v=84
45176 Off ch=4 n=62 v=84
45200 On ch=4 n=62 v=84
45216 Off ch=4 n=64 v=84
45240 On ch=4 n=60 v=84
45256 Off ch=4 n=62 v=84
45356 Off ch=4 n=60 v=84
45360 On ch=4 n=57 v=84
45476 Off ch=4 n=57 v=84
45480 On ch=4 n=55 v=84
45596 Off ch=4 n=55 v=84
45600 On ch=4 n=46 v=89
45600 On ch=4 n=69 v=89
45600 On ch=4 n=74 v=89
45716 Off ch=4 n=69 v=89
45716 Off ch=4 n=74 v=89
45720 On ch=4 n=70 v=84
45776 Off ch=4 n=70 v=84
45780 On ch=4 n=69 v=84
45836 Off ch=4 n=69 v=84
45840 On ch=4 n=65 v=84
45956 Off ch=4 n=46 v=89
45956 Off ch=4 n=65 v=84
45960 On ch=4 n=45 v=89
45960 On ch=4 n=67 v=89
45960 On ch=4 n=72 v=89
46196 Off ch=4 n=67 v=89
46196 Off ch=4 n=72 v=89
46200 On ch=4 n=64 v=84
46316 Off ch=4 n=45 v=89
46316 Off ch=4 n=64 v=84
46320 On ch=4 n=67 v=84
46436 Off ch=4 n=67 v=84
46440 On ch=4 n=69 v=84
46556 Off ch=4 n=69 v=84
46560 On ch=4 n=69 v=84
46616 Off ch=4 n=69 v=84
46620 On ch=4 n=67 v=84
46676 Off ch=4 n=67 v=84
46680 On ch=4 n=64 v=84
46796 Off ch=4 n=64 v=84
46800 On ch=4 n=62 v=84
46916 Off ch=4 n=62 v=84
46920 On ch=4 n=64 v=84
47036 Off ch=4 n=64 v=84
47040 On ch=4 n=69 v=84
47096 Off ch=4 n=69 v=84
47100 On ch=4 n=67 v=84
47156 Off ch=4 n=67 v=84
47160 On ch=4 n=64 v=84
47216 Off ch=4 n=64 v=84
47220 On ch=4 n=60 v=84
47276 Off ch=4 n=60 v=84
47280 On ch=4 n=57 v=84
47396 Off ch=4 n=57 v=84
47400 On ch=4 n=55 v=84
47516 Off ch=4 n=55 v=84
47520 On ch=4 n=46 v=84
47520 On ch=4 n=69 v=84
47520 On ch=4 n=74 v=84
47636 Off ch=4 n=69 v=84
47636 Off ch=4 n=74 v=84
47640 On ch=4 n=70 v=84
47696 Off ch=4 n=70 v=84
47700 On ch=4 n=69 v=84
47756 Off ch=4 n=69 v=84
47760 On ch=4 n=65 v=84
47876 Off ch=4 n=46 v=84
47876 Off ch=4 n=65 v=84
47880 On ch=4 n=67 v=84
47880 On ch=4 n=72 v=84
48000 On ch=4 n=45 v=84
48116 Off ch=4 n=67 v=84
48116 Off ch=4 n=72 v=84
48120 On ch=4 n=64 v=84
48236 Off ch=4 n=45 v=84
48236 Off ch=4 n=64 v=84
48240 On ch=4 n=67 v=83
48300 On ch=4 n=69 v=84
48356 Off ch=4 n=69 v=84
48360 On ch=4 n=67 v=84
48416 Off ch=4 n=67 v=84
48420 On ch=4 n=64 v=84
48476 Off ch=4 n=67 v=83
48476 Off ch=4 n=64 v=84
48480 On ch=4 n=43 v=84
48480 On ch=4 n=65 v=84
48480 On ch=4 n=70 v=84
48596 Off ch=4 n=65 v=84
48596 Off ch=4 n=70 v=84
48600 On ch=4 n=67 v=84
48656 Off ch=4 n=67 v=84
48660 On ch=4 n=65 v=84
48716 Off ch=4 n=43 v=84
48716 Off ch=4 n=65 v=84
48720 On ch=4 n=64 v=84
48836 Off ch=4 n=64 v=84
48840 On ch=4 n=41 v=84
48840 On ch=4 n=64 v=84
49076 Off ch=4 n=64 v=84
49080 On ch=4 n=64 v=84
49196 Off ch=4 n=41 v=84
49196 Off ch=4 n=64 v=84
49200 On ch=4 n=67 v=84
49256 Off ch=4 n=67 v=84
49280 On ch=4 n=70 v=84
49336 Off ch=4 n=70 v=84
49360 On ch=4 n=74 v=84
49416 Off ch=4 n=74 v=84
49440 On ch=4 n=58 v=84
49440 On ch=4 n=74 v=84
49556 Off ch=4 n=58 v=84
49556 Off ch=4 n=74 v=84
49560 On ch=4 n=55 v=84
49560 On ch=4 n=67 v=84
49676 Off ch=4 n=55 v=84
49676 Off ch=4 n=67 v=84
49680 On ch=4 n=52 v=84
49680 On ch=4 n=64 v=84
49916 Off ch=4 n=52 v=84
49916 Off ch=4 n=64 v=84
49920 On ch=4 n=53 v=84
49920 On ch=4 n=62 v=84
50036 Off ch=4 n=53 v=84
50036 Off ch=4 n=62 v=84
50040 On ch=4 n=46 v=84
50040 On ch=4 n=58 v=84
50276 Off ch=4 n=46 v=84
50276 Off ch=4 n=58 v=84
50280 On ch=4 n=43 v=84
50280 On ch=4 n=55 v=84
50336 Off ch=4 n=43 v=84
50336 Off ch=4 n=55 v=84
50340 On ch=4 n=46 v=84
50340 On ch=4 n=58 v=84
50396 Off ch=4 n=46 v=84
50396 Off ch=4 n=58 v=84
50400 On ch=4 n=43 v=84
50400 On ch=4 n=55 v=84
50516 Off ch=4 n=43 v=84
50516 Off ch=4 n=55 v=84
50520 On ch=4 n=40 v=84
50520 On ch=4 n=53 v=84
50636 Off ch=4 n=40 v=84
50636 Off ch=4 n=53 v=84
50760 On ch=4 n=45 v=84
50820 On ch=4 n=52 v=84
50880 On ch=4 n=57 v=84
50880 On ch=4 n=61 v=84
50880 On ch=4 n=64 v=84
50880 On ch=4 n=69 v=84
53760 Off ch=4 n=52 v=84
53760 Off ch=4 n=57 v=84
53760 Off ch=4 n=61 v=84
53760 Off ch=4 n=64 v=84
53760 Off ch=4 n=69 v=84
53760 Off ch=4 n=45 v=84
328440 Pb ch=4 v=0
329116 On ch=4 n=59 v=127
329117 On ch=4 n=64 v=127
329364 Pb ch=4 v=235
329378 Pb ch=4 v=703
329393 Pb ch=4 v=1288
329408 Pb ch=4 v=1756
329424 Pb ch=4 v=1990
329455 Pb ch=4 v=2224
329470 Pb ch=4 v=2458
329485 Pb ch=4 v=2809
329500 Pb ch=4 v=3394
329515 Pb ch=4 v=3979
329530 Pb ch=4 v=4447
329546 Pb ch=4 v=4798
329561 Pb ch=4 v=5032
329608 Pb ch=4 v=5149
329622 Pb ch=4 v=5383
329637 Pb ch=4 v=5617
329652 Pb ch=4 v=5851
329668 Pb ch=4 v=6085
329684 Pb ch=4 v=6436
329714 Pb ch=4 v=6553
329759 Pb ch=4 v=6787
329789 Pb ch=4 v=7021
329821 Pb ch=4 v=7255
329867 Pb ch=4 v=7606
329882 Pb ch=4 v=7723
329912 Pb ch=4 v=7957
329944 Pb ch=4 v=8192
331072 Pb ch=4 v=8309
331087 Pb ch=4 v=8543
331117 Pb ch=4 v=8777
331133 Pb ch=4 v=9011
331148 Pb ch=4 v=9245
331164 Pb ch=4 v=9479
331179 Pb ch=4 v=9830
331193 Pb ch=4 v=9947
331209 Pb ch=4 v=10298
331224 Pb ch=4 v=10532
331239 Pb ch=4 v=10883
331255 Pb ch=4 v=11234
331270 Pb ch=4 v=11585
331286 Pb ch=4 v=11819
331301 Pb ch=4 v=12170
331330 Pb ch=4 v=12521
331346 Pb ch=4 v=12872
331361 Pb ch=4 v=12989
331392 Pb ch=4 v=13340
331408 Pb ch=4 v=13574
331423 Pb ch=4 v=13808
331468 Pb ch=4 v=14042
331485 Pb ch=4 v=14276
331500 Pb ch=4 v=14393
331590 Pb ch=4 v=14627
331622 Pb ch=4 v=14978
331637 Pb ch=4 v=15212
331667 Pb ch=4 v=15329
331759 Pb ch=4 v=15563
331988 Pb ch=4 v=15329
332003 Pb ch=4 v=15095
332018 Pb ch=4 v=14627
332033 Pb ch=4 v=14393
332048 Pb ch=4 v=14159
332079 Pb ch=4 v=13925
332095 Pb ch=4 v=13691
332109 Pb ch=4 v=13457
332125 Pb ch=4 v=13106
332140 Pb ch=4 v=12404
332155 Pb ch=4 v=11702
332160 Pb ch=4 v=8192
332591 Off ch=4 n=64 v=127
332603 Off ch=4 n=59 v=127
351360 Meta TrkEnd
TrkEnd
MTrk
0 Meta TrkName "Orchestra"
0 Meta 0x20 04
0 Meta InstrName "Orchestra"
0 KeySig 0 major
335 Par ch=5 c=0 v=8
340 Par ch=5 c=32 v=0
345 PrCh ch=5 p=48
350 Par ch=5 c=7 v=100
355 Par ch=5 c=10 v=64
360 Par ch=5 c=91 v=40
365 Par ch=5 c=93 v=0
370 Par ch=5 c=101 v=0
370 Par ch=5 c=100 v=0
370 Par ch=5 c=6 v=2
375 Par ch=5 c=99 v=1
375 Par ch=5 c=98 v=8
375 Par ch=5 c=6 v=64
380 Par ch=5 c=99 v=1
380 Par ch=5 c=98 v=9
380 Par ch=5 c=6 v=64
385 Par ch=5 c=99 v=1
385 Par ch=5 c=98 v=10
385 Par ch=5 c=6 v=64
390 Par ch=5 c=99 v=1
390 Par ch=5 c=98 v=32
390 Par ch=5 c=6 v=64
395 Par ch=5 c=99 v=1
395 Par ch=5 c=98 v=33
395 Par ch=5 c=6 v=64
400 Par ch=5 c=99 v=1
400 Par ch=5 c=98 v=99
400 Par ch=5 c=6 v=64
405 Par ch=5 c=99 v=1
405 Par ch=5 c=98 v=100
405 Par ch=5 c=6 v=64
410 Par ch=5 c=99 v=1
410 Par ch=5 c=98 v=102
410 Par ch=5 c=6 v=64
216480 On ch=5 n=57 v=69
216480 On ch=5 n=62 v=84
216480 On ch=5 n=65 v=84
218396 Off ch=5 n=62 v=84
218396 Off ch=5 n=65 v=84
218400 On ch=5 n=58 v=84
218400 On ch=5 n=62 v=84
218400 On ch=5 n=67 v=84
218400 On ch=5 n=70 v=84
218401 Off ch=5 n=57 v=69
220076 Off ch=5 n=58 v=84
220076 Off ch=5 n=62 v=84
220076 Off ch=5 n=67 v=84
220076 Off ch=5 n=70 v=84
220080 On ch=5 n=58 v=84
220080 On ch=5 n=62 v=84
220080 On ch=5 n=67 v=84
220080 On ch=5 n=70 v=84
220316 Off ch=5 n=58 v=84
220316 Off ch=5 n=62 v=84
220316 Off ch=5 n=67 v=84
220316 Off ch=5 n=70 v=84
220320 On ch=5 n=58 v=84
220320 On ch=5 n=62 v=84
220320 On ch=5 n=67 v=84
220320 On ch=5 n=70 v=84
221996 Off ch=5 n=58 v=84
221996 Off ch=5 n=62 v=84
221996 Off ch=5 n=67 v=84
221996 Off ch=5 n=70 v=84
222000 On ch=5 n=62 v=84
222000 On ch=5 n=65 v=84
222000 On ch=5 n=70 v=84
222236 Off ch=5 n=62 v=84
222236 Off ch=5 n=65 v=84
222236 Off ch=5 n=70 v=84
222240 On ch=5 n=62 v=84
222240 On ch=5 n=64 v=84
222240 On ch=5 n=69 v=84
223196 Off ch=5 n=62 v=84
223200 On ch=5 n=61 v=84
224156 Off ch=5 n=64 v=84
224156 Off ch=5 n=69 v=84
224156 Off ch=5 n=61 v=84
224160 On ch=5 n=57 v=93
224160 On ch=5 n=62 v=84
224160 On ch=5 n=65 v=84
225116 Off ch=5 n=62 v=84
225116 Off ch=5 n=65 v=84
225120 On ch=5 n=62 v=84
225120 On ch=5 n=65 v=84
225120 On ch=5 n=69 v=84
226076 Off ch=5 n=62 v=84
226076 Off ch=5 n=65 v=84
226076 Off ch=5 n=69 v=84
226080 On ch=5 n=62 v=84
226080 On ch=5 n=67 v=84
226080 On ch=5 n=70 v=84
226087 Off ch=5 n=57 v=93
227756 Off ch=5 n=62 v=84
227756 Off ch=5 n=67 v=84
227756 Off ch=5 n=70 v=84
227760 On ch=5 n=58 v=84
227760 On ch=5 n=62 v=84
227996 Off ch=5 n=58 v=84
227996 Off ch=5 n=62 v=84
228000 On ch=5 n=62 v=84
228000 On ch=5 n=64 v=84
229916 Off ch=5 n=62 v=84
229916 Off ch=5 n=64 v=84
229920 On ch=5 n=61 v=84
229920 On ch=5 n=64 v=84
231836 Off ch=5 n=61 v=84
231836 Off ch=5 n=64 v=84
231840 On ch=5 n=67 v=85
231840 On ch=5 n=64 v=83
231840 On ch=5 n=62 v=82
231840 On ch=5 n=70 v=84
233745 Off ch=5 n=64 v=83
233756 Off ch=5 n=70 v=84
233760 Off ch=5 n=67 v=85
233760 Off ch=5 n=62 v=82
233760 On ch=5 n=62 v=84
233760 On ch=5 n=64 v=84
233760 On ch=5 n=67 v=84
234240 On ch=5 n=58 v=84
235676 Off ch=5 n=58 v=84
235676 Off ch=5 n=62 v=84
235676 Off ch=5 n=64 v=84
235676 Off ch=5 n=67 v=84
235680 On ch=5 n=57 v=84
235680 On ch=5 n=62 v=84
235680 On ch=5 n=64 v=84
237596 Off ch=5 n=57 v=84
237596 Off ch=5 n=62 v=84
237596 Off ch=5 n=64 v=84
237600 On ch=5 n=45 v=84
237600 On ch=5 n=57 v=84
237600 On ch=5 n=61 v=84
237600 On ch=5 n=64 v=84
237600 On ch=5 n=69 v=84
239516 Off ch=5 n=45 v=84
239516 Off ch=5 n=57 v=84
239516 Off ch=5 n=61 v=84
239516 Off ch=5 n=64 v=84
239516 Off ch=5 n=69 v=84
239520 On ch=5 n=67 v=82
239520 On ch=5 n=64 v=82
239520 On ch=5 n=62 v=83
239520 On ch=5 n=70 v=84
241436 Off ch=5 n=70 v=84
241440 Off ch=5 n=67 v=82
241440 Off ch=5 n=64 v=82
241440 Off ch=5 n=62 v=83
241440 On ch=5 n=62 v=84
241440 On ch=5 n=64 v=84
241440 On ch=5 n=67 v=84
241920 On ch=5 n=58 v=84
243356 Off ch=5 n=58 v=84
243356 Off ch=5 n=62 v=84
243356 Off ch=5 n=64 v=84
243356 Off ch=5 n=67 v=84
243360 On ch=5 n=57 v=84
243360 On ch=5 n=62 v=84
243360 On ch=5 n=64 v=84
245276 Off ch=5 n=57 v=84
245276 Off ch=5 n=62 v=84
245276 Off ch=5 n=64 v=84
245280 On ch=5 n=57 v=84
245280 On ch=5 n=61 v=84
245280 On ch=5 n=64 v=84
245280 On ch=5 n=69 v=84
247196 Off ch=5 n=57 v=84
247196 Off ch=5 n=61 v=84
247196 Off ch=5 n=64 v=84
247196 Off ch=5 n=69 v=84
247200 On ch=5 n=57 v=84
247200 On ch=5 n=62 v=84
247200 On ch=5 n=65 v=84
248156 Off ch=5 n=57 v=84
248156 Off ch=5 n=62 v=84
248156 Off ch=5 n=65 v=84
248160 On ch=5 n=57 v=85
248160 On ch=5 n=62 v=85
248160 On ch=5 n=65 v=85
248160 On ch=5 n=69 v=85
249116 Off ch=5 n=57 v=85
249116 Off ch=5 n=62 v=85
249116 Off ch=5 n=65 v=85
249116 Off ch=5 n=69 v=85
249120 On ch=5 n=58 v=86
249120 On ch=5 n=62 v=86
249120 On ch=5 n=67 v=86
249120 On ch=5 n=70 v=86
251036 Off ch=5 n=58 v=86
251036 Off ch=5 n=62 v=86
251036 Off ch=5 n=67 v=86
251036 Off ch=5 n=70 v=86
251040 On ch=5 n=57 v=90
251040 On ch=5 n=62 v=90
251040 On ch=5 n=66 v=90
251996 Off ch=5 n=57 v=90
251996 Off ch=5 n=62 v=90
251996 Off ch=5 n=66 v=90
252000 On ch=5 n=59 v=92
252000 On ch=5 n=64 v=92
252000 On ch=5 n=68 v=92
252956 Off ch=5 n=59 v=92
252956 Off ch=5 n=64 v=92
252956 Off ch=5 n=68 v=92
252960 On ch=5 n=61 v=94
252960 On ch=5 n=64 v=94
252960 On ch=5 n=66 v=94
252960 On ch=5 n=70 v=94
254876 Off ch=5 n=61 v=94
254876 Off ch=5 n=64 v=94
254876 Off ch=5 n=66 v=94
254876 Off ch=5 n=70 v=94
254880 On ch=5 n=59 v=121
254880 On ch=5 n=62 v=94
254880 On ch=5 n=66 v=94
254880 On ch=5 n=71 v=94
255836 Off ch=5 n=62 v=94
255836 Off ch=5 n=66 v=94
255836 Off ch=5 n=71 v=94
255840 On ch=5 n=62 v=93
255840 On ch=5 n=66 v=94
256316 Off ch=5 n=66 v=94
256320 On ch=5 n=69 v=94
256788 Off ch=5 n=62 v=93
256796 Off ch=5 n=69 v=94
256800 On ch=5 n=62 v=94
256800 On ch=5 n=67 v=94
257746 Off ch=5 n=59 v=121
257756 Off ch=5 n=62 v=94
257756 Off ch=5 n=67 v=94
257760 On ch=5 n=59 v=94
257760 On ch=5 n=62 v=94
257760 On ch=5 n=67 v=94
258716 Off ch=5 n=59 v=94
258716 Off ch=5 n=62 v=94
258716 Off ch=5 n=67 v=94
258720 On ch=5 n=57 v=90
258720 On ch=5 n=62 v=90
258720 On ch=5 n=64 v=90
260636 Off ch=5 n=57 v=90
260636 Off ch=5 n=62 v=90
260636 Off ch=5 n=64 v=90
260640 On ch=5 n=57 v=88
260640 On ch=5 n=61 v=88
260640 On ch=5 n=64 v=88
262556 Off ch=5 n=57 v=88
262556 Off ch=5 n=61 v=88
262556 Off ch=5 n=64 v=88
262560 On ch=5 n=38 v=84
262560 On ch=5 n=62 v=92
262560 On ch=5 n=50 v=84
262560 On ch=5 n=57 v=84
262620 On ch=5 n=60 v=84
262631 Off ch=5 n=62 v=92
262676 Off ch=5 n=60 v=84
262680 On ch=5 n=62 v=84
266396 Off ch=5 n=62 v=84
266396 Off ch=5 n=57 v=84
270120 Par ch=5 c=5 v=12
270236 Off ch=5 n=38 v=84
270236 Off ch=5 n=50 v=84
332170 Pb ch=5 v=12170
332186 Pb ch=5 v=11585
332202 Pb ch=5 v=11117
332217 Pb ch=5 v=10532
332231 Pb ch=5 v=9947
332247 Pb ch=5 v=9479
332262 Pb ch=5 v=9128
332277 Pb ch=5 v=8660
332292 Pb ch=5 v=8192
332640 Par ch=5 c=65 v=127
332761 On ch=5 n=66 v=2
332794 Off ch=5 n=66 v=2
333120 Par ch=5 c=5 v=88
334596 On ch=5 n=95 v=127
339240 Par ch=5 c=99 v=1
339240 Par ch=5 c=98 v=9
339240 Par ch=5 c=6 v=127
339240 Par ch=5 c=38 v=0
339360 Par ch=5 c=99 v=1
339360 Par ch=5 c=98 v=8
339360 Par ch=5 c=6 v=127
339360 Par ch=5 c=38 v=0
343200 Par ch=5 c=5 v=106
343205 On ch=5 n=36 v=93
343228 Off ch=5 n=95 v=127
350408 Off ch=5 n=36 v=93
350880 Par ch=5 c=65 v=0
351164 Par ch=5 c=99 v=1
351164 Par ch=5 c=98 v=8
351164 Par ch=5 c=6 v=0
351164 Par ch=5 c=38 v=0
351278 Par ch=5 c=99 v=1
351278 Par ch=5 c=98 v=9
351278 Par ch=5 c=6 v=0
351278 Par ch=5 c=38 v=0
351360 Meta TrkEnd
TrkEnd
MTrk
0 Meta TrkName "Organ 1"
0 Meta 0x20 05
0 Meta InstrName "Organ 1"
0 KeySig 0 major
415 Par ch=6 c=0 v=0
420 Par ch=6 c=32 v=0
425 PrCh ch=6 p=16
430 Par ch=6 c=7 v=100
435 Par ch=6 c=10 v=64
440 Par ch=6 c=91 v=40
445 Par ch=6 c=93 v=0
450 Par ch=6 c=101 v=0
450 Par ch=6 c=100 v=0
450 Par ch=6 c=6 v=2
455 Par ch=6 c=99 v=1
455 Par ch=6 c=98 v=8
455 Par ch=6 c=6 v=64
460 Par ch=6 c=99 v=1
460 Par ch=6 c=98 v=9
460 Par ch=6 c=6 v=64
465 Par ch=6 c=99 v=1
465 Par ch=6 c=98 v=10
465 Par ch=6 c=6 v=64
470 Par ch=6 c=99 v=1
470 Par ch=6 c=98 v=32
470 Par ch=6 c=6 v=64
475 Par ch=6 c=99 v=1
475 Par ch=6 c=98 v=33
475 Par ch=6 c=6 v=64
480 Par ch=6 c=99 v=1
480 Par ch=6 c=98 v=99
480 Par ch=6 c=6 v=64
485 Par ch=6 c=99 v=1
485 Par ch=6 c=98 v=100
485 Par ch=6 c=6 v=64
490 Par ch=6 c=99 v=1
490 Par ch=6 c=98 v=102
490 Par ch=6 c=6 v=64
50760 Pb ch=6 v=4465
50880 On ch=6 n=49 v=87
50883 On ch=6 n=45 v=94
50887 On ch=6 n=52 v=83
51125 Pb ch=6 v=4564
51184 Pb ch=6 v=4915
51198 Pb ch=6 v=5149
51213 Pb ch=6 v=5383
51227 Pb ch=6 v=5617
51238 Pb ch=6 v=5734
51248 Pb ch=6 v=5968
51268 Pb ch=6 v=6202
51279 Pb ch=6 v=6319
51289 Pb ch=6 v=6553
51299 Pb ch=6 v=6787
51309 Pb ch=6 v=6904
51329 Pb ch=6 v=7138
51349 Pb ch=6 v=7372
51369 Pb ch=6 v=7489
51379 Pb ch=6 v=7723
51389 Pb ch=6 v=7957
51399 Pb ch=6 v=8074
51409 Pb ch=6 v=8192
53747 Off ch=6 n=45 v=94
53751 Off ch=6 n=52 v=83
53757 Off ch=6 n=49 v=87
270240 On ch=6 n=50 v=84
270240 On ch=6 n=57 v=84
270240 On ch=6 n=62 v=84
274076 Off ch=6 n=50 v=84
274076 Off ch=6 n=57 v=84
274076 Off ch=6 n=62 v=84
274080 On ch=6 n=50 v=84
274080 On ch=6 n=57 v=84
274080 On ch=6 n=62 v=84
277916 Off ch=6 n=50 v=84
277916 Off ch=6 n=57 v=84
277916 Off ch=6 n=62 v=84
277920 On ch=6 n=50 v=84
277920 On ch=6 n=57 v=84
277920 On ch=6 n=62 v=84
281756 Off ch=6 n=50 v=84
281756 Off ch=6 n=57 v=84
281756 Off ch=6 n=62 v=84
281760 On ch=6 n=50 v=84
281760 On ch=6 n=57 v=84
281760 On ch=6 n=62 v=84
288716 Off ch=6 n=50 v=84
288716 Off ch=6 n=57 v=84
288716 Off ch=6 n=62 v=84
288720 On ch=6 n=48 v=84
288720 On ch=6 n=60 v=84
288724 On ch=6 n=55 v=85
290636 Off ch=6 n=48 v=84
290636 Off ch=6 n=60 v=84
290637 On ch=6 n=54 v=72
290640 Off ch=6 n=55 v=85
290640 On ch=6 n=47 v=84
290640 On ch=6 n=59 v=84
292556 Off ch=6 n=47 v=84
292556 Off ch=6 n=59 v=84
292557 On ch=6 n=53 v=69
292560 On ch=6 n=46 v=84
292560 On ch=6 n=58 v=84
292561 Off ch=6 n=54 v=72
293516 Off ch=6 n=46 v=84
293516 Off ch=6 n=58 v=84
293518 On ch=6 n=52 v=72
293519 Off ch=6 n=53 v=69
293520 On ch=6 n=45 v=84
293520 On ch=6 n=57 v=84
294476 Off ch=6 n=45 v=84
294476 Off ch=6 n=57 v=84
294478 Off ch=6 n=52 v=72
294479 On ch=6 n=57 v=86
294480 On ch=6 n=50 v=84
294480 On ch=6 n=62 v=84
296392 Off ch=6 n=57 v=86
296396 Off ch=6 n=50 v=84
296396 Off ch=6 n=62 v=84
296397 On ch=6 n=55 v=88
296400 On ch=6 n=48 v=84
296400 On ch=6 n=60 v=84
298316 Off ch=6 n=48 v=84
298316 Off ch=6 n=60 v=84
298318 Off ch=6 n=55 v=88
298320 On ch=6 n=47 v=84
298320 On ch=6 n=59 v=84
298321 On ch=6 n=54 v=84
300236 Off ch=6 n=47 v=84
300236 Off ch=6 n=59 v=84
300239 Off ch=6 n=54 v=84
300240 On ch=6 n=53 v=84
300240 On ch=6 n=46 v=84
300240 On ch=6 n=58 v=84
301193 Off ch=6 n=53 v=84
301196 Off ch=6 n=46 v=84
301196 Off ch=6 n=58 v=84
301199 On ch=6 n=52 v=85
301200 On ch=6 n=45 v=84
301200 On ch=6 n=57 v=84
302156 Off ch=6 n=45 v=84
302156 Off ch=6 n=57 v=84
302160 Off ch=6 n=52 v=85
302160 On ch=6 n=53 v=86
302160 On ch=6 n=46 v=84
302160 On ch=6 n=58 v=84
304076 Off ch=6 n=46 v=84
304076 Off ch=6 n=58 v=84
304080 On ch=6 n=60 v=84
304080 On ch=6 n=48 v=84
304081 Off ch=6 n=53 v=86
304083 On ch=6 n=55 v=88
305986 Off ch=6 n=55 v=88
305996 Off ch=6 n=60 v=84
305996 Off ch=6 n=48 v=84
305997 On ch=6 n=54 v=86
306000 On ch=6 n=47 v=84
306000 On ch=6 n=59 v=84
307915 Off ch=6 n=54 v=86
307916 Off ch=6 n=47 v=84
307916 Off ch=6 n=59 v=84
307920 On ch=6 n=46 v=84
307920 On ch=6 n=58 v=84
307923 On ch=6 n=53 v=85
308636 Off ch=6 n=46 v=84
308636 Off ch=6 n=58 v=84
308638 Off ch=6 n=53 v=85
308640 On ch=6 n=45 v=84
308640 On ch=6 n=57 v=84
308641 On ch=6 n=52 v=82
309715 Off ch=6 n=52 v=82
309716 Off ch=6 n=45 v=84
309716 Off ch=6 n=57 v=84
309720 On ch=6 n=50 v=105
309720 On ch=6 n=62 v=90
309725 On ch=6 n=57 v=91
316867 Off ch=6 n=50 v=105
316876 Off ch=6 n=57 v=91
316893 Off ch=6 n=62 v=90
322680 Par ch=6 c=1 v=127
322894 On ch=6 n=45 v=124
323009 On ch=6 n=47 v=81
323066 On ch=6 n=42 v=74
323127 On ch=6 n=39 v=92
335156 Off ch=6 n=45 v=124
335422 Off ch=6 n=39 v=92
341272 Off ch=6 n=47 v=81
341287 Off ch=6 n=42 v=74
351360 Meta TrkEnd
TrkEnd
MTrk
0 Meta TrkName "Explosion"
0 Meta 0x20 06
0 Meta InstrName "Explosion"
0 KeySig 0 major
495 Par ch=7 c=0 v=3
500 Par ch=7 c=32 v=0
505 PrCh ch=7 p=127
510 Par ch=7 c=7 v=100
515 Par ch=7 c=10 v=64
520 Par ch=7 c=91 v=40
525 Par ch=7 c=93 v=0
530 Par ch=7 c=101 v=0
530 Par ch=7 c=100 v=0
530 Par ch=7 c=6 v=2
535 Par ch=7 c=99 v=1
535 Par ch=7 c=98 v=8
535 Par ch=7 c=6 v=64
540 Par ch=7 c=99 v=1
540 Par ch=7 c=98 v=9
540 Par ch=7 c=6 v=64
545 Par ch=7 c=99 v=1
545 Par ch=7 c=98 v=10
545 Par ch=7 c=6 v=64
550 Par ch=7 c=99 v=1
550 Par ch=7 c=98 v=32
550 Par ch=7 c=6 v=64
555 Par ch=7 c=99 v=1
555 Par ch=7 c=98 v=33
555 Par ch=7 c=6 v=64
560 Par ch=7 c=99 v=1
560 Par ch=7 c=98 v=99
560 Par ch=7 c=6 v=64
565 Par ch=7 c=99 v=1
565 Par ch=7 c=98 v=100
565 Par ch=7 c=6 v=64
570 Par ch=7 c=99 v=1
570 Par ch=7 c=98 v=102
570 Par ch=7 c=6 v=64
324480 KeySig -1 major
325680 On ch=7 n=58 v=94
327596 Off ch=7 n=58 v=94
327600 On ch=7 n=58 v=94
329516 Off ch=7 n=58 v=94
329520 On ch=7 n=58 v=94
331436 Off ch=7 n=58 v=94
331440 On ch=7 n=58 v=94
333250 Par ch=7 c=0 v=5
333250 Par ch=7 c=32 v=0
335276 Off ch=7 n=58 v=94
336000 KeySig 0 major
337218 Par ch=7 c=0 v=3
337219 Par ch=7 c=32 v=0
337708 Par ch=7 c=0 v=3
337709 Par ch=7 c=32 v=0
338765 On ch=7 n=60 v=120
342210 Off ch=7 n=60 v=120
342469 On ch=7 n=56 v=127
349113 Off ch=7 n=56 v=127
351360 Meta TrkEnd
TrkEnd
MTrk
0 Meta TrkName "Siren"
0 Meta 0x20 07
0 Meta InstrName "Siren"
0 KeySig 0 major
575 Par ch=8 c=0 v=5
580 Par ch=8 c=32 v=0
585 PrCh ch=8 p=125
590 Par ch=8 c=7 v=100
595 Par ch=8 c=10 v=64
600 Par ch=8 c=91 v=40
605 Par ch=8 c=93 v=0
610 Par ch=8 c=101 v=0
610 Par ch=8 c=100 v=0
610 Par ch=8 c=6 v=2
615 Par ch=8 c=99 v=1
615 Par ch=8 c=98 v=8
615 Par ch=8 c=6 v=64
620 Par ch=8 c=99 v=1
620 Par ch=8 c=98 v=9
620 Par ch=8 c=6 v=64
625 Par ch=8 c=99 v=1
625 Par ch=8 c=98 v=10
625 Par ch=8 c=6 v=64
630 Par ch=8 c=99 v=1
630 Par ch=8 c=98 v=32
630 Par ch=8 c=6 v=64
635 Par ch=8 c=99 v=1
635 Par ch=8 c=98 v=33
635 Par ch=8 c=6 v=64
640 Par ch=8 c=99 v=1
640 Par ch=8 c=98 v=99
640 Par ch=8 c=6 v=64
645 Par ch=8 c=99 v=1
645 Par ch=8 c=98 v=100
645 Par ch=8 c=6 v=64
650 Par ch=8 c=99 v=1
650 Par ch=8 c=98 v=102
650 Par ch=8 c=6 v=64
332760 Par ch=8 c=10 v=0
333527 On ch=8 n=67 v=117
336371 Par ch=8 c=10 v=1
336496 Par ch=8 c=7 v=99
336555 Par ch=8 c=10 v=3
336600 Par ch=8 c=10 v=6
336799 Par ch=8 c=10 v=8
336844 Par ch=8 c=10 v=11
336951 Par ch=8 c=10 v=13
336969 Par ch=8 c=7 v=97
337043 Par ch=8 c=10 v=16
337073 Par ch=8 c=10 v=19
337119 Par ch=8 c=10 v=22
337180 Par ch=8 c=10 v=24
337332 Par ch=8 c=10 v=27
337409 Par ch=8 c=10 v=29
337624 Par ch=8 c=10 v=32
337761 Par ch=8 c=10 v=34
337883 Par ch=8 c=10 v=37
337943 Par ch=8 c=10 v=39
338020 Par ch=8 c=10 v=42
338097 Par ch=8 c=10 v=44
338157 Par ch=8 c=10 v=47
338218 Par ch=8 c=10 v=49
338325 Par ch=8 c=10 v=52
338329 Par ch=8 c=7 v=99
338359 Par ch=8 c=7 v=102
338374 Par ch=8 c=7 v=103
338389 Par ch=8 c=7 v=105
338401 Par ch=8 c=10 v=55
338435 Par ch=8 c=7 v=108
338448 Par ch=8 c=10 v=57
338492 Par ch=8 c=10 v=60
338527 Par ch=8 c=7 v=110
338600 Par ch=8 c=10 v=62
338675 Par ch=8 c=10 v=65
338742 Par ch=8 c=10 v=68
338783 Par ch=8 c=10 v=70
338832 Par ch=8 c=7 v=113
338920 Par ch=8 c=10 v=73
339043 Par ch=8 c=10 v=75
339148 Par ch=8 c=10 v=78
339270 Par ch=8 c=10 v=80
339409 Par ch=8 c=10 v=83
339473 Par ch=8 c=7 v=110
339562 Par ch=8 c=10 v=85
339653 Par ch=8 c=10 v=88
339714 Par ch=8 c=10 v=91
339928 Par ch=8 c=10 v=94
340004 Par ch=8 c=10 v=96
340160 Par ch=8 c=7 v=108
340172 Par ch=8 c=10 v=99
340217 Par ch=8 c=10 v=101
340268 Par ch=8 c=7 v=105
340279 Par ch=8 c=10 v=104
340328 Par ch=8 c=7 v=101
340339 Par ch=8 c=10 v=106
340344 Par ch=8 c=7 v=100
340358 Par ch=8 c=7 v=98
340374 Par ch=8 c=7 v=97
340388 Par ch=8 c=7 v=95
340404 Par ch=8 c=7 v=93
340416 Par ch=8 c=10 v=109
340419 Par ch=8 c=7 v=92
340434 Par ch=8 c=7 v=90
340449 Par ch=8 c=7 v=89
340461 Par ch=8 c=10 v=112
340480 Par ch=8 c=7 v=86
340527 Par ch=8 c=7 v=84
340604 Par ch=8 c=7 v=81
340679 Par ch=8 c=7 v=79
340706 Par ch=8 c=10 v=109
340752 Par ch=8 c=10 v=106
340756 Par ch=8 c=7 v=76
340797 Par ch=8 c=10 v=104
340801 Par ch=8 c=7 v=73
340847 Par ch=8 c=7 v=71
340969 Par ch=8 c=7 v=68
341060 Par ch=8 c=7 v=66
341152 Par ch=8 c=7 v=63
341197 Par ch=8 c=7 v=60
341275 Par ch=8 c=7 v=58
341286 Par ch=8 c=10 v=99
341301 Par ch=8 c=10 v=96
341316 Par ch=8 c=10 v=93
341332 Par ch=8 c=10 v=90
341348 Par ch=8 c=10 v=88
341362 Par ch=8 c=10 v=86
341377 Par ch=8 c=10 v=85
341393 Par ch=8 c=10 v=83
341457 Par ch=8 c=7 v=55
341469 Par ch=8 c=10 v=81
341545 Par ch=8 c=10 v=78
341560 Par ch=8 c=10 v=76
341606 Par ch=8 c=10 v=74
341640 Par ch=8 c=7 v=52
341655 Par ch=8 c=7 v=51
341667 Par ch=8 c=10 v=71
341702 Par ch=8 c=7 v=48
341806 Par ch=8 c=10 v=68
341850 Par ch=8 c=10 v=65
341885 Par ch=8 c=7 v=45
341896 Par ch=8 c=10 v=63
341942 Par ch=8 c=10 v=60
341946 Par ch=8 c=7 v=43
342018 Par ch=8 c=10 v=57
342022 Par ch=8 c=7 v=40
342083 Par ch=8 c=7 v=38
342159 Par ch=8 c=7 v=35
342171 Par ch=8 c=10 v=54
342204 Par ch=8 c=7 v=33
342217 Par ch=8 c=10 v=51
342251 Par ch=8 c=7 v=30
342262 Par ch=8 c=10 v=48
342312 Par ch=8 c=7 v=27
342358 Par ch=8 c=7 v=24
342385 Par ch=8 c=10 v=46
342420 Par ch=8 c=7 v=22
342460 Par ch=8 c=10 v=43
342495 Par ch=8 c=7 v=19
342587 Par ch=8 c=7 v=17
342628 Par ch=8 c=10 v=41
342648 Par ch=8 c=7 v=14
342663 Par ch=8 c=7 v=13
342675 Par ch=8 c=10 v=38
342708 Par ch=8 c=7 v=10
342751 Par ch=8 c=10 v=35
342753 Par ch=8 c=7 v=7
342785 Par ch=8 c=7 v=5
342842 Par ch=8 c=10 v=33
342888 Par ch=8 c=10 v=30
342908 Par ch=8 c=7 v=2
342949 Par ch=8 c=10 v=28
343181 Off ch=8 n=67 v=117
343194 Par ch=8 c=10 v=25
343239 Par ch=8 c=10 v=23
343331 Par ch=8 c=10 v=20
343408 Par ch=8 c=10 v=18
343514 Par ch=8 c=10 v=15
343575 Par ch=8 c=10 v=12
345360 Par ch=8 c=10 v=64
350400 Par ch=8 c=7 v=90
351360 Meta TrkEnd
TrkEnd
MTrk
0 Meta TrkName "Dry Set"
0 Meta 0x20 09
0 Meta InstrName "Dry Set"
0 KeySig 0 major
655 PrCh ch=10 p=0
660 Par ch=10 c=7 v=100
665 Par ch=10 c=10 v=64
670 Par ch=10 c=91 v=40
675 Par ch=10 c=93 v=0
680 Par ch=10 c=101 v=0
680 Par ch=10 c=100 v=0
680 Par ch=10 c=6 v=2
685 Par ch=10 c=99 v=1
685 Par ch=10 c=98 v=8
685 Par ch=10 c=6 v=64
690 Par ch=10 c=99 v=1
690 Par ch=10 c=98 v=9
690 Par ch=10 c=6 v=64
695 Par ch=10 c=99 v=1
695 Par ch=10 c=98 v=10
695 Par ch=10 c=6 v=64
700 Par ch=10 c=99 v=1
700 Par ch=10 c=98 v=32
700 Par ch=10 c=6 v=64
705 Par ch=10 c=99 v=1
705 Par ch=10 c=98 v=33
705 Par ch=10 c=6 v=64
710 Par ch=10 c=99 v=1
710 Par ch=10 c=98 v=99
710 Par ch=10 c=6 v=64
715 Par ch=10 c=99 v=1
715 Par ch=10 c=98 v=100
715 Par ch=10 c=6 v=64
720 Par ch=10 c=99 v=1
720 Par ch=10 c=98 v=102
720 Par ch=10 c=6 v=64
151196 On ch=10 n=35 v=112
151197 On ch=10 n=57 v=106
151197 On ch=10 n=43 v=112
151291 Off ch=10 n=43 v=112
151298 Off ch=10 n=35 v=112
151336 Off ch=10 n=57 v=106
160557 On ch=10 n=49 v=123
160557 On ch=10 n=43 v=100
160558 On ch=10 n=35 v=102
160660 Off ch=10 n=35 v=102
160673 Off ch=10 n=43 v=100
160711 Off ch=10 n=49 v=123
160796 On ch=10 n=57 v=102
160797 On ch=10 n=43 v=112
160798 On ch=10 n=35 v=112
160936 Off ch=10 n=35 v=112
160958 Off ch=10 n=43 v=112
161036 Off ch=10 n=57 v=102
163678 On ch=10 n=45 v=127
163726 Off ch=10 n=45 v=127
163759 On ch=10 n=45 v=117
163814 Off ch=10 n=45 v=117
163840 On ch=10 n=45 v=94
163918 Off ch=10 n=45 v=94
163928 On ch=10 n=45 v=114
163989 Off ch=10 n=45 v=114
164017 On ch=10 n=45 v=122
164070 Off ch=10 n=45 v=122
164080 On ch=10 n=45 v=81
164158 Off ch=10 n=45 v=81
164164 On ch=10 n=41 v=120
164172 On ch=10 n=35 v=79
164365 Off ch=10 n=35 v=79
164375 Off ch=10 n=41 v=120
164640 On ch=10 n=49 v=123
164640 On ch=10 n=35 v=112
164640 On ch=10 n=43 v=117
164741 Off ch=10 n=35 v=112
164746 Off ch=10 n=43 v=117
164794 Off ch=10 n=49 v=123
166424 On ch=10 n=45 v=112
166477 On ch=10 n=47 v=102
166492 Off ch=10 n=45 v=112
166561 Off ch=10 n=47 v=102
166561 On ch=10 n=49 v=127
166562 On ch=10 n=35 v=112
166562 On ch=10 n=43 v=117
166667 Off ch=10 n=43 v=117
166675 Off ch=10 n=35 v=112
166724 Off ch=10 n=49 v=127
168241 On ch=10 n=49 v=119
168241 On ch=10 n=43 v=106
168241 On ch=10 n=35 v=97
168337 Off ch=10 n=35 v=97
168343 Off ch=10 n=43 v=106
168363 Off ch=10 n=49 v=119
168479 On ch=10 n=57 v=104
168483 On ch=10 n=43 v=104
168483 On ch=10 n=35 v=95
168601 Off ch=10 n=35 v=95
168604 Off ch=10 n=43 v=104
168655 Off ch=10 n=57 v=104
169082 On ch=10 n=45 v=114
169144 On ch=10 n=47 v=92
169150 Off ch=10 n=45 v=114
169201 On ch=10 n=49 v=116
169203 On ch=10 n=43 v=91
169204 On ch=10 n=35 v=94
169223 Off ch=10 n=47 v=92
169302 Off ch=10 n=35 v=94
169307 Off ch=10 n=43 v=91
169315 Off ch=10 n=49 v=116
169441 On ch=10 n=57 v=102
169445 On ch=10 n=35 v=104
169446 On ch=10 n=43 v=106
169538 Off ch=10 n=35 v=104
169541 Off ch=10 n=43 v=106
169587 Off ch=10 n=57 v=102
170161 On ch=10 n=49 v=101
170161 On ch=10 n=43 v=95
170162 On ch=10 n=35 v=92
170245 Off ch=10 n=35 v=92
170255 Off ch=10 n=43 v=95
170279 Off ch=10 n=49 v=101
170401 On ch=10 n=57 v=98
170402 On ch=10 n=35 v=97
170402 On ch=10 n=43 v=102
170530 Off ch=10 n=43 v=102
170538 Off ch=10 n=35 v=97
170601 Off ch=10 n=57 v=98
170879 On ch=10 n=49 v=101
170881 On ch=10 n=35 v=102
170882 On ch=10 n=43 v=98
170983 Off ch=10 n=43 v=98
170985 Off ch=10 n=35 v=102
171003 Off ch=10 n=49 v=101
171360 On ch=10 n=35 v=104
171361 On ch=10 n=57 v=95
171362 On ch=10 n=43 v=104
171460 Off ch=10 n=43 v=104
171470 Off ch=10 n=35 v=104
171537 Off ch=10 n=57 v=95
172328 On ch=10 n=49 v=104
172328 On ch=10 n=43 v=97
172328 On ch=10 n=35 v=97
172579 Off ch=10 n=35 v=97
172619 Off ch=10 n=43 v=97
172714 Off ch=10 n=49 v=104
173041 On ch=10 n=49 v=110
173042 On ch=10 n=35 v=92
173042 On ch=10 n=43 v=102
173147 Off ch=10 n=43 v=102
173150 Off ch=10 n=35 v=92
173189 Off ch=10 n=49 v=110
173280 On ch=10 n=57 v=102
173280 On ch=10 n=35 v=100
173282 On ch=10 n=43 v=100
173403 Off ch=10 n=43 v=100
173434 Off ch=10 n=35 v=100
173509 Off ch=10 n=57 v=102
173948 On ch=10 n=45 v=87
173986 Off ch=10 n=45 v=87
174003 On ch=10 n=47 v=94
174066 On ch=10 n=45 v=97
174071 Off ch=10 n=47 v=94
174111 On ch=10 n=47 v=68
174129 Off ch=10 n=45 v=97
174177 Off ch=10 n=47 v=68
174241 On ch=10 n=49 v=104
174241 On ch=10 n=35 v=94
174441 Off ch=10 n=35 v=94
174489 Off ch=10 n=49 v=104
174954 On ch=10 n=57 v=90
174957 On ch=10 n=35 v=88
174958 On ch=10 n=43 v=90
175071 Off ch=10 n=43 v=90
175076 Off ch=10 n=35 v=88
175097 Off ch=10 n=57 v=90
175201 On ch=10 n=43 v=90
175202 On ch=10 n=49 v=101
175202 On ch=10 n=35 v=88
175340 Off ch=10 n=35 v=88
175346 Off ch=10 n=43 v=90
175359 Off ch=10 n=49 v=101
175781 On ch=10 n=45 v=102
175845 Off ch=10 n=45 v=102
175853 On ch=10 n=47 v=87
175918 On ch=10 n=49 v=99
175918 On ch=10 n=43 v=97
175918 On ch=10 n=35 v=94
175938 Off ch=10 n=47 v=87
176019 Off ch=10 n=35 v=94
176022 Off ch=10 n=43 v=97
176053 Off ch=10 n=49 v=99
176157 On ch=10 n=57 v=102
176158 On ch=10 n=43 v=98
176158 On ch=10 n=35 v=98
176308 Off ch=10 n=35 v=98
176315 Off ch=10 n=43 v=98
176344 Off ch=10 n=57 v=102
176873 On ch=10 n=49 v=97
176873 On ch=10 n=43 v=95
176875 On ch=10 n=35 v=83
176974 Off ch=10 n=35 v=83
176978 Off ch=10 n=43 v=95
176993 Off ch=10 n=49 v=97
177114 On ch=10 n=57 v=98
177116 On ch=10 n=35 v=92
177117 On ch=10 n=43 v=88
177216 Off ch=10 n=43 v=88
177243 Off ch=10 n=35 v=92
177278 Off ch=10 n=57 v=98
177834 On ch=10 n=49 v=101
177834 On ch=10 n=43 v=97
177834 On ch=10 n=35 v=92
177919 Off ch=10 n=35 v=92
177930 Off ch=10 n=43 v=97
177946 Off ch=10 n=49 v=101
178075 On ch=10 n=57 v=100
178077 On ch=10 n=35 v=98
178077 On ch=10 n=43 v=102
178219 Off ch=10 n=43 v=102
178229 Off ch=10 n=35 v=98
178286 Off ch=10 n=57 v=100
178559 On ch=10 n=49 v=104
178560 On ch=10 n=43 v=106
178561 On ch=10 n=35 v=102
178686 Off ch=10 n=43 v=106
178694 Off ch=10 n=35 v=102
178738 Off ch=10 n=49 v=104
179036 On ch=10 n=57 v=104
179039 On ch=10 n=43 v=98
179040 On ch=10 n=35 v=110
179127 Off ch=10 n=43 v=98
179147 Off ch=10 n=35 v=110
179242 Off ch=10 n=57 v=104
184918 On ch=10 n=45 v=90
184967 Off ch=10 n=45 v=90
185008 On ch=10 n=45 v=65
185025 Off ch=10 n=45 v=65
185062 On ch=10 n=45 v=84
185105 Off ch=10 n=45 v=84
185134 On ch=10 n=45 v=106
185171 Off ch=10 n=45 v=106
185202 On ch=10 n=45 v=117
185252 Off ch=10 n=45 v=117
185263 On ch=10 n=45 v=110
185312 Off ch=10 n=45 v=110
185328 On ch=10 n=45 v=112
185378 Off ch=10 n=45 v=112
185402 On ch=10 n=45 v=102
185443 Off ch=10 n=45 v=102
185467 On ch=10 n=45 v=112
185518 On ch=10 n=49 v=113
185518 On ch=10 n=35 v=102
185518 On ch=10 n=43 v=106
185527 Off ch=10 n=45 v=112
185602 Off ch=10 n=43 v=106
185605 Off ch=10 n=35 v=102
185632 Off ch=10 n=49 v=113
185759 On ch=10 n=57 v=102
185759 On ch=10 n=35 v=112
185759 On ch=10 n=43 v=106
185863 Off ch=10 n=43 v=106
185867 Off ch=10 n=35 v=112
185923 Off ch=10 n=57 v=102
186474 On ch=10 n=49 v=113
186475 On ch=10 n=35 v=104
186475 On ch=10 n=43 v=106
186570 Off ch=10 n=43 v=106
186572 Off ch=10 n=35 v=104
186597 Off ch=10 n=49 v=113
186714 On ch=10 n=57 v=100
186716 On ch=10 n=35 v=110
186716 On ch=10 n=43 v=114
186803 Off ch=10 n=43 v=114
186814 Off ch=10 n=35 v=110
186860 Off ch=10 n=57 v=100
187438 On ch=10 n=49 v=113
187439 On ch=10 n=43 v=110
187440 On ch=10 n=35 v=104
187525 Off ch=10 n=35 v=104
187533 Off ch=10 n=43 v=110
187547 Off ch=10 n=49 v=113
187674 On ch=10 n=57 v=106
187677 On ch=10 n=35 v=112
187678 On ch=10 n=43 v=114
187767 Off ch=10 n=43 v=114
187783 Off ch=10 n=35 v=112
187817 Off ch=10 n=57 v=106
188396 On ch=10 n=43 v=108
188397 On ch=10 n=35 v=108
188398 On ch=10 n=49 v=110
188470 Off ch=10 n=35 v=108
188472 Off ch=10 n=43 v=108
188501 Off ch=10 n=49 v=110
188633 On ch=10 n=57 v=104
188635 On ch=10 n=35 v=112
188635 On ch=10 n=43 v=117
188729 Off ch=10 n=43 v=117
188737 Off ch=10 n=35 v=112
188792 Off ch=10 n=57 v=104
195113 On ch=10 n=35 v=98
195114 On ch=10 n=43 v=94
195116 On ch=10 n=49 v=110
195216 Off ch=10 n=43 v=94
195222 Off ch=10 n=35 v=98
195237 Off ch=10 n=49 v=110
195352 On ch=10 n=57 v=102
195354 On ch=10 n=43 v=108
195354 On ch=10 n=35 v=104
195483 Off ch=10 n=35 v=104
195499 Off ch=10 n=43 v=108
195511 Off ch=10 n=57 v=102
196072 On ch=10 n=49 v=116
196072 On ch=10 n=43 v=114
196074 On ch=10 n=35 v=98
196147 Off ch=10 n=35 v=98
196167 Off ch=10 n=43 v=114
196192 Off ch=10 n=49 v=116
196311 On ch=10 n=57 v=108
196312 On ch=10 n=35 v=106
196313 On ch=10 n=43 v=108
196437 Off ch=10 n=43 v=108
196451 Off ch=10 n=35 v=106
196474 Off ch=10 n=57 v=108
197029 On ch=10 n=49 v=116
197030 On ch=10 n=35 v=110
197030 On ch=10 n=43 v=112
197122 Off ch=10 n=35 v=110
197124 Off ch=10 n=43 v=112
197151 Off ch=10 n=49 v=116
197269 On ch=10 n=57 v=106
197271 On ch=10 n=35 v=117
197272 On ch=10 n=43 v=117
197365 Off ch=10 n=43 v=117
197400 Off ch=10 n=35 v=117
197431 Off ch=10 n=57 v=106
197989 On ch=10 n=43 v=106
197990 On ch=10 n=35 v=104
197992 On ch=10 n=49 v=110
198076 Off ch=10 n=35 v=104
198082 Off ch=10 n=43 v=106
198118 Off ch=10 n=49 v=110
198230 On ch=10 n=57 v=102
198232 On ch=10 n=35 v=110
198233 On ch=10 n=43 v=110
198341 Off ch=10 n=43 v=110
198347 Off ch=10 n=35 v=110
198398 Off ch=10 n=57 v=102
198949 On ch=10 n=43 v=106
198950 On ch=10 n=35 v=106
198951 On ch=10 n=49 v=104
199031 Off ch=10 n=35 v=106
199036 Off ch=10 n=43 v=106
199070 Off ch=10 n=49 v=104
199191 On ch=10 n=57 v=106
199195 On ch=10 n=35 v=117
199195 On ch=10 n=43 v=114
199290 Off ch=10 n=35 v=117
199293 Off ch=10 n=43 v=114
199358 Off ch=10 n=57 v=106
199910 On ch=10 n=43 v=108
199911 On ch=10 n=49 v=107
199911 On ch=10 n=35 v=102
199997 Off ch=10 n=35 v=102
200003 Off ch=10 n=43 v=108
200028 Off ch=10 n=49 v=107
200151 On ch=10 n=57 v=102
200153 On ch=10 n=35 v=112
200153 On ch=10 n=43 v=114
200246 Off ch=10 n=43 v=114
200266 Off ch=10 n=35 v=112
200328 Off ch=10 n=57 v=102
200878 On ch=10 n=35 v=106
200878 On ch=10 n=43 v=108
200880 On ch=10 n=49 v=107
200958 Off ch=10 n=43 v=108
200970 Off ch=10 n=35 v=106
200994 Off ch=10 n=49 v=107
201116 On ch=10 n=57 v=102
201120 On ch=10 n=35 v=110
201120 On ch=10 n=43 v=114
201230 Off ch=10 n=43 v=114
201245 Off ch=10 n=35 v=110
201264 Off ch=10 n=57 v=102
201839 On ch=10 n=35 v=104
201839 On ch=10 n=43 v=106
201840 On ch=10 n=49 v=116
201916 Off ch=10 n=43 v=106
201924 Off ch=10 n=35 v=104
201953 Off ch=10 n=49 v=116
202073 On ch=10 n=57 v=98
202076 On ch=10 n=35 v=112
202077 On ch=10 n=43 v=112
202161 Off ch=10 n=43 v=112
202189 Off ch=10 n=35 v=112
202266 Off ch=10 n=57 v=98
202802 On ch=10 n=49 v=107
202802 On ch=10 n=35 v=98
202803 On ch=10 n=43 v=102
202896 Off ch=10 n=43 v=102
202901 Off ch=10 n=35 v=98
202917 Off ch=10 n=49 v=107
203040 On ch=10 n=57 v=100
203042 On ch=10 n=35 v=102
203042 On ch=10 n=43 v=106
203146 Off ch=10 n=43 v=106
203156 Off ch=10 n=35 v=102
203178 Off ch=10 n=57 v=100
203759 On ch=10 n=43 v=104
203760 On ch=10 n=49 v=107
203760 On ch=10 n=35 v=98
203855 Off ch=10 n=35 v=98
203855 Off ch=10 n=43 v=104
203875 Off ch=10 n=49 v=107
203999 On ch=10 n=57 v=106
204002 On ch=10 n=35 v=110
204002 On ch=10 n=43 v=110
204128 Off ch=10 n=43 v=110
204132 Off ch=10 n=35 v=110
204149 Off ch=10 n=57 v=106
204720 On ch=10 n=35 v=98
204720 On ch=10 n=43 v=102
204721 On ch=10 n=49 v=107
204822 Off ch=10 n=43 v=102
204823 Off ch=10 n=35 v=98
204840 Off ch=10 n=49 v=107
204959 On ch=10 n=57 v=106
204962 On ch=10 n=35 v=106
204962 On ch=10 n=43 v=108
205103 Off ch=10 n=43 v=108
205105 Off ch=10 n=35 v=106
205113 Off ch=10 n=57 v=106
205679 On ch=10 n=49 v=97
205679 On ch=10 n=43 v=98
205679 On ch=10 n=35 v=92
205777 Off ch=10 n=35 v=92
205788 Off ch=10 n=43 v=98
205805 Off ch=10 n=49 v=97
205925 On ch=10 n=57 v=108
205925 On ch=10 n=43 v=100
205925 On ch=10 n=35 v=98
206018 Off ch=10 n=35 v=98
206019 Off ch=10 n=43 v=100
206036 Off ch=10 n=57 v=108
206645 On ch=10 n=49 v=97
206645 On ch=10 n=43 v=100
206645 On ch=10 n=35 v=98
206737 Off ch=10 n=35 v=98
206740 Off ch=10 n=43 v=100
206761 Off ch=10 n=49 v=97
206883 On ch=10 n=35 v=100
206884 On ch=10 n=57 v=90
206884 On ch=10 n=43 v=106
206981 Off ch=10 n=43 v=106
206985 Off ch=10 n=35 v=100
207018 Off ch=10 n=57 v=90
207597 On ch=10 n=43 v=106
207598 On ch=10 n=35 v=102
207599 On ch=10 n=49 v=99
207685 Off ch=10 n=35 v=102
207688 Off ch=10 n=43 v=106
207700 Off ch=10 n=49 v=99
207838 On ch=10 n=57 v=98
207840 On ch=10 n=35 v=102
207840 On ch=10 n=43 v=106
207956 Off ch=10 n=43 v=106
207960 Off ch=10 n=35 v=102
208007 Off ch=10 n=57 v=98
208800 On ch=10 n=35 v=100
208801 On ch=10 n=43 v=112
208802 On ch=10 n=49 v=119
208954 Off ch=10 n=35 v=100
208960 Off ch=10 n=43 v=112
209018 Off ch=10 n=49 v=119
209519 On ch=10 n=43 v=102
209520 On ch=10 n=35 v=95
209522 On ch=10 n=49 v=104
209636 Off ch=10 n=35 v=95
209657 Off ch=10 n=43 v=102
209661 Off ch=10 n=49 v=104
209763 On ch=10 n=57 v=108
209764 On ch=10 n=35 v=106
209764 On ch=10 n=43 v=110
209884 Off ch=10 n=43 v=110
209886 Off ch=10 n=35 v=106
209909 Off ch=10 n=57 v=108
210269 On ch=10 n=47 v=127
210270 On ch=10 n=48 v=117
210349 Off ch=10 n=48 v=117
210352 Off ch=10 n=47 v=127
210492 On ch=10 n=47 v=117
210493 On ch=10 n=45 v=127
210647 Off ch=10 n=47 v=117
210657 Off ch=10 n=45 v=127
210719 On ch=10 n=49 v=119
210719 On ch=10 n=43 v=112
210719 On ch=10 n=35 v=112
211011 Off ch=10 n=35 v=112
211039 Off ch=10 n=43 v=112
211058 Off ch=10 n=49 v=119
211431 On ch=10 n=35 v=102
211431 On ch=10 n=43 v=106
211433 On ch=10 n=49 v=107
211525 Off ch=10 n=43 v=106
211533 Off ch=10 n=35 v=102
211567 Off ch=10 n=49 v=107
211678 On ch=10 n=57 v=102
211682 On ch=10 n=35 v=110
211682 On ch=10 n=43 v=108
211780 Off ch=10 n=43 v=108
211795 Off ch=10 n=35 v=110
211818 Off ch=10 n=57 v=102
212395 On ch=10 n=35 v=108
212395 On ch=10 n=43 v=102
212398 On ch=10 n=49 v=93
212476 Off ch=10 n=43 v=102
212486 Off ch=10 n=35 v=108
212514 Off ch=10 n=49 v=93
212635 On ch=10 n=57 v=104
212637 On ch=10 n=35 v=108
212637 On ch=10 n=43 v=106
212732 Off ch=10 n=43 v=106
212739 Off ch=10 n=35 v=108
212770 Off ch=10 n=57 v=104
213349 On ch=10 n=43 v=106
213349 On ch=10 n=35 v=102
213352 On ch=10 n=49 v=104
213432 Off ch=10 n=43 v=106
213432 Off ch=10 n=35 v=102
213454 Off ch=10 n=49 v=104
213592 On ch=10 n=57 v=86
213594 On ch=10 n=35 v=110
213594 On ch=10 n=43 v=110
213679 Off ch=10 n=43 v=110
213699 Off ch=10 n=35 v=110
213720 Off ch=10 n=57 v=86
214309 On ch=10 n=43 v=100
214310 On ch=10 n=35 v=100
214311 On ch=10 n=49 v=101
214392 Off ch=10 n=35 v=100
214396 Off ch=10 n=43 v=100
214410 Off ch=10 n=49 v=101
214556 On ch=10 n=57 v=79
214556 On ch=10 n=35 v=108
214556 On ch=10 n=43 v=110
214704 Off ch=10 n=43 v=110
214716 Off ch=10 n=35 v=108
214749 Off ch=10 n=57 v=79
215030 On ch=10 n=35 v=110
215030 On ch=10 n=43 v=120
215032 On ch=10 n=49 v=123
215131 Off ch=10 n=43 v=120
215141 Off ch=10 n=35 v=110
215163 Off ch=10 n=49 v=123
215509 On ch=10 n=57 v=102
215513 On ch=10 n=35 v=106
215513 On ch=10 n=43 v=110
215683 Off ch=10 n=43 v=110
215685 Off ch=10 n=35 v=106
215709 Off ch=10 n=57 v=102
215994 On ch=10 n=49 v=113
215995 On ch=10 n=43 v=108
215996 On ch=10 n=35 v=108
216101 Off ch=10 n=43 v=108
216102 Off ch=10 n=35 v=108
216134 Off ch=10 n=49 v=113
216480 On ch=10 n=55 v=76
216598 Off ch=10 n=55 v=76
322608 On ch=10 n=35 v=88
322628 On ch=10 n=49 v=101
322761 Off ch=10 n=35 v=88
322773 Off ch=10 n=49 v=101
322865 On ch=10 n=57 v=92
322884 On ch=10 n=43 v=106
323048 Off ch=10 n=43 v=106
323054 Off ch=10 n=57 v=92
323151 On ch=10 n=35 v=86
323170 On ch=10 n=49 v=95
323321 Off ch=10 n=35 v=86
323332 Off ch=10 n=49 v=95
323452 On ch=10 n=57 v=97
323465 On ch=10 n=43 v=110
323618 Off ch=10 n=57 v=97
323644 Off ch=10 n=43 v=110
323794 On ch=10 n=35 v=98
323807 On ch=10 n=49 v=107
324008 Off ch=10 n=35 v=98
324039 Off ch=10 n=49 v=107
324138 On ch=10 n=57 v=90
324148 On ch=10 n=43 v=102
324386 Off ch=10 n=43 v=102
324982 Off ch=10 n=57 v=90
327458 On ch=10 n=49 v=104
327686 Off ch=10 n=49 v=104
327737 On ch=10 n=57 v=94
327940 Off ch=10 n=57 v=94
328055 On ch=10 n=49 v=107
328245 Off ch=10 n=49 v=107
330434 On ch=10 n=49 v=116
330591 Off ch=10 n=49 v=116
330710 On ch=10 n=57 v=95
330887 Off ch=10 n=57 v=95
331013 On ch=10 n=49 v=101
331208 Off ch=10 n=49 v=101
333350 On ch=10 n=49 v=104
333576 Off ch=10 n=49 v=104
333689 On ch=10 n=57 v=94
333884 Off ch=10 n=57 v=94
334042 On ch=10 n=49 v=99
334216 Off ch=10 n=49 v=99
334411 On ch=10 n=57 v=95
334678 Off ch=10 n=57 v=95
334865 On ch=10 n=49 v=107
335109 Off ch=10 n=49 v=107
336782 On ch=10 n=49 v=95
336919 Off ch=10 n=49 v=95
337743 On ch=10 n=57 v=68
337875 Off ch=10 n=57 v=68
339036 On ch=10 n=49 v=73
339137 Off ch=10 n=49 v=73
339549 On ch=10 n=49 v=67
339653 Off ch=10 n=49 v=67
340680 On ch=10 n=57 v=43
340784 Off ch=10 n=57 v=43
341043 On ch=10 n=57 v=60
341142 Off ch=10 n=57 v=60
341341 On ch=10 n=57 v=65
341450 Off ch=10 n=57 v=65
341623 On ch=10 n=57 v=83
341736 Off ch=10 n=57 v=83
341880 On ch=10 n=57 v=90
341991 Off ch=10 n=57 v=90
342139 On ch=10 n=57 v=97
342248 Off ch=10 n=57 v=97
342483 On ch=10 n=49 v=67
342561 Off ch=10 n=49 v=67
351360 Meta TrkEnd
TrkEnd
