MFile 1 16 480
MTrk
0 Meta SeqName "And You And I - YES"
0 TimeSig 4/4 24 8
0 Tempo 779220
1920 Tempo 500000
2880 Tempo 674157
3840 Tempo 740740
5280 Tempo 1538461
5760 Tempo 500000
6720 Tempo 674157
7680 Tempo 740740
9120 Tempo 1090909
9600 Tempo 500000
10560 Tempo 674157
11520 Tempo 740740
12960 Tempo 1578947
13440 Tempo 500000
15360 Tempo 740740
16800 Tempo 1090909
17280 Tempo 500000
19200 Tempo 740740
19429 Tempo 1224489
20160 Tempo 500000
21120 Tempo 500000
22080 Tempo 674157
23040 Tempo 740740
24480 Tempo 461538
24960 TimeSig 3/4 24 8
24960 Tempo 731707
86880 TimeSig 4/4 24 8
106080 TimeSig 3/4 24 8
113280 Tempo 1052631
113760 Tempo 666666
115800 Tempo 1200000
117600 TimeSig 2/4 24 8
118560 TimeSig 4/4 24 8
118560 Tempo 1000000
141600 TimeSig 3/4 24 8
161760 TimeSig 4/4 24 8
172800 Tempo 2000000
173280 Tempo 500000
174240 Tempo 674157
175200 Tempo 606060
177120 Tempo 500000
178080 Tempo 674157
179040 Tempo 594059
180960 Tempo 500000
181920 Tempo 674157
182880 Tempo 740740
184800 Tempo 500000
186720 Tempo 740740
188160 Tempo 1090909
188640 Tempo 500000
190560 Tempo 740740
190789 Tempo 1224489
191040 Tempo 666666
192000 Tempo 937500
192480 Tempo 500000
193440 Tempo 674157
194400 TimeSig 3/4 24 8
194400 Tempo 652173
262080 TimeSig 4/4 24 8
262080 Tempo 697674
262560 Tempo 821917
263040 Tempo 1000000
263520 Tempo 1090909
264000 TimeSig 3/4 24 8
266640 Tempo 1428571
266880 TimeSig 4/4 24 8
266880 Tempo 1153846
283200 Tempo 759493
283440 Tempo 714285
283560 Tempo 340909
287520 Tempo 3000000
288000 TimeSig 3/4 24 8
288000 Tempo 714285
302400 Tempo 857142
302880 Tempo 1000000
303600 Tempo 1500000
303960 Tempo 1000000
304440 Tempo 1200000
304920 Tempo 2000000
306720 Meta TrkEnd
TrkEnd
MTrk
0 Meta TrkName "Anderson"
0 Meta 0x20 00
0 Meta InstrName "Anderson"
0 KeySig 2 major
10 Par ch=1 c=0 v=0
15 Par ch=1 c=32 v=0
20 PrCh ch=1 p=104
25 Par ch=1 c=7 v=127
30 Par ch=1 c=10 v=64
35 Par ch=1 c=91 v=40
40 Par ch=1 c=93 v=0
45 Par ch=1 c=101 v=0
45 Par ch=1 c=100 v=0
45 Par ch=1 c=6 v=2
50 Par ch=1 c=99 v=1
50 Par ch=1 c=98 v=8
50 Par ch=1 c=6 v=64
55 Par ch=1 c=99 v=1
55 Par ch=1 c=98 v=9
55 Par ch=1 c=6 v=64
60 Par ch=1 c=99 v=1
60 Par ch=1 c=98 v=10
60 Par ch=1 c=6 v=64
65 Par ch=1 c=99 v=1
65 Par ch=1 c=98 v=32
65 Par ch=1 c=6 v=64
70 Par ch=1 c=99 v=1
70 Par ch=1 c=98 v=33
70 Par ch=1 c=6 v=64
75 Par ch=1 c=99 v=1
75 Par ch=1 c=98 v=99
75 Par ch=1 c=6 v=64
80 Par ch=1 c=99 v=1
80 Par ch=1 c=98 v=100
80 Par ch=1 c=6 v=64
85 Par ch=1 c=99 v=1
85 Par ch=1 c=98 v=102
85 Par ch=1 c=6 v=64
41053 On ch=1 n=57 v=104
41141 Off ch=1 n=57 v=104
41164 On ch=1 n=57 v=102
41509 Off ch=1 n=57 v=102
41529 On ch=1 n=62 v=97
41744 Off ch=1 n=62 v=97
41770 On ch=1 n=59 v=90
41983 Off ch=1 n=59 v=90
41988 On ch=1 n=64 v=97
42109 Off ch=1 n=64 v=97
42113 On ch=1 n=61 v=87
42354 Off ch=1 n=61 v=87
42360 On ch=1 n=66 v=101
42524 Off ch=1 n=66 v=101
42724 On ch=1 n=62 v=97
42942 Off ch=1 n=62 v=97
42966 On ch=1 n=67 v=95
43190 Off ch=1 n=67 v=95
43208 On ch=1 n=64 v=95
43430 Off ch=1 n=64 v=95
43443 On ch=1 n=69 v=94
43606 Off ch=1 n=69 v=94
43680 On ch=1 n=66 v=110
44519 Off ch=1 n=66 v=110
46803 On ch=1 n=57 v=94
47012 Off ch=1 n=57 v=94
47039 On ch=1 n=57 v=87
47266 Off ch=1 n=57 v=87
47272 On ch=1 n=62 v=90
47504 Off ch=1 n=62 v=90
47514 On ch=1 n=59 v=95
47730 Off ch=1 n=59 v=95
47747 On ch=1 n=64 v=80
47989 Off ch=1 n=64 v=80
48009 On ch=1 n=61 v=84
48230 Off ch=1 n=61 v=84
48234 On ch=1 n=66 v=95
48346 Off ch=1 n=66 v=95
48362 On ch=1 n=62 v=78
48599 Off ch=1 n=62 v=78
48605 On ch=1 n=67 v=90
48782 Off ch=1 n=67 v=90
48962 On ch=1 n=64 v=91
49189 Off ch=1 n=64 v=91
49201 On ch=1 n=66 v=93
49300 Off ch=1 n=66 v=93
49322 On ch=1 n=62 v=94
50400 Off ch=1 n=62 v=94
52083 On ch=1 n=66 v=80
52164 Off ch=1 n=66 v=80
52195 On ch=1 n=67 v=86
52285 Off ch=1 n=67 v=86
52322 On ch=1 n=67 v=98
52536 Off ch=1 n=67 v=98
52559 On ch=1 n=66 v=91
52660 Off ch=1 n=66 v=91
52679 On ch=1 n=64 v=94
52781 Off ch=1 n=64 v=94
52796 On ch=1 n=66 v=99
53020 Off ch=1 n=66 v=99
53031 On ch=1 n=62 v=97
53131 Off ch=1 n=62 v=97
53159 On ch=1 n=62 v=85
53260 Off ch=1 n=62 v=85
53284 On ch=1 n=62 v=88
53496 Off ch=1 n=62 v=88
53517 On ch=1 n=62 v=80
53749 Off ch=1 n=62 v=80
53768 On ch=1 n=64 v=87
53899 Off ch=1 n=64 v=87
53913 On ch=1 n=64 v=91
54123 Off ch=1 n=64 v=91
54150 On ch=1 n=64 v=91
54907 Off ch=1 n=64 v=91
55081 On ch=1 n=67 v=90
55183 Off ch=1 n=67 v=90
55206 On ch=1 n=67 v=68
55434 Off ch=1 n=67 v=68
55441 On ch=1 n=66 v=85
55554 Off ch=1 n=66 v=85
55566 On ch=1 n=64 v=92
55659 Off ch=1 n=64 v=92
55683 On ch=1 n=66 v=71
55908 Off ch=1 n=66 v=71
55923 On ch=1 n=62 v=94
56026 Off ch=1 n=62 v=94
56042 On ch=1 n=62 v=94
56141 Off ch=1 n=62 v=94
56160 On ch=1 n=62 v=94
56371 Off ch=1 n=62 v=94
56397 On ch=1 n=62 v=91
56507 Off ch=1 n=62 v=91
56522 On ch=1 n=62 v=83
56738 Off ch=1 n=62 v=83
56773 On ch=1 n=64 v=66
56978 Off ch=1 n=64 v=66
57003 On ch=1 n=64 v=80
57611 Off ch=1 n=64 v=80
58323 On ch=1 n=57 v=91
58529 Off ch=1 n=57 v=91
58565 On ch=1 n=57 v=71
58813 Off ch=1 n=57 v=71
58815 On ch=1 n=62 v=97
59049 Off ch=1 n=62 v=97
59049 On ch=1 n=59 v=94
59271 Off ch=1 n=59 v=94
59282 On ch=1 n=64 v=90
59395 Off ch=1 n=64 v=90
59399 On ch=1 n=61 v=91
59761 Off ch=1 n=61 v=91
59761 On ch=1 n=66 v=95
59998 Off ch=1 n=66 v=95
60008 On ch=1 n=62 v=91
60241 Off ch=1 n=62 v=91
60251 On ch=1 n=67 v=97
60343 Off ch=1 n=67 v=97
60370 On ch=1 n=64 v=91
60714 On ch=1 n=66 v=100
60717 Off ch=1 n=64 v=91
60960 Off ch=1 n=66 v=100
60972 On ch=1 n=62 v=86
62295 Off ch=1 n=62 v=86
64088 On ch=1 n=57 v=100
64254 Off ch=1 n=57 v=100
64331 On ch=1 n=57 v=88
64524 Off ch=1 n=57 v=88
64554 On ch=1 n=62 v=97
64755 Off ch=1 n=62 v=97
64795 On ch=1 n=59 v=100
64994 Off ch=1 n=59 v=100
65043 On ch=1 n=64 v=87
65163 On ch=1 n=61 v=97
65167 Off ch=1 n=64 v=87
65506 On ch=1 n=66 v=91
65524 Off ch=1 n=61 v=97
65708 Off ch=1 n=66 v=91
65760 On ch=1 n=62 v=94
65958 Off ch=1 n=62 v=94
65994 On ch=1 n=67 v=98
66091 Off ch=1 n=67 v=98
66125 On ch=1 n=64 v=102
66465 Off ch=1 n=64 v=102
66473 On ch=1 n=69 v=92
66618 Off ch=1 n=69 v=92
66720 On ch=1 n=66 v=100
67628 Off ch=1 n=66 v=100
67833 On ch=1 n=62 v=91
68791 Off ch=1 n=62 v=91
69836 On ch=1 n=57 v=97
69944 Off ch=1 n=57 v=97
69962 On ch=1 n=57 v=82
70289 Off ch=1 n=57 v=82
70332 On ch=1 n=62 v=90
70538 Off ch=1 n=62 v=90
70561 On ch=1 n=59 v=92
70788 Off ch=1 n=59 v=92
70792 On ch=1 n=64 v=95
71028 Off ch=1 n=64 v=95
71044 On ch=1 n=61 v=94
71275 Off ch=1 n=61 v=94
71290 On ch=1 n=66 v=88
71513 Off ch=1 n=66 v=88
71521 On ch=1 n=62 v=77
71749 Off ch=1 n=62 v=77
71764 On ch=1 n=67 v=90
71872 Off ch=1 n=67 v=90
71883 On ch=1 n=64 v=86
72230 Off ch=1 n=64 v=86
72241 On ch=1 n=66 v=88
72442 Off ch=1 n=66 v=88
72492 On ch=1 n=62 v=80
73464 Off ch=1 n=62 v=80
73574 On ch=1 n=59 v=80
73920 Off ch=1 n=59 v=80
75122 On ch=1 n=64 v=112
75200 Off ch=1 n=64 v=112
75247 On ch=1 n=66 v=77
75344 Off ch=1 n=66 v=77
75371 On ch=1 n=67 v=110
75593 Off ch=1 n=67 v=110
75608 On ch=1 n=66 v=87
75700 Off ch=1 n=66 v=87
75725 On ch=1 n=64 v=87
75828 Off ch=1 n=64 v=87
75850 On ch=1 n=66 v=92
76064 Off ch=1 n=66 v=92
76094 On ch=1 n=62 v=98
76180 Off ch=1 n=62 v=98
76209 On ch=1 n=62 v=87
76387 Off ch=1 n=62 v=87
76436 On ch=1 n=62 v=83
76615 Off ch=1 n=62 v=83
76687 On ch=1 n=64 v=94
76865 Off ch=1 n=64 v=94
76931 On ch=1 n=64 v=94
77091 Off ch=1 n=64 v=94
77172 On ch=1 n=64 v=95
77935 Off ch=1 n=64 v=95
78131 On ch=1 n=67 v=91
78203 Off ch=1 n=67 v=91
78239 On ch=1 n=67 v=88
78448 Off ch=1 n=67 v=88
78476 On ch=1 n=66 v=77
78571 Off ch=1 n=66 v=77
78586 On ch=1 n=64 v=80
78693 Off ch=1 n=64 v=80
78702 On ch=1 n=66 v=85
78932 Off ch=1 n=66 v=85
78956 On ch=1 n=62 v=97
79048 Off ch=1 n=62 v=97
79082 On ch=1 n=62 v=94
79181 Off ch=1 n=62 v=94
79210 On ch=1 n=62 v=90
79360 Off ch=1 n=62 v=90
79435 On ch=1 n=62 v=86
79634 Off ch=1 n=62 v=86
79685 On ch=1 n=64 v=76
80312 On ch=1 n=66 v=67
80313 Off ch=1 n=64 v=76
80389 On ch=1 n=64 v=81
80396 Off ch=1 n=66 v=67
80464 On ch=1 n=62 v=81
80468 Off ch=1 n=64 v=81
80648 On ch=1 n=64 v=94
80661 Off ch=1 n=62 v=81
80959 Off ch=1 n=64 v=94
81363 On ch=1 n=57 v=91
81569 Off ch=1 n=57 v=91
81605 On ch=1 n=57 v=71
81853 Off ch=1 n=57 v=71
81855 On ch=1 n=62 v=97
82089 Off ch=1 n=62 v=97
82089 On ch=1 n=59 v=94
82311 Off ch=1 n=59 v=94
82322 On ch=1 n=64 v=90
82435 Off ch=1 n=64 v=90
82439 On ch=1 n=61 v=91
82801 Off ch=1 n=61 v=91
82801 On ch=1 n=66 v=95
83038 Off ch=1 n=66 v=95
83048 On ch=1 n=62 v=91
83281 Off ch=1 n=62 v=91
83291 On ch=1 n=67 v=97
83383 Off ch=1 n=67 v=97
83410 On ch=1 n=64 v=91
83754 On ch=1 n=66 v=99
83757 Off ch=1 n=64 v=91
83989 Off ch=1 n=66 v=99
84012 On ch=1 n=62 v=98
85335 Off ch=1 n=62 v=98
86159 On ch=1 n=66 v=92
86275 Off ch=1 n=66 v=92
86278 On ch=1 n=64 v=80
86399 On ch=1 n=62 v=98
86409 Off ch=1 n=64 v=80
86636 Off ch=1 n=62 v=98
86891 On ch=1 n=70 v=110
87225 Off ch=1 n=70 v=110
87361 On ch=1 n=70 v=97
87752 Off ch=1 n=70 v=97
87844 On ch=1 n=70 v=97
88167 Off ch=1 n=70 v=97
88319 On ch=1 n=70 v=97
88633 Off ch=1 n=70 v=97
88805 On ch=1 n=72 v=97
88935 Off ch=1 n=72 v=97
89039 On ch=1 n=72 v=90
89160 Off ch=1 n=72 v=90
89179 On ch=1 n=72 v=88
89290 Off ch=1 n=72 v=88
89518 On ch=1 n=72 v=85
89714 Off ch=1 n=72 v=85
89764 On ch=1 n=71 v=71
89886 Off ch=1 n=71 v=71
89988 On ch=1 n=71 v=85
90135 Off ch=1 n=71 v=85
90247 On ch=1 n=71 v=90
90513 Off ch=1 n=71 v=90
90717 On ch=1 n=70 v=93
91044 Off ch=1 n=70 v=93
91208 On ch=1 n=70 v=107
91502 Off ch=1 n=70 v=107
91680 On ch=1 n=70 v=95
91976 Off ch=1 n=70 v=95
92159 On ch=1 n=70 v=97
92374 Off ch=1 n=70 v=97
92638 On ch=1 n=72 v=100
92765 Off ch=1 n=72 v=100
92882 On ch=1 n=72 v=102
93001 Off ch=1 n=72 v=102
93122 On ch=1 n=72 v=92
93235 Off ch=1 n=72 v=92
93358 On ch=1 n=72 v=86
93449 Off ch=1 n=72 v=86
93468 On ch=1 n=71 v=96
93578 Off ch=1 n=71 v=96
93607 On ch=1 n=71 v=91
93782 Off ch=1 n=71 v=91
93830 On ch=1 n=71 v=94
94093 Off ch=1 n=71 v=94
94557 On ch=1 n=70 v=97
94872 Off ch=1 n=70 v=97
95040 On ch=1 n=70 v=97
95366 Off ch=1 n=70 v=97
95529 On ch=1 n=70 v=95
95795 Off ch=1 n=70 v=95
95987 On ch=1 n=70 v=93
96100 Off ch=1 n=70 v=93
96234 On ch=1 n=70 v=89
96870 Off ch=1 n=70 v=89
96946 On ch=1 n=70 v=101
97226 Off ch=1 n=70 v=101
97433 On ch=1 n=70 v=91
97839 Off ch=1 n=70 v=91
97899 On ch=1 n=70 v=89
98020 Off ch=1 n=70 v=89
98161 On ch=1 n=70 v=101
98833 Off ch=1 n=70 v=101
98875 On ch=1 n=69 v=94
99005 Off ch=1 n=69 v=94
99117 On ch=1 n=67 v=88
99217 Off ch=1 n=67 v=88
99240 On ch=1 n=69 v=90
99716 Off ch=1 n=69 v=90
99831 On ch=1 n=69 v=91
99944 Off ch=1 n=69 v=91
100075 On ch=1 n=69 v=80
100199 Off ch=1 n=69 v=80
100324 On ch=1 n=71 v=97
100775 Off ch=1 n=71 v=97
100799 On ch=1 n=69 v=81
100948 Off ch=1 n=69 v=81
101034 On ch=1 n=67 v=78
101122 Off ch=1 n=67 v=78
101143 On ch=1 n=69 v=85
101712 Off ch=1 n=69 v=85
101751 On ch=1 n=66 v=113
101882 Off ch=1 n=66 v=113
101985 On ch=1 n=66 v=91
102166 Off ch=1 n=66 v=91
102251 On ch=1 n=67 v=95
102705 On ch=1 n=69 v=95
102713 Off ch=1 n=67 v=95
102854 Off ch=1 n=69 v=95
102932 On ch=1 n=69 v=90
103448 Off ch=1 n=69 v=90
103451 On ch=1 n=71 v=70
103541 On ch=1 n=69 v=68
103553 Off ch=1 n=71 v=70
103677 On ch=1 n=67 v=67
103696 Off ch=1 n=69 v=68
105499 Off ch=1 n=67 v=67
106080 KeySig 3 major
106320 On ch=1 n=64 v=88
106361 Off ch=1 n=64 v=88
106437 On ch=1 n=64 v=83
106611 Off ch=1 n=64 v=83
106804 On ch=1 n=66 v=84
106867 Off ch=1 n=66 v=84
106920 On ch=1 n=64 v=86
107150 Off ch=1 n=64 v=86
107286 On ch=1 n=69 v=67
107402 Off ch=1 n=69 v=67
107510 On ch=1 n=68 v=93
107661 Off ch=1 n=68 v=93
107757 On ch=1 n=64 v=73
107801 Off ch=1 n=64 v=73
107868 On ch=1 n=64 v=70
107964 Off ch=1 n=64 v=70
107988 On ch=1 n=61 v=67
108112 Off ch=1 n=61 v=67
108245 On ch=1 n=61 v=61
108331 Off ch=1 n=61 v=61
108360 On ch=1 n=59 v=70
108446 Off ch=1 n=59 v=70
108473 On ch=1 n=57 v=83
108661 Off ch=1 n=57 v=83
108707 On ch=1 n=64 v=87
109808 Off ch=1 n=64 v=87
112081 On ch=1 n=64 v=80
112170 Off ch=1 n=64 v=80
112206 On ch=1 n=64 v=78
112462 Off ch=1 n=64 v=78
112563 On ch=1 n=66 v=60
112643 Off ch=1 n=66 v=60
112689 On ch=1 n=64 v=77
112973 Off ch=1 n=64 v=77
113041 On ch=1 n=69 v=71
113206 Off ch=1 n=69 v=71
113283 On ch=1 n=68 v=85
113463 Off ch=1 n=68 v=85
113523 On ch=1 n=64 v=77
113691 Off ch=1 n=64 v=77
113762 On ch=1 n=61 v=88
114206 Off ch=1 n=61 v=88
114240 On ch=1 n=62 v=74
114681 Off ch=1 n=62 v=74
114720 On ch=1 n=61 v=89
115648 Off ch=1 n=61 v=89
116161 On ch=1 n=57 v=102
116644 On ch=1 n=64 v=115
117121 On ch=1 n=69 v=126
118558 Off ch=1 n=57 v=102
118560 Off ch=1 n=64 v=115
118560 KeySig 0 major
118927 Off ch=1 n=69 v=126
150003 On ch=1 n=69 v=80
150064 Off ch=1 n=69 v=80
150113 On ch=1 n=69 v=68
150179 Off ch=1 n=69 v=68
150241 On ch=1 n=69 v=87
150288 Off ch=1 n=69 v=87
150367 On ch=1 n=71 v=97
150440 Off ch=1 n=71 v=97
150475 On ch=1 n=71 v=83
150543 Off ch=1 n=71 v=83
150592 On ch=1 n=71 v=79
150867 Off ch=1 n=71 v=79
150968 On ch=1 n=69 v=74
151034 Off ch=1 n=69 v=74
151086 On ch=1 n=69 v=79
151221 Off ch=1 n=69 v=79
151331 On ch=1 n=68 v=91
151435 Off ch=1 n=68 v=91
151572 On ch=1 n=68 v=87
151777 Off ch=1 n=68 v=87
151800 On ch=1 n=66 v=81
151934 Off ch=1 n=66 v=81
152026 On ch=1 n=66 v=72
152687 Off ch=1 n=66 v=72
152999 On ch=1 n=71 v=70
153106 Off ch=1 n=71 v=70
153132 On ch=1 n=71 v=77
153300 Off ch=1 n=71 v=77
153322 On ch=1 n=71 v=75
153451 Off ch=1 n=71 v=75
153470 On ch=1 n=71 v=66
153581 Off ch=1 n=71 v=66
153600 On ch=1 n=71 v=75
153834 Off ch=1 n=71 v=75
153836 On ch=1 n=69 v=86
153921 Off ch=1 n=69 v=86
153951 On ch=1 n=69 v=69
154047 Off ch=1 n=69 v=69
154070 On ch=1 n=69 v=75
154327 On ch=1 n=68 v=89
154330 Off ch=1 n=69 v=75
154406 Off ch=1 n=68 v=89
154447 On ch=1 n=68 v=74
154672 Off ch=1 n=68 v=74
154684 On ch=1 n=66 v=73
155558 Off ch=1 n=66 v=73
155753 On ch=1 n=71 v=79
155840 Off ch=1 n=71 v=79
155875 On ch=1 n=71 v=80
155977 Off ch=1 n=71 v=80
156001 On ch=1 n=71 v=78
156106 Off ch=1 n=71 v=78
156130 On ch=1 n=71 v=77
156225 Off ch=1 n=71 v=77
156240 On ch=1 n=71 v=68
156337 Off ch=1 n=71 v=68
156367 On ch=1 n=71 v=67
156597 Off ch=1 n=71 v=67
156605 On ch=1 n=69 v=68
156713 Off ch=1 n=69 v=68
156725 On ch=1 n=69 v=80
156836 Off ch=1 n=69 v=80
156839 On ch=1 n=69 v=61
156952 Off ch=1 n=69 v=61
156960 On ch=1 n=69 v=61
157192 Off ch=1 n=69 v=61
157205 On ch=1 n=68 v=84
157285 Off ch=1 n=68 v=84
157328 On ch=1 n=68 v=78
157555 On ch=1 n=66 v=77
157557 Off ch=1 n=68 v=78
157645 Off ch=1 n=66 v=77
157669 On ch=1 n=66 v=77
158037 Off ch=1 n=66 v=77
158040 On ch=1 n=69 v=75
158160 On ch=1 n=68 v=89
158165 Off ch=1 n=69 v=75
158282 On ch=1 n=66 v=80
158284 Off ch=1 n=68 v=89
158650 Off ch=1 n=66 v=80
159136 On ch=1 n=59 v=98
159294 Off ch=1 n=59 v=98
159354 On ch=1 n=59 v=73
159588 On ch=1 n=64 v=80
159591 Off ch=1 n=59 v=73
159810 Off ch=1 n=64 v=80
159827 On ch=1 n=61 v=89
160077 On ch=1 n=66 v=91
160079 Off ch=1 n=61 v=89
160189 Off ch=1 n=66 v=91
160195 On ch=1 n=63 v=83
160565 On ch=1 n=68 v=87
160568 Off ch=1 n=63 v=83
160802 Off ch=1 n=68 v=87
160810 On ch=1 n=64 v=78
160947 On ch=1 n=69 v=83
160949 Off ch=1 n=64 v=78
161160 Off ch=1 n=69 v=83
161169 On ch=1 n=66 v=74
161484 Off ch=1 n=66 v=74
161512 On ch=1 n=68 v=71
161760 Off ch=1 n=68 v=71
161769 On ch=1 n=71 v=92
162206 Off ch=1 n=71 v=92
206164 On ch=1 n=59 v=82
206266 Off ch=1 n=59 v=82
206401 On ch=1 n=59 v=80
206514 Off ch=1 n=59 v=80
206641 On ch=1 n=64 v=84
206756 Off ch=1 n=64 v=84
206880 On ch=1 n=61 v=94
206989 Off ch=1 n=61 v=94
207123 On ch=1 n=66 v=73
207209 Off ch=1 n=66 v=73
207245 On ch=1 n=63 v=91
207355 Off ch=1 n=63 v=91
207596 On ch=1 n=68 v=87
207716 Off ch=1 n=68 v=87
207844 On ch=1 n=64 v=79
207921 Off ch=1 n=64 v=79
207961 On ch=1 n=69 v=64
208106 Off ch=1 n=69 v=64
208198 On ch=1 n=66 v=108
208371 Off ch=1 n=66 v=108
208561 On ch=1 n=71 v=93
208693 Off ch=1 n=71 v=93
208811 On ch=1 n=68 v=102
209270 Off ch=1 n=68 v=102
211918 On ch=1 n=59 v=68
212014 Off ch=1 n=59 v=68
212158 On ch=1 n=59 v=79
212348 Off ch=1 n=59 v=79
212409 On ch=1 n=64 v=81
212527 Off ch=1 n=64 v=81
212645 On ch=1 n=61 v=82
212865 Off ch=1 n=61 v=82
212885 On ch=1 n=66 v=84
212976 Off ch=1 n=66 v=84
213013 On ch=1 n=63 v=87
213291 Off ch=1 n=63 v=87
213360 On ch=1 n=68 v=84
213451 Off ch=1 n=68 v=84
213487 On ch=1 n=64 v=86
213822 Off ch=1 n=64 v=86
213840 On ch=1 n=69 v=84
213930 Off ch=1 n=69 v=84
213960 On ch=1 n=66 v=77
214296 Off ch=1 n=66 v=77
214334 On ch=1 n=68 v=95
214420 Off ch=1 n=68 v=95
214451 On ch=1 n=64 v=88
215276 Off ch=1 n=64 v=88
217204 On ch=1 n=68 v=96
217306 Off ch=1 n=68 v=96
217319 On ch=1 n=69 v=79
217423 Off ch=1 n=69 v=79
217441 On ch=1 n=69 v=94
217667 Off ch=1 n=69 v=94
217681 On ch=1 n=68 v=91
217791 Off ch=1 n=68 v=91
217809 On ch=1 n=66 v=82
217887 Off ch=1 n=66 v=82
217922 On ch=1 n=66 v=72
218024 Off ch=1 n=66 v=72
218041 On ch=1 n=68 v=72
218138 Off ch=1 n=68 v=72
218162 On ch=1 n=64 v=76
218292 Off ch=1 n=64 v=76
218388 On ch=1 n=64 v=80
218557 Off ch=1 n=64 v=80
218643 On ch=1 n=64 v=75
218766 Off ch=1 n=64 v=75
218887 On ch=1 n=66 v=80
219074 Off ch=1 n=66 v=80
219122 On ch=1 n=66 v=73
219171 Off ch=1 n=66 v=73
219246 On ch=1 n=66 v=67
219729 Off ch=1 n=66 v=67
220199 On ch=1 n=69 v=64
220262 Off ch=1 n=69 v=64
220324 On ch=1 n=69 v=81
220435 Off ch=1 n=69 v=81
220562 On ch=1 n=68 v=91
220652 Off ch=1 n=68 v=91
220680 On ch=1 n=66 v=86
220801 Off ch=1 n=66 v=86
220803 On ch=1 n=68 v=91
221025 Off ch=1 n=68 v=91
221046 On ch=1 n=64 v=83
221110 Off ch=1 n=64 v=83
221276 On ch=1 n=64 v=80
221436 Off ch=1 n=64 v=80
221522 On ch=1 n=64 v=79
221628 Off ch=1 n=64 v=79
221639 On ch=1 n=66 v=83
221760 Off ch=1 n=66 v=83
222002 On ch=1 n=66 v=72
222131 Off ch=1 n=66 v=72
222239 On ch=1 n=66 v=83
222351 On ch=1 n=68 v=67
222353 Off ch=1 n=66 v=83
222475 On ch=1 n=66 v=91
222485 Off ch=1 n=68 v=67
222883 Off ch=1 n=66 v=91
223461 On ch=1 n=59 v=83
223547 Off ch=1 n=59 v=83
223694 On ch=1 n=59 v=84
223876 Off ch=1 n=59 v=84
223915 On ch=1 n=64 v=80
224083 Off ch=1 n=64 v=80
224151 On ch=1 n=61 v=70
224373 Off ch=1 n=61 v=70
224409 On ch=1 n=66 v=72
224585 Off ch=1 n=66 v=72
224646 On ch=1 n=63 v=72
224875 Off ch=1 n=63 v=72
224895 On ch=1 n=68 v=85
224978 Off ch=1 n=68 v=85
225014 On ch=1 n=64 v=87
225339 Off ch=1 n=64 v=87
225364 On ch=1 n=69 v=81
225456 Off ch=1 n=69 v=81
225598 On ch=1 n=66 v=93
225831 Off ch=1 n=66 v=93
225840 On ch=1 n=68 v=79
226049 Off ch=1 n=68 v=79
226075 On ch=1 n=64 v=95
226361 Off ch=1 n=64 v=95
232081 On ch=1 n=71 v=92
232166 Off ch=1 n=71 v=92
232317 On ch=1 n=71 v=91
232411 Off ch=1 n=71 v=91
232564 On ch=1 n=71 v=95
232655 Off ch=1 n=71 v=95
232803 On ch=1 n=71 v=94
232891 Off ch=1 n=71 v=94
233043 On ch=1 n=71 v=92
233133 Off ch=1 n=71 v=92
233279 On ch=1 n=73 v=104
233486 Off ch=1 n=73 v=104
233521 On ch=1 n=69 v=95
233630 Off ch=1 n=69 v=95
233769 On ch=1 n=69 v=104
233984 Off ch=1 n=69 v=104
234950 On ch=1 n=68 v=80
235030 Off ch=1 n=68 v=80
235196 On ch=1 n=68 v=99
235280 Off ch=1 n=68 v=99
235432 On ch=1 n=68 v=97
235489 Off ch=1 n=68 v=97
235647 On ch=1 n=68 v=88
235680 On ch=1 n=66 v=92
235691 Off ch=1 n=68 v=88
235767 Off ch=1 n=66 v=92
235918 On ch=1 n=64 v=94
236061 Off ch=1 n=64 v=94
236160 On ch=1 n=64 v=89
236251 Off ch=1 n=64 v=89
236401 On ch=1 n=64 v=75
236545 Off ch=1 n=64 v=75
236638 On ch=1 n=64 v=91
236824 Off ch=1 n=64 v=91
236884 On ch=1 n=68 v=97
237262 Off ch=1 n=68 v=97
238080 On ch=1 n=71 v=92
238181 Off ch=1 n=71 v=92
238324 On ch=1 n=71 v=94
238377 Off ch=1 n=71 v=94
238445 On ch=1 n=71 v=92
238498 Off ch=1 n=71 v=92
238566 On ch=1 n=71 v=93
238699 Off ch=1 n=71 v=93
238807 On ch=1 n=71 v=92
238877 Off ch=1 n=71 v=92
238914 On ch=1 n=73 v=95
239103 Off ch=1 n=73 v=95
239279 On ch=1 n=69 v=91
239331 Off ch=1 n=69 v=91
239401 On ch=1 n=69 v=91
239555 Off ch=1 n=69 v=91
239634 On ch=1 n=69 v=93
239711 Off ch=1 n=69 v=93
239761 On ch=1 n=71 v=93
240012 Off ch=1 n=71 v=93
240959 On ch=1 n=68 v=99
241112 Off ch=1 n=68 v=99
241211 On ch=1 n=68 v=93
241313 Off ch=1 n=68 v=93
241331 On ch=1 n=66 v=107
241429 Off ch=1 n=66 v=107
241566 On ch=1 n=64 v=104
241726 Off ch=1 n=64 v=104
241800 On ch=1 n=64 v=102
242001 Off ch=1 n=64 v=102
242170 On ch=1 n=64 v=84
242239 Off ch=1 n=64 v=84
242284 On ch=1 n=64 v=88
242376 Off ch=1 n=64 v=88
242412 On ch=1 n=68 v=104
242541 Off ch=1 n=68 v=104
242638 On ch=1 n=66 v=99
242739 Off ch=1 n=66 v=99
242767 On ch=1 n=64 v=106
242959 Off ch=1 n=64 v=106
243115 On ch=1 n=69 v=95
243177 Off ch=1 n=69 v=95
243238 On ch=1 n=69 v=84
243302 Off ch=1 n=69 v=84
243369 On ch=1 n=69 v=97
243478 Off ch=1 n=69 v=97
243609 On ch=1 n=68 v=107
243686 Off ch=1 n=68 v=107
243730 On ch=1 n=66 v=104
243798 Off ch=1 n=66 v=104
243851 On ch=1 n=68 v=101
243967 Off ch=1 n=68 v=101
244083 On ch=1 n=68 v=93
244134 Off ch=1 n=68 v=93
244209 On ch=1 n=68 v=81
244252 Off ch=1 n=68 v=81
244318 On ch=1 n=68 v=91
244412 Off ch=1 n=68 v=91
244555 On ch=1 n=68 v=87
244604 Off ch=1 n=68 v=87
244674 On ch=1 n=68 v=82
244738 Off ch=1 n=68 v=82
244798 On ch=1 n=69 v=91
244923 Off ch=1 n=69 v=91
245027 On ch=1 n=68 v=87
245081 Off ch=1 n=68 v=87
245156 On ch=1 n=66 v=104
245513 Off ch=1 n=66 v=104
246014 On ch=1 n=68 v=85
246092 Off ch=1 n=68 v=85
246129 On ch=1 n=69 v=73
246214 Off ch=1 n=69 v=73
246252 On ch=1 n=69 v=69
246432 Off ch=1 n=69 v=69
246485 On ch=1 n=68 v=81
246563 Off ch=1 n=68 v=81
246614 On ch=1 n=66 v=60
246724 Off ch=1 n=66 v=60
246732 On ch=1 n=68 v=84
246842 Off ch=1 n=68 v=84
246956 On ch=1 n=68 v=72
247022 Off ch=1 n=68 v=72
247073 On ch=1 n=68 v=79
247169 Off ch=1 n=68 v=79
247320 On ch=1 n=73 v=79
247455 Off ch=1 n=73 v=79
247675 On ch=1 n=68 v=85
247751 Off ch=1 n=68 v=85
247786 On ch=1 n=66 v=73
247859 Off ch=1 n=66 v=73
247915 On ch=1 n=66 v=81
248636 Off ch=1 n=66 v=81
249377 On ch=1 n=71 v=92
249462 Off ch=1 n=71 v=92
249601 On ch=1 n=71 v=91
249707 Off ch=1 n=71 v=91
249838 On ch=1 n=71 v=80
249939 Off ch=1 n=71 v=80
250072 On ch=1 n=71 v=81
250196 Off ch=1 n=71 v=81
250310 On ch=1 n=71 v=77
250378 Off ch=1 n=71 v=77
250433 On ch=1 n=71 v=76
250623 Off ch=1 n=71 v=76
250786 On ch=1 n=71 v=65
250908 Off ch=1 n=71 v=65
251023 On ch=1 n=71 v=84
251092 Off ch=1 n=71 v=84
251163 On ch=1 n=71 v=76
251228 Off ch=1 n=71 v=76
251274 On ch=1 n=71 v=78
251506 Off ch=1 n=71 v=78
251758 On ch=1 n=71 v=76
251850 Off ch=1 n=71 v=76
252018 On ch=1 n=71 v=98
252735 Off ch=1 n=71 v=98
254655 On ch=1 n=69 v=100
254726 Off ch=1 n=69 v=100
254757 On ch=1 n=69 v=70
254815 Off ch=1 n=69 v=70
254882 On ch=1 n=69 v=88
254949 Off ch=1 n=69 v=88
255018 On ch=1 n=71 v=88
255073 Off ch=1 n=71 v=88
255129 On ch=1 n=71 v=77
255178 Off ch=1 n=71 v=77
255241 On ch=1 n=71 v=81
255514 Off ch=1 n=71 v=81
255611 On ch=1 n=69 v=86
255670 Off ch=1 n=69 v=86
255724 On ch=1 n=69 v=78
256014 Off ch=1 n=69 v=78
256068 On ch=1 n=68 v=85
256155 Off ch=1 n=68 v=85
256286 On ch=1 n=68 v=67
256407 Off ch=1 n=68 v=67
256443 On ch=1 n=66 v=60
256644 Off ch=1 n=66 v=60
256808 On ch=1 n=66 v=61
257126 Off ch=1 n=66 v=61
257520 On ch=1 n=71 v=79
257580 Off ch=1 n=71 v=79
257641 On ch=1 n=71 v=75
257688 Off ch=1 n=71 v=75
257762 On ch=1 n=71 v=91
257829 Off ch=1 n=71 v=91
257884 On ch=1 n=71 v=81
257947 Off ch=1 n=71 v=81
258007 On ch=1 n=71 v=73
258059 Off ch=1 n=71 v=73
258123 On ch=1 n=71 v=84
258348 Off ch=1 n=71 v=84
258477 On ch=1 n=69 v=80
258543 Off ch=1 n=69 v=80
258596 On ch=1 n=69 v=76
258680 Off ch=1 n=69 v=76
258725 On ch=1 n=69 v=68
258820 Off ch=1 n=69 v=68
258963 On ch=1 n=68 v=73
259126 Off ch=1 n=68 v=73
259200 On ch=1 n=68 v=80
259393 Off ch=1 n=68 v=80
259445 On ch=1 n=66 v=63
259522 Off ch=1 n=66 v=63
259564 On ch=1 n=66 v=64
259925 Off ch=1 n=66 v=64
260522 On ch=1 n=71 v=65
260606 Off ch=1 n=71 v=65
260652 On ch=1 n=71 v=88
260801 Off ch=1 n=71 v=88
260885 On ch=1 n=71 v=80
260937 Off ch=1 n=71 v=80
261005 On ch=1 n=71 v=69
261056 Off ch=1 n=71 v=69
261114 On ch=1 n=71 v=73
261204 Off ch=1 n=71 v=73
261361 On ch=1 n=69 v=74
261417 Off ch=1 n=69 v=74
261480 On ch=1 n=69 v=63
261562 Off ch=1 n=69 v=63
261605 On ch=1 n=71 v=78
261768 Off ch=1 n=71 v=78
261840 On ch=1 n=71 v=72
261962 Off ch=1 n=71 v=72
262083 On ch=1 n=71 v=88
263835 Off ch=1 n=71 v=88
264240 On ch=1 n=59 v=100
264406 Off ch=1 n=59 v=100
264483 On ch=1 n=59 v=90
264620 Off ch=1 n=59 v=90
264716 On ch=1 n=64 v=74
264883 Off ch=1 n=64 v=74
264966 On ch=1 n=61 v=101
265061 Off ch=1 n=61 v=101
265084 On ch=1 n=66 v=83
265324 Off ch=1 n=66 v=83
265443 On ch=1 n=63 v=87
265633 Off ch=1 n=63 v=87
265685 On ch=1 n=68 v=82
265805 Off ch=1 n=68 v=82
265806 On ch=1 n=64 v=80
266033 Off ch=1 n=64 v=80
266160 On ch=1 n=69 v=80
266271 Off ch=1 n=69 v=80
266403 On ch=1 n=66 v=84
266574 Off ch=1 n=66 v=84
266645 On ch=1 n=68 v=91
266801 Off ch=1 n=68 v=91
266881 On ch=1 n=71 v=104
267386 Off ch=1 n=71 v=104
288240 On ch=1 n=66 v=88
288281 Off ch=1 n=66 v=88
288372 On ch=1 n=66 v=83
288546 Off ch=1 n=66 v=83
288724 On ch=1 n=68 v=84
288787 Off ch=1 n=68 v=84
288848 On ch=1 n=66 v=86
289078 Off ch=1 n=66 v=86
289202 On ch=1 n=71 v=88
289318 Off ch=1 n=71 v=88
289440 KeySig 2 major
289445 On ch=1 n=70 v=87
289596 Off ch=1 n=70 v=87
289677 On ch=1 n=66 v=73
289721 Off ch=1 n=66 v=73
289803 On ch=1 n=66 v=70
289899 Off ch=1 n=66 v=70
289919 On ch=1 n=63 v=67
290043 Off ch=1 n=63 v=67
290165 On ch=1 n=63 v=61
290251 Off ch=1 n=63 v=61
290280 On ch=1 n=61 v=70
290366 Off ch=1 n=61 v=70
290404 On ch=1 n=59 v=83
290592 Off ch=1 n=59 v=83
290643 On ch=1 n=66 v=87
291744 Off ch=1 n=66 v=87
292560 On ch=1 n=66 v=88
292601 Off ch=1 n=66 v=88
292689 On ch=1 n=66 v=83
292863 Off ch=1 n=66 v=83
293044 On ch=1 n=68 v=84
293107 Off ch=1 n=68 v=84
293168 On ch=1 n=66 v=86
293398 Off ch=1 n=66 v=86
293526 On ch=1 n=71 v=88
293642 Off ch=1 n=71 v=88
293762 On ch=1 n=70 v=87
293913 Off ch=1 n=70 v=87
293997 On ch=1 n=66 v=73
294041 Off ch=1 n=66 v=73
294123 On ch=1 n=66 v=70
294219 Off ch=1 n=66 v=70
294243 On ch=1 n=63 v=67
294367 Off ch=1 n=63 v=67
294485 On ch=1 n=63 v=61
294571 Off ch=1 n=63 v=61
294600 On ch=1 n=61 v=70
294686 Off ch=1 n=61 v=70
294721 On ch=1 n=59 v=84
294837 Off ch=1 n=59 v=84
294955 On ch=1 n=59 v=87
296056 Off ch=1 n=59 v=87
296880 On ch=1 n=66 v=88
296921 Off ch=1 n=66 v=88
297012 On ch=1 n=66 v=83
297186 Off ch=1 n=66 v=83
297364 On ch=1 n=68 v=84
297427 Off ch=1 n=68 v=84
297488 On ch=1 n=66 v=86
297718 Off ch=1 n=66 v=86
297846 On ch=1 n=71 v=88
297962 Off ch=1 n=71 v=88
298085 On ch=1 n=70 v=87
298236 Off ch=1 n=70 v=87
298317 On ch=1 n=66 v=73
298361 Off ch=1 n=66 v=73
298443 On ch=1 n=66 v=70
298539 Off ch=1 n=66 v=70
298559 On ch=1 n=63 v=67
298683 Off ch=1 n=63 v=67
298805 On ch=1 n=63 v=61
298891 Off ch=1 n=63 v=61
298920 On ch=1 n=61 v=70
299006 Off ch=1 n=61 v=70
299044 On ch=1 n=59 v=83
299232 Off ch=1 n=59 v=83
299283 On ch=1 n=66 v=87
299520 KeySig 0 major
300384 Off ch=1 n=66 v=87
301200 On ch=1 n=66 v=88
301241 Off ch=1 n=66 v=88
301329 On ch=1 n=66 v=83
301503 Off ch=1 n=66 v=83
301684 On ch=1 n=68 v=84
301747 Off ch=1 n=68 v=84
301808 On ch=1 n=66 v=86
302038 Off ch=1 n=66 v=86
302166 On ch=1 n=71 v=88
302282 Off ch=1 n=71 v=88
302398 On ch=1 n=70 v=87
302545 Off ch=1 n=70 v=87
302637 On ch=1 n=66 v=95
302783 Off ch=1 n=66 v=95
302876 On ch=1 n=63 v=94
303000 Off ch=1 n=63 v=94
303125 On ch=1 n=63 v=91
303211 Off ch=1 n=63 v=91
303236 On ch=1 n=66 v=91
303322 Off ch=1 n=66 v=91
303353 On ch=1 n=63 v=92
303541 Off ch=1 n=63 v=92
303600 On ch=1 n=63 v=87
303797 Off ch=1 n=63 v=87
303843 On ch=1 n=59 v=93
304944 Off ch=1 n=59 v=93
306720 Meta TrkEnd
TrkEnd
MTrk
0 Meta TrkName "Squire"
0 Meta 0x20 01
0 Meta InstrName "Squire"
0 KeySig 2 major
90 Par ch=2 c=0 v=8
95 Par ch=2 c=32 v=0
100 PrCh ch=2 p=26
105 Par ch=2 c=7 v=100
110 Par ch=2 c=10 v=64
115 Par ch=2 c=91 v=40
120 Par ch=2 c=93 v=0
125 Par ch=2 c=101 v=0
125 Par ch=2 c=100 v=0
125 Par ch=2 c=6 v=2
130 Par ch=2 c=99 v=1
130 Par ch=2 c=98 v=8
130 Par ch=2 c=6 v=64
135 Par ch=2 c=99 v=1
135 Par ch=2 c=98 v=9
135 Par ch=2 c=6 v=64
140 Par ch=2 c=99 v=1
140 Par ch=2 c=98 v=10
140 Par ch=2 c=6 v=64
145 Par ch=2 c=99 v=1
145 Par ch=2 c=98 v=32
145 Par ch=2 c=6 v=64
150 Par ch=2 c=99 v=1
150 Par ch=2 c=98 v=33
150 Par ch=2 c=6 v=64
155 Par ch=2 c=99 v=1
155 Par ch=2 c=98 v=99
155 Par ch=2 c=6 v=64
160 Par ch=2 c=99 v=1
160 Par ch=2 c=98 v=100
160 Par ch=2 c=6 v=64
165 Par ch=2 c=99 v=1
165 Par ch=2 c=98 v=102
165 Par ch=2 c=6 v=64
24960 On ch=2 n=26 v=101
25053 Off ch=2 n=26 v=101
25080 On ch=2 n=26 v=97
25179 Off ch=2 n=26 v=97
25200 On ch=2 n=26 v=100
25291 Off ch=2 n=26 v=100
25320 On ch=2 n=26 v=103
25416 Off ch=2 n=26 v=103
25680 On ch=2 n=26 v=108
25776 Off ch=2 n=26 v=108
25800 On ch=2 n=26 v=109
25897 Off ch=2 n=26 v=109
27840 On ch=2 n=26 v=101
27933 Off ch=2 n=26 v=101
27960 On ch=2 n=26 v=97
28059 Off ch=2 n=26 v=97
28080 On ch=2 n=26 v=100
28171 Off ch=2 n=26 v=100
28200 On ch=2 n=26 v=103
28296 Off ch=2 n=26 v=103
28560 On ch=2 n=26 v=108
28656 Off ch=2 n=26 v=108
28680 On ch=2 n=26 v=109
28777 Off ch=2 n=26 v=109
30720 On ch=2 n=26 v=101
30813 Off ch=2 n=26 v=101
30840 On ch=2 n=26 v=97
30939 Off ch=2 n=26 v=97
30960 On ch=2 n=26 v=100
31051 Off ch=2 n=26 v=100
31080 On ch=2 n=26 v=103
31176 Off ch=2 n=26 v=103
31440 On ch=2 n=26 v=108
31536 Off ch=2 n=26 v=108
31560 On ch=2 n=26 v=109
31657 Off ch=2 n=26 v=109
33600 On ch=2 n=26 v=101
33693 Off ch=2 n=26 v=101
33720 On ch=2 n=26 v=97
33819 Off ch=2 n=26 v=97
33840 On ch=2 n=26 v=100
33931 Off ch=2 n=26 v=100
33960 On ch=2 n=26 v=103
34056 Off ch=2 n=26 v=103
34320 On ch=2 n=26 v=108
34416 Off ch=2 n=26 v=108
34440 On ch=2 n=26 v=109
34537 Off ch=2 n=26 v=109
36480 On ch=2 n=26 v=101
36573 Off ch=2 n=26 v=101
36600 On ch=2 n=26 v=97
36699 Off ch=2 n=26 v=97
36720 On ch=2 n=26 v=100
36811 Off ch=2 n=26 v=100
36840 On ch=2 n=26 v=103
36936 Off ch=2 n=26 v=103
37200 On ch=2 n=26 v=108
37296 Off ch=2 n=26 v=108
37320 On ch=2 n=26 v=109
37417 Off ch=2 n=26 v=109
39360 On ch=2 n=26 v=101
39453 Off ch=2 n=26 v=101
39480 On ch=2 n=26 v=97
39579 Off ch=2 n=26 v=97
39600 On ch=2 n=26 v=100
39691 Off ch=2 n=26 v=100
39720 On ch=2 n=26 v=103
39816 Off ch=2 n=26 v=103
40080 On ch=2 n=26 v=108
40176 Off ch=2 n=26 v=108
40200 On ch=2 n=26 v=109
40297 Off ch=2 n=26 v=109
42240 On ch=2 n=26 v=101
42333 Off ch=2 n=26 v=101
42360 On ch=2 n=26 v=97
42459 Off ch=2 n=26 v=97
42480 On ch=2 n=26 v=100
42571 Off ch=2 n=26 v=100
42600 On ch=2 n=26 v=103
42696 Off ch=2 n=26 v=103
42960 On ch=2 n=26 v=108
43056 Off ch=2 n=26 v=108
43080 On ch=2 n=26 v=109
43177 Off ch=2 n=26 v=109
45120 On ch=2 n=26 v=101
45213 Off ch=2 n=26 v=101
45240 On ch=2 n=26 v=97
45339 Off ch=2 n=26 v=97
45360 On ch=2 n=26 v=100
45451 Off ch=2 n=26 v=100
45480 On ch=2 n=26 v=103
45576 Off ch=2 n=26 v=103
45840 On ch=2 n=26 v=108
45936 Off ch=2 n=26 v=108
45960 On ch=2 n=26 v=109
46057 Off ch=2 n=26 v=109
48000 On ch=2 n=26 v=101
48093 Off ch=2 n=26 v=101
48120 On ch=2 n=26 v=97
48219 Off ch=2 n=26 v=97
48240 On ch=2 n=26 v=100
48331 Off ch=2 n=26 v=100
48360 On ch=2 n=26 v=103
48456 Off ch=2 n=26 v=103
48720 On ch=2 n=26 v=108
48816 Off ch=2 n=26 v=108
48840 On ch=2 n=26 v=109
48937 Off ch=2 n=26 v=109
50880 On ch=2 n=26 v=101
50973 Off ch=2 n=26 v=101
51000 On ch=2 n=26 v=97
51099 Off ch=2 n=26 v=97
51120 On ch=2 n=26 v=100
51211 Off ch=2 n=26 v=100
51240 On ch=2 n=26 v=103
51336 Off ch=2 n=26 v=103
51600 On ch=2 n=26 v=108
51696 Off ch=2 n=26 v=108
51720 On ch=2 n=26 v=109
51817 Off ch=2 n=26 v=109
53760 On ch=2 n=26 v=101
53853 Off ch=2 n=26 v=101
53880 On ch=2 n=26 v=97
53979 Off ch=2 n=26 v=97
54000 On ch=2 n=26 v=100
54091 Off ch=2 n=26 v=100
54120 On ch=2 n=26 v=103
54216 Off ch=2 n=26 v=103
54480 On ch=2 n=26 v=108
54576 Off ch=2 n=26 v=108
54600 On ch=2 n=26 v=109
54697 Off ch=2 n=26 v=109
56640 On ch=2 n=26 v=101
56733 Off ch=2 n=26 v=101
56760 On ch=2 n=26 v=97
56859 Off ch=2 n=26 v=97
56880 On ch=2 n=26 v=100
56971 Off ch=2 n=26 v=100
57000 On ch=2 n=26 v=103
57096 Off ch=2 n=26 v=103
57360 On ch=2 n=26 v=108
57456 Off ch=2 n=26 v=108
57480 On ch=2 n=26 v=109
57577 Off ch=2 n=26 v=109
59520 On ch=2 n=26 v=101
59613 Off ch=2 n=26 v=101
59640 On ch=2 n=26 v=97
59739 Off ch=2 n=26 v=97
59760 On ch=2 n=26 v=100
59851 Off ch=2 n=26 v=100
59880 On ch=2 n=26 v=103
59976 Off ch=2 n=26 v=103
60240 On ch=2 n=26 v=108
60336 Off ch=2 n=26 v=108
60360 On ch=2 n=26 v=109
60457 Off ch=2 n=26 v=109
62400 On ch=2 n=26 v=101
62493 Off ch=2 n=26 v=101
62520 On ch=2 n=26 v=97
62619 Off ch=2 n=26 v=97
62640 On ch=2 n=26 v=100
62731 Off ch=2 n=26 v=100
62760 On ch=2 n=26 v=103
62856 Off ch=2 n=26 v=103
63120 On ch=2 n=26 v=108
63216 Off ch=2 n=26 v=108
63240 On ch=2 n=26 v=109
63337 Off ch=2 n=26 v=109
65280 On ch=2 n=26 v=101
65373 Off ch=2 n=26 v=101
65400 On ch=2 n=26 v=97
65499 Off ch=2 n=26 v=97
65520 On ch=2 n=26 v=100
65611 Off ch=2 n=26 v=100
65640 On ch=2 n=26 v=103
65736 Off ch=2 n=26 v=103
66000 On ch=2 n=26 v=108
66096 Off ch=2 n=26 v=108
66120 On ch=2 n=26 v=109
66217 Off ch=2 n=26 v=109
68160 On ch=2 n=26 v=101
68253 Off ch=2 n=26 v=101
68280 On ch=2 n=26 v=97
68379 Off ch=2 n=26 v=97
68400 On ch=2 n=26 v=100
68491 Off ch=2 n=26 v=100
68520 On ch=2 n=26 v=103
68616 Off ch=2 n=26 v=103
68880 On ch=2 n=26 v=108
68976 Off ch=2 n=26 v=108
69000 On ch=2 n=26 v=109
69097 Off ch=2 n=26 v=109
71040 On ch=2 n=26 v=101
71133 Off ch=2 n=26 v=101
71160 On ch=2 n=26 v=97
71259 Off ch=2 n=26 v=97
71280 On ch=2 n=26 v=100
71371 Off ch=2 n=26 v=100
71400 On ch=2 n=26 v=103
71496 Off ch=2 n=26 v=103
71760 On ch=2 n=26 v=108
71856 Off ch=2 n=26 v=108
71880 On ch=2 n=26 v=109
71977 Off ch=2 n=26 v=109
73920 On ch=2 n=26 v=101
74013 Off ch=2 n=26 v=101
74040 On ch=2 n=26 v=97
74139 Off ch=2 n=26 v=97
74160 On ch=2 n=26 v=100
74251 Off ch=2 n=26 v=100
74280 On ch=2 n=26 v=103
74376 Off ch=2 n=26 v=103
74640 On ch=2 n=26 v=108
74736 Off ch=2 n=26 v=108
74760 On ch=2 n=26 v=109
74857 Off ch=2 n=26 v=109
76800 On ch=2 n=26 v=101
76893 Off ch=2 n=26 v=101
76920 On ch=2 n=26 v=97
77019 Off ch=2 n=26 v=97
77040 On ch=2 n=26 v=100
77131 Off ch=2 n=26 v=100
77160 On ch=2 n=26 v=103
77256 Off ch=2 n=26 v=103
77520 On ch=2 n=26 v=108
77616 Off ch=2 n=26 v=108
77640 On ch=2 n=26 v=109
77737 Off ch=2 n=26 v=109
79680 On ch=2 n=26 v=101
79773 Off ch=2 n=26 v=101
79800 On ch=2 n=26 v=97
79899 Off ch=2 n=26 v=97
79920 On ch=2 n=26 v=100
80011 Off ch=2 n=26 v=100
80040 On ch=2 n=26 v=103
80136 Off ch=2 n=26 v=103
80400 On ch=2 n=26 v=108
80496 Off ch=2 n=26 v=108
80520 On ch=2 n=26 v=109
80617 Off ch=2 n=26 v=109
82560 On ch=2 n=26 v=101
82653 Off ch=2 n=26 v=101
82680 On ch=2 n=26 v=97
82779 Off ch=2 n=26 v=97
82800 On ch=2 n=26 v=100
82891 Off ch=2 n=26 v=100
82920 On ch=2 n=26 v=103
83016 Off ch=2 n=26 v=103
83280 On ch=2 n=26 v=108
83376 Off ch=2 n=26 v=108
83400 On ch=2 n=26 v=109
83497 Off ch=2 n=26 v=109
85440 On ch=2 n=26 v=101
85533 Off ch=2 n=26 v=101
85560 On ch=2 n=26 v=97
85659 Off ch=2 n=26 v=97
85680 On ch=2 n=26 v=100
85771 Off ch=2 n=26 v=100
85800 On ch=2 n=26 v=103
85896 Off ch=2 n=26 v=103
86160 On ch=2 n=26 v=108
86256 Off ch=2 n=26 v=108
86280 On ch=2 n=26 v=109
86377 Off ch=2 n=26 v=109
86400 PrCh ch=2 p=33
86433 Par ch=2 c=0 v=0
86433 Par ch=2 c=32 v=0
86882 On ch=2 n=34 v=94
87059 Off ch=2 n=34 v=94
87124 On ch=2 n=34 v=97
87335 Off ch=2 n=34 v=97
87362 On ch=2 n=43 v=85
87590 Off ch=2 n=43 v=85
87595 On ch=2 n=34 v=70
87832 On ch=2 n=41 v=88
87833 Off ch=2 n=34 v=70
88077 Off ch=2 n=41 v=88
88081 On ch=2 n=34 v=85
88312 Off ch=2 n=34 v=85
88315 On ch=2 n=46 v=87
88548 Off ch=2 n=46 v=87
88559 On ch=2 n=48 v=85
88690 Off ch=2 n=48 v=85
88799 On ch=2 n=48 v=102
89031 Off ch=2 n=48 v=102
89042 On ch=2 n=55 v=80
89285 Off ch=2 n=55 v=80
89286 On ch=2 n=52 v=90
89519 Off ch=2 n=52 v=90
89521 On ch=2 n=45 v=84
89956 Off ch=2 n=45 v=84
90013 On ch=2 n=45 v=87
90128 Off ch=2 n=45 v=87
90131 On ch=2 n=44 v=70
90249 Off ch=2 n=44 v=70
90257 On ch=2 n=45 v=86
90470 Off ch=2 n=45 v=86
90476 On ch=2 n=40 v=85
90691 Off ch=2 n=40 v=85
90727 On ch=2 n=34 v=95
90914 Off ch=2 n=34 v=95
90964 On ch=2 n=34 v=97
91175 Off ch=2 n=34 v=97
91202 On ch=2 n=43 v=85
91425 On ch=2 n=34 v=70
91430 Off ch=2 n=43 v=85
91663 Off ch=2 n=34 v=70
91672 On ch=2 n=41 v=88
91911 On ch=2 n=34 v=85
91917 Off ch=2 n=41 v=88
92142 Off ch=2 n=34 v=85
92155 On ch=2 n=46 v=87
92388 Off ch=2 n=46 v=87
92394 On ch=2 n=48 v=84
92600 Off ch=2 n=48 v=84
92648 On ch=2 n=50 v=97
92869 Off ch=2 n=50 v=97
92876 On ch=2 n=48 v=80
93110 Off ch=2 n=48 v=80
93110 On ch=2 n=45 v=86
93345 Off ch=2 n=45 v=86
93356 On ch=2 n=40 v=87
94036 Off ch=2 n=40 v=87
94086 On ch=2 n=40 v=75
94298 Off ch=2 n=40 v=75
94321 On ch=2 n=35 v=80
94544 Off ch=2 n=35 v=80
94567 On ch=2 n=34 v=95
94754 Off ch=2 n=34 v=95
94804 On ch=2 n=34 v=97
95015 Off ch=2 n=34 v=97
95042 On ch=2 n=43 v=85
95265 On ch=2 n=34 v=70
95270 Off ch=2 n=43 v=85
95503 Off ch=2 n=34 v=70
95512 On ch=2 n=41 v=88
95751 On ch=2 n=34 v=85
95757 Off ch=2 n=41 v=88
95982 Off ch=2 n=34 v=85
95995 On ch=2 n=46 v=87
96228 Off ch=2 n=46 v=87
96237 On ch=2 n=43 v=85
96711 Off ch=2 n=43 v=85
96726 On ch=2 n=38 v=92
96727 On ch=2 n=50 v=84
97149 Off ch=2 n=50 v=84
97165 Off ch=2 n=38 v=92
97195 On ch=2 n=34 v=95
97198 On ch=2 n=46 v=84
97645 Off ch=2 n=34 v=95
97646 Off ch=2 n=46 v=84
97678 On ch=2 n=36 v=86
97683 On ch=2 n=48 v=77
98117 Off ch=2 n=48 v=77
98127 Off ch=2 n=36 v=86
98163 On ch=2 n=38 v=97
98172 On ch=2 n=50 v=80
98560 Off ch=2 n=38 v=97
98567 Off ch=2 n=50 v=80
98645 On ch=2 n=31 v=80
98763 On ch=2 n=33 v=87
98768 Off ch=2 n=31 v=80
98843 Off ch=2 n=33 v=87
98874 On ch=2 n=33 v=81
98993 Off ch=2 n=33 v=81
98996 On ch=2 n=35 v=71
99114 On ch=2 n=38 v=68
99126 Off ch=2 n=35 v=71
99288 Off ch=2 n=38 v=68
99358 On ch=2 n=38 v=79
99538 Off ch=2 n=38 v=79
99596 On ch=2 n=35 v=83
99777 Off ch=2 n=35 v=83
99841 On ch=2 n=33 v=84
99959 On ch=2 n=30 v=81
99963 Off ch=2 n=33 v=84
100066 Off ch=2 n=30 v=81
100070 On ch=2 n=26 v=80
100272 Off ch=2 n=26 v=80
100329 On ch=2 n=38 v=86
100498 Off ch=2 n=38 v=86
100567 On ch=2 n=30 v=101
101028 Off ch=2 n=30 v=101
101048 On ch=2 n=31 v=97
101514 Off ch=2 n=31 v=97
101526 On ch=2 n=32 v=87
101995 Off ch=2 n=32 v=87
102005 On ch=2 n=33 v=81
102215 Off ch=2 n=33 v=81
102240 On ch=2 n=33 v=102
102946 Off ch=2 n=33 v=102
102964 On ch=2 n=33 v=98
103652 Off ch=2 n=33 v=98
103692 On ch=2 n=45 v=80
103692 On ch=2 n=33 v=85
104071 Off ch=2 n=45 v=80
104082 Off ch=2 n=33 v=85
104156 On ch=2 n=33 v=91
104159 On ch=2 n=45 v=80
105980 Off ch=2 n=33 v=91
105982 Off ch=2 n=45 v=80
106080 KeySig 3 major
118560 KeySig 0 major
149648 On ch=2 n=35 v=119
149757 Off ch=2 n=35 v=119
149769 On ch=2 n=33 v=125
150225 Off ch=2 n=33 v=125
150242 On ch=2 n=35 v=100
151195 Off ch=2 n=35 v=100
151207 On ch=2 n=37 v=74
151679 On ch=2 n=30 v=87
151680 Off ch=2 n=37 v=74
152491 Off ch=2 n=30 v=87
152523 On ch=2 n=30 v=86
152639 Off ch=2 n=30 v=86
152650 On ch=2 n=33 v=102
153120 Off ch=2 n=33 v=102
153127 On ch=2 n=35 v=98
154075 Off ch=2 n=35 v=98
154084 On ch=2 n=37 v=93
154551 On ch=2 n=30 v=95
154552 Off ch=2 n=37 v=93
155387 Off ch=2 n=30 v=95
155406 On ch=2 n=30 v=82
155515 Off ch=2 n=30 v=82
155523 On ch=2 n=33 v=95
155982 Off ch=2 n=33 v=95
156000 On ch=2 n=35 v=83
156963 On ch=2 n=37 v=81
156967 Off ch=2 n=35 v=83
157440 Off ch=2 n=37 v=81
157440 On ch=2 n=30 v=90
158398 Off ch=2 n=30 v=90
158406 On ch=2 n=33 v=93
158640 On ch=2 n=32 v=88
158641 Off ch=2 n=33 v=93
158759 Off ch=2 n=32 v=88
158759 On ch=2 n=30 v=91
158872 Off ch=2 n=30 v=91
158884 On ch=2 n=40 v=104
159838 Off ch=2 n=40 v=104
159847 On ch=2 n=42 v=100
160314 Off ch=2 n=42 v=100
160322 On ch=2 n=35 v=100
161281 On ch=2 n=33 v=95
161282 Off ch=2 n=35 v=100
161595 Pb ch=2 v=7840
161602 Pb ch=2 v=7372
161610 Pb ch=2 v=6904
161617 Pb ch=2 v=6436
161625 Pb ch=2 v=6085
161633 Pb ch=2 v=5383
161640 Pb ch=2 v=4447
161648 Pb ch=2 v=3511
161656 Pb ch=2 v=2692
161663 Pb ch=2 v=1873
161670 Pb ch=2 v=937
161678 Pb ch=2 v=1
161686 Pb ch=2 v=0
161751 Off ch=2 n=33 v=95
161760 KeySig 4 major
161760 Pb ch=2 v=8192
167520 KeySig 5 major
171485 On ch=2 n=59 v=67
171585 Off ch=2 n=59 v=67
171598 On ch=2 n=59 v=57
171687 On ch=2 n=57 v=66
171690 Off ch=2 n=59 v=57
171758 Off ch=2 n=57 v=66
171761 On ch=2 n=59 v=70
171854 On ch=2 n=57 v=73
171873 Off ch=2 n=59 v=70
171920 On ch=2 n=54 v=63
171938 Off ch=2 n=57 v=73
171999 On ch=2 n=52 v=66
172011 Off ch=2 n=54 v=63
172083 On ch=2 n=50 v=68
172085 Off ch=2 n=52 v=66
172175 On ch=2 n=49 v=77
172178 Off ch=2 n=50 v=68
172269 On ch=2 n=47 v=74
172289 Off ch=2 n=49 v=77
172380 On ch=2 n=45 v=70
172387 Off ch=2 n=47 v=74
172586 On ch=2 n=40 v=56
172604 Off ch=2 n=45 v=70
172633 On ch=2 n=42 v=75
172638 Off ch=2 n=40 v=56
172725 Off ch=2 n=42 v=75
172728 On ch=2 n=40 v=79
172800 Off ch=2 n=40 v=79
172801 On ch=2 n=38 v=66
172895 Off ch=2 n=38 v=66
172903 On ch=2 n=35 v=62
173188 Off ch=2 n=35 v=62
177120 KeySig 0 major
226080 On ch=2 n=44 v=60
226080 On ch=2 n=49 v=81
226400 Off ch=2 n=44 v=60
226400 Off ch=2 n=49 v=81
226560 On ch=2 n=44 v=54
226560 On ch=2 n=52 v=81
226880 Off ch=2 n=44 v=54
226880 Off ch=2 n=52 v=81
227040 On ch=2 n=42 v=60
227040 On ch=2 n=49 v=81
227360 Off ch=2 n=42 v=60
227360 Off ch=2 n=49 v=81
227520 On ch=2 n=59 v=81
227520 On ch=2 n=44 v=61
227840 Off ch=2 n=59 v=81
227840 Off ch=2 n=44 v=61
227996 On ch=2 n=56 v=81
228000 On ch=2 n=44 v=61
228316 Off ch=2 n=56 v=81
228320 Off ch=2 n=44 v=61
228480 On ch=2 n=42 v=61
228487 On ch=2 n=49 v=83
228791 Off ch=2 n=49 v=83
228800 Off ch=2 n=42 v=61
228960 On ch=2 n=37 v=81
229074 Off ch=2 n=37 v=81
229080 On ch=2 n=39 v=80
229190 Off ch=2 n=39 v=80
229200 On ch=2 n=42 v=81
229310 Off ch=2 n=42 v=81
229320 On ch=2 n=44 v=81
229430 Off ch=2 n=44 v=81
229440 On ch=2 n=47 v=82
229680 On ch=2 n=49 v=81
229683 Off ch=2 n=47 v=82
229783 Off ch=2 n=49 v=81
229920 On ch=2 n=54 v=85
230155 Off ch=2 n=54 v=85
230160 On ch=2 n=59 v=81
230245 Off ch=2 n=59 v=81
230400 On ch=2 n=56 v=83
230455 Off ch=2 n=56 v=83
230458 On ch=2 n=57 v=81
230506 On ch=2 n=56 v=81
230515 Off ch=2 n=57 v=81
230639 Off ch=2 n=56 v=81
230640 On ch=2 n=52 v=83
230838 Off ch=2 n=52 v=83
230880 On ch=2 n=49 v=81
231160 Pb ch=2 v=7606
231217 Pb ch=2 v=6319
231235 Pb ch=2 v=4681
231266 Pb ch=2 v=3160
231294 Pb ch=2 v=1756
231306 Pb ch=2 v=778
231318 Pb ch=2 v=0
231328 Off ch=2 n=49 v=81
231360 Pb ch=2 v=8192
231360 On ch=2 n=47 v=81
231440 Off ch=2 n=47 v=81
231480 On ch=2 n=44 v=81
231835 Off ch=2 n=44 v=81
231840 On ch=2 n=40 v=81
232480 Off ch=2 n=40 v=81
232800 On ch=2 n=42 v=81
233120 Off ch=2 n=42 v=81
233280 On ch=2 n=35 v=81
233280 On ch=2 n=47 v=81
233920 Off ch=2 n=35 v=81
233920 Off ch=2 n=47 v=81
234240 On ch=2 n=37 v=81
234240 On ch=2 n=49 v=81
234560 Off ch=2 n=37 v=81
234560 Off ch=2 n=49 v=81
234720 On ch=2 n=32 v=81
234720 On ch=2 n=44 v=81
235360 Off ch=2 n=32 v=81
235360 Off ch=2 n=44 v=81
235680 On ch=2 n=33 v=81
235680 On ch=2 n=45 v=81
236000 Off ch=2 n=33 v=81
236000 Off ch=2 n=45 v=81
236160 On ch=2 n=35 v=81
236160 On ch=2 n=47 v=81
236800 Off ch=2 n=35 v=81
236800 Off ch=2 n=47 v=81
237120 On ch=2 n=35 v=82
237238 Off ch=2 n=35 v=82
237240 On ch=2 n=37 v=81
237360 On ch=2 n=40 v=81
237365 Off ch=2 n=37 v=81
237520 Off ch=2 n=40 v=81
237600 On ch=2 n=40 v=81
238240 Off ch=2 n=40 v=81
238560 On ch=2 n=40 v=81
238680 On ch=2 n=42 v=81
238681 Off ch=2 n=40 v=81
238920 Off ch=2 n=42 v=81
239040 On ch=2 n=35 v=81
239680 Off ch=2 n=35 v=81
240000 On ch=2 n=35 v=81
240120 On ch=2 n=37 v=81
240125 Off ch=2 n=35 v=81
240360 Off ch=2 n=37 v=81
240480 On ch=2 n=32 v=81
240480 On ch=2 n=44 v=81
241120 Off ch=2 n=32 v=81
241120 Off ch=2 n=44 v=81
241440 On ch=2 n=33 v=81
241440 On ch=2 n=45 v=81
241760 Off ch=2 n=33 v=81
241760 Off ch=2 n=45 v=81
241920 On ch=2 n=35 v=81
241920 On ch=2 n=47 v=81
242560 Off ch=2 n=35 v=81
242560 Off ch=2 n=47 v=81
242880 On ch=2 n=35 v=81
243000 On ch=2 n=37 v=81
243001 Off ch=2 n=35 v=81
243120 On ch=2 n=40 v=81
243125 Off ch=2 n=37 v=81
243280 Off ch=2 n=40 v=81
243360 On ch=2 n=37 v=97
243845 Off ch=2 n=37 v=97
244083 On ch=2 n=42 v=101
244198 Off ch=2 n=42 v=101
244198 On ch=2 n=44 v=93
244294 Off ch=2 n=44 v=93
244327 On ch=2 n=47 v=91
244553 Off ch=2 n=47 v=91
244565 On ch=2 n=49 v=77
244693 Off ch=2 n=49 v=77
244806 On ch=2 n=44 v=100
245412 Off ch=2 n=44 v=100
245765 On ch=2 n=42 v=104
245972 Off ch=2 n=42 v=104
246004 On ch=2 n=49 v=74
246195 Off ch=2 n=49 v=74
246240 On ch=2 n=37 v=81
246720 Off ch=2 n=37 v=81
246960 On ch=2 n=42 v=81
247078 Off ch=2 n=42 v=81
247080 On ch=2 n=44 v=81
247183 Off ch=2 n=44 v=81
247200 On ch=2 n=47 v=80
247432 Off ch=2 n=47 v=80
247440 On ch=2 n=44 v=81
247600 Off ch=2 n=44 v=81
247680 On ch=2 n=45 v=81
248160 Off ch=2 n=45 v=81
248400 On ch=2 n=42 v=79
248624 Off ch=2 n=42 v=79
248640 On ch=2 n=49 v=83
248773 Off ch=2 n=49 v=83
248880 On ch=2 n=49 v=81
249040 Off ch=2 n=49 v=81
249120 On ch=2 n=49 v=81
249120 On ch=2 n=37 v=81
249760 Off ch=2 n=49 v=81
249760 Off ch=2 n=37 v=81
250080 On ch=2 n=33 v=81
250080 On ch=2 n=45 v=81
250400 Off ch=2 n=33 v=81
250400 Off ch=2 n=45 v=81
250560 On ch=2 n=35 v=81
250560 On ch=2 n=47 v=81
251200 Off ch=2 n=35 v=81
251200 Off ch=2 n=47 v=81
251520 On ch=2 n=39 v=81
251520 On ch=2 n=45 v=81
251840 Off ch=2 n=39 v=81
251840 Off ch=2 n=45 v=81
252000 On ch=2 n=37 v=81
252000 On ch=2 n=49 v=81
252640 Off ch=2 n=37 v=81
252640 Off ch=2 n=49 v=81
252960 On ch=2 n=40 v=81
252960 On ch=2 n=52 v=81
253280 Off ch=2 n=40 v=81
253280 Off ch=2 n=52 v=81
253436 On ch=2 n=44 v=81
254076 Off ch=2 n=44 v=81
254400 On ch=2 n=42 v=81
254880 Off ch=2 n=42 v=81
254894 On ch=2 n=37 v=116
255580 Off ch=2 n=37 v=116
255861 On ch=2 n=40 v=108
256172 Off ch=2 n=40 v=108
256315 On ch=2 n=39 v=110
257005 Off ch=2 n=39 v=110
257291 On ch=2 n=42 v=116
257833 Off ch=2 n=42 v=116
257892 On ch=2 n=40 v=99
258613 Off ch=2 n=40 v=99
258725 On ch=2 n=44 v=112
259610 Off ch=2 n=44 v=112
259688 On ch=2 n=44 v=103
260078 Off ch=2 n=44 v=103
260156 On ch=2 n=44 v=89
260273 Off ch=2 n=44 v=89
260291 On ch=2 n=42 v=107
260459 Off ch=2 n=42 v=107
260527 On ch=2 n=42 v=95
260638 Off ch=2 n=42 v=95
260669 On ch=2 n=37 v=110
261423 Off ch=2 n=37 v=110
261630 On ch=2 n=40 v=98
261907 Off ch=2 n=40 v=98
262082 On ch=2 n=39 v=110
262672 Off ch=2 n=39 v=110
262796 On ch=2 n=42 v=113
263735 Off ch=2 n=42 v=113
287520 On ch=2 n=23 v=86
288068 Off ch=2 n=23 v=86
304800 On ch=2 n=28 v=77
306236 Off ch=2 n=28 v=77
306720 Meta TrkEnd
TrkEnd
MTrk
0 Meta TrkName "Voc.Squire"
0 Meta 0x20 02
0 Meta InstrName "Voc.Squire"
0 KeySig 2 major
170 Par ch=3 c=0 v=0
175 Par ch=3 c=32 v=0
180 PrCh ch=3 p=104
185 Par ch=3 c=7 v=100
190 Par ch=3 c=10 v=64
195 Par ch=3 c=91 v=42
200 Par ch=3 c=93 v=0
205 Par ch=3 c=101 v=0
205 Par ch=3 c=100 v=0
205 Par ch=3 c=6 v=2
210 Par ch=3 c=99 v=1
210 Par ch=3 c=98 v=8
210 Par ch=3 c=6 v=64
215 Par ch=3 c=99 v=1
215 Par ch=3 c=98 v=9
215 Par ch=3 c=6 v=64
220 Par ch=3 c=99 v=1
220 Par ch=3 c=98 v=10
220 Par ch=3 c=6 v=64
225 Par ch=3 c=99 v=1
225 Par ch=3 c=98 v=32
225 Par ch=3 c=6 v=64
230 Par ch=3 c=99 v=1
230 Par ch=3 c=98 v=33
230 Par ch=3 c=6 v=64
235 Par ch=3 c=99 v=1
235 Par ch=3 c=98 v=99
235 Par ch=3 c=6 v=64
240 Par ch=3 c=99 v=1
240 Par ch=3 c=98 v=100
240 Par ch=3 c=6 v=64
245 Par ch=3 c=99 v=1
245 Par ch=3 c=98 v=102
245 Par ch=3 c=6 v=64
86880 On ch=3 n=67 v=90
87201 Off ch=3 n=67 v=90
87348 On ch=3 n=67 v=88
87686 Off ch=3 n=67 v=88
87839 On ch=3 n=67 v=98
88148 Off ch=3 n=67 v=98
88317 On ch=3 n=65 v=90
88612 Off ch=3 n=65 v=90
88800 On ch=3 n=67 v=98
88999 Off ch=3 n=67 v=98
89069 On ch=3 n=67 v=90
89153 Off ch=3 n=67 v=90
89176 On ch=3 n=67 v=74
89362 Off ch=3 n=67 v=74
89526 On ch=3 n=67 v=100
89706 Off ch=3 n=67 v=100
89754 On ch=3 n=64 v=93
89960 Off ch=3 n=64 v=93
90011 On ch=3 n=64 v=98
90204 Off ch=3 n=64 v=98
90247 On ch=3 n=64 v=104
90474 Off ch=3 n=64 v=104
90716 On ch=3 n=67 v=106
91052 Off ch=3 n=67 v=106
91197 On ch=3 n=67 v=108
91484 Off ch=3 n=67 v=108
91675 On ch=3 n=67 v=108
92002 Off ch=3 n=67 v=108
92146 On ch=3 n=65 v=98
92381 Off ch=3 n=65 v=98
92642 On ch=3 n=67 v=100
92782 Off ch=3 n=67 v=100
92888 On ch=3 n=67 v=98
93002 Off ch=3 n=67 v=98
93117 On ch=3 n=67 v=98
93284 Off ch=3 n=67 v=98
93340 On ch=3 n=67 v=90
93430 Off ch=3 n=67 v=90
93486 On ch=3 n=64 v=88
93585 Off ch=3 n=64 v=88
93603 On ch=3 n=64 v=95
93806 Off ch=3 n=64 v=95
93838 On ch=3 n=64 v=95
94084 Off ch=3 n=64 v=95
94557 On ch=3 n=67 v=97
94872 Off ch=3 n=67 v=97
95040 On ch=3 n=67 v=97
95366 Off ch=3 n=67 v=97
95529 On ch=3 n=65 v=95
95795 Off ch=3 n=65 v=95
95987 On ch=3 n=65 v=93
96100 Off ch=3 n=65 v=93
96234 On ch=3 n=67 v=89
96870 Off ch=3 n=67 v=89
96946 On ch=3 n=67 v=101
97226 Off ch=3 n=67 v=101
97433 On ch=3 n=67 v=91
97839 Off ch=3 n=67 v=91
97899 On ch=3 n=67 v=89
98020 Off ch=3 n=67 v=89
98161 On ch=3 n=67 v=101
98833 Off ch=3 n=67 v=101
98875 On ch=3 n=66 v=94
99005 Off ch=3 n=66 v=94
99117 On ch=3 n=64 v=88
99217 Off ch=3 n=64 v=88
99240 On ch=3 n=66 v=90
99716 Off ch=3 n=66 v=90
99831 On ch=3 n=66 v=91
99944 Off ch=3 n=66 v=91
100075 On ch=3 n=66 v=80
100199 Off ch=3 n=66 v=80
100324 On ch=3 n=67 v=97
100775 Off ch=3 n=67 v=97
100799 On ch=3 n=66 v=81
100948 Off ch=3 n=66 v=81
101034 On ch=3 n=64 v=78
101122 Off ch=3 n=64 v=78
101143 On ch=3 n=66 v=85
101712 Off ch=3 n=66 v=85
101751 On ch=3 n=62 v=113
101882 Off ch=3 n=62 v=113
101985 On ch=3 n=62 v=91
102166 Off ch=3 n=62 v=91
102251 On ch=3 n=64 v=95
102705 On ch=3 n=66 v=95
102713 Off ch=3 n=64 v=95
102854 Off ch=3 n=66 v=95
102932 On ch=3 n=66 v=90
103448 Off ch=3 n=66 v=90
103451 On ch=3 n=67 v=70
103541 On ch=3 n=66 v=68
103553 Off ch=3 n=67 v=70
103677 On ch=3 n=64 v=67
103696 Off ch=3 n=66 v=68
105499 Off ch=3 n=64 v=67
106080 KeySig 3 major
118560 KeySig 0 major
148800 KeySig 3 major
150007 On ch=3 n=66 v=80
150057 Off ch=3 n=66 v=80
150113 On ch=3 n=66 v=68
150179 Off ch=3 n=66 v=68
150241 On ch=3 n=66 v=87
150303 Off ch=3 n=66 v=87
150367 On ch=3 n=68 v=97
150440 Off ch=3 n=68 v=97
150475 On ch=3 n=68 v=83
150543 Off ch=3 n=68 v=83
150592 On ch=3 n=68 v=80
150788 Off ch=3 n=68 v=80
150968 On ch=3 n=66 v=74
151034 Off ch=3 n=66 v=74
151086 On ch=3 n=66 v=79
151232 Off ch=3 n=66 v=79
151331 On ch=3 n=64 v=91
151465 Off ch=3 n=64 v=91
151572 On ch=3 n=64 v=87
151680 Off ch=3 n=64 v=87
151800 On ch=3 n=63 v=79
151937 Off ch=3 n=63 v=79
152026 On ch=3 n=63 v=72
152687 Off ch=3 n=63 v=72
152999 On ch=3 n=68 v=70
153106 Off ch=3 n=68 v=70
153132 On ch=3 n=68 v=77
153300 Off ch=3 n=68 v=77
153322 On ch=3 n=68 v=75
153451 Off ch=3 n=68 v=75
153470 On ch=3 n=68 v=66
153581 Off ch=3 n=68 v=66
153600 On ch=3 n=68 v=75
153834 Off ch=3 n=68 v=75
153836 On ch=3 n=66 v=86
153921 Off ch=3 n=66 v=86
153951 On ch=3 n=66 v=69
154047 Off ch=3 n=66 v=69
154070 On ch=3 n=66 v=75
154330 Off ch=3 n=66 v=75
154331 On ch=3 n=64 v=89
154410 Off ch=3 n=64 v=89
154447 On ch=3 n=64 v=74
154672 Off ch=3 n=64 v=74
154684 On ch=3 n=63 v=73
155558 Off ch=3 n=63 v=73
155753 On ch=3 n=68 v=79
155840 Off ch=3 n=68 v=79
155875 On ch=3 n=68 v=80
155977 Off ch=3 n=68 v=80
156001 On ch=3 n=68 v=78
156106 Off ch=3 n=68 v=78
156130 On ch=3 n=68 v=77
156225 Off ch=3 n=68 v=77
156240 On ch=3 n=68 v=68
156337 Off ch=3 n=68 v=68
156367 On ch=3 n=68 v=67
156597 Off ch=3 n=68 v=67
156605 On ch=3 n=66 v=68
156713 Off ch=3 n=66 v=68
156725 On ch=3 n=66 v=80
156836 Off ch=3 n=66 v=80
156839 On ch=3 n=66 v=61
156952 Off ch=3 n=66 v=61
156960 On ch=3 n=66 v=61
157192 Off ch=3 n=66 v=61
157205 On ch=3 n=64 v=84
157285 Off ch=3 n=64 v=84
157328 On ch=3 n=64 v=78
157555 On ch=3 n=63 v=77
157557 Off ch=3 n=64 v=78
157645 Off ch=3 n=63 v=77
157669 On ch=3 n=63 v=77
158037 Off ch=3 n=63 v=77
158040 On ch=3 n=66 v=75
158160 On ch=3 n=64 v=89
158165 Off ch=3 n=66 v=75
158282 On ch=3 n=63 v=80
158284 Off ch=3 n=64 v=89
158650 Off ch=3 n=63 v=80
163680 KeySig 0 major
289440 KeySig 2 major
299520 KeySig 0 major
306720 Meta TrkEnd
TrkEnd
MTrk
0 Meta TrkName "Howe"
0 Meta 0x20 03
0 Meta InstrName "Howe"
0 KeySig 2 major
250 Par ch=4 c=0 v=8
255 Par ch=4 c=32 v=0
260 PrCh ch=4 p=25
265 Par ch=4 c=7 v=127
270 Par ch=4 c=10 v=64
275 Par ch=4 c=91 v=77
280 Par ch=4 c=93 v=0
285 Par ch=4 c=101 v=0
285 Par ch=4 c=100 v=0
285 Par ch=4 c=6 v=2
290 Par ch=4 c=99 v=1
290 Par ch=4 c=98 v=8
290 Par ch=4 c=6 v=64
295 Par ch=4 c=99 v=1
295 Par ch=4 c=98 v=9
295 Par ch=4 c=6 v=64
300 Par ch=4 c=99 v=1
300 Par ch=4 c=98 v=10
300 Par ch=4 c=6 v=64
305 Par ch=4 c=99 v=1
305 Par ch=4 c=98 v=32
305 Par ch=4 c=6 v=64
310 Par ch=4 c=99 v=1
310 Par ch=4 c=98 v=33
310 Par ch=4 c=6 v=64
315 Par ch=4 c=99 v=1
315 Par ch=4 c=98 v=99
315 Par ch=4 c=6 v=64
320 Par ch=4 c=99 v=1
320 Par ch=4 c=98 v=100
320 Par ch=4 c=6 v=64
325 Par ch=4 c=99 v=1
325 Par ch=4 c=98 v=102
325 Par ch=4 c=6 v=64
1920 Par ch=4 c=7 v=100
1920 On ch=4 n=55 v=85
1920 On ch=4 n=67 v=89
2094 On ch=4 n=66 v=113
2104 Off ch=4 n=67 v=89
2889 On ch=4 n=59 v=104
2914 Off ch=4 n=66 v=113
3079 On ch=4 n=69 v=106
3830 Off ch=4 n=55 v=85
3850 On ch=4 n=40 v=88
3910 Off ch=4 n=59 v=104
3982 Off ch=4 n=69 v=106
4261 On ch=4 n=54 v=60
4333 On ch=4 n=66 v=96
5733 Off ch=4 n=66 v=96
5738 Off ch=4 n=40 v=88
5738 Off ch=4 n=54 v=60
5760 On ch=4 n=55 v=85
5760 On ch=4 n=67 v=89
5934 On ch=4 n=66 v=113
5944 Off ch=4 n=67 v=89
6729 On ch=4 n=59 v=104
6754 Off ch=4 n=66 v=113
6919 On ch=4 n=69 v=106
7670 Off ch=4 n=55 v=85
7690 On ch=4 n=45 v=112
7750 Off ch=4 n=59 v=104
7822 Off ch=4 n=69 v=106
8101 On ch=4 n=55 v=60
8173 On ch=4 n=67 v=96
9573 Off ch=4 n=67 v=96
9578 Off ch=4 n=45 v=112
9578 Off ch=4 n=55 v=60
9600 On ch=4 n=55 v=85
9600 On ch=4 n=67 v=89
9774 On ch=4 n=66 v=113
9784 Off ch=4 n=67 v=89
10569 On ch=4 n=59 v=104
10594 Off ch=4 n=66 v=113
10759 On ch=4 n=69 v=106
11510 Off ch=4 n=55 v=85
11530 On ch=4 n=45 v=112
11590 Off ch=4 n=59 v=104
11600 On ch=4 n=74 v=87
11636 On ch=4 n=50 v=76
11644 On ch=4 n=62 v=94
11662 Off ch=4 n=69 v=106
11941 On ch=4 n=76 v=87
12008 On ch=4 n=64 v=96
13318 Off ch=4 n=62 v=94
13323 Off ch=4 n=74 v=87
13388 Off ch=4 n=76 v=87
13408 Off ch=4 n=64 v=96
13418 Off ch=4 n=45 v=112
13422 Off ch=4 n=50 v=76
13440 On ch=4 n=55 v=85
13440 On ch=4 n=67 v=89
13614 On ch=4 n=66 v=113
13624 Off ch=4 n=67 v=89
14409 On ch=4 n=59 v=104
14434 Off ch=4 n=66 v=113
14599 On ch=4 n=69 v=106
15350 Off ch=4 n=55 v=85
15370 On ch=4 n=45 v=112
15430 Off ch=4 n=59 v=104
15502 Off ch=4 n=69 v=106
15593 On ch=4 n=66 v=110
15597 On ch=4 n=54 v=110
15693 On ch=4 n=53 v=73
15694 Off ch=4 n=54 v=110
15699 On ch=4 n=65 v=85
15704 Off ch=4 n=66 v=110
15735 On ch=4 n=52 v=92
15741 Off ch=4 n=53 v=73
15741 On ch=4 n=64 v=95
15742 Off ch=4 n=65 v=85
15785 On ch=4 n=51 v=89
15786 Off ch=4 n=52 v=92
15791 On ch=4 n=63 v=88
15798 Off ch=4 n=64 v=95
15837 On ch=4 n=50 v=63
15839 On ch=4 n=62 v=61
15842 Off ch=4 n=51 v=89
15846 Off ch=4 n=63 v=88
15987 Off ch=4 n=62 v=61
15995 Off ch=4 n=50 v=63
16080 On ch=4 n=62 v=78
16080 On ch=4 n=50 v=76
16304 Off ch=4 n=62 v=78
16304 Off ch=4 n=50 v=76
16324 On ch=4 n=50 v=70
16327 On ch=4 n=62 v=68
17255 Off ch=4 n=50 v=70
17258 Off ch=4 n=45 v=112
17267 Off ch=4 n=62 v=68
17280 On ch=4 n=55 v=85
17280 On ch=4 n=67 v=89
17454 On ch=4 n=66 v=113
17464 Off ch=4 n=67 v=89
18249 On ch=4 n=59 v=104
18274 Off ch=4 n=66 v=113
18439 On ch=4 n=69 v=106
19190 Off ch=4 n=55 v=85
19210 On ch=4 n=45 v=112
19270 Off ch=4 n=59 v=104
19342 Off ch=4 n=69 v=106
19438 On ch=4 n=67 v=111
19464 On ch=4 n=55 v=110
19579 On ch=4 n=66 v=56
19589 Off ch=4 n=67 v=111
19605 On ch=4 n=54 v=55
19616 Off ch=4 n=55 v=110
19642 Off ch=4 n=66 v=56
19658 Off ch=4 n=54 v=55
19688 On ch=4 n=66 v=69
19717 On ch=4 n=54 v=70
21085 Off ch=4 n=66 v=69
21095 Off ch=4 n=54 v=70
21098 Off ch=4 n=45 v=112
21120 On ch=4 n=55 v=85
21120 On ch=4 n=67 v=89
21294 On ch=4 n=66 v=113
21304 Off ch=4 n=67 v=89
22089 On ch=4 n=59 v=104
22114 Off ch=4 n=66 v=113
22279 On ch=4 n=69 v=106
23030 Off ch=4 n=55 v=85
23050 On ch=4 n=45 v=112
23110 Off ch=4 n=59 v=104
23120 On ch=4 n=74 v=87
23156 On ch=4 n=50 v=76
23164 On ch=4 n=62 v=94
23182 Off ch=4 n=69 v=106
23476 On ch=4 n=76 v=87
23528 On ch=4 n=64 v=96
24838 Off ch=4 n=62 v=94
24843 Off ch=4 n=74 v=87
24923 Off ch=4 n=76 v=87
24928 Off ch=4 n=64 v=96
24938 Off ch=4 n=45 v=112
24942 Off ch=4 n=50 v=76
26389 On ch=4 n=50 v=88
26395 On ch=4 n=57 v=70
26404 On ch=4 n=62 v=90
26412 On ch=4 n=66 v=104
26740 Off ch=4 n=66 v=104
26746 Off ch=4 n=62 v=90
26748 On ch=4 n=66 v=72
26750 Off ch=4 n=57 v=70
26756 On ch=4 n=62 v=77
26757 Off ch=4 n=50 v=88
26764 On ch=4 n=57 v=70
26771 On ch=4 n=50 v=83
26856 Off ch=4 n=50 v=83
26856 Off ch=4 n=57 v=70
26866 Off ch=4 n=62 v=77
26867 Off ch=4 n=66 v=72
26868 On ch=4 n=50 v=100
26875 On ch=4 n=57 v=71
26883 On ch=4 n=62 v=84
26891 On ch=4 n=66 v=84
27103 Off ch=4 n=50 v=100
27105 Off ch=4 n=57 v=71
27109 On ch=4 n=50 v=54
27114 On ch=4 n=57 v=47
27119 Off ch=4 n=62 v=84
27125 Off ch=4 n=66 v=84
27126 On ch=4 n=62 v=49
27133 On ch=4 n=66 v=47
27139 Off ch=4 n=57 v=47
27143 Off ch=4 n=50 v=54
27158 Off ch=4 n=66 v=47
27158 Off ch=4 n=62 v=49
27228 On ch=4 n=66 v=45
27236 On ch=4 n=62 v=45
27243 On ch=4 n=57 v=37
27252 Off ch=4 n=66 v=45
27252 On ch=4 n=50 v=45
27259 Off ch=4 n=62 v=45
27269 Off ch=4 n=57 v=37
27283 Off ch=4 n=50 v=45
27349 On ch=4 n=50 v=118
27354 On ch=4 n=62 v=99
27366 On ch=4 n=67 v=103
27373 On ch=4 n=71 v=99
27458 Off ch=4 n=71 v=99
27466 Off ch=4 n=67 v=103
27468 On ch=4 n=71 v=81
27469 Off ch=4 n=62 v=99
27470 Off ch=4 n=50 v=118
27476 On ch=4 n=67 v=80
27483 On ch=4 n=62 v=56
27492 On ch=4 n=50 v=79
27580 Off ch=4 n=50 v=79
27589 Off ch=4 n=62 v=56
27589 On ch=4 n=50 v=54
27593 Off ch=4 n=67 v=80
27594 On ch=4 n=62 v=47
27606 On ch=4 n=67 v=49
27608 Off ch=4 n=71 v=81
27613 On ch=4 n=71 v=47
27619 Off ch=4 n=62 v=47
27623 Off ch=4 n=50 v=54
27638 Off ch=4 n=71 v=47
27638 Off ch=4 n=67 v=49
27708 On ch=4 n=71 v=45
27716 On ch=4 n=67 v=45
27723 On ch=4 n=62 v=37
27732 On ch=4 n=50 v=45
27732 Off ch=4 n=71 v=45
27739 Off ch=4 n=67 v=45
27749 Off ch=4 n=62 v=37
27763 Off ch=4 n=50 v=45
27827 On ch=4 n=50 v=99
27836 On ch=4 n=64 v=86
27843 On ch=4 n=69 v=86
27852 On ch=4 n=73 v=99
27925 Off ch=4 n=69 v=86
27943 Off ch=4 n=64 v=86
27946 Off ch=4 n=73 v=99
27948 On ch=4 n=73 v=84
27950 Off ch=4 n=50 v=99
27958 On ch=4 n=69 v=71
27963 On ch=4 n=64 v=61
27973 On ch=4 n=50 v=74
28060 Off ch=4 n=50 v=74
28064 Off ch=4 n=64 v=61
28065 Off ch=4 n=69 v=71
28067 On ch=4 n=50 v=94
28070 Off ch=4 n=73 v=84
28077 On ch=4 n=64 v=83
28089 On ch=4 n=69 v=93
28092 On ch=4 n=73 v=100
28179 Off ch=4 n=73 v=100
28187 Off ch=4 n=69 v=93
28187 On ch=4 n=73 v=82
28190 Off ch=4 n=64 v=83
28195 Off ch=4 n=50 v=94
28197 On ch=4 n=69 v=83
28204 On ch=4 n=64 v=63
28212 On ch=4 n=50 v=77
28365 Off ch=4 n=64 v=63
28368 Off ch=4 n=69 v=83
28370 Off ch=4 n=50 v=77
28373 Off ch=4 n=73 v=82
28427 On ch=4 n=50 v=94
28437 On ch=4 n=64 v=83
28449 On ch=4 n=69 v=93
28452 On ch=4 n=73 v=100
28539 Off ch=4 n=73 v=100
28547 Off ch=4 n=69 v=93
28547 On ch=4 n=73 v=82
28550 Off ch=4 n=64 v=83
28555 Off ch=4 n=50 v=94
28557 On ch=4 n=69 v=83
28564 On ch=4 n=64 v=63
28572 On ch=4 n=50 v=77
28661 Off ch=4 n=73 v=82
28664 Off ch=4 n=69 v=83
28672 Off ch=4 n=64 v=63
28677 Off ch=4 n=50 v=77
28789 On ch=4 n=50 v=118
28794 On ch=4 n=62 v=99
28806 On ch=4 n=67 v=103
28813 On ch=4 n=71 v=99
28898 Off ch=4 n=71 v=99
28906 Off ch=4 n=67 v=103
28908 On ch=4 n=71 v=80
28909 Off ch=4 n=62 v=99
28910 Off ch=4 n=50 v=118
28916 On ch=4 n=67 v=81
28923 On ch=4 n=62 v=56
28932 On ch=4 n=50 v=80
29020 Off ch=4 n=50 v=80
29029 On ch=4 n=50 v=54
29032 Off ch=4 n=62 v=56
29034 On ch=4 n=62 v=47
29041 Off ch=4 n=67 v=81
29046 On ch=4 n=67 v=49
29051 Off ch=4 n=71 v=80
29053 On ch=4 n=71 v=47
29059 Off ch=4 n=62 v=47
29063 Off ch=4 n=50 v=54
29078 Off ch=4 n=71 v=47
29078 Off ch=4 n=67 v=49
29148 On ch=4 n=71 v=45
29156 On ch=4 n=67 v=45
29163 On ch=4 n=62 v=37
29172 On ch=4 n=50 v=45
29172 Off ch=4 n=71 v=45
29179 Off ch=4 n=67 v=45
29189 Off ch=4 n=62 v=37
29203 Off ch=4 n=50 v=45
29269 On ch=4 n=50 v=88
29275 On ch=4 n=57 v=70
29284 On ch=4 n=62 v=90
29292 On ch=4 n=66 v=104
29620 Off ch=4 n=66 v=104
29626 Off ch=4 n=62 v=90
29628 On ch=4 n=66 v=72
29630 Off ch=4 n=57 v=70
29636 On ch=4 n=62 v=77
29637 Off ch=4 n=50 v=88
29644 On ch=4 n=57 v=70
29651 On ch=4 n=50 v=83
29736 Off ch=4 n=50 v=83
29736 Off ch=4 n=57 v=70
29746 Off ch=4 n=62 v=77
29747 Off ch=4 n=66 v=72
29748 On ch=4 n=50 v=100
29755 On ch=4 n=57 v=71
29763 On ch=4 n=62 v=84
29771 On ch=4 n=66 v=84
29983 Off ch=4 n=50 v=100
29985 Off ch=4 n=57 v=71
29989 On ch=4 n=50 v=54
29994 On ch=4 n=57 v=47
29999 Off ch=4 n=62 v=84
30005 Off ch=4 n=66 v=84
30006 On ch=4 n=62 v=49
30013 On ch=4 n=66 v=47
30019 Off ch=4 n=57 v=47
30023 Off ch=4 n=50 v=54
30038 Off ch=4 n=66 v=47
30038 Off ch=4 n=62 v=49
30108 On ch=4 n=66 v=45
30116 On ch=4 n=62 v=45
30123 On ch=4 n=57 v=37
30132 Off ch=4 n=66 v=45
30132 On ch=4 n=50 v=45
30139 Off ch=4 n=62 v=45
30149 Off ch=4 n=57 v=37
30163 Off ch=4 n=50 v=45
30229 On ch=4 n=50 v=118
30234 On ch=4 n=62 v=99
30246 On ch=4 n=67 v=103
30253 On ch=4 n=71 v=99
30338 Off ch=4 n=71 v=99
30346 Off ch=4 n=67 v=103
30348 On ch=4 n=71 v=81
30349 Off ch=4 n=62 v=99
30350 Off ch=4 n=50 v=118
30356 On ch=4 n=67 v=80
30363 On ch=4 n=62 v=56
30372 On ch=4 n=50 v=79
30460 Off ch=4 n=50 v=79
30469 Off ch=4 n=62 v=56
30469 On ch=4 n=50 v=54
30473 Off ch=4 n=67 v=80
30474 On ch=4 n=62 v=47
30486 On ch=4 n=67 v=49
30488 Off ch=4 n=71 v=81
30493 On ch=4 n=71 v=47
30499 Off ch=4 n=62 v=47
30503 Off ch=4 n=50 v=54
30518 Off ch=4 n=71 v=47
30518 Off ch=4 n=67 v=49
30588 On ch=4 n=71 v=45
30596 On ch=4 n=67 v=45
30603 On ch=4 n=62 v=37
30612 On ch=4 n=50 v=45
30612 Off ch=4 n=71 v=45
30619 Off ch=4 n=67 v=45
30629 Off ch=4 n=62 v=37
30643 Off ch=4 n=50 v=45
30707 On ch=4 n=50 v=99
30716 On ch=4 n=64 v=86
30723 On ch=4 n=69 v=86
30732 On ch=4 n=73 v=99
30805 Off ch=4 n=69 v=86
30823 Off ch=4 n=64 v=86
30826 Off ch=4 n=73 v=99
30828 On ch=4 n=73 v=84
30830 Off ch=4 n=50 v=99
30838 On ch=4 n=69 v=71
30843 On ch=4 n=64 v=61
30853 On ch=4 n=50 v=74
30940 Off ch=4 n=50 v=74
30944 Off ch=4 n=64 v=61
30945 Off ch=4 n=69 v=71
30947 On ch=4 n=50 v=94
30950 Off ch=4 n=73 v=84
30957 On ch=4 n=64 v=83
30969 On ch=4 n=69 v=93
30972 On ch=4 n=73 v=100
31059 Off ch=4 n=73 v=100
31067 Off ch=4 n=69 v=93
31067 On ch=4 n=73 v=82
31070 Off ch=4 n=64 v=83
31075 Off ch=4 n=50 v=94
31077 On ch=4 n=69 v=83
31084 On ch=4 n=64 v=63
31092 On ch=4 n=50 v=77
31245 Off ch=4 n=64 v=63
31248 Off ch=4 n=69 v=83
31250 Off ch=4 n=50 v=77
31253 Off ch=4 n=73 v=82
31307 On ch=4 n=50 v=94
31317 On ch=4 n=64 v=83
31329 On ch=4 n=69 v=93
31332 On ch=4 n=73 v=100
31419 Off ch=4 n=73 v=100
31427 Off ch=4 n=69 v=93
31427 On ch=4 n=73 v=82
31430 Off ch=4 n=64 v=83
31435 Off ch=4 n=50 v=94
31437 On ch=4 n=69 v=83
31444 On ch=4 n=64 v=63
31452 On ch=4 n=50 v=77
31541 Off ch=4 n=73 v=82
31544 Off ch=4 n=69 v=83
31552 Off ch=4 n=64 v=63
31557 Off ch=4 n=50 v=77
31669 On ch=4 n=50 v=118
31674 On ch=4 n=62 v=99
31686 On ch=4 n=67 v=103
31693 On ch=4 n=71 v=99
31778 Off ch=4 n=71 v=99
31786 Off ch=4 n=67 v=103
31788 On ch=4 n=71 v=80
31789 Off ch=4 n=62 v=99
31790 Off ch=4 n=50 v=118
31796 On ch=4 n=67 v=81
31803 On ch=4 n=62 v=56
31812 On ch=4 n=50 v=80
31900 Off ch=4 n=50 v=80
31909 On ch=4 n=50 v=54
31912 Off ch=4 n=62 v=56
31914 On ch=4 n=62 v=47
31921 Off ch=4 n=67 v=81
31926 On ch=4 n=67 v=49
31931 Off ch=4 n=71 v=80
31933 On ch=4 n=71 v=47
31939 Off ch=4 n=62 v=47
31943 Off ch=4 n=50 v=54
31958 Off ch=4 n=71 v=47
31958 Off ch=4 n=67 v=49
32028 On ch=4 n=71 v=45
32036 On ch=4 n=67 v=45
32043 On ch=4 n=62 v=37
32052 On ch=4 n=50 v=45
32052 Off ch=4 n=71 v=45
32059 Off ch=4 n=67 v=45
32069 Off ch=4 n=62 v=37
32083 Off ch=4 n=50 v=45
32149 On ch=4 n=50 v=88
32155 On ch=4 n=57 v=70
32164 On ch=4 n=62 v=90
32172 On ch=4 n=66 v=104
32500 Off ch=4 n=66 v=104
32506 Off ch=4 n=62 v=90
32508 On ch=4 n=66 v=72
32510 Off ch=4 n=57 v=70
32516 On ch=4 n=62 v=77
32517 Off ch=4 n=50 v=88
32524 On ch=4 n=57 v=70
32531 On ch=4 n=50 v=83
32616 Off ch=4 n=50 v=83
32616 Off ch=4 n=57 v=70
32626 Off ch=4 n=62 v=77
32627 Off ch=4 n=66 v=72
32628 On ch=4 n=50 v=100
32635 On ch=4 n=57 v=71
32643 On ch=4 n=62 v=84
32651 On ch=4 n=66 v=84
32863 Off ch=4 n=50 v=100
32865 Off ch=4 n=57 v=71
32869 On ch=4 n=50 v=54
32874 On ch=4 n=57 v=47
32879 Off ch=4 n=62 v=84
32885 Off ch=4 n=66 v=84
32886 On ch=4 n=62 v=49
32893 On ch=4 n=66 v=47
32899 Off ch=4 n=57 v=47
32903 Off ch=4 n=50 v=54
32918 Off ch=4 n=66 v=47
32918 Off ch=4 n=62 v=49
32988 On ch=4 n=66 v=45
32996 On ch=4 n=62 v=45
33003 On ch=4 n=57 v=37
33012 Off ch=4 n=66 v=45
33012 On ch=4 n=50 v=45
33019 Off ch=4 n=62 v=45
33029 Off ch=4 n=57 v=37
33043 Off ch=4 n=50 v=45
33109 On ch=4 n=50 v=118
33114 On ch=4 n=62 v=99
33126 On ch=4 n=67 v=103
33133 On ch=4 n=71 v=99
33218 Off ch=4 n=71 v=99
33226 Off ch=4 n=67 v=103
33228 On ch=4 n=71 v=81
33229 Off ch=4 n=62 v=99
33230 Off ch=4 n=50 v=118
33236 On ch=4 n=67 v=80
33243 On ch=4 n=62 v=56
33252 On ch=4 n=50 v=79
33340 Off ch=4 n=50 v=79
33349 Off ch=4 n=62 v=56
33349 On ch=4 n=50 v=54
33353 Off ch=4 n=67 v=80
33354 On ch=4 n=62 v=47
33366 On ch=4 n=67 v=49
33368 Off ch=4 n=71 v=81
33373 On ch=4 n=71 v=47
33379 Off ch=4 n=62 v=47
33383 Off ch=4 n=50 v=54
33398 Off ch=4 n=71 v=47
33398 Off ch=4 n=67 v=49
33468 On ch=4 n=71 v=45
33476 On ch=4 n=67 v=45
33483 On ch=4 n=62 v=37
33492 On ch=4 n=50 v=45
33492 Off ch=4 n=71 v=45
33499 Off ch=4 n=67 v=45
33509 Off ch=4 n=62 v=37
33523 Off ch=4 n=50 v=45
33587 On ch=4 n=50 v=99
33596 On ch=4 n=64 v=86
33603 On ch=4 n=69 v=86
33612 On ch=4 n=73 v=99
33685 Off ch=4 n=69 v=86
33703 Off ch=4 n=64 v=86
33706 Off ch=4 n=73 v=99
33708 On ch=4 n=73 v=84
33710 Off ch=4 n=50 v=99
33718 On ch=4 n=69 v=71
33723 On ch=4 n=64 v=61
33733 On ch=4 n=50 v=74
33820 Off ch=4 n=50 v=74
33824 Off ch=4 n=64 v=61
33825 Off ch=4 n=69 v=71
33827 On ch=4 n=50 v=94
33830 Off ch=4 n=73 v=84
33837 On ch=4 n=64 v=83
33849 On ch=4 n=69 v=93
33852 On ch=4 n=73 v=100
33939 Off ch=4 n=73 v=100
33947 Off ch=4 n=69 v=93
33947 On ch=4 n=73 v=82
33950 Off ch=4 n=64 v=83
33955 Off ch=4 n=50 v=94
33957 On ch=4 n=69 v=83
33964 On ch=4 n=64 v=63
33972 On ch=4 n=50 v=77
34125 Off ch=4 n=64 v=63
34128 Off ch=4 n=69 v=83
34130 Off ch=4 n=50 v=77
34133 Off ch=4 n=73 v=82
34187 On ch=4 n=50 v=94
34197 On ch=4 n=64 v=83
34209 On ch=4 n=69 v=93
34212 On ch=4 n=73 v=100
34299 Off ch=4 n=73 v=100
34307 Off ch=4 n=69 v=93
34307 On ch=4 n=73 v=82
34310 Off ch=4 n=64 v=83
34315 Off ch=4 n=50 v=94
34317 On ch=4 n=69 v=83
34324 On ch=4 n=64 v=63
34332 On ch=4 n=50 v=77
34421 Off ch=4 n=73 v=82
34424 Off ch=4 n=69 v=83
34432 Off ch=4 n=64 v=63
34437 Off ch=4 n=50 v=77
34549 On ch=4 n=50 v=118
34554 On ch=4 n=62 v=99
34566 On ch=4 n=67 v=103
34573 On ch=4 n=71 v=99
34658 Off ch=4 n=71 v=99
34666 Off ch=4 n=67 v=103
34668 On ch=4 n=71 v=80
34669 Off ch=4 n=62 v=99
34670 Off ch=4 n=50 v=118
34676 On ch=4 n=67 v=81
34683 On ch=4 n=62 v=56
34692 On ch=4 n=50 v=80
34780 Off ch=4 n=50 v=80
34789 On ch=4 n=50 v=54
34792 Off ch=4 n=62 v=56
34794 On ch=4 n=62 v=47
34801 Off ch=4 n=67 v=81
34806 On ch=4 n=67 v=49
34811 Off ch=4 n=71 v=80
34813 On ch=4 n=71 v=47
34819 Off ch=4 n=62 v=47
34823 Off ch=4 n=50 v=54
34838 Off ch=4 n=71 v=47
34838 Off ch=4 n=67 v=49
34908 On ch=4 n=71 v=45
34916 On ch=4 n=67 v=45
34923 On ch=4 n=62 v=37
34932 On ch=4 n=50 v=45
34932 Off ch=4 n=71 v=45
34939 Off ch=4 n=67 v=45
34949 Off ch=4 n=62 v=37
34963 Off ch=4 n=50 v=45
35029 On ch=4 n=50 v=88
35035 On ch=4 n=57 v=70
35044 On ch=4 n=62 v=90
35052 On ch=4 n=66 v=104
35380 Off ch=4 n=66 v=104
35386 Off ch=4 n=62 v=90
35388 On ch=4 n=66 v=72
35390 Off ch=4 n=57 v=70
35396 On ch=4 n=62 v=77
35397 Off ch=4 n=50 v=88
35404 On ch=4 n=57 v=70
35411 On ch=4 n=50 v=83
35496 Off ch=4 n=50 v=83
35496 Off ch=4 n=57 v=70
35506 Off ch=4 n=62 v=77
35507 Off ch=4 n=66 v=72
35508 On ch=4 n=50 v=100
35515 On ch=4 n=57 v=71
35523 On ch=4 n=62 v=84
35531 On ch=4 n=66 v=84
35743 Off ch=4 n=50 v=100
35745 Off ch=4 n=57 v=71
35749 On ch=4 n=50 v=54
35754 On ch=4 n=57 v=47
35759 Off ch=4 n=62 v=84
35765 Off ch=4 n=66 v=84
35766 On ch=4 n=62 v=49
35773 On ch=4 n=66 v=47
35779 Off ch=4 n=57 v=47
35783 Off ch=4 n=50 v=54
35798 Off ch=4 n=66 v=47
35798 Off ch=4 n=62 v=49
35868 On ch=4 n=66 v=45
35876 On ch=4 n=62 v=45
35883 On ch=4 n=57 v=37
35892 Off ch=4 n=66 v=45
35892 On ch=4 n=50 v=45
35899 Off ch=4 n=62 v=45
35909 Off ch=4 n=57 v=37
35923 Off ch=4 n=50 v=45
35989 On ch=4 n=50 v=118
35994 On ch=4 n=62 v=99
36006 On ch=4 n=67 v=103
36013 On ch=4 n=71 v=99
36098 Off ch=4 n=71 v=99
36106 Off ch=4 n=67 v=103
36108 On ch=4 n=71 v=81
36109 Off ch=4 n=62 v=99
36110 Off ch=4 n=50 v=118
36116 On ch=4 n=67 v=80
36123 On ch=4 n=62 v=56
36132 On ch=4 n=50 v=79
36220 Off ch=4 n=50 v=79
36229 Off ch=4 n=62 v=56
36229 On ch=4 n=50 v=54
36233 Off ch=4 n=67 v=80
36234 On ch=4 n=62 v=47
36246 On ch=4 n=67 v=49
36248 Off ch=4 n=71 v=81
36253 On ch=4 n=71 v=47
36259 Off ch=4 n=62 v=47
36263 Off ch=4 n=50 v=54
36278 Off ch=4 n=71 v=47
36278 Off ch=4 n=67 v=49
36348 On ch=4 n=71 v=45
36356 On ch=4 n=67 v=45
36363 On ch=4 n=62 v=37
36372 On ch=4 n=50 v=45
36372 Off ch=4 n=71 v=45
36379 Off ch=4 n=67 v=45
36389 Off ch=4 n=62 v=37
36403 Off ch=4 n=50 v=45
36467 On ch=4 n=50 v=99
36476 On ch=4 n=64 v=86
36483 On ch=4 n=69 v=86
36492 On ch=4 n=73 v=99
36565 Off ch=4 n=69 v=86
36583 Off ch=4 n=64 v=86
36586 Off ch=4 n=73 v=99
36588 On ch=4 n=73 v=84
36590 Off ch=4 n=50 v=99
36598 On ch=4 n=69 v=71
36603 On ch=4 n=64 v=61
36613 On ch=4 n=50 v=74
36700 Off ch=4 n=50 v=74
36704 Off ch=4 n=64 v=61
36705 Off ch=4 n=69 v=71
36707 On ch=4 n=50 v=94
36710 Off ch=4 n=73 v=84
36717 On ch=4 n=64 v=83
36729 On ch=4 n=69 v=93
36732 On ch=4 n=73 v=100
36819 Off ch=4 n=73 v=100
36827 Off ch=4 n=69 v=93
36827 On ch=4 n=73 v=82
36830 Off ch=4 n=64 v=83
36835 Off ch=4 n=50 v=94
36837 On ch=4 n=69 v=83
36844 On ch=4 n=64 v=63
36852 On ch=4 n=50 v=77
37005 Off ch=4 n=64 v=63
37008 Off ch=4 n=69 v=83
37010 Off ch=4 n=50 v=77
37013 Off ch=4 n=73 v=82
37067 On ch=4 n=50 v=94
37077 On ch=4 n=64 v=83
37089 On ch=4 n=69 v=93
37092 On ch=4 n=73 v=100
37179 Off ch=4 n=73 v=100
37187 Off ch=4 n=69 v=93
37187 On ch=4 n=73 v=82
37190 Off ch=4 n=64 v=83
37195 Off ch=4 n=50 v=94
37197 On ch=4 n=69 v=83
37204 On ch=4 n=64 v=63
37212 On ch=4 n=50 v=77
37301 Off ch=4 n=73 v=82
37304 Off ch=4 n=69 v=83
37312 Off ch=4 n=64 v=63
37317 Off ch=4 n=50 v=77
37429 On ch=4 n=50 v=118
37434 On ch=4 n=62 v=99
37446 On ch=4 n=67 v=103
37453 On ch=4 n=71 v=99
37538 Off ch=4 n=71 v=99
37546 Off ch=4 n=67 v=103
37548 On ch=4 n=71 v=80
37549 Off ch=4 n=62 v=99
37550 Off ch=4 n=50 v=118
37556 On ch=4 n=67 v=81
37563 On ch=4 n=62 v=56
37572 On ch=4 n=50 v=80
37660 Off ch=4 n=50 v=80
37669 On ch=4 n=50 v=54
37672 Off ch=4 n=62 v=56
37674 On ch=4 n=62 v=47
37681 Off ch=4 n=67 v=81
37686 On ch=4 n=67 v=49
37691 Off ch=4 n=71 v=80
37693 On ch=4 n=71 v=47
37699 Off ch=4 n=62 v=47
37703 Off ch=4 n=50 v=54
37718 Off ch=4 n=71 v=47
37718 Off ch=4 n=67 v=49
37788 On ch=4 n=71 v=45
37796 On ch=4 n=67 v=45
37803 On ch=4 n=62 v=37
37812 On ch=4 n=50 v=45
37812 Off ch=4 n=71 v=45
37819 Off ch=4 n=67 v=45
37829 Off ch=4 n=62 v=37
37843 Off ch=4 n=50 v=45
37909 On ch=4 n=50 v=88
37915 On ch=4 n=57 v=70
37924 On ch=4 n=62 v=90
37932 On ch=4 n=66 v=104
38260 Off ch=4 n=66 v=104
38266 Off ch=4 n=62 v=90
38268 On ch=4 n=66 v=72
38270 Off ch=4 n=57 v=70
38276 On ch=4 n=62 v=77
38277 Off ch=4 n=50 v=88
38284 On ch=4 n=57 v=70
38291 On ch=4 n=50 v=83
38376 Off ch=4 n=50 v=83
38376 Off ch=4 n=57 v=70
38386 Off ch=4 n=62 v=77
38387 Off ch=4 n=66 v=72
38388 On ch=4 n=50 v=100
38395 On ch=4 n=57 v=71
38403 On ch=4 n=62 v=84
38411 On ch=4 n=66 v=84
38623 Off ch=4 n=50 v=100
38625 Off ch=4 n=57 v=71
38629 On ch=4 n=50 v=54
38634 On ch=4 n=57 v=47
38639 Off ch=4 n=62 v=84
38645 Off ch=4 n=66 v=84
38646 On ch=4 n=62 v=49
38653 On ch=4 n=66 v=47
38659 Off ch=4 n=57 v=47
38663 Off ch=4 n=50 v=54
38678 Off ch=4 n=66 v=47
38678 Off ch=4 n=62 v=49
38748 On ch=4 n=66 v=45
38756 On ch=4 n=62 v=45
38763 On ch=4 n=57 v=37
38772 Off ch=4 n=66 v=45
38772 On ch=4 n=50 v=45
38779 Off ch=4 n=62 v=45
38789 Off ch=4 n=57 v=37
38803 Off ch=4 n=50 v=45
38869 On ch=4 n=50 v=118
38874 On ch=4 n=62 v=99
38886 On ch=4 n=67 v=103
38893 On ch=4 n=71 v=99
38978 Off ch=4 n=71 v=99
38986 Off ch=4 n=67 v=103
38988 On ch=4 n=71 v=81
38989 Off ch=4 n=62 v=99
38990 Off ch=4 n=50 v=118
38996 On ch=4 n=67 v=80
39003 On ch=4 n=62 v=56
39012 On ch=4 n=50 v=79
39100 Off ch=4 n=50 v=79
39109 Off ch=4 n=62 v=56
39109 On ch=4 n=50 v=54
39113 Off ch=4 n=67 v=80
39114 On ch=4 n=62 v=47
39126 On ch=4 n=67 v=49
39128 Off ch=4 n=71 v=81
39133 On ch=4 n=71 v=47
39139 Off ch=4 n=62 v=47
39143 Off ch=4 n=50 v=54
39158 Off ch=4 n=71 v=47
39158 Off ch=4 n=67 v=49
39228 On ch=4 n=71 v=45
39236 On ch=4 n=67 v=45
39243 On ch=4 n=62 v=37
39252 On ch=4 n=50 v=45
39252 Off ch=4 n=71 v=45
39259 Off ch=4 n=67 v=45
39269 Off ch=4 n=62 v=37
39283 Off ch=4 n=50 v=45
39347 On ch=4 n=50 v=99
39356 On ch=4 n=64 v=86
39363 On ch=4 n=69 v=86
39372 On ch=4 n=73 v=99
39445 Off ch=4 n=69 v=86
39463 Off ch=4 n=64 v=86
39466 Off ch=4 n=73 v=99
39468 On ch=4 n=73 v=84
39470 Off ch=4 n=50 v=99
39478 On ch=4 n=69 v=71
39483 On ch=4 n=64 v=61
39493 On ch=4 n=50 v=74
39580 Off ch=4 n=50 v=74
39584 Off ch=4 n=64 v=61
39585 Off ch=4 n=69 v=71
39587 On ch=4 n=50 v=94
39590 Off ch=4 n=73 v=84
39597 On ch=4 n=64 v=83
39609 On ch=4 n=69 v=93
39612 On ch=4 n=73 v=100
39699 Off ch=4 n=73 v=100
39707 Off ch=4 n=69 v=93
39707 On ch=4 n=73 v=82
39710 Off ch=4 n=64 v=83
39715 Off ch=4 n=50 v=94
39717 On ch=4 n=69 v=83
39724 On ch=4 n=64 v=63
39732 On ch=4 n=50 v=77
39885 Off ch=4 n=64 v=63
39888 Off ch=4 n=69 v=83
39890 Off ch=4 n=50 v=77
39893 Off ch=4 n=73 v=82
39947 On ch=4 n=50 v=94
39957 On ch=4 n=64 v=83
39969 On ch=4 n=69 v=93
39972 On ch=4 n=73 v=100
40059 Off ch=4 n=73 v=100
40067 Off ch=4 n=69 v=93
40067 On ch=4 n=73 v=82
40070 Off ch=4 n=64 v=83
40075 Off ch=4 n=50 v=94
40077 On ch=4 n=69 v=83
40084 On ch=4 n=64 v=63
40092 On ch=4 n=50 v=77
40181 Off ch=4 n=73 v=82
40184 Off ch=4 n=69 v=83
40192 Off ch=4 n=64 v=63
40197 Off ch=4 n=50 v=77
40309 On ch=4 n=50 v=118
40314 On ch=4 n=62 v=99
40326 On ch=4 n=67 v=103
40333 On ch=4 n=71 v=99
40418 Off ch=4 n=71 v=99
40426 Off ch=4 n=67 v=103
40428 On ch=4 n=71 v=80
40429 Off ch=4 n=62 v=99
40430 Off ch=4 n=50 v=118
40436 On ch=4 n=67 v=81
40443 On ch=4 n=62 v=56
40452 On ch=4 n=50 v=80
40540 Off ch=4 n=50 v=80
40549 On ch=4 n=50 v=54
40552 Off ch=4 n=62 v=56
40554 On ch=4 n=62 v=47
40561 Off ch=4 n=67 v=81
40566 On ch=4 n=67 v=49
40571 Off ch=4 n=71 v=80
40573 On ch=4 n=71 v=47
40579 Off ch=4 n=62 v=47
40583 Off ch=4 n=50 v=54
40598 Off ch=4 n=71 v=47
40598 Off ch=4 n=67 v=49
40668 On ch=4 n=71 v=45
40676 On ch=4 n=67 v=45
40683 On ch=4 n=62 v=37
40692 On ch=4 n=50 v=45
40692 Off ch=4 n=71 v=45
40699 Off ch=4 n=67 v=45
40709 Off ch=4 n=62 v=37
40723 Off ch=4 n=50 v=45
40789 On ch=4 n=50 v=88
40795 On ch=4 n=57 v=70
40804 On ch=4 n=62 v=90
40812 On ch=4 n=66 v=104
41140 Off ch=4 n=66 v=104
41146 Off ch=4 n=62 v=90
41148 On ch=4 n=66 v=72
41150 Off ch=4 n=57 v=70
41156 On ch=4 n=62 v=77
41157 Off ch=4 n=50 v=88
41164 On ch=4 n=57 v=70
41171 On ch=4 n=50 v=83
41256 Off ch=4 n=50 v=83
41256 Off ch=4 n=57 v=70
41266 Off ch=4 n=62 v=77
41267 Off ch=4 n=66 v=72
41268 On ch=4 n=50 v=100
41275 On ch=4 n=57 v=71
41283 On ch=4 n=62 v=84
41291 On ch=4 n=66 v=84
41503 Off ch=4 n=50 v=100
41505 Off ch=4 n=57 v=71
41509 On ch=4 n=50 v=54
41514 On ch=4 n=57 v=47
41519 Off ch=4 n=62 v=84
41525 Off ch=4 n=66 v=84
41526 On ch=4 n=62 v=49
41533 On ch=4 n=66 v=47
41539 Off ch=4 n=57 v=47
41543 Off ch=4 n=50 v=54
41558 Off ch=4 n=66 v=47
41558 Off ch=4 n=62 v=49
41628 On ch=4 n=66 v=45
41636 On ch=4 n=62 v=45
41643 On ch=4 n=57 v=37
41652 Off ch=4 n=66 v=45
41652 On ch=4 n=50 v=45
41659 Off ch=4 n=62 v=45
41669 Off ch=4 n=57 v=37
41683 Off ch=4 n=50 v=45
41749 On ch=4 n=50 v=118
41754 On ch=4 n=62 v=99
41766 On ch=4 n=67 v=103
41773 On ch=4 n=71 v=99
41858 Off ch=4 n=71 v=99
41866 Off ch=4 n=67 v=103
41868 On ch=4 n=71 v=81
41869 Off ch=4 n=62 v=99
41870 Off ch=4 n=50 v=118
41876 On ch=4 n=67 v=80
41883 On ch=4 n=62 v=56
41892 On ch=4 n=50 v=79
41980 Off ch=4 n=50 v=79
41989 Off ch=4 n=62 v=56
41989 On ch=4 n=50 v=54
41993 Off ch=4 n=67 v=80
41994 On ch=4 n=62 v=47
42006 On ch=4 n=67 v=49
42008 Off ch=4 n=71 v=81
42013 On ch=4 n=71 v=47
42019 Off ch=4 n=62 v=47
42023 Off ch=4 n=50 v=54
42038 Off ch=4 n=71 v=47
42038 Off ch=4 n=67 v=49
42108 On ch=4 n=71 v=45
42116 On ch=4 n=67 v=45
42123 On ch=4 n=62 v=37
42132 On ch=4 n=50 v=45
42132 Off ch=4 n=71 v=45
42139 Off ch=4 n=67 v=45
42149 Off ch=4 n=62 v=37
42163 Off ch=4 n=50 v=45
42227 On ch=4 n=50 v=99
42236 On ch=4 n=64 v=86
42243 On ch=4 n=69 v=86
42252 On ch=4 n=73 v=99
42325 Off ch=4 n=69 v=86
42343 Off ch=4 n=64 v=86
42346 Off ch=4 n=73 v=99
42348 On ch=4 n=73 v=84
42350 Off ch=4 n=50 v=99
42358 On ch=4 n=69 v=71
42363 On ch=4 n=64 v=61
42373 On ch=4 n=50 v=74
42460 Off ch=4 n=50 v=74
42464 Off ch=4 n=64 v=61
42465 Off ch=4 n=69 v=71
42467 On ch=4 n=50 v=94
42470 Off ch=4 n=73 v=84
42477 On ch=4 n=64 v=83
42489 On ch=4 n=69 v=93
42492 On ch=4 n=73 v=100
42579 Off ch=4 n=73 v=100
42587 Off ch=4 n=69 v=93
42587 On ch=4 n=73 v=82
42590 Off ch=4 n=64 v=83
42595 Off ch=4 n=50 v=94
42597 On ch=4 n=69 v=83
42604 On ch=4 n=64 v=63
42612 On ch=4 n=50 v=77
42765 Off ch=4 n=64 v=63
42768 Off ch=4 n=69 v=83
42770 Off ch=4 n=50 v=77
42773 Off ch=4 n=73 v=82
42827 On ch=4 n=50 v=94
42837 On ch=4 n=64 v=83
42849 On ch=4 n=69 v=93
42852 On ch=4 n=73 v=100
42939 Off ch=4 n=73 v=100
42947 Off ch=4 n=69 v=93
42947 On ch=4 n=73 v=82
42950 Off ch=4 n=64 v=83
42955 Off ch=4 n=50 v=94
42957 On ch=4 n=69 v=83
42964 On ch=4 n=64 v=63
42972 On ch=4 n=50 v=77
43061 Off ch=4 n=73 v=82
43064 Off ch=4 n=69 v=83
43072 Off ch=4 n=64 v=63
43077 Off ch=4 n=50 v=77
43189 On ch=4 n=50 v=118
43194 On ch=4 n=62 v=99
43206 On ch=4 n=67 v=103
43213 On ch=4 n=71 v=99
43298 Off ch=4 n=71 v=99
43306 Off ch=4 n=67 v=103
43308 On ch=4 n=71 v=80
43309 Off ch=4 n=62 v=99
43310 Off ch=4 n=50 v=118
43316 On ch=4 n=67 v=81
43323 On ch=4 n=62 v=56
43332 On ch=4 n=50 v=80
43420 Off ch=4 n=50 v=80
43429 On ch=4 n=50 v=54
43432 Off ch=4 n=62 v=56
43434 On ch=4 n=62 v=47
43441 Off ch=4 n=67 v=81
43446 On ch=4 n=67 v=49
43451 Off ch=4 n=71 v=80
43453 On ch=4 n=71 v=47
43459 Off ch=4 n=62 v=47
43463 Off ch=4 n=50 v=54
43478 Off ch=4 n=71 v=47
43478 Off ch=4 n=67 v=49
43548 On ch=4 n=71 v=45
43556 On ch=4 n=67 v=45
43563 On ch=4 n=62 v=37
43572 On ch=4 n=50 v=45
43572 Off ch=4 n=71 v=45
43579 Off ch=4 n=67 v=45
43589 Off ch=4 n=62 v=37
43603 Off ch=4 n=50 v=45
43669 On ch=4 n=50 v=88
43675 On ch=4 n=57 v=70
43684 On ch=4 n=62 v=90
43692 On ch=4 n=66 v=104
44020 Off ch=4 n=66 v=104
44026 Off ch=4 n=62 v=90
44028 On ch=4 n=66 v=72
44030 Off ch=4 n=57 v=70
44036 On ch=4 n=62 v=77
44037 Off ch=4 n=50 v=88
44044 On ch=4 n=57 v=70
44051 On ch=4 n=50 v=83
44136 Off ch=4 n=50 v=83
44136 Off ch=4 n=57 v=70
44146 Off ch=4 n=62 v=77
44147 Off ch=4 n=66 v=72
44148 On ch=4 n=50 v=100
44155 On ch=4 n=57 v=71
44163 On ch=4 n=62 v=84
44171 On ch=4 n=66 v=84
44383 Off ch=4 n=50 v=100
44385 Off ch=4 n=57 v=71
44389 On ch=4 n=50 v=54
44394 On ch=4 n=57 v=47
44399 Off ch=4 n=62 v=84
44405 Off ch=4 n=66 v=84
44406 On ch=4 n=62 v=49
44413 On ch=4 n=66 v=47
44419 Off ch=4 n=57 v=47
44423 Off ch=4 n=50 v=54
44438 Off ch=4 n=66 v=47
44438 Off ch=4 n=62 v=49
44508 On ch=4 n=66 v=45
44516 On ch=4 n=62 v=45
44523 On ch=4 n=57 v=37
44532 Off ch=4 n=66 v=45
44532 On ch=4 n=50 v=45
44539 Off ch=4 n=62 v=45
44549 Off ch=4 n=57 v=37
44563 Off ch=4 n=50 v=45
44629 On ch=4 n=50 v=118
44634 On ch=4 n=62 v=99
44646 On ch=4 n=67 v=103
44653 On ch=4 n=71 v=99
44738 Off ch=4 n=71 v=99
44746 Off ch=4 n=67 v=103
44748 On ch=4 n=71 v=81
44749 Off ch=4 n=62 v=99
44750 Off ch=4 n=50 v=118
44756 On ch=4 n=67 v=80
44763 On ch=4 n=62 v=56
44772 On ch=4 n=50 v=79
44860 Off ch=4 n=50 v=79
44869 Off ch=4 n=62 v=56
44869 On ch=4 n=50 v=54
44873 Off ch=4 n=67 v=80
44874 On ch=4 n=62 v=47
44886 On ch=4 n=67 v=49
44888 Off ch=4 n=71 v=81
44893 On ch=4 n=71 v=47
44899 Off ch=4 n=62 v=47
44903 Off ch=4 n=50 v=54
44918 Off ch=4 n=71 v=47
44918 Off ch=4 n=67 v=49
44988 On ch=4 n=71 v=45
44996 On ch=4 n=67 v=45
45003 On ch=4 n=62 v=37
45012 On ch=4 n=50 v=45
45012 Off ch=4 n=71 v=45
45019 Off ch=4 n=67 v=45
45029 Off ch=4 n=62 v=37
45043 Off ch=4 n=50 v=45
45107 On ch=4 n=50 v=99
45116 On ch=4 n=64 v=86
45123 On ch=4 n=69 v=86
45132 On ch=4 n=73 v=99
45205 Off ch=4 n=69 v=86
45223 Off ch=4 n=64 v=86
45226 Off ch=4 n=73 v=99
45228 On ch=4 n=73 v=84
45230 Off ch=4 n=50 v=99
45238 On ch=4 n=69 v=71
45243 On ch=4 n=64 v=61
45253 On ch=4 n=50 v=74
45340 Off ch=4 n=50 v=74
45344 Off ch=4 n=64 v=61
45345 Off ch=4 n=69 v=71
45347 On ch=4 n=50 v=94
45350 Off ch=4 n=73 v=84
45357 On ch=4 n=64 v=83
45369 On ch=4 n=69 v=93
45372 On ch=4 n=73 v=100
45459 Off ch=4 n=73 v=100
45467 Off ch=4 n=69 v=93
45467 On ch=4 n=73 v=82
45470 Off ch=4 n=64 v=83
45475 Off ch=4 n=50 v=94
45477 On ch=4 n=69 v=83
45484 On ch=4 n=64 v=63
45492 On ch=4 n=50 v=77
45645 Off ch=4 n=64 v=63
45648 Off ch=4 n=69 v=83
45650 Off ch=4 n=50 v=77
45653 Off ch=4 n=73 v=82
45707 On ch=4 n=50 v=94
45717 On ch=4 n=64 v=83
45729 On ch=4 n=69 v=93
45732 On ch=4 n=73 v=100
45819 Off ch=4 n=73 v=100
45827 Off ch=4 n=69 v=93
45827 On ch=4 n=73 v=82
45830 Off ch=4 n=64 v=83
45835 Off ch=4 n=50 v=94
45837 On ch=4 n=69 v=83
45844 On ch=4 n=64 v=63
45852 On ch=4 n=50 v=77
45941 Off ch=4 n=73 v=82
45944 Off ch=4 n=69 v=83
45952 Off ch=4 n=64 v=63
45957 Off ch=4 n=50 v=77
46069 On ch=4 n=50 v=118
46074 On ch=4 n=62 v=99
46086 On ch=4 n=67 v=103
46093 On ch=4 n=71 v=99
46178 Off ch=4 n=71 v=99
46186 Off ch=4 n=67 v=103
46188 On ch=4 n=71 v=80
46189 Off ch=4 n=62 v=99
46190 Off ch=4 n=50 v=118
46196 On ch=4 n=67 v=81
46203 On ch=4 n=62 v=56
46212 On ch=4 n=50 v=80
46300 Off ch=4 n=50 v=80
46309 On ch=4 n=50 v=54
46312 Off ch=4 n=62 v=56
46314 On ch=4 n=62 v=47
46321 Off ch=4 n=67 v=81
46326 On ch=4 n=67 v=49
46331 Off ch=4 n=71 v=80
46333 On ch=4 n=71 v=47
46339 Off ch=4 n=62 v=47
46343 Off ch=4 n=50 v=54
46358 Off ch=4 n=71 v=47
46358 Off ch=4 n=67 v=49
46428 On ch=4 n=71 v=45
46436 On ch=4 n=67 v=45
46443 On ch=4 n=62 v=37
46452 On ch=4 n=50 v=45
46452 Off ch=4 n=71 v=45
46459 Off ch=4 n=67 v=45
46469 Off ch=4 n=62 v=37
46483 Off ch=4 n=50 v=45
46549 On ch=4 n=50 v=88
46555 On ch=4 n=57 v=70
46564 On ch=4 n=62 v=90
46572 On ch=4 n=66 v=104
46900 Off ch=4 n=66 v=104
46906 Off ch=4 n=62 v=90
46908 On ch=4 n=66 v=72
46910 Off ch=4 n=57 v=70
46916 On ch=4 n=62 v=77
46917 Off ch=4 n=50 v=88
46924 On ch=4 n=57 v=70
46931 On ch=4 n=50 v=83
47016 Off ch=4 n=50 v=83
47016 Off ch=4 n=57 v=70
47026 Off ch=4 n=62 v=77
47027 Off ch=4 n=66 v=72
47028 On ch=4 n=50 v=100
47035 On ch=4 n=57 v=71
47043 On ch=4 n=62 v=84
47051 On ch=4 n=66 v=84
47263 Off ch=4 n=50 v=100
47265 Off ch=4 n=57 v=71
47269 On ch=4 n=50 v=54
47274 On ch=4 n=57 v=47
47279 Off ch=4 n=62 v=84
47285 Off ch=4 n=66 v=84
47286 On ch=4 n=62 v=49
47293 On ch=4 n=66 v=47
47299 Off ch=4 n=57 v=47
47303 Off ch=4 n=50 v=54
47318 Off ch=4 n=66 v=47
47318 Off ch=4 n=62 v=49
47388 On ch=4 n=66 v=45
47396 On ch=4 n=62 v=45
47403 On ch=4 n=57 v=37
47412 Off ch=4 n=66 v=45
47412 On ch=4 n=50 v=45
47419 Off ch=4 n=62 v=45
47429 Off ch=4 n=57 v=37
47443 Off ch=4 n=50 v=45
47509 On ch=4 n=50 v=118
47514 On ch=4 n=62 v=99
47526 On ch=4 n=67 v=103
47533 On ch=4 n=71 v=99
47618 Off ch=4 n=71 v=99
47626 Off ch=4 n=67 v=103
47628 On ch=4 n=71 v=81
47629 Off ch=4 n=62 v=99
47630 Off ch=4 n=50 v=118
47636 On ch=4 n=67 v=80
47643 On ch=4 n=62 v=56
47652 On ch=4 n=50 v=79
47740 Off ch=4 n=50 v=79
47749 Off ch=4 n=62 v=56
47749 On ch=4 n=50 v=54
47753 Off ch=4 n=67 v=80
47754 On ch=4 n=62 v=47
47766 On ch=4 n=67 v=49
47768 Off ch=4 n=71 v=81
47773 On ch=4 n=71 v=47
47779 Off ch=4 n=62 v=47
47783 Off ch=4 n=50 v=54
47798 Off ch=4 n=71 v=47
47798 Off ch=4 n=67 v=49
47868 On ch=4 n=71 v=45
47876 On ch=4 n=67 v=45
47883 On ch=4 n=62 v=37
47892 On ch=4 n=50 v=45
47892 Off ch=4 n=71 v=45
47899 Off ch=4 n=67 v=45
47909 Off ch=4 n=62 v=37
47923 Off ch=4 n=50 v=45
47987 On ch=4 n=50 v=99
47996 On ch=4 n=64 v=86
48003 On ch=4 n=69 v=86
48012 On ch=4 n=73 v=99
48085 Off ch=4 n=69 v=86
48103 Off ch=4 n=64 v=86
48106 Off ch=4 n=73 v=99
48108 On ch=4 n=73 v=84
48110 Off ch=4 n=50 v=99
48118 On ch=4 n=69 v=71
48123 On ch=4 n=64 v=61
48133 On ch=4 n=50 v=74
48220 Off ch=4 n=50 v=74
48224 Off ch=4 n=64 v=61
48225 Off ch=4 n=69 v=71
48227 On ch=4 n=50 v=94
48230 Off ch=4 n=73 v=84
48237 On ch=4 n=64 v=83
48249 On ch=4 n=69 v=93
48252 On ch=4 n=73 v=100
48339 Off ch=4 n=73 v=100
48347 Off ch=4 n=69 v=93
48347 On ch=4 n=73 v=82
48350 Off ch=4 n=64 v=83
48355 Off ch=4 n=50 v=94
48357 On ch=4 n=69 v=83
48364 On ch=4 n=64 v=63
48372 On ch=4 n=50 v=77
48525 Off ch=4 n=64 v=63
48528 Off ch=4 n=69 v=83
48530 Off ch=4 n=50 v=77
48533 Off ch=4 n=73 v=82
48587 On ch=4 n=50 v=94
48597 On ch=4 n=64 v=83
48609 On ch=4 n=69 v=93
48612 On ch=4 n=73 v=100
48699 Off ch=4 n=73 v=100
48707 Off ch=4 n=69 v=93
48707 On ch=4 n=73 v=82
48710 Off ch=4 n=64 v=83
48715 Off ch=4 n=50 v=94
48717 On ch=4 n=69 v=83
48724 On ch=4 n=64 v=63
48732 On ch=4 n=50 v=77
48821 Off ch=4 n=73 v=82
48824 Off ch=4 n=69 v=83
48832 Off ch=4 n=64 v=63
48837 Off ch=4 n=50 v=77
48949 On ch=4 n=50 v=118
48954 On ch=4 n=62 v=99
48966 On ch=4 n=67 v=103
48973 On ch=4 n=71 v=99
49058 Off ch=4 n=71 v=99
49066 Off ch=4 n=67 v=103
49068 On ch=4 n=71 v=80
49069 Off ch=4 n=62 v=99
49070 Off ch=4 n=50 v=118
49076 On ch=4 n=67 v=81
49083 On ch=4 n=62 v=56
49092 On ch=4 n=50 v=80
49180 Off ch=4 n=50 v=80
49189 On ch=4 n=50 v=54
49192 Off ch=4 n=62 v=56
49194 On ch=4 n=62 v=47
49201 Off ch=4 n=67 v=81
49206 On ch=4 n=67 v=49
49211 Off ch=4 n=71 v=80
49213 On ch=4 n=71 v=47
49219 Off ch=4 n=62 v=47
49223 Off ch=4 n=50 v=54
49238 Off ch=4 n=71 v=47
49238 Off ch=4 n=67 v=49
49308 On ch=4 n=71 v=45
49316 On ch=4 n=67 v=45
49323 On ch=4 n=62 v=37
49332 On ch=4 n=50 v=45
49332 Off ch=4 n=71 v=45
49339 Off ch=4 n=67 v=45
49349 Off ch=4 n=62 v=37
49363 Off ch=4 n=50 v=45
49429 On ch=4 n=50 v=88
49435 On ch=4 n=57 v=70
49444 On ch=4 n=62 v=90
49452 On ch=4 n=66 v=104
49780 Off ch=4 n=66 v=104
49786 Off ch=4 n=62 v=90
49788 On ch=4 n=66 v=72
49790 Off ch=4 n=57 v=70
49796 On ch=4 n=62 v=77
49797 Off ch=4 n=50 v=88
49804 On ch=4 n=57 v=70
49811 On ch=4 n=50 v=83
49896 Off ch=4 n=50 v=83
49896 Off ch=4 n=57 v=70
49906 Off ch=4 n=62 v=77
49907 Off ch=4 n=66 v=72
49908 On ch=4 n=50 v=100
49915 On ch=4 n=57 v=71
49923 On ch=4 n=62 v=84
49931 On ch=4 n=66 v=84
50143 Off ch=4 n=50 v=100
50145 Off ch=4 n=57 v=71
50149 On ch=4 n=50 v=54
50154 On ch=4 n=57 v=47
50159 Off ch=4 n=62 v=84
50165 Off ch=4 n=66 v=84
50166 On ch=4 n=62 v=49
50173 On ch=4 n=66 v=47
50179 Off ch=4 n=57 v=47
50183 Off ch=4 n=50 v=54
50198 Off ch=4 n=66 v=47
50198 Off ch=4 n=62 v=49
50268 On ch=4 n=66 v=45
50276 On ch=4 n=62 v=45
50283 On ch=4 n=57 v=37
50292 Off ch=4 n=66 v=45
50292 On ch=4 n=50 v=45
50299 Off ch=4 n=62 v=45
50309 Off ch=4 n=57 v=37
50323 Off ch=4 n=50 v=45
50389 On ch=4 n=50 v=118
50394 On ch=4 n=62 v=99
50406 On ch=4 n=67 v=103
50413 On ch=4 n=71 v=99
50498 Off ch=4 n=71 v=99
50506 Off ch=4 n=67 v=103
50508 On ch=4 n=71 v=81
50509 Off ch=4 n=62 v=99
50510 Off ch=4 n=50 v=118
50516 On ch=4 n=67 v=80
50523 On ch=4 n=62 v=56
50532 On ch=4 n=50 v=79
50620 Off ch=4 n=50 v=79
50629 Off ch=4 n=62 v=56
50629 On ch=4 n=50 v=54
50633 Off ch=4 n=67 v=80
50634 On ch=4 n=62 v=47
50646 On ch=4 n=67 v=49
50648 Off ch=4 n=71 v=81
50653 On ch=4 n=71 v=47
50659 Off ch=4 n=62 v=47
50663 Off ch=4 n=50 v=54
50678 Off ch=4 n=71 v=47
50678 Off ch=4 n=67 v=49
50748 On ch=4 n=71 v=45
50756 On ch=4 n=67 v=45
50763 On ch=4 n=62 v=37
50772 On ch=4 n=50 v=45
50772 Off ch=4 n=71 v=45
50779 Off ch=4 n=67 v=45
50789 Off ch=4 n=62 v=37
50803 Off ch=4 n=50 v=45
50867 On ch=4 n=50 v=99
50876 On ch=4 n=64 v=86
50883 On ch=4 n=69 v=86
50892 On ch=4 n=73 v=99
50965 Off ch=4 n=69 v=86
50983 Off ch=4 n=64 v=86
50986 Off ch=4 n=73 v=99
50988 On ch=4 n=73 v=84
50990 Off ch=4 n=50 v=99
50998 On ch=4 n=69 v=71
51003 On ch=4 n=64 v=61
51013 On ch=4 n=50 v=74
51100 Off ch=4 n=50 v=74
51104 Off ch=4 n=64 v=61
51105 Off ch=4 n=69 v=71
51107 On ch=4 n=50 v=94
51110 Off ch=4 n=73 v=84
51117 On ch=4 n=64 v=83
51129 On ch=4 n=69 v=93
51132 On ch=4 n=73 v=100
51219 Off ch=4 n=73 v=100
51227 Off ch=4 n=69 v=93
51227 On ch=4 n=73 v=82
51230 Off ch=4 n=64 v=83
51235 Off ch=4 n=50 v=94
51237 On ch=4 n=69 v=83
51244 On ch=4 n=64 v=63
51252 On ch=4 n=50 v=77
51405 Off ch=4 n=64 v=63
51408 Off ch=4 n=69 v=83
51410 Off ch=4 n=50 v=77
51413 Off ch=4 n=73 v=82
51467 On ch=4 n=50 v=94
51477 On ch=4 n=64 v=83
51489 On ch=4 n=69 v=93
51492 On ch=4 n=73 v=100
51579 Off ch=4 n=73 v=100
51587 Off ch=4 n=69 v=93
51587 On ch=4 n=73 v=82
51590 Off ch=4 n=64 v=83
51595 Off ch=4 n=50 v=94
51597 On ch=4 n=69 v=83
51604 On ch=4 n=64 v=63
51612 On ch=4 n=50 v=77
51701 Off ch=4 n=73 v=82
51704 Off ch=4 n=69 v=83
51712 Off ch=4 n=64 v=63
51717 Off ch=4 n=50 v=77
51829 On ch=4 n=50 v=118
51834 On ch=4 n=62 v=99
51846 On ch=4 n=67 v=103
51853 On ch=4 n=71 v=99
51938 Off ch=4 n=71 v=99
51946 Off ch=4 n=67 v=103
51948 On ch=4 n=71 v=80
51949 Off ch=4 n=62 v=99
51950 Off ch=4 n=50 v=118
51956 On ch=4 n=67 v=81
51963 On ch=4 n=62 v=56
51972 On ch=4 n=50 v=80
52060 Off ch=4 n=50 v=80
52069 On ch=4 n=50 v=54
52072 Off ch=4 n=62 v=56
52074 On ch=4 n=62 v=47
52081 Off ch=4 n=67 v=81
52086 On ch=4 n=67 v=49
52091 Off ch=4 n=71 v=80
52093 On ch=4 n=71 v=47
52099 Off ch=4 n=62 v=47
52103 Off ch=4 n=50 v=54
52118 Off ch=4 n=71 v=47
52118 Off ch=4 n=67 v=49
52188 On ch=4 n=71 v=45
52196 On ch=4 n=67 v=45
52203 On ch=4 n=62 v=37
52212 On ch=4 n=50 v=45
52212 Off ch=4 n=71 v=45
52219 Off ch=4 n=67 v=45
52229 Off ch=4 n=62 v=37
52243 Off ch=4 n=50 v=45
52309 On ch=4 n=50 v=88
52315 On ch=4 n=57 v=70
52324 On ch=4 n=62 v=90
52332 On ch=4 n=66 v=104
52660 Off ch=4 n=66 v=104
52666 Off ch=4 n=62 v=90
52668 On ch=4 n=66 v=72
52670 Off ch=4 n=57 v=70
52676 On ch=4 n=62 v=77
52677 Off ch=4 n=50 v=88
52684 On ch=4 n=57 v=70
52691 On ch=4 n=50 v=83
52776 Off ch=4 n=50 v=83
52776 Off ch=4 n=57 v=70
52786 Off ch=4 n=62 v=77
52787 Off ch=4 n=66 v=72
52788 On ch=4 n=50 v=100
52795 On ch=4 n=57 v=71
52803 On ch=4 n=62 v=84
52811 On ch=4 n=66 v=84
53023 Off ch=4 n=50 v=100
53025 Off ch=4 n=57 v=71
53029 On ch=4 n=50 v=54
53034 On ch=4 n=57 v=47
53039 Off ch=4 n=62 v=84
53045 Off ch=4 n=66 v=84
53046 On ch=4 n=62 v=49
53053 On ch=4 n=66 v=47
53059 Off ch=4 n=57 v=47
53063 Off ch=4 n=50 v=54
53078 Off ch=4 n=66 v=47
53078 Off ch=4 n=62 v=49
53148 On ch=4 n=66 v=45
53156 On ch=4 n=62 v=45
53163 On ch=4 n=57 v=37
53172 Off ch=4 n=66 v=45
53172 On ch=4 n=50 v=45
53179 Off ch=4 n=62 v=45
53189 Off ch=4 n=57 v=37
53203 Off ch=4 n=50 v=45
53269 On ch=4 n=50 v=118
53274 On ch=4 n=62 v=99
53286 On ch=4 n=67 v=103
53293 On ch=4 n=71 v=99
53378 Off ch=4 n=71 v=99
53386 Off ch=4 n=67 v=103
53388 On ch=4 n=71 v=81
53389 Off ch=4 n=62 v=99
53390 Off ch=4 n=50 v=118
53396 On ch=4 n=67 v=80
53403 On ch=4 n=62 v=56
53412 On ch=4 n=50 v=79
53500 Off ch=4 n=50 v=79
53509 Off ch=4 n=62 v=56
53509 On ch=4 n=50 v=54
53513 Off ch=4 n=67 v=80
53514 On ch=4 n=62 v=47
53526 On ch=4 n=67 v=49
53528 Off ch=4 n=71 v=81
53533 On ch=4 n=71 v=47
53539 Off ch=4 n=62 v=47
53543 Off ch=4 n=50 v=54
53558 Off ch=4 n=71 v=47
53558 Off ch=4 n=67 v=49
53628 On ch=4 n=71 v=45
53636 On ch=4 n=67 v=45
53643 On ch=4 n=62 v=37
53652 On ch=4 n=50 v=45
53652 Off ch=4 n=71 v=45
53659 Off ch=4 n=67 v=45
53669 Off ch=4 n=62 v=37
53683 Off ch=4 n=50 v=45
53747 On ch=4 n=50 v=99
53756 On ch=4 n=64 v=86
53763 On ch=4 n=69 v=86
53772 On ch=4 n=73 v=99
53845 Off ch=4 n=69 v=86
53863 Off ch=4 n=64 v=86
53866 Off ch=4 n=73 v=99
53868 On ch=4 n=73 v=84
53870 Off ch=4 n=50 v=99
53878 On ch=4 n=69 v=71
53883 On ch=4 n=64 v=61
53893 On ch=4 n=50 v=74
53980 Off ch=4 n=50 v=74
53984 Off ch=4 n=64 v=61
53985 Off ch=4 n=69 v=71
53987 On ch=4 n=50 v=94
53990 Off ch=4 n=73 v=84
53997 On ch=4 n=64 v=83
54009 On ch=4 n=69 v=93
54012 On ch=4 n=73 v=100
54099 Off ch=4 n=73 v=100
54107 Off ch=4 n=69 v=93
54107 On ch=4 n=73 v=82
54110 Off ch=4 n=64 v=83
54115 Off ch=4 n=50 v=94
54117 On ch=4 n=69 v=83
54124 On ch=4 n=64 v=63
54132 On ch=4 n=50 v=77
54285 Off ch=4 n=64 v=63
54288 Off ch=4 n=69 v=83
54290 Off ch=4 n=50 v=77
54293 Off ch=4 n=73 v=82
54347 On ch=4 n=50 v=94
54357 On ch=4 n=64 v=83
54369 On ch=4 n=69 v=93
54372 On ch=4 n=73 v=100
54459 Off ch=4 n=73 v=100
54467 Off ch=4 n=69 v=93
54467 On ch=4 n=73 v=82
54470 Off ch=4 n=64 v=83
54475 Off ch=4 n=50 v=94
54477 On ch=4 n=69 v=83
54484 On ch=4 n=64 v=63
54492 On ch=4 n=50 v=77
54581 Off ch=4 n=73 v=82
54584 Off ch=4 n=69 v=83
54592 Off ch=4 n=64 v=63
54597 Off ch=4 n=50 v=77
54709 On ch=4 n=50 v=118
54714 On ch=4 n=62 v=99
54726 On ch=4 n=67 v=103
54733 On ch=4 n=71 v=99
54818 Off ch=4 n=71 v=99
54826 Off ch=4 n=67 v=103
54828 On ch=4 n=71 v=80
54829 Off ch=4 n=62 v=99
54830 Off ch=4 n=50 v=118
54836 On ch=4 n=67 v=81
54843 On ch=4 n=62 v=56
54852 On ch=4 n=50 v=80
54940 Off ch=4 n=50 v=80
54949 On ch=4 n=50 v=54
54952 Off ch=4 n=62 v=56
54954 On ch=4 n=62 v=47
54961 Off ch=4 n=67 v=81
54966 On ch=4 n=67 v=49
54971 Off ch=4 n=71 v=80
54973 On ch=4 n=71 v=47
54979 Off ch=4 n=62 v=47
54983 Off ch=4 n=50 v=54
54998 Off ch=4 n=71 v=47
54998 Off ch=4 n=67 v=49
55068 On ch=4 n=71 v=45
55076 On ch=4 n=67 v=45
55083 On ch=4 n=62 v=37
55092 On ch=4 n=50 v=45
55092 Off ch=4 n=71 v=45
55099 Off ch=4 n=67 v=45
55109 Off ch=4 n=62 v=37
55123 Off ch=4 n=50 v=45
55189 On ch=4 n=50 v=88
55195 On ch=4 n=57 v=70
55204 On ch=4 n=62 v=90
55212 On ch=4 n=66 v=104
55540 Off ch=4 n=66 v=104
55546 Off ch=4 n=62 v=90
55548 On ch=4 n=66 v=72
55550 Off ch=4 n=57 v=70
55556 On ch=4 n=62 v=77
55557 Off ch=4 n=50 v=88
55564 On ch=4 n=57 v=70
55571 On ch=4 n=50 v=83
55656 Off ch=4 n=50 v=83
55656 Off ch=4 n=57 v=70
55666 Off ch=4 n=62 v=77
55667 Off ch=4 n=66 v=72
55668 On ch=4 n=50 v=100
55675 On ch=4 n=57 v=71
55683 On ch=4 n=62 v=84
55691 On ch=4 n=66 v=84
55903 Off ch=4 n=50 v=100
55905 Off ch=4 n=57 v=71
55909 On ch=4 n=50 v=54
55914 On ch=4 n=57 v=47
55919 Off ch=4 n=62 v=84
55925 Off ch=4 n=66 v=84
55926 On ch=4 n=62 v=49
55933 On ch=4 n=66 v=47
55939 Off ch=4 n=57 v=47
55943 Off ch=4 n=50 v=54
55958 Off ch=4 n=66 v=47
55958 Off ch=4 n=62 v=49
56028 On ch=4 n=66 v=45
56036 On ch=4 n=62 v=45
56043 On ch=4 n=57 v=37
56052 Off ch=4 n=66 v=45
56052 On ch=4 n=50 v=45
56059 Off ch=4 n=62 v=45
56069 Off ch=4 n=57 v=37
56083 Off ch=4 n=50 v=45
56149 On ch=4 n=50 v=118
56154 On ch=4 n=62 v=99
56166 On ch=4 n=67 v=103
56173 On ch=4 n=71 v=99
56258 Off ch=4 n=71 v=99
56266 Off ch=4 n=67 v=103
56268 On ch=4 n=71 v=81
56269 Off ch=4 n=62 v=99
56270 Off ch=4 n=50 v=118
56276 On ch=4 n=67 v=80
56283 On ch=4 n=62 v=56
56292 On ch=4 n=50 v=79
56380 Off ch=4 n=50 v=79
56389 Off ch=4 n=62 v=56
56389 On ch=4 n=50 v=54
56393 Off ch=4 n=67 v=80
56394 On ch=4 n=62 v=47
56406 On ch=4 n=67 v=49
56408 Off ch=4 n=71 v=81
56413 On ch=4 n=71 v=47
56419 Off ch=4 n=62 v=47
56423 Off ch=4 n=50 v=54
56438 Off ch=4 n=71 v=47
56438 Off ch=4 n=67 v=49
56508 On ch=4 n=71 v=45
56516 On ch=4 n=67 v=45
56523 On ch=4 n=62 v=37
56532 On ch=4 n=50 v=45
56532 Off ch=4 n=71 v=45
56539 Off ch=4 n=67 v=45
56549 Off ch=4 n=62 v=37
56563 Off ch=4 n=50 v=45
56627 On ch=4 n=50 v=99
56636 On ch=4 n=64 v=86
56643 On ch=4 n=69 v=86
56652 On ch=4 n=73 v=99
56725 Off ch=4 n=69 v=86
56743 Off ch=4 n=64 v=86
56746 Off ch=4 n=73 v=99
56748 On ch=4 n=73 v=84
56750 Off ch=4 n=50 v=99
56758 On ch=4 n=69 v=71
56763 On ch=4 n=64 v=61
56773 On ch=4 n=50 v=74
56860 Off ch=4 n=50 v=74
56864 Off ch=4 n=64 v=61
56865 Off ch=4 n=69 v=71
56867 On ch=4 n=50 v=94
56870 Off ch=4 n=73 v=84
56877 On ch=4 n=64 v=83
56889 On ch=4 n=69 v=93
56892 On ch=4 n=73 v=100
56979 Off ch=4 n=73 v=100
56987 Off ch=4 n=69 v=93
56987 On ch=4 n=73 v=82
56990 Off ch=4 n=64 v=83
56995 Off ch=4 n=50 v=94
56997 On ch=4 n=69 v=83
57004 On ch=4 n=64 v=63
57012 On ch=4 n=50 v=77
57165 Off ch=4 n=64 v=63
57168 Off ch=4 n=69 v=83
57170 Off ch=4 n=50 v=77
57173 Off ch=4 n=73 v=82
57227 On ch=4 n=50 v=94
57237 On ch=4 n=64 v=83
57249 On ch=4 n=69 v=93
57252 On ch=4 n=73 v=100
57339 Off ch=4 n=73 v=100
57347 Off ch=4 n=69 v=93
57347 On ch=4 n=73 v=82
57350 Off ch=4 n=64 v=83
57355 Off ch=4 n=50 v=94
57357 On ch=4 n=69 v=83
57364 On ch=4 n=64 v=63
57372 On ch=4 n=50 v=77
57461 Off ch=4 n=73 v=82
57464 Off ch=4 n=69 v=83
57472 Off ch=4 n=64 v=63
57477 Off ch=4 n=50 v=77
57589 On ch=4 n=50 v=118
57594 On ch=4 n=62 v=99
57606 On ch=4 n=67 v=103
57613 On ch=4 n=71 v=99
57698 Off ch=4 n=71 v=99
57706 Off ch=4 n=67 v=103
57708 On ch=4 n=71 v=80
57709 Off ch=4 n=62 v=99
57710 Off ch=4 n=50 v=118
57716 On ch=4 n=67 v=81
57723 On ch=4 n=62 v=56
57732 On ch=4 n=50 v=80
57820 Off ch=4 n=50 v=80
57829 On ch=4 n=50 v=54
57832 Off ch=4 n=62 v=56
57834 On ch=4 n=62 v=47
57841 Off ch=4 n=67 v=81
57846 On ch=4 n=67 v=49
57851 Off ch=4 n=71 v=80
57853 On ch=4 n=71 v=47
57859 Off ch=4 n=62 v=47
57863 Off ch=4 n=50 v=54
57878 Off ch=4 n=71 v=47
57878 Off ch=4 n=67 v=49
57948 On ch=4 n=71 v=45
57956 On ch=4 n=67 v=45
57963 On ch=4 n=62 v=37
57972 On ch=4 n=50 v=45
57972 Off ch=4 n=71 v=45
57979 Off ch=4 n=67 v=45
57989 Off ch=4 n=62 v=37
58003 Off ch=4 n=50 v=45
58069 On ch=4 n=50 v=88
58075 On ch=4 n=57 v=70
58084 On ch=4 n=62 v=90
58092 On ch=4 n=66 v=104
58420 Off ch=4 n=66 v=104
58426 Off ch=4 n=62 v=90
58428 On ch=4 n=66 v=72
58430 Off ch=4 n=57 v=70
58436 On ch=4 n=62 v=77
58437 Off ch=4 n=50 v=88
58444 On ch=4 n=57 v=70
58451 On ch=4 n=50 v=83
58536 Off ch=4 n=50 v=83
58536 Off ch=4 n=57 v=70
58546 Off ch=4 n=62 v=77
58547 Off ch=4 n=66 v=72
58548 On ch=4 n=50 v=100
58555 On ch=4 n=57 v=71
58563 On ch=4 n=62 v=84
58571 On ch=4 n=66 v=84
58783 Off ch=4 n=50 v=100
58785 Off ch=4 n=57 v=71
58789 On ch=4 n=50 v=54
58794 On ch=4 n=57 v=47
58799 Off ch=4 n=62 v=84
58805 Off ch=4 n=66 v=84
58806 On ch=4 n=62 v=49
58813 On ch=4 n=66 v=47
58819 Off ch=4 n=57 v=47
58823 Off ch=4 n=50 v=54
58838 Off ch=4 n=66 v=47
58838 Off ch=4 n=62 v=49
58908 On ch=4 n=66 v=45
58916 On ch=4 n=62 v=45
58923 On ch=4 n=57 v=37
58932 Off ch=4 n=66 v=45
58932 On ch=4 n=50 v=45
58939 Off ch=4 n=62 v=45
58949 Off ch=4 n=57 v=37
58963 Off ch=4 n=50 v=45
59029 On ch=4 n=50 v=118
59034 On ch=4 n=62 v=99
59046 On ch=4 n=67 v=103
59053 On ch=4 n=71 v=99
59138 Off ch=4 n=71 v=99
59146 Off ch=4 n=67 v=103
59148 On ch=4 n=71 v=81
59149 Off ch=4 n=62 v=99
59150 Off ch=4 n=50 v=118
59156 On ch=4 n=67 v=80
59163 On ch=4 n=62 v=56
59172 On ch=4 n=50 v=79
59260 Off ch=4 n=50 v=79
59269 Off ch=4 n=62 v=56
59269 On ch=4 n=50 v=54
59273 Off ch=4 n=67 v=80
59274 On ch=4 n=62 v=47
59286 On ch=4 n=67 v=49
59288 Off ch=4 n=71 v=81
59293 On ch=4 n=71 v=47
59299 Off ch=4 n=62 v=47
59303 Off ch=4 n=50 v=54
59318 Off ch=4 n=71 v=47
59318 Off ch=4 n=67 v=49
59388 On ch=4 n=71 v=45
59396 On ch=4 n=67 v=45
59403 On ch=4 n=62 v=37
59412 On ch=4 n=50 v=45
59412 Off ch=4 n=71 v=45
59419 Off ch=4 n=67 v=45
59429 Off ch=4 n=62 v=37
59443 Off ch=4 n=50 v=45
59507 On ch=4 n=50 v=99
59516 On ch=4 n=64 v=86
59523 On ch=4 n=69 v=86
59532 On ch=4 n=73 v=99
59605 Off ch=4 n=69 v=86
59623 Off ch=4 n=64 v=86
59626 Off ch=4 n=73 v=99
59628 On ch=4 n=73 v=84
59630 Off ch=4 n=50 v=99
59638 On ch=4 n=69 v=71
59643 On ch=4 n=64 v=61
59653 On ch=4 n=50 v=74
59740 Off ch=4 n=50 v=74
59744 Off ch=4 n=64 v=61
59745 Off ch=4 n=69 v=71
59747 On ch=4 n=50 v=94
59750 Off ch=4 n=73 v=84
59757 On ch=4 n=64 v=83
59769 On ch=4 n=69 v=93
59772 On ch=4 n=73 v=100
59859 Off ch=4 n=73 v=100
59867 Off ch=4 n=69 v=93
59867 On ch=4 n=73 v=82
59870 Off ch=4 n=64 v=83
59875 Off ch=4 n=50 v=94
59877 On ch=4 n=69 v=83
59884 On ch=4 n=64 v=63
59892 On ch=4 n=50 v=77
60045 Off ch=4 n=64 v=63
60048 Off ch=4 n=69 v=83
60050 Off ch=4 n=50 v=77
60053 Off ch=4 n=73 v=82
60107 On ch=4 n=50 v=94
60117 On ch=4 n=64 v=83
60129 On ch=4 n=69 v=93
60132 On ch=4 n=73 v=100
60219 Off ch=4 n=73 v=100
60227 Off ch=4 n=69 v=93
60227 On ch=4 n=73 v=82
60230 Off ch=4 n=64 v=83
60235 Off ch=4 n=50 v=94
60237 On ch=4 n=69 v=83
60244 On ch=4 n=64 v=63
60252 On ch=4 n=50 v=77
60341 Off ch=4 n=73 v=82
60344 Off ch=4 n=69 v=83
60352 Off ch=4 n=64 v=63
60357 Off ch=4 n=50 v=77
60469 On ch=4 n=50 v=118
60474 On ch=4 n=62 v=99
60486 On ch=4 n=67 v=103
60493 On ch=4 n=71 v=99
60578 Off ch=4 n=71 v=99
60586 Off ch=4 n=67 v=103
60588 On ch=4 n=71 v=80
60589 Off ch=4 n=62 v=99
60590 Off ch=4 n=50 v=118
60596 On ch=4 n=67 v=81
60603 On ch=4 n=62 v=56
60612 On ch=4 n=50 v=80
60700 Off ch=4 n=50 v=80
60709 On ch=4 n=50 v=54
60712 Off ch=4 n=62 v=56
60714 On ch=4 n=62 v=47
60721 Off ch=4 n=67 v=81
60726 On ch=4 n=67 v=49
60731 Off ch=4 n=71 v=80
60733 On ch=4 n=71 v=47
60739 Off ch=4 n=62 v=47
60743 Off ch=4 n=50 v=54
60758 Off ch=4 n=71 v=47
60758 Off ch=4 n=67 v=49
60828 On ch=4 n=71 v=45
60836 On ch=4 n=67 v=45
60843 On ch=4 n=62 v=37
60852 On ch=4 n=50 v=45
60852 Off ch=4 n=71 v=45
60859 Off ch=4 n=67 v=45
60869 Off ch=4 n=62 v=37
60883 Off ch=4 n=50 v=45
60949 On ch=4 n=50 v=88
60955 On ch=4 n=57 v=70
60964 On ch=4 n=62 v=90
60972 On ch=4 n=66 v=104
61300 Off ch=4 n=66 v=104
61306 Off ch=4 n=62 v=90
61308 On ch=4 n=66 v=72
61310 Off ch=4 n=57 v=70
61316 On ch=4 n=62 v=77
61317 Off ch=4 n=50 v=88
61324 On ch=4 n=57 v=70
61331 On ch=4 n=50 v=83
61416 Off ch=4 n=50 v=83
61416 Off ch=4 n=57 v=70
61426 Off ch=4 n=62 v=77
61427 Off ch=4 n=66 v=72
61428 On ch=4 n=50 v=100
61435 On ch=4 n=57 v=71
61443 On ch=4 n=62 v=84
61451 On ch=4 n=66 v=84
61663 Off ch=4 n=50 v=100
61665 Off ch=4 n=57 v=71
61669 On ch=4 n=50 v=54
61674 On ch=4 n=57 v=47
61679 Off ch=4 n=62 v=84
61685 Off ch=4 n=66 v=84
61686 On ch=4 n=62 v=49
61693 On ch=4 n=66 v=47
61699 Off ch=4 n=57 v=47
61703 Off ch=4 n=50 v=54
61718 Off ch=4 n=66 v=47
61718 Off ch=4 n=62 v=49
61788 On ch=4 n=66 v=45
61796 On ch=4 n=62 v=45
61803 On ch=4 n=57 v=37
61812 Off ch=4 n=66 v=45
61812 On ch=4 n=50 v=45
61819 Off ch=4 n=62 v=45
61829 Off ch=4 n=57 v=37
61843 Off ch=4 n=50 v=45
61909 On ch=4 n=50 v=118
61914 On ch=4 n=62 v=99
61926 On ch=4 n=67 v=103
61933 On ch=4 n=71 v=99
62018 Off ch=4 n=71 v=99
62026 Off ch=4 n=67 v=103
62028 On ch=4 n=71 v=81
62029 Off ch=4 n=62 v=99
62030 Off ch=4 n=50 v=118
62036 On ch=4 n=67 v=80
62043 On ch=4 n=62 v=56
62052 On ch=4 n=50 v=79
62140 Off ch=4 n=50 v=79
62149 Off ch=4 n=62 v=56
62149 On ch=4 n=50 v=54
62153 Off ch=4 n=67 v=80
62154 On ch=4 n=62 v=47
62166 On ch=4 n=67 v=49
62168 Off ch=4 n=71 v=81
62173 On ch=4 n=71 v=47
62179 Off ch=4 n=62 v=47
62183 Off ch=4 n=50 v=54
62198 Off ch=4 n=71 v=47
62198 Off ch=4 n=67 v=49
62268 On ch=4 n=71 v=45
62276 On ch=4 n=67 v=45
62283 On ch=4 n=62 v=37
62292 On ch=4 n=50 v=45
62292 Off ch=4 n=71 v=45
62299 Off ch=4 n=67 v=45
62309 Off ch=4 n=62 v=37
62323 Off ch=4 n=50 v=45
62387 On ch=4 n=50 v=99
62396 On ch=4 n=64 v=86
62403 On ch=4 n=69 v=86
62412 On ch=4 n=73 v=99
62485 Off ch=4 n=69 v=86
62503 Off ch=4 n=64 v=86
62506 Off ch=4 n=73 v=99
62508 On ch=4 n=73 v=84
62510 Off ch=4 n=50 v=99
62518 On ch=4 n=69 v=71
62523 On ch=4 n=64 v=61
62533 On ch=4 n=50 v=74
62620 Off ch=4 n=50 v=74
62624 Off ch=4 n=64 v=61
62625 Off ch=4 n=69 v=71
62627 On ch=4 n=50 v=94
62630 Off ch=4 n=73 v=84
62637 On ch=4 n=64 v=83
62649 On ch=4 n=69 v=93
62652 On ch=4 n=73 v=100
62739 Off ch=4 n=73 v=100
62747 Off ch=4 n=69 v=93
62747 On ch=4 n=73 v=82
62750 Off ch=4 n=64 v=83
62755 Off ch=4 n=50 v=94
62757 On ch=4 n=69 v=83
62764 On ch=4 n=64 v=63
62772 On ch=4 n=50 v=77
62925 Off ch=4 n=64 v=63
62928 Off ch=4 n=69 v=83
62930 Off ch=4 n=50 v=77
62933 Off ch=4 n=73 v=82
62987 On ch=4 n=50 v=94
62997 On ch=4 n=64 v=83
63009 On ch=4 n=69 v=93
63012 On ch=4 n=73 v=100
63099 Off ch=4 n=73 v=100
63107 Off ch=4 n=69 v=93
63107 On ch=4 n=73 v=82
63110 Off ch=4 n=64 v=83
63115 Off ch=4 n=50 v=94
63117 On ch=4 n=69 v=83
63124 On ch=4 n=64 v=63
63132 On ch=4 n=50 v=77
63221 Off ch=4 n=73 v=82
63224 Off ch=4 n=69 v=83
63232 Off ch=4 n=64 v=63
63237 Off ch=4 n=50 v=77
63349 On ch=4 n=50 v=118
63354 On ch=4 n=62 v=99
63366 On ch=4 n=67 v=103
63373 On ch=4 n=71 v=99
63458 Off ch=4 n=71 v=99
63466 Off ch=4 n=67 v=103
63468 On ch=4 n=71 v=80
63469 Off ch=4 n=62 v=99
63470 Off ch=4 n=50 v=118
63476 On ch=4 n=67 v=81
63483 On ch=4 n=62 v=56
63492 On ch=4 n=50 v=80
63580 Off ch=4 n=50 v=80
63589 On ch=4 n=50 v=54
63592 Off ch=4 n=62 v=56
63594 On ch=4 n=62 v=47
63601 Off ch=4 n=67 v=81
63606 On ch=4 n=67 v=49
63611 Off ch=4 n=71 v=80
63613 On ch=4 n=71 v=47
63619 Off ch=4 n=62 v=47
63623 Off ch=4 n=50 v=54
63638 Off ch=4 n=71 v=47
63638 Off ch=4 n=67 v=49
63708 On ch=4 n=71 v=45
63716 On ch=4 n=67 v=45
63723 On ch=4 n=62 v=37
63732 On ch=4 n=50 v=45
63732 Off ch=4 n=71 v=45
63739 Off ch=4 n=67 v=45
63749 Off ch=4 n=62 v=37
63763 Off ch=4 n=50 v=45
63829 On ch=4 n=50 v=88
63835 On ch=4 n=57 v=70
63844 On ch=4 n=62 v=90
63852 On ch=4 n=66 v=104
64180 Off ch=4 n=66 v=104
64186 Off ch=4 n=62 v=90
64188 On ch=4 n=66 v=72
64190 Off ch=4 n=57 v=70
64196 On ch=4 n=62 v=77
64197 Off ch=4 n=50 v=88
64204 On ch=4 n=57 v=70
64211 On ch=4 n=50 v=83
64296 Off ch=4 n=50 v=83
64296 Off ch=4 n=57 v=70
64306 Off ch=4 n=62 v=77
64307 Off ch=4 n=66 v=72
64308 On ch=4 n=50 v=100
64315 On ch=4 n=57 v=71
64323 On ch=4 n=62 v=84
64331 On ch=4 n=66 v=84
64543 Off ch=4 n=50 v=100
64545 Off ch=4 n=57 v=71
64549 On ch=4 n=50 v=54
64554 On ch=4 n=57 v=47
64559 Off ch=4 n=62 v=84
64565 Off ch=4 n=66 v=84
64566 On ch=4 n=62 v=49
64573 On ch=4 n=66 v=47
64579 Off ch=4 n=57 v=47
64583 Off ch=4 n=50 v=54
64598 Off ch=4 n=66 v=47
64598 Off ch=4 n=62 v=49
64668 On ch=4 n=66 v=45
64676 On ch=4 n=62 v=45
64683 On ch=4 n=57 v=37
64692 Off ch=4 n=66 v=45
64692 On ch=4 n=50 v=45
64699 Off ch=4 n=62 v=45
64709 Off ch=4 n=57 v=37
64723 Off ch=4 n=50 v=45
64789 On ch=4 n=50 v=118
64794 On ch=4 n=62 v=99
64806 On ch=4 n=67 v=103
64813 On ch=4 n=71 v=99
64898 Off ch=4 n=71 v=99
64906 Off ch=4 n=67 v=103
64908 On ch=4 n=71 v=81
64909 Off ch=4 n=62 v=99
64910 Off ch=4 n=50 v=118
64916 On ch=4 n=67 v=80
64923 On ch=4 n=62 v=56
64932 On ch=4 n=50 v=79
65020 Off ch=4 n=50 v=79
65029 Off ch=4 n=62 v=56
65029 On ch=4 n=50 v=54
65033 Off ch=4 n=67 v=80
65034 On ch=4 n=62 v=47
65046 On ch=4 n=67 v=49
65048 Off ch=4 n=71 v=81
65053 On ch=4 n=71 v=47
65059 Off ch=4 n=62 v=47
65063 Off ch=4 n=50 v=54
65078 Off ch=4 n=71 v=47
65078 Off ch=4 n=67 v=49
65148 On ch=4 n=71 v=45
65156 On ch=4 n=67 v=45
65163 On ch=4 n=62 v=37
65172 On ch=4 n=50 v=45
65172 Off ch=4 n=71 v=45
65179 Off ch=4 n=67 v=45
65189 Off ch=4 n=62 v=37
65203 Off ch=4 n=50 v=45
65267 On ch=4 n=50 v=99
65276 On ch=4 n=64 v=86
65283 On ch=4 n=69 v=86
65292 On ch=4 n=73 v=99
65365 Off ch=4 n=69 v=86
65383 Off ch=4 n=64 v=86
65386 Off ch=4 n=73 v=99
65388 On ch=4 n=73 v=84
65390 Off ch=4 n=50 v=99
65398 On ch=4 n=69 v=71
65403 On ch=4 n=64 v=61
65413 On ch=4 n=50 v=74
65500 Off ch=4 n=50 v=74
65504 Off ch=4 n=64 v=61
65505 Off ch=4 n=69 v=71
65507 On ch=4 n=50 v=94
65510 Off ch=4 n=73 v=84
65517 On ch=4 n=64 v=83
65529 On ch=4 n=69 v=93
65532 On ch=4 n=73 v=100
65619 Off ch=4 n=73 v=100
65627 Off ch=4 n=69 v=93
65627 On ch=4 n=73 v=82
65630 Off ch=4 n=64 v=83
65635 Off ch=4 n=50 v=94
65637 On ch=4 n=69 v=83
65644 On ch=4 n=64 v=63
65652 On ch=4 n=50 v=77
65805 Off ch=4 n=64 v=63
65808 Off ch=4 n=69 v=83
65810 Off ch=4 n=50 v=77
65813 Off ch=4 n=73 v=82
65867 On ch=4 n=50 v=94
65877 On ch=4 n=64 v=83
65889 On ch=4 n=69 v=93
65892 On ch=4 n=73 v=100
65979 Off ch=4 n=73 v=100
65987 Off ch=4 n=69 v=93
65987 On ch=4 n=73 v=82
65990 Off ch=4 n=64 v=83
65995 Off ch=4 n=50 v=94
65997 On ch=4 n=69 v=83
66004 On ch=4 n=64 v=63
66012 On ch=4 n=50 v=77
66101 Off ch=4 n=73 v=82
66104 Off ch=4 n=69 v=83
66112 Off ch=4 n=64 v=63
66117 Off ch=4 n=50 v=77
66229 On ch=4 n=50 v=118
66234 On ch=4 n=62 v=99
66246 On ch=4 n=67 v=103
66253 On ch=4 n=71 v=99
66338 Off ch=4 n=71 v=99
66346 Off ch=4 n=67 v=103
66348 On ch=4 n=71 v=80
66349 Off ch=4 n=62 v=99
66350 Off ch=4 n=50 v=118
66356 On ch=4 n=67 v=81
66363 On ch=4 n=62 v=56
66372 On ch=4 n=50 v=80
66460 Off ch=4 n=50 v=80
66469 On ch=4 n=50 v=54
66472 Off ch=4 n=62 v=56
66474 On ch=4 n=62 v=47
66481 Off ch=4 n=67 v=81
66486 On ch=4 n=67 v=49
66491 Off ch=4 n=71 v=80
66493 On ch=4 n=71 v=47
66499 Off ch=4 n=62 v=47
66503 Off ch=4 n=50 v=54
66518 Off ch=4 n=71 v=47
66518 Off ch=4 n=67 v=49
66588 On ch=4 n=71 v=45
66596 On ch=4 n=67 v=45
66603 On ch=4 n=62 v=37
66612 On ch=4 n=50 v=45
66612 Off ch=4 n=71 v=45
66619 Off ch=4 n=67 v=45
66629 Off ch=4 n=62 v=37
66643 Off ch=4 n=50 v=45
66709 On ch=4 n=50 v=88
66715 On ch=4 n=57 v=70
66724 On ch=4 n=62 v=90
66732 On ch=4 n=66 v=104
67060 Off ch=4 n=66 v=104
67066 Off ch=4 n=62 v=90
67068 On ch=4 n=66 v=72
67070 Off ch=4 n=57 v=70
67076 On ch=4 n=62 v=77
67077 Off ch=4 n=50 v=88
67084 On ch=4 n=57 v=70
67091 On ch=4 n=50 v=83
67176 Off ch=4 n=50 v=83
67176 Off ch=4 n=57 v=70
67186 Off ch=4 n=62 v=77
67187 Off ch=4 n=66 v=72
67188 On ch=4 n=50 v=100
67195 On ch=4 n=57 v=71
67203 On ch=4 n=62 v=84
67211 On ch=4 n=66 v=84
67423 Off ch=4 n=50 v=100
67425 Off ch=4 n=57 v=71
67429 On ch=4 n=50 v=54
67434 On ch=4 n=57 v=47
67439 Off ch=4 n=62 v=84
67445 Off ch=4 n=66 v=84
67446 On ch=4 n=62 v=49
67453 On ch=4 n=66 v=47
67459 Off ch=4 n=57 v=47
67463 Off ch=4 n=50 v=54
67478 Off ch=4 n=66 v=47
67478 Off ch=4 n=62 v=49
67548 On ch=4 n=66 v=45
67556 On ch=4 n=62 v=45
67563 On ch=4 n=57 v=37
67572 Off ch=4 n=66 v=45
67572 On ch=4 n=50 v=45
67579 Off ch=4 n=62 v=45
67589 Off ch=4 n=57 v=37
67603 Off ch=4 n=50 v=45
67669 On ch=4 n=50 v=118
67674 On ch=4 n=62 v=99
67686 On ch=4 n=67 v=103
67693 On ch=4 n=71 v=99
67778 Off ch=4 n=71 v=99
67786 Off ch=4 n=67 v=103
67788 On ch=4 n=71 v=81
67789 Off ch=4 n=62 v=99
67790 Off ch=4 n=50 v=118
67796 On ch=4 n=67 v=80
67803 On ch=4 n=62 v=56
67812 On ch=4 n=50 v=79
67900 Off ch=4 n=50 v=79
67909 Off ch=4 n=62 v=56
67909 On ch=4 n=50 v=54
67913 Off ch=4 n=67 v=80
67914 On ch=4 n=62 v=47
67926 On ch=4 n=67 v=49
67928 Off ch=4 n=71 v=81
67933 On ch=4 n=71 v=47
67939 Off ch=4 n=62 v=47
67943 Off ch=4 n=50 v=54
67958 Off ch=4 n=71 v=47
67958 Off ch=4 n=67 v=49
68028 On ch=4 n=71 v=45
68036 On ch=4 n=67 v=45
68043 On ch=4 n=62 v=37
68052 On ch=4 n=50 v=45
68052 Off ch=4 n=71 v=45
68059 Off ch=4 n=67 v=45
68069 Off ch=4 n=62 v=37
68083 Off ch=4 n=50 v=45
68147 On ch=4 n=50 v=99
68156 On ch=4 n=64 v=86
68163 On ch=4 n=69 v=86
68172 On ch=4 n=73 v=99
68245 Off ch=4 n=69 v=86
68263 Off ch=4 n=64 v=86
68266 Off ch=4 n=73 v=99
68268 On ch=4 n=73 v=84
68270 Off ch=4 n=50 v=99
68278 On ch=4 n=69 v=71
68283 On ch=4 n=64 v=61
68293 On ch=4 n=50 v=74
68380 Off ch=4 n=50 v=74
68384 Off ch=4 n=64 v=61
68385 Off ch=4 n=69 v=71
68387 On ch=4 n=50 v=94
68390 Off ch=4 n=73 v=84
68397 On ch=4 n=64 v=83
68409 On ch=4 n=69 v=93
68412 On ch=4 n=73 v=100
68499 Off ch=4 n=73 v=100
68507 Off ch=4 n=69 v=93
68507 On ch=4 n=73 v=82
68510 Off ch=4 n=64 v=83
68515 Off ch=4 n=50 v=94
68517 On ch=4 n=69 v=83
68524 On ch=4 n=64 v=63
68532 On ch=4 n=50 v=77
68685 Off ch=4 n=64 v=63
68688 Off ch=4 n=69 v=83
68690 Off ch=4 n=50 v=77
68693 Off ch=4 n=73 v=82
68747 On ch=4 n=50 v=94
68757 On ch=4 n=64 v=83
68769 On ch=4 n=69 v=93
68772 On ch=4 n=73 v=100
68859 Off ch=4 n=73 v=100
68867 Off ch=4 n=69 v=93
68867 On ch=4 n=73 v=82
68870 Off ch=4 n=64 v=83
68875 Off ch=4 n=50 v=94
68877 On ch=4 n=69 v=83
68884 On ch=4 n=64 v=63
68892 On ch=4 n=50 v=77
68981 Off ch=4 n=73 v=82
68984 Off ch=4 n=69 v=83
68992 Off ch=4 n=64 v=63
68997 Off ch=4 n=50 v=77
69109 On ch=4 n=50 v=118
69114 On ch=4 n=62 v=99
69126 On ch=4 n=67 v=103
69133 On ch=4 n=71 v=99
69218 Off ch=4 n=71 v=99
69226 Off ch=4 n=67 v=103
69228 On ch=4 n=71 v=80
69229 Off ch=4 n=62 v=99
69230 Off ch=4 n=50 v=118
69236 On ch=4 n=67 v=81
69243 On ch=4 n=62 v=56
69252 On ch=4 n=50 v=80
69340 Off ch=4 n=50 v=80
69349 On ch=4 n=50 v=54
69352 Off ch=4 n=62 v=56
69354 On ch=4 n=62 v=47
69361 Off ch=4 n=67 v=81
69366 On ch=4 n=67 v=49
69371 Off ch=4 n=71 v=80
69373 On ch=4 n=71 v=47
69379 Off ch=4 n=62 v=47
69383 Off ch=4 n=50 v=54
69398 Off ch=4 n=71 v=47
69398 Off ch=4 n=67 v=49
69468 On ch=4 n=71 v=45
69476 On ch=4 n=67 v=45
69483 On ch=4 n=62 v=37
69492 On ch=4 n=50 v=45
69492 Off ch=4 n=71 v=45
69499 Off ch=4 n=67 v=45
69509 Off ch=4 n=62 v=37
69523 Off ch=4 n=50 v=45
69589 On ch=4 n=50 v=88
69595 On ch=4 n=57 v=70
69604 On ch=4 n=62 v=90
69612 On ch=4 n=66 v=104
69940 Off ch=4 n=66 v=104
69946 Off ch=4 n=62 v=90
69948 On ch=4 n=66 v=72
69950 Off ch=4 n=57 v=70
69956 On ch=4 n=62 v=77
69957 Off ch=4 n=50 v=88
69964 On ch=4 n=57 v=70
69971 On ch=4 n=50 v=83
70056 Off ch=4 n=50 v=83
70056 Off ch=4 n=57 v=70
70066 Off ch=4 n=62 v=77
70067 Off ch=4 n=66 v=72
70068 On ch=4 n=50 v=100
70075 On ch=4 n=57 v=71
70083 On ch=4 n=62 v=84
70091 On ch=4 n=66 v=84
70303 Off ch=4 n=50 v=100
70305 Off ch=4 n=57 v=71
70309 On ch=4 n=50 v=54
70314 On ch=4 n=57 v=47
70319 Off ch=4 n=62 v=84
70325 Off ch=4 n=66 v=84
70326 On ch=4 n=62 v=49
70333 On ch=4 n=66 v=47
70339 Off ch=4 n=57 v=47
70343 Off ch=4 n=50 v=54
70358 Off ch=4 n=66 v=47
70358 Off ch=4 n=62 v=49
70428 On ch=4 n=66 v=45
70436 On ch=4 n=62 v=45
70443 On ch=4 n=57 v=37
70452 Off ch=4 n=66 v=45
70452 On ch=4 n=50 v=45
70459 Off ch=4 n=62 v=45
70469 Off ch=4 n=57 v=37
70483 Off ch=4 n=50 v=45
70549 On ch=4 n=50 v=118
70554 On ch=4 n=62 v=99
70566 On ch=4 n=67 v=103
70573 On ch=4 n=71 v=99
70658 Off ch=4 n=71 v=99
70666 Off ch=4 n=67 v=103
70668 On ch=4 n=71 v=81
70669 Off ch=4 n=62 v=99
70670 Off ch=4 n=50 v=118
70676 On ch=4 n=67 v=80
70683 On ch=4 n=62 v=56
70692 On ch=4 n=50 v=79
70780 Off ch=4 n=50 v=79
70789 Off ch=4 n=62 v=56
70789 On ch=4 n=50 v=54
70793 Off ch=4 n=67 v=80
70794 On ch=4 n=62 v=47
70806 On ch=4 n=67 v=49
70808 Off ch=4 n=71 v=81
70813 On ch=4 n=71 v=47
70819 Off ch=4 n=62 v=47
70823 Off ch=4 n=50 v=54
70838 Off ch=4 n=71 v=47
70838 Off ch=4 n=67 v=49
70908 On ch=4 n=71 v=45
70916 On ch=4 n=67 v=45
70923 On ch=4 n=62 v=37
70932 On ch=4 n=50 v=45
70932 Off ch=4 n=71 v=45
70939 Off ch=4 n=67 v=45
70949 Off ch=4 n=62 v=37
70963 Off ch=4 n=50 v=45
71027 On ch=4 n=50 v=99
71036 On ch=4 n=64 v=86
71043 On ch=4 n=69 v=86
71052 On ch=4 n=73 v=99
71125 Off ch=4 n=69 v=86
71143 Off ch=4 n=64 v=86
71146 Off ch=4 n=73 v=99
71148 On ch=4 n=73 v=84
71150 Off ch=4 n=50 v=99
71158 On ch=4 n=69 v=71
71163 On ch=4 n=64 v=61
71173 On ch=4 n=50 v=74
71260 Off ch=4 n=50 v=74
71264 Off ch=4 n=64 v=61
71265 Off ch=4 n=69 v=71
71267 On ch=4 n=50 v=94
71270 Off ch=4 n=73 v=84
71277 On ch=4 n=64 v=83
71289 On ch=4 n=69 v=93
71292 On ch=4 n=73 v=100
71379 Off ch=4 n=73 v=100
71387 Off ch=4 n=69 v=93
71387 On ch=4 n=73 v=82
71390 Off ch=4 n=64 v=83
71395 Off ch=4 n=50 v=94
71397 On ch=4 n=69 v=83
71404 On ch=4 n=64 v=63
71412 On ch=4 n=50 v=77
71565 Off ch=4 n=64 v=63
71568 Off ch=4 n=69 v=83
71570 Off ch=4 n=50 v=77
71573 Off ch=4 n=73 v=82
71627 On ch=4 n=50 v=94
71637 On ch=4 n=64 v=83
71649 On ch=4 n=69 v=93
71652 On ch=4 n=73 v=100
71739 Off ch=4 n=73 v=100
71747 Off ch=4 n=69 v=93
71747 On ch=4 n=73 v=82
71750 Off ch=4 n=64 v=83
71755 Off ch=4 n=50 v=94
71757 On ch=4 n=69 v=83
71764 On ch=4 n=64 v=63
71772 On ch=4 n=50 v=77
71861 Off ch=4 n=73 v=82
71864 Off ch=4 n=69 v=83
71872 Off ch=4 n=64 v=63
71877 Off ch=4 n=50 v=77
71989 On ch=4 n=50 v=118
71994 On ch=4 n=62 v=99
72006 On ch=4 n=67 v=103
72013 On ch=4 n=71 v=99
72098 Off ch=4 n=71 v=99
72106 Off ch=4 n=67 v=103
72108 On ch=4 n=71 v=80
72109 Off ch=4 n=62 v=99
72110 Off ch=4 n=50 v=118
72116 On ch=4 n=67 v=81
72123 On ch=4 n=62 v=56
72132 On ch=4 n=50 v=80
72220 Off ch=4 n=50 v=80
72229 On ch=4 n=50 v=54
72232 Off ch=4 n=62 v=56
72234 On ch=4 n=62 v=47
72241 Off ch=4 n=67 v=81
72246 On ch=4 n=67 v=49
72251 Off ch=4 n=71 v=80
72253 On ch=4 n=71 v=47
72259 Off ch=4 n=62 v=47
72263 Off ch=4 n=50 v=54
72278 Off ch=4 n=71 v=47
72278 Off ch=4 n=67 v=49
72348 On ch=4 n=71 v=45
72356 On ch=4 n=67 v=45
72363 On ch=4 n=62 v=37
72372 On ch=4 n=50 v=45
72372 Off ch=4 n=71 v=45
72379 Off ch=4 n=67 v=45
72389 Off ch=4 n=62 v=37
72403 Off ch=4 n=50 v=45
72469 On ch=4 n=50 v=88
72475 On ch=4 n=57 v=70
72484 On ch=4 n=62 v=90
72492 On ch=4 n=66 v=104
72820 Off ch=4 n=66 v=104
72826 Off ch=4 n=62 v=90
72828 On ch=4 n=66 v=72
72830 Off ch=4 n=57 v=70
72836 On ch=4 n=62 v=77
72837 Off ch=4 n=50 v=88
72844 On ch=4 n=57 v=70
72851 On ch=4 n=50 v=83
72936 Off ch=4 n=50 v=83
72936 Off ch=4 n=57 v=70
72946 Off ch=4 n=62 v=77
72947 Off ch=4 n=66 v=72
72948 On ch=4 n=50 v=100
72955 On ch=4 n=57 v=71
72963 On ch=4 n=62 v=84
72971 On ch=4 n=66 v=84
73183 Off ch=4 n=50 v=100
73185 Off ch=4 n=57 v=71
73189 On ch=4 n=50 v=54
73194 On ch=4 n=57 v=47
73199 Off ch=4 n=62 v=84
73205 Off ch=4 n=66 v=84
73206 On ch=4 n=62 v=49
73213 On ch=4 n=66 v=47
73219 Off ch=4 n=57 v=47
73223 Off ch=4 n=50 v=54
73238 Off ch=4 n=66 v=47
73238 Off ch=4 n=62 v=49
73308 On ch=4 n=66 v=45
73316 On ch=4 n=62 v=45
73323 On ch=4 n=57 v=37
73332 Off ch=4 n=66 v=45
73332 On ch=4 n=50 v=45
73339 Off ch=4 n=62 v=45
73349 Off ch=4 n=57 v=37
73363 Off ch=4 n=50 v=45
73429 On ch=4 n=50 v=118
73434 On ch=4 n=62 v=99
73446 On ch=4 n=67 v=103
73453 On ch=4 n=71 v=99
73538 Off ch=4 n=71 v=99
73546 Off ch=4 n=67 v=103
73548 On ch=4 n=71 v=81
73549 Off ch=4 n=62 v=99
73550 Off ch=4 n=50 v=118
73556 On ch=4 n=67 v=80
73563 On ch=4 n=62 v=56
73572 On ch=4 n=50 v=79
73660 Off ch=4 n=50 v=79
73669 Off ch=4 n=62 v=56
73669 On ch=4 n=50 v=54
73673 Off ch=4 n=67 v=80
73674 On ch=4 n=62 v=47
73686 On ch=4 n=67 v=49
73688 Off ch=4 n=71 v=81
73693 On ch=4 n=71 v=47
73699 Off ch=4 n=62 v=47
73703 Off ch=4 n=50 v=54
73718 Off ch=4 n=71 v=47
73718 Off ch=4 n=67 v=49
73788 On ch=4 n=71 v=45
73796 On ch=4 n=67 v=45
73803 On ch=4 n=62 v=37
73812 On ch=4 n=50 v=45
73812 Off ch=4 n=71 v=45
73819 Off ch=4 n=67 v=45
73829 Off ch=4 n=62 v=37
73843 Off ch=4 n=50 v=45
73907 On ch=4 n=50 v=99
73916 On ch=4 n=64 v=86
73923 On ch=4 n=69 v=86
73932 On ch=4 n=73 v=99
74005 Off ch=4 n=69 v=86
74023 Off ch=4 n=64 v=86
74026 Off ch=4 n=73 v=99
74028 On ch=4 n=73 v=84
74030 Off ch=4 n=50 v=99
74038 On ch=4 n=69 v=71
74043 On ch=4 n=64 v=61
74053 On ch=4 n=50 v=74
74140 Off ch=4 n=50 v=74
74144 Off ch=4 n=64 v=61
74145 Off ch=4 n=69 v=71
74147 On ch=4 n=50 v=94
74150 Off ch=4 n=73 v=84
74157 On ch=4 n=64 v=83
74169 On ch=4 n=69 v=93
74172 On ch=4 n=73 v=100
74259 Off ch=4 n=73 v=100
74267 Off ch=4 n=69 v=93
74267 On ch=4 n=73 v=82
74270 Off ch=4 n=64 v=83
74275 Off ch=4 n=50 v=94
74277 On ch=4 n=69 v=83
74284 On ch=4 n=64 v=63
74292 On ch=4 n=50 v=77
74445 Off ch=4 n=64 v=63
74448 Off ch=4 n=69 v=83
74450 Off ch=4 n=50 v=77
74453 Off ch=4 n=73 v=82
74507 On ch=4 n=50 v=94
74517 On ch=4 n=64 v=83
74529 On ch=4 n=69 v=93
74532 On ch=4 n=73 v=100
74619 Off ch=4 n=73 v=100
74627 Off ch=4 n=69 v=93
74627 On ch=4 n=73 v=82
74630 Off ch=4 n=64 v=83
74635 Off ch=4 n=50 v=94
74637 On ch=4 n=69 v=83
74644 On ch=4 n=64 v=63
74652 On ch=4 n=50 v=77
74741 Off ch=4 n=73 v=82
74744 Off ch=4 n=69 v=83
74752 Off ch=4 n=64 v=63
74757 Off ch=4 n=50 v=77
74869 On ch=4 n=50 v=118
74874 On ch=4 n=62 v=99
74886 On ch=4 n=67 v=103
74893 On ch=4 n=71 v=99
74978 Off ch=4 n=71 v=99
74986 Off ch=4 n=67 v=103
74988 On ch=4 n=71 v=80
74989 Off ch=4 n=62 v=99
74990 Off ch=4 n=50 v=118
74996 On ch=4 n=67 v=81
75003 On ch=4 n=62 v=56
75012 On ch=4 n=50 v=80
75100 Off ch=4 n=50 v=80
75109 On ch=4 n=50 v=54
75112 Off ch=4 n=62 v=56
75114 On ch=4 n=62 v=47
75121 Off ch=4 n=67 v=81
75126 On ch=4 n=67 v=49
75131 Off ch=4 n=71 v=80
75133 On ch=4 n=71 v=47
75139 Off ch=4 n=62 v=47
75143 Off ch=4 n=50 v=54
75158 Off ch=4 n=71 v=47
75158 Off ch=4 n=67 v=49
75228 On ch=4 n=71 v=45
75236 On ch=4 n=67 v=45
75243 On ch=4 n=62 v=37
75252 On ch=4 n=50 v=45
75252 Off ch=4 n=71 v=45
75259 Off ch=4 n=67 v=45
75269 Off ch=4 n=62 v=37
75283 Off ch=4 n=50 v=45
75349 On ch=4 n=50 v=88
75355 On ch=4 n=57 v=70
75364 On ch=4 n=62 v=90
75372 On ch=4 n=66 v=104
75700 Off ch=4 n=66 v=104
75706 Off ch=4 n=62 v=90
75708 On ch=4 n=66 v=72
75710 Off ch=4 n=57 v=70
75716 On ch=4 n=62 v=77
75717 Off ch=4 n=50 v=88
75724 On ch=4 n=57 v=70
75731 On ch=4 n=50 v=83
75816 Off ch=4 n=50 v=83
75816 Off ch=4 n=57 v=70
75826 Off ch=4 n=62 v=77
75827 Off ch=4 n=66 v=72
75828 On ch=4 n=50 v=100
75835 On ch=4 n=57 v=71
75843 On ch=4 n=62 v=84
75851 On ch=4 n=66 v=84
76063 Off ch=4 n=50 v=100
76065 Off ch=4 n=57 v=71
76069 On ch=4 n=50 v=54
76074 On ch=4 n=57 v=47
76079 Off ch=4 n=62 v=84
76085 Off ch=4 n=66 v=84
76086 On ch=4 n=62 v=49
76093 On ch=4 n=66 v=47
76099 Off ch=4 n=57 v=47
76103 Off ch=4 n=50 v=54
76118 Off ch=4 n=66 v=47
76118 Off ch=4 n=62 v=49
76188 On ch=4 n=66 v=45
76196 On ch=4 n=62 v=45
76203 On ch=4 n=57 v=37
76212 Off ch=4 n=66 v=45
76212 On ch=4 n=50 v=45
76219 Off ch=4 n=62 v=45
76229 Off ch=4 n=57 v=37
76243 Off ch=4 n=50 v=45
76309 On ch=4 n=50 v=118
76314 On ch=4 n=62 v=99
76326 On ch=4 n=67 v=103
76333 On ch=4 n=71 v=99
76418 Off ch=4 n=71 v=99
76426 Off ch=4 n=67 v=103
76428 On ch=4 n=71 v=81
76429 Off ch=4 n=62 v=99
76430 Off ch=4 n=50 v=118
76436 On ch=4 n=67 v=80
76443 On ch=4 n=62 v=56
76452 On ch=4 n=50 v=79
76540 Off ch=4 n=50 v=79
76549 Off ch=4 n=62 v=56
76549 On ch=4 n=50 v=54
76553 Off ch=4 n=67 v=80
76554 On ch=4 n=62 v=47
76566 On ch=4 n=67 v=49
76568 Off ch=4 n=71 v=81
76573 On ch=4 n=71 v=47
76579 Off ch=4 n=62 v=47
76583 Off ch=4 n=50 v=54
76598 Off ch=4 n=71 v=47
76598 Off ch=4 n=67 v=49
76668 On ch=4 n=71 v=45
76676 On ch=4 n=67 v=45
76683 On ch=4 n=62 v=37
76692 On ch=4 n=50 v=45
76692 Off ch=4 n=71 v=45
76699 Off ch=4 n=67 v=45
76709 Off ch=4 n=62 v=37
76723 Off ch=4 n=50 v=45
76787 On ch=4 n=50 v=99
76796 On ch=4 n=64 v=86
76803 On ch=4 n=69 v=86
76812 On ch=4 n=73 v=99
76885 Off ch=4 n=69 v=86
76903 Off ch=4 n=64 v=86
76906 Off ch=4 n=73 v=99
76908 On ch=4 n=73 v=84
76910 Off ch=4 n=50 v=99
76918 On ch=4 n=69 v=71
76923 On ch=4 n=64 v=61
76933 On ch=4 n=50 v=74
77020 Off ch=4 n=50 v=74
77024 Off ch=4 n=64 v=61
77025 Off ch=4 n=69 v=71
77027 On ch=4 n=50 v=94
77030 Off ch=4 n=73 v=84
77037 On ch=4 n=64 v=83
77049 On ch=4 n=69 v=93
77052 On ch=4 n=73 v=100
77139 Off ch=4 n=73 v=100
77147 Off ch=4 n=69 v=93
77147 On ch=4 n=73 v=82
77150 Off ch=4 n=64 v=83
77155 Off ch=4 n=50 v=94
77157 On ch=4 n=69 v=83
77164 On ch=4 n=64 v=63
77172 On ch=4 n=50 v=77
77325 Off ch=4 n=64 v=63
77328 Off ch=4 n=69 v=83
77330 Off ch=4 n=50 v=77
77333 Off ch=4 n=73 v=82
77387 On ch=4 n=50 v=94
77397 On ch=4 n=64 v=83
77409 On ch=4 n=69 v=93
77412 On ch=4 n=73 v=100
77499 Off ch=4 n=73 v=100
77507 Off ch=4 n=69 v=93
77507 On ch=4 n=73 v=82
77510 Off ch=4 n=64 v=83
77515 Off ch=4 n=50 v=94
77517 On ch=4 n=69 v=83
77524 On ch=4 n=64 v=63
77532 On ch=4 n=50 v=77
77621 Off ch=4 n=73 v=82
77624 Off ch=4 n=69 v=83
77632 Off ch=4 n=64 v=63
77637 Off ch=4 n=50 v=77
77749 On ch=4 n=50 v=118
77754 On ch=4 n=62 v=99
77766 On ch=4 n=67 v=103
77773 On ch=4 n=71 v=99
77858 Off ch=4 n=71 v=99
77866 Off ch=4 n=67 v=103
77868 On ch=4 n=71 v=80
77869 Off ch=4 n=62 v=99
77870 Off ch=4 n=50 v=118
77876 On ch=4 n=67 v=81
77883 On ch=4 n=62 v=56
77892 On ch=4 n=50 v=80
77980 Off ch=4 n=50 v=80
77989 On ch=4 n=50 v=54
77992 Off ch=4 n=62 v=56
77994 On ch=4 n=62 v=47
78001 Off ch=4 n=67 v=81
78006 On ch=4 n=67 v=49
78011 Off ch=4 n=71 v=80
78013 On ch=4 n=71 v=47
78019 Off ch=4 n=62 v=47
78023 Off ch=4 n=50 v=54
78038 Off ch=4 n=71 v=47
78038 Off ch=4 n=67 v=49
78108 On ch=4 n=71 v=45
78116 On ch=4 n=67 v=45
78123 On ch=4 n=62 v=37
78132 On ch=4 n=50 v=45
78132 Off ch=4 n=71 v=45
78139 Off ch=4 n=67 v=45
78149 Off ch=4 n=62 v=37
78163 Off ch=4 n=50 v=45
78229 On ch=4 n=50 v=88
78235 On ch=4 n=57 v=70
78244 On ch=4 n=62 v=90
78252 On ch=4 n=66 v=104
78580 Off ch=4 n=66 v=104
78586 Off ch=4 n=62 v=90
78588 On ch=4 n=66 v=72
78590 Off ch=4 n=57 v=70
78596 On ch=4 n=62 v=77
78597 Off ch=4 n=50 v=88
78604 On ch=4 n=57 v=70
78611 On ch=4 n=50 v=83
78696 Off ch=4 n=50 v=83
78696 Off ch=4 n=57 v=70
78706 Off ch=4 n=62 v=77
78707 Off ch=4 n=66 v=72
78708 On ch=4 n=50 v=100
78715 On ch=4 n=57 v=71
78723 On ch=4 n=62 v=84
78731 On ch=4 n=66 v=84
78943 Off ch=4 n=50 v=100
78945 Off ch=4 n=57 v=71
78949 On ch=4 n=50 v=54
78954 On ch=4 n=57 v=47
78959 Off ch=4 n=62 v=84
78965 Off ch=4 n=66 v=84
78966 On ch=4 n=62 v=49
78973 On ch=4 n=66 v=47
78979 Off ch=4 n=57 v=47
78983 Off ch=4 n=50 v=54
78998 Off ch=4 n=66 v=47
78998 Off ch=4 n=62 v=49
79068 On ch=4 n=66 v=45
79076 On ch=4 n=62 v=45
79083 On ch=4 n=57 v=37
79092 Off ch=4 n=66 v=45
79092 On ch=4 n=50 v=45
79099 Off ch=4 n=62 v=45
79109 Off ch=4 n=57 v=37
79123 Off ch=4 n=50 v=45
79189 On ch=4 n=50 v=118
79194 On ch=4 n=62 v=99
79206 On ch=4 n=67 v=103
79213 On ch=4 n=71 v=99
79298 Off ch=4 n=71 v=99
79306 Off ch=4 n=67 v=103
79308 On ch=4 n=71 v=81
79309 Off ch=4 n=62 v=99
79310 Off ch=4 n=50 v=118
79316 On ch=4 n=67 v=80
79323 On ch=4 n=62 v=56
79332 On ch=4 n=50 v=79
79420 Off ch=4 n=50 v=79
79429 Off ch=4 n=62 v=56
79429 On ch=4 n=50 v=54
79433 Off ch=4 n=67 v=80
79434 On ch=4 n=62 v=47
79446 On ch=4 n=67 v=49
79448 Off ch=4 n=71 v=81
79453 On ch=4 n=71 v=47
79459 Off ch=4 n=62 v=47
79463 Off ch=4 n=50 v=54
79478 Off ch=4 n=71 v=47
79478 Off ch=4 n=67 v=49
79548 On ch=4 n=71 v=45
79556 On ch=4 n=67 v=45
79563 On ch=4 n=62 v=37
79572 On ch=4 n=50 v=45
79572 Off ch=4 n=71 v=45
79579 Off ch=4 n=67 v=45
79589 Off ch=4 n=62 v=37
79603 Off ch=4 n=50 v=45
79667 On ch=4 n=50 v=99
79676 On ch=4 n=64 v=86
79683 On ch=4 n=69 v=86
79692 On ch=4 n=73 v=99
79765 Off ch=4 n=69 v=86
79783 Off ch=4 n=64 v=86
79786 Off ch=4 n=73 v=99
79788 On ch=4 n=73 v=84
79790 Off ch=4 n=50 v=99
79798 On ch=4 n=69 v=71
79803 On ch=4 n=64 v=61
79813 On ch=4 n=50 v=74
79900 Off ch=4 n=50 v=74
79904 Off ch=4 n=64 v=61
79905 Off ch=4 n=69 v=71
79907 On ch=4 n=50 v=94
79910 Off ch=4 n=73 v=84
79917 On ch=4 n=64 v=83
79929 On ch=4 n=69 v=93
79932 On ch=4 n=73 v=100
80019 Off ch=4 n=73 v=100
80027 Off ch=4 n=69 v=93
80027 On ch=4 n=73 v=82
80030 Off ch=4 n=64 v=83
80035 Off ch=4 n=50 v=94
80037 On ch=4 n=69 v=83
80044 On ch=4 n=64 v=63
80052 On ch=4 n=50 v=77
80205 Off ch=4 n=64 v=63
80208 Off ch=4 n=69 v=83
80210 Off ch=4 n=50 v=77
80213 Off ch=4 n=73 v=82
80267 On ch=4 n=50 v=94
80277 On ch=4 n=64 v=83
80289 On ch=4 n=69 v=93
80292 On ch=4 n=73 v=100
80379 Off ch=4 n=73 v=100
80387 Off ch=4 n=69 v=93
80387 On ch=4 n=73 v=82
80390 Off ch=4 n=64 v=83
80395 Off ch=4 n=50 v=94
80397 On ch=4 n=69 v=83
80404 On ch=4 n=64 v=63
80412 On ch=4 n=50 v=77
80501 Off ch=4 n=73 v=82
80504 Off ch=4 n=69 v=83
80512 Off ch=4 n=64 v=63
80517 Off ch=4 n=50 v=77
80629 On ch=4 n=50 v=118
80634 On ch=4 n=62 v=99
80646 On ch=4 n=67 v=103
80653 On ch=4 n=71 v=99
80738 Off ch=4 n=71 v=99
80746 Off ch=4 n=67 v=103
80748 On ch=4 n=71 v=80
80749 Off ch=4 n=62 v=99
80750 Off ch=4 n=50 v=118
80756 On ch=4 n=67 v=81
80763 On ch=4 n=62 v=56
80772 On ch=4 n=50 v=80
80860 Off ch=4 n=50 v=80
80869 On ch=4 n=50 v=54
80872 Off ch=4 n=62 v=56
80874 On ch=4 n=62 v=47
80881 Off ch=4 n=67 v=81
80886 On ch=4 n=67 v=49
80891 Off ch=4 n=71 v=80
80893 On ch=4 n=71 v=47
80899 Off ch=4 n=62 v=47
80903 Off ch=4 n=50 v=54
80918 Off ch=4 n=71 v=47
80918 Off ch=4 n=67 v=49
80988 On ch=4 n=71 v=45
80996 On ch=4 n=67 v=45
81003 On ch=4 n=62 v=37
81012 On ch=4 n=50 v=45
81012 Off ch=4 n=71 v=45
81019 Off ch=4 n=67 v=45
81029 Off ch=4 n=62 v=37
81043 Off ch=4 n=50 v=45
81109 On ch=4 n=50 v=88
81115 On ch=4 n=57 v=70
81124 On ch=4 n=62 v=90
81132 On ch=4 n=66 v=104
81460 Off ch=4 n=66 v=104
81466 Off ch=4 n=62 v=90
81468 On ch=4 n=66 v=72
81470 Off ch=4 n=57 v=70
81476 On ch=4 n=62 v=77
81477 Off ch=4 n=50 v=88
81484 On ch=4 n=57 v=70
81491 On ch=4 n=50 v=83
81576 Off ch=4 n=50 v=83
81576 Off ch=4 n=57 v=70
81586 Off ch=4 n=62 v=77
81587 Off ch=4 n=66 v=72
81588 On ch=4 n=50 v=100
81595 On ch=4 n=57 v=71
81603 On ch=4 n=62 v=84
81611 On ch=4 n=66 v=84
81823 Off ch=4 n=50 v=100
81825 Off ch=4 n=57 v=71
81829 On ch=4 n=50 v=54
81834 On ch=4 n=57 v=47
81839 Off ch=4 n=62 v=84
81845 Off ch=4 n=66 v=84
81846 On ch=4 n=62 v=49
81853 On ch=4 n=66 v=47
81859 Off ch=4 n=57 v=47
81863 Off ch=4 n=50 v=54
81878 Off ch=4 n=66 v=47
81878 Off ch=4 n=62 v=49
81948 On ch=4 n=66 v=45
81956 On ch=4 n=62 v=45
81963 On ch=4 n=57 v=37
81972 Off ch=4 n=66 v=45
81972 On ch=4 n=50 v=45
81979 Off ch=4 n=62 v=45
81989 Off ch=4 n=57 v=37
82003 Off ch=4 n=50 v=45
82069 On ch=4 n=50 v=118
82074 On ch=4 n=62 v=99
82086 On ch=4 n=67 v=103
82093 On ch=4 n=71 v=99
82178 Off ch=4 n=71 v=99
82186 Off ch=4 n=67 v=103
82188 On ch=4 n=71 v=81
82189 Off ch=4 n=62 v=99
82190 Off ch=4 n=50 v=118
82196 On ch=4 n=67 v=80
82203 On ch=4 n=62 v=56
82212 On ch=4 n=50 v=79
82300 Off ch=4 n=50 v=79
82309 Off ch=4 n=62 v=56
82309 On ch=4 n=50 v=54
82313 Off ch=4 n=67 v=80
82314 On ch=4 n=62 v=47
82326 On ch=4 n=67 v=49
82328 Off ch=4 n=71 v=81
82333 On ch=4 n=71 v=47
82339 Off ch=4 n=62 v=47
82343 Off ch=4 n=50 v=54
82358 Off ch=4 n=71 v=47
82358 Off ch=4 n=67 v=49
82428 On ch=4 n=71 v=45
82436 On ch=4 n=67 v=45
82443 On ch=4 n=62 v=37
82452 On ch=4 n=50 v=45
82452 Off ch=4 n=71 v=45
82459 Off ch=4 n=67 v=45
82469 Off ch=4 n=62 v=37
82483 Off ch=4 n=50 v=45
82547 On ch=4 n=50 v=99
82556 On ch=4 n=64 v=86
82563 On ch=4 n=69 v=86
82572 On ch=4 n=73 v=99
82645 Off ch=4 n=69 v=86
82663 Off ch=4 n=64 v=86
82666 Off ch=4 n=73 v=99
82668 On ch=4 n=73 v=84
82670 Off ch=4 n=50 v=99
82678 On ch=4 n=69 v=71
82683 On ch=4 n=64 v=61
82693 On ch=4 n=50 v=74
82780 Off ch=4 n=50 v=74
82784 Off ch=4 n=64 v=61
82785 Off ch=4 n=69 v=71
82787 On ch=4 n=50 v=94
82790 Off ch=4 n=73 v=84
82797 On ch=4 n=64 v=83
82809 On ch=4 n=69 v=93
82812 On ch=4 n=73 v=100
82899 Off ch=4 n=73 v=100
82907 Off ch=4 n=69 v=93
82907 On ch=4 n=73 v=82
82910 Off ch=4 n=64 v=83
82915 Off ch=4 n=50 v=94
82917 On ch=4 n=69 v=83
82924 On ch=4 n=64 v=63
82932 On ch=4 n=50 v=77
83085 Off ch=4 n=64 v=63
83088 Off ch=4 n=69 v=83
83090 Off ch=4 n=50 v=77
83093 Off ch=4 n=73 v=82
83147 On ch=4 n=50 v=94
83157 On ch=4 n=64 v=83
83169 On ch=4 n=69 v=93
83172 On ch=4 n=73 v=100
83259 Off ch=4 n=73 v=100
83267 Off ch=4 n=69 v=93
83267 On ch=4 n=73 v=82
83270 Off ch=4 n=64 v=83
83275 Off ch=4 n=50 v=94
83277 On ch=4 n=69 v=83
83284 On ch=4 n=64 v=63
83292 On ch=4 n=50 v=77
83381 Off ch=4 n=73 v=82
83384 Off ch=4 n=69 v=83
83392 Off ch=4 n=64 v=63
83397 Off ch=4 n=50 v=77
83509 On ch=4 n=50 v=118
83514 On ch=4 n=62 v=99
83526 On ch=4 n=67 v=103
83533 On ch=4 n=71 v=99
83618 Off ch=4 n=71 v=99
83626 Off ch=4 n=67 v=103
83628 On ch=4 n=71 v=80
83629 Off ch=4 n=62 v=99
83630 Off ch=4 n=50 v=118
83636 On ch=4 n=67 v=81
83643 On ch=4 n=62 v=56
83652 On ch=4 n=50 v=80
83740 Off ch=4 n=50 v=80
83749 On ch=4 n=50 v=54
83752 Off ch=4 n=62 v=56
83754 On ch=4 n=62 v=47
83761 Off ch=4 n=67 v=81
83766 On ch=4 n=67 v=49
83771 Off ch=4 n=71 v=80
83773 On ch=4 n=71 v=47
83779 Off ch=4 n=62 v=47
83783 Off ch=4 n=50 v=54
83798 Off ch=4 n=71 v=47
83798 Off ch=4 n=67 v=49
83868 On ch=4 n=71 v=45
83876 On ch=4 n=67 v=45
83883 On ch=4 n=62 v=37
83892 On ch=4 n=50 v=45
83892 Off ch=4 n=71 v=45
83899 Off ch=4 n=67 v=45
83909 Off ch=4 n=62 v=37
83923 Off ch=4 n=50 v=45
83989 On ch=4 n=50 v=88
83995 On ch=4 n=57 v=70
84004 On ch=4 n=62 v=90
84012 On ch=4 n=66 v=104
84340 Off ch=4 n=66 v=104
84346 Off ch=4 n=62 v=90
84348 On ch=4 n=66 v=72
84350 Off ch=4 n=57 v=70
84356 On ch=4 n=62 v=77
84357 Off ch=4 n=50 v=88
84364 On ch=4 n=57 v=70
84371 On ch=4 n=50 v=83
84456 Off ch=4 n=50 v=83
84456 Off ch=4 n=57 v=70
84466 Off ch=4 n=62 v=77
84467 Off ch=4 n=66 v=72
84468 On ch=4 n=50 v=100
84475 On ch=4 n=57 v=71
84483 On ch=4 n=62 v=84
84491 On ch=4 n=66 v=84
84703 Off ch=4 n=50 v=100
84705 Off ch=4 n=57 v=71
84709 On ch=4 n=50 v=54
84714 On ch=4 n=57 v=47
84719 Off ch=4 n=62 v=84
84725 Off ch=4 n=66 v=84
84726 On ch=4 n=62 v=49
84733 On ch=4 n=66 v=47
84739 Off ch=4 n=57 v=47
84743 Off ch=4 n=50 v=54
84758 Off ch=4 n=66 v=47
84758 Off ch=4 n=62 v=49
84828 On ch=4 n=66 v=45
84836 On ch=4 n=62 v=45
84843 On ch=4 n=57 v=37
84852 Off ch=4 n=66 v=45
84852 On ch=4 n=50 v=45
84859 Off ch=4 n=62 v=45
84869 Off ch=4 n=57 v=37
84883 Off ch=4 n=50 v=45
84949 On ch=4 n=50 v=118
84954 On ch=4 n=62 v=99
84966 On ch=4 n=67 v=103
84973 On ch=4 n=71 v=99
85058 Off ch=4 n=71 v=99
85066 Off ch=4 n=67 v=103
85068 On ch=4 n=71 v=81
85069 Off ch=4 n=62 v=99
85070 Off ch=4 n=50 v=118
85076 On ch=4 n=67 v=80
85083 On ch=4 n=62 v=56
85092 On ch=4 n=50 v=79
85180 Off ch=4 n=50 v=79
85189 Off ch=4 n=62 v=56
85189 On ch=4 n=50 v=54
85193 Off ch=4 n=67 v=80
85194 On ch=4 n=62 v=47
85206 On ch=4 n=67 v=49
85208 Off ch=4 n=71 v=81
85213 On ch=4 n=71 v=47
85219 Off ch=4 n=62 v=47
85223 Off ch=4 n=50 v=54
85238 Off ch=4 n=71 v=47
85238 Off ch=4 n=67 v=49
85308 On ch=4 n=71 v=45
85316 On ch=4 n=67 v=45
85323 On ch=4 n=62 v=37
85332 On ch=4 n=50 v=45
85332 Off ch=4 n=71 v=45
85339 Off ch=4 n=67 v=45
85349 Off ch=4 n=62 v=37
85363 Off ch=4 n=50 v=45
85427 On ch=4 n=50 v=99
85436 On ch=4 n=64 v=86
85443 On ch=4 n=69 v=86
85452 On ch=4 n=73 v=99
85525 Off ch=4 n=69 v=86
85543 Off ch=4 n=64 v=86
85546 Off ch=4 n=73 v=99
85548 On ch=4 n=73 v=84
85550 Off ch=4 n=50 v=99
85558 On ch=4 n=69 v=71
85563 On ch=4 n=64 v=61
85573 On ch=4 n=50 v=74
85660 Off ch=4 n=50 v=74
85664 Off ch=4 n=64 v=61
85665 Off ch=4 n=69 v=71
85667 On ch=4 n=50 v=94
85670 Off ch=4 n=73 v=84
85677 On ch=4 n=64 v=83
85689 On ch=4 n=69 v=93
85692 On ch=4 n=73 v=100
85779 Off ch=4 n=73 v=100
85787 Off ch=4 n=69 v=93
85787 On ch=4 n=73 v=82
85790 Off ch=4 n=64 v=83
85795 Off ch=4 n=50 v=94
85797 On ch=4 n=69 v=83
85804 On ch=4 n=64 v=63
85812 On ch=4 n=50 v=77
85965 Off ch=4 n=64 v=63
85968 Off ch=4 n=69 v=83
85970 Off ch=4 n=50 v=77
85973 Off ch=4 n=73 v=82
86027 On ch=4 n=50 v=94
86037 On ch=4 n=64 v=83
86049 On ch=4 n=69 v=93
86052 On ch=4 n=73 v=100
86139 Off ch=4 n=73 v=100
86147 Off ch=4 n=69 v=93
86147 On ch=4 n=73 v=82
86150 Off ch=4 n=64 v=83
86155 Off ch=4 n=50 v=94
86157 On ch=4 n=69 v=83
86164 On ch=4 n=64 v=63
86172 On ch=4 n=50 v=77
86261 Off ch=4 n=73 v=82
86264 Off ch=4 n=69 v=83
86272 Off ch=4 n=64 v=63
86277 Off ch=4 n=50 v=77
86389 On ch=4 n=50 v=118
86394 On ch=4 n=62 v=99
86406 On ch=4 n=67 v=103
86413 On ch=4 n=71 v=99
86498 Off ch=4 n=71 v=99
86506 Off ch=4 n=67 v=103
86508 On ch=4 n=71 v=80
86509 Off ch=4 n=62 v=99
86510 Off ch=4 n=50 v=118
86516 On ch=4 n=67 v=81
86523 On ch=4 n=62 v=56
86532 On ch=4 n=50 v=80
86620 Off ch=4 n=50 v=80
86629 On ch=4 n=50 v=54
86632 Off ch=4 n=62 v=56
86634 On ch=4 n=62 v=47
86641 Off ch=4 n=67 v=81
86646 On ch=4 n=67 v=49
86651 Off ch=4 n=71 v=80
86653 On ch=4 n=71 v=47
86659 Off ch=4 n=62 v=47
86663 Off ch=4 n=50 v=54
86678 Off ch=4 n=71 v=47
86678 Off ch=4 n=67 v=49
86748 On ch=4 n=71 v=45
86756 On ch=4 n=67 v=45
86763 On ch=4 n=62 v=37
86772 On ch=4 n=50 v=45
86772 Off ch=4 n=71 v=45
86779 Off ch=4 n=67 v=45
86789 Off ch=4 n=62 v=37
86803 Off ch=4 n=50 v=45
86870 On ch=4 n=60 v=74
86880 Par ch=4 c=7 v=83
86880 On ch=4 n=62 v=80
86890 On ch=4 n=67 v=80
87320 Off ch=4 n=60 v=74
87341 Off ch=4 n=67 v=80
87344 Off ch=4 n=62 v=80
87349 On ch=4 n=60 v=80
87361 On ch=4 n=62 v=76
87370 On ch=4 n=67 v=73
87804 Off ch=4 n=60 v=80
87813 Off ch=4 n=67 v=73
87814 Off ch=4 n=62 v=76
87830 On ch=4 n=60 v=92
87840 On ch=4 n=62 v=88
87850 On ch=4 n=67 v=74
88287 Off ch=4 n=60 v=92
88305 Off ch=4 n=62 v=88
88307 Off ch=4 n=67 v=74
88309 On ch=4 n=60 v=84
88318 On ch=4 n=62 v=93
88329 On ch=4 n=67 v=79
88770 Off ch=4 n=60 v=84
88777 Off ch=4 n=67 v=79
88780 Off ch=4 n=62 v=93
88800 On ch=4 n=64 v=76
88800 On ch=4 n=55 v=85
88800 On ch=4 n=67 v=73
88800 On ch=4 n=60 v=80
89024 Off ch=4 n=55 v=85
89024 Off ch=4 n=67 v=73
89024 Off ch=4 n=60 v=80
89027 Off ch=4 n=64 v=76
89031 On ch=4 n=64 v=77
89041 On ch=4 n=60 v=81
89051 On ch=4 n=55 v=80
89145 Off ch=4 n=55 v=80
89149 Off ch=4 n=60 v=81
89153 On ch=4 n=55 v=74
89156 Off ch=4 n=64 v=77
89158 On ch=4 n=60 v=88
89169 On ch=4 n=64 v=80
89470 Off ch=4 n=60 v=88
89488 Off ch=4 n=64 v=80
89509 On ch=4 n=64 v=80
89522 On ch=4 n=60 v=87
89746 Off ch=4 n=60 v=87
89753 On ch=4 n=60 v=84
89755 Off ch=4 n=64 v=80
89772 On ch=4 n=64 v=86
89984 Off ch=4 n=60 v=84
89988 Off ch=4 n=55 v=74
89990 Off ch=4 n=64 v=86
89996 On ch=4 n=59 v=80
90006 On ch=4 n=54 v=78
90219 Off ch=4 n=54 v=78
90225 Off ch=4 n=59 v=80
90234 On ch=4 n=54 v=80
90243 On ch=4 n=59 v=86
90660 Off ch=4 n=54 v=80
90673 Off ch=4 n=59 v=86
90710 On ch=4 n=60 v=74
90720 On ch=4 n=62 v=80
90730 On ch=4 n=67 v=80
91160 Off ch=4 n=60 v=74
91181 Off ch=4 n=67 v=80
91184 Off ch=4 n=62 v=80
91189 On ch=4 n=60 v=80
91201 On ch=4 n=62 v=76
91210 On ch=4 n=67 v=73
91644 Off ch=4 n=60 v=80
91653 Off ch=4 n=67 v=73
91654 Off ch=4 n=62 v=76
91670 On ch=4 n=60 v=92
91680 On ch=4 n=62 v=88
91690 On ch=4 n=67 v=74
91921 Off ch=4 n=67 v=74
91922 On ch=4 n=65 v=81
92127 Off ch=4 n=60 v=92
92145 Off ch=4 n=62 v=88
92149 On ch=4 n=60 v=84
92158 On ch=4 n=62 v=93
92168 Off ch=4 n=65 v=81
92169 On ch=4 n=67 v=79
92610 Off ch=4 n=60 v=84
92617 Off ch=4 n=67 v=79
92620 Off ch=4 n=62 v=93
92630 On ch=4 n=55 v=74
92635 On ch=4 n=60 v=80
92645 On ch=4 n=64 v=81
92650 On ch=4 n=67 v=70
92854 Off ch=4 n=60 v=80
92858 Off ch=4 n=67 v=70
92861 Off ch=4 n=64 v=81
92870 Off ch=4 n=55 v=74
92876 On ch=4 n=64 v=77
92882 On ch=4 n=60 v=85
92889 On ch=4 n=55 v=58
93086 Off ch=4 n=55 v=58
93100 Off ch=4 n=60 v=85
93109 Off ch=4 n=64 v=77
93111 On ch=4 n=55 v=85
93119 On ch=4 n=60 v=84
93130 On ch=4 n=64 v=80
93325 Off ch=4 n=60 v=84
93336 Off ch=4 n=64 v=80
93344 Off ch=4 n=55 v=85
93352 On ch=4 n=64 v=85
93361 On ch=4 n=60 v=81
93368 On ch=4 n=55 v=80
93457 Off ch=4 n=55 v=80
93471 Off ch=4 n=64 v=85
93471 On ch=4 n=55 v=68
93476 Off ch=4 n=60 v=81
93483 On ch=4 n=59 v=79
93573 Off ch=4 n=55 v=68
93585 Off ch=4 n=59 v=79
93594 On ch=4 n=59 v=80
93600 On ch=4 n=55 v=84
93803 Off ch=4 n=59 v=80
93808 Off ch=4 n=55 v=84
93841 On ch=4 n=55 v=87
93846 On ch=4 n=59 v=90
94067 On ch=4 n=67 v=115
94082 On ch=4 n=79 v=117
94296 Off ch=4 n=67 v=115
94307 On ch=4 n=64 v=115
94317 On ch=4 n=76 v=116
94319 Off ch=4 n=79 v=117
94457 Off ch=4 n=64 v=115
94463 Off ch=4 n=76 v=116
94546 Off ch=4 n=55 v=87
94550 On ch=4 n=60 v=74
94552 Off ch=4 n=59 v=90
94560 On ch=4 n=62 v=80
94570 On ch=4 n=67 v=80
95000 Off ch=4 n=60 v=74
95021 Off ch=4 n=67 v=80
95024 Off ch=4 n=62 v=80
95029 On ch=4 n=60 v=80
95041 On ch=4 n=62 v=76
95050 On ch=4 n=67 v=73
95484 Off ch=4 n=60 v=80
95493 Off ch=4 n=67 v=73
95494 Off ch=4 n=62 v=76
95510 On ch=4 n=60 v=92
95520 On ch=4 n=62 v=88
95530 On ch=4 n=67 v=74
95761 Off ch=4 n=67 v=74
95762 On ch=4 n=65 v=81
95982 Off ch=4 n=60 v=92
95985 Off ch=4 n=62 v=88
95988 Off ch=4 n=65 v=81
95994 On ch=4 n=65 v=73
96000 On ch=4 n=62 v=73
96005 On ch=4 n=60 v=73
96198 Off ch=4 n=65 v=73
96204 Off ch=4 n=62 v=73
96208 Off ch=4 n=60 v=73
96230 On ch=4 n=60 v=81
96239 On ch=4 n=62 v=77
96249 On ch=4 n=67 v=85
96897 Off ch=4 n=60 v=81
96912 Off ch=4 n=62 v=77
96918 Off ch=4 n=67 v=85
96949 On ch=4 n=60 v=80
96961 On ch=4 n=62 v=76
96970 On ch=4 n=70 v=73
97404 Off ch=4 n=60 v=80
97413 Off ch=4 n=70 v=73
97414 Off ch=4 n=62 v=76
97430 On ch=4 n=60 v=92
97440 On ch=4 n=62 v=88
97450 On ch=4 n=67 v=74
97681 Off ch=4 n=67 v=74
97682 On ch=4 n=65 v=81
97902 Off ch=4 n=60 v=92
97905 Off ch=4 n=62 v=88
97908 Off ch=4 n=65 v=81
97914 On ch=4 n=65 v=73
97920 On ch=4 n=62 v=73
97925 On ch=4 n=60 v=73
98118 Off ch=4 n=65 v=73
98124 Off ch=4 n=62 v=73
98128 Off ch=4 n=60 v=73
98148 On ch=4 n=57 v=86
98162 On ch=4 n=62 v=95
98171 On ch=4 n=67 v=87
98861 Off ch=4 n=62 v=95
98865 Off ch=4 n=67 v=87
98869 Off ch=4 n=57 v=86
98871 On ch=4 n=57 v=80
98883 On ch=4 n=62 v=72
98889 On ch=4 n=66 v=82
99124 On ch=4 n=64 v=76
99131 Off ch=4 n=66 v=82
99209 Off ch=4 n=57 v=80
99223 Off ch=4 n=62 v=72
99231 On ch=4 n=57 v=86
99239 Off ch=4 n=64 v=76
99240 On ch=4 n=62 v=86
99248 On ch=4 n=66 v=95
99825 Off ch=4 n=62 v=86
99826 Off ch=4 n=66 v=95
99826 Off ch=4 n=57 v=86
99829 On ch=4 n=57 v=85
99839 On ch=4 n=62 v=78
99849 On ch=4 n=66 v=68
100062 Off ch=4 n=66 v=68
100064 Off ch=4 n=62 v=78
100070 Off ch=4 n=57 v=85
100070 On ch=4 n=66 v=69
100082 On ch=4 n=62 v=67
100090 On ch=4 n=57 v=68
100288 Off ch=4 n=66 v=69
100302 Off ch=4 n=62 v=67
100304 Off ch=4 n=57 v=68
100310 On ch=4 n=57 v=86
100320 On ch=4 n=62 v=95
100330 On ch=4 n=67 v=87
100556 On ch=4 n=66 v=93
100559 Off ch=4 n=67 v=87
100779 Off ch=4 n=57 v=86
100781 Off ch=4 n=62 v=95
100787 Off ch=4 n=66 v=93
100791 On ch=4 n=57 v=80
100803 On ch=4 n=62 v=72
100809 On ch=4 n=66 v=82
101044 On ch=4 n=64 v=76
101051 Off ch=4 n=66 v=82
101129 Off ch=4 n=57 v=80
101143 Off ch=4 n=62 v=72
101151 On ch=4 n=57 v=86
101159 Off ch=4 n=64 v=76
101160 On ch=4 n=62 v=86
101168 On ch=4 n=66 v=95
101746 Off ch=4 n=66 v=95
101746 Off ch=4 n=57 v=86
101749 On ch=4 n=57 v=85
101755 Off ch=4 n=62 v=86
101769 On ch=4 n=64 v=68
101982 Off ch=4 n=64 v=68
101990 Off ch=4 n=57 v=85
102002 On ch=4 n=62 v=67
102010 On ch=4 n=57 v=68
102222 Off ch=4 n=62 v=67
102224 Off ch=4 n=57 v=68
102230 On ch=4 n=55 v=77
102245 On ch=4 n=64 v=91
102713 On ch=4 n=57 v=81
102716 Off ch=4 n=55 v=77
102718 Off ch=4 n=64 v=91
102720 On ch=4 n=66 v=74
102940 Off ch=4 n=57 v=81
102943 Off ch=4 n=66 v=74
102951 On ch=4 n=57 v=68
102958 On ch=4 n=66 v=65
103433 Off ch=4 n=66 v=65
103439 On ch=4 n=67 v=67
103553 On ch=4 n=66 v=65
103557 Off ch=4 n=67 v=67
103676 Off ch=4 n=66 v=65
103680 On ch=4 n=64 v=57
104153 Off ch=4 n=57 v=68
104155 Off ch=4 n=64 v=57
104158 On ch=4 n=57 v=91
104163 On ch=4 n=64 v=74
104179 On ch=4 n=73 v=74
104388 Off ch=4 n=73 v=74
104390 Off ch=4 n=64 v=74
104408 On ch=4 n=73 v=54
104415 On ch=4 n=64 v=61
104495 Off ch=4 n=64 v=61
104516 Off ch=4 n=73 v=54
104521 On ch=4 n=64 v=69
104535 On ch=4 n=73 v=68
104624 Off ch=4 n=57 v=91
104648 On ch=4 n=57 v=80
104737 Off ch=4 n=64 v=69
104742 Off ch=4 n=73 v=68
104755 On ch=4 n=73 v=61
104760 On ch=4 n=64 v=63
104866 Off ch=4 n=64 v=63
104875 Off ch=4 n=73 v=61
104883 On ch=4 n=64 v=73
104890 On ch=4 n=73 v=76
105098 Off ch=4 n=57 v=80
105109 Off ch=4 n=64 v=73
105111 On ch=4 n=57 v=81
105118 Off ch=4 n=73 v=76
105125 On ch=4 n=64 v=66
105132 On ch=4 n=73 v=81
105230 Off ch=4 n=73 v=81
105234 Off ch=4 n=64 v=66
105236 On ch=4 n=73 v=56
105247 On ch=4 n=64 v=65
105466 Off ch=4 n=64 v=65
105473 Off ch=4 n=73 v=56
105478 On ch=4 n=64 v=68
105483 On ch=4 n=73 v=73
105589 Off ch=4 n=73 v=73
105590 Off ch=4 n=57 v=81
105597 Off ch=4 n=64 v=68
105597 On ch=4 n=73 v=59
105603 On ch=4 n=64 v=68
105610 On ch=4 n=57 v=76
105822 Off ch=4 n=64 v=68
105828 Off ch=4 n=73 v=59
105834 On ch=4 n=64 v=70
105844 On ch=4 n=73 v=66
105942 Off ch=4 n=73 v=66
105947 Off ch=4 n=64 v=70
105953 On ch=4 n=73 v=58
105966 On ch=4 n=64 v=73
106068 On ch=4 n=57 v=104
106069 Off ch=4 n=57 v=76
106071 Off ch=4 n=73 v=58
106075 On ch=4 n=64 v=106
106078 Off ch=4 n=64 v=73
106080 KeySig 3 major
106082 On ch=4 n=69 v=104
106088 On ch=4 n=73 v=106
106093 On ch=4 n=76 v=103
106301 Off ch=4 n=57 v=104
106305 Off ch=4 n=64 v=106
106305 Off ch=4 n=73 v=106
106306 Off ch=4 n=69 v=104
106315 Off ch=4 n=76 v=103
106321 On ch=4 n=64 v=76
106321 On ch=4 n=73 v=68
106323 On ch=4 n=76 v=90
106324 On ch=4 n=69 v=43
106326 On ch=4 n=57 v=58
106356 Off ch=4 n=57 v=58
106358 Off ch=4 n=69 v=43
106363 Off ch=4 n=64 v=76
106363 Off ch=4 n=73 v=68
106363 Off ch=4 n=76 v=90
106548 On ch=4 n=57 v=104
106555 On ch=4 n=64 v=106
106562 On ch=4 n=69 v=104
106568 On ch=4 n=73 v=106
106573 On ch=4 n=76 v=103
106781 Off ch=4 n=57 v=104
106785 Off ch=4 n=64 v=106
106785 Off ch=4 n=73 v=106
106786 Off ch=4 n=69 v=104
106795 Off ch=4 n=76 v=103
106801 On ch=4 n=64 v=79
106801 On ch=4 n=73 v=71
106803 On ch=4 n=76 v=93
106804 On ch=4 n=69 v=46
106806 On ch=4 n=57 v=61
106836 Off ch=4 n=57 v=61
106838 Off ch=4 n=69 v=46
106843 Off ch=4 n=64 v=79
106843 Off ch=4 n=73 v=71
106843 Off ch=4 n=76 v=93
107028 On ch=4 n=56 v=104
107035 On ch=4 n=64 v=106
107042 On ch=4 n=68 v=104
107048 On ch=4 n=73 v=106
107053 On ch=4 n=76 v=103
107261 Off ch=4 n=56 v=104
107265 Off ch=4 n=64 v=106
107265 Off ch=4 n=73 v=106
107266 Off ch=4 n=68 v=104
107275 Off ch=4 n=76 v=103
107278 On ch=4 n=73 v=85
107281 On ch=4 n=64 v=79
107283 On ch=4 n=76 v=93
107284 On ch=4 n=68 v=46
107286 On ch=4 n=56 v=61
107316 Off ch=4 n=56 v=61
107318 Off ch=4 n=68 v=46
107323 Off ch=4 n=64 v=79
107323 Off ch=4 n=76 v=93
107395 Off ch=4 n=73 v=85
107405 On ch=4 n=71 v=72
107438 Off ch=4 n=71 v=72
107508 On ch=4 n=54 v=104
107515 On ch=4 n=66 v=106
107522 On ch=4 n=69 v=104
107528 On ch=4 n=73 v=106
107741 Off ch=4 n=54 v=104
107745 Off ch=4 n=73 v=106
107745 Off ch=4 n=66 v=106
107746 Off ch=4 n=69 v=104
107761 On ch=4 n=66 v=79
107762 On ch=4 n=73 v=87
107764 On ch=4 n=69 v=46
107766 On ch=4 n=54 v=61
107796 Off ch=4 n=54 v=61
107798 Off ch=4 n=69 v=46
107803 Off ch=4 n=66 v=79
107883 On ch=4 n=71 v=65
107890 Off ch=4 n=73 v=87
107909 Off ch=4 n=71 v=65
107988 On ch=4 n=54 v=104
107995 On ch=4 n=66 v=106
108002 On ch=4 n=69 v=104
108008 On ch=4 n=73 v=106
108221 Off ch=4 n=54 v=104
108225 Off ch=4 n=73 v=106
108225 Off ch=4 n=66 v=106
108226 Off ch=4 n=69 v=104
108239 On ch=4 n=73 v=94
108241 On ch=4 n=66 v=79
108244 On ch=4 n=69 v=46
108246 On ch=4 n=54 v=61
108276 Off ch=4 n=54 v=61
108278 Off ch=4 n=69 v=46
108283 Off ch=4 n=66 v=79
108359 On ch=4 n=71 v=46
108361 Off ch=4 n=73 v=94
108392 Off ch=4 n=71 v=46
108468 On ch=4 n=50 v=104
108475 On ch=4 n=66 v=106
108482 On ch=4 n=69 v=104
108488 On ch=4 n=74 v=106
108701 Off ch=4 n=50 v=104
108705 Off ch=4 n=74 v=106
108705 Off ch=4 n=66 v=106
108706 Off ch=4 n=69 v=104
108721 On ch=4 n=66 v=79
108722 On ch=4 n=74 v=86
108724 On ch=4 n=69 v=46
108726 On ch=4 n=50 v=61
108756 Off ch=4 n=50 v=61
108758 Off ch=4 n=69 v=46
108763 Off ch=4 n=66 v=79
108838 On ch=4 n=71 v=65
108840 Off ch=4 n=74 v=86
108871 Off ch=4 n=71 v=65
108948 On ch=4 n=57 v=124
108962 On ch=4 n=69 v=124
108968 On ch=4 n=73 v=126
108973 On ch=4 n=76 v=123
109184 Off ch=4 n=76 v=123
109185 Off ch=4 n=73 v=126
109186 Off ch=4 n=69 v=124
109190 On ch=4 n=76 v=95
109196 Off ch=4 n=57 v=124
109198 On ch=4 n=73 v=84
109203 On ch=4 n=69 v=90
109213 On ch=4 n=57 v=95
109299 Off ch=4 n=57 v=95
109309 Off ch=4 n=73 v=84
109309 Off ch=4 n=69 v=90
109311 On ch=4 n=57 v=96
109315 Off ch=4 n=76 v=95
109320 On ch=4 n=69 v=87
109327 On ch=4 n=73 v=90
109333 On ch=4 n=76 v=90
109539 Off ch=4 n=76 v=90
109550 Off ch=4 n=73 v=90
109550 On ch=4 n=76 v=95
109557 Off ch=4 n=69 v=87
109558 On ch=4 n=73 v=84
109563 On ch=4 n=69 v=90
109565 Off ch=4 n=57 v=96
109573 On ch=4 n=57 v=95
109659 Off ch=4 n=57 v=95
109668 On ch=4 n=57 v=104
109669 Off ch=4 n=73 v=84
109669 Off ch=4 n=69 v=90
109675 Off ch=4 n=76 v=95
109682 On ch=4 n=69 v=104
109688 On ch=4 n=73 v=106
109693 On ch=4 n=76 v=103
109792 Off ch=4 n=73 v=106
109796 Off ch=4 n=57 v=104
109796 Off ch=4 n=69 v=104
109800 Off ch=4 n=76 v=103
109801 On ch=4 n=73 v=58
109803 On ch=4 n=76 v=80
109804 On ch=4 n=69 v=33
109806 On ch=4 n=57 v=48
109836 Off ch=4 n=57 v=48
109838 Off ch=4 n=69 v=33
109843 Off ch=4 n=76 v=80
109843 Off ch=4 n=73 v=58
109910 On ch=4 n=50 v=104
109918 On ch=4 n=67 v=94
109924 On ch=4 n=71 v=100
109931 On ch=4 n=74 v=96
110020 Off ch=4 n=74 v=96
110024 Off ch=4 n=71 v=100
110029 Off ch=4 n=67 v=94
110029 On ch=4 n=74 v=96
110035 On ch=4 n=71 v=100
110043 Off ch=4 n=50 v=104
110045 On ch=4 n=67 v=84
110053 On ch=4 n=50 v=93
110096 Off ch=4 n=74 v=96
110098 Off ch=4 n=71 v=100
110103 Off ch=4 n=67 v=84
110124 Off ch=4 n=50 v=93
110280 On ch=4 n=74 v=56
110280 On ch=4 n=67 v=46
110280 On ch=4 n=71 v=53
110280 On ch=4 n=50 v=62
110324 Off ch=4 n=71 v=53
110325 Off ch=4 n=50 v=62
110326 Off ch=4 n=67 v=46
110329 Off ch=4 n=74 v=56
110388 On ch=4 n=57 v=124
110402 On ch=4 n=69 v=124
110408 On ch=4 n=73 v=126
110413 On ch=4 n=76 v=123
110624 Off ch=4 n=76 v=123
110625 Off ch=4 n=73 v=126
110626 Off ch=4 n=69 v=124
110630 On ch=4 n=76 v=95
110636 Off ch=4 n=57 v=124
110638 On ch=4 n=73 v=84
110643 On ch=4 n=69 v=90
110653 On ch=4 n=57 v=95
110739 Off ch=4 n=57 v=95
110749 Off ch=4 n=73 v=84
110749 Off ch=4 n=69 v=90
110751 On ch=4 n=57 v=96
110755 Off ch=4 n=76 v=95
110760 On ch=4 n=69 v=87
110767 On ch=4 n=73 v=90
110773 On ch=4 n=76 v=90
110979 Off ch=4 n=76 v=90
110990 Off ch=4 n=73 v=90
110990 On ch=4 n=76 v=95
110997 Off ch=4 n=69 v=87
110998 On ch=4 n=73 v=84
111003 On ch=4 n=69 v=90
111005 Off ch=4 n=57 v=96
111013 On ch=4 n=57 v=95
111099 Off ch=4 n=57 v=95
111108 On ch=4 n=57 v=104
111109 Off ch=4 n=73 v=84
111109 Off ch=4 n=69 v=90
111115 Off ch=4 n=76 v=95
111122 On ch=4 n=69 v=104
111128 On ch=4 n=73 v=106
111133 On ch=4 n=76 v=103
111232 Off ch=4 n=73 v=106
111236 Off ch=4 n=57 v=104
111236 Off ch=4 n=69 v=104
111240 Off ch=4 n=76 v=103
111241 On ch=4 n=73 v=58
111243 On ch=4 n=76 v=80
111244 On ch=4 n=69 v=33
111246 On ch=4 n=57 v=48
111276 Off ch=4 n=57 v=48
111278 Off ch=4 n=69 v=33
111283 Off ch=4 n=76 v=80
111283 Off ch=4 n=73 v=58
111350 On ch=4 n=50 v=104
111358 On ch=4 n=67 v=94
111364 On ch=4 n=71 v=100
111371 On ch=4 n=74 v=96
111460 Off ch=4 n=74 v=96
111464 Off ch=4 n=71 v=100
111469 Off ch=4 n=67 v=94
111469 On ch=4 n=74 v=96
111475 On ch=4 n=71 v=100
111483 Off ch=4 n=50 v=104
111485 On ch=4 n=67 v=84
111493 On ch=4 n=50 v=93
111536 Off ch=4 n=74 v=96
111538 Off ch=4 n=71 v=100
111543 Off ch=4 n=67 v=84
111564 Off ch=4 n=50 v=93
111720 On ch=4 n=74 v=56
111720 On ch=4 n=67 v=46
111720 On ch=4 n=71 v=53
111720 On ch=4 n=50 v=62
111764 Off ch=4 n=71 v=53
111765 Off ch=4 n=50 v=62
111766 Off ch=4 n=67 v=46
111769 Off ch=4 n=74 v=56
111828 On ch=4 n=57 v=104
111835 On ch=4 n=64 v=106
111842 On ch=4 n=69 v=104
111848 On ch=4 n=73 v=106
111853 On ch=4 n=76 v=103
112061 Off ch=4 n=57 v=104
112065 Off ch=4 n=64 v=106
112065 Off ch=4 n=73 v=106
112066 Off ch=4 n=69 v=104
112075 Off ch=4 n=76 v=103
112081 On ch=4 n=64 v=76
112081 On ch=4 n=73 v=68
112083 On ch=4 n=76 v=90
112084 On ch=4 n=69 v=43
112086 On ch=4 n=57 v=58
112116 Off ch=4 n=57 v=58
112118 Off ch=4 n=69 v=43
112123 Off ch=4 n=64 v=76
112123 Off ch=4 n=73 v=68
112123 Off ch=4 n=76 v=90
112308 On ch=4 n=57 v=104
112315 On ch=4 n=64 v=106
112322 On ch=4 n=69 v=104
112328 On ch=4 n=73 v=106
112333 On ch=4 n=76 v=103
112541 Off ch=4 n=57 v=104
112545 Off ch=4 n=64 v=106
112545 Off ch=4 n=73 v=106
112546 Off ch=4 n=69 v=104
112555 Off ch=4 n=76 v=103
112561 On ch=4 n=64 v=79
112561 On ch=4 n=73 v=71
112563 On ch=4 n=76 v=93
112564 On ch=4 n=69 v=46
112566 On ch=4 n=57 v=61
112596 Off ch=4 n=57 v=61
112598 Off ch=4 n=69 v=46
112603 Off ch=4 n=64 v=79
112603 Off ch=4 n=73 v=71
112603 Off ch=4 n=76 v=93
112788 On ch=4 n=56 v=104
112795 On ch=4 n=64 v=106
112802 On ch=4 n=68 v=104
112808 On ch=4 n=73 v=106
112813 On ch=4 n=76 v=103
113021 Off ch=4 n=56 v=104
113025 Off ch=4 n=64 v=106
113025 Off ch=4 n=73 v=106
113026 Off ch=4 n=68 v=104
113035 Off ch=4 n=76 v=103
113038 On ch=4 n=73 v=85
113041 On ch=4 n=64 v=79
113043 On ch=4 n=76 v=93
113044 On ch=4 n=68 v=46
113046 On ch=4 n=56 v=61
113076 Off ch=4 n=56 v=61
113078 Off ch=4 n=68 v=46
113083 Off ch=4 n=64 v=79
113083 Off ch=4 n=76 v=93
113155 Off ch=4 n=73 v=85
113165 On ch=4 n=71 v=72
113198 Off ch=4 n=71 v=72
113268 On ch=4 n=54 v=105
113275 On ch=4 n=66 v=109
113282 On ch=4 n=69 v=103
113288 On ch=4 n=73 v=107
114711 Off ch=4 n=73 v=107
114712 Off ch=4 n=69 v=103
114715 Off ch=4 n=66 v=109
114715 Off ch=4 n=54 v=105
115654 On ch=4 n=74 v=111
115681 On ch=4 n=69 v=110
115708 On ch=4 n=62 v=111
118560 Off ch=4 n=74 v=111
118560 Off ch=4 n=69 v=110
118560 Off ch=4 n=62 v=111
118560 KeySig 0 major
173280 Par ch=4 c=7 v=100
173280 On ch=4 n=55 v=85
173454 On ch=4 n=66 v=113
174249 On ch=4 n=59 v=104
174274 Off ch=4 n=66 v=113
174439 On ch=4 n=69 v=106
175190 Off ch=4 n=55 v=85
175210 On ch=4 n=40 v=88
175270 Off ch=4 n=59 v=104
175342 Off ch=4 n=69 v=106
175621 On ch=4 n=54 v=60
175693 On ch=4 n=66 v=96
177093 Off ch=4 n=66 v=96
177098 Off ch=4 n=40 v=88
177098 Off ch=4 n=54 v=60
177120 On ch=4 n=55 v=85
177120 On ch=4 n=67 v=89
177294 On ch=4 n=66 v=113
177304 Off ch=4 n=67 v=89
178089 On ch=4 n=59 v=104
178114 Off ch=4 n=66 v=113
178279 On ch=4 n=69 v=106
179030 Off ch=4 n=55 v=85
179050 On ch=4 n=45 v=112
179110 Off ch=4 n=59 v=104
179182 Off ch=4 n=69 v=106
179461 On ch=4 n=55 v=60
179533 On ch=4 n=67 v=96
180933 Off ch=4 n=67 v=96
180938 Off ch=4 n=45 v=112
180938 Off ch=4 n=55 v=60
180960 On ch=4 n=55 v=85
180960 On ch=4 n=67 v=89
181134 On ch=4 n=66 v=113
181144 Off ch=4 n=67 v=89
181929 On ch=4 n=59 v=104
181954 Off ch=4 n=66 v=113
182119 On ch=4 n=69 v=106
182870 Off ch=4 n=55 v=85
182890 On ch=4 n=45 v=112
182950 Off ch=4 n=59 v=104
182960 On ch=4 n=74 v=87
182996 On ch=4 n=50 v=76
183004 On ch=4 n=62 v=94
183022 Off ch=4 n=69 v=106
183301 On ch=4 n=76 v=87
183368 On ch=4 n=64 v=96
184678 Off ch=4 n=62 v=94
184683 Off ch=4 n=74 v=87
184748 Off ch=4 n=76 v=87
184768 Off ch=4 n=64 v=96
184778 Off ch=4 n=45 v=112
184782 Off ch=4 n=50 v=76
184800 On ch=4 n=55 v=85
184800 On ch=4 n=67 v=89
184974 On ch=4 n=66 v=113
184984 Off ch=4 n=67 v=89
185769 On ch=4 n=59 v=104
185794 Off ch=4 n=66 v=113
185959 On ch=4 n=69 v=106
186710 Off ch=4 n=55 v=85
186730 On ch=4 n=45 v=112
186790 Off ch=4 n=59 v=104
186862 Off ch=4 n=69 v=106
186953 On ch=4 n=66 v=110
186957 On ch=4 n=54 v=110
187053 On ch=4 n=53 v=73
187054 Off ch=4 n=54 v=110
187059 On ch=4 n=65 v=85
187064 Off ch=4 n=66 v=110
187095 On ch=4 n=52 v=92
187101 Off ch=4 n=53 v=73
187101 On ch=4 n=64 v=95
187102 Off ch=4 n=65 v=85
187145 On ch=4 n=51 v=89
187146 Off ch=4 n=52 v=92
187151 On ch=4 n=63 v=88
187158 Off ch=4 n=64 v=95
187197 On ch=4 n=50 v=63
187199 On ch=4 n=62 v=61
187202 Off ch=4 n=51 v=89
187206 Off ch=4 n=63 v=88
187347 Off ch=4 n=62 v=61
187355 Off ch=4 n=50 v=63
187440 On ch=4 n=62 v=78
187440 On ch=4 n=50 v=76
187664 Off ch=4 n=62 v=78
187664 Off ch=4 n=50 v=76
187684 On ch=4 n=50 v=70
187687 On ch=4 n=62 v=68
188615 Off ch=4 n=50 v=70
188618 Off ch=4 n=45 v=112
188627 Off ch=4 n=62 v=68
188640 On ch=4 n=55 v=85
188640 On ch=4 n=67 v=89
188814 On ch=4 n=66 v=113
188824 Off ch=4 n=67 v=89
189609 On ch=4 n=59 v=104
189634 Off ch=4 n=66 v=113
189799 On ch=4 n=69 v=106
190550 Off ch=4 n=55 v=85
190570 On ch=4 n=45 v=112
190630 Off ch=4 n=59 v=104
190702 Off ch=4 n=69 v=106
190798 On ch=4 n=67 v=111
190824 On ch=4 n=55 v=110
190939 On ch=4 n=66 v=56
190949 Off ch=4 n=67 v=111
190965 On ch=4 n=54 v=55
190976 Off ch=4 n=55 v=110
191002 Off ch=4 n=66 v=56
191018 Off ch=4 n=54 v=55
191048 On ch=4 n=66 v=69
191077 On ch=4 n=54 v=69
191238 Off ch=4 n=66 v=69
191279 Off ch=4 n=54 v=69
191280 On ch=4 n=66 v=73
191295 On ch=4 n=54 v=69
191526 Off ch=4 n=66 v=73
191530 On ch=4 n=57 v=71
191551 Off ch=4 n=54 v=69
191556 On ch=4 n=45 v=71
191730 Off ch=4 n=57 v=71
191755 Off ch=4 n=45 v=71
191759 On ch=4 n=66 v=72
191774 On ch=4 n=54 v=68
192396 Off ch=4 n=54 v=68
192410 Off ch=4 n=66 v=72
192458 Off ch=4 n=45 v=112
192480 On ch=4 n=67 v=89
192480 On ch=4 n=55 v=85
192619 On ch=4 n=66 v=113
192634 Off ch=4 n=67 v=89
193439 Off ch=4 n=66 v=113
193449 On ch=4 n=59 v=104
193564 On ch=4 n=69 v=106
194390 Off ch=4 n=55 v=85
194392 On ch=4 n=52 v=81
194400 Off ch=4 n=59 v=104
194400 Off ch=4 n=69 v=106
194408 On ch=4 n=64 v=85
194636 Off ch=4 n=64 v=85
194640 On ch=4 n=64 v=85
194651 On ch=4 n=59 v=75
194746 Off ch=4 n=64 v=85
194760 On ch=4 n=64 v=75
194872 Off ch=4 n=52 v=81
194874 Off ch=4 n=64 v=75
194879 On ch=4 n=40 v=83
194888 On ch=4 n=64 v=84
194893 Off ch=4 n=59 v=75
195116 Off ch=4 n=64 v=84
195120 On ch=4 n=64 v=85
195130 On ch=4 n=59 v=64
195235 Off ch=4 n=64 v=85
195244 On ch=4 n=64 v=75
195350 Off ch=4 n=64 v=75
195360 On ch=4 n=52 v=81
195363 Off ch=4 n=40 v=83
195366 Off ch=4 n=59 v=64
195368 On ch=4 n=64 v=82
195480 On ch=4 n=54 v=82
195481 On ch=4 n=66 v=86
195485 Off ch=4 n=52 v=81
195489 Off ch=4 n=64 v=82
195590 Off ch=4 n=66 v=86
195594 Off ch=4 n=54 v=82
195600 On ch=4 n=64 v=85
195600 On ch=4 n=54 v=80
195610 On ch=4 n=59 v=67
195707 Off ch=4 n=64 v=85
195720 On ch=4 n=64 v=77
195830 Off ch=4 n=64 v=77
195832 On ch=4 n=47 v=81
195839 Off ch=4 n=54 v=80
195840 Off ch=4 n=59 v=67
195848 On ch=4 n=64 v=85
196076 Off ch=4 n=64 v=85
196080 On ch=4 n=64 v=85
196091 On ch=4 n=59 v=75
196186 Off ch=4 n=64 v=85
196200 On ch=4 n=64 v=74
196312 Off ch=4 n=47 v=81
196314 Off ch=4 n=64 v=74
196315 On ch=4 n=40 v=83
196324 On ch=4 n=64 v=84
196333 Off ch=4 n=59 v=75
196556 Off ch=4 n=64 v=84
196560 On ch=4 n=64 v=85
196570 On ch=4 n=59 v=64
196667 Off ch=4 n=64 v=85
196684 On ch=4 n=64 v=75
196786 Off ch=4 n=64 v=75
196799 Off ch=4 n=40 v=83
196800 On ch=4 n=47 v=79
196804 On ch=4 n=64 v=85
196806 Off ch=4 n=59 v=64
196920 On ch=4 n=49 v=81
196925 Off ch=4 n=47 v=79
197026 Off ch=4 n=49 v=81
197034 Off ch=4 n=64 v=85
197036 On ch=4 n=49 v=81
197040 On ch=4 n=64 v=85
197050 On ch=4 n=59 v=67
197147 Off ch=4 n=64 v=85
197160 On ch=4 n=64 v=77
197270 Off ch=4 n=64 v=77
197276 On ch=4 n=44 v=81
197279 Off ch=4 n=49 v=81
197280 Off ch=4 n=59 v=67
197284 On ch=4 n=64 v=85
197512 Off ch=4 n=64 v=85
197515 Off ch=4 n=44 v=81
197520 On ch=4 n=64 v=86
197526 On ch=4 n=44 v=86
197527 On ch=4 n=59 v=75
197626 Off ch=4 n=64 v=86
197640 On ch=4 n=64 v=76
197751 Off ch=4 n=64 v=76
197768 On ch=4 n=64 v=84
197995 Off ch=4 n=59 v=75
197996 Off ch=4 n=64 v=84
198000 On ch=4 n=64 v=85
198003 On ch=4 n=59 v=64
198107 Off ch=4 n=64 v=85
198110 Off ch=4 n=59 v=64
198122 On ch=4 n=59 v=64
198124 On ch=4 n=64 v=75
198226 Off ch=4 n=64 v=75
198240 On ch=4 n=45 v=81
198244 Off ch=4 n=44 v=86
198244 On ch=4 n=64 v=85
198251 Off ch=4 n=59 v=64
198350 Off ch=4 n=45 v=81
198360 On ch=4 n=45 v=81
198474 Off ch=4 n=64 v=85
198474 Off ch=4 n=45 v=81
198480 On ch=4 n=64 v=85
198483 On ch=4 n=59 v=67
198484 On ch=4 n=45 v=80
198587 Off ch=4 n=64 v=85
198600 On ch=4 n=64 v=77
198710 Off ch=4 n=64 v=77
198712 On ch=4 n=47 v=81
198720 Off ch=4 n=59 v=67
198720 Off ch=4 n=45 v=80
198728 On ch=4 n=64 v=85
198956 Off ch=4 n=64 v=85
198960 On ch=4 n=64 v=85
198971 On ch=4 n=59 v=75
199066 Off ch=4 n=64 v=85
199080 On ch=4 n=64 v=74
199192 Off ch=4 n=47 v=81
199194 Off ch=4 n=64 v=74
199195 On ch=4 n=40 v=83
199204 On ch=4 n=64 v=84
199213 Off ch=4 n=59 v=75
199436 Off ch=4 n=64 v=84
199440 On ch=4 n=64 v=85
199450 On ch=4 n=59 v=64
199547 Off ch=4 n=64 v=85
199564 On ch=4 n=64 v=75
199666 Off ch=4 n=64 v=75
199679 Off ch=4 n=40 v=83
199680 On ch=4 n=47 v=79
199684 On ch=4 n=64 v=85
199686 Off ch=4 n=59 v=64
199800 On ch=4 n=49 v=81
199805 Off ch=4 n=47 v=79
199906 Off ch=4 n=49 v=81
199914 Off ch=4 n=64 v=85
199916 On ch=4 n=49 v=81
199920 On ch=4 n=64 v=85
199930 On ch=4 n=59 v=67
200027 Off ch=4 n=64 v=85
200040 On ch=4 n=64 v=77
200150 Off ch=4 n=64 v=77
200152 On ch=4 n=52 v=81
200159 Off ch=4 n=49 v=81
200160 Off ch=4 n=59 v=67
200168 On ch=4 n=64 v=85
200396 Off ch=4 n=64 v=85
200400 On ch=4 n=64 v=85
200411 On ch=4 n=59 v=75
200506 Off ch=4 n=64 v=85
200520 On ch=4 n=64 v=75
200632 Off ch=4 n=52 v=81
200634 Off ch=4 n=64 v=75
200639 On ch=4 n=40 v=83
200648 On ch=4 n=64 v=84
200653 Off ch=4 n=59 v=75
200876 Off ch=4 n=64 v=84
200880 On ch=4 n=64 v=85
200890 On ch=4 n=59 v=64
200995 Off ch=4 n=64 v=85
201004 On ch=4 n=64 v=75
201110 Off ch=4 n=64 v=75
201120 On ch=4 n=52 v=81
201123 Off ch=4 n=40 v=83
201126 Off ch=4 n=59 v=64
201128 On ch=4 n=64 v=82
201240 On ch=4 n=54 v=82
201241 On ch=4 n=66 v=86
201245 Off ch=4 n=52 v=81
201249 Off ch=4 n=64 v=82
201350 Off ch=4 n=66 v=86
201354 Off ch=4 n=54 v=82
201360 On ch=4 n=64 v=85
201360 On ch=4 n=54 v=80
201370 On ch=4 n=59 v=67
201467 Off ch=4 n=64 v=85
201480 On ch=4 n=64 v=77
201590 Off ch=4 n=64 v=77
201592 On ch=4 n=47 v=81
201599 Off ch=4 n=54 v=80
201600 Off ch=4 n=59 v=67
201608 On ch=4 n=64 v=85
201836 Off ch=4 n=64 v=85
201840 On ch=4 n=64 v=85
201851 On ch=4 n=59 v=75
201946 Off ch=4 n=64 v=85
201960 On ch=4 n=64 v=74
202072 Off ch=4 n=47 v=81
202074 Off ch=4 n=64 v=74
202075 On ch=4 n=40 v=83
202084 On ch=4 n=64 v=84
202093 Off ch=4 n=59 v=75
202316 Off ch=4 n=64 v=84
202320 On ch=4 n=64 v=85
202330 On ch=4 n=59 v=64
202427 Off ch=4 n=64 v=85
202444 On ch=4 n=64 v=75
202546 Off ch=4 n=64 v=75
202559 Off ch=4 n=40 v=83
202560 On ch=4 n=47 v=79
202564 On ch=4 n=64 v=85
202566 Off ch=4 n=59 v=64
202680 On ch=4 n=49 v=81
202685 Off ch=4 n=47 v=79
202786 Off ch=4 n=49 v=81
202794 Off ch=4 n=64 v=85
202796 On ch=4 n=49 v=81
202800 On ch=4 n=64 v=85
202810 On ch=4 n=59 v=67
202907 Off ch=4 n=64 v=85
202920 On ch=4 n=64 v=77
203030 Off ch=4 n=64 v=77
203036 On ch=4 n=44 v=81
203039 Off ch=4 n=49 v=81
203040 Off ch=4 n=59 v=67
203044 On ch=4 n=64 v=85
203272 Off ch=4 n=64 v=85
203275 Off ch=4 n=44 v=81
203280 On ch=4 n=64 v=86
203286 On ch=4 n=44 v=86
203287 On ch=4 n=59 v=75
203386 Off ch=4 n=64 v=86
203400 On ch=4 n=64 v=76
203511 Off ch=4 n=64 v=76
203528 On ch=4 n=64 v=84
203755 Off ch=4 n=59 v=75
203756 Off ch=4 n=64 v=84
203760 On ch=4 n=64 v=85
203763 On ch=4 n=59 v=64
203867 Off ch=4 n=64 v=85
203870 Off ch=4 n=59 v=64
203882 On ch=4 n=59 v=64
203884 On ch=4 n=64 v=75
203986 Off ch=4 n=64 v=75
204000 On ch=4 n=45 v=81
204004 Off ch=4 n=44 v=86
204004 On ch=4 n=64 v=85
204011 Off ch=4 n=59 v=64
204110 Off ch=4 n=45 v=81
204120 On ch=4 n=45 v=81
204234 Off ch=4 n=64 v=85
204234 Off ch=4 n=45 v=81
204240 On ch=4 n=64 v=85
204243 On ch=4 n=59 v=67
204244 On ch=4 n=45 v=80
204347 Off ch=4 n=64 v=85
204360 On ch=4 n=64 v=77
204470 Off ch=4 n=64 v=77
204472 On ch=4 n=47 v=81
204480 Off ch=4 n=59 v=67
204480 Off ch=4 n=45 v=80
204488 On ch=4 n=64 v=85
204716 Off ch=4 n=64 v=85
204720 On ch=4 n=64 v=85
204731 On ch=4 n=59 v=75
204826 Off ch=4 n=64 v=85
204840 On ch=4 n=64 v=74
204952 Off ch=4 n=47 v=81
204954 Off ch=4 n=64 v=74
204955 On ch=4 n=40 v=83
204964 On ch=4 n=64 v=84
204973 Off ch=4 n=59 v=75
205196 Off ch=4 n=64 v=84
205200 On ch=4 n=64 v=85
205210 On ch=4 n=59 v=64
205307 Off ch=4 n=64 v=85
205324 On ch=4 n=64 v=75
205426 Off ch=4 n=64 v=75
205439 Off ch=4 n=40 v=83
205440 On ch=4 n=47 v=79
205444 On ch=4 n=64 v=85
205446 Off ch=4 n=59 v=64
205560 On ch=4 n=49 v=81
205565 Off ch=4 n=47 v=79
205666 Off ch=4 n=49 v=81
205674 Off ch=4 n=64 v=85
205676 On ch=4 n=49 v=81
205680 On ch=4 n=64 v=85
205690 On ch=4 n=59 v=67
205787 Off ch=4 n=64 v=85
205800 On ch=4 n=64 v=77
205910 Off ch=4 n=64 v=77
205912 On ch=4 n=52 v=81
205919 Off ch=4 n=49 v=81
205920 Off ch=4 n=59 v=67
205928 On ch=4 n=64 v=85
206156 Off ch=4 n=64 v=85
206160 On ch=4 n=64 v=85
206171 On ch=4 n=59 v=75
206266 Off ch=4 n=64 v=85
206280 On ch=4 n=64 v=75
206392 Off ch=4 n=52 v=81
206394 Off ch=4 n=64 v=75
206399 On ch=4 n=40 v=83
206408 On ch=4 n=64 v=84
206413 Off ch=4 n=59 v=75
206636 Off ch=4 n=64 v=84
206640 On ch=4 n=64 v=85
206650 On ch=4 n=59 v=64
206755 Off ch=4 n=64 v=85
206764 On ch=4 n=64 v=75
206870 Off ch=4 n=64 v=75
206880 On ch=4 n=52 v=81
206883 Off ch=4 n=40 v=83
206886 Off ch=4 n=59 v=64
206888 On ch=4 n=64 v=82
207000 On ch=4 n=54 v=82
207001 On ch=4 n=66 v=86
207005 Off ch=4 n=52 v=81
207009 Off ch=4 n=64 v=82
207110 Off ch=4 n=66 v=86
207114 Off ch=4 n=54 v=82
207120 On ch=4 n=64 v=85
207120 On ch=4 n=54 v=80
207130 On ch=4 n=59 v=67
207227 Off ch=4 n=64 v=85
207240 On ch=4 n=64 v=77
207350 Off ch=4 n=64 v=77
207352 On ch=4 n=47 v=81
207359 Off ch=4 n=54 v=80
207360 Off ch=4 n=59 v=67
207368 On ch=4 n=64 v=85
207596 Off ch=4 n=64 v=85
207600 On ch=4 n=64 v=85
207611 On ch=4 n=59 v=75
207706 Off ch=4 n=64 v=85
207720 On ch=4 n=64 v=74
207832 Off ch=4 n=47 v=81
207834 Off ch=4 n=64 v=74
207835 On ch=4 n=40 v=83
207844 On ch=4 n=64 v=84
207853 Off ch=4 n=59 v=75
208076 Off ch=4 n=64 v=84
208080 On ch=4 n=64 v=85
208090 On ch=4 n=59 v=64
208187 Off ch=4 n=64 v=85
208204 On ch=4 n=64 v=75
208306 Off ch=4 n=64 v=75
208319 Off ch=4 n=40 v=83
208320 On ch=4 n=47 v=79
208324 On ch=4 n=64 v=85
208326 Off ch=4 n=59 v=64
208440 On ch=4 n=49 v=81
208445 Off ch=4 n=47 v=79
208546 Off ch=4 n=49 v=81
208554 Off ch=4 n=64 v=85
208556 On ch=4 n=49 v=81
208560 On ch=4 n=64 v=85
208570 On ch=4 n=59 v=67
208667 Off ch=4 n=64 v=85
208680 On ch=4 n=64 v=77
208790 Off ch=4 n=64 v=77
208796 On ch=4 n=44 v=81
208799 Off ch=4 n=49 v=81
208800 Off ch=4 n=59 v=67
208804 On ch=4 n=64 v=85
209032 Off ch=4 n=64 v=85
209035 Off ch=4 n=44 v=81
209040 On ch=4 n=64 v=86
209046 On ch=4 n=44 v=86
209047 On ch=4 n=59 v=75
209146 Off ch=4 n=64 v=86
209160 On ch=4 n=64 v=76
209271 Off ch=4 n=64 v=76
209288 On ch=4 n=64 v=84
209515 Off ch=4 n=59 v=75
209516 Off ch=4 n=64 v=84
209520 On ch=4 n=64 v=85
209523 On ch=4 n=59 v=64
209627 Off ch=4 n=64 v=85
209630 Off ch=4 n=59 v=64
209642 On ch=4 n=59 v=64
209644 On ch=4 n=64 v=75
209746 Off ch=4 n=64 v=75
209760 On ch=4 n=45 v=81
209764 Off ch=4 n=44 v=86
209764 On ch=4 n=64 v=85
209771 Off ch=4 n=59 v=64
209870 Off ch=4 n=45 v=81
209880 On ch=4 n=45 v=81
209994 Off ch=4 n=64 v=85
209994 Off ch=4 n=45 v=81
210000 On ch=4 n=64 v=85
210003 On ch=4 n=59 v=67
210004 On ch=4 n=45 v=80
210107 Off ch=4 n=64 v=85
210120 On ch=4 n=64 v=77
210230 Off ch=4 n=64 v=77
210232 On ch=4 n=47 v=81
210240 Off ch=4 n=59 v=67
210240 Off ch=4 n=45 v=80
210248 On ch=4 n=64 v=85
210476 Off ch=4 n=64 v=85
210480 On ch=4 n=64 v=85
210491 On ch=4 n=59 v=75
210586 Off ch=4 n=64 v=85
210600 On ch=4 n=64 v=74
210712 Off ch=4 n=47 v=81
210714 Off ch=4 n=64 v=74
210715 On ch=4 n=40 v=83
210724 On ch=4 n=64 v=84
210733 Off ch=4 n=59 v=75
210956 Off ch=4 n=64 v=84
210960 On ch=4 n=64 v=85
210970 On ch=4 n=59 v=64
211067 Off ch=4 n=64 v=85
211084 On ch=4 n=64 v=75
211186 Off ch=4 n=64 v=75
211199 Off ch=4 n=40 v=83
211200 On ch=4 n=47 v=79
211204 On ch=4 n=64 v=85
211206 Off ch=4 n=59 v=64
211320 On ch=4 n=49 v=81
211325 Off ch=4 n=47 v=79
211426 Off ch=4 n=49 v=81
211434 Off ch=4 n=64 v=85
211436 On ch=4 n=49 v=81
211440 On ch=4 n=64 v=85
211450 On ch=4 n=59 v=67
211547 Off ch=4 n=64 v=85
211560 On ch=4 n=64 v=77
211670 Off ch=4 n=64 v=77
211672 On ch=4 n=52 v=81
211679 Off ch=4 n=49 v=81
211680 Off ch=4 n=59 v=67
211688 On ch=4 n=64 v=85
211916 Off ch=4 n=64 v=85
211920 On ch=4 n=64 v=85
211931 On ch=4 n=59 v=75
212026 Off ch=4 n=64 v=85
212040 On ch=4 n=64 v=75
212152 Off ch=4 n=52 v=81
212154 Off ch=4 n=64 v=75
212159 On ch=4 n=40 v=83
212168 On ch=4 n=64 v=84
212173 Off ch=4 n=59 v=75
212396 Off ch=4 n=64 v=84
212400 On ch=4 n=64 v=85
212410 On ch=4 n=59 v=64
212515 Off ch=4 n=64 v=85
212524 On ch=4 n=64 v=75
212630 Off ch=4 n=64 v=75
212640 On ch=4 n=52 v=81
212643 Off ch=4 n=40 v=83
212646 Off ch=4 n=59 v=64
212648 On ch=4 n=64 v=82
212760 On ch=4 n=54 v=82
212761 On ch=4 n=66 v=86
212765 Off ch=4 n=52 v=81
212769 Off ch=4 n=64 v=82
212870 Off ch=4 n=66 v=86
212874 Off ch=4 n=54 v=82
212880 On ch=4 n=64 v=85
212880 On ch=4 n=54 v=80
212890 On ch=4 n=59 v=67
212987 Off ch=4 n=64 v=85
213000 On ch=4 n=64 v=77
213110 Off ch=4 n=64 v=77
213112 On ch=4 n=47 v=81
213119 Off ch=4 n=54 v=80
213120 Off ch=4 n=59 v=67
213128 On ch=4 n=64 v=85
213356 Off ch=4 n=64 v=85
213360 On ch=4 n=64 v=85
213371 On ch=4 n=59 v=75
213466 Off ch=4 n=64 v=85
213480 On ch=4 n=64 v=74
213592 Off ch=4 n=47 v=81
213594 Off ch=4 n=64 v=74
213595 On ch=4 n=40 v=83
213604 On ch=4 n=64 v=84
213613 Off ch=4 n=59 v=75
213836 Off ch=4 n=64 v=84
213840 On ch=4 n=64 v=85
213850 On ch=4 n=59 v=64
213947 Off ch=4 n=64 v=85
213964 On ch=4 n=64 v=75
214066 Off ch=4 n=64 v=75
214079 Off ch=4 n=40 v=83
214080 On ch=4 n=47 v=79
214084 On ch=4 n=64 v=85
214086 Off ch=4 n=59 v=64
214200 On ch=4 n=49 v=81
214205 Off ch=4 n=47 v=79
214306 Off ch=4 n=49 v=81
214314 Off ch=4 n=64 v=85
214316 On ch=4 n=49 v=81
214320 On ch=4 n=64 v=85
214330 On ch=4 n=59 v=67
214427 Off ch=4 n=64 v=85
214440 On ch=4 n=64 v=77
214550 Off ch=4 n=64 v=77
214556 On ch=4 n=44 v=81
214559 Off ch=4 n=49 v=81
214560 Off ch=4 n=59 v=67
214564 On ch=4 n=64 v=85
214792 Off ch=4 n=64 v=85
214795 Off ch=4 n=44 v=81
214800 On ch=4 n=64 v=86
214806 On ch=4 n=44 v=86
214807 On ch=4 n=59 v=75
214906 Off ch=4 n=64 v=86
214920 On ch=4 n=64 v=76
215031 Off ch=4 n=64 v=76
215048 On ch=4 n=64 v=84
215275 Off ch=4 n=59 v=75
215276 Off ch=4 n=64 v=84
215280 On ch=4 n=64 v=85
215283 On ch=4 n=59 v=64
215387 Off ch=4 n=64 v=85
215390 Off ch=4 n=59 v=64
215402 On ch=4 n=59 v=64
215404 On ch=4 n=64 v=75
215506 Off ch=4 n=64 v=75
215520 On ch=4 n=45 v=81
215524 Off ch=4 n=44 v=86
215524 On ch=4 n=64 v=85
215531 Off ch=4 n=59 v=64
215630 Off ch=4 n=45 v=81
215640 On ch=4 n=45 v=81
215754 Off ch=4 n=64 v=85
215754 Off ch=4 n=45 v=81
215760 On ch=4 n=64 v=85
215763 On ch=4 n=59 v=67
215764 On ch=4 n=45 v=80
215867 Off ch=4 n=64 v=85
215880 On ch=4 n=64 v=77
215990 Off ch=4 n=64 v=77
215992 On ch=4 n=47 v=81
216000 Off ch=4 n=59 v=67
216000 Off ch=4 n=45 v=80
216008 On ch=4 n=64 v=85
216236 Off ch=4 n=64 v=85
216240 On ch=4 n=64 v=85
216251 On ch=4 n=59 v=75
216346 Off ch=4 n=64 v=85
216360 On ch=4 n=64 v=74
216472 Off ch=4 n=47 v=81
216474 Off ch=4 n=64 v=74
216475 On ch=4 n=40 v=83
216484 On ch=4 n=64 v=84
216493 Off ch=4 n=59 v=75
216716 Off ch=4 n=64 v=84
216720 On ch=4 n=64 v=85
216730 On ch=4 n=59 v=64
216827 Off ch=4 n=64 v=85
216844 On ch=4 n=64 v=75
216946 Off ch=4 n=64 v=75
216959 Off ch=4 n=40 v=83
216960 On ch=4 n=47 v=79
216964 On ch=4 n=64 v=85
216966 Off ch=4 n=59 v=64
217080 On ch=4 n=49 v=81
217085 Off ch=4 n=47 v=79
217186 Off ch=4 n=49 v=81
217194 Off ch=4 n=64 v=85
217196 On ch=4 n=49 v=81
217200 On ch=4 n=64 v=85
217210 On ch=4 n=59 v=67
217307 Off ch=4 n=64 v=85
217320 On ch=4 n=64 v=77
217430 Off ch=4 n=64 v=77
217432 On ch=4 n=47 v=81
217439 Off ch=4 n=49 v=81
217440 Off ch=4 n=59 v=67
217448 On ch=4 n=64 v=85
217676 Off ch=4 n=64 v=85
217680 On ch=4 n=64 v=85
217691 On ch=4 n=59 v=75
217786 Off ch=4 n=64 v=85
217800 On ch=4 n=64 v=74
217912 Off ch=4 n=47 v=81
217914 Off ch=4 n=64 v=74
217915 On ch=4 n=40 v=83
217924 On ch=4 n=64 v=84
217933 Off ch=4 n=59 v=75
218156 Off ch=4 n=64 v=84
218160 On ch=4 n=64 v=85
218170 On ch=4 n=59 v=64
218267 Off ch=4 n=64 v=85
218284 On ch=4 n=64 v=75
218386 Off ch=4 n=64 v=75
218399 Off ch=4 n=40 v=83
218400 On ch=4 n=47 v=79
218404 On ch=4 n=64 v=85
218406 Off ch=4 n=59 v=64
218520 On ch=4 n=49 v=81
218525 Off ch=4 n=47 v=79
218626 Off ch=4 n=49 v=81
218634 Off ch=4 n=64 v=85
218636 On ch=4 n=49 v=81
218640 On ch=4 n=64 v=85
218650 On ch=4 n=59 v=67
218747 Off ch=4 n=64 v=85
218760 On ch=4 n=64 v=77
218870 Off ch=4 n=64 v=77
218872 On ch=4 n=42 v=81
218879 Off ch=4 n=49 v=81
218880 Off ch=4 n=59 v=67
218888 On ch=4 n=64 v=85
219116 Off ch=4 n=64 v=85
219120 On ch=4 n=64 v=85
219131 On ch=4 n=59 v=75
219226 Off ch=4 n=64 v=85
219240 On ch=4 n=64 v=74
219352 Off ch=4 n=42 v=81
219354 Off ch=4 n=64 v=74
219355 On ch=4 n=47 v=83
219364 On ch=4 n=64 v=84
219373 Off ch=4 n=59 v=75
219596 Off ch=4 n=64 v=84
219600 On ch=4 n=64 v=85
219610 On ch=4 n=59 v=64
219707 Off ch=4 n=64 v=85
219724 On ch=4 n=64 v=75
219826 Off ch=4 n=64 v=75
219831 Off ch=4 n=59 v=64
219832 On ch=4 n=57 v=99
219839 Off ch=4 n=47 v=83
219840 On ch=4 n=59 v=96
219850 On ch=4 n=64 v=105
219950 Off ch=4 n=64 v=105
219950 Off ch=4 n=59 v=96
219955 On ch=4 n=64 v=84
219960 On ch=4 n=59 v=80
219961 Off ch=4 n=57 v=99
219964 On ch=4 n=57 v=87
220070 Off ch=4 n=57 v=87
220076 Off ch=4 n=64 v=84
220076 On ch=4 n=57 v=101
220078 Off ch=4 n=59 v=80
220078 On ch=4 n=59 v=105
220084 On ch=4 n=64 v=93
220308 Off ch=4 n=59 v=105
220312 On ch=4 n=47 v=81
220319 Off ch=4 n=57 v=101
220320 Off ch=4 n=64 v=93
220328 On ch=4 n=64 v=85
220556 Off ch=4 n=64 v=85
220560 On ch=4 n=64 v=85
220571 On ch=4 n=59 v=75
220666 Off ch=4 n=64 v=85
220680 On ch=4 n=64 v=74
220792 Off ch=4 n=47 v=81
220794 Off ch=4 n=64 v=74
220799 On ch=4 n=40 v=83
220804 On ch=4 n=64 v=84
220813 Off ch=4 n=59 v=75
221036 Off ch=4 n=64 v=84
221040 On ch=4 n=64 v=85
221050 On ch=4 n=59 v=64
221147 Off ch=4 n=64 v=85
221164 On ch=4 n=64 v=75
221266 Off ch=4 n=64 v=75
221280 On ch=4 n=47 v=79
221283 Off ch=4 n=40 v=83
221284 On ch=4 n=64 v=85
221286 Off ch=4 n=59 v=64
221400 On ch=4 n=49 v=81
221405 Off ch=4 n=47 v=79
221506 Off ch=4 n=49 v=81
221514 Off ch=4 n=64 v=85
221516 On ch=4 n=49 v=81
221520 On ch=4 n=64 v=85
221530 On ch=4 n=59 v=67
221627 Off ch=4 n=64 v=85
221640 On ch=4 n=64 v=77
221750 Off ch=4 n=64 v=77
221752 On ch=4 n=42 v=81
221759 Off ch=4 n=49 v=81
221760 Off ch=4 n=59 v=67
221768 On ch=4 n=64 v=85
221996 Off ch=4 n=64 v=85
222000 On ch=4 n=64 v=85
222011 On ch=4 n=59 v=75
222106 Off ch=4 n=64 v=85
222120 On ch=4 n=64 v=74
222232 Off ch=4 n=42 v=81
222234 Off ch=4 n=64 v=74
222235 On ch=4 n=47 v=83
222244 On ch=4 n=64 v=84
222253 Off ch=4 n=59 v=75
222476 Off ch=4 n=64 v=84
222480 On ch=4 n=64 v=85
222490 On ch=4 n=59 v=64
222587 Off ch=4 n=64 v=85
222604 On ch=4 n=64 v=75
222706 Off ch=4 n=64 v=75
222712 On ch=4 n=49 v=99
222719 Off ch=4 n=47 v=83
222720 On ch=4 n=57 v=96
222726 Off ch=4 n=59 v=64
222726 On ch=4 n=64 v=105
222830 Off ch=4 n=57 v=96
222833 Off ch=4 n=64 v=105
222835 On ch=4 n=64 v=84
222840 On ch=4 n=57 v=80
222946 Off ch=4 n=49 v=99
222956 Off ch=4 n=64 v=84
222956 On ch=4 n=49 v=101
222958 Off ch=4 n=57 v=80
222958 On ch=4 n=57 v=105
222964 On ch=4 n=64 v=93
223188 Off ch=4 n=57 v=105
223192 On ch=4 n=52 v=81
223199 Off ch=4 n=49 v=101
223200 Off ch=4 n=64 v=93
223208 On ch=4 n=64 v=85
223436 Off ch=4 n=64 v=85
223440 On ch=4 n=64 v=85
223451 On ch=4 n=59 v=75
223546 Off ch=4 n=64 v=85
223560 On ch=4 n=64 v=75
223672 Off ch=4 n=52 v=81
223674 Off ch=4 n=64 v=75
223679 On ch=4 n=40 v=83
223688 On ch=4 n=64 v=84
223693 Off ch=4 n=59 v=75
223916 Off ch=4 n=64 v=84
223920 On ch=4 n=64 v=85
223930 On ch=4 n=59 v=64
224035 Off ch=4 n=64 v=85
224044 On ch=4 n=64 v=75
224150 Off ch=4 n=64 v=75
224160 On ch=4 n=52 v=81
224163 Off ch=4 n=40 v=83
224166 Off ch=4 n=59 v=64
224168 On ch=4 n=64 v=82
224280 On ch=4 n=54 v=82
224281 On ch=4 n=66 v=86
224285 Off ch=4 n=52 v=81
224289 Off ch=4 n=64 v=82
224390 Off ch=4 n=66 v=86
224394 Off ch=4 n=54 v=82
224400 On ch=4 n=64 v=85
224400 On ch=4 n=54 v=80
224410 On ch=4 n=59 v=67
224507 Off ch=4 n=64 v=85
224520 On ch=4 n=64 v=77
224630 Off ch=4 n=64 v=77
224632 On ch=4 n=47 v=81
224639 Off ch=4 n=54 v=80
224640 Off ch=4 n=59 v=67
224648 On ch=4 n=64 v=85
224876 Off ch=4 n=64 v=85
224880 On ch=4 n=64 v=85
224891 On ch=4 n=59 v=75
224986 Off ch=4 n=64 v=85
225000 On ch=4 n=64 v=74
225112 Off ch=4 n=47 v=81
225114 Off ch=4 n=64 v=74
225115 On ch=4 n=40 v=83
225124 On ch=4 n=64 v=84
225133 Off ch=4 n=59 v=75
225356 Off ch=4 n=64 v=84
225360 On ch=4 n=64 v=85
225370 On ch=4 n=59 v=64
225467 Off ch=4 n=64 v=85
225484 On ch=4 n=64 v=75
225586 Off ch=4 n=64 v=75
225599 Off ch=4 n=40 v=83
225600 On ch=4 n=47 v=79
225604 On ch=4 n=64 v=85
225606 Off ch=4 n=59 v=64
225720 On ch=4 n=49 v=81
225725 Off ch=4 n=47 v=79
225826 Off ch=4 n=49 v=81
225834 Off ch=4 n=64 v=85
225836 On ch=4 n=49 v=81
225840 On ch=4 n=64 v=85
225850 On ch=4 n=59 v=67
225947 Off ch=4 n=64 v=85
225960 On ch=4 n=64 v=77
226070 Off ch=4 n=64 v=77
226079 Off ch=4 n=49 v=81
226080 Off ch=4 n=59 v=67
226080 Par ch=4 c=7 v=92
226080 PrCh ch=4 p=27
226081 On ch=4 n=61 v=104
226364 Off ch=4 n=61 v=104
226563 On ch=4 n=64 v=107
226811 Off ch=4 n=64 v=107
227029 Pb ch=4 v=2458
227040 Pb ch=4 v=3160
227044 On ch=4 n=66 v=107
227051 Pb ch=4 v=4330
227062 Pb ch=4 v=6085
227074 Pb ch=4 v=8192
227281 Off ch=4 n=66 v=107
227281 On ch=4 n=71 v=80
227404 Off ch=4 n=71 v=80
227525 On ch=4 n=68 v=107
227794 Off ch=4 n=68 v=107
228011 On ch=4 n=63 v=107
228251 Off ch=4 n=63 v=107
228494 On ch=4 n=56 v=110
228671 Pb ch=4 v=8074
228681 Pb ch=4 v=7606
228693 Pb ch=4 v=7021
228704 Pb ch=4 v=6202
228716 Pb ch=4 v=5266
228727 Pb ch=4 v=4447
228739 Pb ch=4 v=3511
228749 Pb ch=4 v=2809
228760 Pb ch=4 v=1990
228769 Off ch=4 n=56 v=110
228772 Pb ch=4 v=1171
228784 Pb ch=4 v=469
228795 Pb ch=4 v=235
228840 Pb ch=4 v=8192
228960 PrCh ch=4 p=27
228961 On ch=4 n=61 v=80
229244 Off ch=4 n=61 v=80
229443 On ch=4 n=64 v=80
229691 Off ch=4 n=64 v=80
229909 Pb ch=4 v=2458
229920 Pb ch=4 v=3160
229924 On ch=4 n=66 v=80
229931 Pb ch=4 v=4330
229942 Pb ch=4 v=6085
229954 Pb ch=4 v=8192
230161 Off ch=4 n=66 v=80
230161 On ch=4 n=71 v=77
230284 Off ch=4 n=71 v=77
230405 On ch=4 n=66 v=80
230674 Off ch=4 n=66 v=80
230883 On ch=4 n=61 v=80
231123 Off ch=4 n=61 v=80
231363 On ch=4 n=54 v=80
231551 Pb ch=4 v=8074
231561 Pb ch=4 v=7606
231573 Pb ch=4 v=7021
231584 Pb ch=4 v=6202
231596 Pb ch=4 v=5266
231607 Pb ch=4 v=4447
231619 Pb ch=4 v=3511
231629 Pb ch=4 v=2809
231638 Off ch=4 n=54 v=80
231640 Pb ch=4 v=1990
231652 Pb ch=4 v=1171
231664 Pb ch=4 v=469
231675 Pb ch=4 v=235
231720 Pb ch=4 v=8192
231840 Par ch=4 c=7 v=64
231840 On ch=4 n=64 v=87
231840 On ch=4 n=56 v=87
231846 On ch=4 n=59 v=87
231945 Off ch=4 n=59 v=87
231956 Off ch=4 n=56 v=87
231973 Off ch=4 n=64 v=87
232565 On ch=4 n=64 v=85
232571 On ch=4 n=59 v=89
232576 On ch=4 n=56 v=82
232658 Off ch=4 n=56 v=82
232670 Off ch=4 n=59 v=89
232696 Off ch=4 n=64 v=85
232809 On ch=4 n=59 v=91
232812 On ch=4 n=56 v=97
232817 On ch=4 n=64 v=85
232876 Off ch=4 n=56 v=97
232879 Off ch=4 n=59 v=91
232898 Off ch=4 n=64 v=85
233048 On ch=4 n=64 v=84
233053 On ch=4 n=56 v=91
233054 On ch=4 n=59 v=89
233129 Off ch=4 n=56 v=91
233136 Off ch=4 n=59 v=89
233155 Off ch=4 n=64 v=84
233283 On ch=4 n=66 v=89
233287 On ch=4 n=61 v=99
233287 On ch=4 n=57 v=89
233387 Off ch=4 n=61 v=99
233387 Off ch=4 n=57 v=89
233395 Off ch=4 n=66 v=89
233991 On ch=4 n=66 v=81
233992 On ch=4 n=63 v=86
233994 On ch=4 n=59 v=88
234109 Off ch=4 n=59 v=88
234110 Off ch=4 n=66 v=81
234112 Off ch=4 n=63 v=86
234225 On ch=4 n=66 v=83
234226 On ch=4 n=63 v=88
234230 On ch=4 n=59 v=94
234328 Off ch=4 n=66 v=83
234329 Off ch=4 n=63 v=88
234335 Off ch=4 n=59 v=94
234345 On ch=4 n=66 v=83
234346 On ch=4 n=63 v=88
234350 On ch=4 n=59 v=94
234448 Off ch=4 n=66 v=83
234453 Off ch=4 n=63 v=88
234455 Off ch=4 n=59 v=94
234720 On ch=4 n=64 v=87
234720 On ch=4 n=56 v=87
234726 On ch=4 n=59 v=87
234825 Off ch=4 n=59 v=87
234836 Off ch=4 n=56 v=87
234853 Off ch=4 n=64 v=87
235434 On ch=4 n=56 v=82
235436 On ch=4 n=59 v=89
235445 On ch=4 n=64 v=85
235516 Off ch=4 n=56 v=82
235535 Off ch=4 n=59 v=89
235576 Off ch=4 n=64 v=85
235664 On ch=4 n=59 v=78
235665 On ch=4 n=56 v=69
235666 On ch=4 n=64 v=77
235739 Off ch=4 n=56 v=69
235748 Off ch=4 n=59 v=78
235769 Off ch=4 n=64 v=77
235917 On ch=4 n=56 v=76
235918 On ch=4 n=59 v=83
235919 On ch=4 n=64 v=82
235999 Off ch=4 n=56 v=76
236001 Off ch=4 n=59 v=83
236024 Off ch=4 n=64 v=82
236163 On ch=4 n=66 v=89
236167 On ch=4 n=57 v=88
236167 On ch=4 n=61 v=96
236259 Off ch=4 n=61 v=96
236267 Off ch=4 n=57 v=88
236275 Off ch=4 n=66 v=89
236871 On ch=4 n=66 v=81
236872 On ch=4 n=63 v=86
236874 On ch=4 n=59 v=88
236989 Off ch=4 n=59 v=88
236990 Off ch=4 n=66 v=81
236992 Off ch=4 n=63 v=86
237105 On ch=4 n=66 v=83
237106 On ch=4 n=63 v=88
237110 On ch=4 n=59 v=94
237208 Off ch=4 n=66 v=83
237209 Off ch=4 n=63 v=88
237215 Off ch=4 n=59 v=94
237225 On ch=4 n=66 v=83
237226 On ch=4 n=63 v=88
237230 On ch=4 n=59 v=94
237328 Off ch=4 n=66 v=83
237333 Off ch=4 n=63 v=88
237335 Off ch=4 n=59 v=94
237600 On ch=4 n=64 v=87
237600 On ch=4 n=56 v=87
237606 On ch=4 n=59 v=87
237705 Off ch=4 n=59 v=87
237716 Off ch=4 n=56 v=87
237733 Off ch=4 n=64 v=87
238325 On ch=4 n=64 v=85
238331 On ch=4 n=59 v=89
238336 On ch=4 n=56 v=82
238418 Off ch=4 n=56 v=82
238430 Off ch=4 n=59 v=89
238456 Off ch=4 n=64 v=85
238569 On ch=4 n=59 v=91
238572 On ch=4 n=56 v=97
238577 On ch=4 n=64 v=85
238636 Off ch=4 n=56 v=97
238639 Off ch=4 n=59 v=91
238658 Off ch=4 n=64 v=85
238808 On ch=4 n=64 v=84
238813 On ch=4 n=56 v=91
238814 On ch=4 n=59 v=89
238889 Off ch=4 n=56 v=91
238896 Off ch=4 n=59 v=89
238915 Off ch=4 n=64 v=84
239043 On ch=4 n=66 v=89
239047 On ch=4 n=61 v=99
239047 On ch=4 n=57 v=89
239147 Off ch=4 n=61 v=99
239147 Off ch=4 n=57 v=89
239155 Off ch=4 n=66 v=89
239751 On ch=4 n=66 v=81
239752 On ch=4 n=63 v=86
239754 On ch=4 n=59 v=88
239869 Off ch=4 n=59 v=88
239870 Off ch=4 n=66 v=81
239872 Off ch=4 n=63 v=86
239985 On ch=4 n=66 v=83
239986 On ch=4 n=63 v=88
239990 On ch=4 n=59 v=94
240088 Off ch=4 n=66 v=83
240089 Off ch=4 n=63 v=88
240095 Off ch=4 n=59 v=94
240105 On ch=4 n=66 v=83
240106 On ch=4 n=63 v=88
240110 On ch=4 n=59 v=94
240208 Off ch=4 n=66 v=83
240213 Off ch=4 n=63 v=88
240215 Off ch=4 n=59 v=94
240480 On ch=4 n=64 v=87
240480 On ch=4 n=56 v=87
240486 On ch=4 n=59 v=87
240585 Off ch=4 n=59 v=87
240596 Off ch=4 n=56 v=87
240613 Off ch=4 n=64 v=87
241194 On ch=4 n=56 v=82
241196 On ch=4 n=59 v=89
241205 On ch=4 n=64 v=85
241276 Off ch=4 n=56 v=82
241295 Off ch=4 n=59 v=89
241336 Off ch=4 n=64 v=85
241424 On ch=4 n=59 v=78
241425 On ch=4 n=56 v=69
241426 On ch=4 n=64 v=77
241499 Off ch=4 n=56 v=69
241508 Off ch=4 n=59 v=78
241529 Off ch=4 n=64 v=77
241677 On ch=4 n=56 v=76
241678 On ch=4 n=59 v=83
241679 On ch=4 n=64 v=82
241759 Off ch=4 n=56 v=76
241761 Off ch=4 n=59 v=83
241784 Off ch=4 n=64 v=82
241923 On ch=4 n=66 v=89
241927 On ch=4 n=57 v=88
241927 On ch=4 n=61 v=96
242019 Off ch=4 n=61 v=96
242027 Off ch=4 n=57 v=88
242035 Off ch=4 n=66 v=89
242631 On ch=4 n=66 v=81
242632 On ch=4 n=63 v=86
242634 On ch=4 n=59 v=88
242749 Off ch=4 n=59 v=88
242750 Off ch=4 n=66 v=81
242752 Off ch=4 n=63 v=86
242865 On ch=4 n=66 v=83
242866 On ch=4 n=63 v=88
242870 On ch=4 n=59 v=94
242968 Off ch=4 n=66 v=83
242969 Off ch=4 n=63 v=88
242975 Off ch=4 n=59 v=94
242985 On ch=4 n=66 v=83
242986 On ch=4 n=63 v=88
242990 On ch=4 n=59 v=94
243088 Off ch=4 n=66 v=83
243093 Off ch=4 n=63 v=88
243095 Off ch=4 n=59 v=94
243360 On ch=4 n=64 v=83
243360 On ch=4 n=56 v=90
243360 On ch=4 n=61 v=88
243496 Off ch=4 n=61 v=88
243501 Off ch=4 n=56 v=90
243520 Off ch=4 n=64 v=83
244082 On ch=4 n=61 v=84
244084 On ch=4 n=56 v=88
244085 On ch=4 n=64 v=81
244158 Off ch=4 n=61 v=84
244173 Off ch=4 n=64 v=81
244173 Off ch=4 n=56 v=88
244315 On ch=4 n=61 v=84
244318 On ch=4 n=64 v=82
244321 On ch=4 n=56 v=91
244397 Off ch=4 n=61 v=84
244406 Off ch=4 n=64 v=82
244419 Off ch=4 n=56 v=91
244549 On ch=4 n=56 v=87
244549 On ch=4 n=61 v=84
244557 On ch=4 n=64 v=76
244626 Off ch=4 n=64 v=76
244628 Off ch=4 n=61 v=84
244634 Off ch=4 n=56 v=87
244799 On ch=4 n=57 v=96
244801 On ch=4 n=66 v=89
244811 On ch=4 n=63 v=84
244912 Off ch=4 n=66 v=89
244914 Off ch=4 n=63 v=84
244924 Off ch=4 n=57 v=96
245525 On ch=4 n=66 v=82
245528 On ch=4 n=61 v=88
245530 On ch=4 n=57 v=94
245602 Off ch=4 n=66 v=82
245610 Off ch=4 n=61 v=88
245619 Off ch=4 n=57 v=94
245882 On ch=4 n=57 v=107
245887 On ch=4 n=66 v=99
245889 On ch=4 n=61 v=106
246085 Off ch=4 n=57 v=107
246112 Off ch=4 n=61 v=106
246138 Off ch=4 n=66 v=99
246240 On ch=4 n=64 v=83
246240 On ch=4 n=56 v=90
246240 On ch=4 n=61 v=88
246376 Off ch=4 n=61 v=88
246381 Off ch=4 n=56 v=90
246400 Off ch=4 n=64 v=83
246962 On ch=4 n=61 v=84
246964 On ch=4 n=56 v=88
246965 On ch=4 n=64 v=81
247038 Off ch=4 n=61 v=84
247053 Off ch=4 n=64 v=81
247053 Off ch=4 n=56 v=88
247195 On ch=4 n=61 v=84
247198 On ch=4 n=64 v=82
247201 On ch=4 n=56 v=91
247277 Off ch=4 n=61 v=84
247286 Off ch=4 n=64 v=82
247299 Off ch=4 n=56 v=91
247429 On ch=4 n=56 v=87
247429 On ch=4 n=61 v=84
247437 On ch=4 n=64 v=76
247506 Off ch=4 n=64 v=76
247508 Off ch=4 n=61 v=84
247514 Off ch=4 n=56 v=87
247679 On ch=4 n=57 v=96
247681 On ch=4 n=66 v=89
247691 On ch=4 n=63 v=84
247792 Off ch=4 n=66 v=89
247794 Off ch=4 n=63 v=84
247804 Off ch=4 n=57 v=96
248405 On ch=4 n=66 v=82
248408 On ch=4 n=61 v=88
248410 On ch=4 n=57 v=94
248482 Off ch=4 n=66 v=82
248490 Off ch=4 n=61 v=88
248499 Off ch=4 n=57 v=94
248762 On ch=4 n=57 v=107
248767 On ch=4 n=66 v=99
248769 On ch=4 n=61 v=106
248965 Off ch=4 n=57 v=107
248992 Off ch=4 n=61 v=106
249018 Off ch=4 n=66 v=99
249120 On ch=4 n=64 v=83
249120 On ch=4 n=56 v=90
249120 On ch=4 n=61 v=88
249256 Off ch=4 n=61 v=88
249261 Off ch=4 n=56 v=90
249280 Off ch=4 n=64 v=83
249842 On ch=4 n=61 v=84
249844 On ch=4 n=56 v=88
249845 On ch=4 n=64 v=81
249918 Off ch=4 n=61 v=84
249933 Off ch=4 n=64 v=81
249933 Off ch=4 n=56 v=88
250075 On ch=4 n=61 v=84
250078 On ch=4 n=64 v=82
250081 On ch=4 n=56 v=91
250157 Off ch=4 n=61 v=84
250166 Off ch=4 n=64 v=82
250179 Off ch=4 n=56 v=91
250309 On ch=4 n=56 v=87
250309 On ch=4 n=61 v=84
250317 On ch=4 n=64 v=76
250386 Off ch=4 n=64 v=76
250388 Off ch=4 n=61 v=84
250394 Off ch=4 n=56 v=87
250559 On ch=4 n=57 v=96
250561 On ch=4 n=66 v=89
250571 On ch=4 n=63 v=84
250672 Off ch=4 n=66 v=89
250674 Off ch=4 n=63 v=84
250684 Off ch=4 n=57 v=96
251285 On ch=4 n=66 v=82
251288 On ch=4 n=61 v=88
251290 On ch=4 n=57 v=94
251362 Off ch=4 n=66 v=82
251370 Off ch=4 n=61 v=88
251379 Off ch=4 n=57 v=94
251642 On ch=4 n=57 v=107
251647 On ch=4 n=66 v=99
251649 On ch=4 n=61 v=106
251845 Off ch=4 n=57 v=107
251872 Off ch=4 n=61 v=106
251898 Off ch=4 n=66 v=99
252000 On ch=4 n=64 v=83
252000 On ch=4 n=56 v=90
252000 On ch=4 n=61 v=88
252136 Off ch=4 n=61 v=88
252141 Off ch=4 n=56 v=90
252160 Off ch=4 n=64 v=83
252722 On ch=4 n=61 v=84
252724 On ch=4 n=56 v=88
252725 On ch=4 n=64 v=81
252798 Off ch=4 n=61 v=84
252813 Off ch=4 n=64 v=81
252813 Off ch=4 n=56 v=88
252955 On ch=4 n=61 v=84
252958 On ch=4 n=64 v=82
252961 On ch=4 n=56 v=91
253037 Off ch=4 n=61 v=84
253046 Off ch=4 n=64 v=82
253059 Off ch=4 n=56 v=91
253189 On ch=4 n=56 v=87
253189 On ch=4 n=61 v=84
253197 On ch=4 n=64 v=76
253266 Off ch=4 n=64 v=76
253268 Off ch=4 n=61 v=84
253274 Off ch=4 n=56 v=87
253439 On ch=4 n=57 v=96
253441 On ch=4 n=66 v=89
253451 On ch=4 n=63 v=84
253552 Off ch=4 n=66 v=89
253554 Off ch=4 n=63 v=84
253564 Off ch=4 n=57 v=96
254165 On ch=4 n=66 v=82
254168 On ch=4 n=61 v=88
254170 On ch=4 n=57 v=94
254242 Off ch=4 n=66 v=82
254250 Off ch=4 n=61 v=88
254259 Off ch=4 n=57 v=94
254522 On ch=4 n=57 v=107
254527 On ch=4 n=66 v=99
254529 On ch=4 n=61 v=106
254725 Off ch=4 n=57 v=107
254752 Off ch=4 n=61 v=106
254778 Off ch=4 n=66 v=99
254884 On ch=4 n=68 v=91
254887 On ch=4 n=71 v=80
254899 On ch=4 n=64 v=73
254994 Off ch=4 n=64 v=73
255008 Off ch=4 n=68 v=91
255021 Off ch=4 n=71 v=80
255229 On ch=4 n=71 v=79
255230 On ch=4 n=68 v=89
255235 On ch=4 n=64 v=80
255329 Off ch=4 n=64 v=80
255333 Off ch=4 n=68 v=89
255349 Off ch=4 n=71 v=79
255597 On ch=4 n=68 v=85
255598 On ch=4 n=71 v=83
255602 On ch=4 n=64 v=80
255693 Off ch=4 n=64 v=80
255698 Off ch=4 n=68 v=85
255717 Off ch=4 n=71 v=83
255959 On ch=4 n=66 v=87
255960 On ch=4 n=69 v=85
255963 On ch=4 n=64 v=80
256052 Off ch=4 n=64 v=80
256068 Off ch=4 n=66 v=87
256076 Off ch=4 n=69 v=85
256329 On ch=4 n=66 v=82
256330 On ch=4 n=71 v=81
256331 On ch=4 n=63 v=82
256436 Off ch=4 n=66 v=82
256445 Off ch=4 n=63 v=82
256462 Off ch=4 n=71 v=81
256685 On ch=4 n=66 v=87
256686 On ch=4 n=63 v=78
256690 On ch=4 n=71 v=88
256782 Off ch=4 n=71 v=88
256787 Off ch=4 n=63 v=78
256788 Off ch=4 n=66 v=87
257039 On ch=4 n=66 v=85
257040 On ch=4 n=63 v=78
257043 On ch=4 n=71 v=90
257132 Off ch=4 n=66 v=85
257139 Off ch=4 n=63 v=78
257149 Off ch=4 n=71 v=90
257397 On ch=4 n=64 v=97
257398 On ch=4 n=61 v=82
257401 On ch=4 n=69 v=91
257495 Off ch=4 n=61 v=82
257505 Off ch=4 n=64 v=97
257522 Off ch=4 n=69 v=91
257764 On ch=4 n=68 v=91
257767 On ch=4 n=71 v=80
257779 On ch=4 n=64 v=73
257874 Off ch=4 n=64 v=73
257888 Off ch=4 n=68 v=91
257901 Off ch=4 n=71 v=80
258109 On ch=4 n=71 v=79
258110 On ch=4 n=68 v=89
258115 On ch=4 n=64 v=80
258209 Off ch=4 n=64 v=80
258213 Off ch=4 n=68 v=89
258229 Off ch=4 n=71 v=79
258477 On ch=4 n=68 v=85
258478 On ch=4 n=71 v=83
258482 On ch=4 n=64 v=80
258573 Off ch=4 n=64 v=80
258578 Off ch=4 n=68 v=85
258597 Off ch=4 n=71 v=83
258839 On ch=4 n=66 v=87
258840 On ch=4 n=69 v=85
258843 On ch=4 n=64 v=80
258932 Off ch=4 n=64 v=80
258948 Off ch=4 n=66 v=87
258956 Off ch=4 n=69 v=85
259209 On ch=4 n=66 v=82
259210 On ch=4 n=71 v=81
259211 On ch=4 n=63 v=82
259316 Off ch=4 n=66 v=82
259325 Off ch=4 n=63 v=82
259342 Off ch=4 n=71 v=81
259565 On ch=4 n=66 v=87
259566 On ch=4 n=63 v=78
259570 On ch=4 n=71 v=88
259662 Off ch=4 n=71 v=88
259667 Off ch=4 n=63 v=78
259668 Off ch=4 n=66 v=87
259919 On ch=4 n=66 v=85
259920 On ch=4 n=63 v=78
259923 On ch=4 n=71 v=90
260012 Off ch=4 n=66 v=85
260019 Off ch=4 n=63 v=78
260029 Off ch=4 n=71 v=90
260277 On ch=4 n=64 v=97
260278 On ch=4 n=61 v=82
260281 On ch=4 n=69 v=91
260375 Off ch=4 n=61 v=82
260385 Off ch=4 n=64 v=97
260402 Off ch=4 n=69 v=91
260647 On ch=4 n=68 v=89
260654 On ch=4 n=71 v=94
260654 On ch=4 n=64 v=85
260754 Off ch=4 n=64 v=85
260761 Off ch=4 n=68 v=89
260765 Off ch=4 n=71 v=94
260998 On ch=4 n=68 v=84
261001 On ch=4 n=71 v=80
261001 On ch=4 n=64 v=79
261096 Off ch=4 n=68 v=84
261097 Off ch=4 n=64 v=79
261115 Off ch=4 n=71 v=80
261360 On ch=4 n=68 v=87
261362 On ch=4 n=71 v=83
261366 On ch=4 n=64 v=80
261465 Off ch=4 n=64 v=80
261467 Off ch=4 n=68 v=87
261475 Off ch=4 n=71 v=83
261725 On ch=4 n=66 v=81
261726 On ch=4 n=64 v=87
261727 On ch=4 n=69 v=90
261830 Off ch=4 n=64 v=87
261835 Off ch=4 n=66 v=81
261837 Off ch=4 n=69 v=90
262082 On ch=4 n=66 v=78
262086 On ch=4 n=63 v=79
262088 On ch=4 n=71 v=80
262191 Off ch=4 n=63 v=79
262194 Off ch=4 n=66 v=78
262209 Off ch=4 n=71 v=80
262435 On ch=4 n=63 v=79
262436 On ch=4 n=71 v=90
262436 On ch=4 n=66 v=82
262525 Off ch=4 n=66 v=82
262531 Off ch=4 n=71 v=90
262536 Off ch=4 n=63 v=79
262794 On ch=4 n=71 v=87
262794 On ch=4 n=63 v=82
262794 On ch=4 n=66 v=85
262865 Off ch=4 n=66 v=85
262870 Off ch=4 n=63 v=82
262888 Off ch=4 n=71 v=87
263276 On ch=4 n=63 v=95
263276 On ch=4 n=66 v=104
263276 On ch=4 n=71 v=100
263387 Off ch=4 n=71 v=100
263392 Off ch=4 n=66 v=104
263399 Off ch=4 n=63 v=95
263518 On ch=4 n=63 v=91
263519 On ch=4 n=71 v=97
263519 On ch=4 n=66 v=99
263589 Off ch=4 n=66 v=99
263589 Off ch=4 n=63 v=91
263590 Off ch=4 n=71 v=97
263760 On ch=4 n=71 v=108
263760 On ch=4 n=64 v=100
263760 On ch=4 n=68 v=116
264629 Off ch=4 n=68 v=116
264632 Off ch=4 n=64 v=100
264636 Off ch=4 n=71 v=108
266760 PrCh ch=4 p=25
287981 On ch=4 n=59 v=111
287988 On ch=4 n=66 v=111
288002 On ch=4 n=71 v=107
288019 On ch=4 n=75 v=109
288039 On ch=4 n=78 v=104
288701 Off ch=4 n=66 v=111
288701 Off ch=4 n=71 v=107
288703 Off ch=4 n=75 v=109
288706 Off ch=4 n=78 v=104
288721 On ch=4 n=66 v=79
288721 On ch=4 n=75 v=71
288723 Off ch=4 n=59 v=111
288723 On ch=4 n=78 v=93
288724 On ch=4 n=71 v=46
288726 On ch=4 n=59 v=61
288756 Off ch=4 n=59 v=61
288758 Off ch=4 n=71 v=46
288763 Off ch=4 n=66 v=79
288763 Off ch=4 n=75 v=71
288763 Off ch=4 n=78 v=93
288948 On ch=4 n=58 v=104
288955 On ch=4 n=66 v=106
288962 On ch=4 n=70 v=104
288968 On ch=4 n=75 v=106
288973 On ch=4 n=78 v=103
289181 Off ch=4 n=58 v=104
289185 Off ch=4 n=66 v=106
289185 Off ch=4 n=75 v=106
289186 Off ch=4 n=70 v=104
289195 Off ch=4 n=78 v=103
289198 On ch=4 n=75 v=85
289201 On ch=4 n=66 v=79
289203 On ch=4 n=78 v=93
289204 On ch=4 n=70 v=46
289206 On ch=4 n=58 v=61
289236 Off ch=4 n=58 v=61
289238 Off ch=4 n=70 v=46
289243 Off ch=4 n=66 v=79
289243 Off ch=4 n=78 v=93
289315 Off ch=4 n=75 v=85
289325 On ch=4 n=73 v=72
289358 Off ch=4 n=73 v=72
289428 On ch=4 n=56 v=104
289435 On ch=4 n=68 v=106
289440 KeySig 2 major
289442 On ch=4 n=71 v=104
289448 On ch=4 n=75 v=106
289661 Off ch=4 n=56 v=104
289665 Off ch=4 n=75 v=106
289665 Off ch=4 n=68 v=106
289666 Off ch=4 n=71 v=104
289681 On ch=4 n=68 v=79
289682 On ch=4 n=75 v=87
289684 On ch=4 n=71 v=46
289686 On ch=4 n=56 v=61
289716 Off ch=4 n=56 v=61
289718 Off ch=4 n=71 v=46
289723 Off ch=4 n=68 v=79
289803 On ch=4 n=73 v=65
289810 Off ch=4 n=75 v=87
289829 Off ch=4 n=73 v=65
289908 On ch=4 n=56 v=104
289915 On ch=4 n=68 v=106
289922 On ch=4 n=71 v=104
289928 On ch=4 n=75 v=106
290141 Off ch=4 n=56 v=104
290145 Off ch=4 n=75 v=106
290145 Off ch=4 n=68 v=106
290146 Off ch=4 n=71 v=104
290159 On ch=4 n=75 v=94
290161 On ch=4 n=68 v=79
290164 On ch=4 n=71 v=46
290166 On ch=4 n=56 v=61
290196 Off ch=4 n=56 v=61
290198 Off ch=4 n=71 v=46
290203 Off ch=4 n=68 v=79
290279 On ch=4 n=73 v=46
290281 Off ch=4 n=75 v=94
290312 Off ch=4 n=73 v=46
290388 On ch=4 n=52 v=104
290395 On ch=4 n=68 v=106
290402 On ch=4 n=71 v=104
290408 On ch=4 n=76 v=106
290621 Off ch=4 n=52 v=104
290625 Off ch=4 n=76 v=106
290625 Off ch=4 n=68 v=106
290626 Off ch=4 n=71 v=104
290641 On ch=4 n=68 v=79
290642 On ch=4 n=76 v=86
290644 On ch=4 n=71 v=46
290646 On ch=4 n=52 v=61
290676 Off ch=4 n=52 v=61
290678 Off ch=4 n=71 v=46
290683 Off ch=4 n=68 v=79
290758 On ch=4 n=73 v=65
290760 Off ch=4 n=76 v=86
290791 Off ch=4 n=73 v=65
290868 On ch=4 n=59 v=124
290882 On ch=4 n=71 v=124
290888 On ch=4 n=75 v=126
290893 On ch=4 n=78 v=123
291104 Off ch=4 n=78 v=123
291105 Off ch=4 n=75 v=126
291106 Off ch=4 n=71 v=124
291110 On ch=4 n=78 v=95
291116 Off ch=4 n=59 v=124
291118 On ch=4 n=75 v=84
291123 On ch=4 n=71 v=90
291133 On ch=4 n=59 v=95
291219 Off ch=4 n=59 v=95
291229 Off ch=4 n=75 v=84
291229 Off ch=4 n=71 v=90
291231 On ch=4 n=59 v=96
291235 Off ch=4 n=78 v=95
291240 On ch=4 n=71 v=87
291247 On ch=4 n=75 v=90
291253 On ch=4 n=78 v=90
291459 Off ch=4 n=78 v=90
291470 Off ch=4 n=75 v=90
291470 On ch=4 n=78 v=95
291477 Off ch=4 n=71 v=87
291478 On ch=4 n=75 v=84
291483 On ch=4 n=71 v=90
291485 Off ch=4 n=59 v=96
291493 On ch=4 n=59 v=95
291579 Off ch=4 n=59 v=95
291588 On ch=4 n=59 v=104
291589 Off ch=4 n=75 v=84
291589 Off ch=4 n=71 v=90
291595 Off ch=4 n=78 v=95
291602 On ch=4 n=71 v=104
291608 On ch=4 n=75 v=106
291613 On ch=4 n=78 v=103
291712 Off ch=4 n=75 v=106
291716 Off ch=4 n=59 v=104
291716 Off ch=4 n=71 v=104
291720 Off ch=4 n=78 v=103
291721 On ch=4 n=75 v=58
291723 On ch=4 n=78 v=80
291724 On ch=4 n=71 v=33
291726 On ch=4 n=59 v=48
291756 Off ch=4 n=59 v=48
291758 Off ch=4 n=71 v=33
291763 Off ch=4 n=78 v=80
291763 Off ch=4 n=75 v=58
291844 On ch=4 n=73 v=100
291852 On ch=4 n=76 v=99
291944 Off ch=4 n=73 v=100
291948 Off ch=4 n=76 v=99
291966 On ch=4 n=71 v=52
292031 Off ch=4 n=71 v=52
292080 On ch=4 n=75 v=100
292085 On ch=4 n=78 v=99
292165 Off ch=4 n=75 v=100
292182 Off ch=4 n=78 v=99
292199 On ch=4 n=71 v=56
292268 Off ch=4 n=71 v=56
292308 On ch=4 n=59 v=104
292315 On ch=4 n=66 v=106
292322 On ch=4 n=71 v=104
292328 On ch=4 n=75 v=106
292333 On ch=4 n=78 v=103
292541 Off ch=4 n=59 v=104
292545 Off ch=4 n=66 v=106
292545 Off ch=4 n=75 v=106
292546 Off ch=4 n=71 v=104
292555 Off ch=4 n=78 v=103
292561 On ch=4 n=66 v=76
292561 On ch=4 n=75 v=68
292563 On ch=4 n=78 v=90
292564 On ch=4 n=71 v=43
292566 On ch=4 n=59 v=58
292596 Off ch=4 n=59 v=58
292598 Off ch=4 n=71 v=43
292603 Off ch=4 n=66 v=76
292603 Off ch=4 n=75 v=68
292603 Off ch=4 n=78 v=90
292788 On ch=4 n=59 v=104
292795 On ch=4 n=66 v=106
292802 On ch=4 n=71 v=104
292808 On ch=4 n=75 v=106
292813 On ch=4 n=78 v=103
293021 Off ch=4 n=59 v=104
293025 Off ch=4 n=66 v=106
293025 Off ch=4 n=75 v=106
293026 Off ch=4 n=71 v=104
293035 Off ch=4 n=78 v=103
293041 On ch=4 n=66 v=79
293041 On ch=4 n=75 v=71
293043 On ch=4 n=78 v=93
293044 On ch=4 n=71 v=46
293046 On ch=4 n=59 v=61
293076 Off ch=4 n=59 v=61
293078 Off ch=4 n=71 v=46
293083 Off ch=4 n=66 v=79
293083 Off ch=4 n=75 v=71
293083 Off ch=4 n=78 v=93
293268 On ch=4 n=58 v=104
293275 On ch=4 n=66 v=106
293282 On ch=4 n=70 v=104
293288 On ch=4 n=75 v=106
293293 On ch=4 n=78 v=103
293501 Off ch=4 n=58 v=104
293505 Off ch=4 n=66 v=106
293505 Off ch=4 n=75 v=106
293506 Off ch=4 n=70 v=104
293515 Off ch=4 n=78 v=103
293518 On ch=4 n=75 v=85
293521 On ch=4 n=66 v=79
293523 On ch=4 n=78 v=93
293524 On ch=4 n=70 v=46
293526 On ch=4 n=58 v=61
293556 Off ch=4 n=58 v=61
293558 Off ch=4 n=70 v=46
293563 Off ch=4 n=66 v=79
293563 Off ch=4 n=78 v=93
293635 Off ch=4 n=75 v=85
293645 On ch=4 n=73 v=72
293678 Off ch=4 n=73 v=72
293748 On ch=4 n=56 v=104
293755 On ch=4 n=68 v=106
293762 On ch=4 n=71 v=104
293768 On ch=4 n=75 v=106
293981 Off ch=4 n=56 v=104
293985 Off ch=4 n=75 v=106
293985 Off ch=4 n=68 v=106
293986 Off ch=4 n=71 v=104
294001 On ch=4 n=68 v=79
294002 On ch=4 n=75 v=87
294004 On ch=4 n=71 v=46
294006 On ch=4 n=56 v=61
294036 Off ch=4 n=56 v=61
294038 Off ch=4 n=71 v=46
294043 Off ch=4 n=68 v=79
294123 On ch=4 n=73 v=65
294130 Off ch=4 n=75 v=87
294149 Off ch=4 n=73 v=65
294228 On ch=4 n=56 v=104
294235 On ch=4 n=68 v=106
294242 On ch=4 n=71 v=104
294248 On ch=4 n=75 v=106
294461 Off ch=4 n=56 v=104
294465 Off ch=4 n=75 v=106
294465 Off ch=4 n=68 v=106
294466 Off ch=4 n=71 v=104
294479 On ch=4 n=75 v=94
294481 On ch=4 n=68 v=79
294484 On ch=4 n=71 v=46
294486 On ch=4 n=56 v=61
294516 Off ch=4 n=56 v=61
294518 Off ch=4 n=71 v=46
294523 Off ch=4 n=68 v=79
294599 On ch=4 n=73 v=46
294601 Off ch=4 n=75 v=94
294632 Off ch=4 n=73 v=46
294708 On ch=4 n=52 v=104
294715 On ch=4 n=68 v=106
294722 On ch=4 n=71 v=104
294728 On ch=4 n=76 v=106
294941 Off ch=4 n=52 v=104
294945 Off ch=4 n=76 v=106
294945 Off ch=4 n=68 v=106
294946 Off ch=4 n=71 v=104
294961 On ch=4 n=68 v=79
294962 On ch=4 n=76 v=86
294964 On ch=4 n=71 v=46
294966 On ch=4 n=52 v=61
294996 Off ch=4 n=52 v=61
294998 Off ch=4 n=71 v=46
295003 Off ch=4 n=68 v=79
295078 On ch=4 n=73 v=65
295080 Off ch=4 n=76 v=86
295111 Off ch=4 n=73 v=65
295188 On ch=4 n=59 v=125
295202 On ch=4 n=71 v=124
295208 On ch=4 n=75 v=127
295213 On ch=4 n=78 v=124
295537 Off ch=4 n=59 v=125
295547 Off ch=4 n=71 v=124
295551 On ch=4 n=59 v=96
295557 Off ch=4 n=75 v=127
295560 On ch=4 n=71 v=87
295567 On ch=4 n=75 v=90
295568 Off ch=4 n=78 v=124
295573 On ch=4 n=78 v=90
295779 Off ch=4 n=78 v=90
295790 Off ch=4 n=75 v=90
295790 On ch=4 n=78 v=95
295797 Off ch=4 n=71 v=87
295798 On ch=4 n=75 v=84
295803 On ch=4 n=71 v=90
295805 Off ch=4 n=59 v=96
295813 On ch=4 n=59 v=95
295899 Off ch=4 n=59 v=95
295908 On ch=4 n=59 v=104
295909 Off ch=4 n=75 v=84
295909 Off ch=4 n=71 v=90
295915 Off ch=4 n=78 v=95
295922 On ch=4 n=71 v=104
295928 On ch=4 n=75 v=106
295933 On ch=4 n=78 v=103
296032 Off ch=4 n=75 v=106
296036 Off ch=4 n=59 v=104
296036 Off ch=4 n=71 v=104
296040 Off ch=4 n=78 v=103
296041 On ch=4 n=75 v=58
296043 On ch=4 n=78 v=80
296044 On ch=4 n=71 v=33
296046 On ch=4 n=59 v=48
296076 Off ch=4 n=59 v=48
296078 Off ch=4 n=71 v=33
296083 Off ch=4 n=78 v=80
296083 Off ch=4 n=75 v=58
296164 On ch=4 n=76 v=100
296172 On ch=4 n=80 v=99
296264 Off ch=4 n=76 v=100
296268 Off ch=4 n=80 v=99
296286 On ch=4 n=71 v=52
296351 Off ch=4 n=71 v=52
296400 On ch=4 n=75 v=100
296405 On ch=4 n=78 v=99
296485 Off ch=4 n=75 v=100
296502 Off ch=4 n=78 v=99
296519 On ch=4 n=71 v=56
296588 Off ch=4 n=71 v=56
296628 On ch=4 n=59 v=104
296635 On ch=4 n=66 v=106
296642 On ch=4 n=71 v=104
296648 On ch=4 n=75 v=106
296653 On ch=4 n=78 v=103
296861 Off ch=4 n=59 v=104
296865 Off ch=4 n=66 v=106
296865 Off ch=4 n=75 v=106
296866 Off ch=4 n=71 v=104
296875 Off ch=4 n=78 v=103
296881 On ch=4 n=66 v=76
296881 On ch=4 n=75 v=68
296883 On ch=4 n=78 v=90
296884 On ch=4 n=71 v=43
296886 On ch=4 n=59 v=58
296916 Off ch=4 n=59 v=58
296918 Off ch=4 n=71 v=43
296923 Off ch=4 n=66 v=76
296923 Off ch=4 n=75 v=68
296923 Off ch=4 n=78 v=90
297108 On ch=4 n=59 v=104
297115 On ch=4 n=66 v=106
297122 On ch=4 n=71 v=104
297128 On ch=4 n=75 v=106
297133 On ch=4 n=78 v=103
297341 Off ch=4 n=59 v=104
297345 Off ch=4 n=66 v=106
297345 Off ch=4 n=75 v=106
297346 Off ch=4 n=71 v=104
297355 Off ch=4 n=78 v=103
297361 On ch=4 n=66 v=79
297361 On ch=4 n=75 v=71
297363 On ch=4 n=78 v=93
297364 On ch=4 n=71 v=46
297366 On ch=4 n=59 v=61
297396 Off ch=4 n=59 v=61
297398 Off ch=4 n=71 v=46
297403 Off ch=4 n=66 v=79
297403 Off ch=4 n=75 v=71
297403 Off ch=4 n=78 v=93
297588 On ch=4 n=58 v=104
297595 On ch=4 n=66 v=106
297602 On ch=4 n=70 v=104
297608 On ch=4 n=75 v=106
297613 On ch=4 n=78 v=103
297821 Off ch=4 n=58 v=104
297825 Off ch=4 n=66 v=106
297825 Off ch=4 n=75 v=106
297826 Off ch=4 n=70 v=104
297835 Off ch=4 n=78 v=103
297838 On ch=4 n=75 v=85
297841 On ch=4 n=66 v=79
297843 On ch=4 n=78 v=93
297844 On ch=4 n=70 v=46
297846 On ch=4 n=58 v=61
297876 Off ch=4 n=58 v=61
297878 Off ch=4 n=70 v=46
297883 Off ch=4 n=66 v=79
297883 Off ch=4 n=78 v=93
297955 Off ch=4 n=75 v=85
297965 On ch=4 n=73 v=72
297998 Off ch=4 n=73 v=72
298068 On ch=4 n=56 v=104
298075 On ch=4 n=68 v=106
298082 On ch=4 n=71 v=104
298088 On ch=4 n=75 v=106
298301 Off ch=4 n=56 v=104
298305 Off ch=4 n=75 v=106
298305 Off ch=4 n=68 v=106
298306 Off ch=4 n=71 v=104
298321 On ch=4 n=68 v=79
298322 On ch=4 n=75 v=87
298324 On ch=4 n=71 v=46
298326 On ch=4 n=56 v=61
298356 Off ch=4 n=56 v=61
298358 Off ch=4 n=71 v=46
298363 Off ch=4 n=68 v=79
298443 On ch=4 n=73 v=65
298450 Off ch=4 n=75 v=87
298469 Off ch=4 n=73 v=65
298548 On ch=4 n=56 v=104
298555 On ch=4 n=68 v=106
298562 On ch=4 n=71 v=104
298568 On ch=4 n=75 v=106
298781 Off ch=4 n=56 v=104
298785 Off ch=4 n=75 v=106
298785 Off ch=4 n=68 v=106
298786 Off ch=4 n=71 v=104
298799 On ch=4 n=75 v=94
298801 On ch=4 n=68 v=79
298804 On ch=4 n=71 v=46
298806 On ch=4 n=56 v=61
298836 Off ch=4 n=56 v=61
298838 Off ch=4 n=71 v=46
298843 Off ch=4 n=68 v=79
298919 On ch=4 n=73 v=46
298921 Off ch=4 n=75 v=94
298952 Off ch=4 n=73 v=46
299028 On ch=4 n=52 v=104
299035 On ch=4 n=68 v=106
299042 On ch=4 n=71 v=104
299048 On ch=4 n=76 v=106
299261 Off ch=4 n=52 v=104
299265 Off ch=4 n=76 v=106
299265 Off ch=4 n=68 v=106
299266 Off ch=4 n=71 v=104
299281 On ch=4 n=68 v=79
299282 On ch=4 n=76 v=86
299284 On ch=4 n=71 v=46
299286 On ch=4 n=52 v=61
299316 Off ch=4 n=52 v=61
299318 Off ch=4 n=71 v=46
299323 Off ch=4 n=68 v=79
299398 On ch=4 n=73 v=65
299400 Off ch=4 n=76 v=86
299431 Off ch=4 n=73 v=65
299508 On ch=4 n=59 v=124
299520 KeySig 0 major
299522 On ch=4 n=71 v=124
299528 On ch=4 n=75 v=126
299533 On ch=4 n=78 v=123
299744 Off ch=4 n=78 v=123
299745 Off ch=4 n=75 v=126
299746 Off ch=4 n=71 v=124
299750 On ch=4 n=78 v=95
299756 Off ch=4 n=59 v=124
299758 On ch=4 n=75 v=84
299763 On ch=4 n=71 v=90
299773 On ch=4 n=59 v=95
299859 Off ch=4 n=59 v=95
299869 Off ch=4 n=75 v=84
299869 Off ch=4 n=71 v=90
299871 On ch=4 n=59 v=96
299875 Off ch=4 n=78 v=95
299880 On ch=4 n=71 v=87
299887 On ch=4 n=75 v=90
299893 On ch=4 n=78 v=90
300099 Off ch=4 n=78 v=90
300110 Off ch=4 n=75 v=90
300110 On ch=4 n=78 v=95
300117 Off ch=4 n=71 v=87
300118 On ch=4 n=75 v=84
300123 On ch=4 n=71 v=90
300125 Off ch=4 n=59 v=96
300133 On ch=4 n=59 v=95
300219 Off ch=4 n=59 v=95
300228 On ch=4 n=59 v=104
300229 Off ch=4 n=75 v=84
300229 Off ch=4 n=71 v=90
300235 Off ch=4 n=78 v=95
300242 On ch=4 n=71 v=104
300248 On ch=4 n=75 v=106
300253 On ch=4 n=78 v=103
300352 Off ch=4 n=75 v=106
300356 Off ch=4 n=59 v=104
300356 Off ch=4 n=71 v=104
300360 Off ch=4 n=78 v=103
300361 On ch=4 n=75 v=58
300363 On ch=4 n=78 v=80
300364 On ch=4 n=71 v=33
300366 On ch=4 n=59 v=48
300396 Off ch=4 n=59 v=48
300398 Off ch=4 n=71 v=33
300403 Off ch=4 n=78 v=80
300403 Off ch=4 n=75 v=58
300484 On ch=4 n=73 v=100
300492 On ch=4 n=76 v=99
300584 Off ch=4 n=73 v=100
300588 Off ch=4 n=76 v=99
300606 On ch=4 n=71 v=52
300671 Off ch=4 n=71 v=52
300720 On ch=4 n=75 v=100
300725 On ch=4 n=78 v=99
300805 Off ch=4 n=75 v=100
300822 Off ch=4 n=78 v=99
300839 On ch=4 n=71 v=56
300908 Off ch=4 n=71 v=56
300948 On ch=4 n=59 v=104
300955 On ch=4 n=66 v=106
300962 On ch=4 n=71 v=104
300968 On ch=4 n=75 v=106
300973 On ch=4 n=78 v=103
301181 Off ch=4 n=59 v=104
301185 Off ch=4 n=66 v=106
301185 Off ch=4 n=75 v=106
301186 Off ch=4 n=71 v=104
301195 Off ch=4 n=78 v=103
301201 On ch=4 n=66 v=76
301201 On ch=4 n=75 v=68
301203 On ch=4 n=78 v=90
301204 On ch=4 n=71 v=43
301206 On ch=4 n=59 v=58
301236 Off ch=4 n=59 v=58
301238 Off ch=4 n=71 v=43
301243 Off ch=4 n=66 v=76
301243 Off ch=4 n=75 v=68
301243 Off ch=4 n=78 v=90
301428 On ch=4 n=59 v=104
301435 On ch=4 n=66 v=106
301442 On ch=4 n=71 v=104
301448 On ch=4 n=75 v=106
301453 On ch=4 n=78 v=103
301661 Off ch=4 n=59 v=104
301665 Off ch=4 n=66 v=106
301665 Off ch=4 n=75 v=106
301666 Off ch=4 n=71 v=104
301675 Off ch=4 n=78 v=103
301681 On ch=4 n=66 v=79
301681 On ch=4 n=75 v=71
301683 On ch=4 n=78 v=93
301684 On ch=4 n=71 v=46
301686 On ch=4 n=59 v=61
301716 Off ch=4 n=59 v=61
301718 Off ch=4 n=71 v=46
301723 Off ch=4 n=66 v=79
301723 Off ch=4 n=75 v=71
301723 Off ch=4 n=78 v=93
301908 On ch=4 n=58 v=104
301915 On ch=4 n=66 v=106
301922 On ch=4 n=70 v=104
301928 On ch=4 n=75 v=106
301933 On ch=4 n=78 v=103
302141 Off ch=4 n=58 v=104
302145 Off ch=4 n=66 v=106
302145 Off ch=4 n=75 v=106
302146 Off ch=4 n=70 v=104
302155 Off ch=4 n=78 v=103
302158 On ch=4 n=75 v=85
302161 On ch=4 n=66 v=79
302163 On ch=4 n=78 v=93
302164 On ch=4 n=70 v=46
302166 On ch=4 n=58 v=61
302196 Off ch=4 n=58 v=61
302198 Off ch=4 n=70 v=46
302203 Off ch=4 n=66 v=79
302203 Off ch=4 n=78 v=93
302275 Off ch=4 n=75 v=85
302285 On ch=4 n=73 v=72
302318 Off ch=4 n=73 v=72
302388 On ch=4 n=56 v=104
302402 On ch=4 n=71 v=104
302408 On ch=4 n=75 v=106
302621 Off ch=4 n=56 v=104
302625 Off ch=4 n=75 v=106
302626 Off ch=4 n=71 v=104
302640 On ch=4 n=63 v=106
302641 On ch=4 n=68 v=79
302642 On ch=4 n=75 v=87
302644 On ch=4 n=71 v=46
302678 Off ch=4 n=71 v=46
302683 Off ch=4 n=68 v=79
302763 On ch=4 n=73 v=65
302770 Off ch=4 n=75 v=87
302789 Off ch=4 n=73 v=65
302868 On ch=4 n=56 v=104
302870 Off ch=4 n=63 v=106
302882 On ch=4 n=71 v=104
302888 On ch=4 n=75 v=106
303101 Off ch=4 n=56 v=104
303105 Off ch=4 n=75 v=106
303106 Off ch=4 n=71 v=104
303119 On ch=4 n=75 v=94
303120 On ch=4 n=63 v=106
303121 On ch=4 n=68 v=79
303124 On ch=4 n=71 v=46
303158 Off ch=4 n=71 v=46
303163 Off ch=4 n=68 v=79
303239 On ch=4 n=73 v=46
303241 Off ch=4 n=75 v=94
303272 Off ch=4 n=73 v=46
303350 Off ch=4 n=63 v=106
303352 On ch=4 n=58 v=104
303355 On ch=4 n=68 v=106
303362 On ch=4 n=71 v=104
303368 On ch=4 n=76 v=106
303585 Off ch=4 n=58 v=104
303585 Off ch=4 n=76 v=106
303585 Off ch=4 n=68 v=106
303586 Off ch=4 n=71 v=104
303601 On ch=4 n=68 v=79
303602 On ch=4 n=76 v=86
303604 On ch=4 n=71 v=46
303638 Off ch=4 n=71 v=46
303643 Off ch=4 n=68 v=79
303718 On ch=4 n=73 v=65
303720 Off ch=4 n=76 v=86
303751 Off ch=4 n=73 v=65
303798 On ch=4 n=59 v=111
303820 On ch=4 n=66 v=114
303842 On ch=4 n=71 v=107
303859 On ch=4 n=75 v=107
303879 On ch=4 n=78 v=104
304267 Off ch=4 n=59 v=111
304278 On ch=4 n=61 v=111
304283 Off ch=4 n=66 v=114
304290 Off ch=4 n=71 v=107
304300 On ch=4 n=68 v=112
304301 Off ch=4 n=75 v=107
304320 Off ch=4 n=78 v=104
304322 On ch=4 n=73 v=107
304343 On ch=4 n=76 v=107
304359 On ch=4 n=80 v=104
304758 On ch=4 n=52 v=114
304780 On ch=4 n=59 v=104
304789 Off ch=4 n=68 v=112
304796 Off ch=4 n=61 v=111
304798 On ch=4 n=64 v=102
304800 Off ch=4 n=80 v=104
304800 Off ch=4 n=73 v=107
304804 Off ch=4 n=76 v=107
304812 On ch=4 n=68 v=98
304823 On ch=4 n=71 v=106
304839 On ch=4 n=76 v=105
306709 Off ch=4 n=52 v=114
306712 Off ch=4 n=64 v=102
306712 Off ch=4 n=59 v=104
306713 Off ch=4 n=71 v=106
306715 Off ch=4 n=68 v=98
306716 Off ch=4 n=76 v=105
306720 Meta TrkEnd
TrkEnd
MTrk
0 Meta TrkName "Howe2"
0 Meta 0x20 04
0 Meta InstrName "Howe2"
0 KeySig 2 major
330 Par ch=5 c=0 v=0
335 Par ch=5 c=32 v=0
340 PrCh ch=5 p=29
345 Par ch=5 c=7 v=100
350 Par ch=5 c=10 v=64
355 Par ch=5 c=91 v=40
360 Par ch=5 c=93 v=0
365 Par ch=5 c=65 v=127
370 Par ch=5 c=101 v=0
370 Par ch=5 c=100 v=0
370 Par ch=5 c=6 v=2
375 Par ch=5 c=99 v=1
375 Par ch=5 c=98 v=8
375 Par ch=5 c=6 v=64
380 Par ch=5 c=99 v=1
380 Par ch=5 c=98 v=9
380 Par ch=5 c=6 v=64
385 Par ch=5 c=99 v=1
385 Par ch=5 c=98 v=10
385 Par ch=5 c=6 v=64
390 Par ch=5 c=99 v=1
390 Par ch=5 c=98 v=32
390 Par ch=5 c=6 v=64
395 Par ch=5 c=99 v=1
395 Par ch=5 c=98 v=33
395 Par ch=5 c=6 v=64
400 Par ch=5 c=99 v=1
400 Par ch=5 c=98 v=99
400 Par ch=5 c=6 v=64
405 Par ch=5 c=99 v=1
405 Par ch=5 c=98 v=100
405 Par ch=5 c=6 v=64
410 Par ch=5 c=99 v=1
410 Par ch=5 c=98 v=102
410 Par ch=5 c=6 v=64
106080 KeySig 3 major
118560 KeySig 0 major
128640 On ch=5 n=67 v=1
128758 Off ch=5 n=67 v=1
129120 Par ch=5 c=5 v=0
129120 Par ch=5 c=1 v=40
129480 Par ch=5 c=5 v=64
129584 On ch=5 n=67 v=127
130080 Off ch=5 n=67 v=127
130093 On ch=5 n=71 v=112
130440 Par ch=5 c=5 v=13
130547 On ch=5 n=64 v=112
130559 Off ch=5 n=71 v=112
130560 Par ch=5 c=5 v=44
130722 On ch=5 n=68 v=119
130734 Off ch=5 n=64 v=112
130886 On ch=5 n=71 v=115
130891 Off ch=5 n=68 v=119
131044 Off ch=5 n=71 v=115
131048 On ch=5 n=71 v=114
132000 Off ch=5 n=71 v=114
132000 Par ch=5 c=5 v=0
132020 On ch=5 n=76 v=110
132024 Par ch=5 c=5 v=40
132074 On ch=5 n=74 v=110
132076 Off ch=5 n=76 v=110
132134 On ch=5 n=76 v=100
132136 Off ch=5 n=74 v=110
132724 Off ch=5 n=76 v=100
132729 On ch=5 n=76 v=102
132959 Off ch=5 n=76 v=102
132966 On ch=5 n=79 v=102
133195 On ch=5 n=76 v=106
133198 Off ch=5 n=79 v=102
133313 Off ch=5 n=76 v=106
133320 Par ch=5 c=5 v=0
133320 On ch=5 n=71 v=101
133440 Par ch=5 c=5 v=40
133679 Off ch=5 n=71 v=101
133681 On ch=5 n=67 v=110
133920 Off ch=5 n=67 v=110
133924 On ch=5 n=71 v=102
133965 On ch=5 n=69 v=98
133982 Off ch=5 n=71 v=102
134025 Off ch=5 n=69 v=98
134029 On ch=5 n=71 v=91
134632 Off ch=5 n=71 v=91
134637 On ch=5 n=69 v=110
134756 On ch=5 n=71 v=112
134761 Off ch=5 n=69 v=110
134863 Off ch=5 n=71 v=112
134873 On ch=5 n=66 v=104
134927 Off ch=5 n=66 v=104
134933 On ch=5 n=64 v=90
134997 On ch=5 n=66 v=110
135004 Off ch=5 n=64 v=90
135593 Off ch=5 n=66 v=110
135601 On ch=5 n=66 v=119
135840 Off ch=5 n=66 v=119
135856 On ch=5 n=78 v=113
136200 Par ch=5 c=5 v=13
136306 Off ch=5 n=78 v=113
136312 On ch=5 n=71 v=112
136320 Par ch=5 c=5 v=40
136487 Off ch=5 n=71 v=112
136488 On ch=5 n=75 v=116
136632 Off ch=5 n=75 v=116
136637 On ch=5 n=78 v=124
136793 Off ch=5 n=78 v=124
136800 On ch=5 n=78 v=119
137752 On ch=5 n=83 v=117
137760 Off ch=5 n=78 v=119
137811 On ch=5 n=81 v=104
137812 Off ch=5 n=83 v=117
137869 Off ch=5 n=81 v=104
137871 On ch=5 n=83 v=112
138471 Off ch=5 n=83 v=112
138481 On ch=5 n=83 v=102
138698 Off ch=5 n=83 v=102
138720 Par ch=5 c=5 v=70
138729 On ch=5 n=86 v=120
138916 Par ch=5 c=5 v=60
138945 On ch=5 n=81 v=102
138972 On ch=5 n=83 v=122
138978 Off ch=5 n=81 v=102
138980 Off ch=5 n=86 v=120
139181 On ch=5 n=76 v=85
139204 On ch=5 n=78 v=116
139214 Off ch=5 n=83 v=122
139224 Off ch=5 n=76 v=85
139429 On ch=5 n=72 v=110
139432 Off ch=5 n=78 v=116
139444 On ch=5 n=74 v=112
139462 Off ch=5 n=72 v=110
139680 Off ch=5 n=74 v=112
139680 Par ch=5 c=5 v=0
139688 On ch=5 n=78 v=127
139736 Par ch=5 c=5 v=40
139740 On ch=5 n=76 v=111
139750 Off ch=5 n=78 v=127
139799 On ch=5 n=78 v=121
139810 Off ch=5 n=76 v=111
140399 Off ch=5 n=78 v=121
140406 On ch=5 n=76 v=109
140502 On ch=5 n=78 v=113
140505 Off ch=5 n=76 v=109
140636 On ch=5 n=71 v=120
140641 Off ch=5 n=78 v=113
140791 On ch=5 n=73 v=124
140792 Off ch=5 n=71 v=120
141354 On ch=5 n=69 v=106
141377 Off ch=5 n=73 v=124
141593 Off ch=5 n=69 v=106
141600 Par ch=5 c=5 v=64
141600 Par ch=5 c=5 v=64
141607 On ch=5 n=69 v=123
141774 On ch=5 n=71 v=118
141784 Off ch=5 n=69 v=123
142328 Off ch=5 n=71 v=118
142328 On ch=5 n=69 v=124
142438 Off ch=5 n=69 v=124
142439 On ch=5 n=71 v=118
142560 On ch=5 n=71 v=127
142561 Off ch=5 n=71 v=118
142680 On ch=5 n=73 v=121
142683 Off ch=5 n=71 v=127
142807 On ch=5 n=71 v=115
142814 Off ch=5 n=73 v=121
142911 Off ch=5 n=71 v=115
142915 On ch=5 n=73 v=113
143040 Off ch=5 n=73 v=113
143040 On ch=5 n=73 v=123
143157 On ch=5 n=75 v=111
143159 Off ch=5 n=73 v=123
143277 On ch=5 n=73 v=121
143284 Off ch=5 n=75 v=111
143392 Off ch=5 n=73 v=121
143396 On ch=5 n=71 v=113
143514 On ch=5 n=71 v=116
143515 Off ch=5 n=71 v=113
143629 On ch=5 n=73 v=116
143634 Off ch=5 n=71 v=116
143749 Off ch=5 n=73 v=116
143750 On ch=5 n=71 v=114
143873 On ch=5 n=69 v=111
143876 Off ch=5 n=71 v=114
143984 Off ch=5 n=69 v=111
143994 On ch=5 n=71 v=114
144110 On ch=5 n=73 v=112
144116 Off ch=5 n=71 v=114
144234 Off ch=5 n=73 v=112
144235 On ch=5 n=71 v=112
144358 On ch=5 n=69 v=109
144359 Off ch=5 n=71 v=112
144480 Off ch=5 n=69 v=109
144480 On ch=5 n=68 v=127
144647 On ch=5 n=69 v=118
144651 Off ch=5 n=68 v=127
144805 On ch=5 n=71 v=110
144809 Off ch=5 n=69 v=118
144964 Off ch=5 n=71 v=110
144965 On ch=5 n=71 v=124
145200 Par ch=5 c=5 v=23
145209 Off ch=5 n=71 v=124
145209 On ch=5 n=64 v=112
145320 Par ch=5 c=5 v=84
145452 On ch=5 n=63 v=119
145458 Off ch=5 n=64 v=112
145560 Par ch=5 c=5 v=64
145624 On ch=5 n=64 v=115
145634 Off ch=5 n=63 v=119
145777 On ch=5 n=68 v=119
145785 Off ch=5 n=64 v=115
145918 Off ch=5 n=68 v=119
145920 On ch=5 n=68 v=124
146132 On ch=5 n=66 v=115
146140 Off ch=5 n=68 v=124
146636 Off ch=5 n=66 v=115
146640 Par ch=5 c=5 v=64
146640 On ch=5 n=66 v=75
146698 Off ch=5 n=66 v=75
146700 On ch=5 n=68 v=83
146758 Off ch=5 n=68 v=83
146760 On ch=5 n=69 v=92
146818 Off ch=5 n=69 v=92
146820 On ch=5 n=71 v=89
146878 Off ch=5 n=71 v=89
146880 On ch=5 n=73 v=64
146947 Off ch=5 n=73 v=64
146949 On ch=5 n=75 v=78
147016 Off ch=5 n=75 v=78
147017 On ch=5 n=73 v=83
147084 Off ch=5 n=73 v=83
147086 On ch=5 n=75 v=84
147153 Off ch=5 n=75 v=84
147154 On ch=5 n=76 v=80
147221 Off ch=5 n=76 v=80
147223 On ch=5 n=78 v=74
147290 Off ch=5 n=78 v=74
147291 Par ch=5 c=5 v=48
147291 On ch=5 n=80 v=91
147358 Off ch=5 n=80 v=91
147360 On ch=5 n=85 v=107
148309 Off ch=5 n=85 v=107
148320 Par ch=5 c=5 v=72
148320 Par ch=5 c=5 v=0
148320 On ch=5 n=87 v=117
148440 Off ch=5 n=87 v=117
148444 On ch=5 n=88 v=113
148568 On ch=5 n=87 v=111
148569 Off ch=5 n=88 v=113
148678 On ch=5 n=85 v=112
148682 Off ch=5 n=87 v=111
148798 Off ch=5 n=85 v=112
148800 Par ch=5 c=5 v=51
148803 On ch=5 n=87 v=95
148863 On ch=5 n=85 v=92
148876 Off ch=5 n=87 v=95
148924 On ch=5 n=83 v=98
148928 Off ch=5 n=85 v=92
149520 Par ch=5 c=5 v=15
149636 On ch=5 n=71 v=106
149643 Off ch=5 n=83 v=98
149759 Off ch=5 n=71 v=106
149760 Par ch=5 c=5 v=31
149766 On ch=5 n=76 v=108
149837 Off ch=5 n=76 v=108
149845 On ch=5 n=78 v=107
149908 Off ch=5 n=78 v=107
149908 On ch=5 n=80 v=110
149997 Off ch=5 n=80 v=110
150002 Par ch=5 c=7 v=98
150005 On ch=5 n=81 v=98
150040 Par ch=5 c=7 v=96
150094 Par ch=5 c=7 v=93
150140 Par ch=5 c=7 v=91
150201 Par ch=5 c=7 v=88
150240 Off ch=5 n=81 v=98
150248 On ch=5 n=80 v=116
150254 Par ch=5 c=7 v=86
150285 Par ch=5 c=7 v=83
150361 Par ch=5 c=7 v=81
150391 Par ch=5 c=7 v=78
150438 Par ch=5 c=7 v=76
151187 Off ch=5 n=80 v=116
151195 On ch=5 n=76 v=101
151667 Off ch=5 n=76 v=101
151680 On ch=5 n=75 v=111
152602 Off ch=5 n=75 v=111
152639 On ch=5 n=85 v=110
152871 On ch=5 n=83 v=103
152878 Off ch=5 n=85 v=110
152992 Off ch=5 n=83 v=103
152997 On ch=5 n=85 v=108
153114 On ch=5 n=83 v=96
153120 Off ch=5 n=85 v=108
153363 Off ch=5 n=83 v=96
153371 On ch=5 n=81 v=94
153476 Off ch=5 n=81 v=94
153476 On ch=5 n=80 v=101
154080 Off ch=5 n=80 v=101
154087 On ch=5 n=81 v=87
154549 Off ch=5 n=81 v=87
154552 On ch=5 n=75 v=91
155511 On ch=5 n=85 v=110
155519 Off ch=5 n=75 v=91
155751 On ch=5 n=83 v=104
155758 Off ch=5 n=85 v=110
155862 On ch=5 n=85 v=108
155876 Off ch=5 n=83 v=104
155986 Off ch=5 n=85 v=108
155996 On ch=5 n=83 v=104
157440 Off ch=5 n=83 v=104
157441 On ch=5 n=78 v=82
157771 Par ch=5 c=7 v=80
157797 Par ch=5 c=7 v=84
157826 Par ch=5 c=7 v=88
157847 Par ch=5 c=7 v=92
157870 Par ch=5 c=7 v=94
157898 Par ch=5 c=7 v=97
158175 Par ch=5 c=7 v=100
158259 Par ch=5 c=7 v=102
158381 Par ch=5 c=7 v=105
158392 Off ch=5 n=78 v=82
158401 On ch=5 n=76 v=100
158640 Par ch=5 c=5 v=48
158862 On ch=5 n=88 v=125
158880 Off ch=5 n=76 v=100
159720 Par ch=5 c=5 v=32
159841 On ch=5 n=76 v=104
159843 Off ch=5 n=88 v=125
160080 Par ch=5 c=5 v=76
160197 Par ch=5 c=7 v=102
160228 Par ch=5 c=7 v=99
160301 On ch=5 n=75 v=119
160305 Off ch=5 n=76 v=104
160488 Par ch=5 c=7 v=97
160601 Par ch=5 c=7 v=94
160708 Par ch=5 c=7 v=92
160777 Par ch=5 c=7 v=89
160830 Par ch=5 c=7 v=87
160882 Par ch=5 c=7 v=79
161160 Par ch=5 c=5 v=64
161280 Off ch=5 n=75 v=119
161281 On ch=5 n=73 v=97
161534 On ch=5 n=71 v=78
161537 Off ch=5 n=73 v=97
161639 On ch=5 n=73 v=99
161641 Off ch=5 n=71 v=78
161748 Off ch=5 n=73 v=99
161753 On ch=5 n=71 v=90
162021 Par ch=5 c=7 v=81
162113 Par ch=5 c=7 v=83
162174 Par ch=5 c=7 v=86
162219 Par ch=5 c=7 v=88
162258 Par ch=5 c=7 v=91
162296 Par ch=5 c=7 v=93
162334 Par ch=5 c=7 v=96
162372 Par ch=5 c=7 v=99
162410 Par ch=5 c=7 v=101
162448 Par ch=5 c=7 v=104
162448 Off ch=5 n=71 v=90
162479 Par ch=5 c=7 v=107
167524 On ch=5 n=78 v=102
167880 Par ch=5 c=5 v=26
167997 Off ch=5 n=78 v=102
167998 On ch=5 n=71 v=114
168120 Par ch=5 c=5 v=40
168193 Off ch=5 n=71 v=114
168194 On ch=5 n=77 v=98
168331 On ch=5 n=78 v=75
168348 Off ch=5 n=77 v=98
168461 Off ch=5 n=78 v=75
168491 On ch=5 n=78 v=100
168686 Par ch=5 c=5 v=64
168717 Off ch=5 n=78 v=100
168726 On ch=5 n=66 v=98
169320 Par ch=5 c=5 v=0
169415 On ch=5 n=79 v=100
169420 Off ch=5 n=66 v=98
169439 On ch=5 n=83 v=111
169443 Off ch=5 n=79 v=100
169560 Par ch=5 c=5 v=64
169681 On ch=5 n=71 v=107
169690 Off ch=5 n=83 v=111
170280 Par ch=5 c=5 v=83
170393 Off ch=5 n=71 v=107
170412 On ch=5 n=86 v=118
171961 Off ch=5 n=86 v=118
266760 On ch=5 n=64 v=1
266769 Off ch=5 n=64 v=1
266880 Par ch=5 c=5 v=40
266883 On ch=5 n=71 v=101
267359 Off ch=5 n=71 v=101
267362 On ch=5 n=64 v=102
267519 Off ch=5 n=64 v=102
267522 On ch=5 n=68 v=101
267677 Off ch=5 n=68 v=101
267682 On ch=5 n=71 v=100
267829 Off ch=5 n=71 v=100
267844 On ch=5 n=71 v=101
268800 Off ch=5 n=71 v=101
268800 Par ch=5 c=5 v=55
268803 On ch=5 n=76 v=100
268858 Off ch=5 n=76 v=100
268860 On ch=5 n=74 v=102
268921 On ch=5 n=76 v=101
268926 Off ch=5 n=74 v=102
269513 Off ch=5 n=76 v=101
269530 On ch=5 n=76 v=100
269748 Off ch=5 n=76 v=100
269758 On ch=5 n=79 v=100
270000 On ch=5 n=76 v=99
270010 Off ch=5 n=79 v=100
270123 Off ch=5 n=76 v=99
270123 On ch=5 n=71 v=101
270485 On ch=5 n=67 v=100
270488 Off ch=5 n=71 v=101
270719 Off ch=5 n=67 v=100
270726 On ch=5 n=71 v=103
270780 Off ch=5 n=71 v=103
270784 On ch=5 n=69 v=98
270839 On ch=5 n=71 v=100
270840 Off ch=5 n=69 v=98
271443 On ch=5 n=69 v=99
271452 Off ch=5 n=71 v=100
271557 Off ch=5 n=69 v=99
271560 On ch=5 n=71 v=98
271681 On ch=5 n=66 v=100
271686 Off ch=5 n=71 v=98
271737 Off ch=5 n=66 v=100
271743 On ch=5 n=64 v=97
271801 On ch=5 n=66 v=97
271808 Off ch=5 n=64 v=97
272128 Off ch=5 n=66 v=97
272136 On ch=5 n=88 v=1
272148 Off ch=5 n=88 v=1
272161 On ch=5 n=59 v=78
272640 Off ch=5 n=59 v=78
272640 On ch=5 n=59 v=100
273122 On ch=5 n=52 v=102
273124 Off ch=5 n=59 v=100
273279 Off ch=5 n=52 v=102
273282 On ch=5 n=56 v=101
273437 Off ch=5 n=56 v=101
273442 On ch=5 n=59 v=100
273589 Off ch=5 n=59 v=100
273604 On ch=5 n=59 v=101
274560 Off ch=5 n=59 v=101
274563 On ch=5 n=64 v=100
274618 Off ch=5 n=64 v=100
274620 On ch=5 n=62 v=102
274681 On ch=5 n=64 v=101
274686 Off ch=5 n=62 v=102
275273 Off ch=5 n=64 v=101
275290 On ch=5 n=64 v=100
275508 Off ch=5 n=64 v=100
275518 On ch=5 n=67 v=100
275760 On ch=5 n=64 v=99
275770 Off ch=5 n=67 v=100
275883 Off ch=5 n=64 v=99
275883 On ch=5 n=59 v=101
276223 Off ch=5 n=59 v=101
276245 On ch=5 n=55 v=100
276459 Off ch=5 n=55 v=100
276486 On ch=5 n=59 v=103
276525 Off ch=5 n=59 v=103
276544 On ch=5 n=57 v=98
276585 Off ch=5 n=57 v=98
276599 On ch=5 n=59 v=100
277192 Off ch=5 n=59 v=100
277203 On ch=5 n=57 v=99
277317 Off ch=5 n=57 v=99
277320 On ch=5 n=59 v=98
277441 On ch=5 n=54 v=100
277446 Off ch=5 n=59 v=98
277497 Off ch=5 n=54 v=100
277503 On ch=5 n=52 v=97
277553 Off ch=5 n=52 v=97
277561 On ch=5 n=54 v=97
278161 On ch=5 n=62 v=101
278169 Off ch=5 n=54 v=97
278398 On ch=5 n=71 v=101
278400 Off ch=5 n=62 v=101
278400 Par ch=5 c=5 v=30
278640 Par ch=5 c=5 v=52
278874 Off ch=5 n=71 v=101
278882 On ch=5 n=64 v=102
279039 Off ch=5 n=64 v=102
279042 On ch=5 n=68 v=101
279197 Off ch=5 n=68 v=101
279202 On ch=5 n=71 v=100
279349 Off ch=5 n=71 v=100
279364 On ch=5 n=71 v=101
279600 On ch=5 n=59 v=68
279608 Off ch=5 n=71 v=101
279836 Off ch=5 n=59 v=68
279840 On ch=5 n=59 v=74
280318 Off ch=5 n=59 v=74
280320 Par ch=5 c=5 v=13
280323 On ch=5 n=76 v=98
280559 Off ch=5 n=76 v=98
280560 Par ch=5 c=5 v=52
280566 On ch=5 n=64 v=102
280798 Off ch=5 n=64 v=102
280803 On ch=5 n=64 v=102
281160 Par ch=5 c=5 v=18
281278 On ch=5 n=79 v=100
281279 Off ch=5 n=64 v=102
281400 Par ch=5 c=5 v=55
281510 Off ch=5 n=79 v=100
281520 On ch=5 n=76 v=99
281628 Off ch=5 n=76 v=99
281643 On ch=5 n=71 v=101
281988 Off ch=5 n=71 v=101
282005 On ch=5 n=67 v=100
282239 Off ch=5 n=67 v=100
282246 On ch=5 n=71 v=103
282300 Off ch=5 n=71 v=103
282304 On ch=5 n=69 v=98
282359 On ch=5 n=71 v=97
282360 Off ch=5 n=69 v=98
283197 Off ch=5 n=71 v=97
305280 On ch=5 n=71 v=1
305293 Off ch=5 n=71 v=1
305400 Par ch=5 c=5 v=127
305523 On ch=5 n=95 v=121
305847 Par ch=5 c=5 v=126
305915 Par ch=5 c=5 v=124
305950 Par ch=5 c=5 v=121
305976 Par ch=5 c=5 v=119
305999 Par ch=5 c=5 v=116
306026 Par ch=5 c=5 v=114
306049 Par ch=5 c=5 v=111
306075 Par ch=5 c=5 v=109
306095 Par ch=5 c=5 v=106
306118 Par ch=5 c=5 v=104
306140 Par ch=5 c=5 v=101
306171 Par ch=5 c=5 v=99
306194 Par ch=5 c=5 v=96
306213 Par ch=5 c=5 v=93
306232 Par ch=5 c=5 v=91
306251 Par ch=5 c=5 v=88
306270 Par ch=5 c=5 v=86
306286 Par ch=5 c=5 v=83
306301 Par ch=5 c=5 v=80
306312 Par ch=5 c=5 v=77
306323 Par ch=5 c=5 v=75
306335 Par ch=5 c=5 v=72
306350 Par ch=5 c=5 v=69
306365 Par ch=5 c=5 v=66
306381 Par ch=5 c=5 v=63
306392 Par ch=5 c=5 v=61
306404 Par ch=5 c=5 v=58
306415 Par ch=5 c=5 v=56
306423 Par ch=5 c=5 v=53
306430 Par ch=5 c=5 v=51
306438 Par ch=5 c=5 v=48
306442 Par ch=5 c=5 v=47
306450 Par ch=5 c=5 v=44
306453 Par ch=5 c=5 v=43
306457 Par ch=5 c=5 v=41
306461 Par ch=5 c=5 v=40
306465 Par ch=5 c=5 v=38
306473 Par ch=5 c=5 v=36
306476 Par ch=5 c=5 v=34
306480 Par ch=5 c=5 v=33
306481 Off ch=5 n=95 v=121
306484 Par ch=5 c=5 v=31
306488 Par ch=5 c=5 v=29
306491 Par ch=5 c=5 v=27
306495 Par ch=5 c=5 v=24
306499 Par ch=5 c=5 v=22
306503 Par ch=5 c=5 v=20
306507 Par ch=5 c=5 v=17
306511 Par ch=5 c=5 v=15
306514 Par ch=5 c=5 v=12
306518 Par ch=5 c=5 v=8
306522 Par ch=5 c=5 v=4
306526 Par ch=5 c=5 v=1
306530 Par ch=5 c=5 v=0
306720 Meta TrkEnd
TrkEnd
MTrk
0 Meta TrkName "Wakeman"
0 Meta 0x20 05
0 Meta InstrName "Wakeman"
0 KeySig 2 major
415 Par ch=6 c=0 v=0
420 Par ch=6 c=32 v=0
425 PrCh ch=6 p=80
430 Par ch=6 c=7 v=100
435 Par ch=6 c=10 v=64
440 Par ch=6 c=91 v=74
445 Par ch=6 c=93 v=0
450 Par ch=6 c=101 v=0
450 Par ch=6 c=100 v=0
450 Par ch=6 c=6 v=2
455 Par ch=6 c=99 v=1
455 Par ch=6 c=98 v=8
455 Par ch=6 c=6 v=64
460 Par ch=6 c=99 v=1
460 Par ch=6 c=98 v=9
460 Par ch=6 c=6 v=64
465 Par ch=6 c=99 v=1
465 Par ch=6 c=98 v=10
465 Par ch=6 c=6 v=64
470 Par ch=6 c=99 v=1
470 Par ch=6 c=98 v=32
470 Par ch=6 c=6 v=64
475 Par ch=6 c=99 v=1
475 Par ch=6 c=98 v=33
475 Par ch=6 c=6 v=64
480 Par ch=6 c=99 v=1
480 Par ch=6 c=98 v=99
480 Par ch=6 c=6 v=64
485 Par ch=6 c=99 v=1
485 Par ch=6 c=98 v=100
485 Par ch=6 c=6 v=64
490 Par ch=6 c=99 v=1
490 Par ch=6 c=98 v=102
490 Par ch=6 c=6 v=64
32164 On ch=6 n=69 v=106
33120 On ch=6 n=62 v=90
33125 Off ch=6 n=69 v=106
33358 Off ch=6 n=62 v=90
33360 On ch=6 n=69 v=88
33598 Off ch=6 n=69 v=88
33600 On ch=6 n=69 v=106
34795 Off ch=6 n=69 v=106
34800 On ch=6 n=69 v=97
35038 Off ch=6 n=69 v=97
35043 On ch=6 n=74 v=107
35122 On ch=6 n=72 v=106
35129 Off ch=6 n=74 v=107
35197 Off ch=6 n=72 v=106
35197 On ch=6 n=74 v=107
36169 Off ch=6 n=74 v=107
36182 On ch=6 n=74 v=90
36238 On ch=6 n=76 v=100
36243 Off ch=6 n=74 v=90
36297 On ch=6 n=74 v=110
36300 Off ch=6 n=76 v=100
36356 Off ch=6 n=74 v=110
36356 On ch=6 n=69 v=94
36415 Off ch=6 n=69 v=94
36419 On ch=6 n=74 v=99
36476 Off ch=6 n=74 v=99
36483 On ch=6 n=81 v=113
37198 Off ch=6 n=81 v=113
37200 On ch=6 n=74 v=94
37678 Off ch=6 n=74 v=94
37680 On ch=6 n=69 v=91
37918 Off ch=6 n=69 v=91
37923 On ch=6 n=69 v=107
37995 On ch=6 n=67 v=107
38013 Off ch=6 n=69 v=107
38074 On ch=6 n=69 v=108
38081 Off ch=6 n=67 v=107
39121 Off ch=6 n=69 v=108
39124 On ch=6 n=74 v=109
39360 Off ch=6 n=74 v=109
39363 On ch=6 n=76 v=100
39427 On ch=6 n=74 v=99
39433 Off ch=6 n=76 v=100
39497 On ch=6 n=76 v=108
39510 Off ch=6 n=74 v=99
40201 On ch=6 n=78 v=93
40203 Off ch=6 n=76 v=108
40256 Off ch=6 n=78 v=93
40260 On ch=6 n=76 v=100
40318 Off ch=6 n=76 v=100
40325 On ch=6 n=74 v=122
40559 On ch=6 n=76 v=108
40567 Off ch=6 n=74 v=122
40800 Off ch=6 n=76 v=108
40801 On ch=6 n=81 v=104
41832 Off ch=6 n=81 v=104
106080 KeySig 3 major
118560 KeySig 0 major
118560 On ch=6 n=81 v=104
118560 On ch=6 n=69 v=104
119287 On ch=6 n=83 v=102
119287 On ch=6 n=71 v=102
119293 Off ch=6 n=81 v=104
119293 Off ch=6 n=69 v=104
119525 Off ch=6 n=83 v=102
119525 Off ch=6 n=71 v=102
119527 On ch=6 n=74 v=101
119527 On ch=6 n=62 v=101
119883 On ch=6 n=76 v=99
119883 On ch=6 n=64 v=99
119886 Off ch=6 n=74 v=101
119886 Off ch=6 n=62 v=101
120004 On ch=6 n=78 v=100
120004 On ch=6 n=66 v=100
120008 Off ch=6 n=76 v=99
120008 Off ch=6 n=64 v=99
120367 On ch=6 n=67 v=96
120367 On ch=6 n=79 v=96
120374 Off ch=6 n=78 v=100
120374 Off ch=6 n=66 v=100
120479 Off ch=6 n=67 v=96
120479 Off ch=6 n=79 v=96
120486 On ch=6 n=79 v=97
120486 On ch=6 n=67 v=97
120847 On ch=6 n=77 v=96
120847 On ch=6 n=65 v=96
120858 Off ch=6 n=79 v=97
120858 Off ch=6 n=67 v=97
120955 Off ch=6 n=77 v=96
120955 Off ch=6 n=65 v=96
120961 On ch=6 n=81 v=96
120961 On ch=6 n=69 v=96
121314 Off ch=6 n=81 v=96
121314 Off ch=6 n=69 v=96
121319 On ch=6 n=79 v=95
121319 On ch=6 n=67 v=95
121437 Off ch=6 n=79 v=95
121437 Off ch=6 n=67 v=95
121441 On ch=6 n=83 v=100
121441 On ch=6 n=71 v=100
121800 Off ch=6 n=83 v=100
121800 Off ch=6 n=71 v=100
121801 On ch=6 n=81 v=96
121801 On ch=6 n=69 v=96
121919 Off ch=6 n=81 v=96
121919 Off ch=6 n=69 v=96
121920 On ch=6 n=83 v=100
121920 On ch=6 n=71 v=100
122273 Off ch=6 n=83 v=100
122273 Off ch=6 n=71 v=100
122282 On ch=6 n=84 v=99
122282 On ch=6 n=72 v=99
122400 Off ch=6 n=84 v=99
122400 Off ch=6 n=72 v=99
122401 On ch=6 n=83 v=101
122401 On ch=6 n=71 v=101
122761 On ch=6 n=81 v=97
122761 On ch=6 n=69 v=97
122769 Off ch=6 n=83 v=101
122769 Off ch=6 n=71 v=101
122874 Off ch=6 n=81 v=97
122874 Off ch=6 n=69 v=97
122877 On ch=6 n=79 v=99
122877 On ch=6 n=67 v=99
123234 On ch=6 n=76 v=99
123234 On ch=6 n=64 v=99
123245 Off ch=6 n=79 v=99
123245 Off ch=6 n=67 v=99
123351 Off ch=6 n=76 v=99
123351 Off ch=6 n=64 v=99
123354 On ch=6 n=84 v=101
123354 On ch=6 n=72 v=101
123715 On ch=6 n=83 v=100
123715 On ch=6 n=71 v=100
123723 Off ch=6 n=84 v=101
123723 Off ch=6 n=72 v=101
123836 Off ch=6 n=83 v=100
123836 Off ch=6 n=71 v=100
123836 On ch=6 n=79 v=101
123836 On ch=6 n=67 v=101
124207 On ch=6 n=76 v=100
124207 On ch=6 n=64 v=100
124217 Off ch=6 n=79 v=101
124217 Off ch=6 n=67 v=101
124320 Off ch=6 n=76 v=100
124320 Off ch=6 n=64 v=100
124326 On ch=6 n=88 v=102
124326 On ch=6 n=76 v=102
125041 On ch=6 n=90 v=99
125041 On ch=6 n=78 v=99
125049 Off ch=6 n=88 v=102
125049 Off ch=6 n=76 v=102
125280 On ch=6 n=81 v=98
125280 On ch=6 n=69 v=98
125282 Off ch=6 n=90 v=99
125282 Off ch=6 n=78 v=99
125633 On ch=6 n=83 v=98
125633 On ch=6 n=71 v=98
125637 Off ch=6 n=81 v=98
125637 Off ch=6 n=69 v=98
125751 On ch=6 n=85 v=99
125751 On ch=6 n=73 v=99
125757 Off ch=6 n=83 v=98
125757 Off ch=6 n=71 v=98
126123 On ch=6 n=86 v=98
126123 On ch=6 n=74 v=98
126137 Off ch=6 n=85 v=99
126137 Off ch=6 n=73 v=99
126240 Off ch=6 n=86 v=98
126240 Off ch=6 n=74 v=98
126247 On ch=6 n=86 v=99
126247 On ch=6 n=74 v=99
126602 Off ch=6 n=86 v=99
126602 Off ch=6 n=74 v=99
126602 On ch=6 n=84 v=94
126602 On ch=6 n=72 v=94
126725 On ch=6 n=88 v=100
126725 On ch=6 n=76 v=100
126729 Off ch=6 n=84 v=94
126729 Off ch=6 n=72 v=94
127072 Off ch=6 n=88 v=100
127072 Off ch=6 n=76 v=100
127077 On ch=6 n=86 v=96
127077 On ch=6 n=74 v=96
127200 On ch=6 n=90 v=99
127200 On ch=6 n=78 v=99
127206 Off ch=6 n=86 v=96
127206 Off ch=6 n=74 v=96
127553 Off ch=6 n=90 v=99
127553 Off ch=6 n=78 v=99
127553 On ch=6 n=88 v=96
127553 On ch=6 n=76 v=96
127673 On ch=6 n=90 v=103
127673 On ch=6 n=78 v=103
127679 Off ch=6 n=88 v=96
127679 Off ch=6 n=76 v=96
128030 Off ch=6 n=90 v=103
128030 Off ch=6 n=78 v=103
128034 On ch=6 n=91 v=97
128034 On ch=6 n=79 v=97
128160 Off ch=6 n=91 v=97
128160 Off ch=6 n=79 v=97
128161 On ch=6 n=90 v=103
128161 On ch=6 n=78 v=103
128516 On ch=6 n=88 v=97
128516 On ch=6 n=76 v=97
128524 Off ch=6 n=90 v=103
128524 Off ch=6 n=78 v=103
128635 Off ch=6 n=88 v=97
128635 Off ch=6 n=76 v=97
128636 On ch=6 n=86 v=102
128636 On ch=6 n=74 v=102
128990 On ch=6 n=83 v=99
128990 On ch=6 n=71 v=99
129000 Off ch=6 n=86 v=102
129000 Off ch=6 n=74 v=102
129110 Off ch=6 n=83 v=99
129110 Off ch=6 n=71 v=99
129111 On ch=6 n=91 v=99
129111 On ch=6 n=79 v=99
129474 On ch=6 n=90 v=98
129474 On ch=6 n=78 v=98
129487 Off ch=6 n=91 v=99
129487 Off ch=6 n=79 v=99
129592 Off ch=6 n=90 v=98
129592 Off ch=6 n=78 v=98
129596 On ch=6 n=86 v=98
129596 On ch=6 n=74 v=98
129962 On ch=6 n=83 v=100
129962 On ch=6 n=71 v=100
129980 Off ch=6 n=86 v=98
129980 Off ch=6 n=74 v=98
130069 Off ch=6 n=83 v=100
130069 Off ch=6 n=71 v=100
130083 On ch=6 n=83 v=101
130083 On ch=6 n=71 v=101
130559 Off ch=6 n=83 v=101
130559 Off ch=6 n=71 v=101
130562 On ch=6 n=76 v=102
130562 On ch=6 n=64 v=102
130719 Off ch=6 n=76 v=102
130719 Off ch=6 n=64 v=102
130722 On ch=6 n=80 v=101
130722 On ch=6 n=68 v=101
130877 Off ch=6 n=80 v=101
130877 Off ch=6 n=68 v=101
130882 On ch=6 n=83 v=100
130882 On ch=6 n=71 v=100
131029 Off ch=6 n=83 v=100
131029 Off ch=6 n=71 v=100
131044 On ch=6 n=83 v=101
131044 On ch=6 n=71 v=101
132000 Off ch=6 n=83 v=101
132000 Off ch=6 n=71 v=101
132003 On ch=6 n=76 v=100
132003 On ch=6 n=88 v=100
132057 On ch=6 n=86 v=102
132058 Off ch=6 n=76 v=100
132058 Off ch=6 n=88 v=100
132060 On ch=6 n=74 v=102
132121 On ch=6 n=76 v=101
132121 On ch=6 n=88 v=101
132123 Off ch=6 n=86 v=102
132126 Off ch=6 n=74 v=102
132713 Off ch=6 n=76 v=101
132713 Off ch=6 n=88 v=101
132730 On ch=6 n=88 v=100
132730 On ch=6 n=76 v=100
132948 Off ch=6 n=88 v=100
132948 Off ch=6 n=76 v=100
132958 On ch=6 n=91 v=100
132958 On ch=6 n=79 v=100
133200 On ch=6 n=88 v=99
133200 On ch=6 n=76 v=99
133210 Off ch=6 n=91 v=100
133210 Off ch=6 n=79 v=100
133323 Off ch=6 n=88 v=99
133323 Off ch=6 n=76 v=99
133323 On ch=6 n=83 v=101
133323 On ch=6 n=71 v=101
133685 On ch=6 n=79 v=100
133685 On ch=6 n=67 v=100
133688 Off ch=6 n=83 v=101
133688 Off ch=6 n=71 v=101
133919 Off ch=6 n=79 v=100
133919 Off ch=6 n=67 v=100
133926 On ch=6 n=71 v=103
133926 On ch=6 n=83 v=103
133980 Off ch=6 n=71 v=103
133980 Off ch=6 n=83 v=103
133984 On ch=6 n=81 v=98
133984 On ch=6 n=69 v=98
134039 On ch=6 n=71 v=100
134039 On ch=6 n=83 v=100
134040 Off ch=6 n=81 v=98
134040 Off ch=6 n=69 v=98
134643 On ch=6 n=81 v=99
134643 On ch=6 n=69 v=99
134652 Off ch=6 n=71 v=100
134652 Off ch=6 n=83 v=100
134757 Off ch=6 n=81 v=99
134757 Off ch=6 n=69 v=99
134760 On ch=6 n=83 v=98
134760 On ch=6 n=71 v=98
134881 On ch=6 n=66 v=100
134881 On ch=6 n=78 v=100
134886 Off ch=6 n=83 v=98
134886 Off ch=6 n=71 v=98
134937 Off ch=6 n=66 v=100
134937 Off ch=6 n=78 v=100
134943 On ch=6 n=64 v=97
134943 On ch=6 n=76 v=97
135001 On ch=6 n=66 v=97
135001 On ch=6 n=78 v=97
135008 Off ch=6 n=64 v=97
135008 Off ch=6 n=76 v=97
135601 On ch=6 n=74 v=102
135601 On ch=6 n=62 v=102
135609 Off ch=6 n=66 v=97
135609 Off ch=6 n=78 v=97
135834 Off ch=6 n=74 v=102
135834 Off ch=6 n=62 v=102
135847 On ch=6 n=78 v=105
135847 On ch=6 n=66 v=105
136561 On ch=6 n=80 v=100
136561 On ch=6 n=68 v=100
136562 Off ch=6 n=78 v=105
136562 Off ch=6 n=66 v=105
136804 On ch=6 n=71 v=97
136804 On ch=6 n=59 v=97
136806 Off ch=6 n=80 v=100
136806 Off ch=6 n=68 v=100
137164 On ch=6 n=73 v=98
137164 On ch=6 n=61 v=98
137168 Off ch=6 n=71 v=97
137168 Off ch=6 n=59 v=97
137286 On ch=6 n=75 v=99
137286 On ch=6 n=63 v=99
137293 Off ch=6 n=73 v=98
137293 Off ch=6 n=61 v=98
137636 Off ch=6 n=75 v=99
137636 Off ch=6 n=63 v=99
137636 On ch=6 n=76 v=97
137636 On ch=6 n=64 v=97
137749 Off ch=6 n=76 v=97
137749 Off ch=6 n=64 v=97
137761 On ch=6 n=76 v=98
137761 On ch=6 n=64 v=98
138119 On ch=6 n=74 v=95
138119 On ch=6 n=62 v=95
138125 Off ch=6 n=76 v=98
138125 Off ch=6 n=64 v=98
138237 Off ch=6 n=74 v=95
138237 Off ch=6 n=62 v=95
138239 On ch=6 n=78 v=100
138239 On ch=6 n=66 v=100
138604 On ch=6 n=76 v=96
138604 On ch=6 n=64 v=96
138611 Off ch=6 n=78 v=100
138611 Off ch=6 n=66 v=100
138717 Off ch=6 n=76 v=96
138717 Off ch=6 n=64 v=96
138724 On ch=6 n=80 v=98
138724 On ch=6 n=68 v=98
139082 On ch=6 n=78 v=95
139082 On ch=6 n=66 v=95
139090 Off ch=6 n=80 v=98
139090 Off ch=6 n=68 v=98
139193 Off ch=6 n=78 v=95
139193 Off ch=6 n=66 v=95
139203 On ch=6 n=80 v=100
139203 On ch=6 n=68 v=100
139562 Off ch=6 n=80 v=100
139562 Off ch=6 n=68 v=100
139563 On ch=6 n=81 v=97
139563 On ch=6 n=69 v=97
139672 Off ch=6 n=81 v=97
139672 Off ch=6 n=69 v=97
139681 On ch=6 n=80 v=97
139681 On ch=6 n=68 v=97
140042 On ch=6 n=78 v=96
140042 On ch=6 n=66 v=96
140051 Off ch=6 n=80 v=97
140051 Off ch=6 n=68 v=97
140160 Off ch=6 n=78 v=96
140160 Off ch=6 n=66 v=96
140162 On ch=6 n=76 v=96
140162 On ch=6 n=64 v=96
140516 On ch=6 n=73 v=96
140516 On ch=6 n=61 v=96
140525 Off ch=6 n=76 v=96
140525 Off ch=6 n=64 v=96
140635 Off ch=6 n=73 v=96
140635 Off ch=6 n=61 v=96
140636 On ch=6 n=81 v=98
140636 On ch=6 n=69 v=98
140998 On ch=6 n=80 v=100
140998 On ch=6 n=68 v=100
141010 Off ch=6 n=81 v=98
141010 Off ch=6 n=69 v=98
141119 On ch=6 n=76 v=97
141119 On ch=6 n=64 v=97
141126 Off ch=6 n=80 v=100
141126 Off ch=6 n=68 v=100
141477 On ch=6 n=73 v=98
141477 On ch=6 n=61 v=98
141486 Off ch=6 n=76 v=97
141486 Off ch=6 n=64 v=97
141598 Off ch=6 n=73 v=98
141598 Off ch=6 n=61 v=98
141607 On ch=6 n=64 v=94
141607 On ch=6 n=76 v=94
142565 Off ch=6 n=64 v=94
142565 Off ch=6 n=76 v=94
161760 KeySig 4 major
161760 On ch=6 n=83 v=104
161760 On ch=6 n=71 v=104
162487 On ch=6 n=85 v=102
162487 On ch=6 n=73 v=102
162493 Off ch=6 n=83 v=104
162493 Off ch=6 n=71 v=104
162725 Off ch=6 n=85 v=102
162725 Off ch=6 n=73 v=102
162727 On ch=6 n=76 v=101
162727 On ch=6 n=64 v=101
163083 On ch=6 n=78 v=99
163083 On ch=6 n=66 v=99
163086 Off ch=6 n=76 v=101
163086 Off ch=6 n=64 v=101
163204 On ch=6 n=80 v=100
163204 On ch=6 n=68 v=100
163208 Off ch=6 n=78 v=99
163208 Off ch=6 n=66 v=99
163567 On ch=6 n=81 v=96
163567 On ch=6 n=69 v=96
163574 Off ch=6 n=80 v=100
163574 Off ch=6 n=68 v=100
163679 Off ch=6 n=81 v=96
163679 Off ch=6 n=69 v=96
163686 On ch=6 n=81 v=97
163686 On ch=6 n=69 v=97
164047 On ch=6 n=79 v=96
164047 On ch=6 n=67 v=96
164058 Off ch=6 n=81 v=97
164058 Off ch=6 n=69 v=97
164155 Off ch=6 n=79 v=96
164155 Off ch=6 n=67 v=96
164161 On ch=6 n=83 v=96
164161 On ch=6 n=71 v=96
164514 Off ch=6 n=83 v=96
164514 Off ch=6 n=71 v=96
164519 On ch=6 n=81 v=95
164519 On ch=6 n=69 v=95
164637 Off ch=6 n=81 v=95
164637 Off ch=6 n=69 v=95
164641 On ch=6 n=85 v=100
164641 On ch=6 n=73 v=100
165000 Off ch=6 n=85 v=100
165000 Off ch=6 n=73 v=100
165001 On ch=6 n=83 v=96
165001 On ch=6 n=71 v=96
165119 Off ch=6 n=83 v=96
165119 Off ch=6 n=71 v=96
165120 On ch=6 n=85 v=100
165120 On ch=6 n=73 v=100
165473 Off ch=6 n=85 v=100
165473 Off ch=6 n=73 v=100
165482 On ch=6 n=86 v=99
165482 On ch=6 n=74 v=99
165600 Off ch=6 n=86 v=99
165600 Off ch=6 n=74 v=99
165601 On ch=6 n=85 v=101
165601 On ch=6 n=73 v=101
165961 On ch=6 n=83 v=97
165961 On ch=6 n=71 v=97
165969 Off ch=6 n=85 v=101
165969 Off ch=6 n=73 v=101
166074 Off ch=6 n=83 v=97
166074 Off ch=6 n=71 v=97
166077 On ch=6 n=81 v=99
166077 On ch=6 n=69 v=99
166434 On ch=6 n=78 v=99
166434 On ch=6 n=66 v=99
166445 Off ch=6 n=81 v=99
166445 Off ch=6 n=69 v=99
166551 Off ch=6 n=78 v=99
166551 Off ch=6 n=66 v=99
166554 On ch=6 n=86 v=101
166554 On ch=6 n=74 v=101
166915 On ch=6 n=85 v=100
166915 On ch=6 n=73 v=100
166923 Off ch=6 n=86 v=101
166923 Off ch=6 n=74 v=101
167036 Off ch=6 n=85 v=100
167036 Off ch=6 n=73 v=100
167036 On ch=6 n=81 v=101
167036 On ch=6 n=69 v=101
167407 On ch=6 n=78 v=100
167407 On ch=6 n=66 v=100
167417 Off ch=6 n=81 v=101
167417 Off ch=6 n=69 v=101
167520 Off ch=6 n=78 v=100
167520 Off ch=6 n=66 v=100
167520 KeySig 5 major
167523 On ch=6 n=90 v=101
167523 On ch=6 n=78 v=101
167999 Off ch=6 n=90 v=101
167999 Off ch=6 n=78 v=101
168002 On ch=6 n=83 v=102
168002 On ch=6 n=71 v=102
168159 Off ch=6 n=83 v=102
168159 Off ch=6 n=71 v=102
168162 On ch=6 n=87 v=101
168162 On ch=6 n=75 v=101
168317 Off ch=6 n=87 v=101
168317 Off ch=6 n=75 v=101
168322 On ch=6 n=90 v=100
168322 On ch=6 n=78 v=100
168469 Off ch=6 n=90 v=100
168469 Off ch=6 n=78 v=100
168484 On ch=6 n=90 v=101
168484 On ch=6 n=78 v=101
169440 Off ch=6 n=90 v=101
169440 Off ch=6 n=78 v=101
169443 On ch=6 n=83 v=100
169443 On ch=6 n=95 v=100
169497 On ch=6 n=93 v=102
169498 Off ch=6 n=83 v=100
169498 Off ch=6 n=95 v=100
169500 On ch=6 n=81 v=102
169561 On ch=6 n=83 v=101
169561 On ch=6 n=95 v=101
169563 Off ch=6 n=93 v=102
169566 Off ch=6 n=81 v=102
170153 Off ch=6 n=83 v=101
170153 Off ch=6 n=95 v=101
170170 On ch=6 n=95 v=100
170170 On ch=6 n=83 v=100
170388 Off ch=6 n=95 v=100
170388 Off ch=6 n=83 v=100
170398 On ch=6 n=86 v=111
170398 On ch=6 n=98 v=102
173194 Off ch=6 n=86 v=111
173209 Off ch=6 n=98 v=102
177120 KeySig 0 major
198720 On ch=6 n=83 v=88
198798 Off ch=6 n=83 v=88
198800 On ch=6 n=76 v=98
198878 Off ch=6 n=76 v=98
198880 On ch=6 n=71 v=90
198958 Off ch=6 n=71 v=90
198960 On ch=6 n=64 v=97
199038 Off ch=6 n=64 v=97
199040 On ch=6 n=59 v=97
199118 Off ch=6 n=59 v=97
199120 On ch=6 n=52 v=88
199198 Off ch=6 n=52 v=88
199200 On ch=6 n=47 v=82
199294 Off ch=6 n=47 v=82
199296 On ch=6 n=40 v=88
199390 Off ch=6 n=40 v=88
199392 On ch=6 n=47 v=88
199486 Off ch=6 n=47 v=88
199488 On ch=6 n=52 v=77
199582 Off ch=6 n=52 v=77
199584 On ch=6 n=59 v=86
199678 Off ch=6 n=59 v=86
199680 On ch=6 n=64 v=90
199769 Off ch=6 n=64 v=90
199779 On ch=6 n=71 v=102
199872 Off ch=6 n=71 v=102
199877 On ch=6 n=76 v=105
200155 Off ch=6 n=76 v=105
200165 On ch=6 n=83 v=105
201356 Off ch=6 n=83 v=105
201356 On ch=6 n=81 v=97
201441 Off ch=6 n=81 v=97
201484 On ch=6 n=83 v=97
201566 Off ch=6 n=83 v=97
201602 On ch=6 n=81 v=102
201842 On ch=6 n=80 v=99
201845 Off ch=6 n=81 v=102
201930 Off ch=6 n=80 v=99
201960 On ch=6 n=81 v=103
202046 Off ch=6 n=81 v=103
202083 On ch=6 n=80 v=102
202315 Off ch=6 n=80 v=102
202319 On ch=6 n=78 v=97
202412 Off ch=6 n=78 v=97
202438 On ch=6 n=80 v=102
202539 Off ch=6 n=80 v=102
202558 On ch=6 n=78 v=97
202799 On ch=6 n=76 v=101
202801 Off ch=6 n=78 v=97
203032 Off ch=6 n=76 v=101
203051 On ch=6 n=73 v=99
203138 Off ch=6 n=73 v=99
203160 On ch=6 n=76 v=95
203263 Off ch=6 n=76 v=95
203283 On ch=6 n=71 v=98
203881 Off ch=6 n=71 v=98
203884 On ch=6 n=68 v=101
203944 On ch=6 n=66 v=96
203949 Off ch=6 n=68 v=101
204002 On ch=6 n=68 v=105
204004 Off ch=6 n=66 v=96
204235 On ch=6 n=69 v=101
204239 Off ch=6 n=68 v=105
204477 On ch=6 n=71 v=98
204480 Off ch=6 n=69 v=101
204837 On ch=6 n=69 v=103
204845 Off ch=6 n=71 v=98
205197 On ch=6 n=68 v=104
205209 Off ch=6 n=69 v=103
205674 On ch=6 n=66 v=101
205686 Off ch=6 n=68 v=104
205755 Off ch=6 n=66 v=101
205760 On ch=6 n=68 v=104
205840 Off ch=6 n=68 v=104
205841 On ch=6 n=66 v=89
205920 Off ch=6 n=66 v=89
205931 On ch=6 n=64 v=89
207360 Off ch=6 n=64 v=89
252000 On ch=6 n=80 v=99
252958 Off ch=6 n=80 v=99
252960 On ch=6 n=75 v=95
253038 Off ch=6 n=75 v=95
253040 On ch=6 n=76 v=80
253118 Off ch=6 n=76 v=80
253120 On ch=6 n=73 v=89
253198 Off ch=6 n=73 v=89
253200 On ch=6 n=68 v=82
253278 Off ch=6 n=68 v=82
253280 On ch=6 n=73 v=70
253358 Off ch=6 n=73 v=70
253360 On ch=6 n=76 v=91
253438 Off ch=6 n=76 v=91
253440 On ch=6 n=75 v=88
253518 Off ch=6 n=75 v=88
253519 On ch=6 n=76 v=84
253594 On ch=6 n=75 v=75
253603 Off ch=6 n=76 v=84
253680 On ch=6 n=73 v=77
253686 Off ch=6 n=75 v=75
253798 Off ch=6 n=73 v=77
253800 On ch=6 n=71 v=80
253918 Off ch=6 n=71 v=80
253920 On ch=6 n=68 v=85
253978 Off ch=6 n=68 v=85
253980 On ch=6 n=66 v=74
254038 Off ch=6 n=66 v=74
254040 On ch=6 n=64 v=79
254158 Off ch=6 n=64 v=79
254160 On ch=6 n=63 v=72
254218 Off ch=6 n=63 v=72
254220 On ch=6 n=61 v=71
254278 Off ch=6 n=61 v=71
254280 On ch=6 n=59 v=74
254398 Off ch=6 n=59 v=74
254400 On ch=6 n=56 v=97
254458 Off ch=6 n=56 v=97
254460 On ch=6 n=54 v=82
254518 Off ch=6 n=54 v=82
254520 On ch=6 n=49 v=72
254878 Off ch=6 n=49 v=72
254880 Par ch=6 c=7 v=78
254880 On ch=6 n=80 v=76
254958 Off ch=6 n=80 v=76
254960 On ch=6 n=83 v=77
255038 Off ch=6 n=83 v=77
255040 On ch=6 n=80 v=77
255118 Off ch=6 n=80 v=77
255120 On ch=6 n=76 v=76
255198 Off ch=6 n=76 v=76
255200 On ch=6 n=78 v=74
255278 Off ch=6 n=78 v=74
255280 On ch=6 n=76 v=76
255358 Off ch=6 n=76 v=76
255360 On ch=6 n=71 v=75
255438 Off ch=6 n=71 v=75
255440 On ch=6 n=76 v=75
255518 Off ch=6 n=76 v=75
255520 On ch=6 n=80 v=75
255598 Off ch=6 n=80 v=75
255600 On ch=6 n=71 v=74
255678 Off ch=6 n=71 v=74
255680 On ch=6 n=76 v=74
255758 Off ch=6 n=76 v=74
255760 On ch=6 n=71 v=74
255838 Off ch=6 n=71 v=74
255840 On ch=6 n=76 v=75
255918 Off ch=6 n=76 v=75
255920 On ch=6 n=81 v=77
255998 Off ch=6 n=81 v=77
256000 On ch=6 n=78 v=73
256078 Off ch=6 n=78 v=73
256080 On ch=6 n=81 v=75
256158 Off ch=6 n=81 v=75
256160 On ch=6 n=76 v=74
256238 Off ch=6 n=76 v=74
256240 On ch=6 n=71 v=74
256318 Off ch=6 n=71 v=74
256320 On ch=6 n=73 v=75
256398 Off ch=6 n=73 v=75
256400 On ch=6 n=75 v=76
256478 Off ch=6 n=75 v=76
256480 On ch=6 n=78 v=77
256558 Off ch=6 n=78 v=77
256560 On ch=6 n=83 v=77
256638 Off ch=6 n=83 v=77
256640 On ch=6 n=78 v=74
256718 Off ch=6 n=78 v=74
256720 On ch=6 n=75 v=70
256798 Off ch=6 n=75 v=70
256800 On ch=6 n=83 v=77
256878 Off ch=6 n=83 v=77
256880 On ch=6 n=78 v=72
256958 Off ch=6 n=78 v=72
256960 On ch=6 n=76 v=72
257038 Off ch=6 n=76 v=72
257040 On ch=6 n=75 v=72
257118 Off ch=6 n=75 v=72
257120 On ch=6 n=71 v=72
257198 Off ch=6 n=71 v=72
257200 On ch=6 n=78 v=72
257278 Off ch=6 n=78 v=72
257280 On ch=6 n=76 v=75
257358 Off ch=6 n=76 v=75
257360 On ch=6 n=73 v=74
257438 Off ch=6 n=73 v=74
257440 On ch=6 n=69 v=74
257518 Off ch=6 n=69 v=74
257520 On ch=6 n=64 v=72
257598 Off ch=6 n=64 v=72
257600 On ch=6 n=69 v=72
257678 Off ch=6 n=69 v=72
257680 On ch=6 n=73 v=72
257758 Off ch=6 n=73 v=72
257760 On ch=6 n=76 v=74
257838 Off ch=6 n=76 v=74
257840 On ch=6 n=80 v=74
257918 Off ch=6 n=80 v=74
257920 On ch=6 n=83 v=77
257998 Off ch=6 n=83 v=77
258000 On ch=6 n=76 v=74
258078 Off ch=6 n=76 v=74
258080 On ch=6 n=78 v=72
258158 Off ch=6 n=78 v=72
258160 On ch=6 n=76 v=74
258238 Off ch=6 n=76 v=74
258240 On ch=6 n=71 v=73
258318 Off ch=6 n=71 v=73
258320 On ch=6 n=76 v=72
258398 Off ch=6 n=76 v=72
258400 On ch=6 n=80 v=72
258478 Off ch=6 n=80 v=72
258480 On ch=6 n=76 v=73
258558 Off ch=6 n=76 v=73
258560 On ch=6 n=73 v=72
258638 Off ch=6 n=73 v=72
258640 On ch=6 n=71 v=72
258718 Off ch=6 n=71 v=72
258720 On ch=6 n=76 v=74
258798 Off ch=6 n=76 v=74
258800 On ch=6 n=81 v=75
258878 Off ch=6 n=81 v=75
258880 On ch=6 n=78 v=74
258958 Off ch=6 n=78 v=74
258960 On ch=6 n=81 v=77
259038 Off ch=6 n=81 v=77
259040 On ch=6 n=78 v=72
259118 Off ch=6 n=78 v=72
259120 On ch=6 n=76 v=73
259198 Off ch=6 n=76 v=73
259200 On ch=6 n=75 v=72
259278 Off ch=6 n=75 v=72
259280 On ch=6 n=78 v=72
259358 Off ch=6 n=78 v=72
259360 On ch=6 n=75 v=72
259438 Off ch=6 n=75 v=72
259440 On ch=6 n=71 v=73
259518 Off ch=6 n=71 v=73
259520 On ch=6 n=83 v=74
259598 Off ch=6 n=83 v=74
259600 On ch=6 n=75 v=71
259678 Off ch=6 n=75 v=71
259680 On ch=6 n=78 v=72
259758 Off ch=6 n=78 v=72
259760 On ch=6 n=76 v=71
259838 Off ch=6 n=76 v=71
259840 On ch=6 n=75 v=71
259918 Off ch=6 n=75 v=71
259920 On ch=6 n=83 v=75
259998 Off ch=6 n=83 v=75
260000 On ch=6 n=78 v=72
260078 Off ch=6 n=78 v=72
260080 On ch=6 n=75 v=72
260158 Off ch=6 n=75 v=72
260160 On ch=6 n=76 v=73
260238 Off ch=6 n=76 v=73
260240 On ch=6 n=69 v=73
260318 Off ch=6 n=69 v=73
260320 On ch=6 n=73 v=69
260398 Off ch=6 n=73 v=69
260400 On ch=6 n=69 v=70
260478 Off ch=6 n=69 v=70
260480 On ch=6 n=73 v=71
260558 Off ch=6 n=73 v=71
260560 On ch=6 n=76 v=75
260638 Off ch=6 n=76 v=75
260640 On ch=6 n=80 v=76
260718 Off ch=6 n=80 v=76
260720 On ch=6 n=83 v=77
260798 Off ch=6 n=83 v=77
260800 On ch=6 n=80 v=77
260878 Off ch=6 n=80 v=77
260880 On ch=6 n=76 v=76
260958 Off ch=6 n=76 v=76
260960 On ch=6 n=78 v=74
261038 Off ch=6 n=78 v=74
261040 On ch=6 n=76 v=76
261118 Off ch=6 n=76 v=76
261120 On ch=6 n=71 v=75
261198 Off ch=6 n=71 v=75
261200 On ch=6 n=76 v=75
261278 Off ch=6 n=76 v=75
261280 On ch=6 n=80 v=75
261358 Off ch=6 n=80 v=75
261360 On ch=6 n=71 v=74
261438 Off ch=6 n=71 v=74
261440 On ch=6 n=76 v=74
261518 Off ch=6 n=76 v=74
261520 On ch=6 n=71 v=74
261598 Off ch=6 n=71 v=74
261600 On ch=6 n=76 v=75
261678 Off ch=6 n=76 v=75
261680 On ch=6 n=81 v=77
261758 Off ch=6 n=81 v=77
261760 On ch=6 n=78 v=73
261838 Off ch=6 n=78 v=73
261840 On ch=6 n=81 v=75
261918 Off ch=6 n=81 v=75
261920 On ch=6 n=76 v=74
261998 Off ch=6 n=76 v=74
262000 On ch=6 n=71 v=74
262078 Off ch=6 n=71 v=74
262080 On ch=6 n=73 v=70
262158 Off ch=6 n=73 v=70
262160 On ch=6 n=75 v=58
262238 Off ch=6 n=75 v=58
262240 On ch=6 n=78 v=74
262318 Off ch=6 n=78 v=74
262320 On ch=6 n=83 v=72
262398 Off ch=6 n=83 v=72
262400 On ch=6 n=78 v=75
262478 Off ch=6 n=78 v=75
262480 On ch=6 n=75 v=67
262558 Off ch=6 n=75 v=67
262560 On ch=6 n=83 v=86
262638 Off ch=6 n=83 v=86
262640 On ch=6 n=78 v=82
262718 Off ch=6 n=78 v=82
262720 On ch=6 n=76 v=81
262798 Off ch=6 n=76 v=81
262800 On ch=6 n=75 v=67
262878 Off ch=6 n=75 v=67
262880 On ch=6 n=71 v=84
262958 Off ch=6 n=71 v=84
262960 On ch=6 n=78 v=81
263038 Off ch=6 n=78 v=81
263040 On ch=6 n=59 v=84
263118 Off ch=6 n=59 v=84
263120 On ch=6 n=61 v=74
263198 Off ch=6 n=61 v=74
263200 On ch=6 n=63 v=75
263278 Off ch=6 n=63 v=75
263280 On ch=6 n=66 v=75
263358 Off ch=6 n=66 v=75
263360 On ch=6 n=71 v=75
263438 Off ch=6 n=71 v=75
263440 On ch=6 n=73 v=75
263518 Off ch=6 n=73 v=75
263520 On ch=6 n=75 v=67
263598 Off ch=6 n=75 v=67
263600 On ch=6 n=78 v=93
263678 Off ch=6 n=78 v=93
263680 On ch=6 n=83 v=88
263758 Off ch=6 n=83 v=88
263760 On ch=6 n=88 v=97
264343 Pb ch=6 v=6904
264350 Pb ch=6 v=4681
264357 Pb ch=6 v=2107
264364 Pb ch=6 v=0
264374 Off ch=6 n=88 v=97
264480 Pb ch=6 v=8192
266880 Par ch=6 c=7 v=112
266883 On ch=6 n=83 v=101
266883 On ch=6 n=71 v=101
267359 Off ch=6 n=83 v=101
267359 Off ch=6 n=71 v=101
267362 On ch=6 n=76 v=102
267362 On ch=6 n=64 v=102
267519 Off ch=6 n=76 v=102
267519 Off ch=6 n=64 v=102
267522 On ch=6 n=80 v=101
267522 On ch=6 n=68 v=101
267677 Off ch=6 n=80 v=101
267677 Off ch=6 n=68 v=101
267682 On ch=6 n=83 v=100
267682 On ch=6 n=71 v=100
267829 Off ch=6 n=83 v=100
267829 Off ch=6 n=71 v=100
267844 On ch=6 n=83 v=101
267844 On ch=6 n=71 v=101
268800 Off ch=6 n=83 v=101
268800 Off ch=6 n=71 v=101
268803 On ch=6 n=76 v=100
268803 On ch=6 n=88 v=100
268858 Off ch=6 n=76 v=100
268858 Off ch=6 n=88 v=100
268860 On ch=6 n=74 v=102
268862 On ch=6 n=86 v=102
268921 On ch=6 n=76 v=101
268921 On ch=6 n=88 v=101
268926 Off ch=6 n=74 v=102
268928 Off ch=6 n=86 v=102
269513 Off ch=6 n=76 v=101
269513 Off ch=6 n=88 v=101
269530 On ch=6 n=88 v=100
269530 On ch=6 n=76 v=100
269748 Off ch=6 n=88 v=100
269748 Off ch=6 n=76 v=100
269758 On ch=6 n=79 v=100
269758 On ch=6 n=91 v=100
269995 Off ch=6 n=79 v=100
269995 Off ch=6 n=91 v=100
270000 On ch=6 n=88 v=99
270000 On ch=6 n=76 v=99
270113 Off ch=6 n=88 v=99
270118 Off ch=6 n=76 v=99
270123 On ch=6 n=83 v=101
270123 On ch=6 n=71 v=101
270473 Off ch=6 n=83 v=101
270478 Off ch=6 n=71 v=101
270485 On ch=6 n=67 v=100
270485 On ch=6 n=79 v=100
270714 Off ch=6 n=67 v=100
270714 Off ch=6 n=79 v=100
270726 On ch=6 n=71 v=103
270726 On ch=6 n=83 v=103
270780 Off ch=6 n=71 v=103
270780 Off ch=6 n=83 v=103
270784 On ch=6 n=81 v=98
270784 On ch=6 n=69 v=98
270839 On ch=6 n=83 v=100
270839 On ch=6 n=71 v=100
270840 Off ch=6 n=81 v=98
270840 Off ch=6 n=69 v=98
271427 Off ch=6 n=83 v=100
271432 Off ch=6 n=71 v=100
271443 On ch=6 n=81 v=99
271443 On ch=6 n=69 v=99
271557 Off ch=6 n=81 v=99
271557 Off ch=6 n=69 v=99
271560 On ch=6 n=83 v=98
271560 On ch=6 n=71 v=98
271681 On ch=6 n=66 v=100
271681 On ch=6 n=78 v=100
271686 Off ch=6 n=83 v=98
271686 Off ch=6 n=71 v=98
271737 Off ch=6 n=66 v=100
271737 Off ch=6 n=78 v=100
271743 On ch=6 n=64 v=97
271743 On ch=6 n=76 v=97
271801 On ch=6 n=66 v=97
271801 On ch=6 n=78 v=97
271808 Off ch=6 n=64 v=97
271808 Off ch=6 n=76 v=97
272401 On ch=6 n=74 v=102
272401 On ch=6 n=62 v=102
272409 Off ch=6 n=66 v=97
272409 Off ch=6 n=78 v=97
272639 Off ch=6 n=74 v=102
272639 Off ch=6 n=62 v=102
272643 On ch=6 n=83 v=101
272643 On ch=6 n=71 v=101
273119 Off ch=6 n=83 v=101
273119 Off ch=6 n=71 v=101
273122 On ch=6 n=76 v=102
273122 On ch=6 n=64 v=102
273279 Off ch=6 n=76 v=102
273279 Off ch=6 n=64 v=102
273282 On ch=6 n=80 v=101
273282 On ch=6 n=68 v=101
273437 Off ch=6 n=80 v=101
273437 Off ch=6 n=68 v=101
273442 On ch=6 n=83 v=100
273442 On ch=6 n=71 v=100
273589 Off ch=6 n=83 v=100
273589 Off ch=6 n=71 v=100
273604 On ch=6 n=83 v=101
273604 On ch=6 n=71 v=101
274560 Off ch=6 n=83 v=101
274560 Off ch=6 n=71 v=101
274563 On ch=6 n=76 v=100
274563 On ch=6 n=88 v=100
274617 On ch=6 n=86 v=102
274618 Off ch=6 n=76 v=100
274618 Off ch=6 n=88 v=100
274620 On ch=6 n=74 v=102
274681 On ch=6 n=76 v=101
274681 On ch=6 n=88 v=101
274683 Off ch=6 n=86 v=102
274686 Off ch=6 n=74 v=102
275273 Off ch=6 n=76 v=101
275273 Off ch=6 n=88 v=101
275290 On ch=6 n=88 v=100
275290 On ch=6 n=76 v=100
275508 Off ch=6 n=88 v=100
275508 Off ch=6 n=76 v=100
275518 On ch=6 n=91 v=100
275518 On ch=6 n=79 v=100
275760 On ch=6 n=88 v=99
275760 On ch=6 n=76 v=99
275770 Off ch=6 n=91 v=100
275770 Off ch=6 n=79 v=100
275883 Off ch=6 n=88 v=99
275883 Off ch=6 n=76 v=99
275883 On ch=6 n=83 v=101
275883 On ch=6 n=71 v=101
276245 On ch=6 n=79 v=100
276245 On ch=6 n=67 v=100
276248 Off ch=6 n=83 v=101
276248 Off ch=6 n=71 v=101
276479 Off ch=6 n=79 v=100
276479 Off ch=6 n=67 v=100
276486 On ch=6 n=71 v=103
276486 On ch=6 n=83 v=103
276540 Off ch=6 n=71 v=103
276540 Off ch=6 n=83 v=103
276544 On ch=6 n=81 v=98
276544 On ch=6 n=69 v=98
276599 On ch=6 n=71 v=100
276599 On ch=6 n=83 v=100
276600 Off ch=6 n=81 v=98
276600 Off ch=6 n=69 v=98
277203 On ch=6 n=81 v=99
277203 On ch=6 n=69 v=99
277212 Off ch=6 n=71 v=100
277212 Off ch=6 n=83 v=100
277317 Off ch=6 n=81 v=99
277317 Off ch=6 n=69 v=99
277320 On ch=6 n=83 v=98
277320 On ch=6 n=71 v=98
277441 On ch=6 n=66 v=100
277441 On ch=6 n=78 v=100
277446 Off ch=6 n=83 v=98
277446 Off ch=6 n=71 v=98
277497 Off ch=6 n=66 v=100
277497 Off ch=6 n=78 v=100
277503 On ch=6 n=64 v=97
277503 On ch=6 n=76 v=97
277561 On ch=6 n=66 v=97
277561 On ch=6 n=78 v=97
277568 Off ch=6 n=64 v=97
277568 Off ch=6 n=76 v=97
278161 On ch=6 n=74 v=102
278161 On ch=6 n=62 v=102
278169 Off ch=6 n=66 v=97
278169 Off ch=6 n=78 v=97
278399 Off ch=6 n=74 v=102
278399 Off ch=6 n=62 v=102
278403 On ch=6 n=83 v=101
278403 On ch=6 n=71 v=101
278879 Off ch=6 n=83 v=101
278879 Off ch=6 n=71 v=101
278882 On ch=6 n=76 v=102
278882 On ch=6 n=64 v=102
279039 Off ch=6 n=76 v=102
279039 Off ch=6 n=64 v=102
279042 On ch=6 n=80 v=101
279042 On ch=6 n=68 v=101
279197 Off ch=6 n=80 v=101
279197 Off ch=6 n=68 v=101
279202 On ch=6 n=83 v=100
279202 On ch=6 n=71 v=100
279349 Off ch=6 n=83 v=100
279349 Off ch=6 n=71 v=100
279364 On ch=6 n=83 v=101
279364 On ch=6 n=71 v=101
280320 Off ch=6 n=83 v=101
280320 Off ch=6 n=71 v=101
280323 On ch=6 n=76 v=100
280323 On ch=6 n=88 v=100
280377 On ch=6 n=86 v=102
280378 Off ch=6 n=76 v=100
280378 Off ch=6 n=88 v=100
280380 On ch=6 n=74 v=102
280441 On ch=6 n=76 v=101
280441 On ch=6 n=88 v=101
280443 Off ch=6 n=86 v=102
280446 Off ch=6 n=74 v=102
281033 Off ch=6 n=76 v=101
281033 Off ch=6 n=88 v=101
281050 On ch=6 n=88 v=100
281050 On ch=6 n=76 v=100
281268 Off ch=6 n=88 v=100
281268 Off ch=6 n=76 v=100
281278 On ch=6 n=91 v=100
281278 On ch=6 n=79 v=100
281520 On ch=6 n=88 v=99
281520 On ch=6 n=76 v=99
281530 Off ch=6 n=91 v=100
281530 Off ch=6 n=79 v=100
281643 Off ch=6 n=88 v=99
281643 Off ch=6 n=76 v=99
281643 On ch=6 n=83 v=101
281643 On ch=6 n=71 v=101
282005 On ch=6 n=79 v=100
282005 On ch=6 n=67 v=100
282008 Off ch=6 n=83 v=101
282008 Off ch=6 n=71 v=101
282239 Off ch=6 n=79 v=100
282239 Off ch=6 n=67 v=100
282246 On ch=6 n=71 v=103
282246 On ch=6 n=83 v=103
282300 Off ch=6 n=71 v=103
282300 Off ch=6 n=83 v=103
282304 On ch=6 n=81 v=98
282304 On ch=6 n=69 v=98
282359 On ch=6 n=83 v=74
282359 On ch=6 n=71 v=57
282360 Off ch=6 n=81 v=98
282360 Off ch=6 n=69 v=98
283273 Off ch=6 n=71 v=57
286239 Off ch=6 n=83 v=74
306720 Meta TrkEnd
TrkEnd
MTrk
0 Meta TrkName "Wakeman2"
0 Meta 0x20 06
0 Meta InstrName "Wakeman2"
0 KeySig 2 major
495 Par ch=7 c=0 v=8
500 Par ch=7 c=32 v=0
505 PrCh ch=7 p=16
510 Par ch=7 c=7 v=127
515 Par ch=7 c=10 v=64
520 Par ch=7 c=91 v=40
525 Par ch=7 c=93 v=0
530 Par ch=7 c=101 v=0
530 Par ch=7 c=100 v=0
530 Par ch=7 c=6 v=2
535 Par ch=7 c=99 v=1
535 Par ch=7 c=98 v=8
535 Par ch=7 c=6 v=64
540 Par ch=7 c=99 v=1
540 Par ch=7 c=98 v=9
540 Par ch=7 c=6 v=64
545 Par ch=7 c=99 v=1
545 Par ch=7 c=98 v=10
545 Par ch=7 c=6 v=64
550 Par ch=7 c=99 v=1
550 Par ch=7 c=98 v=32
550 Par ch=7 c=6 v=64
555 Par ch=7 c=99 v=1
555 Par ch=7 c=98 v=33
555 Par ch=7 c=6 v=64
560 Par ch=7 c=99 v=1
560 Par ch=7 c=98 v=99
560 Par ch=7 c=6 v=64
565 Par ch=7 c=99 v=1
565 Par ch=7 c=98 v=100
565 Par ch=7 c=6 v=64
570 Par ch=7 c=99 v=1
570 Par ch=7 c=98 v=102
570 Par ch=7 c=6 v=64
1920 Par ch=7 c=7 v=0
5760 On ch=7 n=100 v=112
5760 On ch=7 n=93 v=109
5760 On ch=7 n=91 v=100
5760 On ch=7 n=86 v=104
6486 Par ch=7 c=7 v=1
6668 Par ch=7 c=7 v=3
6771 Par ch=7 c=7 v=6
6874 Par ch=7 c=7 v=8
6954 Par ch=7 c=7 v=11
7044 Par ch=7 c=7 v=13
7100 Par ch=7 c=7 v=16
7169 Par ch=7 c=7 v=18
7236 Par ch=7 c=7 v=21
7429 Par ch=7 c=7 v=23
7530 Par ch=7 c=7 v=26
7698 Par ch=7 c=7 v=28
15842 Off ch=7 n=86 v=104
15848 Off ch=7 n=100 v=112
15848 Off ch=7 n=91 v=100
15852 Off ch=7 n=93 v=109
15944 On ch=7 n=93 v=82
15948 On ch=7 n=91 v=81
15949 On ch=7 n=100 v=82
15949 On ch=7 n=86 v=80
15960 Par ch=7 c=7 v=40
26380 Off ch=7 n=93 v=82
26385 Off ch=7 n=86 v=80
26390 Off ch=7 n=100 v=82
26395 Off ch=7 n=91 v=81
86880 PrCh ch=7 p=48
86880 Par ch=7 c=7 v=90
86880 On ch=7 n=74 v=110
86881 On ch=7 n=79 v=106
88799 On ch=7 n=72 v=84
88800 Off ch=7 n=79 v=106
88800 Off ch=7 n=74 v=110
88800 On ch=7 n=79 v=106
89753 On ch=7 n=81 v=91
89754 Off ch=7 n=79 v=106
89757 Off ch=7 n=72 v=84
89762 On ch=7 n=76 v=76
90720 Off ch=7 n=81 v=91
90720 Off ch=7 n=76 v=76
90730 On ch=7 n=74 v=81
90740 On ch=7 n=79 v=70
92634 On ch=7 n=72 v=80
92635 Off ch=7 n=74 v=81
93357 Off ch=7 n=79 v=70
93357 On ch=7 n=81 v=95
93362 Off ch=7 n=72 v=80
93364 On ch=7 n=76 v=93
94548 Off ch=7 n=76 v=93
94555 Off ch=7 n=81 v=95
94555 On ch=7 n=79 v=92
94560 On ch=7 n=74 v=88
96235 On ch=7 n=86 v=77
96246 On ch=7 n=79 v=78
96248 Off ch=7 n=79 v=92
96249 Off ch=7 n=74 v=88
98151 Off ch=7 n=86 v=77
98159 Off ch=7 n=79 v=78
98160 On ch=7 n=81 v=108
98161 On ch=7 n=74 v=86
100320 Off ch=7 n=81 v=108
100332 On ch=7 n=79 v=87
101157 On ch=7 n=81 v=83
101162 Off ch=7 n=79 v=87
102214 Off ch=7 n=81 v=83
102214 On ch=7 n=76 v=70
102232 Off ch=7 n=74 v=86
102237 On ch=7 n=81 v=85
103184 Par ch=7 c=7 v=81
103226 Par ch=7 c=7 v=79
103361 Par ch=7 c=7 v=76
103413 Par ch=7 c=7 v=74
103549 Par ch=7 c=7 v=71
103674 Par ch=7 c=7 v=69
103727 Par ch=7 c=7 v=66
103945 Par ch=7 c=7 v=64
104091 Par ch=7 c=7 v=61
104174 Par ch=7 c=7 v=59
104279 Par ch=7 c=7 v=56
104352 Par ch=7 c=7 v=54
104425 Par ch=7 c=7 v=51
104487 Par ch=7 c=7 v=49
104540 Par ch=7 c=7 v=46
104655 Par ch=7 c=7 v=44
104717 Par ch=7 c=7 v=41
104759 Par ch=7 c=7 v=39
104926 Par ch=7 c=7 v=36
105019 Par ch=7 c=7 v=34
105103 Par ch=7 c=7 v=31
105239 Par ch=7 c=7 v=29
105301 Par ch=7 c=7 v=26
105367 Off ch=7 n=76 v=70
105369 Off ch=7 n=81 v=85
105478 Par ch=7 c=7 v=24
106080 KeySig 3 major
115200 PrCh ch=7 p=49
115320 Par ch=7 c=7 v=97
115745 On ch=7 n=69 v=94
116640 PrCh ch=7 p=48
118560 Off ch=7 n=69 v=94
118560 KeySig 0 major
118560 On ch=7 n=66 v=72
118561 On ch=7 n=69 v=70
118562 On ch=7 n=62 v=78
119515 On ch=7 n=67 v=80
119521 On ch=7 n=71 v=75
119527 Off ch=7 n=66 v=72
119533 Off ch=7 n=69 v=70
120479 On ch=7 n=65 v=72
120480 Off ch=7 n=62 v=78
120480 Off ch=7 n=67 v=80
120480 Off ch=7 n=71 v=75
120484 On ch=7 n=69 v=79
120486 On ch=7 n=60 v=73
121433 On ch=7 n=71 v=76
121438 On ch=7 n=62 v=91
121438 On ch=7 n=67 v=81
121449 Off ch=7 n=60 v=73
121457 Off ch=7 n=69 v=79
121463 Off ch=7 n=65 v=72
121865 Off ch=7 n=67 v=81
121913 On ch=7 n=66 v=66
122398 On ch=7 n=69 v=81
122399 On ch=7 n=60 v=79
122400 Off ch=7 n=62 v=91
122400 Off ch=7 n=71 v=76
122400 Off ch=7 n=66 v=66
122401 On ch=7 n=65 v=76
123346 On ch=7 n=67 v=100
123353 On ch=7 n=64 v=80
123366 Off ch=7 n=69 v=81
123369 Off ch=7 n=65 v=76
124320 Off ch=7 n=60 v=79
124320 Off ch=7 n=67 v=100
124320 Off ch=7 n=64 v=80
124332 On ch=7 n=69 v=97
124334 On ch=7 n=61 v=107
124339 On ch=7 n=64 v=95
125268 On ch=7 n=66 v=101
125270 Off ch=7 n=61 v=107
125273 Off ch=7 n=64 v=95
125278 On ch=7 n=62 v=74
126237 On ch=7 n=60 v=81
126240 Off ch=7 n=69 v=97
126240 Off ch=7 n=62 v=74
126240 Off ch=7 n=66 v=101
126240 On ch=7 n=64 v=76
126241 On ch=7 n=67 v=94
127182 On ch=7 n=66 v=89
127187 On ch=7 n=69 v=80
127188 Off ch=7 n=60 v=81
127193 Off ch=7 n=64 v=76
127196 On ch=7 n=62 v=81
127205 Off ch=7 n=67 v=94
127661 On ch=7 n=61 v=93
127680 Off ch=7 n=62 v=81
128147 On ch=7 n=64 v=71
128157 On ch=7 n=67 v=100
128159 On ch=7 n=60 v=88
128160 Off ch=7 n=69 v=80
128160 Off ch=7 n=66 v=89
128160 Off ch=7 n=61 v=93
129074 Off ch=7 n=60 v=88
129096 On ch=7 n=59 v=84
129099 Off ch=7 n=64 v=71
129100 On ch=7 n=62 v=85
130071 Off ch=7 n=59 v=84
130076 Off ch=7 n=62 v=85
130079 Off ch=7 n=67 v=100
130080 On ch=7 n=64 v=95
130080 On ch=7 n=71 v=87
130080 On ch=7 n=68 v=99
131001 Off ch=7 n=68 v=99
131018 Off ch=7 n=71 v=87
131029 On ch=7 n=66 v=91
131037 On ch=7 n=62 v=104
131039 On ch=7 n=69 v=98
131058 Off ch=7 n=64 v=95
131992 On ch=7 n=61 v=85
131995 Off ch=7 n=66 v=91
131995 On ch=7 n=64 v=80
132000 Off ch=7 n=62 v=104
132913 Off ch=7 n=69 v=98
132919 Off ch=7 n=61 v=85
132920 Off ch=7 n=64 v=80
132946 On ch=7 n=67 v=86
132951 On ch=7 n=60 v=98
132952 On ch=7 n=64 v=87
133907 On ch=7 n=62 v=75
133907 On ch=7 n=59 v=79
133909 Off ch=7 n=64 v=87
133920 Off ch=7 n=60 v=98
134862 On ch=7 n=66 v=79
134868 On ch=7 n=69 v=73
134880 Off ch=7 n=59 v=79
134881 Off ch=7 n=67 v=86
135817 Off ch=7 n=62 v=75
135819 Off ch=7 n=66 v=79
135820 Off ch=7 n=69 v=73
135844 On ch=7 n=71 v=91
135844 On ch=7 n=66 v=99
135849 On ch=7 n=63 v=104
136795 On ch=7 n=68 v=97
136797 Off ch=7 n=66 v=99
136799 Off ch=7 n=63 v=104
136800 On ch=7 n=64 v=88
137718 Off ch=7 n=71 v=91
137733 Off ch=7 n=68 v=97
137734 On ch=7 n=66 v=99
137751 On ch=7 n=62 v=80
137760 Off ch=7 n=64 v=88
137786 On ch=7 n=69 v=80
138695 Off ch=7 n=69 v=80
138701 Off ch=7 n=66 v=99
138710 Off ch=7 n=62 v=80
138715 On ch=7 n=68 v=89
138717 On ch=7 n=71 v=86
138719 On ch=7 n=64 v=90
139191 Off ch=7 n=64 v=90
139193 Off ch=7 n=68 v=89
139204 On ch=7 n=66 v=79
139204 On ch=7 n=63 v=104
139677 Off ch=7 n=71 v=86
139680 Off ch=7 n=63 v=104
139684 On ch=7 n=69 v=90
139684 On ch=7 n=62 v=74
140624 Off ch=7 n=66 v=79
140627 Off ch=7 n=62 v=74
140636 On ch=7 n=61 v=95
140636 On ch=7 n=64 v=84
141590 Off ch=7 n=69 v=90
141590 Off ch=7 n=61 v=95
141594 Off ch=7 n=64 v=84
141600 On ch=7 n=68 v=113
141601 On ch=7 n=71 v=92
141602 On ch=7 n=64 v=94
142528 Off ch=7 n=68 v=113
142533 Off ch=7 n=64 v=94
142535 Off ch=7 n=71 v=92
142559 On ch=7 n=61 v=107
142564 On ch=7 n=54 v=94
143036 Off ch=7 n=54 v=94
143040 Off ch=7 n=61 v=107
143040 On ch=7 n=63 v=107
143040 On ch=7 n=54 v=107
143989 Off ch=7 n=54 v=107
143990 Off ch=7 n=63 v=107
143999 On ch=7 n=64 v=124
144000 On ch=7 n=61 v=112
144472 Off ch=7 n=61 v=112
144474 Off ch=7 n=64 v=124
144480 On ch=7 n=64 v=119
144480 On ch=7 n=68 v=123
145421 Off ch=7 n=68 v=123
145428 Off ch=7 n=64 v=119
145440 On ch=7 n=61 v=120
145441 On ch=7 n=57 v=106
145912 Off ch=7 n=61 v=120
145912 Off ch=7 n=57 v=106
145919 On ch=7 n=59 v=118
145920 On ch=7 n=63 v=107
146870 Off ch=7 n=63 v=107
146873 Off ch=7 n=59 v=118
146879 On ch=7 n=64 v=124
146880 On ch=7 n=61 v=112
147352 Off ch=7 n=61 v=112
147354 Off ch=7 n=64 v=124
147360 On ch=7 n=64 v=118
147360 On ch=7 n=68 v=124
148312 Off ch=7 n=64 v=118
148312 Off ch=7 n=68 v=124
148320 On ch=7 n=69 v=107
148321 On ch=7 n=64 v=106
148792 Off ch=7 n=64 v=106
148792 Off ch=7 n=69 v=107
148800 On ch=7 n=63 v=107
148800 On ch=7 n=66 v=107
149749 Off ch=7 n=66 v=107
149750 Off ch=7 n=63 v=107
149760 On ch=7 n=61 v=112
149761 On ch=7 n=64 v=124
150232 Off ch=7 n=61 v=112
150236 Off ch=7 n=64 v=124
150240 On ch=7 n=68 v=123
150240 On ch=7 n=64 v=118
151192 Off ch=7 n=68 v=123
151195 Off ch=7 n=64 v=118
151200 On ch=7 n=64 v=107
151200 On ch=7 n=61 v=120
151672 Off ch=7 n=64 v=107
151679 On ch=7 n=59 v=118
151680 Off ch=7 n=61 v=120
151680 On ch=7 n=63 v=107
152630 Off ch=7 n=63 v=107
152639 On ch=7 n=64 v=124
152640 On ch=7 n=61 v=112
152641 Off ch=7 n=59 v=118
153112 Off ch=7 n=61 v=112
153114 Off ch=7 n=64 v=124
153120 On ch=7 n=64 v=118
153120 On ch=7 n=68 v=123
154076 Off ch=7 n=68 v=123
154081 On ch=7 n=64 v=106
154081 On ch=7 n=69 v=107
154083 Off ch=7 n=64 v=118
154552 Off ch=7 n=64 v=106
154553 Off ch=7 n=69 v=107
154560 On ch=7 n=66 v=107
154560 On ch=7 n=63 v=107
155509 Off ch=7 n=66 v=107
155510 Off ch=7 n=63 v=107
155519 On ch=7 n=64 v=124
155520 On ch=7 n=61 v=112
155992 Off ch=7 n=61 v=112
155994 Off ch=7 n=64 v=124
155999 On ch=7 n=64 v=117
156000 On ch=7 n=68 v=127
156480 On ch=7 n=64 v=121
156491 Off ch=7 n=68 v=127
156960 Off ch=7 n=64 v=121
156960 On ch=7 n=66 v=107
156960 On ch=7 n=61 v=120
156973 Off ch=7 n=64 v=117
157432 Off ch=7 n=66 v=107
157439 On ch=7 n=59 v=118
157440 Off ch=7 n=61 v=120
157440 On ch=7 n=63 v=107
158390 Off ch=7 n=63 v=107
158399 On ch=7 n=57 v=113
158400 On ch=7 n=61 v=112
158401 Off ch=7 n=59 v=118
158872 Off ch=7 n=61 v=112
158878 Off ch=7 n=57 v=113
158880 On ch=7 n=68 v=123
158880 On ch=7 n=64 v=118
159836 Off ch=7 n=68 v=123
159840 On ch=7 n=69 v=107
159841 On ch=7 n=64 v=106
159843 Off ch=7 n=64 v=118
160312 Off ch=7 n=64 v=106
160312 Off ch=7 n=69 v=107
160320 On ch=7 n=63 v=107
160320 On ch=7 n=66 v=107
161269 Off ch=7 n=66 v=107
161270 Off ch=7 n=63 v=107
161279 On ch=7 n=64 v=124
161280 On ch=7 n=59 v=112
161752 Off ch=7 n=59 v=112
161754 Off ch=7 n=64 v=124
161760 KeySig 4 major
161760 PrCh ch=7 p=48
161760 On ch=7 n=68 v=72
161760 On ch=7 n=71 v=70
161760 On ch=7 n=64 v=78
162717 Off ch=7 n=68 v=72
162717 Off ch=7 n=71 v=70
162719 On ch=7 n=69 v=80
162720 On ch=7 n=73 v=75
163680 Off ch=7 n=64 v=78
163680 Off ch=7 n=69 v=80
163680 Off ch=7 n=73 v=75
163680 On ch=7 n=71 v=79
163680 On ch=7 n=67 v=73
163681 On ch=7 n=62 v=73
164633 Off ch=7 n=71 v=79
164634 Off ch=7 n=62 v=73
164634 Off ch=7 n=67 v=73
164639 On ch=7 n=73 v=76
164640 On ch=7 n=64 v=91
164640 On ch=7 n=69 v=81
165107 Off ch=7 n=69 v=81
165119 On ch=7 n=68 v=66
165595 Off ch=7 n=73 v=76
165595 Off ch=7 n=68 v=66
165596 Off ch=7 n=64 v=91
165600 On ch=7 n=71 v=81
165600 On ch=7 n=67 v=76
165600 On ch=7 n=62 v=79
166543 Off ch=7 n=71 v=81
166548 Off ch=7 n=67 v=76
166559 On ch=7 n=69 v=100
166559 On ch=7 n=66 v=80
167514 Off ch=7 n=66 v=80
167515 Off ch=7 n=69 v=100
167520 Off ch=7 n=62 v=79
167520 KeySig 5 major
167520 On ch=7 n=63 v=99
167520 On ch=7 n=59 v=95
167520 On ch=7 n=66 v=87
168458 Off ch=7 n=59 v=95
168458 Off ch=7 n=66 v=87
168466 Off ch=7 n=63 v=99
168479 On ch=7 n=61 v=90
168480 On ch=7 n=64 v=98
168480 On ch=7 n=57 v=104
169430 Off ch=7 n=61 v=90
169435 Off ch=7 n=57 v=104
169439 On ch=7 n=56 v=85
169439 On ch=7 n=59 v=80
170378 Off ch=7 n=64 v=98
170384 Off ch=7 n=59 v=80
170386 Off ch=7 n=56 v=85
170399 On ch=7 n=62 v=90
170399 On ch=7 n=59 v=92
170399 On ch=7 n=55 v=110
173193 Off ch=7 n=59 v=92
173194 Off ch=7 n=62 v=90
173194 Off ch=7 n=55 v=110
173280 Par ch=7 c=7 v=0
176640 PrCh ch=7 p=16
177120 KeySig 0 major
177120 On ch=7 n=100 v=112
177120 On ch=7 n=93 v=109
177120 On ch=7 n=91 v=100
177120 On ch=7 n=86 v=104
177846 Par ch=7 c=7 v=1
178028 Par ch=7 c=7 v=3
178131 Par ch=7 c=7 v=6
178234 Par ch=7 c=7 v=8
178314 Par ch=7 c=7 v=11
178404 Par ch=7 c=7 v=13
178460 Par ch=7 c=7 v=16
178529 Par ch=7 c=7 v=18
178596 Par ch=7 c=7 v=21
178789 Par ch=7 c=7 v=23
178890 Par ch=7 c=7 v=26
179058 Par ch=7 c=7 v=28
187202 Off ch=7 n=86 v=104
187208 Off ch=7 n=100 v=112
187208 Off ch=7 n=91 v=100
187212 Off ch=7 n=93 v=109
187304 On ch=7 n=93 v=82
187308 On ch=7 n=91 v=81
187309 On ch=7 n=100 v=82
187309 On ch=7 n=86 v=80
187320 Par ch=7 c=7 v=40
191890 Par ch=7 c=7 v=37
192427 Par ch=7 c=7 v=32
192600 Par ch=7 c=7 v=27
192840 Par ch=7 c=7 v=24
193097 Par ch=7 c=7 v=22
193571 Par ch=7 c=7 v=19
193785 Par ch=7 c=7 v=15
193920 Par ch=7 c=7 v=11
194040 Par ch=7 c=7 v=7
194114 Par ch=7 c=7 v=3
194280 Par ch=7 c=7 v=0
194400 Off ch=7 n=100 v=82
194400 Off ch=7 n=91 v=81
194400 Off ch=7 n=93 v=82
194400 Off ch=7 n=86 v=80
225840 Par ch=7 c=7 v=64
226080 PrCh ch=7 p=48
226080 On ch=7 n=56 v=79
226080 On ch=7 n=61 v=80
226080 On ch=7 n=64 v=81
227040 Off ch=7 n=61 v=80
227041 Off ch=7 n=56 v=79
227041 Off ch=7 n=64 v=81
227047 On ch=7 n=61 v=85
227048 On ch=7 n=66 v=81
227051 On ch=7 n=69 v=82
227504 Off ch=7 n=61 v=85
227507 Off ch=7 n=66 v=81
227512 Off ch=7 n=69 v=82
227516 On ch=7 n=63 v=81
227520 On ch=7 n=59 v=80
227520 On ch=7 n=68 v=79
228477 Off ch=7 n=63 v=81
228480 Off ch=7 n=59 v=80
228481 Off ch=7 n=68 v=79
228487 On ch=7 n=61 v=85
228488 On ch=7 n=66 v=81
228491 On ch=7 n=69 v=82
228944 Off ch=7 n=61 v=85
228947 Off ch=7 n=66 v=81
228952 Off ch=7 n=69 v=82
228969 On ch=7 n=61 v=78
228970 On ch=7 n=68 v=79
228973 On ch=7 n=64 v=80
230343 Off ch=7 n=61 v=78
230361 Off ch=7 n=68 v=79
230362 Off ch=7 n=64 v=80
230392 On ch=7 n=69 v=81
230393 On ch=7 n=66 v=81
230394 On ch=7 n=61 v=82
231792 Off ch=7 n=61 v=82
231802 Off ch=7 n=66 v=81
231810 Off ch=7 n=69 v=81
231840 On ch=7 n=68 v=79
231840 On ch=7 n=59 v=80
231840 On ch=7 n=64 v=81
232800 Off ch=7 n=59 v=80
232801 Off ch=7 n=68 v=79
232801 Off ch=7 n=64 v=81
232807 On ch=7 n=61 v=85
232808 On ch=7 n=66 v=81
232811 On ch=7 n=69 v=82
233264 Off ch=7 n=61 v=85
233267 Off ch=7 n=66 v=81
233272 Off ch=7 n=69 v=82
233280 On ch=7 n=63 v=81
233280 On ch=7 n=66 v=79
233280 On ch=7 n=59 v=80
234240 Off ch=7 n=59 v=80
234241 Off ch=7 n=63 v=81
234241 Off ch=7 n=66 v=79
234247 On ch=7 n=61 v=85
234248 On ch=7 n=66 v=81
234251 On ch=7 n=69 v=82
234704 Off ch=7 n=61 v=85
234707 Off ch=7 n=66 v=81
234712 Off ch=7 n=69 v=82
234720 On ch=7 n=56 v=79
234720 On ch=7 n=59 v=80
234720 On ch=7 n=64 v=81
235680 Off ch=7 n=59 v=80
235681 Off ch=7 n=56 v=79
235681 Off ch=7 n=64 v=81
235687 On ch=7 n=61 v=85
235688 On ch=7 n=66 v=81
235691 On ch=7 n=69 v=82
236144 Off ch=7 n=61 v=85
236147 Off ch=7 n=66 v=81
236152 Off ch=7 n=69 v=82
236160 On ch=7 n=63 v=81
236160 On ch=7 n=66 v=79
236160 On ch=7 n=59 v=80
237120 Off ch=7 n=59 v=80
237121 Off ch=7 n=63 v=81
237121 Off ch=7 n=66 v=79
237127 On ch=7 n=59 v=85
237128 On ch=7 n=66 v=81
237131 On ch=7 n=64 v=82
237584 Off ch=7 n=59 v=85
237587 Off ch=7 n=66 v=81
237592 Off ch=7 n=64 v=82
237600 On ch=7 n=68 v=79
237600 On ch=7 n=59 v=80
237600 On ch=7 n=64 v=81
238560 Off ch=7 n=59 v=80
238561 Off ch=7 n=68 v=79
238561 Off ch=7 n=64 v=81
238567 On ch=7 n=61 v=85
238568 On ch=7 n=66 v=81
238571 On ch=7 n=69 v=82
239024 Off ch=7 n=61 v=85
239027 Off ch=7 n=66 v=81
239032 Off ch=7 n=69 v=82
239040 On ch=7 n=63 v=81
239040 On ch=7 n=66 v=79
239040 On ch=7 n=59 v=80
240000 Off ch=7 n=59 v=80
240001 Off ch=7 n=63 v=81
240001 Off ch=7 n=66 v=79
240007 On ch=7 n=61 v=85
240008 On ch=7 n=66 v=81
240011 On ch=7 n=69 v=82
240464 Off ch=7 n=61 v=85
240467 Off ch=7 n=66 v=81
240472 Off ch=7 n=69 v=82
240480 On ch=7 n=56 v=79
240480 On ch=7 n=59 v=80
240480 On ch=7 n=64 v=81
241440 Off ch=7 n=59 v=80
241441 Off ch=7 n=56 v=79
241441 Off ch=7 n=64 v=81
241447 On ch=7 n=61 v=85
241448 On ch=7 n=66 v=81
241451 On ch=7 n=69 v=82
241904 Off ch=7 n=61 v=85
241907 Off ch=7 n=66 v=81
241912 Off ch=7 n=69 v=82
241920 On ch=7 n=63 v=81
241920 On ch=7 n=66 v=79
241920 On ch=7 n=59 v=80
242880 Off ch=7 n=59 v=80
242881 Off ch=7 n=63 v=81
242881 Off ch=7 n=66 v=79
242887 On ch=7 n=59 v=85
242888 On ch=7 n=66 v=81
242891 On ch=7 n=64 v=82
243344 Off ch=7 n=59 v=85
243347 Off ch=7 n=66 v=81
243352 Off ch=7 n=64 v=82
243360 On ch=7 n=61 v=80
243360 On ch=7 n=68 v=79
243360 On ch=7 n=64 v=81
244320 Off ch=7 n=61 v=80
244321 Off ch=7 n=68 v=79
244321 Off ch=7 n=64 v=81
244327 On ch=7 n=61 v=85
244328 On ch=7 n=66 v=81
244331 On ch=7 n=69 v=82
244784 Off ch=7 n=61 v=85
244787 Off ch=7 n=66 v=81
244792 Off ch=7 n=69 v=82
244800 On ch=7 n=66 v=79
244800 On ch=7 n=64 v=81
244800 On ch=7 n=61 v=80
245760 Off ch=7 n=61 v=80
245761 Off ch=7 n=66 v=79
245761 Off ch=7 n=64 v=81
245767 On ch=7 n=61 v=85
245768 On ch=7 n=66 v=81
245771 On ch=7 n=69 v=82
246224 Off ch=7 n=61 v=85
246227 Off ch=7 n=66 v=81
246232 Off ch=7 n=69 v=82
246240 On ch=7 n=61 v=80
246240 On ch=7 n=68 v=79
246240 On ch=7 n=64 v=81
247200 Off ch=7 n=61 v=80
247201 Off ch=7 n=68 v=79
247201 Off ch=7 n=64 v=81
247207 On ch=7 n=61 v=85
247208 On ch=7 n=66 v=81
247211 On ch=7 n=69 v=82
247664 Off ch=7 n=61 v=85
247667 Off ch=7 n=66 v=81
247672 Off ch=7 n=69 v=82
247680 On ch=7 n=66 v=79
247680 On ch=7 n=64 v=81
247680 On ch=7 n=61 v=80
248640 Off ch=7 n=61 v=80
248641 Off ch=7 n=66 v=79
248641 Off ch=7 n=64 v=81
248647 On ch=7 n=61 v=85
248648 On ch=7 n=66 v=81
248651 On ch=7 n=69 v=82
249104 Off ch=7 n=61 v=85
249107 Off ch=7 n=66 v=81
249112 Off ch=7 n=69 v=82
249120 On ch=7 n=61 v=80
249120 On ch=7 n=68 v=79
249120 On ch=7 n=64 v=81
250080 Off ch=7 n=61 v=80
250081 Off ch=7 n=68 v=79
250081 Off ch=7 n=64 v=81
250087 On ch=7 n=61 v=85
250088 On ch=7 n=66 v=81
250091 On ch=7 n=69 v=82
250544 Off ch=7 n=61 v=85
250547 Off ch=7 n=66 v=81
250552 Off ch=7 n=69 v=82
250567 On ch=7 n=59 v=85
250568 On ch=7 n=63 v=81
250571 On ch=7 n=68 v=82
251024 Off ch=7 n=59 v=85
251027 Off ch=7 n=63 v=81
251032 Off ch=7 n=68 v=82
251040 On ch=7 n=61 v=80
251040 On ch=7 n=64 v=81
251040 On ch=7 n=69 v=85
252000 Off ch=7 n=61 v=80
252000 Off ch=7 n=64 v=81
252000 Off ch=7 n=69 v=85
252000 On ch=7 n=61 v=91
252000 On ch=7 n=64 v=92
252000 On ch=7 n=68 v=91
254871 Off ch=7 n=61 v=91
254871 Off ch=7 n=64 v=92
254871 Off ch=7 n=68 v=91
266880 On ch=7 n=71 v=87
266880 On ch=7 n=68 v=100
266880 On ch=7 n=64 v=95
267818 Off ch=7 n=64 v=95
267821 Off ch=7 n=68 v=100
267823 Off ch=7 n=71 v=87
267834 On ch=7 n=67 v=92
267837 On ch=7 n=62 v=104
267839 On ch=7 n=71 v=105
268315 On ch=7 n=61 v=102
268320 On ch=7 n=66 v=92
268323 Off ch=7 n=67 v=92
268324 Off ch=7 n=62 v=104
269259 Off ch=7 n=61 v=102
269271 Off ch=7 n=71 v=105
269271 Off ch=7 n=66 v=92
269282 On ch=7 n=69 v=98
269287 On ch=7 n=64 v=82
269290 On ch=7 n=61 v=84
269984 Off ch=7 n=69 v=98
269991 Off ch=7 n=64 v=82
269996 Off ch=7 n=61 v=84
270001 On ch=7 n=67 v=86
270001 On ch=7 n=59 v=98
270002 On ch=7 n=62 v=87
270705 Off ch=7 n=62 v=87
270705 Off ch=7 n=59 v=98
270710 Off ch=7 n=67 v=86
270720 On ch=7 n=66 v=89
270722 On ch=7 n=63 v=75
270722 On ch=7 n=59 v=79
272625 Off ch=7 n=59 v=79
272626 Off ch=7 n=66 v=89
272627 Off ch=7 n=63 v=75
272640 On ch=7 n=71 v=87
272640 On ch=7 n=68 v=100
272640 On ch=7 n=64 v=95
273578 Off ch=7 n=64 v=95
273581 Off ch=7 n=68 v=100
273583 Off ch=7 n=71 v=87
273594 On ch=7 n=67 v=92
273597 On ch=7 n=62 v=104
273599 On ch=7 n=71 v=105
274075 On ch=7 n=61 v=100
274080 On ch=7 n=66 v=92
274083 Off ch=7 n=67 v=92
274084 Off ch=7 n=62 v=104
275029 Off ch=7 n=61 v=100
275031 Off ch=7 n=66 v=92
275031 Off ch=7 n=71 v=105
275042 On ch=7 n=69 v=98
275047 On ch=7 n=64 v=81
275050 On ch=7 n=61 v=84
275736 Off ch=7 n=64 v=81
275754 Off ch=7 n=69 v=98
275756 Off ch=7 n=61 v=84
275761 On ch=7 n=59 v=98
275761 On ch=7 n=67 v=86
275762 On ch=7 n=62 v=87
276480 Off ch=7 n=62 v=87
276480 Off ch=7 n=59 v=98
276480 Off ch=7 n=67 v=86
276480 On ch=7 n=66 v=89
276482 On ch=7 n=63 v=75
276482 On ch=7 n=59 v=79
278386 Off ch=7 n=66 v=89
278400 Off ch=7 n=63 v=75
278400 Off ch=7 n=59 v=79
278400 On ch=7 n=71 v=87
278400 On ch=7 n=68 v=100
278400 On ch=7 n=64 v=95
279338 Off ch=7 n=64 v=95
279341 Off ch=7 n=68 v=100
279343 Off ch=7 n=71 v=87
279354 On ch=7 n=67 v=92
279357 On ch=7 n=62 v=104
279359 On ch=7 n=71 v=105
279835 On ch=7 n=61 v=100
279840 On ch=7 n=66 v=92
279843 Off ch=7 n=67 v=92
279844 Off ch=7 n=62 v=104
280789 Off ch=7 n=61 v=100
280791 Off ch=7 n=66 v=92
280791 Off ch=7 n=71 v=105
280802 On ch=7 n=69 v=98
280807 On ch=7 n=64 v=81
280810 On ch=7 n=61 v=84
281496 Off ch=7 n=64 v=81
281514 Off ch=7 n=69 v=98
281516 Off ch=7 n=61 v=84
281521 On ch=7 n=59 v=98
281521 On ch=7 n=67 v=86
281522 On ch=7 n=62 v=87
282227 On ch=7 n=71 v=104
282227 On ch=7 n=63 v=74
282240 Off ch=7 n=62 v=87
282240 Off ch=7 n=59 v=98
282240 Off ch=7 n=67 v=86
282240 On ch=7 n=66 v=86
283191 Off ch=7 n=66 v=86
283212 Off ch=7 n=63 v=74
288000 Off ch=7 n=71 v=104
303840 Par ch=7 c=7 v=64
304800 On ch=7 n=80 v=72
304800 On ch=7 n=71 v=74
304800 On ch=7 n=64 v=73
304800 On ch=7 n=52 v=76
305471 Par ch=7 c=7 v=65
305506 Par ch=7 c=7 v=62
305536 Par ch=7 c=7 v=60
305582 Par ch=7 c=7 v=57
305628 Par ch=7 c=7 v=55
305670 Par ch=7 c=7 v=52
305723 Par ch=7 c=7 v=50
305754 Par ch=7 c=7 v=47
305818 Par ch=7 c=7 v=45
305876 Par ch=7 c=7 v=42
305918 Par ch=7 c=7 v=40
305944 Par ch=7 c=7 v=37
305979 Par ch=7 c=7 v=35
306040 Par ch=7 c=7 v=32
306089 Par ch=7 c=7 v=30
306154 Par ch=7 c=7 v=27
306200 Par ch=7 c=7 v=25
306246 Par ch=7 c=7 v=22
306288 Par ch=7 c=7 v=20
306322 Par ch=7 c=7 v=17
306345 Par ch=7 c=7 v=15
306364 Par ch=7 c=7 v=12
306383 Par ch=7 c=7 v=9
306402 Par ch=7 c=7 v=6
306429 Par ch=7 c=7 v=3
306456 Par ch=7 c=7 v=1
306714 Off ch=7 n=80 v=72
306714 Off ch=7 n=71 v=74
306714 Off ch=7 n=64 v=73
306719 Off ch=7 n=52 v=76
306720 Meta TrkEnd
TrkEnd
MTrk
0 Meta TrkName "Squire2"
0 Meta 0x20 07
0 Meta InstrName "Squire2"
0 KeySig 0 major
575 Par ch=8 c=0 v=0
580 Par ch=8 c=32 v=0
585 PrCh ch=8 p=37
590 Par ch=8 c=7 v=100
595 Par ch=8 c=10 v=64
600 Par ch=8 c=91 v=40
605 Par ch=8 c=93 v=0
610 Par ch=8 c=101 v=0
610 Par ch=8 c=100 v=0
610 Par ch=8 c=6 v=2
615 Par ch=8 c=99 v=1
615 Par ch=8 c=98 v=8
615 Par ch=8 c=6 v=64
620 Par ch=8 c=99 v=1
620 Par ch=8 c=98 v=9
620 Par ch=8 c=6 v=64
625 Par ch=8 c=99 v=1
625 Par ch=8 c=98 v=10
625 Par ch=8 c=6 v=64
630 Par ch=8 c=99 v=1
630 Par ch=8 c=98 v=32
630 Par ch=8 c=6 v=64
635 Par ch=8 c=99 v=1
635 Par ch=8 c=98 v=33
635 Par ch=8 c=6 v=64
640 Par ch=8 c=99 v=1
640 Par ch=8 c=98 v=99
640 Par ch=8 c=6 v=64
645 Par ch=8 c=99 v=1
645 Par ch=8 c=98 v=100
645 Par ch=8 c=6 v=64
650 Par ch=8 c=99 v=1
650 Par ch=8 c=98 v=102
650 Par ch=8 c=6 v=64
63480 Par ch=8 c=1 v=64
63847 On ch=8 n=38 v=112
64660 Off ch=8 n=38 v=112
64802 On ch=8 n=38 v=114
64890 Pb ch=8 v=12638
64899 Pb ch=8 v=16383
65103 Off ch=8 n=38 v=114
65126 Pb ch=8 v=8192
65275 On ch=8 n=33 v=108
66099 Off ch=8 n=33 v=108
66240 On ch=8 n=33 v=122
66377 Pb ch=8 v=15329
66383 Pb ch=8 v=16383
66531 Off ch=8 n=33 v=122
66600 Pb ch=8 v=8192
66724 On ch=8 n=30 v=123
67475 Off ch=8 n=30 v=123
67673 On ch=8 n=30 v=123
67799 Pb ch=8 v=9544
67809 Pb ch=8 v=10936
67820 Pb ch=8 v=12288
68017 Off ch=8 n=30 v=123
68040 Pb ch=8 v=8192
68160 On ch=8 n=33 v=117
69057 Off ch=8 n=33 v=117
69128 On ch=8 n=33 v=122
69227 Pb ch=8 v=10532
69237 Pb ch=8 v=16383
69443 Pb ch=8 v=8192
69447 Off ch=8 n=33 v=122
69607 On ch=8 n=38 v=112
70420 Off ch=8 n=38 v=112
70562 On ch=8 n=38 v=114
70650 Pb ch=8 v=12638
70659 Pb ch=8 v=16383
70863 Off ch=8 n=38 v=114
70886 Pb ch=8 v=8192
71035 On ch=8 n=33 v=108
71859 Off ch=8 n=33 v=108
72000 On ch=8 n=33 v=122
72137 Pb ch=8 v=15329
72143 Pb ch=8 v=16383
72291 Off ch=8 n=33 v=122
72360 Pb ch=8 v=8192
72484 On ch=8 n=30 v=123
73235 Off ch=8 n=30 v=123
73433 On ch=8 n=30 v=123
73559 Pb ch=8 v=9544
73569 Pb ch=8 v=10936
73580 Pb ch=8 v=12288
73777 Off ch=8 n=30 v=123
73800 Pb ch=8 v=8192
73920 On ch=8 n=33 v=117
74817 Off ch=8 n=33 v=117
74888 On ch=8 n=33 v=122
74987 Pb ch=8 v=10532
74997 Pb ch=8 v=16383
75203 Pb ch=8 v=8192
75207 Off ch=8 n=33 v=122
75368 On ch=8 n=38 v=98
76119 Off ch=8 n=38 v=98
76313 On ch=8 n=38 v=123
76427 Pb ch=8 v=10532
76437 Pb ch=8 v=16383
76643 Pb ch=8 v=8192
76657 Off ch=8 n=38 v=123
76802 On ch=8 n=26 v=112
77687 Off ch=8 n=26 v=112
77776 On ch=8 n=26 v=108
77881 Pb ch=8 v=8543
77891 Pb ch=8 v=15446
77901 Pb ch=8 v=16383
78078 Off ch=8 n=26 v=108
78097 Pb ch=8 v=8192
78244 On ch=8 n=33 v=91
78995 Off ch=8 n=33 v=91
79193 On ch=8 n=33 v=123
79321 Pb ch=8 v=8543
79331 Pb ch=8 v=15446
79341 Pb ch=8 v=16383
79537 Pb ch=8 v=8192
79537 Off ch=8 n=33 v=123
79682 On ch=8 n=26 v=112
80567 Off ch=8 n=26 v=112
80656 On ch=8 n=26 v=108
80761 Pb ch=8 v=8543
80771 Pb ch=8 v=15446
80781 Pb ch=8 v=16383
80958 Off ch=8 n=26 v=108
80977 Pb ch=8 v=8192
81127 On ch=8 n=38 v=112
81940 Off ch=8 n=38 v=112
82082 On ch=8 n=38 v=114
82170 Pb ch=8 v=12638
82179 Pb ch=8 v=16383
82383 Off ch=8 n=38 v=114
82406 Pb ch=8 v=8192
82555 On ch=8 n=33 v=108
83379 Off ch=8 n=33 v=108
83520 On ch=8 n=33 v=122
83657 Pb ch=8 v=15329
83663 Pb ch=8 v=16383
83811 Off ch=8 n=33 v=122
83880 Pb ch=8 v=8192
84004 On ch=8 n=30 v=123
84755 Off ch=8 n=30 v=123
84953 On ch=8 n=30 v=123
85079 Pb ch=8 v=9544
85089 Pb ch=8 v=10936
85100 Pb ch=8 v=12288
85297 Off ch=8 n=30 v=123
85320 Pb ch=8 v=8192
85440 On ch=8 n=33 v=117
86337 Off ch=8 n=33 v=117
86408 On ch=8 n=33 v=24
86727 Off ch=8 n=33 v=24
86760 Par ch=8 c=1 v=0
118562 On ch=8 n=38 v=110
119521 On ch=8 n=31 v=127
119525 Off ch=8 n=38 v=110
120480 Off ch=8 n=31 v=127
120486 On ch=8 n=29 v=104
121438 Off ch=8 n=29 v=104
121439 On ch=8 n=31 v=122
121918 On ch=8 n=30 v=107
121919 Off ch=8 n=31 v=122
122398 Off ch=8 n=30 v=107
122398 On ch=8 n=29 v=100
123355 Off ch=8 n=29 v=100
123356 On ch=8 n=36 v=109
123832 Off ch=8 n=36 v=109
123843 On ch=8 n=36 v=106
124313 Off ch=8 n=36 v=106
124321 On ch=8 n=33 v=122
125281 On ch=8 n=38 v=102
125286 Off ch=8 n=33 v=122
126240 Off ch=8 n=38 v=102
126246 On ch=8 n=36 v=102
127203 On ch=8 n=38 v=102
127208 Off ch=8 n=36 v=102
127677 Off ch=8 n=38 v=102
127679 On ch=8 n=37 v=113
128152 Off ch=8 n=37 v=113
128162 On ch=8 n=36 v=106
129119 On ch=8 n=31 v=119
129124 Off ch=8 n=36 v=106
129575 Off ch=8 n=31 v=119
129595 On ch=8 n=31 v=120
130066 Off ch=8 n=31 v=120
130069 On ch=8 n=40 v=100
131045 Off ch=8 n=40 v=100
131045 On ch=8 n=38 v=117
132000 Off ch=8 n=38 v=117
132001 On ch=8 n=37 v=108
132944 Off ch=8 n=37 v=108
132962 On ch=8 n=36 v=108
133920 Off ch=8 n=36 v=108
133923 On ch=8 n=31 v=117
134880 Off ch=8 n=31 v=117
134883 On ch=8 n=38 v=106
135839 Off ch=8 n=38 v=106
135841 On ch=8 n=35 v=127
136795 Off ch=8 n=35 v=127
136802 On ch=8 n=40 v=122
137760 Off ch=8 n=40 v=122
137761 On ch=8 n=38 v=117
138718 Off ch=8 n=38 v=117
138725 On ch=8 n=40 v=100
139199 Off ch=8 n=40 v=100
139204 On ch=8 n=39 v=113
139674 Off ch=8 n=39 v=113
139684 On ch=8 n=38 v=102
140638 On ch=8 n=33 v=117
140646 Off ch=8 n=38 v=102
141591 Off ch=8 n=33 v=117
141600 On ch=8 n=28 v=127
142558 Off ch=8 n=28 v=127
142560 On ch=8 n=30 v=116
143010 Off ch=8 n=30 v=116
143034 On ch=8 n=35 v=98
143996 On ch=8 n=30 v=104
144006 Off ch=8 n=35 v=98
144467 Off ch=8 n=30 v=104
144478 On ch=8 n=28 v=95
145424 Off ch=8 n=28 v=95
145436 On ch=8 n=30 v=110
145910 Off ch=8 n=30 v=110
145918 On ch=8 n=35 v=102
146873 Off ch=8 n=35 v=102
146878 On ch=8 n=40 v=91
147330 Off ch=8 n=40 v=91
147358 On ch=8 n=40 v=108
148324 Off ch=8 n=40 v=108
148324 On ch=8 n=42 v=110
148800 Off ch=8 n=42 v=110
148802 On ch=8 n=35 v=99
149608 Off ch=8 n=35 v=99
161760 On ch=8 n=28 v=110
162721 On ch=8 n=33 v=127
162723 Off ch=8 n=28 v=110
163680 Off ch=8 n=33 v=127
163686 On ch=8 n=31 v=104
164638 Off ch=8 n=31 v=104
164639 On ch=8 n=33 v=120
165596 Off ch=8 n=33 v=120
165603 On ch=8 n=31 v=100
166556 On ch=8 n=38 v=109
166560 Off ch=8 n=31 v=100
167515 Off ch=8 n=38 v=109
167519 On ch=8 n=35 v=100
168485 Off ch=8 n=35 v=100
168485 On ch=8 n=33 v=117
169440 Off ch=8 n=33 v=117
169441 On ch=8 n=32 v=107
170397 On ch=8 n=31 v=111
170399 Off ch=8 n=32 v=107
173272 Off ch=8 n=31 v=111
263762 On ch=8 n=28 v=111
264950 Off ch=8 n=28 v=111
264966 On ch=8 n=30 v=121
265436 Off ch=8 n=30 v=121
265445 On ch=8 n=35 v=106
266402 On ch=8 n=37 v=114
266408 Off ch=8 n=35 v=106
266879 On ch=8 n=28 v=100
266880 Off ch=8 n=37 v=114
267835 Off ch=8 n=28 v=100
267840 On ch=8 n=31 v=117
268318 Off ch=8 n=31 v=117
268325 On ch=8 n=30 v=104
269276 Off ch=8 n=30 v=104
269288 On ch=8 n=33 v=113
269995 Off ch=8 n=33 v=113
270003 On ch=8 n=31 v=108
270114 Off ch=8 n=31 v=108
270122 On ch=8 n=31 v=107
270717 Off ch=8 n=31 v=107
270723 On ch=8 n=35 v=122
272630 Off ch=8 n=35 v=122
272639 On ch=8 n=28 v=100
273595 Off ch=8 n=28 v=100
273600 On ch=8 n=31 v=117
274078 Off ch=8 n=31 v=117
274085 On ch=8 n=30 v=104
275036 Off ch=8 n=30 v=104
275048 On ch=8 n=33 v=113
275755 Off ch=8 n=33 v=113
275763 On ch=8 n=31 v=108
275874 Off ch=8 n=31 v=108
275882 On ch=8 n=31 v=107
276477 Off ch=8 n=31 v=107
276483 On ch=8 n=35 v=122
278390 Off ch=8 n=35 v=122
278404 On ch=8 n=28 v=100
279355 Off ch=8 n=28 v=100
279360 On ch=8 n=31 v=117
279838 Off ch=8 n=31 v=117
279845 On ch=8 n=30 v=104
280796 Off ch=8 n=30 v=104
280808 On ch=8 n=33 v=113
281515 Off ch=8 n=33 v=113
281523 On ch=8 n=31 v=108
281634 Off ch=8 n=31 v=108
281652 On ch=8 n=31 v=107
282240 Off ch=8 n=31 v=107
282243 On ch=8 n=23 v=127
288000 Off ch=8 n=23 v=127
306720 Meta TrkEnd
TrkEnd
MTrk
0 Meta TrkName "Wakeman4"
0 Meta 0x20 08
0 Meta InstrName "Wakeman4"
0 KeySig 0 major
655 Par ch=9 c=0 v=0
660 Par ch=9 c=32 v=0
665 PrCh ch=9 p=52
670 Par ch=9 c=7 v=100
675 Par ch=9 c=10 v=64
680 Par ch=9 c=91 v=40
685 Par ch=9 c=93 v=0
690 Par ch=9 c=101 v=0
690 Par ch=9 c=100 v=0
690 Par ch=9 c=6 v=2
695 Par ch=9 c=99 v=1
695 Par ch=9 c=98 v=8
695 Par ch=9 c=6 v=64
700 Par ch=9 c=99 v=1
700 Par ch=9 c=98 v=9
700 Par ch=9 c=6 v=64
705 Par ch=9 c=99 v=1
705 Par ch=9 c=98 v=10
705 Par ch=9 c=6 v=64
710 Par ch=9 c=99 v=1
710 Par ch=9 c=98 v=32
710 Par ch=9 c=6 v=64
715 Par ch=9 c=99 v=1
715 Par ch=9 c=98 v=33
715 Par ch=9 c=6 v=64
720 Par ch=9 c=99 v=1
720 Par ch=9 c=98 v=99
720 Par ch=9 c=6 v=64
725 Par ch=9 c=99 v=1
725 Par ch=9 c=98 v=100
725 Par ch=9 c=6 v=64
730 Par ch=9 c=99 v=1
730 Par ch=9 c=98 v=102
730 Par ch=9 c=6 v=64
86880 KeySig 2 major
106080 KeySig 3 major
118560 KeySig 0 major
142574 On ch=9 n=61 v=107
142579 On ch=9 n=54 v=94
142580 On ch=9 n=57 v=93
143040 Off ch=9 n=61 v=107
143040 Off ch=9 n=54 v=94
143040 Off ch=9 n=57 v=93
143050 On ch=9 n=59 v=118
143051 On ch=9 n=63 v=107
143055 On ch=9 n=54 v=107
144001 Off ch=9 n=63 v=107
144004 Off ch=9 n=54 v=107
144010 On ch=9 n=64 v=124
144010 On ch=9 n=57 v=113
144011 On ch=9 n=61 v=112
144012 Off ch=9 n=59 v=118
144480 Off ch=9 n=61 v=112
144480 Off ch=9 n=64 v=124
144480 Off ch=9 n=57 v=113
144492 On ch=9 n=64 v=118
144492 On ch=9 n=59 v=109
144493 On ch=9 n=68 v=123
145449 Off ch=9 n=68 v=123
145454 Off ch=9 n=59 v=109
145454 On ch=9 n=61 v=120
145455 Off ch=9 n=64 v=118
145459 On ch=9 n=54 v=107
145460 On ch=9 n=57 v=106
145920 Off ch=9 n=61 v=120
145920 Off ch=9 n=54 v=107
145920 Off ch=9 n=57 v=106
145930 On ch=9 n=59 v=118
145931 On ch=9 n=63 v=107
145935 On ch=9 n=54 v=107
146881 Off ch=9 n=63 v=107
146884 Off ch=9 n=54 v=107
146890 On ch=9 n=64 v=124
146890 On ch=9 n=57 v=113
146891 On ch=9 n=61 v=112
146892 Off ch=9 n=59 v=118
147360 Off ch=9 n=61 v=112
147360 Off ch=9 n=64 v=124
147360 Off ch=9 n=57 v=113
147372 On ch=9 n=64 v=118
147372 On ch=9 n=59 v=109
147373 On ch=9 n=68 v=123
148329 Off ch=9 n=68 v=123
148334 Off ch=9 n=59 v=109
148334 On ch=9 n=61 v=120
148335 Off ch=9 n=64 v=118
148339 On ch=9 n=69 v=107
148340 On ch=9 n=64 v=106
148800 Off ch=9 n=61 v=120
148800 Off ch=9 n=64 v=106
148800 Off ch=9 n=69 v=107
148810 On ch=9 n=59 v=118
148811 On ch=9 n=63 v=107
148815 On ch=9 n=66 v=107
149761 Off ch=9 n=63 v=107
149764 Off ch=9 n=66 v=107
149770 On ch=9 n=57 v=113
149770 On ch=9 n=64 v=124
149771 On ch=9 n=61 v=112
149772 Off ch=9 n=59 v=118
150240 Off ch=9 n=61 v=112
150240 Off ch=9 n=57 v=113
150240 Off ch=9 n=64 v=124
150252 On ch=9 n=64 v=118
150253 On ch=9 n=68 v=123
150255 On ch=9 n=59 v=94
151185 Off ch=9 n=59 v=94
151196 Off ch=9 n=64 v=118
151198 Off ch=9 n=68 v=123
151211 On ch=9 n=56 v=79
151214 On ch=9 n=61 v=120
151219 On ch=9 n=64 v=107
151666 Off ch=9 n=56 v=79
151667 Off ch=9 n=61 v=120
151668 Off ch=9 n=64 v=107
151690 On ch=9 n=59 v=118
151691 On ch=9 n=63 v=107
151695 On ch=9 n=66 v=107
152641 Off ch=9 n=63 v=107
152644 Off ch=9 n=66 v=107
152650 On ch=9 n=57 v=113
152650 On ch=9 n=64 v=124
152651 On ch=9 n=61 v=112
152652 Off ch=9 n=59 v=118
153120 Off ch=9 n=57 v=113
153120 Off ch=9 n=64 v=124
153120 Off ch=9 n=61 v=112
153132 On ch=9 n=64 v=118
153133 On ch=9 n=68 v=123
153135 On ch=9 n=59 v=94
154065 Off ch=9 n=59 v=94
154076 Off ch=9 n=64 v=118
154078 Off ch=9 n=68 v=123
154091 On ch=9 n=56 v=79
154094 On ch=9 n=61 v=120
154099 On ch=9 n=64 v=107
154546 Off ch=9 n=56 v=79
154547 Off ch=9 n=61 v=120
154548 Off ch=9 n=64 v=107
154570 On ch=9 n=59 v=118
154571 On ch=9 n=63 v=107
154575 On ch=9 n=66 v=107
155521 Off ch=9 n=63 v=107
155524 Off ch=9 n=66 v=107
155530 On ch=9 n=57 v=113
155530 On ch=9 n=64 v=124
155531 On ch=9 n=61 v=112
155532 Off ch=9 n=59 v=118
156000 Off ch=9 n=57 v=113
156000 Off ch=9 n=64 v=124
156000 Off ch=9 n=61 v=112
156008 On ch=9 n=64 v=117
156012 On ch=9 n=59 v=109
156013 On ch=9 n=68 v=127
156496 On ch=9 n=64 v=121
156504 Off ch=9 n=68 v=127
156974 Off ch=9 n=59 v=109
156974 On ch=9 n=61 v=120
156976 Off ch=9 n=64 v=121
156979 On ch=9 n=66 v=107
156980 On ch=9 n=57 v=106
156982 Off ch=9 n=64 v=117
157440 Off ch=9 n=66 v=107
157440 Off ch=9 n=57 v=106
157440 Off ch=9 n=61 v=120
157450 On ch=9 n=59 v=118
157451 On ch=9 n=63 v=107
157455 On ch=9 n=54 v=107
158401 Off ch=9 n=63 v=107
158404 Off ch=9 n=54 v=107
158410 On ch=9 n=57 v=113
158411 On ch=9 n=61 v=112
158412 Off ch=9 n=59 v=118
158414 On ch=9 n=54 v=124
158880 Off ch=9 n=54 v=124
158880 Off ch=9 n=57 v=113
158880 Off ch=9 n=61 v=112
158892 On ch=9 n=64 v=118
158892 On ch=9 n=59 v=109
158893 On ch=9 n=68 v=123
159849 Off ch=9 n=68 v=123
159854 Off ch=9 n=59 v=109
159854 On ch=9 n=61 v=120
159855 Off ch=9 n=64 v=118
159859 On ch=9 n=69 v=107
159860 On ch=9 n=64 v=106
160320 Off ch=9 n=61 v=120
160320 Off ch=9 n=64 v=106
160320 Off ch=9 n=69 v=107
160330 On ch=9 n=59 v=118
160331 On ch=9 n=63 v=107
160335 On ch=9 n=66 v=107
161281 Off ch=9 n=63 v=107
161284 Off ch=9 n=59 v=118
161284 Off ch=9 n=66 v=107
161290 On ch=9 n=64 v=124
161290 On ch=9 n=56 v=113
161291 On ch=9 n=59 v=112
161752 Off ch=9 n=59 v=112
161754 Off ch=9 n=64 v=124
161757 Off ch=9 n=56 v=113
161760 KeySig 4 major
167520 KeySig 5 major
177120 KeySig 0 major
254880 Par ch=9 c=7 v=64
254892 On ch=9 n=64 v=118
254892 On ch=9 n=59 v=109
254893 On ch=9 n=68 v=123
255849 Off ch=9 n=68 v=123
255854 Off ch=9 n=59 v=109
255854 On ch=9 n=61 v=120
255855 Off ch=9 n=64 v=118
255859 On ch=9 n=64 v=107
255860 On ch=9 n=54 v=106
256320 Off ch=9 n=54 v=106
256320 Off ch=9 n=64 v=107
256320 Off ch=9 n=61 v=120
256330 On ch=9 n=59 v=118
256331 On ch=9 n=63 v=107
256335 On ch=9 n=54 v=107
257281 Off ch=9 n=63 v=107
257284 Off ch=9 n=54 v=107
257290 On ch=9 n=57 v=113
257290 On ch=9 n=64 v=124
257291 On ch=9 n=61 v=112
257292 Off ch=9 n=59 v=118
257760 Off ch=9 n=57 v=113
257760 Off ch=9 n=64 v=124
257760 Off ch=9 n=61 v=112
257772 On ch=9 n=59 v=109
257772 On ch=9 n=64 v=118
257773 On ch=9 n=68 v=123
258729 Off ch=9 n=68 v=123
258734 Off ch=9 n=59 v=109
258734 On ch=9 n=61 v=120
258735 Off ch=9 n=64 v=118
258740 On ch=9 n=64 v=106
258743 On ch=9 n=69 v=107
259200 Off ch=9 n=64 v=106
259200 Off ch=9 n=69 v=107
259200 Off ch=9 n=61 v=120
259210 On ch=9 n=59 v=118
259211 On ch=9 n=63 v=107
259215 On ch=9 n=66 v=107
260161 Off ch=9 n=63 v=107
260164 Off ch=9 n=66 v=107
260170 On ch=9 n=57 v=113
260170 On ch=9 n=64 v=124
260171 On ch=9 n=61 v=112
260172 Off ch=9 n=59 v=118
260640 Off ch=9 n=57 v=113
260640 Off ch=9 n=64 v=124
260640 Off ch=9 n=61 v=112
260652 On ch=9 n=59 v=109
260652 On ch=9 n=64 v=118
260653 On ch=9 n=68 v=123
261609 Off ch=9 n=68 v=123
261614 Off ch=9 n=59 v=109
261614 On ch=9 n=61 v=120
261615 Off ch=9 n=64 v=118
261620 On ch=9 n=64 v=106
261623 On ch=9 n=69 v=107
262080 Off ch=9 n=64 v=106
262080 Off ch=9 n=69 v=107
262080 Off ch=9 n=61 v=120
262091 On ch=9 n=59 v=102
262091 On ch=9 n=63 v=123
262091 On ch=9 n=66 v=123
263736 Off ch=9 n=59 v=102
263736 Off ch=9 n=63 v=123
263738 Off ch=9 n=66 v=123
263748 On ch=9 n=68 v=123
263749 On ch=9 n=71 v=114
263750 On ch=9 n=64 v=119
264948 Off ch=9 n=64 v=119
264951 Off ch=9 n=68 v=123
264957 Off ch=9 n=71 v=114
264964 On ch=9 n=69 v=106
264966 On ch=9 n=73 v=113
264967 On ch=9 n=66 v=119
265415 Off ch=9 n=66 v=119
265426 Off ch=9 n=69 v=106
265433 Off ch=9 n=73 v=113
265436 On ch=9 n=71 v=106
265440 On ch=9 n=63 v=113
265441 On ch=9 n=66 v=119
266381 Off ch=9 n=63 v=113
266384 Off ch=9 n=66 v=119
266388 Off ch=9 n=71 v=106
266411 On ch=9 n=64 v=99
266412 On ch=9 n=71 v=99
266415 On ch=9 n=68 v=117
266866 Off ch=9 n=64 v=99
266868 Off ch=9 n=68 v=117
266872 Off ch=9 n=71 v=99
306720 Meta TrkEnd
TrkEnd
MTrk
0 Meta TrkName "BrufordDrums"
0 Meta 0x20 09
0 Meta InstrName "BrufordDrums"
0 KeySig 2 major
735 PrCh ch=10 p=8
740 Par ch=10 c=7 v=100
745 Par ch=10 c=10 v=64
750 Par ch=10 c=91 v=40
755 Par ch=10 c=93 v=0
760 Par ch=10 c=101 v=0
760 Par ch=10 c=100 v=0
760 Par ch=10 c=6 v=2
765 Par ch=10 c=99 v=1
765 Par ch=10 c=98 v=8
765 Par ch=10 c=6 v=64
770 Par ch=10 c=99 v=1
770 Par ch=10 c=98 v=9
770 Par ch=10 c=6 v=64
775 Par ch=10 c=99 v=1
775 Par ch=10 c=98 v=10
775 Par ch=10 c=6 v=64
780 Par ch=10 c=99 v=1
780 Par ch=10 c=98 v=32
780 Par ch=10 c=6 v=64
785 Par ch=10 c=99 v=1
785 Par ch=10 c=98 v=33
785 Par ch=10 c=6 v=64
790 Par ch=10 c=99 v=1
790 Par ch=10 c=98 v=99
790 Par ch=10 c=6 v=64
795 Par ch=10 c=99 v=1
795 Par ch=10 c=98 v=100
795 Par ch=10 c=6 v=64
800 Par ch=10 c=99 v=1
800 Par ch=10 c=98 v=102
800 Par ch=10 c=6 v=64
805 Par ch=10 c=99 v=24
805 Par ch=10 c=98 v=38
805 Par ch=10 c=6 v=66
810 Par ch=10 c=99 v=24
810 Par ch=10 c=98 v=41
810 Par ch=10 c=6 v=64
26161 On ch=10 n=81 v=122
26350 Off ch=10 n=81 v=122
29041 On ch=10 n=81 v=122
29230 Off ch=10 n=81 v=122
31921 On ch=10 n=81 v=122
32110 Off ch=10 n=81 v=122
34801 On ch=10 n=81 v=122
34990 Off ch=10 n=81 v=122
37681 On ch=10 n=81 v=122
37870 Off ch=10 n=81 v=122
40561 On ch=10 n=81 v=122
40750 Off ch=10 n=81 v=122
43441 On ch=10 n=81 v=122
43630 Off ch=10 n=81 v=122
46321 On ch=10 n=81 v=122
46510 Off ch=10 n=81 v=122
49201 On ch=10 n=81 v=122
49390 Off ch=10 n=81 v=122
52081 On ch=10 n=81 v=122
52270 Off ch=10 n=81 v=122
54961 On ch=10 n=81 v=122
55150 Off ch=10 n=81 v=122
57841 On ch=10 n=81 v=122
58030 Off ch=10 n=81 v=122
60721 On ch=10 n=81 v=122
60910 Off ch=10 n=81 v=122
63601 On ch=10 n=81 v=122
63790 Off ch=10 n=81 v=122
66481 On ch=10 n=81 v=122
66670 Off ch=10 n=81 v=122
69361 On ch=10 n=81 v=122
69550 Off ch=10 n=81 v=122
72241 On ch=10 n=81 v=122
72430 Off ch=10 n=81 v=122
75121 On ch=10 n=81 v=122
75310 Off ch=10 n=81 v=122
78001 On ch=10 n=81 v=122
78190 Off ch=10 n=81 v=122
80881 On ch=10 n=81 v=122
81070 Off ch=10 n=81 v=122
83761 On ch=10 n=81 v=122
83950 Off ch=10 n=81 v=122
86637 On ch=10 n=38 v=91
86790 Off ch=10 n=38 v=91
86880 On ch=10 n=36 v=102
86880 On ch=10 n=49 v=104
87118 Off ch=10 n=36 v=102
87118 Off ch=10 n=49 v=104
87120 On ch=10 n=42 v=104
87358 Off ch=10 n=42 v=104
87360 On ch=10 n=38 v=106
87360 On ch=10 n=42 v=116
87598 Off ch=10 n=38 v=106
87598 Off ch=10 n=42 v=116
87600 On ch=10 n=42 v=107
87838 Off ch=10 n=42 v=107
87840 On ch=10 n=36 v=98
87840 On ch=10 n=42 v=99
88078 Off ch=10 n=36 v=98
88078 Off ch=10 n=42 v=99
88080 On ch=10 n=42 v=104
88318 Off ch=10 n=42 v=104
88320 On ch=10 n=38 v=95
88320 On ch=10 n=42 v=104
88558 Off ch=10 n=38 v=95
88558 Off ch=10 n=42 v=104
88560 On ch=10 n=42 v=104
88798 Off ch=10 n=42 v=104
88800 On ch=10 n=42 v=101
88800 On ch=10 n=36 v=95
89038 Off ch=10 n=42 v=101
89038 Off ch=10 n=36 v=95
89040 On ch=10 n=42 v=101
89040 On ch=10 n=36 v=102
89278 Off ch=10 n=42 v=101
89278 Off ch=10 n=36 v=102
89280 On ch=10 n=42 v=107
89280 On ch=10 n=38 v=97
89518 Off ch=10 n=42 v=107
89518 Off ch=10 n=38 v=97
89520 On ch=10 n=46 v=99
89520 On ch=10 n=36 v=97
89758 Off ch=10 n=46 v=99
89758 Off ch=10 n=36 v=97
90240 On ch=10 n=42 v=101
90240 On ch=10 n=38 v=84
90478 Off ch=10 n=42 v=101
90478 Off ch=10 n=38 v=84
90480 On ch=10 n=42 v=97
90718 Off ch=10 n=42 v=97
90720 On ch=10 n=42 v=104
90720 On ch=10 n=36 v=102
90958 Off ch=10 n=42 v=104
90958 Off ch=10 n=36 v=102
90960 On ch=10 n=42 v=104
91198 Off ch=10 n=42 v=104
91200 On ch=10 n=38 v=106
91200 On ch=10 n=42 v=116
91438 Off ch=10 n=38 v=106
91438 Off ch=10 n=42 v=116
91440 On ch=10 n=42 v=107
91678 Off ch=10 n=42 v=107
91680 On ch=10 n=36 v=98
91680 On ch=10 n=42 v=99
91918 Off ch=10 n=36 v=98
91918 Off ch=10 n=42 v=99
91920 On ch=10 n=36 v=98
91920 On ch=10 n=42 v=104
92158 Off ch=10 n=36 v=98
92158 Off ch=10 n=42 v=104
92160 On ch=10 n=38 v=95
92160 On ch=10 n=42 v=104
92398 Off ch=10 n=38 v=95
92398 Off ch=10 n=42 v=104
92400 On ch=10 n=42 v=104
92638 Off ch=10 n=42 v=104
92640 On ch=10 n=42 v=101
92640 On ch=10 n=36 v=95
92878 Off ch=10 n=42 v=101
92878 Off ch=10 n=36 v=95
92880 On ch=10 n=42 v=101
92880 On ch=10 n=36 v=102
93118 Off ch=10 n=42 v=101
93118 Off ch=10 n=36 v=102
93120 On ch=10 n=42 v=107
93120 On ch=10 n=38 v=97
93358 Off ch=10 n=42 v=107
93358 Off ch=10 n=38 v=97
93360 On ch=10 n=42 v=99
93360 On ch=10 n=36 v=97
93598 Off ch=10 n=42 v=99
93598 Off ch=10 n=36 v=97
93600 On ch=10 n=42 v=107
93838 Off ch=10 n=42 v=107
93840 On ch=10 n=46 v=110
93840 On ch=10 n=36 v=104
94078 Off ch=10 n=46 v=110
94078 Off ch=10 n=36 v=104
94080 On ch=10 n=42 v=101
94080 On ch=10 n=38 v=84
94318 Off ch=10 n=42 v=101
94318 Off ch=10 n=38 v=84
94320 On ch=10 n=42 v=97
94558 Off ch=10 n=42 v=97
94560 On ch=10 n=42 v=101
94560 On ch=10 n=36 v=95
94798 Off ch=10 n=42 v=101
94798 Off ch=10 n=36 v=95
94800 On ch=10 n=42 v=101
95038 Off ch=10 n=42 v=101
95040 On ch=10 n=42 v=107
95040 On ch=10 n=38 v=97
95278 Off ch=10 n=42 v=107
95278 Off ch=10 n=38 v=97
95280 On ch=10 n=42 v=99
95518 Off ch=10 n=42 v=99
95520 On ch=10 n=36 v=88
95520 On ch=10 n=42 v=107
95758 Off ch=10 n=36 v=88
95758 Off ch=10 n=42 v=107
95760 On ch=10 n=42 v=110
95998 Off ch=10 n=42 v=110
96000 On ch=10 n=42 v=101
96000 On ch=10 n=38 v=84
96238 Off ch=10 n=42 v=101
96238 Off ch=10 n=38 v=84
96240 On ch=10 n=36 v=104
96240 On ch=10 n=42 v=97
96478 Off ch=10 n=36 v=104
96478 Off ch=10 n=42 v=97
96480 On ch=10 n=42 v=101
96718 Off ch=10 n=42 v=101
96720 On ch=10 n=46 v=101
96720 On ch=10 n=36 v=102
96958 Off ch=10 n=46 v=101
96958 Off ch=10 n=36 v=102
96960 On ch=10 n=42 v=107
96960 On ch=10 n=38 v=97
97198 Off ch=10 n=42 v=107
97198 Off ch=10 n=38 v=97
97200 On ch=10 n=42 v=99
97438 Off ch=10 n=42 v=99
97440 On ch=10 n=36 v=104
97440 On ch=10 n=42 v=107
97678 Off ch=10 n=36 v=104
97678 Off ch=10 n=42 v=107
97680 On ch=10 n=42 v=110
97918 Off ch=10 n=42 v=110
97920 On ch=10 n=42 v=101
97920 On ch=10 n=38 v=84
98158 Off ch=10 n=42 v=101
98158 Off ch=10 n=38 v=84
98160 On ch=10 n=42 v=97
98398 Off ch=10 n=42 v=97
98400 On ch=10 n=42 v=104
98400 On ch=10 n=36 v=102
98638 Off ch=10 n=42 v=104
98638 Off ch=10 n=36 v=102
98640 On ch=10 n=42 v=104
98878 Off ch=10 n=42 v=104
98880 On ch=10 n=38 v=106
98880 On ch=10 n=42 v=116
99118 Off ch=10 n=38 v=106
99118 Off ch=10 n=42 v=116
99120 On ch=10 n=42 v=107
99358 Off ch=10 n=42 v=107
99360 On ch=10 n=36 v=98
99360 On ch=10 n=42 v=99
99598 Off ch=10 n=36 v=98
99598 Off ch=10 n=42 v=99
99600 On ch=10 n=42 v=104
99838 Off ch=10 n=42 v=104
99840 On ch=10 n=38 v=95
99840 On ch=10 n=42 v=104
100078 Off ch=10 n=38 v=95
100078 Off ch=10 n=42 v=104
100080 On ch=10 n=36 v=85
100080 On ch=10 n=42 v=104
100318 Off ch=10 n=36 v=85
100318 Off ch=10 n=42 v=104
100320 On ch=10 n=42 v=101
100320 On ch=10 n=36 v=95
100558 Off ch=10 n=42 v=101
100558 Off ch=10 n=36 v=95
100560 On ch=10 n=42 v=101
100798 Off ch=10 n=42 v=101
100800 On ch=10 n=42 v=107
100800 On ch=10 n=38 v=97
101038 Off ch=10 n=42 v=107
101038 Off ch=10 n=38 v=97
101040 On ch=10 n=46 v=99
101278 Off ch=10 n=46 v=99
101280 On ch=10 n=36 v=97
101280 On ch=10 n=42 v=107
101518 Off ch=10 n=36 v=97
101518 Off ch=10 n=42 v=107
101520 On ch=10 n=42 v=110
101758 Off ch=10 n=42 v=110
101760 On ch=10 n=42 v=101
101760 On ch=10 n=38 v=84
101998 Off ch=10 n=42 v=101
101998 Off ch=10 n=38 v=84
102000 On ch=10 n=42 v=97
102238 Off ch=10 n=42 v=97
102240 On ch=10 n=57 v=70
102478 Off ch=10 n=57 v=70
106080 KeySig 3 major
116160 Par ch=10 c=99 v=1
116160 Par ch=10 c=98 v=99
116160 Par ch=10 c=6 v=107
116160 Par ch=10 c=38 v=0
116160 On ch=10 n=49 v=101
118556 Off ch=10 n=49 v=101
118560 KeySig 0 major
118560 Par ch=10 c=99 v=1
118560 Par ch=10 c=98 v=99
118560 Par ch=10 c=6 v=64
118560 Par ch=10 c=38 v=0
118560 On ch=10 n=35 v=117
118560 On ch=10 n=57 v=76
118799 Off ch=10 n=57 v=76
118800 On ch=10 n=51 v=89
118858 Off ch=10 n=51 v=89
118876 Off ch=10 n=35 v=117
119039 On ch=10 n=38 v=102
119039 On ch=10 n=51 v=72
119116 Off ch=10 n=51 v=72
119244 Off ch=10 n=38 v=102
119279 On ch=10 n=51 v=62
119344 Off ch=10 n=51 v=62
119519 On ch=10 n=51 v=75
119520 On ch=10 n=35 v=114
119590 Off ch=10 n=51 v=75
119673 Off ch=10 n=35 v=114
119759 On ch=10 n=51 v=72
119826 Off ch=10 n=51 v=72
119999 On ch=10 n=51 v=68
120000 On ch=10 n=38 v=117
120065 Off ch=10 n=51 v=68
120184 Off ch=10 n=38 v=117
120240 On ch=10 n=51 v=67
120314 Off ch=10 n=51 v=67
120480 On ch=10 n=49 v=49
120481 On ch=10 n=35 v=117
120562 Off ch=10 n=49 v=49
120638 Off ch=10 n=35 v=117
120720 On ch=10 n=51 v=67
120780 Off ch=10 n=51 v=67
120959 On ch=10 n=38 v=112
120959 On ch=10 n=51 v=68
121023 Off ch=10 n=51 v=68
121077 Off ch=10 n=38 v=112
121199 On ch=10 n=51 v=68
121261 Off ch=10 n=51 v=68
121439 On ch=10 n=35 v=110
121440 On ch=10 n=57 v=64
121509 Off ch=10 n=57 v=64
121609 Off ch=10 n=35 v=110
121679 On ch=10 n=51 v=65
121739 Off ch=10 n=51 v=65
121919 On ch=10 n=38 v=112
121919 On ch=10 n=51 v=68
121978 Off ch=10 n=51 v=68
122007 Off ch=10 n=38 v=112
122159 On ch=10 n=51 v=62
122228 Off ch=10 n=51 v=62
122322 On ch=10 n=35 v=120
122387 Off ch=10 n=35 v=120
122399 On ch=10 n=49 v=74
122400 On ch=10 n=35 v=125
122439 Off ch=10 n=35 v=125
122453 Off ch=10 n=49 v=74
123359 On ch=10 n=35 v=125
123359 On ch=10 n=49 v=75
123420 Off ch=10 n=49 v=75
123520 Off ch=10 n=35 v=125
123838 On ch=10 n=57 v=73
123840 On ch=10 n=35 v=122
123935 Off ch=10 n=57 v=73
123990 Off ch=10 n=35 v=122
124319 On ch=10 n=35 v=122
124319 On ch=10 n=49 v=77
124390 Off ch=10 n=49 v=77
124428 Off ch=10 n=35 v=122
124560 On ch=10 n=51 v=58
124610 Off ch=10 n=51 v=58
124799 On ch=10 n=51 v=56
124800 On ch=10 n=38 v=117
124848 Off ch=10 n=51 v=56
124943 Off ch=10 n=38 v=117
125040 On ch=10 n=51 v=61
125090 Off ch=10 n=51 v=61
125280 On ch=10 n=35 v=110
125280 On ch=10 n=51 v=67
125342 Off ch=10 n=51 v=67
125409 Off ch=10 n=35 v=110
125520 On ch=10 n=51 v=61
125590 Off ch=10 n=51 v=61
125759 On ch=10 n=38 v=122
125759 On ch=10 n=51 v=63
125819 Off ch=10 n=51 v=63
125835 Off ch=10 n=38 v=122
126000 On ch=10 n=51 v=67
126059 Off ch=10 n=51 v=67
126161 On ch=10 n=35 v=120
126231 Off ch=10 n=35 v=120
126239 On ch=10 n=35 v=125
126240 On ch=10 n=51 v=66
126309 Off ch=10 n=51 v=66
126315 Off ch=10 n=35 v=125
126480 On ch=10 n=51 v=54
126527 Off ch=10 n=51 v=54
126718 On ch=10 n=38 v=112
126720 On ch=10 n=51 v=65
126779 Off ch=10 n=51 v=65
126813 Off ch=10 n=38 v=112
126960 On ch=10 n=51 v=62
127025 Off ch=10 n=51 v=62
127200 On ch=10 n=51 v=66
127203 On ch=10 n=35 v=120
127264 Off ch=10 n=51 v=66
127275 Off ch=10 n=35 v=120
127439 On ch=10 n=51 v=67
127503 Off ch=10 n=51 v=67
127678 On ch=10 n=38 v=108
127679 On ch=10 n=51 v=67
127746 Off ch=10 n=51 v=67
127770 Off ch=10 n=38 v=108
127920 On ch=10 n=51 v=67
127988 Off ch=10 n=51 v=67
128157 On ch=10 n=35 v=120
128160 On ch=10 n=49 v=72
128217 Off ch=10 n=49 v=72
128223 Off ch=10 n=35 v=120
129114 On ch=10 n=35 v=120
129119 On ch=10 n=49 v=72
129190 Off ch=10 n=49 v=72
129279 Off ch=10 n=35 v=120
129596 On ch=10 n=35 v=120
129599 On ch=10 n=57 v=76
129665 Off ch=10 n=57 v=76
129732 Off ch=10 n=35 v=120
130079 On ch=10 n=49 v=84
130080 On ch=10 n=35 v=127
130135 Off ch=10 n=49 v=84
130183 Off ch=10 n=35 v=127
130559 On ch=10 n=51 v=72
130560 On ch=10 n=38 v=117
130617 Off ch=10 n=51 v=72
130641 Off ch=10 n=38 v=117
130718 On ch=10 n=35 v=125
130721 On ch=10 n=49 v=82
130778 Off ch=10 n=49 v=82
130794 Off ch=10 n=35 v=125
130882 On ch=10 n=35 v=125
130883 On ch=10 n=57 v=87
130941 Off ch=10 n=57 v=87
130954 Off ch=10 n=35 v=125
131038 On ch=10 n=49 v=101
131040 On ch=10 n=35 v=127
131109 Off ch=10 n=49 v=101
131147 Off ch=10 n=35 v=127
131280 On ch=10 n=51 v=66
131333 Off ch=10 n=51 v=66
131520 On ch=10 n=38 v=120
131520 On ch=10 n=51 v=73
131581 Off ch=10 n=51 v=73
131617 Off ch=10 n=38 v=120
131762 On ch=10 n=51 v=72
131826 Off ch=10 n=51 v=72
132000 On ch=10 n=35 v=122
132001 On ch=10 n=51 v=67
132060 Off ch=10 n=51 v=67
132090 Off ch=10 n=35 v=122
132242 On ch=10 n=51 v=67
132308 Off ch=10 n=51 v=67
132478 On ch=10 n=38 v=125
132481 On ch=10 n=51 v=55
132547 Off ch=10 n=51 v=55
132553 Off ch=10 n=38 v=125
132720 On ch=10 n=51 v=56
132776 Off ch=10 n=51 v=56
132958 On ch=10 n=35 v=117
132959 On ch=10 n=49 v=71
133035 Off ch=10 n=35 v=117
133037 Off ch=10 n=49 v=71
133199 On ch=10 n=51 v=57
133264 Off ch=10 n=51 v=57
133439 On ch=10 n=51 v=54
133440 On ch=10 n=38 v=102
133508 Off ch=10 n=51 v=54
133601 Off ch=10 n=38 v=102
133679 On ch=10 n=51 v=57
133739 Off ch=10 n=51 v=57
133919 On ch=10 n=49 v=79
133920 On ch=10 n=35 v=112
133987 Off ch=10 n=35 v=112
134001 Off ch=10 n=49 v=79
134160 On ch=10 n=51 v=61
134226 Off ch=10 n=51 v=61
134399 On ch=10 n=38 v=120
134399 On ch=10 n=51 v=61
134456 Off ch=10 n=51 v=61
134482 Off ch=10 n=38 v=120
134639 On ch=10 n=51 v=54
134713 Off ch=10 n=51 v=54
134879 On ch=10 n=51 v=68
134884 On ch=10 n=35 v=122
134956 Off ch=10 n=51 v=68
134963 Off ch=10 n=35 v=122
135119 On ch=10 n=51 v=67
135183 Off ch=10 n=51 v=67
135357 On ch=10 n=48 v=112
135406 Off ch=10 n=48 v=112
135439 On ch=10 n=48 v=108
135478 Off ch=10 n=48 v=108
135516 On ch=10 n=48 v=98
135568 Off ch=10 n=48 v=98
135596 On ch=10 n=47 v=110
135632 Off ch=10 n=47 v=110
135675 On ch=10 n=47 v=102
135715 Off ch=10 n=47 v=102
135755 On ch=10 n=47 v=114
135802 Off ch=10 n=47 v=114
135840 On ch=10 n=35 v=127
135840 On ch=10 n=49 v=77
135924 Off ch=10 n=49 v=77
136001 Off ch=10 n=35 v=127
136079 On ch=10 n=51 v=58
136146 Off ch=10 n=51 v=58
136318 On ch=10 n=38 v=112
136319 On ch=10 n=51 v=58
136392 Off ch=10 n=51 v=58
136435 Off ch=10 n=38 v=112
136559 On ch=10 n=51 v=61
136614 Off ch=10 n=51 v=61
136797 On ch=10 n=57 v=70
136798 On ch=10 n=35 v=117
136900 Off ch=10 n=57 v=70
136918 Off ch=10 n=35 v=117
137041 On ch=10 n=51 v=52
137106 Off ch=10 n=51 v=52
137278 On ch=10 n=38 v=106
137281 On ch=10 n=51 v=61
137350 Off ch=10 n=51 v=61
137375 Off ch=10 n=38 v=106
137519 On ch=10 n=51 v=57
137591 Off ch=10 n=51 v=57
137758 On ch=10 n=35 v=120
137760 On ch=10 n=51 v=60
137823 Off ch=10 n=51 v=60
137869 Off ch=10 n=35 v=120
137999 On ch=10 n=51 v=49
138071 Off ch=10 n=51 v=49
138237 On ch=10 n=51 v=53
138239 On ch=10 n=38 v=117
138322 Off ch=10 n=51 v=53
138326 Off ch=10 n=38 v=117
138480 On ch=10 n=51 v=32
138551 Off ch=10 n=51 v=32
138716 On ch=10 n=49 v=54
138721 On ch=10 n=35 v=110
138808 Off ch=10 n=49 v=54
138839 Off ch=10 n=35 v=110
138956 On ch=10 n=51 v=47
139024 Off ch=10 n=51 v=47
139195 On ch=10 n=51 v=50
139200 On ch=10 n=38 v=125
139282 Off ch=10 n=51 v=50
139285 Off ch=10 n=38 v=125
139438 On ch=10 n=51 v=52
139511 Off ch=10 n=51 v=52
139679 On ch=10 n=49 v=74
139680 On ch=10 n=35 v=94
139733 Off ch=10 n=49 v=74
139743 Off ch=10 n=35 v=94
140639 On ch=10 n=49 v=75
140640 On ch=10 n=35 v=125
140700 Off ch=10 n=49 v=75
140809 Off ch=10 n=35 v=125
141118 On ch=10 n=57 v=73
141120 On ch=10 n=35 v=114
141212 Off ch=10 n=35 v=114
141215 Off ch=10 n=57 v=73
141601 On ch=10 n=35 v=104
141603 On ch=10 n=49 v=60
141709 Off ch=10 n=49 v=60
141824 Off ch=10 n=35 v=104
141843 On ch=10 n=51 v=48
141919 Off ch=10 n=51 v=48
142079 On ch=10 n=38 v=97
142083 On ch=10 n=51 v=58
142148 Off ch=10 n=51 v=58
142221 Off ch=10 n=38 v=97
142324 On ch=10 n=51 v=67
142412 Off ch=10 n=51 v=67
142564 On ch=10 n=51 v=48
142566 On ch=10 n=35 v=100
142645 Off ch=10 n=51 v=48
142708 Off ch=10 n=35 v=100
142802 On ch=10 n=51 v=58
142871 Off ch=10 n=51 v=58
143042 On ch=10 n=35 v=104
143043 On ch=10 n=49 v=51
143149 Off ch=10 n=49 v=51
143190 Off ch=10 n=35 v=104
143283 On ch=10 n=51 v=48
143359 Off ch=10 n=51 v=48
143520 On ch=10 n=38 v=94
143523 On ch=10 n=51 v=58
143588 Off ch=10 n=51 v=58
143621 Off ch=10 n=38 v=94
143764 On ch=10 n=51 v=67
143852 Off ch=10 n=51 v=67
143885 On ch=10 n=35 v=98
143932 Off ch=10 n=35 v=98
144001 On ch=10 n=35 v=98
144004 On ch=10 n=51 v=48
144085 Off ch=10 n=51 v=48
144137 Off ch=10 n=35 v=98
144242 On ch=10 n=51 v=58
144311 Off ch=10 n=51 v=58
144480 On ch=10 n=35 v=114
144483 On ch=10 n=49 v=51
144589 Off ch=10 n=49 v=51
144627 Off ch=10 n=35 v=114
144723 On ch=10 n=51 v=48
144799 Off ch=10 n=51 v=48
144963 On ch=10 n=51 v=58
144967 On ch=10 n=38 v=94
145028 Off ch=10 n=51 v=58
145105 Off ch=10 n=38 v=94
145204 On ch=10 n=51 v=67
145292 Off ch=10 n=51 v=67
145444 On ch=10 n=51 v=48
145448 On ch=10 n=35 v=102
145525 Off ch=10 n=51 v=48
145561 Off ch=10 n=35 v=102
145682 On ch=10 n=51 v=58
145751 Off ch=10 n=51 v=58
145913 On ch=10 n=35 v=110
145923 On ch=10 n=49 v=51
146029 Off ch=10 n=49 v=51
146055 Off ch=10 n=35 v=110
146163 On ch=10 n=51 v=48
146239 Off ch=10 n=51 v=48
146399 On ch=10 n=38 v=94
146403 On ch=10 n=51 v=58
146468 Off ch=10 n=51 v=58
146501 Off ch=10 n=38 v=94
146638 On ch=10 n=51 v=66
146672 Off ch=10 n=51 v=66
146722 On ch=10 n=51 v=49
146751 Off ch=10 n=51 v=49
146774 On ch=10 n=35 v=91
146794 On ch=10 n=51 v=64
146828 Off ch=10 n=51 v=64
146848 Off ch=10 n=35 v=91
146884 On ch=10 n=51 v=48
146885 On ch=10 n=38 v=83
146965 Off ch=10 n=51 v=48
147050 Off ch=10 n=38 v=83
147122 On ch=10 n=51 v=58
147191 Off ch=10 n=51 v=58
147356 On ch=10 n=35 v=102
147363 On ch=10 n=49 v=51
147469 Off ch=10 n=49 v=51
147477 Off ch=10 n=35 v=102
147603 On ch=10 n=51 v=48
147679 Off ch=10 n=51 v=48
147838 On ch=10 n=51 v=66
147843 On ch=10 n=38 v=91
147872 Off ch=10 n=51 v=66
147922 On ch=10 n=51 v=49
147945 Off ch=10 n=38 v=91
147951 Off ch=10 n=51 v=49
147994 On ch=10 n=51 v=64
148028 Off ch=10 n=51 v=64
148083 On ch=10 n=51 v=58
148148 Off ch=10 n=51 v=58
148324 On ch=10 n=51 v=48
148333 On ch=10 n=35 v=104
148405 Off ch=10 n=51 v=48
148435 Off ch=10 n=35 v=104
148562 On ch=10 n=51 v=58
148631 Off ch=10 n=51 v=58
148803 On ch=10 n=49 v=51
148807 On ch=10 n=35 v=110
148909 Off ch=10 n=49 v=51
148918 Off ch=10 n=35 v=110
149043 On ch=10 n=51 v=48
149119 Off ch=10 n=51 v=48
149283 On ch=10 n=51 v=58
149285 On ch=10 n=38 v=85
149348 Off ch=10 n=51 v=58
149362 Off ch=10 n=38 v=85
149524 On ch=10 n=51 v=67
149612 Off ch=10 n=51 v=67
149642 On ch=10 n=35 v=88
149691 Off ch=10 n=35 v=88
149764 On ch=10 n=51 v=48
149764 On ch=10 n=38 v=88
149845 Off ch=10 n=51 v=48
149885 Off ch=10 n=38 v=88
150002 On ch=10 n=51 v=58
150071 Off ch=10 n=51 v=58
150240 On ch=10 n=35 v=95
150243 On ch=10 n=51 v=51
150349 Off ch=10 n=51 v=51
150354 Off ch=10 n=35 v=95
150483 On ch=10 n=51 v=48
150559 Off ch=10 n=51 v=48
150721 On ch=10 n=38 v=91
150723 On ch=10 n=51 v=58
150788 Off ch=10 n=51 v=58
150826 Off ch=10 n=38 v=91
150964 On ch=10 n=51 v=67
151052 Off ch=10 n=51 v=67
151201 On ch=10 n=38 v=92
151204 On ch=10 n=51 v=48
151285 Off ch=10 n=51 v=48
151303 Off ch=10 n=38 v=92
151442 On ch=10 n=51 v=58
151511 Off ch=10 n=51 v=58
151683 On ch=10 n=51 v=51
151685 On ch=10 n=35 v=95
151789 Off ch=10 n=51 v=51
151792 Off ch=10 n=35 v=95
151923 On ch=10 n=51 v=48
151999 Off ch=10 n=51 v=48
152155 On ch=10 n=38 v=92
152163 On ch=10 n=51 v=58
152228 Off ch=10 n=51 v=58
152246 Off ch=10 n=38 v=92
152404 On ch=10 n=51 v=67
152492 Off ch=10 n=51 v=67
152518 On ch=10 n=35 v=98
152602 Off ch=10 n=35 v=98
152637 On ch=10 n=35 v=84
152644 On ch=10 n=51 v=48
152725 Off ch=10 n=51 v=48
152749 Off ch=10 n=35 v=84
152882 On ch=10 n=51 v=58
152951 Off ch=10 n=51 v=58
153112 On ch=10 n=35 v=108
153123 On ch=10 n=49 v=51
153229 Off ch=10 n=49 v=51
153252 Off ch=10 n=35 v=108
153363 On ch=10 n=51 v=48
153439 Off ch=10 n=51 v=48
153597 On ch=10 n=38 v=95
153603 On ch=10 n=51 v=58
153668 Off ch=10 n=51 v=58
153720 Off ch=10 n=38 v=95
153844 On ch=10 n=51 v=67
153932 Off ch=10 n=51 v=67
154080 On ch=10 n=35 v=106
154084 On ch=10 n=51 v=48
154165 Off ch=10 n=51 v=48
154184 Off ch=10 n=35 v=106
154322 On ch=10 n=51 v=58
154391 Off ch=10 n=51 v=58
154436 On ch=10 n=35 v=98
154490 Off ch=10 n=35 v=98
154563 On ch=10 n=51 v=51
154567 On ch=10 n=35 v=106
154661 Off ch=10 n=35 v=106
154669 Off ch=10 n=51 v=51
154803 On ch=10 n=51 v=48
154879 Off ch=10 n=51 v=48
155043 On ch=10 n=51 v=58
155048 On ch=10 n=38 v=85
155108 Off ch=10 n=51 v=58
155144 Off ch=10 n=38 v=85
155284 On ch=10 n=51 v=67
155372 Off ch=10 n=51 v=67
155390 On ch=10 n=35 v=79
155442 Off ch=10 n=35 v=79
155515 On ch=10 n=35 v=95
155524 On ch=10 n=51 v=48
155582 Off ch=10 n=35 v=95
155605 Off ch=10 n=51 v=48
155760 On ch=10 n=35 v=97
155762 On ch=10 n=51 v=58
155831 Off ch=10 n=51 v=58
155840 Off ch=10 n=35 v=97
156000 On ch=10 n=35 v=100
156003 On ch=10 n=49 v=51
156094 Off ch=10 n=35 v=100
156109 Off ch=10 n=49 v=51
156243 On ch=10 n=51 v=48
156319 Off ch=10 n=51 v=48
156483 On ch=10 n=51 v=58
156486 On ch=10 n=38 v=98
156548 Off ch=10 n=51 v=58
156562 Off ch=10 n=38 v=98
156724 On ch=10 n=51 v=67
156812 Off ch=10 n=51 v=67
156855 On ch=10 n=35 v=73
156898 Off ch=10 n=35 v=73
156964 On ch=10 n=51 v=48
156976 On ch=10 n=35 v=90
157038 Off ch=10 n=35 v=90
157045 Off ch=10 n=51 v=48
157202 On ch=10 n=51 v=58
157271 Off ch=10 n=51 v=58
157443 On ch=10 n=51 v=51
157446 On ch=10 n=35 v=98
157530 Off ch=10 n=35 v=98
157549 Off ch=10 n=51 v=51
157683 On ch=10 n=51 v=48
157759 Off ch=10 n=51 v=48
157923 On ch=10 n=51 v=58
157925 On ch=10 n=38 v=87
157988 Off ch=10 n=51 v=58
158019 Off ch=10 n=38 v=87
158164 On ch=10 n=51 v=67
158252 Off ch=10 n=51 v=67
158400 On ch=10 n=35 v=98
158404 On ch=10 n=49 v=36
158482 Off ch=10 n=35 v=98
158485 Off ch=10 n=49 v=36
158642 On ch=10 n=51 v=58
158711 Off ch=10 n=51 v=58
158874 On ch=10 n=35 v=102
158883 On ch=10 n=49 v=51
158965 Off ch=10 n=35 v=102
158989 Off ch=10 n=49 v=51
159123 On ch=10 n=51 v=48
159199 Off ch=10 n=51 v=48
159360 On ch=10 n=38 v=88
159363 On ch=10 n=51 v=58
159428 Off ch=10 n=51 v=58
159444 Off ch=10 n=38 v=88
159604 On ch=10 n=51 v=67
159692 Off ch=10 n=51 v=67
159715 On ch=10 n=35 v=80
159764 Off ch=10 n=35 v=80
159836 On ch=10 n=35 v=80
159844 On ch=10 n=51 v=48
159896 Off ch=10 n=35 v=80
159925 Off ch=10 n=51 v=48
160082 On ch=10 n=51 v=58
160151 Off ch=10 n=51 v=58
160314 On ch=10 n=35 v=97
160323 On ch=10 n=51 v=51
160397 Off ch=10 n=35 v=97
160429 Off ch=10 n=51 v=51
160563 On ch=10 n=51 v=48
160639 Off ch=10 n=51 v=48
160803 On ch=10 n=51 v=58
160807 On ch=10 n=38 v=97
160868 Off ch=10 n=51 v=58
160893 Off ch=10 n=38 v=97
161044 On ch=10 n=51 v=67
161132 Off ch=10 n=51 v=67
161286 On ch=10 n=48 v=104
161322 Off ch=10 n=48 v=104
161366 On ch=10 n=48 v=73
161403 Off ch=10 n=48 v=73
161445 On ch=10 n=48 v=77
161494 Off ch=10 n=48 v=77
161524 On ch=10 n=47 v=100
161563 Off ch=10 n=47 v=100
161609 On ch=10 n=47 v=84
161648 Off ch=10 n=47 v=84
161684 On ch=10 n=47 v=87
161726 Off ch=10 n=47 v=87
161760 KeySig 2 major
161760 Par ch=10 c=99 v=1
161760 Par ch=10 c=98 v=99
161760 Par ch=10 c=6 v=64
161760 Par ch=10 c=38 v=0
161760 On ch=10 n=35 v=117
161760 On ch=10 n=57 v=76
161999 Off ch=10 n=57 v=76
162000 On ch=10 n=51 v=89
162058 Off ch=10 n=51 v=89
162076 Off ch=10 n=35 v=117
162239 On ch=10 n=38 v=102
162239 On ch=10 n=51 v=72
162316 Off ch=10 n=51 v=72
162444 Off ch=10 n=38 v=102
162479 On ch=10 n=51 v=62
162544 Off ch=10 n=51 v=62
162719 On ch=10 n=51 v=75
162720 On ch=10 n=35 v=114
162790 Off ch=10 n=51 v=75
162873 Off ch=10 n=35 v=114
162959 On ch=10 n=51 v=72
163026 Off ch=10 n=51 v=72
163199 On ch=10 n=51 v=68
163200 On ch=10 n=38 v=117
163265 Off ch=10 n=51 v=68
163384 Off ch=10 n=38 v=117
163440 On ch=10 n=51 v=67
163514 Off ch=10 n=51 v=67
163680 On ch=10 n=49 v=49
163681 On ch=10 n=35 v=117
163762 Off ch=10 n=49 v=49
163838 Off ch=10 n=35 v=117
163920 On ch=10 n=51 v=67
163980 Off ch=10 n=51 v=67
164159 On ch=10 n=38 v=112
164159 On ch=10 n=51 v=68
164223 Off ch=10 n=51 v=68
164277 Off ch=10 n=38 v=112
164399 On ch=10 n=51 v=68
164461 Off ch=10 n=51 v=68
164481 On ch=10 n=51 v=70
164532 Off ch=10 n=51 v=70
164554 On ch=10 n=51 v=68
164612 Off ch=10 n=51 v=68
164639 On ch=10 n=35 v=110
164640 On ch=10 n=57 v=64
164709 Off ch=10 n=57 v=64
164809 Off ch=10 n=35 v=110
164879 On ch=10 n=51 v=65
164939 Off ch=10 n=51 v=65
165119 On ch=10 n=51 v=68
165119 On ch=10 n=38 v=112
165178 Off ch=10 n=51 v=68
165192 On ch=10 n=51 v=69
165207 Off ch=10 n=38 v=112
165249 Off ch=10 n=51 v=69
165274 On ch=10 n=51 v=68
165330 Off ch=10 n=51 v=68
165359 On ch=10 n=51 v=62
165428 Off ch=10 n=51 v=62
165522 On ch=10 n=35 v=120
165587 Off ch=10 n=35 v=120
165599 On ch=10 n=49 v=74
165600 On ch=10 n=35 v=125
165639 Off ch=10 n=35 v=125
165653 Off ch=10 n=49 v=74
166559 On ch=10 n=35 v=125
166559 On ch=10 n=49 v=75
166620 Off ch=10 n=49 v=75
166720 Off ch=10 n=35 v=125
167038 On ch=10 n=57 v=73
167040 On ch=10 n=35 v=122
167135 Off ch=10 n=57 v=73
167190 Off ch=10 n=35 v=122
167519 On ch=10 n=49 v=84
167520 On ch=10 n=35 v=127
167575 Off ch=10 n=49 v=84
167623 Off ch=10 n=35 v=127
168000 On ch=10 n=38 v=117
168081 Off ch=10 n=38 v=117
168158 On ch=10 n=35 v=125
168161 On ch=10 n=51 v=82
168218 Off ch=10 n=51 v=82
168234 Off ch=10 n=35 v=125
168322 On ch=10 n=35 v=125
168323 On ch=10 n=51 v=87
168381 Off ch=10 n=51 v=87
168394 Off ch=10 n=35 v=125
168478 On ch=10 n=51 v=101
168480 On ch=10 n=35 v=127
168549 Off ch=10 n=51 v=101
168587 Off ch=10 n=35 v=127
168720 On ch=10 n=51 v=66
168773 Off ch=10 n=51 v=66
168960 On ch=10 n=38 v=120
168960 On ch=10 n=51 v=73
169021 Off ch=10 n=51 v=73
169057 Off ch=10 n=38 v=120
169116 On ch=10 n=51 v=72
169180 Off ch=10 n=51 v=72
169268 On ch=10 n=51 v=87
169341 Off ch=10 n=51 v=87
169440 On ch=10 n=35 v=122
169441 On ch=10 n=49 v=67
169500 Off ch=10 n=49 v=67
169530 Off ch=10 n=35 v=122
169682 On ch=10 n=51 v=67
169748 Off ch=10 n=51 v=67
169918 On ch=10 n=38 v=125
169921 On ch=10 n=51 v=55
169987 Off ch=10 n=51 v=55
169993 Off ch=10 n=38 v=125
170160 On ch=10 n=51 v=56
170216 Off ch=10 n=51 v=56
170398 On ch=10 n=35 v=117
170399 On ch=10 n=49 v=71
170475 Off ch=10 n=35 v=117
170477 Off ch=10 n=49 v=71
170880 Par ch=10 c=99 v=1
170880 Par ch=10 c=98 v=99
170880 Par ch=10 c=6 v=96
170880 Par ch=10 c=38 v=0
170894 On ch=10 n=57 v=104
170997 Off ch=10 n=57 v=104
173280 Par ch=10 c=99 v=1
173280 Par ch=10 c=98 v=99
173280 Par ch=10 c=6 v=64
173280 Par ch=10 c=38 v=0
177120 KeySig 0 major
194400 On ch=10 n=39 v=35
194518 Off ch=10 n=39 v=35
194640 On ch=10 n=39 v=31
194758 Off ch=10 n=39 v=31
194880 On ch=10 n=39 v=30
194998 Off ch=10 n=39 v=30
195120 On ch=10 n=39 v=31
195238 Off ch=10 n=39 v=31
195360 On ch=10 n=39 v=29
195478 Off ch=10 n=39 v=29
195600 On ch=10 n=39 v=33
195718 Off ch=10 n=39 v=33
195840 On ch=10 n=39 v=35
195958 Off ch=10 n=39 v=35
196080 On ch=10 n=39 v=31
196198 Off ch=10 n=39 v=31
196320 On ch=10 n=39 v=30
196438 Off ch=10 n=39 v=30
196560 On ch=10 n=39 v=31
196678 Off ch=10 n=39 v=31
196800 On ch=10 n=39 v=29
196918 Off ch=10 n=39 v=29
197040 On ch=10 n=39 v=33
197158 Off ch=10 n=39 v=33
197280 On ch=10 n=39 v=35
197398 Off ch=10 n=39 v=35
197520 On ch=10 n=39 v=31
197638 Off ch=10 n=39 v=31
197760 On ch=10 n=39 v=30
197878 Off ch=10 n=39 v=30
198000 On ch=10 n=39 v=31
198118 Off ch=10 n=39 v=31
198240 On ch=10 n=39 v=29
198358 Off ch=10 n=39 v=29
198480 On ch=10 n=39 v=33
198598 Off ch=10 n=39 v=33
198720 On ch=10 n=39 v=35
198838 Off ch=10 n=39 v=35
198960 On ch=10 n=39 v=31
199078 Off ch=10 n=39 v=31
199200 On ch=10 n=39 v=30
199318 Off ch=10 n=39 v=30
199440 On ch=10 n=39 v=31
199558 Off ch=10 n=39 v=31
199680 On ch=10 n=39 v=29
199798 Off ch=10 n=39 v=29
199920 On ch=10 n=39 v=33
200038 Off ch=10 n=39 v=33
200160 On ch=10 n=39 v=35
200278 Off ch=10 n=39 v=35
200400 On ch=10 n=39 v=31
200518 Off ch=10 n=39 v=31
200640 On ch=10 n=39 v=30
200758 Off ch=10 n=39 v=30
200880 On ch=10 n=39 v=31
200998 Off ch=10 n=39 v=31
201120 On ch=10 n=39 v=29
201238 Off ch=10 n=39 v=29
201360 On ch=10 n=39 v=33
201478 Off ch=10 n=39 v=33
201600 On ch=10 n=39 v=35
201718 Off ch=10 n=39 v=35
201840 On ch=10 n=39 v=31
201958 Off ch=10 n=39 v=31
202080 On ch=10 n=39 v=30
202198 Off ch=10 n=39 v=30
202320 On ch=10 n=39 v=31
202438 Off ch=10 n=39 v=31
202560 On ch=10 n=39 v=29
202678 Off ch=10 n=39 v=29
202800 On ch=10 n=39 v=33
202918 Off ch=10 n=39 v=33
203040 On ch=10 n=39 v=35
203158 Off ch=10 n=39 v=35
203280 On ch=10 n=39 v=31
203398 Off ch=10 n=39 v=31
203520 On ch=10 n=39 v=30
203638 Off ch=10 n=39 v=30
203760 On ch=10 n=39 v=31
203878 Off ch=10 n=39 v=31
204000 On ch=10 n=39 v=29
204118 Off ch=10 n=39 v=29
204240 On ch=10 n=39 v=33
204358 Off ch=10 n=39 v=33
204480 On ch=10 n=39 v=35
204598 Off ch=10 n=39 v=35
204720 On ch=10 n=39 v=31
204838 Off ch=10 n=39 v=31
204960 On ch=10 n=39 v=30
205078 Off ch=10 n=39 v=30
205200 On ch=10 n=39 v=31
205318 Off ch=10 n=39 v=31
205440 On ch=10 n=39 v=29
205558 Off ch=10 n=39 v=29
205680 On ch=10 n=39 v=33
205798 Off ch=10 n=39 v=33
205920 On ch=10 n=39 v=35
206038 Off ch=10 n=39 v=35
206160 On ch=10 n=39 v=31
206278 Off ch=10 n=39 v=31
206400 On ch=10 n=39 v=30
206518 Off ch=10 n=39 v=30
206640 On ch=10 n=39 v=31
206758 Off ch=10 n=39 v=31
206880 On ch=10 n=39 v=29
206998 Off ch=10 n=39 v=29
207120 On ch=10 n=39 v=33
207238 Off ch=10 n=39 v=33
207360 On ch=10 n=39 v=35
207478 Off ch=10 n=39 v=35
207600 On ch=10 n=39 v=31
207718 Off ch=10 n=39 v=31
207840 On ch=10 n=39 v=30
207958 Off ch=10 n=39 v=30
208080 On ch=10 n=39 v=31
208198 Off ch=10 n=39 v=31
208320 On ch=10 n=39 v=29
208438 Off ch=10 n=39 v=29
208560 On ch=10 n=39 v=33
208678 Off ch=10 n=39 v=33
208800 On ch=10 n=39 v=35
208918 Off ch=10 n=39 v=35
209040 On ch=10 n=39 v=31
209158 Off ch=10 n=39 v=31
209280 On ch=10 n=39 v=30
209398 Off ch=10 n=39 v=30
209520 On ch=10 n=39 v=31
209638 Off ch=10 n=39 v=31
209760 On ch=10 n=39 v=29
209878 Off ch=10 n=39 v=29
210000 On ch=10 n=39 v=33
210118 Off ch=10 n=39 v=33
210240 On ch=10 n=39 v=35
210358 Off ch=10 n=39 v=35
210480 On ch=10 n=39 v=31
210598 Off ch=10 n=39 v=31
210720 On ch=10 n=39 v=30
210838 Off ch=10 n=39 v=30
210960 On ch=10 n=39 v=31
211078 Off ch=10 n=39 v=31
211200 On ch=10 n=39 v=29
211318 Off ch=10 n=39 v=29
211440 On ch=10 n=39 v=33
211558 Off ch=10 n=39 v=33
211680 On ch=10 n=39 v=35
211798 Off ch=10 n=39 v=35
211920 On ch=10 n=39 v=31
212038 Off ch=10 n=39 v=31
212160 On ch=10 n=39 v=30
212278 Off ch=10 n=39 v=30
212400 On ch=10 n=39 v=31
212518 Off ch=10 n=39 v=31
212640 On ch=10 n=39 v=29
212758 Off ch=10 n=39 v=29
212880 On ch=10 n=39 v=33
212998 Off ch=10 n=39 v=33
213120 On ch=10 n=39 v=35
213238 Off ch=10 n=39 v=35
213360 On ch=10 n=39 v=31
213478 Off ch=10 n=39 v=31
213600 On ch=10 n=39 v=30
213718 Off ch=10 n=39 v=30
213840 On ch=10 n=39 v=31
213958 Off ch=10 n=39 v=31
214080 On ch=10 n=39 v=29
214198 Off ch=10 n=39 v=29
214320 On ch=10 n=39 v=33
214438 Off ch=10 n=39 v=33
214560 On ch=10 n=39 v=35
214678 Off ch=10 n=39 v=35
214800 On ch=10 n=39 v=31
214918 Off ch=10 n=39 v=31
215040 On ch=10 n=39 v=30
215158 Off ch=10 n=39 v=30
215280 On ch=10 n=39 v=31
215398 Off ch=10 n=39 v=31
215520 On ch=10 n=39 v=29
215638 Off ch=10 n=39 v=29
215760 On ch=10 n=39 v=33
215878 Off ch=10 n=39 v=33
216000 On ch=10 n=39 v=35
216118 Off ch=10 n=39 v=35
216240 On ch=10 n=39 v=31
216358 Off ch=10 n=39 v=31
216480 On ch=10 n=39 v=30
216598 Off ch=10 n=39 v=30
216720 On ch=10 n=39 v=31
216838 Off ch=10 n=39 v=31
216960 On ch=10 n=39 v=29
217078 Off ch=10 n=39 v=29
217200 On ch=10 n=39 v=33
217318 Off ch=10 n=39 v=33
217440 On ch=10 n=39 v=35
217558 Off ch=10 n=39 v=35
217680 On ch=10 n=39 v=31
217798 Off ch=10 n=39 v=31
217920 On ch=10 n=39 v=30
218038 Off ch=10 n=39 v=30
218160 On ch=10 n=39 v=31
218278 Off ch=10 n=39 v=31
218400 On ch=10 n=39 v=29
218518 Off ch=10 n=39 v=29
218640 On ch=10 n=39 v=33
218758 Off ch=10 n=39 v=33
218880 On ch=10 n=39 v=35
218998 Off ch=10 n=39 v=35
219120 On ch=10 n=39 v=31
219238 Off ch=10 n=39 v=31
219360 On ch=10 n=39 v=30
219478 Off ch=10 n=39 v=30
219600 On ch=10 n=39 v=31
219718 Off ch=10 n=39 v=31
219840 On ch=10 n=39 v=29
219958 Off ch=10 n=39 v=29
220080 On ch=10 n=39 v=33
220198 Off ch=10 n=39 v=33
220320 On ch=10 n=39 v=35
220438 Off ch=10 n=39 v=35
220560 On ch=10 n=39 v=31
220678 Off ch=10 n=39 v=31
220800 On ch=10 n=39 v=30
220918 Off ch=10 n=39 v=30
221040 On ch=10 n=39 v=31
221158 Off ch=10 n=39 v=31
221280 On ch=10 n=39 v=29
221398 Off ch=10 n=39 v=29
221520 On ch=10 n=39 v=33
221638 Off ch=10 n=39 v=33
221760 On ch=10 n=39 v=35
221878 Off ch=10 n=39 v=35
222000 On ch=10 n=39 v=31
222118 Off ch=10 n=39 v=31
222240 On ch=10 n=39 v=30
222358 Off ch=10 n=39 v=30
222480 On ch=10 n=39 v=31
222598 Off ch=10 n=39 v=31
222720 On ch=10 n=39 v=29
222838 Off ch=10 n=39 v=29
222960 On ch=10 n=39 v=33
223078 Off ch=10 n=39 v=33
223200 On ch=10 n=39 v=35
223318 Off ch=10 n=39 v=35
223440 On ch=10 n=39 v=31
223558 Off ch=10 n=39 v=31
223680 On ch=10 n=39 v=30
223798 Off ch=10 n=39 v=30
223920 On ch=10 n=39 v=31
224038 Off ch=10 n=39 v=31
224160 On ch=10 n=39 v=29
224278 Off ch=10 n=39 v=29
224400 On ch=10 n=39 v=33
224518 Off ch=10 n=39 v=33
224640 On ch=10 n=39 v=35
224758 Off ch=10 n=39 v=35
224880 On ch=10 n=39 v=31
224998 Off ch=10 n=39 v=31
225120 On ch=10 n=39 v=30
225238 Off ch=10 n=39 v=30
225360 On ch=10 n=39 v=31
225478 Off ch=10 n=39 v=31
225600 On ch=10 n=39 v=29
225718 Off ch=10 n=39 v=29
225840 On ch=10 n=39 v=33
225958 Off ch=10 n=39 v=33
231119 On ch=10 n=46 v=127
231120 On ch=10 n=38 v=108
231358 Off ch=10 n=38 v=108
231383 On ch=10 n=44 v=73
231387 Off ch=10 n=46 v=127
231491 Off ch=10 n=44 v=73
231840 On ch=10 n=49 v=107
231840 On ch=10 n=35 v=117
231920 Off ch=10 n=49 v=107
232081 On ch=10 n=44 v=93
232186 Off ch=10 n=44 v=93
232288 Off ch=10 n=35 v=117
232320 On ch=10 n=38 v=108
232321 On ch=10 n=44 v=97
232417 Off ch=10 n=44 v=97
232447 Off ch=10 n=38 v=108
232561 On ch=10 n=44 v=79
232657 Off ch=10 n=44 v=79
232801 On ch=10 n=35 v=114
232801 On ch=10 n=44 v=110
232904 Off ch=10 n=44 v=110
233002 Off ch=10 n=35 v=114
233041 On ch=10 n=44 v=91
233118 Off ch=10 n=44 v=91
233280 On ch=10 n=44 v=110
233280 On ch=10 n=35 v=114
233378 Off ch=10 n=44 v=110
233495 Off ch=10 n=35 v=114
233521 On ch=10 n=44 v=89
233609 Off ch=10 n=44 v=89
233760 On ch=10 n=38 v=108
233760 On ch=10 n=44 v=99
233875 Off ch=10 n=44 v=99
233922 Off ch=10 n=38 v=108
234001 On ch=10 n=44 v=79
234101 Off ch=10 n=44 v=79
234240 On ch=10 n=35 v=100
234240 On ch=10 n=44 v=91
234321 Off ch=10 n=44 v=91
234354 Off ch=10 n=35 v=100
234480 On ch=10 n=44 v=91
234557 Off ch=10 n=44 v=91
234720 On ch=10 n=35 v=110
234720 On ch=10 n=44 v=99
234812 Off ch=10 n=44 v=99
234958 Off ch=10 n=35 v=110
234961 On ch=10 n=44 v=91
235026 Off ch=10 n=44 v=91
235200 On ch=10 n=38 v=92
235201 On ch=10 n=44 v=97
235298 Off ch=10 n=44 v=97
235369 Off ch=10 n=38 v=92
235441 On ch=10 n=44 v=67
235525 Off ch=10 n=44 v=67
235680 On ch=10 n=35 v=100
235680 On ch=10 n=44 v=85
235769 Off ch=10 n=44 v=85
235874 Off ch=10 n=35 v=100
235920 On ch=10 n=44 v=81
235995 Off ch=10 n=44 v=81
236160 On ch=10 n=35 v=110
236160 On ch=10 n=44 v=95
236281 Off ch=10 n=44 v=95
236400 On ch=10 n=44 v=82
236473 Off ch=10 n=44 v=82
236477 Off ch=10 n=35 v=110
236639 On ch=10 n=38 v=102
236640 On ch=10 n=44 v=89
236738 Off ch=10 n=44 v=89
236825 Off ch=10 n=38 v=102
236880 On ch=10 n=44 v=75
236967 Off ch=10 n=44 v=75
237120 On ch=10 n=35 v=98
237120 On ch=10 n=44 v=89
237216 Off ch=10 n=44 v=89
237333 Off ch=10 n=35 v=98
237360 On ch=10 n=44 v=79
237440 Off ch=10 n=44 v=79
237600 On ch=10 n=44 v=62
237600 On ch=10 n=35 v=117
237698 Off ch=10 n=44 v=62
237841 On ch=10 n=44 v=93
237946 Off ch=10 n=44 v=93
238048 Off ch=10 n=35 v=117
238080 On ch=10 n=38 v=108
238081 On ch=10 n=44 v=97
238177 Off ch=10 n=44 v=97
238207 Off ch=10 n=38 v=108
238321 On ch=10 n=44 v=79
238417 Off ch=10 n=44 v=79
238561 On ch=10 n=35 v=114
238561 On ch=10 n=44 v=110
238664 Off ch=10 n=44 v=110
238762 Off ch=10 n=35 v=114
238801 On ch=10 n=44 v=91
238878 Off ch=10 n=44 v=91
238919 On ch=10 n=38 v=107
238999 Off ch=10 n=38 v=107
239040 On ch=10 n=44 v=110
239040 On ch=10 n=35 v=114
239138 Off ch=10 n=44 v=110
239255 Off ch=10 n=35 v=114
239281 On ch=10 n=44 v=89
239369 Off ch=10 n=44 v=89
239520 On ch=10 n=38 v=108
239520 On ch=10 n=44 v=99
239635 Off ch=10 n=44 v=99
239682 Off ch=10 n=38 v=108
239761 On ch=10 n=44 v=79
239861 Off ch=10 n=44 v=79
240000 On ch=10 n=35 v=100
240000 On ch=10 n=44 v=91
240081 Off ch=10 n=44 v=91
240114 Off ch=10 n=35 v=100
240240 On ch=10 n=44 v=91
240317 Off ch=10 n=44 v=91
240480 On ch=10 n=35 v=110
240480 On ch=10 n=44 v=99
240572 Off ch=10 n=44 v=99
240718 Off ch=10 n=35 v=110
240721 On ch=10 n=44 v=91
240786 Off ch=10 n=44 v=91
240960 On ch=10 n=38 v=92
240961 On ch=10 n=44 v=97
241058 Off ch=10 n=44 v=97
241129 Off ch=10 n=38 v=92
241201 On ch=10 n=44 v=67
241285 Off ch=10 n=44 v=67
241440 On ch=10 n=35 v=100
241440 On ch=10 n=44 v=85
241529 Off ch=10 n=44 v=85
241634 Off ch=10 n=35 v=100
241680 On ch=10 n=44 v=81
241755 Off ch=10 n=44 v=81
241920 On ch=10 n=44 v=62
241920 On ch=10 n=35 v=117
242018 Off ch=10 n=44 v=62
242161 On ch=10 n=44 v=93
242266 Off ch=10 n=44 v=93
242368 Off ch=10 n=35 v=117
242400 On ch=10 n=38 v=108
242401 On ch=10 n=44 v=97
242497 Off ch=10 n=44 v=97
242527 Off ch=10 n=38 v=108
242641 On ch=10 n=44 v=79
242737 Off ch=10 n=44 v=79
242881 On ch=10 n=35 v=114
242881 On ch=10 n=44 v=110
242984 Off ch=10 n=44 v=110
243082 Off ch=10 n=35 v=114
243121 On ch=10 n=44 v=91
243198 Off ch=10 n=44 v=91
243239 On ch=10 n=38 v=107
243319 Off ch=10 n=38 v=107
243360 On ch=10 n=44 v=62
243360 On ch=10 n=35 v=117
243458 Off ch=10 n=44 v=62
243601 On ch=10 n=44 v=93
243706 Off ch=10 n=44 v=93
243808 Off ch=10 n=35 v=117
243840 On ch=10 n=38 v=108
243841 On ch=10 n=44 v=97
243937 Off ch=10 n=44 v=97
243967 Off ch=10 n=38 v=108
244081 On ch=10 n=44 v=79
244177 Off ch=10 n=44 v=79
244321 On ch=10 n=35 v=114
244321 On ch=10 n=44 v=110
244424 Off ch=10 n=44 v=110
244522 Off ch=10 n=35 v=114
244561 On ch=10 n=44 v=91
244638 Off ch=10 n=44 v=91
244800 On ch=10 n=44 v=110
244800 On ch=10 n=35 v=114
244898 Off ch=10 n=44 v=110
245015 Off ch=10 n=35 v=114
245041 On ch=10 n=44 v=89
245129 Off ch=10 n=44 v=89
245280 On ch=10 n=38 v=108
245280 On ch=10 n=44 v=99
245395 Off ch=10 n=44 v=99
245442 Off ch=10 n=38 v=108
245521 On ch=10 n=44 v=79
245621 Off ch=10 n=44 v=79
245760 On ch=10 n=35 v=100
245760 On ch=10 n=44 v=91
245841 Off ch=10 n=44 v=91
245874 Off ch=10 n=35 v=100
246000 On ch=10 n=44 v=91
246077 Off ch=10 n=44 v=91
246240 On ch=10 n=35 v=110
246240 On ch=10 n=44 v=99
246332 Off ch=10 n=44 v=99
246478 Off ch=10 n=35 v=110
246481 On ch=10 n=44 v=91
246546 Off ch=10 n=44 v=91
246720 On ch=10 n=38 v=92
246721 On ch=10 n=44 v=97
246818 Off ch=10 n=44 v=97
246889 Off ch=10 n=38 v=92
246961 On ch=10 n=44 v=67
247045 Off ch=10 n=44 v=67
247200 On ch=10 n=35 v=100
247200 On ch=10 n=44 v=85
247289 Off ch=10 n=44 v=85
247394 Off ch=10 n=35 v=100
247440 On ch=10 n=44 v=81
247515 Off ch=10 n=44 v=81
247680 On ch=10 n=44 v=62
247680 On ch=10 n=35 v=117
247778 Off ch=10 n=44 v=62
247921 On ch=10 n=44 v=93
248026 Off ch=10 n=44 v=93
248128 Off ch=10 n=35 v=117
248160 On ch=10 n=38 v=108
248161 On ch=10 n=44 v=97
248257 Off ch=10 n=44 v=97
248287 Off ch=10 n=38 v=108
248401 On ch=10 n=46 v=79
248497 Off ch=10 n=46 v=79
248641 On ch=10 n=35 v=114
248641 On ch=10 n=44 v=110
248744 Off ch=10 n=44 v=110
248842 Off ch=10 n=35 v=114
248881 On ch=10 n=44 v=91
248958 Off ch=10 n=44 v=91
249120 On ch=10 n=49 v=62
249120 On ch=10 n=35 v=117
249218 Off ch=10 n=49 v=62
249361 On ch=10 n=51 v=93
249466 Off ch=10 n=51 v=93
249568 Off ch=10 n=35 v=117
249600 On ch=10 n=38 v=108
249601 On ch=10 n=51 v=94
249697 Off ch=10 n=51 v=94
249727 Off ch=10 n=38 v=108
249841 On ch=10 n=51 v=94
249937 Off ch=10 n=51 v=94
250081 On ch=10 n=51 v=95
250081 On ch=10 n=35 v=114
250184 Off ch=10 n=51 v=95
250282 Off ch=10 n=35 v=114
250321 On ch=10 n=51 v=91
250398 Off ch=10 n=51 v=91
250439 On ch=10 n=35 v=107
250519 Off ch=10 n=35 v=107
250560 On ch=10 n=51 v=92
250560 On ch=10 n=35 v=117
250658 Off ch=10 n=51 v=92
250767 Off ch=10 n=35 v=117
250800 On ch=10 n=35 v=94
250801 On ch=10 n=51 v=90
250906 Off ch=10 n=51 v=90
250989 Off ch=10 n=35 v=94
251040 On ch=10 n=38 v=108
251041 On ch=10 n=51 v=91
251133 Off ch=10 n=51 v=91
251167 Off ch=10 n=38 v=108
251281 On ch=10 n=51 v=85
251377 Off ch=10 n=51 v=85
251400 On ch=10 n=35 v=88
251518 Off ch=10 n=35 v=88
251521 On ch=10 n=51 v=93
251521 On ch=10 n=35 v=114
251624 Off ch=10 n=51 v=93
251722 Off ch=10 n=35 v=114
251761 On ch=10 n=51 v=92
251838 Off ch=10 n=51 v=92
251883 On ch=10 n=38 v=107
251963 Off ch=10 n=38 v=107
252000 On ch=10 n=51 v=92
252000 On ch=10 n=35 v=117
252098 Off ch=10 n=51 v=92
252207 Off ch=10 n=35 v=117
252241 On ch=10 n=51 v=90
252346 Off ch=10 n=51 v=90
252480 On ch=10 n=38 v=108
252481 On ch=10 n=51 v=91
252573 Off ch=10 n=51 v=91
252607 Off ch=10 n=38 v=108
252721 On ch=10 n=51 v=85
252817 Off ch=10 n=51 v=85
252840 On ch=10 n=35 v=88
252958 Off ch=10 n=35 v=88
252961 On ch=10 n=51 v=93
252961 On ch=10 n=38 v=114
253064 Off ch=10 n=51 v=93
253162 Off ch=10 n=38 v=114
253201 On ch=10 n=51 v=92
253278 Off ch=10 n=51 v=92
253436 On ch=10 n=49 v=89
253440 On ch=10 n=35 v=117
253534 Off ch=10 n=49 v=89
253647 Off ch=10 n=35 v=117
253681 On ch=10 n=51 v=90
253786 Off ch=10 n=51 v=90
253801 On ch=10 n=35 v=92
253910 Off ch=10 n=35 v=92
253920 On ch=10 n=35 v=108
253921 On ch=10 n=51 v=91
254013 Off ch=10 n=51 v=91
254047 Off ch=10 n=35 v=108
254159 On ch=10 n=35 v=88
254161 On ch=10 n=51 v=85
254257 Off ch=10 n=51 v=85
254277 Off ch=10 n=35 v=88
254401 On ch=10 n=51 v=93
254401 On ch=10 n=38 v=114
254504 Off ch=10 n=51 v=93
254602 Off ch=10 n=38 v=114
254641 On ch=10 n=51 v=92
254718 Off ch=10 n=51 v=92
254880 On ch=10 n=49 v=62
254880 On ch=10 n=35 v=117
254978 Off ch=10 n=49 v=62
255121 On ch=10 n=51 v=90
255226 Off ch=10 n=51 v=90
255328 Off ch=10 n=35 v=117
255360 On ch=10 n=38 v=108
255361 On ch=10 n=51 v=91
255453 Off ch=10 n=51 v=91
255487 Off ch=10 n=38 v=108
255601 On ch=10 n=51 v=85
255697 Off ch=10 n=51 v=85
255720 On ch=10 n=35 v=107
255800 Off ch=10 n=35 v=107
255841 On ch=10 n=51 v=93
255841 On ch=10 n=35 v=114
255944 Off ch=10 n=51 v=93
256042 Off ch=10 n=35 v=114
256081 On ch=10 n=51 v=92
256158 Off ch=10 n=51 v=92
256320 On ch=10 n=51 v=92
256320 On ch=10 n=35 v=117
256418 Off ch=10 n=51 v=92
256561 On ch=10 n=51 v=90
256666 Off ch=10 n=51 v=90
256768 Off ch=10 n=35 v=117
256800 On ch=10 n=38 v=108
256801 On ch=10 n=51 v=91
256893 Off ch=10 n=51 v=91
256927 Off ch=10 n=38 v=108
257041 On ch=10 n=51 v=85
257137 Off ch=10 n=51 v=85
257281 On ch=10 n=51 v=93
257281 On ch=10 n=35 v=114
257384 Off ch=10 n=51 v=93
257482 Off ch=10 n=35 v=114
257521 On ch=10 n=51 v=92
257598 Off ch=10 n=51 v=92
257760 On ch=10 n=51 v=92
257760 On ch=10 n=35 v=117
257858 Off ch=10 n=51 v=92
258001 On ch=10 n=51 v=90
258106 Off ch=10 n=51 v=90
258208 Off ch=10 n=35 v=117
258240 On ch=10 n=38 v=108
258241 On ch=10 n=51 v=91
258333 Off ch=10 n=51 v=91
258367 Off ch=10 n=38 v=108
258481 On ch=10 n=51 v=85
258577 Off ch=10 n=51 v=85
258600 On ch=10 n=35 v=107
258680 Off ch=10 n=35 v=107
258721 On ch=10 n=51 v=93
258721 On ch=10 n=35 v=114
258824 Off ch=10 n=51 v=93
258922 Off ch=10 n=35 v=114
258961 On ch=10 n=51 v=92
259038 Off ch=10 n=51 v=92
259200 On ch=10 n=51 v=92
259200 On ch=10 n=35 v=117
259298 Off ch=10 n=51 v=92
259441 On ch=10 n=51 v=90
259546 Off ch=10 n=51 v=90
259648 Off ch=10 n=35 v=117
259680 On ch=10 n=38 v=108
259681 On ch=10 n=51 v=91
259773 Off ch=10 n=51 v=91
259807 Off ch=10 n=38 v=108
259921 On ch=10 n=51 v=85
260017 Off ch=10 n=51 v=85
260161 On ch=10 n=51 v=93
260161 On ch=10 n=35 v=114
260264 Off ch=10 n=51 v=93
260362 Off ch=10 n=35 v=114
260401 On ch=10 n=51 v=92
260478 Off ch=10 n=51 v=92
260640 On ch=10 n=51 v=92
260640 On ch=10 n=35 v=117
260738 Off ch=10 n=51 v=92
260881 On ch=10 n=51 v=90
260986 Off ch=10 n=51 v=90
261088 Off ch=10 n=35 v=117
261120 On ch=10 n=38 v=108
261121 On ch=10 n=51 v=91
261213 Off ch=10 n=51 v=91
261247 Off ch=10 n=38 v=108
261361 On ch=10 n=51 v=85
261457 Off ch=10 n=51 v=85
261601 On ch=10 n=51 v=93
261601 On ch=10 n=35 v=114
261704 Off ch=10 n=51 v=93
261802 Off ch=10 n=35 v=114
261841 On ch=10 n=51 v=92
261918 Off ch=10 n=51 v=92
262080 On ch=10 n=51 v=91
262080 On ch=10 n=35 v=117
262178 Off ch=10 n=51 v=91
262321 On ch=10 n=51 v=93
262426 Off ch=10 n=51 v=93
262528 Off ch=10 n=35 v=117
262560 On ch=10 n=51 v=92
262560 On ch=10 n=38 v=106
262678 Off ch=10 n=51 v=92
262678 Off ch=10 n=38 v=106
262800 On ch=10 n=51 v=92
262918 Off ch=10 n=51 v=92
263040 On ch=10 n=35 v=108
263041 On ch=10 n=51 v=100
263137 Off ch=10 n=51 v=100
263180 Off ch=10 n=35 v=108
263281 On ch=10 n=38 v=108
263281 On ch=10 n=51 v=112
263377 Off ch=10 n=51 v=112
263400 Off ch=10 n=38 v=108
263521 On ch=10 n=38 v=119
263521 On ch=10 n=51 v=119
263624 Off ch=10 n=51 v=119
263643 Off ch=10 n=38 v=119
263760 On ch=10 n=35 v=127
263761 On ch=10 n=49 v=121
263838 Off ch=10 n=49 v=121
263878 Off ch=10 n=35 v=127
264241 On ch=10 n=51 v=90
264346 Off ch=10 n=51 v=90
264480 On ch=10 n=38 v=108
264481 On ch=10 n=51 v=91
264573 Off ch=10 n=51 v=91
264607 Off ch=10 n=38 v=108
264721 On ch=10 n=51 v=85
264817 Off ch=10 n=51 v=85
264961 On ch=10 n=51 v=93
264961 On ch=10 n=35 v=114
265064 Off ch=10 n=51 v=93
265162 Off ch=10 n=35 v=114
265201 On ch=10 n=51 v=92
265278 Off ch=10 n=51 v=92
265440 On ch=10 n=51 v=92
265440 On ch=10 n=38 v=102
265538 Off ch=10 n=51 v=92
265556 Off ch=10 n=38 v=102
265681 On ch=10 n=51 v=90
265786 Off ch=10 n=51 v=90
265920 On ch=10 n=35 v=114
265921 On ch=10 n=49 v=70
266013 Off ch=10 n=49 v=70
266092 Off ch=10 n=35 v=114
266161 On ch=10 n=51 v=85
266257 Off ch=10 n=51 v=85
266401 On ch=10 n=38 v=113
266401 On ch=10 n=51 v=93
266504 Off ch=10 n=51 v=93
266534 Off ch=10 n=38 v=113
266879 On ch=10 n=49 v=74
266880 On ch=10 n=35 v=125
266919 Off ch=10 n=35 v=125
266933 Off ch=10 n=49 v=74
267360 On ch=10 n=38 v=117
267441 Off ch=10 n=38 v=117
267839 On ch=10 n=35 v=125
267839 On ch=10 n=49 v=75
267900 Off ch=10 n=49 v=75
268000 Off ch=10 n=35 v=125
268318 On ch=10 n=57 v=73
268320 On ch=10 n=35 v=122
268415 Off ch=10 n=57 v=73
268470 Off ch=10 n=35 v=122
268800 On ch=10 n=38 v=122
268890 Off ch=10 n=38 v=122
269280 On ch=10 n=35 v=102
269281 On ch=10 n=49 v=91
269347 Off ch=10 n=49 v=91
269398 Off ch=10 n=35 v=102
269766 On ch=10 n=38 v=89
269847 Off ch=10 n=38 v=89
269999 On ch=10 n=49 v=54
270001 On ch=10 n=35 v=117
270068 Off ch=10 n=49 v=54
270078 Off ch=10 n=35 v=117
270131 On ch=10 n=35 v=102
270138 On ch=10 n=57 v=57
270198 Off ch=10 n=57 v=57
270292 Off ch=10 n=35 v=102
270719 On ch=10 n=49 v=79
270720 On ch=10 n=35 v=112
270787 Off ch=10 n=35 v=112
270801 Off ch=10 n=49 v=79
270960 On ch=10 n=51 v=53
271078 Off ch=10 n=51 v=53
271199 On ch=10 n=38 v=120
271199 On ch=10 n=51 v=61
271256 Off ch=10 n=51 v=61
271282 Off ch=10 n=38 v=120
271679 On ch=10 n=51 v=68
271756 Off ch=10 n=51 v=68
272161 On ch=10 n=38 v=122
272162 On ch=10 n=51 v=90
272240 Off ch=10 n=38 v=122
272256 Off ch=10 n=51 v=90
272639 On ch=10 n=49 v=84
272640 On ch=10 n=35 v=127
272695 Off ch=10 n=49 v=84
272743 Off ch=10 n=35 v=127
273119 On ch=10 n=51 v=72
273120 On ch=10 n=38 v=117
273177 Off ch=10 n=51 v=72
273201 Off ch=10 n=38 v=117
273278 On ch=10 n=35 v=125
273281 On ch=10 n=49 v=82
273338 Off ch=10 n=49 v=82
273354 Off ch=10 n=35 v=125
273442 On ch=10 n=35 v=125
273443 On ch=10 n=57 v=87
273501 Off ch=10 n=57 v=87
273514 Off ch=10 n=35 v=125
273598 On ch=10 n=49 v=101
273600 On ch=10 n=35 v=127
273669 Off ch=10 n=49 v=101
273707 Off ch=10 n=35 v=127
273840 On ch=10 n=51 v=66
273893 Off ch=10 n=51 v=66
274080 On ch=10 n=38 v=120
274080 On ch=10 n=51 v=73
274141 Off ch=10 n=51 v=73
274177 Off ch=10 n=38 v=120
274322 On ch=10 n=51 v=72
274386 Off ch=10 n=51 v=72
274440 On ch=10 n=35 v=84
274558 Off ch=10 n=35 v=84
274560 On ch=10 n=38 v=122
274650 Off ch=10 n=38 v=122
275040 On ch=10 n=35 v=102
275041 On ch=10 n=49 v=91
275107 Off ch=10 n=49 v=91
275158 Off ch=10 n=35 v=102
275526 On ch=10 n=38 v=89
275607 Off ch=10 n=38 v=89
275759 On ch=10 n=49 v=54
275761 On ch=10 n=35 v=117
275828 Off ch=10 n=49 v=54
275838 Off ch=10 n=35 v=117
275891 On ch=10 n=35 v=102
275898 On ch=10 n=57 v=57
275958 Off ch=10 n=57 v=57
276052 Off ch=10 n=35 v=102
276479 On ch=10 n=49 v=79
276480 On ch=10 n=35 v=112
276547 Off ch=10 n=35 v=112
276561 Off ch=10 n=49 v=79
276720 On ch=10 n=51 v=53
276838 Off ch=10 n=51 v=53
276959 On ch=10 n=38 v=120
276959 On ch=10 n=51 v=61
277016 Off ch=10 n=51 v=61
277042 Off ch=10 n=38 v=120
277439 On ch=10 n=51 v=68
277516 Off ch=10 n=51 v=68
277921 On ch=10 n=38 v=122
277922 On ch=10 n=51 v=90
278000 Off ch=10 n=38 v=122
278016 Off ch=10 n=51 v=90
278399 On ch=10 n=49 v=84
278400 On ch=10 n=35 v=127
278455 Off ch=10 n=49 v=84
278503 Off ch=10 n=35 v=127
278879 On ch=10 n=51 v=72
278880 On ch=10 n=38 v=117
278937 Off ch=10 n=51 v=72
278961 Off ch=10 n=38 v=117
279038 On ch=10 n=35 v=125
279041 On ch=10 n=49 v=82
279098 Off ch=10 n=49 v=82
279114 Off ch=10 n=35 v=125
279202 On ch=10 n=35 v=125
279203 On ch=10 n=57 v=87
279261 Off ch=10 n=57 v=87
279274 Off ch=10 n=35 v=125
279358 On ch=10 n=49 v=101
279360 On ch=10 n=35 v=127
279429 Off ch=10 n=49 v=101
279467 Off ch=10 n=35 v=127
279600 On ch=10 n=51 v=66
279653 Off ch=10 n=51 v=66
279840 On ch=10 n=38 v=120
279840 On ch=10 n=51 v=73
279901 Off ch=10 n=51 v=73
279937 Off ch=10 n=38 v=120
280082 On ch=10 n=51 v=72
280146 Off ch=10 n=51 v=72
280200 On ch=10 n=35 v=84
280318 Off ch=10 n=35 v=84
280320 On ch=10 n=38 v=122
280410 Off ch=10 n=38 v=122
280800 On ch=10 n=35 v=102
280801 On ch=10 n=49 v=91
280867 Off ch=10 n=49 v=91
280918 Off ch=10 n=35 v=102
281286 On ch=10 n=38 v=89
281367 Off ch=10 n=38 v=89
281519 On ch=10 n=49 v=54
281521 On ch=10 n=35 v=117
281588 Off ch=10 n=49 v=54
281598 Off ch=10 n=35 v=117
281651 On ch=10 n=35 v=102
281658 On ch=10 n=57 v=57
281718 Off ch=10 n=57 v=57
281812 Off ch=10 n=35 v=102
282239 On ch=10 n=49 v=94
282240 On ch=10 n=35 v=112
282307 Off ch=10 n=35 v=112
282321 Off ch=10 n=49 v=94
306720 Meta TrkEnd
TrkEnd
MTrk
0 Meta TrkName "BrufordTom"
0 Meta 0x20 0a
0 Meta InstrName "BrufordTom"
0 KeySig 2 major
815 Par ch=11 c=0 v=8
820 Par ch=11 c=32 v=0
825 PrCh ch=11 p=118
830 Par ch=11 c=7 v=100
835 Par ch=11 c=10 v=64
840 Par ch=11 c=91 v=40
845 Par ch=11 c=93 v=0
850 Par ch=11 c=101 v=0
850 Par ch=11 c=100 v=0
850 Par ch=11 c=6 v=2
855 Par ch=11 c=99 v=1
855 Par ch=11 c=98 v=8
855 Par ch=11 c=6 v=64
860 Par ch=11 c=99 v=1
860 Par ch=11 c=98 v=9
860 Par ch=11 c=6 v=64
865 Par ch=11 c=99 v=1
865 Par ch=11 c=98 v=10
865 Par ch=11 c=6 v=64
870 Par ch=11 c=99 v=1
870 Par ch=11 c=98 v=32
870 Par ch=11 c=6 v=64
875 Par ch=11 c=99 v=1
875 Par ch=11 c=98 v=33
875 Par ch=11 c=6 v=64
880 Par ch=11 c=99 v=1
880 Par ch=11 c=98 v=99
880 Par ch=11 c=6 v=64
885 Par ch=11 c=99 v=1
885 Par ch=11 c=98 v=100
885 Par ch=11 c=6 v=64
890 Par ch=11 c=99 v=1
890 Par ch=11 c=98 v=102
890 Par ch=11 c=6 v=64
24960 On ch=11 n=24 v=97
25035 Off ch=11 n=24 v=97
25080 On ch=11 n=24 v=90
25163 Off ch=11 n=24 v=90
25200 On ch=11 n=24 v=87
25270 Off ch=11 n=24 v=87
25320 On ch=11 n=24 v=86
25401 Off ch=11 n=24 v=86
25680 On ch=11 n=24 v=104
25752 Off ch=11 n=24 v=104
25800 On ch=11 n=24 v=83
25873 Off ch=11 n=24 v=83
27840 On ch=11 n=24 v=97
27915 Off ch=11 n=24 v=97
27960 On ch=11 n=24 v=90
28043 Off ch=11 n=24 v=90
28080 On ch=11 n=24 v=87
28150 Off ch=11 n=24 v=87
28200 On ch=11 n=24 v=86
28281 Off ch=11 n=24 v=86
28560 On ch=11 n=24 v=104
28632 Off ch=11 n=24 v=104
28680 On ch=11 n=24 v=83
28753 Off ch=11 n=24 v=83
30720 On ch=11 n=24 v=97
30795 Off ch=11 n=24 v=97
30840 On ch=11 n=24 v=90
30923 Off ch=11 n=24 v=90
30960 On ch=11 n=24 v=87
31030 Off ch=11 n=24 v=87
31080 On ch=11 n=24 v=86
31161 Off ch=11 n=24 v=86
31440 On ch=11 n=24 v=104
31512 Off ch=11 n=24 v=104
31560 On ch=11 n=24 v=83
31633 Off ch=11 n=24 v=83
33600 On ch=11 n=24 v=97
33675 Off ch=11 n=24 v=97
33720 On ch=11 n=24 v=90
33803 Off ch=11 n=24 v=90
33840 On ch=11 n=24 v=87
33910 Off ch=11 n=24 v=87
33960 On ch=11 n=24 v=86
34041 Off ch=11 n=24 v=86
34320 On ch=11 n=24 v=104
34392 Off ch=11 n=24 v=104
34440 On ch=11 n=24 v=83
34513 Off ch=11 n=24 v=83
36480 On ch=11 n=24 v=97
36555 Off ch=11 n=24 v=97
36600 On ch=11 n=24 v=90
36683 Off ch=11 n=24 v=90
36720 On ch=11 n=24 v=87
36790 Off ch=11 n=24 v=87
36840 On ch=11 n=24 v=86
36921 Off ch=11 n=24 v=86
37200 On ch=11 n=24 v=104
37272 Off ch=11 n=24 v=104
37320 On ch=11 n=24 v=83
37393 Off ch=11 n=24 v=83
39360 On ch=11 n=24 v=97
39435 Off ch=11 n=24 v=97
39480 On ch=11 n=24 v=90
39563 Off ch=11 n=24 v=90
39600 On ch=11 n=24 v=87
39670 Off ch=11 n=24 v=87
39720 On ch=11 n=24 v=86
39801 Off ch=11 n=24 v=86
40080 On ch=11 n=24 v=104
40152 Off ch=11 n=24 v=104
40200 On ch=11 n=24 v=83
40273 Off ch=11 n=24 v=83
42240 On ch=11 n=24 v=97
42315 Off ch=11 n=24 v=97
42360 On ch=11 n=24 v=90
42443 Off ch=11 n=24 v=90
42480 On ch=11 n=24 v=87
42550 Off ch=11 n=24 v=87
42600 On ch=11 n=24 v=86
42681 Off ch=11 n=24 v=86
42960 On ch=11 n=24 v=104
43032 Off ch=11 n=24 v=104
43080 On ch=11 n=24 v=83
43153 Off ch=11 n=24 v=83
45120 On ch=11 n=24 v=97
45195 Off ch=11 n=24 v=97
45240 On ch=11 n=24 v=90
45323 Off ch=11 n=24 v=90
45360 On ch=11 n=24 v=87
45430 Off ch=11 n=24 v=87
45480 On ch=11 n=24 v=86
45561 Off ch=11 n=24 v=86
45840 On ch=11 n=24 v=104
45912 Off ch=11 n=24 v=104
45960 On ch=11 n=24 v=83
46033 Off ch=11 n=24 v=83
48000 On ch=11 n=24 v=97
48075 Off ch=11 n=24 v=97
48120 On ch=11 n=24 v=90
48203 Off ch=11 n=24 v=90
48240 On ch=11 n=24 v=87
48310 Off ch=11 n=24 v=87
48360 On ch=11 n=24 v=86
48441 Off ch=11 n=24 v=86
48720 On ch=11 n=24 v=104
48792 Off ch=11 n=24 v=104
48840 On ch=11 n=24 v=83
48913 Off ch=11 n=24 v=83
50880 On ch=11 n=24 v=97
50955 Off ch=11 n=24 v=97
51000 On ch=11 n=24 v=90
51083 Off ch=11 n=24 v=90
51120 On ch=11 n=24 v=87
51190 Off ch=11 n=24 v=87
51240 On ch=11 n=24 v=86
51321 Off ch=11 n=24 v=86
51600 On ch=11 n=24 v=104
51672 Off ch=11 n=24 v=104
51720 On ch=11 n=24 v=83
51793 Off ch=11 n=24 v=83
53760 On ch=11 n=24 v=97
53835 Off ch=11 n=24 v=97
53880 On ch=11 n=24 v=90
53963 Off ch=11 n=24 v=90
54000 On ch=11 n=24 v=87
54070 Off ch=11 n=24 v=87
54120 On ch=11 n=24 v=86
54201 Off ch=11 n=24 v=86
54480 On ch=11 n=24 v=104
54552 Off ch=11 n=24 v=104
54600 On ch=11 n=24 v=83
54673 Off ch=11 n=24 v=83
56640 On ch=11 n=24 v=97
56715 Off ch=11 n=24 v=97
56760 On ch=11 n=24 v=90
56843 Off ch=11 n=24 v=90
56880 On ch=11 n=24 v=87
56950 Off ch=11 n=24 v=87
57000 On ch=11 n=24 v=86
57081 Off ch=11 n=24 v=86
57360 On ch=11 n=24 v=104
57432 Off ch=11 n=24 v=104
57480 On ch=11 n=24 v=83
57553 Off ch=11 n=24 v=83
59520 On ch=11 n=24 v=97
59595 Off ch=11 n=24 v=97
59640 On ch=11 n=24 v=90
59723 Off ch=11 n=24 v=90
59760 On ch=11 n=24 v=87
59830 Off ch=11 n=24 v=87
59880 On ch=11 n=24 v=86
59961 Off ch=11 n=24 v=86
60240 On ch=11 n=24 v=104
60312 Off ch=11 n=24 v=104
60360 On ch=11 n=24 v=83
60433 Off ch=11 n=24 v=83
62400 On ch=11 n=24 v=97
62475 Off ch=11 n=24 v=97
62520 On ch=11 n=24 v=90
62603 Off ch=11 n=24 v=90
62640 On ch=11 n=24 v=87
62710 Off ch=11 n=24 v=87
62760 On ch=11 n=24 v=86
62841 Off ch=11 n=24 v=86
63120 On ch=11 n=24 v=104
63192 Off ch=11 n=24 v=104
63240 On ch=11 n=24 v=83
63313 Off ch=11 n=24 v=83
65280 On ch=11 n=24 v=97
65355 Off ch=11 n=24 v=97
65400 On ch=11 n=24 v=90
65483 Off ch=11 n=24 v=90
65520 On ch=11 n=24 v=87
65590 Off ch=11 n=24 v=87
65640 On ch=11 n=24 v=86
65721 Off ch=11 n=24 v=86
66000 On ch=11 n=24 v=104
66072 Off ch=11 n=24 v=104
66120 On ch=11 n=24 v=83
66193 Off ch=11 n=24 v=83
68160 On ch=11 n=24 v=97
68235 Off ch=11 n=24 v=97
68280 On ch=11 n=24 v=90
68363 Off ch=11 n=24 v=90
68400 On ch=11 n=24 v=87
68470 Off ch=11 n=24 v=87
68520 On ch=11 n=24 v=86
68601 Off ch=11 n=24 v=86
68880 On ch=11 n=24 v=104
68952 Off ch=11 n=24 v=104
69000 On ch=11 n=24 v=83
69073 Off ch=11 n=24 v=83
71040 On ch=11 n=24 v=97
71115 Off ch=11 n=24 v=97
71160 On ch=11 n=24 v=90
71243 Off ch=11 n=24 v=90
71280 On ch=11 n=24 v=87
71350 Off ch=11 n=24 v=87
71400 On ch=11 n=24 v=86
71481 Off ch=11 n=24 v=86
71760 On ch=11 n=24 v=104
71832 Off ch=11 n=24 v=104
71880 On ch=11 n=24 v=83
71953 Off ch=11 n=24 v=83
73920 On ch=11 n=24 v=97
73995 Off ch=11 n=24 v=97
74040 On ch=11 n=24 v=90
74123 Off ch=11 n=24 v=90
74160 On ch=11 n=24 v=87
74230 Off ch=11 n=24 v=87
74280 On ch=11 n=24 v=86
74361 Off ch=11 n=24 v=86
74640 On ch=11 n=24 v=104
74712 Off ch=11 n=24 v=104
74760 On ch=11 n=24 v=83
74833 Off ch=11 n=24 v=83
76800 On ch=11 n=24 v=97
76875 Off ch=11 n=24 v=97
76920 On ch=11 n=24 v=90
77003 Off ch=11 n=24 v=90
77040 On ch=11 n=24 v=87
77110 Off ch=11 n=24 v=87
77160 On ch=11 n=24 v=86
77241 Off ch=11 n=24 v=86
77520 On ch=11 n=24 v=104
77592 Off ch=11 n=24 v=104
77640 On ch=11 n=24 v=83
77713 Off ch=11 n=24 v=83
79680 On ch=11 n=24 v=97
79755 Off ch=11 n=24 v=97
79800 On ch=11 n=24 v=90
79883 Off ch=11 n=24 v=90
79920 On ch=11 n=24 v=87
79990 Off ch=11 n=24 v=87
80040 On ch=11 n=24 v=86
80121 Off ch=11 n=24 v=86
80400 On ch=11 n=24 v=104
80472 Off ch=11 n=24 v=104
80520 On ch=11 n=24 v=83
80593 Off ch=11 n=24 v=83
82560 On ch=11 n=24 v=97
82635 Off ch=11 n=24 v=97
82680 On ch=11 n=24 v=90
82763 Off ch=11 n=24 v=90
82800 On ch=11 n=24 v=87
82870 Off ch=11 n=24 v=87
82920 On ch=11 n=24 v=86
83001 Off ch=11 n=24 v=86
83280 On ch=11 n=24 v=104
83352 Off ch=11 n=24 v=104
83400 On ch=11 n=24 v=83
83473 Off ch=11 n=24 v=83
85440 On ch=11 n=24 v=97
85515 Off ch=11 n=24 v=97
85560 On ch=11 n=24 v=90
85643 Off ch=11 n=24 v=90
85680 On ch=11 n=24 v=87
85750 Off ch=11 n=24 v=87
85800 On ch=11 n=24 v=86
85881 Off ch=11 n=24 v=86
86160 On ch=11 n=24 v=104
86232 Off ch=11 n=24 v=104
86280 On ch=11 n=24 v=83
86353 Off ch=11 n=24 v=83
103200 On ch=11 n=24 v=97
103275 Off ch=11 n=24 v=97
103320 On ch=11 n=24 v=90
103403 Off ch=11 n=24 v=90
103440 On ch=11 n=24 v=87
103510 Off ch=11 n=24 v=87
103560 On ch=11 n=24 v=86
103641 Off ch=11 n=24 v=86
103920 On ch=11 n=24 v=104
103992 Off ch=11 n=24 v=104
104040 On ch=11 n=24 v=83
104113 Off ch=11 n=24 v=83
106080 KeySig 3 major
118560 KeySig 0 major
306720 Meta TrkEnd
TrkEnd
MTrk
0 Meta TrkName "Wakeman3"
0 Meta 0x20 0b
0 Meta InstrName "Wakeman3"
0 KeySig 0 major
895 Par ch=12 c=0 v=0
900 Par ch=12 c=32 v=0
905 PrCh ch=12 p=1
910 Par ch=12 c=7 v=127
915 Par ch=12 c=10 v=64
920 Par ch=12 c=91 v=40
925 Par ch=12 c=93 v=0
930 Par ch=12 c=101 v=0
930 Par ch=12 c=100 v=0
930 Par ch=12 c=6 v=2
935 Par ch=12 c=99 v=1
935 Par ch=12 c=98 v=8
935 Par ch=12 c=6 v=64
940 Par ch=12 c=99 v=1
940 Par ch=12 c=98 v=9
940 Par ch=12 c=6 v=64
945 Par ch=12 c=99 v=1
945 Par ch=12 c=98 v=10
945 Par ch=12 c=6 v=64
950 Par ch=12 c=99 v=1
950 Par ch=12 c=98 v=32
950 Par ch=12 c=6 v=64
955 Par ch=12 c=99 v=1
955 Par ch=12 c=98 v=33
955 Par ch=12 c=6 v=64
960 Par ch=12 c=99 v=1
960 Par ch=12 c=98 v=99
960 Par ch=12 c=6 v=64
965 Par ch=12 c=99 v=1
965 Par ch=12 c=98 v=100
965 Par ch=12 c=6 v=64
970 Par ch=12 c=99 v=1
970 Par ch=12 c=98 v=102
970 Par ch=12 c=6 v=64
226080 Par ch=12 c=7 v=127
226080 On ch=12 n=61 v=84
226198 Off ch=12 n=61 v=84
226200 On ch=12 n=56 v=86
226318 Off ch=12 n=56 v=86
226320 On ch=12 n=61 v=96
226438 Off ch=12 n=61 v=96
226440 On ch=12 n=63 v=99
226558 Off ch=12 n=63 v=99
226560 On ch=12 n=64 v=121
226678 Off ch=12 n=64 v=121
226680 On ch=12 n=56 v=123
226798 Off ch=12 n=56 v=123
226800 On ch=12 n=61 v=107
226918 Off ch=12 n=61 v=107
226920 On ch=12 n=56 v=116
227038 Off ch=12 n=56 v=116
227040 On ch=12 n=69 v=116
227158 Off ch=12 n=69 v=116
227160 On ch=12 n=73 v=119
227278 Off ch=12 n=73 v=119
227280 On ch=12 n=78 v=114
227398 Off ch=12 n=78 v=114
227400 On ch=12 n=81 v=126
227518 Off ch=12 n=81 v=126
227520 On ch=12 n=80 v=115
227638 Off ch=12 n=80 v=115
227640 On ch=12 n=75 v=109
227758 Off ch=12 n=75 v=109
227760 On ch=12 n=71 v=108
227998 Off ch=12 n=71 v=108
228000 On ch=12 n=83 v=119
228355 Off ch=12 n=83 v=119
228364 On ch=12 n=80 v=109
228480 On ch=12 n=69 v=116
228482 Off ch=12 n=80 v=109
228598 Off ch=12 n=69 v=116
228600 On ch=12 n=78 v=113
228718 Off ch=12 n=78 v=113
228720 On ch=12 n=80 v=109
228778 Off ch=12 n=80 v=109
228780 On ch=12 n=78 v=110
228838 Off ch=12 n=78 v=110
228840 On ch=12 n=73 v=116
228958 Off ch=12 n=73 v=116
228960 On ch=12 n=76 v=123
229078 Off ch=12 n=76 v=123
229080 On ch=12 n=80 v=119
229198 Off ch=12 n=80 v=119
229200 On ch=12 n=85 v=114
229318 Off ch=12 n=85 v=114
229320 On ch=12 n=87 v=113
229438 Off ch=12 n=87 v=113
229440 On ch=12 n=88 v=112
229678 Off ch=12 n=88 v=112
229680 On ch=12 n=85 v=105
229798 Off ch=12 n=85 v=105
229920 On ch=12 n=76 v=115
230158 Off ch=12 n=76 v=115
230160 On ch=12 n=81 v=117
230278 Off ch=12 n=81 v=117
230400 On ch=12 n=83 v=114
230638 Off ch=12 n=83 v=114
230640 On ch=12 n=80 v=115
230758 Off ch=12 n=80 v=115
230880 On ch=12 n=80 v=104
231358 Off ch=12 n=80 v=104
231360 On ch=12 n=81 v=110
231478 Off ch=12 n=81 v=110
231480 On ch=12 n=78 v=99
231598 Off ch=12 n=78 v=99
231600 On ch=12 n=73 v=98
231838 Off ch=12 n=73 v=98
231840 Par ch=12 c=7 v=86
231844 On ch=12 n=76 v=96
232329 Off ch=12 n=76 v=96
232333 On ch=12 n=80 v=92
232415 Off ch=12 n=80 v=92
232571 On ch=12 n=83 v=88
232633 Off ch=12 n=83 v=88
232799 On ch=12 n=85 v=93
233044 Off ch=12 n=85 v=93
233044 On ch=12 n=81 v=87
233132 Off ch=12 n=81 v=87
233280 On ch=12 n=78 v=87
233895 Off ch=12 n=78 v=87
234002 On ch=12 n=80 v=91
234118 Off ch=12 n=80 v=91
234123 On ch=12 n=83 v=87
234236 Off ch=12 n=83 v=87
234240 On ch=12 n=81 v=87
234590 Off ch=12 n=81 v=87
234600 On ch=12 n=80 v=90
234651 Off ch=12 n=80 v=90
234654 On ch=12 n=78 v=93
234720 Off ch=12 n=78 v=93
234728 On ch=12 n=80 v=91
235678 Off ch=12 n=80 v=91
235687 On ch=12 n=78 v=87
235894 Off ch=12 n=78 v=87
235916 On ch=12 n=80 v=83
236025 Off ch=12 n=80 v=83
236037 On ch=12 n=76 v=84
236152 Off ch=12 n=76 v=84
236160 On ch=12 n=71 v=91
236529 Off ch=12 n=71 v=91
236531 On ch=12 n=73 v=93
236644 Off ch=12 n=73 v=93
236888 On ch=12 n=76 v=93
237110 Off ch=12 n=76 v=93
237129 On ch=12 n=73 v=95
237361 Off ch=12 n=73 v=95
237366 On ch=12 n=76 v=87
237485 Off ch=12 n=76 v=87
237600 On ch=12 n=80 v=104
237846 On ch=12 n=76 v=87
237850 Off ch=12 n=80 v=104
238079 On ch=12 n=71 v=91
238082 Off ch=12 n=76 v=87
238257 Off ch=12 n=71 v=91
238309 On ch=12 n=83 v=90
238471 Off ch=12 n=83 v=90
238566 On ch=12 n=80 v=104
238848 Off ch=12 n=80 v=104
239040 On ch=12 n=78 v=81
239251 Off ch=12 n=78 v=81
239274 On ch=12 n=81 v=72
239388 Off ch=12 n=81 v=72
239756 On ch=12 n=87 v=97
239870 Off ch=12 n=87 v=97
240006 On ch=12 n=85 v=98
240235 On ch=12 n=83 v=80
240241 Off ch=12 n=85 v=98
240275 On ch=12 n=85 v=101
240280 Off ch=12 n=83 v=80
240320 On ch=12 n=83 v=79
240337 Off ch=12 n=85 v=101
240363 On ch=12 n=81 v=100
240372 Off ch=12 n=83 v=79
240480 Off ch=12 n=81 v=100
240487 On ch=12 n=80 v=89
240737 Off ch=12 n=80 v=89
240740 On ch=12 n=76 v=86
240828 Off ch=12 n=76 v=86
240962 On ch=12 n=83 v=94
241202 Off ch=12 n=83 v=94
241216 On ch=12 n=76 v=80
241307 Off ch=12 n=76 v=80
241461 On ch=12 n=73 v=84
241662 Off ch=12 n=73 v=84
241693 On ch=12 n=81 v=80
241784 Off ch=12 n=81 v=80
241920 On ch=12 n=78 v=65
242132 Off ch=12 n=78 v=65
242160 On ch=12 n=83 v=64
242278 Off ch=12 n=83 v=64
242280 On ch=12 n=78 v=75
242398 Off ch=12 n=78 v=75
242400 On ch=12 n=80 v=89
242878 Off ch=12 n=80 v=89
242880 On ch=12 n=80 v=73
242998 Off ch=12 n=80 v=73
243000 On ch=12 n=81 v=73
243118 Off ch=12 n=81 v=73
243120 On ch=12 n=80 v=70
243238 Off ch=12 n=80 v=70
243240 On ch=12 n=81 v=78
243358 Off ch=12 n=81 v=78
243598 On ch=12 n=78 v=97
243827 Off ch=12 n=78 v=97
243853 On ch=12 n=80 v=92
243935 Off ch=12 n=80 v=92
244091 On ch=12 n=83 v=88
244153 Off ch=12 n=83 v=88
244327 On ch=12 n=85 v=93
244557 Off ch=12 n=85 v=93
244564 On ch=12 n=81 v=87
244652 Off ch=12 n=81 v=87
244808 On ch=12 n=73 v=94
245265 Off ch=12 n=73 v=94
245280 On ch=12 n=81 v=91
245393 Off ch=12 n=81 v=91
245400 On ch=12 n=78 v=89
245514 Off ch=12 n=78 v=89
245522 On ch=12 n=73 v=91
245638 Off ch=12 n=73 v=91
245643 On ch=12 n=80 v=87
245756 Off ch=12 n=80 v=87
245766 On ch=12 n=81 v=90
245884 On ch=12 n=80 v=92
245885 Off ch=12 n=81 v=90
245994 Off ch=12 n=80 v=92
246006 On ch=12 n=78 v=88
246238 Off ch=12 n=78 v=88
246244 On ch=12 n=80 v=90
246863 Off ch=12 n=80 v=90
246962 On ch=12 n=85 v=90
247169 Off ch=12 n=85 v=90
247202 On ch=12 n=80 v=84
247394 Off ch=12 n=80 v=84
247444 On ch=12 n=80 v=84
247638 Off ch=12 n=80 v=84
247680 On ch=12 n=78 v=91
248049 Off ch=12 n=78 v=91
248051 On ch=12 n=80 v=93
248375 Off ch=12 n=80 v=93
248400 On ch=12 n=87 v=93
248630 Off ch=12 n=87 v=93
248640 On ch=12 n=85 v=95
248745 Off ch=12 n=85 v=95
248762 On ch=12 n=81 v=95
248881 Off ch=12 n=81 v=95
248886 On ch=12 n=78 v=87
249088 Off ch=12 n=78 v=87
249124 On ch=12 n=85 v=85
249255 Off ch=12 n=85 v=85
249848 On ch=12 n=85 v=82
249980 Off ch=12 n=85 v=82
250330 On ch=12 n=85 v=85
250429 Off ch=12 n=85 v=85
250563 On ch=12 n=80 v=78
250678 Off ch=12 n=80 v=78
250801 On ch=12 n=80 v=87
250927 Off ch=12 n=80 v=87
251284 On ch=12 n=80 v=79
251492 Off ch=12 n=80 v=79
251519 On ch=12 n=78 v=84
251764 Off ch=12 n=78 v=84
251764 On ch=12 n=81 v=95
251960 Off ch=12 n=81 v=95
252000 On ch=12 n=80 v=91
253098 Off ch=12 n=80 v=91
283200 On ch=12 n=82 v=62
283200 On ch=12 n=70 v=62
283217 Par ch=12 c=7 v=70
283227 Par ch=12 c=7 v=71
283257 Par ch=12 c=7 v=74
283288 Par ch=12 c=7 v=77
283318 Par ch=12 c=7 v=80
283338 Par ch=12 c=7 v=82
283358 Par ch=12 c=7 v=85
283388 Par ch=12 c=7 v=88
283418 Par ch=12 c=7 v=90
283438 Off ch=12 n=82 v=62
283438 Off ch=12 n=70 v=62
283440 On ch=12 n=81 v=67
283440 On ch=12 n=69 v=67
283460 Par ch=12 c=7 v=93
283491 Par ch=12 c=7 v=96
283558 Off ch=12 n=81 v=67
283558 Off ch=12 n=69 v=67
283560 On ch=12 n=80 v=77
283560 On ch=12 n=68 v=77
283642 Par ch=12 c=7 v=98
283678 Off ch=12 n=80 v=77
283678 Off ch=12 n=68 v=77
283680 On ch=12 n=79 v=73
283680 On ch=12 n=67 v=73
283707 Par ch=12 c=7 v=101
283798 Off ch=12 n=79 v=73
283798 Off ch=12 n=67 v=73
283800 Par ch=12 c=7 v=103
283800 On ch=12 n=78 v=67
283800 On ch=12 n=66 v=67
283918 Off ch=12 n=78 v=67
283918 Off ch=12 n=66 v=67
283920 On ch=12 n=77 v=73
283920 On ch=12 n=65 v=73
283977 Par ch=12 c=7 v=106
284038 Off ch=12 n=77 v=73
284038 Off ch=12 n=65 v=73
284040 On ch=12 n=76 v=76
284040 On ch=12 n=64 v=76
284066 Par ch=12 c=7 v=108
284110 Par ch=12 c=7 v=111
284155 Par ch=12 c=7 v=113
284158 Off ch=12 n=76 v=76
284158 Off ch=12 n=64 v=76
284160 On ch=12 n=75 v=77
284160 On ch=12 n=63 v=77
284223 Par ch=12 c=7 v=116
284278 Off ch=12 n=75 v=77
284278 Off ch=12 n=63 v=77
284280 On ch=12 n=74 v=74
284280 On ch=12 n=62 v=74
284336 Par ch=12 c=7 v=118
284398 Off ch=12 n=74 v=74
284398 Off ch=12 n=62 v=74
284400 On ch=12 n=73 v=67
284400 On ch=12 n=61 v=67
284425 Par ch=12 c=7 v=121
284492 Par ch=12 c=7 v=125
284518 Off ch=12 n=73 v=67
284518 Off ch=12 n=61 v=67
284520 On ch=12 n=72 v=80
284520 On ch=12 n=60 v=80
284638 Off ch=12 n=72 v=80
284638 Off ch=12 n=60 v=80
284640 On ch=12 n=71 v=80
284640 On ch=12 n=59 v=80
284672 Par ch=12 c=7 v=127
284758 Off ch=12 n=71 v=80
284758 Off ch=12 n=59 v=80
284760 On ch=12 n=70 v=62
284760 On ch=12 n=58 v=62
284878 Off ch=12 n=70 v=62
284878 Off ch=12 n=58 v=62
284880 On ch=12 n=69 v=72
284880 On ch=12 n=57 v=72
284998 Off ch=12 n=69 v=72
284998 Off ch=12 n=57 v=72
285000 On ch=12 n=68 v=78
285000 On ch=12 n=56 v=78
285118 Off ch=12 n=68 v=78
285118 Off ch=12 n=56 v=78
285120 On ch=12 n=67 v=83
285120 On ch=12 n=55 v=83
285238 Off ch=12 n=67 v=83
285238 Off ch=12 n=55 v=83
285240 On ch=12 n=66 v=77
285240 On ch=12 n=54 v=77
285358 Off ch=12 n=66 v=77
285358 Off ch=12 n=54 v=77
285360 On ch=12 n=65 v=87
285360 On ch=12 n=53 v=87
285478 Off ch=12 n=65 v=87
285478 Off ch=12 n=53 v=87
285480 On ch=12 n=64 v=84
285480 On ch=12 n=52 v=84
285598 Off ch=12 n=64 v=84
285598 Off ch=12 n=52 v=84
285600 On ch=12 n=63 v=74
285600 On ch=12 n=51 v=74
285718 Off ch=12 n=63 v=74
285718 Off ch=12 n=51 v=74
285720 On ch=12 n=62 v=80
285720 On ch=12 n=50 v=80
285838 Off ch=12 n=62 v=80
285838 Off ch=12 n=50 v=80
285840 On ch=12 n=61 v=77
285840 On ch=12 n=49 v=77
285958 Off ch=12 n=61 v=77
285958 Off ch=12 n=49 v=77
285960 On ch=12 n=60 v=80
285960 On ch=12 n=48 v=80
286078 Off ch=12 n=60 v=80
286078 Off ch=12 n=48 v=80
286080 On ch=12 n=59 v=94
286080 On ch=12 n=47 v=94
286198 Off ch=12 n=59 v=94
286198 Off ch=12 n=47 v=94
286200 On ch=12 n=58 v=89
286200 On ch=12 n=46 v=89
286318 Off ch=12 n=58 v=89
286318 Off ch=12 n=46 v=89
286320 On ch=12 n=57 v=98
286320 On ch=12 n=45 v=98
286438 Off ch=12 n=57 v=98
286438 Off ch=12 n=45 v=98
286440 On ch=12 n=56 v=85
286440 On ch=12 n=44 v=85
286558 Off ch=12 n=56 v=85
286558 Off ch=12 n=44 v=85
286560 On ch=12 n=55 v=83
286560 On ch=12 n=43 v=83
286678 Off ch=12 n=55 v=83
286678 Off ch=12 n=43 v=83
286680 On ch=12 n=54 v=89
286680 On ch=12 n=42 v=89
286798 Off ch=12 n=54 v=89
286798 Off ch=12 n=42 v=89
286800 On ch=12 n=53 v=88
286800 On ch=12 n=41 v=88
286918 Off ch=12 n=53 v=88
286918 Off ch=12 n=41 v=88
286920 On ch=12 n=52 v=83
286920 On ch=12 n=40 v=83
287038 Off ch=12 n=52 v=83
287038 Off ch=12 n=40 v=83
287040 On ch=12 n=51 v=74
287040 On ch=12 n=39 v=74
287158 Off ch=12 n=51 v=74
287158 Off ch=12 n=39 v=74
287160 On ch=12 n=50 v=78
287160 On ch=12 n=38 v=78
287278 Off ch=12 n=50 v=78
287278 Off ch=12 n=38 v=78
287280 On ch=12 n=49 v=75
287280 On ch=12 n=37 v=75
287398 Off ch=12 n=49 v=75
287398 Off ch=12 n=37 v=75
287400 On ch=12 n=48 v=81
287400 On ch=12 n=36 v=81
287518 Off ch=12 n=48 v=81
287518 Off ch=12 n=36 v=81
287520 On ch=12 n=47 v=82
287520 On ch=12 n=35 v=82
288000 Off ch=12 n=47 v=82
288000 Off ch=12 n=35 v=82
306720 Meta TrkEnd
TrkEnd
MTrk
0 Meta TrkName "Howe2's Echo"
0 Meta 0x20 0c
0 Meta InstrName "Howe2's Echo"
0 KeySig 0 major
975 Par ch=13 c=0 v=0
980 Par ch=13 c=32 v=0
985 PrCh ch=13 p=29
990 Par ch=13 c=7 v=100
995 Par ch=13 c=10 v=64
1000 Par ch=13 c=91 v=107
1005 Par ch=13 c=93 v=0
1010 Par ch=13 c=65 v=127
1015 Par ch=13 c=101 v=0
1015 Par ch=13 c=100 v=0
1015 Par ch=13 c=6 v=2
1020 Par ch=13 c=99 v=1
1020 Par ch=13 c=98 v=8
1020 Par ch=13 c=6 v=64
1025 Par ch=13 c=99 v=1
1025 Par ch=13 c=98 v=9
1025 Par ch=13 c=6 v=64
1030 Par ch=13 c=99 v=1
1030 Par ch=13 c=98 v=10
1030 Par ch=13 c=6 v=64
1035 Par ch=13 c=99 v=1
1035 Par ch=13 c=98 v=32
1035 Par ch=13 c=6 v=64
1040 Par ch=13 c=99 v=1
1040 Par ch=13 c=98 v=33
1040 Par ch=13 c=6 v=64
1045 Par ch=13 c=99 v=1
1045 Par ch=13 c=98 v=99
1045 Par ch=13 c=6 v=64
1050 Par ch=13 c=99 v=1
1050 Par ch=13 c=98 v=100
1050 Par ch=13 c=6 v=64
1055 Par ch=13 c=99 v=1
1055 Par ch=13 c=98 v=102
1055 Par ch=13 c=6 v=64
305280 On ch=13 n=71 v=1
305293 Off ch=13 n=71 v=1
305501 Par ch=13 c=5 v=127
305522 On ch=13 n=95 v=67
306047 Par ch=13 c=5 v=126
306115 Par ch=13 c=5 v=124
306150 Par ch=13 c=5 v=121
306176 Par ch=13 c=5 v=119
306199 Par ch=13 c=5 v=116
306226 Par ch=13 c=5 v=114
306249 Par ch=13 c=5 v=111
306275 Par ch=13 c=5 v=109
306295 Par ch=13 c=5 v=106
306318 Par ch=13 c=5 v=104
306340 Par ch=13 c=5 v=101
306371 Par ch=13 c=5 v=99
306394 Par ch=13 c=5 v=96
306413 Par ch=13 c=5 v=93
306432 Par ch=13 c=5 v=91
306451 Par ch=13 c=5 v=88
306470 Par ch=13 c=5 v=86
306486 Par ch=13 c=5 v=83
306501 Par ch=13 c=5 v=80
306512 Par ch=13 c=5 v=77
306523 Par ch=13 c=5 v=75
306535 Par ch=13 c=5 v=72
306550 Par ch=13 c=5 v=69
306565 Par ch=13 c=5 v=66
306581 Par ch=13 c=5 v=63
306592 Par ch=13 c=5 v=61
306604 Par ch=13 c=5 v=58
306615 Par ch=13 c=5 v=56
306623 Par ch=13 c=5 v=53
306630 Par ch=13 c=5 v=51
306638 Par ch=13 c=5 v=48
306642 Par ch=13 c=5 v=47
306650 Par ch=13 c=5 v=44
306653 Par ch=13 c=5 v=43
306657 Par ch=13 c=5 v=41
306661 Par ch=13 c=5 v=40
306665 Par ch=13 c=5 v=38
306673 Par ch=13 c=5 v=36
306676 Par ch=13 c=5 v=34
306680 Par ch=13 c=5 v=33
306683 Off ch=13 n=95 v=67
306684 Par ch=13 c=5 v=31
306688 Par ch=13 c=5 v=29
306691 Par ch=13 c=5 v=27
306695 Par ch=13 c=5 v=24
306699 Par ch=13 c=5 v=22
306703 Par ch=13 c=5 v=20
306707 Par ch=13 c=5 v=17
306711 Par ch=13 c=5 v=15
306714 Par ch=13 c=5 v=12
306718 Par ch=13 c=5 v=8
306720 Meta TrkEnd
TrkEnd
MTrk
0 Meta TrkName "Howe2's Echo"
0 Meta 0x20 0d
0 Meta InstrName "Howe2's Echo"
0 KeySig 0 major
1060 Par ch=14 c=0 v=0
1065 Par ch=14 c=32 v=0
1070 PrCh ch=14 p=29
1075 Par ch=14 c=7 v=100
1080 Par ch=14 c=10 v=64
1085 Par ch=14 c=91 v=99
1090 Par ch=14 c=93 v=0
1095 Par ch=14 c=65 v=127
1100 Par ch=14 c=101 v=0
1100 Par ch=14 c=100 v=0
1100 Par ch=14 c=6 v=2
1105 Par ch=14 c=99 v=1
1105 Par ch=14 c=98 v=8
1105 Par ch=14 c=6 v=64
1110 Par ch=14 c=99 v=1
1110 Par ch=14 c=98 v=9
1110 Par ch=14 c=6 v=64
1115 Par ch=14 c=99 v=1
1115 Par ch=14 c=98 v=10
1115 Par ch=14 c=6 v=64
1120 Par ch=14 c=99 v=1
1120 Par ch=14 c=98 v=32
1120 Par ch=14 c=6 v=64
1125 Par ch=14 c=99 v=1
1125 Par ch=14 c=98 v=33
1125 Par ch=14 c=6 v=64
1130 Par ch=14 c=99 v=1
1130 Par ch=14 c=98 v=99
1130 Par ch=14 c=6 v=64
1135 Par ch=14 c=99 v=1
1135 Par ch=14 c=98 v=100
1135 Par ch=14 c=6 v=64
1140 Par ch=14 c=99 v=1
1140 Par ch=14 c=98 v=102
1140 Par ch=14 c=6 v=64
157587 Par ch=14 c=7 v=61
157598 On ch=14 n=76 v=1
157603 Par ch=14 c=7 v=63
157610 Par ch=14 c=7 v=65
157618 Par ch=14 c=7 v=66
157634 Off ch=14 n=76 v=1
157641 Par ch=14 c=7 v=69
157671 Par ch=14 c=7 v=72
157702 Par ch=14 c=7 v=74
157763 Par ch=14 c=7 v=77
157794 Par ch=14 c=7 v=80
157801 Par ch=14 c=7 v=81
157809 Par ch=14 c=7 v=83
157817 Par ch=14 c=7 v=85
157824 Par ch=14 c=7 v=87
157832 Par ch=14 c=7 v=88
157839 Par ch=14 c=7 v=90
157847 Par ch=14 c=7 v=92
157855 Par ch=14 c=7 v=93
157862 Par ch=14 c=7 v=95
157885 Par ch=14 c=7 v=97
158175 Par ch=14 c=7 v=100
158259 Par ch=14 c=7 v=102
158381 Par ch=14 c=7 v=105
158501 On ch=14 n=76 v=76
158740 Par ch=14 c=5 v=48
158962 On ch=14 n=88 v=125
158996 Off ch=14 n=76 v=76
159820 Par ch=14 c=5 v=32
159941 On ch=14 n=76 v=80
159943 Off ch=14 n=88 v=125
160180 Par ch=14 c=5 v=76
160197 Par ch=14 c=7 v=102
160228 Par ch=14 c=7 v=99
160405 Off ch=14 n=76 v=80
305280 On ch=14 n=71 v=1
305293 Off ch=14 n=71 v=1
305520 Par ch=14 c=5 v=127
305523 On ch=14 n=95 v=94
305947 Par ch=14 c=5 v=126
306015 Par ch=14 c=5 v=124
306050 Par ch=14 c=5 v=121
306076 Par ch=14 c=5 v=119
306099 Par ch=14 c=5 v=116
306126 Par ch=14 c=5 v=114
306149 Par ch=14 c=5 v=111
306175 Par ch=14 c=5 v=109
306195 Par ch=14 c=5 v=106
306218 Par ch=14 c=5 v=104
306240 Par ch=14 c=5 v=101
306271 Par ch=14 c=5 v=99
306294 Par ch=14 c=5 v=96
306313 Par ch=14 c=5 v=93
306332 Par ch=14 c=5 v=91
306351 Par ch=14 c=5 v=88
306370 Par ch=14 c=5 v=86
306386 Par ch=14 c=5 v=83
306401 Par ch=14 c=5 v=80
306412 Par ch=14 c=5 v=77
306423 Par ch=14 c=5 v=75
306435 Par ch=14 c=5 v=72
306450 Par ch=14 c=5 v=69
306465 Par ch=14 c=5 v=66
306481 Par ch=14 c=5 v=63
306492 Par ch=14 c=5 v=61
306504 Par ch=14 c=5 v=58
306515 Par ch=14 c=5 v=56
306523 Par ch=14 c=5 v=53
306530 Par ch=14 c=5 v=51
306538 Par ch=14 c=5 v=48
306542 Par ch=14 c=5 v=47
306550 Par ch=14 c=5 v=44
306553 Par ch=14 c=5 v=43
306557 Par ch=14 c=5 v=41
306561 Par ch=14 c=5 v=40
306565 Par ch=14 c=5 v=38
306573 Par ch=14 c=5 v=36
306576 Par ch=14 c=5 v=34
306580 Par ch=14 c=5 v=33
306581 Off ch=14 n=95 v=94
306584 Par ch=14 c=5 v=31
306588 Par ch=14 c=5 v=29
306591 Par ch=14 c=5 v=27
306595 Par ch=14 c=5 v=24
306599 Par ch=14 c=5 v=22
306603 Par ch=14 c=5 v=20
306607 Par ch=14 c=5 v=17
306611 Par ch=14 c=5 v=15
306614 Par ch=14 c=5 v=12
306618 Par ch=14 c=5 v=8
306622 Par ch=14 c=5 v=4
306626 Par ch=14 c=5 v=1
306630 Par ch=14 c=5 v=0
306720 Meta TrkEnd
TrkEnd
MTrk
0 Meta TrkName "Screaming"
0 Meta 0x20 0e
0 Meta InstrName "Screaming"
0 KeySig 0 major
1145 Par ch=15 c=0 v=2
1150 Par ch=15 c=32 v=0
1155 PrCh ch=15 p=126
1160 Par ch=15 c=7 v=100
1165 Par ch=15 c=10 v=64
1170 Par ch=15 c=91 v=40
1175 Par ch=15 c=93 v=0
1180 Par ch=15 c=101 v=0
1180 Par ch=15 c=100 v=0
1180 Par ch=15 c=6 v=2
1185 Par ch=15 c=99 v=1
1185 Par ch=15 c=98 v=8
1185 Par ch=15 c=6 v=64
1190 Par ch=15 c=99 v=1
1190 Par ch=15 c=98 v=9
1190 Par ch=15 c=6 v=64
1195 Par ch=15 c=99 v=1
1195 Par ch=15 c=98 v=10
1195 Par ch=15 c=6 v=64
1200 Par ch=15 c=99 v=1
1200 Par ch=15 c=98 v=32
1200 Par ch=15 c=6 v=64
1205 Par ch=15 c=99 v=1
1205 Par ch=15 c=98 v=33
1205 Par ch=15 c=6 v=64
1210 Par ch=15 c=99 v=1
1210 Par ch=15 c=98 v=99
1210 Par ch=15 c=6 v=64
1215 Par ch=15 c=99 v=1
1215 Par ch=15 c=98 v=100
1215 Par ch=15 c=6 v=64
1220 Par ch=15 c=99 v=1
1220 Par ch=15 c=98 v=102
1220 Par ch=15 c=6 v=64
2359 Par ch=15 c=0 v=0
2360 Par ch=15 c=32 v=0
2523 On ch=15 n=55 v=120
2534 Par ch=15 c=0 v=0
2535 Par ch=15 c=32 v=0
2536 PrCh ch=15 p=126
2660 On ch=15 n=60 v=92
2662 Par ch=15 c=0 v=0
2663 Par ch=15 c=32 v=0
2674 Par ch=15 c=0 v=0
2675 Par ch=15 c=32 v=0
3380 Off ch=15 n=55 v=120
4583 Par ch=15 c=7 v=108
4676 Par ch=15 c=7 v=105
4851 Par ch=15 c=7 v=103
4965 Par ch=15 c=7 v=100
5078 Par ch=15 c=7 v=97
5233 Par ch=15 c=7 v=95
5297 Par ch=15 c=7 v=92
5401 Par ch=15 c=7 v=90
5436 Par ch=15 c=7 v=87
5505 Par ch=15 c=7 v=85
5555 Par ch=15 c=7 v=82
5614 Par ch=15 c=7 v=80
5699 Par ch=15 c=7 v=77
5743 Par ch=15 c=7 v=75
5861 Par ch=15 c=7 v=72
6014 Par ch=15 c=7 v=70
6136 Par ch=15 c=7 v=67
6273 Par ch=15 c=7 v=65
6380 Par ch=15 c=7 v=62
6487 Par ch=15 c=7 v=60
6624 Par ch=15 c=7 v=57
6784 Par ch=15 c=7 v=55
6909 Par ch=15 c=7 v=52
6976 Par ch=15 c=7 v=50
7056 Par ch=15 c=7 v=47
7124 Par ch=15 c=7 v=45
7192 Par ch=15 c=7 v=42
7260 Par ch=15 c=7 v=40
7351 Par ch=15 c=7 v=37
7441 Par ch=15 c=7 v=35
7497 Par ch=15 c=7 v=32
7589 Par ch=15 c=7 v=30
7656 Par ch=15 c=7 v=27
7751 Par ch=15 c=7 v=25
7823 Par ch=15 c=7 v=22
7916 Par ch=15 c=7 v=19
7977 Par ch=15 c=7 v=17
8060 Par ch=15 c=7 v=14
8121 Par ch=15 c=7 v=12
8225 Par ch=15 c=7 v=9
8318 Par ch=15 c=7 v=6
8359 Par ch=15 c=7 v=4
8493 Par ch=15 c=7 v=1
9246 Off ch=15 n=60 v=92
9541 On ch=15 n=53 v=65
9600 Off ch=15 n=53 v=65
306720 Meta TrkEnd
TrkEnd
